<?xml version="1.0" encoding="utf-8"?>
<svg xmlns="http://www.w3.org/2000/svg" xmlns:xlink="http://www.w3.org/1999/xlink" width="600" height="400" viewBox="0 0 2400 1600">
<defs>
  <clipPath id="clip520">
    <rect x="0" y="0" width="2400" height="1600"/>
  </clipPath>
</defs>
<path clip-path="url(#clip520)" d="
M0 1600 L2400 1600 L2400 0 L0 0  Z
  " fill="#ffffff" fill-rule="evenodd" fill-opacity="1"/>
<defs>
  <clipPath id="clip521">
    <rect x="480" y="0" width="1681" height="1600"/>
  </clipPath>
</defs>
<path clip-path="url(#clip520)" d="
M193.936 1486.45 L2352.76 1486.45 L2352.76 123.472 L193.936 123.472  Z
  " fill="#ffffff" fill-rule="evenodd" fill-opacity="1"/>
<defs>
  <clipPath id="clip522">
    <rect x="193" y="123" width="2160" height="1364"/>
  </clipPath>
</defs>
<polyline clip-path="url(#clip522)" style="stroke:#000000; stroke-linecap:butt; stroke-linejoin:round; stroke-width:2; stroke-opacity:0.1; fill:none" points="
  193.936,1486.45 193.936,123.472 
  "/>
<polyline clip-path="url(#clip522)" style="stroke:#000000; stroke-linecap:butt; stroke-linejoin:round; stroke-width:2; stroke-opacity:0.1; fill:none" points="
  733.641,1486.45 733.641,123.472 
  "/>
<polyline clip-path="url(#clip522)" style="stroke:#000000; stroke-linecap:butt; stroke-linejoin:round; stroke-width:2; stroke-opacity:0.1; fill:none" points="
  1273.35,1486.45 1273.35,123.472 
  "/>
<polyline clip-path="url(#clip522)" style="stroke:#000000; stroke-linecap:butt; stroke-linejoin:round; stroke-width:2; stroke-opacity:0.1; fill:none" points="
  1813.05,1486.45 1813.05,123.472 
  "/>
<polyline clip-path="url(#clip522)" style="stroke:#000000; stroke-linecap:butt; stroke-linejoin:round; stroke-width:2; stroke-opacity:0.1; fill:none" points="
  2352.76,1486.45 2352.76,123.472 
  "/>
<polyline clip-path="url(#clip520)" style="stroke:#000000; stroke-linecap:butt; stroke-linejoin:round; stroke-width:4; stroke-opacity:1; fill:none" points="
  193.936,1486.45 2352.76,1486.45 
  "/>
<polyline clip-path="url(#clip520)" style="stroke:#000000; stroke-linecap:butt; stroke-linejoin:round; stroke-width:4; stroke-opacity:1; fill:none" points="
  193.936,1486.45 193.936,1467.55 
  "/>
<polyline clip-path="url(#clip520)" style="stroke:#000000; stroke-linecap:butt; stroke-linejoin:round; stroke-width:4; stroke-opacity:1; fill:none" points="
  733.641,1486.45 733.641,1467.55 
  "/>
<polyline clip-path="url(#clip520)" style="stroke:#000000; stroke-linecap:butt; stroke-linejoin:round; stroke-width:4; stroke-opacity:1; fill:none" points="
  1273.35,1486.45 1273.35,1467.55 
  "/>
<polyline clip-path="url(#clip520)" style="stroke:#000000; stroke-linecap:butt; stroke-linejoin:round; stroke-width:4; stroke-opacity:1; fill:none" points="
  1813.05,1486.45 1813.05,1467.55 
  "/>
<polyline clip-path="url(#clip520)" style="stroke:#000000; stroke-linecap:butt; stroke-linejoin:round; stroke-width:4; stroke-opacity:1; fill:none" points="
  2352.76,1486.45 2352.76,1467.55 
  "/>
<path clip-path="url(#clip520)" d="M140.464 1532.02 L170.14 1532.02 L170.14 1535.95 L140.464 1535.95 L140.464 1532.02 Z" fill="#000000" fill-rule="evenodd" fill-opacity="1" /><path clip-path="url(#clip520)" d="M181.043 1544.91 L188.681 1544.91 L188.681 1518.55 L180.371 1520.21 L180.371 1515.95 L188.635 1514.29 L193.311 1514.29 L193.311 1544.91 L200.95 1544.91 L200.95 1548.85 L181.043 1548.85 L181.043 1544.91 Z" fill="#000000" fill-rule="evenodd" fill-opacity="1" /><path clip-path="url(#clip520)" d="M210.394 1542.97 L215.278 1542.97 L215.278 1548.85 L210.394 1548.85 L210.394 1542.97 Z" fill="#000000" fill-rule="evenodd" fill-opacity="1" /><path clip-path="url(#clip520)" d="M235.464 1517.37 Q231.852 1517.37 230.024 1520.93 Q228.218 1524.47 228.218 1531.6 Q228.218 1538.71 230.024 1542.27 Q231.852 1545.82 235.464 1545.82 Q239.098 1545.82 240.903 1542.27 Q242.732 1538.71 242.732 1531.6 Q242.732 1524.47 240.903 1520.93 Q239.098 1517.37 235.464 1517.37 M235.464 1513.66 Q241.274 1513.66 244.329 1518.27 Q247.408 1522.85 247.408 1531.6 Q247.408 1540.33 244.329 1544.94 Q241.274 1549.52 235.464 1549.52 Q229.653 1549.52 226.575 1544.94 Q223.519 1540.33 223.519 1531.6 Q223.519 1522.85 226.575 1518.27 Q229.653 1513.66 235.464 1513.66 Z" fill="#000000" fill-rule="evenodd" fill-opacity="1" /><path clip-path="url(#clip520)" d="M680.667 1532.02 L710.342 1532.02 L710.342 1535.95 L680.667 1535.95 L680.667 1532.02 Z" fill="#000000" fill-rule="evenodd" fill-opacity="1" /><path clip-path="url(#clip520)" d="M730.435 1517.37 Q726.824 1517.37 724.995 1520.93 Q723.19 1524.47 723.19 1531.6 Q723.19 1538.71 724.995 1542.27 Q726.824 1545.82 730.435 1545.82 Q734.069 1545.82 735.875 1542.27 Q737.703 1538.71 737.703 1531.6 Q737.703 1524.47 735.875 1520.93 Q734.069 1517.37 730.435 1517.37 M730.435 1513.66 Q736.245 1513.66 739.301 1518.27 Q742.379 1522.85 742.379 1531.6 Q742.379 1540.33 739.301 1544.94 Q736.245 1549.52 730.435 1549.52 Q724.625 1549.52 721.546 1544.94 Q718.491 1540.33 718.491 1531.6 Q718.491 1522.85 721.546 1518.27 Q724.625 1513.66 730.435 1513.66 Z" fill="#000000" fill-rule="evenodd" fill-opacity="1" /><path clip-path="url(#clip520)" d="M750.597 1542.97 L755.481 1542.97 L755.481 1548.85 L750.597 1548.85 L750.597 1542.97 Z" fill="#000000" fill-rule="evenodd" fill-opacity="1" /><path clip-path="url(#clip520)" d="M765.713 1514.29 L784.069 1514.29 L784.069 1518.22 L769.995 1518.22 L769.995 1526.7 Q771.013 1526.35 772.032 1526.19 Q773.05 1526 774.069 1526 Q779.856 1526 783.236 1529.17 Q786.615 1532.34 786.615 1537.76 Q786.615 1543.34 783.143 1546.44 Q779.671 1549.52 773.351 1549.52 Q771.175 1549.52 768.907 1549.15 Q766.662 1548.78 764.254 1548.04 L764.254 1543.34 Q766.338 1544.47 768.56 1545.03 Q770.782 1545.58 773.259 1545.58 Q777.263 1545.58 779.601 1543.48 Q781.939 1541.37 781.939 1537.76 Q781.939 1534.15 779.601 1532.04 Q777.263 1529.94 773.259 1529.94 Q771.384 1529.94 769.509 1530.35 Q767.657 1530.77 765.713 1531.65 L765.713 1514.29 Z" fill="#000000" fill-rule="evenodd" fill-opacity="1" /><path clip-path="url(#clip520)" d="M1250.73 1517.37 Q1247.12 1517.37 1245.29 1520.93 Q1243.49 1524.47 1243.49 1531.6 Q1243.49 1538.71 1245.29 1542.27 Q1247.12 1545.82 1250.73 1545.82 Q1254.36 1545.82 1256.17 1542.27 Q1258 1538.71 1258 1531.6 Q1258 1524.47 1256.17 1520.93 Q1254.36 1517.37 1250.73 1517.37 M1250.73 1513.66 Q1256.54 1513.66 1259.6 1518.27 Q1262.67 1522.85 1262.67 1531.6 Q1262.67 1540.33 1259.6 1544.94 Q1256.54 1549.52 1250.73 1549.52 Q1244.92 1549.52 1241.84 1544.94 Q1238.79 1540.33 1238.79 1531.6 Q1238.79 1522.85 1241.84 1518.27 Q1244.92 1513.66 1250.73 1513.66 Z" fill="#000000" fill-rule="evenodd" fill-opacity="1" /><path clip-path="url(#clip520)" d="M1270.89 1542.97 L1275.78 1542.97 L1275.78 1548.85 L1270.89 1548.85 L1270.89 1542.97 Z" fill="#000000" fill-rule="evenodd" fill-opacity="1" /><path clip-path="url(#clip520)" d="M1295.96 1517.37 Q1292.35 1517.37 1290.52 1520.93 Q1288.72 1524.47 1288.72 1531.6 Q1288.72 1538.71 1290.52 1542.27 Q1292.35 1545.82 1295.96 1545.82 Q1299.6 1545.82 1301.4 1542.27 Q1303.23 1538.71 1303.23 1531.6 Q1303.23 1524.47 1301.4 1520.93 Q1299.6 1517.37 1295.96 1517.37 M1295.96 1513.66 Q1301.77 1513.66 1304.83 1518.27 Q1307.91 1522.85 1307.91 1531.6 Q1307.91 1540.33 1304.83 1544.94 Q1301.77 1549.52 1295.96 1549.52 Q1290.15 1549.52 1287.07 1544.94 Q1284.02 1540.33 1284.02 1531.6 Q1284.02 1522.85 1287.07 1518.27 Q1290.15 1513.66 1295.96 1513.66 Z" fill="#000000" fill-rule="evenodd" fill-opacity="1" /><path clip-path="url(#clip520)" d="M1790.93 1517.37 Q1787.32 1517.37 1785.49 1520.93 Q1783.69 1524.47 1783.69 1531.6 Q1783.69 1538.71 1785.49 1542.27 Q1787.32 1545.82 1790.93 1545.82 Q1794.57 1545.82 1796.37 1542.27 Q1798.2 1538.71 1798.2 1531.6 Q1798.2 1524.47 1796.37 1520.93 Q1794.57 1517.37 1790.93 1517.37 M1790.93 1513.66 Q1796.74 1513.66 1799.8 1518.27 Q1802.88 1522.85 1802.88 1531.6 Q1802.88 1540.33 1799.8 1544.94 Q1796.74 1549.52 1790.93 1549.52 Q1785.12 1549.52 1782.04 1544.94 Q1778.99 1540.33 1778.99 1531.6 Q1778.99 1522.85 1782.04 1518.27 Q1785.12 1513.66 1790.93 1513.66 Z" fill="#000000" fill-rule="evenodd" fill-opacity="1" /><path clip-path="url(#clip520)" d="M1811.09 1542.97 L1815.98 1542.97 L1815.98 1548.85 L1811.09 1548.85 L1811.09 1542.97 Z" fill="#000000" fill-rule="evenodd" fill-opacity="1" /><path clip-path="url(#clip520)" d="M1826.21 1514.29 L1844.57 1514.29 L1844.57 1518.22 L1830.49 1518.22 L1830.49 1526.7 Q1831.51 1526.35 1832.53 1526.19 Q1833.55 1526 1834.57 1526 Q1840.35 1526 1843.73 1529.17 Q1847.11 1532.34 1847.11 1537.76 Q1847.11 1543.34 1843.64 1546.44 Q1840.17 1549.52 1833.85 1549.52 Q1831.67 1549.52 1829.41 1549.15 Q1827.16 1548.78 1824.75 1548.04 L1824.75 1543.34 Q1826.84 1544.47 1829.06 1545.03 Q1831.28 1545.58 1833.76 1545.58 Q1837.76 1545.58 1840.1 1543.48 Q1842.44 1541.37 1842.44 1537.76 Q1842.44 1534.15 1840.1 1532.04 Q1837.76 1529.94 1833.76 1529.94 Q1831.88 1529.94 1830.01 1530.35 Q1828.16 1530.77 1826.21 1531.65 L1826.21 1514.29 Z" fill="#000000" fill-rule="evenodd" fill-opacity="1" /><path clip-path="url(#clip520)" d="M2319.91 1544.91 L2327.55 1544.91 L2327.55 1518.55 L2319.24 1520.21 L2319.24 1515.95 L2327.5 1514.29 L2332.18 1514.29 L2332.18 1544.91 L2339.82 1544.91 L2339.82 1548.85 L2319.91 1548.85 L2319.91 1544.91 Z" fill="#000000" fill-rule="evenodd" fill-opacity="1" /><path clip-path="url(#clip520)" d="M2349.26 1542.97 L2354.14 1542.97 L2354.14 1548.85 L2349.26 1548.85 L2349.26 1542.97 Z" fill="#000000" fill-rule="evenodd" fill-opacity="1" /><path clip-path="url(#clip520)" d="M2374.33 1517.37 Q2370.72 1517.37 2368.89 1520.93 Q2367.08 1524.47 2367.08 1531.6 Q2367.08 1538.71 2368.89 1542.27 Q2370.72 1545.82 2374.33 1545.82 Q2377.96 1545.82 2379.77 1542.27 Q2381.6 1538.71 2381.6 1531.6 Q2381.6 1524.47 2379.77 1520.93 Q2377.96 1517.37 2374.33 1517.37 M2374.33 1513.66 Q2380.14 1513.66 2383.2 1518.27 Q2386.27 1522.85 2386.27 1531.6 Q2386.27 1540.33 2383.2 1544.94 Q2380.14 1549.52 2374.33 1549.52 Q2368.52 1549.52 2365.44 1544.94 Q2362.39 1540.33 2362.39 1531.6 Q2362.39 1522.85 2365.44 1518.27 Q2368.52 1513.66 2374.33 1513.66 Z" fill="#000000" fill-rule="evenodd" fill-opacity="1" /><polyline clip-path="url(#clip522)" style="stroke:#000000; stroke-linecap:butt; stroke-linejoin:round; stroke-width:2; stroke-opacity:0.1; fill:none" points="
  193.936,1411.64 2352.76,1411.64 
  "/>
<polyline clip-path="url(#clip522)" style="stroke:#000000; stroke-linecap:butt; stroke-linejoin:round; stroke-width:2; stroke-opacity:0.1; fill:none" points="
  193.936,1108.3 2352.76,1108.3 
  "/>
<polyline clip-path="url(#clip522)" style="stroke:#000000; stroke-linecap:butt; stroke-linejoin:round; stroke-width:2; stroke-opacity:0.1; fill:none" points="
  193.936,804.96 2352.76,804.96 
  "/>
<polyline clip-path="url(#clip522)" style="stroke:#000000; stroke-linecap:butt; stroke-linejoin:round; stroke-width:2; stroke-opacity:0.1; fill:none" points="
  193.936,501.622 2352.76,501.622 
  "/>
<polyline clip-path="url(#clip522)" style="stroke:#000000; stroke-linecap:butt; stroke-linejoin:round; stroke-width:2; stroke-opacity:0.1; fill:none" points="
  193.936,198.283 2352.76,198.283 
  "/>
<polyline clip-path="url(#clip520)" style="stroke:#000000; stroke-linecap:butt; stroke-linejoin:round; stroke-width:4; stroke-opacity:1; fill:none" points="
  193.936,1486.45 193.936,123.472 
  "/>
<polyline clip-path="url(#clip520)" style="stroke:#000000; stroke-linecap:butt; stroke-linejoin:round; stroke-width:4; stroke-opacity:1; fill:none" points="
  193.936,1411.64 212.834,1411.64 
  "/>
<polyline clip-path="url(#clip520)" style="stroke:#000000; stroke-linecap:butt; stroke-linejoin:round; stroke-width:4; stroke-opacity:1; fill:none" points="
  193.936,1108.3 212.834,1108.3 
  "/>
<polyline clip-path="url(#clip520)" style="stroke:#000000; stroke-linecap:butt; stroke-linejoin:round; stroke-width:4; stroke-opacity:1; fill:none" points="
  193.936,804.96 212.834,804.96 
  "/>
<polyline clip-path="url(#clip520)" style="stroke:#000000; stroke-linecap:butt; stroke-linejoin:round; stroke-width:4; stroke-opacity:1; fill:none" points="
  193.936,501.622 212.834,501.622 
  "/>
<polyline clip-path="url(#clip520)" style="stroke:#000000; stroke-linecap:butt; stroke-linejoin:round; stroke-width:4; stroke-opacity:1; fill:none" points="
  193.936,198.283 212.834,198.283 
  "/>
<path clip-path="url(#clip520)" d="M50.9921 1412.09 L80.6679 1412.09 L80.6679 1416.02 L50.9921 1416.02 L50.9921 1412.09 Z" fill="#000000" fill-rule="evenodd" fill-opacity="1" /><path clip-path="url(#clip520)" d="M91.5706 1424.98 L99.2095 1424.98 L99.2095 1398.62 L90.8993 1400.28 L90.8993 1396.02 L99.1632 1394.36 L103.839 1394.36 L103.839 1424.98 L111.478 1424.98 L111.478 1428.92 L91.5706 1428.92 L91.5706 1424.98 Z" fill="#000000" fill-rule="evenodd" fill-opacity="1" /><path clip-path="url(#clip520)" d="M120.922 1423.04 L125.807 1423.04 L125.807 1428.92 L120.922 1428.92 L120.922 1423.04 Z" fill="#000000" fill-rule="evenodd" fill-opacity="1" /><path clip-path="url(#clip520)" d="M145.992 1397.44 Q142.381 1397.44 140.552 1401 Q138.746 1404.54 138.746 1411.67 Q138.746 1418.78 140.552 1422.34 Q142.381 1425.88 145.992 1425.88 Q149.626 1425.88 151.431 1422.34 Q153.26 1418.78 153.26 1411.67 Q153.26 1404.54 151.431 1401 Q149.626 1397.44 145.992 1397.44 M145.992 1393.73 Q151.802 1393.73 154.857 1398.34 Q157.936 1402.92 157.936 1411.67 Q157.936 1420.4 154.857 1425 Q151.802 1429.59 145.992 1429.59 Q140.181 1429.59 137.103 1425 Q134.047 1420.4 134.047 1411.67 Q134.047 1402.92 137.103 1398.34 Q140.181 1393.73 145.992 1393.73 Z" fill="#000000" fill-rule="evenodd" fill-opacity="1" /><path clip-path="url(#clip520)" d="M51.9875 1108.75 L81.6633 1108.75 L81.6633 1112.68 L51.9875 1112.68 L51.9875 1108.75 Z" fill="#000000" fill-rule="evenodd" fill-opacity="1" /><path clip-path="url(#clip520)" d="M101.756 1094.1 Q98.1447 1094.1 96.316 1097.66 Q94.5104 1101.2 94.5104 1108.33 Q94.5104 1115.44 96.316 1119 Q98.1447 1122.55 101.756 1122.55 Q105.39 1122.55 107.196 1119 Q109.024 1115.44 109.024 1108.33 Q109.024 1101.2 107.196 1097.66 Q105.39 1094.1 101.756 1094.1 M101.756 1090.39 Q107.566 1090.39 110.621 1095 Q113.7 1099.58 113.7 1108.33 Q113.7 1117.06 110.621 1121.67 Q107.566 1126.25 101.756 1126.25 Q95.9456 1126.25 92.8669 1121.67 Q89.8114 1117.06 89.8114 1108.33 Q89.8114 1099.58 92.8669 1095 Q95.9456 1090.39 101.756 1090.39 Z" fill="#000000" fill-rule="evenodd" fill-opacity="1" /><path clip-path="url(#clip520)" d="M121.918 1119.7 L126.802 1119.7 L126.802 1125.58 L121.918 1125.58 L121.918 1119.7 Z" fill="#000000" fill-rule="evenodd" fill-opacity="1" /><path clip-path="url(#clip520)" d="M137.033 1091.02 L155.39 1091.02 L155.39 1094.95 L141.316 1094.95 L141.316 1103.43 Q142.334 1103.08 143.353 1102.92 Q144.371 1102.73 145.39 1102.73 Q151.177 1102.73 154.556 1105.9 Q157.936 1109.07 157.936 1114.49 Q157.936 1120.07 154.464 1123.17 Q150.992 1126.25 144.672 1126.25 Q142.496 1126.25 140.228 1125.88 Q137.982 1125.51 135.575 1124.77 L135.575 1120.07 Q137.658 1121.2 139.881 1121.76 Q142.103 1122.31 144.58 1122.31 Q148.584 1122.31 150.922 1120.21 Q153.26 1118.1 153.26 1114.49 Q153.26 1110.88 150.922 1108.77 Q148.584 1106.67 144.58 1106.67 Q142.705 1106.67 140.83 1107.08 Q138.978 1107.5 137.033 1108.38 L137.033 1091.02 Z" fill="#000000" fill-rule="evenodd" fill-opacity="1" /><path clip-path="url(#clip520)" d="M100.76 790.759 Q97.1493 790.759 95.3206 794.323 Q93.515 797.865 93.515 804.995 Q93.515 812.101 95.3206 815.666 Q97.1493 819.208 100.76 819.208 Q104.395 819.208 106.2 815.666 Q108.029 812.101 108.029 804.995 Q108.029 797.865 106.2 794.323 Q104.395 790.759 100.76 790.759 M100.76 787.055 Q106.571 787.055 109.626 791.661 Q112.705 796.245 112.705 804.995 Q112.705 813.722 109.626 818.328 Q106.571 822.911 100.76 822.911 Q94.9502 822.911 91.8715 818.328 Q88.816 813.722 88.816 804.995 Q88.816 796.245 91.8715 791.661 Q94.9502 787.055 100.76 787.055 Z" fill="#000000" fill-rule="evenodd" fill-opacity="1" /><path clip-path="url(#clip520)" d="M120.922 816.36 L125.807 816.36 L125.807 822.24 L120.922 822.24 L120.922 816.36 Z" fill="#000000" fill-rule="evenodd" fill-opacity="1" /><path clip-path="url(#clip520)" d="M145.992 790.759 Q142.381 790.759 140.552 794.323 Q138.746 797.865 138.746 804.995 Q138.746 812.101 140.552 815.666 Q142.381 819.208 145.992 819.208 Q149.626 819.208 151.431 815.666 Q153.26 812.101 153.26 804.995 Q153.26 797.865 151.431 794.323 Q149.626 790.759 145.992 790.759 M145.992 787.055 Q151.802 787.055 154.857 791.661 Q157.936 796.245 157.936 804.995 Q157.936 813.722 154.857 818.328 Q151.802 822.911 145.992 822.911 Q140.181 822.911 137.103 818.328 Q134.047 813.722 134.047 804.995 Q134.047 796.245 137.103 791.661 Q140.181 787.055 145.992 787.055 Z" fill="#000000" fill-rule="evenodd" fill-opacity="1" /><path clip-path="url(#clip520)" d="M101.756 487.42 Q98.1447 487.42 96.316 490.985 Q94.5104 494.527 94.5104 501.656 Q94.5104 508.763 96.316 512.328 Q98.1447 515.869 101.756 515.869 Q105.39 515.869 107.196 512.328 Q109.024 508.763 109.024 501.656 Q109.024 494.527 107.196 490.985 Q105.39 487.42 101.756 487.42 M101.756 483.717 Q107.566 483.717 110.621 488.323 Q113.7 492.906 113.7 501.656 Q113.7 510.383 110.621 514.99 Q107.566 519.573 101.756 519.573 Q95.9456 519.573 92.8669 514.99 Q89.8114 510.383 89.8114 501.656 Q89.8114 492.906 92.8669 488.323 Q95.9456 483.717 101.756 483.717 Z" fill="#000000" fill-rule="evenodd" fill-opacity="1" /><path clip-path="url(#clip520)" d="M121.918 513.022 L126.802 513.022 L126.802 518.902 L121.918 518.902 L121.918 513.022 Z" fill="#000000" fill-rule="evenodd" fill-opacity="1" /><path clip-path="url(#clip520)" d="M137.033 484.342 L155.39 484.342 L155.39 488.277 L141.316 488.277 L141.316 496.749 Q142.334 496.402 143.353 496.24 Q144.371 496.054 145.39 496.054 Q151.177 496.054 154.556 499.226 Q157.936 502.397 157.936 507.814 Q157.936 513.392 154.464 516.494 Q150.992 519.573 144.672 519.573 Q142.496 519.573 140.228 519.202 Q137.982 518.832 135.575 518.091 L135.575 513.392 Q137.658 514.527 139.881 515.082 Q142.103 515.638 144.58 515.638 Q148.584 515.638 150.922 513.531 Q153.26 511.425 153.26 507.814 Q153.26 504.203 150.922 502.096 Q148.584 499.99 144.58 499.99 Q142.705 499.99 140.83 500.406 Q138.978 500.823 137.033 501.703 L137.033 484.342 Z" fill="#000000" fill-rule="evenodd" fill-opacity="1" /><path clip-path="url(#clip520)" d="M91.5706 211.628 L99.2095 211.628 L99.2095 185.262 L90.8993 186.929 L90.8993 182.67 L99.1632 181.003 L103.839 181.003 L103.839 211.628 L111.478 211.628 L111.478 215.563 L91.5706 215.563 L91.5706 211.628 Z" fill="#000000" fill-rule="evenodd" fill-opacity="1" /><path clip-path="url(#clip520)" d="M120.922 209.684 L125.807 209.684 L125.807 215.563 L120.922 215.563 L120.922 209.684 Z" fill="#000000" fill-rule="evenodd" fill-opacity="1" /><path clip-path="url(#clip520)" d="M145.992 184.082 Q142.381 184.082 140.552 187.647 Q138.746 191.188 138.746 198.318 Q138.746 205.424 140.552 208.989 Q142.381 212.531 145.992 212.531 Q149.626 212.531 151.431 208.989 Q153.26 205.424 153.26 198.318 Q153.26 191.188 151.431 187.647 Q149.626 184.082 145.992 184.082 M145.992 180.378 Q151.802 180.378 154.857 184.985 Q157.936 189.568 157.936 198.318 Q157.936 207.045 154.857 211.651 Q151.802 216.234 145.992 216.234 Q140.181 216.234 137.103 211.651 Q134.047 207.045 134.047 198.318 Q134.047 189.568 137.103 184.985 Q140.181 180.378 145.992 180.378 Z" fill="#000000" fill-rule="evenodd" fill-opacity="1" /><path clip-path="url(#clip520)" d="M548.558 63.9476 L548.558 47.7034 L535.19 47.7034 L535.19 40.9789 L556.66 40.9789 L556.66 66.9452 Q551.92 70.3075 546.209 72.0494 Q540.497 73.7508 534.015 73.7508 Q519.837 73.7508 511.816 65.4869 Q503.836 57.1826 503.836 42.3968 Q503.836 27.5705 511.816 19.3066 Q519.837 11.0023 534.015 11.0023 Q539.93 11.0023 545.236 12.4606 Q550.584 13.9189 555.08 16.7545 L555.08 25.464 Q550.543 21.6156 545.439 19.6712 Q540.335 17.7268 534.704 17.7268 Q523.605 17.7268 518.014 23.9246 Q512.465 30.1225 512.465 42.3968 Q512.465 54.6305 518.014 60.8284 Q523.605 67.0263 534.704 67.0263 Q539.039 67.0263 542.441 66.2971 Q545.844 65.5274 548.558 63.9476 Z" fill="#000000" fill-rule="evenodd" fill-opacity="1" /><path clip-path="url(#clip520)" d="M591.903 49.7694 Q582.869 49.7694 579.386 51.8354 Q575.902 53.9013 575.902 58.8839 Q575.902 62.8538 578.494 65.2034 Q581.127 67.5124 585.624 67.5124 Q591.822 67.5124 595.549 63.1374 Q599.316 58.7219 599.316 51.4303 L599.316 49.7694 L591.903 49.7694 M606.77 46.6907 L606.77 72.576 L599.316 72.576 L599.316 65.6895 Q596.764 69.8214 592.956 71.8063 Q589.148 73.7508 583.639 73.7508 Q576.671 73.7508 572.54 69.8619 Q568.448 65.9325 568.448 59.3701 Q568.448 51.7138 573.552 47.825 Q578.697 43.9361 588.865 43.9361 L599.316 43.9361 L599.316 43.2069 Q599.316 38.0623 595.913 35.2672 Q592.551 32.4315 586.434 32.4315 Q582.545 32.4315 578.859 33.3632 Q575.173 34.295 571.77 36.1584 L571.77 29.2718 Q575.861 27.692 579.71 26.9223 Q583.558 26.1121 587.204 26.1121 Q597.047 26.1121 601.909 31.2163 Q606.77 36.3204 606.77 46.6907 Z" fill="#000000" fill-rule="evenodd" fill-opacity="1" /><path clip-path="url(#clip520)" d="M622.123 9.54393 L629.576 9.54393 L629.576 72.576 L622.123 72.576 L622.123 9.54393 Z" fill="#000000" fill-rule="evenodd" fill-opacity="1" /><path clip-path="url(#clip520)" d="M683.98 48.0275 L683.98 51.6733 L649.709 51.6733 Q650.195 59.3701 654.327 63.421 Q658.5 67.4314 665.913 67.4314 Q670.207 67.4314 674.217 66.3781 Q678.268 65.3249 682.238 63.2184 L682.238 70.267 Q678.228 71.9684 674.015 72.8596 Q669.802 73.7508 665.467 73.7508 Q654.611 73.7508 648.251 67.4314 Q641.932 61.1119 641.932 50.3365 Q641.932 39.1965 647.927 32.6746 Q653.963 26.1121 664.171 26.1121 Q673.326 26.1121 678.633 32.0264 Q683.98 37.9003 683.98 48.0275 M676.526 45.84 Q676.445 39.7232 673.083 36.0774 Q669.761 32.4315 664.252 32.4315 Q658.014 32.4315 654.246 35.9558 Q650.519 39.4801 649.952 45.8805 L676.526 45.84 Z" fill="#000000" fill-rule="evenodd" fill-opacity="1" /><path clip-path="url(#clip520)" d="M722.504 34.1734 Q721.248 33.4443 719.749 33.1202 Q718.291 32.7556 716.509 32.7556 Q710.189 32.7556 706.786 36.8875 Q703.424 40.9789 703.424 48.6757 L703.424 72.576 L695.93 72.576 L695.93 27.2059 L703.424 27.2059 L703.424 34.2544 Q705.774 30.1225 709.541 28.1376 Q713.308 26.1121 718.696 26.1121 Q719.466 26.1121 720.398 26.2337 Q721.329 26.3147 722.463 26.5172 L722.504 34.1734 Z" fill="#000000" fill-rule="evenodd" fill-opacity="1" /><path clip-path="url(#clip520)" d="M730.039 9.54393 L737.533 9.54393 L737.533 46.7717 L759.772 27.2059 L769.292 27.2059 L745.23 48.4326 L770.305 72.576 L760.582 72.576 L737.533 50.4176 L737.533 72.576 L730.039 72.576 L730.039 9.54393 Z" fill="#000000" fill-rule="evenodd" fill-opacity="1" /><path clip-path="url(#clip520)" d="M778.366 27.2059 L785.82 27.2059 L785.82 72.576 L778.366 72.576 L778.366 27.2059 M778.366 9.54393 L785.82 9.54393 L785.82 18.9825 L778.366 18.9825 L778.366 9.54393 Z" fill="#000000" fill-rule="evenodd" fill-opacity="1" /><path clip-path="url(#clip520)" d="M839.13 45.1919 L839.13 72.576 L831.676 72.576 L831.676 45.4349 Q831.676 38.994 829.164 35.7938 Q826.653 32.5936 821.63 32.5936 Q815.594 32.5936 812.11 36.4419 Q808.626 40.2903 808.626 46.9338 L808.626 72.576 L801.132 72.576 L801.132 27.2059 L808.626 27.2059 L808.626 34.2544 Q811.3 30.163 814.905 28.1376 Q818.551 26.1121 823.29 26.1121 Q831.109 26.1121 835.119 30.9732 Q839.13 35.7938 839.13 45.1919 Z" fill="#000000" fill-rule="evenodd" fill-opacity="1" /><path clip-path="url(#clip520)" d="M919.175 48.0275 L919.175 51.6733 L884.905 51.6733 Q885.391 59.3701 889.523 63.421 Q893.695 67.4314 901.108 67.4314 Q905.402 67.4314 909.413 66.3781 Q913.464 65.3249 917.434 63.2184 L917.434 70.267 Q913.423 71.9684 909.21 72.8596 Q904.997 73.7508 900.663 73.7508 Q889.806 73.7508 883.446 67.4314 Q877.127 61.1119 877.127 50.3365 Q877.127 39.1965 883.122 32.6746 Q889.158 26.1121 899.366 26.1121 Q908.522 26.1121 913.828 32.0264 Q919.175 37.9003 919.175 48.0275 M911.722 45.84 Q911.641 39.7232 908.278 36.0774 Q904.957 32.4315 899.447 32.4315 Q893.209 32.4315 889.442 35.9558 Q885.715 39.4801 885.148 45.8805 L911.722 45.84 Z" fill="#000000" fill-rule="evenodd" fill-opacity="1" /><path clip-path="url(#clip520)" d="M957.699 34.1734 Q956.444 33.4443 954.945 33.1202 Q953.487 32.7556 951.704 32.7556 Q945.385 32.7556 941.982 36.8875 Q938.62 40.9789 938.62 48.6757 L938.62 72.576 L931.126 72.576 L931.126 27.2059 L938.62 27.2059 L938.62 34.2544 Q940.969 30.1225 944.737 28.1376 Q948.504 26.1121 953.892 26.1121 Q954.661 26.1121 955.593 26.2337 Q956.525 26.3147 957.659 26.5172 L957.699 34.1734 Z" fill="#000000" fill-rule="evenodd" fill-opacity="1" /><path clip-path="url(#clip520)" d="M990.35 34.1734 Q989.094 33.4443 987.595 33.1202 Q986.137 32.7556 984.354 32.7556 Q978.035 32.7556 974.632 36.8875 Q971.27 40.9789 971.27 48.6757 L971.27 72.576 L963.776 72.576 L963.776 27.2059 L971.27 27.2059 L971.27 34.2544 Q973.62 30.1225 977.387 28.1376 Q981.154 26.1121 986.542 26.1121 Q987.312 26.1121 988.243 26.2337 Q989.175 26.3147 990.309 26.5172 L990.35 34.1734 Z" fill="#000000" fill-rule="evenodd" fill-opacity="1" /><path clip-path="url(#clip520)" d="M1013.93 32.4315 Q1007.93 32.4315 1004.45 37.1306 Q1000.96 41.7891 1000.96 49.9314 Q1000.96 58.0738 1004.41 62.7728 Q1007.89 67.4314 1013.93 67.4314 Q1019.88 67.4314 1023.36 62.7323 Q1026.85 58.0333 1026.85 49.9314 Q1026.85 41.8701 1023.36 37.1711 Q1019.88 32.4315 1013.93 32.4315 M1013.93 26.1121 Q1023.65 26.1121 1029.2 32.4315 Q1034.75 38.7509 1034.75 49.9314 Q1034.75 61.0714 1029.2 67.4314 Q1023.65 73.7508 1013.93 73.7508 Q1004.16 73.7508 998.614 67.4314 Q993.104 61.0714 993.104 49.9314 Q993.104 38.7509 998.614 32.4315 Q1004.16 26.1121 1013.93 26.1121 Z" fill="#000000" fill-rule="evenodd" fill-opacity="1" /><path clip-path="url(#clip520)" d="M1073.39 34.1734 Q1072.14 33.4443 1070.64 33.1202 Q1069.18 32.7556 1067.4 32.7556 Q1061.08 32.7556 1057.68 36.8875 Q1054.31 40.9789 1054.31 48.6757 L1054.31 72.576 L1046.82 72.576 L1046.82 27.2059 L1054.31 27.2059 L1054.31 34.2544 Q1056.66 30.1225 1060.43 28.1376 Q1064.2 26.1121 1069.59 26.1121 Q1070.36 26.1121 1071.29 26.2337 Q1072.22 26.3147 1073.35 26.5172 L1073.39 34.1734 Z" fill="#000000" fill-rule="evenodd" fill-opacity="1" /><path clip-path="url(#clip520)" d="M1081.66 62.2867 L1090.2 62.2867 L1090.2 72.576 L1081.66 72.576 L1081.66 62.2867 M1081.66 29.6769 L1090.2 29.6769 L1090.2 39.9662 L1081.66 39.9662 L1081.66 29.6769 Z" fill="#000000" fill-rule="evenodd" fill-opacity="1" /><path clip-path="url(#clip520)" d="M1152.63 17.4837 Q1146.31 17.4837 1143.11 23.7221 Q1139.95 29.92 1139.95 42.3968 Q1139.95 54.833 1143.11 61.0714 Q1146.31 67.2693 1152.63 67.2693 Q1158.99 67.2693 1162.15 61.0714 Q1165.35 54.833 1165.35 42.3968 Q1165.35 29.92 1162.15 23.7221 Q1158.99 17.4837 1152.63 17.4837 M1152.63 11.0023 Q1162.8 11.0023 1168.14 19.0636 Q1173.53 27.0843 1173.53 42.3968 Q1173.53 57.6687 1168.14 65.73 Q1162.8 73.7508 1152.63 73.7508 Q1142.46 73.7508 1137.07 65.73 Q1131.73 57.6687 1131.73 42.3968 Q1131.73 27.0843 1137.07 19.0636 Q1142.46 11.0023 1152.63 11.0023 Z" fill="#000000" fill-rule="evenodd" fill-opacity="1" /><path clip-path="url(#clip520)" d="M1187.91 62.2867 L1196.46 62.2867 L1196.46 72.576 L1187.91 72.576 L1187.91 62.2867 Z" fill="#000000" fill-rule="evenodd" fill-opacity="1" /><path clip-path="url(#clip520)" d="M1215.7 65.6895 L1229.07 65.6895 L1229.07 19.5497 L1214.53 22.4663 L1214.53 15.0127 L1228.99 12.096 L1237.17 12.096 L1237.17 65.6895 L1250.54 65.6895 L1250.54 72.576 L1215.7 72.576 L1215.7 65.6895 Z" fill="#000000" fill-rule="evenodd" fill-opacity="1" /><path clip-path="url(#clip520)" d="M1284.57 17.4837 Q1278.25 17.4837 1275.05 23.7221 Q1271.89 29.92 1271.89 42.3968 Q1271.89 54.833 1275.05 61.0714 Q1278.25 67.2693 1284.57 67.2693 Q1290.93 67.2693 1294.09 61.0714 Q1297.29 54.833 1297.29 42.3968 Q1297.29 29.92 1294.09 23.7221 Q1290.93 17.4837 1284.57 17.4837 M1284.57 11.0023 Q1294.73 11.0023 1300.08 19.0636 Q1305.47 27.0843 1305.47 42.3968 Q1305.47 57.6687 1300.08 65.73 Q1294.73 73.7508 1284.57 73.7508 Q1274.4 73.7508 1269.01 65.73 Q1263.66 57.6687 1263.66 42.3968 Q1263.66 27.0843 1269.01 19.0636 Q1274.4 11.0023 1284.57 11.0023 Z" fill="#000000" fill-rule="evenodd" fill-opacity="1" /><path clip-path="url(#clip520)" d="M1344.64 39.9662 Q1350.52 41.222 1353.8 45.1919 Q1357.12 49.1618 1357.12 54.9951 Q1357.12 63.9476 1350.96 68.8492 Q1344.8 73.7508 1333.46 73.7508 Q1329.65 73.7508 1325.6 72.9811 Q1321.59 72.2519 1317.3 70.7531 L1317.3 62.8538 Q1320.7 64.8388 1324.75 65.8515 Q1328.8 66.8642 1333.22 66.8642 Q1340.92 66.8642 1344.93 63.826 Q1348.98 60.7879 1348.98 54.9951 Q1348.98 49.6479 1345.21 46.6502 Q1341.48 43.612 1334.8 43.612 L1327.75 43.612 L1327.75 36.8875 L1335.12 36.8875 Q1341.16 36.8875 1344.36 34.4975 Q1347.56 32.067 1347.56 27.5299 Q1347.56 22.8714 1344.24 20.4004 Q1340.96 17.8888 1334.8 17.8888 Q1331.44 17.8888 1327.59 18.618 Q1323.74 19.3471 1319.12 20.8865 L1319.12 13.5948 Q1323.78 12.2985 1327.83 11.6504 Q1331.92 11.0023 1335.53 11.0023 Q1344.84 11.0023 1350.27 15.2557 Q1355.7 19.4686 1355.7 26.6793 Q1355.7 31.7024 1352.82 35.1862 Q1349.95 38.6294 1344.64 39.9662 Z" fill="#000000" fill-rule="evenodd" fill-opacity="1" /><path clip-path="url(#clip520)" d="M1370.57 12.096 L1409.46 12.096 L1409.46 15.5798 L1387.5 72.576 L1378.95 72.576 L1399.61 18.9825 L1370.57 18.9825 L1370.57 12.096 Z" fill="#000000" fill-rule="evenodd" fill-opacity="1" /><path clip-path="url(#clip520)" d="M1443.93 39.075 Q1438.42 39.075 1435.18 42.8424 Q1431.98 46.6097 1431.98 53.1722 Q1431.98 59.6941 1435.18 63.502 Q1438.42 67.2693 1443.93 67.2693 Q1449.44 67.2693 1452.64 63.502 Q1455.88 59.6941 1455.88 53.1722 Q1455.88 46.6097 1452.64 42.8424 Q1449.44 39.075 1443.93 39.075 M1460.17 13.4328 L1460.17 20.8865 Q1457.09 19.4281 1453.94 18.6585 Q1450.82 17.8888 1447.74 17.8888 Q1439.64 17.8888 1435.34 23.3575 Q1431.09 28.8262 1430.48 39.8852 Q1432.87 36.3609 1436.48 34.4975 Q1440.08 32.5936 1444.42 32.5936 Q1453.53 32.5936 1458.8 38.1433 Q1464.1 43.6525 1464.1 53.1722 Q1464.1 62.4892 1458.59 68.12 Q1453.08 73.7508 1443.93 73.7508 Q1433.44 73.7508 1427.89 65.73 Q1422.34 57.6687 1422.34 42.3968 Q1422.34 28.0566 1429.14 19.5497 Q1435.95 11.0023 1447.41 11.0023 Q1450.49 11.0023 1453.61 11.6099 Q1456.77 12.2175 1460.17 13.4328 Z" fill="#000000" fill-rule="evenodd" fill-opacity="1" /><path clip-path="url(#clip520)" d="M1478.28 12.096 L1510.4 12.096 L1510.4 18.9825 L1485.78 18.9825 L1485.78 33.8088 Q1487.56 33.2012 1489.34 32.9176 Q1491.12 32.5936 1492.9 32.5936 Q1503.03 32.5936 1508.95 38.1433 Q1514.86 43.6931 1514.86 53.1722 Q1514.86 62.9348 1508.78 68.3631 Q1502.71 73.7508 1491.65 73.7508 Q1487.84 73.7508 1483.87 73.1026 Q1479.94 72.4545 1475.73 71.1582 L1475.73 62.9348 Q1479.37 64.9198 1483.26 65.892 Q1487.15 66.8642 1491.49 66.8642 Q1498.5 66.8642 1502.59 63.1779 Q1506.68 59.4916 1506.68 53.1722 Q1506.68 46.8528 1502.59 43.1664 Q1498.5 39.4801 1491.49 39.4801 Q1488.21 39.4801 1484.92 40.2093 Q1481.68 40.9384 1478.28 42.4778 L1478.28 12.096 Z" fill="#000000" fill-rule="evenodd" fill-opacity="1" /><path clip-path="url(#clip520)" d="M1528.92 12.096 L1567.81 12.096 L1567.81 15.5798 L1545.85 72.576 L1537.3 72.576 L1557.96 18.9825 L1528.92 18.9825 L1528.92 12.096 Z" fill="#000000" fill-rule="evenodd" fill-opacity="1" /><path clip-path="url(#clip520)" d="M1584.01 71.3202 L1584.01 63.8666 Q1587.09 65.3249 1590.25 66.0946 Q1593.41 66.8642 1596.45 66.8642 Q1604.55 66.8642 1608.8 61.436 Q1613.1 55.9673 1613.7 44.8678 Q1611.35 48.3516 1607.75 50.215 Q1604.14 52.0784 1599.77 52.0784 Q1590.69 52.0784 1585.39 46.6097 Q1580.12 41.1005 1580.12 31.5808 Q1580.12 22.2638 1585.63 16.633 Q1591.14 11.0023 1600.29 11.0023 Q1610.79 11.0023 1616.3 19.0636 Q1621.85 27.0843 1621.85 42.3968 Q1621.85 56.6965 1615.04 65.2439 Q1608.27 73.7508 1596.81 73.7508 Q1593.73 73.7508 1590.57 73.1431 Q1587.41 72.5355 1584.01 71.3202 M1600.29 45.678 Q1605.8 45.678 1609 41.9107 Q1612.24 38.1433 1612.24 31.5808 Q1612.24 25.0589 1609 21.2916 Q1605.8 17.4837 1600.29 17.4837 Q1594.79 17.4837 1591.54 21.2916 Q1588.34 25.0589 1588.34 31.5808 Q1588.34 38.1433 1591.54 41.9107 Q1594.79 45.678 1600.29 45.678 Z" fill="#000000" fill-rule="evenodd" fill-opacity="1" /><path clip-path="url(#clip520)" d="M1654.05 17.4837 Q1647.73 17.4837 1644.53 23.7221 Q1641.37 29.92 1641.37 42.3968 Q1641.37 54.833 1644.53 61.0714 Q1647.73 67.2693 1654.05 67.2693 Q1660.41 67.2693 1663.57 61.0714 Q1666.77 54.833 1666.77 42.3968 Q1666.77 29.92 1663.57 23.7221 Q1660.41 17.4837 1654.05 17.4837 M1654.05 11.0023 Q1664.22 11.0023 1669.56 19.0636 Q1674.95 27.0843 1674.95 42.3968 Q1674.95 57.6687 1669.56 65.73 Q1664.22 73.7508 1654.05 73.7508 Q1643.88 73.7508 1638.49 65.73 Q1633.15 57.6687 1633.15 42.3968 Q1633.15 27.0843 1638.49 19.0636 Q1643.88 11.0023 1654.05 11.0023 Z" fill="#000000" fill-rule="evenodd" fill-opacity="1" /><path clip-path="url(#clip520)" d="M1711.82 19.2256 L1691.16 51.5113 L1711.82 51.5113 L1711.82 19.2256 M1709.67 12.096 L1719.96 12.096 L1719.96 51.5113 L1728.59 51.5113 L1728.59 58.3168 L1719.96 58.3168 L1719.96 72.576 L1711.82 72.576 L1711.82 58.3168 L1684.51 58.3168 L1684.51 50.4176 L1709.67 12.096 Z" fill="#000000" fill-rule="evenodd" fill-opacity="1" /><path clip-path="url(#clip520)" d="M1760.63 39.075 Q1755.12 39.075 1751.88 42.8424 Q1748.68 46.6097 1748.68 53.1722 Q1748.68 59.6941 1751.88 63.502 Q1755.12 67.2693 1760.63 67.2693 Q1766.14 67.2693 1769.34 63.502 Q1772.58 59.6941 1772.58 53.1722 Q1772.58 46.6097 1769.34 42.8424 Q1766.14 39.075 1760.63 39.075 M1776.87 13.4328 L1776.87 20.8865 Q1773.79 19.4281 1770.63 18.6585 Q1767.52 17.8888 1764.44 17.8888 Q1756.34 17.8888 1752.04 23.3575 Q1747.79 28.8262 1747.18 39.8852 Q1749.57 36.3609 1753.18 34.4975 Q1756.78 32.5936 1761.12 32.5936 Q1770.23 32.5936 1775.5 38.1433 Q1780.8 43.6525 1780.8 53.1722 Q1780.8 62.4892 1775.29 68.12 Q1769.78 73.7508 1760.63 73.7508 Q1750.14 73.7508 1744.59 65.73 Q1739.04 57.6687 1739.04 42.3968 Q1739.04 28.0566 1745.84 19.5497 Q1752.65 11.0023 1764.11 11.0023 Q1767.19 11.0023 1770.31 11.6099 Q1773.47 12.2175 1776.87 13.4328 Z" fill="#000000" fill-rule="evenodd" fill-opacity="1" /><path clip-path="url(#clip520)" d="M1812.4 17.4837 Q1806.08 17.4837 1802.88 23.7221 Q1799.72 29.92 1799.72 42.3968 Q1799.72 54.833 1802.88 61.0714 Q1806.08 67.2693 1812.4 67.2693 Q1818.76 67.2693 1821.92 61.0714 Q1825.12 54.833 1825.12 42.3968 Q1825.12 29.92 1821.92 23.7221 Q1818.76 17.4837 1812.4 17.4837 M1812.4 11.0023 Q1822.57 11.0023 1827.91 19.0636 Q1833.3 27.0843 1833.3 42.3968 Q1833.3 57.6687 1827.91 65.73 Q1822.57 73.7508 1812.4 73.7508 Q1802.23 73.7508 1796.84 65.73 Q1791.5 57.6687 1791.5 42.3968 Q1791.5 27.0843 1796.84 19.0636 Q1802.23 11.0023 1812.4 11.0023 Z" fill="#000000" fill-rule="evenodd" fill-opacity="1" /><path clip-path="url(#clip520)" d="M1854.73 65.6895 L1883.29 65.6895 L1883.29 72.576 L1844.89 72.576 L1844.89 65.6895 Q1849.55 60.8689 1857.57 52.7671 Q1865.63 44.6248 1867.69 42.2752 Q1871.62 37.8598 1873.16 34.8216 Q1874.74 31.7429 1874.74 28.7857 Q1874.74 23.9651 1871.34 20.927 Q1867.98 17.8888 1862.55 17.8888 Q1858.7 17.8888 1854.41 19.2256 Q1850.15 20.5624 1845.29 23.2765 L1845.29 15.0127 Q1850.24 13.0277 1854.53 12.015 Q1858.82 11.0023 1862.39 11.0023 Q1871.79 11.0023 1877.38 15.7013 Q1882.97 20.4004 1882.97 28.2591 Q1882.97 31.9859 1881.55 35.3482 Q1880.17 38.6699 1876.49 43.2069 Q1875.47 44.3817 1870.04 50.0125 Q1864.62 55.6027 1854.73 65.6895 Z" fill="#000000" fill-rule="evenodd" fill-opacity="1" /><path clip-path="url(#clip520)" d="M1918.98 39.075 Q1913.47 39.075 1910.23 42.8424 Q1907.03 46.6097 1907.03 53.1722 Q1907.03 59.6941 1910.23 63.502 Q1913.47 67.2693 1918.98 67.2693 Q1924.49 67.2693 1927.69 63.502 Q1930.93 59.6941 1930.93 53.1722 Q1930.93 46.6097 1927.69 42.8424 Q1924.49 39.075 1918.98 39.075 M1935.22 13.4328 L1935.22 20.8865 Q1932.14 19.4281 1928.98 18.6585 Q1925.87 17.8888 1922.79 17.8888 Q1914.69 17.8888 1910.39 23.3575 Q1906.14 28.8262 1905.53 39.8852 Q1907.92 36.3609 1911.53 34.4975 Q1915.13 32.5936 1919.47 32.5936 Q1928.58 32.5936 1933.85 38.1433 Q1939.15 43.6525 1939.15 53.1722 Q1939.15 62.4892 1933.64 68.12 Q1928.13 73.7508 1918.98 73.7508 Q1908.49 73.7508 1902.94 65.73 Q1897.39 57.6687 1897.39 42.3968 Q1897.39 28.0566 1904.19 19.5497 Q1911 11.0023 1922.46 11.0023 Q1925.54 11.0023 1928.66 11.6099 Q1931.82 12.2175 1935.22 13.4328 Z" fill="#000000" fill-rule="evenodd" fill-opacity="1" /><path clip-path="url(#clip520)" d="M1970.75 43.8551 Q1964.92 43.8551 1961.55 46.9743 Q1958.23 50.0935 1958.23 55.5622 Q1958.23 61.0309 1961.55 64.1501 Q1964.92 67.2693 1970.75 67.2693 Q1976.58 67.2693 1979.95 64.1501 Q1983.31 60.9904 1983.31 55.5622 Q1983.31 50.0935 1979.95 46.9743 Q1976.62 43.8551 1970.75 43.8551 M1962.57 40.3713 Q1957.3 39.075 1954.34 35.4697 Q1951.43 31.8644 1951.43 26.6793 Q1951.43 19.4281 1956.57 15.2152 Q1961.76 11.0023 1970.75 11.0023 Q1979.78 11.0023 1984.93 15.2152 Q1990.07 19.4281 1990.07 26.6793 Q1990.07 31.8644 1987.12 35.4697 Q1984.2 39.075 1978.97 40.3713 Q1984.89 41.7486 1988.17 45.759 Q1991.49 49.7694 1991.49 55.5622 Q1991.49 64.3527 1986.1 69.0517 Q1980.76 73.7508 1970.75 73.7508 Q1960.74 73.7508 1955.36 69.0517 Q1950.01 64.3527 1950.01 55.5622 Q1950.01 49.7694 1953.33 45.759 Q1956.65 41.7486 1962.57 40.3713 M1959.57 27.4489 Q1959.57 32.148 1962.49 34.7811 Q1965.44 37.4142 1970.75 37.4142 Q1976.02 37.4142 1978.97 34.7811 Q1981.97 32.148 1981.97 27.4489 Q1981.97 22.7499 1978.97 20.1168 Q1976.02 17.4837 1970.75 17.4837 Q1965.44 17.4837 1962.49 20.1168 Q1959.57 22.7499 1959.57 27.4489 Z" fill="#000000" fill-rule="evenodd" fill-opacity="1" /><path clip-path="url(#clip520)" d="M2003.97 12.096 L2042.86 12.096 L2042.86 15.5798 L2020.9 72.576 L2012.35 72.576 L2033.01 18.9825 L2003.97 18.9825 L2003.97 12.096 Z" fill="#000000" fill-rule="evenodd" fill-opacity="1" /><polyline clip-path="url(#clip522)" style="stroke:#009af9; stroke-linecap:butt; stroke-linejoin:round; stroke-width:12; stroke-opacity:1; fill:none" points="
  193.936,1411.58 207.991,1411.57 337.951,1411.43 416.051,1411.21 482.084,1410.84 553.814,1410.09 619.943,1408.79 690.84,1406.16 772.981,1399.98 809.48,1395.35 
  845.979,1388.92 877.985,1381.28 909.991,1371.15 927.439,1364.32 944.886,1356.4 962.334,1347.23 979.782,1336.62 997.333,1324.33 1014.88,1310.21 1032.44,1294.03 
  1049.99,1275.6 1059.69,1264.35 1069.39,1252.32 1079.09,1239.46 1088.8,1225.75 1098.5,1211.16 1108.2,1195.66 1117.91,1179.23 1127.61,1161.88 1136.84,1144.48 
  1146.07,1126.24 1155.3,1107.15 1164.54,1087.23 1183,1045 1201.46,999.821 1220.66,950.148 1239.86,898.321 1259.06,845.06 1278.25,791.171 1294.41,745.941 
  1310.57,701.364 1326.74,657.91 1342.9,616.002 1352.76,591.337 1362.63,567.452 1372.49,544.406 1382.36,522.247 1392.22,501.011 1402.09,480.726 1411.95,461.406 
  1421.82,443.061 1430.85,427.11 1439.89,411.968 1448.93,397.626 1457.96,384.068 1476.04,359.224 1494.11,337.252 1510.81,319.327 1527.5,303.487 1544.19,289.547 
  1560.88,277.322 1577.79,266.506 1594.7,257.093 1611.61,248.922 1628.52,241.843 1647.47,235.041 1666.42,229.274 1685.37,224.391 1704.32,220.264 1738.67,214.353 
  1773.01,210.016 1851.66,203.974 1924.47,201.188 1996.26,199.779 2065.96,199.068 2137.42,198.688 2215.7,198.479 2329.43,198.352 2352.76,198.338 
  "/>
<polyline clip-path="url(#clip522)" style="stroke:#e26f46; stroke-linecap:butt; stroke-linejoin:round; stroke-width:12; stroke-opacity:1; fill:none" points="
  194.245,1447.28 195.564,1444.8 197.935,1440.55 201.357,1434.86 205.826,1428.19 211.339,1421.06 217.889,1414.02 225.47,1407.6 234.075,1402.29 243.696,1398.44 
  254.323,1396.3 265.945,1395.94 278.552,1397.3 292.13,1400.14 306.668,1404.11 322.15,1408.75 338.561,1413.56 355.886,1418.03 374.107,1421.67 393.207,1424.1 
  413.166,1425.05 433.967,1424.4 455.587,1422.19 478.006,1418.64 501.203,1414.09 525.154,1408.98 549.836,1403.86 575.225,1399.24 601.296,1395.62 628.023,1393.37 
  655.382,1392.71 683.344,1393.65 711.882,1395.97 740.969,1399.19 770.577,1402.59 800.675,1405.22 831.236,1405.97 862.228,1403.61 893.622,1396.84 925.387,1384.44 
  957.492,1365.28 989.906,1338.45 1022.6,1303.3 1055.53,1259.53 1088.68,1207.21 1122.01,1146.8 1155.49,1079.13 1189.08,1005.41 1222.75,927.121 1256.48,846.001 
  1290.22,763.919 1323.94,682.799 1357.61,604.512 1391.21,530.787 1424.68,463.12 1458.01,402.706 1491.16,350.388 1524.1,306.622 1556.79,271.474 1589.2,244.64 
  1621.3,225.479 1653.07,213.076 1684.46,206.312 1715.46,203.945 1746.02,204.698 1776.12,207.333 1805.72,210.731 1834.81,213.95 1863.35,216.269 1891.31,217.211 
  1918.67,216.552 1945.4,214.302 1971.47,210.679 1996.86,206.062 2021.54,200.936 2045.49,195.835 2068.69,191.279 2091.1,187.727 2112.73,185.524 2133.53,184.874 
  2153.49,185.823 2172.58,188.252 2190.81,191.893 2208.13,196.356 2224.54,201.168 2240.02,205.811 2254.56,209.78 2268.14,212.621 2280.75,213.977 2292.37,213.623 
  2303,211.481 2312.62,207.634 2321.22,202.319 2328.8,195.904 2335.35,188.862 2340.87,181.729 2345.33,175.057 2348.76,169.37 2351.13,165.119 2352.45,162.64 
  
  "/>
<circle clip-path="url(#clip522)" cx="193.936" cy="1447.87" r="14.4" fill="#000000" fill-rule="evenodd" fill-opacity="1" stroke="none"/>
<circle clip-path="url(#clip522)" cx="280.792" cy="1397.69" r="14.4" fill="#000000" fill-rule="evenodd" fill-opacity="1" stroke="none"/>
<circle clip-path="url(#clip522)" cx="475.906" cy="1419.02" r="14.4" fill="#000000" fill-rule="evenodd" fill-opacity="1" stroke="none"/>
<circle clip-path="url(#clip522)" cx="757.469" cy="1401.12" r="14.4" fill="#000000" fill-rule="evenodd" fill-opacity="1" stroke="none"/>
<circle clip-path="url(#clip522)" cx="1094.94" cy="1196.44" r="14.4" fill="#000000" fill-rule="evenodd" fill-opacity="1" stroke="none"/>
<circle clip-path="url(#clip522)" cx="1451.75" cy="413.482" r="14.4" fill="#000000" fill-rule="evenodd" fill-opacity="1" stroke="none"/>
<circle clip-path="url(#clip522)" cx="1789.22" cy="208.796" r="14.4" fill="#000000" fill-rule="evenodd" fill-opacity="1" stroke="none"/>
<circle clip-path="url(#clip522)" cx="2070.79" cy="190.903" r="14.4" fill="#000000" fill-rule="evenodd" fill-opacity="1" stroke="none"/>
<circle clip-path="url(#clip522)" cx="2265.9" cy="212.234" r="14.4" fill="#000000" fill-rule="evenodd" fill-opacity="1" stroke="none"/>
<circle clip-path="url(#clip522)" cx="2352.76" cy="162.047" r="14.4" fill="#000000" fill-rule="evenodd" fill-opacity="1" stroke="none"/>
<path clip-path="url(#clip520)" d="
M1646.53 1441.02 L2280.8 1441.02 L2280.8 1233.66 L1646.53 1233.66  Z
  " fill="#ffffff" fill-rule="evenodd" fill-opacity="1"/>
<polyline clip-path="url(#clip520)" style="stroke:#000000; stroke-linecap:butt; stroke-linejoin:round; stroke-width:4; stroke-opacity:1; fill:none" points="
  1646.53,1441.02 2280.8,1441.02 2280.8,1233.66 1646.53,1233.66 1646.53,1441.02 
  "/>
<polyline clip-path="url(#clip520)" style="stroke:#009af9; stroke-linecap:butt; stroke-linejoin:round; stroke-width:4; stroke-opacity:1; fill:none" points="
  1670.52,1285.5 1814.44,1285.5 
  "/>
<path clip-path="url(#clip520)" d="M1862.45 1288.75 L1862.45 1290.83 L1842.87 1290.83 Q1843.15 1295.23 1845.51 1297.54 Q1847.89 1299.84 1852.13 1299.84 Q1854.58 1299.84 1856.87 1299.23 Q1859.19 1298.63 1861.46 1297.43 L1861.46 1301.46 Q1859.17 1302.43 1856.76 1302.94 Q1854.35 1303.45 1851.87 1303.45 Q1845.67 1303.45 1842.04 1299.84 Q1838.43 1296.22 1838.43 1290.07 Q1838.43 1283.7 1841.85 1279.97 Q1845.3 1276.22 1851.13 1276.22 Q1856.37 1276.22 1859.4 1279.6 Q1862.45 1282.96 1862.45 1288.75 M1858.19 1287.5 Q1858.15 1284 1856.23 1281.92 Q1854.33 1279.84 1851.18 1279.84 Q1847.62 1279.84 1845.46 1281.85 Q1843.33 1283.86 1843.01 1287.52 L1858.19 1287.5 Z" fill="#000000" fill-rule="evenodd" fill-opacity="1" /><path clip-path="url(#clip520)" d="M1890.16 1276.85 L1880.79 1289.47 L1890.65 1302.78 L1885.62 1302.78 L1878.08 1292.59 L1870.53 1302.78 L1865.51 1302.78 L1875.58 1289.21 L1866.37 1276.85 L1871.39 1276.85 L1878.26 1286.09 L1885.14 1276.85 L1890.16 1276.85 Z" fill="#000000" fill-rule="evenodd" fill-opacity="1" /><path clip-path="url(#clip520)" d="M1908.45 1289.74 Q1903.29 1289.74 1901.3 1290.92 Q1899.3 1292.1 1899.3 1294.95 Q1899.3 1297.22 1900.79 1298.56 Q1902.29 1299.88 1904.86 1299.88 Q1908.4 1299.88 1910.53 1297.38 Q1912.68 1294.86 1912.68 1290.69 L1912.68 1289.74 L1908.45 1289.74 M1916.94 1287.98 L1916.94 1302.78 L1912.68 1302.78 L1912.68 1298.84 Q1911.23 1301.2 1909.05 1302.34 Q1906.87 1303.45 1903.73 1303.45 Q1899.74 1303.45 1897.38 1301.22 Q1895.05 1298.98 1895.05 1295.23 Q1895.05 1290.85 1897.96 1288.63 Q1900.9 1286.41 1906.71 1286.41 L1912.68 1286.41 L1912.68 1285.99 Q1912.68 1283.05 1910.74 1281.46 Q1908.82 1279.84 1905.32 1279.84 Q1903.1 1279.84 1900.99 1280.37 Q1898.89 1280.9 1896.94 1281.97 L1896.94 1278.03 Q1899.28 1277.13 1901.48 1276.69 Q1903.68 1276.22 1905.76 1276.22 Q1911.39 1276.22 1914.17 1279.14 Q1916.94 1282.06 1916.94 1287.98 Z" fill="#000000" fill-rule="evenodd" fill-opacity="1" /><path clip-path="url(#clip520)" d="M1944.37 1277.84 L1944.37 1281.83 Q1942.57 1280.83 1940.74 1280.34 Q1938.93 1279.84 1937.08 1279.84 Q1932.94 1279.84 1930.65 1282.47 Q1928.36 1285.09 1928.36 1289.84 Q1928.36 1294.58 1930.65 1297.22 Q1932.94 1299.84 1937.08 1299.84 Q1938.93 1299.84 1940.74 1299.35 Q1942.57 1298.84 1944.37 1297.84 L1944.37 1301.78 Q1942.59 1302.61 1940.67 1303.03 Q1938.77 1303.45 1936.62 1303.45 Q1930.76 1303.45 1927.31 1299.77 Q1923.86 1296.09 1923.86 1289.84 Q1923.86 1283.49 1927.34 1279.86 Q1930.83 1276.22 1936.9 1276.22 Q1938.86 1276.22 1940.74 1276.64 Q1942.61 1277.03 1944.37 1277.84 Z" fill="#000000" fill-rule="evenodd" fill-opacity="1" /><path clip-path="url(#clip520)" d="M1955.99 1269.49 L1955.99 1276.85 L1964.77 1276.85 L1964.77 1280.16 L1955.99 1280.16 L1955.99 1294.23 Q1955.99 1297.41 1956.85 1298.31 Q1957.73 1299.21 1960.39 1299.21 L1964.77 1299.21 L1964.77 1302.78 L1960.39 1302.78 Q1955.46 1302.78 1953.59 1300.95 Q1951.71 1299.09 1951.71 1294.23 L1951.71 1280.16 L1948.59 1280.16 L1948.59 1276.85 L1951.71 1276.85 L1951.71 1269.49 L1955.99 1269.49 Z" fill="#000000" fill-rule="evenodd" fill-opacity="1" /><polyline clip-path="url(#clip520)" style="stroke:#e26f46; stroke-linecap:butt; stroke-linejoin:round; stroke-width:4; stroke-opacity:1; fill:none" points="
  1670.52,1337.34 1814.44,1337.34 
  "/>
<path clip-path="url(#clip520)" d="M1863.98 1349.68 L1863.98 1340.4 L1856.34 1340.4 L1856.34 1336.56 L1868.61 1336.56 L1868.61 1351.4 Q1865.9 1353.32 1862.64 1354.31 Q1859.37 1355.29 1855.67 1355.29 Q1847.57 1355.29 1842.99 1350.56 Q1838.43 1345.82 1838.43 1337.37 Q1838.43 1328.9 1842.99 1324.18 Q1847.57 1319.43 1855.67 1319.43 Q1859.05 1319.43 1862.08 1320.26 Q1865.14 1321.1 1867.71 1322.72 L1867.71 1327.69 Q1865.12 1325.5 1862.2 1324.38 Q1859.28 1323.27 1856.06 1323.27 Q1849.72 1323.27 1846.53 1326.81 Q1843.36 1330.36 1843.36 1337.37 Q1843.36 1344.36 1846.53 1347.9 Q1849.72 1351.44 1856.06 1351.44 Q1858.54 1351.44 1860.49 1351.03 Q1862.43 1350.59 1863.98 1349.68 Z" fill="#000000" fill-rule="evenodd" fill-opacity="1" /><path clip-path="url(#clip520)" d="M1888.75 1341.58 Q1883.59 1341.58 1881.6 1342.76 Q1879.61 1343.94 1879.61 1346.79 Q1879.61 1349.06 1881.09 1350.4 Q1882.59 1351.72 1885.16 1351.72 Q1888.7 1351.72 1890.83 1349.22 Q1892.99 1346.7 1892.99 1342.53 L1892.99 1341.58 L1888.75 1341.58 M1897.24 1339.82 L1897.24 1354.62 L1892.99 1354.62 L1892.99 1350.68 Q1891.53 1353.04 1889.35 1354.18 Q1887.18 1355.29 1884.03 1355.29 Q1880.05 1355.29 1877.68 1353.06 Q1875.35 1350.82 1875.35 1347.07 Q1875.35 1342.69 1878.26 1340.47 Q1881.2 1338.25 1887.01 1338.25 L1892.99 1338.25 L1892.99 1337.83 Q1892.99 1334.89 1891.04 1333.3 Q1889.12 1331.68 1885.62 1331.68 Q1883.4 1331.68 1881.3 1332.21 Q1879.19 1332.74 1877.24 1333.81 L1877.24 1329.87 Q1879.58 1328.97 1881.78 1328.53 Q1883.98 1328.06 1886.06 1328.06 Q1891.69 1328.06 1894.47 1330.98 Q1897.24 1333.9 1897.24 1339.82 Z" fill="#000000" fill-rule="evenodd" fill-opacity="1" /><path clip-path="url(#clip520)" d="M1906.02 1318.6 L1910.28 1318.6 L1910.28 1354.62 L1906.02 1354.62 L1906.02 1318.6 Z" fill="#000000" fill-rule="evenodd" fill-opacity="1" /><path clip-path="url(#clip520)" d="M1941.36 1340.59 L1941.36 1342.67 L1921.78 1342.67 Q1922.06 1347.07 1924.42 1349.38 Q1926.8 1351.68 1931.04 1351.68 Q1933.49 1351.68 1935.79 1351.07 Q1938.1 1350.47 1940.37 1349.27 L1940.37 1353.3 Q1938.08 1354.27 1935.67 1354.78 Q1933.26 1355.29 1930.79 1355.29 Q1924.58 1355.29 1920.95 1351.68 Q1917.34 1348.06 1917.34 1341.91 Q1917.34 1335.54 1920.76 1331.81 Q1924.21 1328.06 1930.05 1328.06 Q1935.28 1328.06 1938.31 1331.44 Q1941.36 1334.8 1941.36 1340.59 M1937.11 1339.34 Q1937.06 1335.84 1935.14 1333.76 Q1933.24 1331.68 1930.09 1331.68 Q1926.53 1331.68 1924.37 1333.69 Q1922.24 1335.7 1921.92 1339.36 L1937.11 1339.34 Z" fill="#000000" fill-rule="evenodd" fill-opacity="1" /><path clip-path="url(#clip520)" d="M1963.38 1332.67 Q1962.66 1332.25 1961.8 1332.07 Q1960.97 1331.86 1959.95 1331.86 Q1956.34 1331.86 1954.4 1334.22 Q1952.48 1336.56 1952.48 1340.96 L1952.48 1354.62 L1948.19 1354.62 L1948.19 1328.69 L1952.48 1328.69 L1952.48 1332.72 Q1953.82 1330.36 1955.97 1329.22 Q1958.12 1328.06 1961.2 1328.06 Q1961.64 1328.06 1962.17 1328.13 Q1962.71 1328.18 1963.36 1328.3 L1963.38 1332.67 Z" fill="#000000" fill-rule="evenodd" fill-opacity="1" /><path clip-path="url(#clip520)" d="M1967.68 1318.6 L1971.97 1318.6 L1971.97 1339.87 L1984.67 1328.69 L1990.11 1328.69 L1976.36 1340.82 L1990.69 1354.62 L1985.14 1354.62 L1971.97 1341.95 L1971.97 1354.62 L1967.68 1354.62 L1967.68 1318.6 Z" fill="#000000" fill-rule="evenodd" fill-opacity="1" /><path clip-path="url(#clip520)" d="M1995.3 1328.69 L1999.56 1328.69 L1999.56 1354.62 L1995.3 1354.62 L1995.3 1328.69 M1995.3 1318.6 L1999.56 1318.6 L1999.56 1323.99 L1995.3 1323.99 L1995.3 1318.6 Z" fill="#000000" fill-rule="evenodd" fill-opacity="1" /><path clip-path="url(#clip520)" d="M2030.02 1338.97 L2030.02 1354.62 L2025.76 1354.62 L2025.76 1339.11 Q2025.76 1335.43 2024.33 1333.6 Q2022.89 1331.77 2020.02 1331.77 Q2016.57 1331.77 2014.58 1333.97 Q2012.59 1336.17 2012.59 1339.96 L2012.59 1354.62 L2008.31 1354.62 L2008.31 1328.69 L2012.59 1328.69 L2012.59 1332.72 Q2014.12 1330.38 2016.18 1329.22 Q2018.26 1328.06 2020.97 1328.06 Q2025.44 1328.06 2027.73 1330.84 Q2030.02 1333.6 2030.02 1338.97 Z" fill="#000000" fill-rule="evenodd" fill-opacity="1" /><path clip-path="url(#clip520)" d="M2070.11 1329.45 L2070.11 1333.48 Q2068.31 1332.56 2066.36 1332.09 Q2064.42 1331.63 2062.34 1331.63 Q2059.16 1331.63 2057.57 1332.6 Q2055.99 1333.57 2055.99 1335.52 Q2055.99 1337 2057.13 1337.86 Q2058.26 1338.69 2061.69 1339.45 L2063.15 1339.78 Q2067.68 1340.75 2069.58 1342.53 Q2071.5 1344.29 2071.5 1347.46 Q2071.5 1351.07 2068.63 1353.18 Q2065.79 1355.29 2060.79 1355.29 Q2058.7 1355.29 2056.43 1354.87 Q2054.19 1354.48 2051.69 1353.67 L2051.69 1349.27 Q2054.05 1350.5 2056.34 1351.12 Q2058.63 1351.72 2060.88 1351.72 Q2063.89 1351.72 2065.51 1350.7 Q2067.13 1349.66 2067.13 1347.79 Q2067.13 1346.05 2065.95 1345.12 Q2064.79 1344.2 2060.83 1343.34 L2059.35 1343 Q2055.39 1342.16 2053.63 1340.45 Q2051.87 1338.71 2051.87 1335.7 Q2051.87 1332.05 2054.47 1330.06 Q2057.06 1328.06 2061.83 1328.06 Q2064.19 1328.06 2066.27 1328.41 Q2068.35 1328.76 2070.11 1329.45 Z" fill="#000000" fill-rule="evenodd" fill-opacity="1" /><path clip-path="url(#clip520)" d="M2088.33 1331.68 Q2084.91 1331.68 2082.91 1334.36 Q2080.92 1337.02 2080.92 1341.68 Q2080.92 1346.33 2082.89 1349.01 Q2084.88 1351.68 2088.33 1351.68 Q2091.73 1351.68 2093.72 1348.99 Q2095.72 1346.31 2095.72 1341.68 Q2095.72 1337.07 2093.72 1334.38 Q2091.73 1331.68 2088.33 1331.68 M2088.33 1328.06 Q2093.89 1328.06 2097.06 1331.68 Q2100.23 1335.29 2100.23 1341.68 Q2100.23 1348.04 2097.06 1351.68 Q2093.89 1355.29 2088.33 1355.29 Q2082.75 1355.29 2079.58 1351.68 Q2076.43 1348.04 2076.43 1341.68 Q2076.43 1335.29 2079.58 1331.68 Q2082.75 1328.06 2088.33 1328.06 Z" fill="#000000" fill-rule="evenodd" fill-opacity="1" /><path clip-path="url(#clip520)" d="M2107.29 1318.6 L2111.55 1318.6 L2111.55 1354.62 L2107.29 1354.62 L2107.29 1318.6 Z" fill="#000000" fill-rule="evenodd" fill-opacity="1" /><path clip-path="url(#clip520)" d="M2120.02 1344.38 L2120.02 1328.69 L2124.28 1328.69 L2124.28 1344.22 Q2124.28 1347.9 2125.72 1349.75 Q2127.15 1351.58 2130.02 1351.58 Q2133.47 1351.58 2135.46 1349.38 Q2137.47 1347.18 2137.47 1343.39 L2137.47 1328.69 L2141.73 1328.69 L2141.73 1354.62 L2137.47 1354.62 L2137.47 1350.63 Q2135.92 1352.99 2133.86 1354.15 Q2131.83 1355.29 2129.12 1355.29 Q2124.65 1355.29 2122.34 1352.51 Q2120.02 1349.73 2120.02 1344.38 M2130.74 1328.06 L2130.74 1328.06 Z" fill="#000000" fill-rule="evenodd" fill-opacity="1" /><path clip-path="url(#clip520)" d="M2154.72 1321.33 L2154.72 1328.69 L2163.49 1328.69 L2163.49 1332 L2154.72 1332 L2154.72 1346.07 Q2154.72 1349.25 2155.58 1350.15 Q2156.46 1351.05 2159.12 1351.05 L2163.49 1351.05 L2163.49 1354.62 L2159.12 1354.62 Q2154.19 1354.62 2152.31 1352.79 Q2150.44 1350.93 2150.44 1346.07 L2150.44 1332 L2147.31 1332 L2147.31 1328.69 L2150.44 1328.69 L2150.44 1321.33 L2154.72 1321.33 Z" fill="#000000" fill-rule="evenodd" fill-opacity="1" /><path clip-path="url(#clip520)" d="M2169.09 1328.69 L2173.35 1328.69 L2173.35 1354.62 L2169.09 1354.62 L2169.09 1328.69 M2169.09 1318.6 L2173.35 1318.6 L2173.35 1323.99 L2169.09 1323.99 L2169.09 1318.6 Z" fill="#000000" fill-rule="evenodd" fill-opacity="1" /><path clip-path="url(#clip520)" d="M2192.31 1331.68 Q2188.89 1331.68 2186.9 1334.36 Q2184.91 1337.02 2184.91 1341.68 Q2184.91 1346.33 2186.87 1349.01 Q2188.86 1351.68 2192.31 1351.68 Q2195.72 1351.68 2197.71 1348.99 Q2199.7 1346.31 2199.7 1341.68 Q2199.7 1337.07 2197.71 1334.38 Q2195.72 1331.68 2192.31 1331.68 M2192.31 1328.06 Q2197.87 1328.06 2201.04 1331.68 Q2204.21 1335.29 2204.21 1341.68 Q2204.21 1348.04 2201.04 1351.68 Q2197.87 1355.29 2192.31 1355.29 Q2186.73 1355.29 2183.56 1351.68 Q2180.41 1348.04 2180.41 1341.68 Q2180.41 1335.29 2183.56 1331.68 Q2186.73 1328.06 2192.31 1328.06 Z" fill="#000000" fill-rule="evenodd" fill-opacity="1" /><path clip-path="url(#clip520)" d="M2232.82 1338.97 L2232.82 1354.62 L2228.56 1354.62 L2228.56 1339.11 Q2228.56 1335.43 2227.13 1333.6 Q2225.69 1331.77 2222.82 1331.77 Q2219.37 1331.77 2217.38 1333.97 Q2215.39 1336.17 2215.39 1339.96 L2215.39 1354.62 L2211.11 1354.62 L2211.11 1328.69 L2215.39 1328.69 L2215.39 1332.72 Q2216.92 1330.38 2218.98 1329.22 Q2221.06 1328.06 2223.77 1328.06 Q2228.24 1328.06 2230.53 1330.84 Q2232.82 1333.6 2232.82 1338.97 Z" fill="#000000" fill-rule="evenodd" fill-opacity="1" /><circle clip-path="url(#clip520)" cx="1742.48" cy="1389.18" r="23.04" fill="#000000" fill-rule="evenodd" fill-opacity="1" stroke="none"/>
<path clip-path="url(#clip520)" d="M1838.43 1371.9 L1844.72 1371.9 L1860.05 1400.81 L1860.05 1371.9 L1864.58 1371.9 L1864.58 1406.46 L1858.29 1406.46 L1842.96 1377.54 L1842.96 1406.46 L1838.43 1406.46 L1838.43 1371.9 Z" fill="#000000" fill-rule="evenodd" fill-opacity="1" /><path clip-path="url(#clip520)" d="M1883.75 1383.52 Q1880.32 1383.52 1878.33 1386.2 Q1876.34 1388.86 1876.34 1393.52 Q1876.34 1398.17 1878.31 1400.85 Q1880.3 1403.52 1883.75 1403.52 Q1887.15 1403.52 1889.14 1400.83 Q1891.13 1398.15 1891.13 1393.52 Q1891.13 1388.91 1889.14 1386.22 Q1887.15 1383.52 1883.75 1383.52 M1883.75 1379.9 Q1889.3 1379.9 1892.48 1383.52 Q1895.65 1387.13 1895.65 1393.52 Q1895.65 1399.88 1892.48 1403.52 Q1889.3 1407.13 1883.75 1407.13 Q1878.17 1407.13 1875 1403.52 Q1871.85 1399.88 1871.85 1393.52 Q1871.85 1387.13 1875 1383.52 Q1878.17 1379.9 1883.75 1379.9 Z" fill="#000000" fill-rule="evenodd" fill-opacity="1" /><path clip-path="url(#clip520)" d="M1919.77 1384.46 L1919.77 1370.44 L1924.03 1370.44 L1924.03 1406.46 L1919.77 1406.46 L1919.77 1402.57 Q1918.43 1404.88 1916.36 1406.02 Q1914.33 1407.13 1911.46 1407.13 Q1906.76 1407.13 1903.8 1403.38 Q1900.86 1399.63 1900.86 1393.52 Q1900.86 1387.4 1903.8 1383.65 Q1906.76 1379.9 1911.46 1379.9 Q1914.33 1379.9 1916.36 1381.04 Q1918.43 1382.15 1919.77 1384.46 M1905.25 1393.52 Q1905.25 1398.21 1907.18 1400.9 Q1909.12 1403.56 1912.5 1403.56 Q1915.88 1403.56 1917.82 1400.9 Q1919.77 1398.21 1919.77 1393.52 Q1919.77 1388.82 1917.82 1386.15 Q1915.88 1383.47 1912.5 1383.47 Q1909.12 1383.47 1907.18 1386.15 Q1905.25 1388.82 1905.25 1393.52 Z" fill="#000000" fill-rule="evenodd" fill-opacity="1" /><path clip-path="url(#clip520)" d="M1944.58 1393.42 Q1939.42 1393.42 1937.43 1394.6 Q1935.44 1395.78 1935.44 1398.63 Q1935.44 1400.9 1936.92 1402.24 Q1938.42 1403.56 1940.99 1403.56 Q1944.54 1403.56 1946.67 1401.06 Q1948.82 1398.54 1948.82 1394.37 L1948.82 1393.42 L1944.58 1393.42 M1953.08 1391.66 L1953.08 1406.46 L1948.82 1406.46 L1948.82 1402.52 Q1947.36 1404.88 1945.18 1406.02 Q1943.01 1407.13 1939.86 1407.13 Q1935.88 1407.13 1933.52 1404.9 Q1931.18 1402.66 1931.18 1398.91 Q1931.18 1394.53 1934.1 1392.31 Q1937.04 1390.09 1942.85 1390.09 L1948.82 1390.09 L1948.82 1389.67 Q1948.82 1386.73 1946.87 1385.14 Q1944.95 1383.52 1941.46 1383.52 Q1939.24 1383.52 1937.13 1384.05 Q1935.02 1384.58 1933.08 1385.65 L1933.08 1381.71 Q1935.42 1380.81 1937.61 1380.37 Q1939.81 1379.9 1941.9 1379.9 Q1947.52 1379.9 1950.3 1382.82 Q1953.08 1385.74 1953.08 1391.66 Z" fill="#000000" fill-rule="evenodd" fill-opacity="1" /><path clip-path="url(#clip520)" d="M1961.85 1370.44 L1966.11 1370.44 L1966.11 1406.46 L1961.85 1406.46 L1961.85 1370.44 Z" fill="#000000" fill-rule="evenodd" fill-opacity="1" /><path clip-path="url(#clip520)" d="M1987.04 1380.53 L1991.55 1380.53 L1999.65 1402.29 L2007.75 1380.53 L2012.27 1380.53 L2002.54 1406.46 L1996.76 1406.46 L1987.04 1380.53 Z" fill="#000000" fill-rule="evenodd" fill-opacity="1" /><path clip-path="url(#clip520)" d="M2029.93 1393.42 Q2024.77 1393.42 2022.78 1394.6 Q2020.79 1395.78 2020.79 1398.63 Q2020.79 1400.9 2022.27 1402.24 Q2023.77 1403.56 2026.34 1403.56 Q2029.88 1403.56 2032.01 1401.06 Q2034.17 1398.54 2034.17 1394.37 L2034.17 1393.42 L2029.93 1393.42 M2038.42 1391.66 L2038.42 1406.46 L2034.17 1406.46 L2034.17 1402.52 Q2032.71 1404.88 2030.53 1406.02 Q2028.35 1407.13 2025.21 1407.13 Q2021.23 1407.13 2018.86 1404.9 Q2016.53 1402.66 2016.53 1398.91 Q2016.53 1394.53 2019.44 1392.31 Q2022.38 1390.09 2028.19 1390.09 L2034.17 1390.09 L2034.17 1389.67 Q2034.17 1386.73 2032.22 1385.14 Q2030.3 1383.52 2026.8 1383.52 Q2024.58 1383.52 2022.48 1384.05 Q2020.37 1384.58 2018.42 1385.65 L2018.42 1381.71 Q2020.76 1380.81 2022.96 1380.37 Q2025.16 1379.9 2027.24 1379.9 Q2032.87 1379.9 2035.65 1382.82 Q2038.42 1385.74 2038.42 1391.66 Z" fill="#000000" fill-rule="evenodd" fill-opacity="1" /><path clip-path="url(#clip520)" d="M2047.2 1370.44 L2051.46 1370.44 L2051.46 1406.46 L2047.2 1406.46 L2047.2 1370.44 Z" fill="#000000" fill-rule="evenodd" fill-opacity="1" /><path clip-path="url(#clip520)" d="M2059.93 1396.22 L2059.93 1380.53 L2064.19 1380.53 L2064.19 1396.06 Q2064.19 1399.74 2065.62 1401.59 Q2067.06 1403.42 2069.93 1403.42 Q2073.38 1403.42 2075.37 1401.22 Q2077.38 1399.02 2077.38 1395.23 L2077.38 1380.53 L2081.64 1380.53 L2081.64 1406.46 L2077.38 1406.46 L2077.38 1402.47 Q2075.83 1404.83 2073.77 1405.99 Q2071.73 1407.13 2069.03 1407.13 Q2064.56 1407.13 2062.24 1404.35 Q2059.93 1401.57 2059.93 1396.22 M2070.65 1379.9 L2070.65 1379.9 Z" fill="#000000" fill-rule="evenodd" fill-opacity="1" /><path clip-path="url(#clip520)" d="M2112.59 1392.43 L2112.59 1394.51 L2093.01 1394.51 Q2093.29 1398.91 2095.65 1401.22 Q2098.03 1403.52 2102.27 1403.52 Q2104.72 1403.52 2107.01 1402.91 Q2109.33 1402.31 2111.6 1401.11 L2111.6 1405.14 Q2109.3 1406.11 2106.9 1406.62 Q2104.49 1407.13 2102.01 1407.13 Q2095.81 1407.13 2092.17 1403.52 Q2088.56 1399.9 2088.56 1393.75 Q2088.56 1387.38 2091.99 1383.65 Q2095.44 1379.9 2101.27 1379.9 Q2106.5 1379.9 2109.54 1383.28 Q2112.59 1386.64 2112.59 1392.43 M2108.33 1391.18 Q2108.29 1387.68 2106.36 1385.6 Q2104.47 1383.52 2101.32 1383.52 Q2097.75 1383.52 2095.6 1385.53 Q2093.47 1387.54 2093.15 1391.2 L2108.33 1391.18 Z" fill="#000000" fill-rule="evenodd" fill-opacity="1" /><path clip-path="url(#clip520)" d="M2136.11 1381.29 L2136.11 1385.32 Q2134.3 1384.4 2132.36 1383.93 Q2130.41 1383.47 2128.33 1383.47 Q2125.16 1383.47 2123.56 1384.44 Q2121.99 1385.41 2121.99 1387.36 Q2121.99 1388.84 2123.12 1389.7 Q2124.26 1390.53 2127.68 1391.29 L2129.14 1391.62 Q2133.68 1392.59 2135.58 1394.37 Q2137.5 1396.13 2137.5 1399.3 Q2137.5 1402.91 2134.63 1405.02 Q2131.78 1407.13 2126.78 1407.13 Q2124.7 1407.13 2122.43 1406.71 Q2120.18 1406.32 2117.68 1405.51 L2117.68 1401.11 Q2120.04 1402.34 2122.34 1402.96 Q2124.63 1403.56 2126.87 1403.56 Q2129.88 1403.56 2131.5 1402.54 Q2133.12 1401.5 2133.12 1399.63 Q2133.12 1397.89 2131.94 1396.96 Q2130.78 1396.04 2126.83 1395.18 L2125.35 1394.84 Q2121.39 1394 2119.63 1392.29 Q2117.87 1390.55 2117.87 1387.54 Q2117.87 1383.89 2120.46 1381.9 Q2123.05 1379.9 2127.82 1379.9 Q2130.18 1379.9 2132.27 1380.25 Q2134.35 1380.6 2136.11 1381.29 Z" fill="#000000" fill-rule="evenodd" fill-opacity="1" /></svg>
