<?xml version="1.0" encoding="utf-8"?>
<svg xmlns="http://www.w3.org/2000/svg" xmlns:xlink="http://www.w3.org/1999/xlink" width="600" height="400" viewBox="0 0 2400 1600">
<defs>
  <clipPath id="clip480">
    <rect x="0" y="0" width="2400" height="1600"/>
  </clipPath>
</defs>
<path clip-path="url(#clip480)" d="
M0 1600 L2400 1600 L2400 0 L0 0  Z
  " fill="#ffffff" fill-rule="evenodd" fill-opacity="1"/>
<defs>
  <clipPath id="clip481">
    <rect x="480" y="0" width="1681" height="1600"/>
  </clipPath>
</defs>
<path clip-path="url(#clip480)" d="
M193.936 1486.45 L2352.76 1486.45 L2352.76 123.472 L193.936 123.472  Z
  " fill="#ffffff" fill-rule="evenodd" fill-opacity="1"/>
<defs>
  <clipPath id="clip482">
    <rect x="193" y="123" width="2160" height="1364"/>
  </clipPath>
</defs>
<polyline clip-path="url(#clip482)" style="stroke:#000000; stroke-linecap:butt; stroke-linejoin:round; stroke-width:2; stroke-opacity:0.1; fill:none" points="
  255.035,1486.45 255.035,123.472 
  "/>
<polyline clip-path="url(#clip482)" style="stroke:#000000; stroke-linecap:butt; stroke-linejoin:round; stroke-width:2; stroke-opacity:0.1; fill:none" points="
  764.19,1486.45 764.19,123.472 
  "/>
<polyline clip-path="url(#clip482)" style="stroke:#000000; stroke-linecap:butt; stroke-linejoin:round; stroke-width:2; stroke-opacity:0.1; fill:none" points="
  1273.35,1486.45 1273.35,123.472 
  "/>
<polyline clip-path="url(#clip482)" style="stroke:#000000; stroke-linecap:butt; stroke-linejoin:round; stroke-width:2; stroke-opacity:0.1; fill:none" points="
  1782.5,1486.45 1782.5,123.472 
  "/>
<polyline clip-path="url(#clip482)" style="stroke:#000000; stroke-linecap:butt; stroke-linejoin:round; stroke-width:2; stroke-opacity:0.1; fill:none" points="
  2291.66,1486.45 2291.66,123.472 
  "/>
<polyline clip-path="url(#clip480)" style="stroke:#000000; stroke-linecap:butt; stroke-linejoin:round; stroke-width:4; stroke-opacity:1; fill:none" points="
  193.936,1486.45 2352.76,1486.45 
  "/>
<polyline clip-path="url(#clip480)" style="stroke:#000000; stroke-linecap:butt; stroke-linejoin:round; stroke-width:4; stroke-opacity:1; fill:none" points="
  255.035,1486.45 255.035,1467.55 
  "/>
<polyline clip-path="url(#clip480)" style="stroke:#000000; stroke-linecap:butt; stroke-linejoin:round; stroke-width:4; stroke-opacity:1; fill:none" points="
  764.19,1486.45 764.19,1467.55 
  "/>
<polyline clip-path="url(#clip480)" style="stroke:#000000; stroke-linecap:butt; stroke-linejoin:round; stroke-width:4; stroke-opacity:1; fill:none" points="
  1273.35,1486.45 1273.35,1467.55 
  "/>
<polyline clip-path="url(#clip480)" style="stroke:#000000; stroke-linecap:butt; stroke-linejoin:round; stroke-width:4; stroke-opacity:1; fill:none" points="
  1782.5,1486.45 1782.5,1467.55 
  "/>
<polyline clip-path="url(#clip480)" style="stroke:#000000; stroke-linecap:butt; stroke-linejoin:round; stroke-width:4; stroke-opacity:1; fill:none" points="
  2291.66,1486.45 2291.66,1467.55 
  "/>
<path clip-path="url(#clip480)" d="M201.563 1532.02 L231.239 1532.02 L231.239 1535.95 L201.563 1535.95 L201.563 1532.02 Z" fill="#000000" fill-rule="evenodd" fill-opacity="1" /><path clip-path="url(#clip480)" d="M242.141 1544.91 L249.78 1544.91 L249.78 1518.55 L241.47 1520.21 L241.47 1515.95 L249.734 1514.29 L254.41 1514.29 L254.41 1544.91 L262.049 1544.91 L262.049 1548.85 L242.141 1548.85 L242.141 1544.91 Z" fill="#000000" fill-rule="evenodd" fill-opacity="1" /><path clip-path="url(#clip480)" d="M271.493 1542.97 L276.377 1542.97 L276.377 1548.85 L271.493 1548.85 L271.493 1542.97 Z" fill="#000000" fill-rule="evenodd" fill-opacity="1" /><path clip-path="url(#clip480)" d="M296.562 1517.37 Q292.951 1517.37 291.122 1520.93 Q289.317 1524.47 289.317 1531.6 Q289.317 1538.71 291.122 1542.27 Q292.951 1545.82 296.562 1545.82 Q300.196 1545.82 302.002 1542.27 Q303.831 1538.71 303.831 1531.6 Q303.831 1524.47 302.002 1520.93 Q300.196 1517.37 296.562 1517.37 M296.562 1513.66 Q302.372 1513.66 305.428 1518.27 Q308.507 1522.85 308.507 1531.6 Q308.507 1540.33 305.428 1544.94 Q302.372 1549.52 296.562 1549.52 Q290.752 1549.52 287.673 1544.94 Q284.618 1540.33 284.618 1531.6 Q284.618 1522.85 287.673 1518.27 Q290.752 1513.66 296.562 1513.66 Z" fill="#000000" fill-rule="evenodd" fill-opacity="1" /><path clip-path="url(#clip480)" d="M711.216 1532.02 L740.892 1532.02 L740.892 1535.95 L711.216 1535.95 L711.216 1532.02 Z" fill="#000000" fill-rule="evenodd" fill-opacity="1" /><path clip-path="url(#clip480)" d="M760.984 1517.37 Q757.373 1517.37 755.545 1520.93 Q753.739 1524.47 753.739 1531.6 Q753.739 1538.71 755.545 1542.27 Q757.373 1545.82 760.984 1545.82 Q764.619 1545.82 766.424 1542.27 Q768.253 1538.71 768.253 1531.6 Q768.253 1524.47 766.424 1520.93 Q764.619 1517.37 760.984 1517.37 M760.984 1513.66 Q766.794 1513.66 769.85 1518.27 Q772.929 1522.85 772.929 1531.6 Q772.929 1540.33 769.85 1544.94 Q766.794 1549.52 760.984 1549.52 Q755.174 1549.52 752.095 1544.94 Q749.04 1540.33 749.04 1531.6 Q749.04 1522.85 752.095 1518.27 Q755.174 1513.66 760.984 1513.66 Z" fill="#000000" fill-rule="evenodd" fill-opacity="1" /><path clip-path="url(#clip480)" d="M781.146 1542.97 L786.03 1542.97 L786.03 1548.85 L781.146 1548.85 L781.146 1542.97 Z" fill="#000000" fill-rule="evenodd" fill-opacity="1" /><path clip-path="url(#clip480)" d="M796.262 1514.29 L814.618 1514.29 L814.618 1518.22 L800.544 1518.22 L800.544 1526.7 Q801.563 1526.35 802.581 1526.19 Q803.6 1526 804.618 1526 Q810.405 1526 813.785 1529.17 Q817.165 1532.34 817.165 1537.76 Q817.165 1543.34 813.692 1546.44 Q810.22 1549.52 803.901 1549.52 Q801.725 1549.52 799.456 1549.15 Q797.211 1548.78 794.804 1548.04 L794.804 1543.34 Q796.887 1544.47 799.109 1545.03 Q801.331 1545.58 803.808 1545.58 Q807.813 1545.58 810.151 1543.48 Q812.489 1541.37 812.489 1537.76 Q812.489 1534.15 810.151 1532.04 Q807.813 1529.94 803.808 1529.94 Q801.933 1529.94 800.058 1530.35 Q798.206 1530.77 796.262 1531.65 L796.262 1514.29 Z" fill="#000000" fill-rule="evenodd" fill-opacity="1" /><path clip-path="url(#clip480)" d="M1250.73 1517.37 Q1247.12 1517.37 1245.29 1520.93 Q1243.49 1524.47 1243.49 1531.6 Q1243.49 1538.71 1245.29 1542.27 Q1247.12 1545.82 1250.73 1545.82 Q1254.36 1545.82 1256.17 1542.27 Q1258 1538.71 1258 1531.6 Q1258 1524.47 1256.17 1520.93 Q1254.36 1517.37 1250.73 1517.37 M1250.73 1513.66 Q1256.54 1513.66 1259.6 1518.27 Q1262.67 1522.85 1262.67 1531.6 Q1262.67 1540.33 1259.6 1544.94 Q1256.54 1549.52 1250.73 1549.52 Q1244.92 1549.52 1241.84 1544.94 Q1238.79 1540.33 1238.79 1531.6 Q1238.79 1522.85 1241.84 1518.27 Q1244.92 1513.66 1250.73 1513.66 Z" fill="#000000" fill-rule="evenodd" fill-opacity="1" /><path clip-path="url(#clip480)" d="M1270.89 1542.97 L1275.78 1542.97 L1275.78 1548.85 L1270.89 1548.85 L1270.89 1542.97 Z" fill="#000000" fill-rule="evenodd" fill-opacity="1" /><path clip-path="url(#clip480)" d="M1295.96 1517.37 Q1292.35 1517.37 1290.52 1520.93 Q1288.72 1524.47 1288.72 1531.6 Q1288.72 1538.71 1290.52 1542.27 Q1292.35 1545.82 1295.96 1545.82 Q1299.6 1545.82 1301.4 1542.27 Q1303.23 1538.71 1303.23 1531.6 Q1303.23 1524.47 1301.4 1520.93 Q1299.6 1517.37 1295.96 1517.37 M1295.96 1513.66 Q1301.77 1513.66 1304.83 1518.27 Q1307.91 1522.85 1307.91 1531.6 Q1307.91 1540.33 1304.83 1544.94 Q1301.77 1549.52 1295.96 1549.52 Q1290.15 1549.52 1287.07 1544.94 Q1284.02 1540.33 1284.02 1531.6 Q1284.02 1522.85 1287.07 1518.27 Q1290.15 1513.66 1295.96 1513.66 Z" fill="#000000" fill-rule="evenodd" fill-opacity="1" /><path clip-path="url(#clip480)" d="M1760.38 1517.37 Q1756.77 1517.37 1754.94 1520.93 Q1753.14 1524.47 1753.14 1531.6 Q1753.14 1538.71 1754.94 1542.27 Q1756.77 1545.82 1760.38 1545.82 Q1764.02 1545.82 1765.82 1542.27 Q1767.65 1538.71 1767.65 1531.6 Q1767.65 1524.47 1765.82 1520.93 Q1764.02 1517.37 1760.38 1517.37 M1760.38 1513.66 Q1766.19 1513.66 1769.25 1518.27 Q1772.33 1522.85 1772.33 1531.6 Q1772.33 1540.33 1769.25 1544.94 Q1766.19 1549.52 1760.38 1549.52 Q1754.57 1549.52 1751.49 1544.94 Q1748.44 1540.33 1748.44 1531.6 Q1748.44 1522.85 1751.49 1518.27 Q1754.57 1513.66 1760.38 1513.66 Z" fill="#000000" fill-rule="evenodd" fill-opacity="1" /><path clip-path="url(#clip480)" d="M1780.55 1542.97 L1785.43 1542.97 L1785.43 1548.85 L1780.55 1548.85 L1780.55 1542.97 Z" fill="#000000" fill-rule="evenodd" fill-opacity="1" /><path clip-path="url(#clip480)" d="M1795.66 1514.29 L1814.02 1514.29 L1814.02 1518.22 L1799.94 1518.22 L1799.94 1526.7 Q1800.96 1526.35 1801.98 1526.19 Q1803 1526 1804.02 1526 Q1809.8 1526 1813.18 1529.17 Q1816.56 1532.34 1816.56 1537.76 Q1816.56 1543.34 1813.09 1546.44 Q1809.62 1549.52 1803.3 1549.52 Q1801.12 1549.52 1798.86 1549.15 Q1796.61 1548.78 1794.2 1548.04 L1794.2 1543.34 Q1796.29 1544.47 1798.51 1545.03 Q1800.73 1545.58 1803.21 1545.58 Q1807.21 1545.58 1809.55 1543.48 Q1811.89 1541.37 1811.89 1537.76 Q1811.89 1534.15 1809.55 1532.04 Q1807.21 1529.94 1803.21 1529.94 Q1801.33 1529.94 1799.46 1530.35 Q1797.61 1530.77 1795.66 1531.65 L1795.66 1514.29 Z" fill="#000000" fill-rule="evenodd" fill-opacity="1" /><path clip-path="url(#clip480)" d="M2258.81 1544.91 L2266.45 1544.91 L2266.45 1518.55 L2258.14 1520.21 L2258.14 1515.95 L2266.4 1514.29 L2271.08 1514.29 L2271.08 1544.91 L2278.72 1544.91 L2278.72 1548.85 L2258.81 1548.85 L2258.81 1544.91 Z" fill="#000000" fill-rule="evenodd" fill-opacity="1" /><path clip-path="url(#clip480)" d="M2288.16 1542.97 L2293.05 1542.97 L2293.05 1548.85 L2288.16 1548.85 L2288.16 1542.97 Z" fill="#000000" fill-rule="evenodd" fill-opacity="1" /><path clip-path="url(#clip480)" d="M2313.23 1517.37 Q2309.62 1517.37 2307.79 1520.93 Q2305.99 1524.47 2305.99 1531.6 Q2305.99 1538.71 2307.79 1542.27 Q2309.62 1545.82 2313.23 1545.82 Q2316.87 1545.82 2318.67 1542.27 Q2320.5 1538.71 2320.5 1531.6 Q2320.5 1524.47 2318.67 1520.93 Q2316.87 1517.37 2313.23 1517.37 M2313.23 1513.66 Q2319.04 1513.66 2322.1 1518.27 Q2325.18 1522.85 2325.18 1531.6 Q2325.18 1540.33 2322.1 1544.94 Q2319.04 1549.52 2313.23 1549.52 Q2307.42 1549.52 2304.34 1544.94 Q2301.29 1540.33 2301.29 1531.6 Q2301.29 1522.85 2304.34 1518.27 Q2307.42 1513.66 2313.23 1513.66 Z" fill="#000000" fill-rule="evenodd" fill-opacity="1" /><polyline clip-path="url(#clip482)" style="stroke:#000000; stroke-linecap:butt; stroke-linejoin:round; stroke-width:2; stroke-opacity:0.1; fill:none" points="
  193.936,1442.04 2352.76,1442.04 
  "/>
<polyline clip-path="url(#clip482)" style="stroke:#000000; stroke-linecap:butt; stroke-linejoin:round; stroke-width:2; stroke-opacity:0.1; fill:none" points="
  193.936,1123.5 2352.76,1123.5 
  "/>
<polyline clip-path="url(#clip482)" style="stroke:#000000; stroke-linecap:butt; stroke-linejoin:round; stroke-width:2; stroke-opacity:0.1; fill:none" points="
  193.936,804.96 2352.76,804.96 
  "/>
<polyline clip-path="url(#clip482)" style="stroke:#000000; stroke-linecap:butt; stroke-linejoin:round; stroke-width:2; stroke-opacity:0.1; fill:none" points="
  193.936,486.419 2352.76,486.419 
  "/>
<polyline clip-path="url(#clip482)" style="stroke:#000000; stroke-linecap:butt; stroke-linejoin:round; stroke-width:2; stroke-opacity:0.1; fill:none" points="
  193.936,167.879 2352.76,167.879 
  "/>
<polyline clip-path="url(#clip480)" style="stroke:#000000; stroke-linecap:butt; stroke-linejoin:round; stroke-width:4; stroke-opacity:1; fill:none" points="
  193.936,1486.45 193.936,123.472 
  "/>
<polyline clip-path="url(#clip480)" style="stroke:#000000; stroke-linecap:butt; stroke-linejoin:round; stroke-width:4; stroke-opacity:1; fill:none" points="
  193.936,1442.04 212.834,1442.04 
  "/>
<polyline clip-path="url(#clip480)" style="stroke:#000000; stroke-linecap:butt; stroke-linejoin:round; stroke-width:4; stroke-opacity:1; fill:none" points="
  193.936,1123.5 212.834,1123.5 
  "/>
<polyline clip-path="url(#clip480)" style="stroke:#000000; stroke-linecap:butt; stroke-linejoin:round; stroke-width:4; stroke-opacity:1; fill:none" points="
  193.936,804.96 212.834,804.96 
  "/>
<polyline clip-path="url(#clip480)" style="stroke:#000000; stroke-linecap:butt; stroke-linejoin:round; stroke-width:4; stroke-opacity:1; fill:none" points="
  193.936,486.419 212.834,486.419 
  "/>
<polyline clip-path="url(#clip480)" style="stroke:#000000; stroke-linecap:butt; stroke-linejoin:round; stroke-width:4; stroke-opacity:1; fill:none" points="
  193.936,167.879 212.834,167.879 
  "/>
<path clip-path="url(#clip480)" d="M50.9921 1442.49 L80.6679 1442.49 L80.6679 1446.43 L50.9921 1446.43 L50.9921 1442.49 Z" fill="#000000" fill-rule="evenodd" fill-opacity="1" /><path clip-path="url(#clip480)" d="M91.5706 1455.39 L99.2095 1455.39 L99.2095 1429.02 L90.8993 1430.69 L90.8993 1426.43 L99.1632 1424.76 L103.839 1424.76 L103.839 1455.39 L111.478 1455.39 L111.478 1459.32 L91.5706 1459.32 L91.5706 1455.39 Z" fill="#000000" fill-rule="evenodd" fill-opacity="1" /><path clip-path="url(#clip480)" d="M120.922 1453.44 L125.807 1453.44 L125.807 1459.32 L120.922 1459.32 L120.922 1453.44 Z" fill="#000000" fill-rule="evenodd" fill-opacity="1" /><path clip-path="url(#clip480)" d="M145.992 1427.84 Q142.381 1427.84 140.552 1431.4 Q138.746 1434.95 138.746 1442.08 Q138.746 1449.18 140.552 1452.75 Q142.381 1456.29 145.992 1456.29 Q149.626 1456.29 151.431 1452.75 Q153.26 1449.18 153.26 1442.08 Q153.26 1434.95 151.431 1431.4 Q149.626 1427.84 145.992 1427.84 M145.992 1424.14 Q151.802 1424.14 154.857 1428.74 Q157.936 1433.33 157.936 1442.08 Q157.936 1450.8 154.857 1455.41 Q151.802 1459.99 145.992 1459.99 Q140.181 1459.99 137.103 1455.41 Q134.047 1450.8 134.047 1442.08 Q134.047 1433.33 137.103 1428.74 Q140.181 1424.14 145.992 1424.14 Z" fill="#000000" fill-rule="evenodd" fill-opacity="1" /><path clip-path="url(#clip480)" d="M51.9875 1123.95 L81.6633 1123.95 L81.6633 1127.89 L51.9875 1127.89 L51.9875 1123.95 Z" fill="#000000" fill-rule="evenodd" fill-opacity="1" /><path clip-path="url(#clip480)" d="M101.756 1109.3 Q98.1447 1109.3 96.316 1112.86 Q94.5104 1116.41 94.5104 1123.54 Q94.5104 1130.64 96.316 1134.21 Q98.1447 1137.75 101.756 1137.75 Q105.39 1137.75 107.196 1134.21 Q109.024 1130.64 109.024 1123.54 Q109.024 1116.41 107.196 1112.86 Q105.39 1109.3 101.756 1109.3 M101.756 1105.6 Q107.566 1105.6 110.621 1110.2 Q113.7 1114.79 113.7 1123.54 Q113.7 1132.26 110.621 1136.87 Q107.566 1141.45 101.756 1141.45 Q95.9456 1141.45 92.8669 1136.87 Q89.8114 1132.26 89.8114 1123.54 Q89.8114 1114.79 92.8669 1110.2 Q95.9456 1105.6 101.756 1105.6 Z" fill="#000000" fill-rule="evenodd" fill-opacity="1" /><path clip-path="url(#clip480)" d="M121.918 1134.9 L126.802 1134.9 L126.802 1140.78 L121.918 1140.78 L121.918 1134.9 Z" fill="#000000" fill-rule="evenodd" fill-opacity="1" /><path clip-path="url(#clip480)" d="M137.033 1106.22 L155.39 1106.22 L155.39 1110.16 L141.316 1110.16 L141.316 1118.63 Q142.334 1118.28 143.353 1118.12 Q144.371 1117.93 145.39 1117.93 Q151.177 1117.93 154.556 1121.1 Q157.936 1124.28 157.936 1129.69 Q157.936 1135.27 154.464 1138.37 Q150.992 1141.45 144.672 1141.45 Q142.496 1141.45 140.228 1141.08 Q137.982 1140.71 135.575 1139.97 L135.575 1135.27 Q137.658 1136.41 139.881 1136.96 Q142.103 1137.52 144.58 1137.52 Q148.584 1137.52 150.922 1135.41 Q153.26 1133.3 153.26 1129.69 Q153.26 1126.08 150.922 1123.98 Q148.584 1121.87 144.58 1121.87 Q142.705 1121.87 140.83 1122.29 Q138.978 1122.7 137.033 1123.58 L137.033 1106.22 Z" fill="#000000" fill-rule="evenodd" fill-opacity="1" /><path clip-path="url(#clip480)" d="M100.76 790.759 Q97.1493 790.759 95.3206 794.323 Q93.515 797.865 93.515 804.995 Q93.515 812.101 95.3206 815.666 Q97.1493 819.208 100.76 819.208 Q104.395 819.208 106.2 815.666 Q108.029 812.101 108.029 804.995 Q108.029 797.865 106.2 794.323 Q104.395 790.759 100.76 790.759 M100.76 787.055 Q106.571 787.055 109.626 791.661 Q112.705 796.245 112.705 804.995 Q112.705 813.722 109.626 818.328 Q106.571 822.911 100.76 822.911 Q94.9502 822.911 91.8715 818.328 Q88.816 813.722 88.816 804.995 Q88.816 796.245 91.8715 791.661 Q94.9502 787.055 100.76 787.055 Z" fill="#000000" fill-rule="evenodd" fill-opacity="1" /><path clip-path="url(#clip480)" d="M120.922 816.36 L125.807 816.36 L125.807 822.24 L120.922 822.24 L120.922 816.36 Z" fill="#000000" fill-rule="evenodd" fill-opacity="1" /><path clip-path="url(#clip480)" d="M145.992 790.759 Q142.381 790.759 140.552 794.323 Q138.746 797.865 138.746 804.995 Q138.746 812.101 140.552 815.666 Q142.381 819.208 145.992 819.208 Q149.626 819.208 151.431 815.666 Q153.26 812.101 153.26 804.995 Q153.26 797.865 151.431 794.323 Q149.626 790.759 145.992 790.759 M145.992 787.055 Q151.802 787.055 154.857 791.661 Q157.936 796.245 157.936 804.995 Q157.936 813.722 154.857 818.328 Q151.802 822.911 145.992 822.911 Q140.181 822.911 137.103 818.328 Q134.047 813.722 134.047 804.995 Q134.047 796.245 137.103 791.661 Q140.181 787.055 145.992 787.055 Z" fill="#000000" fill-rule="evenodd" fill-opacity="1" /><path clip-path="url(#clip480)" d="M101.756 472.218 Q98.1447 472.218 96.316 475.783 Q94.5104 479.324 94.5104 486.454 Q94.5104 493.561 96.316 497.125 Q98.1447 500.667 101.756 500.667 Q105.39 500.667 107.196 497.125 Q109.024 493.561 109.024 486.454 Q109.024 479.324 107.196 475.783 Q105.39 472.218 101.756 472.218 M101.756 468.514 Q107.566 468.514 110.621 473.121 Q113.7 477.704 113.7 486.454 Q113.7 495.181 110.621 499.787 Q107.566 504.371 101.756 504.371 Q95.9456 504.371 92.8669 499.787 Q89.8114 495.181 89.8114 486.454 Q89.8114 477.704 92.8669 473.121 Q95.9456 468.514 101.756 468.514 Z" fill="#000000" fill-rule="evenodd" fill-opacity="1" /><path clip-path="url(#clip480)" d="M121.918 497.82 L126.802 497.82 L126.802 503.699 L121.918 503.699 L121.918 497.82 Z" fill="#000000" fill-rule="evenodd" fill-opacity="1" /><path clip-path="url(#clip480)" d="M137.033 469.139 L155.39 469.139 L155.39 473.075 L141.316 473.075 L141.316 481.547 Q142.334 481.199 143.353 481.037 Q144.371 480.852 145.39 480.852 Q151.177 480.852 154.556 484.024 Q157.936 487.195 157.936 492.611 Q157.936 498.19 154.464 501.292 Q150.992 504.371 144.672 504.371 Q142.496 504.371 140.228 504 Q137.982 503.63 135.575 502.889 L135.575 498.19 Q137.658 499.324 139.881 499.88 Q142.103 500.435 144.58 500.435 Q148.584 500.435 150.922 498.329 Q153.26 496.223 153.26 492.611 Q153.26 489 150.922 486.894 Q148.584 484.787 144.58 484.787 Q142.705 484.787 140.83 485.204 Q138.978 485.621 137.033 486.5 L137.033 469.139 Z" fill="#000000" fill-rule="evenodd" fill-opacity="1" /><path clip-path="url(#clip480)" d="M91.5706 181.224 L99.2095 181.224 L99.2095 154.858 L90.8993 156.525 L90.8993 152.265 L99.1632 150.599 L103.839 150.599 L103.839 181.224 L111.478 181.224 L111.478 185.159 L91.5706 185.159 L91.5706 181.224 Z" fill="#000000" fill-rule="evenodd" fill-opacity="1" /><path clip-path="url(#clip480)" d="M120.922 179.279 L125.807 179.279 L125.807 185.159 L120.922 185.159 L120.922 179.279 Z" fill="#000000" fill-rule="evenodd" fill-opacity="1" /><path clip-path="url(#clip480)" d="M145.992 153.677 Q142.381 153.677 140.552 157.242 Q138.746 160.784 138.746 167.913 Q138.746 175.02 140.552 178.585 Q142.381 182.126 145.992 182.126 Q149.626 182.126 151.431 178.585 Q153.26 175.02 153.26 167.913 Q153.26 160.784 151.431 157.242 Q149.626 153.677 145.992 153.677 M145.992 149.974 Q151.802 149.974 154.857 154.58 Q157.936 159.163 157.936 167.913 Q157.936 176.64 154.857 181.247 Q151.802 185.83 145.992 185.83 Q140.181 185.83 137.103 181.247 Q134.047 176.64 134.047 167.913 Q134.047 159.163 137.103 154.58 Q140.181 149.974 145.992 149.974 Z" fill="#000000" fill-rule="evenodd" fill-opacity="1" /><path clip-path="url(#clip480)" d="M521.539 63.9476 L521.539 47.7034 L508.171 47.7034 L508.171 40.9789 L529.64 40.9789 L529.64 66.9452 Q524.901 70.3075 519.189 72.0494 Q513.477 73.7508 506.996 73.7508 Q492.818 73.7508 484.797 65.4869 Q476.817 57.1826 476.817 42.3968 Q476.817 27.5705 484.797 19.3066 Q492.818 11.0023 506.996 11.0023 Q512.91 11.0023 518.217 12.4606 Q523.564 13.9189 528.061 16.7545 L528.061 25.464 Q523.524 21.6156 518.419 19.6712 Q513.315 17.7268 507.685 17.7268 Q496.585 17.7268 490.995 23.9246 Q485.445 30.1225 485.445 42.3968 Q485.445 54.6305 490.995 60.8284 Q496.585 67.0263 507.685 67.0263 Q512.019 67.0263 515.422 66.2971 Q518.825 65.5274 521.539 63.9476 Z" fill="#000000" fill-rule="evenodd" fill-opacity="1" /><path clip-path="url(#clip480)" d="M564.883 49.7694 Q555.85 49.7694 552.366 51.8354 Q548.882 53.9013 548.882 58.8839 Q548.882 62.8538 551.475 65.2034 Q554.108 67.5124 558.604 67.5124 Q564.802 67.5124 568.529 63.1374 Q572.296 58.7219 572.296 51.4303 L572.296 49.7694 L564.883 49.7694 M579.75 46.6907 L579.75 72.576 L572.296 72.576 L572.296 65.6895 Q569.744 69.8214 565.937 71.8063 Q562.129 73.7508 556.619 73.7508 Q549.652 73.7508 545.52 69.8619 Q541.429 65.9325 541.429 59.3701 Q541.429 51.7138 546.533 47.825 Q551.677 43.9361 561.845 43.9361 L572.296 43.9361 L572.296 43.2069 Q572.296 38.0623 568.894 35.2672 Q565.531 32.4315 559.415 32.4315 Q555.526 32.4315 551.839 33.3632 Q548.153 34.295 544.75 36.1584 L544.75 29.2718 Q548.842 27.692 552.69 26.9223 Q556.538 26.1121 560.184 26.1121 Q570.028 26.1121 574.889 31.2163 Q579.75 36.3204 579.75 46.6907 Z" fill="#000000" fill-rule="evenodd" fill-opacity="1" /><path clip-path="url(#clip480)" d="M595.103 9.54393 L602.557 9.54393 L602.557 72.576 L595.103 72.576 L595.103 9.54393 Z" fill="#000000" fill-rule="evenodd" fill-opacity="1" /><path clip-path="url(#clip480)" d="M656.96 48.0275 L656.96 51.6733 L622.69 51.6733 Q623.176 59.3701 627.308 63.421 Q631.48 67.4314 638.893 67.4314 Q643.187 67.4314 647.198 66.3781 Q651.249 65.3249 655.218 63.2184 L655.218 70.267 Q651.208 71.9684 646.995 72.8596 Q642.782 73.7508 638.448 73.7508 Q627.591 73.7508 621.231 67.4314 Q614.912 61.1119 614.912 50.3365 Q614.912 39.1965 620.907 32.6746 Q626.943 26.1121 637.151 26.1121 Q646.306 26.1121 651.613 32.0264 Q656.96 37.9003 656.96 48.0275 M649.507 45.84 Q649.426 39.7232 646.063 36.0774 Q642.742 32.4315 637.232 32.4315 Q630.994 32.4315 627.227 35.9558 Q623.5 39.4801 622.933 45.8805 L649.507 45.84 Z" fill="#000000" fill-rule="evenodd" fill-opacity="1" /><path clip-path="url(#clip480)" d="M695.484 34.1734 Q694.229 33.4443 692.73 33.1202 Q691.272 32.7556 689.489 32.7556 Q683.17 32.7556 679.767 36.8875 Q676.405 40.9789 676.405 48.6757 L676.405 72.576 L668.911 72.576 L668.911 27.2059 L676.405 27.2059 L676.405 34.2544 Q678.754 30.1225 682.522 28.1376 Q686.289 26.1121 691.677 26.1121 Q692.446 26.1121 693.378 26.2337 Q694.31 26.3147 695.444 26.5172 L695.484 34.1734 Z" fill="#000000" fill-rule="evenodd" fill-opacity="1" /><path clip-path="url(#clip480)" d="M703.019 9.54393 L710.513 9.54393 L710.513 46.7717 L732.753 27.2059 L742.272 27.2059 L718.21 48.4326 L743.285 72.576 L733.563 72.576 L710.513 50.4176 L710.513 72.576 L703.019 72.576 L703.019 9.54393 Z" fill="#000000" fill-rule="evenodd" fill-opacity="1" /><path clip-path="url(#clip480)" d="M751.346 27.2059 L758.8 27.2059 L758.8 72.576 L751.346 72.576 L751.346 27.2059 M751.346 9.54393 L758.8 9.54393 L758.8 18.9825 L751.346 18.9825 L751.346 9.54393 Z" fill="#000000" fill-rule="evenodd" fill-opacity="1" /><path clip-path="url(#clip480)" d="M812.11 45.1919 L812.11 72.576 L804.656 72.576 L804.656 45.4349 Q804.656 38.994 802.145 35.7938 Q799.633 32.5936 794.61 32.5936 Q788.574 32.5936 785.09 36.4419 Q781.607 40.2903 781.607 46.9338 L781.607 72.576 L774.113 72.576 L774.113 27.2059 L781.607 27.2059 L781.607 34.2544 Q784.28 30.163 787.886 28.1376 Q791.531 26.1121 796.271 26.1121 Q804.089 26.1121 808.1 30.9732 Q812.11 35.7938 812.11 45.1919 Z" fill="#000000" fill-rule="evenodd" fill-opacity="1" /><path clip-path="url(#clip480)" d="M892.156 48.0275 L892.156 51.6733 L857.885 51.6733 Q858.371 59.3701 862.503 63.421 Q866.676 67.4314 874.089 67.4314 Q878.383 67.4314 882.393 66.3781 Q886.444 65.3249 890.414 63.2184 L890.414 70.267 Q886.404 71.9684 882.191 72.8596 Q877.978 73.7508 873.643 73.7508 Q862.787 73.7508 856.427 67.4314 Q850.107 61.1119 850.107 50.3365 Q850.107 39.1965 856.103 32.6746 Q862.139 26.1121 872.347 26.1121 Q881.502 26.1121 886.809 32.0264 Q892.156 37.9003 892.156 48.0275 M884.702 45.84 Q884.621 39.7232 881.259 36.0774 Q877.937 32.4315 872.428 32.4315 Q866.19 32.4315 862.422 35.9558 Q858.695 39.4801 858.128 45.8805 L884.702 45.84 Z" fill="#000000" fill-rule="evenodd" fill-opacity="1" /><path clip-path="url(#clip480)" d="M930.68 34.1734 Q929.424 33.4443 927.925 33.1202 Q926.467 32.7556 924.685 32.7556 Q918.365 32.7556 914.962 36.8875 Q911.6 40.9789 911.6 48.6757 L911.6 72.576 L904.106 72.576 L904.106 27.2059 L911.6 27.2059 L911.6 34.2544 Q913.95 30.1225 917.717 28.1376 Q921.484 26.1121 926.872 26.1121 Q927.642 26.1121 928.573 26.2337 Q929.505 26.3147 930.639 26.5172 L930.68 34.1734 Z" fill="#000000" fill-rule="evenodd" fill-opacity="1" /><path clip-path="url(#clip480)" d="M963.33 34.1734 Q962.074 33.4443 960.576 33.1202 Q959.117 32.7556 957.335 32.7556 Q951.016 32.7556 947.613 36.8875 Q944.25 40.9789 944.25 48.6757 L944.25 72.576 L936.756 72.576 L936.756 27.2059 L944.25 27.2059 L944.25 34.2544 Q946.6 30.1225 950.367 28.1376 Q954.135 26.1121 959.522 26.1121 Q960.292 26.1121 961.224 26.2337 Q962.155 26.3147 963.29 26.5172 L963.33 34.1734 Z" fill="#000000" fill-rule="evenodd" fill-opacity="1" /><path clip-path="url(#clip480)" d="M986.907 32.4315 Q980.911 32.4315 977.427 37.1306 Q973.944 41.7891 973.944 49.9314 Q973.944 58.0738 977.387 62.7728 Q980.871 67.4314 986.907 67.4314 Q992.861 67.4314 996.345 62.7323 Q999.829 58.0333 999.829 49.9314 Q999.829 41.8701 996.345 37.1711 Q992.861 32.4315 986.907 32.4315 M986.907 26.1121 Q996.629 26.1121 1002.18 32.4315 Q1007.73 38.7509 1007.73 49.9314 Q1007.73 61.0714 1002.18 67.4314 Q996.629 73.7508 986.907 73.7508 Q977.144 73.7508 971.594 67.4314 Q966.085 61.0714 966.085 49.9314 Q966.085 38.7509 971.594 32.4315 Q977.144 26.1121 986.907 26.1121 Z" fill="#000000" fill-rule="evenodd" fill-opacity="1" /><path clip-path="url(#clip480)" d="M1046.37 34.1734 Q1045.12 33.4443 1043.62 33.1202 Q1042.16 32.7556 1040.38 32.7556 Q1034.06 32.7556 1030.66 36.8875 Q1027.29 40.9789 1027.29 48.6757 L1027.29 72.576 L1019.8 72.576 L1019.8 27.2059 L1027.29 27.2059 L1027.29 34.2544 Q1029.64 30.1225 1033.41 28.1376 Q1037.18 26.1121 1042.57 26.1121 Q1043.34 26.1121 1044.27 26.2337 Q1045.2 26.3147 1046.33 26.5172 L1046.37 34.1734 Z" fill="#000000" fill-rule="evenodd" fill-opacity="1" /><path clip-path="url(#clip480)" d="M1054.64 62.2867 L1063.19 62.2867 L1063.19 72.576 L1054.64 72.576 L1054.64 62.2867 M1054.64 29.6769 L1063.19 29.6769 L1063.19 39.9662 L1054.64 39.9662 L1054.64 29.6769 Z" fill="#000000" fill-rule="evenodd" fill-opacity="1" /><path clip-path="url(#clip480)" d="M1125.61 17.4837 Q1119.29 17.4837 1116.09 23.7221 Q1112.93 29.92 1112.93 42.3968 Q1112.93 54.833 1116.09 61.0714 Q1119.29 67.2693 1125.61 67.2693 Q1131.97 67.2693 1135.13 61.0714 Q1138.33 54.833 1138.33 42.3968 Q1138.33 29.92 1135.13 23.7221 Q1131.97 17.4837 1125.61 17.4837 M1125.61 11.0023 Q1135.78 11.0023 1141.12 19.0636 Q1146.51 27.0843 1146.51 42.3968 Q1146.51 57.6687 1141.12 65.73 Q1135.78 73.7508 1125.61 73.7508 Q1115.44 73.7508 1110.05 65.73 Q1104.71 57.6687 1104.71 42.3968 Q1104.71 27.0843 1110.05 19.0636 Q1115.44 11.0023 1125.61 11.0023 Z" fill="#000000" fill-rule="evenodd" fill-opacity="1" /><path clip-path="url(#clip480)" d="M1160.89 62.2867 L1169.44 62.2867 L1169.44 72.576 L1160.89 72.576 L1160.89 62.2867 Z" fill="#000000" fill-rule="evenodd" fill-opacity="1" /><path clip-path="url(#clip480)" d="M1204.76 17.4837 Q1198.44 17.4837 1195.24 23.7221 Q1192.08 29.92 1192.08 42.3968 Q1192.08 54.833 1195.24 61.0714 Q1198.44 67.2693 1204.76 67.2693 Q1211.12 67.2693 1214.28 61.0714 Q1217.48 54.833 1217.48 42.3968 Q1217.48 29.92 1214.28 23.7221 Q1211.12 17.4837 1204.76 17.4837 M1204.76 11.0023 Q1214.93 11.0023 1220.28 19.0636 Q1225.67 27.0843 1225.67 42.3968 Q1225.67 57.6687 1220.28 65.73 Q1214.93 73.7508 1204.76 73.7508 Q1194.6 73.7508 1189.21 65.73 Q1183.86 57.6687 1183.86 42.3968 Q1183.86 27.0843 1189.21 19.0636 Q1194.6 11.0023 1204.76 11.0023 Z" fill="#000000" fill-rule="evenodd" fill-opacity="1" /><path clip-path="url(#clip480)" d="M1264.84 39.9662 Q1270.71 41.222 1273.99 45.1919 Q1277.32 49.1618 1277.32 54.9951 Q1277.32 63.9476 1271.16 68.8492 Q1265 73.7508 1253.66 73.7508 Q1249.85 73.7508 1245.8 72.9811 Q1241.79 72.2519 1237.5 70.7531 L1237.5 62.8538 Q1240.9 64.8388 1244.95 65.8515 Q1249 66.8642 1253.42 66.8642 Q1261.11 66.8642 1265.12 63.826 Q1269.17 60.7879 1269.17 54.9951 Q1269.17 49.6479 1265.41 46.6502 Q1261.68 43.612 1255 43.612 L1247.95 43.612 L1247.95 36.8875 L1255.32 36.8875 Q1261.36 36.8875 1264.56 34.4975 Q1267.76 32.067 1267.76 27.5299 Q1267.76 22.8714 1264.43 20.4004 Q1261.15 17.8888 1255 17.8888 Q1251.63 17.8888 1247.78 18.618 Q1243.94 19.3471 1239.32 20.8865 L1239.32 13.5948 Q1243.98 12.2985 1248.03 11.6504 Q1252.12 11.0023 1255.72 11.0023 Q1265.04 11.0023 1270.47 15.2557 Q1275.9 19.4686 1275.9 26.6793 Q1275.9 31.7024 1273.02 35.1862 Q1270.15 38.6294 1264.84 39.9662 Z" fill="#000000" fill-rule="evenodd" fill-opacity="1" /><path clip-path="url(#clip480)" d="M1310.33 43.8551 Q1304.5 43.8551 1301.14 46.9743 Q1297.81 50.0935 1297.81 55.5622 Q1297.81 61.0309 1301.14 64.1501 Q1304.5 67.2693 1310.33 67.2693 Q1316.16 67.2693 1319.53 64.1501 Q1322.89 60.9904 1322.89 55.5622 Q1322.89 50.0935 1319.53 46.9743 Q1316.2 43.8551 1310.33 43.8551 M1302.15 40.3713 Q1296.88 39.075 1293.92 35.4697 Q1291.01 31.8644 1291.01 26.6793 Q1291.01 19.4281 1296.15 15.2152 Q1301.34 11.0023 1310.33 11.0023 Q1319.36 11.0023 1324.51 15.2152 Q1329.65 19.4281 1329.65 26.6793 Q1329.65 31.8644 1326.7 35.4697 Q1323.78 39.075 1318.55 40.3713 Q1324.47 41.7486 1327.75 45.759 Q1331.07 49.7694 1331.07 55.5622 Q1331.07 64.3527 1325.68 69.0517 Q1320.34 73.7508 1310.33 73.7508 Q1300.32 73.7508 1294.94 69.0517 Q1289.59 64.3527 1289.59 55.5622 Q1289.59 49.7694 1292.91 45.759 Q1296.23 41.7486 1302.15 40.3713 M1299.15 27.4489 Q1299.15 32.148 1302.07 34.7811 Q1305.02 37.4142 1310.33 37.4142 Q1315.6 37.4142 1318.55 34.7811 Q1321.55 32.148 1321.55 27.4489 Q1321.55 22.7499 1318.55 20.1168 Q1315.6 17.4837 1310.33 17.4837 Q1305.02 17.4837 1302.07 20.1168 Q1299.15 22.7499 1299.15 27.4489 Z" fill="#000000" fill-rule="evenodd" fill-opacity="1" /><path clip-path="url(#clip480)" d="M1345.7 12.096 L1377.82 12.096 L1377.82 18.9825 L1353.19 18.9825 L1353.19 33.8088 Q1354.97 33.2012 1356.75 32.9176 Q1358.54 32.5936 1360.32 32.5936 Q1370.45 32.5936 1376.36 38.1433 Q1382.27 43.6931 1382.27 53.1722 Q1382.27 62.9348 1376.2 68.3631 Q1370.12 73.7508 1359.06 73.7508 Q1355.26 73.7508 1351.29 73.1026 Q1347.36 72.4545 1343.14 71.1582 L1343.14 62.9348 Q1346.79 64.9198 1350.68 65.892 Q1354.57 66.8642 1358.9 66.8642 Q1365.91 66.8642 1370 63.1779 Q1374.09 59.4916 1374.09 53.1722 Q1374.09 46.8528 1370 43.1664 Q1365.91 39.4801 1358.9 39.4801 Q1355.62 39.4801 1352.34 40.2093 Q1349.1 40.9384 1345.7 42.4778 L1345.7 12.096 Z" fill="#000000" fill-rule="evenodd" fill-opacity="1" /><path clip-path="url(#clip480)" d="M1415.9 17.4837 Q1409.58 17.4837 1406.38 23.7221 Q1403.22 29.92 1403.22 42.3968 Q1403.22 54.833 1406.38 61.0714 Q1409.58 67.2693 1415.9 67.2693 Q1422.26 67.2693 1425.42 61.0714 Q1428.62 54.833 1428.62 42.3968 Q1428.62 29.92 1425.42 23.7221 Q1422.26 17.4837 1415.9 17.4837 M1415.9 11.0023 Q1426.07 11.0023 1431.41 19.0636 Q1436.8 27.0843 1436.8 42.3968 Q1436.8 57.6687 1431.41 65.73 Q1426.07 73.7508 1415.9 73.7508 Q1405.73 73.7508 1400.34 65.73 Q1394.99 57.6687 1394.99 42.3968 Q1394.99 27.0843 1400.34 19.0636 Q1405.73 11.0023 1415.9 11.0023 Z" fill="#000000" fill-rule="evenodd" fill-opacity="1" /><path clip-path="url(#clip480)" d="M1452.6 65.6895 L1465.97 65.6895 L1465.97 19.5497 L1451.42 22.4663 L1451.42 15.0127 L1465.89 12.096 L1474.07 12.096 L1474.07 65.6895 L1487.44 65.6895 L1487.44 72.576 L1452.6 72.576 L1452.6 65.6895 Z" fill="#000000" fill-rule="evenodd" fill-opacity="1" /><path clip-path="url(#clip480)" d="M1511.01 65.6895 L1539.57 65.6895 L1539.57 72.576 L1501.17 72.576 L1501.17 65.6895 Q1505.83 60.8689 1513.85 52.7671 Q1521.91 44.6248 1523.98 42.2752 Q1527.9 37.8598 1529.44 34.8216 Q1531.02 31.7429 1531.02 28.7857 Q1531.02 23.9651 1527.62 20.927 Q1524.26 17.8888 1518.83 17.8888 Q1514.98 17.8888 1510.69 19.2256 Q1506.43 20.5624 1501.57 23.2765 L1501.57 15.0127 Q1506.52 13.0277 1510.81 12.015 Q1515.1 11.0023 1518.67 11.0023 Q1528.07 11.0023 1533.66 15.7013 Q1539.25 20.4004 1539.25 28.2591 Q1539.25 31.9859 1537.83 35.3482 Q1536.45 38.6699 1532.77 43.2069 Q1531.75 44.3817 1526.32 50.0125 Q1520.9 55.6027 1511.01 65.6895 Z" fill="#000000" fill-rule="evenodd" fill-opacity="1" /><path clip-path="url(#clip480)" d="M1558.17 65.6895 L1571.53 65.6895 L1571.53 19.5497 L1556.99 22.4663 L1556.99 15.0127 L1571.45 12.096 L1579.63 12.096 L1579.63 65.6895 L1593 65.6895 L1593 72.576 L1558.17 72.576 L1558.17 65.6895 Z" fill="#000000" fill-rule="evenodd" fill-opacity="1" /><path clip-path="url(#clip480)" d="M1632.01 19.2256 L1611.35 51.5113 L1632.01 51.5113 L1632.01 19.2256 M1629.87 12.096 L1640.16 12.096 L1640.16 51.5113 L1648.78 51.5113 L1648.78 58.3168 L1640.16 58.3168 L1640.16 72.576 L1632.01 72.576 L1632.01 58.3168 L1604.71 58.3168 L1604.71 50.4176 L1629.87 12.096 Z" fill="#000000" fill-rule="evenodd" fill-opacity="1" /><path clip-path="url(#clip480)" d="M1662.39 12.096 L1694.52 12.096 L1694.52 18.9825 L1669.89 18.9825 L1669.89 33.8088 Q1671.67 33.2012 1673.45 32.9176 Q1675.24 32.5936 1677.02 32.5936 Q1687.15 32.5936 1693.06 38.1433 Q1698.97 43.6931 1698.97 53.1722 Q1698.97 62.9348 1692.9 68.3631 Q1686.82 73.7508 1675.76 73.7508 Q1671.95 73.7508 1667.99 73.1026 Q1664.06 72.4545 1659.84 71.1582 L1659.84 62.9348 Q1663.49 64.9198 1667.38 65.892 Q1671.27 66.8642 1675.6 66.8642 Q1682.61 66.8642 1686.7 63.1779 Q1690.79 59.4916 1690.79 53.1722 Q1690.79 46.8528 1686.7 43.1664 Q1682.61 39.4801 1675.6 39.4801 Q1672.32 39.4801 1669.04 40.2093 Q1665.8 40.9384 1662.39 42.4778 L1662.39 12.096 Z" fill="#000000" fill-rule="evenodd" fill-opacity="1" /><path clip-path="url(#clip480)" d="M1732.6 43.8551 Q1726.76 43.8551 1723.4 46.9743 Q1720.08 50.0935 1720.08 55.5622 Q1720.08 61.0309 1723.4 64.1501 Q1726.76 67.2693 1732.6 67.2693 Q1738.43 67.2693 1741.79 64.1501 Q1745.15 60.9904 1745.15 55.5622 Q1745.15 50.0935 1741.79 46.9743 Q1738.47 43.8551 1732.6 43.8551 M1724.41 40.3713 Q1719.15 39.075 1716.19 35.4697 Q1713.27 31.8644 1713.27 26.6793 Q1713.27 19.4281 1718.42 15.2152 Q1723.6 11.0023 1732.6 11.0023 Q1741.63 11.0023 1746.78 15.2152 Q1751.92 19.4281 1751.92 26.6793 Q1751.92 31.8644 1748.96 35.4697 Q1746.05 39.075 1740.82 40.3713 Q1746.73 41.7486 1750.02 45.759 Q1753.34 49.7694 1753.34 55.5622 Q1753.34 64.3527 1747.95 69.0517 Q1742.6 73.7508 1732.6 73.7508 Q1722.59 73.7508 1717.2 69.0517 Q1711.86 64.3527 1711.86 55.5622 Q1711.86 49.7694 1715.18 45.759 Q1718.5 41.7486 1724.41 40.3713 M1721.42 27.4489 Q1721.42 32.148 1724.33 34.7811 Q1727.29 37.4142 1732.6 37.4142 Q1737.86 37.4142 1740.82 34.7811 Q1743.82 32.148 1743.82 27.4489 Q1743.82 22.7499 1740.82 20.1168 Q1737.86 17.4837 1732.6 17.4837 Q1727.29 17.4837 1724.33 20.1168 Q1721.42 22.7499 1721.42 27.4489 Z" fill="#000000" fill-rule="evenodd" fill-opacity="1" /><path clip-path="url(#clip480)" d="M1768.12 71.3202 L1768.12 63.8666 Q1771.2 65.3249 1774.36 66.0946 Q1777.52 66.8642 1780.56 66.8642 Q1788.66 66.8642 1792.91 61.436 Q1797.21 55.9673 1797.82 44.8678 Q1795.47 48.3516 1791.86 50.215 Q1788.26 52.0784 1783.88 52.0784 Q1774.81 52.0784 1769.5 46.6097 Q1764.23 41.1005 1764.23 31.5808 Q1764.23 22.2638 1769.74 16.633 Q1775.25 11.0023 1784.41 11.0023 Q1794.9 11.0023 1800.41 19.0636 Q1805.96 27.0843 1805.96 42.3968 Q1805.96 56.6965 1799.15 65.2439 Q1792.39 73.7508 1780.92 73.7508 Q1777.85 73.7508 1774.69 73.1431 Q1771.53 72.5355 1768.12 71.3202 M1784.41 45.678 Q1789.92 45.678 1793.12 41.9107 Q1796.36 38.1433 1796.36 31.5808 Q1796.36 25.0589 1793.12 21.2916 Q1789.92 17.4837 1784.41 17.4837 Q1778.9 17.4837 1775.66 21.2916 Q1772.46 25.0589 1772.46 31.5808 Q1772.46 38.1433 1775.66 41.9107 Q1778.9 45.678 1784.41 45.678 Z" fill="#000000" fill-rule="evenodd" fill-opacity="1" /><path clip-path="url(#clip480)" d="M1843.15 19.2256 L1822.49 51.5113 L1843.15 51.5113 L1843.15 19.2256 M1841 12.096 L1851.29 12.096 L1851.29 51.5113 L1859.92 51.5113 L1859.92 58.3168 L1851.29 58.3168 L1851.29 72.576 L1843.15 72.576 L1843.15 58.3168 L1815.84 58.3168 L1815.84 50.4176 L1841 12.096 Z" fill="#000000" fill-rule="evenodd" fill-opacity="1" /><path clip-path="url(#clip480)" d="M1890.95 17.4837 Q1884.63 17.4837 1881.43 23.7221 Q1878.27 29.92 1878.27 42.3968 Q1878.27 54.833 1881.43 61.0714 Q1884.63 67.2693 1890.95 67.2693 Q1897.31 67.2693 1900.47 61.0714 Q1903.67 54.833 1903.67 42.3968 Q1903.67 29.92 1900.47 23.7221 Q1897.31 17.4837 1890.95 17.4837 M1890.95 11.0023 Q1901.11 11.0023 1906.46 19.0636 Q1911.85 27.0843 1911.85 42.3968 Q1911.85 57.6687 1906.46 65.73 Q1901.11 73.7508 1890.95 73.7508 Q1880.78 73.7508 1875.39 65.73 Q1870.04 57.6687 1870.04 42.3968 Q1870.04 27.0843 1875.39 19.0636 Q1880.78 11.0023 1890.95 11.0023 Z" fill="#000000" fill-rule="evenodd" fill-opacity="1" /><path clip-path="url(#clip480)" d="M1926.47 71.3202 L1926.47 63.8666 Q1929.55 65.3249 1932.71 66.0946 Q1935.87 66.8642 1938.91 66.8642 Q1947.01 66.8642 1951.26 61.436 Q1955.56 55.9673 1956.17 44.8678 Q1953.82 48.3516 1950.21 50.215 Q1946.61 52.0784 1942.23 52.0784 Q1933.16 52.0784 1927.85 46.6097 Q1922.58 41.1005 1922.58 31.5808 Q1922.58 22.2638 1928.09 16.633 Q1933.6 11.0023 1942.76 11.0023 Q1953.25 11.0023 1958.76 19.0636 Q1964.31 27.0843 1964.31 42.3968 Q1964.31 56.6965 1957.5 65.2439 Q1950.74 73.7508 1939.27 73.7508 Q1936.2 73.7508 1933.04 73.1431 Q1929.88 72.5355 1926.47 71.3202 M1942.76 45.678 Q1948.27 45.678 1951.47 41.9107 Q1954.71 38.1433 1954.71 31.5808 Q1954.71 25.0589 1951.47 21.2916 Q1948.27 17.4837 1942.76 17.4837 Q1937.25 17.4837 1934.01 21.2916 Q1930.81 25.0589 1930.81 31.5808 Q1930.81 38.1433 1934.01 41.9107 Q1937.25 45.678 1942.76 45.678 Z" fill="#000000" fill-rule="evenodd" fill-opacity="1" /><path clip-path="url(#clip480)" d="M2001.5 19.2256 L1980.84 51.5113 L2001.5 51.5113 L2001.5 19.2256 M1999.35 12.096 L2009.64 12.096 L2009.64 51.5113 L2018.27 51.5113 L2018.27 58.3168 L2009.64 58.3168 L2009.64 72.576 L2001.5 72.576 L2001.5 58.3168 L1974.19 58.3168 L1974.19 50.4176 L1999.35 12.096 Z" fill="#000000" fill-rule="evenodd" fill-opacity="1" /><path clip-path="url(#clip480)" d="M2032.04 71.3202 L2032.04 63.8666 Q2035.12 65.3249 2038.28 66.0946 Q2041.44 66.8642 2044.48 66.8642 Q2052.58 66.8642 2056.83 61.436 Q2061.13 55.9673 2061.73 44.8678 Q2059.38 48.3516 2055.78 50.215 Q2052.17 52.0784 2047.8 52.0784 Q2038.72 52.0784 2033.42 46.6097 Q2028.15 41.1005 2028.15 31.5808 Q2028.15 22.2638 2033.66 16.633 Q2039.17 11.0023 2048.32 11.0023 Q2058.82 11.0023 2064.33 19.0636 Q2069.88 27.0843 2069.88 42.3968 Q2069.88 56.6965 2063.07 65.2439 Q2056.3 73.7508 2044.84 73.7508 Q2041.76 73.7508 2038.6 73.1431 Q2035.44 72.5355 2032.04 71.3202 M2048.32 45.678 Q2053.83 45.678 2057.03 41.9107 Q2060.27 38.1433 2060.27 31.5808 Q2060.27 25.0589 2057.03 21.2916 Q2053.83 17.4837 2048.32 17.4837 Q2042.82 17.4837 2039.57 21.2916 Q2036.37 25.0589 2036.37 31.5808 Q2036.37 38.1433 2039.57 41.9107 Q2042.82 45.678 2048.32 45.678 Z" fill="#000000" fill-rule="evenodd" fill-opacity="1" /><polyline clip-path="url(#clip482)" style="stroke:#009af9; stroke-linecap:butt; stroke-linejoin:round; stroke-width:12; stroke-opacity:1; fill:none" points="
  255.035,1427.3 286.024,1447.87 357.68,1437.49 466.835,1445.19 609.011,1437.13 778.386,1434.71 968.025,1379.92 1170.16,1102.99 1376.53,506.933 1578.67,230 
  1768.31,175.207 1937.68,172.792 2079.86,164.732 2189.01,172.427 2260.67,162.047 2291.66,182.62 
  "/>
<circle clip-path="url(#clip482)" cx="255.035" cy="1427.3" r="14.4" fill="#009af9" fill-rule="evenodd" fill-opacity="1" stroke="#000000" stroke-opacity="1" stroke-width="3.2"/>
<circle clip-path="url(#clip482)" cx="286.024" cy="1447.87" r="14.4" fill="#009af9" fill-rule="evenodd" fill-opacity="1" stroke="#000000" stroke-opacity="1" stroke-width="3.2"/>
<circle clip-path="url(#clip482)" cx="357.68" cy="1437.49" r="14.4" fill="#009af9" fill-rule="evenodd" fill-opacity="1" stroke="#000000" stroke-opacity="1" stroke-width="3.2"/>
<circle clip-path="url(#clip482)" cx="466.835" cy="1445.19" r="14.4" fill="#009af9" fill-rule="evenodd" fill-opacity="1" stroke="#000000" stroke-opacity="1" stroke-width="3.2"/>
<circle clip-path="url(#clip482)" cx="609.011" cy="1437.13" r="14.4" fill="#009af9" fill-rule="evenodd" fill-opacity="1" stroke="#000000" stroke-opacity="1" stroke-width="3.2"/>
<circle clip-path="url(#clip482)" cx="778.386" cy="1434.71" r="14.4" fill="#009af9" fill-rule="evenodd" fill-opacity="1" stroke="#000000" stroke-opacity="1" stroke-width="3.2"/>
<circle clip-path="url(#clip482)" cx="968.025" cy="1379.92" r="14.4" fill="#009af9" fill-rule="evenodd" fill-opacity="1" stroke="#000000" stroke-opacity="1" stroke-width="3.2"/>
<circle clip-path="url(#clip482)" cx="1170.16" cy="1102.99" r="14.4" fill="#009af9" fill-rule="evenodd" fill-opacity="1" stroke="#000000" stroke-opacity="1" stroke-width="3.2"/>
<circle clip-path="url(#clip482)" cx="1376.53" cy="506.933" r="14.4" fill="#009af9" fill-rule="evenodd" fill-opacity="1" stroke="#000000" stroke-opacity="1" stroke-width="3.2"/>
<circle clip-path="url(#clip482)" cx="1578.67" cy="230" r="14.4" fill="#009af9" fill-rule="evenodd" fill-opacity="1" stroke="#000000" stroke-opacity="1" stroke-width="3.2"/>
<circle clip-path="url(#clip482)" cx="1768.31" cy="175.207" r="14.4" fill="#009af9" fill-rule="evenodd" fill-opacity="1" stroke="#000000" stroke-opacity="1" stroke-width="3.2"/>
<circle clip-path="url(#clip482)" cx="1937.68" cy="172.792" r="14.4" fill="#009af9" fill-rule="evenodd" fill-opacity="1" stroke="#000000" stroke-opacity="1" stroke-width="3.2"/>
<circle clip-path="url(#clip482)" cx="2079.86" cy="164.732" r="14.4" fill="#009af9" fill-rule="evenodd" fill-opacity="1" stroke="#000000" stroke-opacity="1" stroke-width="3.2"/>
<circle clip-path="url(#clip482)" cx="2189.01" cy="172.427" r="14.4" fill="#009af9" fill-rule="evenodd" fill-opacity="1" stroke="#000000" stroke-opacity="1" stroke-width="3.2"/>
<circle clip-path="url(#clip482)" cx="2260.67" cy="162.047" r="14.4" fill="#009af9" fill-rule="evenodd" fill-opacity="1" stroke="#000000" stroke-opacity="1" stroke-width="3.2"/>
<circle clip-path="url(#clip482)" cx="2291.66" cy="182.62" r="14.4" fill="#009af9" fill-rule="evenodd" fill-opacity="1" stroke="#000000" stroke-opacity="1" stroke-width="3.2"/>
<polyline clip-path="url(#clip482)" style="stroke:#e26f46; stroke-linecap:butt; stroke-linejoin:round; stroke-width:12; stroke-opacity:1; fill:none" points="
  255.035,1441.98 268.294,1441.98 390.898,1441.82 464.577,1441.59 526.872,1441.21 594.542,1440.42 656.928,1439.05 723.812,1436.29 801.304,1429.8 835.737,1424.94 
  870.17,1418.19 900.364,1410.16 930.558,1399.53 947.018,1392.36 963.478,1384.04 979.938,1374.4 996.398,1363.27 1012.96,1350.36 1029.51,1335.53 1046.07,1318.54 
  1062.63,1299.18 1071.78,1287.38 1080.94,1274.74 1090.09,1261.24 1099.24,1246.84 1108.4,1231.51 1117.55,1215.24 1126.7,1197.99 1135.86,1179.76 1144.57,1161.5 
  1153.28,1142.34 1161.98,1122.3 1170.69,1101.38 1188.11,1057.03 1205.53,1009.59 1223.64,957.424 1241.75,903 1259.86,847.07 1277.98,790.48 1293.22,742.983 
  1308.47,696.172 1323.71,650.541 1338.96,606.533 1348.27,580.631 1357.57,555.549 1366.88,531.348 1376.19,508.079 1385.49,485.779 1394.8,464.476 1404.11,444.189 
  1413.41,424.924 1421.94,408.173 1430.46,392.273 1438.99,377.212 1447.51,362.974 1464.57,336.885 1481.62,313.813 1497.36,294.989 1513.11,278.355 1528.86,263.716 
  1544.61,250.879 1560.56,239.521 1576.51,229.636 1592.46,221.055 1608.42,213.621 1626.29,206.479 1644.17,200.423 1662.05,195.295 1679.93,190.961 1712.33,184.754 
  1744.73,180.199 1818.92,173.854 1887.62,170.929 1955.34,169.449 2021.1,168.703 2088.51,168.304 2162.36,168.085 2269.65,167.95 2291.66,167.937 
  "/>
<path clip-path="url(#clip480)" d="
M1988.5 1441.02 L2280.8 1441.02 L2280.8 1285.5 L1988.5 1285.5  Z
  " fill="#ffffff" fill-rule="evenodd" fill-opacity="1"/>
<polyline clip-path="url(#clip480)" style="stroke:#000000; stroke-linecap:butt; stroke-linejoin:round; stroke-width:4; stroke-opacity:1; fill:none" points="
  1988.5,1441.02 2280.8,1441.02 2280.8,1285.5 1988.5,1285.5 1988.5,1441.02 
  "/>
<polyline clip-path="url(#clip480)" style="stroke:#009af9; stroke-linecap:butt; stroke-linejoin:round; stroke-width:4; stroke-opacity:1; fill:none" points="
  2012.48,1337.34 2156.4,1337.34 
  "/>
<circle clip-path="url(#clip480)" cx="2084.44" cy="1337.34" r="23.04" fill="#009af9" fill-rule="evenodd" fill-opacity="1" stroke="#000000" stroke-opacity="1" stroke-width="5.12"/>
<path clip-path="url(#clip480)" d="M2194.23 1357.02 Q2192.43 1361.65 2190.72 1363.06 Q2189 1364.48 2186.13 1364.48 L2182.73 1364.48 L2182.73 1360.91 L2185.23 1360.91 Q2186.99 1360.91 2187.96 1360.08 Q2188.93 1359.24 2190.11 1356.14 L2190.88 1354.2 L2180.39 1328.69 L2184.91 1328.69 L2193.01 1348.97 L2201.11 1328.69 L2205.62 1328.69 L2194.23 1357.02 Z" fill="#000000" fill-rule="evenodd" fill-opacity="1" /><path clip-path="url(#clip480)" d="M2212.91 1350.68 L2220.55 1350.68 L2220.55 1324.31 L2212.24 1325.98 L2212.24 1321.72 L2220.51 1320.06 L2225.18 1320.06 L2225.18 1350.68 L2232.82 1350.68 L2232.82 1354.62 L2212.91 1354.62 L2212.91 1350.68 Z" fill="#000000" fill-rule="evenodd" fill-opacity="1" /><polyline clip-path="url(#clip480)" style="stroke:#e26f46; stroke-linecap:butt; stroke-linejoin:round; stroke-width:4; stroke-opacity:1; fill:none" points="
  2012.48,1389.18 2156.4,1389.18 
  "/>
<path clip-path="url(#clip480)" d="M2194.23 1408.86 Q2192.43 1413.49 2190.72 1414.9 Q2189 1416.32 2186.13 1416.32 L2182.73 1416.32 L2182.73 1412.75 L2185.23 1412.75 Q2186.99 1412.75 2187.96 1411.92 Q2188.93 1411.08 2190.11 1407.98 L2190.88 1406.04 L2180.39 1380.53 L2184.91 1380.53 L2193.01 1400.81 L2201.11 1380.53 L2205.62 1380.53 L2194.23 1408.86 Z" fill="#000000" fill-rule="evenodd" fill-opacity="1" /><path clip-path="url(#clip480)" d="M2216.13 1402.52 L2232.45 1402.52 L2232.45 1406.46 L2210.51 1406.46 L2210.51 1402.52 Q2213.17 1399.77 2217.75 1395.14 Q2222.36 1390.48 2223.54 1389.14 Q2225.78 1386.62 2226.66 1384.88 Q2227.57 1383.12 2227.57 1381.43 Q2227.57 1378.68 2225.62 1376.94 Q2223.7 1375.21 2220.6 1375.21 Q2218.4 1375.21 2215.95 1375.97 Q2213.52 1376.73 2210.74 1378.28 L2210.74 1373.56 Q2213.56 1372.43 2216.02 1371.85 Q2218.47 1371.27 2220.51 1371.27 Q2225.88 1371.27 2229.07 1373.96 Q2232.27 1376.64 2232.27 1381.13 Q2232.27 1383.26 2231.46 1385.18 Q2230.67 1387.08 2228.56 1389.67 Q2227.98 1390.34 2224.88 1393.56 Q2221.78 1396.76 2216.13 1402.52 Z" fill="#000000" fill-rule="evenodd" fill-opacity="1" /></svg>
