<?xml version="1.0" encoding="utf-8"?>
<svg xmlns="http://www.w3.org/2000/svg" xmlns:xlink="http://www.w3.org/1999/xlink" width="600" height="400" viewBox="0 0 2400 1600">
<defs>
  <clipPath id="clip200">
    <rect x="0" y="0" width="2400" height="1600"/>
  </clipPath>
</defs>
<path clip-path="url(#clip200)" d="
M0 1600 L2400 1600 L2400 0 L0 0  Z
  " fill="#ffffff" fill-rule="evenodd" fill-opacity="1"/>
<defs>
  <clipPath id="clip201">
    <rect x="480" y="0" width="1681" height="1600"/>
  </clipPath>
</defs>
<path clip-path="url(#clip200)" d="
M192.709 1486.45 L2352.76 1486.45 L2352.76 47.2441 L192.709 47.2441  Z
  " fill="#ffffff" fill-rule="evenodd" fill-opacity="1"/>
<defs>
  <clipPath id="clip202">
    <rect x="192" y="47" width="2161" height="1440"/>
  </clipPath>
</defs>
<polyline clip-path="url(#clip202)" style="stroke:#000000; stroke-linecap:butt; stroke-linejoin:round; stroke-width:2; stroke-opacity:0.1; fill:none" points="
  212.255,1486.45 212.255,47.2441 
  "/>
<polyline clip-path="url(#clip202)" style="stroke:#000000; stroke-linecap:butt; stroke-linejoin:round; stroke-width:2; stroke-opacity:0.1; fill:none" points="
  742.494,1486.45 742.494,47.2441 
  "/>
<polyline clip-path="url(#clip202)" style="stroke:#000000; stroke-linecap:butt; stroke-linejoin:round; stroke-width:2; stroke-opacity:0.1; fill:none" points="
  1272.73,1486.45 1272.73,47.2441 
  "/>
<polyline clip-path="url(#clip202)" style="stroke:#000000; stroke-linecap:butt; stroke-linejoin:round; stroke-width:2; stroke-opacity:0.1; fill:none" points="
  1802.97,1486.45 1802.97,47.2441 
  "/>
<polyline clip-path="url(#clip202)" style="stroke:#000000; stroke-linecap:butt; stroke-linejoin:round; stroke-width:2; stroke-opacity:0.1; fill:none" points="
  2333.21,1486.45 2333.21,47.2441 
  "/>
<polyline clip-path="url(#clip200)" style="stroke:#000000; stroke-linecap:butt; stroke-linejoin:round; stroke-width:4; stroke-opacity:1; fill:none" points="
  192.709,1486.45 2352.76,1486.45 
  "/>
<polyline clip-path="url(#clip200)" style="stroke:#000000; stroke-linecap:butt; stroke-linejoin:round; stroke-width:4; stroke-opacity:1; fill:none" points="
  212.255,1486.45 212.255,1467.55 
  "/>
<polyline clip-path="url(#clip200)" style="stroke:#000000; stroke-linecap:butt; stroke-linejoin:round; stroke-width:4; stroke-opacity:1; fill:none" points="
  742.494,1486.45 742.494,1467.55 
  "/>
<polyline clip-path="url(#clip200)" style="stroke:#000000; stroke-linecap:butt; stroke-linejoin:round; stroke-width:4; stroke-opacity:1; fill:none" points="
  1272.73,1486.45 1272.73,1467.55 
  "/>
<polyline clip-path="url(#clip200)" style="stroke:#000000; stroke-linecap:butt; stroke-linejoin:round; stroke-width:4; stroke-opacity:1; fill:none" points="
  1802.97,1486.45 1802.97,1467.55 
  "/>
<polyline clip-path="url(#clip200)" style="stroke:#000000; stroke-linecap:butt; stroke-linejoin:round; stroke-width:4; stroke-opacity:1; fill:none" points="
  2333.21,1486.45 2333.21,1467.55 
  "/>
<path clip-path="url(#clip200)" d="M158.783 1532.02 L188.459 1532.02 L188.459 1535.95 L158.783 1535.95 L158.783 1532.02 Z" fill="#000000" fill-rule="evenodd" fill-opacity="1" /><path clip-path="url(#clip200)" d="M199.362 1544.91 L207.001 1544.91 L207.001 1518.55 L198.69 1520.21 L198.69 1515.95 L206.954 1514.29 L211.63 1514.29 L211.63 1544.91 L219.269 1544.91 L219.269 1548.85 L199.362 1548.85 L199.362 1544.91 Z" fill="#000000" fill-rule="evenodd" fill-opacity="1" /><path clip-path="url(#clip200)" d="M228.713 1542.97 L233.598 1542.97 L233.598 1548.85 L228.713 1548.85 L228.713 1542.97 Z" fill="#000000" fill-rule="evenodd" fill-opacity="1" /><path clip-path="url(#clip200)" d="M253.783 1517.37 Q250.172 1517.37 248.343 1520.93 Q246.537 1524.47 246.537 1531.6 Q246.537 1538.71 248.343 1542.27 Q250.172 1545.82 253.783 1545.82 Q257.417 1545.82 259.223 1542.27 Q261.051 1538.71 261.051 1531.6 Q261.051 1524.47 259.223 1520.93 Q257.417 1517.37 253.783 1517.37 M253.783 1513.66 Q259.593 1513.66 262.648 1518.27 Q265.727 1522.85 265.727 1531.6 Q265.727 1540.33 262.648 1544.94 Q259.593 1549.52 253.783 1549.52 Q247.973 1549.52 244.894 1544.94 Q241.838 1540.33 241.838 1531.6 Q241.838 1522.85 244.894 1518.27 Q247.973 1513.66 253.783 1513.66 Z" fill="#000000" fill-rule="evenodd" fill-opacity="1" /><path clip-path="url(#clip200)" d="M689.52 1532.02 L719.195 1532.02 L719.195 1535.95 L689.52 1535.95 L689.52 1532.02 Z" fill="#000000" fill-rule="evenodd" fill-opacity="1" /><path clip-path="url(#clip200)" d="M739.288 1517.37 Q735.677 1517.37 733.848 1520.93 Q732.043 1524.47 732.043 1531.6 Q732.043 1538.71 733.848 1542.27 Q735.677 1545.82 739.288 1545.82 Q742.922 1545.82 744.728 1542.27 Q746.556 1538.71 746.556 1531.6 Q746.556 1524.47 744.728 1520.93 Q742.922 1517.37 739.288 1517.37 M739.288 1513.66 Q745.098 1513.66 748.154 1518.27 Q751.232 1522.85 751.232 1531.6 Q751.232 1540.33 748.154 1544.94 Q745.098 1549.52 739.288 1549.52 Q733.478 1549.52 730.399 1544.94 Q727.343 1540.33 727.343 1531.6 Q727.343 1522.85 730.399 1518.27 Q733.478 1513.66 739.288 1513.66 Z" fill="#000000" fill-rule="evenodd" fill-opacity="1" /><path clip-path="url(#clip200)" d="M759.45 1542.97 L764.334 1542.97 L764.334 1548.85 L759.45 1548.85 L759.45 1542.97 Z" fill="#000000" fill-rule="evenodd" fill-opacity="1" /><path clip-path="url(#clip200)" d="M774.565 1514.29 L792.922 1514.29 L792.922 1518.22 L778.848 1518.22 L778.848 1526.7 Q779.866 1526.35 780.885 1526.19 Q781.903 1526 782.922 1526 Q788.709 1526 792.089 1529.17 Q795.468 1532.34 795.468 1537.76 Q795.468 1543.34 791.996 1546.44 Q788.524 1549.52 782.204 1549.52 Q780.028 1549.52 777.76 1549.15 Q775.515 1548.78 773.107 1548.04 L773.107 1543.34 Q775.19 1544.47 777.413 1545.03 Q779.635 1545.58 782.112 1545.58 Q786.116 1545.58 788.454 1543.48 Q790.792 1541.37 790.792 1537.76 Q790.792 1534.15 788.454 1532.04 Q786.116 1529.94 782.112 1529.94 Q780.237 1529.94 778.362 1530.35 Q776.51 1530.77 774.565 1531.65 L774.565 1514.29 Z" fill="#000000" fill-rule="evenodd" fill-opacity="1" /><path clip-path="url(#clip200)" d="M1250.12 1517.37 Q1246.51 1517.37 1244.68 1520.93 Q1242.87 1524.47 1242.87 1531.6 Q1242.87 1538.71 1244.68 1542.27 Q1246.51 1545.82 1250.12 1545.82 Q1253.75 1545.82 1255.56 1542.27 Q1257.39 1538.71 1257.39 1531.6 Q1257.39 1524.47 1255.56 1520.93 Q1253.75 1517.37 1250.12 1517.37 M1250.12 1513.66 Q1255.93 1513.66 1258.98 1518.27 Q1262.06 1522.85 1262.06 1531.6 Q1262.06 1540.33 1258.98 1544.94 Q1255.93 1549.52 1250.12 1549.52 Q1244.31 1549.52 1241.23 1544.94 Q1238.17 1540.33 1238.17 1531.6 Q1238.17 1522.85 1241.23 1518.27 Q1244.31 1513.66 1250.12 1513.66 Z" fill="#000000" fill-rule="evenodd" fill-opacity="1" /><path clip-path="url(#clip200)" d="M1270.28 1542.97 L1275.16 1542.97 L1275.16 1548.85 L1270.28 1548.85 L1270.28 1542.97 Z" fill="#000000" fill-rule="evenodd" fill-opacity="1" /><path clip-path="url(#clip200)" d="M1295.35 1517.37 Q1291.74 1517.37 1289.91 1520.93 Q1288.1 1524.47 1288.1 1531.6 Q1288.1 1538.71 1289.91 1542.27 Q1291.74 1545.82 1295.35 1545.82 Q1298.98 1545.82 1300.79 1542.27 Q1302.62 1538.71 1302.62 1531.6 Q1302.62 1524.47 1300.79 1520.93 Q1298.98 1517.37 1295.35 1517.37 M1295.35 1513.66 Q1301.16 1513.66 1304.21 1518.27 Q1307.29 1522.85 1307.29 1531.6 Q1307.29 1540.33 1304.21 1544.94 Q1301.16 1549.52 1295.35 1549.52 Q1289.54 1549.52 1286.46 1544.94 Q1283.4 1540.33 1283.4 1531.6 Q1283.4 1522.85 1286.46 1518.27 Q1289.54 1513.66 1295.35 1513.66 Z" fill="#000000" fill-rule="evenodd" fill-opacity="1" /><path clip-path="url(#clip200)" d="M1780.85 1517.37 Q1777.24 1517.37 1775.41 1520.93 Q1773.61 1524.47 1773.61 1531.6 Q1773.61 1538.71 1775.41 1542.27 Q1777.24 1545.82 1780.85 1545.82 Q1784.49 1545.82 1786.29 1542.27 Q1788.12 1538.71 1788.12 1531.6 Q1788.12 1524.47 1786.29 1520.93 Q1784.49 1517.37 1780.85 1517.37 M1780.85 1513.66 Q1786.66 1513.66 1789.72 1518.27 Q1792.8 1522.85 1792.8 1531.6 Q1792.8 1540.33 1789.72 1544.94 Q1786.66 1549.52 1780.85 1549.52 Q1775.04 1549.52 1771.96 1544.94 Q1768.91 1540.33 1768.91 1531.6 Q1768.91 1522.85 1771.96 1518.27 Q1775.04 1513.66 1780.85 1513.66 Z" fill="#000000" fill-rule="evenodd" fill-opacity="1" /><path clip-path="url(#clip200)" d="M1801.02 1542.97 L1805.9 1542.97 L1805.9 1548.85 L1801.02 1548.85 L1801.02 1542.97 Z" fill="#000000" fill-rule="evenodd" fill-opacity="1" /><path clip-path="url(#clip200)" d="M1816.13 1514.29 L1834.49 1514.29 L1834.49 1518.22 L1820.41 1518.22 L1820.41 1526.7 Q1821.43 1526.35 1822.45 1526.19 Q1823.47 1526 1824.49 1526 Q1830.27 1526 1833.65 1529.17 Q1837.03 1532.34 1837.03 1537.76 Q1837.03 1543.34 1833.56 1546.44 Q1830.09 1549.52 1823.77 1549.52 Q1821.59 1549.52 1819.33 1549.15 Q1817.08 1548.78 1814.67 1548.04 L1814.67 1543.34 Q1816.76 1544.47 1818.98 1545.03 Q1821.2 1545.58 1823.68 1545.58 Q1827.68 1545.58 1830.02 1543.48 Q1832.36 1541.37 1832.36 1537.76 Q1832.36 1534.15 1830.02 1532.04 Q1827.68 1529.94 1823.68 1529.94 Q1821.8 1529.94 1819.93 1530.35 Q1818.08 1530.77 1816.13 1531.65 L1816.13 1514.29 Z" fill="#000000" fill-rule="evenodd" fill-opacity="1" /><path clip-path="url(#clip200)" d="M2300.36 1544.91 L2308 1544.91 L2308 1518.55 L2299.69 1520.21 L2299.69 1515.95 L2307.96 1514.29 L2312.63 1514.29 L2312.63 1544.91 L2320.27 1544.91 L2320.27 1548.85 L2300.36 1548.85 L2300.36 1544.91 Z" fill="#000000" fill-rule="evenodd" fill-opacity="1" /><path clip-path="url(#clip200)" d="M2329.71 1542.97 L2334.6 1542.97 L2334.6 1548.85 L2329.71 1548.85 L2329.71 1542.97 Z" fill="#000000" fill-rule="evenodd" fill-opacity="1" /><path clip-path="url(#clip200)" d="M2354.78 1517.37 Q2351.17 1517.37 2349.34 1520.93 Q2347.54 1524.47 2347.54 1531.6 Q2347.54 1538.71 2349.34 1542.27 Q2351.17 1545.82 2354.78 1545.82 Q2358.42 1545.82 2360.22 1542.27 Q2362.05 1538.71 2362.05 1531.6 Q2362.05 1524.47 2360.22 1520.93 Q2358.42 1517.37 2354.78 1517.37 M2354.78 1513.66 Q2360.59 1513.66 2363.65 1518.27 Q2366.73 1522.85 2366.73 1531.6 Q2366.73 1540.33 2363.65 1544.94 Q2360.59 1549.52 2354.78 1549.52 Q2348.97 1549.52 2345.89 1544.94 Q2342.84 1540.33 2342.84 1531.6 Q2342.84 1522.85 2345.89 1518.27 Q2348.97 1513.66 2354.78 1513.66 Z" fill="#000000" fill-rule="evenodd" fill-opacity="1" /><polyline clip-path="url(#clip202)" style="stroke:#000000; stroke-linecap:butt; stroke-linejoin:round; stroke-width:2; stroke-opacity:0.1; fill:none" points="
  192.709,1455.39 2352.76,1455.39 
  "/>
<polyline clip-path="url(#clip202)" style="stroke:#000000; stroke-linecap:butt; stroke-linejoin:round; stroke-width:2; stroke-opacity:0.1; fill:none" points="
  192.709,1111.76 2352.76,1111.76 
  "/>
<polyline clip-path="url(#clip202)" style="stroke:#000000; stroke-linecap:butt; stroke-linejoin:round; stroke-width:2; stroke-opacity:0.1; fill:none" points="
  192.709,768.136 2352.76,768.136 
  "/>
<polyline clip-path="url(#clip202)" style="stroke:#000000; stroke-linecap:butt; stroke-linejoin:round; stroke-width:2; stroke-opacity:0.1; fill:none" points="
  192.709,424.509 2352.76,424.509 
  "/>
<polyline clip-path="url(#clip202)" style="stroke:#000000; stroke-linecap:butt; stroke-linejoin:round; stroke-width:2; stroke-opacity:0.1; fill:none" points="
  192.709,80.8824 2352.76,80.8824 
  "/>
<polyline clip-path="url(#clip200)" style="stroke:#000000; stroke-linecap:butt; stroke-linejoin:round; stroke-width:4; stroke-opacity:1; fill:none" points="
  192.709,1486.45 192.709,47.2441 
  "/>
<polyline clip-path="url(#clip200)" style="stroke:#000000; stroke-linecap:butt; stroke-linejoin:round; stroke-width:4; stroke-opacity:1; fill:none" points="
  192.709,1455.39 211.607,1455.39 
  "/>
<polyline clip-path="url(#clip200)" style="stroke:#000000; stroke-linecap:butt; stroke-linejoin:round; stroke-width:4; stroke-opacity:1; fill:none" points="
  192.709,1111.76 211.607,1111.76 
  "/>
<polyline clip-path="url(#clip200)" style="stroke:#000000; stroke-linecap:butt; stroke-linejoin:round; stroke-width:4; stroke-opacity:1; fill:none" points="
  192.709,768.136 211.607,768.136 
  "/>
<polyline clip-path="url(#clip200)" style="stroke:#000000; stroke-linecap:butt; stroke-linejoin:round; stroke-width:4; stroke-opacity:1; fill:none" points="
  192.709,424.509 211.607,424.509 
  "/>
<polyline clip-path="url(#clip200)" style="stroke:#000000; stroke-linecap:butt; stroke-linejoin:round; stroke-width:4; stroke-opacity:1; fill:none" points="
  192.709,80.8824 211.607,80.8824 
  "/>
<path clip-path="url(#clip200)" d="M51.3625 1455.84 L81.0383 1455.84 L81.0383 1459.78 L51.3625 1459.78 L51.3625 1455.84 Z" fill="#000000" fill-rule="evenodd" fill-opacity="1" /><path clip-path="url(#clip200)" d="M101.131 1441.19 Q97.5197 1441.19 95.691 1444.75 Q93.8854 1448.29 93.8854 1455.42 Q93.8854 1462.53 95.691 1466.1 Q97.5197 1469.64 101.131 1469.64 Q104.765 1469.64 106.571 1466.1 Q108.399 1462.53 108.399 1455.42 Q108.399 1448.29 106.571 1444.75 Q104.765 1441.19 101.131 1441.19 M101.131 1437.48 Q106.941 1437.48 109.996 1442.09 Q113.075 1446.67 113.075 1455.42 Q113.075 1464.15 109.996 1468.76 Q106.941 1473.34 101.131 1473.34 Q95.3206 1473.34 92.2419 1468.76 Q89.1864 1464.15 89.1864 1455.42 Q89.1864 1446.67 92.2419 1442.09 Q95.3206 1437.48 101.131 1437.48 Z" fill="#000000" fill-rule="evenodd" fill-opacity="1" /><path clip-path="url(#clip200)" d="M121.293 1466.79 L126.177 1466.79 L126.177 1472.67 L121.293 1472.67 L121.293 1466.79 Z" fill="#000000" fill-rule="evenodd" fill-opacity="1" /><path clip-path="url(#clip200)" d="M140.39 1468.73 L156.709 1468.73 L156.709 1472.67 L134.765 1472.67 L134.765 1468.73 Q137.427 1465.98 142.01 1461.35 Q146.617 1456.7 147.797 1455.35 Q150.043 1452.83 150.922 1451.1 Q151.825 1449.34 151.825 1447.65 Q151.825 1444.89 149.88 1443.16 Q147.959 1441.42 144.857 1441.42 Q142.658 1441.42 140.205 1442.18 Q137.774 1442.95 134.996 1444.5 L134.996 1439.78 Q137.82 1438.64 140.274 1438.06 Q142.728 1437.48 144.765 1437.48 Q150.135 1437.48 153.33 1440.17 Q156.524 1442.85 156.524 1447.35 Q156.524 1449.48 155.714 1451.4 Q154.927 1453.29 152.82 1455.89 Q152.242 1456.56 149.14 1459.78 Q146.038 1462.97 140.39 1468.73 Z" fill="#000000" fill-rule="evenodd" fill-opacity="1" /><path clip-path="url(#clip200)" d="M50.9921 1112.21 L80.6679 1112.21 L80.6679 1116.15 L50.9921 1116.15 L50.9921 1112.21 Z" fill="#000000" fill-rule="evenodd" fill-opacity="1" /><path clip-path="url(#clip200)" d="M100.76 1097.56 Q97.1493 1097.56 95.3206 1101.13 Q93.515 1104.67 93.515 1111.8 Q93.515 1118.9 95.3206 1122.47 Q97.1493 1126.01 100.76 1126.01 Q104.395 1126.01 106.2 1122.47 Q108.029 1118.9 108.029 1111.8 Q108.029 1104.67 106.2 1101.13 Q104.395 1097.56 100.76 1097.56 M100.76 1093.86 Q106.571 1093.86 109.626 1098.46 Q112.705 1103.05 112.705 1111.8 Q112.705 1120.52 109.626 1125.13 Q106.571 1129.71 100.76 1129.71 Q94.9502 1129.71 91.8715 1125.13 Q88.816 1120.52 88.816 1111.8 Q88.816 1103.05 91.8715 1098.46 Q94.9502 1093.86 100.76 1093.86 Z" fill="#000000" fill-rule="evenodd" fill-opacity="1" /><path clip-path="url(#clip200)" d="M120.922 1123.16 L125.807 1123.16 L125.807 1129.04 L120.922 1129.04 L120.922 1123.16 Z" fill="#000000" fill-rule="evenodd" fill-opacity="1" /><path clip-path="url(#clip200)" d="M136.802 1125.11 L144.441 1125.11 L144.441 1098.74 L136.131 1100.41 L136.131 1096.15 L144.394 1094.48 L149.07 1094.48 L149.07 1125.11 L156.709 1125.11 L156.709 1129.04 L136.802 1129.04 L136.802 1125.11 Z" fill="#000000" fill-rule="evenodd" fill-opacity="1" /><path clip-path="url(#clip200)" d="M99.5335 753.935 Q95.9224 753.935 94.0937 757.5 Q92.2882 761.041 92.2882 768.171 Q92.2882 775.277 94.0937 778.842 Q95.9224 782.384 99.5335 782.384 Q103.168 782.384 104.973 778.842 Q106.802 775.277 106.802 768.171 Q106.802 761.041 104.973 757.5 Q103.168 753.935 99.5335 753.935 M99.5335 750.231 Q105.344 750.231 108.399 754.837 Q111.478 759.421 111.478 768.171 Q111.478 776.898 108.399 781.504 Q105.344 786.087 99.5335 786.087 Q93.7234 786.087 90.6447 781.504 Q87.5892 776.898 87.5892 768.171 Q87.5892 759.421 90.6447 754.837 Q93.7234 750.231 99.5335 750.231 Z" fill="#000000" fill-rule="evenodd" fill-opacity="1" /><path clip-path="url(#clip200)" d="M119.695 779.536 L124.58 779.536 L124.58 785.416 L119.695 785.416 L119.695 779.536 Z" fill="#000000" fill-rule="evenodd" fill-opacity="1" /><path clip-path="url(#clip200)" d="M144.765 753.935 Q141.154 753.935 139.325 757.5 Q137.519 761.041 137.519 768.171 Q137.519 775.277 139.325 778.842 Q141.154 782.384 144.765 782.384 Q148.399 782.384 150.205 778.842 Q152.033 775.277 152.033 768.171 Q152.033 761.041 150.205 757.5 Q148.399 753.935 144.765 753.935 M144.765 750.231 Q150.575 750.231 153.63 754.837 Q156.709 759.421 156.709 768.171 Q156.709 776.898 153.63 781.504 Q150.575 786.087 144.765 786.087 Q138.955 786.087 135.876 781.504 Q132.82 776.898 132.82 768.171 Q132.82 759.421 135.876 754.837 Q138.955 750.231 144.765 750.231 Z" fill="#000000" fill-rule="evenodd" fill-opacity="1" /><path clip-path="url(#clip200)" d="M100.76 410.308 Q97.1493 410.308 95.3206 413.873 Q93.515 417.414 93.515 424.544 Q93.515 431.65 95.3206 435.215 Q97.1493 438.757 100.76 438.757 Q104.395 438.757 106.2 435.215 Q108.029 431.65 108.029 424.544 Q108.029 417.414 106.2 413.873 Q104.395 410.308 100.76 410.308 M100.76 406.604 Q106.571 406.604 109.626 411.211 Q112.705 415.794 112.705 424.544 Q112.705 433.271 109.626 437.877 Q106.571 442.461 100.76 442.461 Q94.9502 442.461 91.8715 437.877 Q88.816 433.271 88.816 424.544 Q88.816 415.794 91.8715 411.211 Q94.9502 406.604 100.76 406.604 Z" fill="#000000" fill-rule="evenodd" fill-opacity="1" /><path clip-path="url(#clip200)" d="M120.922 435.91 L125.807 435.91 L125.807 441.789 L120.922 441.789 L120.922 435.91 Z" fill="#000000" fill-rule="evenodd" fill-opacity="1" /><path clip-path="url(#clip200)" d="M136.802 437.854 L144.441 437.854 L144.441 411.488 L136.131 413.155 L136.131 408.896 L144.394 407.229 L149.07 407.229 L149.07 437.854 L156.709 437.854 L156.709 441.789 L136.802 441.789 L136.802 437.854 Z" fill="#000000" fill-rule="evenodd" fill-opacity="1" /><path clip-path="url(#clip200)" d="M101.131 66.6811 Q97.5197 66.6811 95.691 70.2459 Q93.8854 73.7875 93.8854 80.9171 Q93.8854 88.0236 95.691 91.5884 Q97.5197 95.13 101.131 95.13 Q104.765 95.13 106.571 91.5884 Q108.399 88.0236 108.399 80.9171 Q108.399 73.7875 106.571 70.2459 Q104.765 66.6811 101.131 66.6811 M101.131 62.9774 Q106.941 62.9774 109.996 67.5839 Q113.075 72.1672 113.075 80.9171 Q113.075 89.6439 109.996 94.2504 Q106.941 98.8337 101.131 98.8337 Q95.3206 98.8337 92.2419 94.2504 Q89.1864 89.6439 89.1864 80.9171 Q89.1864 72.1672 92.2419 67.5839 Q95.3206 62.9774 101.131 62.9774 Z" fill="#000000" fill-rule="evenodd" fill-opacity="1" /><path clip-path="url(#clip200)" d="M121.293 92.2828 L126.177 92.2828 L126.177 98.1624 L121.293 98.1624 L121.293 92.2828 Z" fill="#000000" fill-rule="evenodd" fill-opacity="1" /><path clip-path="url(#clip200)" d="M140.39 94.2272 L156.709 94.2272 L156.709 98.1624 L134.765 98.1624 L134.765 94.2272 Q137.427 91.4726 142.01 86.843 Q146.617 82.1903 147.797 80.8477 Q150.043 78.3245 150.922 76.5884 Q151.825 74.8292 151.825 73.1394 Q151.825 70.3848 149.88 68.6487 Q147.959 66.9126 144.857 66.9126 Q142.658 66.9126 140.205 67.6765 Q137.774 68.4403 134.996 69.9913 L134.996 65.2691 Q137.82 64.1348 140.274 63.5561 Q142.728 62.9774 144.765 62.9774 Q150.135 62.9774 153.33 65.6626 Q156.524 68.3477 156.524 72.8385 Q156.524 74.9681 155.714 76.8894 Q154.927 78.7875 152.82 81.3801 Q152.242 82.0514 149.14 85.269 Q146.038 88.4634 140.39 94.2272 Z" fill="#000000" fill-rule="evenodd" fill-opacity="1" /><polyline clip-path="url(#clip202)" style="stroke:#009af9; stroke-linecap:butt; stroke-linejoin:round; stroke-width:12; stroke-opacity:1; fill:none" points="
  253.843,561.846 295.43,374.971 337.017,225.099 378.605,126.336 420.192,87.9763 461.779,113.631 503.367,200.884 544.954,341.525 586.541,522.317 628.129,726.245 
  669.716,934.115 711.303,1126.36 752.891,1284.9 794.478,1394.8 836.065,1445.72 877.653,1432.86 919.24,1357.45 960.827,1226.57 1002.41,1052.55 1044,851.759 
  1085.59,643.098 1127.18,446.204 1168.76,279.61 1210.35,158.993 1251.94,95.7067 1293.53,95.7067 1335.11,158.993 1376.7,279.61 1418.29,446.204 1459.88,643.098 
  1501.46,851.759 1543.05,1052.55 1584.64,1226.57 1626.22,1357.45 1667.81,1432.86 1709.4,1445.72 1750.99,1394.8 1792.57,1284.9 1834.16,1126.36 1875.75,934.115 
  1917.34,726.245 1958.92,522.317 2000.51,341.525 2042.1,200.884 2083.69,113.631 2125.27,87.9763 2166.86,126.336 2208.45,225.099 2250.04,374.971 2291.62,561.846 
  
  "/>
<polyline clip-path="url(#clip202)" style="stroke:#e26f46; stroke-linecap:butt; stroke-linejoin:round; stroke-width:12; stroke-opacity:1; fill:none" points="
  253.843,566.7 295.43,402.288 337.017,237.876 378.605,170.928 420.192,103.98 461.779,159.105 503.367,214.231 544.954,371.166 586.541,528.101 628.129,729.155 
  669.716,930.21 711.303,1101.47 752.891,1272.74 794.478,1351.26 836.065,1429.77 877.653,1386.68 919.24,1343.59 960.827,1194.72 1002.41,1045.86 1044,845.949 
  1085.59,646.04 1127.18,468.572 1168.76,291.104 1210.35,201.316 1251.94,111.528 1293.53,142.427 1335.11,173.326 1376.7,313.552 1418.29,453.779 1459.88,651.785 
  1501.46,849.792 1543.05,1032.79 1584.64,1215.79 1626.22,1316.51 1667.81,1417.22 1709.4,1398.64 1750.99,1380.05 1792.57,1248.99 1834.16,1117.94 1875.75,922.583 
  1917.34,727.231 1958.92,539.397 2000.51,351.563 2042.1,240.297 2083.69,129.03 2125.27,135.234 2166.86,141.437 2208.45,262.829 2250.04,384.222 2291.62,576.179 
  
  "/>
<path clip-path="url(#clip200)" d="
M1988.32 250.738 L2280.75 250.738 L2280.75 95.2176 L1988.32 95.2176  Z
  " fill="#ffffff" fill-rule="evenodd" fill-opacity="1"/>
<polyline clip-path="url(#clip200)" style="stroke:#000000; stroke-linecap:butt; stroke-linejoin:round; stroke-width:4; stroke-opacity:1; fill:none" points="
  1988.32,250.738 2280.75,250.738 2280.75,95.2176 1988.32,95.2176 1988.32,250.738 
  "/>
<polyline clip-path="url(#clip200)" style="stroke:#009af9; stroke-linecap:butt; stroke-linejoin:round; stroke-width:4; stroke-opacity:1; fill:none" points="
  2012.32,147.058 2156.32,147.058 
  "/>
<path clip-path="url(#clip200)" d="M2194.17 166.745 Q2192.36 171.375 2190.65 172.787 Q2188.93 174.199 2186.06 174.199 L2182.66 174.199 L2182.66 170.634 L2185.16 170.634 Q2186.92 170.634 2187.89 169.8 Q2188.86 168.967 2190.05 165.865 L2190.81 163.921 L2180.32 138.412 L2184.84 138.412 L2192.94 158.689 L2201.04 138.412 L2205.55 138.412 L2194.17 166.745 Z" fill="#000000" fill-rule="evenodd" fill-opacity="1" /><path clip-path="url(#clip200)" d="M2212.85 160.402 L2220.48 160.402 L2220.48 134.037 L2212.17 135.703 L2212.17 131.444 L2220.44 129.778 L2225.11 129.778 L2225.11 160.402 L2232.75 160.402 L2232.75 164.338 L2212.85 164.338 L2212.85 160.402 Z" fill="#000000" fill-rule="evenodd" fill-opacity="1" /><polyline clip-path="url(#clip200)" style="stroke:#e26f46; stroke-linecap:butt; stroke-linejoin:round; stroke-width:4; stroke-opacity:1; fill:none" points="
  2012.32,198.898 2156.32,198.898 
  "/>
<path clip-path="url(#clip200)" d="M2194.17 218.585 Q2192.36 223.215 2190.65 224.627 Q2188.93 226.039 2186.06 226.039 L2182.66 226.039 L2182.66 222.474 L2185.16 222.474 Q2186.92 222.474 2187.89 221.64 Q2188.86 220.807 2190.05 217.705 L2190.81 215.761 L2180.32 190.252 L2184.84 190.252 L2192.94 210.529 L2201.04 190.252 L2205.55 190.252 L2194.17 218.585 Z" fill="#000000" fill-rule="evenodd" fill-opacity="1" /><path clip-path="url(#clip200)" d="M2216.06 212.242 L2232.38 212.242 L2232.38 216.178 L2210.44 216.178 L2210.44 212.242 Q2213.1 209.488 2217.68 204.858 Q2222.29 200.205 2223.47 198.863 Q2225.72 196.34 2226.6 194.604 Q2227.5 192.844 2227.5 191.155 Q2227.5 188.4 2225.55 186.664 Q2223.63 184.928 2220.53 184.928 Q2218.33 184.928 2215.88 185.692 Q2213.45 186.455 2210.67 188.006 L2210.67 183.284 Q2213.49 182.15 2215.95 181.571 Q2218.4 180.993 2220.44 180.993 Q2225.81 180.993 2229 183.678 Q2232.2 186.363 2232.2 190.854 Q2232.2 192.983 2231.39 194.905 Q2230.6 196.803 2228.49 199.395 Q2227.92 200.067 2224.81 203.284 Q2221.71 206.479 2216.06 212.242 Z" fill="#000000" fill-rule="evenodd" fill-opacity="1" /></svg>
