<?xml version="1.0" encoding="utf-8"?>
<svg xmlns="http://www.w3.org/2000/svg" xmlns:xlink="http://www.w3.org/1999/xlink" width="600" height="400" viewBox="0 0 2400 1600">
<defs>
  <clipPath id="clip840">
    <rect x="0" y="0" width="2400" height="1600"/>
  </clipPath>
</defs>
<path clip-path="url(#clip840)" d="
M0 1600 L2400 1600 L2400 0 L0 0  Z
  " fill="#ffffff" fill-rule="evenodd" fill-opacity="1"/>
<defs>
  <clipPath id="clip841">
    <rect x="480" y="0" width="1681" height="1600"/>
  </clipPath>
</defs>
<path clip-path="url(#clip840)" d="
M288.311 1410.9 L2352.76 1410.9 L2352.76 47.2441 L288.311 47.2441  Z
  " fill="#ffffff" fill-rule="evenodd" fill-opacity="1"/>
<defs>
  <clipPath id="clip842">
    <rect x="288" y="47" width="2065" height="1365"/>
  </clipPath>
</defs>
<polyline clip-path="url(#clip842)" style="stroke:#000000; stroke-linecap:butt; stroke-linejoin:round; stroke-width:2; stroke-opacity:0.1; fill:none" points="
  424.401,1410.9 424.401,47.2441 
  "/>
<polyline clip-path="url(#clip842)" style="stroke:#000000; stroke-linecap:butt; stroke-linejoin:round; stroke-width:2; stroke-opacity:0.1; fill:none" points="
  1404.67,1410.9 1404.67,47.2441 
  "/>
<polyline clip-path="url(#clip840)" style="stroke:#000000; stroke-linecap:butt; stroke-linejoin:round; stroke-width:4; stroke-opacity:1; fill:none" points="
  288.311,1410.9 2352.76,1410.9 
  "/>
<polyline clip-path="url(#clip840)" style="stroke:#000000; stroke-linecap:butt; stroke-linejoin:round; stroke-width:4; stroke-opacity:1; fill:none" points="
  424.401,1410.9 424.401,1392 
  "/>
<polyline clip-path="url(#clip840)" style="stroke:#000000; stroke-linecap:butt; stroke-linejoin:round; stroke-width:4; stroke-opacity:1; fill:none" points="
  1404.67,1410.9 1404.67,1392 
  "/>
<path clip-path="url(#clip840)" d="M361.765 1485.02 L369.404 1485.02 L369.404 1458.66 L361.094 1460.32 L361.094 1456.06 L369.358 1454.4 L374.034 1454.4 L374.034 1485.02 L381.672 1485.02 L381.672 1488.96 L361.765 1488.96 L361.765 1485.02 Z" fill="#000000" fill-rule="evenodd" fill-opacity="1" /><path clip-path="url(#clip840)" d="M401.117 1457.48 Q397.506 1457.48 395.677 1461.04 Q393.871 1464.58 393.871 1471.71 Q393.871 1478.82 395.677 1482.38 Q397.506 1485.92 401.117 1485.92 Q404.751 1485.92 406.557 1482.38 Q408.385 1478.82 408.385 1471.71 Q408.385 1464.58 406.557 1461.04 Q404.751 1457.48 401.117 1457.48 M401.117 1453.77 Q406.927 1453.77 409.982 1458.38 Q413.061 1462.96 413.061 1471.71 Q413.061 1480.44 409.982 1485.04 Q406.927 1489.63 401.117 1489.63 Q395.307 1489.63 392.228 1485.04 Q389.172 1480.44 389.172 1471.71 Q389.172 1462.96 392.228 1458.38 Q395.307 1453.77 401.117 1453.77 Z" fill="#000000" fill-rule="evenodd" fill-opacity="1" /><path clip-path="url(#clip840)" d="M413.061 1447.87 L437.173 1447.87 L437.173 1451.07 L413.061 1451.07 L413.061 1447.87 Z" fill="#000000" fill-rule="evenodd" fill-opacity="1" /><path clip-path="url(#clip840)" d="M446.031 1458.35 L452.238 1458.35 L452.238 1436.93 L445.486 1438.28 L445.486 1434.82 L452.2 1433.47 L455.999 1433.47 L455.999 1458.35 L462.206 1458.35 L462.206 1461.55 L446.031 1461.55 L446.031 1458.35 Z" fill="#000000" fill-rule="evenodd" fill-opacity="1" /><path clip-path="url(#clip840)" d="M478.004 1435.97 Q475.07 1435.97 473.585 1438.86 Q472.118 1441.74 472.118 1447.53 Q472.118 1453.31 473.585 1456.2 Q475.07 1459.08 478.004 1459.08 Q480.957 1459.08 482.424 1456.2 Q483.91 1453.31 483.91 1447.53 Q483.91 1441.74 482.424 1438.86 Q480.957 1435.97 478.004 1435.97 M478.004 1432.96 Q482.725 1432.96 485.208 1436.7 Q487.709 1440.43 487.709 1447.53 Q487.709 1454.62 485.208 1458.37 Q482.725 1462.09 478.004 1462.09 Q473.284 1462.09 470.782 1458.37 Q468.3 1454.62 468.3 1447.53 Q468.3 1440.43 470.782 1436.7 Q473.284 1432.96 478.004 1432.96 Z" fill="#000000" fill-rule="evenodd" fill-opacity="1" /><path clip-path="url(#clip840)" d="M1369.65 1485.02 L1377.29 1485.02 L1377.29 1458.66 L1368.98 1460.32 L1368.98 1456.06 L1377.24 1454.4 L1381.92 1454.4 L1381.92 1485.02 L1389.56 1485.02 L1389.56 1488.96 L1369.65 1488.96 L1369.65 1485.02 Z" fill="#000000" fill-rule="evenodd" fill-opacity="1" /><path clip-path="url(#clip840)" d="M1409 1457.48 Q1405.39 1457.48 1403.56 1461.04 Q1401.76 1464.58 1401.76 1471.71 Q1401.76 1478.82 1403.56 1482.38 Q1405.39 1485.92 1409 1485.92 Q1412.64 1485.92 1414.44 1482.38 Q1416.27 1478.82 1416.27 1471.71 Q1416.27 1464.58 1414.44 1461.04 Q1412.64 1457.48 1409 1457.48 M1409 1453.77 Q1414.81 1453.77 1417.87 1458.38 Q1420.95 1462.96 1420.95 1471.71 Q1420.95 1480.44 1417.87 1485.04 Q1414.81 1489.63 1409 1489.63 Q1403.19 1489.63 1400.11 1485.04 Q1397.06 1480.44 1397.06 1471.71 Q1397.06 1462.96 1400.11 1458.38 Q1403.19 1453.77 1409 1453.77 Z" fill="#000000" fill-rule="evenodd" fill-opacity="1" /><path clip-path="url(#clip840)" d="M1430.65 1435.97 Q1427.72 1435.97 1426.23 1438.86 Q1424.76 1441.74 1424.76 1447.53 Q1424.76 1453.31 1426.23 1456.2 Q1427.72 1459.08 1430.65 1459.08 Q1433.6 1459.08 1435.07 1456.2 Q1436.56 1453.31 1436.56 1447.53 Q1436.56 1441.74 1435.07 1438.86 Q1433.6 1435.97 1430.65 1435.97 M1430.65 1432.96 Q1435.37 1432.96 1437.85 1436.7 Q1440.36 1440.43 1440.36 1447.53 Q1440.36 1454.62 1437.85 1458.37 Q1435.37 1462.09 1430.65 1462.09 Q1425.93 1462.09 1423.43 1458.37 Q1420.95 1454.62 1420.95 1447.53 Q1420.95 1440.43 1423.43 1436.7 Q1425.93 1432.96 1430.65 1432.96 Z" fill="#000000" fill-rule="evenodd" fill-opacity="1" /><path clip-path="url(#clip840)" d="M1283.69 1539.91 L1283.69 1545.38 Q1281.21 1544.01 1278.69 1543.34 Q1276.21 1542.64 1273.67 1542.64 Q1267.97 1542.64 1264.82 1546.27 Q1261.67 1549.87 1261.67 1556.39 Q1261.67 1562.92 1264.82 1566.55 Q1267.97 1570.14 1273.67 1570.14 Q1276.21 1570.14 1278.69 1569.47 Q1281.21 1568.77 1283.69 1567.41 L1283.69 1572.82 Q1281.24 1573.96 1278.6 1574.54 Q1275.99 1575.11 1273.03 1575.11 Q1264.98 1575.11 1260.23 1570.05 Q1255.49 1564.99 1255.49 1556.39 Q1255.49 1547.67 1260.27 1542.68 Q1265.07 1537.68 1273.41 1537.68 Q1276.12 1537.68 1278.69 1538.25 Q1281.27 1538.79 1283.69 1539.91 Z" fill="#000000" fill-rule="evenodd" fill-opacity="1" /><path clip-path="url(#clip840)" d="M1307.69 1542.64 Q1302.98 1542.64 1300.24 1546.34 Q1297.51 1550 1297.51 1556.39 Q1297.51 1562.79 1300.21 1566.48 Q1302.95 1570.14 1307.69 1570.14 Q1312.37 1570.14 1315.11 1566.45 Q1317.84 1562.76 1317.84 1556.39 Q1317.84 1550.06 1315.11 1546.37 Q1312.37 1542.64 1307.69 1542.64 M1307.69 1537.68 Q1315.33 1537.68 1319.69 1542.64 Q1324.05 1547.61 1324.05 1556.39 Q1324.05 1565.15 1319.69 1570.14 Q1315.33 1575.11 1307.69 1575.11 Q1300.02 1575.11 1295.66 1570.14 Q1291.33 1565.15 1291.33 1556.39 Q1291.33 1547.61 1295.66 1542.64 Q1300.02 1537.68 1307.69 1537.68 Z" fill="#000000" fill-rule="evenodd" fill-opacity="1" /><path clip-path="url(#clip840)" d="M1356.48 1539.59 L1356.48 1545.13 Q1354 1543.85 1351.33 1543.22 Q1348.65 1542.58 1345.79 1542.58 Q1341.43 1542.58 1339.23 1543.92 Q1337.07 1545.25 1337.07 1547.93 Q1337.07 1549.96 1338.63 1551.14 Q1340.19 1552.29 1344.9 1553.34 L1346.9 1553.78 Q1353.14 1555.12 1355.75 1557.57 Q1358.39 1559.99 1358.39 1564.35 Q1358.39 1569.32 1354.45 1572.21 Q1350.53 1575.11 1343.66 1575.11 Q1340.79 1575.11 1337.67 1574.54 Q1334.59 1573.99 1331.15 1572.88 L1331.15 1566.83 Q1334.39 1568.52 1337.55 1569.38 Q1340.7 1570.21 1343.78 1570.21 Q1347.92 1570.21 1350.15 1568.81 Q1352.38 1567.37 1352.38 1564.8 Q1352.38 1562.41 1350.75 1561.14 Q1349.16 1559.86 1343.72 1558.68 L1341.68 1558.21 Q1336.24 1557.06 1333.82 1554.71 Q1331.4 1552.32 1331.4 1548.18 Q1331.4 1543.15 1334.97 1540.42 Q1338.53 1537.68 1345.09 1537.68 Q1348.34 1537.68 1351.2 1538.16 Q1354.06 1538.63 1356.48 1539.59 Z" fill="#000000" fill-rule="evenodd" fill-opacity="1" /><path clip-path="url(#clip840)" d="M1373.51 1528.42 L1373.51 1538.54 L1385.57 1538.54 L1385.57 1543.09 L1373.51 1543.09 L1373.51 1562.44 Q1373.51 1566.8 1374.69 1568.04 Q1375.9 1569.28 1379.56 1569.28 L1385.57 1569.28 L1385.57 1574.19 L1379.56 1574.19 Q1372.78 1574.19 1370.2 1571.67 Q1367.62 1569.12 1367.62 1562.44 L1367.62 1543.09 L1363.33 1543.09 L1363.33 1538.54 L1367.62 1538.54 L1367.62 1528.42 L1373.51 1528.42 Z" fill="#000000" fill-rule="evenodd" fill-opacity="1" /><polyline clip-path="url(#clip842)" style="stroke:#000000; stroke-linecap:butt; stroke-linejoin:round; stroke-width:2; stroke-opacity:0.1; fill:none" points="
  288.311,997.622 2352.76,997.622 
  "/>
<polyline clip-path="url(#clip842)" style="stroke:#000000; stroke-linecap:butt; stroke-linejoin:round; stroke-width:2; stroke-opacity:0.1; fill:none" points="
  288.311,511.992 2352.76,511.992 
  "/>
<polyline clip-path="url(#clip840)" style="stroke:#000000; stroke-linecap:butt; stroke-linejoin:round; stroke-width:4; stroke-opacity:1; fill:none" points="
  288.311,1410.9 288.311,47.2441 
  "/>
<polyline clip-path="url(#clip840)" style="stroke:#000000; stroke-linecap:butt; stroke-linejoin:round; stroke-width:4; stroke-opacity:1; fill:none" points="
  288.311,997.622 307.208,997.622 
  "/>
<polyline clip-path="url(#clip840)" style="stroke:#000000; stroke-linecap:butt; stroke-linejoin:round; stroke-width:4; stroke-opacity:1; fill:none" points="
  288.311,511.992 307.208,511.992 
  "/>
<path clip-path="url(#clip840)" d="M114.931 1017.41 L122.57 1017.41 L122.57 991.049 L114.26 992.715 L114.26 988.456 L122.524 986.789 L127.2 986.789 L127.2 1017.41 L134.839 1017.41 L134.839 1021.35 L114.931 1021.35 L114.931 1017.41 Z" fill="#000000" fill-rule="evenodd" fill-opacity="1" /><path clip-path="url(#clip840)" d="M154.283 989.868 Q150.672 989.868 148.843 993.433 Q147.038 996.975 147.038 1004.1 Q147.038 1011.21 148.843 1014.78 Q150.672 1018.32 154.283 1018.32 Q157.917 1018.32 159.723 1014.78 Q161.552 1011.21 161.552 1004.1 Q161.552 996.975 159.723 993.433 Q157.917 989.868 154.283 989.868 M154.283 986.164 Q160.093 986.164 163.149 990.771 Q166.227 995.354 166.227 1004.1 Q166.227 1012.83 163.149 1017.44 Q160.093 1022.02 154.283 1022.02 Q148.473 1022.02 145.394 1017.44 Q142.339 1012.83 142.339 1004.1 Q142.339 995.354 145.394 990.771 Q148.473 986.164 154.283 986.164 Z" fill="#000000" fill-rule="evenodd" fill-opacity="1" /><path clip-path="url(#clip840)" d="M166.227 980.266 L190.339 980.266 L190.339 983.463 L166.227 983.463 L166.227 980.266 Z" fill="#000000" fill-rule="evenodd" fill-opacity="1" /><path clip-path="url(#clip840)" d="M201.812 990.742 L215.071 990.742 L215.071 993.939 L197.241 993.939 L197.241 990.742 Q199.404 988.504 203.128 984.742 Q206.871 980.962 207.83 979.871 Q209.655 977.821 210.369 976.41 Q211.103 974.981 211.103 973.608 Q211.103 971.37 209.523 969.959 Q207.962 968.548 205.442 968.548 Q203.655 968.548 201.661 969.169 Q199.686 969.79 197.43 971.05 L197.43 967.213 Q199.724 966.292 201.718 965.821 Q203.711 965.351 205.366 965.351 Q209.73 965.351 212.325 967.533 Q214.921 969.715 214.921 973.363 Q214.921 975.094 214.263 976.655 Q213.623 978.197 211.912 980.303 Q211.441 980.849 208.921 983.463 Q206.401 986.059 201.812 990.742 Z" fill="#000000" fill-rule="evenodd" fill-opacity="1" /><path clip-path="url(#clip840)" d="M223.046 989.162 L227.014 989.162 L227.014 993.939 L223.046 993.939 L223.046 989.162 Z" fill="#000000" fill-rule="evenodd" fill-opacity="1" /><path clip-path="url(#clip840)" d="M235.327 965.859 L250.242 965.859 L250.242 969.056 L238.807 969.056 L238.807 975.94 Q239.634 975.658 240.462 975.526 Q241.289 975.376 242.117 975.376 Q246.819 975.376 249.565 977.952 Q252.311 980.529 252.311 984.93 Q252.311 989.463 249.489 991.983 Q246.668 994.484 241.534 994.484 Q239.766 994.484 237.923 994.183 Q236.098 993.883 234.142 993.281 L234.142 989.463 Q235.835 990.384 237.641 990.836 Q239.446 991.287 241.459 991.287 Q244.712 991.287 246.612 989.576 Q248.511 987.864 248.511 984.93 Q248.511 981.996 246.612 980.285 Q244.712 978.573 241.459 978.573 Q239.935 978.573 238.412 978.912 Q236.907 979.25 235.327 979.965 L235.327 965.859 Z" fill="#000000" fill-rule="evenodd" fill-opacity="1" /><path clip-path="url(#clip840)" d="M144.855 531.784 L152.493 531.784 L152.493 505.419 L144.183 507.085 L144.183 502.826 L152.447 501.159 L157.123 501.159 L157.123 531.784 L164.762 531.784 L164.762 535.719 L144.855 535.719 L144.855 531.784 Z" fill="#000000" fill-rule="evenodd" fill-opacity="1" /><path clip-path="url(#clip840)" d="M184.206 504.238 Q180.595 504.238 178.766 507.803 Q176.961 511.345 176.961 518.474 Q176.961 525.581 178.766 529.145 Q180.595 532.687 184.206 532.687 Q187.84 532.687 189.646 529.145 Q191.475 525.581 191.475 518.474 Q191.475 511.345 189.646 507.803 Q187.84 504.238 184.206 504.238 M184.206 500.534 Q190.016 500.534 193.072 505.141 Q196.151 509.724 196.151 518.474 Q196.151 527.201 193.072 531.807 Q190.016 536.391 184.206 536.391 Q178.396 536.391 175.317 531.807 Q172.262 527.201 172.262 518.474 Q172.262 509.724 175.317 505.141 Q178.396 500.534 184.206 500.534 Z" fill="#000000" fill-rule="evenodd" fill-opacity="1" /><path clip-path="url(#clip840)" d="M205.855 482.731 Q202.921 482.731 201.436 485.627 Q199.969 488.504 199.969 494.297 Q199.969 500.071 201.436 502.968 Q202.921 505.845 205.855 505.845 Q208.808 505.845 210.275 502.968 Q211.761 500.071 211.761 494.297 Q211.761 488.504 210.275 485.627 Q208.808 482.731 205.855 482.731 M205.855 479.721 Q210.576 479.721 213.059 483.464 Q215.56 487.188 215.56 494.297 Q215.56 501.388 213.059 505.131 Q210.576 508.855 205.855 508.855 Q201.135 508.855 198.633 505.131 Q196.151 501.388 196.151 494.297 Q196.151 487.188 198.633 483.464 Q201.135 479.721 205.855 479.721 Z" fill="#000000" fill-rule="evenodd" fill-opacity="1" /><path clip-path="url(#clip840)" d="M222.237 503.532 L226.205 503.532 L226.205 508.309 L222.237 508.309 L222.237 503.532 Z" fill="#000000" fill-rule="evenodd" fill-opacity="1" /><path clip-path="url(#clip840)" d="M242.606 482.731 Q239.672 482.731 238.186 485.627 Q236.719 488.504 236.719 494.297 Q236.719 500.071 238.186 502.968 Q239.672 505.845 242.606 505.845 Q245.559 505.845 247.026 502.968 Q248.511 500.071 248.511 494.297 Q248.511 488.504 247.026 485.627 Q245.559 482.731 242.606 482.731 M242.606 479.721 Q247.327 479.721 249.809 483.464 Q252.311 487.188 252.311 494.297 Q252.311 501.388 249.809 505.131 Q247.327 508.855 242.606 508.855 Q237.885 508.855 235.384 505.131 Q232.901 501.388 232.901 494.297 Q232.901 487.188 235.384 483.464 Q237.885 479.721 242.606 479.721 Z" fill="#000000" fill-rule="evenodd" fill-opacity="1" /><path clip-path="url(#clip840)" d="M44.7161 773.137 L47.5806 773.137 L47.5806 800.064 Q53.6281 799.682 56.8109 796.435 Q59.9619 793.157 59.9619 787.332 Q59.9619 783.959 59.1344 780.808 Q58.3069 777.625 56.6518 774.506 L62.1899 774.506 Q63.5267 777.657 64.227 780.967 Q64.9272 784.277 64.9272 787.683 Q64.9272 796.213 59.9619 801.21 Q54.9967 806.175 46.5303 806.175 Q37.7774 806.175 32.6531 801.464 Q27.4968 796.722 27.4968 788.701 Q27.4968 781.508 32.1438 777.338 Q36.7589 773.137 44.7161 773.137 M42.9973 778.993 Q38.1912 779.057 35.3266 781.699 Q32.4621 784.309 32.4621 788.637 Q32.4621 793.539 35.2312 796.499 Q38.0002 799.427 43.0292 799.873 L42.9973 778.993 Z" fill="#000000" fill-rule="evenodd" fill-opacity="1" /><path clip-path="url(#clip840)" d="M33.8307 742.868 Q33.2578 743.855 33.0032 745.032 Q32.7167 746.178 32.7167 747.579 Q32.7167 752.544 35.9632 755.218 Q39.1779 757.859 45.2253 757.859 L64.0042 757.859 L64.0042 763.748 L28.3562 763.748 L28.3562 757.859 L33.8944 757.859 Q30.6479 756.013 29.0883 753.053 Q27.4968 750.093 27.4968 745.86 Q27.4968 745.255 27.5923 744.523 Q27.656 743.791 27.8151 742.9 L33.8307 742.868 Z" fill="#000000" fill-rule="evenodd" fill-opacity="1" /><path clip-path="url(#clip840)" d="M33.8307 717.214 Q33.2578 718.201 33.0032 719.379 Q32.7167 720.524 32.7167 721.925 Q32.7167 726.89 35.9632 729.564 Q39.1779 732.205 45.2253 732.205 L64.0042 732.205 L64.0042 738.094 L28.3562 738.094 L28.3562 732.205 L33.8944 732.205 Q30.6479 730.359 29.0883 727.399 Q27.4968 724.439 27.4968 720.206 Q27.4968 719.601 27.5923 718.869 Q27.656 718.137 27.8151 717.246 L33.8307 717.214 Z" fill="#000000" fill-rule="evenodd" fill-opacity="1" /><path clip-path="url(#clip840)" d="M32.4621 698.69 Q32.4621 703.401 36.1542 706.138 Q39.8145 708.875 46.212 708.875 Q52.6095 708.875 56.3017 706.17 Q59.9619 703.432 59.9619 698.69 Q59.9619 694.011 56.2698 691.274 Q52.5777 688.537 46.212 688.537 Q39.8781 688.537 36.186 691.274 Q32.4621 694.011 32.4621 698.69 M27.4968 698.69 Q27.4968 691.051 32.4621 686.691 Q37.4273 682.33 46.212 682.33 Q54.9649 682.33 59.9619 686.691 Q64.9272 691.051 64.9272 698.69 Q64.9272 706.361 59.9619 710.721 Q54.9649 715.05 46.212 715.05 Q37.4273 715.05 32.4621 710.721 Q27.4968 706.361 27.4968 698.69 Z" fill="#000000" fill-rule="evenodd" fill-opacity="1" /><path clip-path="url(#clip840)" d="M33.8307 651.966 Q33.2578 652.952 33.0032 654.13 Q32.7167 655.276 32.7167 656.676 Q32.7167 661.642 35.9632 664.315 Q39.1779 666.957 45.2253 666.957 L64.0042 666.957 L64.0042 672.845 L28.3562 672.845 L28.3562 666.957 L33.8944 666.957 Q30.6479 665.111 29.0883 662.151 Q27.4968 659.191 27.4968 654.958 Q27.4968 654.353 27.5923 653.621 Q27.656 652.889 27.8151 651.998 L33.8307 651.966 Z" fill="#000000" fill-rule="evenodd" fill-opacity="1" /><polyline clip-path="url(#clip842)" style="stroke:#009af9; stroke-linecap:butt; stroke-linejoin:round; stroke-width:12; stroke-opacity:1; fill:none" points="
  346.738,85.838 523.792,202.789 700.846,319.741 877.899,436.692 1054.95,553.643 1232.01,670.595 1409.06,787.546 1586.11,904.497 1763.17,1021.45 1940.22,1138.4 
  2117.27,1255.35 2294.33,1372.3 
  "/>
<path clip-path="url(#clip840)" d="
M2002.13 196.379 L2283.94 196.379 L2283.94 92.6992 L2002.13 92.6992  Z
  " fill="#ffffff" fill-rule="evenodd" fill-opacity="1"/>
<polyline clip-path="url(#clip840)" style="stroke:#000000; stroke-linecap:butt; stroke-linejoin:round; stroke-width:4; stroke-opacity:1; fill:none" points="
  2002.13,196.379 2283.94,196.379 2283.94,92.6992 2002.13,92.6992 2002.13,196.379 
  "/>
<polyline clip-path="url(#clip840)" style="stroke:#009af9; stroke-linecap:butt; stroke-linejoin:round; stroke-width:4; stroke-opacity:1; fill:none" points="
  2025.07,144.539 2162.7,144.539 
  "/>
<path clip-path="url(#clip840)" d="M2199.48 164.227 Q2197.67 168.856 2195.96 170.268 Q2194.25 171.68 2191.37 171.68 L2187.97 171.68 L2187.97 168.115 L2190.47 168.115 Q2192.23 168.115 2193.2 167.282 Q2194.18 166.449 2195.36 163.347 L2196.12 161.403 L2185.63 135.893 L2190.15 135.893 L2198.25 156.171 L2206.35 135.893 L2210.87 135.893 L2199.48 164.227 Z" fill="#000000" fill-rule="evenodd" fill-opacity="1" /><path clip-path="url(#clip840)" d="M2218.16 157.884 L2225.8 157.884 L2225.8 131.518 L2217.49 133.185 L2217.49 128.926 L2225.75 127.259 L2230.43 127.259 L2230.43 157.884 L2238.06 157.884 L2238.06 161.819 L2218.16 161.819 L2218.16 157.884 Z" fill="#000000" fill-rule="evenodd" fill-opacity="1" /></svg>
