<?xml version="1.0" encoding="utf-8"?>
<svg xmlns="http://www.w3.org/2000/svg" xmlns:xlink="http://www.w3.org/1999/xlink" width="600" height="400" viewBox="0 0 2400 1600">
<defs>
  <clipPath id="clip940">
    <rect x="0" y="0" width="2400" height="1600"/>
  </clipPath>
</defs>
<path clip-path="url(#clip940)" d="
M0 1600 L2400 1600 L2400 0 L0 0  Z
  " fill="#ffffff" fill-rule="evenodd" fill-opacity="1"/>
<defs>
  <clipPath id="clip941">
    <rect x="480" y="0" width="1681" height="1600"/>
  </clipPath>
</defs>
<path clip-path="url(#clip940)" d="
M156.598 1486.45 L2352.76 1486.45 L2352.76 47.2441 L156.598 47.2441  Z
  " fill="#ffffff" fill-rule="evenodd" fill-opacity="1"/>
<defs>
  <clipPath id="clip942">
    <rect x="156" y="47" width="2197" height="1440"/>
  </clipPath>
</defs>
<polyline clip-path="url(#clip942)" style="stroke:#000000; stroke-linecap:butt; stroke-linejoin:round; stroke-width:2; stroke-opacity:0.1; fill:none" points="
  218.754,1486.45 218.754,47.2441 
  "/>
<polyline clip-path="url(#clip942)" style="stroke:#000000; stroke-linecap:butt; stroke-linejoin:round; stroke-width:2; stroke-opacity:0.1; fill:none" points="
  564.061,1486.45 564.061,47.2441 
  "/>
<polyline clip-path="url(#clip942)" style="stroke:#000000; stroke-linecap:butt; stroke-linejoin:round; stroke-width:2; stroke-opacity:0.1; fill:none" points="
  909.369,1486.45 909.369,47.2441 
  "/>
<polyline clip-path="url(#clip942)" style="stroke:#000000; stroke-linecap:butt; stroke-linejoin:round; stroke-width:2; stroke-opacity:0.1; fill:none" points="
  1254.68,1486.45 1254.68,47.2441 
  "/>
<polyline clip-path="url(#clip942)" style="stroke:#000000; stroke-linecap:butt; stroke-linejoin:round; stroke-width:2; stroke-opacity:0.1; fill:none" points="
  1599.98,1486.45 1599.98,47.2441 
  "/>
<polyline clip-path="url(#clip942)" style="stroke:#000000; stroke-linecap:butt; stroke-linejoin:round; stroke-width:2; stroke-opacity:0.1; fill:none" points="
  1945.29,1486.45 1945.29,47.2441 
  "/>
<polyline clip-path="url(#clip942)" style="stroke:#000000; stroke-linecap:butt; stroke-linejoin:round; stroke-width:2; stroke-opacity:0.1; fill:none" points="
  2290.6,1486.45 2290.6,47.2441 
  "/>
<polyline clip-path="url(#clip940)" style="stroke:#000000; stroke-linecap:butt; stroke-linejoin:round; stroke-width:4; stroke-opacity:1; fill:none" points="
  156.598,1486.45 2352.76,1486.45 
  "/>
<polyline clip-path="url(#clip940)" style="stroke:#000000; stroke-linecap:butt; stroke-linejoin:round; stroke-width:4; stroke-opacity:1; fill:none" points="
  218.754,1486.45 218.754,1467.55 
  "/>
<polyline clip-path="url(#clip940)" style="stroke:#000000; stroke-linecap:butt; stroke-linejoin:round; stroke-width:4; stroke-opacity:1; fill:none" points="
  564.061,1486.45 564.061,1467.55 
  "/>
<polyline clip-path="url(#clip940)" style="stroke:#000000; stroke-linecap:butt; stroke-linejoin:round; stroke-width:4; stroke-opacity:1; fill:none" points="
  909.369,1486.45 909.369,1467.55 
  "/>
<polyline clip-path="url(#clip940)" style="stroke:#000000; stroke-linecap:butt; stroke-linejoin:round; stroke-width:4; stroke-opacity:1; fill:none" points="
  1254.68,1486.45 1254.68,1467.55 
  "/>
<polyline clip-path="url(#clip940)" style="stroke:#000000; stroke-linecap:butt; stroke-linejoin:round; stroke-width:4; stroke-opacity:1; fill:none" points="
  1599.98,1486.45 1599.98,1467.55 
  "/>
<polyline clip-path="url(#clip940)" style="stroke:#000000; stroke-linecap:butt; stroke-linejoin:round; stroke-width:4; stroke-opacity:1; fill:none" points="
  1945.29,1486.45 1945.29,1467.55 
  "/>
<polyline clip-path="url(#clip940)" style="stroke:#000000; stroke-linecap:butt; stroke-linejoin:round; stroke-width:4; stroke-opacity:1; fill:none" points="
  2290.6,1486.45 2290.6,1467.55 
  "/>
<path clip-path="url(#clip940)" d="M188.221 1532.02 L217.897 1532.02 L217.897 1535.95 L188.221 1535.95 L188.221 1532.02 Z" fill="#000000" fill-rule="evenodd" fill-opacity="1" /><path clip-path="url(#clip940)" d="M242.156 1530.21 Q245.513 1530.93 247.388 1533.2 Q249.286 1535.47 249.286 1538.8 Q249.286 1543.92 245.767 1546.72 Q242.249 1549.52 235.767 1549.52 Q233.592 1549.52 231.277 1549.08 Q228.985 1548.66 226.531 1547.81 L226.531 1543.29 Q228.476 1544.43 230.791 1545.01 Q233.105 1545.58 235.629 1545.58 Q240.027 1545.58 242.318 1543.85 Q244.633 1542.11 244.633 1538.8 Q244.633 1535.75 242.48 1534.03 Q240.351 1532.3 236.531 1532.3 L232.504 1532.3 L232.504 1528.45 L236.717 1528.45 Q240.166 1528.45 241.994 1527.09 Q243.823 1525.7 243.823 1523.11 Q243.823 1520.45 241.925 1519.03 Q240.05 1517.6 236.531 1517.6 Q234.61 1517.6 232.411 1518.01 Q230.212 1518.43 227.573 1519.31 L227.573 1515.14 Q230.235 1514.4 232.55 1514.03 Q234.888 1513.66 236.948 1513.66 Q242.272 1513.66 245.374 1516.09 Q248.476 1518.5 248.476 1522.62 Q248.476 1525.49 246.832 1527.48 Q245.189 1529.45 242.156 1530.21 Z" fill="#000000" fill-rule="evenodd" fill-opacity="1" /><path clip-path="url(#clip940)" d="M534.004 1532.02 L563.68 1532.02 L563.68 1535.95 L534.004 1535.95 L534.004 1532.02 Z" fill="#000000" fill-rule="evenodd" fill-opacity="1" /><path clip-path="url(#clip940)" d="M577.8 1544.91 L594.119 1544.91 L594.119 1548.85 L572.175 1548.85 L572.175 1544.91 Q574.837 1542.16 579.42 1537.53 Q584.027 1532.88 585.207 1531.53 Q587.453 1529.01 588.332 1527.27 Q589.235 1525.51 589.235 1523.82 Q589.235 1521.07 587.29 1519.33 Q585.369 1517.6 582.267 1517.6 Q580.068 1517.6 577.615 1518.36 Q575.184 1519.13 572.406 1520.68 L572.406 1515.95 Q575.23 1514.82 577.684 1514.24 Q580.138 1513.66 582.175 1513.66 Q587.545 1513.66 590.74 1516.35 Q593.934 1519.03 593.934 1523.52 Q593.934 1525.65 593.124 1527.57 Q592.337 1529.47 590.23 1532.07 Q589.652 1532.74 586.55 1535.95 Q583.448 1539.15 577.8 1544.91 Z" fill="#000000" fill-rule="evenodd" fill-opacity="1" /><path clip-path="url(#clip940)" d="M879.126 1532.02 L908.802 1532.02 L908.802 1535.95 L879.126 1535.95 L879.126 1532.02 Z" fill="#000000" fill-rule="evenodd" fill-opacity="1" /><path clip-path="url(#clip940)" d="M919.705 1544.91 L927.344 1544.91 L927.344 1518.55 L919.034 1520.21 L919.034 1515.95 L927.297 1514.29 L931.973 1514.29 L931.973 1544.91 L939.612 1544.91 L939.612 1548.85 L919.705 1548.85 L919.705 1544.91 Z" fill="#000000" fill-rule="evenodd" fill-opacity="1" /><path clip-path="url(#clip940)" d="M1254.68 1517.37 Q1251.07 1517.37 1249.24 1520.93 Q1247.43 1524.47 1247.43 1531.6 Q1247.43 1538.71 1249.24 1542.27 Q1251.07 1545.82 1254.68 1545.82 Q1258.31 1545.82 1260.12 1542.27 Q1261.95 1538.71 1261.95 1531.6 Q1261.95 1524.47 1260.12 1520.93 Q1258.31 1517.37 1254.68 1517.37 M1254.68 1513.66 Q1260.49 1513.66 1263.54 1518.27 Q1266.62 1522.85 1266.62 1531.6 Q1266.62 1540.33 1263.54 1544.94 Q1260.49 1549.52 1254.68 1549.52 Q1248.87 1549.52 1245.79 1544.94 Q1242.73 1540.33 1242.73 1531.6 Q1242.73 1522.85 1245.79 1518.27 Q1248.87 1513.66 1254.68 1513.66 Z" fill="#000000" fill-rule="evenodd" fill-opacity="1" /><path clip-path="url(#clip940)" d="M1590.37 1544.91 L1598.01 1544.91 L1598.01 1518.55 L1589.7 1520.21 L1589.7 1515.95 L1597.96 1514.29 L1602.64 1514.29 L1602.64 1544.91 L1610.27 1544.91 L1610.27 1548.85 L1590.37 1548.85 L1590.37 1544.91 Z" fill="#000000" fill-rule="evenodd" fill-opacity="1" /><path clip-path="url(#clip940)" d="M1939.95 1544.91 L1956.26 1544.91 L1956.26 1548.85 L1934.32 1548.85 L1934.32 1544.91 Q1936.98 1542.16 1941.57 1537.53 Q1946.17 1532.88 1947.35 1531.53 Q1949.6 1529.01 1950.48 1527.27 Q1951.38 1525.51 1951.38 1523.82 Q1951.38 1521.07 1949.44 1519.33 Q1947.51 1517.6 1944.41 1517.6 Q1942.21 1517.6 1939.76 1518.36 Q1937.33 1519.13 1934.55 1520.68 L1934.55 1515.95 Q1937.38 1514.82 1939.83 1514.24 Q1942.28 1513.66 1944.32 1513.66 Q1949.69 1513.66 1952.89 1516.35 Q1956.08 1519.03 1956.08 1523.52 Q1956.08 1525.65 1955.27 1527.57 Q1954.48 1529.47 1952.38 1532.07 Q1951.8 1532.74 1948.7 1535.95 Q1945.59 1539.15 1939.95 1544.91 Z" fill="#000000" fill-rule="evenodd" fill-opacity="1" /><path clip-path="url(#clip940)" d="M2294.85 1530.21 Q2298.2 1530.93 2300.08 1533.2 Q2301.98 1535.47 2301.98 1538.8 Q2301.98 1543.92 2298.46 1546.72 Q2294.94 1549.52 2288.46 1549.52 Q2286.28 1549.52 2283.97 1549.08 Q2281.68 1548.66 2279.22 1547.81 L2279.22 1543.29 Q2281.17 1544.43 2283.48 1545.01 Q2285.8 1545.58 2288.32 1545.58 Q2292.72 1545.58 2295.01 1543.85 Q2297.33 1542.11 2297.33 1538.8 Q2297.33 1535.75 2295.17 1534.03 Q2293.04 1532.3 2289.22 1532.3 L2285.2 1532.3 L2285.2 1528.45 L2289.41 1528.45 Q2292.86 1528.45 2294.69 1527.09 Q2296.51 1525.7 2296.51 1523.11 Q2296.51 1520.45 2294.62 1519.03 Q2292.74 1517.6 2289.22 1517.6 Q2287.3 1517.6 2285.1 1518.01 Q2282.9 1518.43 2280.26 1519.31 L2280.26 1515.14 Q2282.93 1514.4 2285.24 1514.03 Q2287.58 1513.66 2289.64 1513.66 Q2294.96 1513.66 2298.07 1516.09 Q2301.17 1518.5 2301.17 1522.62 Q2301.17 1525.49 2299.52 1527.48 Q2297.88 1529.45 2294.85 1530.21 Z" fill="#000000" fill-rule="evenodd" fill-opacity="1" /><polyline clip-path="url(#clip942)" style="stroke:#000000; stroke-linecap:butt; stroke-linejoin:round; stroke-width:2; stroke-opacity:0.1; fill:none" points="
  156.598,1445.72 2352.76,1445.72 
  "/>
<polyline clip-path="url(#clip942)" style="stroke:#000000; stroke-linecap:butt; stroke-linejoin:round; stroke-width:2; stroke-opacity:0.1; fill:none" points="
  156.598,1102.04 2352.76,1102.04 
  "/>
<polyline clip-path="url(#clip942)" style="stroke:#000000; stroke-linecap:butt; stroke-linejoin:round; stroke-width:2; stroke-opacity:0.1; fill:none" points="
  156.598,758.36 2352.76,758.36 
  "/>
<polyline clip-path="url(#clip942)" style="stroke:#000000; stroke-linecap:butt; stroke-linejoin:round; stroke-width:2; stroke-opacity:0.1; fill:none" points="
  156.598,414.682 2352.76,414.682 
  "/>
<polyline clip-path="url(#clip942)" style="stroke:#000000; stroke-linecap:butt; stroke-linejoin:round; stroke-width:2; stroke-opacity:0.1; fill:none" points="
  156.598,71.0045 2352.76,71.0045 
  "/>
<polyline clip-path="url(#clip940)" style="stroke:#000000; stroke-linecap:butt; stroke-linejoin:round; stroke-width:4; stroke-opacity:1; fill:none" points="
  156.598,1486.45 156.598,47.2441 
  "/>
<polyline clip-path="url(#clip940)" style="stroke:#000000; stroke-linecap:butt; stroke-linejoin:round; stroke-width:4; stroke-opacity:1; fill:none" points="
  156.598,1445.72 175.496,1445.72 
  "/>
<polyline clip-path="url(#clip940)" style="stroke:#000000; stroke-linecap:butt; stroke-linejoin:round; stroke-width:4; stroke-opacity:1; fill:none" points="
  156.598,1102.04 175.496,1102.04 
  "/>
<polyline clip-path="url(#clip940)" style="stroke:#000000; stroke-linecap:butt; stroke-linejoin:round; stroke-width:4; stroke-opacity:1; fill:none" points="
  156.598,758.36 175.496,758.36 
  "/>
<polyline clip-path="url(#clip940)" style="stroke:#000000; stroke-linecap:butt; stroke-linejoin:round; stroke-width:4; stroke-opacity:1; fill:none" points="
  156.598,414.682 175.496,414.682 
  "/>
<polyline clip-path="url(#clip940)" style="stroke:#000000; stroke-linecap:butt; stroke-linejoin:round; stroke-width:4; stroke-opacity:1; fill:none" points="
  156.598,71.0045 175.496,71.0045 
  "/>
<path clip-path="url(#clip940)" d="M63.4226 1431.51 Q59.8115 1431.51 57.9828 1435.08 Q56.1773 1438.62 56.1773 1445.75 Q56.1773 1452.86 57.9828 1456.42 Q59.8115 1459.96 63.4226 1459.96 Q67.0569 1459.96 68.8624 1456.42 Q70.6911 1452.86 70.6911 1445.75 Q70.6911 1438.62 68.8624 1435.08 Q67.0569 1431.51 63.4226 1431.51 M63.4226 1427.81 Q69.2328 1427.81 72.2883 1432.42 Q75.367 1437 75.367 1445.75 Q75.367 1454.48 72.2883 1459.08 Q69.2328 1463.67 63.4226 1463.67 Q57.6125 1463.67 54.5338 1459.08 Q51.4782 1454.48 51.4782 1445.75 Q51.4782 1437 54.5338 1432.42 Q57.6125 1427.81 63.4226 1427.81 Z" fill="#000000" fill-rule="evenodd" fill-opacity="1" /><path clip-path="url(#clip940)" d="M83.5845 1457.12 L88.4688 1457.12 L88.4688 1463 L83.5845 1463 L83.5845 1457.12 Z" fill="#000000" fill-rule="evenodd" fill-opacity="1" /><path clip-path="url(#clip940)" d="M108.654 1431.51 Q105.043 1431.51 103.214 1435.08 Q101.409 1438.62 101.409 1445.75 Q101.409 1452.86 103.214 1456.42 Q105.043 1459.96 108.654 1459.96 Q112.288 1459.96 114.094 1456.42 Q115.922 1452.86 115.922 1445.75 Q115.922 1438.62 114.094 1435.08 Q112.288 1431.51 108.654 1431.51 M108.654 1427.81 Q114.464 1427.81 117.52 1432.42 Q120.598 1437 120.598 1445.75 Q120.598 1454.48 117.52 1459.08 Q114.464 1463.67 108.654 1463.67 Q102.844 1463.67 99.765 1459.08 Q96.7095 1454.48 96.7095 1445.75 Q96.7095 1437 99.765 1432.42 Q102.844 1427.81 108.654 1427.81 Z" fill="#000000" fill-rule="evenodd" fill-opacity="1" /><path clip-path="url(#clip940)" d="M64.6495 1087.84 Q61.0384 1087.84 59.2097 1091.4 Q57.4041 1094.94 57.4041 1102.07 Q57.4041 1109.18 59.2097 1112.74 Q61.0384 1116.29 64.6495 1116.29 Q68.2837 1116.29 70.0892 1112.74 Q71.9179 1109.18 71.9179 1102.07 Q71.9179 1094.94 70.0892 1091.4 Q68.2837 1087.84 64.6495 1087.84 M64.6495 1084.13 Q70.4596 1084.13 73.5152 1088.74 Q76.5938 1093.32 76.5938 1102.07 Q76.5938 1110.8 73.5152 1115.41 Q70.4596 1119.99 64.6495 1119.99 Q58.8393 1119.99 55.7606 1115.41 Q52.7051 1110.8 52.7051 1102.07 Q52.7051 1093.32 55.7606 1088.74 Q58.8393 1084.13 64.6495 1084.13 Z" fill="#000000" fill-rule="evenodd" fill-opacity="1" /><path clip-path="url(#clip940)" d="M84.8114 1113.44 L89.6956 1113.44 L89.6956 1119.32 L84.8114 1119.32 L84.8114 1113.44 Z" fill="#000000" fill-rule="evenodd" fill-opacity="1" /><path clip-path="url(#clip940)" d="M100.691 1115.38 L108.33 1115.38 L108.33 1089.02 L100.02 1090.68 L100.02 1086.42 L108.283 1084.76 L112.959 1084.76 L112.959 1115.38 L120.598 1115.38 L120.598 1119.32 L100.691 1119.32 L100.691 1115.38 Z" fill="#000000" fill-rule="evenodd" fill-opacity="1" /><path clip-path="url(#clip940)" d="M65.0198 744.159 Q61.4087 744.159 59.58 747.724 Q57.7745 751.265 57.7745 758.395 Q57.7745 765.501 59.58 769.066 Q61.4087 772.608 65.0198 772.608 Q68.6541 772.608 70.4596 769.066 Q72.2883 765.501 72.2883 758.395 Q72.2883 751.265 70.4596 747.724 Q68.6541 744.159 65.0198 744.159 M65.0198 740.455 Q70.83 740.455 73.8855 745.062 Q76.9642 749.645 76.9642 758.395 Q76.9642 767.122 73.8855 771.728 Q70.83 776.311 65.0198 776.311 Q59.2097 776.311 56.131 771.728 Q53.0754 767.122 53.0754 758.395 Q53.0754 749.645 56.131 745.062 Q59.2097 740.455 65.0198 740.455 Z" fill="#000000" fill-rule="evenodd" fill-opacity="1" /><path clip-path="url(#clip940)" d="M85.1818 769.761 L90.066 769.761 L90.066 775.64 L85.1818 775.64 L85.1818 769.761 Z" fill="#000000" fill-rule="evenodd" fill-opacity="1" /><path clip-path="url(#clip940)" d="M104.279 771.705 L120.598 771.705 L120.598 775.64 L98.6539 775.64 L98.6539 771.705 Q101.316 768.95 105.899 764.321 Q110.506 759.668 111.686 758.325 Q113.932 755.802 114.811 754.066 Q115.714 752.307 115.714 750.617 Q115.714 747.862 113.77 746.126 Q111.848 744.39 108.746 744.39 Q106.547 744.39 104.094 745.154 Q101.663 745.918 98.8854 747.469 L98.8854 742.747 Q101.709 741.613 104.163 741.034 Q106.617 740.455 108.654 740.455 Q114.024 740.455 117.219 743.14 Q120.413 745.825 120.413 750.316 Q120.413 752.446 119.603 754.367 Q118.816 756.265 116.709 758.858 Q116.131 759.529 113.029 762.747 Q109.927 765.941 104.279 771.705 Z" fill="#000000" fill-rule="evenodd" fill-opacity="1" /><path clip-path="url(#clip940)" d="M64.0708 400.481 Q60.4597 400.481 58.631 404.046 Q56.8254 407.587 56.8254 414.717 Q56.8254 421.823 58.631 425.388 Q60.4597 428.93 64.0708 428.93 Q67.705 428.93 69.5105 425.388 Q71.3392 421.823 71.3392 414.717 Q71.3392 407.587 69.5105 404.046 Q67.705 400.481 64.0708 400.481 M64.0708 396.777 Q69.8809 396.777 72.9365 401.384 Q76.0151 405.967 76.0151 414.717 Q76.0151 423.444 72.9365 428.05 Q69.8809 432.634 64.0708 432.634 Q58.2606 432.634 55.1819 428.05 Q52.1264 423.444 52.1264 414.717 Q52.1264 405.967 55.1819 401.384 Q58.2606 396.777 64.0708 396.777 Z" fill="#000000" fill-rule="evenodd" fill-opacity="1" /><path clip-path="url(#clip940)" d="M84.2327 426.083 L89.1169 426.083 L89.1169 431.962 L84.2327 431.962 L84.2327 426.083 Z" fill="#000000" fill-rule="evenodd" fill-opacity="1" /><path clip-path="url(#clip940)" d="M113.469 413.328 Q116.825 414.046 118.7 416.314 Q120.598 418.583 120.598 421.916 Q120.598 427.032 117.08 429.833 Q113.561 432.634 107.08 432.634 Q104.904 432.634 102.589 432.194 Q100.297 431.777 97.8437 430.921 L97.8437 426.407 Q99.7882 427.541 102.103 428.12 Q104.418 428.698 106.941 428.698 Q111.339 428.698 113.631 426.962 Q115.945 425.226 115.945 421.916 Q115.945 418.861 113.793 417.148 Q111.663 415.411 107.844 415.411 L103.816 415.411 L103.816 411.569 L108.029 411.569 Q111.478 411.569 113.307 410.203 Q115.135 408.814 115.135 406.222 Q115.135 403.56 113.237 402.148 Q111.362 400.712 107.844 400.712 Q105.922 400.712 103.723 401.129 Q101.524 401.546 98.8854 402.425 L98.8854 398.259 Q101.547 397.518 103.862 397.148 Q106.2 396.777 108.26 396.777 Q113.584 396.777 116.686 399.208 Q119.788 401.615 119.788 405.736 Q119.788 408.606 118.145 410.597 Q116.501 412.564 113.469 413.328 Z" fill="#000000" fill-rule="evenodd" fill-opacity="1" /><path clip-path="url(#clip940)" d="M62.9365 56.8032 Q59.3254 56.8032 57.4967 60.368 Q55.6912 63.9097 55.6912 71.0393 Q55.6912 78.1457 57.4967 81.7105 Q59.3254 85.2521 62.9365 85.2521 Q66.5707 85.2521 68.3763 81.7105 Q70.205 78.1457 70.205 71.0393 Q70.205 63.9097 68.3763 60.368 Q66.5707 56.8032 62.9365 56.8032 M62.9365 53.0995 Q68.7467 53.0995 71.8022 57.706 Q74.8809 62.2893 74.8809 71.0393 Q74.8809 79.7661 71.8022 84.3725 Q68.7467 88.9558 62.9365 88.9558 Q57.1264 88.9558 54.0477 84.3725 Q50.9921 79.7661 50.9921 71.0393 Q50.9921 62.2893 54.0477 57.706 Q57.1264 53.0995 62.9365 53.0995 Z" fill="#000000" fill-rule="evenodd" fill-opacity="1" /><path clip-path="url(#clip940)" d="M83.0984 82.4049 L87.9827 82.4049 L87.9827 88.2845 L83.0984 88.2845 L83.0984 82.4049 Z" fill="#000000" fill-rule="evenodd" fill-opacity="1" /><path clip-path="url(#clip940)" d="M111.015 57.7986 L99.2095 76.2476 L111.015 76.2476 L111.015 57.7986 M109.788 53.7245 L115.668 53.7245 L115.668 76.2476 L120.598 76.2476 L120.598 80.1364 L115.668 80.1364 L115.668 88.2845 L111.015 88.2845 L111.015 80.1364 L95.4132 80.1364 L95.4132 75.6226 L109.788 53.7245 Z" fill="#000000" fill-rule="evenodd" fill-opacity="1" /><polyline clip-path="url(#clip942)" style="stroke:#009af9; stroke-linecap:butt; stroke-linejoin:round; stroke-width:12; stroke-opacity:1; fill:none" points="
  218.754,1445.72 448.959,87.9763 679.164,257.694 909.369,427.411 1139.57,597.129 1369.78,766.846 1599.98,936.563 1830.19,1106.28 2060.4,1276 2290.6,1445.72 
  
  "/>
<path clip-path="url(#clip940)" d="
M1983.1 198.898 L2279.55 198.898 L2279.55 95.2176 L1983.1 95.2176  Z
  " fill="#ffffff" fill-rule="evenodd" fill-opacity="1"/>
<polyline clip-path="url(#clip940)" style="stroke:#000000; stroke-linecap:butt; stroke-linejoin:round; stroke-width:4; stroke-opacity:1; fill:none" points="
  1983.1,198.898 2279.55,198.898 2279.55,95.2176 1983.1,95.2176 1983.1,198.898 
  "/>
<polyline clip-path="url(#clip940)" style="stroke:#009af9; stroke-linecap:butt; stroke-linejoin:round; stroke-width:4; stroke-opacity:1; fill:none" points="
  2007.5,147.058 2153.92,147.058 
  "/>
<path clip-path="url(#clip940)" d="M2192.16 166.745 Q2190.35 171.375 2188.64 172.787 Q2186.93 174.199 2184.06 174.199 L2180.65 174.199 L2180.65 170.634 L2183.15 170.634 Q2184.91 170.634 2185.89 169.8 Q2186.86 168.967 2188.04 165.865 L2188.8 163.921 L2178.32 138.412 L2182.83 138.412 L2190.93 158.689 L2199.03 138.412 L2203.55 138.412 L2192.16 166.745 Z" fill="#000000" fill-rule="evenodd" fill-opacity="1" /><path clip-path="url(#clip940)" d="M2210.84 160.402 L2218.48 160.402 L2218.48 134.037 L2210.17 135.703 L2210.17 131.444 L2218.43 129.778 L2223.11 129.778 L2223.11 160.402 L2230.75 160.402 L2230.75 164.338 L2210.84 164.338 L2210.84 160.402 Z" fill="#000000" fill-rule="evenodd" fill-opacity="1" /></svg>
