<?xml version="1.0" encoding="utf-8"?>
<svg xmlns="http://www.w3.org/2000/svg" xmlns:xlink="http://www.w3.org/1999/xlink" width="600" height="400" viewBox="0 0 2400 1600">
<defs>
  <clipPath id="clip490">
    <rect x="0" y="0" width="2400" height="1600"/>
  </clipPath>
</defs>
<path clip-path="url(#clip490)" d="
M0 1600 L2400 1600 L2400 0 L0 0  Z
  " fill="#ffffff" fill-rule="evenodd" fill-opacity="1"/>
<defs>
  <clipPath id="clip491">
    <rect x="480" y="0" width="1681" height="1600"/>
  </clipPath>
</defs>
<path clip-path="url(#clip490)" d="
M156.598 1486.45 L2352.76 1486.45 L2352.76 47.2441 L156.598 47.2441  Z
  " fill="#ffffff" fill-rule="evenodd" fill-opacity="1"/>
<defs>
  <clipPath id="clip492">
    <rect x="156" y="47" width="2197" height="1440"/>
  </clipPath>
</defs>
<polyline clip-path="url(#clip492)" style="stroke:#000000; stroke-linecap:butt; stroke-linejoin:round; stroke-width:2; stroke-opacity:0.1; fill:none" points="
  218.754,1486.45 218.754,47.2441 
  "/>
<polyline clip-path="url(#clip492)" style="stroke:#000000; stroke-linecap:butt; stroke-linejoin:round; stroke-width:2; stroke-opacity:0.1; fill:none" points="
  736.715,1486.45 736.715,47.2441 
  "/>
<polyline clip-path="url(#clip492)" style="stroke:#000000; stroke-linecap:butt; stroke-linejoin:round; stroke-width:2; stroke-opacity:0.1; fill:none" points="
  1254.68,1486.45 1254.68,47.2441 
  "/>
<polyline clip-path="url(#clip492)" style="stroke:#000000; stroke-linecap:butt; stroke-linejoin:round; stroke-width:2; stroke-opacity:0.1; fill:none" points="
  1772.64,1486.45 1772.64,47.2441 
  "/>
<polyline clip-path="url(#clip492)" style="stroke:#000000; stroke-linecap:butt; stroke-linejoin:round; stroke-width:2; stroke-opacity:0.1; fill:none" points="
  2290.6,1486.45 2290.6,47.2441 
  "/>
<polyline clip-path="url(#clip490)" style="stroke:#000000; stroke-linecap:butt; stroke-linejoin:round; stroke-width:4; stroke-opacity:1; fill:none" points="
  156.598,1486.45 2352.76,1486.45 
  "/>
<polyline clip-path="url(#clip490)" style="stroke:#000000; stroke-linecap:butt; stroke-linejoin:round; stroke-width:4; stroke-opacity:1; fill:none" points="
  218.754,1486.45 218.754,1467.55 
  "/>
<polyline clip-path="url(#clip490)" style="stroke:#000000; stroke-linecap:butt; stroke-linejoin:round; stroke-width:4; stroke-opacity:1; fill:none" points="
  736.715,1486.45 736.715,1467.55 
  "/>
<polyline clip-path="url(#clip490)" style="stroke:#000000; stroke-linecap:butt; stroke-linejoin:round; stroke-width:4; stroke-opacity:1; fill:none" points="
  1254.68,1486.45 1254.68,1467.55 
  "/>
<polyline clip-path="url(#clip490)" style="stroke:#000000; stroke-linecap:butt; stroke-linejoin:round; stroke-width:4; stroke-opacity:1; fill:none" points="
  1772.64,1486.45 1772.64,1467.55 
  "/>
<polyline clip-path="url(#clip490)" style="stroke:#000000; stroke-linecap:butt; stroke-linejoin:round; stroke-width:4; stroke-opacity:1; fill:none" points="
  2290.6,1486.45 2290.6,1467.55 
  "/>
<path clip-path="url(#clip490)" d="M165.282 1532.02 L194.957 1532.02 L194.957 1535.95 L165.282 1535.95 L165.282 1532.02 Z" fill="#000000" fill-rule="evenodd" fill-opacity="1" /><path clip-path="url(#clip490)" d="M205.86 1544.91 L213.499 1544.91 L213.499 1518.55 L205.189 1520.21 L205.189 1515.95 L213.453 1514.29 L218.129 1514.29 L218.129 1544.91 L225.767 1544.91 L225.767 1548.85 L205.86 1548.85 L205.86 1544.91 Z" fill="#000000" fill-rule="evenodd" fill-opacity="1" /><path clip-path="url(#clip490)" d="M235.212 1542.97 L240.096 1542.97 L240.096 1548.85 L235.212 1548.85 L235.212 1542.97 Z" fill="#000000" fill-rule="evenodd" fill-opacity="1" /><path clip-path="url(#clip490)" d="M260.281 1517.37 Q256.67 1517.37 254.841 1520.93 Q253.036 1524.47 253.036 1531.6 Q253.036 1538.71 254.841 1542.27 Q256.67 1545.82 260.281 1545.82 Q263.915 1545.82 265.721 1542.27 Q267.55 1538.71 267.55 1531.6 Q267.55 1524.47 265.721 1520.93 Q263.915 1517.37 260.281 1517.37 M260.281 1513.66 Q266.091 1513.66 269.147 1518.27 Q272.226 1522.85 272.226 1531.6 Q272.226 1540.33 269.147 1544.94 Q266.091 1549.52 260.281 1549.52 Q254.471 1549.52 251.392 1544.94 Q248.337 1540.33 248.337 1531.6 Q248.337 1522.85 251.392 1518.27 Q254.471 1513.66 260.281 1513.66 Z" fill="#000000" fill-rule="evenodd" fill-opacity="1" /><path clip-path="url(#clip490)" d="M683.741 1532.02 L713.417 1532.02 L713.417 1535.95 L683.741 1535.95 L683.741 1532.02 Z" fill="#000000" fill-rule="evenodd" fill-opacity="1" /><path clip-path="url(#clip490)" d="M733.509 1517.37 Q729.898 1517.37 728.07 1520.93 Q726.264 1524.47 726.264 1531.6 Q726.264 1538.71 728.07 1542.27 Q729.898 1545.82 733.509 1545.82 Q737.144 1545.82 738.949 1542.27 Q740.778 1538.71 740.778 1531.6 Q740.778 1524.47 738.949 1520.93 Q737.144 1517.37 733.509 1517.37 M733.509 1513.66 Q739.32 1513.66 742.375 1518.27 Q745.454 1522.85 745.454 1531.6 Q745.454 1540.33 742.375 1544.94 Q739.32 1549.52 733.509 1549.52 Q727.699 1549.52 724.621 1544.94 Q721.565 1540.33 721.565 1531.6 Q721.565 1522.85 724.621 1518.27 Q727.699 1513.66 733.509 1513.66 Z" fill="#000000" fill-rule="evenodd" fill-opacity="1" /><path clip-path="url(#clip490)" d="M753.671 1542.97 L758.556 1542.97 L758.556 1548.85 L753.671 1548.85 L753.671 1542.97 Z" fill="#000000" fill-rule="evenodd" fill-opacity="1" /><path clip-path="url(#clip490)" d="M768.787 1514.29 L787.143 1514.29 L787.143 1518.22 L773.069 1518.22 L773.069 1526.7 Q774.088 1526.35 775.106 1526.19 Q776.125 1526 777.143 1526 Q782.93 1526 786.31 1529.17 Q789.69 1532.34 789.69 1537.76 Q789.69 1543.34 786.217 1546.44 Q782.745 1549.52 776.426 1549.52 Q774.25 1549.52 771.981 1549.15 Q769.736 1548.78 767.329 1548.04 L767.329 1543.34 Q769.412 1544.47 771.634 1545.03 Q773.856 1545.58 776.333 1545.58 Q780.338 1545.58 782.676 1543.48 Q785.014 1541.37 785.014 1537.76 Q785.014 1534.15 782.676 1532.04 Q780.338 1529.94 776.333 1529.94 Q774.458 1529.94 772.583 1530.35 Q770.731 1530.77 768.787 1531.65 L768.787 1514.29 Z" fill="#000000" fill-rule="evenodd" fill-opacity="1" /><path clip-path="url(#clip490)" d="M1232.06 1517.37 Q1228.45 1517.37 1226.62 1520.93 Q1224.82 1524.47 1224.82 1531.6 Q1224.82 1538.71 1226.62 1542.27 Q1228.45 1545.82 1232.06 1545.82 Q1235.7 1545.82 1237.5 1542.27 Q1239.33 1538.71 1239.33 1531.6 Q1239.33 1524.47 1237.5 1520.93 Q1235.7 1517.37 1232.06 1517.37 M1232.06 1513.66 Q1237.87 1513.66 1240.93 1518.27 Q1244.01 1522.85 1244.01 1531.6 Q1244.01 1540.33 1240.93 1544.94 Q1237.87 1549.52 1232.06 1549.52 Q1226.25 1549.52 1223.17 1544.94 Q1220.12 1540.33 1220.12 1531.6 Q1220.12 1522.85 1223.17 1518.27 Q1226.25 1513.66 1232.06 1513.66 Z" fill="#000000" fill-rule="evenodd" fill-opacity="1" /><path clip-path="url(#clip490)" d="M1252.22 1542.97 L1257.11 1542.97 L1257.11 1548.85 L1252.22 1548.85 L1252.22 1542.97 Z" fill="#000000" fill-rule="evenodd" fill-opacity="1" /><path clip-path="url(#clip490)" d="M1277.29 1517.37 Q1273.68 1517.37 1271.85 1520.93 Q1270.05 1524.47 1270.05 1531.6 Q1270.05 1538.71 1271.85 1542.27 Q1273.68 1545.82 1277.29 1545.82 Q1280.93 1545.82 1282.73 1542.27 Q1284.56 1538.71 1284.56 1531.6 Q1284.56 1524.47 1282.73 1520.93 Q1280.93 1517.37 1277.29 1517.37 M1277.29 1513.66 Q1283.1 1513.66 1286.16 1518.27 Q1289.24 1522.85 1289.24 1531.6 Q1289.24 1540.33 1286.16 1544.94 Q1283.1 1549.52 1277.29 1549.52 Q1271.48 1549.52 1268.4 1544.94 Q1265.35 1540.33 1265.35 1531.6 Q1265.35 1522.85 1268.4 1518.27 Q1271.48 1513.66 1277.29 1513.66 Z" fill="#000000" fill-rule="evenodd" fill-opacity="1" /><path clip-path="url(#clip490)" d="M1750.52 1517.37 Q1746.91 1517.37 1745.08 1520.93 Q1743.28 1524.47 1743.28 1531.6 Q1743.28 1538.71 1745.08 1542.27 Q1746.91 1545.82 1750.52 1545.82 Q1754.16 1545.82 1755.96 1542.27 Q1757.79 1538.71 1757.79 1531.6 Q1757.79 1524.47 1755.96 1520.93 Q1754.16 1517.37 1750.52 1517.37 M1750.52 1513.66 Q1756.33 1513.66 1759.39 1518.27 Q1762.47 1522.85 1762.47 1531.6 Q1762.47 1540.33 1759.39 1544.94 Q1756.33 1549.52 1750.52 1549.52 Q1744.71 1549.52 1741.63 1544.94 Q1738.58 1540.33 1738.58 1531.6 Q1738.58 1522.85 1741.63 1518.27 Q1744.71 1513.66 1750.52 1513.66 Z" fill="#000000" fill-rule="evenodd" fill-opacity="1" /><path clip-path="url(#clip490)" d="M1770.68 1542.97 L1775.57 1542.97 L1775.57 1548.85 L1770.68 1548.85 L1770.68 1542.97 Z" fill="#000000" fill-rule="evenodd" fill-opacity="1" /><path clip-path="url(#clip490)" d="M1785.8 1514.29 L1804.15 1514.29 L1804.15 1518.22 L1790.08 1518.22 L1790.08 1526.7 Q1791.1 1526.35 1792.12 1526.19 Q1793.14 1526 1794.15 1526 Q1799.94 1526 1803.32 1529.17 Q1806.7 1532.34 1806.7 1537.76 Q1806.7 1543.34 1803.23 1546.44 Q1799.76 1549.52 1793.44 1549.52 Q1791.26 1549.52 1788.99 1549.15 Q1786.75 1548.78 1784.34 1548.04 L1784.34 1543.34 Q1786.42 1544.47 1788.65 1545.03 Q1790.87 1545.58 1793.34 1545.58 Q1797.35 1545.58 1799.69 1543.48 Q1802.03 1541.37 1802.03 1537.76 Q1802.03 1534.15 1799.69 1532.04 Q1797.35 1529.94 1793.34 1529.94 Q1791.47 1529.94 1789.59 1530.35 Q1787.74 1530.77 1785.8 1531.65 L1785.8 1514.29 Z" fill="#000000" fill-rule="evenodd" fill-opacity="1" /><path clip-path="url(#clip490)" d="M2257.75 1544.91 L2265.39 1544.91 L2265.39 1518.55 L2257.08 1520.21 L2257.08 1515.95 L2265.35 1514.29 L2270.02 1514.29 L2270.02 1544.91 L2277.66 1544.91 L2277.66 1548.85 L2257.75 1548.85 L2257.75 1544.91 Z" fill="#000000" fill-rule="evenodd" fill-opacity="1" /><path clip-path="url(#clip490)" d="M2287.11 1542.97 L2291.99 1542.97 L2291.99 1548.85 L2287.11 1548.85 L2287.11 1542.97 Z" fill="#000000" fill-rule="evenodd" fill-opacity="1" /><path clip-path="url(#clip490)" d="M2312.17 1517.37 Q2308.56 1517.37 2306.73 1520.93 Q2304.93 1524.47 2304.93 1531.6 Q2304.93 1538.71 2306.73 1542.27 Q2308.56 1545.82 2312.17 1545.82 Q2315.81 1545.82 2317.61 1542.27 Q2319.44 1538.71 2319.44 1531.6 Q2319.44 1524.47 2317.61 1520.93 Q2315.81 1517.37 2312.17 1517.37 M2312.17 1513.66 Q2317.98 1513.66 2321.04 1518.27 Q2324.12 1522.85 2324.12 1531.6 Q2324.12 1540.33 2321.04 1544.94 Q2317.98 1549.52 2312.17 1549.52 Q2306.36 1549.52 2303.29 1544.94 Q2300.23 1540.33 2300.23 1531.6 Q2300.23 1522.85 2303.29 1518.27 Q2306.36 1513.66 2312.17 1513.66 Z" fill="#000000" fill-rule="evenodd" fill-opacity="1" /><polyline clip-path="url(#clip492)" style="stroke:#000000; stroke-linecap:butt; stroke-linejoin:round; stroke-width:2; stroke-opacity:0.1; fill:none" points="
  156.598,1446.39 2352.76,1446.39 
  "/>
<polyline clip-path="url(#clip492)" style="stroke:#000000; stroke-linecap:butt; stroke-linejoin:round; stroke-width:2; stroke-opacity:0.1; fill:none" points="
  156.598,1240.19 2352.76,1240.19 
  "/>
<polyline clip-path="url(#clip492)" style="stroke:#000000; stroke-linecap:butt; stroke-linejoin:round; stroke-width:2; stroke-opacity:0.1; fill:none" points="
  156.598,1033.99 2352.76,1033.99 
  "/>
<polyline clip-path="url(#clip492)" style="stroke:#000000; stroke-linecap:butt; stroke-linejoin:round; stroke-width:2; stroke-opacity:0.1; fill:none" points="
  156.598,827.79 2352.76,827.79 
  "/>
<polyline clip-path="url(#clip492)" style="stroke:#000000; stroke-linecap:butt; stroke-linejoin:round; stroke-width:2; stroke-opacity:0.1; fill:none" points="
  156.598,621.591 2352.76,621.591 
  "/>
<polyline clip-path="url(#clip492)" style="stroke:#000000; stroke-linecap:butt; stroke-linejoin:round; stroke-width:2; stroke-opacity:0.1; fill:none" points="
  156.598,415.392 2352.76,415.392 
  "/>
<polyline clip-path="url(#clip492)" style="stroke:#000000; stroke-linecap:butt; stroke-linejoin:round; stroke-width:2; stroke-opacity:0.1; fill:none" points="
  156.598,209.192 2352.76,209.192 
  "/>
<polyline clip-path="url(#clip490)" style="stroke:#000000; stroke-linecap:butt; stroke-linejoin:round; stroke-width:4; stroke-opacity:1; fill:none" points="
  156.598,1486.45 156.598,47.2441 
  "/>
<polyline clip-path="url(#clip490)" style="stroke:#000000; stroke-linecap:butt; stroke-linejoin:round; stroke-width:4; stroke-opacity:1; fill:none" points="
  156.598,1446.39 175.496,1446.39 
  "/>
<polyline clip-path="url(#clip490)" style="stroke:#000000; stroke-linecap:butt; stroke-linejoin:round; stroke-width:4; stroke-opacity:1; fill:none" points="
  156.598,1240.19 175.496,1240.19 
  "/>
<polyline clip-path="url(#clip490)" style="stroke:#000000; stroke-linecap:butt; stroke-linejoin:round; stroke-width:4; stroke-opacity:1; fill:none" points="
  156.598,1033.99 175.496,1033.99 
  "/>
<polyline clip-path="url(#clip490)" style="stroke:#000000; stroke-linecap:butt; stroke-linejoin:round; stroke-width:4; stroke-opacity:1; fill:none" points="
  156.598,827.79 175.496,827.79 
  "/>
<polyline clip-path="url(#clip490)" style="stroke:#000000; stroke-linecap:butt; stroke-linejoin:round; stroke-width:4; stroke-opacity:1; fill:none" points="
  156.598,621.591 175.496,621.591 
  "/>
<polyline clip-path="url(#clip490)" style="stroke:#000000; stroke-linecap:butt; stroke-linejoin:round; stroke-width:4; stroke-opacity:1; fill:none" points="
  156.598,415.392 175.496,415.392 
  "/>
<polyline clip-path="url(#clip490)" style="stroke:#000000; stroke-linecap:butt; stroke-linejoin:round; stroke-width:4; stroke-opacity:1; fill:none" points="
  156.598,209.192 175.496,209.192 
  "/>
<path clip-path="url(#clip490)" d="M63.4226 1432.19 Q59.8115 1432.19 57.9828 1435.75 Q56.1773 1439.29 56.1773 1446.42 Q56.1773 1453.53 57.9828 1457.09 Q59.8115 1460.64 63.4226 1460.64 Q67.0569 1460.64 68.8624 1457.09 Q70.6911 1453.53 70.6911 1446.42 Q70.6911 1439.29 68.8624 1435.75 Q67.0569 1432.19 63.4226 1432.19 M63.4226 1428.48 Q69.2328 1428.48 72.2883 1433.09 Q75.367 1437.67 75.367 1446.42 Q75.367 1455.15 72.2883 1459.76 Q69.2328 1464.34 63.4226 1464.34 Q57.6125 1464.34 54.5338 1459.76 Q51.4782 1455.15 51.4782 1446.42 Q51.4782 1437.67 54.5338 1433.09 Q57.6125 1428.48 63.4226 1428.48 Z" fill="#000000" fill-rule="evenodd" fill-opacity="1" /><path clip-path="url(#clip490)" d="M83.5845 1457.79 L88.4688 1457.79 L88.4688 1463.67 L83.5845 1463.67 L83.5845 1457.79 Z" fill="#000000" fill-rule="evenodd" fill-opacity="1" /><path clip-path="url(#clip490)" d="M108.654 1432.19 Q105.043 1432.19 103.214 1435.75 Q101.409 1439.29 101.409 1446.42 Q101.409 1453.53 103.214 1457.09 Q105.043 1460.64 108.654 1460.64 Q112.288 1460.64 114.094 1457.09 Q115.922 1453.53 115.922 1446.42 Q115.922 1439.29 114.094 1435.75 Q112.288 1432.19 108.654 1432.19 M108.654 1428.48 Q114.464 1428.48 117.52 1433.09 Q120.598 1437.67 120.598 1446.42 Q120.598 1455.15 117.52 1459.76 Q114.464 1464.34 108.654 1464.34 Q102.844 1464.34 99.765 1459.76 Q96.7095 1455.15 96.7095 1446.42 Q96.7095 1437.67 99.765 1433.09 Q102.844 1428.48 108.654 1428.48 Z" fill="#000000" fill-rule="evenodd" fill-opacity="1" /><path clip-path="url(#clip490)" d="M65.0198 1225.99 Q61.4087 1225.99 59.58 1229.55 Q57.7745 1233.09 57.7745 1240.22 Q57.7745 1247.33 59.58 1250.89 Q61.4087 1254.44 65.0198 1254.44 Q68.6541 1254.44 70.4596 1250.89 Q72.2883 1247.33 72.2883 1240.22 Q72.2883 1233.09 70.4596 1229.55 Q68.6541 1225.99 65.0198 1225.99 M65.0198 1222.28 Q70.83 1222.28 73.8855 1226.89 Q76.9642 1231.47 76.9642 1240.22 Q76.9642 1248.95 73.8855 1253.56 Q70.83 1258.14 65.0198 1258.14 Q59.2097 1258.14 56.131 1253.56 Q53.0754 1248.95 53.0754 1240.22 Q53.0754 1231.47 56.131 1226.89 Q59.2097 1222.28 65.0198 1222.28 Z" fill="#000000" fill-rule="evenodd" fill-opacity="1" /><path clip-path="url(#clip490)" d="M85.1818 1251.59 L90.066 1251.59 L90.066 1257.47 L85.1818 1257.47 L85.1818 1251.59 Z" fill="#000000" fill-rule="evenodd" fill-opacity="1" /><path clip-path="url(#clip490)" d="M104.279 1253.53 L120.598 1253.53 L120.598 1257.47 L98.6539 1257.47 L98.6539 1253.53 Q101.316 1250.78 105.899 1246.15 Q110.506 1241.5 111.686 1240.15 Q113.932 1237.63 114.811 1235.89 Q115.714 1234.14 115.714 1232.45 Q115.714 1229.69 113.77 1227.95 Q111.848 1226.22 108.746 1226.22 Q106.547 1226.22 104.094 1226.98 Q101.663 1227.75 98.8854 1229.3 L98.8854 1224.57 Q101.709 1223.44 104.163 1222.86 Q106.617 1222.28 108.654 1222.28 Q114.024 1222.28 117.219 1224.97 Q120.413 1227.65 120.413 1232.14 Q120.413 1234.27 119.603 1236.2 Q118.816 1238.09 116.709 1240.69 Q116.131 1241.36 113.029 1244.57 Q109.927 1247.77 104.279 1253.53 Z" fill="#000000" fill-rule="evenodd" fill-opacity="1" /><path clip-path="url(#clip490)" d="M62.9365 1019.79 Q59.3254 1019.79 57.4967 1023.35 Q55.6912 1026.89 55.6912 1034.02 Q55.6912 1041.13 57.4967 1044.7 Q59.3254 1048.24 62.9365 1048.24 Q66.5707 1048.24 68.3763 1044.7 Q70.205 1041.13 70.205 1034.02 Q70.205 1026.89 68.3763 1023.35 Q66.5707 1019.79 62.9365 1019.79 M62.9365 1016.08 Q68.7467 1016.08 71.8022 1020.69 Q74.8809 1025.27 74.8809 1034.02 Q74.8809 1042.75 71.8022 1047.36 Q68.7467 1051.94 62.9365 1051.94 Q57.1264 1051.94 54.0477 1047.36 Q50.9921 1042.75 50.9921 1034.02 Q50.9921 1025.27 54.0477 1020.69 Q57.1264 1016.08 62.9365 1016.08 Z" fill="#000000" fill-rule="evenodd" fill-opacity="1" /><path clip-path="url(#clip490)" d="M83.0984 1045.39 L87.9827 1045.39 L87.9827 1051.27 L83.0984 1051.27 L83.0984 1045.39 Z" fill="#000000" fill-rule="evenodd" fill-opacity="1" /><path clip-path="url(#clip490)" d="M111.015 1020.78 L99.2095 1039.23 L111.015 1039.23 L111.015 1020.78 M109.788 1016.71 L115.668 1016.71 L115.668 1039.23 L120.598 1039.23 L120.598 1043.12 L115.668 1043.12 L115.668 1051.27 L111.015 1051.27 L111.015 1043.12 L95.4132 1043.12 L95.4132 1038.61 L109.788 1016.71 Z" fill="#000000" fill-rule="evenodd" fill-opacity="1" /><path clip-path="url(#clip490)" d="M63.2606 813.589 Q59.6495 813.589 57.8208 817.153 Q56.0152 820.695 56.0152 827.825 Q56.0152 834.931 57.8208 838.496 Q59.6495 842.038 63.2606 842.038 Q66.8948 842.038 68.7004 838.496 Q70.5291 834.931 70.5291 827.825 Q70.5291 820.695 68.7004 817.153 Q66.8948 813.589 63.2606 813.589 M63.2606 809.885 Q69.0707 809.885 72.1263 814.491 Q75.205 819.075 75.205 827.825 Q75.205 836.552 72.1263 841.158 Q69.0707 845.741 63.2606 845.741 Q57.4504 845.741 54.3717 841.158 Q51.3162 836.552 51.3162 827.825 Q51.3162 819.075 54.3717 814.491 Q57.4504 809.885 63.2606 809.885 Z" fill="#000000" fill-rule="evenodd" fill-opacity="1" /><path clip-path="url(#clip490)" d="M83.4225 839.19 L88.3067 839.19 L88.3067 845.07 L83.4225 845.07 L83.4225 839.19 Z" fill="#000000" fill-rule="evenodd" fill-opacity="1" /><path clip-path="url(#clip490)" d="M109.071 825.927 Q105.922 825.927 104.071 828.079 Q102.242 830.232 102.242 833.982 Q102.242 837.709 104.071 839.885 Q105.922 842.038 109.071 842.038 Q112.219 842.038 114.047 839.885 Q115.899 837.709 115.899 833.982 Q115.899 830.232 114.047 828.079 Q112.219 825.927 109.071 825.927 M118.353 811.274 L118.353 815.533 Q116.594 814.7 114.788 814.26 Q113.006 813.82 111.246 813.82 Q106.617 813.82 104.163 816.945 Q101.733 820.07 101.385 826.39 Q102.751 824.376 104.811 823.311 Q106.871 822.223 109.348 822.223 Q114.557 822.223 117.566 825.394 Q120.598 828.542 120.598 833.982 Q120.598 839.306 117.45 842.524 Q114.302 845.741 109.071 845.741 Q103.075 845.741 99.9039 841.158 Q96.7326 836.552 96.7326 827.825 Q96.7326 819.63 100.621 814.769 Q104.51 809.885 111.061 809.885 Q112.82 809.885 114.603 810.232 Q116.408 810.579 118.353 811.274 Z" fill="#000000" fill-rule="evenodd" fill-opacity="1" /><path clip-path="url(#clip490)" d="M63.5152 607.389 Q59.9041 607.389 58.0754 610.954 Q56.2699 614.496 56.2699 621.626 Q56.2699 628.732 58.0754 632.297 Q59.9041 635.838 63.5152 635.838 Q67.1494 635.838 68.955 632.297 Q70.7837 628.732 70.7837 621.626 Q70.7837 614.496 68.955 610.954 Q67.1494 607.389 63.5152 607.389 M63.5152 603.686 Q69.3254 603.686 72.3809 608.292 Q75.4596 612.876 75.4596 621.626 Q75.4596 630.352 72.3809 634.959 Q69.3254 639.542 63.5152 639.542 Q57.7051 639.542 54.6264 634.959 Q51.5708 630.352 51.5708 621.626 Q51.5708 612.876 54.6264 608.292 Q57.7051 603.686 63.5152 603.686 Z" fill="#000000" fill-rule="evenodd" fill-opacity="1" /><path clip-path="url(#clip490)" d="M83.6771 632.991 L88.5614 632.991 L88.5614 638.871 L83.6771 638.871 L83.6771 632.991 Z" fill="#000000" fill-rule="evenodd" fill-opacity="1" /><path clip-path="url(#clip490)" d="M108.746 622.459 Q105.413 622.459 103.492 624.241 Q101.594 626.024 101.594 629.149 Q101.594 632.274 103.492 634.056 Q105.413 635.838 108.746 635.838 Q112.08 635.838 114.001 634.056 Q115.922 632.25 115.922 629.149 Q115.922 626.024 114.001 624.241 Q112.103 622.459 108.746 622.459 M104.071 620.468 Q101.061 619.727 99.3715 617.667 Q97.7048 615.607 97.7048 612.644 Q97.7048 608.501 100.645 606.093 Q103.608 603.686 108.746 603.686 Q113.908 603.686 116.848 606.093 Q119.788 608.501 119.788 612.644 Q119.788 615.607 118.098 617.667 Q116.432 619.727 113.445 620.468 Q116.825 621.255 118.7 623.547 Q120.598 625.838 120.598 629.149 Q120.598 634.172 117.52 636.857 Q114.464 639.542 108.746 639.542 Q103.029 639.542 99.9502 636.857 Q96.8947 634.172 96.8947 629.149 Q96.8947 625.838 98.7928 623.547 Q100.691 621.255 104.071 620.468 M102.358 613.084 Q102.358 615.769 104.024 617.274 Q105.714 618.778 108.746 618.778 Q111.756 618.778 113.445 617.274 Q115.158 615.769 115.158 613.084 Q115.158 610.399 113.445 608.894 Q111.756 607.389 108.746 607.389 Q105.714 607.389 104.024 608.894 Q102.358 610.399 102.358 613.084 Z" fill="#000000" fill-rule="evenodd" fill-opacity="1" /><path clip-path="url(#clip490)" d="M54.2328 428.736 L61.8717 428.736 L61.8717 402.371 L53.5616 404.038 L53.5616 399.778 L61.8254 398.112 L66.5013 398.112 L66.5013 428.736 L74.1402 428.736 L74.1402 432.672 L54.2328 432.672 L54.2328 428.736 Z" fill="#000000" fill-rule="evenodd" fill-opacity="1" /><path clip-path="url(#clip490)" d="M83.5845 426.792 L88.4688 426.792 L88.4688 432.672 L83.5845 432.672 L83.5845 426.792 Z" fill="#000000" fill-rule="evenodd" fill-opacity="1" /><path clip-path="url(#clip490)" d="M108.654 401.19 Q105.043 401.19 103.214 404.755 Q101.409 408.297 101.409 415.426 Q101.409 422.533 103.214 426.098 Q105.043 429.639 108.654 429.639 Q112.288 429.639 114.094 426.098 Q115.922 422.533 115.922 415.426 Q115.922 408.297 114.094 404.755 Q112.288 401.19 108.654 401.19 M108.654 397.487 Q114.464 397.487 117.52 402.093 Q120.598 406.676 120.598 415.426 Q120.598 424.153 117.52 428.76 Q114.464 433.343 108.654 433.343 Q102.844 433.343 99.765 428.76 Q96.7095 424.153 96.7095 415.426 Q96.7095 406.676 99.765 402.093 Q102.844 397.487 108.654 397.487 Z" fill="#000000" fill-rule="evenodd" fill-opacity="1" /><path clip-path="url(#clip490)" d="M55.8301 222.537 L63.4689 222.537 L63.4689 196.172 L55.1588 197.838 L55.1588 193.579 L63.4226 191.912 L68.0985 191.912 L68.0985 222.537 L75.7374 222.537 L75.7374 226.472 L55.8301 226.472 L55.8301 222.537 Z" fill="#000000" fill-rule="evenodd" fill-opacity="1" /><path clip-path="url(#clip490)" d="M85.1818 220.593 L90.066 220.593 L90.066 226.472 L85.1818 226.472 L85.1818 220.593 Z" fill="#000000" fill-rule="evenodd" fill-opacity="1" /><path clip-path="url(#clip490)" d="M104.279 222.537 L120.598 222.537 L120.598 226.472 L98.6539 226.472 L98.6539 222.537 Q101.316 219.783 105.899 215.153 Q110.506 210.5 111.686 209.158 Q113.932 206.635 114.811 204.899 Q115.714 203.139 115.714 201.449 Q115.714 198.695 113.77 196.959 Q111.848 195.223 108.746 195.223 Q106.547 195.223 104.094 195.987 Q101.663 196.75 98.8854 198.301 L98.8854 193.579 Q101.709 192.445 104.163 191.866 Q106.617 191.287 108.654 191.287 Q114.024 191.287 117.219 193.973 Q120.413 196.658 120.413 201.149 Q120.413 203.278 119.603 205.199 Q118.816 207.098 116.709 209.69 Q116.131 210.361 113.029 213.579 Q109.927 216.773 104.279 222.537 Z" fill="#000000" fill-rule="evenodd" fill-opacity="1" /><circle clip-path="url(#clip492)" cx="218.754" cy="1352.66" r="14.4" fill="#009af9" fill-rule="evenodd" fill-opacity="1" stroke="#000000" stroke-opacity="1" stroke-width="3.2"/>
<circle clip-path="url(#clip492)" cx="366.743" cy="1322.87" r="14.4" fill="#009af9" fill-rule="evenodd" fill-opacity="1" stroke="#000000" stroke-opacity="1" stroke-width="3.2"/>
<circle clip-path="url(#clip492)" cx="514.732" cy="1277.43" r="14.4" fill="#009af9" fill-rule="evenodd" fill-opacity="1" stroke="#000000" stroke-opacity="1" stroke-width="3.2"/>
<circle clip-path="url(#clip492)" cx="662.721" cy="1204.67" r="14.4" fill="#009af9" fill-rule="evenodd" fill-opacity="1" stroke="#000000" stroke-opacity="1" stroke-width="3.2"/>
<circle clip-path="url(#clip492)" cx="810.71" cy="1082.94" r="14.4" fill="#009af9" fill-rule="evenodd" fill-opacity="1" stroke="#000000" stroke-opacity="1" stroke-width="3.2"/>
<circle clip-path="url(#clip492)" cx="958.699" cy="878.761" r="14.4" fill="#009af9" fill-rule="evenodd" fill-opacity="1" stroke="#000000" stroke-opacity="1" stroke-width="3.2"/>
<circle clip-path="url(#clip492)" cx="1106.69" cy="590.137" r="14.4" fill="#009af9" fill-rule="evenodd" fill-opacity="1" stroke="#000000" stroke-opacity="1" stroke-width="3.2"/>
<circle clip-path="url(#clip492)" cx="1254.68" cy="415.392" r="14.4" fill="#009af9" fill-rule="evenodd" fill-opacity="1" stroke="#000000" stroke-opacity="1" stroke-width="3.2"/>
<circle clip-path="url(#clip492)" cx="1402.67" cy="590.137" r="14.4" fill="#009af9" fill-rule="evenodd" fill-opacity="1" stroke="#000000" stroke-opacity="1" stroke-width="3.2"/>
<circle clip-path="url(#clip492)" cx="1550.66" cy="878.761" r="14.4" fill="#009af9" fill-rule="evenodd" fill-opacity="1" stroke="#000000" stroke-opacity="1" stroke-width="3.2"/>
<circle clip-path="url(#clip492)" cx="1698.64" cy="1082.94" r="14.4" fill="#009af9" fill-rule="evenodd" fill-opacity="1" stroke="#000000" stroke-opacity="1" stroke-width="3.2"/>
<circle clip-path="url(#clip492)" cx="1846.63" cy="1204.67" r="14.4" fill="#009af9" fill-rule="evenodd" fill-opacity="1" stroke="#000000" stroke-opacity="1" stroke-width="3.2"/>
<circle clip-path="url(#clip492)" cx="1994.62" cy="1277.43" r="14.4" fill="#009af9" fill-rule="evenodd" fill-opacity="1" stroke="#000000" stroke-opacity="1" stroke-width="3.2"/>
<circle clip-path="url(#clip492)" cx="2142.61" cy="1322.87" r="14.4" fill="#009af9" fill-rule="evenodd" fill-opacity="1" stroke="#000000" stroke-opacity="1" stroke-width="3.2"/>
<circle clip-path="url(#clip492)" cx="2290.6" cy="1352.66" r="14.4" fill="#009af9" fill-rule="evenodd" fill-opacity="1" stroke="#000000" stroke-opacity="1" stroke-width="3.2"/>
<polyline clip-path="url(#clip492)" style="stroke:#e26f46; stroke-linecap:butt; stroke-linejoin:round; stroke-width:12; stroke-opacity:1; fill:none" points="
  218.754,1352.66 225.498,1351.54 232.242,1350.4 294.604,1338.87 356.966,1325.23 394.443,1315.81 431.92,1305.31 463.607,1295.47 495.293,1284.63 529.713,1271.57 
  564.133,1256.99 595.866,1242.01 627.598,1225.35 661.618,1205.36 695.639,1182.86 715.347,1168.53 735.055,1153.16 754.763,1136.67 774.471,1118.96 791.985,1102.14 
  809.499,1084.22 827.013,1065.15 844.528,1044.84 859.886,1025.98 875.244,1006.09 890.603,985.126 905.961,963.068 922.706,937.742 939.45,911.071 956.195,883.062 
  972.94,853.746 989.784,823.001 1006.63,791.1 1023.47,758.197 1040.32,724.496 1077.56,648.597 1114.81,574.358 1123.67,557.545 1132.53,541.235 1141.39,525.521 
  1150.25,510.495 1159.11,496.254 1167.97,482.892 1176.83,470.502 1185.69,459.174 1194.9,448.613 1204.11,439.383 1213.33,431.562 1222.54,425.221 1231.75,420.417 
  1240.96,417.195 1250.17,415.586 1259.39,415.605 1267.14,416.882 1274.9,419.304 1282.65,422.855 1290.41,427.512 1298.16,433.243 1305.92,440.012 1313.67,447.776 
  1321.42,456.488 1330.89,468.333 1340.36,481.408 1349.83,495.605 1359.3,510.811 1368.76,526.911 1378.23,543.787 1387.7,561.326 1397.17,579.417 1431.86,648.733 
  1466.55,719.466 1482.57,751.625 1498.59,783.107 1514.61,813.721 1530.63,843.326 1546.86,872.182 1563.09,899.829 1579.31,926.226 1595.54,951.361 1613.73,978.035 
  1631.92,1003.16 1650.1,1026.78 1668.29,1048.96 1684.77,1067.87 1701.25,1085.69 1717.73,1102.5 1734.21,1118.34 1753.08,1135.36 1771.95,1151.26 1790.82,1166.12 
  1809.69,1180.01 1827.16,1192.07 1844.63,1203.41 1862.1,1214.09 1879.57,1224.13 1914.02,1242.27 1948.47,1258.44 1981.92,1272.48 2015.36,1285.09 2049.65,1296.73 
  2083.94,1307.22 2121.5,1317.54 2159.07,1326.81 2213.64,1338.65 2268.21,1348.87 2279.41,1350.79 2290.6,1352.66 
  "/>
<polyline clip-path="url(#clip492)" style="stroke:#3da44d; stroke-linecap:butt; stroke-linejoin:round; stroke-width:12; stroke-opacity:1; fill:none" points="
  218.754,1352.66 219.597,1287.56 220.44,1224.77 221.283,1164.24 222.126,1105.91 222.969,1049.74 223.812,995.677 224.655,943.671 225.498,893.677 226.341,845.646 
  227.184,799.533 228.027,755.294 228.87,712.883 229.713,672.257 230.556,633.374 230.978,614.572 231.399,596.191 231.821,578.224 232.242,560.667 233.217,521.621 
  234.191,484.676 235.166,449.772 236.14,416.848 237.115,385.849 238.089,356.717 239.063,329.397 240.038,303.835 241.012,279.977 241.987,257.773 242.961,237.171 
  243.935,218.122 244.91,200.577 245.884,184.489 246.859,169.81 247.833,156.497 248.807,144.504 249.782,133.788 250.756,124.307 251.731,116.018 252.705,108.882 
  253.679,102.858 254.654,97.9087 255.628,93.9954 256.603,91.0811 257.577,89.1299 258.551,88.1064 259.526,87.9763 261.475,90.2621 263.423,95.7278 265.372,104.126 
  267.321,115.222 269.27,128.792 271.219,144.622 273.168,162.511 275.116,182.267 277.065,203.707 279.014,226.661 280.963,250.963 282.912,276.46 284.86,303.006 
  286.809,330.463 290.707,387.596 294.604,446.907 302.4,568.801 310.195,690.584 314.093,750.081 317.99,808.076 321.888,864.225 325.785,918.241 329.683,969.894 
  333.581,1019 337.478,1065.41 341.376,1109.04 345.274,1149.81 349.171,1187.69 353.069,1222.66 356.966,1254.76 359.309,1272.68 361.651,1289.57 363.993,1305.47 
  366.336,1320.38 368.678,1334.32 371.02,1347.3 373.363,1359.36 375.705,1370.5 380.39,1390.15 385.074,1406.45 389.759,1419.61 394.443,1429.82 399.128,1437.32 
  403.813,1442.33 408.497,1445.05 413.182,1445.72 417.866,1444.53 422.551,1441.71 427.236,1437.45 431.92,1431.93 439.842,1420.26 447.763,1406.35 455.685,1390.92 
  463.607,1374.6 479.45,1341.42 495.293,1310.17 503.898,1294.78 512.503,1280.8 521.108,1268.34 529.713,1257.44 538.318,1248.09 546.923,1240.23 555.528,1233.74 
  564.133,1228.51 579.999,1221.58 595.866,1217.27 611.732,1214.48 627.598,1212.18 644.608,1209.24 661.618,1205.01 678.629,1198.88 695.639,1190.54 715.347,1177.98 
  735.055,1162.47 754.763,1144.36 774.471,1124.13 809.499,1084.38 844.528,1041.42 875.244,1001.65 905.961,959.501 922.706,935.184 939.45,909.7 956.195,882.891 
  972.94,854.644 989.784,824.728 1006.63,793.336 1023.47,760.598 1040.32,726.74 1077.56,649.696 1114.81,574.096 1132.53,540.535 1150.25,509.571 1159.11,495.3 
  1167.97,481.958 1176.83,469.631 1185.69,458.401 1194.9,447.968 1204.11,438.879 1213.33,431.2 1222.54,424.99 1231.75,420.295 1240.96,417.151 1250.17,415.581 
  1259.39,415.599 1267.14,416.845 1274.9,419.208 1282.65,422.677 1290.41,427.232 1298.16,432.849 1305.92,439.497 1313.67,447.143 1321.42,455.744 1330.89,467.477 
  1340.36,480.479 1349.83,494.65 1359.3,509.888 1378.23,543.114 1397.17,579.236 1431.86,649.835 1466.55,721.662 1482.57,754.019 1498.59,785.415 1514.61,815.633 
  1530.63,844.541 1546.86,872.435 1563.09,898.953 1579.31,924.176 1595.54,948.234 1613.73,974.005 1631.92,998.732 1650.1,1022.61 1668.29,1045.78 1701.25,1086.04 
  1734.21,1123.41 1753.08,1142.88 1771.95,1160.44 1790.82,1175.66 1809.69,1188.22 1827.16,1197.32 1844.63,1204.04 1862.1,1208.69 1879.57,1211.85 1896.8,1214.36 
  1914.02,1217.39 1931.25,1222.25 1948.47,1230.35 1956.83,1235.86 1965.19,1242.6 1973.55,1250.67 1981.92,1260.17 1990.28,1271.15 1998.64,1283.59 2007,1297.45 
  2015.36,1312.6 2032.51,1346.81 2049.65,1382.71 2058.22,1399.94 2066.79,1415.7 2075.37,1429.15 2083.94,1439.26 2088.63,1443 2093.33,1445.21 2098.03,1445.69 
  2102.72,1444.22 2107.42,1440.61 2112.11,1434.62 2116.81,1426.03 2121.5,1414.62 2126.2,1400.17 2130.9,1382.47 2133.24,1372.34 2135.59,1361.33 2137.94,1349.4 
  2140.29,1336.54 2142.63,1322.73 2144.98,1307.95 2147.33,1292.17 2149.68,1275.39 2152.03,1257.59 2154.37,1238.76 2156.72,1218.89 2159.07,1197.97 2162.48,1165.71 
  2165.89,1131.23 2169.3,1094.55 2172.71,1055.69 2176.12,1014.71 2179.53,971.674 2182.94,926.686 2186.35,879.861 2189.77,831.348 2193.18,781.326 2196.59,730.005 
  2200,677.636 2206.82,570.941 2213.64,464.077 2217.05,411.684 2220.46,360.684 2223.87,311.678 2227.28,265.337 2228.99,243.394 2230.69,222.401 2232.4,202.464 
  2234.1,183.691 2235.81,166.2 2237.51,150.11 2239.22,135.549 2240.92,122.649 2242.63,111.549 2244.34,102.395 2246.04,95.3384 2247.75,90.5376 2249.45,88.1583 
  2251.16,88.3733 2252.86,91.3628 2254.57,97.3149 2256.27,106.425 2257.98,118.898 2258.83,126.462 2259.68,134.946 2260.54,144.38 2261.39,154.791 2262.24,166.208 
  2263.09,178.661 2263.95,192.181 2264.8,206.798 2265.65,222.543 2266.5,239.449 2267.36,257.548 2268.21,276.874 2268.91,293.673 2269.61,311.34 2270.31,329.894 
  2271.01,349.355 2271.71,369.743 2272.41,391.078 2273.11,413.381 2273.81,436.673 2274.51,460.974 2275.21,486.308 2275.91,512.694 2276.61,540.157 2277.31,568.717 
  2278.01,598.399 2278.71,629.225 2279.41,661.22 2280.1,694.406 2280.8,728.809 2281.5,764.452 2282.2,801.362 2282.9,839.563 2283.6,879.081 2284.3,919.943 
  2285,962.175 2285.7,1005.8 2286.4,1050.86 2287.1,1097.36 2287.8,1145.35 2288.5,1194.84 2289.2,1245.87 2289.9,1298.47 2290.6,1352.66 
  "/>
<path clip-path="url(#clip490)" d="
M1982.52 302.578 L2279.55 302.578 L2279.55 95.2176 L1982.52 95.2176  Z
  " fill="#ffffff" fill-rule="evenodd" fill-opacity="1"/>
<polyline clip-path="url(#clip490)" style="stroke:#000000; stroke-linecap:butt; stroke-linejoin:round; stroke-width:4; stroke-opacity:1; fill:none" points="
  1982.52,302.578 2279.55,302.578 2279.55,95.2176 1982.52,95.2176 1982.52,302.578 
  "/>
<circle clip-path="url(#clip490)" cx="2080.13" cy="147.058" r="23.04" fill="#009af9" fill-rule="evenodd" fill-opacity="1" stroke="#000000" stroke-opacity="1" stroke-width="5.12"/>
<path clip-path="url(#clip490)" d="M2191.58 166.745 Q2189.78 171.375 2188.06 172.787 Q2186.35 174.199 2183.48 174.199 L2180.08 174.199 L2180.08 170.634 L2182.58 170.634 Q2184.34 170.634 2185.31 169.8 Q2186.28 168.967 2187.46 165.865 L2188.22 163.921 L2177.74 138.412 L2182.25 138.412 L2190.35 158.689 L2198.46 138.412 L2202.97 138.412 L2191.58 166.745 Z" fill="#000000" fill-rule="evenodd" fill-opacity="1" /><path clip-path="url(#clip490)" d="M2210.26 160.402 L2217.9 160.402 L2217.9 134.037 L2209.59 135.703 L2209.59 131.444 L2217.85 129.778 L2222.53 129.778 L2222.53 160.402 L2230.17 160.402 L2230.17 164.338 L2210.26 164.338 L2210.26 160.402 Z" fill="#000000" fill-rule="evenodd" fill-opacity="1" /><polyline clip-path="url(#clip490)" style="stroke:#e26f46; stroke-linecap:butt; stroke-linejoin:round; stroke-width:4; stroke-opacity:1; fill:none" points="
  2006.93,198.898 2153.34,198.898 
  "/>
<path clip-path="url(#clip490)" d="M2191.58 218.585 Q2189.78 223.215 2188.06 224.627 Q2186.35 226.039 2183.48 226.039 L2180.08 226.039 L2180.08 222.474 L2182.58 222.474 Q2184.34 222.474 2185.31 221.64 Q2186.28 220.807 2187.46 217.705 L2188.22 215.761 L2177.74 190.252 L2182.25 190.252 L2190.35 210.529 L2198.46 190.252 L2202.97 190.252 L2191.58 218.585 Z" fill="#000000" fill-rule="evenodd" fill-opacity="1" /><path clip-path="url(#clip490)" d="M2213.48 212.242 L2229.8 212.242 L2229.8 216.178 L2207.85 216.178 L2207.85 212.242 Q2210.52 209.488 2215.1 204.858 Q2219.71 200.205 2220.89 198.863 Q2223.13 196.34 2224.01 194.604 Q2224.91 192.844 2224.91 191.155 Q2224.91 188.4 2222.97 186.664 Q2221.05 184.928 2217.95 184.928 Q2215.75 184.928 2213.29 185.692 Q2210.86 186.455 2208.09 188.006 L2208.09 183.284 Q2210.91 182.15 2213.36 181.571 Q2215.82 180.993 2217.85 180.993 Q2223.22 180.993 2226.42 183.678 Q2229.61 186.363 2229.61 190.854 Q2229.61 192.983 2228.8 194.905 Q2228.02 196.803 2225.91 199.395 Q2225.33 200.067 2222.23 203.284 Q2219.13 206.479 2213.48 212.242 Z" fill="#000000" fill-rule="evenodd" fill-opacity="1" /><polyline clip-path="url(#clip490)" style="stroke:#3da44d; stroke-linecap:butt; stroke-linejoin:round; stroke-width:4; stroke-opacity:1; fill:none" points="
  2006.93,250.738 2153.34,250.738 
  "/>
<path clip-path="url(#clip490)" d="M2191.58 270.425 Q2189.78 275.055 2188.06 276.467 Q2186.35 277.879 2183.48 277.879 L2180.08 277.879 L2180.08 274.314 L2182.58 274.314 Q2184.34 274.314 2185.31 273.48 Q2186.28 272.647 2187.46 269.545 L2188.22 267.601 L2177.74 242.092 L2182.25 242.092 L2190.35 262.369 L2198.46 242.092 L2202.97 242.092 L2191.58 270.425 Z" fill="#000000" fill-rule="evenodd" fill-opacity="1" /><path clip-path="url(#clip490)" d="M2223.62 249.383 Q2226.97 250.101 2228.85 252.369 Q2230.75 254.638 2230.75 257.971 Q2230.75 263.087 2227.23 265.888 Q2223.71 268.689 2217.23 268.689 Q2215.05 268.689 2212.74 268.249 Q2210.45 267.832 2207.99 266.976 L2207.99 262.462 Q2209.94 263.596 2212.25 264.175 Q2214.57 264.754 2217.09 264.754 Q2221.49 264.754 2223.78 263.018 Q2226.09 261.281 2226.09 257.971 Q2226.09 254.916 2223.94 253.203 Q2221.81 251.467 2217.99 251.467 L2213.96 251.467 L2213.96 247.624 L2218.18 247.624 Q2221.63 247.624 2223.46 246.258 Q2225.28 244.87 2225.28 242.277 Q2225.28 239.615 2223.39 238.203 Q2221.51 236.768 2217.99 236.768 Q2216.07 236.768 2213.87 237.184 Q2211.67 237.601 2209.03 238.481 L2209.03 234.314 Q2211.7 233.573 2214.01 233.203 Q2216.35 232.833 2218.41 232.833 Q2223.73 232.833 2226.84 235.263 Q2229.94 237.67 2229.94 241.791 Q2229.94 244.661 2228.29 246.652 Q2226.65 248.62 2223.62 249.383 Z" fill="#000000" fill-rule="evenodd" fill-opacity="1" /></svg>
