<?xml version="1.0" encoding="utf-8"?>
<svg xmlns="http://www.w3.org/2000/svg" xmlns:xlink="http://www.w3.org/1999/xlink" width="600" height="400" viewBox="0 0 2400 1600">
<defs>
  <clipPath id="clip470">
    <rect x="0" y="0" width="2400" height="1600"/>
  </clipPath>
</defs>
<path clip-path="url(#clip470)" d="
M0 1600 L2400 1600 L2400 0 L0 0  Z
  " fill="#ffffff" fill-rule="evenodd" fill-opacity="1"/>
<defs>
  <clipPath id="clip471">
    <rect x="480" y="0" width="1681" height="1600"/>
  </clipPath>
</defs>
<path clip-path="url(#clip470)" d="
M186.274 1486.45 L2352.76 1486.45 L2352.76 47.2441 L186.274 47.2441  Z
  " fill="#ffffff" fill-rule="evenodd" fill-opacity="1"/>
<defs>
  <clipPath id="clip472">
    <rect x="186" y="47" width="2167" height="1440"/>
  </clipPath>
</defs>
<polyline clip-path="url(#clip472)" style="stroke:#000000; stroke-linecap:butt; stroke-linejoin:round; stroke-width:2; stroke-opacity:0.1; fill:none" points="
  247.59,1486.45 247.59,47.2441 
  "/>
<polyline clip-path="url(#clip472)" style="stroke:#000000; stroke-linecap:butt; stroke-linejoin:round; stroke-width:2; stroke-opacity:0.1; fill:none" points="
  758.552,1486.45 758.552,47.2441 
  "/>
<polyline clip-path="url(#clip472)" style="stroke:#000000; stroke-linecap:butt; stroke-linejoin:round; stroke-width:2; stroke-opacity:0.1; fill:none" points="
  1269.51,1486.45 1269.51,47.2441 
  "/>
<polyline clip-path="url(#clip472)" style="stroke:#000000; stroke-linecap:butt; stroke-linejoin:round; stroke-width:2; stroke-opacity:0.1; fill:none" points="
  1780.48,1486.45 1780.48,47.2441 
  "/>
<polyline clip-path="url(#clip472)" style="stroke:#000000; stroke-linecap:butt; stroke-linejoin:round; stroke-width:2; stroke-opacity:0.1; fill:none" points="
  2291.44,1486.45 2291.44,47.2441 
  "/>
<polyline clip-path="url(#clip470)" style="stroke:#000000; stroke-linecap:butt; stroke-linejoin:round; stroke-width:4; stroke-opacity:1; fill:none" points="
  186.274,1486.45 2352.76,1486.45 
  "/>
<polyline clip-path="url(#clip470)" style="stroke:#000000; stroke-linecap:butt; stroke-linejoin:round; stroke-width:4; stroke-opacity:1; fill:none" points="
  247.59,1486.45 247.59,1467.55 
  "/>
<polyline clip-path="url(#clip470)" style="stroke:#000000; stroke-linecap:butt; stroke-linejoin:round; stroke-width:4; stroke-opacity:1; fill:none" points="
  758.552,1486.45 758.552,1467.55 
  "/>
<polyline clip-path="url(#clip470)" style="stroke:#000000; stroke-linecap:butt; stroke-linejoin:round; stroke-width:4; stroke-opacity:1; fill:none" points="
  1269.51,1486.45 1269.51,1467.55 
  "/>
<polyline clip-path="url(#clip470)" style="stroke:#000000; stroke-linecap:butt; stroke-linejoin:round; stroke-width:4; stroke-opacity:1; fill:none" points="
  1780.48,1486.45 1780.48,1467.55 
  "/>
<polyline clip-path="url(#clip470)" style="stroke:#000000; stroke-linecap:butt; stroke-linejoin:round; stroke-width:4; stroke-opacity:1; fill:none" points="
  2291.44,1486.45 2291.44,1467.55 
  "/>
<path clip-path="url(#clip470)" d="M194.118 1532.02 L223.793 1532.02 L223.793 1535.95 L194.118 1535.95 L194.118 1532.02 Z" fill="#000000" fill-rule="evenodd" fill-opacity="1" /><path clip-path="url(#clip470)" d="M234.696 1544.91 L242.335 1544.91 L242.335 1518.55 L234.025 1520.21 L234.025 1515.95 L242.289 1514.29 L246.965 1514.29 L246.965 1544.91 L254.603 1544.91 L254.603 1548.85 L234.696 1548.85 L234.696 1544.91 Z" fill="#000000" fill-rule="evenodd" fill-opacity="1" /><path clip-path="url(#clip470)" d="M264.048 1542.97 L268.932 1542.97 L268.932 1548.85 L264.048 1548.85 L264.048 1542.97 Z" fill="#000000" fill-rule="evenodd" fill-opacity="1" /><path clip-path="url(#clip470)" d="M289.117 1517.37 Q285.506 1517.37 283.677 1520.93 Q281.872 1524.47 281.872 1531.6 Q281.872 1538.71 283.677 1542.27 Q285.506 1545.82 289.117 1545.82 Q292.751 1545.82 294.557 1542.27 Q296.386 1538.71 296.386 1531.6 Q296.386 1524.47 294.557 1520.93 Q292.751 1517.37 289.117 1517.37 M289.117 1513.66 Q294.927 1513.66 297.983 1518.27 Q301.061 1522.85 301.061 1531.6 Q301.061 1540.33 297.983 1544.94 Q294.927 1549.52 289.117 1549.52 Q283.307 1549.52 280.228 1544.94 Q277.173 1540.33 277.173 1531.6 Q277.173 1522.85 280.228 1518.27 Q283.307 1513.66 289.117 1513.66 Z" fill="#000000" fill-rule="evenodd" fill-opacity="1" /><path clip-path="url(#clip470)" d="M705.578 1532.02 L735.254 1532.02 L735.254 1535.95 L705.578 1535.95 L705.578 1532.02 Z" fill="#000000" fill-rule="evenodd" fill-opacity="1" /><path clip-path="url(#clip470)" d="M755.346 1517.37 Q751.735 1517.37 749.906 1520.93 Q748.101 1524.47 748.101 1531.6 Q748.101 1538.71 749.906 1542.27 Q751.735 1545.82 755.346 1545.82 Q758.98 1545.82 760.786 1542.27 Q762.615 1538.71 762.615 1531.6 Q762.615 1524.47 760.786 1520.93 Q758.98 1517.37 755.346 1517.37 M755.346 1513.66 Q761.156 1513.66 764.212 1518.27 Q767.291 1522.85 767.291 1531.6 Q767.291 1540.33 764.212 1544.94 Q761.156 1549.52 755.346 1549.52 Q749.536 1549.52 746.457 1544.94 Q743.402 1540.33 743.402 1531.6 Q743.402 1522.85 746.457 1518.27 Q749.536 1513.66 755.346 1513.66 Z" fill="#000000" fill-rule="evenodd" fill-opacity="1" /><path clip-path="url(#clip470)" d="M775.508 1542.97 L780.392 1542.97 L780.392 1548.85 L775.508 1548.85 L775.508 1542.97 Z" fill="#000000" fill-rule="evenodd" fill-opacity="1" /><path clip-path="url(#clip470)" d="M790.624 1514.29 L808.98 1514.29 L808.98 1518.22 L794.906 1518.22 L794.906 1526.7 Q795.925 1526.35 796.943 1526.19 Q797.962 1526 798.98 1526 Q804.767 1526 808.147 1529.17 Q811.526 1532.34 811.526 1537.76 Q811.526 1543.34 808.054 1546.44 Q804.582 1549.52 798.263 1549.52 Q796.087 1549.52 793.818 1549.15 Q791.573 1548.78 789.166 1548.04 L789.166 1543.34 Q791.249 1544.47 793.471 1545.03 Q795.693 1545.58 798.17 1545.58 Q802.175 1545.58 804.513 1543.48 Q806.851 1541.37 806.851 1537.76 Q806.851 1534.15 804.513 1532.04 Q802.175 1529.94 798.17 1529.94 Q796.295 1529.94 794.42 1530.35 Q792.568 1530.77 790.624 1531.65 L790.624 1514.29 Z" fill="#000000" fill-rule="evenodd" fill-opacity="1" /><path clip-path="url(#clip470)" d="M1246.9 1517.37 Q1243.29 1517.37 1241.46 1520.93 Q1239.65 1524.47 1239.65 1531.6 Q1239.65 1538.71 1241.46 1542.27 Q1243.29 1545.82 1246.9 1545.82 Q1250.53 1545.82 1252.34 1542.27 Q1254.17 1538.71 1254.17 1531.6 Q1254.17 1524.47 1252.34 1520.93 Q1250.53 1517.37 1246.9 1517.37 M1246.9 1513.66 Q1252.71 1513.66 1255.77 1518.27 Q1258.84 1522.85 1258.84 1531.6 Q1258.84 1540.33 1255.77 1544.94 Q1252.71 1549.52 1246.9 1549.52 Q1241.09 1549.52 1238.01 1544.94 Q1234.95 1540.33 1234.95 1531.6 Q1234.95 1522.85 1238.01 1518.27 Q1241.09 1513.66 1246.9 1513.66 Z" fill="#000000" fill-rule="evenodd" fill-opacity="1" /><path clip-path="url(#clip470)" d="M1267.06 1542.97 L1271.95 1542.97 L1271.95 1548.85 L1267.06 1548.85 L1267.06 1542.97 Z" fill="#000000" fill-rule="evenodd" fill-opacity="1" /><path clip-path="url(#clip470)" d="M1292.13 1517.37 Q1288.52 1517.37 1286.69 1520.93 Q1284.89 1524.47 1284.89 1531.6 Q1284.89 1538.71 1286.69 1542.27 Q1288.52 1545.82 1292.13 1545.82 Q1295.76 1545.82 1297.57 1542.27 Q1299.4 1538.71 1299.4 1531.6 Q1299.4 1524.47 1297.57 1520.93 Q1295.76 1517.37 1292.13 1517.37 M1292.13 1513.66 Q1297.94 1513.66 1301 1518.27 Q1304.07 1522.85 1304.07 1531.6 Q1304.07 1540.33 1301 1544.94 Q1297.94 1549.52 1292.13 1549.52 Q1286.32 1549.52 1283.24 1544.94 Q1280.19 1540.33 1280.19 1531.6 Q1280.19 1522.85 1283.24 1518.27 Q1286.32 1513.66 1292.13 1513.66 Z" fill="#000000" fill-rule="evenodd" fill-opacity="1" /><path clip-path="url(#clip470)" d="M1758.36 1517.37 Q1754.75 1517.37 1752.92 1520.93 Q1751.11 1524.47 1751.11 1531.6 Q1751.11 1538.71 1752.92 1542.27 Q1754.75 1545.82 1758.36 1545.82 Q1761.99 1545.82 1763.8 1542.27 Q1765.63 1538.71 1765.63 1531.6 Q1765.63 1524.47 1763.8 1520.93 Q1761.99 1517.37 1758.36 1517.37 M1758.36 1513.66 Q1764.17 1513.66 1767.23 1518.27 Q1770.3 1522.85 1770.3 1531.6 Q1770.3 1540.33 1767.23 1544.94 Q1764.17 1549.52 1758.36 1549.52 Q1752.55 1549.52 1749.47 1544.94 Q1746.42 1540.33 1746.42 1531.6 Q1746.42 1522.85 1749.47 1518.27 Q1752.55 1513.66 1758.36 1513.66 Z" fill="#000000" fill-rule="evenodd" fill-opacity="1" /><path clip-path="url(#clip470)" d="M1778.52 1542.97 L1783.41 1542.97 L1783.41 1548.85 L1778.52 1548.85 L1778.52 1542.97 Z" fill="#000000" fill-rule="evenodd" fill-opacity="1" /><path clip-path="url(#clip470)" d="M1793.64 1514.29 L1811.99 1514.29 L1811.99 1518.22 L1797.92 1518.22 L1797.92 1526.7 Q1798.94 1526.35 1799.96 1526.19 Q1800.98 1526 1801.99 1526 Q1807.78 1526 1811.16 1529.17 Q1814.54 1532.34 1814.54 1537.76 Q1814.54 1543.34 1811.07 1546.44 Q1807.6 1549.52 1801.28 1549.52 Q1799.1 1549.52 1796.83 1549.15 Q1794.59 1548.78 1792.18 1548.04 L1792.18 1543.34 Q1794.26 1544.47 1796.48 1545.03 Q1798.71 1545.58 1801.18 1545.58 Q1805.19 1545.58 1807.53 1543.48 Q1809.86 1541.37 1809.86 1537.76 Q1809.86 1534.15 1807.53 1532.04 Q1805.19 1529.94 1801.18 1529.94 Q1799.31 1529.94 1797.43 1530.35 Q1795.58 1530.77 1793.64 1531.65 L1793.64 1514.29 Z" fill="#000000" fill-rule="evenodd" fill-opacity="1" /><path clip-path="url(#clip470)" d="M2258.59 1544.91 L2266.23 1544.91 L2266.23 1518.55 L2257.92 1520.21 L2257.92 1515.95 L2266.19 1514.29 L2270.86 1514.29 L2270.86 1544.91 L2278.5 1544.91 L2278.5 1548.85 L2258.59 1548.85 L2258.59 1544.91 Z" fill="#000000" fill-rule="evenodd" fill-opacity="1" /><path clip-path="url(#clip470)" d="M2287.95 1542.97 L2292.83 1542.97 L2292.83 1548.85 L2287.95 1548.85 L2287.95 1542.97 Z" fill="#000000" fill-rule="evenodd" fill-opacity="1" /><path clip-path="url(#clip470)" d="M2313.01 1517.37 Q2309.4 1517.37 2307.57 1520.93 Q2305.77 1524.47 2305.77 1531.6 Q2305.77 1538.71 2307.57 1542.27 Q2309.4 1545.82 2313.01 1545.82 Q2316.65 1545.82 2318.45 1542.27 Q2320.28 1538.71 2320.28 1531.6 Q2320.28 1524.47 2318.45 1520.93 Q2316.65 1517.37 2313.01 1517.37 M2313.01 1513.66 Q2318.82 1513.66 2321.88 1518.27 Q2324.96 1522.85 2324.96 1531.6 Q2324.96 1540.33 2321.88 1544.94 Q2318.82 1549.52 2313.01 1549.52 Q2307.2 1549.52 2304.13 1544.94 Q2301.07 1540.33 2301.07 1531.6 Q2301.07 1522.85 2304.13 1518.27 Q2307.2 1513.66 2313.01 1513.66 Z" fill="#000000" fill-rule="evenodd" fill-opacity="1" /><polyline clip-path="url(#clip472)" style="stroke:#000000; stroke-linecap:butt; stroke-linejoin:round; stroke-width:2; stroke-opacity:0.1; fill:none" points="
  186.274,1445.72 2352.76,1445.72 
  "/>
<polyline clip-path="url(#clip472)" style="stroke:#000000; stroke-linecap:butt; stroke-linejoin:round; stroke-width:2; stroke-opacity:0.1; fill:none" points="
  186.274,1105.21 2352.76,1105.21 
  "/>
<polyline clip-path="url(#clip472)" style="stroke:#000000; stroke-linecap:butt; stroke-linejoin:round; stroke-width:2; stroke-opacity:0.1; fill:none" points="
  186.274,764.706 2352.76,764.706 
  "/>
<polyline clip-path="url(#clip472)" style="stroke:#000000; stroke-linecap:butt; stroke-linejoin:round; stroke-width:2; stroke-opacity:0.1; fill:none" points="
  186.274,424.202 2352.76,424.202 
  "/>
<polyline clip-path="url(#clip472)" style="stroke:#000000; stroke-linecap:butt; stroke-linejoin:round; stroke-width:2; stroke-opacity:0.1; fill:none" points="
  186.274,83.6969 2352.76,83.6969 
  "/>
<polyline clip-path="url(#clip470)" style="stroke:#000000; stroke-linecap:butt; stroke-linejoin:round; stroke-width:4; stroke-opacity:1; fill:none" points="
  186.274,1486.45 186.274,47.2441 
  "/>
<polyline clip-path="url(#clip470)" style="stroke:#000000; stroke-linecap:butt; stroke-linejoin:round; stroke-width:4; stroke-opacity:1; fill:none" points="
  186.274,1445.72 205.172,1445.72 
  "/>
<polyline clip-path="url(#clip470)" style="stroke:#000000; stroke-linecap:butt; stroke-linejoin:round; stroke-width:4; stroke-opacity:1; fill:none" points="
  186.274,1105.21 205.172,1105.21 
  "/>
<polyline clip-path="url(#clip470)" style="stroke:#000000; stroke-linecap:butt; stroke-linejoin:round; stroke-width:4; stroke-opacity:1; fill:none" points="
  186.274,764.706 205.172,764.706 
  "/>
<polyline clip-path="url(#clip470)" style="stroke:#000000; stroke-linecap:butt; stroke-linejoin:round; stroke-width:4; stroke-opacity:1; fill:none" points="
  186.274,424.202 205.172,424.202 
  "/>
<polyline clip-path="url(#clip470)" style="stroke:#000000; stroke-linecap:butt; stroke-linejoin:round; stroke-width:4; stroke-opacity:1; fill:none" points="
  186.274,83.6969 205.172,83.6969 
  "/>
<path clip-path="url(#clip470)" d="M62.9365 1431.51 Q59.3254 1431.51 57.4967 1435.08 Q55.6912 1438.62 55.6912 1445.75 Q55.6912 1452.86 57.4967 1456.42 Q59.3254 1459.96 62.9365 1459.96 Q66.5707 1459.96 68.3763 1456.42 Q70.205 1452.86 70.205 1445.75 Q70.205 1438.62 68.3763 1435.08 Q66.5707 1431.51 62.9365 1431.51 M62.9365 1427.81 Q68.7467 1427.81 71.8022 1432.42 Q74.8809 1437 74.8809 1445.75 Q74.8809 1454.48 71.8022 1459.08 Q68.7467 1463.67 62.9365 1463.67 Q57.1264 1463.67 54.0477 1459.08 Q50.9921 1454.48 50.9921 1445.75 Q50.9921 1437 54.0477 1432.42 Q57.1264 1427.81 62.9365 1427.81 Z" fill="#000000" fill-rule="evenodd" fill-opacity="1" /><path clip-path="url(#clip470)" d="M83.0984 1457.12 L87.9827 1457.12 L87.9827 1463 L83.0984 1463 L83.0984 1457.12 Z" fill="#000000" fill-rule="evenodd" fill-opacity="1" /><path clip-path="url(#clip470)" d="M108.168 1431.51 Q104.557 1431.51 102.728 1435.08 Q100.922 1438.62 100.922 1445.75 Q100.922 1452.86 102.728 1456.42 Q104.557 1459.96 108.168 1459.96 Q111.802 1459.96 113.608 1456.42 Q115.436 1452.86 115.436 1445.75 Q115.436 1438.62 113.608 1435.08 Q111.802 1431.51 108.168 1431.51 M108.168 1427.81 Q113.978 1427.81 117.033 1432.42 Q120.112 1437 120.112 1445.75 Q120.112 1454.48 117.033 1459.08 Q113.978 1463.67 108.168 1463.67 Q102.358 1463.67 99.2789 1459.08 Q96.2234 1454.48 96.2234 1445.75 Q96.2234 1437 99.2789 1432.42 Q102.358 1427.81 108.168 1427.81 Z" fill="#000000" fill-rule="evenodd" fill-opacity="1" /><path clip-path="url(#clip470)" d="M138.33 1431.51 Q134.719 1431.51 132.89 1435.08 Q131.084 1438.62 131.084 1445.75 Q131.084 1452.86 132.89 1456.42 Q134.719 1459.96 138.33 1459.96 Q141.964 1459.96 143.769 1456.42 Q145.598 1452.86 145.598 1445.75 Q145.598 1438.62 143.769 1435.08 Q141.964 1431.51 138.33 1431.51 M138.33 1427.81 Q144.14 1427.81 147.195 1432.42 Q150.274 1437 150.274 1445.75 Q150.274 1454.48 147.195 1459.08 Q144.14 1463.67 138.33 1463.67 Q132.519 1463.67 129.441 1459.08 Q126.385 1454.48 126.385 1445.75 Q126.385 1437 129.441 1432.42 Q132.519 1427.81 138.33 1427.81 Z" fill="#000000" fill-rule="evenodd" fill-opacity="1" /><path clip-path="url(#clip470)" d="M63.9319 1091.01 Q60.3208 1091.01 58.4921 1094.57 Q56.6865 1098.12 56.6865 1105.25 Q56.6865 1112.35 58.4921 1115.92 Q60.3208 1119.46 63.9319 1119.46 Q67.5661 1119.46 69.3717 1115.92 Q71.2004 1112.35 71.2004 1105.25 Q71.2004 1098.12 69.3717 1094.57 Q67.5661 1091.01 63.9319 1091.01 M63.9319 1087.31 Q69.742 1087.31 72.7976 1091.91 Q75.8763 1096.5 75.8763 1105.25 Q75.8763 1113.97 72.7976 1118.58 Q69.742 1123.16 63.9319 1123.16 Q58.1217 1123.16 55.043 1118.58 Q51.9875 1113.97 51.9875 1105.25 Q51.9875 1096.5 55.043 1091.91 Q58.1217 1087.31 63.9319 1087.31 Z" fill="#000000" fill-rule="evenodd" fill-opacity="1" /><path clip-path="url(#clip470)" d="M84.0938 1116.61 L88.978 1116.61 L88.978 1122.49 L84.0938 1122.49 L84.0938 1116.61 Z" fill="#000000" fill-rule="evenodd" fill-opacity="1" /><path clip-path="url(#clip470)" d="M103.191 1118.56 L119.51 1118.56 L119.51 1122.49 L97.566 1122.49 L97.566 1118.56 Q100.228 1115.8 104.811 1111.17 Q109.418 1106.52 110.598 1105.18 Q112.844 1102.65 113.723 1100.92 Q114.626 1099.16 114.626 1097.47 Q114.626 1094.71 112.682 1092.98 Q110.76 1091.24 107.658 1091.24 Q105.459 1091.24 103.006 1092.01 Q100.575 1092.77 97.7974 1094.32 L97.7974 1089.6 Q100.621 1088.46 103.075 1087.88 Q105.529 1087.31 107.566 1087.31 Q112.936 1087.31 116.131 1089.99 Q119.325 1092.68 119.325 1097.17 Q119.325 1099.3 118.515 1101.22 Q117.728 1103.12 115.621 1105.71 Q115.043 1106.38 111.941 1109.6 Q108.839 1112.79 103.191 1118.56 Z" fill="#000000" fill-rule="evenodd" fill-opacity="1" /><path clip-path="url(#clip470)" d="M129.371 1087.93 L147.728 1087.93 L147.728 1091.87 L133.654 1091.87 L133.654 1100.34 Q134.672 1099.99 135.691 1099.83 Q136.709 1099.64 137.728 1099.64 Q143.515 1099.64 146.894 1102.82 Q150.274 1105.99 150.274 1111.4 Q150.274 1116.98 146.802 1120.08 Q143.33 1123.16 137.01 1123.16 Q134.834 1123.16 132.566 1122.79 Q130.32 1122.42 127.913 1121.68 L127.913 1116.98 Q129.996 1118.12 132.219 1118.67 Q134.441 1119.23 136.918 1119.23 Q140.922 1119.23 143.26 1117.12 Q145.598 1115.01 145.598 1111.4 Q145.598 1107.79 143.26 1105.69 Q140.922 1103.58 136.918 1103.58 Q135.043 1103.58 133.168 1104 Q131.316 1104.41 129.371 1105.29 L129.371 1087.93 Z" fill="#000000" fill-rule="evenodd" fill-opacity="1" /><path clip-path="url(#clip470)" d="M62.9365 750.505 Q59.3254 750.505 57.4967 754.07 Q55.6912 757.611 55.6912 764.741 Q55.6912 771.848 57.4967 775.412 Q59.3254 778.954 62.9365 778.954 Q66.5707 778.954 68.3763 775.412 Q70.205 771.848 70.205 764.741 Q70.205 757.611 68.3763 754.07 Q66.5707 750.505 62.9365 750.505 M62.9365 746.801 Q68.7467 746.801 71.8022 751.408 Q74.8809 755.991 74.8809 764.741 Q74.8809 773.468 71.8022 778.074 Q68.7467 782.658 62.9365 782.658 Q57.1264 782.658 54.0477 778.074 Q50.9921 773.468 50.9921 764.741 Q50.9921 755.991 54.0477 751.408 Q57.1264 746.801 62.9365 746.801 Z" fill="#000000" fill-rule="evenodd" fill-opacity="1" /><path clip-path="url(#clip470)" d="M83.0984 776.107 L87.9827 776.107 L87.9827 781.986 L83.0984 781.986 L83.0984 776.107 Z" fill="#000000" fill-rule="evenodd" fill-opacity="1" /><path clip-path="url(#clip470)" d="M98.2141 747.426 L116.57 747.426 L116.57 751.362 L102.496 751.362 L102.496 759.834 Q103.515 759.486 104.534 759.324 Q105.552 759.139 106.571 759.139 Q112.358 759.139 115.737 762.311 Q119.117 765.482 119.117 770.898 Q119.117 776.477 115.645 779.579 Q112.172 782.658 105.853 782.658 Q103.677 782.658 101.409 782.287 Q99.1632 781.917 96.7558 781.176 L96.7558 776.477 Q98.8391 777.611 101.061 778.167 Q103.284 778.722 105.76 778.722 Q109.765 778.722 112.103 776.616 Q114.441 774.51 114.441 770.898 Q114.441 767.287 112.103 765.181 Q109.765 763.074 105.76 763.074 Q103.885 763.074 102.01 763.491 Q100.159 763.908 98.2141 764.787 L98.2141 747.426 Z" fill="#000000" fill-rule="evenodd" fill-opacity="1" /><path clip-path="url(#clip470)" d="M138.33 750.505 Q134.719 750.505 132.89 754.07 Q131.084 757.611 131.084 764.741 Q131.084 771.848 132.89 775.412 Q134.719 778.954 138.33 778.954 Q141.964 778.954 143.769 775.412 Q145.598 771.848 145.598 764.741 Q145.598 757.611 143.769 754.07 Q141.964 750.505 138.33 750.505 M138.33 746.801 Q144.14 746.801 147.195 751.408 Q150.274 755.991 150.274 764.741 Q150.274 773.468 147.195 778.074 Q144.14 782.658 138.33 782.658 Q132.519 782.658 129.441 778.074 Q126.385 773.468 126.385 764.741 Q126.385 755.991 129.441 751.408 Q132.519 746.801 138.33 746.801 Z" fill="#000000" fill-rule="evenodd" fill-opacity="1" /><path clip-path="url(#clip470)" d="M63.9319 410 Q60.3208 410 58.4921 413.565 Q56.6865 417.107 56.6865 424.236 Q56.6865 431.343 58.4921 434.908 Q60.3208 438.449 63.9319 438.449 Q67.5661 438.449 69.3717 434.908 Q71.2004 431.343 71.2004 424.236 Q71.2004 417.107 69.3717 413.565 Q67.5661 410 63.9319 410 M63.9319 406.297 Q69.742 406.297 72.7976 410.903 Q75.8763 415.486 75.8763 424.236 Q75.8763 432.963 72.7976 437.57 Q69.742 442.153 63.9319 442.153 Q58.1217 442.153 55.043 437.57 Q51.9875 432.963 51.9875 424.236 Q51.9875 415.486 55.043 410.903 Q58.1217 406.297 63.9319 406.297 Z" fill="#000000" fill-rule="evenodd" fill-opacity="1" /><path clip-path="url(#clip470)" d="M84.0938 435.602 L88.978 435.602 L88.978 441.482 L84.0938 441.482 L84.0938 435.602 Z" fill="#000000" fill-rule="evenodd" fill-opacity="1" /><path clip-path="url(#clip470)" d="M97.9826 406.922 L120.205 406.922 L120.205 408.912 L107.658 441.482 L102.774 441.482 L114.58 410.857 L97.9826 410.857 L97.9826 406.922 Z" fill="#000000" fill-rule="evenodd" fill-opacity="1" /><path clip-path="url(#clip470)" d="M129.371 406.922 L147.728 406.922 L147.728 410.857 L133.654 410.857 L133.654 419.329 Q134.672 418.982 135.691 418.82 Q136.709 418.635 137.728 418.635 Q143.515 418.635 146.894 421.806 Q150.274 424.977 150.274 430.394 Q150.274 435.972 146.802 439.074 Q143.33 442.153 137.01 442.153 Q134.834 442.153 132.566 441.783 Q130.32 441.412 127.913 440.671 L127.913 435.972 Q129.996 437.107 132.219 437.662 Q134.441 438.218 136.918 438.218 Q140.922 438.218 143.26 436.111 Q145.598 434.005 145.598 430.394 Q145.598 426.783 143.26 424.676 Q140.922 422.57 136.918 422.57 Q135.043 422.57 133.168 422.986 Q131.316 423.403 129.371 424.283 L129.371 406.922 Z" fill="#000000" fill-rule="evenodd" fill-opacity="1" /><path clip-path="url(#clip470)" d="M53.7467 97.0417 L61.3856 97.0417 L61.3856 70.6761 L53.0754 72.3428 L53.0754 68.0835 L61.3393 66.4169 L66.0152 66.4169 L66.0152 97.0417 L73.654 97.0417 L73.654 100.977 L53.7467 100.977 L53.7467 97.0417 Z" fill="#000000" fill-rule="evenodd" fill-opacity="1" /><path clip-path="url(#clip470)" d="M83.0984 95.0973 L87.9827 95.0973 L87.9827 100.977 L83.0984 100.977 L83.0984 95.0973 Z" fill="#000000" fill-rule="evenodd" fill-opacity="1" /><path clip-path="url(#clip470)" d="M108.168 69.4956 Q104.557 69.4956 102.728 73.0604 Q100.922 76.602 100.922 83.7316 Q100.922 90.838 102.728 94.4028 Q104.557 97.9445 108.168 97.9445 Q111.802 97.9445 113.608 94.4028 Q115.436 90.838 115.436 83.7316 Q115.436 76.602 113.608 73.0604 Q111.802 69.4956 108.168 69.4956 M108.168 65.7919 Q113.978 65.7919 117.033 70.3983 Q120.112 74.9816 120.112 83.7316 Q120.112 92.4584 117.033 97.0649 Q113.978 101.648 108.168 101.648 Q102.358 101.648 99.2789 97.0649 Q96.2234 92.4584 96.2234 83.7316 Q96.2234 74.9816 99.2789 70.3983 Q102.358 65.7919 108.168 65.7919 Z" fill="#000000" fill-rule="evenodd" fill-opacity="1" /><path clip-path="url(#clip470)" d="M138.33 69.4956 Q134.719 69.4956 132.89 73.0604 Q131.084 76.602 131.084 83.7316 Q131.084 90.838 132.89 94.4028 Q134.719 97.9445 138.33 97.9445 Q141.964 97.9445 143.769 94.4028 Q145.598 90.838 145.598 83.7316 Q145.598 76.602 143.769 73.0604 Q141.964 69.4956 138.33 69.4956 M138.33 65.7919 Q144.14 65.7919 147.195 70.3983 Q150.274 74.9816 150.274 83.7316 Q150.274 92.4584 147.195 97.0649 Q144.14 101.648 138.33 101.648 Q132.519 101.648 129.441 97.0649 Q126.385 92.4584 126.385 83.7316 Q126.385 74.9816 129.441 70.3983 Q132.519 65.7919 138.33 65.7919 Z" fill="#000000" fill-rule="evenodd" fill-opacity="1" /><polyline clip-path="url(#clip472)" style="stroke:#009af9; stroke-linecap:butt; stroke-linejoin:round; stroke-width:12; stroke-opacity:1; fill:none" points="
  247.59,1445.72 289.301,1445.72 331.012,1445.71 372.723,1445.71 414.434,1445.7 456.146,1445.66 497.857,1445.57 539.568,1445.33 581.279,1444.76 622.991,1443.46 
  664.702,1440.7 706.413,1435.14 748.124,1424.56 789.836,1405.61 831.547,1373.62 873.258,1322.85 914.969,1247.2 956.681,1141.62 998.392,1004.06 1040.1,837.583 
  1081.81,651.823 1123.53,463.125 1165.24,292.712 1206.95,162.983 1248.66,92.743 1290.37,92.743 1332.08,162.983 1373.79,292.712 1415.5,463.125 1457.22,651.823 
  1498.93,837.583 1540.64,1004.06 1582.35,1141.62 1624.06,1247.2 1665.77,1322.85 1707.48,1373.62 1749.19,1405.61 1790.91,1424.56 1832.62,1435.14 1874.33,1440.7 
  1916.04,1443.46 1957.75,1444.76 1999.46,1445.33 2041.17,1445.57 2082.88,1445.66 2124.6,1445.7 2166.31,1445.71 2208.02,1445.71 2249.73,1445.72 2291.44,1445.72 
  
  "/>
<polyline clip-path="url(#clip472)" style="stroke:#e26f46; stroke-linecap:butt; stroke-linejoin:round; stroke-width:12; stroke-opacity:1; fill:none" points="
  247.59,1445.72 289.301,1445.72 331.012,1445.71 372.723,1445.71 414.434,1445.7 456.146,1445.67 497.857,1445.6 539.568,1445.41 581.279,1444.95 622.991,1443.88 
  664.702,1441.58 706.413,1436.86 748.124,1427.77 789.836,1411.22 831.547,1382.88 873.258,1337.2 914.969,1268.09 956.681,1170.09 998.392,1040.28 1040.1,880.336 
  1081.81,698.258 1123.53,508.857 1165.24,332.403 1206.95,191.329 1248.66,105.631 1290.37,88.2263 1332.08,141.765 1373.79,257.967 1415.5,419.72 1457.22,605.204 
  1498.93,792.674 1540.64,964.479 1582.35,1109.34 1624.06,1222.69 1665.77,1305.44 1707.48,1362.01 1749.19,1398.33 1790.91,1420.26 1832.62,1432.74 1874.33,1439.44 
  1916.04,1442.83 1957.75,1444.46 1999.46,1445.2 2041.17,1445.51 2082.88,1445.64 2124.6,1445.69 2166.31,1445.71 2208.02,1445.71 2249.73,1445.71 2291.44,1445.72 
  
  "/>
<polyline clip-path="url(#clip472)" style="stroke:#3da44d; stroke-linecap:butt; stroke-linejoin:round; stroke-width:12; stroke-opacity:1; fill:none" points="
  247.59,1445.72 289.301,1445.72 331.012,1445.71 372.723,1445.71 414.434,1445.71 456.146,1445.68 497.857,1445.63 539.568,1445.48 581.279,1445.1 622.991,1444.23 
  664.702,1442.32 706.413,1438.34 748.124,1430.54 789.836,1416.15 831.547,1391.12 873.258,1350.18 914.969,1287.28 956.681,1196.67 998.392,1074.66 1040.1,921.659 
  1081.81,744.075 1123.53,555.123 1165.24,373.948 1206.95,222.763 1248.66,122.479 1290.37,87.9763 1332.08,124.479 1373.79,226.262 1415.5,378.118 1457.22,559.078 
  1498.93,747.126 1540.64,923.465 1582.35,1075.24 1624.06,1196.3 1665.77,1286.35 1707.48,1349.05 1749.19,1390.05 1790.91,1415.28 1832.62,1429.91 1874.33,1437.92 
  1916.04,1442.06 1957.75,1444.09 1999.46,1445.03 2041.17,1445.44 2082.88,1445.61 2124.6,1445.68 2166.31,1445.7 2208.02,1445.71 2249.73,1445.71 2291.44,1445.72 
  
  "/>
<polyline clip-path="url(#clip472)" style="stroke:#c271d2; stroke-linecap:butt; stroke-linejoin:round; stroke-width:12; stroke-opacity:1; fill:none" points="
  247.59,1445.72 289.301,1445.72 331.012,1445.72 372.723,1445.71 414.434,1445.71 456.146,1445.69 497.857,1445.65 539.568,1445.53 581.279,1445.23 622.991,1444.52 
  664.702,1442.93 706.413,1439.59 748.124,1432.93 789.836,1420.46 831.547,1398.44 873.258,1361.88 914.969,1304.84 956.681,1221.38 998.392,1107.15 1040.1,961.422 
  1081.81,789.05 1123.53,601.626 1165.24,417.026 1206.95,257.002 1248.66,143.11 1290.37,91.9594 1332.08,111.244 1373.79,197.839 1415.5,338.629 1457.22,513.757 
  1498.93,701.196 1540.64,881.192 1582.35,1039.38 1624.06,1168.03 1665.77,1265.52 1707.48,1334.65 1749.19,1380.69 1790.91,1409.54 1832.62,1426.59 1874.33,1436.1 
  1916.04,1441.12 1957.75,1443.63 1999.46,1444.81 2041.17,1445.34 2082.88,1445.57 2124.6,1445.66 2166.31,1445.7 2208.02,1445.71 2249.73,1445.71 2291.44,1445.72 
  
  "/>
<polyline clip-path="url(#clip472)" style="stroke:#ac8d18; stroke-linecap:butt; stroke-linejoin:round; stroke-width:12; stroke-opacity:1; fill:none" points="
  247.59,1445.72 289.301,1445.72 331.012,1445.72 372.723,1445.71 414.434,1445.71 456.146,1445.7 497.857,1445.66 539.568,1445.57 581.279,1445.33 622.991,1444.75 
  664.702,1443.45 706.413,1440.64 748.124,1434.99 789.836,1424.22 831.547,1404.92 873.258,1372.39 914.969,1320.86 956.681,1244.27 998.392,1137.75 1040.1,999.518 
  1081.81,832.979 1123.53,648.084 1165.24,461.317 1206.95,293.752 1248.66,167.315 1290.37,100.106 1332.08,102.143 1373.79,172.914 1415.5,301.548 1457.22,469.556 
  1498.93,655.159 1540.64,837.852 1582.35,1001.88 1624.06,1137.9 1665.77,1242.91 1707.48,1318.75 1749.19,1370.16 1790.91,1402.97 1832.62,1422.72 1874.33,1433.95 
  1916.04,1439.98 1957.75,1443.06 1999.46,1444.54 2041.17,1445.22 2082.88,1445.52 2124.6,1445.64 2166.31,1445.69 2208.02,1445.71 2249.73,1445.71 2291.44,1445.71 
  
  "/>
<polyline clip-path="url(#clip472)" style="stroke:#00a9ad; stroke-linecap:butt; stroke-linejoin:round; stroke-width:12; stroke-opacity:1; fill:none" points="
  247.59,1445.72 289.301,1445.72 331.012,1445.72 372.723,1445.71 414.434,1445.71 456.146,1445.7 497.857,1445.68 539.568,1445.6 581.279,1445.41 622.991,1444.95 
  664.702,1443.87 706.413,1441.53 748.124,1436.74 789.836,1427.48 831.547,1410.63 873.258,1381.79 914.969,1335.41 956.681,1265.39 998.392,1166.44 1040.1,1035.86 
  1081.81,875.683 1123.53,694.231 1165.24,506.507 1206.95,332.708 1248.66,194.865 1290.37,112.311 1332.08,97.2233 1373.79,151.672 1415.5,267.159 1457.22,426.788 
  1498.93,609.3 1540.64,793.66 1582.35,962.84 1624.06,1105.95 1665.77,1218.5 1707.48,1301.26 1749.19,1358.38 1790.91,1395.49 1832.62,1418.23 1874.33,1431.4 
  1916.04,1438.61 1957.75,1442.36 1999.46,1444.2 2041.17,1445.07 2082.88,1445.45 2124.6,1445.61 2166.31,1445.68 2208.02,1445.7 2249.73,1445.71 2291.44,1445.71 
  
  "/>
<polyline clip-path="url(#clip472)" style="stroke:#ed5d92; stroke-linecap:butt; stroke-linejoin:round; stroke-width:12; stroke-opacity:1; fill:none" points="
  247.59,1445.72 289.301,1445.72 331.012,1445.72 372.723,1445.71 414.434,1445.71 456.146,1445.71 497.857,1445.69 539.568,1445.63 581.279,1445.48 622.991,1445.1 
  664.702,1444.22 706.413,1442.28 748.124,1438.24 789.836,1430.31 831.547,1415.65 873.258,1390.18 914.969,1348.58 956.681,1284.81 998.392,1193.24 1040.1,1070.39 
  1081.81,917.005 1123.53,739.82 1165.24,552.29 1206.95,373.556 1248.66,225.505 1290.37,128.437 1332.08,96.4944 1373.79,134.268 1415.5,235.722 1457.22,385.764 
  1498.93,563.915 1540.64,748.847 1582.35,922.418 1624.06,1072.22 1665.77,1192.26 1707.48,1282.13 1749.19,1345.27 1790.91,1387.02 1832.62,1413.06 1874.33,1428.41 
  1916.04,1436.98 1957.75,1441.51 1999.46,1443.78 2041.17,1444.87 2082.88,1445.36 2124.6,1445.57 2166.31,1445.66 2208.02,1445.7 2249.73,1445.71 2291.44,1445.71 
  
  "/>
<polyline clip-path="url(#clip472)" style="stroke:#c68125; stroke-linecap:butt; stroke-linejoin:round; stroke-width:12; stroke-opacity:1; fill:none" points="
  247.59,1445.71 289.301,1445.72 331.012,1445.72 372.723,1445.72 414.434,1445.71 456.146,1445.71 497.857,1445.69 539.568,1445.65 581.279,1445.53 622.991,1445.23 
  664.702,1444.51 706.413,1442.91 748.124,1439.51 789.836,1432.74 831.547,1420.04 873.258,1397.63 914.969,1360.46 956.681,1302.59 998.392,1218.18 1040.1,1103.06 
  1081.81,956.81 1123.53,784.625 1165.24,598.371 1206.95,415.982 1248.66,258.963 1290.37,148.316 1332.08,99.9308 1373.79,120.825 1415.5,207.477 1457.22,346.785 
  1498.93,519.305 1540.64,703.663 1582.35,880.777 1624.06,1036.79 1665.77,1164.19 1707.48,1261.31 1749.19,1330.75 1790.91,1377.47 1832.62,1407.13 1874.33,1424.92 
  1916.04,1435.03 1957.75,1440.48 1999.46,1443.27 2041.17,1444.62 2082.88,1445.25 2124.6,1445.53 2166.31,1445.64 2208.02,1445.69 2249.73,1445.71 2291.44,1445.71 
  
  "/>
<polyline clip-path="url(#clip472)" style="stroke:#00a98d; stroke-linecap:butt; stroke-linejoin:round; stroke-width:12; stroke-opacity:1; fill:none" points="
  247.59,1445.71 289.301,1445.72 331.012,1445.72 372.723,1445.72 414.434,1445.71 456.146,1445.71 497.857,1445.7 539.568,1445.66 581.279,1445.57 622.991,1445.33 
  664.702,1444.75 706.413,1443.43 748.124,1440.59 789.836,1434.83 831.547,1423.86 873.258,1404.22 914.969,1371.13 956.681,1318.82 998.392,1241.3 1040.1,1133.85 
  1081.81,994.986 1123.53,828.44 1165.24,644.467 1206.95,459.671 1248.66,294.953 1290.37,171.752 1332.08,107.471 1373.79,111.429 1415.5,182.638 1457.22,310.143 
  1498.93,475.777 1540.64,658.372 1582.35,838.103 1624.06,999.763 1665.77,1134.32 1707.48,1238.76 1749.19,1314.75 1790.91,1366.77 1832.62,1400.36 1874.33,1420.87 
  1916.04,1432.73 1957.75,1439.24 1999.46,1442.63 2041.17,1444.31 2082.88,1445.11 2124.6,1445.46 2166.31,1445.61 2208.02,1445.68 2249.73,1445.7 2291.44,1445.71 
  
  "/>
<polyline clip-path="url(#clip472)" style="stroke:#8e971d; stroke-linecap:butt; stroke-linejoin:round; stroke-width:12; stroke-opacity:1; fill:none" points="
  247.59,1445.71 289.301,1445.72 331.012,1445.72 372.723,1445.72 414.434,1445.71 456.146,1445.71 497.857,1445.7 539.568,1445.68 581.279,1445.6 622.991,1445.41 
  664.702,1444.95 706.413,1443.86 748.124,1441.49 789.836,1436.62 831.547,1427.19 873.258,1410.03 914.969,1380.69 956.681,1333.58 998.392,1262.66 1040.1,1162.76 
  1081.81,1031.45 1123.53,871.081 1165.24,690.313 1206.95,504.313 1248.66,333.177 1290.37,198.521 1332.08,119.02 1373.79,106.133 1415.5,161.39 1457.22,276.112 
  1498.93,433.634 1540.64,613.251 1582.35,794.603 1624.06,961.255 1665.77,1102.67 1707.48,1214.44 1749.19,1297.2 1790.91,1354.83 1832.62,1392.69 1874.33,1416.2 
  1916.04,1430.04 1957.75,1437.76 1999.46,1441.86 2041.17,1443.93 2082.88,1444.92 2124.6,1445.38 2166.31,1445.58 2208.02,1445.66 2249.73,1445.7 2291.44,1445.71 
  
  "/>
<polyline clip-path="url(#clip472)" style="stroke:#00a8cb; stroke-linecap:butt; stroke-linejoin:round; stroke-width:12; stroke-opacity:1; fill:none" points="
  247.59,1445.71 289.301,1445.71 331.012,1445.72 372.723,1445.72 414.434,1445.71 456.146,1445.71 497.857,1445.71 539.568,1445.69 581.279,1445.63 622.991,1445.48 
  664.702,1445.1 706.413,1444.22 748.124,1442.25 789.836,1438.14 831.547,1430.06 873.258,1415.14 914.969,1389.21 956.681,1346.94 998.392,1282.3 1040.1,1189.78 
  1081.81,1066.12 1123.53,912.389 1165.24,735.661 1206.95,549.605 1248.66,373.33 1290.37,228.381 1332.08,134.448 1373.79,104.953 1415.5,143.89 1457.22,244.951 
  1498.93,393.18 1540.64,568.586 1582.35,750.5 1624.06,921.405 1665.77,1069.3 1707.48,1188.35 1749.19,1278.05 1790.91,1341.59 1832.62,1384.03 1874.33,1410.85 
  1916.04,1426.89 1957.75,1436.01 1999.46,1440.93 2041.17,1443.46 2082.88,1444.7 2124.6,1445.28 2166.31,1445.53 2208.02,1445.64 2249.73,1445.69 2291.44,1445.71 
  
  "/>
<polyline clip-path="url(#clip472)" style="stroke:#9b7fe8; stroke-linecap:butt; stroke-linejoin:round; stroke-width:12; stroke-opacity:1; fill:none" points="
  247.59,1445.71 289.301,1445.71 331.012,1445.72 372.723,1445.72 414.434,1445.72 456.146,1445.71 497.857,1445.71 539.568,1445.69 581.279,1445.65 622.991,1445.53 
  664.702,1445.23 706.413,1444.51 748.124,1442.89 789.836,1439.43 831.547,1432.54 873.258,1419.61 914.969,1396.79 956.681,1359 998.392,1300.31 1040.1,1214.95 
  1081.81,1098.96 1123.53,952.223 1165.24,780.282 1206.95,595.252 1248.66,415.103 1290.37,261.069 1332.08,153.598 1373.79,107.87 1415.5,130.262 1457.22,216.895 
  1498.93,354.708 1540.64,524.67 1582.35,706.038 1624.06,880.373 1665.77,1034.29 1707.48,1160.48 1749.19,1257.24 1790.91,1326.95 1832.62,1374.31 1874.33,1404.73 
  1916.04,1423.24 1957.75,1433.94 1999.46,1439.81 2041.17,1442.88 2082.88,1444.41 2124.6,1445.14 2166.31,1445.47 2208.02,1445.62 2249.73,1445.68 2291.44,1445.7 
  
  "/>
<polyline clip-path="url(#clip472)" style="stroke:#608cf6; stroke-linecap:butt; stroke-linejoin:round; stroke-width:12; stroke-opacity:1; fill:none" points="
  247.59,1445.71 289.301,1445.71 331.012,1445.71 372.723,1445.72 414.434,1445.72 456.146,1445.71 497.857,1445.71 539.568,1445.7 581.279,1445.67 622.991,1445.57 
  664.702,1445.33 706.413,1444.75 748.124,1443.41 789.836,1440.53 831.547,1434.67 873.258,1423.5 914.969,1403.5 956.681,1369.84 998.392,1316.75 1040.1,1238.3 
  1081.81,1129.94 1123.53,990.469 1165.24,823.969 1206.95,640.975 1248.66,458.186 1290.37,296.307 1332.08,176.283 1373.79,114.83 1415.5,120.596 1457.22,192.157 
  1498.93,318.503 1540.64,481.799 1582.35,661.47 1624.06,838.342 1665.77,997.724 1707.48,1130.85 1749.19,1234.74 1790.91,1310.86 1832.62,1363.45 1874.33,1397.78 
  1916.04,1419.03 1957.75,1431.51 1999.46,1438.48 2041.17,1442.19 2082.88,1444.07 2124.6,1444.98 2166.31,1445.4 2208.02,1445.58 2249.73,1445.66 2291.44,1445.7 
  
  "/>
<polyline clip-path="url(#clip472)" style="stroke:#f05f73; stroke-linecap:butt; stroke-linejoin:round; stroke-width:12; stroke-opacity:1; fill:none" points="
  247.59,1445.71 289.301,1445.71 331.012,1445.71 372.723,1445.72 414.434,1445.72 456.146,1445.71 497.857,1445.71 539.568,1445.7 581.279,1445.68 622.991,1445.61 
  664.702,1445.42 706.413,1444.95 748.124,1443.85 789.836,1441.45 831.547,1436.49 873.258,1426.89 914.969,1409.41 956.681,1379.56 998.392,1331.71 1040.1,1259.88 
  1081.81,1159.04 1123.53,1027.03 1165.24,866.535 1206.95,686.507 1248.66,502.274 1290.37,333.805 1332.08,202.29 1373.79,125.748 1415.5,114.95 1457.22,170.921 
  1498.93,284.835 1540.64,440.27 1582.35,617.065 1624.06,795.509 1665.77,959.725 1707.48,1099.51 1749.19,1210.52 1790.91,1293.26 1832.62,1351.36 1874.33,1389.93 
  1916.04,1414.19 1957.75,1428.67 1999.46,1436.89 2041.17,1441.34 2082.88,1443.64 2124.6,1444.77 2166.31,1445.3 2208.02,1445.54 2249.73,1445.65 2291.44,1445.69 
  
  "/>
<polyline clip-path="url(#clip472)" style="stroke:#dd64b5; stroke-linecap:butt; stroke-linejoin:round; stroke-width:12; stroke-opacity:1; fill:none" points="
  247.59,1445.7 289.301,1445.71 331.012,1445.71 372.723,1445.72 414.434,1445.72 456.146,1445.71 497.857,1445.71 539.568,1445.71 581.279,1445.69 622.991,1445.63 
  664.702,1445.48 706.413,1445.11 748.124,1444.21 789.836,1442.22 831.547,1438.04 873.258,1429.82 914.969,1414.61 956.681,1388.22 998.392,1345.27 1040.1,1279.75 
  1081.81,1186.28 1123.53,1061.84 1165.24,907.815 1206.95,731.601 1248.66,547.066 1290.37,373.265 1332.08,231.385 1373.79,140.503 1415.5,113.344 1457.22,153.345 
  1498.93,253.956 1540.64,400.377 1582.35,573.1 1624.06,752.094 1665.77,920.425 1707.48,1066.49 1749.19,1184.57 1790.91,1274.08 1832.62,1337.98 1874.33,1381.1 
  1916.04,1408.65 1957.75,1425.37 1999.46,1435.02 2041.17,1440.33 2082.88,1443.11 2124.6,1444.51 2166.31,1445.18 2208.02,1445.49 2249.73,1445.62 2291.44,1445.68 
  
  "/>
<polyline clip-path="url(#clip472)" style="stroke:#6b9e32; stroke-linecap:butt; stroke-linejoin:round; stroke-width:12; stroke-opacity:1; fill:none" points="
  247.59,1445.7 289.301,1445.71 331.012,1445.71 372.723,1445.71 414.434,1445.72 456.146,1445.72 497.857,1445.71 539.568,1445.71 581.279,1445.69 622.991,1445.65 
  664.702,1445.53 706.413,1445.23 748.124,1444.51 789.836,1442.86 831.547,1439.36 873.258,1432.34 914.969,1419.16 956.681,1395.93 998.392,1357.51 1040.1,1297.98 
  1081.81,1211.68 1123.53,1094.84 1165.24,947.667 1206.95,776.026 1248.66,592.271 1290.37,414.385 1332.08,263.315 1373.79,158.946 1415.5,115.768 1457.22,139.554 
  1498.93,226.099 1540.64,362.407 1582.35,529.86 1624.06,708.328 1665.77,879.982 1707.48,1031.87 1749.19,1156.89 1790.91,1253.29 1832.62,1323.24 1874.33,1371.21 
  1916.04,1402.36 1957.75,1421.56 1999.46,1432.83 2041.17,1439.12 2082.88,1442.48 2124.6,1444.19 2166.31,1445.03 2208.02,1445.42 2249.73,1445.59 2291.44,1445.67 
  
  "/>
<polyline clip-path="url(#clip472)" style="stroke:#009af9; stroke-linecap:butt; stroke-linejoin:round; stroke-width:12; stroke-opacity:1; fill:none" points="
  247.59,1445.69 289.301,1445.71 331.012,1445.71 372.723,1445.71 414.434,1445.72 456.146,1445.72 497.857,1445.71 539.568,1445.71 581.279,1445.7 622.991,1445.67 
  664.702,1445.58 706.413,1445.34 748.124,1444.75 789.836,1443.4 831.547,1440.47 873.258,1434.51 914.969,1423.13 956.681,1402.76 998.392,1368.53 1040.1,1314.64 
  1081.81,1235.26 1123.53,1126 1165.24,985.971 1206.95,819.571 1248.66,637.61 1290.37,456.86 1332.08,297.81 1373.79,180.901 1415.5,122.176 1457.22,129.641 
  1498.93,201.474 1540.64,326.637 1582.35,487.632 1624.06,664.461 1665.77,838.57 1707.48,995.756 1749.19,1127.51 1790.91,1230.84 1832.62,1307.08 1874.33,1360.19 
  1916.04,1395.23 1957.75,1417.18 1999.46,1430.26 2041.17,1437.69 2082.88,1441.72 2124.6,1443.8 2166.31,1444.84 2208.02,1445.33 2249.73,1445.55 2291.44,1445.65 
  
  "/>
<polyline clip-path="url(#clip472)" style="stroke:#e26f46; stroke-linecap:butt; stroke-linejoin:round; stroke-width:12; stroke-opacity:1; fill:none" points="
  247.59,1445.68 289.301,1445.7 331.012,1445.71 372.723,1445.71 414.434,1445.72 456.146,1445.72 497.857,1445.71 539.568,1445.71 581.279,1445.7 622.991,1445.68 
  664.702,1445.61 706.413,1445.42 748.124,1444.95 789.836,1443.84 831.547,1441.4 873.258,1436.36 914.969,1426.58 956.681,1408.78 998.392,1378.4 1040.1,1329.81 
  1081.81,1257.07 1123.53,1155.31 1165.24,1022.63 1206.95,862.047 1248.66,682.817 1290.37,500.388 1332.08,334.588 1373.79,206.163 1415.5,132.488 1457.22,123.669 
  1498.93,180.267 1540.64,293.332 1582.35,446.705 1624.06,620.751 1665.77,796.383 1707.48,958.248 1749.19,1096.45 1790.91,1206.72 1832.62,1289.42 1874.33,1347.96 
  1916.04,1387.21 1957.75,1412.17 1999.46,1427.29 2041.17,1436 2082.88,1440.8 2124.6,1443.33 2166.31,1444.6 2208.02,1445.21 2249.73,1445.5 2291.44,1445.63 
  
  "/>
<polyline clip-path="url(#clip472)" style="stroke:#3da44d; stroke-linecap:butt; stroke-linejoin:round; stroke-width:12; stroke-opacity:1; fill:none" points="
  247.59,1445.67 289.301,1445.7 331.012,1445.71 372.723,1445.71 414.434,1445.71 456.146,1445.72 497.857,1445.72 539.568,1445.71 581.279,1445.71 622.991,1445.69 
  664.702,1445.63 706.413,1445.49 748.124,1445.11 789.836,1444.21 831.547,1442.19 873.258,1437.94 914.969,1429.56 956.681,1414.07 998.392,1387.21 1040.1,1343.56 
  1081.81,1277.17 1123.53,1182.76 1165.24,1057.56 1206.95,903.287 1248.66,727.644 1290.37,544.674 1332.08,373.359 1373.79,234.509 1415.5,146.593 1457.22,121.664 
  1498.93,162.632 1540.64,262.741 1582.35,407.364 1624.06,577.468 1665.77,753.632 1707.48,919.481 1749.19,1063.77 1790.91,1180.91 1832.62,1270.23 1874.33,1334.47 
  1916.04,1378.21 1957.75,1406.47 1999.46,1423.84 2041.17,1434.02 2082.88,1439.71 2124.6,1442.75 2166.31,1444.31 2208.02,1445.07 2249.73,1445.43 2291.44,1445.6 
  
  "/>
<polyline clip-path="url(#clip472)" style="stroke:#c271d2; stroke-linecap:butt; stroke-linejoin:round; stroke-width:12; stroke-opacity:1; fill:none" points="
  247.59,1445.65 289.301,1445.69 331.012,1445.71 372.723,1445.71 414.434,1445.71 456.146,1445.72 497.857,1445.72 539.568,1445.71 581.279,1445.71 622.991,1445.7 
  664.702,1445.65 706.413,1445.54 748.124,1445.24 789.836,1444.51 831.547,1442.84 873.258,1439.28 914.969,1432.13 956.681,1418.71 998.392,1395.05 1040.1,1355.99 
  1081.81,1295.62 1123.53,1208.37 1165.24,1090.72 1206.95,943.144 1248.66,771.858 1290.37,589.428 1332.08,413.826 1373.79,265.693 1415.5,164.352 1457.22,123.621 
  1498.93,148.698 1540.64,235.092 1582.35,369.89 1624.06,534.886 1665.77,710.542 1707.48,879.605 1749.19,1029.54 1790.91,1153.42 1832.62,1249.45 1874.33,1319.63 
  1916.04,1368.16 1957.75,1400 1999.46,1419.88 2041.17,1431.7 2082.88,1438.42 2124.6,1442.06 2166.31,1443.95 2208.02,1444.9 2249.73,1445.35 2291.44,1445.56 
  
  "/>
<path clip-path="url(#clip470)" d="
M1955.51 1183.86 L2280.54 1183.86 L2280.54 95.2176 L1955.51 95.2176  Z
  " fill="#ffffff" fill-rule="evenodd" fill-opacity="1"/>
<polyline clip-path="url(#clip470)" style="stroke:#000000; stroke-linecap:butt; stroke-linejoin:round; stroke-width:4; stroke-opacity:1; fill:none" points="
  1955.51,1183.86 2280.54,1183.86 2280.54,95.2176 1955.51,95.2176 1955.51,1183.86 
  "/>
<polyline clip-path="url(#clip470)" style="stroke:#009af9; stroke-linecap:butt; stroke-linejoin:round; stroke-width:4; stroke-opacity:1; fill:none" points="
  1979.59,147.058 2124.02,147.058 
  "/>
<path clip-path="url(#clip470)" d="M2161.93 166.745 Q2160.13 171.375 2158.41 172.787 Q2156.7 174.199 2153.83 174.199 L2150.43 174.199 L2150.43 170.634 L2152.93 170.634 Q2154.69 170.634 2155.66 169.8 Q2156.63 168.967 2157.81 165.865 L2158.58 163.921 L2148.09 138.412 L2152.6 138.412 L2160.71 158.689 L2168.81 138.412 L2173.32 138.412 L2161.93 166.745 Z" fill="#000000" fill-rule="evenodd" fill-opacity="1" /><path clip-path="url(#clip470)" d="M2180.61 160.402 L2188.25 160.402 L2188.25 134.037 L2179.94 135.703 L2179.94 131.444 L2188.21 129.778 L2192.88 129.778 L2192.88 160.402 L2200.52 160.402 L2200.52 164.338 L2180.61 164.338 L2180.61 160.402 Z" fill="#000000" fill-rule="evenodd" fill-opacity="1" /><polyline clip-path="url(#clip470)" style="stroke:#e26f46; stroke-linecap:butt; stroke-linejoin:round; stroke-width:4; stroke-opacity:1; fill:none" points="
  1979.59,198.898 2124.02,198.898 
  "/>
<path clip-path="url(#clip470)" d="M2161.93 218.585 Q2160.13 223.215 2158.41 224.627 Q2156.7 226.039 2153.83 226.039 L2150.43 226.039 L2150.43 222.474 L2152.93 222.474 Q2154.69 222.474 2155.66 221.64 Q2156.63 220.807 2157.81 217.705 L2158.58 215.761 L2148.09 190.252 L2152.6 190.252 L2160.71 210.529 L2168.81 190.252 L2173.32 190.252 L2161.93 218.585 Z" fill="#000000" fill-rule="evenodd" fill-opacity="1" /><path clip-path="url(#clip470)" d="M2183.83 212.242 L2200.15 212.242 L2200.15 216.178 L2178.21 216.178 L2178.21 212.242 Q2180.87 209.488 2185.45 204.858 Q2190.06 200.205 2191.24 198.863 Q2193.48 196.34 2194.36 194.604 Q2195.27 192.844 2195.27 191.155 Q2195.27 188.4 2193.32 186.664 Q2191.4 184.928 2188.3 184.928 Q2186.1 184.928 2183.65 185.692 Q2181.22 186.455 2178.44 188.006 L2178.44 183.284 Q2181.26 182.15 2183.72 181.571 Q2186.17 180.993 2188.21 180.993 Q2193.58 180.993 2196.77 183.678 Q2199.97 186.363 2199.97 190.854 Q2199.97 192.983 2199.16 194.905 Q2198.37 196.803 2196.26 199.395 Q2195.68 200.067 2192.58 203.284 Q2189.48 206.479 2183.83 212.242 Z" fill="#000000" fill-rule="evenodd" fill-opacity="1" /><polyline clip-path="url(#clip470)" style="stroke:#3da44d; stroke-linecap:butt; stroke-linejoin:round; stroke-width:4; stroke-opacity:1; fill:none" points="
  1979.59,250.738 2124.02,250.738 
  "/>
<path clip-path="url(#clip470)" d="M2161.93 270.425 Q2160.13 275.055 2158.41 276.467 Q2156.7 277.879 2153.83 277.879 L2150.43 277.879 L2150.43 274.314 L2152.93 274.314 Q2154.69 274.314 2155.66 273.48 Q2156.63 272.647 2157.81 269.545 L2158.58 267.601 L2148.09 242.092 L2152.6 242.092 L2160.71 262.369 L2168.81 242.092 L2173.32 242.092 L2161.93 270.425 Z" fill="#000000" fill-rule="evenodd" fill-opacity="1" /><path clip-path="url(#clip470)" d="M2193.97 249.383 Q2197.33 250.101 2199.2 252.369 Q2201.1 254.638 2201.1 257.971 Q2201.1 263.087 2197.58 265.888 Q2194.06 268.689 2187.58 268.689 Q2185.41 268.689 2183.09 268.249 Q2180.8 267.832 2178.35 266.976 L2178.35 262.462 Q2180.29 263.596 2182.6 264.175 Q2184.92 264.754 2187.44 264.754 Q2191.84 264.754 2194.13 263.018 Q2196.45 261.281 2196.45 257.971 Q2196.45 254.916 2194.29 253.203 Q2192.16 251.467 2188.35 251.467 L2184.32 251.467 L2184.32 247.624 L2188.53 247.624 Q2191.98 247.624 2193.81 246.258 Q2195.64 244.87 2195.64 242.277 Q2195.64 239.615 2193.74 238.203 Q2191.86 236.768 2188.35 236.768 Q2186.42 236.768 2184.22 237.184 Q2182.03 237.601 2179.39 238.481 L2179.39 234.314 Q2182.05 233.573 2184.36 233.203 Q2186.7 232.833 2188.76 232.833 Q2194.09 232.833 2197.19 235.263 Q2200.29 237.67 2200.29 241.791 Q2200.29 244.661 2198.65 246.652 Q2197 248.62 2193.97 249.383 Z" fill="#000000" fill-rule="evenodd" fill-opacity="1" /><polyline clip-path="url(#clip470)" style="stroke:#c271d2; stroke-linecap:butt; stroke-linejoin:round; stroke-width:4; stroke-opacity:1; fill:none" points="
  1979.59,302.578 2124.02,302.578 
  "/>
<path clip-path="url(#clip470)" d="M2161.93 322.265 Q2160.13 326.895 2158.41 328.307 Q2156.7 329.719 2153.83 329.719 L2150.43 329.719 L2150.43 326.154 L2152.93 326.154 Q2154.69 326.154 2155.66 325.32 Q2156.63 324.487 2157.81 321.385 L2158.58 319.441 L2148.09 293.932 L2152.6 293.932 L2160.71 314.209 L2168.81 293.932 L2173.32 293.932 L2161.93 322.265 Z" fill="#000000" fill-rule="evenodd" fill-opacity="1" /><path clip-path="url(#clip470)" d="M2192.65 289.372 L2180.85 307.821 L2192.65 307.821 L2192.65 289.372 M2191.42 285.298 L2197.3 285.298 L2197.3 307.821 L2202.23 307.821 L2202.23 311.709 L2197.3 311.709 L2197.3 319.858 L2192.65 319.858 L2192.65 311.709 L2177.05 311.709 L2177.05 307.196 L2191.42 285.298 Z" fill="#000000" fill-rule="evenodd" fill-opacity="1" /><polyline clip-path="url(#clip470)" style="stroke:#ac8d18; stroke-linecap:butt; stroke-linejoin:round; stroke-width:4; stroke-opacity:1; fill:none" points="
  1979.59,354.418 2124.02,354.418 
  "/>
<path clip-path="url(#clip470)" d="M2161.93 374.105 Q2160.13 378.735 2158.41 380.147 Q2156.7 381.559 2153.83 381.559 L2150.43 381.559 L2150.43 377.994 L2152.93 377.994 Q2154.69 377.994 2155.66 377.16 Q2156.63 376.327 2157.81 373.225 L2158.58 371.281 L2148.09 345.772 L2152.6 345.772 L2160.71 366.049 L2168.81 345.772 L2173.32 345.772 L2161.93 374.105 Z" fill="#000000" fill-rule="evenodd" fill-opacity="1" /><path clip-path="url(#clip470)" d="M2179.85 337.138 L2198.21 337.138 L2198.21 341.073 L2184.13 341.073 L2184.13 349.545 Q2185.15 349.198 2186.17 349.036 Q2187.19 348.85 2188.21 348.85 Q2193.99 348.85 2197.37 352.022 Q2200.75 355.193 2200.75 360.61 Q2200.75 366.188 2197.28 369.29 Q2193.81 372.369 2187.49 372.369 Q2185.31 372.369 2183.04 371.998 Q2180.8 371.628 2178.39 370.887 L2178.39 366.188 Q2180.47 367.323 2182.7 367.878 Q2184.92 368.434 2187.4 368.434 Q2191.4 368.434 2193.74 366.327 Q2196.08 364.221 2196.08 360.61 Q2196.08 356.999 2193.74 354.892 Q2191.4 352.786 2187.4 352.786 Q2185.52 352.786 2183.65 353.202 Q2181.79 353.619 2179.85 354.499 L2179.85 337.138 Z" fill="#000000" fill-rule="evenodd" fill-opacity="1" /><polyline clip-path="url(#clip470)" style="stroke:#00a9ad; stroke-linecap:butt; stroke-linejoin:round; stroke-width:4; stroke-opacity:1; fill:none" points="
  1979.59,406.258 2124.02,406.258 
  "/>
<path clip-path="url(#clip470)" d="M2161.93 425.945 Q2160.13 430.575 2158.41 431.987 Q2156.7 433.399 2153.83 433.399 L2150.43 433.399 L2150.43 429.834 L2152.93 429.834 Q2154.69 429.834 2155.66 429 Q2156.63 428.167 2157.81 425.065 L2158.58 423.121 L2148.09 397.612 L2152.6 397.612 L2160.71 417.889 L2168.81 397.612 L2173.32 397.612 L2161.93 425.945 Z" fill="#000000" fill-rule="evenodd" fill-opacity="1" /><path clip-path="url(#clip470)" d="M2190.38 404.394 Q2187.23 404.394 2185.38 406.547 Q2183.55 408.7 2183.55 412.45 Q2183.55 416.176 2185.38 418.352 Q2187.23 420.505 2190.38 420.505 Q2193.53 420.505 2195.36 418.352 Q2197.21 416.176 2197.21 412.45 Q2197.21 408.7 2195.36 406.547 Q2193.53 404.394 2190.38 404.394 M2199.66 389.741 L2199.66 394.001 Q2197.91 393.167 2196.1 392.728 Q2194.32 392.288 2192.56 392.288 Q2187.93 392.288 2185.47 395.413 Q2183.04 398.538 2182.7 404.857 Q2184.06 402.843 2186.12 401.778 Q2188.18 400.69 2190.66 400.69 Q2195.87 400.69 2198.88 403.862 Q2201.91 407.01 2201.91 412.45 Q2201.91 417.774 2198.76 420.991 Q2195.61 424.209 2190.38 424.209 Q2184.39 424.209 2181.22 419.626 Q2178.04 415.019 2178.04 406.292 Q2178.04 398.098 2181.93 393.237 Q2185.82 388.353 2192.37 388.353 Q2194.13 388.353 2195.91 388.7 Q2197.72 389.047 2199.66 389.741 Z" fill="#000000" fill-rule="evenodd" fill-opacity="1" /><polyline clip-path="url(#clip470)" style="stroke:#ed5d92; stroke-linecap:butt; stroke-linejoin:round; stroke-width:4; stroke-opacity:1; fill:none" points="
  1979.59,458.098 2124.02,458.098 
  "/>
<path clip-path="url(#clip470)" d="M2161.93 477.785 Q2160.13 482.415 2158.41 483.827 Q2156.7 485.239 2153.83 485.239 L2150.43 485.239 L2150.43 481.674 L2152.93 481.674 Q2154.69 481.674 2155.66 480.84 Q2156.63 480.007 2157.81 476.905 L2158.58 474.961 L2148.09 449.452 L2152.6 449.452 L2160.71 469.729 L2168.81 449.452 L2173.32 449.452 L2161.93 477.785 Z" fill="#000000" fill-rule="evenodd" fill-opacity="1" /><path clip-path="url(#clip470)" d="M2178.62 440.818 L2200.85 440.818 L2200.85 442.808 L2188.3 475.378 L2183.41 475.378 L2195.22 444.753 L2178.62 444.753 L2178.62 440.818 Z" fill="#000000" fill-rule="evenodd" fill-opacity="1" /><polyline clip-path="url(#clip470)" style="stroke:#c68125; stroke-linecap:butt; stroke-linejoin:round; stroke-width:4; stroke-opacity:1; fill:none" points="
  1979.59,509.938 2124.02,509.938 
  "/>
<path clip-path="url(#clip470)" d="M2161.93 529.625 Q2160.13 534.255 2158.41 535.667 Q2156.7 537.079 2153.83 537.079 L2150.43 537.079 L2150.43 533.514 L2152.93 533.514 Q2154.69 533.514 2155.66 532.68 Q2156.63 531.847 2157.81 528.745 L2158.58 526.801 L2148.09 501.292 L2152.6 501.292 L2160.71 521.569 L2168.81 501.292 L2173.32 501.292 L2161.93 529.625 Z" fill="#000000" fill-rule="evenodd" fill-opacity="1" /><path clip-path="url(#clip470)" d="M2189.8 510.806 Q2186.47 510.806 2184.55 512.588 Q2182.65 514.37 2182.65 517.495 Q2182.65 520.62 2184.55 522.403 Q2186.47 524.185 2189.8 524.185 Q2193.14 524.185 2195.06 522.403 Q2196.98 520.597 2196.98 517.495 Q2196.98 514.37 2195.06 512.588 Q2193.16 510.806 2189.8 510.806 M2185.13 508.815 Q2182.12 508.074 2180.43 506.014 Q2178.76 503.954 2178.76 500.991 Q2178.76 496.847 2181.7 494.44 Q2184.66 492.033 2189.8 492.033 Q2194.97 492.033 2197.91 494.44 Q2200.85 496.847 2200.85 500.991 Q2200.85 503.954 2199.16 506.014 Q2197.49 508.074 2194.5 508.815 Q2197.88 509.602 2199.76 511.894 Q2201.66 514.185 2201.66 517.495 Q2201.66 522.519 2198.58 525.204 Q2195.52 527.889 2189.8 527.889 Q2184.09 527.889 2181.01 525.204 Q2177.95 522.519 2177.95 517.495 Q2177.95 514.185 2179.85 511.894 Q2181.75 509.602 2185.13 508.815 M2183.41 501.431 Q2183.41 504.116 2185.08 505.62 Q2186.77 507.125 2189.8 507.125 Q2192.81 507.125 2194.5 505.62 Q2196.22 504.116 2196.22 501.431 Q2196.22 498.745 2194.5 497.241 Q2192.81 495.736 2189.8 495.736 Q2186.77 495.736 2185.08 497.241 Q2183.41 498.745 2183.41 501.431 Z" fill="#000000" fill-rule="evenodd" fill-opacity="1" /><polyline clip-path="url(#clip470)" style="stroke:#00a98d; stroke-linecap:butt; stroke-linejoin:round; stroke-width:4; stroke-opacity:1; fill:none" points="
  1979.59,561.778 2124.02,561.778 
  "/>
<path clip-path="url(#clip470)" d="M2161.93 581.465 Q2160.13 586.095 2158.41 587.507 Q2156.7 588.919 2153.83 588.919 L2150.43 588.919 L2150.43 585.354 L2152.93 585.354 Q2154.69 585.354 2155.66 584.52 Q2156.63 583.687 2157.81 580.585 L2158.58 578.641 L2148.09 553.132 L2152.6 553.132 L2160.71 573.409 L2168.81 553.132 L2173.32 553.132 L2161.93 581.465 Z" fill="#000000" fill-rule="evenodd" fill-opacity="1" /><path clip-path="url(#clip470)" d="M2179.94 578.34 L2179.94 574.081 Q2181.7 574.914 2183.51 575.354 Q2185.31 575.794 2187.05 575.794 Q2191.68 575.794 2194.11 572.692 Q2196.56 569.567 2196.91 563.224 Q2195.57 565.215 2193.51 566.28 Q2191.45 567.345 2188.95 567.345 Q2183.76 567.345 2180.73 564.22 Q2177.72 561.072 2177.72 555.632 Q2177.72 550.308 2180.87 547.09 Q2184.02 543.873 2189.25 543.873 Q2195.24 543.873 2198.39 548.479 Q2201.56 553.062 2201.56 561.812 Q2201.56 569.984 2197.67 574.868 Q2193.81 579.729 2187.26 579.729 Q2185.5 579.729 2183.69 579.382 Q2181.89 579.034 2179.94 578.34 M2189.25 563.687 Q2192.4 563.687 2194.22 561.534 Q2196.08 559.382 2196.08 555.632 Q2196.08 551.905 2194.22 549.752 Q2192.4 547.576 2189.25 547.576 Q2186.1 547.576 2184.25 549.752 Q2182.42 551.905 2182.42 555.632 Q2182.42 559.382 2184.25 561.534 Q2186.1 563.687 2189.25 563.687 Z" fill="#000000" fill-rule="evenodd" fill-opacity="1" /><polyline clip-path="url(#clip470)" style="stroke:#8e971d; stroke-linecap:butt; stroke-linejoin:round; stroke-width:4; stroke-opacity:1; fill:none" points="
  1979.59,613.618 2124.02,613.618 
  "/>
<path clip-path="url(#clip470)" d="M2161.93 633.305 Q2160.13 637.935 2158.41 639.347 Q2156.7 640.759 2153.83 640.759 L2150.43 640.759 L2150.43 637.194 L2152.93 637.194 Q2154.69 637.194 2155.66 636.36 Q2156.63 635.527 2157.81 632.425 L2158.58 630.481 L2148.09 604.972 L2152.6 604.972 L2160.71 625.249 L2168.81 604.972 L2173.32 604.972 L2161.93 633.305 Z" fill="#000000" fill-rule="evenodd" fill-opacity="1" /><path clip-path="url(#clip470)" d="M2180.61 626.962 L2188.25 626.962 L2188.25 600.597 L2179.94 602.263 L2179.94 598.004 L2188.21 596.338 L2192.88 596.338 L2192.88 626.962 L2200.52 626.962 L2200.52 630.898 L2180.61 630.898 L2180.61 626.962 Z" fill="#000000" fill-rule="evenodd" fill-opacity="1" /><path clip-path="url(#clip470)" d="M2219.97 599.416 Q2216.35 599.416 2214.53 602.981 Q2212.72 606.523 2212.72 613.652 Q2212.72 620.759 2214.53 624.324 Q2216.35 627.865 2219.97 627.865 Q2223.6 627.865 2225.41 624.324 Q2227.23 620.759 2227.23 613.652 Q2227.23 606.523 2225.41 602.981 Q2223.6 599.416 2219.97 599.416 M2219.97 595.713 Q2225.78 595.713 2228.83 600.319 Q2231.91 604.902 2231.91 613.652 Q2231.91 622.379 2228.83 626.986 Q2225.78 631.569 2219.97 631.569 Q2214.16 631.569 2211.08 626.986 Q2208.02 622.379 2208.02 613.652 Q2208.02 604.902 2211.08 600.319 Q2214.16 595.713 2219.97 595.713 Z" fill="#000000" fill-rule="evenodd" fill-opacity="1" /><polyline clip-path="url(#clip470)" style="stroke:#00a8cb; stroke-linecap:butt; stroke-linejoin:round; stroke-width:4; stroke-opacity:1; fill:none" points="
  1979.59,665.458 2124.02,665.458 
  "/>
<path clip-path="url(#clip470)" d="M2161.93 685.145 Q2160.13 689.775 2158.41 691.187 Q2156.7 692.599 2153.83 692.599 L2150.43 692.599 L2150.43 689.034 L2152.93 689.034 Q2154.69 689.034 2155.66 688.2 Q2156.63 687.367 2157.81 684.265 L2158.58 682.321 L2148.09 656.812 L2152.6 656.812 L2160.71 677.089 L2168.81 656.812 L2173.32 656.812 L2161.93 685.145 Z" fill="#000000" fill-rule="evenodd" fill-opacity="1" /><path clip-path="url(#clip470)" d="M2180.61 678.802 L2188.25 678.802 L2188.25 652.437 L2179.94 654.103 L2179.94 649.844 L2188.21 648.178 L2192.88 648.178 L2192.88 678.802 L2200.52 678.802 L2200.52 682.738 L2180.61 682.738 L2180.61 678.802 Z" fill="#000000" fill-rule="evenodd" fill-opacity="1" /><path clip-path="url(#clip470)" d="M2210.78 678.802 L2218.41 678.802 L2218.41 652.437 L2210.1 654.103 L2210.1 649.844 L2218.37 648.178 L2223.04 648.178 L2223.04 678.802 L2230.68 678.802 L2230.68 682.738 L2210.78 682.738 L2210.78 678.802 Z" fill="#000000" fill-rule="evenodd" fill-opacity="1" /><polyline clip-path="url(#clip470)" style="stroke:#9b7fe8; stroke-linecap:butt; stroke-linejoin:round; stroke-width:4; stroke-opacity:1; fill:none" points="
  1979.59,717.298 2124.02,717.298 
  "/>
<path clip-path="url(#clip470)" d="M2161.93 736.985 Q2160.13 741.615 2158.41 743.027 Q2156.7 744.439 2153.83 744.439 L2150.43 744.439 L2150.43 740.874 L2152.93 740.874 Q2154.69 740.874 2155.66 740.04 Q2156.63 739.207 2157.81 736.105 L2158.58 734.161 L2148.09 708.652 L2152.6 708.652 L2160.71 728.929 L2168.81 708.652 L2173.32 708.652 L2161.93 736.985 Z" fill="#000000" fill-rule="evenodd" fill-opacity="1" /><path clip-path="url(#clip470)" d="M2180.61 730.642 L2188.25 730.642 L2188.25 704.277 L2179.94 705.943 L2179.94 701.684 L2188.21 700.018 L2192.88 700.018 L2192.88 730.642 L2200.52 730.642 L2200.52 734.578 L2180.61 734.578 L2180.61 730.642 Z" fill="#000000" fill-rule="evenodd" fill-opacity="1" /><path clip-path="url(#clip470)" d="M2213.99 730.642 L2230.31 730.642 L2230.31 734.578 L2208.37 734.578 L2208.37 730.642 Q2211.03 727.888 2215.61 723.258 Q2220.22 718.605 2221.4 717.263 Q2223.65 714.74 2224.53 713.004 Q2225.43 711.244 2225.43 709.555 Q2225.43 706.8 2223.48 705.064 Q2221.56 703.328 2218.46 703.328 Q2216.26 703.328 2213.81 704.092 Q2211.38 704.855 2208.6 706.406 L2208.6 701.684 Q2211.42 700.55 2213.88 699.971 Q2216.33 699.393 2218.37 699.393 Q2223.74 699.393 2226.93 702.078 Q2230.13 704.763 2230.13 709.254 Q2230.13 711.383 2229.32 713.305 Q2228.53 715.203 2226.42 717.795 Q2225.84 718.467 2222.74 721.684 Q2219.64 724.879 2213.99 730.642 Z" fill="#000000" fill-rule="evenodd" fill-opacity="1" /><polyline clip-path="url(#clip470)" style="stroke:#608cf6; stroke-linecap:butt; stroke-linejoin:round; stroke-width:4; stroke-opacity:1; fill:none" points="
  1979.59,769.138 2124.02,769.138 
  "/>
<path clip-path="url(#clip470)" d="M2161.93 788.825 Q2160.13 793.455 2158.41 794.867 Q2156.7 796.279 2153.83 796.279 L2150.43 796.279 L2150.43 792.714 L2152.93 792.714 Q2154.69 792.714 2155.66 791.88 Q2156.63 791.047 2157.81 787.945 L2158.58 786.001 L2148.09 760.492 L2152.6 760.492 L2160.71 780.769 L2168.81 760.492 L2173.32 760.492 L2161.93 788.825 Z" fill="#000000" fill-rule="evenodd" fill-opacity="1" /><path clip-path="url(#clip470)" d="M2180.61 782.482 L2188.25 782.482 L2188.25 756.117 L2179.94 757.783 L2179.94 753.524 L2188.21 751.858 L2192.88 751.858 L2192.88 782.482 L2200.52 782.482 L2200.52 786.418 L2180.61 786.418 L2180.61 782.482 Z" fill="#000000" fill-rule="evenodd" fill-opacity="1" /><path clip-path="url(#clip470)" d="M2224.13 767.783 Q2227.49 768.501 2229.36 770.769 Q2231.26 773.038 2231.26 776.371 Q2231.26 781.487 2227.74 784.288 Q2224.22 787.089 2217.74 787.089 Q2215.57 787.089 2213.25 786.649 Q2210.96 786.232 2208.51 785.376 L2208.51 780.862 Q2210.45 781.996 2212.77 782.575 Q2215.08 783.154 2217.6 783.154 Q2222 783.154 2224.29 781.418 Q2226.61 779.681 2226.61 776.371 Q2226.61 773.316 2224.46 771.603 Q2222.33 769.867 2218.51 769.867 L2214.48 769.867 L2214.48 766.024 L2218.69 766.024 Q2222.14 766.024 2223.97 764.658 Q2225.8 763.27 2225.8 760.677 Q2225.8 758.015 2223.9 756.603 Q2222.03 755.168 2218.51 755.168 Q2216.59 755.168 2214.39 755.584 Q2212.19 756.001 2209.55 756.881 L2209.55 752.714 Q2212.21 751.973 2214.53 751.603 Q2216.86 751.233 2218.92 751.233 Q2224.25 751.233 2227.35 753.663 Q2230.45 756.07 2230.45 760.191 Q2230.45 763.061 2228.81 765.052 Q2227.16 767.02 2224.13 767.783 Z" fill="#000000" fill-rule="evenodd" fill-opacity="1" /><polyline clip-path="url(#clip470)" style="stroke:#f05f73; stroke-linecap:butt; stroke-linejoin:round; stroke-width:4; stroke-opacity:1; fill:none" points="
  1979.59,820.978 2124.02,820.978 
  "/>
<path clip-path="url(#clip470)" d="M2161.93 840.665 Q2160.13 845.295 2158.41 846.707 Q2156.7 848.119 2153.83 848.119 L2150.43 848.119 L2150.43 844.554 L2152.93 844.554 Q2154.69 844.554 2155.66 843.72 Q2156.63 842.887 2157.81 839.785 L2158.58 837.841 L2148.09 812.332 L2152.6 812.332 L2160.71 832.609 L2168.81 812.332 L2173.32 812.332 L2161.93 840.665 Z" fill="#000000" fill-rule="evenodd" fill-opacity="1" /><path clip-path="url(#clip470)" d="M2180.61 834.322 L2188.25 834.322 L2188.25 807.957 L2179.94 809.623 L2179.94 805.364 L2188.21 803.698 L2192.88 803.698 L2192.88 834.322 L2200.52 834.322 L2200.52 838.258 L2180.61 838.258 L2180.61 834.322 Z" fill="#000000" fill-rule="evenodd" fill-opacity="1" /><path clip-path="url(#clip470)" d="M2222.81 807.772 L2211.01 826.221 L2222.81 826.221 L2222.81 807.772 M2221.59 803.698 L2227.47 803.698 L2227.47 826.221 L2232.4 826.221 L2232.4 830.109 L2227.47 830.109 L2227.47 838.258 L2222.81 838.258 L2222.81 830.109 L2207.21 830.109 L2207.21 825.596 L2221.59 803.698 Z" fill="#000000" fill-rule="evenodd" fill-opacity="1" /><polyline clip-path="url(#clip470)" style="stroke:#dd64b5; stroke-linecap:butt; stroke-linejoin:round; stroke-width:4; stroke-opacity:1; fill:none" points="
  1979.59,872.818 2124.02,872.818 
  "/>
<path clip-path="url(#clip470)" d="M2161.93 892.505 Q2160.13 897.135 2158.41 898.547 Q2156.7 899.959 2153.83 899.959 L2150.43 899.959 L2150.43 896.394 L2152.93 896.394 Q2154.69 896.394 2155.66 895.56 Q2156.63 894.727 2157.81 891.625 L2158.58 889.681 L2148.09 864.172 L2152.6 864.172 L2160.71 884.449 L2168.81 864.172 L2173.32 864.172 L2161.93 892.505 Z" fill="#000000" fill-rule="evenodd" fill-opacity="1" /><path clip-path="url(#clip470)" d="M2180.61 886.162 L2188.25 886.162 L2188.25 859.797 L2179.94 861.463 L2179.94 857.204 L2188.21 855.538 L2192.88 855.538 L2192.88 886.162 L2200.52 886.162 L2200.52 890.098 L2180.61 890.098 L2180.61 886.162 Z" fill="#000000" fill-rule="evenodd" fill-opacity="1" /><path clip-path="url(#clip470)" d="M2210.01 855.538 L2228.37 855.538 L2228.37 859.473 L2214.29 859.473 L2214.29 867.945 Q2215.31 867.598 2216.33 867.436 Q2217.35 867.25 2218.37 867.25 Q2224.16 867.25 2227.53 870.422 Q2230.91 873.593 2230.91 879.01 Q2230.91 884.588 2227.44 887.69 Q2223.97 890.769 2217.65 890.769 Q2215.47 890.769 2213.21 890.398 Q2210.96 890.028 2208.55 889.287 L2208.55 884.588 Q2210.64 885.723 2212.86 886.278 Q2215.08 886.834 2217.56 886.834 Q2221.56 886.834 2223.9 884.727 Q2226.24 882.621 2226.24 879.01 Q2226.24 875.399 2223.9 873.292 Q2221.56 871.186 2217.56 871.186 Q2215.68 871.186 2213.81 871.602 Q2211.96 872.019 2210.01 872.899 L2210.01 855.538 Z" fill="#000000" fill-rule="evenodd" fill-opacity="1" /><polyline clip-path="url(#clip470)" style="stroke:#6b9e32; stroke-linecap:butt; stroke-linejoin:round; stroke-width:4; stroke-opacity:1; fill:none" points="
  1979.59,924.658 2124.02,924.658 
  "/>
<path clip-path="url(#clip470)" d="M2161.93 944.345 Q2160.13 948.975 2158.41 950.387 Q2156.7 951.799 2153.83 951.799 L2150.43 951.799 L2150.43 948.234 L2152.93 948.234 Q2154.69 948.234 2155.66 947.4 Q2156.63 946.567 2157.81 943.465 L2158.58 941.521 L2148.09 916.012 L2152.6 916.012 L2160.71 936.289 L2168.81 916.012 L2173.32 916.012 L2161.93 944.345 Z" fill="#000000" fill-rule="evenodd" fill-opacity="1" /><path clip-path="url(#clip470)" d="M2180.61 938.002 L2188.25 938.002 L2188.25 911.637 L2179.94 913.303 L2179.94 909.044 L2188.21 907.378 L2192.88 907.378 L2192.88 938.002 L2200.52 938.002 L2200.52 941.938 L2180.61 941.938 L2180.61 938.002 Z" fill="#000000" fill-rule="evenodd" fill-opacity="1" /><path clip-path="url(#clip470)" d="M2220.54 922.794 Q2217.4 922.794 2215.54 924.947 Q2213.72 927.1 2213.72 930.85 Q2213.72 934.576 2215.54 936.752 Q2217.4 938.905 2220.54 938.905 Q2223.69 938.905 2225.52 936.752 Q2227.37 934.576 2227.37 930.85 Q2227.37 927.1 2225.52 924.947 Q2223.69 922.794 2220.54 922.794 M2229.83 908.141 L2229.83 912.401 Q2228.07 911.567 2226.26 911.128 Q2224.48 910.688 2222.72 910.688 Q2218.09 910.688 2215.64 913.813 Q2213.21 916.938 2212.86 923.257 Q2214.22 921.243 2216.28 920.178 Q2218.34 919.09 2220.82 919.09 Q2226.03 919.09 2229.04 922.262 Q2232.07 925.41 2232.07 930.85 Q2232.07 936.174 2228.92 939.391 Q2225.78 942.609 2220.54 942.609 Q2214.55 942.609 2211.38 938.026 Q2208.21 933.419 2208.21 924.692 Q2208.21 916.498 2212.09 911.637 Q2215.98 906.753 2222.53 906.753 Q2224.29 906.753 2226.08 907.1 Q2227.88 907.447 2229.83 908.141 Z" fill="#000000" fill-rule="evenodd" fill-opacity="1" /><polyline clip-path="url(#clip470)" style="stroke:#009af9; stroke-linecap:butt; stroke-linejoin:round; stroke-width:4; stroke-opacity:1; fill:none" points="
  1979.59,976.498 2124.02,976.498 
  "/>
<path clip-path="url(#clip470)" d="M2161.93 996.185 Q2160.13 1000.81 2158.41 1002.23 Q2156.7 1003.64 2153.83 1003.64 L2150.43 1003.64 L2150.43 1000.07 L2152.93 1000.07 Q2154.69 1000.07 2155.66 999.24 Q2156.63 998.407 2157.81 995.305 L2158.58 993.361 L2148.09 967.852 L2152.6 967.852 L2160.71 988.129 L2168.81 967.852 L2173.32 967.852 L2161.93 996.185 Z" fill="#000000" fill-rule="evenodd" fill-opacity="1" /><path clip-path="url(#clip470)" d="M2180.61 989.842 L2188.25 989.842 L2188.25 963.477 L2179.94 965.143 L2179.94 960.884 L2188.21 959.218 L2192.88 959.218 L2192.88 989.842 L2200.52 989.842 L2200.52 993.778 L2180.61 993.778 L2180.61 989.842 Z" fill="#000000" fill-rule="evenodd" fill-opacity="1" /><path clip-path="url(#clip470)" d="M2208.78 959.218 L2231.01 959.218 L2231.01 961.208 L2218.46 993.778 L2213.58 993.778 L2225.38 963.153 L2208.78 963.153 L2208.78 959.218 Z" fill="#000000" fill-rule="evenodd" fill-opacity="1" /><polyline clip-path="url(#clip470)" style="stroke:#e26f46; stroke-linecap:butt; stroke-linejoin:round; stroke-width:4; stroke-opacity:1; fill:none" points="
  1979.59,1028.34 2124.02,1028.34 
  "/>
<path clip-path="url(#clip470)" d="M2161.93 1048.02 Q2160.13 1052.65 2158.41 1054.07 Q2156.7 1055.48 2153.83 1055.48 L2150.43 1055.48 L2150.43 1051.91 L2152.93 1051.91 Q2154.69 1051.91 2155.66 1051.08 Q2156.63 1050.25 2157.81 1047.15 L2158.58 1045.2 L2148.09 1019.69 L2152.6 1019.69 L2160.71 1039.97 L2168.81 1019.69 L2173.32 1019.69 L2161.93 1048.02 Z" fill="#000000" fill-rule="evenodd" fill-opacity="1" /><path clip-path="url(#clip470)" d="M2180.61 1041.68 L2188.25 1041.68 L2188.25 1015.32 L2179.94 1016.98 L2179.94 1012.72 L2188.21 1011.06 L2192.88 1011.06 L2192.88 1041.68 L2200.52 1041.68 L2200.52 1045.62 L2180.61 1045.62 L2180.61 1041.68 Z" fill="#000000" fill-rule="evenodd" fill-opacity="1" /><path clip-path="url(#clip470)" d="M2219.97 1029.21 Q2216.63 1029.21 2214.71 1030.99 Q2212.81 1032.77 2212.81 1035.9 Q2212.81 1039.02 2214.71 1040.8 Q2216.63 1042.59 2219.97 1042.59 Q2223.3 1042.59 2225.22 1040.8 Q2227.14 1039 2227.14 1035.9 Q2227.14 1032.77 2225.22 1030.99 Q2223.32 1029.21 2219.97 1029.21 M2215.29 1027.21 Q2212.28 1026.47 2210.59 1024.41 Q2208.92 1022.35 2208.92 1019.39 Q2208.92 1015.25 2211.86 1012.84 Q2214.83 1010.43 2219.97 1010.43 Q2225.13 1010.43 2228.07 1012.84 Q2231.01 1015.25 2231.01 1019.39 Q2231.01 1022.35 2229.32 1024.41 Q2227.65 1026.47 2224.66 1027.21 Q2228.04 1028 2229.92 1030.29 Q2231.82 1032.59 2231.82 1035.9 Q2231.82 1040.92 2228.74 1043.6 Q2225.68 1046.29 2219.97 1046.29 Q2214.25 1046.29 2211.17 1043.6 Q2208.11 1040.92 2208.11 1035.9 Q2208.11 1032.59 2210.01 1030.29 Q2211.91 1028 2215.29 1027.21 M2213.58 1019.83 Q2213.58 1022.52 2215.24 1024.02 Q2216.93 1025.53 2219.97 1025.53 Q2222.97 1025.53 2224.66 1024.02 Q2226.38 1022.52 2226.38 1019.83 Q2226.38 1017.15 2224.66 1015.64 Q2222.97 1014.14 2219.97 1014.14 Q2216.93 1014.14 2215.24 1015.64 Q2213.58 1017.15 2213.58 1019.83 Z" fill="#000000" fill-rule="evenodd" fill-opacity="1" /><polyline clip-path="url(#clip470)" style="stroke:#3da44d; stroke-linecap:butt; stroke-linejoin:round; stroke-width:4; stroke-opacity:1; fill:none" points="
  1979.59,1080.18 2124.02,1080.18 
  "/>
<path clip-path="url(#clip470)" d="M2161.93 1099.86 Q2160.13 1104.49 2158.41 1105.91 Q2156.7 1107.32 2153.83 1107.32 L2150.43 1107.32 L2150.43 1103.75 L2152.93 1103.75 Q2154.69 1103.75 2155.66 1102.92 Q2156.63 1102.09 2157.81 1098.99 L2158.58 1097.04 L2148.09 1071.53 L2152.6 1071.53 L2160.71 1091.81 L2168.81 1071.53 L2173.32 1071.53 L2161.93 1099.86 Z" fill="#000000" fill-rule="evenodd" fill-opacity="1" /><path clip-path="url(#clip470)" d="M2180.61 1093.52 L2188.25 1093.52 L2188.25 1067.16 L2179.94 1068.82 L2179.94 1064.56 L2188.21 1062.9 L2192.88 1062.9 L2192.88 1093.52 L2200.52 1093.52 L2200.52 1097.46 L2180.61 1097.46 L2180.61 1093.52 Z" fill="#000000" fill-rule="evenodd" fill-opacity="1" /><path clip-path="url(#clip470)" d="M2210.1 1096.74 L2210.1 1092.48 Q2211.86 1093.31 2213.67 1093.75 Q2215.47 1094.19 2217.21 1094.19 Q2221.84 1094.19 2224.27 1091.09 Q2226.72 1087.97 2227.07 1081.62 Q2225.73 1083.62 2223.67 1084.68 Q2221.61 1085.74 2219.11 1085.74 Q2213.92 1085.74 2210.89 1082.62 Q2207.88 1079.47 2207.88 1074.03 Q2207.88 1068.71 2211.03 1065.49 Q2214.18 1062.27 2219.41 1062.27 Q2225.41 1062.27 2228.55 1066.88 Q2231.72 1071.46 2231.72 1080.21 Q2231.72 1088.38 2227.84 1093.27 Q2223.97 1098.13 2217.42 1098.13 Q2215.66 1098.13 2213.85 1097.78 Q2212.05 1097.43 2210.1 1096.74 M2219.41 1082.09 Q2222.56 1082.09 2224.39 1079.93 Q2226.24 1077.78 2226.24 1074.03 Q2226.24 1070.3 2224.39 1068.15 Q2222.56 1065.98 2219.41 1065.98 Q2216.26 1065.98 2214.41 1068.15 Q2212.58 1070.3 2212.58 1074.03 Q2212.58 1077.78 2214.41 1079.93 Q2216.26 1082.09 2219.41 1082.09 Z" fill="#000000" fill-rule="evenodd" fill-opacity="1" /><polyline clip-path="url(#clip470)" style="stroke:#c271d2; stroke-linecap:butt; stroke-linejoin:round; stroke-width:4; stroke-opacity:1; fill:none" points="
  1979.59,1132.02 2124.02,1132.02 
  "/>
<path clip-path="url(#clip470)" d="M2161.93 1151.7 Q2160.13 1156.33 2158.41 1157.75 Q2156.7 1159.16 2153.83 1159.16 L2150.43 1159.16 L2150.43 1155.59 L2152.93 1155.59 Q2154.69 1155.59 2155.66 1154.76 Q2156.63 1153.93 2157.81 1150.83 L2158.58 1148.88 L2148.09 1123.37 L2152.6 1123.37 L2160.71 1143.65 L2168.81 1123.37 L2173.32 1123.37 L2161.93 1151.7 Z" fill="#000000" fill-rule="evenodd" fill-opacity="1" /><path clip-path="url(#clip470)" d="M2183.83 1145.36 L2200.15 1145.36 L2200.15 1149.3 L2178.21 1149.3 L2178.21 1145.36 Q2180.87 1142.61 2185.45 1137.98 Q2190.06 1133.33 2191.24 1131.98 Q2193.48 1129.46 2194.36 1127.72 Q2195.27 1125.96 2195.27 1124.27 Q2195.27 1121.52 2193.32 1119.78 Q2191.4 1118.05 2188.3 1118.05 Q2186.1 1118.05 2183.65 1118.81 Q2181.22 1119.58 2178.44 1121.13 L2178.44 1116.4 Q2181.26 1115.27 2183.72 1114.69 Q2186.17 1114.11 2188.21 1114.11 Q2193.58 1114.11 2196.77 1116.8 Q2199.97 1119.48 2199.97 1123.97 Q2199.97 1126.1 2199.16 1128.02 Q2198.37 1129.92 2196.26 1132.52 Q2195.68 1133.19 2192.58 1136.4 Q2189.48 1139.6 2183.83 1145.36 Z" fill="#000000" fill-rule="evenodd" fill-opacity="1" /><path clip-path="url(#clip470)" d="M2219.97 1117.82 Q2216.35 1117.82 2214.53 1121.38 Q2212.72 1124.92 2212.72 1132.05 Q2212.72 1139.16 2214.53 1142.72 Q2216.35 1146.27 2219.97 1146.27 Q2223.6 1146.27 2225.41 1142.72 Q2227.23 1139.16 2227.23 1132.05 Q2227.23 1124.92 2225.41 1121.38 Q2223.6 1117.82 2219.97 1117.82 M2219.97 1114.11 Q2225.78 1114.11 2228.83 1118.72 Q2231.91 1123.3 2231.91 1132.05 Q2231.91 1140.78 2228.83 1145.39 Q2225.78 1149.97 2219.97 1149.97 Q2214.16 1149.97 2211.08 1145.39 Q2208.02 1140.78 2208.02 1132.05 Q2208.02 1123.3 2211.08 1118.72 Q2214.16 1114.11 2219.97 1114.11 Z" fill="#000000" fill-rule="evenodd" fill-opacity="1" /></svg>
