<?xml version="1.0" encoding="utf-8"?>
<svg xmlns="http://www.w3.org/2000/svg" xmlns:xlink="http://www.w3.org/1999/xlink" width="600" height="400" viewBox="0 0 2400 1600">
<defs>
  <clipPath id="clip280">
    <rect x="0" y="0" width="2400" height="1600"/>
  </clipPath>
</defs>
<path clip-path="url(#clip280)" d="
M0 1600 L2400 1600 L2400 0 L0 0  Z
  " fill="#ffffff" fill-rule="evenodd" fill-opacity="1"/>
<defs>
  <clipPath id="clip281">
    <rect x="480" y="0" width="1681" height="1600"/>
  </clipPath>
</defs>
<defs>
  <clipPath id="clip282">
    <rect x="194" y="47" width="2159" height="1440"/>
  </clipPath>
</defs>
<path clip-path="url(#clip280)" d="
M193.936 1486.45 L2352.76 1486.45 L2352.76 47.2441 L193.936 47.2441  Z
  " fill="#ffffff" fill-rule="evenodd" fill-opacity="1"/>
<defs>
  <clipPath id="clip283">
    <rect x="193" y="47" width="2160" height="1440"/>
  </clipPath>
</defs>
<polyline clip-path="url(#clip283)" style="stroke:#000000; stroke-linecap:butt; stroke-linejoin:round; stroke-width:2; stroke-opacity:0.1; fill:none" points="
  255.035,1486.45 255.035,47.2441 
  "/>
<polyline clip-path="url(#clip283)" style="stroke:#000000; stroke-linecap:butt; stroke-linejoin:round; stroke-width:2; stroke-opacity:0.1; fill:none" points="
  764.19,1486.45 764.19,47.2441 
  "/>
<polyline clip-path="url(#clip283)" style="stroke:#000000; stroke-linecap:butt; stroke-linejoin:round; stroke-width:2; stroke-opacity:0.1; fill:none" points="
  1273.35,1486.45 1273.35,47.2441 
  "/>
<polyline clip-path="url(#clip283)" style="stroke:#000000; stroke-linecap:butt; stroke-linejoin:round; stroke-width:2; stroke-opacity:0.1; fill:none" points="
  1782.5,1486.45 1782.5,47.2441 
  "/>
<polyline clip-path="url(#clip283)" style="stroke:#000000; stroke-linecap:butt; stroke-linejoin:round; stroke-width:2; stroke-opacity:0.1; fill:none" points="
  2291.66,1486.45 2291.66,47.2441 
  "/>
<polyline clip-path="url(#clip280)" style="stroke:#000000; stroke-linecap:butt; stroke-linejoin:round; stroke-width:4; stroke-opacity:1; fill:none" points="
  193.936,1486.45 2352.76,1486.45 
  "/>
<polyline clip-path="url(#clip280)" style="stroke:#000000; stroke-linecap:butt; stroke-linejoin:round; stroke-width:4; stroke-opacity:1; fill:none" points="
  255.035,1486.45 255.035,1467.55 
  "/>
<polyline clip-path="url(#clip280)" style="stroke:#000000; stroke-linecap:butt; stroke-linejoin:round; stroke-width:4; stroke-opacity:1; fill:none" points="
  764.19,1486.45 764.19,1467.55 
  "/>
<polyline clip-path="url(#clip280)" style="stroke:#000000; stroke-linecap:butt; stroke-linejoin:round; stroke-width:4; stroke-opacity:1; fill:none" points="
  1273.35,1486.45 1273.35,1467.55 
  "/>
<polyline clip-path="url(#clip280)" style="stroke:#000000; stroke-linecap:butt; stroke-linejoin:round; stroke-width:4; stroke-opacity:1; fill:none" points="
  1782.5,1486.45 1782.5,1467.55 
  "/>
<polyline clip-path="url(#clip280)" style="stroke:#000000; stroke-linecap:butt; stroke-linejoin:round; stroke-width:4; stroke-opacity:1; fill:none" points="
  2291.66,1486.45 2291.66,1467.55 
  "/>
<path clip-path="url(#clip280)" d="M224.977 1532.02 L254.653 1532.02 L254.653 1535.95 L224.977 1535.95 L224.977 1532.02 Z" fill="#000000" fill-rule="evenodd" fill-opacity="1" /><path clip-path="url(#clip280)" d="M268.773 1544.91 L285.092 1544.91 L285.092 1548.85 L263.148 1548.85 L263.148 1544.91 Q265.81 1542.16 270.393 1537.53 Q275 1532.88 276.18 1531.53 Q278.426 1529.01 279.305 1527.27 Q280.208 1525.51 280.208 1523.82 Q280.208 1521.07 278.264 1519.33 Q276.342 1517.6 273.241 1517.6 Q271.042 1517.6 268.588 1518.36 Q266.157 1519.13 263.38 1520.68 L263.38 1515.95 Q266.204 1514.82 268.657 1514.24 Q271.111 1513.66 273.148 1513.66 Q278.518 1513.66 281.713 1516.35 Q284.907 1519.03 284.907 1523.52 Q284.907 1525.65 284.097 1527.57 Q283.31 1529.47 281.204 1532.07 Q280.625 1532.74 277.523 1535.95 Q274.421 1539.15 268.773 1544.91 Z" fill="#000000" fill-rule="evenodd" fill-opacity="1" /><path clip-path="url(#clip280)" d="M733.947 1532.02 L763.623 1532.02 L763.623 1535.95 L733.947 1535.95 L733.947 1532.02 Z" fill="#000000" fill-rule="evenodd" fill-opacity="1" /><path clip-path="url(#clip280)" d="M774.526 1544.91 L782.165 1544.91 L782.165 1518.55 L773.855 1520.21 L773.855 1515.95 L782.118 1514.29 L786.794 1514.29 L786.794 1544.91 L794.433 1544.91 L794.433 1548.85 L774.526 1548.85 L774.526 1544.91 Z" fill="#000000" fill-rule="evenodd" fill-opacity="1" /><path clip-path="url(#clip280)" d="M1273.35 1517.37 Q1269.73 1517.37 1267.91 1520.93 Q1266.1 1524.47 1266.1 1531.6 Q1266.1 1538.71 1267.91 1542.27 Q1269.73 1545.82 1273.35 1545.82 Q1276.98 1545.82 1278.79 1542.27 Q1280.61 1538.71 1280.61 1531.6 Q1280.61 1524.47 1278.79 1520.93 Q1276.98 1517.37 1273.35 1517.37 M1273.35 1513.66 Q1279.16 1513.66 1282.21 1518.27 Q1285.29 1522.85 1285.29 1531.6 Q1285.29 1540.33 1282.21 1544.94 Q1279.16 1549.52 1273.35 1549.52 Q1267.54 1549.52 1264.46 1544.94 Q1261.4 1540.33 1261.4 1531.6 Q1261.4 1522.85 1264.46 1518.27 Q1267.54 1513.66 1273.35 1513.66 Z" fill="#000000" fill-rule="evenodd" fill-opacity="1" /><path clip-path="url(#clip280)" d="M1772.88 1544.91 L1780.52 1544.91 L1780.52 1518.55 L1772.21 1520.21 L1772.21 1515.95 L1780.48 1514.29 L1785.15 1514.29 L1785.15 1544.91 L1792.79 1544.91 L1792.79 1548.85 L1772.88 1548.85 L1772.88 1544.91 Z" fill="#000000" fill-rule="evenodd" fill-opacity="1" /><path clip-path="url(#clip280)" d="M2286.31 1544.91 L2302.63 1544.91 L2302.63 1548.85 L2280.69 1548.85 L2280.69 1544.91 Q2283.35 1542.16 2287.93 1537.53 Q2292.54 1532.88 2293.72 1531.53 Q2295.96 1529.01 2296.84 1527.27 Q2297.75 1525.51 2297.75 1523.82 Q2297.75 1521.07 2295.8 1519.33 Q2293.88 1517.6 2290.78 1517.6 Q2288.58 1517.6 2286.12 1518.36 Q2283.69 1519.13 2280.92 1520.68 L2280.92 1515.95 Q2283.74 1514.82 2286.19 1514.24 Q2288.65 1513.66 2290.69 1513.66 Q2296.06 1513.66 2299.25 1516.35 Q2302.44 1519.03 2302.44 1523.52 Q2302.44 1525.65 2301.63 1527.57 Q2300.85 1529.47 2298.74 1532.07 Q2298.16 1532.74 2295.06 1535.95 Q2291.96 1539.15 2286.31 1544.91 Z" fill="#000000" fill-rule="evenodd" fill-opacity="1" /><polyline clip-path="url(#clip283)" style="stroke:#000000; stroke-linecap:butt; stroke-linejoin:round; stroke-width:2; stroke-opacity:0.1; fill:none" points="
  193.936,1423.26 2352.76,1423.26 
  "/>
<polyline clip-path="url(#clip283)" style="stroke:#000000; stroke-linecap:butt; stroke-linejoin:round; stroke-width:2; stroke-opacity:0.1; fill:none" points="
  193.936,1095 2352.76,1095 
  "/>
<polyline clip-path="url(#clip283)" style="stroke:#000000; stroke-linecap:butt; stroke-linejoin:round; stroke-width:2; stroke-opacity:0.1; fill:none" points="
  193.936,766.73 2352.76,766.73 
  "/>
<polyline clip-path="url(#clip283)" style="stroke:#000000; stroke-linecap:butt; stroke-linejoin:round; stroke-width:2; stroke-opacity:0.1; fill:none" points="
  193.936,438.464 2352.76,438.464 
  "/>
<polyline clip-path="url(#clip283)" style="stroke:#000000; stroke-linecap:butt; stroke-linejoin:round; stroke-width:2; stroke-opacity:0.1; fill:none" points="
  193.936,110.197 2352.76,110.197 
  "/>
<polyline clip-path="url(#clip280)" style="stroke:#000000; stroke-linecap:butt; stroke-linejoin:round; stroke-width:4; stroke-opacity:1; fill:none" points="
  193.936,1486.45 193.936,47.2441 
  "/>
<polyline clip-path="url(#clip280)" style="stroke:#000000; stroke-linecap:butt; stroke-linejoin:round; stroke-width:4; stroke-opacity:1; fill:none" points="
  193.936,1423.26 212.834,1423.26 
  "/>
<polyline clip-path="url(#clip280)" style="stroke:#000000; stroke-linecap:butt; stroke-linejoin:round; stroke-width:4; stroke-opacity:1; fill:none" points="
  193.936,1095 212.834,1095 
  "/>
<polyline clip-path="url(#clip280)" style="stroke:#000000; stroke-linecap:butt; stroke-linejoin:round; stroke-width:4; stroke-opacity:1; fill:none" points="
  193.936,766.73 212.834,766.73 
  "/>
<polyline clip-path="url(#clip280)" style="stroke:#000000; stroke-linecap:butt; stroke-linejoin:round; stroke-width:4; stroke-opacity:1; fill:none" points="
  193.936,438.464 212.834,438.464 
  "/>
<polyline clip-path="url(#clip280)" style="stroke:#000000; stroke-linecap:butt; stroke-linejoin:round; stroke-width:4; stroke-opacity:1; fill:none" points="
  193.936,110.197 212.834,110.197 
  "/>
<path clip-path="url(#clip280)" d="M50.9921 1423.71 L80.6679 1423.71 L80.6679 1427.65 L50.9921 1427.65 L50.9921 1423.71 Z" fill="#000000" fill-rule="evenodd" fill-opacity="1" /><path clip-path="url(#clip280)" d="M91.5706 1436.61 L99.2095 1436.61 L99.2095 1410.24 L90.8993 1411.91 L90.8993 1407.65 L99.1632 1405.98 L103.839 1405.98 L103.839 1436.61 L111.478 1436.61 L111.478 1440.54 L91.5706 1440.54 L91.5706 1436.61 Z" fill="#000000" fill-rule="evenodd" fill-opacity="1" /><path clip-path="url(#clip280)" d="M120.922 1434.66 L125.807 1434.66 L125.807 1440.54 L120.922 1440.54 L120.922 1434.66 Z" fill="#000000" fill-rule="evenodd" fill-opacity="1" /><path clip-path="url(#clip280)" d="M145.992 1409.06 Q142.381 1409.06 140.552 1412.63 Q138.746 1416.17 138.746 1423.3 Q138.746 1430.4 140.552 1433.97 Q142.381 1437.51 145.992 1437.51 Q149.626 1437.51 151.431 1433.97 Q153.26 1430.4 153.26 1423.3 Q153.26 1416.17 151.431 1412.63 Q149.626 1409.06 145.992 1409.06 M145.992 1405.36 Q151.802 1405.36 154.857 1409.96 Q157.936 1414.55 157.936 1423.3 Q157.936 1432.03 154.857 1436.63 Q151.802 1441.21 145.992 1441.21 Q140.181 1441.21 137.103 1436.63 Q134.047 1432.03 134.047 1423.3 Q134.047 1414.55 137.103 1409.96 Q140.181 1405.36 145.992 1405.36 Z" fill="#000000" fill-rule="evenodd" fill-opacity="1" /><path clip-path="url(#clip280)" d="M51.9875 1095.45 L81.6633 1095.45 L81.6633 1099.38 L51.9875 1099.38 L51.9875 1095.45 Z" fill="#000000" fill-rule="evenodd" fill-opacity="1" /><path clip-path="url(#clip280)" d="M101.756 1080.8 Q98.1447 1080.8 96.316 1084.36 Q94.5104 1087.9 94.5104 1095.03 Q94.5104 1102.14 96.316 1105.7 Q98.1447 1109.24 101.756 1109.24 Q105.39 1109.24 107.196 1105.7 Q109.024 1102.14 109.024 1095.03 Q109.024 1087.9 107.196 1084.36 Q105.39 1080.8 101.756 1080.8 M101.756 1077.09 Q107.566 1077.09 110.621 1081.7 Q113.7 1086.28 113.7 1095.03 Q113.7 1103.76 110.621 1108.36 Q107.566 1112.95 101.756 1112.95 Q95.9456 1112.95 92.8669 1108.36 Q89.8114 1103.76 89.8114 1095.03 Q89.8114 1086.28 92.8669 1081.7 Q95.9456 1077.09 101.756 1077.09 Z" fill="#000000" fill-rule="evenodd" fill-opacity="1" /><path clip-path="url(#clip280)" d="M121.918 1106.4 L126.802 1106.4 L126.802 1112.28 L121.918 1112.28 L121.918 1106.4 Z" fill="#000000" fill-rule="evenodd" fill-opacity="1" /><path clip-path="url(#clip280)" d="M137.033 1077.72 L155.39 1077.72 L155.39 1081.65 L141.316 1081.65 L141.316 1090.12 Q142.334 1089.78 143.353 1089.61 Q144.371 1089.43 145.39 1089.43 Q151.177 1089.43 154.556 1092.6 Q157.936 1095.77 157.936 1101.19 Q157.936 1106.77 154.464 1109.87 Q150.992 1112.95 144.672 1112.95 Q142.496 1112.95 140.228 1112.58 Q137.982 1112.21 135.575 1111.47 L135.575 1106.77 Q137.658 1107.9 139.881 1108.46 Q142.103 1109.01 144.58 1109.01 Q148.584 1109.01 150.922 1106.91 Q153.26 1104.8 153.26 1101.19 Q153.26 1097.58 150.922 1095.47 Q148.584 1093.36 144.58 1093.36 Q142.705 1093.36 140.83 1093.78 Q138.978 1094.2 137.033 1095.08 L137.033 1077.72 Z" fill="#000000" fill-rule="evenodd" fill-opacity="1" /><path clip-path="url(#clip280)" d="M100.76 752.529 Q97.1493 752.529 95.3206 756.094 Q93.515 759.635 93.515 766.765 Q93.515 773.871 95.3206 777.436 Q97.1493 780.978 100.76 780.978 Q104.395 780.978 106.2 777.436 Q108.029 773.871 108.029 766.765 Q108.029 759.635 106.2 756.094 Q104.395 752.529 100.76 752.529 M100.76 748.825 Q106.571 748.825 109.626 753.432 Q112.705 758.015 112.705 766.765 Q112.705 775.492 109.626 780.098 Q106.571 784.681 100.76 784.681 Q94.9502 784.681 91.8715 780.098 Q88.816 775.492 88.816 766.765 Q88.816 758.015 91.8715 753.432 Q94.9502 748.825 100.76 748.825 Z" fill="#000000" fill-rule="evenodd" fill-opacity="1" /><path clip-path="url(#clip280)" d="M120.922 778.131 L125.807 778.131 L125.807 784.01 L120.922 784.01 L120.922 778.131 Z" fill="#000000" fill-rule="evenodd" fill-opacity="1" /><path clip-path="url(#clip280)" d="M145.992 752.529 Q142.381 752.529 140.552 756.094 Q138.746 759.635 138.746 766.765 Q138.746 773.871 140.552 777.436 Q142.381 780.978 145.992 780.978 Q149.626 780.978 151.431 777.436 Q153.26 773.871 153.26 766.765 Q153.26 759.635 151.431 756.094 Q149.626 752.529 145.992 752.529 M145.992 748.825 Q151.802 748.825 154.857 753.432 Q157.936 758.015 157.936 766.765 Q157.936 775.492 154.857 780.098 Q151.802 784.681 145.992 784.681 Q140.181 784.681 137.103 780.098 Q134.047 775.492 134.047 766.765 Q134.047 758.015 137.103 753.432 Q140.181 748.825 145.992 748.825 Z" fill="#000000" fill-rule="evenodd" fill-opacity="1" /><path clip-path="url(#clip280)" d="M101.756 424.262 Q98.1447 424.262 96.316 427.827 Q94.5104 431.369 94.5104 438.498 Q94.5104 445.605 96.316 449.169 Q98.1447 452.711 101.756 452.711 Q105.39 452.711 107.196 449.169 Q109.024 445.605 109.024 438.498 Q109.024 431.369 107.196 427.827 Q105.39 424.262 101.756 424.262 M101.756 420.559 Q107.566 420.559 110.621 425.165 Q113.7 429.748 113.7 438.498 Q113.7 447.225 110.621 451.831 Q107.566 456.415 101.756 456.415 Q95.9456 456.415 92.8669 451.831 Q89.8114 447.225 89.8114 438.498 Q89.8114 429.748 92.8669 425.165 Q95.9456 420.559 101.756 420.559 Z" fill="#000000" fill-rule="evenodd" fill-opacity="1" /><path clip-path="url(#clip280)" d="M121.918 449.864 L126.802 449.864 L126.802 455.744 L121.918 455.744 L121.918 449.864 Z" fill="#000000" fill-rule="evenodd" fill-opacity="1" /><path clip-path="url(#clip280)" d="M137.033 421.184 L155.39 421.184 L155.39 425.119 L141.316 425.119 L141.316 433.591 Q142.334 433.244 143.353 433.082 Q144.371 432.896 145.39 432.896 Q151.177 432.896 154.556 436.068 Q157.936 439.239 157.936 444.656 Q157.936 450.234 154.464 453.336 Q150.992 456.415 144.672 456.415 Q142.496 456.415 140.228 456.044 Q137.982 455.674 135.575 454.933 L135.575 450.234 Q137.658 451.369 139.881 451.924 Q142.103 452.48 144.58 452.48 Q148.584 452.48 150.922 450.373 Q153.26 448.267 153.26 444.656 Q153.26 441.045 150.922 438.938 Q148.584 436.832 144.58 436.832 Q142.705 436.832 140.83 437.248 Q138.978 437.665 137.033 438.545 L137.033 421.184 Z" fill="#000000" fill-rule="evenodd" fill-opacity="1" /><path clip-path="url(#clip280)" d="M91.5706 123.542 L99.2095 123.542 L99.2095 97.1761 L90.8993 98.8427 L90.8993 94.5835 L99.1632 92.9168 L103.839 92.9168 L103.839 123.542 L111.478 123.542 L111.478 127.477 L91.5706 127.477 L91.5706 123.542 Z" fill="#000000" fill-rule="evenodd" fill-opacity="1" /><path clip-path="url(#clip280)" d="M120.922 121.597 L125.807 121.597 L125.807 127.477 L120.922 127.477 L120.922 121.597 Z" fill="#000000" fill-rule="evenodd" fill-opacity="1" /><path clip-path="url(#clip280)" d="M145.992 95.9955 Q142.381 95.9955 140.552 99.5603 Q138.746 103.102 138.746 110.232 Q138.746 117.338 140.552 120.903 Q142.381 124.444 145.992 124.444 Q149.626 124.444 151.431 120.903 Q153.26 117.338 153.26 110.232 Q153.26 103.102 151.431 99.5603 Q149.626 95.9955 145.992 95.9955 M145.992 92.2918 Q151.802 92.2918 154.857 96.8983 Q157.936 101.482 157.936 110.232 Q157.936 118.958 154.857 123.565 Q151.802 128.148 145.992 128.148 Q140.181 128.148 137.103 123.565 Q134.047 118.958 134.047 110.232 Q134.047 101.482 137.103 96.8983 Q140.181 92.2918 145.992 92.2918 Z" fill="#000000" fill-rule="evenodd" fill-opacity="1" /><circle clip-path="url(#clip283)" cx="255.035" cy="1363.71" r="14.4" fill="#009af9" fill-rule="evenodd" fill-opacity="1" stroke="#000000" stroke-opacity="1" stroke-width="3.2"/>
<circle clip-path="url(#clip283)" cx="933.909" cy="1172.71" r="14.4" fill="#009af9" fill-rule="evenodd" fill-opacity="1" stroke="#000000" stroke-opacity="1" stroke-width="3.2"/>
<circle clip-path="url(#clip283)" cx="1612.78" cy="360.75" r="14.4" fill="#009af9" fill-rule="evenodd" fill-opacity="1" stroke="#000000" stroke-opacity="1" stroke-width="3.2"/>
<circle clip-path="url(#clip283)" cx="2291.66" cy="169.746" r="14.4" fill="#009af9" fill-rule="evenodd" fill-opacity="1" stroke="#000000" stroke-opacity="1" stroke-width="3.2"/>
<polyline clip-path="url(#clip283)" style="stroke:#e26f46; stroke-linecap:butt; stroke-linejoin:round; stroke-width:12; stroke-opacity:1; fill:none" points="
  255.035,1363.71 258.35,1366.3 261.664,1368.84 264.979,1371.33 268.294,1373.78 298.945,1394.38 329.596,1411.34 360.247,1424.79 390.898,1434.83 409.318,1439.27 
  427.737,1442.55 446.157,1444.69 464.577,1445.72 495.725,1444.99 526.872,1441.26 560.707,1433.96 594.542,1423.43 625.735,1410.98 656.928,1396.02 690.37,1377.35 
  723.812,1356.09 762.558,1328.42 801.304,1297.71 835.737,1268.04 870.17,1236.32 900.364,1206.93 930.558,1176.2 963.478,1141.28 996.398,1105.03 1029.51,1067.36 
  1062.63,1028.63 1135.86,939.933 1205.53,852.802 1277.98,760.84 1338.96,683.44 1413.41,590.347 1481.62,507.732 1513.11,470.803 1544.61,434.819 1576.51,399.457 
  1608.42,365.32 1644.17,328.677 1679.93,293.915 1712.33,264.193 1744.73,236.3 1781.83,206.785 1818.92,180.047 1853.27,157.943 1887.62,138.554 1921.48,122.254 
  1955.34,108.905 1988.22,98.9126 2021.1,91.9875 2054.8,88.22 2088.51,87.9763 2106.97,89.3914 2125.44,91.9345 2143.9,95.6306 2162.36,100.505 2189.18,109.735 
  2216,121.58 2242.83,136.118 2269.65,153.423 2275.15,157.323 2280.65,161.343 2286.15,165.483 2291.66,169.746 
  "/>
<polyline clip-path="url(#clip283)" style="stroke:#3da44d; stroke-linecap:butt; stroke-linejoin:round; stroke-width:12; stroke-opacity:1; fill:none" points="
  255.035,1363.71 258.35,1365.48 261.664,1367.22 264.979,1368.94 268.294,1370.63 298.945,1385.03 329.596,1397.19 360.247,1407.07 390.898,1414.63 409.318,1418.04 
  427.737,1420.61 446.157,1422.31 464.577,1423.16 495.725,1422.64 526.872,1419.67 560.707,1413.67 594.542,1404.82 625.735,1394.16 656.928,1381.15 690.37,1364.64 
  723.812,1345.55 762.558,1320.32 801.304,1291.88 835.737,1264.06 870.17,1233.96 900.364,1205.8 930.558,1176.1 963.478,1142.08 996.398,1106.49 1029.51,1069.26 
  1062.63,1030.75 1135.86,941.869 1205.53,853.916 1277.98,760.76 1338.96,682.359 1413.41,588.39 1481.62,505.602 1513.11,468.863 1544.61,433.264 1576.51,398.504 
  1608.42,365.19 1644.17,329.733 1679.93,296.43 1712.33,268.25 1744.73,242.088 1781.83,214.748 1818.92,190.337 1853.27,170.459 1887.62,153.293 1921.48,139.102 
  1955.34,127.685 1988.22,119.304 2021.1,113.621 2054.8,110.622 2088.51,110.496 2106.97,111.647 2125.44,113.659 2143.9,116.529 2162.36,120.255 2189.18,127.179 
  2216,135.878 2242.83,146.327 2269.65,158.497 2275.15,161.203 2280.65,163.981 2286.15,166.828 2291.66,169.746 
  "/>
<path clip-path="url(#clip280)" d="
M265.897 302.578 L597.869 302.578 L597.869 95.2176 L265.897 95.2176  Z
  " fill="#ffffff" fill-rule="evenodd" fill-opacity="1"/>
<polyline clip-path="url(#clip280)" style="stroke:#000000; stroke-linecap:butt; stroke-linejoin:round; stroke-width:4; stroke-opacity:1; fill:none" points="
  265.897,302.578 597.869,302.578 597.869,95.2176 265.897,95.2176 265.897,302.578 
  "/>
<circle clip-path="url(#clip280)" cx="361.844" cy="147.058" r="23.04" fill="#009af9" fill-rule="evenodd" fill-opacity="1" stroke="#000000" stroke-opacity="1" stroke-width="5.12"/>
<path clip-path="url(#clip280)" d="M482.456 143.64 Q481.847 146.662 481.027 148.395 Q479.692 151.042 477.467 151.042 Q475.921 151.042 474.75 150.175 Q473.602 149.285 473.204 147.809 Q472.759 148.395 472.361 148.793 Q471.986 149.191 471.26 149.8 Q470.534 150.386 469.55 150.714 Q468.59 151.042 467.489 151.042 Q466.645 151.042 465.873 150.878 Q465.1 150.737 464.28 150.339 Q463.483 149.917 462.898 149.285 Q462.336 148.652 461.961 147.622 Q461.586 146.591 461.586 145.28 Q461.586 143.64 462.219 141.415 Q462.874 139.19 464.373 135.208 Q465.193 133.1 465.193 131.929 Q465.193 131.39 465.076 131.039 Q464.959 130.687 464.725 130.57 Q464.514 130.43 464.373 130.406 Q464.233 130.36 463.999 130.36 Q462.547 130.36 461.282 131.835 Q460.017 133.311 459.15 136.309 Q458.963 136.894 458.846 137.035 Q458.729 137.175 458.377 137.175 Q457.792 137.152 457.792 136.684 Q457.792 136.496 458.003 135.77 Q458.213 135.021 458.705 133.92 Q459.221 132.795 459.923 131.788 Q460.626 130.758 461.727 130.032 Q462.851 129.306 464.139 129.306 Q465.896 129.306 466.973 130.453 Q468.074 131.578 468.074 133.241 Q468.074 134.271 467.254 136.262 Q464.655 143.172 464.655 146.053 Q464.655 149.964 467.629 149.964 Q468.613 149.964 469.526 149.566 Q470.463 149.168 471.072 148.606 Q471.681 148.044 472.15 147.435 Q472.642 146.826 472.852 146.427 Q473.087 146.029 473.11 145.935 L476.694 131.507 Q476.834 130.945 477.092 130.57 Q477.373 130.172 477.701 130.032 Q478.029 129.891 478.216 129.868 Q478.404 129.821 478.567 129.821 Q479.153 129.821 479.551 130.172 Q479.973 130.524 479.973 131.133 Q479.973 131.25 479.832 131.812 Q479.715 132.35 479.528 133.147 Q479.34 133.92 479.247 134.341 Q478.497 137.293 478.427 137.597 L477.092 142.773 Q477.022 143.078 476.787 144.062 Q476.577 145.045 476.459 145.561 Q476.342 146.053 476.225 146.732 Q476.132 147.388 476.132 147.762 Q476.132 148.934 476.483 149.449 Q476.834 149.964 477.607 149.964 Q478.333 149.964 478.895 149.472 Q479.481 148.957 479.926 147.973 Q480.371 146.966 480.629 146.146 Q480.886 145.327 481.214 144.038 Q481.331 143.476 481.425 143.336 Q481.542 143.172 481.87 143.172 Q482.456 143.172 482.456 143.64 Z" fill="#000000" fill-rule="evenodd" fill-opacity="1" /><path clip-path="url(#clip280)" d="M495.909 143.238 Q495.909 143.96 495.318 144.501 Q494.745 145.025 494.121 145.025 Q493.548 145.025 493.187 144.681 Q492.843 144.32 492.843 143.812 Q492.843 143.14 493.416 142.582 Q493.99 142.025 494.663 142.025 Q495.22 142.025 495.564 142.369 Q495.909 142.714 495.909 143.238 M496.204 159.421 Q496.204 159.552 496.056 160.077 Q495.909 160.585 495.548 161.372 Q495.204 162.142 494.728 162.864 Q494.253 163.585 493.466 164.094 Q492.695 164.602 491.81 164.602 Q490.613 164.602 489.826 163.815 Q489.055 163.028 489.055 161.847 Q489.055 161.208 489.826 159.158 Q492.056 153.19 492.138 152.944 Q492.515 152.01 492.515 151.19 Q492.515 150.813 492.433 150.584 Q492.351 150.338 492.187 150.256 Q492.023 150.157 491.924 150.141 Q491.842 150.124 491.679 150.124 Q490.711 150.124 489.809 151.108 Q488.908 152.092 488.285 154.289 Q488.153 154.699 488.071 154.797 Q487.989 154.896 487.744 154.896 Q487.334 154.879 487.334 154.551 Q487.334 154.453 487.448 154.076 Q487.563 153.682 487.776 153.092 Q487.989 152.485 488.367 151.862 Q488.744 151.223 489.203 150.665 Q489.678 150.108 490.35 149.747 Q491.023 149.387 491.777 149.387 Q493.007 149.387 493.761 150.19 Q494.531 150.977 494.531 152.141 Q494.531 152.781 494.089 153.912 Q493.548 155.387 493.351 155.863 L492.039 159.388 Q491.564 160.667 491.416 161.06 Q491.285 161.437 491.17 161.897 Q491.072 162.339 491.072 162.749 Q491.072 163.323 491.252 163.585 Q491.449 163.848 491.875 163.848 Q493.056 163.848 493.925 162.684 Q494.794 161.503 495.302 159.7 Q495.318 159.65 495.335 159.568 Q495.466 159.158 495.597 159.109 Q495.663 159.093 495.794 159.093 Q496.204 159.093 496.204 159.421 Z" fill="#000000" fill-rule="evenodd" fill-opacity="1" /><polyline clip-path="url(#clip280)" style="stroke:#e26f46; stroke-linecap:butt; stroke-linejoin:round; stroke-width:4; stroke-opacity:1; fill:none" points="
  289.884,198.898 433.805,198.898 
  "/>
<path clip-path="url(#clip280)" d="M482.854 197.234 Q482.854 200.654 481.121 203.957 Q479.411 207.259 476.717 209.297 Q474.024 211.311 471.283 211.311 Q469.644 211.311 468.543 210.421 Q467.465 209.508 466.88 208.22 Q466.435 209.812 465.474 213.63 Q464.514 217.448 464.514 217.823 Q464.514 218.034 464.561 218.127 Q464.608 218.221 464.818 218.338 Q465.029 218.479 465.545 218.525 Q466.06 218.596 466.927 218.596 Q467.372 218.596 467.536 218.596 Q467.723 218.619 467.887 218.736 Q468.074 218.853 468.074 219.111 Q468.074 220.071 467.208 220.071 Q466.435 220.071 464.842 220.001 Q463.249 219.931 462.453 219.931 Q461.774 219.931 460.415 220.001 Q459.057 220.071 458.424 220.071 Q457.792 220.071 457.792 219.509 Q457.792 219.181 457.885 218.97 Q457.956 218.783 458.143 218.689 Q458.33 218.619 458.494 218.596 Q458.635 218.596 458.916 218.596 Q459.993 218.596 460.462 218.408 Q460.93 218.244 461.094 217.893 Q461.282 217.565 461.493 216.628 L466.88 195.267 Q467.208 193.838 467.208 192.831 Q467.208 191.566 466.809 191.098 Q466.411 190.629 465.709 190.629 Q464.491 190.629 463.694 192.081 Q462.898 193.534 462.219 196.344 Q462.008 197.117 461.867 197.281 Q461.75 197.445 461.399 197.445 Q460.813 197.422 460.813 196.953 Q460.813 196.836 461.001 196.087 Q461.188 195.314 461.539 194.189 Q461.914 193.042 462.312 192.316 Q462.547 191.824 462.757 191.496 Q462.968 191.168 463.39 190.653 Q463.835 190.137 464.467 189.856 Q465.1 189.575 465.873 189.575 Q467.372 189.575 468.613 190.465 Q469.854 191.355 470.182 193.159 Q471.517 191.59 473.157 190.582 Q474.796 189.575 476.459 189.575 Q479.223 189.575 481.027 191.73 Q482.854 193.862 482.854 197.234 M479.387 195.126 Q479.387 192.995 478.567 191.824 Q477.771 190.629 476.319 190.629 Q474.515 190.629 472.431 192.456 Q470.37 194.189 469.948 195.806 L467.582 205.198 L467.442 205.971 Q467.442 206.111 467.512 206.533 Q467.606 206.931 467.863 207.587 Q468.144 208.243 468.519 208.828 Q468.917 209.391 469.62 209.812 Q470.346 210.234 471.236 210.234 Q472.665 210.234 474.211 208.969 Q475.78 207.704 476.951 205.315 Q477.677 203.769 478.521 200.443 Q479.387 197.094 479.387 195.126 Z" fill="#000000" fill-rule="evenodd" fill-opacity="1" /><path clip-path="url(#clip280)" d="M488.209 198.78 Q488.209 190.676 491.23 184.141 Q492.519 181.401 494.322 179.105 Q496.126 176.81 497.32 175.803 Q498.515 174.796 498.843 174.796 Q499.311 174.796 499.335 175.264 Q499.335 175.498 498.702 176.084 Q490.973 183.954 490.996 198.78 Q490.996 213.654 498.515 221.219 Q499.335 222.039 499.335 222.296 Q499.335 222.765 498.843 222.765 Q498.515 222.765 497.367 221.805 Q496.219 220.844 494.439 218.642 Q492.659 216.441 491.371 213.747 Q488.209 207.212 488.209 198.78 Z" fill="#000000" fill-rule="evenodd" fill-opacity="1" /><path clip-path="url(#clip280)" d="M526.867 192.737 Q526.867 194.049 526.048 194.798 Q525.228 195.525 524.291 195.525 Q523.401 195.525 522.932 195.009 Q522.464 194.494 522.464 193.838 Q522.464 192.948 523.12 192.175 Q523.776 191.402 524.759 191.238 Q523.799 190.629 522.37 190.629 Q521.433 190.629 520.614 191.121 Q519.817 191.613 519.325 192.245 Q518.857 192.878 518.435 193.791 Q518.037 194.681 517.873 195.22 Q517.733 195.735 517.615 196.297 L515.976 202.856 Q515.18 205.971 515.18 207.072 Q515.18 208.43 515.835 209.344 Q516.491 210.234 517.803 210.234 Q518.318 210.234 518.904 210.093 Q519.489 209.929 520.239 209.508 Q521.012 209.063 521.691 208.407 Q522.394 207.728 523.073 206.58 Q523.752 205.432 524.197 203.957 Q524.338 203.441 524.806 203.441 Q525.392 203.441 525.392 203.91 Q525.392 204.308 525.064 205.151 Q524.759 205.971 524.08 207.048 Q523.424 208.102 522.558 209.063 Q521.691 210 520.403 210.655 Q519.115 211.311 517.709 211.311 Q515.695 211.311 514.36 210.234 Q513.025 209.156 512.533 207.657 Q512.416 207.868 512.252 208.149 Q512.088 208.43 511.596 209.063 Q511.127 209.672 510.589 210.14 Q510.05 210.585 509.207 210.937 Q508.387 211.311 507.497 211.311 Q506.373 211.311 505.366 210.983 Q504.382 210.655 503.679 209.906 Q502.976 209.156 502.976 208.126 Q502.976 206.978 503.749 206.182 Q504.546 205.362 505.623 205.362 Q506.302 205.362 506.841 205.76 Q507.403 206.158 507.403 207.025 Q507.403 207.985 506.747 208.711 Q506.092 209.437 505.155 209.625 Q506.115 210.234 507.544 210.234 Q509.09 210.234 510.308 208.875 Q511.526 207.517 512.111 205.245 Q513.563 199.787 514.126 197.351 Q514.688 194.892 514.688 193.838 Q514.688 192.854 514.43 192.175 Q514.172 191.496 513.727 191.191 Q513.306 190.863 512.908 190.746 Q512.533 190.629 512.111 190.629 Q511.409 190.629 510.612 190.91 Q509.839 191.191 508.902 191.847 Q507.989 192.48 507.122 193.791 Q506.256 195.103 505.67 196.906 Q505.553 197.445 505.038 197.445 Q504.475 197.422 504.475 196.953 Q504.475 196.555 504.78 195.735 Q505.108 194.892 505.764 193.838 Q506.443 192.784 507.31 191.847 Q508.2 190.887 509.488 190.231 Q510.8 189.575 512.205 189.575 Q512.837 189.575 513.446 189.716 Q514.079 189.833 514.828 190.184 Q515.601 190.536 516.28 191.309 Q516.96 192.081 517.381 193.206 Q517.662 192.667 518.037 192.152 Q518.435 191.636 519.044 191.004 Q519.677 190.348 520.543 189.973 Q521.433 189.575 522.417 189.575 Q523.377 189.575 524.314 189.833 Q525.251 190.067 526.048 190.84 Q526.867 191.59 526.867 192.737 Z" fill="#000000" fill-rule="evenodd" fill-opacity="1" /><path clip-path="url(#clip280)" d="M531.48 222.296 Q531.48 222.062 532.089 221.477 Q539.818 213.607 539.818 198.78 Q539.818 183.907 532.393 176.388 Q531.48 175.522 531.48 175.264 Q531.48 174.796 531.948 174.796 Q532.276 174.796 533.424 175.756 Q534.595 176.716 536.352 178.918 Q538.132 181.12 539.444 183.813 Q542.606 190.348 542.606 198.78 Q542.606 206.884 539.584 213.419 Q538.296 216.16 536.492 218.455 Q534.689 220.751 533.494 221.758 Q532.3 222.765 531.948 222.765 Q531.48 222.765 531.48 222.296 Z" fill="#000000" fill-rule="evenodd" fill-opacity="1" /><polyline clip-path="url(#clip280)" style="stroke:#3da44d; stroke-linecap:butt; stroke-linejoin:round; stroke-width:4; stroke-opacity:1; fill:none" points="
  289.884,250.738 433.805,250.738 
  "/>
<path clip-path="url(#clip280)" d="M476.218 242.856 L476.218 246.883 Q474.412 245.957 472.468 245.495 Q470.523 245.032 468.44 245.032 Q465.269 245.032 463.671 246.004 Q462.097 246.976 462.097 248.92 Q462.097 250.402 463.232 251.258 Q464.366 252.092 467.792 252.856 L469.25 253.18 Q473.787 254.152 475.685 255.934 Q477.606 257.694 477.606 260.865 Q477.606 264.476 474.736 266.582 Q471.889 268.689 466.889 268.689 Q464.806 268.689 462.537 268.272 Q460.292 267.879 457.792 267.068 L457.792 262.67 Q460.153 263.897 462.445 264.522 Q464.736 265.124 466.982 265.124 Q469.991 265.124 471.611 264.106 Q473.231 263.064 473.231 261.189 Q473.231 259.453 472.051 258.527 Q470.894 257.601 466.935 256.744 L465.454 256.397 Q461.495 255.564 459.736 253.851 Q457.977 252.115 457.977 249.106 Q457.977 245.448 460.57 243.458 Q463.162 241.467 467.931 241.467 Q470.292 241.467 472.375 241.814 Q474.458 242.161 476.218 242.856 Z" fill="#000000" fill-rule="evenodd" fill-opacity="1" /><path clip-path="url(#clip280)" d="M484.389 242.092 L488.648 242.092 L488.648 268.018 L484.389 268.018 L484.389 242.092 M484.389 231.999 L488.648 231.999 L488.648 237.393 L484.389 237.393 L484.389 231.999 Z" fill="#000000" fill-rule="evenodd" fill-opacity="1" /><path clip-path="url(#clip280)" d="M519.111 252.369 L519.111 268.018 L514.852 268.018 L514.852 252.508 Q514.852 248.828 513.416 246.999 Q511.981 245.17 509.111 245.17 Q505.662 245.17 503.671 247.37 Q501.68 249.569 501.68 253.365 L501.68 268.018 L497.398 268.018 L497.398 242.092 L501.68 242.092 L501.68 246.12 Q503.208 243.782 505.268 242.624 Q507.352 241.467 510.06 241.467 Q514.528 241.467 516.819 244.245 Q519.111 246.999 519.111 252.369 Z" fill="#000000" fill-rule="evenodd" fill-opacity="1" /></svg>
