<?xml version="1.0" encoding="utf-8"?>
<svg xmlns="http://www.w3.org/2000/svg" xmlns:xlink="http://www.w3.org/1999/xlink" width="600" height="400" viewBox="0 0 2400 1600">
<defs>
  <clipPath id="clip500">
    <rect x="0" y="0" width="2400" height="1600"/>
  </clipPath>
</defs>
<path clip-path="url(#clip500)" d="
M0 1600 L2400 1600 L2400 0 L0 0  Z
  " fill="#ffffff" fill-rule="evenodd" fill-opacity="1"/>
<defs>
  <clipPath id="clip501">
    <rect x="480" y="0" width="1681" height="1600"/>
  </clipPath>
</defs>
<defs>
  <clipPath id="clip502">
    <rect x="193" y="47" width="2160" height="1440"/>
  </clipPath>
</defs>
<path clip-path="url(#clip500)" d="
M189.233 1474.16 L2352.76 1474.16 L2352.76 47.2441 L189.233 47.2441  Z
  " fill="#ffffff" fill-rule="evenodd" fill-opacity="1"/>
<defs>
  <clipPath id="clip503">
    <rect x="189" y="47" width="2165" height="1428"/>
  </clipPath>
</defs>
<polyline clip-path="url(#clip503)" style="stroke:#000000; stroke-linecap:butt; stroke-linejoin:round; stroke-width:2; stroke-opacity:0.1; fill:none" points="
  259.194,1474.16 259.194,47.2441 
  "/>
<polyline clip-path="url(#clip503)" style="stroke:#000000; stroke-linecap:butt; stroke-linejoin:round; stroke-width:2; stroke-opacity:0.1; fill:none" points="
  1106.73,1474.16 1106.73,47.2441 
  "/>
<polyline clip-path="url(#clip503)" style="stroke:#000000; stroke-linecap:butt; stroke-linejoin:round; stroke-width:2; stroke-opacity:0.1; fill:none" points="
  1954.26,1474.16 1954.26,47.2441 
  "/>
<polyline clip-path="url(#clip500)" style="stroke:#000000; stroke-linecap:butt; stroke-linejoin:round; stroke-width:4; stroke-opacity:1; fill:none" points="
  189.233,1474.16 2352.76,1474.16 
  "/>
<polyline clip-path="url(#clip500)" style="stroke:#000000; stroke-linecap:butt; stroke-linejoin:round; stroke-width:4; stroke-opacity:1; fill:none" points="
  259.194,1474.16 259.194,1455.27 
  "/>
<polyline clip-path="url(#clip500)" style="stroke:#000000; stroke-linecap:butt; stroke-linejoin:round; stroke-width:4; stroke-opacity:1; fill:none" points="
  1106.73,1474.16 1106.73,1455.27 
  "/>
<polyline clip-path="url(#clip500)" style="stroke:#000000; stroke-linecap:butt; stroke-linejoin:round; stroke-width:4; stroke-opacity:1; fill:none" points="
  1954.26,1474.16 1954.26,1455.27 
  "/>
<path clip-path="url(#clip500)" d="M209.074 1548.29 L216.713 1548.29 L216.713 1521.92 L208.403 1523.59 L208.403 1519.33 L216.667 1517.66 L221.343 1517.66 L221.343 1548.29 L228.981 1548.29 L228.981 1552.22 L209.074 1552.22 L209.074 1548.29 Z" fill="#000000" fill-rule="evenodd" fill-opacity="1" /><path clip-path="url(#clip500)" d="M248.426 1520.74 Q244.815 1520.74 242.986 1524.31 Q241.18 1527.85 241.18 1534.98 Q241.18 1542.09 242.986 1545.65 Q244.815 1549.19 248.426 1549.19 Q252.06 1549.19 253.866 1545.65 Q255.694 1542.09 255.694 1534.98 Q255.694 1527.85 253.866 1524.31 Q252.06 1520.74 248.426 1520.74 M248.426 1517.04 Q254.236 1517.04 257.291 1521.65 Q260.37 1526.23 260.37 1534.98 Q260.37 1543.71 257.291 1548.31 Q254.236 1552.9 248.426 1552.9 Q242.616 1552.9 239.537 1548.31 Q236.481 1543.71 236.481 1534.98 Q236.481 1526.23 239.537 1521.65 Q242.616 1517.04 248.426 1517.04 Z" fill="#000000" fill-rule="evenodd" fill-opacity="1" /><path clip-path="url(#clip500)" d="M260.37 1511.14 L284.482 1511.14 L284.482 1514.34 L260.37 1514.34 L260.37 1511.14 Z" fill="#000000" fill-rule="evenodd" fill-opacity="1" /><path clip-path="url(#clip500)" d="M304.192 1509.67 Q306.919 1510.26 308.443 1512.1 Q309.985 1513.94 309.985 1516.65 Q309.985 1520.81 307.126 1523.08 Q304.267 1525.36 299.001 1525.36 Q297.233 1525.36 295.353 1525 Q293.491 1524.66 291.497 1523.97 L291.497 1520.3 Q293.077 1521.22 294.958 1521.69 Q296.838 1522.16 298.888 1522.16 Q302.462 1522.16 304.324 1520.75 Q306.205 1519.34 306.205 1516.65 Q306.205 1514.17 304.456 1512.78 Q302.725 1511.37 299.622 1511.37 L296.349 1511.37 L296.349 1508.24 L299.772 1508.24 Q302.575 1508.24 304.061 1507.13 Q305.546 1506.01 305.546 1503.9 Q305.546 1501.74 304.004 1500.59 Q302.481 1499.42 299.622 1499.42 Q298.061 1499.42 296.274 1499.76 Q294.487 1500.1 292.343 1500.82 L292.343 1497.43 Q294.506 1496.83 296.387 1496.53 Q298.287 1496.23 299.961 1496.23 Q304.286 1496.23 306.807 1498.2 Q309.327 1500.16 309.327 1503.51 Q309.327 1505.84 307.991 1507.45 Q306.656 1509.05 304.192 1509.67 Z" fill="#000000" fill-rule="evenodd" fill-opacity="1" /><path clip-path="url(#clip500)" d="M1056.99 1548.29 L1064.63 1548.29 L1064.63 1521.92 L1056.32 1523.59 L1056.32 1519.33 L1064.58 1517.66 L1069.26 1517.66 L1069.26 1548.29 L1076.9 1548.29 L1076.9 1552.22 L1056.99 1552.22 L1056.99 1548.29 Z" fill="#000000" fill-rule="evenodd" fill-opacity="1" /><path clip-path="url(#clip500)" d="M1096.34 1520.74 Q1092.73 1520.74 1090.9 1524.31 Q1089.1 1527.85 1089.1 1534.98 Q1089.1 1542.09 1090.9 1545.65 Q1092.73 1549.19 1096.34 1549.19 Q1099.98 1549.19 1101.78 1545.65 Q1103.61 1542.09 1103.61 1534.98 Q1103.61 1527.85 1101.78 1524.31 Q1099.98 1520.74 1096.34 1520.74 M1096.34 1517.04 Q1102.15 1517.04 1105.21 1521.65 Q1108.29 1526.23 1108.29 1534.98 Q1108.29 1543.71 1105.21 1548.31 Q1102.15 1552.9 1096.34 1552.9 Q1090.53 1552.9 1087.45 1548.31 Q1084.4 1543.71 1084.4 1534.98 Q1084.4 1526.23 1087.45 1521.65 Q1090.53 1517.04 1096.34 1517.04 Z" fill="#000000" fill-rule="evenodd" fill-opacity="1" /><path clip-path="url(#clip500)" d="M1108.29 1511.14 L1132.4 1511.14 L1132.4 1514.34 L1108.29 1514.34 L1108.29 1511.14 Z" fill="#000000" fill-rule="evenodd" fill-opacity="1" /><path clip-path="url(#clip500)" d="M1143.87 1521.62 L1157.13 1521.62 L1157.13 1524.81 L1139.3 1524.81 L1139.3 1521.62 Q1141.46 1519.38 1145.19 1515.62 Q1148.93 1511.84 1149.89 1510.75 Q1151.71 1508.7 1152.43 1507.29 Q1153.16 1505.86 1153.16 1504.48 Q1153.16 1502.24 1151.58 1500.83 Q1150.02 1499.42 1147.5 1499.42 Q1145.71 1499.42 1143.72 1500.04 Q1141.75 1500.67 1139.49 1501.93 L1139.49 1498.09 Q1141.78 1497.17 1143.78 1496.7 Q1145.77 1496.23 1147.43 1496.23 Q1151.79 1496.23 1154.39 1498.41 Q1156.98 1500.59 1156.98 1504.24 Q1156.98 1505.97 1156.32 1507.53 Q1155.68 1509.07 1153.97 1511.18 Q1153.5 1511.72 1150.98 1514.34 Q1148.46 1516.93 1143.87 1521.62 Z" fill="#000000" fill-rule="evenodd" fill-opacity="1" /><path clip-path="url(#clip500)" d="M1904.37 1548.29 L1912.01 1548.29 L1912.01 1521.92 L1903.7 1523.59 L1903.7 1519.33 L1911.97 1517.66 L1916.64 1517.66 L1916.64 1548.29 L1924.28 1548.29 L1924.28 1552.22 L1904.37 1552.22 L1904.37 1548.29 Z" fill="#000000" fill-rule="evenodd" fill-opacity="1" /><path clip-path="url(#clip500)" d="M1943.72 1520.74 Q1940.11 1520.74 1938.28 1524.31 Q1936.48 1527.85 1936.48 1534.98 Q1936.48 1542.09 1938.28 1545.65 Q1940.11 1549.19 1943.72 1549.19 Q1947.36 1549.19 1949.16 1545.65 Q1950.99 1542.09 1950.99 1534.98 Q1950.99 1527.85 1949.16 1524.31 Q1947.36 1520.74 1943.72 1520.74 M1943.72 1517.04 Q1949.53 1517.04 1952.59 1521.65 Q1955.67 1526.23 1955.67 1534.98 Q1955.67 1543.71 1952.59 1548.31 Q1949.53 1552.9 1943.72 1552.9 Q1937.91 1552.9 1934.84 1548.31 Q1931.78 1543.71 1931.78 1534.98 Q1931.78 1526.23 1934.84 1521.65 Q1937.91 1517.04 1943.72 1517.04 Z" fill="#000000" fill-rule="evenodd" fill-opacity="1" /><path clip-path="url(#clip500)" d="M1955.67 1511.14 L1979.78 1511.14 L1979.78 1514.34 L1955.67 1514.34 L1955.67 1511.14 Z" fill="#000000" fill-rule="evenodd" fill-opacity="1" /><path clip-path="url(#clip500)" d="M1988.64 1521.62 L1994.85 1521.62 L1994.85 1500.19 L1988.09 1501.55 L1988.09 1498.09 L1994.81 1496.73 L1998.61 1496.73 L1998.61 1521.62 L2004.81 1521.62 L2004.81 1524.81 L1988.64 1524.81 L1988.64 1521.62 Z" fill="#000000" fill-rule="evenodd" fill-opacity="1" /><polyline clip-path="url(#clip503)" style="stroke:#000000; stroke-linecap:butt; stroke-linejoin:round; stroke-width:2; stroke-opacity:0.1; fill:none" points="
  189.233,1428.9 2352.76,1428.9 
  "/>
<polyline clip-path="url(#clip503)" style="stroke:#000000; stroke-linecap:butt; stroke-linejoin:round; stroke-width:2; stroke-opacity:0.1; fill:none" points="
  189.233,718.071 2352.76,718.071 
  "/>
<polyline clip-path="url(#clip500)" style="stroke:#000000; stroke-linecap:butt; stroke-linejoin:round; stroke-width:4; stroke-opacity:1; fill:none" points="
  189.233,1474.16 189.233,47.2441 
  "/>
<polyline clip-path="url(#clip500)" style="stroke:#000000; stroke-linecap:butt; stroke-linejoin:round; stroke-width:4; stroke-opacity:1; fill:none" points="
  189.233,1428.9 208.13,1428.9 
  "/>
<polyline clip-path="url(#clip500)" style="stroke:#000000; stroke-linecap:butt; stroke-linejoin:round; stroke-width:4; stroke-opacity:1; fill:none" points="
  189.233,718.071 208.13,718.071 
  "/>
<path clip-path="url(#clip500)" d="M51.6634 1448.69 L59.3023 1448.69 L59.3023 1422.33 L50.9921 1423.99 L50.9921 1419.73 L59.256 1418.07 L63.9319 1418.07 L63.9319 1448.69 L71.5707 1448.69 L71.5707 1452.63 L51.6634 1452.63 L51.6634 1448.69 Z" fill="#000000" fill-rule="evenodd" fill-opacity="1" /><path clip-path="url(#clip500)" d="M91.0151 1421.15 Q87.404 1421.15 85.5753 1424.71 Q83.7697 1428.25 83.7697 1435.38 Q83.7697 1442.49 85.5753 1446.05 Q87.404 1449.59 91.0151 1449.59 Q94.6493 1449.59 96.4548 1446.05 Q98.2835 1442.49 98.2835 1435.38 Q98.2835 1428.25 96.4548 1424.71 Q94.6493 1421.15 91.0151 1421.15 M91.0151 1417.44 Q96.8252 1417.44 99.8808 1422.05 Q102.959 1426.63 102.959 1435.38 Q102.959 1444.11 99.8808 1448.71 Q96.8252 1453.3 91.0151 1453.3 Q85.2049 1453.3 82.1262 1448.71 Q79.0707 1444.11 79.0707 1435.38 Q79.0707 1426.63 82.1262 1422.05 Q85.2049 1417.44 91.0151 1417.44 Z" fill="#000000" fill-rule="evenodd" fill-opacity="1" /><path clip-path="url(#clip500)" d="M102.959 1411.54 L127.071 1411.54 L127.071 1414.74 L102.959 1414.74 L102.959 1411.54 Z" fill="#000000" fill-rule="evenodd" fill-opacity="1" /><path clip-path="url(#clip500)" d="M143.866 1409.66 Q141.308 1409.66 139.804 1411.41 Q138.318 1413.16 138.318 1416.21 Q138.318 1419.24 139.804 1421 Q141.308 1422.75 143.866 1422.75 Q146.424 1422.75 147.91 1421 Q149.415 1419.24 149.415 1416.21 Q149.415 1413.16 147.91 1411.41 Q146.424 1409.66 143.866 1409.66 M151.408 1397.76 L151.408 1401.22 Q149.979 1400.54 148.512 1400.18 Q147.064 1399.83 145.634 1399.83 Q141.873 1399.83 139.879 1402.36 Q137.904 1404.9 137.622 1410.04 Q138.732 1408.4 140.406 1407.54 Q142.08 1406.65 144.092 1406.65 Q148.324 1406.65 150.769 1409.23 Q153.233 1411.79 153.233 1416.21 Q153.233 1420.53 150.675 1423.15 Q148.117 1425.76 143.866 1425.76 Q138.995 1425.76 136.418 1422.04 Q133.842 1418.3 133.842 1411.2 Q133.842 1404.55 137.002 1400.6 Q140.161 1396.63 145.484 1396.63 Q146.913 1396.63 148.361 1396.91 Q149.828 1397.19 151.408 1397.76 Z" fill="#000000" fill-rule="evenodd" fill-opacity="1" /><path clip-path="url(#clip500)" d="M52.3217 737.864 L59.9605 737.864 L59.9605 711.498 L51.6504 713.165 L51.6504 708.905 L59.9142 707.239 L64.5901 707.239 L64.5901 737.864 L72.229 737.864 L72.229 741.799 L52.3217 741.799 L52.3217 737.864 Z" fill="#000000" fill-rule="evenodd" fill-opacity="1" /><path clip-path="url(#clip500)" d="M91.6733 710.317 Q88.0622 710.317 86.2335 713.882 Q84.428 717.424 84.428 724.553 Q84.428 731.66 86.2335 735.225 Q88.0622 738.766 91.6733 738.766 Q95.3076 738.766 97.1131 735.225 Q98.9418 731.66 98.9418 724.553 Q98.9418 717.424 97.1131 713.882 Q95.3076 710.317 91.6733 710.317 M91.6733 706.614 Q97.4835 706.614 100.539 711.22 Q103.618 715.803 103.618 724.553 Q103.618 733.28 100.539 737.887 Q97.4835 742.47 91.6733 742.47 Q85.8632 742.47 82.7845 737.887 Q79.729 733.28 79.729 724.553 Q79.729 715.803 82.7845 711.22 Q85.8632 706.614 91.6733 706.614 Z" fill="#000000" fill-rule="evenodd" fill-opacity="1" /><path clip-path="url(#clip500)" d="M103.618 700.715 L127.729 700.715 L127.729 703.912 L103.618 703.912 L103.618 700.715 Z" fill="#000000" fill-rule="evenodd" fill-opacity="1" /><path clip-path="url(#clip500)" d="M147.44 699.248 Q150.167 699.831 151.69 701.674 Q153.233 703.517 153.233 706.226 Q153.233 710.382 150.374 712.658 Q147.515 714.934 142.249 714.934 Q140.481 714.934 138.6 714.576 Q136.738 714.238 134.745 713.542 L134.745 709.874 Q136.324 710.796 138.205 711.266 Q140.086 711.736 142.136 711.736 Q145.71 711.736 147.571 710.326 Q149.452 708.915 149.452 706.226 Q149.452 703.743 147.703 702.351 Q145.973 700.941 142.87 700.941 L139.597 700.941 L139.597 697.819 L143.02 697.819 Q145.822 697.819 147.308 696.709 Q148.794 695.581 148.794 693.474 Q148.794 691.311 147.252 690.164 Q145.728 688.998 142.87 688.998 Q141.308 688.998 139.522 689.336 Q137.735 689.675 135.591 690.39 L135.591 687.004 Q137.754 686.402 139.635 686.101 Q141.534 685.8 143.208 685.8 Q147.534 685.8 150.054 687.775 Q152.574 689.731 152.574 693.079 Q152.574 695.411 151.239 697.029 Q149.904 698.627 147.44 699.248 Z" fill="#000000" fill-rule="evenodd" fill-opacity="1" /><polyline clip-path="url(#clip503)" style="stroke:#009af9; stroke-linecap:butt; stroke-linejoin:round; stroke-width:12; stroke-opacity:1; fill:none" points="
  2291.52,87.6286 2036.39,151.994 1781.26,222.084 1526.13,293.147 1270.99,364.413 1015.86,435.725 760.729,507.048 505.597,578.374 250.464,649.701 
  "/>
<circle clip-path="url(#clip503)" cx="2291.52" cy="87.6286" r="14.4" fill="#009af9" fill-rule="evenodd" fill-opacity="1" stroke="#000000" stroke-opacity="1" stroke-width="3.2"/>
<circle clip-path="url(#clip503)" cx="2036.39" cy="151.994" r="14.4" fill="#009af9" fill-rule="evenodd" fill-opacity="1" stroke="#000000" stroke-opacity="1" stroke-width="3.2"/>
<circle clip-path="url(#clip503)" cx="1781.26" cy="222.084" r="14.4" fill="#009af9" fill-rule="evenodd" fill-opacity="1" stroke="#000000" stroke-opacity="1" stroke-width="3.2"/>
<circle clip-path="url(#clip503)" cx="1526.13" cy="293.147" r="14.4" fill="#009af9" fill-rule="evenodd" fill-opacity="1" stroke="#000000" stroke-opacity="1" stroke-width="3.2"/>
<circle clip-path="url(#clip503)" cx="1270.99" cy="364.413" r="14.4" fill="#009af9" fill-rule="evenodd" fill-opacity="1" stroke="#000000" stroke-opacity="1" stroke-width="3.2"/>
<circle clip-path="url(#clip503)" cx="1015.86" cy="435.725" r="14.4" fill="#009af9" fill-rule="evenodd" fill-opacity="1" stroke="#000000" stroke-opacity="1" stroke-width="3.2"/>
<circle clip-path="url(#clip503)" cx="760.729" cy="507.048" r="14.4" fill="#009af9" fill-rule="evenodd" fill-opacity="1" stroke="#000000" stroke-opacity="1" stroke-width="3.2"/>
<circle clip-path="url(#clip503)" cx="505.597" cy="578.374" r="14.4" fill="#009af9" fill-rule="evenodd" fill-opacity="1" stroke="#000000" stroke-opacity="1" stroke-width="3.2"/>
<circle clip-path="url(#clip503)" cx="250.464" cy="649.701" r="14.4" fill="#009af9" fill-rule="evenodd" fill-opacity="1" stroke="#000000" stroke-opacity="1" stroke-width="3.2"/>
<polyline clip-path="url(#clip503)" style="stroke:#e26f46; stroke-linecap:butt; stroke-linejoin:round; stroke-width:12; stroke-opacity:1; fill:none" points="
  2291.52,87.6286 2036.39,151.994 1781.26,222.084 1526.13,293.147 1270.99,364.413 1015.86,435.725 760.729,507.048 505.597,578.374 250.464,649.701 
  "/>
<circle clip-path="url(#clip503)" cx="2291.52" cy="87.6286" r="14.4" fill="#e26f46" fill-rule="evenodd" fill-opacity="1" stroke="#000000" stroke-opacity="1" stroke-width="3.2"/>
<circle clip-path="url(#clip503)" cx="2036.39" cy="151.994" r="14.4" fill="#e26f46" fill-rule="evenodd" fill-opacity="1" stroke="#000000" stroke-opacity="1" stroke-width="3.2"/>
<circle clip-path="url(#clip503)" cx="1781.26" cy="222.084" r="14.4" fill="#e26f46" fill-rule="evenodd" fill-opacity="1" stroke="#000000" stroke-opacity="1" stroke-width="3.2"/>
<circle clip-path="url(#clip503)" cx="1526.13" cy="293.147" r="14.4" fill="#e26f46" fill-rule="evenodd" fill-opacity="1" stroke="#000000" stroke-opacity="1" stroke-width="3.2"/>
<circle clip-path="url(#clip503)" cx="1270.99" cy="364.413" r="14.4" fill="#e26f46" fill-rule="evenodd" fill-opacity="1" stroke="#000000" stroke-opacity="1" stroke-width="3.2"/>
<circle clip-path="url(#clip503)" cx="1015.86" cy="435.725" r="14.4" fill="#e26f46" fill-rule="evenodd" fill-opacity="1" stroke="#000000" stroke-opacity="1" stroke-width="3.2"/>
<circle clip-path="url(#clip503)" cx="760.729" cy="507.048" r="14.4" fill="#e26f46" fill-rule="evenodd" fill-opacity="1" stroke="#000000" stroke-opacity="1" stroke-width="3.2"/>
<circle clip-path="url(#clip503)" cx="505.597" cy="578.374" r="14.4" fill="#e26f46" fill-rule="evenodd" fill-opacity="1" stroke="#000000" stroke-opacity="1" stroke-width="3.2"/>
<circle clip-path="url(#clip503)" cx="250.464" cy="649.701" r="14.4" fill="#e26f46" fill-rule="evenodd" fill-opacity="1" stroke="#000000" stroke-opacity="1" stroke-width="3.2"/>
<polyline clip-path="url(#clip503)" style="stroke:#3da44d; stroke-linecap:butt; stroke-linejoin:round; stroke-width:12; stroke-opacity:1; fill:none" points="
  2291.52,204.312 2036.39,313.251 1781.26,447.616 1526.13,587.58 1270.99,729.187 1015.86,871.198 760.729,1013.59 505.597,1156.12 250.464,1298.72 
  "/>
<circle clip-path="url(#clip503)" cx="2291.52" cy="204.312" r="14.4" fill="#3da44d" fill-rule="evenodd" fill-opacity="1" stroke="#000000" stroke-opacity="1" stroke-width="3.2"/>
<circle clip-path="url(#clip503)" cx="2036.39" cy="313.251" r="14.4" fill="#3da44d" fill-rule="evenodd" fill-opacity="1" stroke="#000000" stroke-opacity="1" stroke-width="3.2"/>
<circle clip-path="url(#clip503)" cx="1781.26" cy="447.616" r="14.4" fill="#3da44d" fill-rule="evenodd" fill-opacity="1" stroke="#000000" stroke-opacity="1" stroke-width="3.2"/>
<circle clip-path="url(#clip503)" cx="1526.13" cy="587.58" r="14.4" fill="#3da44d" fill-rule="evenodd" fill-opacity="1" stroke="#000000" stroke-opacity="1" stroke-width="3.2"/>
<circle clip-path="url(#clip503)" cx="1270.99" cy="729.187" r="14.4" fill="#3da44d" fill-rule="evenodd" fill-opacity="1" stroke="#000000" stroke-opacity="1" stroke-width="3.2"/>
<circle clip-path="url(#clip503)" cx="1015.86" cy="871.198" r="14.4" fill="#3da44d" fill-rule="evenodd" fill-opacity="1" stroke="#000000" stroke-opacity="1" stroke-width="3.2"/>
<circle clip-path="url(#clip503)" cx="760.729" cy="1013.59" r="14.4" fill="#3da44d" fill-rule="evenodd" fill-opacity="1" stroke="#000000" stroke-opacity="1" stroke-width="3.2"/>
<circle clip-path="url(#clip503)" cx="505.597" cy="1156.12" r="14.4" fill="#3da44d" fill-rule="evenodd" fill-opacity="1" stroke="#000000" stroke-opacity="1" stroke-width="3.2"/>
<circle clip-path="url(#clip503)" cx="250.464" cy="1298.72" r="14.4" fill="#3da44d" fill-rule="evenodd" fill-opacity="1" stroke="#000000" stroke-opacity="1" stroke-width="3.2"/>
<polyline clip-path="url(#clip503)" style="stroke:#c271d2; stroke-linecap:butt; stroke-linejoin:round; stroke-width:12; stroke-opacity:1; fill:none" points="
  2291.52,149.897 2036.39,221.224 1781.26,292.55 1526.13,363.877 1270.99,435.204 1015.86,506.531 760.729,577.858 505.597,649.185 250.464,720.512 
  "/>
<polyline clip-path="url(#clip503)" style="stroke:#ac8d18; stroke-linecap:butt; stroke-linejoin:round; stroke-width:12; stroke-opacity:1; fill:none" points="
  2291.52,292.55 2036.39,435.204 1781.26,577.858 1526.13,720.512 1270.99,863.165 1015.86,1005.82 760.729,1148.47 505.597,1291.13 250.464,1433.78 
  "/>
<path clip-path="url(#clip500)" d="
M1912.93 405.848 L2280.64 405.848 L2280.64 94.8081 L1912.93 94.8081  Z
  " fill="#ffffff" fill-rule="evenodd" fill-opacity="1"/>
<polyline clip-path="url(#clip500)" style="stroke:#000000; stroke-linecap:butt; stroke-linejoin:round; stroke-width:4; stroke-opacity:1; fill:none" points="
  1912.93,405.848 2280.64,405.848 2280.64,94.8081 1912.93,94.8081 1912.93,405.848 
  "/>
<polyline clip-path="url(#clip500)" style="stroke:#009af9; stroke-linecap:butt; stroke-linejoin:round; stroke-width:4; stroke-opacity:1; fill:none" points="
  1936.97,146.648 2081.21,146.648 
  "/>
<circle clip-path="url(#clip500)" cx="2009.09" cy="146.648" r="23.04" fill="#009af9" fill-rule="evenodd" fill-opacity="1" stroke="#000000" stroke-opacity="1" stroke-width="5.12"/>
<path clip-path="url(#clip500)" d="M2124.16 141.937 L2124.16 127.91 L2128.42 127.91 L2128.42 163.928 L2124.16 163.928 L2124.16 160.039 Q2122.82 162.354 2120.76 163.488 Q2118.72 164.599 2115.85 164.599 Q2111.15 164.599 2108.19 160.849 Q2105.25 157.099 2105.25 150.988 Q2105.25 144.877 2108.19 141.127 Q2111.15 137.377 2115.85 137.377 Q2118.72 137.377 2120.76 138.512 Q2122.82 139.623 2124.16 141.937 M2109.64 150.988 Q2109.64 155.687 2111.57 158.373 Q2113.51 161.035 2116.89 161.035 Q2120.27 161.035 2122.21 158.373 Q2124.16 155.687 2124.16 150.988 Q2124.16 146.289 2122.21 143.627 Q2120.27 140.942 2116.89 140.942 Q2113.51 140.942 2111.57 143.627 Q2109.64 146.289 2109.64 150.988 Z" fill="#000000" fill-rule="evenodd" fill-opacity="1" /><path clip-path="url(#clip500)" d="M2137.19 138.002 L2141.45 138.002 L2141.45 163.928 L2137.19 163.928 L2137.19 138.002 M2137.19 127.91 L2141.45 127.91 L2141.45 133.303 L2137.19 133.303 L2137.19 127.91 Z" fill="#000000" fill-rule="evenodd" fill-opacity="1" /><path clip-path="url(#clip500)" d="M2163.49 127.91 L2163.49 131.451 L2159.41 131.451 Q2157.12 131.451 2156.22 132.377 Q2155.34 133.303 2155.34 135.711 L2155.34 138.002 L2162.35 138.002 L2162.35 141.312 L2155.34 141.312 L2155.34 163.928 L2151.06 163.928 L2151.06 141.312 L2146.98 141.312 L2146.98 138.002 L2151.06 138.002 L2151.06 136.197 Q2151.06 131.868 2153.07 129.901 Q2155.08 127.91 2159.46 127.91 L2163.49 127.91 Z" fill="#000000" fill-rule="evenodd" fill-opacity="1" /><path clip-path="url(#clip500)" d="M2180.18 127.91 L2180.18 131.451 L2176.1 131.451 Q2173.81 131.451 2172.91 132.377 Q2172.03 133.303 2172.03 135.711 L2172.03 138.002 L2179.04 138.002 L2179.04 141.312 L2172.03 141.312 L2172.03 163.928 L2167.75 163.928 L2167.75 141.312 L2163.67 141.312 L2163.67 138.002 L2167.75 138.002 L2167.75 136.197 Q2167.75 131.868 2169.76 129.901 Q2171.77 127.91 2176.15 127.91 L2180.18 127.91 Z" fill="#000000" fill-rule="evenodd" fill-opacity="1" /><path clip-path="url(#clip500)" d="M2185.15 159.993 L2192.79 159.993 L2192.79 133.627 L2184.48 135.294 L2184.48 131.035 L2192.75 129.368 L2197.42 129.368 L2197.42 159.993 L2205.06 159.993 L2205.06 163.928 L2185.15 163.928 L2185.15 159.993 Z" fill="#000000" fill-rule="evenodd" fill-opacity="1" /><path clip-path="url(#clip500)" d="M2213.9 127.91 L2218.16 127.91 L2218.16 163.928 L2213.9 163.928 L2213.9 127.91 Z" fill="#000000" fill-rule="evenodd" fill-opacity="1" /><polyline clip-path="url(#clip500)" style="stroke:#e26f46; stroke-linecap:butt; stroke-linejoin:round; stroke-width:4; stroke-opacity:1; fill:none" points="
  1936.97,198.488 2081.21,198.488 
  "/>
<circle clip-path="url(#clip500)" cx="2009.09" cy="198.488" r="23.04" fill="#e26f46" fill-rule="evenodd" fill-opacity="1" stroke="#000000" stroke-opacity="1" stroke-width="5.12"/>
<path clip-path="url(#clip500)" d="M2124.16 193.777 L2124.16 179.75 L2128.42 179.75 L2128.42 215.768 L2124.16 215.768 L2124.16 211.879 Q2122.82 214.194 2120.76 215.328 Q2118.72 216.439 2115.85 216.439 Q2111.15 216.439 2108.19 212.689 Q2105.25 208.939 2105.25 202.828 Q2105.25 196.717 2108.19 192.967 Q2111.15 189.217 2115.85 189.217 Q2118.72 189.217 2120.76 190.352 Q2122.82 191.463 2124.16 193.777 M2109.64 202.828 Q2109.64 207.527 2111.57 210.213 Q2113.51 212.875 2116.89 212.875 Q2120.27 212.875 2122.21 210.213 Q2124.16 207.527 2124.16 202.828 Q2124.16 198.129 2122.21 195.467 Q2120.27 192.782 2116.89 192.782 Q2113.51 192.782 2111.57 195.467 Q2109.64 198.129 2109.64 202.828 Z" fill="#000000" fill-rule="evenodd" fill-opacity="1" /><path clip-path="url(#clip500)" d="M2137.19 189.842 L2141.45 189.842 L2141.45 215.768 L2137.19 215.768 L2137.19 189.842 M2137.19 179.75 L2141.45 179.75 L2141.45 185.143 L2137.19 185.143 L2137.19 179.75 Z" fill="#000000" fill-rule="evenodd" fill-opacity="1" /><path clip-path="url(#clip500)" d="M2163.49 179.75 L2163.49 183.291 L2159.41 183.291 Q2157.12 183.291 2156.22 184.217 Q2155.34 185.143 2155.34 187.551 L2155.34 189.842 L2162.35 189.842 L2162.35 193.152 L2155.34 193.152 L2155.34 215.768 L2151.06 215.768 L2151.06 193.152 L2146.98 193.152 L2146.98 189.842 L2151.06 189.842 L2151.06 188.037 Q2151.06 183.708 2153.07 181.741 Q2155.08 179.75 2159.46 179.75 L2163.49 179.75 Z" fill="#000000" fill-rule="evenodd" fill-opacity="1" /><path clip-path="url(#clip500)" d="M2180.18 179.75 L2180.18 183.291 L2176.1 183.291 Q2173.81 183.291 2172.91 184.217 Q2172.03 185.143 2172.03 187.551 L2172.03 189.842 L2179.04 189.842 L2179.04 193.152 L2172.03 193.152 L2172.03 215.768 L2167.75 215.768 L2167.75 193.152 L2163.67 193.152 L2163.67 189.842 L2167.75 189.842 L2167.75 188.037 Q2167.75 183.708 2169.76 181.741 Q2171.77 179.75 2176.15 179.75 L2180.18 179.75 Z" fill="#000000" fill-rule="evenodd" fill-opacity="1" /><path clip-path="url(#clip500)" d="M2185.15 211.833 L2192.79 211.833 L2192.79 185.467 L2184.48 187.134 L2184.48 182.875 L2192.75 181.208 L2197.42 181.208 L2197.42 211.833 L2205.06 211.833 L2205.06 215.768 L2185.15 215.768 L2185.15 211.833 Z" fill="#000000" fill-rule="evenodd" fill-opacity="1" /><path clip-path="url(#clip500)" d="M2228.93 193.824 Q2228.21 193.407 2227.35 193.222 Q2226.52 193.014 2225.5 193.014 Q2221.89 193.014 2219.94 195.375 Q2218.02 197.713 2218.02 202.111 L2218.02 215.768 L2213.74 215.768 L2213.74 189.842 L2218.02 189.842 L2218.02 193.87 Q2219.37 191.509 2221.52 190.375 Q2223.67 189.217 2226.75 189.217 Q2227.19 189.217 2227.72 189.287 Q2228.25 189.333 2228.9 189.449 L2228.93 193.824 Z" fill="#000000" fill-rule="evenodd" fill-opacity="1" /><polyline clip-path="url(#clip500)" style="stroke:#3da44d; stroke-linecap:butt; stroke-linejoin:round; stroke-width:4; stroke-opacity:1; fill:none" points="
  1936.97,250.328 2081.21,250.328 
  "/>
<circle clip-path="url(#clip500)" cx="2009.09" cy="250.328" r="23.04" fill="#3da44d" fill-rule="evenodd" fill-opacity="1" stroke="#000000" stroke-opacity="1" stroke-width="5.12"/>
<path clip-path="url(#clip500)" d="M2124.16 245.617 L2124.16 231.59 L2128.42 231.59 L2128.42 267.608 L2124.16 267.608 L2124.16 263.719 Q2122.82 266.034 2120.76 267.168 Q2118.72 268.279 2115.85 268.279 Q2111.15 268.279 2108.19 264.529 Q2105.25 260.779 2105.25 254.668 Q2105.25 248.557 2108.19 244.807 Q2111.15 241.057 2115.85 241.057 Q2118.72 241.057 2120.76 242.192 Q2122.82 243.303 2124.16 245.617 M2109.64 254.668 Q2109.64 259.367 2111.57 262.053 Q2113.51 264.715 2116.89 264.715 Q2120.27 264.715 2122.21 262.053 Q2124.16 259.367 2124.16 254.668 Q2124.16 249.969 2122.21 247.307 Q2120.27 244.622 2116.89 244.622 Q2113.51 244.622 2111.57 247.307 Q2109.64 249.969 2109.64 254.668 Z" fill="#000000" fill-rule="evenodd" fill-opacity="1" /><path clip-path="url(#clip500)" d="M2137.19 241.682 L2141.45 241.682 L2141.45 267.608 L2137.19 267.608 L2137.19 241.682 M2137.19 231.59 L2141.45 231.59 L2141.45 236.983 L2137.19 236.983 L2137.19 231.59 Z" fill="#000000" fill-rule="evenodd" fill-opacity="1" /><path clip-path="url(#clip500)" d="M2163.49 231.59 L2163.49 235.131 L2159.41 235.131 Q2157.12 235.131 2156.22 236.057 Q2155.34 236.983 2155.34 239.391 L2155.34 241.682 L2162.35 241.682 L2162.35 244.992 L2155.34 244.992 L2155.34 267.608 L2151.06 267.608 L2151.06 244.992 L2146.98 244.992 L2146.98 241.682 L2151.06 241.682 L2151.06 239.877 Q2151.06 235.548 2153.07 233.581 Q2155.08 231.59 2159.46 231.59 L2163.49 231.59 Z" fill="#000000" fill-rule="evenodd" fill-opacity="1" /><path clip-path="url(#clip500)" d="M2180.18 231.59 L2180.18 235.131 L2176.1 235.131 Q2173.81 235.131 2172.91 236.057 Q2172.03 236.983 2172.03 239.391 L2172.03 241.682 L2179.04 241.682 L2179.04 244.992 L2172.03 244.992 L2172.03 267.608 L2167.75 267.608 L2167.75 244.992 L2163.67 244.992 L2163.67 241.682 L2167.75 241.682 L2167.75 239.877 Q2167.75 235.548 2169.76 233.581 Q2171.77 231.59 2176.15 231.59 L2180.18 231.59 Z" fill="#000000" fill-rule="evenodd" fill-opacity="1" /><path clip-path="url(#clip500)" d="M2185.15 263.673 L2192.79 263.673 L2192.79 237.307 L2184.48 238.974 L2184.48 234.715 L2192.75 233.048 L2197.42 233.048 L2197.42 263.673 L2205.06 263.673 L2205.06 267.608 L2185.15 267.608 L2185.15 263.673 Z" fill="#000000" fill-rule="evenodd" fill-opacity="1" /><path clip-path="url(#clip500)" d="M2232.56 242.678 L2232.56 246.659 Q2230.75 245.664 2228.93 245.178 Q2227.12 244.668 2225.27 244.668 Q2221.13 244.668 2218.83 247.307 Q2216.54 249.923 2216.54 254.668 Q2216.54 259.414 2218.83 262.053 Q2221.13 264.668 2225.27 264.668 Q2227.12 264.668 2228.93 264.182 Q2230.75 263.673 2232.56 262.678 L2232.56 266.613 Q2230.78 267.446 2228.86 267.863 Q2226.96 268.279 2224.81 268.279 Q2218.95 268.279 2215.5 264.599 Q2212.05 260.918 2212.05 254.668 Q2212.05 248.326 2215.52 244.692 Q2219.02 241.057 2225.08 241.057 Q2227.05 241.057 2228.93 241.474 Q2230.8 241.868 2232.56 242.678 Z" fill="#000000" fill-rule="evenodd" fill-opacity="1" /><polyline clip-path="url(#clip500)" style="stroke:#c271d2; stroke-linecap:butt; stroke-linejoin:round; stroke-width:4; stroke-opacity:1; fill:none" points="
  1936.97,302.168 2081.21,302.168 
  "/>
<path clip-path="url(#clip500)" d="M2126.96 303.8 L2126.96 319.448 L2122.7 319.448 L2122.7 303.939 Q2122.7 300.258 2121.26 298.43 Q2119.83 296.601 2116.96 296.601 Q2113.51 296.601 2111.52 298.8 Q2109.53 300.999 2109.53 304.795 L2109.53 319.448 L2105.25 319.448 L2105.25 283.43 L2109.53 283.43 L2109.53 297.55 Q2111.06 295.212 2113.12 294.055 Q2115.2 292.897 2117.91 292.897 Q2122.38 292.897 2124.67 295.675 Q2126.96 298.43 2126.96 303.8 Z" fill="#000000" fill-rule="evenodd" fill-opacity="1" /><polyline clip-path="url(#clip500)" style="stroke:#ac8d18; stroke-linecap:butt; stroke-linejoin:round; stroke-width:4; stroke-opacity:1; fill:none" points="
  1936.97,354.008 2081.21,354.008 
  "/>
<path clip-path="url(#clip500)" d="M2128.79 371.108 Q2128.79 371.296 2128.57 372.022 Q2128.36 372.748 2127.85 373.872 Q2127.36 374.996 2126.68 376.027 Q2126 377.034 2124.87 377.784 Q2123.77 378.51 2122.51 378.51 Q2120.82 378.51 2119.7 377.385 Q2118.57 376.261 2118.57 374.575 Q2118.57 374.341 2118.6 374.106 Q2118.62 373.872 2118.64 373.732 Q2118.67 373.568 2118.74 373.31 Q2118.83 373.029 2118.85 372.912 Q2118.9 372.795 2119.02 372.443 Q2119.16 372.069 2119.21 371.928 Q2122.18 364.339 2122.18 361.177 Q2122.18 357.828 2119.58 357.828 Q2117.26 357.828 2114.97 359.514 Q2113.91 360.357 2112.91 361.856 Q2111.9 363.355 2111.71 363.918 Q2111.5 365.136 2111.2 366.072 Q2111.05 366.728 2110.38 369.281 L2109.32 373.614 L2108.41 377.245 Q2108.22 377.76 2107.71 378.135 Q2107.19 378.51 2106.63 378.51 Q2106.16 378.51 2105.69 378.182 Q2105.25 377.877 2105.25 377.151 Q2105.25 376.776 2105.43 376.097 L2112.39 348.459 L2112.53 347.522 Q2112.53 347.241 2112.41 347.1 Q2112.32 346.936 2111.76 346.819 Q2111.22 346.702 2110.14 346.702 Q2109.7 346.702 2109.49 346.679 Q2109.3 346.655 2109.13 346.538 Q2108.97 346.398 2108.97 346.116 Q2108.97 345.718 2109.13 345.507 Q2109.32 345.273 2109.46 345.226 Q2109.6 345.18 2109.88 345.156 Q2110.28 345.133 2111.62 345.016 Q2112.95 344.875 2114.1 344.781 Q2115.25 344.688 2115.74 344.688 Q2116.02 344.688 2116.16 344.828 Q2116.32 344.945 2116.35 345.086 L2116.37 345.203 L2112.62 360.451 Q2115.6 356.774 2119.72 356.774 Q2122.39 356.774 2123.82 358.156 Q2125.25 359.514 2125.25 361.903 Q2125.25 364.644 2122.32 372.443 Q2121.45 374.622 2121.45 375.863 Q2121.45 376.683 2121.71 377.058 Q2121.99 377.432 2122.6 377.432 Q2123.54 377.432 2124.36 376.894 Q2125.2 376.331 2125.79 375.418 Q2126.37 374.481 2126.77 373.544 Q2127.19 372.584 2127.5 371.506 Q2127.68 370.921 2127.78 370.78 Q2127.9 370.64 2128.22 370.64 Q2128.79 370.64 2128.79 371.108 Z" fill="#000000" fill-rule="evenodd" fill-opacity="1" /><path clip-path="url(#clip500)" d="M2133.66 351.662 Q2133.66 351.056 2133.71 350.875 Q2133.78 350.695 2134.04 350.416 L2140.48 343.235 Q2144.01 339.267 2144.01 335.808 Q2144.01 333.562 2142.83 331.955 Q2141.66 330.348 2139.52 330.348 Q2138.04 330.348 2136.79 331.25 Q2135.55 332.152 2134.97 333.758 Q2135.07 333.726 2135.42 333.726 Q2136.25 333.726 2136.71 334.25 Q2137.19 334.775 2137.19 335.48 Q2137.19 336.382 2136.6 336.824 Q2136.02 337.251 2135.45 337.251 Q2135.22 337.251 2134.91 337.201 Q2134.61 337.152 2134.14 336.693 Q2133.66 336.218 2133.66 335.381 Q2133.66 333.037 2135.43 331.168 Q2137.22 329.299 2139.94 329.299 Q2143.02 329.299 2145.04 331.135 Q2147.07 332.955 2147.07 335.808 Q2147.07 336.808 2146.76 337.726 Q2146.47 338.628 2146.06 339.333 Q2145.66 340.038 2144.58 341.169 Q2143.5 342.3 2142.63 343.104 Q2141.76 343.907 2139.81 345.612 L2136.25 349.072 L2142.3 349.072 Q2145.25 349.072 2145.48 348.81 Q2145.81 348.334 2146.22 345.826 L2147.07 345.826 L2146.12 351.662 L2133.66 351.662 Z" fill="#000000" fill-rule="evenodd" fill-opacity="1" /></svg>
