<?xml version="1.0" encoding="utf-8"?>
<svg xmlns="http://www.w3.org/2000/svg" xmlns:xlink="http://www.w3.org/1999/xlink" width="600" height="400" viewBox="0 0 2400 1600">
<defs>
  <clipPath id="clip330">
    <rect x="0" y="0" width="2400" height="1600"/>
  </clipPath>
</defs>
<path clip-path="url(#clip330)" d="
M0 1600 L2400 1600 L2400 0 L0 0  Z
  " fill="#ffffff" fill-rule="evenodd" fill-opacity="1"/>
<defs>
  <clipPath id="clip331">
    <rect x="480" y="0" width="1681" height="1600"/>
  </clipPath>
</defs>
<path clip-path="url(#clip330)" d="
M214.353 1486.45 L2352.76 1486.45 L2352.76 47.2441 L214.353 47.2441  Z
  " fill="#ffffff" fill-rule="evenodd" fill-opacity="1"/>
<defs>
  <clipPath id="clip332">
    <rect x="214" y="47" width="2139" height="1440"/>
  </clipPath>
</defs>
<polyline clip-path="url(#clip332)" style="stroke:#000000; stroke-linecap:butt; stroke-linejoin:round; stroke-width:2; stroke-opacity:0.1; fill:none" points="
  274.873,1486.45 274.873,47.2441 
  "/>
<polyline clip-path="url(#clip332)" style="stroke:#000000; stroke-linecap:butt; stroke-linejoin:round; stroke-width:2; stroke-opacity:0.1; fill:none" points="
  678.346,1486.45 678.346,47.2441 
  "/>
<polyline clip-path="url(#clip332)" style="stroke:#000000; stroke-linecap:butt; stroke-linejoin:round; stroke-width:2; stroke-opacity:0.1; fill:none" points="
  1081.82,1486.45 1081.82,47.2441 
  "/>
<polyline clip-path="url(#clip332)" style="stroke:#000000; stroke-linecap:butt; stroke-linejoin:round; stroke-width:2; stroke-opacity:0.1; fill:none" points="
  1485.29,1486.45 1485.29,47.2441 
  "/>
<polyline clip-path="url(#clip332)" style="stroke:#000000; stroke-linecap:butt; stroke-linejoin:round; stroke-width:2; stroke-opacity:0.1; fill:none" points="
  1888.76,1486.45 1888.76,47.2441 
  "/>
<polyline clip-path="url(#clip332)" style="stroke:#000000; stroke-linecap:butt; stroke-linejoin:round; stroke-width:2; stroke-opacity:0.1; fill:none" points="
  2292.24,1486.45 2292.24,47.2441 
  "/>
<polyline clip-path="url(#clip330)" style="stroke:#000000; stroke-linecap:butt; stroke-linejoin:round; stroke-width:4; stroke-opacity:1; fill:none" points="
  214.353,1486.45 2352.76,1486.45 
  "/>
<polyline clip-path="url(#clip330)" style="stroke:#000000; stroke-linecap:butt; stroke-linejoin:round; stroke-width:4; stroke-opacity:1; fill:none" points="
  274.873,1486.45 274.873,1467.55 
  "/>
<polyline clip-path="url(#clip330)" style="stroke:#000000; stroke-linecap:butt; stroke-linejoin:round; stroke-width:4; stroke-opacity:1; fill:none" points="
  678.346,1486.45 678.346,1467.55 
  "/>
<polyline clip-path="url(#clip330)" style="stroke:#000000; stroke-linecap:butt; stroke-linejoin:round; stroke-width:4; stroke-opacity:1; fill:none" points="
  1081.82,1486.45 1081.82,1467.55 
  "/>
<polyline clip-path="url(#clip330)" style="stroke:#000000; stroke-linecap:butt; stroke-linejoin:round; stroke-width:4; stroke-opacity:1; fill:none" points="
  1485.29,1486.45 1485.29,1467.55 
  "/>
<polyline clip-path="url(#clip330)" style="stroke:#000000; stroke-linecap:butt; stroke-linejoin:round; stroke-width:4; stroke-opacity:1; fill:none" points="
  1888.76,1486.45 1888.76,1467.55 
  "/>
<polyline clip-path="url(#clip330)" style="stroke:#000000; stroke-linecap:butt; stroke-linejoin:round; stroke-width:4; stroke-opacity:1; fill:none" points="
  2292.24,1486.45 2292.24,1467.55 
  "/>
<path clip-path="url(#clip330)" d="M274.873 1517.37 Q271.262 1517.37 269.434 1520.93 Q267.628 1524.47 267.628 1531.6 Q267.628 1538.71 269.434 1542.27 Q271.262 1545.82 274.873 1545.82 Q278.508 1545.82 280.313 1542.27 Q282.142 1538.71 282.142 1531.6 Q282.142 1524.47 280.313 1520.93 Q278.508 1517.37 274.873 1517.37 M274.873 1513.66 Q280.684 1513.66 283.739 1518.27 Q286.818 1522.85 286.818 1531.6 Q286.818 1540.33 283.739 1544.94 Q280.684 1549.52 274.873 1549.52 Q269.063 1549.52 265.985 1544.94 Q262.929 1540.33 262.929 1531.6 Q262.929 1522.85 265.985 1518.27 Q269.063 1513.66 274.873 1513.66 Z" fill="#000000" fill-rule="evenodd" fill-opacity="1" /><path clip-path="url(#clip330)" d="M653.033 1544.91 L660.672 1544.91 L660.672 1518.55 L652.362 1520.21 L652.362 1515.95 L660.626 1514.29 L665.302 1514.29 L665.302 1544.91 L672.941 1544.91 L672.941 1548.85 L653.033 1548.85 L653.033 1544.91 Z" fill="#000000" fill-rule="evenodd" fill-opacity="1" /><path clip-path="url(#clip330)" d="M692.385 1517.37 Q688.774 1517.37 686.945 1520.93 Q685.14 1524.47 685.14 1531.6 Q685.14 1538.71 686.945 1542.27 Q688.774 1545.82 692.385 1545.82 Q696.019 1545.82 697.825 1542.27 Q699.653 1538.71 699.653 1531.6 Q699.653 1524.47 697.825 1520.93 Q696.019 1517.37 692.385 1517.37 M692.385 1513.66 Q698.195 1513.66 701.251 1518.27 Q704.329 1522.85 704.329 1531.6 Q704.329 1540.33 701.251 1544.94 Q698.195 1549.52 692.385 1549.52 Q686.575 1549.52 683.496 1544.94 Q680.441 1540.33 680.441 1531.6 Q680.441 1522.85 683.496 1518.27 Q686.575 1513.66 692.385 1513.66 Z" fill="#000000" fill-rule="evenodd" fill-opacity="1" /><path clip-path="url(#clip330)" d="M1060.59 1544.91 L1076.91 1544.91 L1076.91 1548.85 L1054.97 1548.85 L1054.97 1544.91 Q1057.63 1542.16 1062.21 1537.53 Q1066.82 1532.88 1068 1531.53 Q1070.24 1529.01 1071.12 1527.27 Q1072.03 1525.51 1072.03 1523.82 Q1072.03 1521.07 1070.08 1519.33 Q1068.16 1517.6 1065.06 1517.6 Q1062.86 1517.6 1060.41 1518.36 Q1057.98 1519.13 1055.2 1520.68 L1055.2 1515.95 Q1058.02 1514.82 1060.48 1514.24 Q1062.93 1513.66 1064.97 1513.66 Q1070.34 1513.66 1073.53 1516.35 Q1076.73 1519.03 1076.73 1523.52 Q1076.73 1525.65 1075.92 1527.57 Q1075.13 1529.47 1073.02 1532.07 Q1072.44 1532.74 1069.34 1535.95 Q1066.24 1539.15 1060.59 1544.91 Z" fill="#000000" fill-rule="evenodd" fill-opacity="1" /><path clip-path="url(#clip330)" d="M1096.73 1517.37 Q1093.11 1517.37 1091.29 1520.93 Q1089.48 1524.47 1089.48 1531.6 Q1089.48 1538.71 1091.29 1542.27 Q1093.11 1545.82 1096.73 1545.82 Q1100.36 1545.82 1102.17 1542.27 Q1103.99 1538.71 1103.99 1531.6 Q1103.99 1524.47 1102.17 1520.93 Q1100.36 1517.37 1096.73 1517.37 M1096.73 1513.66 Q1102.54 1513.66 1105.59 1518.27 Q1108.67 1522.85 1108.67 1531.6 Q1108.67 1540.33 1105.59 1544.94 Q1102.54 1549.52 1096.73 1549.52 Q1090.92 1549.52 1087.84 1544.94 Q1084.78 1540.33 1084.78 1531.6 Q1084.78 1522.85 1087.84 1518.27 Q1090.92 1513.66 1096.73 1513.66 Z" fill="#000000" fill-rule="evenodd" fill-opacity="1" /><path clip-path="url(#clip330)" d="M1474.13 1530.21 Q1477.49 1530.93 1479.36 1533.2 Q1481.26 1535.47 1481.26 1538.8 Q1481.26 1543.92 1477.74 1546.72 Q1474.23 1549.52 1467.74 1549.52 Q1465.57 1549.52 1463.25 1549.08 Q1460.96 1548.66 1458.51 1547.81 L1458.51 1543.29 Q1460.45 1544.43 1462.77 1545.01 Q1465.08 1545.58 1467.61 1545.58 Q1472 1545.58 1474.3 1543.85 Q1476.61 1542.11 1476.61 1538.8 Q1476.61 1535.75 1474.46 1534.03 Q1472.33 1532.3 1468.51 1532.3 L1464.48 1532.3 L1464.48 1528.45 L1468.69 1528.45 Q1472.14 1528.45 1473.97 1527.09 Q1475.8 1525.7 1475.8 1523.11 Q1475.8 1520.45 1473.9 1519.03 Q1472.03 1517.6 1468.51 1517.6 Q1466.59 1517.6 1464.39 1518.01 Q1462.19 1518.43 1459.55 1519.31 L1459.55 1515.14 Q1462.21 1514.4 1464.53 1514.03 Q1466.86 1513.66 1468.92 1513.66 Q1474.25 1513.66 1477.35 1516.09 Q1480.45 1518.5 1480.45 1522.62 Q1480.45 1525.49 1478.81 1527.48 Q1477.17 1529.45 1474.13 1530.21 Z" fill="#000000" fill-rule="evenodd" fill-opacity="1" /><path clip-path="url(#clip330)" d="M1500.13 1517.37 Q1496.52 1517.37 1494.69 1520.93 Q1492.88 1524.47 1492.88 1531.6 Q1492.88 1538.71 1494.69 1542.27 Q1496.52 1545.82 1500.13 1545.82 Q1503.76 1545.82 1505.57 1542.27 Q1507.4 1538.71 1507.4 1531.6 Q1507.4 1524.47 1505.57 1520.93 Q1503.76 1517.37 1500.13 1517.37 M1500.13 1513.66 Q1505.94 1513.66 1508.99 1518.27 Q1512.07 1522.85 1512.07 1531.6 Q1512.07 1540.33 1508.99 1544.94 Q1505.94 1549.52 1500.13 1549.52 Q1494.32 1549.52 1491.24 1544.94 Q1488.18 1540.33 1488.18 1531.6 Q1488.18 1522.85 1491.24 1518.27 Q1494.32 1513.66 1500.13 1513.66 Z" fill="#000000" fill-rule="evenodd" fill-opacity="1" /><path clip-path="url(#clip330)" d="M1876.93 1518.36 L1865.13 1536.81 L1876.93 1536.81 L1876.93 1518.36 M1875.71 1514.29 L1881.59 1514.29 L1881.59 1536.81 L1886.52 1536.81 L1886.52 1540.7 L1881.59 1540.7 L1881.59 1548.85 L1876.93 1548.85 L1876.93 1540.7 L1861.33 1540.7 L1861.33 1536.19 L1875.71 1514.29 Z" fill="#000000" fill-rule="evenodd" fill-opacity="1" /><path clip-path="url(#clip330)" d="M1904.25 1517.37 Q1900.64 1517.37 1898.81 1520.93 Q1897 1524.47 1897 1531.6 Q1897 1538.71 1898.81 1542.27 Q1900.64 1545.82 1904.25 1545.82 Q1907.88 1545.82 1909.69 1542.27 Q1911.52 1538.71 1911.52 1531.6 Q1911.52 1524.47 1909.69 1520.93 Q1907.88 1517.37 1904.25 1517.37 M1904.25 1513.66 Q1910.06 1513.66 1913.11 1518.27 Q1916.19 1522.85 1916.19 1531.6 Q1916.19 1540.33 1913.11 1544.94 Q1910.06 1549.52 1904.25 1549.52 Q1898.44 1549.52 1895.36 1544.94 Q1892.3 1540.33 1892.3 1531.6 Q1892.3 1522.85 1895.36 1518.27 Q1898.44 1513.66 1904.25 1513.66 Z" fill="#000000" fill-rule="evenodd" fill-opacity="1" /><path clip-path="url(#clip330)" d="M2266.93 1514.29 L2285.29 1514.29 L2285.29 1518.22 L2271.22 1518.22 L2271.22 1526.7 Q2272.24 1526.35 2273.25 1526.19 Q2274.27 1526 2275.29 1526 Q2281.08 1526 2284.46 1529.17 Q2287.84 1532.34 2287.84 1537.76 Q2287.84 1543.34 2284.36 1546.44 Q2280.89 1549.52 2274.57 1549.52 Q2272.4 1549.52 2270.13 1549.15 Q2267.88 1548.78 2265.48 1548.04 L2265.48 1543.34 Q2267.56 1544.47 2269.78 1545.03 Q2272 1545.58 2274.48 1545.58 Q2278.49 1545.58 2280.82 1543.48 Q2283.16 1541.37 2283.16 1537.76 Q2283.16 1534.15 2280.82 1532.04 Q2278.49 1529.94 2274.48 1529.94 Q2272.61 1529.94 2270.73 1530.35 Q2268.88 1530.77 2266.93 1531.65 L2266.93 1514.29 Z" fill="#000000" fill-rule="evenodd" fill-opacity="1" /><path clip-path="url(#clip330)" d="M2307.05 1517.37 Q2303.44 1517.37 2301.61 1520.93 Q2299.8 1524.47 2299.8 1531.6 Q2299.8 1538.71 2301.61 1542.27 Q2303.44 1545.82 2307.05 1545.82 Q2310.68 1545.82 2312.49 1542.27 Q2314.32 1538.71 2314.32 1531.6 Q2314.32 1524.47 2312.49 1520.93 Q2310.68 1517.37 2307.05 1517.37 M2307.05 1513.66 Q2312.86 1513.66 2315.92 1518.27 Q2318.99 1522.85 2318.99 1531.6 Q2318.99 1540.33 2315.92 1544.94 Q2312.86 1549.52 2307.05 1549.52 Q2301.24 1549.52 2298.16 1544.94 Q2295.11 1540.33 2295.11 1531.6 Q2295.11 1522.85 2298.16 1518.27 Q2301.24 1513.66 2307.05 1513.66 Z" fill="#000000" fill-rule="evenodd" fill-opacity="1" /><polyline clip-path="url(#clip332)" style="stroke:#000000; stroke-linecap:butt; stroke-linejoin:round; stroke-width:2; stroke-opacity:0.1; fill:none" points="
  214.353,1423.77 2352.76,1423.77 
  "/>
<polyline clip-path="url(#clip332)" style="stroke:#000000; stroke-linecap:butt; stroke-linejoin:round; stroke-width:2; stroke-opacity:0.1; fill:none" points="
  214.353,1208.17 2352.76,1208.17 
  "/>
<polyline clip-path="url(#clip332)" style="stroke:#000000; stroke-linecap:butt; stroke-linejoin:round; stroke-width:2; stroke-opacity:0.1; fill:none" points="
  214.353,992.559 2352.76,992.559 
  "/>
<polyline clip-path="url(#clip332)" style="stroke:#000000; stroke-linecap:butt; stroke-linejoin:round; stroke-width:2; stroke-opacity:0.1; fill:none" points="
  214.353,776.951 2352.76,776.951 
  "/>
<polyline clip-path="url(#clip332)" style="stroke:#000000; stroke-linecap:butt; stroke-linejoin:round; stroke-width:2; stroke-opacity:0.1; fill:none" points="
  214.353,561.344 2352.76,561.344 
  "/>
<polyline clip-path="url(#clip332)" style="stroke:#000000; stroke-linecap:butt; stroke-linejoin:round; stroke-width:2; stroke-opacity:0.1; fill:none" points="
  214.353,345.737 2352.76,345.737 
  "/>
<polyline clip-path="url(#clip332)" style="stroke:#000000; stroke-linecap:butt; stroke-linejoin:round; stroke-width:2; stroke-opacity:0.1; fill:none" points="
  214.353,130.129 2352.76,130.129 
  "/>
<polyline clip-path="url(#clip330)" style="stroke:#000000; stroke-linecap:butt; stroke-linejoin:round; stroke-width:4; stroke-opacity:1; fill:none" points="
  214.353,1486.45 214.353,47.2441 
  "/>
<polyline clip-path="url(#clip330)" style="stroke:#000000; stroke-linecap:butt; stroke-linejoin:round; stroke-width:4; stroke-opacity:1; fill:none" points="
  214.353,1423.77 233.25,1423.77 
  "/>
<polyline clip-path="url(#clip330)" style="stroke:#000000; stroke-linecap:butt; stroke-linejoin:round; stroke-width:4; stroke-opacity:1; fill:none" points="
  214.353,1208.17 233.25,1208.17 
  "/>
<polyline clip-path="url(#clip330)" style="stroke:#000000; stroke-linecap:butt; stroke-linejoin:round; stroke-width:4; stroke-opacity:1; fill:none" points="
  214.353,992.559 233.25,992.559 
  "/>
<polyline clip-path="url(#clip330)" style="stroke:#000000; stroke-linecap:butt; stroke-linejoin:round; stroke-width:4; stroke-opacity:1; fill:none" points="
  214.353,776.951 233.25,776.951 
  "/>
<polyline clip-path="url(#clip330)" style="stroke:#000000; stroke-linecap:butt; stroke-linejoin:round; stroke-width:4; stroke-opacity:1; fill:none" points="
  214.353,561.344 233.25,561.344 
  "/>
<polyline clip-path="url(#clip330)" style="stroke:#000000; stroke-linecap:butt; stroke-linejoin:round; stroke-width:4; stroke-opacity:1; fill:none" points="
  214.353,345.737 233.25,345.737 
  "/>
<polyline clip-path="url(#clip330)" style="stroke:#000000; stroke-linecap:butt; stroke-linejoin:round; stroke-width:4; stroke-opacity:1; fill:none" points="
  214.353,130.129 233.25,130.129 
  "/>
<path clip-path="url(#clip330)" d="M52.6588 1437.12 L60.2976 1437.12 L60.2976 1410.75 L51.9875 1412.42 L51.9875 1408.16 L60.2513 1406.49 L64.9272 1406.49 L64.9272 1437.12 L72.5661 1437.12 L72.5661 1441.05 L52.6588 1441.05 L52.6588 1437.12 Z" fill="#000000" fill-rule="evenodd" fill-opacity="1" /><path clip-path="url(#clip330)" d="M82.0568 1406.49 L100.413 1406.49 L100.413 1410.43 L86.3392 1410.43 L86.3392 1418.9 Q87.3577 1418.55 88.3762 1418.39 Q89.3947 1418.21 90.4132 1418.21 Q96.2002 1418.21 99.5798 1421.38 Q102.959 1424.55 102.959 1429.97 Q102.959 1435.54 99.4872 1438.65 Q96.015 1441.72 89.6956 1441.72 Q87.5197 1441.72 85.2512 1441.35 Q83.0058 1440.98 80.5984 1440.24 L80.5984 1435.54 Q82.6818 1436.68 84.904 1437.23 Q87.1262 1437.79 89.603 1437.79 Q93.6076 1437.79 95.9456 1435.68 Q98.2835 1433.58 98.2835 1429.97 Q98.2835 1426.35 95.9456 1424.25 Q93.6076 1422.14 89.603 1422.14 Q87.728 1422.14 85.8531 1422.56 Q84.0012 1422.97 82.0568 1423.85 L82.0568 1406.49 Z" fill="#000000" fill-rule="evenodd" fill-opacity="1" /><path clip-path="url(#clip330)" d="M122.172 1409.57 Q118.561 1409.57 116.733 1413.14 Q114.927 1416.68 114.927 1423.81 Q114.927 1430.91 116.733 1434.48 Q118.561 1438.02 122.172 1438.02 Q125.807 1438.02 127.612 1434.48 Q129.441 1430.91 129.441 1423.81 Q129.441 1416.68 127.612 1413.14 Q125.807 1409.57 122.172 1409.57 M122.172 1405.87 Q127.982 1405.87 131.038 1410.48 Q134.117 1415.06 134.117 1423.81 Q134.117 1432.54 131.038 1437.14 Q127.982 1441.72 122.172 1441.72 Q116.362 1441.72 113.283 1437.14 Q110.228 1432.54 110.228 1423.81 Q110.228 1415.06 113.283 1410.48 Q116.362 1405.87 122.172 1405.87 Z" fill="#000000" fill-rule="evenodd" fill-opacity="1" /><path clip-path="url(#clip330)" d="M142.334 1435.17 L147.218 1435.17 L147.218 1441.05 L142.334 1441.05 L142.334 1435.17 Z" fill="#000000" fill-rule="evenodd" fill-opacity="1" /><path clip-path="url(#clip330)" d="M157.45 1406.49 L175.806 1406.49 L175.806 1410.43 L161.732 1410.43 L161.732 1418.9 Q162.751 1418.55 163.769 1418.39 Q164.788 1418.21 165.806 1418.21 Q171.593 1418.21 174.973 1421.38 Q178.353 1424.55 178.353 1429.97 Q178.353 1435.54 174.88 1438.65 Q171.408 1441.72 165.089 1441.72 Q162.913 1441.72 160.644 1441.35 Q158.399 1440.98 155.992 1440.24 L155.992 1435.54 Q158.075 1436.68 160.297 1437.23 Q162.519 1437.79 164.996 1437.79 Q169.001 1437.79 171.339 1435.68 Q173.677 1433.58 173.677 1429.97 Q173.677 1426.35 171.339 1424.25 Q169.001 1422.14 164.996 1422.14 Q163.121 1422.14 161.246 1422.56 Q159.394 1422.97 157.45 1423.85 L157.45 1406.49 Z" fill="#000000" fill-rule="evenodd" fill-opacity="1" /><path clip-path="url(#clip330)" d="M51.6634 1221.51 L59.3023 1221.51 L59.3023 1195.15 L50.9921 1196.81 L50.9921 1192.55 L59.256 1190.89 L63.9319 1190.89 L63.9319 1221.51 L71.5707 1221.51 L71.5707 1225.45 L51.6634 1225.45 L51.6634 1221.51 Z" fill="#000000" fill-rule="evenodd" fill-opacity="1" /><path clip-path="url(#clip330)" d="M81.0614 1190.89 L99.4178 1190.89 L99.4178 1194.82 L85.3438 1194.82 L85.3438 1203.29 Q86.3623 1202.95 87.3808 1202.78 Q88.3993 1202.6 89.4178 1202.6 Q95.2049 1202.6 98.5845 1205.77 Q101.964 1208.94 101.964 1214.36 Q101.964 1219.94 98.4919 1223.04 Q95.0197 1226.12 88.7003 1226.12 Q86.5243 1226.12 84.2558 1225.75 Q82.0105 1225.38 79.6031 1224.64 L79.6031 1219.94 Q81.6864 1221.07 83.9086 1221.63 Q86.1308 1222.18 88.6077 1222.18 Q92.6123 1222.18 94.9502 1220.08 Q97.2882 1217.97 97.2882 1214.36 Q97.2882 1210.75 94.9502 1208.64 Q92.6123 1206.53 88.6077 1206.53 Q86.7327 1206.53 84.8577 1206.95 Q83.0058 1207.37 81.0614 1208.25 L81.0614 1190.89 Z" fill="#000000" fill-rule="evenodd" fill-opacity="1" /><path clip-path="url(#clip330)" d="M111.987 1221.51 L119.626 1221.51 L119.626 1195.15 L111.316 1196.81 L111.316 1192.55 L119.58 1190.89 L124.256 1190.89 L124.256 1221.51 L131.894 1221.51 L131.894 1225.45 L111.987 1225.45 L111.987 1221.51 Z" fill="#000000" fill-rule="evenodd" fill-opacity="1" /><path clip-path="url(#clip330)" d="M141.339 1219.57 L146.223 1219.57 L146.223 1225.45 L141.339 1225.45 L141.339 1219.57 Z" fill="#000000" fill-rule="evenodd" fill-opacity="1" /><path clip-path="url(#clip330)" d="M166.408 1193.96 Q162.797 1193.96 160.968 1197.53 Q159.163 1201.07 159.163 1208.2 Q159.163 1215.31 160.968 1218.87 Q162.797 1222.41 166.408 1222.41 Q170.042 1222.41 171.848 1218.87 Q173.677 1215.31 173.677 1208.2 Q173.677 1201.07 171.848 1197.53 Q170.042 1193.96 166.408 1193.96 M166.408 1190.26 Q172.218 1190.26 175.274 1194.87 Q178.353 1199.45 178.353 1208.2 Q178.353 1216.93 175.274 1221.53 Q172.218 1226.12 166.408 1226.12 Q160.598 1226.12 157.519 1221.53 Q154.464 1216.93 154.464 1208.2 Q154.464 1199.45 157.519 1194.87 Q160.598 1190.26 166.408 1190.26 Z" fill="#000000" fill-rule="evenodd" fill-opacity="1" /><path clip-path="url(#clip330)" d="M52.6588 1005.9 L60.2976 1005.9 L60.2976 979.538 L51.9875 981.205 L51.9875 976.945 L60.2513 975.279 L64.9272 975.279 L64.9272 1005.9 L72.5661 1005.9 L72.5661 1009.84 L52.6588 1009.84 L52.6588 1005.9 Z" fill="#000000" fill-rule="evenodd" fill-opacity="1" /><path clip-path="url(#clip330)" d="M82.0568 975.279 L100.413 975.279 L100.413 979.214 L86.3392 979.214 L86.3392 987.686 Q87.3577 987.339 88.3762 987.177 Q89.3947 986.992 90.4132 986.992 Q96.2002 986.992 99.5798 990.163 Q102.959 993.334 102.959 998.751 Q102.959 1004.33 99.4872 1007.43 Q96.015 1010.51 89.6956 1010.51 Q87.5197 1010.51 85.2512 1010.14 Q83.0058 1009.77 80.5984 1009.03 L80.5984 1004.33 Q82.6818 1005.46 84.904 1006.02 Q87.1262 1006.57 89.603 1006.57 Q93.6076 1006.57 95.9456 1004.47 Q98.2835 1002.36 98.2835 998.751 Q98.2835 995.14 95.9456 993.033 Q93.6076 990.927 89.603 990.927 Q87.728 990.927 85.8531 991.344 Q84.0012 991.76 82.0568 992.64 L82.0568 975.279 Z" fill="#000000" fill-rule="evenodd" fill-opacity="1" /><path clip-path="url(#clip330)" d="M112.983 1005.9 L120.621 1005.9 L120.621 979.538 L112.311 981.205 L112.311 976.945 L120.575 975.279 L125.251 975.279 L125.251 1005.9 L132.89 1005.9 L132.89 1009.84 L112.983 1009.84 L112.983 1005.9 Z" fill="#000000" fill-rule="evenodd" fill-opacity="1" /><path clip-path="url(#clip330)" d="M142.334 1003.96 L147.218 1003.96 L147.218 1009.84 L142.334 1009.84 L142.334 1003.96 Z" fill="#000000" fill-rule="evenodd" fill-opacity="1" /><path clip-path="url(#clip330)" d="M157.45 975.279 L175.806 975.279 L175.806 979.214 L161.732 979.214 L161.732 987.686 Q162.751 987.339 163.769 987.177 Q164.788 986.992 165.806 986.992 Q171.593 986.992 174.973 990.163 Q178.353 993.334 178.353 998.751 Q178.353 1004.33 174.88 1007.43 Q171.408 1010.51 165.089 1010.51 Q162.913 1010.51 160.644 1010.14 Q158.399 1009.77 155.992 1009.03 L155.992 1004.33 Q158.075 1005.46 160.297 1006.02 Q162.519 1006.57 164.996 1006.57 Q169.001 1006.57 171.339 1004.47 Q173.677 1002.36 173.677 998.751 Q173.677 995.14 171.339 993.033 Q169.001 990.927 164.996 990.927 Q163.121 990.927 161.246 991.344 Q159.394 991.76 157.45 992.64 L157.45 975.279 Z" fill="#000000" fill-rule="evenodd" fill-opacity="1" /><path clip-path="url(#clip330)" d="M51.6634 790.296 L59.3023 790.296 L59.3023 763.931 L50.9921 765.597 L50.9921 761.338 L59.256 759.671 L63.9319 759.671 L63.9319 790.296 L71.5707 790.296 L71.5707 794.231 L51.6634 794.231 L51.6634 790.296 Z" fill="#000000" fill-rule="evenodd" fill-opacity="1" /><path clip-path="url(#clip330)" d="M81.0614 759.671 L99.4178 759.671 L99.4178 763.607 L85.3438 763.607 L85.3438 772.079 Q86.3623 771.732 87.3808 771.57 Q88.3993 771.384 89.4178 771.384 Q95.2049 771.384 98.5845 774.556 Q101.964 777.727 101.964 783.144 Q101.964 788.722 98.4919 791.824 Q95.0197 794.903 88.7003 794.903 Q86.5243 794.903 84.2558 794.532 Q82.0105 794.162 79.6031 793.421 L79.6031 788.722 Q81.6864 789.856 83.9086 790.412 Q86.1308 790.968 88.6077 790.968 Q92.6123 790.968 94.9502 788.861 Q97.2882 786.755 97.2882 783.144 Q97.2882 779.532 94.9502 777.426 Q92.6123 775.319 88.6077 775.319 Q86.7327 775.319 84.8577 775.736 Q83.0058 776.153 81.0614 777.032 L81.0614 759.671 Z" fill="#000000" fill-rule="evenodd" fill-opacity="1" /><path clip-path="url(#clip330)" d="M115.205 790.296 L131.524 790.296 L131.524 794.231 L109.58 794.231 L109.58 790.296 Q112.242 787.542 116.825 782.912 Q121.432 778.259 122.612 776.917 Q124.857 774.394 125.737 772.657 Q126.64 770.898 126.64 769.208 Q126.64 766.454 124.695 764.718 Q122.774 762.982 119.672 762.982 Q117.473 762.982 115.02 763.745 Q112.589 764.509 109.811 766.06 L109.811 761.338 Q112.635 760.204 115.089 759.625 Q117.543 759.046 119.58 759.046 Q124.95 759.046 128.144 761.732 Q131.339 764.417 131.339 768.907 Q131.339 771.037 130.529 772.958 Q129.742 774.857 127.635 777.449 Q127.057 778.12 123.955 781.338 Q120.853 784.532 115.205 790.296 Z" fill="#000000" fill-rule="evenodd" fill-opacity="1" /><path clip-path="url(#clip330)" d="M141.339 788.352 L146.223 788.352 L146.223 794.231 L141.339 794.231 L141.339 788.352 Z" fill="#000000" fill-rule="evenodd" fill-opacity="1" /><path clip-path="url(#clip330)" d="M166.408 762.75 Q162.797 762.75 160.968 766.315 Q159.163 769.857 159.163 776.986 Q159.163 784.093 160.968 787.657 Q162.797 791.199 166.408 791.199 Q170.042 791.199 171.848 787.657 Q173.677 784.093 173.677 776.986 Q173.677 769.857 171.848 766.315 Q170.042 762.75 166.408 762.75 M166.408 759.046 Q172.218 759.046 175.274 763.653 Q178.353 768.236 178.353 776.986 Q178.353 785.713 175.274 790.319 Q172.218 794.903 166.408 794.903 Q160.598 794.903 157.519 790.319 Q154.464 785.713 154.464 776.986 Q154.464 768.236 157.519 763.653 Q160.598 759.046 166.408 759.046 Z" fill="#000000" fill-rule="evenodd" fill-opacity="1" /><path clip-path="url(#clip330)" d="M52.6588 574.689 L60.2976 574.689 L60.2976 548.323 L51.9875 549.99 L51.9875 545.731 L60.2513 544.064 L64.9272 544.064 L64.9272 574.689 L72.5661 574.689 L72.5661 578.624 L52.6588 578.624 L52.6588 574.689 Z" fill="#000000" fill-rule="evenodd" fill-opacity="1" /><path clip-path="url(#clip330)" d="M82.0568 544.064 L100.413 544.064 L100.413 547.999 L86.3392 547.999 L86.3392 556.471 Q87.3577 556.124 88.3762 555.962 Q89.3947 555.777 90.4132 555.777 Q96.2002 555.777 99.5798 558.948 Q102.959 562.12 102.959 567.536 Q102.959 573.115 99.4872 576.217 Q96.015 579.295 89.6956 579.295 Q87.5197 579.295 85.2512 578.925 Q83.0058 578.555 80.5984 577.814 L80.5984 573.115 Q82.6818 574.249 84.904 574.805 Q87.1262 575.36 89.603 575.36 Q93.6076 575.36 95.9456 573.254 Q98.2835 571.147 98.2835 567.536 Q98.2835 563.925 95.9456 561.819 Q93.6076 559.712 89.603 559.712 Q87.728 559.712 85.8531 560.129 Q84.0012 560.545 82.0568 561.425 L82.0568 544.064 Z" fill="#000000" fill-rule="evenodd" fill-opacity="1" /><path clip-path="url(#clip330)" d="M116.2 574.689 L132.519 574.689 L132.519 578.624 L110.575 578.624 L110.575 574.689 Q113.237 571.934 117.82 567.305 Q122.427 562.652 123.607 561.309 Q125.853 558.786 126.732 557.05 Q127.635 555.291 127.635 553.601 Q127.635 550.846 125.691 549.11 Q123.77 547.374 120.668 547.374 Q118.469 547.374 116.015 548.138 Q113.584 548.902 110.807 550.453 L110.807 545.731 Q113.631 544.596 116.084 544.018 Q118.538 543.439 120.575 543.439 Q125.945 543.439 129.14 546.124 Q132.334 548.809 132.334 553.3 Q132.334 555.43 131.524 557.351 Q130.737 559.249 128.631 561.842 Q128.052 562.513 124.95 565.731 Q121.848 568.925 116.2 574.689 Z" fill="#000000" fill-rule="evenodd" fill-opacity="1" /><path clip-path="url(#clip330)" d="M142.334 572.744 L147.218 572.744 L147.218 578.624 L142.334 578.624 L142.334 572.744 Z" fill="#000000" fill-rule="evenodd" fill-opacity="1" /><path clip-path="url(#clip330)" d="M157.45 544.064 L175.806 544.064 L175.806 547.999 L161.732 547.999 L161.732 556.471 Q162.751 556.124 163.769 555.962 Q164.788 555.777 165.806 555.777 Q171.593 555.777 174.973 558.948 Q178.353 562.12 178.353 567.536 Q178.353 573.115 174.88 576.217 Q171.408 579.295 165.089 579.295 Q162.913 579.295 160.644 578.925 Q158.399 578.555 155.992 577.814 L155.992 573.115 Q158.075 574.249 160.297 574.805 Q162.519 575.36 164.996 575.36 Q169.001 575.36 171.339 573.254 Q173.677 571.147 173.677 567.536 Q173.677 563.925 171.339 561.819 Q169.001 559.712 164.996 559.712 Q163.121 559.712 161.246 560.129 Q159.394 560.545 157.45 561.425 L157.45 544.064 Z" fill="#000000" fill-rule="evenodd" fill-opacity="1" /><path clip-path="url(#clip330)" d="M51.6634 359.082 L59.3023 359.082 L59.3023 332.716 L50.9921 334.383 L50.9921 330.123 L59.256 328.457 L63.9319 328.457 L63.9319 359.082 L71.5707 359.082 L71.5707 363.017 L51.6634 363.017 L51.6634 359.082 Z" fill="#000000" fill-rule="evenodd" fill-opacity="1" /><path clip-path="url(#clip330)" d="M81.0614 328.457 L99.4178 328.457 L99.4178 332.392 L85.3438 332.392 L85.3438 340.864 Q86.3623 340.517 87.3808 340.355 Q88.3993 340.17 89.4178 340.17 Q95.2049 340.17 98.5845 343.341 Q101.964 346.512 101.964 351.929 Q101.964 357.507 98.4919 360.609 Q95.0197 363.688 88.7003 363.688 Q86.5243 363.688 84.2558 363.318 Q82.0105 362.947 79.6031 362.206 L79.6031 357.507 Q81.6864 358.642 83.9086 359.197 Q86.1308 359.753 88.6077 359.753 Q92.6123 359.753 94.9502 357.646 Q97.2882 355.54 97.2882 351.929 Q97.2882 348.318 94.9502 346.211 Q92.6123 344.105 88.6077 344.105 Q86.7327 344.105 84.8577 344.521 Q83.0058 344.938 81.0614 345.818 L81.0614 328.457 Z" fill="#000000" fill-rule="evenodd" fill-opacity="1" /><path clip-path="url(#clip330)" d="M125.344 344.383 Q128.7 345.1 130.575 347.369 Q132.473 349.637 132.473 352.97 Q132.473 358.086 128.955 360.887 Q125.436 363.688 118.955 363.688 Q116.779 363.688 114.464 363.248 Q112.172 362.831 109.719 361.975 L109.719 357.461 Q111.663 358.595 113.978 359.174 Q116.293 359.753 118.816 359.753 Q123.214 359.753 125.506 358.017 Q127.82 356.281 127.82 352.97 Q127.82 349.915 125.668 348.202 Q123.538 346.466 119.719 346.466 L115.691 346.466 L115.691 342.623 L119.904 342.623 Q123.353 342.623 125.182 341.258 Q127.01 339.869 127.01 337.276 Q127.01 334.614 125.112 333.202 Q123.237 331.767 119.719 331.767 Q117.797 331.767 115.598 332.184 Q113.399 332.6 110.76 333.48 L110.76 329.313 Q113.422 328.572 115.737 328.202 Q118.075 327.832 120.135 327.832 Q125.459 327.832 128.561 330.262 Q131.663 332.67 131.663 336.79 Q131.663 339.66 130.019 341.651 Q128.376 343.619 125.344 344.383 Z" fill="#000000" fill-rule="evenodd" fill-opacity="1" /><path clip-path="url(#clip330)" d="M141.339 357.137 L146.223 357.137 L146.223 363.017 L141.339 363.017 L141.339 357.137 Z" fill="#000000" fill-rule="evenodd" fill-opacity="1" /><path clip-path="url(#clip330)" d="M166.408 331.535 Q162.797 331.535 160.968 335.1 Q159.163 338.642 159.163 345.771 Q159.163 352.878 160.968 356.443 Q162.797 359.984 166.408 359.984 Q170.042 359.984 171.848 356.443 Q173.677 352.878 173.677 345.771 Q173.677 338.642 171.848 335.1 Q170.042 331.535 166.408 331.535 M166.408 327.832 Q172.218 327.832 175.274 332.438 Q178.353 337.021 178.353 345.771 Q178.353 354.498 175.274 359.105 Q172.218 363.688 166.408 363.688 Q160.598 363.688 157.519 359.105 Q154.464 354.498 154.464 345.771 Q154.464 337.021 157.519 332.438 Q160.598 327.832 166.408 327.832 Z" fill="#000000" fill-rule="evenodd" fill-opacity="1" /><path clip-path="url(#clip330)" d="M52.6588 143.474 L60.2976 143.474 L60.2976 117.109 L51.9875 118.775 L51.9875 114.516 L60.2513 112.849 L64.9272 112.849 L64.9272 143.474 L72.5661 143.474 L72.5661 147.409 L52.6588 147.409 L52.6588 143.474 Z" fill="#000000" fill-rule="evenodd" fill-opacity="1" /><path clip-path="url(#clip330)" d="M82.0568 112.849 L100.413 112.849 L100.413 116.784 L86.3392 116.784 L86.3392 125.257 Q87.3577 124.909 88.3762 124.747 Q89.3947 124.562 90.4132 124.562 Q96.2002 124.562 99.5798 127.733 Q102.959 130.905 102.959 136.321 Q102.959 141.9 99.4872 145.002 Q96.015 148.081 89.6956 148.081 Q87.5197 148.081 85.2512 147.71 Q83.0058 147.34 80.5984 146.599 L80.5984 141.9 Q82.6818 143.034 84.904 143.59 Q87.1262 144.145 89.603 144.145 Q93.6076 144.145 95.9456 142.039 Q98.2835 139.932 98.2835 136.321 Q98.2835 132.71 95.9456 130.604 Q93.6076 128.497 89.603 128.497 Q87.728 128.497 85.8531 128.914 Q84.0012 129.331 82.0568 130.21 L82.0568 112.849 Z" fill="#000000" fill-rule="evenodd" fill-opacity="1" /><path clip-path="url(#clip330)" d="M126.339 128.775 Q129.695 129.493 131.57 131.761 Q133.469 134.03 133.469 137.363 Q133.469 142.479 129.95 145.28 Q126.432 148.081 119.95 148.081 Q117.774 148.081 115.459 147.641 Q113.168 147.224 110.714 146.368 L110.714 141.854 Q112.658 142.988 114.973 143.567 Q117.288 144.145 119.811 144.145 Q124.209 144.145 126.501 142.409 Q128.816 140.673 128.816 137.363 Q128.816 134.308 126.663 132.595 Q124.533 130.858 120.714 130.858 L116.686 130.858 L116.686 127.016 L120.899 127.016 Q124.348 127.016 126.177 125.65 Q128.006 124.261 128.006 121.669 Q128.006 119.007 126.107 117.595 Q124.232 116.159 120.714 116.159 Q118.793 116.159 116.594 116.576 Q114.395 116.993 111.756 117.872 L111.756 113.706 Q114.418 112.965 116.733 112.595 Q119.07 112.224 121.131 112.224 Q126.455 112.224 129.557 114.655 Q132.658 117.062 132.658 121.183 Q132.658 124.053 131.015 126.044 Q129.371 128.011 126.339 128.775 Z" fill="#000000" fill-rule="evenodd" fill-opacity="1" /><path clip-path="url(#clip330)" d="M142.334 141.53 L147.218 141.53 L147.218 147.409 L142.334 147.409 L142.334 141.53 Z" fill="#000000" fill-rule="evenodd" fill-opacity="1" /><path clip-path="url(#clip330)" d="M157.45 112.849 L175.806 112.849 L175.806 116.784 L161.732 116.784 L161.732 125.257 Q162.751 124.909 163.769 124.747 Q164.788 124.562 165.806 124.562 Q171.593 124.562 174.973 127.733 Q178.353 130.905 178.353 136.321 Q178.353 141.9 174.88 145.002 Q171.408 148.081 165.089 148.081 Q162.913 148.081 160.644 147.71 Q158.399 147.34 155.992 146.599 L155.992 141.9 Q158.075 143.034 160.297 143.59 Q162.519 144.145 164.996 144.145 Q169.001 144.145 171.339 142.039 Q173.677 139.932 173.677 136.321 Q173.677 132.71 171.339 130.604 Q169.001 128.497 164.996 128.497 Q163.121 128.497 161.246 128.914 Q159.394 129.331 157.45 130.21 L157.45 112.849 Z" fill="#000000" fill-rule="evenodd" fill-opacity="1" /><polyline clip-path="url(#clip332)" style="stroke:#009af9; stroke-linecap:butt; stroke-linejoin:round; stroke-width:12; stroke-opacity:1; fill:none" points="
  274.873,87.9763 276.891,260.699 278.908,671.582 280.925,1078.88 282.943,1277.47 284.96,1220.6 286.978,1010.69 288.995,795.709 291.012,670.149 293.03,646.13 
  295.047,686.724 297.064,752.367 299.082,822.289 301.099,887.016 303.116,931.401 305.134,929.437 307.151,859.042 309.169,727.418 311.186,585.504 313.203,512.541 
  315.221,571.284 317.238,759.807 319.255,996.273 321.273,1155.78 323.29,1142.58 325.307,952.746 327.325,683.785 329.342,480.145 331.36,446.668 333.377,586.487 
  335.394,805.923 337.412,981.78 339.429,1040.24 341.446,990.365 343.464,895.686 345.481,817.726 347.498,780.215 349.516,773.456 351.533,779.435 353.551,787.11 
  355.568,788.096 357.585,768.583 359.603,716.741 361.62,643.698 363.637,593.636 365.655,621.241 367.672,745.854 369.689,922.17 371.707,1061.48 373.724,1093.02 
  375.741,1013.81 377.759,882.981 379.776,769.159 381.794,703.339 383.811,677.893 385.828,679.964 387.846,713.105 389.863,781.565 391.88,860.46 393.898,895.11 
  395.915,841.572 397.932,713.299 399.95,587.209 401.967,557.546 403.985,671.14 406.002,891.136 408.019,1112.29 410.037,1216.11 412.054,1134.15 414.071,887.893 
  416.089,584.824 418.106,369.487 420.123,350.035 422.141,538.531 424.158,841.618 426.176,1111.55 428.193,1228.56 430.21,1161.85 432.228,970.834 434.245,753.02 
  436.262,584.266 438.28,495.801 440.297,491.842 442.314,572.968 444.332,732.046 446.349,928.124 448.367,1077.14 450.384,1089.37 452.401,937.197 454.419,696.924 
  456.436,516.698 458.453,520.506 460.471,717.969 462.488,993.662 464.505,1186.94 466.523,1197.79 468.54,1036.77 470.557,793.01 472.575,565.27 474.592,418.385 
  476.61,383.28 478.627,469.764 480.644,661.173 482.662,899.304 484.679,1092.86 486.696,1160.81 488.714,1081.03 490.731,904.098 492.748,722.419 494.766,620.117 
  496.783,634.387 498.801,742.015 500.818,871.968 502.835,941.755 504.853,905.891 506.87,788.054 508.887,668.54 510.905,629.14 512.922,695.041 514.939,819.104 
  516.957,919.717 518.974,940.541 520.992,885.669 523.009,806.107 525.026,752.741 527.044,736.771 529.061,731.239 531.078,710.667 533.096,688.913 535.113,713.129 
  537.13,812.457 539.148,949.669 541.165,1031.38 543.183,981.833 545.2,819.323 547.217,659.878 549.235,632.048 551.252,768.994 553.269,971.015 555.287,1075.09 
  557.304,978.132 559.321,716.705 561.339,443.19 563.356,320.635 565.373,417.776 567.391,677.251 569.408,967.45 571.426,1166.88 573.443,1218.96 575.46,1134.81 
  577.478,965.952 579.495,777.193 581.512,628.172 583.53,557.787 585.547,573.893 587.564,657.936 589.582,780.725 591.599,909.95 593.617,1002.39 595.634,1003.52 
  597.651,879.599 599.669,666.105 601.686,478 603.703,447.572 605.721,625.686 607.738,929.544 609.755,1188.5 611.773,1255.72 613.79,1098.93 615.808,807.681 
  617.825,526.901 619.842,376.435 621.86,406.107 623.877,593.221 625.894,862.126 627.912,1110.43 629.929,1240.98 631.946,1198.88 633.964,999.808 635.981,729.779 
  637.999,507.485 640.016,424.265 642.033,496.085 644.051,660.351 646.068,821.764 648.085,913.808 650.103,929.306 652.12,901.586 654.137,862.668 656.155,821.77 
  658.172,779.801 660.189,754.192 662.207,777.666 664.224,864.826 666.242,979.271 668.259,1040.96 670.276,979.4 672.294,793.633 674.311,567.636 676.328,423.237 
  678.346,443.107 680.363,618.73 682.38,856.444 684.398,1033.08 686.415,1065.37 688.433,955.431 690.45,788.646 692.467,681.78 694.485,706.865 696.502,838.872 
  698.519,969.712 700.537,987.247 702.554,863.258 704.571,678.628 706.589,561.07 708.606,585.404 710.624,720.516 712.641,865.71 714.658,938.918 716.676,935.495 
  718.693,908.911 720.71,900.32 722.728,890.432 724.745,822.577 726.762,675.164 728.78,510.931 730.797,447.377 732.814,564.361 734.832,826.638 736.849,1092.4 
  738.867,1207.01 740.884,1108.97 742.901,867.488 744.919,630.101 746.936,527.072 748.953,600.225 750.971,792.99 752.988,992.924 755.005,1093.26 757.023,1041.7 
  759.04,858.923 761.058,624.041 763.075,436.46 765.092,372.653 767.11,457.567 769.127,661.31 771.144,916.746 773.162,1143.89 775.179,1270.11 777.196,1246.54 
  779.214,1066.7 781.231,784.009 783.249,509.115 785.266,368.291 787.283,432.653 789.301,664.464 791.318,930.709 793.335,1086.53 795.353,1068.39 797.37,922.532 
  799.387,751.347 801.405,634.147 803.422,593.586 805.44,620.606 807.457,708.106 809.474,846.819 811.492,995.531 813.509,1076.86 815.526,1022.78 817.544,835.085 
  819.561,603.432 821.578,458.161 823.596,489.608 825.613,689.803 827.63,954.823 829.648,1145.85 831.665,1170.64 833.683,1033.87 835.7,824.575 837.717,652.187 
  839.735,579.56 841.752,599.634 843.769,662.887 845.787,722.429 847.804,759.065 849.821,777.277 851.839,789.661 853.856,807.022 855.874,835.068 857.891,872.029 
  859.908,908.606 861.926,934.249 863.943,944.251 865.96,936.903 867.978,903.059 869.995,826.461 872.012,705.427 874.03,577.526 876.047,513.617 878.065,571.207 
  880.082,740.296 882.099,932.67 884.117,1034.73 886.134,988.333 888.151,834.375 890.169,681.286 892.186,624.599 894.203,685.247 896.221,812.54 898.238,935.071 
  900.256,1004.5 902.273,1000.35 904.29,915.46 906.308,759.209 908.325,579.83 910.342,467.463 912.36,508.544 914.377,716.078 916.394,998.606 918.412,1206.23 
  920.429,1224.9 922.446,1046.63 924.464,765.489 926.481,512.266 928.499,383.036 930.516,405.955 932.533,550.445 934.551,755.642 936.568,956.24 938.585,1097.92 
  940.603,1144.6 942.62,1083.12 944.637,929.539 946.655,734.427 948.672,576.124 950.69,532.643 952.707,638.615 954.724,852.284 956.742,1060.74 958.759,1132.66 
  960.776,996.455 962.794,697.548 964.811,390.303 966.828,255.915 968.846,389.675 970.863,732.572 972.881,1101.07 974.898,1301.87 976.915,1253.57 978.933,1028.04 
  980.95,783.329 982.967,644.102 984.985,625.614 987.002,657.202 989.019,672.527 991.037,675.882 993.054,722.478 995.072,839.164 997.089,972.556 999.106,1022.88 
  1001.12,934.035 1003.14,753.246 1005.16,602.585 1007.18,586.456 1009.19,713.407 1011.21,892.289 1013.23,998.976 1015.25,960.304 1017.26,799.44 1019.28,619.253 
  1021.3,537.846 1023.31,614.967 1025.33,813.189 1027.35,1019.8 1029.37,1117.85 1031.38,1059.66 1033.4,892.439 1035.42,720.407 1037.44,633.86 1039.45,655.78 
  1041.47,738.895 1043.49,808.586 1045.51,817.236 1047.52,771.01 1049.54,712.896 1051.56,681.54 1053.58,685.299 1055.59,713.411 1057.61,764.864 1059.63,854.676 
  1061.64,984.096 1063.66,1108.5 1065.68,1148.63 1067.7,1048.21 1069.71,828.436 1071.73,585.645 1073.75,430.903 1075.77,423.167 1077.78,547.775 1079.8,743.691 
  1081.82,941.614 1083.84,1081.28 1085.85,1113.56 1087.87,1012.48 1089.89,802.508 1091.9,572.876 1093.92,446.958 1095.94,510.119 1097.96,743.826 1099.97,1022.32 
  1101.99,1185.65 1104.01,1141.15 1106.03,919.585 1108.04,647.901 1110.06,466.496 1112.08,454.164 1114.1,602.537 1116.11,836.409 1118.13,1053.61 1120.15,1165.86 
  1122.17,1132.01 1124.18,972.595 1126.2,754.704 1128.22,555.175 1130.23,429.282 1132.25,405.041 1134.27,493.063 1136.29,685.523 1138.3,937.768 1140.32,1159.67 
  1142.34,1247.05 1144.36,1145.89 1146.37,901.278 1148.39,644.209 1150.41,515.786 1152.43,578.261 1154.44,774.648 1156.46,966 1158.48,1023.1 1160.5,911.436 
  1162.51,709.924 1164.53,549.358 1166.55,518.194 1168.56,610.322 1170.58,751.924 1172.6,872.701 1174.62,950.724 1176.63,996.553 1178.65,1010.09 1180.67,968.324 
  1182.69,859.227 1184.7,718.985 1186.72,622.419 1188.74,627.214 1190.76,723.874 1192.77,840.47 1194.79,898.836 1196.81,871.889 1198.83,795.493 1200.84,733.082 
  1202.86,729.205 1204.88,786.289 1206.89,870.36 1208.91,931.489 1210.93,927.12 1212.95,844.177 1214.96,712.221 1216.98,594.139 1219,551.767 1221.02,607.881 
  1223.03,735.31 1225.05,881.723 1227.07,1004.56 1229.09,1082.49 1231.1,1099.36 1233.12,1031.54 1235.14,867.731 1237.15,648.082 1239.17,473.755 1241.19,454.353 
  1243.21,621.949 1245.22,885.359 1247.24,1076.12 1249.26,1062.53 1251.28,846.935 1253.29,569.51 1255.31,412.971 1257.33,478.712 1259.35,725.455 1261.36,1010.4 
  1263.38,1192.25 1265.4,1212.69 1267.42,1102.34 1269.43,927.989 1271.45,741.54 1273.47,571.953 1275.48,448.853 1277.5,416.352 1279.52,512.702 1281.54,730.7 
  1283.55,996.301 1285.57,1191.58 1287.59,1215 1289.61,1042.92 1291.62,751.888 1293.64,484.652 1295.66,376.751 1297.68,483.475 1299.69,747.157 1301.71,1025.08 
  1303.73,1167.22 1305.75,1102.75 1307.76,882.199 1309.78,644.072 1311.8,525.002 1313.81,575.692 1315.83,742.167 1317.85,919.341 1319.87,1025.94 1321.88,1039.78 
  1323.9,978.643 1325.92,864.892 1327.94,717.381 1329.95,569.964 1331.97,478.899 1333.99,494.958 1336.01,622.029 1338.02,805.329 1340.04,964.328 1342.06,1042.12 
  1344.08,1031.54 1346.09,964.502 1348.11,882.559 1350.13,814.398 1352.14,771.882 1354.16,757.645 1356.18,769.668 1358.2,795.801 1360.21,807.745 1362.23,772.398 
  1364.25,683.681 1366.27,588.287 1368.28,568.725 1370.3,680.212 1372.32,889.976 1374.34,1080.89 1376.35,1129.97 1378.37,1001.23 1380.39,774.33 1382.4,586.926 
  1384.42,541.382 1386.44,647.214 1388.46,829.369 1390.47,980.911 1392.49,1021.45 1394.51,935.345 1396.53,777.57 1398.54,642.649 1400.56,607.651 1402.58,683.29 
  1404.6,811.111 1406.61,911.92 1408.63,945.049 1410.65,926.275 1412.67,891.192 1414.68,845.303 1416.7,757.322 1418.72,609.016 1420.73,452.084 1422.75,403.326 
  1424.77,560.784 1426.79,903.568 1428.8,1269.18 1430.82,1445.72 1432.84,1317.4 1434.86,950.128 1436.87,549.291 1438.89,323.757 1440.91,359.22 1442.93,586.15 
  1444.94,848.271 1446.96,1007.93 1448.98,1014.71 1451,906.173 1453.01,760.875 1455.03,647.179 1457.05,599.442 1459.06,624.181 1461.08,715.788 1463.1,859.91 
  1465.12,1022.13 1467.13,1141.73 1469.15,1151.24 1471.17,1017.87 1473.19,776.353 1475.2,523.638 1477.22,374.042 1479.24,401.106 1481.26,598.088 1483.27,876.542 
  1485.29,1105.84 1487.31,1179.05 1489.33,1071.94 1491.34,856.374 1493.36,653.509 1495.38,557.033 1497.39,582.784 1499.41,679.622 1501.43,782.955 1503.45,858.248 
  1505.46,900.705 1507.48,908.085 1509.5,870.464 1511.52,793.525 1513.53,722.462 1515.55,722.747 1517.57,820.959 1519.59,962.933 1521.6,1041.76 1523.62,981.636 
  1525.64,803.939 1527.65,613.866 1529.67,519.463 1531.69,555.086 1533.71,671.199 1535.72,787.488 1537.74,853.849 1539.76,870.058 1541.78,862.734 1543.79,854.096 
  1545.81,850.873 1547.83,852.42 1549.85,860.253 1551.86,877.684 1553.88,901.967 1555.9,917.552 1557.92,898.203 1559.93,821.555 1561.95,690.956 1563.97,548.889 
  1565.98,465.835 1568,504.217 1570.02,677.203 1572.04,928.608 1574.05,1149.25 1576.07,1226.8 1578.09,1108.32 1580.11,840.894 1582.12,557.634 1584.14,405.475 
  1586.16,456.567 1588.18,666.667 1590.19,911.98 1592.21,1073.06 1594.23,1098.99 1596.25,1011.09 1598.26,863.328 1600.28,707.61 1602.3,589.05 1604.31,552.789 
  1606.33,630.95 1608.35,809.128 1610.37,1008.23 1612.38,1115.01 1614.4,1051.59 1616.42,833.507 1618.44,568.145 1620.45,391.197 1622.47,387.075 1624.49,549.051 
  1626.51,799.65 1628.52,1043.98 1630.54,1210.5 1632.56,1258.78 1634.58,1172.3 1636.59,963.914 1638.61,692.767 1640.63,461.661 1642.64,373.912 1644.66,470.976 
  1646.68,699.377 1648.7,936.367 1650.71,1058.7 1652.73,1010.59 1654.75,832.47 1656.77,637.121 1658.78,545.642 1660.8,616.633 1662.82,810.159 1664.84,1012.12 
  1666.85,1106.27 1668.87,1046.43 1670.89,880.108 1672.91,709.9 1674.92,622.832 1676.94,637.98 1678.96,707.004 1680.97,763.578 1682.99,781.186 1685.01,790.39 
  1687.03,838.11 1689.04,924.693 1691.06,983.627 1693.08,936.111 1695.1,777.301 1697.11,606.223 1699.13,554.524 1701.15,669.247 1703.17,860.534 1705.18,971.294 
  1707.2,910.692 1709.22,732.122 1711.23,588.738 1713.25,609.829 1715.27,803.091 1717.29,1053.91 1719.3,1208.74 1721.32,1173.25 1723.34,961.899 1725.36,680.186 
  1727.37,461.657 1729.39,397.932 1731.41,496.492 1733.43,685.874 1735.44,863.856 1737.46,958.128 1739.48,959.221 1741.5,906.177 1743.51,843.706 1745.53,791.434 
  1747.55,749.507 1749.56,725.837 1751.58,747.657 1753.6,837.219 1755.62,972.305 1757.63,1075.47 1759.65,1055.75 1761.67,878.364 1763.69,606.942 1765.7,378.54 
  1767.72,323.547 1769.74,484.898 1771.76,791.015 1773.77,1097.54 1775.79,1267.07 1777.81,1235.9 1779.83,1032.69 1781.84,750.334 1783.86,499.483 1785.88,371.285 
  1787.89,414.164 1789.91,616.403 1791.93,897.996 1793.95,1132.2 1795.96,1205.93 1797.98,1089.05 1800,858.212 1802.02,648.029 1804.03,562.56 1806.05,615.635 
  1808.07,742.015 1810.09,859.038 1812.1,920.297 1814.12,922.251 1816.14,876.21 1818.16,787.91 1820.17,668.017 1822.19,554.675 1824.21,511.483 1826.22,589.822 
  1828.24,784.397 1830.26,1022.16 1832.28,1197.03 1834.29,1226.29 1836.31,1092.8 1838.33,853.283 1840.35,613.468 1842.36,480.693 1844.38,509.708 1846.4,667.195 
  1848.42,844.276 1850.43,923.621 1852.45,862.595 1854.47,726.904 1856.48,639.348 1858.5,680.569 1860.52,825.57 1862.54,969.858 1864.55,1017.87 1866.57,953.595 
  1868.59,837.653 1870.61,745.683 1872.62,709.55 1874.64,709.191 1876.66,711.823 1878.68,714.675 1880.69,748.155 1882.71,835.356 1884.73,948.424 1886.75,1011.54 
  1888.76,959.217 1890.78,801.173 1892.8,630.176 1894.81,557.585 1896.83,629.157 1898.85,792.576 1900.87,940.048 1902.88,984.37 1904.9,907.665 1906.92,757.912 
  1908.94,613.494 1910.95,546.681 1912.97,597.992 1914.99,759.844 1917.01,974.097 1919.02,1153.21 1921.04,1220.08 1923.06,1142.51 1925.08,941.959 1927.09,679.992 
  1929.11,439.6 1931.13,307.01 1933.14,345 1935.16,557.077 1937.18,865.434 1939.2,1132.16 1941.21,1226.95 1943.23,1105.31 1945.25,843.134 1947.27,596.235 
  1949.28,504.412 1951.3,604.272 1953.32,813.846 1955.34,999.08 1957.35,1067.41 1959.37,1014.53 1961.39,896.737 1963.41,768.667 1965.42,650.609 1967.44,549.164 
  1969.46,494.944 1971.47,543.059 1973.49,723.607 1975.51,987.053 1977.53,1204.91 1979.54,1242.1 1981.56,1052.93 1983.58,725.245 1985.6,433.488 1987.61,330.845 
  1989.63,457.152 1991.65,724.832 1993.67,984.699 1995.68,1117.91 1997.7,1092.42 1999.72,959.432 2001.73,808.855 2003.75,717.793 2005.77,715.68 2007.79,775.946 
  2009.8,837.286 2011.82,846.49 2013.84,796.103 2015.86,725.511 2017.87,681.989 2019.89,678.468 2021.91,691.398 2023.93,699.874 2025.94,719.452 2027.96,787.248 
  2029.98,910.114 2032,1034.15 2034.01,1076.74 2036.03,997.135 2038.05,837.986 2040.06,695.974 2042.08,647.634 2044.1,696.699 2046.12,783.861 2048.13,840.082 
  2050.15,832.234 2052.17,770.655 2054.19,689.849 2056.2,629.928 2058.22,628.321 2060.24,709.755 2062.26,866.265 2064.27,1041.57 2066.29,1144.78 2068.31,1099.37 
  2070.33,899.231 2072.34,628.862 2074.36,424.88 2076.38,398.325 2078.39,566.981 2080.41,842.788 2082.43,1084.06 2084.45,1179.09 2086.46,1105.73 2088.48,928.834 
  2090.5,744.388 2092.52,619.11 2094.53,570.315 2096.55,587.285 2098.57,657.763 2100.59,769.481 2102.6,893.805 2104.62,980.78 2106.64,980.042 2108.66,873.638 
  2110.67,696.928 2112.69,534.12 2114.71,486.718 2116.72,620.841 2118.74,913.414 2120.76,1235.07 2122.78,1402.51 2124.79,1288.33 2126.81,918.907 2128.83,479.061 
  2130.85,202.835 2132.86,222.34 2134.88,487.614 2136.9,817.117 2138.92,1033.39 2140.93,1074.05 2142.95,998.95 2144.97,907.196 2146.99,848.838 2149,806.322 
  2151.02,747.433 2153.04,684.227 2155.05,673.06 2157.07,755.067 2159.09,899.503 2161.11,1011.13 2163.12,1000.27 2165.14,854.866 2167.16,654.443 2169.18,518.588 
  2171.19,531.561 2173.21,692.569 2175.23,916.547 2177.25,1081.26 2179.26,1095.92 2181.28,954.19 2183.3,738.319 2185.31,568.033 2187.33,526.646 2189.35,614.745 
  2191.37,761.282 2193.38,878.821 2195.4,919.927 2197.42,896.606 2199.44,856.146 2201.45,838.479 2203.47,849.785 2205.49,869.562 2207.51,878.055 2209.52,873.546 
  2211.54,861.829 2213.56,833.529 2215.58,763.446 2217.59,643.859 2219.61,519.061 2221.63,473.575 2223.64,568.508 2225.66,780.272 2227.68,1004.59 2229.7,1128.88 
  2231.71,1109.05 2233.73,985.299 2235.75,834.846 2237.77,716.126 2239.78,651.675 2241.8,645.749 2243.82,699.733 2245.84,803.829 2247.85,919.747 2249.87,983.714 
  2251.89,940.23 2253.91,786.117 2255.92,589.482 2257.94,461.692 2259.96,493.344 2261.97,693.75 2263.99,975.474 2266.01,1197.52 2268.03,1242.44 2270.04,1081.07 
  2272.06,787.636 2274.08,499.516 2276.1,347.253 2278.11,393.359 2280.13,608.544 2282.15,892.372 2284.17,1124.52 2286.18,1220.11 2288.2,1161.41 2290.22,992.074 
  2292.24,783.419 
  "/>
<path clip-path="url(#clip330)" d="
M1991.45 198.898 L2281.48 198.898 L2281.48 95.2176 L1991.45 95.2176  Z
  " fill="#ffffff" fill-rule="evenodd" fill-opacity="1"/>
<polyline clip-path="url(#clip330)" style="stroke:#000000; stroke-linecap:butt; stroke-linejoin:round; stroke-width:4; stroke-opacity:1; fill:none" points="
  1991.45,198.898 2281.48,198.898 2281.48,95.2176 1991.45,95.2176 1991.45,198.898 
  "/>
<polyline clip-path="url(#clip330)" style="stroke:#009af9; stroke-linecap:butt; stroke-linejoin:round; stroke-width:4; stroke-opacity:1; fill:none" points="
  2015.21,147.058 2157.77,147.058 
  "/>
<path clip-path="url(#clip330)" d="M2195.37 166.745 Q2193.56 171.375 2191.85 172.787 Q2190.14 174.199 2187.27 174.199 L2183.86 174.199 L2183.86 170.634 L2186.36 170.634 Q2188.12 170.634 2189.09 169.8 Q2190.07 168.967 2191.25 165.865 L2192.01 163.921 L2181.53 138.412 L2186.04 138.412 L2194.14 158.689 L2202.24 138.412 L2206.76 138.412 L2195.37 166.745 Z" fill="#000000" fill-rule="evenodd" fill-opacity="1" /><path clip-path="url(#clip330)" d="M2214.05 160.402 L2221.69 160.402 L2221.69 134.037 L2213.38 135.703 L2213.38 131.444 L2221.64 129.778 L2226.32 129.778 L2226.32 160.402 L2233.96 160.402 L2233.96 164.338 L2214.05 164.338 L2214.05 160.402 Z" fill="#000000" fill-rule="evenodd" fill-opacity="1" /></svg>
