<?xml version="1.0" encoding="utf-8"?>
<svg xmlns="http://www.w3.org/2000/svg" xmlns:xlink="http://www.w3.org/1999/xlink" width="600" height="400" viewBox="0 0 2400 1600">
<defs>
  <clipPath id="clip240">
    <rect x="0" y="0" width="2400" height="1600"/>
  </clipPath>
</defs>
<path clip-path="url(#clip240)" d="
M0 1600 L2400 1600 L2400 0 L0 0  Z
  " fill="#ffffff" fill-rule="evenodd" fill-opacity="1"/>
<defs>
  <clipPath id="clip241">
    <rect x="480" y="0" width="1681" height="1600"/>
  </clipPath>
</defs>
<path clip-path="url(#clip240)" d="
M223.103 1486.45 L2352.76 1486.45 L2352.76 47.2441 L223.103 47.2441  Z
  " fill="#ffffff" fill-rule="evenodd" fill-opacity="1"/>
<defs>
  <clipPath id="clip242">
    <rect x="223" y="47" width="2131" height="1440"/>
  </clipPath>
</defs>
<polyline clip-path="url(#clip242)" style="stroke:#000000; stroke-linecap:butt; stroke-linejoin:round; stroke-width:2; stroke-opacity:0.1; fill:none" points="
  283.376,1486.45 283.376,47.2441 
  "/>
<polyline clip-path="url(#clip242)" style="stroke:#000000; stroke-linecap:butt; stroke-linejoin:round; stroke-width:2; stroke-opacity:0.1; fill:none" points="
  785.652,1486.45 785.652,47.2441 
  "/>
<polyline clip-path="url(#clip242)" style="stroke:#000000; stroke-linecap:butt; stroke-linejoin:round; stroke-width:2; stroke-opacity:0.1; fill:none" points="
  1287.93,1486.45 1287.93,47.2441 
  "/>
<polyline clip-path="url(#clip242)" style="stroke:#000000; stroke-linecap:butt; stroke-linejoin:round; stroke-width:2; stroke-opacity:0.1; fill:none" points="
  1790.21,1486.45 1790.21,47.2441 
  "/>
<polyline clip-path="url(#clip242)" style="stroke:#000000; stroke-linecap:butt; stroke-linejoin:round; stroke-width:2; stroke-opacity:0.1; fill:none" points="
  2292.48,1486.45 2292.48,47.2441 
  "/>
<polyline clip-path="url(#clip240)" style="stroke:#000000; stroke-linecap:butt; stroke-linejoin:round; stroke-width:4; stroke-opacity:1; fill:none" points="
  223.103,1486.45 2352.76,1486.45 
  "/>
<polyline clip-path="url(#clip240)" style="stroke:#000000; stroke-linecap:butt; stroke-linejoin:round; stroke-width:4; stroke-opacity:1; fill:none" points="
  283.376,1486.45 283.376,1467.55 
  "/>
<polyline clip-path="url(#clip240)" style="stroke:#000000; stroke-linecap:butt; stroke-linejoin:round; stroke-width:4; stroke-opacity:1; fill:none" points="
  785.652,1486.45 785.652,1467.55 
  "/>
<polyline clip-path="url(#clip240)" style="stroke:#000000; stroke-linecap:butt; stroke-linejoin:round; stroke-width:4; stroke-opacity:1; fill:none" points="
  1287.93,1486.45 1287.93,1467.55 
  "/>
<polyline clip-path="url(#clip240)" style="stroke:#000000; stroke-linecap:butt; stroke-linejoin:round; stroke-width:4; stroke-opacity:1; fill:none" points="
  1790.21,1486.45 1790.21,1467.55 
  "/>
<polyline clip-path="url(#clip240)" style="stroke:#000000; stroke-linecap:butt; stroke-linejoin:round; stroke-width:4; stroke-opacity:1; fill:none" points="
  2292.48,1486.45 2292.48,1467.55 
  "/>
<path clip-path="url(#clip240)" d="M229.904 1532.02 L259.58 1532.02 L259.58 1535.95 L229.904 1535.95 L229.904 1532.02 Z" fill="#000000" fill-rule="evenodd" fill-opacity="1" /><path clip-path="url(#clip240)" d="M270.482 1544.91 L278.121 1544.91 L278.121 1518.55 L269.811 1520.21 L269.811 1515.95 L278.075 1514.29 L282.751 1514.29 L282.751 1544.91 L290.39 1544.91 L290.39 1548.85 L270.482 1548.85 L270.482 1544.91 Z" fill="#000000" fill-rule="evenodd" fill-opacity="1" /><path clip-path="url(#clip240)" d="M299.834 1542.97 L304.718 1542.97 L304.718 1548.85 L299.834 1548.85 L299.834 1542.97 Z" fill="#000000" fill-rule="evenodd" fill-opacity="1" /><path clip-path="url(#clip240)" d="M324.903 1517.37 Q321.292 1517.37 319.463 1520.93 Q317.658 1524.47 317.658 1531.6 Q317.658 1538.71 319.463 1542.27 Q321.292 1545.82 324.903 1545.82 Q328.538 1545.82 330.343 1542.27 Q332.172 1538.71 332.172 1531.6 Q332.172 1524.47 330.343 1520.93 Q328.538 1517.37 324.903 1517.37 M324.903 1513.66 Q330.713 1513.66 333.769 1518.27 Q336.848 1522.85 336.848 1531.6 Q336.848 1540.33 333.769 1544.94 Q330.713 1549.52 324.903 1549.52 Q319.093 1549.52 316.014 1544.94 Q312.959 1540.33 312.959 1531.6 Q312.959 1522.85 316.014 1518.27 Q319.093 1513.66 324.903 1513.66 Z" fill="#000000" fill-rule="evenodd" fill-opacity="1" /><path clip-path="url(#clip240)" d="M732.678 1532.02 L762.354 1532.02 L762.354 1535.95 L732.678 1535.95 L732.678 1532.02 Z" fill="#000000" fill-rule="evenodd" fill-opacity="1" /><path clip-path="url(#clip240)" d="M782.446 1517.37 Q778.835 1517.37 777.007 1520.93 Q775.201 1524.47 775.201 1531.6 Q775.201 1538.71 777.007 1542.27 Q778.835 1545.82 782.446 1545.82 Q786.081 1545.82 787.886 1542.27 Q789.715 1538.71 789.715 1531.6 Q789.715 1524.47 787.886 1520.93 Q786.081 1517.37 782.446 1517.37 M782.446 1513.66 Q788.257 1513.66 791.312 1518.27 Q794.391 1522.85 794.391 1531.6 Q794.391 1540.33 791.312 1544.94 Q788.257 1549.52 782.446 1549.52 Q776.636 1549.52 773.558 1544.94 Q770.502 1540.33 770.502 1531.6 Q770.502 1522.85 773.558 1518.27 Q776.636 1513.66 782.446 1513.66 Z" fill="#000000" fill-rule="evenodd" fill-opacity="1" /><path clip-path="url(#clip240)" d="M802.608 1542.97 L807.493 1542.97 L807.493 1548.85 L802.608 1548.85 L802.608 1542.97 Z" fill="#000000" fill-rule="evenodd" fill-opacity="1" /><path clip-path="url(#clip240)" d="M817.724 1514.29 L836.08 1514.29 L836.08 1518.22 L822.006 1518.22 L822.006 1526.7 Q823.025 1526.35 824.043 1526.19 Q825.062 1526 826.08 1526 Q831.867 1526 835.247 1529.17 Q838.627 1532.34 838.627 1537.76 Q838.627 1543.34 835.155 1546.44 Q831.682 1549.52 825.363 1549.52 Q823.187 1549.52 820.918 1549.15 Q818.673 1548.78 816.266 1548.04 L816.266 1543.34 Q818.349 1544.47 820.571 1545.03 Q822.793 1545.58 825.27 1545.58 Q829.275 1545.58 831.613 1543.48 Q833.951 1541.37 833.951 1537.76 Q833.951 1534.15 831.613 1532.04 Q829.275 1529.94 825.27 1529.94 Q823.395 1529.94 821.52 1530.35 Q819.668 1530.77 817.724 1531.65 L817.724 1514.29 Z" fill="#000000" fill-rule="evenodd" fill-opacity="1" /><path clip-path="url(#clip240)" d="M1265.31 1517.37 Q1261.7 1517.37 1259.87 1520.93 Q1258.07 1524.47 1258.07 1531.6 Q1258.07 1538.71 1259.87 1542.27 Q1261.7 1545.82 1265.31 1545.82 Q1268.95 1545.82 1270.75 1542.27 Q1272.58 1538.71 1272.58 1531.6 Q1272.58 1524.47 1270.75 1520.93 Q1268.95 1517.37 1265.31 1517.37 M1265.31 1513.66 Q1271.12 1513.66 1274.18 1518.27 Q1277.26 1522.85 1277.26 1531.6 Q1277.26 1540.33 1274.18 1544.94 Q1271.12 1549.52 1265.31 1549.52 Q1259.5 1549.52 1256.42 1544.94 Q1253.37 1540.33 1253.37 1531.6 Q1253.37 1522.85 1256.42 1518.27 Q1259.5 1513.66 1265.31 1513.66 Z" fill="#000000" fill-rule="evenodd" fill-opacity="1" /><path clip-path="url(#clip240)" d="M1285.48 1542.97 L1290.36 1542.97 L1290.36 1548.85 L1285.48 1548.85 L1285.48 1542.97 Z" fill="#000000" fill-rule="evenodd" fill-opacity="1" /><path clip-path="url(#clip240)" d="M1310.54 1517.37 Q1306.93 1517.37 1305.11 1520.93 Q1303.3 1524.47 1303.3 1531.6 Q1303.3 1538.71 1305.11 1542.27 Q1306.93 1545.82 1310.54 1545.82 Q1314.18 1545.82 1315.98 1542.27 Q1317.81 1538.71 1317.81 1531.6 Q1317.81 1524.47 1315.98 1520.93 Q1314.18 1517.37 1310.54 1517.37 M1310.54 1513.66 Q1316.35 1513.66 1319.41 1518.27 Q1322.49 1522.85 1322.49 1531.6 Q1322.49 1540.33 1319.41 1544.94 Q1316.35 1549.52 1310.54 1549.52 Q1304.73 1549.52 1301.66 1544.94 Q1298.6 1540.33 1298.6 1531.6 Q1298.6 1522.85 1301.66 1518.27 Q1304.73 1513.66 1310.54 1513.66 Z" fill="#000000" fill-rule="evenodd" fill-opacity="1" /><path clip-path="url(#clip240)" d="M1768.09 1517.37 Q1764.48 1517.37 1762.65 1520.93 Q1760.84 1524.47 1760.84 1531.6 Q1760.84 1538.71 1762.65 1542.27 Q1764.48 1545.82 1768.09 1545.82 Q1771.72 1545.82 1773.53 1542.27 Q1775.36 1538.71 1775.36 1531.6 Q1775.36 1524.47 1773.53 1520.93 Q1771.72 1517.37 1768.09 1517.37 M1768.09 1513.66 Q1773.9 1513.66 1776.95 1518.27 Q1780.03 1522.85 1780.03 1531.6 Q1780.03 1540.33 1776.95 1544.94 Q1773.9 1549.52 1768.09 1549.52 Q1762.28 1549.52 1759.2 1544.94 Q1756.14 1540.33 1756.14 1531.6 Q1756.14 1522.85 1759.2 1518.27 Q1762.28 1513.66 1768.09 1513.66 Z" fill="#000000" fill-rule="evenodd" fill-opacity="1" /><path clip-path="url(#clip240)" d="M1788.25 1542.97 L1793.13 1542.97 L1793.13 1548.85 L1788.25 1548.85 L1788.25 1542.97 Z" fill="#000000" fill-rule="evenodd" fill-opacity="1" /><path clip-path="url(#clip240)" d="M1803.37 1514.29 L1821.72 1514.29 L1821.72 1518.22 L1807.65 1518.22 L1807.65 1526.7 Q1808.67 1526.35 1809.69 1526.19 Q1810.7 1526 1811.72 1526 Q1817.51 1526 1820.89 1529.17 Q1824.27 1532.34 1824.27 1537.76 Q1824.27 1543.34 1820.8 1546.44 Q1817.32 1549.52 1811 1549.52 Q1808.83 1549.52 1806.56 1549.15 Q1804.31 1548.78 1801.91 1548.04 L1801.91 1543.34 Q1803.99 1544.47 1806.21 1545.03 Q1808.44 1545.58 1810.91 1545.58 Q1814.92 1545.58 1817.25 1543.48 Q1819.59 1541.37 1819.59 1537.76 Q1819.59 1534.15 1817.25 1532.04 Q1814.92 1529.94 1810.91 1529.94 Q1809.04 1529.94 1807.16 1530.35 Q1805.31 1530.77 1803.37 1531.65 L1803.37 1514.29 Z" fill="#000000" fill-rule="evenodd" fill-opacity="1" /><path clip-path="url(#clip240)" d="M2259.64 1544.91 L2267.27 1544.91 L2267.27 1518.55 L2258.96 1520.21 L2258.96 1515.95 L2267.23 1514.29 L2271.9 1514.29 L2271.9 1544.91 L2279.54 1544.91 L2279.54 1548.85 L2259.64 1548.85 L2259.64 1544.91 Z" fill="#000000" fill-rule="evenodd" fill-opacity="1" /><path clip-path="url(#clip240)" d="M2288.99 1542.97 L2293.87 1542.97 L2293.87 1548.85 L2288.99 1548.85 L2288.99 1542.97 Z" fill="#000000" fill-rule="evenodd" fill-opacity="1" /><path clip-path="url(#clip240)" d="M2314.06 1517.37 Q2310.45 1517.37 2308.62 1520.93 Q2306.81 1524.47 2306.81 1531.6 Q2306.81 1538.71 2308.62 1542.27 Q2310.45 1545.82 2314.06 1545.82 Q2317.69 1545.82 2319.5 1542.27 Q2321.33 1538.71 2321.33 1531.6 Q2321.33 1524.47 2319.5 1520.93 Q2317.69 1517.37 2314.06 1517.37 M2314.06 1513.66 Q2319.87 1513.66 2322.92 1518.27 Q2326 1522.85 2326 1531.6 Q2326 1540.33 2322.92 1544.94 Q2319.87 1549.52 2314.06 1549.52 Q2308.25 1549.52 2305.17 1544.94 Q2302.11 1540.33 2302.11 1531.6 Q2302.11 1522.85 2305.17 1518.27 Q2308.25 1513.66 2314.06 1513.66 Z" fill="#000000" fill-rule="evenodd" fill-opacity="1" /><polyline clip-path="url(#clip242)" style="stroke:#000000; stroke-linecap:butt; stroke-linejoin:round; stroke-width:2; stroke-opacity:0.1; fill:none" points="
  223.103,1485.72 2352.76,1485.72 
  "/>
<polyline clip-path="url(#clip242)" style="stroke:#000000; stroke-linecap:butt; stroke-linejoin:round; stroke-width:2; stroke-opacity:0.1; fill:none" points="
  223.103,1241.89 2352.76,1241.89 
  "/>
<polyline clip-path="url(#clip242)" style="stroke:#000000; stroke-linecap:butt; stroke-linejoin:round; stroke-width:2; stroke-opacity:0.1; fill:none" points="
  223.103,998.065 2352.76,998.065 
  "/>
<polyline clip-path="url(#clip242)" style="stroke:#000000; stroke-linecap:butt; stroke-linejoin:round; stroke-width:2; stroke-opacity:0.1; fill:none" points="
  223.103,754.24 2352.76,754.24 
  "/>
<polyline clip-path="url(#clip242)" style="stroke:#000000; stroke-linecap:butt; stroke-linejoin:round; stroke-width:2; stroke-opacity:0.1; fill:none" points="
  223.103,510.415 2352.76,510.415 
  "/>
<polyline clip-path="url(#clip242)" style="stroke:#000000; stroke-linecap:butt; stroke-linejoin:round; stroke-width:2; stroke-opacity:0.1; fill:none" points="
  223.103,266.59 2352.76,266.59 
  "/>
<polyline clip-path="url(#clip240)" style="stroke:#000000; stroke-linecap:butt; stroke-linejoin:round; stroke-width:4; stroke-opacity:1; fill:none" points="
  223.103,1486.45 223.103,47.2441 
  "/>
<polyline clip-path="url(#clip240)" style="stroke:#000000; stroke-linecap:butt; stroke-linejoin:round; stroke-width:4; stroke-opacity:1; fill:none" points="
  223.103,1485.72 242,1485.72 
  "/>
<polyline clip-path="url(#clip240)" style="stroke:#000000; stroke-linecap:butt; stroke-linejoin:round; stroke-width:4; stroke-opacity:1; fill:none" points="
  223.103,1241.89 242,1241.89 
  "/>
<polyline clip-path="url(#clip240)" style="stroke:#000000; stroke-linecap:butt; stroke-linejoin:round; stroke-width:4; stroke-opacity:1; fill:none" points="
  223.103,998.065 242,998.065 
  "/>
<polyline clip-path="url(#clip240)" style="stroke:#000000; stroke-linecap:butt; stroke-linejoin:round; stroke-width:4; stroke-opacity:1; fill:none" points="
  223.103,754.24 242,754.24 
  "/>
<polyline clip-path="url(#clip240)" style="stroke:#000000; stroke-linecap:butt; stroke-linejoin:round; stroke-width:4; stroke-opacity:1; fill:none" points="
  223.103,510.415 242,510.415 
  "/>
<polyline clip-path="url(#clip240)" style="stroke:#000000; stroke-linecap:butt; stroke-linejoin:round; stroke-width:4; stroke-opacity:1; fill:none" points="
  223.103,266.59 242,266.59 
  "/>
<path clip-path="url(#clip240)" d="M50.9921 1486.17 L80.6679 1486.17 L80.6679 1490.1 L50.9921 1490.1 L50.9921 1486.17 Z" fill="#000000" fill-rule="evenodd" fill-opacity="1" /><path clip-path="url(#clip240)" d="M100.76 1471.51 Q97.1493 1471.51 95.3206 1475.08 Q93.515 1478.62 93.515 1485.75 Q93.515 1492.86 95.3206 1496.42 Q97.1493 1499.96 100.76 1499.96 Q104.395 1499.96 106.2 1496.42 Q108.029 1492.86 108.029 1485.75 Q108.029 1478.62 106.2 1475.08 Q104.395 1471.51 100.76 1471.51 M100.76 1467.81 Q106.571 1467.81 109.626 1472.42 Q112.705 1477 112.705 1485.75 Q112.705 1494.48 109.626 1499.08 Q106.571 1503.67 100.76 1503.67 Q94.9502 1503.67 91.8715 1499.08 Q88.816 1494.48 88.816 1485.75 Q88.816 1477 91.8715 1472.42 Q94.9502 1467.81 100.76 1467.81 Z" fill="#000000" fill-rule="evenodd" fill-opacity="1" /><path clip-path="url(#clip240)" d="M120.922 1497.12 L125.807 1497.12 L125.807 1503 L120.922 1503 L120.922 1497.12 Z" fill="#000000" fill-rule="evenodd" fill-opacity="1" /><path clip-path="url(#clip240)" d="M140.019 1499.06 L156.339 1499.06 L156.339 1503 L134.394 1503 L134.394 1499.06 Q137.056 1496.31 141.64 1491.68 Q146.246 1487.02 147.427 1485.68 Q149.672 1483.16 150.552 1481.42 Q151.455 1479.66 151.455 1477.97 Q151.455 1475.22 149.51 1473.48 Q147.589 1471.75 144.487 1471.75 Q142.288 1471.75 139.834 1472.51 Q137.404 1473.27 134.626 1474.82 L134.626 1470.1 Q137.45 1468.97 139.904 1468.39 Q142.357 1467.81 144.394 1467.81 Q149.765 1467.81 152.959 1470.5 Q156.154 1473.18 156.154 1477.67 Q156.154 1479.8 155.343 1481.72 Q154.556 1483.62 152.45 1486.21 Q151.871 1486.88 148.769 1490.1 Q145.668 1493.3 140.019 1499.06 Z" fill="#000000" fill-rule="evenodd" fill-opacity="1" /><path clip-path="url(#clip240)" d="M166.2 1468.44 L184.556 1468.44 L184.556 1472.37 L170.482 1472.37 L170.482 1480.84 Q171.501 1480.5 172.519 1480.33 Q173.538 1480.15 174.556 1480.15 Q180.343 1480.15 183.723 1483.32 Q187.103 1486.49 187.103 1491.91 Q187.103 1497.49 183.63 1500.59 Q180.158 1503.67 173.839 1503.67 Q171.663 1503.67 169.394 1503.3 Q167.149 1502.93 164.742 1502.18 L164.742 1497.49 Q166.825 1498.62 169.047 1499.18 Q171.269 1499.73 173.746 1499.73 Q177.751 1499.73 180.089 1497.62 Q182.427 1495.52 182.427 1491.91 Q182.427 1488.3 180.089 1486.19 Q177.751 1484.08 173.746 1484.08 Q171.871 1484.08 169.996 1484.5 Q168.144 1484.92 166.2 1485.8 L166.2 1468.44 Z" fill="#000000" fill-rule="evenodd" fill-opacity="1" /><path clip-path="url(#clip240)" d="M99.765 1227.69 Q96.1539 1227.69 94.3252 1231.25 Q92.5197 1234.8 92.5197 1241.92 Q92.5197 1249.03 94.3252 1252.6 Q96.1539 1256.14 99.765 1256.14 Q103.399 1256.14 105.205 1252.6 Q107.033 1249.03 107.033 1241.92 Q107.033 1234.8 105.205 1231.25 Q103.399 1227.69 99.765 1227.69 M99.765 1223.99 Q105.575 1223.99 108.631 1228.59 Q111.709 1233.17 111.709 1241.92 Q111.709 1250.65 108.631 1255.26 Q105.575 1259.84 99.765 1259.84 Q93.9549 1259.84 90.8762 1255.26 Q87.8206 1250.65 87.8206 1241.92 Q87.8206 1233.17 90.8762 1228.59 Q93.9549 1223.99 99.765 1223.99 Z" fill="#000000" fill-rule="evenodd" fill-opacity="1" /><path clip-path="url(#clip240)" d="M119.927 1253.29 L124.811 1253.29 L124.811 1259.17 L119.927 1259.17 L119.927 1253.29 Z" fill="#000000" fill-rule="evenodd" fill-opacity="1" /><path clip-path="url(#clip240)" d="M144.996 1227.69 Q141.385 1227.69 139.556 1231.25 Q137.751 1234.8 137.751 1241.92 Q137.751 1249.03 139.556 1252.6 Q141.385 1256.14 144.996 1256.14 Q148.63 1256.14 150.436 1252.6 Q152.265 1249.03 152.265 1241.92 Q152.265 1234.8 150.436 1231.25 Q148.63 1227.69 144.996 1227.69 M144.996 1223.99 Q150.806 1223.99 153.862 1228.59 Q156.941 1233.17 156.941 1241.92 Q156.941 1250.65 153.862 1255.26 Q150.806 1259.84 144.996 1259.84 Q139.186 1259.84 136.107 1255.26 Q133.052 1250.65 133.052 1241.92 Q133.052 1233.17 136.107 1228.59 Q139.186 1223.99 144.996 1223.99 Z" fill="#000000" fill-rule="evenodd" fill-opacity="1" /><path clip-path="url(#clip240)" d="M175.158 1227.69 Q171.547 1227.69 169.718 1231.25 Q167.913 1234.8 167.913 1241.92 Q167.913 1249.03 169.718 1252.6 Q171.547 1256.14 175.158 1256.14 Q178.792 1256.14 180.598 1252.6 Q182.427 1249.03 182.427 1241.92 Q182.427 1234.8 180.598 1231.25 Q178.792 1227.69 175.158 1227.69 M175.158 1223.99 Q180.968 1223.99 184.024 1228.59 Q187.103 1233.17 187.103 1241.92 Q187.103 1250.65 184.024 1255.26 Q180.968 1259.84 175.158 1259.84 Q169.348 1259.84 166.269 1255.26 Q163.214 1250.65 163.214 1241.92 Q163.214 1233.17 166.269 1228.59 Q169.348 1223.99 175.158 1223.99 Z" fill="#000000" fill-rule="evenodd" fill-opacity="1" /><path clip-path="url(#clip240)" d="M100.76 983.864 Q97.1493 983.864 95.3206 987.428 Q93.515 990.97 93.515 998.1 Q93.515 1005.21 95.3206 1008.77 Q97.1493 1012.31 100.76 1012.31 Q104.395 1012.31 106.2 1008.77 Q108.029 1005.21 108.029 998.1 Q108.029 990.97 106.2 987.428 Q104.395 983.864 100.76 983.864 M100.76 980.16 Q106.571 980.16 109.626 984.766 Q112.705 989.35 112.705 998.1 Q112.705 1006.83 109.626 1011.43 Q106.571 1016.02 100.76 1016.02 Q94.9502 1016.02 91.8715 1011.43 Q88.816 1006.83 88.816 998.1 Q88.816 989.35 91.8715 984.766 Q94.9502 980.16 100.76 980.16 Z" fill="#000000" fill-rule="evenodd" fill-opacity="1" /><path clip-path="url(#clip240)" d="M120.922 1009.47 L125.807 1009.47 L125.807 1015.34 L120.922 1015.34 L120.922 1009.47 Z" fill="#000000" fill-rule="evenodd" fill-opacity="1" /><path clip-path="url(#clip240)" d="M140.019 1011.41 L156.339 1011.41 L156.339 1015.34 L134.394 1015.34 L134.394 1011.41 Q137.056 1008.66 141.64 1004.03 Q146.246 999.373 147.427 998.03 Q149.672 995.507 150.552 993.771 Q151.455 992.012 151.455 990.322 Q151.455 987.567 149.51 985.831 Q147.589 984.095 144.487 984.095 Q142.288 984.095 139.834 984.859 Q137.404 985.623 134.626 987.174 L134.626 982.452 Q137.45 981.317 139.904 980.739 Q142.357 980.16 144.394 980.16 Q149.765 980.16 152.959 982.845 Q156.154 985.53 156.154 990.021 Q156.154 992.151 155.343 994.072 Q154.556 995.97 152.45 998.563 Q151.871 999.234 148.769 1002.45 Q145.668 1005.65 140.019 1011.41 Z" fill="#000000" fill-rule="evenodd" fill-opacity="1" /><path clip-path="url(#clip240)" d="M166.2 980.785 L184.556 980.785 L184.556 984.72 L170.482 984.72 L170.482 993.192 Q171.501 992.845 172.519 992.683 Q173.538 992.498 174.556 992.498 Q180.343 992.498 183.723 995.669 Q187.103 998.84 187.103 1004.26 Q187.103 1009.84 183.63 1012.94 Q180.158 1016.02 173.839 1016.02 Q171.663 1016.02 169.394 1015.65 Q167.149 1015.28 164.742 1014.53 L164.742 1009.84 Q166.825 1010.97 169.047 1011.53 Q171.269 1012.08 173.746 1012.08 Q177.751 1012.08 180.089 1009.97 Q182.427 1007.87 182.427 1004.26 Q182.427 1000.65 180.089 998.54 Q177.751 996.433 173.746 996.433 Q171.871 996.433 169.996 996.85 Q168.144 997.266 166.2 998.146 L166.2 980.785 Z" fill="#000000" fill-rule="evenodd" fill-opacity="1" /><path clip-path="url(#clip240)" d="M99.765 740.039 Q96.1539 740.039 94.3252 743.603 Q92.5197 747.145 92.5197 754.275 Q92.5197 761.381 94.3252 764.946 Q96.1539 768.488 99.765 768.488 Q103.399 768.488 105.205 764.946 Q107.033 761.381 107.033 754.275 Q107.033 747.145 105.205 743.603 Q103.399 740.039 99.765 740.039 M99.765 736.335 Q105.575 736.335 108.631 740.941 Q111.709 745.525 111.709 754.275 Q111.709 763.001 108.631 767.608 Q105.575 772.191 99.765 772.191 Q93.9549 772.191 90.8762 767.608 Q87.8206 763.001 87.8206 754.275 Q87.8206 745.525 90.8762 740.941 Q93.9549 736.335 99.765 736.335 Z" fill="#000000" fill-rule="evenodd" fill-opacity="1" /><path clip-path="url(#clip240)" d="M119.927 765.64 L124.811 765.64 L124.811 771.52 L119.927 771.52 L119.927 765.64 Z" fill="#000000" fill-rule="evenodd" fill-opacity="1" /><path clip-path="url(#clip240)" d="M135.043 736.96 L153.399 736.96 L153.399 740.895 L139.325 740.895 L139.325 749.367 Q140.343 749.02 141.362 748.858 Q142.381 748.673 143.399 748.673 Q149.186 748.673 152.566 751.844 Q155.945 755.015 155.945 760.432 Q155.945 766.011 152.473 769.113 Q149.001 772.191 142.681 772.191 Q140.506 772.191 138.237 771.821 Q135.992 771.45 133.584 770.71 L133.584 766.011 Q135.668 767.145 137.89 767.701 Q140.112 768.256 142.589 768.256 Q146.593 768.256 148.931 766.15 Q151.269 764.043 151.269 760.432 Q151.269 756.821 148.931 754.714 Q146.593 752.608 142.589 752.608 Q140.714 752.608 138.839 753.025 Q136.987 753.441 135.043 754.321 L135.043 736.96 Z" fill="#000000" fill-rule="evenodd" fill-opacity="1" /><path clip-path="url(#clip240)" d="M175.158 740.039 Q171.547 740.039 169.718 743.603 Q167.913 747.145 167.913 754.275 Q167.913 761.381 169.718 764.946 Q171.547 768.488 175.158 768.488 Q178.792 768.488 180.598 764.946 Q182.427 761.381 182.427 754.275 Q182.427 747.145 180.598 743.603 Q178.792 740.039 175.158 740.039 M175.158 736.335 Q180.968 736.335 184.024 740.941 Q187.103 745.525 187.103 754.275 Q187.103 763.001 184.024 767.608 Q180.968 772.191 175.158 772.191 Q169.348 772.191 166.269 767.608 Q163.214 763.001 163.214 754.275 Q163.214 745.525 166.269 740.941 Q169.348 736.335 175.158 736.335 Z" fill="#000000" fill-rule="evenodd" fill-opacity="1" /><path clip-path="url(#clip240)" d="M100.76 496.214 Q97.1493 496.214 95.3206 499.778 Q93.515 503.32 93.515 510.45 Q93.515 517.556 95.3206 521.121 Q97.1493 524.662 100.76 524.662 Q104.395 524.662 106.2 521.121 Q108.029 517.556 108.029 510.45 Q108.029 503.32 106.2 499.778 Q104.395 496.214 100.76 496.214 M100.76 492.51 Q106.571 492.51 109.626 497.116 Q112.705 501.7 112.705 510.45 Q112.705 519.176 109.626 523.783 Q106.571 528.366 100.76 528.366 Q94.9502 528.366 91.8715 523.783 Q88.816 519.176 88.816 510.45 Q88.816 501.7 91.8715 497.116 Q94.9502 492.51 100.76 492.51 Z" fill="#000000" fill-rule="evenodd" fill-opacity="1" /><path clip-path="url(#clip240)" d="M120.922 521.815 L125.807 521.815 L125.807 527.695 L120.922 527.695 L120.922 521.815 Z" fill="#000000" fill-rule="evenodd" fill-opacity="1" /><path clip-path="url(#clip240)" d="M134.811 493.135 L157.033 493.135 L157.033 495.126 L144.487 527.695 L139.603 527.695 L151.408 497.07 L134.811 497.07 L134.811 493.135 Z" fill="#000000" fill-rule="evenodd" fill-opacity="1" /><path clip-path="url(#clip240)" d="M166.2 493.135 L184.556 493.135 L184.556 497.07 L170.482 497.07 L170.482 505.542 Q171.501 505.195 172.519 505.033 Q173.538 504.848 174.556 504.848 Q180.343 504.848 183.723 508.019 Q187.103 511.19 187.103 516.607 Q187.103 522.186 183.63 525.287 Q180.158 528.366 173.839 528.366 Q171.663 528.366 169.394 527.996 Q167.149 527.625 164.742 526.885 L164.742 522.186 Q166.825 523.32 169.047 523.875 Q171.269 524.431 173.746 524.431 Q177.751 524.431 180.089 522.325 Q182.427 520.218 182.427 516.607 Q182.427 512.996 180.089 510.889 Q177.751 508.783 173.746 508.783 Q171.871 508.783 169.996 509.2 Q168.144 509.616 166.2 510.496 L166.2 493.135 Z" fill="#000000" fill-rule="evenodd" fill-opacity="1" /><path clip-path="url(#clip240)" d="M90.5752 279.935 L98.2141 279.935 L98.2141 253.569 L89.904 255.236 L89.904 250.976 L98.1678 249.31 L102.844 249.31 L102.844 279.935 L110.483 279.935 L110.483 283.87 L90.5752 283.87 L90.5752 279.935 Z" fill="#000000" fill-rule="evenodd" fill-opacity="1" /><path clip-path="url(#clip240)" d="M119.927 277.99 L124.811 277.99 L124.811 283.87 L119.927 283.87 L119.927 277.99 Z" fill="#000000" fill-rule="evenodd" fill-opacity="1" /><path clip-path="url(#clip240)" d="M144.996 252.389 Q141.385 252.389 139.556 255.953 Q137.751 259.495 137.751 266.625 Q137.751 273.731 139.556 277.296 Q141.385 280.837 144.996 280.837 Q148.63 280.837 150.436 277.296 Q152.265 273.731 152.265 266.625 Q152.265 259.495 150.436 255.953 Q148.63 252.389 144.996 252.389 M144.996 248.685 Q150.806 248.685 153.862 253.291 Q156.941 257.875 156.941 266.625 Q156.941 275.351 153.862 279.958 Q150.806 284.541 144.996 284.541 Q139.186 284.541 136.107 279.958 Q133.052 275.351 133.052 266.625 Q133.052 257.875 136.107 253.291 Q139.186 248.685 144.996 248.685 Z" fill="#000000" fill-rule="evenodd" fill-opacity="1" /><path clip-path="url(#clip240)" d="M175.158 252.389 Q171.547 252.389 169.718 255.953 Q167.913 259.495 167.913 266.625 Q167.913 273.731 169.718 277.296 Q171.547 280.837 175.158 280.837 Q178.792 280.837 180.598 277.296 Q182.427 273.731 182.427 266.625 Q182.427 259.495 180.598 255.953 Q178.792 252.389 175.158 252.389 M175.158 248.685 Q180.968 248.685 184.024 253.291 Q187.103 257.875 187.103 266.625 Q187.103 275.351 184.024 279.958 Q180.968 284.541 175.158 284.541 Q169.348 284.541 166.269 279.958 Q163.214 275.351 163.214 266.625 Q163.214 257.875 166.269 253.291 Q169.348 248.685 175.158 248.685 Z" fill="#000000" fill-rule="evenodd" fill-opacity="1" /><polyline clip-path="url(#clip242)" style="stroke:#009af9; stroke-linecap:butt; stroke-linejoin:round; stroke-width:12; stroke-opacity:1; fill:none" points="
  283.376,1229.24 303.467,1239.31 323.558,1247.03 343.649,1237.23 363.74,1243.55 383.831,1244.13 403.922,1239.89 424.013,1236.34 444.104,1254.25 464.195,1233.94 
  484.286,1176.07 504.377,1102.99 524.469,1015.95 544.56,947.898 564.651,861.431 584.742,786.874 604.833,710.659 624.924,631.525 645.015,542.905 665.106,494.262 
  685.197,378.669 705.288,325.756 725.379,282.38 745.47,399.667 765.561,402.083 785.652,588.694 805.744,525.788 825.835,775.314 845.926,664.134 866.017,924.038 
  886.108,859.778 906.199,1011.6 926.29,1098.74 946.381,1086.32 966.472,1317.89 986.563,1167.59 1006.65,1251.14 1026.75,1316.58 1046.84,1123.36 1066.93,1313.33 
  1087.02,1296.47 1107.11,1097.61 1127.2,1287.66 1147.29,1445.72 1167.38,916.603 1187.47,477.325 1207.56,185.704 1227.66,332.146 1247.75,178.965 1267.84,360.665 
  1287.93,180.837 1308.02,328.31 1328.11,245.003 1348.2,237.941 1368.29,341.259 1388.38,170.509 1408.48,341.346 1428.57,257.621 1448.66,193.32 1468.75,382.531 
  1488.84,199.477 1508.93,204.914 1529.02,422.108 1549.11,203.672 1569.2,87.9763 1589.3,556.216 1609.39,1079.54 1629.48,1260.07 1649.57,1253.37 1669.66,1240.91 
  1689.75,1241.12 1709.84,1241.5 1729.93,1242.79 1750.02,1241.76 1770.11,1240.4 1790.21,1243.3 1810.3,1241.83 1830.39,1220.57 1850.48,1171.25 1870.57,1095.53 
  1890.66,997.949 1910.75,885.481 1930.84,764.326 1950.93,642.944 1971.03,528.328 1991.12,427.717 2011.21,348.56 2031.3,292.808 2051.39,269.685 2071.48,271.534 
  2091.57,311.053 2111.66,369.582 2131.75,461.826 2151.85,563.24 2171.94,684.525 2192.03,804.295 2212.12,924.488 2232.21,1033.38 2252.3,1120.92 2272.39,1194.86 
  2292.48,1229.24 
  "/>
<path clip-path="url(#clip240)" d="
M294.091 198.898 L722.315 198.898 L722.315 95.2176 L294.091 95.2176  Z
  " fill="#ffffff" fill-rule="evenodd" fill-opacity="1"/>
<polyline clip-path="url(#clip240)" style="stroke:#000000; stroke-linecap:butt; stroke-linejoin:round; stroke-width:4; stroke-opacity:1; fill:none" points="
  294.091,198.898 722.315,198.898 722.315,95.2176 294.091,95.2176 294.091,198.898 
  "/>
<polyline clip-path="url(#clip240)" style="stroke:#009af9; stroke-linecap:butt; stroke-linejoin:round; stroke-width:4; stroke-opacity:1; fill:none" points="
  317.754,147.058 459.731,147.058 
  "/>
<path clip-path="url(#clip240)" d="M508.949 159.407 L508.949 150.125 L501.31 150.125 L501.31 146.282 L513.579 146.282 L513.579 161.12 Q510.87 163.041 507.606 164.037 Q504.342 165.009 500.639 165.009 Q492.537 165.009 487.954 160.287 Q483.393 155.541 483.393 147.092 Q483.393 138.62 487.954 133.898 Q492.537 129.153 500.639 129.153 Q504.018 129.153 507.051 129.986 Q510.106 130.819 512.676 132.44 L512.676 137.416 Q510.083 135.217 507.166 134.106 Q504.25 132.995 501.032 132.995 Q494.69 132.995 491.495 136.537 Q488.324 140.078 488.324 147.092 Q488.324 154.083 491.495 157.625 Q494.69 161.166 501.032 161.166 Q503.509 161.166 505.454 160.75 Q507.398 160.31 508.949 159.407 Z" fill="#000000" fill-rule="evenodd" fill-opacity="1" /><path clip-path="url(#clip240)" d="M533.717 151.305 Q528.555 151.305 526.565 152.486 Q524.574 153.666 524.574 156.514 Q524.574 158.782 526.055 160.125 Q527.56 161.444 530.129 161.444 Q533.671 161.444 535.801 158.944 Q537.953 156.421 537.953 152.254 L537.953 151.305 L533.717 151.305 M542.213 149.546 L542.213 164.338 L537.953 164.338 L537.953 160.402 Q536.495 162.763 534.319 163.898 Q532.143 165.009 528.995 165.009 Q525.014 165.009 522.653 162.787 Q520.315 160.541 520.315 156.791 Q520.315 152.416 523.231 150.194 Q526.171 147.972 531.981 147.972 L537.953 147.972 L537.953 147.555 Q537.953 144.615 536.009 143.018 Q534.088 141.398 530.592 141.398 Q528.37 141.398 526.264 141.93 Q524.157 142.463 522.213 143.527 L522.213 139.592 Q524.551 138.69 526.75 138.25 Q528.949 137.787 531.032 137.787 Q536.657 137.787 539.435 140.703 Q542.213 143.62 542.213 149.546 Z" fill="#000000" fill-rule="evenodd" fill-opacity="1" /><path clip-path="url(#clip240)" d="M550.986 128.319 L555.245 128.319 L555.245 164.338 L550.986 164.338 L550.986 128.319 Z" fill="#000000" fill-rule="evenodd" fill-opacity="1" /><path clip-path="url(#clip240)" d="M586.333 150.31 L586.333 152.393 L566.75 152.393 Q567.027 156.791 569.388 159.106 Q571.773 161.398 576.009 161.398 Q578.462 161.398 580.754 160.796 Q583.069 160.194 585.337 158.99 L585.337 163.018 Q583.046 163.99 580.638 164.5 Q578.231 165.009 575.754 165.009 Q569.55 165.009 565.916 161.398 Q562.305 157.787 562.305 151.629 Q562.305 145.264 565.731 141.537 Q569.18 137.787 575.013 137.787 Q580.245 137.787 583.277 141.166 Q586.333 144.523 586.333 150.31 M582.074 149.06 Q582.027 145.565 580.106 143.481 Q578.208 141.398 575.06 141.398 Q571.495 141.398 569.342 143.412 Q567.212 145.426 566.888 149.083 L582.074 149.06 Z" fill="#000000" fill-rule="evenodd" fill-opacity="1" /><path clip-path="url(#clip240)" d="M608.347 142.393 Q607.629 141.977 606.772 141.791 Q605.939 141.583 604.921 141.583 Q601.31 141.583 599.365 143.944 Q597.444 146.282 597.444 150.68 L597.444 164.338 L593.161 164.338 L593.161 138.412 L597.444 138.412 L597.444 142.44 Q598.786 140.078 600.939 138.944 Q603.092 137.787 606.171 137.787 Q606.61 137.787 607.143 137.856 Q607.675 137.903 608.323 138.018 L608.347 142.393 Z" fill="#000000" fill-rule="evenodd" fill-opacity="1" /><path clip-path="url(#clip240)" d="M612.652 128.319 L616.934 128.319 L616.934 149.592 L629.643 138.412 L635.082 138.412 L621.333 150.541 L635.661 164.338 L630.106 164.338 L616.934 151.676 L616.934 164.338 L612.652 164.338 L612.652 128.319 Z" fill="#000000" fill-rule="evenodd" fill-opacity="1" /><path clip-path="url(#clip240)" d="M640.268 138.412 L644.527 138.412 L644.527 164.338 L640.268 164.338 L640.268 138.412 M640.268 128.319 L644.527 128.319 L644.527 133.713 L640.268 133.713 L640.268 128.319 Z" fill="#000000" fill-rule="evenodd" fill-opacity="1" /><path clip-path="url(#clip240)" d="M674.99 148.689 L674.99 164.338 L670.73 164.338 L670.73 148.828 Q670.73 145.148 669.295 143.319 Q667.86 141.49 664.99 141.49 Q661.541 141.49 659.55 143.69 Q657.559 145.889 657.559 149.685 L657.559 164.338 L653.277 164.338 L653.277 138.412 L657.559 138.412 L657.559 142.44 Q659.087 140.102 661.147 138.944 Q663.23 137.787 665.939 137.787 Q670.406 137.787 672.698 140.565 Q674.99 143.319 674.99 148.689 Z" fill="#000000" fill-rule="evenodd" fill-opacity="1" /></svg>
