<?xml version="1.0" encoding="utf-8"?>
<svg xmlns="http://www.w3.org/2000/svg" xmlns:xlink="http://www.w3.org/1999/xlink" width="600" height="400" viewBox="0 0 2400 1600">
<defs>
  <clipPath id="clip380">
    <rect x="0" y="0" width="2400" height="1600"/>
  </clipPath>
</defs>
<path clip-path="url(#clip380)" d="
M0 1600 L2400 1600 L2400 0 L0 0  Z
  " fill="#ffffff" fill-rule="evenodd" fill-opacity="1"/>
<defs>
  <clipPath id="clip381">
    <rect x="480" y="0" width="1681" height="1600"/>
  </clipPath>
</defs>
<path clip-path="url(#clip380)" d="
M149.191 1408.07 L2112.76 1408.07 L2112.76 125.619 L149.191 125.619  Z
  " fill="#ffffff" fill-rule="evenodd" fill-opacity="1"/>
<defs>
  <clipPath id="clip382">
    <rect x="149" y="125" width="1965" height="1283"/>
  </clipPath>
</defs>
<polyline clip-path="url(#clip382)" style="stroke:#000000; stroke-linecap:butt; stroke-linejoin:round; stroke-width:2; stroke-opacity:0.1; fill:none" points="
  329.44,1408.07 329.44,125.619 
  "/>
<polyline clip-path="url(#clip382)" style="stroke:#000000; stroke-linecap:butt; stroke-linejoin:round; stroke-width:2; stroke-opacity:0.1; fill:none" points="
  730.207,1408.07 730.207,125.619 
  "/>
<polyline clip-path="url(#clip382)" style="stroke:#000000; stroke-linecap:butt; stroke-linejoin:round; stroke-width:2; stroke-opacity:0.1; fill:none" points="
  1130.97,1408.07 1130.97,125.619 
  "/>
<polyline clip-path="url(#clip382)" style="stroke:#000000; stroke-linecap:butt; stroke-linejoin:round; stroke-width:2; stroke-opacity:0.1; fill:none" points="
  1531.74,1408.07 1531.74,125.619 
  "/>
<polyline clip-path="url(#clip382)" style="stroke:#000000; stroke-linecap:butt; stroke-linejoin:round; stroke-width:2; stroke-opacity:0.1; fill:none" points="
  1932.51,1408.07 1932.51,125.619 
  "/>
<polyline clip-path="url(#clip380)" style="stroke:#000000; stroke-linecap:butt; stroke-linejoin:round; stroke-width:4; stroke-opacity:1; fill:none" points="
  149.191,1408.07 2112.76,1408.07 
  "/>
<polyline clip-path="url(#clip380)" style="stroke:#000000; stroke-linecap:butt; stroke-linejoin:round; stroke-width:4; stroke-opacity:1; fill:none" points="
  329.44,1408.07 329.44,1391.23 
  "/>
<polyline clip-path="url(#clip380)" style="stroke:#000000; stroke-linecap:butt; stroke-linejoin:round; stroke-width:4; stroke-opacity:1; fill:none" points="
  730.207,1408.07 730.207,1391.23 
  "/>
<polyline clip-path="url(#clip380)" style="stroke:#000000; stroke-linecap:butt; stroke-linejoin:round; stroke-width:4; stroke-opacity:1; fill:none" points="
  1130.97,1408.07 1130.97,1391.23 
  "/>
<polyline clip-path="url(#clip380)" style="stroke:#000000; stroke-linecap:butt; stroke-linejoin:round; stroke-width:4; stroke-opacity:1; fill:none" points="
  1531.74,1408.07 1531.74,1391.23 
  "/>
<polyline clip-path="url(#clip380)" style="stroke:#000000; stroke-linecap:butt; stroke-linejoin:round; stroke-width:4; stroke-opacity:1; fill:none" points="
  1932.51,1408.07 1932.51,1391.23 
  "/>
<path clip-path="url(#clip380)" d="M275.968 1453.64 L305.644 1453.64 L305.644 1457.58 L275.968 1457.58 L275.968 1453.64 Z" fill="#000000" fill-rule="evenodd" fill-opacity="1" /><path clip-path="url(#clip380)" d="M315.782 1435.91 L334.139 1435.91 L334.139 1439.85 L320.065 1439.85 L320.065 1448.32 Q321.083 1447.97 322.102 1447.81 Q323.12 1447.63 324.139 1447.63 Q329.926 1447.63 333.306 1450.8 Q336.685 1453.97 336.685 1459.38 Q336.685 1464.96 333.213 1468.07 Q329.741 1471.14 323.421 1471.14 Q321.245 1471.14 318.977 1470.77 Q316.732 1470.4 314.324 1469.66 L314.324 1464.96 Q316.407 1466.1 318.63 1466.65 Q320.852 1467.21 323.329 1467.21 Q327.333 1467.21 329.671 1465.1 Q332.009 1463 332.009 1459.38 Q332.009 1455.77 329.671 1453.67 Q327.333 1451.56 323.329 1451.56 Q321.454 1451.56 319.579 1451.98 Q317.727 1452.39 315.782 1453.27 L315.782 1435.91 Z" fill="#000000" fill-rule="evenodd" fill-opacity="1" /><path clip-path="url(#clip380)" d="M345.898 1464.59 L350.782 1464.59 L350.782 1470.47 L345.898 1470.47 L345.898 1464.59 Z" fill="#000000" fill-rule="evenodd" fill-opacity="1" /><path clip-path="url(#clip380)" d="M370.967 1438.99 Q367.356 1438.99 365.528 1442.56 Q363.722 1446.1 363.722 1453.23 Q363.722 1460.33 365.528 1463.9 Q367.356 1467.44 370.967 1467.44 Q374.602 1467.44 376.407 1463.9 Q378.236 1460.33 378.236 1453.23 Q378.236 1446.1 376.407 1442.56 Q374.602 1438.99 370.967 1438.99 M370.967 1435.29 Q376.778 1435.29 379.833 1439.89 Q382.912 1444.48 382.912 1453.23 Q382.912 1461.95 379.833 1466.56 Q376.778 1471.14 370.967 1471.14 Q365.157 1471.14 362.079 1466.56 Q359.023 1461.95 359.023 1453.23 Q359.023 1444.48 362.079 1439.89 Q365.157 1435.29 370.967 1435.29 Z" fill="#000000" fill-rule="evenodd" fill-opacity="1" /><path clip-path="url(#clip380)" d="M677.232 1453.64 L706.908 1453.64 L706.908 1457.58 L677.232 1457.58 L677.232 1453.64 Z" fill="#000000" fill-rule="evenodd" fill-opacity="1" /><path clip-path="url(#clip380)" d="M721.028 1466.54 L737.348 1466.54 L737.348 1470.47 L715.403 1470.47 L715.403 1466.54 Q718.065 1463.78 722.649 1459.15 Q727.255 1454.5 728.436 1453.16 Q730.681 1450.63 731.561 1448.9 Q732.464 1447.14 732.464 1445.45 Q732.464 1442.7 730.519 1440.96 Q728.598 1439.22 725.496 1439.22 Q723.297 1439.22 720.843 1439.99 Q718.413 1440.75 715.635 1442.3 L715.635 1437.58 Q718.459 1436.45 720.913 1435.87 Q723.366 1435.29 725.403 1435.29 Q730.774 1435.29 733.968 1437.97 Q737.163 1440.66 737.163 1445.15 Q737.163 1447.28 736.352 1449.2 Q735.565 1451.1 733.459 1453.69 Q732.88 1454.36 729.778 1457.58 Q726.677 1460.77 721.028 1466.54 Z" fill="#000000" fill-rule="evenodd" fill-opacity="1" /><path clip-path="url(#clip380)" d="M747.163 1464.59 L752.047 1464.59 L752.047 1470.47 L747.163 1470.47 L747.163 1464.59 Z" fill="#000000" fill-rule="evenodd" fill-opacity="1" /><path clip-path="url(#clip380)" d="M762.278 1435.91 L780.635 1435.91 L780.635 1439.85 L766.561 1439.85 L766.561 1448.32 Q767.579 1447.97 768.598 1447.81 Q769.616 1447.63 770.635 1447.63 Q776.422 1447.63 779.801 1450.8 Q783.181 1453.97 783.181 1459.38 Q783.181 1464.96 779.709 1468.07 Q776.236 1471.14 769.917 1471.14 Q767.741 1471.14 765.473 1470.77 Q763.227 1470.4 760.82 1469.66 L760.82 1464.96 Q762.903 1466.1 765.125 1466.65 Q767.348 1467.21 769.824 1467.21 Q773.829 1467.21 776.167 1465.1 Q778.505 1463 778.505 1459.38 Q778.505 1455.77 776.167 1453.67 Q773.829 1451.56 769.824 1451.56 Q767.949 1451.56 766.074 1451.98 Q764.223 1452.39 762.278 1453.27 L762.278 1435.91 Z" fill="#000000" fill-rule="evenodd" fill-opacity="1" /><path clip-path="url(#clip380)" d="M1108.36 1438.99 Q1104.75 1438.99 1102.92 1442.56 Q1101.11 1446.1 1101.11 1453.23 Q1101.11 1460.33 1102.92 1463.9 Q1104.75 1467.44 1108.36 1467.44 Q1111.99 1467.44 1113.8 1463.9 Q1115.63 1460.33 1115.63 1453.23 Q1115.63 1446.1 1113.8 1442.56 Q1111.99 1438.99 1108.36 1438.99 M1108.36 1435.29 Q1114.17 1435.29 1117.22 1439.89 Q1120.3 1444.48 1120.3 1453.23 Q1120.3 1461.95 1117.22 1466.56 Q1114.17 1471.14 1108.36 1471.14 Q1102.55 1471.14 1099.47 1466.56 Q1096.41 1461.95 1096.41 1453.23 Q1096.41 1444.48 1099.47 1439.89 Q1102.55 1435.29 1108.36 1435.29 Z" fill="#000000" fill-rule="evenodd" fill-opacity="1" /><path clip-path="url(#clip380)" d="M1128.52 1464.59 L1133.4 1464.59 L1133.4 1470.47 L1128.52 1470.47 L1128.52 1464.59 Z" fill="#000000" fill-rule="evenodd" fill-opacity="1" /><path clip-path="url(#clip380)" d="M1153.59 1438.99 Q1149.98 1438.99 1148.15 1442.56 Q1146.34 1446.1 1146.34 1453.23 Q1146.34 1460.33 1148.15 1463.9 Q1149.98 1467.44 1153.59 1467.44 Q1157.22 1467.44 1159.03 1463.9 Q1160.86 1460.33 1160.86 1453.23 Q1160.86 1446.1 1159.03 1442.56 Q1157.22 1438.99 1153.59 1438.99 M1153.59 1435.29 Q1159.4 1435.29 1162.45 1439.89 Q1165.53 1444.48 1165.53 1453.23 Q1165.53 1461.95 1162.45 1466.56 Q1159.4 1471.14 1153.59 1471.14 Q1147.78 1471.14 1144.7 1466.56 Q1141.64 1461.95 1141.64 1453.23 Q1141.64 1444.48 1144.7 1439.89 Q1147.78 1435.29 1153.59 1435.29 Z" fill="#000000" fill-rule="evenodd" fill-opacity="1" /><path clip-path="url(#clip380)" d="M1503.48 1466.54 L1519.8 1466.54 L1519.8 1470.47 L1497.85 1470.47 L1497.85 1466.54 Q1500.51 1463.78 1505.1 1459.15 Q1509.7 1454.5 1510.88 1453.16 Q1513.13 1450.63 1514.01 1448.9 Q1514.91 1447.14 1514.91 1445.45 Q1514.91 1442.7 1512.97 1440.96 Q1511.05 1439.22 1507.94 1439.22 Q1505.74 1439.22 1503.29 1439.99 Q1500.86 1440.75 1498.08 1442.3 L1498.08 1437.58 Q1500.91 1436.45 1503.36 1435.87 Q1505.81 1435.29 1507.85 1435.29 Q1513.22 1435.29 1516.42 1437.97 Q1519.61 1440.66 1519.61 1445.15 Q1519.61 1447.28 1518.8 1449.2 Q1518.01 1451.1 1515.91 1453.69 Q1515.33 1454.36 1512.23 1457.58 Q1509.12 1460.77 1503.48 1466.54 Z" fill="#000000" fill-rule="evenodd" fill-opacity="1" /><path clip-path="url(#clip380)" d="M1529.61 1464.59 L1534.49 1464.59 L1534.49 1470.47 L1529.61 1470.47 L1529.61 1464.59 Z" fill="#000000" fill-rule="evenodd" fill-opacity="1" /><path clip-path="url(#clip380)" d="M1544.73 1435.91 L1563.08 1435.91 L1563.08 1439.85 L1549.01 1439.85 L1549.01 1448.32 Q1550.03 1447.97 1551.05 1447.81 Q1552.06 1447.63 1553.08 1447.63 Q1558.87 1447.63 1562.25 1450.8 Q1565.63 1453.97 1565.63 1459.38 Q1565.63 1464.96 1562.16 1468.07 Q1558.68 1471.14 1552.37 1471.14 Q1550.19 1471.14 1547.92 1470.77 Q1545.68 1470.4 1543.27 1469.66 L1543.27 1464.96 Q1545.35 1466.1 1547.57 1466.65 Q1549.8 1467.21 1552.27 1467.21 Q1556.28 1467.21 1558.62 1465.1 Q1560.95 1463 1560.95 1459.38 Q1560.95 1455.77 1558.62 1453.67 Q1556.28 1451.56 1552.27 1451.56 Q1550.4 1451.56 1548.52 1451.98 Q1546.67 1452.39 1544.73 1453.27 L1544.73 1435.91 Z" fill="#000000" fill-rule="evenodd" fill-opacity="1" /><path clip-path="url(#clip380)" d="M1899.67 1435.91 L1918.03 1435.91 L1918.03 1439.85 L1903.95 1439.85 L1903.95 1448.32 Q1904.97 1447.97 1905.99 1447.81 Q1907.01 1447.63 1908.03 1447.63 Q1913.81 1447.63 1917.19 1450.8 Q1920.57 1453.97 1920.57 1459.38 Q1920.57 1464.96 1917.1 1468.07 Q1913.63 1471.14 1907.31 1471.14 Q1905.13 1471.14 1902.87 1470.77 Q1900.62 1470.4 1898.21 1469.66 L1898.21 1464.96 Q1900.3 1466.1 1902.52 1466.65 Q1904.74 1467.21 1907.22 1467.21 Q1911.22 1467.21 1913.56 1465.1 Q1915.9 1463 1915.9 1459.38 Q1915.9 1455.77 1913.56 1453.67 Q1911.22 1451.56 1907.22 1451.56 Q1905.34 1451.56 1903.47 1451.98 Q1901.62 1452.39 1899.67 1453.27 L1899.67 1435.91 Z" fill="#000000" fill-rule="evenodd" fill-opacity="1" /><path clip-path="url(#clip380)" d="M1929.79 1464.59 L1934.67 1464.59 L1934.67 1470.47 L1929.79 1470.47 L1929.79 1464.59 Z" fill="#000000" fill-rule="evenodd" fill-opacity="1" /><path clip-path="url(#clip380)" d="M1954.86 1438.99 Q1951.25 1438.99 1949.42 1442.56 Q1947.61 1446.1 1947.61 1453.23 Q1947.61 1460.33 1949.42 1463.9 Q1951.25 1467.44 1954.86 1467.44 Q1958.49 1467.44 1960.3 1463.9 Q1962.12 1460.33 1962.12 1453.23 Q1962.12 1446.1 1960.3 1442.56 Q1958.49 1438.99 1954.86 1438.99 M1954.86 1435.29 Q1960.67 1435.29 1963.72 1439.89 Q1966.8 1444.48 1966.8 1453.23 Q1966.8 1461.95 1963.72 1466.56 Q1960.67 1471.14 1954.86 1471.14 Q1949.05 1471.14 1945.97 1466.56 Q1942.91 1461.95 1942.91 1453.23 Q1942.91 1444.48 1945.97 1439.89 Q1949.05 1435.29 1954.86 1435.29 Z" fill="#000000" fill-rule="evenodd" fill-opacity="1" /><polyline clip-path="url(#clip382)" style="stroke:#000000; stroke-linecap:butt; stroke-linejoin:round; stroke-width:2; stroke-opacity:0.1; fill:none" points="
  149.191,1408.07 2112.76,1408.07 
  "/>
<polyline clip-path="url(#clip382)" style="stroke:#000000; stroke-linecap:butt; stroke-linejoin:round; stroke-width:2; stroke-opacity:0.1; fill:none" points="
  149.191,1087.46 2112.76,1087.46 
  "/>
<polyline clip-path="url(#clip382)" style="stroke:#000000; stroke-linecap:butt; stroke-linejoin:round; stroke-width:2; stroke-opacity:0.1; fill:none" points="
  149.191,766.846 2112.76,766.846 
  "/>
<polyline clip-path="url(#clip382)" style="stroke:#000000; stroke-linecap:butt; stroke-linejoin:round; stroke-width:2; stroke-opacity:0.1; fill:none" points="
  149.191,446.233 2112.76,446.233 
  "/>
<polyline clip-path="url(#clip382)" style="stroke:#000000; stroke-linecap:butt; stroke-linejoin:round; stroke-width:2; stroke-opacity:0.1; fill:none" points="
  149.191,125.619 2112.76,125.619 
  "/>
<polyline clip-path="url(#clip380)" style="stroke:#000000; stroke-linecap:butt; stroke-linejoin:round; stroke-width:4; stroke-opacity:1; fill:none" points="
  149.191,1408.07 149.191,125.619 
  "/>
<polyline clip-path="url(#clip380)" style="stroke:#000000; stroke-linecap:butt; stroke-linejoin:round; stroke-width:4; stroke-opacity:1; fill:none" points="
  149.191,1408.07 166.03,1408.07 
  "/>
<polyline clip-path="url(#clip380)" style="stroke:#000000; stroke-linecap:butt; stroke-linejoin:round; stroke-width:4; stroke-opacity:1; fill:none" points="
  149.191,1087.46 166.03,1087.46 
  "/>
<polyline clip-path="url(#clip380)" style="stroke:#000000; stroke-linecap:butt; stroke-linejoin:round; stroke-width:4; stroke-opacity:1; fill:none" points="
  149.191,766.846 166.03,766.846 
  "/>
<polyline clip-path="url(#clip380)" style="stroke:#000000; stroke-linecap:butt; stroke-linejoin:round; stroke-width:4; stroke-opacity:1; fill:none" points="
  149.191,446.233 166.03,446.233 
  "/>
<polyline clip-path="url(#clip380)" style="stroke:#000000; stroke-linecap:butt; stroke-linejoin:round; stroke-width:4; stroke-opacity:1; fill:none" points="
  149.191,125.619 166.03,125.619 
  "/>
<path clip-path="url(#clip380)" d="M50.9921 1408.52 L80.6679 1408.52 L80.6679 1412.46 L50.9921 1412.46 L50.9921 1408.52 Z" fill="#000000" fill-rule="evenodd" fill-opacity="1" /><path clip-path="url(#clip380)" d="M103.608 1394.87 L91.8021 1413.32 L103.608 1413.32 L103.608 1394.87 M102.381 1390.79 L108.26 1390.79 L108.26 1413.32 L113.191 1413.32 L113.191 1417.2 L108.26 1417.2 L108.26 1425.35 L103.608 1425.35 L103.608 1417.2 L88.0058 1417.2 L88.0058 1412.69 L102.381 1390.79 Z" fill="#000000" fill-rule="evenodd" fill-opacity="1" /><path clip-path="url(#clip380)" d="M53.0754 1087.91 L82.7512 1087.91 L82.7512 1091.85 L53.0754 1091.85 L53.0754 1087.91 Z" fill="#000000" fill-rule="evenodd" fill-opacity="1" /><path clip-path="url(#clip380)" d="M96.8715 1100.8 L113.191 1100.8 L113.191 1104.74 L91.2465 1104.74 L91.2465 1100.8 Q93.9086 1098.05 98.4919 1093.42 Q103.098 1088.77 104.279 1087.42 Q106.524 1084.9 107.404 1083.17 Q108.307 1081.41 108.307 1079.72 Q108.307 1076.96 106.362 1075.23 Q104.441 1073.49 101.339 1073.49 Q99.14 1073.49 96.6863 1074.25 Q94.2558 1075.02 91.478 1076.57 L91.478 1071.85 Q94.3021 1070.71 96.7558 1070.13 Q99.2095 1069.55 101.246 1069.55 Q106.617 1069.55 109.811 1072.24 Q113.006 1074.92 113.006 1079.42 Q113.006 1081.55 112.196 1083.47 Q111.408 1085.36 109.302 1087.96 Q108.723 1088.63 105.621 1091.85 Q102.52 1095.04 96.8715 1100.8 Z" fill="#000000" fill-rule="evenodd" fill-opacity="1" /><path clip-path="url(#clip380)" d="M101.246 752.645 Q97.6354 752.645 95.8067 756.209 Q94.0012 759.751 94.0012 766.881 Q94.0012 773.987 95.8067 777.552 Q97.6354 781.094 101.246 781.094 Q104.881 781.094 106.686 777.552 Q108.515 773.987 108.515 766.881 Q108.515 759.751 106.686 756.209 Q104.881 752.645 101.246 752.645 M101.246 748.941 Q107.057 748.941 110.112 753.547 Q113.191 758.131 113.191 766.881 Q113.191 775.608 110.112 780.214 Q107.057 784.797 101.246 784.797 Q95.4363 784.797 92.3576 780.214 Q89.3021 775.608 89.3021 766.881 Q89.3021 758.131 92.3576 753.547 Q95.4363 748.941 101.246 748.941 Z" fill="#000000" fill-rule="evenodd" fill-opacity="1" /><path clip-path="url(#clip380)" d="M96.8715 459.577 L113.191 459.577 L113.191 463.513 L91.2465 463.513 L91.2465 459.577 Q93.9086 456.823 98.4919 452.193 Q103.098 447.54 104.279 446.198 Q106.524 443.675 107.404 441.939 Q108.307 440.179 108.307 438.49 Q108.307 435.735 106.362 433.999 Q104.441 432.263 101.339 432.263 Q99.14 432.263 96.6863 433.027 Q94.2558 433.79 91.478 435.341 L91.478 430.619 Q94.3021 429.485 96.7558 428.906 Q99.2095 428.328 101.246 428.328 Q106.617 428.328 109.811 431.013 Q113.006 433.698 113.006 438.189 Q113.006 440.318 112.196 442.24 Q111.408 444.138 109.302 446.73 Q108.723 447.402 105.621 450.619 Q102.52 453.814 96.8715 459.577 Z" fill="#000000" fill-rule="evenodd" fill-opacity="1" /><path clip-path="url(#clip380)" d="M103.608 112.413 L91.8021 130.862 L103.608 130.862 L103.608 112.413 M102.381 108.339 L108.26 108.339 L108.26 130.862 L113.191 130.862 L113.191 134.751 L108.26 134.751 L108.26 142.899 L103.608 142.899 L103.608 134.751 L88.0058 134.751 L88.0058 130.237 L102.381 108.339 Z" fill="#000000" fill-rule="evenodd" fill-opacity="1" /><polyline clip-path="url(#clip382)" style="stroke:#f1e864; stroke-linecap:butt; stroke-linejoin:round; stroke-width:12; stroke-opacity:1; fill:none" points="
  489.747,1375.97 522.63,1388.66 555.513,1400.82 576.03,1408.07 
  "/>
<polyline clip-path="url(#clip382)" style="stroke:#f8c931; stroke-linecap:butt; stroke-linejoin:round; stroke-width:12; stroke-opacity:1; fill:none" points="
  489.747,1342.28 489.811,1342.31 522.63,1355.61 555.513,1368.39 573.811,1375.19 588.397,1380.35 621.28,1391.44 654.164,1402 674.062,1408.07 
  "/>
<polyline clip-path="url(#clip382)" style="stroke:#fbaa0e; stroke-linecap:butt; stroke-linejoin:round; stroke-width:12; stroke-opacity:1; fill:none" points="
  790.827,1408.07 785.697,1406.84 752.814,1398.4 719.931,1389.43 687.047,1379.94 671.49,1375.19 654.164,1369.63 621.28,1358.53 588.397,1346.87 576.101,1342.31 
  555.513,1334.25 522.63,1320.78 496.041,1309.42 489.747,1306.58 
  "/>
<polyline clip-path="url(#clip382)" style="stroke:#f98c09; stroke-linecap:butt; stroke-linejoin:round; stroke-width:12; stroke-opacity:1; fill:none" points="
  489.747,1268.57 506.403,1276.54 522.63,1283.87 555.513,1298.09 582.901,1309.42 588.397,1311.57 621.28,1323.86 654.164,1335.56 674.144,1342.31 687.047,1346.44 
  719.931,1356.43 752.814,1365.85 785.697,1374.72 787.563,1375.19 818.581,1382.65 851.464,1390.02 884.348,1396.86 917.231,1403.17 945.106,1408.07 
  "/>
<polyline clip-path="url(#clip382)" style="stroke:#a12b61; stroke-linecap:butt; stroke-linejoin:round; stroke-width:12; stroke-opacity:1; fill:none" points="
  489.747,1014.51 522.63,1041.7 528.504,1046.36 555.513,1065.74 575.185,1079.24 588.397,1087.53 621.28,1107.21 629.902,1112.12 654.164,1124.85 687.047,1141.24 
  695.024,1145.01 719.931,1155.9 752.814,1169.47 774.483,1177.89 785.697,1181.95 818.581,1193.1 851.464,1203.49 876.266,1210.77 884.348,1212.99 917.231,1221.32 
  950.115,1228.95 982.998,1235.88 1015.88,1242.1 1025.11,1243.66 1048.76,1247.39 1081.65,1251.92 1114.53,1255.8 1147.42,1259.01 1180.3,1261.57 1213.18,1263.46 
  1246.07,1264.7 1278.95,1265.27 1311.83,1265.19 1344.72,1264.45 1377.6,1263.05 1410.48,1260.99 1443.37,1258.27 1476.25,1254.89 1509.13,1250.85 1542.02,1246.15 
  1557.35,1243.66 1574.9,1240.61 1607.78,1234.21 1640.67,1227.11 1673.55,1219.31 1706.43,1210.8 1706.53,1210.77 1739.32,1200.96 1772.2,1190.38 
  "/>
<polyline clip-path="url(#clip382)" style="stroke:#ba3655; stroke-linecap:butt; stroke-linejoin:round; stroke-width:12; stroke-opacity:1; fill:none" points="
  1772.2,1234.05 1740.34,1243.66 1739.32,1243.94 1706.43,1252.6 1673.55,1260.59 1640.67,1267.93 1607.78,1274.6 1597.2,1276.54 1574.9,1280.39 1542.02,1285.44 
  1509.13,1289.87 1476.25,1293.68 1443.37,1296.87 1410.48,1299.43 1377.6,1301.38 1344.72,1302.7 1311.83,1303.4 1278.95,1303.48 1246.07,1302.93 1213.18,1301.77 
  1180.3,1299.98 1147.42,1297.57 1114.53,1294.54 1081.65,1290.88 1048.76,1286.61 1015.88,1281.71 985.082,1276.54 982.998,1276.17 950.115,1269.66 917.231,1262.49 
  884.348,1254.66 851.464,1246.17 842.429,1243.66 818.581,1236.6 785.697,1226.16 752.814,1215.03 741,1210.77 719.931,1202.67 687.047,1189.27 660.588,1177.89 
  654.164,1174.92 621.28,1158.93 594.009,1145.01 588.397,1141.91 555.513,1122.92 537.634,1112.12 522.63,1102.28 489.747,1079.77 
  "/>
<polyline clip-path="url(#clip382)" style="stroke:#d04544; stroke-linecap:butt; stroke-linejoin:round; stroke-width:12; stroke-opacity:1; fill:none" points="
  489.747,1134.77 505.984,1145.01 522.63,1154.73 555.513,1173.13 564.404,1177.89 588.397,1189.85 621.28,1205.5 632.926,1210.77 654.164,1219.78 687.047,1233.02 
  714.943,1243.66 719.931,1245.44 752.814,1256.57 785.697,1267.04 817.562,1276.54 818.581,1276.83 851.464,1285.45 884.348,1293.46 917.231,1300.85 950.115,1307.61 
  959.818,1309.42 982.998,1313.52 1015.88,1318.74 1048.76,1323.38 1081.65,1327.42 1114.53,1330.88 1147.42,1333.75 1180.3,1336.03 1213.18,1337.72 1246.07,1338.83 
  1278.95,1339.34 1311.83,1339.27 1344.72,1338.6 1377.6,1337.35 1410.48,1335.52 1443.37,1333.09 1476.25,1330.07 1509.13,1326.47 1542.02,1322.27 1574.9,1317.49 
  1607.78,1312.12 1622.68,1309.42 1640.67,1305.98 1673.55,1299.06 1706.43,1291.52 1739.32,1283.36 1764.83,1276.54 1772.2,1274.45 
  "/>
<polyline clip-path="url(#clip382)" style="stroke:#e35832; stroke-linecap:butt; stroke-linejoin:round; stroke-width:12; stroke-opacity:1; fill:none" points="
  1772.2,1311.99 1739.32,1320.3 1706.43,1328.03 1673.55,1335.16 1640.67,1341.71 1637.37,1342.31 1607.78,1347.39 1574.9,1352.49 1542.02,1357.03 1509.13,1361.01 
  1476.25,1364.43 1443.37,1367.29 1410.48,1369.6 1377.6,1371.34 1344.72,1372.53 1311.83,1373.16 1278.95,1373.23 1246.07,1372.74 1213.18,1371.69 1180.3,1370.08 
  1147.42,1367.92 1114.53,1365.2 1081.65,1361.92 1048.76,1358.08 1015.88,1353.68 982.998,1348.72 950.115,1343.2 945.248,1342.31 917.231,1336.85 884.348,1329.86 
  851.464,1322.29 818.581,1314.12 800.93,1309.42 785.697,1305.14 752.814,1295.26 719.931,1284.77 695.584,1276.54 687.047,1273.48 654.164,1261.03 621.28,1247.93 
  611.066,1243.66 588.397,1233.56 555.513,1218.21 540.262,1210.77 522.63,1201.58 489.747,1183.69 
  "/>
<polyline clip-path="url(#clip382)" style="stroke:#f0701e; stroke-linecap:butt; stroke-linejoin:round; stroke-width:12; stroke-opacity:1; fill:none" points="
  489.747,1227.79 520.898,1243.66 522.63,1244.49 555.513,1259.57 588.397,1273.99 594.489,1276.54 621.28,1287.12 654.164,1299.48 682.025,1309.42 687.047,1311.12 
  719.931,1321.64 752.814,1331.57 785.697,1340.91 790.93,1342.31 818.581,1349.29 851.464,1357.04 884.348,1364.23 917.231,1370.87 940.642,1375.19 950.115,1376.85 
  982.998,1382.1 1015.88,1386.82 1048.76,1391 1081.65,1394.66 1114.53,1397.78 1147.42,1400.37 1180.3,1402.43 1213.18,1403.96 1246.07,1404.95 1278.95,1405.42 
  1311.83,1405.35 1344.72,1404.76 1377.6,1403.63 1410.48,1401.97 1443.37,1399.77 1476.25,1397.05 1509.13,1393.79 1542.02,1390.01 1574.9,1385.69 1607.78,1380.84 
  1640.67,1375.46 1642.17,1375.19 1673.55,1369.26 1706.43,1362.49 1739.32,1355.16 1772.2,1347.27 
  "/>
<polyline clip-path="url(#clip382)" style="stroke:#f98c09; stroke-linecap:butt; stroke-linejoin:round; stroke-width:12; stroke-opacity:1; fill:none" points="
  1772.2,1380.72 1739.32,1388.23 1706.43,1395.2 1673.55,1401.65 1640.67,1407.56 1637.52,1408.07 
  "/>
<polyline clip-path="url(#clip382)" style="stroke:#88216a; stroke-linecap:butt; stroke-linejoin:round; stroke-width:12; stroke-opacity:1; fill:none" points="
  1772.2,1142.52 1765.54,1145.01 1739.32,1154.07 1706.43,1164.63 1673.55,1174.38 1660.66,1177.89 1640.67,1182.96 1607.78,1190.55 1574.9,1197.39 1542.02,1203.48 
  1509.13,1208.82 1495.12,1210.77 1476.25,1213.24 1443.37,1216.83 1410.48,1219.73 1377.6,1221.92 1344.72,1223.41 1311.83,1224.2 1278.95,1224.29 1246.07,1223.67 
  1213.18,1222.36 1180.3,1220.34 1147.42,1217.62 1114.53,1214.2 1087.16,1210.77 1081.65,1210.03 1048.76,1204.88 1015.88,1198.98 982.998,1192.33 950.115,1184.93 
  921.719,1177.89 917.231,1176.69 884.348,1167.14 851.464,1156.78 818.581,1145.62 816.888,1145.01 785.697,1132.76 752.814,1118.97 737.438,1112.12 719.931,1103.65 
  687.047,1086.8 673.083,1079.24 654.164,1068.04 621.28,1047.53 619.483,1046.36 588.397,1023.88 574.656,1013.47 555.513,997.288 536.623,980.588 522.63,966.595 
  504.531,947.705 489.747,929.945 
  "/>
<polyline clip-path="url(#clip382)" style="stroke:#6e186e; stroke-linecap:butt; stroke-linejoin:round; stroke-width:12; stroke-opacity:1; fill:none" points="
  489.747,771.431 492.168,783.288 503.014,816.171 517.992,849.055 522.63,857.035 537.735,881.938 555.513,906.037 562.29,914.821 588.397,943.556 592.347,947.705 
  621.28,974.108 628.738,980.588 654.164,1000.12 672.47,1013.47 687.047,1023 719.931,1043.36 725.061,1046.36 752.814,1061.05 785.697,1077.43 789.583,1079.24 
  818.581,1091.61 851.464,1104.69 871.597,1112.12 884.348,1116.46 917.231,1126.77 950.115,1136.21 982.998,1144.78 983.953,1145.01 1015.88,1151.94 1048.76,1158.27 
  1081.65,1163.8 1114.53,1168.53 1147.42,1172.45 1180.3,1175.57 1213.18,1177.88 1213.32,1177.89 1246.07,1179.29 1278.95,1179.94 1311.83,1179.85 1344.72,1179.01 
  1367.81,1177.89 1377.6,1177.38 1410.48,1174.87 1443.37,1171.55 1476.25,1167.42 1509.13,1162.5 1542.02,1156.76 1574.9,1150.23 1598.3,1145.01 1607.78,1142.72 
  1640.67,1133.93 1673.55,1124.27 1706.43,1113.74 1711.11,1112.12 1739.32,1101.51 1772.2,1088.19 
  "/>
<polyline clip-path="url(#clip382)" style="stroke:#550f6d; stroke-linecap:butt; stroke-linejoin:round; stroke-width:12; stroke-opacity:1; fill:none" points="
  1772.2,1024.68 1739.32,1040.77 1727.02,1046.36 1706.43,1054.83 1673.55,1067.34 1640.67,1078.82 1639.35,1079.24 1607.78,1088.4 1574.9,1097.01 1542.02,1104.67 
  1509.13,1111.39 1504.94,1112.12 1476.25,1116.76 1443.37,1121.21 1410.48,1124.79 1377.6,1127.51 1344.72,1129.35 1311.83,1130.33 1278.95,1130.44 1246.07,1129.68 
  1213.18,1128.05 1180.3,1125.55 1147.42,1122.19 1114.53,1117.96 1081.65,1112.85 1077.61,1112.12 1048.76,1106.44 1015.88,1099.01 982.998,1090.64 950.115,1081.33 
  943.406,1079.24 917.231,1070.31 884.348,1058.06 855.375,1046.36 851.464,1044.61 818.581,1028.81 788.806,1013.47 785.697,1011.68 752.814,991.51 736.068,980.588 
  719.931,968.684 693.083,947.705 687.047,942.276 658.138,914.821 654.164,910.376 630.018,881.938 621.28,869.422 607.743,849.055 590.612,816.171 588.397,810.299 
  578.673,783.288 571.344,750.404 568.526,717.521 570.217,684.637 576.418,651.754 587.128,618.871 588.397,616.13 603.017,585.987 621.28,556.94 623.814,553.104 
  650.493,520.22 654.164,516.405 683.617,487.337 687.047,484.411 719.931,457.844 724.376,454.453 752.814,435.353 774.628,421.57 785.697,415.322 818.581,397.93 
  837.318,388.687 851.464,382.381 884.348,368.778 917.231,356.232 918.46,355.803 950.115,345.715 982.998,336.2 1015.88,327.647 1036.37,322.92 1048.76,320.29 
  1081.65,314.201 1114.53,308.997 1147.42,304.679 1180.3,301.247 1213.18,298.7 1246.07,297.039 1278.95,296.264 1311.83,296.375 1344.72,297.371 1377.6,299.254 
  1410.48,302.022 1443.37,305.675 1476.25,310.215 1509.13,315.64 1542.02,321.951 1546.44,322.92 1574.9,329.695 1607.78,338.488 1640.67,348.245 1663.85,355.803 
  1673.55,359.27 1706.43,372.08 1739.32,385.946 1745.36,388.687 1772.2,402.169 
  "/>
<polyline clip-path="url(#clip382)" style="stroke:#6e186e; stroke-linecap:butt; stroke-linejoin:round; stroke-width:12; stroke-opacity:1; fill:none" points="
  1772.2,338.706 1739.32,325.095 1733.66,322.92 1706.43,313.294 1673.55,302.554 1640.67,292.7 1630.9,290.036 1607.78,284.204 1574.9,276.725 1542.02,270.067 
  1509.13,264.228 1476.25,259.208 1460.16,257.153 1443.37,255.157 1410.48,252.012 1377.6,249.629 1344.72,248.009 1311.83,247.151 1278.95,247.055 1246.07,247.723 
  1213.18,249.152 1180.3,251.345 1147.42,254.299 1122.17,257.153 1114.53,258.081 1081.65,262.896 1048.76,268.53 1015.88,274.984 982.998,282.257 951.389,290.036 
  950.115,290.375 917.231,300.008 884.348,310.526 851.464,321.93 848.817,322.92 818.581,335.213 785.697,349.547 772.249,355.803 752.814,365.716 719.931,383.544 
  710.977,388.687 687.047,403.895 660.71,421.57 654.164,426.488 621.28,452.5 618.93,454.453 588.397,483.261 584.275,487.337 555.525,520.22 555.513,520.236 
  532.344,553.104 522.63,570.035 513.86,585.987 499.915,618.871 490.102,651.754 489.747,653.809 
  "/>
<polyline clip-path="url(#clip382)" style="stroke:#88216a; stroke-linecap:butt; stroke-linejoin:round; stroke-width:12; stroke-opacity:1; fill:none" points="
  489.747,496.767 497.3,487.337 522.63,460.004 527.998,454.453 555.513,429.402 564.509,421.57 588.397,402.991 607.669,388.687 621.28,379.558 654.164,358.56 
  658.71,355.803 687.047,340.129 719.902,322.92 719.931,322.906 752.814,307.959 785.697,293.898 795.334,290.036 818.581,281.418 851.464,270.048 884.348,259.496 
  892.266,257.153 917.231,250.278 950.115,241.986 982.998,234.456 1015.88,227.689 1034.61,224.269 1048.76,221.852 1081.65,216.951 1114.53,212.762 1147.42,209.287 
  1180.3,206.524 1213.18,204.475 1246.07,203.138 1278.95,202.514 1311.83,202.603 1344.72,203.405 1377.6,204.92 1410.48,207.148 1443.37,210.089 1476.25,213.743 
  1509.13,218.109 1542.02,223.189 1548.15,224.269 1574.9,229.309 1607.78,236.267 1640.67,243.988 1673.55,252.471 1690.2,257.153 1706.43,262.057 1739.32,272.813 
  1772.2,284.389 
  "/>
<polyline clip-path="url(#clip382)" style="stroke:#a12b61; stroke-linecap:butt; stroke-linejoin:round; stroke-width:12; stroke-opacity:1; fill:none" points="
  1772.2,236.44 1739.32,225.669 1734.72,224.269 1706.43,216.221 1673.55,207.577 1640.67,199.646 1607.78,192.428 1602.52,191.386 1574.9,186.256 1542.02,180.817 
  1509.13,176.048 1476.25,171.948 1443.37,168.517 1410.48,165.756 1377.6,163.664 1344.72,162.242 1311.83,161.489 1278.95,161.405 1246.07,161.991 1213.18,163.246 
  1180.3,165.17 1147.42,167.764 1114.53,171.027 1081.65,174.96 1048.76,179.562 1015.88,184.833 982.998,190.774 979.954,191.386 950.115,197.774 917.231,205.527 
  884.348,213.993 851.464,223.172 847.817,224.269 818.581,233.676 785.697,245.018 752.814,257.123 752.738,257.153 719.931,270.95 687.047,285.599 677.615,290.036 
  654.164,301.959 621.28,319.564 615.311,322.92 588.397,339.384 562.783,355.803 555.513,360.912 522.63,385.08 517.928,388.687 489.747,412.609 
  "/>
<polyline clip-path="url(#clip382)" style="stroke:#ba3655; stroke-linecap:butt; stroke-linejoin:round; stroke-width:12; stroke-opacity:1; fill:none" points="
  489.747,347.311 522.63,324.305 524.696,322.92 555.513,303.931 579.095,290.036 588.397,284.965 621.28,267.858 642.892,257.153 654.164,251.958 687.047,237.566 
  719.126,224.269 719.931,223.957 752.814,211.927 785.697,200.609 814.298,191.386 818.581,190.089 851.464,180.801 884.348,172.183 917.231,164.234 943.122,158.503 
  950.115,157.044 982.998,150.814 1015.88,145.215 1048.76,140.247 1081.65,135.91 1114.53,132.204 1147.42,129.128 1180.3,126.684 1199.6,125.619 
  "/>
<polyline clip-path="url(#clip382)" style="stroke:#ba3655; stroke-linecap:butt; stroke-linejoin:round; stroke-width:12; stroke-opacity:1; fill:none" points="
  1383.52,125.619 1410.48,127.236 1443.37,129.838 1476.25,133.071 1509.13,136.935 1542.02,141.43 1574.9,146.556 1607.78,152.312 1639.65,158.503 1640.67,158.712 
  1673.55,166.159 1706.43,174.275 1739.32,183.061 1768.27,191.386 1772.2,192.589 
  "/>
<polyline clip-path="url(#clip382)" style="stroke:#d04544; stroke-linecap:butt; stroke-linejoin:round; stroke-width:12; stroke-opacity:1; fill:none" points="
  1772.2,152.455 1739.32,143.544 1706.43,135.264 1673.55,127.615 1664.2,125.619 
  "/>
<polyline clip-path="url(#clip382)" style="stroke:#3b0964; stroke-linecap:butt; stroke-linejoin:round; stroke-width:12; stroke-opacity:1; fill:none" points="
  1772.2,482.216 1739.32,461.223 1727.91,454.453 1706.43,443.237 1673.55,427.368 1660.46,421.57 1640.67,413.742 1607.78,401.904 1574.9,391.235 1566.08,388.687 
  1542.02,382.405 1509.13,374.878 1476.25,368.407 1443.37,362.992 1410.48,358.634 1382.28,355.803 1377.6,355.374 1344.72,353.326 1311.83,352.242 1278.95,352.122 
  1246.07,352.965 1213.18,354.772 1200.94,355.803 1180.3,357.71 1147.42,361.804 1114.53,366.954 1081.65,373.161 1048.76,380.424 1016.11,388.687 1015.88,388.75 
  982.998,399.127 950.115,410.673 921.932,421.57 917.231,423.605 884.348,439.147 854.477,454.453 851.464,456.207 818.581,476.829 802.951,487.337 785.697,500.756 
  762.249,520.22 752.814,529.509 730.267,553.104 719.931,566.394 705.544,585.987 687.047,618.642 686.925,618.871 674.512,651.754 667.325,684.637 665.365,717.521 
  668.632,750.404 677.125,783.288 687.047,807.069 691.057,816.171 711.063,849.055 719.931,860.479 737.575,881.938 752.814,897.177 771.57,914.821 785.697,926.106 
  814.557,947.705 818.581,950.322 851.464,970.267 869.802,980.588 884.348,987.826 917.231,1002.92 942.343,1013.47 950.115,1016.4 982.998,1027.64 1015.88,1037.75 
  1047.43,1046.36 1048.76,1046.69 1081.65,1053.78 1114.53,1059.84 1147.42,1064.87 1180.3,1068.87 1213.18,1071.83 1246.07,1073.77 1278.95,1074.67 1311.83,1074.54 
  1344.72,1073.38 1377.6,1071.19 1410.48,1067.96 1443.37,1063.71 1476.25,1058.42 1509.13,1052.1 1534.84,1046.36 1542.02,1044.58 1574.9,1035.33 1607.78,1024.94 
  1640.49,1013.47 1640.67,1013.4 1673.55,999.264 1706.43,983.855 1712.87,980.588 1739.32,965.416 1768,947.705 1772.2,944.719 
  "/>
<polyline clip-path="url(#clip382)" style="stroke:#1f0c47; stroke-linecap:butt; stroke-linejoin:round; stroke-width:12; stroke-opacity:1; fill:none" points="
  1772.2,813.235 1770.56,816.171 1745.25,849.055 1739.32,855.091 1710.94,881.938 1706.43,885.439 1673.55,909.067 1664.82,914.821 1640.67,928.342 1607.78,945.094 
  1602.1,947.705 1574.9,958.554 1542.02,970.234 1509.13,980.476 1508.71,980.588 1476.25,988.273 1443.37,994.786 1410.48,1000.03 1377.6,1004 1344.72,1006.7 
  1311.83,1008.13 1278.95,1008.29 1246.07,1007.18 1213.18,1004.79 1180.3,1001.14 1147.42,996.216 1114.53,990.02 1081.65,982.554 1074.25,980.588 1048.76,972.929 
  1015.88,961.608 982.998,948.85 980.344,947.705 950.115,932.685 917.467,914.821 917.231,914.669 884.348,891.529 871.777,881.938 851.464,863.089 837.43,849.055 
  818.581,825.006 812.122,816.171 794.713,783.288 785.697,755.779 784.047,750.404 780.163,717.521 782.493,684.637 785.697,672.306 791.397,651.754 807.148,618.871 
  818.581,602.074 830.32,585.987 851.464,563.634 862.199,553.104 884.348,535.419 904.986,520.22 917.231,512.617 950.115,493.919 962.862,487.337 982.998,478.35 
  1015.88,465.159 1045.96,454.453 1048.76,453.574 1081.65,444.576 1114.53,436.887 1147.42,430.507 1180.3,425.435 1213.18,421.672 1214.55,421.57 1246.07,419.469 
  1278.95,418.446 1311.83,418.592 1344.72,419.908 1366.72,421.57 1377.6,422.49 1410.48,426.58 1443.37,431.979 1476.25,438.687 1509.13,446.703 1536.46,454.453 
  1542.02,456.242 1574.9,468.317 1607.78,481.879 1619.71,487.337 1640.67,498.432 1673.55,517.561 1677.75,520.22 1706.43,541.792 1720.33,553.104 1739.32,572.09 
  1752.23,585.987 1772.2,613.847 
  "/>
<polyline clip-path="url(#clip382)" style="stroke:#d04544; stroke-linecap:butt; stroke-linejoin:round; stroke-width:12; stroke-opacity:1; fill:none" points="
  918.105,125.619 917.231,125.801 884.348,133.293 851.464,141.415 818.581,150.168 789.376,158.503 785.697,159.616 752.814,170.243 719.931,181.539 692.868,191.386 
  687.047,193.642 654.164,207.098 621.28,221.267 614.647,224.269 588.397,236.976 555.513,253.656 548.921,257.153 522.63,272.141 492.555,290.036 489.747,291.842 
  
  "/>
<polyline clip-path="url(#clip382)" style="stroke:#e35832; stroke-linecap:butt; stroke-linejoin:round; stroke-width:12; stroke-opacity:1; fill:none" points="
  489.747,243.249 522.63,225.044 524.09,224.269 555.513,208.685 588.397,193.09 592.163,191.386 621.28,179.013 654.164,165.709 672.919,158.503 687.047,153.387 
  719.931,142.11 752.814,131.464 772.007,125.619 
  "/>
<polyline clip-path="url(#clip382)" style="stroke:#f0701e; stroke-linecap:butt; stroke-linejoin:round; stroke-width:12; stroke-opacity:1; fill:none" points="
  658.505,125.619 654.164,127.191 621.28,139.73 588.397,152.899 575.044,158.503 555.513,167.199 522.63,182.511 504.37,191.386 489.747,198.955 
  "/>
<polyline clip-path="url(#clip382)" style="stroke:#f98c09; stroke-linecap:butt; stroke-linejoin:round; stroke-width:12; stroke-opacity:1; fill:none" points="
  489.747,158.089 522.63,143.027 555.513,128.596 562.607,125.619 
  "/>
<polyline clip-path="url(#clip382)" style="stroke:#090621; stroke-linecap:butt; stroke-linejoin:round; stroke-width:12; stroke-opacity:1; fill:none" points="
  1005.14,585.987 982.998,605.397 969.184,618.871 950.115,645.3 945.886,651.754 933.413,684.637 930.011,717.521 935.681,750.404 950.115,782.603 950.453,783.288 
  976.676,816.171 982.998,821.912 1015.88,848.747 1016.31,849.055 1048.76,867.477 1077.95,881.938 1081.65,883.445 1114.53,894.893 1147.42,904.393 1180.3,911.944 
  1197.19,914.821 1213.18,917.135 1246.07,920.237 1278.95,921.685 1311.83,921.478 1344.72,919.617 1377.6,916.101 1385.74,914.821 1410.48,910.239 1443.37,902.201 
  1476.25,892.214 1504.56,881.938 1509.13,879.92 1542.02,863.034 1565.89,849.055 1574.9,842.322 1606.07,816.171 1607.78,814.181 1631.81,783.288 1640.67,764.896 
  1647.02,750.404 1652.56,717.521 1649.23,684.637 1640.67,661.532 1636.68,651.754 1613.54,618.871 1607.78,613.111 1577.69,585.987 1574.9,584.049 1542.02,563.693 
  1522.51,553.104 1509.13,547.193 1476.25,534.702 1443.37,524.251 1427.61,520.22 1410.48,516.526 1377.6,511.153 1344.72,507.499 1311.83,505.565 1278.95,505.35 
  1246.07,506.855 1213.18,510.079 1180.3,515.022 1154.64,520.22 1147.42,521.957 1114.53,531.898 1081.65,543.879 1060.01,553.104 1048.76,558.995 1015.88,578.725 
  1005.14,585.987 
  "/>
<defs>
  <clipPath id="clip383">
    <rect x="2160" y="125" width="73" height="1283"/>
  </clipPath>
</defs>
<polyline clip-path="url(#clip383)" style="stroke:#0a0723; stroke-linecap:butt; stroke-linejoin:round; stroke-width:12; stroke-opacity:1; fill:none" points="
  2160.76,1327.92 2232.76,1327.92 
  "/>
<polyline clip-path="url(#clip383)" style="stroke:#200c4a; stroke-linecap:butt; stroke-linejoin:round; stroke-width:12; stroke-opacity:1; fill:none" points="
  2160.76,1247.77 2232.76,1247.77 
  "/>
<polyline clip-path="url(#clip383)" style="stroke:#3c0965; stroke-linecap:butt; stroke-linejoin:round; stroke-width:12; stroke-opacity:1; fill:none" points="
  2160.76,1167.61 2232.76,1167.61 
  "/>
<polyline clip-path="url(#clip383)" style="stroke:#570f6d; stroke-linecap:butt; stroke-linejoin:round; stroke-width:12; stroke-opacity:1; fill:none" points="
  2160.76,1087.46 2232.76,1087.46 
  "/>
<polyline clip-path="url(#clip383)" style="stroke:#70196e; stroke-linecap:butt; stroke-linejoin:round; stroke-width:12; stroke-opacity:1; fill:none" points="
  2160.76,1007.31 2232.76,1007.31 
  "/>
<polyline clip-path="url(#clip383)" style="stroke:#892269; stroke-linecap:butt; stroke-linejoin:round; stroke-width:12; stroke-opacity:1; fill:none" points="
  2160.76,927.153 2232.76,927.153 
  "/>
<polyline clip-path="url(#clip383)" style="stroke:#a32b61; stroke-linecap:butt; stroke-linejoin:round; stroke-width:12; stroke-opacity:1; fill:none" points="
  2160.76,846.999 2232.76,846.999 
  "/>
<polyline clip-path="url(#clip383)" style="stroke:#bb3754; stroke-linecap:butt; stroke-linejoin:round; stroke-width:12; stroke-opacity:1; fill:none" points="
  2160.76,766.846 2232.76,766.846 
  "/>
<polyline clip-path="url(#clip383)" style="stroke:#d04544; stroke-linecap:butt; stroke-linejoin:round; stroke-width:12; stroke-opacity:1; fill:none" points="
  2160.76,686.693 2232.76,686.693 
  "/>
<polyline clip-path="url(#clip383)" style="stroke:#e35832; stroke-linecap:butt; stroke-linejoin:round; stroke-width:12; stroke-opacity:1; fill:none" points="
  2160.76,606.539 2232.76,606.539 
  "/>
<polyline clip-path="url(#clip383)" style="stroke:#f0701e; stroke-linecap:butt; stroke-linejoin:round; stroke-width:12; stroke-opacity:1; fill:none" points="
  2160.76,526.386 2232.76,526.386 
  "/>
<polyline clip-path="url(#clip383)" style="stroke:#f98c09; stroke-linecap:butt; stroke-linejoin:round; stroke-width:12; stroke-opacity:1; fill:none" points="
  2160.76,446.233 2232.76,446.233 
  "/>
<polyline clip-path="url(#clip383)" style="stroke:#fbaa0e; stroke-linecap:butt; stroke-linejoin:round; stroke-width:12; stroke-opacity:1; fill:none" points="
  2160.76,366.079 2232.76,366.079 
  "/>
<polyline clip-path="url(#clip383)" style="stroke:#f8c931; stroke-linecap:butt; stroke-linejoin:round; stroke-width:12; stroke-opacity:1; fill:none" points="
  2160.76,285.926 2232.76,285.926 
  "/>
<polyline clip-path="url(#clip383)" style="stroke:#f1e864; stroke-linecap:butt; stroke-linejoin:round; stroke-width:12; stroke-opacity:1; fill:none" points="
  2160.76,205.772 2232.76,205.772 
  "/>
<path clip-path="url(#clip380)" d="M2280.7 1369.34 Q2277.09 1369.34 2275.26 1372.91 Q2273.45 1376.45 2273.45 1383.58 Q2273.45 1390.68 2275.26 1394.25 Q2277.09 1397.79 2280.7 1397.79 Q2284.33 1397.79 2286.14 1394.25 Q2287.97 1390.68 2287.97 1383.58 Q2287.97 1376.45 2286.14 1372.91 Q2284.33 1369.34 2280.7 1369.34 M2280.7 1365.64 Q2286.51 1365.64 2289.57 1370.24 Q2292.64 1374.83 2292.64 1383.58 Q2292.64 1392.3 2289.57 1396.91 Q2286.51 1401.49 2280.7 1401.49 Q2274.89 1401.49 2271.81 1396.91 Q2268.76 1392.3 2268.76 1383.58 Q2268.76 1374.83 2271.81 1370.24 Q2274.89 1365.64 2280.7 1365.64 Z" fill="#000000" fill-rule="evenodd" fill-opacity="1" /><path clip-path="url(#clip380)" d="M2270.21 1208.57 L2288.57 1208.57 L2288.57 1212.5 L2274.5 1212.5 L2274.5 1220.98 Q2275.52 1220.63 2276.53 1220.47 Q2277.55 1220.28 2278.57 1220.28 Q2284.36 1220.28 2287.74 1223.45 Q2291.12 1226.62 2291.12 1232.04 Q2291.12 1237.62 2287.64 1240.72 Q2284.17 1243.8 2277.85 1243.8 Q2275.68 1243.8 2273.41 1243.43 Q2271.16 1243.06 2268.76 1242.32 L2268.76 1237.62 Q2270.84 1238.75 2273.06 1239.31 Q2275.28 1239.86 2277.76 1239.86 Q2281.77 1239.86 2284.1 1237.76 Q2286.44 1235.65 2286.44 1232.04 Q2286.44 1228.43 2284.1 1226.32 Q2281.77 1224.22 2277.76 1224.22 Q2275.89 1224.22 2274.01 1224.63 Q2272.16 1225.05 2270.21 1225.93 L2270.21 1208.57 Z" fill="#000000" fill-rule="evenodd" fill-opacity="1" /><path clip-path="url(#clip380)" d="M2269.43 1081.5 L2277.07 1081.5 L2277.07 1055.13 L2268.76 1056.8 L2268.76 1052.54 L2277.02 1050.87 L2281.7 1050.87 L2281.7 1081.5 L2289.33 1081.5 L2289.33 1085.43 L2269.43 1085.43 L2269.43 1081.5 Z" fill="#000000" fill-rule="evenodd" fill-opacity="1" /><path clip-path="url(#clip380)" d="M2308.78 1053.95 Q2305.17 1053.95 2303.34 1057.52 Q2301.53 1061.06 2301.53 1068.19 Q2301.53 1075.3 2303.34 1078.86 Q2305.17 1082.4 2308.78 1082.4 Q2312.41 1082.4 2314.22 1078.86 Q2316.05 1075.3 2316.05 1068.19 Q2316.05 1061.06 2314.22 1057.52 Q2312.41 1053.95 2308.78 1053.95 M2308.78 1050.25 Q2314.59 1050.25 2317.64 1054.86 Q2320.72 1059.44 2320.72 1068.19 Q2320.72 1076.92 2317.64 1081.52 Q2314.59 1086.11 2308.78 1086.11 Q2302.97 1086.11 2299.89 1081.52 Q2296.83 1076.92 2296.83 1068.19 Q2296.83 1059.44 2299.89 1054.86 Q2302.97 1050.25 2308.78 1050.25 Z" fill="#000000" fill-rule="evenodd" fill-opacity="1" /><path clip-path="url(#clip380)" d="M2269.43 923.805 L2277.07 923.805 L2277.07 897.44 L2268.76 899.106 L2268.76 894.847 L2277.02 893.18 L2281.7 893.18 L2281.7 923.805 L2289.33 923.805 L2289.33 927.74 L2269.43 927.74 L2269.43 923.805 Z" fill="#000000" fill-rule="evenodd" fill-opacity="1" /><path clip-path="url(#clip380)" d="M2298.83 893.18 L2317.18 893.18 L2317.18 897.116 L2303.11 897.116 L2303.11 905.588 Q2304.13 905.241 2305.14 905.079 Q2306.16 904.893 2307.18 904.893 Q2312.97 904.893 2316.35 908.065 Q2319.73 911.236 2319.73 916.653 Q2319.73 922.231 2316.26 925.333 Q2312.78 928.412 2306.46 928.412 Q2304.29 928.412 2302.02 928.041 Q2299.77 927.671 2297.37 926.93 L2297.37 922.231 Q2299.45 923.366 2301.67 923.921 Q2303.89 924.477 2306.37 924.477 Q2310.38 924.477 2312.71 922.37 Q2315.05 920.264 2315.05 916.653 Q2315.05 913.041 2312.71 910.935 Q2310.38 908.829 2306.37 908.829 Q2304.5 908.829 2302.62 909.245 Q2300.77 909.662 2298.83 910.542 L2298.83 893.18 Z" fill="#000000" fill-rule="evenodd" fill-opacity="1" /><path clip-path="url(#clip380)" d="M2274.38 766.111 L2290.7 766.111 L2290.7 770.046 L2268.76 770.046 L2268.76 766.111 Q2271.42 763.357 2276 758.727 Q2280.61 754.074 2281.79 752.732 Q2284.03 750.209 2284.91 748.472 Q2285.82 746.713 2285.82 745.023 Q2285.82 742.269 2283.87 740.533 Q2281.95 738.797 2278.85 738.797 Q2276.65 738.797 2274.2 739.561 Q2271.77 740.324 2268.99 741.875 L2268.99 737.153 Q2271.81 736.019 2274.27 735.44 Q2276.72 734.861 2278.76 734.861 Q2284.13 734.861 2287.32 737.547 Q2290.52 740.232 2290.52 744.723 Q2290.52 746.852 2289.7 748.773 Q2288.92 750.672 2286.81 753.264 Q2286.23 753.935 2283.13 757.153 Q2280.03 760.347 2274.38 766.111 Z" fill="#000000" fill-rule="evenodd" fill-opacity="1" /><path clip-path="url(#clip380)" d="M2310.51 738.565 Q2306.9 738.565 2305.08 742.13 Q2303.27 745.672 2303.27 752.801 Q2303.27 759.908 2305.08 763.472 Q2306.9 767.014 2310.51 767.014 Q2314.15 767.014 2315.95 763.472 Q2317.78 759.908 2317.78 752.801 Q2317.78 745.672 2315.95 742.13 Q2314.15 738.565 2310.51 738.565 M2310.51 734.861 Q2316.33 734.861 2319.38 739.468 Q2322.46 744.051 2322.46 752.801 Q2322.46 761.528 2319.38 766.134 Q2316.33 770.718 2310.51 770.718 Q2304.7 770.718 2301.63 766.134 Q2298.57 761.528 2298.57 752.801 Q2298.57 744.051 2301.63 739.468 Q2304.7 734.861 2310.51 734.861 Z" fill="#000000" fill-rule="evenodd" fill-opacity="1" /><path clip-path="url(#clip380)" d="M2274.38 608.417 L2290.7 608.417 L2290.7 612.352 L2268.76 612.352 L2268.76 608.417 Q2271.42 605.663 2276 601.033 Q2280.61 596.38 2281.79 595.038 Q2284.03 592.515 2284.91 590.778 Q2285.82 589.019 2285.82 587.329 Q2285.82 584.575 2283.87 582.839 Q2281.95 581.103 2278.85 581.103 Q2276.65 581.103 2274.2 581.866 Q2271.77 582.63 2268.99 584.181 L2268.99 579.459 Q2271.81 578.325 2274.27 577.746 Q2276.72 577.167 2278.76 577.167 Q2284.13 577.167 2287.32 579.853 Q2290.52 582.538 2290.52 587.028 Q2290.52 589.158 2289.7 591.079 Q2288.92 592.978 2286.81 595.57 Q2286.23 596.241 2283.13 599.459 Q2280.03 602.653 2274.38 608.417 Z" fill="#000000" fill-rule="evenodd" fill-opacity="1" /><path clip-path="url(#clip380)" d="M2300.56 577.792 L2318.92 577.792 L2318.92 581.728 L2304.84 581.728 L2304.84 590.2 Q2305.86 589.853 2306.88 589.691 Q2307.9 589.505 2308.92 589.505 Q2314.7 589.505 2318.08 592.677 Q2321.46 595.848 2321.46 601.265 Q2321.46 606.843 2317.99 609.945 Q2314.52 613.024 2308.2 613.024 Q2306.02 613.024 2303.76 612.653 Q2301.51 612.283 2299.1 611.542 L2299.1 606.843 Q2301.19 607.977 2303.41 608.533 Q2305.63 609.089 2308.11 609.089 Q2312.11 609.089 2314.45 606.982 Q2316.79 604.876 2316.79 601.265 Q2316.79 597.653 2314.45 595.547 Q2312.11 593.44 2308.11 593.44 Q2306.23 593.44 2304.36 593.857 Q2302.51 594.274 2300.56 595.153 L2300.56 577.792 Z" fill="#000000" fill-rule="evenodd" fill-opacity="1" /><path clip-path="url(#clip380)" d="M2284.38 436.024 Q2287.74 436.742 2289.61 439.01 Q2291.51 441.279 2291.51 444.612 Q2291.51 449.728 2287.99 452.529 Q2284.47 455.33 2277.99 455.33 Q2275.82 455.33 2273.5 454.89 Q2271.21 454.473 2268.76 453.617 L2268.76 449.103 Q2270.7 450.237 2273.02 450.816 Q2275.33 451.395 2277.85 451.395 Q2282.25 451.395 2284.54 449.658 Q2286.86 447.922 2286.86 444.612 Q2286.86 441.557 2284.7 439.844 Q2282.58 438.108 2278.76 438.108 L2274.73 438.108 L2274.73 434.265 L2278.94 434.265 Q2282.39 434.265 2284.22 432.899 Q2286.05 431.51 2286.05 428.918 Q2286.05 426.256 2284.15 424.844 Q2282.27 423.409 2278.76 423.409 Q2276.83 423.409 2274.64 423.825 Q2272.44 424.242 2269.8 425.122 L2269.8 420.955 Q2272.46 420.214 2274.77 419.844 Q2277.11 419.473 2279.17 419.473 Q2284.5 419.473 2287.6 421.904 Q2290.7 424.311 2290.7 428.432 Q2290.7 431.302 2289.06 433.293 Q2287.41 435.26 2284.38 436.024 Z" fill="#000000" fill-rule="evenodd" fill-opacity="1" /><path clip-path="url(#clip380)" d="M2310.38 423.177 Q2306.76 423.177 2304.94 426.742 Q2303.13 430.284 2303.13 437.413 Q2303.13 444.52 2304.94 448.084 Q2306.76 451.626 2310.38 451.626 Q2314.01 451.626 2315.82 448.084 Q2317.64 444.52 2317.64 437.413 Q2317.64 430.284 2315.82 426.742 Q2314.01 423.177 2310.38 423.177 M2310.38 419.473 Q2316.19 419.473 2319.24 424.08 Q2322.32 428.663 2322.32 437.413 Q2322.32 446.14 2319.24 450.746 Q2316.19 455.33 2310.38 455.33 Q2304.57 455.33 2301.49 450.746 Q2298.43 446.14 2298.43 437.413 Q2298.43 428.663 2301.49 424.08 Q2304.57 419.473 2310.38 419.473 Z" fill="#000000" fill-rule="evenodd" fill-opacity="1" /><path clip-path="url(#clip380)" d="M2284.38 278.33 Q2287.74 279.048 2289.61 281.316 Q2291.51 283.585 2291.51 286.918 Q2291.51 292.034 2287.99 294.835 Q2284.47 297.636 2277.99 297.636 Q2275.82 297.636 2273.5 297.196 Q2271.21 296.779 2268.76 295.923 L2268.76 291.409 Q2270.7 292.543 2273.02 293.122 Q2275.33 293.7 2277.85 293.7 Q2282.25 293.7 2284.54 291.964 Q2286.86 290.228 2286.86 286.918 Q2286.86 283.863 2284.7 282.15 Q2282.58 280.414 2278.76 280.414 L2274.73 280.414 L2274.73 276.571 L2278.94 276.571 Q2282.39 276.571 2284.22 275.205 Q2286.05 273.816 2286.05 271.224 Q2286.05 268.562 2284.15 267.15 Q2282.27 265.715 2278.76 265.715 Q2276.83 265.715 2274.64 266.131 Q2272.44 266.548 2269.8 267.427 L2269.8 263.261 Q2272.46 262.52 2274.77 262.15 Q2277.11 261.779 2279.17 261.779 Q2284.5 261.779 2287.6 264.21 Q2290.7 266.617 2290.7 270.738 Q2290.7 273.608 2289.06 275.599 Q2287.41 277.566 2284.38 278.33 Z" fill="#000000" fill-rule="evenodd" fill-opacity="1" /><path clip-path="url(#clip380)" d="M2300.42 262.404 L2318.78 262.404 L2318.78 266.34 L2304.7 266.34 L2304.7 274.812 Q2305.72 274.464 2306.74 274.302 Q2307.76 274.117 2308.78 274.117 Q2314.57 274.117 2317.95 277.289 Q2321.33 280.46 2321.33 285.876 Q2321.33 291.455 2317.85 294.557 Q2314.38 297.636 2308.06 297.636 Q2305.89 297.636 2303.62 297.265 Q2301.37 296.895 2298.96 296.154 L2298.96 291.455 Q2301.05 292.589 2303.27 293.145 Q2305.49 293.7 2307.97 293.7 Q2311.97 293.7 2314.31 291.594 Q2316.65 289.488 2316.65 285.876 Q2316.65 282.265 2314.31 280.159 Q2311.97 278.052 2307.97 278.052 Q2306.09 278.052 2304.22 278.469 Q2302.37 278.886 2300.42 279.765 L2300.42 262.404 Z" fill="#000000" fill-rule="evenodd" fill-opacity="1" /><path clip-path="url(#clip380)" d="M2284.36 108.784 L2272.55 127.233 L2284.36 127.233 L2284.36 108.784 M2283.13 104.71 L2289.01 104.71 L2289.01 127.233 L2293.94 127.233 L2293.94 131.122 L2289.01 131.122 L2289.01 139.27 L2284.36 139.27 L2284.36 131.122 L2268.76 131.122 L2268.76 126.608 L2283.13 104.71 Z" fill="#000000" fill-rule="evenodd" fill-opacity="1" /><path clip-path="url(#clip380)" d="M2311.67 107.789 Q2308.06 107.789 2306.23 111.354 Q2304.43 114.895 2304.43 122.025 Q2304.43 129.131 2306.23 132.696 Q2308.06 136.238 2311.67 136.238 Q2315.31 136.238 2317.11 132.696 Q2318.94 129.131 2318.94 122.025 Q2318.94 114.895 2317.11 111.354 Q2315.31 107.789 2311.67 107.789 M2311.67 104.085 Q2317.48 104.085 2320.54 108.692 Q2323.62 113.275 2323.62 122.025 Q2323.62 130.752 2320.54 135.358 Q2317.48 139.942 2311.67 139.942 Q2305.86 139.942 2302.78 135.358 Q2299.73 130.752 2299.73 122.025 Q2299.73 113.275 2302.78 108.692 Q2305.86 104.085 2311.67 104.085 Z" fill="#000000" fill-rule="evenodd" fill-opacity="1" /><polyline clip-path="url(#clip380)" style="stroke:#000000; stroke-linecap:butt; stroke-linejoin:round; stroke-width:4; stroke-opacity:1; fill:none" points="
  2232.76,1408.07 2232.76,1387.17 2256.76,1387.17 2232.76,1387.17 2232.76,1229.48 2256.76,1229.48 2232.76,1229.48 2232.76,1071.78 2256.76,1071.78 2232.76,1071.78 
  2232.76,914.089 2256.76,914.089 2232.76,914.089 2232.76,756.395 2256.76,756.395 2232.76,756.395 2232.76,598.701 2256.76,598.701 2232.76,598.701 2232.76,441.007 
  2256.76,441.007 2232.76,441.007 2232.76,283.313 2256.76,283.313 2232.76,283.313 2232.76,125.619 2256.76,125.619 2232.76,125.619 
  "/>
</svg>
