<?xml version="1.0" encoding="utf-8"?>
<svg xmlns="http://www.w3.org/2000/svg" xmlns:xlink="http://www.w3.org/1999/xlink" width="600" height="400" viewBox="0 0 2400 1600">
<defs>
  <clipPath id="clip540">
    <rect x="0" y="0" width="2400" height="1600"/>
  </clipPath>
</defs>
<path clip-path="url(#clip540)" d="
M0 1600 L2400 1600 L2400 0 L0 0  Z
  " fill="#ffffff" fill-rule="evenodd" fill-opacity="1"/>
<defs>
  <clipPath id="clip541">
    <rect x="480" y="0" width="1681" height="1600"/>
  </clipPath>
</defs>
<defs>
  <clipPath id="clip542">
    <rect x="252" y="47" width="2101" height="1365"/>
  </clipPath>
</defs>
<path clip-path="url(#clip540)" d="
M252.764 1410.9 L2352.76 1410.9 L2352.76 47.2441 L252.764 47.2441  Z
  " fill="#ffffff" fill-rule="evenodd" fill-opacity="1"/>
<polyline clip-path="url(#clip542)" style="stroke:#000000; stroke-linecap:butt; stroke-linejoin:round; stroke-width:2; stroke-opacity:0.1; fill:none" points="
  319.729,1410.9 319.729,47.2441 
  "/>
<polyline clip-path="url(#clip542)" style="stroke:#000000; stroke-linecap:butt; stroke-linejoin:round; stroke-width:2; stroke-opacity:0.1; fill:none" points="
  1050.97,1410.9 1050.97,47.2441 
  "/>
<polyline clip-path="url(#clip542)" style="stroke:#000000; stroke-linecap:butt; stroke-linejoin:round; stroke-width:2; stroke-opacity:0.1; fill:none" points="
  1782.21,1410.9 1782.21,47.2441 
  "/>
<polyline clip-path="url(#clip540)" style="stroke:#000000; stroke-linecap:butt; stroke-linejoin:round; stroke-width:4; stroke-opacity:1; fill:none" points="
  252.764,1410.9 2352.76,1410.9 
  "/>
<polyline clip-path="url(#clip540)" style="stroke:#000000; stroke-linecap:butt; stroke-linejoin:round; stroke-width:4; stroke-opacity:1; fill:none" points="
  319.729,1410.9 319.729,1392 
  "/>
<polyline clip-path="url(#clip540)" style="stroke:#000000; stroke-linecap:butt; stroke-linejoin:round; stroke-width:4; stroke-opacity:1; fill:none" points="
  1050.97,1410.9 1050.97,1392 
  "/>
<polyline clip-path="url(#clip540)" style="stroke:#000000; stroke-linecap:butt; stroke-linejoin:round; stroke-width:4; stroke-opacity:1; fill:none" points="
  1782.21,1410.9 1782.21,1392 
  "/>
<path clip-path="url(#clip540)" d="M269.61 1485.02 L277.248 1485.02 L277.248 1458.66 L268.938 1460.32 L268.938 1456.06 L277.202 1454.4 L281.878 1454.4 L281.878 1485.02 L289.517 1485.02 L289.517 1488.96 L269.61 1488.96 L269.61 1485.02 Z" fill="#000000" fill-rule="evenodd" fill-opacity="1" /><path clip-path="url(#clip540)" d="M308.961 1457.48 Q305.35 1457.48 303.521 1461.04 Q301.716 1464.58 301.716 1471.71 Q301.716 1478.82 303.521 1482.38 Q305.35 1485.92 308.961 1485.92 Q312.595 1485.92 314.401 1482.38 Q316.23 1478.82 316.23 1471.71 Q316.23 1464.58 314.401 1461.04 Q312.595 1457.48 308.961 1457.48 M308.961 1453.77 Q314.771 1453.77 317.827 1458.38 Q320.906 1462.96 320.906 1471.71 Q320.906 1480.44 317.827 1485.04 Q314.771 1489.63 308.961 1489.63 Q303.151 1489.63 300.072 1485.04 Q297.017 1480.44 297.017 1471.71 Q297.017 1462.96 300.072 1458.38 Q303.151 1453.77 308.961 1453.77 Z" fill="#000000" fill-rule="evenodd" fill-opacity="1" /><path clip-path="url(#clip540)" d="M320.906 1447.87 L345.017 1447.87 L345.017 1451.07 L320.906 1451.07 L320.906 1447.87 Z" fill="#000000" fill-rule="evenodd" fill-opacity="1" /><path clip-path="url(#clip540)" d="M364.728 1446.41 Q367.455 1446.99 368.978 1448.83 Q370.521 1450.68 370.521 1453.38 Q370.521 1457.54 367.662 1459.82 Q364.803 1462.09 359.537 1462.09 Q357.769 1462.09 355.888 1461.73 Q354.026 1461.4 352.032 1460.7 L352.032 1457.03 Q353.612 1457.95 355.493 1458.42 Q357.374 1458.89 359.424 1458.89 Q362.997 1458.89 364.859 1457.48 Q366.74 1456.07 366.74 1453.38 Q366.74 1450.9 364.991 1449.51 Q363.261 1448.1 360.157 1448.1 L356.885 1448.1 L356.885 1444.98 L360.308 1444.98 Q363.11 1444.98 364.596 1443.87 Q366.082 1442.74 366.082 1440.63 Q366.082 1438.47 364.54 1437.32 Q363.016 1436.16 360.157 1436.16 Q358.596 1436.16 356.81 1436.49 Q355.023 1436.83 352.879 1437.55 L352.879 1434.16 Q355.042 1433.56 356.923 1433.26 Q358.822 1432.96 360.496 1432.96 Q364.822 1432.96 367.342 1434.93 Q369.862 1436.89 369.862 1440.24 Q369.862 1442.57 368.527 1444.19 Q367.192 1445.79 364.728 1446.41 Z" fill="#000000" fill-rule="evenodd" fill-opacity="1" /><path clip-path="url(#clip540)" d="M1001.23 1485.02 L1008.87 1485.02 L1008.87 1458.66 L1000.56 1460.32 L1000.56 1456.06 L1008.83 1454.4 L1013.5 1454.4 L1013.5 1485.02 L1021.14 1485.02 L1021.14 1488.96 L1001.23 1488.96 L1001.23 1485.02 Z" fill="#000000" fill-rule="evenodd" fill-opacity="1" /><path clip-path="url(#clip540)" d="M1040.59 1457.48 Q1036.97 1457.48 1035.15 1461.04 Q1033.34 1464.58 1033.34 1471.71 Q1033.34 1478.82 1035.15 1482.38 Q1036.97 1485.92 1040.59 1485.92 Q1044.22 1485.92 1046.03 1482.38 Q1047.85 1478.82 1047.85 1471.71 Q1047.85 1464.58 1046.03 1461.04 Q1044.22 1457.48 1040.59 1457.48 M1040.59 1453.77 Q1046.4 1453.77 1049.45 1458.38 Q1052.53 1462.96 1052.53 1471.71 Q1052.53 1480.44 1049.45 1485.04 Q1046.4 1489.63 1040.59 1489.63 Q1034.78 1489.63 1031.7 1485.04 Q1028.64 1480.44 1028.64 1471.71 Q1028.64 1462.96 1031.7 1458.38 Q1034.78 1453.77 1040.59 1453.77 Z" fill="#000000" fill-rule="evenodd" fill-opacity="1" /><path clip-path="url(#clip540)" d="M1052.53 1447.87 L1076.64 1447.87 L1076.64 1451.07 L1052.53 1451.07 L1052.53 1447.87 Z" fill="#000000" fill-rule="evenodd" fill-opacity="1" /><path clip-path="url(#clip540)" d="M1088.11 1458.35 L1101.37 1458.35 L1101.37 1461.55 L1083.54 1461.55 L1083.54 1458.35 Q1085.71 1456.11 1089.43 1452.35 Q1093.17 1448.57 1094.13 1447.48 Q1095.96 1445.43 1096.67 1444.02 Q1097.41 1442.59 1097.41 1441.22 Q1097.41 1438.98 1095.83 1437.57 Q1094.26 1436.16 1091.74 1436.16 Q1089.96 1436.16 1087.96 1436.78 Q1085.99 1437.4 1083.73 1438.66 L1083.73 1434.82 Q1086.03 1433.9 1088.02 1433.43 Q1090.01 1432.96 1091.67 1432.96 Q1096.03 1432.96 1098.63 1435.14 Q1101.22 1437.32 1101.22 1440.97 Q1101.22 1442.7 1100.57 1444.26 Q1099.93 1445.8 1098.21 1447.91 Q1097.74 1448.46 1095.22 1451.07 Q1092.7 1453.67 1088.11 1458.35 Z" fill="#000000" fill-rule="evenodd" fill-opacity="1" /><path clip-path="url(#clip540)" d="M1732.32 1485.02 L1739.96 1485.02 L1739.96 1458.66 L1731.65 1460.32 L1731.65 1456.06 L1739.92 1454.4 L1744.59 1454.4 L1744.59 1485.02 L1752.23 1485.02 L1752.23 1488.96 L1732.32 1488.96 L1732.32 1485.02 Z" fill="#000000" fill-rule="evenodd" fill-opacity="1" /><path clip-path="url(#clip540)" d="M1771.67 1457.48 Q1768.06 1457.48 1766.24 1461.04 Q1764.43 1464.58 1764.43 1471.71 Q1764.43 1478.82 1766.24 1482.38 Q1768.06 1485.92 1771.67 1485.92 Q1775.31 1485.92 1777.11 1482.38 Q1778.94 1478.82 1778.94 1471.71 Q1778.94 1464.58 1777.11 1461.04 Q1775.31 1457.48 1771.67 1457.48 M1771.67 1453.77 Q1777.48 1453.77 1780.54 1458.38 Q1783.62 1462.96 1783.62 1471.71 Q1783.62 1480.44 1780.54 1485.04 Q1777.48 1489.63 1771.67 1489.63 Q1765.86 1489.63 1762.79 1485.04 Q1759.73 1480.44 1759.73 1471.71 Q1759.73 1462.96 1762.79 1458.38 Q1765.86 1453.77 1771.67 1453.77 Z" fill="#000000" fill-rule="evenodd" fill-opacity="1" /><path clip-path="url(#clip540)" d="M1783.62 1447.87 L1807.73 1447.87 L1807.73 1451.07 L1783.62 1451.07 L1783.62 1447.87 Z" fill="#000000" fill-rule="evenodd" fill-opacity="1" /><path clip-path="url(#clip540)" d="M1816.59 1458.35 L1822.8 1458.35 L1822.8 1436.93 L1816.04 1438.28 L1816.04 1434.82 L1822.76 1433.47 L1826.56 1433.47 L1826.56 1458.35 L1832.76 1458.35 L1832.76 1461.55 L1816.59 1461.55 L1816.59 1458.35 Z" fill="#000000" fill-rule="evenodd" fill-opacity="1" /><path clip-path="url(#clip540)" d="M1257.42 1568.04 Q1257.42 1567.79 1258.29 1566.11 Q1259.16 1564.41 1262.22 1558.32 Q1265.28 1552.2 1268.43 1545.79 L1279.8 1522.92 Q1280.61 1521.48 1281.64 1521.48 Q1282.57 1521.48 1282.99 1522.05 Q1283.41 1522.63 1285.34 1526.53 Q1286.34 1528.43 1286.92 1529.66 L1305.57 1566.98 Q1305.89 1567.79 1305.92 1568.04 Q1305.92 1568.69 1304.79 1568.69 L1259.16 1568.69 Q1257.42 1568.69 1257.42 1568.04 M1261.77 1563.66 L1297.26 1563.66 L1279.51 1528.05 L1261.77 1563.66 Z" fill="#000000" fill-rule="evenodd" fill-opacity="1" /><path clip-path="url(#clip540)" d="M1343.6 1543.89 Q1343.6 1545.69 1342.47 1546.72 Q1341.34 1547.72 1340.06 1547.72 Q1338.83 1547.72 1338.19 1547.01 Q1337.54 1546.31 1337.54 1545.4 Q1337.54 1544.18 1338.45 1543.12 Q1339.35 1542.05 1340.7 1541.83 Q1339.38 1540.99 1337.42 1540.99 Q1336.13 1540.99 1335 1541.67 Q1333.9 1542.34 1333.23 1543.21 Q1332.58 1544.08 1332 1545.34 Q1331.46 1546.56 1331.23 1547.3 Q1331.04 1548.01 1330.88 1548.79 L1328.62 1557.8 Q1327.53 1562.09 1327.53 1563.6 Q1327.53 1565.47 1328.43 1566.72 Q1329.33 1567.95 1331.14 1567.95 Q1331.84 1567.95 1332.65 1567.76 Q1333.45 1567.53 1334.48 1566.95 Q1335.55 1566.34 1336.48 1565.44 Q1337.45 1564.5 1338.38 1562.92 Q1339.32 1561.35 1339.93 1559.32 Q1340.12 1558.61 1340.76 1558.61 Q1341.57 1558.61 1341.57 1559.25 Q1341.57 1559.8 1341.12 1560.96 Q1340.7 1562.09 1339.77 1563.57 Q1338.86 1565.02 1337.67 1566.34 Q1336.48 1567.63 1334.71 1568.53 Q1332.94 1569.43 1331.01 1569.43 Q1328.24 1569.43 1326.4 1567.95 Q1324.57 1566.47 1323.89 1564.41 Q1323.73 1564.7 1323.5 1565.08 Q1323.28 1565.47 1322.6 1566.34 Q1321.96 1567.18 1321.22 1567.82 Q1320.47 1568.43 1319.32 1568.91 Q1318.19 1569.43 1316.96 1569.43 Q1315.42 1569.43 1314.03 1568.98 Q1312.68 1568.53 1311.72 1567.5 Q1310.75 1566.47 1310.75 1565.05 Q1310.75 1563.47 1311.81 1562.38 Q1312.91 1561.25 1314.39 1561.25 Q1315.32 1561.25 1316.06 1561.8 Q1316.84 1562.34 1316.84 1563.54 Q1316.84 1564.86 1315.93 1565.85 Q1315.03 1566.85 1313.74 1567.11 Q1315.06 1567.95 1317.03 1567.95 Q1319.15 1567.95 1320.83 1566.08 Q1322.5 1564.21 1323.31 1561.09 Q1325.31 1553.58 1326.08 1550.24 Q1326.85 1546.85 1326.85 1545.4 Q1326.85 1544.05 1326.5 1543.12 Q1326.14 1542.18 1325.53 1541.76 Q1324.95 1541.31 1324.4 1541.15 Q1323.89 1540.99 1323.31 1540.99 Q1322.34 1540.99 1321.25 1541.38 Q1320.19 1541.76 1318.9 1542.67 Q1317.64 1543.54 1316.45 1545.34 Q1315.26 1547.14 1314.45 1549.62 Q1314.29 1550.36 1313.58 1550.36 Q1312.81 1550.33 1312.81 1549.69 Q1312.81 1549.14 1313.23 1548.01 Q1313.68 1546.85 1314.58 1545.4 Q1315.52 1543.95 1316.71 1542.67 Q1317.93 1541.35 1319.7 1540.44 Q1321.51 1539.54 1323.44 1539.54 Q1324.31 1539.54 1325.14 1539.74 Q1326.01 1539.9 1327.04 1540.38 Q1328.11 1540.86 1329.04 1541.93 Q1329.98 1542.99 1330.56 1544.53 Q1330.94 1543.79 1331.46 1543.09 Q1332 1542.38 1332.84 1541.51 Q1333.71 1540.61 1334.9 1540.09 Q1336.13 1539.54 1337.48 1539.54 Q1338.8 1539.54 1340.09 1539.9 Q1341.38 1540.22 1342.47 1541.28 Q1343.6 1542.31 1343.6 1543.89 Z" fill="#000000" fill-rule="evenodd" fill-opacity="1" /><polyline clip-path="url(#clip542)" style="stroke:#000000; stroke-linecap:butt; stroke-linejoin:round; stroke-width:2; stroke-opacity:0.1; fill:none" points="
  252.764,1094.11 2352.76,1094.11 
  "/>
<polyline clip-path="url(#clip542)" style="stroke:#000000; stroke-linecap:butt; stroke-linejoin:round; stroke-width:2; stroke-opacity:0.1; fill:none" points="
  252.764,548.945 2352.76,548.945 
  "/>
<polyline clip-path="url(#clip540)" style="stroke:#000000; stroke-linecap:butt; stroke-linejoin:round; stroke-width:4; stroke-opacity:1; fill:none" points="
  252.764,1410.9 252.764,47.2441 
  "/>
<polyline clip-path="url(#clip540)" style="stroke:#000000; stroke-linecap:butt; stroke-linejoin:round; stroke-width:4; stroke-opacity:1; fill:none" points="
  252.764,1094.11 271.662,1094.11 
  "/>
<polyline clip-path="url(#clip540)" style="stroke:#000000; stroke-linecap:butt; stroke-linejoin:round; stroke-width:4; stroke-opacity:1; fill:none" points="
  252.764,548.945 271.662,548.945 
  "/>
<path clip-path="url(#clip540)" d="M114.931 1113.9 L122.57 1113.9 L122.57 1087.53 L114.26 1089.2 L114.26 1084.94 L122.524 1083.27 L127.2 1083.27 L127.2 1113.9 L134.839 1113.9 L134.839 1117.83 L114.931 1117.83 L114.931 1113.9 Z" fill="#000000" fill-rule="evenodd" fill-opacity="1" /><path clip-path="url(#clip540)" d="M154.283 1086.35 Q150.672 1086.35 148.843 1089.92 Q147.038 1093.46 147.038 1100.59 Q147.038 1107.7 148.843 1111.26 Q150.672 1114.8 154.283 1114.8 Q157.917 1114.8 159.723 1111.26 Q161.552 1107.7 161.552 1100.59 Q161.552 1093.46 159.723 1089.92 Q157.917 1086.35 154.283 1086.35 M154.283 1082.65 Q160.093 1082.65 163.149 1087.26 Q166.227 1091.84 166.227 1100.59 Q166.227 1109.32 163.149 1113.92 Q160.093 1118.51 154.283 1118.51 Q148.473 1118.51 145.394 1113.92 Q142.339 1109.32 142.339 1100.59 Q142.339 1091.84 145.394 1087.26 Q148.473 1082.65 154.283 1082.65 Z" fill="#000000" fill-rule="evenodd" fill-opacity="1" /><path clip-path="url(#clip540)" d="M166.227 1076.75 L190.339 1076.75 L190.339 1079.95 L166.227 1079.95 L166.227 1076.75 Z" fill="#000000" fill-rule="evenodd" fill-opacity="1" /><path clip-path="url(#clip540)" d="M208.978 1065.65 L199.386 1080.64 L208.978 1080.64 L208.978 1065.65 M207.981 1062.34 L212.758 1062.34 L212.758 1080.64 L216.764 1080.64 L216.764 1083.8 L212.758 1083.8 L212.758 1090.42 L208.978 1090.42 L208.978 1083.8 L196.301 1083.8 L196.301 1080.14 L207.981 1062.34 Z" fill="#000000" fill-rule="evenodd" fill-opacity="1" /><path clip-path="url(#clip540)" d="M116.624 568.737 L124.263 568.737 L124.263 542.372 L115.953 544.038 L115.953 539.779 L124.217 538.112 L128.893 538.112 L128.893 568.737 L136.531 568.737 L136.531 572.672 L116.624 572.672 L116.624 568.737 Z" fill="#000000" fill-rule="evenodd" fill-opacity="1" /><path clip-path="url(#clip540)" d="M155.976 541.191 Q152.365 541.191 150.536 544.756 Q148.73 548.298 148.73 555.427 Q148.73 562.534 150.536 566.098 Q152.365 569.64 155.976 569.64 Q159.61 569.64 161.416 566.098 Q163.244 562.534 163.244 555.427 Q163.244 548.298 161.416 544.756 Q159.61 541.191 155.976 541.191 M155.976 537.487 Q161.786 537.487 164.841 542.094 Q167.92 546.677 167.92 555.427 Q167.92 564.154 164.841 568.76 Q161.786 573.344 155.976 573.344 Q150.166 573.344 147.087 568.76 Q144.031 564.154 144.031 555.427 Q144.031 546.677 147.087 542.094 Q150.166 537.487 155.976 537.487 Z" fill="#000000" fill-rule="evenodd" fill-opacity="1" /><path clip-path="url(#clip540)" d="M167.92 531.589 L192.032 531.589 L192.032 534.786 L167.92 534.786 L167.92 531.589 Z" fill="#000000" fill-rule="evenodd" fill-opacity="1" /><path clip-path="url(#clip540)" d="M203.504 542.065 L216.764 542.065 L216.764 545.262 L198.934 545.262 L198.934 542.065 Q201.097 539.827 204.821 536.065 Q208.564 532.285 209.523 531.194 Q211.347 529.144 212.062 527.733 Q212.796 526.304 212.796 524.931 Q212.796 522.693 211.216 521.282 Q209.655 519.872 207.134 519.872 Q205.348 519.872 203.354 520.492 Q201.379 521.113 199.122 522.373 L199.122 518.536 Q201.417 517.615 203.41 517.144 Q205.404 516.674 207.059 516.674 Q211.423 516.674 214.018 518.856 Q216.613 521.038 216.613 524.686 Q216.613 526.417 215.955 527.978 Q215.316 529.52 213.604 531.626 Q213.134 532.172 210.614 534.786 Q208.094 537.382 203.504 542.065 Z" fill="#000000" fill-rule="evenodd" fill-opacity="1" /><path clip-path="url(#clip540)" d="M72.1197 767.522 Q71.862 767.522 70.1873 766.653 Q68.4804 765.783 62.3935 762.724 Q56.2744 759.664 49.8654 756.508 L26.9993 745.139 Q25.55 744.334 25.55 743.304 Q25.55 742.37 26.1297 741.951 Q26.7094 741.532 30.6063 739.6 Q32.5065 738.601 33.7303 738.022 L71.0569 719.375 Q71.862 719.053 72.1197 719.02 Q72.7638 719.02 72.7638 720.148 L72.7638 765.783 Q72.7638 767.522 72.1197 767.522 M67.7397 763.175 L67.7397 727.684 L32.12 745.429 L67.7397 763.175 Z" fill="#000000" fill-rule="evenodd" fill-opacity="1" /><path clip-path="url(#clip540)" d="M45.0667 693.934 Q45.9685 693.934 46.1939 694.353 Q46.3872 694.771 46.3872 695.931 L46.3872 702.114 L65.8395 707.009 Q67.5464 707.396 68.9957 707.396 Q70.606 707.396 71.3145 706.913 Q72.023 706.398 72.023 705.335 Q72.023 703.241 70.1229 700.987 Q68.2228 698.7 63.5851 696.768 Q62.9732 696.51 62.8444 696.382 Q62.6833 696.221 62.6833 695.802 Q62.6833 694.997 63.3275 694.997 Q63.5529 694.997 64.5835 695.448 Q65.6141 695.866 67.1278 696.8 Q68.6414 697.702 70.0585 698.894 Q71.4755 700.053 72.5061 701.824 Q73.5045 703.596 73.5045 705.496 Q73.5045 708.169 71.7976 709.876 Q70.0907 711.551 67.4176 711.551 Q66.5481 711.551 63.7783 710.874 Q60.9764 710.198 46.3872 706.526 L46.3872 712.356 Q46.3872 713.161 46.355 713.483 Q46.3228 713.773 46.1617 713.998 Q45.9685 714.191 45.582 714.191 Q44.9701 714.191 44.7125 713.934 Q44.4226 713.676 44.3904 713.354 Q44.326 713 44.326 712.195 L44.326 706.011 L33.8591 703.435 Q32.8285 703.177 32.2488 702.533 Q31.6369 701.857 31.5725 701.47 Q31.4759 701.084 31.4759 700.794 Q31.4759 699.924 31.959 699.409 Q32.4098 698.894 33.2472 698.894 Q33.6981 698.894 44.326 701.599 L44.326 695.802 Q44.326 695.061 44.3582 694.771 Q44.3904 694.449 44.5514 694.192 Q44.7125 693.934 45.0667 693.934 Z" fill="#000000" fill-rule="evenodd" fill-opacity="1" /><polyline clip-path="url(#clip542)" style="stroke:#009af9; stroke-linecap:butt; stroke-linejoin:round; stroke-width:12; stroke-opacity:1; fill:none" points="
  2293.32,85.838 2073.2,167.893 1853.07,249.948 1632.95,332.003 1412.82,414.058 1192.7,496.113 972.573,578.168 752.448,660.223 532.323,742.278 312.198,824.333 
  
  "/>
<polyline clip-path="url(#clip542)" style="stroke:#e26f46; stroke-linecap:butt; stroke-linejoin:round; stroke-width:12; stroke-opacity:1; fill:none" points="
  2293.32,85.838 2073.2,167.893 1853.07,249.948 1632.95,387.642 1412.82,551.752 1192.7,715.862 972.573,879.973 752.448,1044.08 532.323,1208.19 312.198,1372.3 
  
  "/>
<path clip-path="url(#clip540)" d="
M1839.8 1365.44 L2282.76 1365.44 L2282.76 1209.92 L1839.8 1209.92  Z
  " fill="#ffffff" fill-rule="evenodd" fill-opacity="1"/>
<polyline clip-path="url(#clip540)" style="stroke:#000000; stroke-linecap:butt; stroke-linejoin:round; stroke-width:4; stroke-opacity:1; fill:none" points="
  1839.8,1365.44 2282.76,1365.44 2282.76,1209.92 1839.8,1209.92 1839.8,1365.44 
  "/>
<polyline clip-path="url(#clip540)" style="stroke:#009af9; stroke-linecap:butt; stroke-linejoin:round; stroke-width:4; stroke-opacity:1; fill:none" points="
  1863.13,1261.76 2003.13,1261.76 
  "/>
<path clip-path="url(#clip540)" d="M2039.86 1266.01 Q2034.7 1266.01 2032.71 1267.19 Q2030.72 1268.37 2030.72 1271.22 Q2030.72 1273.49 2032.2 1274.83 Q2033.71 1276.15 2036.28 1276.15 Q2039.82 1276.15 2041.95 1273.65 Q2044.1 1271.12 2044.1 1266.96 L2044.1 1266.01 L2039.86 1266.01 M2048.36 1264.25 L2048.36 1279.04 L2044.1 1279.04 L2044.1 1275.11 Q2042.64 1277.47 2040.47 1278.6 Q2038.29 1279.71 2035.14 1279.71 Q2031.16 1279.71 2028.8 1277.49 Q2026.46 1275.25 2026.46 1271.5 Q2026.46 1267.12 2029.38 1264.9 Q2032.32 1262.68 2038.13 1262.68 L2044.1 1262.68 L2044.1 1262.26 Q2044.1 1259.32 2042.16 1257.72 Q2040.23 1256.1 2036.74 1256.1 Q2034.52 1256.1 2032.41 1256.63 Q2030.3 1257.17 2028.36 1258.23 L2028.36 1254.3 Q2030.7 1253.39 2032.9 1252.95 Q2035.1 1252.49 2037.18 1252.49 Q2042.8 1252.49 2045.58 1255.41 Q2048.36 1258.32 2048.36 1264.25 Z" fill="#000000" fill-rule="evenodd" fill-opacity="1" /><path clip-path="url(#clip540)" d="M2075.79 1254.11 L2075.79 1258.09 Q2073.98 1257.1 2072.16 1256.61 Q2070.35 1256.1 2068.5 1256.1 Q2064.35 1256.1 2062.06 1258.74 Q2059.77 1261.36 2059.77 1266.1 Q2059.77 1270.85 2062.06 1273.49 Q2064.35 1276.1 2068.5 1276.1 Q2070.35 1276.1 2072.16 1275.62 Q2073.98 1275.11 2075.79 1274.11 L2075.79 1278.05 Q2074.01 1278.88 2072.09 1279.3 Q2070.19 1279.71 2068.04 1279.71 Q2062.18 1279.71 2058.73 1276.03 Q2055.28 1272.35 2055.28 1266.1 Q2055.28 1259.76 2058.75 1256.13 Q2062.25 1252.49 2068.31 1252.49 Q2070.28 1252.49 2072.16 1252.91 Q2074.03 1253.3 2075.79 1254.11 Z" fill="#000000" fill-rule="evenodd" fill-opacity="1" /><path clip-path="url(#clip540)" d="M2101.85 1254.11 L2101.85 1258.09 Q2100.05 1257.1 2098.22 1256.61 Q2096.41 1256.1 2094.56 1256.1 Q2090.42 1256.1 2088.13 1258.74 Q2085.84 1261.36 2085.84 1266.1 Q2085.84 1270.85 2088.13 1273.49 Q2090.42 1276.1 2094.56 1276.1 Q2096.41 1276.1 2098.22 1275.62 Q2100.05 1275.11 2101.85 1274.11 L2101.85 1278.05 Q2100.07 1278.88 2098.15 1279.3 Q2096.25 1279.71 2094.1 1279.71 Q2088.24 1279.71 2084.79 1276.03 Q2081.35 1272.35 2081.35 1266.1 Q2081.35 1259.76 2084.82 1256.13 Q2088.31 1252.49 2094.38 1252.49 Q2096.35 1252.49 2098.22 1252.91 Q2100.1 1253.3 2101.85 1254.11 Z" fill="#000000" fill-rule="evenodd" fill-opacity="1" /><path clip-path="url(#clip540)" d="M2108.82 1268.81 L2108.82 1253.12 L2113.08 1253.12 L2113.08 1268.65 Q2113.08 1272.33 2114.52 1274.18 Q2115.95 1276.01 2118.82 1276.01 Q2122.27 1276.01 2124.26 1273.81 Q2126.28 1271.61 2126.28 1267.81 L2126.28 1253.12 L2130.53 1253.12 L2130.53 1279.04 L2126.28 1279.04 L2126.28 1275.06 Q2124.72 1277.42 2122.66 1278.58 Q2120.63 1279.71 2117.92 1279.71 Q2113.45 1279.71 2111.14 1276.94 Q2108.82 1274.16 2108.82 1268.81 M2119.54 1252.49 L2119.54 1252.49 Z" fill="#000000" fill-rule="evenodd" fill-opacity="1" /><path clip-path="url(#clip540)" d="M2154.33 1257.1 Q2153.61 1256.68 2152.76 1256.5 Q2151.92 1256.29 2150.9 1256.29 Q2147.29 1256.29 2145.35 1258.65 Q2143.43 1260.99 2143.43 1265.38 L2143.43 1279.04 L2139.15 1279.04 L2139.15 1253.12 L2143.43 1253.12 L2143.43 1257.14 Q2144.77 1254.78 2146.92 1253.65 Q2149.08 1252.49 2152.15 1252.49 Q2152.59 1252.49 2153.13 1252.56 Q2153.66 1252.61 2154.31 1252.72 L2154.33 1257.1 Z" fill="#000000" fill-rule="evenodd" fill-opacity="1" /><path clip-path="url(#clip540)" d="M2170.58 1266.01 Q2165.42 1266.01 2163.43 1267.19 Q2161.44 1268.37 2161.44 1271.22 Q2161.44 1273.49 2162.92 1274.83 Q2164.42 1276.15 2166.99 1276.15 Q2170.53 1276.15 2172.66 1273.65 Q2174.82 1271.12 2174.82 1266.96 L2174.82 1266.01 L2170.58 1266.01 M2179.08 1264.25 L2179.08 1279.04 L2174.82 1279.04 L2174.82 1275.11 Q2173.36 1277.47 2171.18 1278.6 Q2169.01 1279.71 2165.86 1279.71 Q2161.88 1279.71 2159.52 1277.49 Q2157.18 1275.25 2157.18 1271.5 Q2157.18 1267.12 2160.09 1264.9 Q2163.03 1262.68 2168.84 1262.68 L2174.82 1262.68 L2174.82 1262.26 Q2174.82 1259.32 2172.87 1257.72 Q2170.95 1256.1 2167.46 1256.1 Q2165.23 1256.1 2163.13 1256.63 Q2161.02 1257.17 2159.08 1258.23 L2159.08 1254.3 Q2161.41 1253.39 2163.61 1252.95 Q2165.81 1252.49 2167.9 1252.49 Q2173.52 1252.49 2176.3 1255.41 Q2179.08 1258.32 2179.08 1264.25 Z" fill="#000000" fill-rule="evenodd" fill-opacity="1" /><path clip-path="url(#clip540)" d="M2206.51 1254.11 L2206.51 1258.09 Q2204.7 1257.1 2202.87 1256.61 Q2201.07 1256.1 2199.21 1256.1 Q2195.07 1256.1 2192.78 1258.74 Q2190.49 1261.36 2190.49 1266.1 Q2190.49 1270.85 2192.78 1273.49 Q2195.07 1276.1 2199.21 1276.1 Q2201.07 1276.1 2202.87 1275.62 Q2204.7 1275.11 2206.51 1274.11 L2206.51 1278.05 Q2204.72 1278.88 2202.8 1279.3 Q2200.9 1279.71 2198.75 1279.71 Q2192.9 1279.71 2189.45 1276.03 Q2186 1272.35 2186 1266.1 Q2186 1259.76 2189.47 1256.13 Q2192.96 1252.49 2199.03 1252.49 Q2201 1252.49 2202.87 1252.91 Q2204.75 1253.3 2206.51 1254.11 Z" fill="#000000" fill-rule="evenodd" fill-opacity="1" /><path clip-path="url(#clip540)" d="M2224.7 1281.45 Q2222.9 1286.08 2221.18 1287.49 Q2219.47 1288.9 2216.6 1288.9 L2213.2 1288.9 L2213.2 1285.34 L2215.7 1285.34 Q2217.46 1285.34 2218.43 1284.5 Q2219.4 1283.67 2220.58 1280.57 L2221.34 1278.62 L2210.86 1253.12 L2215.37 1253.12 L2223.47 1273.39 L2231.58 1253.12 L2236.09 1253.12 L2224.7 1281.45 Z" fill="#000000" fill-rule="evenodd" fill-opacity="1" /><polyline clip-path="url(#clip540)" style="stroke:#e26f46; stroke-linecap:butt; stroke-linejoin:round; stroke-width:4; stroke-opacity:1; fill:none" points="
  1863.13,1313.6 2003.13,1313.6 
  "/>
<path clip-path="url(#clip540)" d="M2044.89 1305.72 L2044.89 1309.75 Q2043.08 1308.82 2041.14 1308.36 Q2039.19 1307.9 2037.11 1307.9 Q2033.94 1307.9 2032.34 1308.87 Q2030.77 1309.84 2030.77 1311.78 Q2030.77 1313.27 2031.9 1314.12 Q2033.04 1314.96 2036.46 1315.72 L2037.92 1316.04 Q2042.46 1317.02 2044.35 1318.8 Q2046.28 1320.56 2046.28 1323.73 Q2046.28 1327.34 2043.41 1329.45 Q2040.56 1331.55 2035.56 1331.55 Q2033.48 1331.55 2031.21 1331.14 Q2028.96 1330.74 2026.46 1329.93 L2026.46 1325.53 Q2028.82 1326.76 2031.11 1327.39 Q2033.41 1327.99 2035.65 1327.99 Q2038.66 1327.99 2040.28 1326.97 Q2041.9 1325.93 2041.9 1324.05 Q2041.9 1322.32 2040.72 1321.39 Q2039.56 1320.46 2035.6 1319.61 L2034.12 1319.26 Q2030.16 1318.43 2028.41 1316.71 Q2026.65 1314.98 2026.65 1311.97 Q2026.65 1308.31 2029.24 1306.32 Q2031.83 1304.33 2036.6 1304.33 Q2038.96 1304.33 2041.04 1304.68 Q2043.13 1305.03 2044.89 1305.72 Z" fill="#000000" fill-rule="evenodd" fill-opacity="1" /><path clip-path="url(#clip540)" d="M2057.27 1297.59 L2057.27 1304.96 L2066.04 1304.96 L2066.04 1308.27 L2057.27 1308.27 L2057.27 1322.34 Q2057.27 1325.51 2058.13 1326.41 Q2059.01 1327.32 2061.67 1327.32 L2066.04 1327.32 L2066.04 1330.88 L2061.67 1330.88 Q2056.74 1330.88 2054.86 1329.05 Q2052.99 1327.2 2052.99 1322.34 L2052.99 1308.27 L2049.86 1308.27 L2049.86 1304.96 L2052.99 1304.96 L2052.99 1297.59 L2057.27 1297.59 Z" fill="#000000" fill-rule="evenodd" fill-opacity="1" /><path clip-path="url(#clip540)" d="M2083.43 1317.85 Q2078.27 1317.85 2076.28 1319.03 Q2074.28 1320.21 2074.28 1323.06 Q2074.28 1325.33 2075.77 1326.67 Q2077.27 1327.99 2079.84 1327.99 Q2083.38 1327.99 2085.51 1325.49 Q2087.66 1322.96 2087.66 1318.8 L2087.66 1317.85 L2083.43 1317.85 M2091.92 1316.09 L2091.92 1330.88 L2087.66 1330.88 L2087.66 1326.95 Q2086.21 1329.31 2084.03 1330.44 Q2081.85 1331.55 2078.71 1331.55 Q2074.72 1331.55 2072.36 1329.33 Q2070.03 1327.09 2070.03 1323.34 Q2070.03 1318.96 2072.94 1316.74 Q2075.88 1314.52 2081.69 1314.52 L2087.66 1314.52 L2087.66 1314.1 Q2087.66 1311.16 2085.72 1309.56 Q2083.8 1307.94 2080.3 1307.94 Q2078.08 1307.94 2075.97 1308.47 Q2073.87 1309.01 2071.92 1310.07 L2071.92 1306.14 Q2074.26 1305.23 2076.46 1304.79 Q2078.66 1304.33 2080.74 1304.33 Q2086.37 1304.33 2089.15 1307.25 Q2091.92 1310.16 2091.92 1316.09 Z" fill="#000000" fill-rule="evenodd" fill-opacity="1" /><path clip-path="url(#clip540)" d="M2119.31 1317.94 Q2119.31 1313.24 2117.36 1310.58 Q2115.44 1307.9 2112.06 1307.9 Q2108.68 1307.9 2106.74 1310.58 Q2104.82 1313.24 2104.82 1317.94 Q2104.82 1322.64 2106.74 1325.33 Q2108.68 1327.99 2112.06 1327.99 Q2115.44 1327.99 2117.36 1325.33 Q2119.31 1322.64 2119.31 1317.94 M2104.82 1308.89 Q2106.16 1306.58 2108.2 1305.47 Q2110.26 1304.33 2113.1 1304.33 Q2117.83 1304.33 2120.77 1308.08 Q2123.73 1311.83 2123.73 1317.94 Q2123.73 1324.05 2120.77 1327.8 Q2117.83 1331.55 2113.1 1331.55 Q2110.26 1331.55 2108.2 1330.44 Q2106.16 1329.31 2104.82 1326.99 L2104.82 1330.88 L2100.53 1330.88 L2100.53 1294.86 L2104.82 1294.86 L2104.82 1308.89 Z" fill="#000000" fill-rule="evenodd" fill-opacity="1" /><path clip-path="url(#clip540)" d="M2130.79 1304.96 L2135.05 1304.96 L2135.05 1330.88 L2130.79 1330.88 L2130.79 1304.96 M2130.79 1294.86 L2135.05 1294.86 L2135.05 1300.26 L2130.79 1300.26 L2130.79 1294.86 Z" fill="#000000" fill-rule="evenodd" fill-opacity="1" /><path clip-path="url(#clip540)" d="M2143.96 1294.86 L2148.22 1294.86 L2148.22 1330.88 L2143.96 1330.88 L2143.96 1294.86 Z" fill="#000000" fill-rule="evenodd" fill-opacity="1" /><path clip-path="url(#clip540)" d="M2157.13 1304.96 L2161.39 1304.96 L2161.39 1330.88 L2157.13 1330.88 L2157.13 1304.96 M2157.13 1294.86 L2161.39 1294.86 L2161.39 1300.26 L2157.13 1300.26 L2157.13 1294.86 Z" fill="#000000" fill-rule="evenodd" fill-opacity="1" /><path clip-path="url(#clip540)" d="M2174.52 1297.59 L2174.52 1304.96 L2183.29 1304.96 L2183.29 1308.27 L2174.52 1308.27 L2174.52 1322.34 Q2174.52 1325.51 2175.37 1326.41 Q2176.25 1327.32 2178.91 1327.32 L2183.29 1327.32 L2183.29 1330.88 L2178.91 1330.88 Q2173.98 1330.88 2172.11 1329.05 Q2170.23 1327.2 2170.23 1322.34 L2170.23 1308.27 L2167.11 1308.27 L2167.11 1304.96 L2170.23 1304.96 L2170.23 1297.59 L2174.52 1297.59 Z" fill="#000000" fill-rule="evenodd" fill-opacity="1" /><path clip-path="url(#clip540)" d="M2199.68 1333.29 Q2197.87 1337.92 2196.16 1339.33 Q2194.45 1340.74 2191.58 1340.74 L2188.17 1340.74 L2188.17 1337.18 L2190.67 1337.18 Q2192.43 1337.18 2193.4 1336.34 Q2194.38 1335.51 2195.56 1332.41 L2196.32 1330.46 L2185.84 1304.96 L2190.35 1304.96 L2198.45 1325.23 L2206.55 1304.96 L2211.07 1304.96 L2199.68 1333.29 Z" fill="#000000" fill-rule="evenodd" fill-opacity="1" /></svg>
