<?xml version="1.0" encoding="utf-8"?>
<svg xmlns="http://www.w3.org/2000/svg" xmlns:xlink="http://www.w3.org/1999/xlink" width="600" height="400" viewBox="0 0 2400 1600">
<defs>
  <clipPath id="clip370">
    <rect x="0" y="0" width="2400" height="1600"/>
  </clipPath>
</defs>
<path clip-path="url(#clip370)" d="
M0 1600 L2400 1600 L2400 0 L0 0  Z
  " fill="#ffffff" fill-rule="evenodd" fill-opacity="1"/>
<defs>
  <clipPath id="clip371">
    <rect x="480" y="0" width="1681" height="1600"/>
  </clipPath>
</defs>
<path clip-path="url(#clip370)" d="
M193.936 1486.45 L2352.76 1486.45 L2352.76 47.2441 L193.936 47.2441  Z
  " fill="#ffffff" fill-rule="evenodd" fill-opacity="1"/>
<defs>
  <clipPath id="clip372">
    <rect x="193" y="47" width="2160" height="1440"/>
  </clipPath>
</defs>
<polyline clip-path="url(#clip372)" style="stroke:#000000; stroke-linecap:butt; stroke-linejoin:round; stroke-width:2; stroke-opacity:0.1; fill:none" points="
  255.035,1486.45 255.035,47.2441 
  "/>
<polyline clip-path="url(#clip372)" style="stroke:#000000; stroke-linecap:butt; stroke-linejoin:round; stroke-width:2; stroke-opacity:0.1; fill:none" points="
  764.19,1486.45 764.19,47.2441 
  "/>
<polyline clip-path="url(#clip372)" style="stroke:#000000; stroke-linecap:butt; stroke-linejoin:round; stroke-width:2; stroke-opacity:0.1; fill:none" points="
  1273.35,1486.45 1273.35,47.2441 
  "/>
<polyline clip-path="url(#clip372)" style="stroke:#000000; stroke-linecap:butt; stroke-linejoin:round; stroke-width:2; stroke-opacity:0.1; fill:none" points="
  1782.5,1486.45 1782.5,47.2441 
  "/>
<polyline clip-path="url(#clip372)" style="stroke:#000000; stroke-linecap:butt; stroke-linejoin:round; stroke-width:2; stroke-opacity:0.1; fill:none" points="
  2291.66,1486.45 2291.66,47.2441 
  "/>
<polyline clip-path="url(#clip370)" style="stroke:#000000; stroke-linecap:butt; stroke-linejoin:round; stroke-width:4; stroke-opacity:1; fill:none" points="
  193.936,1486.45 2352.76,1486.45 
  "/>
<polyline clip-path="url(#clip370)" style="stroke:#000000; stroke-linecap:butt; stroke-linejoin:round; stroke-width:4; stroke-opacity:1; fill:none" points="
  255.035,1486.45 255.035,1467.55 
  "/>
<polyline clip-path="url(#clip370)" style="stroke:#000000; stroke-linecap:butt; stroke-linejoin:round; stroke-width:4; stroke-opacity:1; fill:none" points="
  764.19,1486.45 764.19,1467.55 
  "/>
<polyline clip-path="url(#clip370)" style="stroke:#000000; stroke-linecap:butt; stroke-linejoin:round; stroke-width:4; stroke-opacity:1; fill:none" points="
  1273.35,1486.45 1273.35,1467.55 
  "/>
<polyline clip-path="url(#clip370)" style="stroke:#000000; stroke-linecap:butt; stroke-linejoin:round; stroke-width:4; stroke-opacity:1; fill:none" points="
  1782.5,1486.45 1782.5,1467.55 
  "/>
<polyline clip-path="url(#clip370)" style="stroke:#000000; stroke-linecap:butt; stroke-linejoin:round; stroke-width:4; stroke-opacity:1; fill:none" points="
  2291.66,1486.45 2291.66,1467.55 
  "/>
<path clip-path="url(#clip370)" d="M224.977 1532.02 L254.653 1532.02 L254.653 1535.95 L224.977 1535.95 L224.977 1532.02 Z" fill="#000000" fill-rule="evenodd" fill-opacity="1" /><path clip-path="url(#clip370)" d="M268.773 1544.91 L285.092 1544.91 L285.092 1548.85 L263.148 1548.85 L263.148 1544.91 Q265.81 1542.16 270.393 1537.53 Q275 1532.88 276.18 1531.53 Q278.426 1529.01 279.305 1527.27 Q280.208 1525.51 280.208 1523.82 Q280.208 1521.07 278.264 1519.33 Q276.342 1517.6 273.241 1517.6 Q271.042 1517.6 268.588 1518.36 Q266.157 1519.13 263.38 1520.68 L263.38 1515.95 Q266.204 1514.82 268.657 1514.24 Q271.111 1513.66 273.148 1513.66 Q278.518 1513.66 281.713 1516.35 Q284.907 1519.03 284.907 1523.52 Q284.907 1525.65 284.097 1527.57 Q283.31 1529.47 281.204 1532.07 Q280.625 1532.74 277.523 1535.95 Q274.421 1539.15 268.773 1544.91 Z" fill="#000000" fill-rule="evenodd" fill-opacity="1" /><path clip-path="url(#clip370)" d="M733.947 1532.02 L763.623 1532.02 L763.623 1535.95 L733.947 1535.95 L733.947 1532.02 Z" fill="#000000" fill-rule="evenodd" fill-opacity="1" /><path clip-path="url(#clip370)" d="M774.526 1544.91 L782.165 1544.91 L782.165 1518.55 L773.855 1520.21 L773.855 1515.95 L782.118 1514.29 L786.794 1514.29 L786.794 1544.91 L794.433 1544.91 L794.433 1548.85 L774.526 1548.85 L774.526 1544.91 Z" fill="#000000" fill-rule="evenodd" fill-opacity="1" /><path clip-path="url(#clip370)" d="M1273.35 1517.37 Q1269.73 1517.37 1267.91 1520.93 Q1266.1 1524.47 1266.1 1531.6 Q1266.1 1538.71 1267.91 1542.27 Q1269.73 1545.82 1273.35 1545.82 Q1276.98 1545.82 1278.79 1542.27 Q1280.61 1538.71 1280.61 1531.6 Q1280.61 1524.47 1278.79 1520.93 Q1276.98 1517.37 1273.35 1517.37 M1273.35 1513.66 Q1279.16 1513.66 1282.21 1518.27 Q1285.29 1522.85 1285.29 1531.6 Q1285.29 1540.33 1282.21 1544.94 Q1279.16 1549.52 1273.35 1549.52 Q1267.54 1549.52 1264.46 1544.94 Q1261.4 1540.33 1261.4 1531.6 Q1261.4 1522.85 1264.46 1518.27 Q1267.54 1513.66 1273.35 1513.66 Z" fill="#000000" fill-rule="evenodd" fill-opacity="1" /><path clip-path="url(#clip370)" d="M1772.88 1544.91 L1780.52 1544.91 L1780.52 1518.55 L1772.21 1520.21 L1772.21 1515.95 L1780.48 1514.29 L1785.15 1514.29 L1785.15 1544.91 L1792.79 1544.91 L1792.79 1548.85 L1772.88 1548.85 L1772.88 1544.91 Z" fill="#000000" fill-rule="evenodd" fill-opacity="1" /><path clip-path="url(#clip370)" d="M2286.31 1544.91 L2302.63 1544.91 L2302.63 1548.85 L2280.69 1548.85 L2280.69 1544.91 Q2283.35 1542.16 2287.93 1537.53 Q2292.54 1532.88 2293.72 1531.53 Q2295.96 1529.01 2296.84 1527.27 Q2297.75 1525.51 2297.75 1523.82 Q2297.75 1521.07 2295.8 1519.33 Q2293.88 1517.6 2290.78 1517.6 Q2288.58 1517.6 2286.12 1518.36 Q2283.69 1519.13 2280.92 1520.68 L2280.92 1515.95 Q2283.74 1514.82 2286.19 1514.24 Q2288.65 1513.66 2290.69 1513.66 Q2296.06 1513.66 2299.25 1516.35 Q2302.44 1519.03 2302.44 1523.52 Q2302.44 1525.65 2301.63 1527.57 Q2300.85 1529.47 2298.74 1532.07 Q2298.16 1532.74 2295.06 1535.95 Q2291.96 1539.15 2286.31 1544.91 Z" fill="#000000" fill-rule="evenodd" fill-opacity="1" /><polyline clip-path="url(#clip372)" style="stroke:#000000; stroke-linecap:butt; stroke-linejoin:round; stroke-width:2; stroke-opacity:0.1; fill:none" points="
  193.936,1469.42 2352.76,1469.42 
  "/>
<polyline clip-path="url(#clip372)" style="stroke:#000000; stroke-linecap:butt; stroke-linejoin:round; stroke-width:2; stroke-opacity:0.1; fill:none" points="
  193.936,1139.94 2352.76,1139.94 
  "/>
<polyline clip-path="url(#clip372)" style="stroke:#000000; stroke-linecap:butt; stroke-linejoin:round; stroke-width:2; stroke-opacity:0.1; fill:none" points="
  193.936,810.453 2352.76,810.453 
  "/>
<polyline clip-path="url(#clip372)" style="stroke:#000000; stroke-linecap:butt; stroke-linejoin:round; stroke-width:2; stroke-opacity:0.1; fill:none" points="
  193.936,480.969 2352.76,480.969 
  "/>
<polyline clip-path="url(#clip372)" style="stroke:#000000; stroke-linecap:butt; stroke-linejoin:round; stroke-width:2; stroke-opacity:0.1; fill:none" points="
  193.936,151.485 2352.76,151.485 
  "/>
<polyline clip-path="url(#clip370)" style="stroke:#000000; stroke-linecap:butt; stroke-linejoin:round; stroke-width:4; stroke-opacity:1; fill:none" points="
  193.936,1486.45 193.936,47.2441 
  "/>
<polyline clip-path="url(#clip370)" style="stroke:#000000; stroke-linecap:butt; stroke-linejoin:round; stroke-width:4; stroke-opacity:1; fill:none" points="
  193.936,1469.42 212.834,1469.42 
  "/>
<polyline clip-path="url(#clip370)" style="stroke:#000000; stroke-linecap:butt; stroke-linejoin:round; stroke-width:4; stroke-opacity:1; fill:none" points="
  193.936,1139.94 212.834,1139.94 
  "/>
<polyline clip-path="url(#clip370)" style="stroke:#000000; stroke-linecap:butt; stroke-linejoin:round; stroke-width:4; stroke-opacity:1; fill:none" points="
  193.936,810.453 212.834,810.453 
  "/>
<polyline clip-path="url(#clip370)" style="stroke:#000000; stroke-linecap:butt; stroke-linejoin:round; stroke-width:4; stroke-opacity:1; fill:none" points="
  193.936,480.969 212.834,480.969 
  "/>
<polyline clip-path="url(#clip370)" style="stroke:#000000; stroke-linecap:butt; stroke-linejoin:round; stroke-width:4; stroke-opacity:1; fill:none" points="
  193.936,151.485 212.834,151.485 
  "/>
<path clip-path="url(#clip370)" d="M50.9921 1469.87 L80.6679 1469.87 L80.6679 1473.81 L50.9921 1473.81 L50.9921 1469.87 Z" fill="#000000" fill-rule="evenodd" fill-opacity="1" /><path clip-path="url(#clip370)" d="M91.5706 1482.77 L99.2095 1482.77 L99.2095 1456.4 L90.8993 1458.07 L90.8993 1453.81 L99.1632 1452.14 L103.839 1452.14 L103.839 1482.77 L111.478 1482.77 L111.478 1486.7 L91.5706 1486.7 L91.5706 1482.77 Z" fill="#000000" fill-rule="evenodd" fill-opacity="1" /><path clip-path="url(#clip370)" d="M120.922 1480.82 L125.807 1480.82 L125.807 1486.7 L120.922 1486.7 L120.922 1480.82 Z" fill="#000000" fill-rule="evenodd" fill-opacity="1" /><path clip-path="url(#clip370)" d="M145.992 1455.22 Q142.381 1455.22 140.552 1458.78 Q138.746 1462.33 138.746 1469.46 Q138.746 1476.56 140.552 1480.13 Q142.381 1483.67 145.992 1483.67 Q149.626 1483.67 151.431 1480.13 Q153.26 1476.56 153.26 1469.46 Q153.26 1462.33 151.431 1458.78 Q149.626 1455.22 145.992 1455.22 M145.992 1451.52 Q151.802 1451.52 154.857 1456.12 Q157.936 1460.71 157.936 1469.46 Q157.936 1478.18 154.857 1482.79 Q151.802 1487.37 145.992 1487.37 Q140.181 1487.37 137.103 1482.79 Q134.047 1478.18 134.047 1469.46 Q134.047 1460.71 137.103 1456.12 Q140.181 1451.52 145.992 1451.52 Z" fill="#000000" fill-rule="evenodd" fill-opacity="1" /><path clip-path="url(#clip370)" d="M51.9875 1140.39 L81.6633 1140.39 L81.6633 1144.32 L51.9875 1144.32 L51.9875 1140.39 Z" fill="#000000" fill-rule="evenodd" fill-opacity="1" /><path clip-path="url(#clip370)" d="M101.756 1125.74 Q98.1447 1125.74 96.316 1129.3 Q94.5104 1132.84 94.5104 1139.97 Q94.5104 1147.08 96.316 1150.64 Q98.1447 1154.18 101.756 1154.18 Q105.39 1154.18 107.196 1150.64 Q109.024 1147.08 109.024 1139.97 Q109.024 1132.84 107.196 1129.3 Q105.39 1125.74 101.756 1125.74 M101.756 1122.03 Q107.566 1122.03 110.621 1126.64 Q113.7 1131.22 113.7 1139.97 Q113.7 1148.7 110.621 1153.3 Q107.566 1157.89 101.756 1157.89 Q95.9456 1157.89 92.8669 1153.3 Q89.8114 1148.7 89.8114 1139.97 Q89.8114 1131.22 92.8669 1126.64 Q95.9456 1122.03 101.756 1122.03 Z" fill="#000000" fill-rule="evenodd" fill-opacity="1" /><path clip-path="url(#clip370)" d="M121.918 1151.34 L126.802 1151.34 L126.802 1157.22 L121.918 1157.22 L121.918 1151.34 Z" fill="#000000" fill-rule="evenodd" fill-opacity="1" /><path clip-path="url(#clip370)" d="M137.033 1122.66 L155.39 1122.66 L155.39 1126.59 L141.316 1126.59 L141.316 1135.06 Q142.334 1134.72 143.353 1134.55 Q144.371 1134.37 145.39 1134.37 Q151.177 1134.37 154.556 1137.54 Q157.936 1140.71 157.936 1146.13 Q157.936 1151.71 154.464 1154.81 Q150.992 1157.89 144.672 1157.89 Q142.496 1157.89 140.228 1157.52 Q137.982 1157.15 135.575 1156.41 L135.575 1151.71 Q137.658 1152.84 139.881 1153.4 Q142.103 1153.95 144.58 1153.95 Q148.584 1153.95 150.922 1151.85 Q153.26 1149.74 153.26 1146.13 Q153.26 1142.52 150.922 1140.41 Q148.584 1138.3 144.58 1138.3 Q142.705 1138.3 140.83 1138.72 Q138.978 1139.14 137.033 1140.02 L137.033 1122.66 Z" fill="#000000" fill-rule="evenodd" fill-opacity="1" /><path clip-path="url(#clip370)" d="M100.76 796.251 Q97.1493 796.251 95.3206 799.816 Q93.515 803.358 93.515 810.487 Q93.515 817.594 95.3206 821.158 Q97.1493 824.7 100.76 824.7 Q104.395 824.7 106.2 821.158 Q108.029 817.594 108.029 810.487 Q108.029 803.358 106.2 799.816 Q104.395 796.251 100.76 796.251 M100.76 792.548 Q106.571 792.548 109.626 797.154 Q112.705 801.737 112.705 810.487 Q112.705 819.214 109.626 823.821 Q106.571 828.404 100.76 828.404 Q94.9502 828.404 91.8715 823.821 Q88.816 819.214 88.816 810.487 Q88.816 801.737 91.8715 797.154 Q94.9502 792.548 100.76 792.548 Z" fill="#000000" fill-rule="evenodd" fill-opacity="1" /><path clip-path="url(#clip370)" d="M120.922 821.853 L125.807 821.853 L125.807 827.733 L120.922 827.733 L120.922 821.853 Z" fill="#000000" fill-rule="evenodd" fill-opacity="1" /><path clip-path="url(#clip370)" d="M145.992 796.251 Q142.381 796.251 140.552 799.816 Q138.746 803.358 138.746 810.487 Q138.746 817.594 140.552 821.158 Q142.381 824.7 145.992 824.7 Q149.626 824.7 151.431 821.158 Q153.26 817.594 153.26 810.487 Q153.26 803.358 151.431 799.816 Q149.626 796.251 145.992 796.251 M145.992 792.548 Q151.802 792.548 154.857 797.154 Q157.936 801.737 157.936 810.487 Q157.936 819.214 154.857 823.821 Q151.802 828.404 145.992 828.404 Q140.181 828.404 137.103 823.821 Q134.047 819.214 134.047 810.487 Q134.047 801.737 137.103 797.154 Q140.181 792.548 145.992 792.548 Z" fill="#000000" fill-rule="evenodd" fill-opacity="1" /><path clip-path="url(#clip370)" d="M101.756 466.767 Q98.1447 466.767 96.316 470.332 Q94.5104 473.874 94.5104 481.003 Q94.5104 488.11 96.316 491.675 Q98.1447 495.216 101.756 495.216 Q105.39 495.216 107.196 491.675 Q109.024 488.11 109.024 481.003 Q109.024 473.874 107.196 470.332 Q105.39 466.767 101.756 466.767 M101.756 463.064 Q107.566 463.064 110.621 467.67 Q113.7 472.253 113.7 481.003 Q113.7 489.73 110.621 494.337 Q107.566 498.92 101.756 498.92 Q95.9456 498.92 92.8669 494.337 Q89.8114 489.73 89.8114 481.003 Q89.8114 472.253 92.8669 467.67 Q95.9456 463.064 101.756 463.064 Z" fill="#000000" fill-rule="evenodd" fill-opacity="1" /><path clip-path="url(#clip370)" d="M121.918 492.369 L126.802 492.369 L126.802 498.249 L121.918 498.249 L121.918 492.369 Z" fill="#000000" fill-rule="evenodd" fill-opacity="1" /><path clip-path="url(#clip370)" d="M137.033 463.689 L155.39 463.689 L155.39 467.624 L141.316 467.624 L141.316 476.096 Q142.334 475.749 143.353 475.587 Q144.371 475.402 145.39 475.402 Q151.177 475.402 154.556 478.573 Q157.936 481.744 157.936 487.161 Q157.936 492.739 154.464 495.841 Q150.992 498.92 144.672 498.92 Q142.496 498.92 140.228 498.55 Q137.982 498.179 135.575 497.438 L135.575 492.739 Q137.658 493.874 139.881 494.429 Q142.103 494.985 144.58 494.985 Q148.584 494.985 150.922 492.878 Q153.26 490.772 153.26 487.161 Q153.26 483.55 150.922 481.443 Q148.584 479.337 144.58 479.337 Q142.705 479.337 140.83 479.753 Q138.978 480.17 137.033 481.05 L137.033 463.689 Z" fill="#000000" fill-rule="evenodd" fill-opacity="1" /><path clip-path="url(#clip370)" d="M91.5706 164.83 L99.2095 164.83 L99.2095 138.464 L90.8993 140.131 L90.8993 135.871 L99.1632 134.205 L103.839 134.205 L103.839 164.83 L111.478 164.83 L111.478 168.765 L91.5706 168.765 L91.5706 164.83 Z" fill="#000000" fill-rule="evenodd" fill-opacity="1" /><path clip-path="url(#clip370)" d="M120.922 162.885 L125.807 162.885 L125.807 168.765 L120.922 168.765 L120.922 162.885 Z" fill="#000000" fill-rule="evenodd" fill-opacity="1" /><path clip-path="url(#clip370)" d="M145.992 137.283 Q142.381 137.283 140.552 140.848 Q138.746 144.39 138.746 151.519 Q138.746 158.626 140.552 162.191 Q142.381 165.732 145.992 165.732 Q149.626 165.732 151.431 162.191 Q153.26 158.626 153.26 151.519 Q153.26 144.39 151.431 140.848 Q149.626 137.283 145.992 137.283 M145.992 133.58 Q151.802 133.58 154.857 138.186 Q157.936 142.769 157.936 151.519 Q157.936 160.246 154.857 164.853 Q151.802 169.436 145.992 169.436 Q140.181 169.436 137.103 164.853 Q134.047 160.246 134.047 151.519 Q134.047 142.769 137.103 138.186 Q140.181 133.58 145.992 133.58 Z" fill="#000000" fill-rule="evenodd" fill-opacity="1" /><polyline clip-path="url(#clip372)" style="stroke:#009af9; stroke-linecap:butt; stroke-linejoin:round; stroke-width:12; stroke-opacity:1; fill:none" points="
  255.035,1445.72 481.326,1405.58 707.617,1326.55 933.909,1173.62 1160.2,920.503 1386.49,613.189 1612.78,360.073 1839.07,207.145 2065.37,128.114 2291.66,87.9763 
  
  "/>
<circle clip-path="url(#clip372)" cx="255.035" cy="1445.72" r="14.4" fill="#009af9" fill-rule="evenodd" fill-opacity="1" stroke="#000000" stroke-opacity="1" stroke-width="3.2"/>
<circle clip-path="url(#clip372)" cx="481.326" cy="1405.58" r="14.4" fill="#009af9" fill-rule="evenodd" fill-opacity="1" stroke="#000000" stroke-opacity="1" stroke-width="3.2"/>
<circle clip-path="url(#clip372)" cx="707.617" cy="1326.55" r="14.4" fill="#009af9" fill-rule="evenodd" fill-opacity="1" stroke="#000000" stroke-opacity="1" stroke-width="3.2"/>
<circle clip-path="url(#clip372)" cx="933.909" cy="1173.62" r="14.4" fill="#009af9" fill-rule="evenodd" fill-opacity="1" stroke="#000000" stroke-opacity="1" stroke-width="3.2"/>
<circle clip-path="url(#clip372)" cx="1160.2" cy="920.503" r="14.4" fill="#009af9" fill-rule="evenodd" fill-opacity="1" stroke="#000000" stroke-opacity="1" stroke-width="3.2"/>
<circle clip-path="url(#clip372)" cx="1386.49" cy="613.189" r="14.4" fill="#009af9" fill-rule="evenodd" fill-opacity="1" stroke="#000000" stroke-opacity="1" stroke-width="3.2"/>
<circle clip-path="url(#clip372)" cx="1612.78" cy="360.073" r="14.4" fill="#009af9" fill-rule="evenodd" fill-opacity="1" stroke="#000000" stroke-opacity="1" stroke-width="3.2"/>
<circle clip-path="url(#clip372)" cx="1839.07" cy="207.145" r="14.4" fill="#009af9" fill-rule="evenodd" fill-opacity="1" stroke="#000000" stroke-opacity="1" stroke-width="3.2"/>
<circle clip-path="url(#clip372)" cx="2065.37" cy="128.114" r="14.4" fill="#009af9" fill-rule="evenodd" fill-opacity="1" stroke="#000000" stroke-opacity="1" stroke-width="3.2"/>
<circle clip-path="url(#clip372)" cx="2291.66" cy="87.9763" r="14.4" fill="#009af9" fill-rule="evenodd" fill-opacity="1" stroke="#000000" stroke-opacity="1" stroke-width="3.2"/>
<polyline clip-path="url(#clip372)" style="stroke:#e26f46; stroke-linecap:butt; stroke-linejoin:round; stroke-width:12; stroke-opacity:1; fill:none" points="
  255.035,1445.72 261.664,1445.1 268.294,1444.47 329.596,1437.84 390.898,1429.51 427.737,1423.51 464.577,1416.64 495.725,1410.09 526.872,1402.75 560.707,1393.82 
  594.542,1383.77 625.735,1373.42 656.928,1361.93 690.37,1348.23 723.812,1332.98 762.558,1313.2 801.304,1291 835.737,1269.09 870.17,1245.01 900.364,1222.06 
  930.558,1197.34 963.478,1168.36 996.398,1137.27 1029.51,1103.93 1062.63,1068.6 1099.24,1027.39 1135.86,984.193 1170.69,941.537 1205.53,897.706 1277.98,804.461 
  1338.96,726.001 1376.19,679.135 1413.41,633.612 1447.51,593.437 1481.62,554.993 1513.11,521.209 1544.61,489.21 1576.51,458.703 1608.42,430.168 1644.17,400.552 
  1679.93,373.411 1712.33,350.903 1744.73,330.305 1781.83,308.955 1818.92,289.844 1853.27,274.004 1887.62,259.811 1921.48,247.3 1955.34,236.133 1988.22,226.461 
  2021.1,217.834 2054.8,209.972 2088.51,203.003 2125.44,196.283 2162.36,190.413 2216,183.195 2269.65,177.288 2280.65,176.217 2291.66,175.189 
  "/>
<path clip-path="url(#clip370)" d="
M265.897 250.738 L558.196 250.738 L558.196 95.2176 L265.897 95.2176  Z
  " fill="#ffffff" fill-rule="evenodd" fill-opacity="1"/>
<polyline clip-path="url(#clip370)" style="stroke:#000000; stroke-linecap:butt; stroke-linejoin:round; stroke-width:4; stroke-opacity:1; fill:none" points="
  265.897,250.738 558.196,250.738 558.196,95.2176 265.897,95.2176 265.897,250.738 
  "/>
<polyline clip-path="url(#clip370)" style="stroke:#009af9; stroke-linecap:butt; stroke-linejoin:round; stroke-width:4; stroke-opacity:1; fill:none" points="
  289.884,147.058 433.805,147.058 
  "/>
<circle clip-path="url(#clip370)" cx="361.844" cy="147.058" r="23.04" fill="#009af9" fill-rule="evenodd" fill-opacity="1" stroke="#000000" stroke-opacity="1" stroke-width="5.12"/>
<path clip-path="url(#clip370)" d="M471.634 166.745 Q469.829 171.375 468.116 172.787 Q466.403 174.199 463.532 174.199 L460.13 174.199 L460.13 170.634 L462.63 170.634 Q464.389 170.634 465.361 169.8 Q466.333 168.967 467.514 165.865 L468.278 163.921 L457.792 138.412 L462.306 138.412 L470.407 158.689 L478.509 138.412 L483.023 138.412 L471.634 166.745 Z" fill="#000000" fill-rule="evenodd" fill-opacity="1" /><path clip-path="url(#clip370)" d="M490.315 160.402 L497.954 160.402 L497.954 134.037 L489.643 135.703 L489.643 131.444 L497.907 129.778 L502.583 129.778 L502.583 160.402 L510.222 160.402 L510.222 164.338 L490.315 164.338 L490.315 160.402 Z" fill="#000000" fill-rule="evenodd" fill-opacity="1" /><polyline clip-path="url(#clip370)" style="stroke:#e26f46; stroke-linecap:butt; stroke-linejoin:round; stroke-width:4; stroke-opacity:1; fill:none" points="
  289.884,198.898 433.805,198.898 
  "/>
<path clip-path="url(#clip370)" d="M471.634 218.585 Q469.829 223.215 468.116 224.627 Q466.403 226.039 463.532 226.039 L460.13 226.039 L460.13 222.474 L462.63 222.474 Q464.389 222.474 465.361 221.64 Q466.333 220.807 467.514 217.705 L468.278 215.761 L457.792 190.252 L462.306 190.252 L470.407 210.529 L478.509 190.252 L483.023 190.252 L471.634 218.585 Z" fill="#000000" fill-rule="evenodd" fill-opacity="1" /><path clip-path="url(#clip370)" d="M493.532 212.242 L509.852 212.242 L509.852 216.178 L487.907 216.178 L487.907 212.242 Q490.569 209.488 495.153 204.858 Q499.759 200.205 500.94 198.863 Q503.185 196.34 504.065 194.604 Q504.967 192.844 504.967 191.155 Q504.967 188.4 503.023 186.664 Q501.102 184.928 498 184.928 Q495.801 184.928 493.347 185.692 Q490.917 186.455 488.139 188.006 L488.139 183.284 Q490.963 182.15 493.417 181.571 Q495.87 180.993 497.907 180.993 Q503.278 180.993 506.472 183.678 Q509.666 186.363 509.666 190.854 Q509.666 192.983 508.856 194.905 Q508.069 196.803 505.963 199.395 Q505.384 200.067 502.282 203.284 Q499.18 206.479 493.532 212.242 Z" fill="#000000" fill-rule="evenodd" fill-opacity="1" /></svg>
