<?xml version="1.0" encoding="utf-8"?>
<svg xmlns="http://www.w3.org/2000/svg" xmlns:xlink="http://www.w3.org/1999/xlink" width="600" height="400" viewBox="0 0 2400 1600">
<defs>
  <clipPath id="clip360">
    <rect x="0" y="0" width="2400" height="1600"/>
  </clipPath>
</defs>
<path clip-path="url(#clip360)" d="
M0 1600 L2400 1600 L2400 0 L0 0  Z
  " fill="#ffffff" fill-rule="evenodd" fill-opacity="1"/>
<defs>
  <clipPath id="clip361">
    <rect x="480" y="0" width="1681" height="1600"/>
  </clipPath>
</defs>
<path clip-path="url(#clip360)" d="
M193.936 1486.45 L2352.76 1486.45 L2352.76 47.2441 L193.936 47.2441  Z
  " fill="#ffffff" fill-rule="evenodd" fill-opacity="1"/>
<defs>
  <clipPath id="clip362">
    <rect x="193" y="47" width="2160" height="1440"/>
  </clipPath>
</defs>
<polyline clip-path="url(#clip362)" style="stroke:#000000; stroke-linecap:butt; stroke-linejoin:round; stroke-width:2; stroke-opacity:0.1; fill:none" points="
  255.035,1486.45 255.035,47.2441 
  "/>
<polyline clip-path="url(#clip362)" style="stroke:#000000; stroke-linecap:butt; stroke-linejoin:round; stroke-width:2; stroke-opacity:0.1; fill:none" points="
  764.19,1486.45 764.19,47.2441 
  "/>
<polyline clip-path="url(#clip362)" style="stroke:#000000; stroke-linecap:butt; stroke-linejoin:round; stroke-width:2; stroke-opacity:0.1; fill:none" points="
  1273.35,1486.45 1273.35,47.2441 
  "/>
<polyline clip-path="url(#clip362)" style="stroke:#000000; stroke-linecap:butt; stroke-linejoin:round; stroke-width:2; stroke-opacity:0.1; fill:none" points="
  1782.5,1486.45 1782.5,47.2441 
  "/>
<polyline clip-path="url(#clip362)" style="stroke:#000000; stroke-linecap:butt; stroke-linejoin:round; stroke-width:2; stroke-opacity:0.1; fill:none" points="
  2291.66,1486.45 2291.66,47.2441 
  "/>
<polyline clip-path="url(#clip360)" style="stroke:#000000; stroke-linecap:butt; stroke-linejoin:round; stroke-width:4; stroke-opacity:1; fill:none" points="
  193.936,1486.45 2352.76,1486.45 
  "/>
<polyline clip-path="url(#clip360)" style="stroke:#000000; stroke-linecap:butt; stroke-linejoin:round; stroke-width:4; stroke-opacity:1; fill:none" points="
  255.035,1486.45 255.035,1467.55 
  "/>
<polyline clip-path="url(#clip360)" style="stroke:#000000; stroke-linecap:butt; stroke-linejoin:round; stroke-width:4; stroke-opacity:1; fill:none" points="
  764.19,1486.45 764.19,1467.55 
  "/>
<polyline clip-path="url(#clip360)" style="stroke:#000000; stroke-linecap:butt; stroke-linejoin:round; stroke-width:4; stroke-opacity:1; fill:none" points="
  1273.35,1486.45 1273.35,1467.55 
  "/>
<polyline clip-path="url(#clip360)" style="stroke:#000000; stroke-linecap:butt; stroke-linejoin:round; stroke-width:4; stroke-opacity:1; fill:none" points="
  1782.5,1486.45 1782.5,1467.55 
  "/>
<polyline clip-path="url(#clip360)" style="stroke:#000000; stroke-linecap:butt; stroke-linejoin:round; stroke-width:4; stroke-opacity:1; fill:none" points="
  2291.66,1486.45 2291.66,1467.55 
  "/>
<path clip-path="url(#clip360)" d="M255.035 1517.37 Q251.424 1517.37 249.595 1520.93 Q247.789 1524.47 247.789 1531.6 Q247.789 1538.71 249.595 1542.27 Q251.424 1545.82 255.035 1545.82 Q258.669 1545.82 260.474 1542.27 Q262.303 1538.71 262.303 1531.6 Q262.303 1524.47 260.474 1520.93 Q258.669 1517.37 255.035 1517.37 M255.035 1513.66 Q260.845 1513.66 263.9 1518.27 Q266.979 1522.85 266.979 1531.6 Q266.979 1540.33 263.9 1544.94 Q260.845 1549.52 255.035 1549.52 Q249.225 1549.52 246.146 1544.94 Q243.09 1540.33 243.09 1531.6 Q243.09 1522.85 246.146 1518.27 Q249.225 1513.66 255.035 1513.66 Z" fill="#000000" fill-rule="evenodd" fill-opacity="1" /><path clip-path="url(#clip360)" d="M754.468 1514.29 L772.825 1514.29 L772.825 1518.22 L758.751 1518.22 L758.751 1526.7 Q759.769 1526.35 760.788 1526.19 Q761.806 1526 762.825 1526 Q768.612 1526 771.991 1529.17 Q775.371 1532.34 775.371 1537.76 Q775.371 1543.34 771.899 1546.44 Q768.426 1549.52 762.107 1549.52 Q759.931 1549.52 757.663 1549.15 Q755.417 1548.78 753.01 1548.04 L753.01 1543.34 Q755.093 1544.47 757.315 1545.03 Q759.538 1545.58 762.014 1545.58 Q766.019 1545.58 768.357 1543.48 Q770.695 1541.37 770.695 1537.76 Q770.695 1534.15 768.357 1532.04 Q766.019 1529.94 762.014 1529.94 Q760.139 1529.94 758.264 1530.35 Q756.413 1530.77 754.468 1531.65 L754.468 1514.29 Z" fill="#000000" fill-rule="evenodd" fill-opacity="1" /><path clip-path="url(#clip360)" d="M1248.03 1544.91 L1255.67 1544.91 L1255.67 1518.55 L1247.36 1520.21 L1247.36 1515.95 L1255.63 1514.29 L1260.3 1514.29 L1260.3 1544.91 L1267.94 1544.91 L1267.94 1548.85 L1248.03 1548.85 L1248.03 1544.91 Z" fill="#000000" fill-rule="evenodd" fill-opacity="1" /><path clip-path="url(#clip360)" d="M1287.39 1517.37 Q1283.77 1517.37 1281.95 1520.93 Q1280.14 1524.47 1280.14 1531.6 Q1280.14 1538.71 1281.95 1542.27 Q1283.77 1545.82 1287.39 1545.82 Q1291.02 1545.82 1292.83 1542.27 Q1294.65 1538.71 1294.65 1531.6 Q1294.65 1524.47 1292.83 1520.93 Q1291.02 1517.37 1287.39 1517.37 M1287.39 1513.66 Q1293.2 1513.66 1296.25 1518.27 Q1299.33 1522.85 1299.33 1531.6 Q1299.33 1540.33 1296.25 1544.94 Q1293.2 1549.52 1287.39 1549.52 Q1281.58 1549.52 1278.5 1544.94 Q1275.44 1540.33 1275.44 1531.6 Q1275.44 1522.85 1278.5 1518.27 Q1281.58 1513.66 1287.39 1513.66 Z" fill="#000000" fill-rule="evenodd" fill-opacity="1" /><path clip-path="url(#clip360)" d="M1757.69 1544.91 L1765.33 1544.91 L1765.33 1518.55 L1757.02 1520.21 L1757.02 1515.95 L1765.28 1514.29 L1769.96 1514.29 L1769.96 1544.91 L1777.59 1544.91 L1777.59 1548.85 L1757.69 1548.85 L1757.69 1544.91 Z" fill="#000000" fill-rule="evenodd" fill-opacity="1" /><path clip-path="url(#clip360)" d="M1787.08 1514.29 L1805.44 1514.29 L1805.44 1518.22 L1791.37 1518.22 L1791.37 1526.7 Q1792.39 1526.35 1793.4 1526.19 Q1794.42 1526 1795.44 1526 Q1801.23 1526 1804.61 1529.17 Q1807.99 1532.34 1807.99 1537.76 Q1807.99 1543.34 1804.52 1546.44 Q1801.04 1549.52 1794.72 1549.52 Q1792.55 1549.52 1790.28 1549.15 Q1788.03 1548.78 1785.63 1548.04 L1785.63 1543.34 Q1787.71 1544.47 1789.93 1545.03 Q1792.15 1545.58 1794.63 1545.58 Q1798.64 1545.58 1800.97 1543.48 Q1803.31 1541.37 1803.31 1537.76 Q1803.31 1534.15 1800.97 1532.04 Q1798.64 1529.94 1794.63 1529.94 Q1792.76 1529.94 1790.88 1530.35 Q1789.03 1530.77 1787.08 1531.65 L1787.08 1514.29 Z" fill="#000000" fill-rule="evenodd" fill-opacity="1" /><path clip-path="url(#clip360)" d="M2270.43 1544.91 L2286.75 1544.91 L2286.75 1548.85 L2264.81 1548.85 L2264.81 1544.91 Q2267.47 1542.16 2272.05 1537.53 Q2276.66 1532.88 2277.84 1531.53 Q2280.08 1529.01 2280.96 1527.27 Q2281.87 1525.51 2281.87 1523.82 Q2281.87 1521.07 2279.92 1519.33 Q2278 1517.6 2274.9 1517.6 Q2272.7 1517.6 2270.25 1518.36 Q2267.81 1519.13 2265.04 1520.68 L2265.04 1515.95 Q2267.86 1514.82 2270.31 1514.24 Q2272.77 1513.66 2274.81 1513.66 Q2280.18 1513.66 2283.37 1516.35 Q2286.56 1519.03 2286.56 1523.52 Q2286.56 1525.65 2285.75 1527.57 Q2284.97 1529.47 2282.86 1532.07 Q2282.28 1532.74 2279.18 1535.95 Q2276.08 1539.15 2270.43 1544.91 Z" fill="#000000" fill-rule="evenodd" fill-opacity="1" /><path clip-path="url(#clip360)" d="M2306.56 1517.37 Q2302.95 1517.37 2301.12 1520.93 Q2299.32 1524.47 2299.32 1531.6 Q2299.32 1538.71 2301.12 1542.27 Q2302.95 1545.82 2306.56 1545.82 Q2310.2 1545.82 2312 1542.27 Q2313.83 1538.71 2313.83 1531.6 Q2313.83 1524.47 2312 1520.93 Q2310.2 1517.37 2306.56 1517.37 M2306.56 1513.66 Q2312.37 1513.66 2315.43 1518.27 Q2318.51 1522.85 2318.51 1531.6 Q2318.51 1540.33 2315.43 1544.94 Q2312.37 1549.52 2306.56 1549.52 Q2300.75 1549.52 2297.68 1544.94 Q2294.62 1540.33 2294.62 1531.6 Q2294.62 1522.85 2297.68 1518.27 Q2300.75 1513.66 2306.56 1513.66 Z" fill="#000000" fill-rule="evenodd" fill-opacity="1" /><polyline clip-path="url(#clip362)" style="stroke:#000000; stroke-linecap:butt; stroke-linejoin:round; stroke-width:2; stroke-opacity:0.1; fill:none" points="
  193.936,1445.72 2352.76,1445.72 
  "/>
<polyline clip-path="url(#clip362)" style="stroke:#000000; stroke-linecap:butt; stroke-linejoin:round; stroke-width:2; stroke-opacity:0.1; fill:none" points="
  193.936,1106.28 2352.76,1106.28 
  "/>
<polyline clip-path="url(#clip362)" style="stroke:#000000; stroke-linecap:butt; stroke-linejoin:round; stroke-width:2; stroke-opacity:0.1; fill:none" points="
  193.936,766.847 2352.76,766.847 
  "/>
<polyline clip-path="url(#clip362)" style="stroke:#000000; stroke-linecap:butt; stroke-linejoin:round; stroke-width:2; stroke-opacity:0.1; fill:none" points="
  193.936,427.411 2352.76,427.411 
  "/>
<polyline clip-path="url(#clip362)" style="stroke:#000000; stroke-linecap:butt; stroke-linejoin:round; stroke-width:2; stroke-opacity:0.1; fill:none" points="
  193.936,87.9763 2352.76,87.9763 
  "/>
<polyline clip-path="url(#clip360)" style="stroke:#000000; stroke-linecap:butt; stroke-linejoin:round; stroke-width:4; stroke-opacity:1; fill:none" points="
  193.936,1486.45 193.936,47.2441 
  "/>
<polyline clip-path="url(#clip360)" style="stroke:#000000; stroke-linecap:butt; stroke-linejoin:round; stroke-width:4; stroke-opacity:1; fill:none" points="
  193.936,1445.72 212.834,1445.72 
  "/>
<polyline clip-path="url(#clip360)" style="stroke:#000000; stroke-linecap:butt; stroke-linejoin:round; stroke-width:4; stroke-opacity:1; fill:none" points="
  193.936,1106.28 212.834,1106.28 
  "/>
<polyline clip-path="url(#clip360)" style="stroke:#000000; stroke-linecap:butt; stroke-linejoin:round; stroke-width:4; stroke-opacity:1; fill:none" points="
  193.936,766.847 212.834,766.847 
  "/>
<polyline clip-path="url(#clip360)" style="stroke:#000000; stroke-linecap:butt; stroke-linejoin:round; stroke-width:4; stroke-opacity:1; fill:none" points="
  193.936,427.411 212.834,427.411 
  "/>
<polyline clip-path="url(#clip360)" style="stroke:#000000; stroke-linecap:butt; stroke-linejoin:round; stroke-width:4; stroke-opacity:1; fill:none" points="
  193.936,87.9763 212.834,87.9763 
  "/>
<path clip-path="url(#clip360)" d="M50.9921 1446.17 L80.6679 1446.17 L80.6679 1450.1 L50.9921 1450.1 L50.9921 1446.17 Z" fill="#000000" fill-rule="evenodd" fill-opacity="1" /><path clip-path="url(#clip360)" d="M91.5706 1459.06 L99.2095 1459.06 L99.2095 1432.7 L90.8993 1434.36 L90.8993 1430.1 L99.1632 1428.44 L103.839 1428.44 L103.839 1459.06 L111.478 1459.06 L111.478 1463 L91.5706 1463 L91.5706 1459.06 Z" fill="#000000" fill-rule="evenodd" fill-opacity="1" /><path clip-path="url(#clip360)" d="M120.922 1457.12 L125.807 1457.12 L125.807 1463 L120.922 1463 L120.922 1457.12 Z" fill="#000000" fill-rule="evenodd" fill-opacity="1" /><path clip-path="url(#clip360)" d="M145.992 1431.52 Q142.381 1431.52 140.552 1435.08 Q138.746 1438.62 138.746 1445.75 Q138.746 1452.86 140.552 1456.42 Q142.381 1459.96 145.992 1459.96 Q149.626 1459.96 151.431 1456.42 Q153.26 1452.86 153.26 1445.75 Q153.26 1438.62 151.431 1435.08 Q149.626 1431.52 145.992 1431.52 M145.992 1427.81 Q151.802 1427.81 154.857 1432.42 Q157.936 1437 157.936 1445.75 Q157.936 1454.48 154.857 1459.08 Q151.802 1463.67 145.992 1463.67 Q140.181 1463.67 137.103 1459.08 Q134.047 1454.48 134.047 1445.75 Q134.047 1437 137.103 1432.42 Q140.181 1427.81 145.992 1427.81 Z" fill="#000000" fill-rule="evenodd" fill-opacity="1" /><path clip-path="url(#clip360)" d="M51.9875 1106.73 L81.6633 1106.73 L81.6633 1110.67 L51.9875 1110.67 L51.9875 1106.73 Z" fill="#000000" fill-rule="evenodd" fill-opacity="1" /><path clip-path="url(#clip360)" d="M101.756 1092.08 Q98.1447 1092.08 96.316 1095.65 Q94.5104 1099.19 94.5104 1106.32 Q94.5104 1113.42 96.316 1116.99 Q98.1447 1120.53 101.756 1120.53 Q105.39 1120.53 107.196 1116.99 Q109.024 1113.42 109.024 1106.32 Q109.024 1099.19 107.196 1095.65 Q105.39 1092.08 101.756 1092.08 M101.756 1088.38 Q107.566 1088.38 110.621 1092.98 Q113.7 1097.57 113.7 1106.32 Q113.7 1115.04 110.621 1119.65 Q107.566 1124.23 101.756 1124.23 Q95.9456 1124.23 92.8669 1119.65 Q89.8114 1115.04 89.8114 1106.32 Q89.8114 1097.57 92.8669 1092.98 Q95.9456 1088.38 101.756 1088.38 Z" fill="#000000" fill-rule="evenodd" fill-opacity="1" /><path clip-path="url(#clip360)" d="M121.918 1117.68 L126.802 1117.68 L126.802 1123.56 L121.918 1123.56 L121.918 1117.68 Z" fill="#000000" fill-rule="evenodd" fill-opacity="1" /><path clip-path="url(#clip360)" d="M137.033 1089 L155.39 1089 L155.39 1092.94 L141.316 1092.94 L141.316 1101.41 Q142.334 1101.06 143.353 1100.9 Q144.371 1100.71 145.39 1100.71 Q151.177 1100.71 154.556 1103.89 Q157.936 1107.06 157.936 1112.47 Q157.936 1118.05 154.464 1121.15 Q150.992 1124.23 144.672 1124.23 Q142.496 1124.23 140.228 1123.86 Q137.982 1123.49 135.575 1122.75 L135.575 1118.05 Q137.658 1119.19 139.881 1119.74 Q142.103 1120.3 144.58 1120.3 Q148.584 1120.3 150.922 1118.19 Q153.26 1116.08 153.26 1112.47 Q153.26 1108.86 150.922 1106.76 Q148.584 1104.65 144.58 1104.65 Q142.705 1104.65 140.83 1105.07 Q138.978 1105.48 137.033 1106.36 L137.033 1089 Z" fill="#000000" fill-rule="evenodd" fill-opacity="1" /><path clip-path="url(#clip360)" d="M100.76 752.645 Q97.1493 752.645 95.3206 756.21 Q93.515 759.752 93.515 766.881 Q93.515 773.988 95.3206 777.552 Q97.1493 781.094 100.76 781.094 Q104.395 781.094 106.2 777.552 Q108.029 773.988 108.029 766.881 Q108.029 759.752 106.2 756.21 Q104.395 752.645 100.76 752.645 M100.76 748.942 Q106.571 748.942 109.626 753.548 Q112.705 758.131 112.705 766.881 Q112.705 775.608 109.626 780.215 Q106.571 784.798 100.76 784.798 Q94.9502 784.798 91.8715 780.215 Q88.816 775.608 88.816 766.881 Q88.816 758.131 91.8715 753.548 Q94.9502 748.942 100.76 748.942 Z" fill="#000000" fill-rule="evenodd" fill-opacity="1" /><path clip-path="url(#clip360)" d="M120.922 778.247 L125.807 778.247 L125.807 784.127 L120.922 784.127 L120.922 778.247 Z" fill="#000000" fill-rule="evenodd" fill-opacity="1" /><path clip-path="url(#clip360)" d="M145.992 752.645 Q142.381 752.645 140.552 756.21 Q138.746 759.752 138.746 766.881 Q138.746 773.988 140.552 777.552 Q142.381 781.094 145.992 781.094 Q149.626 781.094 151.431 777.552 Q153.26 773.988 153.26 766.881 Q153.26 759.752 151.431 756.21 Q149.626 752.645 145.992 752.645 M145.992 748.942 Q151.802 748.942 154.857 753.548 Q157.936 758.131 157.936 766.881 Q157.936 775.608 154.857 780.215 Q151.802 784.798 145.992 784.798 Q140.181 784.798 137.103 780.215 Q134.047 775.608 134.047 766.881 Q134.047 758.131 137.103 753.548 Q140.181 748.942 145.992 748.942 Z" fill="#000000" fill-rule="evenodd" fill-opacity="1" /><path clip-path="url(#clip360)" d="M101.756 413.21 Q98.1447 413.21 96.316 416.775 Q94.5104 420.317 94.5104 427.446 Q94.5104 434.553 96.316 438.117 Q98.1447 441.659 101.756 441.659 Q105.39 441.659 107.196 438.117 Q109.024 434.553 109.024 427.446 Q109.024 420.317 107.196 416.775 Q105.39 413.21 101.756 413.21 M101.756 409.506 Q107.566 409.506 110.621 414.113 Q113.7 418.696 113.7 427.446 Q113.7 436.173 110.621 440.779 Q107.566 445.363 101.756 445.363 Q95.9456 445.363 92.8669 440.779 Q89.8114 436.173 89.8114 427.446 Q89.8114 418.696 92.8669 414.113 Q95.9456 409.506 101.756 409.506 Z" fill="#000000" fill-rule="evenodd" fill-opacity="1" /><path clip-path="url(#clip360)" d="M121.918 438.812 L126.802 438.812 L126.802 444.691 L121.918 444.691 L121.918 438.812 Z" fill="#000000" fill-rule="evenodd" fill-opacity="1" /><path clip-path="url(#clip360)" d="M137.033 410.131 L155.39 410.131 L155.39 414.067 L141.316 414.067 L141.316 422.539 Q142.334 422.192 143.353 422.029 Q144.371 421.844 145.39 421.844 Q151.177 421.844 154.556 425.016 Q157.936 428.187 157.936 433.604 Q157.936 439.182 154.464 442.284 Q150.992 445.363 144.672 445.363 Q142.496 445.363 140.228 444.992 Q137.982 444.622 135.575 443.881 L135.575 439.182 Q137.658 440.316 139.881 440.872 Q142.103 441.428 144.58 441.428 Q148.584 441.428 150.922 439.321 Q153.26 437.215 153.26 433.604 Q153.26 429.992 150.922 427.886 Q148.584 425.779 144.58 425.779 Q142.705 425.779 140.83 426.196 Q138.978 426.613 137.033 427.492 L137.033 410.131 Z" fill="#000000" fill-rule="evenodd" fill-opacity="1" /><path clip-path="url(#clip360)" d="M91.5706 101.321 L99.2095 101.321 L99.2095 74.9555 L90.8993 76.6222 L90.8993 72.3629 L99.1632 70.6963 L103.839 70.6963 L103.839 101.321 L111.478 101.321 L111.478 105.256 L91.5706 105.256 L91.5706 101.321 Z" fill="#000000" fill-rule="evenodd" fill-opacity="1" /><path clip-path="url(#clip360)" d="M120.922 99.3767 L125.807 99.3767 L125.807 105.256 L120.922 105.256 L120.922 99.3767 Z" fill="#000000" fill-rule="evenodd" fill-opacity="1" /><path clip-path="url(#clip360)" d="M145.992 73.775 Q142.381 73.775 140.552 77.3398 Q138.746 80.8814 138.746 88.011 Q138.746 95.1174 140.552 98.6822 Q142.381 102.224 145.992 102.224 Q149.626 102.224 151.431 98.6822 Q153.26 95.1174 153.26 88.011 Q153.26 80.8814 151.431 77.3398 Q149.626 73.775 145.992 73.775 M145.992 70.0713 Q151.802 70.0713 154.857 74.6777 Q157.936 79.261 157.936 88.011 Q157.936 96.7378 154.857 101.344 Q151.802 105.928 145.992 105.928 Q140.181 105.928 137.103 101.344 Q134.047 96.7378 134.047 88.011 Q134.047 79.261 137.103 74.6777 Q140.181 70.0713 145.992 70.0713 Z" fill="#000000" fill-rule="evenodd" fill-opacity="1" /><circle clip-path="url(#clip362)" cx="255.035" cy="766.847" r="14.4" fill="#009af9" fill-rule="evenodd" fill-opacity="1" stroke="#000000" stroke-opacity="1" stroke-width="3.2"/>
<circle clip-path="url(#clip362)" cx="295.767" cy="505.743" r="14.4" fill="#009af9" fill-rule="evenodd" fill-opacity="1" stroke="#000000" stroke-opacity="1" stroke-width="3.2"/>
<circle clip-path="url(#clip362)" cx="336.5" cy="284.808" r="14.4" fill="#009af9" fill-rule="evenodd" fill-opacity="1" stroke="#000000" stroke-opacity="1" stroke-width="3.2"/>
<circle clip-path="url(#clip362)" cx="377.232" cy="138.034" r="14.4" fill="#009af9" fill-rule="evenodd" fill-opacity="1" stroke="#000000" stroke-opacity="1" stroke-width="3.2"/>
<circle clip-path="url(#clip362)" cx="417.964" cy="88" r="14.4" fill="#009af9" fill-rule="evenodd" fill-opacity="1" stroke="#000000" stroke-opacity="1" stroke-width="3.2"/>
<circle clip-path="url(#clip362)" cx="458.697" cy="142.404" r="14.4" fill="#009af9" fill-rule="evenodd" fill-opacity="1" stroke="#000000" stroke-opacity="1" stroke-width="3.2"/>
<circle clip-path="url(#clip362)" cx="499.429" cy="292.876" r="14.4" fill="#009af9" fill-rule="evenodd" fill-opacity="1" stroke="#000000" stroke-opacity="1" stroke-width="3.2"/>
<circle clip-path="url(#clip362)" cx="540.162" cy="516.266" r="14.4" fill="#009af9" fill-rule="evenodd" fill-opacity="1" stroke="#000000" stroke-opacity="1" stroke-width="3.2"/>
<circle clip-path="url(#clip362)" cx="580.894" cy="778.208" r="14.4" fill="#009af9" fill-rule="evenodd" fill-opacity="1" stroke="#000000" stroke-opacity="1" stroke-width="3.2"/>
<circle clip-path="url(#clip362)" cx="621.627" cy="1038.4" r="14.4" fill="#009af9" fill-rule="evenodd" fill-opacity="1" stroke="#000000" stroke-opacity="1" stroke-width="3.2"/>
<circle clip-path="url(#clip362)" cx="662.359" cy="1256.82" r="14.4" fill="#009af9" fill-rule="evenodd" fill-opacity="1" stroke="#000000" stroke-opacity="1" stroke-width="3.2"/>
<circle clip-path="url(#clip362)" cx="703.092" cy="1399.85" r="14.4" fill="#009af9" fill-rule="evenodd" fill-opacity="1" stroke="#000000" stroke-opacity="1" stroke-width="3.2"/>
<circle clip-path="url(#clip362)" cx="743.824" cy="1445.5" r="14.4" fill="#009af9" fill-rule="evenodd" fill-opacity="1" stroke="#000000" stroke-opacity="1" stroke-width="3.2"/>
<circle clip-path="url(#clip362)" cx="784.557" cy="1386.74" r="14.4" fill="#009af9" fill-rule="evenodd" fill-opacity="1" stroke="#000000" stroke-opacity="1" stroke-width="3.2"/>
<circle clip-path="url(#clip362)" cx="825.289" cy="1232.62" r="14.4" fill="#009af9" fill-rule="evenodd" fill-opacity="1" stroke="#000000" stroke-opacity="1" stroke-width="3.2"/>
<circle clip-path="url(#clip362)" cx="866.021" cy="1006.83" r="14.4" fill="#009af9" fill-rule="evenodd" fill-opacity="1" stroke="#000000" stroke-opacity="1" stroke-width="3.2"/>
<circle clip-path="url(#clip362)" cx="906.754" cy="744.127" r="14.4" fill="#009af9" fill-rule="evenodd" fill-opacity="1" stroke="#000000" stroke-opacity="1" stroke-width="3.2"/>
<circle clip-path="url(#clip362)" cx="947.486" cy="484.917" r="14.4" fill="#009af9" fill-rule="evenodd" fill-opacity="1" stroke="#000000" stroke-opacity="1" stroke-width="3.2"/>
<circle clip-path="url(#clip362)" cx="988.219" cy="269.081" r="14.4" fill="#009af9" fill-rule="evenodd" fill-opacity="1" stroke="#000000" stroke-opacity="1" stroke-width="3.2"/>
<circle clip-path="url(#clip362)" cx="1028.95" cy="129.824" r="14.4" fill="#009af9" fill-rule="evenodd" fill-opacity="1" stroke="#000000" stroke-opacity="1" stroke-width="3.2"/>
<circle clip-path="url(#clip362)" cx="1069.68" cy="88.5704" r="14.4" fill="#009af9" fill-rule="evenodd" fill-opacity="1" stroke="#000000" stroke-opacity="1" stroke-width="3.2"/>
<circle clip-path="url(#clip362)" cx="1110.42" cy="151.667" r="14.4" fill="#009af9" fill-rule="evenodd" fill-opacity="1" stroke="#000000" stroke-opacity="1" stroke-width="3.2"/>
<circle clip-path="url(#clip362)" cx="1151.15" cy="309.407" r="14.4" fill="#009af9" fill-rule="evenodd" fill-opacity="1" stroke="#000000" stroke-opacity="1" stroke-width="3.2"/>
<circle clip-path="url(#clip362)" cx="1191.88" cy="537.522" r="14.4" fill="#009af9" fill-rule="evenodd" fill-opacity="1" stroke="#000000" stroke-opacity="1" stroke-width="3.2"/>
<circle clip-path="url(#clip362)" cx="1232.61" cy="800.918" r="14.4" fill="#009af9" fill-rule="evenodd" fill-opacity="1" stroke="#000000" stroke-opacity="1" stroke-width="3.2"/>
<circle clip-path="url(#clip362)" cx="1273.35" cy="1059.07" r="14.4" fill="#009af9" fill-rule="evenodd" fill-opacity="1" stroke="#000000" stroke-opacity="1" stroke-width="3.2"/>
<circle clip-path="url(#clip362)" cx="1314.08" cy="1272.27" r="14.4" fill="#009af9" fill-rule="evenodd" fill-opacity="1" stroke="#000000" stroke-opacity="1" stroke-width="3.2"/>
<circle clip-path="url(#clip362)" cx="1354.81" cy="1407.71" r="14.4" fill="#009af9" fill-rule="evenodd" fill-opacity="1" stroke="#000000" stroke-opacity="1" stroke-width="3.2"/>
<circle clip-path="url(#clip362)" cx="1395.54" cy="1444.55" r="14.4" fill="#009af9" fill-rule="evenodd" fill-opacity="1" stroke="#000000" stroke-opacity="1" stroke-width="3.2"/>
<circle clip-path="url(#clip362)" cx="1436.28" cy="1377.14" r="14.4" fill="#009af9" fill-rule="evenodd" fill-opacity="1" stroke="#000000" stroke-opacity="1" stroke-width="3.2"/>
<circle clip-path="url(#clip362)" cx="1477.01" cy="1215.83" r="14.4" fill="#009af9" fill-rule="evenodd" fill-opacity="1" stroke="#000000" stroke-opacity="1" stroke-width="3.2"/>
<circle clip-path="url(#clip362)" cx="1517.74" cy="985.446" r="14.4" fill="#009af9" fill-rule="evenodd" fill-opacity="1" stroke="#000000" stroke-opacity="1" stroke-width="3.2"/>
<circle clip-path="url(#clip362)" cx="1558.47" cy="721.433" r="14.4" fill="#009af9" fill-rule="evenodd" fill-opacity="1" stroke="#000000" stroke-opacity="1" stroke-width="3.2"/>
<circle clip-path="url(#clip362)" cx="1599.21" cy="464.408" r="14.4" fill="#009af9" fill-rule="evenodd" fill-opacity="1" stroke="#000000" stroke-opacity="1" stroke-width="3.2"/>
<circle clip-path="url(#clip362)" cx="1639.94" cy="253.911" r="14.4" fill="#009af9" fill-rule="evenodd" fill-opacity="1" stroke="#000000" stroke-opacity="1" stroke-width="3.2"/>
<circle clip-path="url(#clip362)" cx="1680.67" cy="122.327" r="14.4" fill="#009af9" fill-rule="evenodd" fill-opacity="1" stroke="#000000" stroke-opacity="1" stroke-width="3.2"/>
<circle clip-path="url(#clip362)" cx="1721.4" cy="89.9007" r="14.4" fill="#009af9" fill-rule="evenodd" fill-opacity="1" stroke="#000000" stroke-opacity="1" stroke-width="3.2"/>
<circle clip-path="url(#clip362)" cx="1762.14" cy="161.619" r="14.4" fill="#009af9" fill-rule="evenodd" fill-opacity="1" stroke="#000000" stroke-opacity="1" stroke-width="3.2"/>
<circle clip-path="url(#clip362)" cx="1802.87" cy="326.45" r="14.4" fill="#009af9" fill-rule="evenodd" fill-opacity="1" stroke="#000000" stroke-opacity="1" stroke-width="3.2"/>
<circle clip-path="url(#clip362)" cx="1843.6" cy="559.034" r="14.4" fill="#009af9" fill-rule="evenodd" fill-opacity="1" stroke="#000000" stroke-opacity="1" stroke-width="3.2"/>
<circle clip-path="url(#clip362)" cx="1884.33" cy="823.589" r="14.4" fill="#009af9" fill-rule="evenodd" fill-opacity="1" stroke="#000000" stroke-opacity="1" stroke-width="3.2"/>
<circle clip-path="url(#clip362)" cx="1925.07" cy="1079.41" r="14.4" fill="#009af9" fill-rule="evenodd" fill-opacity="1" stroke="#000000" stroke-opacity="1" stroke-width="3.2"/>
<circle clip-path="url(#clip362)" cx="1965.8" cy="1287.15" r="14.4" fill="#009af9" fill-rule="evenodd" fill-opacity="1" stroke="#000000" stroke-opacity="1" stroke-width="3.2"/>
<circle clip-path="url(#clip362)" cx="2006.53" cy="1414.84" r="14.4" fill="#009af9" fill-rule="evenodd" fill-opacity="1" stroke="#000000" stroke-opacity="1" stroke-width="3.2"/>
<circle clip-path="url(#clip362)" cx="2047.26" cy="1442.84" r="14.4" fill="#009af9" fill-rule="evenodd" fill-opacity="1" stroke="#000000" stroke-opacity="1" stroke-width="3.2"/>
<circle clip-path="url(#clip362)" cx="2087.99" cy="1366.84" r="14.4" fill="#009af9" fill-rule="evenodd" fill-opacity="1" stroke="#000000" stroke-opacity="1" stroke-width="3.2"/>
<circle clip-path="url(#clip362)" cx="2128.73" cy="1198.54" r="14.4" fill="#009af9" fill-rule="evenodd" fill-opacity="1" stroke="#000000" stroke-opacity="1" stroke-width="3.2"/>
<circle clip-path="url(#clip362)" cx="2169.46" cy="963.814" r="14.4" fill="#009af9" fill-rule="evenodd" fill-opacity="1" stroke="#000000" stroke-opacity="1" stroke-width="3.2"/>
<circle clip-path="url(#clip362)" cx="2210.19" cy="698.79" r="14.4" fill="#009af9" fill-rule="evenodd" fill-opacity="1" stroke="#000000" stroke-opacity="1" stroke-width="3.2"/>
<circle clip-path="url(#clip362)" cx="2250.92" cy="444.237" r="14.4" fill="#009af9" fill-rule="evenodd" fill-opacity="1" stroke="#000000" stroke-opacity="1" stroke-width="3.2"/>
<circle clip-path="url(#clip362)" cx="2291.66" cy="239.316" r="14.4" fill="#009af9" fill-rule="evenodd" fill-opacity="1" stroke="#000000" stroke-opacity="1" stroke-width="3.2"/>
<circle clip-path="url(#clip362)" cx="255.035" cy="87.9763" r="14.4" fill="#e26f46" fill-rule="evenodd" fill-opacity="1" stroke="#000000" stroke-opacity="1" stroke-width="3.2"/>
<circle clip-path="url(#clip362)" cx="295.767" cy="140.197" r="14.4" fill="#e26f46" fill-rule="evenodd" fill-opacity="1" stroke="#000000" stroke-opacity="1" stroke-width="3.2"/>
<circle clip-path="url(#clip362)" cx="336.5" cy="288.825" r="14.4" fill="#e26f46" fill-rule="evenodd" fill-opacity="1" stroke="#000000" stroke-opacity="1" stroke-width="3.2"/>
<circle clip-path="url(#clip362)" cx="377.232" cy="510.996" r="14.4" fill="#e26f46" fill-rule="evenodd" fill-opacity="1" stroke="#000000" stroke-opacity="1" stroke-width="3.2"/>
<circle clip-path="url(#clip362)" cx="417.964" cy="772.527" r="14.4" fill="#e26f46" fill-rule="evenodd" fill-opacity="1" stroke="#000000" stroke-opacity="1" stroke-width="3.2"/>
<circle clip-path="url(#clip362)" cx="458.697" cy="1033.19" r="14.4" fill="#e26f46" fill-rule="evenodd" fill-opacity="1" stroke="#000000" stroke-opacity="1" stroke-width="3.2"/>
<circle clip-path="url(#clip362)" cx="499.429" cy="1252.87" r="14.4" fill="#e26f46" fill-rule="evenodd" fill-opacity="1" stroke="#000000" stroke-opacity="1" stroke-width="3.2"/>
<circle clip-path="url(#clip362)" cx="540.162" cy="1397.78" r="14.4" fill="#e26f46" fill-rule="evenodd" fill-opacity="1" stroke="#000000" stroke-opacity="1" stroke-width="3.2"/>
<circle clip-path="url(#clip362)" cx="580.894" cy="1445.62" r="14.4" fill="#e26f46" fill-rule="evenodd" fill-opacity="1" stroke="#000000" stroke-opacity="1" stroke-width="3.2"/>
<circle clip-path="url(#clip362)" cx="621.627" cy="1389.04" r="14.4" fill="#e26f46" fill-rule="evenodd" fill-opacity="1" stroke="#000000" stroke-opacity="1" stroke-width="3.2"/>
<circle clip-path="url(#clip362)" cx="662.359" cy="1236.73" r="14.4" fill="#e26f46" fill-rule="evenodd" fill-opacity="1" stroke="#000000" stroke-opacity="1" stroke-width="3.2"/>
<circle clip-path="url(#clip362)" cx="703.092" cy="1012.14" r="14.4" fill="#e26f46" fill-rule="evenodd" fill-opacity="1" stroke="#000000" stroke-opacity="1" stroke-width="3.2"/>
<circle clip-path="url(#clip362)" cx="743.824" cy="749.806" r="14.4" fill="#e26f46" fill-rule="evenodd" fill-opacity="1" stroke="#000000" stroke-opacity="1" stroke-width="3.2"/>
<circle clip-path="url(#clip362)" cx="784.557" cy="490.095" r="14.4" fill="#e26f46" fill-rule="evenodd" fill-opacity="1" stroke="#000000" stroke-opacity="1" stroke-width="3.2"/>
<circle clip-path="url(#clip362)" cx="825.289" cy="272.961" r="14.4" fill="#e26f46" fill-rule="evenodd" fill-opacity="1" stroke="#000000" stroke-opacity="1" stroke-width="3.2"/>
<circle clip-path="url(#clip362)" cx="866.021" cy="131.81" r="14.4" fill="#e26f46" fill-rule="evenodd" fill-opacity="1" stroke="#000000" stroke-opacity="1" stroke-width="3.2"/>
<circle clip-path="url(#clip362)" cx="906.754" cy="88.3565" r="14.4" fill="#e26f46" fill-rule="evenodd" fill-opacity="1" stroke="#000000" stroke-opacity="1" stroke-width="3.2"/>
<circle clip-path="url(#clip362)" cx="947.486" cy="149.286" r="14.4" fill="#e26f46" fill-rule="evenodd" fill-opacity="1" stroke="#000000" stroke-opacity="1" stroke-width="3.2"/>
<circle clip-path="url(#clip362)" cx="988.219" cy="305.225" r="14.4" fill="#e26f46" fill-rule="evenodd" fill-opacity="1" stroke="#000000" stroke-opacity="1" stroke-width="3.2"/>
<circle clip-path="url(#clip362)" cx="1028.95" cy="532.183" r="14.4" fill="#e26f46" fill-rule="evenodd" fill-opacity="1" stroke="#000000" stroke-opacity="1" stroke-width="3.2"/>
<circle clip-path="url(#clip362)" cx="1069.68" cy="795.243" r="14.4" fill="#e26f46" fill-rule="evenodd" fill-opacity="1" stroke="#000000" stroke-opacity="1" stroke-width="3.2"/>
<circle clip-path="url(#clip362)" cx="1110.42" cy="1053.93" r="14.4" fill="#e26f46" fill-rule="evenodd" fill-opacity="1" stroke="#000000" stroke-opacity="1" stroke-width="3.2"/>
<circle clip-path="url(#clip362)" cx="1151.15" cy="1268.46" r="14.4" fill="#e26f46" fill-rule="evenodd" fill-opacity="1" stroke="#000000" stroke-opacity="1" stroke-width="3.2"/>
<circle clip-path="url(#clip362)" cx="1191.88" cy="1405.81" r="14.4" fill="#e26f46" fill-rule="evenodd" fill-opacity="1" stroke="#000000" stroke-opacity="1" stroke-width="3.2"/>
<circle clip-path="url(#clip362)" cx="1232.61" cy="1444.86" r="14.4" fill="#e26f46" fill-rule="evenodd" fill-opacity="1" stroke="#000000" stroke-opacity="1" stroke-width="3.2"/>
<circle clip-path="url(#clip362)" cx="1273.35" cy="1379.6" r="14.4" fill="#e26f46" fill-rule="evenodd" fill-opacity="1" stroke="#000000" stroke-opacity="1" stroke-width="3.2"/>
<circle clip-path="url(#clip362)" cx="1314.08" cy="1220.07" r="14.4" fill="#e26f46" fill-rule="evenodd" fill-opacity="1" stroke="#000000" stroke-opacity="1" stroke-width="3.2"/>
<circle clip-path="url(#clip362)" cx="1354.81" cy="990.816" r="14.4" fill="#e26f46" fill-rule="evenodd" fill-opacity="1" stroke="#000000" stroke-opacity="1" stroke-width="3.2"/>
<circle clip-path="url(#clip362)" cx="1395.54" cy="727.103" r="14.4" fill="#e26f46" fill-rule="evenodd" fill-opacity="1" stroke="#000000" stroke-opacity="1" stroke-width="3.2"/>
<circle clip-path="url(#clip362)" cx="1436.28" cy="469.504" r="14.4" fill="#e26f46" fill-rule="evenodd" fill-opacity="1" stroke="#000000" stroke-opacity="1" stroke-width="3.2"/>
<circle clip-path="url(#clip362)" cx="1477.01" cy="257.65" r="14.4" fill="#e26f46" fill-rule="evenodd" fill-opacity="1" stroke="#000000" stroke-opacity="1" stroke-width="3.2"/>
<circle clip-path="url(#clip362)" cx="1517.74" cy="124.134" r="14.4" fill="#e26f46" fill-rule="evenodd" fill-opacity="1" stroke="#000000" stroke-opacity="1" stroke-width="3.2"/>
<circle clip-path="url(#clip362)" cx="1558.47" cy="89.4969" r="14.4" fill="#e26f46" fill-rule="evenodd" fill-opacity="1" stroke="#000000" stroke-opacity="1" stroke-width="3.2"/>
<circle clip-path="url(#clip362)" cx="1599.21" cy="159.067" r="14.4" fill="#e26f46" fill-rule="evenodd" fill-opacity="1" stroke="#000000" stroke-opacity="1" stroke-width="3.2"/>
<circle clip-path="url(#clip362)" cx="1639.94" cy="322.142" r="14.4" fill="#e26f46" fill-rule="evenodd" fill-opacity="1" stroke="#000000" stroke-opacity="1" stroke-width="3.2"/>
<circle clip-path="url(#clip362)" cx="1680.67" cy="553.633" r="14.4" fill="#e26f46" fill-rule="evenodd" fill-opacity="1" stroke="#000000" stroke-opacity="1" stroke-width="3.2"/>
<circle clip-path="url(#clip362)" cx="1721.4" cy="817.926" r="14.4" fill="#e26f46" fill-rule="evenodd" fill-opacity="1" stroke="#000000" stroke-opacity="1" stroke-width="3.2"/>
<circle clip-path="url(#clip362)" cx="1762.14" cy="1074.36" r="14.4" fill="#e26f46" fill-rule="evenodd" fill-opacity="1" stroke="#000000" stroke-opacity="1" stroke-width="3.2"/>
<circle clip-path="url(#clip362)" cx="1802.87" cy="1283.49" r="14.4" fill="#e26f46" fill-rule="evenodd" fill-opacity="1" stroke="#000000" stroke-opacity="1" stroke-width="3.2"/>
<circle clip-path="url(#clip362)" cx="1843.6" cy="1413.13" r="14.4" fill="#e26f46" fill-rule="evenodd" fill-opacity="1" stroke="#000000" stroke-opacity="1" stroke-width="3.2"/>
<circle clip-path="url(#clip362)" cx="1884.33" cy="1443.34" r="14.4" fill="#e26f46" fill-rule="evenodd" fill-opacity="1" stroke="#000000" stroke-opacity="1" stroke-width="3.2"/>
<circle clip-path="url(#clip362)" cx="1925.07" cy="1369.48" r="14.4" fill="#e26f46" fill-rule="evenodd" fill-opacity="1" stroke="#000000" stroke-opacity="1" stroke-width="3.2"/>
<circle clip-path="url(#clip362)" cx="1965.8" cy="1202.9" r="14.4" fill="#e26f46" fill-rule="evenodd" fill-opacity="1" stroke="#000000" stroke-opacity="1" stroke-width="3.2"/>
<circle clip-path="url(#clip362)" cx="2006.53" cy="969.244" r="14.4" fill="#e26f46" fill-rule="evenodd" fill-opacity="1" stroke="#000000" stroke-opacity="1" stroke-width="3.2"/>
<circle clip-path="url(#clip362)" cx="2047.26" cy="704.445" r="14.4" fill="#e26f46" fill-rule="evenodd" fill-opacity="1" stroke="#000000" stroke-opacity="1" stroke-width="3.2"/>
<circle clip-path="url(#clip362)" cx="2087.99" cy="449.247" r="14.4" fill="#e26f46" fill-rule="evenodd" fill-opacity="1" stroke="#000000" stroke-opacity="1" stroke-width="3.2"/>
<circle clip-path="url(#clip362)" cx="2128.73" cy="242.91" r="14.4" fill="#e26f46" fill-rule="evenodd" fill-opacity="1" stroke="#000000" stroke-opacity="1" stroke-width="3.2"/>
<circle clip-path="url(#clip362)" cx="2169.46" cy="117.178" r="14.4" fill="#e26f46" fill-rule="evenodd" fill-opacity="1" stroke="#000000" stroke-opacity="1" stroke-width="3.2"/>
<circle clip-path="url(#clip362)" cx="2210.19" cy="91.3962" r="14.4" fill="#e26f46" fill-rule="evenodd" fill-opacity="1" stroke="#000000" stroke-opacity="1" stroke-width="3.2"/>
<circle clip-path="url(#clip362)" cx="2250.92" cy="169.529" r="14.4" fill="#e26f46" fill-rule="evenodd" fill-opacity="1" stroke="#000000" stroke-opacity="1" stroke-width="3.2"/>
<circle clip-path="url(#clip362)" cx="2291.66" cy="339.557" r="14.4" fill="#e26f46" fill-rule="evenodd" fill-opacity="1" stroke="#000000" stroke-opacity="1" stroke-width="3.2"/>
<polyline clip-path="url(#clip362)" style="stroke:#3da44d; stroke-linecap:butt; stroke-linejoin:round; stroke-width:12; stroke-opacity:1; fill:none" points="
  255.035,87.9763 258.35,88.3359 261.664,89.4145 264.979,91.2109 268.294,93.7232 275.957,102.255 283.62,114.548 287.451,122.084 291.282,130.533 295.114,139.882 
  298.945,150.119 306.608,173.196 314.27,199.633 321.933,229.28 329.596,261.969 337.259,297.516 344.921,335.72 352.584,376.363 360.247,419.217 367.91,464.038 
  375.572,510.572 383.235,558.558 390.898,607.722 409.318,729.046 427.737,851.603 436.947,912.092 446.157,971.395 455.367,1029.02 464.577,1084.51 472.364,1129.42 
  480.151,1172.2 487.938,1212.62 495.725,1250.43 503.512,1285.42 511.299,1317.37 519.085,1346.11 526.872,1371.46 531.102,1383.76 535.331,1394.99 539.56,1405.14 
  543.79,1414.19 548.019,1422.12 552.249,1428.92 556.478,1434.58 560.707,1439.09 564.937,1442.44 569.166,1444.62 573.395,1445.64 577.625,1445.48 581.854,1444.16 
  586.084,1441.66 590.313,1438 594.542,1433.19 598.441,1427.73 602.341,1421.3 606.24,1413.91 610.139,1405.58 614.038,1396.31 617.937,1386.11 621.836,1375.01 
  625.735,1363.02 633.533,1336.43 641.332,1306.5 649.13,1273.41 656.928,1237.34 665.289,1195.62 673.649,1151.02 682.01,1103.82 690.37,1054.35 698.731,1002.95 
  707.091,949.959 715.452,895.731 723.812,840.636 743.185,711.691 762.558,584.736 772.245,523.443 781.931,464.352 791.617,407.996 801.304,354.884 809.912,310.796 
  818.52,269.965 822.824,250.863 827.129,232.683 831.433,215.457 835.737,199.215 840.041,183.988 844.345,169.802 848.649,156.682 852.953,144.652 857.257,133.734 
  861.561,123.946 865.865,115.307 870.17,107.831 873.944,102.245 877.718,97.5706 881.492,93.8159 885.267,90.9856 889.041,89.0838 892.815,88.1129 896.59,88.0744 
  900.364,88.9682 904.138,90.7931 907.913,93.5467 911.687,97.2252 915.461,101.823 919.235,107.335 923.01,113.753 926.784,121.067 930.558,129.269 934.673,139.209 
  938.788,150.173 942.903,162.145 947.018,175.103 951.133,189.028 955.248,203.896 959.363,219.684 963.478,236.365 971.708,272.296 979.938,311.456 988.168,353.589 
  996.398,398.42 1004.68,445.943 1012.96,495.586 1021.24,547.021 1029.51,599.909 1046.07,708.636 1062.63,818.898 1071.78,879.449 1080.94,939.09 1090.09,997.341 
  1099.24,1053.73 1108.4,1107.8 1117.55,1159.12 1126.7,1207.28 1135.86,1251.87 1140.21,1271.74 1144.57,1290.67 1148.92,1308.66 1153.28,1325.65 1157.63,1341.62 
  1161.98,1356.53 1166.34,1370.37 1170.69,1383.11 1175.05,1394.72 1179.4,1405.18 1183.76,1414.48 1188.11,1422.59 1192.47,1429.5 1196.82,1435.2 1201.18,1439.68 
  1205.53,1442.92 1210.06,1444.99 1214.59,1445.72 1219.11,1445.1 1223.64,1443.14 1228.17,1439.85 1232.7,1435.22 1237.23,1429.28 1241.75,1422.02 1246.28,1413.47 
  1250.81,1403.64 1255.34,1392.56 1259.86,1380.23 1264.39,1366.7 1268.92,1351.98 1273.45,1336.1 1277.98,1319.09 1285.6,1288.02 1293.22,1254.02 1300.84,1217.3 
  1308.47,1178.05 1316.09,1136.51 1323.71,1092.89 1331.34,1047.44 1338.96,1000.42 1357.57,880.667 1376.19,757.12 1394.8,633.896 1413.41,515.102 1421.94,463.262 
  1430.46,413.548 1438.99,366.309 1447.51,321.876 1456.04,280.56 1464.57,242.651 1468.83,225.057 1473.09,208.413 1477.35,192.748 1481.62,178.088 1485.55,165.465 
  1489.49,153.74 1493.43,142.931 1497.36,133.055 1501.3,124.127 1505.24,116.158 1509.17,109.163 1513.11,103.15 1517.05,98.1291 1520.99,94.1077 1524.92,91.0917 
  1528.86,89.0857 1532.8,88.0927 1536.73,88.114 1540.67,89.1498 1544.61,91.1984 1548.6,94.3031 1552.58,98.4392 1556.57,103.6 1560.56,109.779 1564.55,116.965 
  1568.54,125.147 1572.52,134.314 1576.51,144.45 1580.5,155.542 1584.49,167.57 1588.48,180.518 1592.46,194.365 1600.44,224.669 1608.42,258.299 1612.89,278.521 
  1617.36,299.683 1621.82,321.746 1626.29,344.665 1635.23,392.898 1644.17,444.011 1653.11,497.609 1662.05,553.281 1670.99,610.598 1679.93,669.118 1696.13,776.778 
  1712.33,884.187 1720.43,936.948 1728.53,988.633 1736.63,1038.91 1744.73,1087.48 1749.37,1114.38 1754,1140.57 1758.64,1165.98 1763.28,1190.56 1767.91,1214.27 
  1772.55,1237.05 1777.19,1258.85 1781.83,1279.63 1786.46,1299.35 1791.1,1317.97 1795.74,1335.44 1800.37,1351.73 1805.01,1366.82 1809.65,1380.65 1814.28,1393.22 
  1818.92,1404.49 1823.21,1413.74 1827.51,1421.84 1831.8,1428.78 1836.1,1434.55 1840.39,1439.12 1844.68,1442.5 1848.98,1444.68 1853.27,1445.66 1857.56,1445.43 
  1861.86,1443.99 1866.15,1441.35 1870.44,1437.51 1874.74,1432.48 1879.03,1426.26 1883.32,1418.88 1887.62,1410.33 1891.85,1400.79 1896.08,1390.15 1900.32,1378.43 
  1904.55,1365.66 1908.78,1351.85 1913.01,1337.03 1917.25,1321.23 1921.48,1304.46 1929.95,1268.19 1938.41,1228.44 1942.64,1207.36 1946.88,1185.51 1951.11,1162.94 
  1955.34,1139.69 1963.56,1092.73 1971.78,1043.66 1980,992.774 1988.22,940.422 2004.66,832.674 2021.1,723.214 2037.95,612.207 2054.8,505.424 2063.23,454.536 
  2071.66,405.786 2080.08,359.506 2088.51,316.013 2093.12,293.477 2097.74,271.913 2102.36,251.367 2106.97,231.879 2111.59,213.49 2116.2,196.238 2120.82,180.159 
  2125.44,165.284 2130.05,151.645 2134.67,139.271 2139.28,128.185 2143.9,118.411 2148.51,109.97 2153.13,102.878 2157.75,97.1501 2162.36,92.7979 2169.07,88.9442 
  2175.77,88.0288 2182.48,90.0556 2189.18,95.0158 2195.89,102.888 2202.59,113.638 2209.3,127.219 2216,143.572 2222.71,162.627 2229.42,184.301 2236.12,208.5 
  2242.83,235.119 2249.53,264.042 2256.24,295.145 2262.94,328.292 2269.65,363.341 2275.15,393.415 2280.65,424.579 2286.15,456.743 2291.66,489.812 
  "/>
<polyline clip-path="url(#clip362)" style="stroke:#c271d2; stroke-linecap:butt; stroke-linejoin:round; stroke-width:12; stroke-opacity:1; fill:none" points="
  255.035,766.847 258.35,744.751 261.664,722.68 264.979,700.655 268.294,678.7 283.62,578.774 298.945,483.1 306.608,437.539 314.27,393.841 321.933,352.254 
  329.596,313.014 337.259,276.343 344.921,242.447 352.584,211.52 360.247,183.736 364.078,171.072 367.91,159.252 371.741,148.291 375.572,138.206 383.235,120.719 
  390.898,106.889 395.503,100.37 400.108,95.2141 404.713,91.4313 409.318,89.0295 413.923,88.0136 418.527,88.3857 423.132,90.145 427.737,93.2879 432.342,97.8081 
  436.947,103.696 441.552,110.94 446.157,119.525 450.762,129.434 455.367,140.646 459.972,153.138 464.577,166.885 468.471,179.466 472.364,192.906 476.258,207.185 
  480.151,222.282 487.938,254.84 495.725,290.391 503.512,328.726 511.299,369.622 519.085,412.84 526.872,458.127 535.331,509.356 543.79,562.362 552.249,616.777 
  560.707,672.228 577.625,784.699 594.542,896.679 602.341,947.277 610.139,996.817 617.937,1045.01 625.735,1091.57 633.533,1136.23 641.332,1178.72 649.13,1218.8 
  656.928,1256.23 661.108,1275.13 665.289,1293.17 669.469,1310.32 673.649,1326.56 677.829,1341.85 682.01,1356.18 686.19,1369.51 690.37,1381.83 694.55,1393.11 
  698.731,1403.34 702.911,1412.49 707.091,1420.56 711.271,1427.52 715.452,1433.37 719.632,1438.1 723.812,1441.69 728.655,1444.44 733.499,1445.65 738.342,1445.33 
  743.185,1443.47 748.028,1440.09 752.872,1435.17 757.715,1428.75 762.558,1420.83 767.401,1411.44 772.245,1400.58 777.088,1388.29 781.931,1374.6 786.774,1359.53 
  791.617,1343.12 796.461,1325.41 801.304,1306.43 805.608,1288.54 809.912,1269.72 814.216,1250 818.52,1229.42 827.129,1185.81 835.737,1139.22 844.345,1089.96 
  852.953,1038.4 861.561,984.892 870.17,929.831 885.267,830.697 900.364,730.162 915.461,630.431 930.558,533.694 938.788,482.982 947.018,434.123 955.248,387.437 
  963.478,343.227 971.708,301.783 979.938,263.374 984.053,245.388 988.168,228.253 992.283,211.998 996.398,196.648 1000.54,182.147 1004.68,168.611 1008.82,156.064 
  1012.96,144.526 1017.1,134.017 1021.24,124.552 1025.37,116.15 1029.51,108.822 1033.65,102.581 1037.79,97.4381 1041.93,93.401 1046.07,90.4766 1050.21,88.6697 
  1054.35,87.9833 1058.49,88.4185 1062.63,89.9747 1067.21,92.9968 1071.78,97.3799 1076.36,103.115 1080.94,110.191 1085.51,118.592 1090.09,128.303 1094.67,139.304 
  1099.24,151.572 1103.82,165.083 1108.4,179.809 1112.97,195.721 1117.55,212.786 1122.13,230.97 1126.7,250.236 1131.28,270.546 1135.86,291.858 1144.57,335.026 
  1153.28,381.351 1161.98,430.494 1170.69,482.096 1179.4,535.779 1188.11,591.152 1196.82,647.809 1205.53,705.336 1223.64,825.917 1241.75,944.634 1250.81,1002.12 
  1259.86,1057.74 1268.92,1111.07 1277.98,1161.67 1285.6,1201.87 1293.22,1239.63 1300.84,1274.74 1308.47,1307.01 1316.09,1336.25 1323.71,1362.3 1327.52,1374.08 
  1331.34,1385.01 1335.15,1395.08 1338.96,1404.27 1343.61,1414.27 1348.27,1422.93 1352.92,1430.21 1357.57,1436.11 1362.23,1440.61 1366.88,1443.7 1371.53,1445.38 
  1376.19,1445.65 1380.84,1444.49 1385.49,1441.93 1390.15,1437.95 1394.8,1432.57 1399.45,1425.8 1404.11,1417.66 1408.76,1408.16 1413.41,1397.31 1417.67,1386.23 
  1421.94,1374.05 1426.2,1360.82 1430.46,1346.54 1434.73,1331.25 1438.99,1314.97 1443.25,1297.72 1447.51,1279.55 1456.04,1240.54 1464.57,1198.22 1473.09,1152.87 
  1481.62,1104.82 1489.49,1058.33 1497.36,1010.1 1505.24,960.417 1513.11,909.576 1528.86,805.642 1544.61,700.782 1560.56,596.181 1576.51,495.76 1584.49,447.891 
  1592.46,401.978 1600.44,358.302 1608.42,317.131 1612.89,295.25 1617.36,274.278 1621.82,254.255 1626.29,235.219 1630.76,217.207 1635.23,200.254 1639.7,184.392 
  1644.17,169.652 1648.64,156.062 1653.11,143.648 1657.58,132.435 1662.05,122.444 1666.52,113.694 1670.99,106.202 1675.46,99.9825 1679.93,95.0475 1683.98,91.6929 
  1688.03,89.4061 1692.08,88.1908 1696.13,88.0489 1700.18,88.9806 1704.23,90.9844 1708.28,94.0572 1712.33,98.1941 1716.38,103.389 1720.43,109.632 1724.48,116.916 
  1728.53,125.227 1732.58,134.553 1736.63,144.879 1740.68,156.189 1744.73,168.464 1749.37,183.68 1754,200.105 1758.64,217.704 1763.28,236.443 1767.91,256.28 
  1772.55,277.177 1777.19,299.088 1781.83,321.969 1791.1,370.45 1800.37,422.215 1809.65,476.838 1818.92,533.864 1836.1,644.199 1853.27,758.014 1870.44,872.08 
  1887.62,983.16 1896.08,1035.85 1904.55,1086.68 1913.01,1135.3 1921.48,1181.37 1929.95,1224.58 1938.41,1264.63 1942.64,1283.39 1946.88,1301.25 1951.11,1318.18 
  1955.34,1334.17 1959.45,1348.75 1963.56,1362.38 1967.67,1375.05 1971.78,1386.72 1975.89,1397.38 1980,1407.02 1984.11,1415.61 1988.22,1423.15 1992.33,1429.62 
  1996.44,1435.01 2000.55,1439.31 2004.66,1442.52 2008.77,1444.62 2012.88,1445.63 2016.99,1445.52 2021.1,1444.31 2025.31,1441.93 2029.53,1438.39 2033.74,1433.7 
  2037.95,1427.87 2042.16,1420.91 2046.38,1412.83 2050.59,1403.64 2054.8,1393.36 2059.02,1382.01 2063.23,1369.61 2067.44,1356.18 2071.66,1341.74 2075.87,1326.31 
  2080.08,1309.93 2084.3,1292.62 2088.51,1274.4 2093.12,1253.45 2097.74,1231.5 2102.36,1208.6 2106.97,1184.79 2116.2,1134.64 2125.44,1081.47 2134.67,1025.72 
  2143.9,967.836 2153.13,908.306 2162.36,847.613 2175.77,758.402 2189.18,669.336 2202.59,581.96 2216,497.785 2222.71,457.356 2229.42,418.27 2236.12,380.694 
  2242.83,344.791 2249.53,310.718 2256.24,278.623 2262.94,248.643 2269.65,220.909 2275.15,199.913 2280.65,180.572 2286.15,162.942 2291.66,147.075 
  "/>
<path clip-path="url(#clip360)" d="
M1986.78 354.418 L2280.8 354.418 L2280.8 95.2176 L1986.78 95.2176  Z
  " fill="#ffffff" fill-rule="evenodd" fill-opacity="1"/>
<polyline clip-path="url(#clip360)" style="stroke:#000000; stroke-linecap:butt; stroke-linejoin:round; stroke-width:4; stroke-opacity:1; fill:none" points="
  1986.78,354.418 2280.8,354.418 2280.8,95.2176 1986.78,95.2176 1986.78,354.418 
  "/>
<circle clip-path="url(#clip360)" cx="2082.73" cy="147.058" r="23.04" fill="#009af9" fill-rule="evenodd" fill-opacity="1" stroke="#000000" stroke-opacity="1" stroke-width="5.12"/>
<path clip-path="url(#clip360)" d="M2192.52 166.745 Q2190.72 171.375 2189 172.787 Q2187.29 174.199 2184.42 174.199 L2181.02 174.199 L2181.02 170.634 L2183.52 170.634 Q2185.28 170.634 2186.25 169.8 Q2187.22 168.967 2188.4 165.865 L2189.16 163.921 L2178.68 138.412 L2183.19 138.412 L2191.29 158.689 L2199.4 138.412 L2203.91 138.412 L2192.52 166.745 Z" fill="#000000" fill-rule="evenodd" fill-opacity="1" /><path clip-path="url(#clip360)" d="M2211.2 160.402 L2218.84 160.402 L2218.84 134.037 L2210.53 135.703 L2210.53 131.444 L2218.79 129.778 L2223.47 129.778 L2223.47 160.402 L2231.11 160.402 L2231.11 164.338 L2211.2 164.338 L2211.2 160.402 Z" fill="#000000" fill-rule="evenodd" fill-opacity="1" /><circle clip-path="url(#clip360)" cx="2082.73" cy="198.898" r="23.04" fill="#e26f46" fill-rule="evenodd" fill-opacity="1" stroke="#000000" stroke-opacity="1" stroke-width="5.12"/>
<path clip-path="url(#clip360)" d="M2192.52 218.585 Q2190.72 223.215 2189 224.627 Q2187.29 226.039 2184.42 226.039 L2181.02 226.039 L2181.02 222.474 L2183.52 222.474 Q2185.28 222.474 2186.25 221.64 Q2187.22 220.807 2188.4 217.705 L2189.16 215.761 L2178.68 190.252 L2183.19 190.252 L2191.29 210.529 L2199.4 190.252 L2203.91 190.252 L2192.52 218.585 Z" fill="#000000" fill-rule="evenodd" fill-opacity="1" /><path clip-path="url(#clip360)" d="M2214.42 212.242 L2230.74 212.242 L2230.74 216.178 L2208.79 216.178 L2208.79 212.242 Q2211.46 209.488 2216.04 204.858 Q2220.65 200.205 2221.83 198.863 Q2224.07 196.34 2224.95 194.604 Q2225.85 192.844 2225.85 191.155 Q2225.85 188.4 2223.91 186.664 Q2221.99 184.928 2218.89 184.928 Q2216.69 184.928 2214.23 185.692 Q2211.8 186.455 2209.03 188.006 L2209.03 183.284 Q2211.85 182.15 2214.3 181.571 Q2216.76 180.993 2218.79 180.993 Q2224.16 180.993 2227.36 183.678 Q2230.55 186.363 2230.55 190.854 Q2230.55 192.983 2229.74 194.905 Q2228.96 196.803 2226.85 199.395 Q2226.27 200.067 2223.17 203.284 Q2220.07 206.479 2214.42 212.242 Z" fill="#000000" fill-rule="evenodd" fill-opacity="1" /><polyline clip-path="url(#clip360)" style="stroke:#3da44d; stroke-linecap:butt; stroke-linejoin:round; stroke-width:4; stroke-opacity:1; fill:none" points="
  2010.77,250.738 2154.69,250.738 
  "/>
<path clip-path="url(#clip360)" d="M2192.52 270.425 Q2190.72 275.055 2189 276.467 Q2187.29 277.879 2184.42 277.879 L2181.02 277.879 L2181.02 274.314 L2183.52 274.314 Q2185.28 274.314 2186.25 273.48 Q2187.22 272.647 2188.4 269.545 L2189.16 267.601 L2178.68 242.092 L2183.19 242.092 L2191.29 262.369 L2199.4 242.092 L2203.91 242.092 L2192.52 270.425 Z" fill="#000000" fill-rule="evenodd" fill-opacity="1" /><path clip-path="url(#clip360)" d="M2224.56 249.383 Q2227.91 250.101 2229.79 252.369 Q2231.69 254.638 2231.69 257.971 Q2231.69 263.087 2228.17 265.888 Q2224.65 268.689 2218.17 268.689 Q2215.99 268.689 2213.68 268.249 Q2211.39 267.832 2208.93 266.976 L2208.93 262.462 Q2210.88 263.596 2213.19 264.175 Q2215.51 264.754 2218.03 264.754 Q2222.43 264.754 2224.72 263.018 Q2227.03 261.281 2227.03 257.971 Q2227.03 254.916 2224.88 253.203 Q2222.75 251.467 2218.93 251.467 L2214.9 251.467 L2214.9 247.624 L2219.12 247.624 Q2222.57 247.624 2224.4 246.258 Q2226.22 244.87 2226.22 242.277 Q2226.22 239.615 2224.33 238.203 Q2222.45 236.768 2218.93 236.768 Q2217.01 236.768 2214.81 237.184 Q2212.61 237.601 2209.97 238.481 L2209.97 234.314 Q2212.64 233.573 2214.95 233.203 Q2217.29 232.833 2219.35 232.833 Q2224.67 232.833 2227.78 235.263 Q2230.88 237.67 2230.88 241.791 Q2230.88 244.661 2229.23 246.652 Q2227.59 248.62 2224.56 249.383 Z" fill="#000000" fill-rule="evenodd" fill-opacity="1" /><polyline clip-path="url(#clip360)" style="stroke:#c271d2; stroke-linecap:butt; stroke-linejoin:round; stroke-width:4; stroke-opacity:1; fill:none" points="
  2010.77,302.578 2154.69,302.578 
  "/>
<path clip-path="url(#clip360)" d="M2192.52 322.265 Q2190.72 326.895 2189 328.307 Q2187.29 329.719 2184.42 329.719 L2181.02 329.719 L2181.02 326.154 L2183.52 326.154 Q2185.28 326.154 2186.25 325.32 Q2187.22 324.487 2188.4 321.385 L2189.16 319.441 L2178.68 293.932 L2183.19 293.932 L2191.29 314.209 L2199.4 293.932 L2203.91 293.932 L2192.52 322.265 Z" fill="#000000" fill-rule="evenodd" fill-opacity="1" /><path clip-path="url(#clip360)" d="M2223.24 289.372 L2211.43 307.821 L2223.24 307.821 L2223.24 289.372 M2222.01 285.298 L2227.89 285.298 L2227.89 307.821 L2232.82 307.821 L2232.82 311.709 L2227.89 311.709 L2227.89 319.858 L2223.24 319.858 L2223.24 311.709 L2207.64 311.709 L2207.64 307.196 L2222.01 285.298 Z" fill="#000000" fill-rule="evenodd" fill-opacity="1" /></svg>
