<?xml version="1.0" encoding="utf-8"?>
<svg xmlns="http://www.w3.org/2000/svg" xmlns:xlink="http://www.w3.org/1999/xlink" width="600" height="400" viewBox="0 0 2400 1600">
<defs>
  <clipPath id="clip480">
    <rect x="0" y="0" width="2400" height="1600"/>
  </clipPath>
</defs>
<path clip-path="url(#clip480)" d="
M0 1600 L2400 1600 L2400 0 L0 0  Z
  " fill="#ffffff" fill-rule="evenodd" fill-opacity="1"/>
<defs>
  <clipPath id="clip481">
    <rect x="480" y="0" width="1681" height="1600"/>
  </clipPath>
</defs>
<path clip-path="url(#clip480)" d="
M186.274 1486.45 L2352.76 1486.45 L2352.76 47.2441 L186.274 47.2441  Z
  " fill="#ffffff" fill-rule="evenodd" fill-opacity="1"/>
<defs>
  <clipPath id="clip482">
    <rect x="186" y="47" width="2167" height="1440"/>
  </clipPath>
</defs>
<polyline clip-path="url(#clip482)" style="stroke:#000000; stroke-linecap:butt; stroke-linejoin:round; stroke-width:2; stroke-opacity:0.1; fill:none" points="
  247.59,1486.45 247.59,47.2441 
  "/>
<polyline clip-path="url(#clip482)" style="stroke:#000000; stroke-linecap:butt; stroke-linejoin:round; stroke-width:2; stroke-opacity:0.1; fill:none" points="
  763.713,1486.45 763.713,47.2441 
  "/>
<polyline clip-path="url(#clip482)" style="stroke:#000000; stroke-linecap:butt; stroke-linejoin:round; stroke-width:2; stroke-opacity:0.1; fill:none" points="
  1279.84,1486.45 1279.84,47.2441 
  "/>
<polyline clip-path="url(#clip482)" style="stroke:#000000; stroke-linecap:butt; stroke-linejoin:round; stroke-width:2; stroke-opacity:0.1; fill:none" points="
  1795.96,1486.45 1795.96,47.2441 
  "/>
<polyline clip-path="url(#clip482)" style="stroke:#000000; stroke-linecap:butt; stroke-linejoin:round; stroke-width:2; stroke-opacity:0.1; fill:none" points="
  2312.09,1486.45 2312.09,47.2441 
  "/>
<polyline clip-path="url(#clip480)" style="stroke:#000000; stroke-linecap:butt; stroke-linejoin:round; stroke-width:4; stroke-opacity:1; fill:none" points="
  186.274,1486.45 2352.76,1486.45 
  "/>
<polyline clip-path="url(#clip480)" style="stroke:#000000; stroke-linecap:butt; stroke-linejoin:round; stroke-width:4; stroke-opacity:1; fill:none" points="
  247.59,1486.45 247.59,1467.55 
  "/>
<polyline clip-path="url(#clip480)" style="stroke:#000000; stroke-linecap:butt; stroke-linejoin:round; stroke-width:4; stroke-opacity:1; fill:none" points="
  763.713,1486.45 763.713,1467.55 
  "/>
<polyline clip-path="url(#clip480)" style="stroke:#000000; stroke-linecap:butt; stroke-linejoin:round; stroke-width:4; stroke-opacity:1; fill:none" points="
  1279.84,1486.45 1279.84,1467.55 
  "/>
<polyline clip-path="url(#clip480)" style="stroke:#000000; stroke-linecap:butt; stroke-linejoin:round; stroke-width:4; stroke-opacity:1; fill:none" points="
  1795.96,1486.45 1795.96,1467.55 
  "/>
<polyline clip-path="url(#clip480)" style="stroke:#000000; stroke-linecap:butt; stroke-linejoin:round; stroke-width:4; stroke-opacity:1; fill:none" points="
  2312.09,1486.45 2312.09,1467.55 
  "/>
<path clip-path="url(#clip480)" d="M194.118 1532.02 L223.793 1532.02 L223.793 1535.95 L194.118 1535.95 L194.118 1532.02 Z" fill="#000000" fill-rule="evenodd" fill-opacity="1" /><path clip-path="url(#clip480)" d="M234.696 1544.91 L242.335 1544.91 L242.335 1518.55 L234.025 1520.21 L234.025 1515.95 L242.289 1514.29 L246.965 1514.29 L246.965 1544.91 L254.603 1544.91 L254.603 1548.85 L234.696 1548.85 L234.696 1544.91 Z" fill="#000000" fill-rule="evenodd" fill-opacity="1" /><path clip-path="url(#clip480)" d="M264.048 1542.97 L268.932 1542.97 L268.932 1548.85 L264.048 1548.85 L264.048 1542.97 Z" fill="#000000" fill-rule="evenodd" fill-opacity="1" /><path clip-path="url(#clip480)" d="M289.117 1517.37 Q285.506 1517.37 283.677 1520.93 Q281.872 1524.47 281.872 1531.6 Q281.872 1538.71 283.677 1542.27 Q285.506 1545.82 289.117 1545.82 Q292.751 1545.82 294.557 1542.27 Q296.386 1538.71 296.386 1531.6 Q296.386 1524.47 294.557 1520.93 Q292.751 1517.37 289.117 1517.37 M289.117 1513.66 Q294.927 1513.66 297.983 1518.27 Q301.061 1522.85 301.061 1531.6 Q301.061 1540.33 297.983 1544.94 Q294.927 1549.52 289.117 1549.52 Q283.307 1549.52 280.228 1544.94 Q277.173 1540.33 277.173 1531.6 Q277.173 1522.85 280.228 1518.27 Q283.307 1513.66 289.117 1513.66 Z" fill="#000000" fill-rule="evenodd" fill-opacity="1" /><path clip-path="url(#clip480)" d="M710.739 1532.02 L740.415 1532.02 L740.415 1535.95 L710.739 1535.95 L710.739 1532.02 Z" fill="#000000" fill-rule="evenodd" fill-opacity="1" /><path clip-path="url(#clip480)" d="M760.507 1517.37 Q756.896 1517.37 755.068 1520.93 Q753.262 1524.47 753.262 1531.6 Q753.262 1538.71 755.068 1542.27 Q756.896 1545.82 760.507 1545.82 Q764.142 1545.82 765.947 1542.27 Q767.776 1538.71 767.776 1531.6 Q767.776 1524.47 765.947 1520.93 Q764.142 1517.37 760.507 1517.37 M760.507 1513.66 Q766.318 1513.66 769.373 1518.27 Q772.452 1522.85 772.452 1531.6 Q772.452 1540.33 769.373 1544.94 Q766.318 1549.52 760.507 1549.52 Q754.697 1549.52 751.619 1544.94 Q748.563 1540.33 748.563 1531.6 Q748.563 1522.85 751.619 1518.27 Q754.697 1513.66 760.507 1513.66 Z" fill="#000000" fill-rule="evenodd" fill-opacity="1" /><path clip-path="url(#clip480)" d="M780.669 1542.97 L785.554 1542.97 L785.554 1548.85 L780.669 1548.85 L780.669 1542.97 Z" fill="#000000" fill-rule="evenodd" fill-opacity="1" /><path clip-path="url(#clip480)" d="M795.785 1514.29 L814.141 1514.29 L814.141 1518.22 L800.067 1518.22 L800.067 1526.7 Q801.086 1526.35 802.104 1526.19 Q803.123 1526 804.142 1526 Q809.929 1526 813.308 1529.17 Q816.688 1532.34 816.688 1537.76 Q816.688 1543.34 813.216 1546.44 Q809.743 1549.52 803.424 1549.52 Q801.248 1549.52 798.979 1549.15 Q796.734 1548.78 794.327 1548.04 L794.327 1543.34 Q796.41 1544.47 798.632 1545.03 Q800.854 1545.58 803.331 1545.58 Q807.336 1545.58 809.674 1543.48 Q812.012 1541.37 812.012 1537.76 Q812.012 1534.15 809.674 1532.04 Q807.336 1529.94 803.331 1529.94 Q801.456 1529.94 799.581 1530.35 Q797.73 1530.77 795.785 1531.65 L795.785 1514.29 Z" fill="#000000" fill-rule="evenodd" fill-opacity="1" /><path clip-path="url(#clip480)" d="M1257.22 1517.37 Q1253.61 1517.37 1251.78 1520.93 Q1249.98 1524.47 1249.98 1531.6 Q1249.98 1538.71 1251.78 1542.27 Q1253.61 1545.82 1257.22 1545.82 Q1260.86 1545.82 1262.66 1542.27 Q1264.49 1538.71 1264.49 1531.6 Q1264.49 1524.47 1262.66 1520.93 Q1260.86 1517.37 1257.22 1517.37 M1257.22 1513.66 Q1263.03 1513.66 1266.09 1518.27 Q1269.17 1522.85 1269.17 1531.6 Q1269.17 1540.33 1266.09 1544.94 Q1263.03 1549.52 1257.22 1549.52 Q1251.41 1549.52 1248.33 1544.94 Q1245.28 1540.33 1245.28 1531.6 Q1245.28 1522.85 1248.33 1518.27 Q1251.41 1513.66 1257.22 1513.66 Z" fill="#000000" fill-rule="evenodd" fill-opacity="1" /><path clip-path="url(#clip480)" d="M1277.38 1542.97 L1282.27 1542.97 L1282.27 1548.85 L1277.38 1548.85 L1277.38 1542.97 Z" fill="#000000" fill-rule="evenodd" fill-opacity="1" /><path clip-path="url(#clip480)" d="M1302.45 1517.37 Q1298.84 1517.37 1297.01 1520.93 Q1295.21 1524.47 1295.21 1531.6 Q1295.21 1538.71 1297.01 1542.27 Q1298.84 1545.82 1302.45 1545.82 Q1306.09 1545.82 1307.89 1542.27 Q1309.72 1538.71 1309.72 1531.6 Q1309.72 1524.47 1307.89 1520.93 Q1306.09 1517.37 1302.45 1517.37 M1302.45 1513.66 Q1308.26 1513.66 1311.32 1518.27 Q1314.4 1522.85 1314.4 1531.6 Q1314.4 1540.33 1311.32 1544.94 Q1308.26 1549.52 1302.45 1549.52 Q1296.64 1549.52 1293.56 1544.94 Q1290.51 1540.33 1290.51 1531.6 Q1290.51 1522.85 1293.56 1518.27 Q1296.64 1513.66 1302.45 1513.66 Z" fill="#000000" fill-rule="evenodd" fill-opacity="1" /><path clip-path="url(#clip480)" d="M1773.84 1517.37 Q1770.23 1517.37 1768.4 1520.93 Q1766.6 1524.47 1766.6 1531.6 Q1766.6 1538.71 1768.4 1542.27 Q1770.23 1545.82 1773.84 1545.82 Q1777.48 1545.82 1779.28 1542.27 Q1781.11 1538.71 1781.11 1531.6 Q1781.11 1524.47 1779.28 1520.93 Q1777.48 1517.37 1773.84 1517.37 M1773.84 1513.66 Q1779.65 1513.66 1782.71 1518.27 Q1785.79 1522.85 1785.79 1531.6 Q1785.79 1540.33 1782.71 1544.94 Q1779.65 1549.52 1773.84 1549.52 Q1768.03 1549.52 1764.95 1544.94 Q1761.9 1540.33 1761.9 1531.6 Q1761.9 1522.85 1764.95 1518.27 Q1768.03 1513.66 1773.84 1513.66 Z" fill="#000000" fill-rule="evenodd" fill-opacity="1" /><path clip-path="url(#clip480)" d="M1794.01 1542.97 L1798.89 1542.97 L1798.89 1548.85 L1794.01 1548.85 L1794.01 1542.97 Z" fill="#000000" fill-rule="evenodd" fill-opacity="1" /><path clip-path="url(#clip480)" d="M1809.12 1514.29 L1827.48 1514.29 L1827.48 1518.22 L1813.4 1518.22 L1813.4 1526.7 Q1814.42 1526.35 1815.44 1526.19 Q1816.46 1526 1817.48 1526 Q1823.26 1526 1826.64 1529.17 Q1830.02 1532.34 1830.02 1537.76 Q1830.02 1543.34 1826.55 1546.44 Q1823.08 1549.52 1816.76 1549.52 Q1814.58 1549.52 1812.32 1549.15 Q1810.07 1548.78 1807.66 1548.04 L1807.66 1543.34 Q1809.75 1544.47 1811.97 1545.03 Q1814.19 1545.58 1816.67 1545.58 Q1820.67 1545.58 1823.01 1543.48 Q1825.35 1541.37 1825.35 1537.76 Q1825.35 1534.15 1823.01 1532.04 Q1820.67 1529.94 1816.67 1529.94 Q1814.79 1529.94 1812.92 1530.35 Q1811.07 1530.77 1809.12 1531.65 L1809.12 1514.29 Z" fill="#000000" fill-rule="evenodd" fill-opacity="1" /><path clip-path="url(#clip480)" d="M2279.24 1544.91 L2286.88 1544.91 L2286.88 1518.55 L2278.57 1520.21 L2278.57 1515.95 L2286.83 1514.29 L2291.51 1514.29 L2291.51 1544.91 L2299.15 1544.91 L2299.15 1548.85 L2279.24 1548.85 L2279.24 1544.91 Z" fill="#000000" fill-rule="evenodd" fill-opacity="1" /><path clip-path="url(#clip480)" d="M2308.59 1542.97 L2313.47 1542.97 L2313.47 1548.85 L2308.59 1548.85 L2308.59 1542.97 Z" fill="#000000" fill-rule="evenodd" fill-opacity="1" /><path clip-path="url(#clip480)" d="M2333.66 1517.37 Q2330.05 1517.37 2328.22 1520.93 Q2326.41 1524.47 2326.41 1531.6 Q2326.41 1538.71 2328.22 1542.27 Q2330.05 1545.82 2333.66 1545.82 Q2337.29 1545.82 2339.1 1542.27 Q2340.93 1538.71 2340.93 1531.6 Q2340.93 1524.47 2339.1 1520.93 Q2337.29 1517.37 2333.66 1517.37 M2333.66 1513.66 Q2339.47 1513.66 2342.52 1518.27 Q2345.6 1522.85 2345.6 1531.6 Q2345.6 1540.33 2342.52 1544.94 Q2339.47 1549.52 2333.66 1549.52 Q2327.85 1549.52 2324.77 1544.94 Q2321.71 1540.33 2321.71 1531.6 Q2321.71 1522.85 2324.77 1518.27 Q2327.85 1513.66 2333.66 1513.66 Z" fill="#000000" fill-rule="evenodd" fill-opacity="1" /><polyline clip-path="url(#clip482)" style="stroke:#000000; stroke-linecap:butt; stroke-linejoin:round; stroke-width:2; stroke-opacity:0.1; fill:none" points="
  186.274,1445.72 2352.76,1445.72 
  "/>
<polyline clip-path="url(#clip482)" style="stroke:#000000; stroke-linecap:butt; stroke-linejoin:round; stroke-width:2; stroke-opacity:0.1; fill:none" points="
  186.274,1106.28 2352.76,1106.28 
  "/>
<polyline clip-path="url(#clip482)" style="stroke:#000000; stroke-linecap:butt; stroke-linejoin:round; stroke-width:2; stroke-opacity:0.1; fill:none" points="
  186.274,766.846 2352.76,766.846 
  "/>
<polyline clip-path="url(#clip482)" style="stroke:#000000; stroke-linecap:butt; stroke-linejoin:round; stroke-width:2; stroke-opacity:0.1; fill:none" points="
  186.274,427.411 2352.76,427.411 
  "/>
<polyline clip-path="url(#clip482)" style="stroke:#000000; stroke-linecap:butt; stroke-linejoin:round; stroke-width:2; stroke-opacity:0.1; fill:none" points="
  186.274,87.9763 2352.76,87.9763 
  "/>
<polyline clip-path="url(#clip480)" style="stroke:#000000; stroke-linecap:butt; stroke-linejoin:round; stroke-width:4; stroke-opacity:1; fill:none" points="
  186.274,1486.45 186.274,47.2441 
  "/>
<polyline clip-path="url(#clip480)" style="stroke:#000000; stroke-linecap:butt; stroke-linejoin:round; stroke-width:4; stroke-opacity:1; fill:none" points="
  186.274,1445.72 205.172,1445.72 
  "/>
<polyline clip-path="url(#clip480)" style="stroke:#000000; stroke-linecap:butt; stroke-linejoin:round; stroke-width:4; stroke-opacity:1; fill:none" points="
  186.274,1106.28 205.172,1106.28 
  "/>
<polyline clip-path="url(#clip480)" style="stroke:#000000; stroke-linecap:butt; stroke-linejoin:round; stroke-width:4; stroke-opacity:1; fill:none" points="
  186.274,766.846 205.172,766.846 
  "/>
<polyline clip-path="url(#clip480)" style="stroke:#000000; stroke-linecap:butt; stroke-linejoin:round; stroke-width:4; stroke-opacity:1; fill:none" points="
  186.274,427.411 205.172,427.411 
  "/>
<polyline clip-path="url(#clip480)" style="stroke:#000000; stroke-linecap:butt; stroke-linejoin:round; stroke-width:4; stroke-opacity:1; fill:none" points="
  186.274,87.9763 205.172,87.9763 
  "/>
<path clip-path="url(#clip480)" d="M62.9365 1431.51 Q59.3254 1431.51 57.4967 1435.08 Q55.6912 1438.62 55.6912 1445.75 Q55.6912 1452.86 57.4967 1456.42 Q59.3254 1459.96 62.9365 1459.96 Q66.5707 1459.96 68.3763 1456.42 Q70.205 1452.86 70.205 1445.75 Q70.205 1438.62 68.3763 1435.08 Q66.5707 1431.51 62.9365 1431.51 M62.9365 1427.81 Q68.7467 1427.81 71.8022 1432.42 Q74.8809 1437 74.8809 1445.75 Q74.8809 1454.48 71.8022 1459.08 Q68.7467 1463.67 62.9365 1463.67 Q57.1264 1463.67 54.0477 1459.08 Q50.9921 1454.48 50.9921 1445.75 Q50.9921 1437 54.0477 1432.42 Q57.1264 1427.81 62.9365 1427.81 Z" fill="#000000" fill-rule="evenodd" fill-opacity="1" /><path clip-path="url(#clip480)" d="M83.0984 1457.12 L87.9827 1457.12 L87.9827 1463 L83.0984 1463 L83.0984 1457.12 Z" fill="#000000" fill-rule="evenodd" fill-opacity="1" /><path clip-path="url(#clip480)" d="M108.168 1431.51 Q104.557 1431.51 102.728 1435.08 Q100.922 1438.62 100.922 1445.75 Q100.922 1452.86 102.728 1456.42 Q104.557 1459.96 108.168 1459.96 Q111.802 1459.96 113.608 1456.42 Q115.436 1452.86 115.436 1445.75 Q115.436 1438.62 113.608 1435.08 Q111.802 1431.51 108.168 1431.51 M108.168 1427.81 Q113.978 1427.81 117.033 1432.42 Q120.112 1437 120.112 1445.75 Q120.112 1454.48 117.033 1459.08 Q113.978 1463.67 108.168 1463.67 Q102.358 1463.67 99.2789 1459.08 Q96.2234 1454.48 96.2234 1445.75 Q96.2234 1437 99.2789 1432.42 Q102.358 1427.81 108.168 1427.81 Z" fill="#000000" fill-rule="evenodd" fill-opacity="1" /><path clip-path="url(#clip480)" d="M138.33 1431.51 Q134.719 1431.51 132.89 1435.08 Q131.084 1438.62 131.084 1445.75 Q131.084 1452.86 132.89 1456.42 Q134.719 1459.96 138.33 1459.96 Q141.964 1459.96 143.769 1456.42 Q145.598 1452.86 145.598 1445.75 Q145.598 1438.62 143.769 1435.08 Q141.964 1431.51 138.33 1431.51 M138.33 1427.81 Q144.14 1427.81 147.195 1432.42 Q150.274 1437 150.274 1445.75 Q150.274 1454.48 147.195 1459.08 Q144.14 1463.67 138.33 1463.67 Q132.519 1463.67 129.441 1459.08 Q126.385 1454.48 126.385 1445.75 Q126.385 1437 129.441 1432.42 Q132.519 1427.81 138.33 1427.81 Z" fill="#000000" fill-rule="evenodd" fill-opacity="1" /><path clip-path="url(#clip480)" d="M63.9319 1092.08 Q60.3208 1092.08 58.4921 1095.64 Q56.6865 1099.19 56.6865 1106.32 Q56.6865 1113.42 58.4921 1116.99 Q60.3208 1120.53 63.9319 1120.53 Q67.5661 1120.53 69.3717 1116.99 Q71.2004 1113.42 71.2004 1106.32 Q71.2004 1099.19 69.3717 1095.64 Q67.5661 1092.08 63.9319 1092.08 M63.9319 1088.38 Q69.742 1088.38 72.7976 1092.98 Q75.8763 1097.57 75.8763 1106.32 Q75.8763 1115.04 72.7976 1119.65 Q69.742 1124.23 63.9319 1124.23 Q58.1217 1124.23 55.043 1119.65 Q51.9875 1115.04 51.9875 1106.32 Q51.9875 1097.57 55.043 1092.98 Q58.1217 1088.38 63.9319 1088.38 Z" fill="#000000" fill-rule="evenodd" fill-opacity="1" /><path clip-path="url(#clip480)" d="M84.0938 1117.68 L88.978 1117.68 L88.978 1123.56 L84.0938 1123.56 L84.0938 1117.68 Z" fill="#000000" fill-rule="evenodd" fill-opacity="1" /><path clip-path="url(#clip480)" d="M103.191 1119.63 L119.51 1119.63 L119.51 1123.56 L97.566 1123.56 L97.566 1119.63 Q100.228 1116.87 104.811 1112.24 Q109.418 1107.59 110.598 1106.25 Q112.844 1103.72 113.723 1101.99 Q114.626 1100.23 114.626 1098.54 Q114.626 1095.78 112.682 1094.05 Q110.76 1092.31 107.658 1092.31 Q105.459 1092.31 103.006 1093.07 Q100.575 1093.84 97.7974 1095.39 L97.7974 1090.67 Q100.621 1089.53 103.075 1088.95 Q105.529 1088.38 107.566 1088.38 Q112.936 1088.38 116.131 1091.06 Q119.325 1093.75 119.325 1098.24 Q119.325 1100.37 118.515 1102.29 Q117.728 1104.19 115.621 1106.78 Q115.043 1107.45 111.941 1110.67 Q108.839 1113.86 103.191 1119.63 Z" fill="#000000" fill-rule="evenodd" fill-opacity="1" /><path clip-path="url(#clip480)" d="M129.371 1089 L147.728 1089 L147.728 1092.94 L133.654 1092.94 L133.654 1101.41 Q134.672 1101.06 135.691 1100.9 Q136.709 1100.71 137.728 1100.71 Q143.515 1100.71 146.894 1103.89 Q150.274 1107.06 150.274 1112.47 Q150.274 1118.05 146.802 1121.15 Q143.33 1124.23 137.01 1124.23 Q134.834 1124.23 132.566 1123.86 Q130.32 1123.49 127.913 1122.75 L127.913 1118.05 Q129.996 1119.19 132.219 1119.74 Q134.441 1120.3 136.918 1120.3 Q140.922 1120.3 143.26 1118.19 Q145.598 1116.08 145.598 1112.47 Q145.598 1108.86 143.26 1106.76 Q140.922 1104.65 136.918 1104.65 Q135.043 1104.65 133.168 1105.07 Q131.316 1105.48 129.371 1106.36 L129.371 1089 Z" fill="#000000" fill-rule="evenodd" fill-opacity="1" /><path clip-path="url(#clip480)" d="M62.9365 752.645 Q59.3254 752.645 57.4967 756.209 Q55.6912 759.751 55.6912 766.881 Q55.6912 773.987 57.4967 777.552 Q59.3254 781.094 62.9365 781.094 Q66.5707 781.094 68.3763 777.552 Q70.205 773.987 70.205 766.881 Q70.205 759.751 68.3763 756.209 Q66.5707 752.645 62.9365 752.645 M62.9365 748.941 Q68.7467 748.941 71.8022 753.547 Q74.8809 758.131 74.8809 766.881 Q74.8809 775.608 71.8022 780.214 Q68.7467 784.797 62.9365 784.797 Q57.1264 784.797 54.0477 780.214 Q50.9921 775.608 50.9921 766.881 Q50.9921 758.131 54.0477 753.547 Q57.1264 748.941 62.9365 748.941 Z" fill="#000000" fill-rule="evenodd" fill-opacity="1" /><path clip-path="url(#clip480)" d="M83.0984 778.246 L87.9827 778.246 L87.9827 784.126 L83.0984 784.126 L83.0984 778.246 Z" fill="#000000" fill-rule="evenodd" fill-opacity="1" /><path clip-path="url(#clip480)" d="M98.2141 749.566 L116.57 749.566 L116.57 753.501 L102.496 753.501 L102.496 761.973 Q103.515 761.626 104.534 761.464 Q105.552 761.279 106.571 761.279 Q112.358 761.279 115.737 764.45 Q119.117 767.621 119.117 773.038 Q119.117 778.617 115.645 781.719 Q112.172 784.797 105.853 784.797 Q103.677 784.797 101.409 784.427 Q99.1632 784.057 96.7558 783.316 L96.7558 778.617 Q98.8391 779.751 101.061 780.307 Q103.284 780.862 105.76 780.862 Q109.765 780.862 112.103 778.756 Q114.441 776.649 114.441 773.038 Q114.441 769.427 112.103 767.321 Q109.765 765.214 105.76 765.214 Q103.885 765.214 102.01 765.631 Q100.159 766.047 98.2141 766.927 L98.2141 749.566 Z" fill="#000000" fill-rule="evenodd" fill-opacity="1" /><path clip-path="url(#clip480)" d="M138.33 752.645 Q134.719 752.645 132.89 756.209 Q131.084 759.751 131.084 766.881 Q131.084 773.987 132.89 777.552 Q134.719 781.094 138.33 781.094 Q141.964 781.094 143.769 777.552 Q145.598 773.987 145.598 766.881 Q145.598 759.751 143.769 756.209 Q141.964 752.645 138.33 752.645 M138.33 748.941 Q144.14 748.941 147.195 753.547 Q150.274 758.131 150.274 766.881 Q150.274 775.608 147.195 780.214 Q144.14 784.797 138.33 784.797 Q132.519 784.797 129.441 780.214 Q126.385 775.608 126.385 766.881 Q126.385 758.131 129.441 753.547 Q132.519 748.941 138.33 748.941 Z" fill="#000000" fill-rule="evenodd" fill-opacity="1" /><path clip-path="url(#clip480)" d="M63.9319 413.21 Q60.3208 413.21 58.4921 416.775 Q56.6865 420.316 56.6865 427.446 Q56.6865 434.552 58.4921 438.117 Q60.3208 441.659 63.9319 441.659 Q67.5661 441.659 69.3717 438.117 Q71.2004 434.552 71.2004 427.446 Q71.2004 420.316 69.3717 416.775 Q67.5661 413.21 63.9319 413.21 M63.9319 409.506 Q69.742 409.506 72.7976 414.113 Q75.8763 418.696 75.8763 427.446 Q75.8763 436.173 72.7976 440.779 Q69.742 445.362 63.9319 445.362 Q58.1217 445.362 55.043 440.779 Q51.9875 436.173 51.9875 427.446 Q51.9875 418.696 55.043 414.113 Q58.1217 409.506 63.9319 409.506 Z" fill="#000000" fill-rule="evenodd" fill-opacity="1" /><path clip-path="url(#clip480)" d="M84.0938 438.812 L88.978 438.812 L88.978 444.691 L84.0938 444.691 L84.0938 438.812 Z" fill="#000000" fill-rule="evenodd" fill-opacity="1" /><path clip-path="url(#clip480)" d="M97.9826 410.131 L120.205 410.131 L120.205 412.122 L107.658 444.691 L102.774 444.691 L114.58 414.066 L97.9826 414.066 L97.9826 410.131 Z" fill="#000000" fill-rule="evenodd" fill-opacity="1" /><path clip-path="url(#clip480)" d="M129.371 410.131 L147.728 410.131 L147.728 414.066 L133.654 414.066 L133.654 422.538 Q134.672 422.191 135.691 422.029 Q136.709 421.844 137.728 421.844 Q143.515 421.844 146.894 425.015 Q150.274 428.187 150.274 433.603 Q150.274 439.182 146.802 442.284 Q143.33 445.362 137.01 445.362 Q134.834 445.362 132.566 444.992 Q130.32 444.622 127.913 443.881 L127.913 439.182 Q129.996 440.316 132.219 440.872 Q134.441 441.427 136.918 441.427 Q140.922 441.427 143.26 439.321 Q145.598 437.214 145.598 433.603 Q145.598 429.992 143.26 427.886 Q140.922 425.779 136.918 425.779 Q135.043 425.779 133.168 426.196 Q131.316 426.613 129.371 427.492 L129.371 410.131 Z" fill="#000000" fill-rule="evenodd" fill-opacity="1" /><path clip-path="url(#clip480)" d="M53.7467 101.321 L61.3856 101.321 L61.3856 74.9555 L53.0754 76.6222 L53.0754 72.3629 L61.3393 70.6963 L66.0152 70.6963 L66.0152 101.321 L73.654 101.321 L73.654 105.256 L53.7467 105.256 L53.7467 101.321 Z" fill="#000000" fill-rule="evenodd" fill-opacity="1" /><path clip-path="url(#clip480)" d="M83.0984 99.3767 L87.9827 99.3767 L87.9827 105.256 L83.0984 105.256 L83.0984 99.3767 Z" fill="#000000" fill-rule="evenodd" fill-opacity="1" /><path clip-path="url(#clip480)" d="M108.168 73.775 Q104.557 73.775 102.728 77.3398 Q100.922 80.8814 100.922 88.011 Q100.922 95.1174 102.728 98.6822 Q104.557 102.224 108.168 102.224 Q111.802 102.224 113.608 98.6822 Q115.436 95.1174 115.436 88.011 Q115.436 80.8814 113.608 77.3398 Q111.802 73.775 108.168 73.775 M108.168 70.0713 Q113.978 70.0713 117.033 74.6777 Q120.112 79.261 120.112 88.011 Q120.112 96.7378 117.033 101.344 Q113.978 105.928 108.168 105.928 Q102.358 105.928 99.2789 101.344 Q96.2234 96.7378 96.2234 88.011 Q96.2234 79.261 99.2789 74.6777 Q102.358 70.0713 108.168 70.0713 Z" fill="#000000" fill-rule="evenodd" fill-opacity="1" /><path clip-path="url(#clip480)" d="M138.33 73.775 Q134.719 73.775 132.89 77.3398 Q131.084 80.8814 131.084 88.011 Q131.084 95.1174 132.89 98.6822 Q134.719 102.224 138.33 102.224 Q141.964 102.224 143.769 98.6822 Q145.598 95.1174 145.598 88.011 Q145.598 80.8814 143.769 77.3398 Q141.964 73.775 138.33 73.775 M138.33 70.0713 Q144.14 70.0713 147.195 74.6777 Q150.274 79.261 150.274 88.011 Q150.274 96.7378 147.195 101.344 Q144.14 105.928 138.33 105.928 Q132.519 105.928 129.441 101.344 Q126.385 96.7378 126.385 88.011 Q126.385 79.261 129.441 74.6777 Q132.519 70.0713 138.33 70.0713 Z" fill="#000000" fill-rule="evenodd" fill-opacity="1" /><polyline clip-path="url(#clip482)" style="stroke:#009af9; stroke-linecap:butt; stroke-linejoin:round; stroke-width:12; stroke-opacity:1; fill:none" points="
  247.59,1445.72 268.234,1445.72 288.879,1445.72 309.524,1445.72 330.169,1445.72 350.814,1445.72 371.459,1445.72 392.104,1445.72 412.749,1445.72 433.394,1445.72 
  454.039,1445.72 474.684,1445.72 495.329,1445.72 515.974,1445.72 536.619,1445.72 557.264,1445.72 577.909,1445.72 598.554,1445.72 619.199,1445.72 639.844,1445.72 
  660.489,1445.72 681.134,1445.72 701.779,1445.72 722.424,1445.72 743.069,1445.72 763.713,1445.72 784.358,1445.72 805.003,1445.72 825.648,1445.72 846.293,1445.72 
  866.938,1445.72 887.583,1445.72 908.228,1445.72 928.873,1445.72 949.518,1445.72 970.163,1445.72 990.808,1445.72 1011.45,1445.71 1032.1,1445.7 1052.74,1445.63 
  1073.39,1445.26 1094.03,1443.63 1114.68,1437.6 1135.32,1418.78 1155.97,1369.5 1176.61,1261.97 1197.26,1068.21 1217.9,784.833 1238.55,459.795 1259.19,192.364 
  1279.84,87.9763 1300.48,192.364 1321.13,459.795 1341.77,784.833 1362.42,1068.21 1383.06,1261.97 1403.71,1369.5 1424.35,1418.78 1445,1437.6 1465.64,1443.63 
  1486.29,1445.26 1506.93,1445.63 1527.58,1445.7 1548.22,1445.71 1568.87,1445.72 1589.51,1445.72 1610.16,1445.72 1630.8,1445.72 1651.45,1445.72 1672.09,1445.72 
  1692.74,1445.72 1713.38,1445.72 1734.03,1445.72 1754.67,1445.72 1775.32,1445.72 1795.96,1445.72 1816.61,1445.72 1837.25,1445.72 1857.9,1445.72 1878.54,1445.72 
  1899.19,1445.72 1919.83,1445.72 1940.48,1445.72 1961.12,1445.72 1981.77,1445.72 2002.41,1445.72 2023.06,1445.72 2043.7,1445.72 2064.35,1445.72 2084.99,1445.72 
  2105.64,1445.72 2126.28,1445.72 2146.93,1445.72 2167.57,1445.72 2188.22,1445.72 2208.86,1445.72 2229.51,1445.72 2250.15,1445.72 2270.8,1445.72 2291.44,1445.72 
  
  "/>
<polyline clip-path="url(#clip482)" style="stroke:#e26f46; stroke-linecap:butt; stroke-linejoin:round; stroke-width:12; stroke-opacity:1; fill:none" points="
  247.59,1422.61 268.234,1422.56 288.879,1422.42 309.524,1422.19 330.169,1421.87 350.814,1421.44 371.459,1420.93 392.104,1420.31 412.749,1419.59 433.394,1418.77 
  454.039,1417.83 474.684,1416.79 495.329,1415.63 515.974,1414.35 536.619,1412.95 557.264,1411.41 577.909,1409.74 598.554,1407.92 619.199,1405.95 639.844,1403.83 
  660.489,1401.53 681.134,1399.06 701.779,1396.4 722.424,1393.55 743.069,1390.48 763.713,1387.2 784.358,1383.68 805.003,1379.91 825.648,1375.88 846.293,1371.57 
  866.938,1366.97 887.583,1362.04 908.228,1356.79 928.873,1351.18 949.518,1345.19 970.163,1338.8 990.808,1331.98 1011.45,1324.7 1032.1,1316.94 1052.74,1308.67 
  1073.39,1299.85 1094.03,1290.45 1114.68,1280.43 1135.32,1269.78 1155.97,1258.54 1176.61,1246.86 1197.26,1235.12 1217.9,1224.04 1238.55,1214.72 1259.19,1208.42 
  1279.84,1206.18 1300.48,1208.42 1321.13,1214.72 1341.77,1224.04 1362.42,1235.12 1383.06,1246.86 1403.71,1258.54 1424.35,1269.78 1445,1280.43 1465.64,1290.45 
  1486.29,1299.85 1506.93,1308.67 1527.58,1316.94 1548.22,1324.7 1568.87,1331.98 1589.51,1338.8 1610.16,1345.19 1630.8,1351.18 1651.45,1356.79 1672.09,1362.04 
  1692.74,1366.97 1713.38,1371.57 1734.03,1375.88 1754.67,1379.91 1775.32,1383.68 1795.96,1387.2 1816.61,1390.48 1837.25,1393.55 1857.9,1396.4 1878.54,1399.06 
  1899.19,1401.53 1919.83,1403.83 1940.48,1405.95 1961.12,1407.92 1981.77,1409.74 2002.41,1411.41 2023.06,1412.95 2043.7,1414.35 2064.35,1415.63 2084.99,1416.79 
  2105.64,1417.83 2126.28,1418.77 2146.93,1419.59 2167.57,1420.31 2188.22,1420.93 2208.86,1421.44 2229.51,1421.87 2250.15,1422.19 2270.8,1422.42 2291.44,1422.56 
  
  "/>
<polyline clip-path="url(#clip482)" style="stroke:#3da44d; stroke-linecap:butt; stroke-linejoin:round; stroke-width:12; stroke-opacity:1; fill:none" points="
  247.59,1397.79 268.234,1397.74 288.879,1397.59 309.524,1397.35 330.169,1397 350.814,1396.55 371.459,1396 392.104,1395.36 412.749,1394.61 433.394,1393.77 
  454.039,1392.82 474.684,1391.77 495.329,1390.63 515.974,1389.38 536.619,1388.03 557.264,1386.59 577.909,1385.04 598.554,1383.4 619.199,1381.66 639.844,1379.82 
  660.489,1377.88 681.134,1375.85 701.779,1373.73 722.424,1371.52 743.069,1369.22 763.713,1366.83 784.358,1364.36 805.003,1361.82 825.648,1359.2 846.293,1356.52 
  866.938,1353.77 887.583,1350.97 908.228,1348.13 928.873,1345.26 949.518,1342.36 970.163,1339.44 990.808,1336.54 1011.45,1333.65 1032.1,1330.79 1052.74,1327.99 
  1073.39,1325.27 1094.03,1322.65 1114.68,1320.16 1135.32,1317.83 1155.97,1315.68 1176.61,1313.77 1197.26,1312.13 1217.9,1310.79 1238.55,1309.8 1259.19,1309.2 
  1279.84,1308.99 1300.48,1309.2 1321.13,1309.8 1341.77,1310.79 1362.42,1312.13 1383.06,1313.77 1403.71,1315.68 1424.35,1317.83 1445,1320.16 1465.64,1322.65 
  1486.29,1325.27 1506.93,1327.99 1527.58,1330.79 1548.22,1333.65 1568.87,1336.54 1589.51,1339.44 1610.16,1342.36 1630.8,1345.26 1651.45,1348.13 1672.09,1350.97 
  1692.74,1353.77 1713.38,1356.52 1734.03,1359.2 1754.67,1361.82 1775.32,1364.36 1795.96,1366.83 1816.61,1369.22 1837.25,1371.52 1857.9,1373.73 1878.54,1375.85 
  1899.19,1377.88 1919.83,1379.82 1940.48,1381.66 1961.12,1383.4 1981.77,1385.04 2002.41,1386.59 2023.06,1388.03 2043.7,1389.38 2064.35,1390.63 2084.99,1391.77 
  2105.64,1392.82 2126.28,1393.77 2146.93,1394.61 2167.57,1395.36 2188.22,1396 2208.86,1396.55 2229.51,1397 2250.15,1397.35 2270.8,1397.59 2291.44,1397.74 
  
  "/>
<polyline clip-path="url(#clip482)" style="stroke:#c271d2; stroke-linecap:butt; stroke-linejoin:round; stroke-width:12; stroke-opacity:1; fill:none" points="
  247.59,1380.86 268.234,1380.83 288.879,1380.73 309.524,1380.56 330.169,1380.32 350.814,1380.02 371.459,1379.65 392.104,1379.22 412.749,1378.72 433.394,1378.15 
  454.039,1377.53 474.684,1376.84 495.329,1376.1 515.974,1375.29 536.619,1374.43 557.264,1373.52 577.909,1372.55 598.554,1371.53 619.199,1370.47 639.844,1369.36 
  660.489,1368.21 681.134,1367.02 701.779,1365.8 722.424,1364.54 743.069,1363.25 763.713,1361.95 784.358,1360.62 805.003,1359.27 825.648,1357.92 846.293,1356.56 
  866.938,1355.2 887.583,1353.85 908.228,1352.51 928.873,1351.19 949.518,1349.89 970.163,1348.62 990.808,1347.39 1011.45,1346.2 1032.1,1345.06 1052.74,1343.98 
  1073.39,1342.96 1094.03,1342.01 1114.68,1341.14 1135.32,1340.35 1155.97,1339.66 1176.61,1339.06 1197.26,1338.56 1217.9,1338.17 1238.55,1337.88 1259.19,1337.71 
  1279.84,1337.65 1300.48,1337.71 1321.13,1337.88 1341.77,1338.17 1362.42,1338.56 1383.06,1339.06 1403.71,1339.66 1424.35,1340.35 1445,1341.14 1465.64,1342.01 
  1486.29,1342.96 1506.93,1343.98 1527.58,1345.06 1548.22,1346.2 1568.87,1347.39 1589.51,1348.62 1610.16,1349.89 1630.8,1351.19 1651.45,1352.51 1672.09,1353.85 
  1692.74,1355.2 1713.38,1356.56 1734.03,1357.92 1754.67,1359.27 1775.32,1360.62 1795.96,1361.95 1816.61,1363.25 1837.25,1364.54 1857.9,1365.8 1878.54,1367.02 
  1899.19,1368.21 1919.83,1369.36 1940.48,1370.47 1961.12,1371.53 1981.77,1372.55 2002.41,1373.52 2023.06,1374.43 2043.7,1375.29 2064.35,1376.1 2084.99,1376.84 
  2105.64,1377.53 2126.28,1378.15 2146.93,1378.72 2167.57,1379.22 2188.22,1379.65 2208.86,1380.02 2229.51,1380.32 2250.15,1380.56 2270.8,1380.73 2291.44,1380.83 
  
  "/>
<polyline clip-path="url(#clip482)" style="stroke:#ac8d18; stroke-linecap:butt; stroke-linejoin:round; stroke-width:12; stroke-opacity:1; fill:none" points="
  247.59,1371.17 268.234,1371.15 288.879,1371.09 309.524,1370.99 330.169,1370.86 350.814,1370.68 371.459,1370.47 392.104,1370.23 412.749,1369.94 433.394,1369.63 
  454.039,1369.27 474.684,1368.89 495.329,1368.47 515.974,1368.02 536.619,1367.55 557.264,1367.04 577.909,1366.51 598.554,1365.96 619.199,1365.38 639.844,1364.79 
  660.489,1364.17 681.134,1363.54 701.779,1362.9 722.424,1362.24 743.069,1361.57 763.713,1360.9 784.358,1360.22 805.003,1359.55 825.648,1358.87 846.293,1358.2 
  866.938,1357.53 887.583,1356.87 908.228,1356.23 928.873,1355.6 949.518,1354.98 970.163,1354.39 990.808,1353.82 1011.45,1353.28 1032.1,1352.76 1052.74,1352.28 
  1073.39,1351.83 1094.03,1351.41 1114.68,1351.03 1135.32,1350.69 1155.97,1350.39 1176.61,1350.14 1197.26,1349.93 1217.9,1349.77 1238.55,1349.65 1259.19,1349.58 
  1279.84,1349.55 1300.48,1349.58 1321.13,1349.65 1341.77,1349.77 1362.42,1349.93 1383.06,1350.14 1403.71,1350.39 1424.35,1350.69 1445,1351.03 1465.64,1351.41 
  1486.29,1351.83 1506.93,1352.28 1527.58,1352.76 1548.22,1353.28 1568.87,1353.82 1589.51,1354.39 1610.16,1354.98 1630.8,1355.6 1651.45,1356.23 1672.09,1356.87 
  1692.74,1357.53 1713.38,1358.2 1734.03,1358.87 1754.67,1359.55 1775.32,1360.22 1795.96,1360.9 1816.61,1361.57 1837.25,1362.24 1857.9,1362.9 1878.54,1363.54 
  1899.19,1364.17 1919.83,1364.79 1940.48,1365.38 1961.12,1365.96 1981.77,1366.51 2002.41,1367.04 2023.06,1367.55 2043.7,1368.02 2064.35,1368.47 2084.99,1368.89 
  2105.64,1369.27 2126.28,1369.63 2146.93,1369.94 2167.57,1370.23 2188.22,1370.47 2208.86,1370.68 2229.51,1370.86 2250.15,1370.99 2270.8,1371.09 2291.44,1371.15 
  
  "/>
<path clip-path="url(#clip480)" d="
M1985.68 406.258 L2280.54 406.258 L2280.54 95.2176 L1985.68 95.2176  Z
  " fill="#ffffff" fill-rule="evenodd" fill-opacity="1"/>
<polyline clip-path="url(#clip480)" style="stroke:#000000; stroke-linecap:butt; stroke-linejoin:round; stroke-width:4; stroke-opacity:1; fill:none" points="
  1985.68,406.258 2280.54,406.258 2280.54,95.2176 1985.68,95.2176 1985.68,406.258 
  "/>
<polyline clip-path="url(#clip480)" style="stroke:#009af9; stroke-linecap:butt; stroke-linejoin:round; stroke-width:4; stroke-opacity:1; fill:none" points="
  2009.75,147.058 2154.18,147.058 
  "/>
<path clip-path="url(#clip480)" d="M2192.1 166.745 Q2190.29 171.375 2188.58 172.787 Q2186.86 174.199 2183.99 174.199 L2180.59 174.199 L2180.59 170.634 L2183.09 170.634 Q2184.85 170.634 2185.82 169.8 Q2186.79 168.967 2187.97 165.865 L2188.74 163.921 L2178.25 138.412 L2182.77 138.412 L2190.87 158.689 L2198.97 138.412 L2203.48 138.412 L2192.1 166.745 Z" fill="#000000" fill-rule="evenodd" fill-opacity="1" /><path clip-path="url(#clip480)" d="M2210.78 160.402 L2218.41 160.402 L2218.41 134.037 L2210.1 135.703 L2210.1 131.444 L2218.37 129.778 L2223.04 129.778 L2223.04 160.402 L2230.68 160.402 L2230.68 164.338 L2210.78 164.338 L2210.78 160.402 Z" fill="#000000" fill-rule="evenodd" fill-opacity="1" /><polyline clip-path="url(#clip480)" style="stroke:#e26f46; stroke-linecap:butt; stroke-linejoin:round; stroke-width:4; stroke-opacity:1; fill:none" points="
  2009.75,198.898 2154.18,198.898 
  "/>
<path clip-path="url(#clip480)" d="M2192.1 218.585 Q2190.29 223.215 2188.58 224.627 Q2186.86 226.039 2183.99 226.039 L2180.59 226.039 L2180.59 222.474 L2183.09 222.474 Q2184.85 222.474 2185.82 221.64 Q2186.79 220.807 2187.97 217.705 L2188.74 215.761 L2178.25 190.252 L2182.77 190.252 L2190.87 210.529 L2198.97 190.252 L2203.48 190.252 L2192.1 218.585 Z" fill="#000000" fill-rule="evenodd" fill-opacity="1" /><path clip-path="url(#clip480)" d="M2213.99 212.242 L2230.31 212.242 L2230.31 216.178 L2208.37 216.178 L2208.37 212.242 Q2211.03 209.488 2215.61 204.858 Q2220.22 200.205 2221.4 198.863 Q2223.65 196.34 2224.53 194.604 Q2225.43 192.844 2225.43 191.155 Q2225.43 188.4 2223.48 186.664 Q2221.56 184.928 2218.46 184.928 Q2216.26 184.928 2213.81 185.692 Q2211.38 186.455 2208.6 188.006 L2208.6 183.284 Q2211.42 182.15 2213.88 181.571 Q2216.33 180.993 2218.37 180.993 Q2223.74 180.993 2226.93 183.678 Q2230.13 186.363 2230.13 190.854 Q2230.13 192.983 2229.32 194.905 Q2228.53 196.803 2226.42 199.395 Q2225.84 200.067 2222.74 203.284 Q2219.64 206.479 2213.99 212.242 Z" fill="#000000" fill-rule="evenodd" fill-opacity="1" /><polyline clip-path="url(#clip480)" style="stroke:#3da44d; stroke-linecap:butt; stroke-linejoin:round; stroke-width:4; stroke-opacity:1; fill:none" points="
  2009.75,250.738 2154.18,250.738 
  "/>
<path clip-path="url(#clip480)" d="M2192.1 270.425 Q2190.29 275.055 2188.58 276.467 Q2186.86 277.879 2183.99 277.879 L2180.59 277.879 L2180.59 274.314 L2183.09 274.314 Q2184.85 274.314 2185.82 273.48 Q2186.79 272.647 2187.97 269.545 L2188.74 267.601 L2178.25 242.092 L2182.77 242.092 L2190.87 262.369 L2198.97 242.092 L2203.48 242.092 L2192.1 270.425 Z" fill="#000000" fill-rule="evenodd" fill-opacity="1" /><path clip-path="url(#clip480)" d="M2224.13 249.383 Q2227.49 250.101 2229.36 252.369 Q2231.26 254.638 2231.26 257.971 Q2231.26 263.087 2227.74 265.888 Q2224.22 268.689 2217.74 268.689 Q2215.57 268.689 2213.25 268.249 Q2210.96 267.832 2208.51 266.976 L2208.51 262.462 Q2210.45 263.596 2212.77 264.175 Q2215.08 264.754 2217.6 264.754 Q2222 264.754 2224.29 263.018 Q2226.61 261.281 2226.61 257.971 Q2226.61 254.916 2224.46 253.203 Q2222.33 251.467 2218.51 251.467 L2214.48 251.467 L2214.48 247.624 L2218.69 247.624 Q2222.14 247.624 2223.97 246.258 Q2225.8 244.87 2225.8 242.277 Q2225.8 239.615 2223.9 238.203 Q2222.03 236.768 2218.51 236.768 Q2216.59 236.768 2214.39 237.184 Q2212.19 237.601 2209.55 238.481 L2209.55 234.314 Q2212.21 233.573 2214.53 233.203 Q2216.86 232.833 2218.92 232.833 Q2224.25 232.833 2227.35 235.263 Q2230.45 237.67 2230.45 241.791 Q2230.45 244.661 2228.81 246.652 Q2227.16 248.62 2224.13 249.383 Z" fill="#000000" fill-rule="evenodd" fill-opacity="1" /><polyline clip-path="url(#clip480)" style="stroke:#c271d2; stroke-linecap:butt; stroke-linejoin:round; stroke-width:4; stroke-opacity:1; fill:none" points="
  2009.75,302.578 2154.18,302.578 
  "/>
<path clip-path="url(#clip480)" d="M2192.1 322.265 Q2190.29 326.895 2188.58 328.307 Q2186.86 329.719 2183.99 329.719 L2180.59 329.719 L2180.59 326.154 L2183.09 326.154 Q2184.85 326.154 2185.82 325.32 Q2186.79 324.487 2187.97 321.385 L2188.74 319.441 L2178.25 293.932 L2182.77 293.932 L2190.87 314.209 L2198.97 293.932 L2203.48 293.932 L2192.1 322.265 Z" fill="#000000" fill-rule="evenodd" fill-opacity="1" /><path clip-path="url(#clip480)" d="M2222.81 289.372 L2211.01 307.821 L2222.81 307.821 L2222.81 289.372 M2221.59 285.298 L2227.47 285.298 L2227.47 307.821 L2232.4 307.821 L2232.4 311.709 L2227.47 311.709 L2227.47 319.858 L2222.81 319.858 L2222.81 311.709 L2207.21 311.709 L2207.21 307.196 L2221.59 285.298 Z" fill="#000000" fill-rule="evenodd" fill-opacity="1" /><polyline clip-path="url(#clip480)" style="stroke:#ac8d18; stroke-linecap:butt; stroke-linejoin:round; stroke-width:4; stroke-opacity:1; fill:none" points="
  2009.75,354.418 2154.18,354.418 
  "/>
<path clip-path="url(#clip480)" d="M2192.1 374.105 Q2190.29 378.735 2188.58 380.147 Q2186.86 381.559 2183.99 381.559 L2180.59 381.559 L2180.59 377.994 L2183.09 377.994 Q2184.85 377.994 2185.82 377.16 Q2186.79 376.327 2187.97 373.225 L2188.74 371.281 L2178.25 345.772 L2182.77 345.772 L2190.87 366.049 L2198.97 345.772 L2203.48 345.772 L2192.1 374.105 Z" fill="#000000" fill-rule="evenodd" fill-opacity="1" /><path clip-path="url(#clip480)" d="M2210.01 337.138 L2228.37 337.138 L2228.37 341.073 L2214.29 341.073 L2214.29 349.545 Q2215.31 349.198 2216.33 349.036 Q2217.35 348.85 2218.37 348.85 Q2224.16 348.85 2227.53 352.022 Q2230.91 355.193 2230.91 360.61 Q2230.91 366.188 2227.44 369.29 Q2223.97 372.369 2217.65 372.369 Q2215.47 372.369 2213.21 371.998 Q2210.96 371.628 2208.55 370.887 L2208.55 366.188 Q2210.64 367.323 2212.86 367.878 Q2215.08 368.434 2217.56 368.434 Q2221.56 368.434 2223.9 366.327 Q2226.24 364.221 2226.24 360.61 Q2226.24 356.999 2223.9 354.892 Q2221.56 352.786 2217.56 352.786 Q2215.68 352.786 2213.81 353.202 Q2211.96 353.619 2210.01 354.499 L2210.01 337.138 Z" fill="#000000" fill-rule="evenodd" fill-opacity="1" /></svg>
