<?xml version="1.0" encoding="utf-8"?>
<svg xmlns="http://www.w3.org/2000/svg" xmlns:xlink="http://www.w3.org/1999/xlink" width="600" height="400" viewBox="0 0 2400 1600">
<defs>
  <clipPath id="clip280">
    <rect x="0" y="0" width="2400" height="1600"/>
  </clipPath>
</defs>
<path clip-path="url(#clip280)" d="
M0 1600 L2400 1600 L2400 0 L0 0  Z
  " fill="#ffffff" fill-rule="evenodd" fill-opacity="1"/>
<defs>
  <clipPath id="clip281">
    <rect x="480" y="0" width="1681" height="1600"/>
  </clipPath>
</defs>
<path clip-path="url(#clip280)" d="
M156.112 1486.45 L2352.76 1486.45 L2352.76 123.472 L156.112 123.472  Z
  " fill="#ffffff" fill-rule="evenodd" fill-opacity="1"/>
<defs>
  <clipPath id="clip282">
    <rect x="156" y="123" width="2198" height="1364"/>
  </clipPath>
</defs>
<polyline clip-path="url(#clip282)" style="stroke:#000000; stroke-linecap:butt; stroke-linejoin:round; stroke-width:2; stroke-opacity:0.1; fill:none" points="
  197.349,1486.45 197.349,123.472 
  "/>
<polyline clip-path="url(#clip282)" style="stroke:#000000; stroke-linecap:butt; stroke-linejoin:round; stroke-width:2; stroke-opacity:0.1; fill:none" points="
  720.658,1486.45 720.658,123.472 
  "/>
<polyline clip-path="url(#clip282)" style="stroke:#000000; stroke-linecap:butt; stroke-linejoin:round; stroke-width:2; stroke-opacity:0.1; fill:none" points="
  1243.97,1486.45 1243.97,123.472 
  "/>
<polyline clip-path="url(#clip282)" style="stroke:#000000; stroke-linecap:butt; stroke-linejoin:round; stroke-width:2; stroke-opacity:0.1; fill:none" points="
  1767.28,1486.45 1767.28,123.472 
  "/>
<polyline clip-path="url(#clip282)" style="stroke:#000000; stroke-linecap:butt; stroke-linejoin:round; stroke-width:2; stroke-opacity:0.1; fill:none" points="
  2290.59,1486.45 2290.59,123.472 
  "/>
<polyline clip-path="url(#clip280)" style="stroke:#000000; stroke-linecap:butt; stroke-linejoin:round; stroke-width:4; stroke-opacity:1; fill:none" points="
  156.112,1486.45 2352.76,1486.45 
  "/>
<polyline clip-path="url(#clip280)" style="stroke:#000000; stroke-linecap:butt; stroke-linejoin:round; stroke-width:4; stroke-opacity:1; fill:none" points="
  197.349,1486.45 197.349,1467.55 
  "/>
<polyline clip-path="url(#clip280)" style="stroke:#000000; stroke-linecap:butt; stroke-linejoin:round; stroke-width:4; stroke-opacity:1; fill:none" points="
  720.658,1486.45 720.658,1467.55 
  "/>
<polyline clip-path="url(#clip280)" style="stroke:#000000; stroke-linecap:butt; stroke-linejoin:round; stroke-width:4; stroke-opacity:1; fill:none" points="
  1243.97,1486.45 1243.97,1467.55 
  "/>
<polyline clip-path="url(#clip280)" style="stroke:#000000; stroke-linecap:butt; stroke-linejoin:round; stroke-width:4; stroke-opacity:1; fill:none" points="
  1767.28,1486.45 1767.28,1467.55 
  "/>
<polyline clip-path="url(#clip280)" style="stroke:#000000; stroke-linecap:butt; stroke-linejoin:round; stroke-width:4; stroke-opacity:1; fill:none" points="
  2290.59,1486.45 2290.59,1467.55 
  "/>
<path clip-path="url(#clip280)" d="M197.349 1517.37 Q193.738 1517.37 191.909 1520.93 Q190.104 1524.47 190.104 1531.6 Q190.104 1538.71 191.909 1542.27 Q193.738 1545.82 197.349 1545.82 Q200.983 1545.82 202.789 1542.27 Q204.617 1538.71 204.617 1531.6 Q204.617 1524.47 202.789 1520.93 Q200.983 1517.37 197.349 1517.37 M197.349 1513.66 Q203.159 1513.66 206.215 1518.27 Q209.293 1522.85 209.293 1531.6 Q209.293 1540.33 206.215 1544.94 Q203.159 1549.52 197.349 1549.52 Q191.539 1549.52 188.46 1544.94 Q185.405 1540.33 185.405 1531.6 Q185.405 1522.85 188.46 1518.27 Q191.539 1513.66 197.349 1513.66 Z" fill="#000000" fill-rule="evenodd" fill-opacity="1" /><path clip-path="url(#clip280)" d="M699.929 1544.91 L716.249 1544.91 L716.249 1548.85 L694.304 1548.85 L694.304 1544.91 Q696.966 1542.16 701.55 1537.53 Q706.156 1532.88 707.337 1531.53 Q709.582 1529.01 710.462 1527.27 Q711.364 1525.51 711.364 1523.82 Q711.364 1521.07 709.42 1519.33 Q707.499 1517.6 704.397 1517.6 Q702.198 1517.6 699.744 1518.36 Q697.314 1519.13 694.536 1520.68 L694.536 1515.95 Q697.36 1514.82 699.814 1514.24 Q702.267 1513.66 704.304 1513.66 Q709.675 1513.66 712.869 1516.35 Q716.063 1519.03 716.063 1523.52 Q716.063 1525.65 715.253 1527.57 Q714.466 1529.47 712.36 1532.07 Q711.781 1532.74 708.679 1535.95 Q705.577 1539.15 699.929 1544.91 Z" fill="#000000" fill-rule="evenodd" fill-opacity="1" /><path clip-path="url(#clip280)" d="M726.11 1514.29 L744.466 1514.29 L744.466 1518.22 L730.392 1518.22 L730.392 1526.7 Q731.411 1526.35 732.429 1526.19 Q733.448 1526 734.466 1526 Q740.253 1526 743.633 1529.17 Q747.012 1532.34 747.012 1537.76 Q747.012 1543.34 743.54 1546.44 Q740.068 1549.52 733.749 1549.52 Q731.573 1549.52 729.304 1549.15 Q727.059 1548.78 724.651 1548.04 L724.651 1543.34 Q726.735 1544.47 728.957 1545.03 Q731.179 1545.58 733.656 1545.58 Q737.661 1545.58 739.999 1543.48 Q742.336 1541.37 742.336 1537.76 Q742.336 1534.15 739.999 1532.04 Q737.661 1529.94 733.656 1529.94 Q731.781 1529.94 729.906 1530.35 Q728.054 1530.77 726.11 1531.65 L726.11 1514.29 Z" fill="#000000" fill-rule="evenodd" fill-opacity="1" /><path clip-path="url(#clip280)" d="M1218.67 1514.29 L1237.02 1514.29 L1237.02 1518.22 L1222.95 1518.22 L1222.95 1526.7 Q1223.97 1526.35 1224.99 1526.19 Q1226 1526 1227.02 1526 Q1232.81 1526 1236.19 1529.17 Q1239.57 1532.34 1239.57 1537.76 Q1239.57 1543.34 1236.1 1546.44 Q1232.63 1549.52 1226.31 1549.52 Q1224.13 1549.52 1221.86 1549.15 Q1219.62 1548.78 1217.21 1548.04 L1217.21 1543.34 Q1219.29 1544.47 1221.51 1545.03 Q1223.74 1545.58 1226.21 1545.58 Q1230.22 1545.58 1232.56 1543.48 Q1234.89 1541.37 1234.89 1537.76 Q1234.89 1534.15 1232.56 1532.04 Q1230.22 1529.94 1226.21 1529.94 Q1224.34 1529.94 1222.46 1530.35 Q1220.61 1530.77 1218.67 1531.65 L1218.67 1514.29 Z" fill="#000000" fill-rule="evenodd" fill-opacity="1" /><path clip-path="url(#clip280)" d="M1258.78 1517.37 Q1255.17 1517.37 1253.34 1520.93 Q1251.54 1524.47 1251.54 1531.6 Q1251.54 1538.71 1253.34 1542.27 Q1255.17 1545.82 1258.78 1545.82 Q1262.42 1545.82 1264.22 1542.27 Q1266.05 1538.71 1266.05 1531.6 Q1266.05 1524.47 1264.22 1520.93 Q1262.42 1517.37 1258.78 1517.37 M1258.78 1513.66 Q1264.59 1513.66 1267.65 1518.27 Q1270.73 1522.85 1270.73 1531.6 Q1270.73 1540.33 1267.65 1544.94 Q1264.59 1549.52 1258.78 1549.52 Q1252.97 1549.52 1249.89 1544.94 Q1246.84 1540.33 1246.84 1531.6 Q1246.84 1522.85 1249.89 1518.27 Q1252.97 1513.66 1258.78 1513.66 Z" fill="#000000" fill-rule="evenodd" fill-opacity="1" /><path clip-path="url(#clip280)" d="M1741.13 1514.29 L1763.35 1514.29 L1763.35 1516.28 L1750.81 1548.85 L1745.92 1548.85 L1757.73 1518.22 L1741.13 1518.22 L1741.13 1514.29 Z" fill="#000000" fill-rule="evenodd" fill-opacity="1" /><path clip-path="url(#clip280)" d="M1772.52 1514.29 L1790.88 1514.29 L1790.88 1518.22 L1776.8 1518.22 L1776.8 1526.7 Q1777.82 1526.35 1778.84 1526.19 Q1779.86 1526 1780.88 1526 Q1786.66 1526 1790.04 1529.17 Q1793.42 1532.34 1793.42 1537.76 Q1793.42 1543.34 1789.95 1546.44 Q1786.48 1549.52 1780.16 1549.52 Q1777.98 1549.52 1775.71 1549.15 Q1773.47 1548.78 1771.06 1548.04 L1771.06 1543.34 Q1773.15 1544.47 1775.37 1545.03 Q1777.59 1545.58 1780.07 1545.58 Q1784.07 1545.58 1786.41 1543.48 Q1788.75 1541.37 1788.75 1537.76 Q1788.75 1534.15 1786.41 1532.04 Q1784.07 1529.94 1780.07 1529.94 Q1778.19 1529.94 1776.32 1530.35 Q1774.46 1530.77 1772.52 1531.65 L1772.52 1514.29 Z" fill="#000000" fill-rule="evenodd" fill-opacity="1" /><path clip-path="url(#clip280)" d="M2250.19 1544.91 L2257.83 1544.91 L2257.83 1518.55 L2249.52 1520.21 L2249.52 1515.95 L2257.79 1514.29 L2262.46 1514.29 L2262.46 1544.91 L2270.1 1544.91 L2270.1 1548.85 L2250.19 1548.85 L2250.19 1544.91 Z" fill="#000000" fill-rule="evenodd" fill-opacity="1" /><path clip-path="url(#clip280)" d="M2289.55 1517.37 Q2285.93 1517.37 2284.11 1520.93 Q2282.3 1524.47 2282.3 1531.6 Q2282.3 1538.71 2284.11 1542.27 Q2285.93 1545.82 2289.55 1545.82 Q2293.18 1545.82 2294.98 1542.27 Q2296.81 1538.71 2296.81 1531.6 Q2296.81 1524.47 2294.98 1520.93 Q2293.18 1517.37 2289.55 1517.37 M2289.55 1513.66 Q2295.36 1513.66 2298.41 1518.27 Q2301.49 1522.85 2301.49 1531.6 Q2301.49 1540.33 2298.41 1544.94 Q2295.36 1549.52 2289.55 1549.52 Q2283.73 1549.52 2280.66 1544.94 Q2277.6 1540.33 2277.6 1531.6 Q2277.6 1522.85 2280.66 1518.27 Q2283.73 1513.66 2289.55 1513.66 Z" fill="#000000" fill-rule="evenodd" fill-opacity="1" /><path clip-path="url(#clip280)" d="M2319.71 1517.37 Q2316.1 1517.37 2314.27 1520.93 Q2312.46 1524.47 2312.46 1531.6 Q2312.46 1538.71 2314.27 1542.27 Q2316.1 1545.82 2319.71 1545.82 Q2323.34 1545.82 2325.15 1542.27 Q2326.98 1538.71 2326.98 1531.6 Q2326.98 1524.47 2325.15 1520.93 Q2323.34 1517.37 2319.71 1517.37 M2319.71 1513.66 Q2325.52 1513.66 2328.57 1518.27 Q2331.65 1522.85 2331.65 1531.6 Q2331.65 1540.33 2328.57 1544.94 Q2325.52 1549.52 2319.71 1549.52 Q2313.9 1549.52 2310.82 1544.94 Q2307.76 1540.33 2307.76 1531.6 Q2307.76 1522.85 2310.82 1518.27 Q2313.9 1513.66 2319.71 1513.66 Z" fill="#000000" fill-rule="evenodd" fill-opacity="1" /><polyline clip-path="url(#clip282)" style="stroke:#000000; stroke-linecap:butt; stroke-linejoin:round; stroke-width:2; stroke-opacity:0.1; fill:none" points="
  156.112,1448.18 2352.76,1448.18 
  "/>
<polyline clip-path="url(#clip282)" style="stroke:#000000; stroke-linecap:butt; stroke-linejoin:round; stroke-width:2; stroke-opacity:0.1; fill:none" points="
  156.112,1126.57 2352.76,1126.57 
  "/>
<polyline clip-path="url(#clip282)" style="stroke:#000000; stroke-linecap:butt; stroke-linejoin:round; stroke-width:2; stroke-opacity:0.1; fill:none" points="
  156.112,804.96 2352.76,804.96 
  "/>
<polyline clip-path="url(#clip282)" style="stroke:#000000; stroke-linecap:butt; stroke-linejoin:round; stroke-width:2; stroke-opacity:0.1; fill:none" points="
  156.112,483.348 2352.76,483.348 
  "/>
<polyline clip-path="url(#clip282)" style="stroke:#000000; stroke-linecap:butt; stroke-linejoin:round; stroke-width:2; stroke-opacity:0.1; fill:none" points="
  156.112,161.736 2352.76,161.736 
  "/>
<polyline clip-path="url(#clip280)" style="stroke:#000000; stroke-linecap:butt; stroke-linejoin:round; stroke-width:4; stroke-opacity:1; fill:none" points="
  156.112,1486.45 156.112,123.472 
  "/>
<polyline clip-path="url(#clip280)" style="stroke:#000000; stroke-linecap:butt; stroke-linejoin:round; stroke-width:4; stroke-opacity:1; fill:none" points="
  156.112,1448.18 175.01,1448.18 
  "/>
<polyline clip-path="url(#clip280)" style="stroke:#000000; stroke-linecap:butt; stroke-linejoin:round; stroke-width:4; stroke-opacity:1; fill:none" points="
  156.112,1126.57 175.01,1126.57 
  "/>
<polyline clip-path="url(#clip280)" style="stroke:#000000; stroke-linecap:butt; stroke-linejoin:round; stroke-width:4; stroke-opacity:1; fill:none" points="
  156.112,804.96 175.01,804.96 
  "/>
<polyline clip-path="url(#clip280)" style="stroke:#000000; stroke-linecap:butt; stroke-linejoin:round; stroke-width:4; stroke-opacity:1; fill:none" points="
  156.112,483.348 175.01,483.348 
  "/>
<polyline clip-path="url(#clip280)" style="stroke:#000000; stroke-linecap:butt; stroke-linejoin:round; stroke-width:4; stroke-opacity:1; fill:none" points="
  156.112,161.736 175.01,161.736 
  "/>
<path clip-path="url(#clip280)" d="M62.9365 1433.98 Q59.3254 1433.98 57.4967 1437.55 Q55.6912 1441.09 55.6912 1448.22 Q55.6912 1455.33 57.4967 1458.89 Q59.3254 1462.43 62.9365 1462.43 Q66.5707 1462.43 68.3763 1458.89 Q70.205 1455.33 70.205 1448.22 Q70.205 1441.09 68.3763 1437.55 Q66.5707 1433.98 62.9365 1433.98 M62.9365 1430.28 Q68.7467 1430.28 71.8022 1434.89 Q74.8809 1439.47 74.8809 1448.22 Q74.8809 1456.95 71.8022 1461.55 Q68.7467 1466.14 62.9365 1466.14 Q57.1264 1466.14 54.0477 1461.55 Q50.9921 1456.95 50.9921 1448.22 Q50.9921 1439.47 54.0477 1434.89 Q57.1264 1430.28 62.9365 1430.28 Z" fill="#000000" fill-rule="evenodd" fill-opacity="1" /><path clip-path="url(#clip280)" d="M83.0984 1459.58 L87.9827 1459.58 L87.9827 1465.46 L83.0984 1465.46 L83.0984 1459.58 Z" fill="#000000" fill-rule="evenodd" fill-opacity="1" /><path clip-path="url(#clip280)" d="M108.168 1433.98 Q104.557 1433.98 102.728 1437.55 Q100.922 1441.09 100.922 1448.22 Q100.922 1455.33 102.728 1458.89 Q104.557 1462.43 108.168 1462.43 Q111.802 1462.43 113.608 1458.89 Q115.436 1455.33 115.436 1448.22 Q115.436 1441.09 113.608 1437.55 Q111.802 1433.98 108.168 1433.98 M108.168 1430.28 Q113.978 1430.28 117.033 1434.89 Q120.112 1439.47 120.112 1448.22 Q120.112 1456.95 117.033 1461.55 Q113.978 1466.14 108.168 1466.14 Q102.358 1466.14 99.2789 1461.55 Q96.2234 1456.95 96.2234 1448.22 Q96.2234 1439.47 99.2789 1434.89 Q102.358 1430.28 108.168 1430.28 Z" fill="#000000" fill-rule="evenodd" fill-opacity="1" /><path clip-path="url(#clip280)" d="M63.9319 1112.37 Q60.3208 1112.37 58.4921 1115.94 Q56.6865 1119.48 56.6865 1126.61 Q56.6865 1133.71 58.4921 1137.28 Q60.3208 1140.82 63.9319 1140.82 Q67.5661 1140.82 69.3717 1137.28 Q71.2004 1133.71 71.2004 1126.61 Q71.2004 1119.48 69.3717 1115.94 Q67.5661 1112.37 63.9319 1112.37 M63.9319 1108.67 Q69.742 1108.67 72.7976 1113.27 Q75.8763 1117.86 75.8763 1126.61 Q75.8763 1135.33 72.7976 1139.94 Q69.742 1144.52 63.9319 1144.52 Q58.1217 1144.52 55.043 1139.94 Q51.9875 1135.33 51.9875 1126.61 Q51.9875 1117.86 55.043 1113.27 Q58.1217 1108.67 63.9319 1108.67 Z" fill="#000000" fill-rule="evenodd" fill-opacity="1" /><path clip-path="url(#clip280)" d="M84.0938 1137.97 L88.978 1137.97 L88.978 1143.85 L84.0938 1143.85 L84.0938 1137.97 Z" fill="#000000" fill-rule="evenodd" fill-opacity="1" /><path clip-path="url(#clip280)" d="M99.2095 1109.29 L117.566 1109.29 L117.566 1113.23 L103.492 1113.23 L103.492 1121.7 Q104.51 1121.35 105.529 1121.19 Q106.547 1121.01 107.566 1121.01 Q113.353 1121.01 116.733 1124.18 Q120.112 1127.35 120.112 1132.76 Q120.112 1138.34 116.64 1141.44 Q113.168 1144.52 106.848 1144.52 Q104.672 1144.52 102.404 1144.15 Q100.159 1143.78 97.7511 1143.04 L97.7511 1138.34 Q99.8345 1139.48 102.057 1140.03 Q104.279 1140.59 106.756 1140.59 Q110.76 1140.59 113.098 1138.48 Q115.436 1136.38 115.436 1132.76 Q115.436 1129.15 113.098 1127.05 Q110.76 1124.94 106.756 1124.94 Q104.881 1124.94 103.006 1125.36 Q101.154 1125.77 99.2095 1126.65 L99.2095 1109.29 Z" fill="#000000" fill-rule="evenodd" fill-opacity="1" /><path clip-path="url(#clip280)" d="M53.7467 818.305 L61.3856 818.305 L61.3856 791.939 L53.0754 793.606 L53.0754 789.347 L61.3393 787.68 L66.0152 787.68 L66.0152 818.305 L73.654 818.305 L73.654 822.24 L53.7467 822.24 L53.7467 818.305 Z" fill="#000000" fill-rule="evenodd" fill-opacity="1" /><path clip-path="url(#clip280)" d="M83.0984 816.36 L87.9827 816.36 L87.9827 822.24 L83.0984 822.24 L83.0984 816.36 Z" fill="#000000" fill-rule="evenodd" fill-opacity="1" /><path clip-path="url(#clip280)" d="M108.168 790.759 Q104.557 790.759 102.728 794.323 Q100.922 797.865 100.922 804.995 Q100.922 812.101 102.728 815.666 Q104.557 819.208 108.168 819.208 Q111.802 819.208 113.608 815.666 Q115.436 812.101 115.436 804.995 Q115.436 797.865 113.608 794.323 Q111.802 790.759 108.168 790.759 M108.168 787.055 Q113.978 787.055 117.033 791.661 Q120.112 796.245 120.112 804.995 Q120.112 813.722 117.033 818.328 Q113.978 822.911 108.168 822.911 Q102.358 822.911 99.2789 818.328 Q96.2234 813.722 96.2234 804.995 Q96.2234 796.245 99.2789 791.661 Q102.358 787.055 108.168 787.055 Z" fill="#000000" fill-rule="evenodd" fill-opacity="1" /><path clip-path="url(#clip280)" d="M54.7421 496.693 L62.381 496.693 L62.381 470.327 L54.0708 471.994 L54.0708 467.735 L62.3347 466.068 L67.0106 466.068 L67.0106 496.693 L74.6494 496.693 L74.6494 500.628 L54.7421 500.628 L54.7421 496.693 Z" fill="#000000" fill-rule="evenodd" fill-opacity="1" /><path clip-path="url(#clip280)" d="M84.0938 494.748 L88.978 494.748 L88.978 500.628 L84.0938 500.628 L84.0938 494.748 Z" fill="#000000" fill-rule="evenodd" fill-opacity="1" /><path clip-path="url(#clip280)" d="M99.2095 466.068 L117.566 466.068 L117.566 470.003 L103.492 470.003 L103.492 478.475 Q104.51 478.128 105.529 477.966 Q106.547 477.781 107.566 477.781 Q113.353 477.781 116.733 480.952 Q120.112 484.123 120.112 489.54 Q120.112 495.119 116.64 498.22 Q113.168 501.299 106.848 501.299 Q104.672 501.299 102.404 500.929 Q100.159 500.558 97.7511 499.818 L97.7511 495.119 Q99.8345 496.253 102.057 496.808 Q104.279 497.364 106.756 497.364 Q110.76 497.364 113.098 495.258 Q115.436 493.151 115.436 489.54 Q115.436 485.929 113.098 483.822 Q110.76 481.716 106.756 481.716 Q104.881 481.716 103.006 482.133 Q101.154 482.549 99.2095 483.429 L99.2095 466.068 Z" fill="#000000" fill-rule="evenodd" fill-opacity="1" /><path clip-path="url(#clip280)" d="M56.9643 175.081 L73.2837 175.081 L73.2837 179.016 L51.3393 179.016 L51.3393 175.081 Q54.0014 172.326 58.5847 167.696 Q63.1911 163.044 64.3717 161.701 Q66.617 159.178 67.4967 157.442 Q68.3994 155.683 68.3994 153.993 Q68.3994 151.238 66.455 149.502 Q64.5337 147.766 61.4319 147.766 Q59.2328 147.766 56.7791 148.53 Q54.3486 149.294 51.5708 150.845 L51.5708 146.122 Q54.3949 144.988 56.8486 144.409 Q59.3023 143.831 61.3393 143.831 Q66.7096 143.831 69.9041 146.516 Q73.0985 149.201 73.0985 153.692 Q73.0985 155.821 72.2883 157.743 Q71.5013 159.641 69.3948 162.233 Q68.8161 162.905 65.7143 166.122 Q62.6124 169.317 56.9643 175.081 Z" fill="#000000" fill-rule="evenodd" fill-opacity="1" /><path clip-path="url(#clip280)" d="M83.0984 173.136 L87.9827 173.136 L87.9827 179.016 L83.0984 179.016 L83.0984 173.136 Z" fill="#000000" fill-rule="evenodd" fill-opacity="1" /><path clip-path="url(#clip280)" d="M108.168 147.534 Q104.557 147.534 102.728 151.099 Q100.922 154.641 100.922 161.77 Q100.922 168.877 102.728 172.442 Q104.557 175.983 108.168 175.983 Q111.802 175.983 113.608 172.442 Q115.436 168.877 115.436 161.77 Q115.436 154.641 113.608 151.099 Q111.802 147.534 108.168 147.534 M108.168 143.831 Q113.978 143.831 117.033 148.437 Q120.112 153.021 120.112 161.77 Q120.112 170.497 117.033 175.104 Q113.978 179.687 108.168 179.687 Q102.358 179.687 99.2789 175.104 Q96.2234 170.497 96.2234 161.77 Q96.2234 153.021 99.2789 148.437 Q102.358 143.831 108.168 143.831 Z" fill="#000000" fill-rule="evenodd" fill-opacity="1" /><path clip-path="url(#clip280)" d="M699.379 28.9478 L699.379 35.9153 Q696.219 34.1734 693.019 33.3227 Q689.859 32.4315 686.619 32.4315 Q679.368 32.4315 675.357 37.0496 Q671.347 41.6271 671.347 49.9314 Q671.347 58.2358 675.357 62.8538 Q679.368 67.4314 686.619 67.4314 Q689.859 67.4314 693.019 66.5807 Q696.219 65.6895 699.379 63.9476 L699.379 70.8341 Q696.26 72.2924 692.898 73.0216 Q689.576 73.7508 685.809 73.7508 Q675.56 73.7508 669.524 67.3098 Q663.488 60.8689 663.488 49.9314 Q663.488 38.832 669.564 32.472 Q675.681 26.1121 686.295 26.1121 Q689.738 26.1121 693.019 26.8413 Q696.3 27.5299 699.379 28.9478 Z" fill="#000000" fill-rule="evenodd" fill-opacity="1" /><path clip-path="url(#clip280)" d="M729.923 32.4315 Q723.928 32.4315 720.444 37.1306 Q716.96 41.7891 716.96 49.9314 Q716.96 58.0738 720.403 62.7728 Q723.887 67.4314 729.923 67.4314 Q735.878 67.4314 739.362 62.7323 Q742.845 58.0333 742.845 49.9314 Q742.845 41.8701 739.362 37.1711 Q735.878 32.4315 729.923 32.4315 M729.923 26.1121 Q739.645 26.1121 745.195 32.4315 Q750.745 38.7509 750.745 49.9314 Q750.745 61.0714 745.195 67.4314 Q739.645 73.7508 729.923 73.7508 Q720.16 73.7508 714.611 67.4314 Q709.101 61.0714 709.101 49.9314 Q709.101 38.7509 714.611 32.4315 Q720.16 26.1121 729.923 26.1121 Z" fill="#000000" fill-rule="evenodd" fill-opacity="1" /><path clip-path="url(#clip280)" d="M800.814 45.1919 L800.814 72.576 L793.36 72.576 L793.36 45.4349 Q793.36 38.994 790.849 35.7938 Q788.337 32.5936 783.314 32.5936 Q777.278 32.5936 773.794 36.4419 Q770.31 40.2903 770.31 46.9338 L770.31 72.576 L762.816 72.576 L762.816 27.2059 L770.31 27.2059 L770.31 34.2544 Q772.984 30.163 776.589 28.1376 Q780.235 26.1121 784.975 26.1121 Q792.793 26.1121 796.803 30.9732 Q800.814 35.7938 800.814 45.1919 Z" fill="#000000" fill-rule="evenodd" fill-opacity="1" /><path clip-path="url(#clip280)" d="M845.536 34.0924 L845.536 9.54393 L852.989 9.54393 L852.989 72.576 L845.536 72.576 L845.536 65.7705 Q843.186 69.8214 839.581 71.8063 Q836.016 73.7508 830.993 73.7508 Q822.77 73.7508 817.585 67.1883 Q812.44 60.6258 812.44 49.9314 Q812.44 39.2371 817.585 32.6746 Q822.77 26.1121 830.993 26.1121 Q836.016 26.1121 839.581 28.0971 Q843.186 30.0415 845.536 34.0924 M820.137 49.9314 Q820.137 58.1548 823.499 62.8538 Q826.902 67.5124 832.816 67.5124 Q838.73 67.5124 842.133 62.8538 Q845.536 58.1548 845.536 49.9314 Q845.536 41.7081 842.133 37.0496 Q838.73 32.3505 832.816 32.3505 Q826.902 32.3505 823.499 37.0496 Q820.137 41.7081 820.137 49.9314 Z" fill="#000000" fill-rule="evenodd" fill-opacity="1" /><path clip-path="url(#clip280)" d="M895.686 34.9026 L947.619 34.9026 L947.619 41.7081 L895.686 41.7081 L895.686 34.9026 M895.686 51.4303 L947.619 51.4303 L947.619 58.3168 L895.686 58.3168 L895.686 51.4303 Z" fill="#000000" fill-rule="evenodd" fill-opacity="1" /><path clip-path="url(#clip280)" d="M1014.13 19.2256 L993.475 51.5113 L1014.13 51.5113 L1014.13 19.2256 M1011.99 12.096 L1022.28 12.096 L1022.28 51.5113 L1030.91 51.5113 L1030.91 58.3168 L1022.28 58.3168 L1022.28 72.576 L1014.13 72.576 L1014.13 58.3168 L986.831 58.3168 L986.831 50.4176 L1011.99 12.096 Z" fill="#000000" fill-rule="evenodd" fill-opacity="1" /><path clip-path="url(#clip280)" d="M1045.85 65.6895 L1059.22 65.6895 L1059.22 19.5497 L1044.68 22.4663 L1044.68 15.0127 L1059.14 12.096 L1067.32 12.096 L1067.32 65.6895 L1080.69 65.6895 L1080.69 72.576 L1045.85 72.576 L1045.85 65.6895 Z" fill="#000000" fill-rule="evenodd" fill-opacity="1" /><path clip-path="url(#clip280)" d="M1122.01 39.9662 Q1127.88 41.222 1131.17 45.1919 Q1134.49 49.1618 1134.49 54.9951 Q1134.49 63.9476 1128.33 68.8492 Q1122.17 73.7508 1110.83 73.7508 Q1107.02 73.7508 1102.97 72.9811 Q1098.96 72.2519 1094.67 70.7531 L1094.67 62.8538 Q1098.07 64.8388 1102.12 65.8515 Q1106.17 66.8642 1110.59 66.8642 Q1118.28 66.8642 1122.29 63.826 Q1126.34 60.7879 1126.34 54.9951 Q1126.34 49.6479 1122.58 46.6502 Q1118.85 43.612 1112.17 43.612 L1105.12 43.612 L1105.12 36.8875 L1112.49 36.8875 Q1118.53 36.8875 1121.73 34.4975 Q1124.93 32.067 1124.93 27.5299 Q1124.93 22.8714 1121.6 20.4004 Q1118.32 17.8888 1112.17 17.8888 Q1108.8 17.8888 1104.96 18.618 Q1101.11 19.3471 1096.49 20.8865 L1096.49 13.5948 Q1101.15 12.2985 1105.2 11.6504 Q1109.29 11.0023 1112.9 11.0023 Q1122.21 11.0023 1127.64 15.2557 Q1133.07 19.4686 1133.07 26.6793 Q1133.07 31.7024 1130.19 35.1862 Q1127.32 38.6294 1122.01 39.9662 Z" fill="#000000" fill-rule="evenodd" fill-opacity="1" /><path clip-path="url(#clip280)" d="M1174.79 39.9662 Q1180.67 41.222 1183.95 45.1919 Q1187.27 49.1618 1187.27 54.9951 Q1187.27 63.9476 1181.11 68.8492 Q1174.96 73.7508 1163.61 73.7508 Q1159.8 73.7508 1155.75 72.9811 Q1151.74 72.2519 1147.45 70.7531 L1147.45 62.8538 Q1150.85 64.8388 1154.9 65.8515 Q1158.95 66.8642 1163.37 66.8642 Q1171.07 66.8642 1175.08 63.826 Q1179.13 60.7879 1179.13 54.9951 Q1179.13 49.6479 1175.36 46.6502 Q1171.63 43.612 1164.95 43.612 L1157.9 43.612 L1157.9 36.8875 L1165.27 36.8875 Q1171.31 36.8875 1174.51 34.4975 Q1177.71 32.067 1177.71 27.5299 Q1177.71 22.8714 1174.39 20.4004 Q1171.11 17.8888 1164.95 17.8888 Q1161.59 17.8888 1157.74 18.618 Q1153.89 19.3471 1149.27 20.8865 L1149.27 13.5948 Q1153.93 12.2985 1157.98 11.6504 Q1162.07 11.0023 1165.68 11.0023 Q1175 11.0023 1180.42 15.2557 Q1185.85 19.4686 1185.85 26.6793 Q1185.85 31.7024 1182.98 35.1862 Q1180.1 38.6294 1174.79 39.9662 Z" fill="#000000" fill-rule="evenodd" fill-opacity="1" /><path clip-path="url(#clip280)" d="M1202.78 62.2867 L1211.33 62.2867 L1211.33 72.576 L1202.78 72.576 L1202.78 62.2867 Z" fill="#000000" fill-rule="evenodd" fill-opacity="1" /><path clip-path="url(#clip280)" d="M1247.67 39.075 Q1242.16 39.075 1238.92 42.8424 Q1235.72 46.6097 1235.72 53.1722 Q1235.72 59.6941 1238.92 63.502 Q1242.16 67.2693 1247.67 67.2693 Q1253.18 67.2693 1256.38 63.502 Q1259.62 59.6941 1259.62 53.1722 Q1259.62 46.6097 1256.38 42.8424 Q1253.18 39.075 1247.67 39.075 M1263.91 13.4328 L1263.91 20.8865 Q1260.83 19.4281 1257.67 18.6585 Q1254.56 17.8888 1251.48 17.8888 Q1243.38 17.8888 1239.08 23.3575 Q1234.83 28.8262 1234.22 39.8852 Q1236.61 36.3609 1240.22 34.4975 Q1243.82 32.5936 1248.16 32.5936 Q1257.27 32.5936 1262.54 38.1433 Q1267.84 43.6525 1267.84 53.1722 Q1267.84 62.4892 1262.33 68.12 Q1256.82 73.7508 1247.67 73.7508 Q1237.18 73.7508 1231.63 65.73 Q1226.08 57.6687 1226.08 42.3968 Q1226.08 28.0566 1232.88 19.5497 Q1239.69 11.0023 1251.15 11.0023 Q1254.23 11.0023 1257.35 11.6099 Q1260.51 12.2175 1263.91 13.4328 Z" fill="#000000" fill-rule="evenodd" fill-opacity="1" /><path clip-path="url(#clip280)" d="M1304.42 19.2256 L1283.76 51.5113 L1304.42 51.5113 L1304.42 19.2256 M1302.28 12.096 L1312.56 12.096 L1312.56 51.5113 L1321.19 51.5113 L1321.19 58.3168 L1312.56 58.3168 L1312.56 72.576 L1304.42 72.576 L1304.42 58.3168 L1277.12 58.3168 L1277.12 50.4176 L1302.28 12.096 Z" fill="#000000" fill-rule="evenodd" fill-opacity="1" /><path clip-path="url(#clip280)" d="M1341.77 65.6895 L1370.33 65.6895 L1370.33 72.576 L1331.93 72.576 L1331.93 65.6895 Q1336.59 60.8689 1344.61 52.7671 Q1352.67 44.6248 1354.73 42.2752 Q1358.66 37.8598 1360.2 34.8216 Q1361.78 31.7429 1361.78 28.7857 Q1361.78 23.9651 1358.38 20.927 Q1355.02 17.8888 1349.59 17.8888 Q1345.74 17.8888 1341.45 19.2256 Q1337.19 20.5624 1332.33 23.2765 L1332.33 15.0127 Q1337.28 13.0277 1341.57 12.015 Q1345.86 11.0023 1349.43 11.0023 Q1358.83 11.0023 1364.42 15.7013 Q1370.01 20.4004 1370.01 28.2591 Q1370.01 31.9859 1368.59 35.3482 Q1367.21 38.6699 1363.52 43.2069 Q1362.51 44.3817 1357.08 50.0125 Q1351.66 55.6027 1341.77 65.6895 Z" fill="#000000" fill-rule="evenodd" fill-opacity="1" /><path clip-path="url(#clip280)" d="M1387.75 71.3202 L1387.75 63.8666 Q1390.83 65.3249 1393.99 66.0946 Q1397.15 66.8642 1400.19 66.8642 Q1408.29 66.8642 1412.54 61.436 Q1416.83 55.9673 1417.44 44.8678 Q1415.09 48.3516 1411.49 50.215 Q1407.88 52.0784 1403.51 52.0784 Q1394.43 52.0784 1389.13 46.6097 Q1383.86 41.1005 1383.86 31.5808 Q1383.86 22.2638 1389.37 16.633 Q1394.88 11.0023 1404.03 11.0023 Q1414.53 11.0023 1420.03 19.0636 Q1425.58 27.0843 1425.58 42.3968 Q1425.58 56.6965 1418.78 65.2439 Q1412.01 73.7508 1400.55 73.7508 Q1397.47 73.7508 1394.31 73.1431 Q1391.15 72.5355 1387.75 71.3202 M1404.03 45.678 Q1409.54 45.678 1412.74 41.9107 Q1415.98 38.1433 1415.98 31.5808 Q1415.98 25.0589 1412.74 21.2916 Q1409.54 17.4837 1404.03 17.4837 Q1398.52 17.4837 1395.28 21.2916 Q1392.08 25.0589 1392.08 31.5808 Q1392.08 38.1433 1395.28 41.9107 Q1398.52 45.678 1404.03 45.678 Z" fill="#000000" fill-rule="evenodd" fill-opacity="1" /><path clip-path="url(#clip280)" d="M1447.34 65.6895 L1475.9 65.6895 L1475.9 72.576 L1437.49 72.576 L1437.49 65.6895 Q1442.15 60.8689 1450.17 52.7671 Q1458.24 44.6248 1460.3 42.2752 Q1464.23 37.8598 1465.77 34.8216 Q1467.35 31.7429 1467.35 28.7857 Q1467.35 23.9651 1463.95 20.927 Q1460.58 17.8888 1455.16 17.8888 Q1451.31 17.8888 1447.01 19.2256 Q1442.76 20.5624 1437.9 23.2765 L1437.9 15.0127 Q1442.84 13.0277 1447.14 12.015 Q1451.43 11.0023 1454.99 11.0023 Q1464.39 11.0023 1469.98 15.7013 Q1475.57 20.4004 1475.57 28.2591 Q1475.57 31.9859 1474.16 35.3482 Q1472.78 38.6699 1469.09 43.2069 Q1468.08 44.3817 1462.65 50.0125 Q1457.22 55.6027 1447.34 65.6895 Z" fill="#000000" fill-rule="evenodd" fill-opacity="1" /><path clip-path="url(#clip280)" d="M1511.59 39.075 Q1506.08 39.075 1502.84 42.8424 Q1499.64 46.6097 1499.64 53.1722 Q1499.64 59.6941 1502.84 63.502 Q1506.08 67.2693 1511.59 67.2693 Q1517.09 67.2693 1520.29 63.502 Q1523.54 59.6941 1523.54 53.1722 Q1523.54 46.6097 1520.29 42.8424 Q1517.09 39.075 1511.59 39.075 M1527.83 13.4328 L1527.83 20.8865 Q1524.75 19.4281 1521.59 18.6585 Q1518.47 17.8888 1515.39 17.8888 Q1507.29 17.8888 1503 23.3575 Q1498.74 28.8262 1498.14 39.8852 Q1500.53 36.3609 1504.13 34.4975 Q1507.74 32.5936 1512.07 32.5936 Q1521.19 32.5936 1526.45 38.1433 Q1531.76 43.6525 1531.76 53.1722 Q1531.76 62.4892 1526.25 68.12 Q1520.74 73.7508 1511.59 73.7508 Q1501.09 73.7508 1495.54 65.73 Q1489.99 57.6687 1489.99 42.3968 Q1489.99 28.0566 1496.8 19.5497 Q1503.61 11.0023 1515.07 11.0023 Q1518.15 11.0023 1521.27 11.6099 Q1524.43 12.2175 1527.83 13.4328 Z" fill="#000000" fill-rule="evenodd" fill-opacity="1" /><path clip-path="url(#clip280)" d="M1543.79 12.096 L1582.68 12.096 L1582.68 15.5798 L1560.72 72.576 L1552.18 72.576 L1572.84 18.9825 L1543.79 18.9825 L1543.79 12.096 Z" fill="#000000" fill-rule="evenodd" fill-opacity="1" /><path clip-path="url(#clip280)" d="M1598.88 71.3202 L1598.88 63.8666 Q1601.96 65.3249 1605.12 66.0946 Q1608.28 66.8642 1611.32 66.8642 Q1619.42 66.8642 1623.67 61.436 Q1627.97 55.9673 1628.58 44.8678 Q1626.23 48.3516 1622.62 50.215 Q1619.02 52.0784 1614.64 52.0784 Q1605.57 52.0784 1600.26 46.6097 Q1594.99 41.1005 1594.99 31.5808 Q1594.99 22.2638 1600.5 16.633 Q1606.01 11.0023 1615.17 11.0023 Q1625.66 11.0023 1631.17 19.0636 Q1636.72 27.0843 1636.72 42.3968 Q1636.72 56.6965 1629.91 65.2439 Q1623.15 73.7508 1611.68 73.7508 Q1608.6 73.7508 1605.44 73.1431 Q1602.29 72.5355 1598.88 71.3202 M1615.17 45.678 Q1620.68 45.678 1623.88 41.9107 Q1627.12 38.1433 1627.12 31.5808 Q1627.12 25.0589 1623.88 21.2916 Q1620.68 17.4837 1615.17 17.4837 Q1609.66 17.4837 1606.42 21.2916 Q1603.22 25.0589 1603.22 31.5808 Q1603.22 38.1433 1606.42 41.9107 Q1609.66 45.678 1615.17 45.678 Z" fill="#000000" fill-rule="evenodd" fill-opacity="1" /><path clip-path="url(#clip280)" d="M1649.36 12.096 L1688.25 12.096 L1688.25 15.5798 L1666.29 72.576 L1657.74 72.576 L1678.4 18.9825 L1649.36 18.9825 L1649.36 12.096 Z" fill="#000000" fill-rule="evenodd" fill-opacity="1" /><path clip-path="url(#clip280)" d="M1704.29 12.096 L1736.41 12.096 L1736.41 18.9825 L1711.78 18.9825 L1711.78 33.8088 Q1713.56 33.2012 1715.35 32.9176 Q1717.13 32.5936 1718.91 32.5936 Q1729.04 32.5936 1734.95 38.1433 Q1740.87 43.6931 1740.87 53.1722 Q1740.87 62.9348 1734.79 68.3631 Q1728.71 73.7508 1717.65 73.7508 Q1713.85 73.7508 1709.88 73.1026 Q1705.95 72.4545 1701.73 71.1582 L1701.73 62.9348 Q1705.38 64.9198 1709.27 65.892 Q1713.16 66.8642 1717.49 66.8642 Q1724.5 66.8642 1728.59 63.1779 Q1732.68 59.4916 1732.68 53.1722 Q1732.68 46.8528 1728.59 43.1664 Q1724.5 39.4801 1717.49 39.4801 Q1714.21 39.4801 1710.93 40.2093 Q1707.69 40.9384 1704.29 42.4778 L1704.29 12.096 Z" fill="#000000" fill-rule="evenodd" fill-opacity="1" /><path clip-path="url(#clip280)" d="M1781.78 39.9662 Q1787.65 41.222 1790.94 45.1919 Q1794.26 49.1618 1794.26 54.9951 Q1794.26 63.9476 1788.1 68.8492 Q1781.94 73.7508 1770.6 73.7508 Q1766.79 73.7508 1762.74 72.9811 Q1758.73 72.2519 1754.44 70.7531 L1754.44 62.8538 Q1757.84 64.8388 1761.89 65.8515 Q1765.94 66.8642 1770.36 66.8642 Q1778.05 66.8642 1782.06 63.826 Q1786.12 60.7879 1786.12 54.9951 Q1786.12 49.6479 1782.35 46.6502 Q1778.62 43.612 1771.94 43.612 L1764.89 43.612 L1764.89 36.8875 L1772.26 36.8875 Q1778.3 36.8875 1781.5 34.4975 Q1784.7 32.067 1784.7 27.5299 Q1784.7 22.8714 1781.38 20.4004 Q1778.09 17.8888 1771.94 17.8888 Q1768.57 17.8888 1764.73 18.618 Q1760.88 19.3471 1756.26 20.8865 L1756.26 13.5948 Q1760.92 12.2985 1764.97 11.6504 Q1769.06 11.0023 1772.67 11.0023 Q1781.98 11.0023 1787.41 15.2557 Q1792.84 19.4686 1792.84 26.6793 Q1792.84 31.7024 1789.96 35.1862 Q1787.09 38.6294 1781.78 39.9662 Z" fill="#000000" fill-rule="evenodd" fill-opacity="1" /><path clip-path="url(#clip280)" d="M1816.82 65.6895 L1845.38 65.6895 L1845.38 72.576 L1806.98 72.576 L1806.98 65.6895 Q1811.64 60.8689 1819.66 52.7671 Q1827.72 44.6248 1829.78 42.2752 Q1833.71 37.8598 1835.25 34.8216 Q1836.83 31.7429 1836.83 28.7857 Q1836.83 23.9651 1833.43 20.927 Q1830.07 17.8888 1824.64 17.8888 Q1820.79 17.8888 1816.5 19.2256 Q1812.24 20.5624 1807.38 23.2765 L1807.38 15.0127 Q1812.32 13.0277 1816.62 12.015 Q1820.91 11.0023 1824.48 11.0023 Q1833.88 11.0023 1839.47 15.7013 Q1845.06 20.4004 1845.06 28.2591 Q1845.06 31.9859 1843.64 35.3482 Q1842.26 38.6699 1838.57 43.2069 Q1837.56 44.3817 1832.13 50.0125 Q1826.71 55.6027 1816.82 65.6895 Z" fill="#000000" fill-rule="evenodd" fill-opacity="1" /><circle clip-path="url(#clip282)" cx="218.281" cy="1447.87" r="14.4" fill="#009af9" fill-rule="evenodd" fill-opacity="1" stroke="#000000" stroke-opacity="1" stroke-width="3.2"/>
<circle clip-path="url(#clip282)" cx="239.214" cy="1446.94" r="14.4" fill="#009af9" fill-rule="evenodd" fill-opacity="1" stroke="#000000" stroke-opacity="1" stroke-width="3.2"/>
<circle clip-path="url(#clip282)" cx="260.146" cy="1445.39" r="14.4" fill="#009af9" fill-rule="evenodd" fill-opacity="1" stroke="#000000" stroke-opacity="1" stroke-width="3.2"/>
<circle clip-path="url(#clip282)" cx="281.078" cy="1443.21" r="14.4" fill="#009af9" fill-rule="evenodd" fill-opacity="1" stroke="#000000" stroke-opacity="1" stroke-width="3.2"/>
<circle clip-path="url(#clip282)" cx="302.011" cy="1440.42" r="14.4" fill="#009af9" fill-rule="evenodd" fill-opacity="1" stroke="#000000" stroke-opacity="1" stroke-width="3.2"/>
<circle clip-path="url(#clip282)" cx="322.943" cy="1437.01" r="14.4" fill="#009af9" fill-rule="evenodd" fill-opacity="1" stroke="#000000" stroke-opacity="1" stroke-width="3.2"/>
<circle clip-path="url(#clip282)" cx="343.876" cy="1433" r="14.4" fill="#009af9" fill-rule="evenodd" fill-opacity="1" stroke="#000000" stroke-opacity="1" stroke-width="3.2"/>
<circle clip-path="url(#clip282)" cx="364.808" cy="1428.37" r="14.4" fill="#009af9" fill-rule="evenodd" fill-opacity="1" stroke="#000000" stroke-opacity="1" stroke-width="3.2"/>
<circle clip-path="url(#clip282)" cx="385.74" cy="1423.14" r="14.4" fill="#009af9" fill-rule="evenodd" fill-opacity="1" stroke="#000000" stroke-opacity="1" stroke-width="3.2"/>
<circle clip-path="url(#clip282)" cx="406.673" cy="1417.32" r="14.4" fill="#009af9" fill-rule="evenodd" fill-opacity="1" stroke="#000000" stroke-opacity="1" stroke-width="3.2"/>
<circle clip-path="url(#clip282)" cx="427.605" cy="1410.9" r="14.4" fill="#009af9" fill-rule="evenodd" fill-opacity="1" stroke="#000000" stroke-opacity="1" stroke-width="3.2"/>
<circle clip-path="url(#clip282)" cx="448.537" cy="1403.89" r="14.4" fill="#009af9" fill-rule="evenodd" fill-opacity="1" stroke="#000000" stroke-opacity="1" stroke-width="3.2"/>
<circle clip-path="url(#clip282)" cx="469.47" cy="1396.31" r="14.4" fill="#009af9" fill-rule="evenodd" fill-opacity="1" stroke="#000000" stroke-opacity="1" stroke-width="3.2"/>
<circle clip-path="url(#clip282)" cx="490.402" cy="1388.15" r="14.4" fill="#009af9" fill-rule="evenodd" fill-opacity="1" stroke="#000000" stroke-opacity="1" stroke-width="3.2"/>
<circle clip-path="url(#clip282)" cx="511.335" cy="1379.43" r="14.4" fill="#009af9" fill-rule="evenodd" fill-opacity="1" stroke="#000000" stroke-opacity="1" stroke-width="3.2"/>
<circle clip-path="url(#clip282)" cx="532.267" cy="1370.16" r="14.4" fill="#009af9" fill-rule="evenodd" fill-opacity="1" stroke="#000000" stroke-opacity="1" stroke-width="3.2"/>
<circle clip-path="url(#clip282)" cx="553.199" cy="1360.33" r="14.4" fill="#009af9" fill-rule="evenodd" fill-opacity="1" stroke="#000000" stroke-opacity="1" stroke-width="3.2"/>
<circle clip-path="url(#clip282)" cx="574.132" cy="1349.97" r="14.4" fill="#009af9" fill-rule="evenodd" fill-opacity="1" stroke="#000000" stroke-opacity="1" stroke-width="3.2"/>
<circle clip-path="url(#clip282)" cx="595.064" cy="1339.09" r="14.4" fill="#009af9" fill-rule="evenodd" fill-opacity="1" stroke="#000000" stroke-opacity="1" stroke-width="3.2"/>
<circle clip-path="url(#clip282)" cx="615.996" cy="1327.68" r="14.4" fill="#009af9" fill-rule="evenodd" fill-opacity="1" stroke="#000000" stroke-opacity="1" stroke-width="3.2"/>
<circle clip-path="url(#clip282)" cx="636.929" cy="1315.77" r="14.4" fill="#009af9" fill-rule="evenodd" fill-opacity="1" stroke="#000000" stroke-opacity="1" stroke-width="3.2"/>
<circle clip-path="url(#clip282)" cx="657.861" cy="1303.37" r="14.4" fill="#009af9" fill-rule="evenodd" fill-opacity="1" stroke="#000000" stroke-opacity="1" stroke-width="3.2"/>
<circle clip-path="url(#clip282)" cx="678.794" cy="1290.48" r="14.4" fill="#009af9" fill-rule="evenodd" fill-opacity="1" stroke="#000000" stroke-opacity="1" stroke-width="3.2"/>
<circle clip-path="url(#clip282)" cx="699.726" cy="1277.12" r="14.4" fill="#009af9" fill-rule="evenodd" fill-opacity="1" stroke="#000000" stroke-opacity="1" stroke-width="3.2"/>
<circle clip-path="url(#clip282)" cx="720.658" cy="1263.31" r="14.4" fill="#009af9" fill-rule="evenodd" fill-opacity="1" stroke="#000000" stroke-opacity="1" stroke-width="3.2"/>
<circle clip-path="url(#clip282)" cx="741.591" cy="1249.05" r="14.4" fill="#009af9" fill-rule="evenodd" fill-opacity="1" stroke="#000000" stroke-opacity="1" stroke-width="3.2"/>
<circle clip-path="url(#clip282)" cx="762.523" cy="1234.37" r="14.4" fill="#009af9" fill-rule="evenodd" fill-opacity="1" stroke="#000000" stroke-opacity="1" stroke-width="3.2"/>
<circle clip-path="url(#clip282)" cx="783.456" cy="1219.27" r="14.4" fill="#009af9" fill-rule="evenodd" fill-opacity="1" stroke="#000000" stroke-opacity="1" stroke-width="3.2"/>
<circle clip-path="url(#clip282)" cx="804.388" cy="1203.77" r="14.4" fill="#009af9" fill-rule="evenodd" fill-opacity="1" stroke="#000000" stroke-opacity="1" stroke-width="3.2"/>
<circle clip-path="url(#clip282)" cx="825.32" cy="1187.88" r="14.4" fill="#009af9" fill-rule="evenodd" fill-opacity="1" stroke="#000000" stroke-opacity="1" stroke-width="3.2"/>
<circle clip-path="url(#clip282)" cx="846.253" cy="1171.62" r="14.4" fill="#009af9" fill-rule="evenodd" fill-opacity="1" stroke="#000000" stroke-opacity="1" stroke-width="3.2"/>
<circle clip-path="url(#clip282)" cx="867.185" cy="1155.01" r="14.4" fill="#009af9" fill-rule="evenodd" fill-opacity="1" stroke="#000000" stroke-opacity="1" stroke-width="3.2"/>
<circle clip-path="url(#clip282)" cx="888.117" cy="1138.05" r="14.4" fill="#009af9" fill-rule="evenodd" fill-opacity="1" stroke="#000000" stroke-opacity="1" stroke-width="3.2"/>
<circle clip-path="url(#clip282)" cx="909.05" cy="1120.78" r="14.4" fill="#009af9" fill-rule="evenodd" fill-opacity="1" stroke="#000000" stroke-opacity="1" stroke-width="3.2"/>
<circle clip-path="url(#clip282)" cx="929.982" cy="1103.2" r="14.4" fill="#009af9" fill-rule="evenodd" fill-opacity="1" stroke="#000000" stroke-opacity="1" stroke-width="3.2"/>
<circle clip-path="url(#clip282)" cx="950.915" cy="1085.33" r="14.4" fill="#009af9" fill-rule="evenodd" fill-opacity="1" stroke="#000000" stroke-opacity="1" stroke-width="3.2"/>
<circle clip-path="url(#clip282)" cx="971.847" cy="1067.19" r="14.4" fill="#009af9" fill-rule="evenodd" fill-opacity="1" stroke="#000000" stroke-opacity="1" stroke-width="3.2"/>
<circle clip-path="url(#clip282)" cx="992.779" cy="1048.8" r="14.4" fill="#009af9" fill-rule="evenodd" fill-opacity="1" stroke="#000000" stroke-opacity="1" stroke-width="3.2"/>
<circle clip-path="url(#clip282)" cx="1013.71" cy="1030.17" r="14.4" fill="#009af9" fill-rule="evenodd" fill-opacity="1" stroke="#000000" stroke-opacity="1" stroke-width="3.2"/>
<circle clip-path="url(#clip282)" cx="1034.64" cy="1011.32" r="14.4" fill="#009af9" fill-rule="evenodd" fill-opacity="1" stroke="#000000" stroke-opacity="1" stroke-width="3.2"/>
<circle clip-path="url(#clip282)" cx="1055.58" cy="992.276" r="14.4" fill="#009af9" fill-rule="evenodd" fill-opacity="1" stroke="#000000" stroke-opacity="1" stroke-width="3.2"/>
<circle clip-path="url(#clip282)" cx="1076.51" cy="973.049" r="14.4" fill="#009af9" fill-rule="evenodd" fill-opacity="1" stroke="#000000" stroke-opacity="1" stroke-width="3.2"/>
<circle clip-path="url(#clip282)" cx="1097.44" cy="953.658" r="14.4" fill="#009af9" fill-rule="evenodd" fill-opacity="1" stroke="#000000" stroke-opacity="1" stroke-width="3.2"/>
<circle clip-path="url(#clip282)" cx="1118.37" cy="934.124" r="14.4" fill="#009af9" fill-rule="evenodd" fill-opacity="1" stroke="#000000" stroke-opacity="1" stroke-width="3.2"/>
<circle clip-path="url(#clip282)" cx="1139.31" cy="914.465" r="14.4" fill="#009af9" fill-rule="evenodd" fill-opacity="1" stroke="#000000" stroke-opacity="1" stroke-width="3.2"/>
<circle clip-path="url(#clip282)" cx="1160.24" cy="894.7" r="14.4" fill="#009af9" fill-rule="evenodd" fill-opacity="1" stroke="#000000" stroke-opacity="1" stroke-width="3.2"/>
<circle clip-path="url(#clip282)" cx="1181.17" cy="874.848" r="14.4" fill="#009af9" fill-rule="evenodd" fill-opacity="1" stroke="#000000" stroke-opacity="1" stroke-width="3.2"/>
<circle clip-path="url(#clip282)" cx="1202.1" cy="854.928" r="14.4" fill="#009af9" fill-rule="evenodd" fill-opacity="1" stroke="#000000" stroke-opacity="1" stroke-width="3.2"/>
<circle clip-path="url(#clip282)" cx="1223.04" cy="834.96" r="14.4" fill="#009af9" fill-rule="evenodd" fill-opacity="1" stroke="#000000" stroke-opacity="1" stroke-width="3.2"/>
<circle clip-path="url(#clip282)" cx="1243.97" cy="814.963" r="14.4" fill="#009af9" fill-rule="evenodd" fill-opacity="1" stroke="#000000" stroke-opacity="1" stroke-width="3.2"/>
<circle clip-path="url(#clip282)" cx="1264.9" cy="794.957" r="14.4" fill="#009af9" fill-rule="evenodd" fill-opacity="1" stroke="#000000" stroke-opacity="1" stroke-width="3.2"/>
<circle clip-path="url(#clip282)" cx="1285.83" cy="774.96" r="14.4" fill="#009af9" fill-rule="evenodd" fill-opacity="1" stroke="#000000" stroke-opacity="1" stroke-width="3.2"/>
<circle clip-path="url(#clip282)" cx="1306.76" cy="754.992" r="14.4" fill="#009af9" fill-rule="evenodd" fill-opacity="1" stroke="#000000" stroke-opacity="1" stroke-width="3.2"/>
<circle clip-path="url(#clip282)" cx="1327.7" cy="735.072" r="14.4" fill="#009af9" fill-rule="evenodd" fill-opacity="1" stroke="#000000" stroke-opacity="1" stroke-width="3.2"/>
<circle clip-path="url(#clip282)" cx="1348.63" cy="715.22" r="14.4" fill="#009af9" fill-rule="evenodd" fill-opacity="1" stroke="#000000" stroke-opacity="1" stroke-width="3.2"/>
<circle clip-path="url(#clip282)" cx="1369.56" cy="695.455" r="14.4" fill="#009af9" fill-rule="evenodd" fill-opacity="1" stroke="#000000" stroke-opacity="1" stroke-width="3.2"/>
<circle clip-path="url(#clip282)" cx="1390.49" cy="675.796" r="14.4" fill="#009af9" fill-rule="evenodd" fill-opacity="1" stroke="#000000" stroke-opacity="1" stroke-width="3.2"/>
<circle clip-path="url(#clip282)" cx="1411.43" cy="656.262" r="14.4" fill="#009af9" fill-rule="evenodd" fill-opacity="1" stroke="#000000" stroke-opacity="1" stroke-width="3.2"/>
<circle clip-path="url(#clip282)" cx="1432.36" cy="636.871" r="14.4" fill="#009af9" fill-rule="evenodd" fill-opacity="1" stroke="#000000" stroke-opacity="1" stroke-width="3.2"/>
<circle clip-path="url(#clip282)" cx="1453.29" cy="617.644" r="14.4" fill="#009af9" fill-rule="evenodd" fill-opacity="1" stroke="#000000" stroke-opacity="1" stroke-width="3.2"/>
<circle clip-path="url(#clip282)" cx="1474.22" cy="598.597" r="14.4" fill="#009af9" fill-rule="evenodd" fill-opacity="1" stroke="#000000" stroke-opacity="1" stroke-width="3.2"/>
<circle clip-path="url(#clip282)" cx="1495.16" cy="579.75" r="14.4" fill="#009af9" fill-rule="evenodd" fill-opacity="1" stroke="#000000" stroke-opacity="1" stroke-width="3.2"/>
<circle clip-path="url(#clip282)" cx="1516.09" cy="561.121" r="14.4" fill="#009af9" fill-rule="evenodd" fill-opacity="1" stroke="#000000" stroke-opacity="1" stroke-width="3.2"/>
<circle clip-path="url(#clip282)" cx="1537.02" cy="542.728" r="14.4" fill="#009af9" fill-rule="evenodd" fill-opacity="1" stroke="#000000" stroke-opacity="1" stroke-width="3.2"/>
<circle clip-path="url(#clip282)" cx="1557.95" cy="524.589" r="14.4" fill="#009af9" fill-rule="evenodd" fill-opacity="1" stroke="#000000" stroke-opacity="1" stroke-width="3.2"/>
<circle clip-path="url(#clip282)" cx="1578.89" cy="506.72" r="14.4" fill="#009af9" fill-rule="evenodd" fill-opacity="1" stroke="#000000" stroke-opacity="1" stroke-width="3.2"/>
<circle clip-path="url(#clip282)" cx="1599.82" cy="489.141" r="14.4" fill="#009af9" fill-rule="evenodd" fill-opacity="1" stroke="#000000" stroke-opacity="1" stroke-width="3.2"/>
<circle clip-path="url(#clip282)" cx="1620.75" cy="471.867" r="14.4" fill="#009af9" fill-rule="evenodd" fill-opacity="1" stroke="#000000" stroke-opacity="1" stroke-width="3.2"/>
<circle clip-path="url(#clip282)" cx="1641.68" cy="454.915" r="14.4" fill="#009af9" fill-rule="evenodd" fill-opacity="1" stroke="#000000" stroke-opacity="1" stroke-width="3.2"/>
<circle clip-path="url(#clip282)" cx="1662.62" cy="438.301" r="14.4" fill="#009af9" fill-rule="evenodd" fill-opacity="1" stroke="#000000" stroke-opacity="1" stroke-width="3.2"/>
<circle clip-path="url(#clip282)" cx="1683.55" cy="422.043" r="14.4" fill="#009af9" fill-rule="evenodd" fill-opacity="1" stroke="#000000" stroke-opacity="1" stroke-width="3.2"/>
<circle clip-path="url(#clip282)" cx="1704.48" cy="406.155" r="14.4" fill="#009af9" fill-rule="evenodd" fill-opacity="1" stroke="#000000" stroke-opacity="1" stroke-width="3.2"/>
<circle clip-path="url(#clip282)" cx="1725.41" cy="390.653" r="14.4" fill="#009af9" fill-rule="evenodd" fill-opacity="1" stroke="#000000" stroke-opacity="1" stroke-width="3.2"/>
<circle clip-path="url(#clip282)" cx="1746.34" cy="375.551" r="14.4" fill="#009af9" fill-rule="evenodd" fill-opacity="1" stroke="#000000" stroke-opacity="1" stroke-width="3.2"/>
<circle clip-path="url(#clip282)" cx="1767.28" cy="360.865" r="14.4" fill="#009af9" fill-rule="evenodd" fill-opacity="1" stroke="#000000" stroke-opacity="1" stroke-width="3.2"/>
<circle clip-path="url(#clip282)" cx="1788.21" cy="346.609" r="14.4" fill="#009af9" fill-rule="evenodd" fill-opacity="1" stroke="#000000" stroke-opacity="1" stroke-width="3.2"/>
<circle clip-path="url(#clip282)" cx="1809.14" cy="332.796" r="14.4" fill="#009af9" fill-rule="evenodd" fill-opacity="1" stroke="#000000" stroke-opacity="1" stroke-width="3.2"/>
<circle clip-path="url(#clip282)" cx="1830.07" cy="319.44" r="14.4" fill="#009af9" fill-rule="evenodd" fill-opacity="1" stroke="#000000" stroke-opacity="1" stroke-width="3.2"/>
<circle clip-path="url(#clip282)" cx="1851.01" cy="306.553" r="14.4" fill="#009af9" fill-rule="evenodd" fill-opacity="1" stroke="#000000" stroke-opacity="1" stroke-width="3.2"/>
<circle clip-path="url(#clip282)" cx="1871.94" cy="294.149" r="14.4" fill="#009af9" fill-rule="evenodd" fill-opacity="1" stroke="#000000" stroke-opacity="1" stroke-width="3.2"/>
<circle clip-path="url(#clip282)" cx="1892.87" cy="282.239" r="14.4" fill="#009af9" fill-rule="evenodd" fill-opacity="1" stroke="#000000" stroke-opacity="1" stroke-width="3.2"/>
<circle clip-path="url(#clip282)" cx="1913.8" cy="270.834" r="14.4" fill="#009af9" fill-rule="evenodd" fill-opacity="1" stroke="#000000" stroke-opacity="1" stroke-width="3.2"/>
<circle clip-path="url(#clip282)" cx="1934.74" cy="259.947" r="14.4" fill="#009af9" fill-rule="evenodd" fill-opacity="1" stroke="#000000" stroke-opacity="1" stroke-width="3.2"/>
<circle clip-path="url(#clip282)" cx="1955.67" cy="249.586" r="14.4" fill="#009af9" fill-rule="evenodd" fill-opacity="1" stroke="#000000" stroke-opacity="1" stroke-width="3.2"/>
<circle clip-path="url(#clip282)" cx="1976.6" cy="239.763" r="14.4" fill="#009af9" fill-rule="evenodd" fill-opacity="1" stroke="#000000" stroke-opacity="1" stroke-width="3.2"/>
<circle clip-path="url(#clip282)" cx="1997.53" cy="230.487" r="14.4" fill="#009af9" fill-rule="evenodd" fill-opacity="1" stroke="#000000" stroke-opacity="1" stroke-width="3.2"/>
<circle clip-path="url(#clip282)" cx="2018.47" cy="221.766" r="14.4" fill="#009af9" fill-rule="evenodd" fill-opacity="1" stroke="#000000" stroke-opacity="1" stroke-width="3.2"/>
<circle clip-path="url(#clip282)" cx="2039.4" cy="213.61" r="14.4" fill="#009af9" fill-rule="evenodd" fill-opacity="1" stroke="#000000" stroke-opacity="1" stroke-width="3.2"/>
<circle clip-path="url(#clip282)" cx="2060.33" cy="206.026" r="14.4" fill="#009af9" fill-rule="evenodd" fill-opacity="1" stroke="#000000" stroke-opacity="1" stroke-width="3.2"/>
<circle clip-path="url(#clip282)" cx="2081.26" cy="199.021" r="14.4" fill="#009af9" fill-rule="evenodd" fill-opacity="1" stroke="#000000" stroke-opacity="1" stroke-width="3.2"/>
<circle clip-path="url(#clip282)" cx="2102.2" cy="192.602" r="14.4" fill="#009af9" fill-rule="evenodd" fill-opacity="1" stroke="#000000" stroke-opacity="1" stroke-width="3.2"/>
<circle clip-path="url(#clip282)" cx="2123.13" cy="186.776" r="14.4" fill="#009af9" fill-rule="evenodd" fill-opacity="1" stroke="#000000" stroke-opacity="1" stroke-width="3.2"/>
<circle clip-path="url(#clip282)" cx="2144.06" cy="181.548" r="14.4" fill="#009af9" fill-rule="evenodd" fill-opacity="1" stroke="#000000" stroke-opacity="1" stroke-width="3.2"/>
<circle clip-path="url(#clip282)" cx="2164.99" cy="176.923" r="14.4" fill="#009af9" fill-rule="evenodd" fill-opacity="1" stroke="#000000" stroke-opacity="1" stroke-width="3.2"/>
<circle clip-path="url(#clip282)" cx="2185.92" cy="172.905" r="14.4" fill="#009af9" fill-rule="evenodd" fill-opacity="1" stroke="#000000" stroke-opacity="1" stroke-width="3.2"/>
<circle clip-path="url(#clip282)" cx="2206.86" cy="169.499" r="14.4" fill="#009af9" fill-rule="evenodd" fill-opacity="1" stroke="#000000" stroke-opacity="1" stroke-width="3.2"/>
<circle clip-path="url(#clip282)" cx="2227.79" cy="166.708" r="14.4" fill="#009af9" fill-rule="evenodd" fill-opacity="1" stroke="#000000" stroke-opacity="1" stroke-width="3.2"/>
<circle clip-path="url(#clip282)" cx="2248.72" cy="164.534" r="14.4" fill="#009af9" fill-rule="evenodd" fill-opacity="1" stroke="#000000" stroke-opacity="1" stroke-width="3.2"/>
<circle clip-path="url(#clip282)" cx="2269.65" cy="162.98" r="14.4" fill="#009af9" fill-rule="evenodd" fill-opacity="1" stroke="#000000" stroke-opacity="1" stroke-width="3.2"/>
<circle clip-path="url(#clip282)" cx="2290.59" cy="162.047" r="14.4" fill="#009af9" fill-rule="evenodd" fill-opacity="1" stroke="#000000" stroke-opacity="1" stroke-width="3.2"/>
</svg>
