<?xml version="1.0" encoding="utf-8"?>
<svg xmlns="http://www.w3.org/2000/svg" xmlns:xlink="http://www.w3.org/1999/xlink" width="600" height="400" viewBox="0 0 2400 1600">
<defs>
  <clipPath id="clip890">
    <rect x="0" y="0" width="2400" height="1600"/>
  </clipPath>
</defs>
<path clip-path="url(#clip890)" d="
M0 1600 L2400 1600 L2400 0 L0 0  Z
  " fill="#ffffff" fill-rule="evenodd" fill-opacity="1"/>
<defs>
  <clipPath id="clip891">
    <rect x="480" y="0" width="1681" height="1600"/>
  </clipPath>
</defs>
<path clip-path="url(#clip890)" d="
M193.936 1486.45 L2352.76 1486.45 L2352.76 47.2441 L193.936 47.2441  Z
  " fill="#ffffff" fill-rule="evenodd" fill-opacity="1"/>
<defs>
  <clipPath id="clip892">
    <rect x="193" y="47" width="2160" height="1440"/>
  </clipPath>
</defs>
<polyline clip-path="url(#clip892)" style="stroke:#000000; stroke-linecap:butt; stroke-linejoin:round; stroke-width:2; stroke-opacity:0.1; fill:none" points="
  193.936,1486.45 193.936,47.2441 
  "/>
<polyline clip-path="url(#clip892)" style="stroke:#000000; stroke-linecap:butt; stroke-linejoin:round; stroke-width:2; stroke-opacity:0.1; fill:none" points="
  684.577,1486.45 684.577,47.2441 
  "/>
<polyline clip-path="url(#clip892)" style="stroke:#000000; stroke-linecap:butt; stroke-linejoin:round; stroke-width:2; stroke-opacity:0.1; fill:none" points="
  1175.22,1486.45 1175.22,47.2441 
  "/>
<polyline clip-path="url(#clip892)" style="stroke:#000000; stroke-linecap:butt; stroke-linejoin:round; stroke-width:2; stroke-opacity:0.1; fill:none" points="
  1665.86,1486.45 1665.86,47.2441 
  "/>
<polyline clip-path="url(#clip892)" style="stroke:#000000; stroke-linecap:butt; stroke-linejoin:round; stroke-width:2; stroke-opacity:0.1; fill:none" points="
  2156.5,1486.45 2156.5,47.2441 
  "/>
<polyline clip-path="url(#clip890)" style="stroke:#000000; stroke-linecap:butt; stroke-linejoin:round; stroke-width:4; stroke-opacity:1; fill:none" points="
  193.936,1486.45 2352.76,1486.45 
  "/>
<polyline clip-path="url(#clip890)" style="stroke:#000000; stroke-linecap:butt; stroke-linejoin:round; stroke-width:4; stroke-opacity:1; fill:none" points="
  193.936,1486.45 193.936,1467.55 
  "/>
<polyline clip-path="url(#clip890)" style="stroke:#000000; stroke-linecap:butt; stroke-linejoin:round; stroke-width:4; stroke-opacity:1; fill:none" points="
  684.577,1486.45 684.577,1467.55 
  "/>
<polyline clip-path="url(#clip890)" style="stroke:#000000; stroke-linecap:butt; stroke-linejoin:round; stroke-width:4; stroke-opacity:1; fill:none" points="
  1175.22,1486.45 1175.22,1467.55 
  "/>
<polyline clip-path="url(#clip890)" style="stroke:#000000; stroke-linecap:butt; stroke-linejoin:round; stroke-width:4; stroke-opacity:1; fill:none" points="
  1665.86,1486.45 1665.86,1467.55 
  "/>
<polyline clip-path="url(#clip890)" style="stroke:#000000; stroke-linecap:butt; stroke-linejoin:round; stroke-width:4; stroke-opacity:1; fill:none" points="
  2156.5,1486.45 2156.5,1467.55 
  "/>
<path clip-path="url(#clip890)" d="M147.999 1532.02 L177.675 1532.02 L177.675 1535.95 L147.999 1535.95 L147.999 1532.02 Z" fill="#000000" fill-rule="evenodd" fill-opacity="1" /><path clip-path="url(#clip890)" d="M191.795 1544.91 L208.114 1544.91 L208.114 1548.85 L186.17 1548.85 L186.17 1544.91 Q188.832 1542.16 193.415 1537.53 Q198.022 1532.88 199.202 1531.53 Q201.448 1529.01 202.327 1527.27 Q203.23 1525.51 203.23 1523.82 Q203.23 1521.07 201.285 1519.33 Q199.364 1517.6 196.262 1517.6 Q194.063 1517.6 191.61 1518.36 Q189.179 1519.13 186.401 1520.68 L186.401 1515.95 Q189.225 1514.82 191.679 1514.24 Q194.133 1513.66 196.17 1513.66 Q201.54 1513.66 204.735 1516.35 Q207.929 1519.03 207.929 1523.52 Q207.929 1525.65 207.119 1527.57 Q206.332 1529.47 204.225 1532.07 Q203.647 1532.74 200.545 1535.95 Q197.443 1539.15 191.795 1544.91 Z" fill="#000000" fill-rule="evenodd" fill-opacity="1" /><path clip-path="url(#clip890)" d="M227.929 1517.37 Q224.318 1517.37 222.489 1520.93 Q220.684 1524.47 220.684 1531.6 Q220.684 1538.71 222.489 1542.27 Q224.318 1545.82 227.929 1545.82 Q231.563 1545.82 233.369 1542.27 Q235.197 1538.71 235.197 1531.6 Q235.197 1524.47 233.369 1520.93 Q231.563 1517.37 227.929 1517.37 M227.929 1513.66 Q233.739 1513.66 236.795 1518.27 Q239.873 1522.85 239.873 1531.6 Q239.873 1540.33 236.795 1544.94 Q233.739 1549.52 227.929 1549.52 Q222.119 1549.52 219.04 1544.94 Q215.984 1540.33 215.984 1531.6 Q215.984 1522.85 219.04 1518.27 Q222.119 1513.66 227.929 1513.66 Z" fill="#000000" fill-rule="evenodd" fill-opacity="1" /><path clip-path="url(#clip890)" d="M639.137 1532.02 L668.813 1532.02 L668.813 1535.95 L639.137 1535.95 L639.137 1532.02 Z" fill="#000000" fill-rule="evenodd" fill-opacity="1" /><path clip-path="url(#clip890)" d="M679.716 1544.91 L687.355 1544.91 L687.355 1518.55 L679.045 1520.21 L679.045 1515.95 L687.308 1514.29 L691.984 1514.29 L691.984 1544.91 L699.623 1544.91 L699.623 1548.85 L679.716 1548.85 L679.716 1544.91 Z" fill="#000000" fill-rule="evenodd" fill-opacity="1" /><path clip-path="url(#clip890)" d="M709.114 1514.29 L727.47 1514.29 L727.47 1518.22 L713.396 1518.22 L713.396 1526.7 Q714.415 1526.35 715.433 1526.19 Q716.452 1526 717.47 1526 Q723.257 1526 726.637 1529.17 Q730.016 1532.34 730.016 1537.76 Q730.016 1543.34 726.544 1546.44 Q723.072 1549.52 716.753 1549.52 Q714.577 1549.52 712.308 1549.15 Q710.063 1548.78 707.655 1548.04 L707.655 1543.34 Q709.739 1544.47 711.961 1545.03 Q714.183 1545.58 716.66 1545.58 Q720.665 1545.58 723.003 1543.48 Q725.341 1541.37 725.341 1537.76 Q725.341 1534.15 723.003 1532.04 Q720.665 1529.94 716.66 1529.94 Q714.785 1529.94 712.91 1530.35 Q711.058 1530.77 709.114 1531.65 L709.114 1514.29 Z" fill="#000000" fill-rule="evenodd" fill-opacity="1" /><path clip-path="url(#clip890)" d="M1129.28 1532.02 L1158.96 1532.02 L1158.96 1535.95 L1129.28 1535.95 L1129.28 1532.02 Z" fill="#000000" fill-rule="evenodd" fill-opacity="1" /><path clip-path="url(#clip890)" d="M1169.86 1544.91 L1177.5 1544.91 L1177.5 1518.55 L1169.19 1520.21 L1169.19 1515.95 L1177.45 1514.29 L1182.13 1514.29 L1182.13 1544.91 L1189.77 1544.91 L1189.77 1548.85 L1169.86 1548.85 L1169.86 1544.91 Z" fill="#000000" fill-rule="evenodd" fill-opacity="1" /><path clip-path="url(#clip890)" d="M1209.21 1517.37 Q1205.6 1517.37 1203.77 1520.93 Q1201.97 1524.47 1201.97 1531.6 Q1201.97 1538.71 1203.77 1542.27 Q1205.6 1545.82 1209.21 1545.82 Q1212.84 1545.82 1214.65 1542.27 Q1216.48 1538.71 1216.48 1531.6 Q1216.48 1524.47 1214.65 1520.93 Q1212.84 1517.37 1209.21 1517.37 M1209.21 1513.66 Q1215.02 1513.66 1218.08 1518.27 Q1221.16 1522.85 1221.16 1531.6 Q1221.16 1540.33 1218.08 1544.94 Q1215.02 1549.52 1209.21 1549.52 Q1203.4 1549.52 1200.32 1544.94 Q1197.27 1540.33 1197.27 1531.6 Q1197.27 1522.85 1200.32 1518.27 Q1203.4 1513.66 1209.21 1513.66 Z" fill="#000000" fill-rule="evenodd" fill-opacity="1" /><path clip-path="url(#clip890)" d="M1635.5 1532.02 L1665.18 1532.02 L1665.18 1535.95 L1635.5 1535.95 L1635.5 1532.02 Z" fill="#000000" fill-rule="evenodd" fill-opacity="1" /><path clip-path="url(#clip890)" d="M1675.31 1514.29 L1693.67 1514.29 L1693.67 1518.22 L1679.6 1518.22 L1679.6 1526.7 Q1680.62 1526.35 1681.63 1526.19 Q1682.65 1526 1683.67 1526 Q1689.46 1526 1692.84 1529.17 Q1696.22 1532.34 1696.22 1537.76 Q1696.22 1543.34 1692.75 1546.44 Q1689.27 1549.52 1682.95 1549.52 Q1680.78 1549.52 1678.51 1549.15 Q1676.26 1548.78 1673.86 1548.04 L1673.86 1543.34 Q1675.94 1544.47 1678.16 1545.03 Q1680.38 1545.58 1682.86 1545.58 Q1686.87 1545.58 1689.2 1543.48 Q1691.54 1541.37 1691.54 1537.76 Q1691.54 1534.15 1689.2 1532.04 Q1686.87 1529.94 1682.86 1529.94 Q1680.99 1529.94 1679.11 1530.35 Q1677.26 1530.77 1675.31 1531.65 L1675.31 1514.29 Z" fill="#000000" fill-rule="evenodd" fill-opacity="1" /><path clip-path="url(#clip890)" d="M2156.5 1517.37 Q2152.89 1517.37 2151.06 1520.93 Q2149.25 1524.47 2149.25 1531.6 Q2149.25 1538.71 2151.06 1542.27 Q2152.89 1545.82 2156.5 1545.82 Q2160.13 1545.82 2161.94 1542.27 Q2163.77 1538.71 2163.77 1531.6 Q2163.77 1524.47 2161.94 1520.93 Q2160.13 1517.37 2156.5 1517.37 M2156.5 1513.66 Q2162.31 1513.66 2165.37 1518.27 Q2168.44 1522.85 2168.44 1531.6 Q2168.44 1540.33 2165.37 1544.94 Q2162.31 1549.52 2156.5 1549.52 Q2150.69 1549.52 2147.61 1544.94 Q2144.56 1540.33 2144.56 1531.6 Q2144.56 1522.85 2147.61 1518.27 Q2150.69 1513.66 2156.5 1513.66 Z" fill="#000000" fill-rule="evenodd" fill-opacity="1" /><polyline clip-path="url(#clip892)" style="stroke:#000000; stroke-linecap:butt; stroke-linejoin:round; stroke-width:2; stroke-opacity:0.1; fill:none" points="
  193.936,1445.72 2352.76,1445.72 
  "/>
<polyline clip-path="url(#clip892)" style="stroke:#000000; stroke-linecap:butt; stroke-linejoin:round; stroke-width:2; stroke-opacity:0.1; fill:none" points="
  193.936,1106.28 2352.76,1106.28 
  "/>
<polyline clip-path="url(#clip892)" style="stroke:#000000; stroke-linecap:butt; stroke-linejoin:round; stroke-width:2; stroke-opacity:0.1; fill:none" points="
  193.936,766.846 2352.76,766.846 
  "/>
<polyline clip-path="url(#clip892)" style="stroke:#000000; stroke-linecap:butt; stroke-linejoin:round; stroke-width:2; stroke-opacity:0.1; fill:none" points="
  193.936,427.411 2352.76,427.411 
  "/>
<polyline clip-path="url(#clip892)" style="stroke:#000000; stroke-linecap:butt; stroke-linejoin:round; stroke-width:2; stroke-opacity:0.1; fill:none" points="
  193.936,87.9763 2352.76,87.9763 
  "/>
<polyline clip-path="url(#clip890)" style="stroke:#000000; stroke-linecap:butt; stroke-linejoin:round; stroke-width:4; stroke-opacity:1; fill:none" points="
  193.936,1486.45 193.936,47.2441 
  "/>
<polyline clip-path="url(#clip890)" style="stroke:#000000; stroke-linecap:butt; stroke-linejoin:round; stroke-width:4; stroke-opacity:1; fill:none" points="
  193.936,1445.72 212.834,1445.72 
  "/>
<polyline clip-path="url(#clip890)" style="stroke:#000000; stroke-linecap:butt; stroke-linejoin:round; stroke-width:4; stroke-opacity:1; fill:none" points="
  193.936,1106.28 212.834,1106.28 
  "/>
<polyline clip-path="url(#clip890)" style="stroke:#000000; stroke-linecap:butt; stroke-linejoin:round; stroke-width:4; stroke-opacity:1; fill:none" points="
  193.936,766.846 212.834,766.846 
  "/>
<polyline clip-path="url(#clip890)" style="stroke:#000000; stroke-linecap:butt; stroke-linejoin:round; stroke-width:4; stroke-opacity:1; fill:none" points="
  193.936,427.411 212.834,427.411 
  "/>
<polyline clip-path="url(#clip890)" style="stroke:#000000; stroke-linecap:butt; stroke-linejoin:round; stroke-width:4; stroke-opacity:1; fill:none" points="
  193.936,87.9763 212.834,87.9763 
  "/>
<path clip-path="url(#clip890)" d="M50.9921 1446.17 L80.6679 1446.17 L80.6679 1450.1 L50.9921 1450.1 L50.9921 1446.17 Z" fill="#000000" fill-rule="evenodd" fill-opacity="1" /><path clip-path="url(#clip890)" d="M91.5706 1459.06 L99.2095 1459.06 L99.2095 1432.69 L90.8993 1434.36 L90.8993 1430.1 L99.1632 1428.44 L103.839 1428.44 L103.839 1459.06 L111.478 1459.06 L111.478 1463 L91.5706 1463 L91.5706 1459.06 Z" fill="#000000" fill-rule="evenodd" fill-opacity="1" /><path clip-path="url(#clip890)" d="M120.922 1457.12 L125.807 1457.12 L125.807 1463 L120.922 1463 L120.922 1457.12 Z" fill="#000000" fill-rule="evenodd" fill-opacity="1" /><path clip-path="url(#clip890)" d="M145.992 1431.51 Q142.381 1431.51 140.552 1435.08 Q138.746 1438.62 138.746 1445.75 Q138.746 1452.86 140.552 1456.42 Q142.381 1459.96 145.992 1459.96 Q149.626 1459.96 151.431 1456.42 Q153.26 1452.86 153.26 1445.75 Q153.26 1438.62 151.431 1435.08 Q149.626 1431.51 145.992 1431.51 M145.992 1427.81 Q151.802 1427.81 154.857 1432.42 Q157.936 1437 157.936 1445.75 Q157.936 1454.48 154.857 1459.08 Q151.802 1463.67 145.992 1463.67 Q140.181 1463.67 137.103 1459.08 Q134.047 1454.48 134.047 1445.75 Q134.047 1437 137.103 1432.42 Q140.181 1427.81 145.992 1427.81 Z" fill="#000000" fill-rule="evenodd" fill-opacity="1" /><path clip-path="url(#clip890)" d="M51.9875 1106.73 L81.6633 1106.73 L81.6633 1110.67 L51.9875 1110.67 L51.9875 1106.73 Z" fill="#000000" fill-rule="evenodd" fill-opacity="1" /><path clip-path="url(#clip890)" d="M101.756 1092.08 Q98.1447 1092.08 96.316 1095.64 Q94.5104 1099.19 94.5104 1106.32 Q94.5104 1113.42 96.316 1116.99 Q98.1447 1120.53 101.756 1120.53 Q105.39 1120.53 107.196 1116.99 Q109.024 1113.42 109.024 1106.32 Q109.024 1099.19 107.196 1095.64 Q105.39 1092.08 101.756 1092.08 M101.756 1088.38 Q107.566 1088.38 110.621 1092.98 Q113.7 1097.57 113.7 1106.32 Q113.7 1115.04 110.621 1119.65 Q107.566 1124.23 101.756 1124.23 Q95.9456 1124.23 92.8669 1119.65 Q89.8114 1115.04 89.8114 1106.32 Q89.8114 1097.57 92.8669 1092.98 Q95.9456 1088.38 101.756 1088.38 Z" fill="#000000" fill-rule="evenodd" fill-opacity="1" /><path clip-path="url(#clip890)" d="M121.918 1117.68 L126.802 1117.68 L126.802 1123.56 L121.918 1123.56 L121.918 1117.68 Z" fill="#000000" fill-rule="evenodd" fill-opacity="1" /><path clip-path="url(#clip890)" d="M137.033 1089 L155.39 1089 L155.39 1092.94 L141.316 1092.94 L141.316 1101.41 Q142.334 1101.06 143.353 1100.9 Q144.371 1100.71 145.39 1100.71 Q151.177 1100.71 154.556 1103.89 Q157.936 1107.06 157.936 1112.47 Q157.936 1118.05 154.464 1121.15 Q150.992 1124.23 144.672 1124.23 Q142.496 1124.23 140.228 1123.86 Q137.982 1123.49 135.575 1122.75 L135.575 1118.05 Q137.658 1119.19 139.881 1119.74 Q142.103 1120.3 144.58 1120.3 Q148.584 1120.3 150.922 1118.19 Q153.26 1116.08 153.26 1112.47 Q153.26 1108.86 150.922 1106.76 Q148.584 1104.65 144.58 1104.65 Q142.705 1104.65 140.83 1105.07 Q138.978 1105.48 137.033 1106.36 L137.033 1089 Z" fill="#000000" fill-rule="evenodd" fill-opacity="1" /><path clip-path="url(#clip890)" d="M100.76 752.645 Q97.1493 752.645 95.3206 756.209 Q93.515 759.751 93.515 766.881 Q93.515 773.987 95.3206 777.552 Q97.1493 781.094 100.76 781.094 Q104.395 781.094 106.2 777.552 Q108.029 773.987 108.029 766.881 Q108.029 759.751 106.2 756.209 Q104.395 752.645 100.76 752.645 M100.76 748.941 Q106.571 748.941 109.626 753.547 Q112.705 758.131 112.705 766.881 Q112.705 775.608 109.626 780.214 Q106.571 784.797 100.76 784.797 Q94.9502 784.797 91.8715 780.214 Q88.816 775.608 88.816 766.881 Q88.816 758.131 91.8715 753.547 Q94.9502 748.941 100.76 748.941 Z" fill="#000000" fill-rule="evenodd" fill-opacity="1" /><path clip-path="url(#clip890)" d="M120.922 778.246 L125.807 778.246 L125.807 784.126 L120.922 784.126 L120.922 778.246 Z" fill="#000000" fill-rule="evenodd" fill-opacity="1" /><path clip-path="url(#clip890)" d="M145.992 752.645 Q142.381 752.645 140.552 756.209 Q138.746 759.751 138.746 766.881 Q138.746 773.987 140.552 777.552 Q142.381 781.094 145.992 781.094 Q149.626 781.094 151.431 777.552 Q153.26 773.987 153.26 766.881 Q153.26 759.751 151.431 756.209 Q149.626 752.645 145.992 752.645 M145.992 748.941 Q151.802 748.941 154.857 753.547 Q157.936 758.131 157.936 766.881 Q157.936 775.608 154.857 780.214 Q151.802 784.797 145.992 784.797 Q140.181 784.797 137.103 780.214 Q134.047 775.608 134.047 766.881 Q134.047 758.131 137.103 753.547 Q140.181 748.941 145.992 748.941 Z" fill="#000000" fill-rule="evenodd" fill-opacity="1" /><path clip-path="url(#clip890)" d="M101.756 413.21 Q98.1447 413.21 96.316 416.775 Q94.5104 420.316 94.5104 427.446 Q94.5104 434.552 96.316 438.117 Q98.1447 441.659 101.756 441.659 Q105.39 441.659 107.196 438.117 Q109.024 434.552 109.024 427.446 Q109.024 420.316 107.196 416.775 Q105.39 413.21 101.756 413.21 M101.756 409.506 Q107.566 409.506 110.621 414.113 Q113.7 418.696 113.7 427.446 Q113.7 436.173 110.621 440.779 Q107.566 445.362 101.756 445.362 Q95.9456 445.362 92.8669 440.779 Q89.8114 436.173 89.8114 427.446 Q89.8114 418.696 92.8669 414.113 Q95.9456 409.506 101.756 409.506 Z" fill="#000000" fill-rule="evenodd" fill-opacity="1" /><path clip-path="url(#clip890)" d="M121.918 438.812 L126.802 438.812 L126.802 444.691 L121.918 444.691 L121.918 438.812 Z" fill="#000000" fill-rule="evenodd" fill-opacity="1" /><path clip-path="url(#clip890)" d="M137.033 410.131 L155.39 410.131 L155.39 414.066 L141.316 414.066 L141.316 422.538 Q142.334 422.191 143.353 422.029 Q144.371 421.844 145.39 421.844 Q151.177 421.844 154.556 425.015 Q157.936 428.187 157.936 433.603 Q157.936 439.182 154.464 442.284 Q150.992 445.362 144.672 445.362 Q142.496 445.362 140.228 444.992 Q137.982 444.622 135.575 443.881 L135.575 439.182 Q137.658 440.316 139.881 440.872 Q142.103 441.427 144.58 441.427 Q148.584 441.427 150.922 439.321 Q153.26 437.214 153.26 433.603 Q153.26 429.992 150.922 427.886 Q148.584 425.779 144.58 425.779 Q142.705 425.779 140.83 426.196 Q138.978 426.613 137.033 427.492 L137.033 410.131 Z" fill="#000000" fill-rule="evenodd" fill-opacity="1" /><path clip-path="url(#clip890)" d="M91.5706 101.321 L99.2095 101.321 L99.2095 74.9555 L90.8993 76.6222 L90.8993 72.3629 L99.1632 70.6963 L103.839 70.6963 L103.839 101.321 L111.478 101.321 L111.478 105.256 L91.5706 105.256 L91.5706 101.321 Z" fill="#000000" fill-rule="evenodd" fill-opacity="1" /><path clip-path="url(#clip890)" d="M120.922 99.3767 L125.807 99.3767 L125.807 105.256 L120.922 105.256 L120.922 99.3767 Z" fill="#000000" fill-rule="evenodd" fill-opacity="1" /><path clip-path="url(#clip890)" d="M145.992 73.775 Q142.381 73.775 140.552 77.3398 Q138.746 80.8814 138.746 88.011 Q138.746 95.1174 140.552 98.6822 Q142.381 102.224 145.992 102.224 Q149.626 102.224 151.431 98.6822 Q153.26 95.1174 153.26 88.011 Q153.26 80.8814 151.431 77.3398 Q149.626 73.775 145.992 73.775 M145.992 70.0713 Q151.802 70.0713 154.857 74.6777 Q157.936 79.261 157.936 88.011 Q157.936 96.7378 154.857 101.344 Q151.802 105.928 145.992 105.928 Q140.181 105.928 137.103 101.344 Q134.047 96.7378 134.047 88.011 Q134.047 79.261 137.103 74.6777 Q140.181 70.0713 145.992 70.0713 Z" fill="#000000" fill-rule="evenodd" fill-opacity="1" /><circle clip-path="url(#clip892)" cx="2352.76" cy="112.397" r="14.4" fill="#009af9" fill-rule="evenodd" fill-opacity="1" stroke="#000000" stroke-opacity="1" stroke-width="3.2"/>
<circle clip-path="url(#clip892)" cx="1013.8" cy="1445.72" r="14.4" fill="#e26f46" fill-rule="evenodd" fill-opacity="1" stroke="#000000" stroke-opacity="1" stroke-width="3.2"/>
<polyline clip-path="url(#clip892)" style="stroke:#9b7fe8; stroke-linecap:butt; stroke-linejoin:round; stroke-width:4; stroke-opacity:1; fill:none" points="
  193.936,1445.72 207.991,1445.72 337.951,1445.72 416.051,1445.72 482.084,1445.72 553.814,1445.72 619.943,1445.72 690.84,1445.72 772.981,1445.72 845.979,1445.72 
  909.991,1445.72 979.782,1445.72 1049.99,1445.72 1127.61,1445.72 1201.46,1445.72 1278.25,1445.72 1342.9,1445.72 1421.82,1445.72 1494.11,1445.71 1560.88,1445.71 
  1628.52,1445.69 1704.32,1445.58 1773.01,1445.17 1812.33,1444.5 1851.66,1443 1869.86,1441.79 1888.06,1440.03 1906.27,1437.49 1924.47,1433.83 1942.42,1428.64 
  1960.37,1421.23 1969.34,1416.43 1978.32,1410.7 1987.29,1403.89 1996.26,1395.8 2004.98,1386.53 2013.69,1375.62 2022.4,1362.83 2031.11,1347.88 2039.83,1330.49 
  2048.54,1310.33 2052.9,1299.11 2057.25,1287.09 2061.61,1274.22 2065.96,1260.47 2070.43,1245.43 2074.9,1229.38 2079.36,1212.31 2083.83,1194.19 2088.29,1175 
  2092.76,1154.73 2097.23,1133.38 2101.69,1110.96 2106.16,1087.48 2110.62,1062.96 2115.09,1037.46 2119.55,1011.01 2128.49,955.548 2137.42,897.216 2147.2,830.965 
  2156.99,763.457 2166.78,696.017 2176.56,629.961 2181.45,597.837 2186.35,566.501 2191.24,536.072 2196.13,506.657 2201.02,478.344 2205.92,451.206 2210.81,425.296 
  2215.7,400.653 2222.81,367.156 2229.92,336.394 2237.03,308.33 2244.13,282.879 2251.24,259.923 2258.35,239.319 2265.46,220.907 2272.56,204.519 2279.67,189.983 
  2286.78,177.129 2293.89,165.795 2300.99,155.825 2308.1,147.073 2315.21,139.405 2322.32,132.698 2329.43,126.839 2335.26,122.595 2341.09,118.802 2346.92,115.417 
  2352.76,112.397 
  "/>
<path clip-path="url(#clip890)" d="
M1957.11 1438.47 L2280.8 1438.47 L2280.8 764.554 L1957.11 764.554  Z
  " fill="#ffffff" fill-rule="evenodd" fill-opacity="1"/>
<polyline clip-path="url(#clip890)" style="stroke:#000000; stroke-linecap:butt; stroke-linejoin:round; stroke-width:4; stroke-opacity:1; fill:none" points="
  1957.11,1438.47 2280.8,1438.47 2280.8,764.554 1957.11,764.554 1957.11,1438.47 
  "/>
<polyline clip-path="url(#clip890)" style="stroke:#009af9; stroke-linecap:butt; stroke-linejoin:round; stroke-width:4; stroke-opacity:1; fill:none" points="
  1981.09,816.394 2125.02,816.394 
  "/>
<circle clip-path="url(#clip890)" cx="2053.05" cy="816.394" r="23.04" fill="#009af9" fill-rule="evenodd" fill-opacity="1" stroke="#000000" stroke-opacity="1" stroke-width="5.12"/>
<path clip-path="url(#clip890)" d="M2162.84 836.082 Q2161.04 840.711 2159.33 842.123 Q2157.61 843.535 2154.74 843.535 L2151.34 843.535 L2151.34 839.971 L2153.84 839.971 Q2155.6 839.971 2156.57 839.137 Q2157.54 838.304 2158.72 835.202 L2159.49 833.258 L2149 807.749 L2153.52 807.749 L2161.62 828.026 L2169.72 807.749 L2174.23 807.749 L2162.84 836.082 Z" fill="#000000" fill-rule="evenodd" fill-opacity="1" /><path clip-path="url(#clip890)" d="M2181.53 829.739 L2189.16 829.739 L2189.16 803.374 L2180.85 805.04 L2180.85 800.781 L2189.12 799.114 L2193.79 799.114 L2193.79 829.739 L2201.43 829.739 L2201.43 833.674 L2181.53 833.674 L2181.53 829.739 Z" fill="#000000" fill-rule="evenodd" fill-opacity="1" /><polyline clip-path="url(#clip890)" style="stroke:#e26f46; stroke-linecap:butt; stroke-linejoin:round; stroke-width:4; stroke-opacity:1; fill:none" points="
  1981.09,868.234 2125.02,868.234 
  "/>
<circle clip-path="url(#clip890)" cx="2053.05" cy="868.234" r="23.04" fill="#e26f46" fill-rule="evenodd" fill-opacity="1" stroke="#000000" stroke-opacity="1" stroke-width="5.12"/>
<path clip-path="url(#clip890)" d="M2162.84 887.922 Q2161.04 892.551 2159.33 893.963 Q2157.61 895.375 2154.74 895.375 L2151.34 895.375 L2151.34 891.811 L2153.84 891.811 Q2155.6 891.811 2156.57 890.977 Q2157.54 890.144 2158.72 887.042 L2159.49 885.098 L2149 859.589 L2153.52 859.589 L2161.62 879.866 L2169.72 859.589 L2174.23 859.589 L2162.84 887.922 Z" fill="#000000" fill-rule="evenodd" fill-opacity="1" /><path clip-path="url(#clip890)" d="M2184.74 881.579 L2201.06 881.579 L2201.06 885.514 L2179.12 885.514 L2179.12 881.579 Q2181.78 878.825 2186.36 874.195 Q2190.97 869.542 2192.15 868.2 Q2194.4 865.677 2195.28 863.94 Q2196.18 862.181 2196.18 860.491 Q2196.18 857.737 2194.23 856.001 Q2192.31 854.265 2189.21 854.265 Q2187.01 854.265 2184.56 855.028 Q2182.13 855.792 2179.35 857.343 L2179.35 852.621 Q2182.17 851.487 2184.63 850.908 Q2187.08 850.329 2189.12 850.329 Q2194.49 850.329 2197.68 853.015 Q2200.88 855.7 2200.88 860.19 Q2200.88 862.32 2200.07 864.241 Q2199.28 866.14 2197.17 868.732 Q2196.59 869.403 2193.49 872.621 Q2190.39 875.815 2184.74 881.579 Z" fill="#000000" fill-rule="evenodd" fill-opacity="1" /><polyline clip-path="url(#clip890)" style="stroke:#3da44d; stroke-linecap:butt; stroke-linejoin:round; stroke-width:4; stroke-opacity:1; fill:none" points="
  1981.09,920.074 2125.02,920.074 
  "/>
<circle clip-path="url(#clip890)" cx="2053.05" cy="920.074" r="23.04" fill="#3da44d" fill-rule="evenodd" fill-opacity="1" stroke="#000000" stroke-opacity="1" stroke-width="5.12"/>
<path clip-path="url(#clip890)" d="M2162.84 939.762 Q2161.04 944.391 2159.33 945.803 Q2157.61 947.215 2154.74 947.215 L2151.34 947.215 L2151.34 943.651 L2153.84 943.651 Q2155.6 943.651 2156.57 942.817 Q2157.54 941.984 2158.72 938.882 L2159.49 936.938 L2149 911.429 L2153.52 911.429 L2161.62 931.706 L2169.72 911.429 L2174.23 911.429 L2162.84 939.762 Z" fill="#000000" fill-rule="evenodd" fill-opacity="1" /><path clip-path="url(#clip890)" d="M2194.88 918.72 Q2198.24 919.438 2200.11 921.706 Q2202.01 923.975 2202.01 927.308 Q2202.01 932.424 2198.49 935.225 Q2194.97 938.026 2188.49 938.026 Q2186.32 938.026 2184 937.586 Q2181.71 937.169 2179.26 936.313 L2179.26 931.799 Q2181.2 932.933 2183.52 933.512 Q2185.83 934.091 2188.35 934.091 Q2192.75 934.091 2195.04 932.354 Q2197.36 930.618 2197.36 927.308 Q2197.36 924.253 2195.21 922.54 Q2193.08 920.804 2189.26 920.804 L2185.23 920.804 L2185.23 916.961 L2189.44 916.961 Q2192.89 916.961 2194.72 915.595 Q2196.55 914.206 2196.55 911.614 Q2196.55 908.952 2194.65 907.54 Q2192.78 906.105 2189.26 906.105 Q2187.34 906.105 2185.14 906.521 Q2182.94 906.938 2180.3 907.818 L2180.3 903.651 Q2182.96 902.91 2185.28 902.54 Q2187.61 902.169 2189.67 902.169 Q2195 902.169 2198.1 904.6 Q2201.2 907.007 2201.2 911.128 Q2201.2 913.998 2199.56 915.989 Q2197.91 917.956 2194.88 918.72 Z" fill="#000000" fill-rule="evenodd" fill-opacity="1" /><polyline clip-path="url(#clip890)" style="stroke:#c271d2; stroke-linecap:butt; stroke-linejoin:round; stroke-width:4; stroke-opacity:1; fill:none" points="
  1981.09,971.914 2125.02,971.914 
  "/>
<path clip-path="url(#clip890)" d="M2162.84 991.602 Q2161.04 996.231 2159.33 997.643 Q2157.61 999.055 2154.74 999.055 L2151.34 999.055 L2151.34 995.491 L2153.84 995.491 Q2155.6 995.491 2156.57 994.657 Q2157.54 993.824 2158.72 990.722 L2159.49 988.778 L2149 963.269 L2153.52 963.269 L2161.62 983.546 L2169.72 963.269 L2174.23 963.269 L2162.84 991.602 Z" fill="#000000" fill-rule="evenodd" fill-opacity="1" /><path clip-path="url(#clip890)" d="M2193.56 958.708 L2181.76 977.157 L2193.56 977.157 L2193.56 958.708 M2192.34 954.634 L2198.22 954.634 L2198.22 977.157 L2203.15 977.157 L2203.15 981.046 L2198.22 981.046 L2198.22 989.194 L2193.56 989.194 L2193.56 981.046 L2177.96 981.046 L2177.96 976.532 L2192.34 954.634 Z" fill="#000000" fill-rule="evenodd" fill-opacity="1" /><polyline clip-path="url(#clip890)" style="stroke:#ac8d18; stroke-linecap:butt; stroke-linejoin:round; stroke-width:4; stroke-opacity:1; fill:none" points="
  1981.09,1023.75 2125.02,1023.75 
  "/>
<path clip-path="url(#clip890)" d="M2162.84 1043.44 Q2161.04 1048.07 2159.33 1049.48 Q2157.61 1050.9 2154.74 1050.9 L2151.34 1050.9 L2151.34 1047.33 L2153.84 1047.33 Q2155.6 1047.33 2156.57 1046.5 Q2157.54 1045.66 2158.72 1042.56 L2159.49 1040.62 L2149 1015.11 L2153.52 1015.11 L2161.62 1035.39 L2169.72 1015.11 L2174.23 1015.11 L2162.84 1043.44 Z" fill="#000000" fill-rule="evenodd" fill-opacity="1" /><path clip-path="url(#clip890)" d="M2180.76 1006.47 L2199.12 1006.47 L2199.12 1010.41 L2185.04 1010.41 L2185.04 1018.88 Q2186.06 1018.53 2187.08 1018.37 Q2188.1 1018.19 2189.12 1018.19 Q2194.91 1018.19 2198.28 1021.36 Q2201.66 1024.53 2201.66 1029.95 Q2201.66 1035.53 2198.19 1038.63 Q2194.72 1041.71 2188.4 1041.71 Q2186.22 1041.71 2183.96 1041.34 Q2181.71 1040.96 2179.3 1040.22 L2179.3 1035.53 Q2181.39 1036.66 2183.61 1037.21 Q2185.83 1037.77 2188.31 1037.77 Q2192.31 1037.77 2194.65 1035.66 Q2196.99 1033.56 2196.99 1029.95 Q2196.99 1026.34 2194.65 1024.23 Q2192.31 1022.12 2188.31 1022.12 Q2186.43 1022.12 2184.56 1022.54 Q2182.71 1022.96 2180.76 1023.84 L2180.76 1006.47 Z" fill="#000000" fill-rule="evenodd" fill-opacity="1" /><polyline clip-path="url(#clip890)" style="stroke:#00a9ad; stroke-linecap:butt; stroke-linejoin:round; stroke-width:4; stroke-opacity:1; fill:none" points="
  1981.09,1075.59 2125.02,1075.59 
  "/>
<path clip-path="url(#clip890)" d="M2162.84 1095.28 Q2161.04 1099.91 2159.33 1101.32 Q2157.61 1102.74 2154.74 1102.74 L2151.34 1102.74 L2151.34 1099.17 L2153.84 1099.17 Q2155.6 1099.17 2156.57 1098.34 Q2157.54 1097.5 2158.72 1094.4 L2159.49 1092.46 L2149 1066.95 L2153.52 1066.95 L2161.62 1087.23 L2169.72 1066.95 L2174.23 1066.95 L2162.84 1095.28 Z" fill="#000000" fill-rule="evenodd" fill-opacity="1" /><path clip-path="url(#clip890)" d="M2191.29 1073.73 Q2188.15 1073.73 2186.29 1075.88 Q2184.47 1078.04 2184.47 1081.79 Q2184.47 1085.51 2186.29 1087.69 Q2188.15 1089.84 2191.29 1089.84 Q2194.44 1089.84 2196.27 1087.69 Q2198.12 1085.51 2198.12 1081.79 Q2198.12 1078.04 2196.27 1075.88 Q2194.44 1073.73 2191.29 1073.73 M2200.58 1059.08 L2200.58 1063.34 Q2198.82 1062.5 2197.01 1062.06 Q2195.23 1061.62 2193.47 1061.62 Q2188.84 1061.62 2186.39 1064.75 Q2183.96 1067.87 2183.61 1074.19 Q2184.97 1072.18 2187.03 1071.12 Q2189.09 1070.03 2191.57 1070.03 Q2196.78 1070.03 2199.79 1073.2 Q2202.82 1076.35 2202.82 1081.79 Q2202.82 1087.11 2199.67 1090.33 Q2196.53 1093.55 2191.29 1093.55 Q2185.3 1093.55 2182.13 1088.96 Q2178.96 1084.36 2178.96 1075.63 Q2178.96 1067.43 2182.84 1062.57 Q2186.73 1057.69 2193.28 1057.69 Q2195.04 1057.69 2196.83 1058.04 Q2198.63 1058.38 2200.58 1059.08 Z" fill="#000000" fill-rule="evenodd" fill-opacity="1" /><polyline clip-path="url(#clip890)" style="stroke:#ed5d92; stroke-linecap:butt; stroke-linejoin:round; stroke-width:4; stroke-opacity:1; fill:none" points="
  1981.09,1127.43 2125.02,1127.43 
  "/>
<path clip-path="url(#clip890)" d="M2162.84 1147.12 Q2161.04 1151.75 2159.33 1153.16 Q2157.61 1154.58 2154.74 1154.58 L2151.34 1154.58 L2151.34 1151.01 L2153.84 1151.01 Q2155.6 1151.01 2156.57 1150.18 Q2157.54 1149.34 2158.72 1146.24 L2159.49 1144.3 L2149 1118.79 L2153.52 1118.79 L2161.62 1139.07 L2169.72 1118.79 L2174.23 1118.79 L2162.84 1147.12 Z" fill="#000000" fill-rule="evenodd" fill-opacity="1" /><path clip-path="url(#clip890)" d="M2179.53 1110.15 L2201.76 1110.15 L2201.76 1112.15 L2189.21 1144.71 L2184.33 1144.71 L2196.13 1114.09 L2179.53 1114.09 L2179.53 1110.15 Z" fill="#000000" fill-rule="evenodd" fill-opacity="1" /><polyline clip-path="url(#clip890)" style="stroke:#c68125; stroke-linecap:butt; stroke-linejoin:round; stroke-width:4; stroke-opacity:1; fill:none" points="
  1981.09,1179.27 2125.02,1179.27 
  "/>
<path clip-path="url(#clip890)" d="M2162.84 1198.96 Q2161.04 1203.59 2159.33 1205 Q2157.61 1206.42 2154.74 1206.42 L2151.34 1206.42 L2151.34 1202.85 L2153.84 1202.85 Q2155.6 1202.85 2156.57 1202.02 Q2157.54 1201.18 2158.72 1198.08 L2159.49 1196.14 L2149 1170.63 L2153.52 1170.63 L2161.62 1190.91 L2169.72 1170.63 L2174.23 1170.63 L2162.84 1198.96 Z" fill="#000000" fill-rule="evenodd" fill-opacity="1" /><path clip-path="url(#clip890)" d="M2190.72 1180.14 Q2187.38 1180.14 2185.46 1181.92 Q2183.56 1183.71 2183.56 1186.83 Q2183.56 1189.96 2185.46 1191.74 Q2187.38 1193.52 2190.72 1193.52 Q2194.05 1193.52 2195.97 1191.74 Q2197.89 1189.93 2197.89 1186.83 Q2197.89 1183.71 2195.97 1181.92 Q2194.07 1180.14 2190.72 1180.14 M2186.04 1178.15 Q2183.03 1177.41 2181.34 1175.35 Q2179.67 1173.29 2179.67 1170.33 Q2179.67 1166.18 2182.61 1163.78 Q2185.58 1161.37 2190.72 1161.37 Q2195.88 1161.37 2198.82 1163.78 Q2201.76 1166.18 2201.76 1170.33 Q2201.76 1173.29 2200.07 1175.35 Q2198.4 1177.41 2195.41 1178.15 Q2198.79 1178.94 2200.67 1181.23 Q2202.57 1183.52 2202.57 1186.83 Q2202.57 1191.86 2199.49 1194.54 Q2196.43 1197.23 2190.72 1197.23 Q2185 1197.23 2181.92 1194.54 Q2178.86 1191.86 2178.86 1186.83 Q2178.86 1183.52 2180.76 1181.23 Q2182.66 1178.94 2186.04 1178.15 M2184.33 1170.77 Q2184.33 1173.45 2185.99 1174.96 Q2187.68 1176.46 2190.72 1176.46 Q2193.72 1176.46 2195.41 1174.96 Q2197.13 1173.45 2197.13 1170.77 Q2197.13 1168.08 2195.41 1166.58 Q2193.72 1165.07 2190.72 1165.07 Q2187.68 1165.07 2185.99 1166.58 Q2184.33 1168.08 2184.33 1170.77 Z" fill="#000000" fill-rule="evenodd" fill-opacity="1" /><polyline clip-path="url(#clip890)" style="stroke:#00a98d; stroke-linecap:butt; stroke-linejoin:round; stroke-width:4; stroke-opacity:1; fill:none" points="
  1981.09,1231.11 2125.02,1231.11 
  "/>
<path clip-path="url(#clip890)" d="M2162.84 1250.8 Q2161.04 1255.43 2159.33 1256.84 Q2157.61 1258.26 2154.74 1258.26 L2151.34 1258.26 L2151.34 1254.69 L2153.84 1254.69 Q2155.6 1254.69 2156.57 1253.86 Q2157.54 1253.02 2158.72 1249.92 L2159.49 1247.98 L2149 1222.47 L2153.52 1222.47 L2161.62 1242.75 L2169.72 1222.47 L2174.23 1222.47 L2162.84 1250.8 Z" fill="#000000" fill-rule="evenodd" fill-opacity="1" /><path clip-path="url(#clip890)" d="M2180.85 1247.68 L2180.85 1243.42 Q2182.61 1244.25 2184.42 1244.69 Q2186.22 1245.13 2187.96 1245.13 Q2192.59 1245.13 2195.02 1242.03 Q2197.47 1238.9 2197.82 1232.56 Q2196.48 1234.55 2194.42 1235.62 Q2192.36 1236.68 2189.86 1236.68 Q2184.67 1236.68 2181.64 1233.56 Q2178.63 1230.41 2178.63 1224.97 Q2178.63 1219.64 2181.78 1216.43 Q2184.93 1213.21 2190.16 1213.21 Q2196.15 1213.21 2199.3 1217.82 Q2202.47 1222.4 2202.47 1231.15 Q2202.47 1239.32 2198.59 1244.2 Q2194.72 1249.07 2188.17 1249.07 Q2186.41 1249.07 2184.6 1248.72 Q2182.8 1248.37 2180.85 1247.68 M2190.16 1233.02 Q2193.31 1233.02 2195.14 1230.87 Q2196.99 1228.72 2196.99 1224.97 Q2196.99 1221.24 2195.14 1219.09 Q2193.31 1216.91 2190.16 1216.91 Q2187.01 1216.91 2185.16 1219.09 Q2183.33 1221.24 2183.33 1224.97 Q2183.33 1228.72 2185.16 1230.87 Q2187.01 1233.02 2190.16 1233.02 Z" fill="#000000" fill-rule="evenodd" fill-opacity="1" /><polyline clip-path="url(#clip890)" style="stroke:#8e971d; stroke-linecap:butt; stroke-linejoin:round; stroke-width:4; stroke-opacity:1; fill:none" points="
  1981.09,1282.95 2125.02,1282.95 
  "/>
<path clip-path="url(#clip890)" d="M2162.84 1302.64 Q2161.04 1307.27 2159.33 1308.68 Q2157.61 1310.1 2154.74 1310.1 L2151.34 1310.1 L2151.34 1306.53 L2153.84 1306.53 Q2155.6 1306.53 2156.57 1305.7 Q2157.54 1304.86 2158.72 1301.76 L2159.49 1299.82 L2149 1274.31 L2153.52 1274.31 L2161.62 1294.59 L2169.72 1274.31 L2174.23 1274.31 L2162.84 1302.64 Z" fill="#000000" fill-rule="evenodd" fill-opacity="1" /><path clip-path="url(#clip890)" d="M2181.53 1296.3 L2189.16 1296.3 L2189.16 1269.93 L2180.85 1271.6 L2180.85 1267.34 L2189.12 1265.67 L2193.79 1265.67 L2193.79 1296.3 L2201.43 1296.3 L2201.43 1300.23 L2181.53 1300.23 L2181.53 1296.3 Z" fill="#000000" fill-rule="evenodd" fill-opacity="1" /><path clip-path="url(#clip890)" d="M2220.88 1268.75 Q2217.27 1268.75 2215.44 1272.32 Q2213.63 1275.86 2213.63 1282.99 Q2213.63 1290.1 2215.44 1293.66 Q2217.27 1297.2 2220.88 1297.2 Q2224.51 1297.2 2226.32 1293.66 Q2228.15 1290.1 2228.15 1282.99 Q2228.15 1275.86 2226.32 1272.32 Q2224.51 1268.75 2220.88 1268.75 M2220.88 1265.05 Q2226.69 1265.05 2229.74 1269.66 Q2232.82 1274.24 2232.82 1282.99 Q2232.82 1291.72 2229.74 1296.32 Q2226.69 1300.91 2220.88 1300.91 Q2215.07 1300.91 2211.99 1296.32 Q2208.93 1291.72 2208.93 1282.99 Q2208.93 1274.24 2211.99 1269.66 Q2215.07 1265.05 2220.88 1265.05 Z" fill="#000000" fill-rule="evenodd" fill-opacity="1" /><polyline clip-path="url(#clip890)" style="stroke:#00a8cb; stroke-linecap:butt; stroke-linejoin:round; stroke-width:4; stroke-opacity:1; fill:none" points="
  1981.09,1334.79 2125.02,1334.79 
  "/>
<path clip-path="url(#clip890)" d="M2162.84 1354.48 Q2161.04 1359.11 2159.33 1360.52 Q2157.61 1361.94 2154.74 1361.94 L2151.34 1361.94 L2151.34 1358.37 L2153.84 1358.37 Q2155.6 1358.37 2156.57 1357.54 Q2157.54 1356.7 2158.72 1353.6 L2159.49 1351.66 L2149 1326.15 L2153.52 1326.15 L2161.62 1346.43 L2169.72 1326.15 L2174.23 1326.15 L2162.84 1354.48 Z" fill="#000000" fill-rule="evenodd" fill-opacity="1" /><path clip-path="url(#clip890)" d="M2181.53 1348.14 L2189.16 1348.14 L2189.16 1321.77 L2180.85 1323.44 L2180.85 1319.18 L2189.12 1317.51 L2193.79 1317.51 L2193.79 1348.14 L2201.43 1348.14 L2201.43 1352.07 L2181.53 1352.07 L2181.53 1348.14 Z" fill="#000000" fill-rule="evenodd" fill-opacity="1" /><path clip-path="url(#clip890)" d="M2211.69 1348.14 L2219.33 1348.14 L2219.33 1321.77 L2211.02 1323.44 L2211.02 1319.18 L2219.28 1317.51 L2223.96 1317.51 L2223.96 1348.14 L2231.59 1348.14 L2231.59 1352.07 L2211.69 1352.07 L2211.69 1348.14 Z" fill="#000000" fill-rule="evenodd" fill-opacity="1" /><polyline clip-path="url(#clip890)" style="stroke:#9b7fe8; stroke-linecap:butt; stroke-linejoin:round; stroke-width:4; stroke-opacity:1; fill:none" points="
  1981.09,1386.63 2125.02,1386.63 
  "/>
<path clip-path="url(#clip890)" d="M2162.84 1406.32 Q2161.04 1410.95 2159.33 1412.36 Q2157.61 1413.78 2154.74 1413.78 L2151.34 1413.78 L2151.34 1410.21 L2153.84 1410.21 Q2155.6 1410.21 2156.57 1409.38 Q2157.54 1408.54 2158.72 1405.44 L2159.49 1403.5 L2149 1377.99 L2153.52 1377.99 L2161.62 1398.27 L2169.72 1377.99 L2174.23 1377.99 L2162.84 1406.32 Z" fill="#000000" fill-rule="evenodd" fill-opacity="1" /><path clip-path="url(#clip890)" d="M2181.53 1399.98 L2189.16 1399.98 L2189.16 1373.61 L2180.85 1375.28 L2180.85 1371.02 L2189.12 1369.35 L2193.79 1369.35 L2193.79 1399.98 L2201.43 1399.98 L2201.43 1403.91 L2181.53 1403.91 L2181.53 1399.98 Z" fill="#000000" fill-rule="evenodd" fill-opacity="1" /><path clip-path="url(#clip890)" d="M2214.9 1399.98 L2231.22 1399.98 L2231.22 1403.91 L2209.28 1403.91 L2209.28 1399.98 Q2211.94 1397.22 2216.53 1392.6 Q2221.13 1387.94 2222.31 1386.6 Q2224.56 1384.08 2225.44 1382.34 Q2226.34 1380.58 2226.34 1378.89 Q2226.34 1376.14 2224.4 1374.4 Q2222.47 1372.66 2219.37 1372.66 Q2217.17 1372.66 2214.72 1373.43 Q2212.29 1374.19 2209.51 1375.74 L2209.51 1371.02 Q2212.34 1369.89 2214.79 1369.31 Q2217.24 1368.73 2219.28 1368.73 Q2224.65 1368.73 2227.84 1371.41 Q2231.04 1374.1 2231.04 1378.59 Q2231.04 1380.72 2230.23 1382.64 Q2229.44 1384.54 2227.34 1387.13 Q2226.76 1387.8 2223.65 1391.02 Q2220.55 1394.22 2214.9 1399.98 Z" fill="#000000" fill-rule="evenodd" fill-opacity="1" /></svg>
