<?xml version="1.0" encoding="utf-8"?>
<svg xmlns="http://www.w3.org/2000/svg" xmlns:xlink="http://www.w3.org/1999/xlink" width="600" height="400" viewBox="0 0 2400 1600">
<defs>
  <clipPath id="clip980">
    <rect x="0" y="0" width="2400" height="1600"/>
  </clipPath>
</defs>
<path clip-path="url(#clip980)" d="
M0 1600 L2400 1600 L2400 0 L0 0  Z
  " fill="#ffffff" fill-rule="evenodd" fill-opacity="1"/>
<defs>
  <clipPath id="clip981">
    <rect x="480" y="0" width="1681" height="1600"/>
  </clipPath>
</defs>
<path clip-path="url(#clip980)" d="
M149.191 1486.45 L2352.76 1486.45 L2352.76 47.2441 L149.191 47.2441  Z
  " fill="#ffffff" fill-rule="evenodd" fill-opacity="1"/>
<defs>
  <clipPath id="clip982">
    <rect x="149" y="47" width="2205" height="1440"/>
  </clipPath>
</defs>
<polyline clip-path="url(#clip982)" style="stroke:#000000; stroke-linecap:butt; stroke-linejoin:round; stroke-width:2; stroke-opacity:0.1; fill:none" points="
  211.556,1486.45 211.556,47.2441 
  "/>
<polyline clip-path="url(#clip982)" style="stroke:#000000; stroke-linecap:butt; stroke-linejoin:round; stroke-width:2; stroke-opacity:0.1; fill:none" points="
  731.265,1486.45 731.265,47.2441 
  "/>
<polyline clip-path="url(#clip982)" style="stroke:#000000; stroke-linecap:butt; stroke-linejoin:round; stroke-width:2; stroke-opacity:0.1; fill:none" points="
  1250.97,1486.45 1250.97,47.2441 
  "/>
<polyline clip-path="url(#clip982)" style="stroke:#000000; stroke-linecap:butt; stroke-linejoin:round; stroke-width:2; stroke-opacity:0.1; fill:none" points="
  1770.68,1486.45 1770.68,47.2441 
  "/>
<polyline clip-path="url(#clip982)" style="stroke:#000000; stroke-linecap:butt; stroke-linejoin:round; stroke-width:2; stroke-opacity:0.1; fill:none" points="
  2290.39,1486.45 2290.39,47.2441 
  "/>
<polyline clip-path="url(#clip980)" style="stroke:#000000; stroke-linecap:butt; stroke-linejoin:round; stroke-width:4; stroke-opacity:1; fill:none" points="
  149.191,1486.45 2352.76,1486.45 
  "/>
<polyline clip-path="url(#clip980)" style="stroke:#000000; stroke-linecap:butt; stroke-linejoin:round; stroke-width:4; stroke-opacity:1; fill:none" points="
  211.556,1486.45 211.556,1467.55 
  "/>
<polyline clip-path="url(#clip980)" style="stroke:#000000; stroke-linecap:butt; stroke-linejoin:round; stroke-width:4; stroke-opacity:1; fill:none" points="
  731.265,1486.45 731.265,1467.55 
  "/>
<polyline clip-path="url(#clip980)" style="stroke:#000000; stroke-linecap:butt; stroke-linejoin:round; stroke-width:4; stroke-opacity:1; fill:none" points="
  1250.97,1486.45 1250.97,1467.55 
  "/>
<polyline clip-path="url(#clip980)" style="stroke:#000000; stroke-linecap:butt; stroke-linejoin:round; stroke-width:4; stroke-opacity:1; fill:none" points="
  1770.68,1486.45 1770.68,1467.55 
  "/>
<polyline clip-path="url(#clip980)" style="stroke:#000000; stroke-linecap:butt; stroke-linejoin:round; stroke-width:4; stroke-opacity:1; fill:none" points="
  2290.39,1486.45 2290.39,1467.55 
  "/>
<path clip-path="url(#clip980)" d="M158.084 1532.02 L187.76 1532.02 L187.76 1535.95 L158.084 1535.95 L158.084 1532.02 Z" fill="#000000" fill-rule="evenodd" fill-opacity="1" /><path clip-path="url(#clip980)" d="M198.662 1544.91 L206.301 1544.91 L206.301 1518.55 L197.991 1520.21 L197.991 1515.95 L206.255 1514.29 L210.931 1514.29 L210.931 1544.91 L218.57 1544.91 L218.57 1548.85 L198.662 1548.85 L198.662 1544.91 Z" fill="#000000" fill-rule="evenodd" fill-opacity="1" /><path clip-path="url(#clip980)" d="M228.014 1542.97 L232.898 1542.97 L232.898 1548.85 L228.014 1548.85 L228.014 1542.97 Z" fill="#000000" fill-rule="evenodd" fill-opacity="1" /><path clip-path="url(#clip980)" d="M253.083 1517.37 Q249.472 1517.37 247.644 1520.93 Q245.838 1524.47 245.838 1531.6 Q245.838 1538.71 247.644 1542.27 Q249.472 1545.82 253.083 1545.82 Q256.718 1545.82 258.523 1542.27 Q260.352 1538.71 260.352 1531.6 Q260.352 1524.47 258.523 1520.93 Q256.718 1517.37 253.083 1517.37 M253.083 1513.66 Q258.894 1513.66 261.949 1518.27 Q265.028 1522.85 265.028 1531.6 Q265.028 1540.33 261.949 1544.94 Q258.894 1549.52 253.083 1549.52 Q247.273 1549.52 244.195 1544.94 Q241.139 1540.33 241.139 1531.6 Q241.139 1522.85 244.195 1518.27 Q247.273 1513.66 253.083 1513.66 Z" fill="#000000" fill-rule="evenodd" fill-opacity="1" /><path clip-path="url(#clip980)" d="M678.29 1532.02 L707.966 1532.02 L707.966 1535.95 L678.29 1535.95 L678.29 1532.02 Z" fill="#000000" fill-rule="evenodd" fill-opacity="1" /><path clip-path="url(#clip980)" d="M728.059 1517.37 Q724.448 1517.37 722.619 1520.93 Q720.813 1524.47 720.813 1531.6 Q720.813 1538.71 722.619 1542.27 Q724.448 1545.82 728.059 1545.82 Q731.693 1545.82 733.498 1542.27 Q735.327 1538.71 735.327 1531.6 Q735.327 1524.47 733.498 1520.93 Q731.693 1517.37 728.059 1517.37 M728.059 1513.66 Q733.869 1513.66 736.924 1518.27 Q740.003 1522.85 740.003 1531.6 Q740.003 1540.33 736.924 1544.94 Q733.869 1549.52 728.059 1549.52 Q722.248 1549.52 719.17 1544.94 Q716.114 1540.33 716.114 1531.6 Q716.114 1522.85 719.17 1518.27 Q722.248 1513.66 728.059 1513.66 Z" fill="#000000" fill-rule="evenodd" fill-opacity="1" /><path clip-path="url(#clip980)" d="M748.221 1542.97 L753.105 1542.97 L753.105 1548.85 L748.221 1548.85 L748.221 1542.97 Z" fill="#000000" fill-rule="evenodd" fill-opacity="1" /><path clip-path="url(#clip980)" d="M763.336 1514.29 L781.693 1514.29 L781.693 1518.22 L767.619 1518.22 L767.619 1526.7 Q768.637 1526.35 769.656 1526.19 Q770.674 1526 771.693 1526 Q777.48 1526 780.859 1529.17 Q784.239 1532.34 784.239 1537.76 Q784.239 1543.34 780.767 1546.44 Q777.294 1549.52 770.975 1549.52 Q768.799 1549.52 766.531 1549.15 Q764.285 1548.78 761.878 1548.04 L761.878 1543.34 Q763.961 1544.47 766.183 1545.03 Q768.406 1545.58 770.882 1545.58 Q774.887 1545.58 777.225 1543.48 Q779.563 1541.37 779.563 1537.76 Q779.563 1534.15 777.225 1532.04 Q774.887 1529.94 770.882 1529.94 Q769.008 1529.94 767.133 1530.35 Q765.281 1530.77 763.336 1531.65 L763.336 1514.29 Z" fill="#000000" fill-rule="evenodd" fill-opacity="1" /><path clip-path="url(#clip980)" d="M1228.36 1517.37 Q1224.75 1517.37 1222.92 1520.93 Q1221.11 1524.47 1221.11 1531.6 Q1221.11 1538.71 1222.92 1542.27 Q1224.75 1545.82 1228.36 1545.82 Q1231.99 1545.82 1233.8 1542.27 Q1235.63 1538.71 1235.63 1531.6 Q1235.63 1524.47 1233.8 1520.93 Q1231.99 1517.37 1228.36 1517.37 M1228.36 1513.66 Q1234.17 1513.66 1237.22 1518.27 Q1240.3 1522.85 1240.3 1531.6 Q1240.3 1540.33 1237.22 1544.94 Q1234.17 1549.52 1228.36 1549.52 Q1222.55 1549.52 1219.47 1544.94 Q1216.41 1540.33 1216.41 1531.6 Q1216.41 1522.85 1219.47 1518.27 Q1222.55 1513.66 1228.36 1513.66 Z" fill="#000000" fill-rule="evenodd" fill-opacity="1" /><path clip-path="url(#clip980)" d="M1248.52 1542.97 L1253.4 1542.97 L1253.4 1548.85 L1248.52 1548.85 L1248.52 1542.97 Z" fill="#000000" fill-rule="evenodd" fill-opacity="1" /><path clip-path="url(#clip980)" d="M1273.59 1517.37 Q1269.98 1517.37 1268.15 1520.93 Q1266.34 1524.47 1266.34 1531.6 Q1266.34 1538.71 1268.15 1542.27 Q1269.98 1545.82 1273.59 1545.82 Q1277.22 1545.82 1279.03 1542.27 Q1280.86 1538.71 1280.86 1531.6 Q1280.86 1524.47 1279.03 1520.93 Q1277.22 1517.37 1273.59 1517.37 M1273.59 1513.66 Q1279.4 1513.66 1282.45 1518.27 Q1285.53 1522.85 1285.53 1531.6 Q1285.53 1540.33 1282.45 1544.94 Q1279.4 1549.52 1273.59 1549.52 Q1267.78 1549.52 1264.7 1544.94 Q1261.64 1540.33 1261.64 1531.6 Q1261.64 1522.85 1264.7 1518.27 Q1267.78 1513.66 1273.59 1513.66 Z" fill="#000000" fill-rule="evenodd" fill-opacity="1" /><path clip-path="url(#clip980)" d="M1748.56 1517.37 Q1744.95 1517.37 1743.12 1520.93 Q1741.32 1524.47 1741.32 1531.6 Q1741.32 1538.71 1743.12 1542.27 Q1744.95 1545.82 1748.56 1545.82 Q1752.2 1545.82 1754 1542.27 Q1755.83 1538.71 1755.83 1531.6 Q1755.83 1524.47 1754 1520.93 Q1752.2 1517.37 1748.56 1517.37 M1748.56 1513.66 Q1754.37 1513.66 1757.43 1518.27 Q1760.51 1522.85 1760.51 1531.6 Q1760.51 1540.33 1757.43 1544.94 Q1754.37 1549.52 1748.56 1549.52 Q1742.75 1549.52 1739.68 1544.94 Q1736.62 1540.33 1736.62 1531.6 Q1736.62 1522.85 1739.68 1518.27 Q1742.75 1513.66 1748.56 1513.66 Z" fill="#000000" fill-rule="evenodd" fill-opacity="1" /><path clip-path="url(#clip980)" d="M1768.73 1542.97 L1773.61 1542.97 L1773.61 1548.85 L1768.73 1548.85 L1768.73 1542.97 Z" fill="#000000" fill-rule="evenodd" fill-opacity="1" /><path clip-path="url(#clip980)" d="M1783.84 1514.29 L1802.2 1514.29 L1802.2 1518.22 L1788.12 1518.22 L1788.12 1526.7 Q1789.14 1526.35 1790.16 1526.19 Q1791.18 1526 1792.2 1526 Q1797.99 1526 1801.36 1529.17 Q1804.74 1532.34 1804.74 1537.76 Q1804.74 1543.34 1801.27 1546.44 Q1797.8 1549.52 1791.48 1549.52 Q1789.3 1549.52 1787.04 1549.15 Q1784.79 1548.78 1782.38 1548.04 L1782.38 1543.34 Q1784.47 1544.47 1786.69 1545.03 Q1788.91 1545.58 1791.39 1545.58 Q1795.39 1545.58 1797.73 1543.48 Q1800.07 1541.37 1800.07 1537.76 Q1800.07 1534.15 1797.73 1532.04 Q1795.39 1529.94 1791.39 1529.94 Q1789.51 1529.94 1787.64 1530.35 Q1785.79 1530.77 1783.84 1531.65 L1783.84 1514.29 Z" fill="#000000" fill-rule="evenodd" fill-opacity="1" /><path clip-path="url(#clip980)" d="M2257.54 1544.91 L2265.18 1544.91 L2265.18 1518.55 L2256.87 1520.21 L2256.87 1515.95 L2265.14 1514.29 L2269.81 1514.29 L2269.81 1544.91 L2277.45 1544.91 L2277.45 1548.85 L2257.54 1548.85 L2257.54 1544.91 Z" fill="#000000" fill-rule="evenodd" fill-opacity="1" /><path clip-path="url(#clip980)" d="M2286.9 1542.97 L2291.78 1542.97 L2291.78 1548.85 L2286.9 1548.85 L2286.9 1542.97 Z" fill="#000000" fill-rule="evenodd" fill-opacity="1" /><path clip-path="url(#clip980)" d="M2311.96 1517.37 Q2308.35 1517.37 2306.53 1520.93 Q2304.72 1524.47 2304.72 1531.6 Q2304.72 1538.71 2306.53 1542.27 Q2308.35 1545.82 2311.96 1545.82 Q2315.6 1545.82 2317.4 1542.27 Q2319.23 1538.71 2319.23 1531.6 Q2319.23 1524.47 2317.4 1520.93 Q2315.6 1517.37 2311.96 1517.37 M2311.96 1513.66 Q2317.77 1513.66 2320.83 1518.27 Q2323.91 1522.85 2323.91 1531.6 Q2323.91 1540.33 2320.83 1544.94 Q2317.77 1549.52 2311.96 1549.52 Q2306.15 1549.52 2303.08 1544.94 Q2300.02 1540.33 2300.02 1531.6 Q2300.02 1522.85 2303.08 1518.27 Q2306.15 1513.66 2311.96 1513.66 Z" fill="#000000" fill-rule="evenodd" fill-opacity="1" /><polyline clip-path="url(#clip982)" style="stroke:#000000; stroke-linecap:butt; stroke-linejoin:round; stroke-width:2; stroke-opacity:0.1; fill:none" points="
  149.191,1453.7 2352.76,1453.7 
  "/>
<polyline clip-path="url(#clip982)" style="stroke:#000000; stroke-linecap:butt; stroke-linejoin:round; stroke-width:2; stroke-opacity:0.1; fill:none" points="
  149.191,1096.11 2352.76,1096.11 
  "/>
<polyline clip-path="url(#clip982)" style="stroke:#000000; stroke-linecap:butt; stroke-linejoin:round; stroke-width:2; stroke-opacity:0.1; fill:none" points="
  149.191,738.522 2352.76,738.522 
  "/>
<polyline clip-path="url(#clip982)" style="stroke:#000000; stroke-linecap:butt; stroke-linejoin:round; stroke-width:2; stroke-opacity:0.1; fill:none" points="
  149.191,380.935 2352.76,380.935 
  "/>
<polyline clip-path="url(#clip980)" style="stroke:#000000; stroke-linecap:butt; stroke-linejoin:round; stroke-width:4; stroke-opacity:1; fill:none" points="
  149.191,1486.45 149.191,47.2441 
  "/>
<polyline clip-path="url(#clip980)" style="stroke:#000000; stroke-linecap:butt; stroke-linejoin:round; stroke-width:4; stroke-opacity:1; fill:none" points="
  149.191,1453.7 168.089,1453.7 
  "/>
<polyline clip-path="url(#clip980)" style="stroke:#000000; stroke-linecap:butt; stroke-linejoin:round; stroke-width:4; stroke-opacity:1; fill:none" points="
  149.191,1096.11 168.089,1096.11 
  "/>
<polyline clip-path="url(#clip980)" style="stroke:#000000; stroke-linecap:butt; stroke-linejoin:round; stroke-width:4; stroke-opacity:1; fill:none" points="
  149.191,738.522 168.089,738.522 
  "/>
<polyline clip-path="url(#clip980)" style="stroke:#000000; stroke-linecap:butt; stroke-linejoin:round; stroke-width:4; stroke-opacity:1; fill:none" points="
  149.191,380.935 168.089,380.935 
  "/>
<path clip-path="url(#clip980)" d="M50.9921 1454.15 L80.6679 1454.15 L80.6679 1458.08 L50.9921 1458.08 L50.9921 1454.15 Z" fill="#000000" fill-rule="evenodd" fill-opacity="1" /><path clip-path="url(#clip980)" d="M103.608 1440.49 L91.8021 1458.94 L103.608 1458.94 L103.608 1440.49 M102.381 1436.42 L108.26 1436.42 L108.26 1458.94 L113.191 1458.94 L113.191 1462.83 L108.26 1462.83 L108.26 1470.98 L103.608 1470.98 L103.608 1462.83 L88.0058 1462.83 L88.0058 1458.31 L102.381 1436.42 Z" fill="#000000" fill-rule="evenodd" fill-opacity="1" /><path clip-path="url(#clip980)" d="M53.0754 1096.56 L82.7512 1096.56 L82.7512 1100.5 L53.0754 1100.5 L53.0754 1096.56 Z" fill="#000000" fill-rule="evenodd" fill-opacity="1" /><path clip-path="url(#clip980)" d="M96.8715 1109.45 L113.191 1109.45 L113.191 1113.39 L91.2465 1113.39 L91.2465 1109.45 Q93.9086 1106.7 98.4919 1102.07 Q103.098 1097.42 104.279 1096.07 Q106.524 1093.55 107.404 1091.81 Q108.307 1090.06 108.307 1088.37 Q108.307 1085.61 106.362 1083.87 Q104.441 1082.14 101.339 1082.14 Q99.14 1082.14 96.6863 1082.9 Q94.2558 1083.67 91.478 1085.22 L91.478 1080.5 Q94.3021 1079.36 96.7558 1078.78 Q99.2095 1078.2 101.246 1078.2 Q106.617 1078.2 109.811 1080.89 Q113.006 1083.57 113.006 1088.06 Q113.006 1090.19 112.196 1092.12 Q111.408 1094.01 109.302 1096.61 Q108.723 1097.28 105.621 1100.5 Q102.52 1103.69 96.8715 1109.45 Z" fill="#000000" fill-rule="evenodd" fill-opacity="1" /><path clip-path="url(#clip980)" d="M101.246 724.32 Q97.6354 724.32 95.8067 727.885 Q94.0012 731.427 94.0012 738.556 Q94.0012 745.663 95.8067 749.228 Q97.6354 752.769 101.246 752.769 Q104.881 752.769 106.686 749.228 Q108.515 745.663 108.515 738.556 Q108.515 731.427 106.686 727.885 Q104.881 724.32 101.246 724.32 M101.246 720.617 Q107.057 720.617 110.112 725.223 Q113.191 729.806 113.191 738.556 Q113.191 747.283 110.112 751.89 Q107.057 756.473 101.246 756.473 Q95.4363 756.473 92.3576 751.89 Q89.3021 747.283 89.3021 738.556 Q89.3021 729.806 92.3576 725.223 Q95.4363 720.617 101.246 720.617 Z" fill="#000000" fill-rule="evenodd" fill-opacity="1" /><path clip-path="url(#clip980)" d="M96.8715 394.28 L113.191 394.28 L113.191 398.215 L91.2465 398.215 L91.2465 394.28 Q93.9086 391.525 98.4919 386.895 Q103.098 382.243 104.279 380.9 Q106.524 378.377 107.404 376.641 Q108.307 374.882 108.307 373.192 Q108.307 370.437 106.362 368.701 Q104.441 366.965 101.339 366.965 Q99.14 366.965 96.6863 367.729 Q94.2558 368.493 91.478 370.044 L91.478 365.321 Q94.3021 364.187 96.7558 363.608 Q99.2095 363.03 101.246 363.03 Q106.617 363.03 109.811 365.715 Q113.006 368.4 113.006 372.891 Q113.006 375.02 112.196 376.942 Q111.408 378.84 109.302 381.432 Q108.723 382.104 105.621 385.321 Q102.52 388.516 96.8715 394.28 Z" fill="#000000" fill-rule="evenodd" fill-opacity="1" /><polyline clip-path="url(#clip982)" style="stroke:#009af9; stroke-linecap:butt; stroke-linejoin:round; stroke-width:16; stroke-opacity:1; fill:none" points="
  211.556,559.728 253.981,635.203 296.406,683.019 338.832,711.882 381.257,728.184 423.682,736.507 466.107,740.045 508.532,740.946 550.958,740.59 593.383,739.802 
  635.808,739.03 678.233,738.473 720.658,738.175 763.084,738.099 805.509,738.173 847.934,738.32 890.359,738.476 932.784,738.597 975.21,738.664 1017.63,738.673 
  1060.06,738.636 1102.49,738.574 1144.91,738.507 1187.34,738.455 1229.76,738.428 1272.19,738.432 1314.61,738.462 1357.04,738.51 1399.46,738.561 1441.89,738.601 
  1484.31,738.617 1526.74,738.604 1569.16,738.562 1611.59,738.499 1654.01,738.433 1696.44,738.382 1738.86,738.369 1781.29,738.409 1823.71,738.507 1866.14,738.652 
  1908.56,738.81 1950.99,738.925 1993.41,738.926 2035.84,738.734 2078.26,738.293 2120.69,737.603 2163.12,736.784 2205.54,736.16 2247.97,736.369 2290.39,738.522 
  
  "/>
<polyline clip-path="url(#clip982)" style="stroke:#e26f46; stroke-linecap:butt; stroke-linejoin:round; stroke-width:16; stroke-opacity:1; fill:none" points="
  211.556,738.522 253.981,529.301 296.406,448.474 338.832,444.28 381.257,480.882 423.682,534.535 466.107,590.456 508.532,640.316 550.958,680.258 593.383,709.359 
  635.808,728.476 678.233,739.395 720.658,744.238 763.084,745.067 805.509,743.655 847.934,741.37 890.359,739.147 932.784,737.519 975.21,736.689 1017.63,736.616 
  1060.06,737.103 1102.49,737.884 1144.91,738.691 1187.34,739.311 1229.76,739.611 1272.19,739.556 1314.61,739.196 1357.04,738.652 1399.46,738.082 1441.89,737.645 
  1484.31,737.47 1526.74,737.621 1569.16,738.085 1611.59,738.761 1654.01,739.475 1696.44,740.008 1738.86,740.14 1781.29,739.709 1823.71,738.671 1866.14,737.158 
  1908.56,735.521 1950.99,734.334 1993.41,734.343 2035.84,736.331 2078.26,740.873 2120.69,747.93 2163.12,756.257 2205.54,762.563 2247.97,760.372 2290.39,738.522 
  
  "/>
<polyline clip-path="url(#clip982)" style="stroke:#3da44d; stroke-linecap:butt; stroke-linejoin:round; stroke-width:16; stroke-opacity:1; fill:none" points="
  211.556,738.522 253.981,1114.65 296.406,1188.1 338.832,1103.22 381.257,954.607 423.682,800.103 466.107,671.219 508.532,581.393 550.958,532.357 593.383,518.943 
  635.808,532.587 678.233,563.772 720.658,603.621 763.084,644.822 805.509,682.052 847.934,712.038 890.359,733.36 932.784,746.108 975.21,751.462 1017.63,751.258 
  1060.06,747.585 1102.49,742.447 1144.91,737.511 1187.34,733.945 1229.76,732.353 1272.19,732.79 1314.61,734.854 1357.04,737.824 1399.46,740.841 1441.89,743.081 
  1484.31,743.927 1526.74,743.097 1569.16,740.718 1611.59,737.328 1654.01,733.811 1696.44,731.235 1738.86,730.644 1781.29,732.781 1823.71,737.805 1866.14,745.033 
  1908.56,752.769 1950.99,758.301 1993.41,758.163 2035.84,748.768 2078.26,727.569 2120.69,694.882 2163.12,656.581 2205.54,627.857 2247.97,638.296 2290.39,738.522 
  
  "/>
<polyline clip-path="url(#clip982)" style="stroke:#c271d2; stroke-linecap:butt; stroke-linejoin:round; stroke-width:16; stroke-opacity:1; fill:none" points="
  211.556,738.522 253.981,172.513 296.406,87.9763 338.832,235.041 381.257,456.897 423.682,663.86 466.107,812.82 508.532,891.285 550.958,905.286 593.383,870.491 
  635.808,805.962 678.233,730.027 720.658,657.812 763.084,600.054 805.509,562.839 847.934,547.987 890.359,553.84 932.784,576.262 975.21,609.691 1017.63,648.127 
  1060.06,685.973 1102.49,718.678 1144.91,743.147 1187.34,757.921 1229.76,763.135 1272.19,760.295 1314.61,751.9 1357.04,740.979 1399.46,730.584 1441.89,723.31 
  1484.31,720.884 1526.74,723.882 1569.16,731.617 1611.59,742.215 1654.01,752.902 1696.44,760.482 1738.86,761.991 1781.29,755.445 1823.71,740.613 1866.14,719.678 
  1908.56,697.63 1950.99,682.182 1993.41,682.971 2035.84,709.731 2078.26,769.106 2120.69,859.686 2163.12,964.805 2205.54,1042.58 2247.97,1012.59 2290.39,738.522 
  
  "/>
<polyline clip-path="url(#clip982)" style="stroke:#ac8d18; stroke-linecap:butt; stroke-linejoin:round; stroke-width:16; stroke-opacity:1; fill:none" points="
  211.556,738.522 253.981,1365.07 296.406,1445.72 338.832,1274.77 381.257,1031.59 423.682,814.172 466.107,665.532 508.532,593.798 550.958,587.223 593.383,624.913 
  635.808,684.124 678.233,744.827 720.658,792.175 763.084,817.396 805.509,817.579 847.934,794.745 890.359,754.504 932.784,704.56 975.21,653.266 1017.63,608.353 
  1060.06,575.949 1102.49,559.927 1144.91,561.608 1187.34,579.803 1229.76,611.146 1272.19,650.676 1314.61,692.577 1357.04,730.993 1399.46,760.846 1441.89,778.54 
  1484.31,782.498 1526.74,773.446 1569.16,754.395 1611.59,730.293 1654.01,707.343 1696.44,692.017 1738.86,689.842 1781.29,704.058 1823.71,734.332 1866.14,775.723 
  1908.56,818.186 1950.99,846.967 1993.41,844.281 2035.84,792.787 2078.26,681.405 2120.69,514.166 2163.12,322.804 2205.54,183.982 2247.97,242.065 2290.39,738.522 
  
  "/>
<polyline clip-path="url(#clip982)" style="stroke:#00a9ad; stroke-linecap:butt; stroke-linejoin:round; stroke-width:16; stroke-opacity:1; fill:none" points="
  211.556,738.522 253.981,242.065 296.406,183.982 338.832,322.804 381.257,514.166 423.682,681.405 466.107,792.787 508.532,844.281 550.958,846.967 593.383,818.186 
  635.808,775.723 678.233,734.332 720.658,704.058 763.084,689.842 805.509,692.017 847.934,707.343 890.359,730.293 932.784,754.395 975.21,773.446 1017.63,782.498 
  1060.06,778.54 1102.49,760.846 1144.91,730.993 1187.34,692.577 1229.76,650.676 1272.19,611.146 1314.61,579.803 1357.04,561.608 1399.46,559.927 1441.89,575.949 
  1484.31,608.353 1526.74,653.266 1569.16,704.56 1611.59,754.504 1654.01,794.745 1696.44,817.579 1738.86,817.396 1781.29,792.175 1823.71,744.827 1866.14,684.124 
  1908.56,624.913 1950.99,587.223 1993.41,593.798 2035.84,665.532 2078.26,814.172 2120.69,1031.59 2163.12,1274.77 2205.54,1445.72 2247.97,1365.07 2290.39,738.522 
  
  "/>
<polyline clip-path="url(#clip982)" style="stroke:#ed5d92; stroke-linecap:butt; stroke-linejoin:round; stroke-width:16; stroke-opacity:1; fill:none" points="
  211.556,738.522 253.981,1012.59 296.406,1042.58 338.832,964.805 381.257,859.686 423.682,769.106 466.107,709.731 508.532,682.971 550.958,682.182 593.383,697.63 
  635.808,719.678 678.233,740.613 720.658,755.445 763.084,761.991 805.509,760.482 847.934,752.902 890.359,742.215 932.784,731.617 975.21,723.882 1017.63,720.884 
  1060.06,723.31 1102.49,730.584 1144.91,740.979 1187.34,751.9 1229.76,760.295 1272.19,763.135 1314.61,757.921 1357.04,743.147 1399.46,718.678 1441.89,685.973 
  1484.31,648.127 1526.74,609.691 1569.16,576.262 1611.59,553.84 1654.01,547.987 1696.44,562.839 1738.86,600.054 1781.29,657.812 1823.71,730.027 1866.14,805.962 
  1908.56,870.491 1950.99,905.286 1993.41,891.285 2035.84,812.82 2078.26,663.86 2120.69,456.897 2163.12,235.041 2205.54,87.9763 2247.97,172.513 2290.39,738.522 
  
  "/>
<polyline clip-path="url(#clip982)" style="stroke:#c68125; stroke-linecap:butt; stroke-linejoin:round; stroke-width:16; stroke-opacity:1; fill:none" points="
  211.556,738.522 253.981,638.296 296.406,627.857 338.832,656.581 381.257,694.882 423.682,727.569 466.107,748.768 508.532,758.163 550.958,758.301 593.383,752.769 
  635.808,745.033 678.233,737.805 720.658,732.781 763.084,730.644 805.509,731.235 847.934,733.811 890.359,737.328 932.784,740.718 975.21,743.097 1017.63,743.927 
  1060.06,743.081 1102.49,740.841 1144.91,737.824 1187.34,734.854 1229.76,732.79 1272.19,732.353 1314.61,733.945 1357.04,737.511 1399.46,742.447 1441.89,747.585 
  1484.31,751.258 1526.74,751.462 1569.16,746.108 1611.59,733.36 1654.01,712.038 1696.44,682.052 1738.86,644.822 1781.29,603.621 1823.71,563.772 1866.14,532.587 
  1908.56,518.943 1950.99,532.357 1993.41,581.393 2035.84,671.219 2078.26,800.103 2120.69,954.607 2163.12,1103.22 2205.54,1188.1 2247.97,1114.65 2290.39,738.522 
  
  "/>
<polyline clip-path="url(#clip982)" style="stroke:#00a98d; stroke-linecap:butt; stroke-linejoin:round; stroke-width:16; stroke-opacity:1; fill:none" points="
  211.556,738.522 253.981,760.372 296.406,762.563 338.832,756.257 381.257,747.93 423.682,740.873 466.107,736.331 508.532,734.343 550.958,734.334 593.383,735.521 
  635.808,737.158 678.233,738.671 720.658,739.709 763.084,740.14 805.509,740.008 847.934,739.475 890.359,738.761 932.784,738.085 975.21,737.621 1017.63,737.47 
  1060.06,737.645 1102.49,738.082 1144.91,738.652 1187.34,739.196 1229.76,739.556 1272.19,739.611 1314.61,739.311 1357.04,738.691 1399.46,737.884 1441.89,737.103 
  1484.31,736.616 1526.74,736.689 1569.16,737.519 1611.59,739.147 1654.01,741.37 1696.44,743.655 1738.86,745.067 1781.29,744.238 1823.71,739.395 1866.14,728.476 
  1908.56,709.359 1950.99,680.258 1993.41,640.316 2035.84,590.456 2078.26,534.535 2120.69,480.882 2163.12,444.28 2205.54,448.474 2247.97,529.301 2290.39,738.522 
  
  "/>
<polyline clip-path="url(#clip982)" style="stroke:#8e971d; stroke-linecap:butt; stroke-linejoin:round; stroke-width:16; stroke-opacity:1; fill:none" points="
  211.556,738.522 253.981,736.369 296.406,736.16 338.832,736.784 381.257,737.603 423.682,738.293 466.107,738.734 508.532,738.926 550.958,738.925 593.383,738.81 
  635.808,738.652 678.233,738.507 720.658,738.409 763.084,738.369 805.509,738.382 847.934,738.433 890.359,738.499 932.784,738.562 975.21,738.604 1017.63,738.617 
  1060.06,738.601 1102.49,738.561 1144.91,738.51 1187.34,738.462 1229.76,738.432 1272.19,738.428 1314.61,738.455 1357.04,738.507 1399.46,738.574 1441.89,738.636 
  1484.31,738.673 1526.74,738.664 1569.16,738.597 1611.59,738.476 1654.01,738.32 1696.44,738.173 1738.86,738.099 1781.29,738.175 1823.71,738.473 1866.14,739.03 
  1908.56,739.802 1950.99,740.59 1993.41,740.946 2035.84,740.045 2078.26,736.507 2120.69,728.184 2163.12,711.882 2205.54,683.019 2247.97,635.203 2290.39,559.728 
  
  "/>
<circle clip-path="url(#clip982)" cx="211.556" cy="559.728" r="14.4" fill="#00a8cb" fill-rule="evenodd" fill-opacity="1" stroke="#000000" stroke-opacity="1" stroke-width="3.2"/>
<circle clip-path="url(#clip982)" cx="442.538" cy="559.728" r="14.4" fill="#00a8cb" fill-rule="evenodd" fill-opacity="1" stroke="#000000" stroke-opacity="1" stroke-width="3.2"/>
<circle clip-path="url(#clip982)" cx="673.519" cy="559.728" r="14.4" fill="#00a8cb" fill-rule="evenodd" fill-opacity="1" stroke="#000000" stroke-opacity="1" stroke-width="3.2"/>
<circle clip-path="url(#clip982)" cx="904.501" cy="559.728" r="14.4" fill="#00a8cb" fill-rule="evenodd" fill-opacity="1" stroke="#000000" stroke-opacity="1" stroke-width="3.2"/>
<circle clip-path="url(#clip982)" cx="1135.48" cy="559.728" r="14.4" fill="#00a8cb" fill-rule="evenodd" fill-opacity="1" stroke="#000000" stroke-opacity="1" stroke-width="3.2"/>
<circle clip-path="url(#clip982)" cx="1366.46" cy="559.728" r="14.4" fill="#00a8cb" fill-rule="evenodd" fill-opacity="1" stroke="#000000" stroke-opacity="1" stroke-width="3.2"/>
<circle clip-path="url(#clip982)" cx="1597.45" cy="559.728" r="14.4" fill="#00a8cb" fill-rule="evenodd" fill-opacity="1" stroke="#000000" stroke-opacity="1" stroke-width="3.2"/>
<circle clip-path="url(#clip982)" cx="1828.43" cy="559.728" r="14.4" fill="#00a8cb" fill-rule="evenodd" fill-opacity="1" stroke="#000000" stroke-opacity="1" stroke-width="3.2"/>
<circle clip-path="url(#clip982)" cx="2059.41" cy="559.728" r="14.4" fill="#00a8cb" fill-rule="evenodd" fill-opacity="1" stroke="#000000" stroke-opacity="1" stroke-width="3.2"/>
<circle clip-path="url(#clip982)" cx="2290.39" cy="559.728" r="14.4" fill="#00a8cb" fill-rule="evenodd" fill-opacity="1" stroke="#000000" stroke-opacity="1" stroke-width="3.2"/>
<path clip-path="url(#clip980)" d="
M1950.64 717.298 L2279.3 717.298 L2279.3 95.2176 L1950.64 95.2176  Z
  " fill="#ffffff" fill-rule="evenodd" fill-opacity="1"/>
<polyline clip-path="url(#clip980)" style="stroke:#000000; stroke-linecap:butt; stroke-linejoin:round; stroke-width:4; stroke-opacity:1; fill:none" points="
  1950.64,717.298 2279.3,717.298 2279.3,95.2176 1950.64,95.2176 1950.64,717.298 
  "/>
<polyline clip-path="url(#clip980)" style="stroke:#009af9; stroke-linecap:butt; stroke-linejoin:round; stroke-width:4; stroke-opacity:1; fill:none" points="
  1975.13,147.058 2122.03,147.058 
  "/>
<path clip-path="url(#clip980)" d="M2160.36 166.745 Q2158.55 171.375 2156.84 172.787 Q2155.13 174.199 2152.26 174.199 L2148.85 174.199 L2148.85 170.634 L2151.35 170.634 Q2153.11 170.634 2154.09 169.8 Q2155.06 168.967 2156.24 165.865 L2157 163.921 L2146.52 138.412 L2151.03 138.412 L2159.13 158.689 L2167.23 138.412 L2171.75 138.412 L2160.36 166.745 Z" fill="#000000" fill-rule="evenodd" fill-opacity="1" /><path clip-path="url(#clip980)" d="M2179.04 160.402 L2186.68 160.402 L2186.68 134.037 L2178.37 135.703 L2178.37 131.444 L2186.63 129.778 L2191.31 129.778 L2191.31 160.402 L2198.95 160.402 L2198.95 164.338 L2179.04 164.338 L2179.04 160.402 Z" fill="#000000" fill-rule="evenodd" fill-opacity="1" /><polyline clip-path="url(#clip980)" style="stroke:#e26f46; stroke-linecap:butt; stroke-linejoin:round; stroke-width:4; stroke-opacity:1; fill:none" points="
  1975.13,198.898 2122.03,198.898 
  "/>
<path clip-path="url(#clip980)" d="M2160.36 218.585 Q2158.55 223.215 2156.84 224.627 Q2155.13 226.039 2152.26 226.039 L2148.85 226.039 L2148.85 222.474 L2151.35 222.474 Q2153.11 222.474 2154.09 221.64 Q2155.06 220.807 2156.24 217.705 L2157 215.761 L2146.52 190.252 L2151.03 190.252 L2159.13 210.529 L2167.23 190.252 L2171.75 190.252 L2160.36 218.585 Z" fill="#000000" fill-rule="evenodd" fill-opacity="1" /><path clip-path="url(#clip980)" d="M2182.26 212.242 L2198.58 212.242 L2198.58 216.178 L2176.63 216.178 L2176.63 212.242 Q2179.29 209.488 2183.88 204.858 Q2188.48 200.205 2189.66 198.863 Q2191.91 196.34 2192.79 194.604 Q2193.69 192.844 2193.69 191.155 Q2193.69 188.4 2191.75 186.664 Q2189.83 184.928 2186.72 184.928 Q2184.53 184.928 2182.07 185.692 Q2179.64 186.455 2176.86 188.006 L2176.86 183.284 Q2179.69 182.15 2182.14 181.571 Q2184.6 180.993 2186.63 180.993 Q2192 180.993 2195.2 183.678 Q2198.39 186.363 2198.39 190.854 Q2198.39 192.983 2197.58 194.905 Q2196.79 196.803 2194.69 199.395 Q2194.11 200.067 2191.01 203.284 Q2187.91 206.479 2182.26 212.242 Z" fill="#000000" fill-rule="evenodd" fill-opacity="1" /><polyline clip-path="url(#clip980)" style="stroke:#3da44d; stroke-linecap:butt; stroke-linejoin:round; stroke-width:4; stroke-opacity:1; fill:none" points="
  1975.13,250.738 2122.03,250.738 
  "/>
<path clip-path="url(#clip980)" d="M2160.36 270.425 Q2158.55 275.055 2156.84 276.467 Q2155.13 277.879 2152.26 277.879 L2148.85 277.879 L2148.85 274.314 L2151.35 274.314 Q2153.11 274.314 2154.09 273.48 Q2155.06 272.647 2156.24 269.545 L2157 267.601 L2146.52 242.092 L2151.03 242.092 L2159.13 262.369 L2167.23 242.092 L2171.75 242.092 L2160.36 270.425 Z" fill="#000000" fill-rule="evenodd" fill-opacity="1" /><path clip-path="url(#clip980)" d="M2192.4 249.383 Q2195.75 250.101 2197.63 252.369 Q2199.53 254.638 2199.53 257.971 Q2199.53 263.087 2196.01 265.888 Q2192.49 268.689 2186.01 268.689 Q2183.83 268.689 2181.52 268.249 Q2179.22 267.832 2176.77 266.976 L2176.77 262.462 Q2178.72 263.596 2181.03 264.175 Q2183.35 264.754 2185.87 264.754 Q2190.27 264.754 2192.56 263.018 Q2194.87 261.281 2194.87 257.971 Q2194.87 254.916 2192.72 253.203 Q2190.59 251.467 2186.77 251.467 L2182.74 251.467 L2182.74 247.624 L2186.96 247.624 Q2190.41 247.624 2192.23 246.258 Q2194.06 244.87 2194.06 242.277 Q2194.06 239.615 2192.16 238.203 Q2190.29 236.768 2186.77 236.768 Q2184.85 236.768 2182.65 237.184 Q2180.45 237.601 2177.81 238.481 L2177.81 234.314 Q2180.47 233.573 2182.79 233.203 Q2185.13 232.833 2187.19 232.833 Q2192.51 232.833 2195.61 235.263 Q2198.72 237.67 2198.72 241.791 Q2198.72 244.661 2197.07 246.652 Q2195.43 248.62 2192.4 249.383 Z" fill="#000000" fill-rule="evenodd" fill-opacity="1" /><polyline clip-path="url(#clip980)" style="stroke:#c271d2; stroke-linecap:butt; stroke-linejoin:round; stroke-width:4; stroke-opacity:1; fill:none" points="
  1975.13,302.578 2122.03,302.578 
  "/>
<path clip-path="url(#clip980)" d="M2160.36 322.265 Q2158.55 326.895 2156.84 328.307 Q2155.13 329.719 2152.26 329.719 L2148.85 329.719 L2148.85 326.154 L2151.35 326.154 Q2153.11 326.154 2154.09 325.32 Q2155.06 324.487 2156.24 321.385 L2157 319.441 L2146.52 293.932 L2151.03 293.932 L2159.13 314.209 L2167.23 293.932 L2171.75 293.932 L2160.36 322.265 Z" fill="#000000" fill-rule="evenodd" fill-opacity="1" /><path clip-path="url(#clip980)" d="M2191.08 289.372 L2179.27 307.821 L2191.08 307.821 L2191.08 289.372 M2189.85 285.298 L2195.73 285.298 L2195.73 307.821 L2200.66 307.821 L2200.66 311.709 L2195.73 311.709 L2195.73 319.858 L2191.08 319.858 L2191.08 311.709 L2175.47 311.709 L2175.47 307.196 L2189.85 285.298 Z" fill="#000000" fill-rule="evenodd" fill-opacity="1" /><polyline clip-path="url(#clip980)" style="stroke:#ac8d18; stroke-linecap:butt; stroke-linejoin:round; stroke-width:4; stroke-opacity:1; fill:none" points="
  1975.13,354.418 2122.03,354.418 
  "/>
<path clip-path="url(#clip980)" d="M2160.36 374.105 Q2158.55 378.735 2156.84 380.147 Q2155.13 381.559 2152.26 381.559 L2148.85 381.559 L2148.85 377.994 L2151.35 377.994 Q2153.11 377.994 2154.09 377.16 Q2155.06 376.327 2156.24 373.225 L2157 371.281 L2146.52 345.772 L2151.03 345.772 L2159.13 366.049 L2167.23 345.772 L2171.75 345.772 L2160.36 374.105 Z" fill="#000000" fill-rule="evenodd" fill-opacity="1" /><path clip-path="url(#clip980)" d="M2178.28 337.138 L2196.63 337.138 L2196.63 341.073 L2182.56 341.073 L2182.56 349.545 Q2183.58 349.198 2184.6 349.036 Q2185.61 348.85 2186.63 348.85 Q2192.42 348.85 2195.8 352.022 Q2199.18 355.193 2199.18 360.61 Q2199.18 366.188 2195.71 369.29 Q2192.23 372.369 2185.91 372.369 Q2183.74 372.369 2181.47 371.998 Q2179.22 371.628 2176.82 370.887 L2176.82 366.188 Q2178.9 367.323 2181.12 367.878 Q2183.35 368.434 2185.82 368.434 Q2189.83 368.434 2192.16 366.327 Q2194.5 364.221 2194.5 360.61 Q2194.5 356.999 2192.16 354.892 Q2189.83 352.786 2185.82 352.786 Q2183.95 352.786 2182.07 353.202 Q2180.22 353.619 2178.28 354.499 L2178.28 337.138 Z" fill="#000000" fill-rule="evenodd" fill-opacity="1" /><polyline clip-path="url(#clip980)" style="stroke:#00a9ad; stroke-linecap:butt; stroke-linejoin:round; stroke-width:4; stroke-opacity:1; fill:none" points="
  1975.13,406.258 2122.03,406.258 
  "/>
<path clip-path="url(#clip980)" d="M2160.36 425.945 Q2158.55 430.575 2156.84 431.987 Q2155.13 433.399 2152.26 433.399 L2148.85 433.399 L2148.85 429.834 L2151.35 429.834 Q2153.11 429.834 2154.09 429 Q2155.06 428.167 2156.24 425.065 L2157 423.121 L2146.52 397.612 L2151.03 397.612 L2159.13 417.889 L2167.23 397.612 L2171.75 397.612 L2160.36 425.945 Z" fill="#000000" fill-rule="evenodd" fill-opacity="1" /><path clip-path="url(#clip980)" d="M2188.81 404.394 Q2185.66 404.394 2183.81 406.547 Q2181.98 408.7 2181.98 412.45 Q2181.98 416.176 2183.81 418.352 Q2185.66 420.505 2188.81 420.505 Q2191.96 420.505 2193.78 418.352 Q2195.64 416.176 2195.64 412.45 Q2195.64 408.7 2193.78 406.547 Q2191.96 404.394 2188.81 404.394 M2198.09 389.741 L2198.09 394.001 Q2196.33 393.167 2194.53 392.728 Q2192.74 392.288 2190.98 392.288 Q2186.35 392.288 2183.9 395.413 Q2181.47 398.538 2181.12 404.857 Q2182.49 402.843 2184.55 401.778 Q2186.61 400.69 2189.09 400.69 Q2194.29 400.69 2197.3 403.862 Q2200.34 407.01 2200.34 412.45 Q2200.34 417.774 2197.19 420.991 Q2194.04 424.209 2188.81 424.209 Q2182.81 424.209 2179.64 419.626 Q2176.47 415.019 2176.47 406.292 Q2176.47 398.098 2180.36 393.237 Q2184.25 388.353 2190.8 388.353 Q2192.56 388.353 2194.34 388.7 Q2196.15 389.047 2198.09 389.741 Z" fill="#000000" fill-rule="evenodd" fill-opacity="1" /><polyline clip-path="url(#clip980)" style="stroke:#ed5d92; stroke-linecap:butt; stroke-linejoin:round; stroke-width:4; stroke-opacity:1; fill:none" points="
  1975.13,458.098 2122.03,458.098 
  "/>
<path clip-path="url(#clip980)" d="M2160.36 477.785 Q2158.55 482.415 2156.84 483.827 Q2155.13 485.239 2152.26 485.239 L2148.85 485.239 L2148.85 481.674 L2151.35 481.674 Q2153.11 481.674 2154.09 480.84 Q2155.06 480.007 2156.24 476.905 L2157 474.961 L2146.52 449.452 L2151.03 449.452 L2159.13 469.729 L2167.23 449.452 L2171.75 449.452 L2160.36 477.785 Z" fill="#000000" fill-rule="evenodd" fill-opacity="1" /><path clip-path="url(#clip980)" d="M2177.05 440.818 L2199.27 440.818 L2199.27 442.808 L2186.72 475.378 L2181.84 475.378 L2193.65 444.753 L2177.05 444.753 L2177.05 440.818 Z" fill="#000000" fill-rule="evenodd" fill-opacity="1" /><polyline clip-path="url(#clip980)" style="stroke:#c68125; stroke-linecap:butt; stroke-linejoin:round; stroke-width:4; stroke-opacity:1; fill:none" points="
  1975.13,509.938 2122.03,509.938 
  "/>
<path clip-path="url(#clip980)" d="M2160.36 529.625 Q2158.55 534.255 2156.84 535.667 Q2155.13 537.079 2152.26 537.079 L2148.85 537.079 L2148.85 533.514 L2151.35 533.514 Q2153.11 533.514 2154.09 532.68 Q2155.06 531.847 2156.24 528.745 L2157 526.801 L2146.52 501.292 L2151.03 501.292 L2159.13 521.569 L2167.23 501.292 L2171.75 501.292 L2160.36 529.625 Z" fill="#000000" fill-rule="evenodd" fill-opacity="1" /><path clip-path="url(#clip980)" d="M2188.23 510.806 Q2184.9 510.806 2182.97 512.588 Q2181.08 514.37 2181.08 517.495 Q2181.08 520.62 2182.97 522.403 Q2184.9 524.185 2188.23 524.185 Q2191.56 524.185 2193.48 522.403 Q2195.41 520.597 2195.41 517.495 Q2195.41 514.37 2193.48 512.588 Q2191.59 510.806 2188.23 510.806 M2183.55 508.815 Q2180.54 508.074 2178.85 506.014 Q2177.19 503.954 2177.19 500.991 Q2177.19 496.847 2180.13 494.44 Q2183.09 492.033 2188.23 492.033 Q2193.39 492.033 2196.33 494.44 Q2199.27 496.847 2199.27 500.991 Q2199.27 503.954 2197.58 506.014 Q2195.91 508.074 2192.93 508.815 Q2196.31 509.602 2198.18 511.894 Q2200.08 514.185 2200.08 517.495 Q2200.08 522.519 2197 525.204 Q2193.95 527.889 2188.23 527.889 Q2182.51 527.889 2179.43 525.204 Q2176.38 522.519 2176.38 517.495 Q2176.38 514.185 2178.28 511.894 Q2180.17 509.602 2183.55 508.815 M2181.84 501.431 Q2181.84 504.116 2183.51 505.62 Q2185.2 507.125 2188.23 507.125 Q2191.24 507.125 2192.93 505.62 Q2194.64 504.116 2194.64 501.431 Q2194.64 498.745 2192.93 497.241 Q2191.24 495.736 2188.23 495.736 Q2185.2 495.736 2183.51 497.241 Q2181.84 498.745 2181.84 501.431 Z" fill="#000000" fill-rule="evenodd" fill-opacity="1" /><polyline clip-path="url(#clip980)" style="stroke:#00a98d; stroke-linecap:butt; stroke-linejoin:round; stroke-width:4; stroke-opacity:1; fill:none" points="
  1975.13,561.778 2122.03,561.778 
  "/>
<path clip-path="url(#clip980)" d="M2160.36 581.465 Q2158.55 586.095 2156.84 587.507 Q2155.13 588.919 2152.26 588.919 L2148.85 588.919 L2148.85 585.354 L2151.35 585.354 Q2153.11 585.354 2154.09 584.52 Q2155.06 583.687 2156.24 580.585 L2157 578.641 L2146.52 553.132 L2151.03 553.132 L2159.13 573.409 L2167.23 553.132 L2171.75 553.132 L2160.36 581.465 Z" fill="#000000" fill-rule="evenodd" fill-opacity="1" /><path clip-path="url(#clip980)" d="M2178.37 578.34 L2178.37 574.081 Q2180.13 574.914 2181.93 575.354 Q2183.74 575.794 2185.47 575.794 Q2190.1 575.794 2192.53 572.692 Q2194.99 569.567 2195.34 563.224 Q2193.99 565.215 2191.93 566.28 Q2189.87 567.345 2187.37 567.345 Q2182.19 567.345 2179.16 564.22 Q2176.15 561.072 2176.15 555.632 Q2176.15 550.308 2179.29 547.09 Q2182.44 543.873 2187.67 543.873 Q2193.67 543.873 2196.82 548.479 Q2199.99 553.062 2199.99 561.812 Q2199.99 569.984 2196.1 574.868 Q2192.23 579.729 2185.68 579.729 Q2183.92 579.729 2182.12 579.382 Q2180.31 579.034 2178.37 578.34 M2187.67 563.687 Q2190.82 563.687 2192.65 561.534 Q2194.5 559.382 2194.5 555.632 Q2194.5 551.905 2192.65 549.752 Q2190.82 547.576 2187.67 547.576 Q2184.53 547.576 2182.67 549.752 Q2180.85 551.905 2180.85 555.632 Q2180.85 559.382 2182.67 561.534 Q2184.53 563.687 2187.67 563.687 Z" fill="#000000" fill-rule="evenodd" fill-opacity="1" /><polyline clip-path="url(#clip980)" style="stroke:#8e971d; stroke-linecap:butt; stroke-linejoin:round; stroke-width:4; stroke-opacity:1; fill:none" points="
  1975.13,613.618 2122.03,613.618 
  "/>
<path clip-path="url(#clip980)" d="M2160.36 633.305 Q2158.55 637.935 2156.84 639.347 Q2155.13 640.759 2152.26 640.759 L2148.85 640.759 L2148.85 637.194 L2151.35 637.194 Q2153.11 637.194 2154.09 636.36 Q2155.06 635.527 2156.24 632.425 L2157 630.481 L2146.52 604.972 L2151.03 604.972 L2159.13 625.249 L2167.23 604.972 L2171.75 604.972 L2160.36 633.305 Z" fill="#000000" fill-rule="evenodd" fill-opacity="1" /><path clip-path="url(#clip980)" d="M2179.04 626.962 L2186.68 626.962 L2186.68 600.597 L2178.37 602.263 L2178.37 598.004 L2186.63 596.338 L2191.31 596.338 L2191.31 626.962 L2198.95 626.962 L2198.95 630.898 L2179.04 630.898 L2179.04 626.962 Z" fill="#000000" fill-rule="evenodd" fill-opacity="1" /><path clip-path="url(#clip980)" d="M2218.39 599.416 Q2214.78 599.416 2212.95 602.981 Q2211.15 606.523 2211.15 613.652 Q2211.15 620.759 2212.95 624.324 Q2214.78 627.865 2218.39 627.865 Q2222.03 627.865 2223.83 624.324 Q2225.66 620.759 2225.66 613.652 Q2225.66 606.523 2223.83 602.981 Q2222.03 599.416 2218.39 599.416 M2218.39 595.713 Q2224.2 595.713 2227.26 600.319 Q2230.34 604.902 2230.34 613.652 Q2230.34 622.379 2227.26 626.986 Q2224.2 631.569 2218.39 631.569 Q2212.58 631.569 2209.5 626.986 Q2206.45 622.379 2206.45 613.652 Q2206.45 604.902 2209.5 600.319 Q2212.58 595.713 2218.39 595.713 Z" fill="#000000" fill-rule="evenodd" fill-opacity="1" /><circle clip-path="url(#clip980)" cx="2048.58" cy="665.458" r="23.04" fill="#00a8cb" fill-rule="evenodd" fill-opacity="1" stroke="#000000" stroke-opacity="1" stroke-width="5.12"/>
<path clip-path="url(#clip980)" d="M2160.36 685.145 Q2158.55 689.775 2156.84 691.187 Q2155.13 692.599 2152.26 692.599 L2148.85 692.599 L2148.85 689.034 L2151.35 689.034 Q2153.11 689.034 2154.09 688.2 Q2155.06 687.367 2156.24 684.265 L2157 682.321 L2146.52 656.812 L2151.03 656.812 L2159.13 677.089 L2167.23 656.812 L2171.75 656.812 L2160.36 685.145 Z" fill="#000000" fill-rule="evenodd" fill-opacity="1" /><path clip-path="url(#clip980)" d="M2179.04 678.802 L2186.68 678.802 L2186.68 652.437 L2178.37 654.103 L2178.37 649.844 L2186.63 648.178 L2191.31 648.178 L2191.31 678.802 L2198.95 678.802 L2198.95 682.738 L2179.04 682.738 L2179.04 678.802 Z" fill="#000000" fill-rule="evenodd" fill-opacity="1" /><path clip-path="url(#clip980)" d="M2209.2 678.802 L2216.84 678.802 L2216.84 652.437 L2208.53 654.103 L2208.53 649.844 L2216.79 648.178 L2221.47 648.178 L2221.47 678.802 L2229.11 678.802 L2229.11 682.738 L2209.2 682.738 L2209.2 678.802 Z" fill="#000000" fill-rule="evenodd" fill-opacity="1" /></svg>
