<?xml version="1.0" encoding="utf-8"?>
<svg xmlns="http://www.w3.org/2000/svg" xmlns:xlink="http://www.w3.org/1999/xlink" width="600" height="400" viewBox="0 0 2400 1600">
<defs>
  <clipPath id="clip340">
    <rect x="0" y="0" width="2400" height="1600"/>
  </clipPath>
</defs>
<path clip-path="url(#clip340)" d="
M0 1600 L2400 1600 L2400 0 L0 0  Z
  " fill="#ffffff" fill-rule="evenodd" fill-opacity="1"/>
<defs>
  <clipPath id="clip341">
    <rect x="480" y="0" width="1681" height="1600"/>
  </clipPath>
</defs>
<path clip-path="url(#clip340)" d="
M186.274 1486.45 L2352.76 1486.45 L2352.76 47.2441 L186.274 47.2441  Z
  " fill="#ffffff" fill-rule="evenodd" fill-opacity="1"/>
<defs>
  <clipPath id="clip342">
    <rect x="186" y="47" width="2167" height="1440"/>
  </clipPath>
</defs>
<polyline clip-path="url(#clip342)" style="stroke:#000000; stroke-linecap:butt; stroke-linejoin:round; stroke-width:2; stroke-opacity:0.1; fill:none" points="
  186.274,1486.45 186.274,47.2441 
  "/>
<polyline clip-path="url(#clip342)" style="stroke:#000000; stroke-linecap:butt; stroke-linejoin:round; stroke-width:2; stroke-opacity:0.1; fill:none" points="
  619.57,1486.45 619.57,47.2441 
  "/>
<polyline clip-path="url(#clip342)" style="stroke:#000000; stroke-linecap:butt; stroke-linejoin:round; stroke-width:2; stroke-opacity:0.1; fill:none" points="
  1052.87,1486.45 1052.87,47.2441 
  "/>
<polyline clip-path="url(#clip342)" style="stroke:#000000; stroke-linecap:butt; stroke-linejoin:round; stroke-width:2; stroke-opacity:0.1; fill:none" points="
  1486.16,1486.45 1486.16,47.2441 
  "/>
<polyline clip-path="url(#clip342)" style="stroke:#000000; stroke-linecap:butt; stroke-linejoin:round; stroke-width:2; stroke-opacity:0.1; fill:none" points="
  1919.46,1486.45 1919.46,47.2441 
  "/>
<polyline clip-path="url(#clip342)" style="stroke:#000000; stroke-linecap:butt; stroke-linejoin:round; stroke-width:2; stroke-opacity:0.1; fill:none" points="
  2352.76,1486.45 2352.76,47.2441 
  "/>
<polyline clip-path="url(#clip340)" style="stroke:#000000; stroke-linecap:butt; stroke-linejoin:round; stroke-width:4; stroke-opacity:1; fill:none" points="
  186.274,1486.45 2352.76,1486.45 
  "/>
<polyline clip-path="url(#clip340)" style="stroke:#000000; stroke-linecap:butt; stroke-linejoin:round; stroke-width:4; stroke-opacity:1; fill:none" points="
  186.274,1486.45 186.274,1467.55 
  "/>
<polyline clip-path="url(#clip340)" style="stroke:#000000; stroke-linecap:butt; stroke-linejoin:round; stroke-width:4; stroke-opacity:1; fill:none" points="
  619.57,1486.45 619.57,1467.55 
  "/>
<polyline clip-path="url(#clip340)" style="stroke:#000000; stroke-linecap:butt; stroke-linejoin:round; stroke-width:4; stroke-opacity:1; fill:none" points="
  1052.87,1486.45 1052.87,1467.55 
  "/>
<polyline clip-path="url(#clip340)" style="stroke:#000000; stroke-linecap:butt; stroke-linejoin:round; stroke-width:4; stroke-opacity:1; fill:none" points="
  1486.16,1486.45 1486.16,1467.55 
  "/>
<polyline clip-path="url(#clip340)" style="stroke:#000000; stroke-linecap:butt; stroke-linejoin:round; stroke-width:4; stroke-opacity:1; fill:none" points="
  1919.46,1486.45 1919.46,1467.55 
  "/>
<polyline clip-path="url(#clip340)" style="stroke:#000000; stroke-linecap:butt; stroke-linejoin:round; stroke-width:4; stroke-opacity:1; fill:none" points="
  2352.76,1486.45 2352.76,1467.55 
  "/>
<path clip-path="url(#clip340)" d="M132.802 1532.02 L162.478 1532.02 L162.478 1535.95 L132.802 1535.95 L132.802 1532.02 Z" fill="#000000" fill-rule="evenodd" fill-opacity="1" /><path clip-path="url(#clip340)" d="M173.381 1544.91 L181.019 1544.91 L181.019 1518.55 L172.709 1520.21 L172.709 1515.95 L180.973 1514.29 L185.649 1514.29 L185.649 1544.91 L193.288 1544.91 L193.288 1548.85 L173.381 1548.85 L173.381 1544.91 Z" fill="#000000" fill-rule="evenodd" fill-opacity="1" /><path clip-path="url(#clip340)" d="M202.732 1542.97 L207.616 1542.97 L207.616 1548.85 L202.732 1548.85 L202.732 1542.97 Z" fill="#000000" fill-rule="evenodd" fill-opacity="1" /><path clip-path="url(#clip340)" d="M227.802 1517.37 Q224.19 1517.37 222.362 1520.93 Q220.556 1524.47 220.556 1531.6 Q220.556 1538.71 222.362 1542.27 Q224.19 1545.82 227.802 1545.82 Q231.436 1545.82 233.241 1542.27 Q235.07 1538.71 235.07 1531.6 Q235.07 1524.47 233.241 1520.93 Q231.436 1517.37 227.802 1517.37 M227.802 1513.66 Q233.612 1513.66 236.667 1518.27 Q239.746 1522.85 239.746 1531.6 Q239.746 1540.33 236.667 1544.94 Q233.612 1549.52 227.802 1549.52 Q221.991 1549.52 218.913 1544.94 Q215.857 1540.33 215.857 1531.6 Q215.857 1522.85 218.913 1518.27 Q221.991 1513.66 227.802 1513.66 Z" fill="#000000" fill-rule="evenodd" fill-opacity="1" /><path clip-path="url(#clip340)" d="M566.191 1532.02 L595.867 1532.02 L595.867 1535.95 L566.191 1535.95 L566.191 1532.02 Z" fill="#000000" fill-rule="evenodd" fill-opacity="1" /><path clip-path="url(#clip340)" d="M615.959 1517.37 Q612.348 1517.37 610.52 1520.93 Q608.714 1524.47 608.714 1531.6 Q608.714 1538.71 610.52 1542.27 Q612.348 1545.82 615.959 1545.82 Q619.594 1545.82 621.399 1542.27 Q623.228 1538.71 623.228 1531.6 Q623.228 1524.47 621.399 1520.93 Q619.594 1517.37 615.959 1517.37 M615.959 1513.66 Q621.769 1513.66 624.825 1518.27 Q627.904 1522.85 627.904 1531.6 Q627.904 1540.33 624.825 1544.94 Q621.769 1549.52 615.959 1549.52 Q610.149 1549.52 607.07 1544.94 Q604.015 1540.33 604.015 1531.6 Q604.015 1522.85 607.07 1518.27 Q610.149 1513.66 615.959 1513.66 Z" fill="#000000" fill-rule="evenodd" fill-opacity="1" /><path clip-path="url(#clip340)" d="M636.121 1542.97 L641.005 1542.97 L641.005 1548.85 L636.121 1548.85 L636.121 1542.97 Z" fill="#000000" fill-rule="evenodd" fill-opacity="1" /><path clip-path="url(#clip340)" d="M651.329 1548.13 L651.329 1543.87 Q653.089 1544.7 654.894 1545.14 Q656.7 1545.58 658.436 1545.58 Q663.066 1545.58 665.496 1542.48 Q667.95 1539.36 668.297 1533.01 Q666.954 1535.01 664.894 1536.07 Q662.834 1537.13 660.334 1537.13 Q655.149 1537.13 652.117 1534.01 Q649.107 1530.86 649.107 1525.42 Q649.107 1520.1 652.255 1516.88 Q655.404 1513.66 660.635 1513.66 Q666.63 1513.66 669.778 1518.27 Q672.95 1522.85 672.95 1531.6 Q672.95 1539.77 669.061 1544.66 Q665.195 1549.52 658.644 1549.52 Q656.885 1549.52 655.079 1549.17 Q653.274 1548.82 651.329 1548.13 M660.635 1533.48 Q663.783 1533.48 665.612 1531.32 Q667.464 1529.17 667.464 1525.42 Q667.464 1521.7 665.612 1519.54 Q663.783 1517.37 660.635 1517.37 Q657.487 1517.37 655.635 1519.54 Q653.806 1521.7 653.806 1525.42 Q653.806 1529.17 655.635 1531.32 Q657.487 1533.48 660.635 1533.48 Z" fill="#000000" fill-rule="evenodd" fill-opacity="1" /><path clip-path="url(#clip340)" d="M999.441 1532.02 L1029.12 1532.02 L1029.12 1535.95 L999.441 1535.95 L999.441 1532.02 Z" fill="#000000" fill-rule="evenodd" fill-opacity="1" /><path clip-path="url(#clip340)" d="M1049.21 1517.37 Q1045.6 1517.37 1043.77 1520.93 Q1041.96 1524.47 1041.96 1531.6 Q1041.96 1538.71 1043.77 1542.27 Q1045.6 1545.82 1049.21 1545.82 Q1052.84 1545.82 1054.65 1542.27 Q1056.48 1538.71 1056.48 1531.6 Q1056.48 1524.47 1054.65 1520.93 Q1052.84 1517.37 1049.21 1517.37 M1049.21 1513.66 Q1055.02 1513.66 1058.08 1518.27 Q1061.15 1522.85 1061.15 1531.6 Q1061.15 1540.33 1058.08 1544.94 Q1055.02 1549.52 1049.21 1549.52 Q1043.4 1549.52 1040.32 1544.94 Q1037.26 1540.33 1037.26 1531.6 Q1037.26 1522.85 1040.32 1518.27 Q1043.4 1513.66 1049.21 1513.66 Z" fill="#000000" fill-rule="evenodd" fill-opacity="1" /><path clip-path="url(#clip340)" d="M1069.37 1542.97 L1074.26 1542.97 L1074.26 1548.85 L1069.37 1548.85 L1069.37 1542.97 Z" fill="#000000" fill-rule="evenodd" fill-opacity="1" /><path clip-path="url(#clip340)" d="M1094.44 1532.44 Q1091.11 1532.44 1089.19 1534.22 Q1087.29 1536 1087.29 1539.13 Q1087.29 1542.25 1089.19 1544.03 Q1091.11 1545.82 1094.44 1545.82 Q1097.77 1545.82 1099.7 1544.03 Q1101.62 1542.23 1101.62 1539.13 Q1101.62 1536 1099.7 1534.22 Q1097.8 1532.44 1094.44 1532.44 M1089.76 1530.45 Q1086.76 1529.7 1085.07 1527.64 Q1083.4 1525.58 1083.4 1522.62 Q1083.4 1518.48 1086.34 1516.07 Q1089.3 1513.66 1094.44 1513.66 Q1099.6 1513.66 1102.54 1516.07 Q1105.48 1518.48 1105.48 1522.62 Q1105.48 1525.58 1103.79 1527.64 Q1102.13 1529.7 1099.14 1530.45 Q1102.52 1531.23 1104.39 1533.52 Q1106.29 1535.82 1106.29 1539.13 Q1106.29 1544.15 1103.21 1546.83 Q1100.16 1549.52 1094.44 1549.52 Q1088.72 1549.52 1085.64 1546.83 Q1082.59 1544.15 1082.59 1539.13 Q1082.59 1535.82 1084.49 1533.52 Q1086.39 1531.23 1089.76 1530.45 M1088.05 1523.06 Q1088.05 1525.75 1089.72 1527.25 Q1091.41 1528.76 1094.44 1528.76 Q1097.45 1528.76 1099.14 1527.25 Q1100.85 1525.75 1100.85 1523.06 Q1100.85 1520.38 1099.14 1518.87 Q1097.45 1517.37 1094.44 1517.37 Q1091.41 1517.37 1089.72 1518.87 Q1088.05 1520.38 1088.05 1523.06 Z" fill="#000000" fill-rule="evenodd" fill-opacity="1" /><path clip-path="url(#clip340)" d="M1433.14 1532.02 L1462.82 1532.02 L1462.82 1535.95 L1433.14 1535.95 L1433.14 1532.02 Z" fill="#000000" fill-rule="evenodd" fill-opacity="1" /><path clip-path="url(#clip340)" d="M1482.91 1517.37 Q1479.3 1517.37 1477.47 1520.93 Q1475.67 1524.47 1475.67 1531.6 Q1475.67 1538.71 1477.47 1542.27 Q1479.3 1545.82 1482.91 1545.82 Q1486.55 1545.82 1488.35 1542.27 Q1490.18 1538.71 1490.18 1531.6 Q1490.18 1524.47 1488.35 1520.93 Q1486.55 1517.37 1482.91 1517.37 M1482.91 1513.66 Q1488.72 1513.66 1491.78 1518.27 Q1494.86 1522.85 1494.86 1531.6 Q1494.86 1540.33 1491.78 1544.94 Q1488.72 1549.52 1482.91 1549.52 Q1477.1 1549.52 1474.02 1544.94 Q1470.97 1540.33 1470.97 1531.6 Q1470.97 1522.85 1474.02 1518.27 Q1477.1 1513.66 1482.91 1513.66 Z" fill="#000000" fill-rule="evenodd" fill-opacity="1" /><path clip-path="url(#clip340)" d="M1503.07 1542.97 L1507.96 1542.97 L1507.96 1548.85 L1503.07 1548.85 L1503.07 1542.97 Z" fill="#000000" fill-rule="evenodd" fill-opacity="1" /><path clip-path="url(#clip340)" d="M1516.96 1514.29 L1539.18 1514.29 L1539.18 1516.28 L1526.64 1548.85 L1521.75 1548.85 L1533.56 1518.22 L1516.96 1518.22 L1516.96 1514.29 Z" fill="#000000" fill-rule="evenodd" fill-opacity="1" /><path clip-path="url(#clip340)" d="M1865.91 1532.02 L1895.58 1532.02 L1895.58 1535.95 L1865.91 1535.95 L1865.91 1532.02 Z" fill="#000000" fill-rule="evenodd" fill-opacity="1" /><path clip-path="url(#clip340)" d="M1915.67 1517.37 Q1912.06 1517.37 1910.24 1520.93 Q1908.43 1524.47 1908.43 1531.6 Q1908.43 1538.71 1910.24 1542.27 Q1912.06 1545.82 1915.67 1545.82 Q1919.31 1545.82 1921.11 1542.27 Q1922.94 1538.71 1922.94 1531.6 Q1922.94 1524.47 1921.11 1520.93 Q1919.31 1517.37 1915.67 1517.37 M1915.67 1513.66 Q1921.48 1513.66 1924.54 1518.27 Q1927.62 1522.85 1927.62 1531.6 Q1927.62 1540.33 1924.54 1544.94 Q1921.48 1549.52 1915.67 1549.52 Q1909.86 1549.52 1906.79 1544.94 Q1903.73 1540.33 1903.73 1531.6 Q1903.73 1522.85 1906.79 1518.27 Q1909.86 1513.66 1915.67 1513.66 Z" fill="#000000" fill-rule="evenodd" fill-opacity="1" /><path clip-path="url(#clip340)" d="M1935.84 1542.97 L1940.72 1542.97 L1940.72 1548.85 L1935.84 1548.85 L1935.84 1542.97 Z" fill="#000000" fill-rule="evenodd" fill-opacity="1" /><path clip-path="url(#clip340)" d="M1961.48 1529.7 Q1958.34 1529.7 1956.48 1531.86 Q1954.66 1534.01 1954.66 1537.76 Q1954.66 1541.49 1956.48 1543.66 Q1958.34 1545.82 1961.48 1545.82 Q1964.63 1545.82 1966.46 1543.66 Q1968.31 1541.49 1968.31 1537.76 Q1968.31 1534.01 1966.46 1531.86 Q1964.63 1529.7 1961.48 1529.7 M1970.77 1515.05 L1970.77 1519.31 Q1969.01 1518.48 1967.2 1518.04 Q1965.42 1517.6 1963.66 1517.6 Q1959.03 1517.6 1956.58 1520.72 Q1954.15 1523.85 1953.8 1530.17 Q1955.17 1528.15 1957.23 1527.09 Q1959.29 1526 1961.76 1526 Q1966.97 1526 1969.98 1529.17 Q1973.01 1532.32 1973.01 1537.76 Q1973.01 1543.08 1969.86 1546.3 Q1966.72 1549.52 1961.48 1549.52 Q1955.49 1549.52 1952.32 1544.94 Q1949.15 1540.33 1949.15 1531.6 Q1949.15 1523.41 1953.04 1518.55 Q1956.92 1513.66 1963.48 1513.66 Q1965.23 1513.66 1967.02 1514.01 Q1968.82 1514.36 1970.77 1515.05 Z" fill="#000000" fill-rule="evenodd" fill-opacity="1" /><path clip-path="url(#clip340)" d="M2299.78 1532.02 L2329.46 1532.02 L2329.46 1535.95 L2299.78 1535.95 L2299.78 1532.02 Z" fill="#000000" fill-rule="evenodd" fill-opacity="1" /><path clip-path="url(#clip340)" d="M2349.55 1517.37 Q2345.94 1517.37 2344.11 1520.93 Q2342.3 1524.47 2342.3 1531.6 Q2342.3 1538.71 2344.11 1542.27 Q2345.94 1545.82 2349.55 1545.82 Q2353.18 1545.82 2354.99 1542.27 Q2356.82 1538.71 2356.82 1531.6 Q2356.82 1524.47 2354.99 1520.93 Q2353.18 1517.37 2349.55 1517.37 M2349.55 1513.66 Q2355.36 1513.66 2358.42 1518.27 Q2361.49 1522.85 2361.49 1531.6 Q2361.49 1540.33 2358.42 1544.94 Q2355.36 1549.52 2349.55 1549.52 Q2343.74 1549.52 2340.66 1544.94 Q2337.61 1540.33 2337.61 1531.6 Q2337.61 1522.85 2340.66 1518.27 Q2343.74 1513.66 2349.55 1513.66 Z" fill="#000000" fill-rule="evenodd" fill-opacity="1" /><path clip-path="url(#clip340)" d="M2369.71 1542.97 L2374.6 1542.97 L2374.6 1548.85 L2369.71 1548.85 L2369.71 1542.97 Z" fill="#000000" fill-rule="evenodd" fill-opacity="1" /><path clip-path="url(#clip340)" d="M2384.83 1514.29 L2403.18 1514.29 L2403.18 1518.22 L2389.11 1518.22 L2389.11 1526.7 Q2390.13 1526.35 2391.15 1526.19 Q2392.17 1526 2393.18 1526 Q2398.97 1526 2402.35 1529.17 Q2405.73 1532.34 2405.73 1537.76 Q2405.73 1543.34 2402.26 1546.44 Q2398.79 1549.52 2392.47 1549.52 Q2390.29 1549.52 2388.02 1549.15 Q2385.78 1548.78 2383.37 1548.04 L2383.37 1543.34 Q2385.45 1544.47 2387.67 1545.03 Q2389.9 1545.58 2392.37 1545.58 Q2396.38 1545.58 2398.72 1543.48 Q2401.05 1541.37 2401.05 1537.76 Q2401.05 1534.15 2398.72 1532.04 Q2396.38 1529.94 2392.37 1529.94 Q2390.5 1529.94 2388.62 1530.35 Q2386.77 1530.77 2384.83 1531.65 L2384.83 1514.29 Z" fill="#000000" fill-rule="evenodd" fill-opacity="1" /><polyline clip-path="url(#clip342)" style="stroke:#000000; stroke-linecap:butt; stroke-linejoin:round; stroke-width:2; stroke-opacity:0.1; fill:none" points="
  186.274,1445.72 2352.76,1445.72 
  "/>
<polyline clip-path="url(#clip342)" style="stroke:#000000; stroke-linecap:butt; stroke-linejoin:round; stroke-width:2; stroke-opacity:0.1; fill:none" points="
  186.274,1106.28 2352.76,1106.28 
  "/>
<polyline clip-path="url(#clip342)" style="stroke:#000000; stroke-linecap:butt; stroke-linejoin:round; stroke-width:2; stroke-opacity:0.1; fill:none" points="
  186.274,766.846 2352.76,766.846 
  "/>
<polyline clip-path="url(#clip342)" style="stroke:#000000; stroke-linecap:butt; stroke-linejoin:round; stroke-width:2; stroke-opacity:0.1; fill:none" points="
  186.274,427.411 2352.76,427.411 
  "/>
<polyline clip-path="url(#clip342)" style="stroke:#000000; stroke-linecap:butt; stroke-linejoin:round; stroke-width:2; stroke-opacity:0.1; fill:none" points="
  186.274,87.9763 2352.76,87.9763 
  "/>
<polyline clip-path="url(#clip340)" style="stroke:#000000; stroke-linecap:butt; stroke-linejoin:round; stroke-width:4; stroke-opacity:1; fill:none" points="
  186.274,1486.45 186.274,47.2441 
  "/>
<polyline clip-path="url(#clip340)" style="stroke:#000000; stroke-linecap:butt; stroke-linejoin:round; stroke-width:4; stroke-opacity:1; fill:none" points="
  186.274,1445.72 205.172,1445.72 
  "/>
<polyline clip-path="url(#clip340)" style="stroke:#000000; stroke-linecap:butt; stroke-linejoin:round; stroke-width:4; stroke-opacity:1; fill:none" points="
  186.274,1106.28 205.172,1106.28 
  "/>
<polyline clip-path="url(#clip340)" style="stroke:#000000; stroke-linecap:butt; stroke-linejoin:round; stroke-width:4; stroke-opacity:1; fill:none" points="
  186.274,766.846 205.172,766.846 
  "/>
<polyline clip-path="url(#clip340)" style="stroke:#000000; stroke-linecap:butt; stroke-linejoin:round; stroke-width:4; stroke-opacity:1; fill:none" points="
  186.274,427.411 205.172,427.411 
  "/>
<polyline clip-path="url(#clip340)" style="stroke:#000000; stroke-linecap:butt; stroke-linejoin:round; stroke-width:4; stroke-opacity:1; fill:none" points="
  186.274,87.9763 205.172,87.9763 
  "/>
<path clip-path="url(#clip340)" d="M62.9365 1431.51 Q59.3254 1431.51 57.4967 1435.08 Q55.6912 1438.62 55.6912 1445.75 Q55.6912 1452.86 57.4967 1456.42 Q59.3254 1459.96 62.9365 1459.96 Q66.5707 1459.96 68.3763 1456.42 Q70.205 1452.86 70.205 1445.75 Q70.205 1438.62 68.3763 1435.08 Q66.5707 1431.51 62.9365 1431.51 M62.9365 1427.81 Q68.7467 1427.81 71.8022 1432.42 Q74.8809 1437 74.8809 1445.75 Q74.8809 1454.48 71.8022 1459.08 Q68.7467 1463.67 62.9365 1463.67 Q57.1264 1463.67 54.0477 1459.08 Q50.9921 1454.48 50.9921 1445.75 Q50.9921 1437 54.0477 1432.42 Q57.1264 1427.81 62.9365 1427.81 Z" fill="#000000" fill-rule="evenodd" fill-opacity="1" /><path clip-path="url(#clip340)" d="M83.0984 1457.12 L87.9827 1457.12 L87.9827 1463 L83.0984 1463 L83.0984 1457.12 Z" fill="#000000" fill-rule="evenodd" fill-opacity="1" /><path clip-path="url(#clip340)" d="M108.168 1431.51 Q104.557 1431.51 102.728 1435.08 Q100.922 1438.62 100.922 1445.75 Q100.922 1452.86 102.728 1456.42 Q104.557 1459.96 108.168 1459.96 Q111.802 1459.96 113.608 1456.42 Q115.436 1452.86 115.436 1445.75 Q115.436 1438.62 113.608 1435.08 Q111.802 1431.51 108.168 1431.51 M108.168 1427.81 Q113.978 1427.81 117.033 1432.42 Q120.112 1437 120.112 1445.75 Q120.112 1454.48 117.033 1459.08 Q113.978 1463.67 108.168 1463.67 Q102.358 1463.67 99.2789 1459.08 Q96.2234 1454.48 96.2234 1445.75 Q96.2234 1437 99.2789 1432.42 Q102.358 1427.81 108.168 1427.81 Z" fill="#000000" fill-rule="evenodd" fill-opacity="1" /><path clip-path="url(#clip340)" d="M138.33 1431.51 Q134.719 1431.51 132.89 1435.08 Q131.084 1438.62 131.084 1445.75 Q131.084 1452.86 132.89 1456.42 Q134.719 1459.96 138.33 1459.96 Q141.964 1459.96 143.769 1456.42 Q145.598 1452.86 145.598 1445.75 Q145.598 1438.62 143.769 1435.08 Q141.964 1431.51 138.33 1431.51 M138.33 1427.81 Q144.14 1427.81 147.195 1432.42 Q150.274 1437 150.274 1445.75 Q150.274 1454.48 147.195 1459.08 Q144.14 1463.67 138.33 1463.67 Q132.519 1463.67 129.441 1459.08 Q126.385 1454.48 126.385 1445.75 Q126.385 1437 129.441 1432.42 Q132.519 1427.81 138.33 1427.81 Z" fill="#000000" fill-rule="evenodd" fill-opacity="1" /><path clip-path="url(#clip340)" d="M63.9319 1092.08 Q60.3208 1092.08 58.4921 1095.64 Q56.6865 1099.19 56.6865 1106.32 Q56.6865 1113.42 58.4921 1116.99 Q60.3208 1120.53 63.9319 1120.53 Q67.5661 1120.53 69.3717 1116.99 Q71.2004 1113.42 71.2004 1106.32 Q71.2004 1099.19 69.3717 1095.64 Q67.5661 1092.08 63.9319 1092.08 M63.9319 1088.38 Q69.742 1088.38 72.7976 1092.98 Q75.8763 1097.57 75.8763 1106.32 Q75.8763 1115.04 72.7976 1119.65 Q69.742 1124.23 63.9319 1124.23 Q58.1217 1124.23 55.043 1119.65 Q51.9875 1115.04 51.9875 1106.32 Q51.9875 1097.57 55.043 1092.98 Q58.1217 1088.38 63.9319 1088.38 Z" fill="#000000" fill-rule="evenodd" fill-opacity="1" /><path clip-path="url(#clip340)" d="M84.0938 1117.68 L88.978 1117.68 L88.978 1123.56 L84.0938 1123.56 L84.0938 1117.68 Z" fill="#000000" fill-rule="evenodd" fill-opacity="1" /><path clip-path="url(#clip340)" d="M103.191 1119.63 L119.51 1119.63 L119.51 1123.56 L97.566 1123.56 L97.566 1119.63 Q100.228 1116.87 104.811 1112.24 Q109.418 1107.59 110.598 1106.25 Q112.844 1103.72 113.723 1101.99 Q114.626 1100.23 114.626 1098.54 Q114.626 1095.78 112.682 1094.05 Q110.76 1092.31 107.658 1092.31 Q105.459 1092.31 103.006 1093.07 Q100.575 1093.84 97.7974 1095.39 L97.7974 1090.67 Q100.621 1089.53 103.075 1088.95 Q105.529 1088.38 107.566 1088.38 Q112.936 1088.38 116.131 1091.06 Q119.325 1093.75 119.325 1098.24 Q119.325 1100.37 118.515 1102.29 Q117.728 1104.19 115.621 1106.78 Q115.043 1107.45 111.941 1110.67 Q108.839 1113.86 103.191 1119.63 Z" fill="#000000" fill-rule="evenodd" fill-opacity="1" /><path clip-path="url(#clip340)" d="M129.371 1089 L147.728 1089 L147.728 1092.94 L133.654 1092.94 L133.654 1101.41 Q134.672 1101.06 135.691 1100.9 Q136.709 1100.71 137.728 1100.71 Q143.515 1100.71 146.894 1103.89 Q150.274 1107.06 150.274 1112.47 Q150.274 1118.05 146.802 1121.15 Q143.33 1124.23 137.01 1124.23 Q134.834 1124.23 132.566 1123.86 Q130.32 1123.49 127.913 1122.75 L127.913 1118.05 Q129.996 1119.19 132.219 1119.74 Q134.441 1120.3 136.918 1120.3 Q140.922 1120.3 143.26 1118.19 Q145.598 1116.08 145.598 1112.47 Q145.598 1108.86 143.26 1106.76 Q140.922 1104.65 136.918 1104.65 Q135.043 1104.65 133.168 1105.07 Q131.316 1105.48 129.371 1106.36 L129.371 1089 Z" fill="#000000" fill-rule="evenodd" fill-opacity="1" /><path clip-path="url(#clip340)" d="M62.9365 752.645 Q59.3254 752.645 57.4967 756.209 Q55.6912 759.751 55.6912 766.881 Q55.6912 773.987 57.4967 777.552 Q59.3254 781.094 62.9365 781.094 Q66.5707 781.094 68.3763 777.552 Q70.205 773.987 70.205 766.881 Q70.205 759.751 68.3763 756.209 Q66.5707 752.645 62.9365 752.645 M62.9365 748.941 Q68.7467 748.941 71.8022 753.547 Q74.8809 758.131 74.8809 766.881 Q74.8809 775.608 71.8022 780.214 Q68.7467 784.797 62.9365 784.797 Q57.1264 784.797 54.0477 780.214 Q50.9921 775.608 50.9921 766.881 Q50.9921 758.131 54.0477 753.547 Q57.1264 748.941 62.9365 748.941 Z" fill="#000000" fill-rule="evenodd" fill-opacity="1" /><path clip-path="url(#clip340)" d="M83.0984 778.246 L87.9827 778.246 L87.9827 784.126 L83.0984 784.126 L83.0984 778.246 Z" fill="#000000" fill-rule="evenodd" fill-opacity="1" /><path clip-path="url(#clip340)" d="M98.2141 749.566 L116.57 749.566 L116.57 753.501 L102.496 753.501 L102.496 761.973 Q103.515 761.626 104.534 761.464 Q105.552 761.279 106.571 761.279 Q112.358 761.279 115.737 764.45 Q119.117 767.621 119.117 773.038 Q119.117 778.617 115.645 781.719 Q112.172 784.797 105.853 784.797 Q103.677 784.797 101.409 784.427 Q99.1632 784.057 96.7558 783.316 L96.7558 778.617 Q98.8391 779.751 101.061 780.307 Q103.284 780.862 105.76 780.862 Q109.765 780.862 112.103 778.756 Q114.441 776.649 114.441 773.038 Q114.441 769.427 112.103 767.321 Q109.765 765.214 105.76 765.214 Q103.885 765.214 102.01 765.631 Q100.159 766.047 98.2141 766.927 L98.2141 749.566 Z" fill="#000000" fill-rule="evenodd" fill-opacity="1" /><path clip-path="url(#clip340)" d="M138.33 752.645 Q134.719 752.645 132.89 756.209 Q131.084 759.751 131.084 766.881 Q131.084 773.987 132.89 777.552 Q134.719 781.094 138.33 781.094 Q141.964 781.094 143.769 777.552 Q145.598 773.987 145.598 766.881 Q145.598 759.751 143.769 756.209 Q141.964 752.645 138.33 752.645 M138.33 748.941 Q144.14 748.941 147.195 753.547 Q150.274 758.131 150.274 766.881 Q150.274 775.608 147.195 780.214 Q144.14 784.797 138.33 784.797 Q132.519 784.797 129.441 780.214 Q126.385 775.608 126.385 766.881 Q126.385 758.131 129.441 753.547 Q132.519 748.941 138.33 748.941 Z" fill="#000000" fill-rule="evenodd" fill-opacity="1" /><path clip-path="url(#clip340)" d="M63.9319 413.21 Q60.3208 413.21 58.4921 416.775 Q56.6865 420.316 56.6865 427.446 Q56.6865 434.552 58.4921 438.117 Q60.3208 441.659 63.9319 441.659 Q67.5661 441.659 69.3717 438.117 Q71.2004 434.552 71.2004 427.446 Q71.2004 420.316 69.3717 416.775 Q67.5661 413.21 63.9319 413.21 M63.9319 409.506 Q69.742 409.506 72.7976 414.113 Q75.8763 418.696 75.8763 427.446 Q75.8763 436.173 72.7976 440.779 Q69.742 445.362 63.9319 445.362 Q58.1217 445.362 55.043 440.779 Q51.9875 436.173 51.9875 427.446 Q51.9875 418.696 55.043 414.113 Q58.1217 409.506 63.9319 409.506 Z" fill="#000000" fill-rule="evenodd" fill-opacity="1" /><path clip-path="url(#clip340)" d="M84.0938 438.812 L88.978 438.812 L88.978 444.691 L84.0938 444.691 L84.0938 438.812 Z" fill="#000000" fill-rule="evenodd" fill-opacity="1" /><path clip-path="url(#clip340)" d="M97.9826 410.131 L120.205 410.131 L120.205 412.122 L107.658 444.691 L102.774 444.691 L114.58 414.066 L97.9826 414.066 L97.9826 410.131 Z" fill="#000000" fill-rule="evenodd" fill-opacity="1" /><path clip-path="url(#clip340)" d="M129.371 410.131 L147.728 410.131 L147.728 414.066 L133.654 414.066 L133.654 422.538 Q134.672 422.191 135.691 422.029 Q136.709 421.844 137.728 421.844 Q143.515 421.844 146.894 425.015 Q150.274 428.187 150.274 433.603 Q150.274 439.182 146.802 442.284 Q143.33 445.362 137.01 445.362 Q134.834 445.362 132.566 444.992 Q130.32 444.622 127.913 443.881 L127.913 439.182 Q129.996 440.316 132.219 440.872 Q134.441 441.427 136.918 441.427 Q140.922 441.427 143.26 439.321 Q145.598 437.214 145.598 433.603 Q145.598 429.992 143.26 427.886 Q140.922 425.779 136.918 425.779 Q135.043 425.779 133.168 426.196 Q131.316 426.613 129.371 427.492 L129.371 410.131 Z" fill="#000000" fill-rule="evenodd" fill-opacity="1" /><path clip-path="url(#clip340)" d="M53.7467 101.321 L61.3856 101.321 L61.3856 74.9555 L53.0754 76.6222 L53.0754 72.3629 L61.3393 70.6963 L66.0152 70.6963 L66.0152 101.321 L73.654 101.321 L73.654 105.256 L53.7467 105.256 L53.7467 101.321 Z" fill="#000000" fill-rule="evenodd" fill-opacity="1" /><path clip-path="url(#clip340)" d="M83.0984 99.3767 L87.9827 99.3767 L87.9827 105.256 L83.0984 105.256 L83.0984 99.3767 Z" fill="#000000" fill-rule="evenodd" fill-opacity="1" /><path clip-path="url(#clip340)" d="M108.168 73.775 Q104.557 73.775 102.728 77.3398 Q100.922 80.8814 100.922 88.011 Q100.922 95.1174 102.728 98.6822 Q104.557 102.224 108.168 102.224 Q111.802 102.224 113.608 98.6822 Q115.436 95.1174 115.436 88.011 Q115.436 80.8814 113.608 77.3398 Q111.802 73.775 108.168 73.775 M108.168 70.0713 Q113.978 70.0713 117.033 74.6777 Q120.112 79.261 120.112 88.011 Q120.112 96.7378 117.033 101.344 Q113.978 105.928 108.168 105.928 Q102.358 105.928 99.2789 101.344 Q96.2234 96.7378 96.2234 88.011 Q96.2234 79.261 99.2789 74.6777 Q102.358 70.0713 108.168 70.0713 Z" fill="#000000" fill-rule="evenodd" fill-opacity="1" /><path clip-path="url(#clip340)" d="M138.33 73.775 Q134.719 73.775 132.89 77.3398 Q131.084 80.8814 131.084 88.011 Q131.084 95.1174 132.89 98.6822 Q134.719 102.224 138.33 102.224 Q141.964 102.224 143.769 98.6822 Q145.598 95.1174 145.598 88.011 Q145.598 80.8814 143.769 77.3398 Q141.964 73.775 138.33 73.775 M138.33 70.0713 Q144.14 70.0713 147.195 74.6777 Q150.274 79.261 150.274 88.011 Q150.274 96.7378 147.195 101.344 Q144.14 105.928 138.33 105.928 Q132.519 105.928 129.441 101.344 Q126.385 96.7378 126.385 88.011 Q126.385 79.261 129.441 74.6777 Q132.519 70.0713 138.33 70.0713 Z" fill="#000000" fill-rule="evenodd" fill-opacity="1" /><polyline clip-path="url(#clip342)" style="stroke:#009af9; stroke-linecap:butt; stroke-linejoin:round; stroke-width:12; stroke-opacity:1; fill:none" points="
  272.075,1445.72 357.877,1445.72 443.678,1445.72 529.479,1445.72 615.28,1445.72 701.082,1445.72 786.883,87.9763 872.684,87.9763 958.485,87.9763 1044.29,1445.72 
  1130.09,1445.72 1215.89,1445.72 1301.69,1445.72 1387.49,1445.72 1473.29,1445.72 1559.09,1445.72 1644.9,1445.72 1730.7,1445.72 1816.5,1445.72 1902.3,1445.72 
  1988.1,1445.72 2073.9,1445.72 2159.7,1445.72 2245.5,1445.72 2331.31,1445.72 2417.11,1445.72 2502.91,1445.72 2588.71,1445.72 2674.51,1445.72 2760.31,1445.72 
  2846.11,1445.72 2931.91,1445.72 3017.72,1445.72 3103.52,1445.72 3189.32,1445.72 3275.12,1445.72 3360.92,1445.72 3446.72,1445.72 3532.52,1445.72 3618.32,1445.72 
  3704.13,1445.72 3789.93,1445.72 3875.73,1445.72 3961.53,1445.72 4047.33,1445.72 4133.13,1445.72 4218.93,1445.72 4304.73,1445.72 4390.54,1445.72 4476.34,1445.72 
  4562.14,1445.72 4647.94,1445.72 4733.74,1445.72 4819.54,1445.72 4905.34,1445.72 4991.14,1445.72 5076.95,1445.72 5162.75,1445.72 5248.55,1445.72 5334.35,1445.72 
  5420.15,1445.72 5505.95,1445.72 5591.75,1445.72 5677.55,1445.72 5763.36,1445.72 5849.16,1445.72 5934.96,1445.72 6020.76,1445.72 6106.56,1445.72 6192.36,1445.72 
  6278.16,1445.72 6363.96,1445.72 6449.77,1445.72 6535.57,1445.72 6621.37,1445.72 6707.17,1445.72 6792.97,1445.72 6878.77,1445.72 6964.57,1445.72 7050.38,1445.72 
  7136.18,1445.72 7221.98,1445.72 7307.78,1445.72 7393.58,1445.72 7479.38,1445.72 7565.18,1445.72 7650.98,1445.72 7736.79,1445.72 7822.59,1445.72 7908.39,1445.72 
  7994.19,1445.72 8079.99,1445.72 8165.79,1445.72 8251.59,1445.72 8337.39,1445.72 8423.2,1445.72 8509,1445.72 8594.8,1445.72 8680.6,1445.72 8766.4,1445.72 
  
  "/>
<line clip-path="url(#clip342)" x1="272.075" y1="1445.72" x2="272.075" y2="1429.72" style="stroke:#009af9; stroke-width:3.2; stroke-opacity:1"/>
<line clip-path="url(#clip342)" x1="272.075" y1="1445.72" x2="256.075" y2="1445.72" style="stroke:#009af9; stroke-width:3.2; stroke-opacity:1"/>
<line clip-path="url(#clip342)" x1="272.075" y1="1445.72" x2="272.075" y2="1461.72" style="stroke:#009af9; stroke-width:3.2; stroke-opacity:1"/>
<line clip-path="url(#clip342)" x1="272.075" y1="1445.72" x2="288.075" y2="1445.72" style="stroke:#009af9; stroke-width:3.2; stroke-opacity:1"/>
<line clip-path="url(#clip342)" x1="357.877" y1="1445.72" x2="357.877" y2="1429.72" style="stroke:#009af9; stroke-width:3.2; stroke-opacity:1"/>
<line clip-path="url(#clip342)" x1="357.877" y1="1445.72" x2="341.877" y2="1445.72" style="stroke:#009af9; stroke-width:3.2; stroke-opacity:1"/>
<line clip-path="url(#clip342)" x1="357.877" y1="1445.72" x2="357.877" y2="1461.72" style="stroke:#009af9; stroke-width:3.2; stroke-opacity:1"/>
<line clip-path="url(#clip342)" x1="357.877" y1="1445.72" x2="373.877" y2="1445.72" style="stroke:#009af9; stroke-width:3.2; stroke-opacity:1"/>
<line clip-path="url(#clip342)" x1="443.678" y1="1445.72" x2="443.678" y2="1429.72" style="stroke:#009af9; stroke-width:3.2; stroke-opacity:1"/>
<line clip-path="url(#clip342)" x1="443.678" y1="1445.72" x2="427.678" y2="1445.72" style="stroke:#009af9; stroke-width:3.2; stroke-opacity:1"/>
<line clip-path="url(#clip342)" x1="443.678" y1="1445.72" x2="443.678" y2="1461.72" style="stroke:#009af9; stroke-width:3.2; stroke-opacity:1"/>
<line clip-path="url(#clip342)" x1="443.678" y1="1445.72" x2="459.678" y2="1445.72" style="stroke:#009af9; stroke-width:3.2; stroke-opacity:1"/>
<line clip-path="url(#clip342)" x1="529.479" y1="1445.72" x2="529.479" y2="1429.72" style="stroke:#009af9; stroke-width:3.2; stroke-opacity:1"/>
<line clip-path="url(#clip342)" x1="529.479" y1="1445.72" x2="513.479" y2="1445.72" style="stroke:#009af9; stroke-width:3.2; stroke-opacity:1"/>
<line clip-path="url(#clip342)" x1="529.479" y1="1445.72" x2="529.479" y2="1461.72" style="stroke:#009af9; stroke-width:3.2; stroke-opacity:1"/>
<line clip-path="url(#clip342)" x1="529.479" y1="1445.72" x2="545.479" y2="1445.72" style="stroke:#009af9; stroke-width:3.2; stroke-opacity:1"/>
<line clip-path="url(#clip342)" x1="615.28" y1="1445.72" x2="615.28" y2="1429.72" style="stroke:#009af9; stroke-width:3.2; stroke-opacity:1"/>
<line clip-path="url(#clip342)" x1="615.28" y1="1445.72" x2="599.28" y2="1445.72" style="stroke:#009af9; stroke-width:3.2; stroke-opacity:1"/>
<line clip-path="url(#clip342)" x1="615.28" y1="1445.72" x2="615.28" y2="1461.72" style="stroke:#009af9; stroke-width:3.2; stroke-opacity:1"/>
<line clip-path="url(#clip342)" x1="615.28" y1="1445.72" x2="631.28" y2="1445.72" style="stroke:#009af9; stroke-width:3.2; stroke-opacity:1"/>
<line clip-path="url(#clip342)" x1="701.082" y1="1445.72" x2="701.082" y2="1429.72" style="stroke:#009af9; stroke-width:3.2; stroke-opacity:1"/>
<line clip-path="url(#clip342)" x1="701.082" y1="1445.72" x2="685.082" y2="1445.72" style="stroke:#009af9; stroke-width:3.2; stroke-opacity:1"/>
<line clip-path="url(#clip342)" x1="701.082" y1="1445.72" x2="701.082" y2="1461.72" style="stroke:#009af9; stroke-width:3.2; stroke-opacity:1"/>
<line clip-path="url(#clip342)" x1="701.082" y1="1445.72" x2="717.082" y2="1445.72" style="stroke:#009af9; stroke-width:3.2; stroke-opacity:1"/>
<line clip-path="url(#clip342)" x1="786.883" y1="87.9763" x2="786.883" y2="71.9763" style="stroke:#009af9; stroke-width:3.2; stroke-opacity:1"/>
<line clip-path="url(#clip342)" x1="786.883" y1="87.9763" x2="770.883" y2="87.9763" style="stroke:#009af9; stroke-width:3.2; stroke-opacity:1"/>
<line clip-path="url(#clip342)" x1="786.883" y1="87.9763" x2="786.883" y2="103.976" style="stroke:#009af9; stroke-width:3.2; stroke-opacity:1"/>
<line clip-path="url(#clip342)" x1="786.883" y1="87.9763" x2="802.883" y2="87.9763" style="stroke:#009af9; stroke-width:3.2; stroke-opacity:1"/>
<line clip-path="url(#clip342)" x1="872.684" y1="87.9763" x2="872.684" y2="71.9763" style="stroke:#009af9; stroke-width:3.2; stroke-opacity:1"/>
<line clip-path="url(#clip342)" x1="872.684" y1="87.9763" x2="856.684" y2="87.9763" style="stroke:#009af9; stroke-width:3.2; stroke-opacity:1"/>
<line clip-path="url(#clip342)" x1="872.684" y1="87.9763" x2="872.684" y2="103.976" style="stroke:#009af9; stroke-width:3.2; stroke-opacity:1"/>
<line clip-path="url(#clip342)" x1="872.684" y1="87.9763" x2="888.684" y2="87.9763" style="stroke:#009af9; stroke-width:3.2; stroke-opacity:1"/>
<line clip-path="url(#clip342)" x1="958.485" y1="87.9763" x2="958.485" y2="71.9763" style="stroke:#009af9; stroke-width:3.2; stroke-opacity:1"/>
<line clip-path="url(#clip342)" x1="958.485" y1="87.9763" x2="942.485" y2="87.9763" style="stroke:#009af9; stroke-width:3.2; stroke-opacity:1"/>
<line clip-path="url(#clip342)" x1="958.485" y1="87.9763" x2="958.485" y2="103.976" style="stroke:#009af9; stroke-width:3.2; stroke-opacity:1"/>
<line clip-path="url(#clip342)" x1="958.485" y1="87.9763" x2="974.485" y2="87.9763" style="stroke:#009af9; stroke-width:3.2; stroke-opacity:1"/>
<line clip-path="url(#clip342)" x1="1044.29" y1="1445.72" x2="1044.29" y2="1429.72" style="stroke:#009af9; stroke-width:3.2; stroke-opacity:1"/>
<line clip-path="url(#clip342)" x1="1044.29" y1="1445.72" x2="1028.29" y2="1445.72" style="stroke:#009af9; stroke-width:3.2; stroke-opacity:1"/>
<line clip-path="url(#clip342)" x1="1044.29" y1="1445.72" x2="1044.29" y2="1461.72" style="stroke:#009af9; stroke-width:3.2; stroke-opacity:1"/>
<line clip-path="url(#clip342)" x1="1044.29" y1="1445.72" x2="1060.29" y2="1445.72" style="stroke:#009af9; stroke-width:3.2; stroke-opacity:1"/>
<line clip-path="url(#clip342)" x1="1130.09" y1="1445.72" x2="1130.09" y2="1429.72" style="stroke:#009af9; stroke-width:3.2; stroke-opacity:1"/>
<line clip-path="url(#clip342)" x1="1130.09" y1="1445.72" x2="1114.09" y2="1445.72" style="stroke:#009af9; stroke-width:3.2; stroke-opacity:1"/>
<line clip-path="url(#clip342)" x1="1130.09" y1="1445.72" x2="1130.09" y2="1461.72" style="stroke:#009af9; stroke-width:3.2; stroke-opacity:1"/>
<line clip-path="url(#clip342)" x1="1130.09" y1="1445.72" x2="1146.09" y2="1445.72" style="stroke:#009af9; stroke-width:3.2; stroke-opacity:1"/>
<line clip-path="url(#clip342)" x1="1215.89" y1="1445.72" x2="1215.89" y2="1429.72" style="stroke:#009af9; stroke-width:3.2; stroke-opacity:1"/>
<line clip-path="url(#clip342)" x1="1215.89" y1="1445.72" x2="1199.89" y2="1445.72" style="stroke:#009af9; stroke-width:3.2; stroke-opacity:1"/>
<line clip-path="url(#clip342)" x1="1215.89" y1="1445.72" x2="1215.89" y2="1461.72" style="stroke:#009af9; stroke-width:3.2; stroke-opacity:1"/>
<line clip-path="url(#clip342)" x1="1215.89" y1="1445.72" x2="1231.89" y2="1445.72" style="stroke:#009af9; stroke-width:3.2; stroke-opacity:1"/>
<line clip-path="url(#clip342)" x1="1301.69" y1="1445.72" x2="1301.69" y2="1429.72" style="stroke:#009af9; stroke-width:3.2; stroke-opacity:1"/>
<line clip-path="url(#clip342)" x1="1301.69" y1="1445.72" x2="1285.69" y2="1445.72" style="stroke:#009af9; stroke-width:3.2; stroke-opacity:1"/>
<line clip-path="url(#clip342)" x1="1301.69" y1="1445.72" x2="1301.69" y2="1461.72" style="stroke:#009af9; stroke-width:3.2; stroke-opacity:1"/>
<line clip-path="url(#clip342)" x1="1301.69" y1="1445.72" x2="1317.69" y2="1445.72" style="stroke:#009af9; stroke-width:3.2; stroke-opacity:1"/>
<line clip-path="url(#clip342)" x1="1387.49" y1="1445.72" x2="1387.49" y2="1429.72" style="stroke:#009af9; stroke-width:3.2; stroke-opacity:1"/>
<line clip-path="url(#clip342)" x1="1387.49" y1="1445.72" x2="1371.49" y2="1445.72" style="stroke:#009af9; stroke-width:3.2; stroke-opacity:1"/>
<line clip-path="url(#clip342)" x1="1387.49" y1="1445.72" x2="1387.49" y2="1461.72" style="stroke:#009af9; stroke-width:3.2; stroke-opacity:1"/>
<line clip-path="url(#clip342)" x1="1387.49" y1="1445.72" x2="1403.49" y2="1445.72" style="stroke:#009af9; stroke-width:3.2; stroke-opacity:1"/>
<line clip-path="url(#clip342)" x1="1473.29" y1="1445.72" x2="1473.29" y2="1429.72" style="stroke:#009af9; stroke-width:3.2; stroke-opacity:1"/>
<line clip-path="url(#clip342)" x1="1473.29" y1="1445.72" x2="1457.29" y2="1445.72" style="stroke:#009af9; stroke-width:3.2; stroke-opacity:1"/>
<line clip-path="url(#clip342)" x1="1473.29" y1="1445.72" x2="1473.29" y2="1461.72" style="stroke:#009af9; stroke-width:3.2; stroke-opacity:1"/>
<line clip-path="url(#clip342)" x1="1473.29" y1="1445.72" x2="1489.29" y2="1445.72" style="stroke:#009af9; stroke-width:3.2; stroke-opacity:1"/>
<line clip-path="url(#clip342)" x1="1559.09" y1="1445.72" x2="1559.09" y2="1429.72" style="stroke:#009af9; stroke-width:3.2; stroke-opacity:1"/>
<line clip-path="url(#clip342)" x1="1559.09" y1="1445.72" x2="1543.09" y2="1445.72" style="stroke:#009af9; stroke-width:3.2; stroke-opacity:1"/>
<line clip-path="url(#clip342)" x1="1559.09" y1="1445.72" x2="1559.09" y2="1461.72" style="stroke:#009af9; stroke-width:3.2; stroke-opacity:1"/>
<line clip-path="url(#clip342)" x1="1559.09" y1="1445.72" x2="1575.09" y2="1445.72" style="stroke:#009af9; stroke-width:3.2; stroke-opacity:1"/>
<line clip-path="url(#clip342)" x1="1644.9" y1="1445.72" x2="1644.9" y2="1429.72" style="stroke:#009af9; stroke-width:3.2; stroke-opacity:1"/>
<line clip-path="url(#clip342)" x1="1644.9" y1="1445.72" x2="1628.9" y2="1445.72" style="stroke:#009af9; stroke-width:3.2; stroke-opacity:1"/>
<line clip-path="url(#clip342)" x1="1644.9" y1="1445.72" x2="1644.9" y2="1461.72" style="stroke:#009af9; stroke-width:3.2; stroke-opacity:1"/>
<line clip-path="url(#clip342)" x1="1644.9" y1="1445.72" x2="1660.9" y2="1445.72" style="stroke:#009af9; stroke-width:3.2; stroke-opacity:1"/>
<line clip-path="url(#clip342)" x1="1730.7" y1="1445.72" x2="1730.7" y2="1429.72" style="stroke:#009af9; stroke-width:3.2; stroke-opacity:1"/>
<line clip-path="url(#clip342)" x1="1730.7" y1="1445.72" x2="1714.7" y2="1445.72" style="stroke:#009af9; stroke-width:3.2; stroke-opacity:1"/>
<line clip-path="url(#clip342)" x1="1730.7" y1="1445.72" x2="1730.7" y2="1461.72" style="stroke:#009af9; stroke-width:3.2; stroke-opacity:1"/>
<line clip-path="url(#clip342)" x1="1730.7" y1="1445.72" x2="1746.7" y2="1445.72" style="stroke:#009af9; stroke-width:3.2; stroke-opacity:1"/>
<line clip-path="url(#clip342)" x1="1816.5" y1="1445.72" x2="1816.5" y2="1429.72" style="stroke:#009af9; stroke-width:3.2; stroke-opacity:1"/>
<line clip-path="url(#clip342)" x1="1816.5" y1="1445.72" x2="1800.5" y2="1445.72" style="stroke:#009af9; stroke-width:3.2; stroke-opacity:1"/>
<line clip-path="url(#clip342)" x1="1816.5" y1="1445.72" x2="1816.5" y2="1461.72" style="stroke:#009af9; stroke-width:3.2; stroke-opacity:1"/>
<line clip-path="url(#clip342)" x1="1816.5" y1="1445.72" x2="1832.5" y2="1445.72" style="stroke:#009af9; stroke-width:3.2; stroke-opacity:1"/>
<line clip-path="url(#clip342)" x1="1902.3" y1="1445.72" x2="1902.3" y2="1429.72" style="stroke:#009af9; stroke-width:3.2; stroke-opacity:1"/>
<line clip-path="url(#clip342)" x1="1902.3" y1="1445.72" x2="1886.3" y2="1445.72" style="stroke:#009af9; stroke-width:3.2; stroke-opacity:1"/>
<line clip-path="url(#clip342)" x1="1902.3" y1="1445.72" x2="1902.3" y2="1461.72" style="stroke:#009af9; stroke-width:3.2; stroke-opacity:1"/>
<line clip-path="url(#clip342)" x1="1902.3" y1="1445.72" x2="1918.3" y2="1445.72" style="stroke:#009af9; stroke-width:3.2; stroke-opacity:1"/>
<line clip-path="url(#clip342)" x1="1988.1" y1="1445.72" x2="1988.1" y2="1429.72" style="stroke:#009af9; stroke-width:3.2; stroke-opacity:1"/>
<line clip-path="url(#clip342)" x1="1988.1" y1="1445.72" x2="1972.1" y2="1445.72" style="stroke:#009af9; stroke-width:3.2; stroke-opacity:1"/>
<line clip-path="url(#clip342)" x1="1988.1" y1="1445.72" x2="1988.1" y2="1461.72" style="stroke:#009af9; stroke-width:3.2; stroke-opacity:1"/>
<line clip-path="url(#clip342)" x1="1988.1" y1="1445.72" x2="2004.1" y2="1445.72" style="stroke:#009af9; stroke-width:3.2; stroke-opacity:1"/>
<line clip-path="url(#clip342)" x1="2073.9" y1="1445.72" x2="2073.9" y2="1429.72" style="stroke:#009af9; stroke-width:3.2; stroke-opacity:1"/>
<line clip-path="url(#clip342)" x1="2073.9" y1="1445.72" x2="2057.9" y2="1445.72" style="stroke:#009af9; stroke-width:3.2; stroke-opacity:1"/>
<line clip-path="url(#clip342)" x1="2073.9" y1="1445.72" x2="2073.9" y2="1461.72" style="stroke:#009af9; stroke-width:3.2; stroke-opacity:1"/>
<line clip-path="url(#clip342)" x1="2073.9" y1="1445.72" x2="2089.9" y2="1445.72" style="stroke:#009af9; stroke-width:3.2; stroke-opacity:1"/>
<line clip-path="url(#clip342)" x1="2159.7" y1="1445.72" x2="2159.7" y2="1429.72" style="stroke:#009af9; stroke-width:3.2; stroke-opacity:1"/>
<line clip-path="url(#clip342)" x1="2159.7" y1="1445.72" x2="2143.7" y2="1445.72" style="stroke:#009af9; stroke-width:3.2; stroke-opacity:1"/>
<line clip-path="url(#clip342)" x1="2159.7" y1="1445.72" x2="2159.7" y2="1461.72" style="stroke:#009af9; stroke-width:3.2; stroke-opacity:1"/>
<line clip-path="url(#clip342)" x1="2159.7" y1="1445.72" x2="2175.7" y2="1445.72" style="stroke:#009af9; stroke-width:3.2; stroke-opacity:1"/>
<line clip-path="url(#clip342)" x1="2245.5" y1="1445.72" x2="2245.5" y2="1429.72" style="stroke:#009af9; stroke-width:3.2; stroke-opacity:1"/>
<line clip-path="url(#clip342)" x1="2245.5" y1="1445.72" x2="2229.5" y2="1445.72" style="stroke:#009af9; stroke-width:3.2; stroke-opacity:1"/>
<line clip-path="url(#clip342)" x1="2245.5" y1="1445.72" x2="2245.5" y2="1461.72" style="stroke:#009af9; stroke-width:3.2; stroke-opacity:1"/>
<line clip-path="url(#clip342)" x1="2245.5" y1="1445.72" x2="2261.5" y2="1445.72" style="stroke:#009af9; stroke-width:3.2; stroke-opacity:1"/>
<line clip-path="url(#clip342)" x1="2331.31" y1="1445.72" x2="2331.31" y2="1429.72" style="stroke:#009af9; stroke-width:3.2; stroke-opacity:1"/>
<line clip-path="url(#clip342)" x1="2331.31" y1="1445.72" x2="2315.31" y2="1445.72" style="stroke:#009af9; stroke-width:3.2; stroke-opacity:1"/>
<line clip-path="url(#clip342)" x1="2331.31" y1="1445.72" x2="2331.31" y2="1461.72" style="stroke:#009af9; stroke-width:3.2; stroke-opacity:1"/>
<line clip-path="url(#clip342)" x1="2331.31" y1="1445.72" x2="2347.31" y2="1445.72" style="stroke:#009af9; stroke-width:3.2; stroke-opacity:1"/>
<polyline clip-path="url(#clip342)" style="stroke:#e26f46; stroke-linecap:butt; stroke-linejoin:round; stroke-width:12; stroke-opacity:1; fill:none" points="
  272.075,1445.72 357.877,1445.72 443.678,1445.72 529.479,1445.72 615.28,1445.72 701.082,1445.72 786.883,1445.72 872.684,1445.72 958.485,1445.72 1044.29,87.9763 
  1130.09,87.9763 1215.89,87.9763 1301.69,1445.72 1387.49,1445.72 1473.29,1445.72 1559.09,1445.72 1644.9,1445.72 1730.7,1445.72 1816.5,1445.72 1902.3,1445.72 
  1988.1,1445.72 2073.9,1445.72 2159.7,1445.72 2245.5,1445.72 2331.31,1445.72 2417.11,1445.72 2502.91,1445.72 2588.71,1445.72 2674.51,1445.72 2760.31,1445.72 
  2846.11,1445.72 2931.91,1445.72 3017.72,1445.72 3103.52,1445.72 3189.32,1445.72 3275.12,1445.72 3360.92,1445.72 3446.72,1445.72 3532.52,1445.72 3618.32,1445.72 
  3704.13,1445.72 3789.93,1445.72 3875.73,1445.72 3961.53,1445.72 4047.33,1445.72 4133.13,1445.72 4218.93,1445.72 4304.73,1445.72 4390.54,1445.72 4476.34,1445.72 
  4562.14,1445.72 4647.94,1445.72 4733.74,1445.72 4819.54,1445.72 4905.34,1445.72 4991.14,1445.72 5076.95,1445.72 5162.75,1445.72 5248.55,1445.72 5334.35,1445.72 
  5420.15,1445.72 5505.95,1445.72 5591.75,1445.72 5677.55,1445.72 5763.36,1445.72 5849.16,1445.72 5934.96,1445.72 6020.76,1445.72 6106.56,1445.72 6192.36,1445.72 
  6278.16,1445.72 6363.96,1445.72 6449.77,1445.72 6535.57,1445.72 6621.37,1445.72 6707.17,1445.72 6792.97,1445.72 6878.77,1445.72 6964.57,1445.72 7050.38,1445.72 
  7136.18,1445.72 7221.98,1445.72 7307.78,1445.72 7393.58,1445.72 7479.38,1445.72 7565.18,1445.72 7650.98,1445.72 7736.79,1445.72 7822.59,1445.72 7908.39,1445.72 
  7994.19,1445.72 8079.99,1445.72 8165.79,1445.72 8251.59,1445.72 8337.39,1445.72 8423.2,1445.72 8509,1445.72 8594.8,1445.72 8680.6,1445.72 8766.4,1445.72 
  
  "/>
<circle clip-path="url(#clip342)" cx="272.075" cy="1445.72" r="14.4" fill="#e26f46" fill-rule="evenodd" fill-opacity="1" stroke="#000000" stroke-opacity="1" stroke-width="3.2"/>
<circle clip-path="url(#clip342)" cx="357.877" cy="1445.72" r="14.4" fill="#e26f46" fill-rule="evenodd" fill-opacity="1" stroke="#000000" stroke-opacity="1" stroke-width="3.2"/>
<circle clip-path="url(#clip342)" cx="443.678" cy="1445.72" r="14.4" fill="#e26f46" fill-rule="evenodd" fill-opacity="1" stroke="#000000" stroke-opacity="1" stroke-width="3.2"/>
<circle clip-path="url(#clip342)" cx="529.479" cy="1445.72" r="14.4" fill="#e26f46" fill-rule="evenodd" fill-opacity="1" stroke="#000000" stroke-opacity="1" stroke-width="3.2"/>
<circle clip-path="url(#clip342)" cx="615.28" cy="1445.72" r="14.4" fill="#e26f46" fill-rule="evenodd" fill-opacity="1" stroke="#000000" stroke-opacity="1" stroke-width="3.2"/>
<circle clip-path="url(#clip342)" cx="701.082" cy="1445.72" r="14.4" fill="#e26f46" fill-rule="evenodd" fill-opacity="1" stroke="#000000" stroke-opacity="1" stroke-width="3.2"/>
<circle clip-path="url(#clip342)" cx="786.883" cy="1445.72" r="14.4" fill="#e26f46" fill-rule="evenodd" fill-opacity="1" stroke="#000000" stroke-opacity="1" stroke-width="3.2"/>
<circle clip-path="url(#clip342)" cx="872.684" cy="1445.72" r="14.4" fill="#e26f46" fill-rule="evenodd" fill-opacity="1" stroke="#000000" stroke-opacity="1" stroke-width="3.2"/>
<circle clip-path="url(#clip342)" cx="958.485" cy="1445.72" r="14.4" fill="#e26f46" fill-rule="evenodd" fill-opacity="1" stroke="#000000" stroke-opacity="1" stroke-width="3.2"/>
<circle clip-path="url(#clip342)" cx="1044.29" cy="87.9763" r="14.4" fill="#e26f46" fill-rule="evenodd" fill-opacity="1" stroke="#000000" stroke-opacity="1" stroke-width="3.2"/>
<circle clip-path="url(#clip342)" cx="1130.09" cy="87.9763" r="14.4" fill="#e26f46" fill-rule="evenodd" fill-opacity="1" stroke="#000000" stroke-opacity="1" stroke-width="3.2"/>
<circle clip-path="url(#clip342)" cx="1215.89" cy="87.9763" r="14.4" fill="#e26f46" fill-rule="evenodd" fill-opacity="1" stroke="#000000" stroke-opacity="1" stroke-width="3.2"/>
<circle clip-path="url(#clip342)" cx="1301.69" cy="1445.72" r="14.4" fill="#e26f46" fill-rule="evenodd" fill-opacity="1" stroke="#000000" stroke-opacity="1" stroke-width="3.2"/>
<circle clip-path="url(#clip342)" cx="1387.49" cy="1445.72" r="14.4" fill="#e26f46" fill-rule="evenodd" fill-opacity="1" stroke="#000000" stroke-opacity="1" stroke-width="3.2"/>
<circle clip-path="url(#clip342)" cx="1473.29" cy="1445.72" r="14.4" fill="#e26f46" fill-rule="evenodd" fill-opacity="1" stroke="#000000" stroke-opacity="1" stroke-width="3.2"/>
<circle clip-path="url(#clip342)" cx="1559.09" cy="1445.72" r="14.4" fill="#e26f46" fill-rule="evenodd" fill-opacity="1" stroke="#000000" stroke-opacity="1" stroke-width="3.2"/>
<circle clip-path="url(#clip342)" cx="1644.9" cy="1445.72" r="14.4" fill="#e26f46" fill-rule="evenodd" fill-opacity="1" stroke="#000000" stroke-opacity="1" stroke-width="3.2"/>
<circle clip-path="url(#clip342)" cx="1730.7" cy="1445.72" r="14.4" fill="#e26f46" fill-rule="evenodd" fill-opacity="1" stroke="#000000" stroke-opacity="1" stroke-width="3.2"/>
<circle clip-path="url(#clip342)" cx="1816.5" cy="1445.72" r="14.4" fill="#e26f46" fill-rule="evenodd" fill-opacity="1" stroke="#000000" stroke-opacity="1" stroke-width="3.2"/>
<circle clip-path="url(#clip342)" cx="1902.3" cy="1445.72" r="14.4" fill="#e26f46" fill-rule="evenodd" fill-opacity="1" stroke="#000000" stroke-opacity="1" stroke-width="3.2"/>
<circle clip-path="url(#clip342)" cx="1988.1" cy="1445.72" r="14.4" fill="#e26f46" fill-rule="evenodd" fill-opacity="1" stroke="#000000" stroke-opacity="1" stroke-width="3.2"/>
<circle clip-path="url(#clip342)" cx="2073.9" cy="1445.72" r="14.4" fill="#e26f46" fill-rule="evenodd" fill-opacity="1" stroke="#000000" stroke-opacity="1" stroke-width="3.2"/>
<circle clip-path="url(#clip342)" cx="2159.7" cy="1445.72" r="14.4" fill="#e26f46" fill-rule="evenodd" fill-opacity="1" stroke="#000000" stroke-opacity="1" stroke-width="3.2"/>
<circle clip-path="url(#clip342)" cx="2245.5" cy="1445.72" r="14.4" fill="#e26f46" fill-rule="evenodd" fill-opacity="1" stroke="#000000" stroke-opacity="1" stroke-width="3.2"/>
<circle clip-path="url(#clip342)" cx="2331.31" cy="1445.72" r="14.4" fill="#e26f46" fill-rule="evenodd" fill-opacity="1" stroke="#000000" stroke-opacity="1" stroke-width="3.2"/>
<polyline clip-path="url(#clip342)" style="stroke:#3da44d; stroke-linecap:butt; stroke-linejoin:round; stroke-width:12; stroke-opacity:1; fill:none" points="
  272.075,1445.72 357.877,1445.72 443.678,1445.72 529.479,1445.72 615.28,1445.72 701.082,1445.72 786.883,1445.72 872.684,1445.72 958.485,1445.72 1044.29,1445.72 
  1130.09,1445.72 1215.89,1445.72 1301.69,87.9763 1387.49,87.9763 1473.29,87.9763 1559.09,1445.72 1644.9,1445.72 1730.7,1445.72 1816.5,1445.72 1902.3,1445.72 
  1988.1,1445.72 2073.9,1445.72 2159.7,1445.72 2245.5,1445.72 2331.31,1445.72 2417.11,1445.72 2502.91,1445.72 2588.71,1445.72 2674.51,1445.72 2760.31,1445.72 
  2846.11,1445.72 2931.91,1445.72 3017.72,1445.72 3103.52,1445.72 3189.32,1445.72 3275.12,1445.72 3360.92,1445.72 3446.72,1445.72 3532.52,1445.72 3618.32,1445.72 
  3704.13,1445.72 3789.93,1445.72 3875.73,1445.72 3961.53,1445.72 4047.33,1445.72 4133.13,1445.72 4218.93,1445.72 4304.73,1445.72 4390.54,1445.72 4476.34,1445.72 
  4562.14,1445.72 4647.94,1445.72 4733.74,1445.72 4819.54,1445.72 4905.34,1445.72 4991.14,1445.72 5076.95,1445.72 5162.75,1445.72 5248.55,1445.72 5334.35,1445.72 
  5420.15,1445.72 5505.95,1445.72 5591.75,1445.72 5677.55,1445.72 5763.36,1445.72 5849.16,1445.72 5934.96,1445.72 6020.76,1445.72 6106.56,1445.72 6192.36,1445.72 
  6278.16,1445.72 6363.96,1445.72 6449.77,1445.72 6535.57,1445.72 6621.37,1445.72 6707.17,1445.72 6792.97,1445.72 6878.77,1445.72 6964.57,1445.72 7050.38,1445.72 
  7136.18,1445.72 7221.98,1445.72 7307.78,1445.72 7393.58,1445.72 7479.38,1445.72 7565.18,1445.72 7650.98,1445.72 7736.79,1445.72 7822.59,1445.72 7908.39,1445.72 
  7994.19,1445.72 8079.99,1445.72 8165.79,1445.72 8251.59,1445.72 8337.39,1445.72 8423.2,1445.72 8509,1445.72 8594.8,1445.72 8680.6,1445.72 8766.4,1445.72 
  
  "/>
<line clip-path="url(#clip342)" x1="272.075" y1="1445.72" x2="272.075" y2="1429.72" style="stroke:#3da44d; stroke-width:3.2; stroke-opacity:1"/>
<line clip-path="url(#clip342)" x1="272.075" y1="1445.72" x2="256.075" y2="1445.72" style="stroke:#3da44d; stroke-width:3.2; stroke-opacity:1"/>
<line clip-path="url(#clip342)" x1="272.075" y1="1445.72" x2="272.075" y2="1461.72" style="stroke:#3da44d; stroke-width:3.2; stroke-opacity:1"/>
<line clip-path="url(#clip342)" x1="272.075" y1="1445.72" x2="288.075" y2="1445.72" style="stroke:#3da44d; stroke-width:3.2; stroke-opacity:1"/>
<line clip-path="url(#clip342)" x1="357.877" y1="1445.72" x2="357.877" y2="1429.72" style="stroke:#3da44d; stroke-width:3.2; stroke-opacity:1"/>
<line clip-path="url(#clip342)" x1="357.877" y1="1445.72" x2="341.877" y2="1445.72" style="stroke:#3da44d; stroke-width:3.2; stroke-opacity:1"/>
<line clip-path="url(#clip342)" x1="357.877" y1="1445.72" x2="357.877" y2="1461.72" style="stroke:#3da44d; stroke-width:3.2; stroke-opacity:1"/>
<line clip-path="url(#clip342)" x1="357.877" y1="1445.72" x2="373.877" y2="1445.72" style="stroke:#3da44d; stroke-width:3.2; stroke-opacity:1"/>
<line clip-path="url(#clip342)" x1="443.678" y1="1445.72" x2="443.678" y2="1429.72" style="stroke:#3da44d; stroke-width:3.2; stroke-opacity:1"/>
<line clip-path="url(#clip342)" x1="443.678" y1="1445.72" x2="427.678" y2="1445.72" style="stroke:#3da44d; stroke-width:3.2; stroke-opacity:1"/>
<line clip-path="url(#clip342)" x1="443.678" y1="1445.72" x2="443.678" y2="1461.72" style="stroke:#3da44d; stroke-width:3.2; stroke-opacity:1"/>
<line clip-path="url(#clip342)" x1="443.678" y1="1445.72" x2="459.678" y2="1445.72" style="stroke:#3da44d; stroke-width:3.2; stroke-opacity:1"/>
<line clip-path="url(#clip342)" x1="529.479" y1="1445.72" x2="529.479" y2="1429.72" style="stroke:#3da44d; stroke-width:3.2; stroke-opacity:1"/>
<line clip-path="url(#clip342)" x1="529.479" y1="1445.72" x2="513.479" y2="1445.72" style="stroke:#3da44d; stroke-width:3.2; stroke-opacity:1"/>
<line clip-path="url(#clip342)" x1="529.479" y1="1445.72" x2="529.479" y2="1461.72" style="stroke:#3da44d; stroke-width:3.2; stroke-opacity:1"/>
<line clip-path="url(#clip342)" x1="529.479" y1="1445.72" x2="545.479" y2="1445.72" style="stroke:#3da44d; stroke-width:3.2; stroke-opacity:1"/>
<line clip-path="url(#clip342)" x1="615.28" y1="1445.72" x2="615.28" y2="1429.72" style="stroke:#3da44d; stroke-width:3.2; stroke-opacity:1"/>
<line clip-path="url(#clip342)" x1="615.28" y1="1445.72" x2="599.28" y2="1445.72" style="stroke:#3da44d; stroke-width:3.2; stroke-opacity:1"/>
<line clip-path="url(#clip342)" x1="615.28" y1="1445.72" x2="615.28" y2="1461.72" style="stroke:#3da44d; stroke-width:3.2; stroke-opacity:1"/>
<line clip-path="url(#clip342)" x1="615.28" y1="1445.72" x2="631.28" y2="1445.72" style="stroke:#3da44d; stroke-width:3.2; stroke-opacity:1"/>
<line clip-path="url(#clip342)" x1="701.082" y1="1445.72" x2="701.082" y2="1429.72" style="stroke:#3da44d; stroke-width:3.2; stroke-opacity:1"/>
<line clip-path="url(#clip342)" x1="701.082" y1="1445.72" x2="685.082" y2="1445.72" style="stroke:#3da44d; stroke-width:3.2; stroke-opacity:1"/>
<line clip-path="url(#clip342)" x1="701.082" y1="1445.72" x2="701.082" y2="1461.72" style="stroke:#3da44d; stroke-width:3.2; stroke-opacity:1"/>
<line clip-path="url(#clip342)" x1="701.082" y1="1445.72" x2="717.082" y2="1445.72" style="stroke:#3da44d; stroke-width:3.2; stroke-opacity:1"/>
<line clip-path="url(#clip342)" x1="786.883" y1="1445.72" x2="786.883" y2="1429.72" style="stroke:#3da44d; stroke-width:3.2; stroke-opacity:1"/>
<line clip-path="url(#clip342)" x1="786.883" y1="1445.72" x2="770.883" y2="1445.72" style="stroke:#3da44d; stroke-width:3.2; stroke-opacity:1"/>
<line clip-path="url(#clip342)" x1="786.883" y1="1445.72" x2="786.883" y2="1461.72" style="stroke:#3da44d; stroke-width:3.2; stroke-opacity:1"/>
<line clip-path="url(#clip342)" x1="786.883" y1="1445.72" x2="802.883" y2="1445.72" style="stroke:#3da44d; stroke-width:3.2; stroke-opacity:1"/>
<line clip-path="url(#clip342)" x1="872.684" y1="1445.72" x2="872.684" y2="1429.72" style="stroke:#3da44d; stroke-width:3.2; stroke-opacity:1"/>
<line clip-path="url(#clip342)" x1="872.684" y1="1445.72" x2="856.684" y2="1445.72" style="stroke:#3da44d; stroke-width:3.2; stroke-opacity:1"/>
<line clip-path="url(#clip342)" x1="872.684" y1="1445.72" x2="872.684" y2="1461.72" style="stroke:#3da44d; stroke-width:3.2; stroke-opacity:1"/>
<line clip-path="url(#clip342)" x1="872.684" y1="1445.72" x2="888.684" y2="1445.72" style="stroke:#3da44d; stroke-width:3.2; stroke-opacity:1"/>
<line clip-path="url(#clip342)" x1="958.485" y1="1445.72" x2="958.485" y2="1429.72" style="stroke:#3da44d; stroke-width:3.2; stroke-opacity:1"/>
<line clip-path="url(#clip342)" x1="958.485" y1="1445.72" x2="942.485" y2="1445.72" style="stroke:#3da44d; stroke-width:3.2; stroke-opacity:1"/>
<line clip-path="url(#clip342)" x1="958.485" y1="1445.72" x2="958.485" y2="1461.72" style="stroke:#3da44d; stroke-width:3.2; stroke-opacity:1"/>
<line clip-path="url(#clip342)" x1="958.485" y1="1445.72" x2="974.485" y2="1445.72" style="stroke:#3da44d; stroke-width:3.2; stroke-opacity:1"/>
<line clip-path="url(#clip342)" x1="1044.29" y1="1445.72" x2="1044.29" y2="1429.72" style="stroke:#3da44d; stroke-width:3.2; stroke-opacity:1"/>
<line clip-path="url(#clip342)" x1="1044.29" y1="1445.72" x2="1028.29" y2="1445.72" style="stroke:#3da44d; stroke-width:3.2; stroke-opacity:1"/>
<line clip-path="url(#clip342)" x1="1044.29" y1="1445.72" x2="1044.29" y2="1461.72" style="stroke:#3da44d; stroke-width:3.2; stroke-opacity:1"/>
<line clip-path="url(#clip342)" x1="1044.29" y1="1445.72" x2="1060.29" y2="1445.72" style="stroke:#3da44d; stroke-width:3.2; stroke-opacity:1"/>
<line clip-path="url(#clip342)" x1="1130.09" y1="1445.72" x2="1130.09" y2="1429.72" style="stroke:#3da44d; stroke-width:3.2; stroke-opacity:1"/>
<line clip-path="url(#clip342)" x1="1130.09" y1="1445.72" x2="1114.09" y2="1445.72" style="stroke:#3da44d; stroke-width:3.2; stroke-opacity:1"/>
<line clip-path="url(#clip342)" x1="1130.09" y1="1445.72" x2="1130.09" y2="1461.72" style="stroke:#3da44d; stroke-width:3.2; stroke-opacity:1"/>
<line clip-path="url(#clip342)" x1="1130.09" y1="1445.72" x2="1146.09" y2="1445.72" style="stroke:#3da44d; stroke-width:3.2; stroke-opacity:1"/>
<line clip-path="url(#clip342)" x1="1215.89" y1="1445.72" x2="1215.89" y2="1429.72" style="stroke:#3da44d; stroke-width:3.2; stroke-opacity:1"/>
<line clip-path="url(#clip342)" x1="1215.89" y1="1445.72" x2="1199.89" y2="1445.72" style="stroke:#3da44d; stroke-width:3.2; stroke-opacity:1"/>
<line clip-path="url(#clip342)" x1="1215.89" y1="1445.72" x2="1215.89" y2="1461.72" style="stroke:#3da44d; stroke-width:3.2; stroke-opacity:1"/>
<line clip-path="url(#clip342)" x1="1215.89" y1="1445.72" x2="1231.89" y2="1445.72" style="stroke:#3da44d; stroke-width:3.2; stroke-opacity:1"/>
<line clip-path="url(#clip342)" x1="1301.69" y1="87.9763" x2="1301.69" y2="71.9763" style="stroke:#3da44d; stroke-width:3.2; stroke-opacity:1"/>
<line clip-path="url(#clip342)" x1="1301.69" y1="87.9763" x2="1285.69" y2="87.9763" style="stroke:#3da44d; stroke-width:3.2; stroke-opacity:1"/>
<line clip-path="url(#clip342)" x1="1301.69" y1="87.9763" x2="1301.69" y2="103.976" style="stroke:#3da44d; stroke-width:3.2; stroke-opacity:1"/>
<line clip-path="url(#clip342)" x1="1301.69" y1="87.9763" x2="1317.69" y2="87.9763" style="stroke:#3da44d; stroke-width:3.2; stroke-opacity:1"/>
<line clip-path="url(#clip342)" x1="1387.49" y1="87.9763" x2="1387.49" y2="71.9763" style="stroke:#3da44d; stroke-width:3.2; stroke-opacity:1"/>
<line clip-path="url(#clip342)" x1="1387.49" y1="87.9763" x2="1371.49" y2="87.9763" style="stroke:#3da44d; stroke-width:3.2; stroke-opacity:1"/>
<line clip-path="url(#clip342)" x1="1387.49" y1="87.9763" x2="1387.49" y2="103.976" style="stroke:#3da44d; stroke-width:3.2; stroke-opacity:1"/>
<line clip-path="url(#clip342)" x1="1387.49" y1="87.9763" x2="1403.49" y2="87.9763" style="stroke:#3da44d; stroke-width:3.2; stroke-opacity:1"/>
<line clip-path="url(#clip342)" x1="1473.29" y1="87.9763" x2="1473.29" y2="71.9763" style="stroke:#3da44d; stroke-width:3.2; stroke-opacity:1"/>
<line clip-path="url(#clip342)" x1="1473.29" y1="87.9763" x2="1457.29" y2="87.9763" style="stroke:#3da44d; stroke-width:3.2; stroke-opacity:1"/>
<line clip-path="url(#clip342)" x1="1473.29" y1="87.9763" x2="1473.29" y2="103.976" style="stroke:#3da44d; stroke-width:3.2; stroke-opacity:1"/>
<line clip-path="url(#clip342)" x1="1473.29" y1="87.9763" x2="1489.29" y2="87.9763" style="stroke:#3da44d; stroke-width:3.2; stroke-opacity:1"/>
<line clip-path="url(#clip342)" x1="1559.09" y1="1445.72" x2="1559.09" y2="1429.72" style="stroke:#3da44d; stroke-width:3.2; stroke-opacity:1"/>
<line clip-path="url(#clip342)" x1="1559.09" y1="1445.72" x2="1543.09" y2="1445.72" style="stroke:#3da44d; stroke-width:3.2; stroke-opacity:1"/>
<line clip-path="url(#clip342)" x1="1559.09" y1="1445.72" x2="1559.09" y2="1461.72" style="stroke:#3da44d; stroke-width:3.2; stroke-opacity:1"/>
<line clip-path="url(#clip342)" x1="1559.09" y1="1445.72" x2="1575.09" y2="1445.72" style="stroke:#3da44d; stroke-width:3.2; stroke-opacity:1"/>
<line clip-path="url(#clip342)" x1="1644.9" y1="1445.72" x2="1644.9" y2="1429.72" style="stroke:#3da44d; stroke-width:3.2; stroke-opacity:1"/>
<line clip-path="url(#clip342)" x1="1644.9" y1="1445.72" x2="1628.9" y2="1445.72" style="stroke:#3da44d; stroke-width:3.2; stroke-opacity:1"/>
<line clip-path="url(#clip342)" x1="1644.9" y1="1445.72" x2="1644.9" y2="1461.72" style="stroke:#3da44d; stroke-width:3.2; stroke-opacity:1"/>
<line clip-path="url(#clip342)" x1="1644.9" y1="1445.72" x2="1660.9" y2="1445.72" style="stroke:#3da44d; stroke-width:3.2; stroke-opacity:1"/>
<line clip-path="url(#clip342)" x1="1730.7" y1="1445.72" x2="1730.7" y2="1429.72" style="stroke:#3da44d; stroke-width:3.2; stroke-opacity:1"/>
<line clip-path="url(#clip342)" x1="1730.7" y1="1445.72" x2="1714.7" y2="1445.72" style="stroke:#3da44d; stroke-width:3.2; stroke-opacity:1"/>
<line clip-path="url(#clip342)" x1="1730.7" y1="1445.72" x2="1730.7" y2="1461.72" style="stroke:#3da44d; stroke-width:3.2; stroke-opacity:1"/>
<line clip-path="url(#clip342)" x1="1730.7" y1="1445.72" x2="1746.7" y2="1445.72" style="stroke:#3da44d; stroke-width:3.2; stroke-opacity:1"/>
<line clip-path="url(#clip342)" x1="1816.5" y1="1445.72" x2="1816.5" y2="1429.72" style="stroke:#3da44d; stroke-width:3.2; stroke-opacity:1"/>
<line clip-path="url(#clip342)" x1="1816.5" y1="1445.72" x2="1800.5" y2="1445.72" style="stroke:#3da44d; stroke-width:3.2; stroke-opacity:1"/>
<line clip-path="url(#clip342)" x1="1816.5" y1="1445.72" x2="1816.5" y2="1461.72" style="stroke:#3da44d; stroke-width:3.2; stroke-opacity:1"/>
<line clip-path="url(#clip342)" x1="1816.5" y1="1445.72" x2="1832.5" y2="1445.72" style="stroke:#3da44d; stroke-width:3.2; stroke-opacity:1"/>
<line clip-path="url(#clip342)" x1="1902.3" y1="1445.72" x2="1902.3" y2="1429.72" style="stroke:#3da44d; stroke-width:3.2; stroke-opacity:1"/>
<line clip-path="url(#clip342)" x1="1902.3" y1="1445.72" x2="1886.3" y2="1445.72" style="stroke:#3da44d; stroke-width:3.2; stroke-opacity:1"/>
<line clip-path="url(#clip342)" x1="1902.3" y1="1445.72" x2="1902.3" y2="1461.72" style="stroke:#3da44d; stroke-width:3.2; stroke-opacity:1"/>
<line clip-path="url(#clip342)" x1="1902.3" y1="1445.72" x2="1918.3" y2="1445.72" style="stroke:#3da44d; stroke-width:3.2; stroke-opacity:1"/>
<line clip-path="url(#clip342)" x1="1988.1" y1="1445.72" x2="1988.1" y2="1429.72" style="stroke:#3da44d; stroke-width:3.2; stroke-opacity:1"/>
<line clip-path="url(#clip342)" x1="1988.1" y1="1445.72" x2="1972.1" y2="1445.72" style="stroke:#3da44d; stroke-width:3.2; stroke-opacity:1"/>
<line clip-path="url(#clip342)" x1="1988.1" y1="1445.72" x2="1988.1" y2="1461.72" style="stroke:#3da44d; stroke-width:3.2; stroke-opacity:1"/>
<line clip-path="url(#clip342)" x1="1988.1" y1="1445.72" x2="2004.1" y2="1445.72" style="stroke:#3da44d; stroke-width:3.2; stroke-opacity:1"/>
<line clip-path="url(#clip342)" x1="2073.9" y1="1445.72" x2="2073.9" y2="1429.72" style="stroke:#3da44d; stroke-width:3.2; stroke-opacity:1"/>
<line clip-path="url(#clip342)" x1="2073.9" y1="1445.72" x2="2057.9" y2="1445.72" style="stroke:#3da44d; stroke-width:3.2; stroke-opacity:1"/>
<line clip-path="url(#clip342)" x1="2073.9" y1="1445.72" x2="2073.9" y2="1461.72" style="stroke:#3da44d; stroke-width:3.2; stroke-opacity:1"/>
<line clip-path="url(#clip342)" x1="2073.9" y1="1445.72" x2="2089.9" y2="1445.72" style="stroke:#3da44d; stroke-width:3.2; stroke-opacity:1"/>
<line clip-path="url(#clip342)" x1="2159.7" y1="1445.72" x2="2159.7" y2="1429.72" style="stroke:#3da44d; stroke-width:3.2; stroke-opacity:1"/>
<line clip-path="url(#clip342)" x1="2159.7" y1="1445.72" x2="2143.7" y2="1445.72" style="stroke:#3da44d; stroke-width:3.2; stroke-opacity:1"/>
<line clip-path="url(#clip342)" x1="2159.7" y1="1445.72" x2="2159.7" y2="1461.72" style="stroke:#3da44d; stroke-width:3.2; stroke-opacity:1"/>
<line clip-path="url(#clip342)" x1="2159.7" y1="1445.72" x2="2175.7" y2="1445.72" style="stroke:#3da44d; stroke-width:3.2; stroke-opacity:1"/>
<line clip-path="url(#clip342)" x1="2245.5" y1="1445.72" x2="2245.5" y2="1429.72" style="stroke:#3da44d; stroke-width:3.2; stroke-opacity:1"/>
<line clip-path="url(#clip342)" x1="2245.5" y1="1445.72" x2="2229.5" y2="1445.72" style="stroke:#3da44d; stroke-width:3.2; stroke-opacity:1"/>
<line clip-path="url(#clip342)" x1="2245.5" y1="1445.72" x2="2245.5" y2="1461.72" style="stroke:#3da44d; stroke-width:3.2; stroke-opacity:1"/>
<line clip-path="url(#clip342)" x1="2245.5" y1="1445.72" x2="2261.5" y2="1445.72" style="stroke:#3da44d; stroke-width:3.2; stroke-opacity:1"/>
<line clip-path="url(#clip342)" x1="2331.31" y1="1445.72" x2="2331.31" y2="1429.72" style="stroke:#3da44d; stroke-width:3.2; stroke-opacity:1"/>
<line clip-path="url(#clip342)" x1="2331.31" y1="1445.72" x2="2315.31" y2="1445.72" style="stroke:#3da44d; stroke-width:3.2; stroke-opacity:1"/>
<line clip-path="url(#clip342)" x1="2331.31" y1="1445.72" x2="2331.31" y2="1461.72" style="stroke:#3da44d; stroke-width:3.2; stroke-opacity:1"/>
<line clip-path="url(#clip342)" x1="2331.31" y1="1445.72" x2="2347.31" y2="1445.72" style="stroke:#3da44d; stroke-width:3.2; stroke-opacity:1"/>
<path clip-path="url(#clip340)" d="
M1986.81 302.578 L2280.54 302.578 L2280.54 95.2176 L1986.81 95.2176  Z
  " fill="#ffffff" fill-rule="evenodd" fill-opacity="1"/>
<polyline clip-path="url(#clip340)" style="stroke:#000000; stroke-linecap:butt; stroke-linejoin:round; stroke-width:4; stroke-opacity:1; fill:none" points="
  1986.81,302.578 2280.54,302.578 2280.54,95.2176 1986.81,95.2176 1986.81,302.578 
  "/>
<polyline clip-path="url(#clip340)" style="stroke:#009af9; stroke-linecap:butt; stroke-linejoin:round; stroke-width:4; stroke-opacity:1; fill:none" points="
  2010.88,147.058 2155.31,147.058 
  "/>
<line clip-path="url(#clip340)" x1="2083.1" y1="147.058" x2="2083.1" y2="121.458" style="stroke:#009af9; stroke-width:5.12; stroke-opacity:1"/>
<line clip-path="url(#clip340)" x1="2083.1" y1="147.058" x2="2057.5" y2="147.058" style="stroke:#009af9; stroke-width:5.12; stroke-opacity:1"/>
<line clip-path="url(#clip340)" x1="2083.1" y1="147.058" x2="2083.1" y2="172.658" style="stroke:#009af9; stroke-width:5.12; stroke-opacity:1"/>
<line clip-path="url(#clip340)" x1="2083.1" y1="147.058" x2="2108.7" y2="147.058" style="stroke:#009af9; stroke-width:5.12; stroke-opacity:1"/>
<path clip-path="url(#clip340)" d="M2193.23 166.745 Q2191.42 171.375 2189.71 172.787 Q2188 174.199 2185.13 174.199 L2181.72 174.199 L2181.72 170.634 L2184.22 170.634 Q2185.98 170.634 2186.96 169.8 Q2187.93 168.967 2189.11 165.865 L2189.87 163.921 L2179.39 138.412 L2183.9 138.412 L2192 158.689 L2200.1 138.412 L2204.62 138.412 L2193.23 166.745 Z" fill="#000000" fill-rule="evenodd" fill-opacity="1" /><path clip-path="url(#clip340)" d="M2211.91 160.402 L2219.55 160.402 L2219.55 134.037 L2211.24 135.703 L2211.24 131.444 L2219.5 129.778 L2224.18 129.778 L2224.18 160.402 L2231.82 160.402 L2231.82 164.338 L2211.91 164.338 L2211.91 160.402 Z" fill="#000000" fill-rule="evenodd" fill-opacity="1" /><polyline clip-path="url(#clip340)" style="stroke:#e26f46; stroke-linecap:butt; stroke-linejoin:round; stroke-width:4; stroke-opacity:1; fill:none" points="
  2010.88,198.898 2155.31,198.898 
  "/>
<circle clip-path="url(#clip340)" cx="2083.1" cy="198.898" r="23.04" fill="#e26f46" fill-rule="evenodd" fill-opacity="1" stroke="#000000" stroke-opacity="1" stroke-width="5.12"/>
<path clip-path="url(#clip340)" d="M2193.23 218.585 Q2191.42 223.215 2189.71 224.627 Q2188 226.039 2185.13 226.039 L2181.72 226.039 L2181.72 222.474 L2184.22 222.474 Q2185.98 222.474 2186.96 221.64 Q2187.93 220.807 2189.11 217.705 L2189.87 215.761 L2179.39 190.252 L2183.9 190.252 L2192 210.529 L2200.1 190.252 L2204.62 190.252 L2193.23 218.585 Z" fill="#000000" fill-rule="evenodd" fill-opacity="1" /><path clip-path="url(#clip340)" d="M2215.13 212.242 L2231.45 212.242 L2231.45 216.178 L2209.5 216.178 L2209.5 212.242 Q2212.16 209.488 2216.75 204.858 Q2221.35 200.205 2222.53 198.863 Q2224.78 196.34 2225.66 194.604 Q2226.56 192.844 2226.56 191.155 Q2226.56 188.4 2224.62 186.664 Q2222.7 184.928 2219.59 184.928 Q2217.4 184.928 2214.94 185.692 Q2212.51 186.455 2209.73 188.006 L2209.73 183.284 Q2212.56 182.15 2215.01 181.571 Q2217.47 180.993 2219.5 180.993 Q2224.87 180.993 2228.07 183.678 Q2231.26 186.363 2231.26 190.854 Q2231.26 192.983 2230.45 194.905 Q2229.66 196.803 2227.56 199.395 Q2226.98 200.067 2223.88 203.284 Q2220.78 206.479 2215.13 212.242 Z" fill="#000000" fill-rule="evenodd" fill-opacity="1" /><polyline clip-path="url(#clip340)" style="stroke:#3da44d; stroke-linecap:butt; stroke-linejoin:round; stroke-width:4; stroke-opacity:1; fill:none" points="
  2010.88,250.738 2155.31,250.738 
  "/>
<line clip-path="url(#clip340)" x1="2083.1" y1="250.738" x2="2083.1" y2="225.138" style="stroke:#3da44d; stroke-width:5.12; stroke-opacity:1"/>
<line clip-path="url(#clip340)" x1="2083.1" y1="250.738" x2="2057.5" y2="250.738" style="stroke:#3da44d; stroke-width:5.12; stroke-opacity:1"/>
<line clip-path="url(#clip340)" x1="2083.1" y1="250.738" x2="2083.1" y2="276.338" style="stroke:#3da44d; stroke-width:5.12; stroke-opacity:1"/>
<line clip-path="url(#clip340)" x1="2083.1" y1="250.738" x2="2108.7" y2="250.738" style="stroke:#3da44d; stroke-width:5.12; stroke-opacity:1"/>
<path clip-path="url(#clip340)" d="M2193.23 270.425 Q2191.42 275.055 2189.71 276.467 Q2188 277.879 2185.13 277.879 L2181.72 277.879 L2181.72 274.314 L2184.22 274.314 Q2185.98 274.314 2186.96 273.48 Q2187.93 272.647 2189.11 269.545 L2189.87 267.601 L2179.39 242.092 L2183.9 242.092 L2192 262.369 L2200.1 242.092 L2204.62 242.092 L2193.23 270.425 Z" fill="#000000" fill-rule="evenodd" fill-opacity="1" /><path clip-path="url(#clip340)" d="M2225.27 249.383 Q2228.62 250.101 2230.5 252.369 Q2232.4 254.638 2232.4 257.971 Q2232.4 263.087 2228.88 265.888 Q2225.36 268.689 2218.88 268.689 Q2216.7 268.689 2214.39 268.249 Q2212.09 267.832 2209.64 266.976 L2209.64 262.462 Q2211.59 263.596 2213.9 264.175 Q2216.22 264.754 2218.74 264.754 Q2223.14 264.754 2225.43 263.018 Q2227.74 261.281 2227.74 257.971 Q2227.74 254.916 2225.59 253.203 Q2223.46 251.467 2219.64 251.467 L2215.61 251.467 L2215.61 247.624 L2219.83 247.624 Q2223.28 247.624 2225.1 246.258 Q2226.93 244.87 2226.93 242.277 Q2226.93 239.615 2225.03 238.203 Q2223.16 236.768 2219.64 236.768 Q2217.72 236.768 2215.52 237.184 Q2213.32 237.601 2210.68 238.481 L2210.68 234.314 Q2213.34 233.573 2215.66 233.203 Q2218 232.833 2220.06 232.833 Q2225.38 232.833 2228.48 235.263 Q2231.59 237.67 2231.59 241.791 Q2231.59 244.661 2229.94 246.652 Q2228.3 248.62 2225.27 249.383 Z" fill="#000000" fill-rule="evenodd" fill-opacity="1" /></svg>
