<?xml version="1.0" encoding="utf-8"?>
<svg xmlns="http://www.w3.org/2000/svg" xmlns:xlink="http://www.w3.org/1999/xlink" width="600" height="400" viewBox="0 0 2400 1600">
<defs>
  <clipPath id="clip500">
    <rect x="0" y="0" width="2400" height="1600"/>
  </clipPath>
</defs>
<path clip-path="url(#clip500)" d="
M0 1600 L2400 1600 L2400 0 L0 0  Z
  " fill="#ffffff" fill-rule="evenodd" fill-opacity="1"/>
<defs>
  <clipPath id="clip501">
    <rect x="480" y="0" width="1681" height="1600"/>
  </clipPath>
</defs>
<path clip-path="url(#clip500)" d="
M192.339 1486.45 L2352.76 1486.45 L2352.76 47.2441 L192.339 47.2441  Z
  " fill="#ffffff" fill-rule="evenodd" fill-opacity="1"/>
<defs>
  <clipPath id="clip502">
    <rect x="192" y="47" width="2161" height="1440"/>
  </clipPath>
</defs>
<polyline clip-path="url(#clip502)" style="stroke:#000000; stroke-linecap:butt; stroke-linejoin:round; stroke-width:2; stroke-opacity:0.1; fill:none" points="
  243.189,1486.45 243.189,47.2441 
  "/>
<polyline clip-path="url(#clip502)" style="stroke:#000000; stroke-linecap:butt; stroke-linejoin:round; stroke-width:2; stroke-opacity:0.1; fill:none" points="
  757.868,1486.45 757.868,47.2441 
  "/>
<polyline clip-path="url(#clip502)" style="stroke:#000000; stroke-linecap:butt; stroke-linejoin:round; stroke-width:2; stroke-opacity:0.1; fill:none" points="
  1272.55,1486.45 1272.55,47.2441 
  "/>
<polyline clip-path="url(#clip502)" style="stroke:#000000; stroke-linecap:butt; stroke-linejoin:round; stroke-width:2; stroke-opacity:0.1; fill:none" points="
  1787.23,1486.45 1787.23,47.2441 
  "/>
<polyline clip-path="url(#clip502)" style="stroke:#000000; stroke-linecap:butt; stroke-linejoin:round; stroke-width:2; stroke-opacity:0.1; fill:none" points="
  2301.91,1486.45 2301.91,47.2441 
  "/>
<polyline clip-path="url(#clip500)" style="stroke:#000000; stroke-linecap:butt; stroke-linejoin:round; stroke-width:4; stroke-opacity:1; fill:none" points="
  192.339,1486.45 2352.76,1486.45 
  "/>
<polyline clip-path="url(#clip500)" style="stroke:#000000; stroke-linecap:butt; stroke-linejoin:round; stroke-width:4; stroke-opacity:1; fill:none" points="
  243.189,1486.45 243.189,1467.55 
  "/>
<polyline clip-path="url(#clip500)" style="stroke:#000000; stroke-linecap:butt; stroke-linejoin:round; stroke-width:4; stroke-opacity:1; fill:none" points="
  757.868,1486.45 757.868,1467.55 
  "/>
<polyline clip-path="url(#clip500)" style="stroke:#000000; stroke-linecap:butt; stroke-linejoin:round; stroke-width:4; stroke-opacity:1; fill:none" points="
  1272.55,1486.45 1272.55,1467.55 
  "/>
<polyline clip-path="url(#clip500)" style="stroke:#000000; stroke-linecap:butt; stroke-linejoin:round; stroke-width:4; stroke-opacity:1; fill:none" points="
  1787.23,1486.45 1787.23,1467.55 
  "/>
<polyline clip-path="url(#clip500)" style="stroke:#000000; stroke-linecap:butt; stroke-linejoin:round; stroke-width:4; stroke-opacity:1; fill:none" points="
  2301.91,1486.45 2301.91,1467.55 
  "/>
<path clip-path="url(#clip500)" d="M189.717 1532.02 L219.393 1532.02 L219.393 1535.95 L189.717 1535.95 L189.717 1532.02 Z" fill="#000000" fill-rule="evenodd" fill-opacity="1" /><path clip-path="url(#clip500)" d="M230.296 1544.91 L237.934 1544.91 L237.934 1518.55 L229.624 1520.21 L229.624 1515.95 L237.888 1514.29 L242.564 1514.29 L242.564 1544.91 L250.203 1544.91 L250.203 1548.85 L230.296 1548.85 L230.296 1544.91 Z" fill="#000000" fill-rule="evenodd" fill-opacity="1" /><path clip-path="url(#clip500)" d="M259.647 1542.97 L264.532 1542.97 L264.532 1548.85 L259.647 1548.85 L259.647 1542.97 Z" fill="#000000" fill-rule="evenodd" fill-opacity="1" /><path clip-path="url(#clip500)" d="M284.717 1517.37 Q281.106 1517.37 279.277 1520.93 Q277.471 1524.47 277.471 1531.6 Q277.471 1538.71 279.277 1542.27 Q281.106 1545.82 284.717 1545.82 Q288.351 1545.82 290.156 1542.27 Q291.985 1538.71 291.985 1531.6 Q291.985 1524.47 290.156 1520.93 Q288.351 1517.37 284.717 1517.37 M284.717 1513.66 Q290.527 1513.66 293.582 1518.27 Q296.661 1522.85 296.661 1531.6 Q296.661 1540.33 293.582 1544.94 Q290.527 1549.52 284.717 1549.52 Q278.906 1549.52 275.828 1544.94 Q272.772 1540.33 272.772 1531.6 Q272.772 1522.85 275.828 1518.27 Q278.906 1513.66 284.717 1513.66 Z" fill="#000000" fill-rule="evenodd" fill-opacity="1" /><path clip-path="url(#clip500)" d="M704.894 1532.02 L734.57 1532.02 L734.57 1535.95 L704.894 1535.95 L704.894 1532.02 Z" fill="#000000" fill-rule="evenodd" fill-opacity="1" /><path clip-path="url(#clip500)" d="M754.662 1517.37 Q751.051 1517.37 749.222 1520.93 Q747.417 1524.47 747.417 1531.6 Q747.417 1538.71 749.222 1542.27 Q751.051 1545.82 754.662 1545.82 Q758.296 1545.82 760.102 1542.27 Q761.931 1538.71 761.931 1531.6 Q761.931 1524.47 760.102 1520.93 Q758.296 1517.37 754.662 1517.37 M754.662 1513.66 Q760.472 1513.66 763.528 1518.27 Q766.607 1522.85 766.607 1531.6 Q766.607 1540.33 763.528 1544.94 Q760.472 1549.52 754.662 1549.52 Q748.852 1549.52 745.773 1544.94 Q742.718 1540.33 742.718 1531.6 Q742.718 1522.85 745.773 1518.27 Q748.852 1513.66 754.662 1513.66 Z" fill="#000000" fill-rule="evenodd" fill-opacity="1" /><path clip-path="url(#clip500)" d="M774.824 1542.97 L779.708 1542.97 L779.708 1548.85 L774.824 1548.85 L774.824 1542.97 Z" fill="#000000" fill-rule="evenodd" fill-opacity="1" /><path clip-path="url(#clip500)" d="M789.94 1514.29 L808.296 1514.29 L808.296 1518.22 L794.222 1518.22 L794.222 1526.7 Q795.241 1526.35 796.259 1526.19 Q797.278 1526 798.296 1526 Q804.083 1526 807.463 1529.17 Q810.842 1532.34 810.842 1537.76 Q810.842 1543.34 807.37 1546.44 Q803.898 1549.52 797.579 1549.52 Q795.403 1549.52 793.134 1549.15 Q790.889 1548.78 788.481 1548.04 L788.481 1543.34 Q790.565 1544.47 792.787 1545.03 Q795.009 1545.58 797.486 1545.58 Q801.491 1545.58 803.829 1543.48 Q806.167 1541.37 806.167 1537.76 Q806.167 1534.15 803.829 1532.04 Q801.491 1529.94 797.486 1529.94 Q795.611 1529.94 793.736 1530.35 Q791.884 1530.77 789.94 1531.65 L789.94 1514.29 Z" fill="#000000" fill-rule="evenodd" fill-opacity="1" /><path clip-path="url(#clip500)" d="M1249.93 1517.37 Q1246.32 1517.37 1244.49 1520.93 Q1242.69 1524.47 1242.69 1531.6 Q1242.69 1538.71 1244.49 1542.27 Q1246.32 1545.82 1249.93 1545.82 Q1253.57 1545.82 1255.37 1542.27 Q1257.2 1538.71 1257.2 1531.6 Q1257.2 1524.47 1255.37 1520.93 Q1253.57 1517.37 1249.93 1517.37 M1249.93 1513.66 Q1255.74 1513.66 1258.8 1518.27 Q1261.88 1522.85 1261.88 1531.6 Q1261.88 1540.33 1258.8 1544.94 Q1255.74 1549.52 1249.93 1549.52 Q1244.12 1549.52 1241.04 1544.94 Q1237.99 1540.33 1237.99 1531.6 Q1237.99 1522.85 1241.04 1518.27 Q1244.12 1513.66 1249.93 1513.66 Z" fill="#000000" fill-rule="evenodd" fill-opacity="1" /><path clip-path="url(#clip500)" d="M1270.09 1542.97 L1274.98 1542.97 L1274.98 1548.85 L1270.09 1548.85 L1270.09 1542.97 Z" fill="#000000" fill-rule="evenodd" fill-opacity="1" /><path clip-path="url(#clip500)" d="M1295.16 1517.37 Q1291.55 1517.37 1289.72 1520.93 Q1287.92 1524.47 1287.92 1531.6 Q1287.92 1538.71 1289.72 1542.27 Q1291.55 1545.82 1295.16 1545.82 Q1298.8 1545.82 1300.6 1542.27 Q1302.43 1538.71 1302.43 1531.6 Q1302.43 1524.47 1300.6 1520.93 Q1298.8 1517.37 1295.16 1517.37 M1295.16 1513.66 Q1300.97 1513.66 1304.03 1518.27 Q1307.11 1522.85 1307.11 1531.6 Q1307.11 1540.33 1304.03 1544.94 Q1300.97 1549.52 1295.16 1549.52 Q1289.35 1549.52 1286.27 1544.94 Q1283.22 1540.33 1283.22 1531.6 Q1283.22 1522.85 1286.27 1518.27 Q1289.35 1513.66 1295.16 1513.66 Z" fill="#000000" fill-rule="evenodd" fill-opacity="1" /><path clip-path="url(#clip500)" d="M1765.11 1517.37 Q1761.5 1517.37 1759.67 1520.93 Q1757.86 1524.47 1757.86 1531.6 Q1757.86 1538.71 1759.67 1542.27 Q1761.5 1545.82 1765.11 1545.82 Q1768.74 1545.82 1770.55 1542.27 Q1772.38 1538.71 1772.38 1531.6 Q1772.38 1524.47 1770.55 1520.93 Q1768.74 1517.37 1765.11 1517.37 M1765.11 1513.66 Q1770.92 1513.66 1773.97 1518.27 Q1777.05 1522.85 1777.05 1531.6 Q1777.05 1540.33 1773.97 1544.94 Q1770.92 1549.52 1765.11 1549.52 Q1759.3 1549.52 1756.22 1544.94 Q1753.16 1540.33 1753.16 1531.6 Q1753.16 1522.85 1756.22 1518.27 Q1759.3 1513.66 1765.11 1513.66 Z" fill="#000000" fill-rule="evenodd" fill-opacity="1" /><path clip-path="url(#clip500)" d="M1785.27 1542.97 L1790.15 1542.97 L1790.15 1548.85 L1785.27 1548.85 L1785.27 1542.97 Z" fill="#000000" fill-rule="evenodd" fill-opacity="1" /><path clip-path="url(#clip500)" d="M1800.39 1514.29 L1818.74 1514.29 L1818.74 1518.22 L1804.67 1518.22 L1804.67 1526.7 Q1805.69 1526.35 1806.71 1526.19 Q1807.72 1526 1808.74 1526 Q1814.53 1526 1817.91 1529.17 Q1821.29 1532.34 1821.29 1537.76 Q1821.29 1543.34 1817.82 1546.44 Q1814.34 1549.52 1808.02 1549.52 Q1805.85 1549.52 1803.58 1549.15 Q1801.34 1548.78 1798.93 1548.04 L1798.93 1543.34 Q1801.01 1544.47 1803.23 1545.03 Q1805.46 1545.58 1807.93 1545.58 Q1811.94 1545.58 1814.27 1543.48 Q1816.61 1541.37 1816.61 1537.76 Q1816.61 1534.15 1814.27 1532.04 Q1811.94 1529.94 1807.93 1529.94 Q1806.06 1529.94 1804.18 1530.35 Q1802.33 1530.77 1800.39 1531.65 L1800.39 1514.29 Z" fill="#000000" fill-rule="evenodd" fill-opacity="1" /><path clip-path="url(#clip500)" d="M2269.06 1544.91 L2276.7 1544.91 L2276.7 1518.55 L2268.39 1520.21 L2268.39 1515.95 L2276.65 1514.29 L2281.33 1514.29 L2281.33 1544.91 L2288.97 1544.91 L2288.97 1548.85 L2269.06 1548.85 L2269.06 1544.91 Z" fill="#000000" fill-rule="evenodd" fill-opacity="1" /><path clip-path="url(#clip500)" d="M2298.41 1542.97 L2303.29 1542.97 L2303.29 1548.85 L2298.41 1548.85 L2298.41 1542.97 Z" fill="#000000" fill-rule="evenodd" fill-opacity="1" /><path clip-path="url(#clip500)" d="M2323.48 1517.37 Q2319.87 1517.37 2318.04 1520.93 Q2316.23 1524.47 2316.23 1531.6 Q2316.23 1538.71 2318.04 1542.27 Q2319.87 1545.82 2323.48 1545.82 Q2327.11 1545.82 2328.92 1542.27 Q2330.75 1538.71 2330.75 1531.6 Q2330.75 1524.47 2328.92 1520.93 Q2327.11 1517.37 2323.48 1517.37 M2323.48 1513.66 Q2329.29 1513.66 2332.35 1518.27 Q2335.42 1522.85 2335.42 1531.6 Q2335.42 1540.33 2332.35 1544.94 Q2329.29 1549.52 2323.48 1549.52 Q2317.67 1549.52 2314.59 1544.94 Q2311.54 1540.33 2311.54 1531.6 Q2311.54 1522.85 2314.59 1518.27 Q2317.67 1513.66 2323.48 1513.66 Z" fill="#000000" fill-rule="evenodd" fill-opacity="1" /><polyline clip-path="url(#clip502)" style="stroke:#000000; stroke-linecap:butt; stroke-linejoin:round; stroke-width:2; stroke-opacity:0.1; fill:none" points="
  192.339,1355.06 2352.76,1355.06 
  "/>
<polyline clip-path="url(#clip502)" style="stroke:#000000; stroke-linecap:butt; stroke-linejoin:round; stroke-width:2; stroke-opacity:0.1; fill:none" points="
  192.339,1184.51 2352.76,1184.51 
  "/>
<polyline clip-path="url(#clip502)" style="stroke:#000000; stroke-linecap:butt; stroke-linejoin:round; stroke-width:2; stroke-opacity:0.1; fill:none" points="
  192.339,1013.96 2352.76,1013.96 
  "/>
<polyline clip-path="url(#clip502)" style="stroke:#000000; stroke-linecap:butt; stroke-linejoin:round; stroke-width:2; stroke-opacity:0.1; fill:none" points="
  192.339,843.405 2352.76,843.405 
  "/>
<polyline clip-path="url(#clip502)" style="stroke:#000000; stroke-linecap:butt; stroke-linejoin:round; stroke-width:2; stroke-opacity:0.1; fill:none" points="
  192.339,672.853 2352.76,672.853 
  "/>
<polyline clip-path="url(#clip502)" style="stroke:#000000; stroke-linecap:butt; stroke-linejoin:round; stroke-width:2; stroke-opacity:0.1; fill:none" points="
  192.339,502.301 2352.76,502.301 
  "/>
<polyline clip-path="url(#clip502)" style="stroke:#000000; stroke-linecap:butt; stroke-linejoin:round; stroke-width:2; stroke-opacity:0.1; fill:none" points="
  192.339,331.749 2352.76,331.749 
  "/>
<polyline clip-path="url(#clip502)" style="stroke:#000000; stroke-linecap:butt; stroke-linejoin:round; stroke-width:2; stroke-opacity:0.1; fill:none" points="
  192.339,161.197 2352.76,161.197 
  "/>
<polyline clip-path="url(#clip500)" style="stroke:#000000; stroke-linecap:butt; stroke-linejoin:round; stroke-width:4; stroke-opacity:1; fill:none" points="
  192.339,1486.45 192.339,47.2441 
  "/>
<polyline clip-path="url(#clip500)" style="stroke:#000000; stroke-linecap:butt; stroke-linejoin:round; stroke-width:4; stroke-opacity:1; fill:none" points="
  192.339,1355.06 211.236,1355.06 
  "/>
<polyline clip-path="url(#clip500)" style="stroke:#000000; stroke-linecap:butt; stroke-linejoin:round; stroke-width:4; stroke-opacity:1; fill:none" points="
  192.339,1184.51 211.236,1184.51 
  "/>
<polyline clip-path="url(#clip500)" style="stroke:#000000; stroke-linecap:butt; stroke-linejoin:round; stroke-width:4; stroke-opacity:1; fill:none" points="
  192.339,1013.96 211.236,1013.96 
  "/>
<polyline clip-path="url(#clip500)" style="stroke:#000000; stroke-linecap:butt; stroke-linejoin:round; stroke-width:4; stroke-opacity:1; fill:none" points="
  192.339,843.405 211.236,843.405 
  "/>
<polyline clip-path="url(#clip500)" style="stroke:#000000; stroke-linecap:butt; stroke-linejoin:round; stroke-width:4; stroke-opacity:1; fill:none" points="
  192.339,672.853 211.236,672.853 
  "/>
<polyline clip-path="url(#clip500)" style="stroke:#000000; stroke-linecap:butt; stroke-linejoin:round; stroke-width:4; stroke-opacity:1; fill:none" points="
  192.339,502.301 211.236,502.301 
  "/>
<polyline clip-path="url(#clip500)" style="stroke:#000000; stroke-linecap:butt; stroke-linejoin:round; stroke-width:4; stroke-opacity:1; fill:none" points="
  192.339,331.749 211.236,331.749 
  "/>
<polyline clip-path="url(#clip500)" style="stroke:#000000; stroke-linecap:butt; stroke-linejoin:round; stroke-width:4; stroke-opacity:1; fill:none" points="
  192.339,161.197 211.236,161.197 
  "/>
<path clip-path="url(#clip500)" d="M50.9921 1355.51 L80.6679 1355.51 L80.6679 1359.45 L50.9921 1359.45 L50.9921 1355.51 Z" fill="#000000" fill-rule="evenodd" fill-opacity="1" /><path clip-path="url(#clip500)" d="M100.76 1340.86 Q97.1493 1340.86 95.3206 1344.42 Q93.515 1347.97 93.515 1355.1 Q93.515 1362.2 95.3206 1365.77 Q97.1493 1369.31 100.76 1369.31 Q104.395 1369.31 106.2 1365.77 Q108.029 1362.2 108.029 1355.1 Q108.029 1347.97 106.2 1344.42 Q104.395 1340.86 100.76 1340.86 M100.76 1337.16 Q106.571 1337.16 109.626 1341.76 Q112.705 1346.35 112.705 1355.1 Q112.705 1363.82 109.626 1368.43 Q106.571 1373.01 100.76 1373.01 Q94.9502 1373.01 91.8715 1368.43 Q88.816 1363.82 88.816 1355.1 Q88.816 1346.35 91.8715 1341.76 Q94.9502 1337.16 100.76 1337.16 Z" fill="#000000" fill-rule="evenodd" fill-opacity="1" /><path clip-path="url(#clip500)" d="M120.922 1366.46 L125.807 1366.46 L125.807 1372.34 L120.922 1372.34 L120.922 1366.46 Z" fill="#000000" fill-rule="evenodd" fill-opacity="1" /><path clip-path="url(#clip500)" d="M140.019 1368.41 L156.339 1368.41 L156.339 1372.34 L134.394 1372.34 L134.394 1368.41 Q137.056 1365.65 141.64 1361.02 Q146.246 1356.37 147.427 1355.03 Q149.672 1352.5 150.552 1350.77 Q151.455 1349.01 151.455 1347.32 Q151.455 1344.56 149.51 1342.83 Q147.589 1341.09 144.487 1341.09 Q142.288 1341.09 139.834 1341.85 Q137.404 1342.62 134.626 1344.17 L134.626 1339.45 Q137.45 1338.31 139.904 1337.73 Q142.357 1337.16 144.394 1337.16 Q149.765 1337.16 152.959 1339.84 Q156.154 1342.53 156.154 1347.02 Q156.154 1349.15 155.343 1351.07 Q154.556 1352.97 152.45 1355.56 Q151.871 1356.23 148.769 1359.45 Q145.668 1362.64 140.019 1368.41 Z" fill="#000000" fill-rule="evenodd" fill-opacity="1" /><path clip-path="url(#clip500)" d="M99.1632 1170.31 Q95.5521 1170.31 93.7234 1173.87 Q91.9178 1177.41 91.9178 1184.54 Q91.9178 1191.65 93.7234 1195.21 Q95.5521 1198.76 99.1632 1198.76 Q102.797 1198.76 104.603 1195.21 Q106.432 1191.65 106.432 1184.54 Q106.432 1177.41 104.603 1173.87 Q102.797 1170.31 99.1632 1170.31 M99.1632 1166.6 Q104.973 1166.6 108.029 1171.21 Q111.108 1175.79 111.108 1184.54 Q111.108 1193.27 108.029 1197.88 Q104.973 1202.46 99.1632 1202.46 Q93.353 1202.46 90.2743 1197.88 Q87.2188 1193.27 87.2188 1184.54 Q87.2188 1175.79 90.2743 1171.21 Q93.353 1166.6 99.1632 1166.6 Z" fill="#000000" fill-rule="evenodd" fill-opacity="1" /><path clip-path="url(#clip500)" d="M119.325 1195.91 L124.209 1195.91 L124.209 1201.79 L119.325 1201.79 L119.325 1195.91 Z" fill="#000000" fill-rule="evenodd" fill-opacity="1" /><path clip-path="url(#clip500)" d="M144.394 1170.31 Q140.783 1170.31 138.955 1173.87 Q137.149 1177.41 137.149 1184.54 Q137.149 1191.65 138.955 1195.21 Q140.783 1198.76 144.394 1198.76 Q148.029 1198.76 149.834 1195.21 Q151.663 1191.65 151.663 1184.54 Q151.663 1177.41 149.834 1173.87 Q148.029 1170.31 144.394 1170.31 M144.394 1166.6 Q150.205 1166.6 153.26 1171.21 Q156.339 1175.79 156.339 1184.54 Q156.339 1193.27 153.26 1197.88 Q150.205 1202.46 144.394 1202.46 Q138.584 1202.46 135.506 1197.88 Q132.45 1193.27 132.45 1184.54 Q132.45 1175.79 135.506 1171.21 Q138.584 1166.6 144.394 1166.6 Z" fill="#000000" fill-rule="evenodd" fill-opacity="1" /><path clip-path="url(#clip500)" d="M100.76 999.756 Q97.1493 999.756 95.3206 1003.32 Q93.515 1006.86 93.515 1013.99 Q93.515 1021.1 95.3206 1024.66 Q97.1493 1028.2 100.76 1028.2 Q104.395 1028.2 106.2 1024.66 Q108.029 1021.1 108.029 1013.99 Q108.029 1006.86 106.2 1003.32 Q104.395 999.756 100.76 999.756 M100.76 996.052 Q106.571 996.052 109.626 1000.66 Q112.705 1005.24 112.705 1013.99 Q112.705 1022.72 109.626 1027.32 Q106.571 1031.91 100.76 1031.91 Q94.9502 1031.91 91.8715 1027.32 Q88.816 1022.72 88.816 1013.99 Q88.816 1005.24 91.8715 1000.66 Q94.9502 996.052 100.76 996.052 Z" fill="#000000" fill-rule="evenodd" fill-opacity="1" /><path clip-path="url(#clip500)" d="M120.922 1025.36 L125.807 1025.36 L125.807 1031.24 L120.922 1031.24 L120.922 1025.36 Z" fill="#000000" fill-rule="evenodd" fill-opacity="1" /><path clip-path="url(#clip500)" d="M140.019 1027.3 L156.339 1027.3 L156.339 1031.24 L134.394 1031.24 L134.394 1027.3 Q137.056 1024.55 141.64 1019.92 Q146.246 1015.26 147.427 1013.92 Q149.672 1011.4 150.552 1009.66 Q151.455 1007.9 151.455 1006.21 Q151.455 1003.46 149.51 1001.72 Q147.589 999.987 144.487 999.987 Q142.288 999.987 139.834 1000.75 Q137.404 1001.51 134.626 1003.07 L134.626 998.343 Q137.45 997.209 139.904 996.631 Q142.357 996.052 144.394 996.052 Q149.765 996.052 152.959 998.737 Q156.154 1001.42 156.154 1005.91 Q156.154 1008.04 155.343 1009.96 Q154.556 1011.86 152.45 1014.45 Q151.871 1015.13 148.769 1018.34 Q145.668 1021.54 140.019 1027.3 Z" fill="#000000" fill-rule="evenodd" fill-opacity="1" /><path clip-path="url(#clip500)" d="M98.6771 829.204 Q95.066 829.204 93.2373 832.768 Q91.4317 836.31 91.4317 843.44 Q91.4317 850.546 93.2373 854.111 Q95.066 857.652 98.6771 857.652 Q102.311 857.652 104.117 854.111 Q105.946 850.546 105.946 843.44 Q105.946 836.31 104.117 832.768 Q102.311 829.204 98.6771 829.204 M98.6771 825.5 Q104.487 825.5 107.543 830.106 Q110.621 834.69 110.621 843.44 Q110.621 852.166 107.543 856.773 Q104.487 861.356 98.6771 861.356 Q92.8669 861.356 89.7882 856.773 Q86.7327 852.166 86.7327 843.44 Q86.7327 834.69 89.7882 830.106 Q92.8669 825.5 98.6771 825.5 Z" fill="#000000" fill-rule="evenodd" fill-opacity="1" /><path clip-path="url(#clip500)" d="M118.839 854.805 L123.723 854.805 L123.723 860.685 L118.839 860.685 L118.839 854.805 Z" fill="#000000" fill-rule="evenodd" fill-opacity="1" /><path clip-path="url(#clip500)" d="M146.756 830.199 L134.95 848.648 L146.756 848.648 L146.756 830.199 M145.529 826.125 L151.408 826.125 L151.408 848.648 L156.339 848.648 L156.339 852.537 L151.408 852.537 L151.408 860.685 L146.756 860.685 L146.756 852.537 L131.154 852.537 L131.154 848.023 L145.529 826.125 Z" fill="#000000" fill-rule="evenodd" fill-opacity="1" /><path clip-path="url(#clip500)" d="M99.0011 658.652 Q95.39 658.652 93.5613 662.216 Q91.7558 665.758 91.7558 672.888 Q91.7558 679.994 93.5613 683.559 Q95.39 687.101 99.0011 687.101 Q102.635 687.101 104.441 683.559 Q106.27 679.994 106.27 672.888 Q106.27 665.758 104.441 662.216 Q102.635 658.652 99.0011 658.652 M99.0011 654.948 Q104.811 654.948 107.867 659.554 Q110.946 664.138 110.946 672.888 Q110.946 681.614 107.867 686.221 Q104.811 690.804 99.0011 690.804 Q93.191 690.804 90.1123 686.221 Q87.0567 681.614 87.0567 672.888 Q87.0567 664.138 90.1123 659.554 Q93.191 654.948 99.0011 654.948 Z" fill="#000000" fill-rule="evenodd" fill-opacity="1" /><path clip-path="url(#clip500)" d="M119.163 684.253 L124.047 684.253 L124.047 690.133 L119.163 690.133 L119.163 684.253 Z" fill="#000000" fill-rule="evenodd" fill-opacity="1" /><path clip-path="url(#clip500)" d="M144.811 670.989 Q141.663 670.989 139.811 673.142 Q137.982 675.295 137.982 679.045 Q137.982 682.772 139.811 684.948 Q141.663 687.101 144.811 687.101 Q147.959 687.101 149.788 684.948 Q151.64 682.772 151.64 679.045 Q151.64 675.295 149.788 673.142 Q147.959 670.989 144.811 670.989 M154.093 656.337 L154.093 660.596 Q152.334 659.763 150.529 659.323 Q148.746 658.883 146.987 658.883 Q142.357 658.883 139.904 662.008 Q137.473 665.133 137.126 671.452 Q138.492 669.439 140.552 668.374 Q142.612 667.286 145.089 667.286 Q150.297 667.286 153.306 670.457 Q156.339 673.605 156.339 679.045 Q156.339 684.369 153.191 687.587 Q150.043 690.804 144.811 690.804 Q138.816 690.804 135.644 686.221 Q132.473 681.614 132.473 672.888 Q132.473 664.693 136.362 659.832 Q140.251 654.948 146.802 654.948 Q148.561 654.948 150.343 655.295 Q152.149 655.642 154.093 656.337 Z" fill="#000000" fill-rule="evenodd" fill-opacity="1" /><path clip-path="url(#clip500)" d="M99.2558 488.1 Q95.6447 488.1 93.816 491.664 Q92.0104 495.206 92.0104 502.336 Q92.0104 509.442 93.816 513.007 Q95.6447 516.549 99.2558 516.549 Q102.89 516.549 104.696 513.007 Q106.524 509.442 106.524 502.336 Q106.524 495.206 104.696 491.664 Q102.89 488.1 99.2558 488.1 M99.2558 484.396 Q105.066 484.396 108.121 489.002 Q111.2 493.586 111.2 502.336 Q111.2 511.062 108.121 515.669 Q105.066 520.252 99.2558 520.252 Q93.4456 520.252 90.3669 515.669 Q87.3114 511.062 87.3114 502.336 Q87.3114 493.586 90.3669 489.002 Q93.4456 484.396 99.2558 484.396 Z" fill="#000000" fill-rule="evenodd" fill-opacity="1" /><path clip-path="url(#clip500)" d="M119.418 513.701 L124.302 513.701 L124.302 519.581 L119.418 519.581 L119.418 513.701 Z" fill="#000000" fill-rule="evenodd" fill-opacity="1" /><path clip-path="url(#clip500)" d="M144.487 503.169 Q141.154 503.169 139.232 504.951 Q137.334 506.734 137.334 509.859 Q137.334 512.984 139.232 514.766 Q141.154 516.549 144.487 516.549 Q147.82 516.549 149.742 514.766 Q151.663 512.961 151.663 509.859 Q151.663 506.734 149.742 504.951 Q147.843 503.169 144.487 503.169 M139.811 501.178 Q136.802 500.438 135.112 498.377 Q133.445 496.317 133.445 493.354 Q133.445 489.211 136.385 486.803 Q139.348 484.396 144.487 484.396 Q149.649 484.396 152.589 486.803 Q155.529 489.211 155.529 493.354 Q155.529 496.317 153.839 498.377 Q152.172 500.438 149.186 501.178 Q152.566 501.965 154.441 504.257 Q156.339 506.549 156.339 509.859 Q156.339 514.882 153.26 517.567 Q150.205 520.252 144.487 520.252 Q138.769 520.252 135.691 517.567 Q132.635 514.882 132.635 509.859 Q132.635 506.549 134.533 504.257 Q136.431 501.965 139.811 501.178 M138.098 493.794 Q138.098 496.479 139.765 497.984 Q141.455 499.488 144.487 499.488 Q147.496 499.488 149.186 497.984 Q150.899 496.479 150.899 493.794 Q150.899 491.109 149.186 489.604 Q147.496 488.1 144.487 488.1 Q141.455 488.1 139.765 489.604 Q138.098 491.109 138.098 493.794 Z" fill="#000000" fill-rule="evenodd" fill-opacity="1" /><path clip-path="url(#clip500)" d="M89.9734 345.094 L97.6122 345.094 L97.6122 318.728 L89.3021 320.395 L89.3021 316.136 L97.566 314.469 L102.242 314.469 L102.242 345.094 L109.881 345.094 L109.881 349.029 L89.9734 349.029 L89.9734 345.094 Z" fill="#000000" fill-rule="evenodd" fill-opacity="1" /><path clip-path="url(#clip500)" d="M119.325 343.149 L124.209 343.149 L124.209 349.029 L119.325 349.029 L119.325 343.149 Z" fill="#000000" fill-rule="evenodd" fill-opacity="1" /><path clip-path="url(#clip500)" d="M144.394 317.548 Q140.783 317.548 138.955 321.112 Q137.149 324.654 137.149 331.784 Q137.149 338.89 138.955 342.455 Q140.783 345.997 144.394 345.997 Q148.029 345.997 149.834 342.455 Q151.663 338.89 151.663 331.784 Q151.663 324.654 149.834 321.112 Q148.029 317.548 144.394 317.548 M144.394 313.844 Q150.205 313.844 153.26 318.45 Q156.339 323.034 156.339 331.784 Q156.339 340.511 153.26 345.117 Q150.205 349.7 144.394 349.7 Q138.584 349.7 135.506 345.117 Q132.45 340.511 132.45 331.784 Q132.45 323.034 135.506 318.45 Q138.584 313.844 144.394 313.844 Z" fill="#000000" fill-rule="evenodd" fill-opacity="1" /><path clip-path="url(#clip500)" d="M91.5706 174.542 L99.2095 174.542 L99.2095 148.176 L90.8993 149.843 L90.8993 145.584 L99.1632 143.917 L103.839 143.917 L103.839 174.542 L111.478 174.542 L111.478 178.477 L91.5706 178.477 L91.5706 174.542 Z" fill="#000000" fill-rule="evenodd" fill-opacity="1" /><path clip-path="url(#clip500)" d="M120.922 172.597 L125.807 172.597 L125.807 178.477 L120.922 178.477 L120.922 172.597 Z" fill="#000000" fill-rule="evenodd" fill-opacity="1" /><path clip-path="url(#clip500)" d="M140.019 174.542 L156.339 174.542 L156.339 178.477 L134.394 178.477 L134.394 174.542 Q137.056 171.787 141.64 167.158 Q146.246 162.505 147.427 161.162 Q149.672 158.639 150.552 156.903 Q151.455 155.144 151.455 153.454 Q151.455 150.699 149.51 148.963 Q147.589 147.227 144.487 147.227 Q142.288 147.227 139.834 147.991 Q137.404 148.755 134.626 150.306 L134.626 145.584 Q137.45 144.449 139.904 143.871 Q142.357 143.292 144.394 143.292 Q149.765 143.292 152.959 145.977 Q156.154 148.662 156.154 153.153 Q156.154 155.283 155.343 157.204 Q154.556 159.102 152.45 161.695 Q151.871 162.366 148.769 165.584 Q145.668 168.778 140.019 174.542 Z" fill="#000000" fill-rule="evenodd" fill-opacity="1" /><polyline clip-path="url(#clip502)" style="stroke:#009af9; stroke-linecap:butt; stroke-linejoin:round; stroke-width:12; stroke-opacity:1; fill:none" points="
  253.483,1184.51 274.07,1184.51 294.657,1184.51 315.244,1184.51 335.831,1161.77 356.418,1093.55 377.006,1025.33 397.593,957.106 418.18,888.885 438.767,820.665 
  459.354,752.444 479.941,684.223 500.529,616.002 521.116,547.781 541.703,479.561 562.29,411.34 582.877,343.119 603.464,388.6 624.052,456.82 644.639,525.041 
  665.226,593.262 685.813,661.483 706.4,729.704 726.987,797.924 747.575,866.145 768.162,934.366 788.749,1002.59 809.336,1070.81 829.923,1139.03 850.51,1184.51 
  871.098,1184.51 891.685,1184.51 912.272,1184.51 932.859,1184.51 953.446,1184.51 974.033,1184.51 994.621,1184.51 1015.21,1184.51 1035.79,1184.51 1056.38,1184.51 
  1076.97,331.749 1097.56,331.749 1118.14,331.749 1138.73,331.749 1159.32,331.749 1179.91,331.749 1200.49,331.749 1221.08,331.749 1241.67,331.749 1262.25,331.749 
  1282.84,331.749 1303.43,331.749 1324.02,331.749 1344.6,331.749 1365.19,331.749 1385.78,331.749 1406.36,331.749 1426.95,331.749 1447.54,331.749 1468.13,331.749 
  1488.71,1184.51 1509.3,1184.51 1529.89,1184.51 1550.47,1184.51 1571.06,1184.51 1591.65,1184.51 1612.24,1184.51 1632.82,1184.51 1653.41,1184.51 1674,1184.51 
  1694.58,1184.51 1715.17,1178.54 1735.76,1147.65 1756.35,1092.28 1776.93,1015.92 1797.52,923.358 1818.11,820.416 1838.69,713.56 1859.28,609.505 1879.87,514.788 
  1900.46,435.361 1921.04,376.215 1941.63,341.066 1962.22,332.123 1982.8,349.947 2003.39,393.419 2023.98,459.807 2044.57,544.939 2065.15,643.467 2085.74,749.199 
  2106.33,855.493 2126.91,955.669 2147.5,1043.43 2168.09,1113.27 2188.68,1160.79 2209.26,1183.01 2229.85,1184.51 2250.44,1184.51 2271.02,1184.51 2291.61,1184.51 
  
  "/>
<polyline clip-path="url(#clip502)" style="stroke:#e26f46; stroke-linecap:butt; stroke-linejoin:round; stroke-width:12; stroke-opacity:1; fill:none" points="
  253.483,1174.82 274.07,1176 294.657,1187.35 315.244,1187.05 335.831,1175.84 356.418,1180.16 377.006,1197.66 397.593,1204.63 418.18,1185.77 438.767,1145.41 
  459.354,1084.45 479.941,1030.04 500.529,946.132 521.116,899.285 541.703,819.858 562.29,738.295 582.877,694.188 603.464,636.186 624.052,537.719 644.639,438.136 
  665.226,380.934 685.813,375.728 706.4,409.319 726.987,463.331 747.575,526.424 768.162,595.922 788.749,657.098 809.336,733.77 829.923,800.742 850.51,857.768 
  871.098,929.064 891.685,1019.45 912.272,1078.65 932.859,1174.72 953.446,1088.27 974.033,1321.89 994.621,996.468 1015.21,1305.98 1035.79,1260.22 1056.38,988.499 
  1076.97,1147.06 1097.56,1418.87 1118.14,1372.74 1138.73,1064.57 1159.32,734.924 1179.91,512.779 1200.49,399.995 1221.08,353.749 1241.67,337.936 1262.25,333.029 
  1282.84,333.029 1303.43,328.121 1324.02,343.934 1344.6,297.687 1365.19,410.471 1385.78,188.325 1406.36,517.974 1426.95,209.802 1447.54,255.929 1468.13,527.736 
  1488.71,369.195 1509.3,97.3856 1529.89,143.515 1550.47,451.686 1571.06,781.303 1591.65,1003.62 1612.24,1115.84 1632.82,1163.36 1653.41,1177.33 1674,1183.12 
  1694.58,1185.99 1715.17,1183.26 1735.76,1180.84 1756.35,1185.17 1776.93,1193.3 1797.52,1195.33 1818.11,1181.58 1838.69,1146.51 1859.28,1089.06 1879.87,1011.47 
  1900.46,918.159 1921.04,814.834 1941.63,707.956 1962.22,604.233 1982.8,510.181 2003.39,431.707 2023.98,373.746 2044.57,339.932 2065.15,332.398 2085.74,351.646 
  2106.33,396.235 2126.91,464.283 2147.5,548.986 2168.09,649.949 2188.68,754.724 2209.26,859.213 2229.85,961.749 2250.44,1051.42 2271.02,1115.57 2291.61,1153.33 
  
  "/>
<polyline clip-path="url(#clip502)" style="stroke:#3da44d; stroke-linecap:butt; stroke-linejoin:round; stroke-width:12; stroke-opacity:1; fill:none" points="
  253.483,865.685 274.07,973.402 294.657,1057.19 315.244,1108.17 335.831,1142.07 356.418,1175.72 377.006,1178.58 397.593,1184.71 418.18,1162.95 438.767,1184.18 
  459.354,1198.07 479.941,1201.4 500.529,1213.02 521.116,1184.03 541.703,1127.24 562.29,1084.84 582.877,1034.46 603.464,952.784 624.052,870.722 644.639,817.96 
  665.226,772.617 685.813,709.468 706.4,606.334 726.987,507.545 747.575,426.598 768.162,386.104 788.749,382.598 809.336,440.879 829.923,428.679 850.51,594.695 
  871.098,492.059 891.685,807.425 912.272,596.56 932.859,839.836 953.446,922.973 974.033,817.701 994.621,1084.91 1015.21,1186.47 1035.79,1022.01 1056.38,1096.74 
  1076.97,1307.07 1097.56,1264 1118.14,1058.84 1138.73,1022.17 1159.32,1209.82 1179.91,1397.06 1200.49,1415.22 1221.08,1207.16 1241.67,993.983 1262.25,641.147 
  1282.84,641.147 1303.43,288.31 1324.02,501.486 1344.6,293.412 1365.19,275.289 1385.78,462.417 1406.36,275.115 1426.95,237.46 1447.54,445.193 1468.13,396.046 
  1488.71,198.745 1509.3,248.459 1529.89,455.458 1550.47,493.926 1571.06,306.784 1591.65,116.189 1612.24,109.231 1632.82,290.853 1653.41,558.867 1674,807.775 
  1694.58,983.54 1715.17,1087.27 1735.76,1143.52 1756.35,1171.39 1776.93,1180.58 1797.52,1179.53 1818.11,1177.95 1838.69,1182.35 1859.28,1192.3 1879.87,1201.39 
  1900.46,1200.98 1921.04,1183.81 1941.63,1145.77 1962.22,1086.21 1982.8,1007.12 2003.39,913.177 2023.98,808.931 2044.57,702.916 2065.15,598.322 2085.74,506.104 
  2106.33,428.217 2126.91,370.578 2147.5,339.576 2168.09,333.048 2188.68,352.69 2209.26,397.852 2229.85,472.327 2250.44,552.038 2271.02,653.231 2291.61,760.261 
  
  "/>
<polyline clip-path="url(#clip502)" style="stroke:#c271d2; stroke-linecap:butt; stroke-linejoin:round; stroke-width:12; stroke-opacity:1; fill:none" points="
  253.483,401.966 274.07,479.335 294.657,547.916 315.244,660.551 335.831,766.142 356.418,886.046 377.006,977.521 397.593,1039.81 418.18,1112.79 438.767,1153.02 
  459.354,1161.89 479.941,1173.37 500.529,1171.22 521.116,1164.9 541.703,1186.44 562.29,1218.17 582.877,1213.42 603.464,1195.66 624.052,1171.91 644.639,1149.59 
  665.226,1085.78 685.813,1014.44 706.4,916.689 726.987,925.508 747.575,777.954 768.162,873.5 788.749,577.207 809.336,702.088 829.923,404.986 850.51,430.316 
  871.098,473.989 891.685,290.202 912.272,463.929 932.859,538.068 953.446,440.214 974.033,615.848 994.621,754.667 1015.21,653.849 1035.79,709.139 1056.38,953.319 
  1076.97,1039.91 1097.56,938.108 1118.14,1008.78 1138.73,1151.24 1159.32,1359.99 1179.91,1105.08 1200.49,1157.56 1221.08,906.083 1241.67,1254.46 1262.25,1350.24 
  1282.84,1350.5 1303.43,1445.72 1324.02,1098.93 1344.6,843.972 1365.19,798.764 1385.78,529.879 1406.36,345.809 1426.95,448.578 1447.54,435.491 1468.13,259.221 
  1488.71,257.303 1509.3,417.672 1529.89,435.226 1550.47,274.598 1571.06,190.64 1591.65,306.037 1612.24,468.984 1632.82,488.286 1653.41,342.463 1674,161.469 
  1694.58,87.9763 1715.17,174.2 1735.76,375.694 1756.35,610.544 1776.93,817.04 1797.52,971.272 1818.11,1073.97 1838.69,1134.12 1859.28,1162.37 1879.87,1171.21 
  1900.46,1172.62 1921.04,1177.08 1941.63,1186.06 1962.22,1199.63 1982.8,1207.44 2003.39,1205.57 2023.98,1185.8 2044.57,1144.28 2065.15,1084.09 2085.74,1002.61 
  2106.33,908.336 2126.91,802.224 2147.5,699.778 2168.09,591.057 2188.68,500.959 2209.26,427.513 2229.85,366.633 2250.44,337.99 2271.02,333.292 2291.61,355.314 
  
  "/>
<polyline clip-path="url(#clip502)" style="stroke:#ac8d18; stroke-linecap:butt; stroke-linejoin:round; stroke-width:12; stroke-opacity:1; fill:none" points="
  253.483,420.296 274.07,363.554 294.657,337.854 315.244,331.456 335.831,366.446 356.418,405.928 377.006,460.779 397.593,564.999 418.18,675.327 438.767,775.615 
  459.354,881.868 479.941,981.036 500.529,1046.12 521.116,1111.96 541.703,1149.7 562.29,1164.88 582.877,1139.81 603.464,1179.38 624.052,1152.02 644.639,1263.96 
  665.226,1119.59 685.813,1309.87 706.4,1101.51 726.987,1275.03 747.575,1100.34 768.162,1032.49 788.749,1081.52 809.336,861.134 829.923,927.555 850.51,919.05 
  871.098,685.05 891.685,688.6 912.272,638.317 932.859,409.004 953.446,407.877 974.033,476.047 994.621,386.625 1015.21,329.993 1035.79,571.629 1056.38,565.969 
  1076.97,624.85 1097.56,458.999 1118.14,867.582 1138.73,812.002 1159.32,909.188 1179.91,881.664 1200.49,889.813 1221.08,1259.1 1241.67,1242.98 1262.25,1116.87 
  1282.84,1131.48 1303.43,989.039 1324.02,1047.32 1344.6,1364.66 1365.19,1427.57 1385.78,1318.43 1406.36,1307.15 1426.95,1171.92 1447.54,830.606 1468.13,609.196 
  1488.71,601.537 1509.3,542.31 1529.89,353.664 1550.47,259.141 1571.06,354.701 1591.65,454.403 1612.24,393.305 1632.82,247.364 1653.41,199.014 1674,305.47 
  1694.58,454.25 1715.17,498.851 1735.76,396.21 1756.35,225.43 1776.93,105.582 1797.52,109.466 1818.11,233.196 1838.69,428.622 1859.28,637.421 1879.87,824.405 
  1900.46,967.93 1921.04,1066.34 1941.63,1124.24 1962.22,1150.25 1982.8,1162.7 2003.39,1167.47 2023.98,1178.58 2044.57,1189.59 2065.15,1207.46 2085.74,1211.9 
  2106.33,1208.54 2126.91,1189.65 2147.5,1141.04 2168.09,1081.43 2188.68,999.547 2209.26,903.798 2229.85,793.782 2250.44,698.058 2271.02,581.144 2291.61,502.598 
  
  "/>
</svg>
