<?xml version="1.0" encoding="utf-8"?>
<svg xmlns="http://www.w3.org/2000/svg" xmlns:xlink="http://www.w3.org/1999/xlink" width="600" height="400" viewBox="0 0 2400 1600">
<defs>
  <clipPath id="clip080">
    <rect x="0" y="0" width="2400" height="1600"/>
  </clipPath>
</defs>
<path clip-path="url(#clip080)" d="
M0 1600 L2400 1600 L2400 0 L0 0  Z
  " fill="#ffffff" fill-rule="evenodd" fill-opacity="1"/>
<defs>
  <clipPath id="clip081">
    <rect x="480" y="0" width="1681" height="1600"/>
  </clipPath>
</defs>
<path clip-path="url(#clip080)" d="
M186.274 1486.45 L2352.76 1486.45 L2352.76 47.2441 L186.274 47.2441  Z
  " fill="#ffffff" fill-rule="evenodd" fill-opacity="1"/>
<defs>
  <clipPath id="clip082">
    <rect x="186" y="47" width="2167" height="1440"/>
  </clipPath>
</defs>
<polyline clip-path="url(#clip082)" style="stroke:#000000; stroke-linecap:butt; stroke-linejoin:round; stroke-width:2; stroke-opacity:0.1; fill:none" points="
  247.59,1486.45 247.59,47.2441 
  "/>
<polyline clip-path="url(#clip082)" style="stroke:#000000; stroke-linecap:butt; stroke-linejoin:round; stroke-width:2; stroke-opacity:0.1; fill:none" points="
  758.552,1486.45 758.552,47.2441 
  "/>
<polyline clip-path="url(#clip082)" style="stroke:#000000; stroke-linecap:butt; stroke-linejoin:round; stroke-width:2; stroke-opacity:0.1; fill:none" points="
  1269.51,1486.45 1269.51,47.2441 
  "/>
<polyline clip-path="url(#clip082)" style="stroke:#000000; stroke-linecap:butt; stroke-linejoin:round; stroke-width:2; stroke-opacity:0.1; fill:none" points="
  1780.48,1486.45 1780.48,47.2441 
  "/>
<polyline clip-path="url(#clip082)" style="stroke:#000000; stroke-linecap:butt; stroke-linejoin:round; stroke-width:2; stroke-opacity:0.1; fill:none" points="
  2291.44,1486.45 2291.44,47.2441 
  "/>
<polyline clip-path="url(#clip080)" style="stroke:#000000; stroke-linecap:butt; stroke-linejoin:round; stroke-width:4; stroke-opacity:1; fill:none" points="
  186.274,1486.45 2352.76,1486.45 
  "/>
<polyline clip-path="url(#clip080)" style="stroke:#000000; stroke-linecap:butt; stroke-linejoin:round; stroke-width:4; stroke-opacity:1; fill:none" points="
  247.59,1486.45 247.59,1467.55 
  "/>
<polyline clip-path="url(#clip080)" style="stroke:#000000; stroke-linecap:butt; stroke-linejoin:round; stroke-width:4; stroke-opacity:1; fill:none" points="
  758.552,1486.45 758.552,1467.55 
  "/>
<polyline clip-path="url(#clip080)" style="stroke:#000000; stroke-linecap:butt; stroke-linejoin:round; stroke-width:4; stroke-opacity:1; fill:none" points="
  1269.51,1486.45 1269.51,1467.55 
  "/>
<polyline clip-path="url(#clip080)" style="stroke:#000000; stroke-linecap:butt; stroke-linejoin:round; stroke-width:4; stroke-opacity:1; fill:none" points="
  1780.48,1486.45 1780.48,1467.55 
  "/>
<polyline clip-path="url(#clip080)" style="stroke:#000000; stroke-linecap:butt; stroke-linejoin:round; stroke-width:4; stroke-opacity:1; fill:none" points="
  2291.44,1486.45 2291.44,1467.55 
  "/>
<path clip-path="url(#clip080)" d="M194.118 1532.02 L223.793 1532.02 L223.793 1535.95 L194.118 1535.95 L194.118 1532.02 Z" fill="#000000" fill-rule="evenodd" fill-opacity="1" /><path clip-path="url(#clip080)" d="M234.696 1544.91 L242.335 1544.91 L242.335 1518.55 L234.025 1520.21 L234.025 1515.95 L242.289 1514.29 L246.965 1514.29 L246.965 1544.91 L254.603 1544.91 L254.603 1548.85 L234.696 1548.85 L234.696 1544.91 Z" fill="#000000" fill-rule="evenodd" fill-opacity="1" /><path clip-path="url(#clip080)" d="M264.048 1542.97 L268.932 1542.97 L268.932 1548.85 L264.048 1548.85 L264.048 1542.97 Z" fill="#000000" fill-rule="evenodd" fill-opacity="1" /><path clip-path="url(#clip080)" d="M289.117 1517.37 Q285.506 1517.37 283.677 1520.93 Q281.872 1524.47 281.872 1531.6 Q281.872 1538.71 283.677 1542.27 Q285.506 1545.82 289.117 1545.82 Q292.751 1545.82 294.557 1542.27 Q296.386 1538.71 296.386 1531.6 Q296.386 1524.47 294.557 1520.93 Q292.751 1517.37 289.117 1517.37 M289.117 1513.66 Q294.927 1513.66 297.983 1518.27 Q301.061 1522.85 301.061 1531.6 Q301.061 1540.33 297.983 1544.94 Q294.927 1549.52 289.117 1549.52 Q283.307 1549.52 280.228 1544.94 Q277.173 1540.33 277.173 1531.6 Q277.173 1522.85 280.228 1518.27 Q283.307 1513.66 289.117 1513.66 Z" fill="#000000" fill-rule="evenodd" fill-opacity="1" /><path clip-path="url(#clip080)" d="M705.578 1532.02 L735.254 1532.02 L735.254 1535.95 L705.578 1535.95 L705.578 1532.02 Z" fill="#000000" fill-rule="evenodd" fill-opacity="1" /><path clip-path="url(#clip080)" d="M755.346 1517.37 Q751.735 1517.37 749.906 1520.93 Q748.101 1524.47 748.101 1531.6 Q748.101 1538.71 749.906 1542.27 Q751.735 1545.82 755.346 1545.82 Q758.98 1545.82 760.786 1542.27 Q762.615 1538.71 762.615 1531.6 Q762.615 1524.47 760.786 1520.93 Q758.98 1517.37 755.346 1517.37 M755.346 1513.66 Q761.156 1513.66 764.212 1518.27 Q767.291 1522.85 767.291 1531.6 Q767.291 1540.33 764.212 1544.94 Q761.156 1549.52 755.346 1549.52 Q749.536 1549.52 746.457 1544.94 Q743.402 1540.33 743.402 1531.6 Q743.402 1522.85 746.457 1518.27 Q749.536 1513.66 755.346 1513.66 Z" fill="#000000" fill-rule="evenodd" fill-opacity="1" /><path clip-path="url(#clip080)" d="M775.508 1542.97 L780.392 1542.97 L780.392 1548.85 L775.508 1548.85 L775.508 1542.97 Z" fill="#000000" fill-rule="evenodd" fill-opacity="1" /><path clip-path="url(#clip080)" d="M790.624 1514.29 L808.98 1514.29 L808.98 1518.22 L794.906 1518.22 L794.906 1526.7 Q795.925 1526.35 796.943 1526.19 Q797.962 1526 798.98 1526 Q804.767 1526 808.147 1529.17 Q811.526 1532.34 811.526 1537.76 Q811.526 1543.34 808.054 1546.44 Q804.582 1549.52 798.263 1549.52 Q796.087 1549.52 793.818 1549.15 Q791.573 1548.78 789.166 1548.04 L789.166 1543.34 Q791.249 1544.47 793.471 1545.03 Q795.693 1545.58 798.17 1545.58 Q802.175 1545.58 804.513 1543.48 Q806.851 1541.37 806.851 1537.76 Q806.851 1534.15 804.513 1532.04 Q802.175 1529.94 798.17 1529.94 Q796.295 1529.94 794.42 1530.35 Q792.568 1530.77 790.624 1531.65 L790.624 1514.29 Z" fill="#000000" fill-rule="evenodd" fill-opacity="1" /><path clip-path="url(#clip080)" d="M1246.9 1517.37 Q1243.29 1517.37 1241.46 1520.93 Q1239.65 1524.47 1239.65 1531.6 Q1239.65 1538.71 1241.46 1542.27 Q1243.29 1545.82 1246.9 1545.82 Q1250.53 1545.82 1252.34 1542.27 Q1254.17 1538.71 1254.17 1531.6 Q1254.17 1524.47 1252.34 1520.93 Q1250.53 1517.37 1246.9 1517.37 M1246.9 1513.66 Q1252.71 1513.66 1255.77 1518.27 Q1258.84 1522.85 1258.84 1531.6 Q1258.84 1540.33 1255.77 1544.94 Q1252.71 1549.52 1246.9 1549.52 Q1241.09 1549.52 1238.01 1544.94 Q1234.95 1540.33 1234.95 1531.6 Q1234.95 1522.85 1238.01 1518.27 Q1241.09 1513.66 1246.9 1513.66 Z" fill="#000000" fill-rule="evenodd" fill-opacity="1" /><path clip-path="url(#clip080)" d="M1267.06 1542.97 L1271.95 1542.97 L1271.95 1548.85 L1267.06 1548.85 L1267.06 1542.97 Z" fill="#000000" fill-rule="evenodd" fill-opacity="1" /><path clip-path="url(#clip080)" d="M1292.13 1517.37 Q1288.52 1517.37 1286.69 1520.93 Q1284.89 1524.47 1284.89 1531.6 Q1284.89 1538.71 1286.69 1542.27 Q1288.52 1545.82 1292.13 1545.82 Q1295.76 1545.82 1297.57 1542.27 Q1299.4 1538.71 1299.4 1531.6 Q1299.4 1524.47 1297.57 1520.93 Q1295.76 1517.37 1292.13 1517.37 M1292.13 1513.66 Q1297.94 1513.66 1301 1518.27 Q1304.07 1522.85 1304.07 1531.6 Q1304.07 1540.33 1301 1544.94 Q1297.94 1549.52 1292.13 1549.52 Q1286.32 1549.52 1283.24 1544.94 Q1280.19 1540.33 1280.19 1531.6 Q1280.19 1522.85 1283.24 1518.27 Q1286.32 1513.66 1292.13 1513.66 Z" fill="#000000" fill-rule="evenodd" fill-opacity="1" /><path clip-path="url(#clip080)" d="M1758.36 1517.37 Q1754.75 1517.37 1752.92 1520.93 Q1751.11 1524.47 1751.11 1531.6 Q1751.11 1538.71 1752.92 1542.27 Q1754.75 1545.82 1758.36 1545.82 Q1761.99 1545.82 1763.8 1542.27 Q1765.63 1538.71 1765.63 1531.6 Q1765.63 1524.47 1763.8 1520.93 Q1761.99 1517.37 1758.36 1517.37 M1758.36 1513.66 Q1764.17 1513.66 1767.23 1518.27 Q1770.3 1522.85 1770.3 1531.6 Q1770.3 1540.33 1767.23 1544.94 Q1764.17 1549.52 1758.36 1549.52 Q1752.55 1549.52 1749.47 1544.94 Q1746.42 1540.33 1746.42 1531.6 Q1746.42 1522.85 1749.47 1518.27 Q1752.55 1513.66 1758.36 1513.66 Z" fill="#000000" fill-rule="evenodd" fill-opacity="1" /><path clip-path="url(#clip080)" d="M1778.52 1542.97 L1783.41 1542.97 L1783.41 1548.85 L1778.52 1548.85 L1778.52 1542.97 Z" fill="#000000" fill-rule="evenodd" fill-opacity="1" /><path clip-path="url(#clip080)" d="M1793.64 1514.29 L1811.99 1514.29 L1811.99 1518.22 L1797.92 1518.22 L1797.92 1526.7 Q1798.94 1526.35 1799.96 1526.19 Q1800.98 1526 1801.99 1526 Q1807.78 1526 1811.16 1529.17 Q1814.54 1532.34 1814.54 1537.76 Q1814.54 1543.34 1811.07 1546.44 Q1807.6 1549.52 1801.28 1549.52 Q1799.1 1549.52 1796.83 1549.15 Q1794.59 1548.78 1792.18 1548.04 L1792.18 1543.34 Q1794.26 1544.47 1796.48 1545.03 Q1798.71 1545.58 1801.18 1545.58 Q1805.19 1545.58 1807.53 1543.48 Q1809.86 1541.37 1809.86 1537.76 Q1809.86 1534.15 1807.53 1532.04 Q1805.19 1529.94 1801.18 1529.94 Q1799.31 1529.94 1797.43 1530.35 Q1795.58 1530.77 1793.64 1531.65 L1793.64 1514.29 Z" fill="#000000" fill-rule="evenodd" fill-opacity="1" /><path clip-path="url(#clip080)" d="M2258.59 1544.91 L2266.23 1544.91 L2266.23 1518.55 L2257.92 1520.21 L2257.92 1515.95 L2266.19 1514.29 L2270.86 1514.29 L2270.86 1544.91 L2278.5 1544.91 L2278.5 1548.85 L2258.59 1548.85 L2258.59 1544.91 Z" fill="#000000" fill-rule="evenodd" fill-opacity="1" /><path clip-path="url(#clip080)" d="M2287.95 1542.97 L2292.83 1542.97 L2292.83 1548.85 L2287.95 1548.85 L2287.95 1542.97 Z" fill="#000000" fill-rule="evenodd" fill-opacity="1" /><path clip-path="url(#clip080)" d="M2313.01 1517.37 Q2309.4 1517.37 2307.57 1520.93 Q2305.77 1524.47 2305.77 1531.6 Q2305.77 1538.71 2307.57 1542.27 Q2309.4 1545.82 2313.01 1545.82 Q2316.65 1545.82 2318.45 1542.27 Q2320.28 1538.71 2320.28 1531.6 Q2320.28 1524.47 2318.45 1520.93 Q2316.65 1517.37 2313.01 1517.37 M2313.01 1513.66 Q2318.82 1513.66 2321.88 1518.27 Q2324.96 1522.85 2324.96 1531.6 Q2324.96 1540.33 2321.88 1544.94 Q2318.82 1549.52 2313.01 1549.52 Q2307.2 1549.52 2304.13 1544.94 Q2301.07 1540.33 2301.07 1531.6 Q2301.07 1522.85 2304.13 1518.27 Q2307.2 1513.66 2313.01 1513.66 Z" fill="#000000" fill-rule="evenodd" fill-opacity="1" /><polyline clip-path="url(#clip082)" style="stroke:#000000; stroke-linecap:butt; stroke-linejoin:round; stroke-width:2; stroke-opacity:0.1; fill:none" points="
  186.274,1358.22 2352.76,1358.22 
  "/>
<polyline clip-path="url(#clip082)" style="stroke:#000000; stroke-linecap:butt; stroke-linejoin:round; stroke-width:2; stroke-opacity:0.1; fill:none" points="
  186.274,1062.56 2352.76,1062.56 
  "/>
<polyline clip-path="url(#clip082)" style="stroke:#000000; stroke-linecap:butt; stroke-linejoin:round; stroke-width:2; stroke-opacity:0.1; fill:none" points="
  186.274,766.902 2352.76,766.902 
  "/>
<polyline clip-path="url(#clip082)" style="stroke:#000000; stroke-linecap:butt; stroke-linejoin:round; stroke-width:2; stroke-opacity:0.1; fill:none" points="
  186.274,471.246 2352.76,471.246 
  "/>
<polyline clip-path="url(#clip082)" style="stroke:#000000; stroke-linecap:butt; stroke-linejoin:round; stroke-width:2; stroke-opacity:0.1; fill:none" points="
  186.274,175.589 2352.76,175.589 
  "/>
<polyline clip-path="url(#clip080)" style="stroke:#000000; stroke-linecap:butt; stroke-linejoin:round; stroke-width:4; stroke-opacity:1; fill:none" points="
  186.274,1486.45 186.274,47.2441 
  "/>
<polyline clip-path="url(#clip080)" style="stroke:#000000; stroke-linecap:butt; stroke-linejoin:round; stroke-width:4; stroke-opacity:1; fill:none" points="
  186.274,1358.22 205.172,1358.22 
  "/>
<polyline clip-path="url(#clip080)" style="stroke:#000000; stroke-linecap:butt; stroke-linejoin:round; stroke-width:4; stroke-opacity:1; fill:none" points="
  186.274,1062.56 205.172,1062.56 
  "/>
<polyline clip-path="url(#clip080)" style="stroke:#000000; stroke-linecap:butt; stroke-linejoin:round; stroke-width:4; stroke-opacity:1; fill:none" points="
  186.274,766.902 205.172,766.902 
  "/>
<polyline clip-path="url(#clip080)" style="stroke:#000000; stroke-linecap:butt; stroke-linejoin:round; stroke-width:4; stroke-opacity:1; fill:none" points="
  186.274,471.246 205.172,471.246 
  "/>
<polyline clip-path="url(#clip080)" style="stroke:#000000; stroke-linecap:butt; stroke-linejoin:round; stroke-width:4; stroke-opacity:1; fill:none" points="
  186.274,175.589 205.172,175.589 
  "/>
<path clip-path="url(#clip080)" d="M62.9365 1344.01 Q59.3254 1344.01 57.4967 1347.58 Q55.6912 1351.12 55.6912 1358.25 Q55.6912 1365.36 57.4967 1368.92 Q59.3254 1372.46 62.9365 1372.46 Q66.5707 1372.46 68.3763 1368.92 Q70.205 1365.36 70.205 1358.25 Q70.205 1351.12 68.3763 1347.58 Q66.5707 1344.01 62.9365 1344.01 M62.9365 1340.31 Q68.7467 1340.31 71.8022 1344.92 Q74.8809 1349.5 74.8809 1358.25 Q74.8809 1366.98 71.8022 1371.58 Q68.7467 1376.17 62.9365 1376.17 Q57.1264 1376.17 54.0477 1371.58 Q50.9921 1366.98 50.9921 1358.25 Q50.9921 1349.5 54.0477 1344.92 Q57.1264 1340.31 62.9365 1340.31 Z" fill="#000000" fill-rule="evenodd" fill-opacity="1" /><path clip-path="url(#clip080)" d="M83.0984 1369.62 L87.9827 1369.62 L87.9827 1375.5 L83.0984 1375.5 L83.0984 1369.62 Z" fill="#000000" fill-rule="evenodd" fill-opacity="1" /><path clip-path="url(#clip080)" d="M108.168 1344.01 Q104.557 1344.01 102.728 1347.58 Q100.922 1351.12 100.922 1358.25 Q100.922 1365.36 102.728 1368.92 Q104.557 1372.46 108.168 1372.46 Q111.802 1372.46 113.608 1368.92 Q115.436 1365.36 115.436 1358.25 Q115.436 1351.12 113.608 1347.58 Q111.802 1344.01 108.168 1344.01 M108.168 1340.31 Q113.978 1340.31 117.033 1344.92 Q120.112 1349.5 120.112 1358.25 Q120.112 1366.98 117.033 1371.58 Q113.978 1376.17 108.168 1376.17 Q102.358 1376.17 99.2789 1371.58 Q96.2234 1366.98 96.2234 1358.25 Q96.2234 1349.5 99.2789 1344.92 Q102.358 1340.31 108.168 1340.31 Z" fill="#000000" fill-rule="evenodd" fill-opacity="1" /><path clip-path="url(#clip080)" d="M138.33 1344.01 Q134.719 1344.01 132.89 1347.58 Q131.084 1351.12 131.084 1358.25 Q131.084 1365.36 132.89 1368.92 Q134.719 1372.46 138.33 1372.46 Q141.964 1372.46 143.769 1368.92 Q145.598 1365.36 145.598 1358.25 Q145.598 1351.12 143.769 1347.58 Q141.964 1344.01 138.33 1344.01 M138.33 1340.31 Q144.14 1340.31 147.195 1344.92 Q150.274 1349.5 150.274 1358.25 Q150.274 1366.98 147.195 1371.58 Q144.14 1376.17 138.33 1376.17 Q132.519 1376.17 129.441 1371.58 Q126.385 1366.98 126.385 1358.25 Q126.385 1349.5 129.441 1344.92 Q132.519 1340.31 138.33 1340.31 Z" fill="#000000" fill-rule="evenodd" fill-opacity="1" /><path clip-path="url(#clip080)" d="M63.9319 1048.36 Q60.3208 1048.36 58.4921 1051.92 Q56.6865 1055.46 56.6865 1062.59 Q56.6865 1069.7 58.4921 1073.26 Q60.3208 1076.81 63.9319 1076.81 Q67.5661 1076.81 69.3717 1073.26 Q71.2004 1069.7 71.2004 1062.59 Q71.2004 1055.46 69.3717 1051.92 Q67.5661 1048.36 63.9319 1048.36 M63.9319 1044.65 Q69.742 1044.65 72.7976 1049.26 Q75.8763 1053.84 75.8763 1062.59 Q75.8763 1071.32 72.7976 1075.93 Q69.742 1080.51 63.9319 1080.51 Q58.1217 1080.51 55.043 1075.93 Q51.9875 1071.32 51.9875 1062.59 Q51.9875 1053.84 55.043 1049.26 Q58.1217 1044.65 63.9319 1044.65 Z" fill="#000000" fill-rule="evenodd" fill-opacity="1" /><path clip-path="url(#clip080)" d="M84.0938 1073.96 L88.978 1073.96 L88.978 1079.84 L84.0938 1079.84 L84.0938 1073.96 Z" fill="#000000" fill-rule="evenodd" fill-opacity="1" /><path clip-path="url(#clip080)" d="M103.191 1075.9 L119.51 1075.9 L119.51 1079.84 L97.566 1079.84 L97.566 1075.9 Q100.228 1073.15 104.811 1068.52 Q109.418 1063.87 110.598 1062.52 Q112.844 1060 113.723 1058.26 Q114.626 1056.51 114.626 1054.82 Q114.626 1052.06 112.682 1050.33 Q110.76 1048.59 107.658 1048.59 Q105.459 1048.59 103.006 1049.35 Q100.575 1050.12 97.7974 1051.67 L97.7974 1046.95 Q100.621 1045.81 103.075 1045.23 Q105.529 1044.65 107.566 1044.65 Q112.936 1044.65 116.131 1047.34 Q119.325 1050.02 119.325 1054.51 Q119.325 1056.64 118.515 1058.57 Q117.728 1060.46 115.621 1063.06 Q115.043 1063.73 111.941 1066.95 Q108.839 1070.14 103.191 1075.9 Z" fill="#000000" fill-rule="evenodd" fill-opacity="1" /><path clip-path="url(#clip080)" d="M129.371 1045.28 L147.728 1045.28 L147.728 1049.21 L133.654 1049.21 L133.654 1057.69 Q134.672 1057.34 135.691 1057.18 Q136.709 1056.99 137.728 1056.99 Q143.515 1056.99 146.894 1060.16 Q150.274 1063.33 150.274 1068.75 Q150.274 1074.33 146.802 1077.43 Q143.33 1080.51 137.01 1080.51 Q134.834 1080.51 132.566 1080.14 Q130.32 1079.77 127.913 1079.03 L127.913 1074.33 Q129.996 1075.46 132.219 1076.02 Q134.441 1076.58 136.918 1076.58 Q140.922 1076.58 143.26 1074.47 Q145.598 1072.36 145.598 1068.75 Q145.598 1065.14 143.26 1063.03 Q140.922 1060.93 136.918 1060.93 Q135.043 1060.93 133.168 1061.34 Q131.316 1061.76 129.371 1062.64 L129.371 1045.28 Z" fill="#000000" fill-rule="evenodd" fill-opacity="1" /><path clip-path="url(#clip080)" d="M62.9365 752.701 Q59.3254 752.701 57.4967 756.266 Q55.6912 759.808 55.6912 766.937 Q55.6912 774.044 57.4967 777.608 Q59.3254 781.15 62.9365 781.15 Q66.5707 781.15 68.3763 777.608 Q70.205 774.044 70.205 766.937 Q70.205 759.808 68.3763 756.266 Q66.5707 752.701 62.9365 752.701 M62.9365 748.997 Q68.7467 748.997 71.8022 753.604 Q74.8809 758.187 74.8809 766.937 Q74.8809 775.664 71.8022 780.27 Q68.7467 784.854 62.9365 784.854 Q57.1264 784.854 54.0477 780.27 Q50.9921 775.664 50.9921 766.937 Q50.9921 758.187 54.0477 753.604 Q57.1264 748.997 62.9365 748.997 Z" fill="#000000" fill-rule="evenodd" fill-opacity="1" /><path clip-path="url(#clip080)" d="M83.0984 778.303 L87.9827 778.303 L87.9827 784.182 L83.0984 784.182 L83.0984 778.303 Z" fill="#000000" fill-rule="evenodd" fill-opacity="1" /><path clip-path="url(#clip080)" d="M98.2141 749.622 L116.57 749.622 L116.57 753.558 L102.496 753.558 L102.496 762.03 Q103.515 761.682 104.534 761.52 Q105.552 761.335 106.571 761.335 Q112.358 761.335 115.737 764.507 Q119.117 767.678 119.117 773.094 Q119.117 778.673 115.645 781.775 Q112.172 784.854 105.853 784.854 Q103.677 784.854 101.409 784.483 Q99.1632 784.113 96.7558 783.372 L96.7558 778.673 Q98.8391 779.807 101.061 780.363 Q103.284 780.919 105.76 780.919 Q109.765 780.919 112.103 778.812 Q114.441 776.706 114.441 773.094 Q114.441 769.483 112.103 767.377 Q109.765 765.27 105.76 765.27 Q103.885 765.27 102.01 765.687 Q100.159 766.104 98.2141 766.983 L98.2141 749.622 Z" fill="#000000" fill-rule="evenodd" fill-opacity="1" /><path clip-path="url(#clip080)" d="M138.33 752.701 Q134.719 752.701 132.89 756.266 Q131.084 759.808 131.084 766.937 Q131.084 774.044 132.89 777.608 Q134.719 781.15 138.33 781.15 Q141.964 781.15 143.769 777.608 Q145.598 774.044 145.598 766.937 Q145.598 759.808 143.769 756.266 Q141.964 752.701 138.33 752.701 M138.33 748.997 Q144.14 748.997 147.195 753.604 Q150.274 758.187 150.274 766.937 Q150.274 775.664 147.195 780.27 Q144.14 784.854 138.33 784.854 Q132.519 784.854 129.441 780.27 Q126.385 775.664 126.385 766.937 Q126.385 758.187 129.441 753.604 Q132.519 748.997 138.33 748.997 Z" fill="#000000" fill-rule="evenodd" fill-opacity="1" /><path clip-path="url(#clip080)" d="M63.9319 457.045 Q60.3208 457.045 58.4921 460.609 Q56.6865 464.151 56.6865 471.281 Q56.6865 478.387 58.4921 481.952 Q60.3208 485.493 63.9319 485.493 Q67.5661 485.493 69.3717 481.952 Q71.2004 478.387 71.2004 471.281 Q71.2004 464.151 69.3717 460.609 Q67.5661 457.045 63.9319 457.045 M63.9319 453.341 Q69.742 453.341 72.7976 457.947 Q75.8763 462.531 75.8763 471.281 Q75.8763 480.007 72.7976 484.614 Q69.742 489.197 63.9319 489.197 Q58.1217 489.197 55.043 484.614 Q51.9875 480.007 51.9875 471.281 Q51.9875 462.531 55.043 457.947 Q58.1217 453.341 63.9319 453.341 Z" fill="#000000" fill-rule="evenodd" fill-opacity="1" /><path clip-path="url(#clip080)" d="M84.0938 482.646 L88.978 482.646 L88.978 488.526 L84.0938 488.526 L84.0938 482.646 Z" fill="#000000" fill-rule="evenodd" fill-opacity="1" /><path clip-path="url(#clip080)" d="M97.9826 453.966 L120.205 453.966 L120.205 455.957 L107.658 488.526 L102.774 488.526 L114.58 457.901 L97.9826 457.901 L97.9826 453.966 Z" fill="#000000" fill-rule="evenodd" fill-opacity="1" /><path clip-path="url(#clip080)" d="M129.371 453.966 L147.728 453.966 L147.728 457.901 L133.654 457.901 L133.654 466.373 Q134.672 466.026 135.691 465.864 Q136.709 465.679 137.728 465.679 Q143.515 465.679 146.894 468.85 Q150.274 472.021 150.274 477.438 Q150.274 483.017 146.802 486.118 Q143.33 489.197 137.01 489.197 Q134.834 489.197 132.566 488.827 Q130.32 488.456 127.913 487.716 L127.913 483.017 Q129.996 484.151 132.219 484.706 Q134.441 485.262 136.918 485.262 Q140.922 485.262 143.26 483.156 Q145.598 481.049 145.598 477.438 Q145.598 473.827 143.26 471.72 Q140.922 469.614 136.918 469.614 Q135.043 469.614 133.168 470.031 Q131.316 470.447 129.371 471.327 L129.371 453.966 Z" fill="#000000" fill-rule="evenodd" fill-opacity="1" /><path clip-path="url(#clip080)" d="M53.7467 188.934 L61.3856 188.934 L61.3856 162.569 L53.0754 164.235 L53.0754 159.976 L61.3393 158.309 L66.0152 158.309 L66.0152 188.934 L73.654 188.934 L73.654 192.869 L53.7467 192.869 L53.7467 188.934 Z" fill="#000000" fill-rule="evenodd" fill-opacity="1" /><path clip-path="url(#clip080)" d="M83.0984 186.99 L87.9827 186.99 L87.9827 192.869 L83.0984 192.869 L83.0984 186.99 Z" fill="#000000" fill-rule="evenodd" fill-opacity="1" /><path clip-path="url(#clip080)" d="M108.168 161.388 Q104.557 161.388 102.728 164.953 Q100.922 168.494 100.922 175.624 Q100.922 182.73 102.728 186.295 Q104.557 189.837 108.168 189.837 Q111.802 189.837 113.608 186.295 Q115.436 182.73 115.436 175.624 Q115.436 168.494 113.608 164.953 Q111.802 161.388 108.168 161.388 M108.168 157.684 Q113.978 157.684 117.033 162.291 Q120.112 166.874 120.112 175.624 Q120.112 184.351 117.033 188.957 Q113.978 193.541 108.168 193.541 Q102.358 193.541 99.2789 188.957 Q96.2234 184.351 96.2234 175.624 Q96.2234 166.874 99.2789 162.291 Q102.358 157.684 108.168 157.684 Z" fill="#000000" fill-rule="evenodd" fill-opacity="1" /><path clip-path="url(#clip080)" d="M138.33 161.388 Q134.719 161.388 132.89 164.953 Q131.084 168.494 131.084 175.624 Q131.084 182.73 132.89 186.295 Q134.719 189.837 138.33 189.837 Q141.964 189.837 143.769 186.295 Q145.598 182.73 145.598 175.624 Q145.598 168.494 143.769 164.953 Q141.964 161.388 138.33 161.388 M138.33 157.684 Q144.14 157.684 147.195 162.291 Q150.274 166.874 150.274 175.624 Q150.274 184.351 147.195 188.957 Q144.14 193.541 138.33 193.541 Q132.519 193.541 129.441 188.957 Q126.385 184.351 126.385 175.624 Q126.385 166.874 129.441 162.291 Q132.519 157.684 138.33 157.684 Z" fill="#000000" fill-rule="evenodd" fill-opacity="1" /><polyline clip-path="url(#clip082)" style="stroke:#009af9; stroke-linecap:butt; stroke-linejoin:round; stroke-width:12; stroke-opacity:1; fill:none" points="
  247.59,1062.73 268.028,926.142 288.467,779.445 308.905,632.475 329.344,494.204 349.782,373.053 370.221,276.572 390.659,210.865 411.098,180.104 431.536,186.234 
  451.975,228.85 472.413,305.26 492.852,410.677 513.29,538.514 533.729,680.783 554.167,828.505 574.606,972.116 595.044,1102.01 615.483,1209.52 635.921,1288.61 
  656.36,1337.7 676.798,1360.61 697.237,1365.62 717.675,1362.54 738.114,1359.35 758.552,1360.02 778.991,1363.84 799.429,1365.68 819.868,1357.07 840.306,1328.6 
  860.745,1274.22 881.183,1195.06 901.622,1099.52 922.06,998.611 942.499,900.06 962.937,805.379 983.376,711.511 1003.81,614.661 1024.25,513.805 1044.69,413.392 
  1065.13,325.063 1085.57,266.21 1106.01,253.305 1126.45,292.422 1146.88,374.103 1167.32,477.971 1187.76,584.304 1208.2,683.49 1228.64,776.717 1249.08,869.655 
  1269.51,965.946 1289.95,1064.71 1310.39,1160.98 1330.83,1246.76 1351.27,1312.9 1371.71,1352.84 1392.15,1367.02 1412.58,1364.55 1433.02,1360.47 1453.46,1368.52 
  1473.9,1390.52 1494.34,1405.22 1514.78,1366.52 1535.22,1223.4 1555.65,959.587 1576.09,624.296 1596.53,318.245 1616.97,132.577 1637.41,87.9763 1657.85,129.157 
  1678.29,178.37 1698.72,194.22 1719.16,183.998 1739.6,172.576 1760.04,171.264 1780.48,175.022 1800.92,177.174 1821.35,177.64 1841.79,178.289 1862.23,176.095 
  1882.67,164.109 1903.11,141.667 1923.55,128.128 1943.99,167.637 1964.42,310.705 1984.86,574.205 2005.3,909.409 2025.74,1215.55 2046.18,1401.24 2066.62,1445.72 
  2087.06,1404.37 2107.49,1355.27 2127.93,1340.39 2148.37,1352.84 2168.81,1366.88 2189.25,1367.59 2209.69,1353.14 2230.12,1321.59 2250.56,1265.5 2271,1178.68 
  2291.44,1062.73 
  "/>
<path clip-path="url(#clip080)" d="
M258.49 198.898 L622.311 198.898 L622.311 95.2176 L258.49 95.2176  Z
  " fill="#ffffff" fill-rule="evenodd" fill-opacity="1"/>
<polyline clip-path="url(#clip080)" style="stroke:#000000; stroke-linecap:butt; stroke-linejoin:round; stroke-width:4; stroke-opacity:1; fill:none" points="
  258.49,198.898 622.311,198.898 622.311,95.2176 258.49,95.2176 258.49,198.898 
  "/>
<polyline clip-path="url(#clip080)" style="stroke:#009af9; stroke-linecap:butt; stroke-linejoin:round; stroke-width:4; stroke-opacity:1; fill:none" points="
  282.562,147.058 426.994,147.058 
  "/>
<path clip-path="url(#clip080)" d="M473.311 130.912 L473.311 135.472 Q470.649 134.199 468.288 133.574 Q465.927 132.949 463.728 132.949 Q459.909 132.949 457.825 134.43 Q455.765 135.912 455.765 138.643 Q455.765 140.935 457.131 142.115 Q458.52 143.273 462.362 143.99 L465.187 144.569 Q470.418 145.565 472.895 148.088 Q475.395 150.588 475.395 154.801 Q475.395 159.824 472.015 162.416 Q468.659 165.009 462.154 165.009 Q459.7 165.009 456.923 164.453 Q454.168 163.898 451.205 162.81 L451.205 157.995 Q454.052 159.592 456.784 160.402 Q459.515 161.213 462.154 161.213 Q466.159 161.213 468.335 159.639 Q470.511 158.064 470.511 155.148 Q470.511 152.602 468.937 151.166 Q467.386 149.731 463.821 149.014 L460.974 148.458 Q455.742 147.416 453.404 145.194 Q451.066 142.972 451.066 139.014 Q451.066 134.43 454.284 131.791 Q457.525 129.153 463.196 129.153 Q465.626 129.153 468.149 129.592 Q470.673 130.032 473.311 130.912 Z" fill="#000000" fill-rule="evenodd" fill-opacity="1" /><path clip-path="url(#clip080)" d="M482.154 129.778 L486.853 129.778 L486.853 150.773 Q486.853 156.328 488.867 158.782 Q490.881 161.213 495.395 161.213 Q499.885 161.213 501.899 158.782 Q503.913 156.328 503.913 150.773 L503.913 129.778 L508.612 129.778 L508.612 151.352 Q508.612 158.111 505.256 161.56 Q501.922 165.009 495.395 165.009 Q488.844 165.009 485.487 161.56 Q482.154 158.111 482.154 151.352 L482.154 129.778 Z" fill="#000000" fill-rule="evenodd" fill-opacity="1" /><path clip-path="url(#clip080)" d="M522.061 133.62 L522.061 146.606 L527.941 146.606 Q531.205 146.606 532.987 144.916 Q534.769 143.227 534.769 140.102 Q534.769 137 532.987 135.31 Q531.205 133.62 527.941 133.62 L522.061 133.62 M517.385 129.778 L527.941 129.778 Q533.751 129.778 536.714 132.416 Q539.7 135.032 539.7 140.102 Q539.7 145.217 536.714 147.833 Q533.751 150.449 527.941 150.449 L522.061 150.449 L522.061 164.338 L517.385 164.338 L517.385 129.778 Z" fill="#000000" fill-rule="evenodd" fill-opacity="1" /><path clip-path="url(#clip080)" d="M569.538 159.407 L569.538 150.125 L561.899 150.125 L561.899 146.282 L574.167 146.282 L574.167 161.12 Q571.459 163.041 568.195 164.037 Q564.931 165.009 561.228 165.009 Q553.126 165.009 548.543 160.287 Q543.982 155.541 543.982 147.092 Q543.982 138.62 548.543 133.898 Q553.126 129.153 561.228 129.153 Q564.607 129.153 567.64 129.986 Q570.695 130.819 573.265 132.44 L573.265 137.416 Q570.672 135.217 567.755 134.106 Q564.839 132.995 561.621 132.995 Q555.279 132.995 552.084 136.537 Q548.913 140.078 548.913 147.092 Q548.913 154.083 552.084 157.625 Q555.279 161.166 561.621 161.166 Q564.098 161.166 566.042 160.75 Q567.987 160.31 569.538 159.407 Z" fill="#000000" fill-rule="evenodd" fill-opacity="1" /></svg>
