<?xml version="1.0" encoding="utf-8"?>
<svg xmlns="http://www.w3.org/2000/svg" xmlns:xlink="http://www.w3.org/1999/xlink" width="600" height="400" viewBox="0 0 2400 1600">
<defs>
  <clipPath id="clip410">
    <rect x="0" y="0" width="2400" height="1600"/>
  </clipPath>
</defs>
<path clip-path="url(#clip410)" d="
M0 1600 L2400 1600 L2400 0 L0 0  Z
  " fill="#ffffff" fill-rule="evenodd" fill-opacity="1"/>
<defs>
  <clipPath id="clip411">
    <rect x="480" y="0" width="1681" height="1600"/>
  </clipPath>
</defs>
<path clip-path="url(#clip410)" d="
M193.936 1486.45 L2352.76 1486.45 L2352.76 123.472 L193.936 123.472  Z
  " fill="#ffffff" fill-rule="evenodd" fill-opacity="1"/>
<defs>
  <clipPath id="clip412">
    <rect x="193" y="123" width="2160" height="1364"/>
  </clipPath>
</defs>
<polyline clip-path="url(#clip412)" style="stroke:#000000; stroke-linecap:butt; stroke-linejoin:round; stroke-width:2; stroke-opacity:0.1; fill:none" points="
  255.035,1486.45 255.035,123.472 
  "/>
<polyline clip-path="url(#clip412)" style="stroke:#000000; stroke-linecap:butt; stroke-linejoin:round; stroke-width:2; stroke-opacity:0.1; fill:none" points="
  764.19,1486.45 764.19,123.472 
  "/>
<polyline clip-path="url(#clip412)" style="stroke:#000000; stroke-linecap:butt; stroke-linejoin:round; stroke-width:2; stroke-opacity:0.1; fill:none" points="
  1273.35,1486.45 1273.35,123.472 
  "/>
<polyline clip-path="url(#clip412)" style="stroke:#000000; stroke-linecap:butt; stroke-linejoin:round; stroke-width:2; stroke-opacity:0.1; fill:none" points="
  1782.5,1486.45 1782.5,123.472 
  "/>
<polyline clip-path="url(#clip412)" style="stroke:#000000; stroke-linecap:butt; stroke-linejoin:round; stroke-width:2; stroke-opacity:0.1; fill:none" points="
  2291.66,1486.45 2291.66,123.472 
  "/>
<polyline clip-path="url(#clip410)" style="stroke:#000000; stroke-linecap:butt; stroke-linejoin:round; stroke-width:4; stroke-opacity:1; fill:none" points="
  193.936,1486.45 2352.76,1486.45 
  "/>
<polyline clip-path="url(#clip410)" style="stroke:#000000; stroke-linecap:butt; stroke-linejoin:round; stroke-width:4; stroke-opacity:1; fill:none" points="
  255.035,1486.45 255.035,1467.55 
  "/>
<polyline clip-path="url(#clip410)" style="stroke:#000000; stroke-linecap:butt; stroke-linejoin:round; stroke-width:4; stroke-opacity:1; fill:none" points="
  764.19,1486.45 764.19,1467.55 
  "/>
<polyline clip-path="url(#clip410)" style="stroke:#000000; stroke-linecap:butt; stroke-linejoin:round; stroke-width:4; stroke-opacity:1; fill:none" points="
  1273.35,1486.45 1273.35,1467.55 
  "/>
<polyline clip-path="url(#clip410)" style="stroke:#000000; stroke-linecap:butt; stroke-linejoin:round; stroke-width:4; stroke-opacity:1; fill:none" points="
  1782.5,1486.45 1782.5,1467.55 
  "/>
<polyline clip-path="url(#clip410)" style="stroke:#000000; stroke-linecap:butt; stroke-linejoin:round; stroke-width:4; stroke-opacity:1; fill:none" points="
  2291.66,1486.45 2291.66,1467.55 
  "/>
<path clip-path="url(#clip410)" d="M201.563 1532.02 L231.239 1532.02 L231.239 1535.95 L201.563 1535.95 L201.563 1532.02 Z" fill="#000000" fill-rule="evenodd" fill-opacity="1" /><path clip-path="url(#clip410)" d="M242.141 1544.91 L249.78 1544.91 L249.78 1518.55 L241.47 1520.21 L241.47 1515.95 L249.734 1514.29 L254.41 1514.29 L254.41 1544.91 L262.049 1544.91 L262.049 1548.85 L242.141 1548.85 L242.141 1544.91 Z" fill="#000000" fill-rule="evenodd" fill-opacity="1" /><path clip-path="url(#clip410)" d="M271.493 1542.97 L276.377 1542.97 L276.377 1548.85 L271.493 1548.85 L271.493 1542.97 Z" fill="#000000" fill-rule="evenodd" fill-opacity="1" /><path clip-path="url(#clip410)" d="M296.562 1517.37 Q292.951 1517.37 291.122 1520.93 Q289.317 1524.47 289.317 1531.6 Q289.317 1538.71 291.122 1542.27 Q292.951 1545.82 296.562 1545.82 Q300.196 1545.82 302.002 1542.27 Q303.831 1538.71 303.831 1531.6 Q303.831 1524.47 302.002 1520.93 Q300.196 1517.37 296.562 1517.37 M296.562 1513.66 Q302.372 1513.66 305.428 1518.27 Q308.507 1522.85 308.507 1531.6 Q308.507 1540.33 305.428 1544.94 Q302.372 1549.52 296.562 1549.52 Q290.752 1549.52 287.673 1544.94 Q284.618 1540.33 284.618 1531.6 Q284.618 1522.85 287.673 1518.27 Q290.752 1513.66 296.562 1513.66 Z" fill="#000000" fill-rule="evenodd" fill-opacity="1" /><path clip-path="url(#clip410)" d="M711.216 1532.02 L740.892 1532.02 L740.892 1535.95 L711.216 1535.95 L711.216 1532.02 Z" fill="#000000" fill-rule="evenodd" fill-opacity="1" /><path clip-path="url(#clip410)" d="M760.984 1517.37 Q757.373 1517.37 755.545 1520.93 Q753.739 1524.47 753.739 1531.6 Q753.739 1538.71 755.545 1542.27 Q757.373 1545.82 760.984 1545.82 Q764.619 1545.82 766.424 1542.27 Q768.253 1538.71 768.253 1531.6 Q768.253 1524.47 766.424 1520.93 Q764.619 1517.37 760.984 1517.37 M760.984 1513.66 Q766.794 1513.66 769.85 1518.27 Q772.929 1522.85 772.929 1531.6 Q772.929 1540.33 769.85 1544.94 Q766.794 1549.52 760.984 1549.52 Q755.174 1549.52 752.095 1544.94 Q749.04 1540.33 749.04 1531.6 Q749.04 1522.85 752.095 1518.27 Q755.174 1513.66 760.984 1513.66 Z" fill="#000000" fill-rule="evenodd" fill-opacity="1" /><path clip-path="url(#clip410)" d="M781.146 1542.97 L786.03 1542.97 L786.03 1548.85 L781.146 1548.85 L781.146 1542.97 Z" fill="#000000" fill-rule="evenodd" fill-opacity="1" /><path clip-path="url(#clip410)" d="M796.262 1514.29 L814.618 1514.29 L814.618 1518.22 L800.544 1518.22 L800.544 1526.7 Q801.563 1526.35 802.581 1526.19 Q803.6 1526 804.618 1526 Q810.405 1526 813.785 1529.17 Q817.165 1532.34 817.165 1537.76 Q817.165 1543.34 813.692 1546.44 Q810.22 1549.52 803.901 1549.52 Q801.725 1549.52 799.456 1549.15 Q797.211 1548.78 794.804 1548.04 L794.804 1543.34 Q796.887 1544.47 799.109 1545.03 Q801.331 1545.58 803.808 1545.58 Q807.813 1545.58 810.151 1543.48 Q812.489 1541.37 812.489 1537.76 Q812.489 1534.15 810.151 1532.04 Q807.813 1529.94 803.808 1529.94 Q801.933 1529.94 800.058 1530.35 Q798.206 1530.77 796.262 1531.65 L796.262 1514.29 Z" fill="#000000" fill-rule="evenodd" fill-opacity="1" /><path clip-path="url(#clip410)" d="M1250.73 1517.37 Q1247.12 1517.37 1245.29 1520.93 Q1243.49 1524.47 1243.49 1531.6 Q1243.49 1538.71 1245.29 1542.27 Q1247.12 1545.82 1250.73 1545.82 Q1254.36 1545.82 1256.17 1542.27 Q1258 1538.71 1258 1531.6 Q1258 1524.47 1256.17 1520.93 Q1254.36 1517.37 1250.73 1517.37 M1250.73 1513.66 Q1256.54 1513.66 1259.6 1518.27 Q1262.67 1522.85 1262.67 1531.6 Q1262.67 1540.33 1259.6 1544.94 Q1256.54 1549.52 1250.73 1549.52 Q1244.92 1549.52 1241.84 1544.94 Q1238.79 1540.33 1238.79 1531.6 Q1238.79 1522.85 1241.84 1518.27 Q1244.92 1513.66 1250.73 1513.66 Z" fill="#000000" fill-rule="evenodd" fill-opacity="1" /><path clip-path="url(#clip410)" d="M1270.89 1542.97 L1275.78 1542.97 L1275.78 1548.85 L1270.89 1548.85 L1270.89 1542.97 Z" fill="#000000" fill-rule="evenodd" fill-opacity="1" /><path clip-path="url(#clip410)" d="M1295.96 1517.37 Q1292.35 1517.37 1290.52 1520.93 Q1288.72 1524.47 1288.72 1531.6 Q1288.72 1538.71 1290.52 1542.27 Q1292.35 1545.82 1295.96 1545.82 Q1299.6 1545.82 1301.4 1542.27 Q1303.23 1538.71 1303.23 1531.6 Q1303.23 1524.47 1301.4 1520.93 Q1299.6 1517.37 1295.96 1517.37 M1295.96 1513.66 Q1301.77 1513.66 1304.83 1518.27 Q1307.91 1522.85 1307.91 1531.6 Q1307.91 1540.33 1304.83 1544.94 Q1301.77 1549.52 1295.96 1549.52 Q1290.15 1549.52 1287.07 1544.94 Q1284.02 1540.33 1284.02 1531.6 Q1284.02 1522.85 1287.07 1518.27 Q1290.15 1513.66 1295.96 1513.66 Z" fill="#000000" fill-rule="evenodd" fill-opacity="1" /><path clip-path="url(#clip410)" d="M1760.38 1517.37 Q1756.77 1517.37 1754.94 1520.93 Q1753.14 1524.47 1753.14 1531.6 Q1753.14 1538.71 1754.94 1542.27 Q1756.77 1545.82 1760.38 1545.82 Q1764.02 1545.82 1765.82 1542.27 Q1767.65 1538.71 1767.65 1531.6 Q1767.65 1524.47 1765.82 1520.93 Q1764.02 1517.37 1760.38 1517.37 M1760.38 1513.66 Q1766.19 1513.66 1769.25 1518.27 Q1772.33 1522.85 1772.33 1531.6 Q1772.33 1540.33 1769.25 1544.94 Q1766.19 1549.52 1760.38 1549.52 Q1754.57 1549.52 1751.49 1544.94 Q1748.44 1540.33 1748.44 1531.6 Q1748.44 1522.85 1751.49 1518.27 Q1754.57 1513.66 1760.38 1513.66 Z" fill="#000000" fill-rule="evenodd" fill-opacity="1" /><path clip-path="url(#clip410)" d="M1780.55 1542.97 L1785.43 1542.97 L1785.43 1548.85 L1780.55 1548.85 L1780.55 1542.97 Z" fill="#000000" fill-rule="evenodd" fill-opacity="1" /><path clip-path="url(#clip410)" d="M1795.66 1514.29 L1814.02 1514.29 L1814.02 1518.22 L1799.94 1518.22 L1799.94 1526.7 Q1800.96 1526.35 1801.98 1526.19 Q1803 1526 1804.02 1526 Q1809.8 1526 1813.18 1529.17 Q1816.56 1532.34 1816.56 1537.76 Q1816.56 1543.34 1813.09 1546.44 Q1809.62 1549.52 1803.3 1549.52 Q1801.12 1549.52 1798.86 1549.15 Q1796.61 1548.78 1794.2 1548.04 L1794.2 1543.34 Q1796.29 1544.47 1798.51 1545.03 Q1800.73 1545.58 1803.21 1545.58 Q1807.21 1545.58 1809.55 1543.48 Q1811.89 1541.37 1811.89 1537.76 Q1811.89 1534.15 1809.55 1532.04 Q1807.21 1529.94 1803.21 1529.94 Q1801.33 1529.94 1799.46 1530.35 Q1797.61 1530.77 1795.66 1531.65 L1795.66 1514.29 Z" fill="#000000" fill-rule="evenodd" fill-opacity="1" /><path clip-path="url(#clip410)" d="M2258.81 1544.91 L2266.45 1544.91 L2266.45 1518.55 L2258.14 1520.21 L2258.14 1515.95 L2266.4 1514.29 L2271.08 1514.29 L2271.08 1544.91 L2278.72 1544.91 L2278.72 1548.85 L2258.81 1548.85 L2258.81 1544.91 Z" fill="#000000" fill-rule="evenodd" fill-opacity="1" /><path clip-path="url(#clip410)" d="M2288.16 1542.97 L2293.05 1542.97 L2293.05 1548.85 L2288.16 1548.85 L2288.16 1542.97 Z" fill="#000000" fill-rule="evenodd" fill-opacity="1" /><path clip-path="url(#clip410)" d="M2313.23 1517.37 Q2309.62 1517.37 2307.79 1520.93 Q2305.99 1524.47 2305.99 1531.6 Q2305.99 1538.71 2307.79 1542.27 Q2309.62 1545.82 2313.23 1545.82 Q2316.87 1545.82 2318.67 1542.27 Q2320.5 1538.71 2320.5 1531.6 Q2320.5 1524.47 2318.67 1520.93 Q2316.87 1517.37 2313.23 1517.37 M2313.23 1513.66 Q2319.04 1513.66 2322.1 1518.27 Q2325.18 1522.85 2325.18 1531.6 Q2325.18 1540.33 2322.1 1544.94 Q2319.04 1549.52 2313.23 1549.52 Q2307.42 1549.52 2304.34 1544.94 Q2301.29 1540.33 2301.29 1531.6 Q2301.29 1522.85 2304.34 1518.27 Q2307.42 1513.66 2313.23 1513.66 Z" fill="#000000" fill-rule="evenodd" fill-opacity="1" /><polyline clip-path="url(#clip412)" style="stroke:#000000; stroke-linecap:butt; stroke-linejoin:round; stroke-width:2; stroke-opacity:0.1; fill:none" points="
  193.936,1486.45 2352.76,1486.45 
  "/>
<polyline clip-path="url(#clip412)" style="stroke:#000000; stroke-linecap:butt; stroke-linejoin:round; stroke-width:2; stroke-opacity:0.1; fill:none" points="
  193.936,1145.7 2352.76,1145.7 
  "/>
<polyline clip-path="url(#clip412)" style="stroke:#000000; stroke-linecap:butt; stroke-linejoin:round; stroke-width:2; stroke-opacity:0.1; fill:none" points="
  193.936,804.96 2352.76,804.96 
  "/>
<polyline clip-path="url(#clip412)" style="stroke:#000000; stroke-linecap:butt; stroke-linejoin:round; stroke-width:2; stroke-opacity:0.1; fill:none" points="
  193.936,464.216 2352.76,464.216 
  "/>
<polyline clip-path="url(#clip412)" style="stroke:#000000; stroke-linecap:butt; stroke-linejoin:round; stroke-width:2; stroke-opacity:0.1; fill:none" points="
  193.936,123.472 2352.76,123.472 
  "/>
<polyline clip-path="url(#clip410)" style="stroke:#000000; stroke-linecap:butt; stroke-linejoin:round; stroke-width:4; stroke-opacity:1; fill:none" points="
  193.936,1486.45 193.936,123.472 
  "/>
<polyline clip-path="url(#clip410)" style="stroke:#000000; stroke-linecap:butt; stroke-linejoin:round; stroke-width:4; stroke-opacity:1; fill:none" points="
  193.936,1486.45 212.834,1486.45 
  "/>
<polyline clip-path="url(#clip410)" style="stroke:#000000; stroke-linecap:butt; stroke-linejoin:round; stroke-width:4; stroke-opacity:1; fill:none" points="
  193.936,1145.7 212.834,1145.7 
  "/>
<polyline clip-path="url(#clip410)" style="stroke:#000000; stroke-linecap:butt; stroke-linejoin:round; stroke-width:4; stroke-opacity:1; fill:none" points="
  193.936,804.96 212.834,804.96 
  "/>
<polyline clip-path="url(#clip410)" style="stroke:#000000; stroke-linecap:butt; stroke-linejoin:round; stroke-width:4; stroke-opacity:1; fill:none" points="
  193.936,464.216 212.834,464.216 
  "/>
<polyline clip-path="url(#clip410)" style="stroke:#000000; stroke-linecap:butt; stroke-linejoin:round; stroke-width:4; stroke-opacity:1; fill:none" points="
  193.936,123.472 212.834,123.472 
  "/>
<path clip-path="url(#clip410)" d="M50.9921 1486.9 L80.6679 1486.9 L80.6679 1490.83 L50.9921 1490.83 L50.9921 1486.9 Z" fill="#000000" fill-rule="evenodd" fill-opacity="1" /><path clip-path="url(#clip410)" d="M90.8067 1469.17 L109.163 1469.17 L109.163 1473.1 L95.0891 1473.1 L95.0891 1481.58 Q96.1076 1481.23 97.1261 1481.07 Q98.1447 1480.88 99.1632 1480.88 Q104.95 1480.88 108.33 1484.05 Q111.709 1487.22 111.709 1492.64 Q111.709 1498.22 108.237 1501.32 Q104.765 1504.4 98.4456 1504.4 Q96.2697 1504.4 94.0012 1504.03 Q91.7558 1503.66 89.3484 1502.92 L89.3484 1498.22 Q91.4317 1499.35 93.6539 1499.91 Q95.8761 1500.46 98.353 1500.46 Q102.358 1500.46 104.696 1498.36 Q107.033 1496.25 107.033 1492.64 Q107.033 1489.03 104.696 1486.92 Q102.358 1484.82 98.353 1484.82 Q96.478 1484.82 94.603 1485.23 Q92.7512 1485.65 90.8067 1486.53 L90.8067 1469.17 Z" fill="#000000" fill-rule="evenodd" fill-opacity="1" /><path clip-path="url(#clip410)" d="M120.922 1497.85 L125.807 1497.85 L125.807 1503.73 L120.922 1503.73 L120.922 1497.85 Z" fill="#000000" fill-rule="evenodd" fill-opacity="1" /><path clip-path="url(#clip410)" d="M145.992 1472.25 Q142.381 1472.25 140.552 1475.81 Q138.746 1479.35 138.746 1486.48 Q138.746 1493.59 140.552 1497.15 Q142.381 1500.7 145.992 1500.7 Q149.626 1500.7 151.431 1497.15 Q153.26 1493.59 153.26 1486.48 Q153.26 1479.35 151.431 1475.81 Q149.626 1472.25 145.992 1472.25 M145.992 1468.54 Q151.802 1468.54 154.857 1473.15 Q157.936 1477.73 157.936 1486.48 Q157.936 1495.21 154.857 1499.82 Q151.802 1504.4 145.992 1504.4 Q140.181 1504.4 137.103 1499.82 Q134.047 1495.21 134.047 1486.48 Q134.047 1477.73 137.103 1473.15 Q140.181 1468.54 145.992 1468.54 Z" fill="#000000" fill-rule="evenodd" fill-opacity="1" /><path clip-path="url(#clip410)" d="M51.9875 1146.16 L81.6633 1146.16 L81.6633 1150.09 L51.9875 1150.09 L51.9875 1146.16 Z" fill="#000000" fill-rule="evenodd" fill-opacity="1" /><path clip-path="url(#clip410)" d="M95.7836 1159.05 L112.103 1159.05 L112.103 1162.98 L90.1586 1162.98 L90.1586 1159.05 Q92.8206 1156.29 97.4039 1151.66 Q102.01 1147.01 103.191 1145.67 Q105.436 1143.15 106.316 1141.41 Q107.219 1139.65 107.219 1137.96 Q107.219 1135.21 105.274 1133.47 Q103.353 1131.73 100.251 1131.73 Q98.0521 1131.73 95.5984 1132.5 Q93.1678 1133.26 90.3901 1134.81 L90.3901 1130.09 Q93.2141 1128.96 95.6678 1128.38 Q98.1215 1127.8 100.159 1127.8 Q105.529 1127.8 108.723 1130.48 Q111.918 1133.17 111.918 1137.66 Q111.918 1139.79 111.108 1141.71 Q110.321 1143.61 108.214 1146.2 Q107.635 1146.87 104.534 1150.09 Q101.432 1153.28 95.7836 1159.05 Z" fill="#000000" fill-rule="evenodd" fill-opacity="1" /><path clip-path="url(#clip410)" d="M121.918 1157.1 L126.802 1157.1 L126.802 1162.98 L121.918 1162.98 L121.918 1157.1 Z" fill="#000000" fill-rule="evenodd" fill-opacity="1" /><path clip-path="url(#clip410)" d="M137.033 1128.42 L155.39 1128.42 L155.39 1132.36 L141.316 1132.36 L141.316 1140.83 Q142.334 1140.48 143.353 1140.32 Q144.371 1140.14 145.39 1140.14 Q151.177 1140.14 154.556 1143.31 Q157.936 1146.48 157.936 1151.9 Q157.936 1157.47 154.464 1160.58 Q150.992 1163.66 144.672 1163.66 Q142.496 1163.66 140.228 1163.28 Q137.982 1162.91 135.575 1162.17 L135.575 1157.47 Q137.658 1158.61 139.881 1159.16 Q142.103 1159.72 144.58 1159.72 Q148.584 1159.72 150.922 1157.61 Q153.26 1155.51 153.26 1151.9 Q153.26 1148.28 150.922 1146.18 Q148.584 1144.07 144.58 1144.07 Q142.705 1144.07 140.83 1144.49 Q138.978 1144.91 137.033 1145.78 L137.033 1128.42 Z" fill="#000000" fill-rule="evenodd" fill-opacity="1" /><path clip-path="url(#clip410)" d="M100.76 790.759 Q97.1493 790.759 95.3206 794.323 Q93.515 797.865 93.515 804.995 Q93.515 812.101 95.3206 815.666 Q97.1493 819.208 100.76 819.208 Q104.395 819.208 106.2 815.666 Q108.029 812.101 108.029 804.995 Q108.029 797.865 106.2 794.323 Q104.395 790.759 100.76 790.759 M100.76 787.055 Q106.571 787.055 109.626 791.661 Q112.705 796.245 112.705 804.995 Q112.705 813.722 109.626 818.328 Q106.571 822.911 100.76 822.911 Q94.9502 822.911 91.8715 818.328 Q88.816 813.722 88.816 804.995 Q88.816 796.245 91.8715 791.661 Q94.9502 787.055 100.76 787.055 Z" fill="#000000" fill-rule="evenodd" fill-opacity="1" /><path clip-path="url(#clip410)" d="M120.922 816.36 L125.807 816.36 L125.807 822.24 L120.922 822.24 L120.922 816.36 Z" fill="#000000" fill-rule="evenodd" fill-opacity="1" /><path clip-path="url(#clip410)" d="M145.992 790.759 Q142.381 790.759 140.552 794.323 Q138.746 797.865 138.746 804.995 Q138.746 812.101 140.552 815.666 Q142.381 819.208 145.992 819.208 Q149.626 819.208 151.431 815.666 Q153.26 812.101 153.26 804.995 Q153.26 797.865 151.431 794.323 Q149.626 790.759 145.992 790.759 M145.992 787.055 Q151.802 787.055 154.857 791.661 Q157.936 796.245 157.936 804.995 Q157.936 813.722 154.857 818.328 Q151.802 822.911 145.992 822.911 Q140.181 822.911 137.103 818.328 Q134.047 813.722 134.047 804.995 Q134.047 796.245 137.103 791.661 Q140.181 787.055 145.992 787.055 Z" fill="#000000" fill-rule="evenodd" fill-opacity="1" /><path clip-path="url(#clip410)" d="M95.7836 477.561 L112.103 477.561 L112.103 481.496 L90.1586 481.496 L90.1586 477.561 Q92.8206 474.806 97.4039 470.177 Q102.01 465.524 103.191 464.181 Q105.436 461.658 106.316 459.922 Q107.219 458.163 107.219 456.473 Q107.219 453.718 105.274 451.982 Q103.353 450.246 100.251 450.246 Q98.0521 450.246 95.5984 451.01 Q93.1678 451.774 90.3901 453.325 L90.3901 448.603 Q93.2141 447.468 95.6678 446.89 Q98.1215 446.311 100.159 446.311 Q105.529 446.311 108.723 448.996 Q111.918 451.681 111.918 456.172 Q111.918 458.302 111.108 460.223 Q110.321 462.121 108.214 464.714 Q107.635 465.385 104.534 468.603 Q101.432 471.797 95.7836 477.561 Z" fill="#000000" fill-rule="evenodd" fill-opacity="1" /><path clip-path="url(#clip410)" d="M121.918 475.616 L126.802 475.616 L126.802 481.496 L121.918 481.496 L121.918 475.616 Z" fill="#000000" fill-rule="evenodd" fill-opacity="1" /><path clip-path="url(#clip410)" d="M137.033 446.936 L155.39 446.936 L155.39 450.871 L141.316 450.871 L141.316 459.343 Q142.334 458.996 143.353 458.834 Q144.371 458.649 145.39 458.649 Q151.177 458.649 154.556 461.82 Q157.936 464.992 157.936 470.408 Q157.936 475.987 154.464 479.089 Q150.992 482.167 144.672 482.167 Q142.496 482.167 140.228 481.797 Q137.982 481.427 135.575 480.686 L135.575 475.987 Q137.658 477.121 139.881 477.677 Q142.103 478.232 144.58 478.232 Q148.584 478.232 150.922 476.126 Q153.26 474.019 153.26 470.408 Q153.26 466.797 150.922 464.691 Q148.584 462.584 144.58 462.584 Q142.705 462.584 140.83 463.001 Q138.978 463.417 137.033 464.297 L137.033 446.936 Z" fill="#000000" fill-rule="evenodd" fill-opacity="1" /><path clip-path="url(#clip410)" d="M90.8067 106.192 L109.163 106.192 L109.163 110.127 L95.0891 110.127 L95.0891 118.599 Q96.1076 118.252 97.1261 118.09 Q98.1447 117.905 99.1632 117.905 Q104.95 117.905 108.33 121.076 Q111.709 124.248 111.709 129.664 Q111.709 135.243 108.237 138.345 Q104.765 141.423 98.4456 141.423 Q96.2697 141.423 94.0012 141.053 Q91.7558 140.683 89.3484 139.942 L89.3484 135.243 Q91.4317 136.377 93.6539 136.933 Q95.8761 137.488 98.353 137.488 Q102.358 137.488 104.696 135.382 Q107.033 133.275 107.033 129.664 Q107.033 126.053 104.696 123.947 Q102.358 121.84 98.353 121.84 Q96.478 121.84 94.603 122.257 Q92.7512 122.674 90.8067 123.553 L90.8067 106.192 Z" fill="#000000" fill-rule="evenodd" fill-opacity="1" /><path clip-path="url(#clip410)" d="M120.922 134.873 L125.807 134.873 L125.807 140.752 L120.922 140.752 L120.922 134.873 Z" fill="#000000" fill-rule="evenodd" fill-opacity="1" /><path clip-path="url(#clip410)" d="M145.992 109.271 Q142.381 109.271 140.552 112.836 Q138.746 116.377 138.746 123.507 Q138.746 130.613 140.552 134.178 Q142.381 137.72 145.992 137.72 Q149.626 137.72 151.431 134.178 Q153.26 130.613 153.26 123.507 Q153.26 116.377 151.431 112.836 Q149.626 109.271 145.992 109.271 M145.992 105.567 Q151.802 105.567 154.857 110.174 Q157.936 114.757 157.936 123.507 Q157.936 132.234 154.857 136.84 Q151.802 141.423 145.992 141.423 Q140.181 141.423 137.103 136.84 Q134.047 132.234 134.047 123.507 Q134.047 114.757 137.103 110.174 Q140.181 105.567 145.992 105.567 Z" fill="#000000" fill-rule="evenodd" fill-opacity="1" /><path clip-path="url(#clip410)" d="M703.607 12.096 L741.847 12.096 L741.847 18.9825 L711.789 18.9825 L711.789 36.8875 L740.591 36.8875 L740.591 43.7741 L711.789 43.7741 L711.789 65.6895 L742.576 65.6895 L742.576 72.576 L703.607 72.576 L703.607 12.096 Z" fill="#000000" fill-rule="evenodd" fill-opacity="1" /><path clip-path="url(#clip410)" d="M781.992 34.1734 Q780.736 33.4443 779.237 33.1202 Q777.779 32.7556 775.996 32.7556 Q769.677 32.7556 766.274 36.8875 Q762.912 40.9789 762.912 48.6757 L762.912 72.576 L755.418 72.576 L755.418 27.2059 L762.912 27.2059 L762.912 34.2544 Q765.261 30.1225 769.029 28.1376 Q772.796 26.1121 778.184 26.1121 Q778.953 26.1121 779.885 26.2337 Q780.817 26.3147 781.951 26.5172 L781.992 34.1734 Z" fill="#000000" fill-rule="evenodd" fill-opacity="1" /><path clip-path="url(#clip410)" d="M814.642 34.1734 Q813.386 33.4443 811.887 33.1202 Q810.429 32.7556 808.646 32.7556 Q802.327 32.7556 798.924 36.8875 Q795.562 40.9789 795.562 48.6757 L795.562 72.576 L788.068 72.576 L788.068 27.2059 L795.562 27.2059 L795.562 34.2544 Q797.912 30.1225 801.679 28.1376 Q805.446 26.1121 810.834 26.1121 Q811.604 26.1121 812.535 26.2337 Q813.467 26.3147 814.601 26.5172 L814.642 34.1734 Z" fill="#000000" fill-rule="evenodd" fill-opacity="1" /><path clip-path="url(#clip410)" d="M838.218 32.4315 Q832.223 32.4315 828.739 37.1306 Q825.255 41.7891 825.255 49.9314 Q825.255 58.0738 828.698 62.7728 Q832.182 67.4314 838.218 67.4314 Q844.173 67.4314 847.657 62.7323 Q851.14 58.0333 851.14 49.9314 Q851.14 41.8701 847.657 37.1711 Q844.173 32.4315 838.218 32.4315 M838.218 26.1121 Q847.94 26.1121 853.49 32.4315 Q859.04 38.7509 859.04 49.9314 Q859.04 61.0714 853.49 67.4314 Q847.94 73.7508 838.218 73.7508 Q828.455 73.7508 822.906 67.4314 Q817.396 61.0714 817.396 49.9314 Q817.396 38.7509 822.906 32.4315 Q828.455 26.1121 838.218 26.1121 Z" fill="#000000" fill-rule="evenodd" fill-opacity="1" /><path clip-path="url(#clip410)" d="M897.685 34.1734 Q896.43 33.4443 894.931 33.1202 Q893.472 32.7556 891.69 32.7556 Q885.371 32.7556 881.968 36.8875 Q878.606 40.9789 878.606 48.6757 L878.606 72.576 L871.111 72.576 L871.111 27.2059 L878.606 27.2059 L878.606 34.2544 Q880.955 30.1225 884.722 28.1376 Q888.49 26.1121 893.877 26.1121 Q894.647 26.1121 895.579 26.2337 Q896.511 26.3147 897.645 26.5172 L897.685 34.1734 Z" fill="#000000" fill-rule="evenodd" fill-opacity="1" /><path clip-path="url(#clip410)" d="M950.428 17.4837 Q944.109 17.4837 940.908 23.7221 Q937.749 29.92 937.749 42.3968 Q937.749 54.833 940.908 61.0714 Q944.109 67.2693 950.428 67.2693 Q956.788 67.2693 959.948 61.0714 Q963.148 54.833 963.148 42.3968 Q963.148 29.92 959.948 23.7221 Q956.788 17.4837 950.428 17.4837 M950.428 11.0023 Q960.596 11.0023 965.943 19.0636 Q971.331 27.0843 971.331 42.3968 Q971.331 57.6687 965.943 65.73 Q960.596 73.7508 950.428 73.7508 Q940.26 73.7508 934.873 65.73 Q929.525 57.6687 929.525 42.3968 Q929.525 27.0843 934.873 19.0636 Q940.26 11.0023 950.428 11.0023 Z" fill="#000000" fill-rule="evenodd" fill-opacity="1" /><path clip-path="url(#clip410)" d="M985.711 62.2867 L994.259 62.2867 L994.259 72.576 L985.711 72.576 L985.711 62.2867 Z" fill="#000000" fill-rule="evenodd" fill-opacity="1" /><path clip-path="url(#clip410)" d="M1019.13 65.6895 L1047.69 65.6895 L1047.69 72.576 L1009.29 72.576 L1009.29 65.6895 Q1013.95 60.8689 1021.97 52.7671 Q1030.03 44.6248 1032.09 42.2752 Q1036.02 37.8598 1037.56 34.8216 Q1039.14 31.7429 1039.14 28.7857 Q1039.14 23.9651 1035.74 20.927 Q1032.38 17.8888 1026.95 17.8888 Q1023.1 17.8888 1018.81 19.2256 Q1014.55 20.5624 1009.69 23.2765 L1009.69 15.0127 Q1014.63 13.0277 1018.93 12.015 Q1023.22 11.0023 1026.79 11.0023 Q1036.19 11.0023 1041.78 15.7013 Q1047.37 20.4004 1047.37 28.2591 Q1047.37 31.9859 1045.95 35.3482 Q1044.57 38.6699 1040.88 43.2069 Q1039.87 44.3817 1034.44 50.0125 Q1029.02 55.6027 1019.13 65.6895 Z" fill="#000000" fill-rule="evenodd" fill-opacity="1" /><path clip-path="url(#clip410)" d="M1082.37 43.8551 Q1076.53 43.8551 1073.17 46.9743 Q1069.85 50.0935 1069.85 55.5622 Q1069.85 61.0309 1073.17 64.1501 Q1076.53 67.2693 1082.37 67.2693 Q1088.2 67.2693 1091.56 64.1501 Q1094.92 60.9904 1094.92 55.5622 Q1094.92 50.0935 1091.56 46.9743 Q1088.24 43.8551 1082.37 43.8551 M1074.18 40.3713 Q1068.92 39.075 1065.96 35.4697 Q1063.04 31.8644 1063.04 26.6793 Q1063.04 19.4281 1068.19 15.2152 Q1073.37 11.0023 1082.37 11.0023 Q1091.4 11.0023 1096.54 15.2152 Q1101.69 19.4281 1101.69 26.6793 Q1101.69 31.8644 1098.73 35.4697 Q1095.82 39.075 1090.59 40.3713 Q1096.5 41.7486 1099.78 45.759 Q1103.11 49.7694 1103.11 55.5622 Q1103.11 64.3527 1097.72 69.0517 Q1092.37 73.7508 1082.37 73.7508 Q1072.36 73.7508 1066.97 69.0517 Q1061.63 64.3527 1061.63 55.5622 Q1061.63 49.7694 1064.95 45.759 Q1068.27 41.7486 1074.18 40.3713 M1071.19 27.4489 Q1071.19 32.148 1074.1 34.7811 Q1077.06 37.4142 1082.37 37.4142 Q1087.63 37.4142 1090.59 34.7811 Q1093.59 32.148 1093.59 27.4489 Q1093.59 22.7499 1090.59 20.1168 Q1087.63 17.4837 1082.37 17.4837 Q1077.06 17.4837 1074.1 20.1168 Q1071.19 22.7499 1071.19 27.4489 Z" fill="#000000" fill-rule="evenodd" fill-opacity="1" /><path clip-path="url(#clip410)" d="M1115.58 12.096 L1154.47 12.096 L1154.47 15.5798 L1132.52 72.576 L1123.97 72.576 L1144.63 18.9825 L1115.58 18.9825 L1115.58 12.096 Z" fill="#000000" fill-rule="evenodd" fill-opacity="1" /><path clip-path="url(#clip410)" d="M1170.51 12.096 L1202.64 12.096 L1202.64 18.9825 L1178.01 18.9825 L1178.01 33.8088 Q1179.79 33.2012 1181.57 32.9176 Q1183.36 32.5936 1185.14 32.5936 Q1195.26 32.5936 1201.18 38.1433 Q1207.09 43.6931 1207.09 53.1722 Q1207.09 62.9348 1201.02 68.3631 Q1194.94 73.7508 1183.88 73.7508 Q1180.07 73.7508 1176.1 73.1026 Q1172.17 72.4545 1167.96 71.1582 L1167.96 62.9348 Q1171.61 64.9198 1175.5 65.892 Q1179.39 66.8642 1183.72 66.8642 Q1190.73 66.8642 1194.82 63.1779 Q1198.91 59.4916 1198.91 53.1722 Q1198.91 46.8528 1194.82 43.1664 Q1190.73 39.4801 1183.72 39.4801 Q1180.44 39.4801 1177.16 40.2093 Q1173.92 40.9384 1170.51 42.4778 L1170.51 12.096 Z" fill="#000000" fill-rule="evenodd" fill-opacity="1" /><path clip-path="url(#clip410)" d="M1224.63 65.6895 L1238 65.6895 L1238 19.5497 L1223.46 22.4663 L1223.46 15.0127 L1237.92 12.096 L1246.1 12.096 L1246.1 65.6895 L1259.47 65.6895 L1259.47 72.576 L1224.63 72.576 L1224.63 65.6895 Z" fill="#000000" fill-rule="evenodd" fill-opacity="1" /><path clip-path="url(#clip410)" d="M1293.5 17.4837 Q1287.18 17.4837 1283.98 23.7221 Q1280.82 29.92 1280.82 42.3968 Q1280.82 54.833 1283.98 61.0714 Q1287.18 67.2693 1293.5 67.2693 Q1299.86 67.2693 1303.02 61.0714 Q1306.22 54.833 1306.22 42.3968 Q1306.22 29.92 1303.02 23.7221 Q1299.86 17.4837 1293.5 17.4837 M1293.5 11.0023 Q1303.67 11.0023 1309.01 19.0636 Q1314.4 27.0843 1314.4 42.3968 Q1314.4 57.6687 1309.01 65.73 Q1303.67 73.7508 1293.5 73.7508 Q1283.33 73.7508 1277.94 65.73 Q1272.6 57.6687 1272.6 42.3968 Q1272.6 27.0843 1277.94 19.0636 Q1283.33 11.0023 1293.5 11.0023 Z" fill="#000000" fill-rule="evenodd" fill-opacity="1" /><path clip-path="url(#clip410)" d="M1347.3 39.075 Q1341.79 39.075 1338.55 42.8424 Q1335.35 46.6097 1335.35 53.1722 Q1335.35 59.6941 1338.55 63.502 Q1341.79 67.2693 1347.3 67.2693 Q1352.8 67.2693 1356 63.502 Q1359.25 59.6941 1359.25 53.1722 Q1359.25 46.6097 1356 42.8424 Q1352.8 39.075 1347.3 39.075 M1363.54 13.4328 L1363.54 20.8865 Q1360.46 19.4281 1357.3 18.6585 Q1354.18 17.8888 1351.1 17.8888 Q1343 17.8888 1338.71 23.3575 Q1334.45 28.8262 1333.85 39.8852 Q1336.24 36.3609 1339.84 34.4975 Q1343.45 32.5936 1347.78 32.5936 Q1356.9 32.5936 1362.16 38.1433 Q1367.47 43.6525 1367.47 53.1722 Q1367.47 62.4892 1361.96 68.12 Q1356.45 73.7508 1347.3 73.7508 Q1336.8 73.7508 1331.25 65.73 Q1325.7 57.6687 1325.7 42.3968 Q1325.7 28.0566 1332.51 19.5497 Q1339.31 11.0023 1350.78 11.0023 Q1353.86 11.0023 1356.98 11.6099 Q1360.14 12.2175 1363.54 13.4328 Z" fill="#000000" fill-rule="evenodd" fill-opacity="1" /><path clip-path="url(#clip410)" d="M1404.05 19.2256 L1383.39 51.5113 L1404.05 51.5113 L1404.05 19.2256 M1401.9 12.096 L1412.19 12.096 L1412.19 51.5113 L1420.82 51.5113 L1420.82 58.3168 L1412.19 58.3168 L1412.19 72.576 L1404.05 72.576 L1404.05 58.3168 L1376.75 58.3168 L1376.75 50.4176 L1401.9 12.096 Z" fill="#000000" fill-rule="evenodd" fill-opacity="1" /><path clip-path="url(#clip410)" d="M1456.83 19.2256 L1436.17 51.5113 L1456.83 51.5113 L1456.83 19.2256 M1454.68 12.096 L1464.97 12.096 L1464.97 51.5113 L1473.6 51.5113 L1473.6 58.3168 L1464.97 58.3168 L1464.97 72.576 L1456.83 72.576 L1456.83 58.3168 L1429.53 58.3168 L1429.53 50.4176 L1454.68 12.096 Z" fill="#000000" fill-rule="evenodd" fill-opacity="1" /><path clip-path="url(#clip410)" d="M1487.38 71.3202 L1487.38 63.8666 Q1490.45 65.3249 1493.61 66.0946 Q1496.77 66.8642 1499.81 66.8642 Q1507.91 66.8642 1512.17 61.436 Q1516.46 55.9673 1517.07 44.8678 Q1514.72 48.3516 1511.11 50.215 Q1507.51 52.0784 1503.13 52.0784 Q1494.06 52.0784 1488.75 46.6097 Q1483.49 41.1005 1483.49 31.5808 Q1483.49 22.2638 1489 16.633 Q1494.51 11.0023 1503.66 11.0023 Q1514.15 11.0023 1519.66 19.0636 Q1525.21 27.0843 1525.21 42.3968 Q1525.21 56.6965 1518.41 65.2439 Q1511.64 73.7508 1500.18 73.7508 Q1497.1 73.7508 1493.94 73.1431 Q1490.78 72.5355 1487.38 71.3202 M1503.66 45.678 Q1509.17 45.678 1512.37 41.9107 Q1515.61 38.1433 1515.61 31.5808 Q1515.61 25.0589 1512.37 21.2916 Q1509.17 17.4837 1503.66 17.4837 Q1498.15 17.4837 1494.91 21.2916 Q1491.71 25.0589 1491.71 31.5808 Q1491.71 38.1433 1494.91 41.9107 Q1498.15 45.678 1503.66 45.678 Z" fill="#000000" fill-rule="evenodd" fill-opacity="1" /><path clip-path="url(#clip410)" d="M1564.71 39.9662 Q1570.58 41.222 1573.86 45.1919 Q1577.18 49.1618 1577.18 54.9951 Q1577.18 63.9476 1571.03 68.8492 Q1564.87 73.7508 1553.53 73.7508 Q1549.72 73.7508 1545.67 72.9811 Q1541.66 72.2519 1537.36 70.7531 L1537.36 62.8538 Q1540.77 64.8388 1544.82 65.8515 Q1548.87 66.8642 1553.28 66.8642 Q1560.98 66.8642 1564.99 63.826 Q1569.04 60.7879 1569.04 54.9951 Q1569.04 49.6479 1565.27 46.6502 Q1561.55 43.612 1554.86 43.612 L1547.81 43.612 L1547.81 36.8875 L1555.19 36.8875 Q1561.22 36.8875 1564.42 34.4975 Q1567.62 32.067 1567.62 27.5299 Q1567.62 22.8714 1564.3 20.4004 Q1561.02 17.8888 1554.86 17.8888 Q1551.5 17.8888 1547.65 18.618 Q1543.8 19.3471 1539.19 20.8865 L1539.19 13.5948 Q1543.85 12.2985 1547.9 11.6504 Q1551.99 11.0023 1555.59 11.0023 Q1564.91 11.0023 1570.34 15.2557 Q1575.77 19.4686 1575.77 26.6793 Q1575.77 31.7024 1572.89 35.1862 Q1570.01 38.6294 1564.71 39.9662 Z" fill="#000000" fill-rule="evenodd" fill-opacity="1" /><path clip-path="url(#clip410)" d="M1594.12 65.6895 L1607.48 65.6895 L1607.48 19.5497 L1592.94 22.4663 L1592.94 15.0127 L1607.4 12.096 L1615.59 12.096 L1615.59 65.6895 L1628.95 65.6895 L1628.95 72.576 L1594.12 72.576 L1594.12 65.6895 Z" fill="#000000" fill-rule="evenodd" fill-opacity="1" /><path clip-path="url(#clip410)" d="M1645.73 71.3202 L1645.73 63.8666 Q1648.8 65.3249 1651.96 66.0946 Q1655.12 66.8642 1658.16 66.8642 Q1666.26 66.8642 1670.52 61.436 Q1674.81 55.9673 1675.42 44.8678 Q1673.07 48.3516 1669.46 50.215 Q1665.86 52.0784 1661.48 52.0784 Q1652.41 52.0784 1647.1 46.6097 Q1641.84 41.1005 1641.84 31.5808 Q1641.84 22.2638 1647.35 16.633 Q1652.85 11.0023 1662.01 11.0023 Q1672.5 11.0023 1678.01 19.0636 Q1683.56 27.0843 1683.56 42.3968 Q1683.56 56.6965 1676.76 65.2439 Q1669.99 73.7508 1658.53 73.7508 Q1655.45 73.7508 1652.29 73.1431 Q1649.13 72.5355 1645.73 71.3202 M1662.01 45.678 Q1667.52 45.678 1670.72 41.9107 Q1673.96 38.1433 1673.96 31.5808 Q1673.96 25.0589 1670.72 21.2916 Q1667.52 17.4837 1662.01 17.4837 Q1656.5 17.4837 1653.26 21.2916 Q1650.06 25.0589 1650.06 31.5808 Q1650.06 38.1433 1653.26 41.9107 Q1656.5 45.678 1662.01 45.678 Z" fill="#000000" fill-rule="evenodd" fill-opacity="1" /><path clip-path="url(#clip410)" d="M1715.77 17.4837 Q1709.45 17.4837 1706.25 23.7221 Q1703.09 29.92 1703.09 42.3968 Q1703.09 54.833 1706.25 61.0714 Q1709.45 67.2693 1715.77 67.2693 Q1722.13 67.2693 1725.29 61.0714 Q1728.49 54.833 1728.49 42.3968 Q1728.49 29.92 1725.29 23.7221 Q1722.13 17.4837 1715.77 17.4837 M1715.77 11.0023 Q1725.93 11.0023 1731.28 19.0636 Q1736.67 27.0843 1736.67 42.3968 Q1736.67 57.6687 1731.28 65.73 Q1725.93 73.7508 1715.77 73.7508 Q1705.6 73.7508 1700.21 65.73 Q1694.86 57.6687 1694.86 42.3968 Q1694.86 27.0843 1700.21 19.0636 Q1705.6 11.0023 1715.77 11.0023 Z" fill="#000000" fill-rule="evenodd" fill-opacity="1" /><path clip-path="url(#clip410)" d="M1768.55 43.8551 Q1762.72 43.8551 1759.35 46.9743 Q1756.03 50.0935 1756.03 55.5622 Q1756.03 61.0309 1759.35 64.1501 Q1762.72 67.2693 1768.55 67.2693 Q1774.38 67.2693 1777.74 64.1501 Q1781.11 60.9904 1781.11 55.5622 Q1781.11 50.0935 1777.74 46.9743 Q1774.42 43.8551 1768.55 43.8551 M1760.37 40.3713 Q1755.1 39.075 1752.14 35.4697 Q1749.23 31.8644 1749.23 26.6793 Q1749.23 19.4281 1754.37 15.2152 Q1759.56 11.0023 1768.55 11.0023 Q1777.58 11.0023 1782.73 15.2152 Q1787.87 19.4281 1787.87 26.6793 Q1787.87 31.8644 1784.91 35.4697 Q1782 39.075 1776.77 40.3713 Q1782.69 41.7486 1785.97 45.759 Q1789.29 49.7694 1789.29 55.5622 Q1789.29 64.3527 1783.9 69.0517 Q1778.55 73.7508 1768.55 73.7508 Q1758.54 73.7508 1753.16 69.0517 Q1747.81 64.3527 1747.81 55.5622 Q1747.81 49.7694 1751.13 45.759 Q1754.45 41.7486 1760.37 40.3713 M1757.37 27.4489 Q1757.37 32.148 1760.28 34.7811 Q1763.24 37.4142 1768.55 37.4142 Q1773.81 37.4142 1776.77 34.7811 Q1779.77 32.148 1779.77 27.4489 Q1779.77 22.7499 1776.77 20.1168 Q1773.81 17.4837 1768.55 17.4837 Q1763.24 17.4837 1760.28 20.1168 Q1757.37 22.7499 1757.37 27.4489 Z" fill="#000000" fill-rule="evenodd" fill-opacity="1" /><path clip-path="url(#clip410)" d="M1826.31 19.2256 L1805.66 51.5113 L1826.31 51.5113 L1826.31 19.2256 M1824.17 12.096 L1834.46 12.096 L1834.46 51.5113 L1843.09 51.5113 L1843.09 58.3168 L1834.46 58.3168 L1834.46 72.576 L1826.31 72.576 L1826.31 58.3168 L1799.01 58.3168 L1799.01 50.4176 L1824.17 12.096 Z" fill="#000000" fill-rule="evenodd" fill-opacity="1" /><polyline clip-path="url(#clip412)" style="stroke:#009af9; stroke-linecap:butt; stroke-linejoin:round; stroke-width:12; stroke-opacity:1; fill:none" points="
  255.035,936.355 362.225,929.294 469.416,921.026 576.607,911.022 683.797,898.592 790.988,882.922 898.179,863.195 1005.37,838.873 1112.56,810.111 1219.75,780.067 
  1326.94,754.509 1434.13,730.863 1541.32,710.688 1648.51,694.988 1755.7,683.885 1862.89,676.837 1970.09,673.03 2077.28,671.649 2184.47,672.004 2291.66,673.565 
  
  "/>
<circle clip-path="url(#clip412)" cx="255.035" cy="936.355" r="14.4" fill="#009af9" fill-rule="evenodd" fill-opacity="1" stroke="#000000" stroke-opacity="1" stroke-width="3.2"/>
<circle clip-path="url(#clip412)" cx="362.225" cy="929.294" r="14.4" fill="#009af9" fill-rule="evenodd" fill-opacity="1" stroke="#000000" stroke-opacity="1" stroke-width="3.2"/>
<circle clip-path="url(#clip412)" cx="469.416" cy="921.026" r="14.4" fill="#009af9" fill-rule="evenodd" fill-opacity="1" stroke="#000000" stroke-opacity="1" stroke-width="3.2"/>
<circle clip-path="url(#clip412)" cx="576.607" cy="911.022" r="14.4" fill="#009af9" fill-rule="evenodd" fill-opacity="1" stroke="#000000" stroke-opacity="1" stroke-width="3.2"/>
<circle clip-path="url(#clip412)" cx="683.797" cy="898.592" r="14.4" fill="#009af9" fill-rule="evenodd" fill-opacity="1" stroke="#000000" stroke-opacity="1" stroke-width="3.2"/>
<circle clip-path="url(#clip412)" cx="790.988" cy="882.922" r="14.4" fill="#009af9" fill-rule="evenodd" fill-opacity="1" stroke="#000000" stroke-opacity="1" stroke-width="3.2"/>
<circle clip-path="url(#clip412)" cx="898.179" cy="863.195" r="14.4" fill="#009af9" fill-rule="evenodd" fill-opacity="1" stroke="#000000" stroke-opacity="1" stroke-width="3.2"/>
<circle clip-path="url(#clip412)" cx="1005.37" cy="838.873" r="14.4" fill="#009af9" fill-rule="evenodd" fill-opacity="1" stroke="#000000" stroke-opacity="1" stroke-width="3.2"/>
<circle clip-path="url(#clip412)" cx="1112.56" cy="810.111" r="14.4" fill="#009af9" fill-rule="evenodd" fill-opacity="1" stroke="#000000" stroke-opacity="1" stroke-width="3.2"/>
<circle clip-path="url(#clip412)" cx="1219.75" cy="780.067" r="14.4" fill="#009af9" fill-rule="evenodd" fill-opacity="1" stroke="#000000" stroke-opacity="1" stroke-width="3.2"/>
<circle clip-path="url(#clip412)" cx="1326.94" cy="754.509" r="14.4" fill="#009af9" fill-rule="evenodd" fill-opacity="1" stroke="#000000" stroke-opacity="1" stroke-width="3.2"/>
<circle clip-path="url(#clip412)" cx="1434.13" cy="730.863" r="14.4" fill="#009af9" fill-rule="evenodd" fill-opacity="1" stroke="#000000" stroke-opacity="1" stroke-width="3.2"/>
<circle clip-path="url(#clip412)" cx="1541.32" cy="710.688" r="14.4" fill="#009af9" fill-rule="evenodd" fill-opacity="1" stroke="#000000" stroke-opacity="1" stroke-width="3.2"/>
<circle clip-path="url(#clip412)" cx="1648.51" cy="694.988" r="14.4" fill="#009af9" fill-rule="evenodd" fill-opacity="1" stroke="#000000" stroke-opacity="1" stroke-width="3.2"/>
<circle clip-path="url(#clip412)" cx="1755.7" cy="683.885" r="14.4" fill="#009af9" fill-rule="evenodd" fill-opacity="1" stroke="#000000" stroke-opacity="1" stroke-width="3.2"/>
<circle clip-path="url(#clip412)" cx="1862.89" cy="676.837" r="14.4" fill="#009af9" fill-rule="evenodd" fill-opacity="1" stroke="#000000" stroke-opacity="1" stroke-width="3.2"/>
<circle clip-path="url(#clip412)" cx="1970.09" cy="673.03" r="14.4" fill="#009af9" fill-rule="evenodd" fill-opacity="1" stroke="#000000" stroke-opacity="1" stroke-width="3.2"/>
<circle clip-path="url(#clip412)" cx="2077.28" cy="671.649" r="14.4" fill="#009af9" fill-rule="evenodd" fill-opacity="1" stroke="#000000" stroke-opacity="1" stroke-width="3.2"/>
<circle clip-path="url(#clip412)" cx="2184.47" cy="672.004" r="14.4" fill="#009af9" fill-rule="evenodd" fill-opacity="1" stroke="#000000" stroke-opacity="1" stroke-width="3.2"/>
<circle clip-path="url(#clip412)" cx="2291.66" cy="673.565" r="14.4" fill="#009af9" fill-rule="evenodd" fill-opacity="1" stroke="#000000" stroke-opacity="1" stroke-width="3.2"/>
<polyline clip-path="url(#clip412)" style="stroke:#e26f46; stroke-linecap:butt; stroke-linejoin:round; stroke-width:12; stroke-opacity:1; fill:none" points="
  255.035,936.355 261.664,936.228 268.294,936.097 329.596,934.726 390.898,933.002 427.737,931.761 464.577,930.342 495.725,928.985 526.872,927.468 560.707,925.621 
  594.542,923.543 625.735,921.402 656.928,919.025 690.37,916.191 723.812,913.036 762.558,908.946 801.304,904.354 835.737,899.822 870.17,894.842 900.364,890.095 
  930.558,884.982 963.478,878.988 996.398,872.558 1029.51,865.661 1062.63,858.353 1099.24,849.831 1135.86,840.896 1170.69,832.073 1205.53,823.007 1277.98,803.721 
  1338.96,787.492 1376.19,777.799 1413.41,768.383 1447.51,760.074 1481.62,752.122 1513.11,745.134 1544.61,738.516 1576.51,732.206 1608.42,726.304 1644.17,720.178 
  1679.93,714.565 1712.33,709.909 1744.73,705.649 1781.83,701.233 1818.92,697.28 1853.27,694.004 1887.62,691.068 1921.48,688.48 1955.34,686.171 1988.22,684.17 
  2021.1,682.386 2054.8,680.76 2088.51,679.318 2125.44,677.928 2162.36,676.714 2216,675.221 2269.65,673.999 2280.65,673.778 2291.66,673.565 
  "/>
<polyline clip-path="url(#clip412)" style="stroke:#3da44d; stroke-linecap:butt; stroke-linejoin:round; stroke-width:12; stroke-opacity:1; fill:none" points="
  255.035,803.034 268.294,802.935 390.898,801.758 464.577,800.768 526.872,799.723 594.542,798.335 656.928,796.792 723.812,794.84 801.304,792.197 870.17,789.555 
  930.558,787.097 996.398,784.402 1062.63,781.831 1080.94,781.139 1099.24,780.421 1117.55,779.611 1135.86,778.57 1144.57,777.918 1153.28,777.103 1161.98,776.054 
  1170.69,774.673 1175.05,773.819 1179.4,772.83 1183.76,771.682 1188.11,770.348 1192.47,768.797 1196.82,766.995 1201.18,764.902 1205.53,762.477 1210.06,759.552 
  1214.59,756.162 1219.11,752.248 1223.64,747.754 1225.91,745.272 1228.17,742.624 1230.43,739.805 1232.7,736.81 1234.96,733.634 1237.23,730.275 1239.49,726.729 
  1241.75,722.996 1244.02,719.077 1246.28,714.974 1248.55,710.691 1250.81,706.235 1255.34,696.833 1259.86,686.857 1264.39,676.424 1268.92,665.679 1273.45,654.787 
  1277.98,643.922 1281.79,634.927 1285.6,626.173 1289.41,617.752 1293.22,609.738 1297.03,602.193 1300.84,595.164 1304.66,588.679 1308.47,582.755 1312.28,577.391 
  1316.09,572.579 1319.9,568.301 1323.71,564.53 1327.52,561.236 1331.34,558.386 1335.15,555.946 1338.96,553.881 1343.61,551.819 1348.27,550.205 1352.92,548.987 
  1357.57,548.114 1362.23,547.542 1366.88,547.232 1371.53,547.15 1376.19,547.266 1385.49,547.995 1394.8,549.254 1404.11,550.925 1413.41,552.921 1421.94,554.981 
  1430.46,557.225 1438.99,559.626 1447.51,562.163 1464.57,567.584 1481.62,573.39 1497.36,579.033 1513.11,584.9 1528.86,590.951 1544.61,597.152 1576.51,610.037 
  1608.42,623.149 1644.17,637.839 1679.93,652.269 1712.33,664.938 1744.73,677.088 1763.28,683.774 1781.83,690.245 1800.37,696.492 1818.92,702.507 1836.1,707.866 
  1853.27,713.018 1870.44,717.964 1887.62,722.704 1904.55,727.176 1921.48,731.451 1938.41,735.533 1955.34,739.425 1971.78,743.027 1988.22,746.458 2004.66,749.724 
  2021.1,752.83 2054.8,758.719 2088.51,764.003 2106.97,766.659 2125.44,769.156 2143.9,771.502 2162.36,773.704 2189.18,776.663 2216,779.356 2242.83,781.805 
  2269.65,784.03 2275.15,784.46 2280.65,784.882 2286.15,785.296 2291.66,785.701 
  "/>
<polyline clip-path="url(#clip412)" style="stroke:#c271d2; stroke-linecap:butt; stroke-linejoin:round; stroke-width:12; stroke-opacity:1; fill:none" points="
  255.035,812.387 268.294,812.753 390.898,816.993 464.577,820.383 526.872,823.787 594.542,828.017 656.928,832.302 723.812,837.058 801.304,842.189 870.17,845.596 
  930.558,846.92 963.478,846.75 996.398,845.883 1029.51,844.458 1062.63,843.314 1080.94,843.796 1099.24,846.628 1108.4,849.721 1117.55,854.646 1126.7,862.227 
  1135.86,873.637 1140.21,880.865 1144.57,889.549 1148.92,899.953 1153.28,912.386 1157.63,927.205 1161.98,944.823 1166.34,965.718 1170.69,990.435 1175.05,1019.59 
  1179.4,1053.88 1183.76,1094.07 1188.11,1141.01 1190.29,1167.29 1192.47,1195.6 1194.64,1226.05 1196.82,1258.77 1199,1293.87 1201.18,1331.47 1203.35,1371.68 
  1205.53,1414.61 1207.79,1462.22 1210.06,1512.96 1212.32,1566.91 1214.59,1624.1 1216.85,1684.56 1219.11,1748.28 1221.38,1815.21 1223.64,1885.24 1225.91,1958.23 
  1228.17,2033.97 1230.43,2112.18 1232.7,2192.53 1237.23,2357.93 1241.75,2525.97 1244.02,2609.35 1246.28,2691.31 1248.55,2771.01 1250.81,2847.6 1253.07,2920.19 
  1255.34,2987.86 1257.6,3049.73 1259.86,3104.95 1261,3129.81 1262.13,3152.71 1263.26,3173.57 1264.39,3192.29 1265.52,3208.81 1266.66,3223.07 1267.79,3234.99 
  1268.92,3244.53 1270.05,3251.65 1271.18,3256.31 1272.32,3258.5 1273.45,3258.19 1274.58,3255.38 1275.71,3250.08 1276.84,3242.31 1277.98,3232.08 1279.88,3209.44 
  1281.79,3180.17 1283.69,3144.57 1285.6,3103 1287.5,3055.86 1289.41,3003.61 1291.32,2946.72 1293.22,2885.72 1295.13,2821.13 1297.03,2753.5 1298.94,2683.36 
  1300.84,2611.23 1304.66,2463.04 1308.47,2312.73 1312.28,2163.59 1316.09,2018.32 1318,1947.82 1319.9,1879.04 1321.81,1812.15 1323.71,1747.29 1325.62,1684.58 
  1327.52,1624.09 1329.43,1565.89 1331.34,1510.01 1333.24,1456.46 1335.15,1405.24 1337.05,1356.33 1338.96,1309.69 1341.29,1255.78 1343.61,1205.09 1345.94,1157.51 
  1348.27,1112.91 1350.59,1071.17 1352.92,1032.13 1355.25,995.646 1357.57,961.584 1359.9,929.797 1362.23,900.144 1364.55,872.488 1366.88,846.698 1371.53,800.216 
  1376.19,759.757 1380.84,724.48 1385.49,693.643 1390.15,666.599 1394.8,642.788 1399.45,621.728 1404.11,603.01 1408.76,586.285 1413.41,571.257 1421.94,547.334 
  1430.46,527.098 1438.99,509.679 1447.51,494.451 1464.57,468.905 1481.62,448.206 1497.36,432.388 1513.11,419.236 1528.86,408.472 1544.61,399.915 1560.56,393.361 
  1576.51,388.816 1592.46,386.163 1608.42,385.286 1644.17,389.143 1679.93,399.889 1712.33,414.366 1744.73,432.273 1818.92,481.195 1887.62,530.022 1955.34,576.494 
  2021.1,617.435 2088.51,653.941 2162.36,687.323 2269.65,724.518 2291.66,730.695 
  "/>
<polyline clip-path="url(#clip412)" style="stroke:#ac8d18; stroke-linecap:butt; stroke-linejoin:round; stroke-width:12; stroke-opacity:1; fill:none" points="
  255.035,791.33 268.294,791.33 390.898,791.33 464.577,791.33 526.872,791.33 594.542,791.33 656.928,791.33 723.812,791.33 801.304,791.33 870.17,791.33 
  930.558,791.33 996.398,791.328 1062.63,791.299 1080.94,791.266 1099.24,791.199 1117.55,791.061 1135.86,790.779 1144.57,790.556 1153.28,790.242 1161.98,789.804 
  1170.69,789.193 1175.05,788.802 1179.4,788.342 1183.76,787.801 1188.11,787.164 1192.47,786.418 1196.82,785.545 1201.18,784.526 1205.53,783.339 1210.06,781.903 
  1214.59,780.234 1219.11,778.304 1223.64,776.084 1225.91,774.856 1228.17,773.546 1230.43,772.151 1232.7,770.667 1234.96,769.094 1237.23,767.429 1239.49,765.671 
  1241.75,763.82 1244.02,761.876 1246.28,759.84 1248.55,757.714 1250.81,755.5 1255.34,750.829 1259.86,745.867 1264.39,740.672 1268.92,735.314 1273.45,729.873 
  1277.98,724.434 1281.79,719.92 1285.6,715.515 1289.41,711.263 1293.22,707.2 1297.03,703.357 1300.84,699.756 1304.66,696.41 1308.47,693.328 1312.28,690.509 
  1316.09,687.949 1319.9,685.638 1323.71,683.565 1327.52,681.713 1331.34,680.067 1335.15,678.61 1338.96,677.324 1343.61,675.963 1348.27,674.805 1352.92,673.822 
  1357.57,672.99 1362.23,672.289 1366.88,671.698 1371.53,671.201 1376.19,670.785 1385.49,670.143 1394.8,669.693 1404.11,669.379 1413.41,669.161 1430.46,668.918 
  1447.51,668.793 1464.57,668.729 1481.62,668.697 1544.61,668.665 1608.42,668.663 1679.93,668.662 1744.73,668.662 1818.92,668.662 1887.62,668.662 1955.34,668.662 
  2021.1,668.662 2088.51,668.662 2162.36,668.662 2269.65,668.662 2291.66,668.662 
  "/>
<path clip-path="url(#clip410)" d="
M1662.04 1441.02 L2280.8 1441.02 L2280.8 1129.98 L1662.04 1129.98  Z
  " fill="#ffffff" fill-rule="evenodd" fill-opacity="1"/>
<polyline clip-path="url(#clip410)" style="stroke:#000000; stroke-linecap:butt; stroke-linejoin:round; stroke-width:4; stroke-opacity:1; fill:none" points="
  1662.04,1441.02 2280.8,1441.02 2280.8,1129.98 1662.04,1129.98 1662.04,1441.02 
  "/>
<polyline clip-path="url(#clip410)" style="stroke:#009af9; stroke-linecap:butt; stroke-linejoin:round; stroke-width:4; stroke-opacity:1; fill:none" points="
  1686.03,1181.82 1829.95,1181.82 
  "/>
<circle clip-path="url(#clip410)" cx="1757.99" cy="1181.82" r="23.04" fill="#009af9" fill-rule="evenodd" fill-opacity="1" stroke="#000000" stroke-opacity="1" stroke-width="5.12"/>
<path clip-path="url(#clip410)" d="M1867.78 1201.5 Q1865.97 1206.13 1864.26 1207.54 Q1862.55 1208.96 1859.68 1208.96 L1856.27 1208.96 L1856.27 1205.39 L1858.77 1205.39 Q1860.53 1205.39 1861.5 1204.56 Q1862.48 1203.72 1863.66 1200.62 L1864.42 1198.68 L1853.93 1173.17 L1858.45 1173.17 L1866.55 1193.45 L1874.65 1173.17 L1879.17 1173.17 L1867.78 1201.5 Z" fill="#000000" fill-rule="evenodd" fill-opacity="1" /><path clip-path="url(#clip410)" d="M1886.46 1195.16 L1894.1 1195.16 L1894.1 1168.79 L1885.79 1170.46 L1885.79 1166.2 L1894.05 1164.54 L1898.73 1164.54 L1898.73 1195.16 L1906.36 1195.16 L1906.36 1199.1 L1886.46 1199.1 L1886.46 1195.16 Z" fill="#000000" fill-rule="evenodd" fill-opacity="1" /><polyline clip-path="url(#clip410)" style="stroke:#e26f46; stroke-linecap:butt; stroke-linejoin:round; stroke-width:4; stroke-opacity:1; fill:none" points="
  1686.03,1233.66 1829.95,1233.66 
  "/>
<path clip-path="url(#clip410)" d="M1853.93 1240.7 L1853.93 1225.01 L1858.19 1225.01 L1858.19 1240.54 Q1858.19 1244.22 1859.63 1246.07 Q1861.06 1247.9 1863.93 1247.9 Q1867.38 1247.9 1869.37 1245.7 Q1871.39 1243.5 1871.39 1239.71 L1871.39 1225.01 L1875.65 1225.01 L1875.65 1250.94 L1871.39 1250.94 L1871.39 1246.95 Q1869.84 1249.31 1867.78 1250.47 Q1865.74 1251.61 1863.03 1251.61 Q1858.56 1251.61 1856.25 1248.83 Q1853.93 1246.05 1853.93 1240.7 M1864.65 1224.38 L1864.65 1224.38 Z" fill="#000000" fill-rule="evenodd" fill-opacity="1" /><path clip-path="url(#clip410)" d="M1904.12 1258.81 L1904.12 1262.12 L1879.49 1262.12 L1879.49 1258.81 L1904.12 1258.81 Z" fill="#000000" fill-rule="evenodd" fill-opacity="1" /><path clip-path="url(#clip410)" d="M1928.31 1229.99 Q1929.91 1227.12 1932.13 1225.75 Q1934.35 1224.38 1937.36 1224.38 Q1941.41 1224.38 1943.61 1227.23 Q1945.81 1230.06 1945.81 1235.29 L1945.81 1250.94 L1941.53 1250.94 L1941.53 1235.43 Q1941.53 1231.7 1940.21 1229.89 Q1938.89 1228.09 1936.18 1228.09 Q1932.87 1228.09 1930.95 1230.29 Q1929.03 1232.49 1929.03 1236.28 L1929.03 1250.94 L1924.74 1250.94 L1924.74 1235.43 Q1924.74 1231.68 1923.42 1229.89 Q1922.11 1228.09 1919.35 1228.09 Q1916.09 1228.09 1914.17 1230.31 Q1912.24 1232.51 1912.24 1236.28 L1912.24 1250.94 L1907.96 1250.94 L1907.96 1225.01 L1912.24 1225.01 L1912.24 1229.04 Q1913.7 1226.65 1915.74 1225.52 Q1917.78 1224.38 1920.58 1224.38 Q1923.4 1224.38 1925.37 1225.82 Q1927.36 1227.25 1928.31 1229.99 Z" fill="#000000" fill-rule="evenodd" fill-opacity="1" /><path clip-path="url(#clip410)" d="M1966.09 1237.9 Q1960.92 1237.9 1958.93 1239.08 Q1956.94 1240.26 1956.94 1243.11 Q1956.94 1245.38 1958.42 1246.72 Q1959.93 1248.04 1962.5 1248.04 Q1966.04 1248.04 1968.17 1245.54 Q1970.32 1243.02 1970.32 1238.85 L1970.32 1237.9 L1966.09 1237.9 M1974.58 1236.14 L1974.58 1250.94 L1970.32 1250.94 L1970.32 1247 Q1968.86 1249.36 1966.69 1250.5 Q1964.51 1251.61 1961.36 1251.61 Q1957.38 1251.61 1955.02 1249.38 Q1952.68 1247.14 1952.68 1243.39 Q1952.68 1239.01 1955.6 1236.79 Q1958.54 1234.57 1964.35 1234.57 L1970.32 1234.57 L1970.32 1234.15 Q1970.32 1231.21 1968.38 1229.62 Q1966.46 1228 1962.96 1228 Q1960.74 1228 1958.63 1228.53 Q1956.53 1229.06 1954.58 1230.13 L1954.58 1226.19 Q1956.92 1225.29 1959.12 1224.85 Q1961.32 1224.38 1963.4 1224.38 Q1969.03 1224.38 1971.8 1227.3 Q1974.58 1230.22 1974.58 1236.14 Z" fill="#000000" fill-rule="evenodd" fill-opacity="1" /><path clip-path="url(#clip410)" d="M2004.91 1235.29 L2004.91 1250.94 L2000.65 1250.94 L2000.65 1235.43 Q2000.65 1231.75 1999.21 1229.92 Q1997.78 1228.09 1994.91 1228.09 Q1991.46 1228.09 1989.47 1230.29 Q1987.48 1232.49 1987.48 1236.28 L1987.48 1250.94 L1983.19 1250.94 L1983.19 1225.01 L1987.48 1225.01 L1987.48 1229.04 Q1989 1226.7 1991.06 1225.54 Q1993.15 1224.38 1995.86 1224.38 Q2000.32 1224.38 2002.61 1227.16 Q2004.91 1229.92 2004.91 1235.29 Z" fill="#000000" fill-rule="evenodd" fill-opacity="1" /><path clip-path="url(#clip410)" d="M2012.96 1240.7 L2012.96 1225.01 L2017.22 1225.01 L2017.22 1240.54 Q2017.22 1244.22 2018.66 1246.07 Q2020.09 1247.9 2022.96 1247.9 Q2026.41 1247.9 2028.4 1245.7 Q2030.42 1243.5 2030.42 1239.71 L2030.42 1225.01 L2034.67 1225.01 L2034.67 1250.94 L2030.42 1250.94 L2030.42 1246.95 Q2028.86 1249.31 2026.8 1250.47 Q2024.77 1251.61 2022.06 1251.61 Q2017.59 1251.61 2015.28 1248.83 Q2012.96 1246.05 2012.96 1240.7 M2023.68 1224.38 L2023.68 1224.38 Z" fill="#000000" fill-rule="evenodd" fill-opacity="1" /><path clip-path="url(#clip410)" d="M2056.57 1214.92 L2056.57 1218.46 L2052.5 1218.46 Q2050.21 1218.46 2049.3 1219.38 Q2048.42 1220.31 2048.42 1222.72 L2048.42 1225.01 L2055.44 1225.01 L2055.44 1228.32 L2048.42 1228.32 L2048.42 1250.94 L2044.14 1250.94 L2044.14 1228.32 L2040.07 1228.32 L2040.07 1225.01 L2044.14 1225.01 L2044.14 1223.2 Q2044.14 1218.88 2046.16 1216.91 Q2048.17 1214.92 2052.54 1214.92 L2056.57 1214.92 Z" fill="#000000" fill-rule="evenodd" fill-opacity="1" /><path clip-path="url(#clip410)" d="M2071.92 1237.9 Q2066.76 1237.9 2064.77 1239.08 Q2062.78 1240.26 2062.78 1243.11 Q2062.78 1245.38 2064.26 1246.72 Q2065.76 1248.04 2068.33 1248.04 Q2071.87 1248.04 2074 1245.54 Q2076.16 1243.02 2076.16 1238.85 L2076.16 1237.9 L2071.92 1237.9 M2080.41 1236.14 L2080.41 1250.94 L2076.16 1250.94 L2076.16 1247 Q2074.7 1249.36 2072.52 1250.5 Q2070.35 1251.61 2067.2 1251.61 Q2063.22 1251.61 2060.85 1249.38 Q2058.52 1247.14 2058.52 1243.39 Q2058.52 1239.01 2061.43 1236.79 Q2064.37 1234.57 2070.18 1234.57 L2076.16 1234.57 L2076.16 1234.15 Q2076.16 1231.21 2074.21 1229.62 Q2072.29 1228 2068.79 1228 Q2066.57 1228 2064.47 1228.53 Q2062.36 1229.06 2060.41 1230.13 L2060.41 1226.19 Q2062.75 1225.29 2064.95 1224.85 Q2067.15 1224.38 2069.23 1224.38 Q2074.86 1224.38 2077.64 1227.3 Q2080.41 1230.22 2080.41 1236.14 Z" fill="#000000" fill-rule="evenodd" fill-opacity="1" /><path clip-path="url(#clip410)" d="M2107.85 1226 L2107.85 1229.99 Q2106.04 1228.99 2104.21 1228.5 Q2102.41 1228 2100.55 1228 Q2096.41 1228 2094.12 1230.63 Q2091.83 1233.25 2091.83 1238 Q2091.83 1242.74 2094.12 1245.38 Q2096.41 1248 2100.55 1248 Q2102.41 1248 2104.21 1247.51 Q2106.04 1247 2107.85 1246 L2107.85 1249.94 Q2106.06 1250.77 2104.14 1251.19 Q2102.24 1251.61 2100.09 1251.61 Q2094.23 1251.61 2090.79 1247.93 Q2087.34 1244.25 2087.34 1238 Q2087.34 1231.65 2090.81 1228.02 Q2094.3 1224.38 2100.37 1224.38 Q2102.34 1224.38 2104.21 1224.8 Q2106.09 1225.19 2107.85 1226 Z" fill="#000000" fill-rule="evenodd" fill-opacity="1" /><path clip-path="url(#clip410)" d="M2119.47 1217.65 L2119.47 1225.01 L2128.24 1225.01 L2128.24 1228.32 L2119.47 1228.32 L2119.47 1242.39 Q2119.47 1245.57 2120.32 1246.47 Q2121.2 1247.37 2123.86 1247.37 L2128.24 1247.37 L2128.24 1250.94 L2123.86 1250.94 Q2118.93 1250.94 2117.06 1249.11 Q2115.18 1247.25 2115.18 1242.39 L2115.18 1228.32 L2112.06 1228.32 L2112.06 1225.01 L2115.18 1225.01 L2115.18 1217.65 L2119.47 1217.65 Z" fill="#000000" fill-rule="evenodd" fill-opacity="1" /><path clip-path="url(#clip410)" d="M2133.4 1240.7 L2133.4 1225.01 L2137.66 1225.01 L2137.66 1240.54 Q2137.66 1244.22 2139.1 1246.07 Q2140.53 1247.9 2143.4 1247.9 Q2146.85 1247.9 2148.84 1245.7 Q2150.85 1243.5 2150.85 1239.71 L2150.85 1225.01 L2155.11 1225.01 L2155.11 1250.94 L2150.85 1250.94 L2150.85 1246.95 Q2149.3 1249.31 2147.24 1250.47 Q2145.21 1251.61 2142.5 1251.61 Q2138.03 1251.61 2135.72 1248.83 Q2133.4 1246.05 2133.4 1240.7 M2144.12 1224.38 L2144.12 1224.38 Z" fill="#000000" fill-rule="evenodd" fill-opacity="1" /><path clip-path="url(#clip410)" d="M2178.91 1228.99 Q2178.19 1228.57 2177.34 1228.39 Q2176.5 1228.18 2175.48 1228.18 Q2171.87 1228.18 2169.93 1230.54 Q2168.01 1232.88 2168.01 1237.28 L2168.01 1250.94 L2163.72 1250.94 L2163.72 1225.01 L2168.01 1225.01 L2168.01 1229.04 Q2169.35 1226.68 2171.5 1225.54 Q2173.66 1224.38 2176.73 1224.38 Q2177.17 1224.38 2177.71 1224.45 Q2178.24 1224.5 2178.89 1224.62 L2178.91 1228.99 Z" fill="#000000" fill-rule="evenodd" fill-opacity="1" /><path clip-path="url(#clip410)" d="M2204.51 1236.91 L2204.51 1238.99 L2184.93 1238.99 Q2185.21 1243.39 2187.57 1245.7 Q2189.95 1248 2194.19 1248 Q2196.64 1248 2198.93 1247.39 Q2201.25 1246.79 2203.52 1245.59 L2203.52 1249.62 Q2201.22 1250.59 2198.82 1251.1 Q2196.41 1251.61 2193.93 1251.61 Q2187.73 1251.61 2184.09 1248 Q2180.48 1244.38 2180.48 1238.23 Q2180.48 1231.86 2183.91 1228.13 Q2187.36 1224.38 2193.19 1224.38 Q2198.42 1224.38 2201.46 1227.76 Q2204.51 1231.12 2204.51 1236.91 M2200.25 1235.66 Q2200.21 1232.16 2198.28 1230.08 Q2196.39 1228 2193.24 1228 Q2189.67 1228 2187.52 1230.01 Q2185.39 1232.02 2185.07 1235.68 L2200.25 1235.66 Z" fill="#000000" fill-rule="evenodd" fill-opacity="1" /><path clip-path="url(#clip410)" d="M2228.56 1228.94 L2228.56 1214.92 L2232.82 1214.92 L2232.82 1250.94 L2228.56 1250.94 L2228.56 1247.05 Q2227.22 1249.36 2225.16 1250.5 Q2223.12 1251.61 2220.25 1251.61 Q2215.55 1251.61 2212.59 1247.86 Q2209.65 1244.11 2209.65 1238 Q2209.65 1231.88 2212.59 1228.13 Q2215.55 1224.38 2220.25 1224.38 Q2223.12 1224.38 2225.16 1225.52 Q2227.22 1226.63 2228.56 1228.94 M2214.05 1238 Q2214.05 1242.69 2215.97 1245.38 Q2217.91 1248.04 2221.29 1248.04 Q2224.67 1248.04 2226.62 1245.38 Q2228.56 1242.69 2228.56 1238 Q2228.56 1233.3 2226.62 1230.63 Q2224.67 1227.95 2221.29 1227.95 Q2217.91 1227.95 2215.97 1230.63 Q2214.05 1233.3 2214.05 1238 Z" fill="#000000" fill-rule="evenodd" fill-opacity="1" /><polyline clip-path="url(#clip410)" style="stroke:#3da44d; stroke-linecap:butt; stroke-linejoin:round; stroke-width:4; stroke-opacity:1; fill:none" points="
  1686.03,1285.5 1829.95,1285.5 
  "/>
<path clip-path="url(#clip410)" d="M1870.44 1266.76 L1870.44 1270.3 L1866.37 1270.3 Q1864.07 1270.3 1863.17 1271.22 Q1862.29 1272.15 1862.29 1274.56 L1862.29 1276.85 L1869.3 1276.85 L1869.3 1280.16 L1862.29 1280.16 L1862.29 1302.78 L1858.01 1302.78 L1858.01 1280.16 L1853.93 1280.16 L1853.93 1276.85 L1858.01 1276.85 L1858.01 1275.04 Q1858.01 1270.72 1860.02 1268.75 Q1862.04 1266.76 1866.41 1266.76 L1870.44 1266.76 Z" fill="#000000" fill-rule="evenodd" fill-opacity="1" /><path clip-path="url(#clip410)" d="M1874 1266.76 L1878.26 1266.76 L1878.26 1302.78 L1874 1302.78 L1874 1266.76 Z" fill="#000000" fill-rule="evenodd" fill-opacity="1" /><path clip-path="url(#clip410)" d="M1886.74 1292.54 L1886.74 1276.85 L1890.99 1276.85 L1890.99 1292.38 Q1890.99 1296.06 1892.43 1297.91 Q1893.86 1299.74 1896.74 1299.74 Q1900.18 1299.74 1902.18 1297.54 Q1904.19 1295.34 1904.19 1291.55 L1904.19 1276.85 L1908.45 1276.85 L1908.45 1302.78 L1904.19 1302.78 L1904.19 1298.79 Q1902.64 1301.15 1900.58 1302.31 Q1898.54 1303.45 1895.83 1303.45 Q1891.36 1303.45 1889.05 1300.67 Q1886.74 1297.89 1886.74 1292.54 M1897.45 1276.22 L1897.45 1276.22 Z" fill="#000000" fill-rule="evenodd" fill-opacity="1" /><path clip-path="url(#clip410)" d="M1938.77 1276.85 L1929.4 1289.47 L1939.26 1302.78 L1934.24 1302.78 L1926.69 1292.59 L1919.14 1302.78 L1914.12 1302.78 L1924.19 1289.21 L1914.98 1276.85 L1920 1276.85 L1926.87 1286.09 L1933.75 1276.85 L1938.77 1276.85 Z" fill="#000000" fill-rule="evenodd" fill-opacity="1" /><polyline clip-path="url(#clip410)" style="stroke:#c271d2; stroke-linecap:butt; stroke-linejoin:round; stroke-width:4; stroke-opacity:1; fill:none" points="
  1686.03,1337.34 1829.95,1337.34 
  "/>
<path clip-path="url(#clip410)" d="M1870.44 1318.6 L1870.44 1322.14 L1866.37 1322.14 Q1864.07 1322.14 1863.17 1323.06 Q1862.29 1323.99 1862.29 1326.4 L1862.29 1328.69 L1869.3 1328.69 L1869.3 1332 L1862.29 1332 L1862.29 1354.62 L1858.01 1354.62 L1858.01 1332 L1853.93 1332 L1853.93 1328.69 L1858.01 1328.69 L1858.01 1326.88 Q1858.01 1322.56 1860.02 1320.59 Q1862.04 1318.6 1866.41 1318.6 L1870.44 1318.6 Z" fill="#000000" fill-rule="evenodd" fill-opacity="1" /><path clip-path="url(#clip410)" d="M1884.05 1331.68 Q1880.62 1331.68 1878.63 1334.36 Q1876.64 1337.02 1876.64 1341.68 Q1876.64 1346.33 1878.61 1349.01 Q1880.6 1351.68 1884.05 1351.68 Q1887.45 1351.68 1889.44 1348.99 Q1891.43 1346.31 1891.43 1341.68 Q1891.43 1337.07 1889.44 1334.38 Q1887.45 1331.68 1884.05 1331.68 M1884.05 1328.06 Q1889.61 1328.06 1892.78 1331.68 Q1895.95 1335.29 1895.95 1341.68 Q1895.95 1348.04 1892.78 1351.68 Q1889.61 1355.29 1884.05 1355.29 Q1878.47 1355.29 1875.3 1351.68 Q1872.15 1348.04 1872.15 1341.68 Q1872.15 1335.29 1875.3 1331.68 Q1878.47 1328.06 1884.05 1328.06 Z" fill="#000000" fill-rule="evenodd" fill-opacity="1" /><path clip-path="url(#clip410)" d="M1918.03 1332.67 Q1917.31 1332.25 1916.46 1332.07 Q1915.62 1331.86 1914.61 1331.86 Q1910.99 1331.86 1909.05 1334.22 Q1907.13 1336.56 1907.13 1340.96 L1907.13 1354.62 L1902.85 1354.62 L1902.85 1328.69 L1907.13 1328.69 L1907.13 1332.72 Q1908.47 1330.36 1910.62 1329.22 Q1912.78 1328.06 1915.86 1328.06 Q1916.3 1328.06 1916.83 1328.13 Q1917.36 1328.18 1918.01 1328.3 L1918.03 1332.67 Z" fill="#000000" fill-rule="evenodd" fill-opacity="1" /><path clip-path="url(#clip410)" d="M1940.11 1329.68 L1940.11 1333.67 Q1938.31 1332.67 1936.48 1332.18 Q1934.67 1331.68 1932.82 1331.68 Q1928.68 1331.68 1926.39 1334.31 Q1924.1 1336.93 1924.1 1341.68 Q1924.1 1346.42 1926.39 1349.06 Q1928.68 1351.68 1932.82 1351.68 Q1934.67 1351.68 1936.48 1351.19 Q1938.31 1350.68 1940.11 1349.68 L1940.11 1353.62 Q1938.33 1354.45 1936.41 1354.87 Q1934.51 1355.29 1932.36 1355.29 Q1926.5 1355.29 1923.05 1351.61 Q1919.61 1347.93 1919.61 1341.68 Q1919.61 1335.33 1923.08 1331.7 Q1926.57 1328.06 1932.64 1328.06 Q1934.61 1328.06 1936.48 1328.48 Q1938.36 1328.87 1940.11 1329.68 Z" fill="#000000" fill-rule="evenodd" fill-opacity="1" /><path clip-path="url(#clip410)" d="M1947.52 1328.69 L1951.78 1328.69 L1951.78 1354.62 L1947.52 1354.62 L1947.52 1328.69 M1947.52 1318.6 L1951.78 1318.6 L1951.78 1323.99 L1947.52 1323.99 L1947.52 1318.6 Z" fill="#000000" fill-rule="evenodd" fill-opacity="1" /><path clip-path="url(#clip410)" d="M1982.24 1338.97 L1982.24 1354.62 L1977.98 1354.62 L1977.98 1339.11 Q1977.98 1335.43 1976.55 1333.6 Q1975.11 1331.77 1972.24 1331.77 Q1968.8 1331.77 1966.8 1333.97 Q1964.81 1336.17 1964.81 1339.96 L1964.81 1354.62 L1960.53 1354.62 L1960.53 1328.69 L1964.81 1328.69 L1964.81 1332.72 Q1966.34 1330.38 1968.4 1329.22 Q1970.48 1328.06 1973.19 1328.06 Q1977.66 1328.06 1979.95 1330.84 Q1982.24 1333.6 1982.24 1338.97 Z" fill="#000000" fill-rule="evenodd" fill-opacity="1" /><path clip-path="url(#clip410)" d="M2007.8 1341.35 Q2007.8 1336.72 2005.88 1334.18 Q2003.98 1331.63 2000.53 1331.63 Q1997.11 1331.63 1995.18 1334.18 Q1993.29 1336.72 1993.29 1341.35 Q1993.29 1345.96 1995.18 1348.5 Q1997.11 1351.05 2000.53 1351.05 Q2003.98 1351.05 2005.88 1348.5 Q2007.8 1345.96 2007.8 1341.35 M2012.06 1351.4 Q2012.06 1358.02 2009.12 1361.24 Q2006.18 1364.48 2000.11 1364.48 Q1997.87 1364.48 1995.88 1364.13 Q1993.89 1363.81 1992.01 1363.11 L1992.01 1358.97 Q1993.89 1359.99 1995.72 1360.47 Q1997.54 1360.96 1999.44 1360.96 Q2003.63 1360.96 2005.72 1358.76 Q2007.8 1356.58 2007.8 1352.16 L2007.8 1350.06 Q2006.48 1352.35 2004.42 1353.48 Q2002.36 1354.62 1999.49 1354.62 Q1994.72 1354.62 1991.8 1350.98 Q1988.89 1347.35 1988.89 1341.35 Q1988.89 1335.33 1991.8 1331.7 Q1994.72 1328.06 1999.49 1328.06 Q2002.36 1328.06 2004.42 1329.2 Q2006.48 1330.33 2007.8 1332.62 L2007.8 1328.69 L2012.06 1328.69 L2012.06 1351.4 Z" fill="#000000" fill-rule="evenodd" fill-opacity="1" /><polyline clip-path="url(#clip410)" style="stroke:#ac8d18; stroke-linecap:butt; stroke-linejoin:round; stroke-width:4; stroke-opacity:1; fill:none" points="
  1686.03,1389.18 1829.95,1389.18 
  "/>
<path clip-path="url(#clip410)" d="M1853.93 1370.44 L1858.22 1370.44 L1858.22 1391.71 L1870.93 1380.53 L1876.37 1380.53 L1862.62 1392.66 L1876.94 1406.46 L1871.39 1406.46 L1858.22 1393.79 L1858.22 1406.46 L1853.93 1406.46 L1853.93 1370.44 Z" fill="#000000" fill-rule="evenodd" fill-opacity="1" /><path clip-path="url(#clip410)" d="M1892.5 1393.42 Q1887.34 1393.42 1885.35 1394.6 Q1883.36 1395.78 1883.36 1398.63 Q1883.36 1400.9 1884.84 1402.24 Q1886.34 1403.56 1888.91 1403.56 Q1892.45 1403.56 1894.58 1401.06 Q1896.74 1398.54 1896.74 1394.37 L1896.74 1393.42 L1892.5 1393.42 M1900.99 1391.66 L1900.99 1406.46 L1896.74 1406.46 L1896.74 1402.52 Q1895.28 1404.88 1893.1 1406.02 Q1890.93 1407.13 1887.78 1407.13 Q1883.8 1407.13 1881.43 1404.9 Q1879.1 1402.66 1879.1 1398.91 Q1879.1 1394.53 1882.01 1392.31 Q1884.95 1390.09 1890.76 1390.09 L1896.74 1390.09 L1896.74 1389.67 Q1896.74 1386.73 1894.79 1385.14 Q1892.87 1383.52 1889.37 1383.52 Q1887.15 1383.52 1885.05 1384.05 Q1882.94 1384.58 1880.99 1385.65 L1880.99 1381.71 Q1883.33 1380.81 1885.53 1380.37 Q1887.73 1379.9 1889.81 1379.9 Q1895.44 1379.9 1898.22 1382.82 Q1900.99 1385.74 1900.99 1391.66 Z" fill="#000000" fill-rule="evenodd" fill-opacity="1" /><path clip-path="url(#clip410)" d="M1913.89 1402.57 L1913.89 1416.32 L1909.61 1416.32 L1909.61 1380.53 L1913.89 1380.53 L1913.89 1384.46 Q1915.23 1382.15 1917.27 1381.04 Q1919.33 1379.9 1922.17 1379.9 Q1926.9 1379.9 1929.84 1383.65 Q1932.8 1387.4 1932.8 1393.52 Q1932.8 1399.63 1929.84 1403.38 Q1926.9 1407.13 1922.17 1407.13 Q1919.33 1407.13 1917.27 1406.02 Q1915.23 1404.88 1913.89 1402.57 M1928.38 1393.52 Q1928.38 1388.82 1926.43 1386.15 Q1924.51 1383.47 1921.13 1383.47 Q1917.75 1383.47 1915.81 1386.15 Q1913.89 1388.82 1913.89 1393.52 Q1913.89 1398.21 1915.81 1400.9 Q1917.75 1403.56 1921.13 1403.56 Q1924.51 1403.56 1926.43 1400.9 Q1928.38 1398.21 1928.38 1393.52 Z" fill="#000000" fill-rule="evenodd" fill-opacity="1" /><path clip-path="url(#clip410)" d="M1943.98 1402.57 L1943.98 1416.32 L1939.7 1416.32 L1939.7 1380.53 L1943.98 1380.53 L1943.98 1384.46 Q1945.32 1382.15 1947.36 1381.04 Q1949.42 1379.9 1952.27 1379.9 Q1956.99 1379.9 1959.93 1383.65 Q1962.89 1387.4 1962.89 1393.52 Q1962.89 1399.63 1959.93 1403.38 Q1956.99 1407.13 1952.27 1407.13 Q1949.42 1407.13 1947.36 1406.02 Q1945.32 1404.88 1943.98 1402.57 M1958.47 1393.52 Q1958.47 1388.82 1956.53 1386.15 Q1954.61 1383.47 1951.23 1383.47 Q1947.85 1383.47 1945.9 1386.15 Q1943.98 1388.82 1943.98 1393.52 Q1943.98 1398.21 1945.9 1400.9 Q1947.85 1403.56 1951.23 1403.56 Q1954.61 1403.56 1956.53 1400.9 Q1958.47 1398.21 1958.47 1393.52 Z" fill="#000000" fill-rule="evenodd" fill-opacity="1" /><path clip-path="url(#clip410)" d="M1981.73 1393.42 Q1976.57 1393.42 1974.58 1394.6 Q1972.59 1395.78 1972.59 1398.63 Q1972.59 1400.9 1974.07 1402.24 Q1975.58 1403.56 1978.15 1403.56 Q1981.69 1403.56 1983.82 1401.06 Q1985.97 1398.54 1985.97 1394.37 L1985.97 1393.42 L1981.73 1393.42 M1990.23 1391.66 L1990.23 1406.46 L1985.97 1406.46 L1985.97 1402.52 Q1984.51 1404.88 1982.34 1406.02 Q1980.16 1407.13 1977.01 1407.13 Q1973.03 1407.13 1970.67 1404.9 Q1968.33 1402.66 1968.33 1398.91 Q1968.33 1394.53 1971.25 1392.31 Q1974.19 1390.09 1980 1390.09 L1985.97 1390.09 L1985.97 1389.67 Q1985.97 1386.73 1984.03 1385.14 Q1982.11 1383.52 1978.61 1383.52 Q1976.39 1383.52 1974.28 1384.05 Q1972.17 1384.58 1970.23 1385.65 L1970.23 1381.71 Q1972.57 1380.81 1974.77 1380.37 Q1976.97 1379.9 1979.05 1379.9 Q1984.67 1379.9 1987.45 1382.82 Q1990.23 1385.74 1990.23 1391.66 Z" fill="#000000" fill-rule="evenodd" fill-opacity="1" /></svg>
