<?xml version="1.0" encoding="utf-8"?>
<svg xmlns="http://www.w3.org/2000/svg" xmlns:xlink="http://www.w3.org/1999/xlink" width="600" height="400" viewBox="0 0 2400 1600">
<defs>
  <clipPath id="clip400">
    <rect x="0" y="0" width="2400" height="1600"/>
  </clipPath>
</defs>
<path clip-path="url(#clip400)" d="
M0 1600 L2400 1600 L2400 0 L0 0  Z
  " fill="#ffffff" fill-rule="evenodd" fill-opacity="1"/>
<defs>
  <clipPath id="clip401">
    <rect x="480" y="0" width="1681" height="1600"/>
  </clipPath>
</defs>
<path clip-path="url(#clip400)" d="
M147.478 1486.45 L2352.76 1486.45 L2352.76 47.2441 L147.478 47.2441  Z
  " fill="#ffffff" fill-rule="evenodd" fill-opacity="1"/>
<defs>
  <clipPath id="clip402">
    <rect x="147" y="47" width="2206" height="1440"/>
  </clipPath>
</defs>
<polyline clip-path="url(#clip402)" style="stroke:#000000; stroke-linecap:butt; stroke-linejoin:round; stroke-width:2; stroke-opacity:0.1; fill:none" points="
  209.891,1486.45 209.891,47.2441 
  "/>
<polyline clip-path="url(#clip402)" style="stroke:#000000; stroke-linecap:butt; stroke-linejoin:round; stroke-width:2; stroke-opacity:0.1; fill:none" points="
  730.004,1486.45 730.004,47.2441 
  "/>
<polyline clip-path="url(#clip402)" style="stroke:#000000; stroke-linecap:butt; stroke-linejoin:round; stroke-width:2; stroke-opacity:0.1; fill:none" points="
  1250.12,1486.45 1250.12,47.2441 
  "/>
<polyline clip-path="url(#clip402)" style="stroke:#000000; stroke-linecap:butt; stroke-linejoin:round; stroke-width:2; stroke-opacity:0.1; fill:none" points="
  1770.23,1486.45 1770.23,47.2441 
  "/>
<polyline clip-path="url(#clip402)" style="stroke:#000000; stroke-linecap:butt; stroke-linejoin:round; stroke-width:2; stroke-opacity:0.1; fill:none" points="
  2290.34,1486.45 2290.34,47.2441 
  "/>
<polyline clip-path="url(#clip400)" style="stroke:#000000; stroke-linecap:butt; stroke-linejoin:round; stroke-width:4; stroke-opacity:1; fill:none" points="
  147.478,1486.45 2352.76,1486.45 
  "/>
<polyline clip-path="url(#clip400)" style="stroke:#000000; stroke-linecap:butt; stroke-linejoin:round; stroke-width:4; stroke-opacity:1; fill:none" points="
  209.891,1486.45 209.891,1467.55 
  "/>
<polyline clip-path="url(#clip400)" style="stroke:#000000; stroke-linecap:butt; stroke-linejoin:round; stroke-width:4; stroke-opacity:1; fill:none" points="
  730.004,1486.45 730.004,1467.55 
  "/>
<polyline clip-path="url(#clip400)" style="stroke:#000000; stroke-linecap:butt; stroke-linejoin:round; stroke-width:4; stroke-opacity:1; fill:none" points="
  1250.12,1486.45 1250.12,1467.55 
  "/>
<polyline clip-path="url(#clip400)" style="stroke:#000000; stroke-linecap:butt; stroke-linejoin:round; stroke-width:4; stroke-opacity:1; fill:none" points="
  1770.23,1486.45 1770.23,1467.55 
  "/>
<polyline clip-path="url(#clip400)" style="stroke:#000000; stroke-linecap:butt; stroke-linejoin:round; stroke-width:4; stroke-opacity:1; fill:none" points="
  2290.34,1486.45 2290.34,1467.55 
  "/>
<path clip-path="url(#clip400)" d="M156.42 1532.02 L186.095 1532.02 L186.095 1535.95 L156.42 1535.95 L156.42 1532.02 Z" fill="#000000" fill-rule="evenodd" fill-opacity="1" /><path clip-path="url(#clip400)" d="M196.998 1544.91 L204.637 1544.91 L204.637 1518.55 L196.327 1520.21 L196.327 1515.95 L204.591 1514.29 L209.266 1514.29 L209.266 1544.91 L216.905 1544.91 L216.905 1548.85 L196.998 1548.85 L196.998 1544.91 Z" fill="#000000" fill-rule="evenodd" fill-opacity="1" /><path clip-path="url(#clip400)" d="M226.35 1542.97 L231.234 1542.97 L231.234 1548.85 L226.35 1548.85 L226.35 1542.97 Z" fill="#000000" fill-rule="evenodd" fill-opacity="1" /><path clip-path="url(#clip400)" d="M251.419 1517.37 Q247.808 1517.37 245.979 1520.93 Q244.174 1524.47 244.174 1531.6 Q244.174 1538.71 245.979 1542.27 Q247.808 1545.82 251.419 1545.82 Q255.053 1545.82 256.859 1542.27 Q258.687 1538.71 258.687 1531.6 Q258.687 1524.47 256.859 1520.93 Q255.053 1517.37 251.419 1517.37 M251.419 1513.66 Q257.229 1513.66 260.285 1518.27 Q263.363 1522.85 263.363 1531.6 Q263.363 1540.33 260.285 1544.94 Q257.229 1549.52 251.419 1549.52 Q245.609 1549.52 242.53 1544.94 Q239.475 1540.33 239.475 1531.6 Q239.475 1522.85 242.53 1518.27 Q245.609 1513.66 251.419 1513.66 Z" fill="#000000" fill-rule="evenodd" fill-opacity="1" /><path clip-path="url(#clip400)" d="M677.03 1532.02 L706.706 1532.02 L706.706 1535.95 L677.03 1535.95 L677.03 1532.02 Z" fill="#000000" fill-rule="evenodd" fill-opacity="1" /><path clip-path="url(#clip400)" d="M726.798 1517.37 Q723.187 1517.37 721.358 1520.93 Q719.553 1524.47 719.553 1531.6 Q719.553 1538.71 721.358 1542.27 Q723.187 1545.82 726.798 1545.82 Q730.432 1545.82 732.238 1542.27 Q734.067 1538.71 734.067 1531.6 Q734.067 1524.47 732.238 1520.93 Q730.432 1517.37 726.798 1517.37 M726.798 1513.66 Q732.608 1513.66 735.664 1518.27 Q738.743 1522.85 738.743 1531.6 Q738.743 1540.33 735.664 1544.94 Q732.608 1549.52 726.798 1549.52 Q720.988 1549.52 717.909 1544.94 Q714.854 1540.33 714.854 1531.6 Q714.854 1522.85 717.909 1518.27 Q720.988 1513.66 726.798 1513.66 Z" fill="#000000" fill-rule="evenodd" fill-opacity="1" /><path clip-path="url(#clip400)" d="M746.96 1542.97 L751.844 1542.97 L751.844 1548.85 L746.96 1548.85 L746.96 1542.97 Z" fill="#000000" fill-rule="evenodd" fill-opacity="1" /><path clip-path="url(#clip400)" d="M762.076 1514.29 L780.432 1514.29 L780.432 1518.22 L766.358 1518.22 L766.358 1526.7 Q767.377 1526.35 768.395 1526.19 Q769.414 1526 770.432 1526 Q776.219 1526 779.599 1529.17 Q782.978 1532.34 782.978 1537.76 Q782.978 1543.34 779.506 1546.44 Q776.034 1549.52 769.715 1549.52 Q767.539 1549.52 765.27 1549.15 Q763.025 1548.78 760.617 1548.04 L760.617 1543.34 Q762.701 1544.47 764.923 1545.03 Q767.145 1545.58 769.622 1545.58 Q773.627 1545.58 775.965 1543.48 Q778.303 1541.37 778.303 1537.76 Q778.303 1534.15 775.965 1532.04 Q773.627 1529.94 769.622 1529.94 Q767.747 1529.94 765.872 1530.35 Q764.02 1530.77 762.076 1531.65 L762.076 1514.29 Z" fill="#000000" fill-rule="evenodd" fill-opacity="1" /><path clip-path="url(#clip400)" d="M1227.5 1517.37 Q1223.89 1517.37 1222.06 1520.93 Q1220.26 1524.47 1220.26 1531.6 Q1220.26 1538.71 1222.06 1542.27 Q1223.89 1545.82 1227.5 1545.82 Q1231.14 1545.82 1232.94 1542.27 Q1234.77 1538.71 1234.77 1531.6 Q1234.77 1524.47 1232.94 1520.93 Q1231.14 1517.37 1227.5 1517.37 M1227.5 1513.66 Q1233.31 1513.66 1236.37 1518.27 Q1239.45 1522.85 1239.45 1531.6 Q1239.45 1540.33 1236.37 1544.94 Q1233.31 1549.52 1227.5 1549.52 Q1221.69 1549.52 1218.61 1544.94 Q1215.56 1540.33 1215.56 1531.6 Q1215.56 1522.85 1218.61 1518.27 Q1221.69 1513.66 1227.5 1513.66 Z" fill="#000000" fill-rule="evenodd" fill-opacity="1" /><path clip-path="url(#clip400)" d="M1247.66 1542.97 L1252.55 1542.97 L1252.55 1548.85 L1247.66 1548.85 L1247.66 1542.97 Z" fill="#000000" fill-rule="evenodd" fill-opacity="1" /><path clip-path="url(#clip400)" d="M1272.73 1517.37 Q1269.12 1517.37 1267.29 1520.93 Q1265.49 1524.47 1265.49 1531.6 Q1265.49 1538.71 1267.29 1542.27 Q1269.12 1545.82 1272.73 1545.82 Q1276.37 1545.82 1278.17 1542.27 Q1280 1538.71 1280 1531.6 Q1280 1524.47 1278.17 1520.93 Q1276.37 1517.37 1272.73 1517.37 M1272.73 1513.66 Q1278.54 1513.66 1281.6 1518.27 Q1284.68 1522.85 1284.68 1531.6 Q1284.68 1540.33 1281.6 1544.94 Q1278.54 1549.52 1272.73 1549.52 Q1266.92 1549.52 1263.84 1544.94 Q1260.79 1540.33 1260.79 1531.6 Q1260.79 1522.85 1263.84 1518.27 Q1266.92 1513.66 1272.73 1513.66 Z" fill="#000000" fill-rule="evenodd" fill-opacity="1" /><path clip-path="url(#clip400)" d="M1748.11 1517.37 Q1744.5 1517.37 1742.67 1520.93 Q1740.87 1524.47 1740.87 1531.6 Q1740.87 1538.71 1742.67 1542.27 Q1744.5 1545.82 1748.11 1545.82 Q1751.75 1545.82 1753.55 1542.27 Q1755.38 1538.71 1755.38 1531.6 Q1755.38 1524.47 1753.55 1520.93 Q1751.75 1517.37 1748.11 1517.37 M1748.11 1513.66 Q1753.92 1513.66 1756.98 1518.27 Q1760.06 1522.85 1760.06 1531.6 Q1760.06 1540.33 1756.98 1544.94 Q1753.92 1549.52 1748.11 1549.52 Q1742.3 1549.52 1739.22 1544.94 Q1736.17 1540.33 1736.17 1531.6 Q1736.17 1522.85 1739.22 1518.27 Q1742.3 1513.66 1748.11 1513.66 Z" fill="#000000" fill-rule="evenodd" fill-opacity="1" /><path clip-path="url(#clip400)" d="M1768.27 1542.97 L1773.16 1542.97 L1773.16 1548.85 L1768.27 1548.85 L1768.27 1542.97 Z" fill="#000000" fill-rule="evenodd" fill-opacity="1" /><path clip-path="url(#clip400)" d="M1783.39 1514.29 L1801.75 1514.29 L1801.75 1518.22 L1787.67 1518.22 L1787.67 1526.7 Q1788.69 1526.35 1789.71 1526.19 Q1790.73 1526 1791.75 1526 Q1797.53 1526 1800.91 1529.17 Q1804.29 1532.34 1804.29 1537.76 Q1804.29 1543.34 1800.82 1546.44 Q1797.35 1549.52 1791.03 1549.52 Q1788.85 1549.52 1786.58 1549.15 Q1784.34 1548.78 1781.93 1548.04 L1781.93 1543.34 Q1784.01 1544.47 1786.24 1545.03 Q1788.46 1545.58 1790.94 1545.58 Q1794.94 1545.58 1797.28 1543.48 Q1799.62 1541.37 1799.62 1537.76 Q1799.62 1534.15 1797.28 1532.04 Q1794.94 1529.94 1790.94 1529.94 Q1789.06 1529.94 1787.19 1530.35 Q1785.33 1530.77 1783.39 1531.65 L1783.39 1514.29 Z" fill="#000000" fill-rule="evenodd" fill-opacity="1" /><path clip-path="url(#clip400)" d="M2257.5 1544.91 L2265.13 1544.91 L2265.13 1518.55 L2256.82 1520.21 L2256.82 1515.95 L2265.09 1514.29 L2269.76 1514.29 L2269.76 1544.91 L2277.4 1544.91 L2277.4 1548.85 L2257.5 1548.85 L2257.5 1544.91 Z" fill="#000000" fill-rule="evenodd" fill-opacity="1" /><path clip-path="url(#clip400)" d="M2286.85 1542.97 L2291.73 1542.97 L2291.73 1548.85 L2286.85 1548.85 L2286.85 1542.97 Z" fill="#000000" fill-rule="evenodd" fill-opacity="1" /><path clip-path="url(#clip400)" d="M2311.92 1517.37 Q2308.31 1517.37 2306.48 1520.93 Q2304.67 1524.47 2304.67 1531.6 Q2304.67 1538.71 2306.48 1542.27 Q2308.31 1545.82 2311.92 1545.82 Q2315.55 1545.82 2317.36 1542.27 Q2319.18 1538.71 2319.18 1531.6 Q2319.18 1524.47 2317.36 1520.93 Q2315.55 1517.37 2311.92 1517.37 M2311.92 1513.66 Q2317.73 1513.66 2320.78 1518.27 Q2323.86 1522.85 2323.86 1531.6 Q2323.86 1540.33 2320.78 1544.94 Q2317.73 1549.52 2311.92 1549.52 Q2306.11 1549.52 2303.03 1544.94 Q2299.97 1540.33 2299.97 1531.6 Q2299.97 1522.85 2303.03 1518.27 Q2306.11 1513.66 2311.92 1513.66 Z" fill="#000000" fill-rule="evenodd" fill-opacity="1" /><polyline clip-path="url(#clip402)" style="stroke:#000000; stroke-linecap:butt; stroke-linejoin:round; stroke-width:2; stroke-opacity:0.1; fill:none" points="
  147.478,1356.69 2352.76,1356.69 
  "/>
<polyline clip-path="url(#clip402)" style="stroke:#000000; stroke-linecap:butt; stroke-linejoin:round; stroke-width:2; stroke-opacity:0.1; fill:none" points="
  147.478,1077.81 2352.76,1077.81 
  "/>
<polyline clip-path="url(#clip402)" style="stroke:#000000; stroke-linecap:butt; stroke-linejoin:round; stroke-width:2; stroke-opacity:0.1; fill:none" points="
  147.478,798.938 2352.76,798.938 
  "/>
<polyline clip-path="url(#clip402)" style="stroke:#000000; stroke-linecap:butt; stroke-linejoin:round; stroke-width:2; stroke-opacity:0.1; fill:none" points="
  147.478,520.062 2352.76,520.062 
  "/>
<polyline clip-path="url(#clip402)" style="stroke:#000000; stroke-linecap:butt; stroke-linejoin:round; stroke-width:2; stroke-opacity:0.1; fill:none" points="
  147.478,241.186 2352.76,241.186 
  "/>
<polyline clip-path="url(#clip400)" style="stroke:#000000; stroke-linecap:butt; stroke-linejoin:round; stroke-width:4; stroke-opacity:1; fill:none" points="
  147.478,1486.45 147.478,47.2441 
  "/>
<polyline clip-path="url(#clip400)" style="stroke:#000000; stroke-linecap:butt; stroke-linejoin:round; stroke-width:4; stroke-opacity:1; fill:none" points="
  147.478,1356.69 166.376,1356.69 
  "/>
<polyline clip-path="url(#clip400)" style="stroke:#000000; stroke-linecap:butt; stroke-linejoin:round; stroke-width:4; stroke-opacity:1; fill:none" points="
  147.478,1077.81 166.376,1077.81 
  "/>
<polyline clip-path="url(#clip400)" style="stroke:#000000; stroke-linecap:butt; stroke-linejoin:round; stroke-width:4; stroke-opacity:1; fill:none" points="
  147.478,798.938 166.376,798.938 
  "/>
<polyline clip-path="url(#clip400)" style="stroke:#000000; stroke-linecap:butt; stroke-linejoin:round; stroke-width:4; stroke-opacity:1; fill:none" points="
  147.478,520.062 166.376,520.062 
  "/>
<polyline clip-path="url(#clip400)" style="stroke:#000000; stroke-linecap:butt; stroke-linejoin:round; stroke-width:4; stroke-opacity:1; fill:none" points="
  147.478,241.186 166.376,241.186 
  "/>
<path clip-path="url(#clip400)" d="M51.3625 1357.14 L81.0383 1357.14 L81.0383 1361.08 L51.3625 1361.08 L51.3625 1357.14 Z" fill="#000000" fill-rule="evenodd" fill-opacity="1" /><path clip-path="url(#clip400)" d="M95.1586 1370.03 L111.478 1370.03 L111.478 1373.97 L89.5336 1373.97 L89.5336 1370.03 Q92.1956 1367.28 96.7789 1362.65 Q101.385 1358 102.566 1356.66 Q104.811 1354.13 105.691 1352.4 Q106.594 1350.64 106.594 1348.95 Q106.594 1346.19 104.649 1344.46 Q102.728 1342.72 99.6261 1342.72 Q97.4271 1342.72 94.9734 1343.48 Q92.5428 1344.25 89.7651 1345.8 L89.7651 1341.08 Q92.5891 1339.94 95.0428 1339.36 Q97.4965 1338.79 99.5335 1338.79 Q104.904 1338.79 108.098 1341.47 Q111.293 1344.16 111.293 1348.65 Q111.293 1350.78 110.483 1352.7 Q109.696 1354.6 107.589 1357.19 Q107.01 1357.86 103.909 1361.08 Q100.807 1364.27 95.1586 1370.03 Z" fill="#000000" fill-rule="evenodd" fill-opacity="1" /><path clip-path="url(#clip400)" d="M50.9921 1078.27 L80.6679 1078.27 L80.6679 1082.2 L50.9921 1082.2 L50.9921 1078.27 Z" fill="#000000" fill-rule="evenodd" fill-opacity="1" /><path clip-path="url(#clip400)" d="M91.5706 1091.16 L99.2095 1091.16 L99.2095 1064.79 L90.8993 1066.46 L90.8993 1062.2 L99.1632 1060.53 L103.839 1060.53 L103.839 1091.16 L111.478 1091.16 L111.478 1095.09 L91.5706 1095.09 L91.5706 1091.16 Z" fill="#000000" fill-rule="evenodd" fill-opacity="1" /><path clip-path="url(#clip400)" d="M99.5335 784.737 Q95.9224 784.737 94.0937 788.301 Q92.2882 791.843 92.2882 798.973 Q92.2882 806.079 94.0937 809.644 Q95.9224 813.186 99.5335 813.186 Q103.168 813.186 104.973 809.644 Q106.802 806.079 106.802 798.973 Q106.802 791.843 104.973 788.301 Q103.168 784.737 99.5335 784.737 M99.5335 781.033 Q105.344 781.033 108.399 785.639 Q111.478 790.223 111.478 798.973 Q111.478 807.7 108.399 812.306 Q105.344 816.889 99.5335 816.889 Q93.7234 816.889 90.6447 812.306 Q87.5892 807.7 87.5892 798.973 Q87.5892 790.223 90.6447 785.639 Q93.7234 781.033 99.5335 781.033 Z" fill="#000000" fill-rule="evenodd" fill-opacity="1" /><path clip-path="url(#clip400)" d="M91.5706 533.407 L99.2095 533.407 L99.2095 507.041 L90.8993 508.708 L90.8993 504.449 L99.1632 502.782 L103.839 502.782 L103.839 533.407 L111.478 533.407 L111.478 537.342 L91.5706 537.342 L91.5706 533.407 Z" fill="#000000" fill-rule="evenodd" fill-opacity="1" /><path clip-path="url(#clip400)" d="M95.1586 254.531 L111.478 254.531 L111.478 258.466 L89.5336 258.466 L89.5336 254.531 Q92.1956 251.776 96.7789 247.147 Q101.385 242.494 102.566 241.151 Q104.811 238.628 105.691 236.892 Q106.594 235.133 106.594 233.443 Q106.594 230.688 104.649 228.952 Q102.728 227.216 99.6261 227.216 Q97.4271 227.216 94.9734 227.98 Q92.5428 228.744 89.7651 230.295 L89.7651 225.573 Q92.5891 224.438 95.0428 223.86 Q97.4965 223.281 99.5335 223.281 Q104.904 223.281 108.098 225.966 Q111.293 228.651 111.293 233.142 Q111.293 235.272 110.483 237.193 Q109.696 239.091 107.589 241.684 Q107.01 242.355 103.909 245.572 Q100.807 248.767 95.1586 254.531 Z" fill="#000000" fill-rule="evenodd" fill-opacity="1" /><polyline clip-path="url(#clip402)" style="stroke:#009af9; stroke-linecap:butt; stroke-linejoin:round; stroke-width:12; stroke-opacity:1; fill:none" points="
  209.891,520.062 252.35,623.949 294.808,694.992 337.266,741.879 379.724,771.421 422.182,788.867 464.641,798.188 507.099,802.319 549.557,803.368 592.015,802.793 
  634.473,801.553 676.931,800.235 719.39,799.153 761.848,798.437 804.306,798.093 846.764,798.058 889.222,798.235 931.681,798.524 974.139,798.832 1016.6,799.092 
  1059.06,799.262 1101.51,799.326 1143.97,799.289 1186.43,799.176 1228.89,799.02 1271.35,798.859 1313.8,798.727 1356.26,798.652 1398.72,798.647 1441.18,798.714 
  1483.64,798.84 1526.1,799 1568.55,799.158 1611.01,799.279 1653.47,799.326 1695.93,799.276 1738.39,799.119 1780.84,798.868 1823.3,798.563 1865.76,798.267 
  1908.22,798.071 1950.68,798.074 1993.14,798.374 2035.59,799.043 2078.05,800.082 2120.51,801.384 2162.97,802.659 2205.43,803.361 2247.88,802.584 2290.34,798.938 
  
  "/>
<polyline clip-path="url(#clip402)" style="stroke:#e26f46; stroke-linecap:butt; stroke-linejoin:round; stroke-width:12; stroke-opacity:1; fill:none" points="
  209.891,798.938 252.35,525.784 294.808,395.752 337.266,360.727 379.724,384.565 422.182,440.857 464.641,510.998 507.099,582.527 549.557,647.719 592.015,702.395 
  634.473,744.948 676.931,775.531 719.39,795.421 761.848,806.517 804.306,810.955 846.764,810.837 889.222,808.044 931.681,804.121 974.139,800.224 1016.6,797.118 
  1059.06,795.2 1101.51,794.559 1143.97,795.044 1186.43,796.342 1228.89,798.055 1271.35,799.774 1313.8,801.142 1356.26,801.899 1398.72,801.916 1441.18,801.205 
  1483.64,799.92 1526.1,798.324 1568.55,796.76 1611.01,795.592 1653.47,795.149 1695.93,795.661 1738.39,797.194 1780.84,799.607 1823.3,802.518 1865.76,805.302 
  1908.22,807.132 1950.68,807.068 1993.14,804.216 2035.59,797.962 2078.05,788.302 2120.51,776.287 2162.97,764.595 2205.43,758.25 2247.88,765.507 2290.34,798.938 
  
  "/>
<polyline clip-path="url(#clip402)" style="stroke:#3da44d; stroke-linecap:butt; stroke-linejoin:round; stroke-width:12; stroke-opacity:1; fill:none" points="
  209.891,798.938 252.35,1234.47 294.808,1366.84 337.266,1317.09 379.724,1172.5 422.182,993.413 464.641,819.094 507.099,672.698 549.557,565.438 592.015,500.027 
  634.473,473.497 676.931,479.429 719.39,509.697 761.848,555.776 804.306,609.669 846.764,664.528 889.222,715.008 931.681,757.407 974.139,789.64 1016.6,811.089 
  1059.06,822.36 1101.51,824.991 1143.97,821.126 1186.43,813.201 1228.89,803.64 1271.35,794.605 1313.8,787.787 1356.26,784.271 1398.72,784.464 1441.18,788.101 
  1483.64,794.317 1526.1,801.79 1568.55,808.927 1611.01,814.106 1653.47,815.932 1695.93,813.497 1738.39,806.617 1780.84,796.016 1823.3,783.428 1865.76,771.564 
  1908.22,763.93 1950.68,764.421 1993.14,776.66 2035.59,803.035 2078.05,843.346 2120.51,893.042 2162.97,940.951 2205.43,966.449 2247.88,935.993 2290.34,798.938 
  
  "/>
<polyline clip-path="url(#clip402)" style="stroke:#c271d2; stroke-linecap:butt; stroke-linejoin:round; stroke-width:12; stroke-opacity:1; fill:none" points="
  209.891,798.938 252.35,234.944 294.808,87.9763 337.266,175.467 379.724,370.152 422.182,588.105 464.641,778.579 507.099,915.467 549.557,990.24 592.015,1006.18 
  634.473,973.802 676.931,907.246 719.39,821.624 761.848,731.079 804.306,647.523 846.764,579.9 889.222,533.897 931.681,511.994 974.139,513.787 1016.6,536.484 
  1059.06,575.524 1101.51,625.25 1143.97,679.58 1186.43,732.636 1228.89,779.295 1271.35,815.616 1313.8,839.154 1356.26,849.103 1398.72,846.307 1441.18,833.107 
  1483.64,813.048 1526.1,790.468 1568.55,769.98 1611.01,755.897 1653.47,751.626 1695.93,759.092 1738.39,778.243 1780.84,806.703 1823.3,839.64 1865.76,869.943 
  1908.22,888.784 1950.68,886.662 1993.14,855.044 2035.59,788.707 2078.05,688.894 2120.51,567.434 2162.97,451.938 2205.43,392.231 2247.88,468.157 2290.34,798.938 
  
  "/>
<polyline clip-path="url(#clip402)" style="stroke:#ac8d18; stroke-linecap:butt; stroke-linejoin:round; stroke-width:12; stroke-opacity:1; fill:none" points="
  209.891,798.938 252.35,1320.18 294.808,1445.72 337.266,1356.26 379.724,1174.78 422.182,979.7 464.641,815.961 507.099,704.258 549.557,648.578 592.015,642.251 
  634.473,672.689 676.931,724.977 719.39,784.476 761.848,838.584 804.306,877.8 846.764,896.208 889.222,891.508 931.681,864.696 974.139,819.502 1016.6,761.658 
  1059.06,698.091 1101.51,636.106 1143.97,582.601 1186.43,543.4 1228.89,522.702 1271.35,522.702 1313.8,543.4 1356.26,582.601 1398.72,636.106 1441.18,698.091 
  1483.64,761.658 1526.1,819.502 1568.55,864.696 1611.01,891.508 1653.47,896.208 1695.93,877.8 1738.39,838.584 1780.84,784.476 1823.3,724.977 1865.76,672.689 
  1908.22,642.251 1950.68,648.578 1993.14,704.258 2035.59,815.961 2078.05,979.7 2120.51,1174.78 2162.97,1356.26 2205.43,1445.72 2247.88,1320.18 2290.34,798.938 
  
  "/>
<polyline clip-path="url(#clip402)" style="stroke:#00a9ad; stroke-linecap:butt; stroke-linejoin:round; stroke-width:12; stroke-opacity:1; fill:none" points="
  209.891,798.938 252.35,468.157 294.808,392.231 337.266,451.938 379.724,567.434 422.182,688.894 464.641,788.707 507.099,855.044 549.557,886.662 592.015,888.784 
  634.473,869.943 676.931,839.64 719.39,806.703 761.848,778.243 804.306,759.092 846.764,751.626 889.222,755.897 931.681,769.98 974.139,790.468 1016.6,813.048 
  1059.06,833.107 1101.51,846.307 1143.97,849.103 1186.43,839.154 1228.89,815.616 1271.35,779.295 1313.8,732.636 1356.26,679.58 1398.72,625.25 1441.18,575.524 
  1483.64,536.484 1526.1,513.787 1568.55,511.994 1611.01,533.897 1653.47,579.9 1695.93,647.523 1738.39,731.079 1780.84,821.624 1823.3,907.246 1865.76,973.802 
  1908.22,1006.18 1950.68,990.24 1993.14,915.467 2035.59,778.579 2078.05,588.105 2120.51,370.152 2162.97,175.467 2205.43,87.9763 2247.88,234.944 2290.34,798.938 
  
  "/>
<polyline clip-path="url(#clip402)" style="stroke:#ed5d92; stroke-linecap:butt; stroke-linejoin:round; stroke-width:12; stroke-opacity:1; fill:none" points="
  209.891,798.938 252.35,935.993 294.808,966.449 337.266,940.951 379.724,893.042 422.182,843.346 464.641,803.035 507.099,776.66 549.557,764.421 592.015,763.93 
  634.473,771.564 676.931,783.428 719.39,796.016 761.848,806.617 804.306,813.497 846.764,815.932 889.222,814.106 931.681,808.927 974.139,801.79 1016.6,794.317 
  1059.06,788.101 1101.51,784.464 1143.97,784.271 1186.43,787.787 1228.89,794.605 1271.35,803.64 1313.8,813.201 1356.26,821.126 1398.72,824.991 1441.18,822.36 
  1483.64,811.089 1526.1,789.64 1568.55,757.407 1611.01,715.008 1653.47,664.528 1695.93,609.669 1738.39,555.776 1780.84,509.697 1823.3,479.429 1865.76,473.497 
  1908.22,500.027 1950.68,565.438 1993.14,672.698 2035.59,819.094 2078.05,993.413 2120.51,1172.5 2162.97,1317.09 2205.43,1366.84 2247.88,1234.47 2290.34,798.938 
  
  "/>
<polyline clip-path="url(#clip402)" style="stroke:#c68125; stroke-linecap:butt; stroke-linejoin:round; stroke-width:12; stroke-opacity:1; fill:none" points="
  209.891,798.938 252.35,765.507 294.808,758.25 337.266,764.595 379.724,776.287 422.182,788.302 464.641,797.962 507.099,804.216 549.557,807.068 592.015,807.132 
  634.473,805.302 676.931,802.518 719.39,799.607 761.848,797.194 804.306,795.661 846.764,795.149 889.222,795.592 931.681,796.76 974.139,798.324 1016.6,799.92 
  1059.06,801.205 1101.51,801.916 1143.97,801.899 1186.43,801.142 1228.89,799.774 1271.35,798.055 1313.8,796.342 1356.26,795.044 1398.72,794.559 1441.18,795.2 
  1483.64,797.118 1526.1,800.224 1568.55,804.121 1611.01,808.044 1653.47,810.837 1695.93,810.955 1738.39,806.517 1780.84,795.421 1823.3,775.531 1865.76,744.948 
  1908.22,702.395 1950.68,647.719 1993.14,582.527 2035.59,510.998 2078.05,440.857 2120.51,384.565 2162.97,360.727 2205.43,395.752 2247.88,525.784 2290.34,798.938 
  
  "/>
<polyline clip-path="url(#clip402)" style="stroke:#00a98d; stroke-linecap:butt; stroke-linejoin:round; stroke-width:12; stroke-opacity:1; fill:none" points="
  209.891,798.938 252.35,802.584 294.808,803.361 337.266,802.659 379.724,801.384 422.182,800.082 464.641,799.043 507.099,798.374 549.557,798.074 592.015,798.071 
  634.473,798.267 676.931,798.563 719.39,798.868 761.848,799.119 804.306,799.276 846.764,799.326 889.222,799.279 931.681,799.158 974.139,799 1016.6,798.84 
  1059.06,798.714 1101.51,798.647 1143.97,798.652 1186.43,798.727 1228.89,798.859 1271.35,799.02 1313.8,799.176 1356.26,799.289 1398.72,799.326 1441.18,799.262 
  1483.64,799.092 1526.1,798.832 1568.55,798.524 1611.01,798.235 1653.47,798.058 1695.93,798.093 1738.39,798.437 1780.84,799.153 1823.3,800.235 1865.76,801.553 
  1908.22,802.793 1950.68,803.368 1993.14,802.319 2035.59,798.188 2078.05,788.867 2120.51,771.421 2162.97,741.879 2205.43,694.992 2247.88,623.949 2290.34,520.062 
  
  "/>
<circle clip-path="url(#clip402)" cx="209.891" cy="520.062" r="14.4" fill="#8e971d" fill-rule="evenodd" fill-opacity="1" stroke="#000000" stroke-opacity="1" stroke-width="3.2"/>
<circle clip-path="url(#clip402)" cx="469.948" cy="520.062" r="14.4" fill="#8e971d" fill-rule="evenodd" fill-opacity="1" stroke="#000000" stroke-opacity="1" stroke-width="3.2"/>
<circle clip-path="url(#clip402)" cx="730.004" cy="520.062" r="14.4" fill="#8e971d" fill-rule="evenodd" fill-opacity="1" stroke="#000000" stroke-opacity="1" stroke-width="3.2"/>
<circle clip-path="url(#clip402)" cx="990.061" cy="520.062" r="14.4" fill="#8e971d" fill-rule="evenodd" fill-opacity="1" stroke="#000000" stroke-opacity="1" stroke-width="3.2"/>
<circle clip-path="url(#clip402)" cx="1250.12" cy="520.062" r="14.4" fill="#8e971d" fill-rule="evenodd" fill-opacity="1" stroke="#000000" stroke-opacity="1" stroke-width="3.2"/>
<circle clip-path="url(#clip402)" cx="1510.17" cy="520.062" r="14.4" fill="#8e971d" fill-rule="evenodd" fill-opacity="1" stroke="#000000" stroke-opacity="1" stroke-width="3.2"/>
<circle clip-path="url(#clip402)" cx="1770.23" cy="520.062" r="14.4" fill="#8e971d" fill-rule="evenodd" fill-opacity="1" stroke="#000000" stroke-opacity="1" stroke-width="3.2"/>
<circle clip-path="url(#clip402)" cx="2030.29" cy="520.062" r="14.4" fill="#8e971d" fill-rule="evenodd" fill-opacity="1" stroke="#000000" stroke-opacity="1" stroke-width="3.2"/>
<circle clip-path="url(#clip402)" cx="2290.34" cy="520.062" r="14.4" fill="#8e971d" fill-rule="evenodd" fill-opacity="1" stroke="#000000" stroke-opacity="1" stroke-width="3.2"/>
<path clip-path="url(#clip400)" d="
M1950.4 665.458 L2279.25 665.458 L2279.25 95.2176 L1950.4 95.2176  Z
  " fill="#ffffff" fill-rule="evenodd" fill-opacity="1"/>
<polyline clip-path="url(#clip400)" style="stroke:#000000; stroke-linecap:butt; stroke-linejoin:round; stroke-width:4; stroke-opacity:1; fill:none" points="
  1950.4,665.458 2279.25,665.458 2279.25,95.2176 1950.4,95.2176 1950.4,665.458 
  "/>
<polyline clip-path="url(#clip400)" style="stroke:#009af9; stroke-linecap:butt; stroke-linejoin:round; stroke-width:4; stroke-opacity:1; fill:none" points="
  1974.9,147.058 2121.92,147.058 
  "/>
<path clip-path="url(#clip400)" d="M2160.26 166.745 Q2158.46 171.375 2156.75 172.787 Q2155.03 174.199 2152.16 174.199 L2148.76 174.199 L2148.76 170.634 L2151.26 170.634 Q2153.02 170.634 2153.99 169.8 Q2154.96 168.967 2156.14 165.865 L2156.91 163.921 L2146.42 138.412 L2150.94 138.412 L2159.04 158.689 L2167.14 138.412 L2171.65 138.412 L2160.26 166.745 Z" fill="#000000" fill-rule="evenodd" fill-opacity="1" /><path clip-path="url(#clip400)" d="M2178.94 160.402 L2186.58 160.402 L2186.58 134.037 L2178.27 135.703 L2178.27 131.444 L2186.54 129.778 L2191.21 129.778 L2191.21 160.402 L2198.85 160.402 L2198.85 164.338 L2178.94 164.338 L2178.94 160.402 Z" fill="#000000" fill-rule="evenodd" fill-opacity="1" /><polyline clip-path="url(#clip400)" style="stroke:#e26f46; stroke-linecap:butt; stroke-linejoin:round; stroke-width:4; stroke-opacity:1; fill:none" points="
  1974.9,198.898 2121.92,198.898 
  "/>
<path clip-path="url(#clip400)" d="M2160.26 218.585 Q2158.46 223.215 2156.75 224.627 Q2155.03 226.039 2152.16 226.039 L2148.76 226.039 L2148.76 222.474 L2151.26 222.474 Q2153.02 222.474 2153.99 221.64 Q2154.96 220.807 2156.14 217.705 L2156.91 215.761 L2146.42 190.252 L2150.94 190.252 L2159.04 210.529 L2167.14 190.252 L2171.65 190.252 L2160.26 218.585 Z" fill="#000000" fill-rule="evenodd" fill-opacity="1" /><path clip-path="url(#clip400)" d="M2182.16 212.242 L2198.48 212.242 L2198.48 216.178 L2176.54 216.178 L2176.54 212.242 Q2179.2 209.488 2183.78 204.858 Q2188.39 200.205 2189.57 198.863 Q2191.81 196.34 2192.69 194.604 Q2193.6 192.844 2193.6 191.155 Q2193.6 188.4 2191.65 186.664 Q2189.73 184.928 2186.63 184.928 Q2184.43 184.928 2181.98 185.692 Q2179.55 186.455 2176.77 188.006 L2176.77 183.284 Q2179.59 182.15 2182.05 181.571 Q2184.5 180.993 2186.54 180.993 Q2191.91 180.993 2195.1 183.678 Q2198.3 186.363 2198.3 190.854 Q2198.3 192.983 2197.49 194.905 Q2196.7 196.803 2194.59 199.395 Q2194.01 200.067 2190.91 203.284 Q2187.81 206.479 2182.16 212.242 Z" fill="#000000" fill-rule="evenodd" fill-opacity="1" /><polyline clip-path="url(#clip400)" style="stroke:#3da44d; stroke-linecap:butt; stroke-linejoin:round; stroke-width:4; stroke-opacity:1; fill:none" points="
  1974.9,250.738 2121.92,250.738 
  "/>
<path clip-path="url(#clip400)" d="M2160.26 270.425 Q2158.46 275.055 2156.75 276.467 Q2155.03 277.879 2152.16 277.879 L2148.76 277.879 L2148.76 274.314 L2151.26 274.314 Q2153.02 274.314 2153.99 273.48 Q2154.96 272.647 2156.14 269.545 L2156.91 267.601 L2146.42 242.092 L2150.94 242.092 L2159.04 262.369 L2167.14 242.092 L2171.65 242.092 L2160.26 270.425 Z" fill="#000000" fill-rule="evenodd" fill-opacity="1" /><path clip-path="url(#clip400)" d="M2192.3 249.383 Q2195.66 250.101 2197.53 252.369 Q2199.43 254.638 2199.43 257.971 Q2199.43 263.087 2195.91 265.888 Q2192.39 268.689 2185.91 268.689 Q2183.74 268.689 2181.42 268.249 Q2179.13 267.832 2176.68 266.976 L2176.68 262.462 Q2178.62 263.596 2180.94 264.175 Q2183.25 264.754 2185.77 264.754 Q2190.17 264.754 2192.46 263.018 Q2194.78 261.281 2194.78 257.971 Q2194.78 254.916 2192.62 253.203 Q2190.5 251.467 2186.68 251.467 L2182.65 251.467 L2182.65 247.624 L2186.86 247.624 Q2190.31 247.624 2192.14 246.258 Q2193.97 244.87 2193.97 242.277 Q2193.97 239.615 2192.07 238.203 Q2190.19 236.768 2186.68 236.768 Q2184.75 236.768 2182.56 237.184 Q2180.36 237.601 2177.72 238.481 L2177.72 234.314 Q2180.38 233.573 2182.69 233.203 Q2185.03 232.833 2187.09 232.833 Q2192.42 232.833 2195.52 235.263 Q2198.62 237.67 2198.62 241.791 Q2198.62 244.661 2196.98 246.652 Q2195.33 248.62 2192.3 249.383 Z" fill="#000000" fill-rule="evenodd" fill-opacity="1" /><polyline clip-path="url(#clip400)" style="stroke:#c271d2; stroke-linecap:butt; stroke-linejoin:round; stroke-width:4; stroke-opacity:1; fill:none" points="
  1974.9,302.578 2121.92,302.578 
  "/>
<path clip-path="url(#clip400)" d="M2160.26 322.265 Q2158.46 326.895 2156.75 328.307 Q2155.03 329.719 2152.16 329.719 L2148.76 329.719 L2148.76 326.154 L2151.26 326.154 Q2153.02 326.154 2153.99 325.32 Q2154.96 324.487 2156.14 321.385 L2156.91 319.441 L2146.42 293.932 L2150.94 293.932 L2159.04 314.209 L2167.14 293.932 L2171.65 293.932 L2160.26 322.265 Z" fill="#000000" fill-rule="evenodd" fill-opacity="1" /><path clip-path="url(#clip400)" d="M2190.98 289.372 L2179.18 307.821 L2190.98 307.821 L2190.98 289.372 M2189.75 285.298 L2195.63 285.298 L2195.63 307.821 L2200.56 307.821 L2200.56 311.709 L2195.63 311.709 L2195.63 319.858 L2190.98 319.858 L2190.98 311.709 L2175.38 311.709 L2175.38 307.196 L2189.75 285.298 Z" fill="#000000" fill-rule="evenodd" fill-opacity="1" /><polyline clip-path="url(#clip400)" style="stroke:#ac8d18; stroke-linecap:butt; stroke-linejoin:round; stroke-width:4; stroke-opacity:1; fill:none" points="
  1974.9,354.418 2121.92,354.418 
  "/>
<path clip-path="url(#clip400)" d="M2160.26 374.105 Q2158.46 378.735 2156.75 380.147 Q2155.03 381.559 2152.16 381.559 L2148.76 381.559 L2148.76 377.994 L2151.26 377.994 Q2153.02 377.994 2153.99 377.16 Q2154.96 376.327 2156.14 373.225 L2156.91 371.281 L2146.42 345.772 L2150.94 345.772 L2159.04 366.049 L2167.14 345.772 L2171.65 345.772 L2160.26 374.105 Z" fill="#000000" fill-rule="evenodd" fill-opacity="1" /><path clip-path="url(#clip400)" d="M2178.18 337.138 L2196.54 337.138 L2196.54 341.073 L2182.46 341.073 L2182.46 349.545 Q2183.48 349.198 2184.5 349.036 Q2185.52 348.85 2186.54 348.85 Q2192.32 348.85 2195.7 352.022 Q2199.08 355.193 2199.08 360.61 Q2199.08 366.188 2195.61 369.29 Q2192.14 372.369 2185.82 372.369 Q2183.64 372.369 2181.37 371.998 Q2179.13 371.628 2176.72 370.887 L2176.72 366.188 Q2178.81 367.323 2181.03 367.878 Q2183.25 368.434 2185.73 368.434 Q2189.73 368.434 2192.07 366.327 Q2194.41 364.221 2194.41 360.61 Q2194.41 356.999 2192.07 354.892 Q2189.73 352.786 2185.73 352.786 Q2183.85 352.786 2181.98 353.202 Q2180.12 353.619 2178.18 354.499 L2178.18 337.138 Z" fill="#000000" fill-rule="evenodd" fill-opacity="1" /><polyline clip-path="url(#clip400)" style="stroke:#00a9ad; stroke-linecap:butt; stroke-linejoin:round; stroke-width:4; stroke-opacity:1; fill:none" points="
  1974.9,406.258 2121.92,406.258 
  "/>
<path clip-path="url(#clip400)" d="M2160.26 425.945 Q2158.46 430.575 2156.75 431.987 Q2155.03 433.399 2152.16 433.399 L2148.76 433.399 L2148.76 429.834 L2151.26 429.834 Q2153.02 429.834 2153.99 429 Q2154.96 428.167 2156.14 425.065 L2156.91 423.121 L2146.42 397.612 L2150.94 397.612 L2159.04 417.889 L2167.14 397.612 L2171.65 397.612 L2160.26 425.945 Z" fill="#000000" fill-rule="evenodd" fill-opacity="1" /><path clip-path="url(#clip400)" d="M2188.71 404.394 Q2185.56 404.394 2183.71 406.547 Q2181.88 408.7 2181.88 412.45 Q2181.88 416.176 2183.71 418.352 Q2185.56 420.505 2188.71 420.505 Q2191.86 420.505 2193.69 418.352 Q2195.54 416.176 2195.54 412.45 Q2195.54 408.7 2193.69 406.547 Q2191.86 404.394 2188.71 404.394 M2198 389.741 L2198 394.001 Q2196.24 393.167 2194.43 392.728 Q2192.65 392.288 2190.89 392.288 Q2186.26 392.288 2183.81 395.413 Q2181.37 398.538 2181.03 404.857 Q2182.39 402.843 2184.45 401.778 Q2186.51 400.69 2188.99 400.69 Q2194.2 400.69 2197.21 403.862 Q2200.24 407.01 2200.24 412.45 Q2200.24 417.774 2197.09 420.991 Q2193.94 424.209 2188.71 424.209 Q2182.72 424.209 2179.55 419.626 Q2176.38 415.019 2176.38 406.292 Q2176.38 398.098 2180.26 393.237 Q2184.15 388.353 2190.7 388.353 Q2192.46 388.353 2194.25 388.7 Q2196.05 389.047 2198 389.741 Z" fill="#000000" fill-rule="evenodd" fill-opacity="1" /><polyline clip-path="url(#clip400)" style="stroke:#ed5d92; stroke-linecap:butt; stroke-linejoin:round; stroke-width:4; stroke-opacity:1; fill:none" points="
  1974.9,458.098 2121.92,458.098 
  "/>
<path clip-path="url(#clip400)" d="M2160.26 477.785 Q2158.46 482.415 2156.75 483.827 Q2155.03 485.239 2152.16 485.239 L2148.76 485.239 L2148.76 481.674 L2151.26 481.674 Q2153.02 481.674 2153.99 480.84 Q2154.96 480.007 2156.14 476.905 L2156.91 474.961 L2146.42 449.452 L2150.94 449.452 L2159.04 469.729 L2167.14 449.452 L2171.65 449.452 L2160.26 477.785 Z" fill="#000000" fill-rule="evenodd" fill-opacity="1" /><path clip-path="url(#clip400)" d="M2176.95 440.818 L2199.18 440.818 L2199.18 442.808 L2186.63 475.378 L2181.75 475.378 L2193.55 444.753 L2176.95 444.753 L2176.95 440.818 Z" fill="#000000" fill-rule="evenodd" fill-opacity="1" /><polyline clip-path="url(#clip400)" style="stroke:#c68125; stroke-linecap:butt; stroke-linejoin:round; stroke-width:4; stroke-opacity:1; fill:none" points="
  1974.9,509.938 2121.92,509.938 
  "/>
<path clip-path="url(#clip400)" d="M2160.26 529.625 Q2158.46 534.255 2156.75 535.667 Q2155.03 537.079 2152.16 537.079 L2148.76 537.079 L2148.76 533.514 L2151.26 533.514 Q2153.02 533.514 2153.99 532.68 Q2154.96 531.847 2156.14 528.745 L2156.91 526.801 L2146.42 501.292 L2150.94 501.292 L2159.04 521.569 L2167.14 501.292 L2171.65 501.292 L2160.26 529.625 Z" fill="#000000" fill-rule="evenodd" fill-opacity="1" /><path clip-path="url(#clip400)" d="M2188.13 510.806 Q2184.8 510.806 2182.88 512.588 Q2180.98 514.37 2180.98 517.495 Q2180.98 520.62 2182.88 522.403 Q2184.8 524.185 2188.13 524.185 Q2191.47 524.185 2193.39 522.403 Q2195.31 520.597 2195.31 517.495 Q2195.31 514.37 2193.39 512.588 Q2191.49 510.806 2188.13 510.806 M2183.46 508.815 Q2180.45 508.074 2178.76 506.014 Q2177.09 503.954 2177.09 500.991 Q2177.09 496.847 2180.03 494.44 Q2183 492.033 2188.13 492.033 Q2193.3 492.033 2196.24 494.44 Q2199.18 496.847 2199.18 500.991 Q2199.18 503.954 2197.49 506.014 Q2195.82 508.074 2192.83 508.815 Q2196.21 509.602 2198.09 511.894 Q2199.99 514.185 2199.99 517.495 Q2199.99 522.519 2196.91 525.204 Q2193.85 527.889 2188.13 527.889 Q2182.42 527.889 2179.34 525.204 Q2176.28 522.519 2176.28 517.495 Q2176.28 514.185 2178.18 511.894 Q2180.08 509.602 2183.46 508.815 M2181.75 501.431 Q2181.75 504.116 2183.41 505.62 Q2185.1 507.125 2188.13 507.125 Q2191.14 507.125 2192.83 505.62 Q2194.55 504.116 2194.55 501.431 Q2194.55 498.745 2192.83 497.241 Q2191.14 495.736 2188.13 495.736 Q2185.1 495.736 2183.41 497.241 Q2181.75 498.745 2181.75 501.431 Z" fill="#000000" fill-rule="evenodd" fill-opacity="1" /><polyline clip-path="url(#clip400)" style="stroke:#00a98d; stroke-linecap:butt; stroke-linejoin:round; stroke-width:4; stroke-opacity:1; fill:none" points="
  1974.9,561.778 2121.92,561.778 
  "/>
<path clip-path="url(#clip400)" d="M2160.26 581.465 Q2158.46 586.095 2156.75 587.507 Q2155.03 588.919 2152.16 588.919 L2148.76 588.919 L2148.76 585.354 L2151.26 585.354 Q2153.02 585.354 2153.99 584.52 Q2154.96 583.687 2156.14 580.585 L2156.91 578.641 L2146.42 553.132 L2150.94 553.132 L2159.04 573.409 L2167.14 553.132 L2171.65 553.132 L2160.26 581.465 Z" fill="#000000" fill-rule="evenodd" fill-opacity="1" /><path clip-path="url(#clip400)" d="M2178.27 578.34 L2178.27 574.081 Q2180.03 574.914 2181.84 575.354 Q2183.64 575.794 2185.38 575.794 Q2190.01 575.794 2192.44 572.692 Q2194.89 569.567 2195.24 563.224 Q2193.9 565.215 2191.84 566.28 Q2189.78 567.345 2187.28 567.345 Q2182.09 567.345 2179.06 564.22 Q2176.05 561.072 2176.05 555.632 Q2176.05 550.308 2179.2 547.09 Q2182.35 543.873 2187.58 543.873 Q2193.57 543.873 2196.72 548.479 Q2199.89 553.062 2199.89 561.812 Q2199.89 569.984 2196 574.868 Q2192.14 579.729 2185.59 579.729 Q2183.83 579.729 2182.02 579.382 Q2180.22 579.034 2178.27 578.34 M2187.58 563.687 Q2190.73 563.687 2192.56 561.534 Q2194.41 559.382 2194.41 555.632 Q2194.41 551.905 2192.56 549.752 Q2190.73 547.576 2187.58 547.576 Q2184.43 547.576 2182.58 549.752 Q2180.75 551.905 2180.75 555.632 Q2180.75 559.382 2182.58 561.534 Q2184.43 563.687 2187.58 563.687 Z" fill="#000000" fill-rule="evenodd" fill-opacity="1" /><circle clip-path="url(#clip400)" cx="2048.41" cy="613.618" r="23.04" fill="#8e971d" fill-rule="evenodd" fill-opacity="1" stroke="#000000" stroke-opacity="1" stroke-width="5.12"/>
<path clip-path="url(#clip400)" d="M2160.26 633.305 Q2158.46 637.935 2156.75 639.347 Q2155.03 640.759 2152.16 640.759 L2148.76 640.759 L2148.76 637.194 L2151.26 637.194 Q2153.02 637.194 2153.99 636.36 Q2154.96 635.527 2156.14 632.425 L2156.91 630.481 L2146.42 604.972 L2150.94 604.972 L2159.04 625.249 L2167.14 604.972 L2171.65 604.972 L2160.26 633.305 Z" fill="#000000" fill-rule="evenodd" fill-opacity="1" /><path clip-path="url(#clip400)" d="M2178.94 626.962 L2186.58 626.962 L2186.58 600.597 L2178.27 602.263 L2178.27 598.004 L2186.54 596.338 L2191.21 596.338 L2191.21 626.962 L2198.85 626.962 L2198.85 630.898 L2178.94 630.898 L2178.94 626.962 Z" fill="#000000" fill-rule="evenodd" fill-opacity="1" /><path clip-path="url(#clip400)" d="M2218.3 599.416 Q2214.68 599.416 2212.86 602.981 Q2211.05 606.523 2211.05 613.652 Q2211.05 620.759 2212.86 624.324 Q2214.68 627.865 2218.3 627.865 Q2221.93 627.865 2223.74 624.324 Q2225.56 620.759 2225.56 613.652 Q2225.56 606.523 2223.74 602.981 Q2221.93 599.416 2218.3 599.416 M2218.3 595.713 Q2224.11 595.713 2227.16 600.319 Q2230.24 604.902 2230.24 613.652 Q2230.24 622.379 2227.16 626.986 Q2224.11 631.569 2218.3 631.569 Q2212.49 631.569 2209.41 626.986 Q2206.35 622.379 2206.35 613.652 Q2206.35 604.902 2209.41 600.319 Q2212.49 595.713 2218.3 595.713 Z" fill="#000000" fill-rule="evenodd" fill-opacity="1" /></svg>
