<?xml version="1.0" encoding="utf-8"?>
<svg xmlns="http://www.w3.org/2000/svg" xmlns:xlink="http://www.w3.org/1999/xlink" width="600" height="400" viewBox="0 0 2400 1600">
<defs>
  <clipPath id="clip270">
    <rect x="0" y="0" width="2400" height="1600"/>
  </clipPath>
</defs>
<path clip-path="url(#clip270)" d="
M0 1600 L2400 1600 L2400 0 L0 0  Z
  " fill="#ffffff" fill-rule="evenodd" fill-opacity="1"/>
<defs>
  <clipPath id="clip271">
    <rect x="480" y="0" width="1681" height="1600"/>
  </clipPath>
</defs>
<path clip-path="url(#clip270)" d="
M186.274 1486.45 L2352.76 1486.45 L2352.76 47.2441 L186.274 47.2441  Z
  " fill="#ffffff" fill-rule="evenodd" fill-opacity="1"/>
<defs>
  <clipPath id="clip272">
    <rect x="186" y="47" width="2167" height="1440"/>
  </clipPath>
</defs>
<polyline clip-path="url(#clip272)" style="stroke:#000000; stroke-linecap:butt; stroke-linejoin:round; stroke-width:2; stroke-opacity:0.1; fill:none" points="
  237.267,1486.45 237.267,47.2441 
  "/>
<polyline clip-path="url(#clip272)" style="stroke:#000000; stroke-linecap:butt; stroke-linejoin:round; stroke-width:2; stroke-opacity:0.1; fill:none" points="
  753.391,1486.45 753.391,47.2441 
  "/>
<polyline clip-path="url(#clip272)" style="stroke:#000000; stroke-linecap:butt; stroke-linejoin:round; stroke-width:2; stroke-opacity:0.1; fill:none" points="
  1269.51,1486.45 1269.51,47.2441 
  "/>
<polyline clip-path="url(#clip272)" style="stroke:#000000; stroke-linecap:butt; stroke-linejoin:round; stroke-width:2; stroke-opacity:0.1; fill:none" points="
  1785.64,1486.45 1785.64,47.2441 
  "/>
<polyline clip-path="url(#clip272)" style="stroke:#000000; stroke-linecap:butt; stroke-linejoin:round; stroke-width:2; stroke-opacity:0.1; fill:none" points="
  2301.76,1486.45 2301.76,47.2441 
  "/>
<polyline clip-path="url(#clip270)" style="stroke:#000000; stroke-linecap:butt; stroke-linejoin:round; stroke-width:4; stroke-opacity:1; fill:none" points="
  186.274,1486.45 2352.76,1486.45 
  "/>
<polyline clip-path="url(#clip270)" style="stroke:#000000; stroke-linecap:butt; stroke-linejoin:round; stroke-width:4; stroke-opacity:1; fill:none" points="
  237.267,1486.45 237.267,1467.55 
  "/>
<polyline clip-path="url(#clip270)" style="stroke:#000000; stroke-linecap:butt; stroke-linejoin:round; stroke-width:4; stroke-opacity:1; fill:none" points="
  753.391,1486.45 753.391,1467.55 
  "/>
<polyline clip-path="url(#clip270)" style="stroke:#000000; stroke-linecap:butt; stroke-linejoin:round; stroke-width:4; stroke-opacity:1; fill:none" points="
  1269.51,1486.45 1269.51,1467.55 
  "/>
<polyline clip-path="url(#clip270)" style="stroke:#000000; stroke-linecap:butt; stroke-linejoin:round; stroke-width:4; stroke-opacity:1; fill:none" points="
  1785.64,1486.45 1785.64,1467.55 
  "/>
<polyline clip-path="url(#clip270)" style="stroke:#000000; stroke-linecap:butt; stroke-linejoin:round; stroke-width:4; stroke-opacity:1; fill:none" points="
  2301.76,1486.45 2301.76,1467.55 
  "/>
<path clip-path="url(#clip270)" d="M183.795 1532.02 L213.471 1532.02 L213.471 1535.95 L183.795 1535.95 L183.795 1532.02 Z" fill="#000000" fill-rule="evenodd" fill-opacity="1" /><path clip-path="url(#clip270)" d="M224.374 1544.91 L232.012 1544.91 L232.012 1518.55 L223.702 1520.21 L223.702 1515.95 L231.966 1514.29 L236.642 1514.29 L236.642 1544.91 L244.281 1544.91 L244.281 1548.85 L224.374 1548.85 L224.374 1544.91 Z" fill="#000000" fill-rule="evenodd" fill-opacity="1" /><path clip-path="url(#clip270)" d="M253.725 1542.97 L258.61 1542.97 L258.61 1548.85 L253.725 1548.85 L253.725 1542.97 Z" fill="#000000" fill-rule="evenodd" fill-opacity="1" /><path clip-path="url(#clip270)" d="M278.795 1517.37 Q275.184 1517.37 273.355 1520.93 Q271.549 1524.47 271.549 1531.6 Q271.549 1538.71 273.355 1542.27 Q275.184 1545.82 278.795 1545.82 Q282.429 1545.82 284.234 1542.27 Q286.063 1538.71 286.063 1531.6 Q286.063 1524.47 284.234 1520.93 Q282.429 1517.37 278.795 1517.37 M278.795 1513.66 Q284.605 1513.66 287.66 1518.27 Q290.739 1522.85 290.739 1531.6 Q290.739 1540.33 287.66 1544.94 Q284.605 1549.52 278.795 1549.52 Q272.984 1549.52 269.906 1544.94 Q266.85 1540.33 266.85 1531.6 Q266.85 1522.85 269.906 1518.27 Q272.984 1513.66 278.795 1513.66 Z" fill="#000000" fill-rule="evenodd" fill-opacity="1" /><path clip-path="url(#clip270)" d="M700.417 1532.02 L730.093 1532.02 L730.093 1535.95 L700.417 1535.95 L700.417 1532.02 Z" fill="#000000" fill-rule="evenodd" fill-opacity="1" /><path clip-path="url(#clip270)" d="M750.185 1517.37 Q746.574 1517.37 744.745 1520.93 Q742.94 1524.47 742.94 1531.6 Q742.94 1538.71 744.745 1542.27 Q746.574 1545.82 750.185 1545.82 Q753.819 1545.82 755.625 1542.27 Q757.453 1538.71 757.453 1531.6 Q757.453 1524.47 755.625 1520.93 Q753.819 1517.37 750.185 1517.37 M750.185 1513.66 Q755.995 1513.66 759.051 1518.27 Q762.129 1522.85 762.129 1531.6 Q762.129 1540.33 759.051 1544.94 Q755.995 1549.52 750.185 1549.52 Q744.375 1549.52 741.296 1544.94 Q738.241 1540.33 738.241 1531.6 Q738.241 1522.85 741.296 1518.27 Q744.375 1513.66 750.185 1513.66 Z" fill="#000000" fill-rule="evenodd" fill-opacity="1" /><path clip-path="url(#clip270)" d="M770.347 1542.97 L775.231 1542.97 L775.231 1548.85 L770.347 1548.85 L770.347 1542.97 Z" fill="#000000" fill-rule="evenodd" fill-opacity="1" /><path clip-path="url(#clip270)" d="M785.463 1514.29 L803.819 1514.29 L803.819 1518.22 L789.745 1518.22 L789.745 1526.7 Q790.763 1526.35 791.782 1526.19 Q792.801 1526 793.819 1526 Q799.606 1526 802.986 1529.17 Q806.365 1532.34 806.365 1537.76 Q806.365 1543.34 802.893 1546.44 Q799.421 1549.52 793.101 1549.52 Q790.926 1549.52 788.657 1549.15 Q786.412 1548.78 784.004 1548.04 L784.004 1543.34 Q786.088 1544.47 788.31 1545.03 Q790.532 1545.58 793.009 1545.58 Q797.013 1545.58 799.351 1543.48 Q801.689 1541.37 801.689 1537.76 Q801.689 1534.15 799.351 1532.04 Q797.013 1529.94 793.009 1529.94 Q791.134 1529.94 789.259 1530.35 Q787.407 1530.77 785.463 1531.65 L785.463 1514.29 Z" fill="#000000" fill-rule="evenodd" fill-opacity="1" /><path clip-path="url(#clip270)" d="M1246.9 1517.37 Q1243.29 1517.37 1241.46 1520.93 Q1239.65 1524.47 1239.65 1531.6 Q1239.65 1538.71 1241.46 1542.27 Q1243.29 1545.82 1246.9 1545.82 Q1250.53 1545.82 1252.34 1542.27 Q1254.17 1538.71 1254.17 1531.6 Q1254.17 1524.47 1252.34 1520.93 Q1250.53 1517.37 1246.9 1517.37 M1246.9 1513.66 Q1252.71 1513.66 1255.77 1518.27 Q1258.84 1522.85 1258.84 1531.6 Q1258.84 1540.33 1255.77 1544.94 Q1252.71 1549.52 1246.9 1549.52 Q1241.09 1549.52 1238.01 1544.94 Q1234.95 1540.33 1234.95 1531.6 Q1234.95 1522.85 1238.01 1518.27 Q1241.09 1513.66 1246.9 1513.66 Z" fill="#000000" fill-rule="evenodd" fill-opacity="1" /><path clip-path="url(#clip270)" d="M1267.06 1542.97 L1271.95 1542.97 L1271.95 1548.85 L1267.06 1548.85 L1267.06 1542.97 Z" fill="#000000" fill-rule="evenodd" fill-opacity="1" /><path clip-path="url(#clip270)" d="M1292.13 1517.37 Q1288.52 1517.37 1286.69 1520.93 Q1284.89 1524.47 1284.89 1531.6 Q1284.89 1538.71 1286.69 1542.27 Q1288.52 1545.82 1292.13 1545.82 Q1295.76 1545.82 1297.57 1542.27 Q1299.4 1538.71 1299.4 1531.6 Q1299.4 1524.47 1297.57 1520.93 Q1295.76 1517.37 1292.13 1517.37 M1292.13 1513.66 Q1297.94 1513.66 1301 1518.27 Q1304.07 1522.85 1304.07 1531.6 Q1304.07 1540.33 1301 1544.94 Q1297.94 1549.52 1292.13 1549.52 Q1286.32 1549.52 1283.24 1544.94 Q1280.19 1540.33 1280.19 1531.6 Q1280.19 1522.85 1283.24 1518.27 Q1286.32 1513.66 1292.13 1513.66 Z" fill="#000000" fill-rule="evenodd" fill-opacity="1" /><path clip-path="url(#clip270)" d="M1763.52 1517.37 Q1759.91 1517.37 1758.08 1520.93 Q1756.28 1524.47 1756.28 1531.6 Q1756.28 1538.71 1758.08 1542.27 Q1759.91 1545.82 1763.52 1545.82 Q1767.16 1545.82 1768.96 1542.27 Q1770.79 1538.71 1770.79 1531.6 Q1770.79 1524.47 1768.96 1520.93 Q1767.16 1517.37 1763.52 1517.37 M1763.52 1513.66 Q1769.33 1513.66 1772.39 1518.27 Q1775.47 1522.85 1775.47 1531.6 Q1775.47 1540.33 1772.39 1544.94 Q1769.33 1549.52 1763.52 1549.52 Q1757.71 1549.52 1754.63 1544.94 Q1751.58 1540.33 1751.58 1531.6 Q1751.58 1522.85 1754.63 1518.27 Q1757.71 1513.66 1763.52 1513.66 Z" fill="#000000" fill-rule="evenodd" fill-opacity="1" /><path clip-path="url(#clip270)" d="M1783.68 1542.97 L1788.57 1542.97 L1788.57 1548.85 L1783.68 1548.85 L1783.68 1542.97 Z" fill="#000000" fill-rule="evenodd" fill-opacity="1" /><path clip-path="url(#clip270)" d="M1798.8 1514.29 L1817.15 1514.29 L1817.15 1518.22 L1803.08 1518.22 L1803.08 1526.7 Q1804.1 1526.35 1805.12 1526.19 Q1806.14 1526 1807.15 1526 Q1812.94 1526 1816.32 1529.17 Q1819.7 1532.34 1819.7 1537.76 Q1819.7 1543.34 1816.23 1546.44 Q1812.76 1549.52 1806.44 1549.52 Q1804.26 1549.52 1801.99 1549.15 Q1799.75 1548.78 1797.34 1548.04 L1797.34 1543.34 Q1799.42 1544.47 1801.65 1545.03 Q1803.87 1545.58 1806.34 1545.58 Q1810.35 1545.58 1812.69 1543.48 Q1815.03 1541.37 1815.03 1537.76 Q1815.03 1534.15 1812.69 1532.04 Q1810.35 1529.94 1806.34 1529.94 Q1804.47 1529.94 1802.59 1530.35 Q1800.74 1530.77 1798.8 1531.65 L1798.8 1514.29 Z" fill="#000000" fill-rule="evenodd" fill-opacity="1" /><path clip-path="url(#clip270)" d="M2268.92 1544.91 L2276.55 1544.91 L2276.55 1518.55 L2268.24 1520.21 L2268.24 1515.95 L2276.51 1514.29 L2281.18 1514.29 L2281.18 1544.91 L2288.82 1544.91 L2288.82 1548.85 L2268.92 1548.85 L2268.92 1544.91 Z" fill="#000000" fill-rule="evenodd" fill-opacity="1" /><path clip-path="url(#clip270)" d="M2298.27 1542.97 L2303.15 1542.97 L2303.15 1548.85 L2298.27 1548.85 L2298.27 1542.97 Z" fill="#000000" fill-rule="evenodd" fill-opacity="1" /><path clip-path="url(#clip270)" d="M2323.34 1517.37 Q2319.73 1517.37 2317.9 1520.93 Q2316.09 1524.47 2316.09 1531.6 Q2316.09 1538.71 2317.9 1542.27 Q2319.73 1545.82 2323.34 1545.82 Q2326.97 1545.82 2328.78 1542.27 Q2330.61 1538.71 2330.61 1531.6 Q2330.61 1524.47 2328.78 1520.93 Q2326.97 1517.37 2323.34 1517.37 M2323.34 1513.66 Q2329.15 1513.66 2332.2 1518.27 Q2335.28 1522.85 2335.28 1531.6 Q2335.28 1540.33 2332.2 1544.94 Q2329.15 1549.52 2323.34 1549.52 Q2317.53 1549.52 2314.45 1544.94 Q2311.39 1540.33 2311.39 1531.6 Q2311.39 1522.85 2314.45 1518.27 Q2317.53 1513.66 2323.34 1513.66 Z" fill="#000000" fill-rule="evenodd" fill-opacity="1" /><polyline clip-path="url(#clip272)" style="stroke:#000000; stroke-linecap:butt; stroke-linejoin:round; stroke-width:2; stroke-opacity:0.1; fill:none" points="
  186.274,1445.72 2352.76,1445.72 
  "/>
<polyline clip-path="url(#clip272)" style="stroke:#000000; stroke-linecap:butt; stroke-linejoin:round; stroke-width:2; stroke-opacity:0.1; fill:none" points="
  186.274,1106.28 2352.76,1106.28 
  "/>
<polyline clip-path="url(#clip272)" style="stroke:#000000; stroke-linecap:butt; stroke-linejoin:round; stroke-width:2; stroke-opacity:0.1; fill:none" points="
  186.274,766.846 2352.76,766.846 
  "/>
<polyline clip-path="url(#clip272)" style="stroke:#000000; stroke-linecap:butt; stroke-linejoin:round; stroke-width:2; stroke-opacity:0.1; fill:none" points="
  186.274,427.411 2352.76,427.411 
  "/>
<polyline clip-path="url(#clip272)" style="stroke:#000000; stroke-linecap:butt; stroke-linejoin:round; stroke-width:2; stroke-opacity:0.1; fill:none" points="
  186.274,87.9763 2352.76,87.9763 
  "/>
<polyline clip-path="url(#clip270)" style="stroke:#000000; stroke-linecap:butt; stroke-linejoin:round; stroke-width:4; stroke-opacity:1; fill:none" points="
  186.274,1486.45 186.274,47.2441 
  "/>
<polyline clip-path="url(#clip270)" style="stroke:#000000; stroke-linecap:butt; stroke-linejoin:round; stroke-width:4; stroke-opacity:1; fill:none" points="
  186.274,1445.72 205.172,1445.72 
  "/>
<polyline clip-path="url(#clip270)" style="stroke:#000000; stroke-linecap:butt; stroke-linejoin:round; stroke-width:4; stroke-opacity:1; fill:none" points="
  186.274,1106.28 205.172,1106.28 
  "/>
<polyline clip-path="url(#clip270)" style="stroke:#000000; stroke-linecap:butt; stroke-linejoin:round; stroke-width:4; stroke-opacity:1; fill:none" points="
  186.274,766.846 205.172,766.846 
  "/>
<polyline clip-path="url(#clip270)" style="stroke:#000000; stroke-linecap:butt; stroke-linejoin:round; stroke-width:4; stroke-opacity:1; fill:none" points="
  186.274,427.411 205.172,427.411 
  "/>
<polyline clip-path="url(#clip270)" style="stroke:#000000; stroke-linecap:butt; stroke-linejoin:round; stroke-width:4; stroke-opacity:1; fill:none" points="
  186.274,87.9763 205.172,87.9763 
  "/>
<path clip-path="url(#clip270)" d="M62.9365 1431.51 Q59.3254 1431.51 57.4967 1435.08 Q55.6912 1438.62 55.6912 1445.75 Q55.6912 1452.86 57.4967 1456.42 Q59.3254 1459.96 62.9365 1459.96 Q66.5707 1459.96 68.3763 1456.42 Q70.205 1452.86 70.205 1445.75 Q70.205 1438.62 68.3763 1435.08 Q66.5707 1431.51 62.9365 1431.51 M62.9365 1427.81 Q68.7467 1427.81 71.8022 1432.42 Q74.8809 1437 74.8809 1445.75 Q74.8809 1454.48 71.8022 1459.08 Q68.7467 1463.67 62.9365 1463.67 Q57.1264 1463.67 54.0477 1459.08 Q50.9921 1454.48 50.9921 1445.75 Q50.9921 1437 54.0477 1432.42 Q57.1264 1427.81 62.9365 1427.81 Z" fill="#000000" fill-rule="evenodd" fill-opacity="1" /><path clip-path="url(#clip270)" d="M83.0984 1457.12 L87.9827 1457.12 L87.9827 1463 L83.0984 1463 L83.0984 1457.12 Z" fill="#000000" fill-rule="evenodd" fill-opacity="1" /><path clip-path="url(#clip270)" d="M108.168 1431.51 Q104.557 1431.51 102.728 1435.08 Q100.922 1438.62 100.922 1445.75 Q100.922 1452.86 102.728 1456.42 Q104.557 1459.96 108.168 1459.96 Q111.802 1459.96 113.608 1456.42 Q115.436 1452.86 115.436 1445.75 Q115.436 1438.62 113.608 1435.08 Q111.802 1431.51 108.168 1431.51 M108.168 1427.81 Q113.978 1427.81 117.033 1432.42 Q120.112 1437 120.112 1445.75 Q120.112 1454.48 117.033 1459.08 Q113.978 1463.67 108.168 1463.67 Q102.358 1463.67 99.2789 1459.08 Q96.2234 1454.48 96.2234 1445.75 Q96.2234 1437 99.2789 1432.42 Q102.358 1427.81 108.168 1427.81 Z" fill="#000000" fill-rule="evenodd" fill-opacity="1" /><path clip-path="url(#clip270)" d="M138.33 1431.51 Q134.719 1431.51 132.89 1435.08 Q131.084 1438.62 131.084 1445.75 Q131.084 1452.86 132.89 1456.42 Q134.719 1459.96 138.33 1459.96 Q141.964 1459.96 143.769 1456.42 Q145.598 1452.86 145.598 1445.75 Q145.598 1438.62 143.769 1435.08 Q141.964 1431.51 138.33 1431.51 M138.33 1427.81 Q144.14 1427.81 147.195 1432.42 Q150.274 1437 150.274 1445.75 Q150.274 1454.48 147.195 1459.08 Q144.14 1463.67 138.33 1463.67 Q132.519 1463.67 129.441 1459.08 Q126.385 1454.48 126.385 1445.75 Q126.385 1437 129.441 1432.42 Q132.519 1427.81 138.33 1427.81 Z" fill="#000000" fill-rule="evenodd" fill-opacity="1" /><path clip-path="url(#clip270)" d="M63.9319 1092.08 Q60.3208 1092.08 58.4921 1095.64 Q56.6865 1099.19 56.6865 1106.32 Q56.6865 1113.42 58.4921 1116.99 Q60.3208 1120.53 63.9319 1120.53 Q67.5661 1120.53 69.3717 1116.99 Q71.2004 1113.42 71.2004 1106.32 Q71.2004 1099.19 69.3717 1095.64 Q67.5661 1092.08 63.9319 1092.08 M63.9319 1088.38 Q69.742 1088.38 72.7976 1092.98 Q75.8763 1097.57 75.8763 1106.32 Q75.8763 1115.04 72.7976 1119.65 Q69.742 1124.23 63.9319 1124.23 Q58.1217 1124.23 55.043 1119.65 Q51.9875 1115.04 51.9875 1106.32 Q51.9875 1097.57 55.043 1092.98 Q58.1217 1088.38 63.9319 1088.38 Z" fill="#000000" fill-rule="evenodd" fill-opacity="1" /><path clip-path="url(#clip270)" d="M84.0938 1117.68 L88.978 1117.68 L88.978 1123.56 L84.0938 1123.56 L84.0938 1117.68 Z" fill="#000000" fill-rule="evenodd" fill-opacity="1" /><path clip-path="url(#clip270)" d="M103.191 1119.63 L119.51 1119.63 L119.51 1123.56 L97.566 1123.56 L97.566 1119.63 Q100.228 1116.87 104.811 1112.24 Q109.418 1107.59 110.598 1106.25 Q112.844 1103.72 113.723 1101.99 Q114.626 1100.23 114.626 1098.54 Q114.626 1095.78 112.682 1094.05 Q110.76 1092.31 107.658 1092.31 Q105.459 1092.31 103.006 1093.07 Q100.575 1093.84 97.7974 1095.39 L97.7974 1090.67 Q100.621 1089.53 103.075 1088.95 Q105.529 1088.38 107.566 1088.38 Q112.936 1088.38 116.131 1091.06 Q119.325 1093.75 119.325 1098.24 Q119.325 1100.37 118.515 1102.29 Q117.728 1104.19 115.621 1106.78 Q115.043 1107.45 111.941 1110.67 Q108.839 1113.86 103.191 1119.63 Z" fill="#000000" fill-rule="evenodd" fill-opacity="1" /><path clip-path="url(#clip270)" d="M129.371 1089 L147.728 1089 L147.728 1092.94 L133.654 1092.94 L133.654 1101.41 Q134.672 1101.06 135.691 1100.9 Q136.709 1100.71 137.728 1100.71 Q143.515 1100.71 146.894 1103.89 Q150.274 1107.06 150.274 1112.47 Q150.274 1118.05 146.802 1121.15 Q143.33 1124.23 137.01 1124.23 Q134.834 1124.23 132.566 1123.86 Q130.32 1123.49 127.913 1122.75 L127.913 1118.05 Q129.996 1119.19 132.219 1119.74 Q134.441 1120.3 136.918 1120.3 Q140.922 1120.3 143.26 1118.19 Q145.598 1116.08 145.598 1112.47 Q145.598 1108.86 143.26 1106.76 Q140.922 1104.65 136.918 1104.65 Q135.043 1104.65 133.168 1105.07 Q131.316 1105.48 129.371 1106.36 L129.371 1089 Z" fill="#000000" fill-rule="evenodd" fill-opacity="1" /><path clip-path="url(#clip270)" d="M62.9365 752.645 Q59.3254 752.645 57.4967 756.209 Q55.6912 759.751 55.6912 766.881 Q55.6912 773.987 57.4967 777.552 Q59.3254 781.094 62.9365 781.094 Q66.5707 781.094 68.3763 777.552 Q70.205 773.987 70.205 766.881 Q70.205 759.751 68.3763 756.209 Q66.5707 752.645 62.9365 752.645 M62.9365 748.941 Q68.7467 748.941 71.8022 753.547 Q74.8809 758.131 74.8809 766.881 Q74.8809 775.608 71.8022 780.214 Q68.7467 784.797 62.9365 784.797 Q57.1264 784.797 54.0477 780.214 Q50.9921 775.608 50.9921 766.881 Q50.9921 758.131 54.0477 753.547 Q57.1264 748.941 62.9365 748.941 Z" fill="#000000" fill-rule="evenodd" fill-opacity="1" /><path clip-path="url(#clip270)" d="M83.0984 778.246 L87.9827 778.246 L87.9827 784.126 L83.0984 784.126 L83.0984 778.246 Z" fill="#000000" fill-rule="evenodd" fill-opacity="1" /><path clip-path="url(#clip270)" d="M98.2141 749.566 L116.57 749.566 L116.57 753.501 L102.496 753.501 L102.496 761.973 Q103.515 761.626 104.534 761.464 Q105.552 761.279 106.571 761.279 Q112.358 761.279 115.737 764.45 Q119.117 767.621 119.117 773.038 Q119.117 778.617 115.645 781.719 Q112.172 784.797 105.853 784.797 Q103.677 784.797 101.409 784.427 Q99.1632 784.057 96.7558 783.316 L96.7558 778.617 Q98.8391 779.751 101.061 780.307 Q103.284 780.862 105.76 780.862 Q109.765 780.862 112.103 778.756 Q114.441 776.649 114.441 773.038 Q114.441 769.427 112.103 767.321 Q109.765 765.214 105.76 765.214 Q103.885 765.214 102.01 765.631 Q100.159 766.047 98.2141 766.927 L98.2141 749.566 Z" fill="#000000" fill-rule="evenodd" fill-opacity="1" /><path clip-path="url(#clip270)" d="M138.33 752.645 Q134.719 752.645 132.89 756.209 Q131.084 759.751 131.084 766.881 Q131.084 773.987 132.89 777.552 Q134.719 781.094 138.33 781.094 Q141.964 781.094 143.769 777.552 Q145.598 773.987 145.598 766.881 Q145.598 759.751 143.769 756.209 Q141.964 752.645 138.33 752.645 M138.33 748.941 Q144.14 748.941 147.195 753.547 Q150.274 758.131 150.274 766.881 Q150.274 775.608 147.195 780.214 Q144.14 784.797 138.33 784.797 Q132.519 784.797 129.441 780.214 Q126.385 775.608 126.385 766.881 Q126.385 758.131 129.441 753.547 Q132.519 748.941 138.33 748.941 Z" fill="#000000" fill-rule="evenodd" fill-opacity="1" /><path clip-path="url(#clip270)" d="M63.9319 413.21 Q60.3208 413.21 58.4921 416.775 Q56.6865 420.316 56.6865 427.446 Q56.6865 434.552 58.4921 438.117 Q60.3208 441.659 63.9319 441.659 Q67.5661 441.659 69.3717 438.117 Q71.2004 434.552 71.2004 427.446 Q71.2004 420.316 69.3717 416.775 Q67.5661 413.21 63.9319 413.21 M63.9319 409.506 Q69.742 409.506 72.7976 414.113 Q75.8763 418.696 75.8763 427.446 Q75.8763 436.173 72.7976 440.779 Q69.742 445.362 63.9319 445.362 Q58.1217 445.362 55.043 440.779 Q51.9875 436.173 51.9875 427.446 Q51.9875 418.696 55.043 414.113 Q58.1217 409.506 63.9319 409.506 Z" fill="#000000" fill-rule="evenodd" fill-opacity="1" /><path clip-path="url(#clip270)" d="M84.0938 438.812 L88.978 438.812 L88.978 444.691 L84.0938 444.691 L84.0938 438.812 Z" fill="#000000" fill-rule="evenodd" fill-opacity="1" /><path clip-path="url(#clip270)" d="M97.9826 410.131 L120.205 410.131 L120.205 412.122 L107.658 444.691 L102.774 444.691 L114.58 414.066 L97.9826 414.066 L97.9826 410.131 Z" fill="#000000" fill-rule="evenodd" fill-opacity="1" /><path clip-path="url(#clip270)" d="M129.371 410.131 L147.728 410.131 L147.728 414.066 L133.654 414.066 L133.654 422.538 Q134.672 422.191 135.691 422.029 Q136.709 421.844 137.728 421.844 Q143.515 421.844 146.894 425.015 Q150.274 428.187 150.274 433.603 Q150.274 439.182 146.802 442.284 Q143.33 445.362 137.01 445.362 Q134.834 445.362 132.566 444.992 Q130.32 444.622 127.913 443.881 L127.913 439.182 Q129.996 440.316 132.219 440.872 Q134.441 441.427 136.918 441.427 Q140.922 441.427 143.26 439.321 Q145.598 437.214 145.598 433.603 Q145.598 429.992 143.26 427.886 Q140.922 425.779 136.918 425.779 Q135.043 425.779 133.168 426.196 Q131.316 426.613 129.371 427.492 L129.371 410.131 Z" fill="#000000" fill-rule="evenodd" fill-opacity="1" /><path clip-path="url(#clip270)" d="M53.7467 101.321 L61.3856 101.321 L61.3856 74.9555 L53.0754 76.6222 L53.0754 72.3629 L61.3393 70.6963 L66.0152 70.6963 L66.0152 101.321 L73.654 101.321 L73.654 105.256 L53.7467 105.256 L53.7467 101.321 Z" fill="#000000" fill-rule="evenodd" fill-opacity="1" /><path clip-path="url(#clip270)" d="M83.0984 99.3767 L87.9827 99.3767 L87.9827 105.256 L83.0984 105.256 L83.0984 99.3767 Z" fill="#000000" fill-rule="evenodd" fill-opacity="1" /><path clip-path="url(#clip270)" d="M108.168 73.775 Q104.557 73.775 102.728 77.3398 Q100.922 80.8814 100.922 88.011 Q100.922 95.1174 102.728 98.6822 Q104.557 102.224 108.168 102.224 Q111.802 102.224 113.608 98.6822 Q115.436 95.1174 115.436 88.011 Q115.436 80.8814 113.608 77.3398 Q111.802 73.775 108.168 73.775 M108.168 70.0713 Q113.978 70.0713 117.033 74.6777 Q120.112 79.261 120.112 88.011 Q120.112 96.7378 117.033 101.344 Q113.978 105.928 108.168 105.928 Q102.358 105.928 99.2789 101.344 Q96.2234 96.7378 96.2234 88.011 Q96.2234 79.261 99.2789 74.6777 Q102.358 70.0713 108.168 70.0713 Z" fill="#000000" fill-rule="evenodd" fill-opacity="1" /><path clip-path="url(#clip270)" d="M138.33 73.775 Q134.719 73.775 132.89 77.3398 Q131.084 80.8814 131.084 88.011 Q131.084 95.1174 132.89 98.6822 Q134.719 102.224 138.33 102.224 Q141.964 102.224 143.769 98.6822 Q145.598 95.1174 145.598 88.011 Q145.598 80.8814 143.769 77.3398 Q141.964 73.775 138.33 73.775 M138.33 70.0713 Q144.14 70.0713 147.195 74.6777 Q150.274 79.261 150.274 88.011 Q150.274 96.7378 147.195 101.344 Q144.14 105.928 138.33 105.928 Q132.519 105.928 129.441 101.344 Q126.385 96.7378 126.385 88.011 Q126.385 79.261 129.441 74.6777 Q132.519 70.0713 138.33 70.0713 Z" fill="#000000" fill-rule="evenodd" fill-opacity="1" /><polyline clip-path="url(#clip272)" style="stroke:#009af9; stroke-linecap:butt; stroke-linejoin:round; stroke-width:12; stroke-opacity:1; fill:none" points="
  247.59,1445.72 268.234,1445.72 288.879,1445.72 309.524,1445.72 330.169,1409.51 350.814,1300.89 371.459,1192.27 392.104,1083.65 412.749,975.033 433.394,866.414 
  454.039,757.794 474.684,649.175 495.329,540.556 515.974,431.937 536.619,323.318 557.264,214.699 577.909,106.079 598.554,178.492 619.199,287.111 639.844,395.731 
  660.489,504.35 681.134,612.969 701.779,721.588 722.424,830.207 743.069,938.826 763.713,1047.45 784.358,1156.06 805.003,1264.68 825.648,1373.3 846.293,1445.72 
  866.938,1445.72 887.583,1445.72 908.228,1445.72 928.873,1445.72 949.518,1445.72 970.163,1445.72 990.808,1445.72 1011.45,1445.72 1032.1,1445.72 1052.74,1445.72 
  1073.39,87.9763 1094.03,87.9763 1114.68,87.9763 1135.32,87.9763 1155.97,87.9763 1176.61,87.9763 1197.26,87.9763 1217.9,87.9763 1238.55,87.9763 1259.19,87.9763 
  1279.84,87.9763 1300.48,87.9763 1321.13,87.9763 1341.77,87.9763 1362.42,87.9763 1383.06,87.9763 1403.71,87.9763 1424.35,87.9763 1445,87.9763 1465.64,87.9763 
  1486.29,1445.72 1506.93,1445.72 1527.58,1445.72 1548.22,1445.72 1568.87,1445.72 1589.51,1445.72 1610.16,1445.72 1630.8,1445.72 1651.45,1445.72 1672.09,1445.72 
  1692.74,1445.72 1713.38,1436.21 1734.03,1387.02 1754.67,1298.87 1775.32,1177.29 1795.96,1029.92 1816.61,866.017 1837.25,695.885 1857.9,530.211 1878.54,379.406 
  1899.19,252.945 1919.83,158.774 1940.48,102.811 1961.12,88.5718 1981.77,116.951 2002.41,186.165 2023.06,291.866 2043.7,427.411 2064.35,584.284 2084.99,752.629 
  2105.64,921.866 2126.28,1081.36 2146.93,1221.1 2167.57,1332.29 2188.22,1407.95 2208.86,1443.33 2229.51,1445.72 2250.15,1445.72 2270.8,1445.72 2291.44,1445.72 
  
  "/>
<polyline clip-path="url(#clip272)" style="stroke:#e26f46; stroke-linecap:butt; stroke-linejoin:round; stroke-width:12; stroke-opacity:1; fill:none" points="
  247.59,912.044 268.234,1077.41 288.879,1224.24 309.524,1339.83 330.169,1409.47 350.814,1437.39 371.459,1444.38 392.104,1445.49 412.749,1445.57 433.394,1445.44 
  454.039,1444.7 474.684,1442.52 495.329,1435.01 515.974,1418.9 536.619,1379.77 557.264,1316.12 577.909,1218.76 598.554,1106.72 619.199,984.172 639.844,867.831 
  660.489,756.923 681.134,650.628 701.779,536.607 722.424,407.121 743.069,283.266 763.713,221.327 784.358,212.981 805.003,225.163 825.648,273.211 846.293,359.033 
  866.938,471.203 887.583,598.508 908.228,719.316 928.873,831.766 949.518,940.031 970.163,1049.35 990.808,1164.92 1011.45,1280.38 1032.1,1373.8 1052.74,1425.28 
  1073.39,1442.06 1094.03,1445.22 1114.68,1445.48 1135.32,1445.35 1155.97,1443.97 1176.61,1439.07 1197.26,1418.93 1217.9,1371.59 1238.55,1232.71 1259.19,985.408 
  1279.84,608.982 1300.48,297.145 1321.13,133.594 1341.77,94.4215 1362.42,88.7135 1383.06,88.0544 1403.71,87.984 1424.35,87.977 1445,87.9763 1465.64,87.9763 
  1486.29,87.977 1506.93,87.9821 1527.58,88.0315 1548.22,88.2917 1568.87,89.8173 1589.51,94.5501 1610.16,114.87 1630.8,162.101 1651.45,301.1 1672.09,548.114 
  1692.74,924.8 1713.38,1236.42 1734.03,1400.12 1754.67,1439.3 1775.32,1444.99 1795.96,1445.58 1816.61,1445.6 1837.25,1445.37 1857.9,1444.39 1878.54,1441.29 
  1899.19,1433.33 1919.83,1412.85 1940.48,1372.16 1961.12,1297.96 1981.77,1189.21 2002.41,1045.17 2023.06,880.837 2043.7,708.101 2064.35,538.638 2084.99,375.543 
  2105.64,234.612 2126.28,150.358 2146.93,128.389 2167.57,127.896 2188.22,142.244 2208.86,193.761 2229.51,280.973 2250.15,405.959 2270.8,567.301 2291.44,739.057 
  
  "/>
<polyline clip-path="url(#clip272)" style="stroke:#3da44d; stroke-linecap:butt; stroke-linejoin:round; stroke-width:12; stroke-opacity:1; fill:none" points="
  247.59,225.904 268.234,161.63 288.879,150.108 309.524,150.997 330.169,163.426 350.814,205.701 371.459,281.654 392.104,395.13 412.749,548.342 433.394,720.863 
  454.039,900.24 474.684,1073.82 495.329,1225.57 515.974,1341.21 536.619,1409.45 557.264,1436.95 577.909,1443.9 598.554,1444.93 619.199,1444.96 639.844,1444.5 
  660.489,1442.6 681.134,1438.17 701.779,1428.08 722.424,1407.86 743.069,1370.5 763.713,1311.29 784.358,1225.38 805.003,1118.7 825.648,999.209 846.293,878.937 
  866.938,761.369 887.583,643.347 908.228,517.184 928.873,387.312 949.518,286.62 970.163,246.993 990.808,242.865 1011.45,251.897 1032.1,286.907 1052.74,353.148 
  1073.39,451.261 1094.03,575.009 1114.68,702.932 1135.32,826.199 1155.97,943.425 1176.61,1057.56 1197.26,1172.05 1217.9,1281.44 1238.55,1369.97 1259.19,1421.93 
  1279.84,1440.4 1300.48,1443.76 1321.13,1443.91 1341.77,1442.63 1362.42,1437.11 1383.06,1423.74 1403.71,1390.38 1424.35,1321.74 1445,1184.5 1465.64,964.474 
  1486.29,660.248 1506.93,366.078 1527.58,174.668 1548.22,104.975 1568.87,90.4608 1589.51,88.3042 1610.16,88.0176 1630.8,87.985 1651.45,87.9836 1672.09,87.9957 
  1692.74,88.0602 1713.38,88.2478 1734.03,88.9842 1754.67,90.8172 1775.32,96.8385 1795.96,109.882 1816.61,144.871 1837.25,211.308 1857.9,350.547 1878.54,567.771 
  1899.19,873.77 1919.83,1166.71 1940.48,1359.36 1961.12,1428.9 1981.77,1443.05 2002.41,1444.8 2023.06,1444.88 2043.7,1444.31 2064.35,1442.07 2084.99,1436.78 
  2105.64,1425.37 2126.28,1401.97 2146.93,1359.9 2167.57,1290.86 2188.22,1189.42 2208.86,1055.53 2229.51,896.749 2250.15,721.574 2270.8,539.146 2291.44,362.938 
  
  "/>
</svg>
