<?xml version="1.0" encoding="utf-8"?>
<svg xmlns="http://www.w3.org/2000/svg" xmlns:xlink="http://www.w3.org/1999/xlink" width="600" height="400" viewBox="0 0 2400 1600">
<defs>
  <clipPath id="clip800">
    <rect x="0" y="0" width="2400" height="1600"/>
  </clipPath>
</defs>
<path clip-path="url(#clip800)" d="
M0 1600 L2400 1600 L2400 0 L0 0  Z
  " fill="#ffffff" fill-rule="evenodd" fill-opacity="1"/>
<defs>
  <clipPath id="clip801">
    <rect x="480" y="0" width="1681" height="1600"/>
  </clipPath>
</defs>
<defs>
  <clipPath id="clip802">
    <rect x="189" y="47" width="2164" height="1428"/>
  </clipPath>
</defs>
<path clip-path="url(#clip800)" d="
M188.292 1474.16 L2352.76 1474.16 L2352.76 47.2441 L188.292 47.2441  Z
  " fill="#ffffff" fill-rule="evenodd" fill-opacity="1"/>
<defs>
  <clipPath id="clip803">
    <rect x="188" y="47" width="2165" height="1428"/>
  </clipPath>
</defs>
<polyline clip-path="url(#clip803)" style="stroke:#000000; stroke-linecap:butt; stroke-linejoin:round; stroke-width:2; stroke-opacity:0.1; fill:none" points="
  645.147,1474.16 645.147,47.2441 
  "/>
<polyline clip-path="url(#clip803)" style="stroke:#000000; stroke-linecap:butt; stroke-linejoin:round; stroke-width:2; stroke-opacity:0.1; fill:none" points="
  1614.18,1474.16 1614.18,47.2441 
  "/>
<polyline clip-path="url(#clip800)" style="stroke:#000000; stroke-linecap:butt; stroke-linejoin:round; stroke-width:4; stroke-opacity:1; fill:none" points="
  188.292,1474.16 2352.76,1474.16 
  "/>
<polyline clip-path="url(#clip800)" style="stroke:#000000; stroke-linecap:butt; stroke-linejoin:round; stroke-width:4; stroke-opacity:1; fill:none" points="
  645.147,1474.16 645.147,1455.27 
  "/>
<polyline clip-path="url(#clip800)" style="stroke:#000000; stroke-linecap:butt; stroke-linejoin:round; stroke-width:4; stroke-opacity:1; fill:none" points="
  1614.18,1474.16 1614.18,1455.27 
  "/>
<path clip-path="url(#clip800)" d="M595.413 1548.29 L603.051 1548.29 L603.051 1521.92 L594.741 1523.59 L594.741 1519.33 L603.005 1517.66 L607.681 1517.66 L607.681 1548.29 L615.32 1548.29 L615.32 1552.22 L595.413 1552.22 L595.413 1548.29 Z" fill="#000000" fill-rule="evenodd" fill-opacity="1" /><path clip-path="url(#clip800)" d="M634.764 1520.74 Q631.153 1520.74 629.324 1524.31 Q627.519 1527.85 627.519 1534.98 Q627.519 1542.09 629.324 1545.65 Q631.153 1549.19 634.764 1549.19 Q638.398 1549.19 640.204 1545.65 Q642.033 1542.09 642.033 1534.98 Q642.033 1527.85 640.204 1524.31 Q638.398 1520.74 634.764 1520.74 M634.764 1517.04 Q640.574 1517.04 643.63 1521.65 Q646.709 1526.23 646.709 1534.98 Q646.709 1543.71 643.63 1548.31 Q640.574 1552.9 634.764 1552.9 Q628.954 1552.9 625.875 1548.31 Q622.82 1543.71 622.82 1534.98 Q622.82 1526.23 625.875 1521.65 Q628.954 1517.04 634.764 1517.04 Z" fill="#000000" fill-rule="evenodd" fill-opacity="1" /><path clip-path="url(#clip800)" d="M646.709 1511.14 L670.82 1511.14 L670.82 1514.34 L646.709 1514.34 L646.709 1511.14 Z" fill="#000000" fill-rule="evenodd" fill-opacity="1" /><path clip-path="url(#clip800)" d="M682.293 1521.62 L695.552 1521.62 L695.552 1524.81 L677.723 1524.81 L677.723 1521.62 Q679.886 1519.38 683.609 1515.62 Q687.352 1511.84 688.311 1510.75 Q690.136 1508.7 690.85 1507.29 Q691.584 1505.86 691.584 1504.48 Q691.584 1502.24 690.004 1500.83 Q688.443 1499.42 685.923 1499.42 Q684.136 1499.42 682.142 1500.04 Q680.168 1500.67 677.911 1501.93 L677.911 1498.09 Q680.205 1497.17 682.199 1496.7 Q684.193 1496.23 685.848 1496.23 Q690.211 1496.23 692.806 1498.41 Q695.402 1500.59 695.402 1504.24 Q695.402 1505.97 694.744 1507.53 Q694.104 1509.07 692.393 1511.18 Q691.923 1511.72 689.402 1514.34 Q686.882 1516.93 682.293 1521.62 Z" fill="#000000" fill-rule="evenodd" fill-opacity="1" /><path clip-path="url(#clip800)" d="M1564.29 1548.29 L1571.93 1548.29 L1571.93 1521.92 L1563.62 1523.59 L1563.62 1519.33 L1571.88 1517.66 L1576.56 1517.66 L1576.56 1548.29 L1584.2 1548.29 L1584.2 1552.22 L1564.29 1552.22 L1564.29 1548.29 Z" fill="#000000" fill-rule="evenodd" fill-opacity="1" /><path clip-path="url(#clip800)" d="M1603.64 1520.74 Q1600.03 1520.74 1598.2 1524.31 Q1596.4 1527.85 1596.4 1534.98 Q1596.4 1542.09 1598.2 1545.65 Q1600.03 1549.19 1603.64 1549.19 Q1607.28 1549.19 1609.08 1545.65 Q1610.91 1542.09 1610.91 1534.98 Q1610.91 1527.85 1609.08 1524.31 Q1607.28 1520.74 1603.64 1520.74 M1603.64 1517.04 Q1609.45 1517.04 1612.51 1521.65 Q1615.59 1526.23 1615.59 1534.98 Q1615.59 1543.71 1612.51 1548.31 Q1609.45 1552.9 1603.64 1552.9 Q1597.83 1552.9 1594.75 1548.31 Q1591.7 1543.71 1591.7 1534.98 Q1591.7 1526.23 1594.75 1521.65 Q1597.83 1517.04 1603.64 1517.04 Z" fill="#000000" fill-rule="evenodd" fill-opacity="1" /><path clip-path="url(#clip800)" d="M1615.59 1511.14 L1639.7 1511.14 L1639.7 1514.34 L1615.59 1514.34 L1615.59 1511.14 Z" fill="#000000" fill-rule="evenodd" fill-opacity="1" /><path clip-path="url(#clip800)" d="M1648.56 1521.62 L1654.76 1521.62 L1654.76 1500.19 L1648.01 1501.55 L1648.01 1498.09 L1654.73 1496.73 L1658.52 1496.73 L1658.52 1521.62 L1664.73 1521.62 L1664.73 1524.81 L1648.56 1524.81 L1648.56 1521.62 Z" fill="#000000" fill-rule="evenodd" fill-opacity="1" /><polyline clip-path="url(#clip803)" style="stroke:#000000; stroke-linecap:butt; stroke-linejoin:round; stroke-width:2; stroke-opacity:0.1; fill:none" points="
  188.292,1463.4 2352.76,1463.4 
  "/>
<polyline clip-path="url(#clip803)" style="stroke:#000000; stroke-linecap:butt; stroke-linejoin:round; stroke-width:2; stroke-opacity:0.1; fill:none" points="
  188.292,656.371 2352.76,656.371 
  "/>
<polyline clip-path="url(#clip800)" style="stroke:#000000; stroke-linecap:butt; stroke-linejoin:round; stroke-width:4; stroke-opacity:1; fill:none" points="
  188.292,1474.16 188.292,47.2441 
  "/>
<polyline clip-path="url(#clip800)" style="stroke:#000000; stroke-linecap:butt; stroke-linejoin:round; stroke-width:4; stroke-opacity:1; fill:none" points="
  188.292,1463.4 207.19,1463.4 
  "/>
<polyline clip-path="url(#clip800)" style="stroke:#000000; stroke-linecap:butt; stroke-linejoin:round; stroke-width:4; stroke-opacity:1; fill:none" points="
  188.292,656.371 207.19,656.371 
  "/>
<path clip-path="url(#clip800)" d="M51.6634 1483.19 L59.3023 1483.19 L59.3023 1456.83 L50.9921 1458.49 L50.9921 1454.24 L59.256 1452.57 L63.9319 1452.57 L63.9319 1483.19 L71.5707 1483.19 L71.5707 1487.13 L51.6634 1487.13 L51.6634 1483.19 Z" fill="#000000" fill-rule="evenodd" fill-opacity="1" /><path clip-path="url(#clip800)" d="M91.0151 1455.65 Q87.404 1455.65 85.5753 1459.21 Q83.7697 1462.75 83.7697 1469.88 Q83.7697 1476.99 85.5753 1480.55 Q87.404 1484.1 91.0151 1484.1 Q94.6493 1484.1 96.4548 1480.55 Q98.2835 1476.99 98.2835 1469.88 Q98.2835 1462.75 96.4548 1459.21 Q94.6493 1455.65 91.0151 1455.65 M91.0151 1451.94 Q96.8252 1451.94 99.8808 1456.55 Q102.959 1461.13 102.959 1469.88 Q102.959 1478.61 99.8808 1483.22 Q96.8252 1487.8 91.0151 1487.8 Q85.2049 1487.8 82.1262 1483.22 Q79.0707 1478.61 79.0707 1469.88 Q79.0707 1461.13 82.1262 1456.55 Q85.2049 1451.94 91.0151 1451.94 Z" fill="#000000" fill-rule="evenodd" fill-opacity="1" /><path clip-path="url(#clip800)" d="M102.959 1446.05 L127.071 1446.05 L127.071 1449.24 L102.959 1449.24 L102.959 1446.05 Z" fill="#000000" fill-rule="evenodd" fill-opacity="1" /><path clip-path="url(#clip800)" d="M135.309 1431.64 L150.223 1431.64 L150.223 1434.84 L138.788 1434.84 L138.788 1441.72 Q139.616 1441.44 140.443 1441.31 Q141.271 1441.16 142.098 1441.16 Q146.8 1441.16 149.546 1443.73 Q152.292 1446.31 152.292 1450.71 Q152.292 1455.24 149.471 1457.76 Q146.65 1460.26 141.515 1460.26 Q139.747 1460.26 137.904 1459.96 Q136.08 1459.66 134.124 1459.06 L134.124 1455.24 Q135.817 1456.16 137.622 1456.62 Q139.428 1457.07 141.44 1457.07 Q144.694 1457.07 146.593 1455.36 Q148.493 1453.64 148.493 1450.71 Q148.493 1447.78 146.593 1446.06 Q144.694 1444.35 141.44 1444.35 Q139.917 1444.35 138.393 1444.69 Q136.889 1445.03 135.309 1445.74 L135.309 1431.64 Z" fill="#000000" fill-rule="evenodd" fill-opacity="1" /><path clip-path="url(#clip800)" d="M81.5866 676.164 L89.2254 676.164 L89.2254 649.798 L80.9153 651.465 L80.9153 647.205 L89.1791 645.539 L93.855 645.539 L93.855 676.164 L101.494 676.164 L101.494 680.099 L81.5866 680.099 L81.5866 676.164 Z" fill="#000000" fill-rule="evenodd" fill-opacity="1" /><path clip-path="url(#clip800)" d="M120.938 648.617 Q117.327 648.617 115.498 652.182 Q113.693 655.724 113.693 662.853 Q113.693 669.96 115.498 673.525 Q117.327 677.066 120.938 677.066 Q124.572 677.066 126.378 673.525 Q128.207 669.96 128.207 662.853 Q128.207 655.724 126.378 652.182 Q124.572 648.617 120.938 648.617 M120.938 644.914 Q126.748 644.914 129.804 649.52 Q132.883 654.103 132.883 662.853 Q132.883 671.58 129.804 676.187 Q126.748 680.77 120.938 680.77 Q115.128 680.77 112.049 676.187 Q108.994 671.58 108.994 662.853 Q108.994 654.103 112.049 649.52 Q115.128 644.914 120.938 644.914 Z" fill="#000000" fill-rule="evenodd" fill-opacity="1" /><path clip-path="url(#clip800)" d="M142.587 627.11 Q139.653 627.11 138.168 630.006 Q136.701 632.884 136.701 638.677 Q136.701 644.45 138.168 647.347 Q139.653 650.224 142.587 650.224 Q145.54 650.224 147.007 647.347 Q148.493 644.45 148.493 638.677 Q148.493 632.884 147.007 630.006 Q145.54 627.11 142.587 627.11 M142.587 624.1 Q147.308 624.1 149.791 627.843 Q152.292 631.567 152.292 638.677 Q152.292 645.767 149.791 649.51 Q147.308 653.234 142.587 653.234 Q137.867 653.234 135.365 649.51 Q132.883 645.767 132.883 638.677 Q132.883 631.567 135.365 627.843 Q137.867 624.1 142.587 624.1 Z" fill="#000000" fill-rule="evenodd" fill-opacity="1" /><polyline clip-path="url(#clip803)" style="stroke:#009af9; stroke-linecap:butt; stroke-linejoin:round; stroke-width:12; stroke-opacity:1; fill:none" points="
  2291.5,87.6286 1999.79,330.718 1708.08,1015.62 1416.38,1064.86 1124.67,1113.8 832.964,1162.57 541.257,1211.24 249.551,1259.88 
  "/>
<circle clip-path="url(#clip803)" cx="2291.5" cy="87.6286" r="14.4" fill="#009af9" fill-rule="evenodd" fill-opacity="1" stroke="#000000" stroke-opacity="1" stroke-width="3.2"/>
<circle clip-path="url(#clip803)" cx="1999.79" cy="330.718" r="14.4" fill="#009af9" fill-rule="evenodd" fill-opacity="1" stroke="#000000" stroke-opacity="1" stroke-width="3.2"/>
<circle clip-path="url(#clip803)" cx="1708.08" cy="1015.62" r="14.4" fill="#009af9" fill-rule="evenodd" fill-opacity="1" stroke="#000000" stroke-opacity="1" stroke-width="3.2"/>
<circle clip-path="url(#clip803)" cx="1416.38" cy="1064.86" r="14.4" fill="#009af9" fill-rule="evenodd" fill-opacity="1" stroke="#000000" stroke-opacity="1" stroke-width="3.2"/>
<circle clip-path="url(#clip803)" cx="1124.67" cy="1113.8" r="14.4" fill="#009af9" fill-rule="evenodd" fill-opacity="1" stroke="#000000" stroke-opacity="1" stroke-width="3.2"/>
<circle clip-path="url(#clip803)" cx="832.964" cy="1162.57" r="14.4" fill="#009af9" fill-rule="evenodd" fill-opacity="1" stroke="#000000" stroke-opacity="1" stroke-width="3.2"/>
<circle clip-path="url(#clip803)" cx="541.257" cy="1211.24" r="14.4" fill="#009af9" fill-rule="evenodd" fill-opacity="1" stroke="#000000" stroke-opacity="1" stroke-width="3.2"/>
<circle clip-path="url(#clip803)" cx="249.551" cy="1259.88" r="14.4" fill="#009af9" fill-rule="evenodd" fill-opacity="1" stroke="#000000" stroke-opacity="1" stroke-width="3.2"/>
<polyline clip-path="url(#clip803)" style="stroke:#e26f46; stroke-linecap:butt; stroke-linejoin:round; stroke-width:12; stroke-opacity:1; fill:none" points="
  2291.5,704.959 1999.79,753.547 1708.08,802.135 1416.38,850.723 1124.67,899.311 832.964,947.899 541.257,996.488 249.551,1045.08 
  "/>
<polyline clip-path="url(#clip803)" style="stroke:#3da44d; stroke-linecap:butt; stroke-linejoin:round; stroke-width:12; stroke-opacity:1; fill:none" points="
  2291.5,753.547 1999.79,850.723 1708.08,947.899 1416.38,1045.08 1124.67,1142.25 832.964,1239.43 541.257,1336.6 249.551,1433.78 
  "/>
<path clip-path="url(#clip800)" d="
M260.441 302.168 L553.367 302.168 L553.367 94.8081 L260.441 94.8081  Z
  " fill="#ffffff" fill-rule="evenodd" fill-opacity="1"/>
<polyline clip-path="url(#clip800)" style="stroke:#000000; stroke-linecap:butt; stroke-linejoin:round; stroke-width:4; stroke-opacity:1; fill:none" points="
  260.441,302.168 553.367,302.168 553.367,94.8081 260.441,94.8081 260.441,302.168 
  "/>
<polyline clip-path="url(#clip800)" style="stroke:#009af9; stroke-linecap:butt; stroke-linejoin:round; stroke-width:4; stroke-opacity:1; fill:none" points="
  284.491,146.648 428.788,146.648 
  "/>
<circle clip-path="url(#clip800)" cx="356.639" cy="146.648" r="23.04" fill="#009af9" fill-rule="evenodd" fill-opacity="1" stroke="#000000" stroke-opacity="1" stroke-width="5.12"/>
<path clip-path="url(#clip800)" d="M466.68 166.336 Q464.875 170.965 463.162 172.377 Q461.449 173.789 458.578 173.789 L455.176 173.789 L455.176 170.224 L457.676 170.224 Q459.435 170.224 460.407 169.391 Q461.379 168.558 462.56 165.456 L463.324 163.511 L452.838 138.002 L457.352 138.002 L465.453 158.28 L473.555 138.002 L478.069 138.002 L466.68 166.336 Z" fill="#000000" fill-rule="evenodd" fill-opacity="1" /><path clip-path="url(#clip800)" d="M485.361 159.993 L493 159.993 L493 133.627 L484.689 135.294 L484.689 131.035 L492.953 129.368 L497.629 129.368 L497.629 159.993 L505.268 159.993 L505.268 163.928 L485.361 163.928 L485.361 159.993 Z" fill="#000000" fill-rule="evenodd" fill-opacity="1" /><polyline clip-path="url(#clip800)" style="stroke:#e26f46; stroke-linecap:butt; stroke-linejoin:round; stroke-width:4; stroke-opacity:1; fill:none" points="
  284.491,198.488 428.788,198.488 
  "/>
<path clip-path="url(#clip800)" d="M476.377 207.836 Q476.377 208.024 476.167 208.75 Q475.956 209.476 475.44 210.6 Q474.949 211.724 474.269 212.755 Q473.59 213.762 472.466 214.512 Q471.365 215.238 470.1 215.238 Q468.414 215.238 467.289 214.113 Q466.165 212.989 466.165 211.303 Q466.165 211.069 466.189 210.834 Q466.212 210.6 466.235 210.46 Q466.259 210.296 466.329 210.038 Q466.423 209.757 466.446 209.64 Q466.493 209.523 466.61 209.171 Q466.751 208.797 466.798 208.656 Q469.772 201.067 469.772 197.905 Q469.772 194.556 467.172 194.556 Q464.853 194.556 462.558 196.242 Q461.504 197.085 460.497 198.584 Q459.49 200.083 459.302 200.646 Q459.092 201.864 458.787 202.8 Q458.647 203.456 457.967 206.009 L456.913 210.342 L456 213.973 Q455.812 214.488 455.297 214.863 Q454.782 215.238 454.22 215.238 Q453.751 215.238 453.283 214.91 Q452.838 214.605 452.838 213.879 Q452.838 213.505 453.025 212.825 L459.982 185.187 L460.122 184.25 Q460.122 183.969 460.005 183.828 Q459.911 183.664 459.349 183.547 Q458.811 183.43 457.733 183.43 Q457.288 183.43 457.077 183.407 Q456.89 183.383 456.726 183.266 Q456.562 183.126 456.562 182.845 Q456.562 182.446 456.726 182.236 Q456.913 182.001 457.054 181.954 Q457.194 181.908 457.475 181.884 Q457.874 181.861 459.209 181.744 Q460.544 181.603 461.691 181.509 Q462.839 181.416 463.331 181.416 Q463.612 181.416 463.753 181.556 Q463.917 181.673 463.94 181.814 L463.963 181.931 L460.216 197.179 Q463.191 193.502 467.313 193.502 Q469.983 193.502 471.412 194.884 Q472.841 196.242 472.841 198.631 Q472.841 201.372 469.913 209.171 Q469.046 211.35 469.046 212.591 Q469.046 213.411 469.304 213.786 Q469.585 214.16 470.194 214.16 Q471.131 214.16 471.95 213.622 Q472.794 213.059 473.379 212.146 Q473.965 211.209 474.363 210.272 Q474.785 209.312 475.089 208.234 Q475.276 207.649 475.37 207.508 Q475.487 207.368 475.815 207.368 Q476.377 207.368 476.377 207.836 Z" fill="#000000" fill-rule="evenodd" fill-opacity="1" /><polyline clip-path="url(#clip800)" style="stroke:#3da44d; stroke-linecap:butt; stroke-linejoin:round; stroke-width:4; stroke-opacity:1; fill:none" points="
  284.491,250.328 428.788,250.328 
  "/>
<path clip-path="url(#clip800)" d="M476.377 267.428 Q476.377 267.616 476.167 268.342 Q475.956 269.068 475.44 270.192 Q474.949 271.316 474.269 272.347 Q473.59 273.354 472.466 274.104 Q471.365 274.83 470.1 274.83 Q468.414 274.83 467.289 273.705 Q466.165 272.581 466.165 270.895 Q466.165 270.661 466.189 270.426 Q466.212 270.192 466.235 270.052 Q466.259 269.888 466.329 269.63 Q466.423 269.349 466.446 269.232 Q466.493 269.115 466.61 268.763 Q466.751 268.389 466.798 268.248 Q469.772 260.659 469.772 257.497 Q469.772 254.148 467.172 254.148 Q464.853 254.148 462.558 255.834 Q461.504 256.677 460.497 258.176 Q459.49 259.675 459.302 260.238 Q459.092 261.456 458.787 262.392 Q458.647 263.048 457.967 265.601 L456.913 269.934 L456 273.565 Q455.812 274.08 455.297 274.455 Q454.782 274.83 454.22 274.83 Q453.751 274.83 453.283 274.502 Q452.838 274.197 452.838 273.471 Q452.838 273.096 453.025 272.417 L459.982 244.779 L460.122 243.842 Q460.122 243.561 460.005 243.42 Q459.911 243.256 459.349 243.139 Q458.811 243.022 457.733 243.022 Q457.288 243.022 457.077 242.999 Q456.89 242.975 456.726 242.858 Q456.562 242.718 456.562 242.436 Q456.562 242.038 456.726 241.827 Q456.913 241.593 457.054 241.546 Q457.194 241.5 457.475 241.476 Q457.874 241.453 459.209 241.336 Q460.544 241.195 461.691 241.101 Q462.839 241.008 463.331 241.008 Q463.612 241.008 463.753 241.148 Q463.917 241.265 463.94 241.406 L463.963 241.523 L460.216 256.771 Q463.191 253.094 467.313 253.094 Q469.983 253.094 471.412 254.476 Q472.841 255.834 472.841 258.223 Q472.841 260.964 469.913 268.763 Q469.046 270.942 469.046 272.183 Q469.046 273.003 469.304 273.378 Q469.585 273.752 470.194 273.752 Q471.131 273.752 471.95 273.214 Q472.794 272.651 473.379 271.738 Q473.965 270.801 474.363 269.864 Q474.785 268.904 475.089 267.826 Q475.276 267.241 475.37 267.1 Q475.487 266.96 475.815 266.96 Q476.377 266.96 476.377 267.428 Z" fill="#000000" fill-rule="evenodd" fill-opacity="1" /><path clip-path="url(#clip800)" d="M481.255 247.982 Q481.255 247.376 481.304 247.195 Q481.369 247.015 481.632 246.736 L488.075 239.555 Q491.6 235.587 491.6 232.128 Q491.6 229.882 490.42 228.275 Q489.256 226.668 487.108 226.668 Q485.632 226.668 484.386 227.57 Q483.14 228.472 482.566 230.078 Q482.665 230.046 483.009 230.046 Q483.845 230.046 484.304 230.57 Q484.78 231.095 484.78 231.8 Q484.78 232.702 484.189 233.144 Q483.616 233.571 483.042 233.571 Q482.812 233.571 482.501 233.521 Q482.206 233.472 481.73 233.013 Q481.255 232.538 481.255 231.701 Q481.255 229.357 483.025 227.488 Q484.813 225.619 487.534 225.619 Q490.617 225.619 492.633 227.455 Q494.666 229.275 494.666 232.128 Q494.666 233.128 494.355 234.046 Q494.06 234.948 493.65 235.653 Q493.256 236.358 492.174 237.489 Q491.092 238.62 490.223 239.424 Q489.354 240.227 487.403 241.932 L483.845 245.392 L489.895 245.392 Q492.846 245.392 493.076 245.13 Q493.404 244.654 493.814 242.146 L494.666 242.146 L493.715 247.982 L481.255 247.982 Z" fill="#000000" fill-rule="evenodd" fill-opacity="1" /></svg>
