<?xml version="1.0" encoding="utf-8"?>
<svg xmlns="http://www.w3.org/2000/svg" xmlns:xlink="http://www.w3.org/1999/xlink" width="600" height="400" viewBox="0 0 2400 1600">
<defs>
  <clipPath id="clip330">
    <rect x="0" y="0" width="2400" height="1600"/>
  </clipPath>
</defs>
<path clip-path="url(#clip330)" d="
M0 1600 L2400 1600 L2400 0 L0 0  Z
  " fill="#ffffff" fill-rule="evenodd" fill-opacity="1"/>
<defs>
  <clipPath id="clip331">
    <rect x="480" y="0" width="1681" height="1600"/>
  </clipPath>
</defs>
<path clip-path="url(#clip330)" d="
M186.274 1486.45 L2352.76 1486.45 L2352.76 123.472 L186.274 123.472  Z
  " fill="#ffffff" fill-rule="evenodd" fill-opacity="1"/>
<defs>
  <clipPath id="clip332">
    <rect x="186" y="123" width="2167" height="1364"/>
  </clipPath>
</defs>
<polyline clip-path="url(#clip332)" style="stroke:#000000; stroke-linecap:butt; stroke-linejoin:round; stroke-width:2; stroke-opacity:0.1; fill:none" points="
  237.319,1486.45 237.319,123.472 
  "/>
<polyline clip-path="url(#clip332)" style="stroke:#000000; stroke-linecap:butt; stroke-linejoin:round; stroke-width:2; stroke-opacity:0.1; fill:none" points="
  750.849,1486.45 750.849,123.472 
  "/>
<polyline clip-path="url(#clip332)" style="stroke:#000000; stroke-linecap:butt; stroke-linejoin:round; stroke-width:2; stroke-opacity:0.1; fill:none" points="
  1264.38,1486.45 1264.38,123.472 
  "/>
<polyline clip-path="url(#clip332)" style="stroke:#000000; stroke-linecap:butt; stroke-linejoin:round; stroke-width:2; stroke-opacity:0.1; fill:none" points="
  1777.91,1486.45 1777.91,123.472 
  "/>
<polyline clip-path="url(#clip332)" style="stroke:#000000; stroke-linecap:butt; stroke-linejoin:round; stroke-width:2; stroke-opacity:0.1; fill:none" points="
  2291.44,1486.45 2291.44,123.472 
  "/>
<polyline clip-path="url(#clip330)" style="stroke:#000000; stroke-linecap:butt; stroke-linejoin:round; stroke-width:4; stroke-opacity:1; fill:none" points="
  186.274,1486.45 2352.76,1486.45 
  "/>
<polyline clip-path="url(#clip330)" style="stroke:#000000; stroke-linecap:butt; stroke-linejoin:round; stroke-width:4; stroke-opacity:1; fill:none" points="
  237.319,1486.45 237.319,1467.55 
  "/>
<polyline clip-path="url(#clip330)" style="stroke:#000000; stroke-linecap:butt; stroke-linejoin:round; stroke-width:4; stroke-opacity:1; fill:none" points="
  750.849,1486.45 750.849,1467.55 
  "/>
<polyline clip-path="url(#clip330)" style="stroke:#000000; stroke-linecap:butt; stroke-linejoin:round; stroke-width:4; stroke-opacity:1; fill:none" points="
  1264.38,1486.45 1264.38,1467.55 
  "/>
<polyline clip-path="url(#clip330)" style="stroke:#000000; stroke-linecap:butt; stroke-linejoin:round; stroke-width:4; stroke-opacity:1; fill:none" points="
  1777.91,1486.45 1777.91,1467.55 
  "/>
<polyline clip-path="url(#clip330)" style="stroke:#000000; stroke-linecap:butt; stroke-linejoin:round; stroke-width:4; stroke-opacity:1; fill:none" points="
  2291.44,1486.45 2291.44,1467.55 
  "/>
<path clip-path="url(#clip330)" d="M237.319 1517.37 Q233.708 1517.37 231.879 1520.93 Q230.074 1524.47 230.074 1531.6 Q230.074 1538.71 231.879 1542.27 Q233.708 1545.82 237.319 1545.82 Q240.953 1545.82 242.759 1542.27 Q244.587 1538.71 244.587 1531.6 Q244.587 1524.47 242.759 1520.93 Q240.953 1517.37 237.319 1517.37 M237.319 1513.66 Q243.129 1513.66 246.185 1518.27 Q249.263 1522.85 249.263 1531.6 Q249.263 1540.33 246.185 1544.94 Q243.129 1549.52 237.319 1549.52 Q231.509 1549.52 228.43 1544.94 Q225.375 1540.33 225.375 1531.6 Q225.375 1522.85 228.43 1518.27 Q231.509 1513.66 237.319 1513.66 Z" fill="#000000" fill-rule="evenodd" fill-opacity="1" /><path clip-path="url(#clip330)" d="M725.548 1514.29 L743.905 1514.29 L743.905 1518.22 L729.831 1518.22 L729.831 1526.7 Q730.849 1526.35 731.868 1526.19 Q732.886 1526 733.905 1526 Q739.692 1526 743.072 1529.17 Q746.451 1532.34 746.451 1537.76 Q746.451 1543.34 742.979 1546.44 Q739.507 1549.52 733.187 1549.52 Q731.011 1549.52 728.743 1549.15 Q726.498 1548.78 724.09 1548.04 L724.09 1543.34 Q726.173 1544.47 728.396 1545.03 Q730.618 1545.58 733.095 1545.58 Q737.099 1545.58 739.437 1543.48 Q741.775 1541.37 741.775 1537.76 Q741.775 1534.15 739.437 1532.04 Q737.099 1529.94 733.095 1529.94 Q731.22 1529.94 729.345 1530.35 Q727.493 1530.77 725.548 1531.65 L725.548 1514.29 Z" fill="#000000" fill-rule="evenodd" fill-opacity="1" /><path clip-path="url(#clip330)" d="M765.664 1517.37 Q762.053 1517.37 760.224 1520.93 Q758.419 1524.47 758.419 1531.6 Q758.419 1538.71 760.224 1542.27 Q762.053 1545.82 765.664 1545.82 Q769.298 1545.82 771.104 1542.27 Q772.932 1538.71 772.932 1531.6 Q772.932 1524.47 771.104 1520.93 Q769.298 1517.37 765.664 1517.37 M765.664 1513.66 Q771.474 1513.66 774.53 1518.27 Q777.608 1522.85 777.608 1531.6 Q777.608 1540.33 774.53 1544.94 Q771.474 1549.52 765.664 1549.52 Q759.854 1549.52 756.775 1544.94 Q753.72 1540.33 753.72 1531.6 Q753.72 1522.85 756.775 1518.27 Q759.854 1513.66 765.664 1513.66 Z" fill="#000000" fill-rule="evenodd" fill-opacity="1" /><path clip-path="url(#clip330)" d="M1223.99 1544.91 L1231.63 1544.91 L1231.63 1518.55 L1223.32 1520.21 L1223.32 1515.95 L1231.58 1514.29 L1236.25 1514.29 L1236.25 1544.91 L1243.89 1544.91 L1243.89 1548.85 L1223.99 1548.85 L1223.99 1544.91 Z" fill="#000000" fill-rule="evenodd" fill-opacity="1" /><path clip-path="url(#clip330)" d="M1263.34 1517.37 Q1259.73 1517.37 1257.9 1520.93 Q1256.09 1524.47 1256.09 1531.6 Q1256.09 1538.71 1257.9 1542.27 Q1259.73 1545.82 1263.34 1545.82 Q1266.97 1545.82 1268.78 1542.27 Q1270.61 1538.71 1270.61 1531.6 Q1270.61 1524.47 1268.78 1520.93 Q1266.97 1517.37 1263.34 1517.37 M1263.34 1513.66 Q1269.15 1513.66 1272.2 1518.27 Q1275.28 1522.85 1275.28 1531.6 Q1275.28 1540.33 1272.2 1544.94 Q1269.15 1549.52 1263.34 1549.52 Q1257.53 1549.52 1254.45 1544.94 Q1251.39 1540.33 1251.39 1531.6 Q1251.39 1522.85 1254.45 1518.27 Q1257.53 1513.66 1263.34 1513.66 Z" fill="#000000" fill-rule="evenodd" fill-opacity="1" /><path clip-path="url(#clip330)" d="M1293.5 1517.37 Q1289.89 1517.37 1288.06 1520.93 Q1286.25 1524.47 1286.25 1531.6 Q1286.25 1538.71 1288.06 1542.27 Q1289.89 1545.82 1293.5 1545.82 Q1297.13 1545.82 1298.94 1542.27 Q1300.77 1538.71 1300.77 1531.6 Q1300.77 1524.47 1298.94 1520.93 Q1297.13 1517.37 1293.5 1517.37 M1293.5 1513.66 Q1299.31 1513.66 1302.37 1518.27 Q1305.44 1522.85 1305.44 1531.6 Q1305.44 1540.33 1302.37 1544.94 Q1299.31 1549.52 1293.5 1549.52 Q1287.69 1549.52 1284.61 1544.94 Q1281.56 1540.33 1281.56 1531.6 Q1281.56 1522.85 1284.61 1518.27 Q1287.69 1513.66 1293.5 1513.66 Z" fill="#000000" fill-rule="evenodd" fill-opacity="1" /><path clip-path="url(#clip330)" d="M1737.52 1544.91 L1745.16 1544.91 L1745.16 1518.55 L1736.85 1520.21 L1736.85 1515.95 L1745.11 1514.29 L1749.79 1514.29 L1749.79 1544.91 L1757.42 1544.91 L1757.42 1548.85 L1737.52 1548.85 L1737.52 1544.91 Z" fill="#000000" fill-rule="evenodd" fill-opacity="1" /><path clip-path="url(#clip330)" d="M1766.91 1514.29 L1785.27 1514.29 L1785.27 1518.22 L1771.2 1518.22 L1771.2 1526.7 Q1772.22 1526.35 1773.23 1526.19 Q1774.25 1526 1775.27 1526 Q1781.06 1526 1784.44 1529.17 Q1787.82 1532.34 1787.82 1537.76 Q1787.82 1543.34 1784.35 1546.44 Q1780.87 1549.52 1774.55 1549.52 Q1772.38 1549.52 1770.11 1549.15 Q1767.86 1548.78 1765.46 1548.04 L1765.46 1543.34 Q1767.54 1544.47 1769.76 1545.03 Q1771.98 1545.58 1774.46 1545.58 Q1778.47 1545.58 1780.8 1543.48 Q1783.14 1541.37 1783.14 1537.76 Q1783.14 1534.15 1780.8 1532.04 Q1778.47 1529.94 1774.46 1529.94 Q1772.59 1529.94 1770.71 1530.35 Q1768.86 1530.77 1766.91 1531.65 L1766.91 1514.29 Z" fill="#000000" fill-rule="evenodd" fill-opacity="1" /><path clip-path="url(#clip330)" d="M1807.03 1517.37 Q1803.42 1517.37 1801.59 1520.93 Q1799.78 1524.47 1799.78 1531.6 Q1799.78 1538.71 1801.59 1542.27 Q1803.42 1545.82 1807.03 1545.82 Q1810.66 1545.82 1812.47 1542.27 Q1814.3 1538.71 1814.3 1531.6 Q1814.3 1524.47 1812.47 1520.93 Q1810.66 1517.37 1807.03 1517.37 M1807.03 1513.66 Q1812.84 1513.66 1815.9 1518.27 Q1818.97 1522.85 1818.97 1531.6 Q1818.97 1540.33 1815.9 1544.94 Q1812.84 1549.52 1807.03 1549.52 Q1801.22 1549.52 1798.14 1544.94 Q1795.09 1540.33 1795.09 1531.6 Q1795.09 1522.85 1798.14 1518.27 Q1801.22 1513.66 1807.03 1513.66 Z" fill="#000000" fill-rule="evenodd" fill-opacity="1" /><path clip-path="url(#clip330)" d="M2255.13 1544.91 L2271.45 1544.91 L2271.45 1548.85 L2249.51 1548.85 L2249.51 1544.91 Q2252.17 1542.16 2256.75 1537.53 Q2261.36 1532.88 2262.54 1531.53 Q2264.79 1529.01 2265.67 1527.27 Q2266.57 1525.51 2266.57 1523.82 Q2266.57 1521.07 2264.62 1519.33 Q2262.7 1517.6 2259.6 1517.6 Q2257.4 1517.6 2254.95 1518.36 Q2252.52 1519.13 2249.74 1520.68 L2249.74 1515.95 Q2252.56 1514.82 2255.02 1514.24 Q2257.47 1513.66 2259.51 1513.66 Q2264.88 1513.66 2268.07 1516.35 Q2271.27 1519.03 2271.27 1523.52 Q2271.27 1525.65 2270.46 1527.57 Q2269.67 1529.47 2267.56 1532.07 Q2266.98 1532.74 2263.88 1535.95 Q2260.78 1539.15 2255.13 1544.91 Z" fill="#000000" fill-rule="evenodd" fill-opacity="1" /><path clip-path="url(#clip330)" d="M2291.27 1517.37 Q2287.66 1517.37 2285.83 1520.93 Q2284.02 1524.47 2284.02 1531.6 Q2284.02 1538.71 2285.83 1542.27 Q2287.66 1545.82 2291.27 1545.82 Q2294.9 1545.82 2296.71 1542.27 Q2298.54 1538.71 2298.54 1531.6 Q2298.54 1524.47 2296.71 1520.93 Q2294.9 1517.37 2291.27 1517.37 M2291.27 1513.66 Q2297.08 1513.66 2300.13 1518.27 Q2303.21 1522.85 2303.21 1531.6 Q2303.21 1540.33 2300.13 1544.94 Q2297.08 1549.52 2291.27 1549.52 Q2285.46 1549.52 2282.38 1544.94 Q2279.32 1540.33 2279.32 1531.6 Q2279.32 1522.85 2282.38 1518.27 Q2285.46 1513.66 2291.27 1513.66 Z" fill="#000000" fill-rule="evenodd" fill-opacity="1" /><path clip-path="url(#clip330)" d="M2321.43 1517.37 Q2317.82 1517.37 2315.99 1520.93 Q2314.18 1524.47 2314.18 1531.6 Q2314.18 1538.71 2315.99 1542.27 Q2317.82 1545.82 2321.43 1545.82 Q2325.06 1545.82 2326.87 1542.27 Q2328.7 1538.71 2328.7 1531.6 Q2328.7 1524.47 2326.87 1520.93 Q2325.06 1517.37 2321.43 1517.37 M2321.43 1513.66 Q2327.24 1513.66 2330.29 1518.27 Q2333.37 1522.85 2333.37 1531.6 Q2333.37 1540.33 2330.29 1544.94 Q2327.24 1549.52 2321.43 1549.52 Q2315.62 1549.52 2312.54 1544.94 Q2309.48 1540.33 2309.48 1531.6 Q2309.48 1522.85 2312.54 1518.27 Q2315.62 1513.66 2321.43 1513.66 Z" fill="#000000" fill-rule="evenodd" fill-opacity="1" /><polyline clip-path="url(#clip332)" style="stroke:#000000; stroke-linecap:butt; stroke-linejoin:round; stroke-width:2; stroke-opacity:0.1; fill:none" points="
  186.274,1447.95 2352.76,1447.95 
  "/>
<polyline clip-path="url(#clip332)" style="stroke:#000000; stroke-linecap:butt; stroke-linejoin:round; stroke-width:2; stroke-opacity:0.1; fill:none" points="
  186.274,1126.47 2352.76,1126.47 
  "/>
<polyline clip-path="url(#clip332)" style="stroke:#000000; stroke-linecap:butt; stroke-linejoin:round; stroke-width:2; stroke-opacity:0.1; fill:none" points="
  186.274,804.99 2352.76,804.99 
  "/>
<polyline clip-path="url(#clip332)" style="stroke:#000000; stroke-linecap:butt; stroke-linejoin:round; stroke-width:2; stroke-opacity:0.1; fill:none" points="
  186.274,483.508 2352.76,483.508 
  "/>
<polyline clip-path="url(#clip332)" style="stroke:#000000; stroke-linecap:butt; stroke-linejoin:round; stroke-width:2; stroke-opacity:0.1; fill:none" points="
  186.274,162.027 2352.76,162.027 
  "/>
<polyline clip-path="url(#clip330)" style="stroke:#000000; stroke-linecap:butt; stroke-linejoin:round; stroke-width:4; stroke-opacity:1; fill:none" points="
  186.274,1486.45 186.274,123.472 
  "/>
<polyline clip-path="url(#clip330)" style="stroke:#000000; stroke-linecap:butt; stroke-linejoin:round; stroke-width:4; stroke-opacity:1; fill:none" points="
  186.274,1447.95 205.172,1447.95 
  "/>
<polyline clip-path="url(#clip330)" style="stroke:#000000; stroke-linecap:butt; stroke-linejoin:round; stroke-width:4; stroke-opacity:1; fill:none" points="
  186.274,1126.47 205.172,1126.47 
  "/>
<polyline clip-path="url(#clip330)" style="stroke:#000000; stroke-linecap:butt; stroke-linejoin:round; stroke-width:4; stroke-opacity:1; fill:none" points="
  186.274,804.99 205.172,804.99 
  "/>
<polyline clip-path="url(#clip330)" style="stroke:#000000; stroke-linecap:butt; stroke-linejoin:round; stroke-width:4; stroke-opacity:1; fill:none" points="
  186.274,483.508 205.172,483.508 
  "/>
<polyline clip-path="url(#clip330)" style="stroke:#000000; stroke-linecap:butt; stroke-linejoin:round; stroke-width:4; stroke-opacity:1; fill:none" points="
  186.274,162.027 205.172,162.027 
  "/>
<path clip-path="url(#clip330)" d="M62.9365 1433.75 Q59.3254 1433.75 57.4967 1437.32 Q55.6912 1440.86 55.6912 1447.99 Q55.6912 1455.09 57.4967 1458.66 Q59.3254 1462.2 62.9365 1462.2 Q66.5707 1462.2 68.3763 1458.66 Q70.205 1455.09 70.205 1447.99 Q70.205 1440.86 68.3763 1437.32 Q66.5707 1433.75 62.9365 1433.75 M62.9365 1430.05 Q68.7467 1430.05 71.8022 1434.65 Q74.8809 1439.24 74.8809 1447.99 Q74.8809 1456.71 71.8022 1461.32 Q68.7467 1465.9 62.9365 1465.9 Q57.1264 1465.9 54.0477 1461.32 Q50.9921 1456.71 50.9921 1447.99 Q50.9921 1439.24 54.0477 1434.65 Q57.1264 1430.05 62.9365 1430.05 Z" fill="#000000" fill-rule="evenodd" fill-opacity="1" /><path clip-path="url(#clip330)" d="M83.0984 1459.35 L87.9827 1459.35 L87.9827 1465.23 L83.0984 1465.23 L83.0984 1459.35 Z" fill="#000000" fill-rule="evenodd" fill-opacity="1" /><path clip-path="url(#clip330)" d="M108.168 1433.75 Q104.557 1433.75 102.728 1437.32 Q100.922 1440.86 100.922 1447.99 Q100.922 1455.09 102.728 1458.66 Q104.557 1462.2 108.168 1462.2 Q111.802 1462.2 113.608 1458.66 Q115.436 1455.09 115.436 1447.99 Q115.436 1440.86 113.608 1437.32 Q111.802 1433.75 108.168 1433.75 M108.168 1430.05 Q113.978 1430.05 117.033 1434.65 Q120.112 1439.24 120.112 1447.99 Q120.112 1456.71 117.033 1461.32 Q113.978 1465.9 108.168 1465.9 Q102.358 1465.9 99.2789 1461.32 Q96.2234 1456.71 96.2234 1447.99 Q96.2234 1439.24 99.2789 1434.65 Q102.358 1430.05 108.168 1430.05 Z" fill="#000000" fill-rule="evenodd" fill-opacity="1" /><path clip-path="url(#clip330)" d="M138.33 1433.75 Q134.719 1433.75 132.89 1437.32 Q131.084 1440.86 131.084 1447.99 Q131.084 1455.09 132.89 1458.66 Q134.719 1462.2 138.33 1462.2 Q141.964 1462.2 143.769 1458.66 Q145.598 1455.09 145.598 1447.99 Q145.598 1440.86 143.769 1437.32 Q141.964 1433.75 138.33 1433.75 M138.33 1430.05 Q144.14 1430.05 147.195 1434.65 Q150.274 1439.24 150.274 1447.99 Q150.274 1456.71 147.195 1461.32 Q144.14 1465.9 138.33 1465.9 Q132.519 1465.9 129.441 1461.32 Q126.385 1456.71 126.385 1447.99 Q126.385 1439.24 129.441 1434.65 Q132.519 1430.05 138.33 1430.05 Z" fill="#000000" fill-rule="evenodd" fill-opacity="1" /><path clip-path="url(#clip330)" d="M63.9319 1112.27 Q60.3208 1112.27 58.4921 1115.83 Q56.6865 1119.38 56.6865 1126.51 Q56.6865 1133.61 58.4921 1137.18 Q60.3208 1140.72 63.9319 1140.72 Q67.5661 1140.72 69.3717 1137.18 Q71.2004 1133.61 71.2004 1126.51 Q71.2004 1119.38 69.3717 1115.83 Q67.5661 1112.27 63.9319 1112.27 M63.9319 1108.57 Q69.742 1108.57 72.7976 1113.17 Q75.8763 1117.76 75.8763 1126.51 Q75.8763 1135.23 72.7976 1139.84 Q69.742 1144.42 63.9319 1144.42 Q58.1217 1144.42 55.043 1139.84 Q51.9875 1135.23 51.9875 1126.51 Q51.9875 1117.76 55.043 1113.17 Q58.1217 1108.57 63.9319 1108.57 Z" fill="#000000" fill-rule="evenodd" fill-opacity="1" /><path clip-path="url(#clip330)" d="M84.0938 1137.87 L88.978 1137.87 L88.978 1143.75 L84.0938 1143.75 L84.0938 1137.87 Z" fill="#000000" fill-rule="evenodd" fill-opacity="1" /><path clip-path="url(#clip330)" d="M103.191 1139.82 L119.51 1139.82 L119.51 1143.75 L97.566 1143.75 L97.566 1139.82 Q100.228 1137.06 104.811 1132.43 Q109.418 1127.78 110.598 1126.44 Q112.844 1123.91 113.723 1122.18 Q114.626 1120.42 114.626 1118.73 Q114.626 1115.97 112.682 1114.24 Q110.76 1112.5 107.658 1112.5 Q105.459 1112.5 103.006 1113.26 Q100.575 1114.03 97.7974 1115.58 L97.7974 1110.86 Q100.621 1109.72 103.075 1109.14 Q105.529 1108.57 107.566 1108.57 Q112.936 1108.57 116.131 1111.25 Q119.325 1113.94 119.325 1118.43 Q119.325 1120.56 118.515 1122.48 Q117.728 1124.38 115.621 1126.97 Q115.043 1127.64 111.941 1130.86 Q108.839 1134.05 103.191 1139.82 Z" fill="#000000" fill-rule="evenodd" fill-opacity="1" /><path clip-path="url(#clip330)" d="M129.371 1109.19 L147.728 1109.19 L147.728 1113.13 L133.654 1113.13 L133.654 1121.6 Q134.672 1121.25 135.691 1121.09 Q136.709 1120.9 137.728 1120.9 Q143.515 1120.9 146.894 1124.07 Q150.274 1127.25 150.274 1132.66 Q150.274 1138.24 146.802 1141.34 Q143.33 1144.42 137.01 1144.42 Q134.834 1144.42 132.566 1144.05 Q130.32 1143.68 127.913 1142.94 L127.913 1138.24 Q129.996 1139.38 132.219 1139.93 Q134.441 1140.49 136.918 1140.49 Q140.922 1140.49 143.26 1138.38 Q145.598 1136.27 145.598 1132.66 Q145.598 1129.05 143.26 1126.95 Q140.922 1124.84 136.918 1124.84 Q135.043 1124.84 133.168 1125.26 Q131.316 1125.67 129.371 1126.55 L129.371 1109.19 Z" fill="#000000" fill-rule="evenodd" fill-opacity="1" /><path clip-path="url(#clip330)" d="M62.9365 790.788 Q59.3254 790.788 57.4967 794.353 Q55.6912 797.895 55.6912 805.024 Q55.6912 812.131 57.4967 815.696 Q59.3254 819.237 62.9365 819.237 Q66.5707 819.237 68.3763 815.696 Q70.205 812.131 70.205 805.024 Q70.205 797.895 68.3763 794.353 Q66.5707 790.788 62.9365 790.788 M62.9365 787.085 Q68.7467 787.085 71.8022 791.691 Q74.8809 796.274 74.8809 805.024 Q74.8809 813.751 71.8022 818.358 Q68.7467 822.941 62.9365 822.941 Q57.1264 822.941 54.0477 818.358 Q50.9921 813.751 50.9921 805.024 Q50.9921 796.274 54.0477 791.691 Q57.1264 787.085 62.9365 787.085 Z" fill="#000000" fill-rule="evenodd" fill-opacity="1" /><path clip-path="url(#clip330)" d="M83.0984 816.39 L87.9827 816.39 L87.9827 822.27 L83.0984 822.27 L83.0984 816.39 Z" fill="#000000" fill-rule="evenodd" fill-opacity="1" /><path clip-path="url(#clip330)" d="M98.2141 787.71 L116.57 787.71 L116.57 791.645 L102.496 791.645 L102.496 800.117 Q103.515 799.77 104.534 799.608 Q105.552 799.422 106.571 799.422 Q112.358 799.422 115.737 802.594 Q119.117 805.765 119.117 811.182 Q119.117 816.76 115.645 819.862 Q112.172 822.941 105.853 822.941 Q103.677 822.941 101.409 822.571 Q99.1632 822.2 96.7558 821.459 L96.7558 816.76 Q98.8391 817.895 101.061 818.45 Q103.284 819.006 105.76 819.006 Q109.765 819.006 112.103 816.899 Q114.441 814.793 114.441 811.182 Q114.441 807.571 112.103 805.464 Q109.765 803.358 105.76 803.358 Q103.885 803.358 102.01 803.774 Q100.159 804.191 98.2141 805.071 L98.2141 787.71 Z" fill="#000000" fill-rule="evenodd" fill-opacity="1" /><path clip-path="url(#clip330)" d="M138.33 790.788 Q134.719 790.788 132.89 794.353 Q131.084 797.895 131.084 805.024 Q131.084 812.131 132.89 815.696 Q134.719 819.237 138.33 819.237 Q141.964 819.237 143.769 815.696 Q145.598 812.131 145.598 805.024 Q145.598 797.895 143.769 794.353 Q141.964 790.788 138.33 790.788 M138.33 787.085 Q144.14 787.085 147.195 791.691 Q150.274 796.274 150.274 805.024 Q150.274 813.751 147.195 818.358 Q144.14 822.941 138.33 822.941 Q132.519 822.941 129.441 818.358 Q126.385 813.751 126.385 805.024 Q126.385 796.274 129.441 791.691 Q132.519 787.085 138.33 787.085 Z" fill="#000000" fill-rule="evenodd" fill-opacity="1" /><path clip-path="url(#clip330)" d="M63.9319 469.307 Q60.3208 469.307 58.4921 472.872 Q56.6865 476.414 56.6865 483.543 Q56.6865 490.65 58.4921 494.214 Q60.3208 497.756 63.9319 497.756 Q67.5661 497.756 69.3717 494.214 Q71.2004 490.65 71.2004 483.543 Q71.2004 476.414 69.3717 472.872 Q67.5661 469.307 63.9319 469.307 M63.9319 465.603 Q69.742 465.603 72.7976 470.21 Q75.8763 474.793 75.8763 483.543 Q75.8763 492.27 72.7976 496.876 Q69.742 501.46 63.9319 501.46 Q58.1217 501.46 55.043 496.876 Q51.9875 492.27 51.9875 483.543 Q51.9875 474.793 55.043 470.21 Q58.1217 465.603 63.9319 465.603 Z" fill="#000000" fill-rule="evenodd" fill-opacity="1" /><path clip-path="url(#clip330)" d="M84.0938 494.909 L88.978 494.909 L88.978 500.788 L84.0938 500.788 L84.0938 494.909 Z" fill="#000000" fill-rule="evenodd" fill-opacity="1" /><path clip-path="url(#clip330)" d="M97.9826 466.228 L120.205 466.228 L120.205 468.219 L107.658 500.788 L102.774 500.788 L114.58 470.164 L97.9826 470.164 L97.9826 466.228 Z" fill="#000000" fill-rule="evenodd" fill-opacity="1" /><path clip-path="url(#clip330)" d="M129.371 466.228 L147.728 466.228 L147.728 470.164 L133.654 470.164 L133.654 478.636 Q134.672 478.289 135.691 478.126 Q136.709 477.941 137.728 477.941 Q143.515 477.941 146.894 481.113 Q150.274 484.284 150.274 489.7 Q150.274 495.279 146.802 498.381 Q143.33 501.46 137.01 501.46 Q134.834 501.46 132.566 501.089 Q130.32 500.719 127.913 499.978 L127.913 495.279 Q129.996 496.413 132.219 496.969 Q134.441 497.525 136.918 497.525 Q140.922 497.525 143.26 495.418 Q145.598 493.312 145.598 489.7 Q145.598 486.089 143.26 483.983 Q140.922 481.876 136.918 481.876 Q135.043 481.876 133.168 482.293 Q131.316 482.71 129.371 483.589 L129.371 466.228 Z" fill="#000000" fill-rule="evenodd" fill-opacity="1" /><path clip-path="url(#clip330)" d="M53.7467 175.372 L61.3856 175.372 L61.3856 149.006 L53.0754 150.673 L53.0754 146.414 L61.3393 144.747 L66.0152 144.747 L66.0152 175.372 L73.654 175.372 L73.654 179.307 L53.7467 179.307 L53.7467 175.372 Z" fill="#000000" fill-rule="evenodd" fill-opacity="1" /><path clip-path="url(#clip330)" d="M83.0984 173.428 L87.9827 173.428 L87.9827 179.307 L83.0984 179.307 L83.0984 173.428 Z" fill="#000000" fill-rule="evenodd" fill-opacity="1" /><path clip-path="url(#clip330)" d="M108.168 147.826 Q104.557 147.826 102.728 151.391 Q100.922 154.932 100.922 162.062 Q100.922 169.168 102.728 172.733 Q104.557 176.275 108.168 176.275 Q111.802 176.275 113.608 172.733 Q115.436 169.168 115.436 162.062 Q115.436 154.932 113.608 151.391 Q111.802 147.826 108.168 147.826 M108.168 144.122 Q113.978 144.122 117.033 148.729 Q120.112 153.312 120.112 162.062 Q120.112 170.789 117.033 175.395 Q113.978 179.978 108.168 179.978 Q102.358 179.978 99.2789 175.395 Q96.2234 170.789 96.2234 162.062 Q96.2234 153.312 99.2789 148.729 Q102.358 144.122 108.168 144.122 Z" fill="#000000" fill-rule="evenodd" fill-opacity="1" /><path clip-path="url(#clip330)" d="M138.33 147.826 Q134.719 147.826 132.89 151.391 Q131.084 154.932 131.084 162.062 Q131.084 169.168 132.89 172.733 Q134.719 176.275 138.33 176.275 Q141.964 176.275 143.769 172.733 Q145.598 169.168 145.598 162.062 Q145.598 154.932 143.769 151.391 Q141.964 147.826 138.33 147.826 M138.33 144.122 Q144.14 144.122 147.195 148.729 Q150.274 153.312 150.274 162.062 Q150.274 170.789 147.195 175.395 Q144.14 179.978 138.33 179.978 Q132.519 179.978 129.441 175.395 Q126.385 170.789 126.385 162.062 Q126.385 153.312 129.441 148.729 Q132.519 144.122 138.33 144.122 Z" fill="#000000" fill-rule="evenodd" fill-opacity="1" /><path clip-path="url(#clip330)" d="M735.18 28.9478 L735.18 35.9153 Q732.021 34.1734 728.821 33.3227 Q725.661 32.4315 722.42 32.4315 Q715.169 32.4315 711.159 37.0496 Q707.148 41.6271 707.148 49.9314 Q707.148 58.2358 711.159 62.8538 Q715.169 67.4314 722.42 67.4314 Q725.661 67.4314 728.821 66.5807 Q732.021 65.6895 735.18 63.9476 L735.18 70.8341 Q732.061 72.2924 728.699 73.0216 Q725.377 73.7508 721.61 73.7508 Q711.361 73.7508 705.325 67.3098 Q699.289 60.8689 699.289 49.9314 Q699.289 38.832 705.366 32.472 Q711.483 26.1121 722.096 26.1121 Q725.539 26.1121 728.821 26.8413 Q732.102 27.5299 735.18 28.9478 Z" fill="#000000" fill-rule="evenodd" fill-opacity="1" /><path clip-path="url(#clip330)" d="M765.724 32.4315 Q759.729 32.4315 756.245 37.1306 Q752.761 41.7891 752.761 49.9314 Q752.761 58.0738 756.205 62.7728 Q759.688 67.4314 765.724 67.4314 Q771.679 67.4314 775.163 62.7323 Q778.647 58.0333 778.647 49.9314 Q778.647 41.8701 775.163 37.1711 Q771.679 32.4315 765.724 32.4315 M765.724 26.1121 Q775.446 26.1121 780.996 32.4315 Q786.546 38.7509 786.546 49.9314 Q786.546 61.0714 780.996 67.4314 Q775.446 73.7508 765.724 73.7508 Q755.962 73.7508 750.412 67.4314 Q744.903 61.0714 744.903 49.9314 Q744.903 38.7509 750.412 32.4315 Q755.962 26.1121 765.724 26.1121 Z" fill="#000000" fill-rule="evenodd" fill-opacity="1" /><path clip-path="url(#clip330)" d="M836.615 45.1919 L836.615 72.576 L829.161 72.576 L829.161 45.4349 Q829.161 38.994 826.65 35.7938 Q824.138 32.5936 819.115 32.5936 Q813.079 32.5936 809.596 36.4419 Q806.112 40.2903 806.112 46.9338 L806.112 72.576 L798.618 72.576 L798.618 27.2059 L806.112 27.2059 L806.112 34.2544 Q808.785 30.163 812.391 28.1376 Q816.036 26.1121 820.776 26.1121 Q828.594 26.1121 832.605 30.9732 Q836.615 35.7938 836.615 45.1919 Z" fill="#000000" fill-rule="evenodd" fill-opacity="1" /><path clip-path="url(#clip330)" d="M881.337 34.0924 L881.337 9.54393 L888.791 9.54393 L888.791 72.576 L881.337 72.576 L881.337 65.7705 Q878.988 69.8214 875.382 71.8063 Q871.817 73.7508 866.794 73.7508 Q858.571 73.7508 853.386 67.1883 Q848.241 60.6258 848.241 49.9314 Q848.241 39.2371 853.386 32.6746 Q858.571 26.1121 866.794 26.1121 Q871.817 26.1121 875.382 28.0971 Q878.988 30.0415 881.337 34.0924 M855.938 49.9314 Q855.938 58.1548 859.3 62.8538 Q862.703 67.5124 868.617 67.5124 Q874.532 67.5124 877.934 62.8538 Q881.337 58.1548 881.337 49.9314 Q881.337 41.7081 877.934 37.0496 Q874.532 32.3505 868.617 32.3505 Q862.703 32.3505 859.3 37.0496 Q855.938 41.7081 855.938 49.9314 Z" fill="#000000" fill-rule="evenodd" fill-opacity="1" /><path clip-path="url(#clip330)" d="M932.986 65.6895 L946.354 65.6895 L946.354 19.5497 L931.811 22.4663 L931.811 15.0127 L946.273 12.096 L954.456 12.096 L954.456 65.6895 L967.824 65.6895 L967.824 72.576 L932.986 72.576 L932.986 65.6895 Z" fill="#000000" fill-rule="evenodd" fill-opacity="1" /><path clip-path="url(#clip330)" d="M1002.86 39.075 Q997.355 39.075 994.114 42.8424 Q990.914 46.6097 990.914 53.1722 Q990.914 59.6941 994.114 63.502 Q997.355 67.2693 1002.86 67.2693 Q1008.37 67.2693 1011.57 63.502 Q1014.81 59.6941 1014.81 53.1722 Q1014.81 46.6097 1011.57 42.8424 Q1008.37 39.075 1002.86 39.075 M1019.11 13.4328 L1019.11 20.8865 Q1016.03 19.4281 1012.87 18.6585 Q1009.75 17.8888 1006.67 17.8888 Q998.57 17.8888 994.276 23.3575 Q990.023 28.8262 989.415 39.8852 Q991.805 36.3609 995.411 34.4975 Q999.016 32.5936 1003.35 32.5936 Q1012.46 32.5936 1017.73 38.1433 Q1023.04 43.6525 1023.04 53.1722 Q1023.04 62.4892 1017.53 68.12 Q1012.02 73.7508 1002.86 73.7508 Q992.372 73.7508 986.823 65.73 Q981.273 57.6687 981.273 42.3968 Q981.273 28.0566 988.078 19.5497 Q994.884 11.0023 1006.35 11.0023 Q1009.43 11.0023 1012.55 11.6099 Q1015.71 12.2175 1019.11 13.4328 Z" fill="#000000" fill-rule="evenodd" fill-opacity="1" /><path clip-path="url(#clip330)" d="M1044.18 65.6895 L1072.74 65.6895 L1072.74 72.576 L1034.34 72.576 L1034.34 65.6895 Q1039 60.8689 1047.02 52.7671 Q1055.08 44.6248 1057.15 42.2752 Q1061.08 37.8598 1062.62 34.8216 Q1064.19 31.7429 1064.19 28.7857 Q1064.19 23.9651 1060.79 20.927 Q1057.43 17.8888 1052 17.8888 Q1048.15 17.8888 1043.86 19.2256 Q1039.61 20.5624 1034.74 23.2765 L1034.74 15.0127 Q1039.69 13.0277 1043.98 12.015 Q1048.27 11.0023 1051.84 11.0023 Q1061.24 11.0023 1066.83 15.7013 Q1072.42 20.4004 1072.42 28.2591 Q1072.42 31.9859 1071 35.3482 Q1069.62 38.6699 1065.94 43.2069 Q1064.92 44.3817 1059.5 50.0125 Q1054.07 55.6027 1044.18 65.6895 Z" fill="#000000" fill-rule="evenodd" fill-opacity="1" /><path clip-path="url(#clip330)" d="M1090.16 71.3202 L1090.16 63.8666 Q1093.24 65.3249 1096.4 66.0946 Q1099.56 66.8642 1102.6 66.8642 Q1110.7 66.8642 1114.95 61.436 Q1119.25 55.9673 1119.85 44.8678 Q1117.5 48.3516 1113.9 50.215 Q1110.29 52.0784 1105.92 52.0784 Q1096.85 52.0784 1091.54 46.6097 Q1086.27 41.1005 1086.27 31.5808 Q1086.27 22.2638 1091.78 16.633 Q1097.29 11.0023 1106.45 11.0023 Q1116.94 11.0023 1122.45 19.0636 Q1128 27.0843 1128 42.3968 Q1128 56.6965 1121.19 65.2439 Q1114.43 73.7508 1102.96 73.7508 Q1099.88 73.7508 1096.72 73.1431 Q1093.56 72.5355 1090.16 71.3202 M1106.45 45.678 Q1111.96 45.678 1115.16 41.9107 Q1118.4 38.1433 1118.4 31.5808 Q1118.4 25.0589 1115.16 21.2916 Q1111.96 17.4837 1106.45 17.4837 Q1100.94 17.4837 1097.7 21.2916 Q1094.5 25.0589 1094.5 31.5808 Q1094.5 38.1433 1097.7 41.9107 Q1100.94 45.678 1106.45 45.678 Z" fill="#000000" fill-rule="evenodd" fill-opacity="1" /><path clip-path="url(#clip330)" d="M1149.75 65.6895 L1178.31 65.6895 L1178.31 72.576 L1139.91 72.576 L1139.91 65.6895 Q1144.56 60.8689 1152.59 52.7671 Q1160.65 44.6248 1162.71 42.2752 Q1166.64 37.8598 1168.18 34.8216 Q1169.76 31.7429 1169.76 28.7857 Q1169.76 23.9651 1166.36 20.927 Q1163 17.8888 1157.57 17.8888 Q1153.72 17.8888 1149.43 19.2256 Q1145.17 20.5624 1140.31 23.2765 L1140.31 15.0127 Q1145.25 13.0277 1149.55 12.015 Q1153.84 11.0023 1157.41 11.0023 Q1166.8 11.0023 1172.39 15.7013 Q1177.98 20.4004 1177.98 28.2591 Q1177.98 31.9859 1176.57 35.3482 Q1175.19 38.6699 1171.5 43.2069 Q1170.49 44.3817 1165.06 50.0125 Q1159.63 55.6027 1149.75 65.6895 Z" fill="#000000" fill-rule="evenodd" fill-opacity="1" /><path clip-path="url(#clip330)" d="M1195.48 62.2867 L1204.03 62.2867 L1204.03 72.576 L1195.48 72.576 L1195.48 62.2867 Z" fill="#000000" fill-rule="evenodd" fill-opacity="1" /><path clip-path="url(#clip330)" d="M1240.37 39.075 Q1234.86 39.075 1231.62 42.8424 Q1228.42 46.6097 1228.42 53.1722 Q1228.42 59.6941 1231.62 63.502 Q1234.86 67.2693 1240.37 67.2693 Q1245.88 67.2693 1249.08 63.502 Q1252.32 59.6941 1252.32 53.1722 Q1252.32 46.6097 1249.08 42.8424 Q1245.88 39.075 1240.37 39.075 M1256.61 13.4328 L1256.61 20.8865 Q1253.53 19.4281 1250.37 18.6585 Q1247.26 17.8888 1244.18 17.8888 Q1236.07 17.8888 1231.78 23.3575 Q1227.53 28.8262 1226.92 39.8852 Q1229.31 36.3609 1232.92 34.4975 Q1236.52 32.5936 1240.85 32.5936 Q1249.97 32.5936 1255.24 38.1433 Q1260.54 43.6525 1260.54 53.1722 Q1260.54 62.4892 1255.03 68.12 Q1249.52 73.7508 1240.37 73.7508 Q1229.88 73.7508 1224.33 65.73 Q1218.78 57.6687 1218.78 42.3968 Q1218.78 28.0566 1225.58 19.5497 Q1232.39 11.0023 1243.85 11.0023 Q1246.93 11.0023 1250.05 11.6099 Q1253.21 12.2175 1256.61 13.4328 Z" fill="#000000" fill-rule="evenodd" fill-opacity="1" /><path clip-path="url(#clip330)" d="M1299.43 39.9662 Q1305.3 41.222 1308.59 45.1919 Q1311.91 49.1618 1311.91 54.9951 Q1311.91 63.9476 1305.75 68.8492 Q1299.59 73.7508 1288.25 73.7508 Q1284.44 73.7508 1280.39 72.9811 Q1276.38 72.2519 1272.09 70.7531 L1272.09 62.8538 Q1275.49 64.8388 1279.54 65.8515 Q1283.59 66.8642 1288.01 66.8642 Q1295.7 66.8642 1299.71 63.826 Q1303.77 60.7879 1303.77 54.9951 Q1303.77 49.6479 1300 46.6502 Q1296.27 43.612 1289.59 43.612 L1282.54 43.612 L1282.54 36.8875 L1289.91 36.8875 Q1295.95 36.8875 1299.15 34.4975 Q1302.35 32.067 1302.35 27.5299 Q1302.35 22.8714 1299.03 20.4004 Q1295.74 17.8888 1289.59 17.8888 Q1286.22 17.8888 1282.38 18.618 Q1278.53 19.3471 1273.91 20.8865 L1273.91 13.5948 Q1278.57 12.2985 1282.62 11.6504 Q1286.71 11.0023 1290.32 11.0023 Q1299.63 11.0023 1305.06 15.2557 Q1310.49 19.4686 1310.49 26.6793 Q1310.49 31.7024 1307.61 35.1862 Q1304.74 38.6294 1299.43 39.9662 Z" fill="#000000" fill-rule="evenodd" fill-opacity="1" /><path clip-path="url(#clip330)" d="M1344.92 17.4837 Q1338.6 17.4837 1335.4 23.7221 Q1332.24 29.92 1332.24 42.3968 Q1332.24 54.833 1335.4 61.0714 Q1338.6 67.2693 1344.92 67.2693 Q1351.28 67.2693 1354.44 61.0714 Q1357.64 54.833 1357.64 42.3968 Q1357.64 29.92 1354.44 23.7221 Q1351.28 17.4837 1344.92 17.4837 M1344.92 11.0023 Q1355.09 11.0023 1360.44 19.0636 Q1365.83 27.0843 1365.83 42.3968 Q1365.83 57.6687 1360.44 65.73 Q1355.09 73.7508 1344.92 73.7508 Q1334.75 73.7508 1329.37 65.73 Q1324.02 57.6687 1324.02 42.3968 Q1324.02 27.0843 1329.37 19.0636 Q1334.75 11.0023 1344.92 11.0023 Z" fill="#000000" fill-rule="evenodd" fill-opacity="1" /><path clip-path="url(#clip330)" d="M1380.45 71.3202 L1380.45 63.8666 Q1383.53 65.3249 1386.69 66.0946 Q1389.85 66.8642 1392.89 66.8642 Q1400.99 66.8642 1405.24 61.436 Q1409.53 55.9673 1410.14 44.8678 Q1407.79 48.3516 1404.19 50.215 Q1400.58 52.0784 1396.21 52.0784 Q1387.13 52.0784 1381.83 46.6097 Q1376.56 41.1005 1376.56 31.5808 Q1376.56 22.2638 1382.07 16.633 Q1387.58 11.0023 1396.73 11.0023 Q1407.23 11.0023 1412.73 19.0636 Q1418.28 27.0843 1418.28 42.3968 Q1418.28 56.6965 1411.48 65.2439 Q1404.71 73.7508 1393.25 73.7508 Q1390.17 73.7508 1387.01 73.1431 Q1383.85 72.5355 1380.45 71.3202 M1396.73 45.678 Q1402.24 45.678 1405.44 41.9107 Q1408.68 38.1433 1408.68 31.5808 Q1408.68 25.0589 1405.44 21.2916 Q1402.24 17.4837 1396.73 17.4837 Q1391.22 17.4837 1387.98 21.2916 Q1384.78 25.0589 1384.78 31.5808 Q1384.78 38.1433 1387.98 41.9107 Q1391.22 45.678 1396.73 45.678 Z" fill="#000000" fill-rule="evenodd" fill-opacity="1" /><path clip-path="url(#clip330)" d="M1450.49 43.8551 Q1444.66 43.8551 1441.29 46.9743 Q1437.97 50.0935 1437.97 55.5622 Q1437.97 61.0309 1441.29 64.1501 Q1444.66 67.2693 1450.49 67.2693 Q1456.32 67.2693 1459.68 64.1501 Q1463.05 60.9904 1463.05 55.5622 Q1463.05 50.0935 1459.68 46.9743 Q1456.36 43.8551 1450.49 43.8551 M1442.31 40.3713 Q1437.04 39.075 1434.08 35.4697 Q1431.17 31.8644 1431.17 26.6793 Q1431.17 19.4281 1436.31 15.2152 Q1441.5 11.0023 1450.49 11.0023 Q1459.52 11.0023 1464.67 15.2152 Q1469.81 19.4281 1469.81 26.6793 Q1469.81 31.8644 1466.85 35.4697 Q1463.94 39.075 1458.71 40.3713 Q1464.63 41.7486 1467.91 45.759 Q1471.23 49.7694 1471.23 55.5622 Q1471.23 64.3527 1465.84 69.0517 Q1460.49 73.7508 1450.49 73.7508 Q1440.48 73.7508 1435.1 69.0517 Q1429.75 64.3527 1429.75 55.5622 Q1429.75 49.7694 1433.07 45.759 Q1436.39 41.7486 1442.31 40.3713 M1439.31 27.4489 Q1439.31 32.148 1442.23 34.7811 Q1445.18 37.4142 1450.49 37.4142 Q1455.76 37.4142 1458.71 34.7811 Q1461.71 32.148 1461.71 27.4489 Q1461.71 22.7499 1458.71 20.1168 Q1455.76 17.4837 1450.49 17.4837 Q1445.18 17.4837 1442.23 20.1168 Q1439.31 22.7499 1439.31 27.4489 Z" fill="#000000" fill-rule="evenodd" fill-opacity="1" /><path clip-path="url(#clip330)" d="M1508.25 19.2256 L1487.6 51.5113 L1508.25 51.5113 L1508.25 19.2256 M1506.11 12.096 L1516.4 12.096 L1516.4 51.5113 L1525.03 51.5113 L1525.03 58.3168 L1516.4 58.3168 L1516.4 72.576 L1508.25 72.576 L1508.25 58.3168 L1480.95 58.3168 L1480.95 50.4176 L1506.11 12.096 Z" fill="#000000" fill-rule="evenodd" fill-opacity="1" /><path clip-path="url(#clip330)" d="M1561.04 19.2256 L1540.38 51.5113 L1561.04 51.5113 L1561.04 19.2256 M1558.89 12.096 L1569.18 12.096 L1569.18 51.5113 L1577.81 51.5113 L1577.81 58.3168 L1569.18 58.3168 L1569.18 72.576 L1561.04 72.576 L1561.04 58.3168 L1533.74 58.3168 L1533.74 50.4176 L1558.89 12.096 Z" fill="#000000" fill-rule="evenodd" fill-opacity="1" /><path clip-path="url(#clip330)" d="M1589.27 12.096 L1628.16 12.096 L1628.16 15.5798 L1606.21 72.576 L1597.66 72.576 L1618.32 18.9825 L1589.27 18.9825 L1589.27 12.096 Z" fill="#000000" fill-rule="evenodd" fill-opacity="1" /><path clip-path="url(#clip330)" d="M1661.62 17.4837 Q1655.3 17.4837 1652.1 23.7221 Q1648.94 29.92 1648.94 42.3968 Q1648.94 54.833 1652.1 61.0714 Q1655.3 67.2693 1661.62 67.2693 Q1667.98 67.2693 1671.14 61.0714 Q1674.34 54.833 1674.34 42.3968 Q1674.34 29.92 1671.14 23.7221 Q1667.98 17.4837 1661.62 17.4837 M1661.62 11.0023 Q1671.79 11.0023 1677.14 19.0636 Q1682.52 27.0843 1682.52 42.3968 Q1682.52 57.6687 1677.14 65.73 Q1671.79 73.7508 1661.62 73.7508 Q1651.45 73.7508 1646.07 65.73 Q1640.72 57.6687 1640.72 42.3968 Q1640.72 27.0843 1646.07 19.0636 Q1651.45 11.0023 1661.62 11.0023 Z" fill="#000000" fill-rule="evenodd" fill-opacity="1" /><path clip-path="url(#clip330)" d="M1715.42 39.075 Q1709.91 39.075 1706.67 42.8424 Q1703.47 46.6097 1703.47 53.1722 Q1703.47 59.6941 1706.67 63.502 Q1709.91 67.2693 1715.42 67.2693 Q1720.93 67.2693 1724.13 63.502 Q1727.37 59.6941 1727.37 53.1722 Q1727.37 46.6097 1724.13 42.8424 Q1720.93 39.075 1715.42 39.075 M1731.66 13.4328 L1731.66 20.8865 Q1728.58 19.4281 1725.42 18.6585 Q1722.3 17.8888 1719.23 17.8888 Q1711.12 17.8888 1706.83 23.3575 Q1702.58 28.8262 1701.97 39.8852 Q1704.36 36.3609 1707.96 34.4975 Q1711.57 32.5936 1715.9 32.5936 Q1725.02 32.5936 1730.29 38.1433 Q1735.59 43.6525 1735.59 53.1722 Q1735.59 62.4892 1730.08 68.12 Q1724.57 73.7508 1715.42 73.7508 Q1704.93 73.7508 1699.38 65.73 Q1693.83 57.6687 1693.83 42.3968 Q1693.83 28.0566 1700.63 19.5497 Q1707.44 11.0023 1718.9 11.0023 Q1721.98 11.0023 1725.1 11.6099 Q1728.26 12.2175 1731.66 13.4328 Z" fill="#000000" fill-rule="evenodd" fill-opacity="1" /><path clip-path="url(#clip330)" d="M1756.74 65.6895 L1785.3 65.6895 L1785.3 72.576 L1746.89 72.576 L1746.89 65.6895 Q1751.55 60.8689 1759.57 52.7671 Q1767.63 44.6248 1769.7 42.2752 Q1773.63 37.8598 1775.17 34.8216 Q1776.75 31.7429 1776.75 28.7857 Q1776.75 23.9651 1773.35 20.927 Q1769.98 17.8888 1764.56 17.8888 Q1760.71 17.8888 1756.41 19.2256 Q1752.16 20.5624 1747.3 23.2765 L1747.3 15.0127 Q1752.24 13.0277 1756.53 12.015 Q1760.83 11.0023 1764.39 11.0023 Q1773.79 11.0023 1779.38 15.7013 Q1784.97 20.4004 1784.97 28.2591 Q1784.97 31.9859 1783.55 35.3482 Q1782.18 38.6699 1778.49 43.2069 Q1777.48 44.3817 1772.05 50.0125 Q1766.62 55.6027 1756.74 65.6895 Z" fill="#000000" fill-rule="evenodd" fill-opacity="1" /><path clip-path="url(#clip330)" d="M1827.26 39.9662 Q1833.14 41.222 1836.42 45.1919 Q1839.74 49.1618 1839.74 54.9951 Q1839.74 63.9476 1833.58 68.8492 Q1827.43 73.7508 1816.08 73.7508 Q1812.28 73.7508 1808.22 72.9811 Q1804.21 72.2519 1799.92 70.7531 L1799.92 62.8538 Q1803.32 64.8388 1807.37 65.8515 Q1811.42 66.8642 1815.84 66.8642 Q1823.54 66.8642 1827.55 63.826 Q1831.6 60.7879 1831.6 54.9951 Q1831.6 49.6479 1827.83 46.6502 Q1824.1 43.612 1817.42 43.612 L1810.37 43.612 L1810.37 36.8875 L1817.74 36.8875 Q1823.78 36.8875 1826.98 34.4975 Q1830.18 32.067 1830.18 27.5299 Q1830.18 22.8714 1826.86 20.4004 Q1823.58 17.8888 1817.42 17.8888 Q1814.06 17.8888 1810.21 18.618 Q1806.36 19.3471 1801.74 20.8865 L1801.74 13.5948 Q1806.4 12.2985 1810.45 11.6504 Q1814.54 11.0023 1818.15 11.0023 Q1827.47 11.0023 1832.89 15.2557 Q1838.32 19.4686 1838.32 26.6793 Q1838.32 31.7024 1835.45 35.1862 Q1832.57 38.6294 1827.26 39.9662 Z" fill="#000000" fill-rule="evenodd" fill-opacity="1" /><polyline clip-path="url(#clip332)" style="stroke:#009af9; stroke-linecap:butt; stroke-linejoin:round; stroke-width:16; stroke-opacity:1; fill:none" points="
  247.59,1447.87 257.86,1447.64 268.131,1447.24 278.401,1446.69 288.672,1445.98 298.943,1445.11 309.213,1444.09 319.484,1442.91 329.754,1441.57 340.025,1440.08 
  350.296,1438.43 360.566,1436.62 370.837,1434.66 381.107,1432.54 391.378,1430.27 401.649,1427.85 411.919,1425.28 422.19,1422.55 432.46,1419.67 442.731,1416.64 
  453.002,1413.46 463.272,1410.13 473.543,1406.65 483.813,1403.02 494.084,1399.25 504.355,1395.33 514.625,1391.27 524.896,1387.06 535.167,1382.71 545.437,1378.22 
  555.708,1373.58 565.978,1368.81 576.249,1363.9 586.52,1358.85 596.79,1353.67 607.061,1348.35 617.331,1342.89 627.602,1337.31 637.873,1331.59 648.143,1325.75 
  658.414,1319.78 668.684,1313.68 678.955,1307.45 689.226,1301.11 699.496,1294.64 709.767,1288.05 720.037,1281.34 730.308,1274.52 740.579,1267.58 750.849,1260.52 
  761.12,1253.36 771.39,1246.08 781.661,1238.7 791.932,1231.21 802.202,1223.61 812.473,1215.92 822.744,1208.12 833.014,1200.22 843.285,1192.22 853.555,1184.13 
  863.826,1175.95 874.097,1167.68 884.367,1159.32 894.638,1150.87 904.908,1142.33 915.179,1133.71 925.45,1125.02 935.72,1116.24 945.991,1107.39 956.261,1098.46 
  966.532,1089.46 976.803,1080.39 987.073,1071.25 997.344,1062.05 1007.61,1052.78 1017.89,1043.46 1028.16,1034.07 1038.43,1024.63 1048.7,1015.14 1058.97,1005.59 
  1069.24,995.995 1079.51,986.353 1089.78,976.666 1100.05,966.936 1110.32,957.167 1120.59,947.361 1130.86,937.519 1141.13,927.645 1151.4,917.741 1161.67,907.809 
  1171.94,897.852 1182.21,887.872 1192.49,877.872 1202.76,867.854 1213.03,857.821 1223.3,847.774 1233.57,837.717 1243.84,827.652 1254.11,817.582 1264.38,807.508 
  1274.65,797.434 1284.92,787.362 1295.19,777.293 1305.46,767.232 1315.73,757.18 1326,747.14 1336.27,737.114 1346.54,727.104 1356.82,717.114 1367.09,707.145 
  1377.36,697.201 1387.63,687.282 1397.9,677.393 1408.17,667.535 1418.44,657.711 1428.71,647.923 1438.98,638.173 1449.25,628.465 1459.52,618.799 1469.79,609.18 
  1480.06,599.608 1490.33,590.087 1500.6,580.619 1510.87,571.206 1521.14,561.85 1531.42,552.554 1541.69,543.32 1551.96,534.15 1562.23,525.047 1572.5,516.012 
  1582.77,507.048 1593.04,498.158 1603.31,489.342 1613.58,480.605 1623.85,471.946 1634.12,463.37 1644.39,454.878 1654.66,446.471 1664.93,438.153 1675.2,429.924 
  1685.47,421.788 1695.75,413.745 1706.02,405.799 1716.29,397.951 1726.56,390.203 1736.83,382.556 1747.1,375.013 1757.37,367.576 1767.64,360.246 1777.91,353.026 
  1788.18,345.916 1798.45,338.919 1808.72,332.037 1818.99,325.27 1829.26,318.621 1839.53,312.092 1849.8,305.684 1860.07,299.398 1870.35,293.237 1880.62,287.201 
  1890.89,281.292 1901.16,275.512 1911.43,269.862 1921.7,264.343 1931.97,258.957 1942.24,253.705 1952.51,248.588 1962.78,243.608 1973.05,238.766 1983.32,234.062 
  1993.59,229.499 2003.86,225.077 2014.13,220.798 2024.4,216.662 2034.68,212.67 2044.95,208.824 2055.22,205.124 2065.49,201.572 2075.76,198.168 2086.03,194.912 
  2096.3,191.806 2106.57,188.851 2116.84,186.048 2127.11,183.396 2137.38,180.896 2147.65,178.55 2157.92,176.358 2168.19,174.32 2178.46,172.437 2188.73,170.709 
  2199,169.137 2209.28,167.721 2219.55,166.462 2229.82,165.359 2240.09,164.413 2250.36,163.625 2260.63,162.994 2270.9,162.52 2281.17,162.205 2291.44,162.047 
  
  "/>
<path clip-path="url(#clip330)" d="
M1987.39 272.585 L2280.54 272.585 L2280.54 168.905 L1987.39 168.905  Z
  " fill="#ffffff" fill-rule="evenodd" fill-opacity="1"/>
<polyline clip-path="url(#clip330)" style="stroke:#000000; stroke-linecap:butt; stroke-linejoin:round; stroke-width:4; stroke-opacity:1; fill:none" points="
  1987.39,272.585 2280.54,272.585 2280.54,168.905 1987.39,168.905 1987.39,272.585 
  "/>
<polyline clip-path="url(#clip330)" style="stroke:#009af9; stroke-linecap:butt; stroke-linejoin:round; stroke-width:4; stroke-opacity:1; fill:none" points="
  2011.46,220.745 2155.89,220.745 
  "/>
<path clip-path="url(#clip330)" d="M2193.81 240.432 Q2192 245.062 2190.29 246.474 Q2188.58 247.886 2185.71 247.886 L2182.3 247.886 L2182.3 244.321 L2184.8 244.321 Q2186.56 244.321 2187.53 243.488 Q2188.51 242.654 2189.69 239.552 L2190.45 237.608 L2179.97 212.099 L2184.48 212.099 L2192.58 232.377 L2200.68 212.099 L2205.2 212.099 L2193.81 240.432 Z" fill="#000000" fill-rule="evenodd" fill-opacity="1" /><path clip-path="url(#clip330)" d="M2212.49 234.089 L2220.13 234.089 L2220.13 207.724 L2211.82 209.391 L2211.82 205.131 L2220.08 203.465 L2224.76 203.465 L2224.76 234.089 L2232.4 234.089 L2232.4 238.025 L2212.49 238.025 L2212.49 234.089 Z" fill="#000000" fill-rule="evenodd" fill-opacity="1" /></svg>
