<?xml version="1.0" encoding="utf-8"?>
<svg xmlns="http://www.w3.org/2000/svg" xmlns:xlink="http://www.w3.org/1999/xlink" width="600" height="400" viewBox="0 0 2400 1600">
<defs>
  <clipPath id="clip810">
    <rect x="0" y="0" width="2400" height="1600"/>
  </clipPath>
</defs>
<path clip-path="url(#clip810)" d="
M0 1600 L2400 1600 L2400 0 L0 0  Z
  " fill="#ffffff" fill-rule="evenodd" fill-opacity="1"/>
<defs>
  <clipPath id="clip811">
    <rect x="480" y="0" width="1681" height="1600"/>
  </clipPath>
</defs>
<path clip-path="url(#clip810)" d="
M178.867 1486.45 L2352.76 1486.45 L2352.76 47.2441 L178.867 47.2441  Z
  " fill="#ffffff" fill-rule="evenodd" fill-opacity="1"/>
<defs>
  <clipPath id="clip812">
    <rect x="178" y="47" width="2175" height="1440"/>
  </clipPath>
</defs>
<polyline clip-path="url(#clip812)" style="stroke:#000000; stroke-linecap:butt; stroke-linejoin:round; stroke-width:2; stroke-opacity:0.1; fill:none" points="
  240.392,1486.45 240.392,47.2441 
  "/>
<polyline clip-path="url(#clip812)" style="stroke:#000000; stroke-linecap:butt; stroke-linejoin:round; stroke-width:2; stroke-opacity:0.1; fill:none" points="
  753.102,1486.45 753.102,47.2441 
  "/>
<polyline clip-path="url(#clip812)" style="stroke:#000000; stroke-linecap:butt; stroke-linejoin:round; stroke-width:2; stroke-opacity:0.1; fill:none" points="
  1265.81,1486.45 1265.81,47.2441 
  "/>
<polyline clip-path="url(#clip812)" style="stroke:#000000; stroke-linecap:butt; stroke-linejoin:round; stroke-width:2; stroke-opacity:0.1; fill:none" points="
  1778.52,1486.45 1778.52,47.2441 
  "/>
<polyline clip-path="url(#clip812)" style="stroke:#000000; stroke-linecap:butt; stroke-linejoin:round; stroke-width:2; stroke-opacity:0.1; fill:none" points="
  2291.23,1486.45 2291.23,47.2441 
  "/>
<polyline clip-path="url(#clip810)" style="stroke:#000000; stroke-linecap:butt; stroke-linejoin:round; stroke-width:4; stroke-opacity:1; fill:none" points="
  178.867,1486.45 2352.76,1486.45 
  "/>
<polyline clip-path="url(#clip810)" style="stroke:#000000; stroke-linecap:butt; stroke-linejoin:round; stroke-width:4; stroke-opacity:1; fill:none" points="
  240.392,1486.45 240.392,1467.55 
  "/>
<polyline clip-path="url(#clip810)" style="stroke:#000000; stroke-linecap:butt; stroke-linejoin:round; stroke-width:4; stroke-opacity:1; fill:none" points="
  753.102,1486.45 753.102,1467.55 
  "/>
<polyline clip-path="url(#clip810)" style="stroke:#000000; stroke-linecap:butt; stroke-linejoin:round; stroke-width:4; stroke-opacity:1; fill:none" points="
  1265.81,1486.45 1265.81,1467.55 
  "/>
<polyline clip-path="url(#clip810)" style="stroke:#000000; stroke-linecap:butt; stroke-linejoin:round; stroke-width:4; stroke-opacity:1; fill:none" points="
  1778.52,1486.45 1778.52,1467.55 
  "/>
<polyline clip-path="url(#clip810)" style="stroke:#000000; stroke-linecap:butt; stroke-linejoin:round; stroke-width:4; stroke-opacity:1; fill:none" points="
  2291.23,1486.45 2291.23,1467.55 
  "/>
<path clip-path="url(#clip810)" d="M186.92 1532.02 L216.596 1532.02 L216.596 1535.95 L186.92 1535.95 L186.92 1532.02 Z" fill="#000000" fill-rule="evenodd" fill-opacity="1" /><path clip-path="url(#clip810)" d="M227.498 1544.91 L235.137 1544.91 L235.137 1518.55 L226.827 1520.21 L226.827 1515.95 L235.091 1514.29 L239.767 1514.29 L239.767 1544.91 L247.406 1544.91 L247.406 1548.85 L227.498 1548.85 L227.498 1544.91 Z" fill="#000000" fill-rule="evenodd" fill-opacity="1" /><path clip-path="url(#clip810)" d="M256.85 1542.97 L261.734 1542.97 L261.734 1548.85 L256.85 1548.85 L256.85 1542.97 Z" fill="#000000" fill-rule="evenodd" fill-opacity="1" /><path clip-path="url(#clip810)" d="M281.919 1517.37 Q278.308 1517.37 276.48 1520.93 Q274.674 1524.47 274.674 1531.6 Q274.674 1538.71 276.48 1542.27 Q278.308 1545.82 281.919 1545.82 Q285.554 1545.82 287.359 1542.27 Q289.188 1538.71 289.188 1531.6 Q289.188 1524.47 287.359 1520.93 Q285.554 1517.37 281.919 1517.37 M281.919 1513.66 Q287.73 1513.66 290.785 1518.27 Q293.864 1522.85 293.864 1531.6 Q293.864 1540.33 290.785 1544.94 Q287.73 1549.52 281.919 1549.52 Q276.109 1549.52 273.031 1544.94 Q269.975 1540.33 269.975 1531.6 Q269.975 1522.85 273.031 1518.27 Q276.109 1513.66 281.919 1513.66 Z" fill="#000000" fill-rule="evenodd" fill-opacity="1" /><path clip-path="url(#clip810)" d="M700.127 1532.02 L729.803 1532.02 L729.803 1535.95 L700.127 1535.95 L700.127 1532.02 Z" fill="#000000" fill-rule="evenodd" fill-opacity="1" /><path clip-path="url(#clip810)" d="M749.896 1517.37 Q746.284 1517.37 744.456 1520.93 Q742.65 1524.47 742.65 1531.6 Q742.65 1538.71 744.456 1542.27 Q746.284 1545.82 749.896 1545.82 Q753.53 1545.82 755.335 1542.27 Q757.164 1538.71 757.164 1531.6 Q757.164 1524.47 755.335 1520.93 Q753.53 1517.37 749.896 1517.37 M749.896 1513.66 Q755.706 1513.66 758.761 1518.27 Q761.84 1522.85 761.84 1531.6 Q761.84 1540.33 758.761 1544.94 Q755.706 1549.52 749.896 1549.52 Q744.085 1549.52 741.007 1544.94 Q737.951 1540.33 737.951 1531.6 Q737.951 1522.85 741.007 1518.27 Q744.085 1513.66 749.896 1513.66 Z" fill="#000000" fill-rule="evenodd" fill-opacity="1" /><path clip-path="url(#clip810)" d="M770.057 1542.97 L774.942 1542.97 L774.942 1548.85 L770.057 1548.85 L770.057 1542.97 Z" fill="#000000" fill-rule="evenodd" fill-opacity="1" /><path clip-path="url(#clip810)" d="M785.173 1514.29 L803.53 1514.29 L803.53 1518.22 L789.456 1518.22 L789.456 1526.7 Q790.474 1526.35 791.493 1526.19 Q792.511 1526 793.53 1526 Q799.317 1526 802.696 1529.17 Q806.076 1532.34 806.076 1537.76 Q806.076 1543.34 802.604 1546.44 Q799.131 1549.52 792.812 1549.52 Q790.636 1549.52 788.368 1549.15 Q786.122 1548.78 783.715 1548.04 L783.715 1543.34 Q785.798 1544.47 788.02 1545.03 Q790.243 1545.58 792.719 1545.58 Q796.724 1545.58 799.062 1543.48 Q801.4 1541.37 801.4 1537.76 Q801.4 1534.15 799.062 1532.04 Q796.724 1529.94 792.719 1529.94 Q790.844 1529.94 788.969 1530.35 Q787.118 1530.77 785.173 1531.65 L785.173 1514.29 Z" fill="#000000" fill-rule="evenodd" fill-opacity="1" /><path clip-path="url(#clip810)" d="M1243.2 1517.37 Q1239.58 1517.37 1237.76 1520.93 Q1235.95 1524.47 1235.95 1531.6 Q1235.95 1538.71 1237.76 1542.27 Q1239.58 1545.82 1243.2 1545.82 Q1246.83 1545.82 1248.64 1542.27 Q1250.46 1538.71 1250.46 1531.6 Q1250.46 1524.47 1248.64 1520.93 Q1246.83 1517.37 1243.2 1517.37 M1243.2 1513.66 Q1249.01 1513.66 1252.06 1518.27 Q1255.14 1522.85 1255.14 1531.6 Q1255.14 1540.33 1252.06 1544.94 Q1249.01 1549.52 1243.2 1549.52 Q1237.39 1549.52 1234.31 1544.94 Q1231.25 1540.33 1231.25 1531.6 Q1231.25 1522.85 1234.31 1518.27 Q1237.39 1513.66 1243.2 1513.66 Z" fill="#000000" fill-rule="evenodd" fill-opacity="1" /><path clip-path="url(#clip810)" d="M1263.36 1542.97 L1268.24 1542.97 L1268.24 1548.85 L1263.36 1548.85 L1263.36 1542.97 Z" fill="#000000" fill-rule="evenodd" fill-opacity="1" /><path clip-path="url(#clip810)" d="M1288.43 1517.37 Q1284.82 1517.37 1282.99 1520.93 Q1281.18 1524.47 1281.18 1531.6 Q1281.18 1538.71 1282.99 1542.27 Q1284.82 1545.82 1288.43 1545.82 Q1292.06 1545.82 1293.87 1542.27 Q1295.7 1538.71 1295.7 1531.6 Q1295.7 1524.47 1293.87 1520.93 Q1292.06 1517.37 1288.43 1517.37 M1288.43 1513.66 Q1294.24 1513.66 1297.29 1518.27 Q1300.37 1522.85 1300.37 1531.6 Q1300.37 1540.33 1297.29 1544.94 Q1294.24 1549.52 1288.43 1549.52 Q1282.62 1549.52 1279.54 1544.94 Q1276.48 1540.33 1276.48 1531.6 Q1276.48 1522.85 1279.54 1518.27 Q1282.62 1513.66 1288.43 1513.66 Z" fill="#000000" fill-rule="evenodd" fill-opacity="1" /><path clip-path="url(#clip810)" d="M1756.4 1517.37 Q1752.79 1517.37 1750.96 1520.93 Q1749.16 1524.47 1749.16 1531.6 Q1749.16 1538.71 1750.96 1542.27 Q1752.79 1545.82 1756.4 1545.82 Q1760.04 1545.82 1761.84 1542.27 Q1763.67 1538.71 1763.67 1531.6 Q1763.67 1524.47 1761.84 1520.93 Q1760.04 1517.37 1756.4 1517.37 M1756.4 1513.66 Q1762.21 1513.66 1765.27 1518.27 Q1768.35 1522.85 1768.35 1531.6 Q1768.35 1540.33 1765.27 1544.94 Q1762.21 1549.52 1756.4 1549.52 Q1750.59 1549.52 1747.51 1544.94 Q1744.46 1540.33 1744.46 1531.6 Q1744.46 1522.85 1747.51 1518.27 Q1750.59 1513.66 1756.4 1513.66 Z" fill="#000000" fill-rule="evenodd" fill-opacity="1" /><path clip-path="url(#clip810)" d="M1776.56 1542.97 L1781.45 1542.97 L1781.45 1548.85 L1776.56 1548.85 L1776.56 1542.97 Z" fill="#000000" fill-rule="evenodd" fill-opacity="1" /><path clip-path="url(#clip810)" d="M1791.68 1514.29 L1810.04 1514.29 L1810.04 1518.22 L1795.96 1518.22 L1795.96 1526.7 Q1796.98 1526.35 1798 1526.19 Q1799.02 1526 1800.04 1526 Q1805.82 1526 1809.2 1529.17 Q1812.58 1532.34 1812.58 1537.76 Q1812.58 1543.34 1809.11 1546.44 Q1805.64 1549.52 1799.32 1549.52 Q1797.14 1549.52 1794.88 1549.15 Q1792.63 1548.78 1790.22 1548.04 L1790.22 1543.34 Q1792.31 1544.47 1794.53 1545.03 Q1796.75 1545.58 1799.23 1545.58 Q1803.23 1545.58 1805.57 1543.48 Q1807.91 1541.37 1807.91 1537.76 Q1807.91 1534.15 1805.57 1532.04 Q1803.23 1529.94 1799.23 1529.94 Q1797.35 1529.94 1795.48 1530.35 Q1793.63 1530.77 1791.68 1531.65 L1791.68 1514.29 Z" fill="#000000" fill-rule="evenodd" fill-opacity="1" /><path clip-path="url(#clip810)" d="M2258.38 1544.91 L2266.02 1544.91 L2266.02 1518.55 L2257.71 1520.21 L2257.71 1515.95 L2265.98 1514.29 L2270.65 1514.29 L2270.65 1544.91 L2278.29 1544.91 L2278.29 1548.85 L2258.38 1548.85 L2258.38 1544.91 Z" fill="#000000" fill-rule="evenodd" fill-opacity="1" /><path clip-path="url(#clip810)" d="M2287.74 1542.97 L2292.62 1542.97 L2292.62 1548.85 L2287.74 1548.85 L2287.74 1542.97 Z" fill="#000000" fill-rule="evenodd" fill-opacity="1" /><path clip-path="url(#clip810)" d="M2312.8 1517.37 Q2309.19 1517.37 2307.36 1520.93 Q2305.56 1524.47 2305.56 1531.6 Q2305.56 1538.71 2307.36 1542.27 Q2309.19 1545.82 2312.8 1545.82 Q2316.44 1545.82 2318.24 1542.27 Q2320.07 1538.71 2320.07 1531.6 Q2320.07 1524.47 2318.24 1520.93 Q2316.44 1517.37 2312.8 1517.37 M2312.8 1513.66 Q2318.61 1513.66 2321.67 1518.27 Q2324.75 1522.85 2324.75 1531.6 Q2324.75 1540.33 2321.67 1544.94 Q2318.61 1549.52 2312.8 1549.52 Q2306.99 1549.52 2303.92 1544.94 Q2300.86 1540.33 2300.86 1531.6 Q2300.86 1522.85 2303.92 1518.27 Q2306.99 1513.66 2312.8 1513.66 Z" fill="#000000" fill-rule="evenodd" fill-opacity="1" /><polyline clip-path="url(#clip812)" style="stroke:#000000; stroke-linecap:butt; stroke-linejoin:round; stroke-width:2; stroke-opacity:0.1; fill:none" points="
  178.867,1349.07 2352.76,1349.07 
  "/>
<polyline clip-path="url(#clip812)" style="stroke:#000000; stroke-linecap:butt; stroke-linejoin:round; stroke-width:2; stroke-opacity:0.1; fill:none" points="
  178.867,1057.96 2352.76,1057.96 
  "/>
<polyline clip-path="url(#clip812)" style="stroke:#000000; stroke-linecap:butt; stroke-linejoin:round; stroke-width:2; stroke-opacity:0.1; fill:none" points="
  178.867,766.846 2352.76,766.846 
  "/>
<polyline clip-path="url(#clip812)" style="stroke:#000000; stroke-linecap:butt; stroke-linejoin:round; stroke-width:2; stroke-opacity:0.1; fill:none" points="
  178.867,475.734 2352.76,475.734 
  "/>
<polyline clip-path="url(#clip812)" style="stroke:#000000; stroke-linecap:butt; stroke-linejoin:round; stroke-width:2; stroke-opacity:0.1; fill:none" points="
  178.867,184.622 2352.76,184.622 
  "/>
<polyline clip-path="url(#clip810)" style="stroke:#000000; stroke-linecap:butt; stroke-linejoin:round; stroke-width:4; stroke-opacity:1; fill:none" points="
  178.867,1486.45 178.867,47.2441 
  "/>
<polyline clip-path="url(#clip810)" style="stroke:#000000; stroke-linecap:butt; stroke-linejoin:round; stroke-width:4; stroke-opacity:1; fill:none" points="
  178.867,1349.07 197.764,1349.07 
  "/>
<polyline clip-path="url(#clip810)" style="stroke:#000000; stroke-linecap:butt; stroke-linejoin:round; stroke-width:4; stroke-opacity:1; fill:none" points="
  178.867,1057.96 197.764,1057.96 
  "/>
<polyline clip-path="url(#clip810)" style="stroke:#000000; stroke-linecap:butt; stroke-linejoin:round; stroke-width:4; stroke-opacity:1; fill:none" points="
  178.867,766.846 197.764,766.846 
  "/>
<polyline clip-path="url(#clip810)" style="stroke:#000000; stroke-linecap:butt; stroke-linejoin:round; stroke-width:4; stroke-opacity:1; fill:none" points="
  178.867,475.734 197.764,475.734 
  "/>
<polyline clip-path="url(#clip810)" style="stroke:#000000; stroke-linecap:butt; stroke-linejoin:round; stroke-width:4; stroke-opacity:1; fill:none" points="
  178.867,184.622 197.764,184.622 
  "/>
<path clip-path="url(#clip810)" d="M50.9921 1349.52 L80.6679 1349.52 L80.6679 1353.46 L50.9921 1353.46 L50.9921 1349.52 Z" fill="#000000" fill-rule="evenodd" fill-opacity="1" /><path clip-path="url(#clip810)" d="M90.8067 1331.79 L109.163 1331.79 L109.163 1335.73 L95.0891 1335.73 L95.0891 1344.2 Q96.1076 1343.85 97.1261 1343.69 Q98.1447 1343.5 99.1632 1343.5 Q104.95 1343.5 108.33 1346.67 Q111.709 1349.85 111.709 1355.26 Q111.709 1360.84 108.237 1363.94 Q104.765 1367.02 98.4456 1367.02 Q96.2697 1367.02 94.0012 1366.65 Q91.7558 1366.28 89.3484 1365.54 L89.3484 1360.84 Q91.4317 1361.98 93.6539 1362.53 Q95.8761 1363.09 98.353 1363.09 Q102.358 1363.09 104.696 1360.98 Q107.033 1358.87 107.033 1355.26 Q107.033 1351.65 104.696 1349.54 Q102.358 1347.44 98.353 1347.44 Q96.478 1347.44 94.603 1347.85 Q92.7512 1348.27 90.8067 1349.15 L90.8067 1331.79 Z" fill="#000000" fill-rule="evenodd" fill-opacity="1" /><path clip-path="url(#clip810)" d="M130.922 1334.87 Q127.311 1334.87 125.482 1338.43 Q123.677 1341.98 123.677 1349.1 Q123.677 1356.21 125.482 1359.78 Q127.311 1363.32 130.922 1363.32 Q134.556 1363.32 136.362 1359.78 Q138.191 1356.21 138.191 1349.1 Q138.191 1341.98 136.362 1338.43 Q134.556 1334.87 130.922 1334.87 M130.922 1331.17 Q136.732 1331.17 139.788 1335.77 Q142.867 1340.36 142.867 1349.1 Q142.867 1357.83 139.788 1362.44 Q136.732 1367.02 130.922 1367.02 Q125.112 1367.02 122.033 1362.44 Q118.978 1357.83 118.978 1349.1 Q118.978 1340.36 122.033 1335.77 Q125.112 1331.17 130.922 1331.17 Z" fill="#000000" fill-rule="evenodd" fill-opacity="1" /><path clip-path="url(#clip810)" d="M51.9875 1058.41 L81.6633 1058.41 L81.6633 1062.34 L51.9875 1062.34 L51.9875 1058.41 Z" fill="#000000" fill-rule="evenodd" fill-opacity="1" /><path clip-path="url(#clip810)" d="M95.7836 1071.3 L112.103 1071.3 L112.103 1075.24 L90.1586 1075.24 L90.1586 1071.3 Q92.8206 1068.55 97.4039 1063.92 Q102.01 1059.27 103.191 1057.92 Q105.436 1055.4 106.316 1053.66 Q107.219 1051.9 107.219 1050.22 Q107.219 1047.46 105.274 1045.72 Q103.353 1043.99 100.251 1043.99 Q98.0521 1043.99 95.5984 1044.75 Q93.1678 1045.52 90.3901 1047.07 L90.3901 1042.34 Q93.2141 1041.21 95.6678 1040.63 Q98.1215 1040.05 100.159 1040.05 Q105.529 1040.05 108.723 1042.74 Q111.918 1045.42 111.918 1049.91 Q111.918 1052.04 111.108 1053.97 Q110.321 1055.86 108.214 1058.46 Q107.635 1059.13 104.534 1062.34 Q101.432 1065.54 95.7836 1071.3 Z" fill="#000000" fill-rule="evenodd" fill-opacity="1" /><path clip-path="url(#clip810)" d="M121.964 1040.68 L140.32 1040.68 L140.32 1044.61 L126.246 1044.61 L126.246 1053.09 Q127.265 1052.74 128.283 1052.58 Q129.302 1052.39 130.32 1052.39 Q136.107 1052.39 139.487 1055.56 Q142.867 1058.73 142.867 1064.15 Q142.867 1069.73 139.394 1072.83 Q135.922 1075.91 129.603 1075.91 Q127.427 1075.91 125.158 1075.54 Q122.913 1075.17 120.506 1074.43 L120.506 1069.73 Q122.589 1070.86 124.811 1071.42 Q127.033 1071.97 129.51 1071.97 Q133.515 1071.97 135.853 1069.87 Q138.191 1067.76 138.191 1064.15 Q138.191 1060.54 135.853 1058.43 Q133.515 1056.33 129.51 1056.33 Q127.635 1056.33 125.76 1056.74 Q123.908 1057.16 121.964 1058.04 L121.964 1040.68 Z" fill="#000000" fill-rule="evenodd" fill-opacity="1" /><path clip-path="url(#clip810)" d="M130.922 752.645 Q127.311 752.645 125.482 756.209 Q123.677 759.751 123.677 766.881 Q123.677 773.987 125.482 777.552 Q127.311 781.094 130.922 781.094 Q134.556 781.094 136.362 777.552 Q138.191 773.987 138.191 766.881 Q138.191 759.751 136.362 756.209 Q134.556 752.645 130.922 752.645 M130.922 748.941 Q136.732 748.941 139.788 753.547 Q142.867 758.131 142.867 766.881 Q142.867 775.608 139.788 780.214 Q136.732 784.797 130.922 784.797 Q125.112 784.797 122.033 780.214 Q118.978 775.608 118.978 766.881 Q118.978 758.131 122.033 753.547 Q125.112 748.941 130.922 748.941 Z" fill="#000000" fill-rule="evenodd" fill-opacity="1" /><path clip-path="url(#clip810)" d="M95.7836 489.079 L112.103 489.079 L112.103 493.014 L90.1586 493.014 L90.1586 489.079 Q92.8206 486.324 97.4039 481.694 Q102.01 477.042 103.191 475.699 Q105.436 473.176 106.316 471.44 Q107.219 469.681 107.219 467.991 Q107.219 465.236 105.274 463.5 Q103.353 461.764 100.251 461.764 Q98.0521 461.764 95.5984 462.528 Q93.1678 463.292 90.3901 464.843 L90.3901 460.121 Q93.2141 458.986 95.6678 458.408 Q98.1215 457.829 100.159 457.829 Q105.529 457.829 108.723 460.514 Q111.918 463.199 111.918 467.69 Q111.918 469.82 111.108 471.741 Q110.321 473.639 108.214 476.232 Q107.635 476.903 104.534 480.12 Q101.432 483.315 95.7836 489.079 Z" fill="#000000" fill-rule="evenodd" fill-opacity="1" /><path clip-path="url(#clip810)" d="M121.964 458.454 L140.32 458.454 L140.32 462.389 L126.246 462.389 L126.246 470.861 Q127.265 470.514 128.283 470.352 Q129.302 470.167 130.32 470.167 Q136.107 470.167 139.487 473.338 Q142.867 476.509 142.867 481.926 Q142.867 487.505 139.394 490.606 Q135.922 493.685 129.603 493.685 Q127.427 493.685 125.158 493.315 Q122.913 492.944 120.506 492.204 L120.506 487.505 Q122.589 488.639 124.811 489.194 Q127.033 489.75 129.51 489.75 Q133.515 489.75 135.853 487.644 Q138.191 485.537 138.191 481.926 Q138.191 478.315 135.853 476.208 Q133.515 474.102 129.51 474.102 Q127.635 474.102 125.76 474.519 Q123.908 474.935 121.964 475.815 L121.964 458.454 Z" fill="#000000" fill-rule="evenodd" fill-opacity="1" /><path clip-path="url(#clip810)" d="M90.8067 167.342 L109.163 167.342 L109.163 171.277 L95.0891 171.277 L95.0891 179.749 Q96.1076 179.402 97.1261 179.24 Q98.1447 179.055 99.1632 179.055 Q104.95 179.055 108.33 182.226 Q111.709 185.397 111.709 190.814 Q111.709 196.392 108.237 199.494 Q104.765 202.573 98.4456 202.573 Q96.2697 202.573 94.0012 202.203 Q91.7558 201.832 89.3484 201.092 L89.3484 196.392 Q91.4317 197.527 93.6539 198.082 Q95.8761 198.638 98.353 198.638 Q102.358 198.638 104.696 196.531 Q107.033 194.425 107.033 190.814 Q107.033 187.203 104.696 185.096 Q102.358 182.99 98.353 182.99 Q96.478 182.99 94.603 183.406 Q92.7512 183.823 90.8067 184.703 L90.8067 167.342 Z" fill="#000000" fill-rule="evenodd" fill-opacity="1" /><path clip-path="url(#clip810)" d="M130.922 170.42 Q127.311 170.42 125.482 173.985 Q123.677 177.527 123.677 184.656 Q123.677 191.763 125.482 195.328 Q127.311 198.869 130.922 198.869 Q134.556 198.869 136.362 195.328 Q138.191 191.763 138.191 184.656 Q138.191 177.527 136.362 173.985 Q134.556 170.42 130.922 170.42 M130.922 166.717 Q136.732 166.717 139.788 171.323 Q142.867 175.906 142.867 184.656 Q142.867 193.383 139.788 197.99 Q136.732 202.573 130.922 202.573 Q125.112 202.573 122.033 197.99 Q118.978 193.383 118.978 184.656 Q118.978 175.906 122.033 171.323 Q125.112 166.717 130.922 166.717 Z" fill="#000000" fill-rule="evenodd" fill-opacity="1" /><circle clip-path="url(#clip812)" cx="240.392" cy="766.884" r="14.4" fill="#009af9" fill-rule="evenodd" fill-opacity="1" stroke="#000000" stroke-opacity="1" stroke-width="3.2"/>
<circle clip-path="url(#clip812)" cx="398.149" cy="767.076" r="14.4" fill="#009af9" fill-rule="evenodd" fill-opacity="1" stroke="#000000" stroke-opacity="1" stroke-width="3.2"/>
<circle clip-path="url(#clip812)" cx="555.905" cy="766.259" r="14.4" fill="#009af9" fill-rule="evenodd" fill-opacity="1" stroke="#000000" stroke-opacity="1" stroke-width="3.2"/>
<circle clip-path="url(#clip812)" cx="713.662" cy="768.302" r="14.4" fill="#009af9" fill-rule="evenodd" fill-opacity="1" stroke="#000000" stroke-opacity="1" stroke-width="3.2"/>
<circle clip-path="url(#clip812)" cx="871.419" cy="763.913" r="14.4" fill="#009af9" fill-rule="evenodd" fill-opacity="1" stroke="#000000" stroke-opacity="1" stroke-width="3.2"/>
<circle clip-path="url(#clip812)" cx="1029.18" cy="771.523" r="14.4" fill="#009af9" fill-rule="evenodd" fill-opacity="1" stroke="#000000" stroke-opacity="1" stroke-width="3.2"/>
<circle clip-path="url(#clip812)" cx="1186.93" cy="760.947" r="14.4" fill="#009af9" fill-rule="evenodd" fill-opacity="1" stroke="#000000" stroke-opacity="1" stroke-width="3.2"/>
<circle clip-path="url(#clip812)" cx="1344.69" cy="772.745" r="14.4" fill="#009af9" fill-rule="evenodd" fill-opacity="1" stroke="#000000" stroke-opacity="1" stroke-width="3.2"/>
<circle clip-path="url(#clip812)" cx="1502.45" cy="762.169" r="14.4" fill="#009af9" fill-rule="evenodd" fill-opacity="1" stroke="#000000" stroke-opacity="1" stroke-width="3.2"/>
<circle clip-path="url(#clip812)" cx="1660.2" cy="769.779" r="14.4" fill="#009af9" fill-rule="evenodd" fill-opacity="1" stroke="#000000" stroke-opacity="1" stroke-width="3.2"/>
<circle clip-path="url(#clip812)" cx="1817.96" cy="765.39" r="14.4" fill="#009af9" fill-rule="evenodd" fill-opacity="1" stroke="#000000" stroke-opacity="1" stroke-width="3.2"/>
<circle clip-path="url(#clip812)" cx="1975.72" cy="767.433" r="14.4" fill="#009af9" fill-rule="evenodd" fill-opacity="1" stroke="#000000" stroke-opacity="1" stroke-width="3.2"/>
<circle clip-path="url(#clip812)" cx="2133.47" cy="766.616" r="14.4" fill="#009af9" fill-rule="evenodd" fill-opacity="1" stroke="#000000" stroke-opacity="1" stroke-width="3.2"/>
<circle clip-path="url(#clip812)" cx="2291.23" cy="766.808" r="14.4" fill="#009af9" fill-rule="evenodd" fill-opacity="1" stroke="#000000" stroke-opacity="1" stroke-width="3.2"/>
<polyline clip-path="url(#clip812)" style="stroke:#e26f46; stroke-linecap:butt; stroke-linejoin:round; stroke-width:12; stroke-opacity:1; fill:none" points="
  240.392,766.884 261.107,1295.21 281.823,1445.72 302.538,1393.18 323.254,1250.24 343.97,1085.27 364.685,936.018 385.401,819.836 406.116,741.198 426.832,697.104 
  447.547,680.82 468.263,684.363 488.978,700.048 509.694,721.348 530.409,743.278 551.125,762.454 571.841,776.954 592.556,786.064 613.272,789.979 633.987,789.507 
  654.703,785.794 675.418,780.101 696.134,773.627 716.849,767.392 737.565,762.165 758.28,758.433 778.996,756.413 799.712,756.081 820.427,757.219 841.143,759.479 
  861.858,762.436 882.574,765.649 903.289,768.707 924.005,771.268 944.72,773.085 965.436,774.015 986.151,774.028 1006.87,773.194 1027.58,771.663 1048.3,769.652 
  1069.01,767.408 1089.73,765.19 1110.44,763.236 1131.16,761.747 1151.88,760.868 1172.59,760.674 1193.31,761.17 1214.02,762.287 1234.74,763.899 1255.45,765.827 
  1276.17,767.865 1296.88,769.793 1317.6,771.405 1338.32,772.522 1359.03,773.018 1379.75,772.824 1400.46,771.945 1421.18,770.456 1441.89,768.502 1462.61,766.284 
  1483.32,764.04 1504.04,762.029 1524.76,760.498 1545.47,759.664 1566.19,759.677 1586.9,760.607 1607.62,762.424 1628.33,764.985 1649.05,768.043 1669.76,771.256 
  1690.48,774.213 1711.2,776.473 1731.91,777.611 1752.63,777.278 1773.34,775.259 1794.06,771.527 1814.77,766.3 1835.49,760.065 1856.2,753.591 1876.92,747.898 
  1897.64,744.185 1918.35,743.713 1939.07,747.628 1959.78,756.738 1980.5,771.238 2001.21,790.414 2021.93,812.344 2042.64,833.644 2063.36,849.329 2084.08,852.872 
  2104.79,836.588 2125.51,792.494 2146.22,713.856 2166.94,597.674 2187.65,448.424 2208.37,283.455 2229.08,140.514 2249.8,87.9763 2270.52,238.484 2291.23,766.808 
  
  "/>
<path clip-path="url(#clip810)" d="
M1986.32 250.738 L2280.29 250.738 L2280.29 95.2176 L1986.32 95.2176  Z
  " fill="#ffffff" fill-rule="evenodd" fill-opacity="1"/>
<polyline clip-path="url(#clip810)" style="stroke:#000000; stroke-linecap:butt; stroke-linejoin:round; stroke-width:4; stroke-opacity:1; fill:none" points="
  1986.32,250.738 2280.29,250.738 2280.29,95.2176 1986.32,95.2176 1986.32,250.738 
  "/>
<circle clip-path="url(#clip810)" cx="2082.94" cy="147.058" r="23.04" fill="#009af9" fill-rule="evenodd" fill-opacity="1" stroke="#000000" stroke-opacity="1" stroke-width="5.12"/>
<path clip-path="url(#clip810)" d="M2193.4 166.745 Q2191.59 171.375 2189.88 172.787 Q2188.17 174.199 2185.29 174.199 L2181.89 174.199 L2181.89 170.634 L2184.39 170.634 Q2186.15 170.634 2187.12 169.8 Q2188.1 168.967 2189.28 165.865 L2190.04 163.921 L2179.55 138.412 L2184.07 138.412 L2192.17 158.689 L2200.27 138.412 L2204.79 138.412 L2193.4 166.745 Z" fill="#000000" fill-rule="evenodd" fill-opacity="1" /><path clip-path="url(#clip810)" d="M2212.08 160.402 L2219.72 160.402 L2219.72 134.037 L2211.41 135.703 L2211.41 131.444 L2219.67 129.778 L2224.35 129.778 L2224.35 160.402 L2231.98 160.402 L2231.98 164.338 L2212.08 164.338 L2212.08 160.402 Z" fill="#000000" fill-rule="evenodd" fill-opacity="1" /><polyline clip-path="url(#clip810)" style="stroke:#e26f46; stroke-linecap:butt; stroke-linejoin:round; stroke-width:4; stroke-opacity:1; fill:none" points="
  2010.47,198.898 2155.4,198.898 
  "/>
<path clip-path="url(#clip810)" d="M2193.4 218.585 Q2191.59 223.215 2189.88 224.627 Q2188.17 226.039 2185.29 226.039 L2181.89 226.039 L2181.89 222.474 L2184.39 222.474 Q2186.15 222.474 2187.12 221.64 Q2188.1 220.807 2189.28 217.705 L2190.04 215.761 L2179.55 190.252 L2184.07 190.252 L2192.17 210.529 L2200.27 190.252 L2204.79 190.252 L2193.4 218.585 Z" fill="#000000" fill-rule="evenodd" fill-opacity="1" /><path clip-path="url(#clip810)" d="M2215.29 212.242 L2231.61 212.242 L2231.61 216.178 L2209.67 216.178 L2209.67 212.242 Q2212.33 209.488 2216.91 204.858 Q2221.52 200.205 2222.7 198.863 Q2224.95 196.34 2225.83 194.604 Q2226.73 192.844 2226.73 191.155 Q2226.73 188.4 2224.79 186.664 Q2222.86 184.928 2219.76 184.928 Q2217.56 184.928 2215.11 185.692 Q2212.68 186.455 2209.9 188.006 L2209.9 183.284 Q2212.73 182.15 2215.18 181.571 Q2217.63 180.993 2219.67 180.993 Q2225.04 180.993 2228.23 183.678 Q2231.43 186.363 2231.43 190.854 Q2231.43 192.983 2230.62 194.905 Q2229.83 196.803 2227.73 199.395 Q2227.15 200.067 2224.04 203.284 Q2220.94 206.479 2215.29 212.242 Z" fill="#000000" fill-rule="evenodd" fill-opacity="1" /></svg>
