<?xml version="1.0" encoding="utf-8"?>
<svg xmlns="http://www.w3.org/2000/svg" xmlns:xlink="http://www.w3.org/1999/xlink" width="600" height="400" viewBox="0 0 2400 1600">
<defs>
  <clipPath id="clip860">
    <rect x="0" y="0" width="2400" height="1600"/>
  </clipPath>
</defs>
<path clip-path="url(#clip860)" d="
M0 1600 L2400 1600 L2400 0 L0 0  Z
  " fill="#ffffff" fill-rule="evenodd" fill-opacity="1"/>
<defs>
  <clipPath id="clip861">
    <rect x="480" y="0" width="1681" height="1600"/>
  </clipPath>
</defs>
<path clip-path="url(#clip860)" d="
M184.191 1486.45 L2352.76 1486.45 L2352.76 47.2441 L184.191 47.2441  Z
  " fill="#ffffff" fill-rule="evenodd" fill-opacity="1"/>
<defs>
  <clipPath id="clip862">
    <rect x="184" y="47" width="2170" height="1440"/>
  </clipPath>
</defs>
<polyline clip-path="url(#clip862)" style="stroke:#000000; stroke-linecap:butt; stroke-linejoin:round; stroke-width:2; stroke-opacity:0.1; fill:none" points="
  291.668,1486.45 291.668,47.2441 
  "/>
<polyline clip-path="url(#clip862)" style="stroke:#000000; stroke-linecap:butt; stroke-linejoin:round; stroke-width:2; stroke-opacity:0.1; fill:none" points="
  617.27,1486.45 617.27,47.2441 
  "/>
<polyline clip-path="url(#clip862)" style="stroke:#000000; stroke-linecap:butt; stroke-linejoin:round; stroke-width:2; stroke-opacity:0.1; fill:none" points="
  942.872,1486.45 942.872,47.2441 
  "/>
<polyline clip-path="url(#clip862)" style="stroke:#000000; stroke-linecap:butt; stroke-linejoin:round; stroke-width:2; stroke-opacity:0.1; fill:none" points="
  1268.47,1486.45 1268.47,47.2441 
  "/>
<polyline clip-path="url(#clip862)" style="stroke:#000000; stroke-linecap:butt; stroke-linejoin:round; stroke-width:2; stroke-opacity:0.1; fill:none" points="
  1594.08,1486.45 1594.08,47.2441 
  "/>
<polyline clip-path="url(#clip862)" style="stroke:#000000; stroke-linecap:butt; stroke-linejoin:round; stroke-width:2; stroke-opacity:0.1; fill:none" points="
  1919.68,1486.45 1919.68,47.2441 
  "/>
<polyline clip-path="url(#clip862)" style="stroke:#000000; stroke-linecap:butt; stroke-linejoin:round; stroke-width:2; stroke-opacity:0.1; fill:none" points="
  2245.28,1486.45 2245.28,47.2441 
  "/>
<polyline clip-path="url(#clip860)" style="stroke:#000000; stroke-linecap:butt; stroke-linejoin:round; stroke-width:4; stroke-opacity:1; fill:none" points="
  184.191,1486.45 2352.76,1486.45 
  "/>
<polyline clip-path="url(#clip860)" style="stroke:#000000; stroke-linecap:butt; stroke-linejoin:round; stroke-width:4; stroke-opacity:1; fill:none" points="
  291.668,1486.45 291.668,1467.55 
  "/>
<polyline clip-path="url(#clip860)" style="stroke:#000000; stroke-linecap:butt; stroke-linejoin:round; stroke-width:4; stroke-opacity:1; fill:none" points="
  617.27,1486.45 617.27,1467.55 
  "/>
<polyline clip-path="url(#clip860)" style="stroke:#000000; stroke-linecap:butt; stroke-linejoin:round; stroke-width:4; stroke-opacity:1; fill:none" points="
  942.872,1486.45 942.872,1467.55 
  "/>
<polyline clip-path="url(#clip860)" style="stroke:#000000; stroke-linecap:butt; stroke-linejoin:round; stroke-width:4; stroke-opacity:1; fill:none" points="
  1268.47,1486.45 1268.47,1467.55 
  "/>
<polyline clip-path="url(#clip860)" style="stroke:#000000; stroke-linecap:butt; stroke-linejoin:round; stroke-width:4; stroke-opacity:1; fill:none" points="
  1594.08,1486.45 1594.08,1467.55 
  "/>
<polyline clip-path="url(#clip860)" style="stroke:#000000; stroke-linecap:butt; stroke-linejoin:round; stroke-width:4; stroke-opacity:1; fill:none" points="
  1919.68,1486.45 1919.68,1467.55 
  "/>
<polyline clip-path="url(#clip860)" style="stroke:#000000; stroke-linecap:butt; stroke-linejoin:round; stroke-width:4; stroke-opacity:1; fill:none" points="
  2245.28,1486.45 2245.28,1467.55 
  "/>
<path clip-path="url(#clip860)" d="M261.136 1532.02 L290.812 1532.02 L290.812 1535.95 L261.136 1535.95 L261.136 1532.02 Z" fill="#000000" fill-rule="evenodd" fill-opacity="1" /><path clip-path="url(#clip860)" d="M315.071 1530.21 Q318.427 1530.93 320.302 1533.2 Q322.2 1535.47 322.2 1538.8 Q322.2 1543.92 318.682 1546.72 Q315.163 1549.52 308.682 1549.52 Q306.506 1549.52 304.191 1549.08 Q301.899 1548.66 299.446 1547.81 L299.446 1543.29 Q301.39 1544.43 303.705 1545.01 Q306.02 1545.58 308.543 1545.58 Q312.941 1545.58 315.233 1543.85 Q317.547 1542.11 317.547 1538.8 Q317.547 1535.75 315.395 1534.03 Q313.265 1532.3 309.446 1532.3 L305.418 1532.3 L305.418 1528.45 L309.631 1528.45 Q313.08 1528.45 314.909 1527.09 Q316.737 1525.7 316.737 1523.11 Q316.737 1520.45 314.839 1519.03 Q312.964 1517.6 309.446 1517.6 Q307.524 1517.6 305.325 1518.01 Q303.126 1518.43 300.487 1519.31 L300.487 1515.14 Q303.149 1514.4 305.464 1514.03 Q307.802 1513.66 309.862 1513.66 Q315.186 1513.66 318.288 1516.09 Q321.39 1518.5 321.39 1522.62 Q321.39 1525.49 319.747 1527.48 Q318.103 1529.45 315.071 1530.21 Z" fill="#000000" fill-rule="evenodd" fill-opacity="1" /><path clip-path="url(#clip860)" d="M587.212 1532.02 L616.888 1532.02 L616.888 1535.95 L587.212 1535.95 L587.212 1532.02 Z" fill="#000000" fill-rule="evenodd" fill-opacity="1" /><path clip-path="url(#clip860)" d="M631.008 1544.91 L647.327 1544.91 L647.327 1548.85 L625.383 1548.85 L625.383 1544.91 Q628.045 1542.16 632.628 1537.53 Q637.235 1532.88 638.415 1531.53 Q640.661 1529.01 641.54 1527.27 Q642.443 1525.51 642.443 1523.82 Q642.443 1521.07 640.499 1519.33 Q638.578 1517.6 635.476 1517.6 Q633.277 1517.6 630.823 1518.36 Q628.392 1519.13 625.615 1520.68 L625.615 1515.95 Q628.439 1514.82 630.892 1514.24 Q633.346 1513.66 635.383 1513.66 Q640.753 1513.66 643.948 1516.35 Q647.142 1519.03 647.142 1523.52 Q647.142 1525.65 646.332 1527.57 Q645.545 1529.47 643.439 1532.07 Q642.86 1532.74 639.758 1535.95 Q636.656 1539.15 631.008 1544.91 Z" fill="#000000" fill-rule="evenodd" fill-opacity="1" /><path clip-path="url(#clip860)" d="M912.629 1532.02 L942.304 1532.02 L942.304 1535.95 L912.629 1535.95 L912.629 1532.02 Z" fill="#000000" fill-rule="evenodd" fill-opacity="1" /><path clip-path="url(#clip860)" d="M953.207 1544.91 L960.846 1544.91 L960.846 1518.55 L952.536 1520.21 L952.536 1515.95 L960.8 1514.29 L965.476 1514.29 L965.476 1544.91 L973.114 1544.91 L973.114 1548.85 L953.207 1548.85 L953.207 1544.91 Z" fill="#000000" fill-rule="evenodd" fill-opacity="1" /><path clip-path="url(#clip860)" d="M1268.47 1517.37 Q1264.86 1517.37 1263.03 1520.93 Q1261.23 1524.47 1261.23 1531.6 Q1261.23 1538.71 1263.03 1542.27 Q1264.86 1545.82 1268.47 1545.82 Q1272.11 1545.82 1273.91 1542.27 Q1275.74 1538.71 1275.74 1531.6 Q1275.74 1524.47 1273.91 1520.93 Q1272.11 1517.37 1268.47 1517.37 M1268.47 1513.66 Q1274.28 1513.66 1277.34 1518.27 Q1280.42 1522.85 1280.42 1531.6 Q1280.42 1540.33 1277.34 1544.94 Q1274.28 1549.52 1268.47 1549.52 Q1262.66 1549.52 1259.58 1544.94 Q1256.53 1540.33 1256.53 1531.6 Q1256.53 1522.85 1259.58 1518.27 Q1262.66 1513.66 1268.47 1513.66 Z" fill="#000000" fill-rule="evenodd" fill-opacity="1" /><path clip-path="url(#clip860)" d="M1584.46 1544.91 L1592.1 1544.91 L1592.1 1518.55 L1583.79 1520.21 L1583.79 1515.95 L1592.05 1514.29 L1596.73 1514.29 L1596.73 1544.91 L1604.36 1544.91 L1604.36 1548.85 L1584.46 1548.85 L1584.46 1544.91 Z" fill="#000000" fill-rule="evenodd" fill-opacity="1" /><path clip-path="url(#clip860)" d="M1914.33 1544.91 L1930.65 1544.91 L1930.65 1548.85 L1908.7 1548.85 L1908.7 1544.91 Q1911.37 1542.16 1915.95 1537.53 Q1920.56 1532.88 1921.74 1531.53 Q1923.98 1529.01 1924.86 1527.27 Q1925.76 1525.51 1925.76 1523.82 Q1925.76 1521.07 1923.82 1519.33 Q1921.9 1517.6 1918.8 1517.6 Q1916.6 1517.6 1914.14 1518.36 Q1911.71 1519.13 1908.94 1520.68 L1908.94 1515.95 Q1911.76 1514.82 1914.21 1514.24 Q1916.67 1513.66 1918.7 1513.66 Q1924.07 1513.66 1927.27 1516.35 Q1930.46 1519.03 1930.46 1523.52 Q1930.46 1525.65 1929.65 1527.57 Q1928.87 1529.47 1926.76 1532.07 Q1926.18 1532.74 1923.08 1535.95 Q1919.98 1539.15 1914.33 1544.91 Z" fill="#000000" fill-rule="evenodd" fill-opacity="1" /><path clip-path="url(#clip860)" d="M2249.53 1530.21 Q2252.88 1530.93 2254.76 1533.2 Q2256.66 1535.47 2256.66 1538.8 Q2256.66 1543.92 2253.14 1546.72 Q2249.62 1549.52 2243.14 1549.52 Q2240.96 1549.52 2238.65 1549.08 Q2236.36 1548.66 2233.9 1547.81 L2233.9 1543.29 Q2235.85 1544.43 2238.16 1545.01 Q2240.48 1545.58 2243 1545.58 Q2247.4 1545.58 2249.69 1543.85 Q2252 1542.11 2252 1538.8 Q2252 1535.75 2249.85 1534.03 Q2247.72 1532.3 2243.9 1532.3 L2239.87 1532.3 L2239.87 1528.45 L2244.09 1528.45 Q2247.54 1528.45 2249.36 1527.09 Q2251.19 1525.7 2251.19 1523.11 Q2251.19 1520.45 2249.29 1519.03 Q2247.42 1517.6 2243.9 1517.6 Q2241.98 1517.6 2239.78 1518.01 Q2237.58 1518.43 2234.94 1519.31 L2234.94 1515.14 Q2237.61 1514.4 2239.92 1514.03 Q2242.26 1513.66 2244.32 1513.66 Q2249.64 1513.66 2252.74 1516.09 Q2255.85 1518.5 2255.85 1522.62 Q2255.85 1525.49 2254.2 1527.48 Q2252.56 1529.45 2249.53 1530.21 Z" fill="#000000" fill-rule="evenodd" fill-opacity="1" /><polyline clip-path="url(#clip862)" style="stroke:#000000; stroke-linecap:butt; stroke-linejoin:round; stroke-width:2; stroke-opacity:0.1; fill:none" points="
  184.191,1445.74 2352.76,1445.74 
  "/>
<polyline clip-path="url(#clip862)" style="stroke:#000000; stroke-linecap:butt; stroke-linejoin:round; stroke-width:2; stroke-opacity:0.1; fill:none" points="
  184.191,1101.82 2352.76,1101.82 
  "/>
<polyline clip-path="url(#clip862)" style="stroke:#000000; stroke-linecap:butt; stroke-linejoin:round; stroke-width:2; stroke-opacity:0.1; fill:none" points="
  184.191,757.891 2352.76,757.891 
  "/>
<polyline clip-path="url(#clip862)" style="stroke:#000000; stroke-linecap:butt; stroke-linejoin:round; stroke-width:2; stroke-opacity:0.1; fill:none" points="
  184.191,413.964 2352.76,413.964 
  "/>
<polyline clip-path="url(#clip862)" style="stroke:#000000; stroke-linecap:butt; stroke-linejoin:round; stroke-width:2; stroke-opacity:0.1; fill:none" points="
  184.191,70.0377 2352.76,70.0377 
  "/>
<polyline clip-path="url(#clip860)" style="stroke:#000000; stroke-linecap:butt; stroke-linejoin:round; stroke-width:4; stroke-opacity:1; fill:none" points="
  184.191,1486.45 184.191,47.2441 
  "/>
<polyline clip-path="url(#clip860)" style="stroke:#000000; stroke-linecap:butt; stroke-linejoin:round; stroke-width:4; stroke-opacity:1; fill:none" points="
  184.191,1445.74 203.088,1445.74 
  "/>
<polyline clip-path="url(#clip860)" style="stroke:#000000; stroke-linecap:butt; stroke-linejoin:round; stroke-width:4; stroke-opacity:1; fill:none" points="
  184.191,1101.82 203.088,1101.82 
  "/>
<polyline clip-path="url(#clip860)" style="stroke:#000000; stroke-linecap:butt; stroke-linejoin:round; stroke-width:4; stroke-opacity:1; fill:none" points="
  184.191,757.891 203.088,757.891 
  "/>
<polyline clip-path="url(#clip860)" style="stroke:#000000; stroke-linecap:butt; stroke-linejoin:round; stroke-width:4; stroke-opacity:1; fill:none" points="
  184.191,413.964 203.088,413.964 
  "/>
<polyline clip-path="url(#clip860)" style="stroke:#000000; stroke-linecap:butt; stroke-linejoin:round; stroke-width:4; stroke-opacity:1; fill:none" points="
  184.191,70.0377 203.088,70.0377 
  "/>
<path clip-path="url(#clip860)" d="M91.0151 1431.54 Q87.404 1431.54 85.5753 1435.11 Q83.7697 1438.65 83.7697 1445.78 Q83.7697 1452.88 85.5753 1456.45 Q87.404 1459.99 91.0151 1459.99 Q94.6493 1459.99 96.4548 1456.45 Q98.2835 1452.88 98.2835 1445.78 Q98.2835 1438.65 96.4548 1435.11 Q94.6493 1431.54 91.0151 1431.54 M91.0151 1427.84 Q96.8252 1427.84 99.8808 1432.45 Q102.959 1437.03 102.959 1445.78 Q102.959 1454.51 99.8808 1459.11 Q96.8252 1463.7 91.0151 1463.7 Q85.2049 1463.7 82.1262 1459.11 Q79.0707 1454.51 79.0707 1445.78 Q79.0707 1437.03 82.1262 1432.45 Q85.2049 1427.84 91.0151 1427.84 Z" fill="#000000" fill-rule="evenodd" fill-opacity="1" /><path clip-path="url(#clip860)" d="M111.177 1457.14 L116.061 1457.14 L116.061 1463.02 L111.177 1463.02 L111.177 1457.14 Z" fill="#000000" fill-rule="evenodd" fill-opacity="1" /><path clip-path="url(#clip860)" d="M136.246 1431.54 Q132.635 1431.54 130.807 1435.11 Q129.001 1438.65 129.001 1445.78 Q129.001 1452.88 130.807 1456.45 Q132.635 1459.99 136.246 1459.99 Q139.881 1459.99 141.686 1456.45 Q143.515 1452.88 143.515 1445.78 Q143.515 1438.65 141.686 1435.11 Q139.881 1431.54 136.246 1431.54 M136.246 1427.84 Q142.056 1427.84 145.112 1432.45 Q148.191 1437.03 148.191 1445.78 Q148.191 1454.51 145.112 1459.11 Q142.056 1463.7 136.246 1463.7 Q130.436 1463.7 127.357 1459.11 Q124.302 1454.51 124.302 1445.78 Q124.302 1437.03 127.357 1432.45 Q130.436 1427.84 136.246 1427.84 Z" fill="#000000" fill-rule="evenodd" fill-opacity="1" /><path clip-path="url(#clip860)" d="M86.0382 1115.16 L102.358 1115.16 L102.358 1119.1 L80.4133 1119.1 L80.4133 1115.16 Q83.0753 1112.41 87.6586 1107.78 Q92.2651 1103.13 93.4456 1101.78 Q95.691 1099.26 96.5706 1097.52 Q97.4734 1095.76 97.4734 1094.07 Q97.4734 1091.32 95.5289 1089.58 Q93.6076 1087.85 90.5058 1087.85 Q88.3067 1087.85 85.8531 1088.61 Q83.4225 1089.38 80.6447 1090.93 L80.6447 1086.2 Q83.4688 1085.07 85.9225 1084.49 Q88.3762 1083.91 90.4132 1083.91 Q95.7836 1083.91 98.978 1086.6 Q102.172 1089.28 102.172 1093.77 Q102.172 1095.9 101.362 1097.82 Q100.575 1099.72 98.4687 1102.31 Q97.89 1102.99 94.7882 1106.2 Q91.6864 1109.4 86.0382 1115.16 Z" fill="#000000" fill-rule="evenodd" fill-opacity="1" /><path clip-path="url(#clip860)" d="M112.172 1113.22 L117.057 1113.22 L117.057 1119.1 L112.172 1119.1 L112.172 1113.22 Z" fill="#000000" fill-rule="evenodd" fill-opacity="1" /><path clip-path="url(#clip860)" d="M127.288 1084.54 L145.644 1084.54 L145.644 1088.47 L131.57 1088.47 L131.57 1096.94 Q132.589 1096.6 133.607 1096.44 Q134.626 1096.25 135.644 1096.25 Q141.431 1096.25 144.811 1099.42 Q148.191 1102.59 148.191 1108.01 Q148.191 1113.59 144.718 1116.69 Q141.246 1119.77 134.927 1119.77 Q132.751 1119.77 130.482 1119.4 Q128.237 1119.03 125.83 1118.29 L125.83 1113.59 Q127.913 1114.72 130.135 1115.28 Q132.357 1115.83 134.834 1115.83 Q138.839 1115.83 141.177 1113.73 Q143.515 1111.62 143.515 1108.01 Q143.515 1104.4 141.177 1102.29 Q138.839 1100.19 134.834 1100.19 Q132.959 1100.19 131.084 1100.6 Q129.232 1101.02 127.288 1101.9 L127.288 1084.54 Z" fill="#000000" fill-rule="evenodd" fill-opacity="1" /><path clip-path="url(#clip860)" d="M81.0614 740.611 L99.4178 740.611 L99.4178 744.546 L85.3438 744.546 L85.3438 753.018 Q86.3623 752.671 87.3808 752.509 Q88.3993 752.324 89.4178 752.324 Q95.2049 752.324 98.5845 755.495 Q101.964 758.666 101.964 764.083 Q101.964 769.661 98.4919 772.763 Q95.0197 775.842 88.7003 775.842 Q86.5243 775.842 84.2558 775.472 Q82.0105 775.101 79.6031 774.361 L79.6031 769.661 Q81.6864 770.796 83.9086 771.351 Q86.1308 771.907 88.6077 771.907 Q92.6123 771.907 94.9502 769.8 Q97.2882 767.694 97.2882 764.083 Q97.2882 760.472 94.9502 758.365 Q92.6123 756.259 88.6077 756.259 Q86.7327 756.259 84.8577 756.675 Q83.0058 757.092 81.0614 757.972 L81.0614 740.611 Z" fill="#000000" fill-rule="evenodd" fill-opacity="1" /><path clip-path="url(#clip860)" d="M111.177 769.291 L116.061 769.291 L116.061 775.171 L111.177 775.171 L111.177 769.291 Z" fill="#000000" fill-rule="evenodd" fill-opacity="1" /><path clip-path="url(#clip860)" d="M136.246 743.689 Q132.635 743.689 130.807 747.254 Q129.001 750.796 129.001 757.925 Q129.001 765.032 130.807 768.597 Q132.635 772.138 136.246 772.138 Q139.881 772.138 141.686 768.597 Q143.515 765.032 143.515 757.925 Q143.515 750.796 141.686 747.254 Q139.881 743.689 136.246 743.689 M136.246 739.986 Q142.056 739.986 145.112 744.592 Q148.191 749.175 148.191 757.925 Q148.191 766.652 145.112 771.259 Q142.056 775.842 136.246 775.842 Q130.436 775.842 127.357 771.259 Q124.302 766.652 124.302 757.925 Q124.302 749.175 127.357 744.592 Q130.436 739.986 136.246 739.986 Z" fill="#000000" fill-rule="evenodd" fill-opacity="1" /><path clip-path="url(#clip860)" d="M80.8299 396.684 L103.052 396.684 L103.052 398.675 L90.5058 431.244 L85.6216 431.244 L97.4271 400.619 L80.8299 400.619 L80.8299 396.684 Z" fill="#000000" fill-rule="evenodd" fill-opacity="1" /><path clip-path="url(#clip860)" d="M112.172 425.365 L117.057 425.365 L117.057 431.244 L112.172 431.244 L112.172 425.365 Z" fill="#000000" fill-rule="evenodd" fill-opacity="1" /><path clip-path="url(#clip860)" d="M127.288 396.684 L145.644 396.684 L145.644 400.619 L131.57 400.619 L131.57 409.092 Q132.589 408.744 133.607 408.582 Q134.626 408.397 135.644 408.397 Q141.431 408.397 144.811 411.568 Q148.191 414.74 148.191 420.156 Q148.191 425.735 144.718 428.837 Q141.246 431.915 134.927 431.915 Q132.751 431.915 130.482 431.545 Q128.237 431.175 125.83 430.434 L125.83 425.735 Q127.913 426.869 130.135 427.425 Q132.357 427.98 134.834 427.98 Q138.839 427.98 141.177 425.874 Q143.515 423.767 143.515 420.156 Q143.515 416.545 141.177 414.439 Q138.839 412.332 134.834 412.332 Q132.959 412.332 131.084 412.749 Q129.232 413.166 127.288 414.045 L127.288 396.684 Z" fill="#000000" fill-rule="evenodd" fill-opacity="1" /><path clip-path="url(#clip860)" d="M51.6634 83.3825 L59.3023 83.3825 L59.3023 57.0169 L50.9921 58.6836 L50.9921 54.4243 L59.256 52.7577 L63.9319 52.7577 L63.9319 83.3825 L71.5707 83.3825 L71.5707 87.3177 L51.6634 87.3177 L51.6634 83.3825 Z" fill="#000000" fill-rule="evenodd" fill-opacity="1" /><path clip-path="url(#clip860)" d="M91.0151 55.8364 Q87.404 55.8364 85.5753 59.4012 Q83.7697 62.9428 83.7697 70.0724 Q83.7697 77.1788 85.5753 80.7436 Q87.404 84.2853 91.0151 84.2853 Q94.6493 84.2853 96.4548 80.7436 Q98.2835 77.1788 98.2835 70.0724 Q98.2835 62.9428 96.4548 59.4012 Q94.6493 55.8364 91.0151 55.8364 M91.0151 52.1327 Q96.8252 52.1327 99.8808 56.7391 Q102.959 61.3224 102.959 70.0724 Q102.959 78.7992 99.8808 83.4057 Q96.8252 87.989 91.0151 87.989 Q85.2049 87.989 82.1262 83.4057 Q79.0707 78.7992 79.0707 70.0724 Q79.0707 61.3224 82.1262 56.7391 Q85.2049 52.1327 91.0151 52.1327 Z" fill="#000000" fill-rule="evenodd" fill-opacity="1" /><path clip-path="url(#clip860)" d="M111.177 81.4381 L116.061 81.4381 L116.061 87.3177 L111.177 87.3177 L111.177 81.4381 Z" fill="#000000" fill-rule="evenodd" fill-opacity="1" /><path clip-path="url(#clip860)" d="M136.246 55.8364 Q132.635 55.8364 130.807 59.4012 Q129.001 62.9428 129.001 70.0724 Q129.001 77.1788 130.807 80.7436 Q132.635 84.2853 136.246 84.2853 Q139.881 84.2853 141.686 80.7436 Q143.515 77.1788 143.515 70.0724 Q143.515 62.9428 141.686 59.4012 Q139.881 55.8364 136.246 55.8364 M136.246 52.1327 Q142.056 52.1327 145.112 56.7391 Q148.191 61.3224 148.191 70.0724 Q148.191 78.7992 145.112 83.4057 Q142.056 87.989 136.246 87.989 Q130.436 87.989 127.357 83.4057 Q124.302 78.7992 124.302 70.0724 Q124.302 61.3224 127.357 56.7391 Q130.436 52.1327 136.246 52.1327 Z" fill="#000000" fill-rule="evenodd" fill-opacity="1" /><polyline clip-path="url(#clip862)" style="stroke:#009af9; stroke-linecap:butt; stroke-linejoin:round; stroke-width:12; stroke-opacity:1; fill:none" points="
  245.565,895.461 316.111,901.894 386.656,920.891 457.201,951.565 527.747,992.48 598.292,1041.72 668.837,1096.99 739.383,1155.71 809.928,1215.12 880.474,1272.44 
  951.019,1325.01 1021.56,1370.35 1092.11,1406.36 1162.66,1431.34 1233.2,1444.13 1303.75,1444.13 1374.29,1431.34 1444.84,1406.36 1515.38,1370.35 1585.93,1325.01 
  1656.47,1272.44 1727.02,1215.12 1797.56,1155.71 1868.11,1096.99 1938.65,1041.72 2009.2,992.48 2079.75,951.565 2150.29,920.891 2220.84,901.894 2291.38,895.461 
  
  "/>
<circle clip-path="url(#clip862)" cx="245.565" cy="895.461" r="14.4" fill="#009af9" fill-rule="evenodd" fill-opacity="1" stroke="#000000" stroke-opacity="1" stroke-width="3.2"/>
<circle clip-path="url(#clip862)" cx="316.111" cy="901.894" r="14.4" fill="#009af9" fill-rule="evenodd" fill-opacity="1" stroke="#000000" stroke-opacity="1" stroke-width="3.2"/>
<circle clip-path="url(#clip862)" cx="386.656" cy="920.891" r="14.4" fill="#009af9" fill-rule="evenodd" fill-opacity="1" stroke="#000000" stroke-opacity="1" stroke-width="3.2"/>
<circle clip-path="url(#clip862)" cx="457.201" cy="951.565" r="14.4" fill="#009af9" fill-rule="evenodd" fill-opacity="1" stroke="#000000" stroke-opacity="1" stroke-width="3.2"/>
<circle clip-path="url(#clip862)" cx="527.747" cy="992.48" r="14.4" fill="#009af9" fill-rule="evenodd" fill-opacity="1" stroke="#000000" stroke-opacity="1" stroke-width="3.2"/>
<circle clip-path="url(#clip862)" cx="598.292" cy="1041.72" r="14.4" fill="#009af9" fill-rule="evenodd" fill-opacity="1" stroke="#000000" stroke-opacity="1" stroke-width="3.2"/>
<circle clip-path="url(#clip862)" cx="668.837" cy="1096.99" r="14.4" fill="#009af9" fill-rule="evenodd" fill-opacity="1" stroke="#000000" stroke-opacity="1" stroke-width="3.2"/>
<circle clip-path="url(#clip862)" cx="739.383" cy="1155.71" r="14.4" fill="#009af9" fill-rule="evenodd" fill-opacity="1" stroke="#000000" stroke-opacity="1" stroke-width="3.2"/>
<circle clip-path="url(#clip862)" cx="809.928" cy="1215.12" r="14.4" fill="#009af9" fill-rule="evenodd" fill-opacity="1" stroke="#000000" stroke-opacity="1" stroke-width="3.2"/>
<circle clip-path="url(#clip862)" cx="880.474" cy="1272.44" r="14.4" fill="#009af9" fill-rule="evenodd" fill-opacity="1" stroke="#000000" stroke-opacity="1" stroke-width="3.2"/>
<circle clip-path="url(#clip862)" cx="951.019" cy="1325.01" r="14.4" fill="#009af9" fill-rule="evenodd" fill-opacity="1" stroke="#000000" stroke-opacity="1" stroke-width="3.2"/>
<circle clip-path="url(#clip862)" cx="1021.56" cy="1370.35" r="14.4" fill="#009af9" fill-rule="evenodd" fill-opacity="1" stroke="#000000" stroke-opacity="1" stroke-width="3.2"/>
<circle clip-path="url(#clip862)" cx="1092.11" cy="1406.36" r="14.4" fill="#009af9" fill-rule="evenodd" fill-opacity="1" stroke="#000000" stroke-opacity="1" stroke-width="3.2"/>
<circle clip-path="url(#clip862)" cx="1162.66" cy="1431.34" r="14.4" fill="#009af9" fill-rule="evenodd" fill-opacity="1" stroke="#000000" stroke-opacity="1" stroke-width="3.2"/>
<circle clip-path="url(#clip862)" cx="1233.2" cy="1444.13" r="14.4" fill="#009af9" fill-rule="evenodd" fill-opacity="1" stroke="#000000" stroke-opacity="1" stroke-width="3.2"/>
<circle clip-path="url(#clip862)" cx="1303.75" cy="1444.13" r="14.4" fill="#009af9" fill-rule="evenodd" fill-opacity="1" stroke="#000000" stroke-opacity="1" stroke-width="3.2"/>
<circle clip-path="url(#clip862)" cx="1374.29" cy="1431.34" r="14.4" fill="#009af9" fill-rule="evenodd" fill-opacity="1" stroke="#000000" stroke-opacity="1" stroke-width="3.2"/>
<circle clip-path="url(#clip862)" cx="1444.84" cy="1406.36" r="14.4" fill="#009af9" fill-rule="evenodd" fill-opacity="1" stroke="#000000" stroke-opacity="1" stroke-width="3.2"/>
<circle clip-path="url(#clip862)" cx="1515.38" cy="1370.35" r="14.4" fill="#009af9" fill-rule="evenodd" fill-opacity="1" stroke="#000000" stroke-opacity="1" stroke-width="3.2"/>
<circle clip-path="url(#clip862)" cx="1585.93" cy="1325.01" r="14.4" fill="#009af9" fill-rule="evenodd" fill-opacity="1" stroke="#000000" stroke-opacity="1" stroke-width="3.2"/>
<circle clip-path="url(#clip862)" cx="1656.47" cy="1272.44" r="14.4" fill="#009af9" fill-rule="evenodd" fill-opacity="1" stroke="#000000" stroke-opacity="1" stroke-width="3.2"/>
<circle clip-path="url(#clip862)" cx="1727.02" cy="1215.12" r="14.4" fill="#009af9" fill-rule="evenodd" fill-opacity="1" stroke="#000000" stroke-opacity="1" stroke-width="3.2"/>
<circle clip-path="url(#clip862)" cx="1797.56" cy="1155.71" r="14.4" fill="#009af9" fill-rule="evenodd" fill-opacity="1" stroke="#000000" stroke-opacity="1" stroke-width="3.2"/>
<circle clip-path="url(#clip862)" cx="1868.11" cy="1096.99" r="14.4" fill="#009af9" fill-rule="evenodd" fill-opacity="1" stroke="#000000" stroke-opacity="1" stroke-width="3.2"/>
<circle clip-path="url(#clip862)" cx="1938.65" cy="1041.72" r="14.4" fill="#009af9" fill-rule="evenodd" fill-opacity="1" stroke="#000000" stroke-opacity="1" stroke-width="3.2"/>
<circle clip-path="url(#clip862)" cx="2009.2" cy="992.48" r="14.4" fill="#009af9" fill-rule="evenodd" fill-opacity="1" stroke="#000000" stroke-opacity="1" stroke-width="3.2"/>
<circle clip-path="url(#clip862)" cx="2079.75" cy="951.565" r="14.4" fill="#009af9" fill-rule="evenodd" fill-opacity="1" stroke="#000000" stroke-opacity="1" stroke-width="3.2"/>
<circle clip-path="url(#clip862)" cx="2150.29" cy="920.891" r="14.4" fill="#009af9" fill-rule="evenodd" fill-opacity="1" stroke="#000000" stroke-opacity="1" stroke-width="3.2"/>
<circle clip-path="url(#clip862)" cx="2220.84" cy="901.894" r="14.4" fill="#009af9" fill-rule="evenodd" fill-opacity="1" stroke="#000000" stroke-opacity="1" stroke-width="3.2"/>
<circle clip-path="url(#clip862)" cx="2291.38" cy="895.461" r="14.4" fill="#009af9" fill-rule="evenodd" fill-opacity="1" stroke="#000000" stroke-opacity="1" stroke-width="3.2"/>
<polyline clip-path="url(#clip862)" style="stroke:#e26f46; stroke-linecap:butt; stroke-linejoin:round; stroke-width:12; stroke-opacity:1; fill:none" points="
  245.565,87.9763 248.895,96.8017 252.225,105.598 255.555,114.366 258.885,123.105 289.674,202.548 320.463,279.53 351.252,354.052 382.041,426.113 419.048,509.47 
  456.054,589.272 487.342,653.971 518.63,716.13 552.618,780.772 586.605,842.417 617.939,896.592 649.273,948.219 682.866,1000.74 716.459,1050.33 735.919,1077.72 
  755.38,1104.12 774.84,1129.54 794.3,1153.98 828.889,1195 863.477,1232.9 893.808,1263.59 924.138,1291.89 957.207,1320.02 990.276,1345.31 1023.54,1367.9 
  1056.81,1387.61 1093.58,1406.05 1130.36,1420.99 1165.36,1431.95 1200.35,1439.72 1236.74,1444.44 1273.12,1445.72 1303.75,1444.13 1334.38,1440.11 1353.08,1436.45 
  1371.78,1431.9 1390.47,1426.43 1409.17,1420.06 1443.43,1406.02 1477.68,1388.95 1509.32,1370.47 1540.96,1349.4 1573.01,1325.4 1605.06,1298.74 1640.97,1265.69 
  1676.89,1229.29 1709.44,1193.42 1741.98,1154.8 1760.62,1131.45 1779.25,1107.2 1797.88,1082.05 1816.51,1056 1851.01,1005.39 1885.52,951.678 1919.53,895.704 
  1953.55,836.726 1986.58,776.591 2019.6,713.625 2053.46,646.139 2087.32,575.677 2105.86,535.817 2124.41,495.063 2142.96,453.417 2161.5,410.878 2188.45,347.494 
  2215.39,282.225 2242.33,215.072 2269.27,146.036 2274.8,131.64 2280.33,117.165 2285.85,102.61 2291.38,87.9763 
  "/>
<path clip-path="url(#clip860)" d="
M1891.63 250.738 L2280.47 250.738 L2280.47 95.2176 L1891.63 95.2176  Z
  " fill="#ffffff" fill-rule="evenodd" fill-opacity="1"/>
<polyline clip-path="url(#clip860)" style="stroke:#000000; stroke-linecap:butt; stroke-linejoin:round; stroke-width:4; stroke-opacity:1; fill:none" points="
  1891.63,250.738 2280.47,250.738 2280.47,95.2176 1891.63,95.2176 1891.63,250.738 
  "/>
<polyline clip-path="url(#clip860)" style="stroke:#009af9; stroke-linecap:butt; stroke-linejoin:round; stroke-width:4; stroke-opacity:1; fill:none" points="
  1915.72,147.058 2060.29,147.058 
  "/>
<circle clip-path="url(#clip860)" cx="1988.01" cy="147.058" r="23.04" fill="#009af9" fill-rule="evenodd" fill-opacity="1" stroke="#000000" stroke-opacity="1" stroke-width="5.12"/>
<path clip-path="url(#clip860)" d="M2102.81 139.176 L2102.81 143.203 Q2101.01 142.277 2099.06 141.815 Q2097.12 141.352 2095.04 141.352 Q2091.86 141.352 2090.27 142.324 Q2088.69 143.296 2088.69 145.24 Q2088.69 146.722 2089.83 147.578 Q2090.96 148.412 2094.39 149.176 L2095.85 149.5 Q2100.38 150.472 2102.28 152.254 Q2104.2 154.014 2104.2 157.185 Q2104.2 160.796 2101.33 162.902 Q2098.48 165.009 2093.48 165.009 Q2091.4 165.009 2089.13 164.592 Q2086.89 164.199 2084.39 163.388 L2084.39 158.99 Q2086.75 160.217 2089.04 160.842 Q2091.33 161.444 2093.58 161.444 Q2096.59 161.444 2098.21 160.426 Q2099.83 159.384 2099.83 157.509 Q2099.83 155.773 2098.65 154.847 Q2097.49 153.921 2093.53 153.064 L2092.05 152.717 Q2088.09 151.884 2086.33 150.171 Q2084.57 148.435 2084.57 145.426 Q2084.57 141.768 2087.17 139.778 Q2089.76 137.787 2094.53 137.787 Q2096.89 137.787 2098.97 138.134 Q2101.05 138.481 2102.81 139.176 Z" fill="#000000" fill-rule="evenodd" fill-opacity="1" /><path clip-path="url(#clip860)" d="M2115.2 131.051 L2115.2 138.412 L2123.97 138.412 L2123.97 141.722 L2115.2 141.722 L2115.2 155.796 Q2115.2 158.967 2116.05 159.87 Q2116.93 160.773 2119.6 160.773 L2123.97 160.773 L2123.97 164.338 L2119.6 164.338 Q2114.66 164.338 2112.79 162.509 Q2110.91 160.657 2110.91 155.796 L2110.91 141.722 L2107.79 141.722 L2107.79 138.412 L2110.91 138.412 L2110.91 131.051 L2115.2 131.051 Z" fill="#000000" fill-rule="evenodd" fill-opacity="1" /><path clip-path="url(#clip860)" d="M2151.75 150.31 L2151.75 152.393 L2132.16 152.393 Q2132.44 156.791 2134.8 159.106 Q2137.19 161.398 2141.42 161.398 Q2143.88 161.398 2146.17 160.796 Q2148.48 160.194 2150.75 158.99 L2150.75 163.018 Q2148.46 163.99 2146.05 164.5 Q2143.65 165.009 2141.17 165.009 Q2134.97 165.009 2131.33 161.398 Q2127.72 157.787 2127.72 151.629 Q2127.72 145.264 2131.15 141.537 Q2134.6 137.787 2140.43 137.787 Q2145.66 137.787 2148.69 141.166 Q2151.75 144.523 2151.75 150.31 M2147.49 149.06 Q2147.44 145.565 2145.52 143.481 Q2143.62 141.398 2140.47 141.398 Q2136.91 141.398 2134.76 143.412 Q2132.63 145.426 2132.3 149.083 L2147.49 149.06 Z" fill="#000000" fill-rule="evenodd" fill-opacity="1" /><path clip-path="url(#clip860)" d="M2180.29 148.689 L2180.29 164.338 L2176.03 164.338 L2176.03 148.828 Q2176.03 145.148 2174.6 143.319 Q2173.16 141.49 2170.29 141.49 Q2166.84 141.49 2164.85 143.69 Q2162.86 145.889 2162.86 149.685 L2162.86 164.338 L2158.58 164.338 L2158.58 138.412 L2162.86 138.412 L2162.86 142.44 Q2164.39 140.102 2166.45 138.944 Q2168.53 137.787 2171.24 137.787 Q2175.71 137.787 2178 140.565 Q2180.29 143.319 2180.29 148.689 Z" fill="#000000" fill-rule="evenodd" fill-opacity="1" /><path clip-path="url(#clip860)" d="M2207.44 139.407 L2207.44 143.389 Q2205.64 142.393 2203.81 141.907 Q2202 141.398 2200.15 141.398 Q2196.01 141.398 2193.72 144.037 Q2191.42 146.652 2191.42 151.398 Q2191.42 156.143 2193.72 158.782 Q2196.01 161.398 2200.15 161.398 Q2202 161.398 2203.81 160.912 Q2205.64 160.402 2207.44 159.407 L2207.44 163.342 Q2205.66 164.176 2203.74 164.592 Q2201.84 165.009 2199.69 165.009 Q2193.83 165.009 2190.38 161.328 Q2186.93 157.648 2186.93 151.398 Q2186.93 145.055 2190.41 141.421 Q2193.9 137.787 2199.97 137.787 Q2201.93 137.787 2203.81 138.203 Q2205.68 138.597 2207.44 139.407 Z" fill="#000000" fill-rule="evenodd" fill-opacity="1" /><path clip-path="url(#clip860)" d="M2214.85 138.412 L2219.11 138.412 L2219.11 164.338 L2214.85 164.338 L2214.85 138.412 M2214.85 128.319 L2219.11 128.319 L2219.11 133.713 L2214.85 133.713 L2214.85 128.319 Z" fill="#000000" fill-rule="evenodd" fill-opacity="1" /><path clip-path="url(#clip860)" d="M2228.02 128.319 L2232.28 128.319 L2232.28 164.338 L2228.02 164.338 L2228.02 128.319 Z" fill="#000000" fill-rule="evenodd" fill-opacity="1" /><polyline clip-path="url(#clip860)" style="stroke:#e26f46; stroke-linecap:butt; stroke-linejoin:round; stroke-width:4; stroke-opacity:1; fill:none" points="
  1915.72,198.898 2060.29,198.898 
  "/>
<path clip-path="url(#clip860)" d="M2108.41 202.15 L2108.41 204.233 L2088.83 204.233 Q2089.11 208.631 2091.47 210.946 Q2093.85 213.238 2098.09 213.238 Q2100.54 213.238 2102.84 212.636 Q2105.15 212.034 2107.42 210.83 L2107.42 214.858 Q2105.13 215.83 2102.72 216.34 Q2100.31 216.849 2097.84 216.849 Q2091.63 216.849 2088 213.238 Q2084.39 209.627 2084.39 203.469 Q2084.39 197.104 2087.81 193.377 Q2091.26 189.627 2097.1 189.627 Q2102.33 189.627 2105.36 193.006 Q2108.41 196.363 2108.41 202.15 M2104.16 200.9 Q2104.11 197.405 2102.19 195.321 Q2100.29 193.238 2097.14 193.238 Q2093.58 193.238 2091.42 195.252 Q2089.29 197.266 2088.97 200.923 L2104.16 200.9 Z" fill="#000000" fill-rule="evenodd" fill-opacity="1" /><path clip-path="url(#clip860)" d="M2136.12 190.252 L2126.75 202.867 L2136.61 216.178 L2131.59 216.178 L2124.04 205.992 L2116.49 216.178 L2111.47 216.178 L2121.54 202.613 L2112.33 190.252 L2117.35 190.252 L2124.23 199.488 L2131.1 190.252 L2136.12 190.252 Z" fill="#000000" fill-rule="evenodd" fill-opacity="1" /><path clip-path="url(#clip860)" d="M2154.41 203.145 Q2149.25 203.145 2147.26 204.326 Q2145.27 205.506 2145.27 208.354 Q2145.27 210.622 2146.75 211.965 Q2148.25 213.284 2150.82 213.284 Q2154.36 213.284 2156.49 210.784 Q2158.65 208.261 2158.65 204.094 L2158.65 203.145 L2154.41 203.145 M2162.91 201.386 L2162.91 216.178 L2158.65 216.178 L2158.65 212.242 Q2157.19 214.603 2155.01 215.738 Q2152.84 216.849 2149.69 216.849 Q2145.71 216.849 2143.35 214.627 Q2141.01 212.381 2141.01 208.631 Q2141.01 204.256 2143.92 202.034 Q2146.86 199.812 2152.67 199.812 L2158.65 199.812 L2158.65 199.395 Q2158.65 196.455 2156.7 194.858 Q2154.78 193.238 2151.29 193.238 Q2149.06 193.238 2146.96 193.77 Q2144.85 194.303 2142.91 195.367 L2142.91 191.432 Q2145.24 190.53 2147.44 190.09 Q2149.64 189.627 2151.72 189.627 Q2157.35 189.627 2160.13 192.543 Q2162.91 195.46 2162.91 201.386 Z" fill="#000000" fill-rule="evenodd" fill-opacity="1" /><path clip-path="url(#clip860)" d="M2190.34 191.247 L2190.34 195.229 Q2188.53 194.233 2186.7 193.747 Q2184.9 193.238 2183.04 193.238 Q2178.9 193.238 2176.61 195.877 Q2174.32 198.492 2174.32 203.238 Q2174.32 207.983 2176.61 210.622 Q2178.9 213.238 2183.04 213.238 Q2184.9 213.238 2186.7 212.752 Q2188.53 212.242 2190.34 211.247 L2190.34 215.182 Q2188.55 216.016 2186.63 216.432 Q2184.73 216.849 2182.58 216.849 Q2176.72 216.849 2173.28 213.168 Q2169.83 209.488 2169.83 203.238 Q2169.83 196.895 2173.3 193.261 Q2176.79 189.627 2182.86 189.627 Q2184.83 189.627 2186.7 190.043 Q2188.58 190.437 2190.34 191.247 Z" fill="#000000" fill-rule="evenodd" fill-opacity="1" /><path clip-path="url(#clip860)" d="M2201.96 182.891 L2201.96 190.252 L2210.73 190.252 L2210.73 193.562 L2201.96 193.562 L2201.96 207.636 Q2201.96 210.807 2202.81 211.71 Q2203.69 212.613 2206.35 212.613 L2210.73 212.613 L2210.73 216.178 L2206.35 216.178 Q2201.42 216.178 2199.55 214.349 Q2197.67 212.497 2197.67 207.636 L2197.67 193.562 L2194.55 193.562 L2194.55 190.252 L2197.67 190.252 L2197.67 182.891 L2201.96 182.891 Z" fill="#000000" fill-rule="evenodd" fill-opacity="1" /></svg>
