<?xml version="1.0" encoding="utf-8"?>
<svg xmlns="http://www.w3.org/2000/svg" xmlns:xlink="http://www.w3.org/1999/xlink" width="600" height="400" viewBox="0 0 2400 1600">
<defs>
  <clipPath id="clip960">
    <rect x="0" y="0" width="2400" height="1600"/>
  </clipPath>
</defs>
<path clip-path="url(#clip960)" d="
M0 1600 L2400 1600 L2400 0 L0 0  Z
  " fill="#ffffff" fill-rule="evenodd" fill-opacity="1"/>
<defs>
  <clipPath id="clip961">
    <rect x="480" y="0" width="1681" height="1600"/>
  </clipPath>
</defs>
<path clip-path="url(#clip960)" d="
M209.029 1486.45 L2352.76 1486.45 L2352.76 47.2441 L209.029 47.2441  Z
  " fill="#ffffff" fill-rule="evenodd" fill-opacity="1"/>
<defs>
  <clipPath id="clip962">
    <rect x="209" y="47" width="2145" height="1440"/>
  </clipPath>
</defs>
<polyline clip-path="url(#clip962)" style="stroke:#000000; stroke-linecap:butt; stroke-linejoin:round; stroke-width:2; stroke-opacity:0.1; fill:none" points="
  269.7,1486.45 269.7,47.2441 
  "/>
<polyline clip-path="url(#clip962)" style="stroke:#000000; stroke-linecap:butt; stroke-linejoin:round; stroke-width:2; stroke-opacity:0.1; fill:none" points="
  943.828,1486.45 943.828,47.2441 
  "/>
<polyline clip-path="url(#clip962)" style="stroke:#000000; stroke-linecap:butt; stroke-linejoin:round; stroke-width:2; stroke-opacity:0.1; fill:none" points="
  1617.96,1486.45 1617.96,47.2441 
  "/>
<polyline clip-path="url(#clip962)" style="stroke:#000000; stroke-linecap:butt; stroke-linejoin:round; stroke-width:2; stroke-opacity:0.1; fill:none" points="
  2292.08,1486.45 2292.08,47.2441 
  "/>
<polyline clip-path="url(#clip960)" style="stroke:#000000; stroke-linecap:butt; stroke-linejoin:round; stroke-width:4; stroke-opacity:1; fill:none" points="
  209.029,1486.45 2352.76,1486.45 
  "/>
<polyline clip-path="url(#clip960)" style="stroke:#000000; stroke-linecap:butt; stroke-linejoin:round; stroke-width:4; stroke-opacity:1; fill:none" points="
  269.7,1486.45 269.7,1467.55 
  "/>
<polyline clip-path="url(#clip960)" style="stroke:#000000; stroke-linecap:butt; stroke-linejoin:round; stroke-width:4; stroke-opacity:1; fill:none" points="
  943.828,1486.45 943.828,1467.55 
  "/>
<polyline clip-path="url(#clip960)" style="stroke:#000000; stroke-linecap:butt; stroke-linejoin:round; stroke-width:4; stroke-opacity:1; fill:none" points="
  1617.96,1486.45 1617.96,1467.55 
  "/>
<polyline clip-path="url(#clip960)" style="stroke:#000000; stroke-linecap:butt; stroke-linejoin:round; stroke-width:4; stroke-opacity:1; fill:none" points="
  2292.08,1486.45 2292.08,1467.55 
  "/>
<path clip-path="url(#clip960)" d="M208.682 1532.02 L238.358 1532.02 L238.358 1535.95 L208.682 1535.95 L208.682 1532.02 Z" fill="#000000" fill-rule="evenodd" fill-opacity="1" /><path clip-path="url(#clip960)" d="M262.617 1530.21 Q265.973 1530.93 267.848 1533.2 Q269.746 1535.47 269.746 1538.8 Q269.746 1543.92 266.228 1546.72 Q262.709 1549.52 256.228 1549.52 Q254.052 1549.52 251.737 1549.08 Q249.446 1548.66 246.992 1547.81 L246.992 1543.29 Q248.936 1544.43 251.251 1545.01 Q253.566 1545.58 256.089 1545.58 Q260.487 1545.58 262.779 1543.85 Q265.094 1542.11 265.094 1538.8 Q265.094 1535.75 262.941 1534.03 Q260.811 1532.3 256.992 1532.3 L252.964 1532.3 L252.964 1528.45 L257.177 1528.45 Q260.626 1528.45 262.455 1527.09 Q264.283 1525.7 264.283 1523.11 Q264.283 1520.45 262.385 1519.03 Q260.51 1517.6 256.992 1517.6 Q255.07 1517.6 252.871 1518.01 Q250.672 1518.43 248.033 1519.31 L248.033 1515.14 Q250.696 1514.4 253.01 1514.03 Q255.348 1513.66 257.408 1513.66 Q262.732 1513.66 265.834 1516.09 Q268.936 1518.5 268.936 1522.62 Q268.936 1525.49 267.293 1527.48 Q265.649 1529.45 262.617 1530.21 Z" fill="#000000" fill-rule="evenodd" fill-opacity="1" /><path clip-path="url(#clip960)" d="M288.612 1517.37 Q285.001 1517.37 283.172 1520.93 Q281.367 1524.47 281.367 1531.6 Q281.367 1538.71 283.172 1542.27 Q285.001 1545.82 288.612 1545.82 Q292.246 1545.82 294.052 1542.27 Q295.88 1538.71 295.88 1531.6 Q295.88 1524.47 294.052 1520.93 Q292.246 1517.37 288.612 1517.37 M288.612 1513.66 Q294.422 1513.66 297.478 1518.27 Q300.556 1522.85 300.556 1531.6 Q300.556 1540.33 297.478 1544.94 Q294.422 1549.52 288.612 1549.52 Q282.802 1549.52 279.723 1544.94 Q276.668 1540.33 276.668 1531.6 Q276.668 1522.85 279.723 1518.27 Q282.802 1513.66 288.612 1513.66 Z" fill="#000000" fill-rule="evenodd" fill-opacity="1" /><path clip-path="url(#clip960)" d="M318.774 1517.37 Q315.163 1517.37 313.334 1520.93 Q311.529 1524.47 311.529 1531.6 Q311.529 1538.71 313.334 1542.27 Q315.163 1545.82 318.774 1545.82 Q322.408 1545.82 324.214 1542.27 Q326.042 1538.71 326.042 1531.6 Q326.042 1524.47 324.214 1520.93 Q322.408 1517.37 318.774 1517.37 M318.774 1513.66 Q324.584 1513.66 327.64 1518.27 Q330.718 1522.85 330.718 1531.6 Q330.718 1540.33 327.64 1544.94 Q324.584 1549.52 318.774 1549.52 Q312.964 1549.52 309.885 1544.94 Q306.829 1540.33 306.829 1531.6 Q306.829 1522.85 309.885 1518.27 Q312.964 1513.66 318.774 1513.66 Z" fill="#000000" fill-rule="evenodd" fill-opacity="1" /><path clip-path="url(#clip960)" d="M882.81 1532.02 L912.486 1532.02 L912.486 1535.95 L882.81 1535.95 L882.81 1532.02 Z" fill="#000000" fill-rule="evenodd" fill-opacity="1" /><path clip-path="url(#clip960)" d="M926.606 1544.91 L942.925 1544.91 L942.925 1548.85 L920.981 1548.85 L920.981 1544.91 Q923.643 1542.16 928.226 1537.53 Q932.833 1532.88 934.013 1531.53 Q936.259 1529.01 937.138 1527.27 Q938.041 1525.51 938.041 1523.82 Q938.041 1521.07 936.097 1519.33 Q934.175 1517.6 931.074 1517.6 Q928.875 1517.6 926.421 1518.36 Q923.99 1519.13 921.213 1520.68 L921.213 1515.95 Q924.037 1514.82 926.49 1514.24 Q928.944 1513.66 930.981 1513.66 Q936.351 1513.66 939.546 1516.35 Q942.74 1519.03 942.74 1523.52 Q942.74 1525.65 941.93 1527.57 Q941.143 1529.47 939.037 1532.07 Q938.458 1532.74 935.356 1535.95 Q932.254 1539.15 926.606 1544.91 Z" fill="#000000" fill-rule="evenodd" fill-opacity="1" /><path clip-path="url(#clip960)" d="M962.74 1517.37 Q959.129 1517.37 957.3 1520.93 Q955.495 1524.47 955.495 1531.6 Q955.495 1538.71 957.3 1542.27 Q959.129 1545.82 962.74 1545.82 Q966.374 1545.82 968.18 1542.27 Q970.009 1538.71 970.009 1531.6 Q970.009 1524.47 968.18 1520.93 Q966.374 1517.37 962.74 1517.37 M962.74 1513.66 Q968.55 1513.66 971.606 1518.27 Q974.684 1522.85 974.684 1531.6 Q974.684 1540.33 971.606 1544.94 Q968.55 1549.52 962.74 1549.52 Q956.93 1549.52 953.851 1544.94 Q950.796 1540.33 950.796 1531.6 Q950.796 1522.85 953.851 1518.27 Q956.93 1513.66 962.74 1513.66 Z" fill="#000000" fill-rule="evenodd" fill-opacity="1" /><path clip-path="url(#clip960)" d="M992.902 1517.37 Q989.291 1517.37 987.462 1520.93 Q985.657 1524.47 985.657 1531.6 Q985.657 1538.71 987.462 1542.27 Q989.291 1545.82 992.902 1545.82 Q996.536 1545.82 998.342 1542.27 Q1000.17 1538.71 1000.17 1531.6 Q1000.17 1524.47 998.342 1520.93 Q996.536 1517.37 992.902 1517.37 M992.902 1513.66 Q998.712 1513.66 1001.77 1518.27 Q1004.85 1522.85 1004.85 1531.6 Q1004.85 1540.33 1001.77 1544.94 Q998.712 1549.52 992.902 1549.52 Q987.092 1549.52 984.013 1544.94 Q980.958 1540.33 980.958 1531.6 Q980.958 1522.85 984.013 1518.27 Q987.092 1513.66 992.902 1513.66 Z" fill="#000000" fill-rule="evenodd" fill-opacity="1" /><path clip-path="url(#clip960)" d="M1556.94 1532.02 L1586.61 1532.02 L1586.61 1535.95 L1556.94 1535.95 L1556.94 1532.02 Z" fill="#000000" fill-rule="evenodd" fill-opacity="1" /><path clip-path="url(#clip960)" d="M1597.52 1544.91 L1605.16 1544.91 L1605.16 1518.55 L1596.85 1520.21 L1596.85 1515.95 L1605.11 1514.29 L1609.79 1514.29 L1609.79 1544.91 L1617.42 1544.91 L1617.42 1548.85 L1597.52 1548.85 L1597.52 1544.91 Z" fill="#000000" fill-rule="evenodd" fill-opacity="1" /><path clip-path="url(#clip960)" d="M1636.87 1517.37 Q1633.26 1517.37 1631.43 1520.93 Q1629.62 1524.47 1629.62 1531.6 Q1629.62 1538.71 1631.43 1542.27 Q1633.26 1545.82 1636.87 1545.82 Q1640.5 1545.82 1642.31 1542.27 Q1644.14 1538.71 1644.14 1531.6 Q1644.14 1524.47 1642.31 1520.93 Q1640.5 1517.37 1636.87 1517.37 M1636.87 1513.66 Q1642.68 1513.66 1645.73 1518.27 Q1648.81 1522.85 1648.81 1531.6 Q1648.81 1540.33 1645.73 1544.94 Q1642.68 1549.52 1636.87 1549.52 Q1631.06 1549.52 1627.98 1544.94 Q1624.92 1540.33 1624.92 1531.6 Q1624.92 1522.85 1627.98 1518.27 Q1631.06 1513.66 1636.87 1513.66 Z" fill="#000000" fill-rule="evenodd" fill-opacity="1" /><path clip-path="url(#clip960)" d="M1667.03 1517.37 Q1663.42 1517.37 1661.59 1520.93 Q1659.78 1524.47 1659.78 1531.6 Q1659.78 1538.71 1661.59 1542.27 Q1663.42 1545.82 1667.03 1545.82 Q1670.66 1545.82 1672.47 1542.27 Q1674.3 1538.71 1674.3 1531.6 Q1674.3 1524.47 1672.47 1520.93 Q1670.66 1517.37 1667.03 1517.37 M1667.03 1513.66 Q1672.84 1513.66 1675.9 1518.27 Q1678.97 1522.85 1678.97 1531.6 Q1678.97 1540.33 1675.9 1544.94 Q1672.84 1549.52 1667.03 1549.52 Q1661.22 1549.52 1658.14 1544.94 Q1655.09 1540.33 1655.09 1531.6 Q1655.09 1522.85 1658.14 1518.27 Q1661.22 1513.66 1667.03 1513.66 Z" fill="#000000" fill-rule="evenodd" fill-opacity="1" /><path clip-path="url(#clip960)" d="M2292.08 1517.37 Q2288.47 1517.37 2286.64 1520.93 Q2284.84 1524.47 2284.84 1531.6 Q2284.84 1538.71 2286.64 1542.27 Q2288.47 1545.82 2292.08 1545.82 Q2295.72 1545.82 2297.52 1542.27 Q2299.35 1538.71 2299.35 1531.6 Q2299.35 1524.47 2297.52 1520.93 Q2295.72 1517.37 2292.08 1517.37 M2292.08 1513.66 Q2297.89 1513.66 2300.95 1518.27 Q2304.03 1522.85 2304.03 1531.6 Q2304.03 1540.33 2300.95 1544.94 Q2297.89 1549.52 2292.08 1549.52 Q2286.27 1549.52 2283.2 1544.94 Q2280.14 1540.33 2280.14 1531.6 Q2280.14 1522.85 2283.2 1518.27 Q2286.27 1513.66 2292.08 1513.66 Z" fill="#000000" fill-rule="evenodd" fill-opacity="1" /><polyline clip-path="url(#clip962)" style="stroke:#000000; stroke-linecap:butt; stroke-linejoin:round; stroke-width:2; stroke-opacity:0.1; fill:none" points="
  209.029,1405.52 2352.76,1405.52 
  "/>
<polyline clip-path="url(#clip962)" style="stroke:#000000; stroke-linecap:butt; stroke-linejoin:round; stroke-width:2; stroke-opacity:0.1; fill:none" points="
  209.029,1192.63 2352.76,1192.63 
  "/>
<polyline clip-path="url(#clip962)" style="stroke:#000000; stroke-linecap:butt; stroke-linejoin:round; stroke-width:2; stroke-opacity:0.1; fill:none" points="
  209.029,979.737 2352.76,979.737 
  "/>
<polyline clip-path="url(#clip962)" style="stroke:#000000; stroke-linecap:butt; stroke-linejoin:round; stroke-width:2; stroke-opacity:0.1; fill:none" points="
  209.029,766.846 2352.76,766.846 
  "/>
<polyline clip-path="url(#clip962)" style="stroke:#000000; stroke-linecap:butt; stroke-linejoin:round; stroke-width:2; stroke-opacity:0.1; fill:none" points="
  209.029,553.955 2352.76,553.955 
  "/>
<polyline clip-path="url(#clip962)" style="stroke:#000000; stroke-linecap:butt; stroke-linejoin:round; stroke-width:2; stroke-opacity:0.1; fill:none" points="
  209.029,341.064 2352.76,341.064 
  "/>
<polyline clip-path="url(#clip962)" style="stroke:#000000; stroke-linecap:butt; stroke-linejoin:round; stroke-width:2; stroke-opacity:0.1; fill:none" points="
  209.029,128.174 2352.76,128.174 
  "/>
<polyline clip-path="url(#clip960)" style="stroke:#000000; stroke-linecap:butt; stroke-linejoin:round; stroke-width:4; stroke-opacity:1; fill:none" points="
  209.029,1486.45 209.029,47.2441 
  "/>
<polyline clip-path="url(#clip960)" style="stroke:#000000; stroke-linecap:butt; stroke-linejoin:round; stroke-width:4; stroke-opacity:1; fill:none" points="
  209.029,1405.52 227.926,1405.52 
  "/>
<polyline clip-path="url(#clip960)" style="stroke:#000000; stroke-linecap:butt; stroke-linejoin:round; stroke-width:4; stroke-opacity:1; fill:none" points="
  209.029,1192.63 227.926,1192.63 
  "/>
<polyline clip-path="url(#clip960)" style="stroke:#000000; stroke-linecap:butt; stroke-linejoin:round; stroke-width:4; stroke-opacity:1; fill:none" points="
  209.029,979.737 227.926,979.737 
  "/>
<polyline clip-path="url(#clip960)" style="stroke:#000000; stroke-linecap:butt; stroke-linejoin:round; stroke-width:4; stroke-opacity:1; fill:none" points="
  209.029,766.846 227.926,766.846 
  "/>
<polyline clip-path="url(#clip960)" style="stroke:#000000; stroke-linecap:butt; stroke-linejoin:round; stroke-width:4; stroke-opacity:1; fill:none" points="
  209.029,553.955 227.926,553.955 
  "/>
<polyline clip-path="url(#clip960)" style="stroke:#000000; stroke-linecap:butt; stroke-linejoin:round; stroke-width:4; stroke-opacity:1; fill:none" points="
  209.029,341.064 227.926,341.064 
  "/>
<polyline clip-path="url(#clip960)" style="stroke:#000000; stroke-linecap:butt; stroke-linejoin:round; stroke-width:4; stroke-opacity:1; fill:none" points="
  209.029,128.174 227.926,128.174 
  "/>
<path clip-path="url(#clip960)" d="M50.9921 1405.97 L80.6679 1405.97 L80.6679 1409.9 L50.9921 1409.9 L50.9921 1405.97 Z" fill="#000000" fill-rule="evenodd" fill-opacity="1" /><path clip-path="url(#clip960)" d="M91.5706 1418.86 L99.2095 1418.86 L99.2095 1392.5 L90.8993 1394.16 L90.8993 1389.91 L99.1632 1388.24 L103.839 1388.24 L103.839 1418.86 L111.478 1418.86 L111.478 1422.8 L91.5706 1422.8 L91.5706 1418.86 Z" fill="#000000" fill-rule="evenodd" fill-opacity="1" /><path clip-path="url(#clip960)" d="M120.969 1388.24 L139.325 1388.24 L139.325 1392.17 L125.251 1392.17 L125.251 1400.65 Q126.27 1400.3 127.288 1400.14 Q128.307 1399.95 129.325 1399.95 Q135.112 1399.95 138.492 1403.12 Q141.871 1406.29 141.871 1411.71 Q141.871 1417.29 138.399 1420.39 Q134.927 1423.47 128.607 1423.47 Q126.432 1423.47 124.163 1423.1 Q121.918 1422.73 119.51 1421.99 L119.51 1417.29 Q121.594 1418.42 123.816 1418.98 Q126.038 1419.53 128.515 1419.53 Q132.519 1419.53 134.857 1417.43 Q137.195 1415.32 137.195 1411.71 Q137.195 1408.1 134.857 1405.99 Q132.519 1403.89 128.515 1403.89 Q126.64 1403.89 124.765 1404.3 Q122.913 1404.72 120.969 1405.6 L120.969 1388.24 Z" fill="#000000" fill-rule="evenodd" fill-opacity="1" /><path clip-path="url(#clip960)" d="M161.084 1391.32 Q157.473 1391.32 155.644 1394.88 Q153.839 1398.42 153.839 1405.55 Q153.839 1412.66 155.644 1416.22 Q157.473 1419.77 161.084 1419.77 Q164.718 1419.77 166.524 1416.22 Q168.353 1412.66 168.353 1405.55 Q168.353 1398.42 166.524 1394.88 Q164.718 1391.32 161.084 1391.32 M161.084 1387.61 Q166.894 1387.61 169.95 1392.22 Q173.029 1396.8 173.029 1405.55 Q173.029 1414.28 169.95 1418.89 Q166.894 1423.47 161.084 1423.47 Q155.274 1423.47 152.195 1418.89 Q149.14 1414.28 149.14 1405.55 Q149.14 1396.8 152.195 1392.22 Q155.274 1387.61 161.084 1387.61 Z" fill="#000000" fill-rule="evenodd" fill-opacity="1" /><path clip-path="url(#clip960)" d="M50.9921 1193.08 L80.6679 1193.08 L80.6679 1197.01 L50.9921 1197.01 L50.9921 1193.08 Z" fill="#000000" fill-rule="evenodd" fill-opacity="1" /><path clip-path="url(#clip960)" d="M91.5706 1205.97 L99.2095 1205.97 L99.2095 1179.61 L90.8993 1181.27 L90.8993 1177.01 L99.1632 1175.35 L103.839 1175.35 L103.839 1205.97 L111.478 1205.97 L111.478 1209.91 L91.5706 1209.91 L91.5706 1205.97 Z" fill="#000000" fill-rule="evenodd" fill-opacity="1" /><path clip-path="url(#clip960)" d="M130.922 1178.43 Q127.311 1178.43 125.482 1181.99 Q123.677 1185.53 123.677 1192.66 Q123.677 1199.77 125.482 1203.33 Q127.311 1206.88 130.922 1206.88 Q134.556 1206.88 136.362 1203.33 Q138.191 1199.77 138.191 1192.66 Q138.191 1185.53 136.362 1181.99 Q134.556 1178.43 130.922 1178.43 M130.922 1174.72 Q136.732 1174.72 139.788 1179.33 Q142.867 1183.91 142.867 1192.66 Q142.867 1201.39 139.788 1206 Q136.732 1210.58 130.922 1210.58 Q125.112 1210.58 122.033 1206 Q118.978 1201.39 118.978 1192.66 Q118.978 1183.91 122.033 1179.33 Q125.112 1174.72 130.922 1174.72 Z" fill="#000000" fill-rule="evenodd" fill-opacity="1" /><path clip-path="url(#clip960)" d="M161.084 1178.43 Q157.473 1178.43 155.644 1181.99 Q153.839 1185.53 153.839 1192.66 Q153.839 1199.77 155.644 1203.33 Q157.473 1206.88 161.084 1206.88 Q164.718 1206.88 166.524 1203.33 Q168.353 1199.77 168.353 1192.66 Q168.353 1185.53 166.524 1181.99 Q164.718 1178.43 161.084 1178.43 M161.084 1174.72 Q166.894 1174.72 169.95 1179.33 Q173.029 1183.91 173.029 1192.66 Q173.029 1201.39 169.95 1206 Q166.894 1210.58 161.084 1210.58 Q155.274 1210.58 152.195 1206 Q149.14 1201.39 149.14 1192.66 Q149.14 1183.91 152.195 1179.33 Q155.274 1174.72 161.084 1174.72 Z" fill="#000000" fill-rule="evenodd" fill-opacity="1" /><path clip-path="url(#clip960)" d="M81.154 980.188 L110.83 980.188 L110.83 984.123 L81.154 984.123 L81.154 980.188 Z" fill="#000000" fill-rule="evenodd" fill-opacity="1" /><path clip-path="url(#clip960)" d="M120.969 962.457 L139.325 962.457 L139.325 966.392 L125.251 966.392 L125.251 974.864 Q126.27 974.517 127.288 974.355 Q128.307 974.17 129.325 974.17 Q135.112 974.17 138.492 977.341 Q141.871 980.512 141.871 985.929 Q141.871 991.508 138.399 994.609 Q134.927 997.688 128.607 997.688 Q126.432 997.688 124.163 997.318 Q121.918 996.947 119.51 996.207 L119.51 991.508 Q121.594 992.642 123.816 993.197 Q126.038 993.753 128.515 993.753 Q132.519 993.753 134.857 991.646 Q137.195 989.54 137.195 985.929 Q137.195 982.318 134.857 980.211 Q132.519 978.105 128.515 978.105 Q126.64 978.105 124.765 978.522 Q122.913 978.938 120.969 979.818 L120.969 962.457 Z" fill="#000000" fill-rule="evenodd" fill-opacity="1" /><path clip-path="url(#clip960)" d="M161.084 965.535 Q157.473 965.535 155.644 969.1 Q153.839 972.642 153.839 979.772 Q153.839 986.878 155.644 990.443 Q157.473 993.984 161.084 993.984 Q164.718 993.984 166.524 990.443 Q168.353 986.878 168.353 979.772 Q168.353 972.642 166.524 969.1 Q164.718 965.535 161.084 965.535 M161.084 961.832 Q166.894 961.832 169.95 966.438 Q173.029 971.022 173.029 979.772 Q173.029 988.498 169.95 993.105 Q166.894 997.688 161.084 997.688 Q155.274 997.688 152.195 993.105 Q149.14 988.498 149.14 979.772 Q149.14 971.022 152.195 966.438 Q155.274 961.832 161.084 961.832 Z" fill="#000000" fill-rule="evenodd" fill-opacity="1" /><path clip-path="url(#clip960)" d="M161.084 752.645 Q157.473 752.645 155.644 756.209 Q153.839 759.751 153.839 766.881 Q153.839 773.987 155.644 777.552 Q157.473 781.094 161.084 781.094 Q164.718 781.094 166.524 777.552 Q168.353 773.987 168.353 766.881 Q168.353 759.751 166.524 756.209 Q164.718 752.645 161.084 752.645 M161.084 748.941 Q166.894 748.941 169.95 753.547 Q173.029 758.131 173.029 766.881 Q173.029 775.608 169.95 780.214 Q166.894 784.797 161.084 784.797 Q155.274 784.797 152.195 780.214 Q149.14 775.608 149.14 766.881 Q149.14 758.131 152.195 753.547 Q155.274 748.941 161.084 748.941 Z" fill="#000000" fill-rule="evenodd" fill-opacity="1" /><path clip-path="url(#clip960)" d="M120.969 536.675 L139.325 536.675 L139.325 540.61 L125.251 540.61 L125.251 549.083 Q126.27 548.735 127.288 548.573 Q128.307 548.388 129.325 548.388 Q135.112 548.388 138.492 551.559 Q141.871 554.731 141.871 560.147 Q141.871 565.726 138.399 568.828 Q134.927 571.906 128.607 571.906 Q126.432 571.906 124.163 571.536 Q121.918 571.166 119.51 570.425 L119.51 565.726 Q121.594 566.86 123.816 567.416 Q126.038 567.971 128.515 567.971 Q132.519 567.971 134.857 565.865 Q137.195 563.758 137.195 560.147 Q137.195 556.536 134.857 554.43 Q132.519 552.323 128.515 552.323 Q126.64 552.323 124.765 552.74 Q122.913 553.157 120.969 554.036 L120.969 536.675 Z" fill="#000000" fill-rule="evenodd" fill-opacity="1" /><path clip-path="url(#clip960)" d="M161.084 539.754 Q157.473 539.754 155.644 543.319 Q153.839 546.86 153.839 553.99 Q153.839 561.096 155.644 564.661 Q157.473 568.203 161.084 568.203 Q164.718 568.203 166.524 564.661 Q168.353 561.096 168.353 553.99 Q168.353 546.86 166.524 543.319 Q164.718 539.754 161.084 539.754 M161.084 536.05 Q166.894 536.05 169.95 540.657 Q173.029 545.24 173.029 553.99 Q173.029 562.717 169.95 567.323 Q166.894 571.906 161.084 571.906 Q155.274 571.906 152.195 567.323 Q149.14 562.717 149.14 553.99 Q149.14 545.24 152.195 540.657 Q155.274 536.05 161.084 536.05 Z" fill="#000000" fill-rule="evenodd" fill-opacity="1" /><path clip-path="url(#clip960)" d="M91.5706 354.409 L99.2095 354.409 L99.2095 328.044 L90.8993 329.71 L90.8993 325.451 L99.1632 323.784 L103.839 323.784 L103.839 354.409 L111.478 354.409 L111.478 358.344 L91.5706 358.344 L91.5706 354.409 Z" fill="#000000" fill-rule="evenodd" fill-opacity="1" /><path clip-path="url(#clip960)" d="M130.922 326.863 Q127.311 326.863 125.482 330.428 Q123.677 333.969 123.677 341.099 Q123.677 348.206 125.482 351.77 Q127.311 355.312 130.922 355.312 Q134.556 355.312 136.362 351.77 Q138.191 348.206 138.191 341.099 Q138.191 333.969 136.362 330.428 Q134.556 326.863 130.922 326.863 M130.922 323.159 Q136.732 323.159 139.788 327.766 Q142.867 332.349 142.867 341.099 Q142.867 349.826 139.788 354.432 Q136.732 359.016 130.922 359.016 Q125.112 359.016 122.033 354.432 Q118.978 349.826 118.978 341.099 Q118.978 332.349 122.033 327.766 Q125.112 323.159 130.922 323.159 Z" fill="#000000" fill-rule="evenodd" fill-opacity="1" /><path clip-path="url(#clip960)" d="M161.084 326.863 Q157.473 326.863 155.644 330.428 Q153.839 333.969 153.839 341.099 Q153.839 348.206 155.644 351.77 Q157.473 355.312 161.084 355.312 Q164.718 355.312 166.524 351.77 Q168.353 348.206 168.353 341.099 Q168.353 333.969 166.524 330.428 Q164.718 326.863 161.084 326.863 M161.084 323.159 Q166.894 323.159 169.95 327.766 Q173.029 332.349 173.029 341.099 Q173.029 349.826 169.95 354.432 Q166.894 359.016 161.084 359.016 Q155.274 359.016 152.195 354.432 Q149.14 349.826 149.14 341.099 Q149.14 332.349 152.195 327.766 Q155.274 323.159 161.084 323.159 Z" fill="#000000" fill-rule="evenodd" fill-opacity="1" /><path clip-path="url(#clip960)" d="M91.5706 141.518 L99.2095 141.518 L99.2095 115.153 L90.8993 116.819 L90.8993 112.56 L99.1632 110.894 L103.839 110.894 L103.839 141.518 L111.478 141.518 L111.478 145.454 L91.5706 145.454 L91.5706 141.518 Z" fill="#000000" fill-rule="evenodd" fill-opacity="1" /><path clip-path="url(#clip960)" d="M120.969 110.894 L139.325 110.894 L139.325 114.829 L125.251 114.829 L125.251 123.301 Q126.27 122.954 127.288 122.792 Q128.307 122.606 129.325 122.606 Q135.112 122.606 138.492 125.778 Q141.871 128.949 141.871 134.366 Q141.871 139.944 138.399 143.046 Q134.927 146.125 128.607 146.125 Q126.432 146.125 124.163 145.754 Q121.918 145.384 119.51 144.643 L119.51 139.944 Q121.594 141.079 123.816 141.634 Q126.038 142.19 128.515 142.19 Q132.519 142.19 134.857 140.083 Q137.195 137.977 137.195 134.366 Q137.195 130.755 134.857 128.648 Q132.519 126.542 128.515 126.542 Q126.64 126.542 124.765 126.958 Q122.913 127.375 120.969 128.255 L120.969 110.894 Z" fill="#000000" fill-rule="evenodd" fill-opacity="1" /><path clip-path="url(#clip960)" d="M161.084 113.972 Q157.473 113.972 155.644 117.537 Q153.839 121.079 153.839 128.208 Q153.839 135.315 155.644 138.88 Q157.473 142.421 161.084 142.421 Q164.718 142.421 166.524 138.88 Q168.353 135.315 168.353 128.208 Q168.353 121.079 166.524 117.537 Q164.718 113.972 161.084 113.972 M161.084 110.269 Q166.894 110.269 169.95 114.875 Q173.029 119.458 173.029 128.208 Q173.029 136.935 169.95 141.542 Q166.894 146.125 161.084 146.125 Q155.274 146.125 152.195 141.542 Q149.14 136.935 149.14 128.208 Q149.14 119.458 152.195 114.875 Q155.274 110.269 161.084 110.269 Z" fill="#000000" fill-rule="evenodd" fill-opacity="1" /><circle clip-path="url(#clip962)" cx="269.7" cy="766.846" r="14.4" fill="#009af9" fill-rule="evenodd" fill-opacity="1" stroke="#000000" stroke-opacity="1" stroke-width="3.2"/>
<circle clip-path="url(#clip962)" cx="299.24" cy="925.187" r="14.4" fill="#009af9" fill-rule="evenodd" fill-opacity="1" stroke="#000000" stroke-opacity="1" stroke-width="3.2"/>
<circle clip-path="url(#clip962)" cx="299.24" cy="608.505" r="14.4" fill="#009af9" fill-rule="evenodd" fill-opacity="1" stroke="#000000" stroke-opacity="1" stroke-width="3.2"/>
<circle clip-path="url(#clip962)" cx="383.301" cy="1071.14" r="14.4" fill="#009af9" fill-rule="evenodd" fill-opacity="1" stroke="#000000" stroke-opacity="1" stroke-width="3.2"/>
<circle clip-path="url(#clip962)" cx="383.301" cy="462.547" r="14.4" fill="#009af9" fill-rule="evenodd" fill-opacity="1" stroke="#000000" stroke-opacity="1" stroke-width="3.2"/>
<circle clip-path="url(#clip962)" cx="509.857" cy="1195.32" r="14.4" fill="#009af9" fill-rule="evenodd" fill-opacity="1" stroke="#000000" stroke-opacity="1" stroke-width="3.2"/>
<circle clip-path="url(#clip962)" cx="509.857" cy="338.369" r="14.4" fill="#009af9" fill-rule="evenodd" fill-opacity="1" stroke="#000000" stroke-opacity="1" stroke-width="3.2"/>
<circle clip-path="url(#clip962)" cx="663.335" cy="1292.9" r="14.4" fill="#009af9" fill-rule="evenodd" fill-opacity="1" stroke="#000000" stroke-opacity="1" stroke-width="3.2"/>
<circle clip-path="url(#clip962)" cx="663.335" cy="240.792" r="14.4" fill="#009af9" fill-rule="evenodd" fill-opacity="1" stroke="#000000" stroke-opacity="1" stroke-width="3.2"/>
<circle clip-path="url(#clip962)" cx="828.654" cy="1363.45" r="14.4" fill="#009af9" fill-rule="evenodd" fill-opacity="1" stroke="#000000" stroke-opacity="1" stroke-width="3.2"/>
<circle clip-path="url(#clip962)" cx="828.654" cy="170.245" r="14.4" fill="#009af9" fill-rule="evenodd" fill-opacity="1" stroke="#000000" stroke-opacity="1" stroke-width="3.2"/>
<circle clip-path="url(#clip962)" cx="993.82" cy="1409.61" r="14.4" fill="#009af9" fill-rule="evenodd" fill-opacity="1" stroke="#000000" stroke-opacity="1" stroke-width="3.2"/>
<circle clip-path="url(#clip962)" cx="993.82" cy="124.085" r="14.4" fill="#009af9" fill-rule="evenodd" fill-opacity="1" stroke="#000000" stroke-opacity="1" stroke-width="3.2"/>
<circle clip-path="url(#clip962)" cx="1150.74" cy="1435.54" r="14.4" fill="#009af9" fill-rule="evenodd" fill-opacity="1" stroke="#000000" stroke-opacity="1" stroke-width="3.2"/>
<circle clip-path="url(#clip962)" cx="1150.74" cy="98.1516" r="14.4" fill="#009af9" fill-rule="evenodd" fill-opacity="1" stroke="#000000" stroke-opacity="1" stroke-width="3.2"/>
<circle clip-path="url(#clip962)" cx="1294.84" cy="1445.72" r="14.4" fill="#009af9" fill-rule="evenodd" fill-opacity="1" stroke="#000000" stroke-opacity="1" stroke-width="3.2"/>
<circle clip-path="url(#clip962)" cx="1294.84" cy="87.9763" r="14.4" fill="#009af9" fill-rule="evenodd" fill-opacity="1" stroke="#000000" stroke-opacity="1" stroke-width="3.2"/>
<circle clip-path="url(#clip962)" cx="1424.19" cy="1444.2" r="14.4" fill="#009af9" fill-rule="evenodd" fill-opacity="1" stroke="#000000" stroke-opacity="1" stroke-width="3.2"/>
<circle clip-path="url(#clip962)" cx="1424.19" cy="89.4891" r="14.4" fill="#009af9" fill-rule="evenodd" fill-opacity="1" stroke="#000000" stroke-opacity="1" stroke-width="3.2"/>
<circle clip-path="url(#clip962)" cx="1538.56" cy="1434.38" r="14.4" fill="#009af9" fill-rule="evenodd" fill-opacity="1" stroke="#000000" stroke-opacity="1" stroke-width="3.2"/>
<circle clip-path="url(#clip962)" cx="1538.56" cy="99.3154" r="14.4" fill="#009af9" fill-rule="evenodd" fill-opacity="1" stroke="#000000" stroke-opacity="1" stroke-width="3.2"/>
<circle clip-path="url(#clip962)" cx="1638.74" cy="1418.87" r="14.4" fill="#009af9" fill-rule="evenodd" fill-opacity="1" stroke="#000000" stroke-opacity="1" stroke-width="3.2"/>
<circle clip-path="url(#clip962)" cx="1638.74" cy="114.819" r="14.4" fill="#009af9" fill-rule="evenodd" fill-opacity="1" stroke="#000000" stroke-opacity="1" stroke-width="3.2"/>
<circle clip-path="url(#clip962)" cx="1725.99" cy="1399.67" r="14.4" fill="#009af9" fill-rule="evenodd" fill-opacity="1" stroke="#000000" stroke-opacity="1" stroke-width="3.2"/>
<circle clip-path="url(#clip962)" cx="1725.99" cy="134.025" r="14.4" fill="#009af9" fill-rule="evenodd" fill-opacity="1" stroke="#000000" stroke-opacity="1" stroke-width="3.2"/>
<circle clip-path="url(#clip962)" cx="1801.76" cy="1378.2" r="14.4" fill="#009af9" fill-rule="evenodd" fill-opacity="1" stroke="#000000" stroke-opacity="1" stroke-width="3.2"/>
<circle clip-path="url(#clip962)" cx="1801.76" cy="155.492" r="14.4" fill="#009af9" fill-rule="evenodd" fill-opacity="1" stroke="#000000" stroke-opacity="1" stroke-width="3.2"/>
<circle clip-path="url(#clip962)" cx="1867.46" cy="1355.49" r="14.4" fill="#009af9" fill-rule="evenodd" fill-opacity="1" stroke="#000000" stroke-opacity="1" stroke-width="3.2"/>
<circle clip-path="url(#clip962)" cx="1867.46" cy="178.198" r="14.4" fill="#009af9" fill-rule="evenodd" fill-opacity="1" stroke="#000000" stroke-opacity="1" stroke-width="3.2"/>
<circle clip-path="url(#clip962)" cx="1924.43" cy="1332.26" r="14.4" fill="#009af9" fill-rule="evenodd" fill-opacity="1" stroke="#000000" stroke-opacity="1" stroke-width="3.2"/>
<circle clip-path="url(#clip962)" cx="1924.43" cy="201.431" r="14.4" fill="#009af9" fill-rule="evenodd" fill-opacity="1" stroke="#000000" stroke-opacity="1" stroke-width="3.2"/>
<circle clip-path="url(#clip962)" cx="1973.88" cy="1308.99" r="14.4" fill="#009af9" fill-rule="evenodd" fill-opacity="1" stroke="#000000" stroke-opacity="1" stroke-width="3.2"/>
<circle clip-path="url(#clip962)" cx="1973.88" cy="224.704" r="14.4" fill="#009af9" fill-rule="evenodd" fill-opacity="1" stroke="#000000" stroke-opacity="1" stroke-width="3.2"/>
<circle clip-path="url(#clip962)" cx="2016.83" cy="1286" r="14.4" fill="#009af9" fill-rule="evenodd" fill-opacity="1" stroke="#000000" stroke-opacity="1" stroke-width="3.2"/>
<circle clip-path="url(#clip962)" cx="2016.83" cy="247.696" r="14.4" fill="#009af9" fill-rule="evenodd" fill-opacity="1" stroke="#000000" stroke-opacity="1" stroke-width="3.2"/>
<circle clip-path="url(#clip962)" cx="2054.18" cy="1263.49" r="14.4" fill="#009af9" fill-rule="evenodd" fill-opacity="1" stroke="#000000" stroke-opacity="1" stroke-width="3.2"/>
<circle clip-path="url(#clip962)" cx="2054.18" cy="270.203" r="14.4" fill="#009af9" fill-rule="evenodd" fill-opacity="1" stroke="#000000" stroke-opacity="1" stroke-width="3.2"/>
<circle clip-path="url(#clip962)" cx="2086.72" cy="1241.59" r="14.4" fill="#009af9" fill-rule="evenodd" fill-opacity="1" stroke="#000000" stroke-opacity="1" stroke-width="3.2"/>
<circle clip-path="url(#clip962)" cx="2086.72" cy="292.1" r="14.4" fill="#009af9" fill-rule="evenodd" fill-opacity="1" stroke="#000000" stroke-opacity="1" stroke-width="3.2"/>
<circle clip-path="url(#clip962)" cx="2115.08" cy="1220.37" r="14.4" fill="#009af9" fill-rule="evenodd" fill-opacity="1" stroke="#000000" stroke-opacity="1" stroke-width="3.2"/>
<circle clip-path="url(#clip962)" cx="2115.08" cy="313.323" r="14.4" fill="#009af9" fill-rule="evenodd" fill-opacity="1" stroke="#000000" stroke-opacity="1" stroke-width="3.2"/>
<circle clip-path="url(#clip962)" cx="2139.83" cy="1199.85" r="14.4" fill="#009af9" fill-rule="evenodd" fill-opacity="1" stroke="#000000" stroke-opacity="1" stroke-width="3.2"/>
<circle clip-path="url(#clip962)" cx="2139.83" cy="333.846" r="14.4" fill="#009af9" fill-rule="evenodd" fill-opacity="1" stroke="#000000" stroke-opacity="1" stroke-width="3.2"/>
<circle clip-path="url(#clip962)" cx="2161.45" cy="1180.02" r="14.4" fill="#009af9" fill-rule="evenodd" fill-opacity="1" stroke="#000000" stroke-opacity="1" stroke-width="3.2"/>
<circle clip-path="url(#clip962)" cx="2161.45" cy="353.669" r="14.4" fill="#009af9" fill-rule="evenodd" fill-opacity="1" stroke="#000000" stroke-opacity="1" stroke-width="3.2"/>
<circle clip-path="url(#clip962)" cx="2180.32" cy="1160.88" r="14.4" fill="#009af9" fill-rule="evenodd" fill-opacity="1" stroke="#000000" stroke-opacity="1" stroke-width="3.2"/>
<circle clip-path="url(#clip962)" cx="2180.32" cy="372.812" r="14.4" fill="#009af9" fill-rule="evenodd" fill-opacity="1" stroke="#000000" stroke-opacity="1" stroke-width="3.2"/>
<circle clip-path="url(#clip962)" cx="2196.81" cy="1142.39" r="14.4" fill="#009af9" fill-rule="evenodd" fill-opacity="1" stroke="#000000" stroke-opacity="1" stroke-width="3.2"/>
<circle clip-path="url(#clip962)" cx="2196.81" cy="391.306" r="14.4" fill="#009af9" fill-rule="evenodd" fill-opacity="1" stroke="#000000" stroke-opacity="1" stroke-width="3.2"/>
<circle clip-path="url(#clip962)" cx="2211.19" cy="1124.5" r="14.4" fill="#009af9" fill-rule="evenodd" fill-opacity="1" stroke="#000000" stroke-opacity="1" stroke-width="3.2"/>
<circle clip-path="url(#clip962)" cx="2211.19" cy="409.189" r="14.4" fill="#009af9" fill-rule="evenodd" fill-opacity="1" stroke="#000000" stroke-opacity="1" stroke-width="3.2"/>
<circle clip-path="url(#clip962)" cx="2223.72" cy="1107.19" r="14.4" fill="#009af9" fill-rule="evenodd" fill-opacity="1" stroke="#000000" stroke-opacity="1" stroke-width="3.2"/>
<circle clip-path="url(#clip962)" cx="2223.72" cy="426.506" r="14.4" fill="#009af9" fill-rule="evenodd" fill-opacity="1" stroke="#000000" stroke-opacity="1" stroke-width="3.2"/>
<circle clip-path="url(#clip962)" cx="2234.62" cy="1090.39" r="14.4" fill="#009af9" fill-rule="evenodd" fill-opacity="1" stroke="#000000" stroke-opacity="1" stroke-width="3.2"/>
<circle clip-path="url(#clip962)" cx="2234.62" cy="443.299" r="14.4" fill="#009af9" fill-rule="evenodd" fill-opacity="1" stroke="#000000" stroke-opacity="1" stroke-width="3.2"/>
<circle clip-path="url(#clip962)" cx="2244.08" cy="1074.08" r="14.4" fill="#009af9" fill-rule="evenodd" fill-opacity="1" stroke="#000000" stroke-opacity="1" stroke-width="3.2"/>
<circle clip-path="url(#clip962)" cx="2244.08" cy="459.616" r="14.4" fill="#009af9" fill-rule="evenodd" fill-opacity="1" stroke="#000000" stroke-opacity="1" stroke-width="3.2"/>
<circle clip-path="url(#clip962)" cx="2252.27" cy="1058.19" r="14.4" fill="#009af9" fill-rule="evenodd" fill-opacity="1" stroke="#000000" stroke-opacity="1" stroke-width="3.2"/>
<circle clip-path="url(#clip962)" cx="2252.27" cy="475.5" r="14.4" fill="#009af9" fill-rule="evenodd" fill-opacity="1" stroke="#000000" stroke-opacity="1" stroke-width="3.2"/>
<circle clip-path="url(#clip962)" cx="2259.32" cy="1042.69" r="14.4" fill="#009af9" fill-rule="evenodd" fill-opacity="1" stroke="#000000" stroke-opacity="1" stroke-width="3.2"/>
<circle clip-path="url(#clip962)" cx="2259.32" cy="490.997" r="14.4" fill="#009af9" fill-rule="evenodd" fill-opacity="1" stroke="#000000" stroke-opacity="1" stroke-width="3.2"/>
<circle clip-path="url(#clip962)" cx="2265.36" cy="1027.54" r="14.4" fill="#009af9" fill-rule="evenodd" fill-opacity="1" stroke="#000000" stroke-opacity="1" stroke-width="3.2"/>
<circle clip-path="url(#clip962)" cx="2265.36" cy="506.148" r="14.4" fill="#009af9" fill-rule="evenodd" fill-opacity="1" stroke="#000000" stroke-opacity="1" stroke-width="3.2"/>
<circle clip-path="url(#clip962)" cx="2270.51" cy="1012.7" r="14.4" fill="#009af9" fill-rule="evenodd" fill-opacity="1" stroke="#000000" stroke-opacity="1" stroke-width="3.2"/>
<circle clip-path="url(#clip962)" cx="2270.51" cy="520.993" r="14.4" fill="#009af9" fill-rule="evenodd" fill-opacity="1" stroke="#000000" stroke-opacity="1" stroke-width="3.2"/>
<circle clip-path="url(#clip962)" cx="2274.87" cy="998.121" r="14.4" fill="#009af9" fill-rule="evenodd" fill-opacity="1" stroke="#000000" stroke-opacity="1" stroke-width="3.2"/>
<circle clip-path="url(#clip962)" cx="2274.87" cy="535.571" r="14.4" fill="#009af9" fill-rule="evenodd" fill-opacity="1" stroke="#000000" stroke-opacity="1" stroke-width="3.2"/>
<circle clip-path="url(#clip962)" cx="2278.53" cy="983.775" r="14.4" fill="#009af9" fill-rule="evenodd" fill-opacity="1" stroke="#000000" stroke-opacity="1" stroke-width="3.2"/>
<circle clip-path="url(#clip962)" cx="2278.53" cy="549.917" r="14.4" fill="#009af9" fill-rule="evenodd" fill-opacity="1" stroke="#000000" stroke-opacity="1" stroke-width="3.2"/>
<circle clip-path="url(#clip962)" cx="2281.57" cy="969.628" r="14.4" fill="#009af9" fill-rule="evenodd" fill-opacity="1" stroke="#000000" stroke-opacity="1" stroke-width="3.2"/>
<circle clip-path="url(#clip962)" cx="2281.57" cy="564.064" r="14.4" fill="#009af9" fill-rule="evenodd" fill-opacity="1" stroke="#000000" stroke-opacity="1" stroke-width="3.2"/>
<circle clip-path="url(#clip962)" cx="2284.07" cy="955.65" r="14.4" fill="#009af9" fill-rule="evenodd" fill-opacity="1" stroke="#000000" stroke-opacity="1" stroke-width="3.2"/>
<circle clip-path="url(#clip962)" cx="2284.07" cy="578.042" r="14.4" fill="#009af9" fill-rule="evenodd" fill-opacity="1" stroke="#000000" stroke-opacity="1" stroke-width="3.2"/>
<circle clip-path="url(#clip962)" cx="2286.1" cy="941.813" r="14.4" fill="#009af9" fill-rule="evenodd" fill-opacity="1" stroke="#000000" stroke-opacity="1" stroke-width="3.2"/>
<circle clip-path="url(#clip962)" cx="2286.1" cy="591.879" r="14.4" fill="#009af9" fill-rule="evenodd" fill-opacity="1" stroke="#000000" stroke-opacity="1" stroke-width="3.2"/>
<circle clip-path="url(#clip962)" cx="2287.72" cy="928.092" r="14.4" fill="#009af9" fill-rule="evenodd" fill-opacity="1" stroke="#000000" stroke-opacity="1" stroke-width="3.2"/>
<circle clip-path="url(#clip962)" cx="2287.72" cy="605.6" r="14.4" fill="#009af9" fill-rule="evenodd" fill-opacity="1" stroke="#000000" stroke-opacity="1" stroke-width="3.2"/>
<circle clip-path="url(#clip962)" cx="2288.98" cy="914.464" r="14.4" fill="#009af9" fill-rule="evenodd" fill-opacity="1" stroke="#000000" stroke-opacity="1" stroke-width="3.2"/>
<circle clip-path="url(#clip962)" cx="2288.98" cy="619.228" r="14.4" fill="#009af9" fill-rule="evenodd" fill-opacity="1" stroke="#000000" stroke-opacity="1" stroke-width="3.2"/>
<circle clip-path="url(#clip962)" cx="2289.96" cy="900.91" r="14.4" fill="#009af9" fill-rule="evenodd" fill-opacity="1" stroke="#000000" stroke-opacity="1" stroke-width="3.2"/>
<circle clip-path="url(#clip962)" cx="2289.96" cy="632.782" r="14.4" fill="#009af9" fill-rule="evenodd" fill-opacity="1" stroke="#000000" stroke-opacity="1" stroke-width="3.2"/>
<circle clip-path="url(#clip962)" cx="2290.68" cy="887.412" r="14.4" fill="#009af9" fill-rule="evenodd" fill-opacity="1" stroke="#000000" stroke-opacity="1" stroke-width="3.2"/>
<circle clip-path="url(#clip962)" cx="2290.68" cy="646.28" r="14.4" fill="#009af9" fill-rule="evenodd" fill-opacity="1" stroke="#000000" stroke-opacity="1" stroke-width="3.2"/>
<circle clip-path="url(#clip962)" cx="2291.2" cy="873.957" r="14.4" fill="#009af9" fill-rule="evenodd" fill-opacity="1" stroke="#000000" stroke-opacity="1" stroke-width="3.2"/>
<circle clip-path="url(#clip962)" cx="2291.2" cy="659.735" r="14.4" fill="#009af9" fill-rule="evenodd" fill-opacity="1" stroke="#000000" stroke-opacity="1" stroke-width="3.2"/>
<circle clip-path="url(#clip962)" cx="2291.57" cy="860.532" r="14.4" fill="#009af9" fill-rule="evenodd" fill-opacity="1" stroke="#000000" stroke-opacity="1" stroke-width="3.2"/>
<circle clip-path="url(#clip962)" cx="2291.57" cy="673.16" r="14.4" fill="#009af9" fill-rule="evenodd" fill-opacity="1" stroke="#000000" stroke-opacity="1" stroke-width="3.2"/>
<circle clip-path="url(#clip962)" cx="2291.8" cy="847.128" r="14.4" fill="#009af9" fill-rule="evenodd" fill-opacity="1" stroke="#000000" stroke-opacity="1" stroke-width="3.2"/>
<circle clip-path="url(#clip962)" cx="2291.8" cy="686.564" r="14.4" fill="#009af9" fill-rule="evenodd" fill-opacity="1" stroke="#000000" stroke-opacity="1" stroke-width="3.2"/>
<circle clip-path="url(#clip962)" cx="2291.95" cy="833.737" r="14.4" fill="#009af9" fill-rule="evenodd" fill-opacity="1" stroke="#000000" stroke-opacity="1" stroke-width="3.2"/>
<circle clip-path="url(#clip962)" cx="2291.95" cy="699.955" r="14.4" fill="#009af9" fill-rule="evenodd" fill-opacity="1" stroke="#000000" stroke-opacity="1" stroke-width="3.2"/>
<circle clip-path="url(#clip962)" cx="2292.03" cy="820.355" r="14.4" fill="#009af9" fill-rule="evenodd" fill-opacity="1" stroke="#000000" stroke-opacity="1" stroke-width="3.2"/>
<circle clip-path="url(#clip962)" cx="2292.03" cy="713.337" r="14.4" fill="#009af9" fill-rule="evenodd" fill-opacity="1" stroke="#000000" stroke-opacity="1" stroke-width="3.2"/>
<circle clip-path="url(#clip962)" cx="2292.07" cy="806.976" r="14.4" fill="#009af9" fill-rule="evenodd" fill-opacity="1" stroke="#000000" stroke-opacity="1" stroke-width="3.2"/>
<circle clip-path="url(#clip962)" cx="2292.07" cy="726.716" r="14.4" fill="#009af9" fill-rule="evenodd" fill-opacity="1" stroke="#000000" stroke-opacity="1" stroke-width="3.2"/>
<circle clip-path="url(#clip962)" cx="2292.08" cy="793.599" r="14.4" fill="#009af9" fill-rule="evenodd" fill-opacity="1" stroke="#000000" stroke-opacity="1" stroke-width="3.2"/>
<circle clip-path="url(#clip962)" cx="2292.08" cy="740.093" r="14.4" fill="#009af9" fill-rule="evenodd" fill-opacity="1" stroke="#000000" stroke-opacity="1" stroke-width="3.2"/>
<circle clip-path="url(#clip962)" cx="2292.08" cy="780.222" r="14.4" fill="#009af9" fill-rule="evenodd" fill-opacity="1" stroke="#000000" stroke-opacity="1" stroke-width="3.2"/>
<circle clip-path="url(#clip962)" cx="2292.08" cy="753.47" r="14.4" fill="#009af9" fill-rule="evenodd" fill-opacity="1" stroke="#000000" stroke-opacity="1" stroke-width="3.2"/>
<circle clip-path="url(#clip962)" cx="2292.08" cy="766.846" r="14.4" fill="#009af9" fill-rule="evenodd" fill-opacity="1" stroke="#000000" stroke-opacity="1" stroke-width="3.2"/>
</svg>
