<?xml version="1.0" encoding="utf-8"?>
<svg xmlns="http://www.w3.org/2000/svg" xmlns:xlink="http://www.w3.org/1999/xlink" width="600" height="400" viewBox="0 0 2400 1600">
<defs>
  <clipPath id="clip000">
    <rect x="0" y="0" width="2400" height="1600"/>
  </clipPath>
</defs>
<path clip-path="url(#clip000)" d="
M0 1600 L2400 1600 L2400 0 L0 0  Z
  " fill="#ffffff" fill-rule="evenodd" fill-opacity="1"/>
<defs>
  <clipPath id="clip001">
    <rect x="480" y="0" width="1681" height="1600"/>
  </clipPath>
</defs>
<path clip-path="url(#clip000)" d="
M149.191 1408.07 L2112.76 1408.07 L2112.76 125.619 L149.191 125.619  Z
  " fill="#ffffff" fill-rule="evenodd" fill-opacity="1"/>
<defs>
  <clipPath id="clip002">
    <rect x="149" y="125" width="1965" height="1283"/>
  </clipPath>
</defs>
<polyline clip-path="url(#clip002)" style="stroke:#000000; stroke-linecap:butt; stroke-linejoin:round; stroke-width:2; stroke-opacity:0.1; fill:none" points="
  329.44,1408.07 329.44,125.619 
  "/>
<polyline clip-path="url(#clip002)" style="stroke:#000000; stroke-linecap:butt; stroke-linejoin:round; stroke-width:2; stroke-opacity:0.1; fill:none" points="
  730.207,1408.07 730.207,125.619 
  "/>
<polyline clip-path="url(#clip002)" style="stroke:#000000; stroke-linecap:butt; stroke-linejoin:round; stroke-width:2; stroke-opacity:0.1; fill:none" points="
  1130.97,1408.07 1130.97,125.619 
  "/>
<polyline clip-path="url(#clip002)" style="stroke:#000000; stroke-linecap:butt; stroke-linejoin:round; stroke-width:2; stroke-opacity:0.1; fill:none" points="
  1531.74,1408.07 1531.74,125.619 
  "/>
<polyline clip-path="url(#clip002)" style="stroke:#000000; stroke-linecap:butt; stroke-linejoin:round; stroke-width:2; stroke-opacity:0.1; fill:none" points="
  1932.51,1408.07 1932.51,125.619 
  "/>
<polyline clip-path="url(#clip000)" style="stroke:#000000; stroke-linecap:butt; stroke-linejoin:round; stroke-width:4; stroke-opacity:1; fill:none" points="
  149.191,1408.07 2112.76,1408.07 
  "/>
<polyline clip-path="url(#clip000)" style="stroke:#000000; stroke-linecap:butt; stroke-linejoin:round; stroke-width:4; stroke-opacity:1; fill:none" points="
  329.44,1408.07 329.44,1391.23 
  "/>
<polyline clip-path="url(#clip000)" style="stroke:#000000; stroke-linecap:butt; stroke-linejoin:round; stroke-width:4; stroke-opacity:1; fill:none" points="
  730.207,1408.07 730.207,1391.23 
  "/>
<polyline clip-path="url(#clip000)" style="stroke:#000000; stroke-linecap:butt; stroke-linejoin:round; stroke-width:4; stroke-opacity:1; fill:none" points="
  1130.97,1408.07 1130.97,1391.23 
  "/>
<polyline clip-path="url(#clip000)" style="stroke:#000000; stroke-linecap:butt; stroke-linejoin:round; stroke-width:4; stroke-opacity:1; fill:none" points="
  1531.74,1408.07 1531.74,1391.23 
  "/>
<polyline clip-path="url(#clip000)" style="stroke:#000000; stroke-linecap:butt; stroke-linejoin:round; stroke-width:4; stroke-opacity:1; fill:none" points="
  1932.51,1408.07 1932.51,1391.23 
  "/>
<path clip-path="url(#clip000)" d="M275.968 1453.64 L305.644 1453.64 L305.644 1457.58 L275.968 1457.58 L275.968 1453.64 Z" fill="#000000" fill-rule="evenodd" fill-opacity="1" /><path clip-path="url(#clip000)" d="M315.782 1435.91 L334.139 1435.91 L334.139 1439.85 L320.065 1439.85 L320.065 1448.32 Q321.083 1447.97 322.102 1447.81 Q323.12 1447.63 324.139 1447.63 Q329.926 1447.63 333.306 1450.8 Q336.685 1453.97 336.685 1459.38 Q336.685 1464.96 333.213 1468.07 Q329.741 1471.14 323.421 1471.14 Q321.245 1471.14 318.977 1470.77 Q316.732 1470.4 314.324 1469.66 L314.324 1464.96 Q316.407 1466.1 318.63 1466.65 Q320.852 1467.21 323.329 1467.21 Q327.333 1467.21 329.671 1465.1 Q332.009 1463 332.009 1459.38 Q332.009 1455.77 329.671 1453.67 Q327.333 1451.56 323.329 1451.56 Q321.454 1451.56 319.579 1451.98 Q317.727 1452.39 315.782 1453.27 L315.782 1435.91 Z" fill="#000000" fill-rule="evenodd" fill-opacity="1" /><path clip-path="url(#clip000)" d="M345.898 1464.59 L350.782 1464.59 L350.782 1470.47 L345.898 1470.47 L345.898 1464.59 Z" fill="#000000" fill-rule="evenodd" fill-opacity="1" /><path clip-path="url(#clip000)" d="M370.967 1438.99 Q367.356 1438.99 365.528 1442.56 Q363.722 1446.1 363.722 1453.23 Q363.722 1460.33 365.528 1463.9 Q367.356 1467.44 370.967 1467.44 Q374.602 1467.44 376.407 1463.9 Q378.236 1460.33 378.236 1453.23 Q378.236 1446.1 376.407 1442.56 Q374.602 1438.99 370.967 1438.99 M370.967 1435.29 Q376.778 1435.29 379.833 1439.89 Q382.912 1444.48 382.912 1453.23 Q382.912 1461.95 379.833 1466.56 Q376.778 1471.14 370.967 1471.14 Q365.157 1471.14 362.079 1466.56 Q359.023 1461.95 359.023 1453.23 Q359.023 1444.48 362.079 1439.89 Q365.157 1435.29 370.967 1435.29 Z" fill="#000000" fill-rule="evenodd" fill-opacity="1" /><path clip-path="url(#clip000)" d="M677.232 1453.64 L706.908 1453.64 L706.908 1457.58 L677.232 1457.58 L677.232 1453.64 Z" fill="#000000" fill-rule="evenodd" fill-opacity="1" /><path clip-path="url(#clip000)" d="M721.028 1466.54 L737.348 1466.54 L737.348 1470.47 L715.403 1470.47 L715.403 1466.54 Q718.065 1463.78 722.649 1459.15 Q727.255 1454.5 728.436 1453.16 Q730.681 1450.63 731.561 1448.9 Q732.464 1447.14 732.464 1445.45 Q732.464 1442.7 730.519 1440.96 Q728.598 1439.22 725.496 1439.22 Q723.297 1439.22 720.843 1439.99 Q718.413 1440.75 715.635 1442.3 L715.635 1437.58 Q718.459 1436.45 720.913 1435.87 Q723.366 1435.29 725.403 1435.29 Q730.774 1435.29 733.968 1437.97 Q737.163 1440.66 737.163 1445.15 Q737.163 1447.28 736.352 1449.2 Q735.565 1451.1 733.459 1453.69 Q732.88 1454.36 729.778 1457.58 Q726.677 1460.77 721.028 1466.54 Z" fill="#000000" fill-rule="evenodd" fill-opacity="1" /><path clip-path="url(#clip000)" d="M747.163 1464.59 L752.047 1464.59 L752.047 1470.47 L747.163 1470.47 L747.163 1464.59 Z" fill="#000000" fill-rule="evenodd" fill-opacity="1" /><path clip-path="url(#clip000)" d="M762.278 1435.91 L780.635 1435.91 L780.635 1439.85 L766.561 1439.85 L766.561 1448.32 Q767.579 1447.97 768.598 1447.81 Q769.616 1447.63 770.635 1447.63 Q776.422 1447.63 779.801 1450.8 Q783.181 1453.97 783.181 1459.38 Q783.181 1464.96 779.709 1468.07 Q776.236 1471.14 769.917 1471.14 Q767.741 1471.14 765.473 1470.77 Q763.227 1470.4 760.82 1469.66 L760.82 1464.96 Q762.903 1466.1 765.125 1466.65 Q767.348 1467.21 769.824 1467.21 Q773.829 1467.21 776.167 1465.1 Q778.505 1463 778.505 1459.38 Q778.505 1455.77 776.167 1453.67 Q773.829 1451.56 769.824 1451.56 Q767.949 1451.56 766.074 1451.98 Q764.223 1452.39 762.278 1453.27 L762.278 1435.91 Z" fill="#000000" fill-rule="evenodd" fill-opacity="1" /><path clip-path="url(#clip000)" d="M1108.36 1438.99 Q1104.75 1438.99 1102.92 1442.56 Q1101.11 1446.1 1101.11 1453.23 Q1101.11 1460.33 1102.92 1463.9 Q1104.75 1467.44 1108.36 1467.44 Q1111.99 1467.44 1113.8 1463.9 Q1115.63 1460.33 1115.63 1453.23 Q1115.63 1446.1 1113.8 1442.56 Q1111.99 1438.99 1108.36 1438.99 M1108.36 1435.29 Q1114.17 1435.29 1117.22 1439.89 Q1120.3 1444.48 1120.3 1453.23 Q1120.3 1461.95 1117.22 1466.56 Q1114.17 1471.14 1108.36 1471.14 Q1102.55 1471.14 1099.47 1466.56 Q1096.41 1461.95 1096.41 1453.23 Q1096.41 1444.48 1099.47 1439.89 Q1102.55 1435.29 1108.36 1435.29 Z" fill="#000000" fill-rule="evenodd" fill-opacity="1" /><path clip-path="url(#clip000)" d="M1128.52 1464.59 L1133.4 1464.59 L1133.4 1470.47 L1128.52 1470.47 L1128.52 1464.59 Z" fill="#000000" fill-rule="evenodd" fill-opacity="1" /><path clip-path="url(#clip000)" d="M1153.59 1438.99 Q1149.98 1438.99 1148.15 1442.56 Q1146.34 1446.1 1146.34 1453.23 Q1146.34 1460.33 1148.15 1463.9 Q1149.98 1467.44 1153.59 1467.44 Q1157.22 1467.44 1159.03 1463.9 Q1160.86 1460.33 1160.86 1453.23 Q1160.86 1446.1 1159.03 1442.56 Q1157.22 1438.99 1153.59 1438.99 M1153.59 1435.29 Q1159.4 1435.29 1162.45 1439.89 Q1165.53 1444.48 1165.53 1453.23 Q1165.53 1461.95 1162.45 1466.56 Q1159.4 1471.14 1153.59 1471.14 Q1147.78 1471.14 1144.7 1466.56 Q1141.64 1461.95 1141.64 1453.23 Q1141.64 1444.48 1144.7 1439.89 Q1147.78 1435.29 1153.59 1435.29 Z" fill="#000000" fill-rule="evenodd" fill-opacity="1" /><path clip-path="url(#clip000)" d="M1503.48 1466.54 L1519.8 1466.54 L1519.8 1470.47 L1497.85 1470.47 L1497.85 1466.54 Q1500.51 1463.78 1505.1 1459.15 Q1509.7 1454.5 1510.88 1453.16 Q1513.13 1450.63 1514.01 1448.9 Q1514.91 1447.14 1514.91 1445.45 Q1514.91 1442.7 1512.97 1440.96 Q1511.05 1439.22 1507.94 1439.22 Q1505.74 1439.22 1503.29 1439.99 Q1500.86 1440.75 1498.08 1442.3 L1498.08 1437.58 Q1500.91 1436.45 1503.36 1435.87 Q1505.81 1435.29 1507.85 1435.29 Q1513.22 1435.29 1516.42 1437.97 Q1519.61 1440.66 1519.61 1445.15 Q1519.61 1447.28 1518.8 1449.2 Q1518.01 1451.1 1515.91 1453.69 Q1515.33 1454.36 1512.23 1457.58 Q1509.12 1460.77 1503.48 1466.54 Z" fill="#000000" fill-rule="evenodd" fill-opacity="1" /><path clip-path="url(#clip000)" d="M1529.61 1464.59 L1534.49 1464.59 L1534.49 1470.47 L1529.61 1470.47 L1529.61 1464.59 Z" fill="#000000" fill-rule="evenodd" fill-opacity="1" /><path clip-path="url(#clip000)" d="M1544.73 1435.91 L1563.08 1435.91 L1563.08 1439.85 L1549.01 1439.85 L1549.01 1448.32 Q1550.03 1447.97 1551.05 1447.81 Q1552.06 1447.63 1553.08 1447.63 Q1558.87 1447.63 1562.25 1450.8 Q1565.63 1453.97 1565.63 1459.38 Q1565.63 1464.96 1562.16 1468.07 Q1558.68 1471.14 1552.37 1471.14 Q1550.19 1471.14 1547.92 1470.77 Q1545.68 1470.4 1543.27 1469.66 L1543.27 1464.96 Q1545.35 1466.1 1547.57 1466.65 Q1549.8 1467.21 1552.27 1467.21 Q1556.28 1467.21 1558.62 1465.1 Q1560.95 1463 1560.95 1459.38 Q1560.95 1455.77 1558.62 1453.67 Q1556.28 1451.56 1552.27 1451.56 Q1550.4 1451.56 1548.52 1451.98 Q1546.67 1452.39 1544.73 1453.27 L1544.73 1435.91 Z" fill="#000000" fill-rule="evenodd" fill-opacity="1" /><path clip-path="url(#clip000)" d="M1899.67 1435.91 L1918.03 1435.91 L1918.03 1439.85 L1903.95 1439.85 L1903.95 1448.32 Q1904.97 1447.97 1905.99 1447.81 Q1907.01 1447.63 1908.03 1447.63 Q1913.81 1447.63 1917.19 1450.8 Q1920.57 1453.97 1920.57 1459.38 Q1920.57 1464.96 1917.1 1468.07 Q1913.63 1471.14 1907.31 1471.14 Q1905.13 1471.14 1902.87 1470.77 Q1900.62 1470.4 1898.21 1469.66 L1898.21 1464.96 Q1900.3 1466.1 1902.52 1466.65 Q1904.74 1467.21 1907.22 1467.21 Q1911.22 1467.21 1913.56 1465.1 Q1915.9 1463 1915.9 1459.38 Q1915.9 1455.77 1913.56 1453.67 Q1911.22 1451.56 1907.22 1451.56 Q1905.34 1451.56 1903.47 1451.98 Q1901.62 1452.39 1899.67 1453.27 L1899.67 1435.91 Z" fill="#000000" fill-rule="evenodd" fill-opacity="1" /><path clip-path="url(#clip000)" d="M1929.79 1464.59 L1934.67 1464.59 L1934.67 1470.47 L1929.79 1470.47 L1929.79 1464.59 Z" fill="#000000" fill-rule="evenodd" fill-opacity="1" /><path clip-path="url(#clip000)" d="M1954.86 1438.99 Q1951.25 1438.99 1949.42 1442.56 Q1947.61 1446.1 1947.61 1453.23 Q1947.61 1460.33 1949.42 1463.9 Q1951.25 1467.44 1954.86 1467.44 Q1958.49 1467.44 1960.3 1463.9 Q1962.12 1460.33 1962.12 1453.23 Q1962.12 1446.1 1960.3 1442.56 Q1958.49 1438.99 1954.86 1438.99 M1954.86 1435.29 Q1960.67 1435.29 1963.72 1439.89 Q1966.8 1444.48 1966.8 1453.23 Q1966.8 1461.95 1963.72 1466.56 Q1960.67 1471.14 1954.86 1471.14 Q1949.05 1471.14 1945.97 1466.56 Q1942.91 1461.95 1942.91 1453.23 Q1942.91 1444.48 1945.97 1439.89 Q1949.05 1435.29 1954.86 1435.29 Z" fill="#000000" fill-rule="evenodd" fill-opacity="1" /><polyline clip-path="url(#clip002)" style="stroke:#000000; stroke-linecap:butt; stroke-linejoin:round; stroke-width:2; stroke-opacity:0.1; fill:none" points="
  149.191,1408.07 2112.76,1408.07 
  "/>
<polyline clip-path="url(#clip002)" style="stroke:#000000; stroke-linecap:butt; stroke-linejoin:round; stroke-width:2; stroke-opacity:0.1; fill:none" points="
  149.191,1087.46 2112.76,1087.46 
  "/>
<polyline clip-path="url(#clip002)" style="stroke:#000000; stroke-linecap:butt; stroke-linejoin:round; stroke-width:2; stroke-opacity:0.1; fill:none" points="
  149.191,766.846 2112.76,766.846 
  "/>
<polyline clip-path="url(#clip002)" style="stroke:#000000; stroke-linecap:butt; stroke-linejoin:round; stroke-width:2; stroke-opacity:0.1; fill:none" points="
  149.191,446.233 2112.76,446.233 
  "/>
<polyline clip-path="url(#clip002)" style="stroke:#000000; stroke-linecap:butt; stroke-linejoin:round; stroke-width:2; stroke-opacity:0.1; fill:none" points="
  149.191,125.619 2112.76,125.619 
  "/>
<polyline clip-path="url(#clip000)" style="stroke:#000000; stroke-linecap:butt; stroke-linejoin:round; stroke-width:4; stroke-opacity:1; fill:none" points="
  149.191,1408.07 149.191,125.619 
  "/>
<polyline clip-path="url(#clip000)" style="stroke:#000000; stroke-linecap:butt; stroke-linejoin:round; stroke-width:4; stroke-opacity:1; fill:none" points="
  149.191,1408.07 166.03,1408.07 
  "/>
<polyline clip-path="url(#clip000)" style="stroke:#000000; stroke-linecap:butt; stroke-linejoin:round; stroke-width:4; stroke-opacity:1; fill:none" points="
  149.191,1087.46 166.03,1087.46 
  "/>
<polyline clip-path="url(#clip000)" style="stroke:#000000; stroke-linecap:butt; stroke-linejoin:round; stroke-width:4; stroke-opacity:1; fill:none" points="
  149.191,766.846 166.03,766.846 
  "/>
<polyline clip-path="url(#clip000)" style="stroke:#000000; stroke-linecap:butt; stroke-linejoin:round; stroke-width:4; stroke-opacity:1; fill:none" points="
  149.191,446.233 166.03,446.233 
  "/>
<polyline clip-path="url(#clip000)" style="stroke:#000000; stroke-linecap:butt; stroke-linejoin:round; stroke-width:4; stroke-opacity:1; fill:none" points="
  149.191,125.619 166.03,125.619 
  "/>
<path clip-path="url(#clip000)" d="M50.9921 1408.52 L80.6679 1408.52 L80.6679 1412.46 L50.9921 1412.46 L50.9921 1408.52 Z" fill="#000000" fill-rule="evenodd" fill-opacity="1" /><path clip-path="url(#clip000)" d="M103.608 1394.87 L91.8021 1413.32 L103.608 1413.32 L103.608 1394.87 M102.381 1390.79 L108.26 1390.79 L108.26 1413.32 L113.191 1413.32 L113.191 1417.2 L108.26 1417.2 L108.26 1425.35 L103.608 1425.35 L103.608 1417.2 L88.0058 1417.2 L88.0058 1412.69 L102.381 1390.79 Z" fill="#000000" fill-rule="evenodd" fill-opacity="1" /><path clip-path="url(#clip000)" d="M53.0754 1087.91 L82.7512 1087.91 L82.7512 1091.85 L53.0754 1091.85 L53.0754 1087.91 Z" fill="#000000" fill-rule="evenodd" fill-opacity="1" /><path clip-path="url(#clip000)" d="M96.8715 1100.8 L113.191 1100.8 L113.191 1104.74 L91.2465 1104.74 L91.2465 1100.8 Q93.9086 1098.05 98.4919 1093.42 Q103.098 1088.77 104.279 1087.42 Q106.524 1084.9 107.404 1083.17 Q108.307 1081.41 108.307 1079.72 Q108.307 1076.96 106.362 1075.23 Q104.441 1073.49 101.339 1073.49 Q99.14 1073.49 96.6863 1074.25 Q94.2558 1075.02 91.478 1076.57 L91.478 1071.85 Q94.3021 1070.71 96.7558 1070.13 Q99.2095 1069.55 101.246 1069.55 Q106.617 1069.55 109.811 1072.24 Q113.006 1074.92 113.006 1079.42 Q113.006 1081.55 112.196 1083.47 Q111.408 1085.36 109.302 1087.96 Q108.723 1088.63 105.621 1091.85 Q102.52 1095.04 96.8715 1100.8 Z" fill="#000000" fill-rule="evenodd" fill-opacity="1" /><path clip-path="url(#clip000)" d="M101.246 752.645 Q97.6354 752.645 95.8067 756.209 Q94.0012 759.751 94.0012 766.881 Q94.0012 773.987 95.8067 777.552 Q97.6354 781.094 101.246 781.094 Q104.881 781.094 106.686 777.552 Q108.515 773.987 108.515 766.881 Q108.515 759.751 106.686 756.209 Q104.881 752.645 101.246 752.645 M101.246 748.941 Q107.057 748.941 110.112 753.547 Q113.191 758.131 113.191 766.881 Q113.191 775.608 110.112 780.214 Q107.057 784.797 101.246 784.797 Q95.4363 784.797 92.3576 780.214 Q89.3021 775.608 89.3021 766.881 Q89.3021 758.131 92.3576 753.547 Q95.4363 748.941 101.246 748.941 Z" fill="#000000" fill-rule="evenodd" fill-opacity="1" /><path clip-path="url(#clip000)" d="M96.8715 459.577 L113.191 459.577 L113.191 463.513 L91.2465 463.513 L91.2465 459.577 Q93.9086 456.823 98.4919 452.193 Q103.098 447.54 104.279 446.198 Q106.524 443.675 107.404 441.939 Q108.307 440.179 108.307 438.49 Q108.307 435.735 106.362 433.999 Q104.441 432.263 101.339 432.263 Q99.14 432.263 96.6863 433.027 Q94.2558 433.79 91.478 435.341 L91.478 430.619 Q94.3021 429.485 96.7558 428.906 Q99.2095 428.328 101.246 428.328 Q106.617 428.328 109.811 431.013 Q113.006 433.698 113.006 438.189 Q113.006 440.318 112.196 442.24 Q111.408 444.138 109.302 446.73 Q108.723 447.402 105.621 450.619 Q102.52 453.814 96.8715 459.577 Z" fill="#000000" fill-rule="evenodd" fill-opacity="1" /><path clip-path="url(#clip000)" d="M103.608 112.413 L91.8021 130.862 L103.608 130.862 L103.608 112.413 M102.381 108.339 L108.26 108.339 L108.26 130.862 L113.191 130.862 L113.191 134.751 L108.26 134.751 L108.26 142.899 L103.608 142.899 L103.608 134.751 L88.0058 134.751 L88.0058 130.237 L102.381 108.339 Z" fill="#000000" fill-rule="evenodd" fill-opacity="1" /><polyline clip-path="url(#clip002)" style="stroke:#f98c09; stroke-linecap:butt; stroke-linejoin:round; stroke-width:12; stroke-opacity:1; fill:none" points="
  492.78,1408.07 489.747,1407.56 
  "/>
<polyline clip-path="url(#clip002)" style="stroke:#f0701e; stroke-linecap:butt; stroke-linejoin:round; stroke-width:12; stroke-opacity:1; fill:none" points="
  489.747,1373.18 500.423,1375.19 522.63,1379.1 555.513,1384.35 588.397,1389.06 621.28,1393.24 654.164,1396.89 687.047,1400.04 719.931,1402.68 752.814,1404.84 
  785.697,1406.52 818.581,1407.73 833.576,1408.07 
  "/>
<polyline clip-path="url(#clip002)" style="stroke:#f0701e; stroke-linecap:butt; stroke-linejoin:round; stroke-width:12; stroke-opacity:1; fill:none" points="
  949.625,1408.07 950.115,1408.06 982.998,1407.07 1015.88,1405.65 1048.76,1403.83 1081.65,1401.61 1114.53,1399 1147.42,1396 1180.3,1392.62 1213.18,1388.88 
  1246.07,1384.77 1278.95,1380.3 1311.83,1375.49 1313.71,1375.19 1344.72,1370.08 1377.6,1364.3 1410.48,1358.18 1443.37,1351.72 1476.25,1344.93 1488.32,1342.31 
  1509.13,1337.58 1542.02,1329.76 1574.9,1321.61 1607.78,1313.14 1621.68,1309.42 1640.67,1304.09 1673.55,1294.53 1706.43,1284.65 1732.59,1276.54 1739.32,1274.35 
  1772.2,1263.29 
  "/>
<polyline clip-path="url(#clip002)" style="stroke:#e35832; stroke-linecap:butt; stroke-linejoin:round; stroke-width:12; stroke-opacity:1; fill:none" points="
  1772.2,1229.93 1739.32,1241.4 1732.62,1243.66 1706.43,1252.05 1673.55,1262.25 1640.67,1272.14 1625.45,1276.54 1607.78,1281.41 1574.9,1290.12 1542.02,1298.5 
  1509.13,1306.54 1496.74,1309.42 1476.25,1313.97 1443.37,1320.92 1410.48,1327.52 1377.6,1333.76 1344.72,1339.65 1328.8,1342.31 1311.83,1345.01 1278.95,1349.88 
  1246.07,1354.38 1213.18,1358.51 1180.3,1362.25 1147.42,1365.6 1114.53,1368.56 1081.65,1371.11 1048.76,1373.24 1015.88,1374.95 1009.76,1375.19 982.998,1376.18 
  950.115,1376.97 917.231,1377.34 884.348,1377.27 851.464,1376.76 818.581,1375.79 804.638,1375.19 785.697,1374.32 752.814,1372.31 719.931,1369.78 687.047,1366.74 
  654.164,1363.16 621.28,1359.03 588.397,1354.34 555.513,1349.08 522.63,1343.24 517.831,1342.31 489.747,1336.43 
  "/>
<polyline clip-path="url(#clip002)" style="stroke:#d04544; stroke-linecap:butt; stroke-linejoin:round; stroke-width:12; stroke-opacity:1; fill:none" points="
  489.747,1296.83 522.63,1304.52 545.638,1309.42 555.513,1311.37 588.397,1317.27 621.28,1322.56 654.164,1327.23 687.047,1331.32 719.931,1334.83 752.814,1337.78 
  785.697,1340.18 818.581,1342.04 825.033,1342.31 851.464,1343.32 884.348,1344.1 917.231,1344.4 950.115,1344.24 982.998,1343.63 1015.88,1342.58 1021.81,1342.31 
  1048.76,1341.02 1081.65,1338.99 1114.53,1336.52 1147.42,1333.63 1180.3,1330.31 1213.18,1326.58 1246.07,1322.45 1278.95,1317.92 1311.83,1313 1334.03,1309.42 
  1344.72,1307.61 1377.6,1301.62 1410.48,1295.25 1443.37,1288.51 1476.25,1281.4 1497.61,1276.54 1509.13,1273.78 1542.02,1265.52 1574.9,1256.89 1607.78,1247.92 
  1622.78,1243.66 1640.67,1238.3 1673.55,1228.08 1706.43,1217.52 1726.75,1210.77 1739.32,1206.37 1772.2,1194.46 
  "/>
<polyline clip-path="url(#clip002)" style="stroke:#ba3655; stroke-linecap:butt; stroke-linejoin:round; stroke-width:12; stroke-opacity:1; fill:none" points="
  1772.2,1156.46 1739.32,1168.85 1714.58,1177.89 1706.43,1180.7 1673.55,1191.64 1640.67,1202.23 1613.16,1210.77 1607.78,1212.35 1574.9,1221.6 1542.02,1230.49 
  1509.13,1239 1490.22,1243.66 1476.25,1246.92 1443.37,1254.19 1410.48,1261.08 1377.6,1267.58 1344.72,1273.68 1328.09,1276.54 1311.83,1279.2 1278.95,1284.15 
  1246.07,1288.7 1213.18,1292.83 1180.3,1296.53 1147.42,1299.79 1114.53,1302.61 1081.65,1304.96 1048.76,1306.85 1015.88,1308.26 982.998,1309.18 964.027,1309.42 
  950.115,1309.59 917.231,1309.5 912.904,1309.42 884.348,1308.88 851.464,1307.72 818.581,1306.01 785.697,1303.73 752.814,1300.87 719.931,1297.42 687.047,1293.36 
  654.164,1288.68 621.28,1283.35 588.397,1277.37 584.264,1276.54 555.513,1270.28 522.63,1262.38 489.747,1253.7 
  "/>
<polyline clip-path="url(#clip002)" style="stroke:#a12b61; stroke-linecap:butt; stroke-linejoin:round; stroke-width:12; stroke-opacity:1; fill:none" points="
  489.747,1205.78 504.938,1210.77 522.63,1216.06 555.513,1225.06 588.397,1233.23 621.28,1240.59 636.524,1243.66 654.164,1246.91 687.047,1252.31 719.931,1257.02 
  752.814,1261.07 785.697,1264.48 818.581,1267.26 851.464,1269.42 884.348,1270.99 917.231,1271.97 950.115,1272.39 982.998,1272.25 1015.88,1271.58 1048.76,1270.37 
  1081.65,1268.66 1114.53,1266.44 1147.42,1263.73 1180.3,1260.55 1213.18,1256.9 1246.07,1252.8 1278.95,1248.24 1309.2,1243.66 1311.83,1243.23 1344.72,1237.47 
  1377.6,1231.28 1410.48,1224.65 1443.37,1217.62 1473.58,1210.77 1476.25,1210.13 1509.13,1201.77 1542.02,1193.01 1574.9,1183.85 1595.37,1177.89 1607.78,1174.06 
  1640.67,1163.46 1673.55,1152.48 1695.15,1145.01 1706.43,1140.85 1739.32,1128.3 1772.2,1115.39 
  "/>
<polyline clip-path="url(#clip002)" style="stroke:#88216a; stroke-linecap:butt; stroke-linejoin:round; stroke-width:12; stroke-opacity:1; fill:none" points="
  1772.2,1069.83 1750.92,1079.24 1739.32,1084.02 1706.43,1097.12 1673.55,1109.83 1667.36,1112.12 1640.67,1121.39 1607.78,1132.39 1574.9,1142.97 1568.27,1145.01 
  1542.02,1152.56 1509.13,1161.59 1476.25,1170.19 1445.21,1177.89 1443.37,1178.32 1410.48,1185.5 1377.6,1192.24 1344.72,1198.53 1311.83,1204.35 1278.95,1209.7 
  1271.62,1210.77 1246.07,1214.3 1213.18,1218.36 1180.3,1221.93 1147.42,1225 1114.53,1227.56 1081.65,1229.6 1048.76,1231.09 1015.88,1232.03 982.998,1232.4 
  950.115,1232.19 917.231,1231.38 884.348,1229.95 851.464,1227.89 818.581,1225.18 785.697,1221.8 752.814,1217.73 719.931,1212.95 706.83,1210.77 687.047,1207.17 
  654.164,1200.38 621.28,1192.74 588.397,1184.22 566.208,1177.89 555.513,1174.51 522.63,1163.14 489.747,1150.68 
  "/>
<polyline clip-path="url(#clip002)" style="stroke:#6e186e; stroke-linecap:butt; stroke-linejoin:round; stroke-width:12; stroke-opacity:1; fill:none" points="
  489.747,1084.1 522.63,1100.56 547.893,1112.12 555.513,1115.19 588.397,1127.37 621.28,1138.38 643.206,1145.01 654.164,1147.97 687.047,1155.98 719.931,1163.07 
  752.814,1169.26 785.697,1174.58 809.841,1177.89 818.581,1178.98 851.464,1182.37 884.348,1185.04 917.231,1187.02 950.115,1188.32 982.998,1188.97 1015.88,1188.98 
  1048.76,1188.37 1081.65,1187.16 1114.53,1185.37 1147.42,1183.01 1180.3,1180.1 1201.27,1177.89 1213.18,1176.55 1246.07,1172.27 1278.95,1167.45 1311.83,1162.1 
  1344.72,1156.23 1377.6,1149.87 1400.91,1145.01 1410.48,1142.87 1443.37,1134.98 1476.25,1126.61 1509.13,1117.77 1529.02,1112.12 1542.02,1108.17 1574.9,1097.64 
  1607.78,1086.66 1629.07,1079.24 1640.67,1074.89 1673.55,1062.04 1706.43,1048.76 1712.17,1046.36 1739.32,1034.04 1772.2,1018.7 
  "/>
<polyline clip-path="url(#clip002)" style="stroke:#550f6d; stroke-linecap:butt; stroke-linejoin:round; stroke-width:12; stroke-opacity:1; fill:none" points="
  1772.2,958.453 1739.32,976.399 1731.37,980.588 1706.43,992.559 1673.55,1007.85 1661,1013.47 1640.67,1021.81 1607.78,1034.78 1577.27,1046.36 1574.9,1047.19 
  1542.02,1058.09 1509.13,1068.51 1476.25,1078.4 1473.29,1079.24 1443.37,1087.05 1410.48,1095.1 1377.6,1102.61 1344.72,1109.57 1331.48,1112.12 1311.83,1115.64 
  1278.95,1120.95 1246.07,1125.7 1213.18,1129.85 1180.3,1133.39 1147.42,1136.3 1114.53,1138.56 1081.65,1140.16 1048.76,1141.06 1015.88,1141.25 982.998,1140.69 
  950.115,1139.37 917.231,1137.26 884.348,1134.33 851.464,1130.55 818.581,1125.89 785.697,1120.32 752.814,1113.8 745.376,1112.12 719.931,1105.66 687.047,1096.18 
  654.164,1085.5 636.791,1079.24 621.28,1072.83 588.397,1057.81 565.629,1046.36 555.513,1040.37 522.63,1019.12 514.583,1013.47 489.747,992.237 
  "/>
<polyline clip-path="url(#clip002)" style="stroke:#550f6d; stroke-linecap:butt; stroke-linejoin:round; stroke-width:12; stroke-opacity:1; fill:none" points="
  489.747,661.624 497.967,651.754 522.63,626.686 530.488,618.871 555.513,597.293 568.921,585.987 588.397,571.493 613.675,553.104 621.28,548.153 654.164,527.345 
  665.744,520.22 687.047,508.377 719.931,490.594 726.172,487.337 752.814,474.672 785.697,459.524 797.147,454.453 818.581,445.747 851.464,432.912 881.695,421.57 
  884.348,420.652 917.231,409.864 950.115,399.574 982.998,389.801 987.003,388.687 1015.88,381.248 1048.76,373.309 1081.65,365.91 1114.53,359.067 1131.74,355.803 
  1147.42,353.042 1180.3,347.835 1213.18,343.201 1246.07,339.157 1278.95,335.723 1311.83,332.919 1344.72,330.763 1377.6,329.279 1410.48,328.487 1443.37,328.412 
  1476.25,329.077 1509.13,330.507 1542.02,332.73 1574.9,335.773 1607.78,339.665 1640.67,344.436 1673.55,350.119 1701.8,355.803 1706.43,356.85 1739.32,365.297 
  1772.2,374.899 
  "/>
<polyline clip-path="url(#clip002)" style="stroke:#6e186e; stroke-linecap:butt; stroke-linejoin:round; stroke-width:12; stroke-opacity:1; fill:none" points="
  1772.2,314.696 1739.32,307.507 1706.43,301.212 1673.55,295.782 1640.67,291.189 1630.73,290.036 1607.78,287.613 1574.9,284.846 1542.02,282.774 1509.13,281.377 
  1476.25,280.634 1443.37,280.529 1410.48,281.042 1377.6,282.157 1344.72,283.856 1311.83,286.125 1278.95,288.947 1268.36,290.036 1246.07,292.483 1213.18,296.664 
  1180.3,301.387 1147.42,306.639 1114.53,312.405 1081.65,318.67 1061.02,322.92 1048.76,325.617 1015.88,333.401 982.998,341.669 950.115,350.408 930.9,355.803 
  917.231,359.916 884.348,370.335 851.464,381.206 829.784,388.687 818.581,392.844 785.697,405.576 752.814,418.733 745.996,421.57 719.931,433.283 687.047,448.502 
  674.601,454.453 654.164,465.063 621.28,482.595 612.646,487.337 588.397,501.886 558.499,520.22 555.513,522.238 522.63,545.056 511.282,553.104 489.747,570.083 
  
  "/>
<polyline clip-path="url(#clip002)" style="stroke:#88216a; stroke-linecap:butt; stroke-linejoin:round; stroke-width:12; stroke-opacity:1; fill:none" points="
  489.747,503.419 514.359,487.337 522.63,482.374 555.513,463.13 570.691,454.453 588.397,445.105 621.28,428.175 634.472,421.57 654.164,412.418 687.047,397.561 
  707.284,388.687 719.931,383.515 752.814,370.528 785.697,357.932 791.485,355.803 818.581,346.48 851.464,335.585 884.348,325.103 891.537,322.92 917.231,315.599 
  950.115,306.665 982.998,298.16 1015.88,290.097 1016.14,290.036 1048.76,282.999 1081.65,276.348 1114.53,270.151 1147.42,264.419 1180.3,259.165 1194.26,257.153 
  1213.18,254.584 1246.07,250.611 1278.95,247.126 1311.83,244.14 1344.72,241.667 1377.6,239.72 1410.48,238.313 1443.37,237.46 1476.25,237.176 1509.13,237.475 
  1542.02,238.375 1574.9,239.891 1607.78,242.04 1640.67,244.841 1673.55,248.31 1706.43,252.468 1738.1,257.153 1739.32,257.35 1772.2,263.413 
  "/>
<polyline clip-path="url(#clip002)" style="stroke:#a12b61; stroke-linecap:butt; stroke-linejoin:round; stroke-width:12; stroke-opacity:1; fill:none" points="
  1772.2,217.993 1739.32,213.195 1706.43,209.06 1673.55,205.571 1640.67,202.711 1607.78,200.464 1574.9,198.814 1542.02,197.747 1509.13,197.247 1476.25,197.3 
  1443.37,197.894 1410.48,199.014 1377.6,200.648 1344.72,202.783 1311.83,205.408 1278.95,208.511 1246.07,212.081 1213.18,216.106 1180.3,220.577 1155.6,224.269 
  1147.42,225.562 1114.53,231.237 1081.65,237.349 1048.76,243.887 1015.88,250.841 987.715,257.153 982.998,258.272 950.115,266.543 917.231,275.219 884.348,284.29 
  864.427,290.036 851.464,294.002 818.581,304.506 785.697,315.391 763.764,322.92 752.814,326.916 719.931,339.364 687.047,352.174 678.039,355.803 654.164,366.06 
  621.28,380.574 603.399,388.687 588.397,395.971 555.513,412.361 537.476,421.57 522.63,429.717 489.747,448.179 
  "/>
<polyline clip-path="url(#clip002)" style="stroke:#ba3655; stroke-linecap:butt; stroke-linejoin:round; stroke-width:12; stroke-opacity:1; fill:none" points="
  489.747,400.242 511.555,388.687 522.63,383.193 555.513,367.288 579.796,355.803 588.397,351.982 621.28,337.784 654.164,323.915 656.601,322.92 687.047,311.215 
  719.931,298.919 744.427,290.036 752.814,287.163 785.697,276.31 818.581,265.811 846.698,257.153 851.464,255.763 884.348,246.596 917.231,237.794 950.115,229.366 
  971.011,224.269 982.998,221.496 1015.88,214.301 1048.76,207.489 1081.65,201.071 1114.53,195.055 1136.12,191.386 1147.42,189.562 1180.3,184.681 1213.18,180.209 
  1246.07,176.157 1278.95,172.532 1311.83,169.346 1344.72,166.607 1377.6,164.327 1410.48,162.515 1443.37,161.182 1476.25,160.34 1509.13,160 1542.02,160.174 
  1574.9,160.875 1607.78,162.114 1640.67,163.906 1673.55,166.262 1706.43,169.199 1739.32,172.729 1772.2,176.868 
  "/>
<polyline clip-path="url(#clip002)" style="stroke:#d04544; stroke-linecap:butt; stroke-linejoin:round; stroke-width:12; stroke-opacity:1; fill:none" points="
  1772.2,138.838 1739.32,135.252 1706.43,132.229 1673.55,129.755 1640.67,127.819 1607.78,126.407 1578.94,125.619 
  "/>
<polyline clip-path="url(#clip002)" style="stroke:#d04544; stroke-linecap:butt; stroke-linejoin:round; stroke-width:12; stroke-opacity:1; fill:none" points="
  1485.66,125.619 1476.25,125.783 1443.37,126.827 1410.48,128.33 1377.6,130.283 1344.72,132.676 1311.83,135.5 1278.95,138.745 1246.07,142.402 1213.18,146.464 
  1180.3,150.922 1147.42,155.768 1130.26,158.503 1114.53,161.135 1081.65,167.05 1048.76,173.346 1015.88,180.015 982.998,187.048 963.755,191.386 950.115,194.618 
  917.231,202.808 884.348,211.354 851.464,220.249 837.208,224.269 818.581,229.8 785.697,239.94 752.814,250.419 732.383,257.153 719.931,261.483 687.047,273.305 
  654.164,285.452 642.129,290.036 621.28,298.431 588.397,312.029 562.689,322.92 555.513,326.142 522.63,341.316 491.857,355.803 489.747,356.86 
  "/>
<polyline clip-path="url(#clip002)" style="stroke:#e35832; stroke-linecap:butt; stroke-linejoin:round; stroke-width:12; stroke-opacity:1; fill:none" points="
  489.747,317.478 522.63,302.678 551.31,290.036 555.513,288.281 588.397,274.933 621.28,261.885 633.55,257.153 654.164,249.608 687.047,237.909 719.931,226.524 
  726.668,224.269 752.814,215.951 785.697,205.821 818.581,196.015 834.704,191.386 851.464,186.802 884.348,178.165 917.231,169.86 950.115,161.895 964.817,158.503 
  982.998,154.501 1015.88,147.624 1048.76,141.096 1081.65,134.922 1114.53,129.11 1135.67,125.619 
  "/>
<polyline clip-path="url(#clip002)" style="stroke:#f0701e; stroke-linecap:butt; stroke-linejoin:round; stroke-width:12; stroke-opacity:1; fill:none" points="
  973.469,125.619 950.115,130.879 917.231,138.631 884.348,146.708 851.464,155.104 838.68,158.503 818.581,164.098 785.697,173.593 752.814,183.399 726.872,191.386 
  719.931,193.627 687.047,204.611 654.164,215.895 630.426,224.269 621.28,227.659 588.397,240.205 555.513,253.041 545.256,257.153 522.63,266.698 489.747,280.886 
  
  "/>
<polyline clip-path="url(#clip002)" style="stroke:#f98c09; stroke-linecap:butt; stroke-linejoin:round; stroke-width:12; stroke-opacity:1; fill:none" points="
  489.747,246.554 522.63,232.926 543.997,224.269 555.513,219.824 588.397,207.459 621.28,195.374 632.444,191.386 654.164,183.981 687.047,173.079 719.931,162.467 
  732.62,158.503 752.814,152.471 785.697,142.967 818.581,133.761 848.675,125.619 
  "/>
<polyline clip-path="url(#clip002)" style="stroke:#fbaa0e; stroke-linecap:butt; stroke-linejoin:round; stroke-width:12; stroke-opacity:1; fill:none" points="
  743.568,125.619 719.931,132.783 687.047,143.051 654.164,153.599 639.315,158.503 621.28,164.728 588.397,176.389 555.513,188.32 547.288,191.386 522.63,201.006 
  489.747,214.123 
  "/>
<polyline clip-path="url(#clip002)" style="stroke:#f8c931; stroke-linecap:butt; stroke-linejoin:round; stroke-width:12; stroke-opacity:1; fill:none" points="
  489.747,183.304 522.63,170.658 554.899,158.503 555.513,158.281 588.397,146.749 621.28,135.48 650.771,125.619 
  "/>
<polyline clip-path="url(#clip002)" style="stroke:#f1e864; stroke-linecap:butt; stroke-linejoin:round; stroke-width:12; stroke-opacity:1; fill:none" points="
  566.995,125.619 555.513,129.691 522.63,141.653 
  "/>
<polyline clip-path="url(#clip002)" style="stroke:#f1e864; stroke-linecap:butt; stroke-linejoin:round; stroke-width:12; stroke-opacity:1; fill:none" points="
  489.747,153.866 522.63,141.653 
  "/>
<polyline clip-path="url(#clip002)" style="stroke:#f8c931; stroke-linecap:butt; stroke-linejoin:round; stroke-width:12; stroke-opacity:1; fill:none" points="
  1772.2,1353.73 1739.32,1363.74 1706.43,1373.48 1700.47,1375.19 1673.55,1382.58 1640.67,1391.33 1607.78,1399.8 1574.9,1407.97 1574.48,1408.07 
  "/>
<polyline clip-path="url(#clip002)" style="stroke:#fbaa0e; stroke-linecap:butt; stroke-linejoin:round; stroke-width:12; stroke-opacity:1; fill:none" points="
  1449.87,1408.07 1476.25,1402.62 1509.13,1395.5 1542.02,1388.07 1574.9,1380.35 1596.01,1375.19 1607.78,1372.19 1640.67,1363.48 1673.55,1354.48 1706.43,1345.19 
  1716.31,1342.31 1739.32,1335.29 1772.2,1324.95 
  "/>
<polyline clip-path="url(#clip002)" style="stroke:#f98c09; stroke-linecap:butt; stroke-linejoin:round; stroke-width:12; stroke-opacity:1; fill:none" points="
  1772.2,1294.88 1739.32,1305.56 1727.04,1309.42 1706.43,1315.62 1673.55,1325.19 1640.67,1334.47 1611.91,1342.31 1607.78,1343.38 1574.9,1351.62 1542.02,1359.54 
  1509.13,1367.16 1476.25,1374.46 1472.8,1375.19 1443.37,1381.14 1410.48,1387.46 1377.6,1393.46 1344.72,1399.13 1311.83,1404.47 1288.09,1408.07 
  "/>
<polyline clip-path="url(#clip002)" style="stroke:#f1e864; stroke-linecap:butt; stroke-linejoin:round; stroke-width:12; stroke-opacity:1; fill:none" points="
  1679.46,1408.07 1706.43,1400.55 1739.32,1391.1 1772.2,1381.39 
  "/>
<polyline clip-path="url(#clip002)" style="stroke:#3b0964; stroke-linecap:butt; stroke-linejoin:round; stroke-width:12; stroke-opacity:1; fill:none" points="
  1772.2,882.681 1739.32,904.443 1723.19,914.821 1706.43,924.389 1673.55,942.561 1663.87,947.705 1640.67,958.777 1607.78,973.889 1592.55,980.588 1574.9,987.617 
  1542.02,1000.09 1509.13,1012.01 1504.82,1013.47 1476.25,1022.34 1443.37,1031.94 1410.48,1040.95 1389.16,1046.36 1377.6,1049.04 1344.72,1056.03 1311.83,1062.38 
  1278.95,1068.08 1246.07,1073.11 1213.18,1077.44 1196.59,1079.24 1180.3,1080.87 1147.42,1083.44 1114.53,1085.29 1081.65,1086.4 1048.76,1086.73 1015.88,1086.27 
  982.998,1084.98 950.115,1082.82 917.231,1079.77 912.764,1079.24 884.348,1075.4 851.464,1069.87 818.581,1063.2 785.697,1055.35 753.219,1046.36 752.814,1046.23 
  719.931,1034.34 687.047,1020.83 670.98,1013.47 654.164,1004.27 621.28,984.229 615.842,980.588 588.397,957.67 577.536,947.705 555.513,920.856 550.972,914.821 
  534.047,881.938 524.859,849.055 522.819,816.171 527.396,783.288 538.109,750.404 554.525,717.521 555.513,716.058 577.251,684.637 588.397,671.693 605.99,651.754 
  621.28,637.271 641.2,618.871 654.164,608.584 683.385,585.987 687.047,583.505 719.931,561.957 733.852,553.104 752.814,542.393 785.697,524.41 793.672,520.22 
  818.581,508.469 851.464,493.525 865.711,487.337 884.348,480.001 917.231,467.674 950.115,455.914 954.467,454.453 982.998,445.72 1015.88,436.251 1048.76,427.385 
  1072.06,421.57 1081.65,419.375 1114.53,412.517 1147.42,406.288 1180.3,400.713 1213.18,395.814 1246.07,391.619 1273.95,388.687 1278.95,388.203 1311.83,385.749 
  1344.72,384.015 1377.6,383.025 1410.48,382.807 1443.37,383.39 1476.25,384.802 1509.13,387.077 1525.95,388.687 1542.02,390.422 1574.9,394.992 1607.78,400.655 
  1640.67,407.457 1673.55,415.451 1695.44,421.57 1706.43,425.123 1739.32,437.163 1772.2,450.819 
  "/>
<polyline clip-path="url(#clip002)" style="stroke:#1f0c47; stroke-linecap:butt; stroke-linejoin:round; stroke-width:12; stroke-opacity:1; fill:none" points="
  1772.2,578.31 1749.83,553.104 1739.32,544.521 1706.43,520.694 1705.7,520.22 1673.55,503.911 1640.67,489.492 1635.01,487.337 1607.78,478.735 1574.9,469.927 
  1542.02,462.646 1509.13,456.809 1491.95,454.453 1476.25,452.601 1443.37,449.811 1410.48,448.091 1377.6,447.395 1344.72,447.678 1311.83,448.897 1278.95,451.012 
  1246.07,453.987 1242.08,454.453 1213.18,458.198 1180.3,463.34 1147.42,469.314 1114.53,476.084 1081.65,483.616 1066.95,487.337 1048.76,492.464 1015.88,502.556 
  982.998,513.364 963.502,520.22 950.115,525.51 917.231,539.328 885.947,553.104 884.348,553.905 851.464,571.327 824.792,585.987 818.581,589.936 785.697,611.742 
  775.331,618.871 752.814,637.161 735.404,651.754 719.931,667.595 703.781,684.637 687.047,707.318 679.738,717.521 663.139,750.404 654.164,781.526 653.67,783.288 
  652.055,816.171 654.164,827.213 658.748,849.055 674.996,881.938 687.047,897.083 702.768,914.821 719.931,928.803 746.11,947.705 752.814,951.492 785.697,967.99 
  814.75,980.588 818.581,981.958 851.464,992.213 884.348,1000.85 917.231,1007.96 949.183,1013.47 950.115,1013.61 982.998,1017.37 1015.88,1020.02 1048.76,1021.59 
  1081.65,1022.14 1114.53,1021.72 1147.42,1020.35 1180.3,1018.09 1213.18,1014.98 1225.63,1013.47 1246.07,1010.73 1278.95,1005.43 1311.83,999.298 1344.72,992.37 
  1377.6,984.684 1393.49,980.588 1410.48,975.708 1443.37,965.44 1476.25,954.458 1495.17,947.705 1509.13,942.1 1542.02,928.084 1571.71,914.821 1574.9,913.2 
  1607.78,895.549 1632.21,881.938 1640.67,876.484 1673.55,854.411 1681.23,849.055 1706.43,828.288 1720.69,816.171 1739.32,796.798 1751.92,783.288 1772.2,755.316 
  
  "/>
<polyline clip-path="url(#clip002)" style="stroke:#090621; stroke-linecap:butt; stroke-linejoin:round; stroke-width:12; stroke-opacity:1; fill:none" points="
  1609.59,618.871 1628.7,651.754 1634.5,684.637 1628.67,717.521 1612.63,750.404 1607.78,756.57 1585.87,783.288 1574.9,793.116 1548.02,816.171 1542.02,820.243 
  1509.13,841.318 1496.37,849.055 1476.25,859.083 1443.37,874.447 1426.07,881.938 1410.48,887.651 1377.6,898.617 1344.72,908.573 1321.4,914.821 1311.83,917.03 
  1278.95,923.485 1246.07,928.847 1213.18,933.047 1180.3,936.011 1147.42,937.655 1114.53,937.892 1081.65,936.623 1048.76,933.743 1015.88,929.133 982.998,922.667 
  952.467,914.821 950.115,914.044 917.231,900.621 884.348,884.046 880.784,881.938 851.464,856.935 843.584,849.055 824.915,816.171 819.672,783.288 826.131,750.404 
  842.853,717.521 851.464,706.826 870.093,684.637 884.348,672.123 908.585,651.754 917.231,646.001 950.115,625.288 960.921,618.871 982.998,608.076 1015.88,593.004 
  1032.43,585.987 1048.76,580.126 1081.65,569.401 1114.53,559.693 1139.8,553.104 1147.42,551.394 1180.3,545.147 1213.18,539.996 1246.07,536.009 1278.95,533.262 
  1311.83,531.836 1344.72,531.82 1377.6,533.311 1410.48,536.415 1443.37,541.248 1476.25,547.937 1496,553.104 1509.13,557.515 1542.02,571.215 1570.97,585.987 
  1574.9,588.826 1607.78,617.064 1609.59,618.871 
  "/>
<defs>
  <clipPath id="clip003">
    <rect x="2160" y="125" width="73" height="1283"/>
  </clipPath>
</defs>
<polyline clip-path="url(#clip003)" style="stroke:#0a0723; stroke-linecap:butt; stroke-linejoin:round; stroke-width:12; stroke-opacity:1; fill:none" points="
  2160.76,1327.92 2232.76,1327.92 
  "/>
<polyline clip-path="url(#clip003)" style="stroke:#200c4a; stroke-linecap:butt; stroke-linejoin:round; stroke-width:12; stroke-opacity:1; fill:none" points="
  2160.76,1247.77 2232.76,1247.77 
  "/>
<polyline clip-path="url(#clip003)" style="stroke:#3c0965; stroke-linecap:butt; stroke-linejoin:round; stroke-width:12; stroke-opacity:1; fill:none" points="
  2160.76,1167.61 2232.76,1167.61 
  "/>
<polyline clip-path="url(#clip003)" style="stroke:#570f6d; stroke-linecap:butt; stroke-linejoin:round; stroke-width:12; stroke-opacity:1; fill:none" points="
  2160.76,1087.46 2232.76,1087.46 
  "/>
<polyline clip-path="url(#clip003)" style="stroke:#70196e; stroke-linecap:butt; stroke-linejoin:round; stroke-width:12; stroke-opacity:1; fill:none" points="
  2160.76,1007.31 2232.76,1007.31 
  "/>
<polyline clip-path="url(#clip003)" style="stroke:#892269; stroke-linecap:butt; stroke-linejoin:round; stroke-width:12; stroke-opacity:1; fill:none" points="
  2160.76,927.153 2232.76,927.153 
  "/>
<polyline clip-path="url(#clip003)" style="stroke:#a32b61; stroke-linecap:butt; stroke-linejoin:round; stroke-width:12; stroke-opacity:1; fill:none" points="
  2160.76,846.999 2232.76,846.999 
  "/>
<polyline clip-path="url(#clip003)" style="stroke:#bb3754; stroke-linecap:butt; stroke-linejoin:round; stroke-width:12; stroke-opacity:1; fill:none" points="
  2160.76,766.846 2232.76,766.846 
  "/>
<polyline clip-path="url(#clip003)" style="stroke:#d04544; stroke-linecap:butt; stroke-linejoin:round; stroke-width:12; stroke-opacity:1; fill:none" points="
  2160.76,686.693 2232.76,686.693 
  "/>
<polyline clip-path="url(#clip003)" style="stroke:#e35832; stroke-linecap:butt; stroke-linejoin:round; stroke-width:12; stroke-opacity:1; fill:none" points="
  2160.76,606.539 2232.76,606.539 
  "/>
<polyline clip-path="url(#clip003)" style="stroke:#f0701e; stroke-linecap:butt; stroke-linejoin:round; stroke-width:12; stroke-opacity:1; fill:none" points="
  2160.76,526.386 2232.76,526.386 
  "/>
<polyline clip-path="url(#clip003)" style="stroke:#f98c09; stroke-linecap:butt; stroke-linejoin:round; stroke-width:12; stroke-opacity:1; fill:none" points="
  2160.76,446.233 2232.76,446.233 
  "/>
<polyline clip-path="url(#clip003)" style="stroke:#fbaa0e; stroke-linecap:butt; stroke-linejoin:round; stroke-width:12; stroke-opacity:1; fill:none" points="
  2160.76,366.079 2232.76,366.079 
  "/>
<polyline clip-path="url(#clip003)" style="stroke:#f8c931; stroke-linecap:butt; stroke-linejoin:round; stroke-width:12; stroke-opacity:1; fill:none" points="
  2160.76,285.926 2232.76,285.926 
  "/>
<polyline clip-path="url(#clip003)" style="stroke:#f1e864; stroke-linecap:butt; stroke-linejoin:round; stroke-width:12; stroke-opacity:1; fill:none" points="
  2160.76,205.772 2232.76,205.772 
  "/>
<path clip-path="url(#clip000)" d="M2280.7 1385.41 Q2277.09 1385.41 2275.26 1388.98 Q2273.45 1392.52 2273.45 1399.65 Q2273.45 1406.76 2275.26 1410.32 Q2277.09 1413.86 2280.7 1413.86 Q2284.33 1413.86 2286.14 1410.32 Q2287.97 1406.76 2287.97 1399.65 Q2287.97 1392.52 2286.14 1388.98 Q2284.33 1385.41 2280.7 1385.41 M2280.7 1381.71 Q2286.51 1381.71 2289.57 1386.32 Q2292.64 1390.9 2292.64 1399.65 Q2292.64 1408.38 2289.57 1412.98 Q2286.51 1417.57 2280.7 1417.57 Q2274.89 1417.57 2271.81 1412.98 Q2268.76 1408.38 2268.76 1399.65 Q2268.76 1390.9 2271.81 1386.32 Q2274.89 1381.71 2280.7 1381.71 Z" fill="#000000" fill-rule="evenodd" fill-opacity="1" /><path clip-path="url(#clip000)" d="M2269.43 1279.87 L2277.07 1279.87 L2277.07 1253.51 L2268.76 1255.17 L2268.76 1250.91 L2277.02 1249.25 L2281.7 1249.25 L2281.7 1279.87 L2289.33 1279.87 L2289.33 1283.81 L2269.43 1283.81 L2269.43 1279.87 Z" fill="#000000" fill-rule="evenodd" fill-opacity="1" /><path clip-path="url(#clip000)" d="M2308.78 1252.33 Q2305.17 1252.33 2303.34 1255.89 Q2301.53 1259.43 2301.53 1266.56 Q2301.53 1273.67 2303.34 1277.23 Q2305.17 1280.78 2308.78 1280.78 Q2312.41 1280.78 2314.22 1277.23 Q2316.05 1273.67 2316.05 1266.56 Q2316.05 1259.43 2314.22 1255.89 Q2312.41 1252.33 2308.78 1252.33 M2308.78 1248.62 Q2314.59 1248.62 2317.64 1253.23 Q2320.72 1257.81 2320.72 1266.56 Q2320.72 1275.29 2317.64 1279.9 Q2314.59 1284.48 2308.78 1284.48 Q2302.97 1284.48 2299.89 1279.9 Q2296.83 1275.29 2296.83 1266.56 Q2296.83 1257.81 2299.89 1253.23 Q2302.97 1248.62 2308.78 1248.62 Z" fill="#000000" fill-rule="evenodd" fill-opacity="1" /><path clip-path="url(#clip000)" d="M2274.38 1146.79 L2290.7 1146.79 L2290.7 1150.72 L2268.76 1150.72 L2268.76 1146.79 Q2271.42 1144.03 2276 1139.4 Q2280.61 1134.75 2281.79 1133.41 Q2284.03 1130.88 2284.91 1129.15 Q2285.82 1127.39 2285.82 1125.7 Q2285.82 1122.94 2283.87 1121.21 Q2281.95 1119.47 2278.85 1119.47 Q2276.65 1119.47 2274.2 1120.24 Q2271.77 1121 2268.99 1122.55 L2268.99 1117.83 Q2271.81 1116.69 2274.27 1116.12 Q2276.72 1115.54 2278.76 1115.54 Q2284.13 1115.54 2287.32 1118.22 Q2290.52 1120.91 2290.52 1125.4 Q2290.52 1127.53 2289.7 1129.45 Q2288.92 1131.35 2286.81 1133.94 Q2286.23 1134.61 2283.13 1137.83 Q2280.03 1141.02 2274.38 1146.79 Z" fill="#000000" fill-rule="evenodd" fill-opacity="1" /><path clip-path="url(#clip000)" d="M2310.51 1119.24 Q2306.9 1119.24 2305.08 1122.81 Q2303.27 1126.35 2303.27 1133.48 Q2303.27 1140.58 2305.08 1144.15 Q2306.9 1147.69 2310.51 1147.69 Q2314.15 1147.69 2315.95 1144.15 Q2317.78 1140.58 2317.78 1133.48 Q2317.78 1126.35 2315.95 1122.81 Q2314.15 1119.24 2310.51 1119.24 M2310.51 1115.54 Q2316.33 1115.54 2319.38 1120.14 Q2322.46 1124.73 2322.46 1133.48 Q2322.46 1142.2 2319.38 1146.81 Q2316.33 1151.39 2310.51 1151.39 Q2304.7 1151.39 2301.63 1146.81 Q2298.57 1142.2 2298.57 1133.48 Q2298.57 1124.73 2301.63 1120.14 Q2304.7 1115.54 2310.51 1115.54 Z" fill="#000000" fill-rule="evenodd" fill-opacity="1" /><path clip-path="url(#clip000)" d="M2284.38 999.003 Q2287.74 999.72 2289.61 1001.99 Q2291.51 1004.26 2291.51 1007.59 Q2291.51 1012.71 2287.99 1015.51 Q2284.47 1018.31 2277.99 1018.31 Q2275.82 1018.31 2273.5 1017.87 Q2271.21 1017.45 2268.76 1016.6 L2268.76 1012.08 Q2270.7 1013.22 2273.02 1013.79 Q2275.33 1014.37 2277.85 1014.37 Q2282.25 1014.37 2284.54 1012.64 Q2286.86 1010.9 2286.86 1007.59 Q2286.86 1004.53 2284.7 1002.82 Q2282.58 1001.09 2278.76 1001.09 L2274.73 1001.09 L2274.73 997.243 L2278.94 997.243 Q2282.39 997.243 2284.22 995.878 Q2286.05 994.489 2286.05 991.896 Q2286.05 989.234 2284.15 987.822 Q2282.27 986.387 2278.76 986.387 Q2276.83 986.387 2274.64 986.804 Q2272.44 987.22 2269.8 988.1 L2269.8 983.933 Q2272.46 983.192 2274.77 982.822 Q2277.11 982.452 2279.17 982.452 Q2284.5 982.452 2287.6 984.882 Q2290.7 987.29 2290.7 991.41 Q2290.7 994.28 2289.06 996.271 Q2287.41 998.239 2284.38 999.003 Z" fill="#000000" fill-rule="evenodd" fill-opacity="1" /><path clip-path="url(#clip000)" d="M2310.38 986.155 Q2306.76 986.155 2304.94 989.72 Q2303.13 993.262 2303.13 1000.39 Q2303.13 1007.5 2304.94 1011.06 Q2306.76 1014.6 2310.38 1014.6 Q2314.01 1014.6 2315.82 1011.06 Q2317.64 1007.5 2317.64 1000.39 Q2317.64 993.262 2315.82 989.72 Q2314.01 986.155 2310.38 986.155 M2310.38 982.452 Q2316.19 982.452 2319.24 987.058 Q2322.32 991.641 2322.32 1000.39 Q2322.32 1009.12 2319.24 1013.72 Q2316.19 1018.31 2310.38 1018.31 Q2304.57 1018.31 2301.49 1013.72 Q2298.43 1009.12 2298.43 1000.39 Q2298.43 991.641 2301.49 987.058 Q2304.57 982.452 2310.38 982.452 Z" fill="#000000" fill-rule="evenodd" fill-opacity="1" /><path clip-path="url(#clip000)" d="M2284.36 854.065 L2272.55 872.514 L2284.36 872.514 L2284.36 854.065 M2283.13 849.991 L2289.01 849.991 L2289.01 872.514 L2293.94 872.514 L2293.94 876.403 L2289.01 876.403 L2289.01 884.551 L2284.36 884.551 L2284.36 876.403 L2268.76 876.403 L2268.76 871.889 L2283.13 849.991 Z" fill="#000000" fill-rule="evenodd" fill-opacity="1" /><path clip-path="url(#clip000)" d="M2311.67 853.07 Q2308.06 853.07 2306.23 856.634 Q2304.43 860.176 2304.43 867.306 Q2304.43 874.412 2306.23 877.977 Q2308.06 881.518 2311.67 881.518 Q2315.31 881.518 2317.11 877.977 Q2318.94 874.412 2318.94 867.306 Q2318.94 860.176 2317.11 856.634 Q2315.31 853.07 2311.67 853.07 M2311.67 849.366 Q2317.48 849.366 2320.54 853.972 Q2323.62 858.556 2323.62 867.306 Q2323.62 876.032 2320.54 880.639 Q2317.48 885.222 2311.67 885.222 Q2305.86 885.222 2302.78 880.639 Q2299.73 876.032 2299.73 867.306 Q2299.73 858.556 2302.78 853.972 Q2305.86 849.366 2311.67 849.366 Z" fill="#000000" fill-rule="evenodd" fill-opacity="1" /><path clip-path="url(#clip000)" d="M2270.21 716.905 L2288.57 716.905 L2288.57 720.84 L2274.5 720.84 L2274.5 729.312 Q2275.52 728.965 2276.53 728.803 Q2277.55 728.618 2278.57 728.618 Q2284.36 728.618 2287.74 731.789 Q2291.12 734.961 2291.12 740.377 Q2291.12 745.956 2287.64 749.058 Q2284.17 752.136 2277.85 752.136 Q2275.68 752.136 2273.41 751.766 Q2271.16 751.396 2268.76 750.655 L2268.76 745.956 Q2270.84 747.09 2273.06 747.646 Q2275.28 748.201 2277.76 748.201 Q2281.77 748.201 2284.1 746.095 Q2286.44 743.988 2286.44 740.377 Q2286.44 736.766 2284.1 734.66 Q2281.77 732.553 2277.76 732.553 Q2275.89 732.553 2274.01 732.97 Q2272.16 733.386 2270.21 734.266 L2270.21 716.905 Z" fill="#000000" fill-rule="evenodd" fill-opacity="1" /><path clip-path="url(#clip000)" d="M2310.33 719.984 Q2306.72 719.984 2304.89 723.549 Q2303.08 727.09 2303.08 734.22 Q2303.08 741.326 2304.89 744.891 Q2306.72 748.433 2310.33 748.433 Q2313.96 748.433 2315.77 744.891 Q2317.6 741.326 2317.6 734.22 Q2317.6 727.09 2315.77 723.549 Q2313.96 719.984 2310.33 719.984 M2310.33 716.28 Q2316.14 716.28 2319.2 720.887 Q2322.27 725.47 2322.27 734.22 Q2322.27 742.947 2319.2 747.553 Q2316.14 752.136 2310.33 752.136 Q2304.52 752.136 2301.44 747.553 Q2298.39 742.947 2298.39 734.22 Q2298.39 725.47 2301.44 720.887 Q2304.52 716.28 2310.33 716.28 Z" fill="#000000" fill-rule="evenodd" fill-opacity="1" /><path clip-path="url(#clip000)" d="M2281.09 599.236 Q2277.95 599.236 2276.09 601.389 Q2274.27 603.541 2274.27 607.291 Q2274.27 611.018 2276.09 613.194 Q2277.95 615.347 2281.09 615.347 Q2284.24 615.347 2286.07 613.194 Q2287.92 611.018 2287.92 607.291 Q2287.92 603.541 2286.07 601.389 Q2284.24 599.236 2281.09 599.236 M2290.38 584.583 L2290.38 588.842 Q2288.62 588.009 2286.81 587.569 Q2285.03 587.129 2283.27 587.129 Q2278.64 587.129 2276.19 590.254 Q2273.76 593.379 2273.41 599.699 Q2274.77 597.685 2276.83 596.62 Q2278.89 595.532 2281.37 595.532 Q2286.58 595.532 2289.59 598.703 Q2292.62 601.852 2292.62 607.291 Q2292.62 612.615 2289.47 615.833 Q2286.33 619.051 2281.09 619.051 Q2275.1 619.051 2271.93 614.467 Q2268.76 609.861 2268.76 601.134 Q2268.76 592.94 2272.64 588.078 Q2276.53 583.194 2283.08 583.194 Q2284.84 583.194 2286.63 583.541 Q2288.43 583.889 2290.38 584.583 Z" fill="#000000" fill-rule="evenodd" fill-opacity="1" /><path clip-path="url(#clip000)" d="M2310.68 586.898 Q2307.07 586.898 2305.24 590.463 Q2303.43 594.004 2303.43 601.134 Q2303.43 608.24 2305.24 611.805 Q2307.07 615.347 2310.68 615.347 Q2314.31 615.347 2316.12 611.805 Q2317.95 608.24 2317.95 601.134 Q2317.95 594.004 2316.12 590.463 Q2314.31 586.898 2310.68 586.898 M2310.68 583.194 Q2316.49 583.194 2319.54 587.801 Q2322.62 592.384 2322.62 601.134 Q2322.62 609.861 2319.54 614.467 Q2316.49 619.051 2310.68 619.051 Q2304.87 619.051 2301.79 614.467 Q2298.73 609.861 2298.73 601.134 Q2298.73 592.384 2301.79 587.801 Q2304.87 583.194 2310.68 583.194 Z" fill="#000000" fill-rule="evenodd" fill-opacity="1" /><path clip-path="url(#clip000)" d="M2268.76 450.733 L2290.98 450.733 L2290.98 452.724 L2278.43 485.293 L2273.55 485.293 L2285.35 454.669 L2268.76 454.669 L2268.76 450.733 Z" fill="#000000" fill-rule="evenodd" fill-opacity="1" /><path clip-path="url(#clip000)" d="M2310.1 453.812 Q2306.49 453.812 2304.66 457.377 Q2302.85 460.919 2302.85 468.048 Q2302.85 475.155 2304.66 478.719 Q2306.49 482.261 2310.1 482.261 Q2313.73 482.261 2315.54 478.719 Q2317.37 475.155 2317.37 468.048 Q2317.37 460.919 2315.54 457.377 Q2313.73 453.812 2310.1 453.812 M2310.1 450.108 Q2315.91 450.108 2318.96 454.715 Q2322.04 459.298 2322.04 468.048 Q2322.04 476.775 2318.96 481.381 Q2315.91 485.965 2310.1 485.965 Q2304.29 485.965 2301.21 481.381 Q2298.15 476.775 2298.15 468.048 Q2298.15 459.298 2301.21 454.715 Q2304.29 450.108 2310.1 450.108 Z" fill="#000000" fill-rule="evenodd" fill-opacity="1" /><path clip-path="url(#clip000)" d="M2280.61 335.796 Q2277.27 335.796 2275.35 337.578 Q2273.45 339.36 2273.45 342.485 Q2273.45 345.61 2275.35 347.393 Q2277.27 349.175 2280.61 349.175 Q2283.94 349.175 2285.86 347.393 Q2287.78 345.587 2287.78 342.485 Q2287.78 339.36 2285.86 337.578 Q2283.96 335.796 2280.61 335.796 M2275.93 333.805 Q2272.92 333.064 2271.23 331.004 Q2269.57 328.944 2269.57 325.981 Q2269.57 321.837 2272.51 319.43 Q2275.47 317.023 2280.61 317.023 Q2285.77 317.023 2288.71 319.43 Q2291.65 321.837 2291.65 325.981 Q2291.65 328.944 2289.96 331.004 Q2288.29 333.064 2285.31 333.805 Q2288.69 334.592 2290.56 336.884 Q2292.46 339.175 2292.46 342.485 Q2292.46 347.509 2289.38 350.194 Q2286.33 352.879 2280.61 352.879 Q2274.89 352.879 2271.81 350.194 Q2268.76 347.509 2268.76 342.485 Q2268.76 339.175 2270.65 336.884 Q2272.55 334.592 2275.93 333.805 M2274.22 326.421 Q2274.22 329.106 2275.89 330.611 Q2277.58 332.115 2280.61 332.115 Q2283.62 332.115 2285.31 330.611 Q2287.02 329.106 2287.02 326.421 Q2287.02 323.736 2285.31 322.231 Q2283.62 320.726 2280.61 320.726 Q2277.58 320.726 2275.89 322.231 Q2274.22 323.736 2274.22 326.421 Z" fill="#000000" fill-rule="evenodd" fill-opacity="1" /><path clip-path="url(#clip000)" d="M2310.77 320.726 Q2307.16 320.726 2305.33 324.291 Q2303.52 327.833 2303.52 334.962 Q2303.52 342.069 2305.33 345.634 Q2307.16 349.175 2310.77 349.175 Q2314.4 349.175 2316.21 345.634 Q2318.04 342.069 2318.04 334.962 Q2318.04 327.833 2316.21 324.291 Q2314.4 320.726 2310.77 320.726 M2310.77 317.023 Q2316.58 317.023 2319.64 321.629 Q2322.71 326.212 2322.71 334.962 Q2322.71 343.689 2319.64 348.296 Q2316.58 352.879 2310.77 352.879 Q2304.96 352.879 2301.88 348.296 Q2298.83 343.689 2298.83 334.962 Q2298.83 326.212 2301.88 321.629 Q2304.96 317.023 2310.77 317.023 Z" fill="#000000" fill-rule="evenodd" fill-opacity="1" /><path clip-path="url(#clip000)" d="M2270.98 218.404 L2270.98 214.145 Q2272.74 214.978 2274.54 215.418 Q2276.35 215.858 2278.08 215.858 Q2282.71 215.858 2285.14 212.756 Q2287.6 209.631 2287.95 203.289 Q2286.6 205.279 2284.54 206.344 Q2282.48 207.409 2279.98 207.409 Q2274.8 207.409 2271.77 204.284 Q2268.76 201.136 2268.76 195.696 Q2268.76 190.372 2271.9 187.154 Q2275.05 183.937 2280.28 183.937 Q2286.28 183.937 2289.43 188.543 Q2292.6 193.127 2292.6 201.877 Q2292.6 210.048 2288.71 214.932 Q2284.84 219.793 2278.29 219.793 Q2276.53 219.793 2274.73 219.446 Q2272.92 219.099 2270.98 218.404 M2280.28 203.752 Q2283.43 203.752 2285.26 201.599 Q2287.11 199.446 2287.11 195.696 Q2287.11 191.969 2285.26 189.816 Q2283.43 187.64 2280.28 187.64 Q2277.14 187.64 2275.28 189.816 Q2273.45 191.969 2273.45 195.696 Q2273.45 199.446 2275.28 201.599 Q2277.14 203.752 2280.28 203.752 Z" fill="#000000" fill-rule="evenodd" fill-opacity="1" /><path clip-path="url(#clip000)" d="M2311 187.64 Q2307.39 187.64 2305.56 191.205 Q2303.76 194.747 2303.76 201.877 Q2303.76 208.983 2305.56 212.548 Q2307.39 216.089 2311 216.089 Q2314.64 216.089 2316.44 212.548 Q2318.27 208.983 2318.27 201.877 Q2318.27 194.747 2316.44 191.205 Q2314.64 187.64 2311 187.64 M2311 183.937 Q2316.81 183.937 2319.87 188.543 Q2322.95 193.127 2322.95 201.877 Q2322.95 210.603 2319.87 215.21 Q2316.81 219.793 2311 219.793 Q2305.19 219.793 2302.11 215.21 Q2299.06 210.603 2299.06 201.877 Q2299.06 193.127 2302.11 188.543 Q2305.19 183.937 2311 183.937 Z" fill="#000000" fill-rule="evenodd" fill-opacity="1" /><polyline clip-path="url(#clip000)" style="stroke:#000000; stroke-linecap:butt; stroke-linejoin:round; stroke-width:4; stroke-opacity:1; fill:none" points="
  2232.76,1408.07 2232.76,1403.24 2256.76,1403.24 2232.76,1403.24 2232.76,1270.16 2256.76,1270.16 2232.76,1270.16 2232.76,1137.07 2256.76,1137.07 2232.76,1137.07 
  2232.76,1003.99 2256.76,1003.99 2232.76,1003.99 2232.76,870.9 2256.76,870.9 2232.76,870.9 2232.76,737.814 2256.76,737.814 2232.76,737.814 2232.76,604.728 
  2256.76,604.728 2232.76,604.728 2232.76,471.642 2256.76,471.642 2232.76,471.642 2232.76,338.556 2256.76,338.556 2232.76,338.556 2232.76,205.471 2256.76,205.471 
  2232.76,205.471 2232.76,125.619 
  "/>
</svg>
