<?xml version="1.0" encoding="utf-8"?>
<svg xmlns="http://www.w3.org/2000/svg" xmlns:xlink="http://www.w3.org/1999/xlink" width="600" height="400" viewBox="0 0 2400 1600">
<defs>
  <clipPath id="clip440">
    <rect x="0" y="0" width="2400" height="1600"/>
  </clipPath>
</defs>
<path clip-path="url(#clip440)" d="
M0 1600 L2400 1600 L2400 0 L0 0  Z
  " fill="#ffffff" fill-rule="evenodd" fill-opacity="1"/>
<defs>
  <clipPath id="clip441">
    <rect x="480" y="0" width="1681" height="1600"/>
  </clipPath>
</defs>
<path clip-path="url(#clip440)" d="
M186.274 1486.45 L2352.76 1486.45 L2352.76 47.2441 L186.274 47.2441  Z
  " fill="#ffffff" fill-rule="evenodd" fill-opacity="1"/>
<defs>
  <clipPath id="clip442">
    <rect x="186" y="47" width="2167" height="1440"/>
  </clipPath>
</defs>
<polyline clip-path="url(#clip442)" style="stroke:#000000; stroke-linecap:butt; stroke-linejoin:round; stroke-width:2; stroke-opacity:0.1; fill:none" points="
  247.59,1486.45 247.59,47.2441 
  "/>
<polyline clip-path="url(#clip442)" style="stroke:#000000; stroke-linecap:butt; stroke-linejoin:round; stroke-width:2; stroke-opacity:0.1; fill:none" points="
  758.552,1486.45 758.552,47.2441 
  "/>
<polyline clip-path="url(#clip442)" style="stroke:#000000; stroke-linecap:butt; stroke-linejoin:round; stroke-width:2; stroke-opacity:0.1; fill:none" points="
  1269.51,1486.45 1269.51,47.2441 
  "/>
<polyline clip-path="url(#clip442)" style="stroke:#000000; stroke-linecap:butt; stroke-linejoin:round; stroke-width:2; stroke-opacity:0.1; fill:none" points="
  1780.48,1486.45 1780.48,47.2441 
  "/>
<polyline clip-path="url(#clip442)" style="stroke:#000000; stroke-linecap:butt; stroke-linejoin:round; stroke-width:2; stroke-opacity:0.1; fill:none" points="
  2291.44,1486.45 2291.44,47.2441 
  "/>
<polyline clip-path="url(#clip440)" style="stroke:#000000; stroke-linecap:butt; stroke-linejoin:round; stroke-width:4; stroke-opacity:1; fill:none" points="
  186.274,1486.45 2352.76,1486.45 
  "/>
<polyline clip-path="url(#clip440)" style="stroke:#000000; stroke-linecap:butt; stroke-linejoin:round; stroke-width:4; stroke-opacity:1; fill:none" points="
  247.59,1486.45 247.59,1467.55 
  "/>
<polyline clip-path="url(#clip440)" style="stroke:#000000; stroke-linecap:butt; stroke-linejoin:round; stroke-width:4; stroke-opacity:1; fill:none" points="
  758.552,1486.45 758.552,1467.55 
  "/>
<polyline clip-path="url(#clip440)" style="stroke:#000000; stroke-linecap:butt; stroke-linejoin:round; stroke-width:4; stroke-opacity:1; fill:none" points="
  1269.51,1486.45 1269.51,1467.55 
  "/>
<polyline clip-path="url(#clip440)" style="stroke:#000000; stroke-linecap:butt; stroke-linejoin:round; stroke-width:4; stroke-opacity:1; fill:none" points="
  1780.48,1486.45 1780.48,1467.55 
  "/>
<polyline clip-path="url(#clip440)" style="stroke:#000000; stroke-linecap:butt; stroke-linejoin:round; stroke-width:4; stroke-opacity:1; fill:none" points="
  2291.44,1486.45 2291.44,1467.55 
  "/>
<path clip-path="url(#clip440)" d="M194.118 1532.02 L223.793 1532.02 L223.793 1535.95 L194.118 1535.95 L194.118 1532.02 Z" fill="#000000" fill-rule="evenodd" fill-opacity="1" /><path clip-path="url(#clip440)" d="M234.696 1544.91 L242.335 1544.91 L242.335 1518.55 L234.025 1520.21 L234.025 1515.95 L242.289 1514.29 L246.965 1514.29 L246.965 1544.91 L254.603 1544.91 L254.603 1548.85 L234.696 1548.85 L234.696 1544.91 Z" fill="#000000" fill-rule="evenodd" fill-opacity="1" /><path clip-path="url(#clip440)" d="M264.048 1542.97 L268.932 1542.97 L268.932 1548.85 L264.048 1548.85 L264.048 1542.97 Z" fill="#000000" fill-rule="evenodd" fill-opacity="1" /><path clip-path="url(#clip440)" d="M289.117 1517.37 Q285.506 1517.37 283.677 1520.93 Q281.872 1524.47 281.872 1531.6 Q281.872 1538.71 283.677 1542.27 Q285.506 1545.82 289.117 1545.82 Q292.751 1545.82 294.557 1542.27 Q296.386 1538.71 296.386 1531.6 Q296.386 1524.47 294.557 1520.93 Q292.751 1517.37 289.117 1517.37 M289.117 1513.66 Q294.927 1513.66 297.983 1518.27 Q301.061 1522.85 301.061 1531.6 Q301.061 1540.33 297.983 1544.94 Q294.927 1549.52 289.117 1549.52 Q283.307 1549.52 280.228 1544.94 Q277.173 1540.33 277.173 1531.6 Q277.173 1522.85 280.228 1518.27 Q283.307 1513.66 289.117 1513.66 Z" fill="#000000" fill-rule="evenodd" fill-opacity="1" /><path clip-path="url(#clip440)" d="M705.578 1532.02 L735.254 1532.02 L735.254 1535.95 L705.578 1535.95 L705.578 1532.02 Z" fill="#000000" fill-rule="evenodd" fill-opacity="1" /><path clip-path="url(#clip440)" d="M755.346 1517.37 Q751.735 1517.37 749.906 1520.93 Q748.101 1524.47 748.101 1531.6 Q748.101 1538.71 749.906 1542.27 Q751.735 1545.82 755.346 1545.82 Q758.98 1545.82 760.786 1542.27 Q762.615 1538.71 762.615 1531.6 Q762.615 1524.47 760.786 1520.93 Q758.98 1517.37 755.346 1517.37 M755.346 1513.66 Q761.156 1513.66 764.212 1518.27 Q767.291 1522.85 767.291 1531.6 Q767.291 1540.33 764.212 1544.94 Q761.156 1549.52 755.346 1549.52 Q749.536 1549.52 746.457 1544.94 Q743.402 1540.33 743.402 1531.6 Q743.402 1522.85 746.457 1518.27 Q749.536 1513.66 755.346 1513.66 Z" fill="#000000" fill-rule="evenodd" fill-opacity="1" /><path clip-path="url(#clip440)" d="M775.508 1542.97 L780.392 1542.97 L780.392 1548.85 L775.508 1548.85 L775.508 1542.97 Z" fill="#000000" fill-rule="evenodd" fill-opacity="1" /><path clip-path="url(#clip440)" d="M790.624 1514.29 L808.98 1514.29 L808.98 1518.22 L794.906 1518.22 L794.906 1526.7 Q795.925 1526.35 796.943 1526.19 Q797.962 1526 798.98 1526 Q804.767 1526 808.147 1529.17 Q811.526 1532.34 811.526 1537.76 Q811.526 1543.34 808.054 1546.44 Q804.582 1549.52 798.263 1549.52 Q796.087 1549.52 793.818 1549.15 Q791.573 1548.78 789.166 1548.04 L789.166 1543.34 Q791.249 1544.47 793.471 1545.03 Q795.693 1545.58 798.17 1545.58 Q802.175 1545.58 804.513 1543.48 Q806.851 1541.37 806.851 1537.76 Q806.851 1534.15 804.513 1532.04 Q802.175 1529.94 798.17 1529.94 Q796.295 1529.94 794.42 1530.35 Q792.568 1530.77 790.624 1531.65 L790.624 1514.29 Z" fill="#000000" fill-rule="evenodd" fill-opacity="1" /><path clip-path="url(#clip440)" d="M1246.9 1517.37 Q1243.29 1517.37 1241.46 1520.93 Q1239.65 1524.47 1239.65 1531.6 Q1239.65 1538.71 1241.46 1542.27 Q1243.29 1545.82 1246.9 1545.82 Q1250.53 1545.82 1252.34 1542.27 Q1254.17 1538.71 1254.17 1531.6 Q1254.17 1524.47 1252.34 1520.93 Q1250.53 1517.37 1246.9 1517.37 M1246.9 1513.66 Q1252.71 1513.66 1255.77 1518.27 Q1258.84 1522.85 1258.84 1531.6 Q1258.84 1540.33 1255.77 1544.94 Q1252.71 1549.52 1246.9 1549.52 Q1241.09 1549.52 1238.01 1544.94 Q1234.95 1540.33 1234.95 1531.6 Q1234.95 1522.85 1238.01 1518.27 Q1241.09 1513.66 1246.9 1513.66 Z" fill="#000000" fill-rule="evenodd" fill-opacity="1" /><path clip-path="url(#clip440)" d="M1267.06 1542.97 L1271.95 1542.97 L1271.95 1548.85 L1267.06 1548.85 L1267.06 1542.97 Z" fill="#000000" fill-rule="evenodd" fill-opacity="1" /><path clip-path="url(#clip440)" d="M1292.13 1517.37 Q1288.52 1517.37 1286.69 1520.93 Q1284.89 1524.47 1284.89 1531.6 Q1284.89 1538.71 1286.69 1542.27 Q1288.52 1545.82 1292.13 1545.82 Q1295.76 1545.82 1297.57 1542.27 Q1299.4 1538.71 1299.4 1531.6 Q1299.4 1524.47 1297.57 1520.93 Q1295.76 1517.37 1292.13 1517.37 M1292.13 1513.66 Q1297.94 1513.66 1301 1518.27 Q1304.07 1522.85 1304.07 1531.6 Q1304.07 1540.33 1301 1544.94 Q1297.94 1549.52 1292.13 1549.52 Q1286.32 1549.52 1283.24 1544.94 Q1280.19 1540.33 1280.19 1531.6 Q1280.19 1522.85 1283.24 1518.27 Q1286.32 1513.66 1292.13 1513.66 Z" fill="#000000" fill-rule="evenodd" fill-opacity="1" /><path clip-path="url(#clip440)" d="M1758.36 1517.37 Q1754.75 1517.37 1752.92 1520.93 Q1751.11 1524.47 1751.11 1531.6 Q1751.11 1538.71 1752.92 1542.27 Q1754.75 1545.82 1758.36 1545.82 Q1761.99 1545.82 1763.8 1542.27 Q1765.63 1538.71 1765.63 1531.6 Q1765.63 1524.47 1763.8 1520.93 Q1761.99 1517.37 1758.36 1517.37 M1758.36 1513.66 Q1764.17 1513.66 1767.23 1518.27 Q1770.3 1522.85 1770.3 1531.6 Q1770.3 1540.33 1767.23 1544.94 Q1764.17 1549.52 1758.36 1549.52 Q1752.55 1549.52 1749.47 1544.94 Q1746.42 1540.33 1746.42 1531.6 Q1746.42 1522.85 1749.47 1518.27 Q1752.55 1513.66 1758.36 1513.66 Z" fill="#000000" fill-rule="evenodd" fill-opacity="1" /><path clip-path="url(#clip440)" d="M1778.52 1542.97 L1783.41 1542.97 L1783.41 1548.85 L1778.52 1548.85 L1778.52 1542.97 Z" fill="#000000" fill-rule="evenodd" fill-opacity="1" /><path clip-path="url(#clip440)" d="M1793.64 1514.29 L1811.99 1514.29 L1811.99 1518.22 L1797.92 1518.22 L1797.92 1526.7 Q1798.94 1526.35 1799.96 1526.19 Q1800.98 1526 1801.99 1526 Q1807.78 1526 1811.16 1529.17 Q1814.54 1532.34 1814.54 1537.76 Q1814.54 1543.34 1811.07 1546.44 Q1807.6 1549.52 1801.28 1549.52 Q1799.1 1549.52 1796.83 1549.15 Q1794.59 1548.78 1792.18 1548.04 L1792.18 1543.34 Q1794.26 1544.47 1796.48 1545.03 Q1798.71 1545.58 1801.18 1545.58 Q1805.19 1545.58 1807.53 1543.48 Q1809.86 1541.37 1809.86 1537.76 Q1809.86 1534.15 1807.53 1532.04 Q1805.19 1529.94 1801.18 1529.94 Q1799.31 1529.94 1797.43 1530.35 Q1795.58 1530.77 1793.64 1531.65 L1793.64 1514.29 Z" fill="#000000" fill-rule="evenodd" fill-opacity="1" /><path clip-path="url(#clip440)" d="M2258.59 1544.91 L2266.23 1544.91 L2266.23 1518.55 L2257.92 1520.21 L2257.92 1515.95 L2266.19 1514.29 L2270.86 1514.29 L2270.86 1544.91 L2278.5 1544.91 L2278.5 1548.85 L2258.59 1548.85 L2258.59 1544.91 Z" fill="#000000" fill-rule="evenodd" fill-opacity="1" /><path clip-path="url(#clip440)" d="M2287.95 1542.97 L2292.83 1542.97 L2292.83 1548.85 L2287.95 1548.85 L2287.95 1542.97 Z" fill="#000000" fill-rule="evenodd" fill-opacity="1" /><path clip-path="url(#clip440)" d="M2313.01 1517.37 Q2309.4 1517.37 2307.57 1520.93 Q2305.77 1524.47 2305.77 1531.6 Q2305.77 1538.71 2307.57 1542.27 Q2309.4 1545.82 2313.01 1545.82 Q2316.65 1545.82 2318.45 1542.27 Q2320.28 1538.71 2320.28 1531.6 Q2320.28 1524.47 2318.45 1520.93 Q2316.65 1517.37 2313.01 1517.37 M2313.01 1513.66 Q2318.82 1513.66 2321.88 1518.27 Q2324.96 1522.85 2324.96 1531.6 Q2324.96 1540.33 2321.88 1544.94 Q2318.82 1549.52 2313.01 1549.52 Q2307.2 1549.52 2304.13 1544.94 Q2301.07 1540.33 2301.07 1531.6 Q2301.07 1522.85 2304.13 1518.27 Q2307.2 1513.66 2313.01 1513.66 Z" fill="#000000" fill-rule="evenodd" fill-opacity="1" /><polyline clip-path="url(#clip442)" style="stroke:#000000; stroke-linecap:butt; stroke-linejoin:round; stroke-width:2; stroke-opacity:0.1; fill:none" points="
  186.274,1445.72 2352.76,1445.72 
  "/>
<polyline clip-path="url(#clip442)" style="stroke:#000000; stroke-linecap:butt; stroke-linejoin:round; stroke-width:2; stroke-opacity:0.1; fill:none" points="
  186.274,1104.01 2352.76,1104.01 
  "/>
<polyline clip-path="url(#clip442)" style="stroke:#000000; stroke-linecap:butt; stroke-linejoin:round; stroke-width:2; stroke-opacity:0.1; fill:none" points="
  186.274,762.307 2352.76,762.307 
  "/>
<polyline clip-path="url(#clip442)" style="stroke:#000000; stroke-linecap:butt; stroke-linejoin:round; stroke-width:2; stroke-opacity:0.1; fill:none" points="
  186.274,420.603 2352.76,420.603 
  "/>
<polyline clip-path="url(#clip442)" style="stroke:#000000; stroke-linecap:butt; stroke-linejoin:round; stroke-width:2; stroke-opacity:0.1; fill:none" points="
  186.274,78.8982 2352.76,78.8982 
  "/>
<polyline clip-path="url(#clip440)" style="stroke:#000000; stroke-linecap:butt; stroke-linejoin:round; stroke-width:4; stroke-opacity:1; fill:none" points="
  186.274,1486.45 186.274,47.2441 
  "/>
<polyline clip-path="url(#clip440)" style="stroke:#000000; stroke-linecap:butt; stroke-linejoin:round; stroke-width:4; stroke-opacity:1; fill:none" points="
  186.274,1445.72 205.172,1445.72 
  "/>
<polyline clip-path="url(#clip440)" style="stroke:#000000; stroke-linecap:butt; stroke-linejoin:round; stroke-width:4; stroke-opacity:1; fill:none" points="
  186.274,1104.01 205.172,1104.01 
  "/>
<polyline clip-path="url(#clip440)" style="stroke:#000000; stroke-linecap:butt; stroke-linejoin:round; stroke-width:4; stroke-opacity:1; fill:none" points="
  186.274,762.307 205.172,762.307 
  "/>
<polyline clip-path="url(#clip440)" style="stroke:#000000; stroke-linecap:butt; stroke-linejoin:round; stroke-width:4; stroke-opacity:1; fill:none" points="
  186.274,420.603 205.172,420.603 
  "/>
<polyline clip-path="url(#clip440)" style="stroke:#000000; stroke-linecap:butt; stroke-linejoin:round; stroke-width:4; stroke-opacity:1; fill:none" points="
  186.274,78.8982 205.172,78.8982 
  "/>
<path clip-path="url(#clip440)" d="M62.9365 1431.51 Q59.3254 1431.51 57.4967 1435.08 Q55.6912 1438.62 55.6912 1445.75 Q55.6912 1452.86 57.4967 1456.42 Q59.3254 1459.96 62.9365 1459.96 Q66.5707 1459.96 68.3763 1456.42 Q70.205 1452.86 70.205 1445.75 Q70.205 1438.62 68.3763 1435.08 Q66.5707 1431.51 62.9365 1431.51 M62.9365 1427.81 Q68.7467 1427.81 71.8022 1432.42 Q74.8809 1437 74.8809 1445.75 Q74.8809 1454.48 71.8022 1459.08 Q68.7467 1463.67 62.9365 1463.67 Q57.1264 1463.67 54.0477 1459.08 Q50.9921 1454.48 50.9921 1445.75 Q50.9921 1437 54.0477 1432.42 Q57.1264 1427.81 62.9365 1427.81 Z" fill="#000000" fill-rule="evenodd" fill-opacity="1" /><path clip-path="url(#clip440)" d="M83.0984 1457.12 L87.9827 1457.12 L87.9827 1463 L83.0984 1463 L83.0984 1457.12 Z" fill="#000000" fill-rule="evenodd" fill-opacity="1" /><path clip-path="url(#clip440)" d="M108.168 1431.51 Q104.557 1431.51 102.728 1435.08 Q100.922 1438.62 100.922 1445.75 Q100.922 1452.86 102.728 1456.42 Q104.557 1459.96 108.168 1459.96 Q111.802 1459.96 113.608 1456.42 Q115.436 1452.86 115.436 1445.75 Q115.436 1438.62 113.608 1435.08 Q111.802 1431.51 108.168 1431.51 M108.168 1427.81 Q113.978 1427.81 117.033 1432.42 Q120.112 1437 120.112 1445.75 Q120.112 1454.48 117.033 1459.08 Q113.978 1463.67 108.168 1463.67 Q102.358 1463.67 99.2789 1459.08 Q96.2234 1454.48 96.2234 1445.75 Q96.2234 1437 99.2789 1432.42 Q102.358 1427.81 108.168 1427.81 Z" fill="#000000" fill-rule="evenodd" fill-opacity="1" /><path clip-path="url(#clip440)" d="M138.33 1431.51 Q134.719 1431.51 132.89 1435.08 Q131.084 1438.62 131.084 1445.75 Q131.084 1452.86 132.89 1456.42 Q134.719 1459.96 138.33 1459.96 Q141.964 1459.96 143.769 1456.42 Q145.598 1452.86 145.598 1445.75 Q145.598 1438.62 143.769 1435.08 Q141.964 1431.51 138.33 1431.51 M138.33 1427.81 Q144.14 1427.81 147.195 1432.42 Q150.274 1437 150.274 1445.75 Q150.274 1454.48 147.195 1459.08 Q144.14 1463.67 138.33 1463.67 Q132.519 1463.67 129.441 1459.08 Q126.385 1454.48 126.385 1445.75 Q126.385 1437 129.441 1432.42 Q132.519 1427.81 138.33 1427.81 Z" fill="#000000" fill-rule="evenodd" fill-opacity="1" /><path clip-path="url(#clip440)" d="M63.9319 1089.81 Q60.3208 1089.81 58.4921 1093.37 Q56.6865 1096.92 56.6865 1104.05 Q56.6865 1111.15 58.4921 1114.72 Q60.3208 1118.26 63.9319 1118.26 Q67.5661 1118.26 69.3717 1114.72 Q71.2004 1111.15 71.2004 1104.05 Q71.2004 1096.92 69.3717 1093.37 Q67.5661 1089.81 63.9319 1089.81 M63.9319 1086.11 Q69.742 1086.11 72.7976 1090.71 Q75.8763 1095.3 75.8763 1104.05 Q75.8763 1112.77 72.7976 1117.38 Q69.742 1121.96 63.9319 1121.96 Q58.1217 1121.96 55.043 1117.38 Q51.9875 1112.77 51.9875 1104.05 Q51.9875 1095.3 55.043 1090.71 Q58.1217 1086.11 63.9319 1086.11 Z" fill="#000000" fill-rule="evenodd" fill-opacity="1" /><path clip-path="url(#clip440)" d="M84.0938 1115.41 L88.978 1115.41 L88.978 1121.29 L84.0938 1121.29 L84.0938 1115.41 Z" fill="#000000" fill-rule="evenodd" fill-opacity="1" /><path clip-path="url(#clip440)" d="M103.191 1117.36 L119.51 1117.36 L119.51 1121.29 L97.566 1121.29 L97.566 1117.36 Q100.228 1114.6 104.811 1109.97 Q109.418 1105.32 110.598 1103.98 Q112.844 1101.45 113.723 1099.72 Q114.626 1097.96 114.626 1096.27 Q114.626 1093.51 112.682 1091.78 Q110.76 1090.04 107.658 1090.04 Q105.459 1090.04 103.006 1090.81 Q100.575 1091.57 97.7974 1093.12 L97.7974 1088.4 Q100.621 1087.26 103.075 1086.69 Q105.529 1086.11 107.566 1086.11 Q112.936 1086.11 116.131 1088.79 Q119.325 1091.48 119.325 1095.97 Q119.325 1098.1 118.515 1100.02 Q117.728 1101.92 115.621 1104.51 Q115.043 1105.18 111.941 1108.4 Q108.839 1111.59 103.191 1117.36 Z" fill="#000000" fill-rule="evenodd" fill-opacity="1" /><path clip-path="url(#clip440)" d="M129.371 1086.73 L147.728 1086.73 L147.728 1090.67 L133.654 1090.67 L133.654 1099.14 Q134.672 1098.79 135.691 1098.63 Q136.709 1098.44 137.728 1098.44 Q143.515 1098.44 146.894 1101.62 Q150.274 1104.79 150.274 1110.2 Q150.274 1115.78 146.802 1118.88 Q143.33 1121.96 137.01 1121.96 Q134.834 1121.96 132.566 1121.59 Q130.32 1121.22 127.913 1120.48 L127.913 1115.78 Q129.996 1116.92 132.219 1117.47 Q134.441 1118.03 136.918 1118.03 Q140.922 1118.03 143.26 1115.92 Q145.598 1113.81 145.598 1110.2 Q145.598 1106.59 143.26 1104.49 Q140.922 1102.38 136.918 1102.38 Q135.043 1102.38 133.168 1102.8 Q131.316 1103.21 129.371 1104.09 L129.371 1086.73 Z" fill="#000000" fill-rule="evenodd" fill-opacity="1" /><path clip-path="url(#clip440)" d="M62.9365 748.106 Q59.3254 748.106 57.4967 751.671 Q55.6912 755.212 55.6912 762.342 Q55.6912 769.448 57.4967 773.013 Q59.3254 776.555 62.9365 776.555 Q66.5707 776.555 68.3763 773.013 Q70.205 769.448 70.205 762.342 Q70.205 755.212 68.3763 751.671 Q66.5707 748.106 62.9365 748.106 M62.9365 744.402 Q68.7467 744.402 71.8022 749.009 Q74.8809 753.592 74.8809 762.342 Q74.8809 771.069 71.8022 775.675 Q68.7467 780.258 62.9365 780.258 Q57.1264 780.258 54.0477 775.675 Q50.9921 771.069 50.9921 762.342 Q50.9921 753.592 54.0477 749.009 Q57.1264 744.402 62.9365 744.402 Z" fill="#000000" fill-rule="evenodd" fill-opacity="1" /><path clip-path="url(#clip440)" d="M83.0984 773.707 L87.9827 773.707 L87.9827 779.587 L83.0984 779.587 L83.0984 773.707 Z" fill="#000000" fill-rule="evenodd" fill-opacity="1" /><path clip-path="url(#clip440)" d="M98.2141 745.027 L116.57 745.027 L116.57 748.962 L102.496 748.962 L102.496 757.434 Q103.515 757.087 104.534 756.925 Q105.552 756.74 106.571 756.74 Q112.358 756.74 115.737 759.911 Q119.117 763.082 119.117 768.499 Q119.117 774.078 115.645 777.18 Q112.172 780.258 105.853 780.258 Q103.677 780.258 101.409 779.888 Q99.1632 779.518 96.7558 778.777 L96.7558 774.078 Q98.8391 775.212 101.061 775.768 Q103.284 776.323 105.76 776.323 Q109.765 776.323 112.103 774.217 Q114.441 772.11 114.441 768.499 Q114.441 764.888 112.103 762.782 Q109.765 760.675 105.76 760.675 Q103.885 760.675 102.01 761.092 Q100.159 761.508 98.2141 762.388 L98.2141 745.027 Z" fill="#000000" fill-rule="evenodd" fill-opacity="1" /><path clip-path="url(#clip440)" d="M138.33 748.106 Q134.719 748.106 132.89 751.671 Q131.084 755.212 131.084 762.342 Q131.084 769.448 132.89 773.013 Q134.719 776.555 138.33 776.555 Q141.964 776.555 143.769 773.013 Q145.598 769.448 145.598 762.342 Q145.598 755.212 143.769 751.671 Q141.964 748.106 138.33 748.106 M138.33 744.402 Q144.14 744.402 147.195 749.009 Q150.274 753.592 150.274 762.342 Q150.274 771.069 147.195 775.675 Q144.14 780.258 138.33 780.258 Q132.519 780.258 129.441 775.675 Q126.385 771.069 126.385 762.342 Q126.385 753.592 129.441 749.009 Q132.519 744.402 138.33 744.402 Z" fill="#000000" fill-rule="evenodd" fill-opacity="1" /><path clip-path="url(#clip440)" d="M63.9319 406.401 Q60.3208 406.401 58.4921 409.966 Q56.6865 413.508 56.6865 420.637 Q56.6865 427.744 58.4921 431.309 Q60.3208 434.85 63.9319 434.85 Q67.5661 434.85 69.3717 431.309 Q71.2004 427.744 71.2004 420.637 Q71.2004 413.508 69.3717 409.966 Q67.5661 406.401 63.9319 406.401 M63.9319 402.698 Q69.742 402.698 72.7976 407.304 Q75.8763 411.887 75.8763 420.637 Q75.8763 429.364 72.7976 433.971 Q69.742 438.554 63.9319 438.554 Q58.1217 438.554 55.043 433.971 Q51.9875 429.364 51.9875 420.637 Q51.9875 411.887 55.043 407.304 Q58.1217 402.698 63.9319 402.698 Z" fill="#000000" fill-rule="evenodd" fill-opacity="1" /><path clip-path="url(#clip440)" d="M84.0938 432.003 L88.978 432.003 L88.978 437.883 L84.0938 437.883 L84.0938 432.003 Z" fill="#000000" fill-rule="evenodd" fill-opacity="1" /><path clip-path="url(#clip440)" d="M97.9826 403.323 L120.205 403.323 L120.205 405.313 L107.658 437.883 L102.774 437.883 L114.58 407.258 L97.9826 407.258 L97.9826 403.323 Z" fill="#000000" fill-rule="evenodd" fill-opacity="1" /><path clip-path="url(#clip440)" d="M129.371 403.323 L147.728 403.323 L147.728 407.258 L133.654 407.258 L133.654 415.73 Q134.672 415.383 135.691 415.221 Q136.709 415.036 137.728 415.036 Q143.515 415.036 146.894 418.207 Q150.274 421.378 150.274 426.795 Q150.274 432.373 146.802 435.475 Q143.33 438.554 137.01 438.554 Q134.834 438.554 132.566 438.184 Q130.32 437.813 127.913 437.072 L127.913 432.373 Q129.996 433.508 132.219 434.063 Q134.441 434.619 136.918 434.619 Q140.922 434.619 143.26 432.512 Q145.598 430.406 145.598 426.795 Q145.598 423.184 143.26 421.077 Q140.922 418.971 136.918 418.971 Q135.043 418.971 133.168 419.387 Q131.316 419.804 129.371 420.684 L129.371 403.323 Z" fill="#000000" fill-rule="evenodd" fill-opacity="1" /><path clip-path="url(#clip440)" d="M53.7467 92.2431 L61.3856 92.2431 L61.3856 65.8775 L53.0754 67.5441 L53.0754 63.2849 L61.3393 61.6182 L66.0152 61.6182 L66.0152 92.2431 L73.654 92.2431 L73.654 96.1782 L53.7467 96.1782 L53.7467 92.2431 Z" fill="#000000" fill-rule="evenodd" fill-opacity="1" /><path clip-path="url(#clip440)" d="M83.0984 90.2986 L87.9827 90.2986 L87.9827 96.1782 L83.0984 96.1782 L83.0984 90.2986 Z" fill="#000000" fill-rule="evenodd" fill-opacity="1" /><path clip-path="url(#clip440)" d="M108.168 64.6969 Q104.557 64.6969 102.728 68.2617 Q100.922 71.8034 100.922 78.933 Q100.922 86.0394 102.728 89.6042 Q104.557 93.1458 108.168 93.1458 Q111.802 93.1458 113.608 89.6042 Q115.436 86.0394 115.436 78.933 Q115.436 71.8034 113.608 68.2617 Q111.802 64.6969 108.168 64.6969 M108.168 60.9932 Q113.978 60.9932 117.033 65.5997 Q120.112 70.183 120.112 78.933 Q120.112 87.6598 117.033 92.2662 Q113.978 96.8495 108.168 96.8495 Q102.358 96.8495 99.2789 92.2662 Q96.2234 87.6598 96.2234 78.933 Q96.2234 70.183 99.2789 65.5997 Q102.358 60.9932 108.168 60.9932 Z" fill="#000000" fill-rule="evenodd" fill-opacity="1" /><path clip-path="url(#clip440)" d="M138.33 64.6969 Q134.719 64.6969 132.89 68.2617 Q131.084 71.8034 131.084 78.933 Q131.084 86.0394 132.89 89.6042 Q134.719 93.1458 138.33 93.1458 Q141.964 93.1458 143.769 89.6042 Q145.598 86.0394 145.598 78.933 Q145.598 71.8034 143.769 68.2617 Q141.964 64.6969 138.33 64.6969 M138.33 60.9932 Q144.14 60.9932 147.195 65.5997 Q150.274 70.183 150.274 78.933 Q150.274 87.6598 147.195 92.2662 Q144.14 96.8495 138.33 96.8495 Q132.519 96.8495 129.441 92.2662 Q126.385 87.6598 126.385 78.933 Q126.385 70.183 129.441 65.5997 Q132.519 60.9932 138.33 60.9932 Z" fill="#000000" fill-rule="evenodd" fill-opacity="1" /><polyline clip-path="url(#clip442)" style="stroke:#009af9; stroke-linecap:butt; stroke-linejoin:round; stroke-width:12; stroke-opacity:1; fill:none" points="
  247.59,1445.72 289.301,1445.72 331.012,1445.71 372.723,1445.71 414.434,1445.7 456.146,1445.66 497.857,1445.57 539.568,1445.33 581.279,1444.75 622.991,1443.45 
  664.702,1440.68 706.413,1435.1 748.124,1424.49 789.836,1405.47 831.547,1373.37 873.258,1322.42 914.969,1246.5 956.681,1140.55 998.392,1002.51 1040.1,835.441 
  1081.81,649.026 1123.53,459.663 1165.24,288.649 1206.95,158.463 1248.66,87.9763 1290.37,87.9763 1332.08,158.463 1373.79,288.649 1415.5,459.663 1457.22,649.026 
  1498.93,835.441 1540.64,1002.51 1582.35,1140.55 1624.06,1246.5 1665.77,1322.42 1707.48,1373.37 1749.19,1405.47 1790.91,1424.49 1832.62,1435.1 1874.33,1440.68 
  1916.04,1443.45 1957.75,1444.75 1999.46,1445.33 2041.17,1445.57 2082.88,1445.66 2124.6,1445.7 2166.31,1445.71 2208.02,1445.71 2249.73,1445.72 2291.44,1445.72 
  
  "/>
<polyline clip-path="url(#clip442)" style="stroke:#e26f46; stroke-linecap:butt; stroke-linejoin:round; stroke-width:12; stroke-opacity:1; fill:none" points="
  247.59,1445.71 289.301,1445.71 331.012,1445.71 372.723,1445.71 414.434,1445.71 456.146,1445.69 497.857,1445.65 539.568,1445.53 581.279,1445.24 622.991,1444.56 
  664.702,1443.04 706.413,1439.85 748.124,1433.54 789.836,1421.75 831.547,1400.98 873.258,1366.53 914.969,1312.77 956.681,1234 998.392,1125.87 1040.1,987.273 
  1081.81,822.204 1123.53,640.917 1165.24,459.696 1206.95,298.825 1248.66,178.973 1290.37,116.831 1332.08,121.264 1373.79,191.229 1415.5,316.106 1457.22,478.343 
  1498.93,657.473 1540.64,834.278 1582.35,993.93 1624.06,1127.51 1665.77,1231.91 1707.48,1308.54 1749.19,1361.58 1790.91,1396.32 1832.62,1417.92 1874.33,1430.69 
  1916.04,1437.9 1957.75,1441.8 1999.46,1443.81 2041.17,1444.82 2082.88,1445.31 2124.6,1445.53 2166.31,1445.64 2208.02,1445.68 2249.73,1445.7 2291.44,1445.71 
  
  "/>
<polyline clip-path="url(#clip442)" style="stroke:#3da44d; stroke-linecap:butt; stroke-linejoin:round; stroke-width:12; stroke-opacity:1; fill:none" points="
  247.59,1445.7 289.301,1445.71 331.012,1445.71 372.723,1445.71 414.434,1445.71 456.146,1445.71 497.857,1445.69 539.568,1445.63 581.279,1445.49 622.991,1445.14 
  664.702,1444.33 706.413,1442.56 748.124,1438.91 789.836,1431.81 831.547,1418.78 873.258,1396.21 914.969,1359.41 956.681,1302.93 998.392,1221.54 1040.1,1111.6 
  1081.81,972.89 1123.53,810.224 1165.24,634.276 1206.95,461.064 1248.66,309.798 1290.37,199.414 1332.08,144.631 1373.79,152.681 1415.5,221.726 1457.22,341.441 
  1498.93,495.529 1540.64,665.329 1582.35,833.426 1624.06,986.336 1665.77,1115.78 1707.48,1218.59 1749.19,1295.66 1790.91,1350.42 1832.62,1387.45 1874.33,1411.35 
  1916.04,1426.13 1957.75,1434.9 1999.46,1439.92 2041.17,1442.69 2082.88,1444.18 2124.6,1444.95 2166.31,1445.34 2208.02,1445.54 2249.73,1445.63 2291.44,1445.68 
  
  "/>
<polyline clip-path="url(#clip442)" style="stroke:#c271d2; stroke-linecap:butt; stroke-linejoin:round; stroke-width:12; stroke-opacity:1; fill:none" points="
  247.59,1445.64 289.301,1445.68 331.012,1445.7 372.723,1445.71 414.434,1445.71 456.146,1445.71 497.857,1445.7 539.568,1445.68 581.279,1445.61 622.991,1445.43 
  664.702,1445.01 706.413,1444.06 748.124,1442.01 789.836,1437.86 831.547,1429.92 873.258,1415.58 914.969,1391.18 956.681,1352.04 998.392,1292.96 1040.1,1209.18 
  1081.81,1097.79 1123.53,959.384 1165.24,799.469 1206.95,628.997 1248.66,463.602 1290.37,321.389 1332.08,219.652 1373.79,171.346 1415.5,182.322 1457.22,250.155 
  1498.93,364.894 1540.64,511.426 1582.35,672.701 1624.06,832.877 1665.77,979.619 1707.48,1105.2 1749.19,1206.41 1790.91,1283.7 1832.62,1339.87 1874.33,1378.87 
  1916.04,1404.83 1957.75,1421.46 1999.46,1431.72 2041.17,1437.85 2082.88,1441.4 2124.6,1443.4 2166.31,1444.5 2208.02,1445.09 2249.73,1445.4 2291.44,1445.56 
  
  "/>
<polyline clip-path="url(#clip442)" style="stroke:#ac8d18; stroke-linecap:butt; stroke-linejoin:round; stroke-width:12; stroke-opacity:1; fill:none" points="
  247.59,1445.45 289.301,1445.58 331.012,1445.65 372.723,1445.68 414.434,1445.7 456.146,1445.71 497.857,1445.71 539.568,1445.7 581.279,1445.67 622.991,1445.58 
  664.702,1445.37 706.413,1444.87 748.124,1443.75 789.836,1441.39 831.547,1436.69 873.258,1427.85 914.969,1412.16 956.681,1385.89 998.392,1344.45 1040.1,1282.91 
  1081.81,1197 1123.53,1084.5 1165.24,946.77 1206.95,789.896 1248.66,624.972 1290.37,467.156 1332.08,333.439 1373.79,239.582 1415.5,196.968 1457.22,210.289 
  1498.93,276.701 1540.64,386.675 1582.35,526.202 1624.06,679.672 1665.77,832.612 1707.48,973.686 1749.19,1095.64 1790.91,1195.24 1832.62,1272.55 1874.33,1329.86 
  1916.04,1370.57 1957.75,1398.38 1999.46,1416.71 2041.17,1428.4 2082.88,1435.62 2124.6,1439.96 2166.31,1442.5 2208.02,1443.95 2249.73,1444.77 2291.44,1445.21 
  
  "/>
<polyline clip-path="url(#clip442)" style="stroke:#00a9ad; stroke-linecap:butt; stroke-linejoin:round; stroke-width:12; stroke-opacity:1; fill:none" points="
  247.59,1444.98 289.301,1445.32 331.012,1445.5 372.723,1445.6 414.434,1445.66 456.146,1445.69 497.857,1445.7 539.568,1445.7 581.279,1445.69 622.991,1445.65 
  664.702,1445.55 706.413,1445.29 748.124,1444.7 789.836,1443.39 831.547,1440.69 873.258,1435.39 914.969,1425.6 956.681,1408.51 998.392,1380.37 1040.1,1336.68 
  1081.81,1272.82 1123.53,1185.03 1165.24,1071.76 1206.95,935.05 1248.66,781.452 1290.37,622.092 1332.08,471.58 1373.79,345.811 1415.5,259.121 1457.22,221.506 
  1498.93,236.687 1540.64,301.534 1582.35,406.968 1624.06,540.003 1665.77,686.307 1707.48,832.613 1749.19,968.452 1790.91,1086.98 1832.62,1184.97 1874.33,1262.16 
  1916.04,1320.37 1957.75,1362.56 1999.46,1392.03 2041.17,1411.93 2082.88,1424.96 2124.6,1433.25 2166.31,1438.38 2208.02,1441.49 2249.73,1443.32 2291.44,1444.38 
  
  "/>
<polyline clip-path="url(#clip442)" style="stroke:#ed5d92; stroke-linecap:butt; stroke-linejoin:round; stroke-width:12; stroke-opacity:1; fill:none" points="
  247.59,1443.93 289.301,1444.71 331.012,1445.15 372.723,1445.41 414.434,1445.55 456.146,1445.63 497.857,1445.67 539.568,1445.69 581.279,1445.69 622.991,1445.68 
  664.702,1445.63 706.413,1445.51 748.124,1445.2 789.836,1444.5 831.547,1442.99 873.258,1439.9 914.969,1433.97 956.681,1423.17 998.392,1404.64 1040.1,1374.62 
  1081.81,1328.76 1123.53,1262.75 1165.24,1173.33 1206.95,1059.61 1248.66,924.217 1290.37,774.077 1332.08,620.247 1373.79,476.741 1415.5,358.387 1457.22,278.209 
  1498.93,244.981 1540.64,261.619 1582.35,324.811 1624.06,425.935 1665.77,552.946 1707.48,692.657 1749.19,832.859 1790.91,963.843 1832.62,1079.14 1874.33,1175.51 
  1916.04,1252.44 1957.75,1311.37 1999.46,1354.82 2041.17,1385.78 2082.88,1407.13 2124.6,1421.44 2166.31,1430.76 2208.02,1436.68 2249.73,1440.36 2291.44,1442.6 
  
  "/>
<polyline clip-path="url(#clip442)" style="stroke:#c68125; stroke-linecap:butt; stroke-linejoin:round; stroke-width:12; stroke-opacity:1; fill:none" points="
  247.59,1441.79 289.301,1443.41 331.012,1444.38 372.723,1444.96 414.434,1445.29 456.146,1445.48 497.857,1445.58 539.568,1445.64 581.279,1445.67 622.991,1445.68 
  664.702,1445.67 706.413,1445.61 748.124,1445.46 789.836,1445.1 831.547,1444.27 873.258,1442.53 914.969,1439.03 956.681,1432.4 998.392,1420.56 1040.1,1400.56 
  1081.81,1368.68 1123.53,1320.73 1165.24,1252.72 1206.95,1161.94 1248.66,1048.06 1290.37,914.253 1332.08,767.707 1373.79,619.334 1415.5,482.52 1457.22,371.068 
  1498.93,296.802 1540.64,267.426 1582.35,285.188 1624.06,346.671 1665.77,443.715 1707.48,565.133 1749.19,698.762 1790.91,833.328 1832.62,959.792 1874.33,1072.01 
  1916.04,1166.77 1957.75,1243.35 1999.46,1302.81 2041.17,1347.36 2082.88,1379.64 2124.6,1402.34 2166.31,1417.84 2208.02,1428.17 2249.73,1434.88 2291.44,1439.14 
  
  "/>
<polyline clip-path="url(#clip442)" style="stroke:#00a98d; stroke-linecap:butt; stroke-linejoin:round; stroke-width:12; stroke-opacity:1; fill:none" points="
  247.59,1437.83 289.301,1440.91 331.012,1442.83 372.723,1444.01 414.434,1444.72 456.146,1445.14 497.857,1445.39 539.568,1445.53 581.279,1445.61 622.991,1445.65 
  664.702,1445.67 706.413,1445.65 748.124,1445.59 789.836,1445.4 831.547,1444.97 873.258,1444.01 914.969,1442 956.681,1438.06 998.392,1430.7 1040.1,1417.77 
  1081.81,1396.29 1123.53,1362.56 1165.24,1312.61 1206.95,1242.8 1248.66,1150.89 1290.37,1037.13 1332.08,905.135 1373.79,762.275 1415.5,619.253 1457.22,488.809 
  1498.93,383.771 1540.64,314.872 1582.35,288.879 1624.06,307.489 1665.77,367.244 1707.48,460.43 1749.19,576.65 1790.91,704.654 1832.62,833.998 1874.33,956.242 
  1916.04,1065.54 1957.75,1158.71 1999.46,1234.82 2041.17,1294.69 2082.88,1340.17 2124.6,1373.64 2166.31,1397.56 2208.02,1414.2 2249.73,1425.49 2291.44,1432.97 
  
  "/>
<polyline clip-path="url(#clip442)" style="stroke:#8e971d; stroke-linecap:butt; stroke-linejoin:round; stroke-width:12; stroke-opacity:1; fill:none" points="
  247.59,1430.98 289.301,1436.43 331.012,1439.95 372.723,1442.19 414.434,1443.59 456.146,1444.45 497.857,1444.97 539.568,1445.28 581.279,1445.47 622.991,1445.57 
  664.702,1445.63 706.413,1445.65 748.124,1445.64 789.836,1445.55 831.547,1445.34 873.258,1444.82 914.969,1443.71 956.681,1441.42 998.392,1436.98 1040.1,1428.86 
  1081.81,1414.81 1123.53,1391.82 1165.24,1356.3 1206.95,1304.44 1248.66,1233 1290.37,1140.22 1332.08,1026.83 1373.79,896.832 1415.5,757.714 1457.22,619.91 
  1498.93,495.512 1540.64,396.427 1582.35,332.402 1624.06,309.383 1665.77,328.614 1707.48,386.644 1749.19,476.188 1790.91,587.569 1832.62,710.357 1874.33,834.851 
  1916.04,953.14 1957.75,1059.66 1999.46,1151.24 2041.17,1226.83 2082.88,1286.96 2124.6,1333.24 2166.31,1367.77 2208.02,1392.82 2249.73,1410.53 2291.44,1422.75 
  
  "/>
<polyline clip-path="url(#clip442)" style="stroke:#00a8cb; stroke-linecap:butt; stroke-linejoin:round; stroke-width:12; stroke-opacity:1; fill:none" points="
  247.59,1419.94 289.301,1428.92 331.012,1434.95 372.723,1438.92 414.434,1441.49 456.146,1443.12 497.857,1444.15 539.568,1444.78 581.279,1445.16 622.991,1445.39 
  664.702,1445.53 706.413,1445.6 748.124,1445.63 789.836,1445.61 831.547,1445.51 873.258,1445.25 914.969,1444.65 956.681,1443.36 998.392,1440.76 1040.1,1435.8 
  1081.81,1426.87 1123.53,1411.67 1165.24,1387.18 1206.95,1349.9 1248.66,1296.26 1290.37,1223.38 1332.08,1129.94 1373.79,1017.15 1415.5,889.31 1457.22,753.956 
  1498.93,621.218 1540.64,502.545 1582.35,408.982 1624.06,349.383 1665.77,328.982 1707.48,348.648 1749.19,404.972 1790.91,491.079 1832.62,597.951 1874.33,715.893 
  1916.04,835.866 1957.75,950.44 1999.46,1054.3 2041.17,1144.32 2082.88,1219.32 2124.6,1279.62 2166.31,1326.56 2208.02,1362.04 2249.73,1388.13 2291.44,1406.84 
  
  "/>
<polyline clip-path="url(#clip442)" style="stroke:#9b7fe8; stroke-linecap:butt; stroke-linejoin:round; stroke-width:12; stroke-opacity:1; fill:none" points="
  247.59,1403.14 289.301,1417.1 331.012,1426.8 372.723,1433.41 414.434,1437.83 456.146,1440.73 497.857,1442.61 539.568,1443.81 581.279,1444.55 622.991,1445.02 
  664.702,1445.3 706.413,1445.47 748.124,1445.56 789.836,1445.6 831.547,1445.58 873.258,1445.47 914.969,1445.16 956.681,1444.46 998.392,1442.97 1040.1,1440.03 
  1081.81,1434.52 1123.53,1424.74 1165.24,1408.36 1206.95,1382.38 1248.66,1343.4 1290.37,1288.1 1332.08,1213.95 1373.79,1120.08 1415.5,1008.09 1457.22,882.532 
  1498.93,750.936 1540.64,623.096 1582.35,509.834 1624.06,421.392 1665.77,365.817 1707.48,347.721 1749.19,367.672 1790.91,422.322 1832.62,505.187 1874.33,607.848 
  1916.04,721.277 1957.75,837.027 1999.46,948.103 2041.17,1049.42 2082.88,1137.9 2124.6,1212.25 2166.31,1272.62 2208.02,1320.13 2249.73,1356.45 2291.44,1383.49 
  
  "/>
<polyline clip-path="url(#clip442)" style="stroke:#608cf6; stroke-linecap:butt; stroke-linejoin:round; stroke-width:12; stroke-opacity:1; fill:none" points="
  247.59,1378.92 289.301,1399.45 331.012,1414.21 372.723,1424.61 414.434,1431.8 456.146,1436.67 497.857,1439.92 539.568,1442.05 581.279,1443.43 622.991,1444.3 
  664.702,1444.86 706.413,1445.2 748.124,1445.4 789.836,1445.52 831.547,1445.57 873.258,1445.55 914.969,1445.41 956.681,1445.05 998.392,1444.23 1040.1,1442.53 
  1081.81,1439.22 1123.53,1433.12 1165.24,1422.47 1206.95,1404.9 1248.66,1377.44 1290.37,1336.83 1332.08,1279.99 1373.79,1204.75 1415.5,1110.65 1457.22,999.628 
  1498.93,876.456 1540.64,748.588 1582.35,625.47 1624.06,517.317 1665.77,433.621 1707.48,381.708 1749.19,365.647 1790.91,385.758 1832.62,438.775 1874.33,518.582 
  1916.04,617.307 1957.75,726.522 1999.46,838.318 2041.17,946.091 2082.88,1044.98 2124.6,1131.94 2166.31,1205.61 2208.02,1265.96 2249.73,1313.93 2291.44,1351 
  
  "/>
<polyline clip-path="url(#clip442)" style="stroke:#f05f73; stroke-linecap:butt; stroke-linejoin:round; stroke-width:12; stroke-opacity:1; fill:none" points="
  247.59,1345.69 289.301,1374.41 331.012,1395.77 372.723,1411.3 414.434,1422.38 456.146,1430.13 497.857,1435.46 539.568,1439.06 581.279,1441.45 622.991,1443.02 
  664.702,1444.03 706.413,1444.67 748.124,1445.08 789.836,1445.32 831.547,1445.47 873.258,1445.53 914.969,1445.5 956.681,1445.34 998.392,1444.91 1040.1,1443.97 
  1081.81,1442.04 1123.53,1438.34 1165.24,1431.61 1206.95,1420.06 1248.66,1401.28 1290.37,1372.37 1332.08,1330.2 1373.79,1271.95 1415.5,1195.8 1457.22,1101.65 
  1498.93,991.759 1540.64,871.041 1582.35,746.853 1624.06,628.275 1665.77,524.937 1707.48,445.643 1749.19,397.067 1790.91,382.804 1832.62,402.974 1874.33,454.406 
  1916.04,531.327 1957.75,626.366 1999.46,731.639 2041.17,839.724 2082.88,944.375 2124.6,1040.93 2166.31,1126.4 2208.02,1199.35 2249.73,1259.62 2291.44,1307.96 
  
  "/>
<polyline clip-path="url(#clip442)" style="stroke:#dd64b5; stroke-linecap:butt; stroke-linejoin:round; stroke-width:12; stroke-opacity:1; fill:none" points="
  247.59,1302.22 289.301,1340.53 331.012,1369.98 372.723,1392.1 414.434,1408.38 456.146,1420.11 497.857,1428.42 539.568,1434.19 581.279,1438.14 622.991,1440.8 
  664.702,1442.57 706.413,1443.72 748.124,1444.47 789.836,1444.94 831.547,1445.23 873.258,1445.4 914.969,1445.48 956.681,1445.45 998.392,1445.26 1040.1,1444.76 
  1081.81,1443.68 1123.53,1441.49 1165.24,1437.36 1206.95,1429.99 1248.66,1417.51 1290.37,1397.53 1332.08,1367.19 1373.79,1323.54 1415.5,1264.01 1457.22,1187.11 
  1498.93,1093.09 1540.64,984.461 1582.35,866.247 1624.06,745.674 1665.77,631.449 1707.48,532.649 1749.19,457.438 1790.91,411.905 1832.62,399.235 1874.33,419.383 
  1916.04,469.28 1957.75,543.477 1999.46,635.059 2041.17,736.637 2082.88,841.231 2124.6,942.924 2166.31,1037.24 2208.02,1121.24 2249.73,1193.45 2291.44,1253.58 
  
  "/>
<polyline clip-path="url(#clip442)" style="stroke:#6b9e32; stroke-linecap:butt; stroke-linejoin:round; stroke-width:12; stroke-opacity:1; fill:none" points="
  247.59,1247.82 289.301,1296.69 331.012,1335.51 372.723,1365.62 414.434,1388.47 456.146,1405.44 497.857,1417.81 539.568,1426.66 581.279,1432.88 622.991,1437.18 
  664.702,1440.12 706.413,1442.09 748.124,1443.39 789.836,1444.24 831.547,1444.79 873.258,1445.13 914.969,1445.33 956.681,1445.42 998.392,1445.39 1040.1,1445.16 
  1081.81,1444.59 1123.53,1443.34 1165.24,1440.88 1206.95,1436.3 1248.66,1428.25 1290.37,1414.83 1332.08,1393.65 1373.79,1361.93 1415.5,1316.88 1457.22,1256.2 
  1498.93,1178.71 1540.64,1084.96 1582.35,977.71 1624.06,862.031 1665.77,744.995 1707.48,634.94 1749.19,540.412 1790.91,468.992 1832.62,426.24 1874.33,414.982 
  1916.04,435.042 1957.75,483.458 1999.46,555.08 2041.17,643.415 2082.88,741.524 2124.6,842.829 2166.31,941.713 2208.02,1033.88 2249.73,1116.45 2291.44,1187.89 
  
  "/>
<polyline clip-path="url(#clip442)" style="stroke:#009af9; stroke-linecap:butt; stroke-linejoin:round; stroke-width:12; stroke-opacity:1; fill:none" points="
  247.59,1182.65 289.301,1242.33 331.012,1291.36 372.723,1330.63 414.434,1361.35 456.146,1384.87 497.857,1402.5 539.568,1415.48 581.279,1424.86 622.991,1431.52 
  664.702,1436.18 706.413,1439.39 748.124,1441.57 789.836,1443.03 831.547,1443.99 873.258,1444.62 914.969,1445.02 956.681,1445.25 998.392,1445.36 1040.1,1445.32 
  1081.81,1445.05 1123.53,1444.38 1165.24,1442.97 1206.95,1440.21 1248.66,1435.16 1290.37,1426.4 1332.08,1412.02 1373.79,1389.64 1415.5,1356.59 1457.22,1310.23 
  1498.93,1248.53 1540.64,1170.59 1582.35,1077.26 1624.06,971.486 1665.77,858.354 1707.48,744.768 1749.19,638.699 1790.91,548.194 1832.62,480.294 1874.33,440.087 
  1916.04,430.084 1957.75,450.004 1999.46,496.992 2041.17,566.18 2082.88,651.461 2124.6,746.307 2166.31,844.506 2208.02,940.721 2249.73,1030.82 2291.44,1111.98 
  
  "/>
<polyline clip-path="url(#clip442)" style="stroke:#e26f46; stroke-linecap:butt; stroke-linejoin:round; stroke-width:12; stroke-opacity:1; fill:none" points="
  247.59,1107.82 289.301,1177.69 331.012,1237.09 372.723,1286.23 414.434,1325.89 456.146,1357.16 497.857,1381.3 539.568,1399.57 581.279,1413.13 622.991,1423.03 
  664.702,1430.13 706.413,1435.14 748.124,1438.63 789.836,1441.02 831.547,1442.64 873.258,1443.72 914.969,1444.43 956.681,1444.89 998.392,1445.16 1040.1,1445.28 
  1081.81,1445.23 1123.53,1444.92 1165.24,1444.16 1206.95,1442.55 1248.66,1439.47 1290.37,1433.92 1332.08,1424.43 1373.79,1409.09 1415.5,1385.54 1457.22,1351.19 
  1498.93,1303.61 1540.64,1241.01 1582.35,1162.77 1624.06,1069.99 1665.77,965.762 1707.48,855.176 1749.19,744.945 1790.91,642.684 1832.62,555.966 1874.33,491.338 
  1916.04,453.464 1957.75,444.578 1999.46,464.316 2041.17,509.93 2082.88,576.816 2124.6,659.22 2166.31,750.99 2208.02,846.253 2249.73,939.926 2291.44,1028.03 
  
  "/>
<polyline clip-path="url(#clip442)" style="stroke:#3da44d; stroke-linecap:butt; stroke-linejoin:round; stroke-width:12; stroke-opacity:1; fill:none" points="
  247.59,1025.5 289.301,1103.94 331.012,1173.01 372.723,1232.09 414.434,1281.29 456.146,1321.28 497.857,1353.05 539.568,1377.77 581.279,1396.64 622.991,1410.76 
  664.702,1421.16 706.413,1428.69 748.124,1434.06 789.836,1437.83 831.547,1440.44 873.258,1442.23 914.969,1443.43 956.681,1444.23 998.392,1444.75 1040.1,1445.06 
  1081.81,1445.19 1123.53,1445.13 1165.24,1444.77 1206.95,1443.9 1248.66,1442.09 1290.37,1438.67 1332.08,1432.59 1373.79,1422.36 1415.5,1406.05 1457.22,1381.34 
  1498.93,1345.76 1540.64,1297.05 1582.35,1233.67 1624.06,1155.26 1665.77,1063.13 1707.48,960.513 1749.19,852.459 1790.91,745.485 1832.62,646.856 1874.33,563.705 
  1916.04,502.122 1957.75,466.389 1999.46,458.499 2041.17,478.022 2082.88,522.316 2124.6,587.022 2166.31,666.712 2208.02,755.578 2249.73,848.06 2291.44,939.311 
  
  "/>
<polyline clip-path="url(#clip442)" style="stroke:#c271d2; stroke-linecap:butt; stroke-linejoin:round; stroke-width:12; stroke-opacity:1; fill:none" points="
  247.59,938.86 289.301,1023.21 331.012,1100.32 372.723,1168.59 414.434,1227.32 456.146,1276.54 497.857,1316.81 539.568,1349.03 581.279,1374.29 622.991,1393.72 
  664.702,1408.38 706.413,1419.27 748.124,1427.22 789.836,1432.94 831.547,1437 873.258,1439.83 914.969,1441.79 956.681,1443.12 998.392,1444.01 1040.1,1444.59 
  1081.81,1444.94 1123.53,1445.09 1165.24,1445.02 1206.95,1444.6 1248.66,1443.6 1290.37,1441.57 1332.08,1437.79 1373.79,1431.17 1415.5,1420.18 1457.22,1402.9 
  1498.93,1377.06 1540.64,1340.3 1582.35,1290.56 1624.06,1226.51 1665.77,1148.05 1707.48,1056.68 1749.19,955.716 1790.91,850.169 1832.62,746.349 1874.33,651.184 
  1916.04,571.392 1957.75,512.645 1999.46,478.881 2041.17,471.881 2082.88,491.162 2124.6,534.189 2166.31,596.829 2208.02,673.954 2249.73,760.077 2291.44,849.92 
  
  "/>
<path clip-path="url(#clip440)" d="
M1955.51 1183.86 L2280.54 1183.86 L2280.54 95.2176 L1955.51 95.2176  Z
  " fill="#ffffff" fill-rule="evenodd" fill-opacity="1"/>
<polyline clip-path="url(#clip440)" style="stroke:#000000; stroke-linecap:butt; stroke-linejoin:round; stroke-width:4; stroke-opacity:1; fill:none" points="
  1955.51,1183.86 2280.54,1183.86 2280.54,95.2176 1955.51,95.2176 1955.51,1183.86 
  "/>
<polyline clip-path="url(#clip440)" style="stroke:#009af9; stroke-linecap:butt; stroke-linejoin:round; stroke-width:4; stroke-opacity:1; fill:none" points="
  1979.59,147.058 2124.02,147.058 
  "/>
<path clip-path="url(#clip440)" d="M2161.93 166.745 Q2160.13 171.375 2158.41 172.787 Q2156.7 174.199 2153.83 174.199 L2150.43 174.199 L2150.43 170.634 L2152.93 170.634 Q2154.69 170.634 2155.66 169.8 Q2156.63 168.967 2157.81 165.865 L2158.58 163.921 L2148.09 138.412 L2152.6 138.412 L2160.71 158.689 L2168.81 138.412 L2173.32 138.412 L2161.93 166.745 Z" fill="#000000" fill-rule="evenodd" fill-opacity="1" /><path clip-path="url(#clip440)" d="M2180.61 160.402 L2188.25 160.402 L2188.25 134.037 L2179.94 135.703 L2179.94 131.444 L2188.21 129.778 L2192.88 129.778 L2192.88 160.402 L2200.52 160.402 L2200.52 164.338 L2180.61 164.338 L2180.61 160.402 Z" fill="#000000" fill-rule="evenodd" fill-opacity="1" /><polyline clip-path="url(#clip440)" style="stroke:#e26f46; stroke-linecap:butt; stroke-linejoin:round; stroke-width:4; stroke-opacity:1; fill:none" points="
  1979.59,198.898 2124.02,198.898 
  "/>
<path clip-path="url(#clip440)" d="M2161.93 218.585 Q2160.13 223.215 2158.41 224.627 Q2156.7 226.039 2153.83 226.039 L2150.43 226.039 L2150.43 222.474 L2152.93 222.474 Q2154.69 222.474 2155.66 221.64 Q2156.63 220.807 2157.81 217.705 L2158.58 215.761 L2148.09 190.252 L2152.6 190.252 L2160.71 210.529 L2168.81 190.252 L2173.32 190.252 L2161.93 218.585 Z" fill="#000000" fill-rule="evenodd" fill-opacity="1" /><path clip-path="url(#clip440)" d="M2183.83 212.242 L2200.15 212.242 L2200.15 216.178 L2178.21 216.178 L2178.21 212.242 Q2180.87 209.488 2185.45 204.858 Q2190.06 200.205 2191.24 198.863 Q2193.48 196.34 2194.36 194.604 Q2195.27 192.844 2195.27 191.155 Q2195.27 188.4 2193.32 186.664 Q2191.4 184.928 2188.3 184.928 Q2186.1 184.928 2183.65 185.692 Q2181.22 186.455 2178.44 188.006 L2178.44 183.284 Q2181.26 182.15 2183.72 181.571 Q2186.17 180.993 2188.21 180.993 Q2193.58 180.993 2196.77 183.678 Q2199.97 186.363 2199.97 190.854 Q2199.97 192.983 2199.16 194.905 Q2198.37 196.803 2196.26 199.395 Q2195.68 200.067 2192.58 203.284 Q2189.48 206.479 2183.83 212.242 Z" fill="#000000" fill-rule="evenodd" fill-opacity="1" /><polyline clip-path="url(#clip440)" style="stroke:#3da44d; stroke-linecap:butt; stroke-linejoin:round; stroke-width:4; stroke-opacity:1; fill:none" points="
  1979.59,250.738 2124.02,250.738 
  "/>
<path clip-path="url(#clip440)" d="M2161.93 270.425 Q2160.13 275.055 2158.41 276.467 Q2156.7 277.879 2153.83 277.879 L2150.43 277.879 L2150.43 274.314 L2152.93 274.314 Q2154.69 274.314 2155.66 273.48 Q2156.63 272.647 2157.81 269.545 L2158.58 267.601 L2148.09 242.092 L2152.6 242.092 L2160.71 262.369 L2168.81 242.092 L2173.32 242.092 L2161.93 270.425 Z" fill="#000000" fill-rule="evenodd" fill-opacity="1" /><path clip-path="url(#clip440)" d="M2193.97 249.383 Q2197.33 250.101 2199.2 252.369 Q2201.1 254.638 2201.1 257.971 Q2201.1 263.087 2197.58 265.888 Q2194.06 268.689 2187.58 268.689 Q2185.41 268.689 2183.09 268.249 Q2180.8 267.832 2178.35 266.976 L2178.35 262.462 Q2180.29 263.596 2182.6 264.175 Q2184.92 264.754 2187.44 264.754 Q2191.84 264.754 2194.13 263.018 Q2196.45 261.281 2196.45 257.971 Q2196.45 254.916 2194.29 253.203 Q2192.16 251.467 2188.35 251.467 L2184.32 251.467 L2184.32 247.624 L2188.53 247.624 Q2191.98 247.624 2193.81 246.258 Q2195.64 244.87 2195.64 242.277 Q2195.64 239.615 2193.74 238.203 Q2191.86 236.768 2188.35 236.768 Q2186.42 236.768 2184.22 237.184 Q2182.03 237.601 2179.39 238.481 L2179.39 234.314 Q2182.05 233.573 2184.36 233.203 Q2186.7 232.833 2188.76 232.833 Q2194.09 232.833 2197.19 235.263 Q2200.29 237.67 2200.29 241.791 Q2200.29 244.661 2198.65 246.652 Q2197 248.62 2193.97 249.383 Z" fill="#000000" fill-rule="evenodd" fill-opacity="1" /><polyline clip-path="url(#clip440)" style="stroke:#c271d2; stroke-linecap:butt; stroke-linejoin:round; stroke-width:4; stroke-opacity:1; fill:none" points="
  1979.59,302.578 2124.02,302.578 
  "/>
<path clip-path="url(#clip440)" d="M2161.93 322.265 Q2160.13 326.895 2158.41 328.307 Q2156.7 329.719 2153.83 329.719 L2150.43 329.719 L2150.43 326.154 L2152.93 326.154 Q2154.69 326.154 2155.66 325.32 Q2156.63 324.487 2157.81 321.385 L2158.58 319.441 L2148.09 293.932 L2152.6 293.932 L2160.71 314.209 L2168.81 293.932 L2173.32 293.932 L2161.93 322.265 Z" fill="#000000" fill-rule="evenodd" fill-opacity="1" /><path clip-path="url(#clip440)" d="M2192.65 289.372 L2180.85 307.821 L2192.65 307.821 L2192.65 289.372 M2191.42 285.298 L2197.3 285.298 L2197.3 307.821 L2202.23 307.821 L2202.23 311.709 L2197.3 311.709 L2197.3 319.858 L2192.65 319.858 L2192.65 311.709 L2177.05 311.709 L2177.05 307.196 L2191.42 285.298 Z" fill="#000000" fill-rule="evenodd" fill-opacity="1" /><polyline clip-path="url(#clip440)" style="stroke:#ac8d18; stroke-linecap:butt; stroke-linejoin:round; stroke-width:4; stroke-opacity:1; fill:none" points="
  1979.59,354.418 2124.02,354.418 
  "/>
<path clip-path="url(#clip440)" d="M2161.93 374.105 Q2160.13 378.735 2158.41 380.147 Q2156.7 381.559 2153.83 381.559 L2150.43 381.559 L2150.43 377.994 L2152.93 377.994 Q2154.69 377.994 2155.66 377.16 Q2156.63 376.327 2157.81 373.225 L2158.58 371.281 L2148.09 345.772 L2152.6 345.772 L2160.71 366.049 L2168.81 345.772 L2173.32 345.772 L2161.93 374.105 Z" fill="#000000" fill-rule="evenodd" fill-opacity="1" /><path clip-path="url(#clip440)" d="M2179.85 337.138 L2198.21 337.138 L2198.21 341.073 L2184.13 341.073 L2184.13 349.545 Q2185.15 349.198 2186.17 349.036 Q2187.19 348.85 2188.21 348.85 Q2193.99 348.85 2197.37 352.022 Q2200.75 355.193 2200.75 360.61 Q2200.75 366.188 2197.28 369.29 Q2193.81 372.369 2187.49 372.369 Q2185.31 372.369 2183.04 371.998 Q2180.8 371.628 2178.39 370.887 L2178.39 366.188 Q2180.47 367.323 2182.7 367.878 Q2184.92 368.434 2187.4 368.434 Q2191.4 368.434 2193.74 366.327 Q2196.08 364.221 2196.08 360.61 Q2196.08 356.999 2193.74 354.892 Q2191.4 352.786 2187.4 352.786 Q2185.52 352.786 2183.65 353.202 Q2181.79 353.619 2179.85 354.499 L2179.85 337.138 Z" fill="#000000" fill-rule="evenodd" fill-opacity="1" /><polyline clip-path="url(#clip440)" style="stroke:#00a9ad; stroke-linecap:butt; stroke-linejoin:round; stroke-width:4; stroke-opacity:1; fill:none" points="
  1979.59,406.258 2124.02,406.258 
  "/>
<path clip-path="url(#clip440)" d="M2161.93 425.945 Q2160.13 430.575 2158.41 431.987 Q2156.7 433.399 2153.83 433.399 L2150.43 433.399 L2150.43 429.834 L2152.93 429.834 Q2154.69 429.834 2155.66 429 Q2156.63 428.167 2157.81 425.065 L2158.58 423.121 L2148.09 397.612 L2152.6 397.612 L2160.71 417.889 L2168.81 397.612 L2173.32 397.612 L2161.93 425.945 Z" fill="#000000" fill-rule="evenodd" fill-opacity="1" /><path clip-path="url(#clip440)" d="M2190.38 404.394 Q2187.23 404.394 2185.38 406.547 Q2183.55 408.7 2183.55 412.45 Q2183.55 416.176 2185.38 418.352 Q2187.23 420.505 2190.38 420.505 Q2193.53 420.505 2195.36 418.352 Q2197.21 416.176 2197.21 412.45 Q2197.21 408.7 2195.36 406.547 Q2193.53 404.394 2190.38 404.394 M2199.66 389.741 L2199.66 394.001 Q2197.91 393.167 2196.1 392.728 Q2194.32 392.288 2192.56 392.288 Q2187.93 392.288 2185.47 395.413 Q2183.04 398.538 2182.7 404.857 Q2184.06 402.843 2186.12 401.778 Q2188.18 400.69 2190.66 400.69 Q2195.87 400.69 2198.88 403.862 Q2201.91 407.01 2201.91 412.45 Q2201.91 417.774 2198.76 420.991 Q2195.61 424.209 2190.38 424.209 Q2184.39 424.209 2181.22 419.626 Q2178.04 415.019 2178.04 406.292 Q2178.04 398.098 2181.93 393.237 Q2185.82 388.353 2192.37 388.353 Q2194.13 388.353 2195.91 388.7 Q2197.72 389.047 2199.66 389.741 Z" fill="#000000" fill-rule="evenodd" fill-opacity="1" /><polyline clip-path="url(#clip440)" style="stroke:#ed5d92; stroke-linecap:butt; stroke-linejoin:round; stroke-width:4; stroke-opacity:1; fill:none" points="
  1979.59,458.098 2124.02,458.098 
  "/>
<path clip-path="url(#clip440)" d="M2161.93 477.785 Q2160.13 482.415 2158.41 483.827 Q2156.7 485.239 2153.83 485.239 L2150.43 485.239 L2150.43 481.674 L2152.93 481.674 Q2154.69 481.674 2155.66 480.84 Q2156.63 480.007 2157.81 476.905 L2158.58 474.961 L2148.09 449.452 L2152.6 449.452 L2160.71 469.729 L2168.81 449.452 L2173.32 449.452 L2161.93 477.785 Z" fill="#000000" fill-rule="evenodd" fill-opacity="1" /><path clip-path="url(#clip440)" d="M2178.62 440.818 L2200.85 440.818 L2200.85 442.808 L2188.3 475.378 L2183.41 475.378 L2195.22 444.753 L2178.62 444.753 L2178.62 440.818 Z" fill="#000000" fill-rule="evenodd" fill-opacity="1" /><polyline clip-path="url(#clip440)" style="stroke:#c68125; stroke-linecap:butt; stroke-linejoin:round; stroke-width:4; stroke-opacity:1; fill:none" points="
  1979.59,509.938 2124.02,509.938 
  "/>
<path clip-path="url(#clip440)" d="M2161.93 529.625 Q2160.13 534.255 2158.41 535.667 Q2156.7 537.079 2153.83 537.079 L2150.43 537.079 L2150.43 533.514 L2152.93 533.514 Q2154.69 533.514 2155.66 532.68 Q2156.63 531.847 2157.81 528.745 L2158.58 526.801 L2148.09 501.292 L2152.6 501.292 L2160.71 521.569 L2168.81 501.292 L2173.32 501.292 L2161.93 529.625 Z" fill="#000000" fill-rule="evenodd" fill-opacity="1" /><path clip-path="url(#clip440)" d="M2189.8 510.806 Q2186.47 510.806 2184.55 512.588 Q2182.65 514.37 2182.65 517.495 Q2182.65 520.62 2184.55 522.403 Q2186.47 524.185 2189.8 524.185 Q2193.14 524.185 2195.06 522.403 Q2196.98 520.597 2196.98 517.495 Q2196.98 514.37 2195.06 512.588 Q2193.16 510.806 2189.8 510.806 M2185.13 508.815 Q2182.12 508.074 2180.43 506.014 Q2178.76 503.954 2178.76 500.991 Q2178.76 496.847 2181.7 494.44 Q2184.66 492.033 2189.8 492.033 Q2194.97 492.033 2197.91 494.44 Q2200.85 496.847 2200.85 500.991 Q2200.85 503.954 2199.16 506.014 Q2197.49 508.074 2194.5 508.815 Q2197.88 509.602 2199.76 511.894 Q2201.66 514.185 2201.66 517.495 Q2201.66 522.519 2198.58 525.204 Q2195.52 527.889 2189.8 527.889 Q2184.09 527.889 2181.01 525.204 Q2177.95 522.519 2177.95 517.495 Q2177.95 514.185 2179.85 511.894 Q2181.75 509.602 2185.13 508.815 M2183.41 501.431 Q2183.41 504.116 2185.08 505.62 Q2186.77 507.125 2189.8 507.125 Q2192.81 507.125 2194.5 505.62 Q2196.22 504.116 2196.22 501.431 Q2196.22 498.745 2194.5 497.241 Q2192.81 495.736 2189.8 495.736 Q2186.77 495.736 2185.08 497.241 Q2183.41 498.745 2183.41 501.431 Z" fill="#000000" fill-rule="evenodd" fill-opacity="1" /><polyline clip-path="url(#clip440)" style="stroke:#00a98d; stroke-linecap:butt; stroke-linejoin:round; stroke-width:4; stroke-opacity:1; fill:none" points="
  1979.59,561.778 2124.02,561.778 
  "/>
<path clip-path="url(#clip440)" d="M2161.93 581.465 Q2160.13 586.095 2158.41 587.507 Q2156.7 588.919 2153.83 588.919 L2150.43 588.919 L2150.43 585.354 L2152.93 585.354 Q2154.69 585.354 2155.66 584.52 Q2156.63 583.687 2157.81 580.585 L2158.58 578.641 L2148.09 553.132 L2152.6 553.132 L2160.71 573.409 L2168.81 553.132 L2173.32 553.132 L2161.93 581.465 Z" fill="#000000" fill-rule="evenodd" fill-opacity="1" /><path clip-path="url(#clip440)" d="M2179.94 578.34 L2179.94 574.081 Q2181.7 574.914 2183.51 575.354 Q2185.31 575.794 2187.05 575.794 Q2191.68 575.794 2194.11 572.692 Q2196.56 569.567 2196.91 563.224 Q2195.57 565.215 2193.51 566.28 Q2191.45 567.345 2188.95 567.345 Q2183.76 567.345 2180.73 564.22 Q2177.72 561.072 2177.72 555.632 Q2177.72 550.308 2180.87 547.09 Q2184.02 543.873 2189.25 543.873 Q2195.24 543.873 2198.39 548.479 Q2201.56 553.062 2201.56 561.812 Q2201.56 569.984 2197.67 574.868 Q2193.81 579.729 2187.26 579.729 Q2185.5 579.729 2183.69 579.382 Q2181.89 579.034 2179.94 578.34 M2189.25 563.687 Q2192.4 563.687 2194.22 561.534 Q2196.08 559.382 2196.08 555.632 Q2196.08 551.905 2194.22 549.752 Q2192.4 547.576 2189.25 547.576 Q2186.1 547.576 2184.25 549.752 Q2182.42 551.905 2182.42 555.632 Q2182.42 559.382 2184.25 561.534 Q2186.1 563.687 2189.25 563.687 Z" fill="#000000" fill-rule="evenodd" fill-opacity="1" /><polyline clip-path="url(#clip440)" style="stroke:#8e971d; stroke-linecap:butt; stroke-linejoin:round; stroke-width:4; stroke-opacity:1; fill:none" points="
  1979.59,613.618 2124.02,613.618 
  "/>
<path clip-path="url(#clip440)" d="M2161.93 633.305 Q2160.13 637.935 2158.41 639.347 Q2156.7 640.759 2153.83 640.759 L2150.43 640.759 L2150.43 637.194 L2152.93 637.194 Q2154.69 637.194 2155.66 636.36 Q2156.63 635.527 2157.81 632.425 L2158.58 630.481 L2148.09 604.972 L2152.6 604.972 L2160.71 625.249 L2168.81 604.972 L2173.32 604.972 L2161.93 633.305 Z" fill="#000000" fill-rule="evenodd" fill-opacity="1" /><path clip-path="url(#clip440)" d="M2180.61 626.962 L2188.25 626.962 L2188.25 600.597 L2179.94 602.263 L2179.94 598.004 L2188.21 596.338 L2192.88 596.338 L2192.88 626.962 L2200.52 626.962 L2200.52 630.898 L2180.61 630.898 L2180.61 626.962 Z" fill="#000000" fill-rule="evenodd" fill-opacity="1" /><path clip-path="url(#clip440)" d="M2219.97 599.416 Q2216.35 599.416 2214.53 602.981 Q2212.72 606.523 2212.72 613.652 Q2212.72 620.759 2214.53 624.324 Q2216.35 627.865 2219.97 627.865 Q2223.6 627.865 2225.41 624.324 Q2227.23 620.759 2227.23 613.652 Q2227.23 606.523 2225.41 602.981 Q2223.6 599.416 2219.97 599.416 M2219.97 595.713 Q2225.78 595.713 2228.83 600.319 Q2231.91 604.902 2231.91 613.652 Q2231.91 622.379 2228.83 626.986 Q2225.78 631.569 2219.97 631.569 Q2214.16 631.569 2211.08 626.986 Q2208.02 622.379 2208.02 613.652 Q2208.02 604.902 2211.08 600.319 Q2214.16 595.713 2219.97 595.713 Z" fill="#000000" fill-rule="evenodd" fill-opacity="1" /><polyline clip-path="url(#clip440)" style="stroke:#00a8cb; stroke-linecap:butt; stroke-linejoin:round; stroke-width:4; stroke-opacity:1; fill:none" points="
  1979.59,665.458 2124.02,665.458 
  "/>
<path clip-path="url(#clip440)" d="M2161.93 685.145 Q2160.13 689.775 2158.41 691.187 Q2156.7 692.599 2153.83 692.599 L2150.43 692.599 L2150.43 689.034 L2152.93 689.034 Q2154.69 689.034 2155.66 688.2 Q2156.63 687.367 2157.81 684.265 L2158.58 682.321 L2148.09 656.812 L2152.6 656.812 L2160.71 677.089 L2168.81 656.812 L2173.32 656.812 L2161.93 685.145 Z" fill="#000000" fill-rule="evenodd" fill-opacity="1" /><path clip-path="url(#clip440)" d="M2180.61 678.802 L2188.25 678.802 L2188.25 652.437 L2179.94 654.103 L2179.94 649.844 L2188.21 648.178 L2192.88 648.178 L2192.88 678.802 L2200.52 678.802 L2200.52 682.738 L2180.61 682.738 L2180.61 678.802 Z" fill="#000000" fill-rule="evenodd" fill-opacity="1" /><path clip-path="url(#clip440)" d="M2210.78 678.802 L2218.41 678.802 L2218.41 652.437 L2210.1 654.103 L2210.1 649.844 L2218.37 648.178 L2223.04 648.178 L2223.04 678.802 L2230.68 678.802 L2230.68 682.738 L2210.78 682.738 L2210.78 678.802 Z" fill="#000000" fill-rule="evenodd" fill-opacity="1" /><polyline clip-path="url(#clip440)" style="stroke:#9b7fe8; stroke-linecap:butt; stroke-linejoin:round; stroke-width:4; stroke-opacity:1; fill:none" points="
  1979.59,717.298 2124.02,717.298 
  "/>
<path clip-path="url(#clip440)" d="M2161.93 736.985 Q2160.13 741.615 2158.41 743.027 Q2156.7 744.439 2153.83 744.439 L2150.43 744.439 L2150.43 740.874 L2152.93 740.874 Q2154.69 740.874 2155.66 740.04 Q2156.63 739.207 2157.81 736.105 L2158.58 734.161 L2148.09 708.652 L2152.6 708.652 L2160.71 728.929 L2168.81 708.652 L2173.32 708.652 L2161.93 736.985 Z" fill="#000000" fill-rule="evenodd" fill-opacity="1" /><path clip-path="url(#clip440)" d="M2180.61 730.642 L2188.25 730.642 L2188.25 704.277 L2179.94 705.943 L2179.94 701.684 L2188.21 700.018 L2192.88 700.018 L2192.88 730.642 L2200.52 730.642 L2200.52 734.578 L2180.61 734.578 L2180.61 730.642 Z" fill="#000000" fill-rule="evenodd" fill-opacity="1" /><path clip-path="url(#clip440)" d="M2213.99 730.642 L2230.31 730.642 L2230.31 734.578 L2208.37 734.578 L2208.37 730.642 Q2211.03 727.888 2215.61 723.258 Q2220.22 718.605 2221.4 717.263 Q2223.65 714.74 2224.53 713.004 Q2225.43 711.244 2225.43 709.555 Q2225.43 706.8 2223.48 705.064 Q2221.56 703.328 2218.46 703.328 Q2216.26 703.328 2213.81 704.092 Q2211.38 704.855 2208.6 706.406 L2208.6 701.684 Q2211.42 700.55 2213.88 699.971 Q2216.33 699.393 2218.37 699.393 Q2223.74 699.393 2226.93 702.078 Q2230.13 704.763 2230.13 709.254 Q2230.13 711.383 2229.32 713.305 Q2228.53 715.203 2226.42 717.795 Q2225.84 718.467 2222.74 721.684 Q2219.64 724.879 2213.99 730.642 Z" fill="#000000" fill-rule="evenodd" fill-opacity="1" /><polyline clip-path="url(#clip440)" style="stroke:#608cf6; stroke-linecap:butt; stroke-linejoin:round; stroke-width:4; stroke-opacity:1; fill:none" points="
  1979.59,769.138 2124.02,769.138 
  "/>
<path clip-path="url(#clip440)" d="M2161.93 788.825 Q2160.13 793.455 2158.41 794.867 Q2156.7 796.279 2153.83 796.279 L2150.43 796.279 L2150.43 792.714 L2152.93 792.714 Q2154.69 792.714 2155.66 791.88 Q2156.63 791.047 2157.81 787.945 L2158.58 786.001 L2148.09 760.492 L2152.6 760.492 L2160.71 780.769 L2168.81 760.492 L2173.32 760.492 L2161.93 788.825 Z" fill="#000000" fill-rule="evenodd" fill-opacity="1" /><path clip-path="url(#clip440)" d="M2180.61 782.482 L2188.25 782.482 L2188.25 756.117 L2179.94 757.783 L2179.94 753.524 L2188.21 751.858 L2192.88 751.858 L2192.88 782.482 L2200.52 782.482 L2200.52 786.418 L2180.61 786.418 L2180.61 782.482 Z" fill="#000000" fill-rule="evenodd" fill-opacity="1" /><path clip-path="url(#clip440)" d="M2224.13 767.783 Q2227.49 768.501 2229.36 770.769 Q2231.26 773.038 2231.26 776.371 Q2231.26 781.487 2227.74 784.288 Q2224.22 787.089 2217.74 787.089 Q2215.57 787.089 2213.25 786.649 Q2210.96 786.232 2208.51 785.376 L2208.51 780.862 Q2210.45 781.996 2212.77 782.575 Q2215.08 783.154 2217.6 783.154 Q2222 783.154 2224.29 781.418 Q2226.61 779.681 2226.61 776.371 Q2226.61 773.316 2224.46 771.603 Q2222.33 769.867 2218.51 769.867 L2214.48 769.867 L2214.48 766.024 L2218.69 766.024 Q2222.14 766.024 2223.97 764.658 Q2225.8 763.27 2225.8 760.677 Q2225.8 758.015 2223.9 756.603 Q2222.03 755.168 2218.51 755.168 Q2216.59 755.168 2214.39 755.584 Q2212.19 756.001 2209.55 756.881 L2209.55 752.714 Q2212.21 751.973 2214.53 751.603 Q2216.86 751.233 2218.92 751.233 Q2224.25 751.233 2227.35 753.663 Q2230.45 756.07 2230.45 760.191 Q2230.45 763.061 2228.81 765.052 Q2227.16 767.02 2224.13 767.783 Z" fill="#000000" fill-rule="evenodd" fill-opacity="1" /><polyline clip-path="url(#clip440)" style="stroke:#f05f73; stroke-linecap:butt; stroke-linejoin:round; stroke-width:4; stroke-opacity:1; fill:none" points="
  1979.59,820.978 2124.02,820.978 
  "/>
<path clip-path="url(#clip440)" d="M2161.93 840.665 Q2160.13 845.295 2158.41 846.707 Q2156.7 848.119 2153.83 848.119 L2150.43 848.119 L2150.43 844.554 L2152.93 844.554 Q2154.69 844.554 2155.66 843.72 Q2156.63 842.887 2157.81 839.785 L2158.58 837.841 L2148.09 812.332 L2152.6 812.332 L2160.71 832.609 L2168.81 812.332 L2173.32 812.332 L2161.93 840.665 Z" fill="#000000" fill-rule="evenodd" fill-opacity="1" /><path clip-path="url(#clip440)" d="M2180.61 834.322 L2188.25 834.322 L2188.25 807.957 L2179.94 809.623 L2179.94 805.364 L2188.21 803.698 L2192.88 803.698 L2192.88 834.322 L2200.52 834.322 L2200.52 838.258 L2180.61 838.258 L2180.61 834.322 Z" fill="#000000" fill-rule="evenodd" fill-opacity="1" /><path clip-path="url(#clip440)" d="M2222.81 807.772 L2211.01 826.221 L2222.81 826.221 L2222.81 807.772 M2221.59 803.698 L2227.47 803.698 L2227.47 826.221 L2232.4 826.221 L2232.4 830.109 L2227.47 830.109 L2227.47 838.258 L2222.81 838.258 L2222.81 830.109 L2207.21 830.109 L2207.21 825.596 L2221.59 803.698 Z" fill="#000000" fill-rule="evenodd" fill-opacity="1" /><polyline clip-path="url(#clip440)" style="stroke:#dd64b5; stroke-linecap:butt; stroke-linejoin:round; stroke-width:4; stroke-opacity:1; fill:none" points="
  1979.59,872.818 2124.02,872.818 
  "/>
<path clip-path="url(#clip440)" d="M2161.93 892.505 Q2160.13 897.135 2158.41 898.547 Q2156.7 899.959 2153.83 899.959 L2150.43 899.959 L2150.43 896.394 L2152.93 896.394 Q2154.69 896.394 2155.66 895.56 Q2156.63 894.727 2157.81 891.625 L2158.58 889.681 L2148.09 864.172 L2152.6 864.172 L2160.71 884.449 L2168.81 864.172 L2173.32 864.172 L2161.93 892.505 Z" fill="#000000" fill-rule="evenodd" fill-opacity="1" /><path clip-path="url(#clip440)" d="M2180.61 886.162 L2188.25 886.162 L2188.25 859.797 L2179.94 861.463 L2179.94 857.204 L2188.21 855.538 L2192.88 855.538 L2192.88 886.162 L2200.52 886.162 L2200.52 890.098 L2180.61 890.098 L2180.61 886.162 Z" fill="#000000" fill-rule="evenodd" fill-opacity="1" /><path clip-path="url(#clip440)" d="M2210.01 855.538 L2228.37 855.538 L2228.37 859.473 L2214.29 859.473 L2214.29 867.945 Q2215.31 867.598 2216.33 867.436 Q2217.35 867.25 2218.37 867.25 Q2224.16 867.25 2227.53 870.422 Q2230.91 873.593 2230.91 879.01 Q2230.91 884.588 2227.44 887.69 Q2223.97 890.769 2217.65 890.769 Q2215.47 890.769 2213.21 890.398 Q2210.96 890.028 2208.55 889.287 L2208.55 884.588 Q2210.64 885.723 2212.86 886.278 Q2215.08 886.834 2217.56 886.834 Q2221.56 886.834 2223.9 884.727 Q2226.24 882.621 2226.24 879.01 Q2226.24 875.399 2223.9 873.292 Q2221.56 871.186 2217.56 871.186 Q2215.68 871.186 2213.81 871.602 Q2211.96 872.019 2210.01 872.899 L2210.01 855.538 Z" fill="#000000" fill-rule="evenodd" fill-opacity="1" /><polyline clip-path="url(#clip440)" style="stroke:#6b9e32; stroke-linecap:butt; stroke-linejoin:round; stroke-width:4; stroke-opacity:1; fill:none" points="
  1979.59,924.658 2124.02,924.658 
  "/>
<path clip-path="url(#clip440)" d="M2161.93 944.345 Q2160.13 948.975 2158.41 950.387 Q2156.7 951.799 2153.83 951.799 L2150.43 951.799 L2150.43 948.234 L2152.93 948.234 Q2154.69 948.234 2155.66 947.4 Q2156.63 946.567 2157.81 943.465 L2158.58 941.521 L2148.09 916.012 L2152.6 916.012 L2160.71 936.289 L2168.81 916.012 L2173.32 916.012 L2161.93 944.345 Z" fill="#000000" fill-rule="evenodd" fill-opacity="1" /><path clip-path="url(#clip440)" d="M2180.61 938.002 L2188.25 938.002 L2188.25 911.637 L2179.94 913.303 L2179.94 909.044 L2188.21 907.378 L2192.88 907.378 L2192.88 938.002 L2200.52 938.002 L2200.52 941.938 L2180.61 941.938 L2180.61 938.002 Z" fill="#000000" fill-rule="evenodd" fill-opacity="1" /><path clip-path="url(#clip440)" d="M2220.54 922.794 Q2217.4 922.794 2215.54 924.947 Q2213.72 927.1 2213.72 930.85 Q2213.72 934.576 2215.54 936.752 Q2217.4 938.905 2220.54 938.905 Q2223.69 938.905 2225.52 936.752 Q2227.37 934.576 2227.37 930.85 Q2227.37 927.1 2225.52 924.947 Q2223.69 922.794 2220.54 922.794 M2229.83 908.141 L2229.83 912.401 Q2228.07 911.567 2226.26 911.128 Q2224.48 910.688 2222.72 910.688 Q2218.09 910.688 2215.64 913.813 Q2213.21 916.938 2212.86 923.257 Q2214.22 921.243 2216.28 920.178 Q2218.34 919.09 2220.82 919.09 Q2226.03 919.09 2229.04 922.262 Q2232.07 925.41 2232.07 930.85 Q2232.07 936.174 2228.92 939.391 Q2225.78 942.609 2220.54 942.609 Q2214.55 942.609 2211.38 938.026 Q2208.21 933.419 2208.21 924.692 Q2208.21 916.498 2212.09 911.637 Q2215.98 906.753 2222.53 906.753 Q2224.29 906.753 2226.08 907.1 Q2227.88 907.447 2229.83 908.141 Z" fill="#000000" fill-rule="evenodd" fill-opacity="1" /><polyline clip-path="url(#clip440)" style="stroke:#009af9; stroke-linecap:butt; stroke-linejoin:round; stroke-width:4; stroke-opacity:1; fill:none" points="
  1979.59,976.498 2124.02,976.498 
  "/>
<path clip-path="url(#clip440)" d="M2161.93 996.185 Q2160.13 1000.81 2158.41 1002.23 Q2156.7 1003.64 2153.83 1003.64 L2150.43 1003.64 L2150.43 1000.07 L2152.93 1000.07 Q2154.69 1000.07 2155.66 999.24 Q2156.63 998.407 2157.81 995.305 L2158.58 993.361 L2148.09 967.852 L2152.6 967.852 L2160.71 988.129 L2168.81 967.852 L2173.32 967.852 L2161.93 996.185 Z" fill="#000000" fill-rule="evenodd" fill-opacity="1" /><path clip-path="url(#clip440)" d="M2180.61 989.842 L2188.25 989.842 L2188.25 963.477 L2179.94 965.143 L2179.94 960.884 L2188.21 959.218 L2192.88 959.218 L2192.88 989.842 L2200.52 989.842 L2200.52 993.778 L2180.61 993.778 L2180.61 989.842 Z" fill="#000000" fill-rule="evenodd" fill-opacity="1" /><path clip-path="url(#clip440)" d="M2208.78 959.218 L2231.01 959.218 L2231.01 961.208 L2218.46 993.778 L2213.58 993.778 L2225.38 963.153 L2208.78 963.153 L2208.78 959.218 Z" fill="#000000" fill-rule="evenodd" fill-opacity="1" /><polyline clip-path="url(#clip440)" style="stroke:#e26f46; stroke-linecap:butt; stroke-linejoin:round; stroke-width:4; stroke-opacity:1; fill:none" points="
  1979.59,1028.34 2124.02,1028.34 
  "/>
<path clip-path="url(#clip440)" d="M2161.93 1048.02 Q2160.13 1052.65 2158.41 1054.07 Q2156.7 1055.48 2153.83 1055.48 L2150.43 1055.48 L2150.43 1051.91 L2152.93 1051.91 Q2154.69 1051.91 2155.66 1051.08 Q2156.63 1050.25 2157.81 1047.15 L2158.58 1045.2 L2148.09 1019.69 L2152.6 1019.69 L2160.71 1039.97 L2168.81 1019.69 L2173.32 1019.69 L2161.93 1048.02 Z" fill="#000000" fill-rule="evenodd" fill-opacity="1" /><path clip-path="url(#clip440)" d="M2180.61 1041.68 L2188.25 1041.68 L2188.25 1015.32 L2179.94 1016.98 L2179.94 1012.72 L2188.21 1011.06 L2192.88 1011.06 L2192.88 1041.68 L2200.52 1041.68 L2200.52 1045.62 L2180.61 1045.62 L2180.61 1041.68 Z" fill="#000000" fill-rule="evenodd" fill-opacity="1" /><path clip-path="url(#clip440)" d="M2219.97 1029.21 Q2216.63 1029.21 2214.71 1030.99 Q2212.81 1032.77 2212.81 1035.9 Q2212.81 1039.02 2214.71 1040.8 Q2216.63 1042.59 2219.97 1042.59 Q2223.3 1042.59 2225.22 1040.8 Q2227.14 1039 2227.14 1035.9 Q2227.14 1032.77 2225.22 1030.99 Q2223.32 1029.21 2219.97 1029.21 M2215.29 1027.21 Q2212.28 1026.47 2210.59 1024.41 Q2208.92 1022.35 2208.92 1019.39 Q2208.92 1015.25 2211.86 1012.84 Q2214.83 1010.43 2219.97 1010.43 Q2225.13 1010.43 2228.07 1012.84 Q2231.01 1015.25 2231.01 1019.39 Q2231.01 1022.35 2229.32 1024.41 Q2227.65 1026.47 2224.66 1027.21 Q2228.04 1028 2229.92 1030.29 Q2231.82 1032.59 2231.82 1035.9 Q2231.82 1040.92 2228.74 1043.6 Q2225.68 1046.29 2219.97 1046.29 Q2214.25 1046.29 2211.17 1043.6 Q2208.11 1040.92 2208.11 1035.9 Q2208.11 1032.59 2210.01 1030.29 Q2211.91 1028 2215.29 1027.21 M2213.58 1019.83 Q2213.58 1022.52 2215.24 1024.02 Q2216.93 1025.53 2219.97 1025.53 Q2222.97 1025.53 2224.66 1024.02 Q2226.38 1022.52 2226.38 1019.83 Q2226.38 1017.15 2224.66 1015.64 Q2222.97 1014.14 2219.97 1014.14 Q2216.93 1014.14 2215.24 1015.64 Q2213.58 1017.15 2213.58 1019.83 Z" fill="#000000" fill-rule="evenodd" fill-opacity="1" /><polyline clip-path="url(#clip440)" style="stroke:#3da44d; stroke-linecap:butt; stroke-linejoin:round; stroke-width:4; stroke-opacity:1; fill:none" points="
  1979.59,1080.18 2124.02,1080.18 
  "/>
<path clip-path="url(#clip440)" d="M2161.93 1099.86 Q2160.13 1104.49 2158.41 1105.91 Q2156.7 1107.32 2153.83 1107.32 L2150.43 1107.32 L2150.43 1103.75 L2152.93 1103.75 Q2154.69 1103.75 2155.66 1102.92 Q2156.63 1102.09 2157.81 1098.99 L2158.58 1097.04 L2148.09 1071.53 L2152.6 1071.53 L2160.71 1091.81 L2168.81 1071.53 L2173.32 1071.53 L2161.93 1099.86 Z" fill="#000000" fill-rule="evenodd" fill-opacity="1" /><path clip-path="url(#clip440)" d="M2180.61 1093.52 L2188.25 1093.52 L2188.25 1067.16 L2179.94 1068.82 L2179.94 1064.56 L2188.21 1062.9 L2192.88 1062.9 L2192.88 1093.52 L2200.52 1093.52 L2200.52 1097.46 L2180.61 1097.46 L2180.61 1093.52 Z" fill="#000000" fill-rule="evenodd" fill-opacity="1" /><path clip-path="url(#clip440)" d="M2210.1 1096.74 L2210.1 1092.48 Q2211.86 1093.31 2213.67 1093.75 Q2215.47 1094.19 2217.21 1094.19 Q2221.84 1094.19 2224.27 1091.09 Q2226.72 1087.97 2227.07 1081.62 Q2225.73 1083.62 2223.67 1084.68 Q2221.61 1085.74 2219.11 1085.74 Q2213.92 1085.74 2210.89 1082.62 Q2207.88 1079.47 2207.88 1074.03 Q2207.88 1068.71 2211.03 1065.49 Q2214.18 1062.27 2219.41 1062.27 Q2225.41 1062.27 2228.55 1066.88 Q2231.72 1071.46 2231.72 1080.21 Q2231.72 1088.38 2227.84 1093.27 Q2223.97 1098.13 2217.42 1098.13 Q2215.66 1098.13 2213.85 1097.78 Q2212.05 1097.43 2210.1 1096.74 M2219.41 1082.09 Q2222.56 1082.09 2224.39 1079.93 Q2226.24 1077.78 2226.24 1074.03 Q2226.24 1070.3 2224.39 1068.15 Q2222.56 1065.98 2219.41 1065.98 Q2216.26 1065.98 2214.41 1068.15 Q2212.58 1070.3 2212.58 1074.03 Q2212.58 1077.78 2214.41 1079.93 Q2216.26 1082.09 2219.41 1082.09 Z" fill="#000000" fill-rule="evenodd" fill-opacity="1" /><polyline clip-path="url(#clip440)" style="stroke:#c271d2; stroke-linecap:butt; stroke-linejoin:round; stroke-width:4; stroke-opacity:1; fill:none" points="
  1979.59,1132.02 2124.02,1132.02 
  "/>
<path clip-path="url(#clip440)" d="M2161.93 1151.7 Q2160.13 1156.33 2158.41 1157.75 Q2156.7 1159.16 2153.83 1159.16 L2150.43 1159.16 L2150.43 1155.59 L2152.93 1155.59 Q2154.69 1155.59 2155.66 1154.76 Q2156.63 1153.93 2157.81 1150.83 L2158.58 1148.88 L2148.09 1123.37 L2152.6 1123.37 L2160.71 1143.65 L2168.81 1123.37 L2173.32 1123.37 L2161.93 1151.7 Z" fill="#000000" fill-rule="evenodd" fill-opacity="1" /><path clip-path="url(#clip440)" d="M2183.83 1145.36 L2200.15 1145.36 L2200.15 1149.3 L2178.21 1149.3 L2178.21 1145.36 Q2180.87 1142.61 2185.45 1137.98 Q2190.06 1133.33 2191.24 1131.98 Q2193.48 1129.46 2194.36 1127.72 Q2195.27 1125.96 2195.27 1124.27 Q2195.27 1121.52 2193.32 1119.78 Q2191.4 1118.05 2188.3 1118.05 Q2186.1 1118.05 2183.65 1118.81 Q2181.22 1119.58 2178.44 1121.13 L2178.44 1116.4 Q2181.26 1115.27 2183.72 1114.69 Q2186.17 1114.11 2188.21 1114.11 Q2193.58 1114.11 2196.77 1116.8 Q2199.97 1119.48 2199.97 1123.97 Q2199.97 1126.1 2199.16 1128.02 Q2198.37 1129.92 2196.26 1132.52 Q2195.68 1133.19 2192.58 1136.4 Q2189.48 1139.6 2183.83 1145.36 Z" fill="#000000" fill-rule="evenodd" fill-opacity="1" /><path clip-path="url(#clip440)" d="M2219.97 1117.82 Q2216.35 1117.82 2214.53 1121.38 Q2212.72 1124.92 2212.72 1132.05 Q2212.72 1139.16 2214.53 1142.72 Q2216.35 1146.27 2219.97 1146.27 Q2223.6 1146.27 2225.41 1142.72 Q2227.23 1139.16 2227.23 1132.05 Q2227.23 1124.92 2225.41 1121.38 Q2223.6 1117.82 2219.97 1117.82 M2219.97 1114.11 Q2225.78 1114.11 2228.83 1118.72 Q2231.91 1123.3 2231.91 1132.05 Q2231.91 1140.78 2228.83 1145.39 Q2225.78 1149.97 2219.97 1149.97 Q2214.16 1149.97 2211.08 1145.39 Q2208.02 1140.78 2208.02 1132.05 Q2208.02 1123.3 2211.08 1118.72 Q2214.16 1114.11 2219.97 1114.11 Z" fill="#000000" fill-rule="evenodd" fill-opacity="1" /></svg>
