<?xml version="1.0" encoding="utf-8"?>
<svg xmlns="http://www.w3.org/2000/svg" xmlns:xlink="http://www.w3.org/1999/xlink" width="600" height="400" viewBox="0 0 2400 1600">
<defs>
  <clipPath id="clip930">
    <rect x="0" y="0" width="2400" height="1600"/>
  </clipPath>
</defs>
<path clip-path="url(#clip930)" d="
M0 1600 L2400 1600 L2400 0 L0 0  Z
  " fill="#ffffff" fill-rule="evenodd" fill-opacity="1"/>
<defs>
  <clipPath id="clip931">
    <rect x="480" y="0" width="1681" height="1600"/>
  </clipPath>
</defs>
<defs>
  <clipPath id="clip932">
    <rect x="213" y="47" width="2140" height="1440"/>
  </clipPath>
</defs>
<path clip-path="url(#clip930)" d="
M189.496 1486.45 L2352.76 1486.45 L2352.76 47.2441 L189.496 47.2441  Z
  " fill="#ffffff" fill-rule="evenodd" fill-opacity="1"/>
<defs>
  <clipPath id="clip933">
    <rect x="189" y="47" width="2164" height="1440"/>
  </clipPath>
</defs>
<polyline clip-path="url(#clip933)" style="stroke:#000000; stroke-linecap:butt; stroke-linejoin:round; stroke-width:2; stroke-opacity:0.1; fill:none" points="
  636.82,1486.45 636.82,47.2441 
  "/>
<polyline clip-path="url(#clip933)" style="stroke:#000000; stroke-linecap:butt; stroke-linejoin:round; stroke-width:2; stroke-opacity:0.1; fill:none" points="
  1188.39,1486.45 1188.39,47.2441 
  "/>
<polyline clip-path="url(#clip933)" style="stroke:#000000; stroke-linecap:butt; stroke-linejoin:round; stroke-width:2; stroke-opacity:0.1; fill:none" points="
  1739.96,1486.45 1739.96,47.2441 
  "/>
<polyline clip-path="url(#clip933)" style="stroke:#000000; stroke-linecap:butt; stroke-linejoin:round; stroke-width:2; stroke-opacity:0.1; fill:none" points="
  2291.53,1486.45 2291.53,47.2441 
  "/>
<polyline clip-path="url(#clip930)" style="stroke:#000000; stroke-linecap:butt; stroke-linejoin:round; stroke-width:4; stroke-opacity:1; fill:none" points="
  189.496,1486.45 2352.76,1486.45 
  "/>
<polyline clip-path="url(#clip930)" style="stroke:#000000; stroke-linecap:butt; stroke-linejoin:round; stroke-width:4; stroke-opacity:1; fill:none" points="
  636.82,1486.45 636.82,1467.55 
  "/>
<polyline clip-path="url(#clip930)" style="stroke:#000000; stroke-linecap:butt; stroke-linejoin:round; stroke-width:4; stroke-opacity:1; fill:none" points="
  1188.39,1486.45 1188.39,1467.55 
  "/>
<polyline clip-path="url(#clip930)" style="stroke:#000000; stroke-linecap:butt; stroke-linejoin:round; stroke-width:4; stroke-opacity:1; fill:none" points="
  1739.96,1486.45 1739.96,1467.55 
  "/>
<polyline clip-path="url(#clip930)" style="stroke:#000000; stroke-linecap:butt; stroke-linejoin:round; stroke-width:4; stroke-opacity:1; fill:none" points="
  2291.53,1486.45 2291.53,1467.55 
  "/>
<path clip-path="url(#clip930)" d="M611.507 1544.91 L619.146 1544.91 L619.146 1518.55 L610.836 1520.21 L610.836 1515.95 L619.1 1514.29 L623.776 1514.29 L623.776 1544.91 L631.415 1544.91 L631.415 1548.85 L611.507 1548.85 L611.507 1544.91 Z" fill="#000000" fill-rule="evenodd" fill-opacity="1" /><path clip-path="url(#clip930)" d="M650.859 1517.37 Q647.248 1517.37 645.419 1520.93 Q643.614 1524.47 643.614 1531.6 Q643.614 1538.71 645.419 1542.27 Q647.248 1545.82 650.859 1545.82 Q654.493 1545.82 656.299 1542.27 Q658.127 1538.71 658.127 1531.6 Q658.127 1524.47 656.299 1520.93 Q654.493 1517.37 650.859 1517.37 M650.859 1513.66 Q656.669 1513.66 659.725 1518.27 Q662.803 1522.85 662.803 1531.6 Q662.803 1540.33 659.725 1544.94 Q656.669 1549.52 650.859 1549.52 Q645.049 1549.52 641.97 1544.94 Q638.915 1540.33 638.915 1531.6 Q638.915 1522.85 641.97 1518.27 Q645.049 1513.66 650.859 1513.66 Z" fill="#000000" fill-rule="evenodd" fill-opacity="1" /><path clip-path="url(#clip930)" d="M1167.16 1544.91 L1183.48 1544.91 L1183.48 1548.85 L1161.54 1548.85 L1161.54 1544.91 Q1164.2 1542.16 1168.78 1537.53 Q1173.39 1532.88 1174.57 1531.53 Q1176.82 1529.01 1177.7 1527.27 Q1178.6 1525.51 1178.6 1523.82 Q1178.6 1521.07 1176.65 1519.33 Q1174.73 1517.6 1171.63 1517.6 Q1169.43 1517.6 1166.98 1518.36 Q1164.55 1519.13 1161.77 1520.68 L1161.77 1515.95 Q1164.59 1514.82 1167.05 1514.24 Q1169.5 1513.66 1171.54 1513.66 Q1176.91 1513.66 1180.1 1516.35 Q1183.3 1519.03 1183.3 1523.52 Q1183.3 1525.65 1182.49 1527.57 Q1181.7 1529.47 1179.59 1532.07 Q1179.02 1532.74 1175.91 1535.95 Q1172.81 1539.15 1167.16 1544.91 Z" fill="#000000" fill-rule="evenodd" fill-opacity="1" /><path clip-path="url(#clip930)" d="M1203.3 1517.37 Q1199.69 1517.37 1197.86 1520.93 Q1196.05 1524.47 1196.05 1531.6 Q1196.05 1538.71 1197.86 1542.27 Q1199.69 1545.82 1203.3 1545.82 Q1206.93 1545.82 1208.74 1542.27 Q1210.57 1538.71 1210.57 1531.6 Q1210.57 1524.47 1208.74 1520.93 Q1206.93 1517.37 1203.3 1517.37 M1203.3 1513.66 Q1209.11 1513.66 1212.16 1518.27 Q1215.24 1522.85 1215.24 1531.6 Q1215.24 1540.33 1212.16 1544.94 Q1209.11 1549.52 1203.3 1549.52 Q1197.49 1549.52 1194.41 1544.94 Q1191.35 1540.33 1191.35 1531.6 Q1191.35 1522.85 1194.41 1518.27 Q1197.49 1513.66 1203.3 1513.66 Z" fill="#000000" fill-rule="evenodd" fill-opacity="1" /><path clip-path="url(#clip930)" d="M1728.8 1530.21 Q1732.16 1530.93 1734.04 1533.2 Q1735.93 1535.47 1735.93 1538.8 Q1735.93 1543.92 1732.41 1546.72 Q1728.9 1549.52 1722.41 1549.52 Q1720.24 1549.52 1717.92 1549.08 Q1715.63 1548.66 1713.18 1547.81 L1713.18 1543.29 Q1715.12 1544.43 1717.44 1545.01 Q1719.75 1545.58 1722.28 1545.58 Q1726.67 1545.58 1728.97 1543.85 Q1731.28 1542.11 1731.28 1538.8 Q1731.28 1535.75 1729.13 1534.03 Q1727 1532.3 1723.18 1532.3 L1719.15 1532.3 L1719.15 1528.45 L1723.36 1528.45 Q1726.81 1528.45 1728.64 1527.09 Q1730.47 1525.7 1730.47 1523.11 Q1730.47 1520.45 1728.57 1519.03 Q1726.7 1517.6 1723.18 1517.6 Q1721.26 1517.6 1719.06 1518.01 Q1716.86 1518.43 1714.22 1519.31 L1714.22 1515.14 Q1716.88 1514.4 1719.2 1514.03 Q1721.54 1513.66 1723.6 1513.66 Q1728.92 1513.66 1732.02 1516.09 Q1735.12 1518.5 1735.12 1522.62 Q1735.12 1525.49 1733.48 1527.48 Q1731.84 1529.45 1728.8 1530.21 Z" fill="#000000" fill-rule="evenodd" fill-opacity="1" /><path clip-path="url(#clip930)" d="M1754.8 1517.37 Q1751.19 1517.37 1749.36 1520.93 Q1747.55 1524.47 1747.55 1531.6 Q1747.55 1538.71 1749.36 1542.27 Q1751.19 1545.82 1754.8 1545.82 Q1758.43 1545.82 1760.24 1542.27 Q1762.07 1538.71 1762.07 1531.6 Q1762.07 1524.47 1760.24 1520.93 Q1758.43 1517.37 1754.8 1517.37 M1754.8 1513.66 Q1760.61 1513.66 1763.66 1518.27 Q1766.74 1522.85 1766.74 1531.6 Q1766.74 1540.33 1763.66 1544.94 Q1760.61 1549.52 1754.8 1549.52 Q1748.99 1549.52 1745.91 1544.94 Q1742.85 1540.33 1742.85 1531.6 Q1742.85 1522.85 1745.91 1518.27 Q1748.99 1513.66 1754.8 1513.66 Z" fill="#000000" fill-rule="evenodd" fill-opacity="1" /><path clip-path="url(#clip930)" d="M2279.7 1518.36 L2267.9 1536.81 L2279.7 1536.81 L2279.7 1518.36 M2278.48 1514.29 L2284.36 1514.29 L2284.36 1536.81 L2289.29 1536.81 L2289.29 1540.7 L2284.36 1540.7 L2284.36 1548.85 L2279.7 1548.85 L2279.7 1540.7 L2264.1 1540.7 L2264.1 1536.19 L2278.48 1514.29 Z" fill="#000000" fill-rule="evenodd" fill-opacity="1" /><path clip-path="url(#clip930)" d="M2307.02 1517.37 Q2303.41 1517.37 2301.58 1520.93 Q2299.77 1524.47 2299.77 1531.6 Q2299.77 1538.71 2301.58 1542.27 Q2303.41 1545.82 2307.02 1545.82 Q2310.65 1545.82 2312.46 1542.27 Q2314.29 1538.71 2314.29 1531.6 Q2314.29 1524.47 2312.46 1520.93 Q2310.65 1517.37 2307.02 1517.37 M2307.02 1513.66 Q2312.83 1513.66 2315.88 1518.27 Q2318.96 1522.85 2318.96 1531.6 Q2318.96 1540.33 2315.88 1544.94 Q2312.83 1549.52 2307.02 1549.52 Q2301.21 1549.52 2298.13 1544.94 Q2295.07 1540.33 2295.07 1531.6 Q2295.07 1522.85 2298.13 1518.27 Q2301.21 1513.66 2307.02 1513.66 Z" fill="#000000" fill-rule="evenodd" fill-opacity="1" /><polyline clip-path="url(#clip933)" style="stroke:#000000; stroke-linecap:butt; stroke-linejoin:round; stroke-width:2; stroke-opacity:0.1; fill:none" points="
  189.496,1229.2 2352.76,1229.2 
  "/>
<polyline clip-path="url(#clip933)" style="stroke:#000000; stroke-linecap:butt; stroke-linejoin:round; stroke-width:2; stroke-opacity:0.1; fill:none" points="
  189.496,960.634 2352.76,960.634 
  "/>
<polyline clip-path="url(#clip933)" style="stroke:#000000; stroke-linecap:butt; stroke-linejoin:round; stroke-width:2; stroke-opacity:0.1; fill:none" points="
  189.496,692.066 2352.76,692.066 
  "/>
<polyline clip-path="url(#clip933)" style="stroke:#000000; stroke-linecap:butt; stroke-linejoin:round; stroke-width:2; stroke-opacity:0.1; fill:none" points="
  189.496,423.499 2352.76,423.499 
  "/>
<polyline clip-path="url(#clip933)" style="stroke:#000000; stroke-linecap:butt; stroke-linejoin:round; stroke-width:2; stroke-opacity:0.1; fill:none" points="
  189.496,154.931 2352.76,154.931 
  "/>
<polyline clip-path="url(#clip930)" style="stroke:#000000; stroke-linecap:butt; stroke-linejoin:round; stroke-width:4; stroke-opacity:1; fill:none" points="
  189.496,1486.45 189.496,47.2441 
  "/>
<polyline clip-path="url(#clip930)" style="stroke:#000000; stroke-linecap:butt; stroke-linejoin:round; stroke-width:4; stroke-opacity:1; fill:none" points="
  189.496,1229.2 208.394,1229.2 
  "/>
<polyline clip-path="url(#clip930)" style="stroke:#000000; stroke-linecap:butt; stroke-linejoin:round; stroke-width:4; stroke-opacity:1; fill:none" points="
  189.496,960.634 208.394,960.634 
  "/>
<polyline clip-path="url(#clip930)" style="stroke:#000000; stroke-linecap:butt; stroke-linejoin:round; stroke-width:4; stroke-opacity:1; fill:none" points="
  189.496,692.066 208.394,692.066 
  "/>
<polyline clip-path="url(#clip930)" style="stroke:#000000; stroke-linecap:butt; stroke-linejoin:round; stroke-width:4; stroke-opacity:1; fill:none" points="
  189.496,423.499 208.394,423.499 
  "/>
<polyline clip-path="url(#clip930)" style="stroke:#000000; stroke-linecap:butt; stroke-linejoin:round; stroke-width:4; stroke-opacity:1; fill:none" points="
  189.496,154.931 208.394,154.931 
  "/>
<path clip-path="url(#clip930)" d="M51.6634 1248.99 L59.3023 1248.99 L59.3023 1222.63 L50.9921 1224.3 L50.9921 1220.04 L59.256 1218.37 L63.9319 1218.37 L63.9319 1248.99 L71.5707 1248.99 L71.5707 1252.93 L51.6634 1252.93 L51.6634 1248.99 Z" fill="#000000" fill-rule="evenodd" fill-opacity="1" /><path clip-path="url(#clip930)" d="M91.0151 1221.45 Q87.404 1221.45 85.5753 1225.01 Q83.7697 1228.55 83.7697 1235.68 Q83.7697 1242.79 85.5753 1246.36 Q87.404 1249.9 91.0151 1249.9 Q94.6493 1249.9 96.4548 1246.36 Q98.2835 1242.79 98.2835 1235.68 Q98.2835 1228.55 96.4548 1225.01 Q94.6493 1221.45 91.0151 1221.45 M91.0151 1217.74 Q96.8252 1217.74 99.8808 1222.35 Q102.959 1226.93 102.959 1235.68 Q102.959 1244.41 99.8808 1249.02 Q96.8252 1253.6 91.0151 1253.6 Q85.2049 1253.6 82.1262 1249.02 Q79.0707 1244.41 79.0707 1235.68 Q79.0707 1226.93 82.1262 1222.35 Q85.2049 1217.74 91.0151 1217.74 Z" fill="#000000" fill-rule="evenodd" fill-opacity="1" /><path clip-path="url(#clip930)" d="M102.959 1211.85 L127.071 1211.85 L127.071 1215.04 L102.959 1215.04 L102.959 1211.85 Z" fill="#000000" fill-rule="evenodd" fill-opacity="1" /><path clip-path="url(#clip930)" d="M145.71 1200.75 L136.118 1215.74 L145.71 1215.74 L145.71 1200.75 M144.713 1197.44 L149.49 1197.44 L149.49 1215.74 L153.496 1215.74 L153.496 1218.9 L149.49 1218.9 L149.49 1225.52 L145.71 1225.52 L145.71 1218.9 L133.033 1218.9 L133.033 1215.23 L144.713 1197.44 Z" fill="#000000" fill-rule="evenodd" fill-opacity="1" /><path clip-path="url(#clip930)" d="M52.585 980.427 L60.2238 980.427 L60.2238 954.061 L51.9137 955.728 L51.9137 951.468 L60.1776 949.802 L64.8535 949.802 L64.8535 980.427 L72.4923 980.427 L72.4923 984.362 L52.585 984.362 L52.585 980.427 Z" fill="#000000" fill-rule="evenodd" fill-opacity="1" /><path clip-path="url(#clip930)" d="M91.9366 952.88 Q88.3255 952.88 86.4969 956.445 Q84.6913 959.987 84.6913 967.116 Q84.6913 974.223 86.4969 977.788 Q88.3255 981.329 91.9366 981.329 Q95.5709 981.329 97.3764 977.788 Q99.2051 974.223 99.2051 967.116 Q99.2051 959.987 97.3764 956.445 Q95.5709 952.88 91.9366 952.88 M91.9366 949.177 Q97.7468 949.177 100.802 953.783 Q103.881 958.366 103.881 967.116 Q103.881 975.843 100.802 980.45 Q97.7468 985.033 91.9366 985.033 Q86.1265 985.033 83.0478 980.45 Q79.9923 975.843 79.9923 967.116 Q79.9923 958.366 83.0478 953.783 Q86.1265 949.177 91.9366 949.177 Z" fill="#000000" fill-rule="evenodd" fill-opacity="1" /><path clip-path="url(#clip930)" d="M103.881 943.278 L127.993 943.278 L127.993 946.475 L103.881 946.475 L103.881 943.278 Z" fill="#000000" fill-rule="evenodd" fill-opacity="1" /><path clip-path="url(#clip930)" d="M147.703 941.811 Q150.43 942.394 151.954 944.237 Q153.496 946.08 153.496 948.789 Q153.496 952.945 150.637 955.221 Q147.778 957.497 142.512 957.497 Q140.744 957.497 138.863 957.139 Q137.002 956.801 135.008 956.105 L135.008 952.437 Q136.588 953.359 138.469 953.829 Q140.349 954.299 142.399 954.299 Q145.973 954.299 147.835 952.889 Q149.716 951.478 149.716 948.789 Q149.716 946.306 147.966 944.914 Q146.236 943.504 143.133 943.504 L139.86 943.504 L139.86 940.382 L143.283 940.382 Q146.086 940.382 147.571 939.272 Q149.057 938.144 149.057 936.037 Q149.057 933.874 147.515 932.727 Q145.992 931.561 143.133 931.561 Q141.572 931.561 139.785 931.899 Q137.998 932.238 135.854 932.953 L135.854 929.567 Q138.017 928.965 139.898 928.664 Q141.797 928.363 143.471 928.363 Q147.797 928.363 150.317 930.338 Q152.838 932.294 152.838 935.642 Q152.838 937.974 151.502 939.592 Q150.167 941.19 147.703 941.811 Z" fill="#000000" fill-rule="evenodd" fill-opacity="1" /><path clip-path="url(#clip930)" d="M53.3561 711.859 L60.995 711.859 L60.995 685.493 L52.6848 687.16 L52.6848 682.901 L60.9487 681.234 L65.6246 681.234 L65.6246 711.859 L73.2634 711.859 L73.2634 715.794 L53.3561 715.794 L53.3561 711.859 Z" fill="#000000" fill-rule="evenodd" fill-opacity="1" /><path clip-path="url(#clip930)" d="M92.7078 684.313 Q89.0967 684.313 87.268 687.877 Q85.4624 691.419 85.4624 698.549 Q85.4624 705.655 87.268 709.22 Q89.0967 712.762 92.7078 712.762 Q96.342 712.762 98.1475 709.22 Q99.9762 705.655 99.9762 698.549 Q99.9762 691.419 98.1475 687.877 Q96.342 684.313 92.7078 684.313 M92.7078 680.609 Q98.5179 680.609 101.573 685.215 Q104.652 689.799 104.652 698.549 Q104.652 707.276 101.573 711.882 Q98.5179 716.465 92.7078 716.465 Q86.8976 716.465 83.8189 711.882 Q80.7634 707.276 80.7634 698.549 Q80.7634 689.799 83.8189 685.215 Q86.8976 680.609 92.7078 680.609 Z" fill="#000000" fill-rule="evenodd" fill-opacity="1" /><path clip-path="url(#clip930)" d="M104.652 674.71 L128.764 674.71 L128.764 677.908 L104.652 677.908 L104.652 674.71 Z" fill="#000000" fill-rule="evenodd" fill-opacity="1" /><path clip-path="url(#clip930)" d="M140.236 685.186 L153.496 685.186 L153.496 688.384 L135.666 688.384 L135.666 685.186 Q137.829 682.948 141.553 679.187 Q145.296 675.406 146.255 674.315 Q148.079 672.265 148.794 670.855 Q149.527 669.425 149.527 668.052 Q149.527 665.814 147.948 664.404 Q146.387 662.993 143.866 662.993 Q142.08 662.993 140.086 663.614 Q138.111 664.234 135.854 665.495 L135.854 661.658 Q138.149 660.736 140.142 660.266 Q142.136 659.796 143.791 659.796 Q148.155 659.796 150.75 661.977 Q153.345 664.159 153.345 667.808 Q153.345 669.538 152.687 671.099 Q152.048 672.641 150.336 674.748 Q149.866 675.293 147.346 677.908 Q144.826 680.503 140.236 685.186 Z" fill="#000000" fill-rule="evenodd" fill-opacity="1" /><path clip-path="url(#clip930)" d="M53.0552 443.291 L60.694 443.291 L60.694 416.926 L52.3839 418.592 L52.3839 414.333 L60.6477 412.666 L65.3236 412.666 L65.3236 443.291 L72.9625 443.291 L72.9625 447.226 L53.0552 447.226 L53.0552 443.291 Z" fill="#000000" fill-rule="evenodd" fill-opacity="1" /><path clip-path="url(#clip930)" d="M92.4068 415.745 Q88.7957 415.745 86.967 419.31 Q85.1615 422.851 85.1615 429.981 Q85.1615 437.087 86.967 440.652 Q88.7957 444.194 92.4068 444.194 Q96.0411 444.194 97.8466 440.652 Q99.6753 437.087 99.6753 429.981 Q99.6753 422.851 97.8466 419.31 Q96.0411 415.745 92.4068 415.745 M92.4068 412.041 Q98.217 412.041 101.273 416.648 Q104.351 421.231 104.351 429.981 Q104.351 438.708 101.273 443.314 Q98.217 447.898 92.4068 447.898 Q86.5967 447.898 83.518 443.314 Q80.4625 438.708 80.4625 429.981 Q80.4625 421.231 83.518 416.648 Q86.5967 412.041 92.4068 412.041 Z" fill="#000000" fill-rule="evenodd" fill-opacity="1" /><path clip-path="url(#clip930)" d="M104.351 406.143 L128.463 406.143 L128.463 409.34 L104.351 409.34 L104.351 406.143 Z" fill="#000000" fill-rule="evenodd" fill-opacity="1" /><path clip-path="url(#clip930)" d="M137.321 416.619 L143.528 416.619 L143.528 395.197 L136.776 396.551 L136.776 393.09 L143.49 391.736 L147.289 391.736 L147.289 416.619 L153.496 416.619 L153.496 419.816 L137.321 419.816 L137.321 416.619 Z" fill="#000000" fill-rule="evenodd" fill-opacity="1" /><path clip-path="url(#clip930)" d="M82.7903 174.723 L90.4291 174.723 L90.4291 148.358 L82.119 150.024 L82.119 145.765 L90.3828 144.099 L95.0587 144.099 L95.0587 174.723 L102.698 174.723 L102.698 178.659 L82.7903 178.659 L82.7903 174.723 Z" fill="#000000" fill-rule="evenodd" fill-opacity="1" /><path clip-path="url(#clip930)" d="M122.142 147.177 Q118.531 147.177 116.702 150.742 Q114.897 154.284 114.897 161.413 Q114.897 168.52 116.702 172.085 Q118.531 175.626 122.142 175.626 Q125.776 175.626 127.582 172.085 Q129.41 168.52 129.41 161.413 Q129.41 154.284 127.582 150.742 Q125.776 147.177 122.142 147.177 M122.142 143.474 Q127.952 143.474 131.008 148.08 Q134.086 152.663 134.086 161.413 Q134.086 170.14 131.008 174.747 Q127.952 179.33 122.142 179.33 Q116.332 179.33 113.253 174.747 Q110.198 170.14 110.198 161.413 Q110.198 152.663 113.253 148.08 Q116.332 143.474 122.142 143.474 Z" fill="#000000" fill-rule="evenodd" fill-opacity="1" /><path clip-path="url(#clip930)" d="M143.791 125.67 Q140.857 125.67 139.371 128.566 Q137.904 131.444 137.904 137.236 Q137.904 143.01 139.371 145.907 Q140.857 148.784 143.791 148.784 Q146.744 148.784 148.211 145.907 Q149.697 143.01 149.697 137.236 Q149.697 131.444 148.211 128.566 Q146.744 125.67 143.791 125.67 M143.791 122.66 Q148.512 122.66 150.994 126.403 Q153.496 130.127 153.496 137.236 Q153.496 144.327 150.994 148.07 Q148.512 151.794 143.791 151.794 Q139.07 151.794 136.569 148.07 Q134.086 144.327 134.086 137.236 Q134.086 130.127 136.569 126.403 Q139.07 122.66 143.791 122.66 Z" fill="#000000" fill-rule="evenodd" fill-opacity="1" /><polyline clip-path="url(#clip933)" style="stroke:#009af9; stroke-linecap:butt; stroke-linejoin:round; stroke-width:12; stroke-opacity:1; fill:none" points="
  250.72,96.8438 305.877,87.9763 361.034,165.503 416.191,222.39 471.349,275.982 526.506,319.999 581.663,357.887 636.82,390.809 691.977,419.879 747.134,445.861 
  802.291,469.328 857.448,490.711 912.605,510.341 967.762,528.48 1022.92,545.334 1078.08,561.07 1133.23,575.826 1188.39,589.715 1243.55,602.833 1298.7,615.259 
  1353.86,627.062 1409.02,638.302 1464.18,649.029 1519.33,659.288 1574.49,669.118 1629.65,678.552 1684.8,687.622 1739.96,696.354 1795.12,704.773 1850.28,712.9 
  1905.43,720.754 1960.59,728.354 2015.75,735.714 2070.9,742.851 2126.06,749.776 2181.22,756.502 2236.37,763.04 2291.53,769.401 
  "/>
<circle clip-path="url(#clip933)" cx="250.72" cy="96.8438" r="14.4" fill="#009af9" fill-rule="evenodd" fill-opacity="1" stroke="#000000" stroke-opacity="1" stroke-width="3.2"/>
<circle clip-path="url(#clip933)" cx="305.877" cy="87.9763" r="14.4" fill="#009af9" fill-rule="evenodd" fill-opacity="1" stroke="#000000" stroke-opacity="1" stroke-width="3.2"/>
<circle clip-path="url(#clip933)" cx="361.034" cy="165.503" r="14.4" fill="#009af9" fill-rule="evenodd" fill-opacity="1" stroke="#000000" stroke-opacity="1" stroke-width="3.2"/>
<circle clip-path="url(#clip933)" cx="416.191" cy="222.39" r="14.4" fill="#009af9" fill-rule="evenodd" fill-opacity="1" stroke="#000000" stroke-opacity="1" stroke-width="3.2"/>
<circle clip-path="url(#clip933)" cx="471.349" cy="275.982" r="14.4" fill="#009af9" fill-rule="evenodd" fill-opacity="1" stroke="#000000" stroke-opacity="1" stroke-width="3.2"/>
<circle clip-path="url(#clip933)" cx="526.506" cy="319.999" r="14.4" fill="#009af9" fill-rule="evenodd" fill-opacity="1" stroke="#000000" stroke-opacity="1" stroke-width="3.2"/>
<circle clip-path="url(#clip933)" cx="581.663" cy="357.887" r="14.4" fill="#009af9" fill-rule="evenodd" fill-opacity="1" stroke="#000000" stroke-opacity="1" stroke-width="3.2"/>
<circle clip-path="url(#clip933)" cx="636.82" cy="390.809" r="14.4" fill="#009af9" fill-rule="evenodd" fill-opacity="1" stroke="#000000" stroke-opacity="1" stroke-width="3.2"/>
<circle clip-path="url(#clip933)" cx="691.977" cy="419.879" r="14.4" fill="#009af9" fill-rule="evenodd" fill-opacity="1" stroke="#000000" stroke-opacity="1" stroke-width="3.2"/>
<circle clip-path="url(#clip933)" cx="747.134" cy="445.861" r="14.4" fill="#009af9" fill-rule="evenodd" fill-opacity="1" stroke="#000000" stroke-opacity="1" stroke-width="3.2"/>
<circle clip-path="url(#clip933)" cx="802.291" cy="469.328" r="14.4" fill="#009af9" fill-rule="evenodd" fill-opacity="1" stroke="#000000" stroke-opacity="1" stroke-width="3.2"/>
<circle clip-path="url(#clip933)" cx="857.448" cy="490.711" r="14.4" fill="#009af9" fill-rule="evenodd" fill-opacity="1" stroke="#000000" stroke-opacity="1" stroke-width="3.2"/>
<circle clip-path="url(#clip933)" cx="912.605" cy="510.341" r="14.4" fill="#009af9" fill-rule="evenodd" fill-opacity="1" stroke="#000000" stroke-opacity="1" stroke-width="3.2"/>
<circle clip-path="url(#clip933)" cx="967.762" cy="528.48" r="14.4" fill="#009af9" fill-rule="evenodd" fill-opacity="1" stroke="#000000" stroke-opacity="1" stroke-width="3.2"/>
<circle clip-path="url(#clip933)" cx="1022.92" cy="545.334" r="14.4" fill="#009af9" fill-rule="evenodd" fill-opacity="1" stroke="#000000" stroke-opacity="1" stroke-width="3.2"/>
<circle clip-path="url(#clip933)" cx="1078.08" cy="561.07" r="14.4" fill="#009af9" fill-rule="evenodd" fill-opacity="1" stroke="#000000" stroke-opacity="1" stroke-width="3.2"/>
<circle clip-path="url(#clip933)" cx="1133.23" cy="575.826" r="14.4" fill="#009af9" fill-rule="evenodd" fill-opacity="1" stroke="#000000" stroke-opacity="1" stroke-width="3.2"/>
<circle clip-path="url(#clip933)" cx="1188.39" cy="589.715" r="14.4" fill="#009af9" fill-rule="evenodd" fill-opacity="1" stroke="#000000" stroke-opacity="1" stroke-width="3.2"/>
<circle clip-path="url(#clip933)" cx="1243.55" cy="602.833" r="14.4" fill="#009af9" fill-rule="evenodd" fill-opacity="1" stroke="#000000" stroke-opacity="1" stroke-width="3.2"/>
<circle clip-path="url(#clip933)" cx="1298.7" cy="615.259" r="14.4" fill="#009af9" fill-rule="evenodd" fill-opacity="1" stroke="#000000" stroke-opacity="1" stroke-width="3.2"/>
<circle clip-path="url(#clip933)" cx="1353.86" cy="627.062" r="14.4" fill="#009af9" fill-rule="evenodd" fill-opacity="1" stroke="#000000" stroke-opacity="1" stroke-width="3.2"/>
<circle clip-path="url(#clip933)" cx="1409.02" cy="638.302" r="14.4" fill="#009af9" fill-rule="evenodd" fill-opacity="1" stroke="#000000" stroke-opacity="1" stroke-width="3.2"/>
<circle clip-path="url(#clip933)" cx="1464.18" cy="649.029" r="14.4" fill="#009af9" fill-rule="evenodd" fill-opacity="1" stroke="#000000" stroke-opacity="1" stroke-width="3.2"/>
<circle clip-path="url(#clip933)" cx="1519.33" cy="659.288" r="14.4" fill="#009af9" fill-rule="evenodd" fill-opacity="1" stroke="#000000" stroke-opacity="1" stroke-width="3.2"/>
<circle clip-path="url(#clip933)" cx="1574.49" cy="669.118" r="14.4" fill="#009af9" fill-rule="evenodd" fill-opacity="1" stroke="#000000" stroke-opacity="1" stroke-width="3.2"/>
<circle clip-path="url(#clip933)" cx="1629.65" cy="678.552" r="14.4" fill="#009af9" fill-rule="evenodd" fill-opacity="1" stroke="#000000" stroke-opacity="1" stroke-width="3.2"/>
<circle clip-path="url(#clip933)" cx="1684.8" cy="687.622" r="14.4" fill="#009af9" fill-rule="evenodd" fill-opacity="1" stroke="#000000" stroke-opacity="1" stroke-width="3.2"/>
<circle clip-path="url(#clip933)" cx="1739.96" cy="696.354" r="14.4" fill="#009af9" fill-rule="evenodd" fill-opacity="1" stroke="#000000" stroke-opacity="1" stroke-width="3.2"/>
<circle clip-path="url(#clip933)" cx="1795.12" cy="704.773" r="14.4" fill="#009af9" fill-rule="evenodd" fill-opacity="1" stroke="#000000" stroke-opacity="1" stroke-width="3.2"/>
<circle clip-path="url(#clip933)" cx="1850.28" cy="712.9" r="14.4" fill="#009af9" fill-rule="evenodd" fill-opacity="1" stroke="#000000" stroke-opacity="1" stroke-width="3.2"/>
<circle clip-path="url(#clip933)" cx="1905.43" cy="720.754" r="14.4" fill="#009af9" fill-rule="evenodd" fill-opacity="1" stroke="#000000" stroke-opacity="1" stroke-width="3.2"/>
<circle clip-path="url(#clip933)" cx="1960.59" cy="728.354" r="14.4" fill="#009af9" fill-rule="evenodd" fill-opacity="1" stroke="#000000" stroke-opacity="1" stroke-width="3.2"/>
<circle clip-path="url(#clip933)" cx="2015.75" cy="735.714" r="14.4" fill="#009af9" fill-rule="evenodd" fill-opacity="1" stroke="#000000" stroke-opacity="1" stroke-width="3.2"/>
<circle clip-path="url(#clip933)" cx="2070.9" cy="742.851" r="14.4" fill="#009af9" fill-rule="evenodd" fill-opacity="1" stroke="#000000" stroke-opacity="1" stroke-width="3.2"/>
<circle clip-path="url(#clip933)" cx="2126.06" cy="749.776" r="14.4" fill="#009af9" fill-rule="evenodd" fill-opacity="1" stroke="#000000" stroke-opacity="1" stroke-width="3.2"/>
<circle clip-path="url(#clip933)" cx="2181.22" cy="756.502" r="14.4" fill="#009af9" fill-rule="evenodd" fill-opacity="1" stroke="#000000" stroke-opacity="1" stroke-width="3.2"/>
<circle clip-path="url(#clip933)" cx="2236.37" cy="763.04" r="14.4" fill="#009af9" fill-rule="evenodd" fill-opacity="1" stroke="#000000" stroke-opacity="1" stroke-width="3.2"/>
<circle clip-path="url(#clip933)" cx="2291.53" cy="769.401" r="14.4" fill="#009af9" fill-rule="evenodd" fill-opacity="1" stroke="#000000" stroke-opacity="1" stroke-width="3.2"/>
<polyline clip-path="url(#clip933)" style="stroke:#e26f46; stroke-linecap:butt; stroke-linejoin:round; stroke-width:12; stroke-opacity:1; fill:none" points="
  250.72,283.07 252.381,284.235 254.042,285.389 255.703,286.531 257.364,287.662 259.025,288.782 260.685,289.891 262.346,290.99 264.007,292.079 267.846,294.557 
  271.686,296.984 275.525,299.362 279.364,301.692 283.203,303.976 287.042,306.217 290.882,308.415 294.721,310.573 302.399,314.772 310.078,318.825 317.756,322.742 
  325.435,326.531 333.113,330.202 340.792,333.76 348.47,337.213 356.149,340.567 363.827,343.827 371.506,346.998 379.184,350.086 386.863,353.094 396.092,356.609 
  405.32,360.022 414.549,363.337 423.778,366.561 433.007,369.698 442.236,372.753 451.465,375.73 460.694,378.633 476.3,383.383 491.905,387.947 507.511,392.34 
  523.117,396.573 540.069,401.003 557.022,405.271 573.974,409.389 590.926,413.366 622.183,420.362 653.44,426.961 686.951,433.645 720.462,439.967 759.287,446.886 
  798.113,453.419 832.617,458.932 867.12,464.196 897.377,468.624 927.633,472.891 993.609,481.686 1059.98,489.911 1133.35,498.376 1203.17,505.898 1275.77,513.236 
  1336.87,519.075 1411.48,525.828 1479.82,531.689 1542.95,536.852 1606.89,541.859 1678.54,547.226 1743.48,551.886 1817.82,557.001 1886.66,561.546 1954.53,565.859 
  2020.42,569.9 2087.96,573.901 2161.97,578.134 2269.48,584.021 2291.53,585.193 
  "/>
<polyline clip-path="url(#clip933)" style="stroke:#3da44d; stroke-linecap:butt; stroke-linejoin:round; stroke-width:12; stroke-opacity:1; fill:none" points="
  250.72,411.21 252.381,413.539 254.042,415.846 255.703,418.13 257.364,420.392 259.025,422.632 260.685,424.851 261.516,425.953 262.346,427.049 263.177,428.141 
  264.007,429.227 267.846,434.184 271.686,439.038 275.525,443.793 279.364,448.453 283.203,453.022 287.042,457.502 290.882,461.899 294.721,466.214 298.56,470.451 
  302.399,474.612 306.239,478.7 310.078,482.718 313.917,486.668 317.756,490.552 321.596,494.373 325.435,498.132 329.274,501.831 333.113,505.472 336.953,509.058 
  340.792,512.589 348.47,519.495 356.149,526.203 363.827,532.723 371.506,539.066 379.184,545.241 386.863,551.256 396.092,558.287 405.32,565.112 414.549,571.743 
  423.778,578.191 433.007,584.465 442.236,590.575 451.465,596.529 460.694,602.335 476.3,611.835 491.905,620.964 507.511,629.748 523.117,638.214 540.069,647.075 
  557.022,655.612 573.974,663.847 590.926,671.801 622.183,685.793 653.44,698.992 686.951,712.36 720.462,725.003 759.287,738.842 798.113,751.906 867.12,773.461 
  927.633,790.85 993.609,808.44 1059.98,824.89 1133.35,841.822 1203.17,856.865 1275.77,871.542 1336.87,883.218 1411.48,896.725 1479.82,908.446 1542.95,918.773 
  1606.89,928.787 1678.54,939.522 1743.48,948.84 1817.82,959.071 1886.66,968.16 1954.53,976.787 2020.42,984.868 2087.96,992.872 2161.97,1001.34 2269.48,1013.11 
  2291.53,1015.45 
  "/>
<polyline clip-path="url(#clip933)" style="stroke:#c271d2; stroke-linecap:butt; stroke-linejoin:round; stroke-width:12; stroke-opacity:1; fill:none" points="
  250.72,539.349 252.381,542.844 254.042,546.304 255.703,549.73 257.364,553.123 259.025,556.483 260.685,559.812 261.516,561.464 262.346,563.109 263.177,564.745 
  264.007,566.375 265.927,570.112 267.846,573.81 269.766,577.47 271.686,581.091 273.605,584.676 275.525,588.224 277.444,591.736 279.364,595.214 281.284,598.657 
  283.203,602.067 285.123,605.444 287.042,608.788 290.882,615.383 294.721,621.856 298.56,628.211 302.399,634.453 306.239,640.585 310.078,646.612 313.917,652.537 
  317.756,658.363 321.596,664.094 325.435,669.732 329.274,675.281 333.113,680.743 336.953,686.121 340.792,691.418 344.631,696.636 348.47,701.778 352.31,706.844 
  356.149,711.839 363.827,721.619 371.506,731.133 379.184,740.395 386.863,749.419 396.092,759.965 405.32,770.203 414.549,780.149 423.778,789.821 433.007,799.232 
  442.236,808.397 451.465,817.328 460.694,826.037 476.3,840.288 491.905,853.98 507.511,867.157 523.117,879.856 540.069,893.147 557.022,905.952 573.974,918.305 
  590.926,930.237 622.183,951.223 653.44,971.022 686.951,991.074 720.462,1010.04 759.287,1030.8 798.113,1050.39 867.12,1082.73 927.633,1108.81 993.609,1135.2 
  1059.98,1159.87 1133.35,1185.27 1203.17,1207.83 1275.77,1229.85 1336.87,1247.36 1411.48,1267.62 1479.82,1285.2 1542.95,1300.69 1606.89,1315.72 1678.54,1331.82 
  1743.48,1345.8 1817.82,1361.14 1886.66,1374.78 1954.53,1387.72 2020.42,1399.84 2087.96,1411.84 2161.97,1424.54 2269.48,1442.2 2291.53,1445.72 
  "/>
<path clip-path="url(#clip930)" d="
M1961.82 354.418 L2280.65 354.418 L2280.65 95.2176 L1961.82 95.2176  Z
  " fill="#ffffff" fill-rule="evenodd" fill-opacity="1"/>
<polyline clip-path="url(#clip930)" style="stroke:#000000; stroke-linecap:butt; stroke-linejoin:round; stroke-width:4; stroke-opacity:1; fill:none" points="
  1961.82,354.418 2280.65,354.418 2280.65,95.2176 1961.82,95.2176 1961.82,354.418 
  "/>
<polyline clip-path="url(#clip930)" style="stroke:#009af9; stroke-linecap:butt; stroke-linejoin:round; stroke-width:4; stroke-opacity:1; fill:none" points="
  1985.86,147.058 2130.08,147.058 
  "/>
<circle clip-path="url(#clip930)" cx="2057.97" cy="147.058" r="23.04" fill="#009af9" fill-rule="evenodd" fill-opacity="1" stroke="#000000" stroke-opacity="1" stroke-width="5.12"/>
<path clip-path="url(#clip930)" d="M2167.96 166.745 Q2166.15 171.375 2164.44 172.787 Q2162.72 174.199 2159.85 174.199 L2156.45 174.199 L2156.45 170.634 L2158.95 170.634 Q2160.71 170.634 2161.68 169.8 Q2162.65 168.967 2163.83 165.865 L2164.6 163.921 L2154.11 138.412 L2158.63 138.412 L2166.73 158.689 L2174.83 138.412 L2179.34 138.412 L2167.96 166.745 Z" fill="#000000" fill-rule="evenodd" fill-opacity="1" /><path clip-path="url(#clip930)" d="M2186.64 160.402 L2194.27 160.402 L2194.27 134.037 L2185.96 135.703 L2185.96 131.444 L2194.23 129.778 L2198.9 129.778 L2198.9 160.402 L2206.54 160.402 L2206.54 164.338 L2186.64 164.338 L2186.64 160.402 Z" fill="#000000" fill-rule="evenodd" fill-opacity="1" /><polyline clip-path="url(#clip930)" style="stroke:#e26f46; stroke-linecap:butt; stroke-linejoin:round; stroke-width:4; stroke-opacity:1; fill:none" points="
  1985.86,198.898 2130.08,198.898 
  "/>
<path clip-path="url(#clip930)" d="M2180.11 210.013 Q2180.11 210.201 2179.9 210.927 Q2179.69 211.653 2179.17 212.777 Q2178.68 213.901 2178 214.932 Q2177.32 215.939 2176.2 216.689 Q2175.1 217.415 2173.83 217.415 Q2172.15 217.415 2171.02 216.291 Q2169.9 215.166 2169.9 213.48 Q2169.9 212.543 2170.39 211.255 Q2173.51 202.94 2173.51 200.082 Q2173.51 196.733 2170.91 196.733 Q2169.62 196.733 2168.4 197.225 Q2167.21 197.693 2166.39 198.349 Q2165.57 199.005 2164.82 199.918 Q2164.09 200.808 2163.72 201.417 Q2163.36 202.003 2163.08 202.588 L2162.47 204.977 Q2162.33 205.633 2161.65 208.186 L2160.6 212.519 Q2159.85 215.752 2159.69 216.056 Q2159.45 216.712 2158.94 217.063 Q2158.42 217.415 2157.91 217.415 Q2157.32 217.415 2156.92 217.063 Q2156.53 216.712 2156.53 216.103 Q2156.53 216.009 2156.6 215.658 Q2156.67 215.307 2156.78 214.815 Q2156.9 214.323 2156.95 214.042 L2159.73 202.963 Q2160.25 200.949 2160.37 200.316 Q2160.51 199.661 2160.51 198.934 Q2160.51 196.733 2159.01 196.733 Q2157.79 196.733 2156.99 198.185 Q2156.2 199.637 2155.52 202.448 Q2155.31 203.221 2155.17 203.385 Q2155.05 203.549 2154.7 203.549 Q2154.11 203.525 2154.11 203.057 Q2154.11 202.94 2154.3 202.167 Q2154.49 201.394 2154.84 200.293 Q2155.21 199.169 2155.56 198.419 Q2155.87 197.857 2156.03 197.599 Q2156.22 197.318 2156.67 196.78 Q2157.13 196.217 2157.74 195.96 Q2158.38 195.679 2159.15 195.679 Q2160.88 195.679 2162.15 196.803 Q2163.41 197.904 2163.58 199.848 Q2166.69 195.679 2171.05 195.679 Q2173.62 195.679 2175.1 197.037 Q2176.57 198.396 2176.57 200.808 Q2176.57 201.37 2176.46 202.097 Q2176.36 202.799 2176.13 203.689 Q2175.92 204.579 2175.73 205.259 Q2175.54 205.938 2175.17 207.039 Q2174.79 208.116 2174.63 208.585 Q2174.47 209.053 2174.07 210.154 Q2173.69 211.231 2173.65 211.348 Q2172.78 213.527 2172.78 214.768 Q2172.78 215.588 2173.04 215.963 Q2173.32 216.337 2173.93 216.337 Q2175.57 216.337 2176.79 214.721 Q2178.03 213.082 2178.82 210.411 Q2179.01 209.826 2179.1 209.685 Q2179.22 209.545 2179.55 209.545 Q2180.11 209.545 2180.11 210.013 Z" fill="#000000" fill-rule="evenodd" fill-opacity="1" /><path clip-path="url(#clip930)" d="M2207.13 193.666 Q2207.33 193.863 2207.33 194.142 Q2207.33 194.42 2207.13 194.617 Q2206.94 194.814 2206.66 194.814 L2185.64 194.814 Q2185.36 194.814 2185.16 194.617 Q2184.97 194.42 2184.97 194.142 Q2184.97 193.863 2185.16 193.666 Q2185.36 193.469 2185.64 193.469 L2206.66 193.469 Q2206.94 193.469 2207.13 193.666 Z" fill="#000000" fill-rule="evenodd" fill-opacity="1" /><path clip-path="url(#clip930)" d="M2210.83 183.37 L2210.83 182.32 Q2214.86 182.32 2216.95 180.172 Q2217.52 180.172 2217.62 180.304 Q2217.72 180.435 2217.72 181.041 L2217.72 199.88 Q2217.72 200.88 2218.21 201.192 Q2218.7 201.503 2220.85 201.503 L2221.91 201.503 L2221.91 202.536 Q2220.73 202.438 2216.47 202.438 Q2212.21 202.438 2211.04 202.536 L2211.04 201.503 L2212.11 201.503 Q2214.22 201.503 2214.73 201.208 Q2215.24 200.897 2215.24 199.88 L2215.24 182.484 Q2213.49 183.37 2210.83 183.37 Z" fill="#000000" fill-rule="evenodd" fill-opacity="1" /><polyline clip-path="url(#clip930)" style="stroke:#3da44d; stroke-linecap:butt; stroke-linejoin:round; stroke-width:4; stroke-opacity:1; fill:none" points="
  1985.86,250.738 2130.08,250.738 
  "/>
<path clip-path="url(#clip930)" d="M2180.11 261.853 Q2180.11 262.041 2179.9 262.767 Q2179.69 263.493 2179.17 264.617 Q2178.68 265.741 2178 266.772 Q2177.32 267.779 2176.2 268.529 Q2175.1 269.255 2173.83 269.255 Q2172.15 269.255 2171.02 268.131 Q2169.9 267.006 2169.9 265.32 Q2169.9 264.383 2170.39 263.095 Q2173.51 254.78 2173.51 251.922 Q2173.51 248.573 2170.91 248.573 Q2169.62 248.573 2168.4 249.065 Q2167.21 249.533 2166.39 250.189 Q2165.57 250.845 2164.82 251.758 Q2164.09 252.648 2163.72 253.257 Q2163.36 253.843 2163.08 254.428 L2162.47 256.817 Q2162.33 257.473 2161.65 260.026 L2160.6 264.359 Q2159.85 267.592 2159.69 267.896 Q2159.45 268.552 2158.94 268.903 Q2158.42 269.255 2157.91 269.255 Q2157.32 269.255 2156.92 268.903 Q2156.53 268.552 2156.53 267.943 Q2156.53 267.849 2156.6 267.498 Q2156.67 267.147 2156.78 266.655 Q2156.9 266.163 2156.95 265.882 L2159.73 254.803 Q2160.25 252.789 2160.37 252.156 Q2160.51 251.501 2160.51 250.774 Q2160.51 248.573 2159.01 248.573 Q2157.79 248.573 2156.99 250.025 Q2156.2 251.477 2155.52 254.288 Q2155.31 255.061 2155.17 255.225 Q2155.05 255.389 2154.7 255.389 Q2154.11 255.365 2154.11 254.897 Q2154.11 254.78 2154.3 254.007 Q2154.49 253.234 2154.84 252.133 Q2155.21 251.009 2155.56 250.259 Q2155.87 249.697 2156.03 249.439 Q2156.22 249.158 2156.67 248.62 Q2157.13 248.057 2157.74 247.8 Q2158.38 247.519 2159.15 247.519 Q2160.88 247.519 2162.15 248.643 Q2163.41 249.744 2163.58 251.688 Q2166.69 247.519 2171.05 247.519 Q2173.62 247.519 2175.1 248.877 Q2176.57 250.236 2176.57 252.648 Q2176.57 253.21 2176.46 253.937 Q2176.36 254.639 2176.13 255.529 Q2175.92 256.419 2175.73 257.099 Q2175.54 257.778 2175.17 258.879 Q2174.79 259.956 2174.63 260.425 Q2174.47 260.893 2174.07 261.994 Q2173.69 263.071 2173.65 263.188 Q2172.78 265.367 2172.78 266.608 Q2172.78 267.428 2173.04 267.803 Q2173.32 268.177 2173.93 268.177 Q2175.57 268.177 2176.79 266.561 Q2178.03 264.922 2178.82 262.251 Q2179.01 261.666 2179.1 261.525 Q2179.22 261.385 2179.55 261.385 Q2180.11 261.385 2180.11 261.853 Z" fill="#000000" fill-rule="evenodd" fill-opacity="1" /><path clip-path="url(#clip930)" d="M2207.13 245.506 Q2207.33 245.703 2207.33 245.982 Q2207.33 246.26 2207.13 246.457 Q2206.94 246.654 2206.66 246.654 L2185.64 246.654 Q2185.36 246.654 2185.16 246.457 Q2184.97 246.26 2184.97 245.982 Q2184.97 245.703 2185.16 245.506 Q2185.36 245.309 2185.64 245.309 L2206.66 245.309 Q2206.94 245.309 2207.13 245.506 Z" fill="#000000" fill-rule="evenodd" fill-opacity="1" /><path clip-path="url(#clip930)" d="M2210.83 254.376 Q2210.83 253.77 2210.88 253.589 Q2210.94 253.409 2211.21 253.13 L2217.65 245.949 Q2221.18 241.981 2221.18 238.522 Q2221.18 236.275 2219.99 234.669 Q2218.83 233.062 2216.68 233.062 Q2215.21 233.062 2213.96 233.964 Q2212.72 234.865 2212.14 236.472 Q2212.24 236.439 2212.58 236.439 Q2213.42 236.439 2213.88 236.964 Q2214.35 237.489 2214.35 238.194 Q2214.35 239.095 2213.76 239.538 Q2213.19 239.964 2212.62 239.964 Q2212.39 239.964 2212.08 239.915 Q2211.78 239.866 2211.31 239.407 Q2210.83 238.931 2210.83 238.095 Q2210.83 235.751 2212.6 233.882 Q2214.39 232.012 2217.11 232.012 Q2220.19 232.012 2222.21 233.849 Q2224.24 235.669 2224.24 238.522 Q2224.24 239.522 2223.93 240.44 Q2223.63 241.342 2223.22 242.047 Q2222.83 242.752 2221.75 243.883 Q2220.67 245.014 2219.8 245.818 Q2218.93 246.621 2216.98 248.326 L2213.42 251.786 L2219.47 251.786 Q2222.42 251.786 2222.65 251.523 Q2222.98 251.048 2223.39 248.539 L2224.24 248.539 L2223.29 254.376 L2210.83 254.376 Z" fill="#000000" fill-rule="evenodd" fill-opacity="1" /><polyline clip-path="url(#clip930)" style="stroke:#c271d2; stroke-linecap:butt; stroke-linejoin:round; stroke-width:4; stroke-opacity:1; fill:none" points="
  1985.86,302.578 2130.08,302.578 
  "/>
<path clip-path="url(#clip930)" d="M2180.11 314.06 Q2180.11 314.247 2179.9 314.973 Q2179.69 315.699 2179.17 316.824 Q2178.68 317.948 2178 318.978 Q2177.32 319.986 2176.2 320.735 Q2175.1 321.461 2173.83 321.461 Q2172.15 321.461 2171.02 320.337 Q2169.9 319.213 2169.9 317.526 Q2169.9 316.589 2170.39 315.301 Q2173.51 306.986 2173.51 304.129 Q2173.51 300.779 2170.91 300.779 Q2169.62 300.779 2168.4 301.271 Q2167.21 301.739 2166.39 302.395 Q2165.57 303.051 2164.82 303.965 Q2164.09 304.855 2163.72 305.464 Q2163.36 306.049 2163.08 306.635 L2162.47 309.024 Q2162.33 309.68 2161.65 312.233 L2160.6 316.566 Q2159.85 319.798 2159.69 320.103 Q2159.45 320.759 2158.94 321.11 Q2158.42 321.461 2157.91 321.461 Q2157.32 321.461 2156.92 321.11 Q2156.53 320.759 2156.53 320.15 Q2156.53 320.056 2156.6 319.705 Q2156.67 319.353 2156.78 318.861 Q2156.9 318.369 2156.95 318.088 L2159.73 307.01 Q2160.25 304.995 2160.37 304.363 Q2160.51 303.707 2160.51 302.981 Q2160.51 300.779 2159.01 300.779 Q2157.79 300.779 2156.99 302.231 Q2156.2 303.684 2155.52 306.494 Q2155.31 307.267 2155.17 307.431 Q2155.05 307.595 2154.7 307.595 Q2154.11 307.572 2154.11 307.103 Q2154.11 306.986 2154.3 306.213 Q2154.49 305.44 2154.84 304.339 Q2155.21 303.215 2155.56 302.466 Q2155.87 301.903 2156.03 301.646 Q2156.22 301.365 2156.67 300.826 Q2157.13 300.264 2157.74 300.006 Q2158.38 299.725 2159.15 299.725 Q2160.88 299.725 2162.15 300.849 Q2163.41 301.95 2163.58 303.894 Q2166.69 299.725 2171.05 299.725 Q2173.62 299.725 2175.1 301.084 Q2176.57 302.442 2176.57 304.855 Q2176.57 305.417 2176.46 306.143 Q2176.36 306.846 2176.13 307.736 Q2175.92 308.626 2175.73 309.305 Q2175.54 309.984 2175.17 311.085 Q2174.79 312.162 2174.63 312.631 Q2174.47 313.099 2174.07 314.2 Q2173.69 315.278 2173.65 315.395 Q2172.78 317.573 2172.78 318.814 Q2172.78 319.634 2173.04 320.009 Q2173.32 320.384 2173.93 320.384 Q2175.57 320.384 2176.79 318.768 Q2178.03 317.128 2178.82 314.458 Q2179.01 313.872 2179.1 313.732 Q2179.22 313.591 2179.55 313.591 Q2180.11 313.591 2180.11 314.06 Z" fill="#000000" fill-rule="evenodd" fill-opacity="1" /><path clip-path="url(#clip930)" d="M2207.13 296.98 Q2207.33 297.176 2207.33 297.455 Q2207.33 297.734 2207.13 297.931 Q2206.94 298.127 2206.66 298.127 L2185.64 298.127 Q2185.36 298.127 2185.16 297.931 Q2184.97 297.734 2184.97 297.455 Q2184.97 297.176 2185.16 296.98 Q2185.36 296.783 2185.64 296.783 L2206.66 296.783 Q2206.94 296.783 2207.13 296.98 Z" fill="#000000" fill-rule="evenodd" fill-opacity="1" /><path clip-path="url(#clip930)" d="M2210.83 301.325 Q2210.83 300.324 2211.4 299.849 Q2211.98 299.374 2212.72 299.374 Q2213.49 299.374 2214.03 299.882 Q2214.58 300.374 2214.58 301.243 Q2214.58 302.177 2213.93 302.702 Q2213.29 303.227 2212.37 303.095 Q2213.17 304.44 2214.65 305.046 Q2216.14 305.653 2217.52 305.653 Q2218.96 305.653 2220.13 304.407 Q2221.31 303.161 2221.31 300.111 Q2221.31 297.521 2220.29 296.029 Q2219.29 294.537 2217.31 294.537 L2215.83 294.537 Q2215.32 294.537 2215.17 294.488 Q2215.03 294.438 2215.03 294.16 Q2215.03 293.832 2215.54 293.766 Q2216.04 293.766 2216.85 293.668 Q2218.8 293.602 2219.83 291.913 Q2220.77 290.339 2220.77 288.093 Q2220.77 286.044 2219.78 285.191 Q2218.81 284.322 2217.55 284.322 Q2216.37 284.322 2215.08 284.814 Q2213.78 285.306 2213.08 286.405 Q2215.16 286.405 2215.16 288.093 Q2215.16 288.831 2214.68 289.323 Q2214.22 289.798 2213.45 289.798 Q2212.72 289.798 2212.22 289.339 Q2211.73 288.864 2211.73 288.06 Q2211.73 286.142 2213.44 284.814 Q2215.16 283.486 2217.68 283.486 Q2220.18 283.486 2222.01 284.798 Q2223.86 286.109 2223.86 288.126 Q2223.86 290.11 2222.55 291.733 Q2221.24 293.356 2219.16 294.029 Q2221.72 294.537 2223.24 296.275 Q2224.77 297.996 2224.77 300.111 Q2224.77 302.735 2222.7 304.669 Q2220.63 306.588 2217.62 306.588 Q2214.83 306.588 2212.83 305.079 Q2210.83 303.571 2210.83 301.325 Z" fill="#000000" fill-rule="evenodd" fill-opacity="1" /></svg>
