<?xml version="1.0" encoding="utf-8"?>
<svg xmlns="http://www.w3.org/2000/svg" xmlns:xlink="http://www.w3.org/1999/xlink" width="600" height="400" viewBox="0 0 2400 1600">
<defs>
  <clipPath id="clip940">
    <rect x="0" y="0" width="2400" height="1600"/>
  </clipPath>
</defs>
<path clip-path="url(#clip940)" d="
M0 1600 L2400 1600 L2400 0 L0 0  Z
  " fill="#ffffff" fill-rule="evenodd" fill-opacity="1"/>
<defs>
  <clipPath id="clip941">
    <rect x="480" y="0" width="1681" height="1600"/>
  </clipPath>
</defs>
<path clip-path="url(#clip940)" d="
M213.607 1486.45 L2352.76 1486.45 L2352.76 47.2441 L213.607 47.2441  Z
  " fill="#ffffff" fill-rule="evenodd" fill-opacity="1"/>
<defs>
  <clipPath id="clip942">
    <rect x="213" y="47" width="2140" height="1440"/>
  </clipPath>
</defs>
<polyline clip-path="url(#clip942)" style="stroke:#000000; stroke-linecap:butt; stroke-linejoin:round; stroke-width:2; stroke-opacity:0.1; fill:none" points="
  699.005,1486.45 699.005,47.2441 
  "/>
<polyline clip-path="url(#clip942)" style="stroke:#000000; stroke-linecap:butt; stroke-linejoin:round; stroke-width:2; stroke-opacity:0.1; fill:none" points="
  1230.07,1486.45 1230.07,47.2441 
  "/>
<polyline clip-path="url(#clip942)" style="stroke:#000000; stroke-linecap:butt; stroke-linejoin:round; stroke-width:2; stroke-opacity:0.1; fill:none" points="
  1761.14,1486.45 1761.14,47.2441 
  "/>
<polyline clip-path="url(#clip942)" style="stroke:#000000; stroke-linecap:butt; stroke-linejoin:round; stroke-width:2; stroke-opacity:0.1; fill:none" points="
  2292.21,1486.45 2292.21,47.2441 
  "/>
<polyline clip-path="url(#clip940)" style="stroke:#000000; stroke-linecap:butt; stroke-linejoin:round; stroke-width:4; stroke-opacity:1; fill:none" points="
  213.607,1486.45 2352.76,1486.45 
  "/>
<polyline clip-path="url(#clip940)" style="stroke:#000000; stroke-linecap:butt; stroke-linejoin:round; stroke-width:4; stroke-opacity:1; fill:none" points="
  699.005,1486.45 699.005,1467.55 
  "/>
<polyline clip-path="url(#clip940)" style="stroke:#000000; stroke-linecap:butt; stroke-linejoin:round; stroke-width:4; stroke-opacity:1; fill:none" points="
  1230.07,1486.45 1230.07,1467.55 
  "/>
<polyline clip-path="url(#clip940)" style="stroke:#000000; stroke-linecap:butt; stroke-linejoin:round; stroke-width:4; stroke-opacity:1; fill:none" points="
  1761.14,1486.45 1761.14,1467.55 
  "/>
<polyline clip-path="url(#clip940)" style="stroke:#000000; stroke-linecap:butt; stroke-linejoin:round; stroke-width:4; stroke-opacity:1; fill:none" points="
  2292.21,1486.45 2292.21,1467.55 
  "/>
<path clip-path="url(#clip940)" d="M689.283 1514.29 L707.639 1514.29 L707.639 1518.22 L693.565 1518.22 L693.565 1526.7 Q694.584 1526.35 695.602 1526.19 Q696.621 1526 697.639 1526 Q703.426 1526 706.806 1529.17 Q710.186 1532.34 710.186 1537.76 Q710.186 1543.34 706.713 1546.44 Q703.241 1549.52 696.922 1549.52 Q694.746 1549.52 692.477 1549.15 Q690.232 1548.78 687.825 1548.04 L687.825 1543.34 Q689.908 1544.47 692.13 1545.03 Q694.352 1545.58 696.829 1545.58 Q700.834 1545.58 703.172 1543.48 Q705.51 1541.37 705.51 1537.76 Q705.51 1534.15 703.172 1532.04 Q700.834 1529.94 696.829 1529.94 Q694.954 1529.94 693.079 1530.35 Q691.227 1530.77 689.283 1531.65 L689.283 1514.29 Z" fill="#000000" fill-rule="evenodd" fill-opacity="1" /><path clip-path="url(#clip940)" d="M1204.76 1544.91 L1212.4 1544.91 L1212.4 1518.55 L1204.09 1520.21 L1204.09 1515.95 L1212.35 1514.29 L1217.03 1514.29 L1217.03 1544.91 L1224.67 1544.91 L1224.67 1548.85 L1204.76 1548.85 L1204.76 1544.91 Z" fill="#000000" fill-rule="evenodd" fill-opacity="1" /><path clip-path="url(#clip940)" d="M1244.11 1517.37 Q1240.5 1517.37 1238.67 1520.93 Q1236.87 1524.47 1236.87 1531.6 Q1236.87 1538.71 1238.67 1542.27 Q1240.5 1545.82 1244.11 1545.82 Q1247.75 1545.82 1249.55 1542.27 Q1251.38 1538.71 1251.38 1531.6 Q1251.38 1524.47 1249.55 1520.93 Q1247.75 1517.37 1244.11 1517.37 M1244.11 1513.66 Q1249.92 1513.66 1252.98 1518.27 Q1256.06 1522.85 1256.06 1531.6 Q1256.06 1540.33 1252.98 1544.94 Q1249.92 1549.52 1244.11 1549.52 Q1238.3 1549.52 1235.23 1544.94 Q1232.17 1540.33 1232.17 1531.6 Q1232.17 1522.85 1235.23 1518.27 Q1238.3 1513.66 1244.11 1513.66 Z" fill="#000000" fill-rule="evenodd" fill-opacity="1" /><path clip-path="url(#clip940)" d="M1736.33 1544.91 L1743.97 1544.91 L1743.97 1518.55 L1735.66 1520.21 L1735.66 1515.95 L1743.92 1514.29 L1748.6 1514.29 L1748.6 1544.91 L1756.24 1544.91 L1756.24 1548.85 L1736.33 1548.85 L1736.33 1544.91 Z" fill="#000000" fill-rule="evenodd" fill-opacity="1" /><path clip-path="url(#clip940)" d="M1765.73 1514.29 L1784.08 1514.29 L1784.08 1518.22 L1770.01 1518.22 L1770.01 1526.7 Q1771.03 1526.35 1772.05 1526.19 Q1773.07 1526 1774.08 1526 Q1779.87 1526 1783.25 1529.17 Q1786.63 1532.34 1786.63 1537.76 Q1786.63 1543.34 1783.16 1546.44 Q1779.69 1549.52 1773.37 1549.52 Q1771.19 1549.52 1768.92 1549.15 Q1766.68 1548.78 1764.27 1548.04 L1764.27 1543.34 Q1766.35 1544.47 1768.57 1545.03 Q1770.8 1545.58 1773.27 1545.58 Q1777.28 1545.58 1779.62 1543.48 Q1781.95 1541.37 1781.95 1537.76 Q1781.95 1534.15 1779.62 1532.04 Q1777.28 1529.94 1773.27 1529.94 Q1771.4 1529.94 1769.52 1530.35 Q1767.67 1530.77 1765.73 1531.65 L1765.73 1514.29 Z" fill="#000000" fill-rule="evenodd" fill-opacity="1" /><path clip-path="url(#clip940)" d="M2270.99 1544.91 L2287.31 1544.91 L2287.31 1548.85 L2265.36 1548.85 L2265.36 1544.91 Q2268.02 1542.16 2272.61 1537.53 Q2277.21 1532.88 2278.39 1531.53 Q2280.64 1529.01 2281.52 1527.27 Q2282.42 1525.51 2282.42 1523.82 Q2282.42 1521.07 2280.48 1519.33 Q2278.56 1517.6 2275.45 1517.6 Q2273.26 1517.6 2270.8 1518.36 Q2268.37 1519.13 2265.59 1520.68 L2265.59 1515.95 Q2268.42 1514.82 2270.87 1514.24 Q2273.33 1513.66 2275.36 1513.66 Q2280.73 1513.66 2283.93 1516.35 Q2287.12 1519.03 2287.12 1523.52 Q2287.12 1525.65 2286.31 1527.57 Q2285.52 1529.47 2283.42 1532.07 Q2282.84 1532.74 2279.74 1535.95 Q2276.64 1539.15 2270.99 1544.91 Z" fill="#000000" fill-rule="evenodd" fill-opacity="1" /><path clip-path="url(#clip940)" d="M2307.12 1517.37 Q2303.51 1517.37 2301.68 1520.93 Q2299.88 1524.47 2299.88 1531.6 Q2299.88 1538.71 2301.68 1542.27 Q2303.51 1545.82 2307.12 1545.82 Q2310.76 1545.82 2312.56 1542.27 Q2314.39 1538.71 2314.39 1531.6 Q2314.39 1524.47 2312.56 1520.93 Q2310.76 1517.37 2307.12 1517.37 M2307.12 1513.66 Q2312.93 1513.66 2315.99 1518.27 Q2319.07 1522.85 2319.07 1531.6 Q2319.07 1540.33 2315.99 1544.94 Q2312.93 1549.52 2307.12 1549.52 Q2301.31 1549.52 2298.23 1544.94 Q2295.18 1540.33 2295.18 1531.6 Q2295.18 1522.85 2298.23 1518.27 Q2301.31 1513.66 2307.12 1513.66 Z" fill="#000000" fill-rule="evenodd" fill-opacity="1" /><polyline clip-path="url(#clip942)" style="stroke:#000000; stroke-linecap:butt; stroke-linejoin:round; stroke-width:2; stroke-opacity:0.1; fill:none" points="
  213.607,1124.19 2352.76,1124.19 
  "/>
<polyline clip-path="url(#clip942)" style="stroke:#000000; stroke-linecap:butt; stroke-linejoin:round; stroke-width:2; stroke-opacity:0.1; fill:none" points="
  213.607,684.845 2352.76,684.845 
  "/>
<polyline clip-path="url(#clip942)" style="stroke:#000000; stroke-linecap:butt; stroke-linejoin:round; stroke-width:2; stroke-opacity:0.1; fill:none" points="
  213.607,245.499 2352.76,245.499 
  "/>
<polyline clip-path="url(#clip940)" style="stroke:#000000; stroke-linecap:butt; stroke-linejoin:round; stroke-width:4; stroke-opacity:1; fill:none" points="
  213.607,1486.45 213.607,47.2441 
  "/>
<polyline clip-path="url(#clip940)" style="stroke:#000000; stroke-linecap:butt; stroke-linejoin:round; stroke-width:4; stroke-opacity:1; fill:none" points="
  213.607,1124.19 232.505,1124.19 
  "/>
<polyline clip-path="url(#clip940)" style="stroke:#000000; stroke-linecap:butt; stroke-linejoin:round; stroke-width:4; stroke-opacity:1; fill:none" points="
  213.607,684.845 232.505,684.845 
  "/>
<polyline clip-path="url(#clip940)" style="stroke:#000000; stroke-linecap:butt; stroke-linejoin:round; stroke-width:4; stroke-opacity:1; fill:none" points="
  213.607,245.499 232.505,245.499 
  "/>
<path clip-path="url(#clip940)" d="M51.6634 1143.98 L59.3023 1143.98 L59.3023 1117.62 L50.9921 1119.29 L50.9921 1115.03 L59.256 1113.36 L63.9319 1113.36 L63.9319 1143.98 L71.5707 1143.98 L71.5707 1147.92 L51.6634 1147.92 L51.6634 1143.98 Z" fill="#000000" fill-rule="evenodd" fill-opacity="1" /><path clip-path="url(#clip940)" d="M91.0151 1116.44 Q87.404 1116.44 85.5753 1120 Q83.7697 1123.54 83.7697 1130.67 Q83.7697 1137.78 85.5753 1141.35 Q87.404 1144.89 91.0151 1144.89 Q94.6493 1144.89 96.4548 1141.35 Q98.2835 1137.78 98.2835 1130.67 Q98.2835 1123.54 96.4548 1120 Q94.6493 1116.44 91.0151 1116.44 M91.0151 1112.73 Q96.8252 1112.73 99.8808 1117.34 Q102.959 1121.92 102.959 1130.67 Q102.959 1139.4 99.8808 1144.01 Q96.8252 1148.59 91.0151 1148.59 Q85.2049 1148.59 82.1262 1144.01 Q79.0707 1139.4 79.0707 1130.67 Q79.0707 1121.92 82.1262 1117.34 Q85.2049 1112.73 91.0151 1112.73 Z" fill="#000000" fill-rule="evenodd" fill-opacity="1" /><path clip-path="url(#clip940)" d="M102.959 1106.84 L127.071 1106.84 L127.071 1110.03 L102.959 1110.03 L102.959 1106.84 Z" fill="#000000" fill-rule="evenodd" fill-opacity="1" /><path clip-path="url(#clip940)" d="M135.929 1117.31 L142.136 1117.31 L142.136 1095.89 L135.384 1097.24 L135.384 1093.78 L142.098 1092.43 L145.898 1092.43 L145.898 1117.31 L152.104 1117.31 L152.104 1120.51 L135.929 1120.51 L135.929 1117.31 Z" fill="#000000" fill-rule="evenodd" fill-opacity="1" /><path clip-path="url(#clip940)" d="M167.903 1094.93 Q164.969 1094.93 163.483 1097.83 Q162.016 1100.7 162.016 1106.5 Q162.016 1112.27 163.483 1115.17 Q164.969 1118.05 167.903 1118.05 Q170.855 1118.05 172.322 1115.17 Q173.808 1112.27 173.808 1106.5 Q173.808 1100.7 172.322 1097.83 Q170.855 1094.93 167.903 1094.93 M167.903 1091.92 Q172.623 1091.92 175.106 1095.66 Q177.607 1099.39 177.607 1106.5 Q177.607 1113.59 175.106 1117.33 Q172.623 1121.05 167.903 1121.05 Q163.182 1121.05 160.68 1117.33 Q158.198 1113.59 158.198 1106.5 Q158.198 1099.39 160.68 1095.66 Q163.182 1091.92 167.903 1091.92 Z" fill="#000000" fill-rule="evenodd" fill-opacity="1" /><path clip-path="url(#clip940)" d="M76.9787 704.638 L84.6175 704.638 L84.6175 678.272 L76.3074 679.939 L76.3074 675.68 L84.5712 674.013 L89.2471 674.013 L89.2471 704.638 L96.886 704.638 L96.886 708.573 L76.9787 708.573 L76.9787 704.638 Z" fill="#000000" fill-rule="evenodd" fill-opacity="1" /><path clip-path="url(#clip940)" d="M116.33 677.092 Q112.719 677.092 110.891 680.656 Q109.085 684.198 109.085 691.328 Q109.085 698.434 110.891 701.999 Q112.719 705.541 116.33 705.541 Q119.965 705.541 121.77 701.999 Q123.599 698.434 123.599 691.328 Q123.599 684.198 121.77 680.656 Q119.965 677.092 116.33 677.092 M116.33 673.388 Q122.14 673.388 125.196 677.994 Q128.275 682.578 128.275 691.328 Q128.275 700.054 125.196 704.661 Q122.14 709.244 116.33 709.244 Q110.52 709.244 107.441 704.661 Q104.386 700.054 104.386 691.328 Q104.386 682.578 107.441 677.994 Q110.52 673.388 116.33 673.388 Z" fill="#000000" fill-rule="evenodd" fill-opacity="1" /><path clip-path="url(#clip940)" d="M128.275 667.489 L152.386 667.489 L152.386 670.687 L128.275 670.687 L128.275 667.489 Z" fill="#000000" fill-rule="evenodd" fill-opacity="1" /><path clip-path="url(#clip940)" d="M160.624 653.083 L175.539 653.083 L175.539 656.28 L164.103 656.28 L164.103 663.163 Q164.931 662.881 165.759 662.75 Q166.586 662.599 167.414 662.599 Q172.116 662.599 174.862 665.176 Q177.607 667.753 177.607 672.154 Q177.607 676.686 174.786 679.207 Q171.965 681.708 166.831 681.708 Q165.063 681.708 163.22 681.407 Q161.395 681.106 159.439 680.504 L159.439 676.686 Q161.132 677.608 162.937 678.059 Q164.743 678.511 166.755 678.511 Q170.009 678.511 171.909 676.799 Q173.808 675.088 173.808 672.154 Q173.808 669.22 171.909 667.508 Q170.009 665.797 166.755 665.797 Q165.232 665.797 163.709 666.135 Q162.204 666.474 160.624 667.188 L160.624 653.083 Z" fill="#000000" fill-rule="evenodd" fill-opacity="1" /><path clip-path="url(#clip940)" d="M106.902 265.291 L114.541 265.291 L114.541 238.926 L106.231 240.592 L106.231 236.333 L114.494 234.666 L119.17 234.666 L119.17 265.291 L126.809 265.291 L126.809 269.226 L106.902 269.226 L106.902 265.291 Z" fill="#000000" fill-rule="evenodd" fill-opacity="1" /><path clip-path="url(#clip940)" d="M146.253 237.745 Q142.642 237.745 140.814 241.31 Q139.008 244.851 139.008 251.981 Q139.008 259.087 140.814 262.652 Q142.642 266.194 146.253 266.194 Q149.888 266.194 151.693 262.652 Q153.522 259.087 153.522 251.981 Q153.522 244.851 151.693 241.31 Q149.888 237.745 146.253 237.745 M146.253 234.041 Q152.064 234.041 155.119 238.648 Q158.198 243.231 158.198 251.981 Q158.198 260.708 155.119 265.314 Q152.064 269.898 146.253 269.898 Q140.443 269.898 137.365 265.314 Q134.309 260.708 134.309 251.981 Q134.309 243.231 137.365 238.648 Q140.443 234.041 146.253 234.041 Z" fill="#000000" fill-rule="evenodd" fill-opacity="1" /><path clip-path="url(#clip940)" d="M167.903 216.237 Q164.969 216.237 163.483 219.134 Q162.016 222.011 162.016 227.804 Q162.016 233.578 163.483 236.474 Q164.969 239.352 167.903 239.352 Q170.855 239.352 172.322 236.474 Q173.808 233.578 173.808 227.804 Q173.808 222.011 172.322 219.134 Q170.855 216.237 167.903 216.237 M167.903 213.228 Q172.623 213.228 175.106 216.971 Q177.607 220.695 177.607 227.804 Q177.607 234.895 175.106 238.637 Q172.623 242.361 167.903 242.361 Q163.182 242.361 160.68 238.637 Q158.198 234.895 158.198 227.804 Q158.198 220.695 160.68 216.971 Q163.182 213.228 167.903 213.228 Z" fill="#000000" fill-rule="evenodd" fill-opacity="1" /><polyline clip-path="url(#clip942)" style="stroke:#009af9; stroke-linecap:butt; stroke-linejoin:round; stroke-width:12; stroke-opacity:1; fill:none" points="
  274.149,87.9763 380.363,133.022 486.577,195.136 592.791,257.815 699.005,408.092 805.219,711.813 911.433,1319.18 1017.65,1445.72 1123.86,1441.52 1230.07,1441.52 
  1336.29,1441.52 1442.5,1441.52 1548.72,1441.52 1654.93,1441.52 1761.14,1441.52 1867.36,1441.52 1973.57,1441.52 2079.79,1441.52 2186,1441.52 2292.21,1441.52 
  
  "/>
<line clip-path="url(#clip942)" x1="274.149" y1="87.9763" x2="274.149" y2="71.9763" style="stroke:#009af9; stroke-width:3.2; stroke-opacity:1"/>
<line clip-path="url(#clip942)" x1="274.149" y1="87.9763" x2="258.149" y2="87.9763" style="stroke:#009af9; stroke-width:3.2; stroke-opacity:1"/>
<line clip-path="url(#clip942)" x1="274.149" y1="87.9763" x2="274.149" y2="103.976" style="stroke:#009af9; stroke-width:3.2; stroke-opacity:1"/>
<line clip-path="url(#clip942)" x1="274.149" y1="87.9763" x2="290.149" y2="87.9763" style="stroke:#009af9; stroke-width:3.2; stroke-opacity:1"/>
<line clip-path="url(#clip942)" x1="380.363" y1="133.022" x2="380.363" y2="117.022" style="stroke:#009af9; stroke-width:3.2; stroke-opacity:1"/>
<line clip-path="url(#clip942)" x1="380.363" y1="133.022" x2="364.363" y2="133.022" style="stroke:#009af9; stroke-width:3.2; stroke-opacity:1"/>
<line clip-path="url(#clip942)" x1="380.363" y1="133.022" x2="380.363" y2="149.022" style="stroke:#009af9; stroke-width:3.2; stroke-opacity:1"/>
<line clip-path="url(#clip942)" x1="380.363" y1="133.022" x2="396.363" y2="133.022" style="stroke:#009af9; stroke-width:3.2; stroke-opacity:1"/>
<line clip-path="url(#clip942)" x1="486.577" y1="195.136" x2="486.577" y2="179.136" style="stroke:#009af9; stroke-width:3.2; stroke-opacity:1"/>
<line clip-path="url(#clip942)" x1="486.577" y1="195.136" x2="470.577" y2="195.136" style="stroke:#009af9; stroke-width:3.2; stroke-opacity:1"/>
<line clip-path="url(#clip942)" x1="486.577" y1="195.136" x2="486.577" y2="211.136" style="stroke:#009af9; stroke-width:3.2; stroke-opacity:1"/>
<line clip-path="url(#clip942)" x1="486.577" y1="195.136" x2="502.577" y2="195.136" style="stroke:#009af9; stroke-width:3.2; stroke-opacity:1"/>
<line clip-path="url(#clip942)" x1="592.791" y1="257.815" x2="592.791" y2="241.815" style="stroke:#009af9; stroke-width:3.2; stroke-opacity:1"/>
<line clip-path="url(#clip942)" x1="592.791" y1="257.815" x2="576.791" y2="257.815" style="stroke:#009af9; stroke-width:3.2; stroke-opacity:1"/>
<line clip-path="url(#clip942)" x1="592.791" y1="257.815" x2="592.791" y2="273.815" style="stroke:#009af9; stroke-width:3.2; stroke-opacity:1"/>
<line clip-path="url(#clip942)" x1="592.791" y1="257.815" x2="608.791" y2="257.815" style="stroke:#009af9; stroke-width:3.2; stroke-opacity:1"/>
<line clip-path="url(#clip942)" x1="699.005" y1="408.092" x2="699.005" y2="392.092" style="stroke:#009af9; stroke-width:3.2; stroke-opacity:1"/>
<line clip-path="url(#clip942)" x1="699.005" y1="408.092" x2="683.005" y2="408.092" style="stroke:#009af9; stroke-width:3.2; stroke-opacity:1"/>
<line clip-path="url(#clip942)" x1="699.005" y1="408.092" x2="699.005" y2="424.092" style="stroke:#009af9; stroke-width:3.2; stroke-opacity:1"/>
<line clip-path="url(#clip942)" x1="699.005" y1="408.092" x2="715.005" y2="408.092" style="stroke:#009af9; stroke-width:3.2; stroke-opacity:1"/>
<line clip-path="url(#clip942)" x1="805.219" y1="711.813" x2="805.219" y2="695.813" style="stroke:#009af9; stroke-width:3.2; stroke-opacity:1"/>
<line clip-path="url(#clip942)" x1="805.219" y1="711.813" x2="789.219" y2="711.813" style="stroke:#009af9; stroke-width:3.2; stroke-opacity:1"/>
<line clip-path="url(#clip942)" x1="805.219" y1="711.813" x2="805.219" y2="727.813" style="stroke:#009af9; stroke-width:3.2; stroke-opacity:1"/>
<line clip-path="url(#clip942)" x1="805.219" y1="711.813" x2="821.219" y2="711.813" style="stroke:#009af9; stroke-width:3.2; stroke-opacity:1"/>
<line clip-path="url(#clip942)" x1="911.433" y1="1319.18" x2="911.433" y2="1303.18" style="stroke:#009af9; stroke-width:3.2; stroke-opacity:1"/>
<line clip-path="url(#clip942)" x1="911.433" y1="1319.18" x2="895.433" y2="1319.18" style="stroke:#009af9; stroke-width:3.2; stroke-opacity:1"/>
<line clip-path="url(#clip942)" x1="911.433" y1="1319.18" x2="911.433" y2="1335.18" style="stroke:#009af9; stroke-width:3.2; stroke-opacity:1"/>
<line clip-path="url(#clip942)" x1="911.433" y1="1319.18" x2="927.433" y2="1319.18" style="stroke:#009af9; stroke-width:3.2; stroke-opacity:1"/>
<line clip-path="url(#clip942)" x1="1017.65" y1="1445.72" x2="1017.65" y2="1429.72" style="stroke:#009af9; stroke-width:3.2; stroke-opacity:1"/>
<line clip-path="url(#clip942)" x1="1017.65" y1="1445.72" x2="1001.65" y2="1445.72" style="stroke:#009af9; stroke-width:3.2; stroke-opacity:1"/>
<line clip-path="url(#clip942)" x1="1017.65" y1="1445.72" x2="1017.65" y2="1461.72" style="stroke:#009af9; stroke-width:3.2; stroke-opacity:1"/>
<line clip-path="url(#clip942)" x1="1017.65" y1="1445.72" x2="1033.65" y2="1445.72" style="stroke:#009af9; stroke-width:3.2; stroke-opacity:1"/>
<line clip-path="url(#clip942)" x1="1123.86" y1="1441.52" x2="1123.86" y2="1425.52" style="stroke:#009af9; stroke-width:3.2; stroke-opacity:1"/>
<line clip-path="url(#clip942)" x1="1123.86" y1="1441.52" x2="1107.86" y2="1441.52" style="stroke:#009af9; stroke-width:3.2; stroke-opacity:1"/>
<line clip-path="url(#clip942)" x1="1123.86" y1="1441.52" x2="1123.86" y2="1457.52" style="stroke:#009af9; stroke-width:3.2; stroke-opacity:1"/>
<line clip-path="url(#clip942)" x1="1123.86" y1="1441.52" x2="1139.86" y2="1441.52" style="stroke:#009af9; stroke-width:3.2; stroke-opacity:1"/>
<line clip-path="url(#clip942)" x1="1230.07" y1="1441.52" x2="1230.07" y2="1425.52" style="stroke:#009af9; stroke-width:3.2; stroke-opacity:1"/>
<line clip-path="url(#clip942)" x1="1230.07" y1="1441.52" x2="1214.07" y2="1441.52" style="stroke:#009af9; stroke-width:3.2; stroke-opacity:1"/>
<line clip-path="url(#clip942)" x1="1230.07" y1="1441.52" x2="1230.07" y2="1457.52" style="stroke:#009af9; stroke-width:3.2; stroke-opacity:1"/>
<line clip-path="url(#clip942)" x1="1230.07" y1="1441.52" x2="1246.07" y2="1441.52" style="stroke:#009af9; stroke-width:3.2; stroke-opacity:1"/>
<line clip-path="url(#clip942)" x1="1336.29" y1="1441.52" x2="1336.29" y2="1425.52" style="stroke:#009af9; stroke-width:3.2; stroke-opacity:1"/>
<line clip-path="url(#clip942)" x1="1336.29" y1="1441.52" x2="1320.29" y2="1441.52" style="stroke:#009af9; stroke-width:3.2; stroke-opacity:1"/>
<line clip-path="url(#clip942)" x1="1336.29" y1="1441.52" x2="1336.29" y2="1457.52" style="stroke:#009af9; stroke-width:3.2; stroke-opacity:1"/>
<line clip-path="url(#clip942)" x1="1336.29" y1="1441.52" x2="1352.29" y2="1441.52" style="stroke:#009af9; stroke-width:3.2; stroke-opacity:1"/>
<line clip-path="url(#clip942)" x1="1442.5" y1="1441.52" x2="1442.5" y2="1425.52" style="stroke:#009af9; stroke-width:3.2; stroke-opacity:1"/>
<line clip-path="url(#clip942)" x1="1442.5" y1="1441.52" x2="1426.5" y2="1441.52" style="stroke:#009af9; stroke-width:3.2; stroke-opacity:1"/>
<line clip-path="url(#clip942)" x1="1442.5" y1="1441.52" x2="1442.5" y2="1457.52" style="stroke:#009af9; stroke-width:3.2; stroke-opacity:1"/>
<line clip-path="url(#clip942)" x1="1442.5" y1="1441.52" x2="1458.5" y2="1441.52" style="stroke:#009af9; stroke-width:3.2; stroke-opacity:1"/>
<line clip-path="url(#clip942)" x1="1548.72" y1="1441.52" x2="1548.72" y2="1425.52" style="stroke:#009af9; stroke-width:3.2; stroke-opacity:1"/>
<line clip-path="url(#clip942)" x1="1548.72" y1="1441.52" x2="1532.72" y2="1441.52" style="stroke:#009af9; stroke-width:3.2; stroke-opacity:1"/>
<line clip-path="url(#clip942)" x1="1548.72" y1="1441.52" x2="1548.72" y2="1457.52" style="stroke:#009af9; stroke-width:3.2; stroke-opacity:1"/>
<line clip-path="url(#clip942)" x1="1548.72" y1="1441.52" x2="1564.72" y2="1441.52" style="stroke:#009af9; stroke-width:3.2; stroke-opacity:1"/>
<line clip-path="url(#clip942)" x1="1654.93" y1="1441.52" x2="1654.93" y2="1425.52" style="stroke:#009af9; stroke-width:3.2; stroke-opacity:1"/>
<line clip-path="url(#clip942)" x1="1654.93" y1="1441.52" x2="1638.93" y2="1441.52" style="stroke:#009af9; stroke-width:3.2; stroke-opacity:1"/>
<line clip-path="url(#clip942)" x1="1654.93" y1="1441.52" x2="1654.93" y2="1457.52" style="stroke:#009af9; stroke-width:3.2; stroke-opacity:1"/>
<line clip-path="url(#clip942)" x1="1654.93" y1="1441.52" x2="1670.93" y2="1441.52" style="stroke:#009af9; stroke-width:3.2; stroke-opacity:1"/>
<line clip-path="url(#clip942)" x1="1761.14" y1="1441.52" x2="1761.14" y2="1425.52" style="stroke:#009af9; stroke-width:3.2; stroke-opacity:1"/>
<line clip-path="url(#clip942)" x1="1761.14" y1="1441.52" x2="1745.14" y2="1441.52" style="stroke:#009af9; stroke-width:3.2; stroke-opacity:1"/>
<line clip-path="url(#clip942)" x1="1761.14" y1="1441.52" x2="1761.14" y2="1457.52" style="stroke:#009af9; stroke-width:3.2; stroke-opacity:1"/>
<line clip-path="url(#clip942)" x1="1761.14" y1="1441.52" x2="1777.14" y2="1441.52" style="stroke:#009af9; stroke-width:3.2; stroke-opacity:1"/>
<line clip-path="url(#clip942)" x1="1867.36" y1="1441.52" x2="1867.36" y2="1425.52" style="stroke:#009af9; stroke-width:3.2; stroke-opacity:1"/>
<line clip-path="url(#clip942)" x1="1867.36" y1="1441.52" x2="1851.36" y2="1441.52" style="stroke:#009af9; stroke-width:3.2; stroke-opacity:1"/>
<line clip-path="url(#clip942)" x1="1867.36" y1="1441.52" x2="1867.36" y2="1457.52" style="stroke:#009af9; stroke-width:3.2; stroke-opacity:1"/>
<line clip-path="url(#clip942)" x1="1867.36" y1="1441.52" x2="1883.36" y2="1441.52" style="stroke:#009af9; stroke-width:3.2; stroke-opacity:1"/>
<line clip-path="url(#clip942)" x1="1973.57" y1="1441.52" x2="1973.57" y2="1425.52" style="stroke:#009af9; stroke-width:3.2; stroke-opacity:1"/>
<line clip-path="url(#clip942)" x1="1973.57" y1="1441.52" x2="1957.57" y2="1441.52" style="stroke:#009af9; stroke-width:3.2; stroke-opacity:1"/>
<line clip-path="url(#clip942)" x1="1973.57" y1="1441.52" x2="1973.57" y2="1457.52" style="stroke:#009af9; stroke-width:3.2; stroke-opacity:1"/>
<line clip-path="url(#clip942)" x1="1973.57" y1="1441.52" x2="1989.57" y2="1441.52" style="stroke:#009af9; stroke-width:3.2; stroke-opacity:1"/>
<line clip-path="url(#clip942)" x1="2079.79" y1="1441.52" x2="2079.79" y2="1425.52" style="stroke:#009af9; stroke-width:3.2; stroke-opacity:1"/>
<line clip-path="url(#clip942)" x1="2079.79" y1="1441.52" x2="2063.79" y2="1441.52" style="stroke:#009af9; stroke-width:3.2; stroke-opacity:1"/>
<line clip-path="url(#clip942)" x1="2079.79" y1="1441.52" x2="2079.79" y2="1457.52" style="stroke:#009af9; stroke-width:3.2; stroke-opacity:1"/>
<line clip-path="url(#clip942)" x1="2079.79" y1="1441.52" x2="2095.79" y2="1441.52" style="stroke:#009af9; stroke-width:3.2; stroke-opacity:1"/>
<line clip-path="url(#clip942)" x1="2186" y1="1441.52" x2="2186" y2="1425.52" style="stroke:#009af9; stroke-width:3.2; stroke-opacity:1"/>
<line clip-path="url(#clip942)" x1="2186" y1="1441.52" x2="2170" y2="1441.52" style="stroke:#009af9; stroke-width:3.2; stroke-opacity:1"/>
<line clip-path="url(#clip942)" x1="2186" y1="1441.52" x2="2186" y2="1457.52" style="stroke:#009af9; stroke-width:3.2; stroke-opacity:1"/>
<line clip-path="url(#clip942)" x1="2186" y1="1441.52" x2="2202" y2="1441.52" style="stroke:#009af9; stroke-width:3.2; stroke-opacity:1"/>
<line clip-path="url(#clip942)" x1="2292.21" y1="1441.52" x2="2292.21" y2="1425.52" style="stroke:#009af9; stroke-width:3.2; stroke-opacity:1"/>
<line clip-path="url(#clip942)" x1="2292.21" y1="1441.52" x2="2276.21" y2="1441.52" style="stroke:#009af9; stroke-width:3.2; stroke-opacity:1"/>
<line clip-path="url(#clip942)" x1="2292.21" y1="1441.52" x2="2292.21" y2="1457.52" style="stroke:#009af9; stroke-width:3.2; stroke-opacity:1"/>
<line clip-path="url(#clip942)" x1="2292.21" y1="1441.52" x2="2308.21" y2="1441.52" style="stroke:#009af9; stroke-width:3.2; stroke-opacity:1"/>
<path clip-path="url(#clip940)" d="
M1991.34 198.898 L2281.45 198.898 L2281.45 95.2176 L1991.34 95.2176  Z
  " fill="#ffffff" fill-rule="evenodd" fill-opacity="1"/>
<polyline clip-path="url(#clip940)" style="stroke:#000000; stroke-linecap:butt; stroke-linejoin:round; stroke-width:4; stroke-opacity:1; fill:none" points="
  1991.34,198.898 2281.45,198.898 2281.45,95.2176 1991.34,95.2176 1991.34,198.898 
  "/>
<polyline clip-path="url(#clip940)" style="stroke:#009af9; stroke-linecap:butt; stroke-linejoin:round; stroke-width:4; stroke-opacity:1; fill:none" points="
  2015.11,147.058 2157.72,147.058 
  "/>
<line clip-path="url(#clip940)" x1="2086.41" y1="147.058" x2="2086.41" y2="121.458" style="stroke:#009af9; stroke-width:5.12; stroke-opacity:1"/>
<line clip-path="url(#clip940)" x1="2086.41" y1="147.058" x2="2060.81" y2="147.058" style="stroke:#009af9; stroke-width:5.12; stroke-opacity:1"/>
<line clip-path="url(#clip940)" x1="2086.41" y1="147.058" x2="2086.41" y2="172.658" style="stroke:#009af9; stroke-width:5.12; stroke-opacity:1"/>
<line clip-path="url(#clip940)" x1="2086.41" y1="147.058" x2="2112.01" y2="147.058" style="stroke:#009af9; stroke-width:5.12; stroke-opacity:1"/>
<path clip-path="url(#clip940)" d="M2195.33 166.745 Q2193.52 171.375 2191.81 172.787 Q2190.1 174.199 2187.22 174.199 L2183.82 174.199 L2183.82 170.634 L2186.32 170.634 Q2188.08 170.634 2189.05 169.8 Q2190.03 168.967 2191.21 165.865 L2191.97 163.921 L2181.48 138.412 L2186 138.412 L2194.1 158.689 L2202.2 138.412 L2206.72 138.412 L2195.33 166.745 Z" fill="#000000" fill-rule="evenodd" fill-opacity="1" /><path clip-path="url(#clip940)" d="M2214.01 160.402 L2221.65 160.402 L2221.65 134.037 L2213.34 135.703 L2213.34 131.444 L2221.6 129.778 L2226.28 129.778 L2226.28 160.402 L2233.91 160.402 L2233.91 164.338 L2214.01 164.338 L2214.01 160.402 Z" fill="#000000" fill-rule="evenodd" fill-opacity="1" /></svg>
