<?xml version="1.0" encoding="utf-8"?>
<svg xmlns="http://www.w3.org/2000/svg" xmlns:xlink="http://www.w3.org/1999/xlink" width="600" height="400" viewBox="0 0 2400 1600">
<defs>
  <clipPath id="clip180">
    <rect x="0" y="0" width="2400" height="1600"/>
  </clipPath>
</defs>
<path clip-path="url(#clip180)" d="
M0 1600 L2400 1600 L2400 0 L0 0  Z
  " fill="#ffffff" fill-rule="evenodd" fill-opacity="1"/>
<defs>
  <clipPath id="clip181">
    <rect x="480" y="0" width="1681" height="1600"/>
  </clipPath>
</defs>
<path clip-path="url(#clip180)" d="
M186.274 1486.45 L2352.76 1486.45 L2352.76 47.2441 L186.274 47.2441  Z
  " fill="#ffffff" fill-rule="evenodd" fill-opacity="1"/>
<defs>
  <clipPath id="clip182">
    <rect x="186" y="47" width="2167" height="1440"/>
  </clipPath>
</defs>
<polyline clip-path="url(#clip182)" style="stroke:#000000; stroke-linecap:butt; stroke-linejoin:round; stroke-width:2; stroke-opacity:0.1; fill:none" points="
  245.028,1486.45 245.028,47.2441 
  "/>
<polyline clip-path="url(#clip182)" style="stroke:#000000; stroke-linecap:butt; stroke-linejoin:round; stroke-width:2; stroke-opacity:0.1; fill:none" points="
  757.272,1486.45 757.272,47.2441 
  "/>
<polyline clip-path="url(#clip182)" style="stroke:#000000; stroke-linecap:butt; stroke-linejoin:round; stroke-width:2; stroke-opacity:0.1; fill:none" points="
  1269.51,1486.45 1269.51,47.2441 
  "/>
<polyline clip-path="url(#clip182)" style="stroke:#000000; stroke-linecap:butt; stroke-linejoin:round; stroke-width:2; stroke-opacity:0.1; fill:none" points="
  1781.76,1486.45 1781.76,47.2441 
  "/>
<polyline clip-path="url(#clip182)" style="stroke:#000000; stroke-linecap:butt; stroke-linejoin:round; stroke-width:2; stroke-opacity:0.1; fill:none" points="
  2294,1486.45 2294,47.2441 
  "/>
<polyline clip-path="url(#clip180)" style="stroke:#000000; stroke-linecap:butt; stroke-linejoin:round; stroke-width:4; stroke-opacity:1; fill:none" points="
  186.274,1486.45 2352.76,1486.45 
  "/>
<polyline clip-path="url(#clip180)" style="stroke:#000000; stroke-linecap:butt; stroke-linejoin:round; stroke-width:4; stroke-opacity:1; fill:none" points="
  245.028,1486.45 245.028,1467.55 
  "/>
<polyline clip-path="url(#clip180)" style="stroke:#000000; stroke-linecap:butt; stroke-linejoin:round; stroke-width:4; stroke-opacity:1; fill:none" points="
  757.272,1486.45 757.272,1467.55 
  "/>
<polyline clip-path="url(#clip180)" style="stroke:#000000; stroke-linecap:butt; stroke-linejoin:round; stroke-width:4; stroke-opacity:1; fill:none" points="
  1269.51,1486.45 1269.51,1467.55 
  "/>
<polyline clip-path="url(#clip180)" style="stroke:#000000; stroke-linecap:butt; stroke-linejoin:round; stroke-width:4; stroke-opacity:1; fill:none" points="
  1781.76,1486.45 1781.76,1467.55 
  "/>
<polyline clip-path="url(#clip180)" style="stroke:#000000; stroke-linecap:butt; stroke-linejoin:round; stroke-width:4; stroke-opacity:1; fill:none" points="
  2294,1486.45 2294,1467.55 
  "/>
<path clip-path="url(#clip180)" d="M191.556 1532.02 L221.232 1532.02 L221.232 1535.95 L191.556 1535.95 L191.556 1532.02 Z" fill="#000000" fill-rule="evenodd" fill-opacity="1" /><path clip-path="url(#clip180)" d="M232.135 1544.91 L239.774 1544.91 L239.774 1518.55 L231.464 1520.21 L231.464 1515.95 L239.727 1514.29 L244.403 1514.29 L244.403 1544.91 L252.042 1544.91 L252.042 1548.85 L232.135 1548.85 L232.135 1544.91 Z" fill="#000000" fill-rule="evenodd" fill-opacity="1" /><path clip-path="url(#clip180)" d="M261.487 1542.97 L266.371 1542.97 L266.371 1548.85 L261.487 1548.85 L261.487 1542.97 Z" fill="#000000" fill-rule="evenodd" fill-opacity="1" /><path clip-path="url(#clip180)" d="M286.556 1517.37 Q282.945 1517.37 281.116 1520.93 Q279.311 1524.47 279.311 1531.6 Q279.311 1538.71 281.116 1542.27 Q282.945 1545.82 286.556 1545.82 Q290.19 1545.82 291.996 1542.27 Q293.824 1538.71 293.824 1531.6 Q293.824 1524.47 291.996 1520.93 Q290.19 1517.37 286.556 1517.37 M286.556 1513.66 Q292.366 1513.66 295.422 1518.27 Q298.5 1522.85 298.5 1531.6 Q298.5 1540.33 295.422 1544.94 Q292.366 1549.52 286.556 1549.52 Q280.746 1549.52 277.667 1544.94 Q274.611 1540.33 274.611 1531.6 Q274.611 1522.85 277.667 1518.27 Q280.746 1513.66 286.556 1513.66 Z" fill="#000000" fill-rule="evenodd" fill-opacity="1" /><path clip-path="url(#clip180)" d="M704.297 1532.02 L733.973 1532.02 L733.973 1535.95 L704.297 1535.95 L704.297 1532.02 Z" fill="#000000" fill-rule="evenodd" fill-opacity="1" /><path clip-path="url(#clip180)" d="M754.066 1517.37 Q750.455 1517.37 748.626 1520.93 Q746.82 1524.47 746.82 1531.6 Q746.82 1538.71 748.626 1542.27 Q750.455 1545.82 754.066 1545.82 Q757.7 1545.82 759.505 1542.27 Q761.334 1538.71 761.334 1531.6 Q761.334 1524.47 759.505 1520.93 Q757.7 1517.37 754.066 1517.37 M754.066 1513.66 Q759.876 1513.66 762.931 1518.27 Q766.01 1522.85 766.01 1531.6 Q766.01 1540.33 762.931 1544.94 Q759.876 1549.52 754.066 1549.52 Q748.255 1549.52 745.177 1544.94 Q742.121 1540.33 742.121 1531.6 Q742.121 1522.85 745.177 1518.27 Q748.255 1513.66 754.066 1513.66 Z" fill="#000000" fill-rule="evenodd" fill-opacity="1" /><path clip-path="url(#clip180)" d="M774.228 1542.97 L779.112 1542.97 L779.112 1548.85 L774.228 1548.85 L774.228 1542.97 Z" fill="#000000" fill-rule="evenodd" fill-opacity="1" /><path clip-path="url(#clip180)" d="M789.343 1514.29 L807.7 1514.29 L807.7 1518.22 L793.626 1518.22 L793.626 1526.7 Q794.644 1526.35 795.663 1526.19 Q796.681 1526 797.7 1526 Q803.487 1526 806.866 1529.17 Q810.246 1532.34 810.246 1537.76 Q810.246 1543.34 806.774 1546.44 Q803.301 1549.52 796.982 1549.52 Q794.806 1549.52 792.538 1549.15 Q790.292 1548.78 787.885 1548.04 L787.885 1543.34 Q789.968 1544.47 792.19 1545.03 Q794.413 1545.58 796.889 1545.58 Q800.894 1545.58 803.232 1543.48 Q805.57 1541.37 805.57 1537.76 Q805.57 1534.15 803.232 1532.04 Q800.894 1529.94 796.889 1529.94 Q795.014 1529.94 793.139 1530.35 Q791.288 1530.77 789.343 1531.65 L789.343 1514.29 Z" fill="#000000" fill-rule="evenodd" fill-opacity="1" /><path clip-path="url(#clip180)" d="M1246.9 1517.37 Q1243.29 1517.37 1241.46 1520.93 Q1239.65 1524.47 1239.65 1531.6 Q1239.65 1538.71 1241.46 1542.27 Q1243.29 1545.82 1246.9 1545.82 Q1250.53 1545.82 1252.34 1542.27 Q1254.17 1538.71 1254.17 1531.6 Q1254.17 1524.47 1252.34 1520.93 Q1250.53 1517.37 1246.9 1517.37 M1246.9 1513.66 Q1252.71 1513.66 1255.77 1518.27 Q1258.84 1522.85 1258.84 1531.6 Q1258.84 1540.33 1255.77 1544.94 Q1252.71 1549.52 1246.9 1549.52 Q1241.09 1549.52 1238.01 1544.94 Q1234.95 1540.33 1234.95 1531.6 Q1234.95 1522.85 1238.01 1518.27 Q1241.09 1513.66 1246.9 1513.66 Z" fill="#000000" fill-rule="evenodd" fill-opacity="1" /><path clip-path="url(#clip180)" d="M1267.06 1542.97 L1271.95 1542.97 L1271.95 1548.85 L1267.06 1548.85 L1267.06 1542.97 Z" fill="#000000" fill-rule="evenodd" fill-opacity="1" /><path clip-path="url(#clip180)" d="M1292.13 1517.37 Q1288.52 1517.37 1286.69 1520.93 Q1284.89 1524.47 1284.89 1531.6 Q1284.89 1538.71 1286.69 1542.27 Q1288.52 1545.82 1292.13 1545.82 Q1295.76 1545.82 1297.57 1542.27 Q1299.4 1538.71 1299.4 1531.6 Q1299.4 1524.47 1297.57 1520.93 Q1295.76 1517.37 1292.13 1517.37 M1292.13 1513.66 Q1297.94 1513.66 1301 1518.27 Q1304.07 1522.85 1304.07 1531.6 Q1304.07 1540.33 1301 1544.94 Q1297.94 1549.52 1292.13 1549.52 Q1286.32 1549.52 1283.24 1544.94 Q1280.19 1540.33 1280.19 1531.6 Q1280.19 1522.85 1283.24 1518.27 Q1286.32 1513.66 1292.13 1513.66 Z" fill="#000000" fill-rule="evenodd" fill-opacity="1" /><path clip-path="url(#clip180)" d="M1759.64 1517.37 Q1756.03 1517.37 1754.2 1520.93 Q1752.4 1524.47 1752.4 1531.6 Q1752.4 1538.71 1754.2 1542.27 Q1756.03 1545.82 1759.64 1545.82 Q1763.27 1545.82 1765.08 1542.27 Q1766.91 1538.71 1766.91 1531.6 Q1766.91 1524.47 1765.08 1520.93 Q1763.27 1517.37 1759.64 1517.37 M1759.64 1513.66 Q1765.45 1513.66 1768.51 1518.27 Q1771.58 1522.85 1771.58 1531.6 Q1771.58 1540.33 1768.51 1544.94 Q1765.45 1549.52 1759.64 1549.52 Q1753.83 1549.52 1750.75 1544.94 Q1747.7 1540.33 1747.7 1531.6 Q1747.7 1522.85 1750.75 1518.27 Q1753.83 1513.66 1759.64 1513.66 Z" fill="#000000" fill-rule="evenodd" fill-opacity="1" /><path clip-path="url(#clip180)" d="M1779.8 1542.97 L1784.69 1542.97 L1784.69 1548.85 L1779.8 1548.85 L1779.8 1542.97 Z" fill="#000000" fill-rule="evenodd" fill-opacity="1" /><path clip-path="url(#clip180)" d="M1794.92 1514.29 L1813.27 1514.29 L1813.27 1518.22 L1799.2 1518.22 L1799.2 1526.7 Q1800.22 1526.35 1801.24 1526.19 Q1802.26 1526 1803.27 1526 Q1809.06 1526 1812.44 1529.17 Q1815.82 1532.34 1815.82 1537.76 Q1815.82 1543.34 1812.35 1546.44 Q1808.88 1549.52 1802.56 1549.52 Q1800.38 1549.52 1798.11 1549.15 Q1795.87 1548.78 1793.46 1548.04 L1793.46 1543.34 Q1795.54 1544.47 1797.77 1545.03 Q1799.99 1545.58 1802.46 1545.58 Q1806.47 1545.58 1808.81 1543.48 Q1811.14 1541.37 1811.14 1537.76 Q1811.14 1534.15 1808.81 1532.04 Q1806.47 1529.94 1802.46 1529.94 Q1800.59 1529.94 1798.71 1530.35 Q1796.86 1530.77 1794.92 1531.65 L1794.92 1514.29 Z" fill="#000000" fill-rule="evenodd" fill-opacity="1" /><path clip-path="url(#clip180)" d="M2261.15 1544.91 L2268.79 1544.91 L2268.79 1518.55 L2260.48 1520.21 L2260.48 1515.95 L2268.75 1514.29 L2273.42 1514.29 L2273.42 1544.91 L2281.06 1544.91 L2281.06 1548.85 L2261.15 1548.85 L2261.15 1544.91 Z" fill="#000000" fill-rule="evenodd" fill-opacity="1" /><path clip-path="url(#clip180)" d="M2290.51 1542.97 L2295.39 1542.97 L2295.39 1548.85 L2290.51 1548.85 L2290.51 1542.97 Z" fill="#000000" fill-rule="evenodd" fill-opacity="1" /><path clip-path="url(#clip180)" d="M2315.58 1517.37 Q2311.96 1517.37 2310.14 1520.93 Q2308.33 1524.47 2308.33 1531.6 Q2308.33 1538.71 2310.14 1542.27 Q2311.96 1545.82 2315.58 1545.82 Q2319.21 1545.82 2321.02 1542.27 Q2322.84 1538.71 2322.84 1531.6 Q2322.84 1524.47 2321.02 1520.93 Q2319.21 1517.37 2315.58 1517.37 M2315.58 1513.66 Q2321.39 1513.66 2324.44 1518.27 Q2327.52 1522.85 2327.52 1531.6 Q2327.52 1540.33 2324.44 1544.94 Q2321.39 1549.52 2315.58 1549.52 Q2309.77 1549.52 2306.69 1544.94 Q2303.63 1540.33 2303.63 1531.6 Q2303.63 1522.85 2306.69 1518.27 Q2309.77 1513.66 2315.58 1513.66 Z" fill="#000000" fill-rule="evenodd" fill-opacity="1" /><polyline clip-path="url(#clip182)" style="stroke:#000000; stroke-linecap:butt; stroke-linejoin:round; stroke-width:2; stroke-opacity:0.1; fill:none" points="
  186.274,1445.72 2352.76,1445.72 
  "/>
<polyline clip-path="url(#clip182)" style="stroke:#000000; stroke-linecap:butt; stroke-linejoin:round; stroke-width:2; stroke-opacity:0.1; fill:none" points="
  186.274,1106.28 2352.76,1106.28 
  "/>
<polyline clip-path="url(#clip182)" style="stroke:#000000; stroke-linecap:butt; stroke-linejoin:round; stroke-width:2; stroke-opacity:0.1; fill:none" points="
  186.274,766.846 2352.76,766.846 
  "/>
<polyline clip-path="url(#clip182)" style="stroke:#000000; stroke-linecap:butt; stroke-linejoin:round; stroke-width:2; stroke-opacity:0.1; fill:none" points="
  186.274,427.411 2352.76,427.411 
  "/>
<polyline clip-path="url(#clip182)" style="stroke:#000000; stroke-linecap:butt; stroke-linejoin:round; stroke-width:2; stroke-opacity:0.1; fill:none" points="
  186.274,87.9763 2352.76,87.9763 
  "/>
<polyline clip-path="url(#clip180)" style="stroke:#000000; stroke-linecap:butt; stroke-linejoin:round; stroke-width:4; stroke-opacity:1; fill:none" points="
  186.274,1486.45 186.274,47.2441 
  "/>
<polyline clip-path="url(#clip180)" style="stroke:#000000; stroke-linecap:butt; stroke-linejoin:round; stroke-width:4; stroke-opacity:1; fill:none" points="
  186.274,1445.72 205.172,1445.72 
  "/>
<polyline clip-path="url(#clip180)" style="stroke:#000000; stroke-linecap:butt; stroke-linejoin:round; stroke-width:4; stroke-opacity:1; fill:none" points="
  186.274,1106.28 205.172,1106.28 
  "/>
<polyline clip-path="url(#clip180)" style="stroke:#000000; stroke-linecap:butt; stroke-linejoin:round; stroke-width:4; stroke-opacity:1; fill:none" points="
  186.274,766.846 205.172,766.846 
  "/>
<polyline clip-path="url(#clip180)" style="stroke:#000000; stroke-linecap:butt; stroke-linejoin:round; stroke-width:4; stroke-opacity:1; fill:none" points="
  186.274,427.411 205.172,427.411 
  "/>
<polyline clip-path="url(#clip180)" style="stroke:#000000; stroke-linecap:butt; stroke-linejoin:round; stroke-width:4; stroke-opacity:1; fill:none" points="
  186.274,87.9763 205.172,87.9763 
  "/>
<path clip-path="url(#clip180)" d="M62.9365 1431.51 Q59.3254 1431.51 57.4967 1435.08 Q55.6912 1438.62 55.6912 1445.75 Q55.6912 1452.86 57.4967 1456.42 Q59.3254 1459.96 62.9365 1459.96 Q66.5707 1459.96 68.3763 1456.42 Q70.205 1452.86 70.205 1445.75 Q70.205 1438.62 68.3763 1435.08 Q66.5707 1431.51 62.9365 1431.51 M62.9365 1427.81 Q68.7467 1427.81 71.8022 1432.42 Q74.8809 1437 74.8809 1445.75 Q74.8809 1454.48 71.8022 1459.08 Q68.7467 1463.67 62.9365 1463.67 Q57.1264 1463.67 54.0477 1459.08 Q50.9921 1454.48 50.9921 1445.75 Q50.9921 1437 54.0477 1432.42 Q57.1264 1427.81 62.9365 1427.81 Z" fill="#000000" fill-rule="evenodd" fill-opacity="1" /><path clip-path="url(#clip180)" d="M83.0984 1457.12 L87.9827 1457.12 L87.9827 1463 L83.0984 1463 L83.0984 1457.12 Z" fill="#000000" fill-rule="evenodd" fill-opacity="1" /><path clip-path="url(#clip180)" d="M108.168 1431.51 Q104.557 1431.51 102.728 1435.08 Q100.922 1438.62 100.922 1445.75 Q100.922 1452.86 102.728 1456.42 Q104.557 1459.96 108.168 1459.96 Q111.802 1459.96 113.608 1456.42 Q115.436 1452.86 115.436 1445.75 Q115.436 1438.62 113.608 1435.08 Q111.802 1431.51 108.168 1431.51 M108.168 1427.81 Q113.978 1427.81 117.033 1432.42 Q120.112 1437 120.112 1445.75 Q120.112 1454.48 117.033 1459.08 Q113.978 1463.67 108.168 1463.67 Q102.358 1463.67 99.2789 1459.08 Q96.2234 1454.48 96.2234 1445.75 Q96.2234 1437 99.2789 1432.42 Q102.358 1427.81 108.168 1427.81 Z" fill="#000000" fill-rule="evenodd" fill-opacity="1" /><path clip-path="url(#clip180)" d="M138.33 1431.51 Q134.719 1431.51 132.89 1435.08 Q131.084 1438.62 131.084 1445.75 Q131.084 1452.86 132.89 1456.42 Q134.719 1459.96 138.33 1459.96 Q141.964 1459.96 143.769 1456.42 Q145.598 1452.86 145.598 1445.75 Q145.598 1438.62 143.769 1435.08 Q141.964 1431.51 138.33 1431.51 M138.33 1427.81 Q144.14 1427.81 147.195 1432.42 Q150.274 1437 150.274 1445.75 Q150.274 1454.48 147.195 1459.08 Q144.14 1463.67 138.33 1463.67 Q132.519 1463.67 129.441 1459.08 Q126.385 1454.48 126.385 1445.75 Q126.385 1437 129.441 1432.42 Q132.519 1427.81 138.33 1427.81 Z" fill="#000000" fill-rule="evenodd" fill-opacity="1" /><path clip-path="url(#clip180)" d="M63.9319 1092.08 Q60.3208 1092.08 58.4921 1095.64 Q56.6865 1099.19 56.6865 1106.32 Q56.6865 1113.42 58.4921 1116.99 Q60.3208 1120.53 63.9319 1120.53 Q67.5661 1120.53 69.3717 1116.99 Q71.2004 1113.42 71.2004 1106.32 Q71.2004 1099.19 69.3717 1095.64 Q67.5661 1092.08 63.9319 1092.08 M63.9319 1088.38 Q69.742 1088.38 72.7976 1092.98 Q75.8763 1097.57 75.8763 1106.32 Q75.8763 1115.04 72.7976 1119.65 Q69.742 1124.23 63.9319 1124.23 Q58.1217 1124.23 55.043 1119.65 Q51.9875 1115.04 51.9875 1106.32 Q51.9875 1097.57 55.043 1092.98 Q58.1217 1088.38 63.9319 1088.38 Z" fill="#000000" fill-rule="evenodd" fill-opacity="1" /><path clip-path="url(#clip180)" d="M84.0938 1117.68 L88.978 1117.68 L88.978 1123.56 L84.0938 1123.56 L84.0938 1117.68 Z" fill="#000000" fill-rule="evenodd" fill-opacity="1" /><path clip-path="url(#clip180)" d="M103.191 1119.63 L119.51 1119.63 L119.51 1123.56 L97.566 1123.56 L97.566 1119.63 Q100.228 1116.87 104.811 1112.24 Q109.418 1107.59 110.598 1106.25 Q112.844 1103.72 113.723 1101.99 Q114.626 1100.23 114.626 1098.54 Q114.626 1095.78 112.682 1094.05 Q110.76 1092.31 107.658 1092.31 Q105.459 1092.31 103.006 1093.07 Q100.575 1093.84 97.7974 1095.39 L97.7974 1090.67 Q100.621 1089.53 103.075 1088.95 Q105.529 1088.38 107.566 1088.38 Q112.936 1088.38 116.131 1091.06 Q119.325 1093.75 119.325 1098.24 Q119.325 1100.37 118.515 1102.29 Q117.728 1104.19 115.621 1106.78 Q115.043 1107.45 111.941 1110.67 Q108.839 1113.86 103.191 1119.63 Z" fill="#000000" fill-rule="evenodd" fill-opacity="1" /><path clip-path="url(#clip180)" d="M129.371 1089 L147.728 1089 L147.728 1092.94 L133.654 1092.94 L133.654 1101.41 Q134.672 1101.06 135.691 1100.9 Q136.709 1100.71 137.728 1100.71 Q143.515 1100.71 146.894 1103.89 Q150.274 1107.06 150.274 1112.47 Q150.274 1118.05 146.802 1121.15 Q143.33 1124.23 137.01 1124.23 Q134.834 1124.23 132.566 1123.86 Q130.32 1123.49 127.913 1122.75 L127.913 1118.05 Q129.996 1119.19 132.219 1119.74 Q134.441 1120.3 136.918 1120.3 Q140.922 1120.3 143.26 1118.19 Q145.598 1116.08 145.598 1112.47 Q145.598 1108.86 143.26 1106.76 Q140.922 1104.65 136.918 1104.65 Q135.043 1104.65 133.168 1105.07 Q131.316 1105.48 129.371 1106.36 L129.371 1089 Z" fill="#000000" fill-rule="evenodd" fill-opacity="1" /><path clip-path="url(#clip180)" d="M62.9365 752.645 Q59.3254 752.645 57.4967 756.209 Q55.6912 759.751 55.6912 766.881 Q55.6912 773.987 57.4967 777.552 Q59.3254 781.094 62.9365 781.094 Q66.5707 781.094 68.3763 777.552 Q70.205 773.987 70.205 766.881 Q70.205 759.751 68.3763 756.209 Q66.5707 752.645 62.9365 752.645 M62.9365 748.941 Q68.7467 748.941 71.8022 753.547 Q74.8809 758.131 74.8809 766.881 Q74.8809 775.608 71.8022 780.214 Q68.7467 784.797 62.9365 784.797 Q57.1264 784.797 54.0477 780.214 Q50.9921 775.608 50.9921 766.881 Q50.9921 758.131 54.0477 753.547 Q57.1264 748.941 62.9365 748.941 Z" fill="#000000" fill-rule="evenodd" fill-opacity="1" /><path clip-path="url(#clip180)" d="M83.0984 778.246 L87.9827 778.246 L87.9827 784.126 L83.0984 784.126 L83.0984 778.246 Z" fill="#000000" fill-rule="evenodd" fill-opacity="1" /><path clip-path="url(#clip180)" d="M98.2141 749.566 L116.57 749.566 L116.57 753.501 L102.496 753.501 L102.496 761.973 Q103.515 761.626 104.534 761.464 Q105.552 761.279 106.571 761.279 Q112.358 761.279 115.737 764.45 Q119.117 767.621 119.117 773.038 Q119.117 778.617 115.645 781.719 Q112.172 784.797 105.853 784.797 Q103.677 784.797 101.409 784.427 Q99.1632 784.057 96.7558 783.316 L96.7558 778.617 Q98.8391 779.751 101.061 780.307 Q103.284 780.862 105.76 780.862 Q109.765 780.862 112.103 778.756 Q114.441 776.649 114.441 773.038 Q114.441 769.427 112.103 767.321 Q109.765 765.214 105.76 765.214 Q103.885 765.214 102.01 765.631 Q100.159 766.047 98.2141 766.927 L98.2141 749.566 Z" fill="#000000" fill-rule="evenodd" fill-opacity="1" /><path clip-path="url(#clip180)" d="M138.33 752.645 Q134.719 752.645 132.89 756.209 Q131.084 759.751 131.084 766.881 Q131.084 773.987 132.89 777.552 Q134.719 781.094 138.33 781.094 Q141.964 781.094 143.769 777.552 Q145.598 773.987 145.598 766.881 Q145.598 759.751 143.769 756.209 Q141.964 752.645 138.33 752.645 M138.33 748.941 Q144.14 748.941 147.195 753.547 Q150.274 758.131 150.274 766.881 Q150.274 775.608 147.195 780.214 Q144.14 784.797 138.33 784.797 Q132.519 784.797 129.441 780.214 Q126.385 775.608 126.385 766.881 Q126.385 758.131 129.441 753.547 Q132.519 748.941 138.33 748.941 Z" fill="#000000" fill-rule="evenodd" fill-opacity="1" /><path clip-path="url(#clip180)" d="M63.9319 413.21 Q60.3208 413.21 58.4921 416.775 Q56.6865 420.316 56.6865 427.446 Q56.6865 434.552 58.4921 438.117 Q60.3208 441.659 63.9319 441.659 Q67.5661 441.659 69.3717 438.117 Q71.2004 434.552 71.2004 427.446 Q71.2004 420.316 69.3717 416.775 Q67.5661 413.21 63.9319 413.21 M63.9319 409.506 Q69.742 409.506 72.7976 414.113 Q75.8763 418.696 75.8763 427.446 Q75.8763 436.173 72.7976 440.779 Q69.742 445.362 63.9319 445.362 Q58.1217 445.362 55.043 440.779 Q51.9875 436.173 51.9875 427.446 Q51.9875 418.696 55.043 414.113 Q58.1217 409.506 63.9319 409.506 Z" fill="#000000" fill-rule="evenodd" fill-opacity="1" /><path clip-path="url(#clip180)" d="M84.0938 438.812 L88.978 438.812 L88.978 444.691 L84.0938 444.691 L84.0938 438.812 Z" fill="#000000" fill-rule="evenodd" fill-opacity="1" /><path clip-path="url(#clip180)" d="M97.9826 410.131 L120.205 410.131 L120.205 412.122 L107.658 444.691 L102.774 444.691 L114.58 414.066 L97.9826 414.066 L97.9826 410.131 Z" fill="#000000" fill-rule="evenodd" fill-opacity="1" /><path clip-path="url(#clip180)" d="M129.371 410.131 L147.728 410.131 L147.728 414.066 L133.654 414.066 L133.654 422.538 Q134.672 422.191 135.691 422.029 Q136.709 421.844 137.728 421.844 Q143.515 421.844 146.894 425.015 Q150.274 428.187 150.274 433.603 Q150.274 439.182 146.802 442.284 Q143.33 445.362 137.01 445.362 Q134.834 445.362 132.566 444.992 Q130.32 444.622 127.913 443.881 L127.913 439.182 Q129.996 440.316 132.219 440.872 Q134.441 441.427 136.918 441.427 Q140.922 441.427 143.26 439.321 Q145.598 437.214 145.598 433.603 Q145.598 429.992 143.26 427.886 Q140.922 425.779 136.918 425.779 Q135.043 425.779 133.168 426.196 Q131.316 426.613 129.371 427.492 L129.371 410.131 Z" fill="#000000" fill-rule="evenodd" fill-opacity="1" /><path clip-path="url(#clip180)" d="M53.7467 101.321 L61.3856 101.321 L61.3856 74.9555 L53.0754 76.6222 L53.0754 72.3629 L61.3393 70.6963 L66.0152 70.6963 L66.0152 101.321 L73.654 101.321 L73.654 105.256 L53.7467 105.256 L53.7467 101.321 Z" fill="#000000" fill-rule="evenodd" fill-opacity="1" /><path clip-path="url(#clip180)" d="M83.0984 99.3767 L87.9827 99.3767 L87.9827 105.256 L83.0984 105.256 L83.0984 99.3767 Z" fill="#000000" fill-rule="evenodd" fill-opacity="1" /><path clip-path="url(#clip180)" d="M108.168 73.775 Q104.557 73.775 102.728 77.3398 Q100.922 80.8814 100.922 88.011 Q100.922 95.1174 102.728 98.6822 Q104.557 102.224 108.168 102.224 Q111.802 102.224 113.608 98.6822 Q115.436 95.1174 115.436 88.011 Q115.436 80.8814 113.608 77.3398 Q111.802 73.775 108.168 73.775 M108.168 70.0713 Q113.978 70.0713 117.033 74.6777 Q120.112 79.261 120.112 88.011 Q120.112 96.7378 117.033 101.344 Q113.978 105.928 108.168 105.928 Q102.358 105.928 99.2789 101.344 Q96.2234 96.7378 96.2234 88.011 Q96.2234 79.261 99.2789 74.6777 Q102.358 70.0713 108.168 70.0713 Z" fill="#000000" fill-rule="evenodd" fill-opacity="1" /><path clip-path="url(#clip180)" d="M138.33 73.775 Q134.719 73.775 132.89 77.3398 Q131.084 80.8814 131.084 88.011 Q131.084 95.1174 132.89 98.6822 Q134.719 102.224 138.33 102.224 Q141.964 102.224 143.769 98.6822 Q145.598 95.1174 145.598 88.011 Q145.598 80.8814 143.769 77.3398 Q141.964 73.775 138.33 73.775 M138.33 70.0713 Q144.14 70.0713 147.195 74.6777 Q150.274 79.261 150.274 88.011 Q150.274 96.7378 147.195 101.344 Q144.14 105.928 138.33 105.928 Q132.519 105.928 129.441 101.344 Q126.385 96.7378 126.385 88.011 Q126.385 79.261 129.441 74.6777 Q132.519 70.0713 138.33 70.0713 Z" fill="#000000" fill-rule="evenodd" fill-opacity="1" /><polyline clip-path="url(#clip182)" style="stroke:#009af9; stroke-linecap:butt; stroke-linejoin:round; stroke-width:12; stroke-opacity:1; fill:none" points="
  247.59,1445.72 252.712,1445.72 257.834,1445.72 262.957,1445.72 268.079,1445.72 273.202,1445.72 278.324,1445.72 283.447,1445.72 288.569,1445.72 293.691,1445.72 
  298.814,1445.72 303.936,1445.72 309.059,1445.72 314.181,1445.72 319.304,1445.72 324.426,1445.72 329.548,1445.72 334.671,1423.09 339.793,1395.93 344.916,1368.78 
  350.038,1341.62 355.161,1314.47 360.283,1287.31 365.405,1260.16 370.528,1233 375.65,1205.85 380.773,1178.69 385.895,1151.54 391.018,1124.38 396.14,1097.23 
  401.263,1070.07 406.385,1042.92 411.507,1015.76 416.63,988.61 421.752,961.455 426.875,934.301 431.997,907.146 437.12,879.991 442.242,852.836 447.364,825.681 
  452.487,798.527 457.609,771.372 462.732,744.217 467.854,717.062 472.977,689.907 478.099,662.753 483.221,635.598 488.344,608.443 493.466,581.288 498.589,554.133 
  503.711,526.979 508.834,499.824 513.956,472.669 519.078,445.514 524.201,418.36 529.323,391.205 534.446,364.05 539.568,336.895 544.691,309.74 549.813,282.586 
  554.936,255.431 560.058,228.276 565.18,201.121 570.303,173.966 575.425,146.812 580.548,119.657 585.67,92.5021 590.793,110.605 595.915,137.76 601.037,164.915 
  606.16,192.07 611.282,219.224 616.405,246.379 621.527,273.534 626.65,300.689 631.772,327.844 636.894,354.998 642.017,382.153 647.139,409.308 652.262,436.463 
  657.384,463.618 662.507,490.772 667.629,517.927 672.751,545.082 677.874,572.237 682.996,599.391 688.119,626.546 693.241,653.701 698.364,680.856 703.486,708.011 
  708.609,735.165 713.731,762.32 718.853,789.475 723.976,816.63 729.098,843.785 734.221,870.939 739.343,898.094 744.466,925.249 749.588,952.404 754.71,979.558 
  759.833,1006.71 764.955,1033.87 770.078,1061.02 775.2,1088.18 780.323,1115.33 785.445,1142.49 790.567,1169.64 795.69,1196.8 800.812,1223.95 805.935,1251.11 
  811.057,1278.26 816.18,1305.42 821.302,1332.57 826.424,1359.73 831.547,1386.88 836.669,1414.04 841.792,1441.19 846.914,1445.72 852.037,1445.72 857.159,1445.72 
  862.282,1445.72 867.404,1445.72 872.526,1445.72 877.649,1445.72 882.771,1445.72 887.894,1445.72 893.016,1445.72 898.139,1445.72 903.261,1445.72 908.383,1445.72 
  913.506,1445.72 918.628,1445.72 923.751,1445.72 928.873,1445.72 933.996,1445.72 939.118,1445.72 944.24,1445.72 949.363,1445.72 954.485,1445.72 959.608,1445.72 
  964.73,1445.72 969.853,1445.72 974.975,1445.72 980.097,1445.72 985.22,1445.72 990.342,1445.72 995.465,1445.72 1000.59,1445.72 1005.71,1445.72 1010.83,1445.72 
  1015.95,1445.72 1021.08,1445.72 1026.2,1445.72 1031.32,1445.72 1036.44,1445.72 1041.57,1445.72 1046.69,1445.72 1051.81,1445.72 1056.93,1445.72 1062.06,1445.72 
  1067.18,87.9763 1072.3,87.9763 1077.42,87.9763 1082.55,87.9763 1087.67,87.9763 1092.79,87.9763 1097.91,87.9763 1103.04,87.9763 1108.16,87.9763 1113.28,87.9763 
  1118.4,87.9763 1123.53,87.9763 1128.65,87.9763 1133.77,87.9763 1138.89,87.9763 1144.02,87.9763 1149.14,87.9763 1154.26,87.9763 1159.38,87.9763 1164.51,87.9763 
  1169.63,87.9763 1174.75,87.9763 1179.87,87.9763 1184.99,87.9763 1190.12,87.9763 1195.24,87.9763 1200.36,87.9763 1205.48,87.9763 1210.61,87.9763 1215.73,87.9763 
  1220.85,87.9763 1225.97,87.9763 1231.1,87.9763 1236.22,87.9763 1241.34,87.9763 1246.46,87.9763 1251.59,87.9763 1256.71,87.9763 1261.83,87.9763 1266.95,87.9763 
  1272.08,87.9763 1277.2,87.9763 1282.32,87.9763 1287.44,87.9763 1292.57,87.9763 1297.69,87.9763 1302.81,87.9763 1307.93,87.9763 1313.06,87.9763 1318.18,87.9763 
  1323.3,87.9763 1328.42,87.9763 1333.55,87.9763 1338.67,87.9763 1343.79,87.9763 1348.91,87.9763 1354.04,87.9763 1359.16,87.9763 1364.28,87.9763 1369.4,87.9763 
  1374.52,87.9763 1379.65,87.9763 1384.77,87.9763 1389.89,87.9763 1395.01,87.9763 1400.14,87.9763 1405.26,87.9763 1410.38,87.9763 1415.5,87.9763 1420.63,87.9763 
  1425.75,87.9763 1430.87,87.9763 1435.99,87.9763 1441.12,87.9763 1446.24,87.9763 1451.36,87.9763 1456.48,87.9763 1461.61,87.9763 1466.73,87.9763 1471.85,87.9763 
  1476.97,1445.72 1482.1,1445.72 1487.22,1445.72 1492.34,1445.72 1497.46,1445.72 1502.59,1445.72 1507.71,1445.72 1512.83,1445.72 1517.95,1445.72 1523.08,1445.72 
  1528.2,1445.72 1533.32,1445.72 1538.44,1445.72 1543.57,1445.72 1548.69,1445.72 1553.81,1445.72 1558.93,1445.72 1564.05,1445.72 1569.18,1445.72 1574.3,1445.72 
  1579.42,1445.72 1584.54,1445.72 1589.67,1445.72 1594.79,1445.72 1599.91,1445.72 1605.03,1445.72 1610.16,1445.72 1615.28,1445.72 1620.4,1445.72 1625.52,1445.72 
  1630.65,1445.72 1635.77,1445.72 1640.89,1445.72 1646.01,1445.72 1651.14,1445.72 1656.26,1445.72 1661.38,1445.72 1666.5,1445.72 1671.63,1445.72 1676.75,1445.72 
  1681.87,1445.72 1686.99,1445.72 1692.12,1445.72 1697.24,1445.68 1702.36,1443.89 1707.48,1439.43 1712.61,1432.32 1717.73,1422.58 1722.85,1410.26 1727.97,1395.39 
  1733.1,1378.05 1738.22,1358.29 1743.34,1336.19 1748.46,1311.85 1753.58,1285.36 1758.71,1256.83 1763.83,1226.36 1768.95,1194.07 1774.07,1160.1 1779.2,1124.58 
  1784.32,1087.65 1789.44,1049.45 1794.56,1010.13 1799.69,969.856 1804.81,928.779 1809.93,887.063 1815.05,844.873 1820.18,802.375 1825.3,759.737 1830.42,717.127 
  1835.54,674.713 1840.67,632.662 1845.79,591.142 1850.91,550.314 1856.03,510.341 1861.16,471.381 1866.28,433.586 1871.4,397.107 1876.52,362.087 1881.65,328.664 
  1886.77,296.971 1891.89,267.132 1897.01,239.265 1902.14,213.48 1907.26,189.88 1912.38,168.556 1917.5,149.593 1922.63,133.067 1927.75,119.041 1932.87,107.572 
  1937.99,98.7054 1943.11,92.4753 1948.24,88.9066 1953.36,88.0135 1958.48,89.7994 1963.6,94.2573 1968.73,101.37 1973.85,111.108 1978.97,123.435 1984.09,138.3 
  1989.22,155.647 1994.34,175.405 1999.46,197.498 2004.58,221.838 2009.71,248.328 2014.83,276.865 2019.95,307.335 2025.07,339.619 2030.2,373.59 2035.32,409.112 
  2040.44,446.046 2045.56,484.246 2050.69,523.561 2055.81,563.836 2060.93,604.913 2066.05,646.629 2071.18,688.819 2076.3,731.317 2081.42,773.955 2086.54,816.565 
  2091.67,858.979 2096.79,901.03 2101.91,942.55 2107.03,983.378 2112.16,1023.35 2117.28,1062.31 2122.4,1100.11 2127.52,1136.58 2132.64,1171.6 2137.77,1205.03 
  2142.89,1236.72 2148.01,1266.56 2153.13,1294.43 2158.26,1320.21 2163.38,1343.81 2168.5,1365.14 2173.62,1384.1 2178.75,1400.63 2183.87,1414.65 2188.99,1426.12 
  2194.11,1434.99 2199.24,1441.22 2204.36,1444.79 2209.48,1445.72 2214.6,1445.72 2219.73,1445.72 2224.85,1445.72 2229.97,1445.72 2235.09,1445.72 2240.22,1445.72 
  2245.34,1445.72 2250.46,1445.72 2255.58,1445.72 2260.71,1445.72 2265.83,1445.72 2270.95,1445.72 2276.07,1445.72 2281.2,1445.72 2286.32,1445.72 2291.44,1445.72 
  
  "/>
<polyline clip-path="url(#clip182)" style="stroke:#e26f46; stroke-linecap:butt; stroke-linejoin:round; stroke-width:12; stroke-opacity:1; fill:none" points="
  247.59,1445.72 252.712,1445.72 257.834,1445.72 262.957,1445.72 268.079,1445.72 273.202,1445.72 278.324,1445.72 283.447,1445.72 288.569,1445.72 293.691,1445.72 
  298.814,1445.72 303.936,1445.72 309.059,1445.72 314.181,1445.72 319.304,1445.72 324.426,1445.72 329.548,1445.72 334.671,1445.55 339.793,1444.6 344.916,1441.62 
  350.038,1435.09 355.161,1423.92 360.283,1407.96 365.405,1387.89 370.528,1364.83 375.65,1339.83 380.773,1313.72 385.895,1287.02 391.018,1260.06 396.14,1232.97 
  401.263,1205.84 406.385,1178.69 411.507,1151.54 416.63,1124.38 421.752,1097.23 426.875,1070.07 431.997,1042.92 437.12,1015.76 442.242,988.61 447.364,961.455 
  452.487,934.301 457.609,907.146 462.732,879.991 467.854,852.836 472.977,825.681 478.099,798.527 483.221,771.372 488.344,744.217 493.466,717.062 498.589,689.907 
  503.711,662.753 508.834,635.598 513.956,608.443 519.078,581.288 524.201,554.133 529.323,526.979 534.446,499.824 539.568,472.669 544.691,445.514 549.813,418.36 
  554.936,391.205 560.058,364.05 565.18,336.895 570.303,309.74 575.425,282.586 580.548,255.431 585.67,228.276 590.793,201.457 595.915,176.196 601.037,155.005 
  606.16,140.903 611.282,136.097 616.405,140.866 621.527,153.84 626.65,172.801 631.772,195.645 636.894,220.718 642.017,246.958 647.139,273.739 652.262,300.756 
  657.384,327.863 662.507,355.004 667.629,382.154 672.751,409.308 677.874,436.463 682.996,463.618 688.119,490.772 693.241,517.927 698.364,545.082 703.486,572.237 
  708.609,599.391 713.731,626.546 718.853,653.701 723.976,680.856 729.098,708.011 734.221,735.165 739.343,762.32 744.466,789.475 749.588,816.63 754.71,843.785 
  759.833,870.939 764.955,898.094 770.078,925.249 775.2,952.404 780.323,979.558 785.445,1006.71 790.567,1033.87 795.69,1061.02 800.812,1088.18 805.935,1115.33 
  811.057,1142.49 816.18,1169.64 821.302,1196.8 826.424,1223.95 831.547,1251.11 836.669,1278.26 841.792,1305.42 846.914,1332.4 852.037,1358.61 857.159,1382.78 
  862.282,1403.41 867.404,1419.39 872.526,1430.59 877.649,1437.68 882.771,1441.77 887.894,1443.93 893.016,1444.97 898.139,1445.43 903.261,1445.61 908.383,1445.68 
  913.506,1445.71 918.628,1445.71 923.751,1445.72 928.873,1445.72 933.996,1445.72 939.118,1445.72 944.24,1445.72 949.363,1445.72 954.485,1445.72 959.608,1445.72 
  964.73,1445.72 969.853,1445.72 974.975,1445.72 980.097,1445.72 985.22,1445.72 990.342,1445.72 995.465,1445.72 1000.59,1445.72 1005.71,1445.72 1010.83,1445.72 
  1015.95,1445.72 1021.08,1445.72 1026.2,1445.72 1031.32,1445.72 1036.44,1445.72 1041.57,1445.72 1046.69,1445.72 1051.81,1445.72 1056.93,1445.72 1062.06,1445.72 
  1067.18,1435.65 1072.3,1390.9 1077.42,1277.78 1082.55,1087.73 1087.67,846.849 1092.79,607.753 1097.91,409.459 1103.04,269.501 1108.16,180.975 1113.28,131.826 
  1118.4,106.652 1123.53,95.4663 1128.65,90.6015 1133.77,88.8827 1138.89,88.2211 1144.02,88.0574 1149.14,87.9884 1154.26,87.9816 1159.38,87.9764 1164.51,87.9764 
  1169.63,87.9763 1174.75,87.9763 1179.87,87.9763 1184.99,87.9763 1190.12,87.9763 1195.24,87.9763 1200.36,87.9763 1205.48,87.9763 1210.61,87.9763 1215.73,87.9763 
  1220.85,87.9763 1225.97,87.9763 1231.1,87.9763 1236.22,87.9763 1241.34,87.9763 1246.46,87.9763 1251.59,87.9763 1256.71,87.9763 1261.83,87.9763 1266.95,87.9763 
  1272.08,87.9763 1277.2,87.9763 1282.32,87.9763 1287.44,87.9763 1292.57,87.9763 1297.69,87.9763 1302.81,87.9763 1307.93,87.9763 1313.06,87.9763 1318.18,87.9763 
  1323.3,87.9763 1328.42,87.9763 1333.55,87.9763 1338.67,87.9763 1343.79,87.9763 1348.91,87.9763 1354.04,87.9763 1359.16,87.9763 1364.28,87.9763 1369.4,87.9763 
  1374.52,87.9763 1379.65,87.9763 1384.77,87.9763 1389.89,87.9763 1395.01,87.9763 1400.14,87.9763 1405.26,87.9763 1410.38,87.9763 1415.5,87.9763 1420.63,87.9763 
  1425.75,87.9763 1430.87,87.9763 1435.99,87.9763 1441.12,87.9763 1446.24,87.9763 1451.36,87.9763 1456.48,87.9763 1461.61,87.9763 1466.73,87.9763 1471.85,87.9763 
  1476.97,98.045 1482.1,142.795 1487.22,255.912 1492.34,445.96 1497.46,686.843 1502.59,925.939 1507.71,1124.23 1512.83,1264.19 1517.95,1352.72 1523.08,1401.87 
  1528.2,1427.04 1533.32,1438.23 1538.44,1443.09 1543.57,1444.81 1548.69,1445.47 1553.81,1445.63 1558.93,1445.7 1564.05,1445.71 1569.18,1445.72 1574.3,1445.72 
  1579.42,1445.72 1584.54,1445.72 1589.67,1445.72 1594.79,1445.72 1599.91,1445.72 1605.03,1445.72 1610.16,1445.72 1615.28,1445.72 1620.4,1445.72 1625.52,1445.72 
  1630.65,1445.72 1635.77,1445.72 1640.89,1445.72 1646.01,1445.72 1651.14,1445.72 1656.26,1445.72 1661.38,1445.72 1666.5,1445.72 1671.63,1445.72 1676.75,1445.72 
  1681.87,1445.72 1686.99,1445.72 1692.12,1445.72 1697.24,1445.72 1702.36,1445.7 1707.48,1445.61 1712.61,1445.25 1717.73,1444.32 1722.85,1442.37 1727.97,1438.93 
  1733.1,1433.61 1738.22,1426.11 1743.34,1416.25 1748.46,1403.95 1753.58,1389.19 1758.71,1371.99 1763.83,1352.41 1768.95,1330.53 1774.07,1306.42 1779.2,1280.18 
  1784.32,1251.92 1789.44,1221.74 1794.56,1189.77 1799.69,1156.13 1804.81,1120.95 1809.93,1084.37 1815.05,1046.55 1820.18,1007.61 1825.3,967.73 1830.42,927.054 
  1835.54,885.746 1840.67,843.969 1845.79,801.888 1850.91,759.668 1856.03,717.476 1861.16,675.48 1866.28,633.844 1871.4,592.732 1876.52,552.308 1881.65,512.731 
  1886.77,474.157 1891.89,436.737 1897.01,400.621 1902.14,365.949 1907.26,332.86 1912.38,301.484 1917.5,271.944 1922.63,244.357 1927.75,218.833 1932.87,195.471 
  1937.99,174.364 1943.11,155.595 1948.24,139.239 1953.36,125.36 1958.48,114.012 1963.6,105.241 1968.73,99.0802 1973.85,95.5553 1978.97,94.6796 1984.09,96.4567 
  1989.22,100.88 1994.34,107.931 1999.46,117.582 2004.58,129.796 2009.71,144.524 2014.83,161.708 2019.95,181.28 2025.07,203.163 2030.2,227.271 2035.32,253.508 
  2040.44,281.772 2045.56,311.949 2050.69,343.922 2055.81,377.564 2060.93,412.742 2066.05,449.318 2071.18,487.146 2076.3,526.079 2081.42,565.962 2086.54,606.638 
  2091.67,647.946 2096.79,689.723 2101.91,731.804 2107.03,774.024 2112.16,816.216 2117.28,858.212 2122.4,899.848 2127.52,940.96 2132.64,981.384 2137.77,1020.96 
  2142.89,1059.54 2148.01,1096.95 2153.13,1133.07 2158.26,1167.74 2163.38,1200.83 2168.5,1232.21 2173.62,1261.75 2178.75,1289.33 2183.87,1314.86 2188.99,1338.22 
  2194.11,1359.33 2199.24,1378.1 2204.36,1394.45 2209.48,1408.33 2214.6,1419.69 2219.73,1428.56 2224.85,1435.08 2229.97,1439.53 2235.09,1442.36 2240.22,1444.02 
  2245.34,1444.92 2250.46,1445.37 2255.58,1445.57 2260.71,1445.66 2265.83,1445.7 2270.95,1445.71 2276.07,1445.71 2281.2,1445.72 2286.32,1445.72 2291.44,1445.72 
  
  "/>
<polyline clip-path="url(#clip182)" style="stroke:#3da44d; stroke-linecap:butt; stroke-linejoin:round; stroke-width:12; stroke-opacity:1; fill:none" points="
  247.59,1445.63 252.712,1445.68 257.834,1445.7 262.957,1445.71 268.079,1445.71 273.202,1445.71 278.324,1445.72 283.447,1445.72 288.569,1445.72 293.691,1445.72 
  298.814,1445.72 303.936,1445.72 309.059,1445.72 314.181,1445.72 319.304,1445.72 324.426,1445.72 329.548,1445.72 334.671,1445.71 339.793,1445.7 344.916,1445.63 
  350.038,1445.39 355.161,1444.68 360.283,1443.03 365.405,1439.79 370.528,1434.23 375.65,1425.7 380.773,1413.82 385.895,1398.55 391.018,1380.13 396.14,1359.07 
  401.263,1335.92 406.385,1311.27 411.507,1285.6 416.63,1259.28 421.752,1232.58 426.875,1205.65 431.997,1178.6 437.12,1151.5 442.242,1124.37 447.364,1097.22 
  452.487,1070.07 457.609,1042.92 462.732,1015.76 467.854,988.61 472.977,961.455 478.099,934.301 483.221,907.146 488.344,879.991 493.466,852.836 498.589,825.681 
  503.711,798.527 508.834,771.372 513.956,744.217 519.078,717.062 524.201,689.907 529.323,662.753 534.446,635.598 539.568,608.443 544.691,581.288 549.813,554.133 
  554.936,526.979 560.058,499.824 565.18,472.669 570.303,445.514 575.425,418.36 580.548,391.205 585.67,364.05 590.793,336.898 595.915,309.768 601.037,282.748 
  606.16,256.091 611.282,230.354 616.405,206.49 621.527,185.814 626.65,169.789 631.772,159.688 636.894,156.284 642.017,159.681 647.139,169.355 652.262,184.339 
  657.384,203.471 662.507,225.614 667.629,249.799 672.751,275.282 677.874,301.543 682.996,328.242 688.119,355.176 693.241,382.229 698.364,409.339 703.486,436.475 
  708.609,463.622 713.731,490.774 718.853,517.928 723.976,545.082 729.098,572.237 734.221,599.391 739.343,626.546 744.466,653.701 749.588,680.856 754.71,708.011 
  759.833,735.165 764.955,762.32 770.078,789.475 775.2,816.63 780.323,843.785 785.445,870.939 790.567,898.094 795.69,925.249 800.812,952.404 805.935,979.558 
  811.057,1006.71 816.18,1033.87 821.302,1061.02 826.424,1088.18 831.547,1115.33 836.669,1142.49 841.792,1169.64 846.914,1196.8 852.037,1223.94 857.159,1251.03 
  862.282,1277.93 867.404,1304.38 872.526,1329.89 877.649,1353.8 882.771,1375.39 887.894,1394.02 893.016,1409.3 898.139,1421.18 903.261,1429.92 908.383,1436 
  913.506,1440.02 918.628,1442.52 923.751,1444.01 928.873,1444.84 933.996,1445.29 939.118,1445.52 944.24,1445.63 949.363,1445.68 954.485,1445.7 959.608,1445.71 
  964.73,1445.71 969.853,1445.71 974.975,1445.72 980.097,1445.72 985.22,1445.72 990.342,1445.72 995.465,1445.72 1000.59,1445.72 1005.71,1445.72 1010.83,1445.72 
  1015.95,1445.72 1021.08,1445.72 1026.2,1445.72 1031.32,1445.72 1036.44,1445.72 1041.57,1445.72 1046.69,1445.72 1051.81,1445.72 1056.93,1445.72 1062.06,1445.72 
  1067.18,1445.64 1072.3,1444.98 1077.42,1441.82 1082.55,1431.55 1087.67,1406.03 1092.79,1354.93 1097.91,1269.49 1103.04,1147.07 1108.16,993.821 1113.28,823.586 
  1118.4,653.576 1123.53,499.279 1128.65,370.851 1133.77,272.094 1138.89,201.502 1144.02,154.365 1149.14,124.838 1154.26,107.432 1159.38,97.7446 1164.51,92.6466 
  1169.63,90.1031 1174.75,88.8996 1179.87,88.3582 1184.99,88.1269 1190.12,88.0328 1195.24,87.9965 1200.36,87.9832 1205.48,87.9785 1210.61,87.977 1215.73,87.9765 
  1220.85,87.9763 1225.97,87.9763 1231.1,87.9763 1236.22,87.9763 1241.34,87.9763 1246.46,87.9763 1251.59,87.9763 1256.71,87.9763 1261.83,87.9763 1266.95,87.9763 
  1272.08,87.9763 1277.2,87.9763 1282.32,87.9763 1287.44,87.9763 1292.57,87.9763 1297.69,87.9763 1302.81,87.9763 1307.93,87.9763 1313.06,87.9763 1318.18,87.9763 
  1323.3,87.9763 1328.42,87.9763 1333.55,87.9763 1338.67,87.9763 1343.79,87.9763 1348.91,87.9763 1354.04,87.9763 1359.16,87.9763 1364.28,87.9763 1369.4,87.9763 
  1374.52,87.9763 1379.65,87.9763 1384.77,87.9763 1389.89,87.9763 1395.01,87.9763 1400.14,87.9763 1405.26,87.9763 1410.38,87.9763 1415.5,87.9763 1420.63,87.9763 
  1425.75,87.9763 1430.87,87.9763 1435.99,87.9763 1441.12,87.9763 1446.24,87.9763 1451.36,87.9763 1456.48,87.9763 1461.61,87.9763 1466.73,87.9763 1471.85,87.9763 
  1476.97,88.0509 1482.1,88.7147 1487.22,91.8673 1492.34,102.142 1497.46,127.667 1502.59,178.758 1507.71,264.199 1512.83,386.62 1517.95,539.871 1523.08,710.106 
  1528.2,880.116 1533.32,1034.41 1538.44,1162.84 1543.57,1261.6 1548.69,1332.19 1553.81,1379.33 1558.93,1408.85 1564.05,1426.26 1569.18,1435.95 1574.3,1441.05 
  1579.42,1443.59 1584.54,1444.79 1589.67,1445.33 1594.79,1445.57 1599.91,1445.66 1605.03,1445.7 1610.16,1445.71 1615.28,1445.71 1620.4,1445.72 1625.52,1445.72 
  1630.65,1445.72 1635.77,1445.72 1640.89,1445.72 1646.01,1445.72 1651.14,1445.72 1656.26,1445.72 1661.38,1445.72 1666.5,1445.72 1671.63,1445.72 1676.75,1445.72 
  1681.87,1445.72 1686.99,1445.72 1692.12,1445.72 1697.24,1445.72 1702.36,1445.72 1707.48,1445.71 1712.61,1445.71 1717.73,1445.68 1722.85,1445.59 1727.97,1445.35 
  1733.1,1444.82 1738.22,1443.79 1743.34,1441.97 1748.46,1439.05 1753.58,1434.71 1758.71,1428.65 1763.83,1420.61 1768.95,1410.43 1774.07,1397.98 1779.2,1383.19 
  1784.32,1366.07 1789.44,1346.64 1794.56,1324.94 1799.69,1301.05 1804.81,1275.06 1809.93,1247.06 1815.05,1217.18 1820.18,1185.51 1825.3,1152.19 1830.42,1117.36 
  1835.54,1081.14 1840.67,1043.67 1845.79,1005.12 1850.91,965.626 1856.03,925.348 1861.16,884.444 1866.28,843.075 1871.4,801.406 1876.52,759.601 1881.65,717.824 
  1886.77,676.24 1891.89,635.015 1897.01,594.309 1902.14,554.284 1907.26,515.098 1912.38,476.906 1917.5,439.858 1922.63,404.101 1927.75,369.775 1932.87,337.016 
  1937.99,305.953 1943.11,276.71 1948.24,249.401 1953.36,224.133 1958.48,201.008 1963.6,180.116 1968.73,161.539 1973.85,145.352 1978.97,131.617 1984.09,120.388 
  1989.22,111.712 1994.34,105.62 1999.46,102.139 2004.58,101.28 2009.71,103.049 2014.83,107.437 2019.95,114.427 2025.07,123.992 2030.2,136.094 2035.32,150.686 
  2040.44,167.709 2045.56,187.097 2050.69,208.773 2055.81,232.651 2060.93,258.637 2066.05,286.629 2071.18,316.516 2076.3,348.181 2081.42,381.498 2086.54,416.335 
  2091.67,452.556 2096.79,490.018 2101.91,528.571 2107.03,568.066 2112.16,608.344 2117.28,649.248 2122.4,690.617 2127.52,732.286 2132.64,774.091 2137.77,815.868 
  2142.89,857.452 2148.01,898.677 2153.13,939.383 2158.26,979.408 2163.38,1018.59 2168.5,1056.79 2173.62,1093.83 2178.75,1129.59 2183.87,1163.92 2188.99,1196.68 
  2194.11,1227.74 2199.24,1256.98 2204.36,1284.29 2209.48,1309.56 2214.6,1332.68 2219.73,1353.58 2224.85,1372.16 2229.97,1388.38 2235.09,1402.2 2240.22,1413.67 
  2245.34,1422.87 2250.46,1430 2255.58,1435.3 2260.71,1439.07 2265.83,1441.65 2270.95,1443.33 2276.07,1444.37 2281.2,1444.99 2286.32,1445.34 2291.44,1445.53 
  
  "/>
<polyline clip-path="url(#clip182)" style="stroke:#c271d2; stroke-linecap:butt; stroke-linejoin:round; stroke-width:12; stroke-opacity:1; fill:none" points="
  247.59,1441.42 252.712,1443.01 257.834,1444.06 262.957,1444.73 268.079,1445.15 273.202,1445.4 278.324,1445.54 283.447,1445.63 288.569,1445.67 293.691,1445.69 
  298.814,1445.7 303.936,1445.71 309.059,1445.71 314.181,1445.71 319.304,1445.72 324.426,1445.72 329.548,1445.72 334.671,1445.72 339.793,1445.72 344.916,1445.71 
  350.038,1445.71 355.161,1445.69 360.283,1445.62 365.405,1445.43 370.528,1444.99 375.65,1444.06 380.773,1442.32 385.895,1439.32 391.018,1434.61 396.14,1427.72 
  401.263,1418.29 406.385,1406.1 411.507,1391.14 416.63,1373.53 421.752,1353.58 426.875,1331.64 431.997,1308.13 437.12,1283.42 442.242,1257.85 447.364,1231.67 
  452.487,1205.11 457.609,1178.3 462.732,1151.33 467.854,1124.28 472.977,1097.18 478.099,1070.05 483.221,1042.91 488.344,1015.76 493.466,988.608 498.589,961.454 
  503.711,934.3 508.834,907.146 513.956,879.991 519.078,852.836 524.201,825.681 529.323,798.527 534.446,771.372 539.568,744.217 544.691,717.062 549.813,689.907 
  554.936,662.753 560.058,635.598 565.18,608.443 570.303,581.288 575.425,554.133 580.548,526.979 585.67,499.824 590.793,472.669 595.915,445.515 601.037,418.362 
  606.16,391.218 611.282,364.105 616.405,337.087 621.527,310.305 626.65,284.035 631.772,258.735 636.894,235.075 642.017,213.905 647.139,196.176 652.262,182.802 
  657.384,174.51 662.507,171.726 667.629,174.507 672.751,182.56 677.874,195.314 682.996,212.026 688.119,231.897 693.241,254.163 698.364,278.158 703.486,303.347 
  708.609,329.322 713.731,355.794 718.853,382.568 723.976,409.517 729.098,436.565 734.221,463.666 739.343,490.794 744.466,517.937 749.588,545.086 754.71,572.238 
  759.833,599.392 764.955,626.547 770.078,653.701 775.2,680.856 780.323,708.011 785.445,735.165 790.567,762.32 795.69,789.475 800.812,816.63 805.935,843.785 
  811.057,870.939 816.18,898.094 821.302,925.249 826.424,952.404 831.547,979.558 836.669,1006.71 841.792,1033.87 846.914,1061.02 852.037,1088.18 857.159,1115.33 
  862.282,1142.48 867.404,1169.61 872.526,1196.7 877.649,1223.67 882.771,1250.38 887.894,1276.61 893.016,1302.02 898.139,1326.18 903.261,1348.62 908.383,1368.89 
  913.506,1386.61 918.628,1401.58 923.751,1413.77 928.873,1423.32 933.996,1430.52 939.118,1435.74 944.24,1439.38 949.363,1441.82 954.485,1443.4 959.608,1444.39 
  964.73,1444.98 969.853,1445.32 974.975,1445.51 980.097,1445.61 985.22,1445.66 990.342,1445.69 995.465,1445.7 1000.59,1445.71 1005.71,1445.71 1010.83,1445.71 
  1015.95,1445.72 1021.08,1445.72 1026.2,1445.72 1031.32,1445.72 1036.44,1445.72 1041.57,1445.72 1046.69,1445.72 1051.81,1445.72 1056.93,1445.72 1062.06,1445.72 
  1067.18,1445.72 1072.3,1445.71 1077.42,1445.66 1082.55,1445.41 1087.67,1444.51 1092.79,1441.87 1097.91,1435.3 1103.04,1421.26 1108.16,1394.95 1113.28,1351.04 
  1118.4,1285.1 1123.53,1195.06 1128.65,1082.44 1133.77,952.469 1138.89,813.261 1144.02,674.134 1149.14,543.788 1154.26,428.84 1159.38,333.078 1164.51,257.473 
  1169.63,200.747 1174.75,160.198 1179.87,132.525 1184.99,114.459 1190.12,103.158 1195.24,96.3732 1200.36,92.46 1205.48,90.2888 1210.61,89.1287 1215.73,88.5315 
  1220.85,88.2349 1225.97,88.0928 1231.1,88.0271 1236.22,87.9977 1241.34,87.985 1246.46,87.9797 1251.59,87.9776 1256.71,87.9768 1261.83,87.9765 1266.95,87.9763 
  1272.08,87.9763 1277.2,87.9763 1282.32,87.9763 1287.44,87.9763 1292.57,87.9763 1297.69,87.9763 1302.81,87.9763 1307.93,87.9763 1313.06,87.9763 1318.18,87.9763 
  1323.3,87.9763 1328.42,87.9763 1333.55,87.9763 1338.67,87.9763 1343.79,87.9763 1348.91,87.9763 1354.04,87.9763 1359.16,87.9763 1364.28,87.9763 1369.4,87.9763 
  1374.52,87.9763 1379.65,87.9763 1384.77,87.9763 1389.89,87.9763 1395.01,87.9763 1400.14,87.9763 1405.26,87.9763 1410.38,87.9763 1415.5,87.9763 1420.63,87.9763 
  1425.75,87.9763 1430.87,87.9763 1435.99,87.9763 1441.12,87.9763 1446.24,87.9763 1451.36,87.9763 1456.48,87.9763 1461.61,87.9763 1466.73,87.9763 1471.85,87.9763 
  1476.97,87.9768 1482.1,87.9842 1487.22,88.0357 1492.34,88.2815 1497.46,89.1783 1502.59,91.8267 1507.71,98.3961 1512.83,112.432 1517.95,138.745 1523.08,182.648 
  1528.2,248.596 1533.32,338.633 1538.44,451.256 1543.57,581.223 1548.69,720.431 1553.81,859.558 1558.93,989.904 1564.05,1104.85 1569.18,1200.61 1574.3,1276.22 
  1579.42,1332.95 1584.54,1373.49 1589.67,1401.17 1594.79,1419.23 1599.91,1430.53 1605.03,1437.32 1610.16,1441.23 1615.28,1443.4 1620.4,1444.56 1625.52,1445.16 
  1630.65,1445.46 1635.77,1445.6 1640.89,1445.66 1646.01,1445.69 1651.14,1445.71 1656.26,1445.71 1661.38,1445.71 1666.5,1445.72 1671.63,1445.72 1676.75,1445.72 
  1681.87,1445.72 1686.99,1445.72 1692.12,1445.72 1697.24,1445.72 1702.36,1445.72 1707.48,1445.72 1712.61,1445.72 1717.73,1445.72 1722.85,1445.71 1727.97,1445.7 
  1733.1,1445.68 1738.22,1445.62 1743.34,1445.47 1748.46,1445.16 1753.58,1444.59 1758.71,1443.58 1763.83,1441.94 1768.95,1439.42 1774.07,1435.77 1779.2,1430.73 
  1784.32,1424.06 1789.44,1415.54 1794.56,1405.01 1799.69,1392.34 1804.81,1377.47 1809.93,1360.36 1815.05,1341.01 1820.18,1319.46 1825.3,1295.76 1830.42,1270 
  1835.54,1242.26 1840.67,1212.66 1845.79,1181.3 1850.91,1148.3 1856.03,1113.8 1861.16,1077.93 1866.28,1040.83 1871.4,1002.65 1876.52,963.545 1881.65,923.659 
  1886.77,883.155 1891.89,842.192 1897.01,800.931 1902.14,759.536 1907.26,718.169 1912.38,676.995 1917.5,636.175 1922.63,595.871 1927.75,556.242 1932.87,517.444 
  1937.99,479.63 1943.11,442.95 1948.24,407.548 1953.36,373.564 1958.48,341.132 1963.6,310.38 1968.73,281.43 1973.85,254.395 1978.97,229.383 1984.09,206.492 
  1989.22,185.812 1994.34,167.425 1999.46,151.405 2004.58,137.812 2009.71,126.703 2014.83,118.12 2019.95,112.097 2025.07,108.658 2030.2,107.816 2035.32,109.576 
  2040.44,113.929 2045.56,120.859 2050.69,130.339 2055.81,142.33 2060.93,156.787 2066.05,173.651 2071.18,192.856 2076.3,214.326 2081.42,237.977 2086.54,263.715 
  2091.67,291.438 2096.79,321.038 2101.91,352.397 2107.03,385.392 2112.16,419.893 2117.28,455.762 2122.4,492.859 2127.52,531.038 2132.64,570.147 2137.77,610.033 
  2142.89,650.537 2148.01,691.5 2153.13,732.761 2158.26,774.156 2163.38,815.523 2168.5,856.697 2173.62,897.517 2178.75,937.821 2183.87,977.45 2188.99,1016.25 
  2194.11,1054.06 2199.24,1090.74 2204.36,1126.14 2209.48,1160.13 2214.6,1192.56 2219.73,1223.31 2224.85,1252.26 2229.97,1279.3 2235.09,1304.31 2240.22,1327.21 
  2245.34,1347.92 2250.46,1366.37 2255.58,1382.53 2260.71,1396.43 2265.83,1408.12 2270.95,1417.71 2276.07,1425.37 2281.2,1431.33 2286.32,1435.82 2291.44,1439.1 
  
  "/>
<polyline clip-path="url(#clip182)" style="stroke:#ac8d18; stroke-linecap:butt; stroke-linejoin:round; stroke-width:12; stroke-opacity:1; fill:none" points="
  247.59,1412.88 252.712,1421.02 257.834,1427.52 262.957,1432.6 268.079,1436.46 273.202,1439.34 278.324,1441.42 283.447,1442.89 288.569,1443.9 293.691,1444.58 
  298.814,1445.02 303.936,1445.3 309.059,1445.47 314.181,1445.58 319.304,1445.64 324.426,1445.67 329.548,1445.69 334.671,1445.7 339.793,1445.71 344.916,1445.71 
  350.038,1445.71 355.161,1445.71 360.283,1445.71 365.405,1445.71 370.528,1445.69 375.65,1445.64 380.773,1445.51 385.895,1445.25 391.018,1444.71 396.14,1443.73 
  401.263,1442.06 406.385,1439.39 411.507,1435.38 416.63,1429.67 421.752,1421.95 426.875,1411.97 431.997,1399.6 437.12,1384.82 442.242,1367.72 447.364,1348.5 
  452.487,1327.41 457.609,1304.77 462.732,1280.86 467.854,1255.98 472.977,1230.37 478.099,1204.23 483.221,1177.72 488.344,1150.97 493.466,1124.06 498.589,1097.05 
  503.711,1069.98 508.834,1042.87 513.956,1015.74 519.078,988.597 524.201,961.449 529.323,934.297 534.446,907.144 539.568,879.99 544.691,852.836 549.813,825.681 
  554.936,798.527 560.058,771.372 565.18,744.217 570.303,717.062 575.425,689.907 580.548,662.753 585.67,635.598 590.793,608.443 595.915,581.288 601.037,554.134 
  606.16,526.979 611.282,499.825 616.405,472.674 621.527,445.532 626.65,418.415 631.772,391.363 636.894,364.455 642.017,337.836 647.139,311.746 652.262,286.549 
  657.384,262.736 662.507,240.921 667.629,221.794 672.751,206.057 677.874,194.346 682.996,187.145 688.119,184.731 693.241,187.143 698.364,194.187 703.486,205.476 
  708.609,220.486 713.731,238.622 718.853,259.278 723.976,281.889 729.098,305.961 734.221,331.084 739.343,356.939 744.466,383.286 749.588,409.952 754.71,436.82 
  759.833,463.81 764.955,490.874 770.078,517.979 775.2,545.108 780.323,572.249 785.445,599.398 790.567,626.549 795.69,653.702 800.812,680.856 805.935,708.011 
  811.057,735.166 816.18,762.32 821.302,789.475 826.424,816.63 831.547,843.785 836.669,870.939 841.792,898.094 846.914,925.249 852.037,952.404 857.159,979.558 
  862.282,1006.71 867.404,1033.87 872.526,1061.02 877.649,1088.17 882.771,1115.3 887.894,1142.41 893.016,1169.44 898.139,1196.33 903.261,1222.95 908.383,1249.12 
  913.506,1274.61 918.628,1299.09 923.751,1322.23 928.873,1343.68 933.996,1363.11 939.118,1380.29 944.24,1395.08 949.363,1407.45 954.485,1417.5 959.608,1425.43 
  964.73,1431.51 969.853,1436.02 974.975,1439.27 980.097,1441.54 985.22,1443.08 990.342,1444.1 995.465,1444.75 1000.59,1445.15 1005.71,1445.39 1010.83,1445.54 
  1015.95,1445.62 1021.08,1445.66 1026.2,1445.69 1031.32,1445.7 1036.44,1445.71 1041.57,1445.71 1046.69,1445.71 1051.81,1445.72 1056.93,1445.72 1062.06,1445.72 
  1067.18,1445.72 1072.3,1445.72 1077.42,1445.71 1082.55,1445.71 1087.67,1445.69 1092.79,1445.61 1097.91,1445.36 1103.04,1444.64 1108.16,1442.85 1113.28,1438.9 
  1118.4,1431.01 1123.53,1416.69 1128.65,1392.8 1133.77,1356.04 1138.89,1303.47 1144.02,1233.34 1149.14,1145.63 1154.26,1042.43 1159.38,927.76 1164.51,807.084 
  1169.63,686.448 1174.75,571.596 1179.87,467.218 1184.99,376.473 1190.12,300.857 1195.24,240.357 1200.36,193.805 1205.48,159.307 1210.61,134.653 1215.73,117.639 
  1220.85,106.291 1225.97,98.9673 1231.1,94.3895 1236.22,91.6161 1241.34,89.9863 1246.46,89.0567 1251.59,88.5417 1256.71,88.2645 1261.83,88.1194 1266.95,88.0455 
  1272.08,88.0089 1277.2,87.9913 1282.32,87.983 1287.44,87.9792 1292.57,87.9775 1297.69,87.9768 1302.81,87.9765 1307.93,87.9764 1313.06,87.9763 1318.18,87.9763 
  1323.3,87.9763 1328.42,87.9763 1333.55,87.9763 1338.67,87.9763 1343.79,87.9763 1348.91,87.9763 1354.04,87.9763 1359.16,87.9763 1364.28,87.9763 1369.4,87.9763 
  1374.52,87.9763 1379.65,87.9763 1384.77,87.9763 1389.89,87.9763 1395.01,87.9763 1400.14,87.9763 1405.26,87.9763 1410.38,87.9763 1415.5,87.9763 1420.63,87.9763 
  1425.75,87.9763 1430.87,87.9763 1435.99,87.9763 1441.12,87.9763 1446.24,87.9763 1451.36,87.9763 1456.48,87.9763 1461.61,87.9763 1466.73,87.9763 1471.85,87.9763 
  1476.97,87.9763 1482.1,87.9764 1487.22,87.977 1492.34,87.9812 1497.46,88.0014 1502.59,88.0797 1507.71,88.3353 1512.83,89.0559 1517.95,90.8424 1523.08,94.7936 
  1528.2,102.678 1533.32,117.005 1538.44,140.888 1543.57,177.656 1548.69,230.222 1553.81,300.356 1558.93,388.062 1564.05,491.266 1569.18,605.932 1574.3,726.608 
  1579.42,847.244 1584.54,962.095 1589.67,1066.47 1594.79,1157.22 1599.91,1232.84 1605.03,1293.34 1610.16,1339.89 1615.28,1374.38 1620.4,1399.04 1625.52,1416.05 
  1630.65,1427.4 1635.77,1434.72 1640.89,1439.3 1646.01,1442.08 1651.14,1443.71 1656.26,1444.64 1661.38,1445.15 1666.5,1445.43 1671.63,1445.57 1676.75,1445.65 
  1681.87,1445.68 1686.99,1445.7 1692.12,1445.71 1697.24,1445.71 1702.36,1445.71 1707.48,1445.72 1712.61,1445.72 1717.73,1445.72 1722.85,1445.72 1727.97,1445.72 
  1733.1,1445.71 1738.22,1445.71 1743.34,1445.71 1748.46,1445.69 1753.58,1445.65 1758.71,1445.56 1763.83,1445.38 1768.95,1445.05 1774.07,1444.47 1779.2,1443.53 
  1784.32,1442.06 1789.44,1439.88 1794.56,1436.77 1799.69,1432.52 1804.81,1426.9 1809.93,1419.71 1815.05,1410.76 1820.18,1399.89 1825.3,1387 1830.42,1372 
  1835.54,1354.86 1840.67,1335.55 1845.79,1314.11 1850.91,1290.58 1856.03,1265.03 1861.16,1237.53 1866.28,1208.2 1871.4,1177.13 1876.52,1144.45 1881.65,1110.28 
  1886.77,1074.76 1891.89,1038.02 1897.01,1000.21 1902.14,961.485 1907.26,921.989 1912.38,881.88 1917.5,841.318 1922.63,800.462 1927.75,759.473 1932.87,718.513 
  1937.99,677.743 1943.11,637.326 1948.24,597.42 1953.36,558.182 1958.48,519.768 1963.6,482.329 1968.73,446.012 1973.85,410.962 1978.97,377.317 1984.09,345.209 
  1989.22,314.764 1994.34,286.104 1999.46,259.341 2004.58,234.581 2009.71,211.922 2014.83,191.453 2019.95,173.254 2025.07,157.399 2030.2,143.948 2035.32,132.956 
  2040.44,124.465 2045.56,118.509 2050.69,115.113 2055.81,114.288 2060.93,116.039 2066.05,120.358 2071.18,127.228 2076.3,136.623 2081.42,148.505 2086.54,162.827 
  2091.67,179.533 2096.79,198.557 2101.91,219.824 2107.03,243.249 2112.16,268.741 2117.28,296.199 2122.4,325.514 2127.52,356.571 2132.64,389.247 2137.77,423.414 
  2142.89,458.935 2148.01,495.672 2153.13,533.479 2158.26,572.207 2163.38,611.703 2168.5,651.812 2173.62,692.374 2178.75,733.23 2183.87,774.219 2188.99,815.179 
  2194.11,855.948 2199.24,896.366 2204.36,936.272 2209.48,975.51 2214.6,1013.92 2219.73,1051.36 2224.85,1087.68 2229.97,1122.73 2235.09,1156.38 2240.22,1188.48 
  2245.34,1218.93 2250.46,1247.59 2255.58,1274.36 2260.71,1299.14 2265.83,1321.84 2270.95,1342.4 2276.07,1360.78 2281.2,1376.96 2286.32,1390.99 2291.44,1402.92 
  
  "/>
</svg>
