<?xml version="1.0" encoding="utf-8"?>
<svg xmlns="http://www.w3.org/2000/svg" xmlns:xlink="http://www.w3.org/1999/xlink" width="600" height="400" viewBox="0 0 2400 1600">
<defs>
  <clipPath id="clip820">
    <rect x="0" y="0" width="2400" height="1600"/>
  </clipPath>
</defs>
<path clip-path="url(#clip820)" d="
M0 1600 L2400 1600 L2400 0 L0 0  Z
  " fill="#ffffff" fill-rule="evenodd" fill-opacity="1"/>
<defs>
  <clipPath id="clip821">
    <rect x="480" y="0" width="1681" height="1600"/>
  </clipPath>
</defs>
<defs>
  <clipPath id="clip822">
    <rect x="246" y="123" width="2107" height="1364"/>
  </clipPath>
</defs>
<path clip-path="url(#clip820)" d="
M246.598 1486.45 L2352.76 1486.45 L2352.76 123.472 L246.598 123.472  Z
  " fill="#ffffff" fill-rule="evenodd" fill-opacity="1"/>
<polyline clip-path="url(#clip822)" style="stroke:#000000; stroke-linecap:butt; stroke-linejoin:round; stroke-width:2; stroke-opacity:0.1; fill:none" points="
  306.206,1486.45 306.206,123.472 
  "/>
<polyline clip-path="url(#clip822)" style="stroke:#000000; stroke-linecap:butt; stroke-linejoin:round; stroke-width:2; stroke-opacity:0.1; fill:none" points="
  802.941,1486.45 802.941,123.472 
  "/>
<polyline clip-path="url(#clip822)" style="stroke:#000000; stroke-linecap:butt; stroke-linejoin:round; stroke-width:2; stroke-opacity:0.1; fill:none" points="
  1299.68,1486.45 1299.68,123.472 
  "/>
<polyline clip-path="url(#clip822)" style="stroke:#000000; stroke-linecap:butt; stroke-linejoin:round; stroke-width:2; stroke-opacity:0.1; fill:none" points="
  1796.41,1486.45 1796.41,123.472 
  "/>
<polyline clip-path="url(#clip822)" style="stroke:#000000; stroke-linecap:butt; stroke-linejoin:round; stroke-width:2; stroke-opacity:0.1; fill:none" points="
  2293.15,1486.45 2293.15,123.472 
  "/>
<polyline clip-path="url(#clip820)" style="stroke:#000000; stroke-linecap:butt; stroke-linejoin:round; stroke-width:4; stroke-opacity:1; fill:none" points="
  246.598,1486.45 2352.76,1486.45 
  "/>
<polyline clip-path="url(#clip820)" style="stroke:#000000; stroke-linecap:butt; stroke-linejoin:round; stroke-width:4; stroke-opacity:1; fill:none" points="
  306.206,1486.45 306.206,1467.55 
  "/>
<polyline clip-path="url(#clip820)" style="stroke:#000000; stroke-linecap:butt; stroke-linejoin:round; stroke-width:4; stroke-opacity:1; fill:none" points="
  802.941,1486.45 802.941,1467.55 
  "/>
<polyline clip-path="url(#clip820)" style="stroke:#000000; stroke-linecap:butt; stroke-linejoin:round; stroke-width:4; stroke-opacity:1; fill:none" points="
  1299.68,1486.45 1299.68,1467.55 
  "/>
<polyline clip-path="url(#clip820)" style="stroke:#000000; stroke-linecap:butt; stroke-linejoin:round; stroke-width:4; stroke-opacity:1; fill:none" points="
  1796.41,1486.45 1796.41,1467.55 
  "/>
<polyline clip-path="url(#clip820)" style="stroke:#000000; stroke-linecap:butt; stroke-linejoin:round; stroke-width:4; stroke-opacity:1; fill:none" points="
  2293.15,1486.45 2293.15,1467.55 
  "/>
<path clip-path="url(#clip820)" d="M252.734 1532.02 L282.41 1532.02 L282.41 1535.95 L252.734 1535.95 L252.734 1532.02 Z" fill="#000000" fill-rule="evenodd" fill-opacity="1" /><path clip-path="url(#clip820)" d="M293.313 1544.91 L300.951 1544.91 L300.951 1518.55 L292.641 1520.21 L292.641 1515.95 L300.905 1514.29 L305.581 1514.29 L305.581 1544.91 L313.22 1544.91 L313.22 1548.85 L293.313 1548.85 L293.313 1544.91 Z" fill="#000000" fill-rule="evenodd" fill-opacity="1" /><path clip-path="url(#clip820)" d="M322.664 1542.97 L327.548 1542.97 L327.548 1548.85 L322.664 1548.85 L322.664 1542.97 Z" fill="#000000" fill-rule="evenodd" fill-opacity="1" /><path clip-path="url(#clip820)" d="M347.734 1517.37 Q344.122 1517.37 342.294 1520.93 Q340.488 1524.47 340.488 1531.6 Q340.488 1538.71 342.294 1542.27 Q344.122 1545.82 347.734 1545.82 Q351.368 1545.82 353.173 1542.27 Q355.002 1538.71 355.002 1531.6 Q355.002 1524.47 353.173 1520.93 Q351.368 1517.37 347.734 1517.37 M347.734 1513.66 Q353.544 1513.66 356.599 1518.27 Q359.678 1522.85 359.678 1531.6 Q359.678 1540.33 356.599 1544.94 Q353.544 1549.52 347.734 1549.52 Q341.923 1549.52 338.845 1544.94 Q335.789 1540.33 335.789 1531.6 Q335.789 1522.85 338.845 1518.27 Q341.923 1513.66 347.734 1513.66 Z" fill="#000000" fill-rule="evenodd" fill-opacity="1" /><path clip-path="url(#clip820)" d="M749.967 1532.02 L779.643 1532.02 L779.643 1535.95 L749.967 1535.95 L749.967 1532.02 Z" fill="#000000" fill-rule="evenodd" fill-opacity="1" /><path clip-path="url(#clip820)" d="M799.735 1517.37 Q796.124 1517.37 794.296 1520.93 Q792.49 1524.47 792.49 1531.6 Q792.49 1538.71 794.296 1542.27 Q796.124 1545.82 799.735 1545.82 Q803.37 1545.82 805.175 1542.27 Q807.004 1538.71 807.004 1531.6 Q807.004 1524.47 805.175 1520.93 Q803.37 1517.37 799.735 1517.37 M799.735 1513.66 Q805.546 1513.66 808.601 1518.27 Q811.68 1522.85 811.68 1531.6 Q811.68 1540.33 808.601 1544.94 Q805.546 1549.52 799.735 1549.52 Q793.925 1549.52 790.847 1544.94 Q787.791 1540.33 787.791 1531.6 Q787.791 1522.85 790.847 1518.27 Q793.925 1513.66 799.735 1513.66 Z" fill="#000000" fill-rule="evenodd" fill-opacity="1" /><path clip-path="url(#clip820)" d="M819.897 1542.97 L824.782 1542.97 L824.782 1548.85 L819.897 1548.85 L819.897 1542.97 Z" fill="#000000" fill-rule="evenodd" fill-opacity="1" /><path clip-path="url(#clip820)" d="M835.013 1514.29 L853.369 1514.29 L853.369 1518.22 L839.295 1518.22 L839.295 1526.7 Q840.314 1526.35 841.332 1526.19 Q842.351 1526 843.369 1526 Q849.156 1526 852.536 1529.17 Q855.916 1532.34 855.916 1537.76 Q855.916 1543.34 852.443 1546.44 Q848.971 1549.52 842.652 1549.52 Q840.476 1549.52 838.207 1549.15 Q835.962 1548.78 833.555 1548.04 L833.555 1543.34 Q835.638 1544.47 837.86 1545.03 Q840.082 1545.58 842.559 1545.58 Q846.564 1545.58 848.902 1543.48 Q851.24 1541.37 851.24 1537.76 Q851.24 1534.15 848.902 1532.04 Q846.564 1529.94 842.559 1529.94 Q840.684 1529.94 838.809 1530.35 Q836.957 1530.77 835.013 1531.65 L835.013 1514.29 Z" fill="#000000" fill-rule="evenodd" fill-opacity="1" /><path clip-path="url(#clip820)" d="M1277.06 1517.37 Q1273.45 1517.37 1271.62 1520.93 Q1269.82 1524.47 1269.82 1531.6 Q1269.82 1538.71 1271.62 1542.27 Q1273.45 1545.82 1277.06 1545.82 Q1280.7 1545.82 1282.5 1542.27 Q1284.33 1538.71 1284.33 1531.6 Q1284.33 1524.47 1282.5 1520.93 Q1280.7 1517.37 1277.06 1517.37 M1277.06 1513.66 Q1282.87 1513.66 1285.93 1518.27 Q1289.01 1522.85 1289.01 1531.6 Q1289.01 1540.33 1285.93 1544.94 Q1282.87 1549.52 1277.06 1549.52 Q1271.25 1549.52 1268.17 1544.94 Q1265.12 1540.33 1265.12 1531.6 Q1265.12 1522.85 1268.17 1518.27 Q1271.25 1513.66 1277.06 1513.66 Z" fill="#000000" fill-rule="evenodd" fill-opacity="1" /><path clip-path="url(#clip820)" d="M1297.22 1542.97 L1302.11 1542.97 L1302.11 1548.85 L1297.22 1548.85 L1297.22 1542.97 Z" fill="#000000" fill-rule="evenodd" fill-opacity="1" /><path clip-path="url(#clip820)" d="M1322.29 1517.37 Q1318.68 1517.37 1316.85 1520.93 Q1315.05 1524.47 1315.05 1531.6 Q1315.05 1538.71 1316.85 1542.27 Q1318.68 1545.82 1322.29 1545.82 Q1325.93 1545.82 1327.73 1542.27 Q1329.56 1538.71 1329.56 1531.6 Q1329.56 1524.47 1327.73 1520.93 Q1325.93 1517.37 1322.29 1517.37 M1322.29 1513.66 Q1328.1 1513.66 1331.16 1518.27 Q1334.24 1522.85 1334.24 1531.6 Q1334.24 1540.33 1331.16 1544.94 Q1328.1 1549.52 1322.29 1549.52 Q1316.48 1549.52 1313.4 1544.94 Q1310.35 1540.33 1310.35 1531.6 Q1310.35 1522.85 1313.4 1518.27 Q1316.48 1513.66 1322.29 1513.66 Z" fill="#000000" fill-rule="evenodd" fill-opacity="1" /><path clip-path="url(#clip820)" d="M1774.29 1517.37 Q1770.68 1517.37 1768.85 1520.93 Q1767.05 1524.47 1767.05 1531.6 Q1767.05 1538.71 1768.85 1542.27 Q1770.68 1545.82 1774.29 1545.82 Q1777.93 1545.82 1779.73 1542.27 Q1781.56 1538.71 1781.56 1531.6 Q1781.56 1524.47 1779.73 1520.93 Q1777.93 1517.37 1774.29 1517.37 M1774.29 1513.66 Q1780.1 1513.66 1783.16 1518.27 Q1786.24 1522.85 1786.24 1531.6 Q1786.24 1540.33 1783.16 1544.94 Q1780.1 1549.52 1774.29 1549.52 Q1768.48 1549.52 1765.41 1544.94 Q1762.35 1540.33 1762.35 1531.6 Q1762.35 1522.85 1765.41 1518.27 Q1768.48 1513.66 1774.29 1513.66 Z" fill="#000000" fill-rule="evenodd" fill-opacity="1" /><path clip-path="url(#clip820)" d="M1794.46 1542.97 L1799.34 1542.97 L1799.34 1548.85 L1794.46 1548.85 L1794.46 1542.97 Z" fill="#000000" fill-rule="evenodd" fill-opacity="1" /><path clip-path="url(#clip820)" d="M1809.57 1514.29 L1827.93 1514.29 L1827.93 1518.22 L1813.85 1518.22 L1813.85 1526.7 Q1814.87 1526.35 1815.89 1526.19 Q1816.91 1526 1817.93 1526 Q1823.72 1526 1827.09 1529.17 Q1830.47 1532.34 1830.47 1537.76 Q1830.47 1543.34 1827 1546.44 Q1823.53 1549.52 1817.21 1549.52 Q1815.03 1549.52 1812.77 1549.15 Q1810.52 1548.78 1808.11 1548.04 L1808.11 1543.34 Q1810.2 1544.47 1812.42 1545.03 Q1814.64 1545.58 1817.12 1545.58 Q1821.12 1545.58 1823.46 1543.48 Q1825.8 1541.37 1825.8 1537.76 Q1825.8 1534.15 1823.46 1532.04 Q1821.12 1529.94 1817.12 1529.94 Q1815.24 1529.94 1813.37 1530.35 Q1811.52 1530.77 1809.57 1531.65 L1809.57 1514.29 Z" fill="#000000" fill-rule="evenodd" fill-opacity="1" /><path clip-path="url(#clip820)" d="M2260.3 1544.91 L2267.94 1544.91 L2267.94 1518.55 L2259.63 1520.21 L2259.63 1515.95 L2267.89 1514.29 L2272.57 1514.29 L2272.57 1544.91 L2280.21 1544.91 L2280.21 1548.85 L2260.3 1548.85 L2260.3 1544.91 Z" fill="#000000" fill-rule="evenodd" fill-opacity="1" /><path clip-path="url(#clip820)" d="M2289.65 1542.97 L2294.54 1542.97 L2294.54 1548.85 L2289.65 1548.85 L2289.65 1542.97 Z" fill="#000000" fill-rule="evenodd" fill-opacity="1" /><path clip-path="url(#clip820)" d="M2314.72 1517.37 Q2311.11 1517.37 2309.28 1520.93 Q2307.48 1524.47 2307.48 1531.6 Q2307.48 1538.71 2309.28 1542.27 Q2311.11 1545.82 2314.72 1545.82 Q2318.36 1545.82 2320.16 1542.27 Q2321.99 1538.71 2321.99 1531.6 Q2321.99 1524.47 2320.16 1520.93 Q2318.36 1517.37 2314.72 1517.37 M2314.72 1513.66 Q2320.53 1513.66 2323.59 1518.27 Q2326.67 1522.85 2326.67 1531.6 Q2326.67 1540.33 2323.59 1544.94 Q2320.53 1549.52 2314.72 1549.52 Q2308.91 1549.52 2305.83 1544.94 Q2302.78 1540.33 2302.78 1531.6 Q2302.78 1522.85 2305.83 1518.27 Q2308.91 1513.66 2314.72 1513.66 Z" fill="#000000" fill-rule="evenodd" fill-opacity="1" /><polyline clip-path="url(#clip822)" style="stroke:#000000; stroke-linecap:butt; stroke-linejoin:round; stroke-width:2; stroke-opacity:0.1; fill:none" points="
  246.598,1447.87 2352.76,1447.87 
  "/>
<polyline clip-path="url(#clip822)" style="stroke:#000000; stroke-linecap:butt; stroke-linejoin:round; stroke-width:2; stroke-opacity:0.1; fill:none" points="
  246.598,1109.93 2352.76,1109.93 
  "/>
<polyline clip-path="url(#clip822)" style="stroke:#000000; stroke-linecap:butt; stroke-linejoin:round; stroke-width:2; stroke-opacity:0.1; fill:none" points="
  246.598,771.994 2352.76,771.994 
  "/>
<polyline clip-path="url(#clip822)" style="stroke:#000000; stroke-linecap:butt; stroke-linejoin:round; stroke-width:2; stroke-opacity:0.1; fill:none" points="
  246.598,434.054 2352.76,434.054 
  "/>
<polyline clip-path="url(#clip820)" style="stroke:#000000; stroke-linecap:butt; stroke-linejoin:round; stroke-width:4; stroke-opacity:1; fill:none" points="
  246.598,1486.45 246.598,123.472 
  "/>
<polyline clip-path="url(#clip820)" style="stroke:#000000; stroke-linecap:butt; stroke-linejoin:round; stroke-width:4; stroke-opacity:1; fill:none" points="
  246.598,1447.87 265.495,1447.87 
  "/>
<polyline clip-path="url(#clip820)" style="stroke:#000000; stroke-linecap:butt; stroke-linejoin:round; stroke-width:4; stroke-opacity:1; fill:none" points="
  246.598,1109.93 265.495,1109.93 
  "/>
<polyline clip-path="url(#clip820)" style="stroke:#000000; stroke-linecap:butt; stroke-linejoin:round; stroke-width:4; stroke-opacity:1; fill:none" points="
  246.598,771.994 265.495,771.994 
  "/>
<polyline clip-path="url(#clip820)" style="stroke:#000000; stroke-linecap:butt; stroke-linejoin:round; stroke-width:4; stroke-opacity:1; fill:none" points="
  246.598,434.054 265.495,434.054 
  "/>
<path clip-path="url(#clip820)" d="M62.9365 1433.67 Q59.3254 1433.67 57.4967 1437.24 Q55.6912 1440.78 55.6912 1447.91 Q55.6912 1455.01 57.4967 1458.58 Q59.3254 1462.12 62.9365 1462.12 Q66.5707 1462.12 68.3763 1458.58 Q70.205 1455.01 70.205 1447.91 Q70.205 1440.78 68.3763 1437.24 Q66.5707 1433.67 62.9365 1433.67 M62.9365 1429.97 Q68.7467 1429.97 71.8022 1434.57 Q74.8809 1439.16 74.8809 1447.91 Q74.8809 1456.63 71.8022 1461.24 Q68.7467 1465.82 62.9365 1465.82 Q57.1264 1465.82 54.0477 1461.24 Q50.9921 1456.63 50.9921 1447.91 Q50.9921 1439.16 54.0477 1434.57 Q57.1264 1429.97 62.9365 1429.97 Z" fill="#000000" fill-rule="evenodd" fill-opacity="1" /><path clip-path="url(#clip820)" d="M83.0984 1459.27 L87.9827 1459.27 L87.9827 1465.15 L83.0984 1465.15 L83.0984 1459.27 Z" fill="#000000" fill-rule="evenodd" fill-opacity="1" /><path clip-path="url(#clip820)" d="M108.168 1433.67 Q104.557 1433.67 102.728 1437.24 Q100.922 1440.78 100.922 1447.91 Q100.922 1455.01 102.728 1458.58 Q104.557 1462.12 108.168 1462.12 Q111.802 1462.12 113.608 1458.58 Q115.436 1455.01 115.436 1447.91 Q115.436 1440.78 113.608 1437.24 Q111.802 1433.67 108.168 1433.67 M108.168 1429.97 Q113.978 1429.97 117.033 1434.57 Q120.112 1439.16 120.112 1447.91 Q120.112 1456.63 117.033 1461.24 Q113.978 1465.82 108.168 1465.82 Q102.358 1465.82 99.2789 1461.24 Q96.2234 1456.63 96.2234 1447.91 Q96.2234 1439.16 99.2789 1434.57 Q102.358 1429.97 108.168 1429.97 Z" fill="#000000" fill-rule="evenodd" fill-opacity="1" /><path clip-path="url(#clip820)" d="M138.33 1433.67 Q134.719 1433.67 132.89 1437.24 Q131.084 1440.78 131.084 1447.91 Q131.084 1455.01 132.89 1458.58 Q134.719 1462.12 138.33 1462.12 Q141.964 1462.12 143.769 1458.58 Q145.598 1455.01 145.598 1447.91 Q145.598 1440.78 143.769 1437.24 Q141.964 1433.67 138.33 1433.67 M138.33 1429.97 Q144.14 1429.97 147.195 1434.57 Q150.274 1439.16 150.274 1447.91 Q150.274 1456.63 147.195 1461.24 Q144.14 1465.82 138.33 1465.82 Q132.519 1465.82 129.441 1461.24 Q126.385 1456.63 126.385 1447.91 Q126.385 1439.16 129.441 1434.57 Q132.519 1429.97 138.33 1429.97 Z" fill="#000000" fill-rule="evenodd" fill-opacity="1" /><path clip-path="url(#clip820)" d="M168.491 1433.67 Q164.88 1433.67 163.052 1437.24 Q161.246 1440.78 161.246 1447.91 Q161.246 1455.01 163.052 1458.58 Q164.88 1462.12 168.491 1462.12 Q172.126 1462.12 173.931 1458.58 Q175.76 1455.01 175.76 1447.91 Q175.76 1440.78 173.931 1437.24 Q172.126 1433.67 168.491 1433.67 M168.491 1429.97 Q174.302 1429.97 177.357 1434.57 Q180.436 1439.16 180.436 1447.91 Q180.436 1456.63 177.357 1461.24 Q174.302 1465.82 168.491 1465.82 Q162.681 1465.82 159.603 1461.24 Q156.547 1456.63 156.547 1447.91 Q156.547 1439.16 159.603 1434.57 Q162.681 1429.97 168.491 1429.97 Z" fill="#000000" fill-rule="evenodd" fill-opacity="1" /><path clip-path="url(#clip820)" d="M198.653 1433.67 Q195.042 1433.67 193.214 1437.24 Q191.408 1440.78 191.408 1447.91 Q191.408 1455.01 193.214 1458.58 Q195.042 1462.12 198.653 1462.12 Q202.288 1462.12 204.093 1458.58 Q205.922 1455.01 205.922 1447.91 Q205.922 1440.78 204.093 1437.24 Q202.288 1433.67 198.653 1433.67 M198.653 1429.97 Q204.464 1429.97 207.519 1434.57 Q210.598 1439.16 210.598 1447.91 Q210.598 1456.63 207.519 1461.24 Q204.464 1465.82 198.653 1465.82 Q192.843 1465.82 189.765 1461.24 Q186.709 1456.63 186.709 1447.91 Q186.709 1439.16 189.765 1434.57 Q192.843 1429.97 198.653 1429.97 Z" fill="#000000" fill-rule="evenodd" fill-opacity="1" /><path clip-path="url(#clip820)" d="M63.9319 1095.73 Q60.3208 1095.73 58.4921 1099.3 Q56.6865 1102.84 56.6865 1109.97 Q56.6865 1117.07 58.4921 1120.64 Q60.3208 1124.18 63.9319 1124.18 Q67.5661 1124.18 69.3717 1120.64 Q71.2004 1117.07 71.2004 1109.97 Q71.2004 1102.84 69.3717 1099.3 Q67.5661 1095.73 63.9319 1095.73 M63.9319 1092.03 Q69.742 1092.03 72.7976 1096.63 Q75.8763 1101.22 75.8763 1109.97 Q75.8763 1118.69 72.7976 1123.3 Q69.742 1127.88 63.9319 1127.88 Q58.1217 1127.88 55.043 1123.3 Q51.9875 1118.69 51.9875 1109.97 Q51.9875 1101.22 55.043 1096.63 Q58.1217 1092.03 63.9319 1092.03 Z" fill="#000000" fill-rule="evenodd" fill-opacity="1" /><path clip-path="url(#clip820)" d="M84.0938 1121.33 L88.978 1121.33 L88.978 1127.21 L84.0938 1127.21 L84.0938 1121.33 Z" fill="#000000" fill-rule="evenodd" fill-opacity="1" /><path clip-path="url(#clip820)" d="M109.163 1095.73 Q105.552 1095.73 103.723 1099.3 Q101.918 1102.84 101.918 1109.97 Q101.918 1117.07 103.723 1120.64 Q105.552 1124.18 109.163 1124.18 Q112.797 1124.18 114.603 1120.64 Q116.432 1117.07 116.432 1109.97 Q116.432 1102.84 114.603 1099.3 Q112.797 1095.73 109.163 1095.73 M109.163 1092.03 Q114.973 1092.03 118.029 1096.63 Q121.107 1101.22 121.107 1109.97 Q121.107 1118.69 118.029 1123.3 Q114.973 1127.88 109.163 1127.88 Q103.353 1127.88 100.274 1123.3 Q97.2187 1118.69 97.2187 1109.97 Q97.2187 1101.22 100.274 1096.63 Q103.353 1092.03 109.163 1092.03 Z" fill="#000000" fill-rule="evenodd" fill-opacity="1" /><path clip-path="url(#clip820)" d="M139.325 1095.73 Q135.714 1095.73 133.885 1099.3 Q132.08 1102.84 132.08 1109.97 Q132.08 1117.07 133.885 1120.64 Q135.714 1124.18 139.325 1124.18 Q142.959 1124.18 144.765 1120.64 Q146.593 1117.07 146.593 1109.97 Q146.593 1102.84 144.765 1099.3 Q142.959 1095.73 139.325 1095.73 M139.325 1092.03 Q145.135 1092.03 148.191 1096.63 Q151.269 1101.22 151.269 1109.97 Q151.269 1118.69 148.191 1123.3 Q145.135 1127.88 139.325 1127.88 Q133.515 1127.88 130.436 1123.3 Q127.381 1118.69 127.381 1109.97 Q127.381 1101.22 130.436 1096.63 Q133.515 1092.03 139.325 1092.03 Z" fill="#000000" fill-rule="evenodd" fill-opacity="1" /><path clip-path="url(#clip820)" d="M169.487 1095.73 Q165.876 1095.73 164.047 1099.3 Q162.242 1102.84 162.242 1109.97 Q162.242 1117.07 164.047 1120.64 Q165.876 1124.18 169.487 1124.18 Q173.121 1124.18 174.927 1120.64 Q176.755 1117.07 176.755 1109.97 Q176.755 1102.84 174.927 1099.3 Q173.121 1095.73 169.487 1095.73 M169.487 1092.03 Q175.297 1092.03 178.353 1096.63 Q181.431 1101.22 181.431 1109.97 Q181.431 1118.69 178.353 1123.3 Q175.297 1127.88 169.487 1127.88 Q163.677 1127.88 160.598 1123.3 Q157.542 1118.69 157.542 1109.97 Q157.542 1101.22 160.598 1096.63 Q163.677 1092.03 169.487 1092.03 Z" fill="#000000" fill-rule="evenodd" fill-opacity="1" /><path clip-path="url(#clip820)" d="M189.695 1092.65 L208.051 1092.65 L208.051 1096.59 L193.977 1096.59 L193.977 1105.06 Q194.996 1104.71 196.014 1104.55 Q197.033 1104.37 198.052 1104.37 Q203.839 1104.37 207.218 1107.54 Q210.598 1110.71 210.598 1116.13 Q210.598 1121.7 207.126 1124.81 Q203.653 1127.88 197.334 1127.88 Q195.158 1127.88 192.89 1127.51 Q190.644 1127.14 188.237 1126.4 L188.237 1121.7 Q190.32 1122.84 192.542 1123.39 Q194.765 1123.95 197.241 1123.95 Q201.246 1123.95 203.584 1121.84 Q205.922 1119.74 205.922 1116.13 Q205.922 1112.51 203.584 1110.41 Q201.246 1108.3 197.241 1108.3 Q195.366 1108.3 193.491 1108.72 Q191.64 1109.13 189.695 1110.01 L189.695 1092.65 Z" fill="#000000" fill-rule="evenodd" fill-opacity="1" /><path clip-path="url(#clip820)" d="M62.9365 757.792 Q59.3254 757.792 57.4967 761.357 Q55.6912 764.899 55.6912 772.028 Q55.6912 779.135 57.4967 782.7 Q59.3254 786.241 62.9365 786.241 Q66.5707 786.241 68.3763 782.7 Q70.205 779.135 70.205 772.028 Q70.205 764.899 68.3763 761.357 Q66.5707 757.792 62.9365 757.792 M62.9365 754.089 Q68.7467 754.089 71.8022 758.695 Q74.8809 763.278 74.8809 772.028 Q74.8809 780.755 71.8022 785.362 Q68.7467 789.945 62.9365 789.945 Q57.1264 789.945 54.0477 785.362 Q50.9921 780.755 50.9921 772.028 Q50.9921 763.278 54.0477 758.695 Q57.1264 754.089 62.9365 754.089 Z" fill="#000000" fill-rule="evenodd" fill-opacity="1" /><path clip-path="url(#clip820)" d="M83.0984 783.394 L87.9827 783.394 L87.9827 789.274 L83.0984 789.274 L83.0984 783.394 Z" fill="#000000" fill-rule="evenodd" fill-opacity="1" /><path clip-path="url(#clip820)" d="M108.168 757.792 Q104.557 757.792 102.728 761.357 Q100.922 764.899 100.922 772.028 Q100.922 779.135 102.728 782.7 Q104.557 786.241 108.168 786.241 Q111.802 786.241 113.608 782.7 Q115.436 779.135 115.436 772.028 Q115.436 764.899 113.608 761.357 Q111.802 757.792 108.168 757.792 M108.168 754.089 Q113.978 754.089 117.033 758.695 Q120.112 763.278 120.112 772.028 Q120.112 780.755 117.033 785.362 Q113.978 789.945 108.168 789.945 Q102.358 789.945 99.2789 785.362 Q96.2234 780.755 96.2234 772.028 Q96.2234 763.278 99.2789 758.695 Q102.358 754.089 108.168 754.089 Z" fill="#000000" fill-rule="evenodd" fill-opacity="1" /><path clip-path="url(#clip820)" d="M138.33 757.792 Q134.719 757.792 132.89 761.357 Q131.084 764.899 131.084 772.028 Q131.084 779.135 132.89 782.7 Q134.719 786.241 138.33 786.241 Q141.964 786.241 143.769 782.7 Q145.598 779.135 145.598 772.028 Q145.598 764.899 143.769 761.357 Q141.964 757.792 138.33 757.792 M138.33 754.089 Q144.14 754.089 147.195 758.695 Q150.274 763.278 150.274 772.028 Q150.274 780.755 147.195 785.362 Q144.14 789.945 138.33 789.945 Q132.519 789.945 129.441 785.362 Q126.385 780.755 126.385 772.028 Q126.385 763.278 129.441 758.695 Q132.519 754.089 138.33 754.089 Z" fill="#000000" fill-rule="evenodd" fill-opacity="1" /><path clip-path="url(#clip820)" d="M159.302 785.338 L166.941 785.338 L166.941 758.973 L158.63 760.64 L158.63 756.38 L166.894 754.714 L171.57 754.714 L171.57 785.338 L179.209 785.338 L179.209 789.274 L159.302 789.274 L159.302 785.338 Z" fill="#000000" fill-rule="evenodd" fill-opacity="1" /><path clip-path="url(#clip820)" d="M198.653 757.792 Q195.042 757.792 193.214 761.357 Q191.408 764.899 191.408 772.028 Q191.408 779.135 193.214 782.7 Q195.042 786.241 198.653 786.241 Q202.288 786.241 204.093 782.7 Q205.922 779.135 205.922 772.028 Q205.922 764.899 204.093 761.357 Q202.288 757.792 198.653 757.792 M198.653 754.089 Q204.464 754.089 207.519 758.695 Q210.598 763.278 210.598 772.028 Q210.598 780.755 207.519 785.362 Q204.464 789.945 198.653 789.945 Q192.843 789.945 189.765 785.362 Q186.709 780.755 186.709 772.028 Q186.709 763.278 189.765 758.695 Q192.843 754.089 198.653 754.089 Z" fill="#000000" fill-rule="evenodd" fill-opacity="1" /><path clip-path="url(#clip820)" d="M63.9319 419.853 Q60.3208 419.853 58.4921 423.417 Q56.6865 426.959 56.6865 434.089 Q56.6865 441.195 58.4921 444.76 Q60.3208 448.302 63.9319 448.302 Q67.5661 448.302 69.3717 444.76 Q71.2004 441.195 71.2004 434.089 Q71.2004 426.959 69.3717 423.417 Q67.5661 419.853 63.9319 419.853 M63.9319 416.149 Q69.742 416.149 72.7976 420.755 Q75.8763 425.339 75.8763 434.089 Q75.8763 442.815 72.7976 447.422 Q69.742 452.005 63.9319 452.005 Q58.1217 452.005 55.043 447.422 Q51.9875 442.815 51.9875 434.089 Q51.9875 425.339 55.043 420.755 Q58.1217 416.149 63.9319 416.149 Z" fill="#000000" fill-rule="evenodd" fill-opacity="1" /><path clip-path="url(#clip820)" d="M84.0938 445.454 L88.978 445.454 L88.978 451.334 L84.0938 451.334 L84.0938 445.454 Z" fill="#000000" fill-rule="evenodd" fill-opacity="1" /><path clip-path="url(#clip820)" d="M109.163 419.853 Q105.552 419.853 103.723 423.417 Q101.918 426.959 101.918 434.089 Q101.918 441.195 103.723 444.76 Q105.552 448.302 109.163 448.302 Q112.797 448.302 114.603 444.76 Q116.432 441.195 116.432 434.089 Q116.432 426.959 114.603 423.417 Q112.797 419.853 109.163 419.853 M109.163 416.149 Q114.973 416.149 118.029 420.755 Q121.107 425.339 121.107 434.089 Q121.107 442.815 118.029 447.422 Q114.973 452.005 109.163 452.005 Q103.353 452.005 100.274 447.422 Q97.2187 442.815 97.2187 434.089 Q97.2187 425.339 100.274 420.755 Q103.353 416.149 109.163 416.149 Z" fill="#000000" fill-rule="evenodd" fill-opacity="1" /><path clip-path="url(#clip820)" d="M139.325 419.853 Q135.714 419.853 133.885 423.417 Q132.08 426.959 132.08 434.089 Q132.08 441.195 133.885 444.76 Q135.714 448.302 139.325 448.302 Q142.959 448.302 144.765 444.76 Q146.593 441.195 146.593 434.089 Q146.593 426.959 144.765 423.417 Q142.959 419.853 139.325 419.853 M139.325 416.149 Q145.135 416.149 148.191 420.755 Q151.269 425.339 151.269 434.089 Q151.269 442.815 148.191 447.422 Q145.135 452.005 139.325 452.005 Q133.515 452.005 130.436 447.422 Q127.381 442.815 127.381 434.089 Q127.381 425.339 130.436 420.755 Q133.515 416.149 139.325 416.149 Z" fill="#000000" fill-rule="evenodd" fill-opacity="1" /><path clip-path="url(#clip820)" d="M160.297 447.399 L167.936 447.399 L167.936 421.033 L159.626 422.7 L159.626 418.441 L167.89 416.774 L172.566 416.774 L172.566 447.399 L180.204 447.399 L180.204 451.334 L160.297 451.334 L160.297 447.399 Z" fill="#000000" fill-rule="evenodd" fill-opacity="1" /><path clip-path="url(#clip820)" d="M189.695 416.774 L208.051 416.774 L208.051 420.709 L193.977 420.709 L193.977 429.181 Q194.996 428.834 196.014 428.672 Q197.033 428.487 198.052 428.487 Q203.839 428.487 207.218 431.658 Q210.598 434.829 210.598 440.246 Q210.598 445.825 207.126 448.927 Q203.653 452.005 197.334 452.005 Q195.158 452.005 192.89 451.635 Q190.644 451.264 188.237 450.524 L188.237 445.825 Q190.32 446.959 192.542 447.514 Q194.765 448.07 197.241 448.07 Q201.246 448.07 203.584 445.964 Q205.922 443.857 205.922 440.246 Q205.922 436.635 203.584 434.528 Q201.246 432.422 197.241 432.422 Q195.366 432.422 193.491 432.839 Q191.64 433.255 189.695 434.135 L189.695 416.774 Z" fill="#000000" fill-rule="evenodd" fill-opacity="1" /><path clip-path="url(#clip820)" d="M836.919 25.2409 Q836.919 29.8317 833.517 34.0536 Q830.156 38.2755 824.664 40.8578 Q819.212 43.3991 813.351 43.3991 L799.086 43.3991 L793.881 64.3856 Q793.84 64.5086 793.717 65.0415 Q793.594 65.5333 793.594 65.8203 Q793.594 66.845 794.864 67.0909 Q796.176 67.3369 799.086 67.3369 Q800.972 67.3369 801.259 67.6648 Q801.423 67.8697 801.423 68.2386 Q801.423 68.8125 801.259 69.2224 Q801.095 69.5913 800.767 69.7142 Q800.48 69.8372 800.275 69.8782 Q800.07 69.9192 799.742 69.9192 Q798.881 69.9192 797.037 69.8372 Q795.233 69.7552 794.291 69.7552 L788.921 69.6733 L778.264 69.9192 Q776.993 69.9192 776.993 68.8945 Q776.993 68.1157 777.321 67.7877 Q777.649 67.4188 778.018 67.3779 Q778.387 67.3369 779.329 67.3369 Q781.379 67.3369 782.609 67.2139 Q783.838 67.0909 784.617 66.927 Q785.437 66.722 785.847 66.1482 Q786.298 65.5743 786.503 65.0825 Q786.708 64.5496 786.994 63.3609 L798.226 18.2727 Q798.553 16.9201 798.553 16.7151 Q798.553 16.0183 798.144 15.7724 Q797.775 15.4854 796.709 15.3625 Q794.659 15.1985 793.102 15.1985 Q792.077 15.1985 791.667 15.1575 Q791.298 15.1165 790.97 14.9116 Q790.684 14.6656 790.684 14.1738 Q790.684 13.395 791.011 13.0671 Q791.38 12.6982 791.79 12.6572 Q792.2 12.5752 793.184 12.5752 L820.401 12.5752 Q828.23 12.5752 832.575 16.3052 Q836.919 20.0352 836.919 25.2409 M829.131 23.2324 Q829.131 15.1985 817.695 15.1985 L809.662 15.1985 Q806.997 15.1985 806.341 15.6904 Q805.686 16.1413 805.112 18.3957 L799.414 41.2267 L811.26 41.2267 Q819.212 41.2267 824.172 36.7589 Q826.426 34.7094 827.779 30.4465 Q829.131 26.1836 829.131 23.2324 Z" fill="#000000" fill-rule="evenodd" fill-opacity="1" /><path clip-path="url(#clip820)" d="M862.267 60.2047 Q862.595 60.5736 862.595 60.9425 Q862.595 61.3114 861.775 62.3772 Q860.996 63.4429 859.316 64.8775 Q857.635 66.3121 855.463 67.6648 Q853.29 69.0174 850.093 69.9192 Q846.896 70.8619 843.535 70.8619 Q837.509 70.8619 833.902 66.5581 Q830.336 62.2542 830.336 55.6549 Q830.336 51.433 831.73 47.703 Q833.124 43.932 835.378 41.2677 Q837.673 38.6034 840.543 36.6769 Q843.453 34.7094 846.486 33.7666 Q849.519 32.8239 852.347 32.8239 Q856.487 32.8239 858.906 34.9143 Q861.324 37.0048 861.324 39.956 Q861.324 40.6528 861.119 41.5136 Q860.955 42.3744 860.381 43.727 Q859.849 45.0797 858.455 46.4323 Q857.061 47.744 855.012 48.6048 Q850.462 50.5313 842.182 50.5313 L837.714 50.5313 Q836.403 55.8189 836.403 59.262 Q836.403 60.6146 836.649 62.0083 Q836.895 63.3609 837.55 65.0825 Q838.247 66.804 839.805 67.9107 Q841.403 68.9764 843.699 68.9764 Q844.437 68.9764 845.215 68.9354 Q846.035 68.8945 848.085 68.4436 Q850.175 67.9927 852.02 67.2139 Q853.864 66.4351 856.2 64.7545 Q858.578 63.033 860.463 60.6966 Q861.119 59.8358 861.57 59.8358 Q861.939 59.8358 862.267 60.2047 M858.537 39.956 Q858.537 37.7016 856.856 36.185 Q855.217 34.6684 852.347 34.6684 Q851.446 34.6684 850.339 34.8734 Q849.232 35.0783 847.388 35.9391 Q845.584 36.7999 843.986 38.2345 Q842.387 39.6281 840.789 42.3744 Q839.19 45.0797 838.247 48.6867 L841.69 48.6867 Q842.879 48.6867 843.74 48.6867 Q844.601 48.6458 846.486 48.4818 Q848.413 48.3178 849.806 48.0309 Q851.2 47.703 852.962 47.0472 Q854.725 46.3913 855.832 45.5306 Q856.979 44.6288 857.758 43.1942 Q858.537 41.7596 858.537 39.956 Z" fill="#000000" fill-rule="evenodd" fill-opacity="1" /><path clip-path="url(#clip820)" d="M900.07 86.6785 Q900.07 86.9081 899.811 87.7975 Q899.553 88.687 898.922 90.0643 Q898.319 91.4415 897.487 92.704 Q896.655 93.9377 895.278 94.8559 Q893.93 95.7454 892.38 95.7454 Q890.314 95.7454 888.937 94.3681 Q887.56 92.9909 887.56 90.925 Q887.56 90.6381 887.588 90.3512 Q887.617 90.0643 887.646 89.8921 Q887.675 89.6912 887.761 89.3756 Q887.875 89.0313 887.904 88.8879 Q887.961 88.7444 888.105 88.314 Q888.277 87.8549 888.334 87.6828 Q891.978 78.3864 891.978 74.5129 Q891.978 70.4099 888.794 70.4099 Q885.953 70.4099 883.141 72.4758 Q881.85 73.5087 880.616 75.345 Q879.382 77.1813 879.153 77.8699 Q878.895 79.362 878.522 80.5097 Q878.349 81.313 877.517 84.4405 L876.226 89.7486 L875.107 94.196 Q874.878 94.8272 874.246 95.2863 Q873.615 95.7454 872.927 95.7454 Q872.353 95.7454 871.779 95.3437 Q871.234 94.9707 871.234 94.0812 Q871.234 93.6221 871.463 92.79 L879.985 58.9329 L880.157 57.7852 Q880.157 57.4409 880.014 57.2687 Q879.899 57.0679 879.21 56.9244 Q878.55 56.781 877.23 56.781 Q876.685 56.781 876.427 56.7523 Q876.198 56.7236 875.997 56.5801 Q875.796 56.408 875.796 56.0636 Q875.796 55.5759 875.997 55.3176 Q876.226 55.0307 876.398 54.9733 Q876.571 54.9159 876.915 54.8873 Q877.403 54.8586 879.038 54.7151 Q880.674 54.5429 882.08 54.4282 Q883.485 54.3134 884.088 54.3134 Q884.432 54.3134 884.604 54.4856 Q884.805 54.629 884.834 54.8012 L884.863 54.9446 L880.272 73.6235 Q883.916 69.1187 888.966 69.1187 Q892.237 69.1187 893.987 70.8116 Q895.737 72.4758 895.737 75.4024 Q895.737 78.7594 892.151 88.314 Q891.089 90.9824 891.089 92.5031 Q891.089 93.5074 891.405 93.9664 Q891.749 94.4255 892.495 94.4255 Q893.643 94.4255 894.647 93.7656 Q895.68 93.077 896.397 91.958 Q897.114 90.8103 897.602 89.6626 Q898.119 88.4862 898.492 87.1663 Q898.721 86.449 898.836 86.2768 Q898.979 86.1047 899.381 86.1047 Q900.07 86.1047 900.07 86.6785 Z" fill="#000000" fill-rule="evenodd" fill-opacity="1" /><path clip-path="url(#clip820)" d="M932.042 57.1715 Q932.124 56.1468 933.723 56.1468 L985.164 56.1468 Q987.583 56.1468 987.624 57.0895 Q987.624 58.1143 985.328 58.0733 L934.296 58.0733 Q932.042 58.1143 932.042 57.1715 M932.042 40.7758 Q932.042 39.7511 933.805 39.7921 L985.082 39.7921 Q987.583 39.7921 987.624 40.7758 Q987.624 41.7186 985.492 41.7186 L933.723 41.7186 Q932.042 41.7186 932.042 40.7758 Z" fill="#000000" fill-rule="evenodd" fill-opacity="1" /><path clip-path="url(#clip820)" d="M1098.71 47.744 Q1099.2 48.2359 1099.2 48.9327 Q1099.2 49.6295 1098.71 50.1214 Q1098.22 50.6132 1097.52 50.6132 L1044.97 50.6132 Q1044.28 50.6132 1043.78 50.1214 Q1043.29 49.6295 1043.29 48.9327 Q1043.29 48.2359 1043.78 47.744 Q1044.28 47.2521 1044.97 47.2521 L1097.52 47.2521 Q1098.22 47.2521 1098.71 47.744 Z" fill="#000000" fill-rule="evenodd" fill-opacity="1" /><path clip-path="url(#clip820)" d="M1131.25 43.3991 Q1131.25 30.2006 1137.97 22.1257 Q1144.7 14.0098 1153.35 14.0098 Q1158.39 14.0098 1161.17 16.5921 Q1164 19.1335 1164 23.0684 Q1164 25.2409 1162.73 26.1836 Q1161.46 27.1264 1160.15 27.1264 Q1158.63 27.1264 1157.44 26.1016 Q1156.26 25.0769 1156.26 23.2324 Q1156.26 19.4614 1160.89 19.4614 Q1158.72 16.1003 1153.51 16.1003 Q1151.91 16.1003 1150.27 16.5921 Q1148.63 17.043 1146.5 18.6006 Q1144.37 20.1582 1142.73 22.6176 Q1141.09 25.0769 1139.94 29.7087 Q1138.79 34.3405 1138.79 40.3659 L1138.79 42.3744 Q1142.24 34.0536 1149.29 34.0946 Q1156.34 34.0946 1161.22 39.4642 Q1166.09 44.8337 1166.09 52.7857 Q1166.09 60.9425 1161.01 66.3531 Q1155.93 71.7637 1148.8 71.7637 Q1145.6 71.7637 1142.69 70.4111 Q1139.82 69.0994 1137.11 66.0662 Q1134.45 63.033 1132.85 57.2125 Q1131.25 51.392 1131.25 43.3991 M1138.96 50.9412 Q1138.96 59.18 1140.48 63.115 Q1140.72 63.7708 1141.25 64.6726 Q1141.83 65.5743 1142.77 66.763 Q1143.75 67.9107 1145.35 68.6895 Q1146.95 69.4273 1148.8 69.4273 Q1154.41 69.4273 1157.12 63.9757 Q1158.55 60.9425 1158.55 52.7037 Q1158.55 44.3009 1157.03 41.2267 Q1154.45 36.0211 1149.21 36.0211 Q1145.68 36.0211 1143.22 38.4394 Q1140.8 40.8578 1139.86 44.0959 Q1138.96 47.3341 1138.96 50.9412 Z" fill="#000000" fill-rule="evenodd" fill-opacity="1" /><path clip-path="url(#clip820)" d="M1173.16 43.3991 Q1173.16 30.2006 1179.88 22.1257 Q1186.6 14.0098 1195.25 14.0098 Q1200.29 14.0098 1203.08 16.5921 Q1205.91 19.1335 1205.91 23.0684 Q1205.91 25.2409 1204.64 26.1836 Q1203.37 27.1264 1202.06 27.1264 Q1200.54 27.1264 1199.35 26.1016 Q1198.16 25.0769 1198.16 23.2324 Q1198.16 19.4614 1202.79 19.4614 Q1200.62 16.1003 1195.42 16.1003 Q1193.82 16.1003 1192.18 16.5921 Q1190.54 17.043 1188.41 18.6006 Q1186.28 20.1582 1184.64 22.6176 Q1183 25.0769 1181.85 29.7087 Q1180.7 34.3405 1180.7 40.3659 L1180.7 42.3744 Q1184.14 34.0536 1191.19 34.0946 Q1198.24 34.0946 1203.12 39.4642 Q1208 44.8337 1208 52.7857 Q1208 60.9425 1202.92 66.3531 Q1197.83 71.7637 1190.7 71.7637 Q1187.51 71.7637 1184.59 70.4111 Q1181.73 69.0994 1179.02 66.0662 Q1176.36 63.033 1174.76 57.2125 Q1173.16 51.392 1173.16 43.3991 M1180.86 50.9412 Q1180.86 59.18 1182.38 63.115 Q1182.63 63.7708 1183.16 64.6726 Q1183.73 65.5743 1184.68 66.763 Q1185.66 67.9107 1187.26 68.6895 Q1188.86 69.4273 1190.7 69.4273 Q1196.32 69.4273 1199.02 63.9757 Q1200.46 60.9425 1200.46 52.7037 Q1200.46 44.3009 1198.94 41.2267 Q1196.36 36.0211 1191.11 36.0211 Q1187.59 36.0211 1185.13 38.4394 Q1182.71 40.8578 1181.77 44.0959 Q1180.86 47.3341 1180.86 50.9412 Z" fill="#000000" fill-rule="evenodd" fill-opacity="1" /><path clip-path="url(#clip820)" d="M1216 68.5665 Q1214.73 67.2139 1214.73 65.4514 Q1214.73 63.6888 1216 62.4181 Q1217.27 61.1065 1219.2 61.1065 Q1221.04 61.1065 1222.27 62.3362 Q1223.54 63.5249 1223.54 65.4923 Q1223.54 67.4188 1222.19 68.6895 Q1220.88 69.9192 1219.2 69.9192 Q1217.27 69.9192 1216 68.5665 Z" fill="#000000" fill-rule="evenodd" fill-opacity="1" /><path clip-path="url(#clip820)" d="M1237.83 43.3991 Q1237.83 30.2006 1244.55 22.1257 Q1251.27 14.0098 1259.92 14.0098 Q1264.96 14.0098 1267.75 16.5921 Q1270.58 19.1335 1270.58 23.0684 Q1270.58 25.2409 1269.31 26.1836 Q1268.04 27.1264 1266.73 27.1264 Q1265.21 27.1264 1264.02 26.1016 Q1262.83 25.0769 1262.83 23.2324 Q1262.83 19.4614 1267.46 19.4614 Q1265.29 16.1003 1260.09 16.1003 Q1258.49 16.1003 1256.85 16.5921 Q1255.21 17.043 1253.08 18.6006 Q1250.94 20.1582 1249.31 22.6176 Q1247.67 25.0769 1246.52 29.7087 Q1245.37 34.3405 1245.37 40.3659 L1245.37 42.3744 Q1248.81 34.0536 1255.86 34.0946 Q1262.91 34.0946 1267.79 39.4642 Q1272.67 44.8337 1272.67 52.7857 Q1272.67 60.9425 1267.59 66.3531 Q1262.5 71.7637 1255.37 71.7637 Q1252.17 71.7637 1249.26 70.4111 Q1246.39 69.0994 1243.69 66.0662 Q1241.03 63.033 1239.43 57.2125 Q1237.83 51.392 1237.83 43.3991 M1245.53 50.9412 Q1245.53 59.18 1247.05 63.115 Q1247.3 63.7708 1247.83 64.6726 Q1248.4 65.5743 1249.35 66.763 Q1250.33 67.9107 1251.93 68.6895 Q1253.53 69.4273 1255.37 69.4273 Q1260.99 69.4273 1263.69 63.9757 Q1265.13 60.9425 1265.13 52.7037 Q1265.13 44.3009 1263.61 41.2267 Q1261.03 36.0211 1255.78 36.0211 Q1252.26 36.0211 1249.8 38.4394 Q1247.38 40.8578 1246.44 44.0959 Q1245.53 47.3341 1245.53 50.9412 Z" fill="#000000" fill-rule="evenodd" fill-opacity="1" /><path clip-path="url(#clip820)" d="M1279.73 43.3991 Q1279.73 30.2006 1286.46 22.1257 Q1293.18 14.0098 1301.83 14.0098 Q1306.87 14.0098 1309.66 16.5921 Q1312.48 19.1335 1312.48 23.0684 Q1312.48 25.2409 1311.21 26.1836 Q1309.94 27.1264 1308.63 27.1264 Q1307.12 27.1264 1305.93 26.1016 Q1304.74 25.0769 1304.74 23.2324 Q1304.74 19.4614 1309.37 19.4614 Q1307.2 16.1003 1301.99 16.1003 Q1300.39 16.1003 1298.75 16.5921 Q1297.11 17.043 1294.98 18.6006 Q1292.85 20.1582 1291.21 22.6176 Q1289.57 25.0769 1288.42 29.7087 Q1287.28 34.3405 1287.28 40.3659 L1287.28 42.3744 Q1290.72 34.0536 1297.77 34.0946 Q1304.82 34.0946 1309.7 39.4642 Q1314.58 44.8337 1314.58 52.7857 Q1314.58 60.9425 1309.49 66.3531 Q1304.41 71.7637 1297.28 71.7637 Q1294.08 71.7637 1291.17 70.4111 Q1288.3 69.0994 1285.6 66.0662 Q1282.93 63.033 1281.33 57.2125 Q1279.73 51.392 1279.73 43.3991 M1287.44 50.9412 Q1287.44 59.18 1288.96 63.115 Q1289.2 63.7708 1289.74 64.6726 Q1290.31 65.5743 1291.25 66.763 Q1292.24 67.9107 1293.83 68.6895 Q1295.43 69.4273 1297.28 69.4273 Q1302.89 69.4273 1305.6 63.9757 Q1307.03 60.9425 1307.03 52.7037 Q1307.03 44.3009 1305.52 41.2267 Q1302.93 36.0211 1297.69 36.0211 Q1294.16 36.0211 1291.7 38.4394 Q1289.29 40.8578 1288.34 44.0959 Q1287.44 47.3341 1287.44 50.9412 Z" fill="#000000" fill-rule="evenodd" fill-opacity="1" /><path clip-path="url(#clip820)" d="M1321.64 43.3991 Q1321.64 30.2006 1328.36 22.1257 Q1335.09 14.0098 1343.73 14.0098 Q1348.78 14.0098 1351.56 16.5921 Q1354.39 19.1335 1354.39 23.0684 Q1354.39 25.2409 1353.12 26.1836 Q1351.85 27.1264 1350.54 27.1264 Q1349.02 27.1264 1347.83 26.1016 Q1346.64 25.0769 1346.64 23.2324 Q1346.64 19.4614 1351.28 19.4614 Q1349.1 16.1003 1343.9 16.1003 Q1342.3 16.1003 1340.66 16.5921 Q1339.02 17.043 1336.89 18.6006 Q1334.76 20.1582 1333.12 22.6176 Q1331.48 25.0769 1330.33 29.7087 Q1329.18 34.3405 1329.18 40.3659 L1329.18 42.3744 Q1332.63 34.0536 1339.68 34.0946 Q1346.73 34.0946 1351.6 39.4642 Q1356.48 44.8337 1356.48 52.7857 Q1356.48 60.9425 1351.4 66.3531 Q1346.32 71.7637 1339.18 71.7637 Q1335.99 71.7637 1333.08 70.4111 Q1330.21 69.0994 1327.5 66.0662 Q1324.84 63.033 1323.24 57.2125 Q1321.64 51.392 1321.64 43.3991 M1329.35 50.9412 Q1329.35 59.18 1330.86 63.115 Q1331.11 63.7708 1331.64 64.6726 Q1332.22 65.5743 1333.16 66.763 Q1334.14 67.9107 1335.74 68.6895 Q1337.34 69.4273 1339.18 69.4273 Q1344.8 69.4273 1347.51 63.9757 Q1348.94 60.9425 1348.94 52.7037 Q1348.94 44.3009 1347.42 41.2267 Q1344.84 36.0211 1339.59 36.0211 Q1336.07 36.0211 1333.61 38.4394 Q1331.19 40.8578 1330.25 44.0959 Q1329.35 47.3341 1329.35 50.9412 Z" fill="#000000" fill-rule="evenodd" fill-opacity="1" /><path clip-path="url(#clip820)" d="M1363.55 43.3991 Q1363.55 30.2006 1370.27 22.1257 Q1376.99 14.0098 1385.64 14.0098 Q1390.68 14.0098 1393.47 16.5921 Q1396.3 19.1335 1396.3 23.0684 Q1396.3 25.2409 1395.03 26.1836 Q1393.76 27.1264 1392.44 27.1264 Q1390.93 27.1264 1389.74 26.1016 Q1388.55 25.0769 1388.55 23.2324 Q1388.55 19.4614 1393.18 19.4614 Q1391.01 16.1003 1385.8 16.1003 Q1384.21 16.1003 1382.57 16.5921 Q1380.93 17.043 1378.8 18.6006 Q1376.66 20.1582 1375.02 22.6176 Q1373.38 25.0769 1372.24 29.7087 Q1371.09 34.3405 1371.09 40.3659 L1371.09 42.3744 Q1374.53 34.0536 1381.58 34.0946 Q1388.63 34.0946 1393.51 39.4642 Q1398.39 44.8337 1398.39 52.7857 Q1398.39 60.9425 1393.31 66.3531 Q1388.22 71.7637 1381.09 71.7637 Q1377.89 71.7637 1374.98 70.4111 Q1372.11 69.0994 1369.41 66.0662 Q1366.74 63.033 1365.15 57.2125 Q1363.55 51.392 1363.55 43.3991 M1371.25 50.9412 Q1371.25 59.18 1372.77 63.115 Q1373.02 63.7708 1373.55 64.6726 Q1374.12 65.5743 1375.07 66.763 Q1376.05 67.9107 1377.65 68.6895 Q1379.25 69.4273 1381.09 69.4273 Q1386.71 69.4273 1389.41 63.9757 Q1390.85 60.9425 1390.85 52.7037 Q1390.85 44.3009 1389.33 41.2267 Q1386.75 36.0211 1381.5 36.0211 Q1377.98 36.0211 1375.52 38.4394 Q1373.1 40.8578 1372.15 44.0959 Q1371.25 47.3341 1371.25 50.9412 Z" fill="#000000" fill-rule="evenodd" fill-opacity="1" /><path clip-path="url(#clip820)" d="M1405.45 43.3991 Q1405.45 30.2006 1412.18 22.1257 Q1418.9 14.0098 1427.55 14.0098 Q1432.59 14.0098 1435.38 16.5921 Q1438.2 19.1335 1438.2 23.0684 Q1438.2 25.2409 1436.93 26.1836 Q1435.66 27.1264 1434.35 27.1264 Q1432.83 27.1264 1431.65 26.1016 Q1430.46 25.0769 1430.46 23.2324 Q1430.46 19.4614 1435.09 19.4614 Q1432.92 16.1003 1427.71 16.1003 Q1426.11 16.1003 1424.47 16.5921 Q1422.83 17.043 1420.7 18.6006 Q1418.57 20.1582 1416.93 22.6176 Q1415.29 25.0769 1414.14 29.7087 Q1413 34.3405 1413 40.3659 L1413 42.3744 Q1416.44 34.0536 1423.49 34.0946 Q1430.54 34.0946 1435.42 39.4642 Q1440.29 44.8337 1440.29 52.7857 Q1440.29 60.9425 1435.21 66.3531 Q1430.13 71.7637 1423 71.7637 Q1419.8 71.7637 1416.89 70.4111 Q1414.02 69.0994 1411.31 66.0662 Q1408.65 63.033 1407.05 57.2125 Q1405.45 51.392 1405.45 43.3991 M1413.16 50.9412 Q1413.16 59.18 1414.68 63.115 Q1414.92 63.7708 1415.45 64.6726 Q1416.03 65.5743 1416.97 66.763 Q1417.96 67.9107 1419.55 68.6895 Q1421.15 69.4273 1423 69.4273 Q1428.61 69.4273 1431.32 63.9757 Q1432.75 60.9425 1432.75 52.7037 Q1432.75 44.3009 1431.24 41.2267 Q1428.65 36.0211 1423.41 36.0211 Q1419.88 36.0211 1417.42 38.4394 Q1415 40.8578 1414.06 44.0959 Q1413.16 47.3341 1413.16 50.9412 Z" fill="#000000" fill-rule="evenodd" fill-opacity="1" /><path clip-path="url(#clip820)" d="M1447.36 43.3991 Q1447.36 30.2006 1454.08 22.1257 Q1460.8 14.0098 1469.45 14.0098 Q1474.49 14.0098 1477.28 16.5921 Q1480.11 19.1335 1480.11 23.0684 Q1480.11 25.2409 1478.84 26.1836 Q1477.57 27.1264 1476.26 27.1264 Q1474.74 27.1264 1473.55 26.1016 Q1472.36 25.0769 1472.36 23.2324 Q1472.36 19.4614 1477 19.4614 Q1474.82 16.1003 1469.62 16.1003 Q1468.02 16.1003 1466.38 16.5921 Q1464.74 17.043 1462.61 18.6006 Q1460.48 20.1582 1458.84 22.6176 Q1457.2 25.0769 1456.05 29.7087 Q1454.9 34.3405 1454.9 40.3659 L1454.9 42.3744 Q1458.34 34.0536 1465.4 34.0946 Q1472.45 34.0946 1477.32 39.4642 Q1482.2 44.8337 1482.2 52.7857 Q1482.2 60.9425 1477.12 66.3531 Q1472.04 71.7637 1464.9 71.7637 Q1461.71 71.7637 1458.8 70.4111 Q1455.93 69.0994 1453.22 66.0662 Q1450.56 63.033 1448.96 57.2125 Q1447.36 51.392 1447.36 43.3991 M1455.07 50.9412 Q1455.07 59.18 1456.58 63.115 Q1456.83 63.7708 1457.36 64.6726 Q1457.93 65.5743 1458.88 66.763 Q1459.86 67.9107 1461.46 68.6895 Q1463.06 69.4273 1464.9 69.4273 Q1470.52 69.4273 1473.22 63.9757 Q1474.66 60.9425 1474.66 52.7037 Q1474.66 44.3009 1473.14 41.2267 Q1470.56 36.0211 1465.31 36.0211 Q1461.79 36.0211 1459.33 38.4394 Q1456.91 40.8578 1455.97 44.0959 Q1455.07 47.3341 1455.07 50.9412 Z" fill="#000000" fill-rule="evenodd" fill-opacity="1" /><path clip-path="url(#clip820)" d="M1489.27 43.3991 Q1489.27 30.2006 1495.99 22.1257 Q1502.71 14.0098 1511.36 14.0098 Q1516.4 14.0098 1519.19 16.5921 Q1522.02 19.1335 1522.02 23.0684 Q1522.02 25.2409 1520.75 26.1836 Q1519.48 27.1264 1518.16 27.1264 Q1516.65 27.1264 1515.46 26.1016 Q1514.27 25.0769 1514.27 23.2324 Q1514.27 19.4614 1518.9 19.4614 Q1516.73 16.1003 1511.52 16.1003 Q1509.92 16.1003 1508.29 16.5921 Q1506.65 17.043 1504.51 18.6006 Q1502.38 20.1582 1500.74 22.6176 Q1499.1 25.0769 1497.96 29.7087 Q1496.81 34.3405 1496.81 40.3659 L1496.81 42.3744 Q1500.25 34.0536 1507.3 34.0946 Q1514.35 34.0946 1519.23 39.4642 Q1524.11 44.8337 1524.11 52.7857 Q1524.11 60.9425 1519.02 66.3531 Q1513.94 71.7637 1506.81 71.7637 Q1503.61 71.7637 1500.7 70.4111 Q1497.83 69.0994 1495.13 66.0662 Q1492.46 63.033 1490.86 57.2125 Q1489.27 51.392 1489.27 43.3991 M1496.97 50.9412 Q1496.97 59.18 1498.49 63.115 Q1498.73 63.7708 1499.27 64.6726 Q1499.84 65.5743 1500.78 66.763 Q1501.77 67.9107 1503.37 68.6895 Q1504.96 69.4273 1506.81 69.4273 Q1512.43 69.4273 1515.13 63.9757 Q1516.56 60.9425 1516.56 52.7037 Q1516.56 44.3009 1515.05 41.2267 Q1512.47 36.0211 1507.22 36.0211 Q1503.69 36.0211 1501.23 38.4394 Q1498.82 40.8578 1497.87 44.0959 Q1496.97 47.3341 1496.97 50.9412 Z" fill="#000000" fill-rule="evenodd" fill-opacity="1" /><path clip-path="url(#clip820)" d="M1531.17 43.3991 Q1531.17 30.2006 1537.89 22.1257 Q1544.62 14.0098 1553.27 14.0098 Q1558.31 14.0098 1561.09 16.5921 Q1563.92 19.1335 1563.92 23.0684 Q1563.92 25.2409 1562.65 26.1836 Q1561.38 27.1264 1560.07 27.1264 Q1558.55 27.1264 1557.36 26.1016 Q1556.18 25.0769 1556.18 23.2324 Q1556.18 19.4614 1560.81 19.4614 Q1558.64 16.1003 1553.43 16.1003 Q1551.83 16.1003 1550.19 16.5921 Q1548.55 17.043 1546.42 18.6006 Q1544.29 20.1582 1542.65 22.6176 Q1541.01 25.0769 1539.86 29.7087 Q1538.71 34.3405 1538.71 40.3659 L1538.71 42.3744 Q1542.16 34.0536 1549.21 34.0946 Q1556.26 34.0946 1561.14 39.4642 Q1566.01 44.8337 1566.01 52.7857 Q1566.01 60.9425 1560.93 66.3531 Q1555.85 71.7637 1548.72 71.7637 Q1545.52 71.7637 1542.61 70.4111 Q1539.74 69.0994 1537.03 66.0662 Q1534.37 63.033 1532.77 57.2125 Q1531.17 51.392 1531.17 43.3991 M1538.88 50.9412 Q1538.88 59.18 1540.39 63.115 Q1540.64 63.7708 1541.17 64.6726 Q1541.75 65.5743 1542.69 66.763 Q1543.67 67.9107 1545.27 68.6895 Q1546.87 69.4273 1548.72 69.4273 Q1554.33 69.4273 1557.04 63.9757 Q1558.47 60.9425 1558.47 52.7037 Q1558.47 44.3009 1556.95 41.2267 Q1554.37 36.0211 1549.13 36.0211 Q1545.6 36.0211 1543.14 38.4394 Q1540.72 40.8578 1539.78 44.0959 Q1538.88 47.3341 1538.88 50.9412 Z" fill="#000000" fill-rule="evenodd" fill-opacity="1" /><path clip-path="url(#clip820)" d="M1573.08 43.3991 Q1573.08 30.2006 1579.8 22.1257 Q1586.52 14.0098 1595.17 14.0098 Q1600.21 14.0098 1603 16.5921 Q1605.83 19.1335 1605.83 23.0684 Q1605.83 25.2409 1604.56 26.1836 Q1603.29 27.1264 1601.98 27.1264 Q1600.46 27.1264 1599.27 26.1016 Q1598.08 25.0769 1598.08 23.2324 Q1598.08 19.4614 1602.71 19.4614 Q1600.54 16.1003 1595.34 16.1003 Q1593.74 16.1003 1592.1 16.5921 Q1590.46 17.043 1588.33 18.6006 Q1586.2 20.1582 1584.56 22.6176 Q1582.92 25.0769 1581.77 29.7087 Q1580.62 34.3405 1580.62 40.3659 L1580.62 42.3744 Q1584.06 34.0536 1591.11 34.0946 Q1598.16 34.0946 1603.04 39.4642 Q1607.92 44.8337 1607.92 52.7857 Q1607.92 60.9425 1602.84 66.3531 Q1597.75 71.7637 1590.62 71.7637 Q1587.42 71.7637 1584.51 70.4111 Q1581.65 69.0994 1578.94 66.0662 Q1576.28 63.033 1574.68 57.2125 Q1573.08 51.392 1573.08 43.3991 M1580.78 50.9412 Q1580.78 59.18 1582.3 63.115 Q1582.55 63.7708 1583.08 64.6726 Q1583.65 65.5743 1584.6 66.763 Q1585.58 67.9107 1587.18 68.6895 Q1588.78 69.4273 1590.62 69.4273 Q1596.24 69.4273 1598.94 63.9757 Q1600.38 60.9425 1600.38 52.7037 Q1600.38 44.3009 1598.86 41.2267 Q1596.28 36.0211 1591.03 36.0211 Q1587.51 36.0211 1585.05 38.4394 Q1582.63 40.8578 1581.69 44.0959 Q1580.78 47.3341 1580.78 50.9412 Z" fill="#000000" fill-rule="evenodd" fill-opacity="1" /><path clip-path="url(#clip820)" d="M1614.99 43.3991 Q1614.99 30.2006 1621.71 22.1257 Q1628.43 14.0098 1637.08 14.0098 Q1642.12 14.0098 1644.91 16.5921 Q1647.74 19.1335 1647.74 23.0684 Q1647.74 25.2409 1646.46 26.1836 Q1645.19 27.1264 1643.88 27.1264 Q1642.37 27.1264 1641.18 26.1016 Q1639.99 25.0769 1639.99 23.2324 Q1639.99 19.4614 1644.62 19.4614 Q1642.45 16.1003 1637.24 16.1003 Q1635.64 16.1003 1634 16.5921 Q1632.36 17.043 1630.23 18.6006 Q1628.1 20.1582 1626.46 22.6176 Q1624.82 25.0769 1623.67 29.7087 Q1622.53 34.3405 1622.53 40.3659 L1622.53 42.3744 Q1625.97 34.0536 1633.02 34.0946 Q1640.07 34.0946 1644.95 39.4642 Q1649.83 44.8337 1649.83 52.7857 Q1649.83 60.9425 1644.74 66.3531 Q1639.66 71.7637 1632.53 71.7637 Q1629.33 71.7637 1626.42 70.4111 Q1623.55 69.0994 1620.85 66.0662 Q1618.18 63.033 1616.58 57.2125 Q1614.99 51.392 1614.99 43.3991 M1622.69 50.9412 Q1622.69 59.18 1624.21 63.115 Q1624.45 63.7708 1624.99 64.6726 Q1625.56 65.5743 1626.5 66.763 Q1627.49 67.9107 1629.09 68.6895 Q1630.68 69.4273 1632.53 69.4273 Q1638.14 69.4273 1640.85 63.9757 Q1642.28 60.9425 1642.28 52.7037 Q1642.28 44.3009 1640.77 41.2267 Q1638.18 36.0211 1632.94 36.0211 Q1629.41 36.0211 1626.95 38.4394 Q1624.54 40.8578 1623.59 44.0959 Q1622.69 47.3341 1622.69 50.9412 Z" fill="#000000" fill-rule="evenodd" fill-opacity="1" /><path clip-path="url(#clip820)" d="M1656.89 43.3991 Q1656.89 30.2006 1663.61 22.1257 Q1670.34 14.0098 1678.98 14.0098 Q1684.03 14.0098 1686.81 16.5921 Q1689.64 19.1335 1689.64 23.0684 Q1689.64 25.2409 1688.37 26.1836 Q1687.1 27.1264 1685.79 27.1264 Q1684.27 27.1264 1683.08 26.1016 Q1681.89 25.0769 1681.89 23.2324 Q1681.89 19.4614 1686.53 19.4614 Q1684.35 16.1003 1679.15 16.1003 Q1677.55 16.1003 1675.91 16.5921 Q1674.27 17.043 1672.14 18.6006 Q1670.01 20.1582 1668.37 22.6176 Q1666.73 25.0769 1665.58 29.7087 Q1664.43 34.3405 1664.43 40.3659 L1664.43 42.3744 Q1667.88 34.0536 1674.93 34.0946 Q1681.98 34.0946 1686.85 39.4642 Q1691.73 44.8337 1691.73 52.7857 Q1691.73 60.9425 1686.65 66.3531 Q1681.57 71.7637 1674.43 71.7637 Q1671.24 71.7637 1668.33 70.4111 Q1665.46 69.0994 1662.75 66.0662 Q1660.09 63.033 1658.49 57.2125 Q1656.89 51.392 1656.89 43.3991 M1664.6 50.9412 Q1664.6 59.18 1666.11 63.115 Q1666.36 63.7708 1666.89 64.6726 Q1667.47 65.5743 1668.41 66.763 Q1669.39 67.9107 1670.99 68.6895 Q1672.59 69.4273 1674.43 69.4273 Q1680.05 69.4273 1682.76 63.9757 Q1684.19 60.9425 1684.19 52.7037 Q1684.19 44.3009 1682.67 41.2267 Q1680.09 36.0211 1674.84 36.0211 Q1671.32 36.0211 1668.86 38.4394 Q1666.44 40.8578 1665.5 44.0959 Q1664.6 47.3341 1664.6 50.9412 Z" fill="#000000" fill-rule="evenodd" fill-opacity="1" /><path clip-path="url(#clip820)" d="M1698.8 43.3991 Q1698.8 30.2006 1705.52 22.1257 Q1712.24 14.0098 1720.89 14.0098 Q1725.93 14.0098 1728.72 16.5921 Q1731.55 19.1335 1731.55 23.0684 Q1731.55 25.2409 1730.28 26.1836 Q1729.01 27.1264 1727.7 27.1264 Q1726.18 27.1264 1724.99 26.1016 Q1723.8 25.0769 1723.8 23.2324 Q1723.8 19.4614 1728.43 19.4614 Q1726.26 16.1003 1721.05 16.1003 Q1719.46 16.1003 1717.82 16.5921 Q1716.18 17.043 1714.05 18.6006 Q1711.91 20.1582 1710.27 22.6176 Q1708.64 25.0769 1707.49 29.7087 Q1706.34 34.3405 1706.34 40.3659 L1706.34 42.3744 Q1709.78 34.0536 1716.83 34.0946 Q1723.88 34.0946 1728.76 39.4642 Q1733.64 44.8337 1733.64 52.7857 Q1733.64 60.9425 1728.56 66.3531 Q1723.47 71.7637 1716.34 71.7637 Q1713.14 71.7637 1710.23 70.4111 Q1707.36 69.0994 1704.66 66.0662 Q1701.99 63.033 1700.4 57.2125 Q1698.8 51.392 1698.8 43.3991 M1706.5 50.9412 Q1706.5 59.18 1708.02 63.115 Q1708.27 63.7708 1708.8 64.6726 Q1709.37 65.5743 1710.32 66.763 Q1711.3 67.9107 1712.9 68.6895 Q1714.5 69.4273 1716.34 69.4273 Q1721.96 69.4273 1724.66 63.9757 Q1726.1 60.9425 1726.1 52.7037 Q1726.1 44.3009 1724.58 41.2267 Q1722 36.0211 1716.75 36.0211 Q1713.23 36.0211 1710.77 38.4394 Q1708.35 40.8578 1707.41 44.0959 Q1706.5 47.3341 1706.5 50.9412 Z" fill="#000000" fill-rule="evenodd" fill-opacity="1" /><path clip-path="url(#clip820)" d="M1740.7 43.3991 Q1740.7 30.2006 1747.43 22.1257 Q1754.15 14.0098 1762.8 14.0098 Q1767.84 14.0098 1770.63 16.5921 Q1773.45 19.1335 1773.45 23.0684 Q1773.45 25.2409 1772.18 26.1836 Q1770.91 27.1264 1769.6 27.1264 Q1768.08 27.1264 1766.9 26.1016 Q1765.71 25.0769 1765.71 23.2324 Q1765.71 19.4614 1770.34 19.4614 Q1768.17 16.1003 1762.96 16.1003 Q1761.36 16.1003 1759.72 16.5921 Q1758.08 17.043 1755.95 18.6006 Q1753.82 20.1582 1752.18 22.6176 Q1750.54 25.0769 1749.39 29.7087 Q1748.25 34.3405 1748.25 40.3659 L1748.25 42.3744 Q1751.69 34.0536 1758.74 34.0946 Q1765.79 34.0946 1770.67 39.4642 Q1775.54 44.8337 1775.54 52.7857 Q1775.54 60.9425 1770.46 66.3531 Q1765.38 71.7637 1758.25 71.7637 Q1755.05 71.7637 1752.14 70.4111 Q1749.27 69.0994 1746.57 66.0662 Q1743.9 63.033 1742.3 57.2125 Q1740.7 51.392 1740.7 43.3991 M1748.41 50.9412 Q1748.41 59.18 1749.93 63.115 Q1750.17 63.7708 1750.71 64.6726 Q1751.28 65.5743 1752.22 66.763 Q1753.21 67.9107 1754.8 68.6895 Q1756.4 69.4273 1758.25 69.4273 Q1763.86 69.4273 1766.57 63.9757 Q1768 60.9425 1768 52.7037 Q1768 44.3009 1766.49 41.2267 Q1763.9 36.0211 1758.66 36.0211 Q1755.13 36.0211 1752.67 38.4394 Q1750.25 40.8578 1749.31 44.0959 Q1748.41 47.3341 1748.41 50.9412 Z" fill="#000000" fill-rule="evenodd" fill-opacity="1" /><path clip-path="url(#clip820)" d="M1780.79 30.4465 L1783.54 13.19 L1785.63 13.19 Q1785.87 14.2148 1786.28 14.6656 Q1786.73 15.1165 1789.11 15.4854 Q1791.53 15.8543 1796.41 15.8543 L1816.78 15.8543 Q1816.78 17.7808 1816.04 18.8056 L1804.69 34.7504 Q1801.08 39.7921 1799.48 49.0966 Q1798.54 55.327 1798.58 62.869 L1798.58 67.1319 Q1798.58 71.7637 1794.69 71.7637 Q1790.83 71.7637 1790.83 67.1319 Q1790.83 51.1051 1801.16 35.5702 Q1802.27 33.9716 1806.33 28.2741 Q1810.43 22.5766 1810.59 22.3306 L1793.21 22.3306 Q1785.59 22.3306 1784.97 22.8225 Q1784.15 23.5603 1782.88 30.4465 L1780.79 30.4465 Z" fill="#000000" fill-rule="evenodd" fill-opacity="1" /><polyline clip-path="url(#clip822)" style="stroke:#009af9; stroke-linecap:butt; stroke-linejoin:round; stroke-width:12; stroke-opacity:1; fill:none" points="
  306.206,1447.87 374.721,162.047 443.236,189.615 511.752,235.955 580.267,282.564 648.782,329.176 717.297,375.788 785.813,422.401 854.328,469.013 922.843,515.626 
  991.358,562.238 1059.87,608.85 1128.39,655.463 1196.9,702.075 1265.42,748.687 1333.93,795.3 1402.45,841.912 1470.96,888.525 1539.48,935.137 1608,981.749 
  1676.51,1028.36 1745.03,1074.97 1813.54,1121.59 1882.06,1168.2 1950.57,1214.81 2019.09,1261.42 2087.6,1308.04 2156.12,1354.65 2224.63,1401.26 2293.15,1447.87 
  
  "/>
<line clip-path="url(#clip822)" x1="306.206" y1="1447.87" x2="306.206" y2="1431.87" style="stroke:#009af9; stroke-width:3.2; stroke-opacity:1"/>
<line clip-path="url(#clip822)" x1="306.206" y1="1447.87" x2="290.206" y2="1447.87" style="stroke:#009af9; stroke-width:3.2; stroke-opacity:1"/>
<line clip-path="url(#clip822)" x1="306.206" y1="1447.87" x2="306.206" y2="1463.87" style="stroke:#009af9; stroke-width:3.2; stroke-opacity:1"/>
<line clip-path="url(#clip822)" x1="306.206" y1="1447.87" x2="322.206" y2="1447.87" style="stroke:#009af9; stroke-width:3.2; stroke-opacity:1"/>
<line clip-path="url(#clip822)" x1="374.721" y1="162.047" x2="374.721" y2="146.047" style="stroke:#009af9; stroke-width:3.2; stroke-opacity:1"/>
<line clip-path="url(#clip822)" x1="374.721" y1="162.047" x2="358.721" y2="162.047" style="stroke:#009af9; stroke-width:3.2; stroke-opacity:1"/>
<line clip-path="url(#clip822)" x1="374.721" y1="162.047" x2="374.721" y2="178.047" style="stroke:#009af9; stroke-width:3.2; stroke-opacity:1"/>
<line clip-path="url(#clip822)" x1="374.721" y1="162.047" x2="390.721" y2="162.047" style="stroke:#009af9; stroke-width:3.2; stroke-opacity:1"/>
<line clip-path="url(#clip822)" x1="443.236" y1="189.615" x2="443.236" y2="173.615" style="stroke:#009af9; stroke-width:3.2; stroke-opacity:1"/>
<line clip-path="url(#clip822)" x1="443.236" y1="189.615" x2="427.236" y2="189.615" style="stroke:#009af9; stroke-width:3.2; stroke-opacity:1"/>
<line clip-path="url(#clip822)" x1="443.236" y1="189.615" x2="443.236" y2="205.615" style="stroke:#009af9; stroke-width:3.2; stroke-opacity:1"/>
<line clip-path="url(#clip822)" x1="443.236" y1="189.615" x2="459.236" y2="189.615" style="stroke:#009af9; stroke-width:3.2; stroke-opacity:1"/>
<line clip-path="url(#clip822)" x1="511.752" y1="235.955" x2="511.752" y2="219.955" style="stroke:#009af9; stroke-width:3.2; stroke-opacity:1"/>
<line clip-path="url(#clip822)" x1="511.752" y1="235.955" x2="495.752" y2="235.955" style="stroke:#009af9; stroke-width:3.2; stroke-opacity:1"/>
<line clip-path="url(#clip822)" x1="511.752" y1="235.955" x2="511.752" y2="251.955" style="stroke:#009af9; stroke-width:3.2; stroke-opacity:1"/>
<line clip-path="url(#clip822)" x1="511.752" y1="235.955" x2="527.752" y2="235.955" style="stroke:#009af9; stroke-width:3.2; stroke-opacity:1"/>
<line clip-path="url(#clip822)" x1="580.267" y1="282.564" x2="580.267" y2="266.564" style="stroke:#009af9; stroke-width:3.2; stroke-opacity:1"/>
<line clip-path="url(#clip822)" x1="580.267" y1="282.564" x2="564.267" y2="282.564" style="stroke:#009af9; stroke-width:3.2; stroke-opacity:1"/>
<line clip-path="url(#clip822)" x1="580.267" y1="282.564" x2="580.267" y2="298.564" style="stroke:#009af9; stroke-width:3.2; stroke-opacity:1"/>
<line clip-path="url(#clip822)" x1="580.267" y1="282.564" x2="596.267" y2="282.564" style="stroke:#009af9; stroke-width:3.2; stroke-opacity:1"/>
<line clip-path="url(#clip822)" x1="648.782" y1="329.176" x2="648.782" y2="313.176" style="stroke:#009af9; stroke-width:3.2; stroke-opacity:1"/>
<line clip-path="url(#clip822)" x1="648.782" y1="329.176" x2="632.782" y2="329.176" style="stroke:#009af9; stroke-width:3.2; stroke-opacity:1"/>
<line clip-path="url(#clip822)" x1="648.782" y1="329.176" x2="648.782" y2="345.176" style="stroke:#009af9; stroke-width:3.2; stroke-opacity:1"/>
<line clip-path="url(#clip822)" x1="648.782" y1="329.176" x2="664.782" y2="329.176" style="stroke:#009af9; stroke-width:3.2; stroke-opacity:1"/>
<line clip-path="url(#clip822)" x1="717.297" y1="375.788" x2="717.297" y2="359.788" style="stroke:#009af9; stroke-width:3.2; stroke-opacity:1"/>
<line clip-path="url(#clip822)" x1="717.297" y1="375.788" x2="701.297" y2="375.788" style="stroke:#009af9; stroke-width:3.2; stroke-opacity:1"/>
<line clip-path="url(#clip822)" x1="717.297" y1="375.788" x2="717.297" y2="391.788" style="stroke:#009af9; stroke-width:3.2; stroke-opacity:1"/>
<line clip-path="url(#clip822)" x1="717.297" y1="375.788" x2="733.297" y2="375.788" style="stroke:#009af9; stroke-width:3.2; stroke-opacity:1"/>
<line clip-path="url(#clip822)" x1="785.813" y1="422.401" x2="785.813" y2="406.401" style="stroke:#009af9; stroke-width:3.2; stroke-opacity:1"/>
<line clip-path="url(#clip822)" x1="785.813" y1="422.401" x2="769.813" y2="422.401" style="stroke:#009af9; stroke-width:3.2; stroke-opacity:1"/>
<line clip-path="url(#clip822)" x1="785.813" y1="422.401" x2="785.813" y2="438.401" style="stroke:#009af9; stroke-width:3.2; stroke-opacity:1"/>
<line clip-path="url(#clip822)" x1="785.813" y1="422.401" x2="801.813" y2="422.401" style="stroke:#009af9; stroke-width:3.2; stroke-opacity:1"/>
<line clip-path="url(#clip822)" x1="854.328" y1="469.013" x2="854.328" y2="453.013" style="stroke:#009af9; stroke-width:3.2; stroke-opacity:1"/>
<line clip-path="url(#clip822)" x1="854.328" y1="469.013" x2="838.328" y2="469.013" style="stroke:#009af9; stroke-width:3.2; stroke-opacity:1"/>
<line clip-path="url(#clip822)" x1="854.328" y1="469.013" x2="854.328" y2="485.013" style="stroke:#009af9; stroke-width:3.2; stroke-opacity:1"/>
<line clip-path="url(#clip822)" x1="854.328" y1="469.013" x2="870.328" y2="469.013" style="stroke:#009af9; stroke-width:3.2; stroke-opacity:1"/>
<line clip-path="url(#clip822)" x1="922.843" y1="515.626" x2="922.843" y2="499.626" style="stroke:#009af9; stroke-width:3.2; stroke-opacity:1"/>
<line clip-path="url(#clip822)" x1="922.843" y1="515.626" x2="906.843" y2="515.626" style="stroke:#009af9; stroke-width:3.2; stroke-opacity:1"/>
<line clip-path="url(#clip822)" x1="922.843" y1="515.626" x2="922.843" y2="531.626" style="stroke:#009af9; stroke-width:3.2; stroke-opacity:1"/>
<line clip-path="url(#clip822)" x1="922.843" y1="515.626" x2="938.843" y2="515.626" style="stroke:#009af9; stroke-width:3.2; stroke-opacity:1"/>
<line clip-path="url(#clip822)" x1="991.358" y1="562.238" x2="991.358" y2="546.238" style="stroke:#009af9; stroke-width:3.2; stroke-opacity:1"/>
<line clip-path="url(#clip822)" x1="991.358" y1="562.238" x2="975.358" y2="562.238" style="stroke:#009af9; stroke-width:3.2; stroke-opacity:1"/>
<line clip-path="url(#clip822)" x1="991.358" y1="562.238" x2="991.358" y2="578.238" style="stroke:#009af9; stroke-width:3.2; stroke-opacity:1"/>
<line clip-path="url(#clip822)" x1="991.358" y1="562.238" x2="1007.36" y2="562.238" style="stroke:#009af9; stroke-width:3.2; stroke-opacity:1"/>
<line clip-path="url(#clip822)" x1="1059.87" y1="608.85" x2="1059.87" y2="592.85" style="stroke:#009af9; stroke-width:3.2; stroke-opacity:1"/>
<line clip-path="url(#clip822)" x1="1059.87" y1="608.85" x2="1043.87" y2="608.85" style="stroke:#009af9; stroke-width:3.2; stroke-opacity:1"/>
<line clip-path="url(#clip822)" x1="1059.87" y1="608.85" x2="1059.87" y2="624.85" style="stroke:#009af9; stroke-width:3.2; stroke-opacity:1"/>
<line clip-path="url(#clip822)" x1="1059.87" y1="608.85" x2="1075.87" y2="608.85" style="stroke:#009af9; stroke-width:3.2; stroke-opacity:1"/>
<line clip-path="url(#clip822)" x1="1128.39" y1="655.463" x2="1128.39" y2="639.463" style="stroke:#009af9; stroke-width:3.2; stroke-opacity:1"/>
<line clip-path="url(#clip822)" x1="1128.39" y1="655.463" x2="1112.39" y2="655.463" style="stroke:#009af9; stroke-width:3.2; stroke-opacity:1"/>
<line clip-path="url(#clip822)" x1="1128.39" y1="655.463" x2="1128.39" y2="671.463" style="stroke:#009af9; stroke-width:3.2; stroke-opacity:1"/>
<line clip-path="url(#clip822)" x1="1128.39" y1="655.463" x2="1144.39" y2="655.463" style="stroke:#009af9; stroke-width:3.2; stroke-opacity:1"/>
<line clip-path="url(#clip822)" x1="1196.9" y1="702.075" x2="1196.9" y2="686.075" style="stroke:#009af9; stroke-width:3.2; stroke-opacity:1"/>
<line clip-path="url(#clip822)" x1="1196.9" y1="702.075" x2="1180.9" y2="702.075" style="stroke:#009af9; stroke-width:3.2; stroke-opacity:1"/>
<line clip-path="url(#clip822)" x1="1196.9" y1="702.075" x2="1196.9" y2="718.075" style="stroke:#009af9; stroke-width:3.2; stroke-opacity:1"/>
<line clip-path="url(#clip822)" x1="1196.9" y1="702.075" x2="1212.9" y2="702.075" style="stroke:#009af9; stroke-width:3.2; stroke-opacity:1"/>
<line clip-path="url(#clip822)" x1="1265.42" y1="748.687" x2="1265.42" y2="732.687" style="stroke:#009af9; stroke-width:3.2; stroke-opacity:1"/>
<line clip-path="url(#clip822)" x1="1265.42" y1="748.687" x2="1249.42" y2="748.687" style="stroke:#009af9; stroke-width:3.2; stroke-opacity:1"/>
<line clip-path="url(#clip822)" x1="1265.42" y1="748.687" x2="1265.42" y2="764.687" style="stroke:#009af9; stroke-width:3.2; stroke-opacity:1"/>
<line clip-path="url(#clip822)" x1="1265.42" y1="748.687" x2="1281.42" y2="748.687" style="stroke:#009af9; stroke-width:3.2; stroke-opacity:1"/>
<line clip-path="url(#clip822)" x1="1333.93" y1="795.3" x2="1333.93" y2="779.3" style="stroke:#009af9; stroke-width:3.2; stroke-opacity:1"/>
<line clip-path="url(#clip822)" x1="1333.93" y1="795.3" x2="1317.93" y2="795.3" style="stroke:#009af9; stroke-width:3.2; stroke-opacity:1"/>
<line clip-path="url(#clip822)" x1="1333.93" y1="795.3" x2="1333.93" y2="811.3" style="stroke:#009af9; stroke-width:3.2; stroke-opacity:1"/>
<line clip-path="url(#clip822)" x1="1333.93" y1="795.3" x2="1349.93" y2="795.3" style="stroke:#009af9; stroke-width:3.2; stroke-opacity:1"/>
<line clip-path="url(#clip822)" x1="1402.45" y1="841.912" x2="1402.45" y2="825.912" style="stroke:#009af9; stroke-width:3.2; stroke-opacity:1"/>
<line clip-path="url(#clip822)" x1="1402.45" y1="841.912" x2="1386.45" y2="841.912" style="stroke:#009af9; stroke-width:3.2; stroke-opacity:1"/>
<line clip-path="url(#clip822)" x1="1402.45" y1="841.912" x2="1402.45" y2="857.912" style="stroke:#009af9; stroke-width:3.2; stroke-opacity:1"/>
<line clip-path="url(#clip822)" x1="1402.45" y1="841.912" x2="1418.45" y2="841.912" style="stroke:#009af9; stroke-width:3.2; stroke-opacity:1"/>
<line clip-path="url(#clip822)" x1="1470.96" y1="888.525" x2="1470.96" y2="872.525" style="stroke:#009af9; stroke-width:3.2; stroke-opacity:1"/>
<line clip-path="url(#clip822)" x1="1470.96" y1="888.525" x2="1454.96" y2="888.525" style="stroke:#009af9; stroke-width:3.2; stroke-opacity:1"/>
<line clip-path="url(#clip822)" x1="1470.96" y1="888.525" x2="1470.96" y2="904.525" style="stroke:#009af9; stroke-width:3.2; stroke-opacity:1"/>
<line clip-path="url(#clip822)" x1="1470.96" y1="888.525" x2="1486.96" y2="888.525" style="stroke:#009af9; stroke-width:3.2; stroke-opacity:1"/>
<line clip-path="url(#clip822)" x1="1539.48" y1="935.137" x2="1539.48" y2="919.137" style="stroke:#009af9; stroke-width:3.2; stroke-opacity:1"/>
<line clip-path="url(#clip822)" x1="1539.48" y1="935.137" x2="1523.48" y2="935.137" style="stroke:#009af9; stroke-width:3.2; stroke-opacity:1"/>
<line clip-path="url(#clip822)" x1="1539.48" y1="935.137" x2="1539.48" y2="951.137" style="stroke:#009af9; stroke-width:3.2; stroke-opacity:1"/>
<line clip-path="url(#clip822)" x1="1539.48" y1="935.137" x2="1555.48" y2="935.137" style="stroke:#009af9; stroke-width:3.2; stroke-opacity:1"/>
<line clip-path="url(#clip822)" x1="1608" y1="981.749" x2="1608" y2="965.749" style="stroke:#009af9; stroke-width:3.2; stroke-opacity:1"/>
<line clip-path="url(#clip822)" x1="1608" y1="981.749" x2="1592" y2="981.749" style="stroke:#009af9; stroke-width:3.2; stroke-opacity:1"/>
<line clip-path="url(#clip822)" x1="1608" y1="981.749" x2="1608" y2="997.749" style="stroke:#009af9; stroke-width:3.2; stroke-opacity:1"/>
<line clip-path="url(#clip822)" x1="1608" y1="981.749" x2="1624" y2="981.749" style="stroke:#009af9; stroke-width:3.2; stroke-opacity:1"/>
<line clip-path="url(#clip822)" x1="1676.51" y1="1028.36" x2="1676.51" y2="1012.36" style="stroke:#009af9; stroke-width:3.2; stroke-opacity:1"/>
<line clip-path="url(#clip822)" x1="1676.51" y1="1028.36" x2="1660.51" y2="1028.36" style="stroke:#009af9; stroke-width:3.2; stroke-opacity:1"/>
<line clip-path="url(#clip822)" x1="1676.51" y1="1028.36" x2="1676.51" y2="1044.36" style="stroke:#009af9; stroke-width:3.2; stroke-opacity:1"/>
<line clip-path="url(#clip822)" x1="1676.51" y1="1028.36" x2="1692.51" y2="1028.36" style="stroke:#009af9; stroke-width:3.2; stroke-opacity:1"/>
<line clip-path="url(#clip822)" x1="1745.03" y1="1074.97" x2="1745.03" y2="1058.97" style="stroke:#009af9; stroke-width:3.2; stroke-opacity:1"/>
<line clip-path="url(#clip822)" x1="1745.03" y1="1074.97" x2="1729.03" y2="1074.97" style="stroke:#009af9; stroke-width:3.2; stroke-opacity:1"/>
<line clip-path="url(#clip822)" x1="1745.03" y1="1074.97" x2="1745.03" y2="1090.97" style="stroke:#009af9; stroke-width:3.2; stroke-opacity:1"/>
<line clip-path="url(#clip822)" x1="1745.03" y1="1074.97" x2="1761.03" y2="1074.97" style="stroke:#009af9; stroke-width:3.2; stroke-opacity:1"/>
<line clip-path="url(#clip822)" x1="1813.54" y1="1121.59" x2="1813.54" y2="1105.59" style="stroke:#009af9; stroke-width:3.2; stroke-opacity:1"/>
<line clip-path="url(#clip822)" x1="1813.54" y1="1121.59" x2="1797.54" y2="1121.59" style="stroke:#009af9; stroke-width:3.2; stroke-opacity:1"/>
<line clip-path="url(#clip822)" x1="1813.54" y1="1121.59" x2="1813.54" y2="1137.59" style="stroke:#009af9; stroke-width:3.2; stroke-opacity:1"/>
<line clip-path="url(#clip822)" x1="1813.54" y1="1121.59" x2="1829.54" y2="1121.59" style="stroke:#009af9; stroke-width:3.2; stroke-opacity:1"/>
<line clip-path="url(#clip822)" x1="1882.06" y1="1168.2" x2="1882.06" y2="1152.2" style="stroke:#009af9; stroke-width:3.2; stroke-opacity:1"/>
<line clip-path="url(#clip822)" x1="1882.06" y1="1168.2" x2="1866.06" y2="1168.2" style="stroke:#009af9; stroke-width:3.2; stroke-opacity:1"/>
<line clip-path="url(#clip822)" x1="1882.06" y1="1168.2" x2="1882.06" y2="1184.2" style="stroke:#009af9; stroke-width:3.2; stroke-opacity:1"/>
<line clip-path="url(#clip822)" x1="1882.06" y1="1168.2" x2="1898.06" y2="1168.2" style="stroke:#009af9; stroke-width:3.2; stroke-opacity:1"/>
<line clip-path="url(#clip822)" x1="1950.57" y1="1214.81" x2="1950.57" y2="1198.81" style="stroke:#009af9; stroke-width:3.2; stroke-opacity:1"/>
<line clip-path="url(#clip822)" x1="1950.57" y1="1214.81" x2="1934.57" y2="1214.81" style="stroke:#009af9; stroke-width:3.2; stroke-opacity:1"/>
<line clip-path="url(#clip822)" x1="1950.57" y1="1214.81" x2="1950.57" y2="1230.81" style="stroke:#009af9; stroke-width:3.2; stroke-opacity:1"/>
<line clip-path="url(#clip822)" x1="1950.57" y1="1214.81" x2="1966.57" y2="1214.81" style="stroke:#009af9; stroke-width:3.2; stroke-opacity:1"/>
<line clip-path="url(#clip822)" x1="2019.09" y1="1261.42" x2="2019.09" y2="1245.42" style="stroke:#009af9; stroke-width:3.2; stroke-opacity:1"/>
<line clip-path="url(#clip822)" x1="2019.09" y1="1261.42" x2="2003.09" y2="1261.42" style="stroke:#009af9; stroke-width:3.2; stroke-opacity:1"/>
<line clip-path="url(#clip822)" x1="2019.09" y1="1261.42" x2="2019.09" y2="1277.42" style="stroke:#009af9; stroke-width:3.2; stroke-opacity:1"/>
<line clip-path="url(#clip822)" x1="2019.09" y1="1261.42" x2="2035.09" y2="1261.42" style="stroke:#009af9; stroke-width:3.2; stroke-opacity:1"/>
<line clip-path="url(#clip822)" x1="2087.6" y1="1308.04" x2="2087.6" y2="1292.04" style="stroke:#009af9; stroke-width:3.2; stroke-opacity:1"/>
<line clip-path="url(#clip822)" x1="2087.6" y1="1308.04" x2="2071.6" y2="1308.04" style="stroke:#009af9; stroke-width:3.2; stroke-opacity:1"/>
<line clip-path="url(#clip822)" x1="2087.6" y1="1308.04" x2="2087.6" y2="1324.04" style="stroke:#009af9; stroke-width:3.2; stroke-opacity:1"/>
<line clip-path="url(#clip822)" x1="2087.6" y1="1308.04" x2="2103.6" y2="1308.04" style="stroke:#009af9; stroke-width:3.2; stroke-opacity:1"/>
<line clip-path="url(#clip822)" x1="2156.12" y1="1354.65" x2="2156.12" y2="1338.65" style="stroke:#009af9; stroke-width:3.2; stroke-opacity:1"/>
<line clip-path="url(#clip822)" x1="2156.12" y1="1354.65" x2="2140.12" y2="1354.65" style="stroke:#009af9; stroke-width:3.2; stroke-opacity:1"/>
<line clip-path="url(#clip822)" x1="2156.12" y1="1354.65" x2="2156.12" y2="1370.65" style="stroke:#009af9; stroke-width:3.2; stroke-opacity:1"/>
<line clip-path="url(#clip822)" x1="2156.12" y1="1354.65" x2="2172.12" y2="1354.65" style="stroke:#009af9; stroke-width:3.2; stroke-opacity:1"/>
<line clip-path="url(#clip822)" x1="2224.63" y1="1401.26" x2="2224.63" y2="1385.26" style="stroke:#009af9; stroke-width:3.2; stroke-opacity:1"/>
<line clip-path="url(#clip822)" x1="2224.63" y1="1401.26" x2="2208.63" y2="1401.26" style="stroke:#009af9; stroke-width:3.2; stroke-opacity:1"/>
<line clip-path="url(#clip822)" x1="2224.63" y1="1401.26" x2="2224.63" y2="1417.26" style="stroke:#009af9; stroke-width:3.2; stroke-opacity:1"/>
<line clip-path="url(#clip822)" x1="2224.63" y1="1401.26" x2="2240.63" y2="1401.26" style="stroke:#009af9; stroke-width:3.2; stroke-opacity:1"/>
<line clip-path="url(#clip822)" x1="2293.15" y1="1447.87" x2="2293.15" y2="1431.87" style="stroke:#009af9; stroke-width:3.2; stroke-opacity:1"/>
<line clip-path="url(#clip822)" x1="2293.15" y1="1447.87" x2="2277.15" y2="1447.87" style="stroke:#009af9; stroke-width:3.2; stroke-opacity:1"/>
<line clip-path="url(#clip822)" x1="2293.15" y1="1447.87" x2="2293.15" y2="1463.87" style="stroke:#009af9; stroke-width:3.2; stroke-opacity:1"/>
<line clip-path="url(#clip822)" x1="2293.15" y1="1447.87" x2="2309.15" y2="1447.87" style="stroke:#009af9; stroke-width:3.2; stroke-opacity:1"/>
</svg>
