<?xml version="1.0" encoding="utf-8"?>
<svg xmlns="http://www.w3.org/2000/svg" xmlns:xlink="http://www.w3.org/1999/xlink" width="600" height="400" viewBox="0 0 2400 1600">
<defs>
  <clipPath id="clip980">
    <rect x="0" y="0" width="2400" height="1600"/>
  </clipPath>
</defs>
<path clip-path="url(#clip980)" d="
M0 1600 L2400 1600 L2400 0 L0 0  Z
  " fill="#ffffff" fill-rule="evenodd" fill-opacity="1"/>
<defs>
  <clipPath id="clip981">
    <rect x="480" y="0" width="1681" height="1600"/>
  </clipPath>
</defs>
<path clip-path="url(#clip980)" d="
M188.104 1474.16 L2352.76 1474.16 L2352.76 47.2441 L188.104 47.2441  Z
  " fill="#ffffff" fill-rule="evenodd" fill-opacity="1"/>
<defs>
  <clipPath id="clip982">
    <rect x="188" y="47" width="2166" height="1428"/>
  </clipPath>
</defs>
<polyline clip-path="url(#clip982)" style="stroke:#000000; stroke-linecap:butt; stroke-linejoin:round; stroke-width:2; stroke-opacity:0.1; fill:none" points="
  188.104,1474.16 188.104,47.2441 
  "/>
<polyline clip-path="url(#clip982)" style="stroke:#000000; stroke-linecap:butt; stroke-linejoin:round; stroke-width:2; stroke-opacity:0.1; fill:none" points="
  2352.76,1474.16 2352.76,47.2441 
  "/>
<polyline clip-path="url(#clip980)" style="stroke:#000000; stroke-linecap:butt; stroke-linejoin:round; stroke-width:4; stroke-opacity:1; fill:none" points="
  188.104,1474.16 2352.76,1474.16 
  "/>
<polyline clip-path="url(#clip980)" style="stroke:#000000; stroke-linecap:butt; stroke-linejoin:round; stroke-width:4; stroke-opacity:1; fill:none" points="
  188.104,1474.16 188.104,1455.27 
  "/>
<polyline clip-path="url(#clip980)" style="stroke:#000000; stroke-linecap:butt; stroke-linejoin:round; stroke-width:4; stroke-opacity:1; fill:none" points="
  2352.76,1474.16 2352.76,1455.27 
  "/>
<path clip-path="url(#clip980)" d="M153.548 1548.29 L161.187 1548.29 L161.187 1521.92 L152.876 1523.59 L152.876 1519.33 L161.14 1517.66 L165.816 1517.66 L165.816 1548.29 L173.455 1548.29 L173.455 1552.22 L153.548 1552.22 L153.548 1548.29 Z" fill="#000000" fill-rule="evenodd" fill-opacity="1" /><path clip-path="url(#clip980)" d="M192.899 1520.74 Q189.288 1520.74 187.46 1524.31 Q185.654 1527.85 185.654 1534.98 Q185.654 1542.09 187.46 1545.65 Q189.288 1549.19 192.899 1549.19 Q196.534 1549.19 198.339 1545.65 Q200.168 1542.09 200.168 1534.98 Q200.168 1527.85 198.339 1524.31 Q196.534 1520.74 192.899 1520.74 M192.899 1517.04 Q198.71 1517.04 201.765 1521.65 Q204.844 1526.23 204.844 1534.98 Q204.844 1543.71 201.765 1548.31 Q198.71 1552.9 192.899 1552.9 Q187.089 1552.9 184.011 1548.31 Q180.955 1543.71 180.955 1534.98 Q180.955 1526.23 184.011 1521.65 Q187.089 1517.04 192.899 1517.04 Z" fill="#000000" fill-rule="evenodd" fill-opacity="1" /><path clip-path="url(#clip980)" d="M217.539 1509.67 Q220.266 1510.26 221.79 1512.1 Q223.332 1513.94 223.332 1516.65 Q223.332 1520.81 220.473 1523.08 Q217.614 1525.36 212.348 1525.36 Q210.58 1525.36 208.699 1525 Q206.837 1524.66 204.844 1523.97 L204.844 1520.3 Q206.424 1521.22 208.304 1521.69 Q210.185 1522.16 212.235 1522.16 Q215.809 1522.16 217.671 1520.75 Q219.551 1519.34 219.551 1516.65 Q219.551 1514.17 217.802 1512.78 Q216.072 1511.37 212.969 1511.37 L209.696 1511.37 L209.696 1508.24 L213.119 1508.24 Q215.922 1508.24 217.407 1507.13 Q218.893 1506.01 218.893 1503.9 Q218.893 1501.74 217.351 1500.59 Q215.828 1499.42 212.969 1499.42 Q211.408 1499.42 209.621 1499.76 Q207.834 1500.1 205.69 1500.82 L205.69 1497.43 Q207.853 1496.83 209.734 1496.53 Q211.633 1496.23 213.307 1496.23 Q217.633 1496.23 220.153 1498.2 Q222.674 1500.16 222.674 1503.51 Q222.674 1505.84 221.338 1507.45 Q220.003 1509.05 217.539 1509.67 Z" fill="#000000" fill-rule="evenodd" fill-opacity="1" /><path clip-path="url(#clip980)" d="M2317.21 1548.29 L2324.85 1548.29 L2324.85 1521.92 L2316.54 1523.59 L2316.54 1519.33 L2324.8 1517.66 L2329.48 1517.66 L2329.48 1548.29 L2337.12 1548.29 L2337.12 1552.22 L2317.21 1552.22 L2317.21 1548.29 Z" fill="#000000" fill-rule="evenodd" fill-opacity="1" /><path clip-path="url(#clip980)" d="M2356.56 1520.74 Q2352.95 1520.74 2351.12 1524.31 Q2349.32 1527.85 2349.32 1534.98 Q2349.32 1542.09 2351.12 1545.65 Q2352.95 1549.19 2356.56 1549.19 Q2360.2 1549.19 2362 1545.65 Q2363.83 1542.09 2363.83 1534.98 Q2363.83 1527.85 2362 1524.31 Q2360.2 1520.74 2356.56 1520.74 M2356.56 1517.04 Q2362.37 1517.04 2365.43 1521.65 Q2368.51 1526.23 2368.51 1534.98 Q2368.51 1543.71 2365.43 1548.31 Q2362.37 1552.9 2356.56 1552.9 Q2350.75 1552.9 2347.67 1548.31 Q2344.62 1543.71 2344.62 1534.98 Q2344.62 1526.23 2347.67 1521.65 Q2350.75 1517.04 2356.56 1517.04 Z" fill="#000000" fill-rule="evenodd" fill-opacity="1" /><path clip-path="url(#clip980)" d="M2381.18 1500.04 L2371.59 1515.03 L2381.18 1515.03 L2381.18 1500.04 M2380.19 1496.73 L2384.96 1496.73 L2384.96 1515.03 L2388.97 1515.03 L2388.97 1518.19 L2384.96 1518.19 L2384.96 1524.81 L2381.18 1524.81 L2381.18 1518.19 L2368.51 1518.19 L2368.51 1514.53 L2380.19 1496.73 Z" fill="#000000" fill-rule="evenodd" fill-opacity="1" /><polyline clip-path="url(#clip982)" style="stroke:#000000; stroke-linecap:butt; stroke-linejoin:round; stroke-width:2; stroke-opacity:0.1; fill:none" points="
  188.104,1406.04 2352.76,1406.04 
  "/>
<polyline clip-path="url(#clip982)" style="stroke:#000000; stroke-linecap:butt; stroke-linejoin:round; stroke-width:2; stroke-opacity:0.1; fill:none" points="
  188.104,951.898 2352.76,951.898 
  "/>
<polyline clip-path="url(#clip982)" style="stroke:#000000; stroke-linecap:butt; stroke-linejoin:round; stroke-width:2; stroke-opacity:0.1; fill:none" points="
  188.104,497.758 2352.76,497.758 
  "/>
<polyline clip-path="url(#clip980)" style="stroke:#000000; stroke-linecap:butt; stroke-linejoin:round; stroke-width:4; stroke-opacity:1; fill:none" points="
  188.104,1474.16 188.104,47.2441 
  "/>
<polyline clip-path="url(#clip980)" style="stroke:#000000; stroke-linecap:butt; stroke-linejoin:round; stroke-width:4; stroke-opacity:1; fill:none" points="
  188.104,1406.04 207.002,1406.04 
  "/>
<polyline clip-path="url(#clip980)" style="stroke:#000000; stroke-linecap:butt; stroke-linejoin:round; stroke-width:4; stroke-opacity:1; fill:none" points="
  188.104,951.898 207.002,951.898 
  "/>
<polyline clip-path="url(#clip980)" style="stroke:#000000; stroke-linecap:butt; stroke-linejoin:round; stroke-width:4; stroke-opacity:1; fill:none" points="
  188.104,497.758 207.002,497.758 
  "/>
<path clip-path="url(#clip980)" d="M51.9643 1425.83 L59.6032 1425.83 L59.6032 1399.47 L51.2931 1401.13 L51.2931 1396.87 L59.5569 1395.21 L64.2328 1395.21 L64.2328 1425.83 L71.8716 1425.83 L71.8716 1429.77 L51.9643 1429.77 L51.9643 1425.83 Z" fill="#000000" fill-rule="evenodd" fill-opacity="1" /><path clip-path="url(#clip980)" d="M91.316 1398.28 Q87.7049 1398.28 85.8762 1401.85 Q84.0707 1405.39 84.0707 1412.52 Q84.0707 1419.63 85.8762 1423.19 Q87.7049 1426.73 91.316 1426.73 Q94.9502 1426.73 96.7558 1423.19 Q98.5845 1419.63 98.5845 1412.52 Q98.5845 1405.39 96.7558 1401.85 Q94.9502 1398.28 91.316 1398.28 M91.316 1394.58 Q97.1261 1394.58 100.182 1399.19 Q103.26 1403.77 103.26 1412.52 Q103.26 1421.25 100.182 1425.85 Q97.1261 1430.44 91.316 1430.44 Q85.5058 1430.44 82.4271 1425.85 Q79.3716 1421.25 79.3716 1412.52 Q79.3716 1403.77 82.4271 1399.19 Q85.5058 1394.58 91.316 1394.58 Z" fill="#000000" fill-rule="evenodd" fill-opacity="1" /><path clip-path="url(#clip980)" d="M103.26 1388.68 L127.372 1388.68 L127.372 1391.88 L103.26 1391.88 L103.26 1388.68 Z" fill="#000000" fill-rule="evenodd" fill-opacity="1" /><path clip-path="url(#clip980)" d="M138.845 1399.16 L152.104 1399.16 L152.104 1402.36 L134.274 1402.36 L134.274 1399.16 Q136.437 1396.92 140.161 1393.16 Q143.904 1389.38 144.863 1388.29 Q146.688 1386.24 147.402 1384.83 Q148.136 1383.4 148.136 1382.02 Q148.136 1379.79 146.556 1378.38 Q144.995 1376.96 142.475 1376.96 Q140.688 1376.96 138.694 1377.59 Q136.719 1378.21 134.462 1379.47 L134.462 1375.63 Q136.757 1374.71 138.751 1374.24 Q140.744 1373.77 142.399 1373.77 Q146.763 1373.77 149.358 1375.95 Q151.954 1378.13 151.954 1381.78 Q151.954 1383.51 151.295 1385.07 Q150.656 1386.61 148.944 1388.72 Q148.474 1389.27 145.954 1391.88 Q143.434 1394.48 138.845 1399.16 Z" fill="#000000" fill-rule="evenodd" fill-opacity="1" /><path clip-path="url(#clip980)" d="M51.6634 971.691 L59.3023 971.691 L59.3023 945.325 L50.9921 946.992 L50.9921 942.732 L59.256 941.066 L63.9319 941.066 L63.9319 971.691 L71.5707 971.691 L71.5707 975.626 L51.6634 975.626 L51.6634 971.691 Z" fill="#000000" fill-rule="evenodd" fill-opacity="1" /><path clip-path="url(#clip980)" d="M91.0151 944.144 Q87.404 944.144 85.5753 947.709 Q83.7697 951.251 83.7697 958.38 Q83.7697 965.487 85.5753 969.052 Q87.404 972.593 91.0151 972.593 Q94.6493 972.593 96.4548 969.052 Q98.2835 965.487 98.2835 958.38 Q98.2835 951.251 96.4548 947.709 Q94.6493 944.144 91.0151 944.144 M91.0151 940.441 Q96.8252 940.441 99.8808 945.047 Q102.959 949.631 102.959 958.38 Q102.959 967.107 99.8808 971.714 Q96.8252 976.297 91.0151 976.297 Q85.2049 976.297 82.1262 971.714 Q79.0707 967.107 79.0707 958.38 Q79.0707 949.631 82.1262 945.047 Q85.2049 940.441 91.0151 940.441 Z" fill="#000000" fill-rule="evenodd" fill-opacity="1" /><path clip-path="url(#clip980)" d="M102.959 934.542 L127.071 934.542 L127.071 937.739 L102.959 937.739 L102.959 934.542 Z" fill="#000000" fill-rule="evenodd" fill-opacity="1" /><path clip-path="url(#clip980)" d="M135.929 945.018 L142.136 945.018 L142.136 923.596 L135.384 924.95 L135.384 921.49 L142.098 920.135 L145.898 920.135 L145.898 945.018 L152.104 945.018 L152.104 948.215 L135.929 948.215 L135.929 945.018 Z" fill="#000000" fill-rule="evenodd" fill-opacity="1" /><path clip-path="url(#clip980)" d="M81.3985 517.55 L89.0374 517.55 L89.0374 491.185 L80.7272 492.852 L80.7272 488.592 L88.9911 486.926 L93.667 486.926 L93.667 517.55 L101.306 517.55 L101.306 521.486 L81.3985 521.486 L81.3985 517.55 Z" fill="#000000" fill-rule="evenodd" fill-opacity="1" /><path clip-path="url(#clip980)" d="M120.75 490.004 Q117.139 490.004 115.31 493.569 Q113.505 497.111 113.505 504.24 Q113.505 511.347 115.31 514.912 Q117.139 518.453 120.75 518.453 Q124.384 518.453 126.19 514.912 Q128.019 511.347 128.019 504.24 Q128.019 497.111 126.19 493.569 Q124.384 490.004 120.75 490.004 M120.75 486.301 Q126.56 486.301 129.616 490.907 Q132.695 495.49 132.695 504.24 Q132.695 512.967 129.616 517.574 Q126.56 522.157 120.75 522.157 Q114.94 522.157 111.861 517.574 Q108.806 512.967 108.806 504.24 Q108.806 495.49 111.861 490.907 Q114.94 486.301 120.75 486.301 Z" fill="#000000" fill-rule="evenodd" fill-opacity="1" /><path clip-path="url(#clip980)" d="M142.399 468.497 Q139.465 468.497 137.98 471.393 Q136.513 474.271 136.513 480.063 Q136.513 485.837 137.98 488.734 Q139.465 491.611 142.399 491.611 Q145.352 491.611 146.819 488.734 Q148.305 485.837 148.305 480.063 Q148.305 474.271 146.819 471.393 Q145.352 468.497 142.399 468.497 M142.399 465.487 Q147.12 465.487 149.603 469.23 Q152.104 472.954 152.104 480.063 Q152.104 487.154 149.603 490.897 Q147.12 494.621 142.399 494.621 Q137.679 494.621 135.177 490.897 Q132.695 487.154 132.695 480.063 Q132.695 472.954 135.177 469.23 Q137.679 465.487 142.399 465.487 Z" fill="#000000" fill-rule="evenodd" fill-opacity="1" /><circle clip-path="url(#clip982)" cx="188.104" cy="1433.78" r="14.4" fill="#009af9" fill-rule="evenodd" fill-opacity="1" stroke="#000000" stroke-opacity="1" stroke-width="3.2"/>
<circle clip-path="url(#clip982)" cx="839.729" cy="919.385" r="14.4" fill="#009af9" fill-rule="evenodd" fill-opacity="1" stroke="#000000" stroke-opacity="1" stroke-width="3.2"/>
<circle clip-path="url(#clip982)" cx="1220.91" cy="895.89" r="14.4" fill="#009af9" fill-rule="evenodd" fill-opacity="1" stroke="#000000" stroke-opacity="1" stroke-width="3.2"/>
<circle clip-path="url(#clip982)" cx="1491.35" cy="782.961" r="14.4" fill="#009af9" fill-rule="evenodd" fill-opacity="1" stroke="#000000" stroke-opacity="1" stroke-width="3.2"/>
<circle clip-path="url(#clip982)" cx="1701.13" cy="668.942" r="14.4" fill="#009af9" fill-rule="evenodd" fill-opacity="1" stroke="#000000" stroke-opacity="1" stroke-width="3.2"/>
<circle clip-path="url(#clip982)" cx="1872.53" cy="577.995" r="14.4" fill="#009af9" fill-rule="evenodd" fill-opacity="1" stroke="#000000" stroke-opacity="1" stroke-width="3.2"/>
<polyline clip-path="url(#clip982)" style="stroke:#e26f46; stroke-linecap:butt; stroke-linejoin:round; stroke-width:12; stroke-opacity:1; fill:none" points="
  188.104,931.118 839.729,657.698 1220.91,497.758 1491.35,384.279 1701.13,296.257 1872.53,224.338 
  "/>
<polyline clip-path="url(#clip982)" style="stroke:#3da44d; stroke-linecap:butt; stroke-linejoin:round; stroke-width:12; stroke-opacity:1; fill:none" points="
  188.104,1147.8 839.729,737.668 1220.91,497.758 1491.35,327.539 1701.13,195.507 1872.53,87.6286 
  "/>
<path clip-path="url(#clip980)" d="
M1948.26 302.168 L2280.6 302.168 L2280.6 94.8081 L1948.26 94.8081  Z
  " fill="#ffffff" fill-rule="evenodd" fill-opacity="1"/>
<polyline clip-path="url(#clip980)" style="stroke:#000000; stroke-linecap:butt; stroke-linejoin:round; stroke-width:4; stroke-opacity:1; fill:none" points="
  1948.26,302.168 2280.6,302.168 2280.6,94.8081 1948.26,94.8081 1948.26,302.168 
  "/>
<circle clip-path="url(#clip980)" cx="2044.46" cy="146.648" r="23.04" fill="#009af9" fill-rule="evenodd" fill-opacity="1" stroke="#000000" stroke-opacity="1" stroke-width="5.12"/>
<path clip-path="url(#clip980)" d="M2154.51 166.336 Q2152.71 170.965 2150.99 172.377 Q2149.28 173.789 2146.41 173.789 L2143.01 173.789 L2143.01 170.224 L2145.51 170.224 Q2147.27 170.224 2148.24 169.391 Q2149.21 168.558 2150.39 165.456 L2151.16 163.511 L2140.67 138.002 L2145.18 138.002 L2153.28 158.28 L2161.39 138.002 L2165.9 138.002 L2154.51 166.336 Z" fill="#000000" fill-rule="evenodd" fill-opacity="1" /><path clip-path="url(#clip980)" d="M2173.19 159.993 L2180.83 159.993 L2180.83 133.627 L2172.52 135.294 L2172.52 131.035 L2180.78 129.368 L2185.46 129.368 L2185.46 159.993 L2193.1 159.993 L2193.1 163.928 L2173.19 163.928 L2173.19 159.993 Z" fill="#000000" fill-rule="evenodd" fill-opacity="1" /><polyline clip-path="url(#clip980)" style="stroke:#e26f46; stroke-linecap:butt; stroke-linejoin:round; stroke-width:4; stroke-opacity:1; fill:none" points="
  1972.31,198.488 2116.62,198.488 
  "/>
<path clip-path="url(#clip980)" d="M2162.38 200.12 L2162.38 215.768 L2158.12 215.768 L2158.12 200.259 Q2158.12 196.578 2156.69 194.75 Q2155.25 192.921 2152.38 192.921 Q2148.93 192.921 2146.94 195.12 Q2144.95 197.319 2144.95 201.115 L2144.95 215.768 L2140.67 215.768 L2140.67 189.842 L2144.95 189.842 L2144.95 193.87 Q2146.48 191.532 2148.54 190.375 Q2150.62 189.217 2153.33 189.217 Q2157.8 189.217 2160.09 191.995 Q2162.38 194.75 2162.38 200.12 Z" fill="#000000" fill-rule="evenodd" fill-opacity="1" /><path clip-path="url(#clip980)" d="M2188.54 181.208 L2201.11 194.102 L2196.46 194.102 L2186.27 184.958 L2176.09 194.102 L2171.43 194.102 L2184 181.208 L2188.54 181.208 Z" fill="#000000" fill-rule="evenodd" fill-opacity="1" /><path clip-path="url(#clip980)" d="M2215.23 211.833 L2231.55 211.833 L2231.55 215.768 L2209.6 215.768 L2209.6 211.833 Q2212.27 209.078 2216.85 204.449 Q2221.46 199.796 2222.64 198.453 Q2224.88 195.93 2225.76 194.194 Q2226.66 192.435 2226.66 190.745 Q2226.66 187.99 2224.72 186.254 Q2222.8 184.518 2219.7 184.518 Q2217.5 184.518 2215.04 185.282 Q2212.61 186.046 2209.84 187.597 L2209.84 182.875 Q2212.66 181.741 2215.11 181.162 Q2217.57 180.583 2219.6 180.583 Q2224.97 180.583 2228.17 183.268 Q2231.36 185.953 2231.36 190.444 Q2231.36 192.574 2230.55 194.495 Q2229.77 196.393 2227.66 198.986 Q2227.08 199.657 2223.98 202.875 Q2220.88 206.069 2215.23 211.833 Z" fill="#000000" fill-rule="evenodd" fill-opacity="1" /><polyline clip-path="url(#clip980)" style="stroke:#3da44d; stroke-linecap:butt; stroke-linejoin:round; stroke-width:4; stroke-opacity:1; fill:none" points="
  1972.31,250.328 2116.62,250.328 
  "/>
<path clip-path="url(#clip980)" d="M2162.38 251.96 L2162.38 267.608 L2158.12 267.608 L2158.12 252.099 Q2158.12 248.418 2156.69 246.59 Q2155.25 244.761 2152.38 244.761 Q2148.93 244.761 2146.94 246.96 Q2144.95 249.159 2144.95 252.955 L2144.95 267.608 L2140.67 267.608 L2140.67 241.682 L2144.95 241.682 L2144.95 245.71 Q2146.48 243.372 2148.54 242.215 Q2150.62 241.057 2153.33 241.057 Q2157.8 241.057 2160.09 243.835 Q2162.38 246.59 2162.38 251.96 Z" fill="#000000" fill-rule="evenodd" fill-opacity="1" /><path clip-path="url(#clip980)" d="M2188.54 233.048 L2201.11 245.942 L2196.46 245.942 L2186.27 236.798 L2176.09 245.942 L2171.43 245.942 L2184 233.048 L2188.54 233.048 Z" fill="#000000" fill-rule="evenodd" fill-opacity="1" /><path clip-path="url(#clip980)" d="M2225.37 248.974 Q2228.72 249.692 2230.6 251.96 Q2232.5 254.229 2232.5 257.562 Q2232.5 262.678 2228.98 265.478 Q2225.46 268.279 2218.98 268.279 Q2216.8 268.279 2214.49 267.84 Q2212.2 267.423 2209.74 266.566 L2209.74 262.053 Q2211.69 263.187 2214 263.766 Q2216.32 264.344 2218.84 264.344 Q2223.24 264.344 2225.53 262.608 Q2227.84 260.872 2227.84 257.562 Q2227.84 254.506 2225.69 252.793 Q2223.56 251.057 2219.74 251.057 L2215.72 251.057 L2215.72 247.215 L2219.93 247.215 Q2223.38 247.215 2225.21 245.849 Q2227.03 244.46 2227.03 241.868 Q2227.03 239.205 2225.14 237.793 Q2223.26 236.358 2219.74 236.358 Q2217.82 236.358 2215.62 236.775 Q2213.42 237.192 2210.78 238.071 L2210.78 233.905 Q2213.45 233.164 2215.76 232.793 Q2218.1 232.423 2220.16 232.423 Q2225.48 232.423 2228.59 234.854 Q2231.69 237.261 2231.69 241.381 Q2231.69 244.252 2230.04 246.242 Q2228.4 248.21 2225.37 248.974 Z" fill="#000000" fill-rule="evenodd" fill-opacity="1" /></svg>
