<?xml version="1.0" encoding="utf-8"?>
<svg xmlns="http://www.w3.org/2000/svg" xmlns:xlink="http://www.w3.org/1999/xlink" width="600" height="400" viewBox="0 0 2400 1600">
<defs>
  <clipPath id="clip580">
    <rect x="0" y="0" width="2400" height="1600"/>
  </clipPath>
</defs>
<path clip-path="url(#clip580)" d="
M0 1600 L2400 1600 L2400 0 L0 0  Z
  " fill="#ffffff" fill-rule="evenodd" fill-opacity="1"/>
<defs>
  <clipPath id="clip581">
    <rect x="480" y="0" width="1681" height="1600"/>
  </clipPath>
</defs>
<path clip-path="url(#clip580)" d="
M213.607 1486.45 L2352.76 1486.45 L2352.76 47.2441 L213.607 47.2441  Z
  " fill="#ffffff" fill-rule="evenodd" fill-opacity="1"/>
<defs>
  <clipPath id="clip582">
    <rect x="213" y="47" width="2140" height="1440"/>
  </clipPath>
</defs>
<polyline clip-path="url(#clip582)" style="stroke:#000000; stroke-linecap:butt; stroke-linejoin:round; stroke-width:2; stroke-opacity:0.1; fill:none" points="
  699.005,1486.45 699.005,47.2441 
  "/>
<polyline clip-path="url(#clip582)" style="stroke:#000000; stroke-linecap:butt; stroke-linejoin:round; stroke-width:2; stroke-opacity:0.1; fill:none" points="
  1230.07,1486.45 1230.07,47.2441 
  "/>
<polyline clip-path="url(#clip582)" style="stroke:#000000; stroke-linecap:butt; stroke-linejoin:round; stroke-width:2; stroke-opacity:0.1; fill:none" points="
  1761.14,1486.45 1761.14,47.2441 
  "/>
<polyline clip-path="url(#clip582)" style="stroke:#000000; stroke-linecap:butt; stroke-linejoin:round; stroke-width:2; stroke-opacity:0.1; fill:none" points="
  2292.21,1486.45 2292.21,47.2441 
  "/>
<polyline clip-path="url(#clip580)" style="stroke:#000000; stroke-linecap:butt; stroke-linejoin:round; stroke-width:4; stroke-opacity:1; fill:none" points="
  213.607,1486.45 2352.76,1486.45 
  "/>
<polyline clip-path="url(#clip580)" style="stroke:#000000; stroke-linecap:butt; stroke-linejoin:round; stroke-width:4; stroke-opacity:1; fill:none" points="
  699.005,1486.45 699.005,1467.55 
  "/>
<polyline clip-path="url(#clip580)" style="stroke:#000000; stroke-linecap:butt; stroke-linejoin:round; stroke-width:4; stroke-opacity:1; fill:none" points="
  1230.07,1486.45 1230.07,1467.55 
  "/>
<polyline clip-path="url(#clip580)" style="stroke:#000000; stroke-linecap:butt; stroke-linejoin:round; stroke-width:4; stroke-opacity:1; fill:none" points="
  1761.14,1486.45 1761.14,1467.55 
  "/>
<polyline clip-path="url(#clip580)" style="stroke:#000000; stroke-linecap:butt; stroke-linejoin:round; stroke-width:4; stroke-opacity:1; fill:none" points="
  2292.21,1486.45 2292.21,1467.55 
  "/>
<path clip-path="url(#clip580)" d="M689.283 1514.29 L707.639 1514.29 L707.639 1518.22 L693.565 1518.22 L693.565 1526.7 Q694.584 1526.35 695.602 1526.19 Q696.621 1526 697.639 1526 Q703.426 1526 706.806 1529.17 Q710.186 1532.34 710.186 1537.76 Q710.186 1543.34 706.713 1546.44 Q703.241 1549.52 696.922 1549.52 Q694.746 1549.52 692.477 1549.15 Q690.232 1548.78 687.825 1548.04 L687.825 1543.34 Q689.908 1544.47 692.13 1545.03 Q694.352 1545.58 696.829 1545.58 Q700.834 1545.58 703.172 1543.48 Q705.51 1541.37 705.51 1537.76 Q705.51 1534.15 703.172 1532.04 Q700.834 1529.94 696.829 1529.94 Q694.954 1529.94 693.079 1530.35 Q691.227 1530.77 689.283 1531.65 L689.283 1514.29 Z" fill="#000000" fill-rule="evenodd" fill-opacity="1" /><path clip-path="url(#clip580)" d="M1204.76 1544.91 L1212.4 1544.91 L1212.4 1518.55 L1204.09 1520.21 L1204.09 1515.95 L1212.35 1514.29 L1217.03 1514.29 L1217.03 1544.91 L1224.67 1544.91 L1224.67 1548.85 L1204.76 1548.85 L1204.76 1544.91 Z" fill="#000000" fill-rule="evenodd" fill-opacity="1" /><path clip-path="url(#clip580)" d="M1244.11 1517.37 Q1240.5 1517.37 1238.67 1520.93 Q1236.87 1524.47 1236.87 1531.6 Q1236.87 1538.71 1238.67 1542.27 Q1240.5 1545.82 1244.11 1545.82 Q1247.75 1545.82 1249.55 1542.27 Q1251.38 1538.71 1251.38 1531.6 Q1251.38 1524.47 1249.55 1520.93 Q1247.75 1517.37 1244.11 1517.37 M1244.11 1513.66 Q1249.92 1513.66 1252.98 1518.27 Q1256.06 1522.85 1256.06 1531.6 Q1256.06 1540.33 1252.98 1544.94 Q1249.92 1549.52 1244.11 1549.52 Q1238.3 1549.52 1235.23 1544.94 Q1232.17 1540.33 1232.17 1531.6 Q1232.17 1522.85 1235.23 1518.27 Q1238.3 1513.66 1244.11 1513.66 Z" fill="#000000" fill-rule="evenodd" fill-opacity="1" /><path clip-path="url(#clip580)" d="M1736.33 1544.91 L1743.97 1544.91 L1743.97 1518.55 L1735.66 1520.21 L1735.66 1515.95 L1743.92 1514.29 L1748.6 1514.29 L1748.6 1544.91 L1756.24 1544.91 L1756.24 1548.85 L1736.33 1548.85 L1736.33 1544.91 Z" fill="#000000" fill-rule="evenodd" fill-opacity="1" /><path clip-path="url(#clip580)" d="M1765.73 1514.29 L1784.08 1514.29 L1784.08 1518.22 L1770.01 1518.22 L1770.01 1526.7 Q1771.03 1526.35 1772.05 1526.19 Q1773.07 1526 1774.08 1526 Q1779.87 1526 1783.25 1529.17 Q1786.63 1532.34 1786.63 1537.76 Q1786.63 1543.34 1783.16 1546.44 Q1779.69 1549.52 1773.37 1549.52 Q1771.19 1549.52 1768.92 1549.15 Q1766.68 1548.78 1764.27 1548.04 L1764.27 1543.34 Q1766.35 1544.47 1768.57 1545.03 Q1770.8 1545.58 1773.27 1545.58 Q1777.28 1545.58 1779.62 1543.48 Q1781.95 1541.37 1781.95 1537.76 Q1781.95 1534.15 1779.62 1532.04 Q1777.28 1529.94 1773.27 1529.94 Q1771.4 1529.94 1769.52 1530.35 Q1767.67 1530.77 1765.73 1531.65 L1765.73 1514.29 Z" fill="#000000" fill-rule="evenodd" fill-opacity="1" /><path clip-path="url(#clip580)" d="M2270.99 1544.91 L2287.31 1544.91 L2287.31 1548.85 L2265.36 1548.85 L2265.36 1544.91 Q2268.02 1542.16 2272.61 1537.53 Q2277.21 1532.88 2278.39 1531.53 Q2280.64 1529.01 2281.52 1527.27 Q2282.42 1525.51 2282.42 1523.82 Q2282.42 1521.07 2280.48 1519.33 Q2278.56 1517.6 2275.45 1517.6 Q2273.26 1517.6 2270.8 1518.36 Q2268.37 1519.13 2265.59 1520.68 L2265.59 1515.95 Q2268.42 1514.82 2270.87 1514.24 Q2273.33 1513.66 2275.36 1513.66 Q2280.73 1513.66 2283.93 1516.35 Q2287.12 1519.03 2287.12 1523.52 Q2287.12 1525.65 2286.31 1527.57 Q2285.52 1529.47 2283.42 1532.07 Q2282.84 1532.74 2279.74 1535.95 Q2276.64 1539.15 2270.99 1544.91 Z" fill="#000000" fill-rule="evenodd" fill-opacity="1" /><path clip-path="url(#clip580)" d="M2307.12 1517.37 Q2303.51 1517.37 2301.68 1520.93 Q2299.88 1524.47 2299.88 1531.6 Q2299.88 1538.71 2301.68 1542.27 Q2303.51 1545.82 2307.12 1545.82 Q2310.76 1545.82 2312.56 1542.27 Q2314.39 1538.71 2314.39 1531.6 Q2314.39 1524.47 2312.56 1520.93 Q2310.76 1517.37 2307.12 1517.37 M2307.12 1513.66 Q2312.93 1513.66 2315.99 1518.27 Q2319.07 1522.85 2319.07 1531.6 Q2319.07 1540.33 2315.99 1544.94 Q2312.93 1549.52 2307.12 1549.52 Q2301.31 1549.52 2298.23 1544.94 Q2295.18 1540.33 2295.18 1531.6 Q2295.18 1522.85 2298.23 1518.27 Q2301.31 1513.66 2307.12 1513.66 Z" fill="#000000" fill-rule="evenodd" fill-opacity="1" /><polyline clip-path="url(#clip582)" style="stroke:#000000; stroke-linecap:butt; stroke-linejoin:round; stroke-width:2; stroke-opacity:0.1; fill:none" points="
  213.607,1130.71 2352.76,1130.71 
  "/>
<polyline clip-path="url(#clip582)" style="stroke:#000000; stroke-linecap:butt; stroke-linejoin:round; stroke-width:2; stroke-opacity:0.1; fill:none" points="
  213.607,637.703 2352.76,637.703 
  "/>
<polyline clip-path="url(#clip582)" style="stroke:#000000; stroke-linecap:butt; stroke-linejoin:round; stroke-width:2; stroke-opacity:0.1; fill:none" points="
  213.607,144.694 2352.76,144.694 
  "/>
<polyline clip-path="url(#clip580)" style="stroke:#000000; stroke-linecap:butt; stroke-linejoin:round; stroke-width:4; stroke-opacity:1; fill:none" points="
  213.607,1486.45 213.607,47.2441 
  "/>
<polyline clip-path="url(#clip580)" style="stroke:#000000; stroke-linecap:butt; stroke-linejoin:round; stroke-width:4; stroke-opacity:1; fill:none" points="
  213.607,1130.71 232.505,1130.71 
  "/>
<polyline clip-path="url(#clip580)" style="stroke:#000000; stroke-linecap:butt; stroke-linejoin:round; stroke-width:4; stroke-opacity:1; fill:none" points="
  213.607,637.703 232.505,637.703 
  "/>
<polyline clip-path="url(#clip580)" style="stroke:#000000; stroke-linecap:butt; stroke-linejoin:round; stroke-width:4; stroke-opacity:1; fill:none" points="
  213.607,144.694 232.505,144.694 
  "/>
<path clip-path="url(#clip580)" d="M51.6634 1150.5 L59.3023 1150.5 L59.3023 1124.14 L50.9921 1125.81 L50.9921 1121.55 L59.256 1119.88 L63.9319 1119.88 L63.9319 1150.5 L71.5707 1150.5 L71.5707 1154.44 L51.6634 1154.44 L51.6634 1150.5 Z" fill="#000000" fill-rule="evenodd" fill-opacity="1" /><path clip-path="url(#clip580)" d="M91.0151 1122.96 Q87.404 1122.96 85.5753 1126.52 Q83.7697 1130.07 83.7697 1137.19 Q83.7697 1144.3 85.5753 1147.87 Q87.404 1151.41 91.0151 1151.41 Q94.6493 1151.41 96.4548 1147.87 Q98.2835 1144.3 98.2835 1137.19 Q98.2835 1130.07 96.4548 1126.52 Q94.6493 1122.96 91.0151 1122.96 M91.0151 1119.26 Q96.8252 1119.26 99.8808 1123.86 Q102.959 1128.44 102.959 1137.19 Q102.959 1145.92 99.8808 1150.53 Q96.8252 1155.11 91.0151 1155.11 Q85.2049 1155.11 82.1262 1150.53 Q79.0707 1145.92 79.0707 1137.19 Q79.0707 1128.44 82.1262 1123.86 Q85.2049 1119.26 91.0151 1119.26 Z" fill="#000000" fill-rule="evenodd" fill-opacity="1" /><path clip-path="url(#clip580)" d="M102.959 1113.36 L127.071 1113.36 L127.071 1116.55 L102.959 1116.55 L102.959 1113.36 Z" fill="#000000" fill-rule="evenodd" fill-opacity="1" /><path clip-path="url(#clip580)" d="M135.929 1123.83 L142.136 1123.83 L142.136 1102.41 L135.384 1103.76 L135.384 1100.3 L142.098 1098.95 L145.898 1098.95 L145.898 1123.83 L152.104 1123.83 L152.104 1127.03 L135.929 1127.03 L135.929 1123.83 Z" fill="#000000" fill-rule="evenodd" fill-opacity="1" /><path clip-path="url(#clip580)" d="M167.903 1101.45 Q164.969 1101.45 163.483 1104.35 Q162.016 1107.23 162.016 1113.02 Q162.016 1118.79 163.483 1121.69 Q164.969 1124.57 167.903 1124.57 Q170.855 1124.57 172.322 1121.69 Q173.808 1118.79 173.808 1113.02 Q173.808 1107.23 172.322 1104.35 Q170.855 1101.45 167.903 1101.45 M167.903 1098.44 Q172.623 1098.44 175.106 1102.18 Q177.607 1105.91 177.607 1113.02 Q177.607 1120.11 175.106 1123.85 Q172.623 1127.58 167.903 1127.58 Q163.182 1127.58 160.68 1123.85 Q158.198 1120.11 158.198 1113.02 Q158.198 1105.91 160.68 1102.18 Q163.182 1098.44 167.903 1098.44 Z" fill="#000000" fill-rule="evenodd" fill-opacity="1" /><path clip-path="url(#clip580)" d="M76.9787 657.495 L84.6175 657.495 L84.6175 631.13 L76.3074 632.797 L76.3074 628.537 L84.5712 626.871 L89.2471 626.871 L89.2471 657.495 L96.886 657.495 L96.886 661.431 L76.9787 661.431 L76.9787 657.495 Z" fill="#000000" fill-rule="evenodd" fill-opacity="1" /><path clip-path="url(#clip580)" d="M116.33 629.949 Q112.719 629.949 110.891 633.514 Q109.085 637.056 109.085 644.185 Q109.085 651.292 110.891 654.857 Q112.719 658.398 116.33 658.398 Q119.965 658.398 121.77 654.857 Q123.599 651.292 123.599 644.185 Q123.599 637.056 121.77 633.514 Q119.965 629.949 116.33 629.949 M116.33 626.246 Q122.14 626.246 125.196 630.852 Q128.275 635.435 128.275 644.185 Q128.275 652.912 125.196 657.519 Q122.14 662.102 116.33 662.102 Q110.52 662.102 107.441 657.519 Q104.386 652.912 104.386 644.185 Q104.386 635.435 107.441 630.852 Q110.52 626.246 116.33 626.246 Z" fill="#000000" fill-rule="evenodd" fill-opacity="1" /><path clip-path="url(#clip580)" d="M128.275 620.347 L152.386 620.347 L152.386 623.544 L128.275 623.544 L128.275 620.347 Z" fill="#000000" fill-rule="evenodd" fill-opacity="1" /><path clip-path="url(#clip580)" d="M160.624 605.94 L175.539 605.94 L175.539 609.138 L164.103 609.138 L164.103 616.021 Q164.931 615.739 165.759 615.607 Q166.586 615.457 167.414 615.457 Q172.116 615.457 174.862 618.034 Q177.607 620.61 177.607 625.011 Q177.607 629.544 174.786 632.064 Q171.965 634.566 166.831 634.566 Q165.063 634.566 163.22 634.265 Q161.395 633.964 159.439 633.362 L159.439 629.544 Q161.132 630.466 162.937 630.917 Q164.743 631.368 166.755 631.368 Q170.009 631.368 171.909 629.657 Q173.808 627.945 173.808 625.011 Q173.808 622.077 171.909 620.366 Q170.009 618.654 166.755 618.654 Q165.232 618.654 163.709 618.993 Q162.204 619.331 160.624 620.046 L160.624 605.94 Z" fill="#000000" fill-rule="evenodd" fill-opacity="1" /><path clip-path="url(#clip580)" d="M106.902 164.486 L114.541 164.486 L114.541 138.12 L106.231 139.787 L106.231 135.528 L114.494 133.861 L119.17 133.861 L119.17 164.486 L126.809 164.486 L126.809 168.421 L106.902 168.421 L106.902 164.486 Z" fill="#000000" fill-rule="evenodd" fill-opacity="1" /><path clip-path="url(#clip580)" d="M146.253 136.94 Q142.642 136.94 140.814 140.505 Q139.008 144.046 139.008 151.176 Q139.008 158.282 140.814 161.847 Q142.642 165.389 146.253 165.389 Q149.888 165.389 151.693 161.847 Q153.522 158.282 153.522 151.176 Q153.522 144.046 151.693 140.505 Q149.888 136.94 146.253 136.94 M146.253 133.236 Q152.064 133.236 155.119 137.843 Q158.198 142.426 158.198 151.176 Q158.198 159.903 155.119 164.509 Q152.064 169.092 146.253 169.092 Q140.443 169.092 137.365 164.509 Q134.309 159.903 134.309 151.176 Q134.309 142.426 137.365 137.843 Q140.443 133.236 146.253 133.236 Z" fill="#000000" fill-rule="evenodd" fill-opacity="1" /><path clip-path="url(#clip580)" d="M167.903 115.432 Q164.969 115.432 163.483 118.329 Q162.016 121.206 162.016 126.999 Q162.016 132.773 163.483 135.669 Q164.969 138.547 167.903 138.547 Q170.855 138.547 172.322 135.669 Q173.808 132.773 173.808 126.999 Q173.808 121.206 172.322 118.329 Q170.855 115.432 167.903 115.432 M167.903 112.423 Q172.623 112.423 175.106 116.166 Q177.607 119.89 177.607 126.999 Q177.607 134.09 175.106 137.832 Q172.623 141.556 167.903 141.556 Q163.182 141.556 160.68 137.832 Q158.198 134.09 158.198 126.999 Q158.198 119.89 160.68 116.166 Q163.182 112.423 167.903 112.423 Z" fill="#000000" fill-rule="evenodd" fill-opacity="1" /><polyline clip-path="url(#clip582)" style="stroke:#009af9; stroke-linecap:butt; stroke-linejoin:round; stroke-width:12; stroke-opacity:1; fill:none" points="
  274.149,87.9763 380.363,165.04 486.577,247.023 592.791,376.113 699.005,624.692 805.219,1121.35 911.433,1419.9 1017.65,1423.51 1123.86,1414.5 1230.07,1423.68 
  1336.29,1424.39 1442.5,1413.52 1548.72,1434.65 1654.93,1445.72 1761.14,1432.23 1867.36,1433.47 1973.57,1424.93 2079.79,1441.83 2186,1421.92 2292.21,1422.75 
  
  "/>
<circle clip-path="url(#clip582)" cx="274.149" cy="87.9763" r="14.4" fill="#009af9" fill-rule="evenodd" fill-opacity="1" stroke="#000000" stroke-opacity="1" stroke-width="3.2"/>
<circle clip-path="url(#clip582)" cx="380.363" cy="165.04" r="14.4" fill="#009af9" fill-rule="evenodd" fill-opacity="1" stroke="#000000" stroke-opacity="1" stroke-width="3.2"/>
<circle clip-path="url(#clip582)" cx="486.577" cy="247.023" r="14.4" fill="#009af9" fill-rule="evenodd" fill-opacity="1" stroke="#000000" stroke-opacity="1" stroke-width="3.2"/>
<circle clip-path="url(#clip582)" cx="592.791" cy="376.113" r="14.4" fill="#009af9" fill-rule="evenodd" fill-opacity="1" stroke="#000000" stroke-opacity="1" stroke-width="3.2"/>
<circle clip-path="url(#clip582)" cx="699.005" cy="624.692" r="14.4" fill="#009af9" fill-rule="evenodd" fill-opacity="1" stroke="#000000" stroke-opacity="1" stroke-width="3.2"/>
<circle clip-path="url(#clip582)" cx="805.219" cy="1121.35" r="14.4" fill="#009af9" fill-rule="evenodd" fill-opacity="1" stroke="#000000" stroke-opacity="1" stroke-width="3.2"/>
<circle clip-path="url(#clip582)" cx="911.433" cy="1419.9" r="14.4" fill="#009af9" fill-rule="evenodd" fill-opacity="1" stroke="#000000" stroke-opacity="1" stroke-width="3.2"/>
<circle clip-path="url(#clip582)" cx="1017.65" cy="1423.51" r="14.4" fill="#009af9" fill-rule="evenodd" fill-opacity="1" stroke="#000000" stroke-opacity="1" stroke-width="3.2"/>
<circle clip-path="url(#clip582)" cx="1123.86" cy="1414.5" r="14.4" fill="#009af9" fill-rule="evenodd" fill-opacity="1" stroke="#000000" stroke-opacity="1" stroke-width="3.2"/>
<circle clip-path="url(#clip582)" cx="1230.07" cy="1423.68" r="14.4" fill="#009af9" fill-rule="evenodd" fill-opacity="1" stroke="#000000" stroke-opacity="1" stroke-width="3.2"/>
<circle clip-path="url(#clip582)" cx="1336.29" cy="1424.39" r="14.4" fill="#009af9" fill-rule="evenodd" fill-opacity="1" stroke="#000000" stroke-opacity="1" stroke-width="3.2"/>
<circle clip-path="url(#clip582)" cx="1442.5" cy="1413.52" r="14.4" fill="#009af9" fill-rule="evenodd" fill-opacity="1" stroke="#000000" stroke-opacity="1" stroke-width="3.2"/>
<circle clip-path="url(#clip582)" cx="1548.72" cy="1434.65" r="14.4" fill="#009af9" fill-rule="evenodd" fill-opacity="1" stroke="#000000" stroke-opacity="1" stroke-width="3.2"/>
<circle clip-path="url(#clip582)" cx="1654.93" cy="1445.72" r="14.4" fill="#009af9" fill-rule="evenodd" fill-opacity="1" stroke="#000000" stroke-opacity="1" stroke-width="3.2"/>
<circle clip-path="url(#clip582)" cx="1761.14" cy="1432.23" r="14.4" fill="#009af9" fill-rule="evenodd" fill-opacity="1" stroke="#000000" stroke-opacity="1" stroke-width="3.2"/>
<circle clip-path="url(#clip582)" cx="1867.36" cy="1433.47" r="14.4" fill="#009af9" fill-rule="evenodd" fill-opacity="1" stroke="#000000" stroke-opacity="1" stroke-width="3.2"/>
<circle clip-path="url(#clip582)" cx="1973.57" cy="1424.93" r="14.4" fill="#009af9" fill-rule="evenodd" fill-opacity="1" stroke="#000000" stroke-opacity="1" stroke-width="3.2"/>
<circle clip-path="url(#clip582)" cx="2079.79" cy="1441.83" r="14.4" fill="#009af9" fill-rule="evenodd" fill-opacity="1" stroke="#000000" stroke-opacity="1" stroke-width="3.2"/>
<circle clip-path="url(#clip582)" cx="2186" cy="1421.92" r="14.4" fill="#009af9" fill-rule="evenodd" fill-opacity="1" stroke="#000000" stroke-opacity="1" stroke-width="3.2"/>
<circle clip-path="url(#clip582)" cx="2292.21" cy="1422.75" r="14.4" fill="#009af9" fill-rule="evenodd" fill-opacity="1" stroke="#000000" stroke-opacity="1" stroke-width="3.2"/>
<path clip-path="url(#clip580)" d="
M1991.34 198.898 L2281.45 198.898 L2281.45 95.2176 L1991.34 95.2176  Z
  " fill="#ffffff" fill-rule="evenodd" fill-opacity="1"/>
<polyline clip-path="url(#clip580)" style="stroke:#000000; stroke-linecap:butt; stroke-linejoin:round; stroke-width:4; stroke-opacity:1; fill:none" points="
  1991.34,198.898 2281.45,198.898 2281.45,95.2176 1991.34,95.2176 1991.34,198.898 
  "/>
<polyline clip-path="url(#clip580)" style="stroke:#009af9; stroke-linecap:butt; stroke-linejoin:round; stroke-width:4; stroke-opacity:1; fill:none" points="
  2015.11,147.058 2157.72,147.058 
  "/>
<circle clip-path="url(#clip580)" cx="2086.41" cy="147.058" r="23.04" fill="#009af9" fill-rule="evenodd" fill-opacity="1" stroke="#000000" stroke-opacity="1" stroke-width="5.12"/>
<path clip-path="url(#clip580)" d="M2195.33 166.745 Q2193.52 171.375 2191.81 172.787 Q2190.1 174.199 2187.22 174.199 L2183.82 174.199 L2183.82 170.634 L2186.32 170.634 Q2188.08 170.634 2189.05 169.8 Q2190.03 168.967 2191.21 165.865 L2191.97 163.921 L2181.48 138.412 L2186 138.412 L2194.1 158.689 L2202.2 138.412 L2206.72 138.412 L2195.33 166.745 Z" fill="#000000" fill-rule="evenodd" fill-opacity="1" /><path clip-path="url(#clip580)" d="M2214.01 160.402 L2221.65 160.402 L2221.65 134.037 L2213.34 135.703 L2213.34 131.444 L2221.6 129.778 L2226.28 129.778 L2226.28 160.402 L2233.91 160.402 L2233.91 164.338 L2214.01 164.338 L2214.01 160.402 Z" fill="#000000" fill-rule="evenodd" fill-opacity="1" /></svg>
