<?xml version="1.0" encoding="utf-8"?>
<svg xmlns="http://www.w3.org/2000/svg" xmlns:xlink="http://www.w3.org/1999/xlink" width="600" height="400" viewBox="0 0 2400 1600">
<defs>
  <clipPath id="clip960">
    <rect x="0" y="0" width="2400" height="1600"/>
  </clipPath>
</defs>
<path clip-path="url(#clip960)" d="
M0 1600 L2400 1600 L2400 0 L0 0  Z
  " fill="#ffffff" fill-rule="evenodd" fill-opacity="1"/>
<defs>
  <clipPath id="clip961">
    <rect x="480" y="0" width="1681" height="1600"/>
  </clipPath>
</defs>
<path clip-path="url(#clip960)" d="
M245.001 1486.45 L2352.76 1486.45 L2352.76 47.2441 L245.001 47.2441  Z
  " fill="#ffffff" fill-rule="evenodd" fill-opacity="1"/>
<defs>
  <clipPath id="clip962">
    <rect x="245" y="47" width="2109" height="1440"/>
  </clipPath>
</defs>
<polyline clip-path="url(#clip962)" style="stroke:#000000; stroke-linecap:butt; stroke-linejoin:round; stroke-width:2; stroke-opacity:0.1; fill:none" points="
  304.654,1486.45 304.654,47.2441 
  "/>
<polyline clip-path="url(#clip962)" style="stroke:#000000; stroke-linecap:butt; stroke-linejoin:round; stroke-width:2; stroke-opacity:0.1; fill:none" points="
  801.766,1486.45 801.766,47.2441 
  "/>
<polyline clip-path="url(#clip962)" style="stroke:#000000; stroke-linecap:butt; stroke-linejoin:round; stroke-width:2; stroke-opacity:0.1; fill:none" points="
  1298.88,1486.45 1298.88,47.2441 
  "/>
<polyline clip-path="url(#clip962)" style="stroke:#000000; stroke-linecap:butt; stroke-linejoin:round; stroke-width:2; stroke-opacity:0.1; fill:none" points="
  1795.99,1486.45 1795.99,47.2441 
  "/>
<polyline clip-path="url(#clip962)" style="stroke:#000000; stroke-linecap:butt; stroke-linejoin:round; stroke-width:2; stroke-opacity:0.1; fill:none" points="
  2293.1,1486.45 2293.1,47.2441 
  "/>
<polyline clip-path="url(#clip960)" style="stroke:#000000; stroke-linecap:butt; stroke-linejoin:round; stroke-width:4; stroke-opacity:1; fill:none" points="
  245.001,1486.45 2352.76,1486.45 
  "/>
<polyline clip-path="url(#clip960)" style="stroke:#000000; stroke-linecap:butt; stroke-linejoin:round; stroke-width:4; stroke-opacity:1; fill:none" points="
  304.654,1486.45 304.654,1467.55 
  "/>
<polyline clip-path="url(#clip960)" style="stroke:#000000; stroke-linecap:butt; stroke-linejoin:round; stroke-width:4; stroke-opacity:1; fill:none" points="
  801.766,1486.45 801.766,1467.55 
  "/>
<polyline clip-path="url(#clip960)" style="stroke:#000000; stroke-linecap:butt; stroke-linejoin:round; stroke-width:4; stroke-opacity:1; fill:none" points="
  1298.88,1486.45 1298.88,1467.55 
  "/>
<polyline clip-path="url(#clip960)" style="stroke:#000000; stroke-linecap:butt; stroke-linejoin:round; stroke-width:4; stroke-opacity:1; fill:none" points="
  1795.99,1486.45 1795.99,1467.55 
  "/>
<polyline clip-path="url(#clip960)" style="stroke:#000000; stroke-linecap:butt; stroke-linejoin:round; stroke-width:4; stroke-opacity:1; fill:none" points="
  2293.1,1486.45 2293.1,1467.55 
  "/>
<path clip-path="url(#clip960)" d="M266.957 1517.37 Q263.346 1517.37 261.518 1520.93 Q259.712 1524.47 259.712 1531.6 Q259.712 1538.71 261.518 1542.27 Q263.346 1545.82 266.957 1545.82 Q270.592 1545.82 272.397 1542.27 Q274.226 1538.71 274.226 1531.6 Q274.226 1524.47 272.397 1520.93 Q270.592 1517.37 266.957 1517.37 M266.957 1513.66 Q272.768 1513.66 275.823 1518.27 Q278.902 1522.85 278.902 1531.6 Q278.902 1540.33 275.823 1544.94 Q272.768 1549.52 266.957 1549.52 Q261.147 1549.52 258.069 1544.94 Q255.013 1540.33 255.013 1531.6 Q255.013 1522.85 258.069 1518.27 Q261.147 1513.66 266.957 1513.66 Z" fill="#000000" fill-rule="evenodd" fill-opacity="1" /><path clip-path="url(#clip960)" d="M287.119 1542.97 L292.004 1542.97 L292.004 1548.85 L287.119 1548.85 L287.119 1542.97 Z" fill="#000000" fill-rule="evenodd" fill-opacity="1" /><path clip-path="url(#clip960)" d="M312.189 1517.37 Q308.578 1517.37 306.749 1520.93 Q304.943 1524.47 304.943 1531.6 Q304.943 1538.71 306.749 1542.27 Q308.578 1545.82 312.189 1545.82 Q315.823 1545.82 317.628 1542.27 Q319.457 1538.71 319.457 1531.6 Q319.457 1524.47 317.628 1520.93 Q315.823 1517.37 312.189 1517.37 M312.189 1513.66 Q317.999 1513.66 321.054 1518.27 Q324.133 1522.85 324.133 1531.6 Q324.133 1540.33 321.054 1544.94 Q317.999 1549.52 312.189 1549.52 Q306.379 1549.52 303.3 1544.94 Q300.244 1540.33 300.244 1531.6 Q300.244 1522.85 303.3 1518.27 Q306.379 1513.66 312.189 1513.66 Z" fill="#000000" fill-rule="evenodd" fill-opacity="1" /><path clip-path="url(#clip960)" d="M342.351 1517.37 Q338.739 1517.37 336.911 1520.93 Q335.105 1524.47 335.105 1531.6 Q335.105 1538.71 336.911 1542.27 Q338.739 1545.82 342.351 1545.82 Q345.985 1545.82 347.79 1542.27 Q349.619 1538.71 349.619 1531.6 Q349.619 1524.47 347.79 1520.93 Q345.985 1517.37 342.351 1517.37 M342.351 1513.66 Q348.161 1513.66 351.216 1518.27 Q354.295 1522.85 354.295 1531.6 Q354.295 1540.33 351.216 1544.94 Q348.161 1549.52 342.351 1549.52 Q336.54 1549.52 333.462 1544.94 Q330.406 1540.33 330.406 1531.6 Q330.406 1522.85 333.462 1518.27 Q336.54 1513.66 342.351 1513.66 Z" fill="#000000" fill-rule="evenodd" fill-opacity="1" /><path clip-path="url(#clip960)" d="M764.567 1517.37 Q760.956 1517.37 759.127 1520.93 Q757.322 1524.47 757.322 1531.6 Q757.322 1538.71 759.127 1542.27 Q760.956 1545.82 764.567 1545.82 Q768.201 1545.82 770.007 1542.27 Q771.836 1538.71 771.836 1531.6 Q771.836 1524.47 770.007 1520.93 Q768.201 1517.37 764.567 1517.37 M764.567 1513.66 Q770.377 1513.66 773.433 1518.27 Q776.512 1522.85 776.512 1531.6 Q776.512 1540.33 773.433 1544.94 Q770.377 1549.52 764.567 1549.52 Q758.757 1549.52 755.678 1544.94 Q752.623 1540.33 752.623 1531.6 Q752.623 1522.85 755.678 1518.27 Q758.757 1513.66 764.567 1513.66 Z" fill="#000000" fill-rule="evenodd" fill-opacity="1" /><path clip-path="url(#clip960)" d="M784.729 1542.97 L789.613 1542.97 L789.613 1548.85 L784.729 1548.85 L784.729 1542.97 Z" fill="#000000" fill-rule="evenodd" fill-opacity="1" /><path clip-path="url(#clip960)" d="M803.826 1544.91 L820.146 1544.91 L820.146 1548.85 L798.201 1548.85 L798.201 1544.91 Q800.863 1542.16 805.447 1537.53 Q810.053 1532.88 811.234 1531.53 Q813.479 1529.01 814.359 1527.27 Q815.261 1525.51 815.261 1523.82 Q815.261 1521.07 813.317 1519.33 Q811.396 1517.6 808.294 1517.6 Q806.095 1517.6 803.641 1518.36 Q801.211 1519.13 798.433 1520.68 L798.433 1515.95 Q801.257 1514.82 803.711 1514.24 Q806.164 1513.66 808.201 1513.66 Q813.572 1513.66 816.766 1516.35 Q819.96 1519.03 819.96 1523.52 Q819.96 1525.65 819.15 1527.57 Q818.363 1529.47 816.257 1532.07 Q815.678 1532.74 812.576 1535.95 Q809.474 1539.15 803.826 1544.91 Z" fill="#000000" fill-rule="evenodd" fill-opacity="1" /><path clip-path="url(#clip960)" d="M830.007 1514.29 L848.363 1514.29 L848.363 1518.22 L834.289 1518.22 L834.289 1526.7 Q835.308 1526.35 836.326 1526.19 Q837.345 1526 838.363 1526 Q844.15 1526 847.53 1529.17 Q850.909 1532.34 850.909 1537.76 Q850.909 1543.34 847.437 1546.44 Q843.965 1549.52 837.646 1549.52 Q835.47 1549.52 833.201 1549.15 Q830.956 1548.78 828.548 1548.04 L828.548 1543.34 Q830.632 1544.47 832.854 1545.03 Q835.076 1545.58 837.553 1545.58 Q841.558 1545.58 843.896 1543.48 Q846.233 1541.37 846.233 1537.76 Q846.233 1534.15 843.896 1532.04 Q841.558 1529.94 837.553 1529.94 Q835.678 1529.94 833.803 1530.35 Q831.951 1530.77 830.007 1531.65 L830.007 1514.29 Z" fill="#000000" fill-rule="evenodd" fill-opacity="1" /><path clip-path="url(#clip960)" d="M1261.18 1517.37 Q1257.57 1517.37 1255.74 1520.93 Q1253.94 1524.47 1253.94 1531.6 Q1253.94 1538.71 1255.74 1542.27 Q1257.57 1545.82 1261.18 1545.82 Q1264.82 1545.82 1266.62 1542.27 Q1268.45 1538.71 1268.45 1531.6 Q1268.45 1524.47 1266.62 1520.93 Q1264.82 1517.37 1261.18 1517.37 M1261.18 1513.66 Q1266.99 1513.66 1270.05 1518.27 Q1273.13 1522.85 1273.13 1531.6 Q1273.13 1540.33 1270.05 1544.94 Q1266.99 1549.52 1261.18 1549.52 Q1255.37 1549.52 1252.29 1544.94 Q1249.24 1540.33 1249.24 1531.6 Q1249.24 1522.85 1252.29 1518.27 Q1255.37 1513.66 1261.18 1513.66 Z" fill="#000000" fill-rule="evenodd" fill-opacity="1" /><path clip-path="url(#clip960)" d="M1281.34 1542.97 L1286.23 1542.97 L1286.23 1548.85 L1281.34 1548.85 L1281.34 1542.97 Z" fill="#000000" fill-rule="evenodd" fill-opacity="1" /><path clip-path="url(#clip960)" d="M1296.46 1514.29 L1314.82 1514.29 L1314.82 1518.22 L1300.74 1518.22 L1300.74 1526.7 Q1301.76 1526.35 1302.78 1526.19 Q1303.8 1526 1304.82 1526 Q1310.6 1526 1313.98 1529.17 Q1317.36 1532.34 1317.36 1537.76 Q1317.36 1543.34 1313.89 1546.44 Q1310.42 1549.52 1304.1 1549.52 Q1301.92 1549.52 1299.65 1549.15 Q1297.41 1548.78 1295 1548.04 L1295 1543.34 Q1297.08 1544.47 1299.31 1545.03 Q1301.53 1545.58 1304.01 1545.58 Q1308.01 1545.58 1310.35 1543.48 Q1312.69 1541.37 1312.69 1537.76 Q1312.69 1534.15 1310.35 1532.04 Q1308.01 1529.94 1304.01 1529.94 Q1302.13 1529.94 1300.26 1530.35 Q1298.4 1530.77 1296.46 1531.65 L1296.46 1514.29 Z" fill="#000000" fill-rule="evenodd" fill-opacity="1" /><path clip-path="url(#clip960)" d="M1336.57 1517.37 Q1332.96 1517.37 1331.13 1520.93 Q1329.33 1524.47 1329.33 1531.6 Q1329.33 1538.71 1331.13 1542.27 Q1332.96 1545.82 1336.57 1545.82 Q1340.21 1545.82 1342.01 1542.27 Q1343.84 1538.71 1343.84 1531.6 Q1343.84 1524.47 1342.01 1520.93 Q1340.21 1517.37 1336.57 1517.37 M1336.57 1513.66 Q1342.38 1513.66 1345.44 1518.27 Q1348.52 1522.85 1348.52 1531.6 Q1348.52 1540.33 1345.44 1544.94 Q1342.38 1549.52 1336.57 1549.52 Q1330.76 1549.52 1327.69 1544.94 Q1324.63 1540.33 1324.63 1531.6 Q1324.63 1522.85 1327.69 1518.27 Q1330.76 1513.66 1336.57 1513.66 Z" fill="#000000" fill-rule="evenodd" fill-opacity="1" /><path clip-path="url(#clip960)" d="M1758.79 1517.37 Q1755.18 1517.37 1753.35 1520.93 Q1751.55 1524.47 1751.55 1531.6 Q1751.55 1538.71 1753.35 1542.27 Q1755.18 1545.82 1758.79 1545.82 Q1762.43 1545.82 1764.23 1542.27 Q1766.06 1538.71 1766.06 1531.6 Q1766.06 1524.47 1764.23 1520.93 Q1762.43 1517.37 1758.79 1517.37 M1758.79 1513.66 Q1764.6 1513.66 1767.66 1518.27 Q1770.74 1522.85 1770.74 1531.6 Q1770.74 1540.33 1767.66 1544.94 Q1764.6 1549.52 1758.79 1549.52 Q1752.98 1549.52 1749.9 1544.94 Q1746.85 1540.33 1746.85 1531.6 Q1746.85 1522.85 1749.9 1518.27 Q1752.98 1513.66 1758.79 1513.66 Z" fill="#000000" fill-rule="evenodd" fill-opacity="1" /><path clip-path="url(#clip960)" d="M1778.95 1542.97 L1783.84 1542.97 L1783.84 1548.85 L1778.95 1548.85 L1778.95 1542.97 Z" fill="#000000" fill-rule="evenodd" fill-opacity="1" /><path clip-path="url(#clip960)" d="M1792.84 1514.29 L1815.06 1514.29 L1815.06 1516.28 L1802.52 1548.85 L1797.63 1548.85 L1809.44 1518.22 L1792.84 1518.22 L1792.84 1514.29 Z" fill="#000000" fill-rule="evenodd" fill-opacity="1" /><path clip-path="url(#clip960)" d="M1824.23 1514.29 L1842.59 1514.29 L1842.59 1518.22 L1828.51 1518.22 L1828.51 1526.7 Q1829.53 1526.35 1830.55 1526.19 Q1831.57 1526 1832.59 1526 Q1838.37 1526 1841.75 1529.17 Q1845.13 1532.34 1845.13 1537.76 Q1845.13 1543.34 1841.66 1546.44 Q1838.19 1549.52 1831.87 1549.52 Q1829.69 1549.52 1827.43 1549.15 Q1825.18 1548.78 1822.77 1548.04 L1822.77 1543.34 Q1824.86 1544.47 1827.08 1545.03 Q1829.3 1545.58 1831.78 1545.58 Q1835.78 1545.58 1838.12 1543.48 Q1840.46 1541.37 1840.46 1537.76 Q1840.46 1534.15 1838.12 1532.04 Q1835.78 1529.94 1831.78 1529.94 Q1829.9 1529.94 1828.03 1530.35 Q1826.18 1530.77 1824.23 1531.65 L1824.23 1514.29 Z" fill="#000000" fill-rule="evenodd" fill-opacity="1" /><path clip-path="url(#clip960)" d="M2245.17 1544.91 L2252.81 1544.91 L2252.81 1518.55 L2244.5 1520.21 L2244.5 1515.95 L2252.77 1514.29 L2257.44 1514.29 L2257.44 1544.91 L2265.08 1544.91 L2265.08 1548.85 L2245.17 1548.85 L2245.17 1544.91 Z" fill="#000000" fill-rule="evenodd" fill-opacity="1" /><path clip-path="url(#clip960)" d="M2274.53 1542.97 L2279.41 1542.97 L2279.41 1548.85 L2274.53 1548.85 L2274.53 1542.97 Z" fill="#000000" fill-rule="evenodd" fill-opacity="1" /><path clip-path="url(#clip960)" d="M2299.6 1517.37 Q2295.98 1517.37 2294.16 1520.93 Q2292.35 1524.47 2292.35 1531.6 Q2292.35 1538.71 2294.16 1542.27 Q2295.98 1545.82 2299.6 1545.82 Q2303.23 1545.82 2305.04 1542.27 Q2306.86 1538.71 2306.86 1531.6 Q2306.86 1524.47 2305.04 1520.93 Q2303.23 1517.37 2299.6 1517.37 M2299.6 1513.66 Q2305.41 1513.66 2308.46 1518.27 Q2311.54 1522.85 2311.54 1531.6 Q2311.54 1540.33 2308.46 1544.94 Q2305.41 1549.52 2299.6 1549.52 Q2293.79 1549.52 2290.71 1544.94 Q2287.65 1540.33 2287.65 1531.6 Q2287.65 1522.85 2290.71 1518.27 Q2293.79 1513.66 2299.6 1513.66 Z" fill="#000000" fill-rule="evenodd" fill-opacity="1" /><path clip-path="url(#clip960)" d="M2329.76 1517.37 Q2326.15 1517.37 2324.32 1520.93 Q2322.51 1524.47 2322.51 1531.6 Q2322.51 1538.71 2324.32 1542.27 Q2326.15 1545.82 2329.76 1545.82 Q2333.39 1545.82 2335.2 1542.27 Q2337.03 1538.71 2337.03 1531.6 Q2337.03 1524.47 2335.2 1520.93 Q2333.39 1517.37 2329.76 1517.37 M2329.76 1513.66 Q2335.57 1513.66 2338.62 1518.27 Q2341.7 1522.85 2341.7 1531.6 Q2341.7 1540.33 2338.62 1544.94 Q2335.57 1549.52 2329.76 1549.52 Q2323.95 1549.52 2320.87 1544.94 Q2317.81 1540.33 2317.81 1531.6 Q2317.81 1522.85 2320.87 1518.27 Q2323.95 1513.66 2329.76 1513.66 Z" fill="#000000" fill-rule="evenodd" fill-opacity="1" /><polyline clip-path="url(#clip962)" style="stroke:#000000; stroke-linecap:butt; stroke-linejoin:round; stroke-width:2; stroke-opacity:0.1; fill:none" points="
  245.001,1321.71 2352.76,1321.71 
  "/>
<polyline clip-path="url(#clip962)" style="stroke:#000000; stroke-linecap:butt; stroke-linejoin:round; stroke-width:2; stroke-opacity:0.1; fill:none" points="
  245.001,1139.62 2352.76,1139.62 
  "/>
<polyline clip-path="url(#clip962)" style="stroke:#000000; stroke-linecap:butt; stroke-linejoin:round; stroke-width:2; stroke-opacity:0.1; fill:none" points="
  245.001,957.528 2352.76,957.528 
  "/>
<polyline clip-path="url(#clip962)" style="stroke:#000000; stroke-linecap:butt; stroke-linejoin:round; stroke-width:2; stroke-opacity:0.1; fill:none" points="
  245.001,775.439 2352.76,775.439 
  "/>
<polyline clip-path="url(#clip962)" style="stroke:#000000; stroke-linecap:butt; stroke-linejoin:round; stroke-width:2; stroke-opacity:0.1; fill:none" points="
  245.001,593.349 2352.76,593.349 
  "/>
<polyline clip-path="url(#clip962)" style="stroke:#000000; stroke-linecap:butt; stroke-linejoin:round; stroke-width:2; stroke-opacity:0.1; fill:none" points="
  245.001,411.26 2352.76,411.26 
  "/>
<polyline clip-path="url(#clip962)" style="stroke:#000000; stroke-linecap:butt; stroke-linejoin:round; stroke-width:2; stroke-opacity:0.1; fill:none" points="
  245.001,229.171 2352.76,229.171 
  "/>
<polyline clip-path="url(#clip960)" style="stroke:#000000; stroke-linecap:butt; stroke-linejoin:round; stroke-width:4; stroke-opacity:1; fill:none" points="
  245.001,1486.45 245.001,47.2441 
  "/>
<polyline clip-path="url(#clip960)" style="stroke:#000000; stroke-linecap:butt; stroke-linejoin:round; stroke-width:4; stroke-opacity:1; fill:none" points="
  245.001,1321.71 263.898,1321.71 
  "/>
<polyline clip-path="url(#clip960)" style="stroke:#000000; stroke-linecap:butt; stroke-linejoin:round; stroke-width:4; stroke-opacity:1; fill:none" points="
  245.001,1139.62 263.898,1139.62 
  "/>
<polyline clip-path="url(#clip960)" style="stroke:#000000; stroke-linecap:butt; stroke-linejoin:round; stroke-width:4; stroke-opacity:1; fill:none" points="
  245.001,957.528 263.898,957.528 
  "/>
<polyline clip-path="url(#clip960)" style="stroke:#000000; stroke-linecap:butt; stroke-linejoin:round; stroke-width:4; stroke-opacity:1; fill:none" points="
  245.001,775.439 263.898,775.439 
  "/>
<polyline clip-path="url(#clip960)" style="stroke:#000000; stroke-linecap:butt; stroke-linejoin:round; stroke-width:4; stroke-opacity:1; fill:none" points="
  245.001,593.349 263.898,593.349 
  "/>
<polyline clip-path="url(#clip960)" style="stroke:#000000; stroke-linecap:butt; stroke-linejoin:round; stroke-width:4; stroke-opacity:1; fill:none" points="
  245.001,411.26 263.898,411.26 
  "/>
<polyline clip-path="url(#clip960)" style="stroke:#000000; stroke-linecap:butt; stroke-linejoin:round; stroke-width:4; stroke-opacity:1; fill:none" points="
  245.001,229.171 263.898,229.171 
  "/>
<path clip-path="url(#clip960)" d="M52.7977 1335.05 L60.4365 1335.05 L60.4365 1308.69 L52.1264 1310.35 L52.1264 1306.09 L60.3902 1304.43 L65.0661 1304.43 L65.0661 1335.05 L72.705 1335.05 L72.705 1338.99 L52.7977 1338.99 L52.7977 1335.05 Z" fill="#000000" fill-rule="evenodd" fill-opacity="1" /><path clip-path="url(#clip960)" d="M82.1957 1304.43 L100.552 1304.43 L100.552 1308.36 L86.478 1308.36 L86.478 1316.83 Q87.4966 1316.49 88.5151 1316.32 Q89.5336 1316.14 90.5521 1316.14 Q96.3391 1316.14 99.7187 1319.31 Q103.098 1322.48 103.098 1327.9 Q103.098 1333.48 99.6261 1336.58 Q96.1539 1339.66 89.8345 1339.66 Q87.6586 1339.66 85.3901 1339.29 Q83.1447 1338.92 80.7373 1338.18 L80.7373 1333.48 Q82.8207 1334.61 85.0429 1335.17 Q87.2651 1335.72 89.7419 1335.72 Q93.7465 1335.72 96.0845 1333.62 Q98.4224 1331.51 98.4224 1327.9 Q98.4224 1324.29 96.0845 1322.18 Q93.7465 1320.07 89.7419 1320.07 Q87.8669 1320.07 85.9919 1320.49 Q84.1401 1320.91 82.1957 1321.79 L82.1957 1304.43 Z" fill="#000000" fill-rule="evenodd" fill-opacity="1" /><path clip-path="url(#clip960)" d="M126.478 1320.35 Q129.834 1321.07 131.709 1323.34 Q133.607 1325.61 133.607 1328.94 Q133.607 1334.06 130.089 1336.86 Q126.57 1339.66 120.089 1339.66 Q117.913 1339.66 115.598 1339.22 Q113.307 1338.8 110.853 1337.94 L110.853 1333.43 Q112.797 1334.57 115.112 1335.14 Q117.427 1335.72 119.95 1335.72 Q124.348 1335.72 126.64 1333.99 Q128.955 1332.25 128.955 1328.94 Q128.955 1325.88 126.802 1324.17 Q124.672 1322.44 120.853 1322.44 L116.825 1322.44 L116.825 1318.59 L121.038 1318.59 Q124.487 1318.59 126.316 1317.23 Q128.144 1315.84 128.144 1313.25 Q128.144 1310.58 126.246 1309.17 Q124.371 1307.74 120.853 1307.74 Q118.932 1307.74 116.733 1308.15 Q114.533 1308.57 111.895 1309.45 L111.895 1305.28 Q114.557 1304.54 116.871 1304.17 Q119.209 1303.8 121.27 1303.8 Q126.594 1303.8 129.695 1306.23 Q132.797 1308.64 132.797 1312.76 Q132.797 1315.63 131.154 1317.62 Q129.51 1319.59 126.478 1320.35 Z" fill="#000000" fill-rule="evenodd" fill-opacity="1" /><path clip-path="url(#clip960)" d="M142.473 1333.11 L147.357 1333.11 L147.357 1338.99 L142.473 1338.99 L142.473 1333.11 Z" fill="#000000" fill-rule="evenodd" fill-opacity="1" /><path clip-path="url(#clip960)" d="M157.589 1304.43 L175.945 1304.43 L175.945 1308.36 L161.871 1308.36 L161.871 1316.83 Q162.89 1316.49 163.908 1316.32 Q164.927 1316.14 165.945 1316.14 Q171.732 1316.14 175.112 1319.31 Q178.491 1322.48 178.491 1327.9 Q178.491 1333.48 175.019 1336.58 Q171.547 1339.66 165.228 1339.66 Q163.052 1339.66 160.783 1339.29 Q158.538 1338.92 156.13 1338.18 L156.13 1333.48 Q158.214 1334.61 160.436 1335.17 Q162.658 1335.72 165.135 1335.72 Q169.14 1335.72 171.478 1333.62 Q173.816 1331.51 173.816 1327.9 Q173.816 1324.29 171.478 1322.18 Q169.14 1320.07 165.135 1320.07 Q163.26 1320.07 161.385 1320.49 Q159.533 1320.91 157.589 1321.79 L157.589 1304.43 Z" fill="#000000" fill-rule="evenodd" fill-opacity="1" /><path clip-path="url(#clip960)" d="M201.871 1320.35 Q205.227 1321.07 207.102 1323.34 Q209.001 1325.61 209.001 1328.94 Q209.001 1334.06 205.482 1336.86 Q201.964 1339.66 195.482 1339.66 Q193.306 1339.66 190.991 1339.22 Q188.7 1338.8 186.246 1337.94 L186.246 1333.43 Q188.19 1334.57 190.505 1335.14 Q192.82 1335.72 195.343 1335.72 Q199.741 1335.72 202.033 1333.99 Q204.348 1332.25 204.348 1328.94 Q204.348 1325.88 202.195 1324.17 Q200.065 1322.44 196.246 1322.44 L192.218 1322.44 L192.218 1318.59 L196.431 1318.59 Q199.88 1318.59 201.709 1317.23 Q203.538 1315.84 203.538 1313.25 Q203.538 1310.58 201.639 1309.17 Q199.764 1307.74 196.246 1307.74 Q194.325 1307.74 192.126 1308.15 Q189.927 1308.57 187.288 1309.45 L187.288 1305.28 Q189.95 1304.54 192.265 1304.17 Q194.602 1303.8 196.663 1303.8 Q201.987 1303.8 205.089 1306.23 Q208.19 1308.64 208.19 1312.76 Q208.19 1315.63 206.547 1317.62 Q204.903 1319.59 201.871 1320.35 Z" fill="#000000" fill-rule="evenodd" fill-opacity="1" /><path clip-path="url(#clip960)" d="M51.6634 1152.96 L59.3023 1152.96 L59.3023 1126.6 L50.9921 1128.26 L50.9921 1124 L59.256 1122.34 L63.9319 1122.34 L63.9319 1152.96 L71.5707 1152.96 L71.5707 1156.9 L51.6634 1156.9 L51.6634 1152.96 Z" fill="#000000" fill-rule="evenodd" fill-opacity="1" /><path clip-path="url(#clip960)" d="M81.0614 1122.34 L99.4178 1122.34 L99.4178 1126.27 L85.3438 1126.27 L85.3438 1134.74 Q86.3623 1134.4 87.3808 1134.24 Q88.3993 1134.05 89.4178 1134.05 Q95.2049 1134.05 98.5845 1137.22 Q101.964 1140.39 101.964 1145.81 Q101.964 1151.39 98.4919 1154.49 Q95.0197 1157.57 88.7003 1157.57 Q86.5243 1157.57 84.2558 1157.2 Q82.0105 1156.83 79.6031 1156.09 L79.6031 1151.39 Q81.6864 1152.52 83.9086 1153.08 Q86.1308 1153.63 88.6077 1153.63 Q92.6123 1153.63 94.9502 1151.53 Q97.2882 1149.42 97.2882 1145.81 Q97.2882 1142.2 94.9502 1140.09 Q92.6123 1137.99 88.6077 1137.99 Q86.7327 1137.99 84.8577 1138.4 Q83.0058 1138.82 81.0614 1139.7 L81.0614 1122.34 Z" fill="#000000" fill-rule="evenodd" fill-opacity="1" /><path clip-path="url(#clip960)" d="M125.344 1138.26 Q128.7 1138.98 130.575 1141.25 Q132.473 1143.52 132.473 1146.85 Q132.473 1151.97 128.955 1154.77 Q125.436 1157.57 118.955 1157.57 Q116.779 1157.57 114.464 1157.13 Q112.172 1156.71 109.719 1155.86 L109.719 1151.34 Q111.663 1152.48 113.978 1153.05 Q116.293 1153.63 118.816 1153.63 Q123.214 1153.63 125.506 1151.9 Q127.82 1150.16 127.82 1146.85 Q127.82 1143.8 125.668 1142.08 Q123.538 1140.35 119.719 1140.35 L115.691 1140.35 L115.691 1136.5 L119.904 1136.5 Q123.353 1136.5 125.182 1135.14 Q127.01 1133.75 127.01 1131.16 Q127.01 1128.49 125.112 1127.08 Q123.237 1125.65 119.719 1125.65 Q117.797 1125.65 115.598 1126.06 Q113.399 1126.48 110.76 1127.36 L110.76 1123.19 Q113.422 1122.45 115.737 1122.08 Q118.075 1121.71 120.135 1121.71 Q125.459 1121.71 128.561 1124.14 Q131.663 1126.55 131.663 1130.67 Q131.663 1133.54 130.019 1135.53 Q128.376 1137.5 125.344 1138.26 Z" fill="#000000" fill-rule="evenodd" fill-opacity="1" /><path clip-path="url(#clip960)" d="M141.339 1151.02 L146.223 1151.02 L146.223 1156.9 L141.339 1156.9 L141.339 1151.02 Z" fill="#000000" fill-rule="evenodd" fill-opacity="1" /><path clip-path="url(#clip960)" d="M156.455 1122.34 L174.811 1122.34 L174.811 1126.27 L160.737 1126.27 L160.737 1134.74 Q161.755 1134.4 162.774 1134.24 Q163.792 1134.05 164.811 1134.05 Q170.598 1134.05 173.978 1137.22 Q177.357 1140.39 177.357 1145.81 Q177.357 1151.39 173.885 1154.49 Q170.413 1157.57 164.093 1157.57 Q161.917 1157.57 159.649 1157.2 Q157.404 1156.83 154.996 1156.09 L154.996 1151.39 Q157.08 1152.52 159.302 1153.08 Q161.524 1153.63 164.001 1153.63 Q168.005 1153.63 170.343 1151.53 Q172.681 1149.42 172.681 1145.81 Q172.681 1142.2 170.343 1140.09 Q168.005 1137.99 164.001 1137.99 Q162.126 1137.99 160.251 1138.4 Q158.399 1138.82 156.455 1139.7 L156.455 1122.34 Z" fill="#000000" fill-rule="evenodd" fill-opacity="1" /><path clip-path="url(#clip960)" d="M199.417 1126.41 L187.612 1144.86 L199.417 1144.86 L199.417 1126.41 M198.19 1122.34 L204.07 1122.34 L204.07 1144.86 L209.001 1144.86 L209.001 1148.75 L204.07 1148.75 L204.07 1156.9 L199.417 1156.9 L199.417 1148.75 L183.815 1148.75 L183.815 1144.24 L198.19 1122.34 Z" fill="#000000" fill-rule="evenodd" fill-opacity="1" /><path clip-path="url(#clip960)" d="M53.1449 970.873 L60.7837 970.873 L60.7837 944.507 L52.4736 946.174 L52.4736 941.915 L60.7374 940.248 L65.4133 940.248 L65.4133 970.873 L73.0522 970.873 L73.0522 974.808 L53.1449 974.808 L53.1449 970.873 Z" fill="#000000" fill-rule="evenodd" fill-opacity="1" /><path clip-path="url(#clip960)" d="M82.5429 940.248 L100.899 940.248 L100.899 944.183 L86.8253 944.183 L86.8253 952.655 Q87.8438 952.308 88.8623 952.146 Q89.8808 951.961 90.8993 951.961 Q96.6863 951.961 100.066 955.132 Q103.446 958.303 103.446 963.72 Q103.446 969.299 99.9733 972.4 Q96.5011 975.479 90.1817 975.479 Q88.0058 975.479 85.7373 975.109 Q83.492 974.738 81.0846 973.998 L81.0846 969.299 Q83.1679 970.433 85.3901 970.988 Q87.6123 971.544 90.0891 971.544 Q94.0937 971.544 96.4317 969.438 Q98.7696 967.331 98.7696 963.72 Q98.7696 960.109 96.4317 958.002 Q94.0937 955.896 90.0891 955.896 Q88.2141 955.896 86.3392 956.313 Q84.4873 956.729 82.5429 957.609 L82.5429 940.248 Z" fill="#000000" fill-rule="evenodd" fill-opacity="1" /><path clip-path="url(#clip960)" d="M126.825 956.174 Q130.182 956.891 132.057 959.16 Q133.955 961.428 133.955 964.762 Q133.955 969.877 130.436 972.678 Q126.918 975.479 120.436 975.479 Q118.26 975.479 115.945 975.039 Q113.654 974.623 111.2 973.766 L111.2 969.252 Q113.145 970.387 115.459 970.965 Q117.774 971.544 120.297 971.544 Q124.695 971.544 126.987 969.808 Q129.302 968.072 129.302 964.762 Q129.302 961.706 127.149 959.993 Q125.02 958.257 121.2 958.257 L117.172 958.257 L117.172 954.414 L121.385 954.414 Q124.834 954.414 126.663 953.049 Q128.492 951.66 128.492 949.067 Q128.492 946.405 126.594 944.993 Q124.719 943.558 121.2 943.558 Q119.279 943.558 117.08 943.975 Q114.881 944.391 112.242 945.271 L112.242 941.104 Q114.904 940.364 117.219 939.993 Q119.557 939.623 121.617 939.623 Q126.941 939.623 130.043 942.053 Q133.144 944.461 133.144 948.581 Q133.144 951.452 131.501 953.442 Q129.857 955.41 126.825 956.174 Z" fill="#000000" fill-rule="evenodd" fill-opacity="1" /><path clip-path="url(#clip960)" d="M142.82 968.928 L147.705 968.928 L147.705 974.808 L142.82 974.808 L142.82 968.928 Z" fill="#000000" fill-rule="evenodd" fill-opacity="1" /><path clip-path="url(#clip960)" d="M157.936 940.248 L176.292 940.248 L176.292 944.183 L162.218 944.183 L162.218 952.655 Q163.237 952.308 164.255 952.146 Q165.274 951.961 166.292 951.961 Q172.079 951.961 175.459 955.132 Q178.839 958.303 178.839 963.72 Q178.839 969.299 175.366 972.4 Q171.894 975.479 165.575 975.479 Q163.399 975.479 161.13 975.109 Q158.885 974.738 156.478 973.998 L156.478 969.299 Q158.561 970.433 160.783 970.988 Q163.005 971.544 165.482 971.544 Q169.487 971.544 171.825 969.438 Q174.163 967.331 174.163 963.72 Q174.163 960.109 171.825 958.002 Q169.487 955.896 165.482 955.896 Q163.607 955.896 161.732 956.313 Q159.88 956.729 157.936 957.609 L157.936 940.248 Z" fill="#000000" fill-rule="evenodd" fill-opacity="1" /><path clip-path="url(#clip960)" d="M188.098 940.248 L206.454 940.248 L206.454 944.183 L192.38 944.183 L192.38 952.655 Q193.399 952.308 194.417 952.146 Q195.436 951.961 196.454 951.961 Q202.241 951.961 205.621 955.132 Q209.001 958.303 209.001 963.72 Q209.001 969.299 205.528 972.4 Q202.056 975.479 195.737 975.479 Q193.561 975.479 191.292 975.109 Q189.047 974.738 186.64 973.998 L186.64 969.299 Q188.723 970.433 190.945 970.988 Q193.167 971.544 195.644 971.544 Q199.649 971.544 201.987 969.438 Q204.325 967.331 204.325 963.72 Q204.325 960.109 201.987 958.002 Q199.649 955.896 195.644 955.896 Q193.769 955.896 191.894 956.313 Q190.042 956.729 188.098 957.609 L188.098 940.248 Z" fill="#000000" fill-rule="evenodd" fill-opacity="1" /><path clip-path="url(#clip960)" d="M51.9875 788.783 L59.6263 788.783 L59.6263 762.418 L51.3162 764.085 L51.3162 759.825 L59.58 758.159 L64.2559 758.159 L64.2559 788.783 L71.8948 788.783 L71.8948 792.719 L51.9875 792.719 L51.9875 788.783 Z" fill="#000000" fill-rule="evenodd" fill-opacity="1" /><path clip-path="url(#clip960)" d="M81.3855 758.159 L99.7419 758.159 L99.7419 762.094 L85.6679 762.094 L85.6679 770.566 Q86.6864 770.219 87.7049 770.057 Q88.7234 769.872 89.7419 769.872 Q95.5289 769.872 98.9085 773.043 Q102.288 776.214 102.288 781.631 Q102.288 787.209 98.8159 790.311 Q95.3437 793.39 89.0243 793.39 Q86.8484 793.39 84.5799 793.02 Q82.3346 792.649 79.9272 791.908 L79.9272 787.209 Q82.0105 788.344 84.2327 788.899 Q86.4549 789.455 88.9317 789.455 Q92.9363 789.455 95.2743 787.348 Q97.6122 785.242 97.6122 781.631 Q97.6122 778.02 95.2743 775.913 Q92.9363 773.807 88.9317 773.807 Q87.0567 773.807 85.1818 774.223 Q83.3299 774.64 81.3855 775.52 L81.3855 758.159 Z" fill="#000000" fill-rule="evenodd" fill-opacity="1" /><path clip-path="url(#clip960)" d="M125.668 774.084 Q129.024 774.802 130.899 777.071 Q132.797 779.339 132.797 782.672 Q132.797 787.788 129.279 790.589 Q125.76 793.39 119.279 793.39 Q117.103 793.39 114.788 792.95 Q112.496 792.533 110.043 791.677 L110.043 787.163 Q111.987 788.297 114.302 788.876 Q116.617 789.455 119.14 789.455 Q123.538 789.455 125.83 787.719 Q128.144 785.983 128.144 782.672 Q128.144 779.617 125.992 777.904 Q123.862 776.168 120.043 776.168 L116.015 776.168 L116.015 772.325 L120.228 772.325 Q123.677 772.325 125.506 770.96 Q127.334 769.571 127.334 766.978 Q127.334 764.316 125.436 762.904 Q123.561 761.469 120.043 761.469 Q118.121 761.469 115.922 761.885 Q113.723 762.302 111.084 763.182 L111.084 759.015 Q113.746 758.274 116.061 757.904 Q118.399 757.534 120.459 757.534 Q125.783 757.534 128.885 759.964 Q131.987 762.372 131.987 766.492 Q131.987 769.362 130.344 771.353 Q128.7 773.321 125.668 774.084 Z" fill="#000000" fill-rule="evenodd" fill-opacity="1" /><path clip-path="url(#clip960)" d="M141.663 786.839 L146.547 786.839 L146.547 792.719 L141.663 792.719 L141.663 786.839 Z" fill="#000000" fill-rule="evenodd" fill-opacity="1" /><path clip-path="url(#clip960)" d="M156.779 758.159 L175.135 758.159 L175.135 762.094 L161.061 762.094 L161.061 770.566 Q162.079 770.219 163.098 770.057 Q164.117 769.872 165.135 769.872 Q170.922 769.872 174.302 773.043 Q177.681 776.214 177.681 781.631 Q177.681 787.209 174.209 790.311 Q170.737 793.39 164.417 793.39 Q162.242 793.39 159.973 793.02 Q157.728 792.649 155.32 791.908 L155.32 787.209 Q157.404 788.344 159.626 788.899 Q161.848 789.455 164.325 789.455 Q168.329 789.455 170.667 787.348 Q173.005 785.242 173.005 781.631 Q173.005 778.02 170.667 775.913 Q168.329 773.807 164.325 773.807 Q162.45 773.807 160.575 774.223 Q158.723 774.64 156.779 775.52 L156.779 758.159 Z" fill="#000000" fill-rule="evenodd" fill-opacity="1" /><path clip-path="url(#clip960)" d="M197.473 773.575 Q194.325 773.575 192.473 775.728 Q190.644 777.881 190.644 781.631 Q190.644 785.358 192.473 787.533 Q194.325 789.686 197.473 789.686 Q200.621 789.686 202.45 787.533 Q204.301 785.358 204.301 781.631 Q204.301 777.881 202.45 775.728 Q200.621 773.575 197.473 773.575 M206.755 758.923 L206.755 763.182 Q204.996 762.348 203.19 761.909 Q201.408 761.469 199.649 761.469 Q195.019 761.469 192.565 764.594 Q190.135 767.719 189.788 774.038 Q191.153 772.024 193.214 770.96 Q195.274 769.872 197.751 769.872 Q202.959 769.872 205.968 773.043 Q209.001 776.191 209.001 781.631 Q209.001 786.955 205.852 790.172 Q202.704 793.39 197.473 793.39 Q191.477 793.39 188.306 788.807 Q185.135 784.2 185.135 775.473 Q185.135 767.279 189.024 762.418 Q192.913 757.534 199.464 757.534 Q201.223 757.534 203.005 757.881 Q204.811 758.228 206.755 758.923 Z" fill="#000000" fill-rule="evenodd" fill-opacity="1" /><path clip-path="url(#clip960)" d="M53.0523 606.694 L60.6911 606.694 L60.6911 580.329 L52.381 581.995 L52.381 577.736 L60.6449 576.069 L65.3208 576.069 L65.3208 606.694 L72.9596 606.694 L72.9596 610.629 L53.0523 610.629 L53.0523 606.694 Z" fill="#000000" fill-rule="evenodd" fill-opacity="1" /><path clip-path="url(#clip960)" d="M82.4503 576.069 L100.807 576.069 L100.807 580.005 L86.7327 580.005 L86.7327 588.477 Q87.7512 588.13 88.7697 587.968 Q89.7882 587.782 90.8067 587.782 Q96.5937 587.782 99.9733 590.954 Q103.353 594.125 103.353 599.542 Q103.353 605.12 99.8808 608.222 Q96.4085 611.301 90.0891 611.301 Q87.9132 611.301 85.6447 610.93 Q83.3994 610.56 80.992 609.819 L80.992 605.12 Q83.0753 606.254 85.2975 606.81 Q87.5197 607.366 89.9965 607.366 Q94.0012 607.366 96.3391 605.259 Q98.6771 603.153 98.6771 599.542 Q98.6771 595.93 96.3391 593.824 Q94.0012 591.717 89.9965 591.717 Q88.1216 591.717 86.2466 592.134 Q84.3947 592.551 82.4503 593.43 L82.4503 576.069 Z" fill="#000000" fill-rule="evenodd" fill-opacity="1" /><path clip-path="url(#clip960)" d="M126.732 591.995 Q130.089 592.713 131.964 594.981 Q133.862 597.25 133.862 600.583 Q133.862 605.699 130.344 608.5 Q126.825 611.301 120.344 611.301 Q118.168 611.301 115.853 610.861 Q113.561 610.444 111.108 609.588 L111.108 605.074 Q113.052 606.208 115.367 606.787 Q117.682 607.366 120.205 607.366 Q124.603 607.366 126.894 605.629 Q129.209 603.893 129.209 600.583 Q129.209 597.528 127.057 595.815 Q124.927 594.079 121.107 594.079 L117.08 594.079 L117.08 590.236 L121.293 590.236 Q124.742 590.236 126.57 588.87 Q128.399 587.481 128.399 584.889 Q128.399 582.227 126.501 580.815 Q124.626 579.38 121.107 579.38 Q119.186 579.38 116.987 579.796 Q114.788 580.213 112.149 581.093 L112.149 576.926 Q114.811 576.185 117.126 575.815 Q119.464 575.444 121.524 575.444 Q126.848 575.444 129.95 577.875 Q133.052 580.282 133.052 584.403 Q133.052 587.273 131.408 589.264 Q129.765 591.231 126.732 591.995 Z" fill="#000000" fill-rule="evenodd" fill-opacity="1" /><path clip-path="url(#clip960)" d="M142.728 604.75 L147.612 604.75 L147.612 610.629 L142.728 610.629 L142.728 604.75 Z" fill="#000000" fill-rule="evenodd" fill-opacity="1" /><path clip-path="url(#clip960)" d="M157.843 576.069 L176.2 576.069 L176.2 580.005 L162.126 580.005 L162.126 588.477 Q163.144 588.13 164.163 587.968 Q165.181 587.782 166.2 587.782 Q171.987 587.782 175.366 590.954 Q178.746 594.125 178.746 599.542 Q178.746 605.12 175.274 608.222 Q171.802 611.301 165.482 611.301 Q163.306 611.301 161.038 610.93 Q158.792 610.56 156.385 609.819 L156.385 605.12 Q158.468 606.254 160.691 606.81 Q162.913 607.366 165.39 607.366 Q169.394 607.366 171.732 605.259 Q174.07 603.153 174.07 599.542 Q174.07 595.93 171.732 593.824 Q169.394 591.717 165.39 591.717 Q163.515 591.717 161.64 592.134 Q159.788 592.551 157.843 593.43 L157.843 576.069 Z" fill="#000000" fill-rule="evenodd" fill-opacity="1" /><path clip-path="url(#clip960)" d="M186.778 576.069 L209.001 576.069 L209.001 578.06 L196.454 610.629 L191.57 610.629 L203.376 580.005 L186.778 580.005 L186.778 576.069 Z" fill="#000000" fill-rule="evenodd" fill-opacity="1" /><path clip-path="url(#clip960)" d="M52.2421 424.605 L59.881 424.605 L59.881 398.239 L51.5708 399.906 L51.5708 395.647 L59.8347 393.98 L64.5106 393.98 L64.5106 424.605 L72.1494 424.605 L72.1494 428.54 L52.2421 428.54 L52.2421 424.605 Z" fill="#000000" fill-rule="evenodd" fill-opacity="1" /><path clip-path="url(#clip960)" d="M81.6401 393.98 L99.9965 393.98 L99.9965 397.915 L85.9225 397.915 L85.9225 406.388 Q86.941 406.04 87.9595 405.878 Q88.978 405.693 89.9965 405.693 Q95.7836 405.693 99.1632 408.864 Q102.543 412.036 102.543 417.452 Q102.543 423.031 99.0706 426.133 Q95.5984 429.212 89.279 429.212 Q87.103 429.212 84.8345 428.841 Q82.5892 428.471 80.1818 427.73 L80.1818 423.031 Q82.2651 424.165 84.4873 424.721 Q86.7095 425.276 89.1864 425.276 Q93.191 425.276 95.5289 423.17 Q97.8669 421.063 97.8669 417.452 Q97.8669 413.841 95.5289 411.735 Q93.191 409.628 89.1864 409.628 Q87.3114 409.628 85.4364 410.045 Q83.5845 410.462 81.6401 411.341 L81.6401 393.98 Z" fill="#000000" fill-rule="evenodd" fill-opacity="1" /><path clip-path="url(#clip960)" d="M125.922 409.906 Q129.279 410.624 131.154 412.892 Q133.052 415.161 133.052 418.494 Q133.052 423.61 129.533 426.411 Q126.015 429.212 119.533 429.212 Q117.358 429.212 115.043 428.772 Q112.751 428.355 110.297 427.499 L110.297 422.985 Q112.242 424.119 114.557 424.698 Q116.871 425.276 119.395 425.276 Q123.793 425.276 126.084 423.54 Q128.399 421.804 128.399 418.494 Q128.399 415.438 126.246 413.725 Q124.117 411.989 120.297 411.989 L116.27 411.989 L116.27 408.147 L120.482 408.147 Q123.932 408.147 125.76 406.781 Q127.589 405.392 127.589 402.8 Q127.589 400.138 125.691 398.726 Q123.816 397.29 120.297 397.29 Q118.376 397.29 116.177 397.707 Q113.978 398.124 111.339 399.003 L111.339 394.837 Q114.001 394.096 116.316 393.726 Q118.654 393.355 120.714 393.355 Q126.038 393.355 129.14 395.786 Q132.242 398.193 132.242 402.314 Q132.242 405.184 130.598 407.175 Q128.955 409.142 125.922 409.906 Z" fill="#000000" fill-rule="evenodd" fill-opacity="1" /><path clip-path="url(#clip960)" d="M141.918 422.661 L146.802 422.661 L146.802 428.54 L141.918 428.54 L141.918 422.661 Z" fill="#000000" fill-rule="evenodd" fill-opacity="1" /><path clip-path="url(#clip960)" d="M157.033 393.98 L175.39 393.98 L175.39 397.915 L161.316 397.915 L161.316 406.388 Q162.334 406.04 163.353 405.878 Q164.371 405.693 165.39 405.693 Q171.177 405.693 174.556 408.864 Q177.936 412.036 177.936 417.452 Q177.936 423.031 174.464 426.133 Q170.991 429.212 164.672 429.212 Q162.496 429.212 160.228 428.841 Q157.982 428.471 155.575 427.73 L155.575 423.031 Q157.658 424.165 159.88 424.721 Q162.103 425.276 164.579 425.276 Q168.584 425.276 170.922 423.17 Q173.26 421.063 173.26 417.452 Q173.26 413.841 170.922 411.735 Q168.584 409.628 164.579 409.628 Q162.704 409.628 160.83 410.045 Q158.978 410.462 157.033 411.341 L157.033 393.98 Z" fill="#000000" fill-rule="evenodd" fill-opacity="1" /><path clip-path="url(#clip960)" d="M197.149 412.128 Q193.815 412.128 191.894 413.911 Q189.996 415.693 189.996 418.818 Q189.996 421.943 191.894 423.725 Q193.815 425.508 197.149 425.508 Q200.482 425.508 202.403 423.725 Q204.325 421.92 204.325 418.818 Q204.325 415.693 202.403 413.911 Q200.505 412.128 197.149 412.128 M192.473 410.138 Q189.464 409.397 187.774 407.337 Q186.107 405.276 186.107 402.314 Q186.107 398.17 189.047 395.763 Q192.01 393.355 197.149 393.355 Q202.311 393.355 205.251 395.763 Q208.19 398.17 208.19 402.314 Q208.19 405.276 206.501 407.337 Q204.834 409.397 201.848 410.138 Q205.227 410.925 207.102 413.216 Q209.001 415.508 209.001 418.818 Q209.001 423.841 205.922 426.526 Q202.866 429.212 197.149 429.212 Q191.431 429.212 188.353 426.526 Q185.297 423.841 185.297 418.818 Q185.297 415.508 187.195 413.216 Q189.093 410.925 192.473 410.138 M190.76 402.753 Q190.76 405.438 192.427 406.943 Q194.116 408.448 197.149 408.448 Q200.158 408.448 201.848 406.943 Q203.561 405.438 203.561 402.753 Q203.561 400.068 201.848 398.564 Q200.158 397.059 197.149 397.059 Q194.116 397.059 192.427 398.564 Q190.76 400.068 190.76 402.753 Z" fill="#000000" fill-rule="evenodd" fill-opacity="1" /><path clip-path="url(#clip960)" d="M52.3347 242.516 L59.9736 242.516 L59.9736 216.15 L51.6634 217.817 L51.6634 213.558 L59.9273 211.891 L64.6032 211.891 L64.6032 242.516 L72.242 242.516 L72.242 246.451 L52.3347 246.451 L52.3347 242.516 Z" fill="#000000" fill-rule="evenodd" fill-opacity="1" /><path clip-path="url(#clip960)" d="M81.7327 211.891 L100.089 211.891 L100.089 215.826 L86.0151 215.826 L86.0151 224.298 Q87.0336 223.951 88.0521 223.789 Q89.0706 223.604 90.0891 223.604 Q95.8761 223.604 99.2558 226.775 Q102.635 229.946 102.635 235.363 Q102.635 240.942 99.1632 244.044 Q95.691 247.122 89.3715 247.122 Q87.1956 247.122 84.9271 246.752 Q82.6818 246.382 80.2744 245.641 L80.2744 240.942 Q82.3577 242.076 84.5799 242.632 Q86.8021 243.187 89.279 243.187 Q93.2836 243.187 95.6215 241.081 Q97.9595 238.974 97.9595 235.363 Q97.9595 231.752 95.6215 229.646 Q93.2836 227.539 89.279 227.539 Q87.404 227.539 85.529 227.956 Q83.6771 228.372 81.7327 229.252 L81.7327 211.891 Z" fill="#000000" fill-rule="evenodd" fill-opacity="1" /><path clip-path="url(#clip960)" d="M126.015 227.817 Q129.371 228.534 131.246 230.803 Q133.144 233.071 133.144 236.405 Q133.144 241.52 129.626 244.321 Q126.107 247.122 119.626 247.122 Q117.45 247.122 115.135 246.682 Q112.844 246.266 110.39 245.409 L110.39 240.895 Q112.334 242.03 114.649 242.608 Q116.964 243.187 119.487 243.187 Q123.885 243.187 126.177 241.451 Q128.492 239.715 128.492 236.405 Q128.492 233.349 126.339 231.636 Q124.209 229.9 120.39 229.9 L116.362 229.9 L116.362 226.058 L120.575 226.058 Q124.024 226.058 125.853 224.692 Q127.682 223.303 127.682 220.71 Q127.682 218.048 125.783 216.636 Q123.908 215.201 120.39 215.201 Q118.469 215.201 116.27 215.618 Q114.07 216.035 111.432 216.914 L111.432 212.747 Q114.094 212.007 116.408 211.636 Q118.746 211.266 120.807 211.266 Q126.131 211.266 129.232 213.697 Q132.334 216.104 132.334 220.224 Q132.334 223.095 130.691 225.085 Q129.047 227.053 126.015 227.817 Z" fill="#000000" fill-rule="evenodd" fill-opacity="1" /><path clip-path="url(#clip960)" d="M142.01 240.571 L146.894 240.571 L146.894 246.451 L142.01 246.451 L142.01 240.571 Z" fill="#000000" fill-rule="evenodd" fill-opacity="1" /><path clip-path="url(#clip960)" d="M157.126 211.891 L175.482 211.891 L175.482 215.826 L161.408 215.826 L161.408 224.298 Q162.427 223.951 163.445 223.789 Q164.464 223.604 165.482 223.604 Q171.269 223.604 174.649 226.775 Q178.028 229.946 178.028 235.363 Q178.028 240.942 174.556 244.044 Q171.084 247.122 164.765 247.122 Q162.589 247.122 160.32 246.752 Q158.075 246.382 155.667 245.641 L155.667 240.942 Q157.751 242.076 159.973 242.632 Q162.195 243.187 164.672 243.187 Q168.677 243.187 171.015 241.081 Q173.353 238.974 173.353 235.363 Q173.353 231.752 171.015 229.646 Q168.677 227.539 164.672 227.539 Q162.797 227.539 160.922 227.956 Q159.07 228.372 157.126 229.252 L157.126 211.891 Z" fill="#000000" fill-rule="evenodd" fill-opacity="1" /><path clip-path="url(#clip960)" d="M187.38 245.733 L187.38 241.474 Q189.14 242.308 190.945 242.747 Q192.751 243.187 194.487 243.187 Q199.116 243.187 201.547 240.085 Q204.001 236.96 204.348 230.618 Q203.005 232.608 200.945 233.673 Q198.885 234.738 196.385 234.738 Q191.2 234.738 188.167 231.613 Q185.158 228.465 185.158 223.025 Q185.158 217.701 188.306 214.484 Q191.454 211.266 196.686 211.266 Q202.681 211.266 205.829 215.872 Q209.001 220.456 209.001 229.206 Q209.001 237.377 205.112 242.261 Q201.246 247.122 194.695 247.122 Q192.936 247.122 191.13 246.775 Q189.325 246.428 187.38 245.733 M196.686 231.081 Q199.834 231.081 201.663 228.928 Q203.514 226.775 203.514 223.025 Q203.514 219.298 201.663 217.146 Q199.834 214.97 196.686 214.97 Q193.538 214.97 191.686 217.146 Q189.857 219.298 189.857 223.025 Q189.857 226.775 191.686 228.928 Q193.538 231.081 196.686 231.081 Z" fill="#000000" fill-rule="evenodd" fill-opacity="1" /><polyline clip-path="url(#clip962)" style="stroke:#009af9; stroke-linecap:butt; stroke-linejoin:round; stroke-width:12; stroke-opacity:1; fill:none" points="
  304.654,87.9763 404.076,155.974 503.499,223.961 602.921,291.936 702.344,359.898 801.766,427.85 901.189,495.789 1000.61,563.717 1100.03,631.633 1199.46,699.538 
  1298.88,767.43 1398.3,835.311 1497.72,903.181 1597.15,971.038 1696.57,1038.88 1795.99,1106.72 1895.41,1174.54 1994.84,1242.35 2094.26,1310.15 2193.68,1377.94 
  2293.1,1445.72 
  "/>
<path clip-path="url(#clip960)" d="
M1995.87 198.898 L2282.5 198.898 L2282.5 95.2176 L1995.87 95.2176  Z
  " fill="#ffffff" fill-rule="evenodd" fill-opacity="1"/>
<polyline clip-path="url(#clip960)" style="stroke:#000000; stroke-linecap:butt; stroke-linejoin:round; stroke-width:4; stroke-opacity:1; fill:none" points="
  1995.87,198.898 2282.5,198.898 2282.5,95.2176 1995.87,95.2176 1995.87,198.898 
  "/>
<polyline clip-path="url(#clip960)" style="stroke:#009af9; stroke-linecap:butt; stroke-linejoin:round; stroke-width:4; stroke-opacity:1; fill:none" points="
  2019.29,147.058 2159.81,147.058 
  "/>
<path clip-path="url(#clip960)" d="M2197.07 166.745 Q2195.27 171.375 2193.55 172.787 Q2191.84 174.199 2188.97 174.199 L2185.57 174.199 L2185.57 170.634 L2188.07 170.634 Q2189.83 170.634 2190.8 169.8 Q2191.77 168.967 2192.95 165.865 L2193.71 163.921 L2183.23 138.412 L2187.74 138.412 L2195.84 158.689 L2203.95 138.412 L2208.46 138.412 L2197.07 166.745 Z" fill="#000000" fill-rule="evenodd" fill-opacity="1" /><path clip-path="url(#clip960)" d="M2215.75 160.402 L2223.39 160.402 L2223.39 134.037 L2215.08 135.703 L2215.08 131.444 L2223.34 129.778 L2228.02 129.778 L2228.02 160.402 L2235.66 160.402 L2235.66 164.338 L2215.75 164.338 L2215.75 160.402 Z" fill="#000000" fill-rule="evenodd" fill-opacity="1" /></svg>
