<?xml version="1.0" encoding="utf-8"?>
<svg xmlns="http://www.w3.org/2000/svg" xmlns:xlink="http://www.w3.org/1999/xlink" width="600" height="400" viewBox="0 0 2400 1600">
<defs>
  <clipPath id="clip420">
    <rect x="0" y="0" width="2400" height="1600"/>
  </clipPath>
</defs>
<path clip-path="url(#clip420)" d="
M0 1600 L2400 1600 L2400 0 L0 0  Z
  " fill="#ffffff" fill-rule="evenodd" fill-opacity="1"/>
<defs>
  <clipPath id="clip421">
    <rect x="480" y="0" width="1681" height="1600"/>
  </clipPath>
</defs>
<path clip-path="url(#clip420)" d="
M368.761 1474.16 L2352.76 1474.16 L2352.76 47.2441 L368.761 47.2441  Z
  " fill="#ffffff" fill-rule="evenodd" fill-opacity="1"/>
<defs>
  <clipPath id="clip422">
    <rect x="368" y="47" width="1985" height="1428"/>
  </clipPath>
</defs>
<polyline clip-path="url(#clip422)" style="stroke:#000000; stroke-linecap:butt; stroke-linejoin:round; stroke-width:2; stroke-opacity:0.1; fill:none" points="
  368.761,1474.16 368.761,47.2441 
  "/>
<polyline clip-path="url(#clip422)" style="stroke:#000000; stroke-linecap:butt; stroke-linejoin:round; stroke-width:2; stroke-opacity:0.1; fill:none" points="
  864.76,1474.16 864.76,47.2441 
  "/>
<polyline clip-path="url(#clip422)" style="stroke:#000000; stroke-linecap:butt; stroke-linejoin:round; stroke-width:2; stroke-opacity:0.1; fill:none" points="
  1360.76,1474.16 1360.76,47.2441 
  "/>
<polyline clip-path="url(#clip422)" style="stroke:#000000; stroke-linecap:butt; stroke-linejoin:round; stroke-width:2; stroke-opacity:0.1; fill:none" points="
  1856.76,1474.16 1856.76,47.2441 
  "/>
<polyline clip-path="url(#clip422)" style="stroke:#000000; stroke-linecap:butt; stroke-linejoin:round; stroke-width:2; stroke-opacity:0.1; fill:none" points="
  2352.76,1474.16 2352.76,47.2441 
  "/>
<polyline clip-path="url(#clip420)" style="stroke:#000000; stroke-linecap:butt; stroke-linejoin:round; stroke-width:4; stroke-opacity:1; fill:none" points="
  368.761,1474.16 2352.76,1474.16 
  "/>
<polyline clip-path="url(#clip420)" style="stroke:#000000; stroke-linecap:butt; stroke-linejoin:round; stroke-width:4; stroke-opacity:1; fill:none" points="
  368.761,1474.16 368.761,1455.27 
  "/>
<polyline clip-path="url(#clip420)" style="stroke:#000000; stroke-linecap:butt; stroke-linejoin:round; stroke-width:4; stroke-opacity:1; fill:none" points="
  864.76,1474.16 864.76,1455.27 
  "/>
<polyline clip-path="url(#clip420)" style="stroke:#000000; stroke-linecap:butt; stroke-linejoin:round; stroke-width:4; stroke-opacity:1; fill:none" points="
  1360.76,1474.16 1360.76,1455.27 
  "/>
<polyline clip-path="url(#clip420)" style="stroke:#000000; stroke-linecap:butt; stroke-linejoin:round; stroke-width:4; stroke-opacity:1; fill:none" points="
  1856.76,1474.16 1856.76,1455.27 
  "/>
<polyline clip-path="url(#clip420)" style="stroke:#000000; stroke-linecap:butt; stroke-linejoin:round; stroke-width:4; stroke-opacity:1; fill:none" points="
  2352.76,1474.16 2352.76,1455.27 
  "/>
<path clip-path="url(#clip420)" d="M228.347 1535.4 L258.023 1535.4 L258.023 1539.33 L228.347 1539.33 L228.347 1535.4 Z" fill="#000000" fill-rule="evenodd" fill-opacity="1" /><path clip-path="url(#clip420)" d="M268.925 1548.29 L276.564 1548.29 L276.564 1521.92 L268.254 1523.59 L268.254 1519.33 L276.518 1517.66 L281.194 1517.66 L281.194 1548.29 L288.833 1548.29 L288.833 1552.22 L268.925 1552.22 L268.925 1548.29 Z" fill="#000000" fill-rule="evenodd" fill-opacity="1" /><path clip-path="url(#clip420)" d="M298.277 1546.35 L303.161 1546.35 L303.161 1552.22 L298.277 1552.22 L298.277 1546.35 Z" fill="#000000" fill-rule="evenodd" fill-opacity="1" /><path clip-path="url(#clip420)" d="M323.346 1520.74 Q319.735 1520.74 317.907 1524.31 Q316.101 1527.85 316.101 1534.98 Q316.101 1542.09 317.907 1545.65 Q319.735 1549.19 323.346 1549.19 Q326.981 1549.19 328.786 1545.65 Q330.615 1542.09 330.615 1534.98 Q330.615 1527.85 328.786 1524.31 Q326.981 1520.74 323.346 1520.74 M323.346 1517.04 Q329.157 1517.04 332.212 1521.65 Q335.291 1526.23 335.291 1534.98 Q335.291 1543.71 332.212 1548.31 Q329.157 1552.9 323.346 1552.9 Q317.536 1552.9 314.458 1548.31 Q311.402 1543.71 311.402 1534.98 Q311.402 1526.23 314.458 1521.65 Q317.536 1517.04 323.346 1517.04 Z" fill="#000000" fill-rule="evenodd" fill-opacity="1" /><path clip-path="url(#clip420)" d="M371.68 1526.76 L361.101 1537.39 L371.68 1547.97 L368.925 1550.77 L358.3 1540.14 L347.675 1550.77 L344.944 1547.97 L355.499 1537.39 L344.944 1526.76 L347.675 1523.96 L358.3 1534.59 L368.925 1523.96 L371.68 1526.76 Z" fill="#000000" fill-rule="evenodd" fill-opacity="1" /><path clip-path="url(#clip420)" d="M384.041 1548.29 L391.679 1548.29 L391.679 1521.92 L383.369 1523.59 L383.369 1519.33 L391.633 1517.66 L396.309 1517.66 L396.309 1548.29 L403.948 1548.29 L403.948 1552.22 L384.041 1552.22 L384.041 1548.29 Z" fill="#000000" fill-rule="evenodd" fill-opacity="1" /><path clip-path="url(#clip420)" d="M423.392 1520.74 Q419.781 1520.74 417.952 1524.31 Q416.147 1527.85 416.147 1534.98 Q416.147 1542.09 417.952 1545.65 Q419.781 1549.19 423.392 1549.19 Q427.026 1549.19 428.832 1545.65 Q430.661 1542.09 430.661 1534.98 Q430.661 1527.85 428.832 1524.31 Q427.026 1520.74 423.392 1520.74 M423.392 1517.04 Q429.202 1517.04 432.258 1521.65 Q435.337 1526.23 435.337 1534.98 Q435.337 1543.71 432.258 1548.31 Q429.202 1552.9 423.392 1552.9 Q417.582 1552.9 414.503 1548.31 Q411.448 1543.71 411.448 1534.98 Q411.448 1526.23 414.503 1521.65 Q417.582 1517.04 423.392 1517.04 Z" fill="#000000" fill-rule="evenodd" fill-opacity="1" /><path clip-path="url(#clip420)" d="M435.337 1511.14 L459.448 1511.14 L459.448 1514.34 L435.337 1514.34 L435.337 1511.14 Z" fill="#000000" fill-rule="evenodd" fill-opacity="1" /><path clip-path="url(#clip420)" d="M468.307 1521.62 L474.513 1521.62 L474.513 1500.19 L467.761 1501.55 L467.761 1498.09 L474.476 1496.73 L478.275 1496.73 L478.275 1521.62 L484.481 1521.62 L484.481 1524.81 L468.307 1524.81 L468.307 1521.62 Z" fill="#000000" fill-rule="evenodd" fill-opacity="1" /><path clip-path="url(#clip420)" d="M492.193 1496.73 L507.107 1496.73 L507.107 1499.93 L495.672 1499.93 L495.672 1506.82 Q496.499 1506.53 497.327 1506.4 Q498.155 1506.25 498.982 1506.25 Q503.684 1506.25 506.43 1508.83 Q509.176 1511.4 509.176 1515.81 Q509.176 1520.34 506.355 1522.86 Q503.534 1525.36 498.399 1525.36 Q496.631 1525.36 494.788 1525.06 Q492.964 1524.76 491.008 1524.16 L491.008 1520.34 Q492.7 1521.26 494.506 1521.71 Q496.311 1522.16 498.324 1522.16 Q501.578 1522.16 503.477 1520.45 Q505.377 1518.74 505.377 1515.81 Q505.377 1512.87 503.477 1511.16 Q501.578 1509.45 498.324 1509.45 Q496.8 1509.45 495.277 1509.79 Q493.772 1510.13 492.193 1510.84 L492.193 1496.73 Z" fill="#000000" fill-rule="evenodd" fill-opacity="1" /><path clip-path="url(#clip420)" d="M723.875 1535.4 L753.551 1535.4 L753.551 1539.33 L723.875 1539.33 L723.875 1535.4 Z" fill="#000000" fill-rule="evenodd" fill-opacity="1" /><path clip-path="url(#clip420)" d="M763.69 1517.66 L782.046 1517.66 L782.046 1521.6 L767.972 1521.6 L767.972 1530.07 Q768.991 1529.72 770.009 1529.56 Q771.028 1529.38 772.046 1529.38 Q777.833 1529.38 781.213 1532.55 Q784.593 1535.72 784.593 1541.14 Q784.593 1546.72 781.12 1549.82 Q777.648 1552.9 771.329 1552.9 Q769.153 1552.9 766.884 1552.53 Q764.639 1552.16 762.232 1551.41 L762.232 1546.72 Q764.315 1547.85 766.537 1548.41 Q768.759 1548.96 771.236 1548.96 Q775.241 1548.96 777.579 1546.85 Q779.917 1544.75 779.917 1541.14 Q779.917 1537.53 777.579 1535.42 Q775.241 1533.31 771.236 1533.31 Q769.361 1533.31 767.486 1533.73 Q765.634 1534.15 763.69 1535.03 L763.69 1517.66 Z" fill="#000000" fill-rule="evenodd" fill-opacity="1" /><path clip-path="url(#clip420)" d="M793.806 1546.35 L798.69 1546.35 L798.69 1552.22 L793.806 1552.22 L793.806 1546.35 Z" fill="#000000" fill-rule="evenodd" fill-opacity="1" /><path clip-path="url(#clip420)" d="M818.875 1520.74 Q815.264 1520.74 813.435 1524.31 Q811.63 1527.85 811.63 1534.98 Q811.63 1542.09 813.435 1545.65 Q815.264 1549.19 818.875 1549.19 Q822.509 1549.19 824.315 1545.65 Q826.143 1542.09 826.143 1534.98 Q826.143 1527.85 824.315 1524.31 Q822.509 1520.74 818.875 1520.74 M818.875 1517.04 Q824.685 1517.04 827.741 1521.65 Q830.819 1526.23 830.819 1534.98 Q830.819 1543.71 827.741 1548.31 Q824.685 1552.9 818.875 1552.9 Q813.065 1552.9 809.986 1548.31 Q806.931 1543.71 806.931 1534.98 Q806.931 1526.23 809.986 1521.65 Q813.065 1517.04 818.875 1517.04 Z" fill="#000000" fill-rule="evenodd" fill-opacity="1" /><path clip-path="url(#clip420)" d="M867.208 1526.76 L856.629 1537.39 L867.208 1547.97 L864.453 1550.77 L853.828 1540.14 L843.203 1550.77 L840.472 1547.97 L851.027 1537.39 L840.472 1526.76 L843.203 1523.96 L853.828 1534.59 L864.453 1523.96 L867.208 1526.76 Z" fill="#000000" fill-rule="evenodd" fill-opacity="1" /><path clip-path="url(#clip420)" d="M879.569 1548.29 L887.208 1548.29 L887.208 1521.92 L878.898 1523.59 L878.898 1519.33 L887.162 1517.66 L891.837 1517.66 L891.837 1548.29 L899.476 1548.29 L899.476 1552.22 L879.569 1552.22 L879.569 1548.29 Z" fill="#000000" fill-rule="evenodd" fill-opacity="1" /><path clip-path="url(#clip420)" d="M918.921 1520.74 Q915.31 1520.74 913.481 1524.31 Q911.675 1527.85 911.675 1534.98 Q911.675 1542.09 913.481 1545.65 Q915.31 1549.19 918.921 1549.19 Q922.555 1549.19 924.36 1545.65 Q926.189 1542.09 926.189 1534.98 Q926.189 1527.85 924.36 1524.31 Q922.555 1520.74 918.921 1520.74 M918.921 1517.04 Q924.731 1517.04 927.786 1521.65 Q930.865 1526.23 930.865 1534.98 Q930.865 1543.71 927.786 1548.31 Q924.731 1552.9 918.921 1552.9 Q913.11 1552.9 910.032 1548.31 Q906.976 1543.71 906.976 1534.98 Q906.976 1526.23 910.032 1521.65 Q913.11 1517.04 918.921 1517.04 Z" fill="#000000" fill-rule="evenodd" fill-opacity="1" /><path clip-path="url(#clip420)" d="M930.865 1511.14 L954.977 1511.14 L954.977 1514.34 L930.865 1514.34 L930.865 1511.14 Z" fill="#000000" fill-rule="evenodd" fill-opacity="1" /><path clip-path="url(#clip420)" d="M963.835 1521.62 L970.042 1521.62 L970.042 1500.19 L963.29 1501.55 L963.29 1498.09 L970.004 1496.73 L973.803 1496.73 L973.803 1521.62 L980.01 1521.62 L980.01 1524.81 L963.835 1524.81 L963.835 1521.62 Z" fill="#000000" fill-rule="evenodd" fill-opacity="1" /><path clip-path="url(#clip420)" d="M996.278 1509.26 Q993.721 1509.26 992.216 1511.01 Q990.73 1512.76 990.73 1515.81 Q990.73 1518.83 992.216 1520.6 Q993.721 1522.35 996.278 1522.35 Q998.836 1522.35 1000.32 1520.6 Q1001.83 1518.83 1001.83 1515.81 Q1001.83 1512.76 1000.32 1511.01 Q998.836 1509.26 996.278 1509.26 M1003.82 1497.35 L1003.82 1500.82 Q1002.39 1500.14 1000.92 1499.78 Q999.476 1499.42 998.046 1499.42 Q994.285 1499.42 992.291 1501.96 Q990.316 1504.5 990.034 1509.64 Q991.144 1508 992.818 1507.13 Q994.492 1506.25 996.504 1506.25 Q1000.74 1506.25 1003.18 1508.83 Q1005.64 1511.39 1005.64 1515.81 Q1005.64 1520.13 1003.09 1522.75 Q1000.53 1525.36 996.278 1525.36 Q991.407 1525.36 988.831 1521.64 Q986.254 1517.89 986.254 1510.8 Q986.254 1504.14 989.414 1500.19 Q992.573 1496.23 997.896 1496.23 Q999.325 1496.23 1000.77 1496.51 Q1002.24 1496.79 1003.82 1497.35 Z" fill="#000000" fill-rule="evenodd" fill-opacity="1" /><path clip-path="url(#clip420)" d="M1360.76 1505.08 Q1357.15 1505.08 1355.32 1508.65 Q1353.51 1512.19 1353.51 1519.32 Q1353.51 1526.43 1355.32 1529.99 Q1357.15 1533.53 1360.76 1533.53 Q1364.39 1533.53 1366.2 1529.99 Q1368.03 1526.43 1368.03 1519.32 Q1368.03 1512.19 1366.2 1508.65 Q1364.39 1505.08 1360.76 1505.08 M1360.76 1501.38 Q1366.57 1501.38 1369.62 1505.99 Q1372.7 1510.57 1372.7 1519.32 Q1372.7 1528.05 1369.62 1532.65 Q1366.57 1537.24 1360.76 1537.24 Q1354.95 1537.24 1351.87 1532.65 Q1348.81 1528.05 1348.81 1519.32 Q1348.81 1510.57 1351.87 1505.99 Q1354.95 1501.38 1360.76 1501.38 Z" fill="#000000" fill-rule="evenodd" fill-opacity="1" /><path clip-path="url(#clip420)" d="M1736.51 1517.66 L1754.87 1517.66 L1754.87 1521.6 L1740.79 1521.6 L1740.79 1530.07 Q1741.81 1529.72 1742.83 1529.56 Q1743.85 1529.38 1744.87 1529.38 Q1750.65 1529.38 1754.03 1532.55 Q1757.41 1535.72 1757.41 1541.14 Q1757.41 1546.72 1753.94 1549.82 Q1750.47 1552.9 1744.15 1552.9 Q1741.97 1552.9 1739.7 1552.53 Q1737.46 1552.16 1735.05 1551.41 L1735.05 1546.72 Q1737.13 1547.85 1739.36 1548.41 Q1741.58 1548.96 1744.06 1548.96 Q1748.06 1548.96 1750.4 1546.85 Q1752.74 1544.75 1752.74 1541.14 Q1752.74 1537.53 1750.4 1535.42 Q1748.06 1533.31 1744.06 1533.31 Q1742.18 1533.31 1740.31 1533.73 Q1738.45 1534.15 1736.51 1535.03 L1736.51 1517.66 Z" fill="#000000" fill-rule="evenodd" fill-opacity="1" /><path clip-path="url(#clip420)" d="M1766.62 1546.35 L1771.51 1546.35 L1771.51 1552.22 L1766.62 1552.22 L1766.62 1546.35 Z" fill="#000000" fill-rule="evenodd" fill-opacity="1" /><path clip-path="url(#clip420)" d="M1791.69 1520.74 Q1788.08 1520.74 1786.25 1524.31 Q1784.45 1527.85 1784.45 1534.98 Q1784.45 1542.09 1786.25 1545.65 Q1788.08 1549.19 1791.69 1549.19 Q1795.33 1549.19 1797.13 1545.65 Q1798.96 1542.09 1798.96 1534.98 Q1798.96 1527.85 1797.13 1524.31 Q1795.33 1520.74 1791.69 1520.74 M1791.69 1517.04 Q1797.5 1517.04 1800.56 1521.65 Q1803.64 1526.23 1803.64 1534.98 Q1803.64 1543.71 1800.56 1548.31 Q1797.5 1552.9 1791.69 1552.9 Q1785.88 1552.9 1782.81 1548.31 Q1779.75 1543.71 1779.75 1534.98 Q1779.75 1526.23 1782.81 1521.65 Q1785.88 1517.04 1791.69 1517.04 Z" fill="#000000" fill-rule="evenodd" fill-opacity="1" /><path clip-path="url(#clip420)" d="M1840.03 1526.76 L1829.45 1537.39 L1840.03 1547.97 L1837.27 1550.77 L1826.65 1540.14 L1816.02 1550.77 L1813.29 1547.97 L1823.85 1537.39 L1813.29 1526.76 L1816.02 1523.96 L1826.65 1534.59 L1837.27 1523.96 L1840.03 1526.76 Z" fill="#000000" fill-rule="evenodd" fill-opacity="1" /><path clip-path="url(#clip420)" d="M1852.39 1548.29 L1860.03 1548.29 L1860.03 1521.92 L1851.72 1523.59 L1851.72 1519.33 L1859.98 1517.66 L1864.66 1517.66 L1864.66 1548.29 L1872.3 1548.29 L1872.3 1552.22 L1852.39 1552.22 L1852.39 1548.29 Z" fill="#000000" fill-rule="evenodd" fill-opacity="1" /><path clip-path="url(#clip420)" d="M1891.74 1520.74 Q1888.13 1520.74 1886.3 1524.31 Q1884.49 1527.85 1884.49 1534.98 Q1884.49 1542.09 1886.3 1545.65 Q1888.13 1549.19 1891.74 1549.19 Q1895.37 1549.19 1897.18 1545.65 Q1899.01 1542.09 1899.01 1534.98 Q1899.01 1527.85 1897.18 1524.31 Q1895.37 1520.74 1891.74 1520.74 M1891.74 1517.04 Q1897.55 1517.04 1900.61 1521.65 Q1903.68 1526.23 1903.68 1534.98 Q1903.68 1543.71 1900.61 1548.31 Q1897.55 1552.9 1891.74 1552.9 Q1885.93 1552.9 1882.85 1548.31 Q1879.8 1543.71 1879.8 1534.98 Q1879.8 1526.23 1882.85 1521.65 Q1885.93 1517.04 1891.74 1517.04 Z" fill="#000000" fill-rule="evenodd" fill-opacity="1" /><path clip-path="url(#clip420)" d="M1903.68 1511.14 L1927.8 1511.14 L1927.8 1514.34 L1903.68 1514.34 L1903.68 1511.14 Z" fill="#000000" fill-rule="evenodd" fill-opacity="1" /><path clip-path="url(#clip420)" d="M1936.65 1521.62 L1942.86 1521.62 L1942.86 1500.19 L1936.11 1501.55 L1936.11 1498.09 L1942.82 1496.73 L1946.62 1496.73 L1946.62 1521.62 L1952.83 1521.62 L1952.83 1524.81 L1936.65 1524.81 L1936.65 1521.62 Z" fill="#000000" fill-rule="evenodd" fill-opacity="1" /><path clip-path="url(#clip420)" d="M1969.1 1509.26 Q1966.54 1509.26 1965.04 1511.01 Q1963.55 1512.76 1963.55 1515.81 Q1963.55 1518.83 1965.04 1520.6 Q1966.54 1522.35 1969.1 1522.35 Q1971.66 1522.35 1973.14 1520.6 Q1974.65 1518.83 1974.65 1515.81 Q1974.65 1512.76 1973.14 1511.01 Q1971.66 1509.26 1969.1 1509.26 M1976.64 1497.35 L1976.64 1500.82 Q1975.21 1500.14 1973.74 1499.78 Q1972.29 1499.42 1970.87 1499.42 Q1967.1 1499.42 1965.11 1501.96 Q1963.14 1504.5 1962.85 1509.64 Q1963.96 1508 1965.64 1507.13 Q1967.31 1506.25 1969.32 1506.25 Q1973.55 1506.25 1976 1508.83 Q1978.46 1511.39 1978.46 1515.81 Q1978.46 1520.13 1975.91 1522.75 Q1973.35 1525.36 1969.1 1525.36 Q1964.23 1525.36 1961.65 1521.64 Q1959.07 1517.89 1959.07 1510.8 Q1959.07 1504.14 1962.23 1500.19 Q1965.39 1496.23 1970.72 1496.23 Q1972.14 1496.23 1973.59 1496.51 Q1975.06 1496.79 1976.64 1497.35 Z" fill="#000000" fill-rule="evenodd" fill-opacity="1" /><path clip-path="url(#clip420)" d="M2232.97 1548.29 L2240.61 1548.29 L2240.61 1521.92 L2232.3 1523.59 L2232.3 1519.33 L2240.56 1517.66 L2245.23 1517.66 L2245.23 1548.29 L2252.87 1548.29 L2252.87 1552.22 L2232.97 1552.22 L2232.97 1548.29 Z" fill="#000000" fill-rule="evenodd" fill-opacity="1" /><path clip-path="url(#clip420)" d="M2262.32 1546.35 L2267.2 1546.35 L2267.2 1552.22 L2262.32 1552.22 L2262.32 1546.35 Z" fill="#000000" fill-rule="evenodd" fill-opacity="1" /><path clip-path="url(#clip420)" d="M2287.39 1520.74 Q2283.78 1520.74 2281.95 1524.31 Q2280.14 1527.85 2280.14 1534.98 Q2280.14 1542.09 2281.95 1545.65 Q2283.78 1549.19 2287.39 1549.19 Q2291.02 1549.19 2292.83 1545.65 Q2294.66 1542.09 2294.66 1534.98 Q2294.66 1527.85 2292.83 1524.31 Q2291.02 1520.74 2287.39 1520.74 M2287.39 1517.04 Q2293.2 1517.04 2296.25 1521.65 Q2299.33 1526.23 2299.33 1534.98 Q2299.33 1543.71 2296.25 1548.31 Q2293.2 1552.9 2287.39 1552.9 Q2281.58 1552.9 2278.5 1548.31 Q2275.44 1543.71 2275.44 1534.98 Q2275.44 1526.23 2278.5 1521.65 Q2281.58 1517.04 2287.39 1517.04 Z" fill="#000000" fill-rule="evenodd" fill-opacity="1" /><path clip-path="url(#clip420)" d="M2335.72 1526.76 L2325.14 1537.39 L2335.72 1547.97 L2332.97 1550.77 L2322.34 1540.14 L2311.72 1550.77 L2308.98 1547.97 L2319.54 1537.39 L2308.98 1526.76 L2311.72 1523.96 L2322.34 1534.59 L2332.97 1523.96 L2335.72 1526.76 Z" fill="#000000" fill-rule="evenodd" fill-opacity="1" /><path clip-path="url(#clip420)" d="M2348.08 1548.29 L2355.72 1548.29 L2355.72 1521.92 L2347.41 1523.59 L2347.41 1519.33 L2355.67 1517.66 L2360.35 1517.66 L2360.35 1548.29 L2367.99 1548.29 L2367.99 1552.22 L2348.08 1552.22 L2348.08 1548.29 Z" fill="#000000" fill-rule="evenodd" fill-opacity="1" /><path clip-path="url(#clip420)" d="M2387.43 1520.74 Q2383.82 1520.74 2381.99 1524.31 Q2380.19 1527.85 2380.19 1534.98 Q2380.19 1542.09 2381.99 1545.65 Q2383.82 1549.19 2387.43 1549.19 Q2391.07 1549.19 2392.87 1545.65 Q2394.7 1542.09 2394.7 1534.98 Q2394.7 1527.85 2392.87 1524.31 Q2391.07 1520.74 2387.43 1520.74 M2387.43 1517.04 Q2393.24 1517.04 2396.3 1521.65 Q2399.38 1526.23 2399.38 1534.98 Q2399.38 1543.71 2396.3 1548.31 Q2393.24 1552.9 2387.43 1552.9 Q2381.62 1552.9 2378.54 1548.31 Q2375.49 1543.71 2375.49 1534.98 Q2375.49 1526.23 2378.54 1521.65 Q2381.62 1517.04 2387.43 1517.04 Z" fill="#000000" fill-rule="evenodd" fill-opacity="1" /><path clip-path="url(#clip420)" d="M2399.38 1511.14 L2423.49 1511.14 L2423.49 1514.34 L2399.38 1514.34 L2399.38 1511.14 Z" fill="#000000" fill-rule="evenodd" fill-opacity="1" /><path clip-path="url(#clip420)" d="M2432.35 1521.62 L2438.55 1521.62 L2438.55 1500.19 L2431.8 1501.55 L2431.8 1498.09 L2438.52 1496.73 L2442.32 1496.73 L2442.32 1521.62 L2448.52 1521.62 L2448.52 1524.81 L2432.35 1524.81 L2432.35 1521.62 Z" fill="#000000" fill-rule="evenodd" fill-opacity="1" /><path clip-path="url(#clip420)" d="M2456.23 1496.73 L2471.15 1496.73 L2471.15 1499.93 L2459.71 1499.93 L2459.71 1506.82 Q2460.54 1506.53 2461.37 1506.4 Q2462.2 1506.25 2463.02 1506.25 Q2467.72 1506.25 2470.47 1508.83 Q2473.22 1511.4 2473.22 1515.81 Q2473.22 1520.34 2470.4 1522.86 Q2467.57 1525.36 2462.44 1525.36 Q2460.67 1525.36 2458.83 1525.06 Q2457 1524.76 2455.05 1524.16 L2455.05 1520.34 Q2456.74 1521.26 2458.55 1521.71 Q2460.35 1522.16 2462.36 1522.16 Q2465.62 1522.16 2467.52 1520.45 Q2469.42 1518.74 2469.42 1515.81 Q2469.42 1512.87 2467.52 1511.16 Q2465.62 1509.45 2462.36 1509.45 Q2460.84 1509.45 2459.32 1509.79 Q2457.81 1510.13 2456.23 1510.84 L2456.23 1496.73 Z" fill="#000000" fill-rule="evenodd" fill-opacity="1" /><polyline clip-path="url(#clip422)" style="stroke:#000000; stroke-linecap:butt; stroke-linejoin:round; stroke-width:2; stroke-opacity:0.1; fill:none" points="
  368.761,1412.4 2352.76,1412.4 
  "/>
<polyline clip-path="url(#clip422)" style="stroke:#000000; stroke-linecap:butt; stroke-linejoin:round; stroke-width:2; stroke-opacity:0.1; fill:none" points="
  368.761,1103.57 2352.76,1103.57 
  "/>
<polyline clip-path="url(#clip422)" style="stroke:#000000; stroke-linecap:butt; stroke-linejoin:round; stroke-width:2; stroke-opacity:0.1; fill:none" points="
  368.761,794.744 2352.76,794.744 
  "/>
<polyline clip-path="url(#clip422)" style="stroke:#000000; stroke-linecap:butt; stroke-linejoin:round; stroke-width:2; stroke-opacity:0.1; fill:none" points="
  368.761,485.917 2352.76,485.917 
  "/>
<polyline clip-path="url(#clip422)" style="stroke:#000000; stroke-linecap:butt; stroke-linejoin:round; stroke-width:2; stroke-opacity:0.1; fill:none" points="
  368.761,177.089 2352.76,177.089 
  "/>
<polyline clip-path="url(#clip420)" style="stroke:#000000; stroke-linecap:butt; stroke-linejoin:round; stroke-width:4; stroke-opacity:1; fill:none" points="
  368.761,1474.16 368.761,47.2441 
  "/>
<polyline clip-path="url(#clip420)" style="stroke:#000000; stroke-linecap:butt; stroke-linejoin:round; stroke-width:4; stroke-opacity:1; fill:none" points="
  368.761,1412.4 387.659,1412.4 
  "/>
<polyline clip-path="url(#clip420)" style="stroke:#000000; stroke-linecap:butt; stroke-linejoin:round; stroke-width:4; stroke-opacity:1; fill:none" points="
  368.761,1103.57 387.659,1103.57 
  "/>
<polyline clip-path="url(#clip420)" style="stroke:#000000; stroke-linecap:butt; stroke-linejoin:round; stroke-width:4; stroke-opacity:1; fill:none" points="
  368.761,794.744 387.659,794.744 
  "/>
<polyline clip-path="url(#clip420)" style="stroke:#000000; stroke-linecap:butt; stroke-linejoin:round; stroke-width:4; stroke-opacity:1; fill:none" points="
  368.761,485.917 387.659,485.917 
  "/>
<polyline clip-path="url(#clip420)" style="stroke:#000000; stroke-linecap:butt; stroke-linejoin:round; stroke-width:4; stroke-opacity:1; fill:none" points="
  368.761,177.089 387.659,177.089 
  "/>
<path clip-path="url(#clip420)" d="M51.9325 1419.3 L81.6083 1419.3 L81.6083 1423.23 L51.9325 1423.23 L51.9325 1419.3 Z" fill="#000000" fill-rule="evenodd" fill-opacity="1" /><path clip-path="url(#clip420)" d="M92.511 1432.19 L100.15 1432.19 L100.15 1405.83 L91.8397 1407.49 L91.8397 1403.23 L100.104 1401.57 L104.779 1401.57 L104.779 1432.19 L112.418 1432.19 L112.418 1436.13 L92.511 1436.13 L92.511 1432.19 Z" fill="#000000" fill-rule="evenodd" fill-opacity="1" /><path clip-path="url(#clip420)" d="M121.863 1430.25 L126.747 1430.25 L126.747 1436.13 L121.863 1436.13 L121.863 1430.25 Z" fill="#000000" fill-rule="evenodd" fill-opacity="1" /><path clip-path="url(#clip420)" d="M146.932 1404.65 Q143.321 1404.65 141.492 1408.21 Q139.687 1411.75 139.687 1418.88 Q139.687 1425.99 141.492 1429.55 Q143.321 1433.09 146.932 1433.09 Q150.566 1433.09 152.372 1429.55 Q154.2 1425.99 154.2 1418.88 Q154.2 1411.75 152.372 1408.21 Q150.566 1404.65 146.932 1404.65 M146.932 1400.94 Q152.742 1400.94 155.798 1405.55 Q158.876 1410.13 158.876 1418.88 Q158.876 1427.61 155.798 1432.21 Q152.742 1436.8 146.932 1436.8 Q141.122 1436.8 138.043 1432.21 Q134.988 1427.61 134.988 1418.88 Q134.988 1410.13 138.043 1405.55 Q141.122 1400.94 146.932 1400.94 Z" fill="#000000" fill-rule="evenodd" fill-opacity="1" /><path clip-path="url(#clip420)" d="M195.265 1410.66 L184.686 1421.29 L195.265 1431.87 L192.51 1434.67 L181.886 1424.04 L171.261 1434.67 L168.529 1431.87 L179.085 1421.29 L168.529 1410.66 L171.261 1407.86 L181.886 1418.49 L192.51 1407.86 L195.265 1410.66 Z" fill="#000000" fill-rule="evenodd" fill-opacity="1" /><path clip-path="url(#clip420)" d="M207.626 1432.19 L215.265 1432.19 L215.265 1405.83 L206.955 1407.49 L206.955 1403.23 L215.219 1401.57 L219.895 1401.57 L219.895 1432.19 L227.533 1432.19 L227.533 1436.13 L207.626 1436.13 L207.626 1432.19 Z" fill="#000000" fill-rule="evenodd" fill-opacity="1" /><path clip-path="url(#clip420)" d="M246.978 1404.65 Q243.367 1404.65 241.538 1408.21 Q239.732 1411.75 239.732 1418.88 Q239.732 1425.99 241.538 1429.55 Q243.367 1433.09 246.978 1433.09 Q250.612 1433.09 252.418 1429.55 Q254.246 1425.99 254.246 1418.88 Q254.246 1411.75 252.418 1408.21 Q250.612 1404.65 246.978 1404.65 M246.978 1400.94 Q252.788 1400.94 255.843 1405.55 Q258.922 1410.13 258.922 1418.88 Q258.922 1427.61 255.843 1432.21 Q252.788 1436.8 246.978 1436.8 Q241.168 1436.8 238.089 1432.21 Q235.033 1427.61 235.033 1418.88 Q235.033 1410.13 238.089 1405.55 Q241.168 1400.94 246.978 1400.94 Z" fill="#000000" fill-rule="evenodd" fill-opacity="1" /><path clip-path="url(#clip420)" d="M258.922 1395.04 L283.034 1395.04 L283.034 1398.24 L258.922 1398.24 L258.922 1395.04 Z" fill="#000000" fill-rule="evenodd" fill-opacity="1" /><path clip-path="url(#clip420)" d="M291.892 1405.52 L298.099 1405.52 L298.099 1384.1 L291.347 1385.45 L291.347 1381.99 L298.061 1380.64 L301.86 1380.64 L301.86 1405.52 L308.067 1405.52 L308.067 1408.72 L291.892 1408.72 L291.892 1405.52 Z" fill="#000000" fill-rule="evenodd" fill-opacity="1" /><path clip-path="url(#clip420)" d="M315.778 1380.64 L330.693 1380.64 L330.693 1383.83 L319.257 1383.83 L319.257 1390.72 Q320.085 1390.44 320.913 1390.3 Q321.74 1390.15 322.568 1390.15 Q327.27 1390.15 330.016 1392.73 Q332.761 1395.31 332.761 1399.71 Q332.761 1404.24 329.94 1406.76 Q327.119 1409.26 321.985 1409.26 Q320.217 1409.26 318.374 1408.96 Q316.549 1408.66 314.593 1408.06 L314.593 1404.24 Q316.286 1405.16 318.091 1405.61 Q319.897 1406.06 321.909 1406.06 Q325.163 1406.06 327.063 1404.35 Q328.962 1402.64 328.962 1399.71 Q328.962 1396.77 327.063 1395.06 Q325.163 1393.35 321.909 1393.35 Q320.386 1393.35 318.863 1393.69 Q317.358 1394.03 315.778 1394.74 L315.778 1380.64 Z" fill="#000000" fill-rule="evenodd" fill-opacity="1" /><path clip-path="url(#clip420)" d="M50.9921 1110.47 L80.6679 1110.47 L80.6679 1114.41 L50.9921 1114.41 L50.9921 1110.47 Z" fill="#000000" fill-rule="evenodd" fill-opacity="1" /><path clip-path="url(#clip420)" d="M90.8067 1092.74 L109.163 1092.74 L109.163 1096.67 L95.0891 1096.67 L95.0891 1105.15 Q96.1076 1104.8 97.1261 1104.64 Q98.1447 1104.45 99.1632 1104.45 Q104.95 1104.45 108.33 1107.62 Q111.709 1110.79 111.709 1116.21 Q111.709 1121.79 108.237 1124.89 Q104.765 1127.97 98.4456 1127.97 Q96.2697 1127.97 94.0012 1127.6 Q91.7558 1127.23 89.3484 1126.49 L89.3484 1121.79 Q91.4317 1122.92 93.6539 1123.48 Q95.8761 1124.04 98.353 1124.04 Q102.358 1124.04 104.696 1121.93 Q107.033 1119.82 107.033 1116.21 Q107.033 1112.6 104.696 1110.49 Q102.358 1108.39 98.353 1108.39 Q96.478 1108.39 94.603 1108.8 Q92.7512 1109.22 90.8067 1110.1 L90.8067 1092.74 Z" fill="#000000" fill-rule="evenodd" fill-opacity="1" /><path clip-path="url(#clip420)" d="M120.922 1121.42 L125.807 1121.42 L125.807 1127.3 L120.922 1127.3 L120.922 1121.42 Z" fill="#000000" fill-rule="evenodd" fill-opacity="1" /><path clip-path="url(#clip420)" d="M145.992 1095.82 Q142.381 1095.82 140.552 1099.38 Q138.746 1102.92 138.746 1110.05 Q138.746 1117.16 140.552 1120.73 Q142.381 1124.27 145.992 1124.27 Q149.626 1124.27 151.431 1120.73 Q153.26 1117.16 153.26 1110.05 Q153.26 1102.92 151.431 1099.38 Q149.626 1095.82 145.992 1095.82 M145.992 1092.11 Q151.802 1092.11 154.857 1096.72 Q157.936 1101.3 157.936 1110.05 Q157.936 1118.78 154.857 1123.39 Q151.802 1127.97 145.992 1127.97 Q140.181 1127.97 137.103 1123.39 Q134.047 1118.78 134.047 1110.05 Q134.047 1101.3 137.103 1096.72 Q140.181 1092.11 145.992 1092.11 Z" fill="#000000" fill-rule="evenodd" fill-opacity="1" /><path clip-path="url(#clip420)" d="M194.325 1101.84 L183.746 1112.46 L194.325 1123.04 L191.57 1125.84 L180.945 1115.22 L170.32 1125.84 L167.589 1123.04 L178.144 1112.46 L167.589 1101.84 L170.32 1099.04 L180.945 1109.66 L191.57 1099.04 L194.325 1101.84 Z" fill="#000000" fill-rule="evenodd" fill-opacity="1" /><path clip-path="url(#clip420)" d="M206.686 1123.36 L214.325 1123.36 L214.325 1097 L206.014 1098.67 L206.014 1094.41 L214.278 1092.74 L218.954 1092.74 L218.954 1123.36 L226.593 1123.36 L226.593 1127.3 L206.686 1127.3 L206.686 1123.36 Z" fill="#000000" fill-rule="evenodd" fill-opacity="1" /><path clip-path="url(#clip420)" d="M246.037 1095.82 Q242.426 1095.82 240.598 1099.38 Q238.792 1102.92 238.792 1110.05 Q238.792 1117.16 240.598 1120.73 Q242.426 1124.27 246.037 1124.27 Q249.672 1124.27 251.477 1120.73 Q253.306 1117.16 253.306 1110.05 Q253.306 1102.92 251.477 1099.38 Q249.672 1095.82 246.037 1095.82 M246.037 1092.11 Q251.848 1092.11 254.903 1096.72 Q257.982 1101.3 257.982 1110.05 Q257.982 1118.78 254.903 1123.39 Q251.848 1127.97 246.037 1127.97 Q240.227 1127.97 237.149 1123.39 Q234.093 1118.78 234.093 1110.05 Q234.093 1101.3 237.149 1096.72 Q240.227 1092.11 246.037 1092.11 Z" fill="#000000" fill-rule="evenodd" fill-opacity="1" /><path clip-path="url(#clip420)" d="M257.982 1086.22 L282.093 1086.22 L282.093 1089.41 L257.982 1089.41 L257.982 1086.22 Z" fill="#000000" fill-rule="evenodd" fill-opacity="1" /><path clip-path="url(#clip420)" d="M290.952 1096.69 L297.158 1096.69 L297.158 1075.27 L290.406 1076.62 L290.406 1073.16 L297.121 1071.81 L300.92 1071.81 L300.92 1096.69 L307.126 1096.69 L307.126 1099.89 L290.952 1099.89 L290.952 1096.69 Z" fill="#000000" fill-rule="evenodd" fill-opacity="1" /><path clip-path="url(#clip420)" d="M323.395 1084.33 Q320.837 1084.33 319.333 1086.08 Q317.847 1087.83 317.847 1090.88 Q317.847 1093.91 319.333 1095.68 Q320.837 1097.43 323.395 1097.43 Q325.953 1097.43 327.439 1095.68 Q328.943 1093.91 328.943 1090.88 Q328.943 1087.83 327.439 1086.08 Q325.953 1084.33 323.395 1084.33 M330.937 1072.43 L330.937 1075.89 Q329.508 1075.21 328.041 1074.86 Q326.593 1074.5 325.163 1074.5 Q321.402 1074.5 319.408 1077.04 Q317.433 1079.58 317.151 1084.71 Q318.261 1083.07 319.935 1082.21 Q321.608 1081.33 323.621 1081.33 Q327.853 1081.33 330.298 1083.9 Q332.761 1086.46 332.761 1090.88 Q332.761 1095.21 330.204 1097.82 Q327.646 1100.43 323.395 1100.43 Q318.524 1100.43 315.947 1096.71 Q313.371 1092.97 313.371 1085.88 Q313.371 1079.22 316.53 1075.27 Q319.69 1071.3 325.013 1071.3 Q326.442 1071.3 327.89 1071.58 Q329.357 1071.87 330.937 1072.43 Z" fill="#000000" fill-rule="evenodd" fill-opacity="1" /><path clip-path="url(#clip420)" d="M320.817 780.543 Q317.206 780.543 315.377 784.108 Q313.572 787.649 313.572 794.779 Q313.572 801.885 315.377 805.45 Q317.206 808.992 320.817 808.992 Q324.451 808.992 326.257 805.45 Q328.086 801.885 328.086 794.779 Q328.086 787.649 326.257 784.108 Q324.451 780.543 320.817 780.543 M320.817 776.839 Q326.627 776.839 329.683 781.446 Q332.761 786.029 332.761 794.779 Q332.761 803.506 329.683 808.112 Q326.627 812.696 320.817 812.696 Q315.007 812.696 311.928 808.112 Q308.873 803.506 308.873 794.779 Q308.873 786.029 311.928 781.446 Q315.007 776.839 320.817 776.839 Z" fill="#000000" fill-rule="evenodd" fill-opacity="1" /><path clip-path="url(#clip420)" d="M90.8067 475.084 L109.163 475.084 L109.163 479.02 L95.0891 479.02 L95.0891 487.492 Q96.1076 487.145 97.1261 486.983 Q98.1447 486.797 99.1632 486.797 Q104.95 486.797 108.33 489.969 Q111.709 493.14 111.709 498.557 Q111.709 504.135 108.237 507.237 Q104.765 510.316 98.4456 510.316 Q96.2697 510.316 94.0012 509.945 Q91.7558 509.575 89.3484 508.834 L89.3484 504.135 Q91.4317 505.269 93.6539 505.825 Q95.8761 506.381 98.353 506.381 Q102.358 506.381 104.696 504.274 Q107.033 502.168 107.033 498.557 Q107.033 494.945 104.696 492.839 Q102.358 490.732 98.353 490.732 Q96.478 490.732 94.603 491.149 Q92.7512 491.566 90.8067 492.445 L90.8067 475.084 Z" fill="#000000" fill-rule="evenodd" fill-opacity="1" /><path clip-path="url(#clip420)" d="M120.922 503.765 L125.807 503.765 L125.807 509.644 L120.922 509.644 L120.922 503.765 Z" fill="#000000" fill-rule="evenodd" fill-opacity="1" /><path clip-path="url(#clip420)" d="M145.992 478.163 Q142.381 478.163 140.552 481.728 Q138.746 485.27 138.746 492.399 Q138.746 499.506 140.552 503.07 Q142.381 506.612 145.992 506.612 Q149.626 506.612 151.431 503.07 Q153.26 499.506 153.26 492.399 Q153.26 485.27 151.431 481.728 Q149.626 478.163 145.992 478.163 M145.992 474.459 Q151.802 474.459 154.857 479.066 Q157.936 483.649 157.936 492.399 Q157.936 501.126 154.857 505.732 Q151.802 510.316 145.992 510.316 Q140.181 510.316 137.103 505.732 Q134.047 501.126 134.047 492.399 Q134.047 483.649 137.103 479.066 Q140.181 474.459 145.992 474.459 Z" fill="#000000" fill-rule="evenodd" fill-opacity="1" /><path clip-path="url(#clip420)" d="M194.325 484.182 L183.746 494.807 L194.325 505.385 L191.57 508.186 L180.945 497.561 L170.32 508.186 L167.589 505.385 L178.144 494.807 L167.589 484.182 L170.32 481.381 L180.945 492.006 L191.57 481.381 L194.325 484.182 Z" fill="#000000" fill-rule="evenodd" fill-opacity="1" /><path clip-path="url(#clip420)" d="M206.686 505.709 L214.325 505.709 L214.325 479.344 L206.014 481.01 L206.014 476.751 L214.278 475.084 L218.954 475.084 L218.954 505.709 L226.593 505.709 L226.593 509.644 L206.686 509.644 L206.686 505.709 Z" fill="#000000" fill-rule="evenodd" fill-opacity="1" /><path clip-path="url(#clip420)" d="M246.037 478.163 Q242.426 478.163 240.598 481.728 Q238.792 485.27 238.792 492.399 Q238.792 499.506 240.598 503.07 Q242.426 506.612 246.037 506.612 Q249.672 506.612 251.477 503.07 Q253.306 499.506 253.306 492.399 Q253.306 485.27 251.477 481.728 Q249.672 478.163 246.037 478.163 M246.037 474.459 Q251.848 474.459 254.903 479.066 Q257.982 483.649 257.982 492.399 Q257.982 501.126 254.903 505.732 Q251.848 510.316 246.037 510.316 Q240.227 510.316 237.149 505.732 Q234.093 501.126 234.093 492.399 Q234.093 483.649 237.149 479.066 Q240.227 474.459 246.037 474.459 Z" fill="#000000" fill-rule="evenodd" fill-opacity="1" /><path clip-path="url(#clip420)" d="M257.982 468.561 L282.093 468.561 L282.093 471.758 L257.982 471.758 L257.982 468.561 Z" fill="#000000" fill-rule="evenodd" fill-opacity="1" /><path clip-path="url(#clip420)" d="M290.952 479.037 L297.158 479.037 L297.158 457.615 L290.406 458.969 L290.406 455.508 L297.121 454.154 L300.92 454.154 L300.92 479.037 L307.126 479.037 L307.126 482.234 L290.952 482.234 L290.952 479.037 Z" fill="#000000" fill-rule="evenodd" fill-opacity="1" /><path clip-path="url(#clip420)" d="M323.395 466.68 Q320.837 466.68 319.333 468.429 Q317.847 470.178 317.847 473.225 Q317.847 476.253 319.333 478.021 Q320.837 479.77 323.395 479.77 Q325.953 479.77 327.439 478.021 Q328.943 476.253 328.943 473.225 Q328.943 470.178 327.439 468.429 Q325.953 466.68 323.395 466.68 M330.937 454.775 L330.937 458.235 Q329.508 457.558 328.041 457.201 Q326.593 456.844 325.163 456.844 Q321.402 456.844 319.408 459.383 Q317.433 461.922 317.151 467.056 Q318.261 465.42 319.935 464.555 Q321.608 463.671 323.621 463.671 Q327.853 463.671 330.298 466.247 Q332.761 468.805 332.761 473.225 Q332.761 477.551 330.204 480.165 Q327.646 482.779 323.395 482.779 Q318.524 482.779 315.947 479.056 Q313.371 475.313 313.371 468.222 Q313.371 461.564 316.53 457.615 Q319.69 453.646 325.013 453.646 Q326.442 453.646 327.89 453.928 Q329.357 454.21 330.937 454.775 Z" fill="#000000" fill-rule="evenodd" fill-opacity="1" /><path clip-path="url(#clip420)" d="M92.511 196.882 L100.15 196.882 L100.15 170.516 L91.8397 172.183 L91.8397 167.924 L100.104 166.257 L104.779 166.257 L104.779 196.882 L112.418 196.882 L112.418 200.817 L92.511 200.817 L92.511 196.882 Z" fill="#000000" fill-rule="evenodd" fill-opacity="1" /><path clip-path="url(#clip420)" d="M121.863 194.937 L126.747 194.937 L126.747 200.817 L121.863 200.817 L121.863 194.937 Z" fill="#000000" fill-rule="evenodd" fill-opacity="1" /><path clip-path="url(#clip420)" d="M146.932 169.336 Q143.321 169.336 141.492 172.9 Q139.687 176.442 139.687 183.572 Q139.687 190.678 141.492 194.243 Q143.321 197.785 146.932 197.785 Q150.566 197.785 152.372 194.243 Q154.2 190.678 154.2 183.572 Q154.2 176.442 152.372 172.9 Q150.566 169.336 146.932 169.336 M146.932 165.632 Q152.742 165.632 155.798 170.238 Q158.876 174.822 158.876 183.572 Q158.876 192.299 155.798 196.905 Q152.742 201.488 146.932 201.488 Q141.122 201.488 138.043 196.905 Q134.988 192.299 134.988 183.572 Q134.988 174.822 138.043 170.238 Q141.122 165.632 146.932 165.632 Z" fill="#000000" fill-rule="evenodd" fill-opacity="1" /><path clip-path="url(#clip420)" d="M195.265 175.354 L184.686 185.979 L195.265 196.558 L192.51 199.359 L181.886 188.734 L171.261 199.359 L168.529 196.558 L179.085 185.979 L168.529 175.354 L171.261 172.553 L181.886 183.178 L192.51 172.553 L195.265 175.354 Z" fill="#000000" fill-rule="evenodd" fill-opacity="1" /><path clip-path="url(#clip420)" d="M207.626 196.882 L215.265 196.882 L215.265 170.516 L206.955 172.183 L206.955 167.924 L215.219 166.257 L219.895 166.257 L219.895 196.882 L227.533 196.882 L227.533 200.817 L207.626 200.817 L207.626 196.882 Z" fill="#000000" fill-rule="evenodd" fill-opacity="1" /><path clip-path="url(#clip420)" d="M246.978 169.336 Q243.367 169.336 241.538 172.9 Q239.732 176.442 239.732 183.572 Q239.732 190.678 241.538 194.243 Q243.367 197.785 246.978 197.785 Q250.612 197.785 252.418 194.243 Q254.246 190.678 254.246 183.572 Q254.246 176.442 252.418 172.9 Q250.612 169.336 246.978 169.336 M246.978 165.632 Q252.788 165.632 255.843 170.238 Q258.922 174.822 258.922 183.572 Q258.922 192.299 255.843 196.905 Q252.788 201.488 246.978 201.488 Q241.168 201.488 238.089 196.905 Q235.033 192.299 235.033 183.572 Q235.033 174.822 238.089 170.238 Q241.168 165.632 246.978 165.632 Z" fill="#000000" fill-rule="evenodd" fill-opacity="1" /><path clip-path="url(#clip420)" d="M258.922 159.733 L283.034 159.733 L283.034 162.931 L258.922 162.931 L258.922 159.733 Z" fill="#000000" fill-rule="evenodd" fill-opacity="1" /><path clip-path="url(#clip420)" d="M291.892 170.209 L298.099 170.209 L298.099 148.787 L291.347 150.141 L291.347 146.681 L298.061 145.327 L301.86 145.327 L301.86 170.209 L308.067 170.209 L308.067 173.407 L291.892 173.407 L291.892 170.209 Z" fill="#000000" fill-rule="evenodd" fill-opacity="1" /><path clip-path="url(#clip420)" d="M315.778 145.327 L330.693 145.327 L330.693 148.524 L319.257 148.524 L319.257 155.408 Q320.085 155.125 320.913 154.994 Q321.74 154.843 322.568 154.843 Q327.27 154.843 330.016 157.42 Q332.761 159.997 332.761 164.398 Q332.761 168.93 329.94 171.451 Q327.119 173.952 321.985 173.952 Q320.217 173.952 318.374 173.651 Q316.549 173.35 314.593 172.748 L314.593 168.93 Q316.286 169.852 318.091 170.303 Q319.897 170.755 321.909 170.755 Q325.163 170.755 327.063 169.043 Q328.962 167.332 328.962 164.398 Q328.962 161.464 327.063 159.752 Q325.163 158.041 321.909 158.041 Q320.386 158.041 318.863 158.379 Q317.358 158.718 315.778 159.432 L315.778 145.327 Z" fill="#000000" fill-rule="evenodd" fill-opacity="1" /><polyline clip-path="url(#clip422)" style="stroke:#009af9; stroke-linecap:butt; stroke-linejoin:round; stroke-width:12; stroke-opacity:1; fill:none" points="
  368.761,1411.91 371.991,1411.91 375.22,1411.91 378.449,1411.91 381.678,1411.91 389.143,1411.91 396.608,1411.91 404.072,1411.91 411.537,1411.91 415.27,1411.91 
  419.002,1411.91 420.868,1411.91 422.734,1411.91 423.667,1411.91 424.6,1411.91 425.533,1343.33 426.467,1343.33 427.4,1343.33 428.333,1343.33 429.266,1343.33 
  430.199,1343.33 432.065,1343.33 433.931,1343.33 437.664,1343.33 441.396,1343.33 456.325,1343.33 471.255,1343.33 486.184,1343.33 501.114,1343.33 510.086,1343.33 
  519.058,1343.33 523.543,1343.33 528.029,1343.33 529.151,1343.33 530.272,1343.33 531.394,1343.33 532.515,1343.33 533.076,1343.33 533.637,1343.33 534.198,1343.33 
  534.758,1274.76 535.319,1274.76 535.88,1274.76 536.441,1274.76 537.001,1274.76 539.244,1274.76 541.487,1274.76 543.73,1274.76 545.973,1274.76 550.459,1274.76 
  554.945,1274.76 563.917,1274.76 572.889,1274.76 588.061,1274.76 603.232,1274.76 610.818,1274.76 618.403,1274.76 625.989,1274.76 633.575,1274.76 635.635,1274.76 
  637.695,1274.76 639.755,1274.76 641.815,1274.76 642.33,1274.76 642.845,1274.76 643.36,1274.76 643.875,1274.76 644.39,1274.76 644.905,1206.19 645.42,1206.19 
  645.935,1206.19 646.965,1206.19 647.995,1206.19 649.025,1206.19 650.055,1206.19 654.175,1206.19 658.295,1206.19 662.415,1206.19 666.535,1206.19 683.016,1206.19 
  699.496,1206.19 714.689,1206.19 729.883,1206.19 737.479,1206.19 745.076,1206.19 746.975,1206.19 748.875,1206.19 750.774,1206.19 752.673,1206.19 753.148,1206.19 
  753.622,1206.19 754.097,1206.19 754.572,1206.19 755.047,1137.61 755.522,1137.61 755.996,1137.61 756.471,1137.61 757.421,1137.61 758.37,1137.61 759.32,1137.61 
  760.27,1137.61 762.306,1137.61 764.342,1137.61 766.378,1137.61 768.414,1137.61 772.486,1137.61 776.559,1137.61 784.703,1137.61 792.847,1137.61 809.136,1137.61 
  825.425,1137.61 834.861,1137.61 844.298,1137.61 849.016,1137.61 853.734,1137.61 856.093,1137.61 858.452,1137.61 859.631,1137.61 860.811,1137.61 861.99,1137.61 
  863.17,1137.61 863.76,1137.61 864.35,1137.61 864.939,1137.61 865.529,1069.04 866.119,1069.04 866.709,1069.04 867.298,1069.04 867.888,1069.04 870.247,1069.04 
  872.606,1069.04 877.324,1069.04 882.042,1069.04 891.478,1069.04 900.915,1069.04 917.686,1069.04 934.458,1069.04 942.843,1069.04 951.229,1069.04 955.422,1069.04 
  959.615,1069.04 963.808,1069.04 968.001,1069.04 969.839,1069.04 971.677,1069.04 972.597,1069.04 973.516,1069.04 973.975,1069.04 974.435,1069.04 974.895,1069.04 
  975.354,1000.46 975.814,1000.46 976.273,1000.46 976.733,1000.46 977.193,1000.46 978.112,1000.46 979.031,1000.46 980.869,1000.46 982.708,1000.46 990.061,1000.46 
  997.415,1000.46 1012.12,1000.46 1026.83,1000.46 1042.86,1000.46 1058.9,1000.46 1066.92,1000.46 1074.93,1000.46 1076.94,1000.46 1078.94,1000.46 1080.95,1000.46 
  1082.95,1000.46 1083.45,1000.46 1083.95,1000.46 1084.45,1000.46 1084.95,1000.46 1085.46,931.891 1085.96,931.891 1086.46,931.891 1086.96,931.891 1087.96,931.891 
  1088.96,931.891 1089.97,931.891 1090.97,931.891 1099.03,931.891 1107.1,931.891 1115.16,931.891 1123.23,931.891 1139.36,931.891 1155.49,931.891 1164.4,931.891 
  1173.32,931.891 1177.78,931.891 1182.24,931.891 1184.47,931.891 1186.7,931.891 1188.93,931.891 1191.16,931.891 1192.27,931.891 1193.38,931.891 1193.94,931.891 
  1194.5,931.891 1195.06,931.891 1195.61,863.318 1196.17,863.318 1196.73,863.318 1197.29,863.318 1197.84,863.318 1198.96,863.318 1200.07,863.318 1204.53,863.318 
  1208.99,863.318 1217.91,863.318 1226.82,863.318 1243.79,863.318 1260.76,863.318 1277.73,863.318 1294.7,863.318 1296.9,863.318 1299.11,863.318 1300.21,863.318 
  1301.31,863.318 1302.42,863.318 1303.52,863.318 1304.07,863.318 1304.62,863.318 1305.17,863.318 1305.72,794.744 1306.27,794.744 1306.83,794.744 1307.38,794.744 
  1307.93,794.744 1310.13,794.744 1312.34,794.744 1316.75,794.744 1321.16,794.744 1325.57,794.744 1329.98,794.744 1347.63,794.744 1365.27,794.744 1394.97,794.744 
  1424.68,794.744 1433.74,794.744 1442.81,794.744 1451.87,794.744 1460.94,794.744 1463.21,794.744 1465.47,794.744 1466.61,794.744 1467.74,794.744 1468.31,794.744 
  1468.87,794.744 1469.44,794.744 1470.01,794.744 1470.57,794.744 1471.14,657.597 1471.71,657.597 1472.27,657.597 1473.41,657.597 1474.54,657.597 1476.81,657.597 
  1479.07,657.597 1483.61,657.597 1488.14,657.597 1492.67,657.597 1497.21,657.597 1530.43,657.597 1563.65,657.597 1594.33,657.597 1625.01,657.597 1640.55,657.597 
  1656.09,657.597 1663.86,657.597 1671.63,657.597 1679.4,657.597 1687.17,657.597 1688.26,657.597 1689.35,657.597 1689.89,657.597 1690.44,657.597 1690.98,657.597 
  1691.52,520.45 1692.07,520.45 1692.61,520.45 1693.16,520.45 1693.7,520.45 1694.79,520.45 1695.88,520.45 1700.23,520.45 1704.59,520.45 1713.29,520.45 
  1722,520.45 1739.42,520.45 1756.83,520.45 1788.4,520.45 1819.96,520.45 1856.1,520.45 1892.24,520.45 1896.42,520.45 1900.6,520.45 1902.69,520.45 
  1904.78,520.45 1906.87,520.45 1908.97,520.45 1909.49,520.45 1910.01,520.45 1910.53,520.45 1911.06,520.45 1911.58,383.303 1912.1,383.303 1912.63,383.303 
  1913.15,383.303 1914.19,383.303 1915.24,383.303 1916.29,383.303 1917.33,383.303 1921.51,383.303 1925.7,383.303 1942.43,383.303 1959.16,383.303 1992.14,383.303 
  2025.13,383.303 2057.16,383.303 2089.19,383.303 2105.61,383.303 2122.02,383.303 2124.08,383.303 2126.13,383.303 2127.15,383.303 2128.18,383.303 2129.21,383.303 
  2130.23,383.303 2130.74,383.303 2131.26,383.303 2131.77,246.157 2132.28,246.157 2132.8,246.157 2133.31,246.157 2133.82,246.157 2134.34,246.157 2136.39,246.157 
  2138.44,246.157 2142.54,246.157 2146.65,246.157 2150.75,246.157 2154.86,246.157 2190.83,246.157 2226.8,246.157 2279.06,246.157 2331.31,246.157 2342.04,246.157 
  2352.76,109.01 
  "/>
<polyline clip-path="url(#clip422)" style="stroke:#e26f46; stroke-linecap:butt; stroke-linejoin:round; stroke-width:12; stroke-opacity:1; fill:none" points="
  368.761,1412.4 381.678,1404.36 501.114,1329.99 572.889,1285.3 633.575,1247.52 699.496,1206.47 760.27,1168.63 825.425,1128.06 900.915,1081.06 968.001,1039.29 
  1026.83,1002.66 1090.97,962.726 1155.49,922.554 1226.82,878.138 1294.7,835.877 1365.27,791.936 1424.68,754.947 1497.21,709.787 1563.65,668.418 1625.01,630.211 
  1687.17,591.508 1756.83,548.133 1819.96,508.828 1892.24,463.826 1959.16,422.159 2025.13,381.08 2089.19,341.196 2154.86,300.309 2226.8,255.513 2331.31,190.439 
  2352.76,177.089 
  "/>
<path clip-path="url(#clip420)" d="
M2013.75 250.328 L2286.62 250.328 L2286.62 94.8081 L2013.75 94.8081  Z
  " fill="#ffffff" fill-rule="evenodd" fill-opacity="1"/>
<polyline clip-path="url(#clip420)" style="stroke:#000000; stroke-linecap:butt; stroke-linejoin:round; stroke-width:4; stroke-opacity:1; fill:none" points="
  2013.75,250.328 2286.62,250.328 2286.62,94.8081 2013.75,94.8081 2013.75,250.328 
  "/>
<polyline clip-path="url(#clip420)" style="stroke:#009af9; stroke-linecap:butt; stroke-linejoin:round; stroke-width:4; stroke-opacity:1; fill:none" points="
  2035.79,146.648 2168.06,146.648 
  "/>
<path clip-path="url(#clip420)" d="M2203.95 166.336 Q2202.14 170.965 2200.43 172.377 Q2198.71 173.789 2195.84 173.789 L2192.44 173.789 L2192.44 170.224 L2194.94 170.224 Q2196.7 170.224 2197.67 169.391 Q2198.65 168.558 2199.83 165.456 L2200.59 163.511 L2190.1 138.002 L2194.62 138.002 L2202.72 158.28 L2210.82 138.002 L2215.34 138.002 L2203.95 166.336 Z" fill="#000000" fill-rule="evenodd" fill-opacity="1" /><path clip-path="url(#clip420)" d="M2222.63 159.993 L2230.27 159.993 L2230.27 133.627 L2221.96 135.294 L2221.96 131.035 L2230.22 129.368 L2234.9 129.368 L2234.9 159.993 L2242.53 159.993 L2242.53 163.928 L2222.63 163.928 L2222.63 159.993 Z" fill="#000000" fill-rule="evenodd" fill-opacity="1" /><polyline clip-path="url(#clip420)" style="stroke:#e26f46; stroke-linecap:butt; stroke-linejoin:round; stroke-width:4; stroke-opacity:1; fill:none" points="
  2035.79,198.488 2168.06,198.488 
  "/>
<path clip-path="url(#clip420)" d="M2203.95 218.176 Q2202.14 222.805 2200.43 224.217 Q2198.71 225.629 2195.84 225.629 L2192.44 225.629 L2192.44 222.064 L2194.94 222.064 Q2196.7 222.064 2197.67 221.231 Q2198.65 220.398 2199.83 217.296 L2200.59 215.351 L2190.1 189.842 L2194.62 189.842 L2202.72 210.12 L2210.82 189.842 L2215.34 189.842 L2203.95 218.176 Z" fill="#000000" fill-rule="evenodd" fill-opacity="1" /><path clip-path="url(#clip420)" d="M2225.84 211.833 L2242.16 211.833 L2242.16 215.768 L2220.22 215.768 L2220.22 211.833 Q2222.88 209.078 2227.46 204.449 Q2232.07 199.796 2233.25 198.453 Q2235.5 195.93 2236.38 194.194 Q2237.28 192.435 2237.28 190.745 Q2237.28 187.99 2235.33 186.254 Q2233.41 184.518 2230.31 184.518 Q2228.11 184.518 2225.66 185.282 Q2223.23 186.046 2220.45 187.597 L2220.45 182.875 Q2223.27 181.741 2225.73 181.162 Q2228.18 180.583 2230.22 180.583 Q2235.59 180.583 2238.78 183.268 Q2241.98 185.953 2241.98 190.444 Q2241.98 192.574 2241.17 194.495 Q2240.38 196.393 2238.27 198.986 Q2237.7 199.657 2234.59 202.875 Q2231.49 206.069 2225.84 211.833 Z" fill="#000000" fill-rule="evenodd" fill-opacity="1" /></svg>
