<?xml version="1.0" encoding="utf-8"?>
<svg xmlns="http://www.w3.org/2000/svg" xmlns:xlink="http://www.w3.org/1999/xlink" width="600" height="400" viewBox="0 0 2400 1600">
<defs>
  <clipPath id="clip730">
    <rect x="0" y="0" width="2400" height="1600"/>
  </clipPath>
</defs>
<path clip-path="url(#clip730)" d="
M0 1600 L2400 1600 L2400 0 L0 0  Z
  " fill="#ffffff" fill-rule="evenodd" fill-opacity="1"/>
<defs>
  <clipPath id="clip731">
    <rect x="480" y="0" width="1681" height="1600"/>
  </clipPath>
</defs>
<path clip-path="url(#clip730)" d="
M193.936 1486.45 L2352.76 1486.45 L2352.76 47.2441 L193.936 47.2441  Z
  " fill="#ffffff" fill-rule="evenodd" fill-opacity="1"/>
<defs>
  <clipPath id="clip732">
    <rect x="193" y="47" width="2160" height="1440"/>
  </clipPath>
</defs>
<polyline clip-path="url(#clip732)" style="stroke:#000000; stroke-linecap:butt; stroke-linejoin:round; stroke-width:2; stroke-opacity:0.1; fill:none" points="
  193.936,1486.45 193.936,47.2441 
  "/>
<polyline clip-path="url(#clip732)" style="stroke:#000000; stroke-linecap:butt; stroke-linejoin:round; stroke-width:2; stroke-opacity:0.1; fill:none" points="
  553.739,1486.45 553.739,47.2441 
  "/>
<polyline clip-path="url(#clip732)" style="stroke:#000000; stroke-linecap:butt; stroke-linejoin:round; stroke-width:2; stroke-opacity:0.1; fill:none" points="
  913.543,1486.45 913.543,47.2441 
  "/>
<polyline clip-path="url(#clip732)" style="stroke:#000000; stroke-linecap:butt; stroke-linejoin:round; stroke-width:2; stroke-opacity:0.1; fill:none" points="
  1273.35,1486.45 1273.35,47.2441 
  "/>
<polyline clip-path="url(#clip732)" style="stroke:#000000; stroke-linecap:butt; stroke-linejoin:round; stroke-width:2; stroke-opacity:0.1; fill:none" points="
  1633.15,1486.45 1633.15,47.2441 
  "/>
<polyline clip-path="url(#clip732)" style="stroke:#000000; stroke-linecap:butt; stroke-linejoin:round; stroke-width:2; stroke-opacity:0.1; fill:none" points="
  1992.95,1486.45 1992.95,47.2441 
  "/>
<polyline clip-path="url(#clip732)" style="stroke:#000000; stroke-linecap:butt; stroke-linejoin:round; stroke-width:2; stroke-opacity:0.1; fill:none" points="
  2352.76,1486.45 2352.76,47.2441 
  "/>
<polyline clip-path="url(#clip730)" style="stroke:#000000; stroke-linecap:butt; stroke-linejoin:round; stroke-width:4; stroke-opacity:1; fill:none" points="
  193.936,1486.45 2352.76,1486.45 
  "/>
<polyline clip-path="url(#clip730)" style="stroke:#000000; stroke-linecap:butt; stroke-linejoin:round; stroke-width:4; stroke-opacity:1; fill:none" points="
  193.936,1486.45 193.936,1467.55 
  "/>
<polyline clip-path="url(#clip730)" style="stroke:#000000; stroke-linecap:butt; stroke-linejoin:round; stroke-width:4; stroke-opacity:1; fill:none" points="
  553.739,1486.45 553.739,1467.55 
  "/>
<polyline clip-path="url(#clip730)" style="stroke:#000000; stroke-linecap:butt; stroke-linejoin:round; stroke-width:4; stroke-opacity:1; fill:none" points="
  913.543,1486.45 913.543,1467.55 
  "/>
<polyline clip-path="url(#clip730)" style="stroke:#000000; stroke-linecap:butt; stroke-linejoin:round; stroke-width:4; stroke-opacity:1; fill:none" points="
  1273.35,1486.45 1273.35,1467.55 
  "/>
<polyline clip-path="url(#clip730)" style="stroke:#000000; stroke-linecap:butt; stroke-linejoin:round; stroke-width:4; stroke-opacity:1; fill:none" points="
  1633.15,1486.45 1633.15,1467.55 
  "/>
<polyline clip-path="url(#clip730)" style="stroke:#000000; stroke-linecap:butt; stroke-linejoin:round; stroke-width:4; stroke-opacity:1; fill:none" points="
  1992.95,1486.45 1992.95,1467.55 
  "/>
<polyline clip-path="url(#clip730)" style="stroke:#000000; stroke-linecap:butt; stroke-linejoin:round; stroke-width:4; stroke-opacity:1; fill:none" points="
  2352.76,1486.45 2352.76,1467.55 
  "/>
<path clip-path="url(#clip730)" d="M163.404 1532.02 L193.08 1532.02 L193.08 1535.95 L163.404 1535.95 L163.404 1532.02 Z" fill="#000000" fill-rule="evenodd" fill-opacity="1" /><path clip-path="url(#clip730)" d="M217.339 1530.21 Q220.695 1530.93 222.57 1533.2 Q224.468 1535.47 224.468 1538.8 Q224.468 1543.92 220.95 1546.72 Q217.431 1549.52 210.95 1549.52 Q208.774 1549.52 206.459 1549.08 Q204.167 1548.66 201.714 1547.81 L201.714 1543.29 Q203.658 1544.43 205.973 1545.01 Q208.288 1545.58 210.811 1545.58 Q215.209 1545.58 217.501 1543.85 Q219.815 1542.11 219.815 1538.8 Q219.815 1535.75 217.663 1534.03 Q215.533 1532.3 211.714 1532.3 L207.686 1532.3 L207.686 1528.45 L211.899 1528.45 Q215.348 1528.45 217.177 1527.09 Q219.005 1525.7 219.005 1523.11 Q219.005 1520.45 217.107 1519.03 Q215.232 1517.6 211.714 1517.6 Q209.792 1517.6 207.593 1518.01 Q205.394 1518.43 202.755 1519.31 L202.755 1515.14 Q205.417 1514.4 207.732 1514.03 Q210.07 1513.66 212.13 1513.66 Q217.454 1513.66 220.556 1516.09 Q223.658 1518.5 223.658 1522.62 Q223.658 1525.49 222.015 1527.48 Q220.371 1529.45 217.339 1530.21 Z" fill="#000000" fill-rule="evenodd" fill-opacity="1" /><path clip-path="url(#clip730)" d="M523.682 1532.02 L553.357 1532.02 L553.357 1535.95 L523.682 1535.95 L523.682 1532.02 Z" fill="#000000" fill-rule="evenodd" fill-opacity="1" /><path clip-path="url(#clip730)" d="M567.478 1544.91 L583.797 1544.91 L583.797 1548.85 L561.853 1548.85 L561.853 1544.91 Q564.515 1542.16 569.098 1537.53 Q573.704 1532.88 574.885 1531.53 Q577.13 1529.01 578.01 1527.27 Q578.913 1525.51 578.913 1523.82 Q578.913 1521.07 576.968 1519.33 Q575.047 1517.6 571.945 1517.6 Q569.746 1517.6 567.292 1518.36 Q564.862 1519.13 562.084 1520.68 L562.084 1515.95 Q564.908 1514.82 567.362 1514.24 Q569.816 1513.66 571.853 1513.66 Q577.223 1513.66 580.417 1516.35 Q583.612 1519.03 583.612 1523.52 Q583.612 1525.65 582.802 1527.57 Q582.015 1529.47 579.908 1532.07 Q579.329 1532.74 576.228 1535.95 Q573.126 1539.15 567.478 1544.91 Z" fill="#000000" fill-rule="evenodd" fill-opacity="1" /><path clip-path="url(#clip730)" d="M883.3 1532.02 L912.976 1532.02 L912.976 1535.95 L883.3 1535.95 L883.3 1532.02 Z" fill="#000000" fill-rule="evenodd" fill-opacity="1" /><path clip-path="url(#clip730)" d="M923.878 1544.91 L931.517 1544.91 L931.517 1518.55 L923.207 1520.21 L923.207 1515.95 L931.471 1514.29 L936.147 1514.29 L936.147 1544.91 L943.786 1544.91 L943.786 1548.85 L923.878 1548.85 L923.878 1544.91 Z" fill="#000000" fill-rule="evenodd" fill-opacity="1" /><path clip-path="url(#clip730)" d="M1273.35 1517.37 Q1269.73 1517.37 1267.91 1520.93 Q1266.1 1524.47 1266.1 1531.6 Q1266.1 1538.71 1267.91 1542.27 Q1269.73 1545.82 1273.35 1545.82 Q1276.98 1545.82 1278.79 1542.27 Q1280.61 1538.71 1280.61 1531.6 Q1280.61 1524.47 1278.79 1520.93 Q1276.98 1517.37 1273.35 1517.37 M1273.35 1513.66 Q1279.16 1513.66 1282.21 1518.27 Q1285.29 1522.85 1285.29 1531.6 Q1285.29 1540.33 1282.21 1544.94 Q1279.16 1549.52 1273.35 1549.52 Q1267.54 1549.52 1264.46 1544.94 Q1261.4 1540.33 1261.4 1531.6 Q1261.4 1522.85 1264.46 1518.27 Q1267.54 1513.66 1273.35 1513.66 Z" fill="#000000" fill-rule="evenodd" fill-opacity="1" /><path clip-path="url(#clip730)" d="M1623.53 1544.91 L1631.17 1544.91 L1631.17 1518.55 L1622.86 1520.21 L1622.86 1515.95 L1631.12 1514.29 L1635.8 1514.29 L1635.8 1544.91 L1643.44 1544.91 L1643.44 1548.85 L1623.53 1548.85 L1623.53 1544.91 Z" fill="#000000" fill-rule="evenodd" fill-opacity="1" /><path clip-path="url(#clip730)" d="M1987.61 1544.91 L2003.92 1544.91 L2003.92 1548.85 L1981.98 1548.85 L1981.98 1544.91 Q1984.64 1542.16 1989.23 1537.53 Q1993.83 1532.88 1995.01 1531.53 Q1997.26 1529.01 1998.14 1527.27 Q1999.04 1525.51 1999.04 1523.82 Q1999.04 1521.07 1997.1 1519.33 Q1995.17 1517.6 1992.07 1517.6 Q1989.87 1517.6 1987.42 1518.36 Q1984.99 1519.13 1982.21 1520.68 L1982.21 1515.95 Q1985.04 1514.82 1987.49 1514.24 Q1989.94 1513.66 1991.98 1513.66 Q1997.35 1513.66 2000.55 1516.35 Q2003.74 1519.03 2003.74 1523.52 Q2003.74 1525.65 2002.93 1527.57 Q2002.14 1529.47 2000.04 1532.07 Q1999.46 1532.74 1996.36 1535.95 Q1993.25 1539.15 1987.61 1544.91 Z" fill="#000000" fill-rule="evenodd" fill-opacity="1" /><path clip-path="url(#clip730)" d="M2357 1530.21 Q2360.36 1530.93 2362.24 1533.2 Q2364.13 1535.47 2364.13 1538.8 Q2364.13 1543.92 2360.61 1546.72 Q2357.1 1549.52 2350.61 1549.52 Q2348.44 1549.52 2346.12 1549.08 Q2343.83 1548.66 2341.38 1547.81 L2341.38 1543.29 Q2343.32 1544.43 2345.64 1545.01 Q2347.95 1545.58 2350.48 1545.58 Q2354.87 1545.58 2357.17 1543.85 Q2359.48 1542.11 2359.48 1538.8 Q2359.48 1535.75 2357.33 1534.03 Q2355.2 1532.3 2351.38 1532.3 L2347.35 1532.3 L2347.35 1528.45 L2351.56 1528.45 Q2355.01 1528.45 2356.84 1527.09 Q2358.67 1525.7 2358.67 1523.11 Q2358.67 1520.45 2356.77 1519.03 Q2354.9 1517.6 2351.38 1517.6 Q2349.46 1517.6 2347.26 1518.01 Q2345.06 1518.43 2342.42 1519.31 L2342.42 1515.14 Q2345.08 1514.4 2347.4 1514.03 Q2349.74 1513.66 2351.8 1513.66 Q2357.12 1513.66 2360.22 1516.09 Q2363.32 1518.5 2363.32 1522.62 Q2363.32 1525.49 2361.68 1527.48 Q2360.04 1529.45 2357 1530.21 Z" fill="#000000" fill-rule="evenodd" fill-opacity="1" /><polyline clip-path="url(#clip732)" style="stroke:#000000; stroke-linecap:butt; stroke-linejoin:round; stroke-width:2; stroke-opacity:0.1; fill:none" points="
  193.936,1384.79 2352.76,1384.79 
  "/>
<polyline clip-path="url(#clip732)" style="stroke:#000000; stroke-linecap:butt; stroke-linejoin:round; stroke-width:2; stroke-opacity:0.1; fill:none" points="
  193.936,1178.81 2352.76,1178.81 
  "/>
<polyline clip-path="url(#clip732)" style="stroke:#000000; stroke-linecap:butt; stroke-linejoin:round; stroke-width:2; stroke-opacity:0.1; fill:none" points="
  193.936,972.828 2352.76,972.828 
  "/>
<polyline clip-path="url(#clip732)" style="stroke:#000000; stroke-linecap:butt; stroke-linejoin:round; stroke-width:2; stroke-opacity:0.1; fill:none" points="
  193.936,766.846 2352.76,766.846 
  "/>
<polyline clip-path="url(#clip732)" style="stroke:#000000; stroke-linecap:butt; stroke-linejoin:round; stroke-width:2; stroke-opacity:0.1; fill:none" points="
  193.936,560.864 2352.76,560.864 
  "/>
<polyline clip-path="url(#clip732)" style="stroke:#000000; stroke-linecap:butt; stroke-linejoin:round; stroke-width:2; stroke-opacity:0.1; fill:none" points="
  193.936,354.882 2352.76,354.882 
  "/>
<polyline clip-path="url(#clip732)" style="stroke:#000000; stroke-linecap:butt; stroke-linejoin:round; stroke-width:2; stroke-opacity:0.1; fill:none" points="
  193.936,148.899 2352.76,148.899 
  "/>
<polyline clip-path="url(#clip730)" style="stroke:#000000; stroke-linecap:butt; stroke-linejoin:round; stroke-width:4; stroke-opacity:1; fill:none" points="
  193.936,1486.45 193.936,47.2441 
  "/>
<polyline clip-path="url(#clip730)" style="stroke:#000000; stroke-linecap:butt; stroke-linejoin:round; stroke-width:4; stroke-opacity:1; fill:none" points="
  193.936,1384.79 212.834,1384.79 
  "/>
<polyline clip-path="url(#clip730)" style="stroke:#000000; stroke-linecap:butt; stroke-linejoin:round; stroke-width:4; stroke-opacity:1; fill:none" points="
  193.936,1178.81 212.834,1178.81 
  "/>
<polyline clip-path="url(#clip730)" style="stroke:#000000; stroke-linecap:butt; stroke-linejoin:round; stroke-width:4; stroke-opacity:1; fill:none" points="
  193.936,972.828 212.834,972.828 
  "/>
<polyline clip-path="url(#clip730)" style="stroke:#000000; stroke-linecap:butt; stroke-linejoin:round; stroke-width:4; stroke-opacity:1; fill:none" points="
  193.936,766.846 212.834,766.846 
  "/>
<polyline clip-path="url(#clip730)" style="stroke:#000000; stroke-linecap:butt; stroke-linejoin:round; stroke-width:4; stroke-opacity:1; fill:none" points="
  193.936,560.864 212.834,560.864 
  "/>
<polyline clip-path="url(#clip730)" style="stroke:#000000; stroke-linecap:butt; stroke-linejoin:round; stroke-width:4; stroke-opacity:1; fill:none" points="
  193.936,354.882 212.834,354.882 
  "/>
<polyline clip-path="url(#clip730)" style="stroke:#000000; stroke-linecap:butt; stroke-linejoin:round; stroke-width:4; stroke-opacity:1; fill:none" points="
  193.936,148.899 212.834,148.899 
  "/>
<path clip-path="url(#clip730)" d="M51.9875 1385.24 L81.6633 1385.24 L81.6633 1389.18 L51.9875 1389.18 L51.9875 1385.24 Z" fill="#000000" fill-rule="evenodd" fill-opacity="1" /><path clip-path="url(#clip730)" d="M92.566 1398.14 L100.205 1398.14 L100.205 1371.77 L91.8947 1373.44 L91.8947 1369.18 L100.159 1367.51 L104.834 1367.51 L104.834 1398.14 L112.473 1398.14 L112.473 1402.07 L92.566 1402.07 L92.566 1398.14 Z" fill="#000000" fill-rule="evenodd" fill-opacity="1" /><path clip-path="url(#clip730)" d="M121.918 1396.19 L126.802 1396.19 L126.802 1402.07 L121.918 1402.07 L121.918 1396.19 Z" fill="#000000" fill-rule="evenodd" fill-opacity="1" /><path clip-path="url(#clip730)" d="M137.033 1367.51 L155.39 1367.51 L155.39 1371.45 L141.316 1371.45 L141.316 1379.92 Q142.334 1379.57 143.353 1379.41 Q144.371 1379.23 145.39 1379.23 Q151.177 1379.23 154.556 1382.4 Q157.936 1385.57 157.936 1390.98 Q157.936 1396.56 154.464 1399.67 Q150.992 1402.74 144.672 1402.74 Q142.496 1402.74 140.228 1402.37 Q137.982 1402 135.575 1401.26 L135.575 1396.56 Q137.658 1397.7 139.881 1398.25 Q142.103 1398.81 144.58 1398.81 Q148.584 1398.81 150.922 1396.7 Q153.26 1394.6 153.26 1390.98 Q153.26 1387.37 150.922 1385.27 Q148.584 1383.16 144.58 1383.16 Q142.705 1383.16 140.83 1383.58 Q138.978 1383.99 137.033 1384.87 L137.033 1367.51 Z" fill="#000000" fill-rule="evenodd" fill-opacity="1" /><path clip-path="url(#clip730)" d="M50.9921 1179.26 L80.6679 1179.26 L80.6679 1183.2 L50.9921 1183.2 L50.9921 1179.26 Z" fill="#000000" fill-rule="evenodd" fill-opacity="1" /><path clip-path="url(#clip730)" d="M91.5706 1192.16 L99.2095 1192.16 L99.2095 1165.79 L90.8993 1167.46 L90.8993 1163.2 L99.1632 1161.53 L103.839 1161.53 L103.839 1192.16 L111.478 1192.16 L111.478 1196.09 L91.5706 1196.09 L91.5706 1192.16 Z" fill="#000000" fill-rule="evenodd" fill-opacity="1" /><path clip-path="url(#clip730)" d="M120.922 1190.21 L125.807 1190.21 L125.807 1196.09 L120.922 1196.09 L120.922 1190.21 Z" fill="#000000" fill-rule="evenodd" fill-opacity="1" /><path clip-path="url(#clip730)" d="M145.992 1164.61 Q142.381 1164.61 140.552 1168.17 Q138.746 1171.72 138.746 1178.85 Q138.746 1185.95 140.552 1189.52 Q142.381 1193.06 145.992 1193.06 Q149.626 1193.06 151.431 1189.52 Q153.26 1185.95 153.26 1178.85 Q153.26 1171.72 151.431 1168.17 Q149.626 1164.61 145.992 1164.61 M145.992 1160.91 Q151.802 1160.91 154.857 1165.51 Q157.936 1170.1 157.936 1178.85 Q157.936 1187.57 154.857 1192.18 Q151.802 1196.76 145.992 1196.76 Q140.181 1196.76 137.103 1192.18 Q134.047 1187.57 134.047 1178.85 Q134.047 1170.1 137.103 1165.51 Q140.181 1160.91 145.992 1160.91 Z" fill="#000000" fill-rule="evenodd" fill-opacity="1" /><path clip-path="url(#clip730)" d="M51.9875 973.28 L81.6633 973.28 L81.6633 977.215 L51.9875 977.215 L51.9875 973.28 Z" fill="#000000" fill-rule="evenodd" fill-opacity="1" /><path clip-path="url(#clip730)" d="M101.756 958.627 Q98.1447 958.627 96.316 962.192 Q94.5104 965.733 94.5104 972.863 Q94.5104 979.969 96.316 983.534 Q98.1447 987.076 101.756 987.076 Q105.39 987.076 107.196 983.534 Q109.024 979.969 109.024 972.863 Q109.024 965.733 107.196 962.192 Q105.39 958.627 101.756 958.627 M101.756 954.923 Q107.566 954.923 110.621 959.53 Q113.7 964.113 113.7 972.863 Q113.7 981.59 110.621 986.196 Q107.566 990.779 101.756 990.779 Q95.9456 990.779 92.8669 986.196 Q89.8114 981.59 89.8114 972.863 Q89.8114 964.113 92.8669 959.53 Q95.9456 954.923 101.756 954.923 Z" fill="#000000" fill-rule="evenodd" fill-opacity="1" /><path clip-path="url(#clip730)" d="M121.918 984.229 L126.802 984.229 L126.802 990.108 L121.918 990.108 L121.918 984.229 Z" fill="#000000" fill-rule="evenodd" fill-opacity="1" /><path clip-path="url(#clip730)" d="M137.033 955.548 L155.39 955.548 L155.39 959.483 L141.316 959.483 L141.316 967.956 Q142.334 967.608 143.353 967.446 Q144.371 967.261 145.39 967.261 Q151.177 967.261 154.556 970.432 Q157.936 973.604 157.936 979.02 Q157.936 984.599 154.464 987.701 Q150.992 990.779 144.672 990.779 Q142.496 990.779 140.228 990.409 Q137.982 990.039 135.575 989.298 L135.575 984.599 Q137.658 985.733 139.881 986.289 Q142.103 986.844 144.58 986.844 Q148.584 986.844 150.922 984.738 Q153.26 982.631 153.26 979.02 Q153.26 975.409 150.922 973.303 Q148.584 971.196 144.58 971.196 Q142.705 971.196 140.83 971.613 Q138.978 972.03 137.033 972.909 L137.033 955.548 Z" fill="#000000" fill-rule="evenodd" fill-opacity="1" /><path clip-path="url(#clip730)" d="M100.76 752.645 Q97.1493 752.645 95.3206 756.209 Q93.515 759.751 93.515 766.881 Q93.515 773.987 95.3206 777.552 Q97.1493 781.094 100.76 781.094 Q104.395 781.094 106.2 777.552 Q108.029 773.987 108.029 766.881 Q108.029 759.751 106.2 756.209 Q104.395 752.645 100.76 752.645 M100.76 748.941 Q106.571 748.941 109.626 753.547 Q112.705 758.131 112.705 766.881 Q112.705 775.608 109.626 780.214 Q106.571 784.797 100.76 784.797 Q94.9502 784.797 91.8715 780.214 Q88.816 775.608 88.816 766.881 Q88.816 758.131 91.8715 753.547 Q94.9502 748.941 100.76 748.941 Z" fill="#000000" fill-rule="evenodd" fill-opacity="1" /><path clip-path="url(#clip730)" d="M120.922 778.246 L125.807 778.246 L125.807 784.126 L120.922 784.126 L120.922 778.246 Z" fill="#000000" fill-rule="evenodd" fill-opacity="1" /><path clip-path="url(#clip730)" d="M145.992 752.645 Q142.381 752.645 140.552 756.209 Q138.746 759.751 138.746 766.881 Q138.746 773.987 140.552 777.552 Q142.381 781.094 145.992 781.094 Q149.626 781.094 151.431 777.552 Q153.26 773.987 153.26 766.881 Q153.26 759.751 151.431 756.209 Q149.626 752.645 145.992 752.645 M145.992 748.941 Q151.802 748.941 154.857 753.547 Q157.936 758.131 157.936 766.881 Q157.936 775.608 154.857 780.214 Q151.802 784.797 145.992 784.797 Q140.181 784.797 137.103 780.214 Q134.047 775.608 134.047 766.881 Q134.047 758.131 137.103 753.547 Q140.181 748.941 145.992 748.941 Z" fill="#000000" fill-rule="evenodd" fill-opacity="1" /><path clip-path="url(#clip730)" d="M101.756 546.662 Q98.1447 546.662 96.316 550.227 Q94.5104 553.769 94.5104 560.899 Q94.5104 568.005 96.316 571.57 Q98.1447 575.111 101.756 575.111 Q105.39 575.111 107.196 571.57 Q109.024 568.005 109.024 560.899 Q109.024 553.769 107.196 550.227 Q105.39 546.662 101.756 546.662 M101.756 542.959 Q107.566 542.959 110.621 547.565 Q113.7 552.149 113.7 560.899 Q113.7 569.625 110.621 574.232 Q107.566 578.815 101.756 578.815 Q95.9456 578.815 92.8669 574.232 Q89.8114 569.625 89.8114 560.899 Q89.8114 552.149 92.8669 547.565 Q95.9456 542.959 101.756 542.959 Z" fill="#000000" fill-rule="evenodd" fill-opacity="1" /><path clip-path="url(#clip730)" d="M121.918 572.264 L126.802 572.264 L126.802 578.144 L121.918 578.144 L121.918 572.264 Z" fill="#000000" fill-rule="evenodd" fill-opacity="1" /><path clip-path="url(#clip730)" d="M137.033 543.584 L155.39 543.584 L155.39 547.519 L141.316 547.519 L141.316 555.991 Q142.334 555.644 143.353 555.482 Q144.371 555.297 145.39 555.297 Q151.177 555.297 154.556 558.468 Q157.936 561.639 157.936 567.056 Q157.936 572.635 154.464 575.736 Q150.992 578.815 144.672 578.815 Q142.496 578.815 140.228 578.445 Q137.982 578.074 135.575 577.334 L135.575 572.635 Q137.658 573.769 139.881 574.324 Q142.103 574.88 144.58 574.88 Q148.584 574.88 150.922 572.773 Q153.26 570.667 153.26 567.056 Q153.26 563.445 150.922 561.338 Q148.584 559.232 144.58 559.232 Q142.705 559.232 140.83 559.649 Q138.978 560.065 137.033 560.945 L137.033 543.584 Z" fill="#000000" fill-rule="evenodd" fill-opacity="1" /><path clip-path="url(#clip730)" d="M91.5706 368.226 L99.2095 368.226 L99.2095 341.861 L90.8993 343.527 L90.8993 339.268 L99.1632 337.602 L103.839 337.602 L103.839 368.226 L111.478 368.226 L111.478 372.162 L91.5706 372.162 L91.5706 368.226 Z" fill="#000000" fill-rule="evenodd" fill-opacity="1" /><path clip-path="url(#clip730)" d="M120.922 366.282 L125.807 366.282 L125.807 372.162 L120.922 372.162 L120.922 366.282 Z" fill="#000000" fill-rule="evenodd" fill-opacity="1" /><path clip-path="url(#clip730)" d="M145.992 340.68 Q142.381 340.68 140.552 344.245 Q138.746 347.787 138.746 354.916 Q138.746 362.023 140.552 365.588 Q142.381 369.129 145.992 369.129 Q149.626 369.129 151.431 365.588 Q153.26 362.023 153.26 354.916 Q153.26 347.787 151.431 344.245 Q149.626 340.68 145.992 340.68 M145.992 336.977 Q151.802 336.977 154.857 341.583 Q157.936 346.166 157.936 354.916 Q157.936 363.643 154.857 368.25 Q151.802 372.833 145.992 372.833 Q140.181 372.833 137.103 368.25 Q134.047 363.643 134.047 354.916 Q134.047 346.166 137.103 341.583 Q140.181 336.977 145.992 336.977 Z" fill="#000000" fill-rule="evenodd" fill-opacity="1" /><path clip-path="url(#clip730)" d="M92.566 162.244 L100.205 162.244 L100.205 135.879 L91.8947 137.545 L91.8947 133.286 L100.159 131.619 L104.834 131.619 L104.834 162.244 L112.473 162.244 L112.473 166.179 L92.566 166.179 L92.566 162.244 Z" fill="#000000" fill-rule="evenodd" fill-opacity="1" /><path clip-path="url(#clip730)" d="M121.918 160.3 L126.802 160.3 L126.802 166.179 L121.918 166.179 L121.918 160.3 Z" fill="#000000" fill-rule="evenodd" fill-opacity="1" /><path clip-path="url(#clip730)" d="M137.033 131.619 L155.39 131.619 L155.39 135.555 L141.316 135.555 L141.316 144.027 Q142.334 143.68 143.353 143.517 Q144.371 143.332 145.39 143.332 Q151.177 143.332 154.556 146.504 Q157.936 149.675 157.936 155.091 Q157.936 160.67 154.464 163.772 Q150.992 166.851 144.672 166.851 Q142.496 166.851 140.228 166.48 Q137.982 166.11 135.575 165.369 L135.575 160.67 Q137.658 161.804 139.881 162.36 Q142.103 162.916 144.58 162.916 Q148.584 162.916 150.922 160.809 Q153.26 158.703 153.26 155.091 Q153.26 151.48 150.922 149.374 Q148.584 147.267 144.58 147.267 Q142.705 147.267 140.83 147.684 Q138.978 148.101 137.033 148.98 L137.033 131.619 Z" fill="#000000" fill-rule="evenodd" fill-opacity="1" /><polyline clip-path="url(#clip732)" style="stroke:#009af9; stroke-linecap:butt; stroke-linejoin:round; stroke-width:12; stroke-opacity:1; fill:none" points="
  193.936,87.9763 207.991,96.8159 337.951,178.551 416.051,227.67 482.084,269.2 553.814,314.313 619.943,355.903 690.84,400.493 772.981,452.153 845.979,498.063 
  909.991,538.322 979.782,582.216 1049.99,626.37 1127.61,675.187 1201.46,721.636 1278.25,769.933 1342.9,810.588 1421.82,860.223 1494.11,905.692 1560.88,947.686 
  1628.52,990.225 1704.32,1037.9 1773.01,1081.1 1851.66,1130.56 1924.47,1176.36 1996.26,1221.51 2065.96,1265.35 2137.42,1310.28 2215.7,1359.52 2329.43,1431.04 
  2352.76,1445.72 
  "/>
<polyline clip-path="url(#clip732)" style="stroke:#e26f46; stroke-linecap:butt; stroke-linejoin:round; stroke-width:12; stroke-opacity:1; fill:none" points="
  193.936,708.71 197.45,704.729 200.964,700.755 204.477,696.787 207.991,692.826 240.481,656.583 272.971,621.238 305.461,587.08 337.951,554.386 357.476,535.555 
  377.001,517.405 396.526,499.989 416.051,483.359 432.559,469.947 449.068,457.161 465.576,445.026 482.084,433.569 500.016,421.918 517.949,411.125 535.882,401.214 
  553.814,392.212 570.346,384.737 586.879,378.068 603.411,372.22 619.943,367.204 637.667,362.765 655.392,359.305 673.116,356.835 690.84,355.359 711.375,354.898 
  731.911,355.778 752.446,357.997 772.981,361.547 791.231,365.811 809.48,371.105 827.73,377.418 845.979,384.732 861.982,391.955 877.985,399.92 893.988,408.611 
  909.991,418.01 927.439,429.043 944.886,440.87 962.334,453.464 979.782,466.794 997.333,480.915 1014.88,495.717 1032.44,511.164 1049.99,527.218 1069.39,545.631 
  1088.8,564.687 1108.2,584.331 1127.61,604.506 1164.54,644.151 1201.46,685.088 1278.25,772.465 1342.9,845.983 1382.36,889.758 1421.82,932.057 1457.96,969.074 
  1494.11,1004.05 1510.81,1019.42 1527.5,1034.24 1544.19,1048.49 1560.88,1062.13 1577.79,1075.3 1594.7,1087.79 1611.61,1099.57 1628.52,1110.61 1647.47,1122.09 
  1666.42,1132.57 1685.37,1142.05 1704.32,1150.49 1721.5,1157.21 1738.67,1163.05 1755.84,1167.98 1773.01,1172 1792.67,1175.47 1812.33,1177.72 1831.99,1178.74 
  1851.66,1178.54 1869.86,1177.25 1888.06,1174.91 1906.27,1171.53 1924.47,1167.11 1942.42,1161.75 1960.37,1155.41 1978.32,1148.11 1996.26,1139.85 2013.69,1130.95 
  2031.11,1121.19 2048.54,1110.6 2065.96,1099.21 2083.83,1086.72 2101.69,1073.44 2119.55,1059.41 2137.42,1044.65 2156.99,1027.7 2176.56,1009.98 2196.13,991.542 
  2215.7,972.437 2244.13,943.616 2272.56,913.692 2300.99,882.851 2329.43,851.287 2335.26,844.74 2341.09,838.172 2346.92,831.586 2352.76,824.982 
  "/>
<circle clip-path="url(#clip732)" cx="193.936" cy="766.846" r="14.4" fill="#3da44d" fill-rule="evenodd" fill-opacity="1" stroke="#000000" stroke-opacity="1" stroke-width="3.2"/>
<circle clip-path="url(#clip732)" cx="733.641" cy="766.846" r="14.4" fill="#3da44d" fill-rule="evenodd" fill-opacity="1" stroke="#000000" stroke-opacity="1" stroke-width="3.2"/>
<circle clip-path="url(#clip732)" cx="1273.35" cy="766.846" r="14.4" fill="#3da44d" fill-rule="evenodd" fill-opacity="1" stroke="#000000" stroke-opacity="1" stroke-width="3.2"/>
<circle clip-path="url(#clip732)" cx="1813.05" cy="766.846" r="14.4" fill="#3da44d" fill-rule="evenodd" fill-opacity="1" stroke="#000000" stroke-opacity="1" stroke-width="3.2"/>
<circle clip-path="url(#clip732)" cx="2352.76" cy="766.846" r="14.4" fill="#3da44d" fill-rule="evenodd" fill-opacity="1" stroke="#000000" stroke-opacity="1" stroke-width="3.2"/>
<path clip-path="url(#clip730)" d="
M1792.34 302.578 L2280.8 302.578 L2280.8 95.2176 L1792.34 95.2176  Z
  " fill="#ffffff" fill-rule="evenodd" fill-opacity="1"/>
<polyline clip-path="url(#clip730)" style="stroke:#000000; stroke-linecap:butt; stroke-linejoin:round; stroke-width:4; stroke-opacity:1; fill:none" points="
  1792.34,302.578 2280.8,302.578 2280.8,95.2176 1792.34,95.2176 1792.34,302.578 
  "/>
<polyline clip-path="url(#clip730)" style="stroke:#009af9; stroke-linecap:butt; stroke-linejoin:round; stroke-width:4; stroke-opacity:1; fill:none" points="
  1816.33,147.058 1960.25,147.058 
  "/>
<path clip-path="url(#clip730)" d="M1998.08 166.745 Q1996.27 171.375 1994.56 172.787 Q1992.85 174.199 1989.98 174.199 L1986.57 174.199 L1986.57 170.634 L1989.07 170.634 Q1990.83 170.634 1991.8 169.8 Q1992.78 168.967 1993.96 165.865 L1994.72 163.921 L1984.23 138.412 L1988.75 138.412 L1996.85 158.689 L2004.95 138.412 L2009.47 138.412 L1998.08 166.745 Z" fill="#000000" fill-rule="evenodd" fill-opacity="1" /><path clip-path="url(#clip730)" d="M2016.76 160.402 L2024.4 160.402 L2024.4 134.037 L2016.09 135.703 L2016.09 131.444 L2024.35 129.778 L2029.03 129.778 L2029.03 160.402 L2036.67 160.402 L2036.67 164.338 L2016.76 164.338 L2016.76 160.402 Z" fill="#000000" fill-rule="evenodd" fill-opacity="1" /><polyline clip-path="url(#clip730)" style="stroke:#e26f46; stroke-linecap:butt; stroke-linejoin:round; stroke-width:4; stroke-opacity:1; fill:none" points="
  1816.33,198.898 1960.25,198.898 
  "/>
<path clip-path="url(#clip730)" d="M1998.08 218.585 Q1996.27 223.215 1994.56 224.627 Q1992.85 226.039 1989.98 226.039 L1986.57 226.039 L1986.57 222.474 L1989.07 222.474 Q1990.83 222.474 1991.8 221.64 Q1992.78 220.807 1993.96 217.705 L1994.72 215.761 L1984.23 190.252 L1988.75 190.252 L1996.85 210.529 L2004.95 190.252 L2009.47 190.252 L1998.08 218.585 Z" fill="#000000" fill-rule="evenodd" fill-opacity="1" /><path clip-path="url(#clip730)" d="M2019.98 212.242 L2036.29 212.242 L2036.29 216.178 L2014.35 216.178 L2014.35 212.242 Q2017.01 209.488 2021.6 204.858 Q2026.2 200.205 2027.38 198.863 Q2029.63 196.34 2030.51 194.604 Q2031.41 192.844 2031.41 191.155 Q2031.41 188.4 2029.47 186.664 Q2027.54 184.928 2024.44 184.928 Q2022.24 184.928 2019.79 185.692 Q2017.36 186.455 2014.58 188.006 L2014.58 183.284 Q2017.41 182.15 2019.86 181.571 Q2022.31 180.993 2024.35 180.993 Q2029.72 180.993 2032.92 183.678 Q2036.11 186.363 2036.11 190.854 Q2036.11 192.983 2035.3 194.905 Q2034.51 196.803 2032.41 199.395 Q2031.83 200.067 2028.73 203.284 Q2025.62 206.479 2019.98 212.242 Z" fill="#000000" fill-rule="evenodd" fill-opacity="1" /><circle clip-path="url(#clip730)" cx="1888.29" cy="250.738" r="23.04" fill="#3da44d" fill-rule="evenodd" fill-opacity="1" stroke="#000000" stroke-opacity="1" stroke-width="5.12"/>
<path clip-path="url(#clip730)" d="M2003.15 254.754 Q2003.15 250.124 2001.23 247.578 Q1999.33 245.032 1995.88 245.032 Q1992.45 245.032 1990.53 247.578 Q1988.63 250.124 1988.63 254.754 Q1988.63 259.36 1990.53 261.906 Q1992.45 264.453 1995.88 264.453 Q1999.33 264.453 2001.23 261.906 Q2003.15 259.36 2003.15 254.754 M2007.41 264.8 Q2007.41 271.42 2004.47 274.638 Q2001.53 277.879 1995.46 277.879 Q1993.22 277.879 1991.23 277.531 Q1989.23 277.207 1987.36 276.513 L1987.36 272.369 Q1989.23 273.388 1991.06 273.874 Q1992.89 274.36 1994.79 274.36 Q1998.98 274.36 2001.06 272.161 Q2003.15 269.985 2003.15 265.564 L2003.15 263.457 Q2001.83 265.749 1999.77 266.883 Q1997.71 268.018 1994.84 268.018 Q1990.07 268.018 1987.15 264.383 Q1984.23 260.749 1984.23 254.754 Q1984.23 248.735 1987.15 245.101 Q1990.07 241.467 1994.84 241.467 Q1997.71 241.467 1999.77 242.601 Q2001.83 243.735 2003.15 246.027 L2003.15 242.092 L2007.41 242.092 L2007.41 264.8 Z" fill="#000000" fill-rule="evenodd" fill-opacity="1" /><path clip-path="url(#clip730)" d="M2031.2 246.073 Q2030.48 245.657 2029.63 245.471 Q2028.79 245.263 2027.78 245.263 Q2024.17 245.263 2022.22 247.624 Q2020.3 249.962 2020.3 254.36 L2020.3 268.018 L2016.02 268.018 L2016.02 242.092 L2020.3 242.092 L2020.3 246.12 Q2021.64 243.758 2023.79 242.624 Q2025.95 241.467 2029.03 241.467 Q2029.47 241.467 2030 241.536 Q2030.53 241.583 2031.18 241.698 L2031.2 246.073 Z" fill="#000000" fill-rule="evenodd" fill-opacity="1" /><path clip-path="url(#clip730)" d="M2035.67 242.092 L2039.93 242.092 L2039.93 268.018 L2035.67 268.018 L2035.67 242.092 M2035.67 231.999 L2039.93 231.999 L2039.93 237.393 L2035.67 237.393 L2035.67 231.999 Z" fill="#000000" fill-rule="evenodd" fill-opacity="1" /><path clip-path="url(#clip730)" d="M2065.9 246.027 L2065.9 231.999 L2070.16 231.999 L2070.16 268.018 L2065.9 268.018 L2065.9 264.129 Q2064.56 266.443 2062.5 267.578 Q2060.46 268.689 2057.59 268.689 Q2052.89 268.689 2049.93 264.939 Q2046.99 261.189 2046.99 255.078 Q2046.99 248.967 2049.93 245.217 Q2052.89 241.467 2057.59 241.467 Q2060.46 241.467 2062.5 242.601 Q2064.56 243.712 2065.9 246.027 M2051.39 255.078 Q2051.39 259.777 2053.31 262.462 Q2055.25 265.124 2058.63 265.124 Q2062.01 265.124 2063.96 262.462 Q2065.9 259.777 2065.9 255.078 Q2065.9 250.379 2063.96 247.717 Q2062.01 245.032 2058.63 245.032 Q2055.25 245.032 2053.31 247.717 Q2051.39 250.379 2051.39 255.078 Z" fill="#000000" fill-rule="evenodd" fill-opacity="1" /><path clip-path="url(#clip730)" d="M2098.12 264.129 L2098.12 277.879 L2093.84 277.879 L2093.84 242.092 L2098.12 242.092 L2098.12 246.027 Q2099.47 243.712 2101.5 242.601 Q2103.56 241.467 2106.41 241.467 Q2111.13 241.467 2114.07 245.217 Q2117.04 248.967 2117.04 255.078 Q2117.04 261.189 2114.07 264.939 Q2111.13 268.689 2106.41 268.689 Q2103.56 268.689 2101.5 267.578 Q2099.47 266.443 2098.12 264.129 M2112.61 255.078 Q2112.61 250.379 2110.67 247.717 Q2108.75 245.032 2105.37 245.032 Q2101.99 245.032 2100.04 247.717 Q2098.12 250.379 2098.12 255.078 Q2098.12 259.777 2100.04 262.462 Q2101.99 265.124 2105.37 265.124 Q2108.75 265.124 2110.67 262.462 Q2112.61 259.777 2112.61 255.078 Z" fill="#000000" fill-rule="evenodd" fill-opacity="1" /><path clip-path="url(#clip730)" d="M2134.14 245.078 Q2130.72 245.078 2128.72 247.763 Q2126.73 250.425 2126.73 255.078 Q2126.73 259.731 2128.7 262.416 Q2130.69 265.078 2134.14 265.078 Q2137.54 265.078 2139.53 262.393 Q2141.53 259.707 2141.53 255.078 Q2141.53 250.471 2139.53 247.786 Q2137.54 245.078 2134.14 245.078 M2134.14 241.467 Q2139.7 241.467 2142.87 245.078 Q2146.04 248.689 2146.04 255.078 Q2146.04 261.444 2142.87 265.078 Q2139.7 268.689 2134.14 268.689 Q2128.56 268.689 2125.39 265.078 Q2122.24 261.444 2122.24 255.078 Q2122.24 248.689 2125.39 245.078 Q2128.56 241.467 2134.14 241.467 Z" fill="#000000" fill-rule="evenodd" fill-opacity="1" /><path clip-path="url(#clip730)" d="M2153.1 242.092 L2157.36 242.092 L2157.36 268.018 L2153.1 268.018 L2153.1 242.092 M2153.1 231.999 L2157.36 231.999 L2157.36 237.393 L2153.1 237.393 L2153.1 231.999 Z" fill="#000000" fill-rule="evenodd" fill-opacity="1" /><path clip-path="url(#clip730)" d="M2187.82 252.369 L2187.82 268.018 L2183.56 268.018 L2183.56 252.508 Q2183.56 248.828 2182.13 246.999 Q2180.69 245.17 2177.82 245.17 Q2174.37 245.17 2172.38 247.37 Q2170.39 249.569 2170.39 253.365 L2170.39 268.018 L2166.11 268.018 L2166.11 242.092 L2170.39 242.092 L2170.39 246.12 Q2171.92 243.782 2173.98 242.624 Q2176.06 241.467 2178.77 241.467 Q2183.24 241.467 2185.53 244.245 Q2187.82 246.999 2187.82 252.369 Z" fill="#000000" fill-rule="evenodd" fill-opacity="1" /><path clip-path="url(#clip730)" d="M2200.53 234.731 L2200.53 242.092 L2209.3 242.092 L2209.3 245.402 L2200.53 245.402 L2200.53 259.476 Q2200.53 262.647 2201.39 263.55 Q2202.27 264.453 2204.93 264.453 L2209.3 264.453 L2209.3 268.018 L2204.93 268.018 Q2200 268.018 2198.12 266.189 Q2196.25 264.337 2196.25 259.476 L2196.25 245.402 L2193.12 245.402 L2193.12 242.092 L2196.25 242.092 L2196.25 234.731 L2200.53 234.731 Z" fill="#000000" fill-rule="evenodd" fill-opacity="1" /><path clip-path="url(#clip730)" d="M2231.43 242.856 L2231.43 246.883 Q2229.63 245.957 2227.68 245.495 Q2225.74 245.032 2223.65 245.032 Q2220.48 245.032 2218.89 246.004 Q2217.31 246.976 2217.31 248.92 Q2217.31 250.402 2218.45 251.258 Q2219.58 252.092 2223.01 252.856 L2224.47 253.18 Q2229 254.152 2230.9 255.934 Q2232.82 257.694 2232.82 260.865 Q2232.82 264.476 2229.95 266.582 Q2227.1 268.689 2222.1 268.689 Q2220.02 268.689 2217.75 268.272 Q2215.51 267.879 2213.01 267.068 L2213.01 262.67 Q2215.37 263.897 2217.66 264.522 Q2219.95 265.124 2222.2 265.124 Q2225.21 265.124 2226.83 264.106 Q2228.45 263.064 2228.45 261.189 Q2228.45 259.453 2227.27 258.527 Q2226.11 257.601 2222.15 256.744 L2220.67 256.397 Q2216.71 255.564 2214.95 253.851 Q2213.19 252.115 2213.19 249.106 Q2213.19 245.448 2215.78 243.458 Q2218.38 241.467 2223.15 241.467 Q2225.51 241.467 2227.59 241.814 Q2229.67 242.161 2231.43 242.856 Z" fill="#000000" fill-rule="evenodd" fill-opacity="1" /></svg>
