<?xml version="1.0" encoding="utf-8"?>
<svg xmlns="http://www.w3.org/2000/svg" xmlns:xlink="http://www.w3.org/1999/xlink" width="600" height="400" viewBox="0 0 2400 1600">
<defs>
  <clipPath id="clip220">
    <rect x="0" y="0" width="2400" height="1600"/>
  </clipPath>
</defs>
<path clip-path="url(#clip220)" d="
M0 1600 L2400 1600 L2400 0 L0 0  Z
  " fill="#ffffff" fill-rule="evenodd" fill-opacity="1"/>
<defs>
  <clipPath id="clip221">
    <rect x="480" y="0" width="1681" height="1600"/>
  </clipPath>
</defs>
<path clip-path="url(#clip220)" d="
M462.191 1423.18 L2352.76 1423.18 L2352.76 47.2441 L462.191 47.2441  Z
  " fill="#ffffff" fill-rule="evenodd" fill-opacity="1"/>
<defs>
  <clipPath id="clip222">
    <rect x="462" y="47" width="1892" height="1377"/>
  </clipPath>
</defs>
<polyline clip-path="url(#clip222)" style="stroke:#000000; stroke-linecap:butt; stroke-linejoin:round; stroke-width:2; stroke-opacity:0.1; fill:none" points="
  515.698,1423.18 515.698,47.2441 
  "/>
<polyline clip-path="url(#clip222)" style="stroke:#000000; stroke-linecap:butt; stroke-linejoin:round; stroke-width:2; stroke-opacity:0.1; fill:none" points="
  901.499,1423.18 901.499,47.2441 
  "/>
<polyline clip-path="url(#clip222)" style="stroke:#000000; stroke-linecap:butt; stroke-linejoin:round; stroke-width:2; stroke-opacity:0.1; fill:none" points="
  1287.3,1423.18 1287.3,47.2441 
  "/>
<polyline clip-path="url(#clip222)" style="stroke:#000000; stroke-linecap:butt; stroke-linejoin:round; stroke-width:2; stroke-opacity:0.1; fill:none" points="
  1673.1,1423.18 1673.1,47.2441 
  "/>
<polyline clip-path="url(#clip222)" style="stroke:#000000; stroke-linecap:butt; stroke-linejoin:round; stroke-width:2; stroke-opacity:0.1; fill:none" points="
  2058.9,1423.18 2058.9,47.2441 
  "/>
<polyline clip-path="url(#clip220)" style="stroke:#000000; stroke-linecap:butt; stroke-linejoin:round; stroke-width:4; stroke-opacity:1; fill:none" points="
  462.191,1423.18 2352.76,1423.18 
  "/>
<polyline clip-path="url(#clip220)" style="stroke:#000000; stroke-linecap:butt; stroke-linejoin:round; stroke-width:4; stroke-opacity:1; fill:none" points="
  515.698,1423.18 515.698,1404.28 
  "/>
<polyline clip-path="url(#clip220)" style="stroke:#000000; stroke-linecap:butt; stroke-linejoin:round; stroke-width:4; stroke-opacity:1; fill:none" points="
  901.499,1423.18 901.499,1404.28 
  "/>
<polyline clip-path="url(#clip220)" style="stroke:#000000; stroke-linecap:butt; stroke-linejoin:round; stroke-width:4; stroke-opacity:1; fill:none" points="
  1287.3,1423.18 1287.3,1404.28 
  "/>
<polyline clip-path="url(#clip220)" style="stroke:#000000; stroke-linecap:butt; stroke-linejoin:round; stroke-width:4; stroke-opacity:1; fill:none" points="
  1673.1,1423.18 1673.1,1404.28 
  "/>
<polyline clip-path="url(#clip220)" style="stroke:#000000; stroke-linecap:butt; stroke-linejoin:round; stroke-width:4; stroke-opacity:1; fill:none" points="
  2058.9,1423.18 2058.9,1404.28 
  "/>
<path clip-path="url(#clip220)" d="M462.92 1454.1 Q459.309 1454.1 457.481 1457.66 Q455.675 1461.2 455.675 1468.33 Q455.675 1475.44 457.481 1479.01 Q459.309 1482.55 462.92 1482.55 Q466.555 1482.55 468.36 1479.01 Q470.189 1475.44 470.189 1468.33 Q470.189 1461.2 468.36 1457.66 Q466.555 1454.1 462.92 1454.1 M462.92 1450.39 Q468.731 1450.39 471.786 1455 Q474.865 1459.58 474.865 1468.33 Q474.865 1477.06 471.786 1481.67 Q468.731 1486.25 462.92 1486.25 Q457.11 1486.25 454.032 1481.67 Q450.976 1477.06 450.976 1468.33 Q450.976 1459.58 454.032 1455 Q457.11 1450.39 462.92 1450.39 Z" fill="#000000" fill-rule="evenodd" fill-opacity="1" /><path clip-path="url(#clip220)" d="M483.082 1479.7 L487.967 1479.7 L487.967 1485.58 L483.082 1485.58 L483.082 1479.7 Z" fill="#000000" fill-rule="evenodd" fill-opacity="1" /><path clip-path="url(#clip220)" d="M508.152 1454.1 Q504.541 1454.1 502.712 1457.66 Q500.906 1461.2 500.906 1468.33 Q500.906 1475.44 502.712 1479.01 Q504.541 1482.55 508.152 1482.55 Q511.786 1482.55 513.591 1479.01 Q515.42 1475.44 515.42 1468.33 Q515.42 1461.2 513.591 1457.66 Q511.786 1454.1 508.152 1454.1 M508.152 1450.39 Q513.962 1450.39 517.017 1455 Q520.096 1459.58 520.096 1468.33 Q520.096 1477.06 517.017 1481.67 Q513.962 1486.25 508.152 1486.25 Q502.341 1486.25 499.263 1481.67 Q496.207 1477.06 496.207 1468.33 Q496.207 1459.58 499.263 1455 Q502.341 1450.39 508.152 1450.39 Z" fill="#000000" fill-rule="evenodd" fill-opacity="1" /><path clip-path="url(#clip220)" d="M538.314 1454.1 Q534.702 1454.1 532.874 1457.66 Q531.068 1461.2 531.068 1468.33 Q531.068 1475.44 532.874 1479.01 Q534.702 1482.55 538.314 1482.55 Q541.948 1482.55 543.753 1479.01 Q545.582 1475.44 545.582 1468.33 Q545.582 1461.2 543.753 1457.66 Q541.948 1454.1 538.314 1454.1 M538.314 1450.39 Q544.124 1450.39 547.179 1455 Q550.258 1459.58 550.258 1468.33 Q550.258 1477.06 547.179 1481.67 Q544.124 1486.25 538.314 1486.25 Q532.503 1486.25 529.425 1481.67 Q526.369 1477.06 526.369 1468.33 Q526.369 1459.58 529.425 1455 Q532.503 1450.39 538.314 1450.39 Z" fill="#000000" fill-rule="evenodd" fill-opacity="1" /><path clip-path="url(#clip220)" d="M568.475 1454.1 Q564.864 1454.1 563.036 1457.66 Q561.23 1461.2 561.23 1468.33 Q561.23 1475.44 563.036 1479.01 Q564.864 1482.55 568.475 1482.55 Q572.11 1482.55 573.915 1479.01 Q575.744 1475.44 575.744 1468.33 Q575.744 1461.2 573.915 1457.66 Q572.11 1454.1 568.475 1454.1 M568.475 1450.39 Q574.286 1450.39 577.341 1455 Q580.42 1459.58 580.42 1468.33 Q580.42 1477.06 577.341 1481.67 Q574.286 1486.25 568.475 1486.25 Q562.665 1486.25 559.587 1481.67 Q556.531 1477.06 556.531 1468.33 Q556.531 1459.58 559.587 1455 Q562.665 1450.39 568.475 1450.39 Z" fill="#000000" fill-rule="evenodd" fill-opacity="1" /><path clip-path="url(#clip220)" d="M849.219 1454.1 Q845.608 1454.1 843.779 1457.66 Q841.974 1461.2 841.974 1468.33 Q841.974 1475.44 843.779 1479.01 Q845.608 1482.55 849.219 1482.55 Q852.853 1482.55 854.659 1479.01 Q856.487 1475.44 856.487 1468.33 Q856.487 1461.2 854.659 1457.66 Q852.853 1454.1 849.219 1454.1 M849.219 1450.39 Q855.029 1450.39 858.085 1455 Q861.163 1459.58 861.163 1468.33 Q861.163 1477.06 858.085 1481.67 Q855.029 1486.25 849.219 1486.25 Q843.409 1486.25 840.33 1481.67 Q837.275 1477.06 837.275 1468.33 Q837.275 1459.58 840.33 1455 Q843.409 1450.39 849.219 1450.39 Z" fill="#000000" fill-rule="evenodd" fill-opacity="1" /><path clip-path="url(#clip220)" d="M869.381 1479.7 L874.265 1479.7 L874.265 1485.58 L869.381 1485.58 L869.381 1479.7 Z" fill="#000000" fill-rule="evenodd" fill-opacity="1" /><path clip-path="url(#clip220)" d="M894.45 1454.1 Q890.839 1454.1 889.01 1457.66 Q887.205 1461.2 887.205 1468.33 Q887.205 1475.44 889.01 1479.01 Q890.839 1482.55 894.45 1482.55 Q898.084 1482.55 899.89 1479.01 Q901.719 1475.44 901.719 1468.33 Q901.719 1461.2 899.89 1457.66 Q898.084 1454.1 894.45 1454.1 M894.45 1450.39 Q900.26 1450.39 903.316 1455 Q906.395 1459.58 906.395 1468.33 Q906.395 1477.06 903.316 1481.67 Q900.26 1486.25 894.45 1486.25 Q888.64 1486.25 885.561 1481.67 Q882.506 1477.06 882.506 1468.33 Q882.506 1459.58 885.561 1455 Q888.64 1450.39 894.45 1450.39 Z" fill="#000000" fill-rule="evenodd" fill-opacity="1" /><path clip-path="url(#clip220)" d="M918.64 1481.64 L934.959 1481.64 L934.959 1485.58 L913.015 1485.58 L913.015 1481.64 Q915.677 1478.89 920.26 1474.26 Q924.867 1469.61 926.047 1468.27 Q928.293 1465.74 929.172 1464.01 Q930.075 1462.25 930.075 1460.56 Q930.075 1457.8 928.131 1456.07 Q926.209 1454.33 923.107 1454.33 Q920.908 1454.33 918.455 1455.09 Q916.024 1455.86 913.246 1457.41 L913.246 1452.69 Q916.07 1451.55 918.524 1450.97 Q920.978 1450.39 923.015 1450.39 Q928.385 1450.39 931.58 1453.08 Q934.774 1455.77 934.774 1460.26 Q934.774 1462.39 933.964 1464.31 Q933.177 1466.2 931.07 1468.8 Q930.492 1469.47 927.39 1472.69 Q924.288 1475.88 918.64 1481.64 Z" fill="#000000" fill-rule="evenodd" fill-opacity="1" /><path clip-path="url(#clip220)" d="M944.82 1451.02 L963.177 1451.02 L963.177 1454.96 L949.103 1454.96 L949.103 1463.43 Q950.121 1463.08 951.14 1462.92 Q952.158 1462.73 953.177 1462.73 Q958.964 1462.73 962.343 1465.9 Q965.723 1469.08 965.723 1474.49 Q965.723 1480.07 962.251 1483.17 Q958.779 1486.25 952.459 1486.25 Q950.283 1486.25 948.015 1485.88 Q945.769 1485.51 943.362 1484.77 L943.362 1480.07 Q945.445 1481.2 947.668 1481.76 Q949.89 1482.32 952.367 1482.32 Q956.371 1482.32 958.709 1480.21 Q961.047 1478.1 961.047 1474.49 Q961.047 1470.88 958.709 1468.77 Q956.371 1466.67 952.367 1466.67 Q950.492 1466.67 948.617 1467.08 Q946.765 1467.5 944.82 1468.38 L944.82 1451.02 Z" fill="#000000" fill-rule="evenodd" fill-opacity="1" /><path clip-path="url(#clip220)" d="M1234.52 1454.1 Q1230.91 1454.1 1229.08 1457.66 Q1227.28 1461.2 1227.28 1468.33 Q1227.28 1475.44 1229.08 1479.01 Q1230.91 1482.55 1234.52 1482.55 Q1238.16 1482.55 1239.96 1479.01 Q1241.79 1475.44 1241.79 1468.33 Q1241.79 1461.2 1239.96 1457.66 Q1238.16 1454.1 1234.52 1454.1 M1234.52 1450.39 Q1240.33 1450.39 1243.39 1455 Q1246.47 1459.58 1246.47 1468.33 Q1246.47 1477.06 1243.39 1481.67 Q1240.33 1486.25 1234.52 1486.25 Q1228.71 1486.25 1225.63 1481.67 Q1222.58 1477.06 1222.58 1468.33 Q1222.58 1459.58 1225.63 1455 Q1228.71 1450.39 1234.52 1450.39 Z" fill="#000000" fill-rule="evenodd" fill-opacity="1" /><path clip-path="url(#clip220)" d="M1254.68 1479.7 L1259.57 1479.7 L1259.57 1485.58 L1254.68 1485.58 L1254.68 1479.7 Z" fill="#000000" fill-rule="evenodd" fill-opacity="1" /><path clip-path="url(#clip220)" d="M1279.75 1454.1 Q1276.14 1454.1 1274.31 1457.66 Q1272.51 1461.2 1272.51 1468.33 Q1272.51 1475.44 1274.31 1479.01 Q1276.14 1482.55 1279.75 1482.55 Q1283.39 1482.55 1285.19 1479.01 Q1287.02 1475.44 1287.02 1468.33 Q1287.02 1461.2 1285.19 1457.66 Q1283.39 1454.1 1279.75 1454.1 M1279.75 1450.39 Q1285.56 1450.39 1288.62 1455 Q1291.7 1459.58 1291.7 1468.33 Q1291.7 1477.06 1288.62 1481.67 Q1285.56 1486.25 1279.75 1486.25 Q1273.94 1486.25 1270.86 1481.67 Q1267.81 1477.06 1267.81 1468.33 Q1267.81 1459.58 1270.86 1455 Q1273.94 1450.39 1279.75 1450.39 Z" fill="#000000" fill-rule="evenodd" fill-opacity="1" /><path clip-path="url(#clip220)" d="M1299.96 1451.02 L1318.32 1451.02 L1318.32 1454.96 L1304.24 1454.96 L1304.24 1463.43 Q1305.26 1463.08 1306.28 1462.92 Q1307.3 1462.73 1308.32 1462.73 Q1314.11 1462.73 1317.48 1465.9 Q1320.86 1469.08 1320.86 1474.49 Q1320.86 1480.07 1317.39 1483.17 Q1313.92 1486.25 1307.6 1486.25 Q1305.42 1486.25 1303.16 1485.88 Q1300.91 1485.51 1298.5 1484.77 L1298.5 1480.07 Q1300.59 1481.2 1302.81 1481.76 Q1305.03 1482.32 1307.51 1482.32 Q1311.51 1482.32 1313.85 1480.21 Q1316.19 1478.1 1316.19 1474.49 Q1316.19 1470.88 1313.85 1468.77 Q1311.51 1466.67 1307.51 1466.67 Q1305.63 1466.67 1303.76 1467.08 Q1301.91 1467.5 1299.96 1468.38 L1299.96 1451.02 Z" fill="#000000" fill-rule="evenodd" fill-opacity="1" /><path clip-path="url(#clip220)" d="M1340.08 1454.1 Q1336.47 1454.1 1334.64 1457.66 Q1332.83 1461.2 1332.83 1468.33 Q1332.83 1475.44 1334.64 1479.01 Q1336.47 1482.55 1340.08 1482.55 Q1343.71 1482.55 1345.52 1479.01 Q1347.35 1475.44 1347.35 1468.33 Q1347.35 1461.2 1345.52 1457.66 Q1343.71 1454.1 1340.08 1454.1 M1340.08 1450.39 Q1345.89 1450.39 1348.94 1455 Q1352.02 1459.58 1352.02 1468.33 Q1352.02 1477.06 1348.94 1481.67 Q1345.89 1486.25 1340.08 1486.25 Q1334.27 1486.25 1331.19 1481.67 Q1328.13 1477.06 1328.13 1468.33 Q1328.13 1459.58 1331.19 1455 Q1334.27 1450.39 1340.08 1450.39 Z" fill="#000000" fill-rule="evenodd" fill-opacity="1" /><path clip-path="url(#clip220)" d="M1620.82 1454.1 Q1617.21 1454.1 1615.38 1457.66 Q1613.58 1461.2 1613.58 1468.33 Q1613.58 1475.44 1615.38 1479.01 Q1617.21 1482.55 1620.82 1482.55 Q1624.45 1482.55 1626.26 1479.01 Q1628.09 1475.44 1628.09 1468.33 Q1628.09 1461.2 1626.26 1457.66 Q1624.45 1454.1 1620.82 1454.1 M1620.82 1450.39 Q1626.63 1450.39 1629.69 1455 Q1632.77 1459.58 1632.77 1468.33 Q1632.77 1477.06 1629.69 1481.67 Q1626.63 1486.25 1620.82 1486.25 Q1615.01 1486.25 1611.93 1481.67 Q1608.88 1477.06 1608.88 1468.33 Q1608.88 1459.58 1611.93 1455 Q1615.01 1450.39 1620.82 1450.39 Z" fill="#000000" fill-rule="evenodd" fill-opacity="1" /><path clip-path="url(#clip220)" d="M1640.98 1479.7 L1645.87 1479.7 L1645.87 1485.58 L1640.98 1485.58 L1640.98 1479.7 Z" fill="#000000" fill-rule="evenodd" fill-opacity="1" /><path clip-path="url(#clip220)" d="M1666.05 1454.1 Q1662.44 1454.1 1660.61 1457.66 Q1658.81 1461.2 1658.81 1468.33 Q1658.81 1475.44 1660.61 1479.01 Q1662.44 1482.55 1666.05 1482.55 Q1669.69 1482.55 1671.49 1479.01 Q1673.32 1475.44 1673.32 1468.33 Q1673.32 1461.2 1671.49 1457.66 Q1669.69 1454.1 1666.05 1454.1 M1666.05 1450.39 Q1671.86 1450.39 1674.92 1455 Q1678 1459.58 1678 1468.33 Q1678 1477.06 1674.92 1481.67 Q1671.86 1486.25 1666.05 1486.25 Q1660.24 1486.25 1657.16 1481.67 Q1654.11 1477.06 1654.11 1468.33 Q1654.11 1459.58 1657.16 1455 Q1660.24 1450.39 1666.05 1450.39 Z" fill="#000000" fill-rule="evenodd" fill-opacity="1" /><path clip-path="url(#clip220)" d="M1685.03 1451.02 L1707.26 1451.02 L1707.26 1453.01 L1694.71 1485.58 L1689.83 1485.58 L1701.63 1454.96 L1685.03 1454.96 L1685.03 1451.02 Z" fill="#000000" fill-rule="evenodd" fill-opacity="1" /><path clip-path="url(#clip220)" d="M1716.42 1451.02 L1734.78 1451.02 L1734.78 1454.96 L1720.7 1454.96 L1720.7 1463.43 Q1721.72 1463.08 1722.74 1462.92 Q1723.76 1462.73 1724.78 1462.73 Q1730.57 1462.73 1733.95 1465.9 Q1737.32 1469.08 1737.32 1474.49 Q1737.32 1480.07 1733.85 1483.17 Q1730.38 1486.25 1724.06 1486.25 Q1721.89 1486.25 1719.62 1485.88 Q1717.37 1485.51 1714.96 1484.77 L1714.96 1480.07 Q1717.05 1481.2 1719.27 1481.76 Q1721.49 1482.32 1723.97 1482.32 Q1727.97 1482.32 1730.31 1480.21 Q1732.65 1478.1 1732.65 1474.49 Q1732.65 1470.88 1730.31 1468.77 Q1727.97 1466.67 1723.97 1466.67 Q1722.09 1466.67 1720.22 1467.08 Q1718.37 1467.5 1716.42 1468.38 L1716.42 1451.02 Z" fill="#000000" fill-rule="evenodd" fill-opacity="1" /><path clip-path="url(#clip220)" d="M2006.12 1454.1 Q2002.51 1454.1 2000.68 1457.66 Q1998.88 1461.2 1998.88 1468.33 Q1998.88 1475.44 2000.68 1479.01 Q2002.51 1482.55 2006.12 1482.55 Q2009.76 1482.55 2011.56 1479.01 Q2013.39 1475.44 2013.39 1468.33 Q2013.39 1461.2 2011.56 1457.66 Q2009.76 1454.1 2006.12 1454.1 M2006.12 1450.39 Q2011.93 1450.39 2014.99 1455 Q2018.07 1459.58 2018.07 1468.33 Q2018.07 1477.06 2014.99 1481.67 Q2011.93 1486.25 2006.12 1486.25 Q2000.31 1486.25 1997.24 1481.67 Q1994.18 1477.06 1994.18 1468.33 Q1994.18 1459.58 1997.24 1455 Q2000.31 1450.39 2006.12 1450.39 Z" fill="#000000" fill-rule="evenodd" fill-opacity="1" /><path clip-path="url(#clip220)" d="M2026.29 1479.7 L2031.17 1479.7 L2031.17 1485.58 L2026.29 1485.58 L2026.29 1479.7 Z" fill="#000000" fill-rule="evenodd" fill-opacity="1" /><path clip-path="url(#clip220)" d="M2042.17 1481.64 L2049.8 1481.64 L2049.8 1455.28 L2041.49 1456.95 L2041.49 1452.69 L2049.76 1451.02 L2054.43 1451.02 L2054.43 1481.64 L2062.07 1481.64 L2062.07 1485.58 L2042.17 1485.58 L2042.17 1481.64 Z" fill="#000000" fill-rule="evenodd" fill-opacity="1" /><path clip-path="url(#clip220)" d="M2081.52 1454.1 Q2077.91 1454.1 2076.08 1457.66 Q2074.27 1461.2 2074.27 1468.33 Q2074.27 1475.44 2076.08 1479.01 Q2077.91 1482.55 2081.52 1482.55 Q2085.15 1482.55 2086.96 1479.01 Q2088.79 1475.44 2088.79 1468.33 Q2088.79 1461.2 2086.96 1457.66 Q2085.15 1454.1 2081.52 1454.1 M2081.52 1450.39 Q2087.33 1450.39 2090.38 1455 Q2093.46 1459.58 2093.46 1468.33 Q2093.46 1477.06 2090.38 1481.67 Q2087.33 1486.25 2081.52 1486.25 Q2075.71 1486.25 2072.63 1481.67 Q2069.57 1477.06 2069.57 1468.33 Q2069.57 1459.58 2072.63 1455 Q2075.71 1450.39 2081.52 1450.39 Z" fill="#000000" fill-rule="evenodd" fill-opacity="1" /><path clip-path="url(#clip220)" d="M2111.68 1454.1 Q2108.07 1454.1 2106.24 1457.66 Q2104.43 1461.2 2104.43 1468.33 Q2104.43 1475.44 2106.24 1479.01 Q2108.07 1482.55 2111.68 1482.55 Q2115.31 1482.55 2117.12 1479.01 Q2118.95 1475.44 2118.95 1468.33 Q2118.95 1461.2 2117.12 1457.66 Q2115.31 1454.1 2111.68 1454.1 M2111.68 1450.39 Q2117.49 1450.39 2120.54 1455 Q2123.62 1459.58 2123.62 1468.33 Q2123.62 1477.06 2120.54 1481.67 Q2117.49 1486.25 2111.68 1486.25 Q2105.87 1486.25 2102.79 1481.67 Q2099.73 1477.06 2099.73 1468.33 Q2099.73 1459.58 2102.79 1455 Q2105.87 1450.39 2111.68 1450.39 Z" fill="#000000" fill-rule="evenodd" fill-opacity="1" /><path clip-path="url(#clip220)" d="M1350.05 1545.76 Q1352.12 1546.46 1354.07 1548.76 Q1356.04 1551.05 1358.01 1555.06 L1364.54 1568.04 L1357.63 1568.04 L1351.55 1555.85 Q1349.2 1551.08 1346.97 1549.52 Q1344.77 1547.96 1340.95 1547.96 L1333.95 1547.96 L1333.95 1568.04 L1327.52 1568.04 L1327.52 1520.52 L1342.03 1520.52 Q1350.18 1520.52 1354.19 1523.93 Q1358.2 1527.34 1358.2 1534.21 Q1358.2 1538.7 1356.1 1541.66 Q1354.03 1544.62 1350.05 1545.76 M1333.95 1525.81 L1333.95 1542.68 L1342.03 1542.68 Q1346.68 1542.68 1349.04 1540.54 Q1351.42 1538.38 1351.42 1534.21 Q1351.42 1530.04 1349.04 1527.94 Q1346.68 1525.81 1342.03 1525.81 L1333.95 1525.81 Z" fill="#000000" fill-rule="evenodd" fill-opacity="1" /><path clip-path="url(#clip220)" d="M1400.12 1548.76 L1400.12 1551.62 L1373.19 1551.62 Q1373.58 1557.67 1376.82 1560.85 Q1380.1 1564 1385.93 1564 Q1389.3 1564 1392.45 1563.17 Q1395.63 1562.35 1398.75 1560.69 L1398.75 1566.23 Q1395.6 1567.57 1392.29 1568.27 Q1388.98 1568.97 1385.58 1568.97 Q1377.05 1568.97 1372.05 1564 Q1367.08 1559.04 1367.08 1550.57 Q1367.08 1541.82 1371.79 1536.69 Q1376.54 1531.54 1384.56 1531.54 Q1391.75 1531.54 1395.92 1536.18 Q1400.12 1540.8 1400.12 1548.76 M1394.26 1547.04 Q1394.2 1542.23 1391.56 1539.37 Q1388.95 1536.5 1384.62 1536.5 Q1379.72 1536.5 1376.76 1539.27 Q1373.83 1542.04 1373.39 1547.07 L1394.26 1547.04 Z" fill="#000000" fill-rule="evenodd" fill-opacity="1" /><path clip-path="url(#clip220)" d="M1423.8 1518.58 Q1419.54 1525.9 1417.47 1533.06 Q1415.4 1540.23 1415.4 1547.58 Q1415.4 1554.93 1417.47 1562.16 Q1419.57 1569.35 1423.8 1576.64 L1418.71 1576.64 Q1413.93 1569.16 1411.55 1561.93 Q1409.19 1554.71 1409.19 1547.58 Q1409.19 1540.48 1411.55 1533.29 Q1413.9 1526.09 1418.71 1518.58 L1423.8 1518.58 Z" fill="#000000" fill-rule="evenodd" fill-opacity="1" /><path clip-path="url(#clip220)" d="M1464.8 1532.4 L1451.91 1549.74 L1465.47 1568.04 L1458.56 1568.04 L1448.18 1554.04 L1437.81 1568.04 L1430.9 1568.04 L1444.74 1549.39 L1432.08 1532.4 L1438.98 1532.4 L1448.44 1545.1 L1457.89 1532.4 L1464.8 1532.4 Z" fill="#000000" fill-rule="evenodd" fill-opacity="1" /><path clip-path="url(#clip220)" d="M1472.82 1518.58 L1477.91 1518.58 Q1482.68 1526.09 1485.04 1533.29 Q1487.43 1540.48 1487.43 1547.58 Q1487.43 1554.71 1485.04 1561.93 Q1482.68 1569.16 1477.91 1576.64 L1472.82 1576.64 Q1477.05 1569.35 1479.12 1562.16 Q1481.22 1554.93 1481.22 1547.58 Q1481.22 1540.23 1479.12 1533.06 Q1477.05 1525.9 1472.82 1518.58 Z" fill="#000000" fill-rule="evenodd" fill-opacity="1" /><polyline clip-path="url(#clip222)" style="stroke:#000000; stroke-linecap:butt; stroke-linejoin:round; stroke-width:2; stroke-opacity:0.1; fill:none" points="
  462.191,1534.07 2352.76,1534.07 
  "/>
<polyline clip-path="url(#clip222)" style="stroke:#000000; stroke-linecap:butt; stroke-linejoin:round; stroke-width:2; stroke-opacity:0.1; fill:none" points="
  462.191,1134.64 2352.76,1134.64 
  "/>
<polyline clip-path="url(#clip222)" style="stroke:#000000; stroke-linecap:butt; stroke-linejoin:round; stroke-width:2; stroke-opacity:0.1; fill:none" points="
  462.191,735.212 2352.76,735.212 
  "/>
<polyline clip-path="url(#clip222)" style="stroke:#000000; stroke-linecap:butt; stroke-linejoin:round; stroke-width:2; stroke-opacity:0.1; fill:none" points="
  462.191,335.785 2352.76,335.785 
  "/>
<polyline clip-path="url(#clip222)" style="stroke:#000000; stroke-linecap:butt; stroke-linejoin:round; stroke-width:2; stroke-opacity:0.1; fill:none" points="
  462.191,-63.6427 2352.76,-63.6427 
  "/>
<polyline clip-path="url(#clip220)" style="stroke:#000000; stroke-linecap:butt; stroke-linejoin:round; stroke-width:4; stroke-opacity:1; fill:none" points="
  462.191,1423.18 462.191,47.2441 
  "/>
<polyline clip-path="url(#clip220)" style="stroke:#000000; stroke-linecap:butt; stroke-linejoin:round; stroke-width:4; stroke-opacity:1; fill:none" points="
  462.191,1534.07 481.089,1534.07 
  "/>
<polyline clip-path="url(#clip220)" style="stroke:#000000; stroke-linecap:butt; stroke-linejoin:round; stroke-width:4; stroke-opacity:1; fill:none" points="
  462.191,1134.64 481.089,1134.64 
  "/>
<polyline clip-path="url(#clip220)" style="stroke:#000000; stroke-linecap:butt; stroke-linejoin:round; stroke-width:4; stroke-opacity:1; fill:none" points="
  462.191,735.212 481.089,735.212 
  "/>
<polyline clip-path="url(#clip220)" style="stroke:#000000; stroke-linecap:butt; stroke-linejoin:round; stroke-width:4; stroke-opacity:1; fill:none" points="
  462.191,335.785 481.089,335.785 
  "/>
<polyline clip-path="url(#clip220)" style="stroke:#000000; stroke-linecap:butt; stroke-linejoin:round; stroke-width:4; stroke-opacity:1; fill:none" points="
  462.191,-63.6427 481.089,-63.6427 
  "/>
<path clip-path="url(#clip220)" d="M114.26 1540.97 L143.936 1540.97 L143.936 1544.9 L114.26 1544.9 L114.26 1540.97 Z" fill="#000000" fill-rule="evenodd" fill-opacity="1" /><path clip-path="url(#clip220)" d="M154.075 1523.23 L172.431 1523.23 L172.431 1527.17 L158.357 1527.17 L158.357 1535.64 Q159.376 1535.29 160.394 1535.13 Q161.413 1534.95 162.431 1534.95 Q168.218 1534.95 171.598 1538.12 Q174.977 1541.29 174.977 1546.71 Q174.977 1552.29 171.505 1555.39 Q168.033 1558.47 161.714 1558.47 Q159.538 1558.47 157.269 1558.1 Q155.024 1557.72 152.616 1556.98 L152.616 1552.29 Q154.7 1553.42 156.922 1553.97 Q159.144 1554.53 161.621 1554.53 Q165.626 1554.53 167.964 1552.42 Q170.302 1550.32 170.302 1546.71 Q170.302 1543.1 167.964 1540.99 Q165.626 1538.88 161.621 1538.88 Q159.746 1538.88 157.871 1539.3 Q156.019 1539.72 154.075 1540.6 L154.075 1523.23 Z" fill="#000000" fill-rule="evenodd" fill-opacity="1" /><path clip-path="url(#clip220)" d="M184.19 1551.91 L189.075 1551.91 L189.075 1557.79 L184.19 1557.79 L184.19 1551.91 Z" fill="#000000" fill-rule="evenodd" fill-opacity="1" /><path clip-path="url(#clip220)" d="M209.26 1526.31 Q205.649 1526.31 203.82 1529.88 Q202.014 1533.42 202.014 1540.55 Q202.014 1547.66 203.82 1551.22 Q205.649 1554.76 209.26 1554.76 Q212.894 1554.76 214.699 1551.22 Q216.528 1547.66 216.528 1540.55 Q216.528 1533.42 214.699 1529.88 Q212.894 1526.31 209.26 1526.31 M209.26 1522.61 Q215.07 1522.61 218.125 1527.22 Q221.204 1531.8 221.204 1540.55 Q221.204 1549.28 218.125 1553.88 Q215.07 1558.47 209.26 1558.47 Q203.449 1558.47 200.371 1553.88 Q197.315 1549.28 197.315 1540.55 Q197.315 1531.8 200.371 1527.22 Q203.449 1522.61 209.26 1522.61 Z" fill="#000000" fill-rule="evenodd" fill-opacity="1" /><path clip-path="url(#clip220)" d="M239.422 1526.31 Q235.81 1526.31 233.982 1529.88 Q232.176 1533.42 232.176 1540.55 Q232.176 1547.66 233.982 1551.22 Q235.81 1554.76 239.422 1554.76 Q243.056 1554.76 244.861 1551.22 Q246.69 1547.66 246.69 1540.55 Q246.69 1533.42 244.861 1529.88 Q243.056 1526.31 239.422 1526.31 M239.422 1522.61 Q245.232 1522.61 248.287 1527.22 Q251.366 1531.8 251.366 1540.55 Q251.366 1549.28 248.287 1553.88 Q245.232 1558.47 239.422 1558.47 Q233.611 1558.47 230.533 1553.88 Q227.477 1549.28 227.477 1540.55 Q227.477 1531.8 230.533 1527.22 Q233.611 1522.61 239.422 1522.61 Z" fill="#000000" fill-rule="evenodd" fill-opacity="1" /><path clip-path="url(#clip220)" d="M287.755 1532.33 L277.176 1542.96 L287.755 1553.54 L285 1556.34 L274.375 1545.71 L263.75 1556.34 L261.019 1553.54 L271.574 1542.96 L261.019 1532.33 L263.75 1529.53 L274.375 1540.16 L285 1529.53 L287.755 1532.33 Z" fill="#000000" fill-rule="evenodd" fill-opacity="1" /><path clip-path="url(#clip220)" d="M300.116 1553.86 L307.754 1553.86 L307.754 1527.49 L299.444 1529.16 L299.444 1524.9 L307.708 1523.23 L312.384 1523.23 L312.384 1553.86 L320.023 1553.86 L320.023 1557.79 L300.116 1557.79 L300.116 1553.86 Z" fill="#000000" fill-rule="evenodd" fill-opacity="1" /><path clip-path="url(#clip220)" d="M339.467 1526.31 Q335.856 1526.31 334.027 1529.88 Q332.222 1533.42 332.222 1540.55 Q332.222 1547.66 334.027 1551.22 Q335.856 1554.76 339.467 1554.76 Q343.102 1554.76 344.907 1551.22 Q346.736 1547.66 346.736 1540.55 Q346.736 1533.42 344.907 1529.88 Q343.102 1526.31 339.467 1526.31 M339.467 1522.61 Q345.277 1522.61 348.333 1527.22 Q351.412 1531.8 351.412 1540.55 Q351.412 1549.28 348.333 1553.88 Q345.277 1558.47 339.467 1558.47 Q333.657 1558.47 330.578 1553.88 Q327.523 1549.28 327.523 1540.55 Q327.523 1531.8 330.578 1527.22 Q333.657 1522.61 339.467 1522.61 Z" fill="#000000" fill-rule="evenodd" fill-opacity="1" /><path clip-path="url(#clip220)" d="M351.412 1516.71 L375.523 1516.71 L375.523 1519.91 L351.412 1519.91 L351.412 1516.71 Z" fill="#000000" fill-rule="evenodd" fill-opacity="1" /><path clip-path="url(#clip220)" d="M384.382 1527.19 L390.588 1527.19 L390.588 1505.76 L383.836 1507.12 L383.836 1503.66 L390.551 1502.3 L394.35 1502.3 L394.35 1527.19 L400.556 1527.19 L400.556 1530.38 L384.382 1530.38 L384.382 1527.19 Z" fill="#000000" fill-rule="evenodd" fill-opacity="1" /><path clip-path="url(#clip220)" d="M416.825 1514.83 Q414.267 1514.83 412.763 1516.58 Q411.277 1518.33 411.277 1521.37 Q411.277 1524.4 412.763 1526.17 Q414.267 1527.92 416.825 1527.92 Q419.383 1527.92 420.869 1526.17 Q422.373 1524.4 422.373 1521.37 Q422.373 1518.33 420.869 1516.58 Q419.383 1514.83 416.825 1514.83 M424.367 1502.92 L424.367 1506.39 Q422.938 1505.71 421.471 1505.35 Q420.022 1504.99 418.593 1504.99 Q414.831 1504.99 412.838 1507.53 Q410.863 1510.07 410.581 1515.21 Q411.691 1513.57 413.364 1512.7 Q415.038 1511.82 417.051 1511.82 Q421.283 1511.82 423.728 1514.4 Q426.191 1516.96 426.191 1521.37 Q426.191 1525.7 423.633 1528.31 Q421.076 1530.93 416.825 1530.93 Q411.954 1530.93 409.377 1527.21 Q406.801 1523.46 406.801 1516.37 Q406.801 1509.71 409.96 1505.76 Q413.12 1501.8 418.443 1501.8 Q419.872 1501.8 421.32 1502.08 Q422.787 1502.36 424.367 1502.92 Z" fill="#000000" fill-rule="evenodd" fill-opacity="1" /><path clip-path="url(#clip220)" d="M114.26 1141.54 L143.936 1141.54 L143.936 1145.47 L114.26 1145.47 L114.26 1141.54 Z" fill="#000000" fill-rule="evenodd" fill-opacity="1" /><path clip-path="url(#clip220)" d="M158.056 1154.43 L174.376 1154.43 L174.376 1158.37 L152.431 1158.37 L152.431 1154.43 Q155.093 1151.68 159.677 1147.05 Q164.283 1142.39 165.464 1141.05 Q167.709 1138.53 168.589 1136.79 Q169.491 1135.03 169.491 1133.34 Q169.491 1130.59 167.547 1128.85 Q165.626 1127.12 162.524 1127.12 Q160.325 1127.12 157.871 1127.88 Q155.44 1128.64 152.663 1130.2 L152.663 1125.47 Q155.487 1124.34 157.94 1123.76 Q160.394 1123.18 162.431 1123.18 Q167.802 1123.18 170.996 1125.87 Q174.19 1128.55 174.19 1133.04 Q174.19 1135.17 173.38 1137.09 Q172.593 1138.99 170.487 1141.58 Q169.908 1142.26 166.806 1145.47 Q163.704 1148.67 158.056 1154.43 Z" fill="#000000" fill-rule="evenodd" fill-opacity="1" /><path clip-path="url(#clip220)" d="M184.19 1152.49 L189.075 1152.49 L189.075 1158.37 L184.19 1158.37 L184.19 1152.49 Z" fill="#000000" fill-rule="evenodd" fill-opacity="1" /><path clip-path="url(#clip220)" d="M199.306 1123.81 L217.662 1123.81 L217.662 1127.74 L203.588 1127.74 L203.588 1136.21 Q204.607 1135.87 205.625 1135.7 Q206.644 1135.52 207.662 1135.52 Q213.449 1135.52 216.829 1138.69 Q220.209 1141.86 220.209 1147.28 Q220.209 1152.86 216.736 1155.96 Q213.264 1159.04 206.945 1159.04 Q204.769 1159.04 202.5 1158.67 Q200.255 1158.3 197.848 1157.56 L197.848 1152.86 Q199.931 1153.99 202.153 1154.55 Q204.375 1155.1 206.852 1155.1 Q210.857 1155.1 213.195 1153 Q215.533 1150.89 215.533 1147.28 Q215.533 1143.67 213.195 1141.56 Q210.857 1139.45 206.852 1139.45 Q204.977 1139.45 203.102 1139.87 Q201.25 1140.29 199.306 1141.17 L199.306 1123.81 Z" fill="#000000" fill-rule="evenodd" fill-opacity="1" /><path clip-path="url(#clip220)" d="M239.422 1126.89 Q235.81 1126.89 233.982 1130.45 Q232.176 1133.99 232.176 1141.12 Q232.176 1148.23 233.982 1151.79 Q235.81 1155.33 239.422 1155.33 Q243.056 1155.33 244.861 1151.79 Q246.69 1148.23 246.69 1141.12 Q246.69 1133.99 244.861 1130.45 Q243.056 1126.89 239.422 1126.89 M239.422 1123.18 Q245.232 1123.18 248.287 1127.79 Q251.366 1132.37 251.366 1141.12 Q251.366 1149.85 248.287 1154.45 Q245.232 1159.04 239.422 1159.04 Q233.611 1159.04 230.533 1154.45 Q227.477 1149.85 227.477 1141.12 Q227.477 1132.37 230.533 1127.79 Q233.611 1123.18 239.422 1123.18 Z" fill="#000000" fill-rule="evenodd" fill-opacity="1" /><path clip-path="url(#clip220)" d="M287.755 1132.9 L277.176 1143.53 L287.755 1154.11 L285 1156.91 L274.375 1146.28 L263.75 1156.91 L261.019 1154.11 L271.574 1143.53 L261.019 1132.9 L263.75 1130.1 L274.375 1140.73 L285 1130.1 L287.755 1132.9 Z" fill="#000000" fill-rule="evenodd" fill-opacity="1" /><path clip-path="url(#clip220)" d="M300.116 1154.43 L307.754 1154.43 L307.754 1128.07 L299.444 1129.73 L299.444 1125.47 L307.708 1123.81 L312.384 1123.81 L312.384 1154.43 L320.023 1154.43 L320.023 1158.37 L300.116 1158.37 L300.116 1154.43 Z" fill="#000000" fill-rule="evenodd" fill-opacity="1" /><path clip-path="url(#clip220)" d="M339.467 1126.89 Q335.856 1126.89 334.027 1130.45 Q332.222 1133.99 332.222 1141.12 Q332.222 1148.23 334.027 1151.79 Q335.856 1155.33 339.467 1155.33 Q343.102 1155.33 344.907 1151.79 Q346.736 1148.23 346.736 1141.12 Q346.736 1133.99 344.907 1130.45 Q343.102 1126.89 339.467 1126.89 M339.467 1123.18 Q345.277 1123.18 348.333 1127.79 Q351.412 1132.37 351.412 1141.12 Q351.412 1149.85 348.333 1154.45 Q345.277 1159.04 339.467 1159.04 Q333.657 1159.04 330.578 1154.45 Q327.523 1149.85 327.523 1141.12 Q327.523 1132.37 330.578 1127.79 Q333.657 1123.18 339.467 1123.18 Z" fill="#000000" fill-rule="evenodd" fill-opacity="1" /><path clip-path="url(#clip220)" d="M351.412 1117.28 L375.523 1117.28 L375.523 1120.48 L351.412 1120.48 L351.412 1117.28 Z" fill="#000000" fill-rule="evenodd" fill-opacity="1" /><path clip-path="url(#clip220)" d="M384.382 1127.76 L390.588 1127.76 L390.588 1106.34 L383.836 1107.69 L383.836 1104.23 L390.551 1102.88 L394.35 1102.88 L394.35 1127.76 L400.556 1127.76 L400.556 1130.96 L384.382 1130.96 L384.382 1127.76 Z" fill="#000000" fill-rule="evenodd" fill-opacity="1" /><path clip-path="url(#clip220)" d="M416.825 1115.4 Q414.267 1115.4 412.763 1117.15 Q411.277 1118.9 411.277 1121.95 Q411.277 1124.98 412.763 1126.74 Q414.267 1128.49 416.825 1128.49 Q419.383 1128.49 420.869 1126.74 Q422.373 1124.98 422.373 1121.95 Q422.373 1118.9 420.869 1117.15 Q419.383 1115.4 416.825 1115.4 M424.367 1103.5 L424.367 1106.96 Q422.938 1106.28 421.471 1105.92 Q420.022 1105.57 418.593 1105.57 Q414.831 1105.57 412.838 1108.11 Q410.863 1110.64 410.581 1115.78 Q411.691 1114.14 413.364 1113.28 Q415.038 1112.39 417.051 1112.39 Q421.283 1112.39 423.728 1114.97 Q426.191 1117.53 426.191 1121.95 Q426.191 1126.27 423.633 1128.89 Q421.076 1131.5 416.825 1131.5 Q411.954 1131.5 409.377 1127.78 Q406.801 1124.04 406.801 1116.94 Q406.801 1110.29 409.96 1106.34 Q413.12 1102.37 418.443 1102.37 Q419.872 1102.37 421.32 1102.65 Q422.787 1102.93 424.367 1103.5 Z" fill="#000000" fill-rule="evenodd" fill-opacity="1" /><path clip-path="url(#clip220)" d="M414.247 721.011 Q410.636 721.011 408.807 724.575 Q407.002 728.117 407.002 735.247 Q407.002 742.353 408.807 745.918 Q410.636 749.46 414.247 749.46 Q417.881 749.46 419.687 745.918 Q421.515 742.353 421.515 735.247 Q421.515 728.117 419.687 724.575 Q417.881 721.011 414.247 721.011 M414.247 717.307 Q420.057 717.307 423.113 721.913 Q426.191 726.497 426.191 735.247 Q426.191 743.973 423.113 748.58 Q420.057 753.163 414.247 753.163 Q408.437 753.163 405.358 748.58 Q402.303 743.973 402.303 735.247 Q402.303 726.497 405.358 721.913 Q408.437 717.307 414.247 717.307 Z" fill="#000000" fill-rule="evenodd" fill-opacity="1" /><path clip-path="url(#clip220)" d="M158.056 355.577 L174.376 355.577 L174.376 359.512 L152.431 359.512 L152.431 355.577 Q155.093 352.822 159.677 348.193 Q164.283 343.54 165.464 342.198 Q167.709 339.674 168.589 337.938 Q169.491 336.179 169.491 334.489 Q169.491 331.735 167.547 329.998 Q165.626 328.262 162.524 328.262 Q160.325 328.262 157.871 329.026 Q155.44 329.79 152.663 331.341 L152.663 326.619 Q155.487 325.485 157.94 324.906 Q160.394 324.327 162.431 324.327 Q167.802 324.327 170.996 327.012 Q174.19 329.698 174.19 334.188 Q174.19 336.318 173.38 338.239 Q172.593 340.137 170.487 342.73 Q169.908 343.401 166.806 346.619 Q163.704 349.813 158.056 355.577 Z" fill="#000000" fill-rule="evenodd" fill-opacity="1" /><path clip-path="url(#clip220)" d="M184.19 353.633 L189.075 353.633 L189.075 359.512 L184.19 359.512 L184.19 353.633 Z" fill="#000000" fill-rule="evenodd" fill-opacity="1" /><path clip-path="url(#clip220)" d="M199.306 324.952 L217.662 324.952 L217.662 328.887 L203.588 328.887 L203.588 337.36 Q204.607 337.012 205.625 336.85 Q206.644 336.665 207.662 336.665 Q213.449 336.665 216.829 339.836 Q220.209 343.008 220.209 348.424 Q220.209 354.003 216.736 357.105 Q213.264 360.184 206.945 360.184 Q204.769 360.184 202.5 359.813 Q200.255 359.443 197.848 358.702 L197.848 354.003 Q199.931 355.137 202.153 355.693 Q204.375 356.248 206.852 356.248 Q210.857 356.248 213.195 354.142 Q215.533 352.035 215.533 348.424 Q215.533 344.813 213.195 342.707 Q210.857 340.6 206.852 340.6 Q204.977 340.6 203.102 341.017 Q201.25 341.434 199.306 342.313 L199.306 324.952 Z" fill="#000000" fill-rule="evenodd" fill-opacity="1" /><path clip-path="url(#clip220)" d="M239.422 328.031 Q235.81 328.031 233.982 331.596 Q232.176 335.137 232.176 342.267 Q232.176 349.373 233.982 352.938 Q235.81 356.48 239.422 356.48 Q243.056 356.48 244.861 352.938 Q246.69 349.373 246.69 342.267 Q246.69 335.137 244.861 331.596 Q243.056 328.031 239.422 328.031 M239.422 324.327 Q245.232 324.327 248.287 328.934 Q251.366 333.517 251.366 342.267 Q251.366 350.994 248.287 355.6 Q245.232 360.184 239.422 360.184 Q233.611 360.184 230.533 355.6 Q227.477 350.994 227.477 342.267 Q227.477 333.517 230.533 328.934 Q233.611 324.327 239.422 324.327 Z" fill="#000000" fill-rule="evenodd" fill-opacity="1" /><path clip-path="url(#clip220)" d="M287.755 334.049 L277.176 344.674 L287.755 355.253 L285 358.054 L274.375 347.429 L263.75 358.054 L261.019 355.253 L271.574 344.674 L261.019 334.049 L263.75 331.248 L274.375 341.873 L285 331.248 L287.755 334.049 Z" fill="#000000" fill-rule="evenodd" fill-opacity="1" /><path clip-path="url(#clip220)" d="M300.116 355.577 L307.754 355.577 L307.754 329.211 L299.444 330.878 L299.444 326.619 L307.708 324.952 L312.384 324.952 L312.384 355.577 L320.023 355.577 L320.023 359.512 L300.116 359.512 L300.116 355.577 Z" fill="#000000" fill-rule="evenodd" fill-opacity="1" /><path clip-path="url(#clip220)" d="M339.467 328.031 Q335.856 328.031 334.027 331.596 Q332.222 335.137 332.222 342.267 Q332.222 349.373 334.027 352.938 Q335.856 356.48 339.467 356.48 Q343.102 356.48 344.907 352.938 Q346.736 349.373 346.736 342.267 Q346.736 335.137 344.907 331.596 Q343.102 328.031 339.467 328.031 M339.467 324.327 Q345.277 324.327 348.333 328.934 Q351.412 333.517 351.412 342.267 Q351.412 350.994 348.333 355.6 Q345.277 360.184 339.467 360.184 Q333.657 360.184 330.578 355.6 Q327.523 350.994 327.523 342.267 Q327.523 333.517 330.578 328.934 Q333.657 324.327 339.467 324.327 Z" fill="#000000" fill-rule="evenodd" fill-opacity="1" /><path clip-path="url(#clip220)" d="M351.412 318.429 L375.523 318.429 L375.523 321.626 L351.412 321.626 L351.412 318.429 Z" fill="#000000" fill-rule="evenodd" fill-opacity="1" /><path clip-path="url(#clip220)" d="M384.382 328.905 L390.588 328.905 L390.588 307.482 L383.836 308.837 L383.836 305.376 L390.551 304.022 L394.35 304.022 L394.35 328.905 L400.556 328.905 L400.556 332.102 L384.382 332.102 L384.382 328.905 Z" fill="#000000" fill-rule="evenodd" fill-opacity="1" /><path clip-path="url(#clip220)" d="M416.825 316.548 Q414.267 316.548 412.763 318.297 Q411.277 320.046 411.277 323.093 Q411.277 326.121 412.763 327.889 Q414.267 329.638 416.825 329.638 Q419.383 329.638 420.869 327.889 Q422.373 326.121 422.373 323.093 Q422.373 320.046 420.869 318.297 Q419.383 316.548 416.825 316.548 M424.367 304.642 L424.367 308.103 Q422.938 307.426 421.471 307.069 Q420.022 306.711 418.593 306.711 Q414.831 306.711 412.838 309.25 Q410.863 311.789 410.581 316.924 Q411.691 315.288 413.364 314.423 Q415.038 313.539 417.051 313.539 Q421.283 313.539 423.728 316.115 Q426.191 318.673 426.191 323.093 Q426.191 327.419 423.633 330.033 Q421.076 332.647 416.825 332.647 Q411.954 332.647 409.377 328.923 Q406.801 325.181 406.801 318.09 Q406.801 311.432 409.96 307.482 Q413.12 303.514 418.443 303.514 Q419.872 303.514 421.32 303.796 Q422.787 304.078 424.367 304.642 Z" fill="#000000" fill-rule="evenodd" fill-opacity="1" /><path clip-path="url(#clip220)" d="M154.075 -74.4751 L172.431 -74.4751 L172.431 -70.5399 L158.357 -70.5399 L158.357 -62.0678 Q159.376 -62.415 160.394 -62.577 Q161.413 -62.7622 162.431 -62.7622 Q168.218 -62.7622 171.598 -59.5909 Q174.977 -56.4197 174.977 -51.003 Q174.977 -45.4243 171.505 -42.3225 Q168.033 -39.2438 161.714 -39.2438 Q159.538 -39.2438 157.269 -39.6142 Q155.024 -39.9846 152.616 -40.7253 L152.616 -45.4243 Q154.7 -44.2901 156.922 -43.7345 Q159.144 -43.179 161.621 -43.179 Q165.626 -43.179 167.964 -45.2855 Q170.302 -47.3919 170.302 -51.003 Q170.302 -54.6141 167.964 -56.7206 Q165.626 -58.827 161.621 -58.827 Q159.746 -58.827 157.871 -58.4104 Q156.019 -57.9937 154.075 -57.1141 L154.075 -74.4751 Z" fill="#000000" fill-rule="evenodd" fill-opacity="1" /><path clip-path="url(#clip220)" d="M184.19 -45.7947 L189.075 -45.7947 L189.075 -39.9151 L184.19 -39.9151 L184.19 -45.7947 Z" fill="#000000" fill-rule="evenodd" fill-opacity="1" /><path clip-path="url(#clip220)" d="M209.26 -71.3964 Q205.649 -71.3964 203.82 -67.8316 Q202.014 -64.29 202.014 -57.1604 Q202.014 -50.0539 203.82 -46.4891 Q205.649 -42.9475 209.26 -42.9475 Q212.894 -42.9475 214.699 -46.4891 Q216.528 -50.0539 216.528 -57.1604 Q216.528 -64.29 214.699 -67.8316 Q212.894 -71.3964 209.26 -71.3964 M209.26 -75.1001 Q215.07 -75.1001 218.125 -70.4936 Q221.204 -65.9103 221.204 -57.1604 Q221.204 -48.4336 218.125 -43.8271 Q215.07 -39.2438 209.26 -39.2438 Q203.449 -39.2438 200.371 -43.8271 Q197.315 -48.4336 197.315 -57.1604 Q197.315 -65.9103 200.371 -70.4936 Q203.449 -75.1001 209.26 -75.1001 Z" fill="#000000" fill-rule="evenodd" fill-opacity="1" /><path clip-path="url(#clip220)" d="M239.422 -71.3964 Q235.81 -71.3964 233.982 -67.8316 Q232.176 -64.29 232.176 -57.1604 Q232.176 -50.0539 233.982 -46.4891 Q235.81 -42.9475 239.422 -42.9475 Q243.056 -42.9475 244.861 -46.4891 Q246.69 -50.0539 246.69 -57.1604 Q246.69 -64.29 244.861 -67.8316 Q243.056 -71.3964 239.422 -71.3964 M239.422 -75.1001 Q245.232 -75.1001 248.287 -70.4936 Q251.366 -65.9103 251.366 -57.1604 Q251.366 -48.4336 248.287 -43.8271 Q245.232 -39.2438 239.422 -39.2438 Q233.611 -39.2438 230.533 -43.8271 Q227.477 -48.4336 227.477 -57.1604 Q227.477 -65.9103 230.533 -70.4936 Q233.611 -75.1001 239.422 -75.1001 Z" fill="#000000" fill-rule="evenodd" fill-opacity="1" /><path clip-path="url(#clip220)" d="M287.755 -65.3779 L277.176 -54.753 L287.755 -44.1743 L285 -41.3734 L274.375 -51.9984 L263.75 -41.3734 L261.019 -44.1743 L271.574 -54.753 L261.019 -65.3779 L263.75 -68.1788 L274.375 -57.5539 L285 -68.1788 L287.755 -65.3779 Z" fill="#000000" fill-rule="evenodd" fill-opacity="1" /><path clip-path="url(#clip220)" d="M300.116 -43.8503 L307.754 -43.8503 L307.754 -70.2159 L299.444 -68.5492 L299.444 -72.8085 L307.708 -74.4751 L312.384 -74.4751 L312.384 -43.8503 L320.023 -43.8503 L320.023 -39.9151 L300.116 -39.9151 L300.116 -43.8503 Z" fill="#000000" fill-rule="evenodd" fill-opacity="1" /><path clip-path="url(#clip220)" d="M339.467 -71.3964 Q335.856 -71.3964 334.027 -67.8316 Q332.222 -64.29 332.222 -57.1604 Q332.222 -50.0539 334.027 -46.4891 Q335.856 -42.9475 339.467 -42.9475 Q343.102 -42.9475 344.907 -46.4891 Q346.736 -50.0539 346.736 -57.1604 Q346.736 -64.29 344.907 -67.8316 Q343.102 -71.3964 339.467 -71.3964 M339.467 -75.1001 Q345.277 -75.1001 348.333 -70.4936 Q351.412 -65.9103 351.412 -57.1604 Q351.412 -48.4336 348.333 -43.8271 Q345.277 -39.2438 339.467 -39.2438 Q333.657 -39.2438 330.578 -43.8271 Q327.523 -48.4336 327.523 -57.1604 Q327.523 -65.9103 330.578 -70.4936 Q333.657 -75.1001 339.467 -75.1001 Z" fill="#000000" fill-rule="evenodd" fill-opacity="1" /><path clip-path="url(#clip220)" d="M351.412 -80.9988 L375.523 -80.9988 L375.523 -77.8014 L351.412 -77.8014 L351.412 -80.9988 Z" fill="#000000" fill-rule="evenodd" fill-opacity="1" /><path clip-path="url(#clip220)" d="M384.382 -70.5228 L390.588 -70.5228 L390.588 -91.9449 L383.836 -90.5907 L383.836 -94.0514 L390.551 -95.4055 L394.35 -95.4055 L394.35 -70.5228 L400.556 -70.5228 L400.556 -67.3255 L384.382 -67.3255 L384.382 -70.5228 Z" fill="#000000" fill-rule="evenodd" fill-opacity="1" /><path clip-path="url(#clip220)" d="M416.825 -82.8795 Q414.267 -82.8795 412.763 -81.1304 Q411.277 -79.3813 411.277 -76.3344 Q411.277 -73.3064 412.763 -71.5385 Q414.267 -69.7893 416.825 -69.7893 Q419.383 -69.7893 420.869 -71.5385 Q422.373 -73.3064 422.373 -76.3344 Q422.373 -79.3813 420.869 -81.1304 Q419.383 -82.8795 416.825 -82.8795 M424.367 -94.7849 L424.367 -91.3242 Q422.938 -92.0013 421.471 -92.3587 Q420.022 -92.716 418.593 -92.716 Q414.831 -92.716 412.838 -90.177 Q410.863 -87.6379 410.581 -82.5034 Q411.691 -84.1397 413.364 -85.0048 Q415.038 -85.8888 417.051 -85.8888 Q421.283 -85.8888 423.728 -83.3121 Q426.191 -80.7543 426.191 -76.3344 Q426.191 -72.0086 423.633 -69.3944 Q421.076 -66.7801 416.825 -66.7801 Q411.954 -66.7801 409.377 -70.504 Q406.801 -74.2468 406.801 -81.3373 Q406.801 -87.9952 409.96 -91.9449 Q413.12 -95.9133 418.443 -95.9133 Q419.872 -95.9133 421.32 -95.6312 Q422.787 -95.3491 424.367 -94.7849 Z" fill="#000000" fill-rule="evenodd" fill-opacity="1" /><path clip-path="url(#clip220)" d="M16.4842 815.293 L16.4842 808.863 L64.0042 808.863 L64.0042 815.293 L16.4842 815.293 Z" fill="#000000" fill-rule="evenodd" fill-opacity="1" /><path clip-path="url(#clip220)" d="M35.1993 768.568 Q31.2526 766.372 29.3747 763.317 Q27.4968 760.261 27.4968 756.123 Q27.4968 750.553 31.4117 747.53 Q35.2948 744.506 42.4881 744.506 L64.0042 744.506 L64.0042 750.394 L42.679 750.394 Q37.5546 750.394 35.072 752.208 Q32.5894 754.023 32.5894 757.747 Q32.5894 762.298 35.6131 764.94 Q38.6368 767.582 43.8567 767.582 L64.0042 767.582 L64.0042 773.47 L42.679 773.47 Q37.5228 773.47 35.072 775.284 Q32.5894 777.098 32.5894 780.886 Q32.5894 785.374 35.6449 788.016 Q38.6686 790.657 43.8567 790.657 L64.0042 790.657 L64.0042 796.546 L28.3562 796.546 L28.3562 790.657 L33.8944 790.657 Q30.616 788.652 29.0564 785.851 Q27.4968 783.05 27.4968 779.199 Q27.4968 775.316 29.4702 772.61 Q31.4436 769.873 35.1993 768.568 Z" fill="#000000" fill-rule="evenodd" fill-opacity="1" /><path clip-path="url(#clip220)" d="M14.5426 718.757 Q21.8632 723.022 29.0246 725.09 Q36.186 727.159 43.5384 727.159 Q50.8908 727.159 58.1159 725.09 Q65.3091 722.99 72.5979 718.757 L72.5979 723.849 Q65.1182 728.623 57.8931 731.011 Q50.668 733.366 43.5384 733.366 Q36.4406 733.366 29.2474 731.011 Q22.0542 728.655 14.5426 723.849 L14.5426 718.757 Z" fill="#000000" fill-rule="evenodd" fill-opacity="1" /><path clip-path="url(#clip220)" d="M28.3562 677.761 L45.7028 690.652 L64.0042 677.093 L64.0042 684 L49.9996 694.376 L64.0042 704.752 L64.0042 711.659 L45.3526 697.813 L28.3562 710.481 L28.3562 703.574 L41.0558 694.121 L28.3562 684.668 L28.3562 677.761 Z" fill="#000000" fill-rule="evenodd" fill-opacity="1" /><path clip-path="url(#clip220)" d="M14.5426 669.741 L14.5426 664.648 Q22.0542 659.874 29.2474 657.519 Q36.4406 655.131 43.5384 655.131 Q50.668 655.131 57.8931 657.519 Q65.1182 659.874 72.5979 664.648 L72.5979 669.741 Q65.3091 665.507 58.1159 663.439 Q50.8908 661.338 43.5384 661.338 Q36.186 661.338 29.0246 663.439 Q21.8632 665.507 14.5426 669.741 Z" fill="#000000" fill-rule="evenodd" fill-opacity="1" /><circle clip-path="url(#clip222)" cx="515.698" cy="735.212" r="14.4" fill="#009af9" fill-rule="evenodd" fill-opacity="1" stroke="#000000" stroke-opacity="1" stroke-width="3.2"/>
<circle clip-path="url(#clip222)" cx="515.698" cy="785.935" r="14.4" fill="#009af9" fill-rule="evenodd" fill-opacity="1" stroke="#000000" stroke-opacity="1" stroke-width="3.2"/>
<circle clip-path="url(#clip222)" cx="515.698" cy="684.489" r="14.4" fill="#009af9" fill-rule="evenodd" fill-opacity="1" stroke="#000000" stroke-opacity="1" stroke-width="3.2"/>
<circle clip-path="url(#clip222)" cx="515.698" cy="1156.74" r="14.4" fill="#009af9" fill-rule="evenodd" fill-opacity="1" stroke="#000000" stroke-opacity="1" stroke-width="3.2"/>
<circle clip-path="url(#clip222)" cx="515.698" cy="313.685" r="14.4" fill="#009af9" fill-rule="evenodd" fill-opacity="1" stroke="#000000" stroke-opacity="1" stroke-width="3.2"/>
<circle clip-path="url(#clip222)" cx="515.698" cy="1188.48" r="14.4" fill="#009af9" fill-rule="evenodd" fill-opacity="1" stroke="#000000" stroke-opacity="1" stroke-width="3.2"/>
<circle clip-path="url(#clip222)" cx="515.698" cy="281.939" r="14.4" fill="#009af9" fill-rule="evenodd" fill-opacity="1" stroke="#000000" stroke-opacity="1" stroke-width="3.2"/>
<circle clip-path="url(#clip222)" cx="515.698" cy="735.212" r="14.4" fill="#009af9" fill-rule="evenodd" fill-opacity="1" stroke="#000000" stroke-opacity="1" stroke-width="3.2"/>
<circle clip-path="url(#clip222)" cx="515.698" cy="819.252" r="14.4" fill="#009af9" fill-rule="evenodd" fill-opacity="1" stroke="#000000" stroke-opacity="1" stroke-width="3.2"/>
<circle clip-path="url(#clip222)" cx="515.698" cy="651.172" r="14.4" fill="#009af9" fill-rule="evenodd" fill-opacity="1" stroke="#000000" stroke-opacity="1" stroke-width="3.2"/>
<circle clip-path="url(#clip222)" cx="515.698" cy="753.008" r="14.4" fill="#009af9" fill-rule="evenodd" fill-opacity="1" stroke="#000000" stroke-opacity="1" stroke-width="3.2"/>
<circle clip-path="url(#clip222)" cx="515.698" cy="717.416" r="14.4" fill="#009af9" fill-rule="evenodd" fill-opacity="1" stroke="#000000" stroke-opacity="1" stroke-width="3.2"/>
<circle clip-path="url(#clip222)" cx="515.698" cy="735.212" r="14.4" fill="#009af9" fill-rule="evenodd" fill-opacity="1" stroke="#000000" stroke-opacity="1" stroke-width="3.2"/>
<circle clip-path="url(#clip222)" cx="515.698" cy="778.597" r="14.4" fill="#009af9" fill-rule="evenodd" fill-opacity="1" stroke="#000000" stroke-opacity="1" stroke-width="3.2"/>
<circle clip-path="url(#clip222)" cx="515.698" cy="691.827" r="14.4" fill="#009af9" fill-rule="evenodd" fill-opacity="1" stroke="#000000" stroke-opacity="1" stroke-width="3.2"/>
<circle clip-path="url(#clip222)" cx="515.698" cy="735.212" r="14.4" fill="#009af9" fill-rule="evenodd" fill-opacity="1" stroke="#000000" stroke-opacity="1" stroke-width="3.2"/>
<circle clip-path="url(#clip222)" cx="515.698" cy="735.212" r="14.4" fill="#009af9" fill-rule="evenodd" fill-opacity="1" stroke="#000000" stroke-opacity="1" stroke-width="3.2"/>
<circle clip-path="url(#clip222)" cx="515.698" cy="735.212" r="14.4" fill="#009af9" fill-rule="evenodd" fill-opacity="1" stroke="#000000" stroke-opacity="1" stroke-width="3.2"/>
<circle clip-path="url(#clip222)" cx="515.698" cy="735.212" r="14.4" fill="#009af9" fill-rule="evenodd" fill-opacity="1" stroke="#000000" stroke-opacity="1" stroke-width="3.2"/>
<circle clip-path="url(#clip222)" cx="515.698" cy="984.006" r="14.4" fill="#009af9" fill-rule="evenodd" fill-opacity="1" stroke="#000000" stroke-opacity="1" stroke-width="3.2"/>
<circle clip-path="url(#clip222)" cx="515.698" cy="486.418" r="14.4" fill="#009af9" fill-rule="evenodd" fill-opacity="1" stroke="#000000" stroke-opacity="1" stroke-width="3.2"/>
<circle clip-path="url(#clip222)" cx="515.698" cy="1263.41" r="14.4" fill="#009af9" fill-rule="evenodd" fill-opacity="1" stroke="#000000" stroke-opacity="1" stroke-width="3.2"/>
<circle clip-path="url(#clip222)" cx="515.698" cy="207.015" r="14.4" fill="#009af9" fill-rule="evenodd" fill-opacity="1" stroke="#000000" stroke-opacity="1" stroke-width="3.2"/>
<circle clip-path="url(#clip222)" cx="515.698" cy="735.212" r="14.4" fill="#009af9" fill-rule="evenodd" fill-opacity="1" stroke="#000000" stroke-opacity="1" stroke-width="3.2"/>
<circle clip-path="url(#clip222)" cx="515.698" cy="735.212" r="14.4" fill="#009af9" fill-rule="evenodd" fill-opacity="1" stroke="#000000" stroke-opacity="1" stroke-width="3.2"/>
<circle clip-path="url(#clip222)" cx="2196.34" cy="735.212" r="14.4" fill="#009af9" fill-rule="evenodd" fill-opacity="1" stroke="#000000" stroke-opacity="1" stroke-width="3.2"/>
<circle clip-path="url(#clip222)" cx="2197.13" cy="735.212" r="14.4" fill="#009af9" fill-rule="evenodd" fill-opacity="1" stroke="#000000" stroke-opacity="1" stroke-width="3.2"/>
<circle clip-path="url(#clip222)" cx="2198.68" cy="735.212" r="14.4" fill="#009af9" fill-rule="evenodd" fill-opacity="1" stroke="#000000" stroke-opacity="1" stroke-width="3.2"/>
<circle clip-path="url(#clip222)" cx="2200.98" cy="735.212" r="14.4" fill="#009af9" fill-rule="evenodd" fill-opacity="1" stroke="#000000" stroke-opacity="1" stroke-width="3.2"/>
<circle clip-path="url(#clip222)" cx="2203.99" cy="735.212" r="14.4" fill="#009af9" fill-rule="evenodd" fill-opacity="1" stroke="#000000" stroke-opacity="1" stroke-width="3.2"/>
<circle clip-path="url(#clip222)" cx="2207.67" cy="735.212" r="14.4" fill="#009af9" fill-rule="evenodd" fill-opacity="1" stroke="#000000" stroke-opacity="1" stroke-width="3.2"/>
<circle clip-path="url(#clip222)" cx="2211.96" cy="735.212" r="14.4" fill="#009af9" fill-rule="evenodd" fill-opacity="1" stroke="#000000" stroke-opacity="1" stroke-width="3.2"/>
<circle clip-path="url(#clip222)" cx="2216.79" cy="735.212" r="14.4" fill="#009af9" fill-rule="evenodd" fill-opacity="1" stroke="#000000" stroke-opacity="1" stroke-width="3.2"/>
<circle clip-path="url(#clip222)" cx="2222.1" cy="735.212" r="14.4" fill="#009af9" fill-rule="evenodd" fill-opacity="1" stroke="#000000" stroke-opacity="1" stroke-width="3.2"/>
<circle clip-path="url(#clip222)" cx="2227.79" cy="735.212" r="14.4" fill="#009af9" fill-rule="evenodd" fill-opacity="1" stroke="#000000" stroke-opacity="1" stroke-width="3.2"/>
<circle clip-path="url(#clip222)" cx="2233.8" cy="735.212" r="14.4" fill="#009af9" fill-rule="evenodd" fill-opacity="1" stroke="#000000" stroke-opacity="1" stroke-width="3.2"/>
<circle clip-path="url(#clip222)" cx="2240.01" cy="735.212" r="14.4" fill="#009af9" fill-rule="evenodd" fill-opacity="1" stroke="#000000" stroke-opacity="1" stroke-width="3.2"/>
<circle clip-path="url(#clip222)" cx="2246.35" cy="735.212" r="14.4" fill="#009af9" fill-rule="evenodd" fill-opacity="1" stroke="#000000" stroke-opacity="1" stroke-width="3.2"/>
<circle clip-path="url(#clip222)" cx="2252.71" cy="735.212" r="14.4" fill="#009af9" fill-rule="evenodd" fill-opacity="1" stroke="#000000" stroke-opacity="1" stroke-width="3.2"/>
<circle clip-path="url(#clip222)" cx="2259" cy="735.212" r="14.4" fill="#009af9" fill-rule="evenodd" fill-opacity="1" stroke="#000000" stroke-opacity="1" stroke-width="3.2"/>
<circle clip-path="url(#clip222)" cx="2265.13" cy="735.212" r="14.4" fill="#009af9" fill-rule="evenodd" fill-opacity="1" stroke="#000000" stroke-opacity="1" stroke-width="3.2"/>
<circle clip-path="url(#clip222)" cx="2270.99" cy="735.212" r="14.4" fill="#009af9" fill-rule="evenodd" fill-opacity="1" stroke="#000000" stroke-opacity="1" stroke-width="3.2"/>
<circle clip-path="url(#clip222)" cx="2276.5" cy="735.212" r="14.4" fill="#009af9" fill-rule="evenodd" fill-opacity="1" stroke="#000000" stroke-opacity="1" stroke-width="3.2"/>
<circle clip-path="url(#clip222)" cx="2281.58" cy="735.212" r="14.4" fill="#009af9" fill-rule="evenodd" fill-opacity="1" stroke="#000000" stroke-opacity="1" stroke-width="3.2"/>
<circle clip-path="url(#clip222)" cx="2286.15" cy="735.212" r="14.4" fill="#009af9" fill-rule="evenodd" fill-opacity="1" stroke="#000000" stroke-opacity="1" stroke-width="3.2"/>
<circle clip-path="url(#clip222)" cx="2290.14" cy="735.212" r="14.4" fill="#009af9" fill-rule="evenodd" fill-opacity="1" stroke="#000000" stroke-opacity="1" stroke-width="3.2"/>
<circle clip-path="url(#clip222)" cx="2293.49" cy="735.212" r="14.4" fill="#009af9" fill-rule="evenodd" fill-opacity="1" stroke="#000000" stroke-opacity="1" stroke-width="3.2"/>
<circle clip-path="url(#clip222)" cx="2296.15" cy="735.212" r="14.4" fill="#009af9" fill-rule="evenodd" fill-opacity="1" stroke="#000000" stroke-opacity="1" stroke-width="3.2"/>
<circle clip-path="url(#clip222)" cx="2298.08" cy="735.212" r="14.4" fill="#009af9" fill-rule="evenodd" fill-opacity="1" stroke="#000000" stroke-opacity="1" stroke-width="3.2"/>
<circle clip-path="url(#clip222)" cx="2299.25" cy="735.212" r="14.4" fill="#009af9" fill-rule="evenodd" fill-opacity="1" stroke="#000000" stroke-opacity="1" stroke-width="3.2"/>
<path clip-path="url(#clip220)" d="
M2027.24 196.789 L2289.74 196.789 L2289.74 93.1086 L2027.24 93.1086  Z
  " fill="#ffffff" fill-rule="evenodd" fill-opacity="1"/>
<polyline clip-path="url(#clip220)" style="stroke:#000000; stroke-linecap:butt; stroke-linejoin:round; stroke-width:4; stroke-opacity:1; fill:none" points="
  2027.24,196.789 2289.74,196.789 2289.74,93.1086 2027.24,93.1086 2027.24,196.789 
  "/>
<circle clip-path="url(#clip220)" cx="2111.27" cy="144.949" r="23.04" fill="#009af9" fill-rule="evenodd" fill-opacity="1" stroke="#000000" stroke-opacity="1" stroke-width="5.12"/>
<path clip-path="url(#clip220)" d="M2209.14 164.636 Q2207.33 169.266 2205.62 170.678 Q2203.91 172.09 2201.03 172.09 L2197.63 172.09 L2197.63 168.525 L2200.13 168.525 Q2201.89 168.525 2202.86 167.692 Q2203.84 166.858 2205.02 163.756 L2205.78 161.812 L2195.29 136.303 L2199.81 136.303 L2207.91 156.581 L2216.01 136.303 L2220.53 136.303 L2209.14 164.636 Z" fill="#000000" fill-rule="evenodd" fill-opacity="1" /><path clip-path="url(#clip220)" d="M2227.82 158.293 L2235.46 158.293 L2235.46 131.928 L2227.15 133.595 L2227.15 129.335 L2235.41 127.669 L2240.09 127.669 L2240.09 158.293 L2247.72 158.293 L2247.72 162.229 L2227.82 162.229 L2227.82 158.293 Z" fill="#000000" fill-rule="evenodd" fill-opacity="1" /></svg>
