<?xml version="1.0" encoding="utf-8"?>
<svg xmlns="http://www.w3.org/2000/svg" xmlns:xlink="http://www.w3.org/1999/xlink" width="600" height="400" viewBox="0 0 2400 1600">
<defs>
  <clipPath id="clip250">
    <rect x="0" y="0" width="2400" height="1600"/>
  </clipPath>
</defs>
<path clip-path="url(#clip250)" d="
M0 1600 L2400 1600 L2400 0 L0 0  Z
  " fill="#ffffff" fill-rule="evenodd" fill-opacity="1"/>
<defs>
  <clipPath id="clip251">
    <rect x="480" y="0" width="1681" height="1600"/>
  </clipPath>
</defs>
<path clip-path="url(#clip250)" d="
M181.183 1486.45 L2352.76 1486.45 L2352.76 123.472 L181.183 123.472  Z
  " fill="#ffffff" fill-rule="evenodd" fill-opacity="1"/>
<defs>
  <clipPath id="clip252">
    <rect x="181" y="123" width="2173" height="1364"/>
  </clipPath>
</defs>
<polyline clip-path="url(#clip252)" style="stroke:#000000; stroke-linecap:butt; stroke-linejoin:round; stroke-width:2; stroke-opacity:0.1; fill:none" points="
  535.307,1486.45 535.307,123.472 
  "/>
<polyline clip-path="url(#clip252)" style="stroke:#000000; stroke-linecap:butt; stroke-linejoin:round; stroke-width:2; stroke-opacity:0.1; fill:none" points="
  901.138,1486.45 901.138,123.472 
  "/>
<polyline clip-path="url(#clip252)" style="stroke:#000000; stroke-linecap:butt; stroke-linejoin:round; stroke-width:2; stroke-opacity:0.1; fill:none" points="
  1266.97,1486.45 1266.97,123.472 
  "/>
<polyline clip-path="url(#clip252)" style="stroke:#000000; stroke-linecap:butt; stroke-linejoin:round; stroke-width:2; stroke-opacity:0.1; fill:none" points="
  1632.8,1486.45 1632.8,123.472 
  "/>
<polyline clip-path="url(#clip252)" style="stroke:#000000; stroke-linecap:butt; stroke-linejoin:round; stroke-width:2; stroke-opacity:0.1; fill:none" points="
  1998.63,1486.45 1998.63,123.472 
  "/>
<polyline clip-path="url(#clip250)" style="stroke:#000000; stroke-linecap:butt; stroke-linejoin:round; stroke-width:4; stroke-opacity:1; fill:none" points="
  181.183,1486.45 2352.76,1486.45 
  "/>
<polyline clip-path="url(#clip250)" style="stroke:#000000; stroke-linecap:butt; stroke-linejoin:round; stroke-width:4; stroke-opacity:1; fill:none" points="
  535.307,1486.45 535.307,1467.55 
  "/>
<polyline clip-path="url(#clip250)" style="stroke:#000000; stroke-linecap:butt; stroke-linejoin:round; stroke-width:4; stroke-opacity:1; fill:none" points="
  901.138,1486.45 901.138,1467.55 
  "/>
<polyline clip-path="url(#clip250)" style="stroke:#000000; stroke-linecap:butt; stroke-linejoin:round; stroke-width:4; stroke-opacity:1; fill:none" points="
  1266.97,1486.45 1266.97,1467.55 
  "/>
<polyline clip-path="url(#clip250)" style="stroke:#000000; stroke-linecap:butt; stroke-linejoin:round; stroke-width:4; stroke-opacity:1; fill:none" points="
  1632.8,1486.45 1632.8,1467.55 
  "/>
<polyline clip-path="url(#clip250)" style="stroke:#000000; stroke-linecap:butt; stroke-linejoin:round; stroke-width:4; stroke-opacity:1; fill:none" points="
  1998.63,1486.45 1998.63,1467.55 
  "/>
<path clip-path="url(#clip250)" d="M525.585 1514.29 L543.942 1514.29 L543.942 1518.22 L529.868 1518.22 L529.868 1526.7 Q530.886 1526.35 531.905 1526.19 Q532.923 1526 533.942 1526 Q539.729 1526 543.108 1529.17 Q546.488 1532.34 546.488 1537.76 Q546.488 1543.34 543.016 1546.44 Q539.543 1549.52 533.224 1549.52 Q531.048 1549.52 528.78 1549.15 Q526.534 1548.78 524.127 1548.04 L524.127 1543.34 Q526.21 1544.47 528.432 1545.03 Q530.655 1545.58 533.131 1545.58 Q537.136 1545.58 539.474 1543.48 Q541.812 1541.37 541.812 1537.76 Q541.812 1534.15 539.474 1532.04 Q537.136 1529.94 533.131 1529.94 Q531.256 1529.94 529.381 1530.35 Q527.53 1530.77 525.585 1531.65 L525.585 1514.29 Z" fill="#000000" fill-rule="evenodd" fill-opacity="1" /><path clip-path="url(#clip250)" d="M875.826 1544.91 L883.465 1544.91 L883.465 1518.55 L875.155 1520.21 L875.155 1515.95 L883.419 1514.29 L888.094 1514.29 L888.094 1544.91 L895.733 1544.91 L895.733 1548.85 L875.826 1548.85 L875.826 1544.91 Z" fill="#000000" fill-rule="evenodd" fill-opacity="1" /><path clip-path="url(#clip250)" d="M915.178 1517.37 Q911.567 1517.37 909.738 1520.93 Q907.932 1524.47 907.932 1531.6 Q907.932 1538.71 909.738 1542.27 Q911.567 1545.82 915.178 1545.82 Q918.812 1545.82 920.617 1542.27 Q922.446 1538.71 922.446 1531.6 Q922.446 1524.47 920.617 1520.93 Q918.812 1517.37 915.178 1517.37 M915.178 1513.66 Q920.988 1513.66 924.043 1518.27 Q927.122 1522.85 927.122 1531.6 Q927.122 1540.33 924.043 1544.94 Q920.988 1549.52 915.178 1549.52 Q909.367 1549.52 906.289 1544.94 Q903.233 1540.33 903.233 1531.6 Q903.233 1522.85 906.289 1518.27 Q909.367 1513.66 915.178 1513.66 Z" fill="#000000" fill-rule="evenodd" fill-opacity="1" /><path clip-path="url(#clip250)" d="M1242.15 1544.91 L1249.79 1544.91 L1249.79 1518.55 L1241.48 1520.21 L1241.48 1515.95 L1249.75 1514.29 L1254.42 1514.29 L1254.42 1544.91 L1262.06 1544.91 L1262.06 1548.85 L1242.15 1548.85 L1242.15 1544.91 Z" fill="#000000" fill-rule="evenodd" fill-opacity="1" /><path clip-path="url(#clip250)" d="M1271.55 1514.29 L1289.91 1514.29 L1289.91 1518.22 L1275.84 1518.22 L1275.84 1526.7 Q1276.85 1526.35 1277.87 1526.19 Q1278.89 1526 1279.91 1526 Q1285.7 1526 1289.08 1529.17 Q1292.46 1532.34 1292.46 1537.76 Q1292.46 1543.34 1288.98 1546.44 Q1285.51 1549.52 1279.19 1549.52 Q1277.02 1549.52 1274.75 1549.15 Q1272.5 1548.78 1270.09 1548.04 L1270.09 1543.34 Q1272.18 1544.47 1274.4 1545.03 Q1276.62 1545.58 1279.1 1545.58 Q1283.1 1545.58 1285.44 1543.48 Q1287.78 1541.37 1287.78 1537.76 Q1287.78 1534.15 1285.44 1532.04 Q1283.1 1529.94 1279.1 1529.94 Q1277.22 1529.94 1275.35 1530.35 Q1273.5 1530.77 1271.55 1531.65 L1271.55 1514.29 Z" fill="#000000" fill-rule="evenodd" fill-opacity="1" /><path clip-path="url(#clip250)" d="M1611.57 1544.91 L1627.89 1544.91 L1627.89 1548.85 L1605.95 1548.85 L1605.95 1544.91 Q1608.61 1542.16 1613.19 1537.53 Q1617.8 1532.88 1618.98 1531.53 Q1621.23 1529.01 1622.11 1527.27 Q1623.01 1525.51 1623.01 1523.82 Q1623.01 1521.07 1621.06 1519.33 Q1619.14 1517.6 1616.04 1517.6 Q1613.84 1517.6 1611.39 1518.36 Q1608.96 1519.13 1606.18 1520.68 L1606.18 1515.95 Q1609 1514.82 1611.46 1514.24 Q1613.91 1513.66 1615.95 1513.66 Q1621.32 1513.66 1624.51 1516.35 Q1627.71 1519.03 1627.71 1523.52 Q1627.71 1525.65 1626.9 1527.57 Q1626.11 1529.47 1624 1532.07 Q1623.43 1532.74 1620.32 1535.95 Q1617.22 1539.15 1611.57 1544.91 Z" fill="#000000" fill-rule="evenodd" fill-opacity="1" /><path clip-path="url(#clip250)" d="M1647.71 1517.37 Q1644.1 1517.37 1642.27 1520.93 Q1640.46 1524.47 1640.46 1531.6 Q1640.46 1538.71 1642.27 1542.27 Q1644.1 1545.82 1647.71 1545.82 Q1651.34 1545.82 1653.15 1542.27 Q1654.98 1538.71 1654.98 1531.6 Q1654.98 1524.47 1653.15 1520.93 Q1651.34 1517.37 1647.71 1517.37 M1647.71 1513.66 Q1653.52 1513.66 1656.57 1518.27 Q1659.65 1522.85 1659.65 1531.6 Q1659.65 1540.33 1656.57 1544.94 Q1653.52 1549.52 1647.71 1549.52 Q1641.9 1549.52 1638.82 1544.94 Q1635.76 1540.33 1635.76 1531.6 Q1635.76 1522.85 1638.82 1518.27 Q1641.9 1513.66 1647.71 1513.66 Z" fill="#000000" fill-rule="evenodd" fill-opacity="1" /><path clip-path="url(#clip250)" d="M1977.9 1544.91 L1994.22 1544.91 L1994.22 1548.85 L1972.28 1548.85 L1972.28 1544.91 Q1974.94 1542.16 1979.52 1537.53 Q1984.13 1532.88 1985.31 1531.53 Q1987.56 1529.01 1988.43 1527.27 Q1989.34 1525.51 1989.34 1523.82 Q1989.34 1521.07 1987.39 1519.33 Q1985.47 1517.6 1982.37 1517.6 Q1980.17 1517.6 1977.72 1518.36 Q1975.29 1519.13 1972.51 1520.68 L1972.51 1515.95 Q1975.33 1514.82 1977.79 1514.24 Q1980.24 1513.66 1982.28 1513.66 Q1987.65 1513.66 1990.84 1516.35 Q1994.04 1519.03 1994.04 1523.52 Q1994.04 1525.65 1993.23 1527.57 Q1992.44 1529.47 1990.33 1532.07 Q1989.75 1532.74 1986.65 1535.95 Q1983.55 1539.15 1977.9 1544.91 Z" fill="#000000" fill-rule="evenodd" fill-opacity="1" /><path clip-path="url(#clip250)" d="M2004.08 1514.29 L2022.44 1514.29 L2022.44 1518.22 L2008.37 1518.22 L2008.37 1526.7 Q2009.38 1526.35 2010.4 1526.19 Q2011.42 1526 2012.44 1526 Q2018.23 1526 2021.61 1529.17 Q2024.99 1532.34 2024.99 1537.76 Q2024.99 1543.34 2021.51 1546.44 Q2018.04 1549.52 2011.72 1549.52 Q2009.55 1549.52 2007.28 1549.15 Q2005.03 1548.78 2002.62 1548.04 L2002.62 1543.34 Q2004.71 1544.47 2006.93 1545.03 Q2009.15 1545.58 2011.63 1545.58 Q2015.63 1545.58 2017.97 1543.48 Q2020.31 1541.37 2020.31 1537.76 Q2020.31 1534.15 2017.97 1532.04 Q2015.63 1529.94 2011.63 1529.94 Q2009.75 1529.94 2007.88 1530.35 Q2006.03 1530.77 2004.08 1531.65 L2004.08 1514.29 Z" fill="#000000" fill-rule="evenodd" fill-opacity="1" /><polyline clip-path="url(#clip252)" style="stroke:#000000; stroke-linecap:butt; stroke-linejoin:round; stroke-width:2; stroke-opacity:0.1; fill:none" points="
  181.183,1447.87 2352.76,1447.87 
  "/>
<polyline clip-path="url(#clip252)" style="stroke:#000000; stroke-linecap:butt; stroke-linejoin:round; stroke-width:2; stroke-opacity:0.1; fill:none" points="
  181.183,963.186 2352.76,963.186 
  "/>
<polyline clip-path="url(#clip252)" style="stroke:#000000; stroke-linecap:butt; stroke-linejoin:round; stroke-width:2; stroke-opacity:0.1; fill:none" points="
  181.183,478.499 2352.76,478.499 
  "/>
<polyline clip-path="url(#clip250)" style="stroke:#000000; stroke-linecap:butt; stroke-linejoin:round; stroke-width:4; stroke-opacity:1; fill:none" points="
  181.183,1486.45 181.183,123.472 
  "/>
<polyline clip-path="url(#clip250)" style="stroke:#000000; stroke-linecap:butt; stroke-linejoin:round; stroke-width:4; stroke-opacity:1; fill:none" points="
  181.183,1447.87 200.081,1447.87 
  "/>
<polyline clip-path="url(#clip250)" style="stroke:#000000; stroke-linecap:butt; stroke-linejoin:round; stroke-width:4; stroke-opacity:1; fill:none" points="
  181.183,963.186 200.081,963.186 
  "/>
<polyline clip-path="url(#clip250)" style="stroke:#000000; stroke-linecap:butt; stroke-linejoin:round; stroke-width:4; stroke-opacity:1; fill:none" points="
  181.183,478.499 200.081,478.499 
  "/>
<path clip-path="url(#clip250)" d="M74.4772 1467.67 L82.1161 1467.67 L82.1161 1441.3 L73.806 1442.97 L73.806 1438.71 L82.0698 1437.04 L86.7457 1437.04 L86.7457 1467.67 L94.3845 1467.67 L94.3845 1471.6 L74.4772 1471.6 L74.4772 1467.67 Z" fill="#000000" fill-rule="evenodd" fill-opacity="1" /><path clip-path="url(#clip250)" d="M113.829 1440.12 Q110.218 1440.12 108.389 1443.68 Q106.584 1447.23 106.584 1454.36 Q106.584 1461.46 108.389 1465.03 Q110.218 1468.57 113.829 1468.57 Q117.463 1468.57 119.269 1465.03 Q121.097 1461.46 121.097 1454.36 Q121.097 1447.23 119.269 1443.68 Q117.463 1440.12 113.829 1440.12 M113.829 1436.42 Q119.639 1436.42 122.695 1441.02 Q125.773 1445.61 125.773 1454.36 Q125.773 1463.08 122.695 1467.69 Q119.639 1472.27 113.829 1472.27 Q108.019 1472.27 104.94 1467.69 Q101.885 1463.08 101.885 1454.36 Q101.885 1445.61 104.94 1441.02 Q108.019 1436.42 113.829 1436.42 Z" fill="#000000" fill-rule="evenodd" fill-opacity="1" /><path clip-path="url(#clip250)" d="M135.478 1418.61 Q132.544 1418.61 131.058 1421.51 Q129.591 1424.39 129.591 1430.18 Q129.591 1435.95 131.058 1438.85 Q132.544 1441.73 135.478 1441.73 Q138.431 1441.73 139.898 1438.85 Q141.384 1435.95 141.384 1430.18 Q141.384 1424.39 139.898 1421.51 Q138.431 1418.61 135.478 1418.61 M135.478 1415.6 Q140.199 1415.6 142.681 1419.35 Q145.183 1423.07 145.183 1430.18 Q145.183 1437.27 142.681 1441.01 Q140.199 1444.74 135.478 1444.74 Q130.757 1444.74 128.256 1441.01 Q125.773 1437.27 125.773 1430.18 Q125.773 1423.07 128.256 1419.35 Q130.757 1415.6 135.478 1415.6 Z" fill="#000000" fill-rule="evenodd" fill-opacity="1" /><path clip-path="url(#clip250)" d="M75.7186 982.978 L83.3574 982.978 L83.3574 956.613 L75.0473 958.279 L75.0473 954.02 L83.3111 952.354 L87.987 952.354 L87.987 982.978 L95.6259 982.978 L95.6259 986.914 L75.7186 986.914 L75.7186 982.978 Z" fill="#000000" fill-rule="evenodd" fill-opacity="1" /><path clip-path="url(#clip250)" d="M115.07 955.432 Q111.459 955.432 109.63 958.997 Q107.825 962.539 107.825 969.668 Q107.825 976.775 109.63 980.339 Q111.459 983.881 115.07 983.881 Q118.704 983.881 120.51 980.339 Q122.339 976.775 122.339 969.668 Q122.339 962.539 120.51 958.997 Q118.704 955.432 115.07 955.432 M115.07 951.729 Q120.88 951.729 123.936 956.335 Q127.015 960.918 127.015 969.668 Q127.015 978.395 123.936 983.002 Q120.88 987.585 115.07 987.585 Q109.26 987.585 106.181 983.002 Q103.126 978.395 103.126 969.668 Q103.126 960.918 106.181 956.335 Q109.26 951.729 115.07 951.729 Z" fill="#000000" fill-rule="evenodd" fill-opacity="1" /><path clip-path="url(#clip250)" d="M128.199 931.423 L143.114 931.423 L143.114 934.62 L131.679 934.62 L131.679 941.504 Q132.506 941.222 133.334 941.09 Q134.162 940.94 134.989 940.94 Q139.691 940.94 142.437 943.517 Q145.183 946.093 145.183 950.494 Q145.183 955.027 142.362 957.547 Q139.541 960.049 134.406 960.049 Q132.638 960.049 130.795 959.748 Q128.971 959.447 127.015 958.845 L127.015 955.027 Q128.707 955.948 130.513 956.4 Q132.318 956.851 134.331 956.851 Q137.585 956.851 139.484 955.14 Q141.384 953.428 141.384 950.494 Q141.384 947.56 139.484 945.849 Q137.585 944.137 134.331 944.137 Q132.807 944.137 131.284 944.476 Q129.779 944.814 128.199 945.529 L128.199 931.423 Z" fill="#000000" fill-rule="evenodd" fill-opacity="1" /><path clip-path="url(#clip250)" d="M51.6634 498.291 L59.3023 498.291 L59.3023 471.926 L50.9921 473.592 L50.9921 469.333 L59.256 467.666 L63.9319 467.666 L63.9319 498.291 L71.5707 498.291 L71.5707 502.226 L51.6634 502.226 L51.6634 498.291 Z" fill="#000000" fill-rule="evenodd" fill-opacity="1" /><path clip-path="url(#clip250)" d="M91.0151 470.745 Q87.404 470.745 85.5753 474.31 Q83.7697 477.852 83.7697 484.981 Q83.7697 492.088 85.5753 495.652 Q87.404 499.194 91.0151 499.194 Q94.6493 499.194 96.4548 495.652 Q98.2835 492.088 98.2835 484.981 Q98.2835 477.852 96.4548 474.31 Q94.6493 470.745 91.0151 470.745 M91.0151 467.041 Q96.8252 467.041 99.8808 471.648 Q102.959 476.231 102.959 484.981 Q102.959 493.708 99.8808 498.314 Q96.8252 502.898 91.0151 502.898 Q85.2049 502.898 82.1262 498.314 Q79.0707 493.708 79.0707 484.981 Q79.0707 476.231 82.1262 471.648 Q85.2049 467.041 91.0151 467.041 Z" fill="#000000" fill-rule="evenodd" fill-opacity="1" /><path clip-path="url(#clip250)" d="M103.505 471.619 L109.711 471.619 L109.711 450.197 L102.959 451.551 L102.959 448.09 L109.674 446.736 L113.473 446.736 L113.473 471.619 L119.68 471.619 L119.68 474.816 L103.505 474.816 L103.505 471.619 Z" fill="#000000" fill-rule="evenodd" fill-opacity="1" /><path clip-path="url(#clip250)" d="M135.478 449.237 Q132.544 449.237 131.058 452.134 Q129.591 455.011 129.591 460.804 Q129.591 466.578 131.058 469.475 Q132.544 472.352 135.478 472.352 Q138.431 472.352 139.898 469.475 Q141.384 466.578 141.384 460.804 Q141.384 455.011 139.898 452.134 Q138.431 449.237 135.478 449.237 M135.478 446.228 Q140.199 446.228 142.681 449.971 Q145.183 453.695 145.183 460.804 Q145.183 467.895 142.681 471.637 Q140.199 475.361 135.478 475.361 Q130.757 475.361 128.256 471.637 Q125.773 467.895 125.773 460.804 Q125.773 453.695 128.256 449.971 Q130.757 446.228 135.478 446.228 Z" fill="#000000" fill-rule="evenodd" fill-opacity="1" /><path clip-path="url(#clip250)" d="M601.77 72.576 L578.68 12.096 L587.228 12.096 L606.388 63.0159 L625.59 12.096 L634.097 12.096 L611.047 72.576 L601.77 72.576 Z" fill="#000000" fill-rule="evenodd" fill-opacity="1" /><path clip-path="url(#clip250)" d="M656.782 49.7694 Q647.748 49.7694 644.264 51.8354 Q640.781 53.9013 640.781 58.8839 Q640.781 62.8538 643.373 65.2034 Q646.006 67.5124 650.503 67.5124 Q656.701 67.5124 660.428 63.1374 Q664.195 58.7219 664.195 51.4303 L664.195 49.7694 L656.782 49.7694 M671.649 46.6907 L671.649 72.576 L664.195 72.576 L664.195 65.6895 Q661.643 69.8214 657.835 71.8063 Q654.027 73.7508 648.518 73.7508 Q641.55 73.7508 637.418 69.8619 Q633.327 65.9325 633.327 59.3701 Q633.327 51.7138 638.431 47.825 Q643.576 43.9361 653.744 43.9361 L664.195 43.9361 L664.195 43.2069 Q664.195 38.0623 660.792 35.2672 Q657.43 32.4315 651.313 32.4315 Q647.424 32.4315 643.738 33.3632 Q640.051 34.295 636.649 36.1584 L636.649 29.2718 Q640.74 27.692 644.588 26.9223 Q648.437 26.1121 652.083 26.1121 Q661.926 26.1121 666.787 31.2163 Q671.649 36.3204 671.649 46.6907 Z" fill="#000000" fill-rule="evenodd" fill-opacity="1" /><path clip-path="url(#clip250)" d="M724.715 45.1919 L724.715 72.576 L717.262 72.576 L717.262 45.4349 Q717.262 38.994 714.75 35.7938 Q712.239 32.5936 707.215 32.5936 Q701.18 32.5936 697.696 36.4419 Q694.212 40.2903 694.212 46.9338 L694.212 72.576 L686.718 72.576 L686.718 27.2059 L694.212 27.2059 L694.212 34.2544 Q696.886 30.163 700.491 28.1376 Q704.137 26.1121 708.876 26.1121 Q716.695 26.1121 720.705 30.9732 Q724.715 35.7938 724.715 45.1919 Z" fill="#000000" fill-rule="evenodd" fill-opacity="1" /><path clip-path="url(#clip250)" d="M769.437 34.0924 L769.437 9.54393 L776.891 9.54393 L776.891 72.576 L769.437 72.576 L769.437 65.7705 Q767.088 69.8214 763.483 71.8063 Q759.918 73.7508 754.895 73.7508 Q746.671 73.7508 741.486 67.1883 Q736.341 60.6258 736.341 49.9314 Q736.341 39.2371 741.486 32.6746 Q746.671 26.1121 754.895 26.1121 Q759.918 26.1121 763.483 28.0971 Q767.088 30.0415 769.437 34.0924 M744.038 49.9314 Q744.038 58.1548 747.4 62.8538 Q750.803 67.5124 756.717 67.5124 Q762.632 67.5124 766.035 62.8538 Q769.437 58.1548 769.437 49.9314 Q769.437 41.7081 766.035 37.0496 Q762.632 32.3505 756.717 32.3505 Q750.803 32.3505 747.4 37.0496 Q744.038 41.7081 744.038 49.9314 Z" fill="#000000" fill-rule="evenodd" fill-opacity="1" /><path clip-path="url(#clip250)" d="M831.052 48.0275 L831.052 51.6733 L796.781 51.6733 Q797.267 59.3701 801.399 63.421 Q805.571 67.4314 812.985 67.4314 Q817.279 67.4314 821.289 66.3781 Q825.34 65.3249 829.31 63.2184 L829.31 70.267 Q825.299 71.9684 821.086 72.8596 Q816.873 73.7508 812.539 73.7508 Q801.683 73.7508 795.323 67.4314 Q789.003 61.1119 789.003 50.3365 Q789.003 39.1965 794.999 32.6746 Q801.034 26.1121 811.243 26.1121 Q820.398 26.1121 825.704 32.0264 Q831.052 37.9003 831.052 48.0275 M823.598 45.84 Q823.517 39.7232 820.155 36.0774 Q816.833 32.4315 811.324 32.4315 Q805.085 32.4315 801.318 35.9558 Q797.591 39.4801 797.024 45.8805 L823.598 45.84 Z" fill="#000000" fill-rule="evenodd" fill-opacity="1" /><path clip-path="url(#clip250)" d="M869.576 34.1734 Q868.32 33.4443 866.821 33.1202 Q865.363 32.7556 863.58 32.7556 Q857.261 32.7556 853.858 36.8875 Q850.496 40.9789 850.496 48.6757 L850.496 72.576 L843.002 72.576 L843.002 27.2059 L850.496 27.2059 L850.496 34.2544 Q852.845 30.1225 856.613 28.1376 Q860.38 26.1121 865.768 26.1121 Q866.538 26.1121 867.469 26.2337 Q868.401 26.3147 869.535 26.5172 L869.576 34.1734 Z" fill="#000000" fill-rule="evenodd" fill-opacity="1" /><path clip-path="url(#clip250)" d="M911.259 35.9153 Q914.055 30.8922 917.943 28.5022 Q921.832 26.1121 927.099 26.1121 Q934.188 26.1121 938.036 31.0947 Q941.884 36.0368 941.884 45.1919 L941.884 72.576 L934.39 72.576 L934.39 45.4349 Q934.39 38.913 932.081 35.7533 Q929.772 32.5936 925.033 32.5936 Q919.24 32.5936 915.878 36.4419 Q912.515 40.2903 912.515 46.9338 L912.515 72.576 L905.021 72.576 L905.021 45.4349 Q905.021 38.8725 902.712 35.7533 Q900.403 32.5936 895.582 32.5936 Q889.871 32.5936 886.508 36.4824 Q883.146 40.3308 883.146 46.9338 L883.146 72.576 L875.652 72.576 L875.652 27.2059 L883.146 27.2059 L883.146 34.2544 Q885.698 30.082 889.263 28.0971 Q892.828 26.1121 897.729 26.1121 Q902.672 26.1121 906.115 28.6237 Q909.599 31.1352 911.259 35.9153 Z" fill="#000000" fill-rule="evenodd" fill-opacity="1" /><path clip-path="url(#clip250)" d="M974.332 32.4315 Q968.337 32.4315 964.853 37.1306 Q961.369 41.7891 961.369 49.9314 Q961.369 58.0738 964.812 62.7728 Q968.296 67.4314 974.332 67.4314 Q980.287 67.4314 983.771 62.7323 Q987.254 58.0333 987.254 49.9314 Q987.254 41.8701 983.771 37.1711 Q980.287 32.4315 974.332 32.4315 M974.332 26.1121 Q984.054 26.1121 989.604 32.4315 Q995.154 38.7509 995.154 49.9314 Q995.154 61.0714 989.604 67.4314 Q984.054 73.7508 974.332 73.7508 Q964.569 73.7508 959.02 67.4314 Q953.51 61.0714 953.51 49.9314 Q953.51 38.7509 959.02 32.4315 Q964.569 26.1121 974.332 26.1121 Z" fill="#000000" fill-rule="evenodd" fill-opacity="1" /><path clip-path="url(#clip250)" d="M1045.22 45.1919 L1045.22 72.576 L1037.77 72.576 L1037.77 45.4349 Q1037.77 38.994 1035.26 35.7938 Q1032.75 32.5936 1027.72 32.5936 Q1021.69 32.5936 1018.2 36.4419 Q1014.72 40.2903 1014.72 46.9338 L1014.72 72.576 L1007.23 72.576 L1007.23 27.2059 L1014.72 27.2059 L1014.72 34.2544 Q1017.39 30.163 1021 28.1376 Q1024.64 26.1121 1029.38 26.1121 Q1037.2 26.1121 1041.21 30.9732 Q1045.22 35.7938 1045.22 45.1919 Z" fill="#000000" fill-rule="evenodd" fill-opacity="1" /><path clip-path="url(#clip250)" d="M1089.94 34.0924 L1089.94 9.54393 L1097.4 9.54393 L1097.4 72.576 L1089.94 72.576 L1089.94 65.7705 Q1087.6 69.8214 1083.99 71.8063 Q1080.43 73.7508 1075.4 73.7508 Q1067.18 73.7508 1061.99 67.1883 Q1056.85 60.6258 1056.85 49.9314 Q1056.85 39.2371 1061.99 32.6746 Q1067.18 26.1121 1075.4 26.1121 Q1080.43 26.1121 1083.99 28.0971 Q1087.6 30.0415 1089.94 34.0924 M1064.55 49.9314 Q1064.55 58.1548 1067.91 62.8538 Q1071.31 67.5124 1077.23 67.5124 Q1083.14 67.5124 1086.54 62.8538 Q1089.94 58.1548 1089.94 49.9314 Q1089.94 41.7081 1086.54 37.0496 Q1083.14 32.3505 1077.23 32.3505 Q1071.31 32.3505 1067.91 37.0496 Q1064.55 41.7081 1064.55 49.9314 Z" fill="#000000" fill-rule="evenodd" fill-opacity="1" /><path clip-path="url(#clip250)" d="M1151.56 48.0275 L1151.56 51.6733 L1117.29 51.6733 Q1117.77 59.3701 1121.91 63.421 Q1126.08 67.4314 1133.49 67.4314 Q1137.79 67.4314 1141.8 66.3781 Q1145.85 65.3249 1149.82 63.2184 L1149.82 70.267 Q1145.81 71.9684 1141.59 72.8596 Q1137.38 73.7508 1133.05 73.7508 Q1122.19 73.7508 1115.83 67.4314 Q1109.51 61.1119 1109.51 50.3365 Q1109.51 39.1965 1115.51 32.6746 Q1121.54 26.1121 1131.75 26.1121 Q1140.91 26.1121 1146.21 32.0264 Q1151.56 37.9003 1151.56 48.0275 M1144.11 45.84 Q1144.02 39.7232 1140.66 36.0774 Q1137.34 32.4315 1131.83 32.4315 Q1125.59 32.4315 1121.83 35.9558 Q1118.1 39.4801 1117.53 45.8805 L1144.11 45.84 Z" fill="#000000" fill-rule="evenodd" fill-opacity="1" /><path clip-path="url(#clip250)" d="M1222.81 28.9478 L1222.81 35.9153 Q1219.65 34.1734 1216.45 33.3227 Q1213.29 32.4315 1210.05 32.4315 Q1202.8 32.4315 1198.79 37.0496 Q1194.78 41.6271 1194.78 49.9314 Q1194.78 58.2358 1198.79 62.8538 Q1202.8 67.4314 1210.05 67.4314 Q1213.29 67.4314 1216.45 66.5807 Q1219.65 65.6895 1222.81 63.9476 L1222.81 70.8341 Q1219.7 72.2924 1216.33 73.0216 Q1213.01 73.7508 1209.24 73.7508 Q1199 73.7508 1192.96 67.3098 Q1186.92 60.8689 1186.92 49.9314 Q1186.92 38.832 1193 32.472 Q1199.12 26.1121 1209.73 26.1121 Q1213.17 26.1121 1216.45 26.8413 Q1219.74 27.5299 1222.81 28.9478 Z" fill="#000000" fill-rule="evenodd" fill-opacity="1" /><path clip-path="url(#clip250)" d="M1253.36 32.4315 Q1247.36 32.4315 1243.88 37.1306 Q1240.4 41.7891 1240.4 49.9314 Q1240.4 58.0738 1243.84 62.7728 Q1247.32 67.4314 1253.36 67.4314 Q1259.31 67.4314 1262.8 62.7323 Q1266.28 58.0333 1266.28 49.9314 Q1266.28 41.8701 1262.8 37.1711 Q1259.31 32.4315 1253.36 32.4315 M1253.36 26.1121 Q1263.08 26.1121 1268.63 32.4315 Q1274.18 38.7509 1274.18 49.9314 Q1274.18 61.0714 1268.63 67.4314 Q1263.08 73.7508 1253.36 73.7508 Q1243.6 73.7508 1238.05 67.4314 Q1232.54 61.0714 1232.54 49.9314 Q1232.54 38.7509 1238.05 32.4315 Q1243.6 26.1121 1253.36 26.1121 Z" fill="#000000" fill-rule="evenodd" fill-opacity="1" /><path clip-path="url(#clip250)" d="M1324.25 45.1919 L1324.25 72.576 L1316.8 72.576 L1316.8 45.4349 Q1316.8 38.994 1314.28 35.7938 Q1311.77 32.5936 1306.75 32.5936 Q1300.71 32.5936 1297.23 36.4419 Q1293.75 40.2903 1293.75 46.9338 L1293.75 72.576 L1286.25 72.576 L1286.25 27.2059 L1293.75 27.2059 L1293.75 34.2544 Q1296.42 30.163 1300.02 28.1376 Q1303.67 26.1121 1308.41 26.1121 Q1316.23 26.1121 1320.24 30.9732 Q1324.25 35.7938 1324.25 45.1919 Z" fill="#000000" fill-rule="evenodd" fill-opacity="1" /><path clip-path="url(#clip250)" d="M1368.97 34.0924 L1368.97 9.54393 L1376.42 9.54393 L1376.42 72.576 L1368.97 72.576 L1368.97 65.7705 Q1366.62 69.8214 1363.02 71.8063 Q1359.45 73.7508 1354.43 73.7508 Q1346.21 73.7508 1341.02 67.1883 Q1335.88 60.6258 1335.88 49.9314 Q1335.88 39.2371 1341.02 32.6746 Q1346.21 26.1121 1354.43 26.1121 Q1359.45 26.1121 1363.02 28.0971 Q1366.62 30.0415 1368.97 34.0924 M1343.57 49.9314 Q1343.57 58.1548 1346.93 62.8538 Q1350.34 67.5124 1356.25 67.5124 Q1362.17 67.5124 1365.57 62.8538 Q1368.97 58.1548 1368.97 49.9314 Q1368.97 41.7081 1365.57 37.0496 Q1362.17 32.3505 1356.25 32.3505 Q1350.34 32.3505 1346.93 37.0496 Q1343.57 41.7081 1343.57 49.9314 Z" fill="#000000" fill-rule="evenodd" fill-opacity="1" /><path clip-path="url(#clip250)" d="M1391.78 27.2059 L1399.23 27.2059 L1399.23 72.576 L1391.78 72.576 L1391.78 27.2059 M1391.78 9.54393 L1399.23 9.54393 L1399.23 18.9825 L1391.78 18.9825 L1391.78 9.54393 Z" fill="#000000" fill-rule="evenodd" fill-opacity="1" /><path clip-path="url(#clip250)" d="M1422.2 14.324 L1422.2 27.2059 L1437.55 27.2059 L1437.55 32.9987 L1422.2 32.9987 L1422.2 57.6282 Q1422.2 63.1779 1423.7 64.7578 Q1425.24 66.3376 1429.9 66.3376 L1437.55 66.3376 L1437.55 72.576 L1429.9 72.576 Q1421.27 72.576 1417.99 69.3758 Q1414.71 66.1351 1414.71 57.6282 L1414.71 32.9987 L1409.24 32.9987 L1409.24 27.2059 L1414.71 27.2059 L1414.71 14.324 L1422.2 14.324 Z" fill="#000000" fill-rule="evenodd" fill-opacity="1" /><path clip-path="url(#clip250)" d="M1447.36 27.2059 L1454.81 27.2059 L1454.81 72.576 L1447.36 72.576 L1447.36 27.2059 M1447.36 9.54393 L1454.81 9.54393 L1454.81 18.9825 L1447.36 18.9825 L1447.36 9.54393 Z" fill="#000000" fill-rule="evenodd" fill-opacity="1" /><path clip-path="url(#clip250)" d="M1487.99 32.4315 Q1481.99 32.4315 1478.51 37.1306 Q1475.02 41.7891 1475.02 49.9314 Q1475.02 58.0738 1478.47 62.7728 Q1481.95 67.4314 1487.99 67.4314 Q1493.94 67.4314 1497.43 62.7323 Q1500.91 58.0333 1500.91 49.9314 Q1500.91 41.8701 1497.43 37.1711 Q1493.94 32.4315 1487.99 32.4315 M1487.99 26.1121 Q1497.71 26.1121 1503.26 32.4315 Q1508.81 38.7509 1508.81 49.9314 Q1508.81 61.0714 1503.26 67.4314 Q1497.71 73.7508 1487.99 73.7508 Q1478.22 73.7508 1472.67 67.4314 Q1467.17 61.0714 1467.17 49.9314 Q1467.17 38.7509 1472.67 32.4315 Q1478.22 26.1121 1487.99 26.1121 Z" fill="#000000" fill-rule="evenodd" fill-opacity="1" /><path clip-path="url(#clip250)" d="M1558.88 45.1919 L1558.88 72.576 L1551.42 72.576 L1551.42 45.4349 Q1551.42 38.994 1548.91 35.7938 Q1546.4 32.5936 1541.38 32.5936 Q1535.34 32.5936 1531.86 36.4419 Q1528.37 40.2903 1528.37 46.9338 L1528.37 72.576 L1520.88 72.576 L1520.88 27.2059 L1528.37 27.2059 L1528.37 34.2544 Q1531.05 30.163 1534.65 28.1376 Q1538.3 26.1121 1543.04 26.1121 Q1550.86 26.1121 1554.87 30.9732 Q1558.88 35.7938 1558.88 45.1919 Z" fill="#000000" fill-rule="evenodd" fill-opacity="1" /><path clip-path="url(#clip250)" d="M1637.83 45.1919 L1637.83 72.576 L1630.38 72.576 L1630.38 45.4349 Q1630.38 38.994 1627.86 35.7938 Q1625.35 32.5936 1620.33 32.5936 Q1614.29 32.5936 1610.81 36.4419 Q1607.33 40.2903 1607.33 46.9338 L1607.33 72.576 L1599.83 72.576 L1599.83 27.2059 L1607.33 27.2059 L1607.33 34.2544 Q1610 30.163 1613.61 28.1376 Q1617.25 26.1121 1621.99 26.1121 Q1629.81 26.1121 1633.82 30.9732 Q1637.83 35.7938 1637.83 45.1919 Z" fill="#000000" fill-rule="evenodd" fill-opacity="1" /><path clip-path="url(#clip250)" d="M1651.93 54.671 L1651.93 27.2059 L1659.38 27.2059 L1659.38 54.3874 Q1659.38 60.8284 1661.89 64.0691 Q1664.4 67.2693 1669.43 67.2693 Q1675.46 67.2693 1678.95 63.421 Q1682.47 59.5726 1682.47 52.9291 L1682.47 27.2059 L1689.92 27.2059 L1689.92 72.576 L1682.47 72.576 L1682.47 65.6084 Q1679.76 69.7404 1676.15 71.7658 Q1672.59 73.7508 1667.85 73.7508 Q1660.03 73.7508 1655.98 68.8897 Q1651.93 64.0286 1651.93 54.671 M1670.68 26.1121 L1670.68 26.1121 Z" fill="#000000" fill-rule="evenodd" fill-opacity="1" /><path clip-path="url(#clip250)" d="M1740.6 35.9153 Q1743.4 30.8922 1747.29 28.5022 Q1751.17 26.1121 1756.44 26.1121 Q1763.53 26.1121 1767.38 31.0947 Q1771.23 36.0368 1771.23 45.1919 L1771.23 72.576 L1763.73 72.576 L1763.73 45.4349 Q1763.73 38.913 1761.42 35.7533 Q1759.11 32.5936 1754.37 32.5936 Q1748.58 32.5936 1745.22 36.4419 Q1741.86 40.2903 1741.86 46.9338 L1741.86 72.576 L1734.36 72.576 L1734.36 45.4349 Q1734.36 38.8725 1732.05 35.7533 Q1729.74 32.5936 1724.92 32.5936 Q1719.21 32.5936 1715.85 36.4824 Q1712.49 40.3308 1712.49 46.9338 L1712.49 72.576 L1704.99 72.576 L1704.99 27.2059 L1712.49 27.2059 L1712.49 34.2544 Q1715.04 30.082 1718.6 28.0971 Q1722.17 26.1121 1727.07 26.1121 Q1732.01 26.1121 1735.46 28.6237 Q1738.94 31.1352 1740.6 35.9153 Z" fill="#000000" fill-rule="evenodd" fill-opacity="1" /><path clip-path="url(#clip250)" d="M1818.66 49.9314 Q1818.66 41.7081 1815.26 37.0496 Q1811.9 32.3505 1805.98 32.3505 Q1800.07 32.3505 1796.67 37.0496 Q1793.3 41.7081 1793.3 49.9314 Q1793.3 58.1548 1796.67 62.8538 Q1800.07 67.5124 1805.98 67.5124 Q1811.9 67.5124 1815.26 62.8538 Q1818.66 58.1548 1818.66 49.9314 M1793.3 34.0924 Q1795.65 30.0415 1799.22 28.0971 Q1802.82 26.1121 1807.81 26.1121 Q1816.07 26.1121 1821.21 32.6746 Q1826.4 39.2371 1826.4 49.9314 Q1826.4 60.6258 1821.21 67.1883 Q1816.07 73.7508 1807.81 73.7508 Q1802.82 73.7508 1799.22 71.8063 Q1795.65 69.8214 1793.3 65.7705 L1793.3 72.576 L1785.81 72.576 L1785.81 9.54393 L1793.3 9.54393 L1793.3 34.0924 Z" fill="#000000" fill-rule="evenodd" fill-opacity="1" /><path clip-path="url(#clip250)" d="M1877.56 48.0275 L1877.56 51.6733 L1843.29 51.6733 Q1843.78 59.3701 1847.91 63.421 Q1852.08 67.4314 1859.5 67.4314 Q1863.79 67.4314 1867.8 66.3781 Q1871.85 65.3249 1875.82 63.2184 L1875.82 70.267 Q1871.81 71.9684 1867.6 72.8596 Q1863.38 73.7508 1859.05 73.7508 Q1848.19 73.7508 1841.83 67.4314 Q1835.51 61.1119 1835.51 50.3365 Q1835.51 39.1965 1841.51 32.6746 Q1847.54 26.1121 1857.75 26.1121 Q1866.91 26.1121 1872.21 32.0264 Q1877.56 37.9003 1877.56 48.0275 M1870.11 45.84 Q1870.03 39.7232 1866.67 36.0774 Q1863.34 32.4315 1857.83 32.4315 Q1851.6 32.4315 1847.83 35.9558 Q1844.1 39.4801 1843.53 45.8805 L1870.11 45.84 Z" fill="#000000" fill-rule="evenodd" fill-opacity="1" /><path clip-path="url(#clip250)" d="M1916.09 34.1734 Q1914.83 33.4443 1913.33 33.1202 Q1911.87 32.7556 1910.09 32.7556 Q1903.77 32.7556 1900.37 36.8875 Q1897.01 40.9789 1897.01 48.6757 L1897.01 72.576 L1889.51 72.576 L1889.51 27.2059 L1897.01 27.2059 L1897.01 34.2544 Q1899.36 30.1225 1903.12 28.1376 Q1906.89 26.1121 1912.28 26.1121 Q1913.05 26.1121 1913.98 26.2337 Q1914.91 26.3147 1916.05 26.5172 L1916.09 34.1734 Z" fill="#000000" fill-rule="evenodd" fill-opacity="1" /><path clip-path="url(#clip250)" d="M1952.83 28.5427 L1952.83 35.5912 Q1949.67 33.9709 1946.27 33.1607 Q1942.86 32.3505 1939.22 32.3505 Q1933.67 32.3505 1930.87 34.0519 Q1928.12 35.7533 1928.12 39.156 Q1928.12 41.7486 1930.1 43.2475 Q1932.09 44.7058 1938.08 46.0426 L1940.63 46.6097 Q1948.57 48.3111 1951.9 51.4303 Q1955.26 54.509 1955.26 60.0587 Q1955.26 66.3781 1950.24 70.0644 Q1945.25 73.7508 1936.5 73.7508 Q1932.86 73.7508 1928.89 73.0216 Q1924.96 72.3329 1920.58 70.9151 L1920.58 63.2184 Q1924.71 65.3654 1928.73 66.4591 Q1932.74 67.5124 1936.66 67.5124 Q1941.93 67.5124 1944.77 65.73 Q1947.6 63.9071 1947.6 60.6258 Q1947.6 57.5877 1945.54 55.9673 Q1943.51 54.3469 1936.58 52.8481 L1933.99 52.2405 Q1927.06 50.7821 1923.99 47.7845 Q1920.91 44.7463 1920.91 39.4801 Q1920.91 33.0797 1925.44 29.5959 Q1929.98 26.1121 1938.33 26.1121 Q1942.46 26.1121 1946.1 26.7198 Q1949.75 27.3274 1952.83 28.5427 Z" fill="#000000" fill-rule="evenodd" fill-opacity="1" /><polyline clip-path="url(#clip252)" style="stroke:#009af9; stroke-linecap:butt; stroke-linejoin:round; stroke-width:12; stroke-opacity:1; fill:none" points="
  242.642,1447.87 315.809,1398.57 388.975,1360.27 462.141,1314.91 535.307,1272.9 608.474,1227.02 681.64,1183.37 754.806,1137.13 827.972,1092.57 901.138,1046.1 
  974.305,1000.97 1047.47,954.338 1120.64,908.814 1193.8,862.052 1266.97,816.241 1340.14,769.382 1413.3,723.351 1486.47,676.415 1559.63,630.21 1632.8,583.211 
  1705.97,536.867 1779.13,489.814 1852.3,443.354 1925.47,396.257 1998.63,349.701 2071.8,302.564 2144.96,255.926 2218.13,208.756 2291.3,162.047 
  "/>
<line clip-path="url(#clip252)" x1="242.642" y1="1447.87" x2="242.642" y2="1431.87" style="stroke:#009af9; stroke-width:3.2; stroke-opacity:1"/>
<line clip-path="url(#clip252)" x1="242.642" y1="1447.87" x2="226.642" y2="1447.87" style="stroke:#009af9; stroke-width:3.2; stroke-opacity:1"/>
<line clip-path="url(#clip252)" x1="242.642" y1="1447.87" x2="242.642" y2="1463.87" style="stroke:#009af9; stroke-width:3.2; stroke-opacity:1"/>
<line clip-path="url(#clip252)" x1="242.642" y1="1447.87" x2="258.642" y2="1447.87" style="stroke:#009af9; stroke-width:3.2; stroke-opacity:1"/>
<line clip-path="url(#clip252)" x1="315.809" y1="1398.57" x2="315.809" y2="1382.57" style="stroke:#009af9; stroke-width:3.2; stroke-opacity:1"/>
<line clip-path="url(#clip252)" x1="315.809" y1="1398.57" x2="299.809" y2="1398.57" style="stroke:#009af9; stroke-width:3.2; stroke-opacity:1"/>
<line clip-path="url(#clip252)" x1="315.809" y1="1398.57" x2="315.809" y2="1414.57" style="stroke:#009af9; stroke-width:3.2; stroke-opacity:1"/>
<line clip-path="url(#clip252)" x1="315.809" y1="1398.57" x2="331.809" y2="1398.57" style="stroke:#009af9; stroke-width:3.2; stroke-opacity:1"/>
<line clip-path="url(#clip252)" x1="388.975" y1="1360.27" x2="388.975" y2="1344.27" style="stroke:#009af9; stroke-width:3.2; stroke-opacity:1"/>
<line clip-path="url(#clip252)" x1="388.975" y1="1360.27" x2="372.975" y2="1360.27" style="stroke:#009af9; stroke-width:3.2; stroke-opacity:1"/>
<line clip-path="url(#clip252)" x1="388.975" y1="1360.27" x2="388.975" y2="1376.27" style="stroke:#009af9; stroke-width:3.2; stroke-opacity:1"/>
<line clip-path="url(#clip252)" x1="388.975" y1="1360.27" x2="404.975" y2="1360.27" style="stroke:#009af9; stroke-width:3.2; stroke-opacity:1"/>
<line clip-path="url(#clip252)" x1="462.141" y1="1314.91" x2="462.141" y2="1298.91" style="stroke:#009af9; stroke-width:3.2; stroke-opacity:1"/>
<line clip-path="url(#clip252)" x1="462.141" y1="1314.91" x2="446.141" y2="1314.91" style="stroke:#009af9; stroke-width:3.2; stroke-opacity:1"/>
<line clip-path="url(#clip252)" x1="462.141" y1="1314.91" x2="462.141" y2="1330.91" style="stroke:#009af9; stroke-width:3.2; stroke-opacity:1"/>
<line clip-path="url(#clip252)" x1="462.141" y1="1314.91" x2="478.141" y2="1314.91" style="stroke:#009af9; stroke-width:3.2; stroke-opacity:1"/>
<line clip-path="url(#clip252)" x1="535.307" y1="1272.9" x2="535.307" y2="1256.9" style="stroke:#009af9; stroke-width:3.2; stroke-opacity:1"/>
<line clip-path="url(#clip252)" x1="535.307" y1="1272.9" x2="519.307" y2="1272.9" style="stroke:#009af9; stroke-width:3.2; stroke-opacity:1"/>
<line clip-path="url(#clip252)" x1="535.307" y1="1272.9" x2="535.307" y2="1288.9" style="stroke:#009af9; stroke-width:3.2; stroke-opacity:1"/>
<line clip-path="url(#clip252)" x1="535.307" y1="1272.9" x2="551.307" y2="1272.9" style="stroke:#009af9; stroke-width:3.2; stroke-opacity:1"/>
<line clip-path="url(#clip252)" x1="608.474" y1="1227.02" x2="608.474" y2="1211.02" style="stroke:#009af9; stroke-width:3.2; stroke-opacity:1"/>
<line clip-path="url(#clip252)" x1="608.474" y1="1227.02" x2="592.474" y2="1227.02" style="stroke:#009af9; stroke-width:3.2; stroke-opacity:1"/>
<line clip-path="url(#clip252)" x1="608.474" y1="1227.02" x2="608.474" y2="1243.02" style="stroke:#009af9; stroke-width:3.2; stroke-opacity:1"/>
<line clip-path="url(#clip252)" x1="608.474" y1="1227.02" x2="624.474" y2="1227.02" style="stroke:#009af9; stroke-width:3.2; stroke-opacity:1"/>
<line clip-path="url(#clip252)" x1="681.64" y1="1183.37" x2="681.64" y2="1167.37" style="stroke:#009af9; stroke-width:3.2; stroke-opacity:1"/>
<line clip-path="url(#clip252)" x1="681.64" y1="1183.37" x2="665.64" y2="1183.37" style="stroke:#009af9; stroke-width:3.2; stroke-opacity:1"/>
<line clip-path="url(#clip252)" x1="681.64" y1="1183.37" x2="681.64" y2="1199.37" style="stroke:#009af9; stroke-width:3.2; stroke-opacity:1"/>
<line clip-path="url(#clip252)" x1="681.64" y1="1183.37" x2="697.64" y2="1183.37" style="stroke:#009af9; stroke-width:3.2; stroke-opacity:1"/>
<line clip-path="url(#clip252)" x1="754.806" y1="1137.13" x2="754.806" y2="1121.13" style="stroke:#009af9; stroke-width:3.2; stroke-opacity:1"/>
<line clip-path="url(#clip252)" x1="754.806" y1="1137.13" x2="738.806" y2="1137.13" style="stroke:#009af9; stroke-width:3.2; stroke-opacity:1"/>
<line clip-path="url(#clip252)" x1="754.806" y1="1137.13" x2="754.806" y2="1153.13" style="stroke:#009af9; stroke-width:3.2; stroke-opacity:1"/>
<line clip-path="url(#clip252)" x1="754.806" y1="1137.13" x2="770.806" y2="1137.13" style="stroke:#009af9; stroke-width:3.2; stroke-opacity:1"/>
<line clip-path="url(#clip252)" x1="827.972" y1="1092.57" x2="827.972" y2="1076.57" style="stroke:#009af9; stroke-width:3.2; stroke-opacity:1"/>
<line clip-path="url(#clip252)" x1="827.972" y1="1092.57" x2="811.972" y2="1092.57" style="stroke:#009af9; stroke-width:3.2; stroke-opacity:1"/>
<line clip-path="url(#clip252)" x1="827.972" y1="1092.57" x2="827.972" y2="1108.57" style="stroke:#009af9; stroke-width:3.2; stroke-opacity:1"/>
<line clip-path="url(#clip252)" x1="827.972" y1="1092.57" x2="843.972" y2="1092.57" style="stroke:#009af9; stroke-width:3.2; stroke-opacity:1"/>
<line clip-path="url(#clip252)" x1="901.138" y1="1046.1" x2="901.138" y2="1030.1" style="stroke:#009af9; stroke-width:3.2; stroke-opacity:1"/>
<line clip-path="url(#clip252)" x1="901.138" y1="1046.1" x2="885.138" y2="1046.1" style="stroke:#009af9; stroke-width:3.2; stroke-opacity:1"/>
<line clip-path="url(#clip252)" x1="901.138" y1="1046.1" x2="901.138" y2="1062.1" style="stroke:#009af9; stroke-width:3.2; stroke-opacity:1"/>
<line clip-path="url(#clip252)" x1="901.138" y1="1046.1" x2="917.138" y2="1046.1" style="stroke:#009af9; stroke-width:3.2; stroke-opacity:1"/>
<line clip-path="url(#clip252)" x1="974.305" y1="1000.97" x2="974.305" y2="984.974" style="stroke:#009af9; stroke-width:3.2; stroke-opacity:1"/>
<line clip-path="url(#clip252)" x1="974.305" y1="1000.97" x2="958.305" y2="1000.97" style="stroke:#009af9; stroke-width:3.2; stroke-opacity:1"/>
<line clip-path="url(#clip252)" x1="974.305" y1="1000.97" x2="974.305" y2="1016.97" style="stroke:#009af9; stroke-width:3.2; stroke-opacity:1"/>
<line clip-path="url(#clip252)" x1="974.305" y1="1000.97" x2="990.305" y2="1000.97" style="stroke:#009af9; stroke-width:3.2; stroke-opacity:1"/>
<line clip-path="url(#clip252)" x1="1047.47" y1="954.338" x2="1047.47" y2="938.338" style="stroke:#009af9; stroke-width:3.2; stroke-opacity:1"/>
<line clip-path="url(#clip252)" x1="1047.47" y1="954.338" x2="1031.47" y2="954.338" style="stroke:#009af9; stroke-width:3.2; stroke-opacity:1"/>
<line clip-path="url(#clip252)" x1="1047.47" y1="954.338" x2="1047.47" y2="970.338" style="stroke:#009af9; stroke-width:3.2; stroke-opacity:1"/>
<line clip-path="url(#clip252)" x1="1047.47" y1="954.338" x2="1063.47" y2="954.338" style="stroke:#009af9; stroke-width:3.2; stroke-opacity:1"/>
<line clip-path="url(#clip252)" x1="1120.64" y1="908.814" x2="1120.64" y2="892.814" style="stroke:#009af9; stroke-width:3.2; stroke-opacity:1"/>
<line clip-path="url(#clip252)" x1="1120.64" y1="908.814" x2="1104.64" y2="908.814" style="stroke:#009af9; stroke-width:3.2; stroke-opacity:1"/>
<line clip-path="url(#clip252)" x1="1120.64" y1="908.814" x2="1120.64" y2="924.814" style="stroke:#009af9; stroke-width:3.2; stroke-opacity:1"/>
<line clip-path="url(#clip252)" x1="1120.64" y1="908.814" x2="1136.64" y2="908.814" style="stroke:#009af9; stroke-width:3.2; stroke-opacity:1"/>
<line clip-path="url(#clip252)" x1="1193.8" y1="862.052" x2="1193.8" y2="846.052" style="stroke:#009af9; stroke-width:3.2; stroke-opacity:1"/>
<line clip-path="url(#clip252)" x1="1193.8" y1="862.052" x2="1177.8" y2="862.052" style="stroke:#009af9; stroke-width:3.2; stroke-opacity:1"/>
<line clip-path="url(#clip252)" x1="1193.8" y1="862.052" x2="1193.8" y2="878.052" style="stroke:#009af9; stroke-width:3.2; stroke-opacity:1"/>
<line clip-path="url(#clip252)" x1="1193.8" y1="862.052" x2="1209.8" y2="862.052" style="stroke:#009af9; stroke-width:3.2; stroke-opacity:1"/>
<line clip-path="url(#clip252)" x1="1266.97" y1="816.241" x2="1266.97" y2="800.241" style="stroke:#009af9; stroke-width:3.2; stroke-opacity:1"/>
<line clip-path="url(#clip252)" x1="1266.97" y1="816.241" x2="1250.97" y2="816.241" style="stroke:#009af9; stroke-width:3.2; stroke-opacity:1"/>
<line clip-path="url(#clip252)" x1="1266.97" y1="816.241" x2="1266.97" y2="832.241" style="stroke:#009af9; stroke-width:3.2; stroke-opacity:1"/>
<line clip-path="url(#clip252)" x1="1266.97" y1="816.241" x2="1282.97" y2="816.241" style="stroke:#009af9; stroke-width:3.2; stroke-opacity:1"/>
<line clip-path="url(#clip252)" x1="1340.14" y1="769.382" x2="1340.14" y2="753.382" style="stroke:#009af9; stroke-width:3.2; stroke-opacity:1"/>
<line clip-path="url(#clip252)" x1="1340.14" y1="769.382" x2="1324.14" y2="769.382" style="stroke:#009af9; stroke-width:3.2; stroke-opacity:1"/>
<line clip-path="url(#clip252)" x1="1340.14" y1="769.382" x2="1340.14" y2="785.382" style="stroke:#009af9; stroke-width:3.2; stroke-opacity:1"/>
<line clip-path="url(#clip252)" x1="1340.14" y1="769.382" x2="1356.14" y2="769.382" style="stroke:#009af9; stroke-width:3.2; stroke-opacity:1"/>
<line clip-path="url(#clip252)" x1="1413.3" y1="723.351" x2="1413.3" y2="707.351" style="stroke:#009af9; stroke-width:3.2; stroke-opacity:1"/>
<line clip-path="url(#clip252)" x1="1413.3" y1="723.351" x2="1397.3" y2="723.351" style="stroke:#009af9; stroke-width:3.2; stroke-opacity:1"/>
<line clip-path="url(#clip252)" x1="1413.3" y1="723.351" x2="1413.3" y2="739.351" style="stroke:#009af9; stroke-width:3.2; stroke-opacity:1"/>
<line clip-path="url(#clip252)" x1="1413.3" y1="723.351" x2="1429.3" y2="723.351" style="stroke:#009af9; stroke-width:3.2; stroke-opacity:1"/>
<line clip-path="url(#clip252)" x1="1486.47" y1="676.415" x2="1486.47" y2="660.415" style="stroke:#009af9; stroke-width:3.2; stroke-opacity:1"/>
<line clip-path="url(#clip252)" x1="1486.47" y1="676.415" x2="1470.47" y2="676.415" style="stroke:#009af9; stroke-width:3.2; stroke-opacity:1"/>
<line clip-path="url(#clip252)" x1="1486.47" y1="676.415" x2="1486.47" y2="692.415" style="stroke:#009af9; stroke-width:3.2; stroke-opacity:1"/>
<line clip-path="url(#clip252)" x1="1486.47" y1="676.415" x2="1502.47" y2="676.415" style="stroke:#009af9; stroke-width:3.2; stroke-opacity:1"/>
<line clip-path="url(#clip252)" x1="1559.63" y1="630.21" x2="1559.63" y2="614.21" style="stroke:#009af9; stroke-width:3.2; stroke-opacity:1"/>
<line clip-path="url(#clip252)" x1="1559.63" y1="630.21" x2="1543.63" y2="630.21" style="stroke:#009af9; stroke-width:3.2; stroke-opacity:1"/>
<line clip-path="url(#clip252)" x1="1559.63" y1="630.21" x2="1559.63" y2="646.21" style="stroke:#009af9; stroke-width:3.2; stroke-opacity:1"/>
<line clip-path="url(#clip252)" x1="1559.63" y1="630.21" x2="1575.63" y2="630.21" style="stroke:#009af9; stroke-width:3.2; stroke-opacity:1"/>
<line clip-path="url(#clip252)" x1="1632.8" y1="583.211" x2="1632.8" y2="567.211" style="stroke:#009af9; stroke-width:3.2; stroke-opacity:1"/>
<line clip-path="url(#clip252)" x1="1632.8" y1="583.211" x2="1616.8" y2="583.211" style="stroke:#009af9; stroke-width:3.2; stroke-opacity:1"/>
<line clip-path="url(#clip252)" x1="1632.8" y1="583.211" x2="1632.8" y2="599.211" style="stroke:#009af9; stroke-width:3.2; stroke-opacity:1"/>
<line clip-path="url(#clip252)" x1="1632.8" y1="583.211" x2="1648.8" y2="583.211" style="stroke:#009af9; stroke-width:3.2; stroke-opacity:1"/>
<line clip-path="url(#clip252)" x1="1705.97" y1="536.867" x2="1705.97" y2="520.867" style="stroke:#009af9; stroke-width:3.2; stroke-opacity:1"/>
<line clip-path="url(#clip252)" x1="1705.97" y1="536.867" x2="1689.97" y2="536.867" style="stroke:#009af9; stroke-width:3.2; stroke-opacity:1"/>
<line clip-path="url(#clip252)" x1="1705.97" y1="536.867" x2="1705.97" y2="552.867" style="stroke:#009af9; stroke-width:3.2; stroke-opacity:1"/>
<line clip-path="url(#clip252)" x1="1705.97" y1="536.867" x2="1721.97" y2="536.867" style="stroke:#009af9; stroke-width:3.2; stroke-opacity:1"/>
<line clip-path="url(#clip252)" x1="1779.13" y1="489.814" x2="1779.13" y2="473.814" style="stroke:#009af9; stroke-width:3.2; stroke-opacity:1"/>
<line clip-path="url(#clip252)" x1="1779.13" y1="489.814" x2="1763.13" y2="489.814" style="stroke:#009af9; stroke-width:3.2; stroke-opacity:1"/>
<line clip-path="url(#clip252)" x1="1779.13" y1="489.814" x2="1779.13" y2="505.814" style="stroke:#009af9; stroke-width:3.2; stroke-opacity:1"/>
<line clip-path="url(#clip252)" x1="1779.13" y1="489.814" x2="1795.13" y2="489.814" style="stroke:#009af9; stroke-width:3.2; stroke-opacity:1"/>
<line clip-path="url(#clip252)" x1="1852.3" y1="443.354" x2="1852.3" y2="427.354" style="stroke:#009af9; stroke-width:3.2; stroke-opacity:1"/>
<line clip-path="url(#clip252)" x1="1852.3" y1="443.354" x2="1836.3" y2="443.354" style="stroke:#009af9; stroke-width:3.2; stroke-opacity:1"/>
<line clip-path="url(#clip252)" x1="1852.3" y1="443.354" x2="1852.3" y2="459.354" style="stroke:#009af9; stroke-width:3.2; stroke-opacity:1"/>
<line clip-path="url(#clip252)" x1="1852.3" y1="443.354" x2="1868.3" y2="443.354" style="stroke:#009af9; stroke-width:3.2; stroke-opacity:1"/>
<line clip-path="url(#clip252)" x1="1925.47" y1="396.257" x2="1925.47" y2="380.257" style="stroke:#009af9; stroke-width:3.2; stroke-opacity:1"/>
<line clip-path="url(#clip252)" x1="1925.47" y1="396.257" x2="1909.47" y2="396.257" style="stroke:#009af9; stroke-width:3.2; stroke-opacity:1"/>
<line clip-path="url(#clip252)" x1="1925.47" y1="396.257" x2="1925.47" y2="412.257" style="stroke:#009af9; stroke-width:3.2; stroke-opacity:1"/>
<line clip-path="url(#clip252)" x1="1925.47" y1="396.257" x2="1941.47" y2="396.257" style="stroke:#009af9; stroke-width:3.2; stroke-opacity:1"/>
<line clip-path="url(#clip252)" x1="1998.63" y1="349.701" x2="1998.63" y2="333.701" style="stroke:#009af9; stroke-width:3.2; stroke-opacity:1"/>
<line clip-path="url(#clip252)" x1="1998.63" y1="349.701" x2="1982.63" y2="349.701" style="stroke:#009af9; stroke-width:3.2; stroke-opacity:1"/>
<line clip-path="url(#clip252)" x1="1998.63" y1="349.701" x2="1998.63" y2="365.701" style="stroke:#009af9; stroke-width:3.2; stroke-opacity:1"/>
<line clip-path="url(#clip252)" x1="1998.63" y1="349.701" x2="2014.63" y2="349.701" style="stroke:#009af9; stroke-width:3.2; stroke-opacity:1"/>
<line clip-path="url(#clip252)" x1="2071.8" y1="302.564" x2="2071.8" y2="286.564" style="stroke:#009af9; stroke-width:3.2; stroke-opacity:1"/>
<line clip-path="url(#clip252)" x1="2071.8" y1="302.564" x2="2055.8" y2="302.564" style="stroke:#009af9; stroke-width:3.2; stroke-opacity:1"/>
<line clip-path="url(#clip252)" x1="2071.8" y1="302.564" x2="2071.8" y2="318.564" style="stroke:#009af9; stroke-width:3.2; stroke-opacity:1"/>
<line clip-path="url(#clip252)" x1="2071.8" y1="302.564" x2="2087.8" y2="302.564" style="stroke:#009af9; stroke-width:3.2; stroke-opacity:1"/>
<line clip-path="url(#clip252)" x1="2144.96" y1="255.926" x2="2144.96" y2="239.926" style="stroke:#009af9; stroke-width:3.2; stroke-opacity:1"/>
<line clip-path="url(#clip252)" x1="2144.96" y1="255.926" x2="2128.96" y2="255.926" style="stroke:#009af9; stroke-width:3.2; stroke-opacity:1"/>
<line clip-path="url(#clip252)" x1="2144.96" y1="255.926" x2="2144.96" y2="271.926" style="stroke:#009af9; stroke-width:3.2; stroke-opacity:1"/>
<line clip-path="url(#clip252)" x1="2144.96" y1="255.926" x2="2160.96" y2="255.926" style="stroke:#009af9; stroke-width:3.2; stroke-opacity:1"/>
<line clip-path="url(#clip252)" x1="2218.13" y1="208.756" x2="2218.13" y2="192.756" style="stroke:#009af9; stroke-width:3.2; stroke-opacity:1"/>
<line clip-path="url(#clip252)" x1="2218.13" y1="208.756" x2="2202.13" y2="208.756" style="stroke:#009af9; stroke-width:3.2; stroke-opacity:1"/>
<line clip-path="url(#clip252)" x1="2218.13" y1="208.756" x2="2218.13" y2="224.756" style="stroke:#009af9; stroke-width:3.2; stroke-opacity:1"/>
<line clip-path="url(#clip252)" x1="2218.13" y1="208.756" x2="2234.13" y2="208.756" style="stroke:#009af9; stroke-width:3.2; stroke-opacity:1"/>
<line clip-path="url(#clip252)" x1="2291.3" y1="162.047" x2="2291.3" y2="146.047" style="stroke:#009af9; stroke-width:3.2; stroke-opacity:1"/>
<line clip-path="url(#clip252)" x1="2291.3" y1="162.047" x2="2275.3" y2="162.047" style="stroke:#009af9; stroke-width:3.2; stroke-opacity:1"/>
<line clip-path="url(#clip252)" x1="2291.3" y1="162.047" x2="2291.3" y2="178.047" style="stroke:#009af9; stroke-width:3.2; stroke-opacity:1"/>
<line clip-path="url(#clip252)" x1="2291.3" y1="162.047" x2="2307.3" y2="162.047" style="stroke:#009af9; stroke-width:3.2; stroke-opacity:1"/>
<polyline clip-path="url(#clip252)" style="stroke:#e26f46; stroke-linecap:butt; stroke-linejoin:round; stroke-width:12; stroke-opacity:1; fill:none" points="
  242.642,1447.87 315.809,1398.57 388.975,1367.8 462.141,1329.88 535.307,1295.92 608.474,1258.17 681.64,1223.24 754.806,1185.56 827.972,1150.12 901.138,1112.5 
  974.305,1076.73 1047.47,1039.15 1120.64,1003.16 1193.8,965.624 1266.97,929.473 1340.14,891.97 1413.3,855.697 1486.47,818.223 1559.63,781.856 1632.8,744.406 
  1705.97,707.963 1779.13,670.534 1852.3,634.029 1925.47,596.62 1998.63,560.063 2071.8,522.67 2144.96,486.069 2218.13,448.692 2291.3,412.054 
  "/>
<circle clip-path="url(#clip252)" cx="242.642" cy="1447.87" r="14.4" fill="#e26f46" fill-rule="evenodd" fill-opacity="1" stroke="#000000" stroke-opacity="1" stroke-width="3.2"/>
<circle clip-path="url(#clip252)" cx="315.809" cy="1398.57" r="14.4" fill="#e26f46" fill-rule="evenodd" fill-opacity="1" stroke="#000000" stroke-opacity="1" stroke-width="3.2"/>
<circle clip-path="url(#clip252)" cx="388.975" cy="1367.8" r="14.4" fill="#e26f46" fill-rule="evenodd" fill-opacity="1" stroke="#000000" stroke-opacity="1" stroke-width="3.2"/>
<circle clip-path="url(#clip252)" cx="462.141" cy="1329.88" r="14.4" fill="#e26f46" fill-rule="evenodd" fill-opacity="1" stroke="#000000" stroke-opacity="1" stroke-width="3.2"/>
<circle clip-path="url(#clip252)" cx="535.307" cy="1295.92" r="14.4" fill="#e26f46" fill-rule="evenodd" fill-opacity="1" stroke="#000000" stroke-opacity="1" stroke-width="3.2"/>
<circle clip-path="url(#clip252)" cx="608.474" cy="1258.17" r="14.4" fill="#e26f46" fill-rule="evenodd" fill-opacity="1" stroke="#000000" stroke-opacity="1" stroke-width="3.2"/>
<circle clip-path="url(#clip252)" cx="681.64" cy="1223.24" r="14.4" fill="#e26f46" fill-rule="evenodd" fill-opacity="1" stroke="#000000" stroke-opacity="1" stroke-width="3.2"/>
<circle clip-path="url(#clip252)" cx="754.806" cy="1185.56" r="14.4" fill="#e26f46" fill-rule="evenodd" fill-opacity="1" stroke="#000000" stroke-opacity="1" stroke-width="3.2"/>
<circle clip-path="url(#clip252)" cx="827.972" cy="1150.12" r="14.4" fill="#e26f46" fill-rule="evenodd" fill-opacity="1" stroke="#000000" stroke-opacity="1" stroke-width="3.2"/>
<circle clip-path="url(#clip252)" cx="901.138" cy="1112.5" r="14.4" fill="#e26f46" fill-rule="evenodd" fill-opacity="1" stroke="#000000" stroke-opacity="1" stroke-width="3.2"/>
<circle clip-path="url(#clip252)" cx="974.305" cy="1076.73" r="14.4" fill="#e26f46" fill-rule="evenodd" fill-opacity="1" stroke="#000000" stroke-opacity="1" stroke-width="3.2"/>
<circle clip-path="url(#clip252)" cx="1047.47" cy="1039.15" r="14.4" fill="#e26f46" fill-rule="evenodd" fill-opacity="1" stroke="#000000" stroke-opacity="1" stroke-width="3.2"/>
<circle clip-path="url(#clip252)" cx="1120.64" cy="1003.16" r="14.4" fill="#e26f46" fill-rule="evenodd" fill-opacity="1" stroke="#000000" stroke-opacity="1" stroke-width="3.2"/>
<circle clip-path="url(#clip252)" cx="1193.8" cy="965.624" r="14.4" fill="#e26f46" fill-rule="evenodd" fill-opacity="1" stroke="#000000" stroke-opacity="1" stroke-width="3.2"/>
<circle clip-path="url(#clip252)" cx="1266.97" cy="929.473" r="14.4" fill="#e26f46" fill-rule="evenodd" fill-opacity="1" stroke="#000000" stroke-opacity="1" stroke-width="3.2"/>
<circle clip-path="url(#clip252)" cx="1340.14" cy="891.97" r="14.4" fill="#e26f46" fill-rule="evenodd" fill-opacity="1" stroke="#000000" stroke-opacity="1" stroke-width="3.2"/>
<circle clip-path="url(#clip252)" cx="1413.3" cy="855.697" r="14.4" fill="#e26f46" fill-rule="evenodd" fill-opacity="1" stroke="#000000" stroke-opacity="1" stroke-width="3.2"/>
<circle clip-path="url(#clip252)" cx="1486.47" cy="818.223" r="14.4" fill="#e26f46" fill-rule="evenodd" fill-opacity="1" stroke="#000000" stroke-opacity="1" stroke-width="3.2"/>
<circle clip-path="url(#clip252)" cx="1559.63" cy="781.856" r="14.4" fill="#e26f46" fill-rule="evenodd" fill-opacity="1" stroke="#000000" stroke-opacity="1" stroke-width="3.2"/>
<circle clip-path="url(#clip252)" cx="1632.8" cy="744.406" r="14.4" fill="#e26f46" fill-rule="evenodd" fill-opacity="1" stroke="#000000" stroke-opacity="1" stroke-width="3.2"/>
<circle clip-path="url(#clip252)" cx="1705.97" cy="707.963" r="14.4" fill="#e26f46" fill-rule="evenodd" fill-opacity="1" stroke="#000000" stroke-opacity="1" stroke-width="3.2"/>
<circle clip-path="url(#clip252)" cx="1779.13" cy="670.534" r="14.4" fill="#e26f46" fill-rule="evenodd" fill-opacity="1" stroke="#000000" stroke-opacity="1" stroke-width="3.2"/>
<circle clip-path="url(#clip252)" cx="1852.3" cy="634.029" r="14.4" fill="#e26f46" fill-rule="evenodd" fill-opacity="1" stroke="#000000" stroke-opacity="1" stroke-width="3.2"/>
<circle clip-path="url(#clip252)" cx="1925.47" cy="596.62" r="14.4" fill="#e26f46" fill-rule="evenodd" fill-opacity="1" stroke="#000000" stroke-opacity="1" stroke-width="3.2"/>
<circle clip-path="url(#clip252)" cx="1998.63" cy="560.063" r="14.4" fill="#e26f46" fill-rule="evenodd" fill-opacity="1" stroke="#000000" stroke-opacity="1" stroke-width="3.2"/>
<circle clip-path="url(#clip252)" cx="2071.8" cy="522.67" r="14.4" fill="#e26f46" fill-rule="evenodd" fill-opacity="1" stroke="#000000" stroke-opacity="1" stroke-width="3.2"/>
<circle clip-path="url(#clip252)" cx="2144.96" cy="486.069" r="14.4" fill="#e26f46" fill-rule="evenodd" fill-opacity="1" stroke="#000000" stroke-opacity="1" stroke-width="3.2"/>
<circle clip-path="url(#clip252)" cx="2218.13" cy="448.692" r="14.4" fill="#e26f46" fill-rule="evenodd" fill-opacity="1" stroke="#000000" stroke-opacity="1" stroke-width="3.2"/>
<circle clip-path="url(#clip252)" cx="2291.3" cy="412.054" r="14.4" fill="#e26f46" fill-rule="evenodd" fill-opacity="1" stroke="#000000" stroke-opacity="1" stroke-width="3.2"/>
<path clip-path="url(#clip250)" d="
M1624.09 324.425 L2280.37 324.425 L2280.37 168.905 L1624.09 168.905  Z
  " fill="#ffffff" fill-rule="evenodd" fill-opacity="1"/>
<polyline clip-path="url(#clip250)" style="stroke:#000000; stroke-linecap:butt; stroke-linejoin:round; stroke-width:4; stroke-opacity:1; fill:none" points="
  1624.09,324.425 2280.37,324.425 2280.37,168.905 1624.09,168.905 1624.09,324.425 
  "/>
<polyline clip-path="url(#clip250)" style="stroke:#009af9; stroke-linecap:butt; stroke-linejoin:round; stroke-width:4; stroke-opacity:1; fill:none" points="
  1648.22,220.745 1792.99,220.745 
  "/>
<line clip-path="url(#clip250)" x1="1720.6" y1="220.745" x2="1720.6" y2="195.145" style="stroke:#009af9; stroke-width:5.12; stroke-opacity:1"/>
<line clip-path="url(#clip250)" x1="1720.6" y1="220.745" x2="1695" y2="220.745" style="stroke:#009af9; stroke-width:5.12; stroke-opacity:1"/>
<line clip-path="url(#clip250)" x1="1720.6" y1="220.745" x2="1720.6" y2="246.345" style="stroke:#009af9; stroke-width:5.12; stroke-opacity:1"/>
<line clip-path="url(#clip250)" x1="1720.6" y1="220.745" x2="1746.2" y2="220.745" style="stroke:#009af9; stroke-width:5.12; stroke-opacity:1"/>
<path clip-path="url(#clip250)" d="M1817.12 212.099 L1821.63 212.099 L1829.73 233.858 L1837.83 212.099 L1842.35 212.099 L1832.62 238.025 L1826.84 238.025 L1817.12 212.099 Z" fill="#000000" fill-rule="evenodd" fill-opacity="1" /><path clip-path="url(#clip250)" d="M1860.01 224.992 Q1854.85 224.992 1852.86 226.173 Q1850.87 227.353 1850.87 230.201 Q1850.87 232.469 1852.35 233.812 Q1853.85 235.131 1856.42 235.131 Q1859.96 235.131 1862.09 232.631 Q1864.24 230.108 1864.24 225.941 L1864.24 224.992 L1860.01 224.992 M1868.5 223.233 L1868.5 238.025 L1864.24 238.025 L1864.24 234.089 Q1862.79 236.451 1860.61 237.585 Q1858.43 238.696 1855.29 238.696 Q1851.3 238.696 1848.94 236.474 Q1846.61 234.228 1846.61 230.478 Q1846.61 226.103 1849.52 223.881 Q1852.46 221.659 1858.27 221.659 L1864.24 221.659 L1864.24 221.242 Q1864.24 218.303 1862.3 216.705 Q1860.38 215.085 1856.88 215.085 Q1854.66 215.085 1852.55 215.617 Q1850.45 216.15 1848.5 217.215 L1848.5 213.279 Q1850.84 212.377 1853.04 211.937 Q1855.24 211.474 1857.32 211.474 Q1862.95 211.474 1865.73 214.391 Q1868.5 217.307 1868.5 223.233 Z" fill="#000000" fill-rule="evenodd" fill-opacity="1" /><path clip-path="url(#clip250)" d="M1898.83 222.377 L1898.83 238.025 L1894.57 238.025 L1894.57 222.515 Q1894.57 218.835 1893.13 217.006 Q1891.7 215.178 1888.83 215.178 Q1885.38 215.178 1883.39 217.377 Q1881.4 219.576 1881.4 223.372 L1881.4 238.025 L1877.11 238.025 L1877.11 212.099 L1881.4 212.099 L1881.4 216.127 Q1882.93 213.789 1884.99 212.631 Q1887.07 211.474 1889.78 211.474 Q1894.24 211.474 1896.54 214.252 Q1898.83 217.006 1898.83 222.377 Z" fill="#000000" fill-rule="evenodd" fill-opacity="1" /><path clip-path="url(#clip250)" d="M1924.38 216.034 L1924.38 202.006 L1928.64 202.006 L1928.64 238.025 L1924.38 238.025 L1924.38 234.136 Q1923.04 236.451 1920.98 237.585 Q1918.94 238.696 1916.07 238.696 Q1911.37 238.696 1908.41 234.946 Q1905.47 231.196 1905.47 225.085 Q1905.47 218.974 1908.41 215.224 Q1911.37 211.474 1916.07 211.474 Q1918.94 211.474 1920.98 212.608 Q1923.04 213.719 1924.38 216.034 M1909.87 225.085 Q1909.87 229.784 1911.79 232.469 Q1913.74 235.131 1917.11 235.131 Q1920.49 235.131 1922.44 232.469 Q1924.38 229.784 1924.38 225.085 Q1924.38 220.386 1922.44 217.724 Q1920.49 215.039 1917.11 215.039 Q1913.74 215.039 1911.79 217.724 Q1909.87 220.386 1909.87 225.085 Z" fill="#000000" fill-rule="evenodd" fill-opacity="1" /><path clip-path="url(#clip250)" d="M1959.59 223.997 L1959.59 226.08 L1940.01 226.08 Q1940.29 230.478 1942.65 232.793 Q1945.03 235.085 1949.27 235.085 Q1951.72 235.085 1954.01 234.483 Q1956.33 233.881 1958.6 232.677 L1958.6 236.705 Q1956.3 237.677 1953.9 238.187 Q1951.49 238.696 1949.01 238.696 Q1942.81 238.696 1939.17 235.085 Q1935.56 231.474 1935.56 225.316 Q1935.56 218.951 1938.99 215.224 Q1942.44 211.474 1948.27 211.474 Q1953.5 211.474 1956.54 214.853 Q1959.59 218.21 1959.59 223.997 M1955.33 222.747 Q1955.29 219.252 1953.36 217.168 Q1951.47 215.085 1948.32 215.085 Q1944.75 215.085 1942.6 217.099 Q1940.47 219.113 1940.15 222.77 L1955.33 222.747 Z" fill="#000000" fill-rule="evenodd" fill-opacity="1" /><path clip-path="url(#clip250)" d="M1981.61 216.08 Q1980.89 215.664 1980.03 215.478 Q1979.2 215.27 1978.18 215.27 Q1974.57 215.27 1972.62 217.631 Q1970.7 219.969 1970.7 224.367 L1970.7 238.025 L1966.42 238.025 L1966.42 212.099 L1970.7 212.099 L1970.7 216.127 Q1972.04 213.766 1974.2 212.631 Q1976.35 211.474 1979.43 211.474 Q1979.87 211.474 1980.4 211.543 Q1980.93 211.59 1981.58 211.705 L1981.61 216.08 Z" fill="#000000" fill-rule="evenodd" fill-opacity="1" /><path clip-path="url(#clip250)" d="M1993.64 203.465 L1997.58 203.465 L1985.54 242.423 L1981.61 242.423 L1993.64 203.465 Z" fill="#000000" fill-rule="evenodd" fill-opacity="1" /><path clip-path="url(#clip250)" d="M2002.23 203.465 L2006.91 203.465 L2006.91 234.089 L2023.73 234.089 L2023.73 238.025 L2002.23 238.025 L2002.23 203.465 Z" fill="#000000" fill-rule="evenodd" fill-opacity="1" /><path clip-path="url(#clip250)" d="M2028.46 212.099 L2032.72 212.099 L2032.72 238.025 L2028.46 238.025 L2028.46 212.099 M2028.46 202.006 L2032.72 202.006 L2032.72 207.4 L2028.46 207.4 L2028.46 202.006 Z" fill="#000000" fill-rule="evenodd" fill-opacity="1" /><path clip-path="url(#clip250)" d="M2063.18 222.377 L2063.18 238.025 L2058.92 238.025 L2058.92 222.515 Q2058.92 218.835 2057.48 217.006 Q2056.05 215.178 2053.18 215.178 Q2049.73 215.178 2047.74 217.377 Q2045.75 219.576 2045.75 223.372 L2045.75 238.025 L2041.47 238.025 L2041.47 212.099 L2045.75 212.099 L2045.75 216.127 Q2047.28 213.789 2049.34 212.631 Q2051.42 211.474 2054.13 211.474 Q2058.6 211.474 2060.89 214.252 Q2063.18 217.006 2063.18 222.377 Z" fill="#000000" fill-rule="evenodd" fill-opacity="1" /><path clip-path="url(#clip250)" d="M2088.25 221.821 Q2089.75 222.33 2091.16 223.997 Q2092.6 225.664 2094.03 228.58 L2098.78 238.025 L2093.76 238.025 L2089.34 229.159 Q2087.62 225.687 2086 224.553 Q2084.41 223.418 2081.63 223.418 L2076.54 223.418 L2076.54 238.025 L2071.86 238.025 L2071.86 203.465 L2082.41 203.465 Q2088.34 203.465 2091.26 205.941 Q2094.17 208.418 2094.17 213.418 Q2094.17 216.682 2092.65 218.835 Q2091.14 220.988 2088.25 221.821 M2076.54 207.307 L2076.54 219.576 L2082.41 219.576 Q2085.79 219.576 2087.51 218.025 Q2089.24 216.451 2089.24 213.418 Q2089.24 210.386 2087.51 208.858 Q2085.79 207.307 2082.41 207.307 L2076.54 207.307 Z" fill="#000000" fill-rule="evenodd" fill-opacity="1" /><path clip-path="url(#clip250)" d="M2115.35 224.992 Q2110.19 224.992 2108.2 226.173 Q2106.21 227.353 2106.21 230.201 Q2106.21 232.469 2107.69 233.812 Q2109.2 235.131 2111.77 235.131 Q2115.31 235.131 2117.44 232.631 Q2119.59 230.108 2119.59 225.941 L2119.59 224.992 L2115.35 224.992 M2123.85 223.233 L2123.85 238.025 L2119.59 238.025 L2119.59 234.089 Q2118.13 236.451 2115.96 237.585 Q2113.78 238.696 2110.63 238.696 Q2106.65 238.696 2104.29 236.474 Q2101.95 234.228 2101.95 230.478 Q2101.95 226.103 2104.87 223.881 Q2107.81 221.659 2113.62 221.659 L2119.59 221.659 L2119.59 221.242 Q2119.59 218.303 2117.65 216.705 Q2115.72 215.085 2112.23 215.085 Q2110.01 215.085 2107.9 215.617 Q2105.79 216.15 2103.85 217.215 L2103.85 213.279 Q2106.19 212.377 2108.39 211.937 Q2110.59 211.474 2112.67 211.474 Q2118.29 211.474 2121.07 214.391 Q2123.85 217.307 2123.85 223.233 Z" fill="#000000" fill-rule="evenodd" fill-opacity="1" /><path clip-path="url(#clip250)" d="M2154.17 222.377 L2154.17 238.025 L2149.91 238.025 L2149.91 222.515 Q2149.91 218.835 2148.48 217.006 Q2147.04 215.178 2144.17 215.178 Q2140.72 215.178 2138.73 217.377 Q2136.74 219.576 2136.74 223.372 L2136.74 238.025 L2132.46 238.025 L2132.46 212.099 L2136.74 212.099 L2136.74 216.127 Q2138.27 213.789 2140.33 212.631 Q2142.41 211.474 2145.12 211.474 Q2149.59 211.474 2151.88 214.252 Q2154.17 217.006 2154.17 222.377 Z" fill="#000000" fill-rule="evenodd" fill-opacity="1" /><path clip-path="url(#clip250)" d="M2179.73 224.761 Q2179.73 220.131 2177.81 217.585 Q2175.91 215.039 2172.46 215.039 Q2169.03 215.039 2167.11 217.585 Q2165.22 220.131 2165.22 224.761 Q2165.22 229.367 2167.11 231.914 Q2169.03 234.46 2172.46 234.46 Q2175.91 234.46 2177.81 231.914 Q2179.73 229.367 2179.73 224.761 M2183.99 234.807 Q2183.99 241.427 2181.05 244.645 Q2178.11 247.886 2172.04 247.886 Q2169.8 247.886 2167.81 247.538 Q2165.82 247.214 2163.94 246.52 L2163.94 242.376 Q2165.82 243.395 2167.65 243.881 Q2169.47 244.367 2171.37 244.367 Q2175.56 244.367 2177.65 242.168 Q2179.73 239.992 2179.73 235.571 L2179.73 233.464 Q2178.41 235.756 2176.35 236.89 Q2174.29 238.025 2171.42 238.025 Q2166.65 238.025 2163.73 234.39 Q2160.82 230.756 2160.82 224.761 Q2160.82 218.742 2163.73 215.108 Q2166.65 211.474 2171.42 211.474 Q2174.29 211.474 2176.35 212.608 Q2178.41 213.742 2179.73 216.034 L2179.73 212.099 L2183.99 212.099 L2183.99 234.807 Z" fill="#000000" fill-rule="evenodd" fill-opacity="1" /><path clip-path="url(#clip250)" d="M2214.94 223.997 L2214.94 226.08 L2195.35 226.08 Q2195.63 230.478 2197.99 232.793 Q2200.38 235.085 2204.61 235.085 Q2207.07 235.085 2209.36 234.483 Q2211.67 233.881 2213.94 232.677 L2213.94 236.705 Q2211.65 237.677 2209.24 238.187 Q2206.84 238.696 2204.36 238.696 Q2198.15 238.696 2194.52 235.085 Q2190.91 231.474 2190.91 225.316 Q2190.91 218.951 2194.34 215.224 Q2197.78 211.474 2203.62 211.474 Q2208.85 211.474 2211.88 214.853 Q2214.94 218.21 2214.94 223.997 M2210.68 222.747 Q2210.63 219.252 2208.71 217.168 Q2206.81 215.085 2203.66 215.085 Q2200.1 215.085 2197.95 217.099 Q2195.82 219.113 2195.49 222.77 L2210.68 222.747 Z" fill="#000000" fill-rule="evenodd" fill-opacity="1" /><polyline clip-path="url(#clip250)" style="stroke:#e26f46; stroke-linecap:butt; stroke-linejoin:round; stroke-width:4; stroke-opacity:1; fill:none" points="
  1648.22,272.585 1792.99,272.585 
  "/>
<circle clip-path="url(#clip250)" cx="1720.6" cy="272.585" r="23.04" fill="#e26f46" fill-rule="evenodd" fill-opacity="1" stroke="#000000" stroke-opacity="1" stroke-width="5.12"/>
<path clip-path="url(#clip250)" d="M1817.12 263.939 L1821.63 263.939 L1829.73 285.698 L1837.83 263.939 L1842.35 263.939 L1832.62 289.865 L1826.84 289.865 L1817.12 263.939 Z" fill="#000000" fill-rule="evenodd" fill-opacity="1" /><path clip-path="url(#clip250)" d="M1860.01 276.832 Q1854.85 276.832 1852.86 278.013 Q1850.87 279.193 1850.87 282.041 Q1850.87 284.309 1852.35 285.652 Q1853.85 286.971 1856.42 286.971 Q1859.96 286.971 1862.09 284.471 Q1864.24 281.948 1864.24 277.781 L1864.24 276.832 L1860.01 276.832 M1868.5 275.073 L1868.5 289.865 L1864.24 289.865 L1864.24 285.929 Q1862.79 288.291 1860.61 289.425 Q1858.43 290.536 1855.29 290.536 Q1851.3 290.536 1848.94 288.314 Q1846.61 286.068 1846.61 282.318 Q1846.61 277.943 1849.52 275.721 Q1852.46 273.499 1858.27 273.499 L1864.24 273.499 L1864.24 273.082 Q1864.24 270.143 1862.3 268.545 Q1860.38 266.925 1856.88 266.925 Q1854.66 266.925 1852.55 267.457 Q1850.45 267.99 1848.5 269.055 L1848.5 265.119 Q1850.84 264.217 1853.04 263.777 Q1855.24 263.314 1857.32 263.314 Q1862.95 263.314 1865.73 266.231 Q1868.5 269.147 1868.5 275.073 Z" fill="#000000" fill-rule="evenodd" fill-opacity="1" /><path clip-path="url(#clip250)" d="M1898.83 274.217 L1898.83 289.865 L1894.57 289.865 L1894.57 274.355 Q1894.57 270.675 1893.13 268.846 Q1891.7 267.018 1888.83 267.018 Q1885.38 267.018 1883.39 269.217 Q1881.4 271.416 1881.4 275.212 L1881.4 289.865 L1877.11 289.865 L1877.11 263.939 L1881.4 263.939 L1881.4 267.967 Q1882.93 265.629 1884.99 264.471 Q1887.07 263.314 1889.78 263.314 Q1894.24 263.314 1896.54 266.092 Q1898.83 268.846 1898.83 274.217 Z" fill="#000000" fill-rule="evenodd" fill-opacity="1" /><path clip-path="url(#clip250)" d="M1924.38 267.874 L1924.38 253.846 L1928.64 253.846 L1928.64 289.865 L1924.38 289.865 L1924.38 285.976 Q1923.04 288.291 1920.98 289.425 Q1918.94 290.536 1916.07 290.536 Q1911.37 290.536 1908.41 286.786 Q1905.47 283.036 1905.47 276.925 Q1905.47 270.814 1908.41 267.064 Q1911.37 263.314 1916.07 263.314 Q1918.94 263.314 1920.98 264.448 Q1923.04 265.559 1924.38 267.874 M1909.87 276.925 Q1909.87 281.624 1911.79 284.309 Q1913.74 286.971 1917.11 286.971 Q1920.49 286.971 1922.44 284.309 Q1924.38 281.624 1924.38 276.925 Q1924.38 272.226 1922.44 269.564 Q1920.49 266.879 1917.11 266.879 Q1913.74 266.879 1911.79 269.564 Q1909.87 272.226 1909.87 276.925 Z" fill="#000000" fill-rule="evenodd" fill-opacity="1" /><path clip-path="url(#clip250)" d="M1959.59 275.837 L1959.59 277.92 L1940.01 277.92 Q1940.29 282.318 1942.65 284.633 Q1945.03 286.925 1949.27 286.925 Q1951.72 286.925 1954.01 286.323 Q1956.33 285.721 1958.6 284.517 L1958.6 288.545 Q1956.3 289.517 1953.9 290.027 Q1951.49 290.536 1949.01 290.536 Q1942.81 290.536 1939.17 286.925 Q1935.56 283.314 1935.56 277.156 Q1935.56 270.791 1938.99 267.064 Q1942.44 263.314 1948.27 263.314 Q1953.5 263.314 1956.54 266.693 Q1959.59 270.05 1959.59 275.837 M1955.33 274.587 Q1955.29 271.092 1953.36 269.008 Q1951.47 266.925 1948.32 266.925 Q1944.75 266.925 1942.6 268.939 Q1940.47 270.953 1940.15 274.61 L1955.33 274.587 Z" fill="#000000" fill-rule="evenodd" fill-opacity="1" /><path clip-path="url(#clip250)" d="M1981.61 267.92 Q1980.89 267.504 1980.03 267.318 Q1979.2 267.11 1978.18 267.11 Q1974.57 267.11 1972.62 269.471 Q1970.7 271.809 1970.7 276.207 L1970.7 289.865 L1966.42 289.865 L1966.42 263.939 L1970.7 263.939 L1970.7 267.967 Q1972.04 265.606 1974.2 264.471 Q1976.35 263.314 1979.43 263.314 Q1979.87 263.314 1980.4 263.383 Q1980.93 263.43 1981.58 263.545 L1981.61 267.92 Z" fill="#000000" fill-rule="evenodd" fill-opacity="1" /><path clip-path="url(#clip250)" d="M1993.64 255.305 L1997.58 255.305 L1985.54 294.263 L1981.61 294.263 L1993.64 255.305 Z" fill="#000000" fill-rule="evenodd" fill-opacity="1" /><path clip-path="url(#clip250)" d="M2028.11 257.967 L2028.11 262.897 Q2025.75 260.698 2023.06 259.61 Q2020.4 258.522 2017.39 258.522 Q2011.47 258.522 2008.32 262.156 Q2005.17 265.768 2005.17 272.619 Q2005.17 279.448 2008.32 283.082 Q2011.47 286.693 2017.39 286.693 Q2020.4 286.693 2023.06 285.605 Q2025.75 284.517 2028.11 282.318 L2028.11 287.203 Q2025.66 288.869 2022.9 289.703 Q2020.17 290.536 2017.11 290.536 Q2009.27 290.536 2004.75 285.744 Q2000.24 280.93 2000.24 272.619 Q2000.24 264.286 2004.75 259.494 Q2009.27 254.68 2017.11 254.68 Q2020.22 254.68 2022.95 255.513 Q2025.7 256.323 2028.11 257.967 Z" fill="#000000" fill-rule="evenodd" fill-opacity="1" /><path clip-path="url(#clip250)" d="M2045.19 266.925 Q2041.77 266.925 2039.78 269.61 Q2037.79 272.272 2037.79 276.925 Q2037.79 281.578 2039.75 284.263 Q2041.74 286.925 2045.19 286.925 Q2048.6 286.925 2050.59 284.24 Q2052.58 281.555 2052.58 276.925 Q2052.58 272.318 2050.59 269.633 Q2048.6 266.925 2045.19 266.925 M2045.19 263.314 Q2050.75 263.314 2053.92 266.925 Q2057.09 270.536 2057.09 276.925 Q2057.09 283.291 2053.92 286.925 Q2050.75 290.536 2045.19 290.536 Q2039.61 290.536 2036.44 286.925 Q2033.29 283.291 2033.29 276.925 Q2033.29 270.536 2036.44 266.925 Q2039.61 263.314 2045.19 263.314 Z" fill="#000000" fill-rule="evenodd" fill-opacity="1" /><path clip-path="url(#clip250)" d="M2080.68 264.703 L2080.68 268.731 Q2078.87 267.805 2076.93 267.342 Q2074.98 266.879 2072.9 266.879 Q2069.73 266.879 2068.13 267.851 Q2066.56 268.823 2066.56 270.768 Q2066.56 272.249 2067.69 273.105 Q2068.83 273.939 2072.25 274.703 L2073.71 275.027 Q2078.25 275.999 2080.15 277.781 Q2082.07 279.541 2082.07 282.712 Q2082.07 286.323 2079.2 288.429 Q2076.35 290.536 2071.35 290.536 Q2069.27 290.536 2067 290.119 Q2064.75 289.726 2062.25 288.916 L2062.25 284.517 Q2064.61 285.744 2066.91 286.369 Q2069.2 286.971 2071.44 286.971 Q2074.45 286.971 2076.07 285.953 Q2077.69 284.911 2077.69 283.036 Q2077.69 281.3 2076.51 280.374 Q2075.35 279.448 2071.4 278.592 L2069.91 278.244 Q2065.96 277.411 2064.2 275.698 Q2062.44 273.962 2062.44 270.953 Q2062.44 267.295 2065.03 265.305 Q2067.62 263.314 2072.39 263.314 Q2074.75 263.314 2076.84 263.661 Q2078.92 264.008 2080.68 264.703 Z" fill="#000000" fill-rule="evenodd" fill-opacity="1" /><path clip-path="url(#clip250)" d="M2105.42 273.661 Q2106.93 274.17 2108.34 275.837 Q2109.78 277.504 2111.21 280.42 L2115.96 289.865 L2110.93 289.865 L2106.51 280.999 Q2104.8 277.527 2103.18 276.393 Q2101.58 275.258 2098.8 275.258 L2093.71 275.258 L2093.71 289.865 L2089.04 289.865 L2089.04 255.305 L2099.59 255.305 Q2105.52 255.305 2108.43 257.781 Q2111.35 260.258 2111.35 265.258 Q2111.35 268.522 2109.82 270.675 Q2108.32 272.828 2105.42 273.661 M2093.71 259.147 L2093.71 271.416 L2099.59 271.416 Q2102.97 271.416 2104.68 269.865 Q2106.42 268.291 2106.42 265.258 Q2106.42 262.226 2104.68 260.698 Q2102.97 259.147 2099.59 259.147 L2093.71 259.147 Z" fill="#000000" fill-rule="evenodd" fill-opacity="1" /><path clip-path="url(#clip250)" d="M2132.53 276.832 Q2127.37 276.832 2125.38 278.013 Q2123.39 279.193 2123.39 282.041 Q2123.39 284.309 2124.87 285.652 Q2126.37 286.971 2128.94 286.971 Q2132.48 286.971 2134.61 284.471 Q2136.77 281.948 2136.77 277.781 L2136.77 276.832 L2132.53 276.832 M2141.03 275.073 L2141.03 289.865 L2136.77 289.865 L2136.77 285.929 Q2135.31 288.291 2133.13 289.425 Q2130.96 290.536 2127.81 290.536 Q2123.83 290.536 2121.47 288.314 Q2119.13 286.068 2119.13 282.318 Q2119.13 277.943 2122.04 275.721 Q2124.98 273.499 2130.79 273.499 L2136.77 273.499 L2136.77 273.082 Q2136.77 270.143 2134.82 268.545 Q2132.9 266.925 2129.41 266.925 Q2127.18 266.925 2125.08 267.457 Q2122.97 267.99 2121.03 269.055 L2121.03 265.119 Q2123.36 264.217 2125.56 263.777 Q2127.76 263.314 2129.84 263.314 Q2135.47 263.314 2138.25 266.231 Q2141.03 269.147 2141.03 275.073 Z" fill="#000000" fill-rule="evenodd" fill-opacity="1" /><path clip-path="url(#clip250)" d="M2171.35 274.217 L2171.35 289.865 L2167.09 289.865 L2167.09 274.355 Q2167.09 270.675 2165.65 268.846 Q2164.22 267.018 2161.35 267.018 Q2157.9 267.018 2155.91 269.217 Q2153.92 271.416 2153.92 275.212 L2153.92 289.865 L2149.64 289.865 L2149.64 263.939 L2153.92 263.939 L2153.92 267.967 Q2155.45 265.629 2157.51 264.471 Q2159.59 263.314 2162.3 263.314 Q2166.77 263.314 2169.06 266.092 Q2171.35 268.846 2171.35 274.217 Z" fill="#000000" fill-rule="evenodd" fill-opacity="1" /><path clip-path="url(#clip250)" d="M2196.9 276.601 Q2196.9 271.971 2194.98 269.425 Q2193.09 266.879 2189.64 266.879 Q2186.21 266.879 2184.29 269.425 Q2182.39 271.971 2182.39 276.601 Q2182.39 281.207 2184.29 283.754 Q2186.21 286.3 2189.64 286.3 Q2193.09 286.3 2194.98 283.754 Q2196.9 281.207 2196.9 276.601 M2201.16 286.647 Q2201.16 293.267 2198.22 296.485 Q2195.28 299.726 2189.22 299.726 Q2186.97 299.726 2184.98 299.378 Q2182.99 299.054 2181.12 298.36 L2181.12 294.216 Q2182.99 295.235 2184.82 295.721 Q2186.65 296.207 2188.55 296.207 Q2192.74 296.207 2194.82 294.008 Q2196.9 291.832 2196.9 287.411 L2196.9 285.304 Q2195.59 287.596 2193.53 288.73 Q2191.47 289.865 2188.59 289.865 Q2183.83 289.865 2180.91 286.23 Q2177.99 282.596 2177.99 276.601 Q2177.99 270.582 2180.91 266.948 Q2183.83 263.314 2188.59 263.314 Q2191.47 263.314 2193.53 264.448 Q2195.59 265.582 2196.9 267.874 L2196.9 263.939 L2201.16 263.939 L2201.16 286.647 Z" fill="#000000" fill-rule="evenodd" fill-opacity="1" /><path clip-path="url(#clip250)" d="M2232.11 275.837 L2232.11 277.92 L2212.53 277.92 Q2212.81 282.318 2215.17 284.633 Q2217.55 286.925 2221.79 286.925 Q2224.24 286.925 2226.53 286.323 Q2228.85 285.721 2231.12 284.517 L2231.12 288.545 Q2228.83 289.517 2226.42 290.027 Q2224.01 290.536 2221.53 290.536 Q2215.33 290.536 2211.7 286.925 Q2208.09 283.314 2208.09 277.156 Q2208.09 270.791 2211.51 267.064 Q2214.96 263.314 2220.79 263.314 Q2226.03 263.314 2229.06 266.693 Q2232.11 270.05 2232.11 275.837 M2227.85 274.587 Q2227.81 271.092 2225.89 269.008 Q2223.99 266.925 2220.84 266.925 Q2217.28 266.925 2215.12 268.939 Q2212.99 270.953 2212.67 274.61 L2227.85 274.587 Z" fill="#000000" fill-rule="evenodd" fill-opacity="1" /></svg>
