<?xml version="1.0" encoding="utf-8"?>
<svg xmlns="http://www.w3.org/2000/svg" xmlns:xlink="http://www.w3.org/1999/xlink" width="600" height="400" viewBox="0 0 2400 1600">
<defs>
  <clipPath id="clip310">
    <rect x="0" y="0" width="2400" height="1600"/>
  </clipPath>
</defs>
<path clip-path="url(#clip310)" d="
M0 1600 L2400 1600 L2400 0 L0 0  Z
  " fill="#ffffff" fill-rule="evenodd" fill-opacity="1"/>
<defs>
  <clipPath id="clip311">
    <rect x="480" y="0" width="1681" height="1600"/>
  </clipPath>
</defs>
<path clip-path="url(#clip310)" d="
M110.881 1486.45 L2352.76 1486.45 L2352.76 47.2441 L110.881 47.2441  Z
  " fill="#ffffff" fill-rule="evenodd" fill-opacity="1"/>
<defs>
  <clipPath id="clip312">
    <rect x="110" y="47" width="2243" height="1440"/>
  </clipPath>
</defs>
<polyline clip-path="url(#clip312)" style="stroke:#000000; stroke-linecap:butt; stroke-linejoin:round; stroke-width:2; stroke-opacity:0.1; fill:none" points="
  174.33,1486.45 174.33,47.2441 
  "/>
<polyline clip-path="url(#clip312)" style="stroke:#000000; stroke-linecap:butt; stroke-linejoin:round; stroke-width:2; stroke-opacity:0.1; fill:none" points="
  703.074,1486.45 703.074,47.2441 
  "/>
<polyline clip-path="url(#clip312)" style="stroke:#000000; stroke-linecap:butt; stroke-linejoin:round; stroke-width:2; stroke-opacity:0.1; fill:none" points="
  1231.82,1486.45 1231.82,47.2441 
  "/>
<polyline clip-path="url(#clip312)" style="stroke:#000000; stroke-linecap:butt; stroke-linejoin:round; stroke-width:2; stroke-opacity:0.1; fill:none" points="
  1760.56,1486.45 1760.56,47.2441 
  "/>
<polyline clip-path="url(#clip312)" style="stroke:#000000; stroke-linecap:butt; stroke-linejoin:round; stroke-width:2; stroke-opacity:0.1; fill:none" points="
  2289.31,1486.45 2289.31,47.2441 
  "/>
<polyline clip-path="url(#clip310)" style="stroke:#000000; stroke-linecap:butt; stroke-linejoin:round; stroke-width:4; stroke-opacity:1; fill:none" points="
  110.881,1486.45 2352.76,1486.45 
  "/>
<polyline clip-path="url(#clip310)" style="stroke:#000000; stroke-linecap:butt; stroke-linejoin:round; stroke-width:4; stroke-opacity:1; fill:none" points="
  174.33,1486.45 174.33,1467.55 
  "/>
<polyline clip-path="url(#clip310)" style="stroke:#000000; stroke-linecap:butt; stroke-linejoin:round; stroke-width:4; stroke-opacity:1; fill:none" points="
  703.074,1486.45 703.074,1467.55 
  "/>
<polyline clip-path="url(#clip310)" style="stroke:#000000; stroke-linecap:butt; stroke-linejoin:round; stroke-width:4; stroke-opacity:1; fill:none" points="
  1231.82,1486.45 1231.82,1467.55 
  "/>
<polyline clip-path="url(#clip310)" style="stroke:#000000; stroke-linecap:butt; stroke-linejoin:round; stroke-width:4; stroke-opacity:1; fill:none" points="
  1760.56,1486.45 1760.56,1467.55 
  "/>
<polyline clip-path="url(#clip310)" style="stroke:#000000; stroke-linecap:butt; stroke-linejoin:round; stroke-width:4; stroke-opacity:1; fill:none" points="
  2289.31,1486.45 2289.31,1467.55 
  "/>
<path clip-path="url(#clip310)" d="M120.858 1532.02 L150.534 1532.02 L150.534 1535.95 L120.858 1535.95 L120.858 1532.02 Z" fill="#000000" fill-rule="evenodd" fill-opacity="1" /><path clip-path="url(#clip310)" d="M161.437 1544.91 L169.076 1544.91 L169.076 1518.55 L160.765 1520.21 L160.765 1515.95 L169.029 1514.29 L173.705 1514.29 L173.705 1544.91 L181.344 1544.91 L181.344 1548.85 L161.437 1548.85 L161.437 1544.91 Z" fill="#000000" fill-rule="evenodd" fill-opacity="1" /><path clip-path="url(#clip310)" d="M190.788 1542.97 L195.673 1542.97 L195.673 1548.85 L190.788 1548.85 L190.788 1542.97 Z" fill="#000000" fill-rule="evenodd" fill-opacity="1" /><path clip-path="url(#clip310)" d="M215.858 1517.37 Q212.247 1517.37 210.418 1520.93 Q208.612 1524.47 208.612 1531.6 Q208.612 1538.71 210.418 1542.27 Q212.247 1545.82 215.858 1545.82 Q219.492 1545.82 221.298 1542.27 Q223.126 1538.71 223.126 1531.6 Q223.126 1524.47 221.298 1520.93 Q219.492 1517.37 215.858 1517.37 M215.858 1513.66 Q221.668 1513.66 224.723 1518.27 Q227.802 1522.85 227.802 1531.6 Q227.802 1540.33 224.723 1544.94 Q221.668 1549.52 215.858 1549.52 Q210.048 1549.52 206.969 1544.94 Q203.913 1540.33 203.913 1531.6 Q203.913 1522.85 206.969 1518.27 Q210.048 1513.66 215.858 1513.66 Z" fill="#000000" fill-rule="evenodd" fill-opacity="1" /><path clip-path="url(#clip310)" d="M650.1 1532.02 L679.776 1532.02 L679.776 1535.95 L650.1 1535.95 L650.1 1532.02 Z" fill="#000000" fill-rule="evenodd" fill-opacity="1" /><path clip-path="url(#clip310)" d="M699.868 1517.37 Q696.257 1517.37 694.429 1520.93 Q692.623 1524.47 692.623 1531.6 Q692.623 1538.71 694.429 1542.27 Q696.257 1545.82 699.868 1545.82 Q703.503 1545.82 705.308 1542.27 Q707.137 1538.71 707.137 1531.6 Q707.137 1524.47 705.308 1520.93 Q703.503 1517.37 699.868 1517.37 M699.868 1513.66 Q705.678 1513.66 708.734 1518.27 Q711.813 1522.85 711.813 1531.6 Q711.813 1540.33 708.734 1544.94 Q705.678 1549.52 699.868 1549.52 Q694.058 1549.52 690.979 1544.94 Q687.924 1540.33 687.924 1531.6 Q687.924 1522.85 690.979 1518.27 Q694.058 1513.66 699.868 1513.66 Z" fill="#000000" fill-rule="evenodd" fill-opacity="1" /><path clip-path="url(#clip310)" d="M720.03 1542.97 L724.914 1542.97 L724.914 1548.85 L720.03 1548.85 L720.03 1542.97 Z" fill="#000000" fill-rule="evenodd" fill-opacity="1" /><path clip-path="url(#clip310)" d="M735.146 1514.29 L753.502 1514.29 L753.502 1518.22 L739.428 1518.22 L739.428 1526.7 Q740.447 1526.35 741.465 1526.19 Q742.484 1526 743.502 1526 Q749.289 1526 752.669 1529.17 Q756.049 1532.34 756.049 1537.76 Q756.049 1543.34 752.576 1546.44 Q749.104 1549.52 742.785 1549.52 Q740.609 1549.52 738.34 1549.15 Q736.095 1548.78 733.688 1548.04 L733.688 1543.34 Q735.771 1544.47 737.993 1545.03 Q740.215 1545.58 742.692 1545.58 Q746.697 1545.58 749.035 1543.48 Q751.373 1541.37 751.373 1537.76 Q751.373 1534.15 749.035 1532.04 Q746.697 1529.94 742.692 1529.94 Q740.817 1529.94 738.942 1530.35 Q737.09 1530.77 735.146 1531.65 L735.146 1514.29 Z" fill="#000000" fill-rule="evenodd" fill-opacity="1" /><path clip-path="url(#clip310)" d="M1209.2 1517.37 Q1205.59 1517.37 1203.76 1520.93 Q1201.96 1524.47 1201.96 1531.6 Q1201.96 1538.71 1203.76 1542.27 Q1205.59 1545.82 1209.2 1545.82 Q1212.84 1545.82 1214.64 1542.27 Q1216.47 1538.71 1216.47 1531.6 Q1216.47 1524.47 1214.64 1520.93 Q1212.84 1517.37 1209.2 1517.37 M1209.2 1513.66 Q1215.01 1513.66 1218.07 1518.27 Q1221.15 1522.85 1221.15 1531.6 Q1221.15 1540.33 1218.07 1544.94 Q1215.01 1549.52 1209.2 1549.52 Q1203.39 1549.52 1200.31 1544.94 Q1197.26 1540.33 1197.26 1531.6 Q1197.26 1522.85 1200.31 1518.27 Q1203.39 1513.66 1209.2 1513.66 Z" fill="#000000" fill-rule="evenodd" fill-opacity="1" /><path clip-path="url(#clip310)" d="M1229.36 1542.97 L1234.25 1542.97 L1234.25 1548.85 L1229.36 1548.85 L1229.36 1542.97 Z" fill="#000000" fill-rule="evenodd" fill-opacity="1" /><path clip-path="url(#clip310)" d="M1254.43 1517.37 Q1250.82 1517.37 1248.99 1520.93 Q1247.19 1524.47 1247.19 1531.6 Q1247.19 1538.71 1248.99 1542.27 Q1250.82 1545.82 1254.43 1545.82 Q1258.07 1545.82 1259.87 1542.27 Q1261.7 1538.71 1261.7 1531.6 Q1261.7 1524.47 1259.87 1520.93 Q1258.07 1517.37 1254.43 1517.37 M1254.43 1513.66 Q1260.24 1513.66 1263.3 1518.27 Q1266.38 1522.85 1266.38 1531.6 Q1266.38 1540.33 1263.3 1544.94 Q1260.24 1549.52 1254.43 1549.52 Q1248.62 1549.52 1245.55 1544.94 Q1242.49 1540.33 1242.49 1531.6 Q1242.49 1522.85 1245.55 1518.27 Q1248.62 1513.66 1254.43 1513.66 Z" fill="#000000" fill-rule="evenodd" fill-opacity="1" /><path clip-path="url(#clip310)" d="M1738.44 1517.37 Q1734.83 1517.37 1733 1520.93 Q1731.2 1524.47 1731.2 1531.6 Q1731.2 1538.71 1733 1542.27 Q1734.83 1545.82 1738.44 1545.82 Q1742.08 1545.82 1743.88 1542.27 Q1745.71 1538.71 1745.71 1531.6 Q1745.71 1524.47 1743.88 1520.93 Q1742.08 1517.37 1738.44 1517.37 M1738.44 1513.66 Q1744.25 1513.66 1747.31 1518.27 Q1750.39 1522.85 1750.39 1531.6 Q1750.39 1540.33 1747.31 1544.94 Q1744.25 1549.52 1738.44 1549.52 Q1732.63 1549.52 1729.56 1544.94 Q1726.5 1540.33 1726.5 1531.6 Q1726.5 1522.85 1729.56 1518.27 Q1732.63 1513.66 1738.44 1513.66 Z" fill="#000000" fill-rule="evenodd" fill-opacity="1" /><path clip-path="url(#clip310)" d="M1758.61 1542.97 L1763.49 1542.97 L1763.49 1548.85 L1758.61 1548.85 L1758.61 1542.97 Z" fill="#000000" fill-rule="evenodd" fill-opacity="1" /><path clip-path="url(#clip310)" d="M1773.72 1514.29 L1792.08 1514.29 L1792.08 1518.22 L1778 1518.22 L1778 1526.7 Q1779.02 1526.35 1780.04 1526.19 Q1781.06 1526 1782.08 1526 Q1787.87 1526 1791.25 1529.17 Q1794.62 1532.34 1794.62 1537.76 Q1794.62 1543.34 1791.15 1546.44 Q1787.68 1549.52 1781.36 1549.52 Q1779.19 1549.52 1776.92 1549.15 Q1774.67 1548.78 1772.26 1548.04 L1772.26 1543.34 Q1774.35 1544.47 1776.57 1545.03 Q1778.79 1545.58 1781.27 1545.58 Q1785.27 1545.58 1787.61 1543.48 Q1789.95 1541.37 1789.95 1537.76 Q1789.95 1534.15 1787.61 1532.04 Q1785.27 1529.94 1781.27 1529.94 Q1779.39 1529.94 1777.52 1530.35 Q1775.67 1530.77 1773.72 1531.65 L1773.72 1514.29 Z" fill="#000000" fill-rule="evenodd" fill-opacity="1" /><path clip-path="url(#clip310)" d="M2256.46 1544.91 L2264.1 1544.91 L2264.1 1518.55 L2255.79 1520.21 L2255.79 1515.95 L2264.05 1514.29 L2268.73 1514.29 L2268.73 1544.91 L2276.37 1544.91 L2276.37 1548.85 L2256.46 1548.85 L2256.46 1544.91 Z" fill="#000000" fill-rule="evenodd" fill-opacity="1" /><path clip-path="url(#clip310)" d="M2285.81 1542.97 L2290.7 1542.97 L2290.7 1548.85 L2285.81 1548.85 L2285.81 1542.97 Z" fill="#000000" fill-rule="evenodd" fill-opacity="1" /><path clip-path="url(#clip310)" d="M2310.88 1517.37 Q2307.27 1517.37 2305.44 1520.93 Q2303.64 1524.47 2303.64 1531.6 Q2303.64 1538.71 2305.44 1542.27 Q2307.27 1545.82 2310.88 1545.82 Q2314.51 1545.82 2316.32 1542.27 Q2318.15 1538.71 2318.15 1531.6 Q2318.15 1524.47 2316.32 1520.93 Q2314.51 1517.37 2310.88 1517.37 M2310.88 1513.66 Q2316.69 1513.66 2319.75 1518.27 Q2322.82 1522.85 2322.82 1531.6 Q2322.82 1540.33 2319.75 1544.94 Q2316.69 1549.52 2310.88 1549.52 Q2305.07 1549.52 2301.99 1544.94 Q2298.94 1540.33 2298.94 1531.6 Q2298.94 1522.85 2301.99 1518.27 Q2305.07 1513.66 2310.88 1513.66 Z" fill="#000000" fill-rule="evenodd" fill-opacity="1" /><polyline clip-path="url(#clip312)" style="stroke:#000000; stroke-linecap:butt; stroke-linejoin:round; stroke-width:2; stroke-opacity:0.1; fill:none" points="
  110.881,1445.72 2352.76,1445.72 
  "/>
<polyline clip-path="url(#clip312)" style="stroke:#000000; stroke-linecap:butt; stroke-linejoin:round; stroke-width:2; stroke-opacity:0.1; fill:none" points="
  110.881,993.013 2352.76,993.013 
  "/>
<polyline clip-path="url(#clip312)" style="stroke:#000000; stroke-linecap:butt; stroke-linejoin:round; stroke-width:2; stroke-opacity:0.1; fill:none" points="
  110.881,540.31 2352.76,540.31 
  "/>
<polyline clip-path="url(#clip312)" style="stroke:#000000; stroke-linecap:butt; stroke-linejoin:round; stroke-width:2; stroke-opacity:0.1; fill:none" points="
  110.881,87.6068 2352.76,87.6068 
  "/>
<polyline clip-path="url(#clip310)" style="stroke:#000000; stroke-linecap:butt; stroke-linejoin:round; stroke-width:4; stroke-opacity:1; fill:none" points="
  110.881,1486.45 110.881,47.2441 
  "/>
<polyline clip-path="url(#clip310)" style="stroke:#000000; stroke-linecap:butt; stroke-linejoin:round; stroke-width:4; stroke-opacity:1; fill:none" points="
  110.881,1445.72 129.779,1445.72 
  "/>
<polyline clip-path="url(#clip310)" style="stroke:#000000; stroke-linecap:butt; stroke-linejoin:round; stroke-width:4; stroke-opacity:1; fill:none" points="
  110.881,993.013 129.779,993.013 
  "/>
<polyline clip-path="url(#clip310)" style="stroke:#000000; stroke-linecap:butt; stroke-linejoin:round; stroke-width:4; stroke-opacity:1; fill:none" points="
  110.881,540.31 129.779,540.31 
  "/>
<polyline clip-path="url(#clip310)" style="stroke:#000000; stroke-linecap:butt; stroke-linejoin:round; stroke-width:4; stroke-opacity:1; fill:none" points="
  110.881,87.6068 129.779,87.6068 
  "/>
<path clip-path="url(#clip310)" d="M62.9365 1431.51 Q59.3254 1431.51 57.4967 1435.08 Q55.6912 1438.62 55.6912 1445.75 Q55.6912 1452.86 57.4967 1456.42 Q59.3254 1459.96 62.9365 1459.96 Q66.5707 1459.96 68.3763 1456.42 Q70.205 1452.86 70.205 1445.75 Q70.205 1438.62 68.3763 1435.08 Q66.5707 1431.51 62.9365 1431.51 M62.9365 1427.81 Q68.7467 1427.81 71.8022 1432.42 Q74.8809 1437 74.8809 1445.75 Q74.8809 1454.48 71.8022 1459.08 Q68.7467 1463.67 62.9365 1463.67 Q57.1264 1463.67 54.0477 1459.08 Q50.9921 1454.48 50.9921 1445.75 Q50.9921 1437 54.0477 1432.42 Q57.1264 1427.81 62.9365 1427.81 Z" fill="#000000" fill-rule="evenodd" fill-opacity="1" /><path clip-path="url(#clip310)" d="M54.9736 1006.36 L62.6124 1006.36 L62.6124 979.992 L54.3023 981.659 L54.3023 977.399 L62.5661 975.733 L67.242 975.733 L67.242 1006.36 L74.8809 1006.36 L74.8809 1010.29 L54.9736 1010.29 L54.9736 1006.36 Z" fill="#000000" fill-rule="evenodd" fill-opacity="1" /><path clip-path="url(#clip310)" d="M58.5615 553.655 L74.8809 553.655 L74.8809 557.59 L52.9366 557.59 L52.9366 553.655 Q55.5986 550.9 60.1819 546.27 Q64.7883 541.618 65.9689 540.275 Q68.2143 537.752 69.0939 536.016 Q69.9967 534.257 69.9967 532.567 Q69.9967 529.812 68.0522 528.076 Q66.1309 526.34 63.0291 526.34 Q60.83 526.34 58.3763 527.104 Q55.9458 527.868 53.168 529.419 L53.168 524.696 Q55.9921 523.562 58.4458 522.983 Q60.8995 522.405 62.9365 522.405 Q68.3068 522.405 71.5013 525.09 Q74.6957 527.775 74.6957 532.266 Q74.6957 534.395 73.8855 536.317 Q73.0985 538.215 70.992 540.807 Q70.4133 541.479 67.3115 544.696 Q64.2096 547.891 58.5615 553.655 Z" fill="#000000" fill-rule="evenodd" fill-opacity="1" /><path clip-path="url(#clip310)" d="M67.7513 86.2527 Q71.1078 86.9703 72.9827 89.2388 Q74.8809 91.5073 74.8809 94.8406 Q74.8809 99.9563 71.3624 102.757 Q67.8439 105.558 61.3624 105.558 Q59.1865 105.558 56.8717 105.118 Q54.5801 104.702 52.1264 103.845 L52.1264 99.3313 Q54.0708 100.466 56.3856 101.044 Q58.7004 101.623 61.2236 101.623 Q65.6217 101.623 67.9133 99.8869 Q70.2281 98.1508 70.2281 94.8406 Q70.2281 91.7851 68.0754 90.0721 Q65.9457 88.336 62.1263 88.336 L58.0986 88.336 L58.0986 84.4934 L62.3115 84.4934 Q65.7606 84.4934 67.5893 83.1277 Q69.418 81.7388 69.418 79.1462 Q69.418 76.4842 67.5198 75.0722 Q65.6448 73.637 62.1263 73.637 Q60.205 73.637 58.006 74.0537 Q55.8069 74.4703 53.168 75.35 L53.168 71.1833 Q55.8301 70.4426 58.1449 70.0722 Q60.4828 69.7018 62.543 69.7018 Q67.867 69.7018 70.9689 72.1324 Q74.0707 74.5398 74.0707 78.6601 Q74.0707 81.5305 72.4272 83.5212 Q70.7837 85.4888 67.7513 86.2527 Z" fill="#000000" fill-rule="evenodd" fill-opacity="1" /><polyline clip-path="url(#clip312)" style="stroke:#009af9; stroke-linecap:butt; stroke-linejoin:round; stroke-width:12; stroke-opacity:1; fill:none" points="
  174.33,976.43 195.694,973.553 217.057,970.251 238.42,966.476 259.784,962.175 281.147,957.295 302.511,951.777 323.874,945.561 345.237,938.587 366.601,930.791 
  387.964,922.111 409.328,912.483 430.691,901.845 452.054,890.139 473.418,877.308 494.781,863.301 516.145,848.072 537.508,831.583 558.871,813.804 580.235,794.716 
  601.598,774.31 622.962,752.591 644.325,729.575 665.688,705.298 687.052,679.807 708.415,653.17 729.779,625.469 751.142,596.806 772.505,567.299 793.869,537.087 
  815.232,506.321 836.596,475.173 857.959,443.828 879.322,412.484 900.686,381.352 922.049,350.65 943.413,320.606 964.776,291.452 986.139,263.42 1007.5,236.74 
  1028.87,211.641 1050.23,188.34 1071.59,167.045 1092.96,147.95 1114.32,131.232 1135.68,117.048 1157.05,105.533 1178.41,96.7978 1199.77,90.9264 1221.14,87.9763 
  1242.5,87.9763 1263.86,90.9264 1285.23,96.7978 1306.59,105.533 1327.95,117.048 1349.32,131.232 1370.68,147.95 1392.04,167.045 1413.41,188.34 1434.77,211.641 
  1456.13,236.74 1477.5,263.42 1498.86,291.452 1520.22,320.606 1541.59,350.65 1562.95,381.352 1584.31,412.484 1605.68,443.828 1627.04,475.173 1648.4,506.321 
  1669.77,537.087 1691.13,567.299 1712.49,596.806 1733.86,625.469 1755.22,653.17 1776.59,679.807 1797.95,705.298 1819.31,729.575 1840.68,752.591 1862.04,774.31 
  1883.4,794.716 1904.77,813.804 1926.13,831.583 1947.49,848.072 1968.86,863.301 1990.22,877.308 2011.58,890.139 2032.95,901.845 2054.31,912.483 2075.67,922.111 
  2097.04,930.791 2118.4,938.587 2139.76,945.561 2161.13,951.777 2182.49,957.295 2203.85,962.175 2225.22,966.476 2246.58,970.251 2267.94,973.553 2289.31,976.43 
  
  "/>
<polyline clip-path="url(#clip312)" style="stroke:#e26f46; stroke-linecap:butt; stroke-linejoin:round; stroke-width:12; stroke-opacity:1; fill:none" points="
  174.33,1445.72 195.694,1445.72 217.057,1445.72 238.42,1445.72 259.784,1445.72 281.147,1445.72 302.511,1445.72 323.874,1445.72 345.237,1445.72 366.601,1445.72 
  387.964,1445.72 409.328,1445.72 430.691,1445.72 452.054,1445.72 473.418,1445.72 494.781,1445.72 516.145,1445.72 537.508,1445.72 558.871,1445.72 580.235,1445.72 
  601.598,1445.72 622.962,1445.72 644.325,1445.72 665.688,1445.72 687.052,1445.72 708.415,1445.72 729.779,1445.72 751.142,1445.72 772.505,1445.72 793.869,1445.72 
  815.232,1445.72 836.596,1445.72 857.959,1445.72 879.322,1445.72 900.686,1445.72 922.049,1445.72 943.413,1445.72 964.776,1445.72 986.139,1445.72 1007.5,1445.72 
  1028.87,1445.72 1050.23,1445.72 1071.59,1445.72 1092.96,1445.72 1114.32,1445.72 1135.68,1445.72 1157.05,1445.72 1178.41,1445.72 1199.77,1445.72 1221.14,1445.72 
  1242.5,1445.72 1263.86,1445.72 1285.23,1445.72 1306.59,1445.72 1327.95,1445.72 1349.32,1445.72 1370.68,1445.72 1392.04,1445.72 1413.41,1445.72 1434.77,1445.72 
  1456.13,1445.72 1477.5,1445.72 1498.86,1445.72 1520.22,1445.72 1541.59,1445.72 1562.95,1445.72 1584.31,1445.72 1605.68,1445.72 1627.04,1445.72 1648.4,1445.72 
  1669.77,1445.72 1691.13,1445.72 1712.49,1445.72 1733.86,1445.72 1755.22,1445.72 1776.59,1445.72 1797.95,1445.72 1819.31,1445.72 1840.68,1445.72 1862.04,1445.72 
  1883.4,1445.72 1904.77,1445.72 1926.13,1445.72 1947.49,1445.72 1968.86,1445.72 1990.22,1445.72 2011.58,1445.72 2032.95,1445.72 2054.31,1445.72 2075.67,1445.72 
  2097.04,1445.72 2118.4,1445.72 2139.76,1445.72 2161.13,1445.72 2182.49,1445.72 2203.85,1445.72 2225.22,1445.72 2246.58,1445.72 2267.94,1445.72 2289.31,1445.72 
  
  "/>
<path clip-path="url(#clip310)" d="
M1976.5 250.738 L2278.03 250.738 L2278.03 95.2176 L1976.5 95.2176  Z
  " fill="#ffffff" fill-rule="evenodd" fill-opacity="1"/>
<polyline clip-path="url(#clip310)" style="stroke:#000000; stroke-linecap:butt; stroke-linejoin:round; stroke-width:4; stroke-opacity:1; fill:none" points="
  1976.5,250.738 2278.03,250.738 2278.03,95.2176 1976.5,95.2176 1976.5,250.738 
  "/>
<polyline clip-path="url(#clip310)" style="stroke:#009af9; stroke-linecap:butt; stroke-linejoin:round; stroke-width:4; stroke-opacity:1; fill:none" points="
  2001.41,147.058 2150.87,147.058 
  "/>
<path clip-path="url(#clip310)" d="M2189.62 166.745 Q2187.81 171.375 2186.1 172.787 Q2184.39 174.199 2181.52 174.199 L2178.11 174.199 L2178.11 170.634 L2180.61 170.634 Q2182.37 170.634 2183.35 169.8 Q2184.32 168.967 2185.5 165.865 L2186.26 163.921 L2175.78 138.412 L2180.29 138.412 L2188.39 158.689 L2196.49 138.412 L2201.01 138.412 L2189.62 166.745 Z" fill="#000000" fill-rule="evenodd" fill-opacity="1" /><path clip-path="url(#clip310)" d="M2208.3 160.402 L2215.94 160.402 L2215.94 134.037 L2207.63 135.703 L2207.63 131.444 L2215.89 129.778 L2220.57 129.778 L2220.57 160.402 L2228.21 160.402 L2228.21 164.338 L2208.3 164.338 L2208.3 160.402 Z" fill="#000000" fill-rule="evenodd" fill-opacity="1" /><polyline clip-path="url(#clip310)" style="stroke:#e26f46; stroke-linecap:butt; stroke-linejoin:round; stroke-width:4; stroke-opacity:1; fill:none" points="
  2001.41,198.898 2150.87,198.898 
  "/>
<path clip-path="url(#clip310)" d="M2189.62 218.585 Q2187.81 223.215 2186.1 224.627 Q2184.39 226.039 2181.52 226.039 L2178.11 226.039 L2178.11 222.474 L2180.61 222.474 Q2182.37 222.474 2183.35 221.64 Q2184.32 220.807 2185.5 217.705 L2186.26 215.761 L2175.78 190.252 L2180.29 190.252 L2188.39 210.529 L2196.49 190.252 L2201.01 190.252 L2189.62 218.585 Z" fill="#000000" fill-rule="evenodd" fill-opacity="1" /><path clip-path="url(#clip310)" d="M2211.52 212.242 L2227.84 212.242 L2227.84 216.178 L2205.89 216.178 L2205.89 212.242 Q2208.55 209.488 2213.14 204.858 Q2217.74 200.205 2218.92 198.863 Q2221.17 196.34 2222.05 194.604 Q2222.95 192.844 2222.95 191.155 Q2222.95 188.4 2221.01 186.664 Q2219.09 184.928 2215.99 184.928 Q2213.79 184.928 2211.33 185.692 Q2208.9 186.455 2206.12 188.006 L2206.12 183.284 Q2208.95 182.15 2211.4 181.571 Q2213.86 180.993 2215.89 180.993 Q2221.26 180.993 2224.46 183.678 Q2227.65 186.363 2227.65 190.854 Q2227.65 192.983 2226.84 194.905 Q2226.05 196.803 2223.95 199.395 Q2223.37 200.067 2220.27 203.284 Q2217.17 206.479 2211.52 212.242 Z" fill="#000000" fill-rule="evenodd" fill-opacity="1" /></svg>
