<?xml version="1.0" encoding="utf-8"?>
<svg xmlns="http://www.w3.org/2000/svg" xmlns:xlink="http://www.w3.org/1999/xlink" width="600" height="400" viewBox="0 0 2400 1600">
<defs>
  <clipPath id="clip620">
    <rect x="0" y="0" width="2400" height="1600"/>
  </clipPath>
</defs>
<path clip-path="url(#clip620)" d="
M0 1600 L2400 1600 L2400 0 L0 0  Z
  " fill="#ffffff" fill-rule="evenodd" fill-opacity="1"/>
<defs>
  <clipPath id="clip621">
    <rect x="480" y="0" width="1681" height="1600"/>
  </clipPath>
</defs>
<path clip-path="url(#clip620)" d="
M156.112 1486.45 L2352.76 1486.45 L2352.76 47.2441 L156.112 47.2441  Z
  " fill="#ffffff" fill-rule="evenodd" fill-opacity="1"/>
<defs>
  <clipPath id="clip622">
    <rect x="156" y="47" width="2198" height="1440"/>
  </clipPath>
</defs>
<polyline clip-path="url(#clip622)" style="stroke:#000000; stroke-linecap:butt; stroke-linejoin:round; stroke-width:2; stroke-opacity:0.1; fill:none" points="
  218.281,1486.45 218.281,47.2441 
  "/>
<polyline clip-path="url(#clip622)" style="stroke:#000000; stroke-linecap:butt; stroke-linejoin:round; stroke-width:2; stroke-opacity:0.1; fill:none" points="
  736.358,1486.45 736.358,47.2441 
  "/>
<polyline clip-path="url(#clip622)" style="stroke:#000000; stroke-linecap:butt; stroke-linejoin:round; stroke-width:2; stroke-opacity:0.1; fill:none" points="
  1254.43,1486.45 1254.43,47.2441 
  "/>
<polyline clip-path="url(#clip622)" style="stroke:#000000; stroke-linecap:butt; stroke-linejoin:round; stroke-width:2; stroke-opacity:0.1; fill:none" points="
  1772.51,1486.45 1772.51,47.2441 
  "/>
<polyline clip-path="url(#clip622)" style="stroke:#000000; stroke-linecap:butt; stroke-linejoin:round; stroke-width:2; stroke-opacity:0.1; fill:none" points="
  2290.59,1486.45 2290.59,47.2441 
  "/>
<polyline clip-path="url(#clip620)" style="stroke:#000000; stroke-linecap:butt; stroke-linejoin:round; stroke-width:4; stroke-opacity:1; fill:none" points="
  156.112,1486.45 2352.76,1486.45 
  "/>
<polyline clip-path="url(#clip620)" style="stroke:#000000; stroke-linecap:butt; stroke-linejoin:round; stroke-width:4; stroke-opacity:1; fill:none" points="
  218.281,1486.45 218.281,1467.55 
  "/>
<polyline clip-path="url(#clip620)" style="stroke:#000000; stroke-linecap:butt; stroke-linejoin:round; stroke-width:4; stroke-opacity:1; fill:none" points="
  736.358,1486.45 736.358,1467.55 
  "/>
<polyline clip-path="url(#clip620)" style="stroke:#000000; stroke-linecap:butt; stroke-linejoin:round; stroke-width:4; stroke-opacity:1; fill:none" points="
  1254.43,1486.45 1254.43,1467.55 
  "/>
<polyline clip-path="url(#clip620)" style="stroke:#000000; stroke-linecap:butt; stroke-linejoin:round; stroke-width:4; stroke-opacity:1; fill:none" points="
  1772.51,1486.45 1772.51,1467.55 
  "/>
<polyline clip-path="url(#clip620)" style="stroke:#000000; stroke-linecap:butt; stroke-linejoin:round; stroke-width:4; stroke-opacity:1; fill:none" points="
  2290.59,1486.45 2290.59,1467.55 
  "/>
<path clip-path="url(#clip620)" d="M164.809 1532.02 L194.485 1532.02 L194.485 1535.95 L164.809 1535.95 L164.809 1532.02 Z" fill="#000000" fill-rule="evenodd" fill-opacity="1" /><path clip-path="url(#clip620)" d="M205.388 1544.91 L213.027 1544.91 L213.027 1518.55 L204.717 1520.21 L204.717 1515.95 L212.98 1514.29 L217.656 1514.29 L217.656 1544.91 L225.295 1544.91 L225.295 1548.85 L205.388 1548.85 L205.388 1544.91 Z" fill="#000000" fill-rule="evenodd" fill-opacity="1" /><path clip-path="url(#clip620)" d="M234.74 1542.97 L239.624 1542.97 L239.624 1548.85 L234.74 1548.85 L234.74 1542.97 Z" fill="#000000" fill-rule="evenodd" fill-opacity="1" /><path clip-path="url(#clip620)" d="M259.809 1517.37 Q256.198 1517.37 254.369 1520.93 Q252.564 1524.47 252.564 1531.6 Q252.564 1538.71 254.369 1542.27 Q256.198 1545.82 259.809 1545.82 Q263.443 1545.82 265.249 1542.27 Q267.077 1538.71 267.077 1531.6 Q267.077 1524.47 265.249 1520.93 Q263.443 1517.37 259.809 1517.37 M259.809 1513.66 Q265.619 1513.66 268.675 1518.27 Q271.753 1522.85 271.753 1531.6 Q271.753 1540.33 268.675 1544.94 Q265.619 1549.52 259.809 1549.52 Q253.999 1549.52 250.92 1544.94 Q247.864 1540.33 247.864 1531.6 Q247.864 1522.85 250.92 1518.27 Q253.999 1513.66 259.809 1513.66 Z" fill="#000000" fill-rule="evenodd" fill-opacity="1" /><path clip-path="url(#clip620)" d="M683.383 1532.02 L713.059 1532.02 L713.059 1535.95 L683.383 1535.95 L683.383 1532.02 Z" fill="#000000" fill-rule="evenodd" fill-opacity="1" /><path clip-path="url(#clip620)" d="M733.152 1517.37 Q729.541 1517.37 727.712 1520.93 Q725.906 1524.47 725.906 1531.6 Q725.906 1538.71 727.712 1542.27 Q729.541 1545.82 733.152 1545.82 Q736.786 1545.82 738.591 1542.27 Q740.42 1538.71 740.42 1531.6 Q740.42 1524.47 738.591 1520.93 Q736.786 1517.37 733.152 1517.37 M733.152 1513.66 Q738.962 1513.66 742.017 1518.27 Q745.096 1522.85 745.096 1531.6 Q745.096 1540.33 742.017 1544.94 Q738.962 1549.52 733.152 1549.52 Q727.341 1549.52 724.263 1544.94 Q721.207 1540.33 721.207 1531.6 Q721.207 1522.85 724.263 1518.27 Q727.341 1513.66 733.152 1513.66 Z" fill="#000000" fill-rule="evenodd" fill-opacity="1" /><path clip-path="url(#clip620)" d="M753.314 1542.97 L758.198 1542.97 L758.198 1548.85 L753.314 1548.85 L753.314 1542.97 Z" fill="#000000" fill-rule="evenodd" fill-opacity="1" /><path clip-path="url(#clip620)" d="M768.429 1514.29 L786.786 1514.29 L786.786 1518.22 L772.712 1518.22 L772.712 1526.7 Q773.73 1526.35 774.749 1526.19 Q775.767 1526 776.786 1526 Q782.573 1526 785.952 1529.17 Q789.332 1532.34 789.332 1537.76 Q789.332 1543.34 785.86 1546.44 Q782.387 1549.52 776.068 1549.52 Q773.892 1549.52 771.624 1549.15 Q769.378 1548.78 766.971 1548.04 L766.971 1543.34 Q769.054 1544.47 771.276 1545.03 Q773.499 1545.58 775.975 1545.58 Q779.98 1545.58 782.318 1543.48 Q784.656 1541.37 784.656 1537.76 Q784.656 1534.15 782.318 1532.04 Q779.98 1529.94 775.975 1529.94 Q774.101 1529.94 772.226 1530.35 Q770.374 1530.77 768.429 1531.65 L768.429 1514.29 Z" fill="#000000" fill-rule="evenodd" fill-opacity="1" /><path clip-path="url(#clip620)" d="M1231.82 1517.37 Q1228.21 1517.37 1226.38 1520.93 Q1224.57 1524.47 1224.57 1531.6 Q1224.57 1538.71 1226.38 1542.27 Q1228.21 1545.82 1231.82 1545.82 Q1235.45 1545.82 1237.26 1542.27 Q1239.09 1538.71 1239.09 1531.6 Q1239.09 1524.47 1237.26 1520.93 Q1235.45 1517.37 1231.82 1517.37 M1231.82 1513.66 Q1237.63 1513.66 1240.68 1518.27 Q1243.76 1522.85 1243.76 1531.6 Q1243.76 1540.33 1240.68 1544.94 Q1237.63 1549.52 1231.82 1549.52 Q1226.01 1549.52 1222.93 1544.94 Q1219.87 1540.33 1219.87 1531.6 Q1219.87 1522.85 1222.93 1518.27 Q1226.01 1513.66 1231.82 1513.66 Z" fill="#000000" fill-rule="evenodd" fill-opacity="1" /><path clip-path="url(#clip620)" d="M1251.98 1542.97 L1256.86 1542.97 L1256.86 1548.85 L1251.98 1548.85 L1251.98 1542.97 Z" fill="#000000" fill-rule="evenodd" fill-opacity="1" /><path clip-path="url(#clip620)" d="M1277.05 1517.37 Q1273.44 1517.37 1271.61 1520.93 Q1269.8 1524.47 1269.8 1531.6 Q1269.8 1538.71 1271.61 1542.27 Q1273.44 1545.82 1277.05 1545.82 Q1280.68 1545.82 1282.49 1542.27 Q1284.32 1538.71 1284.32 1531.6 Q1284.32 1524.47 1282.49 1520.93 Q1280.68 1517.37 1277.05 1517.37 M1277.05 1513.66 Q1282.86 1513.66 1285.92 1518.27 Q1288.99 1522.85 1288.99 1531.6 Q1288.99 1540.33 1285.92 1544.94 Q1282.86 1549.52 1277.05 1549.52 Q1271.24 1549.52 1268.16 1544.94 Q1265.11 1540.33 1265.11 1531.6 Q1265.11 1522.85 1268.16 1518.27 Q1271.24 1513.66 1277.05 1513.66 Z" fill="#000000" fill-rule="evenodd" fill-opacity="1" /><path clip-path="url(#clip620)" d="M1750.39 1517.37 Q1746.78 1517.37 1744.95 1520.93 Q1743.15 1524.47 1743.15 1531.6 Q1743.15 1538.71 1744.95 1542.27 Q1746.78 1545.82 1750.39 1545.82 Q1754.03 1545.82 1755.83 1542.27 Q1757.66 1538.71 1757.66 1531.6 Q1757.66 1524.47 1755.83 1520.93 Q1754.03 1517.37 1750.39 1517.37 M1750.39 1513.66 Q1756.2 1513.66 1759.26 1518.27 Q1762.34 1522.85 1762.34 1531.6 Q1762.34 1540.33 1759.26 1544.94 Q1756.2 1549.52 1750.39 1549.52 Q1744.58 1549.52 1741.5 1544.94 Q1738.45 1540.33 1738.45 1531.6 Q1738.45 1522.85 1741.5 1518.27 Q1744.58 1513.66 1750.39 1513.66 Z" fill="#000000" fill-rule="evenodd" fill-opacity="1" /><path clip-path="url(#clip620)" d="M1770.55 1542.97 L1775.44 1542.97 L1775.44 1548.85 L1770.55 1548.85 L1770.55 1542.97 Z" fill="#000000" fill-rule="evenodd" fill-opacity="1" /><path clip-path="url(#clip620)" d="M1785.67 1514.29 L1804.03 1514.29 L1804.03 1518.22 L1789.95 1518.22 L1789.95 1526.7 Q1790.97 1526.35 1791.99 1526.19 Q1793.01 1526 1794.03 1526 Q1799.81 1526 1803.19 1529.17 Q1806.57 1532.34 1806.57 1537.76 Q1806.57 1543.34 1803.1 1546.44 Q1799.63 1549.52 1793.31 1549.52 Q1791.13 1549.52 1788.86 1549.15 Q1786.62 1548.78 1784.21 1548.04 L1784.21 1543.34 Q1786.3 1544.47 1788.52 1545.03 Q1790.74 1545.58 1793.22 1545.58 Q1797.22 1545.58 1799.56 1543.48 Q1801.9 1541.37 1801.9 1537.76 Q1801.9 1534.15 1799.56 1532.04 Q1797.22 1529.94 1793.22 1529.94 Q1791.34 1529.94 1789.47 1530.35 Q1787.61 1530.77 1785.67 1531.65 L1785.67 1514.29 Z" fill="#000000" fill-rule="evenodd" fill-opacity="1" /><path clip-path="url(#clip620)" d="M2257.74 1544.91 L2265.38 1544.91 L2265.38 1518.55 L2257.07 1520.21 L2257.07 1515.95 L2265.33 1514.29 L2270.01 1514.29 L2270.01 1544.91 L2277.65 1544.91 L2277.65 1548.85 L2257.74 1548.85 L2257.74 1544.91 Z" fill="#000000" fill-rule="evenodd" fill-opacity="1" /><path clip-path="url(#clip620)" d="M2287.09 1542.97 L2291.98 1542.97 L2291.98 1548.85 L2287.09 1548.85 L2287.09 1542.97 Z" fill="#000000" fill-rule="evenodd" fill-opacity="1" /><path clip-path="url(#clip620)" d="M2312.16 1517.37 Q2308.55 1517.37 2306.72 1520.93 Q2304.92 1524.47 2304.92 1531.6 Q2304.92 1538.71 2306.72 1542.27 Q2308.55 1545.82 2312.16 1545.82 Q2315.79 1545.82 2317.6 1542.27 Q2319.43 1538.71 2319.43 1531.6 Q2319.43 1524.47 2317.6 1520.93 Q2315.79 1517.37 2312.16 1517.37 M2312.16 1513.66 Q2317.97 1513.66 2321.03 1518.27 Q2324.11 1522.85 2324.11 1531.6 Q2324.11 1540.33 2321.03 1544.94 Q2317.97 1549.52 2312.16 1549.52 Q2306.35 1549.52 2303.27 1544.94 Q2300.22 1540.33 2300.22 1531.6 Q2300.22 1522.85 2303.27 1518.27 Q2306.35 1513.66 2312.16 1513.66 Z" fill="#000000" fill-rule="evenodd" fill-opacity="1" /><polyline clip-path="url(#clip622)" style="stroke:#000000; stroke-linecap:butt; stroke-linejoin:round; stroke-width:2; stroke-opacity:0.1; fill:none" points="
  156.112,1445.72 2352.76,1445.72 
  "/>
<polyline clip-path="url(#clip622)" style="stroke:#000000; stroke-linecap:butt; stroke-linejoin:round; stroke-width:2; stroke-opacity:0.1; fill:none" points="
  156.112,1106.28 2352.76,1106.28 
  "/>
<polyline clip-path="url(#clip622)" style="stroke:#000000; stroke-linecap:butt; stroke-linejoin:round; stroke-width:2; stroke-opacity:0.1; fill:none" points="
  156.112,766.846 2352.76,766.846 
  "/>
<polyline clip-path="url(#clip622)" style="stroke:#000000; stroke-linecap:butt; stroke-linejoin:round; stroke-width:2; stroke-opacity:0.1; fill:none" points="
  156.112,427.411 2352.76,427.411 
  "/>
<polyline clip-path="url(#clip622)" style="stroke:#000000; stroke-linecap:butt; stroke-linejoin:round; stroke-width:2; stroke-opacity:0.1; fill:none" points="
  156.112,87.9763 2352.76,87.9763 
  "/>
<polyline clip-path="url(#clip620)" style="stroke:#000000; stroke-linecap:butt; stroke-linejoin:round; stroke-width:4; stroke-opacity:1; fill:none" points="
  156.112,1486.45 156.112,47.2441 
  "/>
<polyline clip-path="url(#clip620)" style="stroke:#000000; stroke-linecap:butt; stroke-linejoin:round; stroke-width:4; stroke-opacity:1; fill:none" points="
  156.112,1445.72 175.01,1445.72 
  "/>
<polyline clip-path="url(#clip620)" style="stroke:#000000; stroke-linecap:butt; stroke-linejoin:round; stroke-width:4; stroke-opacity:1; fill:none" points="
  156.112,1106.28 175.01,1106.28 
  "/>
<polyline clip-path="url(#clip620)" style="stroke:#000000; stroke-linecap:butt; stroke-linejoin:round; stroke-width:4; stroke-opacity:1; fill:none" points="
  156.112,766.846 175.01,766.846 
  "/>
<polyline clip-path="url(#clip620)" style="stroke:#000000; stroke-linecap:butt; stroke-linejoin:round; stroke-width:4; stroke-opacity:1; fill:none" points="
  156.112,427.411 175.01,427.411 
  "/>
<polyline clip-path="url(#clip620)" style="stroke:#000000; stroke-linecap:butt; stroke-linejoin:round; stroke-width:4; stroke-opacity:1; fill:none" points="
  156.112,87.9763 175.01,87.9763 
  "/>
<path clip-path="url(#clip620)" d="M62.9365 1431.51 Q59.3254 1431.51 57.4967 1435.08 Q55.6912 1438.62 55.6912 1445.75 Q55.6912 1452.86 57.4967 1456.42 Q59.3254 1459.96 62.9365 1459.96 Q66.5707 1459.96 68.3763 1456.42 Q70.205 1452.86 70.205 1445.75 Q70.205 1438.62 68.3763 1435.08 Q66.5707 1431.51 62.9365 1431.51 M62.9365 1427.81 Q68.7467 1427.81 71.8022 1432.42 Q74.8809 1437 74.8809 1445.75 Q74.8809 1454.48 71.8022 1459.08 Q68.7467 1463.67 62.9365 1463.67 Q57.1264 1463.67 54.0477 1459.08 Q50.9921 1454.48 50.9921 1445.75 Q50.9921 1437 54.0477 1432.42 Q57.1264 1427.81 62.9365 1427.81 Z" fill="#000000" fill-rule="evenodd" fill-opacity="1" /><path clip-path="url(#clip620)" d="M83.0984 1457.12 L87.9827 1457.12 L87.9827 1463 L83.0984 1463 L83.0984 1457.12 Z" fill="#000000" fill-rule="evenodd" fill-opacity="1" /><path clip-path="url(#clip620)" d="M108.168 1431.51 Q104.557 1431.51 102.728 1435.08 Q100.922 1438.62 100.922 1445.75 Q100.922 1452.86 102.728 1456.42 Q104.557 1459.96 108.168 1459.96 Q111.802 1459.96 113.608 1456.42 Q115.436 1452.86 115.436 1445.75 Q115.436 1438.62 113.608 1435.08 Q111.802 1431.51 108.168 1431.51 M108.168 1427.81 Q113.978 1427.81 117.033 1432.42 Q120.112 1437 120.112 1445.75 Q120.112 1454.48 117.033 1459.08 Q113.978 1463.67 108.168 1463.67 Q102.358 1463.67 99.2789 1459.08 Q96.2234 1454.48 96.2234 1445.75 Q96.2234 1437 99.2789 1432.42 Q102.358 1427.81 108.168 1427.81 Z" fill="#000000" fill-rule="evenodd" fill-opacity="1" /><path clip-path="url(#clip620)" d="M63.9319 1092.08 Q60.3208 1092.08 58.4921 1095.64 Q56.6865 1099.19 56.6865 1106.32 Q56.6865 1113.42 58.4921 1116.99 Q60.3208 1120.53 63.9319 1120.53 Q67.5661 1120.53 69.3717 1116.99 Q71.2004 1113.42 71.2004 1106.32 Q71.2004 1099.19 69.3717 1095.64 Q67.5661 1092.08 63.9319 1092.08 M63.9319 1088.38 Q69.742 1088.38 72.7976 1092.98 Q75.8763 1097.57 75.8763 1106.32 Q75.8763 1115.04 72.7976 1119.65 Q69.742 1124.23 63.9319 1124.23 Q58.1217 1124.23 55.043 1119.65 Q51.9875 1115.04 51.9875 1106.32 Q51.9875 1097.57 55.043 1092.98 Q58.1217 1088.38 63.9319 1088.38 Z" fill="#000000" fill-rule="evenodd" fill-opacity="1" /><path clip-path="url(#clip620)" d="M84.0938 1117.68 L88.978 1117.68 L88.978 1123.56 L84.0938 1123.56 L84.0938 1117.68 Z" fill="#000000" fill-rule="evenodd" fill-opacity="1" /><path clip-path="url(#clip620)" d="M99.2095 1089 L117.566 1089 L117.566 1092.94 L103.492 1092.94 L103.492 1101.41 Q104.51 1101.06 105.529 1100.9 Q106.547 1100.71 107.566 1100.71 Q113.353 1100.71 116.733 1103.89 Q120.112 1107.06 120.112 1112.47 Q120.112 1118.05 116.64 1121.15 Q113.168 1124.23 106.848 1124.23 Q104.672 1124.23 102.404 1123.86 Q100.159 1123.49 97.7511 1122.75 L97.7511 1118.05 Q99.8345 1119.19 102.057 1119.74 Q104.279 1120.3 106.756 1120.3 Q110.76 1120.3 113.098 1118.19 Q115.436 1116.08 115.436 1112.47 Q115.436 1108.86 113.098 1106.76 Q110.76 1104.65 106.756 1104.65 Q104.881 1104.65 103.006 1105.07 Q101.154 1105.48 99.2095 1106.36 L99.2095 1089 Z" fill="#000000" fill-rule="evenodd" fill-opacity="1" /><path clip-path="url(#clip620)" d="M53.7467 780.191 L61.3856 780.191 L61.3856 753.825 L53.0754 755.492 L53.0754 751.233 L61.3393 749.566 L66.0152 749.566 L66.0152 780.191 L73.654 780.191 L73.654 784.126 L53.7467 784.126 L53.7467 780.191 Z" fill="#000000" fill-rule="evenodd" fill-opacity="1" /><path clip-path="url(#clip620)" d="M83.0984 778.246 L87.9827 778.246 L87.9827 784.126 L83.0984 784.126 L83.0984 778.246 Z" fill="#000000" fill-rule="evenodd" fill-opacity="1" /><path clip-path="url(#clip620)" d="M108.168 752.645 Q104.557 752.645 102.728 756.209 Q100.922 759.751 100.922 766.881 Q100.922 773.987 102.728 777.552 Q104.557 781.094 108.168 781.094 Q111.802 781.094 113.608 777.552 Q115.436 773.987 115.436 766.881 Q115.436 759.751 113.608 756.209 Q111.802 752.645 108.168 752.645 M108.168 748.941 Q113.978 748.941 117.033 753.547 Q120.112 758.131 120.112 766.881 Q120.112 775.608 117.033 780.214 Q113.978 784.797 108.168 784.797 Q102.358 784.797 99.2789 780.214 Q96.2234 775.608 96.2234 766.881 Q96.2234 758.131 99.2789 753.547 Q102.358 748.941 108.168 748.941 Z" fill="#000000" fill-rule="evenodd" fill-opacity="1" /><path clip-path="url(#clip620)" d="M54.7421 440.756 L62.381 440.756 L62.381 414.39 L54.0708 416.057 L54.0708 411.798 L62.3347 410.131 L67.0106 410.131 L67.0106 440.756 L74.6494 440.756 L74.6494 444.691 L54.7421 444.691 L54.7421 440.756 Z" fill="#000000" fill-rule="evenodd" fill-opacity="1" /><path clip-path="url(#clip620)" d="M84.0938 438.812 L88.978 438.812 L88.978 444.691 L84.0938 444.691 L84.0938 438.812 Z" fill="#000000" fill-rule="evenodd" fill-opacity="1" /><path clip-path="url(#clip620)" d="M99.2095 410.131 L117.566 410.131 L117.566 414.066 L103.492 414.066 L103.492 422.538 Q104.51 422.191 105.529 422.029 Q106.547 421.844 107.566 421.844 Q113.353 421.844 116.733 425.015 Q120.112 428.187 120.112 433.603 Q120.112 439.182 116.64 442.284 Q113.168 445.362 106.848 445.362 Q104.672 445.362 102.404 444.992 Q100.159 444.622 97.7511 443.881 L97.7511 439.182 Q99.8345 440.316 102.057 440.872 Q104.279 441.427 106.756 441.427 Q110.76 441.427 113.098 439.321 Q115.436 437.214 115.436 433.603 Q115.436 429.992 113.098 427.886 Q110.76 425.779 106.756 425.779 Q104.881 425.779 103.006 426.196 Q101.154 426.613 99.2095 427.492 L99.2095 410.131 Z" fill="#000000" fill-rule="evenodd" fill-opacity="1" /><path clip-path="url(#clip620)" d="M56.9643 101.321 L73.2837 101.321 L73.2837 105.256 L51.3393 105.256 L51.3393 101.321 Q54.0014 98.5665 58.5847 93.9369 Q63.1911 89.2841 64.3717 87.9416 Q66.617 85.4184 67.4967 83.6823 Q68.3994 81.9231 68.3994 80.2333 Q68.3994 77.4786 66.455 75.7425 Q64.5337 74.0064 61.4319 74.0064 Q59.2328 74.0064 56.7791 74.7703 Q54.3486 75.5342 51.5708 77.0851 L51.5708 72.3629 Q54.3949 71.2287 56.8486 70.65 Q59.3023 70.0713 61.3393 70.0713 Q66.7096 70.0713 69.9041 72.7565 Q73.0985 75.4416 73.0985 79.9323 Q73.0985 82.062 72.2883 83.9832 Q71.5013 85.8814 69.3948 88.474 Q68.8161 89.1453 65.7143 92.3628 Q62.6124 95.5573 56.9643 101.321 Z" fill="#000000" fill-rule="evenodd" fill-opacity="1" /><path clip-path="url(#clip620)" d="M83.0984 99.3767 L87.9827 99.3767 L87.9827 105.256 L83.0984 105.256 L83.0984 99.3767 Z" fill="#000000" fill-rule="evenodd" fill-opacity="1" /><path clip-path="url(#clip620)" d="M108.168 73.775 Q104.557 73.775 102.728 77.3398 Q100.922 80.8814 100.922 88.011 Q100.922 95.1174 102.728 98.6822 Q104.557 102.224 108.168 102.224 Q111.802 102.224 113.608 98.6822 Q115.436 95.1174 115.436 88.011 Q115.436 80.8814 113.608 77.3398 Q111.802 73.775 108.168 73.775 M108.168 70.0713 Q113.978 70.0713 117.033 74.6777 Q120.112 79.261 120.112 88.011 Q120.112 96.7378 117.033 101.344 Q113.978 105.928 108.168 105.928 Q102.358 105.928 99.2789 101.344 Q96.2234 96.7378 96.2234 88.011 Q96.2234 79.261 99.2789 74.6777 Q102.358 70.0713 108.168 70.0713 Z" fill="#000000" fill-rule="evenodd" fill-opacity="1" /><polyline clip-path="url(#clip622)" style="stroke:#009af9; stroke-linecap:butt; stroke-linejoin:round; stroke-width:12; stroke-opacity:1; fill:none" points="
  218.281,1438.92 321.897,1380.59 425.512,1267.44 529.127,1109.57 632.742,921.087 736.358,718.825 839.973,520.852 943.588,344.854 1047.2,206.551 1150.82,118.297 
  1254.43,87.9763 1358.05,118.297 1461.66,206.551 1565.28,344.854 1668.9,520.852 1772.51,718.825 1876.13,921.087 1979.74,1109.57 2083.36,1267.44 2186.97,1380.59 
  2290.59,1438.92 
  "/>
<circle clip-path="url(#clip622)" cx="943.588" cy="344.854" r="14.4" fill="#e26f46" fill-rule="evenodd" fill-opacity="1" stroke="#000000" stroke-opacity="1" stroke-width="3.2"/>
<circle clip-path="url(#clip622)" cx="1047.2" cy="206.551" r="14.4" fill="#e26f46" fill-rule="evenodd" fill-opacity="1" stroke="#000000" stroke-opacity="1" stroke-width="3.2"/>
<circle clip-path="url(#clip622)" cx="1150.82" cy="118.297" r="14.4" fill="#e26f46" fill-rule="evenodd" fill-opacity="1" stroke="#000000" stroke-opacity="1" stroke-width="3.2"/>
<circle clip-path="url(#clip622)" cx="1254.43" cy="87.9763" r="14.4" fill="#e26f46" fill-rule="evenodd" fill-opacity="1" stroke="#000000" stroke-opacity="1" stroke-width="3.2"/>
<circle clip-path="url(#clip622)" cx="1358.05" cy="118.297" r="14.4" fill="#e26f46" fill-rule="evenodd" fill-opacity="1" stroke="#000000" stroke-opacity="1" stroke-width="3.2"/>
<circle clip-path="url(#clip622)" cx="1461.66" cy="206.551" r="14.4" fill="#e26f46" fill-rule="evenodd" fill-opacity="1" stroke="#000000" stroke-opacity="1" stroke-width="3.2"/>
<circle clip-path="url(#clip622)" cx="1565.28" cy="344.854" r="14.4" fill="#e26f46" fill-rule="evenodd" fill-opacity="1" stroke="#000000" stroke-opacity="1" stroke-width="3.2"/>
<polyline clip-path="url(#clip622)" style="stroke:#3da44d; stroke-linecap:butt; stroke-linejoin:round; stroke-width:12; stroke-opacity:1; fill:none" points="
  218.281,1445.72 321.897,1445.72 425.512,1445.72 529.127,1445.72 632.742,1445.72 736.358,1445.72 839.973,1445.72 943.588,344.854 1047.2,206.551 1150.82,118.297 
  1254.43,87.9763 1358.05,118.297 1461.66,206.551 1565.28,344.854 1668.9,1445.72 1772.51,1445.72 1876.13,1445.72 1979.74,1445.72 2083.36,1445.72 2186.97,1445.72 
  2290.59,1445.72 
  "/>
<line clip-path="url(#clip622)" x1="218.281" y1="1445.72" x2="218.281" y2="1429.72" style="stroke:#3da44d; stroke-width:3.2; stroke-opacity:1"/>
<line clip-path="url(#clip622)" x1="218.281" y1="1445.72" x2="202.281" y2="1445.72" style="stroke:#3da44d; stroke-width:3.2; stroke-opacity:1"/>
<line clip-path="url(#clip622)" x1="218.281" y1="1445.72" x2="218.281" y2="1461.72" style="stroke:#3da44d; stroke-width:3.2; stroke-opacity:1"/>
<line clip-path="url(#clip622)" x1="218.281" y1="1445.72" x2="234.281" y2="1445.72" style="stroke:#3da44d; stroke-width:3.2; stroke-opacity:1"/>
<line clip-path="url(#clip622)" x1="321.897" y1="1445.72" x2="321.897" y2="1429.72" style="stroke:#3da44d; stroke-width:3.2; stroke-opacity:1"/>
<line clip-path="url(#clip622)" x1="321.897" y1="1445.72" x2="305.897" y2="1445.72" style="stroke:#3da44d; stroke-width:3.2; stroke-opacity:1"/>
<line clip-path="url(#clip622)" x1="321.897" y1="1445.72" x2="321.897" y2="1461.72" style="stroke:#3da44d; stroke-width:3.2; stroke-opacity:1"/>
<line clip-path="url(#clip622)" x1="321.897" y1="1445.72" x2="337.897" y2="1445.72" style="stroke:#3da44d; stroke-width:3.2; stroke-opacity:1"/>
<line clip-path="url(#clip622)" x1="425.512" y1="1445.72" x2="425.512" y2="1429.72" style="stroke:#3da44d; stroke-width:3.2; stroke-opacity:1"/>
<line clip-path="url(#clip622)" x1="425.512" y1="1445.72" x2="409.512" y2="1445.72" style="stroke:#3da44d; stroke-width:3.2; stroke-opacity:1"/>
<line clip-path="url(#clip622)" x1="425.512" y1="1445.72" x2="425.512" y2="1461.72" style="stroke:#3da44d; stroke-width:3.2; stroke-opacity:1"/>
<line clip-path="url(#clip622)" x1="425.512" y1="1445.72" x2="441.512" y2="1445.72" style="stroke:#3da44d; stroke-width:3.2; stroke-opacity:1"/>
<line clip-path="url(#clip622)" x1="529.127" y1="1445.72" x2="529.127" y2="1429.72" style="stroke:#3da44d; stroke-width:3.2; stroke-opacity:1"/>
<line clip-path="url(#clip622)" x1="529.127" y1="1445.72" x2="513.127" y2="1445.72" style="stroke:#3da44d; stroke-width:3.2; stroke-opacity:1"/>
<line clip-path="url(#clip622)" x1="529.127" y1="1445.72" x2="529.127" y2="1461.72" style="stroke:#3da44d; stroke-width:3.2; stroke-opacity:1"/>
<line clip-path="url(#clip622)" x1="529.127" y1="1445.72" x2="545.127" y2="1445.72" style="stroke:#3da44d; stroke-width:3.2; stroke-opacity:1"/>
<line clip-path="url(#clip622)" x1="632.742" y1="1445.72" x2="632.742" y2="1429.72" style="stroke:#3da44d; stroke-width:3.2; stroke-opacity:1"/>
<line clip-path="url(#clip622)" x1="632.742" y1="1445.72" x2="616.742" y2="1445.72" style="stroke:#3da44d; stroke-width:3.2; stroke-opacity:1"/>
<line clip-path="url(#clip622)" x1="632.742" y1="1445.72" x2="632.742" y2="1461.72" style="stroke:#3da44d; stroke-width:3.2; stroke-opacity:1"/>
<line clip-path="url(#clip622)" x1="632.742" y1="1445.72" x2="648.742" y2="1445.72" style="stroke:#3da44d; stroke-width:3.2; stroke-opacity:1"/>
<line clip-path="url(#clip622)" x1="736.358" y1="1445.72" x2="736.358" y2="1429.72" style="stroke:#3da44d; stroke-width:3.2; stroke-opacity:1"/>
<line clip-path="url(#clip622)" x1="736.358" y1="1445.72" x2="720.358" y2="1445.72" style="stroke:#3da44d; stroke-width:3.2; stroke-opacity:1"/>
<line clip-path="url(#clip622)" x1="736.358" y1="1445.72" x2="736.358" y2="1461.72" style="stroke:#3da44d; stroke-width:3.2; stroke-opacity:1"/>
<line clip-path="url(#clip622)" x1="736.358" y1="1445.72" x2="752.358" y2="1445.72" style="stroke:#3da44d; stroke-width:3.2; stroke-opacity:1"/>
<line clip-path="url(#clip622)" x1="839.973" y1="1445.72" x2="839.973" y2="1429.72" style="stroke:#3da44d; stroke-width:3.2; stroke-opacity:1"/>
<line clip-path="url(#clip622)" x1="839.973" y1="1445.72" x2="823.973" y2="1445.72" style="stroke:#3da44d; stroke-width:3.2; stroke-opacity:1"/>
<line clip-path="url(#clip622)" x1="839.973" y1="1445.72" x2="839.973" y2="1461.72" style="stroke:#3da44d; stroke-width:3.2; stroke-opacity:1"/>
<line clip-path="url(#clip622)" x1="839.973" y1="1445.72" x2="855.973" y2="1445.72" style="stroke:#3da44d; stroke-width:3.2; stroke-opacity:1"/>
<line clip-path="url(#clip622)" x1="943.588" y1="344.854" x2="943.588" y2="328.854" style="stroke:#3da44d; stroke-width:3.2; stroke-opacity:1"/>
<line clip-path="url(#clip622)" x1="943.588" y1="344.854" x2="927.588" y2="344.854" style="stroke:#3da44d; stroke-width:3.2; stroke-opacity:1"/>
<line clip-path="url(#clip622)" x1="943.588" y1="344.854" x2="943.588" y2="360.854" style="stroke:#3da44d; stroke-width:3.2; stroke-opacity:1"/>
<line clip-path="url(#clip622)" x1="943.588" y1="344.854" x2="959.588" y2="344.854" style="stroke:#3da44d; stroke-width:3.2; stroke-opacity:1"/>
<line clip-path="url(#clip622)" x1="1047.2" y1="206.551" x2="1047.2" y2="190.551" style="stroke:#3da44d; stroke-width:3.2; stroke-opacity:1"/>
<line clip-path="url(#clip622)" x1="1047.2" y1="206.551" x2="1031.2" y2="206.551" style="stroke:#3da44d; stroke-width:3.2; stroke-opacity:1"/>
<line clip-path="url(#clip622)" x1="1047.2" y1="206.551" x2="1047.2" y2="222.551" style="stroke:#3da44d; stroke-width:3.2; stroke-opacity:1"/>
<line clip-path="url(#clip622)" x1="1047.2" y1="206.551" x2="1063.2" y2="206.551" style="stroke:#3da44d; stroke-width:3.2; stroke-opacity:1"/>
<line clip-path="url(#clip622)" x1="1150.82" y1="118.297" x2="1150.82" y2="102.297" style="stroke:#3da44d; stroke-width:3.2; stroke-opacity:1"/>
<line clip-path="url(#clip622)" x1="1150.82" y1="118.297" x2="1134.82" y2="118.297" style="stroke:#3da44d; stroke-width:3.2; stroke-opacity:1"/>
<line clip-path="url(#clip622)" x1="1150.82" y1="118.297" x2="1150.82" y2="134.297" style="stroke:#3da44d; stroke-width:3.2; stroke-opacity:1"/>
<line clip-path="url(#clip622)" x1="1150.82" y1="118.297" x2="1166.82" y2="118.297" style="stroke:#3da44d; stroke-width:3.2; stroke-opacity:1"/>
<line clip-path="url(#clip622)" x1="1254.43" y1="87.9763" x2="1254.43" y2="71.9763" style="stroke:#3da44d; stroke-width:3.2; stroke-opacity:1"/>
<line clip-path="url(#clip622)" x1="1254.43" y1="87.9763" x2="1238.43" y2="87.9763" style="stroke:#3da44d; stroke-width:3.2; stroke-opacity:1"/>
<line clip-path="url(#clip622)" x1="1254.43" y1="87.9763" x2="1254.43" y2="103.976" style="stroke:#3da44d; stroke-width:3.2; stroke-opacity:1"/>
<line clip-path="url(#clip622)" x1="1254.43" y1="87.9763" x2="1270.43" y2="87.9763" style="stroke:#3da44d; stroke-width:3.2; stroke-opacity:1"/>
<line clip-path="url(#clip622)" x1="1358.05" y1="118.297" x2="1358.05" y2="102.297" style="stroke:#3da44d; stroke-width:3.2; stroke-opacity:1"/>
<line clip-path="url(#clip622)" x1="1358.05" y1="118.297" x2="1342.05" y2="118.297" style="stroke:#3da44d; stroke-width:3.2; stroke-opacity:1"/>
<line clip-path="url(#clip622)" x1="1358.05" y1="118.297" x2="1358.05" y2="134.297" style="stroke:#3da44d; stroke-width:3.2; stroke-opacity:1"/>
<line clip-path="url(#clip622)" x1="1358.05" y1="118.297" x2="1374.05" y2="118.297" style="stroke:#3da44d; stroke-width:3.2; stroke-opacity:1"/>
<line clip-path="url(#clip622)" x1="1461.66" y1="206.551" x2="1461.66" y2="190.551" style="stroke:#3da44d; stroke-width:3.2; stroke-opacity:1"/>
<line clip-path="url(#clip622)" x1="1461.66" y1="206.551" x2="1445.66" y2="206.551" style="stroke:#3da44d; stroke-width:3.2; stroke-opacity:1"/>
<line clip-path="url(#clip622)" x1="1461.66" y1="206.551" x2="1461.66" y2="222.551" style="stroke:#3da44d; stroke-width:3.2; stroke-opacity:1"/>
<line clip-path="url(#clip622)" x1="1461.66" y1="206.551" x2="1477.66" y2="206.551" style="stroke:#3da44d; stroke-width:3.2; stroke-opacity:1"/>
<line clip-path="url(#clip622)" x1="1565.28" y1="344.854" x2="1565.28" y2="328.854" style="stroke:#3da44d; stroke-width:3.2; stroke-opacity:1"/>
<line clip-path="url(#clip622)" x1="1565.28" y1="344.854" x2="1549.28" y2="344.854" style="stroke:#3da44d; stroke-width:3.2; stroke-opacity:1"/>
<line clip-path="url(#clip622)" x1="1565.28" y1="344.854" x2="1565.28" y2="360.854" style="stroke:#3da44d; stroke-width:3.2; stroke-opacity:1"/>
<line clip-path="url(#clip622)" x1="1565.28" y1="344.854" x2="1581.28" y2="344.854" style="stroke:#3da44d; stroke-width:3.2; stroke-opacity:1"/>
<line clip-path="url(#clip622)" x1="1668.9" y1="1445.72" x2="1668.9" y2="1429.72" style="stroke:#3da44d; stroke-width:3.2; stroke-opacity:1"/>
<line clip-path="url(#clip622)" x1="1668.9" y1="1445.72" x2="1652.9" y2="1445.72" style="stroke:#3da44d; stroke-width:3.2; stroke-opacity:1"/>
<line clip-path="url(#clip622)" x1="1668.9" y1="1445.72" x2="1668.9" y2="1461.72" style="stroke:#3da44d; stroke-width:3.2; stroke-opacity:1"/>
<line clip-path="url(#clip622)" x1="1668.9" y1="1445.72" x2="1684.9" y2="1445.72" style="stroke:#3da44d; stroke-width:3.2; stroke-opacity:1"/>
<line clip-path="url(#clip622)" x1="1772.51" y1="1445.72" x2="1772.51" y2="1429.72" style="stroke:#3da44d; stroke-width:3.2; stroke-opacity:1"/>
<line clip-path="url(#clip622)" x1="1772.51" y1="1445.72" x2="1756.51" y2="1445.72" style="stroke:#3da44d; stroke-width:3.2; stroke-opacity:1"/>
<line clip-path="url(#clip622)" x1="1772.51" y1="1445.72" x2="1772.51" y2="1461.72" style="stroke:#3da44d; stroke-width:3.2; stroke-opacity:1"/>
<line clip-path="url(#clip622)" x1="1772.51" y1="1445.72" x2="1788.51" y2="1445.72" style="stroke:#3da44d; stroke-width:3.2; stroke-opacity:1"/>
<line clip-path="url(#clip622)" x1="1876.13" y1="1445.72" x2="1876.13" y2="1429.72" style="stroke:#3da44d; stroke-width:3.2; stroke-opacity:1"/>
<line clip-path="url(#clip622)" x1="1876.13" y1="1445.72" x2="1860.13" y2="1445.72" style="stroke:#3da44d; stroke-width:3.2; stroke-opacity:1"/>
<line clip-path="url(#clip622)" x1="1876.13" y1="1445.72" x2="1876.13" y2="1461.72" style="stroke:#3da44d; stroke-width:3.2; stroke-opacity:1"/>
<line clip-path="url(#clip622)" x1="1876.13" y1="1445.72" x2="1892.13" y2="1445.72" style="stroke:#3da44d; stroke-width:3.2; stroke-opacity:1"/>
<line clip-path="url(#clip622)" x1="1979.74" y1="1445.72" x2="1979.74" y2="1429.72" style="stroke:#3da44d; stroke-width:3.2; stroke-opacity:1"/>
<line clip-path="url(#clip622)" x1="1979.74" y1="1445.72" x2="1963.74" y2="1445.72" style="stroke:#3da44d; stroke-width:3.2; stroke-opacity:1"/>
<line clip-path="url(#clip622)" x1="1979.74" y1="1445.72" x2="1979.74" y2="1461.72" style="stroke:#3da44d; stroke-width:3.2; stroke-opacity:1"/>
<line clip-path="url(#clip622)" x1="1979.74" y1="1445.72" x2="1995.74" y2="1445.72" style="stroke:#3da44d; stroke-width:3.2; stroke-opacity:1"/>
<line clip-path="url(#clip622)" x1="2083.36" y1="1445.72" x2="2083.36" y2="1429.72" style="stroke:#3da44d; stroke-width:3.2; stroke-opacity:1"/>
<line clip-path="url(#clip622)" x1="2083.36" y1="1445.72" x2="2067.36" y2="1445.72" style="stroke:#3da44d; stroke-width:3.2; stroke-opacity:1"/>
<line clip-path="url(#clip622)" x1="2083.36" y1="1445.72" x2="2083.36" y2="1461.72" style="stroke:#3da44d; stroke-width:3.2; stroke-opacity:1"/>
<line clip-path="url(#clip622)" x1="2083.36" y1="1445.72" x2="2099.36" y2="1445.72" style="stroke:#3da44d; stroke-width:3.2; stroke-opacity:1"/>
<line clip-path="url(#clip622)" x1="2186.97" y1="1445.72" x2="2186.97" y2="1429.72" style="stroke:#3da44d; stroke-width:3.2; stroke-opacity:1"/>
<line clip-path="url(#clip622)" x1="2186.97" y1="1445.72" x2="2170.97" y2="1445.72" style="stroke:#3da44d; stroke-width:3.2; stroke-opacity:1"/>
<line clip-path="url(#clip622)" x1="2186.97" y1="1445.72" x2="2186.97" y2="1461.72" style="stroke:#3da44d; stroke-width:3.2; stroke-opacity:1"/>
<line clip-path="url(#clip622)" x1="2186.97" y1="1445.72" x2="2202.97" y2="1445.72" style="stroke:#3da44d; stroke-width:3.2; stroke-opacity:1"/>
<line clip-path="url(#clip622)" x1="2290.59" y1="1445.72" x2="2290.59" y2="1429.72" style="stroke:#3da44d; stroke-width:3.2; stroke-opacity:1"/>
<line clip-path="url(#clip622)" x1="2290.59" y1="1445.72" x2="2274.59" y2="1445.72" style="stroke:#3da44d; stroke-width:3.2; stroke-opacity:1"/>
<line clip-path="url(#clip622)" x1="2290.59" y1="1445.72" x2="2290.59" y2="1461.72" style="stroke:#3da44d; stroke-width:3.2; stroke-opacity:1"/>
<line clip-path="url(#clip622)" x1="2290.59" y1="1445.72" x2="2306.59" y2="1445.72" style="stroke:#3da44d; stroke-width:3.2; stroke-opacity:1"/>
<path clip-path="url(#clip620)" d="
M1982.45 302.578 L2279.53 302.578 L2279.53 95.2176 L1982.45 95.2176  Z
  " fill="#ffffff" fill-rule="evenodd" fill-opacity="1"/>
<polyline clip-path="url(#clip620)" style="stroke:#000000; stroke-linecap:butt; stroke-linejoin:round; stroke-width:4; stroke-opacity:1; fill:none" points="
  1982.45,302.578 2279.53,302.578 2279.53,95.2176 1982.45,95.2176 1982.45,302.578 
  "/>
<polyline clip-path="url(#clip620)" style="stroke:#009af9; stroke-linecap:butt; stroke-linejoin:round; stroke-width:4; stroke-opacity:1; fill:none" points="
  2006.86,147.058 2153.3,147.058 
  "/>
<path clip-path="url(#clip620)" d="M2191.55 166.745 Q2189.75 171.375 2188.04 172.787 Q2186.32 174.199 2183.45 174.199 L2180.05 174.199 L2180.05 170.634 L2182.55 170.634 Q2184.31 170.634 2185.28 169.8 Q2186.25 168.967 2187.43 165.865 L2188.2 163.921 L2177.71 138.412 L2182.23 138.412 L2190.33 158.689 L2198.43 138.412 L2202.94 138.412 L2191.55 166.745 Z" fill="#000000" fill-rule="evenodd" fill-opacity="1" /><path clip-path="url(#clip620)" d="M2210.23 160.402 L2217.87 160.402 L2217.87 134.037 L2209.56 135.703 L2209.56 131.444 L2217.83 129.778 L2222.5 129.778 L2222.5 160.402 L2230.14 160.402 L2230.14 164.338 L2210.23 164.338 L2210.23 160.402 Z" fill="#000000" fill-rule="evenodd" fill-opacity="1" /><circle clip-path="url(#clip620)" cx="2080.08" cy="198.898" r="23.04" fill="#e26f46" fill-rule="evenodd" fill-opacity="1" stroke="#000000" stroke-opacity="1" stroke-width="5.12"/>
<path clip-path="url(#clip620)" d="M2191.55 218.585 Q2189.75 223.215 2188.04 224.627 Q2186.32 226.039 2183.45 226.039 L2180.05 226.039 L2180.05 222.474 L2182.55 222.474 Q2184.31 222.474 2185.28 221.64 Q2186.25 220.807 2187.43 217.705 L2188.2 215.761 L2177.71 190.252 L2182.23 190.252 L2190.33 210.529 L2198.43 190.252 L2202.94 190.252 L2191.55 218.585 Z" fill="#000000" fill-rule="evenodd" fill-opacity="1" /><path clip-path="url(#clip620)" d="M2213.45 212.242 L2229.77 212.242 L2229.77 216.178 L2207.83 216.178 L2207.83 212.242 Q2210.49 209.488 2215.07 204.858 Q2219.68 200.205 2220.86 198.863 Q2223.1 196.34 2223.98 194.604 Q2224.89 192.844 2224.89 191.155 Q2224.89 188.4 2222.94 186.664 Q2221.02 184.928 2217.92 184.928 Q2215.72 184.928 2213.27 185.692 Q2210.84 186.455 2208.06 188.006 L2208.06 183.284 Q2210.88 182.15 2213.34 181.571 Q2215.79 180.993 2217.83 180.993 Q2223.2 180.993 2226.39 183.678 Q2229.59 186.363 2229.59 190.854 Q2229.59 192.983 2228.78 194.905 Q2227.99 196.803 2225.88 199.395 Q2225.3 200.067 2222.2 203.284 Q2219.1 206.479 2213.45 212.242 Z" fill="#000000" fill-rule="evenodd" fill-opacity="1" /><polyline clip-path="url(#clip620)" style="stroke:#3da44d; stroke-linecap:butt; stroke-linejoin:round; stroke-width:4; stroke-opacity:1; fill:none" points="
  2006.86,250.738 2153.3,250.738 
  "/>
<line clip-path="url(#clip620)" x1="2080.08" y1="250.738" x2="2080.08" y2="225.138" style="stroke:#3da44d; stroke-width:5.12; stroke-opacity:1"/>
<line clip-path="url(#clip620)" x1="2080.08" y1="250.738" x2="2054.48" y2="250.738" style="stroke:#3da44d; stroke-width:5.12; stroke-opacity:1"/>
<line clip-path="url(#clip620)" x1="2080.08" y1="250.738" x2="2080.08" y2="276.338" style="stroke:#3da44d; stroke-width:5.12; stroke-opacity:1"/>
<line clip-path="url(#clip620)" x1="2080.08" y1="250.738" x2="2105.68" y2="250.738" style="stroke:#3da44d; stroke-width:5.12; stroke-opacity:1"/>
<path clip-path="url(#clip620)" d="M2191.55 270.425 Q2189.75 275.055 2188.04 276.467 Q2186.32 277.879 2183.45 277.879 L2180.05 277.879 L2180.05 274.314 L2182.55 274.314 Q2184.31 274.314 2185.28 273.48 Q2186.25 272.647 2187.43 269.545 L2188.2 267.601 L2177.71 242.092 L2182.23 242.092 L2190.33 262.369 L2198.43 242.092 L2202.94 242.092 L2191.55 270.425 Z" fill="#000000" fill-rule="evenodd" fill-opacity="1" /><path clip-path="url(#clip620)" d="M2223.59 249.383 Q2226.95 250.101 2228.82 252.369 Q2230.72 254.638 2230.72 257.971 Q2230.72 263.087 2227.2 265.888 Q2223.68 268.689 2217.2 268.689 Q2215.03 268.689 2212.71 268.249 Q2210.42 267.832 2207.97 266.976 L2207.97 262.462 Q2209.91 263.596 2212.22 264.175 Q2214.54 264.754 2217.06 264.754 Q2221.46 264.754 2223.75 263.018 Q2226.07 261.281 2226.07 257.971 Q2226.07 254.916 2223.91 253.203 Q2221.79 251.467 2217.97 251.467 L2213.94 251.467 L2213.94 247.624 L2218.15 247.624 Q2221.6 247.624 2223.43 246.258 Q2225.26 244.87 2225.26 242.277 Q2225.26 239.615 2223.36 238.203 Q2221.48 236.768 2217.97 236.768 Q2216.04 236.768 2213.85 237.184 Q2211.65 237.601 2209.01 238.481 L2209.01 234.314 Q2211.67 233.573 2213.98 233.203 Q2216.32 232.833 2218.38 232.833 Q2223.71 232.833 2226.81 235.263 Q2229.91 237.67 2229.91 241.791 Q2229.91 244.661 2228.27 246.652 Q2226.62 248.62 2223.59 249.383 Z" fill="#000000" fill-rule="evenodd" fill-opacity="1" /></svg>
