<?xml version="1.0" encoding="utf-8"?>
<svg xmlns="http://www.w3.org/2000/svg" xmlns:xlink="http://www.w3.org/1999/xlink" width="600" height="400" viewBox="0 0 2400 1600">
<defs>
  <clipPath id="clip090">
    <rect x="0" y="0" width="2400" height="1600"/>
  </clipPath>
</defs>
<path clip-path="url(#clip090)" d="
M0 1600 L2400 1600 L2400 0 L0 0  Z
  " fill="#ffffff" fill-rule="evenodd" fill-opacity="1"/>
<defs>
  <clipPath id="clip091">
    <rect x="480" y="0" width="1681" height="1600"/>
  </clipPath>
</defs>
<path clip-path="url(#clip090)" d="
M186.274 1486.45 L2352.76 1486.45 L2352.76 47.2441 L186.274 47.2441  Z
  " fill="#ffffff" fill-rule="evenodd" fill-opacity="1"/>
<defs>
  <clipPath id="clip092">
    <rect x="186" y="47" width="2167" height="1440"/>
  </clipPath>
</defs>
<polyline clip-path="url(#clip092)" style="stroke:#000000; stroke-linecap:butt; stroke-linejoin:round; stroke-width:2; stroke-opacity:0.1; fill:none" points="
  247.59,1486.45 247.59,47.2441 
  "/>
<polyline clip-path="url(#clip092)" style="stroke:#000000; stroke-linecap:butt; stroke-linejoin:round; stroke-width:2; stroke-opacity:0.1; fill:none" points="
  758.552,1486.45 758.552,47.2441 
  "/>
<polyline clip-path="url(#clip092)" style="stroke:#000000; stroke-linecap:butt; stroke-linejoin:round; stroke-width:2; stroke-opacity:0.1; fill:none" points="
  1269.51,1486.45 1269.51,47.2441 
  "/>
<polyline clip-path="url(#clip092)" style="stroke:#000000; stroke-linecap:butt; stroke-linejoin:round; stroke-width:2; stroke-opacity:0.1; fill:none" points="
  1780.48,1486.45 1780.48,47.2441 
  "/>
<polyline clip-path="url(#clip092)" style="stroke:#000000; stroke-linecap:butt; stroke-linejoin:round; stroke-width:2; stroke-opacity:0.1; fill:none" points="
  2291.44,1486.45 2291.44,47.2441 
  "/>
<polyline clip-path="url(#clip090)" style="stroke:#000000; stroke-linecap:butt; stroke-linejoin:round; stroke-width:4; stroke-opacity:1; fill:none" points="
  186.274,1486.45 2352.76,1486.45 
  "/>
<polyline clip-path="url(#clip090)" style="stroke:#000000; stroke-linecap:butt; stroke-linejoin:round; stroke-width:4; stroke-opacity:1; fill:none" points="
  247.59,1486.45 247.59,1467.55 
  "/>
<polyline clip-path="url(#clip090)" style="stroke:#000000; stroke-linecap:butt; stroke-linejoin:round; stroke-width:4; stroke-opacity:1; fill:none" points="
  758.552,1486.45 758.552,1467.55 
  "/>
<polyline clip-path="url(#clip090)" style="stroke:#000000; stroke-linecap:butt; stroke-linejoin:round; stroke-width:4; stroke-opacity:1; fill:none" points="
  1269.51,1486.45 1269.51,1467.55 
  "/>
<polyline clip-path="url(#clip090)" style="stroke:#000000; stroke-linecap:butt; stroke-linejoin:round; stroke-width:4; stroke-opacity:1; fill:none" points="
  1780.48,1486.45 1780.48,1467.55 
  "/>
<polyline clip-path="url(#clip090)" style="stroke:#000000; stroke-linecap:butt; stroke-linejoin:round; stroke-width:4; stroke-opacity:1; fill:none" points="
  2291.44,1486.45 2291.44,1467.55 
  "/>
<path clip-path="url(#clip090)" d="M194.118 1532.02 L223.793 1532.02 L223.793 1535.95 L194.118 1535.95 L194.118 1532.02 Z" fill="#000000" fill-rule="evenodd" fill-opacity="1" /><path clip-path="url(#clip090)" d="M234.696 1544.91 L242.335 1544.91 L242.335 1518.55 L234.025 1520.21 L234.025 1515.95 L242.289 1514.29 L246.965 1514.29 L246.965 1544.91 L254.603 1544.91 L254.603 1548.85 L234.696 1548.85 L234.696 1544.91 Z" fill="#000000" fill-rule="evenodd" fill-opacity="1" /><path clip-path="url(#clip090)" d="M264.048 1542.97 L268.932 1542.97 L268.932 1548.85 L264.048 1548.85 L264.048 1542.97 Z" fill="#000000" fill-rule="evenodd" fill-opacity="1" /><path clip-path="url(#clip090)" d="M289.117 1517.37 Q285.506 1517.37 283.677 1520.93 Q281.872 1524.47 281.872 1531.6 Q281.872 1538.71 283.677 1542.27 Q285.506 1545.82 289.117 1545.82 Q292.751 1545.82 294.557 1542.27 Q296.386 1538.71 296.386 1531.6 Q296.386 1524.47 294.557 1520.93 Q292.751 1517.37 289.117 1517.37 M289.117 1513.66 Q294.927 1513.66 297.983 1518.27 Q301.061 1522.85 301.061 1531.6 Q301.061 1540.33 297.983 1544.94 Q294.927 1549.52 289.117 1549.52 Q283.307 1549.52 280.228 1544.94 Q277.173 1540.33 277.173 1531.6 Q277.173 1522.85 280.228 1518.27 Q283.307 1513.66 289.117 1513.66 Z" fill="#000000" fill-rule="evenodd" fill-opacity="1" /><path clip-path="url(#clip090)" d="M705.578 1532.02 L735.254 1532.02 L735.254 1535.95 L705.578 1535.95 L705.578 1532.02 Z" fill="#000000" fill-rule="evenodd" fill-opacity="1" /><path clip-path="url(#clip090)" d="M755.346 1517.37 Q751.735 1517.37 749.906 1520.93 Q748.101 1524.47 748.101 1531.6 Q748.101 1538.71 749.906 1542.27 Q751.735 1545.82 755.346 1545.82 Q758.98 1545.82 760.786 1542.27 Q762.615 1538.71 762.615 1531.6 Q762.615 1524.47 760.786 1520.93 Q758.98 1517.37 755.346 1517.37 M755.346 1513.66 Q761.156 1513.66 764.212 1518.27 Q767.291 1522.85 767.291 1531.6 Q767.291 1540.33 764.212 1544.94 Q761.156 1549.52 755.346 1549.52 Q749.536 1549.52 746.457 1544.94 Q743.402 1540.33 743.402 1531.6 Q743.402 1522.85 746.457 1518.27 Q749.536 1513.66 755.346 1513.66 Z" fill="#000000" fill-rule="evenodd" fill-opacity="1" /><path clip-path="url(#clip090)" d="M775.508 1542.97 L780.392 1542.97 L780.392 1548.85 L775.508 1548.85 L775.508 1542.97 Z" fill="#000000" fill-rule="evenodd" fill-opacity="1" /><path clip-path="url(#clip090)" d="M790.624 1514.29 L808.98 1514.29 L808.98 1518.22 L794.906 1518.22 L794.906 1526.7 Q795.925 1526.35 796.943 1526.19 Q797.962 1526 798.98 1526 Q804.767 1526 808.147 1529.17 Q811.526 1532.34 811.526 1537.76 Q811.526 1543.34 808.054 1546.44 Q804.582 1549.52 798.263 1549.52 Q796.087 1549.52 793.818 1549.15 Q791.573 1548.78 789.166 1548.04 L789.166 1543.34 Q791.249 1544.47 793.471 1545.03 Q795.693 1545.58 798.17 1545.58 Q802.175 1545.58 804.513 1543.48 Q806.851 1541.37 806.851 1537.76 Q806.851 1534.15 804.513 1532.04 Q802.175 1529.94 798.17 1529.94 Q796.295 1529.94 794.42 1530.35 Q792.568 1530.77 790.624 1531.65 L790.624 1514.29 Z" fill="#000000" fill-rule="evenodd" fill-opacity="1" /><path clip-path="url(#clip090)" d="M1246.9 1517.37 Q1243.29 1517.37 1241.46 1520.93 Q1239.65 1524.47 1239.65 1531.6 Q1239.65 1538.71 1241.46 1542.27 Q1243.29 1545.82 1246.9 1545.82 Q1250.53 1545.82 1252.34 1542.27 Q1254.17 1538.71 1254.17 1531.6 Q1254.17 1524.47 1252.34 1520.93 Q1250.53 1517.37 1246.9 1517.37 M1246.9 1513.66 Q1252.71 1513.66 1255.77 1518.27 Q1258.84 1522.85 1258.84 1531.6 Q1258.84 1540.33 1255.77 1544.94 Q1252.71 1549.52 1246.9 1549.52 Q1241.09 1549.52 1238.01 1544.94 Q1234.95 1540.33 1234.95 1531.6 Q1234.95 1522.85 1238.01 1518.27 Q1241.09 1513.66 1246.9 1513.66 Z" fill="#000000" fill-rule="evenodd" fill-opacity="1" /><path clip-path="url(#clip090)" d="M1267.06 1542.97 L1271.95 1542.97 L1271.95 1548.85 L1267.06 1548.85 L1267.06 1542.97 Z" fill="#000000" fill-rule="evenodd" fill-opacity="1" /><path clip-path="url(#clip090)" d="M1292.13 1517.37 Q1288.52 1517.37 1286.69 1520.93 Q1284.89 1524.47 1284.89 1531.6 Q1284.89 1538.71 1286.69 1542.27 Q1288.52 1545.82 1292.13 1545.82 Q1295.76 1545.82 1297.57 1542.27 Q1299.4 1538.71 1299.4 1531.6 Q1299.4 1524.47 1297.57 1520.93 Q1295.76 1517.37 1292.13 1517.37 M1292.13 1513.66 Q1297.94 1513.66 1301 1518.27 Q1304.07 1522.85 1304.07 1531.6 Q1304.07 1540.33 1301 1544.94 Q1297.94 1549.52 1292.13 1549.52 Q1286.32 1549.52 1283.24 1544.94 Q1280.19 1540.33 1280.19 1531.6 Q1280.19 1522.85 1283.24 1518.27 Q1286.32 1513.66 1292.13 1513.66 Z" fill="#000000" fill-rule="evenodd" fill-opacity="1" /><path clip-path="url(#clip090)" d="M1758.36 1517.37 Q1754.75 1517.37 1752.92 1520.93 Q1751.11 1524.47 1751.11 1531.6 Q1751.11 1538.71 1752.92 1542.27 Q1754.75 1545.82 1758.36 1545.82 Q1761.99 1545.82 1763.8 1542.27 Q1765.63 1538.71 1765.63 1531.6 Q1765.63 1524.47 1763.8 1520.93 Q1761.99 1517.37 1758.36 1517.37 M1758.36 1513.66 Q1764.17 1513.66 1767.23 1518.27 Q1770.3 1522.85 1770.3 1531.6 Q1770.3 1540.33 1767.23 1544.94 Q1764.17 1549.52 1758.36 1549.52 Q1752.55 1549.52 1749.47 1544.94 Q1746.42 1540.33 1746.42 1531.6 Q1746.42 1522.85 1749.47 1518.27 Q1752.55 1513.66 1758.36 1513.66 Z" fill="#000000" fill-rule="evenodd" fill-opacity="1" /><path clip-path="url(#clip090)" d="M1778.52 1542.97 L1783.41 1542.97 L1783.41 1548.85 L1778.52 1548.85 L1778.52 1542.97 Z" fill="#000000" fill-rule="evenodd" fill-opacity="1" /><path clip-path="url(#clip090)" d="M1793.64 1514.29 L1811.99 1514.29 L1811.99 1518.22 L1797.92 1518.22 L1797.92 1526.7 Q1798.94 1526.35 1799.96 1526.19 Q1800.98 1526 1801.99 1526 Q1807.78 1526 1811.16 1529.17 Q1814.54 1532.34 1814.54 1537.76 Q1814.54 1543.34 1811.07 1546.44 Q1807.6 1549.52 1801.28 1549.52 Q1799.1 1549.52 1796.83 1549.15 Q1794.59 1548.78 1792.18 1548.04 L1792.18 1543.34 Q1794.26 1544.47 1796.48 1545.03 Q1798.71 1545.58 1801.18 1545.58 Q1805.19 1545.58 1807.53 1543.48 Q1809.86 1541.37 1809.86 1537.76 Q1809.86 1534.15 1807.53 1532.04 Q1805.19 1529.94 1801.18 1529.94 Q1799.31 1529.94 1797.43 1530.35 Q1795.58 1530.77 1793.64 1531.65 L1793.64 1514.29 Z" fill="#000000" fill-rule="evenodd" fill-opacity="1" /><path clip-path="url(#clip090)" d="M2258.59 1544.91 L2266.23 1544.91 L2266.23 1518.55 L2257.92 1520.21 L2257.92 1515.95 L2266.19 1514.29 L2270.86 1514.29 L2270.86 1544.91 L2278.5 1544.91 L2278.5 1548.85 L2258.59 1548.85 L2258.59 1544.91 Z" fill="#000000" fill-rule="evenodd" fill-opacity="1" /><path clip-path="url(#clip090)" d="M2287.95 1542.97 L2292.83 1542.97 L2292.83 1548.85 L2287.95 1548.85 L2287.95 1542.97 Z" fill="#000000" fill-rule="evenodd" fill-opacity="1" /><path clip-path="url(#clip090)" d="M2313.01 1517.37 Q2309.4 1517.37 2307.57 1520.93 Q2305.77 1524.47 2305.77 1531.6 Q2305.77 1538.71 2307.57 1542.27 Q2309.4 1545.82 2313.01 1545.82 Q2316.65 1545.82 2318.45 1542.27 Q2320.28 1538.71 2320.28 1531.6 Q2320.28 1524.47 2318.45 1520.93 Q2316.65 1517.37 2313.01 1517.37 M2313.01 1513.66 Q2318.82 1513.66 2321.88 1518.27 Q2324.96 1522.85 2324.96 1531.6 Q2324.96 1540.33 2321.88 1544.94 Q2318.82 1549.52 2313.01 1549.52 Q2307.2 1549.52 2304.13 1544.94 Q2301.07 1540.33 2301.07 1531.6 Q2301.07 1522.85 2304.13 1518.27 Q2307.2 1513.66 2313.01 1513.66 Z" fill="#000000" fill-rule="evenodd" fill-opacity="1" /><polyline clip-path="url(#clip092)" style="stroke:#000000; stroke-linecap:butt; stroke-linejoin:round; stroke-width:2; stroke-opacity:0.1; fill:none" points="
  186.274,1479.38 2352.76,1479.38 
  "/>
<polyline clip-path="url(#clip092)" style="stroke:#000000; stroke-linecap:butt; stroke-linejoin:round; stroke-width:2; stroke-opacity:0.1; fill:none" points="
  186.274,1181 2352.76,1181 
  "/>
<polyline clip-path="url(#clip092)" style="stroke:#000000; stroke-linecap:butt; stroke-linejoin:round; stroke-width:2; stroke-opacity:0.1; fill:none" points="
  186.274,882.622 2352.76,882.622 
  "/>
<polyline clip-path="url(#clip092)" style="stroke:#000000; stroke-linecap:butt; stroke-linejoin:round; stroke-width:2; stroke-opacity:0.1; fill:none" points="
  186.274,584.244 2352.76,584.244 
  "/>
<polyline clip-path="url(#clip092)" style="stroke:#000000; stroke-linecap:butt; stroke-linejoin:round; stroke-width:2; stroke-opacity:0.1; fill:none" points="
  186.274,285.867 2352.76,285.867 
  "/>
<polyline clip-path="url(#clip090)" style="stroke:#000000; stroke-linecap:butt; stroke-linejoin:round; stroke-width:4; stroke-opacity:1; fill:none" points="
  186.274,1486.45 186.274,47.2441 
  "/>
<polyline clip-path="url(#clip090)" style="stroke:#000000; stroke-linecap:butt; stroke-linejoin:round; stroke-width:4; stroke-opacity:1; fill:none" points="
  186.274,1479.38 205.172,1479.38 
  "/>
<polyline clip-path="url(#clip090)" style="stroke:#000000; stroke-linecap:butt; stroke-linejoin:round; stroke-width:4; stroke-opacity:1; fill:none" points="
  186.274,1181 205.172,1181 
  "/>
<polyline clip-path="url(#clip090)" style="stroke:#000000; stroke-linecap:butt; stroke-linejoin:round; stroke-width:4; stroke-opacity:1; fill:none" points="
  186.274,882.622 205.172,882.622 
  "/>
<polyline clip-path="url(#clip090)" style="stroke:#000000; stroke-linecap:butt; stroke-linejoin:round; stroke-width:4; stroke-opacity:1; fill:none" points="
  186.274,584.244 205.172,584.244 
  "/>
<polyline clip-path="url(#clip090)" style="stroke:#000000; stroke-linecap:butt; stroke-linejoin:round; stroke-width:4; stroke-opacity:1; fill:none" points="
  186.274,285.867 205.172,285.867 
  "/>
<path clip-path="url(#clip090)" d="M62.9365 1465.18 Q59.3254 1465.18 57.4967 1468.74 Q55.6912 1472.28 55.6912 1479.41 Q55.6912 1486.52 57.4967 1490.08 Q59.3254 1493.63 62.9365 1493.63 Q66.5707 1493.63 68.3763 1490.08 Q70.205 1486.52 70.205 1479.41 Q70.205 1472.28 68.3763 1468.74 Q66.5707 1465.18 62.9365 1465.18 M62.9365 1461.47 Q68.7467 1461.47 71.8022 1466.08 Q74.8809 1470.66 74.8809 1479.41 Q74.8809 1488.14 71.8022 1492.75 Q68.7467 1497.33 62.9365 1497.33 Q57.1264 1497.33 54.0477 1492.75 Q50.9921 1488.14 50.9921 1479.41 Q50.9921 1470.66 54.0477 1466.08 Q57.1264 1461.47 62.9365 1461.47 Z" fill="#000000" fill-rule="evenodd" fill-opacity="1" /><path clip-path="url(#clip090)" d="M83.0984 1490.78 L87.9827 1490.78 L87.9827 1496.66 L83.0984 1496.66 L83.0984 1490.78 Z" fill="#000000" fill-rule="evenodd" fill-opacity="1" /><path clip-path="url(#clip090)" d="M108.168 1465.18 Q104.557 1465.18 102.728 1468.74 Q100.922 1472.28 100.922 1479.41 Q100.922 1486.52 102.728 1490.08 Q104.557 1493.63 108.168 1493.63 Q111.802 1493.63 113.608 1490.08 Q115.436 1486.52 115.436 1479.41 Q115.436 1472.28 113.608 1468.74 Q111.802 1465.18 108.168 1465.18 M108.168 1461.47 Q113.978 1461.47 117.033 1466.08 Q120.112 1470.66 120.112 1479.41 Q120.112 1488.14 117.033 1492.75 Q113.978 1497.33 108.168 1497.33 Q102.358 1497.33 99.2789 1492.75 Q96.2234 1488.14 96.2234 1479.41 Q96.2234 1470.66 99.2789 1466.08 Q102.358 1461.47 108.168 1461.47 Z" fill="#000000" fill-rule="evenodd" fill-opacity="1" /><path clip-path="url(#clip090)" d="M138.33 1465.18 Q134.719 1465.18 132.89 1468.74 Q131.084 1472.28 131.084 1479.41 Q131.084 1486.52 132.89 1490.08 Q134.719 1493.63 138.33 1493.63 Q141.964 1493.63 143.769 1490.08 Q145.598 1486.52 145.598 1479.41 Q145.598 1472.28 143.769 1468.74 Q141.964 1465.18 138.33 1465.18 M138.33 1461.47 Q144.14 1461.47 147.195 1466.08 Q150.274 1470.66 150.274 1479.41 Q150.274 1488.14 147.195 1492.75 Q144.14 1497.33 138.33 1497.33 Q132.519 1497.33 129.441 1492.75 Q126.385 1488.14 126.385 1479.41 Q126.385 1470.66 129.441 1466.08 Q132.519 1461.47 138.33 1461.47 Z" fill="#000000" fill-rule="evenodd" fill-opacity="1" /><path clip-path="url(#clip090)" d="M63.9319 1166.8 Q60.3208 1166.8 58.4921 1170.36 Q56.6865 1173.9 56.6865 1181.03 Q56.6865 1188.14 58.4921 1191.71 Q60.3208 1195.25 63.9319 1195.25 Q67.5661 1195.25 69.3717 1191.71 Q71.2004 1188.14 71.2004 1181.03 Q71.2004 1173.9 69.3717 1170.36 Q67.5661 1166.8 63.9319 1166.8 M63.9319 1163.09 Q69.742 1163.09 72.7976 1167.7 Q75.8763 1172.28 75.8763 1181.03 Q75.8763 1189.76 72.7976 1194.37 Q69.742 1198.95 63.9319 1198.95 Q58.1217 1198.95 55.043 1194.37 Q51.9875 1189.76 51.9875 1181.03 Q51.9875 1172.28 55.043 1167.7 Q58.1217 1163.09 63.9319 1163.09 Z" fill="#000000" fill-rule="evenodd" fill-opacity="1" /><path clip-path="url(#clip090)" d="M84.0938 1192.4 L88.978 1192.4 L88.978 1198.28 L84.0938 1198.28 L84.0938 1192.4 Z" fill="#000000" fill-rule="evenodd" fill-opacity="1" /><path clip-path="url(#clip090)" d="M103.191 1194.34 L119.51 1194.34 L119.51 1198.28 L97.566 1198.28 L97.566 1194.34 Q100.228 1191.59 104.811 1186.96 Q109.418 1182.31 110.598 1180.97 Q112.844 1178.44 113.723 1176.71 Q114.626 1174.95 114.626 1173.26 Q114.626 1170.5 112.682 1168.77 Q110.76 1167.03 107.658 1167.03 Q105.459 1167.03 103.006 1167.79 Q100.575 1168.56 97.7974 1170.11 L97.7974 1165.39 Q100.621 1164.25 103.075 1163.67 Q105.529 1163.09 107.566 1163.09 Q112.936 1163.09 116.131 1165.78 Q119.325 1168.47 119.325 1172.96 Q119.325 1175.09 118.515 1177.01 Q117.728 1178.9 115.621 1181.5 Q115.043 1182.17 111.941 1185.39 Q108.839 1188.58 103.191 1194.34 Z" fill="#000000" fill-rule="evenodd" fill-opacity="1" /><path clip-path="url(#clip090)" d="M129.371 1163.72 L147.728 1163.72 L147.728 1167.65 L133.654 1167.65 L133.654 1176.13 Q134.672 1175.78 135.691 1175.62 Q136.709 1175.43 137.728 1175.43 Q143.515 1175.43 146.894 1178.6 Q150.274 1181.78 150.274 1187.19 Q150.274 1192.77 146.802 1195.87 Q143.33 1198.95 137.01 1198.95 Q134.834 1198.95 132.566 1198.58 Q130.32 1198.21 127.913 1197.47 L127.913 1192.77 Q129.996 1193.9 132.219 1194.46 Q134.441 1195.02 136.918 1195.02 Q140.922 1195.02 143.26 1192.91 Q145.598 1190.8 145.598 1187.19 Q145.598 1183.58 143.26 1181.47 Q140.922 1179.37 136.918 1179.37 Q135.043 1179.37 133.168 1179.78 Q131.316 1180.2 129.371 1181.08 L129.371 1163.72 Z" fill="#000000" fill-rule="evenodd" fill-opacity="1" /><path clip-path="url(#clip090)" d="M62.9365 868.421 Q59.3254 868.421 57.4967 871.985 Q55.6912 875.527 55.6912 882.657 Q55.6912 889.763 57.4967 893.328 Q59.3254 896.87 62.9365 896.87 Q66.5707 896.87 68.3763 893.328 Q70.205 889.763 70.205 882.657 Q70.205 875.527 68.3763 871.985 Q66.5707 868.421 62.9365 868.421 M62.9365 864.717 Q68.7467 864.717 71.8022 869.323 Q74.8809 873.907 74.8809 882.657 Q74.8809 891.384 71.8022 895.99 Q68.7467 900.573 62.9365 900.573 Q57.1264 900.573 54.0477 895.99 Q50.9921 891.384 50.9921 882.657 Q50.9921 873.907 54.0477 869.323 Q57.1264 864.717 62.9365 864.717 Z" fill="#000000" fill-rule="evenodd" fill-opacity="1" /><path clip-path="url(#clip090)" d="M83.0984 894.022 L87.9827 894.022 L87.9827 899.902 L83.0984 899.902 L83.0984 894.022 Z" fill="#000000" fill-rule="evenodd" fill-opacity="1" /><path clip-path="url(#clip090)" d="M98.2141 865.342 L116.57 865.342 L116.57 869.277 L102.496 869.277 L102.496 877.749 Q103.515 877.402 104.534 877.24 Q105.552 877.055 106.571 877.055 Q112.358 877.055 115.737 880.226 Q119.117 883.397 119.117 888.814 Q119.117 894.393 115.645 897.495 Q112.172 900.573 105.853 900.573 Q103.677 900.573 101.409 900.203 Q99.1632 899.833 96.7558 899.092 L96.7558 894.393 Q98.8391 895.527 101.061 896.083 Q103.284 896.638 105.76 896.638 Q109.765 896.638 112.103 894.532 Q114.441 892.425 114.441 888.814 Q114.441 885.203 112.103 883.097 Q109.765 880.99 105.76 880.99 Q103.885 880.99 102.01 881.407 Q100.159 881.823 98.2141 882.703 L98.2141 865.342 Z" fill="#000000" fill-rule="evenodd" fill-opacity="1" /><path clip-path="url(#clip090)" d="M138.33 868.421 Q134.719 868.421 132.89 871.985 Q131.084 875.527 131.084 882.657 Q131.084 889.763 132.89 893.328 Q134.719 896.87 138.33 896.87 Q141.964 896.87 143.769 893.328 Q145.598 889.763 145.598 882.657 Q145.598 875.527 143.769 871.985 Q141.964 868.421 138.33 868.421 M138.33 864.717 Q144.14 864.717 147.195 869.323 Q150.274 873.907 150.274 882.657 Q150.274 891.384 147.195 895.99 Q144.14 900.573 138.33 900.573 Q132.519 900.573 129.441 895.99 Q126.385 891.384 126.385 882.657 Q126.385 873.907 129.441 869.323 Q132.519 864.717 138.33 864.717 Z" fill="#000000" fill-rule="evenodd" fill-opacity="1" /><path clip-path="url(#clip090)" d="M63.9319 570.043 Q60.3208 570.043 58.4921 573.608 Q56.6865 577.149 56.6865 584.279 Q56.6865 591.385 58.4921 594.95 Q60.3208 598.492 63.9319 598.492 Q67.5661 598.492 69.3717 594.95 Q71.2004 591.385 71.2004 584.279 Q71.2004 577.149 69.3717 573.608 Q67.5661 570.043 63.9319 570.043 M63.9319 566.339 Q69.742 566.339 72.7976 570.946 Q75.8763 575.529 75.8763 584.279 Q75.8763 593.006 72.7976 597.612 Q69.742 602.196 63.9319 602.196 Q58.1217 602.196 55.043 597.612 Q51.9875 593.006 51.9875 584.279 Q51.9875 575.529 55.043 570.946 Q58.1217 566.339 63.9319 566.339 Z" fill="#000000" fill-rule="evenodd" fill-opacity="1" /><path clip-path="url(#clip090)" d="M84.0938 595.645 L88.978 595.645 L88.978 601.524 L84.0938 601.524 L84.0938 595.645 Z" fill="#000000" fill-rule="evenodd" fill-opacity="1" /><path clip-path="url(#clip090)" d="M97.9826 566.964 L120.205 566.964 L120.205 568.955 L107.658 601.524 L102.774 601.524 L114.58 570.899 L97.9826 570.899 L97.9826 566.964 Z" fill="#000000" fill-rule="evenodd" fill-opacity="1" /><path clip-path="url(#clip090)" d="M129.371 566.964 L147.728 566.964 L147.728 570.899 L133.654 570.899 L133.654 579.372 Q134.672 579.024 135.691 578.862 Q136.709 578.677 137.728 578.677 Q143.515 578.677 146.894 581.848 Q150.274 585.02 150.274 590.436 Q150.274 596.015 146.802 599.117 Q143.33 602.196 137.01 602.196 Q134.834 602.196 132.566 601.825 Q130.32 601.455 127.913 600.714 L127.913 596.015 Q129.996 597.149 132.219 597.705 Q134.441 598.26 136.918 598.26 Q140.922 598.26 143.26 596.154 Q145.598 594.047 145.598 590.436 Q145.598 586.825 143.26 584.719 Q140.922 582.612 136.918 582.612 Q135.043 582.612 133.168 583.029 Q131.316 583.446 129.371 584.325 L129.371 566.964 Z" fill="#000000" fill-rule="evenodd" fill-opacity="1" /><path clip-path="url(#clip090)" d="M53.7467 299.211 L61.3856 299.211 L61.3856 272.846 L53.0754 274.512 L53.0754 270.253 L61.3393 268.587 L66.0152 268.587 L66.0152 299.211 L73.654 299.211 L73.654 303.147 L53.7467 303.147 L53.7467 299.211 Z" fill="#000000" fill-rule="evenodd" fill-opacity="1" /><path clip-path="url(#clip090)" d="M83.0984 297.267 L87.9827 297.267 L87.9827 303.147 L83.0984 303.147 L83.0984 297.267 Z" fill="#000000" fill-rule="evenodd" fill-opacity="1" /><path clip-path="url(#clip090)" d="M108.168 271.665 Q104.557 271.665 102.728 275.23 Q100.922 278.772 100.922 285.901 Q100.922 293.008 102.728 296.572 Q104.557 300.114 108.168 300.114 Q111.802 300.114 113.608 296.572 Q115.436 293.008 115.436 285.901 Q115.436 278.772 113.608 275.23 Q111.802 271.665 108.168 271.665 M108.168 267.962 Q113.978 267.962 117.033 272.568 Q120.112 277.151 120.112 285.901 Q120.112 294.628 117.033 299.235 Q113.978 303.818 108.168 303.818 Q102.358 303.818 99.2789 299.235 Q96.2234 294.628 96.2234 285.901 Q96.2234 277.151 99.2789 272.568 Q102.358 267.962 108.168 267.962 Z" fill="#000000" fill-rule="evenodd" fill-opacity="1" /><path clip-path="url(#clip090)" d="M138.33 271.665 Q134.719 271.665 132.89 275.23 Q131.084 278.772 131.084 285.901 Q131.084 293.008 132.89 296.572 Q134.719 300.114 138.33 300.114 Q141.964 300.114 143.769 296.572 Q145.598 293.008 145.598 285.901 Q145.598 278.772 143.769 275.23 Q141.964 271.665 138.33 271.665 M138.33 267.962 Q144.14 267.962 147.195 272.568 Q150.274 277.151 150.274 285.901 Q150.274 294.628 147.195 299.235 Q144.14 303.818 138.33 303.818 Q132.519 303.818 129.441 299.235 Q126.385 294.628 126.385 285.901 Q126.385 277.151 129.441 272.568 Q132.519 267.962 138.33 267.962 Z" fill="#000000" fill-rule="evenodd" fill-opacity="1" /><circle clip-path="url(#clip092)" cx="247.59" cy="1370.88" r="14.4" fill="#009af9" fill-rule="evenodd" fill-opacity="1" stroke="#000000" stroke-opacity="1" stroke-width="3.2"/>
<circle clip-path="url(#clip092)" cx="355.161" cy="1346.85" r="14.4" fill="#009af9" fill-rule="evenodd" fill-opacity="1" stroke="#000000" stroke-opacity="1" stroke-width="3.2"/>
<circle clip-path="url(#clip092)" cx="462.732" cy="1314.36" r="14.4" fill="#009af9" fill-rule="evenodd" fill-opacity="1" stroke="#000000" stroke-opacity="1" stroke-width="3.2"/>
<circle clip-path="url(#clip092)" cx="570.303" cy="1269.31" r="14.4" fill="#009af9" fill-rule="evenodd" fill-opacity="1" stroke="#000000" stroke-opacity="1" stroke-width="3.2"/>
<circle clip-path="url(#clip092)" cx="677.874" cy="1205.12" r="14.4" fill="#009af9" fill-rule="evenodd" fill-opacity="1" stroke="#000000" stroke-opacity="1" stroke-width="3.2"/>
<circle clip-path="url(#clip092)" cx="785.445" cy="1111.44" r="14.4" fill="#009af9" fill-rule="evenodd" fill-opacity="1" stroke="#000000" stroke-opacity="1" stroke-width="3.2"/>
<circle clip-path="url(#clip092)" cx="893.016" cy="973.082" r="14.4" fill="#009af9" fill-rule="evenodd" fill-opacity="1" stroke="#000000" stroke-opacity="1" stroke-width="3.2"/>
<circle clip-path="url(#clip092)" cx="1000.59" cy="774.21" r="14.4" fill="#009af9" fill-rule="evenodd" fill-opacity="1" stroke="#000000" stroke-opacity="1" stroke-width="3.2"/>
<circle clip-path="url(#clip092)" cx="1108.16" cy="524.039" r="14.4" fill="#009af9" fill-rule="evenodd" fill-opacity="1" stroke="#000000" stroke-opacity="1" stroke-width="3.2"/>
<circle clip-path="url(#clip092)" cx="1215.73" cy="318.037" r="14.4" fill="#009af9" fill-rule="evenodd" fill-opacity="1" stroke="#000000" stroke-opacity="1" stroke-width="3.2"/>
<circle clip-path="url(#clip092)" cx="1323.3" cy="318.037" r="14.4" fill="#009af9" fill-rule="evenodd" fill-opacity="1" stroke="#000000" stroke-opacity="1" stroke-width="3.2"/>
<circle clip-path="url(#clip092)" cx="1430.87" cy="524.039" r="14.4" fill="#009af9" fill-rule="evenodd" fill-opacity="1" stroke="#000000" stroke-opacity="1" stroke-width="3.2"/>
<circle clip-path="url(#clip092)" cx="1538.44" cy="774.21" r="14.4" fill="#009af9" fill-rule="evenodd" fill-opacity="1" stroke="#000000" stroke-opacity="1" stroke-width="3.2"/>
<circle clip-path="url(#clip092)" cx="1646.01" cy="973.082" r="14.4" fill="#009af9" fill-rule="evenodd" fill-opacity="1" stroke="#000000" stroke-opacity="1" stroke-width="3.2"/>
<circle clip-path="url(#clip092)" cx="1753.58" cy="1111.44" r="14.4" fill="#009af9" fill-rule="evenodd" fill-opacity="1" stroke="#000000" stroke-opacity="1" stroke-width="3.2"/>
<circle clip-path="url(#clip092)" cx="1861.16" cy="1205.12" r="14.4" fill="#009af9" fill-rule="evenodd" fill-opacity="1" stroke="#000000" stroke-opacity="1" stroke-width="3.2"/>
<circle clip-path="url(#clip092)" cx="1968.73" cy="1269.31" r="14.4" fill="#009af9" fill-rule="evenodd" fill-opacity="1" stroke="#000000" stroke-opacity="1" stroke-width="3.2"/>
<circle clip-path="url(#clip092)" cx="2076.3" cy="1314.36" r="14.4" fill="#009af9" fill-rule="evenodd" fill-opacity="1" stroke="#000000" stroke-opacity="1" stroke-width="3.2"/>
<circle clip-path="url(#clip092)" cx="2183.87" cy="1346.85" r="14.4" fill="#009af9" fill-rule="evenodd" fill-opacity="1" stroke="#000000" stroke-opacity="1" stroke-width="3.2"/>
<circle clip-path="url(#clip092)" cx="2291.44" cy="1370.88" r="14.4" fill="#009af9" fill-rule="evenodd" fill-opacity="1" stroke="#000000" stroke-opacity="1" stroke-width="3.2"/>
<polyline clip-path="url(#clip092)" style="stroke:#e26f46; stroke-linecap:butt; stroke-linejoin:round; stroke-width:12; stroke-opacity:1; fill:none" points="
  247.59,1370.88 254.243,1369.58 260.896,1368.26 322.415,1354.91 383.935,1339.12 420.905,1328.22 457.876,1316.06 489.134,1304.67 520.392,1292.12 554.347,1277 
  588.302,1260.12 619.606,1242.78 650.909,1223.49 684.47,1200.36 718.031,1174.31 737.472,1157.72 756.914,1139.93 776.356,1120.84 795.798,1100.34 813.075,1080.87 
  830.353,1060.13 847.63,1038.04 864.908,1014.54 880.058,992.703 895.209,969.673 910.36,945.408 925.511,919.872 942.029,890.554 958.548,859.68 975.066,827.256 
  991.585,793.319 1008.2,757.727 1024.82,720.798 1041.43,682.708 1058.05,643.695 1094.79,555.831 1131.54,469.89 1140.28,450.428 1149.02,431.547 1157.76,413.355 
  1166.5,395.961 1175.24,379.476 1183.98,364.007 1192.72,349.664 1201.46,336.55 1210.55,324.325 1219.63,313.639 1228.72,304.585 1237.81,297.245 1246.9,291.684 
  1255.99,287.955 1265.07,286.092 1274.16,286.113 1281.81,287.592 1289.46,290.396 1297.11,294.507 1304.76,299.897 1312.41,306.531 1320.06,314.368 1327.71,323.356 
  1335.36,333.441 1344.7,347.153 1354.04,362.289 1363.38,378.724 1372.72,396.327 1382.06,414.964 1391.4,434.501 1400.74,454.805 1410.08,475.747 1444.3,555.989 
  1478.52,637.872 1494.33,675.1 1510.13,711.544 1525.94,746.985 1541.74,781.256 1557.75,814.661 1573.76,846.665 1589.77,877.223 1605.77,906.32 1623.72,937.199 
  1641.66,966.284 1659.6,993.63 1677.54,1019.3 1693.8,1041.19 1710.06,1061.83 1726.31,1081.28 1742.57,1099.62 1761.18,1119.32 1779.8,1137.73 1798.41,1154.93 
  1817.03,1171.01 1834.26,1184.97 1851.5,1198.1 1868.73,1210.46 1885.97,1222.09 1919.95,1243.09 1953.93,1261.8 1986.93,1278.05 2019.92,1292.66 2053.75,1306.13 
  2087.57,1318.27 2124.63,1330.22 2161.69,1340.95 2215.52,1354.66 2269.35,1366.49 2280.4,1368.71 2291.44,1370.88 
  "/>
<polyline clip-path="url(#clip092)" style="stroke:#3da44d; stroke-linecap:butt; stroke-linejoin:round; stroke-width:12; stroke-opacity:1; fill:none" points="
  247.59,1370.88 248.005,1323.07 248.421,1276.5 248.837,1231.13 249.253,1186.97 249.669,1143.97 250.085,1102.13 250.5,1061.42 250.916,1021.83 251.332,983.326 
  251.748,945.903 252.164,909.537 252.579,874.211 252.995,839.906 253.411,806.605 253.827,774.29 254.243,742.943 254.659,712.547 255.074,683.087 255.49,654.544 
  255.906,626.903 256.322,600.147 256.738,574.26 257.154,549.227 257.569,525.032 258.401,479.094 259.233,436.326 259.649,416.094 260.064,396.611 260.272,387.146 
  260.48,377.863 260.688,368.76 260.896,359.836 261.857,320.847 262.819,285.471 263.78,253.548 264.741,224.922 265.702,199.442 266.664,176.963 267.625,157.345 
  268.586,140.452 269.547,126.152 270.509,114.319 271.47,104.83 272.431,97.5667 273.392,92.4143 274.353,89.2627 275.315,88.0055 276.276,88.5399 277.237,90.7669 
  278.198,94.5908 279.16,99.9197 280.121,106.665 281.082,114.741 282.043,124.065 283.005,134.559 283.966,146.145 284.927,158.752 285.888,172.308 286.85,186.745 
  287.811,201.999 289.733,234.71 291.656,269.969 293.578,307.345 295.501,346.441 297.423,386.894 299.346,428.371 303.191,513.22 307.036,598.889 310.881,683.67 
  314.725,766.194 316.648,806.263 318.57,845.385 320.493,883.466 322.415,920.424 324.338,956.19 326.26,990.708 328.183,1023.93 330.105,1055.83 332.028,1086.36 
  333.95,1115.52 335.873,1143.29 337.795,1169.67 339.718,1194.66 341.64,1218.27 343.563,1240.51 345.485,1261.39 347.408,1280.94 349.33,1299.19 351.253,1316.16 
  353.175,1331.88 355.098,1346.39 357.02,1359.72 358.942,1371.91 360.865,1383 362.787,1393.03 364.71,1402.03 366.632,1410.06 368.555,1417.15 372.4,1428.68 
  376.245,1436.96 380.09,1442.34 383.935,1445.13 388.556,1445.51 393.177,1443.13 397.799,1438.47 402.42,1431.99 411.663,1415.15 420.905,1395.37 430.148,1374.8 
  439.391,1355.01 448.633,1337.03 457.876,1321.47 465.69,1310.4 473.505,1301.25 481.319,1293.91 489.134,1288.22 504.763,1280.85 520.392,1277.11 537.37,1274.9 
  554.347,1272.65 571.325,1269.03 588.302,1263.36 603.954,1256.18 619.606,1247.31 635.258,1237.08 650.909,1225.86 684.47,1199.89 718.031,1172.59 737.472,1156.14 
  756.914,1138.9 776.356,1120.52 795.798,1100.67 813.075,1081.58 830.353,1061 847.63,1038.85 864.908,1015.1 880.058,992.969 895.209,969.629 910.36,945.095 
  925.511,919.374 942.029,889.976 958.548,859.153 975.066,826.89 991.585,793.183 1008.2,757.839 1024.82,721.12 1041.43,683.159 1058.05,644.17 1094.79,556.009 
  1131.54,469.599 1149.02,431.119 1166.5,395.505 1175.24,379.05 1183.98,363.639 1192.72,349.377 1201.46,336.364 1210.55,324.256 1219.63,313.692 1228.72,304.756 
  1237.81,297.522 1246.9,292.049 1255.99,288.381 1265.07,286.55 1274.16,286.571 1281.81,288.025 1289.46,290.782 1297.11,294.827 1304.76,300.135 1312.41,306.676 
  1320.06,314.411 1327.71,323.297 1335.36,333.282 1344.7,346.883 1354.04,361.929 1363.38,378.3 1372.72,395.871 1382.06,414.509 1391.4,434.08 1400.74,454.45 
  1410.08,475.483 1444.3,556.167 1478.52,638.341 1494.33,675.565 1510.13,711.907 1525.94,747.164 1541.74,781.207 1557.75,814.376 1573.76,846.192 1589.77,876.652 
  1605.77,905.767 1623.72,936.815 1641.66,966.199 1659.6,993.908 1677.54,1019.92 1693.8,1042.02 1710.06,1062.7 1726.31,1081.99 1742.57,1099.96 1761.18,1119.05 
  1779.8,1136.77 1798.41,1153.42 1817.03,1169.28 1851.5,1197.44 1885.97,1224.25 1902.96,1236.52 1919.95,1247.63 1936.94,1257.13 1953.93,1264.6 1970.43,1269.74 
  1986.93,1273.01 2003.43,1275.1 2019.92,1277.33 2028.38,1279.12 2036.83,1281.75 2045.29,1285.55 2053.75,1290.83 2062.2,1297.91 2070.66,1307.04 2079.11,1318.39 
  2087.57,1332 2096.83,1349.33 2106.1,1368.71 2115.36,1389.23 2124.63,1409.48 2129.26,1418.92 2133.89,1427.5 2138.53,1434.87 2143.16,1440.66 2147.79,1444.43 
  2152.42,1445.72 2157.05,1444.01 2161.69,1438.78 2165.05,1432.45 2168.42,1423.75 2171.78,1412.43 2175.14,1398.29 2178.51,1381.09 2181.87,1360.62 2183.56,1349.09 
  2185.24,1336.66 2186.92,1323.32 2188.6,1309.03 2190.29,1293.77 2191.97,1277.53 2193.65,1260.28 2195.33,1242.02 2197.01,1222.72 2198.7,1202.37 2200.38,1180.97 
  2202.06,1158.5 2203.74,1134.97 2205.43,1110.37 2207.11,1084.71 2208.79,1058 2210.47,1030.25 2212.15,1001.47 2213.84,971.695 2215.52,940.945 2218.88,876.671 
  2222.25,809.007 2225.61,738.429 2228.98,665.553 2232.34,591.149 2235.71,516.167 2239.07,441.758 2242.44,369.3 2244.12,334.301 2245.8,300.424 2247.48,267.916 
  2249.17,237.046 2250.85,208.104 2252.53,181.401 2254.21,157.272 2255.89,136.076 2256.74,126.697 2257.58,118.199 2258.42,110.632 2259.26,104.052 2260.1,98.5145 
  2260.94,94.0773 2261.78,90.8003 2262.62,88.7454 2263.46,87.9763 2264.31,88.559 2265.15,90.5615 2265.99,94.054 2266.83,99.109 2267.67,105.801 2268.51,114.208 
  2269.35,124.408 2269.7,129.131 2270.04,134.176 2270.39,139.548 2270.73,145.254 2271.42,157.688 2272.11,171.53 2272.8,186.827 2273.49,203.632 2274.18,221.997 
  2274.87,241.977 2275.56,263.626 2276.25,287 2276.95,312.159 2277.64,339.16 2278.33,368.065 2279.02,398.936 2279.71,431.836 2280.4,466.83 2281.09,503.985 
  2281.78,543.37 2282.47,585.053 2283.16,629.106 2283.85,675.602 2284.54,724.615 2285.23,776.222 2285.92,830.502 2286.61,887.532 2287.3,947.396 2287.99,1010.18 
  2288.68,1075.96 2289.37,1144.83 2290.06,1216.88 2290.75,1292.2 2291.44,1370.88 
  "/>
<path clip-path="url(#clip090)" d="
M1986.81 302.578 L2280.54 302.578 L2280.54 95.2176 L1986.81 95.2176  Z
  " fill="#ffffff" fill-rule="evenodd" fill-opacity="1"/>
<polyline clip-path="url(#clip090)" style="stroke:#000000; stroke-linecap:butt; stroke-linejoin:round; stroke-width:4; stroke-opacity:1; fill:none" points="
  1986.81,302.578 2280.54,302.578 2280.54,95.2176 1986.81,95.2176 1986.81,302.578 
  "/>
<circle clip-path="url(#clip090)" cx="2083.1" cy="147.058" r="23.04" fill="#009af9" fill-rule="evenodd" fill-opacity="1" stroke="#000000" stroke-opacity="1" stroke-width="5.12"/>
<path clip-path="url(#clip090)" d="M2193.23 166.745 Q2191.42 171.375 2189.71 172.787 Q2188 174.199 2185.13 174.199 L2181.72 174.199 L2181.72 170.634 L2184.22 170.634 Q2185.98 170.634 2186.96 169.8 Q2187.93 168.967 2189.11 165.865 L2189.87 163.921 L2179.39 138.412 L2183.9 138.412 L2192 158.689 L2200.1 138.412 L2204.62 138.412 L2193.23 166.745 Z" fill="#000000" fill-rule="evenodd" fill-opacity="1" /><path clip-path="url(#clip090)" d="M2211.91 160.402 L2219.55 160.402 L2219.55 134.037 L2211.24 135.703 L2211.24 131.444 L2219.5 129.778 L2224.18 129.778 L2224.18 160.402 L2231.82 160.402 L2231.82 164.338 L2211.91 164.338 L2211.91 160.402 Z" fill="#000000" fill-rule="evenodd" fill-opacity="1" /><polyline clip-path="url(#clip090)" style="stroke:#e26f46; stroke-linecap:butt; stroke-linejoin:round; stroke-width:4; stroke-opacity:1; fill:none" points="
  2010.88,198.898 2155.31,198.898 
  "/>
<path clip-path="url(#clip090)" d="M2193.23 218.585 Q2191.42 223.215 2189.71 224.627 Q2188 226.039 2185.13 226.039 L2181.72 226.039 L2181.72 222.474 L2184.22 222.474 Q2185.98 222.474 2186.96 221.64 Q2187.93 220.807 2189.11 217.705 L2189.87 215.761 L2179.39 190.252 L2183.9 190.252 L2192 210.529 L2200.1 190.252 L2204.62 190.252 L2193.23 218.585 Z" fill="#000000" fill-rule="evenodd" fill-opacity="1" /><path clip-path="url(#clip090)" d="M2215.13 212.242 L2231.45 212.242 L2231.45 216.178 L2209.5 216.178 L2209.5 212.242 Q2212.16 209.488 2216.75 204.858 Q2221.35 200.205 2222.53 198.863 Q2224.78 196.34 2225.66 194.604 Q2226.56 192.844 2226.56 191.155 Q2226.56 188.4 2224.62 186.664 Q2222.7 184.928 2219.59 184.928 Q2217.4 184.928 2214.94 185.692 Q2212.51 186.455 2209.73 188.006 L2209.73 183.284 Q2212.56 182.15 2215.01 181.571 Q2217.47 180.993 2219.5 180.993 Q2224.87 180.993 2228.07 183.678 Q2231.26 186.363 2231.26 190.854 Q2231.26 192.983 2230.45 194.905 Q2229.66 196.803 2227.56 199.395 Q2226.98 200.067 2223.88 203.284 Q2220.78 206.479 2215.13 212.242 Z" fill="#000000" fill-rule="evenodd" fill-opacity="1" /><polyline clip-path="url(#clip090)" style="stroke:#3da44d; stroke-linecap:butt; stroke-linejoin:round; stroke-width:4; stroke-opacity:1; fill:none" points="
  2010.88,250.738 2155.31,250.738 
  "/>
<path clip-path="url(#clip090)" d="M2193.23 270.425 Q2191.42 275.055 2189.71 276.467 Q2188 277.879 2185.13 277.879 L2181.72 277.879 L2181.72 274.314 L2184.22 274.314 Q2185.98 274.314 2186.96 273.48 Q2187.93 272.647 2189.11 269.545 L2189.87 267.601 L2179.39 242.092 L2183.9 242.092 L2192 262.369 L2200.1 242.092 L2204.62 242.092 L2193.23 270.425 Z" fill="#000000" fill-rule="evenodd" fill-opacity="1" /><path clip-path="url(#clip090)" d="M2225.27 249.383 Q2228.62 250.101 2230.5 252.369 Q2232.4 254.638 2232.4 257.971 Q2232.4 263.087 2228.88 265.888 Q2225.36 268.689 2218.88 268.689 Q2216.7 268.689 2214.39 268.249 Q2212.09 267.832 2209.64 266.976 L2209.64 262.462 Q2211.59 263.596 2213.9 264.175 Q2216.22 264.754 2218.74 264.754 Q2223.14 264.754 2225.43 263.018 Q2227.74 261.281 2227.74 257.971 Q2227.74 254.916 2225.59 253.203 Q2223.46 251.467 2219.64 251.467 L2215.61 251.467 L2215.61 247.624 L2219.83 247.624 Q2223.28 247.624 2225.1 246.258 Q2226.93 244.87 2226.93 242.277 Q2226.93 239.615 2225.03 238.203 Q2223.16 236.768 2219.64 236.768 Q2217.72 236.768 2215.52 237.184 Q2213.32 237.601 2210.68 238.481 L2210.68 234.314 Q2213.34 233.573 2215.66 233.203 Q2218 232.833 2220.06 232.833 Q2225.38 232.833 2228.48 235.263 Q2231.59 237.67 2231.59 241.791 Q2231.59 244.661 2229.94 246.652 Q2228.3 248.62 2225.27 249.383 Z" fill="#000000" fill-rule="evenodd" fill-opacity="1" /></svg>
