<?xml version="1.0" encoding="utf-8"?>
<svg xmlns="http://www.w3.org/2000/svg" xmlns:xlink="http://www.w3.org/1999/xlink" width="600" height="400" viewBox="0 0 2400 1600">
<defs>
  <clipPath id="clip100">
    <rect x="0" y="0" width="2400" height="1600"/>
  </clipPath>
</defs>
<path clip-path="url(#clip100)" d="
M0 1600 L2400 1600 L2400 0 L0 0  Z
  " fill="#ffffff" fill-rule="evenodd" fill-opacity="1"/>
<defs>
  <clipPath id="clip101">
    <rect x="480" y="0" width="1681" height="1600"/>
  </clipPath>
</defs>
<path clip-path="url(#clip100)" d="
M213.607 1486.45 L2352.76 1486.45 L2352.76 47.2441 L213.607 47.2441  Z
  " fill="#ffffff" fill-rule="evenodd" fill-opacity="1"/>
<defs>
  <clipPath id="clip102">
    <rect x="213" y="47" width="2140" height="1440"/>
  </clipPath>
</defs>
<polyline clip-path="url(#clip102)" style="stroke:#000000; stroke-linecap:butt; stroke-linejoin:round; stroke-width:2; stroke-opacity:0.1; fill:none" points="
  699.005,1486.45 699.005,47.2441 
  "/>
<polyline clip-path="url(#clip102)" style="stroke:#000000; stroke-linecap:butt; stroke-linejoin:round; stroke-width:2; stroke-opacity:0.1; fill:none" points="
  1230.07,1486.45 1230.07,47.2441 
  "/>
<polyline clip-path="url(#clip102)" style="stroke:#000000; stroke-linecap:butt; stroke-linejoin:round; stroke-width:2; stroke-opacity:0.1; fill:none" points="
  1761.14,1486.45 1761.14,47.2441 
  "/>
<polyline clip-path="url(#clip102)" style="stroke:#000000; stroke-linecap:butt; stroke-linejoin:round; stroke-width:2; stroke-opacity:0.1; fill:none" points="
  2292.21,1486.45 2292.21,47.2441 
  "/>
<polyline clip-path="url(#clip100)" style="stroke:#000000; stroke-linecap:butt; stroke-linejoin:round; stroke-width:4; stroke-opacity:1; fill:none" points="
  213.607,1486.45 2352.76,1486.45 
  "/>
<polyline clip-path="url(#clip100)" style="stroke:#000000; stroke-linecap:butt; stroke-linejoin:round; stroke-width:4; stroke-opacity:1; fill:none" points="
  699.005,1486.45 699.005,1467.55 
  "/>
<polyline clip-path="url(#clip100)" style="stroke:#000000; stroke-linecap:butt; stroke-linejoin:round; stroke-width:4; stroke-opacity:1; fill:none" points="
  1230.07,1486.45 1230.07,1467.55 
  "/>
<polyline clip-path="url(#clip100)" style="stroke:#000000; stroke-linecap:butt; stroke-linejoin:round; stroke-width:4; stroke-opacity:1; fill:none" points="
  1761.14,1486.45 1761.14,1467.55 
  "/>
<polyline clip-path="url(#clip100)" style="stroke:#000000; stroke-linecap:butt; stroke-linejoin:round; stroke-width:4; stroke-opacity:1; fill:none" points="
  2292.21,1486.45 2292.21,1467.55 
  "/>
<path clip-path="url(#clip100)" d="M689.283 1514.29 L707.639 1514.29 L707.639 1518.22 L693.565 1518.22 L693.565 1526.7 Q694.584 1526.35 695.602 1526.19 Q696.621 1526 697.639 1526 Q703.426 1526 706.806 1529.17 Q710.186 1532.34 710.186 1537.76 Q710.186 1543.34 706.713 1546.44 Q703.241 1549.52 696.922 1549.52 Q694.746 1549.52 692.477 1549.15 Q690.232 1548.78 687.825 1548.04 L687.825 1543.34 Q689.908 1544.47 692.13 1545.03 Q694.352 1545.58 696.829 1545.58 Q700.834 1545.58 703.172 1543.48 Q705.51 1541.37 705.51 1537.76 Q705.51 1534.15 703.172 1532.04 Q700.834 1529.94 696.829 1529.94 Q694.954 1529.94 693.079 1530.35 Q691.227 1530.77 689.283 1531.65 L689.283 1514.29 Z" fill="#000000" fill-rule="evenodd" fill-opacity="1" /><path clip-path="url(#clip100)" d="M1204.76 1544.91 L1212.4 1544.91 L1212.4 1518.55 L1204.09 1520.21 L1204.09 1515.95 L1212.35 1514.29 L1217.03 1514.29 L1217.03 1544.91 L1224.67 1544.91 L1224.67 1548.85 L1204.76 1548.85 L1204.76 1544.91 Z" fill="#000000" fill-rule="evenodd" fill-opacity="1" /><path clip-path="url(#clip100)" d="M1244.11 1517.37 Q1240.5 1517.37 1238.67 1520.93 Q1236.87 1524.47 1236.87 1531.6 Q1236.87 1538.71 1238.67 1542.27 Q1240.5 1545.82 1244.11 1545.82 Q1247.75 1545.82 1249.55 1542.27 Q1251.38 1538.71 1251.38 1531.6 Q1251.38 1524.47 1249.55 1520.93 Q1247.75 1517.37 1244.11 1517.37 M1244.11 1513.66 Q1249.92 1513.66 1252.98 1518.27 Q1256.06 1522.85 1256.06 1531.6 Q1256.06 1540.33 1252.98 1544.94 Q1249.92 1549.52 1244.11 1549.52 Q1238.3 1549.52 1235.23 1544.94 Q1232.17 1540.33 1232.17 1531.6 Q1232.17 1522.85 1235.23 1518.27 Q1238.3 1513.66 1244.11 1513.66 Z" fill="#000000" fill-rule="evenodd" fill-opacity="1" /><path clip-path="url(#clip100)" d="M1736.33 1544.91 L1743.97 1544.91 L1743.97 1518.55 L1735.66 1520.21 L1735.66 1515.95 L1743.92 1514.29 L1748.6 1514.29 L1748.6 1544.91 L1756.24 1544.91 L1756.24 1548.85 L1736.33 1548.85 L1736.33 1544.91 Z" fill="#000000" fill-rule="evenodd" fill-opacity="1" /><path clip-path="url(#clip100)" d="M1765.73 1514.29 L1784.08 1514.29 L1784.08 1518.22 L1770.01 1518.22 L1770.01 1526.7 Q1771.03 1526.35 1772.05 1526.19 Q1773.07 1526 1774.08 1526 Q1779.87 1526 1783.25 1529.17 Q1786.63 1532.34 1786.63 1537.76 Q1786.63 1543.34 1783.16 1546.44 Q1779.69 1549.52 1773.37 1549.52 Q1771.19 1549.52 1768.92 1549.15 Q1766.68 1548.78 1764.27 1548.04 L1764.27 1543.34 Q1766.35 1544.47 1768.57 1545.03 Q1770.8 1545.58 1773.27 1545.58 Q1777.28 1545.58 1779.62 1543.48 Q1781.95 1541.37 1781.95 1537.76 Q1781.95 1534.15 1779.62 1532.04 Q1777.28 1529.94 1773.27 1529.94 Q1771.4 1529.94 1769.52 1530.35 Q1767.67 1530.77 1765.73 1531.65 L1765.73 1514.29 Z" fill="#000000" fill-rule="evenodd" fill-opacity="1" /><path clip-path="url(#clip100)" d="M2270.99 1544.91 L2287.31 1544.91 L2287.31 1548.85 L2265.36 1548.85 L2265.36 1544.91 Q2268.02 1542.16 2272.61 1537.53 Q2277.21 1532.88 2278.39 1531.53 Q2280.64 1529.01 2281.52 1527.27 Q2282.42 1525.51 2282.42 1523.82 Q2282.42 1521.07 2280.48 1519.33 Q2278.56 1517.6 2275.45 1517.6 Q2273.26 1517.6 2270.8 1518.36 Q2268.37 1519.13 2265.59 1520.68 L2265.59 1515.95 Q2268.42 1514.82 2270.87 1514.24 Q2273.33 1513.66 2275.36 1513.66 Q2280.73 1513.66 2283.93 1516.35 Q2287.12 1519.03 2287.12 1523.52 Q2287.12 1525.65 2286.31 1527.57 Q2285.52 1529.47 2283.42 1532.07 Q2282.84 1532.74 2279.74 1535.95 Q2276.64 1539.15 2270.99 1544.91 Z" fill="#000000" fill-rule="evenodd" fill-opacity="1" /><path clip-path="url(#clip100)" d="M2307.12 1517.37 Q2303.51 1517.37 2301.68 1520.93 Q2299.88 1524.47 2299.88 1531.6 Q2299.88 1538.71 2301.68 1542.27 Q2303.51 1545.82 2307.12 1545.82 Q2310.76 1545.82 2312.56 1542.27 Q2314.39 1538.71 2314.39 1531.6 Q2314.39 1524.47 2312.56 1520.93 Q2310.76 1517.37 2307.12 1517.37 M2307.12 1513.66 Q2312.93 1513.66 2315.99 1518.27 Q2319.07 1522.85 2319.07 1531.6 Q2319.07 1540.33 2315.99 1544.94 Q2312.93 1549.52 2307.12 1549.52 Q2301.31 1549.52 2298.23 1544.94 Q2295.18 1540.33 2295.18 1531.6 Q2295.18 1522.85 2298.23 1518.27 Q2301.31 1513.66 2307.12 1513.66 Z" fill="#000000" fill-rule="evenodd" fill-opacity="1" /><polyline clip-path="url(#clip102)" style="stroke:#000000; stroke-linecap:butt; stroke-linejoin:round; stroke-width:2; stroke-opacity:0.1; fill:none" points="
  213.607,1110.74 2352.76,1110.74 
  "/>
<polyline clip-path="url(#clip102)" style="stroke:#000000; stroke-linecap:butt; stroke-linejoin:round; stroke-width:2; stroke-opacity:0.1; fill:none" points="
  213.607,668.734 2352.76,668.734 
  "/>
<polyline clip-path="url(#clip102)" style="stroke:#000000; stroke-linecap:butt; stroke-linejoin:round; stroke-width:2; stroke-opacity:0.1; fill:none" points="
  213.607,226.725 2352.76,226.725 
  "/>
<polyline clip-path="url(#clip100)" style="stroke:#000000; stroke-linecap:butt; stroke-linejoin:round; stroke-width:4; stroke-opacity:1; fill:none" points="
  213.607,1486.45 213.607,47.2441 
  "/>
<polyline clip-path="url(#clip100)" style="stroke:#000000; stroke-linecap:butt; stroke-linejoin:round; stroke-width:4; stroke-opacity:1; fill:none" points="
  213.607,1110.74 232.505,1110.74 
  "/>
<polyline clip-path="url(#clip100)" style="stroke:#000000; stroke-linecap:butt; stroke-linejoin:round; stroke-width:4; stroke-opacity:1; fill:none" points="
  213.607,668.734 232.505,668.734 
  "/>
<polyline clip-path="url(#clip100)" style="stroke:#000000; stroke-linecap:butt; stroke-linejoin:round; stroke-width:4; stroke-opacity:1; fill:none" points="
  213.607,226.725 232.505,226.725 
  "/>
<path clip-path="url(#clip100)" d="M51.6634 1130.54 L59.3023 1130.54 L59.3023 1104.17 L50.9921 1105.84 L50.9921 1101.58 L59.256 1099.91 L63.9319 1099.91 L63.9319 1130.54 L71.5707 1130.54 L71.5707 1134.47 L51.6634 1134.47 L51.6634 1130.54 Z" fill="#000000" fill-rule="evenodd" fill-opacity="1" /><path clip-path="url(#clip100)" d="M91.0151 1102.99 Q87.404 1102.99 85.5753 1106.55 Q83.7697 1110.1 83.7697 1117.23 Q83.7697 1124.33 85.5753 1127.9 Q87.404 1131.44 91.0151 1131.44 Q94.6493 1131.44 96.4548 1127.9 Q98.2835 1124.33 98.2835 1117.23 Q98.2835 1110.1 96.4548 1106.55 Q94.6493 1102.99 91.0151 1102.99 M91.0151 1099.29 Q96.8252 1099.29 99.8808 1103.89 Q102.959 1108.48 102.959 1117.23 Q102.959 1125.95 99.8808 1130.56 Q96.8252 1135.14 91.0151 1135.14 Q85.2049 1135.14 82.1262 1130.56 Q79.0707 1125.95 79.0707 1117.23 Q79.0707 1108.48 82.1262 1103.89 Q85.2049 1099.29 91.0151 1099.29 Z" fill="#000000" fill-rule="evenodd" fill-opacity="1" /><path clip-path="url(#clip100)" d="M102.959 1093.39 L127.071 1093.39 L127.071 1096.58 L102.959 1096.58 L102.959 1093.39 Z" fill="#000000" fill-rule="evenodd" fill-opacity="1" /><path clip-path="url(#clip100)" d="M135.929 1103.86 L142.136 1103.86 L142.136 1082.44 L135.384 1083.8 L135.384 1080.33 L142.098 1078.98 L145.898 1078.98 L145.898 1103.86 L152.104 1103.86 L152.104 1107.06 L135.929 1107.06 L135.929 1103.86 Z" fill="#000000" fill-rule="evenodd" fill-opacity="1" /><path clip-path="url(#clip100)" d="M167.903 1081.48 Q164.969 1081.48 163.483 1084.38 Q162.016 1087.26 162.016 1093.05 Q162.016 1098.82 163.483 1101.72 Q164.969 1104.6 167.903 1104.6 Q170.855 1104.6 172.322 1101.72 Q173.808 1098.82 173.808 1093.05 Q173.808 1087.26 172.322 1084.38 Q170.855 1081.48 167.903 1081.48 M167.903 1078.47 Q172.623 1078.47 175.106 1082.22 Q177.607 1085.94 177.607 1093.05 Q177.607 1100.14 175.106 1103.88 Q172.623 1107.61 167.903 1107.61 Q163.182 1107.61 160.68 1103.88 Q158.198 1100.14 158.198 1093.05 Q158.198 1085.94 160.68 1082.22 Q163.182 1078.47 167.903 1078.47 Z" fill="#000000" fill-rule="evenodd" fill-opacity="1" /><path clip-path="url(#clip100)" d="M76.9787 688.527 L84.6175 688.527 L84.6175 662.161 L76.3074 663.828 L76.3074 659.569 L84.5712 657.902 L89.2471 657.902 L89.2471 688.527 L96.886 688.527 L96.886 692.462 L76.9787 692.462 L76.9787 688.527 Z" fill="#000000" fill-rule="evenodd" fill-opacity="1" /><path clip-path="url(#clip100)" d="M116.33 660.981 Q112.719 660.981 110.891 664.545 Q109.085 668.087 109.085 675.217 Q109.085 682.323 110.891 685.888 Q112.719 689.429 116.33 689.429 Q119.965 689.429 121.77 685.888 Q123.599 682.323 123.599 675.217 Q123.599 668.087 121.77 664.545 Q119.965 660.981 116.33 660.981 M116.33 657.277 Q122.14 657.277 125.196 661.883 Q128.275 666.467 128.275 675.217 Q128.275 683.943 125.196 688.55 Q122.14 693.133 116.33 693.133 Q110.52 693.133 107.441 688.55 Q104.386 683.943 104.386 675.217 Q104.386 666.467 107.441 661.883 Q110.52 657.277 116.33 657.277 Z" fill="#000000" fill-rule="evenodd" fill-opacity="1" /><path clip-path="url(#clip100)" d="M128.275 651.378 L152.386 651.378 L152.386 654.576 L128.275 654.576 L128.275 651.378 Z" fill="#000000" fill-rule="evenodd" fill-opacity="1" /><path clip-path="url(#clip100)" d="M160.624 636.971 L175.539 636.971 L175.539 640.169 L164.103 640.169 L164.103 647.052 Q164.931 646.77 165.759 646.639 Q166.586 646.488 167.414 646.488 Q172.116 646.488 174.862 649.065 Q177.607 651.642 177.607 656.043 Q177.607 660.575 174.786 663.095 Q171.965 665.597 166.831 665.597 Q165.063 665.597 163.22 665.296 Q161.395 664.995 159.439 664.393 L159.439 660.575 Q161.132 661.497 162.937 661.948 Q164.743 662.4 166.755 662.4 Q170.009 662.4 171.909 660.688 Q173.808 658.977 173.808 656.043 Q173.808 653.109 171.909 651.397 Q170.009 649.686 166.755 649.686 Q165.232 649.686 163.709 650.024 Q162.204 650.363 160.624 651.077 L160.624 636.971 Z" fill="#000000" fill-rule="evenodd" fill-opacity="1" /><path clip-path="url(#clip100)" d="M106.902 246.517 L114.541 246.517 L114.541 220.152 L106.231 221.819 L106.231 217.559 L114.494 215.893 L119.17 215.893 L119.17 246.517 L126.809 246.517 L126.809 250.453 L106.902 250.453 L106.902 246.517 Z" fill="#000000" fill-rule="evenodd" fill-opacity="1" /><path clip-path="url(#clip100)" d="M146.253 218.971 Q142.642 218.971 140.814 222.536 Q139.008 226.078 139.008 233.207 Q139.008 240.314 140.814 243.879 Q142.642 247.42 146.253 247.42 Q149.888 247.42 151.693 243.879 Q153.522 240.314 153.522 233.207 Q153.522 226.078 151.693 222.536 Q149.888 218.971 146.253 218.971 M146.253 215.268 Q152.064 215.268 155.119 219.874 Q158.198 224.457 158.198 233.207 Q158.198 241.934 155.119 246.541 Q152.064 251.124 146.253 251.124 Q140.443 251.124 137.365 246.541 Q134.309 241.934 134.309 233.207 Q134.309 224.457 137.365 219.874 Q140.443 215.268 146.253 215.268 Z" fill="#000000" fill-rule="evenodd" fill-opacity="1" /><path clip-path="url(#clip100)" d="M167.903 197.464 Q164.969 197.464 163.483 200.36 Q162.016 203.238 162.016 209.03 Q162.016 214.804 163.483 217.701 Q164.969 220.578 167.903 220.578 Q170.855 220.578 172.322 217.701 Q173.808 214.804 173.808 209.03 Q173.808 203.238 172.322 200.36 Q170.855 197.464 167.903 197.464 M167.903 194.454 Q172.623 194.454 175.106 198.197 Q177.607 201.921 177.607 209.03 Q177.607 216.121 175.106 219.864 Q172.623 223.588 167.903 223.588 Q163.182 223.588 160.68 219.864 Q158.198 216.121 158.198 209.03 Q158.198 201.921 160.68 198.197 Q163.182 194.454 167.903 194.454 Z" fill="#000000" fill-rule="evenodd" fill-opacity="1" /><polyline clip-path="url(#clip102)" style="stroke:#009af9; stroke-linecap:butt; stroke-linejoin:round; stroke-width:12; stroke-opacity:1; fill:none" points="
  274.149,87.9763 380.363,89.3085 486.577,96.7855 592.791,99.984 699.005,107.41 805.219,123.857 911.433,123.691 1017.65,146.779 1123.86,138.537 1230.07,198.297 
  1336.29,267.942 1442.5,406.603 1548.72,684.194 1654.93,1239.52 1761.14,1445.72 1867.36,1440.26 1973.57,1438.06 2079.79,1438.06 2186,1438.06 2292.21,1438.06 
  
  "/>
<line clip-path="url(#clip102)" x1="274.149" y1="87.9763" x2="274.149" y2="71.9763" style="stroke:#009af9; stroke-width:3.2; stroke-opacity:1"/>
<line clip-path="url(#clip102)" x1="274.149" y1="87.9763" x2="258.149" y2="87.9763" style="stroke:#009af9; stroke-width:3.2; stroke-opacity:1"/>
<line clip-path="url(#clip102)" x1="274.149" y1="87.9763" x2="274.149" y2="103.976" style="stroke:#009af9; stroke-width:3.2; stroke-opacity:1"/>
<line clip-path="url(#clip102)" x1="274.149" y1="87.9763" x2="290.149" y2="87.9763" style="stroke:#009af9; stroke-width:3.2; stroke-opacity:1"/>
<line clip-path="url(#clip102)" x1="380.363" y1="89.3085" x2="380.363" y2="73.3085" style="stroke:#009af9; stroke-width:3.2; stroke-opacity:1"/>
<line clip-path="url(#clip102)" x1="380.363" y1="89.3085" x2="364.363" y2="89.3085" style="stroke:#009af9; stroke-width:3.2; stroke-opacity:1"/>
<line clip-path="url(#clip102)" x1="380.363" y1="89.3085" x2="380.363" y2="105.309" style="stroke:#009af9; stroke-width:3.2; stroke-opacity:1"/>
<line clip-path="url(#clip102)" x1="380.363" y1="89.3085" x2="396.363" y2="89.3085" style="stroke:#009af9; stroke-width:3.2; stroke-opacity:1"/>
<line clip-path="url(#clip102)" x1="486.577" y1="96.7855" x2="486.577" y2="80.7855" style="stroke:#009af9; stroke-width:3.2; stroke-opacity:1"/>
<line clip-path="url(#clip102)" x1="486.577" y1="96.7855" x2="470.577" y2="96.7855" style="stroke:#009af9; stroke-width:3.2; stroke-opacity:1"/>
<line clip-path="url(#clip102)" x1="486.577" y1="96.7855" x2="486.577" y2="112.785" style="stroke:#009af9; stroke-width:3.2; stroke-opacity:1"/>
<line clip-path="url(#clip102)" x1="486.577" y1="96.7855" x2="502.577" y2="96.7855" style="stroke:#009af9; stroke-width:3.2; stroke-opacity:1"/>
<line clip-path="url(#clip102)" x1="592.791" y1="99.984" x2="592.791" y2="83.984" style="stroke:#009af9; stroke-width:3.2; stroke-opacity:1"/>
<line clip-path="url(#clip102)" x1="592.791" y1="99.984" x2="576.791" y2="99.984" style="stroke:#009af9; stroke-width:3.2; stroke-opacity:1"/>
<line clip-path="url(#clip102)" x1="592.791" y1="99.984" x2="592.791" y2="115.984" style="stroke:#009af9; stroke-width:3.2; stroke-opacity:1"/>
<line clip-path="url(#clip102)" x1="592.791" y1="99.984" x2="608.791" y2="99.984" style="stroke:#009af9; stroke-width:3.2; stroke-opacity:1"/>
<line clip-path="url(#clip102)" x1="699.005" y1="107.41" x2="699.005" y2="91.4104" style="stroke:#009af9; stroke-width:3.2; stroke-opacity:1"/>
<line clip-path="url(#clip102)" x1="699.005" y1="107.41" x2="683.005" y2="107.41" style="stroke:#009af9; stroke-width:3.2; stroke-opacity:1"/>
<line clip-path="url(#clip102)" x1="699.005" y1="107.41" x2="699.005" y2="123.41" style="stroke:#009af9; stroke-width:3.2; stroke-opacity:1"/>
<line clip-path="url(#clip102)" x1="699.005" y1="107.41" x2="715.005" y2="107.41" style="stroke:#009af9; stroke-width:3.2; stroke-opacity:1"/>
<line clip-path="url(#clip102)" x1="805.219" y1="123.857" x2="805.219" y2="107.857" style="stroke:#009af9; stroke-width:3.2; stroke-opacity:1"/>
<line clip-path="url(#clip102)" x1="805.219" y1="123.857" x2="789.219" y2="123.857" style="stroke:#009af9; stroke-width:3.2; stroke-opacity:1"/>
<line clip-path="url(#clip102)" x1="805.219" y1="123.857" x2="805.219" y2="139.857" style="stroke:#009af9; stroke-width:3.2; stroke-opacity:1"/>
<line clip-path="url(#clip102)" x1="805.219" y1="123.857" x2="821.219" y2="123.857" style="stroke:#009af9; stroke-width:3.2; stroke-opacity:1"/>
<line clip-path="url(#clip102)" x1="911.433" y1="123.691" x2="911.433" y2="107.691" style="stroke:#009af9; stroke-width:3.2; stroke-opacity:1"/>
<line clip-path="url(#clip102)" x1="911.433" y1="123.691" x2="895.433" y2="123.691" style="stroke:#009af9; stroke-width:3.2; stroke-opacity:1"/>
<line clip-path="url(#clip102)" x1="911.433" y1="123.691" x2="911.433" y2="139.691" style="stroke:#009af9; stroke-width:3.2; stroke-opacity:1"/>
<line clip-path="url(#clip102)" x1="911.433" y1="123.691" x2="927.433" y2="123.691" style="stroke:#009af9; stroke-width:3.2; stroke-opacity:1"/>
<line clip-path="url(#clip102)" x1="1017.65" y1="146.779" x2="1017.65" y2="130.779" style="stroke:#009af9; stroke-width:3.2; stroke-opacity:1"/>
<line clip-path="url(#clip102)" x1="1017.65" y1="146.779" x2="1001.65" y2="146.779" style="stroke:#009af9; stroke-width:3.2; stroke-opacity:1"/>
<line clip-path="url(#clip102)" x1="1017.65" y1="146.779" x2="1017.65" y2="162.779" style="stroke:#009af9; stroke-width:3.2; stroke-opacity:1"/>
<line clip-path="url(#clip102)" x1="1017.65" y1="146.779" x2="1033.65" y2="146.779" style="stroke:#009af9; stroke-width:3.2; stroke-opacity:1"/>
<line clip-path="url(#clip102)" x1="1123.86" y1="138.537" x2="1123.86" y2="122.537" style="stroke:#009af9; stroke-width:3.2; stroke-opacity:1"/>
<line clip-path="url(#clip102)" x1="1123.86" y1="138.537" x2="1107.86" y2="138.537" style="stroke:#009af9; stroke-width:3.2; stroke-opacity:1"/>
<line clip-path="url(#clip102)" x1="1123.86" y1="138.537" x2="1123.86" y2="154.537" style="stroke:#009af9; stroke-width:3.2; stroke-opacity:1"/>
<line clip-path="url(#clip102)" x1="1123.86" y1="138.537" x2="1139.86" y2="138.537" style="stroke:#009af9; stroke-width:3.2; stroke-opacity:1"/>
<line clip-path="url(#clip102)" x1="1230.07" y1="198.297" x2="1230.07" y2="182.297" style="stroke:#009af9; stroke-width:3.2; stroke-opacity:1"/>
<line clip-path="url(#clip102)" x1="1230.07" y1="198.297" x2="1214.07" y2="198.297" style="stroke:#009af9; stroke-width:3.2; stroke-opacity:1"/>
<line clip-path="url(#clip102)" x1="1230.07" y1="198.297" x2="1230.07" y2="214.297" style="stroke:#009af9; stroke-width:3.2; stroke-opacity:1"/>
<line clip-path="url(#clip102)" x1="1230.07" y1="198.297" x2="1246.07" y2="198.297" style="stroke:#009af9; stroke-width:3.2; stroke-opacity:1"/>
<line clip-path="url(#clip102)" x1="1336.29" y1="267.942" x2="1336.29" y2="251.942" style="stroke:#009af9; stroke-width:3.2; stroke-opacity:1"/>
<line clip-path="url(#clip102)" x1="1336.29" y1="267.942" x2="1320.29" y2="267.942" style="stroke:#009af9; stroke-width:3.2; stroke-opacity:1"/>
<line clip-path="url(#clip102)" x1="1336.29" y1="267.942" x2="1336.29" y2="283.942" style="stroke:#009af9; stroke-width:3.2; stroke-opacity:1"/>
<line clip-path="url(#clip102)" x1="1336.29" y1="267.942" x2="1352.29" y2="267.942" style="stroke:#009af9; stroke-width:3.2; stroke-opacity:1"/>
<line clip-path="url(#clip102)" x1="1442.5" y1="406.603" x2="1442.5" y2="390.603" style="stroke:#009af9; stroke-width:3.2; stroke-opacity:1"/>
<line clip-path="url(#clip102)" x1="1442.5" y1="406.603" x2="1426.5" y2="406.603" style="stroke:#009af9; stroke-width:3.2; stroke-opacity:1"/>
<line clip-path="url(#clip102)" x1="1442.5" y1="406.603" x2="1442.5" y2="422.603" style="stroke:#009af9; stroke-width:3.2; stroke-opacity:1"/>
<line clip-path="url(#clip102)" x1="1442.5" y1="406.603" x2="1458.5" y2="406.603" style="stroke:#009af9; stroke-width:3.2; stroke-opacity:1"/>
<line clip-path="url(#clip102)" x1="1548.72" y1="684.194" x2="1548.72" y2="668.194" style="stroke:#009af9; stroke-width:3.2; stroke-opacity:1"/>
<line clip-path="url(#clip102)" x1="1548.72" y1="684.194" x2="1532.72" y2="684.194" style="stroke:#009af9; stroke-width:3.2; stroke-opacity:1"/>
<line clip-path="url(#clip102)" x1="1548.72" y1="684.194" x2="1548.72" y2="700.194" style="stroke:#009af9; stroke-width:3.2; stroke-opacity:1"/>
<line clip-path="url(#clip102)" x1="1548.72" y1="684.194" x2="1564.72" y2="684.194" style="stroke:#009af9; stroke-width:3.2; stroke-opacity:1"/>
<line clip-path="url(#clip102)" x1="1654.93" y1="1239.52" x2="1654.93" y2="1223.52" style="stroke:#009af9; stroke-width:3.2; stroke-opacity:1"/>
<line clip-path="url(#clip102)" x1="1654.93" y1="1239.52" x2="1638.93" y2="1239.52" style="stroke:#009af9; stroke-width:3.2; stroke-opacity:1"/>
<line clip-path="url(#clip102)" x1="1654.93" y1="1239.52" x2="1654.93" y2="1255.52" style="stroke:#009af9; stroke-width:3.2; stroke-opacity:1"/>
<line clip-path="url(#clip102)" x1="1654.93" y1="1239.52" x2="1670.93" y2="1239.52" style="stroke:#009af9; stroke-width:3.2; stroke-opacity:1"/>
<line clip-path="url(#clip102)" x1="1761.14" y1="1445.72" x2="1761.14" y2="1429.72" style="stroke:#009af9; stroke-width:3.2; stroke-opacity:1"/>
<line clip-path="url(#clip102)" x1="1761.14" y1="1445.72" x2="1745.14" y2="1445.72" style="stroke:#009af9; stroke-width:3.2; stroke-opacity:1"/>
<line clip-path="url(#clip102)" x1="1761.14" y1="1445.72" x2="1761.14" y2="1461.72" style="stroke:#009af9; stroke-width:3.2; stroke-opacity:1"/>
<line clip-path="url(#clip102)" x1="1761.14" y1="1445.72" x2="1777.14" y2="1445.72" style="stroke:#009af9; stroke-width:3.2; stroke-opacity:1"/>
<line clip-path="url(#clip102)" x1="1867.36" y1="1440.26" x2="1867.36" y2="1424.26" style="stroke:#009af9; stroke-width:3.2; stroke-opacity:1"/>
<line clip-path="url(#clip102)" x1="1867.36" y1="1440.26" x2="1851.36" y2="1440.26" style="stroke:#009af9; stroke-width:3.2; stroke-opacity:1"/>
<line clip-path="url(#clip102)" x1="1867.36" y1="1440.26" x2="1867.36" y2="1456.26" style="stroke:#009af9; stroke-width:3.2; stroke-opacity:1"/>
<line clip-path="url(#clip102)" x1="1867.36" y1="1440.26" x2="1883.36" y2="1440.26" style="stroke:#009af9; stroke-width:3.2; stroke-opacity:1"/>
<line clip-path="url(#clip102)" x1="1973.57" y1="1438.06" x2="1973.57" y2="1422.06" style="stroke:#009af9; stroke-width:3.2; stroke-opacity:1"/>
<line clip-path="url(#clip102)" x1="1973.57" y1="1438.06" x2="1957.57" y2="1438.06" style="stroke:#009af9; stroke-width:3.2; stroke-opacity:1"/>
<line clip-path="url(#clip102)" x1="1973.57" y1="1438.06" x2="1973.57" y2="1454.06" style="stroke:#009af9; stroke-width:3.2; stroke-opacity:1"/>
<line clip-path="url(#clip102)" x1="1973.57" y1="1438.06" x2="1989.57" y2="1438.06" style="stroke:#009af9; stroke-width:3.2; stroke-opacity:1"/>
<line clip-path="url(#clip102)" x1="2079.79" y1="1438.06" x2="2079.79" y2="1422.06" style="stroke:#009af9; stroke-width:3.2; stroke-opacity:1"/>
<line clip-path="url(#clip102)" x1="2079.79" y1="1438.06" x2="2063.79" y2="1438.06" style="stroke:#009af9; stroke-width:3.2; stroke-opacity:1"/>
<line clip-path="url(#clip102)" x1="2079.79" y1="1438.06" x2="2079.79" y2="1454.06" style="stroke:#009af9; stroke-width:3.2; stroke-opacity:1"/>
<line clip-path="url(#clip102)" x1="2079.79" y1="1438.06" x2="2095.79" y2="1438.06" style="stroke:#009af9; stroke-width:3.2; stroke-opacity:1"/>
<line clip-path="url(#clip102)" x1="2186" y1="1438.06" x2="2186" y2="1422.06" style="stroke:#009af9; stroke-width:3.2; stroke-opacity:1"/>
<line clip-path="url(#clip102)" x1="2186" y1="1438.06" x2="2170" y2="1438.06" style="stroke:#009af9; stroke-width:3.2; stroke-opacity:1"/>
<line clip-path="url(#clip102)" x1="2186" y1="1438.06" x2="2186" y2="1454.06" style="stroke:#009af9; stroke-width:3.2; stroke-opacity:1"/>
<line clip-path="url(#clip102)" x1="2186" y1="1438.06" x2="2202" y2="1438.06" style="stroke:#009af9; stroke-width:3.2; stroke-opacity:1"/>
<line clip-path="url(#clip102)" x1="2292.21" y1="1438.06" x2="2292.21" y2="1422.06" style="stroke:#009af9; stroke-width:3.2; stroke-opacity:1"/>
<line clip-path="url(#clip102)" x1="2292.21" y1="1438.06" x2="2276.21" y2="1438.06" style="stroke:#009af9; stroke-width:3.2; stroke-opacity:1"/>
<line clip-path="url(#clip102)" x1="2292.21" y1="1438.06" x2="2292.21" y2="1454.06" style="stroke:#009af9; stroke-width:3.2; stroke-opacity:1"/>
<line clip-path="url(#clip102)" x1="2292.21" y1="1438.06" x2="2308.21" y2="1438.06" style="stroke:#009af9; stroke-width:3.2; stroke-opacity:1"/>
<path clip-path="url(#clip100)" d="
M1991.34 198.898 L2281.45 198.898 L2281.45 95.2176 L1991.34 95.2176  Z
  " fill="#ffffff" fill-rule="evenodd" fill-opacity="1"/>
<polyline clip-path="url(#clip100)" style="stroke:#000000; stroke-linecap:butt; stroke-linejoin:round; stroke-width:4; stroke-opacity:1; fill:none" points="
  1991.34,198.898 2281.45,198.898 2281.45,95.2176 1991.34,95.2176 1991.34,198.898 
  "/>
<polyline clip-path="url(#clip100)" style="stroke:#009af9; stroke-linecap:butt; stroke-linejoin:round; stroke-width:4; stroke-opacity:1; fill:none" points="
  2015.11,147.058 2157.72,147.058 
  "/>
<line clip-path="url(#clip100)" x1="2086.41" y1="147.058" x2="2086.41" y2="121.458" style="stroke:#009af9; stroke-width:5.12; stroke-opacity:1"/>
<line clip-path="url(#clip100)" x1="2086.41" y1="147.058" x2="2060.81" y2="147.058" style="stroke:#009af9; stroke-width:5.12; stroke-opacity:1"/>
<line clip-path="url(#clip100)" x1="2086.41" y1="147.058" x2="2086.41" y2="172.658" style="stroke:#009af9; stroke-width:5.12; stroke-opacity:1"/>
<line clip-path="url(#clip100)" x1="2086.41" y1="147.058" x2="2112.01" y2="147.058" style="stroke:#009af9; stroke-width:5.12; stroke-opacity:1"/>
<path clip-path="url(#clip100)" d="M2195.33 166.745 Q2193.52 171.375 2191.81 172.787 Q2190.1 174.199 2187.22 174.199 L2183.82 174.199 L2183.82 170.634 L2186.32 170.634 Q2188.08 170.634 2189.05 169.8 Q2190.03 168.967 2191.21 165.865 L2191.97 163.921 L2181.48 138.412 L2186 138.412 L2194.1 158.689 L2202.2 138.412 L2206.72 138.412 L2195.33 166.745 Z" fill="#000000" fill-rule="evenodd" fill-opacity="1" /><path clip-path="url(#clip100)" d="M2214.01 160.402 L2221.65 160.402 L2221.65 134.037 L2213.34 135.703 L2213.34 131.444 L2221.6 129.778 L2226.28 129.778 L2226.28 160.402 L2233.91 160.402 L2233.91 164.338 L2214.01 164.338 L2214.01 160.402 Z" fill="#000000" fill-rule="evenodd" fill-opacity="1" /></svg>
