<?xml version="1.0" encoding="utf-8"?>
<svg xmlns="http://www.w3.org/2000/svg" xmlns:xlink="http://www.w3.org/1999/xlink" width="600" height="400" viewBox="0 0 2400 1600">
<defs>
  <clipPath id="clip250">
    <rect x="0" y="0" width="2400" height="1600"/>
  </clipPath>
</defs>
<path clip-path="url(#clip250)" d="
M0 1600 L2400 1600 L2400 0 L0 0  Z
  " fill="#ffffff" fill-rule="evenodd" fill-opacity="1"/>
<defs>
  <clipPath id="clip251">
    <rect x="480" y="0" width="1681" height="1600"/>
  </clipPath>
</defs>
<path clip-path="url(#clip250)" d="
M193.936 1486.45 L2352.76 1486.45 L2352.76 47.2441 L193.936 47.2441  Z
  " fill="#ffffff" fill-rule="evenodd" fill-opacity="1"/>
<defs>
  <clipPath id="clip252">
    <rect x="193" y="47" width="2160" height="1440"/>
  </clipPath>
</defs>
<polyline clip-path="url(#clip252)" style="stroke:#000000; stroke-linecap:butt; stroke-linejoin:round; stroke-width:2; stroke-opacity:0.1; fill:none" points="
  401.865,1486.45 401.865,47.2441 
  "/>
<polyline clip-path="url(#clip252)" style="stroke:#000000; stroke-linecap:butt; stroke-linejoin:round; stroke-width:2; stroke-opacity:0.1; fill:none" points="
  868.685,1486.45 868.685,47.2441 
  "/>
<polyline clip-path="url(#clip252)" style="stroke:#000000; stroke-linecap:butt; stroke-linejoin:round; stroke-width:2; stroke-opacity:0.1; fill:none" points="
  1335.51,1486.45 1335.51,47.2441 
  "/>
<polyline clip-path="url(#clip252)" style="stroke:#000000; stroke-linecap:butt; stroke-linejoin:round; stroke-width:2; stroke-opacity:0.1; fill:none" points="
  1802.33,1486.45 1802.33,47.2441 
  "/>
<polyline clip-path="url(#clip252)" style="stroke:#000000; stroke-linecap:butt; stroke-linejoin:round; stroke-width:2; stroke-opacity:0.1; fill:none" points="
  2269.15,1486.45 2269.15,47.2441 
  "/>
<polyline clip-path="url(#clip250)" style="stroke:#000000; stroke-linecap:butt; stroke-linejoin:round; stroke-width:4; stroke-opacity:1; fill:none" points="
  193.936,1486.45 2352.76,1486.45 
  "/>
<polyline clip-path="url(#clip250)" style="stroke:#000000; stroke-linecap:butt; stroke-linejoin:round; stroke-width:4; stroke-opacity:1; fill:none" points="
  401.865,1486.45 401.865,1467.55 
  "/>
<polyline clip-path="url(#clip250)" style="stroke:#000000; stroke-linecap:butt; stroke-linejoin:round; stroke-width:4; stroke-opacity:1; fill:none" points="
  868.685,1486.45 868.685,1467.55 
  "/>
<polyline clip-path="url(#clip250)" style="stroke:#000000; stroke-linecap:butt; stroke-linejoin:round; stroke-width:4; stroke-opacity:1; fill:none" points="
  1335.51,1486.45 1335.51,1467.55 
  "/>
<polyline clip-path="url(#clip250)" style="stroke:#000000; stroke-linecap:butt; stroke-linejoin:round; stroke-width:4; stroke-opacity:1; fill:none" points="
  1802.33,1486.45 1802.33,1467.55 
  "/>
<polyline clip-path="url(#clip250)" style="stroke:#000000; stroke-linecap:butt; stroke-linejoin:round; stroke-width:4; stroke-opacity:1; fill:none" points="
  2269.15,1486.45 2269.15,1467.55 
  "/>
<path clip-path="url(#clip250)" d="M371.807 1532.02 L401.483 1532.02 L401.483 1535.95 L371.807 1535.95 L371.807 1532.02 Z" fill="#000000" fill-rule="evenodd" fill-opacity="1" /><path clip-path="url(#clip250)" d="M415.603 1544.91 L431.922 1544.91 L431.922 1548.85 L409.978 1548.85 L409.978 1544.91 Q412.64 1542.16 417.223 1537.53 Q421.83 1532.88 423.01 1531.53 Q425.256 1529.01 426.135 1527.27 Q427.038 1525.51 427.038 1523.82 Q427.038 1521.07 425.094 1519.33 Q423.172 1517.6 420.071 1517.6 Q417.871 1517.6 415.418 1518.36 Q412.987 1519.13 410.209 1520.68 L410.209 1515.95 Q413.034 1514.82 415.487 1514.24 Q417.941 1513.66 419.978 1513.66 Q425.348 1513.66 428.543 1516.35 Q431.737 1519.03 431.737 1523.52 Q431.737 1525.65 430.927 1527.57 Q430.14 1529.47 428.033 1532.07 Q427.455 1532.74 424.353 1535.95 Q421.251 1539.15 415.603 1544.91 Z" fill="#000000" fill-rule="evenodd" fill-opacity="1" /><path clip-path="url(#clip250)" d="M838.442 1532.02 L868.118 1532.02 L868.118 1535.95 L838.442 1535.95 L838.442 1532.02 Z" fill="#000000" fill-rule="evenodd" fill-opacity="1" /><path clip-path="url(#clip250)" d="M879.021 1544.91 L886.66 1544.91 L886.66 1518.55 L878.35 1520.21 L878.35 1515.95 L886.613 1514.29 L891.289 1514.29 L891.289 1544.91 L898.928 1544.91 L898.928 1548.85 L879.021 1548.85 L879.021 1544.91 Z" fill="#000000" fill-rule="evenodd" fill-opacity="1" /><path clip-path="url(#clip250)" d="M1335.51 1517.37 Q1331.89 1517.37 1330.07 1520.93 Q1328.26 1524.47 1328.26 1531.6 Q1328.26 1538.71 1330.07 1542.27 Q1331.89 1545.82 1335.51 1545.82 Q1339.14 1545.82 1340.95 1542.27 Q1342.77 1538.71 1342.77 1531.6 Q1342.77 1524.47 1340.95 1520.93 Q1339.14 1517.37 1335.51 1517.37 M1335.51 1513.66 Q1341.32 1513.66 1344.37 1518.27 Q1347.45 1522.85 1347.45 1531.6 Q1347.45 1540.33 1344.37 1544.94 Q1341.32 1549.52 1335.51 1549.52 Q1329.7 1549.52 1326.62 1544.94 Q1323.56 1540.33 1323.56 1531.6 Q1323.56 1522.85 1326.62 1518.27 Q1329.7 1513.66 1335.51 1513.66 Z" fill="#000000" fill-rule="evenodd" fill-opacity="1" /><path clip-path="url(#clip250)" d="M1792.71 1544.91 L1800.35 1544.91 L1800.35 1518.55 L1792.04 1520.21 L1792.04 1515.95 L1800.3 1514.29 L1804.98 1514.29 L1804.98 1544.91 L1812.62 1544.91 L1812.62 1548.85 L1792.71 1548.85 L1792.71 1544.91 Z" fill="#000000" fill-rule="evenodd" fill-opacity="1" /><path clip-path="url(#clip250)" d="M2263.8 1544.91 L2280.12 1544.91 L2280.12 1548.85 L2258.18 1548.85 L2258.18 1544.91 Q2260.84 1542.16 2265.42 1537.53 Q2270.03 1532.88 2271.21 1531.53 Q2273.45 1529.01 2274.33 1527.27 Q2275.24 1525.51 2275.24 1523.82 Q2275.24 1521.07 2273.29 1519.33 Q2271.37 1517.6 2268.27 1517.6 Q2266.07 1517.6 2263.62 1518.36 Q2261.18 1519.13 2258.41 1520.68 L2258.41 1515.95 Q2261.23 1514.82 2263.68 1514.24 Q2266.14 1513.66 2268.18 1513.66 Q2273.55 1513.66 2276.74 1516.35 Q2279.93 1519.03 2279.93 1523.52 Q2279.93 1525.65 2279.12 1527.57 Q2278.34 1529.47 2276.23 1532.07 Q2275.65 1532.74 2272.55 1535.95 Q2269.45 1539.15 2263.8 1544.91 Z" fill="#000000" fill-rule="evenodd" fill-opacity="1" /><polyline clip-path="url(#clip252)" style="stroke:#000000; stroke-linecap:butt; stroke-linejoin:round; stroke-width:2; stroke-opacity:0.1; fill:none" points="
  193.936,1430.02 2352.76,1430.02 
  "/>
<polyline clip-path="url(#clip252)" style="stroke:#000000; stroke-linecap:butt; stroke-linejoin:round; stroke-width:2; stroke-opacity:0.1; fill:none" points="
  193.936,1196.61 2352.76,1196.61 
  "/>
<polyline clip-path="url(#clip252)" style="stroke:#000000; stroke-linecap:butt; stroke-linejoin:round; stroke-width:2; stroke-opacity:0.1; fill:none" points="
  193.936,963.199 2352.76,963.199 
  "/>
<polyline clip-path="url(#clip252)" style="stroke:#000000; stroke-linecap:butt; stroke-linejoin:round; stroke-width:2; stroke-opacity:0.1; fill:none" points="
  193.936,729.789 2352.76,729.789 
  "/>
<polyline clip-path="url(#clip252)" style="stroke:#000000; stroke-linecap:butt; stroke-linejoin:round; stroke-width:2; stroke-opacity:0.1; fill:none" points="
  193.936,496.378 2352.76,496.378 
  "/>
<polyline clip-path="url(#clip252)" style="stroke:#000000; stroke-linecap:butt; stroke-linejoin:round; stroke-width:2; stroke-opacity:0.1; fill:none" points="
  193.936,262.968 2352.76,262.968 
  "/>
<polyline clip-path="url(#clip250)" style="stroke:#000000; stroke-linecap:butt; stroke-linejoin:round; stroke-width:4; stroke-opacity:1; fill:none" points="
  193.936,1486.45 193.936,47.2441 
  "/>
<polyline clip-path="url(#clip250)" style="stroke:#000000; stroke-linecap:butt; stroke-linejoin:round; stroke-width:4; stroke-opacity:1; fill:none" points="
  193.936,1430.02 212.834,1430.02 
  "/>
<polyline clip-path="url(#clip250)" style="stroke:#000000; stroke-linecap:butt; stroke-linejoin:round; stroke-width:4; stroke-opacity:1; fill:none" points="
  193.936,1196.61 212.834,1196.61 
  "/>
<polyline clip-path="url(#clip250)" style="stroke:#000000; stroke-linecap:butt; stroke-linejoin:round; stroke-width:4; stroke-opacity:1; fill:none" points="
  193.936,963.199 212.834,963.199 
  "/>
<polyline clip-path="url(#clip250)" style="stroke:#000000; stroke-linecap:butt; stroke-linejoin:round; stroke-width:4; stroke-opacity:1; fill:none" points="
  193.936,729.789 212.834,729.789 
  "/>
<polyline clip-path="url(#clip250)" style="stroke:#000000; stroke-linecap:butt; stroke-linejoin:round; stroke-width:4; stroke-opacity:1; fill:none" points="
  193.936,496.378 212.834,496.378 
  "/>
<polyline clip-path="url(#clip250)" style="stroke:#000000; stroke-linecap:butt; stroke-linejoin:round; stroke-width:4; stroke-opacity:1; fill:none" points="
  193.936,262.968 212.834,262.968 
  "/>
<path clip-path="url(#clip250)" d="M51.9875 1430.47 L81.6633 1430.47 L81.6633 1434.41 L51.9875 1434.41 L51.9875 1430.47 Z" fill="#000000" fill-rule="evenodd" fill-opacity="1" /><path clip-path="url(#clip250)" d="M92.566 1443.36 L100.205 1443.36 L100.205 1417 L91.8947 1418.67 L91.8947 1414.41 L100.159 1412.74 L104.834 1412.74 L104.834 1443.36 L112.473 1443.36 L112.473 1447.3 L92.566 1447.3 L92.566 1443.36 Z" fill="#000000" fill-rule="evenodd" fill-opacity="1" /><path clip-path="url(#clip250)" d="M121.918 1441.42 L126.802 1441.42 L126.802 1447.3 L121.918 1447.3 L121.918 1441.42 Z" fill="#000000" fill-rule="evenodd" fill-opacity="1" /><path clip-path="url(#clip250)" d="M137.033 1412.74 L155.39 1412.74 L155.39 1416.68 L141.316 1416.68 L141.316 1425.15 Q142.334 1424.8 143.353 1424.64 Q144.371 1424.45 145.39 1424.45 Q151.177 1424.45 154.556 1427.62 Q157.936 1430.8 157.936 1436.21 Q157.936 1441.79 154.464 1444.89 Q150.992 1447.97 144.672 1447.97 Q142.496 1447.97 140.228 1447.6 Q137.982 1447.23 135.575 1446.49 L135.575 1441.79 Q137.658 1442.92 139.881 1443.48 Q142.103 1444.04 144.58 1444.04 Q148.584 1444.04 150.922 1441.93 Q153.26 1439.82 153.26 1436.21 Q153.26 1432.6 150.922 1430.49 Q148.584 1428.39 144.58 1428.39 Q142.705 1428.39 140.83 1428.8 Q138.978 1429.22 137.033 1430.1 L137.033 1412.74 Z" fill="#000000" fill-rule="evenodd" fill-opacity="1" /><path clip-path="url(#clip250)" d="M50.9921 1197.06 L80.6679 1197.06 L80.6679 1201 L50.9921 1201 L50.9921 1197.06 Z" fill="#000000" fill-rule="evenodd" fill-opacity="1" /><path clip-path="url(#clip250)" d="M91.5706 1209.95 L99.2095 1209.95 L99.2095 1183.59 L90.8993 1185.26 L90.8993 1181 L99.1632 1179.33 L103.839 1179.33 L103.839 1209.95 L111.478 1209.95 L111.478 1213.89 L91.5706 1213.89 L91.5706 1209.95 Z" fill="#000000" fill-rule="evenodd" fill-opacity="1" /><path clip-path="url(#clip250)" d="M120.922 1208.01 L125.807 1208.01 L125.807 1213.89 L120.922 1213.89 L120.922 1208.01 Z" fill="#000000" fill-rule="evenodd" fill-opacity="1" /><path clip-path="url(#clip250)" d="M145.992 1182.41 Q142.381 1182.41 140.552 1185.97 Q138.746 1189.51 138.746 1196.64 Q138.746 1203.75 140.552 1207.32 Q142.381 1210.86 145.992 1210.86 Q149.626 1210.86 151.431 1207.32 Q153.26 1203.75 153.26 1196.64 Q153.26 1189.51 151.431 1185.97 Q149.626 1182.41 145.992 1182.41 M145.992 1178.7 Q151.802 1178.7 154.857 1183.31 Q157.936 1187.89 157.936 1196.64 Q157.936 1205.37 154.857 1209.98 Q151.802 1214.56 145.992 1214.56 Q140.181 1214.56 137.103 1209.98 Q134.047 1205.37 134.047 1196.64 Q134.047 1187.89 137.103 1183.31 Q140.181 1178.7 145.992 1178.7 Z" fill="#000000" fill-rule="evenodd" fill-opacity="1" /><path clip-path="url(#clip250)" d="M51.9875 963.651 L81.6633 963.651 L81.6633 967.586 L51.9875 967.586 L51.9875 963.651 Z" fill="#000000" fill-rule="evenodd" fill-opacity="1" /><path clip-path="url(#clip250)" d="M101.756 948.998 Q98.1447 948.998 96.316 952.563 Q94.5104 956.104 94.5104 963.234 Q94.5104 970.34 96.316 973.905 Q98.1447 977.447 101.756 977.447 Q105.39 977.447 107.196 973.905 Q109.024 970.34 109.024 963.234 Q109.024 956.104 107.196 952.563 Q105.39 948.998 101.756 948.998 M101.756 945.294 Q107.566 945.294 110.621 949.901 Q113.7 954.484 113.7 963.234 Q113.7 971.961 110.621 976.567 Q107.566 981.15 101.756 981.15 Q95.9456 981.15 92.8669 976.567 Q89.8114 971.961 89.8114 963.234 Q89.8114 954.484 92.8669 949.901 Q95.9456 945.294 101.756 945.294 Z" fill="#000000" fill-rule="evenodd" fill-opacity="1" /><path clip-path="url(#clip250)" d="M121.918 974.6 L126.802 974.6 L126.802 980.479 L121.918 980.479 L121.918 974.6 Z" fill="#000000" fill-rule="evenodd" fill-opacity="1" /><path clip-path="url(#clip250)" d="M137.033 945.919 L155.39 945.919 L155.39 949.854 L141.316 949.854 L141.316 958.326 Q142.334 957.979 143.353 957.817 Q144.371 957.632 145.39 957.632 Q151.177 957.632 154.556 960.803 Q157.936 963.975 157.936 969.391 Q157.936 974.97 154.464 978.072 Q150.992 981.15 144.672 981.15 Q142.496 981.15 140.228 980.78 Q137.982 980.41 135.575 979.669 L135.575 974.97 Q137.658 976.104 139.881 976.66 Q142.103 977.215 144.58 977.215 Q148.584 977.215 150.922 975.109 Q153.26 973.002 153.26 969.391 Q153.26 965.78 150.922 963.674 Q148.584 961.567 144.58 961.567 Q142.705 961.567 140.83 961.984 Q138.978 962.401 137.033 963.28 L137.033 945.919 Z" fill="#000000" fill-rule="evenodd" fill-opacity="1" /><path clip-path="url(#clip250)" d="M100.76 715.587 Q97.1493 715.587 95.3206 719.152 Q93.515 722.694 93.515 729.823 Q93.515 736.93 95.3206 740.495 Q97.1493 744.036 100.76 744.036 Q104.395 744.036 106.2 740.495 Q108.029 736.93 108.029 729.823 Q108.029 722.694 106.2 719.152 Q104.395 715.587 100.76 715.587 M100.76 711.884 Q106.571 711.884 109.626 716.49 Q112.705 721.074 112.705 729.823 Q112.705 738.55 109.626 743.157 Q106.571 747.74 100.76 747.74 Q94.9502 747.74 91.8715 743.157 Q88.816 738.55 88.816 729.823 Q88.816 721.074 91.8715 716.49 Q94.9502 711.884 100.76 711.884 Z" fill="#000000" fill-rule="evenodd" fill-opacity="1" /><path clip-path="url(#clip250)" d="M120.922 741.189 L125.807 741.189 L125.807 747.069 L120.922 747.069 L120.922 741.189 Z" fill="#000000" fill-rule="evenodd" fill-opacity="1" /><path clip-path="url(#clip250)" d="M145.992 715.587 Q142.381 715.587 140.552 719.152 Q138.746 722.694 138.746 729.823 Q138.746 736.93 140.552 740.495 Q142.381 744.036 145.992 744.036 Q149.626 744.036 151.431 740.495 Q153.26 736.93 153.26 729.823 Q153.26 722.694 151.431 719.152 Q149.626 715.587 145.992 715.587 M145.992 711.884 Q151.802 711.884 154.857 716.49 Q157.936 721.074 157.936 729.823 Q157.936 738.55 154.857 743.157 Q151.802 747.74 145.992 747.74 Q140.181 747.74 137.103 743.157 Q134.047 738.55 134.047 729.823 Q134.047 721.074 137.103 716.49 Q140.181 711.884 145.992 711.884 Z" fill="#000000" fill-rule="evenodd" fill-opacity="1" /><path clip-path="url(#clip250)" d="M101.756 482.177 Q98.1447 482.177 96.316 485.742 Q94.5104 489.284 94.5104 496.413 Q94.5104 503.52 96.316 507.084 Q98.1447 510.626 101.756 510.626 Q105.39 510.626 107.196 507.084 Q109.024 503.52 109.024 496.413 Q109.024 489.284 107.196 485.742 Q105.39 482.177 101.756 482.177 M101.756 478.473 Q107.566 478.473 110.621 483.08 Q113.7 487.663 113.7 496.413 Q113.7 505.14 110.621 509.746 Q107.566 514.33 101.756 514.33 Q95.9456 514.33 92.8669 509.746 Q89.8114 505.14 89.8114 496.413 Q89.8114 487.663 92.8669 483.08 Q95.9456 478.473 101.756 478.473 Z" fill="#000000" fill-rule="evenodd" fill-opacity="1" /><path clip-path="url(#clip250)" d="M121.918 507.779 L126.802 507.779 L126.802 513.658 L121.918 513.658 L121.918 507.779 Z" fill="#000000" fill-rule="evenodd" fill-opacity="1" /><path clip-path="url(#clip250)" d="M137.033 479.098 L155.39 479.098 L155.39 483.034 L141.316 483.034 L141.316 491.506 Q142.334 491.159 143.353 490.997 Q144.371 490.811 145.39 490.811 Q151.177 490.811 154.556 493.983 Q157.936 497.154 157.936 502.571 Q157.936 508.149 154.464 511.251 Q150.992 514.33 144.672 514.33 Q142.496 514.33 140.228 513.959 Q137.982 513.589 135.575 512.848 L135.575 508.149 Q137.658 509.283 139.881 509.839 Q142.103 510.395 144.58 510.395 Q148.584 510.395 150.922 508.288 Q153.26 506.182 153.26 502.571 Q153.26 498.959 150.922 496.853 Q148.584 494.746 144.58 494.746 Q142.705 494.746 140.83 495.163 Q138.978 495.58 137.033 496.459 L137.033 479.098 Z" fill="#000000" fill-rule="evenodd" fill-opacity="1" /><path clip-path="url(#clip250)" d="M91.5706 276.313 L99.2095 276.313 L99.2095 249.947 L90.8993 251.614 L90.8993 247.355 L99.1632 245.688 L103.839 245.688 L103.839 276.313 L111.478 276.313 L111.478 280.248 L91.5706 280.248 L91.5706 276.313 Z" fill="#000000" fill-rule="evenodd" fill-opacity="1" /><path clip-path="url(#clip250)" d="M120.922 274.368 L125.807 274.368 L125.807 280.248 L120.922 280.248 L120.922 274.368 Z" fill="#000000" fill-rule="evenodd" fill-opacity="1" /><path clip-path="url(#clip250)" d="M145.992 248.767 Q142.381 248.767 140.552 252.332 Q138.746 255.873 138.746 263.003 Q138.746 270.109 140.552 273.674 Q142.381 277.216 145.992 277.216 Q149.626 277.216 151.431 273.674 Q153.26 270.109 153.26 263.003 Q153.26 255.873 151.431 252.332 Q149.626 248.767 145.992 248.767 M145.992 245.063 Q151.802 245.063 154.857 249.67 Q157.936 254.253 157.936 263.003 Q157.936 271.73 154.857 276.336 Q151.802 280.919 145.992 280.919 Q140.181 280.919 137.103 276.336 Q134.047 271.73 134.047 263.003 Q134.047 254.253 137.103 249.67 Q140.181 245.063 145.992 245.063 Z" fill="#000000" fill-rule="evenodd" fill-opacity="1" /><circle clip-path="url(#clip252)" cx="1802.33" cy="729.789" r="14.4" fill="#009af9" fill-rule="evenodd" fill-opacity="1" stroke="#000000" stroke-opacity="1" stroke-width="3.2"/>
<circle clip-path="url(#clip252)" cx="1938.46" cy="652.047" r="14.4" fill="#009af9" fill-rule="evenodd" fill-opacity="1" stroke="#000000" stroke-opacity="1" stroke-width="3.2"/>
<circle clip-path="url(#clip252)" cx="2045.67" cy="543.563" r="14.4" fill="#009af9" fill-rule="evenodd" fill-opacity="1" stroke="#000000" stroke-opacity="1" stroke-width="3.2"/>
<circle clip-path="url(#clip252)" cx="2107.09" cy="417.408" r="14.4" fill="#009af9" fill-rule="evenodd" fill-opacity="1" stroke="#000000" stroke-opacity="1" stroke-width="3.2"/>
<circle clip-path="url(#clip252)" cx="2113.57" cy="291.592" r="14.4" fill="#009af9" fill-rule="evenodd" fill-opacity="1" stroke="#000000" stroke-opacity="1" stroke-width="3.2"/>
<circle clip-path="url(#clip252)" cx="2065.25" cy="185.164" r="14.4" fill="#009af9" fill-rule="evenodd" fill-opacity="1" stroke="#000000" stroke-opacity="1" stroke-width="3.2"/>
<circle clip-path="url(#clip252)" cx="1971.25" cy="114.11" r="14.4" fill="#009af9" fill-rule="evenodd" fill-opacity="1" stroke="#000000" stroke-opacity="1" stroke-width="3.2"/>
<circle clip-path="url(#clip252)" cx="1847.33" cy="87.9763" r="14.4" fill="#009af9" fill-rule="evenodd" fill-opacity="1" stroke="#000000" stroke-opacity="1" stroke-width="3.2"/>
<circle clip-path="url(#clip252)" cx="1712.44" cy="108.002" r="14.4" fill="#009af9" fill-rule="evenodd" fill-opacity="1" stroke="#000000" stroke-opacity="1" stroke-width="3.2"/>
<circle clip-path="url(#clip252)" cx="1584.58" cy="167.126" r="14.4" fill="#009af9" fill-rule="evenodd" fill-opacity="1" stroke="#000000" stroke-opacity="1" stroke-width="3.2"/>
<circle clip-path="url(#clip252)" cx="1477.37" cy="251.818" r="14.4" fill="#009af9" fill-rule="evenodd" fill-opacity="1" stroke="#000000" stroke-opacity="1" stroke-width="3.2"/>
<circle clip-path="url(#clip252)" cx="1397.67" cy="345.255" r="14.4" fill="#009af9" fill-rule="evenodd" fill-opacity="1" stroke="#000000" stroke-opacity="1" stroke-width="3.2"/>
<circle clip-path="url(#clip252)" cx="1345.09" cy="431.041" r="14.4" fill="#009af9" fill-rule="evenodd" fill-opacity="1" stroke="#000000" stroke-opacity="1" stroke-width="3.2"/>
<circle clip-path="url(#clip252)" cx="1313.01" cy="496.603" r="14.4" fill="#009af9" fill-rule="evenodd" fill-opacity="1" stroke="#000000" stroke-opacity="1" stroke-width="3.2"/>
<circle clip-path="url(#clip252)" cx="1291.16" cy="535.483" r="14.4" fill="#009af9" fill-rule="evenodd" fill-opacity="1" stroke="#000000" stroke-opacity="1" stroke-width="3.2"/>
<circle clip-path="url(#clip252)" cx="1268.63" cy="548.077" r="14.4" fill="#009af9" fill-rule="evenodd" fill-opacity="1" stroke="#000000" stroke-opacity="1" stroke-width="3.2"/>
<circle clip-path="url(#clip252)" cx="1236.88" cy="540.749" r="14.4" fill="#009af9" fill-rule="evenodd" fill-opacity="1" stroke="#000000" stroke-opacity="1" stroke-width="3.2"/>
<circle clip-path="url(#clip252)" cx="1191.72" cy="523.657" r="14.4" fill="#009af9" fill-rule="evenodd" fill-opacity="1" stroke="#000000" stroke-opacity="1" stroke-width="3.2"/>
<circle clip-path="url(#clip252)" cx="1134.01" cy="507.922" r="14.4" fill="#009af9" fill-rule="evenodd" fill-opacity="1" stroke="#000000" stroke-opacity="1" stroke-width="3.2"/>
<circle clip-path="url(#clip252)" cx="1069" cy="502.91" r="14.4" fill="#009af9" fill-rule="evenodd" fill-opacity="1" stroke="#000000" stroke-opacity="1" stroke-width="3.2"/>
<circle clip-path="url(#clip252)" cx="1004.43" cy="514.283" r="14.4" fill="#009af9" fill-rule="evenodd" fill-opacity="1" stroke="#000000" stroke-opacity="1" stroke-width="3.2"/>
<circle clip-path="url(#clip252)" cx="948.196" cy="543.27" r="14.4" fill="#009af9" fill-rule="evenodd" fill-opacity="1" stroke="#000000" stroke-opacity="1" stroke-width="3.2"/>
<circle clip-path="url(#clip252)" cx="906.112" cy="587.22" r="14.4" fill="#009af9" fill-rule="evenodd" fill-opacity="1" stroke="#000000" stroke-opacity="1" stroke-width="3.2"/>
<circle clip-path="url(#clip252)" cx="880.477" cy="641.172" r="14.4" fill="#009af9" fill-rule="evenodd" fill-opacity="1" stroke="#000000" stroke-opacity="1" stroke-width="3.2"/>
<circle clip-path="url(#clip252)" cx="869.767" cy="699.887" r="14.4" fill="#009af9" fill-rule="evenodd" fill-opacity="1" stroke="#000000" stroke-opacity="1" stroke-width="3.2"/>
<circle clip-path="url(#clip252)" cx="869.522" cy="759.706" r="14.4" fill="#009af9" fill-rule="evenodd" fill-opacity="1" stroke="#000000" stroke-opacity="1" stroke-width="3.2"/>
<circle clip-path="url(#clip252)" cx="874.111" cy="819.645" r="14.4" fill="#009af9" fill-rule="evenodd" fill-opacity="1" stroke="#000000" stroke-opacity="1" stroke-width="3.2"/>
<circle clip-path="url(#clip252)" cx="878.823" cy="881.418" r="14.4" fill="#009af9" fill-rule="evenodd" fill-opacity="1" stroke="#000000" stroke-opacity="1" stroke-width="3.2"/>
<circle clip-path="url(#clip252)" cx="881.635" cy="948.362" r="14.4" fill="#009af9" fill-rule="evenodd" fill-opacity="1" stroke="#000000" stroke-opacity="1" stroke-width="3.2"/>
<circle clip-path="url(#clip252)" cx="884.107" cy="1023.62" r="14.4" fill="#009af9" fill-rule="evenodd" fill-opacity="1" stroke="#000000" stroke-opacity="1" stroke-width="3.2"/>
<circle clip-path="url(#clip252)" cx="891.093" cy="1108.12" r="14.4" fill="#009af9" fill-rule="evenodd" fill-opacity="1" stroke="#000000" stroke-opacity="1" stroke-width="3.2"/>
<circle clip-path="url(#clip252)" cx="909.311" cy="1199.08" r="14.4" fill="#009af9" fill-rule="evenodd" fill-opacity="1" stroke="#000000" stroke-opacity="1" stroke-width="3.2"/>
<circle clip-path="url(#clip252)" cx="945.143" cy="1289.4" r="14.4" fill="#009af9" fill-rule="evenodd" fill-opacity="1" stroke="#000000" stroke-opacity="1" stroke-width="3.2"/>
<circle clip-path="url(#clip252)" cx="1002.28" cy="1368.52" r="14.4" fill="#009af9" fill-rule="evenodd" fill-opacity="1" stroke="#000000" stroke-opacity="1" stroke-width="3.2"/>
<circle clip-path="url(#clip252)" cx="1079.93" cy="1424.27" r="14.4" fill="#009af9" fill-rule="evenodd" fill-opacity="1" stroke="#000000" stroke-opacity="1" stroke-width="3.2"/>
<circle clip-path="url(#clip252)" cx="1172.1" cy="1445.72" r="14.4" fill="#009af9" fill-rule="evenodd" fill-opacity="1" stroke="#000000" stroke-opacity="1" stroke-width="3.2"/>
<circle clip-path="url(#clip252)" cx="1268.35" cy="1425.93" r="14.4" fill="#009af9" fill-rule="evenodd" fill-opacity="1" stroke="#000000" stroke-opacity="1" stroke-width="3.2"/>
<circle clip-path="url(#clip252)" cx="1355.85" cy="1364.2" r="14.4" fill="#009af9" fill-rule="evenodd" fill-opacity="1" stroke="#000000" stroke-opacity="1" stroke-width="3.2"/>
<circle clip-path="url(#clip252)" cx="1422.35" cy="1266.93" r="14.4" fill="#009af9" fill-rule="evenodd" fill-opacity="1" stroke="#000000" stroke-opacity="1" stroke-width="3.2"/>
<circle clip-path="url(#clip252)" cx="1459.29" cy="1146.87" r="14.4" fill="#009af9" fill-rule="evenodd" fill-opacity="1" stroke="#000000" stroke-opacity="1" stroke-width="3.2"/>
<circle clip-path="url(#clip252)" cx="1464.35" cy="1020.86" r="14.4" fill="#009af9" fill-rule="evenodd" fill-opacity="1" stroke="#000000" stroke-opacity="1" stroke-width="3.2"/>
<circle clip-path="url(#clip252)" cx="1442.57" cy="906.399" r="14.4" fill="#009af9" fill-rule="evenodd" fill-opacity="1" stroke="#000000" stroke-opacity="1" stroke-width="3.2"/>
<circle clip-path="url(#clip252)" cx="1405.79" cy="817.927" r="14.4" fill="#009af9" fill-rule="evenodd" fill-opacity="1" stroke="#000000" stroke-opacity="1" stroke-width="3.2"/>
<circle clip-path="url(#clip252)" cx="1370.45" cy="763.628" r="14.4" fill="#009af9" fill-rule="evenodd" fill-opacity="1" stroke="#000000" stroke-opacity="1" stroke-width="3.2"/>
<circle clip-path="url(#clip252)" cx="1353.99" cy="743.585" r="14.4" fill="#009af9" fill-rule="evenodd" fill-opacity="1" stroke="#000000" stroke-opacity="1" stroke-width="3.2"/>
<circle clip-path="url(#clip252)" cx="1370.94" cy="749.746" r="14.4" fill="#009af9" fill-rule="evenodd" fill-opacity="1" stroke="#000000" stroke-opacity="1" stroke-width="3.2"/>
<circle clip-path="url(#clip252)" cx="1429.33" cy="767.773" r="14.4" fill="#009af9" fill-rule="evenodd" fill-opacity="1" stroke="#000000" stroke-opacity="1" stroke-width="3.2"/>
<circle clip-path="url(#clip252)" cx="1528.45" cy="780.385" r="14.4" fill="#009af9" fill-rule="evenodd" fill-opacity="1" stroke="#000000" stroke-opacity="1" stroke-width="3.2"/>
<circle clip-path="url(#clip252)" cx="1658.53" cy="771.438" r="14.4" fill="#009af9" fill-rule="evenodd" fill-opacity="1" stroke="#000000" stroke-opacity="1" stroke-width="3.2"/>
<circle clip-path="url(#clip252)" cx="1802.33" cy="729.789" r="14.4" fill="#009af9" fill-rule="evenodd" fill-opacity="1" stroke="#000000" stroke-opacity="1" stroke-width="3.2"/>
<circle clip-path="url(#clip252)" cx="927.388" cy="956.419" r="14.4" fill="#e26f46" fill-rule="evenodd" fill-opacity="1" stroke="#000000" stroke-opacity="1" stroke-width="3.2"/>
<circle clip-path="url(#clip252)" cx="770.636" cy="954.54" r="14.4" fill="#e26f46" fill-rule="evenodd" fill-opacity="1" stroke="#000000" stroke-opacity="1" stroke-width="3.2"/>
<circle clip-path="url(#clip252)" cx="624.241" cy="911.746" r="14.4" fill="#e26f46" fill-rule="evenodd" fill-opacity="1" stroke="#000000" stroke-opacity="1" stroke-width="3.2"/>
<circle clip-path="url(#clip252)" cx="509.293" cy="831.276" r="14.4" fill="#e26f46" fill-rule="evenodd" fill-opacity="1" stroke="#000000" stroke-opacity="1" stroke-width="3.2"/>
<circle clip-path="url(#clip252)" cx="442.55" cy="724.425" r="14.4" fill="#e26f46" fill-rule="evenodd" fill-opacity="1" stroke="#000000" stroke-opacity="1" stroke-width="3.2"/>
<circle clip-path="url(#clip252)" cx="433.123" cy="607.925" r="14.4" fill="#e26f46" fill-rule="evenodd" fill-opacity="1" stroke="#000000" stroke-opacity="1" stroke-width="3.2"/>
<circle clip-path="url(#clip252)" cx="480.814" cy="500.167" r="14.4" fill="#e26f46" fill-rule="evenodd" fill-opacity="1" stroke="#000000" stroke-opacity="1" stroke-width="3.2"/>
<circle clip-path="url(#clip252)" cx="576.456" cy="417.164" r="14.4" fill="#e26f46" fill-rule="evenodd" fill-opacity="1" stroke="#000000" stroke-opacity="1" stroke-width="3.2"/>
<circle clip-path="url(#clip252)" cx="704.112" cy="369.182" r="14.4" fill="#e26f46" fill-rule="evenodd" fill-opacity="1" stroke="#000000" stroke-opacity="1" stroke-width="3.2"/>
<circle clip-path="url(#clip252)" cx="844.594" cy="358.8" r="14.4" fill="#e26f46" fill-rule="evenodd" fill-opacity="1" stroke="#000000" stroke-opacity="1" stroke-width="3.2"/>
<circle clip-path="url(#clip252)" cx="979.442" cy="380.792" r="14.4" fill="#e26f46" fill-rule="evenodd" fill-opacity="1" stroke="#000000" stroke-opacity="1" stroke-width="3.2"/>
<circle clip-path="url(#clip252)" cx="1094.47" cy="423.791" r="14.4" fill="#e26f46" fill-rule="evenodd" fill-opacity="1" stroke="#000000" stroke-opacity="1" stroke-width="3.2"/>
<circle clip-path="url(#clip252)" cx="1182.1" cy="473.26" r="14.4" fill="#e26f46" fill-rule="evenodd" fill-opacity="1" stroke="#000000" stroke-opacity="1" stroke-width="3.2"/>
<circle clip-path="url(#clip252)" cx="1241.97" cy="515.005" r="14.4" fill="#e26f46" fill-rule="evenodd" fill-opacity="1" stroke="#000000" stroke-opacity="1" stroke-width="3.2"/>
<circle clip-path="url(#clip252)" cx="1279.95" cy="538.386" r="14.4" fill="#e26f46" fill-rule="evenodd" fill-opacity="1" stroke="#000000" stroke-opacity="1" stroke-width="3.2"/>
<circle clip-path="url(#clip252)" cx="1305.75" cy="538.463" r="14.4" fill="#e26f46" fill-rule="evenodd" fill-opacity="1" stroke="#000000" stroke-opacity="1" stroke-width="3.2"/>
<circle clip-path="url(#clip252)" cx="1329.95" cy="516.643" r="14.4" fill="#e26f46" fill-rule="evenodd" fill-opacity="1" stroke="#000000" stroke-opacity="1" stroke-width="3.2"/>
<circle clip-path="url(#clip252)" cx="1361.14" cy="479.772" r="14.4" fill="#e26f46" fill-rule="evenodd" fill-opacity="1" stroke="#000000" stroke-opacity="1" stroke-width="3.2"/>
<circle clip-path="url(#clip252)" cx="1403.95" cy="438.002" r="14.4" fill="#e26f46" fill-rule="evenodd" fill-opacity="1" stroke="#000000" stroke-opacity="1" stroke-width="3.2"/>
<circle clip-path="url(#clip252)" cx="1458.35" cy="402.059" r="14.4" fill="#e26f46" fill-rule="evenodd" fill-opacity="1" stroke="#000000" stroke-opacity="1" stroke-width="3.2"/>
<circle clip-path="url(#clip252)" cx="1520.33" cy="380.654" r="14.4" fill="#e26f46" fill-rule="evenodd" fill-opacity="1" stroke="#000000" stroke-opacity="1" stroke-width="3.2"/>
<circle clip-path="url(#clip252)" cx="1583.56" cy="378.695" r="14.4" fill="#e26f46" fill-rule="evenodd" fill-opacity="1" stroke="#000000" stroke-opacity="1" stroke-width="3.2"/>
<circle clip-path="url(#clip252)" cx="1641.69" cy="396.688" r="14.4" fill="#e26f46" fill-rule="evenodd" fill-opacity="1" stroke="#000000" stroke-opacity="1" stroke-width="3.2"/>
<circle clip-path="url(#clip252)" cx="1690.29" cy="431.41" r="14.4" fill="#e26f46" fill-rule="evenodd" fill-opacity="1" stroke="#000000" stroke-opacity="1" stroke-width="3.2"/>
<circle clip-path="url(#clip252)" cx="1728.16" cy="477.543" r="14.4" fill="#e26f46" fill-rule="evenodd" fill-opacity="1" stroke="#000000" stroke-opacity="1" stroke-width="3.2"/>
<circle clip-path="url(#clip252)" cx="1757.42" cy="529.72" r="14.4" fill="#e26f46" fill-rule="evenodd" fill-opacity="1" stroke="#000000" stroke-opacity="1" stroke-width="3.2"/>
<circle clip-path="url(#clip252)" cx="1782.5" cy="584.35" r="14.4" fill="#e26f46" fill-rule="evenodd" fill-opacity="1" stroke="#000000" stroke-opacity="1" stroke-width="3.2"/>
<circle clip-path="url(#clip252)" cx="1808.37" cy="640.642" r="14.4" fill="#e26f46" fill-rule="evenodd" fill-opacity="1" stroke="#000000" stroke-opacity="1" stroke-width="3.2"/>
<circle clip-path="url(#clip252)" cx="1838.41" cy="700.533" r="14.4" fill="#e26f46" fill-rule="evenodd" fill-opacity="1" stroke="#000000" stroke-opacity="1" stroke-width="3.2"/>
<circle clip-path="url(#clip252)" cx="1872.79" cy="767.525" r="14.4" fill="#e26f46" fill-rule="evenodd" fill-opacity="1" stroke="#000000" stroke-opacity="1" stroke-width="3.2"/>
<circle clip-path="url(#clip252)" cx="1907.71" cy="844.796" r="14.4" fill="#e26f46" fill-rule="evenodd" fill-opacity="1" stroke="#000000" stroke-opacity="1" stroke-width="3.2"/>
<circle clip-path="url(#clip252)" cx="1935.93" cy="933.157" r="14.4" fill="#e26f46" fill-rule="evenodd" fill-opacity="1" stroke="#000000" stroke-opacity="1" stroke-width="3.2"/>
<circle clip-path="url(#clip252)" cx="1948.46" cy="1029.52" r="14.4" fill="#e26f46" fill-rule="evenodd" fill-opacity="1" stroke="#000000" stroke-opacity="1" stroke-width="3.2"/>
<circle clip-path="url(#clip252)" cx="1936.91" cy="1126.42" r="14.4" fill="#e26f46" fill-rule="evenodd" fill-opacity="1" stroke="#000000" stroke-opacity="1" stroke-width="3.2"/>
<circle clip-path="url(#clip252)" cx="1896.1" cy="1212.86" r="14.4" fill="#e26f46" fill-rule="evenodd" fill-opacity="1" stroke="#000000" stroke-opacity="1" stroke-width="3.2"/>
<circle clip-path="url(#clip252)" cx="1825.93" cy="1276.36" r="14.4" fill="#e26f46" fill-rule="evenodd" fill-opacity="1" stroke="#000000" stroke-opacity="1" stroke-width="3.2"/>
<circle clip-path="url(#clip252)" cx="1732.18" cy="1305.79" r="14.4" fill="#e26f46" fill-rule="evenodd" fill-opacity="1" stroke="#000000" stroke-opacity="1" stroke-width="3.2"/>
<circle clip-path="url(#clip252)" cx="1625.71" cy="1294.3" r="14.4" fill="#e26f46" fill-rule="evenodd" fill-opacity="1" stroke="#000000" stroke-opacity="1" stroke-width="3.2"/>
<circle clip-path="url(#clip252)" cx="1520.35" cy="1241.54" r="14.4" fill="#e26f46" fill-rule="evenodd" fill-opacity="1" stroke="#000000" stroke-opacity="1" stroke-width="3.2"/>
<circle clip-path="url(#clip252)" cx="1429.77" cy="1154.52" r="14.4" fill="#e26f46" fill-rule="evenodd" fill-opacity="1" stroke="#000000" stroke-opacity="1" stroke-width="3.2"/>
<circle clip-path="url(#clip252)" cx="1364.17" cy="1046.81" r="14.4" fill="#e26f46" fill-rule="evenodd" fill-opacity="1" stroke="#000000" stroke-opacity="1" stroke-width="3.2"/>
<circle clip-path="url(#clip252)" cx="1327.65" cy="936.166" r="14.4" fill="#e26f46" fill-rule="evenodd" fill-opacity="1" stroke="#000000" stroke-opacity="1" stroke-width="3.2"/>
<circle clip-path="url(#clip252)" cx="1316.85" cy="840.966" r="14.4" fill="#e26f46" fill-rule="evenodd" fill-opacity="1" stroke="#000000" stroke-opacity="1" stroke-width="3.2"/>
<circle clip-path="url(#clip252)" cx="1321.39" cy="776.336" r="14.4" fill="#e26f46" fill-rule="evenodd" fill-opacity="1" stroke="#000000" stroke-opacity="1" stroke-width="3.2"/>
<circle clip-path="url(#clip252)" cx="1326.04" cy="750.825" r="14.4" fill="#e26f46" fill-rule="evenodd" fill-opacity="1" stroke="#000000" stroke-opacity="1" stroke-width="3.2"/>
<circle clip-path="url(#clip252)" cx="1314.21" cy="764.44" r="14.4" fill="#e26f46" fill-rule="evenodd" fill-opacity="1" stroke="#000000" stroke-opacity="1" stroke-width="3.2"/>
<circle clip-path="url(#clip252)" cx="1271.92" cy="808.544" r="14.4" fill="#e26f46" fill-rule="evenodd" fill-opacity="1" stroke="#000000" stroke-opacity="1" stroke-width="3.2"/>
<circle clip-path="url(#clip252)" cx="1191.39" cy="867.694" r="14.4" fill="#e26f46" fill-rule="evenodd" fill-opacity="1" stroke="#000000" stroke-opacity="1" stroke-width="3.2"/>
<circle clip-path="url(#clip252)" cx="1073.32" cy="923.023" r="14.4" fill="#e26f46" fill-rule="evenodd" fill-opacity="1" stroke="#000000" stroke-opacity="1" stroke-width="3.2"/>
<circle clip-path="url(#clip252)" cx="927.388" cy="956.419" r="14.4" fill="#e26f46" fill-rule="evenodd" fill-opacity="1" stroke="#000000" stroke-opacity="1" stroke-width="3.2"/>
<path clip-path="url(#clip250)" d="
M1888.31 250.738 L2280.8 250.738 L2280.8 95.2176 L1888.31 95.2176  Z
  " fill="#ffffff" fill-rule="evenodd" fill-opacity="1"/>
<polyline clip-path="url(#clip250)" style="stroke:#000000; stroke-linecap:butt; stroke-linejoin:round; stroke-width:4; stroke-opacity:1; fill:none" points="
  1888.31,250.738 2280.8,250.738 2280.8,95.2176 1888.31,95.2176 1888.31,250.738 
  "/>
<circle clip-path="url(#clip250)" cx="1984.26" cy="147.058" r="23.04" fill="#009af9" fill-rule="evenodd" fill-opacity="1" stroke="#000000" stroke-opacity="1" stroke-width="5.12"/>
<path clip-path="url(#clip250)" d="M2080.21 138.412 L2084.47 138.412 L2084.47 164.338 L2080.21 164.338 L2080.21 138.412 M2080.21 128.319 L2084.47 128.319 L2084.47 133.713 L2080.21 133.713 L2080.21 128.319 Z" fill="#000000" fill-rule="evenodd" fill-opacity="1" /><path clip-path="url(#clip250)" d="M2114.93 148.689 L2114.93 164.338 L2110.67 164.338 L2110.67 148.828 Q2110.67 145.148 2109.23 143.319 Q2107.8 141.49 2104.93 141.49 Q2101.48 141.49 2099.49 143.69 Q2097.5 145.889 2097.5 149.685 L2097.5 164.338 L2093.22 164.338 L2093.22 138.412 L2097.5 138.412 L2097.5 142.44 Q2099.03 140.102 2101.09 138.944 Q2103.17 137.787 2105.88 137.787 Q2110.35 137.787 2112.64 140.565 Q2114.93 143.319 2114.93 148.689 Z" fill="#000000" fill-rule="evenodd" fill-opacity="1" /><path clip-path="url(#clip250)" d="M2127.54 160.449 L2127.54 174.199 L2123.26 174.199 L2123.26 138.412 L2127.54 138.412 L2127.54 142.347 Q2128.89 140.032 2130.92 138.921 Q2132.98 137.787 2135.83 137.787 Q2140.55 137.787 2143.49 141.537 Q2146.46 145.287 2146.46 151.398 Q2146.46 157.509 2143.49 161.259 Q2140.55 165.009 2135.83 165.009 Q2132.98 165.009 2130.92 163.898 Q2128.89 162.763 2127.54 160.449 M2142.03 151.398 Q2142.03 146.699 2140.09 144.037 Q2138.17 141.352 2134.79 141.352 Q2131.41 141.352 2129.47 144.037 Q2127.54 146.699 2127.54 151.398 Q2127.54 156.097 2129.47 158.782 Q2131.41 161.444 2134.79 161.444 Q2138.17 161.444 2140.09 158.782 Q2142.03 156.097 2142.03 151.398 Z" fill="#000000" fill-rule="evenodd" fill-opacity="1" /><path clip-path="url(#clip250)" d="M2153.08 154.106 L2153.08 138.412 L2157.34 138.412 L2157.34 153.944 Q2157.34 157.625 2158.77 159.476 Q2160.21 161.305 2163.08 161.305 Q2166.53 161.305 2168.52 159.106 Q2170.53 156.907 2170.53 153.111 L2170.53 138.412 L2174.79 138.412 L2174.79 164.338 L2170.53 164.338 L2170.53 160.356 Q2168.98 162.717 2166.92 163.875 Q2164.88 165.009 2162.17 165.009 Q2157.71 165.009 2155.39 162.231 Q2153.08 159.453 2153.08 154.106 M2163.79 137.787 L2163.79 137.787 Z" fill="#000000" fill-rule="evenodd" fill-opacity="1" /><path clip-path="url(#clip250)" d="M2187.78 131.051 L2187.78 138.412 L2196.55 138.412 L2196.55 141.722 L2187.78 141.722 L2187.78 155.796 Q2187.78 158.967 2188.63 159.87 Q2189.51 160.773 2192.17 160.773 L2196.55 160.773 L2196.55 164.338 L2192.17 164.338 Q2187.24 164.338 2185.37 162.509 Q2183.49 160.657 2183.49 155.796 L2183.49 141.722 L2180.37 141.722 L2180.37 138.412 L2183.49 138.412 L2183.49 131.051 L2187.78 131.051 Z" fill="#000000" fill-rule="evenodd" fill-opacity="1" /><circle clip-path="url(#clip250)" cx="1984.26" cy="198.898" r="23.04" fill="#e26f46" fill-rule="evenodd" fill-opacity="1" stroke="#000000" stroke-opacity="1" stroke-width="5.12"/>
<path clip-path="url(#clip250)" d="M2092.1 193.238 Q2088.68 193.238 2086.69 195.923 Q2084.7 198.585 2084.7 203.238 Q2084.7 207.891 2086.66 210.576 Q2088.66 213.238 2092.1 213.238 Q2095.51 213.238 2097.5 210.553 Q2099.49 207.867 2099.49 203.238 Q2099.49 198.631 2097.5 195.946 Q2095.51 193.238 2092.1 193.238 M2092.1 189.627 Q2097.66 189.627 2100.83 193.238 Q2104 196.849 2104 203.238 Q2104 209.604 2100.83 213.238 Q2097.66 216.849 2092.1 216.849 Q2086.53 216.849 2083.35 213.238 Q2080.21 209.604 2080.21 203.238 Q2080.21 196.849 2083.35 193.238 Q2086.53 189.627 2092.1 189.627 Z" fill="#000000" fill-rule="evenodd" fill-opacity="1" /><path clip-path="url(#clip250)" d="M2110.62 205.946 L2110.62 190.252 L2114.88 190.252 L2114.88 205.784 Q2114.88 209.465 2116.32 211.316 Q2117.75 213.145 2120.62 213.145 Q2124.07 213.145 2126.06 210.946 Q2128.08 208.747 2128.08 204.951 L2128.08 190.252 L2132.34 190.252 L2132.34 216.178 L2128.08 216.178 L2128.08 212.196 Q2126.53 214.557 2124.47 215.715 Q2122.43 216.849 2119.72 216.849 Q2115.25 216.849 2112.94 214.071 Q2110.62 211.293 2110.62 205.946 M2121.34 189.627 L2121.34 189.627 Z" fill="#000000" fill-rule="evenodd" fill-opacity="1" /><path clip-path="url(#clip250)" d="M2145.32 182.891 L2145.32 190.252 L2154.1 190.252 L2154.1 193.562 L2145.32 193.562 L2145.32 207.636 Q2145.32 210.807 2146.18 211.71 Q2147.06 212.613 2149.72 212.613 L2154.1 212.613 L2154.1 216.178 L2149.72 216.178 Q2144.79 216.178 2142.91 214.349 Q2141.04 212.497 2141.04 207.636 L2141.04 193.562 L2137.91 193.562 L2137.91 190.252 L2141.04 190.252 L2141.04 182.891 L2145.32 182.891 Z" fill="#000000" fill-rule="evenodd" fill-opacity="1" /><path clip-path="url(#clip250)" d="M2163.82 212.289 L2163.82 226.039 L2159.53 226.039 L2159.53 190.252 L2163.82 190.252 L2163.82 194.187 Q2165.16 191.872 2167.2 190.761 Q2169.26 189.627 2172.1 189.627 Q2176.83 189.627 2179.77 193.377 Q2182.73 197.127 2182.73 203.238 Q2182.73 209.349 2179.77 213.099 Q2176.83 216.849 2172.1 216.849 Q2169.26 216.849 2167.2 215.738 Q2165.16 214.603 2163.82 212.289 M2178.31 203.238 Q2178.31 198.539 2176.36 195.877 Q2174.44 193.192 2171.06 193.192 Q2167.68 193.192 2165.74 195.877 Q2163.82 198.539 2163.82 203.238 Q2163.82 207.937 2165.74 210.622 Q2167.68 213.284 2171.06 213.284 Q2174.44 213.284 2176.36 210.622 Q2178.31 207.937 2178.31 203.238 Z" fill="#000000" fill-rule="evenodd" fill-opacity="1" /><path clip-path="url(#clip250)" d="M2189.35 205.946 L2189.35 190.252 L2193.61 190.252 L2193.61 205.784 Q2193.61 209.465 2195.04 211.316 Q2196.48 213.145 2199.35 213.145 Q2202.8 213.145 2204.79 210.946 Q2206.8 208.747 2206.8 204.951 L2206.8 190.252 L2211.06 190.252 L2211.06 216.178 L2206.8 216.178 L2206.8 212.196 Q2205.25 214.557 2203.19 215.715 Q2201.15 216.849 2198.45 216.849 Q2193.98 216.849 2191.66 214.071 Q2189.35 211.293 2189.35 205.946 M2200.07 189.627 L2200.07 189.627 Z" fill="#000000" fill-rule="evenodd" fill-opacity="1" /><path clip-path="url(#clip250)" d="M2224.05 182.891 L2224.05 190.252 L2232.82 190.252 L2232.82 193.562 L2224.05 193.562 L2224.05 207.636 Q2224.05 210.807 2224.9 211.71 Q2225.78 212.613 2228.45 212.613 L2232.82 212.613 L2232.82 216.178 L2228.45 216.178 Q2223.52 216.178 2221.64 214.349 Q2219.77 212.497 2219.77 207.636 L2219.77 193.562 L2216.64 193.562 L2216.64 190.252 L2219.77 190.252 L2219.77 182.891 L2224.05 182.891 Z" fill="#000000" fill-rule="evenodd" fill-opacity="1" /></svg>
