<?xml version="1.0" encoding="utf-8"?>
<svg xmlns="http://www.w3.org/2000/svg" xmlns:xlink="http://www.w3.org/1999/xlink" width="600" height="400" viewBox="0 0 2400 1600">
<defs>
  <clipPath id="clip650">
    <rect x="0" y="0" width="2400" height="1600"/>
  </clipPath>
</defs>
<path clip-path="url(#clip650)" d="
M0 1600 L2400 1600 L2400 0 L0 0  Z
  " fill="#ffffff" fill-rule="evenodd" fill-opacity="1"/>
<defs>
  <clipPath id="clip651">
    <rect x="480" y="0" width="1681" height="1600"/>
  </clipPath>
</defs>
<path clip-path="url(#clip650)" d="
M186.274 1486.45 L2352.76 1486.45 L2352.76 47.2441 L186.274 47.2441  Z
  " fill="#ffffff" fill-rule="evenodd" fill-opacity="1"/>
<defs>
  <clipPath id="clip652">
    <rect x="186" y="47" width="2167" height="1440"/>
  </clipPath>
</defs>
<polyline clip-path="url(#clip652)" style="stroke:#000000; stroke-linecap:butt; stroke-linejoin:round; stroke-width:2; stroke-opacity:0.1; fill:none" points="
  247.59,1486.45 247.59,47.2441 
  "/>
<polyline clip-path="url(#clip652)" style="stroke:#000000; stroke-linecap:butt; stroke-linejoin:round; stroke-width:2; stroke-opacity:0.1; fill:none" points="
  758.552,1486.45 758.552,47.2441 
  "/>
<polyline clip-path="url(#clip652)" style="stroke:#000000; stroke-linecap:butt; stroke-linejoin:round; stroke-width:2; stroke-opacity:0.1; fill:none" points="
  1269.51,1486.45 1269.51,47.2441 
  "/>
<polyline clip-path="url(#clip652)" style="stroke:#000000; stroke-linecap:butt; stroke-linejoin:round; stroke-width:2; stroke-opacity:0.1; fill:none" points="
  1780.48,1486.45 1780.48,47.2441 
  "/>
<polyline clip-path="url(#clip652)" style="stroke:#000000; stroke-linecap:butt; stroke-linejoin:round; stroke-width:2; stroke-opacity:0.1; fill:none" points="
  2291.44,1486.45 2291.44,47.2441 
  "/>
<polyline clip-path="url(#clip650)" style="stroke:#000000; stroke-linecap:butt; stroke-linejoin:round; stroke-width:4; stroke-opacity:1; fill:none" points="
  186.274,1486.45 2352.76,1486.45 
  "/>
<polyline clip-path="url(#clip650)" style="stroke:#000000; stroke-linecap:butt; stroke-linejoin:round; stroke-width:4; stroke-opacity:1; fill:none" points="
  247.59,1486.45 247.59,1467.55 
  "/>
<polyline clip-path="url(#clip650)" style="stroke:#000000; stroke-linecap:butt; stroke-linejoin:round; stroke-width:4; stroke-opacity:1; fill:none" points="
  758.552,1486.45 758.552,1467.55 
  "/>
<polyline clip-path="url(#clip650)" style="stroke:#000000; stroke-linecap:butt; stroke-linejoin:round; stroke-width:4; stroke-opacity:1; fill:none" points="
  1269.51,1486.45 1269.51,1467.55 
  "/>
<polyline clip-path="url(#clip650)" style="stroke:#000000; stroke-linecap:butt; stroke-linejoin:round; stroke-width:4; stroke-opacity:1; fill:none" points="
  1780.48,1486.45 1780.48,1467.55 
  "/>
<polyline clip-path="url(#clip650)" style="stroke:#000000; stroke-linecap:butt; stroke-linejoin:round; stroke-width:4; stroke-opacity:1; fill:none" points="
  2291.44,1486.45 2291.44,1467.55 
  "/>
<path clip-path="url(#clip650)" d="M194.118 1532.02 L223.793 1532.02 L223.793 1535.95 L194.118 1535.95 L194.118 1532.02 Z" fill="#000000" fill-rule="evenodd" fill-opacity="1" /><path clip-path="url(#clip650)" d="M234.696 1544.91 L242.335 1544.91 L242.335 1518.55 L234.025 1520.21 L234.025 1515.95 L242.289 1514.29 L246.965 1514.29 L246.965 1544.91 L254.603 1544.91 L254.603 1548.85 L234.696 1548.85 L234.696 1544.91 Z" fill="#000000" fill-rule="evenodd" fill-opacity="1" /><path clip-path="url(#clip650)" d="M264.048 1542.97 L268.932 1542.97 L268.932 1548.85 L264.048 1548.85 L264.048 1542.97 Z" fill="#000000" fill-rule="evenodd" fill-opacity="1" /><path clip-path="url(#clip650)" d="M289.117 1517.37 Q285.506 1517.37 283.677 1520.93 Q281.872 1524.47 281.872 1531.6 Q281.872 1538.71 283.677 1542.27 Q285.506 1545.82 289.117 1545.82 Q292.751 1545.82 294.557 1542.27 Q296.386 1538.71 296.386 1531.6 Q296.386 1524.47 294.557 1520.93 Q292.751 1517.37 289.117 1517.37 M289.117 1513.66 Q294.927 1513.66 297.983 1518.27 Q301.061 1522.85 301.061 1531.6 Q301.061 1540.33 297.983 1544.94 Q294.927 1549.52 289.117 1549.52 Q283.307 1549.52 280.228 1544.94 Q277.173 1540.33 277.173 1531.6 Q277.173 1522.85 280.228 1518.27 Q283.307 1513.66 289.117 1513.66 Z" fill="#000000" fill-rule="evenodd" fill-opacity="1" /><path clip-path="url(#clip650)" d="M705.578 1532.02 L735.254 1532.02 L735.254 1535.95 L705.578 1535.95 L705.578 1532.02 Z" fill="#000000" fill-rule="evenodd" fill-opacity="1" /><path clip-path="url(#clip650)" d="M755.346 1517.37 Q751.735 1517.37 749.906 1520.93 Q748.101 1524.47 748.101 1531.6 Q748.101 1538.71 749.906 1542.27 Q751.735 1545.82 755.346 1545.82 Q758.98 1545.82 760.786 1542.27 Q762.615 1538.71 762.615 1531.6 Q762.615 1524.47 760.786 1520.93 Q758.98 1517.37 755.346 1517.37 M755.346 1513.66 Q761.156 1513.66 764.212 1518.27 Q767.291 1522.85 767.291 1531.6 Q767.291 1540.33 764.212 1544.94 Q761.156 1549.52 755.346 1549.52 Q749.536 1549.52 746.457 1544.94 Q743.402 1540.33 743.402 1531.6 Q743.402 1522.85 746.457 1518.27 Q749.536 1513.66 755.346 1513.66 Z" fill="#000000" fill-rule="evenodd" fill-opacity="1" /><path clip-path="url(#clip650)" d="M775.508 1542.97 L780.392 1542.97 L780.392 1548.85 L775.508 1548.85 L775.508 1542.97 Z" fill="#000000" fill-rule="evenodd" fill-opacity="1" /><path clip-path="url(#clip650)" d="M790.624 1514.29 L808.98 1514.29 L808.98 1518.22 L794.906 1518.22 L794.906 1526.7 Q795.925 1526.35 796.943 1526.19 Q797.962 1526 798.98 1526 Q804.767 1526 808.147 1529.17 Q811.526 1532.34 811.526 1537.76 Q811.526 1543.34 808.054 1546.44 Q804.582 1549.52 798.263 1549.52 Q796.087 1549.52 793.818 1549.15 Q791.573 1548.78 789.166 1548.04 L789.166 1543.34 Q791.249 1544.47 793.471 1545.03 Q795.693 1545.58 798.17 1545.58 Q802.175 1545.58 804.513 1543.48 Q806.851 1541.37 806.851 1537.76 Q806.851 1534.15 804.513 1532.04 Q802.175 1529.94 798.17 1529.94 Q796.295 1529.94 794.42 1530.35 Q792.568 1530.77 790.624 1531.65 L790.624 1514.29 Z" fill="#000000" fill-rule="evenodd" fill-opacity="1" /><path clip-path="url(#clip650)" d="M1246.9 1517.37 Q1243.29 1517.37 1241.46 1520.93 Q1239.65 1524.47 1239.65 1531.6 Q1239.65 1538.71 1241.46 1542.27 Q1243.29 1545.82 1246.9 1545.82 Q1250.53 1545.82 1252.34 1542.27 Q1254.17 1538.71 1254.17 1531.6 Q1254.17 1524.47 1252.34 1520.93 Q1250.53 1517.37 1246.9 1517.37 M1246.9 1513.66 Q1252.71 1513.66 1255.77 1518.27 Q1258.84 1522.85 1258.84 1531.6 Q1258.84 1540.33 1255.77 1544.94 Q1252.71 1549.52 1246.9 1549.52 Q1241.09 1549.52 1238.01 1544.94 Q1234.95 1540.33 1234.95 1531.6 Q1234.95 1522.85 1238.01 1518.27 Q1241.09 1513.66 1246.9 1513.66 Z" fill="#000000" fill-rule="evenodd" fill-opacity="1" /><path clip-path="url(#clip650)" d="M1267.06 1542.97 L1271.95 1542.97 L1271.95 1548.85 L1267.06 1548.85 L1267.06 1542.97 Z" fill="#000000" fill-rule="evenodd" fill-opacity="1" /><path clip-path="url(#clip650)" d="M1292.13 1517.37 Q1288.52 1517.37 1286.69 1520.93 Q1284.89 1524.47 1284.89 1531.6 Q1284.89 1538.71 1286.69 1542.27 Q1288.52 1545.82 1292.13 1545.82 Q1295.76 1545.82 1297.57 1542.27 Q1299.4 1538.71 1299.4 1531.6 Q1299.4 1524.47 1297.57 1520.93 Q1295.76 1517.37 1292.13 1517.37 M1292.13 1513.66 Q1297.94 1513.66 1301 1518.27 Q1304.07 1522.85 1304.07 1531.6 Q1304.07 1540.33 1301 1544.94 Q1297.94 1549.52 1292.13 1549.52 Q1286.32 1549.52 1283.24 1544.94 Q1280.19 1540.33 1280.19 1531.6 Q1280.19 1522.85 1283.24 1518.27 Q1286.32 1513.66 1292.13 1513.66 Z" fill="#000000" fill-rule="evenodd" fill-opacity="1" /><path clip-path="url(#clip650)" d="M1758.36 1517.37 Q1754.75 1517.37 1752.92 1520.93 Q1751.11 1524.47 1751.11 1531.6 Q1751.11 1538.71 1752.92 1542.27 Q1754.75 1545.82 1758.36 1545.82 Q1761.99 1545.82 1763.8 1542.27 Q1765.63 1538.71 1765.63 1531.6 Q1765.63 1524.47 1763.8 1520.93 Q1761.99 1517.37 1758.36 1517.37 M1758.36 1513.66 Q1764.17 1513.66 1767.23 1518.27 Q1770.3 1522.85 1770.3 1531.6 Q1770.3 1540.33 1767.23 1544.94 Q1764.17 1549.52 1758.36 1549.52 Q1752.55 1549.52 1749.47 1544.94 Q1746.42 1540.33 1746.42 1531.6 Q1746.42 1522.85 1749.47 1518.27 Q1752.55 1513.66 1758.36 1513.66 Z" fill="#000000" fill-rule="evenodd" fill-opacity="1" /><path clip-path="url(#clip650)" d="M1778.52 1542.97 L1783.41 1542.97 L1783.41 1548.85 L1778.52 1548.85 L1778.52 1542.97 Z" fill="#000000" fill-rule="evenodd" fill-opacity="1" /><path clip-path="url(#clip650)" d="M1793.64 1514.29 L1811.99 1514.29 L1811.99 1518.22 L1797.92 1518.22 L1797.92 1526.7 Q1798.94 1526.35 1799.96 1526.19 Q1800.98 1526 1801.99 1526 Q1807.78 1526 1811.16 1529.17 Q1814.54 1532.34 1814.54 1537.76 Q1814.54 1543.34 1811.07 1546.44 Q1807.6 1549.52 1801.28 1549.52 Q1799.1 1549.52 1796.83 1549.15 Q1794.59 1548.78 1792.18 1548.04 L1792.18 1543.34 Q1794.26 1544.47 1796.48 1545.03 Q1798.71 1545.58 1801.18 1545.58 Q1805.19 1545.58 1807.53 1543.48 Q1809.86 1541.37 1809.86 1537.76 Q1809.86 1534.15 1807.53 1532.04 Q1805.19 1529.94 1801.18 1529.94 Q1799.31 1529.94 1797.43 1530.35 Q1795.58 1530.77 1793.64 1531.65 L1793.64 1514.29 Z" fill="#000000" fill-rule="evenodd" fill-opacity="1" /><path clip-path="url(#clip650)" d="M2258.59 1544.91 L2266.23 1544.91 L2266.23 1518.55 L2257.92 1520.21 L2257.92 1515.95 L2266.19 1514.29 L2270.86 1514.29 L2270.86 1544.91 L2278.5 1544.91 L2278.5 1548.85 L2258.59 1548.85 L2258.59 1544.91 Z" fill="#000000" fill-rule="evenodd" fill-opacity="1" /><path clip-path="url(#clip650)" d="M2287.95 1542.97 L2292.83 1542.97 L2292.83 1548.85 L2287.95 1548.85 L2287.95 1542.97 Z" fill="#000000" fill-rule="evenodd" fill-opacity="1" /><path clip-path="url(#clip650)" d="M2313.01 1517.37 Q2309.4 1517.37 2307.57 1520.93 Q2305.77 1524.47 2305.77 1531.6 Q2305.77 1538.71 2307.57 1542.27 Q2309.4 1545.82 2313.01 1545.82 Q2316.65 1545.82 2318.45 1542.27 Q2320.28 1538.71 2320.28 1531.6 Q2320.28 1524.47 2318.45 1520.93 Q2316.65 1517.37 2313.01 1517.37 M2313.01 1513.66 Q2318.82 1513.66 2321.88 1518.27 Q2324.96 1522.85 2324.96 1531.6 Q2324.96 1540.33 2321.88 1544.94 Q2318.82 1549.52 2313.01 1549.52 Q2307.2 1549.52 2304.13 1544.94 Q2301.07 1540.33 2301.07 1531.6 Q2301.07 1522.85 2304.13 1518.27 Q2307.2 1513.66 2313.01 1513.66 Z" fill="#000000" fill-rule="evenodd" fill-opacity="1" /><polyline clip-path="url(#clip652)" style="stroke:#000000; stroke-linecap:butt; stroke-linejoin:round; stroke-width:2; stroke-opacity:0.1; fill:none" points="
  186.274,1445.72 2352.76,1445.72 
  "/>
<polyline clip-path="url(#clip652)" style="stroke:#000000; stroke-linecap:butt; stroke-linejoin:round; stroke-width:2; stroke-opacity:0.1; fill:none" points="
  186.274,1106.28 2352.76,1106.28 
  "/>
<polyline clip-path="url(#clip652)" style="stroke:#000000; stroke-linecap:butt; stroke-linejoin:round; stroke-width:2; stroke-opacity:0.1; fill:none" points="
  186.274,766.846 2352.76,766.846 
  "/>
<polyline clip-path="url(#clip652)" style="stroke:#000000; stroke-linecap:butt; stroke-linejoin:round; stroke-width:2; stroke-opacity:0.1; fill:none" points="
  186.274,427.411 2352.76,427.411 
  "/>
<polyline clip-path="url(#clip652)" style="stroke:#000000; stroke-linecap:butt; stroke-linejoin:round; stroke-width:2; stroke-opacity:0.1; fill:none" points="
  186.274,87.9763 2352.76,87.9763 
  "/>
<polyline clip-path="url(#clip650)" style="stroke:#000000; stroke-linecap:butt; stroke-linejoin:round; stroke-width:4; stroke-opacity:1; fill:none" points="
  186.274,1486.45 186.274,47.2441 
  "/>
<polyline clip-path="url(#clip650)" style="stroke:#000000; stroke-linecap:butt; stroke-linejoin:round; stroke-width:4; stroke-opacity:1; fill:none" points="
  186.274,1445.72 205.172,1445.72 
  "/>
<polyline clip-path="url(#clip650)" style="stroke:#000000; stroke-linecap:butt; stroke-linejoin:round; stroke-width:4; stroke-opacity:1; fill:none" points="
  186.274,1106.28 205.172,1106.28 
  "/>
<polyline clip-path="url(#clip650)" style="stroke:#000000; stroke-linecap:butt; stroke-linejoin:round; stroke-width:4; stroke-opacity:1; fill:none" points="
  186.274,766.846 205.172,766.846 
  "/>
<polyline clip-path="url(#clip650)" style="stroke:#000000; stroke-linecap:butt; stroke-linejoin:round; stroke-width:4; stroke-opacity:1; fill:none" points="
  186.274,427.411 205.172,427.411 
  "/>
<polyline clip-path="url(#clip650)" style="stroke:#000000; stroke-linecap:butt; stroke-linejoin:round; stroke-width:4; stroke-opacity:1; fill:none" points="
  186.274,87.9763 205.172,87.9763 
  "/>
<path clip-path="url(#clip650)" d="M62.9365 1431.51 Q59.3254 1431.51 57.4967 1435.08 Q55.6912 1438.62 55.6912 1445.75 Q55.6912 1452.86 57.4967 1456.42 Q59.3254 1459.96 62.9365 1459.96 Q66.5707 1459.96 68.3763 1456.42 Q70.205 1452.86 70.205 1445.75 Q70.205 1438.62 68.3763 1435.08 Q66.5707 1431.51 62.9365 1431.51 M62.9365 1427.81 Q68.7467 1427.81 71.8022 1432.42 Q74.8809 1437 74.8809 1445.75 Q74.8809 1454.48 71.8022 1459.08 Q68.7467 1463.67 62.9365 1463.67 Q57.1264 1463.67 54.0477 1459.08 Q50.9921 1454.48 50.9921 1445.75 Q50.9921 1437 54.0477 1432.42 Q57.1264 1427.81 62.9365 1427.81 Z" fill="#000000" fill-rule="evenodd" fill-opacity="1" /><path clip-path="url(#clip650)" d="M83.0984 1457.12 L87.9827 1457.12 L87.9827 1463 L83.0984 1463 L83.0984 1457.12 Z" fill="#000000" fill-rule="evenodd" fill-opacity="1" /><path clip-path="url(#clip650)" d="M108.168 1431.51 Q104.557 1431.51 102.728 1435.08 Q100.922 1438.62 100.922 1445.75 Q100.922 1452.86 102.728 1456.42 Q104.557 1459.96 108.168 1459.96 Q111.802 1459.96 113.608 1456.42 Q115.436 1452.86 115.436 1445.75 Q115.436 1438.62 113.608 1435.08 Q111.802 1431.51 108.168 1431.51 M108.168 1427.81 Q113.978 1427.81 117.033 1432.42 Q120.112 1437 120.112 1445.75 Q120.112 1454.48 117.033 1459.08 Q113.978 1463.67 108.168 1463.67 Q102.358 1463.67 99.2789 1459.08 Q96.2234 1454.48 96.2234 1445.75 Q96.2234 1437 99.2789 1432.42 Q102.358 1427.81 108.168 1427.81 Z" fill="#000000" fill-rule="evenodd" fill-opacity="1" /><path clip-path="url(#clip650)" d="M138.33 1431.51 Q134.719 1431.51 132.89 1435.08 Q131.084 1438.62 131.084 1445.75 Q131.084 1452.86 132.89 1456.42 Q134.719 1459.96 138.33 1459.96 Q141.964 1459.96 143.769 1456.42 Q145.598 1452.86 145.598 1445.75 Q145.598 1438.62 143.769 1435.08 Q141.964 1431.51 138.33 1431.51 M138.33 1427.81 Q144.14 1427.81 147.195 1432.42 Q150.274 1437 150.274 1445.75 Q150.274 1454.48 147.195 1459.08 Q144.14 1463.67 138.33 1463.67 Q132.519 1463.67 129.441 1459.08 Q126.385 1454.48 126.385 1445.75 Q126.385 1437 129.441 1432.42 Q132.519 1427.81 138.33 1427.81 Z" fill="#000000" fill-rule="evenodd" fill-opacity="1" /><path clip-path="url(#clip650)" d="M63.9319 1092.08 Q60.3208 1092.08 58.4921 1095.64 Q56.6865 1099.19 56.6865 1106.32 Q56.6865 1113.42 58.4921 1116.99 Q60.3208 1120.53 63.9319 1120.53 Q67.5661 1120.53 69.3717 1116.99 Q71.2004 1113.42 71.2004 1106.32 Q71.2004 1099.19 69.3717 1095.64 Q67.5661 1092.08 63.9319 1092.08 M63.9319 1088.38 Q69.742 1088.38 72.7976 1092.98 Q75.8763 1097.57 75.8763 1106.32 Q75.8763 1115.04 72.7976 1119.65 Q69.742 1124.23 63.9319 1124.23 Q58.1217 1124.23 55.043 1119.65 Q51.9875 1115.04 51.9875 1106.32 Q51.9875 1097.57 55.043 1092.98 Q58.1217 1088.38 63.9319 1088.38 Z" fill="#000000" fill-rule="evenodd" fill-opacity="1" /><path clip-path="url(#clip650)" d="M84.0938 1117.68 L88.978 1117.68 L88.978 1123.56 L84.0938 1123.56 L84.0938 1117.68 Z" fill="#000000" fill-rule="evenodd" fill-opacity="1" /><path clip-path="url(#clip650)" d="M103.191 1119.63 L119.51 1119.63 L119.51 1123.56 L97.566 1123.56 L97.566 1119.63 Q100.228 1116.87 104.811 1112.24 Q109.418 1107.59 110.598 1106.25 Q112.844 1103.72 113.723 1101.99 Q114.626 1100.23 114.626 1098.54 Q114.626 1095.78 112.682 1094.05 Q110.76 1092.31 107.658 1092.31 Q105.459 1092.31 103.006 1093.07 Q100.575 1093.84 97.7974 1095.39 L97.7974 1090.67 Q100.621 1089.53 103.075 1088.95 Q105.529 1088.38 107.566 1088.38 Q112.936 1088.38 116.131 1091.06 Q119.325 1093.75 119.325 1098.24 Q119.325 1100.37 118.515 1102.29 Q117.728 1104.19 115.621 1106.78 Q115.043 1107.45 111.941 1110.67 Q108.839 1113.86 103.191 1119.63 Z" fill="#000000" fill-rule="evenodd" fill-opacity="1" /><path clip-path="url(#clip650)" d="M129.371 1089 L147.728 1089 L147.728 1092.94 L133.654 1092.94 L133.654 1101.41 Q134.672 1101.06 135.691 1100.9 Q136.709 1100.71 137.728 1100.71 Q143.515 1100.71 146.894 1103.89 Q150.274 1107.06 150.274 1112.47 Q150.274 1118.05 146.802 1121.15 Q143.33 1124.23 137.01 1124.23 Q134.834 1124.23 132.566 1123.86 Q130.32 1123.49 127.913 1122.75 L127.913 1118.05 Q129.996 1119.19 132.219 1119.74 Q134.441 1120.3 136.918 1120.3 Q140.922 1120.3 143.26 1118.19 Q145.598 1116.08 145.598 1112.47 Q145.598 1108.86 143.26 1106.76 Q140.922 1104.65 136.918 1104.65 Q135.043 1104.65 133.168 1105.07 Q131.316 1105.48 129.371 1106.36 L129.371 1089 Z" fill="#000000" fill-rule="evenodd" fill-opacity="1" /><path clip-path="url(#clip650)" d="M62.9365 752.645 Q59.3254 752.645 57.4967 756.209 Q55.6912 759.751 55.6912 766.881 Q55.6912 773.987 57.4967 777.552 Q59.3254 781.094 62.9365 781.094 Q66.5707 781.094 68.3763 777.552 Q70.205 773.987 70.205 766.881 Q70.205 759.751 68.3763 756.209 Q66.5707 752.645 62.9365 752.645 M62.9365 748.941 Q68.7467 748.941 71.8022 753.547 Q74.8809 758.131 74.8809 766.881 Q74.8809 775.608 71.8022 780.214 Q68.7467 784.797 62.9365 784.797 Q57.1264 784.797 54.0477 780.214 Q50.9921 775.608 50.9921 766.881 Q50.9921 758.131 54.0477 753.547 Q57.1264 748.941 62.9365 748.941 Z" fill="#000000" fill-rule="evenodd" fill-opacity="1" /><path clip-path="url(#clip650)" d="M83.0984 778.246 L87.9827 778.246 L87.9827 784.126 L83.0984 784.126 L83.0984 778.246 Z" fill="#000000" fill-rule="evenodd" fill-opacity="1" /><path clip-path="url(#clip650)" d="M98.2141 749.566 L116.57 749.566 L116.57 753.501 L102.496 753.501 L102.496 761.973 Q103.515 761.626 104.534 761.464 Q105.552 761.279 106.571 761.279 Q112.358 761.279 115.737 764.45 Q119.117 767.621 119.117 773.038 Q119.117 778.617 115.645 781.719 Q112.172 784.797 105.853 784.797 Q103.677 784.797 101.409 784.427 Q99.1632 784.057 96.7558 783.316 L96.7558 778.617 Q98.8391 779.751 101.061 780.307 Q103.284 780.862 105.76 780.862 Q109.765 780.862 112.103 778.756 Q114.441 776.649 114.441 773.038 Q114.441 769.427 112.103 767.321 Q109.765 765.214 105.76 765.214 Q103.885 765.214 102.01 765.631 Q100.159 766.047 98.2141 766.927 L98.2141 749.566 Z" fill="#000000" fill-rule="evenodd" fill-opacity="1" /><path clip-path="url(#clip650)" d="M138.33 752.645 Q134.719 752.645 132.89 756.209 Q131.084 759.751 131.084 766.881 Q131.084 773.987 132.89 777.552 Q134.719 781.094 138.33 781.094 Q141.964 781.094 143.769 777.552 Q145.598 773.987 145.598 766.881 Q145.598 759.751 143.769 756.209 Q141.964 752.645 138.33 752.645 M138.33 748.941 Q144.14 748.941 147.195 753.547 Q150.274 758.131 150.274 766.881 Q150.274 775.608 147.195 780.214 Q144.14 784.797 138.33 784.797 Q132.519 784.797 129.441 780.214 Q126.385 775.608 126.385 766.881 Q126.385 758.131 129.441 753.547 Q132.519 748.941 138.33 748.941 Z" fill="#000000" fill-rule="evenodd" fill-opacity="1" /><path clip-path="url(#clip650)" d="M63.9319 413.21 Q60.3208 413.21 58.4921 416.775 Q56.6865 420.316 56.6865 427.446 Q56.6865 434.552 58.4921 438.117 Q60.3208 441.659 63.9319 441.659 Q67.5661 441.659 69.3717 438.117 Q71.2004 434.552 71.2004 427.446 Q71.2004 420.316 69.3717 416.775 Q67.5661 413.21 63.9319 413.21 M63.9319 409.506 Q69.742 409.506 72.7976 414.113 Q75.8763 418.696 75.8763 427.446 Q75.8763 436.173 72.7976 440.779 Q69.742 445.362 63.9319 445.362 Q58.1217 445.362 55.043 440.779 Q51.9875 436.173 51.9875 427.446 Q51.9875 418.696 55.043 414.113 Q58.1217 409.506 63.9319 409.506 Z" fill="#000000" fill-rule="evenodd" fill-opacity="1" /><path clip-path="url(#clip650)" d="M84.0938 438.812 L88.978 438.812 L88.978 444.691 L84.0938 444.691 L84.0938 438.812 Z" fill="#000000" fill-rule="evenodd" fill-opacity="1" /><path clip-path="url(#clip650)" d="M97.9826 410.131 L120.205 410.131 L120.205 412.122 L107.658 444.691 L102.774 444.691 L114.58 414.066 L97.9826 414.066 L97.9826 410.131 Z" fill="#000000" fill-rule="evenodd" fill-opacity="1" /><path clip-path="url(#clip650)" d="M129.371 410.131 L147.728 410.131 L147.728 414.066 L133.654 414.066 L133.654 422.538 Q134.672 422.191 135.691 422.029 Q136.709 421.844 137.728 421.844 Q143.515 421.844 146.894 425.015 Q150.274 428.187 150.274 433.603 Q150.274 439.182 146.802 442.284 Q143.33 445.362 137.01 445.362 Q134.834 445.362 132.566 444.992 Q130.32 444.622 127.913 443.881 L127.913 439.182 Q129.996 440.316 132.219 440.872 Q134.441 441.427 136.918 441.427 Q140.922 441.427 143.26 439.321 Q145.598 437.214 145.598 433.603 Q145.598 429.992 143.26 427.886 Q140.922 425.779 136.918 425.779 Q135.043 425.779 133.168 426.196 Q131.316 426.613 129.371 427.492 L129.371 410.131 Z" fill="#000000" fill-rule="evenodd" fill-opacity="1" /><path clip-path="url(#clip650)" d="M53.7467 101.321 L61.3856 101.321 L61.3856 74.9555 L53.0754 76.6222 L53.0754 72.3629 L61.3393 70.6963 L66.0152 70.6963 L66.0152 101.321 L73.654 101.321 L73.654 105.256 L53.7467 105.256 L53.7467 101.321 Z" fill="#000000" fill-rule="evenodd" fill-opacity="1" /><path clip-path="url(#clip650)" d="M83.0984 99.3767 L87.9827 99.3767 L87.9827 105.256 L83.0984 105.256 L83.0984 99.3767 Z" fill="#000000" fill-rule="evenodd" fill-opacity="1" /><path clip-path="url(#clip650)" d="M108.168 73.775 Q104.557 73.775 102.728 77.3398 Q100.922 80.8814 100.922 88.011 Q100.922 95.1174 102.728 98.6822 Q104.557 102.224 108.168 102.224 Q111.802 102.224 113.608 98.6822 Q115.436 95.1174 115.436 88.011 Q115.436 80.8814 113.608 77.3398 Q111.802 73.775 108.168 73.775 M108.168 70.0713 Q113.978 70.0713 117.033 74.6777 Q120.112 79.261 120.112 88.011 Q120.112 96.7378 117.033 101.344 Q113.978 105.928 108.168 105.928 Q102.358 105.928 99.2789 101.344 Q96.2234 96.7378 96.2234 88.011 Q96.2234 79.261 99.2789 74.6777 Q102.358 70.0713 108.168 70.0713 Z" fill="#000000" fill-rule="evenodd" fill-opacity="1" /><path clip-path="url(#clip650)" d="M138.33 73.775 Q134.719 73.775 132.89 77.3398 Q131.084 80.8814 131.084 88.011 Q131.084 95.1174 132.89 98.6822 Q134.719 102.224 138.33 102.224 Q141.964 102.224 143.769 98.6822 Q145.598 95.1174 145.598 88.011 Q145.598 80.8814 143.769 77.3398 Q141.964 73.775 138.33 73.775 M138.33 70.0713 Q144.14 70.0713 147.195 74.6777 Q150.274 79.261 150.274 88.011 Q150.274 96.7378 147.195 101.344 Q144.14 105.928 138.33 105.928 Q132.519 105.928 129.441 101.344 Q126.385 96.7378 126.385 88.011 Q126.385 79.261 129.441 74.6777 Q132.519 70.0713 138.33 70.0713 Z" fill="#000000" fill-rule="evenodd" fill-opacity="1" /><polyline clip-path="url(#clip652)" style="stroke:#009af9; stroke-linecap:butt; stroke-linejoin:round; stroke-width:12; stroke-opacity:1; fill:none" points="
  247.59,1445.7 268.028,1445.71 288.467,1445.71 308.905,1445.71 329.344,1445.72 349.782,1445.72 370.221,1445.72 390.659,1445.72 411.098,1445.72 431.536,1445.72 
  451.975,1445.72 472.413,1445.72 492.852,1445.72 513.29,1445.72 533.729,1445.72 554.167,1445.72 574.606,1445.72 595.044,1445.72 615.483,1445.72 635.921,1445.72 
  656.36,1445.72 676.798,1445.72 697.237,1445.72 717.675,1445.72 738.114,1445.72 758.552,1445.72 778.991,1445.72 799.429,1445.72 819.868,1445.72 840.306,1445.72 
  860.745,1445.72 881.183,1445.72 901.622,1445.72 922.06,1445.72 942.499,1445.72 962.937,1445.72 983.376,1445.72 1003.81,1445.72 1024.25,1445.72 1044.69,1445.72 
  1065.13,1445.72 1085.57,1445.72 1106.01,1445.72 1126.45,1445.72 1146.88,1445.72 1167.32,1445.72 1187.76,1445.72 1208.2,1445.71 1228.64,1445.71 1249.08,1445.71 
  1269.51,1445.7 1289.95,1445.67 1310.39,1445.6 1330.83,1445.47 1351.27,1445.18 1371.71,1444.61 1392.15,1443.5 1412.58,1441.44 1433.02,1437.74 1453.46,1431.38 
  1473.9,1420.85 1494.34,1404.07 1514.78,1378.42 1535.22,1340.76 1555.65,1287.74 1576.09,1216.24 1596.53,1124.03 1616.97,1010.52 1637.41,877.52 1657.85,729.79 
  1678.29,575.16 1698.72,424.109 1719.16,288.726 1739.6,181.174 1760.04,111.901 1780.48,87.9763 1800.92,111.901 1821.35,181.174 1841.79,288.726 1862.23,424.109 
  1882.67,575.16 1903.11,729.79 1923.55,877.52 1943.99,1010.52 1964.42,1124.03 1984.86,1216.24 2005.3,1287.74 2025.74,1340.76 2046.18,1378.42 2066.62,1404.07 
  2087.06,1420.85 2107.49,1431.38 2127.93,1437.74 2148.37,1441.44 2168.81,1443.5 2189.25,1444.61 2209.69,1445.18 2230.12,1445.47 2250.56,1445.6 2271,1445.67 
  2291.44,1445.7 
  "/>
<polyline clip-path="url(#clip652)" style="stroke:#e26f46; stroke-linecap:butt; stroke-linejoin:round; stroke-width:12; stroke-opacity:1; fill:none" points="
  247.59,1445.7 268.028,1445.71 288.467,1445.71 308.905,1445.72 329.344,1445.72 349.782,1445.72 370.221,1445.72 390.659,1445.72 411.098,1445.72 431.536,1445.72 
  451.975,1445.72 472.413,1445.72 492.852,1445.72 513.29,1445.72 533.729,1445.72 554.167,1445.72 574.606,1445.72 595.044,1445.72 615.483,1445.72 635.921,1445.72 
  656.36,1445.72 676.798,1445.72 697.237,1445.72 717.675,1445.72 738.114,1445.72 758.552,1445.72 778.991,1445.72 799.429,1445.72 819.868,1445.72 840.306,1445.72 
  860.745,1445.72 881.183,1445.72 901.622,1445.72 922.06,1445.72 942.499,1445.72 962.937,1445.72 983.376,1445.72 1003.81,1445.72 1024.25,1445.72 1044.69,1445.72 
  1065.13,1445.72 1085.57,1445.72 1106.01,1445.72 1126.45,1445.72 1146.88,1445.72 1167.32,1445.72 1187.76,1445.72 1208.2,1445.72 1228.64,1445.72 1249.08,1445.71 
  1269.51,1445.71 1289.95,1445.69 1310.39,1445.65 1330.83,1445.55 1351.27,1445.31 1371.71,1444.82 1392.15,1443.81 1412.58,1441.86 1433.02,1438.28 1453.46,1431.99 
  1473.9,1421.44 1494.34,1404.51 1514.78,1378.5 1535.22,1340.28 1555.65,1286.52 1576.09,1214.2 1596.53,1121.27 1616.97,1007.32 1637.41,874.391 1657.85,727.344 
  1678.29,574.007 1698.72,424.689 1719.16,291.17 1739.6,185.224 1760.04,116.941 1780.48,93.1588 1800.92,116.341 1821.35,184.16 1841.79,289.877 1862.23,423.434 
  1882.67,573.018 1903.11,726.764 1923.55,874.252 1943.99,1007.56 1964.42,1121.75 1984.86,1214.78 2005.3,1287.07 2025.74,1340.72 2046.18,1378.79 2066.62,1404.66 
  2087.06,1421.48 2107.49,1431.95 2127.93,1438.2 2148.37,1441.78 2168.81,1443.73 2189.25,1444.76 2209.69,1445.27 2230.12,1445.52 2250.56,1445.63 2271,1445.68 
  2291.44,1445.7 
  "/>
<path clip-path="url(#clip650)" d="
M258.49 250.738 L625.552 250.738 L625.552 95.2176 L258.49 95.2176  Z
  " fill="#ffffff" fill-rule="evenodd" fill-opacity="1"/>
<polyline clip-path="url(#clip650)" style="stroke:#000000; stroke-linecap:butt; stroke-linejoin:round; stroke-width:4; stroke-opacity:1; fill:none" points="
  258.49,250.738 625.552,250.738 625.552,95.2176 258.49,95.2176 258.49,250.738 
  "/>
<polyline clip-path="url(#clip650)" style="stroke:#009af9; stroke-linecap:butt; stroke-linejoin:round; stroke-width:4; stroke-opacity:1; fill:none" points="
  282.562,147.058 426.994,147.058 
  "/>
<path clip-path="url(#clip650)" d="M475.094 150.31 L475.094 152.393 L455.511 152.393 Q455.788 156.791 458.15 159.106 Q460.534 161.398 464.77 161.398 Q467.224 161.398 469.515 160.796 Q471.83 160.194 474.099 158.99 L474.099 163.018 Q471.807 163.99 469.399 164.5 Q466.992 165.009 464.515 165.009 Q458.312 165.009 454.677 161.398 Q451.066 157.787 451.066 151.629 Q451.066 145.264 454.492 141.537 Q457.941 137.787 463.774 137.787 Q469.006 137.787 472.038 141.166 Q475.094 144.523 475.094 150.31 M470.835 149.06 Q470.788 145.565 468.867 143.481 Q466.969 141.398 463.821 141.398 Q460.256 141.398 458.103 143.412 Q455.974 145.426 455.65 149.083 L470.835 149.06 Z" fill="#000000" fill-rule="evenodd" fill-opacity="1" /><path clip-path="url(#clip650)" d="M502.802 138.412 L493.427 151.027 L503.288 164.338 L498.265 164.338 L490.719 154.152 L483.173 164.338 L478.149 164.338 L488.219 150.773 L479.006 138.412 L484.029 138.412 L490.904 147.648 L497.779 138.412 L502.802 138.412 Z" fill="#000000" fill-rule="evenodd" fill-opacity="1" /><path clip-path="url(#clip650)" d="M521.089 151.305 Q515.927 151.305 513.936 152.486 Q511.946 153.666 511.946 156.514 Q511.946 158.782 513.427 160.125 Q514.932 161.444 517.501 161.444 Q521.043 161.444 523.172 158.944 Q525.325 156.421 525.325 152.254 L525.325 151.305 L521.089 151.305 M529.584 149.546 L529.584 164.338 L525.325 164.338 L525.325 160.402 Q523.867 162.763 521.691 163.898 Q519.515 165.009 516.367 165.009 Q512.385 165.009 510.024 162.787 Q507.686 160.541 507.686 156.791 Q507.686 152.416 510.603 150.194 Q513.543 147.972 519.353 147.972 L525.325 147.972 L525.325 147.555 Q525.325 144.615 523.381 143.018 Q521.459 141.398 517.964 141.398 Q515.742 141.398 513.635 141.93 Q511.529 142.463 509.584 143.527 L509.584 139.592 Q511.922 138.69 514.121 138.25 Q516.321 137.787 518.404 137.787 Q524.029 137.787 526.807 140.703 Q529.584 143.62 529.584 149.546 Z" fill="#000000" fill-rule="evenodd" fill-opacity="1" /><path clip-path="url(#clip650)" d="M557.015 139.407 L557.015 143.389 Q555.209 142.393 553.381 141.907 Q551.575 141.398 549.723 141.398 Q545.58 141.398 543.288 144.037 Q540.996 146.652 540.996 151.398 Q540.996 156.143 543.288 158.782 Q545.58 161.398 549.723 161.398 Q551.575 161.398 553.381 160.912 Q555.209 160.402 557.015 159.407 L557.015 163.342 Q555.232 164.176 553.311 164.592 Q551.413 165.009 549.26 165.009 Q543.404 165.009 539.955 161.328 Q536.506 157.648 536.506 151.398 Q536.506 145.055 539.978 141.421 Q543.473 137.787 549.538 137.787 Q551.506 137.787 553.381 138.203 Q555.255 138.597 557.015 139.407 Z" fill="#000000" fill-rule="evenodd" fill-opacity="1" /><path clip-path="url(#clip650)" d="M568.635 131.051 L568.635 138.412 L577.408 138.412 L577.408 141.722 L568.635 141.722 L568.635 155.796 Q568.635 158.967 569.492 159.87 Q570.371 160.773 573.033 160.773 L577.408 160.773 L577.408 164.338 L573.033 164.338 Q568.103 164.338 566.228 162.509 Q564.353 160.657 564.353 155.796 L564.353 141.722 L561.228 141.722 L561.228 138.412 L564.353 138.412 L564.353 131.051 L568.635 131.051 Z" fill="#000000" fill-rule="evenodd" fill-opacity="1" /><polyline clip-path="url(#clip650)" style="stroke:#e26f46; stroke-linecap:butt; stroke-linejoin:round; stroke-width:4; stroke-opacity:1; fill:none" points="
  282.562,198.898 426.994,198.898 
  "/>
<path clip-path="url(#clip650)" d="M473.311 182.752 L473.311 187.312 Q470.649 186.039 468.288 185.414 Q465.927 184.789 463.728 184.789 Q459.909 184.789 457.825 186.27 Q455.765 187.752 455.765 190.483 Q455.765 192.775 457.131 193.955 Q458.52 195.113 462.362 195.83 L465.187 196.409 Q470.418 197.405 472.895 199.928 Q475.395 202.428 475.395 206.641 Q475.395 211.664 472.015 214.256 Q468.659 216.849 462.154 216.849 Q459.7 216.849 456.923 216.293 Q454.168 215.738 451.205 214.65 L451.205 209.835 Q454.052 211.432 456.784 212.242 Q459.515 213.053 462.154 213.053 Q466.159 213.053 468.335 211.479 Q470.511 209.904 470.511 206.988 Q470.511 204.442 468.937 203.006 Q467.386 201.571 463.821 200.854 L460.974 200.298 Q455.742 199.256 453.404 197.034 Q451.066 194.812 451.066 190.854 Q451.066 186.27 454.284 183.631 Q457.525 180.993 463.196 180.993 Q465.626 180.993 468.149 181.432 Q470.673 181.872 473.311 182.752 Z" fill="#000000" fill-rule="evenodd" fill-opacity="1" /><path clip-path="url(#clip650)" d="M482.154 181.618 L486.853 181.618 L486.853 202.613 Q486.853 208.168 488.867 210.622 Q490.881 213.053 495.395 213.053 Q499.885 213.053 501.899 210.622 Q503.913 208.168 503.913 202.613 L503.913 181.618 L508.612 181.618 L508.612 203.192 Q508.612 209.951 505.256 213.4 Q501.922 216.849 495.395 216.849 Q488.844 216.849 485.487 213.4 Q482.154 209.951 482.154 203.192 L482.154 181.618 Z" fill="#000000" fill-rule="evenodd" fill-opacity="1" /><path clip-path="url(#clip650)" d="M522.061 185.46 L522.061 198.446 L527.941 198.446 Q531.205 198.446 532.987 196.756 Q534.769 195.067 534.769 191.942 Q534.769 188.84 532.987 187.15 Q531.205 185.46 527.941 185.46 L522.061 185.46 M517.385 181.618 L527.941 181.618 Q533.751 181.618 536.714 184.256 Q539.7 186.872 539.7 191.942 Q539.7 197.057 536.714 199.673 Q533.751 202.289 527.941 202.289 L522.061 202.289 L522.061 216.178 L517.385 216.178 L517.385 181.618 Z" fill="#000000" fill-rule="evenodd" fill-opacity="1" /><path clip-path="url(#clip650)" d="M569.538 211.247 L569.538 201.965 L561.899 201.965 L561.899 198.122 L574.167 198.122 L574.167 212.96 Q571.459 214.881 568.195 215.877 Q564.931 216.849 561.228 216.849 Q553.126 216.849 548.543 212.127 Q543.982 207.381 543.982 198.932 Q543.982 190.46 548.543 185.738 Q553.126 180.993 561.228 180.993 Q564.607 180.993 567.64 181.826 Q570.695 182.659 573.265 184.28 L573.265 189.256 Q570.672 187.057 567.755 185.946 Q564.839 184.835 561.621 184.835 Q555.279 184.835 552.084 188.377 Q548.913 191.918 548.913 198.932 Q548.913 205.923 552.084 209.465 Q555.279 213.006 561.621 213.006 Q564.098 213.006 566.042 212.59 Q567.987 212.15 569.538 211.247 Z" fill="#000000" fill-rule="evenodd" fill-opacity="1" /></svg>
