<?xml version="1.0" encoding="utf-8"?>
<svg xmlns="http://www.w3.org/2000/svg" xmlns:xlink="http://www.w3.org/1999/xlink" width="600" height="400" viewBox="0 0 2400 1600">
<defs>
  <clipPath id="clip620">
    <rect x="0" y="0" width="2400" height="1600"/>
  </clipPath>
</defs>
<path clip-path="url(#clip620)" d="
M0 1600 L2400 1600 L2400 0 L0 0  Z
  " fill="#ffffff" fill-rule="evenodd" fill-opacity="1"/>
<defs>
  <clipPath id="clip621">
    <rect x="480" y="0" width="1681" height="1600"/>
  </clipPath>
</defs>
<path clip-path="url(#clip620)" d="
M193.936 1486.45 L2352.76 1486.45 L2352.76 47.2441 L193.936 47.2441  Z
  " fill="#ffffff" fill-rule="evenodd" fill-opacity="1"/>
<defs>
  <clipPath id="clip622">
    <rect x="193" y="47" width="2160" height="1440"/>
  </clipPath>
</defs>
<polyline clip-path="url(#clip622)" style="stroke:#000000; stroke-linecap:butt; stroke-linejoin:round; stroke-width:2; stroke-opacity:0.1; fill:none" points="
  244.749,1486.45 244.749,47.2441 
  "/>
<polyline clip-path="url(#clip622)" style="stroke:#000000; stroke-linecap:butt; stroke-linejoin:round; stroke-width:2; stroke-opacity:0.1; fill:none" points="
  759.047,1486.45 759.047,47.2441 
  "/>
<polyline clip-path="url(#clip622)" style="stroke:#000000; stroke-linecap:butt; stroke-linejoin:round; stroke-width:2; stroke-opacity:0.1; fill:none" points="
  1273.35,1486.45 1273.35,47.2441 
  "/>
<polyline clip-path="url(#clip622)" style="stroke:#000000; stroke-linecap:butt; stroke-linejoin:round; stroke-width:2; stroke-opacity:0.1; fill:none" points="
  1787.64,1486.45 1787.64,47.2441 
  "/>
<polyline clip-path="url(#clip622)" style="stroke:#000000; stroke-linecap:butt; stroke-linejoin:round; stroke-width:2; stroke-opacity:0.1; fill:none" points="
  2301.94,1486.45 2301.94,47.2441 
  "/>
<polyline clip-path="url(#clip620)" style="stroke:#000000; stroke-linecap:butt; stroke-linejoin:round; stroke-width:4; stroke-opacity:1; fill:none" points="
  193.936,1486.45 2352.76,1486.45 
  "/>
<polyline clip-path="url(#clip620)" style="stroke:#000000; stroke-linecap:butt; stroke-linejoin:round; stroke-width:4; stroke-opacity:1; fill:none" points="
  244.749,1486.45 244.749,1467.55 
  "/>
<polyline clip-path="url(#clip620)" style="stroke:#000000; stroke-linecap:butt; stroke-linejoin:round; stroke-width:4; stroke-opacity:1; fill:none" points="
  759.047,1486.45 759.047,1467.55 
  "/>
<polyline clip-path="url(#clip620)" style="stroke:#000000; stroke-linecap:butt; stroke-linejoin:round; stroke-width:4; stroke-opacity:1; fill:none" points="
  1273.35,1486.45 1273.35,1467.55 
  "/>
<polyline clip-path="url(#clip620)" style="stroke:#000000; stroke-linecap:butt; stroke-linejoin:round; stroke-width:4; stroke-opacity:1; fill:none" points="
  1787.64,1486.45 1787.64,1467.55 
  "/>
<polyline clip-path="url(#clip620)" style="stroke:#000000; stroke-linecap:butt; stroke-linejoin:round; stroke-width:4; stroke-opacity:1; fill:none" points="
  2301.94,1486.45 2301.94,1467.55 
  "/>
<path clip-path="url(#clip620)" d="M191.277 1532.02 L220.953 1532.02 L220.953 1535.95 L191.277 1535.95 L191.277 1532.02 Z" fill="#000000" fill-rule="evenodd" fill-opacity="1" /><path clip-path="url(#clip620)" d="M231.855 1544.91 L239.494 1544.91 L239.494 1518.55 L231.184 1520.21 L231.184 1515.95 L239.448 1514.29 L244.124 1514.29 L244.124 1544.91 L251.763 1544.91 L251.763 1548.85 L231.855 1548.85 L231.855 1544.91 Z" fill="#000000" fill-rule="evenodd" fill-opacity="1" /><path clip-path="url(#clip620)" d="M261.207 1542.97 L266.091 1542.97 L266.091 1548.85 L261.207 1548.85 L261.207 1542.97 Z" fill="#000000" fill-rule="evenodd" fill-opacity="1" /><path clip-path="url(#clip620)" d="M286.276 1517.37 Q282.665 1517.37 280.836 1520.93 Q279.031 1524.47 279.031 1531.6 Q279.031 1538.71 280.836 1542.27 Q282.665 1545.82 286.276 1545.82 Q289.91 1545.82 291.716 1542.27 Q293.545 1538.71 293.545 1531.6 Q293.545 1524.47 291.716 1520.93 Q289.91 1517.37 286.276 1517.37 M286.276 1513.66 Q292.086 1513.66 295.142 1518.27 Q298.221 1522.85 298.221 1531.6 Q298.221 1540.33 295.142 1544.94 Q292.086 1549.52 286.276 1549.52 Q280.466 1549.52 277.387 1544.94 Q274.332 1540.33 274.332 1531.6 Q274.332 1522.85 277.387 1518.27 Q280.466 1513.66 286.276 1513.66 Z" fill="#000000" fill-rule="evenodd" fill-opacity="1" /><path clip-path="url(#clip620)" d="M706.073 1532.02 L735.749 1532.02 L735.749 1535.95 L706.073 1535.95 L706.073 1532.02 Z" fill="#000000" fill-rule="evenodd" fill-opacity="1" /><path clip-path="url(#clip620)" d="M755.841 1517.37 Q752.23 1517.37 750.402 1520.93 Q748.596 1524.47 748.596 1531.6 Q748.596 1538.71 750.402 1542.27 Q752.23 1545.82 755.841 1545.82 Q759.476 1545.82 761.281 1542.27 Q763.11 1538.71 763.11 1531.6 Q763.11 1524.47 761.281 1520.93 Q759.476 1517.37 755.841 1517.37 M755.841 1513.66 Q761.651 1513.66 764.707 1518.27 Q767.786 1522.85 767.786 1531.6 Q767.786 1540.33 764.707 1544.94 Q761.651 1549.52 755.841 1549.52 Q750.031 1549.52 746.952 1544.94 Q743.897 1540.33 743.897 1531.6 Q743.897 1522.85 746.952 1518.27 Q750.031 1513.66 755.841 1513.66 Z" fill="#000000" fill-rule="evenodd" fill-opacity="1" /><path clip-path="url(#clip620)" d="M776.003 1542.97 L780.887 1542.97 L780.887 1548.85 L776.003 1548.85 L776.003 1542.97 Z" fill="#000000" fill-rule="evenodd" fill-opacity="1" /><path clip-path="url(#clip620)" d="M791.119 1514.29 L809.475 1514.29 L809.475 1518.22 L795.401 1518.22 L795.401 1526.7 Q796.42 1526.35 797.438 1526.19 Q798.457 1526 799.475 1526 Q805.262 1526 808.642 1529.17 Q812.022 1532.34 812.022 1537.76 Q812.022 1543.34 808.549 1546.44 Q805.077 1549.52 798.758 1549.52 Q796.582 1549.52 794.313 1549.15 Q792.068 1548.78 789.661 1548.04 L789.661 1543.34 Q791.744 1544.47 793.966 1545.03 Q796.188 1545.58 798.665 1545.58 Q802.67 1545.58 805.008 1543.48 Q807.346 1541.37 807.346 1537.76 Q807.346 1534.15 805.008 1532.04 Q802.67 1529.94 798.665 1529.94 Q796.79 1529.94 794.915 1530.35 Q793.063 1530.77 791.119 1531.65 L791.119 1514.29 Z" fill="#000000" fill-rule="evenodd" fill-opacity="1" /><path clip-path="url(#clip620)" d="M1250.73 1517.37 Q1247.12 1517.37 1245.29 1520.93 Q1243.49 1524.47 1243.49 1531.6 Q1243.49 1538.71 1245.29 1542.27 Q1247.12 1545.82 1250.73 1545.82 Q1254.36 1545.82 1256.17 1542.27 Q1258 1538.71 1258 1531.6 Q1258 1524.47 1256.17 1520.93 Q1254.36 1517.37 1250.73 1517.37 M1250.73 1513.66 Q1256.54 1513.66 1259.6 1518.27 Q1262.67 1522.85 1262.67 1531.6 Q1262.67 1540.33 1259.6 1544.94 Q1256.54 1549.52 1250.73 1549.52 Q1244.92 1549.52 1241.84 1544.94 Q1238.79 1540.33 1238.79 1531.6 Q1238.79 1522.85 1241.84 1518.27 Q1244.92 1513.66 1250.73 1513.66 Z" fill="#000000" fill-rule="evenodd" fill-opacity="1" /><path clip-path="url(#clip620)" d="M1270.89 1542.97 L1275.78 1542.97 L1275.78 1548.85 L1270.89 1548.85 L1270.89 1542.97 Z" fill="#000000" fill-rule="evenodd" fill-opacity="1" /><path clip-path="url(#clip620)" d="M1295.96 1517.37 Q1292.35 1517.37 1290.52 1520.93 Q1288.72 1524.47 1288.72 1531.6 Q1288.72 1538.71 1290.52 1542.27 Q1292.35 1545.82 1295.96 1545.82 Q1299.6 1545.82 1301.4 1542.27 Q1303.23 1538.71 1303.23 1531.6 Q1303.23 1524.47 1301.4 1520.93 Q1299.6 1517.37 1295.96 1517.37 M1295.96 1513.66 Q1301.77 1513.66 1304.83 1518.27 Q1307.91 1522.85 1307.91 1531.6 Q1307.91 1540.33 1304.83 1544.94 Q1301.77 1549.52 1295.96 1549.52 Q1290.15 1549.52 1287.07 1544.94 Q1284.02 1540.33 1284.02 1531.6 Q1284.02 1522.85 1287.07 1518.27 Q1290.15 1513.66 1295.96 1513.66 Z" fill="#000000" fill-rule="evenodd" fill-opacity="1" /><path clip-path="url(#clip620)" d="M1765.53 1517.37 Q1761.92 1517.37 1760.09 1520.93 Q1758.28 1524.47 1758.28 1531.6 Q1758.28 1538.71 1760.09 1542.27 Q1761.92 1545.82 1765.53 1545.82 Q1769.16 1545.82 1770.97 1542.27 Q1772.8 1538.71 1772.8 1531.6 Q1772.8 1524.47 1770.97 1520.93 Q1769.16 1517.37 1765.53 1517.37 M1765.53 1513.66 Q1771.34 1513.66 1774.39 1518.27 Q1777.47 1522.85 1777.47 1531.6 Q1777.47 1540.33 1774.39 1544.94 Q1771.34 1549.52 1765.53 1549.52 Q1759.72 1549.52 1756.64 1544.94 Q1753.58 1540.33 1753.58 1531.6 Q1753.58 1522.85 1756.64 1518.27 Q1759.72 1513.66 1765.53 1513.66 Z" fill="#000000" fill-rule="evenodd" fill-opacity="1" /><path clip-path="url(#clip620)" d="M1785.69 1542.97 L1790.57 1542.97 L1790.57 1548.85 L1785.69 1548.85 L1785.69 1542.97 Z" fill="#000000" fill-rule="evenodd" fill-opacity="1" /><path clip-path="url(#clip620)" d="M1800.8 1514.29 L1819.16 1514.29 L1819.16 1518.22 L1805.09 1518.22 L1805.09 1526.7 Q1806.11 1526.35 1807.12 1526.19 Q1808.14 1526 1809.16 1526 Q1814.95 1526 1818.33 1529.17 Q1821.71 1532.34 1821.71 1537.76 Q1821.71 1543.34 1818.23 1546.44 Q1814.76 1549.52 1808.44 1549.52 Q1806.27 1549.52 1804 1549.15 Q1801.75 1548.78 1799.35 1548.04 L1799.35 1543.34 Q1801.43 1544.47 1803.65 1545.03 Q1805.87 1545.58 1808.35 1545.58 Q1812.36 1545.58 1814.69 1543.48 Q1817.03 1541.37 1817.03 1537.76 Q1817.03 1534.15 1814.69 1532.04 Q1812.36 1529.94 1808.35 1529.94 Q1806.48 1529.94 1804.6 1530.35 Q1802.75 1530.77 1800.8 1531.65 L1800.8 1514.29 Z" fill="#000000" fill-rule="evenodd" fill-opacity="1" /><path clip-path="url(#clip620)" d="M2269.1 1544.91 L2276.74 1544.91 L2276.74 1518.55 L2268.42 1520.21 L2268.42 1515.95 L2276.69 1514.29 L2281.36 1514.29 L2281.36 1544.91 L2289 1544.91 L2289 1548.85 L2269.1 1548.85 L2269.1 1544.91 Z" fill="#000000" fill-rule="evenodd" fill-opacity="1" /><path clip-path="url(#clip620)" d="M2298.45 1542.97 L2303.33 1542.97 L2303.33 1548.85 L2298.45 1548.85 L2298.45 1542.97 Z" fill="#000000" fill-rule="evenodd" fill-opacity="1" /><path clip-path="url(#clip620)" d="M2323.52 1517.37 Q2319.91 1517.37 2318.08 1520.93 Q2316.27 1524.47 2316.27 1531.6 Q2316.27 1538.71 2318.08 1542.27 Q2319.91 1545.82 2323.52 1545.82 Q2327.15 1545.82 2328.96 1542.27 Q2330.79 1538.71 2330.79 1531.6 Q2330.79 1524.47 2328.96 1520.93 Q2327.15 1517.37 2323.52 1517.37 M2323.52 1513.66 Q2329.33 1513.66 2332.38 1518.27 Q2335.46 1522.85 2335.46 1531.6 Q2335.46 1540.33 2332.38 1544.94 Q2329.33 1549.52 2323.52 1549.52 Q2317.71 1549.52 2314.63 1544.94 Q2311.57 1540.33 2311.57 1531.6 Q2311.57 1522.85 2314.63 1518.27 Q2317.71 1513.66 2323.52 1513.66 Z" fill="#000000" fill-rule="evenodd" fill-opacity="1" /><polyline clip-path="url(#clip622)" style="stroke:#000000; stroke-linecap:butt; stroke-linejoin:round; stroke-width:2; stroke-opacity:0.1; fill:none" points="
  193.936,1446.05 2352.76,1446.05 
  "/>
<polyline clip-path="url(#clip622)" style="stroke:#000000; stroke-linecap:butt; stroke-linejoin:round; stroke-width:2; stroke-opacity:0.1; fill:none" points="
  193.936,1106.45 2352.76,1106.45 
  "/>
<polyline clip-path="url(#clip622)" style="stroke:#000000; stroke-linecap:butt; stroke-linejoin:round; stroke-width:2; stroke-opacity:0.1; fill:none" points="
  193.936,766.846 2352.76,766.846 
  "/>
<polyline clip-path="url(#clip622)" style="stroke:#000000; stroke-linecap:butt; stroke-linejoin:round; stroke-width:2; stroke-opacity:0.1; fill:none" points="
  193.936,427.244 2352.76,427.244 
  "/>
<polyline clip-path="url(#clip622)" style="stroke:#000000; stroke-linecap:butt; stroke-linejoin:round; stroke-width:2; stroke-opacity:0.1; fill:none" points="
  193.936,87.6411 2352.76,87.6411 
  "/>
<polyline clip-path="url(#clip620)" style="stroke:#000000; stroke-linecap:butt; stroke-linejoin:round; stroke-width:4; stroke-opacity:1; fill:none" points="
  193.936,1486.45 193.936,47.2441 
  "/>
<polyline clip-path="url(#clip620)" style="stroke:#000000; stroke-linecap:butt; stroke-linejoin:round; stroke-width:4; stroke-opacity:1; fill:none" points="
  193.936,1446.05 212.834,1446.05 
  "/>
<polyline clip-path="url(#clip620)" style="stroke:#000000; stroke-linecap:butt; stroke-linejoin:round; stroke-width:4; stroke-opacity:1; fill:none" points="
  193.936,1106.45 212.834,1106.45 
  "/>
<polyline clip-path="url(#clip620)" style="stroke:#000000; stroke-linecap:butt; stroke-linejoin:round; stroke-width:4; stroke-opacity:1; fill:none" points="
  193.936,766.846 212.834,766.846 
  "/>
<polyline clip-path="url(#clip620)" style="stroke:#000000; stroke-linecap:butt; stroke-linejoin:round; stroke-width:4; stroke-opacity:1; fill:none" points="
  193.936,427.244 212.834,427.244 
  "/>
<polyline clip-path="url(#clip620)" style="stroke:#000000; stroke-linecap:butt; stroke-linejoin:round; stroke-width:4; stroke-opacity:1; fill:none" points="
  193.936,87.6411 212.834,87.6411 
  "/>
<path clip-path="url(#clip620)" d="M50.9921 1446.5 L80.6679 1446.5 L80.6679 1450.44 L50.9921 1450.44 L50.9921 1446.5 Z" fill="#000000" fill-rule="evenodd" fill-opacity="1" /><path clip-path="url(#clip620)" d="M91.5706 1459.4 L99.2095 1459.4 L99.2095 1433.03 L90.8993 1434.7 L90.8993 1430.44 L99.1632 1428.77 L103.839 1428.77 L103.839 1459.4 L111.478 1459.4 L111.478 1463.33 L91.5706 1463.33 L91.5706 1459.4 Z" fill="#000000" fill-rule="evenodd" fill-opacity="1" /><path clip-path="url(#clip620)" d="M120.922 1457.45 L125.807 1457.45 L125.807 1463.33 L120.922 1463.33 L120.922 1457.45 Z" fill="#000000" fill-rule="evenodd" fill-opacity="1" /><path clip-path="url(#clip620)" d="M145.992 1431.85 Q142.381 1431.85 140.552 1435.41 Q138.746 1438.96 138.746 1446.09 Q138.746 1453.19 140.552 1456.76 Q142.381 1460.3 145.992 1460.3 Q149.626 1460.3 151.431 1456.76 Q153.26 1453.19 153.26 1446.09 Q153.26 1438.96 151.431 1435.41 Q149.626 1431.85 145.992 1431.85 M145.992 1428.15 Q151.802 1428.15 154.857 1432.75 Q157.936 1437.34 157.936 1446.09 Q157.936 1454.81 154.857 1459.42 Q151.802 1464 145.992 1464 Q140.181 1464 137.103 1459.42 Q134.047 1454.81 134.047 1446.09 Q134.047 1437.34 137.103 1432.75 Q140.181 1428.15 145.992 1428.15 Z" fill="#000000" fill-rule="evenodd" fill-opacity="1" /><path clip-path="url(#clip620)" d="M51.9875 1106.9 L81.6633 1106.9 L81.6633 1110.83 L51.9875 1110.83 L51.9875 1106.9 Z" fill="#000000" fill-rule="evenodd" fill-opacity="1" /><path clip-path="url(#clip620)" d="M101.756 1092.25 Q98.1447 1092.25 96.316 1095.81 Q94.5104 1099.35 94.5104 1106.48 Q94.5104 1113.59 96.316 1117.15 Q98.1447 1120.7 101.756 1120.7 Q105.39 1120.7 107.196 1117.15 Q109.024 1113.59 109.024 1106.48 Q109.024 1099.35 107.196 1095.81 Q105.39 1092.25 101.756 1092.25 M101.756 1088.54 Q107.566 1088.54 110.621 1093.15 Q113.7 1097.73 113.7 1106.48 Q113.7 1115.21 110.621 1119.82 Q107.566 1124.4 101.756 1124.4 Q95.9456 1124.4 92.8669 1119.82 Q89.8114 1115.21 89.8114 1106.48 Q89.8114 1097.73 92.8669 1093.15 Q95.9456 1088.54 101.756 1088.54 Z" fill="#000000" fill-rule="evenodd" fill-opacity="1" /><path clip-path="url(#clip620)" d="M121.918 1117.85 L126.802 1117.85 L126.802 1123.73 L121.918 1123.73 L121.918 1117.85 Z" fill="#000000" fill-rule="evenodd" fill-opacity="1" /><path clip-path="url(#clip620)" d="M137.033 1089.17 L155.39 1089.17 L155.39 1093.1 L141.316 1093.1 L141.316 1101.58 Q142.334 1101.23 143.353 1101.07 Q144.371 1100.88 145.39 1100.88 Q151.177 1100.88 154.556 1104.05 Q157.936 1107.22 157.936 1112.64 Q157.936 1118.22 154.464 1121.32 Q150.992 1124.4 144.672 1124.4 Q142.496 1124.4 140.228 1124.03 Q137.982 1123.66 135.575 1122.92 L135.575 1118.22 Q137.658 1119.35 139.881 1119.91 Q142.103 1120.46 144.58 1120.46 Q148.584 1120.46 150.922 1118.36 Q153.26 1116.25 153.26 1112.64 Q153.26 1109.03 150.922 1106.92 Q148.584 1104.82 144.58 1104.82 Q142.705 1104.82 140.83 1105.23 Q138.978 1105.65 137.033 1106.53 L137.033 1089.17 Z" fill="#000000" fill-rule="evenodd" fill-opacity="1" /><path clip-path="url(#clip620)" d="M100.76 752.645 Q97.1493 752.645 95.3206 756.209 Q93.515 759.751 93.515 766.881 Q93.515 773.987 95.3206 777.552 Q97.1493 781.094 100.76 781.094 Q104.395 781.094 106.2 777.552 Q108.029 773.987 108.029 766.881 Q108.029 759.751 106.2 756.209 Q104.395 752.645 100.76 752.645 M100.76 748.941 Q106.571 748.941 109.626 753.547 Q112.705 758.131 112.705 766.881 Q112.705 775.608 109.626 780.214 Q106.571 784.797 100.76 784.797 Q94.9502 784.797 91.8715 780.214 Q88.816 775.608 88.816 766.881 Q88.816 758.131 91.8715 753.547 Q94.9502 748.941 100.76 748.941 Z" fill="#000000" fill-rule="evenodd" fill-opacity="1" /><path clip-path="url(#clip620)" d="M120.922 778.246 L125.807 778.246 L125.807 784.126 L120.922 784.126 L120.922 778.246 Z" fill="#000000" fill-rule="evenodd" fill-opacity="1" /><path clip-path="url(#clip620)" d="M145.992 752.645 Q142.381 752.645 140.552 756.209 Q138.746 759.751 138.746 766.881 Q138.746 773.987 140.552 777.552 Q142.381 781.094 145.992 781.094 Q149.626 781.094 151.431 777.552 Q153.26 773.987 153.26 766.881 Q153.26 759.751 151.431 756.209 Q149.626 752.645 145.992 752.645 M145.992 748.941 Q151.802 748.941 154.857 753.547 Q157.936 758.131 157.936 766.881 Q157.936 775.608 154.857 780.214 Q151.802 784.797 145.992 784.797 Q140.181 784.797 137.103 780.214 Q134.047 775.608 134.047 766.881 Q134.047 758.131 137.103 753.547 Q140.181 748.941 145.992 748.941 Z" fill="#000000" fill-rule="evenodd" fill-opacity="1" /><path clip-path="url(#clip620)" d="M101.756 413.042 Q98.1447 413.042 96.316 416.607 Q94.5104 420.149 94.5104 427.278 Q94.5104 434.385 96.316 437.95 Q98.1447 441.491 101.756 441.491 Q105.39 441.491 107.196 437.95 Q109.024 434.385 109.024 427.278 Q109.024 420.149 107.196 416.607 Q105.39 413.042 101.756 413.042 M101.756 409.339 Q107.566 409.339 110.621 413.945 Q113.7 418.528 113.7 427.278 Q113.7 436.005 110.621 440.612 Q107.566 445.195 101.756 445.195 Q95.9456 445.195 92.8669 440.612 Q89.8114 436.005 89.8114 427.278 Q89.8114 418.528 92.8669 413.945 Q95.9456 409.339 101.756 409.339 Z" fill="#000000" fill-rule="evenodd" fill-opacity="1" /><path clip-path="url(#clip620)" d="M121.918 438.644 L126.802 438.644 L126.802 444.524 L121.918 444.524 L121.918 438.644 Z" fill="#000000" fill-rule="evenodd" fill-opacity="1" /><path clip-path="url(#clip620)" d="M137.033 409.964 L155.39 409.964 L155.39 413.899 L141.316 413.899 L141.316 422.371 Q142.334 422.024 143.353 421.862 Q144.371 421.676 145.39 421.676 Q151.177 421.676 154.556 424.848 Q157.936 428.019 157.936 433.436 Q157.936 439.014 154.464 442.116 Q150.992 445.195 144.672 445.195 Q142.496 445.195 140.228 444.824 Q137.982 444.454 135.575 443.713 L135.575 439.014 Q137.658 440.149 139.881 440.704 Q142.103 441.26 144.58 441.26 Q148.584 441.26 150.922 439.153 Q153.26 437.047 153.26 433.436 Q153.26 429.825 150.922 427.718 Q148.584 425.612 144.58 425.612 Q142.705 425.612 140.83 426.028 Q138.978 426.445 137.033 427.325 L137.033 409.964 Z" fill="#000000" fill-rule="evenodd" fill-opacity="1" /><path clip-path="url(#clip620)" d="M91.5706 100.986 L99.2095 100.986 L99.2095 74.6204 L90.8993 76.287 L90.8993 72.0278 L99.1632 70.3611 L103.839 70.3611 L103.839 100.986 L111.478 100.986 L111.478 104.921 L91.5706 104.921 L91.5706 100.986 Z" fill="#000000" fill-rule="evenodd" fill-opacity="1" /><path clip-path="url(#clip620)" d="M120.922 99.0415 L125.807 99.0415 L125.807 104.921 L120.922 104.921 L120.922 99.0415 Z" fill="#000000" fill-rule="evenodd" fill-opacity="1" /><path clip-path="url(#clip620)" d="M145.992 73.4398 Q142.381 73.4398 140.552 77.0046 Q138.746 80.5463 138.746 87.6759 Q138.746 94.7823 140.552 98.3471 Q142.381 101.889 145.992 101.889 Q149.626 101.889 151.431 98.3471 Q153.26 94.7823 153.26 87.6759 Q153.26 80.5463 151.431 77.0046 Q149.626 73.4398 145.992 73.4398 M145.992 69.7361 Q151.802 69.7361 154.857 74.3426 Q157.936 78.9259 157.936 87.6759 Q157.936 96.4027 154.857 101.009 Q151.802 105.592 145.992 105.592 Q140.181 105.592 137.103 101.009 Q134.047 96.4027 134.047 87.6759 Q134.047 78.9259 137.103 74.3426 Q140.181 69.7361 145.992 69.7361 Z" fill="#000000" fill-rule="evenodd" fill-opacity="1" /><polyline clip-path="url(#clip622)" style="stroke:#009af9; stroke-linecap:butt; stroke-linejoin:round; stroke-width:12; stroke-opacity:1; fill:none" points="
  255.035,1445.72 275.607,1443.04 296.179,1437.69 316.751,1429.69 337.322,1419.08 357.894,1405.9 378.466,1390.19 399.038,1372.02 419.61,1351.47 440.182,1328.6 
  460.754,1303.52 481.326,1276.33 501.898,1247.12 522.47,1216.01 543.042,1183.14 563.614,1148.62 584.186,1112.59 604.758,1075.2 625.33,1036.59 645.902,996.918 
  666.474,956.338 687.046,915.01 707.617,873.097 728.189,830.765 748.761,788.18 769.333,745.512 789.905,702.927 810.477,660.595 831.049,618.682 851.621,577.354 
  872.193,536.774 892.765,497.101 913.337,458.493 933.909,421.103 954.481,385.076 975.053,350.557 995.625,317.68 1016.2,286.576 1036.77,257.367 1057.34,230.169 
  1077.91,205.089 1098.48,182.226 1119.06,161.67 1139.63,143.503 1160.2,127.795 1180.77,114.61 1201.34,103.999 1221.92,96.0033 1242.49,90.6555 1263.06,87.9763 
  1283.63,87.9763 1304.2,90.6555 1324.78,96.0033 1345.35,103.999 1365.92,114.61 1386.49,127.795 1407.06,143.503 1427.64,161.67 1448.21,182.226 1468.78,205.089 
  1489.35,230.169 1509.92,257.367 1530.5,286.576 1551.07,317.68 1571.64,350.557 1592.21,385.076 1612.78,421.103 1633.35,458.493 1653.93,497.101 1674.5,536.774 
  1695.07,577.354 1715.64,618.682 1736.21,660.595 1756.79,702.927 1777.36,745.512 1797.93,788.18 1818.5,830.765 1839.07,873.097 1859.65,915.01 1880.22,956.338 
  1900.79,996.918 1921.36,1036.59 1941.93,1075.2 1962.51,1112.59 1983.08,1148.62 2003.65,1183.14 2024.22,1216.01 2044.79,1247.12 2065.37,1276.33 2085.94,1303.52 
  2106.51,1328.6 2127.08,1351.47 2147.65,1372.02 2168.23,1390.19 2188.8,1405.9 2209.37,1419.08 2229.94,1429.69 2250.51,1437.69 2271.09,1443.04 2291.66,1445.72 
  
  "/>
<polyline clip-path="url(#clip622)" style="stroke:#e26f46; stroke-linecap:butt; stroke-linejoin:round; stroke-width:12; stroke-opacity:1; fill:none" points="
  255.035,1338.51 275.607,1321.77 296.179,1304.11 316.751,1285.62 337.322,1266.35 357.894,1246.36 378.466,1225.7 399.038,1204.44 419.61,1182.61 440.182,1160.27 
  460.754,1137.44 481.326,1114.18 501.898,1090.51 522.47,1066.47 543.042,1042.1 563.614,1017.43 584.186,992.482 604.758,967.29 625.33,941.881 645.902,916.282 
  666.474,890.518 687.046,864.609 707.617,838.566 728.189,812.332 748.761,785.284 769.333,748.407 789.905,721.36 810.477,695.126 831.049,669.082 851.621,643.174 
  872.193,617.41 892.765,591.811 913.337,566.402 933.909,541.21 954.481,516.263 975.053,491.589 995.625,467.219 1016.2,443.184 1036.77,419.516 1057.34,396.251 
  1077.91,373.426 1098.48,351.079 1119.06,329.251 1139.63,307.987 1160.2,287.335 1180.77,267.345 1201.34,248.073 1221.92,229.578 1242.49,211.925 1263.06,195.187 
  1283.63,179.439 1304.2,164.77 1324.78,151.272 1345.35,139.052 1365.92,128.227 1386.49,118.928 1407.06,111.303 1427.64,105.519 1448.21,101.765 1468.78,100.259 
  1489.35,101.248 1509.92,105.02 1530.5,111.905 1551.07,122.291 1571.64,136.63 1592.21,155.452 1612.78,179.38 1633.35,209.146 1653.93,245.603 1674.5,289.732 
  1695.07,342.63 1715.64,405.455 1736.21,479.29 1756.79,564.864 1777.36,662.045 1797.93,871.647 1818.5,968.828 1839.07,1054.4 1859.65,1128.24 1880.22,1191.06 
  1900.79,1243.96 1921.36,1288.09 1941.93,1324.55 1962.51,1354.31 1983.08,1378.24 2003.65,1397.06 2024.22,1411.4 2044.79,1421.79 2065.37,1428.67 2085.94,1432.44 
  2106.51,1433.43 2127.08,1431.93 2147.65,1428.17 2168.23,1422.39 2188.8,1414.76 2209.37,1405.47 2229.94,1394.64 2250.51,1382.42 2271.09,1368.92 2291.66,1354.25 
  
  "/>
<polyline clip-path="url(#clip622)" style="stroke:#3da44d; stroke-linecap:butt; stroke-linejoin:round; stroke-width:12; stroke-opacity:1; fill:none" points="
  255.035,1214.64 275.607,1198.48 296.179,1182.07 316.751,1165.42 337.322,1148.56 357.894,1131.49 378.466,1114.24 399.038,1096.81 419.61,1079.22 440.182,1061.49 
  460.754,1043.61 481.326,1025.61 501.898,1007.5 522.47,989.269 543.042,970.944 563.614,952.528 584.186,934.03 604.758,915.458 625.33,896.817 645.902,878.115 
  666.474,859.354 687.046,840.533 707.617,821.635 728.189,802.591 748.761,783.081 769.333,750.611 789.905,731.101 810.477,712.057 831.049,693.159 851.621,674.338 
  872.193,655.577 892.765,636.875 913.337,618.234 933.909,599.662 954.481,581.164 975.053,562.748 995.625,544.423 1016.2,526.196 1036.77,508.078 1057.34,490.077 
  1077.91,472.204 1098.48,454.468 1119.06,436.881 1139.63,419.455 1160.2,402.202 1180.77,385.137 1201.34,368.273 1221.92,351.626 1242.49,335.214 1263.06,319.055 
  1283.63,303.168 1304.2,287.578 1324.78,272.307 1345.35,257.383 1365.92,242.836 1386.49,228.7 1407.06,215.014 1427.64,201.818 1448.21,189.164 1468.78,177.107 
  1489.35,165.713 1509.92,155.057 1530.5,145.231 1551.07,136.341 1571.64,128.52 1592.21,121.928 1612.78,116.767 1633.35,113.296 1653.93,111.857 1674.5,112.914 
  1695.07,117.125 1715.64,125.478 1736.21,139.573 1756.79,162.307 1777.36,200.012 1797.93,1333.68 1818.5,1371.39 1839.07,1394.12 1859.65,1408.21 1880.22,1416.57 
  1900.79,1420.78 1921.36,1421.83 1941.93,1420.4 1962.51,1416.93 1983.08,1411.76 2003.65,1405.17 2024.22,1397.35 2044.79,1388.46 2065.37,1378.63 2085.94,1367.98 
  2106.51,1356.58 2127.08,1344.53 2147.65,1331.87 2168.23,1318.68 2188.8,1304.99 2209.37,1290.86 2229.94,1276.31 2250.51,1261.39 2271.09,1246.11 2291.66,1230.52 
  
  "/>
<polyline clip-path="url(#clip622)" style="stroke:#c271d2; stroke-linecap:butt; stroke-linejoin:round; stroke-width:12; stroke-opacity:1; fill:none" points="
  255.035,1127.68 275.607,1113.95 296.179,1100.13 316.751,1086.23 337.322,1072.25 357.894,1058.19 378.466,1044.06 399.038,1029.87 419.61,1015.61 440.182,1001.3 
  460.754,986.937 481.326,972.523 501.898,958.063 522.47,943.561 543.042,929.018 563.614,914.439 584.186,899.826 604.758,885.181 625.33,870.506 645.902,855.801 
  666.474,841.065 687.046,826.29 707.617,811.459 728.189,796.525 748.761,781.348 769.333,752.344 789.905,737.167 810.477,722.233 831.049,707.402 851.621,692.627 
  872.193,677.891 892.765,663.186 913.337,648.511 933.909,633.866 954.481,619.253 975.053,604.674 995.625,590.131 1016.2,575.629 1036.77,561.169 1057.34,546.755 
  1077.91,532.39 1098.48,518.079 1119.06,503.825 1139.63,489.631 1160.2,475.503 1180.77,461.445 1201.34,447.461 1221.92,433.557 1242.49,419.738 1263.06,406.009 
  1283.63,392.377 1304.2,378.849 1324.78,365.431 1345.35,352.132 1365.92,338.959 1386.49,325.922 1407.06,313.031 1427.64,300.297 1448.21,287.732 1468.78,275.349 
  1489.35,263.164 1509.92,251.192 1530.5,239.453 1551.07,227.969 1571.64,216.763 1592.21,205.864 1612.78,195.305 1633.35,185.124 1653.93,175.367 1674.5,166.088 
  1695.07,157.356 1715.64,149.255 1736.21,141.893 1756.79,135.415 1777.36,130.018 1797.93,1403.67 1818.5,1398.28 1839.07,1391.8 1859.65,1384.44 1880.22,1376.34 
  1900.79,1367.6 1921.36,1358.33 1941.93,1348.57 1962.51,1338.39 1983.08,1327.83 2003.65,1316.93 2024.22,1305.72 2044.79,1294.24 2065.37,1282.5 2085.94,1270.53 
  2106.51,1258.34 2127.08,1245.96 2147.65,1233.39 2168.23,1220.66 2188.8,1207.77 2209.37,1194.73 2229.94,1181.56 2250.51,1168.26 2271.09,1154.84 2291.66,1141.31 
  
  "/>
<polyline clip-path="url(#clip622)" style="stroke:#ac8d18; stroke-linecap:butt; stroke-linejoin:round; stroke-width:12; stroke-opacity:1; fill:none" points="
  255.035,1067.46 275.607,1055.81 296.179,1044.13 316.751,1032.41 337.322,1020.65 357.894,1008.85 378.466,997.028 399.038,985.173 419.61,973.29 440.182,961.38 
  460.754,949.446 481.326,937.488 501.898,925.508 522.47,913.507 543.042,901.487 563.614,889.449 584.186,877.393 604.758,865.319 625.33,853.229 645.902,841.12 
  666.474,828.989 687.046,816.829 707.617,804.628 728.189,792.355 748.761,779.949 769.333,753.743 789.905,741.337 810.477,729.064 831.049,716.863 851.621,704.703 
  872.193,692.572 892.765,680.463 913.337,668.373 933.909,656.299 954.481,644.243 975.053,632.205 995.625,620.185 1016.2,608.184 1036.77,596.204 1057.34,584.246 
  1077.91,572.312 1098.48,560.402 1119.06,548.519 1139.63,536.664 1160.2,524.839 1180.77,513.046 1201.34,501.287 1221.92,489.563 1242.49,477.878 1263.06,466.232 
  1283.63,454.629 1304.2,443.07 1324.78,431.56 1345.35,420.1 1365.92,408.693 1386.49,397.343 1407.06,386.052 1427.64,374.826 1448.21,363.667 1468.78,352.581 
  1489.35,341.57 1509.92,330.642 1530.5,319.801 1551.07,309.052 1571.64,298.404 1592.21,287.863 1612.78,277.436 1633.35,267.134 1653.93,256.967 1674.5,246.945 
  1695.07,237.081 1715.64,227.392 1736.21,217.893 1756.79,208.605 1777.36,199.551 1797.93,1334.14 1818.5,1325.09 1839.07,1315.8 1859.65,1306.3 1880.22,1296.61 
  1900.79,1286.75 1921.36,1276.73 1941.93,1266.56 1962.51,1256.26 1983.08,1245.83 2003.65,1235.29 2024.22,1224.64 2044.79,1213.89 2065.37,1203.05 2085.94,1192.12 
  2106.51,1181.11 2127.08,1170.02 2147.65,1158.87 2168.23,1147.64 2188.8,1136.35 2209.37,1125 2229.94,1113.59 2250.51,1102.13 2271.09,1090.62 2291.66,1079.06 
  
  "/>
<polyline clip-path="url(#clip622)" style="stroke:#00a9ad; stroke-linecap:butt; stroke-linejoin:round; stroke-width:12; stroke-opacity:1; fill:none" points="
  255.035,1024.04 275.607,1014.01 296.179,1003.96 316.751,993.882 337.322,983.789 357.894,973.679 378.466,963.553 399.038,953.41 419.61,943.253 440.182,933.081 
  460.754,922.896 481.326,912.698 501.898,902.488 522.47,892.267 543.042,882.034 563.614,871.791 584.186,861.536 604.758,851.271 625.33,840.994 645.902,830.704 
  666.474,820.396 687.046,810.067 707.617,799.706 728.189,789.295 748.761,778.796 769.333,754.896 789.905,744.397 810.477,733.986 831.049,723.625 851.621,713.296 
  872.193,702.988 892.765,692.698 913.337,682.421 933.909,672.156 954.481,661.901 975.053,651.658 995.625,641.425 1016.2,631.204 1036.77,620.994 1057.34,610.796 
  1077.91,600.611 1098.48,590.439 1119.06,580.282 1139.63,570.139 1160.2,560.013 1180.77,549.903 1201.34,539.81 1221.92,529.736 1242.49,519.682 1263.06,509.648 
  1283.63,499.636 1304.2,489.647 1324.78,479.681 1345.35,469.741 1365.92,459.827 1386.49,449.94 1407.06,440.084 1427.64,430.257 1448.21,420.464 1468.78,410.704 
  1489.35,400.981 1509.92,391.295 1530.5,381.649 1551.07,372.046 1571.64,362.487 1592.21,352.975 1612.78,343.514 1633.35,334.105 1653.93,324.753 1674.5,315.46 
  1695.07,306.231 1715.64,297.071 1736.21,287.983 1756.79,278.973 1777.36,270.047 1797.93,1263.65 1818.5,1254.72 1839.07,1245.71 1859.65,1236.62 1880.22,1227.46 
  1900.79,1218.23 1921.36,1208.94 1941.93,1199.59 1962.51,1190.18 1983.08,1180.72 2003.65,1171.21 2024.22,1161.65 2044.79,1152.04 2065.37,1142.4 2085.94,1132.71 
  2106.51,1122.99 2127.08,1113.23 2147.65,1103.43 2168.23,1093.61 2188.8,1083.75 2209.37,1073.87 2229.94,1063.95 2250.51,1054.01 2271.09,1044.05 2291.66,1034.06 
  
  "/>
</svg>
