<?xml version="1.0" encoding="utf-8"?>
<svg xmlns="http://www.w3.org/2000/svg" xmlns:xlink="http://www.w3.org/1999/xlink" width="600" height="400" viewBox="0 0 2400 1600">
<defs>
  <clipPath id="clip850">
    <rect x="0" y="0" width="2400" height="1600"/>
  </clipPath>
</defs>
<path clip-path="url(#clip850)" d="
M0 1600 L2400 1600 L2400 0 L0 0  Z
  " fill="#ffffff" fill-rule="evenodd" fill-opacity="1"/>
<defs>
  <clipPath id="clip851">
    <rect x="480" y="0" width="1681" height="1600"/>
  </clipPath>
</defs>
<path clip-path="url(#clip850)" d="
M156.598 1486.45 L2352.76 1486.45 L2352.76 47.2441 L156.598 47.2441  Z
  " fill="#ffffff" fill-rule="evenodd" fill-opacity="1"/>
<defs>
  <clipPath id="clip852">
    <rect x="156" y="47" width="2197" height="1440"/>
  </clipPath>
</defs>
<polyline clip-path="url(#clip852)" style="stroke:#000000; stroke-linecap:butt; stroke-linejoin:round; stroke-width:2; stroke-opacity:0.1; fill:none" points="
  218.754,1486.45 218.754,47.2441 
  "/>
<polyline clip-path="url(#clip852)" style="stroke:#000000; stroke-linecap:butt; stroke-linejoin:round; stroke-width:2; stroke-opacity:0.1; fill:none" points="
  736.715,1486.45 736.715,47.2441 
  "/>
<polyline clip-path="url(#clip852)" style="stroke:#000000; stroke-linecap:butt; stroke-linejoin:round; stroke-width:2; stroke-opacity:0.1; fill:none" points="
  1254.68,1486.45 1254.68,47.2441 
  "/>
<polyline clip-path="url(#clip852)" style="stroke:#000000; stroke-linecap:butt; stroke-linejoin:round; stroke-width:2; stroke-opacity:0.1; fill:none" points="
  1772.64,1486.45 1772.64,47.2441 
  "/>
<polyline clip-path="url(#clip852)" style="stroke:#000000; stroke-linecap:butt; stroke-linejoin:round; stroke-width:2; stroke-opacity:0.1; fill:none" points="
  2290.6,1486.45 2290.6,47.2441 
  "/>
<polyline clip-path="url(#clip850)" style="stroke:#000000; stroke-linecap:butt; stroke-linejoin:round; stroke-width:4; stroke-opacity:1; fill:none" points="
  156.598,1486.45 2352.76,1486.45 
  "/>
<polyline clip-path="url(#clip850)" style="stroke:#000000; stroke-linecap:butt; stroke-linejoin:round; stroke-width:4; stroke-opacity:1; fill:none" points="
  218.754,1486.45 218.754,1467.55 
  "/>
<polyline clip-path="url(#clip850)" style="stroke:#000000; stroke-linecap:butt; stroke-linejoin:round; stroke-width:4; stroke-opacity:1; fill:none" points="
  736.715,1486.45 736.715,1467.55 
  "/>
<polyline clip-path="url(#clip850)" style="stroke:#000000; stroke-linecap:butt; stroke-linejoin:round; stroke-width:4; stroke-opacity:1; fill:none" points="
  1254.68,1486.45 1254.68,1467.55 
  "/>
<polyline clip-path="url(#clip850)" style="stroke:#000000; stroke-linecap:butt; stroke-linejoin:round; stroke-width:4; stroke-opacity:1; fill:none" points="
  1772.64,1486.45 1772.64,1467.55 
  "/>
<polyline clip-path="url(#clip850)" style="stroke:#000000; stroke-linecap:butt; stroke-linejoin:round; stroke-width:4; stroke-opacity:1; fill:none" points="
  2290.6,1486.45 2290.6,1467.55 
  "/>
<path clip-path="url(#clip850)" d="M165.282 1532.02 L194.957 1532.02 L194.957 1535.95 L165.282 1535.95 L165.282 1532.02 Z" fill="#000000" fill-rule="evenodd" fill-opacity="1" /><path clip-path="url(#clip850)" d="M205.86 1544.91 L213.499 1544.91 L213.499 1518.55 L205.189 1520.21 L205.189 1515.95 L213.453 1514.29 L218.129 1514.29 L218.129 1544.91 L225.767 1544.91 L225.767 1548.85 L205.86 1548.85 L205.86 1544.91 Z" fill="#000000" fill-rule="evenodd" fill-opacity="1" /><path clip-path="url(#clip850)" d="M235.212 1542.97 L240.096 1542.97 L240.096 1548.85 L235.212 1548.85 L235.212 1542.97 Z" fill="#000000" fill-rule="evenodd" fill-opacity="1" /><path clip-path="url(#clip850)" d="M260.281 1517.37 Q256.67 1517.37 254.841 1520.93 Q253.036 1524.47 253.036 1531.6 Q253.036 1538.71 254.841 1542.27 Q256.67 1545.82 260.281 1545.82 Q263.915 1545.82 265.721 1542.27 Q267.55 1538.71 267.55 1531.6 Q267.55 1524.47 265.721 1520.93 Q263.915 1517.37 260.281 1517.37 M260.281 1513.66 Q266.091 1513.66 269.147 1518.27 Q272.226 1522.85 272.226 1531.6 Q272.226 1540.33 269.147 1544.94 Q266.091 1549.52 260.281 1549.52 Q254.471 1549.52 251.392 1544.94 Q248.337 1540.33 248.337 1531.6 Q248.337 1522.85 251.392 1518.27 Q254.471 1513.66 260.281 1513.66 Z" fill="#000000" fill-rule="evenodd" fill-opacity="1" /><path clip-path="url(#clip850)" d="M683.741 1532.02 L713.417 1532.02 L713.417 1535.95 L683.741 1535.95 L683.741 1532.02 Z" fill="#000000" fill-rule="evenodd" fill-opacity="1" /><path clip-path="url(#clip850)" d="M733.509 1517.37 Q729.898 1517.37 728.07 1520.93 Q726.264 1524.47 726.264 1531.6 Q726.264 1538.71 728.07 1542.27 Q729.898 1545.82 733.509 1545.82 Q737.144 1545.82 738.949 1542.27 Q740.778 1538.71 740.778 1531.6 Q740.778 1524.47 738.949 1520.93 Q737.144 1517.37 733.509 1517.37 M733.509 1513.66 Q739.32 1513.66 742.375 1518.27 Q745.454 1522.85 745.454 1531.6 Q745.454 1540.33 742.375 1544.94 Q739.32 1549.52 733.509 1549.52 Q727.699 1549.52 724.621 1544.94 Q721.565 1540.33 721.565 1531.6 Q721.565 1522.85 724.621 1518.27 Q727.699 1513.66 733.509 1513.66 Z" fill="#000000" fill-rule="evenodd" fill-opacity="1" /><path clip-path="url(#clip850)" d="M753.671 1542.97 L758.556 1542.97 L758.556 1548.85 L753.671 1548.85 L753.671 1542.97 Z" fill="#000000" fill-rule="evenodd" fill-opacity="1" /><path clip-path="url(#clip850)" d="M768.787 1514.29 L787.143 1514.29 L787.143 1518.22 L773.069 1518.22 L773.069 1526.7 Q774.088 1526.35 775.106 1526.19 Q776.125 1526 777.143 1526 Q782.93 1526 786.31 1529.17 Q789.69 1532.34 789.69 1537.76 Q789.69 1543.34 786.217 1546.44 Q782.745 1549.52 776.426 1549.52 Q774.25 1549.52 771.981 1549.15 Q769.736 1548.78 767.329 1548.04 L767.329 1543.34 Q769.412 1544.47 771.634 1545.03 Q773.856 1545.58 776.333 1545.58 Q780.338 1545.58 782.676 1543.48 Q785.014 1541.37 785.014 1537.76 Q785.014 1534.15 782.676 1532.04 Q780.338 1529.94 776.333 1529.94 Q774.458 1529.94 772.583 1530.35 Q770.731 1530.77 768.787 1531.65 L768.787 1514.29 Z" fill="#000000" fill-rule="evenodd" fill-opacity="1" /><path clip-path="url(#clip850)" d="M1232.06 1517.37 Q1228.45 1517.37 1226.62 1520.93 Q1224.82 1524.47 1224.82 1531.6 Q1224.82 1538.71 1226.62 1542.27 Q1228.45 1545.82 1232.06 1545.82 Q1235.7 1545.82 1237.5 1542.27 Q1239.33 1538.71 1239.33 1531.6 Q1239.33 1524.47 1237.5 1520.93 Q1235.7 1517.37 1232.06 1517.37 M1232.06 1513.66 Q1237.87 1513.66 1240.93 1518.27 Q1244.01 1522.85 1244.01 1531.6 Q1244.01 1540.33 1240.93 1544.94 Q1237.87 1549.52 1232.06 1549.52 Q1226.25 1549.52 1223.17 1544.94 Q1220.12 1540.33 1220.12 1531.6 Q1220.12 1522.85 1223.17 1518.27 Q1226.25 1513.66 1232.06 1513.66 Z" fill="#000000" fill-rule="evenodd" fill-opacity="1" /><path clip-path="url(#clip850)" d="M1252.22 1542.97 L1257.11 1542.97 L1257.11 1548.85 L1252.22 1548.85 L1252.22 1542.97 Z" fill="#000000" fill-rule="evenodd" fill-opacity="1" /><path clip-path="url(#clip850)" d="M1277.29 1517.37 Q1273.68 1517.37 1271.85 1520.93 Q1270.05 1524.47 1270.05 1531.6 Q1270.05 1538.71 1271.85 1542.27 Q1273.68 1545.82 1277.29 1545.82 Q1280.93 1545.82 1282.73 1542.27 Q1284.56 1538.71 1284.56 1531.6 Q1284.56 1524.47 1282.73 1520.93 Q1280.93 1517.37 1277.29 1517.37 M1277.29 1513.66 Q1283.1 1513.66 1286.16 1518.27 Q1289.24 1522.85 1289.24 1531.6 Q1289.24 1540.33 1286.16 1544.94 Q1283.1 1549.52 1277.29 1549.52 Q1271.48 1549.52 1268.4 1544.94 Q1265.35 1540.33 1265.35 1531.6 Q1265.35 1522.85 1268.4 1518.27 Q1271.48 1513.66 1277.29 1513.66 Z" fill="#000000" fill-rule="evenodd" fill-opacity="1" /><path clip-path="url(#clip850)" d="M1750.52 1517.37 Q1746.91 1517.37 1745.08 1520.93 Q1743.28 1524.47 1743.28 1531.6 Q1743.28 1538.71 1745.08 1542.27 Q1746.91 1545.82 1750.52 1545.82 Q1754.16 1545.82 1755.96 1542.27 Q1757.79 1538.71 1757.79 1531.6 Q1757.79 1524.47 1755.96 1520.93 Q1754.16 1517.37 1750.52 1517.37 M1750.52 1513.66 Q1756.33 1513.66 1759.39 1518.27 Q1762.47 1522.85 1762.47 1531.6 Q1762.47 1540.33 1759.39 1544.94 Q1756.33 1549.52 1750.52 1549.52 Q1744.71 1549.52 1741.63 1544.94 Q1738.58 1540.33 1738.58 1531.6 Q1738.58 1522.85 1741.63 1518.27 Q1744.71 1513.66 1750.52 1513.66 Z" fill="#000000" fill-rule="evenodd" fill-opacity="1" /><path clip-path="url(#clip850)" d="M1770.68 1542.97 L1775.57 1542.97 L1775.57 1548.85 L1770.68 1548.85 L1770.68 1542.97 Z" fill="#000000" fill-rule="evenodd" fill-opacity="1" /><path clip-path="url(#clip850)" d="M1785.8 1514.29 L1804.15 1514.29 L1804.15 1518.22 L1790.08 1518.22 L1790.08 1526.7 Q1791.1 1526.35 1792.12 1526.19 Q1793.14 1526 1794.15 1526 Q1799.94 1526 1803.32 1529.17 Q1806.7 1532.34 1806.7 1537.76 Q1806.7 1543.34 1803.23 1546.44 Q1799.76 1549.52 1793.44 1549.52 Q1791.26 1549.52 1788.99 1549.15 Q1786.75 1548.78 1784.34 1548.04 L1784.34 1543.34 Q1786.42 1544.47 1788.65 1545.03 Q1790.87 1545.58 1793.34 1545.58 Q1797.35 1545.58 1799.69 1543.48 Q1802.03 1541.37 1802.03 1537.76 Q1802.03 1534.15 1799.69 1532.04 Q1797.35 1529.94 1793.34 1529.94 Q1791.47 1529.94 1789.59 1530.35 Q1787.74 1530.77 1785.8 1531.65 L1785.8 1514.29 Z" fill="#000000" fill-rule="evenodd" fill-opacity="1" /><path clip-path="url(#clip850)" d="M2257.75 1544.91 L2265.39 1544.91 L2265.39 1518.55 L2257.08 1520.21 L2257.08 1515.95 L2265.35 1514.29 L2270.02 1514.29 L2270.02 1544.91 L2277.66 1544.91 L2277.66 1548.85 L2257.75 1548.85 L2257.75 1544.91 Z" fill="#000000" fill-rule="evenodd" fill-opacity="1" /><path clip-path="url(#clip850)" d="M2287.11 1542.97 L2291.99 1542.97 L2291.99 1548.85 L2287.11 1548.85 L2287.11 1542.97 Z" fill="#000000" fill-rule="evenodd" fill-opacity="1" /><path clip-path="url(#clip850)" d="M2312.17 1517.37 Q2308.56 1517.37 2306.73 1520.93 Q2304.93 1524.47 2304.93 1531.6 Q2304.93 1538.71 2306.73 1542.27 Q2308.56 1545.82 2312.17 1545.82 Q2315.81 1545.82 2317.61 1542.27 Q2319.44 1538.71 2319.44 1531.6 Q2319.44 1524.47 2317.61 1520.93 Q2315.81 1517.37 2312.17 1517.37 M2312.17 1513.66 Q2317.98 1513.66 2321.04 1518.27 Q2324.12 1522.85 2324.12 1531.6 Q2324.12 1540.33 2321.04 1544.94 Q2317.98 1549.52 2312.17 1549.52 Q2306.36 1549.52 2303.29 1544.94 Q2300.23 1540.33 2300.23 1531.6 Q2300.23 1522.85 2303.29 1518.27 Q2306.36 1513.66 2312.17 1513.66 Z" fill="#000000" fill-rule="evenodd" fill-opacity="1" /><polyline clip-path="url(#clip852)" style="stroke:#000000; stroke-linecap:butt; stroke-linejoin:round; stroke-width:2; stroke-opacity:0.1; fill:none" points="
  156.598,1282.79 2352.76,1282.79 
  "/>
<polyline clip-path="url(#clip852)" style="stroke:#000000; stroke-linecap:butt; stroke-linejoin:round; stroke-width:2; stroke-opacity:0.1; fill:none" points="
  156.598,984.084 2352.76,984.084 
  "/>
<polyline clip-path="url(#clip852)" style="stroke:#000000; stroke-linecap:butt; stroke-linejoin:round; stroke-width:2; stroke-opacity:0.1; fill:none" points="
  156.598,685.382 2352.76,685.382 
  "/>
<polyline clip-path="url(#clip852)" style="stroke:#000000; stroke-linecap:butt; stroke-linejoin:round; stroke-width:2; stroke-opacity:0.1; fill:none" points="
  156.598,386.679 2352.76,386.679 
  "/>
<polyline clip-path="url(#clip852)" style="stroke:#000000; stroke-linecap:butt; stroke-linejoin:round; stroke-width:2; stroke-opacity:0.1; fill:none" points="
  156.598,87.9763 2352.76,87.9763 
  "/>
<polyline clip-path="url(#clip850)" style="stroke:#000000; stroke-linecap:butt; stroke-linejoin:round; stroke-width:4; stroke-opacity:1; fill:none" points="
  156.598,1486.45 156.598,47.2441 
  "/>
<polyline clip-path="url(#clip850)" style="stroke:#000000; stroke-linecap:butt; stroke-linejoin:round; stroke-width:4; stroke-opacity:1; fill:none" points="
  156.598,1282.79 175.496,1282.79 
  "/>
<polyline clip-path="url(#clip850)" style="stroke:#000000; stroke-linecap:butt; stroke-linejoin:round; stroke-width:4; stroke-opacity:1; fill:none" points="
  156.598,984.084 175.496,984.084 
  "/>
<polyline clip-path="url(#clip850)" style="stroke:#000000; stroke-linecap:butt; stroke-linejoin:round; stroke-width:4; stroke-opacity:1; fill:none" points="
  156.598,685.382 175.496,685.382 
  "/>
<polyline clip-path="url(#clip850)" style="stroke:#000000; stroke-linecap:butt; stroke-linejoin:round; stroke-width:4; stroke-opacity:1; fill:none" points="
  156.598,386.679 175.496,386.679 
  "/>
<polyline clip-path="url(#clip850)" style="stroke:#000000; stroke-linecap:butt; stroke-linejoin:round; stroke-width:4; stroke-opacity:1; fill:none" points="
  156.598,87.9763 175.496,87.9763 
  "/>
<path clip-path="url(#clip850)" d="M65.0198 1268.59 Q61.4087 1268.59 59.58 1272.15 Q57.7745 1275.69 57.7745 1282.82 Q57.7745 1289.93 59.58 1293.49 Q61.4087 1297.03 65.0198 1297.03 Q68.6541 1297.03 70.4596 1293.49 Q72.2883 1289.93 72.2883 1282.82 Q72.2883 1275.69 70.4596 1272.15 Q68.6541 1268.59 65.0198 1268.59 M65.0198 1264.88 Q70.83 1264.88 73.8855 1269.49 Q76.9642 1274.07 76.9642 1282.82 Q76.9642 1291.55 73.8855 1296.15 Q70.83 1300.74 65.0198 1300.74 Q59.2097 1300.74 56.131 1296.15 Q53.0754 1291.55 53.0754 1282.82 Q53.0754 1274.07 56.131 1269.49 Q59.2097 1264.88 65.0198 1264.88 Z" fill="#000000" fill-rule="evenodd" fill-opacity="1" /><path clip-path="url(#clip850)" d="M85.1818 1294.19 L90.066 1294.19 L90.066 1300.07 L85.1818 1300.07 L85.1818 1294.19 Z" fill="#000000" fill-rule="evenodd" fill-opacity="1" /><path clip-path="url(#clip850)" d="M104.279 1296.13 L120.598 1296.13 L120.598 1300.07 L98.6539 1300.07 L98.6539 1296.13 Q101.316 1293.38 105.899 1288.75 Q110.506 1284.09 111.686 1282.75 Q113.932 1280.23 114.811 1278.49 Q115.714 1276.73 115.714 1275.04 Q115.714 1272.29 113.77 1270.55 Q111.848 1268.82 108.746 1268.82 Q106.547 1268.82 104.094 1269.58 Q101.663 1270.34 98.8854 1271.9 L98.8854 1267.17 Q101.709 1266.04 104.163 1265.46 Q106.617 1264.88 108.654 1264.88 Q114.024 1264.88 117.219 1267.57 Q120.413 1270.25 120.413 1274.74 Q120.413 1276.87 119.603 1278.79 Q118.816 1280.69 116.709 1283.28 Q116.131 1283.96 113.029 1287.17 Q109.927 1290.37 104.279 1296.13 Z" fill="#000000" fill-rule="evenodd" fill-opacity="1" /><path clip-path="url(#clip850)" d="M62.9365 969.883 Q59.3254 969.883 57.4967 973.448 Q55.6912 976.989 55.6912 984.119 Q55.6912 991.225 57.4967 994.79 Q59.3254 998.332 62.9365 998.332 Q66.5707 998.332 68.3763 994.79 Q70.205 991.225 70.205 984.119 Q70.205 976.989 68.3763 973.448 Q66.5707 969.883 62.9365 969.883 M62.9365 966.179 Q68.7467 966.179 71.8022 970.786 Q74.8809 975.369 74.8809 984.119 Q74.8809 992.846 71.8022 997.452 Q68.7467 1002.04 62.9365 1002.04 Q57.1264 1002.04 54.0477 997.452 Q50.9921 992.846 50.9921 984.119 Q50.9921 975.369 54.0477 970.786 Q57.1264 966.179 62.9365 966.179 Z" fill="#000000" fill-rule="evenodd" fill-opacity="1" /><path clip-path="url(#clip850)" d="M83.0984 995.485 L87.9827 995.485 L87.9827 1001.36 L83.0984 1001.36 L83.0984 995.485 Z" fill="#000000" fill-rule="evenodd" fill-opacity="1" /><path clip-path="url(#clip850)" d="M111.015 970.878 L99.2095 989.327 L111.015 989.327 L111.015 970.878 M109.788 966.804 L115.668 966.804 L115.668 989.327 L120.598 989.327 L120.598 993.216 L115.668 993.216 L115.668 1001.36 L111.015 1001.36 L111.015 993.216 L95.4132 993.216 L95.4132 988.702 L109.788 966.804 Z" fill="#000000" fill-rule="evenodd" fill-opacity="1" /><path clip-path="url(#clip850)" d="M63.2606 671.18 Q59.6495 671.18 57.8208 674.745 Q56.0152 678.287 56.0152 685.416 Q56.0152 692.523 57.8208 696.088 Q59.6495 699.629 63.2606 699.629 Q66.8948 699.629 68.7004 696.088 Q70.5291 692.523 70.5291 685.416 Q70.5291 678.287 68.7004 674.745 Q66.8948 671.18 63.2606 671.18 M63.2606 667.477 Q69.0707 667.477 72.1263 672.083 Q75.205 676.666 75.205 685.416 Q75.205 694.143 72.1263 698.75 Q69.0707 703.333 63.2606 703.333 Q57.4504 703.333 54.3717 698.75 Q51.3162 694.143 51.3162 685.416 Q51.3162 676.666 54.3717 672.083 Q57.4504 667.477 63.2606 667.477 Z" fill="#000000" fill-rule="evenodd" fill-opacity="1" /><path clip-path="url(#clip850)" d="M83.4225 696.782 L88.3067 696.782 L88.3067 702.662 L83.4225 702.662 L83.4225 696.782 Z" fill="#000000" fill-rule="evenodd" fill-opacity="1" /><path clip-path="url(#clip850)" d="M109.071 683.518 Q105.922 683.518 104.071 685.671 Q102.242 687.824 102.242 691.574 Q102.242 695.301 104.071 697.476 Q105.922 699.629 109.071 699.629 Q112.219 699.629 114.047 697.476 Q115.899 695.301 115.899 691.574 Q115.899 687.824 114.047 685.671 Q112.219 683.518 109.071 683.518 M118.353 668.866 L118.353 673.125 Q116.594 672.291 114.788 671.852 Q113.006 671.412 111.246 671.412 Q106.617 671.412 104.163 674.537 Q101.733 677.662 101.385 683.981 Q102.751 681.967 104.811 680.902 Q106.871 679.815 109.348 679.815 Q114.557 679.815 117.566 682.986 Q120.598 686.134 120.598 691.574 Q120.598 696.898 117.45 700.115 Q114.302 703.333 109.071 703.333 Q103.075 703.333 99.9039 698.75 Q96.7326 694.143 96.7326 685.416 Q96.7326 677.222 100.621 672.361 Q104.51 667.477 111.061 667.477 Q112.82 667.477 114.603 667.824 Q116.408 668.171 118.353 668.866 Z" fill="#000000" fill-rule="evenodd" fill-opacity="1" /><path clip-path="url(#clip850)" d="M63.5152 372.478 Q59.9041 372.478 58.0754 376.042 Q56.2699 379.584 56.2699 386.714 Q56.2699 393.82 58.0754 397.385 Q59.9041 400.927 63.5152 400.927 Q67.1494 400.927 68.955 397.385 Q70.7837 393.82 70.7837 386.714 Q70.7837 379.584 68.955 376.042 Q67.1494 372.478 63.5152 372.478 M63.5152 368.774 Q69.3254 368.774 72.3809 373.38 Q75.4596 377.964 75.4596 386.714 Q75.4596 395.44 72.3809 400.047 Q69.3254 404.63 63.5152 404.63 Q57.7051 404.63 54.6264 400.047 Q51.5708 395.44 51.5708 386.714 Q51.5708 377.964 54.6264 373.38 Q57.7051 368.774 63.5152 368.774 Z" fill="#000000" fill-rule="evenodd" fill-opacity="1" /><path clip-path="url(#clip850)" d="M83.6771 398.079 L88.5614 398.079 L88.5614 403.959 L83.6771 403.959 L83.6771 398.079 Z" fill="#000000" fill-rule="evenodd" fill-opacity="1" /><path clip-path="url(#clip850)" d="M108.746 387.547 Q105.413 387.547 103.492 389.329 Q101.594 391.112 101.594 394.237 Q101.594 397.362 103.492 399.144 Q105.413 400.927 108.746 400.927 Q112.08 400.927 114.001 399.144 Q115.922 397.339 115.922 394.237 Q115.922 391.112 114.001 389.329 Q112.103 387.547 108.746 387.547 M104.071 385.556 Q101.061 384.816 99.3715 382.755 Q97.7048 380.695 97.7048 377.732 Q97.7048 373.589 100.645 371.181 Q103.608 368.774 108.746 368.774 Q113.908 368.774 116.848 371.181 Q119.788 373.589 119.788 377.732 Q119.788 380.695 118.098 382.755 Q116.432 384.816 113.445 385.556 Q116.825 386.343 118.7 388.635 Q120.598 390.927 120.598 394.237 Q120.598 399.26 117.52 401.945 Q114.464 404.63 108.746 404.63 Q103.029 404.63 99.9502 401.945 Q96.8947 399.26 96.8947 394.237 Q96.8947 390.927 98.7928 388.635 Q100.691 386.343 104.071 385.556 M102.358 378.172 Q102.358 380.857 104.024 382.362 Q105.714 383.866 108.746 383.866 Q111.756 383.866 113.445 382.362 Q115.158 380.857 115.158 378.172 Q115.158 375.487 113.445 373.982 Q111.756 372.478 108.746 372.478 Q105.714 372.478 104.024 373.982 Q102.358 375.487 102.358 378.172 Z" fill="#000000" fill-rule="evenodd" fill-opacity="1" /><path clip-path="url(#clip850)" d="M54.2328 101.321 L61.8717 101.321 L61.8717 74.9555 L53.5616 76.6222 L53.5616 72.3629 L61.8254 70.6963 L66.5013 70.6963 L66.5013 101.321 L74.1402 101.321 L74.1402 105.256 L54.2328 105.256 L54.2328 101.321 Z" fill="#000000" fill-rule="evenodd" fill-opacity="1" /><path clip-path="url(#clip850)" d="M83.5845 99.3767 L88.4688 99.3767 L88.4688 105.256 L83.5845 105.256 L83.5845 99.3767 Z" fill="#000000" fill-rule="evenodd" fill-opacity="1" /><path clip-path="url(#clip850)" d="M108.654 73.775 Q105.043 73.775 103.214 77.3398 Q101.409 80.8814 101.409 88.011 Q101.409 95.1174 103.214 98.6822 Q105.043 102.224 108.654 102.224 Q112.288 102.224 114.094 98.6822 Q115.922 95.1174 115.922 88.011 Q115.922 80.8814 114.094 77.3398 Q112.288 73.775 108.654 73.775 M108.654 70.0713 Q114.464 70.0713 117.52 74.6777 Q120.598 79.261 120.598 88.011 Q120.598 96.7378 117.52 101.344 Q114.464 105.928 108.654 105.928 Q102.844 105.928 99.765 101.344 Q96.7095 96.7378 96.7095 88.011 Q96.7095 79.261 99.765 74.6777 Q102.844 70.0713 108.654 70.0713 Z" fill="#000000" fill-rule="evenodd" fill-opacity="1" /><circle clip-path="url(#clip852)" cx="218.754" cy="1445.72" r="14.4" fill="#009af9" fill-rule="evenodd" fill-opacity="1" stroke="#000000" stroke-opacity="1" stroke-width="3.2"/>
<circle clip-path="url(#clip852)" cx="244.726" cy="1439.32" r="14.4" fill="#009af9" fill-rule="evenodd" fill-opacity="1" stroke="#000000" stroke-opacity="1" stroke-width="3.2"/>
<circle clip-path="url(#clip852)" cx="321.342" cy="1417.68" r="14.4" fill="#009af9" fill-rule="evenodd" fill-opacity="1" stroke="#000000" stroke-opacity="1" stroke-width="3.2"/>
<circle clip-path="url(#clip852)" cx="444.76" cy="1371.51" r="14.4" fill="#009af9" fill-rule="evenodd" fill-opacity="1" stroke="#000000" stroke-opacity="1" stroke-width="3.2"/>
<circle clip-path="url(#clip852)" cx="608.789" cy="1275.9" r="14.4" fill="#009af9" fill-rule="evenodd" fill-opacity="1" stroke="#000000" stroke-opacity="1" stroke-width="3.2"/>
<circle clip-path="url(#clip852)" cx="805.207" cy="1063.37" r="14.4" fill="#009af9" fill-rule="evenodd" fill-opacity="1" stroke="#000000" stroke-opacity="1" stroke-width="3.2"/>
<circle clip-path="url(#clip852)" cx="1024.16" cy="582.588" r="14.4" fill="#009af9" fill-rule="evenodd" fill-opacity="1" stroke="#000000" stroke-opacity="1" stroke-width="3.2"/>
<circle clip-path="url(#clip852)" cx="1254.68" cy="87.9763" r="14.4" fill="#009af9" fill-rule="evenodd" fill-opacity="1" stroke="#000000" stroke-opacity="1" stroke-width="3.2"/>
<circle clip-path="url(#clip852)" cx="1485.19" cy="582.588" r="14.4" fill="#009af9" fill-rule="evenodd" fill-opacity="1" stroke="#000000" stroke-opacity="1" stroke-width="3.2"/>
<circle clip-path="url(#clip852)" cx="1704.15" cy="1063.37" r="14.4" fill="#009af9" fill-rule="evenodd" fill-opacity="1" stroke="#000000" stroke-opacity="1" stroke-width="3.2"/>
<circle clip-path="url(#clip852)" cx="1900.56" cy="1275.9" r="14.4" fill="#009af9" fill-rule="evenodd" fill-opacity="1" stroke="#000000" stroke-opacity="1" stroke-width="3.2"/>
<circle clip-path="url(#clip852)" cx="2064.59" cy="1371.51" r="14.4" fill="#009af9" fill-rule="evenodd" fill-opacity="1" stroke="#000000" stroke-opacity="1" stroke-width="3.2"/>
<circle clip-path="url(#clip852)" cx="2188.01" cy="1417.68" r="14.4" fill="#009af9" fill-rule="evenodd" fill-opacity="1" stroke="#000000" stroke-opacity="1" stroke-width="3.2"/>
<circle clip-path="url(#clip852)" cx="2264.63" cy="1439.32" r="14.4" fill="#009af9" fill-rule="evenodd" fill-opacity="1" stroke="#000000" stroke-opacity="1" stroke-width="3.2"/>
<circle clip-path="url(#clip852)" cx="2290.6" cy="1445.72" r="14.4" fill="#009af9" fill-rule="evenodd" fill-opacity="1" stroke="#000000" stroke-opacity="1" stroke-width="3.2"/>
<polyline clip-path="url(#clip852)" style="stroke:#e26f46; stroke-linecap:butt; stroke-linejoin:round; stroke-width:12; stroke-opacity:1; fill:none" points="
  218.754,1445.72 225.498,1444.09 232.242,1442.45 294.604,1425.74 356.966,1405.98 394.443,1392.33 431.92,1377.12 463.607,1362.87 495.293,1347.16 529.713,1328.25 
  564.133,1307.12 595.866,1285.42 627.598,1261.29 661.618,1232.33 695.639,1199.74 715.347,1178.98 735.055,1156.72 754.763,1132.83 774.471,1107.18 791.985,1082.81 
  809.499,1056.85 827.013,1029.22 844.528,999.808 859.886,972.483 875.244,943.665 890.603,913.301 905.961,881.346 922.706,844.659 939.45,806.024 956.195,765.45 
  972.94,722.982 989.784,678.444 1006.63,632.232 1023.47,584.568 1040.32,535.749 1077.56,425.8 1114.81,318.257 1123.67,293.902 1132.53,270.275 1141.39,247.511 
  1150.25,225.745 1159.11,205.115 1167.97,185.758 1176.83,167.81 1185.69,151.4 1194.9,136.102 1204.11,122.73 1213.33,111.4 1222.54,102.215 1231.75,95.256 
  1240.96,90.5894 1250.17,88.2583 1259.39,88.2849 1267.14,90.1354 1274.9,93.6444 1282.65,98.7884 1290.41,105.533 1298.16,113.836 1305.92,123.642 1313.67,134.889 
  1321.42,147.51 1330.89,164.667 1340.36,183.608 1349.83,204.175 1359.3,226.202 1368.76,249.524 1378.23,273.972 1387.7,299.379 1397.17,325.585 1431.86,425.997 
  1466.55,528.463 1482.57,575.049 1498.59,620.653 1514.61,665.001 1530.63,707.888 1546.86,749.689 1563.09,789.738 1579.31,827.977 1595.54,864.388 1613.73,903.029 
  1631.92,939.425 1650.1,973.644 1668.29,1005.77 1684.77,1033.16 1701.25,1058.99 1717.73,1083.33 1734.21,1106.28 1753.08,1130.93 1771.95,1153.96 1790.82,1175.49 
  1809.69,1195.61 1827.16,1213.08 1844.63,1229.52 1862.1,1244.98 1879.57,1259.53 1914.02,1285.81 1948.47,1309.22 1981.92,1329.56 2015.36,1347.84 2049.65,1364.7 
  2083.94,1379.88 2121.5,1394.84 2159.07,1408.26 2213.64,1425.42 2268.21,1440.22 2279.41,1443.01 2290.6,1445.72 
  "/>
<polyline clip-path="url(#clip852)" style="stroke:#3da44d; stroke-linecap:butt; stroke-linejoin:round; stroke-width:12; stroke-opacity:1; fill:none" points="
  218.754,1445.72 232.242,1441.13 356.966,1400.94 431.92,1375 495.293,1354.99 512.503,1347.21 529.713,1337.94 546.923,1327.06 564.133,1314.61 579.999,1301.83 
  595.866,1287.93 611.732,1273.09 627.598,1257.51 661.618,1222.47 695.639,1186.43 735.055,1144.19 774.471,1100.43 791.985,1079.76 809.499,1057.87 827.013,1034.35 
  844.528,1008.83 859.886,984.496 875.244,958.105 890.603,929.465 905.961,898.434 922.706,861.775 939.45,822.144 956.195,779.616 972.94,734.368 989.784,686.393 
  1006.63,636.348 1023.47,584.728 1040.32,532.12 1058.94,473.608 1077.56,415.69 1096.19,359.417 1114.81,305.872 1123.67,281.67 1132.53,258.443 1141.39,236.304 
  1150.25,215.359 1159.11,195.711 1167.97,177.458 1176.83,160.691 1185.69,145.496 1194.9,131.446 1204.11,119.256 1213.33,108.996 1222.54,100.721 1231.75,94.4805 
  1240.96,90.3081 1250.17,88.2278 1259.39,88.2515 1267.14,89.9028 1274.9,93.0384 1282.65,97.6457 1290.41,103.706 1298.16,111.196 1305.92,120.084 1313.67,130.337 
  1321.42,141.912 1330.89,157.771 1340.36,175.441 1349.83,194.82 1359.3,215.797 1368.76,238.252 1378.23,262.061 1387.7,287.09 1397.17,313.205 1414.51,363.402 
  1431.86,415.896 1449.2,469.814 1466.55,524.304 1482.57,574.442 1498.59,623.798 1514.61,671.852 1530.63,718.155 1546.86,762.897 1563.09,805.172 1579.31,844.781 
  1595.54,881.617 1613.73,919.587 1631.92,954.157 1650.1,985.542 1668.29,1014.05 1684.77,1037.73 1701.25,1059.67 1717.73,1080.2 1734.21,1099.65 1809.69,1182.14 
  1879.57,1255.32 1896.8,1272.3 1914.02,1288.41 1931.25,1303.41 1948.47,1317.08 1965.19,1328.92 1981.92,1339.25 1998.64,1348.09 2015.36,1355.52 2049.65,1367.29 
  2083.94,1376.78 2121.5,1388.45 2159.07,1403.98 2186.35,1416.91 2213.64,1428.6 2240.92,1436.22 2268.21,1439.73 2273.81,1440.52 2279.41,1441.64 2285,1443.28 
  2290.6,1445.72 
  "/>
<path clip-path="url(#clip850)" d="
M1982.52 302.578 L2279.55 302.578 L2279.55 95.2176 L1982.52 95.2176  Z
  " fill="#ffffff" fill-rule="evenodd" fill-opacity="1"/>
<polyline clip-path="url(#clip850)" style="stroke:#000000; stroke-linecap:butt; stroke-linejoin:round; stroke-width:4; stroke-opacity:1; fill:none" points="
  1982.52,302.578 2279.55,302.578 2279.55,95.2176 1982.52,95.2176 1982.52,302.578 
  "/>
<circle clip-path="url(#clip850)" cx="2080.13" cy="147.058" r="23.04" fill="#009af9" fill-rule="evenodd" fill-opacity="1" stroke="#000000" stroke-opacity="1" stroke-width="5.12"/>
<path clip-path="url(#clip850)" d="M2191.58 166.745 Q2189.78 171.375 2188.06 172.787 Q2186.35 174.199 2183.48 174.199 L2180.08 174.199 L2180.08 170.634 L2182.58 170.634 Q2184.34 170.634 2185.31 169.8 Q2186.28 168.967 2187.46 165.865 L2188.22 163.921 L2177.74 138.412 L2182.25 138.412 L2190.35 158.689 L2198.46 138.412 L2202.97 138.412 L2191.58 166.745 Z" fill="#000000" fill-rule="evenodd" fill-opacity="1" /><path clip-path="url(#clip850)" d="M2210.26 160.402 L2217.9 160.402 L2217.9 134.037 L2209.59 135.703 L2209.59 131.444 L2217.85 129.778 L2222.53 129.778 L2222.53 160.402 L2230.17 160.402 L2230.17 164.338 L2210.26 164.338 L2210.26 160.402 Z" fill="#000000" fill-rule="evenodd" fill-opacity="1" /><polyline clip-path="url(#clip850)" style="stroke:#e26f46; stroke-linecap:butt; stroke-linejoin:round; stroke-width:4; stroke-opacity:1; fill:none" points="
  2006.93,198.898 2153.34,198.898 
  "/>
<path clip-path="url(#clip850)" d="M2191.58 218.585 Q2189.78 223.215 2188.06 224.627 Q2186.35 226.039 2183.48 226.039 L2180.08 226.039 L2180.08 222.474 L2182.58 222.474 Q2184.34 222.474 2185.31 221.64 Q2186.28 220.807 2187.46 217.705 L2188.22 215.761 L2177.74 190.252 L2182.25 190.252 L2190.35 210.529 L2198.46 190.252 L2202.97 190.252 L2191.58 218.585 Z" fill="#000000" fill-rule="evenodd" fill-opacity="1" /><path clip-path="url(#clip850)" d="M2213.48 212.242 L2229.8 212.242 L2229.8 216.178 L2207.85 216.178 L2207.85 212.242 Q2210.52 209.488 2215.1 204.858 Q2219.71 200.205 2220.89 198.863 Q2223.13 196.34 2224.01 194.604 Q2224.91 192.844 2224.91 191.155 Q2224.91 188.4 2222.97 186.664 Q2221.05 184.928 2217.95 184.928 Q2215.75 184.928 2213.29 185.692 Q2210.86 186.455 2208.09 188.006 L2208.09 183.284 Q2210.91 182.15 2213.36 181.571 Q2215.82 180.993 2217.85 180.993 Q2223.22 180.993 2226.42 183.678 Q2229.61 186.363 2229.61 190.854 Q2229.61 192.983 2228.8 194.905 Q2228.02 196.803 2225.91 199.395 Q2225.33 200.067 2222.23 203.284 Q2219.13 206.479 2213.48 212.242 Z" fill="#000000" fill-rule="evenodd" fill-opacity="1" /><polyline clip-path="url(#clip850)" style="stroke:#3da44d; stroke-linecap:butt; stroke-linejoin:round; stroke-width:4; stroke-opacity:1; fill:none" points="
  2006.93,250.738 2153.34,250.738 
  "/>
<path clip-path="url(#clip850)" d="M2191.58 270.425 Q2189.78 275.055 2188.06 276.467 Q2186.35 277.879 2183.48 277.879 L2180.08 277.879 L2180.08 274.314 L2182.58 274.314 Q2184.34 274.314 2185.31 273.48 Q2186.28 272.647 2187.46 269.545 L2188.22 267.601 L2177.74 242.092 L2182.25 242.092 L2190.35 262.369 L2198.46 242.092 L2202.97 242.092 L2191.58 270.425 Z" fill="#000000" fill-rule="evenodd" fill-opacity="1" /><path clip-path="url(#clip850)" d="M2223.62 249.383 Q2226.97 250.101 2228.85 252.369 Q2230.75 254.638 2230.75 257.971 Q2230.75 263.087 2227.23 265.888 Q2223.71 268.689 2217.23 268.689 Q2215.05 268.689 2212.74 268.249 Q2210.45 267.832 2207.99 266.976 L2207.99 262.462 Q2209.94 263.596 2212.25 264.175 Q2214.57 264.754 2217.09 264.754 Q2221.49 264.754 2223.78 263.018 Q2226.09 261.281 2226.09 257.971 Q2226.09 254.916 2223.94 253.203 Q2221.81 251.467 2217.99 251.467 L2213.96 251.467 L2213.96 247.624 L2218.18 247.624 Q2221.63 247.624 2223.46 246.258 Q2225.28 244.87 2225.28 242.277 Q2225.28 239.615 2223.39 238.203 Q2221.51 236.768 2217.99 236.768 Q2216.07 236.768 2213.87 237.184 Q2211.67 237.601 2209.03 238.481 L2209.03 234.314 Q2211.7 233.573 2214.01 233.203 Q2216.35 232.833 2218.41 232.833 Q2223.73 232.833 2226.84 235.263 Q2229.94 237.67 2229.94 241.791 Q2229.94 244.661 2228.29 246.652 Q2226.65 248.62 2223.62 249.383 Z" fill="#000000" fill-rule="evenodd" fill-opacity="1" /></svg>
