<?xml version="1.0" encoding="utf-8"?>
<svg xmlns="http://www.w3.org/2000/svg" xmlns:xlink="http://www.w3.org/1999/xlink" width="600" height="400" viewBox="0 0 2400 1600">
<defs>
  <clipPath id="clip100">
    <rect x="0" y="0" width="2400" height="1600"/>
  </clipPath>
</defs>
<path clip-path="url(#clip100)" d="
M0 1600 L2400 1600 L2400 0 L0 0  Z
  " fill="#ffffff" fill-rule="evenodd" fill-opacity="1"/>
<defs>
  <clipPath id="clip101">
    <rect x="480" y="0" width="1681" height="1600"/>
  </clipPath>
</defs>
<path clip-path="url(#clip100)" d="
M251.071 1410.9 L2352.76 1410.9 L2352.76 47.2441 L251.071 47.2441  Z
  " fill="#ffffff" fill-rule="evenodd" fill-opacity="1"/>
<defs>
  <clipPath id="clip102">
    <rect x="251" y="47" width="2103" height="1365"/>
  </clipPath>
</defs>
<polyline clip-path="url(#clip102)" style="stroke:#000000; stroke-linecap:butt; stroke-linejoin:round; stroke-width:2; stroke-opacity:0.1; fill:none" points="
  310.553,1410.9 310.553,47.2441 
  "/>
<polyline clip-path="url(#clip102)" style="stroke:#000000; stroke-linecap:butt; stroke-linejoin:round; stroke-width:2; stroke-opacity:0.1; fill:none" points="
  1668.67,1410.9 1668.67,47.2441 
  "/>
<polyline clip-path="url(#clip100)" style="stroke:#000000; stroke-linecap:butt; stroke-linejoin:round; stroke-width:4; stroke-opacity:1; fill:none" points="
  251.071,1410.9 2352.76,1410.9 
  "/>
<polyline clip-path="url(#clip100)" style="stroke:#000000; stroke-linecap:butt; stroke-linejoin:round; stroke-width:4; stroke-opacity:1; fill:none" points="
  310.553,1410.9 310.553,1392 
  "/>
<polyline clip-path="url(#clip100)" style="stroke:#000000; stroke-linecap:butt; stroke-linejoin:round; stroke-width:4; stroke-opacity:1; fill:none" points="
  1668.67,1410.9 1668.67,1392 
  "/>
<path clip-path="url(#clip100)" d="M275.536 1485.02 L283.175 1485.02 L283.175 1458.66 L274.864 1460.32 L274.864 1456.06 L283.128 1454.4 L287.804 1454.4 L287.804 1485.02 L295.443 1485.02 L295.443 1488.96 L275.536 1488.96 L275.536 1485.02 Z" fill="#000000" fill-rule="evenodd" fill-opacity="1" /><path clip-path="url(#clip100)" d="M314.887 1457.48 Q311.276 1457.48 309.448 1461.04 Q307.642 1464.58 307.642 1471.71 Q307.642 1478.82 309.448 1482.38 Q311.276 1485.92 314.887 1485.92 Q318.522 1485.92 320.327 1482.38 Q322.156 1478.82 322.156 1471.71 Q322.156 1464.58 320.327 1461.04 Q318.522 1457.48 314.887 1457.48 M314.887 1453.77 Q320.698 1453.77 323.753 1458.38 Q326.832 1462.96 326.832 1471.71 Q326.832 1480.44 323.753 1485.04 Q320.698 1489.63 314.887 1489.63 Q309.077 1489.63 305.999 1485.04 Q302.943 1480.44 302.943 1471.71 Q302.943 1462.96 305.999 1458.38 Q309.077 1453.77 314.887 1453.77 Z" fill="#000000" fill-rule="evenodd" fill-opacity="1" /><path clip-path="url(#clip100)" d="M336.537 1435.97 Q333.603 1435.97 332.117 1438.86 Q330.65 1441.74 330.65 1447.53 Q330.65 1453.31 332.117 1456.2 Q333.603 1459.08 336.537 1459.08 Q339.489 1459.08 340.956 1456.2 Q342.442 1453.31 342.442 1447.53 Q342.442 1441.74 340.956 1438.86 Q339.489 1435.97 336.537 1435.97 M336.537 1432.96 Q341.257 1432.96 343.74 1436.7 Q346.241 1440.43 346.241 1447.53 Q346.241 1454.62 343.74 1458.37 Q341.257 1462.09 336.537 1462.09 Q331.816 1462.09 329.314 1458.37 Q326.832 1454.62 326.832 1447.53 Q326.832 1440.43 329.314 1436.7 Q331.816 1432.96 336.537 1432.96 Z" fill="#000000" fill-rule="evenodd" fill-opacity="1" /><path clip-path="url(#clip100)" d="M1634.27 1485.02 L1641.91 1485.02 L1641.91 1458.66 L1633.6 1460.32 L1633.6 1456.06 L1641.86 1454.4 L1646.54 1454.4 L1646.54 1485.02 L1654.18 1485.02 L1654.18 1488.96 L1634.27 1488.96 L1634.27 1485.02 Z" fill="#000000" fill-rule="evenodd" fill-opacity="1" /><path clip-path="url(#clip100)" d="M1673.62 1457.48 Q1670.01 1457.48 1668.18 1461.04 Q1666.38 1464.58 1666.38 1471.71 Q1666.38 1478.82 1668.18 1482.38 Q1670.01 1485.92 1673.62 1485.92 Q1677.26 1485.92 1679.06 1482.38 Q1680.89 1478.82 1680.89 1471.71 Q1680.89 1464.58 1679.06 1461.04 Q1677.26 1457.48 1673.62 1457.48 M1673.62 1453.77 Q1679.43 1453.77 1682.49 1458.38 Q1685.57 1462.96 1685.57 1471.71 Q1685.57 1480.44 1682.49 1485.04 Q1679.43 1489.63 1673.62 1489.63 Q1667.81 1489.63 1664.73 1485.04 Q1661.68 1480.44 1661.68 1471.71 Q1661.68 1462.96 1664.73 1458.38 Q1667.81 1453.77 1673.62 1453.77 Z" fill="#000000" fill-rule="evenodd" fill-opacity="1" /><path clip-path="url(#clip100)" d="M1686.75 1433.47 L1701.67 1433.47 L1701.67 1436.66 L1690.23 1436.66 L1690.23 1443.55 Q1691.06 1443.27 1691.89 1443.13 Q1692.71 1442.98 1693.54 1442.98 Q1698.24 1442.98 1700.99 1445.56 Q1703.73 1448.14 1703.73 1452.54 Q1703.73 1457.07 1700.91 1459.59 Q1698.09 1462.09 1692.96 1462.09 Q1691.19 1462.09 1689.35 1461.79 Q1687.52 1461.49 1685.57 1460.89 L1685.57 1457.07 Q1687.26 1457.99 1689.06 1458.44 Q1690.87 1458.89 1692.88 1458.89 Q1696.14 1458.89 1698.04 1457.18 Q1699.94 1455.47 1699.94 1452.54 Q1699.94 1449.6 1698.04 1447.89 Q1696.14 1446.18 1692.88 1446.18 Q1691.36 1446.18 1689.84 1446.52 Q1688.33 1446.86 1686.75 1447.57 L1686.75 1433.47 Z" fill="#000000" fill-rule="evenodd" fill-opacity="1" /><path clip-path="url(#clip100)" d="M1270.39 1530.33 L1270.39 1537.11 Q1267.14 1534.08 1263.45 1532.59 Q1259.79 1531.09 1255.65 1531.09 Q1247.5 1531.09 1243.17 1536.09 Q1238.85 1541.05 1238.85 1550.47 Q1238.85 1559.86 1243.17 1564.86 Q1247.5 1569.82 1255.65 1569.82 Q1259.79 1569.82 1263.45 1568.33 Q1267.14 1566.83 1270.39 1563.81 L1270.39 1570.53 Q1267.01 1572.82 1263.23 1573.96 Q1259.47 1575.11 1255.27 1575.11 Q1244.48 1575.11 1238.27 1568.52 Q1232.07 1561.9 1232.07 1550.47 Q1232.07 1539.01 1238.27 1532.43 Q1244.48 1525.81 1255.27 1525.81 Q1259.53 1525.81 1263.29 1526.95 Q1267.08 1528.07 1270.39 1530.33 Z" fill="#000000" fill-rule="evenodd" fill-opacity="1" /><path clip-path="url(#clip100)" d="M1293.88 1542.64 Q1289.17 1542.64 1286.43 1546.34 Q1283.69 1550 1283.69 1556.39 Q1283.69 1562.79 1286.4 1566.48 Q1289.13 1570.14 1293.88 1570.14 Q1298.56 1570.14 1301.29 1566.45 Q1304.03 1562.76 1304.03 1556.39 Q1304.03 1550.06 1301.29 1546.37 Q1298.56 1542.64 1293.88 1542.64 M1293.88 1537.68 Q1301.52 1537.68 1305.88 1542.64 Q1310.24 1547.61 1310.24 1556.39 Q1310.24 1565.15 1305.88 1570.14 Q1301.52 1575.11 1293.88 1575.11 Q1286.21 1575.11 1281.85 1570.14 Q1277.52 1565.15 1277.52 1556.39 Q1277.52 1547.61 1281.85 1542.64 Q1286.21 1537.68 1293.88 1537.68 Z" fill="#000000" fill-rule="evenodd" fill-opacity="1" /><path clip-path="url(#clip100)" d="M1342.67 1539.59 L1342.67 1545.13 Q1340.19 1543.85 1337.51 1543.22 Q1334.84 1542.58 1331.98 1542.58 Q1327.62 1542.58 1325.42 1543.92 Q1323.25 1545.25 1323.25 1547.93 Q1323.25 1549.96 1324.81 1551.14 Q1326.37 1552.29 1331.08 1553.34 L1333.09 1553.78 Q1339.33 1555.12 1341.94 1557.57 Q1344.58 1559.99 1344.58 1564.35 Q1344.58 1569.32 1340.63 1572.21 Q1336.72 1575.11 1329.84 1575.11 Q1326.98 1575.11 1323.86 1574.54 Q1320.77 1573.99 1317.33 1572.88 L1317.33 1566.83 Q1320.58 1568.52 1323.73 1569.38 Q1326.88 1570.21 1329.97 1570.21 Q1334.11 1570.21 1336.34 1568.81 Q1338.56 1567.37 1338.56 1564.8 Q1338.56 1562.41 1336.94 1561.14 Q1335.35 1559.86 1329.91 1558.68 L1327.87 1558.21 Q1322.43 1557.06 1320.01 1554.71 Q1317.59 1552.32 1317.59 1548.18 Q1317.59 1543.15 1321.15 1540.42 Q1324.72 1537.68 1331.28 1537.68 Q1334.52 1537.68 1337.39 1538.16 Q1340.25 1538.63 1342.67 1539.59 Z" fill="#000000" fill-rule="evenodd" fill-opacity="1" /><path clip-path="url(#clip100)" d="M1359.7 1528.42 L1359.7 1538.54 L1371.76 1538.54 L1371.76 1543.09 L1359.7 1543.09 L1359.7 1562.44 Q1359.7 1566.8 1360.88 1568.04 Q1362.09 1569.28 1365.75 1569.28 L1371.76 1569.28 L1371.76 1574.19 L1365.75 1574.19 Q1358.97 1574.19 1356.39 1571.67 Q1353.81 1569.12 1353.81 1562.44 L1353.81 1543.09 L1349.51 1543.09 L1349.51 1538.54 L1353.81 1538.54 L1353.81 1528.42 L1359.7 1528.42 Z" fill="#000000" fill-rule="evenodd" fill-opacity="1" /><polyline clip-path="url(#clip102)" style="stroke:#000000; stroke-linecap:butt; stroke-linejoin:round; stroke-width:2; stroke-opacity:0.1; fill:none" points="
  251.071,943.481 2352.76,943.481 
  "/>
<polyline clip-path="url(#clip102)" style="stroke:#000000; stroke-linecap:butt; stroke-linejoin:round; stroke-width:2; stroke-opacity:0.1; fill:none" points="
  251.071,85.838 2352.76,85.838 
  "/>
<polyline clip-path="url(#clip100)" style="stroke:#000000; stroke-linecap:butt; stroke-linejoin:round; stroke-width:4; stroke-opacity:1; fill:none" points="
  251.071,1410.9 251.071,47.2441 
  "/>
<polyline clip-path="url(#clip100)" style="stroke:#000000; stroke-linecap:butt; stroke-linejoin:round; stroke-width:4; stroke-opacity:1; fill:none" points="
  251.071,943.481 269.969,943.481 
  "/>
<polyline clip-path="url(#clip100)" style="stroke:#000000; stroke-linecap:butt; stroke-linejoin:round; stroke-width:4; stroke-opacity:1; fill:none" points="
  251.071,85.838 269.969,85.838 
  "/>
<path clip-path="url(#clip100)" d="M114.931 963.274 L122.57 963.274 L122.57 936.908 L114.26 938.575 L114.26 934.315 L122.524 932.649 L127.2 932.649 L127.2 963.274 L134.839 963.274 L134.839 967.209 L114.931 967.209 L114.931 963.274 Z" fill="#000000" fill-rule="evenodd" fill-opacity="1" /><path clip-path="url(#clip100)" d="M154.283 935.727 Q150.672 935.727 148.843 939.292 Q147.038 942.834 147.038 949.963 Q147.038 957.07 148.843 960.635 Q150.672 964.176 154.283 964.176 Q157.917 964.176 159.723 960.635 Q161.552 957.07 161.552 949.963 Q161.552 942.834 159.723 939.292 Q157.917 935.727 154.283 935.727 M154.283 932.024 Q160.093 932.024 163.149 936.63 Q166.227 941.214 166.227 949.963 Q166.227 958.69 163.149 963.297 Q160.093 967.88 154.283 967.88 Q148.473 967.88 145.394 963.297 Q142.339 958.69 142.339 949.963 Q142.339 941.214 145.394 936.63 Q148.473 932.024 154.283 932.024 Z" fill="#000000" fill-rule="evenodd" fill-opacity="1" /><path clip-path="url(#clip100)" d="M166.227 926.125 L190.339 926.125 L190.339 929.322 L166.227 929.322 L166.227 926.125 Z" fill="#000000" fill-rule="evenodd" fill-opacity="1" /><path clip-path="url(#clip100)" d="M201.812 936.601 L215.071 936.601 L215.071 939.798 L197.241 939.798 L197.241 936.601 Q199.404 934.363 203.128 930.601 Q206.871 926.821 207.83 925.73 Q209.655 923.68 210.369 922.27 Q211.103 920.84 211.103 919.467 Q211.103 917.229 209.523 915.818 Q207.962 914.408 205.442 914.408 Q203.655 914.408 201.661 915.029 Q199.686 915.649 197.43 916.909 L197.43 913.073 Q199.724 912.151 201.718 911.681 Q203.711 911.211 205.366 911.211 Q209.73 911.211 212.325 913.392 Q214.921 915.574 214.921 919.223 Q214.921 920.953 214.263 922.514 Q213.623 924.056 211.912 926.163 Q211.441 926.708 208.921 929.322 Q206.401 931.918 201.812 936.601 Z" fill="#000000" fill-rule="evenodd" fill-opacity="1" /><path clip-path="url(#clip100)" d="M144.366 105.63 L152.004 105.63 L152.004 79.2649 L143.694 80.9315 L143.694 76.6723 L151.958 75.0056 L156.634 75.0056 L156.634 105.63 L164.273 105.63 L164.273 109.566 L144.366 109.566 L144.366 105.63 Z" fill="#000000" fill-rule="evenodd" fill-opacity="1" /><path clip-path="url(#clip100)" d="M183.717 78.0843 Q180.106 78.0843 178.277 81.6491 Q176.472 85.1908 176.472 92.3204 Q176.472 99.4268 178.277 102.992 Q180.106 106.533 183.717 106.533 Q187.351 106.533 189.157 102.992 Q190.986 99.4268 190.986 92.3204 Q190.986 85.1908 189.157 81.6491 Q187.351 78.0843 183.717 78.0843 M183.717 74.3806 Q189.527 74.3806 192.583 78.9871 Q195.662 83.5704 195.662 92.3204 Q195.662 101.047 192.583 105.654 Q189.527 110.237 183.717 110.237 Q177.907 110.237 174.828 105.654 Q171.773 101.047 171.773 92.3204 Q171.773 83.5704 174.828 78.9871 Q177.907 74.3806 183.717 74.3806 Z" fill="#000000" fill-rule="evenodd" fill-opacity="1" /><path clip-path="url(#clip100)" d="M205.366 56.5767 Q202.432 56.5767 200.947 59.4731 Q199.48 62.3507 199.48 68.1434 Q199.48 73.9174 200.947 76.8138 Q202.432 79.6914 205.366 79.6914 Q208.319 79.6914 209.786 76.8138 Q211.272 73.9174 211.272 68.1434 Q211.272 62.3507 209.786 59.4731 Q208.319 56.5767 205.366 56.5767 M205.366 53.5674 Q210.087 53.5674 212.57 57.3102 Q215.071 61.0341 215.071 68.1434 Q215.071 75.234 212.57 78.9767 Q210.087 82.7007 205.366 82.7007 Q200.646 82.7007 198.144 78.9767 Q195.662 75.234 195.662 68.1434 Q195.662 61.0341 198.144 57.3102 Q200.646 53.5674 205.366 53.5674 Z" fill="#000000" fill-rule="evenodd" fill-opacity="1" /><path clip-path="url(#clip100)" d="M16.4842 805.316 L16.4842 775.269 L21.895 775.269 L21.895 798.886 L35.9632 798.886 L35.9632 776.256 L41.3741 776.256 L41.3741 798.886 L58.5933 798.886 L58.5933 774.697 L64.0042 774.697 L64.0042 805.316 L16.4842 805.316 Z" fill="#000000" fill-rule="evenodd" fill-opacity="1" /><path clip-path="url(#clip100)" d="M33.8307 743.727 Q33.2578 744.714 33.0032 745.892 Q32.7167 747.038 32.7167 748.438 Q32.7167 753.403 35.9632 756.077 Q39.1779 758.719 45.2253 758.719 L64.0042 758.719 L64.0042 764.607 L28.3562 764.607 L28.3562 758.719 L33.8944 758.719 Q30.6479 756.873 29.0883 753.913 Q27.4968 750.952 27.4968 746.719 Q27.4968 746.115 27.5923 745.382 Q27.656 744.65 27.8151 743.759 L33.8307 743.727 Z" fill="#000000" fill-rule="evenodd" fill-opacity="1" /><path clip-path="url(#clip100)" d="M33.8307 718.074 Q33.2578 719.06 33.0032 720.238 Q32.7167 721.384 32.7167 722.784 Q32.7167 727.749 35.9632 730.423 Q39.1779 733.065 45.2253 733.065 L64.0042 733.065 L64.0042 738.953 L28.3562 738.953 L28.3562 733.065 L33.8944 733.065 Q30.6479 731.219 29.0883 728.259 Q27.4968 725.299 27.4968 721.065 Q27.4968 720.461 27.5923 719.729 Q27.656 718.997 27.8151 718.105 L33.8307 718.074 Z" fill="#000000" fill-rule="evenodd" fill-opacity="1" /><path clip-path="url(#clip100)" d="M32.4621 699.549 Q32.4621 704.26 36.1542 706.997 Q39.8145 709.735 46.212 709.735 Q52.6095 709.735 56.3017 707.029 Q59.9619 704.292 59.9619 699.549 Q59.9619 694.871 56.2698 692.133 Q52.5777 689.396 46.212 689.396 Q39.8781 689.396 36.186 692.133 Q32.4621 694.871 32.4621 699.549 M27.4968 699.549 Q27.4968 691.911 32.4621 687.55 Q37.4273 683.19 46.212 683.19 Q54.9649 683.19 59.9619 687.55 Q64.9272 691.911 64.9272 699.549 Q64.9272 707.22 59.9619 711.581 Q54.9649 715.909 46.212 715.909 Q37.4273 715.909 32.4621 711.581 Q27.4968 707.22 27.4968 699.549 Z" fill="#000000" fill-rule="evenodd" fill-opacity="1" /><path clip-path="url(#clip100)" d="M33.8307 652.825 Q33.2578 653.812 33.0032 654.989 Q32.7167 656.135 32.7167 657.536 Q32.7167 662.501 35.9632 665.175 Q39.1779 667.816 45.2253 667.816 L64.0042 667.816 L64.0042 673.705 L28.3562 673.705 L28.3562 667.816 L33.8944 667.816 Q30.6479 665.97 29.0883 663.01 Q27.4968 660.05 27.4968 655.817 Q27.4968 655.212 27.5923 654.48 Q27.656 653.748 27.8151 652.857 L33.8307 652.825 Z" fill="#000000" fill-rule="evenodd" fill-opacity="1" /><polyline clip-path="url(#clip102)" style="stroke:#009af9; stroke-linecap:butt; stroke-linejoin:round; stroke-width:4; stroke-opacity:1; fill:none" points="
  1940.29,1372.3 1797.39,1221.9 1695.88,1115.06 1617.09,1032.14 1552.69,964.353 1498.22,907.026 1451.03,857.357 1409.39,813.538 1372.15,774.336 1338.45,738.87 
  1307.68,706.49 1279.38,676.7 1253.17,649.118 1228.77,623.438 1205.95,599.415 1184.51,576.848 1164.29,555.571 1145.17,535.443 1127.03,516.348 1109.77,498.184 
  1093.31,480.865 1077.59,464.315 1062.53,448.47 1048.09,433.271 1034.22,418.669 1020.87,404.617 1008,391.076 995.587,378.01 983.594,365.387 971.993,353.178 
  960.761,341.356 949.875,329.898 939.313,318.782 929.058,307.989 919.091,297.499 909.398,287.296 899.962,277.366 890.772,267.693 881.815,258.266 873.078,249.071 
  864.553,240.097 856.227,231.335 848.093,222.774 840.142,214.406 832.366,206.221 824.756,198.212 817.307,190.372 810.012,182.694 802.864,175.17 795.857,167.796 
  788.987,160.565 782.247,153.471 775.633,146.51 769.141,139.677 762.765,132.967 756.503,126.375 750.349,119.899 744.3,113.533 738.353,107.274 732.505,101.118 
  726.751,95.0624 721.09,89.1037 715.517,85.838 710.031,85.838 704.629,85.838 699.308,85.838 694.066,85.838 688.9,85.838 683.809,85.838 678.79,85.838 
  673.841,85.838 668.96,85.838 664.146,85.838 659.396,85.838 654.71,85.838 650.084,85.838 645.518,85.838 641.011,85.838 636.56,85.838 632.164,85.838 
  627.822,85.838 623.533,85.838 619.295,85.838 615.108,85.838 610.969,85.838 606.878,85.838 602.834,85.838 598.836,85.838 594.882,85.838 590.972,85.838 
  587.105,85.838 583.279,85.838 579.495,85.838 575.75,85.838 572.045,85.838 568.378,85.838 564.749,85.838 561.156,85.838 557.6,85.838 554.079,85.838 
  550.592,85.838 547.14,85.838 543.721,85.838 540.335,85.838 536.981,85.838 533.658,85.838 530.366,85.838 527.105,85.838 523.873,85.838 520.671,85.838 
  517.497,85.838 514.352,85.838 511.234,85.838 508.144,85.838 505.08,85.838 502.042,85.838 499.031,85.838 496.045,85.838 493.083,85.838 490.147,85.838 
  487.234,85.838 484.346,85.838 481.48,85.838 478.638,85.838 475.818,85.838 473.021,85.838 470.246,85.838 467.492,85.838 464.759,85.838 462.048,85.838 
  459.357,85.838 456.686,85.838 454.035,85.838 451.404,85.838 448.793,85.838 446.2,85.838 443.627,85.838 441.072,85.838 438.535,85.838 436.016,85.838 
  433.515,85.838 431.032,85.838 428.566,85.838 426.117,85.838 423.685,85.838 421.27,85.838 418.87,85.838 416.488,85.838 414.121,85.838 411.769,85.838 
  409.433,85.838 407.113,85.838 404.808,85.838 402.517,85.838 400.241,85.838 397.98,85.838 395.734,85.838 393.501,85.838 391.282,85.838 389.077,85.838 
  386.886,85.838 384.709,85.838 382.544,85.838 380.393,85.838 378.255,85.838 376.13,85.838 374.017,85.838 371.917,85.838 369.829,85.838 367.753,85.838 
  365.69,85.838 363.639,85.838 361.599,85.838 359.571,85.838 357.555,85.838 355.55,85.838 353.556,85.838 351.574,85.838 349.602,85.838 347.642,85.838 
  345.692,85.838 343.753,85.838 341.824,85.838 339.906,85.838 337.999,85.838 336.101,85.838 334.214,85.838 332.337,85.838 330.469,85.838 328.612,85.838 
  326.764,85.838 324.925,85.838 323.097,85.838 321.277,85.838 319.467,85.838 317.666,85.838 315.874,85.838 314.092,85.838 312.318,85.838 310.553,85.838 
  
  "/>
<polyline clip-path="url(#clip102)" style="stroke:#e26f46; stroke-linecap:butt; stroke-linejoin:round; stroke-width:4; stroke-opacity:1; fill:none" points="
  2293.27,1372.3 2139.55,1221.9 2029.7,1115.06 1944,1032.14 1873.63,964.353 1813.88,907.026 1761.9,857.357 1715.88,813.538 1674.57,774.336 1637.07,738.87 
  1602.72,706.49 1571.02,676.7 1541.58,649.118 1514.09,623.438 1488.29,599.415 1463.99,576.848 1441.02,555.571 1419.23,535.443 1398.49,516.348 1378.72,498.184 
  1359.81,480.865 1341.7,464.315 1324.31,448.47 1307.58,433.271 1291.48,418.669 1275.93,404.617 1260.92,391.076 1246.39,378.01 1232.32,365.387 1218.68,353.178 
  1205.44,341.356 1192.57,329.898 1180.05,318.782 1167.87,307.989 1156,297.499 1144.42,287.296 1133.13,277.366 1122.1,267.693 1111.33,258.266 1100.79,249.071 
  1090.48,240.097 1080.39,231.335 1070.51,222.774 1060.82,214.406 1051.32,206.221 1042.01,198.212 1032.86,190.372 1023.89,182.694 1015.07,175.17 1006.4,167.796 
  997.886,160.565 989.51,153.471 981.269,146.51 973.159,139.677 965.174,132.967 957.312,126.375 949.566,119.899 941.934,113.533 934.41,107.274 926.993,101.118 
  919.677,95.0624 912.46,89.1037 905.339,85.838 898.31,85.838 891.371,85.838 884.519,85.838 877.751,85.838 871.065,85.838 864.458,85.838 857.929,85.838 
  851.474,85.838 845.092,85.838 838.78,85.838 832.537,85.838 826.362,85.838 820.251,85.838 814.203,85.838 808.218,85.838 802.292,85.838 796.425,85.838 
  790.615,85.838 784.861,85.838 779.161,85.838 773.514,85.838 767.919,85.838 762.374,85.838 756.879,85.838 751.432,85.838 746.032,85.838 740.677,85.838 
  735.368,85.838 730.103,85.838 724.881,85.838 719.701,85.838 714.562,85.838 709.463,85.838 704.404,85.838 699.384,85.838 694.401,85.838 689.456,85.838 
  684.547,85.838 679.673,85.838 674.835,85.838 670.03,85.838 665.26,85.838 660.522,85.838 655.817,85.838 651.143,85.838 646.501,85.838 641.889,85.838 
  637.308,85.838 632.756,85.838 628.233,85.838 623.738,85.838 619.271,85.838 614.833,85.838 610.421,85.838 606.035,85.838 601.677,85.838 597.343,85.838 
  593.036,85.838 588.753,85.838 584.495,85.838 580.261,85.838 576.05,85.838 571.864,85.838 567.7,85.838 563.559,85.838 559.441,85.838 555.345,85.838 
  551.271,85.838 547.218,85.838 543.186,85.838 539.175,85.838 535.185,85.838 531.216,85.838 527.266,85.838 523.336,85.838 519.426,85.838 515.535,85.838 
  511.663,85.838 507.81,85.838 503.976,85.838 500.16,85.838 496.362,85.838 492.582,85.838 488.819,85.838 485.075,85.838 481.347,85.838 477.637,85.838 
  473.943,85.838 470.266,85.838 466.606,85.838 462.962,85.838 459.334,85.838 455.723,85.838 452.127,85.838 448.547,85.838 444.982,85.838 441.432,85.838 
  437.898,85.838 434.379,85.838 430.875,85.838 427.385,85.838 423.91,85.838 420.45,85.838 417.004,85.838 413.572,85.838 410.154,85.838 406.75,85.838 
  403.36,85.838 399.983,85.838 396.62,85.838 393.271,85.838 389.934,85.838 386.611,85.838 383.302,85.838 380.005,85.838 376.721,85.838 373.449,85.838 
  370.191,85.838 366.944,85.838 363.711,85.838 360.489,85.838 357.28,85.838 354.084,85.838 350.899,85.838 347.726,85.838 344.565,85.838 341.416,85.838 
  338.278,85.838 335.152,85.838 332.038,85.838 328.935,85.838 325.843,85.838 322.763,85.838 319.694,85.838 316.636,85.838 313.589,85.838 310.553,85.838 
  
  "/>
<path clip-path="url(#clip100)" d="
M1996.75 248.219 L2282.7 248.219 L2282.7 92.6992 L1996.75 92.6992  Z
  " fill="#ffffff" fill-rule="evenodd" fill-opacity="1"/>
<polyline clip-path="url(#clip100)" style="stroke:#000000; stroke-linecap:butt; stroke-linejoin:round; stroke-width:4; stroke-opacity:1; fill:none" points="
  1996.75,248.219 2282.7,248.219 2282.7,92.6992 1996.75,92.6992 1996.75,248.219 
  "/>
<polyline clip-path="url(#clip100)" style="stroke:#009af9; stroke-linecap:butt; stroke-linejoin:round; stroke-width:4; stroke-opacity:1; fill:none" points="
  2020.1,144.539 2160.21,144.539 
  "/>
<path clip-path="url(#clip100)" d="M2197.41 164.227 Q2195.6 168.856 2193.89 170.268 Q2192.18 171.68 2189.31 171.68 L2185.9 171.68 L2185.9 168.115 L2188.4 168.115 Q2190.16 168.115 2191.13 167.282 Q2192.11 166.449 2193.29 163.347 L2194.05 161.403 L2183.57 135.893 L2188.08 135.893 L2196.18 156.171 L2204.28 135.893 L2208.8 135.893 L2197.41 164.227 Z" fill="#000000" fill-rule="evenodd" fill-opacity="1" /><path clip-path="url(#clip100)" d="M2216.09 157.884 L2223.73 157.884 L2223.73 131.518 L2215.42 133.185 L2215.42 128.926 L2223.68 127.259 L2228.36 127.259 L2228.36 157.884 L2236 157.884 L2236 161.819 L2216.09 161.819 L2216.09 157.884 Z" fill="#000000" fill-rule="evenodd" fill-opacity="1" /><polyline clip-path="url(#clip100)" style="stroke:#e26f46; stroke-linecap:butt; stroke-linejoin:round; stroke-width:4; stroke-opacity:1; fill:none" points="
  2020.1,196.379 2160.21,196.379 
  "/>
<path clip-path="url(#clip100)" d="M2197.41 216.067 Q2195.6 220.696 2193.89 222.108 Q2192.18 223.52 2189.31 223.52 L2185.9 223.52 L2185.9 219.955 L2188.4 219.955 Q2190.16 219.955 2191.13 219.122 Q2192.11 218.289 2193.29 215.187 L2194.05 213.243 L2183.57 187.733 L2188.08 187.733 L2196.18 208.011 L2204.28 187.733 L2208.8 187.733 L2197.41 216.067 Z" fill="#000000" fill-rule="evenodd" fill-opacity="1" /><path clip-path="url(#clip100)" d="M2219.31 209.724 L2235.63 209.724 L2235.63 213.659 L2213.68 213.659 L2213.68 209.724 Q2216.34 206.969 2220.93 202.34 Q2225.53 197.687 2226.71 196.344 Q2228.96 193.821 2229.84 192.085 Q2230.74 190.326 2230.74 188.636 Q2230.74 185.882 2228.8 184.145 Q2226.88 182.409 2223.77 182.409 Q2221.57 182.409 2219.12 183.173 Q2216.69 183.937 2213.91 185.488 L2213.91 180.766 Q2216.74 179.632 2219.19 179.053 Q2221.64 178.474 2223.68 178.474 Q2229.05 178.474 2232.25 181.159 Q2235.44 183.845 2235.44 188.335 Q2235.44 190.465 2234.63 192.386 Q2233.84 194.284 2231.74 196.877 Q2231.16 197.548 2228.06 200.766 Q2224.95 203.96 2219.31 209.724 Z" fill="#000000" fill-rule="evenodd" fill-opacity="1" /></svg>
