<?xml version="1.0" encoding="utf-8"?>
<svg xmlns="http://www.w3.org/2000/svg" xmlns:xlink="http://www.w3.org/1999/xlink" width="600" height="400" viewBox="0 0 2400 1600">
<defs>
  <clipPath id="clip330">
    <rect x="0" y="0" width="2400" height="1600"/>
  </clipPath>
</defs>
<path clip-path="url(#clip330)" d="
M0 1600 L2400 1600 L2400 0 L0 0  Z
  " fill="#ffffff" fill-rule="evenodd" fill-opacity="1"/>
<defs>
  <clipPath id="clip331">
    <rect x="480" y="0" width="1681" height="1600"/>
  </clipPath>
</defs>
<path clip-path="url(#clip330)" d="
M257.204 1423.18 L2352.76 1423.18 L2352.76 47.2441 L257.204 47.2441  Z
  " fill="#ffffff" fill-rule="evenodd" fill-opacity="1"/>
<defs>
  <clipPath id="clip332">
    <rect x="257" y="47" width="2097" height="1377"/>
  </clipPath>
</defs>
<polyline clip-path="url(#clip332)" style="stroke:#000000; stroke-linecap:butt; stroke-linejoin:round; stroke-width:2; stroke-opacity:0.1; fill:none" points="
  316.512,1423.18 316.512,47.2441 
  "/>
<polyline clip-path="url(#clip332)" style="stroke:#000000; stroke-linecap:butt; stroke-linejoin:round; stroke-width:2; stroke-opacity:0.1; fill:none" points="
  823.066,1423.18 823.066,47.2441 
  "/>
<polyline clip-path="url(#clip332)" style="stroke:#000000; stroke-linecap:butt; stroke-linejoin:round; stroke-width:2; stroke-opacity:0.1; fill:none" points="
  1329.62,1423.18 1329.62,47.2441 
  "/>
<polyline clip-path="url(#clip332)" style="stroke:#000000; stroke-linecap:butt; stroke-linejoin:round; stroke-width:2; stroke-opacity:0.1; fill:none" points="
  1836.17,1423.18 1836.17,47.2441 
  "/>
<polyline clip-path="url(#clip332)" style="stroke:#000000; stroke-linecap:butt; stroke-linejoin:round; stroke-width:2; stroke-opacity:0.1; fill:none" points="
  2342.73,1423.18 2342.73,47.2441 
  "/>
<polyline clip-path="url(#clip330)" style="stroke:#000000; stroke-linecap:butt; stroke-linejoin:round; stroke-width:4; stroke-opacity:1; fill:none" points="
  257.204,1423.18 2352.76,1423.18 
  "/>
<polyline clip-path="url(#clip330)" style="stroke:#000000; stroke-linecap:butt; stroke-linejoin:round; stroke-width:4; stroke-opacity:1; fill:none" points="
  316.512,1423.18 316.512,1404.28 
  "/>
<polyline clip-path="url(#clip330)" style="stroke:#000000; stroke-linecap:butt; stroke-linejoin:round; stroke-width:4; stroke-opacity:1; fill:none" points="
  823.066,1423.18 823.066,1404.28 
  "/>
<polyline clip-path="url(#clip330)" style="stroke:#000000; stroke-linecap:butt; stroke-linejoin:round; stroke-width:4; stroke-opacity:1; fill:none" points="
  1329.62,1423.18 1329.62,1404.28 
  "/>
<polyline clip-path="url(#clip330)" style="stroke:#000000; stroke-linecap:butt; stroke-linejoin:round; stroke-width:4; stroke-opacity:1; fill:none" points="
  1836.17,1423.18 1836.17,1404.28 
  "/>
<polyline clip-path="url(#clip330)" style="stroke:#000000; stroke-linecap:butt; stroke-linejoin:round; stroke-width:4; stroke-opacity:1; fill:none" points="
  2342.73,1423.18 2342.73,1404.28 
  "/>
<path clip-path="url(#clip330)" d="M278.816 1454.1 Q275.204 1454.1 273.376 1457.66 Q271.57 1461.2 271.57 1468.33 Q271.57 1475.44 273.376 1479.01 Q275.204 1482.55 278.816 1482.55 Q282.45 1482.55 284.255 1479.01 Q286.084 1475.44 286.084 1468.33 Q286.084 1461.2 284.255 1457.66 Q282.45 1454.1 278.816 1454.1 M278.816 1450.39 Q284.626 1450.39 287.681 1455 Q290.76 1459.58 290.76 1468.33 Q290.76 1477.06 287.681 1481.67 Q284.626 1486.25 278.816 1486.25 Q273.005 1486.25 269.927 1481.67 Q266.871 1477.06 266.871 1468.33 Q266.871 1459.58 269.927 1455 Q273.005 1450.39 278.816 1450.39 Z" fill="#000000" fill-rule="evenodd" fill-opacity="1" /><path clip-path="url(#clip330)" d="M298.977 1479.7 L303.862 1479.7 L303.862 1485.58 L298.977 1485.58 L298.977 1479.7 Z" fill="#000000" fill-rule="evenodd" fill-opacity="1" /><path clip-path="url(#clip330)" d="M324.047 1454.1 Q320.436 1454.1 318.607 1457.66 Q316.801 1461.2 316.801 1468.33 Q316.801 1475.44 318.607 1479.01 Q320.436 1482.55 324.047 1482.55 Q327.681 1482.55 329.487 1479.01 Q331.315 1475.44 331.315 1468.33 Q331.315 1461.2 329.487 1457.66 Q327.681 1454.1 324.047 1454.1 M324.047 1450.39 Q329.857 1450.39 332.912 1455 Q335.991 1459.58 335.991 1468.33 Q335.991 1477.06 332.912 1481.67 Q329.857 1486.25 324.047 1486.25 Q318.237 1486.25 315.158 1481.67 Q312.102 1477.06 312.102 1468.33 Q312.102 1459.58 315.158 1455 Q318.237 1450.39 324.047 1450.39 Z" fill="#000000" fill-rule="evenodd" fill-opacity="1" /><path clip-path="url(#clip330)" d="M354.209 1454.1 Q350.598 1454.1 348.769 1457.66 Q346.963 1461.2 346.963 1468.33 Q346.963 1475.44 348.769 1479.01 Q350.598 1482.55 354.209 1482.55 Q357.843 1482.55 359.648 1479.01 Q361.477 1475.44 361.477 1468.33 Q361.477 1461.2 359.648 1457.66 Q357.843 1454.1 354.209 1454.1 M354.209 1450.39 Q360.019 1450.39 363.074 1455 Q366.153 1459.58 366.153 1468.33 Q366.153 1477.06 363.074 1481.67 Q360.019 1486.25 354.209 1486.25 Q348.399 1486.25 345.32 1481.67 Q342.264 1477.06 342.264 1468.33 Q342.264 1459.58 345.32 1455 Q348.399 1450.39 354.209 1450.39 Z" fill="#000000" fill-rule="evenodd" fill-opacity="1" /><path clip-path="url(#clip330)" d="M785.867 1454.1 Q782.256 1454.1 780.427 1457.66 Q778.622 1461.2 778.622 1468.33 Q778.622 1475.44 780.427 1479.01 Q782.256 1482.55 785.867 1482.55 Q789.501 1482.55 791.307 1479.01 Q793.136 1475.44 793.136 1468.33 Q793.136 1461.2 791.307 1457.66 Q789.501 1454.1 785.867 1454.1 M785.867 1450.39 Q791.677 1450.39 794.733 1455 Q797.812 1459.58 797.812 1468.33 Q797.812 1477.06 794.733 1481.67 Q791.677 1486.25 785.867 1486.25 Q780.057 1486.25 776.978 1481.67 Q773.923 1477.06 773.923 1468.33 Q773.923 1459.58 776.978 1455 Q780.057 1450.39 785.867 1450.39 Z" fill="#000000" fill-rule="evenodd" fill-opacity="1" /><path clip-path="url(#clip330)" d="M806.029 1479.7 L810.913 1479.7 L810.913 1485.58 L806.029 1485.58 L806.029 1479.7 Z" fill="#000000" fill-rule="evenodd" fill-opacity="1" /><path clip-path="url(#clip330)" d="M831.098 1454.1 Q827.487 1454.1 825.659 1457.66 Q823.853 1461.2 823.853 1468.33 Q823.853 1475.44 825.659 1479.01 Q827.487 1482.55 831.098 1482.55 Q834.733 1482.55 836.538 1479.01 Q838.367 1475.44 838.367 1468.33 Q838.367 1461.2 836.538 1457.66 Q834.733 1454.1 831.098 1454.1 M831.098 1450.39 Q836.909 1450.39 839.964 1455 Q843.043 1459.58 843.043 1468.33 Q843.043 1477.06 839.964 1481.67 Q836.909 1486.25 831.098 1486.25 Q825.288 1486.25 822.21 1481.67 Q819.154 1477.06 819.154 1468.33 Q819.154 1459.58 822.21 1455 Q825.288 1450.39 831.098 1450.39 Z" fill="#000000" fill-rule="evenodd" fill-opacity="1" /><path clip-path="url(#clip330)" d="M851.307 1451.02 L869.663 1451.02 L869.663 1454.96 L855.589 1454.96 L855.589 1463.43 Q856.608 1463.08 857.626 1462.92 Q858.645 1462.73 859.663 1462.73 Q865.45 1462.73 868.83 1465.9 Q872.209 1469.08 872.209 1474.49 Q872.209 1480.07 868.737 1483.17 Q865.265 1486.25 858.946 1486.25 Q856.77 1486.25 854.501 1485.88 Q852.256 1485.51 849.848 1484.77 L849.848 1480.07 Q851.932 1481.2 854.154 1481.76 Q856.376 1482.32 858.853 1482.32 Q862.858 1482.32 865.196 1480.21 Q867.533 1478.1 867.533 1474.49 Q867.533 1470.88 865.196 1468.77 Q862.858 1466.67 858.853 1466.67 Q856.978 1466.67 855.103 1467.08 Q853.251 1467.5 851.307 1468.38 L851.307 1451.02 Z" fill="#000000" fill-rule="evenodd" fill-opacity="1" /><path clip-path="url(#clip330)" d="M1291.92 1454.1 Q1288.31 1454.1 1286.48 1457.66 Q1284.68 1461.2 1284.68 1468.33 Q1284.68 1475.44 1286.48 1479.01 Q1288.31 1482.55 1291.92 1482.55 Q1295.56 1482.55 1297.36 1479.01 Q1299.19 1475.44 1299.19 1468.33 Q1299.19 1461.2 1297.36 1457.66 Q1295.56 1454.1 1291.92 1454.1 M1291.92 1450.39 Q1297.73 1450.39 1300.79 1455 Q1303.87 1459.58 1303.87 1468.33 Q1303.87 1477.06 1300.79 1481.67 Q1297.73 1486.25 1291.92 1486.25 Q1286.11 1486.25 1283.03 1481.67 Q1279.98 1477.06 1279.98 1468.33 Q1279.98 1459.58 1283.03 1455 Q1286.11 1450.39 1291.92 1450.39 Z" fill="#000000" fill-rule="evenodd" fill-opacity="1" /><path clip-path="url(#clip330)" d="M1312.09 1479.7 L1316.97 1479.7 L1316.97 1485.58 L1312.09 1485.58 L1312.09 1479.7 Z" fill="#000000" fill-rule="evenodd" fill-opacity="1" /><path clip-path="url(#clip330)" d="M1327.97 1481.64 L1335.6 1481.64 L1335.6 1455.28 L1327.29 1456.95 L1327.29 1452.69 L1335.56 1451.02 L1340.23 1451.02 L1340.23 1481.64 L1347.87 1481.64 L1347.87 1485.58 L1327.97 1485.58 L1327.97 1481.64 Z" fill="#000000" fill-rule="evenodd" fill-opacity="1" /><path clip-path="url(#clip330)" d="M1367.32 1454.1 Q1363.71 1454.1 1361.88 1457.66 Q1360.07 1461.2 1360.07 1468.33 Q1360.07 1475.44 1361.88 1479.01 Q1363.71 1482.55 1367.32 1482.55 Q1370.95 1482.55 1372.76 1479.01 Q1374.59 1475.44 1374.59 1468.33 Q1374.59 1461.2 1372.76 1457.66 Q1370.95 1454.1 1367.32 1454.1 M1367.32 1450.39 Q1373.13 1450.39 1376.18 1455 Q1379.26 1459.58 1379.26 1468.33 Q1379.26 1477.06 1376.18 1481.67 Q1373.13 1486.25 1367.32 1486.25 Q1361.51 1486.25 1358.43 1481.67 Q1355.37 1477.06 1355.37 1468.33 Q1355.37 1459.58 1358.43 1455 Q1361.51 1450.39 1367.32 1450.39 Z" fill="#000000" fill-rule="evenodd" fill-opacity="1" /><path clip-path="url(#clip330)" d="M1798.98 1454.1 Q1795.36 1454.1 1793.54 1457.66 Q1791.73 1461.2 1791.73 1468.33 Q1791.73 1475.44 1793.54 1479.01 Q1795.36 1482.55 1798.98 1482.55 Q1802.61 1482.55 1804.42 1479.01 Q1806.24 1475.44 1806.24 1468.33 Q1806.24 1461.2 1804.42 1457.66 Q1802.61 1454.1 1798.98 1454.1 M1798.98 1450.39 Q1804.79 1450.39 1807.84 1455 Q1810.92 1459.58 1810.92 1468.33 Q1810.92 1477.06 1807.84 1481.67 Q1804.79 1486.25 1798.98 1486.25 Q1793.17 1486.25 1790.09 1481.67 Q1787.03 1477.06 1787.03 1468.33 Q1787.03 1459.58 1790.09 1455 Q1793.17 1450.39 1798.98 1450.39 Z" fill="#000000" fill-rule="evenodd" fill-opacity="1" /><path clip-path="url(#clip330)" d="M1819.14 1479.7 L1824.02 1479.7 L1824.02 1485.58 L1819.14 1485.58 L1819.14 1479.7 Z" fill="#000000" fill-rule="evenodd" fill-opacity="1" /><path clip-path="url(#clip330)" d="M1835.02 1481.64 L1842.66 1481.64 L1842.66 1455.28 L1834.35 1456.95 L1834.35 1452.69 L1842.61 1451.02 L1847.29 1451.02 L1847.29 1481.64 L1854.92 1481.64 L1854.92 1485.58 L1835.02 1485.58 L1835.02 1481.64 Z" fill="#000000" fill-rule="evenodd" fill-opacity="1" /><path clip-path="url(#clip330)" d="M1864.41 1451.02 L1882.77 1451.02 L1882.77 1454.96 L1868.7 1454.96 L1868.7 1463.43 Q1869.72 1463.08 1870.73 1462.92 Q1871.75 1462.73 1872.77 1462.73 Q1878.56 1462.73 1881.94 1465.9 Q1885.32 1469.08 1885.32 1474.49 Q1885.32 1480.07 1881.85 1483.17 Q1878.37 1486.25 1872.05 1486.25 Q1869.88 1486.25 1867.61 1485.88 Q1865.36 1485.51 1862.96 1484.77 L1862.96 1480.07 Q1865.04 1481.2 1867.26 1481.76 Q1869.48 1482.32 1871.96 1482.32 Q1875.97 1482.32 1878.3 1480.21 Q1880.64 1478.1 1880.64 1474.49 Q1880.64 1470.88 1878.3 1468.77 Q1875.97 1466.67 1871.96 1466.67 Q1870.09 1466.67 1868.21 1467.08 Q1866.36 1467.5 1864.41 1468.38 L1864.41 1451.02 Z" fill="#000000" fill-rule="evenodd" fill-opacity="1" /><path clip-path="url(#clip330)" d="M2305.03 1454.1 Q2301.42 1454.1 2299.59 1457.66 Q2297.79 1461.2 2297.79 1468.33 Q2297.79 1475.44 2299.59 1479.01 Q2301.42 1482.55 2305.03 1482.55 Q2308.67 1482.55 2310.47 1479.01 Q2312.3 1475.44 2312.3 1468.33 Q2312.3 1461.2 2310.47 1457.66 Q2308.67 1454.1 2305.03 1454.1 M2305.03 1450.39 Q2310.84 1450.39 2313.9 1455 Q2316.98 1459.58 2316.98 1468.33 Q2316.98 1477.06 2313.9 1481.67 Q2310.84 1486.25 2305.03 1486.25 Q2299.22 1486.25 2296.14 1481.67 Q2293.09 1477.06 2293.09 1468.33 Q2293.09 1459.58 2296.14 1455 Q2299.22 1450.39 2305.03 1450.39 Z" fill="#000000" fill-rule="evenodd" fill-opacity="1" /><path clip-path="url(#clip330)" d="M2325.19 1479.7 L2330.08 1479.7 L2330.08 1485.58 L2325.19 1485.58 L2325.19 1479.7 Z" fill="#000000" fill-rule="evenodd" fill-opacity="1" /><path clip-path="url(#clip330)" d="M2344.29 1481.64 L2360.61 1481.64 L2360.61 1485.58 L2338.67 1485.58 L2338.67 1481.64 Q2341.33 1478.89 2345.91 1474.26 Q2350.52 1469.61 2351.7 1468.27 Q2353.94 1465.74 2354.82 1464.01 Q2355.73 1462.25 2355.73 1460.56 Q2355.73 1457.8 2353.78 1456.07 Q2351.86 1454.33 2348.76 1454.33 Q2346.56 1454.33 2344.11 1455.09 Q2341.67 1455.86 2338.9 1457.41 L2338.9 1452.69 Q2341.72 1451.55 2344.17 1450.97 Q2346.63 1450.39 2348.67 1450.39 Q2354.04 1450.39 2357.23 1453.08 Q2360.42 1455.77 2360.42 1460.26 Q2360.42 1462.39 2359.61 1464.31 Q2358.83 1466.2 2356.72 1468.8 Q2356.14 1469.47 2353.04 1472.69 Q2349.94 1475.88 2344.29 1481.64 Z" fill="#000000" fill-rule="evenodd" fill-opacity="1" /><path clip-path="url(#clip330)" d="M2380.42 1454.1 Q2376.81 1454.1 2374.98 1457.66 Q2373.18 1461.2 2373.18 1468.33 Q2373.18 1475.44 2374.98 1479.01 Q2376.81 1482.55 2380.42 1482.55 Q2384.06 1482.55 2385.86 1479.01 Q2387.69 1475.44 2387.69 1468.33 Q2387.69 1461.2 2385.86 1457.66 Q2384.06 1454.1 2380.42 1454.1 M2380.42 1450.39 Q2386.23 1450.39 2389.29 1455 Q2392.37 1459.58 2392.37 1468.33 Q2392.37 1477.06 2389.29 1481.67 Q2386.23 1486.25 2380.42 1486.25 Q2374.61 1486.25 2371.54 1481.67 Q2368.48 1477.06 2368.48 1468.33 Q2368.48 1459.58 2371.54 1455 Q2374.61 1450.39 2380.42 1450.39 Z" fill="#000000" fill-rule="evenodd" fill-opacity="1" /><path clip-path="url(#clip330)" d="M1247.56 1545.76 Q1249.63 1546.46 1251.57 1548.76 Q1253.55 1551.05 1255.52 1555.06 L1262.04 1568.04 L1255.14 1568.04 L1249.06 1555.85 Q1246.7 1551.08 1244.47 1549.52 Q1242.28 1547.96 1238.46 1547.96 L1231.46 1547.96 L1231.46 1568.04 L1225.03 1568.04 L1225.03 1520.52 L1239.54 1520.52 Q1247.69 1520.52 1251.7 1523.93 Q1255.71 1527.34 1255.71 1534.21 Q1255.71 1538.7 1253.61 1541.66 Q1251.54 1544.62 1247.56 1545.76 M1231.46 1525.81 L1231.46 1542.68 L1239.54 1542.68 Q1244.19 1542.68 1246.54 1540.54 Q1248.93 1538.38 1248.93 1534.21 Q1248.93 1530.04 1246.54 1527.94 Q1244.19 1525.81 1239.54 1525.81 L1231.46 1525.81 Z" fill="#000000" fill-rule="evenodd" fill-opacity="1" /><path clip-path="url(#clip330)" d="M1297.63 1548.76 L1297.63 1551.62 L1270.7 1551.62 Q1271.08 1557.67 1274.33 1560.85 Q1277.61 1564 1283.43 1564 Q1286.81 1564 1289.96 1563.17 Q1293.14 1562.35 1296.26 1560.69 L1296.26 1566.23 Q1293.11 1567.57 1289.8 1568.27 Q1286.49 1568.97 1283.08 1568.97 Q1274.55 1568.97 1269.55 1564 Q1264.59 1559.04 1264.59 1550.57 Q1264.59 1541.82 1269.3 1536.69 Q1274.04 1531.54 1282.06 1531.54 Q1289.26 1531.54 1293.43 1536.18 Q1297.63 1540.8 1297.63 1548.76 M1291.77 1547.04 Q1291.71 1542.23 1289.07 1539.37 Q1286.46 1536.5 1282.13 1536.5 Q1277.23 1536.5 1274.27 1539.27 Q1271.34 1542.04 1270.89 1547.07 L1291.77 1547.04 Z" fill="#000000" fill-rule="evenodd" fill-opacity="1" /><path clip-path="url(#clip330)" d="M1321.31 1518.58 Q1317.04 1525.9 1314.97 1533.06 Q1312.91 1540.23 1312.91 1547.58 Q1312.91 1554.93 1314.97 1562.16 Q1317.07 1569.35 1321.31 1576.64 L1316.22 1576.64 Q1311.44 1569.16 1309.05 1561.93 Q1306.7 1554.71 1306.7 1547.58 Q1306.7 1540.48 1309.05 1533.29 Q1311.41 1526.09 1316.22 1518.58 L1321.31 1518.58 Z" fill="#000000" fill-rule="evenodd" fill-opacity="1" /><path clip-path="url(#clip330)" d="M1362.3 1532.4 L1349.41 1549.74 L1362.97 1568.04 L1356.06 1568.04 L1345.69 1554.04 L1335.31 1568.04 L1328.41 1568.04 L1342.25 1549.39 L1329.58 1532.4 L1336.49 1532.4 L1345.94 1545.1 L1355.4 1532.4 L1362.3 1532.4 Z" fill="#000000" fill-rule="evenodd" fill-opacity="1" /><path clip-path="url(#clip330)" d="M1370.32 1518.58 L1375.42 1518.58 Q1380.19 1526.09 1382.55 1533.29 Q1384.93 1540.48 1384.93 1547.58 Q1384.93 1554.71 1382.55 1561.93 Q1380.19 1569.16 1375.42 1576.64 L1370.32 1576.64 Q1374.56 1569.35 1376.63 1562.16 Q1378.73 1554.93 1378.73 1547.58 Q1378.73 1540.23 1376.63 1533.06 Q1374.56 1525.9 1370.32 1518.58 Z" fill="#000000" fill-rule="evenodd" fill-opacity="1" /><polyline clip-path="url(#clip332)" style="stroke:#000000; stroke-linecap:butt; stroke-linejoin:round; stroke-width:2; stroke-opacity:0.1; fill:none" points="
  257.204,1423.18 2352.76,1423.18 
  "/>
<polyline clip-path="url(#clip332)" style="stroke:#000000; stroke-linecap:butt; stroke-linejoin:round; stroke-width:2; stroke-opacity:0.1; fill:none" points="
  257.204,1079.2 2352.76,1079.2 
  "/>
<polyline clip-path="url(#clip332)" style="stroke:#000000; stroke-linecap:butt; stroke-linejoin:round; stroke-width:2; stroke-opacity:0.1; fill:none" points="
  257.204,735.212 2352.76,735.212 
  "/>
<polyline clip-path="url(#clip332)" style="stroke:#000000; stroke-linecap:butt; stroke-linejoin:round; stroke-width:2; stroke-opacity:0.1; fill:none" points="
  257.204,391.228 2352.76,391.228 
  "/>
<polyline clip-path="url(#clip332)" style="stroke:#000000; stroke-linecap:butt; stroke-linejoin:round; stroke-width:2; stroke-opacity:0.1; fill:none" points="
  257.204,47.2441 2352.76,47.2441 
  "/>
<polyline clip-path="url(#clip330)" style="stroke:#000000; stroke-linecap:butt; stroke-linejoin:round; stroke-width:4; stroke-opacity:1; fill:none" points="
  257.204,1423.18 257.204,47.2441 
  "/>
<polyline clip-path="url(#clip330)" style="stroke:#000000; stroke-linecap:butt; stroke-linejoin:round; stroke-width:4; stroke-opacity:1; fill:none" points="
  257.204,1423.18 276.102,1423.18 
  "/>
<polyline clip-path="url(#clip330)" style="stroke:#000000; stroke-linecap:butt; stroke-linejoin:round; stroke-width:4; stroke-opacity:1; fill:none" points="
  257.204,1079.2 276.102,1079.2 
  "/>
<polyline clip-path="url(#clip330)" style="stroke:#000000; stroke-linecap:butt; stroke-linejoin:round; stroke-width:4; stroke-opacity:1; fill:none" points="
  257.204,735.212 276.102,735.212 
  "/>
<polyline clip-path="url(#clip330)" style="stroke:#000000; stroke-linecap:butt; stroke-linejoin:round; stroke-width:4; stroke-opacity:1; fill:none" points="
  257.204,391.228 276.102,391.228 
  "/>
<polyline clip-path="url(#clip330)" style="stroke:#000000; stroke-linecap:butt; stroke-linejoin:round; stroke-width:4; stroke-opacity:1; fill:none" points="
  257.204,47.2441 276.102,47.2441 
  "/>
<path clip-path="url(#clip330)" d="M114.26 1423.63 L143.936 1423.63 L143.936 1427.57 L114.26 1427.57 L114.26 1423.63 Z" fill="#000000" fill-rule="evenodd" fill-opacity="1" /><path clip-path="url(#clip330)" d="M154.839 1436.52 L162.477 1436.52 L162.477 1410.16 L154.167 1411.83 L154.167 1407.57 L162.431 1405.9 L167.107 1405.9 L167.107 1436.52 L174.746 1436.52 L174.746 1440.46 L154.839 1440.46 L154.839 1436.52 Z" fill="#000000" fill-rule="evenodd" fill-opacity="1" /><path clip-path="url(#clip330)" d="M184.19 1434.58 L189.075 1434.58 L189.075 1440.46 L184.19 1440.46 L184.19 1434.58 Z" fill="#000000" fill-rule="evenodd" fill-opacity="1" /><path clip-path="url(#clip330)" d="M209.26 1408.98 Q205.649 1408.98 203.82 1412.54 Q202.014 1416.08 202.014 1423.21 Q202.014 1430.32 203.82 1433.89 Q205.649 1437.43 209.26 1437.43 Q212.894 1437.43 214.699 1433.89 Q216.528 1430.32 216.528 1423.21 Q216.528 1416.08 214.699 1412.54 Q212.894 1408.98 209.26 1408.98 M209.26 1405.27 Q215.07 1405.27 218.125 1409.88 Q221.204 1414.46 221.204 1423.21 Q221.204 1431.94 218.125 1436.55 Q215.07 1441.13 209.26 1441.13 Q203.449 1441.13 200.371 1436.55 Q197.315 1431.94 197.315 1423.21 Q197.315 1414.46 200.371 1409.88 Q203.449 1405.27 209.26 1405.27 Z" fill="#000000" fill-rule="evenodd" fill-opacity="1" /><path clip-path="url(#clip330)" d="M115.256 1079.65 L144.931 1079.65 L144.931 1083.58 L115.256 1083.58 L115.256 1079.65 Z" fill="#000000" fill-rule="evenodd" fill-opacity="1" /><path clip-path="url(#clip330)" d="M165.024 1064.99 Q161.413 1064.99 159.584 1068.56 Q157.778 1072.1 157.778 1079.23 Q157.778 1086.34 159.584 1089.9 Q161.413 1093.44 165.024 1093.44 Q168.658 1093.44 170.464 1089.9 Q172.292 1086.34 172.292 1079.23 Q172.292 1072.1 170.464 1068.56 Q168.658 1064.99 165.024 1064.99 M165.024 1061.29 Q170.834 1061.29 173.889 1065.9 Q176.968 1070.48 176.968 1079.23 Q176.968 1087.96 173.889 1092.56 Q170.834 1097.15 165.024 1097.15 Q159.214 1097.15 156.135 1092.56 Q153.079 1087.96 153.079 1079.23 Q153.079 1070.48 156.135 1065.9 Q159.214 1061.29 165.024 1061.29 Z" fill="#000000" fill-rule="evenodd" fill-opacity="1" /><path clip-path="url(#clip330)" d="M185.186 1090.6 L190.07 1090.6 L190.07 1096.48 L185.186 1096.48 L185.186 1090.6 Z" fill="#000000" fill-rule="evenodd" fill-opacity="1" /><path clip-path="url(#clip330)" d="M200.301 1061.92 L218.658 1061.92 L218.658 1065.85 L204.584 1065.85 L204.584 1074.32 Q205.602 1073.98 206.621 1073.81 Q207.639 1073.63 208.658 1073.63 Q214.445 1073.63 217.824 1076.8 Q221.204 1079.97 221.204 1085.39 Q221.204 1090.97 217.732 1094.07 Q214.26 1097.15 207.94 1097.15 Q205.764 1097.15 203.496 1096.78 Q201.25 1096.41 198.843 1095.67 L198.843 1090.97 Q200.926 1092.1 203.149 1092.66 Q205.371 1093.21 207.848 1093.21 Q211.852 1093.21 214.19 1091.11 Q216.528 1089 216.528 1085.39 Q216.528 1081.78 214.19 1079.67 Q211.852 1077.56 207.848 1077.56 Q205.973 1077.56 204.098 1077.98 Q202.246 1078.4 200.301 1079.28 L200.301 1061.92 Z" fill="#000000" fill-rule="evenodd" fill-opacity="1" /><path clip-path="url(#clip330)" d="M164.028 721.011 Q160.417 721.011 158.589 724.575 Q156.783 728.117 156.783 735.247 Q156.783 742.353 158.589 745.918 Q160.417 749.46 164.028 749.46 Q167.663 749.46 169.468 745.918 Q171.297 742.353 171.297 735.247 Q171.297 728.117 169.468 724.575 Q167.663 721.011 164.028 721.011 M164.028 717.307 Q169.839 717.307 172.894 721.913 Q175.973 726.497 175.973 735.247 Q175.973 743.973 172.894 748.58 Q169.839 753.163 164.028 753.163 Q158.218 753.163 155.14 748.58 Q152.084 743.973 152.084 735.247 Q152.084 726.497 155.14 721.913 Q158.218 717.307 164.028 717.307 Z" fill="#000000" fill-rule="evenodd" fill-opacity="1" /><path clip-path="url(#clip330)" d="M184.19 746.612 L189.075 746.612 L189.075 752.492 L184.19 752.492 L184.19 746.612 Z" fill="#000000" fill-rule="evenodd" fill-opacity="1" /><path clip-path="url(#clip330)" d="M209.26 721.011 Q205.649 721.011 203.82 724.575 Q202.014 728.117 202.014 735.247 Q202.014 742.353 203.82 745.918 Q205.649 749.46 209.26 749.46 Q212.894 749.46 214.699 745.918 Q216.528 742.353 216.528 735.247 Q216.528 728.117 214.699 724.575 Q212.894 721.011 209.26 721.011 M209.26 717.307 Q215.07 717.307 218.125 721.913 Q221.204 726.497 221.204 735.247 Q221.204 743.973 218.125 748.58 Q215.07 753.163 209.26 753.163 Q203.449 753.163 200.371 748.58 Q197.315 743.973 197.315 735.247 Q197.315 726.497 200.371 721.913 Q203.449 717.307 209.26 717.307 Z" fill="#000000" fill-rule="evenodd" fill-opacity="1" /><path clip-path="url(#clip330)" d="M165.024 377.027 Q161.413 377.027 159.584 380.592 Q157.778 384.133 157.778 391.263 Q157.778 398.369 159.584 401.934 Q161.413 405.476 165.024 405.476 Q168.658 405.476 170.464 401.934 Q172.292 398.369 172.292 391.263 Q172.292 384.133 170.464 380.592 Q168.658 377.027 165.024 377.027 M165.024 373.323 Q170.834 373.323 173.889 377.929 Q176.968 382.513 176.968 391.263 Q176.968 399.99 173.889 404.596 Q170.834 409.179 165.024 409.179 Q159.214 409.179 156.135 404.596 Q153.079 399.99 153.079 391.263 Q153.079 382.513 156.135 377.929 Q159.214 373.323 165.024 373.323 Z" fill="#000000" fill-rule="evenodd" fill-opacity="1" /><path clip-path="url(#clip330)" d="M185.186 402.628 L190.07 402.628 L190.07 408.508 L185.186 408.508 L185.186 402.628 Z" fill="#000000" fill-rule="evenodd" fill-opacity="1" /><path clip-path="url(#clip330)" d="M200.301 373.948 L218.658 373.948 L218.658 377.883 L204.584 377.883 L204.584 386.355 Q205.602 386.008 206.621 385.846 Q207.639 385.661 208.658 385.661 Q214.445 385.661 217.824 388.832 Q221.204 392.003 221.204 397.42 Q221.204 402.999 217.732 406.101 Q214.26 409.179 207.94 409.179 Q205.764 409.179 203.496 408.809 Q201.25 408.439 198.843 407.698 L198.843 402.999 Q200.926 404.133 203.149 404.689 Q205.371 405.244 207.848 405.244 Q211.852 405.244 214.19 403.138 Q216.528 401.031 216.528 397.42 Q216.528 393.809 214.19 391.703 Q211.852 389.596 207.848 389.596 Q205.973 389.596 204.098 390.013 Q202.246 390.429 200.301 391.309 L200.301 373.948 Z" fill="#000000" fill-rule="evenodd" fill-opacity="1" /><path clip-path="url(#clip330)" d="M154.839 60.5889 L162.477 60.5889 L162.477 34.2233 L154.167 35.89 L154.167 31.6308 L162.431 29.9641 L167.107 29.9641 L167.107 60.5889 L174.746 60.5889 L174.746 64.5241 L154.839 64.5241 L154.839 60.5889 Z" fill="#000000" fill-rule="evenodd" fill-opacity="1" /><path clip-path="url(#clip330)" d="M184.19 58.6445 L189.075 58.6445 L189.075 64.5241 L184.19 64.5241 L184.19 58.6445 Z" fill="#000000" fill-rule="evenodd" fill-opacity="1" /><path clip-path="url(#clip330)" d="M209.26 33.0428 Q205.649 33.0428 203.82 36.6076 Q202.014 40.1492 202.014 47.2788 Q202.014 54.3853 203.82 57.9501 Q205.649 61.4917 209.26 61.4917 Q212.894 61.4917 214.699 57.9501 Q216.528 54.3853 216.528 47.2788 Q216.528 40.1492 214.699 36.6076 Q212.894 33.0428 209.26 33.0428 M209.26 29.3391 Q215.07 29.3391 218.125 33.9456 Q221.204 38.5289 221.204 47.2788 Q221.204 56.0056 218.125 60.6121 Q215.07 65.1954 209.26 65.1954 Q203.449 65.1954 200.371 60.6121 Q197.315 56.0056 197.315 47.2788 Q197.315 38.5289 200.371 33.9456 Q203.449 29.3391 209.26 29.3391 Z" fill="#000000" fill-rule="evenodd" fill-opacity="1" /><path clip-path="url(#clip330)" d="M16.4842 815.293 L16.4842 808.863 L64.0042 808.863 L64.0042 815.293 L16.4842 815.293 Z" fill="#000000" fill-rule="evenodd" fill-opacity="1" /><path clip-path="url(#clip330)" d="M35.1993 768.568 Q31.2526 766.372 29.3747 763.317 Q27.4968 760.261 27.4968 756.123 Q27.4968 750.553 31.4117 747.53 Q35.2948 744.506 42.4881 744.506 L64.0042 744.506 L64.0042 750.394 L42.679 750.394 Q37.5546 750.394 35.072 752.208 Q32.5894 754.023 32.5894 757.747 Q32.5894 762.298 35.6131 764.94 Q38.6368 767.582 43.8567 767.582 L64.0042 767.582 L64.0042 773.47 L42.679 773.47 Q37.5228 773.47 35.072 775.284 Q32.5894 777.098 32.5894 780.886 Q32.5894 785.374 35.6449 788.016 Q38.6686 790.657 43.8567 790.657 L64.0042 790.657 L64.0042 796.546 L28.3562 796.546 L28.3562 790.657 L33.8944 790.657 Q30.616 788.652 29.0564 785.851 Q27.4968 783.05 27.4968 779.199 Q27.4968 775.316 29.4702 772.61 Q31.4436 769.873 35.1993 768.568 Z" fill="#000000" fill-rule="evenodd" fill-opacity="1" /><path clip-path="url(#clip330)" d="M14.5426 718.757 Q21.8632 723.022 29.0246 725.09 Q36.186 727.159 43.5384 727.159 Q50.8908 727.159 58.1159 725.09 Q65.3091 722.99 72.5979 718.757 L72.5979 723.849 Q65.1182 728.623 57.8931 731.011 Q50.668 733.366 43.5384 733.366 Q36.4406 733.366 29.2474 731.011 Q22.0542 728.655 14.5426 723.849 L14.5426 718.757 Z" fill="#000000" fill-rule="evenodd" fill-opacity="1" /><path clip-path="url(#clip330)" d="M28.3562 677.761 L45.7028 690.652 L64.0042 677.093 L64.0042 684 L49.9996 694.376 L64.0042 704.752 L64.0042 711.659 L45.3526 697.813 L28.3562 710.481 L28.3562 703.574 L41.0558 694.121 L28.3562 684.668 L28.3562 677.761 Z" fill="#000000" fill-rule="evenodd" fill-opacity="1" /><path clip-path="url(#clip330)" d="M14.5426 669.741 L14.5426 664.648 Q22.0542 659.874 29.2474 657.519 Q36.4406 655.131 43.5384 655.131 Q50.668 655.131 57.8931 657.519 Q65.1182 659.874 72.5979 664.648 L72.5979 669.741 Q65.3091 665.507 58.1159 663.439 Q50.8908 661.338 43.5384 661.338 Q36.186 661.338 29.0246 663.439 Q21.8632 665.507 14.5426 669.741 Z" fill="#000000" fill-rule="evenodd" fill-opacity="1" /><circle clip-path="url(#clip332)" cx="316.512" cy="735.212" r="14.4" fill="#009af9" fill-rule="evenodd" fill-opacity="1" stroke="#000000" stroke-opacity="1" stroke-width="3.2"/>
<circle clip-path="url(#clip332)" cx="316.512" cy="735.212" r="14.4" fill="#009af9" fill-rule="evenodd" fill-opacity="1" stroke="#000000" stroke-opacity="1" stroke-width="3.2"/>
<circle clip-path="url(#clip332)" cx="316.512" cy="735.212" r="14.4" fill="#009af9" fill-rule="evenodd" fill-opacity="1" stroke="#000000" stroke-opacity="1" stroke-width="3.2"/>
<circle clip-path="url(#clip332)" cx="316.512" cy="735.212" r="14.4" fill="#009af9" fill-rule="evenodd" fill-opacity="1" stroke="#000000" stroke-opacity="1" stroke-width="3.2"/>
<circle clip-path="url(#clip332)" cx="316.512" cy="735.212" r="14.4" fill="#009af9" fill-rule="evenodd" fill-opacity="1" stroke="#000000" stroke-opacity="1" stroke-width="3.2"/>
<circle clip-path="url(#clip332)" cx="316.512" cy="735.212" r="14.4" fill="#009af9" fill-rule="evenodd" fill-opacity="1" stroke="#000000" stroke-opacity="1" stroke-width="3.2"/>
<circle clip-path="url(#clip332)" cx="316.512" cy="735.212" r="14.4" fill="#009af9" fill-rule="evenodd" fill-opacity="1" stroke="#000000" stroke-opacity="1" stroke-width="3.2"/>
<circle clip-path="url(#clip332)" cx="316.512" cy="735.212" r="14.4" fill="#009af9" fill-rule="evenodd" fill-opacity="1" stroke="#000000" stroke-opacity="1" stroke-width="3.2"/>
<circle clip-path="url(#clip332)" cx="316.512" cy="735.212" r="14.4" fill="#009af9" fill-rule="evenodd" fill-opacity="1" stroke="#000000" stroke-opacity="1" stroke-width="3.2"/>
<circle clip-path="url(#clip332)" cx="316.512" cy="735.212" r="14.4" fill="#009af9" fill-rule="evenodd" fill-opacity="1" stroke="#000000" stroke-opacity="1" stroke-width="3.2"/>
<circle clip-path="url(#clip332)" cx="316.512" cy="735.212" r="14.4" fill="#009af9" fill-rule="evenodd" fill-opacity="1" stroke="#000000" stroke-opacity="1" stroke-width="3.2"/>
<circle clip-path="url(#clip332)" cx="316.512" cy="735.212" r="14.4" fill="#009af9" fill-rule="evenodd" fill-opacity="1" stroke="#000000" stroke-opacity="1" stroke-width="3.2"/>
<circle clip-path="url(#clip332)" cx="316.512" cy="735.212" r="14.4" fill="#009af9" fill-rule="evenodd" fill-opacity="1" stroke="#000000" stroke-opacity="1" stroke-width="3.2"/>
<circle clip-path="url(#clip332)" cx="316.512" cy="735.212" r="14.4" fill="#009af9" fill-rule="evenodd" fill-opacity="1" stroke="#000000" stroke-opacity="1" stroke-width="3.2"/>
<circle clip-path="url(#clip332)" cx="316.512" cy="735.212" r="14.4" fill="#009af9" fill-rule="evenodd" fill-opacity="1" stroke="#000000" stroke-opacity="1" stroke-width="3.2"/>
<circle clip-path="url(#clip332)" cx="316.512" cy="735.212" r="14.4" fill="#009af9" fill-rule="evenodd" fill-opacity="1" stroke="#000000" stroke-opacity="1" stroke-width="3.2"/>
<circle clip-path="url(#clip332)" cx="316.512" cy="735.212" r="14.4" fill="#009af9" fill-rule="evenodd" fill-opacity="1" stroke="#000000" stroke-opacity="1" stroke-width="3.2"/>
<circle clip-path="url(#clip332)" cx="316.512" cy="735.212" r="14.4" fill="#009af9" fill-rule="evenodd" fill-opacity="1" stroke="#000000" stroke-opacity="1" stroke-width="3.2"/>
<circle clip-path="url(#clip332)" cx="316.512" cy="735.212" r="14.4" fill="#009af9" fill-rule="evenodd" fill-opacity="1" stroke="#000000" stroke-opacity="1" stroke-width="3.2"/>
<circle clip-path="url(#clip332)" cx="316.512" cy="735.212" r="14.4" fill="#009af9" fill-rule="evenodd" fill-opacity="1" stroke="#000000" stroke-opacity="1" stroke-width="3.2"/>
<circle clip-path="url(#clip332)" cx="316.512" cy="735.212" r="14.4" fill="#009af9" fill-rule="evenodd" fill-opacity="1" stroke="#000000" stroke-opacity="1" stroke-width="3.2"/>
<circle clip-path="url(#clip332)" cx="316.512" cy="735.212" r="14.4" fill="#009af9" fill-rule="evenodd" fill-opacity="1" stroke="#000000" stroke-opacity="1" stroke-width="3.2"/>
<circle clip-path="url(#clip332)" cx="316.513" cy="735.212" r="14.4" fill="#009af9" fill-rule="evenodd" fill-opacity="1" stroke="#000000" stroke-opacity="1" stroke-width="3.2"/>
<circle clip-path="url(#clip332)" cx="316.542" cy="735.212" r="14.4" fill="#009af9" fill-rule="evenodd" fill-opacity="1" stroke="#000000" stroke-opacity="1" stroke-width="3.2"/>
<circle clip-path="url(#clip332)" cx="316.638" cy="735.212" r="14.4" fill="#009af9" fill-rule="evenodd" fill-opacity="1" stroke="#000000" stroke-opacity="1" stroke-width="3.2"/>
<circle clip-path="url(#clip332)" cx="316.885" cy="735.212" r="14.4" fill="#009af9" fill-rule="evenodd" fill-opacity="1" stroke="#000000" stroke-opacity="1" stroke-width="3.2"/>
<circle clip-path="url(#clip332)" cx="317.774" cy="735.212" r="14.4" fill="#009af9" fill-rule="evenodd" fill-opacity="1" stroke="#000000" stroke-opacity="1" stroke-width="3.2"/>
<circle clip-path="url(#clip332)" cx="319.57" cy="735.212" r="14.4" fill="#009af9" fill-rule="evenodd" fill-opacity="1" stroke="#000000" stroke-opacity="1" stroke-width="3.2"/>
<circle clip-path="url(#clip332)" cx="322.985" cy="735.212" r="14.4" fill="#009af9" fill-rule="evenodd" fill-opacity="1" stroke="#000000" stroke-opacity="1" stroke-width="3.2"/>
<circle clip-path="url(#clip332)" cx="328.311" cy="735.212" r="14.4" fill="#009af9" fill-rule="evenodd" fill-opacity="1" stroke="#000000" stroke-opacity="1" stroke-width="3.2"/>
<circle clip-path="url(#clip332)" cx="336.517" cy="735.212" r="14.4" fill="#009af9" fill-rule="evenodd" fill-opacity="1" stroke="#000000" stroke-opacity="1" stroke-width="3.2"/>
<circle clip-path="url(#clip332)" cx="346.05" cy="735.212" r="14.4" fill="#009af9" fill-rule="evenodd" fill-opacity="1" stroke="#000000" stroke-opacity="1" stroke-width="3.2"/>
<circle clip-path="url(#clip332)" cx="351.483" cy="735.212" r="14.4" fill="#009af9" fill-rule="evenodd" fill-opacity="1" stroke="#000000" stroke-opacity="1" stroke-width="3.2"/>
<circle clip-path="url(#clip332)" cx="363.063" cy="735.212" r="14.4" fill="#009af9" fill-rule="evenodd" fill-opacity="1" stroke="#000000" stroke-opacity="1" stroke-width="3.2"/>
<circle clip-path="url(#clip332)" cx="382.521" cy="735.212" r="14.4" fill="#009af9" fill-rule="evenodd" fill-opacity="1" stroke="#000000" stroke-opacity="1" stroke-width="3.2"/>
<circle clip-path="url(#clip332)" cx="402.644" cy="735.212" r="14.4" fill="#009af9" fill-rule="evenodd" fill-opacity="1" stroke="#000000" stroke-opacity="1" stroke-width="3.2"/>
<circle clip-path="url(#clip332)" cx="414.921" cy="735.212" r="14.4" fill="#009af9" fill-rule="evenodd" fill-opacity="1" stroke="#000000" stroke-opacity="1" stroke-width="3.2"/>
<circle clip-path="url(#clip332)" cx="432.61" cy="735.212" r="14.4" fill="#009af9" fill-rule="evenodd" fill-opacity="1" stroke="#000000" stroke-opacity="1" stroke-width="3.2"/>
<circle clip-path="url(#clip332)" cx="463.966" cy="735.212" r="14.4" fill="#009af9" fill-rule="evenodd" fill-opacity="1" stroke="#000000" stroke-opacity="1" stroke-width="3.2"/>
<circle clip-path="url(#clip332)" cx="491.835" cy="735.212" r="14.4" fill="#009af9" fill-rule="evenodd" fill-opacity="1" stroke="#000000" stroke-opacity="1" stroke-width="3.2"/>
<circle clip-path="url(#clip332)" cx="507.884" cy="735.212" r="14.4" fill="#009af9" fill-rule="evenodd" fill-opacity="1" stroke="#000000" stroke-opacity="1" stroke-width="3.2"/>
<circle clip-path="url(#clip332)" cx="530.881" cy="735.212" r="14.4" fill="#009af9" fill-rule="evenodd" fill-opacity="1" stroke="#000000" stroke-opacity="1" stroke-width="3.2"/>
<circle clip-path="url(#clip332)" cx="566.013" cy="735.212" r="14.4" fill="#009af9" fill-rule="evenodd" fill-opacity="1" stroke="#000000" stroke-opacity="1" stroke-width="3.2"/>
<circle clip-path="url(#clip332)" cx="595.462" cy="735.212" r="14.4" fill="#009af9" fill-rule="evenodd" fill-opacity="1" stroke="#000000" stroke-opacity="1" stroke-width="3.2"/>
<circle clip-path="url(#clip332)" cx="620.179" cy="735.212" r="14.4" fill="#009af9" fill-rule="evenodd" fill-opacity="1" stroke="#000000" stroke-opacity="1" stroke-width="3.2"/>
<circle clip-path="url(#clip332)" cx="625.256" cy="735.212" r="14.4" fill="#009af9" fill-rule="evenodd" fill-opacity="1" stroke="#000000" stroke-opacity="1" stroke-width="3.2"/>
<circle clip-path="url(#clip332)" cx="647.409" cy="735.212" r="14.4" fill="#009af9" fill-rule="evenodd" fill-opacity="1" stroke="#000000" stroke-opacity="1" stroke-width="3.2"/>
<circle clip-path="url(#clip332)" cx="660.533" cy="735.212" r="14.4" fill="#009af9" fill-rule="evenodd" fill-opacity="1" stroke="#000000" stroke-opacity="1" stroke-width="3.2"/>
<circle clip-path="url(#clip332)" cx="752.462" cy="735.212" r="14.4" fill="#009af9" fill-rule="evenodd" fill-opacity="1" stroke="#000000" stroke-opacity="1" stroke-width="3.2"/>
<circle clip-path="url(#clip332)" cx="900.486" cy="735.212" r="14.4" fill="#009af9" fill-rule="evenodd" fill-opacity="1" stroke="#000000" stroke-opacity="1" stroke-width="3.2"/>
<circle clip-path="url(#clip332)" cx="1058.02" cy="735.212" r="14.4" fill="#009af9" fill-rule="evenodd" fill-opacity="1" stroke="#000000" stroke-opacity="1" stroke-width="3.2"/>
<circle clip-path="url(#clip332)" cx="1219.43" cy="735.212" r="14.4" fill="#009af9" fill-rule="evenodd" fill-opacity="1" stroke="#000000" stroke-opacity="1" stroke-width="3.2"/>
<circle clip-path="url(#clip332)" cx="1379.51" cy="735.212" r="14.4" fill="#009af9" fill-rule="evenodd" fill-opacity="1" stroke="#000000" stroke-opacity="1" stroke-width="3.2"/>
<circle clip-path="url(#clip332)" cx="1533.56" cy="735.212" r="14.4" fill="#009af9" fill-rule="evenodd" fill-opacity="1" stroke="#000000" stroke-opacity="1" stroke-width="3.2"/>
<circle clip-path="url(#clip332)" cx="1677.61" cy="735.212" r="14.4" fill="#009af9" fill-rule="evenodd" fill-opacity="1" stroke="#000000" stroke-opacity="1" stroke-width="3.2"/>
<circle clip-path="url(#clip332)" cx="1808.54" cy="735.212" r="14.4" fill="#009af9" fill-rule="evenodd" fill-opacity="1" stroke="#000000" stroke-opacity="1" stroke-width="3.2"/>
<circle clip-path="url(#clip332)" cx="1924.15" cy="735.212" r="14.4" fill="#009af9" fill-rule="evenodd" fill-opacity="1" stroke="#000000" stroke-opacity="1" stroke-width="3.2"/>
<circle clip-path="url(#clip332)" cx="2023.14" cy="735.212" r="14.4" fill="#009af9" fill-rule="evenodd" fill-opacity="1" stroke="#000000" stroke-opacity="1" stroke-width="3.2"/>
<circle clip-path="url(#clip332)" cx="2105.11" cy="735.212" r="14.4" fill="#009af9" fill-rule="evenodd" fill-opacity="1" stroke="#000000" stroke-opacity="1" stroke-width="3.2"/>
<circle clip-path="url(#clip332)" cx="2170.47" cy="735.212" r="14.4" fill="#009af9" fill-rule="evenodd" fill-opacity="1" stroke="#000000" stroke-opacity="1" stroke-width="3.2"/>
<circle clip-path="url(#clip332)" cx="2220.3" cy="735.212" r="14.4" fill="#009af9" fill-rule="evenodd" fill-opacity="1" stroke="#000000" stroke-opacity="1" stroke-width="3.2"/>
<circle clip-path="url(#clip332)" cx="2256.2" cy="735.212" r="14.4" fill="#009af9" fill-rule="evenodd" fill-opacity="1" stroke="#000000" stroke-opacity="1" stroke-width="3.2"/>
<circle clip-path="url(#clip332)" cx="2280.01" cy="735.212" r="14.4" fill="#009af9" fill-rule="evenodd" fill-opacity="1" stroke="#000000" stroke-opacity="1" stroke-width="3.2"/>
<circle clip-path="url(#clip332)" cx="2293.45" cy="735.212" r="14.4" fill="#009af9" fill-rule="evenodd" fill-opacity="1" stroke="#000000" stroke-opacity="1" stroke-width="3.2"/>
<path clip-path="url(#clip330)" d="
M1997.63 196.789 L2282.9 196.789 L2282.9 93.1086 L1997.63 93.1086  Z
  " fill="#ffffff" fill-rule="evenodd" fill-opacity="1"/>
<polyline clip-path="url(#clip330)" style="stroke:#000000; stroke-linecap:butt; stroke-linejoin:round; stroke-width:4; stroke-opacity:1; fill:none" points="
  1997.63,196.789 2282.9,196.789 2282.9,93.1086 1997.63,93.1086 1997.63,196.789 
  "/>
<circle clip-path="url(#clip330)" cx="2090.77" cy="144.949" r="23.04" fill="#009af9" fill-rule="evenodd" fill-opacity="1" stroke="#000000" stroke-opacity="1" stroke-width="5.12"/>
<path clip-path="url(#clip330)" d="M2197.75 164.636 Q2195.94 169.266 2194.23 170.678 Q2192.52 172.09 2189.65 172.09 L2186.24 172.09 L2186.24 168.525 L2188.74 168.525 Q2190.5 168.525 2191.48 167.692 Q2192.45 166.858 2193.63 163.756 L2194.39 161.812 L2183.91 136.303 L2188.42 136.303 L2196.52 156.581 L2204.62 136.303 L2209.14 136.303 L2197.75 164.636 Z" fill="#000000" fill-rule="evenodd" fill-opacity="1" /><path clip-path="url(#clip330)" d="M2216.43 158.293 L2224.07 158.293 L2224.07 131.928 L2215.76 133.595 L2215.76 129.335 L2224.02 127.669 L2228.7 127.669 L2228.7 158.293 L2236.34 158.293 L2236.34 162.229 L2216.43 162.229 L2216.43 158.293 Z" fill="#000000" fill-rule="evenodd" fill-opacity="1" /></svg>
