<?xml version="1.0" encoding="utf-8"?>
<svg xmlns="http://www.w3.org/2000/svg" xmlns:xlink="http://www.w3.org/1999/xlink" width="600" height="400" viewBox="0 0 2400 1600">
<defs>
  <clipPath id="clip700">
    <rect x="0" y="0" width="2400" height="1600"/>
  </clipPath>
</defs>
<path clip-path="url(#clip700)" d="
M0 1600 L2400 1600 L2400 0 L0 0  Z
  " fill="#ffffff" fill-rule="evenodd" fill-opacity="1"/>
<defs>
  <clipPath id="clip701">
    <rect x="480" y="0" width="1681" height="1600"/>
  </clipPath>
</defs>
<path clip-path="url(#clip700)" d="
M193.936 1486.45 L2352.76 1486.45 L2352.76 123.472 L193.936 123.472  Z
  " fill="#ffffff" fill-rule="evenodd" fill-opacity="1"/>
<defs>
  <clipPath id="clip702">
    <rect x="193" y="123" width="2160" height="1364"/>
  </clipPath>
</defs>
<polyline clip-path="url(#clip702)" style="stroke:#000000; stroke-linecap:butt; stroke-linejoin:round; stroke-width:2; stroke-opacity:0.1; fill:none" points="
  255.035,1486.45 255.035,123.472 
  "/>
<polyline clip-path="url(#clip702)" style="stroke:#000000; stroke-linecap:butt; stroke-linejoin:round; stroke-width:2; stroke-opacity:0.1; fill:none" points="
  764.19,1486.45 764.19,123.472 
  "/>
<polyline clip-path="url(#clip702)" style="stroke:#000000; stroke-linecap:butt; stroke-linejoin:round; stroke-width:2; stroke-opacity:0.1; fill:none" points="
  1273.35,1486.45 1273.35,123.472 
  "/>
<polyline clip-path="url(#clip702)" style="stroke:#000000; stroke-linecap:butt; stroke-linejoin:round; stroke-width:2; stroke-opacity:0.1; fill:none" points="
  1782.5,1486.45 1782.5,123.472 
  "/>
<polyline clip-path="url(#clip702)" style="stroke:#000000; stroke-linecap:butt; stroke-linejoin:round; stroke-width:2; stroke-opacity:0.1; fill:none" points="
  2291.66,1486.45 2291.66,123.472 
  "/>
<polyline clip-path="url(#clip700)" style="stroke:#000000; stroke-linecap:butt; stroke-linejoin:round; stroke-width:4; stroke-opacity:1; fill:none" points="
  193.936,1486.45 2352.76,1486.45 
  "/>
<polyline clip-path="url(#clip700)" style="stroke:#000000; stroke-linecap:butt; stroke-linejoin:round; stroke-width:4; stroke-opacity:1; fill:none" points="
  255.035,1486.45 255.035,1467.55 
  "/>
<polyline clip-path="url(#clip700)" style="stroke:#000000; stroke-linecap:butt; stroke-linejoin:round; stroke-width:4; stroke-opacity:1; fill:none" points="
  764.19,1486.45 764.19,1467.55 
  "/>
<polyline clip-path="url(#clip700)" style="stroke:#000000; stroke-linecap:butt; stroke-linejoin:round; stroke-width:4; stroke-opacity:1; fill:none" points="
  1273.35,1486.45 1273.35,1467.55 
  "/>
<polyline clip-path="url(#clip700)" style="stroke:#000000; stroke-linecap:butt; stroke-linejoin:round; stroke-width:4; stroke-opacity:1; fill:none" points="
  1782.5,1486.45 1782.5,1467.55 
  "/>
<polyline clip-path="url(#clip700)" style="stroke:#000000; stroke-linecap:butt; stroke-linejoin:round; stroke-width:4; stroke-opacity:1; fill:none" points="
  2291.66,1486.45 2291.66,1467.55 
  "/>
<path clip-path="url(#clip700)" d="M201.563 1532.02 L231.239 1532.02 L231.239 1535.95 L201.563 1535.95 L201.563 1532.02 Z" fill="#000000" fill-rule="evenodd" fill-opacity="1" /><path clip-path="url(#clip700)" d="M242.141 1544.91 L249.78 1544.91 L249.78 1518.55 L241.47 1520.21 L241.47 1515.95 L249.734 1514.29 L254.41 1514.29 L254.41 1544.91 L262.049 1544.91 L262.049 1548.85 L242.141 1548.85 L242.141 1544.91 Z" fill="#000000" fill-rule="evenodd" fill-opacity="1" /><path clip-path="url(#clip700)" d="M271.493 1542.97 L276.377 1542.97 L276.377 1548.85 L271.493 1548.85 L271.493 1542.97 Z" fill="#000000" fill-rule="evenodd" fill-opacity="1" /><path clip-path="url(#clip700)" d="M296.562 1517.37 Q292.951 1517.37 291.122 1520.93 Q289.317 1524.47 289.317 1531.6 Q289.317 1538.71 291.122 1542.27 Q292.951 1545.82 296.562 1545.82 Q300.196 1545.82 302.002 1542.27 Q303.831 1538.71 303.831 1531.6 Q303.831 1524.47 302.002 1520.93 Q300.196 1517.37 296.562 1517.37 M296.562 1513.66 Q302.372 1513.66 305.428 1518.27 Q308.507 1522.85 308.507 1531.6 Q308.507 1540.33 305.428 1544.94 Q302.372 1549.52 296.562 1549.52 Q290.752 1549.52 287.673 1544.94 Q284.618 1540.33 284.618 1531.6 Q284.618 1522.85 287.673 1518.27 Q290.752 1513.66 296.562 1513.66 Z" fill="#000000" fill-rule="evenodd" fill-opacity="1" /><path clip-path="url(#clip700)" d="M711.216 1532.02 L740.892 1532.02 L740.892 1535.95 L711.216 1535.95 L711.216 1532.02 Z" fill="#000000" fill-rule="evenodd" fill-opacity="1" /><path clip-path="url(#clip700)" d="M760.984 1517.37 Q757.373 1517.37 755.545 1520.93 Q753.739 1524.47 753.739 1531.6 Q753.739 1538.71 755.545 1542.27 Q757.373 1545.82 760.984 1545.82 Q764.619 1545.82 766.424 1542.27 Q768.253 1538.71 768.253 1531.6 Q768.253 1524.47 766.424 1520.93 Q764.619 1517.37 760.984 1517.37 M760.984 1513.66 Q766.794 1513.66 769.85 1518.27 Q772.929 1522.85 772.929 1531.6 Q772.929 1540.33 769.85 1544.94 Q766.794 1549.52 760.984 1549.52 Q755.174 1549.52 752.095 1544.94 Q749.04 1540.33 749.04 1531.6 Q749.04 1522.85 752.095 1518.27 Q755.174 1513.66 760.984 1513.66 Z" fill="#000000" fill-rule="evenodd" fill-opacity="1" /><path clip-path="url(#clip700)" d="M781.146 1542.97 L786.03 1542.97 L786.03 1548.85 L781.146 1548.85 L781.146 1542.97 Z" fill="#000000" fill-rule="evenodd" fill-opacity="1" /><path clip-path="url(#clip700)" d="M796.262 1514.29 L814.618 1514.29 L814.618 1518.22 L800.544 1518.22 L800.544 1526.7 Q801.563 1526.35 802.581 1526.19 Q803.6 1526 804.618 1526 Q810.405 1526 813.785 1529.17 Q817.165 1532.34 817.165 1537.76 Q817.165 1543.34 813.692 1546.44 Q810.22 1549.52 803.901 1549.52 Q801.725 1549.52 799.456 1549.15 Q797.211 1548.78 794.804 1548.04 L794.804 1543.34 Q796.887 1544.47 799.109 1545.03 Q801.331 1545.58 803.808 1545.58 Q807.813 1545.58 810.151 1543.48 Q812.489 1541.37 812.489 1537.76 Q812.489 1534.15 810.151 1532.04 Q807.813 1529.94 803.808 1529.94 Q801.933 1529.94 800.058 1530.35 Q798.206 1530.77 796.262 1531.65 L796.262 1514.29 Z" fill="#000000" fill-rule="evenodd" fill-opacity="1" /><path clip-path="url(#clip700)" d="M1250.73 1517.37 Q1247.12 1517.37 1245.29 1520.93 Q1243.49 1524.47 1243.49 1531.6 Q1243.49 1538.71 1245.29 1542.27 Q1247.12 1545.82 1250.73 1545.82 Q1254.36 1545.82 1256.17 1542.27 Q1258 1538.71 1258 1531.6 Q1258 1524.47 1256.17 1520.93 Q1254.36 1517.37 1250.73 1517.37 M1250.73 1513.66 Q1256.54 1513.66 1259.6 1518.27 Q1262.67 1522.85 1262.67 1531.6 Q1262.67 1540.33 1259.6 1544.94 Q1256.54 1549.52 1250.73 1549.52 Q1244.92 1549.52 1241.84 1544.94 Q1238.79 1540.33 1238.79 1531.6 Q1238.79 1522.85 1241.84 1518.27 Q1244.92 1513.66 1250.73 1513.66 Z" fill="#000000" fill-rule="evenodd" fill-opacity="1" /><path clip-path="url(#clip700)" d="M1270.89 1542.97 L1275.78 1542.97 L1275.78 1548.85 L1270.89 1548.85 L1270.89 1542.97 Z" fill="#000000" fill-rule="evenodd" fill-opacity="1" /><path clip-path="url(#clip700)" d="M1295.96 1517.37 Q1292.35 1517.37 1290.52 1520.93 Q1288.72 1524.47 1288.72 1531.6 Q1288.72 1538.71 1290.52 1542.27 Q1292.35 1545.82 1295.96 1545.82 Q1299.6 1545.82 1301.4 1542.27 Q1303.23 1538.71 1303.23 1531.6 Q1303.23 1524.47 1301.4 1520.93 Q1299.6 1517.37 1295.96 1517.37 M1295.96 1513.66 Q1301.77 1513.66 1304.83 1518.27 Q1307.91 1522.85 1307.91 1531.6 Q1307.91 1540.33 1304.83 1544.94 Q1301.77 1549.52 1295.96 1549.52 Q1290.15 1549.52 1287.07 1544.94 Q1284.02 1540.33 1284.02 1531.6 Q1284.02 1522.85 1287.07 1518.27 Q1290.15 1513.66 1295.96 1513.66 Z" fill="#000000" fill-rule="evenodd" fill-opacity="1" /><path clip-path="url(#clip700)" d="M1760.38 1517.37 Q1756.77 1517.37 1754.94 1520.93 Q1753.14 1524.47 1753.14 1531.6 Q1753.14 1538.71 1754.94 1542.27 Q1756.77 1545.82 1760.38 1545.82 Q1764.02 1545.82 1765.82 1542.27 Q1767.65 1538.71 1767.65 1531.6 Q1767.65 1524.47 1765.82 1520.93 Q1764.02 1517.37 1760.38 1517.37 M1760.38 1513.66 Q1766.19 1513.66 1769.25 1518.27 Q1772.33 1522.85 1772.33 1531.6 Q1772.33 1540.33 1769.25 1544.94 Q1766.19 1549.52 1760.38 1549.52 Q1754.57 1549.52 1751.49 1544.94 Q1748.44 1540.33 1748.44 1531.6 Q1748.44 1522.85 1751.49 1518.27 Q1754.57 1513.66 1760.38 1513.66 Z" fill="#000000" fill-rule="evenodd" fill-opacity="1" /><path clip-path="url(#clip700)" d="M1780.55 1542.97 L1785.43 1542.97 L1785.43 1548.85 L1780.55 1548.85 L1780.55 1542.97 Z" fill="#000000" fill-rule="evenodd" fill-opacity="1" /><path clip-path="url(#clip700)" d="M1795.66 1514.29 L1814.02 1514.29 L1814.02 1518.22 L1799.94 1518.22 L1799.94 1526.7 Q1800.96 1526.35 1801.98 1526.19 Q1803 1526 1804.02 1526 Q1809.8 1526 1813.18 1529.17 Q1816.56 1532.34 1816.56 1537.76 Q1816.56 1543.34 1813.09 1546.44 Q1809.62 1549.52 1803.3 1549.52 Q1801.12 1549.52 1798.86 1549.15 Q1796.61 1548.78 1794.2 1548.04 L1794.2 1543.34 Q1796.29 1544.47 1798.51 1545.03 Q1800.73 1545.58 1803.21 1545.58 Q1807.21 1545.58 1809.55 1543.48 Q1811.89 1541.37 1811.89 1537.76 Q1811.89 1534.15 1809.55 1532.04 Q1807.21 1529.94 1803.21 1529.94 Q1801.33 1529.94 1799.46 1530.35 Q1797.61 1530.77 1795.66 1531.65 L1795.66 1514.29 Z" fill="#000000" fill-rule="evenodd" fill-opacity="1" /><path clip-path="url(#clip700)" d="M2258.81 1544.91 L2266.45 1544.91 L2266.45 1518.55 L2258.14 1520.21 L2258.14 1515.95 L2266.4 1514.29 L2271.08 1514.29 L2271.08 1544.91 L2278.72 1544.91 L2278.72 1548.85 L2258.81 1548.85 L2258.81 1544.91 Z" fill="#000000" fill-rule="evenodd" fill-opacity="1" /><path clip-path="url(#clip700)" d="M2288.16 1542.97 L2293.05 1542.97 L2293.05 1548.85 L2288.16 1548.85 L2288.16 1542.97 Z" fill="#000000" fill-rule="evenodd" fill-opacity="1" /><path clip-path="url(#clip700)" d="M2313.23 1517.37 Q2309.62 1517.37 2307.79 1520.93 Q2305.99 1524.47 2305.99 1531.6 Q2305.99 1538.71 2307.79 1542.27 Q2309.62 1545.82 2313.23 1545.82 Q2316.87 1545.82 2318.67 1542.27 Q2320.5 1538.71 2320.5 1531.6 Q2320.5 1524.47 2318.67 1520.93 Q2316.87 1517.37 2313.23 1517.37 M2313.23 1513.66 Q2319.04 1513.66 2322.1 1518.27 Q2325.18 1522.85 2325.18 1531.6 Q2325.18 1540.33 2322.1 1544.94 Q2319.04 1549.52 2313.23 1549.52 Q2307.42 1549.52 2304.34 1544.94 Q2301.29 1540.33 2301.29 1531.6 Q2301.29 1522.85 2304.34 1518.27 Q2307.42 1513.66 2313.23 1513.66 Z" fill="#000000" fill-rule="evenodd" fill-opacity="1" /><polyline clip-path="url(#clip702)" style="stroke:#000000; stroke-linecap:butt; stroke-linejoin:round; stroke-width:2; stroke-opacity:0.1; fill:none" points="
  193.936,1446.02 2352.76,1446.02 
  "/>
<polyline clip-path="url(#clip702)" style="stroke:#000000; stroke-linecap:butt; stroke-linejoin:round; stroke-width:2; stroke-opacity:0.1; fill:none" points="
  193.936,1125.49 2352.76,1125.49 
  "/>
<polyline clip-path="url(#clip702)" style="stroke:#000000; stroke-linecap:butt; stroke-linejoin:round; stroke-width:2; stroke-opacity:0.1; fill:none" points="
  193.936,804.96 2352.76,804.96 
  "/>
<polyline clip-path="url(#clip702)" style="stroke:#000000; stroke-linecap:butt; stroke-linejoin:round; stroke-width:2; stroke-opacity:0.1; fill:none" points="
  193.936,484.431 2352.76,484.431 
  "/>
<polyline clip-path="url(#clip702)" style="stroke:#000000; stroke-linecap:butt; stroke-linejoin:round; stroke-width:2; stroke-opacity:0.1; fill:none" points="
  193.936,163.902 2352.76,163.902 
  "/>
<polyline clip-path="url(#clip700)" style="stroke:#000000; stroke-linecap:butt; stroke-linejoin:round; stroke-width:4; stroke-opacity:1; fill:none" points="
  193.936,1486.45 193.936,123.472 
  "/>
<polyline clip-path="url(#clip700)" style="stroke:#000000; stroke-linecap:butt; stroke-linejoin:round; stroke-width:4; stroke-opacity:1; fill:none" points="
  193.936,1446.02 212.834,1446.02 
  "/>
<polyline clip-path="url(#clip700)" style="stroke:#000000; stroke-linecap:butt; stroke-linejoin:round; stroke-width:4; stroke-opacity:1; fill:none" points="
  193.936,1125.49 212.834,1125.49 
  "/>
<polyline clip-path="url(#clip700)" style="stroke:#000000; stroke-linecap:butt; stroke-linejoin:round; stroke-width:4; stroke-opacity:1; fill:none" points="
  193.936,804.96 212.834,804.96 
  "/>
<polyline clip-path="url(#clip700)" style="stroke:#000000; stroke-linecap:butt; stroke-linejoin:round; stroke-width:4; stroke-opacity:1; fill:none" points="
  193.936,484.431 212.834,484.431 
  "/>
<polyline clip-path="url(#clip700)" style="stroke:#000000; stroke-linecap:butt; stroke-linejoin:round; stroke-width:4; stroke-opacity:1; fill:none" points="
  193.936,163.902 212.834,163.902 
  "/>
<path clip-path="url(#clip700)" d="M50.9921 1446.47 L80.6679 1446.47 L80.6679 1450.4 L50.9921 1450.4 L50.9921 1446.47 Z" fill="#000000" fill-rule="evenodd" fill-opacity="1" /><path clip-path="url(#clip700)" d="M91.5706 1459.36 L99.2095 1459.36 L99.2095 1433 L90.8993 1434.66 L90.8993 1430.4 L99.1632 1428.74 L103.839 1428.74 L103.839 1459.36 L111.478 1459.36 L111.478 1463.3 L91.5706 1463.3 L91.5706 1459.36 Z" fill="#000000" fill-rule="evenodd" fill-opacity="1" /><path clip-path="url(#clip700)" d="M120.922 1457.42 L125.807 1457.42 L125.807 1463.3 L120.922 1463.3 L120.922 1457.42 Z" fill="#000000" fill-rule="evenodd" fill-opacity="1" /><path clip-path="url(#clip700)" d="M145.992 1431.82 Q142.381 1431.82 140.552 1435.38 Q138.746 1438.92 138.746 1446.05 Q138.746 1453.16 140.552 1456.72 Q142.381 1460.27 145.992 1460.27 Q149.626 1460.27 151.431 1456.72 Q153.26 1453.16 153.26 1446.05 Q153.26 1438.92 151.431 1435.38 Q149.626 1431.82 145.992 1431.82 M145.992 1428.11 Q151.802 1428.11 154.857 1432.72 Q157.936 1437.3 157.936 1446.05 Q157.936 1454.78 154.857 1459.39 Q151.802 1463.97 145.992 1463.97 Q140.181 1463.97 137.103 1459.39 Q134.047 1454.78 134.047 1446.05 Q134.047 1437.3 137.103 1432.72 Q140.181 1428.11 145.992 1428.11 Z" fill="#000000" fill-rule="evenodd" fill-opacity="1" /><path clip-path="url(#clip700)" d="M51.9875 1125.94 L81.6633 1125.94 L81.6633 1129.88 L51.9875 1129.88 L51.9875 1125.94 Z" fill="#000000" fill-rule="evenodd" fill-opacity="1" /><path clip-path="url(#clip700)" d="M101.756 1111.29 Q98.1447 1111.29 96.316 1114.85 Q94.5104 1118.39 94.5104 1125.52 Q94.5104 1132.63 96.316 1136.2 Q98.1447 1139.74 101.756 1139.74 Q105.39 1139.74 107.196 1136.2 Q109.024 1132.63 109.024 1125.52 Q109.024 1118.39 107.196 1114.85 Q105.39 1111.29 101.756 1111.29 M101.756 1107.58 Q107.566 1107.58 110.621 1112.19 Q113.7 1116.77 113.7 1125.52 Q113.7 1134.25 110.621 1138.86 Q107.566 1143.44 101.756 1143.44 Q95.9456 1143.44 92.8669 1138.86 Q89.8114 1134.25 89.8114 1125.52 Q89.8114 1116.77 92.8669 1112.19 Q95.9456 1107.58 101.756 1107.58 Z" fill="#000000" fill-rule="evenodd" fill-opacity="1" /><path clip-path="url(#clip700)" d="M121.918 1136.89 L126.802 1136.89 L126.802 1142.77 L121.918 1142.77 L121.918 1136.89 Z" fill="#000000" fill-rule="evenodd" fill-opacity="1" /><path clip-path="url(#clip700)" d="M137.033 1108.21 L155.39 1108.21 L155.39 1112.14 L141.316 1112.14 L141.316 1120.62 Q142.334 1120.27 143.353 1120.11 Q144.371 1119.92 145.39 1119.92 Q151.177 1119.92 154.556 1123.09 Q157.936 1126.26 157.936 1131.68 Q157.936 1137.26 154.464 1140.36 Q150.992 1143.44 144.672 1143.44 Q142.496 1143.44 140.228 1143.07 Q137.982 1142.7 135.575 1141.96 L135.575 1137.26 Q137.658 1138.39 139.881 1138.95 Q142.103 1139.51 144.58 1139.51 Q148.584 1139.51 150.922 1137.4 Q153.26 1135.29 153.26 1131.68 Q153.26 1128.07 150.922 1125.96 Q148.584 1123.86 144.58 1123.86 Q142.705 1123.86 140.83 1124.27 Q138.978 1124.69 137.033 1125.57 L137.033 1108.21 Z" fill="#000000" fill-rule="evenodd" fill-opacity="1" /><path clip-path="url(#clip700)" d="M100.76 790.759 Q97.1493 790.759 95.3206 794.323 Q93.515 797.865 93.515 804.995 Q93.515 812.101 95.3206 815.666 Q97.1493 819.208 100.76 819.208 Q104.395 819.208 106.2 815.666 Q108.029 812.101 108.029 804.995 Q108.029 797.865 106.2 794.323 Q104.395 790.759 100.76 790.759 M100.76 787.055 Q106.571 787.055 109.626 791.661 Q112.705 796.245 112.705 804.995 Q112.705 813.722 109.626 818.328 Q106.571 822.911 100.76 822.911 Q94.9502 822.911 91.8715 818.328 Q88.816 813.722 88.816 804.995 Q88.816 796.245 91.8715 791.661 Q94.9502 787.055 100.76 787.055 Z" fill="#000000" fill-rule="evenodd" fill-opacity="1" /><path clip-path="url(#clip700)" d="M120.922 816.36 L125.807 816.36 L125.807 822.24 L120.922 822.24 L120.922 816.36 Z" fill="#000000" fill-rule="evenodd" fill-opacity="1" /><path clip-path="url(#clip700)" d="M145.992 790.759 Q142.381 790.759 140.552 794.323 Q138.746 797.865 138.746 804.995 Q138.746 812.101 140.552 815.666 Q142.381 819.208 145.992 819.208 Q149.626 819.208 151.431 815.666 Q153.26 812.101 153.26 804.995 Q153.26 797.865 151.431 794.323 Q149.626 790.759 145.992 790.759 M145.992 787.055 Q151.802 787.055 154.857 791.661 Q157.936 796.245 157.936 804.995 Q157.936 813.722 154.857 818.328 Q151.802 822.911 145.992 822.911 Q140.181 822.911 137.103 818.328 Q134.047 813.722 134.047 804.995 Q134.047 796.245 137.103 791.661 Q140.181 787.055 145.992 787.055 Z" fill="#000000" fill-rule="evenodd" fill-opacity="1" /><path clip-path="url(#clip700)" d="M101.756 470.23 Q98.1447 470.23 96.316 473.794 Q94.5104 477.336 94.5104 484.466 Q94.5104 491.572 96.316 495.137 Q98.1447 498.679 101.756 498.679 Q105.39 498.679 107.196 495.137 Q109.024 491.572 109.024 484.466 Q109.024 477.336 107.196 473.794 Q105.39 470.23 101.756 470.23 M101.756 466.526 Q107.566 466.526 110.621 471.132 Q113.7 475.716 113.7 484.466 Q113.7 493.192 110.621 497.799 Q107.566 502.382 101.756 502.382 Q95.9456 502.382 92.8669 497.799 Q89.8114 493.192 89.8114 484.466 Q89.8114 475.716 92.8669 471.132 Q95.9456 466.526 101.756 466.526 Z" fill="#000000" fill-rule="evenodd" fill-opacity="1" /><path clip-path="url(#clip700)" d="M121.918 495.831 L126.802 495.831 L126.802 501.711 L121.918 501.711 L121.918 495.831 Z" fill="#000000" fill-rule="evenodd" fill-opacity="1" /><path clip-path="url(#clip700)" d="M137.033 467.151 L155.39 467.151 L155.39 471.086 L141.316 471.086 L141.316 479.558 Q142.334 479.211 143.353 479.049 Q144.371 478.864 145.39 478.864 Q151.177 478.864 154.556 482.035 Q157.936 485.206 157.936 490.623 Q157.936 496.202 154.464 499.304 Q150.992 502.382 144.672 502.382 Q142.496 502.382 140.228 502.012 Q137.982 501.641 135.575 500.901 L135.575 496.202 Q137.658 497.336 139.881 497.891 Q142.103 498.447 144.58 498.447 Q148.584 498.447 150.922 496.341 Q153.26 494.234 153.26 490.623 Q153.26 487.012 150.922 484.905 Q148.584 482.799 144.58 482.799 Q142.705 482.799 140.83 483.216 Q138.978 483.632 137.033 484.512 L137.033 467.151 Z" fill="#000000" fill-rule="evenodd" fill-opacity="1" /><path clip-path="url(#clip700)" d="M91.5706 177.247 L99.2095 177.247 L99.2095 150.881 L90.8993 152.548 L90.8993 148.289 L99.1632 146.622 L103.839 146.622 L103.839 177.247 L111.478 177.247 L111.478 181.182 L91.5706 181.182 L91.5706 177.247 Z" fill="#000000" fill-rule="evenodd" fill-opacity="1" /><path clip-path="url(#clip700)" d="M120.922 175.302 L125.807 175.302 L125.807 181.182 L120.922 181.182 L120.922 175.302 Z" fill="#000000" fill-rule="evenodd" fill-opacity="1" /><path clip-path="url(#clip700)" d="M145.992 149.701 Q142.381 149.701 140.552 153.265 Q138.746 156.807 138.746 163.937 Q138.746 171.043 140.552 174.608 Q142.381 178.149 145.992 178.149 Q149.626 178.149 151.431 174.608 Q153.26 171.043 153.26 163.937 Q153.26 156.807 151.431 153.265 Q149.626 149.701 145.992 149.701 M145.992 145.997 Q151.802 145.997 154.857 150.603 Q157.936 155.187 157.936 163.937 Q157.936 172.663 154.857 177.27 Q151.802 181.853 145.992 181.853 Q140.181 181.853 137.103 177.27 Q134.047 172.663 134.047 163.937 Q134.047 155.187 137.103 150.603 Q140.181 145.997 145.992 145.997 Z" fill="#000000" fill-rule="evenodd" fill-opacity="1" /><path clip-path="url(#clip700)" d="M494.56 63.9476 L494.56 47.7034 L481.192 47.7034 L481.192 40.9789 L502.661 40.9789 L502.661 66.9452 Q497.922 70.3075 492.21 72.0494 Q486.498 73.7508 480.017 73.7508 Q465.839 73.7508 457.818 65.4869 Q449.838 57.1826 449.838 42.3968 Q449.838 27.5705 457.818 19.3066 Q465.839 11.0023 480.017 11.0023 Q485.931 11.0023 491.238 12.4606 Q496.585 13.9189 501.082 16.7545 L501.082 25.464 Q496.545 21.6156 491.44 19.6712 Q486.336 17.7268 480.706 17.7268 Q469.606 17.7268 464.016 23.9246 Q458.466 30.1225 458.466 42.3968 Q458.466 54.6305 464.016 60.8284 Q469.606 67.0263 480.706 67.0263 Q485.04 67.0263 488.443 66.2971 Q491.846 65.5274 494.56 63.9476 Z" fill="#000000" fill-rule="evenodd" fill-opacity="1" /><path clip-path="url(#clip700)" d="M537.904 49.7694 Q528.871 49.7694 525.387 51.8354 Q521.903 53.9013 521.903 58.8839 Q521.903 62.8538 524.496 65.2034 Q527.129 67.5124 531.625 67.5124 Q537.823 67.5124 541.55 63.1374 Q545.317 58.7219 545.317 51.4303 L545.317 49.7694 L537.904 49.7694 M552.771 46.6907 L552.771 72.576 L545.317 72.576 L545.317 65.6895 Q542.765 69.8214 538.958 71.8063 Q535.15 73.7508 529.64 73.7508 Q522.673 73.7508 518.541 69.8619 Q514.45 65.9325 514.45 59.3701 Q514.45 51.7138 519.554 47.825 Q524.698 43.9361 534.866 43.9361 L545.317 43.9361 L545.317 43.2069 Q545.317 38.0623 541.915 35.2672 Q538.552 32.4315 532.436 32.4315 Q528.547 32.4315 524.86 33.3632 Q521.174 34.295 517.771 36.1584 L517.771 29.2718 Q521.863 27.692 525.711 26.9223 Q529.559 26.1121 533.205 26.1121 Q543.049 26.1121 547.91 31.2163 Q552.771 36.3204 552.771 46.6907 Z" fill="#000000" fill-rule="evenodd" fill-opacity="1" /><path clip-path="url(#clip700)" d="M568.124 9.54393 L575.578 9.54393 L575.578 72.576 L568.124 72.576 L568.124 9.54393 Z" fill="#000000" fill-rule="evenodd" fill-opacity="1" /><path clip-path="url(#clip700)" d="M629.981 48.0275 L629.981 51.6733 L595.711 51.6733 Q596.197 59.3701 600.329 63.421 Q604.501 67.4314 611.914 67.4314 Q616.208 67.4314 620.219 66.3781 Q624.27 65.3249 628.239 63.2184 L628.239 70.267 Q624.229 71.9684 620.016 72.8596 Q615.803 73.7508 611.469 73.7508 Q600.612 73.7508 594.252 67.4314 Q587.933 61.1119 587.933 50.3365 Q587.933 39.1965 593.928 32.6746 Q599.964 26.1121 610.172 26.1121 Q619.327 26.1121 624.634 32.0264 Q629.981 37.9003 629.981 48.0275 M622.528 45.84 Q622.447 39.7232 619.084 36.0774 Q615.763 32.4315 610.253 32.4315 Q604.015 32.4315 600.248 35.9558 Q596.521 39.4801 595.954 45.8805 L622.528 45.84 Z" fill="#000000" fill-rule="evenodd" fill-opacity="1" /><path clip-path="url(#clip700)" d="M668.505 34.1734 Q667.25 33.4443 665.751 33.1202 Q664.293 32.7556 662.51 32.7556 Q656.191 32.7556 652.788 36.8875 Q649.426 40.9789 649.426 48.6757 L649.426 72.576 L641.932 72.576 L641.932 27.2059 L649.426 27.2059 L649.426 34.2544 Q651.775 30.1225 655.543 28.1376 Q659.31 26.1121 664.698 26.1121 Q665.467 26.1121 666.399 26.2337 Q667.331 26.3147 668.465 26.5172 L668.505 34.1734 Z" fill="#000000" fill-rule="evenodd" fill-opacity="1" /><path clip-path="url(#clip700)" d="M676.04 9.54393 L683.534 9.54393 L683.534 46.7717 L705.774 27.2059 L715.293 27.2059 L691.231 48.4326 L716.306 72.576 L706.584 72.576 L683.534 50.4176 L683.534 72.576 L676.04 72.576 L676.04 9.54393 Z" fill="#000000" fill-rule="evenodd" fill-opacity="1" /><path clip-path="url(#clip700)" d="M724.367 27.2059 L731.821 27.2059 L731.821 72.576 L724.367 72.576 L724.367 27.2059 M724.367 9.54393 L731.821 9.54393 L731.821 18.9825 L724.367 18.9825 L724.367 9.54393 Z" fill="#000000" fill-rule="evenodd" fill-opacity="1" /><path clip-path="url(#clip700)" d="M785.131 45.1919 L785.131 72.576 L777.677 72.576 L777.677 45.4349 Q777.677 38.994 775.166 35.7938 Q772.654 32.5936 767.631 32.5936 Q761.595 32.5936 758.111 36.4419 Q754.628 40.2903 754.628 46.9338 L754.628 72.576 L747.133 72.576 L747.133 27.2059 L754.628 27.2059 L754.628 34.2544 Q757.301 30.163 760.907 28.1376 Q764.552 26.1121 769.292 26.1121 Q777.11 26.1121 781.121 30.9732 Q785.131 35.7938 785.131 45.1919 Z" fill="#000000" fill-rule="evenodd" fill-opacity="1" /><path clip-path="url(#clip700)" d="M865.177 48.0275 L865.177 51.6733 L830.906 51.6733 Q831.392 59.3701 835.524 63.421 Q839.697 67.4314 847.11 67.4314 Q851.404 67.4314 855.414 66.3781 Q859.465 65.3249 863.435 63.2184 L863.435 70.267 Q859.425 71.9684 855.212 72.8596 Q850.999 73.7508 846.664 73.7508 Q835.808 73.7508 829.448 67.4314 Q823.128 61.1119 823.128 50.3365 Q823.128 39.1965 829.124 32.6746 Q835.16 26.1121 845.368 26.1121 Q854.523 26.1121 859.83 32.0264 Q865.177 37.9003 865.177 48.0275 M857.723 45.84 Q857.642 39.7232 854.28 36.0774 Q850.958 32.4315 845.449 32.4315 Q839.211 32.4315 835.443 35.9558 Q831.716 39.4801 831.149 45.8805 L857.723 45.84 Z" fill="#000000" fill-rule="evenodd" fill-opacity="1" /><path clip-path="url(#clip700)" d="M903.701 34.1734 Q902.445 33.4443 900.946 33.1202 Q899.488 32.7556 897.706 32.7556 Q891.386 32.7556 887.983 36.8875 Q884.621 40.9789 884.621 48.6757 L884.621 72.576 L877.127 72.576 L877.127 27.2059 L884.621 27.2059 L884.621 34.2544 Q886.971 30.1225 890.738 28.1376 Q894.505 26.1121 899.893 26.1121 Q900.663 26.1121 901.594 26.2337 Q902.526 26.3147 903.66 26.5172 L903.701 34.1734 Z" fill="#000000" fill-rule="evenodd" fill-opacity="1" /><path clip-path="url(#clip700)" d="M936.351 34.1734 Q935.095 33.4443 933.597 33.1202 Q932.138 32.7556 930.356 32.7556 Q924.036 32.7556 920.634 36.8875 Q917.271 40.9789 917.271 48.6757 L917.271 72.576 L909.777 72.576 L909.777 27.2059 L917.271 27.2059 L917.271 34.2544 Q919.621 30.1225 923.388 28.1376 Q927.156 26.1121 932.543 26.1121 Q933.313 26.1121 934.245 26.2337 Q935.176 26.3147 936.311 26.5172 L936.351 34.1734 Z" fill="#000000" fill-rule="evenodd" fill-opacity="1" /><path clip-path="url(#clip700)" d="M959.927 32.4315 Q953.932 32.4315 950.448 37.1306 Q946.965 41.7891 946.965 49.9314 Q946.965 58.0738 950.408 62.7728 Q953.892 67.4314 959.927 67.4314 Q965.882 67.4314 969.366 62.7323 Q972.85 58.0333 972.85 49.9314 Q972.85 41.8701 969.366 37.1711 Q965.882 32.4315 959.927 32.4315 M959.927 26.1121 Q969.65 26.1121 975.199 32.4315 Q980.749 38.7509 980.749 49.9314 Q980.749 61.0714 975.199 67.4314 Q969.65 73.7508 959.927 73.7508 Q950.165 73.7508 944.615 67.4314 Q939.106 61.0714 939.106 49.9314 Q939.106 38.7509 944.615 32.4315 Q950.165 26.1121 959.927 26.1121 Z" fill="#000000" fill-rule="evenodd" fill-opacity="1" /><path clip-path="url(#clip700)" d="M1019.39 34.1734 Q1018.14 33.4443 1016.64 33.1202 Q1015.18 32.7556 1013.4 32.7556 Q1007.08 32.7556 1003.68 36.8875 Q1000.32 40.9789 1000.32 48.6757 L1000.32 72.576 L992.821 72.576 L992.821 27.2059 L1000.32 27.2059 L1000.32 34.2544 Q1002.66 30.1225 1006.43 28.1376 Q1010.2 26.1121 1015.59 26.1121 Q1016.36 26.1121 1017.29 26.2337 Q1018.22 26.3147 1019.35 26.5172 L1019.39 34.1734 Z" fill="#000000" fill-rule="evenodd" fill-opacity="1" /><path clip-path="url(#clip700)" d="M1027.66 62.2867 L1036.21 62.2867 L1036.21 72.576 L1027.66 72.576 L1027.66 62.2867 M1027.66 29.6769 L1036.21 29.6769 L1036.21 39.9662 L1027.66 39.9662 L1027.66 29.6769 Z" fill="#000000" fill-rule="evenodd" fill-opacity="1" /><path clip-path="url(#clip700)" d="M1098.63 17.4837 Q1092.31 17.4837 1089.11 23.7221 Q1085.95 29.92 1085.95 42.3968 Q1085.95 54.833 1089.11 61.0714 Q1092.31 67.2693 1098.63 67.2693 Q1104.99 67.2693 1108.15 61.0714 Q1111.35 54.833 1111.35 42.3968 Q1111.35 29.92 1108.15 23.7221 Q1104.99 17.4837 1098.63 17.4837 M1098.63 11.0023 Q1108.8 11.0023 1114.15 19.0636 Q1119.53 27.0843 1119.53 42.3968 Q1119.53 57.6687 1114.15 65.73 Q1108.8 73.7508 1098.63 73.7508 Q1088.46 73.7508 1083.07 65.73 Q1077.73 57.6687 1077.73 42.3968 Q1077.73 27.0843 1083.07 19.0636 Q1088.46 11.0023 1098.63 11.0023 Z" fill="#000000" fill-rule="evenodd" fill-opacity="1" /><path clip-path="url(#clip700)" d="M1133.91 62.2867 L1142.46 62.2867 L1142.46 72.576 L1133.91 72.576 L1133.91 62.2867 Z" fill="#000000" fill-rule="evenodd" fill-opacity="1" /><path clip-path="url(#clip700)" d="M1177.79 17.4837 Q1171.47 17.4837 1168.27 23.7221 Q1165.11 29.92 1165.11 42.3968 Q1165.11 54.833 1168.27 61.0714 Q1171.47 67.2693 1177.79 67.2693 Q1184.15 67.2693 1187.3 61.0714 Q1190.5 54.833 1190.5 42.3968 Q1190.5 29.92 1187.3 23.7221 Q1184.15 17.4837 1177.79 17.4837 M1177.79 11.0023 Q1187.95 11.0023 1193.3 19.0636 Q1198.69 27.0843 1198.69 42.3968 Q1198.69 57.6687 1193.3 65.73 Q1187.95 73.7508 1177.79 73.7508 Q1167.62 73.7508 1162.23 65.73 Q1156.88 57.6687 1156.88 42.3968 Q1156.88 27.0843 1162.23 19.0636 Q1167.62 11.0023 1177.79 11.0023 Z" fill="#000000" fill-rule="evenodd" fill-opacity="1" /><path clip-path="url(#clip700)" d="M1214.49 65.6895 L1227.85 65.6895 L1227.85 19.5497 L1213.31 22.4663 L1213.31 15.0127 L1227.77 12.096 L1235.96 12.096 L1235.96 65.6895 L1249.32 65.6895 L1249.32 72.576 L1214.49 72.576 L1214.49 65.6895 Z" fill="#000000" fill-rule="evenodd" fill-opacity="1" /><path clip-path="url(#clip700)" d="M1272.9 65.6895 L1301.46 65.6895 L1301.46 72.576 L1263.06 72.576 L1263.06 65.6895 Q1267.72 60.8689 1275.74 52.7671 Q1283.8 44.6248 1285.86 42.2752 Q1289.79 37.8598 1291.33 34.8216 Q1292.91 31.7429 1292.91 28.7857 Q1292.91 23.9651 1289.51 20.927 Q1286.15 17.8888 1280.72 17.8888 Q1276.87 17.8888 1272.58 19.2256 Q1268.32 20.5624 1263.46 23.2765 L1263.46 15.0127 Q1268.4 13.0277 1272.7 12.015 Q1276.99 11.0023 1280.56 11.0023 Q1289.95 11.0023 1295.54 15.7013 Q1301.14 20.4004 1301.14 28.2591 Q1301.14 31.9859 1299.72 35.3482 Q1298.34 38.6699 1294.65 43.2069 Q1293.64 44.3817 1288.21 50.0125 Q1282.78 55.6027 1272.9 65.6895 Z" fill="#000000" fill-rule="evenodd" fill-opacity="1" /><path clip-path="url(#clip700)" d="M1337.15 39.075 Q1331.64 39.075 1328.4 42.8424 Q1325.2 46.6097 1325.2 53.1722 Q1325.2 59.6941 1328.4 63.502 Q1331.64 67.2693 1337.15 67.2693 Q1342.66 67.2693 1345.86 63.502 Q1349.1 59.6941 1349.1 53.1722 Q1349.1 46.6097 1345.86 42.8424 Q1342.66 39.075 1337.15 39.075 M1353.39 13.4328 L1353.39 20.8865 Q1350.31 19.4281 1347.15 18.6585 Q1344.03 17.8888 1340.96 17.8888 Q1332.85 17.8888 1328.56 23.3575 Q1324.31 28.8262 1323.7 39.8852 Q1326.09 36.3609 1329.69 34.4975 Q1333.3 32.5936 1337.63 32.5936 Q1346.75 32.5936 1352.01 38.1433 Q1357.32 43.6525 1357.32 53.1722 Q1357.32 62.4892 1351.81 68.12 Q1346.3 73.7508 1337.15 73.7508 Q1326.66 73.7508 1321.11 65.73 Q1315.56 57.6687 1315.56 42.3968 Q1315.56 28.0566 1322.36 19.5497 Q1329.17 11.0023 1340.63 11.0023 Q1343.71 11.0023 1346.83 11.6099 Q1349.99 12.2175 1353.39 13.4328 Z" fill="#000000" fill-rule="evenodd" fill-opacity="1" /><path clip-path="url(#clip700)" d="M1389.93 39.075 Q1384.42 39.075 1381.18 42.8424 Q1377.98 46.6097 1377.98 53.1722 Q1377.98 59.6941 1381.18 63.502 Q1384.42 67.2693 1389.93 67.2693 Q1395.44 67.2693 1398.64 63.502 Q1401.88 59.6941 1401.88 53.1722 Q1401.88 46.6097 1398.64 42.8424 Q1395.44 39.075 1389.93 39.075 M1406.18 13.4328 L1406.18 20.8865 Q1403.1 19.4281 1399.94 18.6585 Q1396.82 17.8888 1393.74 17.8888 Q1385.64 17.8888 1381.34 23.3575 Q1377.09 28.8262 1376.48 39.8852 Q1378.87 36.3609 1382.48 34.4975 Q1386.08 32.5936 1390.42 32.5936 Q1399.53 32.5936 1404.8 38.1433 Q1410.1 43.6525 1410.1 53.1722 Q1410.1 62.4892 1404.6 68.12 Q1399.09 73.7508 1389.93 73.7508 Q1379.44 73.7508 1373.89 65.73 Q1368.34 57.6687 1368.34 42.3968 Q1368.34 28.0566 1375.15 19.5497 Q1381.95 11.0023 1393.41 11.0023 Q1396.49 11.0023 1399.61 11.6099 Q1402.77 12.2175 1406.18 13.4328 Z" fill="#000000" fill-rule="evenodd" fill-opacity="1" /><path clip-path="url(#clip700)" d="M1441.7 43.8551 Q1435.87 43.8551 1432.51 46.9743 Q1429.18 50.0935 1429.18 55.5622 Q1429.18 61.0309 1432.51 64.1501 Q1435.87 67.2693 1441.7 67.2693 Q1447.53 67.2693 1450.9 64.1501 Q1454.26 60.9904 1454.26 55.5622 Q1454.26 50.0935 1450.9 46.9743 Q1447.58 43.8551 1441.7 43.8551 M1433.52 40.3713 Q1428.25 39.075 1425.3 35.4697 Q1422.38 31.8644 1422.38 26.6793 Q1422.38 19.4281 1427.52 15.2152 Q1432.71 11.0023 1441.7 11.0023 Q1450.74 11.0023 1455.88 15.2152 Q1461.02 19.4281 1461.02 26.6793 Q1461.02 31.8644 1458.07 35.4697 Q1455.15 39.075 1449.92 40.3713 Q1455.84 41.7486 1459.12 45.759 Q1462.44 49.7694 1462.44 55.5622 Q1462.44 64.3527 1457.05 69.0517 Q1451.71 73.7508 1441.7 73.7508 Q1431.7 73.7508 1426.31 69.0517 Q1420.96 64.3527 1420.96 55.5622 Q1420.96 49.7694 1424.28 45.759 Q1427.6 41.7486 1433.52 40.3713 M1430.52 27.4489 Q1430.52 32.148 1433.44 34.7811 Q1436.39 37.4142 1441.7 37.4142 Q1446.97 37.4142 1449.92 34.7811 Q1452.92 32.148 1452.92 27.4489 Q1452.92 22.7499 1449.92 20.1168 Q1446.97 17.4837 1441.7 17.4837 Q1436.39 17.4837 1433.44 20.1168 Q1430.52 22.7499 1430.52 27.4489 Z" fill="#000000" fill-rule="evenodd" fill-opacity="1" /><path clip-path="url(#clip700)" d="M1478.4 65.6895 L1491.77 65.6895 L1491.77 19.5497 L1477.23 22.4663 L1477.23 15.0127 L1491.69 12.096 L1499.87 12.096 L1499.87 65.6895 L1513.24 65.6895 L1513.24 72.576 L1478.4 72.576 L1478.4 65.6895 Z" fill="#000000" fill-rule="evenodd" fill-opacity="1" /><path clip-path="url(#clip700)" d="M1547.27 43.8551 Q1541.43 43.8551 1538.07 46.9743 Q1534.75 50.0935 1534.75 55.5622 Q1534.75 61.0309 1538.07 64.1501 Q1541.43 67.2693 1547.27 67.2693 Q1553.1 67.2693 1556.46 64.1501 Q1559.83 60.9904 1559.83 55.5622 Q1559.83 50.0935 1556.46 46.9743 Q1553.14 43.8551 1547.27 43.8551 M1539.09 40.3713 Q1533.82 39.075 1530.86 35.4697 Q1527.95 31.8644 1527.95 26.6793 Q1527.95 19.4281 1533.09 15.2152 Q1538.28 11.0023 1547.27 11.0023 Q1556.3 11.0023 1561.45 15.2152 Q1566.59 19.4281 1566.59 26.6793 Q1566.59 31.8644 1563.63 35.4697 Q1560.72 39.075 1555.49 40.3713 Q1561.41 41.7486 1564.69 45.759 Q1568.01 49.7694 1568.01 55.5622 Q1568.01 64.3527 1562.62 69.0517 Q1557.27 73.7508 1547.27 73.7508 Q1537.26 73.7508 1531.87 69.0517 Q1526.53 64.3527 1526.53 55.5622 Q1526.53 49.7694 1529.85 45.759 Q1533.17 41.7486 1539.09 40.3713 M1536.09 27.4489 Q1536.09 32.148 1539 34.7811 Q1541.96 37.4142 1547.27 37.4142 Q1552.53 37.4142 1555.49 34.7811 Q1558.49 32.148 1558.49 27.4489 Q1558.49 22.7499 1555.49 20.1168 Q1552.53 17.4837 1547.27 17.4837 Q1541.96 17.4837 1539 20.1168 Q1536.09 22.7499 1536.09 27.4489 Z" fill="#000000" fill-rule="evenodd" fill-opacity="1" /><path clip-path="url(#clip700)" d="M1600.05 43.8551 Q1594.22 43.8551 1590.86 46.9743 Q1587.53 50.0935 1587.53 55.5622 Q1587.53 61.0309 1590.86 64.1501 Q1594.22 67.2693 1600.05 67.2693 Q1605.88 67.2693 1609.25 64.1501 Q1612.61 60.9904 1612.61 55.5622 Q1612.61 50.0935 1609.25 46.9743 Q1605.93 43.8551 1600.05 43.8551 M1591.87 40.3713 Q1586.6 39.075 1583.65 35.4697 Q1580.73 31.8644 1580.73 26.6793 Q1580.73 19.4281 1585.87 15.2152 Q1591.06 11.0023 1600.05 11.0023 Q1609.08 11.0023 1614.23 15.2152 Q1619.37 19.4281 1619.37 26.6793 Q1619.37 31.8644 1616.42 35.4697 Q1613.5 39.075 1608.27 40.3713 Q1614.19 41.7486 1617.47 45.759 Q1620.79 49.7694 1620.79 55.5622 Q1620.79 64.3527 1615.4 69.0517 Q1610.06 73.7508 1600.05 73.7508 Q1590.05 73.7508 1584.66 69.0517 Q1579.31 64.3527 1579.31 55.5622 Q1579.31 49.7694 1582.63 45.759 Q1585.95 41.7486 1591.87 40.3713 M1588.87 27.4489 Q1588.87 32.148 1591.79 34.7811 Q1594.74 37.4142 1600.05 37.4142 Q1605.32 37.4142 1608.27 34.7811 Q1611.27 32.148 1611.27 27.4489 Q1611.27 22.7499 1608.27 20.1168 Q1605.32 17.4837 1600.05 17.4837 Q1594.74 17.4837 1591.79 20.1168 Q1588.87 22.7499 1588.87 27.4489 Z" fill="#000000" fill-rule="evenodd" fill-opacity="1" /><path clip-path="url(#clip700)" d="M1642.38 65.6895 L1670.94 65.6895 L1670.94 72.576 L1632.54 72.576 L1632.54 65.6895 Q1637.2 60.8689 1645.22 52.7671 Q1653.28 44.6248 1655.35 42.2752 Q1659.28 37.8598 1660.81 34.8216 Q1662.39 31.7429 1662.39 28.7857 Q1662.39 23.9651 1658.99 20.927 Q1655.63 17.8888 1650.2 17.8888 Q1646.35 17.8888 1642.06 19.2256 Q1637.81 20.5624 1632.94 23.2765 L1632.94 15.0127 Q1637.89 13.0277 1642.18 12.015 Q1646.47 11.0023 1650.04 11.0023 Q1659.44 11.0023 1665.03 15.7013 Q1670.62 20.4004 1670.62 28.2591 Q1670.62 31.9859 1669.2 35.3482 Q1667.82 38.6699 1664.14 43.2069 Q1663.12 44.3817 1657.7 50.0125 Q1652.27 55.6027 1642.38 65.6895 Z" fill="#000000" fill-rule="evenodd" fill-opacity="1" /><path clip-path="url(#clip700)" d="M1688.2 12.096 L1720.32 12.096 L1720.32 18.9825 L1695.69 18.9825 L1695.69 33.8088 Q1697.48 33.2012 1699.26 32.9176 Q1701.04 32.5936 1702.82 32.5936 Q1712.95 32.5936 1718.86 38.1433 Q1724.78 43.6931 1724.78 53.1722 Q1724.78 62.9348 1718.7 68.3631 Q1712.63 73.7508 1701.57 73.7508 Q1697.76 73.7508 1693.79 73.1026 Q1689.86 72.4545 1685.65 71.1582 L1685.65 62.9348 Q1689.29 64.9198 1693.18 65.892 Q1697.07 66.8642 1701.41 66.8642 Q1708.41 66.8642 1712.5 63.1779 Q1716.6 59.4916 1716.6 53.1722 Q1716.6 46.8528 1712.5 43.1664 Q1708.41 39.4801 1701.41 39.4801 Q1698.12 39.4801 1694.84 40.2093 Q1691.6 40.9384 1688.2 42.4778 L1688.2 12.096 Z" fill="#000000" fill-rule="evenodd" fill-opacity="1" /><path clip-path="url(#clip700)" d="M1747.95 65.6895 L1776.51 65.6895 L1776.51 72.576 L1738.11 72.576 L1738.11 65.6895 Q1742.76 60.8689 1750.79 52.7671 Q1758.85 44.6248 1760.91 42.2752 Q1764.84 37.8598 1766.38 34.8216 Q1767.96 31.7429 1767.96 28.7857 Q1767.96 23.9651 1764.56 20.927 Q1761.2 17.8888 1755.77 17.8888 Q1751.92 17.8888 1747.63 19.2256 Q1743.37 20.5624 1738.51 23.2765 L1738.51 15.0127 Q1743.45 13.0277 1747.75 12.015 Q1752.04 11.0023 1755.61 11.0023 Q1765 11.0023 1770.59 15.7013 Q1776.18 20.4004 1776.18 28.2591 Q1776.18 31.9859 1774.77 35.3482 Q1773.39 38.6699 1769.7 43.2069 Q1768.69 44.3817 1763.26 50.0125 Q1757.83 55.6027 1747.95 65.6895 Z" fill="#000000" fill-rule="evenodd" fill-opacity="1" /><path clip-path="url(#clip700)" d="M1811.18 43.8551 Q1805.35 43.8551 1801.99 46.9743 Q1798.67 50.0935 1798.67 55.5622 Q1798.67 61.0309 1801.99 64.1501 Q1805.35 67.2693 1811.18 67.2693 Q1817.02 67.2693 1820.38 64.1501 Q1823.74 60.9904 1823.74 55.5622 Q1823.74 50.0935 1820.38 46.9743 Q1817.06 43.8551 1811.18 43.8551 M1803 40.3713 Q1797.74 39.075 1794.78 35.4697 Q1791.86 31.8644 1791.86 26.6793 Q1791.86 19.4281 1797.01 15.2152 Q1802.19 11.0023 1811.18 11.0023 Q1820.22 11.0023 1825.36 15.2152 Q1830.51 19.4281 1830.51 26.6793 Q1830.51 31.8644 1827.55 35.4697 Q1824.63 39.075 1819.41 40.3713 Q1825.32 41.7486 1828.6 45.759 Q1831.93 49.7694 1831.93 55.5622 Q1831.93 64.3527 1826.54 69.0517 Q1821.19 73.7508 1811.18 73.7508 Q1801.18 73.7508 1795.79 69.0517 Q1790.44 64.3527 1790.44 55.5622 Q1790.44 49.7694 1793.77 45.759 Q1797.09 41.7486 1803 40.3713 M1800 27.4489 Q1800 32.148 1802.92 34.7811 Q1805.88 37.4142 1811.18 37.4142 Q1816.45 37.4142 1819.41 34.7811 Q1822.41 32.148 1822.41 27.4489 Q1822.41 22.7499 1819.41 20.1168 Q1816.45 17.4837 1811.18 17.4837 Q1805.88 17.4837 1802.92 20.1168 Q1800 22.7499 1800 27.4489 Z" fill="#000000" fill-rule="evenodd" fill-opacity="1" /><path clip-path="url(#clip700)" d="M1871.26 39.9662 Q1877.13 41.222 1880.41 45.1919 Q1883.74 49.1618 1883.74 54.9951 Q1883.74 63.9476 1877.58 68.8492 Q1871.42 73.7508 1860.08 73.7508 Q1856.27 73.7508 1852.22 72.9811 Q1848.21 72.2519 1843.92 70.7531 L1843.92 62.8538 Q1847.32 64.8388 1851.37 65.8515 Q1855.42 66.8642 1859.84 66.8642 Q1867.53 66.8642 1871.54 63.826 Q1875.59 60.7879 1875.59 54.9951 Q1875.59 49.6479 1871.83 46.6502 Q1868.1 43.612 1861.42 43.612 L1854.37 43.612 L1854.37 36.8875 L1861.74 36.8875 Q1867.78 36.8875 1870.98 34.4975 Q1874.18 32.067 1874.18 27.5299 Q1874.18 22.8714 1870.85 20.4004 Q1867.57 17.8888 1861.42 17.8888 Q1858.05 17.8888 1854.21 18.618 Q1850.36 19.3471 1845.74 20.8865 L1845.74 13.5948 Q1850.4 12.2985 1854.45 11.6504 Q1858.54 11.0023 1862.14 11.0023 Q1871.46 11.0023 1876.89 15.2557 Q1882.32 19.4686 1882.32 26.6793 Q1882.32 31.7024 1879.44 35.1862 Q1876.57 38.6294 1871.26 39.9662 Z" fill="#000000" fill-rule="evenodd" fill-opacity="1" /><path clip-path="url(#clip700)" d="M1921.73 19.2256 L1901.07 51.5113 L1921.73 51.5113 L1921.73 19.2256 M1919.59 12.096 L1929.88 12.096 L1929.88 51.5113 L1938.5 51.5113 L1938.5 58.3168 L1929.88 58.3168 L1929.88 72.576 L1921.73 72.576 L1921.73 58.3168 L1894.43 58.3168 L1894.43 50.4176 L1919.59 12.096 Z" fill="#000000" fill-rule="evenodd" fill-opacity="1" /><path clip-path="url(#clip700)" d="M1949.97 12.096 L1988.86 12.096 L1988.86 15.5798 L1966.9 72.576 L1958.35 72.576 L1979.01 18.9825 L1949.97 18.9825 L1949.97 12.096 Z" fill="#000000" fill-rule="evenodd" fill-opacity="1" /><path clip-path="url(#clip700)" d="M2002.75 12.096 L2041.64 12.096 L2041.64 15.5798 L2019.68 72.576 L2011.14 72.576 L2031.8 18.9825 L2002.75 18.9825 L2002.75 12.096 Z" fill="#000000" fill-rule="evenodd" fill-opacity="1" /><path clip-path="url(#clip700)" d="M2080.08 19.2256 L2059.42 51.5113 L2080.08 51.5113 L2080.08 19.2256 M2077.94 12.096 L2088.23 12.096 L2088.23 51.5113 L2096.85 51.5113 L2096.85 58.3168 L2088.23 58.3168 L2088.23 72.576 L2080.08 72.576 L2080.08 58.3168 L2052.78 58.3168 L2052.78 50.4176 L2077.94 12.096 Z" fill="#000000" fill-rule="evenodd" fill-opacity="1" /><polyline clip-path="url(#clip702)" style="stroke:#009af9; stroke-linecap:butt; stroke-linejoin:round; stroke-width:16; stroke-opacity:1; fill:none" points="
  255.035,1441.18 274.644,1447.87 320.273,1444.48 390.594,1446.98 483.78,1444.44 597.415,1445.24 728.557,1439.19 873.808,1421.76 1029.41,1338.59 1191.33,1050.08 
  1355.37,559.836 1517.28,271.332 1672.88,188.156 1818.14,170.729 1949.28,164.683 2062.91,165.477 2156.1,162.936 2226.42,165.445 2272.05,162.047 2291.66,168.742 
  
  "/>
<line clip-path="url(#clip702)" x1="255.035" y1="1441.18" x2="255.035" y2="1425.18" style="stroke:#009af9; stroke-width:3.2; stroke-opacity:1"/>
<line clip-path="url(#clip702)" x1="255.035" y1="1441.18" x2="239.035" y2="1441.18" style="stroke:#009af9; stroke-width:3.2; stroke-opacity:1"/>
<line clip-path="url(#clip702)" x1="255.035" y1="1441.18" x2="255.035" y2="1457.18" style="stroke:#009af9; stroke-width:3.2; stroke-opacity:1"/>
<line clip-path="url(#clip702)" x1="255.035" y1="1441.18" x2="271.035" y2="1441.18" style="stroke:#009af9; stroke-width:3.2; stroke-opacity:1"/>
<line clip-path="url(#clip702)" x1="274.644" y1="1447.87" x2="274.644" y2="1431.87" style="stroke:#009af9; stroke-width:3.2; stroke-opacity:1"/>
<line clip-path="url(#clip702)" x1="274.644" y1="1447.87" x2="258.644" y2="1447.87" style="stroke:#009af9; stroke-width:3.2; stroke-opacity:1"/>
<line clip-path="url(#clip702)" x1="274.644" y1="1447.87" x2="274.644" y2="1463.87" style="stroke:#009af9; stroke-width:3.2; stroke-opacity:1"/>
<line clip-path="url(#clip702)" x1="274.644" y1="1447.87" x2="290.644" y2="1447.87" style="stroke:#009af9; stroke-width:3.2; stroke-opacity:1"/>
<line clip-path="url(#clip702)" x1="320.273" y1="1444.48" x2="320.273" y2="1428.48" style="stroke:#009af9; stroke-width:3.2; stroke-opacity:1"/>
<line clip-path="url(#clip702)" x1="320.273" y1="1444.48" x2="304.273" y2="1444.48" style="stroke:#009af9; stroke-width:3.2; stroke-opacity:1"/>
<line clip-path="url(#clip702)" x1="320.273" y1="1444.48" x2="320.273" y2="1460.48" style="stroke:#009af9; stroke-width:3.2; stroke-opacity:1"/>
<line clip-path="url(#clip702)" x1="320.273" y1="1444.48" x2="336.273" y2="1444.48" style="stroke:#009af9; stroke-width:3.2; stroke-opacity:1"/>
<line clip-path="url(#clip702)" x1="390.594" y1="1446.98" x2="390.594" y2="1430.98" style="stroke:#009af9; stroke-width:3.2; stroke-opacity:1"/>
<line clip-path="url(#clip702)" x1="390.594" y1="1446.98" x2="374.594" y2="1446.98" style="stroke:#009af9; stroke-width:3.2; stroke-opacity:1"/>
<line clip-path="url(#clip702)" x1="390.594" y1="1446.98" x2="390.594" y2="1462.98" style="stroke:#009af9; stroke-width:3.2; stroke-opacity:1"/>
<line clip-path="url(#clip702)" x1="390.594" y1="1446.98" x2="406.594" y2="1446.98" style="stroke:#009af9; stroke-width:3.2; stroke-opacity:1"/>
<line clip-path="url(#clip702)" x1="483.78" y1="1444.44" x2="483.78" y2="1428.44" style="stroke:#009af9; stroke-width:3.2; stroke-opacity:1"/>
<line clip-path="url(#clip702)" x1="483.78" y1="1444.44" x2="467.78" y2="1444.44" style="stroke:#009af9; stroke-width:3.2; stroke-opacity:1"/>
<line clip-path="url(#clip702)" x1="483.78" y1="1444.44" x2="483.78" y2="1460.44" style="stroke:#009af9; stroke-width:3.2; stroke-opacity:1"/>
<line clip-path="url(#clip702)" x1="483.78" y1="1444.44" x2="499.78" y2="1444.44" style="stroke:#009af9; stroke-width:3.2; stroke-opacity:1"/>
<line clip-path="url(#clip702)" x1="597.415" y1="1445.24" x2="597.415" y2="1429.24" style="stroke:#009af9; stroke-width:3.2; stroke-opacity:1"/>
<line clip-path="url(#clip702)" x1="597.415" y1="1445.24" x2="581.415" y2="1445.24" style="stroke:#009af9; stroke-width:3.2; stroke-opacity:1"/>
<line clip-path="url(#clip702)" x1="597.415" y1="1445.24" x2="597.415" y2="1461.24" style="stroke:#009af9; stroke-width:3.2; stroke-opacity:1"/>
<line clip-path="url(#clip702)" x1="597.415" y1="1445.24" x2="613.415" y2="1445.24" style="stroke:#009af9; stroke-width:3.2; stroke-opacity:1"/>
<line clip-path="url(#clip702)" x1="728.557" y1="1439.19" x2="728.557" y2="1423.19" style="stroke:#009af9; stroke-width:3.2; stroke-opacity:1"/>
<line clip-path="url(#clip702)" x1="728.557" y1="1439.19" x2="712.557" y2="1439.19" style="stroke:#009af9; stroke-width:3.2; stroke-opacity:1"/>
<line clip-path="url(#clip702)" x1="728.557" y1="1439.19" x2="728.557" y2="1455.19" style="stroke:#009af9; stroke-width:3.2; stroke-opacity:1"/>
<line clip-path="url(#clip702)" x1="728.557" y1="1439.19" x2="744.557" y2="1439.19" style="stroke:#009af9; stroke-width:3.2; stroke-opacity:1"/>
<line clip-path="url(#clip702)" x1="873.808" y1="1421.76" x2="873.808" y2="1405.76" style="stroke:#009af9; stroke-width:3.2; stroke-opacity:1"/>
<line clip-path="url(#clip702)" x1="873.808" y1="1421.76" x2="857.808" y2="1421.76" style="stroke:#009af9; stroke-width:3.2; stroke-opacity:1"/>
<line clip-path="url(#clip702)" x1="873.808" y1="1421.76" x2="873.808" y2="1437.76" style="stroke:#009af9; stroke-width:3.2; stroke-opacity:1"/>
<line clip-path="url(#clip702)" x1="873.808" y1="1421.76" x2="889.808" y2="1421.76" style="stroke:#009af9; stroke-width:3.2; stroke-opacity:1"/>
<line clip-path="url(#clip702)" x1="1029.41" y1="1338.59" x2="1029.41" y2="1322.59" style="stroke:#009af9; stroke-width:3.2; stroke-opacity:1"/>
<line clip-path="url(#clip702)" x1="1029.41" y1="1338.59" x2="1013.41" y2="1338.59" style="stroke:#009af9; stroke-width:3.2; stroke-opacity:1"/>
<line clip-path="url(#clip702)" x1="1029.41" y1="1338.59" x2="1029.41" y2="1354.59" style="stroke:#009af9; stroke-width:3.2; stroke-opacity:1"/>
<line clip-path="url(#clip702)" x1="1029.41" y1="1338.59" x2="1045.41" y2="1338.59" style="stroke:#009af9; stroke-width:3.2; stroke-opacity:1"/>
<line clip-path="url(#clip702)" x1="1191.33" y1="1050.08" x2="1191.33" y2="1034.08" style="stroke:#009af9; stroke-width:3.2; stroke-opacity:1"/>
<line clip-path="url(#clip702)" x1="1191.33" y1="1050.08" x2="1175.33" y2="1050.08" style="stroke:#009af9; stroke-width:3.2; stroke-opacity:1"/>
<line clip-path="url(#clip702)" x1="1191.33" y1="1050.08" x2="1191.33" y2="1066.08" style="stroke:#009af9; stroke-width:3.2; stroke-opacity:1"/>
<line clip-path="url(#clip702)" x1="1191.33" y1="1050.08" x2="1207.33" y2="1050.08" style="stroke:#009af9; stroke-width:3.2; stroke-opacity:1"/>
<line clip-path="url(#clip702)" x1="1355.37" y1="559.836" x2="1355.37" y2="543.836" style="stroke:#009af9; stroke-width:3.2; stroke-opacity:1"/>
<line clip-path="url(#clip702)" x1="1355.37" y1="559.836" x2="1339.37" y2="559.836" style="stroke:#009af9; stroke-width:3.2; stroke-opacity:1"/>
<line clip-path="url(#clip702)" x1="1355.37" y1="559.836" x2="1355.37" y2="575.836" style="stroke:#009af9; stroke-width:3.2; stroke-opacity:1"/>
<line clip-path="url(#clip702)" x1="1355.37" y1="559.836" x2="1371.37" y2="559.836" style="stroke:#009af9; stroke-width:3.2; stroke-opacity:1"/>
<line clip-path="url(#clip702)" x1="1517.28" y1="271.332" x2="1517.28" y2="255.332" style="stroke:#009af9; stroke-width:3.2; stroke-opacity:1"/>
<line clip-path="url(#clip702)" x1="1517.28" y1="271.332" x2="1501.28" y2="271.332" style="stroke:#009af9; stroke-width:3.2; stroke-opacity:1"/>
<line clip-path="url(#clip702)" x1="1517.28" y1="271.332" x2="1517.28" y2="287.332" style="stroke:#009af9; stroke-width:3.2; stroke-opacity:1"/>
<line clip-path="url(#clip702)" x1="1517.28" y1="271.332" x2="1533.28" y2="271.332" style="stroke:#009af9; stroke-width:3.2; stroke-opacity:1"/>
<line clip-path="url(#clip702)" x1="1672.88" y1="188.156" x2="1672.88" y2="172.156" style="stroke:#009af9; stroke-width:3.2; stroke-opacity:1"/>
<line clip-path="url(#clip702)" x1="1672.88" y1="188.156" x2="1656.88" y2="188.156" style="stroke:#009af9; stroke-width:3.2; stroke-opacity:1"/>
<line clip-path="url(#clip702)" x1="1672.88" y1="188.156" x2="1672.88" y2="204.156" style="stroke:#009af9; stroke-width:3.2; stroke-opacity:1"/>
<line clip-path="url(#clip702)" x1="1672.88" y1="188.156" x2="1688.88" y2="188.156" style="stroke:#009af9; stroke-width:3.2; stroke-opacity:1"/>
<line clip-path="url(#clip702)" x1="1818.14" y1="170.729" x2="1818.14" y2="154.729" style="stroke:#009af9; stroke-width:3.2; stroke-opacity:1"/>
<line clip-path="url(#clip702)" x1="1818.14" y1="170.729" x2="1802.14" y2="170.729" style="stroke:#009af9; stroke-width:3.2; stroke-opacity:1"/>
<line clip-path="url(#clip702)" x1="1818.14" y1="170.729" x2="1818.14" y2="186.729" style="stroke:#009af9; stroke-width:3.2; stroke-opacity:1"/>
<line clip-path="url(#clip702)" x1="1818.14" y1="170.729" x2="1834.14" y2="170.729" style="stroke:#009af9; stroke-width:3.2; stroke-opacity:1"/>
<line clip-path="url(#clip702)" x1="1949.28" y1="164.683" x2="1949.28" y2="148.683" style="stroke:#009af9; stroke-width:3.2; stroke-opacity:1"/>
<line clip-path="url(#clip702)" x1="1949.28" y1="164.683" x2="1933.28" y2="164.683" style="stroke:#009af9; stroke-width:3.2; stroke-opacity:1"/>
<line clip-path="url(#clip702)" x1="1949.28" y1="164.683" x2="1949.28" y2="180.683" style="stroke:#009af9; stroke-width:3.2; stroke-opacity:1"/>
<line clip-path="url(#clip702)" x1="1949.28" y1="164.683" x2="1965.28" y2="164.683" style="stroke:#009af9; stroke-width:3.2; stroke-opacity:1"/>
<line clip-path="url(#clip702)" x1="2062.91" y1="165.477" x2="2062.91" y2="149.477" style="stroke:#009af9; stroke-width:3.2; stroke-opacity:1"/>
<line clip-path="url(#clip702)" x1="2062.91" y1="165.477" x2="2046.91" y2="165.477" style="stroke:#009af9; stroke-width:3.2; stroke-opacity:1"/>
<line clip-path="url(#clip702)" x1="2062.91" y1="165.477" x2="2062.91" y2="181.477" style="stroke:#009af9; stroke-width:3.2; stroke-opacity:1"/>
<line clip-path="url(#clip702)" x1="2062.91" y1="165.477" x2="2078.91" y2="165.477" style="stroke:#009af9; stroke-width:3.2; stroke-opacity:1"/>
<line clip-path="url(#clip702)" x1="2156.1" y1="162.936" x2="2156.1" y2="146.936" style="stroke:#009af9; stroke-width:3.2; stroke-opacity:1"/>
<line clip-path="url(#clip702)" x1="2156.1" y1="162.936" x2="2140.1" y2="162.936" style="stroke:#009af9; stroke-width:3.2; stroke-opacity:1"/>
<line clip-path="url(#clip702)" x1="2156.1" y1="162.936" x2="2156.1" y2="178.936" style="stroke:#009af9; stroke-width:3.2; stroke-opacity:1"/>
<line clip-path="url(#clip702)" x1="2156.1" y1="162.936" x2="2172.1" y2="162.936" style="stroke:#009af9; stroke-width:3.2; stroke-opacity:1"/>
<line clip-path="url(#clip702)" x1="2226.42" y1="165.445" x2="2226.42" y2="149.445" style="stroke:#009af9; stroke-width:3.2; stroke-opacity:1"/>
<line clip-path="url(#clip702)" x1="2226.42" y1="165.445" x2="2210.42" y2="165.445" style="stroke:#009af9; stroke-width:3.2; stroke-opacity:1"/>
<line clip-path="url(#clip702)" x1="2226.42" y1="165.445" x2="2226.42" y2="181.445" style="stroke:#009af9; stroke-width:3.2; stroke-opacity:1"/>
<line clip-path="url(#clip702)" x1="2226.42" y1="165.445" x2="2242.42" y2="165.445" style="stroke:#009af9; stroke-width:3.2; stroke-opacity:1"/>
<line clip-path="url(#clip702)" x1="2272.05" y1="162.047" x2="2272.05" y2="146.047" style="stroke:#009af9; stroke-width:3.2; stroke-opacity:1"/>
<line clip-path="url(#clip702)" x1="2272.05" y1="162.047" x2="2256.05" y2="162.047" style="stroke:#009af9; stroke-width:3.2; stroke-opacity:1"/>
<line clip-path="url(#clip702)" x1="2272.05" y1="162.047" x2="2272.05" y2="178.047" style="stroke:#009af9; stroke-width:3.2; stroke-opacity:1"/>
<line clip-path="url(#clip702)" x1="2272.05" y1="162.047" x2="2288.05" y2="162.047" style="stroke:#009af9; stroke-width:3.2; stroke-opacity:1"/>
<line clip-path="url(#clip702)" x1="2291.66" y1="168.742" x2="2291.66" y2="152.742" style="stroke:#009af9; stroke-width:3.2; stroke-opacity:1"/>
<line clip-path="url(#clip702)" x1="2291.66" y1="168.742" x2="2275.66" y2="168.742" style="stroke:#009af9; stroke-width:3.2; stroke-opacity:1"/>
<line clip-path="url(#clip702)" x1="2291.66" y1="168.742" x2="2291.66" y2="184.742" style="stroke:#009af9; stroke-width:3.2; stroke-opacity:1"/>
<line clip-path="url(#clip702)" x1="2291.66" y1="168.742" x2="2307.66" y2="168.742" style="stroke:#009af9; stroke-width:3.2; stroke-opacity:1"/>
<polyline clip-path="url(#clip702)" style="stroke:#e26f46; stroke-linecap:butt; stroke-linejoin:round; stroke-width:16; stroke-opacity:1; fill:none" points="
  255.035,1445.96 268.294,1445.95 390.898,1445.8 464.577,1445.56 526.872,1445.18 594.542,1444.39 656.928,1443.01 723.812,1440.23 801.304,1433.7 835.737,1428.81 
  870.17,1422.02 900.364,1413.94 930.558,1403.24 947.018,1396.02 963.478,1387.65 979.938,1377.96 996.398,1366.75 1012.96,1353.77 1029.51,1338.84 1046.07,1321.75 
  1062.63,1302.27 1071.78,1290.39 1080.94,1277.67 1090.09,1264.09 1099.24,1249.6 1108.4,1234.18 1117.55,1217.8 1126.7,1200.45 1135.86,1182.1 1144.57,1163.73 
  1153.28,1144.45 1161.98,1124.28 1170.69,1103.23 1188.11,1058.61 1205.53,1010.86 1223.64,958.376 1241.75,903.612 1259.86,847.333 1277.98,790.389 1293.22,742.596 
  1308.47,695.493 1323.71,649.577 1338.96,605.294 1348.27,579.231 1357.57,553.992 1366.88,529.641 1376.19,506.225 1385.49,483.786 1394.8,462.351 1404.11,441.937 
  1413.41,422.552 1421.94,405.696 1430.46,389.697 1438.99,374.542 1447.51,360.215 1464.57,333.963 1481.62,310.747 1497.36,291.805 1513.11,275.068 1528.86,260.338 
  1544.61,247.42 1560.56,235.991 1576.51,226.045 1592.46,217.41 1608.42,209.93 1626.29,202.743 1644.17,196.649 1662.05,191.49 1679.93,187.128 1712.33,180.882 
  1744.73,176.299 1818.92,169.915 1887.62,166.972 1955.34,165.482 2021.1,164.731 2088.51,164.33 2162.36,164.109 2269.65,163.974 2291.66,163.96 
  "/>
<path clip-path="url(#clip700)" d="
M1988.5 1441.02 L2280.8 1441.02 L2280.8 1285.5 L1988.5 1285.5  Z
  " fill="#ffffff" fill-rule="evenodd" fill-opacity="1"/>
<polyline clip-path="url(#clip700)" style="stroke:#000000; stroke-linecap:butt; stroke-linejoin:round; stroke-width:4; stroke-opacity:1; fill:none" points="
  1988.5,1441.02 2280.8,1441.02 2280.8,1285.5 1988.5,1285.5 1988.5,1441.02 
  "/>
<polyline clip-path="url(#clip700)" style="stroke:#009af9; stroke-linecap:butt; stroke-linejoin:round; stroke-width:4; stroke-opacity:1; fill:none" points="
  2012.48,1337.34 2156.4,1337.34 
  "/>
<line clip-path="url(#clip700)" x1="2084.44" y1="1337.34" x2="2084.44" y2="1311.74" style="stroke:#009af9; stroke-width:5.12; stroke-opacity:1"/>
<line clip-path="url(#clip700)" x1="2084.44" y1="1337.34" x2="2058.84" y2="1337.34" style="stroke:#009af9; stroke-width:5.12; stroke-opacity:1"/>
<line clip-path="url(#clip700)" x1="2084.44" y1="1337.34" x2="2084.44" y2="1362.94" style="stroke:#009af9; stroke-width:5.12; stroke-opacity:1"/>
<line clip-path="url(#clip700)" x1="2084.44" y1="1337.34" x2="2110.04" y2="1337.34" style="stroke:#009af9; stroke-width:5.12; stroke-opacity:1"/>
<path clip-path="url(#clip700)" d="M2194.23 1357.02 Q2192.43 1361.65 2190.72 1363.06 Q2189 1364.48 2186.13 1364.48 L2182.73 1364.48 L2182.73 1360.91 L2185.23 1360.91 Q2186.99 1360.91 2187.96 1360.08 Q2188.93 1359.24 2190.11 1356.14 L2190.88 1354.2 L2180.39 1328.69 L2184.91 1328.69 L2193.01 1348.97 L2201.11 1328.69 L2205.62 1328.69 L2194.23 1357.02 Z" fill="#000000" fill-rule="evenodd" fill-opacity="1" /><path clip-path="url(#clip700)" d="M2212.91 1350.68 L2220.55 1350.68 L2220.55 1324.31 L2212.24 1325.98 L2212.24 1321.72 L2220.51 1320.06 L2225.18 1320.06 L2225.18 1350.68 L2232.82 1350.68 L2232.82 1354.62 L2212.91 1354.62 L2212.91 1350.68 Z" fill="#000000" fill-rule="evenodd" fill-opacity="1" /><polyline clip-path="url(#clip700)" style="stroke:#e26f46; stroke-linecap:butt; stroke-linejoin:round; stroke-width:4; stroke-opacity:1; fill:none" points="
  2012.48,1389.18 2156.4,1389.18 
  "/>
<path clip-path="url(#clip700)" d="M2194.23 1408.86 Q2192.43 1413.49 2190.72 1414.9 Q2189 1416.32 2186.13 1416.32 L2182.73 1416.32 L2182.73 1412.75 L2185.23 1412.75 Q2186.99 1412.75 2187.96 1411.92 Q2188.93 1411.08 2190.11 1407.98 L2190.88 1406.04 L2180.39 1380.53 L2184.91 1380.53 L2193.01 1400.81 L2201.11 1380.53 L2205.62 1380.53 L2194.23 1408.86 Z" fill="#000000" fill-rule="evenodd" fill-opacity="1" /><path clip-path="url(#clip700)" d="M2216.13 1402.52 L2232.45 1402.52 L2232.45 1406.46 L2210.51 1406.46 L2210.51 1402.52 Q2213.17 1399.77 2217.75 1395.14 Q2222.36 1390.48 2223.54 1389.14 Q2225.78 1386.62 2226.66 1384.88 Q2227.57 1383.12 2227.57 1381.43 Q2227.57 1378.68 2225.62 1376.94 Q2223.7 1375.21 2220.6 1375.21 Q2218.4 1375.21 2215.95 1375.97 Q2213.52 1376.73 2210.74 1378.28 L2210.74 1373.56 Q2213.56 1372.43 2216.02 1371.85 Q2218.47 1371.27 2220.51 1371.27 Q2225.88 1371.27 2229.07 1373.96 Q2232.27 1376.64 2232.27 1381.13 Q2232.27 1383.26 2231.46 1385.18 Q2230.67 1387.08 2228.56 1389.67 Q2227.98 1390.34 2224.88 1393.56 Q2221.78 1396.76 2216.13 1402.52 Z" fill="#000000" fill-rule="evenodd" fill-opacity="1" /></svg>
