<?xml version="1.0" encoding="utf-8"?>
<svg xmlns="http://www.w3.org/2000/svg" xmlns:xlink="http://www.w3.org/1999/xlink" width="600" height="400" viewBox="0 0 2400 1600">
<defs>
  <clipPath id="clip770">
    <rect x="0" y="0" width="2400" height="1600"/>
  </clipPath>
</defs>
<path clip-path="url(#clip770)" d="
M0 1600 L2400 1600 L2400 0 L0 0  Z
  " fill="#ffffff" fill-rule="evenodd" fill-opacity="1"/>
<defs>
  <clipPath id="clip771">
    <rect x="480" y="0" width="1681" height="1600"/>
  </clipPath>
</defs>
<defs>
  <clipPath id="clip772">
    <rect x="193" y="47" width="2160" height="1440"/>
  </clipPath>
</defs>
<path clip-path="url(#clip770)" d="
M252.501 1410.9 L2352.76 1410.9 L2352.76 47.2441 L252.501 47.2441  Z
  " fill="#ffffff" fill-rule="evenodd" fill-opacity="1"/>
<defs>
  <clipPath id="clip773">
    <rect x="252" y="47" width="2101" height="1365"/>
  </clipPath>
</defs>
<polyline clip-path="url(#clip773)" style="stroke:#000000; stroke-linecap:butt; stroke-linejoin:round; stroke-width:2; stroke-opacity:0.1; fill:none" points="
  321.627,1410.9 321.627,47.2441 
  "/>
<polyline clip-path="url(#clip773)" style="stroke:#000000; stroke-linecap:butt; stroke-linejoin:round; stroke-width:2; stroke-opacity:0.1; fill:none" points="
  1261.91,1410.9 1261.91,47.2441 
  "/>
<polyline clip-path="url(#clip773)" style="stroke:#000000; stroke-linecap:butt; stroke-linejoin:round; stroke-width:2; stroke-opacity:0.1; fill:none" points="
  2202.19,1410.9 2202.19,47.2441 
  "/>
<polyline clip-path="url(#clip770)" style="stroke:#000000; stroke-linecap:butt; stroke-linejoin:round; stroke-width:4; stroke-opacity:1; fill:none" points="
  252.501,1410.9 2352.76,1410.9 
  "/>
<polyline clip-path="url(#clip770)" style="stroke:#000000; stroke-linecap:butt; stroke-linejoin:round; stroke-width:4; stroke-opacity:1; fill:none" points="
  321.627,1410.9 321.627,1392 
  "/>
<polyline clip-path="url(#clip770)" style="stroke:#000000; stroke-linecap:butt; stroke-linejoin:round; stroke-width:4; stroke-opacity:1; fill:none" points="
  1261.91,1410.9 1261.91,1392 
  "/>
<polyline clip-path="url(#clip770)" style="stroke:#000000; stroke-linecap:butt; stroke-linejoin:round; stroke-width:4; stroke-opacity:1; fill:none" points="
  2202.19,1410.9 2202.19,1392 
  "/>
<path clip-path="url(#clip770)" d="M271.507 1485.02 L279.146 1485.02 L279.146 1458.66 L270.836 1460.32 L270.836 1456.06 L279.099 1454.4 L283.775 1454.4 L283.775 1485.02 L291.414 1485.02 L291.414 1488.96 L271.507 1488.96 L271.507 1485.02 Z" fill="#000000" fill-rule="evenodd" fill-opacity="1" /><path clip-path="url(#clip770)" d="M310.859 1457.48 Q307.247 1457.48 305.419 1461.04 Q303.613 1464.58 303.613 1471.71 Q303.613 1478.82 305.419 1482.38 Q307.247 1485.92 310.859 1485.92 Q314.493 1485.92 316.298 1482.38 Q318.127 1478.82 318.127 1471.71 Q318.127 1464.58 316.298 1461.04 Q314.493 1457.48 310.859 1457.48 M310.859 1453.77 Q316.669 1453.77 319.724 1458.38 Q322.803 1462.96 322.803 1471.71 Q322.803 1480.44 319.724 1485.04 Q316.669 1489.63 310.859 1489.63 Q305.048 1489.63 301.97 1485.04 Q298.914 1480.44 298.914 1471.71 Q298.914 1462.96 301.97 1458.38 Q305.048 1453.77 310.859 1453.77 Z" fill="#000000" fill-rule="evenodd" fill-opacity="1" /><path clip-path="url(#clip770)" d="M322.803 1447.87 L346.914 1447.87 L346.914 1451.07 L322.803 1451.07 L322.803 1447.87 Z" fill="#000000" fill-rule="evenodd" fill-opacity="1" /><path clip-path="url(#clip770)" d="M366.625 1446.41 Q369.352 1446.99 370.876 1448.83 Q372.418 1450.68 372.418 1453.38 Q372.418 1457.54 369.559 1459.82 Q366.7 1462.09 361.434 1462.09 Q359.666 1462.09 357.785 1461.73 Q355.923 1461.4 353.93 1460.7 L353.93 1457.03 Q355.51 1457.95 357.39 1458.42 Q359.271 1458.89 361.321 1458.89 Q364.895 1458.89 366.757 1457.48 Q368.637 1456.07 368.637 1453.38 Q368.637 1450.9 366.888 1449.51 Q365.158 1448.1 362.055 1448.1 L358.782 1448.1 L358.782 1444.98 L362.205 1444.98 Q365.008 1444.98 366.493 1443.87 Q367.979 1442.74 367.979 1440.63 Q367.979 1438.47 366.437 1437.32 Q364.914 1436.16 362.055 1436.16 Q360.494 1436.16 358.707 1436.49 Q356.92 1436.83 354.776 1437.55 L354.776 1434.16 Q356.939 1433.56 358.82 1433.26 Q360.719 1432.96 362.393 1432.96 Q366.719 1432.96 369.239 1434.93 Q371.76 1436.89 371.76 1440.24 Q371.76 1442.57 370.424 1444.19 Q369.089 1445.79 366.625 1446.41 Z" fill="#000000" fill-rule="evenodd" fill-opacity="1" /><path clip-path="url(#clip770)" d="M1212.18 1485.02 L1219.81 1485.02 L1219.81 1458.66 L1211.5 1460.32 L1211.5 1456.06 L1219.77 1454.4 L1224.44 1454.4 L1224.44 1485.02 L1232.08 1485.02 L1232.08 1488.96 L1212.18 1488.96 L1212.18 1485.02 Z" fill="#000000" fill-rule="evenodd" fill-opacity="1" /><path clip-path="url(#clip770)" d="M1251.53 1457.48 Q1247.92 1457.48 1246.09 1461.04 Q1244.28 1464.58 1244.28 1471.71 Q1244.28 1478.82 1246.09 1482.38 Q1247.92 1485.92 1251.53 1485.92 Q1255.16 1485.92 1256.97 1482.38 Q1258.8 1478.82 1258.8 1471.71 Q1258.8 1464.58 1256.97 1461.04 Q1255.16 1457.48 1251.53 1457.48 M1251.53 1453.77 Q1257.34 1453.77 1260.39 1458.38 Q1263.47 1462.96 1263.47 1471.71 Q1263.47 1480.44 1260.39 1485.04 Q1257.34 1489.63 1251.53 1489.63 Q1245.72 1489.63 1242.64 1485.04 Q1239.58 1480.44 1239.58 1471.71 Q1239.58 1462.96 1242.64 1458.38 Q1245.72 1453.77 1251.53 1453.77 Z" fill="#000000" fill-rule="evenodd" fill-opacity="1" /><path clip-path="url(#clip770)" d="M1263.47 1447.87 L1287.58 1447.87 L1287.58 1451.07 L1263.47 1451.07 L1263.47 1447.87 Z" fill="#000000" fill-rule="evenodd" fill-opacity="1" /><path clip-path="url(#clip770)" d="M1299.06 1458.35 L1312.31 1458.35 L1312.31 1461.55 L1294.49 1461.55 L1294.49 1458.35 Q1296.65 1456.11 1300.37 1452.35 Q1304.11 1448.57 1305.07 1447.48 Q1306.9 1445.43 1307.61 1444.02 Q1308.35 1442.59 1308.35 1441.22 Q1308.35 1438.98 1306.77 1437.57 Q1305.21 1436.16 1302.69 1436.16 Q1300.9 1436.16 1298.9 1436.78 Q1296.93 1437.4 1294.67 1438.66 L1294.67 1434.82 Q1296.97 1433.9 1298.96 1433.43 Q1300.95 1432.96 1302.61 1432.96 Q1306.97 1432.96 1309.57 1435.14 Q1312.16 1437.32 1312.16 1440.97 Q1312.16 1442.7 1311.51 1444.26 Q1310.87 1445.8 1309.16 1447.91 Q1308.68 1448.46 1306.16 1451.07 Q1303.64 1453.67 1299.06 1458.35 Z" fill="#000000" fill-rule="evenodd" fill-opacity="1" /><path clip-path="url(#clip770)" d="M2152.31 1485.02 L2159.95 1485.02 L2159.95 1458.66 L2151.64 1460.32 L2151.64 1456.06 L2159.9 1454.4 L2164.58 1454.4 L2164.58 1485.02 L2172.21 1485.02 L2172.21 1488.96 L2152.31 1488.96 L2152.31 1485.02 Z" fill="#000000" fill-rule="evenodd" fill-opacity="1" /><path clip-path="url(#clip770)" d="M2191.66 1457.48 Q2188.05 1457.48 2186.22 1461.04 Q2184.41 1464.58 2184.41 1471.71 Q2184.41 1478.82 2186.22 1482.38 Q2188.05 1485.92 2191.66 1485.92 Q2195.29 1485.92 2197.1 1482.38 Q2198.93 1478.82 2198.93 1471.71 Q2198.93 1464.58 2197.1 1461.04 Q2195.29 1457.48 2191.66 1457.48 M2191.66 1453.77 Q2197.47 1453.77 2200.52 1458.38 Q2203.6 1462.96 2203.6 1471.71 Q2203.6 1480.44 2200.52 1485.04 Q2197.47 1489.63 2191.66 1489.63 Q2185.85 1489.63 2182.77 1485.04 Q2179.71 1480.44 2179.71 1471.71 Q2179.71 1462.96 2182.77 1458.38 Q2185.85 1453.77 2191.66 1453.77 Z" fill="#000000" fill-rule="evenodd" fill-opacity="1" /><path clip-path="url(#clip770)" d="M2203.6 1447.87 L2227.71 1447.87 L2227.71 1451.07 L2203.6 1451.07 L2203.6 1447.87 Z" fill="#000000" fill-rule="evenodd" fill-opacity="1" /><path clip-path="url(#clip770)" d="M2236.57 1458.35 L2242.78 1458.35 L2242.78 1436.93 L2236.03 1438.28 L2236.03 1434.82 L2242.74 1433.47 L2246.54 1433.47 L2246.54 1458.35 L2252.75 1458.35 L2252.75 1461.55 L2236.57 1461.55 L2236.57 1458.35 Z" fill="#000000" fill-rule="evenodd" fill-opacity="1" /><path clip-path="url(#clip770)" d="M1317.56 1552.67 L1317.56 1574.19 L1311.7 1574.19 L1311.7 1552.86 Q1311.7 1547.8 1309.73 1545.29 Q1307.75 1542.77 1303.81 1542.77 Q1299.06 1542.77 1296.33 1545.79 Q1293.59 1548.82 1293.59 1554.04 L1293.59 1574.19 L1287.7 1574.19 L1287.7 1524.66 L1293.59 1524.66 L1293.59 1544.08 Q1295.69 1540.86 1298.52 1539.27 Q1301.39 1537.68 1305.11 1537.68 Q1311.25 1537.68 1314.4 1541.5 Q1317.56 1545.29 1317.56 1552.67 Z" fill="#000000" fill-rule="evenodd" fill-opacity="1" /><polyline clip-path="url(#clip773)" style="stroke:#000000; stroke-linecap:butt; stroke-linejoin:round; stroke-width:2; stroke-opacity:0.1; fill:none" points="
  252.501,1367.33 2352.76,1367.33 
  "/>
<polyline clip-path="url(#clip773)" style="stroke:#000000; stroke-linecap:butt; stroke-linejoin:round; stroke-width:2; stroke-opacity:0.1; fill:none" points="
  252.501,642.699 2352.76,642.699 
  "/>
<polyline clip-path="url(#clip770)" style="stroke:#000000; stroke-linecap:butt; stroke-linejoin:round; stroke-width:4; stroke-opacity:1; fill:none" points="
  252.501,1410.9 252.501,47.2441 
  "/>
<polyline clip-path="url(#clip770)" style="stroke:#000000; stroke-linecap:butt; stroke-linejoin:round; stroke-width:4; stroke-opacity:1; fill:none" points="
  252.501,1367.33 271.398,1367.33 
  "/>
<polyline clip-path="url(#clip770)" style="stroke:#000000; stroke-linecap:butt; stroke-linejoin:round; stroke-width:4; stroke-opacity:1; fill:none" points="
  252.501,642.699 271.398,642.699 
  "/>
<path clip-path="url(#clip770)" d="M114.931 1387.12 L122.57 1387.12 L122.57 1360.75 L114.26 1362.42 L114.26 1358.16 L122.524 1356.49 L127.2 1356.49 L127.2 1387.12 L134.839 1387.12 L134.839 1391.05 L114.931 1391.05 L114.931 1387.12 Z" fill="#000000" fill-rule="evenodd" fill-opacity="1" /><path clip-path="url(#clip770)" d="M154.283 1359.57 Q150.672 1359.57 148.843 1363.14 Q147.038 1366.68 147.038 1373.81 Q147.038 1380.92 148.843 1384.48 Q150.672 1388.02 154.283 1388.02 Q157.917 1388.02 159.723 1384.48 Q161.552 1380.92 161.552 1373.81 Q161.552 1366.68 159.723 1363.14 Q157.917 1359.57 154.283 1359.57 M154.283 1355.87 Q160.093 1355.87 163.149 1360.48 Q166.227 1365.06 166.227 1373.81 Q166.227 1382.54 163.149 1387.14 Q160.093 1391.73 154.283 1391.73 Q148.473 1391.73 145.394 1387.14 Q142.339 1382.54 142.339 1373.81 Q142.339 1365.06 145.394 1360.48 Q148.473 1355.87 154.283 1355.87 Z" fill="#000000" fill-rule="evenodd" fill-opacity="1" /><path clip-path="url(#clip770)" d="M166.227 1349.97 L190.339 1349.97 L190.339 1353.17 L166.227 1353.17 L166.227 1349.97 Z" fill="#000000" fill-rule="evenodd" fill-opacity="1" /><path clip-path="url(#clip770)" d="M207.134 1348.09 Q204.577 1348.09 203.072 1349.84 Q201.586 1351.59 201.586 1354.64 Q201.586 1357.66 203.072 1359.43 Q204.577 1361.18 207.134 1361.18 Q209.692 1361.18 211.178 1359.43 Q212.683 1357.66 212.683 1354.64 Q212.683 1351.59 211.178 1349.84 Q209.692 1348.09 207.134 1348.09 M214.676 1336.18 L214.676 1339.65 Q213.247 1338.97 211.78 1338.61 Q210.332 1338.25 208.902 1338.25 Q205.141 1338.25 203.147 1340.79 Q201.172 1343.33 200.89 1348.47 Q202 1346.83 203.674 1345.96 Q205.348 1345.08 207.36 1345.08 Q211.592 1345.08 214.037 1347.66 Q216.501 1350.22 216.501 1354.64 Q216.501 1358.96 213.943 1361.58 Q211.385 1364.19 207.134 1364.19 Q202.263 1364.19 199.686 1360.47 Q197.11 1356.72 197.11 1349.63 Q197.11 1342.97 200.27 1339.02 Q203.429 1335.06 208.752 1335.06 Q210.181 1335.06 211.629 1335.34 Q213.096 1335.62 214.676 1336.18 Z" fill="#000000" fill-rule="evenodd" fill-opacity="1" /><path clip-path="url(#clip770)" d="M115.59 662.491 L123.229 662.491 L123.229 636.125 L114.918 637.792 L114.918 633.533 L123.182 631.866 L127.858 631.866 L127.858 662.491 L135.497 662.491 L135.497 666.426 L115.59 666.426 L115.59 662.491 Z" fill="#000000" fill-rule="evenodd" fill-opacity="1" /><path clip-path="url(#clip770)" d="M154.941 634.945 Q151.33 634.945 149.502 638.51 Q147.696 642.051 147.696 649.181 Q147.696 656.287 149.502 659.852 Q151.33 663.394 154.941 663.394 Q158.576 663.394 160.381 659.852 Q162.21 656.287 162.21 649.181 Q162.21 642.051 160.381 638.51 Q158.576 634.945 154.941 634.945 M154.941 631.241 Q160.752 631.241 163.807 635.848 Q166.886 640.431 166.886 649.181 Q166.886 657.908 163.807 662.514 Q160.752 667.097 154.941 667.097 Q149.131 667.097 146.053 662.514 Q142.997 657.908 142.997 649.181 Q142.997 640.431 146.053 635.848 Q149.131 631.241 154.941 631.241 Z" fill="#000000" fill-rule="evenodd" fill-opacity="1" /><path clip-path="url(#clip770)" d="M166.886 625.343 L190.997 625.343 L190.997 628.54 L166.886 628.54 L166.886 625.343 Z" fill="#000000" fill-rule="evenodd" fill-opacity="1" /><path clip-path="url(#clip770)" d="M210.708 623.876 Q213.435 624.459 214.958 626.302 Q216.501 628.145 216.501 630.853 Q216.501 635.01 213.642 637.285 Q210.783 639.561 205.517 639.561 Q203.749 639.561 201.868 639.204 Q200.006 638.865 198.013 638.169 L198.013 634.502 Q199.592 635.423 201.473 635.894 Q203.354 636.364 205.404 636.364 Q208.978 636.364 210.84 634.953 Q212.72 633.543 212.72 630.853 Q212.72 628.371 210.971 626.979 Q209.241 625.568 206.138 625.568 L202.865 625.568 L202.865 622.446 L206.288 622.446 Q209.09 622.446 210.576 621.336 Q212.062 620.208 212.062 618.102 Q212.062 615.939 210.52 614.791 Q208.996 613.625 206.138 613.625 Q204.577 613.625 202.79 613.964 Q201.003 614.302 198.859 615.017 L198.859 611.632 Q201.022 611.03 202.903 610.729 Q204.802 610.428 206.476 610.428 Q210.802 610.428 213.322 612.403 Q215.842 614.359 215.842 617.707 Q215.842 620.039 214.507 621.656 Q213.172 623.255 210.708 623.876 Z" fill="#000000" fill-rule="evenodd" fill-opacity="1" /><path clip-path="url(#clip770)" d="M16.4842 805.316 L16.4842 775.269 L21.895 775.269 L21.895 798.886 L35.9632 798.886 L35.9632 776.256 L41.3741 776.256 L41.3741 798.886 L58.5933 798.886 L58.5933 774.697 L64.0042 774.697 L64.0042 805.316 L16.4842 805.316 Z" fill="#000000" fill-rule="evenodd" fill-opacity="1" /><path clip-path="url(#clip770)" d="M33.8307 743.727 Q33.2578 744.714 33.0032 745.892 Q32.7167 747.038 32.7167 748.438 Q32.7167 753.403 35.9632 756.077 Q39.1779 758.719 45.2253 758.719 L64.0042 758.719 L64.0042 764.607 L28.3562 764.607 L28.3562 758.719 L33.8944 758.719 Q30.6479 756.873 29.0883 753.913 Q27.4968 750.952 27.4968 746.719 Q27.4968 746.115 27.5923 745.382 Q27.656 744.65 27.8151 743.759 L33.8307 743.727 Z" fill="#000000" fill-rule="evenodd" fill-opacity="1" /><path clip-path="url(#clip770)" d="M33.8307 718.074 Q33.2578 719.06 33.0032 720.238 Q32.7167 721.384 32.7167 722.784 Q32.7167 727.749 35.9632 730.423 Q39.1779 733.065 45.2253 733.065 L64.0042 733.065 L64.0042 738.953 L28.3562 738.953 L28.3562 733.065 L33.8944 733.065 Q30.6479 731.219 29.0883 728.259 Q27.4968 725.299 27.4968 721.065 Q27.4968 720.461 27.5923 719.729 Q27.656 718.997 27.8151 718.105 L33.8307 718.074 Z" fill="#000000" fill-rule="evenodd" fill-opacity="1" /><path clip-path="url(#clip770)" d="M32.4621 699.549 Q32.4621 704.26 36.1542 706.997 Q39.8145 709.735 46.212 709.735 Q52.6095 709.735 56.3017 707.029 Q59.9619 704.292 59.9619 699.549 Q59.9619 694.871 56.2698 692.133 Q52.5777 689.396 46.212 689.396 Q39.8781 689.396 36.186 692.133 Q32.4621 694.871 32.4621 699.549 M27.4968 699.549 Q27.4968 691.911 32.4621 687.55 Q37.4273 683.19 46.212 683.19 Q54.9649 683.19 59.9619 687.55 Q64.9272 691.911 64.9272 699.549 Q64.9272 707.22 59.9619 711.581 Q54.9649 715.909 46.212 715.909 Q37.4273 715.909 32.4621 711.581 Q27.4968 707.22 27.4968 699.549 Z" fill="#000000" fill-rule="evenodd" fill-opacity="1" /><path clip-path="url(#clip770)" d="M33.8307 652.825 Q33.2578 653.812 33.0032 654.989 Q32.7167 656.135 32.7167 657.536 Q32.7167 662.501 35.9632 665.175 Q39.1779 667.816 45.2253 667.816 L64.0042 667.816 L64.0042 673.705 L28.3562 673.705 L28.3562 667.816 L33.8944 667.816 Q30.6479 665.97 29.0883 663.01 Q27.4968 660.05 27.4968 655.817 Q27.4968 655.212 27.5923 654.48 Q27.656 653.748 27.8151 652.857 L33.8307 652.825 Z" fill="#000000" fill-rule="evenodd" fill-opacity="1" /><polyline clip-path="url(#clip773)" style="stroke:#009af9; stroke-linecap:butt; stroke-linejoin:round; stroke-width:12; stroke-opacity:1; fill:none" points="
  2293.31,85.838 2010.26,229.903 1727.21,378.873 1444.15,526.883 1161.1,673.779 878.048,819.982 594.995,965.805 311.942,1111.43 
  "/>
<circle clip-path="url(#clip773)" cx="2293.31" cy="85.838" r="14.4" fill="#009af9" fill-rule="evenodd" fill-opacity="1" stroke="#000000" stroke-opacity="1" stroke-width="3.2"/>
<circle clip-path="url(#clip773)" cx="2010.26" cy="229.903" r="14.4" fill="#009af9" fill-rule="evenodd" fill-opacity="1" stroke="#000000" stroke-opacity="1" stroke-width="3.2"/>
<circle clip-path="url(#clip773)" cx="1727.21" cy="378.873" r="14.4" fill="#009af9" fill-rule="evenodd" fill-opacity="1" stroke="#000000" stroke-opacity="1" stroke-width="3.2"/>
<circle clip-path="url(#clip773)" cx="1444.15" cy="526.883" r="14.4" fill="#009af9" fill-rule="evenodd" fill-opacity="1" stroke="#000000" stroke-opacity="1" stroke-width="3.2"/>
<circle clip-path="url(#clip773)" cx="1161.1" cy="673.779" r="14.4" fill="#009af9" fill-rule="evenodd" fill-opacity="1" stroke="#000000" stroke-opacity="1" stroke-width="3.2"/>
<circle clip-path="url(#clip773)" cx="878.048" cy="819.982" r="14.4" fill="#009af9" fill-rule="evenodd" fill-opacity="1" stroke="#000000" stroke-opacity="1" stroke-width="3.2"/>
<circle clip-path="url(#clip773)" cx="594.995" cy="965.805" r="14.4" fill="#009af9" fill-rule="evenodd" fill-opacity="1" stroke="#000000" stroke-opacity="1" stroke-width="3.2"/>
<circle clip-path="url(#clip773)" cx="311.942" cy="1111.43" r="14.4" fill="#009af9" fill-rule="evenodd" fill-opacity="1" stroke="#000000" stroke-opacity="1" stroke-width="3.2"/>
<polyline clip-path="url(#clip773)" style="stroke:#e26f46; stroke-linecap:butt; stroke-linejoin:round; stroke-width:12; stroke-opacity:1; fill:none" points="
  2293.31,223.59 2010.26,373.649 1727.21,523.903 1444.15,672.211 1161.1,819.179 878.048,965.399 594.995,1111.23 311.942,1256.85 
  "/>
<circle clip-path="url(#clip773)" cx="2293.31" cy="223.59" r="14.4" fill="#e26f46" fill-rule="evenodd" fill-opacity="1" stroke="#000000" stroke-opacity="1" stroke-width="3.2"/>
<circle clip-path="url(#clip773)" cx="2010.26" cy="373.649" r="14.4" fill="#e26f46" fill-rule="evenodd" fill-opacity="1" stroke="#000000" stroke-opacity="1" stroke-width="3.2"/>
<circle clip-path="url(#clip773)" cx="1727.21" cy="523.903" r="14.4" fill="#e26f46" fill-rule="evenodd" fill-opacity="1" stroke="#000000" stroke-opacity="1" stroke-width="3.2"/>
<circle clip-path="url(#clip773)" cx="1444.15" cy="672.211" r="14.4" fill="#e26f46" fill-rule="evenodd" fill-opacity="1" stroke="#000000" stroke-opacity="1" stroke-width="3.2"/>
<circle clip-path="url(#clip773)" cx="1161.1" cy="819.179" r="14.4" fill="#e26f46" fill-rule="evenodd" fill-opacity="1" stroke="#000000" stroke-opacity="1" stroke-width="3.2"/>
<circle clip-path="url(#clip773)" cx="878.048" cy="965.399" r="14.4" fill="#e26f46" fill-rule="evenodd" fill-opacity="1" stroke="#000000" stroke-opacity="1" stroke-width="3.2"/>
<circle clip-path="url(#clip773)" cx="594.995" cy="1111.23" r="14.4" fill="#e26f46" fill-rule="evenodd" fill-opacity="1" stroke="#000000" stroke-opacity="1" stroke-width="3.2"/>
<circle clip-path="url(#clip773)" cx="311.942" cy="1256.85" r="14.4" fill="#e26f46" fill-rule="evenodd" fill-opacity="1" stroke="#000000" stroke-opacity="1" stroke-width="3.2"/>
<polyline clip-path="url(#clip773)" style="stroke:#3da44d; stroke-linecap:butt; stroke-linejoin:round; stroke-width:12; stroke-opacity:1; fill:none" points="
  2293.31,354.34 2010.26,499.763 1727.21,645.186 1444.15,790.61 1161.1,936.033 878.048,1081.46 594.995,1226.88 311.942,1372.3 
  "/>
<path clip-path="url(#clip770)" d="
M1917.7 300.059 L2282.75 300.059 L2282.75 92.6992 L1917.7 92.6992  Z
  " fill="#ffffff" fill-rule="evenodd" fill-opacity="1"/>
<polyline clip-path="url(#clip770)" style="stroke:#000000; stroke-linecap:butt; stroke-linejoin:round; stroke-width:4; stroke-opacity:1; fill:none" points="
  1917.7,300.059 2282.75,300.059 2282.75,92.6992 1917.7,92.6992 1917.7,300.059 
  "/>
<polyline clip-path="url(#clip770)" style="stroke:#009af9; stroke-linecap:butt; stroke-linejoin:round; stroke-width:4; stroke-opacity:1; fill:none" points="
  1941.03,144.539 2081.05,144.539 
  "/>
<circle clip-path="url(#clip770)" cx="2011.04" cy="144.539" r="23.04" fill="#009af9" fill-rule="evenodd" fill-opacity="1" stroke="#000000" stroke-opacity="1" stroke-width="5.12"/>
<path clip-path="url(#clip770)" d="M2123.3 139.829 L2123.3 125.801 L2127.56 125.801 L2127.56 161.819 L2123.3 161.819 L2123.3 157.93 Q2121.96 160.245 2119.9 161.379 Q2117.86 162.49 2114.99 162.49 Q2110.29 162.49 2107.33 158.74 Q2104.39 154.991 2104.39 148.879 Q2104.39 142.768 2107.33 139.018 Q2110.29 135.268 2114.99 135.268 Q2117.86 135.268 2119.9 136.403 Q2121.96 137.514 2123.3 139.829 M2108.78 148.879 Q2108.78 153.578 2110.71 156.264 Q2112.65 158.926 2116.03 158.926 Q2119.41 158.926 2121.35 156.264 Q2123.3 153.578 2123.3 148.879 Q2123.3 144.18 2121.35 141.518 Q2119.41 138.833 2116.03 138.833 Q2112.65 138.833 2110.71 141.518 Q2108.78 144.18 2108.78 148.879 Z" fill="#000000" fill-rule="evenodd" fill-opacity="1" /><path clip-path="url(#clip770)" d="M2136.33 135.893 L2140.59 135.893 L2140.59 161.819 L2136.33 161.819 L2136.33 135.893 M2136.33 125.801 L2140.59 125.801 L2140.59 131.194 L2136.33 131.194 L2136.33 125.801 Z" fill="#000000" fill-rule="evenodd" fill-opacity="1" /><path clip-path="url(#clip770)" d="M2162.63 125.801 L2162.63 129.343 L2158.55 129.343 Q2156.26 129.343 2155.36 130.268 Q2154.48 131.194 2154.48 133.602 L2154.48 135.893 L2161.49 135.893 L2161.49 139.204 L2154.48 139.204 L2154.48 161.819 L2150.2 161.819 L2150.2 139.204 L2146.12 139.204 L2146.12 135.893 L2150.2 135.893 L2150.2 134.088 Q2150.2 129.759 2152.21 127.792 Q2154.22 125.801 2158.6 125.801 L2162.63 125.801 Z" fill="#000000" fill-rule="evenodd" fill-opacity="1" /><path clip-path="url(#clip770)" d="M2179.32 125.801 L2179.32 129.343 L2175.24 129.343 Q2172.95 129.343 2172.05 130.268 Q2171.17 131.194 2171.17 133.602 L2171.17 135.893 L2178.18 135.893 L2178.18 139.204 L2171.17 139.204 L2171.17 161.819 L2166.89 161.819 L2166.89 139.204 L2162.81 139.204 L2162.81 135.893 L2166.89 135.893 L2166.89 134.088 Q2166.89 129.759 2168.9 127.792 Q2170.91 125.801 2175.29 125.801 L2179.32 125.801 Z" fill="#000000" fill-rule="evenodd" fill-opacity="1" /><path clip-path="url(#clip770)" d="M2187.51 157.884 L2203.83 157.884 L2203.83 161.819 L2181.89 161.819 L2181.89 157.884 Q2184.55 155.129 2189.13 150.5 Q2193.74 145.847 2194.92 144.504 Q2197.16 141.981 2198.04 140.245 Q2198.95 138.486 2198.95 136.796 Q2198.95 134.042 2197 132.305 Q2195.08 130.569 2191.98 130.569 Q2189.78 130.569 2187.33 131.333 Q2184.89 132.097 2182.12 133.648 L2182.12 128.926 Q2184.94 127.792 2187.39 127.213 Q2189.85 126.634 2191.89 126.634 Q2197.26 126.634 2200.45 129.319 Q2203.64 132.005 2203.64 136.495 Q2203.64 138.625 2202.83 140.546 Q2202.05 142.444 2199.94 145.037 Q2199.36 145.708 2196.26 148.926 Q2193.16 152.12 2187.51 157.884 Z" fill="#000000" fill-rule="evenodd" fill-opacity="1" /><path clip-path="url(#clip770)" d="M2224.83 148.787 Q2219.66 148.787 2217.67 149.967 Q2215.68 151.148 2215.68 153.995 Q2215.68 156.264 2217.16 157.606 Q2218.67 158.926 2221.24 158.926 Q2224.78 158.926 2226.91 156.426 Q2229.06 153.903 2229.06 149.736 L2229.06 148.787 L2224.83 148.787 M2233.32 147.028 L2233.32 161.819 L2229.06 161.819 L2229.06 157.884 Q2227.6 160.245 2225.43 161.379 Q2223.25 162.49 2220.1 162.49 Q2216.12 162.49 2213.76 160.268 Q2211.42 158.023 2211.42 154.273 Q2211.42 149.898 2214.34 147.676 Q2217.28 145.454 2223.09 145.454 L2229.06 145.454 L2229.06 145.037 Q2229.06 142.097 2227.12 140.5 Q2225.2 138.879 2221.7 138.879 Q2219.48 138.879 2217.37 139.412 Q2215.26 139.944 2213.32 141.009 L2213.32 137.074 Q2215.66 136.171 2217.86 135.731 Q2220.06 135.268 2222.14 135.268 Q2227.76 135.268 2230.54 138.185 Q2233.32 141.102 2233.32 147.028 Z" fill="#000000" fill-rule="evenodd" fill-opacity="1" /><polyline clip-path="url(#clip770)" style="stroke:#e26f46; stroke-linecap:butt; stroke-linejoin:round; stroke-width:4; stroke-opacity:1; fill:none" points="
  1941.03,196.379 2081.05,196.379 
  "/>
<circle clip-path="url(#clip770)" cx="2011.04" cy="196.379" r="23.04" fill="#e26f46" fill-rule="evenodd" fill-opacity="1" stroke="#000000" stroke-opacity="1" stroke-width="5.12"/>
<path clip-path="url(#clip770)" d="M2123.3 191.669 L2123.3 177.641 L2127.56 177.641 L2127.56 213.659 L2123.3 213.659 L2123.3 209.77 Q2121.96 212.085 2119.9 213.219 Q2117.86 214.33 2114.99 214.33 Q2110.29 214.33 2107.33 210.58 Q2104.39 206.831 2104.39 200.719 Q2104.39 194.608 2107.33 190.858 Q2110.29 187.108 2114.99 187.108 Q2117.86 187.108 2119.9 188.243 Q2121.96 189.354 2123.3 191.669 M2108.78 200.719 Q2108.78 205.418 2110.71 208.104 Q2112.65 210.766 2116.03 210.766 Q2119.41 210.766 2121.35 208.104 Q2123.3 205.418 2123.3 200.719 Q2123.3 196.02 2121.35 193.358 Q2119.41 190.673 2116.03 190.673 Q2112.65 190.673 2110.71 193.358 Q2108.78 196.02 2108.78 200.719 Z" fill="#000000" fill-rule="evenodd" fill-opacity="1" /><path clip-path="url(#clip770)" d="M2136.33 187.733 L2140.59 187.733 L2140.59 213.659 L2136.33 213.659 L2136.33 187.733 M2136.33 177.641 L2140.59 177.641 L2140.59 183.034 L2136.33 183.034 L2136.33 177.641 Z" fill="#000000" fill-rule="evenodd" fill-opacity="1" /><path clip-path="url(#clip770)" d="M2162.63 177.641 L2162.63 181.183 L2158.55 181.183 Q2156.26 181.183 2155.36 182.108 Q2154.48 183.034 2154.48 185.442 L2154.48 187.733 L2161.49 187.733 L2161.49 191.044 L2154.48 191.044 L2154.48 213.659 L2150.2 213.659 L2150.2 191.044 L2146.12 191.044 L2146.12 187.733 L2150.2 187.733 L2150.2 185.928 Q2150.2 181.599 2152.21 179.632 Q2154.22 177.641 2158.6 177.641 L2162.63 177.641 Z" fill="#000000" fill-rule="evenodd" fill-opacity="1" /><path clip-path="url(#clip770)" d="M2179.32 177.641 L2179.32 181.183 L2175.24 181.183 Q2172.95 181.183 2172.05 182.108 Q2171.17 183.034 2171.17 185.442 L2171.17 187.733 L2178.18 187.733 L2178.18 191.044 L2171.17 191.044 L2171.17 213.659 L2166.89 213.659 L2166.89 191.044 L2162.81 191.044 L2162.81 187.733 L2166.89 187.733 L2166.89 185.928 Q2166.89 181.599 2168.9 179.632 Q2170.91 177.641 2175.29 177.641 L2179.32 177.641 Z" fill="#000000" fill-rule="evenodd" fill-opacity="1" /><path clip-path="url(#clip770)" d="M2187.51 209.724 L2203.83 209.724 L2203.83 213.659 L2181.89 213.659 L2181.89 209.724 Q2184.55 206.969 2189.13 202.34 Q2193.74 197.687 2194.92 196.344 Q2197.16 193.821 2198.04 192.085 Q2198.95 190.326 2198.95 188.636 Q2198.95 185.882 2197 184.145 Q2195.08 182.409 2191.98 182.409 Q2189.78 182.409 2187.33 183.173 Q2184.89 183.937 2182.12 185.488 L2182.12 180.766 Q2184.94 179.632 2187.39 179.053 Q2189.85 178.474 2191.89 178.474 Q2197.26 178.474 2200.45 181.159 Q2203.64 183.845 2203.64 188.335 Q2203.64 190.465 2202.83 192.386 Q2202.05 194.284 2199.94 196.877 Q2199.36 197.548 2196.26 200.766 Q2193.16 203.96 2187.51 209.724 Z" fill="#000000" fill-rule="evenodd" fill-opacity="1" /><path clip-path="url(#clip770)" d="M2231.65 200.719 Q2231.65 196.02 2229.71 193.358 Q2227.79 190.673 2224.41 190.673 Q2221.03 190.673 2219.08 193.358 Q2217.16 196.02 2217.16 200.719 Q2217.16 205.418 2219.08 208.104 Q2221.03 210.766 2224.41 210.766 Q2227.79 210.766 2229.71 208.104 Q2231.65 205.418 2231.65 200.719 M2217.16 191.669 Q2218.51 189.354 2220.54 188.243 Q2222.6 187.108 2225.45 187.108 Q2230.17 187.108 2233.11 190.858 Q2236.08 194.608 2236.08 200.719 Q2236.08 206.831 2233.11 210.58 Q2230.17 214.33 2225.45 214.33 Q2222.6 214.33 2220.54 213.219 Q2218.51 212.085 2217.16 209.77 L2217.16 213.659 L2212.88 213.659 L2212.88 177.641 L2217.16 177.641 L2217.16 191.669 Z" fill="#000000" fill-rule="evenodd" fill-opacity="1" /><polyline clip-path="url(#clip770)" style="stroke:#3da44d; stroke-linecap:butt; stroke-linejoin:round; stroke-width:4; stroke-opacity:1; fill:none" points="
  1941.03,248.219 2081.05,248.219 
  "/>
<path clip-path="url(#clip770)" d="M2127.93 265.319 Q2127.93 265.507 2127.71 266.233 Q2127.5 266.959 2126.99 268.083 Q2126.5 269.207 2125.82 270.238 Q2125.14 271.245 2124.01 271.995 Q2122.91 272.721 2121.65 272.721 Q2119.96 272.721 2118.84 271.597 Q2117.71 270.472 2117.71 268.786 Q2117.71 268.552 2117.74 268.317 Q2117.76 268.083 2117.78 267.943 Q2117.81 267.779 2117.88 267.521 Q2117.97 267.24 2117.99 267.123 Q2118.04 267.006 2118.16 266.654 Q2118.3 266.28 2118.35 266.139 Q2121.32 258.55 2121.32 255.388 Q2121.32 252.039 2118.72 252.039 Q2116.4 252.039 2114.11 253.725 Q2113.05 254.568 2112.05 256.067 Q2111.04 257.566 2110.85 258.129 Q2110.64 259.347 2110.34 260.283 Q2110.19 260.939 2109.52 263.492 L2108.46 267.825 L2107.55 271.456 Q2107.36 271.971 2106.85 272.346 Q2106.33 272.721 2105.77 272.721 Q2105.3 272.721 2104.83 272.393 Q2104.39 272.088 2104.39 271.362 Q2104.39 270.988 2104.57 270.308 L2111.53 242.67 L2111.67 241.733 Q2111.67 241.452 2111.55 241.311 Q2111.46 241.147 2110.9 241.03 Q2110.36 240.913 2109.28 240.913 Q2108.84 240.913 2108.63 240.89 Q2108.44 240.866 2108.27 240.749 Q2108.11 240.609 2108.11 240.328 Q2108.11 239.929 2108.27 239.719 Q2108.46 239.484 2108.6 239.437 Q2108.74 239.391 2109.02 239.367 Q2109.42 239.344 2110.76 239.227 Q2112.09 239.086 2113.24 238.992 Q2114.39 238.899 2114.88 238.899 Q2115.16 238.899 2115.3 239.039 Q2115.46 239.156 2115.49 239.297 L2115.51 239.414 L2111.76 254.662 Q2114.74 250.985 2118.86 250.985 Q2121.53 250.985 2122.96 252.367 Q2124.39 253.725 2124.39 256.114 Q2124.39 258.855 2121.46 266.654 Q2120.59 268.833 2120.59 270.074 Q2120.59 270.894 2120.85 271.269 Q2121.13 271.643 2121.74 271.643 Q2122.68 271.643 2123.5 271.105 Q2124.34 270.542 2124.93 269.629 Q2125.51 268.692 2125.91 267.755 Q2126.33 266.795 2126.64 265.717 Q2126.82 265.132 2126.92 264.991 Q2127.04 264.851 2127.36 264.851 Q2127.93 264.851 2127.93 265.319 Z" fill="#000000" fill-rule="evenodd" fill-opacity="1" /><path clip-path="url(#clip770)" d="M2132.8 245.873 Q2132.8 245.267 2132.85 245.086 Q2132.92 244.906 2133.18 244.627 L2139.62 237.446 Q2143.15 233.478 2143.15 230.019 Q2143.15 227.773 2141.97 226.166 Q2140.8 224.559 2138.66 224.559 Q2137.18 224.559 2135.93 225.461 Q2134.69 226.363 2134.11 227.969 Q2134.21 227.937 2134.56 227.937 Q2135.39 227.937 2135.85 228.461 Q2136.33 228.986 2136.33 229.691 Q2136.33 230.593 2135.74 231.035 Q2135.16 231.462 2134.59 231.462 Q2134.36 231.462 2134.05 231.412 Q2133.75 231.363 2133.28 230.904 Q2132.8 230.429 2132.8 229.593 Q2132.8 227.248 2134.57 225.379 Q2136.36 223.51 2139.08 223.51 Q2142.16 223.51 2144.18 225.346 Q2146.21 227.166 2146.21 230.019 Q2146.21 231.019 2145.9 231.937 Q2145.61 232.839 2145.2 233.544 Q2144.8 234.249 2143.72 235.38 Q2142.64 236.512 2141.77 237.315 Q2140.9 238.118 2138.95 239.823 L2135.39 243.283 L2141.44 243.283 Q2144.39 243.283 2144.62 243.021 Q2144.95 242.545 2145.36 240.037 L2146.21 240.037 L2145.26 245.873 L2132.8 245.873 Z" fill="#000000" fill-rule="evenodd" fill-opacity="1" /></svg>
