<?xml version="1.0" encoding="utf-8"?>
<svg xmlns="http://www.w3.org/2000/svg" xmlns:xlink="http://www.w3.org/1999/xlink" width="600" height="400" viewBox="0 0 2400 1600">
<defs>
  <clipPath id="clip040">
    <rect x="0" y="0" width="2400" height="1600"/>
  </clipPath>
</defs>
<path clip-path="url(#clip040)" d="
M0 1600 L2400 1600 L2400 0 L0 0  Z
  " fill="#ffffff" fill-rule="evenodd" fill-opacity="1"/>
<defs>
  <clipPath id="clip041">
    <rect x="480" y="0" width="1681" height="1600"/>
  </clipPath>
</defs>
<path clip-path="url(#clip040)" d="
M147.478 1486.45 L2352.76 1486.45 L2352.76 47.2441 L147.478 47.2441  Z
  " fill="#ffffff" fill-rule="evenodd" fill-opacity="1"/>
<defs>
  <clipPath id="clip042">
    <rect x="147" y="47" width="2206" height="1440"/>
  </clipPath>
</defs>
<polyline clip-path="url(#clip042)" style="stroke:#000000; stroke-linecap:butt; stroke-linejoin:round; stroke-width:2; stroke-opacity:0.1; fill:none" points="
  209.891,1486.45 209.891,47.2441 
  "/>
<polyline clip-path="url(#clip042)" style="stroke:#000000; stroke-linecap:butt; stroke-linejoin:round; stroke-width:2; stroke-opacity:0.1; fill:none" points="
  730.004,1486.45 730.004,47.2441 
  "/>
<polyline clip-path="url(#clip042)" style="stroke:#000000; stroke-linecap:butt; stroke-linejoin:round; stroke-width:2; stroke-opacity:0.1; fill:none" points="
  1250.12,1486.45 1250.12,47.2441 
  "/>
<polyline clip-path="url(#clip042)" style="stroke:#000000; stroke-linecap:butt; stroke-linejoin:round; stroke-width:2; stroke-opacity:0.1; fill:none" points="
  1770.23,1486.45 1770.23,47.2441 
  "/>
<polyline clip-path="url(#clip042)" style="stroke:#000000; stroke-linecap:butt; stroke-linejoin:round; stroke-width:2; stroke-opacity:0.1; fill:none" points="
  2290.34,1486.45 2290.34,47.2441 
  "/>
<polyline clip-path="url(#clip040)" style="stroke:#000000; stroke-linecap:butt; stroke-linejoin:round; stroke-width:4; stroke-opacity:1; fill:none" points="
  147.478,1486.45 2352.76,1486.45 
  "/>
<polyline clip-path="url(#clip040)" style="stroke:#000000; stroke-linecap:butt; stroke-linejoin:round; stroke-width:4; stroke-opacity:1; fill:none" points="
  209.891,1486.45 209.891,1467.55 
  "/>
<polyline clip-path="url(#clip040)" style="stroke:#000000; stroke-linecap:butt; stroke-linejoin:round; stroke-width:4; stroke-opacity:1; fill:none" points="
  730.004,1486.45 730.004,1467.55 
  "/>
<polyline clip-path="url(#clip040)" style="stroke:#000000; stroke-linecap:butt; stroke-linejoin:round; stroke-width:4; stroke-opacity:1; fill:none" points="
  1250.12,1486.45 1250.12,1467.55 
  "/>
<polyline clip-path="url(#clip040)" style="stroke:#000000; stroke-linecap:butt; stroke-linejoin:round; stroke-width:4; stroke-opacity:1; fill:none" points="
  1770.23,1486.45 1770.23,1467.55 
  "/>
<polyline clip-path="url(#clip040)" style="stroke:#000000; stroke-linecap:butt; stroke-linejoin:round; stroke-width:4; stroke-opacity:1; fill:none" points="
  2290.34,1486.45 2290.34,1467.55 
  "/>
<path clip-path="url(#clip040)" d="M187.276 1517.37 Q183.665 1517.37 181.836 1520.93 Q180.03 1524.47 180.03 1531.6 Q180.03 1538.71 181.836 1542.27 Q183.665 1545.82 187.276 1545.82 Q190.91 1545.82 192.716 1542.27 Q194.544 1538.71 194.544 1531.6 Q194.544 1524.47 192.716 1520.93 Q190.91 1517.37 187.276 1517.37 M187.276 1513.66 Q193.086 1513.66 196.142 1518.27 Q199.22 1522.85 199.22 1531.6 Q199.22 1540.33 196.142 1544.94 Q193.086 1549.52 187.276 1549.52 Q181.466 1549.52 178.387 1544.94 Q175.331 1540.33 175.331 1531.6 Q175.331 1522.85 178.387 1518.27 Q181.466 1513.66 187.276 1513.66 Z" fill="#000000" fill-rule="evenodd" fill-opacity="1" /><path clip-path="url(#clip040)" d="M207.438 1542.97 L212.322 1542.97 L212.322 1548.85 L207.438 1548.85 L207.438 1542.97 Z" fill="#000000" fill-rule="evenodd" fill-opacity="1" /><path clip-path="url(#clip040)" d="M232.507 1517.37 Q228.896 1517.37 227.067 1520.93 Q225.262 1524.47 225.262 1531.6 Q225.262 1538.71 227.067 1542.27 Q228.896 1545.82 232.507 1545.82 Q236.141 1545.82 237.947 1542.27 Q239.776 1538.71 239.776 1531.6 Q239.776 1524.47 237.947 1520.93 Q236.141 1517.37 232.507 1517.37 M232.507 1513.66 Q238.317 1513.66 241.373 1518.27 Q244.451 1522.85 244.451 1531.6 Q244.451 1540.33 241.373 1544.94 Q238.317 1549.52 232.507 1549.52 Q226.697 1549.52 223.618 1544.94 Q220.563 1540.33 220.563 1531.6 Q220.563 1522.85 223.618 1518.27 Q226.697 1513.66 232.507 1513.66 Z" fill="#000000" fill-rule="evenodd" fill-opacity="1" /><path clip-path="url(#clip040)" d="M701.74 1544.91 L718.06 1544.91 L718.06 1548.85 L696.115 1548.85 L696.115 1544.91 Q698.777 1542.16 703.361 1537.53 Q707.967 1532.88 709.148 1531.53 Q711.393 1529.01 712.273 1527.27 Q713.176 1525.51 713.176 1523.82 Q713.176 1521.07 711.231 1519.33 Q709.31 1517.6 706.208 1517.6 Q704.009 1517.6 701.555 1518.36 Q699.125 1519.13 696.347 1520.68 L696.347 1515.95 Q699.171 1514.82 701.625 1514.24 Q704.078 1513.66 706.115 1513.66 Q711.486 1513.66 714.68 1516.35 Q717.875 1519.03 717.875 1523.52 Q717.875 1525.65 717.064 1527.57 Q716.277 1529.47 714.171 1532.07 Q713.592 1532.74 710.49 1535.95 Q707.389 1539.15 701.74 1544.91 Z" fill="#000000" fill-rule="evenodd" fill-opacity="1" /><path clip-path="url(#clip040)" d="M727.875 1542.97 L732.759 1542.97 L732.759 1548.85 L727.875 1548.85 L727.875 1542.97 Z" fill="#000000" fill-rule="evenodd" fill-opacity="1" /><path clip-path="url(#clip040)" d="M742.99 1514.29 L761.347 1514.29 L761.347 1518.22 L747.273 1518.22 L747.273 1526.7 Q748.291 1526.35 749.31 1526.19 Q750.328 1526 751.347 1526 Q757.134 1526 760.513 1529.17 Q763.893 1532.34 763.893 1537.76 Q763.893 1543.34 760.421 1546.44 Q756.948 1549.52 750.629 1549.52 Q748.453 1549.52 746.185 1549.15 Q743.939 1548.78 741.532 1548.04 L741.532 1543.34 Q743.615 1544.47 745.837 1545.03 Q748.06 1545.58 750.536 1545.58 Q754.541 1545.58 756.879 1543.48 Q759.217 1541.37 759.217 1537.76 Q759.217 1534.15 756.879 1532.04 Q754.541 1529.94 750.536 1529.94 Q748.661 1529.94 746.786 1530.35 Q744.935 1530.77 742.99 1531.65 L742.99 1514.29 Z" fill="#000000" fill-rule="evenodd" fill-opacity="1" /><path clip-path="url(#clip040)" d="M1217.28 1514.29 L1235.64 1514.29 L1235.64 1518.22 L1221.56 1518.22 L1221.56 1526.7 Q1222.58 1526.35 1223.6 1526.19 Q1224.62 1526 1225.64 1526 Q1231.42 1526 1234.8 1529.17 Q1238.18 1532.34 1238.18 1537.76 Q1238.18 1543.34 1234.71 1546.44 Q1231.24 1549.52 1224.92 1549.52 Q1222.74 1549.52 1220.48 1549.15 Q1218.23 1548.78 1215.82 1548.04 L1215.82 1543.34 Q1217.91 1544.47 1220.13 1545.03 Q1222.35 1545.58 1224.83 1545.58 Q1228.83 1545.58 1231.17 1543.48 Q1233.51 1541.37 1233.51 1537.76 Q1233.51 1534.15 1231.17 1532.04 Q1228.83 1529.94 1224.83 1529.94 Q1222.95 1529.94 1221.08 1530.35 Q1219.23 1530.77 1217.28 1531.65 L1217.28 1514.29 Z" fill="#000000" fill-rule="evenodd" fill-opacity="1" /><path clip-path="url(#clip040)" d="M1247.4 1542.97 L1252.28 1542.97 L1252.28 1548.85 L1247.4 1548.85 L1247.4 1542.97 Z" fill="#000000" fill-rule="evenodd" fill-opacity="1" /><path clip-path="url(#clip040)" d="M1272.47 1517.37 Q1268.86 1517.37 1267.03 1520.93 Q1265.22 1524.47 1265.22 1531.6 Q1265.22 1538.71 1267.03 1542.27 Q1268.86 1545.82 1272.47 1545.82 Q1276.1 1545.82 1277.91 1542.27 Q1279.73 1538.71 1279.73 1531.6 Q1279.73 1524.47 1277.91 1520.93 Q1276.1 1517.37 1272.47 1517.37 M1272.47 1513.66 Q1278.28 1513.66 1281.33 1518.27 Q1284.41 1522.85 1284.41 1531.6 Q1284.41 1540.33 1281.33 1544.94 Q1278.28 1549.52 1272.47 1549.52 Q1266.66 1549.52 1263.58 1544.94 Q1260.52 1540.33 1260.52 1531.6 Q1260.52 1522.85 1263.58 1518.27 Q1266.66 1513.66 1272.47 1513.66 Z" fill="#000000" fill-rule="evenodd" fill-opacity="1" /><path clip-path="url(#clip040)" d="M1736.55 1514.29 L1758.77 1514.29 L1758.77 1516.28 L1746.23 1548.85 L1741.34 1548.85 L1753.15 1518.22 L1736.55 1518.22 L1736.55 1514.29 Z" fill="#000000" fill-rule="evenodd" fill-opacity="1" /><path clip-path="url(#clip040)" d="M1767.89 1542.97 L1772.78 1542.97 L1772.78 1548.85 L1767.89 1548.85 L1767.89 1542.97 Z" fill="#000000" fill-rule="evenodd" fill-opacity="1" /><path clip-path="url(#clip040)" d="M1783.01 1514.29 L1801.36 1514.29 L1801.36 1518.22 L1787.29 1518.22 L1787.29 1526.7 Q1788.31 1526.35 1789.33 1526.19 Q1790.35 1526 1791.36 1526 Q1797.15 1526 1800.53 1529.17 Q1803.91 1532.34 1803.91 1537.76 Q1803.91 1543.34 1800.44 1546.44 Q1796.97 1549.52 1790.65 1549.52 Q1788.47 1549.52 1786.2 1549.15 Q1783.96 1548.78 1781.55 1548.04 L1781.55 1543.34 Q1783.63 1544.47 1785.85 1545.03 Q1788.08 1545.58 1790.55 1545.58 Q1794.56 1545.58 1796.9 1543.48 Q1799.23 1541.37 1799.23 1537.76 Q1799.23 1534.15 1796.9 1532.04 Q1794.56 1529.94 1790.55 1529.94 Q1788.68 1529.94 1786.8 1530.35 Q1784.95 1530.77 1783.01 1531.65 L1783.01 1514.29 Z" fill="#000000" fill-rule="evenodd" fill-opacity="1" /><path clip-path="url(#clip040)" d="M2242.41 1544.91 L2250.05 1544.91 L2250.05 1518.55 L2241.74 1520.21 L2241.74 1515.95 L2250.01 1514.29 L2254.68 1514.29 L2254.68 1544.91 L2262.32 1544.91 L2262.32 1548.85 L2242.41 1548.85 L2242.41 1544.91 Z" fill="#000000" fill-rule="evenodd" fill-opacity="1" /><path clip-path="url(#clip040)" d="M2281.77 1517.37 Q2278.15 1517.37 2276.33 1520.93 Q2274.52 1524.47 2274.52 1531.6 Q2274.52 1538.71 2276.33 1542.27 Q2278.15 1545.82 2281.77 1545.82 Q2285.4 1545.82 2287.21 1542.27 Q2289.03 1538.71 2289.03 1531.6 Q2289.03 1524.47 2287.21 1520.93 Q2285.4 1517.37 2281.77 1517.37 M2281.77 1513.66 Q2287.58 1513.66 2290.63 1518.27 Q2293.71 1522.85 2293.71 1531.6 Q2293.71 1540.33 2290.63 1544.94 Q2287.58 1549.52 2281.77 1549.52 Q2275.96 1549.52 2272.88 1544.94 Q2269.82 1540.33 2269.82 1531.6 Q2269.82 1522.85 2272.88 1518.27 Q2275.96 1513.66 2281.77 1513.66 Z" fill="#000000" fill-rule="evenodd" fill-opacity="1" /><path clip-path="url(#clip040)" d="M2301.93 1542.97 L2306.81 1542.97 L2306.81 1548.85 L2301.93 1548.85 L2301.93 1542.97 Z" fill="#000000" fill-rule="evenodd" fill-opacity="1" /><path clip-path="url(#clip040)" d="M2327 1517.37 Q2323.39 1517.37 2321.56 1520.93 Q2319.75 1524.47 2319.75 1531.6 Q2319.75 1538.71 2321.56 1542.27 Q2323.39 1545.82 2327 1545.82 Q2330.63 1545.82 2332.44 1542.27 Q2334.27 1538.71 2334.27 1531.6 Q2334.27 1524.47 2332.44 1520.93 Q2330.63 1517.37 2327 1517.37 M2327 1513.66 Q2332.81 1513.66 2335.86 1518.27 Q2338.94 1522.85 2338.94 1531.6 Q2338.94 1540.33 2335.86 1544.94 Q2332.81 1549.52 2327 1549.52 Q2321.19 1549.52 2318.11 1544.94 Q2315.05 1540.33 2315.05 1531.6 Q2315.05 1522.85 2318.11 1518.27 Q2321.19 1513.66 2327 1513.66 Z" fill="#000000" fill-rule="evenodd" fill-opacity="1" /><polyline clip-path="url(#clip042)" style="stroke:#000000; stroke-linecap:butt; stroke-linejoin:round; stroke-width:2; stroke-opacity:0.1; fill:none" points="
  147.478,1277.75 2352.76,1277.75 
  "/>
<polyline clip-path="url(#clip042)" style="stroke:#000000; stroke-linecap:butt; stroke-linejoin:round; stroke-width:2; stroke-opacity:0.1; fill:none" points="
  147.478,887.253 2352.76,887.253 
  "/>
<polyline clip-path="url(#clip042)" style="stroke:#000000; stroke-linecap:butt; stroke-linejoin:round; stroke-width:2; stroke-opacity:0.1; fill:none" points="
  147.478,496.752 2352.76,496.752 
  "/>
<polyline clip-path="url(#clip042)" style="stroke:#000000; stroke-linecap:butt; stroke-linejoin:round; stroke-width:2; stroke-opacity:0.1; fill:none" points="
  147.478,106.251 2352.76,106.251 
  "/>
<polyline clip-path="url(#clip040)" style="stroke:#000000; stroke-linecap:butt; stroke-linejoin:round; stroke-width:4; stroke-opacity:1; fill:none" points="
  147.478,1486.45 147.478,47.2441 
  "/>
<polyline clip-path="url(#clip040)" style="stroke:#000000; stroke-linecap:butt; stroke-linejoin:round; stroke-width:4; stroke-opacity:1; fill:none" points="
  147.478,1277.75 166.376,1277.75 
  "/>
<polyline clip-path="url(#clip040)" style="stroke:#000000; stroke-linecap:butt; stroke-linejoin:round; stroke-width:4; stroke-opacity:1; fill:none" points="
  147.478,887.253 166.376,887.253 
  "/>
<polyline clip-path="url(#clip040)" style="stroke:#000000; stroke-linecap:butt; stroke-linejoin:round; stroke-width:4; stroke-opacity:1; fill:none" points="
  147.478,496.752 166.376,496.752 
  "/>
<polyline clip-path="url(#clip040)" style="stroke:#000000; stroke-linecap:butt; stroke-linejoin:round; stroke-width:4; stroke-opacity:1; fill:none" points="
  147.478,106.251 166.376,106.251 
  "/>
<path clip-path="url(#clip040)" d="M51.3625 1278.2 L81.0383 1278.2 L81.0383 1282.14 L51.3625 1282.14 L51.3625 1278.2 Z" fill="#000000" fill-rule="evenodd" fill-opacity="1" /><path clip-path="url(#clip040)" d="M95.1586 1291.1 L111.478 1291.1 L111.478 1295.03 L89.5336 1295.03 L89.5336 1291.1 Q92.1956 1288.34 96.7789 1283.71 Q101.385 1279.06 102.566 1277.72 Q104.811 1275.2 105.691 1273.46 Q106.594 1271.7 106.594 1270.01 Q106.594 1267.26 104.649 1265.52 Q102.728 1263.78 99.6261 1263.78 Q97.4271 1263.78 94.9734 1264.55 Q92.5428 1265.31 89.7651 1266.86 L89.7651 1262.14 Q92.5891 1261.01 95.0428 1260.43 Q97.4965 1259.85 99.5335 1259.85 Q104.904 1259.85 108.098 1262.53 Q111.293 1265.22 111.293 1269.71 Q111.293 1271.84 110.483 1273.76 Q109.696 1275.66 107.589 1278.25 Q107.01 1278.92 103.909 1282.14 Q100.807 1285.33 95.1586 1291.1 Z" fill="#000000" fill-rule="evenodd" fill-opacity="1" /><path clip-path="url(#clip040)" d="M50.9921 887.704 L80.6679 887.704 L80.6679 891.639 L50.9921 891.639 L50.9921 887.704 Z" fill="#000000" fill-rule="evenodd" fill-opacity="1" /><path clip-path="url(#clip040)" d="M91.5706 900.597 L99.2095 900.597 L99.2095 874.232 L90.8993 875.898 L90.8993 871.639 L99.1632 869.973 L103.839 869.973 L103.839 900.597 L111.478 900.597 L111.478 904.533 L91.5706 904.533 L91.5706 900.597 Z" fill="#000000" fill-rule="evenodd" fill-opacity="1" /><path clip-path="url(#clip040)" d="M99.5335 482.55 Q95.9224 482.55 94.0937 486.115 Q92.2882 489.657 92.2882 496.787 Q92.2882 503.893 94.0937 507.458 Q95.9224 510.999 99.5335 510.999 Q103.168 510.999 104.973 507.458 Q106.802 503.893 106.802 496.787 Q106.802 489.657 104.973 486.115 Q103.168 482.55 99.5335 482.55 M99.5335 478.847 Q105.344 478.847 108.399 483.453 Q111.478 488.037 111.478 496.787 Q111.478 505.513 108.399 510.12 Q105.344 514.703 99.5335 514.703 Q93.7234 514.703 90.6447 510.12 Q87.5892 505.513 87.5892 496.787 Q87.5892 488.037 90.6447 483.453 Q93.7234 478.847 99.5335 478.847 Z" fill="#000000" fill-rule="evenodd" fill-opacity="1" /><path clip-path="url(#clip040)" d="M91.5706 119.596 L99.2095 119.596 L99.2095 93.2303 L90.8993 94.897 L90.8993 90.6377 L99.1632 88.9711 L103.839 88.9711 L103.839 119.596 L111.478 119.596 L111.478 123.531 L91.5706 123.531 L91.5706 119.596 Z" fill="#000000" fill-rule="evenodd" fill-opacity="1" /><circle clip-path="url(#clip042)" cx="209.891" cy="106.251" r="14.4" fill="#009af9" fill-rule="evenodd" fill-opacity="1" stroke="#000000" stroke-opacity="1" stroke-width="3.2"/>
<circle clip-path="url(#clip042)" cx="230.696" cy="106.251" r="14.4" fill="#009af9" fill-rule="evenodd" fill-opacity="1" stroke="#000000" stroke-opacity="1" stroke-width="3.2"/>
<circle clip-path="url(#clip042)" cx="251.5" cy="110.348" r="14.4" fill="#009af9" fill-rule="evenodd" fill-opacity="1" stroke="#000000" stroke-opacity="1" stroke-width="3.2"/>
<circle clip-path="url(#clip042)" cx="272.305" cy="118.091" r="14.4" fill="#009af9" fill-rule="evenodd" fill-opacity="1" stroke="#000000" stroke-opacity="1" stroke-width="3.2"/>
<circle clip-path="url(#clip042)" cx="293.109" cy="129.854" r="14.4" fill="#009af9" fill-rule="evenodd" fill-opacity="1" stroke="#000000" stroke-opacity="1" stroke-width="3.2"/>
<circle clip-path="url(#clip042)" cx="313.914" cy="145.022" r="14.4" fill="#009af9" fill-rule="evenodd" fill-opacity="1" stroke="#000000" stroke-opacity="1" stroke-width="3.2"/>
<circle clip-path="url(#clip042)" cx="334.718" cy="163.991" r="14.4" fill="#009af9" fill-rule="evenodd" fill-opacity="1" stroke="#000000" stroke-opacity="1" stroke-width="3.2"/>
<circle clip-path="url(#clip042)" cx="355.523" cy="185.971" r="14.4" fill="#009af9" fill-rule="evenodd" fill-opacity="1" stroke="#000000" stroke-opacity="1" stroke-width="3.2"/>
<circle clip-path="url(#clip042)" cx="376.328" cy="211.401" r="14.4" fill="#009af9" fill-rule="evenodd" fill-opacity="1" stroke="#000000" stroke-opacity="1" stroke-width="3.2"/>
<circle clip-path="url(#clip042)" cx="397.132" cy="239.302" r="14.4" fill="#009af9" fill-rule="evenodd" fill-opacity="1" stroke="#000000" stroke-opacity="1" stroke-width="3.2"/>
<circle clip-path="url(#clip042)" cx="417.937" cy="270.194" r="14.4" fill="#009af9" fill-rule="evenodd" fill-opacity="1" stroke="#000000" stroke-opacity="1" stroke-width="3.2"/>
<circle clip-path="url(#clip042)" cx="438.741" cy="302.89" r="14.4" fill="#009af9" fill-rule="evenodd" fill-opacity="1" stroke="#000000" stroke-opacity="1" stroke-width="3.2"/>
<circle clip-path="url(#clip042)" cx="459.546" cy="338.028" r="14.4" fill="#009af9" fill-rule="evenodd" fill-opacity="1" stroke="#000000" stroke-opacity="1" stroke-width="3.2"/>
<circle clip-path="url(#clip042)" cx="480.35" cy="374.196" r="14.4" fill="#009af9" fill-rule="evenodd" fill-opacity="1" stroke="#000000" stroke-opacity="1" stroke-width="3.2"/>
<circle clip-path="url(#clip042)" cx="501.155" cy="412.2" r="14.4" fill="#009af9" fill-rule="evenodd" fill-opacity="1" stroke="#000000" stroke-opacity="1" stroke-width="3.2"/>
<circle clip-path="url(#clip042)" cx="521.959" cy="450.376" r="14.4" fill="#009af9" fill-rule="evenodd" fill-opacity="1" stroke="#000000" stroke-opacity="1" stroke-width="3.2"/>
<circle clip-path="url(#clip042)" cx="542.764" cy="489.757" r="14.4" fill="#009af9" fill-rule="evenodd" fill-opacity="1" stroke="#000000" stroke-opacity="1" stroke-width="3.2"/>
<circle clip-path="url(#clip042)" cx="563.568" cy="528.392" r="14.4" fill="#009af9" fill-rule="evenodd" fill-opacity="1" stroke="#000000" stroke-opacity="1" stroke-width="3.2"/>
<circle clip-path="url(#clip042)" cx="584.373" cy="567.607" r="14.4" fill="#009af9" fill-rule="evenodd" fill-opacity="1" stroke="#000000" stroke-opacity="1" stroke-width="3.2"/>
<circle clip-path="url(#clip042)" cx="605.177" cy="605.128" r="14.4" fill="#009af9" fill-rule="evenodd" fill-opacity="1" stroke="#000000" stroke-opacity="1" stroke-width="3.2"/>
<circle clip-path="url(#clip042)" cx="625.982" cy="642.652" r="14.4" fill="#009af9" fill-rule="evenodd" fill-opacity="1" stroke="#000000" stroke-opacity="1" stroke-width="3.2"/>
<circle clip-path="url(#clip042)" cx="646.786" cy="677.524" r="14.4" fill="#009af9" fill-rule="evenodd" fill-opacity="1" stroke="#000000" stroke-opacity="1" stroke-width="3.2"/>
<circle clip-path="url(#clip042)" cx="667.591" cy="711.902" r="14.4" fill="#009af9" fill-rule="evenodd" fill-opacity="1" stroke="#000000" stroke-opacity="1" stroke-width="3.2"/>
<circle clip-path="url(#clip042)" cx="688.395" cy="742.687" r="14.4" fill="#009af9" fill-rule="evenodd" fill-opacity="1" stroke="#000000" stroke-opacity="1" stroke-width="3.2"/>
<circle clip-path="url(#clip042)" cx="709.2" cy="772.603" r="14.4" fill="#009af9" fill-rule="evenodd" fill-opacity="1" stroke="#000000" stroke-opacity="1" stroke-width="3.2"/>
<circle clip-path="url(#clip042)" cx="730.004" cy="798.016" r="14.4" fill="#009af9" fill-rule="evenodd" fill-opacity="1" stroke="#000000" stroke-opacity="1" stroke-width="3.2"/>
<circle clip-path="url(#clip042)" cx="750.809" cy="822.34" r="14.4" fill="#009af9" fill-rule="evenodd" fill-opacity="1" stroke="#000000" stroke-opacity="1" stroke-width="3.2"/>
<circle clip-path="url(#clip042)" cx="771.613" cy="841.298" r="14.4" fill="#009af9" fill-rule="evenodd" fill-opacity="1" stroke="#000000" stroke-opacity="1" stroke-width="3.2"/>
<circle clip-path="url(#clip042)" cx="792.418" cy="859.137" r="14.4" fill="#009af9" fill-rule="evenodd" fill-opacity="1" stroke="#000000" stroke-opacity="1" stroke-width="3.2"/>
<circle clip-path="url(#clip042)" cx="813.222" cy="870.799" r="14.4" fill="#009af9" fill-rule="evenodd" fill-opacity="1" stroke="#000000" stroke-opacity="1" stroke-width="3.2"/>
<circle clip-path="url(#clip042)" cx="834.027" cy="881.536" r="14.4" fill="#009af9" fill-rule="evenodd" fill-opacity="1" stroke="#000000" stroke-opacity="1" stroke-width="3.2"/>
<circle clip-path="url(#clip042)" cx="854.831" cy="885.334" r="14.4" fill="#009af9" fill-rule="evenodd" fill-opacity="1" stroke="#000000" stroke-opacity="1" stroke-width="3.2"/>
<circle clip-path="url(#clip042)" cx="875.636" cy="888.654" r="14.4" fill="#009af9" fill-rule="evenodd" fill-opacity="1" stroke="#000000" stroke-opacity="1" stroke-width="3.2"/>
<circle clip-path="url(#clip042)" cx="896.44" cy="884.313" r="14.4" fill="#009af9" fill-rule="evenodd" fill-opacity="1" stroke="#000000" stroke-opacity="1" stroke-width="3.2"/>
<circle clip-path="url(#clip042)" cx="917.245" cy="880.219" r="14.4" fill="#009af9" fill-rule="evenodd" fill-opacity="1" stroke="#000000" stroke-opacity="1" stroke-width="3.2"/>
<circle clip-path="url(#clip042)" cx="938.049" cy="867.762" r="14.4" fill="#009af9" fill-rule="evenodd" fill-opacity="1" stroke="#000000" stroke-opacity="1" stroke-width="3.2"/>
<circle clip-path="url(#clip042)" cx="958.854" cy="856.583" r="14.4" fill="#009af9" fill-rule="evenodd" fill-opacity="1" stroke="#000000" stroke-opacity="1" stroke-width="3.2"/>
<circle clip-path="url(#clip042)" cx="979.658" cy="836.326" r="14.4" fill="#009af9" fill-rule="evenodd" fill-opacity="1" stroke="#000000" stroke-opacity="1" stroke-width="3.2"/>
<circle clip-path="url(#clip042)" cx="1000.46" cy="818.706" r="14.4" fill="#009af9" fill-rule="evenodd" fill-opacity="1" stroke="#000000" stroke-opacity="1" stroke-width="3.2"/>
<circle clip-path="url(#clip042)" cx="1021.27" cy="791.236" r="14.4" fill="#009af9" fill-rule="evenodd" fill-opacity="1" stroke="#000000" stroke-opacity="1" stroke-width="3.2"/>
<circle clip-path="url(#clip042)" cx="1042.07" cy="768.121" r="14.4" fill="#009af9" fill-rule="evenodd" fill-opacity="1" stroke="#000000" stroke-opacity="1" stroke-width="3.2"/>
<circle clip-path="url(#clip042)" cx="1062.88" cy="734.267" r="14.4" fill="#009af9" fill-rule="evenodd" fill-opacity="1" stroke="#000000" stroke-opacity="1" stroke-width="3.2"/>
<circle clip-path="url(#clip042)" cx="1083.68" cy="706.87" r="14.4" fill="#009af9" fill-rule="evenodd" fill-opacity="1" stroke="#000000" stroke-opacity="1" stroke-width="3.2"/>
<circle clip-path="url(#clip042)" cx="1104.49" cy="667.661" r="14.4" fill="#009af9" fill-rule="evenodd" fill-opacity="1" stroke="#000000" stroke-opacity="1" stroke-width="3.2"/>
<circle clip-path="url(#clip042)" cx="1125.29" cy="637.428" r="14.4" fill="#009af9" fill-rule="evenodd" fill-opacity="1" stroke="#000000" stroke-opacity="1" stroke-width="3.2"/>
<circle clip-path="url(#clip042)" cx="1146.09" cy="594.037" r="14.4" fill="#009af9" fill-rule="evenodd" fill-opacity="1" stroke="#000000" stroke-opacity="1" stroke-width="3.2"/>
<circle clip-path="url(#clip042)" cx="1166.9" cy="562.601" r="14.4" fill="#009af9" fill-rule="evenodd" fill-opacity="1" stroke="#000000" stroke-opacity="1" stroke-width="3.2"/>
<circle clip-path="url(#clip042)" cx="1187.7" cy="516.288" r="14.4" fill="#009af9" fill-rule="evenodd" fill-opacity="1" stroke="#000000" stroke-opacity="1" stroke-width="3.2"/>
<circle clip-path="url(#clip042)" cx="1208.51" cy="485.421" r="14.4" fill="#009af9" fill-rule="evenodd" fill-opacity="1" stroke="#000000" stroke-opacity="1" stroke-width="3.2"/>
<circle clip-path="url(#clip042)" cx="1229.31" cy="437.462" r="14.4" fill="#009af9" fill-rule="evenodd" fill-opacity="1" stroke="#000000" stroke-opacity="1" stroke-width="3.2"/>
<circle clip-path="url(#clip042)" cx="1250.12" cy="409.021" r="14.4" fill="#009af9" fill-rule="evenodd" fill-opacity="1" stroke="#000000" stroke-opacity="1" stroke-width="3.2"/>
<circle clip-path="url(#clip042)" cx="1270.92" cy="360.638" r="14.4" fill="#009af9" fill-rule="evenodd" fill-opacity="1" stroke="#000000" stroke-opacity="1" stroke-width="3.2"/>
<circle clip-path="url(#clip042)" cx="1291.73" cy="336.516" r="14.4" fill="#009af9" fill-rule="evenodd" fill-opacity="1" stroke="#000000" stroke-opacity="1" stroke-width="3.2"/>
<circle clip-path="url(#clip042)" cx="1312.53" cy="288.803" r="14.4" fill="#009af9" fill-rule="evenodd" fill-opacity="1" stroke="#000000" stroke-opacity="1" stroke-width="3.2"/>
<circle clip-path="url(#clip042)" cx="1333.33" cy="270.879" r="14.4" fill="#009af9" fill-rule="evenodd" fill-opacity="1" stroke="#000000" stroke-opacity="1" stroke-width="3.2"/>
<circle clip-path="url(#clip042)" cx="1354.14" cy="224.73" r="14.4" fill="#009af9" fill-rule="evenodd" fill-opacity="1" stroke="#000000" stroke-opacity="1" stroke-width="3.2"/>
<circle clip-path="url(#clip042)" cx="1374.94" cy="214.83" r="14.4" fill="#009af9" fill-rule="evenodd" fill-opacity="1" stroke="#000000" stroke-opacity="1" stroke-width="3.2"/>
<circle clip-path="url(#clip042)" cx="1395.75" cy="170.862" r="14.4" fill="#009af9" fill-rule="evenodd" fill-opacity="1" stroke="#000000" stroke-opacity="1" stroke-width="3.2"/>
<circle clip-path="url(#clip042)" cx="1416.55" cy="170.723" r="14.4" fill="#009af9" fill-rule="evenodd" fill-opacity="1" stroke="#000000" stroke-opacity="1" stroke-width="3.2"/>
<circle clip-path="url(#clip042)" cx="1437.36" cy="129.212" r="14.4" fill="#009af9" fill-rule="evenodd" fill-opacity="1" stroke="#000000" stroke-opacity="1" stroke-width="3.2"/>
<circle clip-path="url(#clip042)" cx="1458.16" cy="140.465" r="14.4" fill="#009af9" fill-rule="evenodd" fill-opacity="1" stroke="#000000" stroke-opacity="1" stroke-width="3.2"/>
<circle clip-path="url(#clip042)" cx="1478.97" cy="101.278" r="14.4" fill="#009af9" fill-rule="evenodd" fill-opacity="1" stroke="#000000" stroke-opacity="1" stroke-width="3.2"/>
<circle clip-path="url(#clip042)" cx="1499.77" cy="125.442" r="14.4" fill="#009af9" fill-rule="evenodd" fill-opacity="1" stroke="#000000" stroke-opacity="1" stroke-width="3.2"/>
<circle clip-path="url(#clip042)" cx="1520.58" cy="87.9763" r="14.4" fill="#009af9" fill-rule="evenodd" fill-opacity="1" stroke="#000000" stroke-opacity="1" stroke-width="3.2"/>
<circle clip-path="url(#clip042)" cx="1541.38" cy="126.469" r="14.4" fill="#009af9" fill-rule="evenodd" fill-opacity="1" stroke="#000000" stroke-opacity="1" stroke-width="3.2"/>
<circle clip-path="url(#clip042)" cx="1562.18" cy="89.5998" r="14.4" fill="#009af9" fill-rule="evenodd" fill-opacity="1" stroke="#000000" stroke-opacity="1" stroke-width="3.2"/>
<circle clip-path="url(#clip042)" cx="1582.99" cy="143.767" r="14.4" fill="#009af9" fill-rule="evenodd" fill-opacity="1" stroke="#000000" stroke-opacity="1" stroke-width="3.2"/>
<circle clip-path="url(#clip042)" cx="1603.79" cy="105.796" r="14.4" fill="#009af9" fill-rule="evenodd" fill-opacity="1" stroke="#000000" stroke-opacity="1" stroke-width="3.2"/>
<circle clip-path="url(#clip042)" cx="1624.6" cy="176.962" r="14.4" fill="#009af9" fill-rule="evenodd" fill-opacity="1" stroke="#000000" stroke-opacity="1" stroke-width="3.2"/>
<circle clip-path="url(#clip042)" cx="1645.4" cy="135.569" r="14.4" fill="#009af9" fill-rule="evenodd" fill-opacity="1" stroke="#000000" stroke-opacity="1" stroke-width="3.2"/>
<circle clip-path="url(#clip042)" cx="1666.21" cy="225.116" r="14.4" fill="#009af9" fill-rule="evenodd" fill-opacity="1" stroke="#000000" stroke-opacity="1" stroke-width="3.2"/>
<circle clip-path="url(#clip042)" cx="1687.01" cy="177.313" r="14.4" fill="#009af9" fill-rule="evenodd" fill-opacity="1" stroke="#000000" stroke-opacity="1" stroke-width="3.2"/>
<circle clip-path="url(#clip042)" cx="1707.82" cy="286.771" r="14.4" fill="#009af9" fill-rule="evenodd" fill-opacity="1" stroke="#000000" stroke-opacity="1" stroke-width="3.2"/>
<circle clip-path="url(#clip042)" cx="1728.62" cy="228.851" r="14.4" fill="#009af9" fill-rule="evenodd" fill-opacity="1" stroke="#000000" stroke-opacity="1" stroke-width="3.2"/>
<circle clip-path="url(#clip042)" cx="1749.43" cy="360.032" r="14.4" fill="#009af9" fill-rule="evenodd" fill-opacity="1" stroke="#000000" stroke-opacity="1" stroke-width="3.2"/>
<circle clip-path="url(#clip042)" cx="1770.23" cy="287.512" r="14.4" fill="#009af9" fill-rule="evenodd" fill-opacity="1" stroke="#000000" stroke-opacity="1" stroke-width="3.2"/>
<circle clip-path="url(#clip042)" cx="1791.03" cy="442.657" r="14.4" fill="#009af9" fill-rule="evenodd" fill-opacity="1" stroke="#000000" stroke-opacity="1" stroke-width="3.2"/>
<circle clip-path="url(#clip042)" cx="1811.84" cy="350.21" r="14.4" fill="#009af9" fill-rule="evenodd" fill-opacity="1" stroke="#000000" stroke-opacity="1" stroke-width="3.2"/>
<circle clip-path="url(#clip042)" cx="1832.64" cy="532.173" r="14.4" fill="#009af9" fill-rule="evenodd" fill-opacity="1" stroke="#000000" stroke-opacity="1" stroke-width="3.2"/>
<circle clip-path="url(#clip042)" cx="1853.45" cy="413.542" r="14.4" fill="#009af9" fill-rule="evenodd" fill-opacity="1" stroke="#000000" stroke-opacity="1" stroke-width="3.2"/>
<circle clip-path="url(#clip042)" cx="1874.25" cy="626.006" r="14.4" fill="#009af9" fill-rule="evenodd" fill-opacity="1" stroke="#000000" stroke-opacity="1" stroke-width="3.2"/>
<circle clip-path="url(#clip042)" cx="1895.06" cy="473.89" r="14.4" fill="#009af9" fill-rule="evenodd" fill-opacity="1" stroke="#000000" stroke-opacity="1" stroke-width="3.2"/>
<circle clip-path="url(#clip042)" cx="1915.86" cy="721.619" r="14.4" fill="#009af9" fill-rule="evenodd" fill-opacity="1" stroke="#000000" stroke-opacity="1" stroke-width="3.2"/>
<circle clip-path="url(#clip042)" cx="1936.67" cy="527.522" r="14.4" fill="#009af9" fill-rule="evenodd" fill-opacity="1" stroke="#000000" stroke-opacity="1" stroke-width="3.2"/>
<circle clip-path="url(#clip042)" cx="1957.47" cy="816.656" r="14.4" fill="#009af9" fill-rule="evenodd" fill-opacity="1" stroke="#000000" stroke-opacity="1" stroke-width="3.2"/>
<circle clip-path="url(#clip042)" cx="1978.27" cy="570.701" r="14.4" fill="#009af9" fill-rule="evenodd" fill-opacity="1" stroke="#000000" stroke-opacity="1" stroke-width="3.2"/>
<circle clip-path="url(#clip042)" cx="1999.08" cy="909.088" r="14.4" fill="#009af9" fill-rule="evenodd" fill-opacity="1" stroke="#000000" stroke-opacity="1" stroke-width="3.2"/>
<circle clip-path="url(#clip042)" cx="2019.88" cy="599.767" r="14.4" fill="#009af9" fill-rule="evenodd" fill-opacity="1" stroke="#000000" stroke-opacity="1" stroke-width="3.2"/>
<circle clip-path="url(#clip042)" cx="2040.69" cy="997.364" r="14.4" fill="#009af9" fill-rule="evenodd" fill-opacity="1" stroke="#000000" stroke-opacity="1" stroke-width="3.2"/>
<circle clip-path="url(#clip042)" cx="2061.49" cy="611.217" r="14.4" fill="#009af9" fill-rule="evenodd" fill-opacity="1" stroke="#000000" stroke-opacity="1" stroke-width="3.2"/>
<circle clip-path="url(#clip042)" cx="2082.3" cy="1080.54" r="14.4" fill="#009af9" fill-rule="evenodd" fill-opacity="1" stroke="#000000" stroke-opacity="1" stroke-width="3.2"/>
<circle clip-path="url(#clip042)" cx="2103.1" cy="601.756" r="14.4" fill="#009af9" fill-rule="evenodd" fill-opacity="1" stroke="#000000" stroke-opacity="1" stroke-width="3.2"/>
<circle clip-path="url(#clip042)" cx="2123.91" cy="1158.43" r="14.4" fill="#009af9" fill-rule="evenodd" fill-opacity="1" stroke="#000000" stroke-opacity="1" stroke-width="3.2"/>
<circle clip-path="url(#clip042)" cx="2144.71" cy="568.331" r="14.4" fill="#009af9" fill-rule="evenodd" fill-opacity="1" stroke="#000000" stroke-opacity="1" stroke-width="3.2"/>
<circle clip-path="url(#clip042)" cx="2165.52" cy="1231.69" r="14.4" fill="#009af9" fill-rule="evenodd" fill-opacity="1" stroke="#000000" stroke-opacity="1" stroke-width="3.2"/>
<circle clip-path="url(#clip042)" cx="2186.32" cy="508.119" r="14.4" fill="#009af9" fill-rule="evenodd" fill-opacity="1" stroke="#000000" stroke-opacity="1" stroke-width="3.2"/>
<circle clip-path="url(#clip042)" cx="2207.12" cy="1301.98" r="14.4" fill="#009af9" fill-rule="evenodd" fill-opacity="1" stroke="#000000" stroke-opacity="1" stroke-width="3.2"/>
<circle clip-path="url(#clip042)" cx="2227.93" cy="418.495" r="14.4" fill="#009af9" fill-rule="evenodd" fill-opacity="1" stroke="#000000" stroke-opacity="1" stroke-width="3.2"/>
<circle clip-path="url(#clip042)" cx="2248.73" cy="1372.02" r="14.4" fill="#009af9" fill-rule="evenodd" fill-opacity="1" stroke="#000000" stroke-opacity="1" stroke-width="3.2"/>
<circle clip-path="url(#clip042)" cx="2269.54" cy="296.951" r="14.4" fill="#009af9" fill-rule="evenodd" fill-opacity="1" stroke="#000000" stroke-opacity="1" stroke-width="3.2"/>
<circle clip-path="url(#clip042)" cx="2290.34" cy="1445.72" r="14.4" fill="#009af9" fill-rule="evenodd" fill-opacity="1" stroke="#000000" stroke-opacity="1" stroke-width="3.2"/>
<polyline clip-path="url(#clip042)" style="stroke:#e26f46; stroke-linecap:butt; stroke-linejoin:round; stroke-width:12; stroke-opacity:1; fill:none" points="
  209.891,106.251 213.278,106.303 216.664,106.458 220.05,106.717 223.436,107.078 239.092,110.091 254.747,115.292 262.574,118.705 270.402,122.652 278.23,127.129 
  286.057,132.13 293.885,137.646 301.712,143.671 309.54,150.195 317.368,157.21 333.023,172.671 348.678,189.967 358.086,201.203 367.494,213.043 376.903,225.463 
  386.311,238.438 405.127,265.944 423.943,295.337 439.852,321.484 455.761,348.654 471.67,376.69 487.579,405.428 522.142,469.472 556.705,534.267 588.569,593.127 
  620.434,649.732 637.514,678.681 654.595,706.406 671.676,732.717 688.757,757.439 698.652,770.968 708.547,783.876 718.442,796.134 728.337,807.716 738.232,818.594 
  748.127,828.745 758.022,838.144 767.917,846.772 776.71,853.775 785.503,860.14 794.297,865.857 803.09,870.914 811.884,875.303 820.677,879.015 829.471,882.045 
  838.264,884.387 853.686,886.82 869.108,887.11 884.53,885.256 899.953,881.269 908.36,878.203 916.767,874.515 925.174,870.211 933.581,865.296 941.988,859.78 
  950.395,853.671 958.802,846.979 967.21,839.716 975.667,831.844 984.124,823.419 992.581,814.454 1001.04,804.964 1017.95,784.473 1034.87,762.081 1053.57,735.29 
  1072.27,706.573 1090.97,676.162 1109.67,644.302 1145.26,580.605 1180.84,514.461 1217.84,445.166 1254.85,377.498 1270.42,350.023 1285.99,323.369 1301.57,297.686 
  1317.14,273.118 1326.65,258.728 1336.16,244.835 1345.66,231.468 1355.17,218.655 1364.68,206.422 1374.18,194.796 1383.69,183.8 1393.2,173.457 1401.91,164.575 
  1410.62,156.274 1419.32,148.57 1428.03,141.476 1436.74,135.004 1445.45,129.166 1454.16,123.973 1462.87,119.432 1470.91,115.826 1478.96,112.788 1487,110.325 
  1495.04,108.439 1503.09,107.134 1511.13,106.411 1519.17,106.271 1527.22,106.715 1535.36,107.759 1543.51,109.399 1551.66,111.634 1559.81,114.459 1567.95,117.87 
  1576.1,121.862 1584.25,126.43 1592.4,131.565 1601.53,137.985 1610.66,145.096 1619.79,152.885 1628.92,161.336 1638.05,170.433 1647.19,180.158 1656.32,190.494 
  1665.45,201.419 1682,222.653 1698.55,245.621 1715.1,270.177 1731.64,296.166 1750.59,327.469 1769.54,360.175 1788.49,394.013 1807.43,428.702 1842.52,494.211 
  1877.61,559.793 1894.9,591.577 1912.2,622.706 1929.5,652.965 1946.79,682.144 1963.58,709.252 1980.38,734.976 1997.17,759.149 2013.96,781.613 2022.57,792.417 
  2031.18,802.715 2039.78,812.489 2048.39,821.723 2065.61,838.508 2082.82,852.953 2092.25,859.839 2101.68,865.979 2111.11,871.361 2120.54,875.972 2129.97,879.805 
  2139.4,882.851 2148.83,885.104 2158.27,886.559 2171.96,887.245 2185.66,886.239 2199.36,883.545 2213.06,879.174 2226.76,873.146 2240.46,865.486 2254.16,856.228 
  2267.86,845.412 2273.48,840.534 2279.1,835.405 2284.72,830.029 2290.34,824.41 
  "/>
<path clip-path="url(#clip040)" d="
M1981.79 250.738 L2279.25 250.738 L2279.25 95.2176 L1981.79 95.2176  Z
  " fill="#ffffff" fill-rule="evenodd" fill-opacity="1"/>
<polyline clip-path="url(#clip040)" style="stroke:#000000; stroke-linecap:butt; stroke-linejoin:round; stroke-width:4; stroke-opacity:1; fill:none" points="
  1981.79,250.738 2279.25,250.738 2279.25,95.2176 1981.79,95.2176 1981.79,250.738 
  "/>
<circle clip-path="url(#clip040)" cx="2079.8" cy="147.058" r="23.04" fill="#009af9" fill-rule="evenodd" fill-opacity="1" stroke="#000000" stroke-opacity="1" stroke-width="5.12"/>
<path clip-path="url(#clip040)" d="M2191.65 166.745 Q2189.85 171.375 2188.13 172.787 Q2186.42 174.199 2183.55 174.199 L2180.15 174.199 L2180.15 170.634 L2182.65 170.634 Q2184.41 170.634 2185.38 169.8 Q2186.35 168.967 2187.53 165.865 L2188.3 163.921 L2177.81 138.412 L2182.32 138.412 L2190.43 158.689 L2198.53 138.412 L2203.04 138.412 L2191.65 166.745 Z" fill="#000000" fill-rule="evenodd" fill-opacity="1" /><path clip-path="url(#clip040)" d="M2210.33 160.402 L2217.97 160.402 L2217.97 134.037 L2209.66 135.703 L2209.66 131.444 L2217.93 129.778 L2222.6 129.778 L2222.6 160.402 L2230.24 160.402 L2230.24 164.338 L2210.33 164.338 L2210.33 160.402 Z" fill="#000000" fill-rule="evenodd" fill-opacity="1" /><polyline clip-path="url(#clip040)" style="stroke:#e26f46; stroke-linecap:butt; stroke-linejoin:round; stroke-width:4; stroke-opacity:1; fill:none" points="
  2006.29,198.898 2153.31,198.898 
  "/>
<path clip-path="url(#clip040)" d="M2191.65 218.585 Q2189.85 223.215 2188.13 224.627 Q2186.42 226.039 2183.55 226.039 L2180.15 226.039 L2180.15 222.474 L2182.65 222.474 Q2184.41 222.474 2185.38 221.64 Q2186.35 220.807 2187.53 217.705 L2188.3 215.761 L2177.81 190.252 L2182.32 190.252 L2190.43 210.529 L2198.53 190.252 L2203.04 190.252 L2191.65 218.585 Z" fill="#000000" fill-rule="evenodd" fill-opacity="1" /><path clip-path="url(#clip040)" d="M2213.55 212.242 L2229.87 212.242 L2229.87 216.178 L2207.93 216.178 L2207.93 212.242 Q2210.59 209.488 2215.17 204.858 Q2219.78 200.205 2220.96 198.863 Q2223.2 196.34 2224.08 194.604 Q2224.99 192.844 2224.99 191.155 Q2224.99 188.4 2223.04 186.664 Q2221.12 184.928 2218.02 184.928 Q2215.82 184.928 2213.37 185.692 Q2210.94 186.455 2208.16 188.006 L2208.16 183.284 Q2210.98 182.15 2213.43 181.571 Q2215.89 180.993 2217.93 180.993 Q2223.3 180.993 2226.49 183.678 Q2229.68 186.363 2229.68 190.854 Q2229.68 192.983 2228.87 194.905 Q2228.09 196.803 2225.98 199.395 Q2225.4 200.067 2222.3 203.284 Q2219.2 206.479 2213.55 212.242 Z" fill="#000000" fill-rule="evenodd" fill-opacity="1" /></svg>
