<?xml version="1.0" encoding="utf-8"?>
<svg xmlns="http://www.w3.org/2000/svg" xmlns:xlink="http://www.w3.org/1999/xlink" width="600" height="400" viewBox="0 0 2400 1600">
<defs>
  <clipPath id="clip400">
    <rect x="0" y="0" width="2400" height="1600"/>
  </clipPath>
</defs>
<path clip-path="url(#clip400)" d="
M0 1600 L2400 1600 L2400 0 L0 0  Z
  " fill="#ffffff" fill-rule="evenodd" fill-opacity="1"/>
<defs>
  <clipPath id="clip401">
    <rect x="480" y="0" width="1681" height="1600"/>
  </clipPath>
</defs>
<defs>
  <clipPath id="clip402">
    <rect x="186" y="123" width="2167" height="1364"/>
  </clipPath>
</defs>
<path clip-path="url(#clip400)" d="
M186.76 1486.45 L2352.76 1486.45 L2352.76 123.472 L186.76 123.472  Z
  " fill="#ffffff" fill-rule="evenodd" fill-opacity="1"/>
<polyline clip-path="url(#clip402)" style="stroke:#000000; stroke-linecap:butt; stroke-linejoin:round; stroke-width:2; stroke-opacity:0.1; fill:none" points="
  248.062,1486.45 248.062,123.472 
  "/>
<polyline clip-path="url(#clip402)" style="stroke:#000000; stroke-linecap:butt; stroke-linejoin:round; stroke-width:2; stroke-opacity:0.1; fill:none" points="
  758.91,1486.45 758.91,123.472 
  "/>
<polyline clip-path="url(#clip402)" style="stroke:#000000; stroke-linecap:butt; stroke-linejoin:round; stroke-width:2; stroke-opacity:0.1; fill:none" points="
  1269.76,1486.45 1269.76,123.472 
  "/>
<polyline clip-path="url(#clip402)" style="stroke:#000000; stroke-linecap:butt; stroke-linejoin:round; stroke-width:2; stroke-opacity:0.1; fill:none" points="
  1780.61,1486.45 1780.61,123.472 
  "/>
<polyline clip-path="url(#clip402)" style="stroke:#000000; stroke-linecap:butt; stroke-linejoin:round; stroke-width:2; stroke-opacity:0.1; fill:none" points="
  2291.45,1486.45 2291.45,123.472 
  "/>
<polyline clip-path="url(#clip400)" style="stroke:#000000; stroke-linecap:butt; stroke-linejoin:round; stroke-width:4; stroke-opacity:1; fill:none" points="
  186.76,1486.45 2352.76,1486.45 
  "/>
<polyline clip-path="url(#clip400)" style="stroke:#000000; stroke-linecap:butt; stroke-linejoin:round; stroke-width:4; stroke-opacity:1; fill:none" points="
  248.062,1486.45 248.062,1467.55 
  "/>
<polyline clip-path="url(#clip400)" style="stroke:#000000; stroke-linecap:butt; stroke-linejoin:round; stroke-width:4; stroke-opacity:1; fill:none" points="
  758.91,1486.45 758.91,1467.55 
  "/>
<polyline clip-path="url(#clip400)" style="stroke:#000000; stroke-linecap:butt; stroke-linejoin:round; stroke-width:4; stroke-opacity:1; fill:none" points="
  1269.76,1486.45 1269.76,1467.55 
  "/>
<polyline clip-path="url(#clip400)" style="stroke:#000000; stroke-linecap:butt; stroke-linejoin:round; stroke-width:4; stroke-opacity:1; fill:none" points="
  1780.61,1486.45 1780.61,1467.55 
  "/>
<polyline clip-path="url(#clip400)" style="stroke:#000000; stroke-linecap:butt; stroke-linejoin:round; stroke-width:4; stroke-opacity:1; fill:none" points="
  2291.45,1486.45 2291.45,1467.55 
  "/>
<path clip-path="url(#clip400)" d="M194.59 1532.02 L224.266 1532.02 L224.266 1535.95 L194.59 1535.95 L194.59 1532.02 Z" fill="#000000" fill-rule="evenodd" fill-opacity="1" /><path clip-path="url(#clip400)" d="M235.168 1544.91 L242.807 1544.91 L242.807 1518.55 L234.497 1520.21 L234.497 1515.95 L242.761 1514.29 L247.437 1514.29 L247.437 1544.91 L255.076 1544.91 L255.076 1548.85 L235.168 1548.85 L235.168 1544.91 Z" fill="#000000" fill-rule="evenodd" fill-opacity="1" /><path clip-path="url(#clip400)" d="M264.52 1542.97 L269.404 1542.97 L269.404 1548.85 L264.52 1548.85 L264.52 1542.97 Z" fill="#000000" fill-rule="evenodd" fill-opacity="1" /><path clip-path="url(#clip400)" d="M289.589 1517.37 Q285.978 1517.37 284.15 1520.93 Q282.344 1524.47 282.344 1531.6 Q282.344 1538.71 284.15 1542.27 Q285.978 1545.82 289.589 1545.82 Q293.224 1545.82 295.029 1542.27 Q296.858 1538.71 296.858 1531.6 Q296.858 1524.47 295.029 1520.93 Q293.224 1517.37 289.589 1517.37 M289.589 1513.66 Q295.4 1513.66 298.455 1518.27 Q301.534 1522.85 301.534 1531.6 Q301.534 1540.33 298.455 1544.94 Q295.4 1549.52 289.589 1549.52 Q283.779 1549.52 280.701 1544.94 Q277.645 1540.33 277.645 1531.6 Q277.645 1522.85 280.701 1518.27 Q283.779 1513.66 289.589 1513.66 Z" fill="#000000" fill-rule="evenodd" fill-opacity="1" /><path clip-path="url(#clip400)" d="M705.936 1532.02 L735.611 1532.02 L735.611 1535.95 L705.936 1535.95 L705.936 1532.02 Z" fill="#000000" fill-rule="evenodd" fill-opacity="1" /><path clip-path="url(#clip400)" d="M755.704 1517.37 Q752.093 1517.37 750.264 1520.93 Q748.459 1524.47 748.459 1531.6 Q748.459 1538.71 750.264 1542.27 Q752.093 1545.82 755.704 1545.82 Q759.338 1545.82 761.144 1542.27 Q762.972 1538.71 762.972 1531.6 Q762.972 1524.47 761.144 1520.93 Q759.338 1517.37 755.704 1517.37 M755.704 1513.66 Q761.514 1513.66 764.57 1518.27 Q767.648 1522.85 767.648 1531.6 Q767.648 1540.33 764.57 1544.94 Q761.514 1549.52 755.704 1549.52 Q749.894 1549.52 746.815 1544.94 Q743.76 1540.33 743.76 1531.6 Q743.76 1522.85 746.815 1518.27 Q749.894 1513.66 755.704 1513.66 Z" fill="#000000" fill-rule="evenodd" fill-opacity="1" /><path clip-path="url(#clip400)" d="M775.866 1542.97 L780.75 1542.97 L780.75 1548.85 L775.866 1548.85 L775.866 1542.97 Z" fill="#000000" fill-rule="evenodd" fill-opacity="1" /><path clip-path="url(#clip400)" d="M790.982 1514.29 L809.338 1514.29 L809.338 1518.22 L795.264 1518.22 L795.264 1526.7 Q796.282 1526.35 797.301 1526.19 Q798.319 1526 799.338 1526 Q805.125 1526 808.505 1529.17 Q811.884 1532.34 811.884 1537.76 Q811.884 1543.34 808.412 1546.44 Q804.94 1549.52 798.62 1549.52 Q796.444 1549.52 794.176 1549.15 Q791.931 1548.78 789.523 1548.04 L789.523 1543.34 Q791.607 1544.47 793.829 1545.03 Q796.051 1545.58 798.528 1545.58 Q802.532 1545.58 804.87 1543.48 Q807.208 1541.37 807.208 1537.76 Q807.208 1534.15 804.87 1532.04 Q802.532 1529.94 798.528 1529.94 Q796.653 1529.94 794.778 1530.35 Q792.926 1530.77 790.982 1531.65 L790.982 1514.29 Z" fill="#000000" fill-rule="evenodd" fill-opacity="1" /><path clip-path="url(#clip400)" d="M1247.14 1517.37 Q1243.53 1517.37 1241.7 1520.93 Q1239.9 1524.47 1239.9 1531.6 Q1239.9 1538.71 1241.7 1542.27 Q1243.53 1545.82 1247.14 1545.82 Q1250.78 1545.82 1252.58 1542.27 Q1254.41 1538.71 1254.41 1531.6 Q1254.41 1524.47 1252.58 1520.93 Q1250.78 1517.37 1247.14 1517.37 M1247.14 1513.66 Q1252.95 1513.66 1256.01 1518.27 Q1259.09 1522.85 1259.09 1531.6 Q1259.09 1540.33 1256.01 1544.94 Q1252.95 1549.52 1247.14 1549.52 Q1241.33 1549.52 1238.25 1544.94 Q1235.2 1540.33 1235.2 1531.6 Q1235.2 1522.85 1238.25 1518.27 Q1241.33 1513.66 1247.14 1513.66 Z" fill="#000000" fill-rule="evenodd" fill-opacity="1" /><path clip-path="url(#clip400)" d="M1267.3 1542.97 L1272.19 1542.97 L1272.19 1548.85 L1267.3 1548.85 L1267.3 1542.97 Z" fill="#000000" fill-rule="evenodd" fill-opacity="1" /><path clip-path="url(#clip400)" d="M1292.37 1517.37 Q1288.76 1517.37 1286.93 1520.93 Q1285.13 1524.47 1285.13 1531.6 Q1285.13 1538.71 1286.93 1542.27 Q1288.76 1545.82 1292.37 1545.82 Q1296.01 1545.82 1297.81 1542.27 Q1299.64 1538.71 1299.64 1531.6 Q1299.64 1524.47 1297.81 1520.93 Q1296.01 1517.37 1292.37 1517.37 M1292.37 1513.66 Q1298.18 1513.66 1301.24 1518.27 Q1304.32 1522.85 1304.32 1531.6 Q1304.32 1540.33 1301.24 1544.94 Q1298.18 1549.52 1292.37 1549.52 Q1286.56 1549.52 1283.48 1544.94 Q1280.43 1540.33 1280.43 1531.6 Q1280.43 1522.85 1283.48 1518.27 Q1286.56 1513.66 1292.37 1513.66 Z" fill="#000000" fill-rule="evenodd" fill-opacity="1" /><path clip-path="url(#clip400)" d="M1758.49 1517.37 Q1754.88 1517.37 1753.05 1520.93 Q1751.24 1524.47 1751.24 1531.6 Q1751.24 1538.71 1753.05 1542.27 Q1754.88 1545.82 1758.49 1545.82 Q1762.12 1545.82 1763.93 1542.27 Q1765.76 1538.71 1765.76 1531.6 Q1765.76 1524.47 1763.93 1520.93 Q1762.12 1517.37 1758.49 1517.37 M1758.49 1513.66 Q1764.3 1513.66 1767.35 1518.27 Q1770.43 1522.85 1770.43 1531.6 Q1770.43 1540.33 1767.35 1544.94 Q1764.3 1549.52 1758.49 1549.52 Q1752.68 1549.52 1749.6 1544.94 Q1746.54 1540.33 1746.54 1531.6 Q1746.54 1522.85 1749.6 1518.27 Q1752.68 1513.66 1758.49 1513.66 Z" fill="#000000" fill-rule="evenodd" fill-opacity="1" /><path clip-path="url(#clip400)" d="M1778.65 1542.97 L1783.53 1542.97 L1783.53 1548.85 L1778.65 1548.85 L1778.65 1542.97 Z" fill="#000000" fill-rule="evenodd" fill-opacity="1" /><path clip-path="url(#clip400)" d="M1793.77 1514.29 L1812.12 1514.29 L1812.12 1518.22 L1798.05 1518.22 L1798.05 1526.7 Q1799.07 1526.35 1800.09 1526.19 Q1801.1 1526 1802.12 1526 Q1807.91 1526 1811.29 1529.17 Q1814.67 1532.34 1814.67 1537.76 Q1814.67 1543.34 1811.2 1546.44 Q1807.72 1549.52 1801.4 1549.52 Q1799.23 1549.52 1796.96 1549.15 Q1794.71 1548.78 1792.31 1548.04 L1792.31 1543.34 Q1794.39 1544.47 1796.61 1545.03 Q1798.84 1545.58 1801.31 1545.58 Q1805.32 1545.58 1807.65 1543.48 Q1809.99 1541.37 1809.99 1537.76 Q1809.99 1534.15 1807.65 1532.04 Q1805.32 1529.94 1801.31 1529.94 Q1799.44 1529.94 1797.56 1530.35 Q1795.71 1530.77 1793.77 1531.65 L1793.77 1514.29 Z" fill="#000000" fill-rule="evenodd" fill-opacity="1" /><path clip-path="url(#clip400)" d="M2258.61 1544.91 L2266.25 1544.91 L2266.25 1518.55 L2257.94 1520.21 L2257.94 1515.95 L2266.2 1514.29 L2270.88 1514.29 L2270.88 1544.91 L2278.51 1544.91 L2278.51 1548.85 L2258.61 1548.85 L2258.61 1544.91 Z" fill="#000000" fill-rule="evenodd" fill-opacity="1" /><path clip-path="url(#clip400)" d="M2287.96 1542.97 L2292.84 1542.97 L2292.84 1548.85 L2287.96 1548.85 L2287.96 1542.97 Z" fill="#000000" fill-rule="evenodd" fill-opacity="1" /><path clip-path="url(#clip400)" d="M2313.03 1517.37 Q2309.42 1517.37 2307.59 1520.93 Q2305.78 1524.47 2305.78 1531.6 Q2305.78 1538.71 2307.59 1542.27 Q2309.42 1545.82 2313.03 1545.82 Q2316.66 1545.82 2318.47 1542.27 Q2320.3 1538.71 2320.3 1531.6 Q2320.3 1524.47 2318.47 1520.93 Q2316.66 1517.37 2313.03 1517.37 M2313.03 1513.66 Q2318.84 1513.66 2321.89 1518.27 Q2324.97 1522.85 2324.97 1531.6 Q2324.97 1540.33 2321.89 1544.94 Q2318.84 1549.52 2313.03 1549.52 Q2307.22 1549.52 2304.14 1544.94 Q2301.08 1540.33 2301.08 1531.6 Q2301.08 1522.85 2304.14 1518.27 Q2307.22 1513.66 2313.03 1513.66 Z" fill="#000000" fill-rule="evenodd" fill-opacity="1" /><polyline clip-path="url(#clip402)" style="stroke:#000000; stroke-linecap:butt; stroke-linejoin:round; stroke-width:2; stroke-opacity:0.1; fill:none" points="
  186.76,1447.87 2352.76,1447.87 
  "/>
<polyline clip-path="url(#clip402)" style="stroke:#000000; stroke-linecap:butt; stroke-linejoin:round; stroke-width:2; stroke-opacity:0.1; fill:none" points="
  186.76,1161.27 2352.76,1161.27 
  "/>
<polyline clip-path="url(#clip402)" style="stroke:#000000; stroke-linecap:butt; stroke-linejoin:round; stroke-width:2; stroke-opacity:0.1; fill:none" points="
  186.76,874.674 2352.76,874.674 
  "/>
<polyline clip-path="url(#clip402)" style="stroke:#000000; stroke-linecap:butt; stroke-linejoin:round; stroke-width:2; stroke-opacity:0.1; fill:none" points="
  186.76,588.075 2352.76,588.075 
  "/>
<polyline clip-path="url(#clip402)" style="stroke:#000000; stroke-linecap:butt; stroke-linejoin:round; stroke-width:2; stroke-opacity:0.1; fill:none" points="
  186.76,301.475 2352.76,301.475 
  "/>
<polyline clip-path="url(#clip400)" style="stroke:#000000; stroke-linecap:butt; stroke-linejoin:round; stroke-width:4; stroke-opacity:1; fill:none" points="
  186.76,1486.45 186.76,123.472 
  "/>
<polyline clip-path="url(#clip400)" style="stroke:#000000; stroke-linecap:butt; stroke-linejoin:round; stroke-width:4; stroke-opacity:1; fill:none" points="
  186.76,1447.87 205.658,1447.87 
  "/>
<polyline clip-path="url(#clip400)" style="stroke:#000000; stroke-linecap:butt; stroke-linejoin:round; stroke-width:4; stroke-opacity:1; fill:none" points="
  186.76,1161.27 205.658,1161.27 
  "/>
<polyline clip-path="url(#clip400)" style="stroke:#000000; stroke-linecap:butt; stroke-linejoin:round; stroke-width:4; stroke-opacity:1; fill:none" points="
  186.76,874.674 205.658,874.674 
  "/>
<polyline clip-path="url(#clip400)" style="stroke:#000000; stroke-linecap:butt; stroke-linejoin:round; stroke-width:4; stroke-opacity:1; fill:none" points="
  186.76,588.075 205.658,588.075 
  "/>
<polyline clip-path="url(#clip400)" style="stroke:#000000; stroke-linecap:butt; stroke-linejoin:round; stroke-width:4; stroke-opacity:1; fill:none" points="
  186.76,301.475 205.658,301.475 
  "/>
<path clip-path="url(#clip400)" d="M63.4226 1433.67 Q59.8115 1433.67 57.9828 1437.24 Q56.1773 1440.78 56.1773 1447.91 Q56.1773 1455.01 57.9828 1458.58 Q59.8115 1462.12 63.4226 1462.12 Q67.0569 1462.12 68.8624 1458.58 Q70.6911 1455.01 70.6911 1447.91 Q70.6911 1440.78 68.8624 1437.24 Q67.0569 1433.67 63.4226 1433.67 M63.4226 1429.97 Q69.2328 1429.97 72.2883 1434.57 Q75.367 1439.16 75.367 1447.91 Q75.367 1456.63 72.2883 1461.24 Q69.2328 1465.82 63.4226 1465.82 Q57.6125 1465.82 54.5338 1461.24 Q51.4782 1456.63 51.4782 1447.91 Q51.4782 1439.16 54.5338 1434.57 Q57.6125 1429.97 63.4226 1429.97 Z" fill="#000000" fill-rule="evenodd" fill-opacity="1" /><path clip-path="url(#clip400)" d="M83.5845 1459.27 L88.4688 1459.27 L88.4688 1465.15 L83.5845 1465.15 L83.5845 1459.27 Z" fill="#000000" fill-rule="evenodd" fill-opacity="1" /><path clip-path="url(#clip400)" d="M108.654 1433.67 Q105.043 1433.67 103.214 1437.24 Q101.409 1440.78 101.409 1447.91 Q101.409 1455.01 103.214 1458.58 Q105.043 1462.12 108.654 1462.12 Q112.288 1462.12 114.094 1458.58 Q115.922 1455.01 115.922 1447.91 Q115.922 1440.78 114.094 1437.24 Q112.288 1433.67 108.654 1433.67 M108.654 1429.97 Q114.464 1429.97 117.52 1434.57 Q120.598 1439.16 120.598 1447.91 Q120.598 1456.63 117.52 1461.24 Q114.464 1465.82 108.654 1465.82 Q102.844 1465.82 99.765 1461.24 Q96.7095 1456.63 96.7095 1447.91 Q96.7095 1439.16 99.765 1434.57 Q102.844 1429.97 108.654 1429.97 Z" fill="#000000" fill-rule="evenodd" fill-opacity="1" /><path clip-path="url(#clip400)" d="M138.816 1433.67 Q135.205 1433.67 133.376 1437.24 Q131.57 1440.78 131.57 1447.91 Q131.57 1455.01 133.376 1458.58 Q135.205 1462.12 138.816 1462.12 Q142.45 1462.12 144.256 1458.58 Q146.084 1455.01 146.084 1447.91 Q146.084 1440.78 144.256 1437.24 Q142.45 1433.67 138.816 1433.67 M138.816 1429.97 Q144.626 1429.97 147.681 1434.57 Q150.76 1439.16 150.76 1447.91 Q150.76 1456.63 147.681 1461.24 Q144.626 1465.82 138.816 1465.82 Q133.006 1465.82 129.927 1461.24 Q126.871 1456.63 126.871 1447.91 Q126.871 1439.16 129.927 1434.57 Q133.006 1429.97 138.816 1429.97 Z" fill="#000000" fill-rule="evenodd" fill-opacity="1" /><path clip-path="url(#clip400)" d="M65.0198 1147.07 Q61.4087 1147.07 59.58 1150.64 Q57.7745 1154.18 57.7745 1161.31 Q57.7745 1168.41 59.58 1171.98 Q61.4087 1175.52 65.0198 1175.52 Q68.6541 1175.52 70.4596 1171.98 Q72.2883 1168.41 72.2883 1161.31 Q72.2883 1154.18 70.4596 1150.64 Q68.6541 1147.07 65.0198 1147.07 M65.0198 1143.37 Q70.83 1143.37 73.8855 1147.98 Q76.9642 1152.56 76.9642 1161.31 Q76.9642 1170.04 73.8855 1174.64 Q70.83 1179.22 65.0198 1179.22 Q59.2097 1179.22 56.131 1174.64 Q53.0754 1170.04 53.0754 1161.31 Q53.0754 1152.56 56.131 1147.98 Q59.2097 1143.37 65.0198 1143.37 Z" fill="#000000" fill-rule="evenodd" fill-opacity="1" /><path clip-path="url(#clip400)" d="M85.1818 1172.67 L90.066 1172.67 L90.066 1178.55 L85.1818 1178.55 L85.1818 1172.67 Z" fill="#000000" fill-rule="evenodd" fill-opacity="1" /><path clip-path="url(#clip400)" d="M110.251 1147.07 Q106.64 1147.07 104.811 1150.64 Q103.006 1154.18 103.006 1161.31 Q103.006 1168.41 104.811 1171.98 Q106.64 1175.52 110.251 1175.52 Q113.885 1175.52 115.691 1171.98 Q117.52 1168.41 117.52 1161.31 Q117.52 1154.18 115.691 1150.64 Q113.885 1147.07 110.251 1147.07 M110.251 1143.37 Q116.061 1143.37 119.117 1147.98 Q122.195 1152.56 122.195 1161.31 Q122.195 1170.04 119.117 1174.64 Q116.061 1179.22 110.251 1179.22 Q104.441 1179.22 101.362 1174.64 Q98.3067 1170.04 98.3067 1161.31 Q98.3067 1152.56 101.362 1147.98 Q104.441 1143.37 110.251 1143.37 Z" fill="#000000" fill-rule="evenodd" fill-opacity="1" /><path clip-path="url(#clip400)" d="M134.441 1174.62 L150.76 1174.62 L150.76 1178.55 L128.816 1178.55 L128.816 1174.62 Q131.478 1171.86 136.061 1167.23 Q140.668 1162.58 141.848 1161.24 Q144.093 1158.72 144.973 1156.98 Q145.876 1155.22 145.876 1153.53 Q145.876 1150.78 143.931 1149.04 Q142.01 1147.3 138.908 1147.3 Q136.709 1147.3 134.256 1148.07 Q131.825 1148.83 129.047 1150.38 L129.047 1145.66 Q131.871 1144.53 134.325 1143.95 Q136.779 1143.37 138.816 1143.37 Q144.186 1143.37 147.38 1146.05 Q150.575 1148.74 150.575 1153.23 Q150.575 1155.36 149.765 1157.28 Q148.978 1159.18 146.871 1161.77 Q146.293 1162.44 143.191 1165.66 Q140.089 1168.85 134.441 1174.62 Z" fill="#000000" fill-rule="evenodd" fill-opacity="1" /><path clip-path="url(#clip400)" d="M62.9365 860.473 Q59.3254 860.473 57.4967 864.038 Q55.6912 867.579 55.6912 874.709 Q55.6912 881.815 57.4967 885.38 Q59.3254 888.922 62.9365 888.922 Q66.5707 888.922 68.3763 885.38 Q70.205 881.815 70.205 874.709 Q70.205 867.579 68.3763 864.038 Q66.5707 860.473 62.9365 860.473 M62.9365 856.769 Q68.7467 856.769 71.8022 861.376 Q74.8809 865.959 74.8809 874.709 Q74.8809 883.436 71.8022 888.042 Q68.7467 892.626 62.9365 892.626 Q57.1264 892.626 54.0477 888.042 Q50.9921 883.436 50.9921 874.709 Q50.9921 865.959 54.0477 861.376 Q57.1264 856.769 62.9365 856.769 Z" fill="#000000" fill-rule="evenodd" fill-opacity="1" /><path clip-path="url(#clip400)" d="M83.0984 886.075 L87.9827 886.075 L87.9827 891.954 L83.0984 891.954 L83.0984 886.075 Z" fill="#000000" fill-rule="evenodd" fill-opacity="1" /><path clip-path="url(#clip400)" d="M108.168 860.473 Q104.557 860.473 102.728 864.038 Q100.922 867.579 100.922 874.709 Q100.922 881.815 102.728 885.38 Q104.557 888.922 108.168 888.922 Q111.802 888.922 113.608 885.38 Q115.436 881.815 115.436 874.709 Q115.436 867.579 113.608 864.038 Q111.802 860.473 108.168 860.473 M108.168 856.769 Q113.978 856.769 117.033 861.376 Q120.112 865.959 120.112 874.709 Q120.112 883.436 117.033 888.042 Q113.978 892.626 108.168 892.626 Q102.358 892.626 99.2789 888.042 Q96.2234 883.436 96.2234 874.709 Q96.2234 865.959 99.2789 861.376 Q102.358 856.769 108.168 856.769 Z" fill="#000000" fill-rule="evenodd" fill-opacity="1" /><path clip-path="url(#clip400)" d="M141.177 861.468 L129.371 879.917 L141.177 879.917 L141.177 861.468 M139.95 857.394 L145.83 857.394 L145.83 879.917 L150.76 879.917 L150.76 883.806 L145.83 883.806 L145.83 891.954 L141.177 891.954 L141.177 883.806 L125.575 883.806 L125.575 879.292 L139.95 857.394 Z" fill="#000000" fill-rule="evenodd" fill-opacity="1" /><path clip-path="url(#clip400)" d="M63.2606 573.874 Q59.6495 573.874 57.8208 577.438 Q56.0152 580.98 56.0152 588.11 Q56.0152 595.216 57.8208 598.781 Q59.6495 602.322 63.2606 602.322 Q66.8948 602.322 68.7004 598.781 Q70.5291 595.216 70.5291 588.11 Q70.5291 580.98 68.7004 577.438 Q66.8948 573.874 63.2606 573.874 M63.2606 570.17 Q69.0707 570.17 72.1263 574.776 Q75.205 579.36 75.205 588.11 Q75.205 596.836 72.1263 601.443 Q69.0707 606.026 63.2606 606.026 Q57.4504 606.026 54.3717 601.443 Q51.3162 596.836 51.3162 588.11 Q51.3162 579.36 54.3717 574.776 Q57.4504 570.17 63.2606 570.17 Z" fill="#000000" fill-rule="evenodd" fill-opacity="1" /><path clip-path="url(#clip400)" d="M83.4225 599.475 L88.3067 599.475 L88.3067 605.355 L83.4225 605.355 L83.4225 599.475 Z" fill="#000000" fill-rule="evenodd" fill-opacity="1" /><path clip-path="url(#clip400)" d="M108.492 573.874 Q104.881 573.874 103.052 577.438 Q101.246 580.98 101.246 588.11 Q101.246 595.216 103.052 598.781 Q104.881 602.322 108.492 602.322 Q112.126 602.322 113.932 598.781 Q115.76 595.216 115.76 588.11 Q115.76 580.98 113.932 577.438 Q112.126 573.874 108.492 573.874 M108.492 570.17 Q114.302 570.17 117.358 574.776 Q120.436 579.36 120.436 588.11 Q120.436 596.836 117.358 601.443 Q114.302 606.026 108.492 606.026 Q102.682 606.026 99.603 601.443 Q96.5474 596.836 96.5474 588.11 Q96.5474 579.36 99.603 574.776 Q102.682 570.17 108.492 570.17 Z" fill="#000000" fill-rule="evenodd" fill-opacity="1" /><path clip-path="url(#clip400)" d="M139.232 586.211 Q136.084 586.211 134.232 588.364 Q132.404 590.517 132.404 594.267 Q132.404 597.994 134.232 600.17 Q136.084 602.322 139.232 602.322 Q142.381 602.322 144.209 600.17 Q146.061 597.994 146.061 594.267 Q146.061 590.517 144.209 588.364 Q142.381 586.211 139.232 586.211 M148.515 571.559 L148.515 575.818 Q146.756 574.985 144.95 574.545 Q143.168 574.105 141.408 574.105 Q136.779 574.105 134.325 577.23 Q131.894 580.355 131.547 586.674 Q132.913 584.661 134.973 583.596 Q137.033 582.508 139.51 582.508 Q144.718 582.508 147.728 585.679 Q150.76 588.827 150.76 594.267 Q150.76 599.591 147.612 602.809 Q144.464 606.026 139.232 606.026 Q133.237 606.026 130.066 601.443 Q126.894 596.836 126.894 588.11 Q126.894 579.915 130.783 575.054 Q134.672 570.17 141.223 570.17 Q142.982 570.17 144.765 570.517 Q146.57 570.864 148.515 571.559 Z" fill="#000000" fill-rule="evenodd" fill-opacity="1" /><path clip-path="url(#clip400)" d="M63.5152 287.274 Q59.9041 287.274 58.0754 290.839 Q56.2699 294.381 56.2699 301.51 Q56.2699 308.617 58.0754 312.181 Q59.9041 315.723 63.5152 315.723 Q67.1494 315.723 68.955 312.181 Q70.7837 308.617 70.7837 301.51 Q70.7837 294.381 68.955 290.839 Q67.1494 287.274 63.5152 287.274 M63.5152 283.57 Q69.3254 283.57 72.3809 288.177 Q75.4596 292.76 75.4596 301.51 Q75.4596 310.237 72.3809 314.843 Q69.3254 319.427 63.5152 319.427 Q57.7051 319.427 54.6264 314.843 Q51.5708 310.237 51.5708 301.51 Q51.5708 292.76 54.6264 288.177 Q57.7051 283.57 63.5152 283.57 Z" fill="#000000" fill-rule="evenodd" fill-opacity="1" /><path clip-path="url(#clip400)" d="M83.6771 312.876 L88.5614 312.876 L88.5614 318.755 L83.6771 318.755 L83.6771 312.876 Z" fill="#000000" fill-rule="evenodd" fill-opacity="1" /><path clip-path="url(#clip400)" d="M108.746 287.274 Q105.135 287.274 103.307 290.839 Q101.501 294.381 101.501 301.51 Q101.501 308.617 103.307 312.181 Q105.135 315.723 108.746 315.723 Q112.381 315.723 114.186 312.181 Q116.015 308.617 116.015 301.51 Q116.015 294.381 114.186 290.839 Q112.381 287.274 108.746 287.274 M108.746 283.57 Q114.557 283.57 117.612 288.177 Q120.691 292.76 120.691 301.51 Q120.691 310.237 117.612 314.843 Q114.557 319.427 108.746 319.427 Q102.936 319.427 99.8576 314.843 Q96.8021 310.237 96.8021 301.51 Q96.8021 292.76 99.8576 288.177 Q102.936 283.57 108.746 283.57 Z" fill="#000000" fill-rule="evenodd" fill-opacity="1" /><path clip-path="url(#clip400)" d="M138.908 302.343 Q135.575 302.343 133.654 304.126 Q131.756 305.908 131.756 309.033 Q131.756 312.158 133.654 313.941 Q135.575 315.723 138.908 315.723 Q142.242 315.723 144.163 313.941 Q146.084 312.135 146.084 309.033 Q146.084 305.908 144.163 304.126 Q142.265 302.343 138.908 302.343 M134.232 300.353 Q131.223 299.612 129.533 297.552 Q127.867 295.492 127.867 292.529 Q127.867 288.385 130.807 285.978 Q133.769 283.57 138.908 283.57 Q144.07 283.57 147.01 285.978 Q149.95 288.385 149.95 292.529 Q149.95 295.492 148.26 297.552 Q146.593 299.612 143.607 300.353 Q146.987 301.14 148.862 303.431 Q150.76 305.723 150.76 309.033 Q150.76 314.056 147.681 316.742 Q144.626 319.427 138.908 319.427 Q133.191 319.427 130.112 316.742 Q127.057 314.056 127.057 309.033 Q127.057 305.723 128.955 303.431 Q130.853 301.14 134.232 300.353 M132.519 292.969 Q132.519 295.654 134.186 297.158 Q135.876 298.663 138.908 298.663 Q141.918 298.663 143.607 297.158 Q145.32 295.654 145.32 292.969 Q145.32 290.283 143.607 288.779 Q141.918 287.274 138.908 287.274 Q135.876 287.274 134.186 288.779 Q132.519 290.283 132.519 292.969 Z" fill="#000000" fill-rule="evenodd" fill-opacity="1" /><path clip-path="url(#clip400)" d="M845.013 25.2409 Q845.013 29.8317 841.611 34.0536 Q838.249 38.2755 832.757 40.8578 Q827.305 43.3991 821.444 43.3991 L807.18 43.3991 L801.974 64.3856 Q801.933 64.5086 801.81 65.0415 Q801.687 65.5333 801.687 65.8203 Q801.687 66.845 802.958 67.0909 Q804.269 67.3369 807.18 67.3369 Q809.065 67.3369 809.352 67.6648 Q809.516 67.8697 809.516 68.2386 Q809.516 68.8125 809.352 69.2224 Q809.188 69.5913 808.86 69.7142 Q808.573 69.8372 808.368 69.8782 Q808.163 69.9192 807.835 69.9192 Q806.975 69.9192 805.13 69.8372 Q803.327 69.7552 802.384 69.7552 L797.014 69.6733 L786.357 69.9192 Q785.086 69.9192 785.086 68.8945 Q785.086 68.1157 785.414 67.7877 Q785.742 67.4188 786.111 67.3779 Q786.48 67.3369 787.423 67.3369 Q789.472 67.3369 790.702 67.2139 Q791.932 67.0909 792.71 66.927 Q793.53 66.722 793.94 66.1482 Q794.391 65.5743 794.596 65.0825 Q794.801 64.5496 795.088 63.3609 L806.319 18.2727 Q806.647 16.9201 806.647 16.7151 Q806.647 16.0183 806.237 15.7724 Q805.868 15.4854 804.802 15.3625 Q802.753 15.1985 801.195 15.1985 Q800.17 15.1985 799.76 15.1575 Q799.392 15.1165 799.064 14.9116 Q798.777 14.6656 798.777 14.1738 Q798.777 13.395 799.105 13.0671 Q799.474 12.6982 799.883 12.6572 Q800.293 12.5752 801.277 12.5752 L828.494 12.5752 Q836.323 12.5752 840.668 16.3052 Q845.013 20.0352 845.013 25.2409 M837.225 23.2324 Q837.225 15.1985 825.789 15.1985 L817.755 15.1985 Q815.09 15.1985 814.435 15.6904 Q813.779 16.1413 813.205 18.3957 L807.507 41.2267 L819.353 41.2267 Q827.305 41.2267 832.265 36.7589 Q834.519 34.7094 835.872 30.4465 Q837.225 26.1836 837.225 23.2324 Z" fill="#000000" fill-rule="evenodd" fill-opacity="1" /><path clip-path="url(#clip400)" d="M870.36 60.2047 Q870.688 60.5736 870.688 60.9425 Q870.688 61.3114 869.868 62.3772 Q869.089 63.4429 867.409 64.8775 Q865.728 66.3121 863.556 67.6648 Q861.383 69.0174 858.186 69.9192 Q854.989 70.8619 851.628 70.8619 Q845.603 70.8619 841.996 66.5581 Q838.429 62.2542 838.429 55.6549 Q838.429 51.433 839.823 47.703 Q841.217 43.932 843.471 41.2677 Q845.767 38.6034 848.636 36.6769 Q851.546 34.7094 854.579 33.7666 Q857.612 32.8239 860.441 32.8239 Q864.581 32.8239 866.999 34.9143 Q869.417 37.0048 869.417 39.956 Q869.417 40.6528 869.212 41.5136 Q869.048 42.3744 868.475 43.727 Q867.942 45.0797 866.548 46.4323 Q865.154 47.744 863.105 48.6048 Q858.555 50.5313 850.275 50.5313 L845.808 50.5313 Q844.496 55.8189 844.496 59.262 Q844.496 60.6146 844.742 62.0083 Q844.988 63.3609 845.644 65.0825 Q846.34 66.804 847.898 67.9107 Q849.497 68.9764 851.792 68.9764 Q852.53 68.9764 853.309 68.9354 Q854.128 68.8945 856.178 68.4436 Q858.268 67.9927 860.113 67.2139 Q861.957 66.4351 864.294 64.7545 Q866.671 63.033 868.557 60.6966 Q869.212 59.8358 869.663 59.8358 Q870.032 59.8358 870.36 60.2047 M866.63 39.956 Q866.63 37.7016 864.95 36.185 Q863.31 34.6684 860.441 34.6684 Q859.539 34.6684 858.432 34.8734 Q857.326 35.0783 855.481 35.9391 Q853.677 36.7999 852.079 38.2345 Q850.48 39.6281 848.882 42.3744 Q847.283 45.0797 846.34 48.6867 L849.784 48.6867 Q850.972 48.6867 851.833 48.6867 Q852.694 48.6458 854.579 48.4818 Q856.506 48.3178 857.899 48.0309 Q859.293 47.703 861.056 47.0472 Q862.818 46.3913 863.925 45.5306 Q865.073 44.6288 865.851 43.1942 Q866.63 41.7596 866.63 39.956 Z" fill="#000000" fill-rule="evenodd" fill-opacity="1" /><path clip-path="url(#clip400)" d="M908.163 86.6785 Q908.163 86.9081 907.905 87.7975 Q907.646 88.687 907.015 90.0643 Q906.413 91.4415 905.581 92.704 Q904.749 93.9377 903.371 94.8559 Q902.023 95.7454 900.473 95.7454 Q898.407 95.7454 897.03 94.3681 Q895.653 92.9909 895.653 90.925 Q895.653 90.6381 895.682 90.3512 Q895.71 90.0643 895.739 89.8921 Q895.768 89.6912 895.854 89.3756 Q895.969 89.0313 895.997 88.8879 Q896.055 88.7444 896.198 88.314 Q896.37 87.8549 896.428 87.6828 Q900.072 78.3864 900.072 74.5129 Q900.072 70.4099 896.887 70.4099 Q894.046 70.4099 891.234 72.4758 Q889.943 73.5087 888.709 75.345 Q887.476 77.1813 887.246 77.8699 Q886.988 79.362 886.615 80.5097 Q886.443 81.313 885.611 84.4405 L884.319 89.7486 L883.2 94.196 Q882.971 94.8272 882.34 95.2863 Q881.708 95.7454 881.02 95.7454 Q880.446 95.7454 879.872 95.3437 Q879.327 94.9707 879.327 94.0812 Q879.327 93.6221 879.557 92.79 L888.078 58.9329 L888.25 57.7852 Q888.25 57.4409 888.107 57.2687 Q887.992 57.0679 887.303 56.9244 Q886.644 56.781 885.324 56.781 Q884.779 56.781 884.52 56.7523 Q884.291 56.7236 884.09 56.5801 Q883.889 56.408 883.889 56.0636 Q883.889 55.5759 884.09 55.3176 Q884.319 55.0307 884.492 54.9733 Q884.664 54.9159 885.008 54.8873 Q885.496 54.8586 887.131 54.7151 Q888.767 54.5429 890.173 54.4282 Q891.579 54.3134 892.181 54.3134 Q892.526 54.3134 892.698 54.4856 Q892.899 54.629 892.927 54.8012 L892.956 54.9446 L888.365 73.6235 Q892.009 69.1187 897.059 69.1187 Q900.33 69.1187 902.08 70.8116 Q903.83 72.4758 903.83 75.4024 Q903.83 78.7594 900.244 88.314 Q899.182 90.9824 899.182 92.5031 Q899.182 93.5074 899.498 93.9664 Q899.842 94.4255 900.588 94.4255 Q901.736 94.4255 902.74 93.7656 Q903.773 93.077 904.49 91.958 Q905.208 90.8103 905.695 89.6626 Q906.212 88.4862 906.585 87.1663 Q906.814 86.449 906.929 86.2768 Q907.073 86.1047 907.474 86.1047 Q908.163 86.1047 908.163 86.6785 Z" fill="#000000" fill-rule="evenodd" fill-opacity="1" /><path clip-path="url(#clip400)" d="M940.135 57.1715 Q940.217 56.1468 941.816 56.1468 L993.257 56.1468 Q995.676 56.1468 995.717 57.0895 Q995.717 58.1143 993.421 58.0733 L942.39 58.0733 Q940.135 58.1143 940.135 57.1715 M940.135 40.7758 Q940.135 39.7511 941.898 39.7921 L993.175 39.7921 Q995.676 39.7921 995.717 40.7758 Q995.717 41.7186 993.585 41.7186 L941.816 41.7186 Q940.135 41.7186 940.135 40.7758 Z" fill="#000000" fill-rule="evenodd" fill-opacity="1" /><path clip-path="url(#clip400)" d="M1028.1 22.0027 L1028.1 19.3794 Q1038.18 19.3794 1043.38 14.0098 Q1044.82 14.0098 1045.06 14.3377 Q1045.31 14.6656 1045.31 16.1822 L1045.31 63.2789 Q1045.31 65.7793 1046.54 66.5581 Q1047.77 67.3369 1053.14 67.3369 L1055.8 67.3369 L1055.8 69.9192 Q1052.85 69.6733 1042.2 69.6733 Q1031.54 69.6733 1028.63 69.9192 L1028.63 67.3369 L1031.29 67.3369 Q1036.58 67.3369 1037.85 66.5991 Q1039.12 65.8203 1039.12 63.2789 L1039.12 19.7893 Q1034.74 22.0027 1028.1 22.0027 Z" fill="#000000" fill-rule="evenodd" fill-opacity="1" /><path clip-path="url(#clip400)" d="M1062.44 68.5665 Q1061.17 67.2139 1061.17 65.4514 Q1061.17 63.6888 1062.44 62.4181 Q1063.71 61.1065 1065.63 61.1065 Q1067.48 61.1065 1068.71 62.3362 Q1069.98 63.5249 1069.98 65.4923 Q1069.98 67.4188 1068.63 68.6895 Q1067.31 69.9192 1065.63 69.9192 Q1063.71 69.9192 1062.44 68.5665 Z" fill="#000000" fill-rule="evenodd" fill-opacity="1" /><path clip-path="url(#clip400)" d="M1084.26 58.6061 Q1084.26 56.1058 1085.7 54.9171 Q1087.13 53.7284 1088.98 53.7284 Q1090.9 53.7284 1092.26 54.9991 Q1093.65 56.2288 1093.65 58.4012 Q1093.65 60.7376 1092.01 62.0492 Q1090.41 63.3609 1088.12 63.033 Q1090.13 66.3941 1093.82 67.9107 Q1097.55 69.4273 1100.99 69.4273 Q1104.6 69.4273 1107.51 66.3121 Q1110.46 63.1969 1110.46 55.5729 Q1110.46 49.0966 1107.92 45.3666 Q1105.42 41.6366 1100.46 41.6366 L1096.77 41.6366 Q1095.5 41.6366 1095.13 41.5136 Q1094.76 41.3906 1094.76 40.6938 Q1094.76 39.874 1096.03 39.7101 Q1097.3 39.7101 1099.31 39.4642 Q1104.19 39.3002 1106.77 35.0783 Q1109.1 31.1433 1109.1 25.5278 Q1109.1 20.4041 1106.64 18.2727 Q1104.23 16.1003 1101.07 16.1003 Q1098.12 16.1003 1094.88 17.3299 Q1091.64 18.5596 1089.88 21.3059 Q1095.09 21.3059 1095.09 25.5278 Q1095.09 27.3723 1093.9 28.602 Q1092.75 29.7907 1090.82 29.7907 Q1088.98 29.7907 1087.75 28.643 Q1086.52 27.4543 1086.52 25.4458 Q1086.52 20.6501 1090.78 17.3299 Q1095.09 14.0098 1101.4 14.0098 Q1107.63 14.0098 1112.22 17.289 Q1116.85 20.5681 1116.85 25.6098 Q1116.85 30.5695 1113.57 34.6274 Q1110.29 38.6854 1105.09 40.3659 Q1111.48 41.6366 1115.29 45.9814 Q1119.11 50.2853 1119.11 55.5729 Q1119.11 62.1312 1113.94 66.968 Q1108.78 71.7637 1101.23 71.7637 Q1094.27 71.7637 1089.27 67.9927 Q1084.26 64.2217 1084.26 58.6061 Z" fill="#000000" fill-rule="evenodd" fill-opacity="1" /><path clip-path="url(#clip400)" d="M1126.17 58.6061 Q1126.17 56.1058 1127.61 54.9171 Q1129.04 53.7284 1130.88 53.7284 Q1132.81 53.7284 1134.16 54.9991 Q1135.56 56.2288 1135.56 58.4012 Q1135.56 60.7376 1133.92 62.0492 Q1132.32 63.3609 1130.02 63.033 Q1132.03 66.3941 1135.72 67.9107 Q1139.45 69.4273 1142.89 69.4273 Q1146.5 69.4273 1149.41 66.3121 Q1152.36 63.1969 1152.36 55.5729 Q1152.36 49.0966 1149.82 45.3666 Q1147.32 41.6366 1142.36 41.6366 L1138.67 41.6366 Q1137.4 41.6366 1137.03 41.5136 Q1136.66 41.3906 1136.66 40.6938 Q1136.66 39.874 1137.93 39.7101 Q1139.21 39.7101 1141.21 39.4642 Q1146.09 39.3002 1148.67 35.0783 Q1151.01 31.1433 1151.01 25.5278 Q1151.01 20.4041 1148.55 18.2727 Q1146.13 16.1003 1142.98 16.1003 Q1140.03 16.1003 1136.79 17.3299 Q1133.55 18.5596 1131.79 21.3059 Q1136.99 21.3059 1136.99 25.5278 Q1136.99 27.3723 1135.8 28.602 Q1134.66 29.7907 1132.73 29.7907 Q1130.88 29.7907 1129.66 28.643 Q1128.43 27.4543 1128.43 25.4458 Q1128.43 20.6501 1132.69 17.3299 Q1136.99 14.0098 1143.3 14.0098 Q1149.53 14.0098 1154.13 17.289 Q1158.76 20.5681 1158.76 25.6098 Q1158.76 30.5695 1155.48 34.6274 Q1152.2 38.6854 1146.99 40.3659 Q1153.39 41.6366 1157.2 45.9814 Q1161.01 50.2853 1161.01 55.5729 Q1161.01 62.1312 1155.85 66.968 Q1150.68 71.7637 1143.14 71.7637 Q1136.17 71.7637 1131.17 67.9927 Q1126.17 64.2217 1126.17 58.6061 Z" fill="#000000" fill-rule="evenodd" fill-opacity="1" /><path clip-path="url(#clip400)" d="M1168.08 58.6061 Q1168.08 56.1058 1169.51 54.9171 Q1170.95 53.7284 1172.79 53.7284 Q1174.72 53.7284 1176.07 54.9991 Q1177.46 56.2288 1177.46 58.4012 Q1177.46 60.7376 1175.82 62.0492 Q1174.23 63.3609 1171.93 63.033 Q1173.94 66.3941 1177.63 67.9107 Q1181.36 69.4273 1184.8 69.4273 Q1188.41 69.4273 1191.32 66.3121 Q1194.27 63.1969 1194.27 55.5729 Q1194.27 49.0966 1191.73 45.3666 Q1189.23 41.6366 1184.27 41.6366 L1180.58 41.6366 Q1179.31 41.6366 1178.94 41.5136 Q1178.57 41.3906 1178.57 40.6938 Q1178.57 39.874 1179.84 39.7101 Q1181.11 39.7101 1183.12 39.4642 Q1188 39.3002 1190.58 35.0783 Q1192.92 31.1433 1192.92 25.5278 Q1192.92 20.4041 1190.46 18.2727 Q1188.04 16.1003 1184.88 16.1003 Q1181.93 16.1003 1178.69 17.3299 Q1175.46 18.5596 1173.69 21.3059 Q1178.9 21.3059 1178.9 25.5278 Q1178.9 27.3723 1177.71 28.602 Q1176.56 29.7907 1174.64 29.7907 Q1172.79 29.7907 1171.56 28.643 Q1170.33 27.4543 1170.33 25.4458 Q1170.33 20.6501 1174.59 17.3299 Q1178.9 14.0098 1185.21 14.0098 Q1191.44 14.0098 1196.03 17.289 Q1200.66 20.5681 1200.66 25.6098 Q1200.66 30.5695 1197.38 34.6274 Q1194.11 38.6854 1188.9 40.3659 Q1195.29 41.6366 1199.11 45.9814 Q1202.92 50.2853 1202.92 55.5729 Q1202.92 62.1312 1197.75 66.968 Q1192.59 71.7637 1185.05 71.7637 Q1178.08 71.7637 1173.08 67.9927 Q1168.08 64.2217 1168.08 58.6061 Z" fill="#000000" fill-rule="evenodd" fill-opacity="1" /><path clip-path="url(#clip400)" d="M1209.98 58.6061 Q1209.98 56.1058 1211.42 54.9171 Q1212.85 53.7284 1214.7 53.7284 Q1216.62 53.7284 1217.98 54.9991 Q1219.37 56.2288 1219.37 58.4012 Q1219.37 60.7376 1217.73 62.0492 Q1216.13 63.3609 1213.84 63.033 Q1215.85 66.3941 1219.53 67.9107 Q1223.26 69.4273 1226.71 69.4273 Q1230.31 69.4273 1233.22 66.3121 Q1236.18 63.1969 1236.18 55.5729 Q1236.18 49.0966 1233.63 45.3666 Q1231.13 41.6366 1226.17 41.6366 L1222.49 41.6366 Q1221.21 41.6366 1220.85 41.5136 Q1220.48 41.3906 1220.48 40.6938 Q1220.48 39.874 1221.75 39.7101 Q1223.02 39.7101 1225.03 39.4642 Q1229.9 39.3002 1232.49 35.0783 Q1234.82 31.1433 1234.82 25.5278 Q1234.82 20.4041 1232.36 18.2727 Q1229.95 16.1003 1226.79 16.1003 Q1223.84 16.1003 1220.6 17.3299 Q1217.36 18.5596 1215.6 21.3059 Q1220.8 21.3059 1220.8 25.5278 Q1220.8 27.3723 1219.62 28.602 Q1218.47 29.7907 1216.54 29.7907 Q1214.7 29.7907 1213.47 28.643 Q1212.24 27.4543 1212.24 25.4458 Q1212.24 20.6501 1216.5 17.3299 Q1220.8 14.0098 1227.12 14.0098 Q1233.35 14.0098 1237.94 17.289 Q1242.57 20.5681 1242.57 25.6098 Q1242.57 30.5695 1239.29 34.6274 Q1236.01 38.6854 1230.81 40.3659 Q1237.2 41.6366 1241.01 45.9814 Q1244.82 50.2853 1244.82 55.5729 Q1244.82 62.1312 1239.66 66.968 Q1234.5 71.7637 1226.95 71.7637 Q1219.99 71.7637 1214.98 67.9927 Q1209.98 64.2217 1209.98 58.6061 Z" fill="#000000" fill-rule="evenodd" fill-opacity="1" /><path clip-path="url(#clip400)" d="M1251.89 58.6061 Q1251.89 56.1058 1253.32 54.9171 Q1254.76 53.7284 1256.6 53.7284 Q1258.53 53.7284 1259.88 54.9991 Q1261.28 56.2288 1261.28 58.4012 Q1261.28 60.7376 1259.64 62.0492 Q1258.04 63.3609 1255.74 63.033 Q1257.75 66.3941 1261.44 67.9107 Q1265.17 69.4273 1268.61 69.4273 Q1272.22 69.4273 1275.13 66.3121 Q1278.08 63.1969 1278.08 55.5729 Q1278.08 49.0966 1275.54 45.3666 Q1273.04 41.6366 1268.08 41.6366 L1264.39 41.6366 Q1263.12 41.6366 1262.75 41.5136 Q1262.38 41.3906 1262.38 40.6938 Q1262.38 39.874 1263.65 39.7101 Q1264.92 39.7101 1266.93 39.4642 Q1271.81 39.3002 1274.39 35.0783 Q1276.73 31.1433 1276.73 25.5278 Q1276.73 20.4041 1274.27 18.2727 Q1271.85 16.1003 1268.7 16.1003 Q1265.74 16.1003 1262.51 17.3299 Q1259.27 18.5596 1257.51 21.3059 Q1262.71 21.3059 1262.71 25.5278 Q1262.71 27.3723 1261.52 28.602 Q1260.37 29.7907 1258.45 29.7907 Q1256.6 29.7907 1255.37 28.643 Q1254.14 27.4543 1254.14 25.4458 Q1254.14 20.6501 1258.41 17.3299 Q1262.71 14.0098 1269.02 14.0098 Q1275.25 14.0098 1279.84 17.289 Q1284.48 20.5681 1284.48 25.6098 Q1284.48 30.5695 1281.2 34.6274 Q1277.92 38.6854 1272.71 40.3659 Q1279.11 41.6366 1282.92 45.9814 Q1286.73 50.2853 1286.73 55.5729 Q1286.73 62.1312 1281.57 66.968 Q1276.4 71.7637 1268.86 71.7637 Q1261.89 71.7637 1256.89 67.9927 Q1251.89 64.2217 1251.89 58.6061 Z" fill="#000000" fill-rule="evenodd" fill-opacity="1" /><path clip-path="url(#clip400)" d="M1293.8 58.6061 Q1293.8 56.1058 1295.23 54.9171 Q1296.67 53.7284 1298.51 53.7284 Q1300.44 53.7284 1301.79 54.9991 Q1303.18 56.2288 1303.18 58.4012 Q1303.18 60.7376 1301.54 62.0492 Q1299.94 63.3609 1297.65 63.033 Q1299.66 66.3941 1303.35 67.9107 Q1307.08 69.4273 1310.52 69.4273 Q1314.13 69.4273 1317.04 66.3121 Q1319.99 63.1969 1319.99 55.5729 Q1319.99 49.0966 1317.45 45.3666 Q1314.95 41.6366 1309.99 41.6366 L1306.3 41.6366 Q1305.03 41.6366 1304.66 41.5136 Q1304.29 41.3906 1304.29 40.6938 Q1304.29 39.874 1305.56 39.7101 Q1306.83 39.7101 1308.84 39.4642 Q1313.72 39.3002 1316.3 35.0783 Q1318.64 31.1433 1318.64 25.5278 Q1318.64 20.4041 1316.18 18.2727 Q1313.76 16.1003 1310.6 16.1003 Q1307.65 16.1003 1304.41 17.3299 Q1301.17 18.5596 1299.41 21.3059 Q1304.62 21.3059 1304.62 25.5278 Q1304.62 27.3723 1303.43 28.602 Q1302.28 29.7907 1300.35 29.7907 Q1298.51 29.7907 1297.28 28.643 Q1296.05 27.4543 1296.05 25.4458 Q1296.05 20.6501 1300.31 17.3299 Q1304.62 14.0098 1310.93 14.0098 Q1317.16 14.0098 1321.75 17.289 Q1326.38 20.5681 1326.38 25.6098 Q1326.38 30.5695 1323.1 34.6274 Q1319.82 38.6854 1314.62 40.3659 Q1321.01 41.6366 1324.83 45.9814 Q1328.64 50.2853 1328.64 55.5729 Q1328.64 62.1312 1323.47 66.968 Q1318.31 71.7637 1310.77 71.7637 Q1303.8 71.7637 1298.8 67.9927 Q1293.8 64.2217 1293.8 58.6061 Z" fill="#000000" fill-rule="evenodd" fill-opacity="1" /><path clip-path="url(#clip400)" d="M1335.7 58.6061 Q1335.7 56.1058 1337.14 54.9171 Q1338.57 53.7284 1340.42 53.7284 Q1342.34 53.7284 1343.7 54.9991 Q1345.09 56.2288 1345.09 58.4012 Q1345.09 60.7376 1343.45 62.0492 Q1341.85 63.3609 1339.56 63.033 Q1341.56 66.3941 1345.25 67.9107 Q1348.98 69.4273 1352.43 69.4273 Q1356.03 69.4273 1358.94 66.3121 Q1361.89 63.1969 1361.89 55.5729 Q1361.89 49.0966 1359.35 45.3666 Q1356.85 41.6366 1351.89 41.6366 L1348.2 41.6366 Q1346.93 41.6366 1346.56 41.5136 Q1346.2 41.3906 1346.2 40.6938 Q1346.2 39.874 1347.47 39.7101 Q1348.74 39.7101 1350.75 39.4642 Q1355.62 39.3002 1358.21 35.0783 Q1360.54 31.1433 1360.54 25.5278 Q1360.54 20.4041 1358.08 18.2727 Q1355.66 16.1003 1352.51 16.1003 Q1349.56 16.1003 1346.32 17.3299 Q1343.08 18.5596 1341.32 21.3059 Q1346.52 21.3059 1346.52 25.5278 Q1346.52 27.3723 1345.34 28.602 Q1344.19 29.7907 1342.26 29.7907 Q1340.42 29.7907 1339.19 28.643 Q1337.96 27.4543 1337.96 25.4458 Q1337.96 20.6501 1342.22 17.3299 Q1346.52 14.0098 1352.84 14.0098 Q1359.07 14.0098 1363.66 17.289 Q1368.29 20.5681 1368.29 25.6098 Q1368.29 30.5695 1365.01 34.6274 Q1361.73 38.6854 1356.53 40.3659 Q1362.92 41.6366 1366.73 45.9814 Q1370.54 50.2853 1370.54 55.5729 Q1370.54 62.1312 1365.38 66.968 Q1360.21 71.7637 1352.67 71.7637 Q1345.7 71.7637 1340.7 67.9927 Q1335.7 64.2217 1335.7 58.6061 Z" fill="#000000" fill-rule="evenodd" fill-opacity="1" /><path clip-path="url(#clip400)" d="M1377.61 58.6061 Q1377.61 56.1058 1379.04 54.9171 Q1380.48 53.7284 1382.32 53.7284 Q1384.25 53.7284 1385.6 54.9991 Q1387 56.2288 1387 58.4012 Q1387 60.7376 1385.36 62.0492 Q1383.76 63.3609 1381.46 63.033 Q1383.47 66.3941 1387.16 67.9107 Q1390.89 69.4273 1394.33 69.4273 Q1397.94 69.4273 1400.85 66.3121 Q1403.8 63.1969 1403.8 55.5729 Q1403.8 49.0966 1401.26 45.3666 Q1398.76 41.6366 1393.8 41.6366 L1390.11 41.6366 Q1388.84 41.6366 1388.47 41.5136 Q1388.1 41.3906 1388.1 40.6938 Q1388.1 39.874 1389.37 39.7101 Q1390.64 39.7101 1392.65 39.4642 Q1397.53 39.3002 1400.11 35.0783 Q1402.45 31.1433 1402.45 25.5278 Q1402.45 20.4041 1399.99 18.2727 Q1397.57 16.1003 1394.41 16.1003 Q1391.46 16.1003 1388.23 17.3299 Q1384.99 18.5596 1383.22 21.3059 Q1388.43 21.3059 1388.43 25.5278 Q1388.43 27.3723 1387.24 28.602 Q1386.09 29.7907 1384.17 29.7907 Q1382.32 29.7907 1381.09 28.643 Q1379.86 27.4543 1379.86 25.4458 Q1379.86 20.6501 1384.13 17.3299 Q1388.43 14.0098 1394.74 14.0098 Q1400.97 14.0098 1405.56 17.289 Q1410.2 20.5681 1410.2 25.6098 Q1410.2 30.5695 1406.92 34.6274 Q1403.64 38.6854 1398.43 40.3659 Q1404.83 41.6366 1408.64 45.9814 Q1412.45 50.2853 1412.45 55.5729 Q1412.45 62.1312 1407.29 66.968 Q1402.12 71.7637 1394.58 71.7637 Q1387.61 71.7637 1382.61 67.9927 Q1377.61 64.2217 1377.61 58.6061 Z" fill="#000000" fill-rule="evenodd" fill-opacity="1" /><path clip-path="url(#clip400)" d="M1419.52 58.6061 Q1419.52 56.1058 1420.95 54.9171 Q1422.38 53.7284 1424.23 53.7284 Q1426.16 53.7284 1427.51 54.9991 Q1428.9 56.2288 1428.9 58.4012 Q1428.9 60.7376 1427.26 62.0492 Q1425.66 63.3609 1423.37 63.033 Q1425.38 66.3941 1429.07 67.9107 Q1432.8 69.4273 1436.24 69.4273 Q1439.85 69.4273 1442.76 66.3121 Q1445.71 63.1969 1445.71 55.5729 Q1445.71 49.0966 1443.17 45.3666 Q1440.67 41.6366 1435.71 41.6366 L1432.02 41.6366 Q1430.75 41.6366 1430.38 41.5136 Q1430.01 41.3906 1430.01 40.6938 Q1430.01 39.874 1431.28 39.7101 Q1432.55 39.7101 1434.56 39.4642 Q1439.44 39.3002 1442.02 35.0783 Q1444.35 31.1433 1444.35 25.5278 Q1444.35 20.4041 1441.9 18.2727 Q1439.48 16.1003 1436.32 16.1003 Q1433.37 16.1003 1430.13 17.3299 Q1426.89 18.5596 1425.13 21.3059 Q1430.34 21.3059 1430.34 25.5278 Q1430.34 27.3723 1429.15 28.602 Q1428 29.7907 1426.07 29.7907 Q1424.23 29.7907 1423 28.643 Q1421.77 27.4543 1421.77 25.4458 Q1421.77 20.6501 1426.03 17.3299 Q1430.34 14.0098 1436.65 14.0098 Q1442.88 14.0098 1447.47 17.289 Q1452.1 20.5681 1452.1 25.6098 Q1452.1 30.5695 1448.82 34.6274 Q1445.54 38.6854 1440.34 40.3659 Q1446.73 41.6366 1450.54 45.9814 Q1454.36 50.2853 1454.36 55.5729 Q1454.36 62.1312 1449.19 66.968 Q1444.03 71.7637 1436.48 71.7637 Q1429.52 71.7637 1424.52 67.9927 Q1419.52 64.2217 1419.52 58.6061 Z" fill="#000000" fill-rule="evenodd" fill-opacity="1" /><path clip-path="url(#clip400)" d="M1461.42 58.6061 Q1461.42 56.1058 1462.86 54.9171 Q1464.29 53.7284 1466.14 53.7284 Q1468.06 53.7284 1469.41 54.9991 Q1470.81 56.2288 1470.81 58.4012 Q1470.81 60.7376 1469.17 62.0492 Q1467.57 63.3609 1465.27 63.033 Q1467.28 66.3941 1470.97 67.9107 Q1474.7 69.4273 1478.15 69.4273 Q1481.75 69.4273 1484.66 66.3121 Q1487.61 63.1969 1487.61 55.5729 Q1487.61 49.0966 1485.07 45.3666 Q1482.57 41.6366 1477.61 41.6366 L1473.92 41.6366 Q1472.65 41.6366 1472.28 41.5136 Q1471.91 41.3906 1471.91 40.6938 Q1471.91 39.874 1473.19 39.7101 Q1474.46 39.7101 1476.46 39.4642 Q1481.34 39.3002 1483.92 35.0783 Q1486.26 31.1433 1486.26 25.5278 Q1486.26 20.4041 1483.8 18.2727 Q1481.38 16.1003 1478.23 16.1003 Q1475.28 16.1003 1472.04 17.3299 Q1468.8 18.5596 1467.04 21.3059 Q1472.24 21.3059 1472.24 25.5278 Q1472.24 27.3723 1471.05 28.602 Q1469.91 29.7907 1467.98 29.7907 Q1466.14 29.7907 1464.91 28.643 Q1463.68 27.4543 1463.68 25.4458 Q1463.68 20.6501 1467.94 17.3299 Q1472.24 14.0098 1478.56 14.0098 Q1484.79 14.0098 1489.38 17.289 Q1494.01 20.5681 1494.01 25.6098 Q1494.01 30.5695 1490.73 34.6274 Q1487.45 38.6854 1482.24 40.3659 Q1488.64 41.6366 1492.45 45.9814 Q1496.26 50.2853 1496.26 55.5729 Q1496.26 62.1312 1491.1 66.968 Q1485.93 71.7637 1478.39 71.7637 Q1471.42 71.7637 1466.42 67.9927 Q1461.42 64.2217 1461.42 58.6061 Z" fill="#000000" fill-rule="evenodd" fill-opacity="1" /><path clip-path="url(#clip400)" d="M1503.33 58.6061 Q1503.33 56.1058 1504.76 54.9171 Q1506.2 53.7284 1508.04 53.7284 Q1509.97 53.7284 1511.32 54.9991 Q1512.71 56.2288 1512.71 58.4012 Q1512.71 60.7376 1511.07 62.0492 Q1509.48 63.3609 1507.18 63.033 Q1509.19 66.3941 1512.88 67.9107 Q1516.61 69.4273 1520.05 69.4273 Q1523.66 69.4273 1526.57 66.3121 Q1529.52 63.1969 1529.52 55.5729 Q1529.52 49.0966 1526.98 45.3666 Q1524.48 41.6366 1519.52 41.6366 L1515.83 41.6366 Q1514.56 41.6366 1514.19 41.5136 Q1513.82 41.3906 1513.82 40.6938 Q1513.82 39.874 1515.09 39.7101 Q1516.36 39.7101 1518.37 39.4642 Q1523.25 39.3002 1525.83 35.0783 Q1528.17 31.1433 1528.17 25.5278 Q1528.17 20.4041 1525.71 18.2727 Q1523.29 16.1003 1520.13 16.1003 Q1517.18 16.1003 1513.94 17.3299 Q1510.71 18.5596 1508.94 21.3059 Q1514.15 21.3059 1514.15 25.5278 Q1514.15 27.3723 1512.96 28.602 Q1511.81 29.7907 1509.89 29.7907 Q1508.04 29.7907 1506.81 28.643 Q1505.58 27.4543 1505.58 25.4458 Q1505.58 20.6501 1509.85 17.3299 Q1514.15 14.0098 1520.46 14.0098 Q1526.69 14.0098 1531.28 17.289 Q1535.91 20.5681 1535.91 25.6098 Q1535.91 30.5695 1532.64 34.6274 Q1529.36 38.6854 1524.15 40.3659 Q1530.54 41.6366 1534.36 45.9814 Q1538.17 50.2853 1538.17 55.5729 Q1538.17 62.1312 1533 66.968 Q1527.84 71.7637 1520.3 71.7637 Q1513.33 71.7637 1508.33 67.9927 Q1503.33 64.2217 1503.33 58.6061 Z" fill="#000000" fill-rule="evenodd" fill-opacity="1" /><path clip-path="url(#clip400)" d="M1545.23 58.6061 Q1545.23 56.1058 1546.67 54.9171 Q1548.1 53.7284 1549.95 53.7284 Q1551.87 53.7284 1553.23 54.9991 Q1554.62 56.2288 1554.62 58.4012 Q1554.62 60.7376 1552.98 62.0492 Q1551.38 63.3609 1549.09 63.033 Q1551.1 66.3941 1554.78 67.9107 Q1558.51 69.4273 1561.96 69.4273 Q1565.56 69.4273 1568.48 66.3121 Q1571.43 63.1969 1571.43 55.5729 Q1571.43 49.0966 1568.88 45.3666 Q1566.38 41.6366 1561.42 41.6366 L1557.74 41.6366 Q1556.47 41.6366 1556.1 41.5136 Q1555.73 41.3906 1555.73 40.6938 Q1555.73 39.874 1557 39.7101 Q1558.27 39.7101 1560.28 39.4642 Q1565.15 39.3002 1567.74 35.0783 Q1570.07 31.1433 1570.07 25.5278 Q1570.07 20.4041 1567.61 18.2727 Q1565.2 16.1003 1562.04 16.1003 Q1559.09 16.1003 1555.85 17.3299 Q1552.61 18.5596 1550.85 21.3059 Q1556.06 21.3059 1556.06 25.5278 Q1556.06 27.3723 1554.87 28.602 Q1553.72 29.7907 1551.79 29.7907 Q1549.95 29.7907 1548.72 28.643 Q1547.49 27.4543 1547.49 25.4458 Q1547.49 20.6501 1551.75 17.3299 Q1556.06 14.0098 1562.37 14.0098 Q1568.6 14.0098 1573.19 17.289 Q1577.82 20.5681 1577.82 25.6098 Q1577.82 30.5695 1574.54 34.6274 Q1571.26 38.6854 1566.06 40.3659 Q1572.45 41.6366 1576.26 45.9814 Q1580.08 50.2853 1580.08 55.5729 Q1580.08 62.1312 1574.91 66.968 Q1569.75 71.7637 1562.2 71.7637 Q1555.24 71.7637 1550.23 67.9927 Q1545.23 64.2217 1545.23 58.6061 Z" fill="#000000" fill-rule="evenodd" fill-opacity="1" /><path clip-path="url(#clip400)" d="M1587.14 58.6061 Q1587.14 56.1058 1588.58 54.9171 Q1590.01 53.7284 1591.85 53.7284 Q1593.78 53.7284 1595.13 54.9991 Q1596.53 56.2288 1596.53 58.4012 Q1596.53 60.7376 1594.89 62.0492 Q1593.29 63.3609 1590.99 63.033 Q1593 66.3941 1596.69 67.9107 Q1600.42 69.4273 1603.86 69.4273 Q1607.47 69.4273 1610.38 66.3121 Q1613.33 63.1969 1613.33 55.5729 Q1613.33 49.0966 1610.79 45.3666 Q1608.29 41.6366 1603.33 41.6366 L1599.64 41.6366 Q1598.37 41.6366 1598 41.5136 Q1597.63 41.3906 1597.63 40.6938 Q1597.63 39.874 1598.9 39.7101 Q1600.18 39.7101 1602.18 39.4642 Q1607.06 39.3002 1609.64 35.0783 Q1611.98 31.1433 1611.98 25.5278 Q1611.98 20.4041 1609.52 18.2727 Q1607.1 16.1003 1603.95 16.1003 Q1600.99 16.1003 1597.76 17.3299 Q1594.52 18.5596 1592.76 21.3059 Q1597.96 21.3059 1597.96 25.5278 Q1597.96 27.3723 1596.77 28.602 Q1595.63 29.7907 1593.7 29.7907 Q1591.85 29.7907 1590.62 28.643 Q1589.39 27.4543 1589.39 25.4458 Q1589.39 20.6501 1593.66 17.3299 Q1597.96 14.0098 1604.27 14.0098 Q1610.5 14.0098 1615.1 17.289 Q1619.73 20.5681 1619.73 25.6098 Q1619.73 30.5695 1616.45 34.6274 Q1613.17 38.6854 1607.96 40.3659 Q1614.36 41.6366 1618.17 45.9814 Q1621.98 50.2853 1621.98 55.5729 Q1621.98 62.1312 1616.82 66.968 Q1611.65 71.7637 1604.11 71.7637 Q1597.14 71.7637 1592.14 67.9927 Q1587.14 64.2217 1587.14 58.6061 Z" fill="#000000" fill-rule="evenodd" fill-opacity="1" /><path clip-path="url(#clip400)" d="M1629.05 58.6061 Q1629.05 56.1058 1630.48 54.9171 Q1631.92 53.7284 1633.76 53.7284 Q1635.69 53.7284 1637.04 54.9991 Q1638.43 56.2288 1638.43 58.4012 Q1638.43 60.7376 1636.79 62.0492 Q1635.2 63.3609 1632.9 63.033 Q1634.91 66.3941 1638.6 67.9107 Q1642.33 69.4273 1645.77 69.4273 Q1649.38 69.4273 1652.29 66.3121 Q1655.24 63.1969 1655.24 55.5729 Q1655.24 49.0966 1652.7 45.3666 Q1650.2 41.6366 1645.24 41.6366 L1641.55 41.6366 Q1640.28 41.6366 1639.91 41.5136 Q1639.54 41.3906 1639.54 40.6938 Q1639.54 39.874 1640.81 39.7101 Q1642.08 39.7101 1644.09 39.4642 Q1648.97 39.3002 1651.55 35.0783 Q1653.89 31.1433 1653.89 25.5278 Q1653.89 20.4041 1651.43 18.2727 Q1649.01 16.1003 1645.85 16.1003 Q1642.9 16.1003 1639.66 17.3299 Q1636.42 18.5596 1634.66 21.3059 Q1639.87 21.3059 1639.87 25.5278 Q1639.87 27.3723 1638.68 28.602 Q1637.53 29.7907 1635.61 29.7907 Q1633.76 29.7907 1632.53 28.643 Q1631.3 27.4543 1631.3 25.4458 Q1631.3 20.6501 1635.56 17.3299 Q1639.87 14.0098 1646.18 14.0098 Q1652.41 14.0098 1657 17.289 Q1661.63 20.5681 1661.63 25.6098 Q1661.63 30.5695 1658.35 34.6274 Q1655.07 38.6854 1649.87 40.3659 Q1656.26 41.6366 1660.08 45.9814 Q1663.89 50.2853 1663.89 55.5729 Q1663.89 62.1312 1658.72 66.968 Q1653.56 71.7637 1646.02 71.7637 Q1639.05 71.7637 1634.05 67.9927 Q1629.05 64.2217 1629.05 58.6061 Z" fill="#000000" fill-rule="evenodd" fill-opacity="1" /><path clip-path="url(#clip400)" d="M1670.95 58.6061 Q1670.95 56.1058 1672.39 54.9171 Q1673.82 53.7284 1675.67 53.7284 Q1677.59 53.7284 1678.95 54.9991 Q1680.34 56.2288 1680.34 58.4012 Q1680.34 60.7376 1678.7 62.0492 Q1677.1 63.3609 1674.81 63.033 Q1676.81 66.3941 1680.5 67.9107 Q1684.23 69.4273 1687.68 69.4273 Q1691.28 69.4273 1694.19 66.3121 Q1697.15 63.1969 1697.15 55.5729 Q1697.15 49.0966 1694.6 45.3666 Q1692.1 41.6366 1687.14 41.6366 L1683.45 41.6366 Q1682.18 41.6366 1681.82 41.5136 Q1681.45 41.3906 1681.45 40.6938 Q1681.45 39.874 1682.72 39.7101 Q1683.99 39.7101 1686 39.4642 Q1690.87 39.3002 1693.46 35.0783 Q1695.79 31.1433 1695.79 25.5278 Q1695.79 20.4041 1693.33 18.2727 Q1690.91 16.1003 1687.76 16.1003 Q1684.81 16.1003 1681.57 17.3299 Q1678.33 18.5596 1676.57 21.3059 Q1681.77 21.3059 1681.77 25.5278 Q1681.77 27.3723 1680.59 28.602 Q1679.44 29.7907 1677.51 29.7907 Q1675.67 29.7907 1674.44 28.643 Q1673.21 27.4543 1673.21 25.4458 Q1673.21 20.6501 1677.47 17.3299 Q1681.77 14.0098 1688.09 14.0098 Q1694.32 14.0098 1698.91 17.289 Q1703.54 20.5681 1703.54 25.6098 Q1703.54 30.5695 1700.26 34.6274 Q1696.98 38.6854 1691.78 40.3659 Q1698.17 41.6366 1701.98 45.9814 Q1705.79 50.2853 1705.79 55.5729 Q1705.79 62.1312 1700.63 66.968 Q1695.46 71.7637 1687.92 71.7637 Q1680.95 71.7637 1675.95 67.9927 Q1670.95 64.2217 1670.95 58.6061 Z" fill="#000000" fill-rule="evenodd" fill-opacity="1" /><path clip-path="url(#clip400)" d="M1712.86 58.6061 Q1712.86 56.1058 1714.29 54.9171 Q1715.73 53.7284 1717.57 53.7284 Q1719.5 53.7284 1720.85 54.9991 Q1722.25 56.2288 1722.25 58.4012 Q1722.25 60.7376 1720.61 62.0492 Q1719.01 63.3609 1716.71 63.033 Q1718.72 66.3941 1722.41 67.9107 Q1726.14 69.4273 1729.58 69.4273 Q1733.19 69.4273 1736.1 66.3121 Q1739.05 63.1969 1739.05 55.5729 Q1739.05 49.0966 1736.51 45.3666 Q1734.01 41.6366 1729.05 41.6366 L1725.36 41.6366 Q1724.09 41.6366 1723.72 41.5136 Q1723.35 41.3906 1723.35 40.6938 Q1723.35 39.874 1724.62 39.7101 Q1725.89 39.7101 1727.9 39.4642 Q1732.78 39.3002 1735.36 35.0783 Q1737.7 31.1433 1737.7 25.5278 Q1737.7 20.4041 1735.24 18.2727 Q1732.82 16.1003 1729.66 16.1003 Q1726.71 16.1003 1723.48 17.3299 Q1720.24 18.5596 1718.47 21.3059 Q1723.68 21.3059 1723.68 25.5278 Q1723.68 27.3723 1722.49 28.602 Q1721.34 29.7907 1719.42 29.7907 Q1717.57 29.7907 1716.34 28.643 Q1715.11 27.4543 1715.11 25.4458 Q1715.11 20.6501 1719.38 17.3299 Q1723.68 14.0098 1729.99 14.0098 Q1736.22 14.0098 1740.81 17.289 Q1745.45 20.5681 1745.45 25.6098 Q1745.45 30.5695 1742.17 34.6274 Q1738.89 38.6854 1733.68 40.3659 Q1740.08 41.6366 1743.89 45.9814 Q1747.7 50.2853 1747.7 55.5729 Q1747.7 62.1312 1742.54 66.968 Q1737.37 71.7637 1729.83 71.7637 Q1722.86 71.7637 1717.86 67.9927 Q1712.86 64.2217 1712.86 58.6061 Z" fill="#000000" fill-rule="evenodd" fill-opacity="1" /><polyline clip-path="url(#clip402)" style="stroke:#009af9; stroke-linecap:butt; stroke-linejoin:round; stroke-width:12; stroke-opacity:1; fill:none" points="
  248.062,1447.87 318.524,1398.46 388.985,1349.05 459.447,1299.63 529.909,1250.22 600.371,1200.8 670.833,1151.39 741.294,1101.98 811.756,1052.56 882.218,1003.15 
  952.68,953.736 1023.14,904.322 1093.6,854.909 1164.07,805.495 1234.53,756.081 1304.99,706.668 1375.45,657.254 1445.91,607.84 1516.37,558.427 1586.84,509.013 
  1657.3,459.6 1727.76,410.187 1798.22,360.782 1868.68,311.413 1939.15,262.244 2009.61,214.162 2080.07,171.997 2150.53,162.047 2220.99,327.493 2291.45,1447.87 
  
  "/>
<line clip-path="url(#clip402)" x1="248.062" y1="1447.87" x2="248.062" y2="1431.87" style="stroke:#009af9; stroke-width:3.2; stroke-opacity:1"/>
<line clip-path="url(#clip402)" x1="248.062" y1="1447.87" x2="232.062" y2="1447.87" style="stroke:#009af9; stroke-width:3.2; stroke-opacity:1"/>
<line clip-path="url(#clip402)" x1="248.062" y1="1447.87" x2="248.062" y2="1463.87" style="stroke:#009af9; stroke-width:3.2; stroke-opacity:1"/>
<line clip-path="url(#clip402)" x1="248.062" y1="1447.87" x2="264.062" y2="1447.87" style="stroke:#009af9; stroke-width:3.2; stroke-opacity:1"/>
<line clip-path="url(#clip402)" x1="318.524" y1="1398.46" x2="318.524" y2="1382.46" style="stroke:#009af9; stroke-width:3.2; stroke-opacity:1"/>
<line clip-path="url(#clip402)" x1="318.524" y1="1398.46" x2="302.524" y2="1398.46" style="stroke:#009af9; stroke-width:3.2; stroke-opacity:1"/>
<line clip-path="url(#clip402)" x1="318.524" y1="1398.46" x2="318.524" y2="1414.46" style="stroke:#009af9; stroke-width:3.2; stroke-opacity:1"/>
<line clip-path="url(#clip402)" x1="318.524" y1="1398.46" x2="334.524" y2="1398.46" style="stroke:#009af9; stroke-width:3.2; stroke-opacity:1"/>
<line clip-path="url(#clip402)" x1="388.985" y1="1349.05" x2="388.985" y2="1333.05" style="stroke:#009af9; stroke-width:3.2; stroke-opacity:1"/>
<line clip-path="url(#clip402)" x1="388.985" y1="1349.05" x2="372.985" y2="1349.05" style="stroke:#009af9; stroke-width:3.2; stroke-opacity:1"/>
<line clip-path="url(#clip402)" x1="388.985" y1="1349.05" x2="388.985" y2="1365.05" style="stroke:#009af9; stroke-width:3.2; stroke-opacity:1"/>
<line clip-path="url(#clip402)" x1="388.985" y1="1349.05" x2="404.985" y2="1349.05" style="stroke:#009af9; stroke-width:3.2; stroke-opacity:1"/>
<line clip-path="url(#clip402)" x1="459.447" y1="1299.63" x2="459.447" y2="1283.63" style="stroke:#009af9; stroke-width:3.2; stroke-opacity:1"/>
<line clip-path="url(#clip402)" x1="459.447" y1="1299.63" x2="443.447" y2="1299.63" style="stroke:#009af9; stroke-width:3.2; stroke-opacity:1"/>
<line clip-path="url(#clip402)" x1="459.447" y1="1299.63" x2="459.447" y2="1315.63" style="stroke:#009af9; stroke-width:3.2; stroke-opacity:1"/>
<line clip-path="url(#clip402)" x1="459.447" y1="1299.63" x2="475.447" y2="1299.63" style="stroke:#009af9; stroke-width:3.2; stroke-opacity:1"/>
<line clip-path="url(#clip402)" x1="529.909" y1="1250.22" x2="529.909" y2="1234.22" style="stroke:#009af9; stroke-width:3.2; stroke-opacity:1"/>
<line clip-path="url(#clip402)" x1="529.909" y1="1250.22" x2="513.909" y2="1250.22" style="stroke:#009af9; stroke-width:3.2; stroke-opacity:1"/>
<line clip-path="url(#clip402)" x1="529.909" y1="1250.22" x2="529.909" y2="1266.22" style="stroke:#009af9; stroke-width:3.2; stroke-opacity:1"/>
<line clip-path="url(#clip402)" x1="529.909" y1="1250.22" x2="545.909" y2="1250.22" style="stroke:#009af9; stroke-width:3.2; stroke-opacity:1"/>
<line clip-path="url(#clip402)" x1="600.371" y1="1200.8" x2="600.371" y2="1184.8" style="stroke:#009af9; stroke-width:3.2; stroke-opacity:1"/>
<line clip-path="url(#clip402)" x1="600.371" y1="1200.8" x2="584.371" y2="1200.8" style="stroke:#009af9; stroke-width:3.2; stroke-opacity:1"/>
<line clip-path="url(#clip402)" x1="600.371" y1="1200.8" x2="600.371" y2="1216.8" style="stroke:#009af9; stroke-width:3.2; stroke-opacity:1"/>
<line clip-path="url(#clip402)" x1="600.371" y1="1200.8" x2="616.371" y2="1200.8" style="stroke:#009af9; stroke-width:3.2; stroke-opacity:1"/>
<line clip-path="url(#clip402)" x1="670.833" y1="1151.39" x2="670.833" y2="1135.39" style="stroke:#009af9; stroke-width:3.2; stroke-opacity:1"/>
<line clip-path="url(#clip402)" x1="670.833" y1="1151.39" x2="654.833" y2="1151.39" style="stroke:#009af9; stroke-width:3.2; stroke-opacity:1"/>
<line clip-path="url(#clip402)" x1="670.833" y1="1151.39" x2="670.833" y2="1167.39" style="stroke:#009af9; stroke-width:3.2; stroke-opacity:1"/>
<line clip-path="url(#clip402)" x1="670.833" y1="1151.39" x2="686.833" y2="1151.39" style="stroke:#009af9; stroke-width:3.2; stroke-opacity:1"/>
<line clip-path="url(#clip402)" x1="741.294" y1="1101.98" x2="741.294" y2="1085.98" style="stroke:#009af9; stroke-width:3.2; stroke-opacity:1"/>
<line clip-path="url(#clip402)" x1="741.294" y1="1101.98" x2="725.294" y2="1101.98" style="stroke:#009af9; stroke-width:3.2; stroke-opacity:1"/>
<line clip-path="url(#clip402)" x1="741.294" y1="1101.98" x2="741.294" y2="1117.98" style="stroke:#009af9; stroke-width:3.2; stroke-opacity:1"/>
<line clip-path="url(#clip402)" x1="741.294" y1="1101.98" x2="757.294" y2="1101.98" style="stroke:#009af9; stroke-width:3.2; stroke-opacity:1"/>
<line clip-path="url(#clip402)" x1="811.756" y1="1052.56" x2="811.756" y2="1036.56" style="stroke:#009af9; stroke-width:3.2; stroke-opacity:1"/>
<line clip-path="url(#clip402)" x1="811.756" y1="1052.56" x2="795.756" y2="1052.56" style="stroke:#009af9; stroke-width:3.2; stroke-opacity:1"/>
<line clip-path="url(#clip402)" x1="811.756" y1="1052.56" x2="811.756" y2="1068.56" style="stroke:#009af9; stroke-width:3.2; stroke-opacity:1"/>
<line clip-path="url(#clip402)" x1="811.756" y1="1052.56" x2="827.756" y2="1052.56" style="stroke:#009af9; stroke-width:3.2; stroke-opacity:1"/>
<line clip-path="url(#clip402)" x1="882.218" y1="1003.15" x2="882.218" y2="987.15" style="stroke:#009af9; stroke-width:3.2; stroke-opacity:1"/>
<line clip-path="url(#clip402)" x1="882.218" y1="1003.15" x2="866.218" y2="1003.15" style="stroke:#009af9; stroke-width:3.2; stroke-opacity:1"/>
<line clip-path="url(#clip402)" x1="882.218" y1="1003.15" x2="882.218" y2="1019.15" style="stroke:#009af9; stroke-width:3.2; stroke-opacity:1"/>
<line clip-path="url(#clip402)" x1="882.218" y1="1003.15" x2="898.218" y2="1003.15" style="stroke:#009af9; stroke-width:3.2; stroke-opacity:1"/>
<line clip-path="url(#clip402)" x1="952.68" y1="953.736" x2="952.68" y2="937.736" style="stroke:#009af9; stroke-width:3.2; stroke-opacity:1"/>
<line clip-path="url(#clip402)" x1="952.68" y1="953.736" x2="936.68" y2="953.736" style="stroke:#009af9; stroke-width:3.2; stroke-opacity:1"/>
<line clip-path="url(#clip402)" x1="952.68" y1="953.736" x2="952.68" y2="969.736" style="stroke:#009af9; stroke-width:3.2; stroke-opacity:1"/>
<line clip-path="url(#clip402)" x1="952.68" y1="953.736" x2="968.68" y2="953.736" style="stroke:#009af9; stroke-width:3.2; stroke-opacity:1"/>
<line clip-path="url(#clip402)" x1="1023.14" y1="904.322" x2="1023.14" y2="888.322" style="stroke:#009af9; stroke-width:3.2; stroke-opacity:1"/>
<line clip-path="url(#clip402)" x1="1023.14" y1="904.322" x2="1007.14" y2="904.322" style="stroke:#009af9; stroke-width:3.2; stroke-opacity:1"/>
<line clip-path="url(#clip402)" x1="1023.14" y1="904.322" x2="1023.14" y2="920.322" style="stroke:#009af9; stroke-width:3.2; stroke-opacity:1"/>
<line clip-path="url(#clip402)" x1="1023.14" y1="904.322" x2="1039.14" y2="904.322" style="stroke:#009af9; stroke-width:3.2; stroke-opacity:1"/>
<line clip-path="url(#clip402)" x1="1093.6" y1="854.909" x2="1093.6" y2="838.909" style="stroke:#009af9; stroke-width:3.2; stroke-opacity:1"/>
<line clip-path="url(#clip402)" x1="1093.6" y1="854.909" x2="1077.6" y2="854.909" style="stroke:#009af9; stroke-width:3.2; stroke-opacity:1"/>
<line clip-path="url(#clip402)" x1="1093.6" y1="854.909" x2="1093.6" y2="870.909" style="stroke:#009af9; stroke-width:3.2; stroke-opacity:1"/>
<line clip-path="url(#clip402)" x1="1093.6" y1="854.909" x2="1109.6" y2="854.909" style="stroke:#009af9; stroke-width:3.2; stroke-opacity:1"/>
<line clip-path="url(#clip402)" x1="1164.07" y1="805.495" x2="1164.07" y2="789.495" style="stroke:#009af9; stroke-width:3.2; stroke-opacity:1"/>
<line clip-path="url(#clip402)" x1="1164.07" y1="805.495" x2="1148.07" y2="805.495" style="stroke:#009af9; stroke-width:3.2; stroke-opacity:1"/>
<line clip-path="url(#clip402)" x1="1164.07" y1="805.495" x2="1164.07" y2="821.495" style="stroke:#009af9; stroke-width:3.2; stroke-opacity:1"/>
<line clip-path="url(#clip402)" x1="1164.07" y1="805.495" x2="1180.07" y2="805.495" style="stroke:#009af9; stroke-width:3.2; stroke-opacity:1"/>
<line clip-path="url(#clip402)" x1="1234.53" y1="756.081" x2="1234.53" y2="740.081" style="stroke:#009af9; stroke-width:3.2; stroke-opacity:1"/>
<line clip-path="url(#clip402)" x1="1234.53" y1="756.081" x2="1218.53" y2="756.081" style="stroke:#009af9; stroke-width:3.2; stroke-opacity:1"/>
<line clip-path="url(#clip402)" x1="1234.53" y1="756.081" x2="1234.53" y2="772.081" style="stroke:#009af9; stroke-width:3.2; stroke-opacity:1"/>
<line clip-path="url(#clip402)" x1="1234.53" y1="756.081" x2="1250.53" y2="756.081" style="stroke:#009af9; stroke-width:3.2; stroke-opacity:1"/>
<line clip-path="url(#clip402)" x1="1304.99" y1="706.668" x2="1304.99" y2="690.668" style="stroke:#009af9; stroke-width:3.2; stroke-opacity:1"/>
<line clip-path="url(#clip402)" x1="1304.99" y1="706.668" x2="1288.99" y2="706.668" style="stroke:#009af9; stroke-width:3.2; stroke-opacity:1"/>
<line clip-path="url(#clip402)" x1="1304.99" y1="706.668" x2="1304.99" y2="722.668" style="stroke:#009af9; stroke-width:3.2; stroke-opacity:1"/>
<line clip-path="url(#clip402)" x1="1304.99" y1="706.668" x2="1320.99" y2="706.668" style="stroke:#009af9; stroke-width:3.2; stroke-opacity:1"/>
<line clip-path="url(#clip402)" x1="1375.45" y1="657.254" x2="1375.45" y2="641.254" style="stroke:#009af9; stroke-width:3.2; stroke-opacity:1"/>
<line clip-path="url(#clip402)" x1="1375.45" y1="657.254" x2="1359.45" y2="657.254" style="stroke:#009af9; stroke-width:3.2; stroke-opacity:1"/>
<line clip-path="url(#clip402)" x1="1375.45" y1="657.254" x2="1375.45" y2="673.254" style="stroke:#009af9; stroke-width:3.2; stroke-opacity:1"/>
<line clip-path="url(#clip402)" x1="1375.45" y1="657.254" x2="1391.45" y2="657.254" style="stroke:#009af9; stroke-width:3.2; stroke-opacity:1"/>
<line clip-path="url(#clip402)" x1="1445.91" y1="607.84" x2="1445.91" y2="591.84" style="stroke:#009af9; stroke-width:3.2; stroke-opacity:1"/>
<line clip-path="url(#clip402)" x1="1445.91" y1="607.84" x2="1429.91" y2="607.84" style="stroke:#009af9; stroke-width:3.2; stroke-opacity:1"/>
<line clip-path="url(#clip402)" x1="1445.91" y1="607.84" x2="1445.91" y2="623.84" style="stroke:#009af9; stroke-width:3.2; stroke-opacity:1"/>
<line clip-path="url(#clip402)" x1="1445.91" y1="607.84" x2="1461.91" y2="607.84" style="stroke:#009af9; stroke-width:3.2; stroke-opacity:1"/>
<line clip-path="url(#clip402)" x1="1516.37" y1="558.427" x2="1516.37" y2="542.427" style="stroke:#009af9; stroke-width:3.2; stroke-opacity:1"/>
<line clip-path="url(#clip402)" x1="1516.37" y1="558.427" x2="1500.37" y2="558.427" style="stroke:#009af9; stroke-width:3.2; stroke-opacity:1"/>
<line clip-path="url(#clip402)" x1="1516.37" y1="558.427" x2="1516.37" y2="574.427" style="stroke:#009af9; stroke-width:3.2; stroke-opacity:1"/>
<line clip-path="url(#clip402)" x1="1516.37" y1="558.427" x2="1532.37" y2="558.427" style="stroke:#009af9; stroke-width:3.2; stroke-opacity:1"/>
<line clip-path="url(#clip402)" x1="1586.84" y1="509.013" x2="1586.84" y2="493.013" style="stroke:#009af9; stroke-width:3.2; stroke-opacity:1"/>
<line clip-path="url(#clip402)" x1="1586.84" y1="509.013" x2="1570.84" y2="509.013" style="stroke:#009af9; stroke-width:3.2; stroke-opacity:1"/>
<line clip-path="url(#clip402)" x1="1586.84" y1="509.013" x2="1586.84" y2="525.013" style="stroke:#009af9; stroke-width:3.2; stroke-opacity:1"/>
<line clip-path="url(#clip402)" x1="1586.84" y1="509.013" x2="1602.84" y2="509.013" style="stroke:#009af9; stroke-width:3.2; stroke-opacity:1"/>
<line clip-path="url(#clip402)" x1="1657.3" y1="459.6" x2="1657.3" y2="443.6" style="stroke:#009af9; stroke-width:3.2; stroke-opacity:1"/>
<line clip-path="url(#clip402)" x1="1657.3" y1="459.6" x2="1641.3" y2="459.6" style="stroke:#009af9; stroke-width:3.2; stroke-opacity:1"/>
<line clip-path="url(#clip402)" x1="1657.3" y1="459.6" x2="1657.3" y2="475.6" style="stroke:#009af9; stroke-width:3.2; stroke-opacity:1"/>
<line clip-path="url(#clip402)" x1="1657.3" y1="459.6" x2="1673.3" y2="459.6" style="stroke:#009af9; stroke-width:3.2; stroke-opacity:1"/>
<line clip-path="url(#clip402)" x1="1727.76" y1="410.187" x2="1727.76" y2="394.187" style="stroke:#009af9; stroke-width:3.2; stroke-opacity:1"/>
<line clip-path="url(#clip402)" x1="1727.76" y1="410.187" x2="1711.76" y2="410.187" style="stroke:#009af9; stroke-width:3.2; stroke-opacity:1"/>
<line clip-path="url(#clip402)" x1="1727.76" y1="410.187" x2="1727.76" y2="426.187" style="stroke:#009af9; stroke-width:3.2; stroke-opacity:1"/>
<line clip-path="url(#clip402)" x1="1727.76" y1="410.187" x2="1743.76" y2="410.187" style="stroke:#009af9; stroke-width:3.2; stroke-opacity:1"/>
<line clip-path="url(#clip402)" x1="1798.22" y1="360.782" x2="1798.22" y2="344.782" style="stroke:#009af9; stroke-width:3.2; stroke-opacity:1"/>
<line clip-path="url(#clip402)" x1="1798.22" y1="360.782" x2="1782.22" y2="360.782" style="stroke:#009af9; stroke-width:3.2; stroke-opacity:1"/>
<line clip-path="url(#clip402)" x1="1798.22" y1="360.782" x2="1798.22" y2="376.782" style="stroke:#009af9; stroke-width:3.2; stroke-opacity:1"/>
<line clip-path="url(#clip402)" x1="1798.22" y1="360.782" x2="1814.22" y2="360.782" style="stroke:#009af9; stroke-width:3.2; stroke-opacity:1"/>
<line clip-path="url(#clip402)" x1="1868.68" y1="311.413" x2="1868.68" y2="295.413" style="stroke:#009af9; stroke-width:3.2; stroke-opacity:1"/>
<line clip-path="url(#clip402)" x1="1868.68" y1="311.413" x2="1852.68" y2="311.413" style="stroke:#009af9; stroke-width:3.2; stroke-opacity:1"/>
<line clip-path="url(#clip402)" x1="1868.68" y1="311.413" x2="1868.68" y2="327.413" style="stroke:#009af9; stroke-width:3.2; stroke-opacity:1"/>
<line clip-path="url(#clip402)" x1="1868.68" y1="311.413" x2="1884.68" y2="311.413" style="stroke:#009af9; stroke-width:3.2; stroke-opacity:1"/>
<line clip-path="url(#clip402)" x1="1939.15" y1="262.244" x2="1939.15" y2="246.244" style="stroke:#009af9; stroke-width:3.2; stroke-opacity:1"/>
<line clip-path="url(#clip402)" x1="1939.15" y1="262.244" x2="1923.15" y2="262.244" style="stroke:#009af9; stroke-width:3.2; stroke-opacity:1"/>
<line clip-path="url(#clip402)" x1="1939.15" y1="262.244" x2="1939.15" y2="278.244" style="stroke:#009af9; stroke-width:3.2; stroke-opacity:1"/>
<line clip-path="url(#clip402)" x1="1939.15" y1="262.244" x2="1955.15" y2="262.244" style="stroke:#009af9; stroke-width:3.2; stroke-opacity:1"/>
<line clip-path="url(#clip402)" x1="2009.61" y1="214.162" x2="2009.61" y2="198.162" style="stroke:#009af9; stroke-width:3.2; stroke-opacity:1"/>
<line clip-path="url(#clip402)" x1="2009.61" y1="214.162" x2="1993.61" y2="214.162" style="stroke:#009af9; stroke-width:3.2; stroke-opacity:1"/>
<line clip-path="url(#clip402)" x1="2009.61" y1="214.162" x2="2009.61" y2="230.162" style="stroke:#009af9; stroke-width:3.2; stroke-opacity:1"/>
<line clip-path="url(#clip402)" x1="2009.61" y1="214.162" x2="2025.61" y2="214.162" style="stroke:#009af9; stroke-width:3.2; stroke-opacity:1"/>
<line clip-path="url(#clip402)" x1="2080.07" y1="171.997" x2="2080.07" y2="155.997" style="stroke:#009af9; stroke-width:3.2; stroke-opacity:1"/>
<line clip-path="url(#clip402)" x1="2080.07" y1="171.997" x2="2064.07" y2="171.997" style="stroke:#009af9; stroke-width:3.2; stroke-opacity:1"/>
<line clip-path="url(#clip402)" x1="2080.07" y1="171.997" x2="2080.07" y2="187.997" style="stroke:#009af9; stroke-width:3.2; stroke-opacity:1"/>
<line clip-path="url(#clip402)" x1="2080.07" y1="171.997" x2="2096.07" y2="171.997" style="stroke:#009af9; stroke-width:3.2; stroke-opacity:1"/>
<line clip-path="url(#clip402)" x1="2150.53" y1="162.047" x2="2150.53" y2="146.047" style="stroke:#009af9; stroke-width:3.2; stroke-opacity:1"/>
<line clip-path="url(#clip402)" x1="2150.53" y1="162.047" x2="2134.53" y2="162.047" style="stroke:#009af9; stroke-width:3.2; stroke-opacity:1"/>
<line clip-path="url(#clip402)" x1="2150.53" y1="162.047" x2="2150.53" y2="178.047" style="stroke:#009af9; stroke-width:3.2; stroke-opacity:1"/>
<line clip-path="url(#clip402)" x1="2150.53" y1="162.047" x2="2166.53" y2="162.047" style="stroke:#009af9; stroke-width:3.2; stroke-opacity:1"/>
<line clip-path="url(#clip402)" x1="2220.99" y1="327.493" x2="2220.99" y2="311.493" style="stroke:#009af9; stroke-width:3.2; stroke-opacity:1"/>
<line clip-path="url(#clip402)" x1="2220.99" y1="327.493" x2="2204.99" y2="327.493" style="stroke:#009af9; stroke-width:3.2; stroke-opacity:1"/>
<line clip-path="url(#clip402)" x1="2220.99" y1="327.493" x2="2220.99" y2="343.493" style="stroke:#009af9; stroke-width:3.2; stroke-opacity:1"/>
<line clip-path="url(#clip402)" x1="2220.99" y1="327.493" x2="2236.99" y2="327.493" style="stroke:#009af9; stroke-width:3.2; stroke-opacity:1"/>
<line clip-path="url(#clip402)" x1="2291.45" y1="1447.87" x2="2291.45" y2="1431.87" style="stroke:#009af9; stroke-width:3.2; stroke-opacity:1"/>
<line clip-path="url(#clip402)" x1="2291.45" y1="1447.87" x2="2275.45" y2="1447.87" style="stroke:#009af9; stroke-width:3.2; stroke-opacity:1"/>
<line clip-path="url(#clip402)" x1="2291.45" y1="1447.87" x2="2291.45" y2="1463.87" style="stroke:#009af9; stroke-width:3.2; stroke-opacity:1"/>
<line clip-path="url(#clip402)" x1="2291.45" y1="1447.87" x2="2307.45" y2="1447.87" style="stroke:#009af9; stroke-width:3.2; stroke-opacity:1"/>
</svg>
