<?xml version="1.0" encoding="utf-8"?>
<svg xmlns="http://www.w3.org/2000/svg" xmlns:xlink="http://www.w3.org/1999/xlink" width="600" height="400" viewBox="0 0 2400 1600">
<defs>
  <clipPath id="clip460">
    <rect x="0" y="0" width="2400" height="1600"/>
  </clipPath>
</defs>
<path clip-path="url(#clip460)" d="
M0 1600 L2400 1600 L2400 0 L0 0  Z
  " fill="#ffffff" fill-rule="evenodd" fill-opacity="1"/>
<defs>
  <clipPath id="clip461">
    <rect x="480" y="0" width="1681" height="1600"/>
  </clipPath>
</defs>
<path clip-path="url(#clip460)" d="
M147.478 1486.45 L2352.76 1486.45 L2352.76 47.2441 L147.478 47.2441  Z
  " fill="#ffffff" fill-rule="evenodd" fill-opacity="1"/>
<defs>
  <clipPath id="clip462">
    <rect x="147" y="47" width="2206" height="1440"/>
  </clipPath>
</defs>
<polyline clip-path="url(#clip462)" style="stroke:#000000; stroke-linecap:butt; stroke-linejoin:round; stroke-width:2; stroke-opacity:0.1; fill:none" points="
  147.478,1486.45 147.478,47.2441 
  "/>
<polyline clip-path="url(#clip462)" style="stroke:#000000; stroke-linecap:butt; stroke-linejoin:round; stroke-width:2; stroke-opacity:0.1; fill:none" points="
  462.518,1486.45 462.518,47.2441 
  "/>
<polyline clip-path="url(#clip462)" style="stroke:#000000; stroke-linecap:butt; stroke-linejoin:round; stroke-width:2; stroke-opacity:0.1; fill:none" points="
  777.557,1486.45 777.557,47.2441 
  "/>
<polyline clip-path="url(#clip462)" style="stroke:#000000; stroke-linecap:butt; stroke-linejoin:round; stroke-width:2; stroke-opacity:0.1; fill:none" points="
  1092.6,1486.45 1092.6,47.2441 
  "/>
<polyline clip-path="url(#clip462)" style="stroke:#000000; stroke-linecap:butt; stroke-linejoin:round; stroke-width:2; stroke-opacity:0.1; fill:none" points="
  1407.64,1486.45 1407.64,47.2441 
  "/>
<polyline clip-path="url(#clip462)" style="stroke:#000000; stroke-linecap:butt; stroke-linejoin:round; stroke-width:2; stroke-opacity:0.1; fill:none" points="
  1722.68,1486.45 1722.68,47.2441 
  "/>
<polyline clip-path="url(#clip462)" style="stroke:#000000; stroke-linecap:butt; stroke-linejoin:round; stroke-width:2; stroke-opacity:0.1; fill:none" points="
  2037.72,1486.45 2037.72,47.2441 
  "/>
<polyline clip-path="url(#clip462)" style="stroke:#000000; stroke-linecap:butt; stroke-linejoin:round; stroke-width:2; stroke-opacity:0.1; fill:none" points="
  2352.76,1486.45 2352.76,47.2441 
  "/>
<polyline clip-path="url(#clip460)" style="stroke:#000000; stroke-linecap:butt; stroke-linejoin:round; stroke-width:4; stroke-opacity:1; fill:none" points="
  147.478,1486.45 2352.76,1486.45 
  "/>
<polyline clip-path="url(#clip460)" style="stroke:#000000; stroke-linecap:butt; stroke-linejoin:round; stroke-width:4; stroke-opacity:1; fill:none" points="
  147.478,1486.45 147.478,1467.55 
  "/>
<polyline clip-path="url(#clip460)" style="stroke:#000000; stroke-linecap:butt; stroke-linejoin:round; stroke-width:4; stroke-opacity:1; fill:none" points="
  462.518,1486.45 462.518,1467.55 
  "/>
<polyline clip-path="url(#clip460)" style="stroke:#000000; stroke-linecap:butt; stroke-linejoin:round; stroke-width:4; stroke-opacity:1; fill:none" points="
  777.557,1486.45 777.557,1467.55 
  "/>
<polyline clip-path="url(#clip460)" style="stroke:#000000; stroke-linecap:butt; stroke-linejoin:round; stroke-width:4; stroke-opacity:1; fill:none" points="
  1092.6,1486.45 1092.6,1467.55 
  "/>
<polyline clip-path="url(#clip460)" style="stroke:#000000; stroke-linecap:butt; stroke-linejoin:round; stroke-width:4; stroke-opacity:1; fill:none" points="
  1407.64,1486.45 1407.64,1467.55 
  "/>
<polyline clip-path="url(#clip460)" style="stroke:#000000; stroke-linecap:butt; stroke-linejoin:round; stroke-width:4; stroke-opacity:1; fill:none" points="
  1722.68,1486.45 1722.68,1467.55 
  "/>
<polyline clip-path="url(#clip460)" style="stroke:#000000; stroke-linecap:butt; stroke-linejoin:round; stroke-width:4; stroke-opacity:1; fill:none" points="
  2037.72,1486.45 2037.72,1467.55 
  "/>
<polyline clip-path="url(#clip460)" style="stroke:#000000; stroke-linecap:butt; stroke-linejoin:round; stroke-width:4; stroke-opacity:1; fill:none" points="
  2352.76,1486.45 2352.76,1467.55 
  "/>
<path clip-path="url(#clip460)" d="M117.42 1532.02 L147.096 1532.02 L147.096 1535.95 L117.42 1535.95 L117.42 1532.02 Z" fill="#000000" fill-rule="evenodd" fill-opacity="1" /><path clip-path="url(#clip460)" d="M161.216 1544.91 L177.536 1544.91 L177.536 1548.85 L155.591 1548.85 L155.591 1544.91 Q158.253 1542.16 162.837 1537.53 Q167.443 1532.88 168.624 1531.53 Q170.869 1529.01 171.749 1527.27 Q172.651 1525.51 172.651 1523.82 Q172.651 1521.07 170.707 1519.33 Q168.786 1517.6 165.684 1517.6 Q163.485 1517.6 161.031 1518.36 Q158.601 1519.13 155.823 1520.68 L155.823 1515.95 Q158.647 1514.82 161.101 1514.24 Q163.554 1513.66 165.591 1513.66 Q170.962 1513.66 174.156 1516.35 Q177.35 1519.03 177.35 1523.52 Q177.35 1525.65 176.54 1527.57 Q175.753 1529.47 173.647 1532.07 Q173.068 1532.74 169.966 1535.95 Q166.864 1539.15 161.216 1544.91 Z" fill="#000000" fill-rule="evenodd" fill-opacity="1" /><path clip-path="url(#clip460)" d="M432.275 1532.02 L461.95 1532.02 L461.95 1535.95 L432.275 1535.95 L432.275 1532.02 Z" fill="#000000" fill-rule="evenodd" fill-opacity="1" /><path clip-path="url(#clip460)" d="M472.853 1544.91 L480.492 1544.91 L480.492 1518.55 L472.182 1520.21 L472.182 1515.95 L480.446 1514.29 L485.122 1514.29 L485.122 1544.91 L492.761 1544.91 L492.761 1548.85 L472.853 1548.85 L472.853 1544.91 Z" fill="#000000" fill-rule="evenodd" fill-opacity="1" /><path clip-path="url(#clip460)" d="M777.557 1517.37 Q773.946 1517.37 772.118 1520.93 Q770.312 1524.47 770.312 1531.6 Q770.312 1538.71 772.118 1542.27 Q773.946 1545.82 777.557 1545.82 Q781.192 1545.82 782.997 1542.27 Q784.826 1538.71 784.826 1531.6 Q784.826 1524.47 782.997 1520.93 Q781.192 1517.37 777.557 1517.37 M777.557 1513.66 Q783.367 1513.66 786.423 1518.27 Q789.502 1522.85 789.502 1531.6 Q789.502 1540.33 786.423 1544.94 Q783.367 1549.52 777.557 1549.52 Q771.747 1549.52 768.668 1544.94 Q765.613 1540.33 765.613 1531.6 Q765.613 1522.85 768.668 1518.27 Q771.747 1513.66 777.557 1513.66 Z" fill="#000000" fill-rule="evenodd" fill-opacity="1" /><path clip-path="url(#clip460)" d="M1082.98 1544.91 L1090.62 1544.91 L1090.62 1518.55 L1082.31 1520.21 L1082.31 1515.95 L1090.57 1514.29 L1095.25 1514.29 L1095.25 1544.91 L1102.89 1544.91 L1102.89 1548.85 L1082.98 1548.85 L1082.98 1544.91 Z" fill="#000000" fill-rule="evenodd" fill-opacity="1" /><path clip-path="url(#clip460)" d="M1402.29 1544.91 L1418.61 1544.91 L1418.61 1548.85 L1396.66 1548.85 L1396.66 1544.91 Q1399.33 1542.16 1403.91 1537.53 Q1408.52 1532.88 1409.7 1531.53 Q1411.94 1529.01 1412.82 1527.27 Q1413.72 1525.51 1413.72 1523.82 Q1413.72 1521.07 1411.78 1519.33 Q1409.86 1517.6 1406.76 1517.6 Q1404.56 1517.6 1402.1 1518.36 Q1399.67 1519.13 1396.9 1520.68 L1396.9 1515.95 Q1399.72 1514.82 1402.17 1514.24 Q1404.63 1513.66 1406.66 1513.66 Q1412.03 1513.66 1415.23 1516.35 Q1418.42 1519.03 1418.42 1523.52 Q1418.42 1525.65 1417.61 1527.57 Q1416.83 1529.47 1414.72 1532.07 Q1414.14 1532.74 1411.04 1535.95 Q1407.94 1539.15 1402.29 1544.91 Z" fill="#000000" fill-rule="evenodd" fill-opacity="1" /><path clip-path="url(#clip460)" d="M1726.92 1530.21 Q1730.28 1530.93 1732.16 1533.2 Q1734.05 1535.47 1734.05 1538.8 Q1734.05 1543.92 1730.54 1546.72 Q1727.02 1549.52 1720.54 1549.52 Q1718.36 1549.52 1716.04 1549.08 Q1713.75 1548.66 1711.3 1547.81 L1711.3 1543.29 Q1713.24 1544.43 1715.56 1545.01 Q1717.87 1545.58 1720.4 1545.58 Q1724.79 1545.58 1727.09 1543.85 Q1729.4 1542.11 1729.4 1538.8 Q1729.4 1535.75 1727.25 1534.03 Q1725.12 1532.3 1721.3 1532.3 L1717.27 1532.3 L1717.27 1528.45 L1721.48 1528.45 Q1724.93 1528.45 1726.76 1527.09 Q1728.59 1525.7 1728.59 1523.11 Q1728.59 1520.45 1726.69 1519.03 Q1724.82 1517.6 1721.3 1517.6 Q1719.38 1517.6 1717.18 1518.01 Q1714.98 1518.43 1712.34 1519.31 L1712.34 1515.14 Q1715 1514.4 1717.32 1514.03 Q1719.66 1513.66 1721.72 1513.66 Q1727.04 1513.66 1730.14 1516.09 Q1733.24 1518.5 1733.24 1522.62 Q1733.24 1525.49 1731.6 1527.48 Q1729.96 1529.45 1726.92 1530.21 Z" fill="#000000" fill-rule="evenodd" fill-opacity="1" /><path clip-path="url(#clip460)" d="M2040.73 1518.36 L2028.92 1536.81 L2040.73 1536.81 L2040.73 1518.36 M2039.5 1514.29 L2045.38 1514.29 L2045.38 1536.81 L2050.31 1536.81 L2050.31 1540.7 L2045.38 1540.7 L2045.38 1548.85 L2040.73 1548.85 L2040.73 1540.7 L2025.12 1540.7 L2025.12 1536.19 L2039.5 1514.29 Z" fill="#000000" fill-rule="evenodd" fill-opacity="1" /><path clip-path="url(#clip460)" d="M2343.03 1514.29 L2361.39 1514.29 L2361.39 1518.22 L2347.32 1518.22 L2347.32 1526.7 Q2348.33 1526.35 2349.35 1526.19 Q2350.37 1526 2351.39 1526 Q2357.18 1526 2360.56 1529.17 Q2363.94 1532.34 2363.94 1537.76 Q2363.94 1543.34 2360.46 1546.44 Q2356.99 1549.52 2350.67 1549.52 Q2348.5 1549.52 2346.23 1549.15 Q2343.98 1548.78 2341.58 1548.04 L2341.58 1543.34 Q2343.66 1544.47 2345.88 1545.03 Q2348.1 1545.58 2350.58 1545.58 Q2354.58 1545.58 2356.92 1543.48 Q2359.26 1541.37 2359.26 1537.76 Q2359.26 1534.15 2356.92 1532.04 Q2354.58 1529.94 2350.58 1529.94 Q2348.71 1529.94 2346.83 1530.35 Q2344.98 1530.77 2343.03 1531.65 L2343.03 1514.29 Z" fill="#000000" fill-rule="evenodd" fill-opacity="1" /><polyline clip-path="url(#clip462)" style="stroke:#000000; stroke-linecap:butt; stroke-linejoin:round; stroke-width:2; stroke-opacity:0.1; fill:none" points="
  147.478,1486.45 2352.76,1486.45 
  "/>
<polyline clip-path="url(#clip462)" style="stroke:#000000; stroke-linecap:butt; stroke-linejoin:round; stroke-width:2; stroke-opacity:0.1; fill:none" points="
  147.478,1246.58 2352.76,1246.58 
  "/>
<polyline clip-path="url(#clip462)" style="stroke:#000000; stroke-linecap:butt; stroke-linejoin:round; stroke-width:2; stroke-opacity:0.1; fill:none" points="
  147.478,1006.71 2352.76,1006.71 
  "/>
<polyline clip-path="url(#clip462)" style="stroke:#000000; stroke-linecap:butt; stroke-linejoin:round; stroke-width:2; stroke-opacity:0.1; fill:none" points="
  147.478,766.846 2352.76,766.846 
  "/>
<polyline clip-path="url(#clip462)" style="stroke:#000000; stroke-linecap:butt; stroke-linejoin:round; stroke-width:2; stroke-opacity:0.1; fill:none" points="
  147.478,526.979 2352.76,526.979 
  "/>
<polyline clip-path="url(#clip462)" style="stroke:#000000; stroke-linecap:butt; stroke-linejoin:round; stroke-width:2; stroke-opacity:0.1; fill:none" points="
  147.478,287.111 2352.76,287.111 
  "/>
<polyline clip-path="url(#clip462)" style="stroke:#000000; stroke-linecap:butt; stroke-linejoin:round; stroke-width:2; stroke-opacity:0.1; fill:none" points="
  147.478,47.2441 2352.76,47.2441 
  "/>
<polyline clip-path="url(#clip460)" style="stroke:#000000; stroke-linecap:butt; stroke-linejoin:round; stroke-width:4; stroke-opacity:1; fill:none" points="
  147.478,1486.45 147.478,47.2441 
  "/>
<polyline clip-path="url(#clip460)" style="stroke:#000000; stroke-linecap:butt; stroke-linejoin:round; stroke-width:4; stroke-opacity:1; fill:none" points="
  147.478,1486.45 166.376,1486.45 
  "/>
<polyline clip-path="url(#clip460)" style="stroke:#000000; stroke-linecap:butt; stroke-linejoin:round; stroke-width:4; stroke-opacity:1; fill:none" points="
  147.478,1246.58 166.376,1246.58 
  "/>
<polyline clip-path="url(#clip460)" style="stroke:#000000; stroke-linecap:butt; stroke-linejoin:round; stroke-width:4; stroke-opacity:1; fill:none" points="
  147.478,1006.71 166.376,1006.71 
  "/>
<polyline clip-path="url(#clip460)" style="stroke:#000000; stroke-linecap:butt; stroke-linejoin:round; stroke-width:4; stroke-opacity:1; fill:none" points="
  147.478,766.846 166.376,766.846 
  "/>
<polyline clip-path="url(#clip460)" style="stroke:#000000; stroke-linecap:butt; stroke-linejoin:round; stroke-width:4; stroke-opacity:1; fill:none" points="
  147.478,526.979 166.376,526.979 
  "/>
<polyline clip-path="url(#clip460)" style="stroke:#000000; stroke-linecap:butt; stroke-linejoin:round; stroke-width:4; stroke-opacity:1; fill:none" points="
  147.478,287.111 166.376,287.111 
  "/>
<polyline clip-path="url(#clip460)" style="stroke:#000000; stroke-linecap:butt; stroke-linejoin:round; stroke-width:4; stroke-opacity:1; fill:none" points="
  147.478,47.2441 166.376,47.2441 
  "/>
<path clip-path="url(#clip460)" d="M51.3625 1486.9 L81.0383 1486.9 L81.0383 1490.83 L51.3625 1490.83 L51.3625 1486.9 Z" fill="#000000" fill-rule="evenodd" fill-opacity="1" /><path clip-path="url(#clip460)" d="M95.1586 1499.79 L111.478 1499.79 L111.478 1503.73 L89.5336 1503.73 L89.5336 1499.79 Q92.1956 1497.04 96.7789 1492.41 Q101.385 1487.76 102.566 1486.41 Q104.811 1483.89 105.691 1482.15 Q106.594 1480.39 106.594 1478.7 Q106.594 1475.95 104.649 1474.21 Q102.728 1472.48 99.6261 1472.48 Q97.4271 1472.48 94.9734 1473.24 Q92.5428 1474.01 89.7651 1475.56 L89.7651 1470.83 Q92.5891 1469.7 95.0428 1469.12 Q97.4965 1468.54 99.5335 1468.54 Q104.904 1468.54 108.098 1471.23 Q111.293 1473.91 111.293 1478.4 Q111.293 1480.53 110.483 1482.45 Q109.696 1484.35 107.589 1486.95 Q107.01 1487.62 103.909 1490.83 Q100.807 1494.03 95.1586 1499.79 Z" fill="#000000" fill-rule="evenodd" fill-opacity="1" /><path clip-path="url(#clip460)" d="M50.9921 1247.03 L80.6679 1247.03 L80.6679 1250.97 L50.9921 1250.97 L50.9921 1247.03 Z" fill="#000000" fill-rule="evenodd" fill-opacity="1" /><path clip-path="url(#clip460)" d="M91.5706 1259.93 L99.2095 1259.93 L99.2095 1233.56 L90.8993 1235.23 L90.8993 1230.97 L99.1632 1229.3 L103.839 1229.3 L103.839 1259.93 L111.478 1259.93 L111.478 1263.86 L91.5706 1263.86 L91.5706 1259.93 Z" fill="#000000" fill-rule="evenodd" fill-opacity="1" /><path clip-path="url(#clip460)" d="M99.5335 992.512 Q95.9224 992.512 94.0937 996.077 Q92.2882 999.618 92.2882 1006.75 Q92.2882 1013.85 94.0937 1017.42 Q95.9224 1020.96 99.5335 1020.96 Q103.168 1020.96 104.973 1017.42 Q106.802 1013.85 106.802 1006.75 Q106.802 999.618 104.973 996.077 Q103.168 992.512 99.5335 992.512 M99.5335 988.808 Q105.344 988.808 108.399 993.415 Q111.478 997.998 111.478 1006.75 Q111.478 1015.47 108.399 1020.08 Q105.344 1024.66 99.5335 1024.66 Q93.7234 1024.66 90.6447 1020.08 Q87.5892 1015.47 87.5892 1006.75 Q87.5892 997.998 90.6447 993.415 Q93.7234 988.808 99.5335 988.808 Z" fill="#000000" fill-rule="evenodd" fill-opacity="1" /><path clip-path="url(#clip460)" d="M91.5706 780.191 L99.2095 780.191 L99.2095 753.825 L90.8993 755.492 L90.8993 751.233 L99.1632 749.566 L103.839 749.566 L103.839 780.191 L111.478 780.191 L111.478 784.126 L91.5706 784.126 L91.5706 780.191 Z" fill="#000000" fill-rule="evenodd" fill-opacity="1" /><path clip-path="url(#clip460)" d="M95.1586 540.324 L111.478 540.324 L111.478 544.259 L89.5336 544.259 L89.5336 540.324 Q92.1956 537.569 96.7789 532.939 Q101.385 528.287 102.566 526.944 Q104.811 524.421 105.691 522.685 Q106.594 520.925 106.594 519.236 Q106.594 516.481 104.649 514.745 Q102.728 513.009 99.6261 513.009 Q97.4271 513.009 94.9734 513.773 Q92.5428 514.537 89.7651 516.088 L89.7651 511.365 Q92.5891 510.231 95.0428 509.652 Q97.4965 509.074 99.5335 509.074 Q104.904 509.074 108.098 511.759 Q111.293 514.444 111.293 518.935 Q111.293 521.064 110.483 522.986 Q109.696 524.884 107.589 527.476 Q107.01 528.148 103.909 531.365 Q100.807 534.56 95.1586 540.324 Z" fill="#000000" fill-rule="evenodd" fill-opacity="1" /><path clip-path="url(#clip460)" d="M104.348 285.757 Q107.705 286.475 109.58 288.743 Q111.478 291.012 111.478 294.345 Q111.478 299.461 107.959 302.262 Q104.441 305.063 97.9595 305.063 Q95.7836 305.063 93.4688 304.623 Q91.1771 304.206 88.7234 303.35 L88.7234 298.836 Q90.6678 299.97 92.9826 300.549 Q95.2974 301.128 97.8206 301.128 Q102.219 301.128 104.51 299.391 Q106.825 297.655 106.825 294.345 Q106.825 291.29 104.672 289.577 Q102.543 287.841 98.7234 287.841 L94.6956 287.841 L94.6956 283.998 L98.9085 283.998 Q102.358 283.998 104.186 282.632 Q106.015 281.243 106.015 278.651 Q106.015 275.989 104.117 274.577 Q102.242 273.142 98.7234 273.142 Q96.8021 273.142 94.603 273.558 Q92.4039 273.975 89.7651 274.855 L89.7651 270.688 Q92.4271 269.947 94.7419 269.577 Q97.0798 269.206 99.14 269.206 Q104.464 269.206 107.566 271.637 Q110.668 274.044 110.668 278.165 Q110.668 281.035 109.024 283.026 Q107.381 284.993 104.348 285.757 Z" fill="#000000" fill-rule="evenodd" fill-opacity="1" /><path clip-path="url(#clip460)" d="M101.895 34.0381 L90.0891 52.4871 L101.895 52.4871 L101.895 34.0381 M100.668 29.9641 L106.547 29.9641 L106.547 52.4871 L111.478 52.4871 L111.478 56.376 L106.547 56.376 L106.547 64.5241 L101.895 64.5241 L101.895 56.376 L86.2929 56.376 L86.2929 51.8621 L100.668 29.9641 Z" fill="#000000" fill-rule="evenodd" fill-opacity="1" /><polyline clip-path="url(#clip462)" style="stroke:#009af9; stroke-linecap:butt; stroke-linejoin:round; stroke-width:12; stroke-opacity:1; fill:none" points="
  809.061,526.979 2368.51,766.846 1593.83,846.802 1223.33,858.224 1069.24,858.467 1028.55,858.467 1025.25,858.467 1025.23,858.467 1025.23,858.467 
  
  
  "/>
<circle clip-path="url(#clip462)" cx="809.061" cy="526.979" r="14.4" fill="#009af9" fill-rule="evenodd" fill-opacity="1" stroke="#000000" stroke-opacity="1" stroke-width="3.2"/>
<circle clip-path="url(#clip462)" cx="1593.83" cy="846.802" r="14.4" fill="#009af9" fill-rule="evenodd" fill-opacity="1" stroke="#000000" stroke-opacity="1" stroke-width="3.2"/>
<circle clip-path="url(#clip462)" cx="1223.33" cy="858.224" r="14.4" fill="#009af9" fill-rule="evenodd" fill-opacity="1" stroke="#000000" stroke-opacity="1" stroke-width="3.2"/>
<circle clip-path="url(#clip462)" cx="1069.24" cy="858.467" r="14.4" fill="#009af9" fill-rule="evenodd" fill-opacity="1" stroke="#000000" stroke-opacity="1" stroke-width="3.2"/>
<circle clip-path="url(#clip462)" cx="1028.55" cy="858.467" r="14.4" fill="#009af9" fill-rule="evenodd" fill-opacity="1" stroke="#000000" stroke-opacity="1" stroke-width="3.2"/>
<circle clip-path="url(#clip462)" cx="1025.25" cy="858.467" r="14.4" fill="#009af9" fill-rule="evenodd" fill-opacity="1" stroke="#000000" stroke-opacity="1" stroke-width="3.2"/>
<circle clip-path="url(#clip462)" cx="1025.23" cy="858.467" r="14.4" fill="#009af9" fill-rule="evenodd" fill-opacity="1" stroke="#000000" stroke-opacity="1" stroke-width="3.2"/>
<circle clip-path="url(#clip462)" cx="1025.23" cy="858.467" r="14.4" fill="#009af9" fill-rule="evenodd" fill-opacity="1" stroke="#000000" stroke-opacity="1" stroke-width="3.2"/>
<circle clip-path="url(#clip462)" cx="1025.23" cy="858.467" r="14.4" fill="#009af9" fill-rule="evenodd" fill-opacity="1" stroke="#000000" stroke-opacity="1" stroke-width="3.2"/>
<circle clip-path="url(#clip462)" cx="1025.23" cy="858.467" r="14.4" fill="#009af9" fill-rule="evenodd" fill-opacity="1" stroke="#000000" stroke-opacity="1" stroke-width="3.2"/>
<circle clip-path="url(#clip462)" cx="1025.23" cy="858.467" r="14.4" fill="#009af9" fill-rule="evenodd" fill-opacity="1" stroke="#000000" stroke-opacity="1" stroke-width="3.2"/>
<circle clip-path="url(#clip462)" cx="1025.23" cy="858.467" r="14.4" fill="#009af9" fill-rule="evenodd" fill-opacity="1" stroke="#000000" stroke-opacity="1" stroke-width="3.2"/>
<circle clip-path="url(#clip462)" cx="1025.23" cy="858.467" r="14.4" fill="#009af9" fill-rule="evenodd" fill-opacity="1" stroke="#000000" stroke-opacity="1" stroke-width="3.2"/>
<circle clip-path="url(#clip462)" cx="1025.23" cy="858.467" r="14.4" fill="#009af9" fill-rule="evenodd" fill-opacity="1" stroke="#000000" stroke-opacity="1" stroke-width="3.2"/>
<circle clip-path="url(#clip462)" cx="1025.23" cy="858.467" r="14.4" fill="#009af9" fill-rule="evenodd" fill-opacity="1" stroke="#000000" stroke-opacity="1" stroke-width="3.2"/>
<circle clip-path="url(#clip462)" cx="1025.23" cy="858.467" r="14.4" fill="#009af9" fill-rule="evenodd" fill-opacity="1" stroke="#000000" stroke-opacity="1" stroke-width="3.2"/>
<circle clip-path="url(#clip462)" cx="1025.23" cy="858.467" r="14.4" fill="#009af9" fill-rule="evenodd" fill-opacity="1" stroke="#000000" stroke-opacity="1" stroke-width="3.2"/>
<circle clip-path="url(#clip462)" cx="1025.23" cy="858.467" r="14.4" fill="#009af9" fill-rule="evenodd" fill-opacity="1" stroke="#000000" stroke-opacity="1" stroke-width="3.2"/>
<circle clip-path="url(#clip462)" cx="1025.23" cy="858.467" r="14.4" fill="#009af9" fill-rule="evenodd" fill-opacity="1" stroke="#000000" stroke-opacity="1" stroke-width="3.2"/>
<circle clip-path="url(#clip462)" cx="1025.23" cy="858.467" r="14.4" fill="#009af9" fill-rule="evenodd" fill-opacity="1" stroke="#000000" stroke-opacity="1" stroke-width="3.2"/>
<polyline clip-path="url(#clip462)" style="stroke:#e26f46; stroke-linecap:butt; stroke-linejoin:round; stroke-width:12; stroke-opacity:1; fill:none" points="
  1092.6,1006.71 1090.01,976.04 1082.29,945.87 1069.57,916.699 1052.06,889.006 1030.03,863.246 1003.87,839.842 973.981,819.177 940.872,801.592 905.08,787.376 
  867.195,776.76 827.838,769.921 787.655,766.969 747.306,767.954 707.454,772.86 668.754,781.605 631.839,794.047 597.318,809.981 565.756,829.145 537.672,851.224 
  513.526,875.857 493.716,902.639 478.567,931.129 468.327,960.861 463.165,991.345 463.165,1022.08 468.327,1052.57 478.567,1082.3 493.716,1110.79 513.526,1137.57 
  537.672,1162.2 565.756,1184.28 597.318,1203.45 631.839,1219.38 668.754,1231.82 707.454,1240.57 747.306,1245.47 787.655,1246.46 827.838,1243.51 867.195,1236.67 
  905.08,1226.05 940.872,1211.83 973.981,1194.25 1003.87,1173.58 1030.03,1150.18 1052.06,1124.42 1069.57,1096.73 1082.29,1067.56 1090.01,1037.39 1092.6,1006.71 
  
  "/>
<polyline clip-path="url(#clip462)" style="stroke:#3da44d; stroke-linecap:butt; stroke-linejoin:round; stroke-width:12; stroke-opacity:1; fill:none" points="
  147.478,47.2441 151.067,58.1446 154.657,68.9829 158.246,79.7589 161.835,90.4726 195.025,186.586 228.214,277.376 261.403,362.841 294.592,442.981 334.482,532.259 
  374.373,613.844 408.1,676.823 441.827,734.304 478.464,790.514 515.101,840.236 548.877,880.327 582.653,914.904 618.864,945.85 655.075,970.457 697.03,991.041 
  738.984,1003.12 776.269,1006.71 813.553,1003.58 846.248,995.31 878.943,981.871 914.589,961.332 950.235,934.65 986.093,901.614 1021.95,862.362 1061.6,811.73 
  1101.24,753.5 1138.96,691.043 1176.69,621.708 1215.91,542.322 1255.13,455.5 1288.15,376.65 1321.16,292.531 1361.47,182.689 1401.78,64.9917 1438.71,-49.7188 
  1475.63,-171.02 1509.74,-288.905 1543.84,-412.413 1578.39,-543.254 1612.93,-679.863 1651.65,-839.82 1690.37,-1007.02 1725.45,-1164.79 1760.54,-1328.51 1800.7,-1523.26 
  1840.87,-1725.81 1878.06,-1920.31 1915.26,-2121.49 1951.92,-2326.38 1988.59,-2537.77 2024.19,-2749.23 2059.79,-2966.81 2096.29,-3196.22 2132.78,-3432.07 2172.77,-3697.86 
  2212.75,-3971.38 2270.84,-4382.48 2328.92,-4809.88 2340.84,-4899.58 2352.76,-4989.97 
  "/>
<path clip-path="url(#clip460)" d="
M1981.21 1438.47 L2279.25 1438.47 L2279.25 1231.11 L1981.21 1231.11  Z
  " fill="#ffffff" fill-rule="evenodd" fill-opacity="1"/>
<polyline clip-path="url(#clip460)" style="stroke:#000000; stroke-linecap:butt; stroke-linejoin:round; stroke-width:4; stroke-opacity:1; fill:none" points="
  1981.21,1438.47 2279.25,1438.47 2279.25,1231.11 1981.21,1231.11 1981.21,1438.47 
  "/>
<polyline clip-path="url(#clip460)" style="stroke:#009af9; stroke-linecap:butt; stroke-linejoin:round; stroke-width:4; stroke-opacity:1; fill:none" points="
  2005.71,1282.95 2152.73,1282.95 
  "/>
<circle clip-path="url(#clip460)" cx="2079.22" cy="1282.95" r="23.04" fill="#009af9" fill-rule="evenodd" fill-opacity="1" stroke="#000000" stroke-opacity="1" stroke-width="5.12"/>
<path clip-path="url(#clip460)" d="M2191.07 1302.64 Q2189.27 1307.27 2187.56 1308.68 Q2185.84 1310.1 2182.97 1310.1 L2179.57 1310.1 L2179.57 1306.53 L2182.07 1306.53 Q2183.83 1306.53 2184.8 1305.7 Q2185.77 1304.86 2186.95 1301.76 L2187.72 1299.82 L2177.23 1274.31 L2181.75 1274.31 L2189.85 1294.59 L2197.95 1274.31 L2202.46 1274.31 L2191.07 1302.64 Z" fill="#000000" fill-rule="evenodd" fill-opacity="1" /><path clip-path="url(#clip460)" d="M2209.75 1296.3 L2217.39 1296.3 L2217.39 1269.93 L2209.08 1271.6 L2209.08 1267.34 L2217.35 1265.67 L2222.02 1265.67 L2222.02 1296.3 L2229.66 1296.3 L2229.66 1300.23 L2209.75 1300.23 L2209.75 1296.3 Z" fill="#000000" fill-rule="evenodd" fill-opacity="1" /><polyline clip-path="url(#clip460)" style="stroke:#e26f46; stroke-linecap:butt; stroke-linejoin:round; stroke-width:4; stroke-opacity:1; fill:none" points="
  2005.71,1334.79 2152.73,1334.79 
  "/>
<path clip-path="url(#clip460)" d="M2191.07 1354.48 Q2189.27 1359.11 2187.56 1360.52 Q2185.84 1361.94 2182.97 1361.94 L2179.57 1361.94 L2179.57 1358.37 L2182.07 1358.37 Q2183.83 1358.37 2184.8 1357.54 Q2185.77 1356.7 2186.95 1353.6 L2187.72 1351.66 L2177.23 1326.15 L2181.75 1326.15 L2189.85 1346.43 L2197.95 1326.15 L2202.46 1326.15 L2191.07 1354.48 Z" fill="#000000" fill-rule="evenodd" fill-opacity="1" /><path clip-path="url(#clip460)" d="M2212.97 1348.14 L2229.29 1348.14 L2229.29 1352.07 L2207.35 1352.07 L2207.35 1348.14 Q2210.01 1345.38 2214.59 1340.76 Q2219.2 1336.1 2220.38 1334.76 Q2222.62 1332.24 2223.5 1330.5 Q2224.41 1328.74 2224.41 1327.05 Q2224.41 1324.3 2222.46 1322.56 Q2220.54 1320.82 2217.44 1320.82 Q2215.24 1320.82 2212.79 1321.59 Q2210.36 1322.35 2207.58 1323.9 L2207.58 1319.18 Q2210.4 1318.05 2212.86 1317.47 Q2215.31 1316.89 2217.35 1316.89 Q2222.72 1316.89 2225.91 1319.57 Q2229.11 1322.26 2229.11 1326.75 Q2229.11 1328.88 2228.3 1330.8 Q2227.51 1332.7 2225.4 1335.29 Q2224.82 1335.96 2221.72 1339.18 Q2218.62 1342.38 2212.97 1348.14 Z" fill="#000000" fill-rule="evenodd" fill-opacity="1" /><polyline clip-path="url(#clip460)" style="stroke:#3da44d; stroke-linecap:butt; stroke-linejoin:round; stroke-width:4; stroke-opacity:1; fill:none" points="
  2005.71,1386.63 2152.73,1386.63 
  "/>
<path clip-path="url(#clip460)" d="M2191.07 1406.32 Q2189.27 1410.95 2187.56 1412.36 Q2185.84 1413.78 2182.97 1413.78 L2179.57 1413.78 L2179.57 1410.21 L2182.07 1410.21 Q2183.83 1410.21 2184.8 1409.38 Q2185.77 1408.54 2186.95 1405.44 L2187.72 1403.5 L2177.23 1377.99 L2181.75 1377.99 L2189.85 1398.27 L2197.95 1377.99 L2202.46 1377.99 L2191.07 1406.32 Z" fill="#000000" fill-rule="evenodd" fill-opacity="1" /><path clip-path="url(#clip460)" d="M2223.11 1385.28 Q2226.47 1386 2228.34 1388.27 Q2230.24 1390.53 2230.24 1393.87 Q2230.24 1398.98 2226.72 1401.78 Q2223.2 1404.59 2216.72 1404.59 Q2214.55 1404.59 2212.23 1404.15 Q2209.94 1403.73 2207.49 1402.87 L2207.49 1398.36 Q2209.43 1399.49 2211.75 1400.07 Q2214.06 1400.65 2216.58 1400.65 Q2220.98 1400.65 2223.27 1398.91 Q2225.59 1397.18 2225.59 1393.87 Q2225.59 1390.81 2223.43 1389.1 Q2221.31 1387.36 2217.49 1387.36 L2213.46 1387.36 L2213.46 1383.52 L2217.67 1383.52 Q2221.12 1383.52 2222.95 1382.16 Q2224.78 1380.77 2224.78 1378.17 Q2224.78 1375.51 2222.88 1374.1 Q2221 1372.66 2217.49 1372.66 Q2215.56 1372.66 2213.37 1373.08 Q2211.17 1373.5 2208.53 1374.38 L2208.53 1370.21 Q2211.19 1369.47 2213.5 1369.1 Q2215.84 1368.73 2217.9 1368.73 Q2223.23 1368.73 2226.33 1371.16 Q2229.43 1373.57 2229.43 1377.69 Q2229.43 1380.56 2227.79 1382.55 Q2226.14 1384.52 2223.11 1385.28 Z" fill="#000000" fill-rule="evenodd" fill-opacity="1" /></svg>
