<?xml version="1.0" encoding="utf-8"?>
<svg xmlns="http://www.w3.org/2000/svg" xmlns:xlink="http://www.w3.org/1999/xlink" width="600" height="400" viewBox="0 0 2400 1600">
<defs>
  <clipPath id="clip490">
    <rect x="0" y="0" width="2400" height="1600"/>
  </clipPath>
</defs>
<path clip-path="url(#clip490)" d="
M0 1600 L2400 1600 L2400 0 L0 0  Z
  " fill="#ffffff" fill-rule="evenodd" fill-opacity="1"/>
<defs>
  <clipPath id="clip491">
    <rect x="480" y="0" width="1681" height="1600"/>
  </clipPath>
</defs>
<path clip-path="url(#clip490)" d="
M156.274 1486.45 L2352.76 1486.45 L2352.76 47.2441 L156.274 47.2441  Z
  " fill="#ffffff" fill-rule="evenodd" fill-opacity="1"/>
<defs>
  <clipPath id="clip492">
    <rect x="156" y="47" width="2197" height="1440"/>
  </clipPath>
</defs>
<polyline clip-path="url(#clip492)" style="stroke:#000000; stroke-linecap:butt; stroke-linejoin:round; stroke-width:2; stroke-opacity:0.1; fill:none" points="
  218.439,1486.45 218.439,47.2441 
  "/>
<polyline clip-path="url(#clip492)" style="stroke:#000000; stroke-linecap:butt; stroke-linejoin:round; stroke-width:2; stroke-opacity:0.1; fill:none" points="
  736.477,1486.45 736.477,47.2441 
  "/>
<polyline clip-path="url(#clip492)" style="stroke:#000000; stroke-linecap:butt; stroke-linejoin:round; stroke-width:2; stroke-opacity:0.1; fill:none" points="
  1254.52,1486.45 1254.52,47.2441 
  "/>
<polyline clip-path="url(#clip492)" style="stroke:#000000; stroke-linecap:butt; stroke-linejoin:round; stroke-width:2; stroke-opacity:0.1; fill:none" points="
  1772.55,1486.45 1772.55,47.2441 
  "/>
<polyline clip-path="url(#clip492)" style="stroke:#000000; stroke-linecap:butt; stroke-linejoin:round; stroke-width:2; stroke-opacity:0.1; fill:none" points="
  2290.59,1486.45 2290.59,47.2441 
  "/>
<polyline clip-path="url(#clip490)" style="stroke:#000000; stroke-linecap:butt; stroke-linejoin:round; stroke-width:4; stroke-opacity:1; fill:none" points="
  156.274,1486.45 2352.76,1486.45 
  "/>
<polyline clip-path="url(#clip490)" style="stroke:#000000; stroke-linecap:butt; stroke-linejoin:round; stroke-width:4; stroke-opacity:1; fill:none" points="
  218.439,1486.45 218.439,1467.55 
  "/>
<polyline clip-path="url(#clip490)" style="stroke:#000000; stroke-linecap:butt; stroke-linejoin:round; stroke-width:4; stroke-opacity:1; fill:none" points="
  736.477,1486.45 736.477,1467.55 
  "/>
<polyline clip-path="url(#clip490)" style="stroke:#000000; stroke-linecap:butt; stroke-linejoin:round; stroke-width:4; stroke-opacity:1; fill:none" points="
  1254.52,1486.45 1254.52,1467.55 
  "/>
<polyline clip-path="url(#clip490)" style="stroke:#000000; stroke-linecap:butt; stroke-linejoin:round; stroke-width:4; stroke-opacity:1; fill:none" points="
  1772.55,1486.45 1772.55,1467.55 
  "/>
<polyline clip-path="url(#clip490)" style="stroke:#000000; stroke-linecap:butt; stroke-linejoin:round; stroke-width:4; stroke-opacity:1; fill:none" points="
  2290.59,1486.45 2290.59,1467.55 
  "/>
<path clip-path="url(#clip490)" d="M164.967 1532.02 L194.643 1532.02 L194.643 1535.95 L164.967 1535.95 L164.967 1532.02 Z" fill="#000000" fill-rule="evenodd" fill-opacity="1" /><path clip-path="url(#clip490)" d="M205.545 1544.91 L213.184 1544.91 L213.184 1518.55 L204.874 1520.21 L204.874 1515.95 L213.138 1514.29 L217.814 1514.29 L217.814 1544.91 L225.453 1544.91 L225.453 1548.85 L205.545 1548.85 L205.545 1544.91 Z" fill="#000000" fill-rule="evenodd" fill-opacity="1" /><path clip-path="url(#clip490)" d="M234.897 1542.97 L239.781 1542.97 L239.781 1548.85 L234.897 1548.85 L234.897 1542.97 Z" fill="#000000" fill-rule="evenodd" fill-opacity="1" /><path clip-path="url(#clip490)" d="M259.966 1517.37 Q256.355 1517.37 254.527 1520.93 Q252.721 1524.47 252.721 1531.6 Q252.721 1538.71 254.527 1542.27 Q256.355 1545.82 259.966 1545.82 Q263.601 1545.82 265.406 1542.27 Q267.235 1538.71 267.235 1531.6 Q267.235 1524.47 265.406 1520.93 Q263.601 1517.37 259.966 1517.37 M259.966 1513.66 Q265.776 1513.66 268.832 1518.27 Q271.911 1522.85 271.911 1531.6 Q271.911 1540.33 268.832 1544.94 Q265.776 1549.52 259.966 1549.52 Q254.156 1549.52 251.077 1544.94 Q248.022 1540.33 248.022 1531.6 Q248.022 1522.85 251.077 1518.27 Q254.156 1513.66 259.966 1513.66 Z" fill="#000000" fill-rule="evenodd" fill-opacity="1" /><path clip-path="url(#clip490)" d="M683.503 1532.02 L713.178 1532.02 L713.178 1535.95 L683.503 1535.95 L683.503 1532.02 Z" fill="#000000" fill-rule="evenodd" fill-opacity="1" /><path clip-path="url(#clip490)" d="M733.271 1517.37 Q729.66 1517.37 727.831 1520.93 Q726.026 1524.47 726.026 1531.6 Q726.026 1538.71 727.831 1542.27 Q729.66 1545.82 733.271 1545.82 Q736.905 1545.82 738.711 1542.27 Q740.539 1538.71 740.539 1531.6 Q740.539 1524.47 738.711 1520.93 Q736.905 1517.37 733.271 1517.37 M733.271 1513.66 Q739.081 1513.66 742.137 1518.27 Q745.215 1522.85 745.215 1531.6 Q745.215 1540.33 742.137 1544.94 Q739.081 1549.52 733.271 1549.52 Q727.461 1549.52 724.382 1544.94 Q721.327 1540.33 721.327 1531.6 Q721.327 1522.85 724.382 1518.27 Q727.461 1513.66 733.271 1513.66 Z" fill="#000000" fill-rule="evenodd" fill-opacity="1" /><path clip-path="url(#clip490)" d="M753.433 1542.97 L758.317 1542.97 L758.317 1548.85 L753.433 1548.85 L753.433 1542.97 Z" fill="#000000" fill-rule="evenodd" fill-opacity="1" /><path clip-path="url(#clip490)" d="M768.548 1514.29 L786.905 1514.29 L786.905 1518.22 L772.831 1518.22 L772.831 1526.7 Q773.849 1526.35 774.868 1526.19 Q775.886 1526 776.905 1526 Q782.692 1526 786.072 1529.17 Q789.451 1532.34 789.451 1537.76 Q789.451 1543.34 785.979 1546.44 Q782.507 1549.52 776.187 1549.52 Q774.011 1549.52 771.743 1549.15 Q769.498 1548.78 767.09 1548.04 L767.09 1543.34 Q769.173 1544.47 771.396 1545.03 Q773.618 1545.58 776.095 1545.58 Q780.099 1545.58 782.437 1543.48 Q784.775 1541.37 784.775 1537.76 Q784.775 1534.15 782.437 1532.04 Q780.099 1529.94 776.095 1529.94 Q774.22 1529.94 772.345 1530.35 Q770.493 1530.77 768.548 1531.65 L768.548 1514.29 Z" fill="#000000" fill-rule="evenodd" fill-opacity="1" /><path clip-path="url(#clip490)" d="M1231.9 1517.37 Q1228.29 1517.37 1226.46 1520.93 Q1224.65 1524.47 1224.65 1531.6 Q1224.65 1538.71 1226.46 1542.27 Q1228.29 1545.82 1231.9 1545.82 Q1235.53 1545.82 1237.34 1542.27 Q1239.17 1538.71 1239.17 1531.6 Q1239.17 1524.47 1237.34 1520.93 Q1235.53 1517.37 1231.9 1517.37 M1231.9 1513.66 Q1237.71 1513.66 1240.77 1518.27 Q1243.84 1522.85 1243.84 1531.6 Q1243.84 1540.33 1240.77 1544.94 Q1237.71 1549.52 1231.9 1549.52 Q1226.09 1549.52 1223.01 1544.94 Q1219.96 1540.33 1219.96 1531.6 Q1219.96 1522.85 1223.01 1518.27 Q1226.09 1513.66 1231.9 1513.66 Z" fill="#000000" fill-rule="evenodd" fill-opacity="1" /><path clip-path="url(#clip490)" d="M1252.06 1542.97 L1256.95 1542.97 L1256.95 1548.85 L1252.06 1548.85 L1252.06 1542.97 Z" fill="#000000" fill-rule="evenodd" fill-opacity="1" /><path clip-path="url(#clip490)" d="M1277.13 1517.37 Q1273.52 1517.37 1271.69 1520.93 Q1269.89 1524.47 1269.89 1531.6 Q1269.89 1538.71 1271.69 1542.27 Q1273.52 1545.82 1277.13 1545.82 Q1280.76 1545.82 1282.57 1542.27 Q1284.4 1538.71 1284.4 1531.6 Q1284.4 1524.47 1282.57 1520.93 Q1280.76 1517.37 1277.13 1517.37 M1277.13 1513.66 Q1282.94 1513.66 1286 1518.27 Q1289.08 1522.85 1289.08 1531.6 Q1289.08 1540.33 1286 1544.94 Q1282.94 1549.52 1277.13 1549.52 Q1271.32 1549.52 1268.24 1544.94 Q1265.19 1540.33 1265.19 1531.6 Q1265.19 1522.85 1268.24 1518.27 Q1271.32 1513.66 1277.13 1513.66 Z" fill="#000000" fill-rule="evenodd" fill-opacity="1" /><path clip-path="url(#clip490)" d="M1750.44 1517.37 Q1746.82 1517.37 1745 1520.93 Q1743.19 1524.47 1743.19 1531.6 Q1743.19 1538.71 1745 1542.27 Q1746.82 1545.82 1750.44 1545.82 Q1754.07 1545.82 1755.88 1542.27 Q1757.7 1538.71 1757.7 1531.6 Q1757.7 1524.47 1755.88 1520.93 Q1754.07 1517.37 1750.44 1517.37 M1750.44 1513.66 Q1756.25 1513.66 1759.3 1518.27 Q1762.38 1522.85 1762.38 1531.6 Q1762.38 1540.33 1759.3 1544.94 Q1756.25 1549.52 1750.44 1549.52 Q1744.63 1549.52 1741.55 1544.94 Q1738.49 1540.33 1738.49 1531.6 Q1738.49 1522.85 1741.55 1518.27 Q1744.63 1513.66 1750.44 1513.66 Z" fill="#000000" fill-rule="evenodd" fill-opacity="1" /><path clip-path="url(#clip490)" d="M1770.6 1542.97 L1775.48 1542.97 L1775.48 1548.85 L1770.6 1548.85 L1770.6 1542.97 Z" fill="#000000" fill-rule="evenodd" fill-opacity="1" /><path clip-path="url(#clip490)" d="M1785.71 1514.29 L1804.07 1514.29 L1804.07 1518.22 L1790 1518.22 L1790 1526.7 Q1791.01 1526.35 1792.03 1526.19 Q1793.05 1526 1794.07 1526 Q1799.86 1526 1803.24 1529.17 Q1806.62 1532.34 1806.62 1537.76 Q1806.62 1543.34 1803.14 1546.44 Q1799.67 1549.52 1793.35 1549.52 Q1791.18 1549.52 1788.91 1549.15 Q1786.66 1548.78 1784.25 1548.04 L1784.25 1543.34 Q1786.34 1544.47 1788.56 1545.03 Q1790.78 1545.58 1793.26 1545.58 Q1797.26 1545.58 1799.6 1543.48 Q1801.94 1541.37 1801.94 1537.76 Q1801.94 1534.15 1799.6 1532.04 Q1797.26 1529.94 1793.26 1529.94 Q1791.38 1529.94 1789.51 1530.35 Q1787.66 1530.77 1785.71 1531.65 L1785.71 1514.29 Z" fill="#000000" fill-rule="evenodd" fill-opacity="1" /><path clip-path="url(#clip490)" d="M2257.74 1544.91 L2265.38 1544.91 L2265.38 1518.55 L2257.07 1520.21 L2257.07 1515.95 L2265.34 1514.29 L2270.01 1514.29 L2270.01 1544.91 L2277.65 1544.91 L2277.65 1548.85 L2257.74 1548.85 L2257.74 1544.91 Z" fill="#000000" fill-rule="evenodd" fill-opacity="1" /><path clip-path="url(#clip490)" d="M2287.1 1542.97 L2291.98 1542.97 L2291.98 1548.85 L2287.1 1548.85 L2287.1 1542.97 Z" fill="#000000" fill-rule="evenodd" fill-opacity="1" /><path clip-path="url(#clip490)" d="M2312.17 1517.37 Q2308.55 1517.37 2306.73 1520.93 Q2304.92 1524.47 2304.92 1531.6 Q2304.92 1538.71 2306.73 1542.27 Q2308.55 1545.82 2312.17 1545.82 Q2315.8 1545.82 2317.61 1542.27 Q2319.43 1538.71 2319.43 1531.6 Q2319.43 1524.47 2317.61 1520.93 Q2315.8 1517.37 2312.17 1517.37 M2312.17 1513.66 Q2317.98 1513.66 2321.03 1518.27 Q2324.11 1522.85 2324.11 1531.6 Q2324.11 1540.33 2321.03 1544.94 Q2317.98 1549.52 2312.17 1549.52 Q2306.36 1549.52 2303.28 1544.94 Q2300.22 1540.33 2300.22 1531.6 Q2300.22 1522.85 2303.28 1518.27 Q2306.36 1513.66 2312.17 1513.66 Z" fill="#000000" fill-rule="evenodd" fill-opacity="1" /><polyline clip-path="url(#clip492)" style="stroke:#000000; stroke-linecap:butt; stroke-linejoin:round; stroke-width:2; stroke-opacity:0.1; fill:none" points="
  156.274,1202.3 2352.76,1202.3 
  "/>
<polyline clip-path="url(#clip492)" style="stroke:#000000; stroke-linecap:butt; stroke-linejoin:round; stroke-width:2; stroke-opacity:0.1; fill:none" points="
  156.274,874.158 2352.76,874.158 
  "/>
<polyline clip-path="url(#clip492)" style="stroke:#000000; stroke-linecap:butt; stroke-linejoin:round; stroke-width:2; stroke-opacity:0.1; fill:none" points="
  156.274,546.016 2352.76,546.016 
  "/>
<polyline clip-path="url(#clip492)" style="stroke:#000000; stroke-linecap:butt; stroke-linejoin:round; stroke-width:2; stroke-opacity:0.1; fill:none" points="
  156.274,217.874 2352.76,217.874 
  "/>
<polyline clip-path="url(#clip490)" style="stroke:#000000; stroke-linecap:butt; stroke-linejoin:round; stroke-width:4; stroke-opacity:1; fill:none" points="
  156.274,1486.45 156.274,47.2441 
  "/>
<polyline clip-path="url(#clip490)" style="stroke:#000000; stroke-linecap:butt; stroke-linejoin:round; stroke-width:4; stroke-opacity:1; fill:none" points="
  156.274,1202.3 175.172,1202.3 
  "/>
<polyline clip-path="url(#clip490)" style="stroke:#000000; stroke-linecap:butt; stroke-linejoin:round; stroke-width:4; stroke-opacity:1; fill:none" points="
  156.274,874.158 175.172,874.158 
  "/>
<polyline clip-path="url(#clip490)" style="stroke:#000000; stroke-linecap:butt; stroke-linejoin:round; stroke-width:4; stroke-opacity:1; fill:none" points="
  156.274,546.016 175.172,546.016 
  "/>
<polyline clip-path="url(#clip490)" style="stroke:#000000; stroke-linecap:butt; stroke-linejoin:round; stroke-width:4; stroke-opacity:1; fill:none" points="
  156.274,217.874 175.172,217.874 
  "/>
<path clip-path="url(#clip490)" d="M63.0985 1188.1 Q59.4875 1188.1 57.6588 1191.66 Q55.8532 1195.21 55.8532 1202.33 Q55.8532 1209.44 57.6588 1213.01 Q59.4875 1216.55 63.0985 1216.55 Q66.7328 1216.55 68.5383 1213.01 Q70.367 1209.44 70.367 1202.33 Q70.367 1195.21 68.5383 1191.66 Q66.7328 1188.1 63.0985 1188.1 M63.0985 1184.4 Q68.9087 1184.4 71.9642 1189 Q75.0429 1193.58 75.0429 1202.33 Q75.0429 1211.06 71.9642 1215.67 Q68.9087 1220.25 63.0985 1220.25 Q57.2884 1220.25 54.2097 1215.67 Q51.1542 1211.06 51.1542 1202.33 Q51.1542 1193.58 54.2097 1189 Q57.2884 1184.4 63.0985 1184.4 Z" fill="#000000" fill-rule="evenodd" fill-opacity="1" /><path clip-path="url(#clip490)" d="M83.2605 1213.7 L88.1447 1213.7 L88.1447 1219.58 L83.2605 1219.58 L83.2605 1213.7 Z" fill="#000000" fill-rule="evenodd" fill-opacity="1" /><path clip-path="url(#clip490)" d="M108.33 1188.1 Q104.719 1188.1 102.89 1191.66 Q101.084 1195.21 101.084 1202.33 Q101.084 1209.44 102.89 1213.01 Q104.719 1216.55 108.33 1216.55 Q111.964 1216.55 113.77 1213.01 Q115.598 1209.44 115.598 1202.33 Q115.598 1195.21 113.77 1191.66 Q111.964 1188.1 108.33 1188.1 M108.33 1184.4 Q114.14 1184.4 117.195 1189 Q120.274 1193.58 120.274 1202.33 Q120.274 1211.06 117.195 1215.67 Q114.14 1220.25 108.33 1220.25 Q102.52 1220.25 99.4409 1215.67 Q96.3854 1211.06 96.3854 1202.33 Q96.3854 1193.58 99.4409 1189 Q102.52 1184.4 108.33 1184.4 Z" fill="#000000" fill-rule="evenodd" fill-opacity="1" /><path clip-path="url(#clip490)" d="M63.7467 859.957 Q60.1356 859.957 58.3069 863.521 Q56.5014 867.063 56.5014 874.193 Q56.5014 881.299 58.3069 884.864 Q60.1356 888.406 63.7467 888.406 Q67.3809 888.406 69.1865 884.864 Q71.0152 881.299 71.0152 874.193 Q71.0152 867.063 69.1865 863.521 Q67.3809 859.957 63.7467 859.957 M63.7467 856.253 Q69.5568 856.253 72.6124 860.859 Q75.6911 865.443 75.6911 874.193 Q75.6911 882.919 72.6124 887.526 Q69.5568 892.109 63.7467 892.109 Q57.9365 892.109 54.8578 887.526 Q51.8023 882.919 51.8023 874.193 Q51.8023 865.443 54.8578 860.859 Q57.9365 856.253 63.7467 856.253 Z" fill="#000000" fill-rule="evenodd" fill-opacity="1" /><path clip-path="url(#clip490)" d="M83.9086 885.558 L88.7928 885.558 L88.7928 891.438 L83.9086 891.438 L83.9086 885.558 Z" fill="#000000" fill-rule="evenodd" fill-opacity="1" /><path clip-path="url(#clip490)" d="M113.145 872.804 Q116.501 873.521 118.376 875.79 Q120.274 878.058 120.274 881.392 Q120.274 886.507 116.756 889.308 Q113.237 892.109 106.756 892.109 Q104.58 892.109 102.265 891.669 Q99.9733 891.253 97.5197 890.396 L97.5197 885.882 Q99.4641 887.017 101.779 887.595 Q104.094 888.174 106.617 888.174 Q111.015 888.174 113.307 886.438 Q115.621 884.702 115.621 881.392 Q115.621 878.336 113.469 876.623 Q111.339 874.887 107.52 874.887 L103.492 874.887 L103.492 871.045 L107.705 871.045 Q111.154 871.045 112.983 869.679 Q114.811 868.29 114.811 865.697 Q114.811 863.035 112.913 861.623 Q111.038 860.188 107.52 860.188 Q105.598 860.188 103.399 860.605 Q101.2 861.021 98.5613 861.901 L98.5613 857.734 Q101.223 856.994 103.538 856.623 Q105.876 856.253 107.936 856.253 Q113.26 856.253 116.362 858.683 Q119.464 861.091 119.464 865.211 Q119.464 868.082 117.82 870.072 Q116.177 872.04 113.145 872.804 Z" fill="#000000" fill-rule="evenodd" fill-opacity="1" /><path clip-path="url(#clip490)" d="M62.9365 531.814 Q59.3254 531.814 57.4967 535.379 Q55.6912 538.921 55.6912 546.05 Q55.6912 553.157 57.4967 556.722 Q59.3254 560.263 62.9365 560.263 Q66.5707 560.263 68.3763 556.722 Q70.205 553.157 70.205 546.05 Q70.205 538.921 68.3763 535.379 Q66.5707 531.814 62.9365 531.814 M62.9365 528.111 Q68.7467 528.111 71.8022 532.717 Q74.8809 537.3 74.8809 546.05 Q74.8809 554.777 71.8022 559.384 Q68.7467 563.967 62.9365 563.967 Q57.1264 563.967 54.0477 559.384 Q50.9921 554.777 50.9921 546.05 Q50.9921 537.3 54.0477 532.717 Q57.1264 528.111 62.9365 528.111 Z" fill="#000000" fill-rule="evenodd" fill-opacity="1" /><path clip-path="url(#clip490)" d="M83.0984 557.416 L87.9827 557.416 L87.9827 563.296 L83.0984 563.296 L83.0984 557.416 Z" fill="#000000" fill-rule="evenodd" fill-opacity="1" /><path clip-path="url(#clip490)" d="M108.746 544.152 Q105.598 544.152 103.746 546.305 Q101.918 548.458 101.918 552.208 Q101.918 555.935 103.746 558.111 Q105.598 560.263 108.746 560.263 Q111.895 560.263 113.723 558.111 Q115.575 555.935 115.575 552.208 Q115.575 548.458 113.723 546.305 Q111.895 544.152 108.746 544.152 M118.029 529.5 L118.029 533.759 Q116.27 532.926 114.464 532.486 Q112.682 532.046 110.922 532.046 Q106.293 532.046 103.839 535.171 Q101.409 538.296 101.061 544.615 Q102.427 542.601 104.487 541.537 Q106.547 540.449 109.024 540.449 Q114.233 540.449 117.242 543.62 Q120.274 546.768 120.274 552.208 Q120.274 557.532 117.126 560.749 Q113.978 563.967 108.746 563.967 Q102.751 563.967 99.5798 559.384 Q96.4085 554.777 96.4085 546.05 Q96.4085 537.856 100.297 532.995 Q104.186 528.111 110.737 528.111 Q112.496 528.111 114.279 528.458 Q116.084 528.805 118.029 529.5 Z" fill="#000000" fill-rule="evenodd" fill-opacity="1" /><path clip-path="url(#clip490)" d="M63.2837 203.672 Q59.6726 203.672 57.8439 207.237 Q56.0384 210.779 56.0384 217.908 Q56.0384 225.015 57.8439 228.579 Q59.6726 232.121 63.2837 232.121 Q66.918 232.121 68.7235 228.579 Q70.5522 225.015 70.5522 217.908 Q70.5522 210.779 68.7235 207.237 Q66.918 203.672 63.2837 203.672 M63.2837 199.969 Q69.0939 199.969 72.1494 204.575 Q75.2281 209.158 75.2281 217.908 Q75.2281 226.635 72.1494 231.242 Q69.0939 235.825 63.2837 235.825 Q57.4736 235.825 54.3949 231.242 Q51.3393 226.635 51.3393 217.908 Q51.3393 209.158 54.3949 204.575 Q57.4736 199.969 63.2837 199.969 Z" fill="#000000" fill-rule="evenodd" fill-opacity="1" /><path clip-path="url(#clip490)" d="M83.4457 229.274 L88.3299 229.274 L88.3299 235.154 L83.4457 235.154 L83.4457 229.274 Z" fill="#000000" fill-rule="evenodd" fill-opacity="1" /><path clip-path="url(#clip490)" d="M98.6539 234.436 L98.6539 230.177 Q100.413 231.01 102.219 231.45 Q104.024 231.89 105.76 231.89 Q110.39 231.89 112.82 228.788 Q115.274 225.663 115.621 219.32 Q114.279 221.311 112.219 222.376 Q110.158 223.441 107.658 223.441 Q102.473 223.441 99.4409 220.316 Q96.4317 217.168 96.4317 211.728 Q96.4317 206.404 99.5798 203.186 Q102.728 199.969 107.959 199.969 Q113.955 199.969 117.103 204.575 Q120.274 209.158 120.274 217.908 Q120.274 226.08 116.385 230.964 Q112.52 235.825 105.969 235.825 Q104.209 235.825 102.404 235.478 Q100.598 235.13 98.6539 234.436 M107.959 219.783 Q111.108 219.783 112.936 217.63 Q114.788 215.478 114.788 211.728 Q114.788 208.001 112.936 205.848 Q111.108 203.672 107.959 203.672 Q104.811 203.672 102.959 205.848 Q101.131 208.001 101.131 211.728 Q101.131 215.478 102.959 217.63 Q104.811 219.783 107.959 219.783 Z" fill="#000000" fill-rule="evenodd" fill-opacity="1" /><polyline clip-path="url(#clip492)" style="stroke:#009af9; stroke-linecap:butt; stroke-linejoin:round; stroke-width:12; stroke-opacity:1; fill:none" points="
  218.439,108.493 239.37,226.277 260.3,336.741 281.231,440.148 302.162,536.757 323.093,626.825 344.024,710.601 364.955,788.333 385.885,860.262 406.816,926.626 
  427.747,987.658 448.678,1043.59 469.609,1094.64 490.54,1141.04 511.47,1182.99 532.401,1220.71 553.332,1254.41 574.263,1284.29 595.194,1310.55 616.125,1333.38 
  637.055,1352.98 657.986,1369.52 678.917,1383.18 699.848,1394.16 720.779,1402.61 741.71,1408.7 762.64,1412.6 783.571,1414.47 804.502,1414.46 825.433,1412.73 
  846.364,1409.41 867.295,1404.65 888.225,1398.59 909.156,1391.35 930.087,1383.08 951.018,1373.89 971.949,1363.89 992.88,1353.22 1013.81,1341.97 1034.74,1330.26 
  1055.67,1318.19 1076.6,1305.85 1097.53,1293.34 1118.46,1280.74 1139.4,1268.15 1160.33,1255.64 1181.26,1243.29 1202.19,1231.17 1223.12,1219.34 1244.05,1207.88 
  1264.98,1196.83 1285.91,1186.26 1306.84,1176.21 1327.77,1166.72 1348.7,1157.85 1369.63,1149.62 1390.57,1142.07 1411.5,1135.22 1432.43,1129.1 1453.36,1123.73 
  1474.29,1119.12 1495.22,1115.29 1516.15,1112.23 1537.08,1109.96 1558.01,1108.46 1578.94,1107.74 1599.87,1107.77 1620.8,1108.55 1641.74,1110.05 1662.67,1112.25 
  1683.6,1115.12 1704.53,1118.63 1725.46,1122.74 1746.39,1127.4 1767.32,1132.57 1788.25,1138.2 1809.18,1144.24 1830.11,1150.62 1851.04,1157.28 1871.97,1164.15 
  1892.91,1171.17 1913.84,1178.24 1934.77,1185.3 1955.7,1192.25 1976.63,1199.01 1997.56,1205.48 2018.49,1211.56 2039.42,1217.15 2060.35,1222.14 2081.28,1226.42 
  2102.21,1229.87 2123.14,1232.37 2144.08,1233.8 2165.01,1234.02 2185.94,1232.91 2206.87,1230.32 2227.8,1226.12 2248.73,1220.15 2269.66,1212.26 2290.59,1202.3 
  
  "/>
<polyline clip-path="url(#clip492)" style="stroke:#e26f46; stroke-linecap:butt; stroke-linejoin:round; stroke-width:12; stroke-opacity:1; fill:none" points="
  218.439,1202.3 239.37,1057.69 260.3,925.282 281.231,804.594 302.162,695.134 323.093,596.423 344.024,507.991 364.955,429.377 385.885,360.128 406.816,299.8 
  427.747,247.959 448.678,204.177 469.609,168.038 490.54,139.133 511.47,117.061 532.401,101.431 553.332,91.8609 574.263,87.9763 595.194,89.4122 616.125,95.8124 
  637.055,106.829 657.986,122.124 678.917,141.366 699.848,164.234 720.779,190.416 741.71,219.607 762.64,251.513 783.571,285.847 804.502,322.332 825.433,360.698 
  846.364,400.685 867.295,442.043 888.225,484.527 909.156,527.905 930.087,571.952 951.018,616.449 971.949,661.191 992.88,705.978 1013.81,750.62 1034.74,794.935 
  1055.67,838.751 1076.6,881.904 1097.53,924.237 1118.46,965.606 1139.4,1005.87 1160.33,1044.91 1181.26,1082.59 1202.19,1118.81 1223.12,1153.46 1244.05,1186.45 
  1264.98,1217.7 1285.91,1247.13 1306.84,1274.66 1327.77,1300.25 1348.7,1323.83 1369.63,1345.38 1390.57,1364.85 1411.5,1382.23 1432.43,1397.49 1453.36,1410.63 
  1474.29,1421.66 1495.22,1430.58 1516.15,1437.41 1537.08,1442.18 1558.01,1444.94 1578.94,1445.72 1599.87,1444.57 1620.8,1441.57 1641.74,1436.79 1662.67,1430.3 
  1683.6,1422.2 1704.53,1412.58 1725.46,1401.55 1746.39,1389.23 1767.32,1375.74 1788.25,1361.22 1809.18,1345.8 1830.11,1329.64 1851.04,1312.9 1871.97,1295.74 
  1892.91,1278.35 1913.84,1260.9 1934.77,1243.6 1955.7,1226.64 1976.63,1210.25 1997.56,1194.63 2018.49,1180.02 2039.42,1166.66 2060.35,1154.8 2081.28,1144.68 
  2102.21,1136.58 2123.14,1130.76 2144.08,1127.52 2165.01,1127.14 2185.94,1129.91 2206.87,1136.16 2227.8,1146.19 2248.73,1160.33 2269.66,1178.92 2290.59,1202.3 
  
  "/>
<polyline clip-path="url(#clip492)" style="stroke:#3da44d; stroke-linecap:butt; stroke-linejoin:round; stroke-width:12; stroke-opacity:1; fill:none" points="
  218.439,1202.3 239.37,1242.55 260.3,1275.19 281.231,1300.64 302.162,1319.32 323.093,1331.62 344.024,1337.94 364.955,1338.67 385.885,1334.17 406.816,1324.82 
  427.747,1310.98 448.678,1292.99 469.609,1271.2 490.54,1245.94 511.47,1217.53 532.401,1186.29 553.332,1152.52 574.263,1116.52 595.194,1078.58 616.125,1038.98 
  637.055,997.993 657.986,955.876 678.917,912.885 699.848,869.266 720.779,825.253 741.71,781.074 762.64,736.949 783.571,693.087 804.502,649.689 825.433,606.947 
  846.364,565.046 867.295,524.159 888.225,484.454 909.156,446.088 930.087,409.208 951.018,373.956 971.949,340.463 992.88,308.85 1013.81,279.232 1034.74,251.713 
  1055.67,226.389 1076.6,203.349 1097.53,182.671 1118.46,164.424 1139.4,148.671 1160.33,135.463 1181.26,124.844 1202.19,116.849 1223.12,111.504 1244.05,108.828 
  1264.98,108.828 1285.91,111.504 1306.84,116.849 1327.77,124.844 1348.7,135.463 1369.63,148.671 1390.57,164.424 1411.5,182.671 1432.43,203.349 1453.36,226.389 
  1474.29,251.713 1495.22,279.232 1516.15,308.85 1537.08,340.463 1558.01,373.956 1578.94,409.208 1599.87,446.088 1620.8,484.454 1641.74,524.159 1662.67,565.046 
  1683.6,606.947 1704.53,649.689 1725.46,693.087 1746.39,736.949 1767.32,781.074 1788.25,825.253 1809.18,869.266 1830.11,912.885 1851.04,955.876 1871.97,997.993 
  1892.91,1038.98 1913.84,1078.58 1934.77,1116.52 1955.7,1152.52 1976.63,1186.29 1997.56,1217.53 2018.49,1245.94 2039.42,1271.2 2060.35,1292.99 2081.28,1310.98 
  2102.21,1324.82 2123.14,1334.17 2144.08,1338.67 2165.01,1337.94 2185.94,1331.62 2206.87,1319.32 2227.8,1300.64 2248.73,1275.19 2269.66,1242.55 2290.59,1202.3 
  
  "/>
<polyline clip-path="url(#clip492)" style="stroke:#c271d2; stroke-linecap:butt; stroke-linejoin:round; stroke-width:12; stroke-opacity:1; fill:none" points="
  218.439,1202.3 239.37,1178.92 260.3,1160.33 281.231,1146.19 302.162,1136.16 323.093,1129.91 344.024,1127.14 364.955,1127.52 385.885,1130.76 406.816,1136.58 
  427.747,1144.68 448.678,1154.8 469.609,1166.66 490.54,1180.02 511.47,1194.63 532.401,1210.25 553.332,1226.64 574.263,1243.6 595.194,1260.9 616.125,1278.35 
  637.055,1295.74 657.986,1312.9 678.917,1329.64 699.848,1345.8 720.779,1361.22 741.71,1375.74 762.64,1389.23 783.571,1401.55 804.502,1412.58 825.433,1422.2 
  846.364,1430.3 867.295,1436.79 888.225,1441.57 909.156,1444.57 930.087,1445.72 951.018,1444.94 971.949,1442.18 992.88,1437.41 1013.81,1430.58 1034.74,1421.66 
  1055.67,1410.63 1076.6,1397.49 1097.53,1382.23 1118.46,1364.85 1139.4,1345.38 1160.33,1323.83 1181.26,1300.25 1202.19,1274.66 1223.12,1247.13 1244.05,1217.7 
  1264.98,1186.45 1285.91,1153.46 1306.84,1118.81 1327.77,1082.59 1348.7,1044.91 1369.63,1005.87 1390.57,965.606 1411.5,924.237 1432.43,881.904 1453.36,838.751 
  1474.29,794.935 1495.22,750.62 1516.15,705.978 1537.08,661.191 1558.01,616.449 1578.94,571.952 1599.87,527.905 1620.8,484.527 1641.74,442.043 1662.67,400.685 
  1683.6,360.698 1704.53,322.332 1725.46,285.847 1746.39,251.513 1767.32,219.607 1788.25,190.416 1809.18,164.234 1830.11,141.366 1851.04,122.124 1871.97,106.829 
  1892.91,95.8124 1913.84,89.4122 1934.77,87.9763 1955.7,91.8609 1976.63,101.431 1997.56,117.061 2018.49,139.133 2039.42,168.038 2060.35,204.177 2081.28,247.959 
  2102.21,299.8 2123.14,360.128 2144.08,429.377 2165.01,507.991 2185.94,596.423 2206.87,695.134 2227.8,804.594 2248.73,925.282 2269.66,1057.69 2290.59,1202.3 
  
  "/>
<polyline clip-path="url(#clip492)" style="stroke:#ac8d18; stroke-linecap:butt; stroke-linejoin:round; stroke-width:12; stroke-opacity:1; fill:none" points="
  218.439,1202.3 239.37,1212.26 260.3,1220.15 281.231,1226.12 302.162,1230.32 323.093,1232.91 344.024,1234.02 364.955,1233.8 385.885,1232.37 406.816,1229.87 
  427.747,1226.42 448.678,1222.14 469.609,1217.15 490.54,1211.56 511.47,1205.48 532.401,1199.01 553.332,1192.25 574.263,1185.3 595.194,1178.24 616.125,1171.17 
  637.055,1164.15 657.986,1157.28 678.917,1150.62 699.848,1144.24 720.779,1138.2 741.71,1132.57 762.64,1127.4 783.571,1122.74 804.502,1118.63 825.433,1115.12 
  846.364,1112.25 867.295,1110.05 888.225,1108.55 909.156,1107.77 930.087,1107.74 951.018,1108.46 971.949,1109.96 992.88,1112.23 1013.81,1115.29 1034.74,1119.12 
  1055.67,1123.73 1076.6,1129.1 1097.53,1135.22 1118.46,1142.07 1139.4,1149.62 1160.33,1157.85 1181.26,1166.72 1202.19,1176.21 1223.12,1186.26 1244.05,1196.83 
  1264.98,1207.88 1285.91,1219.34 1306.84,1231.17 1327.77,1243.29 1348.7,1255.64 1369.63,1268.15 1390.57,1280.74 1411.5,1293.34 1432.43,1305.85 1453.36,1318.19 
  1474.29,1330.26 1495.22,1341.97 1516.15,1353.22 1537.08,1363.89 1558.01,1373.89 1578.94,1383.08 1599.87,1391.35 1620.8,1398.59 1641.74,1404.65 1662.67,1409.41 
  1683.6,1412.73 1704.53,1414.46 1725.46,1414.47 1746.39,1412.6 1767.32,1408.7 1788.25,1402.61 1809.18,1394.16 1830.11,1383.18 1851.04,1369.52 1871.97,1352.98 
  1892.91,1333.38 1913.84,1310.55 1934.77,1284.29 1955.7,1254.41 1976.63,1220.71 1997.56,1182.99 2018.49,1141.04 2039.42,1094.64 2060.35,1043.59 2081.28,987.658 
  2102.21,926.626 2123.14,860.262 2144.08,788.333 2165.01,710.601 2185.94,626.825 2206.87,536.757 2227.8,440.148 2248.73,336.741 2269.66,226.277 2290.59,108.493 
  
  "/>
<circle clip-path="url(#clip492)" cx="218.439" cy="108.493" r="14.4" fill="#00a9ad" fill-rule="evenodd" fill-opacity="1" stroke="#000000" stroke-opacity="1" stroke-width="3.2"/>
<circle clip-path="url(#clip492)" cx="521.898" cy="108.493" r="14.4" fill="#00a9ad" fill-rule="evenodd" fill-opacity="1" stroke="#000000" stroke-opacity="1" stroke-width="3.2"/>
<circle clip-path="url(#clip492)" cx="1254.52" cy="108.493" r="14.4" fill="#00a9ad" fill-rule="evenodd" fill-opacity="1" stroke="#000000" stroke-opacity="1" stroke-width="3.2"/>
<circle clip-path="url(#clip492)" cx="1987.13" cy="108.493" r="14.4" fill="#00a9ad" fill-rule="evenodd" fill-opacity="1" stroke="#000000" stroke-opacity="1" stroke-width="3.2"/>
<circle clip-path="url(#clip492)" cx="2290.59" cy="108.493" r="14.4" fill="#00a9ad" fill-rule="evenodd" fill-opacity="1" stroke="#000000" stroke-opacity="1" stroke-width="3.2"/>
<circle clip-path="url(#clip492)" cx="218.439" cy="1202.3" r="14.4" fill="#ed5d92" fill-rule="evenodd" fill-opacity="1" stroke="#000000" stroke-opacity="1" stroke-width="3.2"/>
<circle clip-path="url(#clip492)" cx="521.898" cy="1202.3" r="14.4" fill="#ed5d92" fill-rule="evenodd" fill-opacity="1" stroke="#000000" stroke-opacity="1" stroke-width="3.2"/>
<circle clip-path="url(#clip492)" cx="1254.52" cy="1202.3" r="14.4" fill="#ed5d92" fill-rule="evenodd" fill-opacity="1" stroke="#000000" stroke-opacity="1" stroke-width="3.2"/>
<circle clip-path="url(#clip492)" cx="1987.13" cy="1202.3" r="14.4" fill="#ed5d92" fill-rule="evenodd" fill-opacity="1" stroke="#000000" stroke-opacity="1" stroke-width="3.2"/>
<circle clip-path="url(#clip492)" cx="2290.59" cy="1202.3" r="14.4" fill="#ed5d92" fill-rule="evenodd" fill-opacity="1" stroke="#000000" stroke-opacity="1" stroke-width="3.2"/>
<path clip-path="url(#clip490)" d="
M1981.34 509.938 L2279.54 509.938 L2279.54 95.2176 L1981.34 95.2176  Z
  " fill="#ffffff" fill-rule="evenodd" fill-opacity="1"/>
<polyline clip-path="url(#clip490)" style="stroke:#000000; stroke-linecap:butt; stroke-linejoin:round; stroke-width:4; stroke-opacity:1; fill:none" points="
  1981.34,509.938 2279.54,509.938 2279.54,95.2176 1981.34,95.2176 1981.34,509.938 
  "/>
<polyline clip-path="url(#clip490)" style="stroke:#009af9; stroke-linecap:butt; stroke-linejoin:round; stroke-width:4; stroke-opacity:1; fill:none" points="
  2005.75,147.058 2152.18,147.058 
  "/>
<path clip-path="url(#clip490)" d="M2190.43 166.745 Q2188.62 171.375 2186.91 172.787 Q2185.2 174.199 2182.33 174.199 L2178.92 174.199 L2178.92 170.634 L2181.42 170.634 Q2183.18 170.634 2184.16 169.8 Q2185.13 168.967 2186.31 165.865 L2187.07 163.921 L2176.59 138.412 L2181.1 138.412 L2189.2 158.689 L2197.3 138.412 L2201.82 138.412 L2190.43 166.745 Z" fill="#000000" fill-rule="evenodd" fill-opacity="1" /><path clip-path="url(#clip490)" d="M2209.11 160.402 L2216.75 160.402 L2216.75 134.037 L2208.44 135.703 L2208.44 131.444 L2216.7 129.778 L2221.38 129.778 L2221.38 160.402 L2229.02 160.402 L2229.02 164.338 L2209.11 164.338 L2209.11 160.402 Z" fill="#000000" fill-rule="evenodd" fill-opacity="1" /><polyline clip-path="url(#clip490)" style="stroke:#e26f46; stroke-linecap:butt; stroke-linejoin:round; stroke-width:4; stroke-opacity:1; fill:none" points="
  2005.75,198.898 2152.18,198.898 
  "/>
<path clip-path="url(#clip490)" d="M2190.43 218.585 Q2188.62 223.215 2186.91 224.627 Q2185.2 226.039 2182.33 226.039 L2178.92 226.039 L2178.92 222.474 L2181.42 222.474 Q2183.18 222.474 2184.16 221.64 Q2185.13 220.807 2186.31 217.705 L2187.07 215.761 L2176.59 190.252 L2181.1 190.252 L2189.2 210.529 L2197.3 190.252 L2201.82 190.252 L2190.43 218.585 Z" fill="#000000" fill-rule="evenodd" fill-opacity="1" /><path clip-path="url(#clip490)" d="M2212.33 212.242 L2228.65 212.242 L2228.65 216.178 L2206.7 216.178 L2206.7 212.242 Q2209.36 209.488 2213.95 204.858 Q2218.55 200.205 2219.73 198.863 Q2221.98 196.34 2222.86 194.604 Q2223.76 192.844 2223.76 191.155 Q2223.76 188.4 2221.82 186.664 Q2219.9 184.928 2216.79 184.928 Q2214.59 184.928 2212.14 185.692 Q2209.71 186.455 2206.93 188.006 L2206.93 183.284 Q2209.76 182.15 2212.21 181.571 Q2214.66 180.993 2216.7 180.993 Q2222.07 180.993 2225.27 183.678 Q2228.46 186.363 2228.46 190.854 Q2228.46 192.983 2227.65 194.905 Q2226.86 196.803 2224.76 199.395 Q2224.18 200.067 2221.08 203.284 Q2217.97 206.479 2212.33 212.242 Z" fill="#000000" fill-rule="evenodd" fill-opacity="1" /><polyline clip-path="url(#clip490)" style="stroke:#3da44d; stroke-linecap:butt; stroke-linejoin:round; stroke-width:4; stroke-opacity:1; fill:none" points="
  2005.75,250.738 2152.18,250.738 
  "/>
<path clip-path="url(#clip490)" d="M2190.43 270.425 Q2188.62 275.055 2186.91 276.467 Q2185.2 277.879 2182.33 277.879 L2178.92 277.879 L2178.92 274.314 L2181.42 274.314 Q2183.18 274.314 2184.16 273.48 Q2185.13 272.647 2186.31 269.545 L2187.07 267.601 L2176.59 242.092 L2181.1 242.092 L2189.2 262.369 L2197.3 242.092 L2201.82 242.092 L2190.43 270.425 Z" fill="#000000" fill-rule="evenodd" fill-opacity="1" /><path clip-path="url(#clip490)" d="M2222.47 249.383 Q2225.82 250.101 2227.7 252.369 Q2229.59 254.638 2229.59 257.971 Q2229.59 263.087 2226.08 265.888 Q2222.56 268.689 2216.08 268.689 Q2213.9 268.689 2211.59 268.249 Q2209.29 267.832 2206.84 266.976 L2206.84 262.462 Q2208.78 263.596 2211.1 264.175 Q2213.41 264.754 2215.94 264.754 Q2220.34 264.754 2222.63 263.018 Q2224.94 261.281 2224.94 257.971 Q2224.94 254.916 2222.79 253.203 Q2220.66 251.467 2216.84 251.467 L2212.81 251.467 L2212.81 247.624 L2217.03 247.624 Q2220.47 247.624 2222.3 246.258 Q2224.13 244.87 2224.13 242.277 Q2224.13 239.615 2222.23 238.203 Q2220.36 236.768 2216.84 236.768 Q2214.92 236.768 2212.72 237.184 Q2210.52 237.601 2207.88 238.481 L2207.88 234.314 Q2210.54 233.573 2212.86 233.203 Q2215.2 232.833 2217.26 232.833 Q2222.58 232.833 2225.68 235.263 Q2228.78 237.67 2228.78 241.791 Q2228.78 244.661 2227.14 246.652 Q2225.5 248.62 2222.47 249.383 Z" fill="#000000" fill-rule="evenodd" fill-opacity="1" /><polyline clip-path="url(#clip490)" style="stroke:#c271d2; stroke-linecap:butt; stroke-linejoin:round; stroke-width:4; stroke-opacity:1; fill:none" points="
  2005.75,302.578 2152.18,302.578 
  "/>
<path clip-path="url(#clip490)" d="M2190.43 322.265 Q2188.62 326.895 2186.91 328.307 Q2185.2 329.719 2182.33 329.719 L2178.92 329.719 L2178.92 326.154 L2181.42 326.154 Q2183.18 326.154 2184.16 325.32 Q2185.13 324.487 2186.31 321.385 L2187.07 319.441 L2176.59 293.932 L2181.1 293.932 L2189.2 314.209 L2197.3 293.932 L2201.82 293.932 L2190.43 322.265 Z" fill="#000000" fill-rule="evenodd" fill-opacity="1" /><path clip-path="url(#clip490)" d="M2221.15 289.372 L2209.34 307.821 L2221.15 307.821 L2221.15 289.372 M2219.92 285.298 L2225.8 285.298 L2225.8 307.821 L2230.73 307.821 L2230.73 311.709 L2225.8 311.709 L2225.8 319.858 L2221.15 319.858 L2221.15 311.709 L2205.54 311.709 L2205.54 307.196 L2219.92 285.298 Z" fill="#000000" fill-rule="evenodd" fill-opacity="1" /><polyline clip-path="url(#clip490)" style="stroke:#ac8d18; stroke-linecap:butt; stroke-linejoin:round; stroke-width:4; stroke-opacity:1; fill:none" points="
  2005.75,354.418 2152.18,354.418 
  "/>
<path clip-path="url(#clip490)" d="M2190.43 374.105 Q2188.62 378.735 2186.91 380.147 Q2185.2 381.559 2182.33 381.559 L2178.92 381.559 L2178.92 377.994 L2181.42 377.994 Q2183.18 377.994 2184.16 377.16 Q2185.13 376.327 2186.31 373.225 L2187.07 371.281 L2176.59 345.772 L2181.1 345.772 L2189.2 366.049 L2197.3 345.772 L2201.82 345.772 L2190.43 374.105 Z" fill="#000000" fill-rule="evenodd" fill-opacity="1" /><path clip-path="url(#clip490)" d="M2208.35 337.138 L2226.7 337.138 L2226.7 341.073 L2212.63 341.073 L2212.63 349.545 Q2213.65 349.198 2214.66 349.036 Q2215.68 348.85 2216.7 348.85 Q2222.49 348.85 2225.87 352.022 Q2229.25 355.193 2229.25 360.61 Q2229.25 366.188 2225.78 369.29 Q2222.3 372.369 2215.98 372.369 Q2213.81 372.369 2211.54 371.998 Q2209.29 371.628 2206.89 370.887 L2206.89 366.188 Q2208.97 367.323 2211.19 367.878 Q2213.41 368.434 2215.89 368.434 Q2219.9 368.434 2222.23 366.327 Q2224.57 364.221 2224.57 360.61 Q2224.57 356.999 2222.23 354.892 Q2219.9 352.786 2215.89 352.786 Q2214.02 352.786 2212.14 353.202 Q2210.29 353.619 2208.35 354.499 L2208.35 337.138 Z" fill="#000000" fill-rule="evenodd" fill-opacity="1" /><circle clip-path="url(#clip490)" cx="2078.96" cy="406.258" r="23.04" fill="#00a9ad" fill-rule="evenodd" fill-opacity="1" stroke="#000000" stroke-opacity="1" stroke-width="5.12"/>
<path clip-path="url(#clip490)" d="M2190.43 425.945 Q2188.62 430.575 2186.91 431.987 Q2185.2 433.399 2182.33 433.399 L2178.92 433.399 L2178.92 429.834 L2181.42 429.834 Q2183.18 429.834 2184.16 429 Q2185.13 428.167 2186.31 425.065 L2187.07 423.121 L2176.59 397.612 L2181.1 397.612 L2189.2 417.889 L2197.3 397.612 L2201.82 397.612 L2190.43 425.945 Z" fill="#000000" fill-rule="evenodd" fill-opacity="1" /><path clip-path="url(#clip490)" d="M2218.88 404.394 Q2215.73 404.394 2213.88 406.547 Q2212.05 408.7 2212.05 412.45 Q2212.05 416.176 2213.88 418.352 Q2215.73 420.505 2218.88 420.505 Q2222.03 420.505 2223.85 418.352 Q2225.71 416.176 2225.71 412.45 Q2225.71 408.7 2223.85 406.547 Q2222.03 404.394 2218.88 404.394 M2228.16 389.741 L2228.16 394.001 Q2226.4 393.167 2224.59 392.728 Q2222.81 392.288 2221.05 392.288 Q2216.42 392.288 2213.97 395.413 Q2211.54 398.538 2211.19 404.857 Q2212.56 402.843 2214.62 401.778 Q2216.68 400.69 2219.16 400.69 Q2224.36 400.69 2227.37 403.862 Q2230.41 407.01 2230.41 412.45 Q2230.41 417.774 2227.26 420.991 Q2224.11 424.209 2218.88 424.209 Q2212.88 424.209 2209.71 419.626 Q2206.54 415.019 2206.54 406.292 Q2206.54 398.098 2210.43 393.237 Q2214.32 388.353 2220.87 388.353 Q2222.63 388.353 2224.41 388.7 Q2226.22 389.047 2228.16 389.741 Z" fill="#000000" fill-rule="evenodd" fill-opacity="1" /><circle clip-path="url(#clip490)" cx="2078.96" cy="458.098" r="23.04" fill="#ed5d92" fill-rule="evenodd" fill-opacity="1" stroke="#000000" stroke-opacity="1" stroke-width="5.12"/>
<path clip-path="url(#clip490)" d="M2190.43 477.785 Q2188.62 482.415 2186.91 483.827 Q2185.2 485.239 2182.33 485.239 L2178.92 485.239 L2178.92 481.674 L2181.42 481.674 Q2183.18 481.674 2184.16 480.84 Q2185.13 480.007 2186.31 476.905 L2187.07 474.961 L2176.59 449.452 L2181.1 449.452 L2189.2 469.729 L2197.3 449.452 L2201.82 449.452 L2190.43 477.785 Z" fill="#000000" fill-rule="evenodd" fill-opacity="1" /><path clip-path="url(#clip490)" d="M2207.12 440.818 L2229.34 440.818 L2229.34 442.808 L2216.79 475.378 L2211.91 475.378 L2223.72 444.753 L2207.12 444.753 L2207.12 440.818 Z" fill="#000000" fill-rule="evenodd" fill-opacity="1" /></svg>
