<?xml version="1.0" encoding="utf-8"?>
<svg xmlns="http://www.w3.org/2000/svg" xmlns:xlink="http://www.w3.org/1999/xlink" width="600" height="400" viewBox="0 0 2400 1600">
<defs>
  <clipPath id="clip120">
    <rect x="0" y="0" width="2400" height="1600"/>
  </clipPath>
</defs>
<path clip-path="url(#clip120)" d="
M0 1600 L2400 1600 L2400 0 L0 0  Z
  " fill="#ffffff" fill-rule="evenodd" fill-opacity="1"/>
<defs>
  <clipPath id="clip121">
    <rect x="480" y="0" width="1681" height="1600"/>
  </clipPath>
</defs>
<path clip-path="url(#clip120)" d="
M224.098 1486.45 L2352.76 1486.45 L2352.76 47.2441 L224.098 47.2441  Z
  " fill="#ffffff" fill-rule="evenodd" fill-opacity="1"/>
<defs>
  <clipPath id="clip122">
    <rect x="224" y="47" width="2130" height="1440"/>
  </clipPath>
</defs>
<polyline clip-path="url(#clip122)" style="stroke:#000000; stroke-linecap:butt; stroke-linejoin:round; stroke-width:2; stroke-opacity:0.1; fill:none" points="
  264.058,1486.45 264.058,47.2441 
  "/>
<polyline clip-path="url(#clip122)" style="stroke:#000000; stroke-linecap:butt; stroke-linejoin:round; stroke-width:2; stroke-opacity:0.1; fill:none" points="
  776.243,1486.45 776.243,47.2441 
  "/>
<polyline clip-path="url(#clip122)" style="stroke:#000000; stroke-linecap:butt; stroke-linejoin:round; stroke-width:2; stroke-opacity:0.1; fill:none" points="
  1288.43,1486.45 1288.43,47.2441 
  "/>
<polyline clip-path="url(#clip122)" style="stroke:#000000; stroke-linecap:butt; stroke-linejoin:round; stroke-width:2; stroke-opacity:0.1; fill:none" points="
  1800.61,1486.45 1800.61,47.2441 
  "/>
<polyline clip-path="url(#clip122)" style="stroke:#000000; stroke-linecap:butt; stroke-linejoin:round; stroke-width:2; stroke-opacity:0.1; fill:none" points="
  2312.8,1486.45 2312.8,47.2441 
  "/>
<polyline clip-path="url(#clip120)" style="stroke:#000000; stroke-linecap:butt; stroke-linejoin:round; stroke-width:4; stroke-opacity:1; fill:none" points="
  224.098,1486.45 2352.76,1486.45 
  "/>
<polyline clip-path="url(#clip120)" style="stroke:#000000; stroke-linecap:butt; stroke-linejoin:round; stroke-width:4; stroke-opacity:1; fill:none" points="
  264.058,1486.45 264.058,1467.55 
  "/>
<polyline clip-path="url(#clip120)" style="stroke:#000000; stroke-linecap:butt; stroke-linejoin:round; stroke-width:4; stroke-opacity:1; fill:none" points="
  776.243,1486.45 776.243,1467.55 
  "/>
<polyline clip-path="url(#clip120)" style="stroke:#000000; stroke-linecap:butt; stroke-linejoin:round; stroke-width:4; stroke-opacity:1; fill:none" points="
  1288.43,1486.45 1288.43,1467.55 
  "/>
<polyline clip-path="url(#clip120)" style="stroke:#000000; stroke-linecap:butt; stroke-linejoin:round; stroke-width:4; stroke-opacity:1; fill:none" points="
  1800.61,1486.45 1800.61,1467.55 
  "/>
<polyline clip-path="url(#clip120)" style="stroke:#000000; stroke-linecap:butt; stroke-linejoin:round; stroke-width:4; stroke-opacity:1; fill:none" points="
  2312.8,1486.45 2312.8,1467.55 
  "/>
<path clip-path="url(#clip120)" d="M210.586 1532.02 L240.262 1532.02 L240.262 1535.95 L210.586 1535.95 L210.586 1532.02 Z" fill="#000000" fill-rule="evenodd" fill-opacity="1" /><path clip-path="url(#clip120)" d="M251.165 1544.91 L258.804 1544.91 L258.804 1518.55 L250.494 1520.21 L250.494 1515.95 L258.757 1514.29 L263.433 1514.29 L263.433 1544.91 L271.072 1544.91 L271.072 1548.85 L251.165 1548.85 L251.165 1544.91 Z" fill="#000000" fill-rule="evenodd" fill-opacity="1" /><path clip-path="url(#clip120)" d="M280.517 1542.97 L285.401 1542.97 L285.401 1548.85 L280.517 1548.85 L280.517 1542.97 Z" fill="#000000" fill-rule="evenodd" fill-opacity="1" /><path clip-path="url(#clip120)" d="M305.586 1517.37 Q301.975 1517.37 300.146 1520.93 Q298.341 1524.47 298.341 1531.6 Q298.341 1538.71 300.146 1542.27 Q301.975 1545.82 305.586 1545.82 Q309.22 1545.82 311.026 1542.27 Q312.854 1538.71 312.854 1531.6 Q312.854 1524.47 311.026 1520.93 Q309.22 1517.37 305.586 1517.37 M305.586 1513.66 Q311.396 1513.66 314.452 1518.27 Q317.53 1522.85 317.53 1531.6 Q317.53 1540.33 314.452 1544.94 Q311.396 1549.52 305.586 1549.52 Q299.776 1549.52 296.697 1544.94 Q293.642 1540.33 293.642 1531.6 Q293.642 1522.85 296.697 1518.27 Q299.776 1513.66 305.586 1513.66 Z" fill="#000000" fill-rule="evenodd" fill-opacity="1" /><path clip-path="url(#clip120)" d="M723.268 1532.02 L752.944 1532.02 L752.944 1535.95 L723.268 1535.95 L723.268 1532.02 Z" fill="#000000" fill-rule="evenodd" fill-opacity="1" /><path clip-path="url(#clip120)" d="M773.037 1517.37 Q769.426 1517.37 767.597 1520.93 Q765.791 1524.47 765.791 1531.6 Q765.791 1538.71 767.597 1542.27 Q769.426 1545.82 773.037 1545.82 Q776.671 1545.82 778.476 1542.27 Q780.305 1538.71 780.305 1531.6 Q780.305 1524.47 778.476 1520.93 Q776.671 1517.37 773.037 1517.37 M773.037 1513.66 Q778.847 1513.66 781.902 1518.27 Q784.981 1522.85 784.981 1531.6 Q784.981 1540.33 781.902 1544.94 Q778.847 1549.52 773.037 1549.52 Q767.226 1549.52 764.148 1544.94 Q761.092 1540.33 761.092 1531.6 Q761.092 1522.85 764.148 1518.27 Q767.226 1513.66 773.037 1513.66 Z" fill="#000000" fill-rule="evenodd" fill-opacity="1" /><path clip-path="url(#clip120)" d="M793.199 1542.97 L798.083 1542.97 L798.083 1548.85 L793.199 1548.85 L793.199 1542.97 Z" fill="#000000" fill-rule="evenodd" fill-opacity="1" /><path clip-path="url(#clip120)" d="M808.314 1514.29 L826.671 1514.29 L826.671 1518.22 L812.597 1518.22 L812.597 1526.7 Q813.615 1526.35 814.634 1526.19 Q815.652 1526 816.671 1526 Q822.458 1526 825.837 1529.17 Q829.217 1532.34 829.217 1537.76 Q829.217 1543.34 825.745 1546.44 Q822.272 1549.52 815.953 1549.52 Q813.777 1549.52 811.509 1549.15 Q809.263 1548.78 806.856 1548.04 L806.856 1543.34 Q808.939 1544.47 811.161 1545.03 Q813.384 1545.58 815.86 1545.58 Q819.865 1545.58 822.203 1543.48 Q824.541 1541.37 824.541 1537.76 Q824.541 1534.15 822.203 1532.04 Q819.865 1529.94 815.86 1529.94 Q813.985 1529.94 812.111 1530.35 Q810.259 1530.77 808.314 1531.65 L808.314 1514.29 Z" fill="#000000" fill-rule="evenodd" fill-opacity="1" /><path clip-path="url(#clip120)" d="M1265.81 1517.37 Q1262.2 1517.37 1260.37 1520.93 Q1258.57 1524.47 1258.57 1531.6 Q1258.57 1538.71 1260.37 1542.27 Q1262.2 1545.82 1265.81 1545.82 Q1269.45 1545.82 1271.25 1542.27 Q1273.08 1538.71 1273.08 1531.6 Q1273.08 1524.47 1271.25 1520.93 Q1269.45 1517.37 1265.81 1517.37 M1265.81 1513.66 Q1271.62 1513.66 1274.68 1518.27 Q1277.76 1522.85 1277.76 1531.6 Q1277.76 1540.33 1274.68 1544.94 Q1271.62 1549.52 1265.81 1549.52 Q1260 1549.52 1256.92 1544.94 Q1253.87 1540.33 1253.87 1531.6 Q1253.87 1522.85 1256.92 1518.27 Q1260 1513.66 1265.81 1513.66 Z" fill="#000000" fill-rule="evenodd" fill-opacity="1" /><path clip-path="url(#clip120)" d="M1285.97 1542.97 L1290.86 1542.97 L1290.86 1548.85 L1285.97 1548.85 L1285.97 1542.97 Z" fill="#000000" fill-rule="evenodd" fill-opacity="1" /><path clip-path="url(#clip120)" d="M1311.04 1517.37 Q1307.43 1517.37 1305.6 1520.93 Q1303.8 1524.47 1303.8 1531.6 Q1303.8 1538.71 1305.6 1542.27 Q1307.43 1545.82 1311.04 1545.82 Q1314.68 1545.82 1316.48 1542.27 Q1318.31 1538.71 1318.31 1531.6 Q1318.31 1524.47 1316.48 1520.93 Q1314.68 1517.37 1311.04 1517.37 M1311.04 1513.66 Q1316.85 1513.66 1319.91 1518.27 Q1322.99 1522.85 1322.99 1531.6 Q1322.99 1540.33 1319.91 1544.94 Q1316.85 1549.52 1311.04 1549.52 Q1305.23 1549.52 1302.15 1544.94 Q1299.1 1540.33 1299.1 1531.6 Q1299.1 1522.85 1302.15 1518.27 Q1305.23 1513.66 1311.04 1513.66 Z" fill="#000000" fill-rule="evenodd" fill-opacity="1" /><path clip-path="url(#clip120)" d="M1778.49 1517.37 Q1774.88 1517.37 1773.05 1520.93 Q1771.25 1524.47 1771.25 1531.6 Q1771.25 1538.71 1773.05 1542.27 Q1774.88 1545.82 1778.49 1545.82 Q1782.13 1545.82 1783.93 1542.27 Q1785.76 1538.71 1785.76 1531.6 Q1785.76 1524.47 1783.93 1520.93 Q1782.13 1517.37 1778.49 1517.37 M1778.49 1513.66 Q1784.3 1513.66 1787.36 1518.27 Q1790.44 1522.85 1790.44 1531.6 Q1790.44 1540.33 1787.36 1544.94 Q1784.3 1549.52 1778.49 1549.52 Q1772.68 1549.52 1769.6 1544.94 Q1766.55 1540.33 1766.55 1531.6 Q1766.55 1522.85 1769.6 1518.27 Q1772.68 1513.66 1778.49 1513.66 Z" fill="#000000" fill-rule="evenodd" fill-opacity="1" /><path clip-path="url(#clip120)" d="M1798.66 1542.97 L1803.54 1542.97 L1803.54 1548.85 L1798.66 1548.85 L1798.66 1542.97 Z" fill="#000000" fill-rule="evenodd" fill-opacity="1" /><path clip-path="url(#clip120)" d="M1813.77 1514.29 L1832.13 1514.29 L1832.13 1518.22 L1818.05 1518.22 L1818.05 1526.7 Q1819.07 1526.35 1820.09 1526.19 Q1821.11 1526 1822.13 1526 Q1827.91 1526 1831.29 1529.17 Q1834.67 1532.34 1834.67 1537.76 Q1834.67 1543.34 1831.2 1546.44 Q1827.73 1549.52 1821.41 1549.52 Q1819.23 1549.52 1816.97 1549.15 Q1814.72 1548.78 1812.31 1548.04 L1812.31 1543.34 Q1814.4 1544.47 1816.62 1545.03 Q1818.84 1545.58 1821.32 1545.58 Q1825.32 1545.58 1827.66 1543.48 Q1830 1541.37 1830 1537.76 Q1830 1534.15 1827.66 1532.04 Q1825.32 1529.94 1821.32 1529.94 Q1819.44 1529.94 1817.57 1530.35 Q1815.72 1530.77 1813.77 1531.65 L1813.77 1514.29 Z" fill="#000000" fill-rule="evenodd" fill-opacity="1" /><path clip-path="url(#clip120)" d="M2279.95 1544.91 L2287.59 1544.91 L2287.59 1518.55 L2279.28 1520.21 L2279.28 1515.95 L2287.54 1514.29 L2292.22 1514.29 L2292.22 1544.91 L2299.86 1544.91 L2299.86 1548.85 L2279.95 1548.85 L2279.95 1544.91 Z" fill="#000000" fill-rule="evenodd" fill-opacity="1" /><path clip-path="url(#clip120)" d="M2309.3 1542.97 L2314.18 1542.97 L2314.18 1548.85 L2309.3 1548.85 L2309.3 1542.97 Z" fill="#000000" fill-rule="evenodd" fill-opacity="1" /><path clip-path="url(#clip120)" d="M2334.37 1517.37 Q2330.76 1517.37 2328.93 1520.93 Q2327.12 1524.47 2327.12 1531.6 Q2327.12 1538.71 2328.93 1542.27 Q2330.76 1545.82 2334.37 1545.82 Q2338 1545.82 2339.81 1542.27 Q2341.64 1538.71 2341.64 1531.6 Q2341.64 1524.47 2339.81 1520.93 Q2338 1517.37 2334.37 1517.37 M2334.37 1513.66 Q2340.18 1513.66 2343.24 1518.27 Q2346.31 1522.85 2346.31 1531.6 Q2346.31 1540.33 2343.24 1544.94 Q2340.18 1549.52 2334.37 1549.52 Q2328.56 1549.52 2325.48 1544.94 Q2322.42 1540.33 2322.42 1531.6 Q2322.42 1522.85 2325.48 1518.27 Q2328.56 1513.66 2334.37 1513.66 Z" fill="#000000" fill-rule="evenodd" fill-opacity="1" /><polyline clip-path="url(#clip122)" style="stroke:#000000; stroke-linecap:butt; stroke-linejoin:round; stroke-width:2; stroke-opacity:0.1; fill:none" points="
  224.098,1249.33 2352.76,1249.33 
  "/>
<polyline clip-path="url(#clip122)" style="stroke:#000000; stroke-linecap:butt; stroke-linejoin:round; stroke-width:2; stroke-opacity:0.1; fill:none" points="
  224.098,1008.09 2352.76,1008.09 
  "/>
<polyline clip-path="url(#clip122)" style="stroke:#000000; stroke-linecap:butt; stroke-linejoin:round; stroke-width:2; stroke-opacity:0.1; fill:none" points="
  224.098,766.846 2352.76,766.846 
  "/>
<polyline clip-path="url(#clip122)" style="stroke:#000000; stroke-linecap:butt; stroke-linejoin:round; stroke-width:2; stroke-opacity:0.1; fill:none" points="
  224.098,525.603 2352.76,525.603 
  "/>
<polyline clip-path="url(#clip122)" style="stroke:#000000; stroke-linecap:butt; stroke-linejoin:round; stroke-width:2; stroke-opacity:0.1; fill:none" points="
  224.098,284.36 2352.76,284.36 
  "/>
<polyline clip-path="url(#clip120)" style="stroke:#000000; stroke-linecap:butt; stroke-linejoin:round; stroke-width:4; stroke-opacity:1; fill:none" points="
  224.098,1486.45 224.098,47.2441 
  "/>
<polyline clip-path="url(#clip120)" style="stroke:#000000; stroke-linecap:butt; stroke-linejoin:round; stroke-width:4; stroke-opacity:1; fill:none" points="
  224.098,1249.33 242.996,1249.33 
  "/>
<polyline clip-path="url(#clip120)" style="stroke:#000000; stroke-linecap:butt; stroke-linejoin:round; stroke-width:4; stroke-opacity:1; fill:none" points="
  224.098,1008.09 242.996,1008.09 
  "/>
<polyline clip-path="url(#clip120)" style="stroke:#000000; stroke-linecap:butt; stroke-linejoin:round; stroke-width:4; stroke-opacity:1; fill:none" points="
  224.098,766.846 242.996,766.846 
  "/>
<polyline clip-path="url(#clip120)" style="stroke:#000000; stroke-linecap:butt; stroke-linejoin:round; stroke-width:4; stroke-opacity:1; fill:none" points="
  224.098,525.603 242.996,525.603 
  "/>
<polyline clip-path="url(#clip120)" style="stroke:#000000; stroke-linecap:butt; stroke-linejoin:round; stroke-width:4; stroke-opacity:1; fill:none" points="
  224.098,284.36 242.996,284.36 
  "/>
<path clip-path="url(#clip120)" d="M50.9921 1249.78 L80.6679 1249.78 L80.6679 1253.72 L50.9921 1253.72 L50.9921 1249.78 Z" fill="#000000" fill-rule="evenodd" fill-opacity="1" /><path clip-path="url(#clip120)" d="M100.76 1235.13 Q97.1493 1235.13 95.3206 1238.7 Q93.515 1242.24 93.515 1249.37 Q93.515 1256.47 95.3206 1260.04 Q97.1493 1263.58 100.76 1263.58 Q104.395 1263.58 106.2 1260.04 Q108.029 1256.47 108.029 1249.37 Q108.029 1242.24 106.2 1238.7 Q104.395 1235.13 100.76 1235.13 M100.76 1231.43 Q106.571 1231.43 109.626 1236.03 Q112.705 1240.62 112.705 1249.37 Q112.705 1258.09 109.626 1262.7 Q106.571 1267.28 100.76 1267.28 Q94.9502 1267.28 91.8715 1262.7 Q88.816 1258.09 88.816 1249.37 Q88.816 1240.62 91.8715 1236.03 Q94.9502 1231.43 100.76 1231.43 Z" fill="#000000" fill-rule="evenodd" fill-opacity="1" /><path clip-path="url(#clip120)" d="M120.922 1260.73 L125.807 1260.73 L125.807 1266.61 L120.922 1266.61 L120.922 1260.73 Z" fill="#000000" fill-rule="evenodd" fill-opacity="1" /><path clip-path="url(#clip120)" d="M136.802 1262.68 L144.441 1262.68 L144.441 1236.31 L136.131 1237.98 L136.131 1233.72 L144.394 1232.05 L149.07 1232.05 L149.07 1262.68 L156.709 1262.68 L156.709 1266.61 L136.802 1266.61 L136.802 1262.68 Z" fill="#000000" fill-rule="evenodd" fill-opacity="1" /><path clip-path="url(#clip120)" d="M176.153 1235.13 Q172.542 1235.13 170.714 1238.7 Q168.908 1242.24 168.908 1249.37 Q168.908 1256.47 170.714 1260.04 Q172.542 1263.58 176.153 1263.58 Q179.788 1263.58 181.593 1260.04 Q183.422 1256.47 183.422 1249.37 Q183.422 1242.24 181.593 1238.7 Q179.788 1235.13 176.153 1235.13 M176.153 1231.43 Q181.964 1231.43 185.019 1236.03 Q188.098 1240.62 188.098 1249.37 Q188.098 1258.09 185.019 1262.7 Q181.964 1267.28 176.153 1267.28 Q170.343 1267.28 167.265 1262.7 Q164.209 1258.09 164.209 1249.37 Q164.209 1240.62 167.265 1236.03 Q170.343 1231.43 176.153 1231.43 Z" fill="#000000" fill-rule="evenodd" fill-opacity="1" /><path clip-path="url(#clip120)" d="M51.9875 1008.54 L81.6633 1008.54 L81.6633 1012.48 L51.9875 1012.48 L51.9875 1008.54 Z" fill="#000000" fill-rule="evenodd" fill-opacity="1" /><path clip-path="url(#clip120)" d="M101.756 993.888 Q98.1447 993.888 96.316 997.452 Q94.5104 1000.99 94.5104 1008.12 Q94.5104 1015.23 96.316 1018.79 Q98.1447 1022.34 101.756 1022.34 Q105.39 1022.34 107.196 1018.79 Q109.024 1015.23 109.024 1008.12 Q109.024 1000.99 107.196 997.452 Q105.39 993.888 101.756 993.888 M101.756 990.184 Q107.566 990.184 110.621 994.79 Q113.7 999.374 113.7 1008.12 Q113.7 1016.85 110.621 1021.46 Q107.566 1026.04 101.756 1026.04 Q95.9456 1026.04 92.8669 1021.46 Q89.8114 1016.85 89.8114 1008.12 Q89.8114 999.374 92.8669 994.79 Q95.9456 990.184 101.756 990.184 Z" fill="#000000" fill-rule="evenodd" fill-opacity="1" /><path clip-path="url(#clip120)" d="M121.918 1019.49 L126.802 1019.49 L126.802 1025.37 L121.918 1025.37 L121.918 1019.49 Z" fill="#000000" fill-rule="evenodd" fill-opacity="1" /><path clip-path="url(#clip120)" d="M146.987 993.888 Q143.376 993.888 141.547 997.452 Q139.742 1000.99 139.742 1008.12 Q139.742 1015.23 141.547 1018.79 Q143.376 1022.34 146.987 1022.34 Q150.621 1022.34 152.427 1018.79 Q154.255 1015.23 154.255 1008.12 Q154.255 1000.99 152.427 997.452 Q150.621 993.888 146.987 993.888 M146.987 990.184 Q152.797 990.184 155.853 994.79 Q158.931 999.374 158.931 1008.12 Q158.931 1016.85 155.853 1021.46 Q152.797 1026.04 146.987 1026.04 Q141.177 1026.04 138.098 1021.46 Q135.043 1016.85 135.043 1008.12 Q135.043 999.374 138.098 994.79 Q141.177 990.184 146.987 990.184 Z" fill="#000000" fill-rule="evenodd" fill-opacity="1" /><path clip-path="url(#clip120)" d="M167.195 990.809 L185.552 990.809 L185.552 994.744 L171.478 994.744 L171.478 1003.22 Q172.496 1002.87 173.515 1002.71 Q174.533 1002.52 175.552 1002.52 Q181.339 1002.52 184.718 1005.69 Q188.098 1008.86 188.098 1014.28 Q188.098 1019.86 184.626 1022.96 Q181.153 1026.04 174.834 1026.04 Q172.658 1026.04 170.39 1025.67 Q168.144 1025.3 165.737 1024.56 L165.737 1019.86 Q167.82 1020.99 170.042 1021.55 Q172.265 1022.11 174.741 1022.11 Q178.746 1022.11 181.084 1020 Q183.422 1017.89 183.422 1014.28 Q183.422 1010.67 181.084 1008.56 Q178.746 1006.46 174.741 1006.46 Q172.866 1006.46 170.991 1006.87 Q169.14 1007.29 167.195 1008.17 L167.195 990.809 Z" fill="#000000" fill-rule="evenodd" fill-opacity="1" /><path clip-path="url(#clip120)" d="M100.76 752.645 Q97.1493 752.645 95.3206 756.209 Q93.515 759.751 93.515 766.881 Q93.515 773.987 95.3206 777.552 Q97.1493 781.094 100.76 781.094 Q104.395 781.094 106.2 777.552 Q108.029 773.987 108.029 766.881 Q108.029 759.751 106.2 756.209 Q104.395 752.645 100.76 752.645 M100.76 748.941 Q106.571 748.941 109.626 753.547 Q112.705 758.131 112.705 766.881 Q112.705 775.608 109.626 780.214 Q106.571 784.797 100.76 784.797 Q94.9502 784.797 91.8715 780.214 Q88.816 775.608 88.816 766.881 Q88.816 758.131 91.8715 753.547 Q94.9502 748.941 100.76 748.941 Z" fill="#000000" fill-rule="evenodd" fill-opacity="1" /><path clip-path="url(#clip120)" d="M120.922 778.246 L125.807 778.246 L125.807 784.126 L120.922 784.126 L120.922 778.246 Z" fill="#000000" fill-rule="evenodd" fill-opacity="1" /><path clip-path="url(#clip120)" d="M145.992 752.645 Q142.381 752.645 140.552 756.209 Q138.746 759.751 138.746 766.881 Q138.746 773.987 140.552 777.552 Q142.381 781.094 145.992 781.094 Q149.626 781.094 151.431 777.552 Q153.26 773.987 153.26 766.881 Q153.26 759.751 151.431 756.209 Q149.626 752.645 145.992 752.645 M145.992 748.941 Q151.802 748.941 154.857 753.547 Q157.936 758.131 157.936 766.881 Q157.936 775.608 154.857 780.214 Q151.802 784.797 145.992 784.797 Q140.181 784.797 137.103 780.214 Q134.047 775.608 134.047 766.881 Q134.047 758.131 137.103 753.547 Q140.181 748.941 145.992 748.941 Z" fill="#000000" fill-rule="evenodd" fill-opacity="1" /><path clip-path="url(#clip120)" d="M176.153 752.645 Q172.542 752.645 170.714 756.209 Q168.908 759.751 168.908 766.881 Q168.908 773.987 170.714 777.552 Q172.542 781.094 176.153 781.094 Q179.788 781.094 181.593 777.552 Q183.422 773.987 183.422 766.881 Q183.422 759.751 181.593 756.209 Q179.788 752.645 176.153 752.645 M176.153 748.941 Q181.964 748.941 185.019 753.547 Q188.098 758.131 188.098 766.881 Q188.098 775.608 185.019 780.214 Q181.964 784.797 176.153 784.797 Q170.343 784.797 167.265 780.214 Q164.209 775.608 164.209 766.881 Q164.209 758.131 167.265 753.547 Q170.343 748.941 176.153 748.941 Z" fill="#000000" fill-rule="evenodd" fill-opacity="1" /><path clip-path="url(#clip120)" d="M101.756 511.402 Q98.1447 511.402 96.316 514.967 Q94.5104 518.508 94.5104 525.638 Q94.5104 532.744 96.316 536.309 Q98.1447 539.851 101.756 539.851 Q105.39 539.851 107.196 536.309 Q109.024 532.744 109.024 525.638 Q109.024 518.508 107.196 514.967 Q105.39 511.402 101.756 511.402 M101.756 507.698 Q107.566 507.698 110.621 512.304 Q113.7 516.888 113.7 525.638 Q113.7 534.365 110.621 538.971 Q107.566 543.554 101.756 543.554 Q95.9456 543.554 92.8669 538.971 Q89.8114 534.365 89.8114 525.638 Q89.8114 516.888 92.8669 512.304 Q95.9456 507.698 101.756 507.698 Z" fill="#000000" fill-rule="evenodd" fill-opacity="1" /><path clip-path="url(#clip120)" d="M121.918 537.003 L126.802 537.003 L126.802 542.883 L121.918 542.883 L121.918 537.003 Z" fill="#000000" fill-rule="evenodd" fill-opacity="1" /><path clip-path="url(#clip120)" d="M146.987 511.402 Q143.376 511.402 141.547 514.967 Q139.742 518.508 139.742 525.638 Q139.742 532.744 141.547 536.309 Q143.376 539.851 146.987 539.851 Q150.621 539.851 152.427 536.309 Q154.255 532.744 154.255 525.638 Q154.255 518.508 152.427 514.967 Q150.621 511.402 146.987 511.402 M146.987 507.698 Q152.797 507.698 155.853 512.304 Q158.931 516.888 158.931 525.638 Q158.931 534.365 155.853 538.971 Q152.797 543.554 146.987 543.554 Q141.177 543.554 138.098 538.971 Q135.043 534.365 135.043 525.638 Q135.043 516.888 138.098 512.304 Q141.177 507.698 146.987 507.698 Z" fill="#000000" fill-rule="evenodd" fill-opacity="1" /><path clip-path="url(#clip120)" d="M167.195 508.323 L185.552 508.323 L185.552 512.258 L171.478 512.258 L171.478 520.73 Q172.496 520.383 173.515 520.221 Q174.533 520.036 175.552 520.036 Q181.339 520.036 184.718 523.207 Q188.098 526.378 188.098 531.795 Q188.098 537.374 184.626 540.476 Q181.153 543.554 174.834 543.554 Q172.658 543.554 170.39 543.184 Q168.144 542.814 165.737 542.073 L165.737 537.374 Q167.82 538.508 170.042 539.064 Q172.265 539.619 174.741 539.619 Q178.746 539.619 181.084 537.513 Q183.422 535.406 183.422 531.795 Q183.422 528.184 181.084 526.078 Q178.746 523.971 174.741 523.971 Q172.866 523.971 170.991 524.388 Q169.14 524.804 167.195 525.684 L167.195 508.323 Z" fill="#000000" fill-rule="evenodd" fill-opacity="1" /><path clip-path="url(#clip120)" d="M100.76 270.159 Q97.1493 270.159 95.3206 273.724 Q93.515 277.265 93.515 284.395 Q93.515 291.501 95.3206 295.066 Q97.1493 298.608 100.76 298.608 Q104.395 298.608 106.2 295.066 Q108.029 291.501 108.029 284.395 Q108.029 277.265 106.2 273.724 Q104.395 270.159 100.76 270.159 M100.76 266.455 Q106.571 266.455 109.626 271.062 Q112.705 275.645 112.705 284.395 Q112.705 293.122 109.626 297.728 Q106.571 302.311 100.76 302.311 Q94.9502 302.311 91.8715 297.728 Q88.816 293.122 88.816 284.395 Q88.816 275.645 91.8715 271.062 Q94.9502 266.455 100.76 266.455 Z" fill="#000000" fill-rule="evenodd" fill-opacity="1" /><path clip-path="url(#clip120)" d="M120.922 295.76 L125.807 295.76 L125.807 301.64 L120.922 301.64 L120.922 295.76 Z" fill="#000000" fill-rule="evenodd" fill-opacity="1" /><path clip-path="url(#clip120)" d="M136.802 297.705 L144.441 297.705 L144.441 271.339 L136.131 273.006 L136.131 268.747 L144.394 267.08 L149.07 267.08 L149.07 297.705 L156.709 297.705 L156.709 301.64 L136.802 301.64 L136.802 297.705 Z" fill="#000000" fill-rule="evenodd" fill-opacity="1" /><path clip-path="url(#clip120)" d="M176.153 270.159 Q172.542 270.159 170.714 273.724 Q168.908 277.265 168.908 284.395 Q168.908 291.501 170.714 295.066 Q172.542 298.608 176.153 298.608 Q179.788 298.608 181.593 295.066 Q183.422 291.501 183.422 284.395 Q183.422 277.265 181.593 273.724 Q179.788 270.159 176.153 270.159 M176.153 266.455 Q181.964 266.455 185.019 271.062 Q188.098 275.645 188.098 284.395 Q188.098 293.122 185.019 297.728 Q181.964 302.311 176.153 302.311 Q170.343 302.311 167.265 297.728 Q164.209 293.122 164.209 284.395 Q164.209 275.645 167.265 271.062 Q170.343 266.455 176.153 266.455 Z" fill="#000000" fill-rule="evenodd" fill-opacity="1" /><polyline clip-path="url(#clip122)" style="stroke:#009af9; stroke-linecap:butt; stroke-linejoin:round; stroke-width:12; stroke-opacity:1; fill:none" points="
  284.343,703.582 304.627,892.824 324.912,579.25 345.196,1014.43 365.481,461.434 385.766,1127.43 406.05,354.225 426.335,1227.91 446.619,261.345 466.904,1312.38 
  487.188,186.022 507.473,1377.9 527.757,130.87 548.042,1422.21 568.326,97.8055 588.611,1443.75 608.895,87.9763 629.18,1441.78 649.464,101.724 669.749,1416.37 
  690.033,138.571 710.318,1368.41 730.602,197.237 750.887,1299.55 771.172,275.686 791.456,1212.19 811.741,371.193 832.025,1109.37 852.31,480.44 872.594,994.646 
  892.879,599.634 913.163,872.014 933.448,724.636 953.732,745.731 974.017,851.103 994.301,620.18 1014.59,974.644 1034.87,499.724 1055.15,1090.97 1075.44,388.544 
  1095.72,1196.04 1116.01,290.502 1136.29,1286.2 1156.58,209.004 1176.86,1358.32 1197.15,146.879 1217.43,1409.91 1237.72,106.286 1258,1439.16 1278.28,88.633 
  1298.57,1445.06 1318.85,94.5344 1339.14,1427.41 1359.42,123.785 1379.71,1386.81 1399.99,175.368 1420.28,1324.69 1440.56,247.494 1460.85,1243.19 1481.13,337.656 
  1501.41,1145.15 1521.7,442.724 1541.98,1033.97 1562.27,559.048 1582.55,913.512 1602.84,682.589 1623.12,787.961 1643.41,809.056 1663.69,661.678 1683.98,934.057 
  1704.26,539.046 1724.54,1053.25 1744.83,424.326 1765.11,1162.5 1785.4,321.502 1805.68,1258.01 1825.97,234.144 1846.25,1336.45 1866.54,165.287 1886.82,1395.12 
  1907.1,117.321 1927.39,1431.97 1947.67,91.9137 1967.96,1445.72 1988.24,89.9459 2008.53,1435.89 2028.81,111.487 2049.1,1402.82 2069.38,155.788 2089.67,1347.67 
  2109.95,221.31 2130.23,1272.35 2150.52,305.779 2170.8,1179.47 2191.09,406.261 2211.37,1072.26 2231.66,519.265 2251.94,954.442 2272.23,640.868 2292.51,830.11 
  
  "/>
<polyline clip-path="url(#clip122)" style="stroke:#e26f46; stroke-linecap:butt; stroke-linejoin:round; stroke-width:12; stroke-opacity:1; fill:none" points="
  284.343,724.636 304.627,851.103 324.912,640.868 345.196,934.057 365.481,559.048 385.766,1014.43 406.05,480.44 426.335,1090.97 446.619,406.261 466.904,1162.5 
  487.188,337.656 507.473,1227.91 527.757,275.686 548.042,1286.2 568.326,221.31 588.611,1336.45 608.895,175.368 629.18,1377.9 649.464,138.571 669.749,1409.91 
  690.033,111.487 710.318,1431.97 730.602,94.5344 750.887,1443.75 771.172,87.9763 791.456,1445.06 811.741,91.9137 832.025,1435.89 852.31,106.286 872.594,1416.37 
  892.879,130.87 913.163,1386.81 933.448,165.287 953.732,1347.67 974.017,209.004 994.301,1299.55 1014.59,261.345 1034.87,1243.19 1055.15,321.502 1075.44,1179.47 
  1095.72,388.544 1116.01,1109.37 1136.29,461.434 1156.58,1033.97 1176.86,539.046 1197.15,954.442 1217.43,620.18 1237.72,872.014 1258,703.582 1278.28,787.961 
  1298.57,787.961 1318.85,703.582 1339.14,872.014 1359.42,620.18 1379.71,954.442 1399.99,539.046 1420.28,1033.97 1440.56,461.434 1460.85,1109.37 1481.13,388.544 
  1501.41,1179.47 1521.7,321.502 1541.98,1243.19 1562.27,261.345 1582.55,1299.55 1602.84,209.004 1623.12,1347.67 1643.41,165.287 1663.69,1386.81 1683.98,130.87 
  1704.26,1416.37 1724.54,106.286 1744.83,1435.89 1765.11,91.9137 1785.4,1445.06 1805.68,87.9763 1825.97,1443.75 1846.25,94.5344 1866.54,1431.97 1886.82,111.487 
  1907.1,1409.91 1927.39,138.571 1947.67,1377.9 1967.96,175.368 1988.24,1336.45 2008.53,221.31 2028.81,1286.2 2049.1,275.686 2069.38,1227.91 2089.67,337.656 
  2109.95,1162.5 2130.23,406.261 2150.52,1090.97 2170.8,480.44 2191.09,1014.43 2211.37,559.048 2231.66,934.057 2251.94,640.868 2272.23,851.103 2292.51,724.636 
  
  "/>
<polyline clip-path="url(#clip122)" style="stroke:#3da44d; stroke-linecap:butt; stroke-linejoin:round; stroke-width:12; stroke-opacity:1; fill:none" points="
  284.343,787.961 304.627,724.636 324.912,830.11 345.196,682.589 365.481,872.014 385.766,640.868 406.05,913.512 426.335,599.634 446.619,954.442 466.904,559.048 
  487.188,994.646 507.473,519.265 527.757,1033.97 548.042,480.44 568.326,1072.26 588.611,442.724 608.895,1109.37 629.18,406.261 649.464,1145.15 669.749,371.193 
  690.033,1179.47 710.318,337.656 730.602,1212.19 750.887,305.779 771.172,1243.19 791.456,275.686 811.741,1272.35 832.025,247.494 852.31,1299.55 872.594,221.31 
  892.879,1324.69 913.163,197.237 933.448,1347.67 953.732,175.368 974.017,1368.41 994.301,155.788 1014.59,1386.81 1034.87,138.571 1055.15,1402.82 1075.44,123.785 
  1095.72,1416.37 1116.01,111.487 1136.29,1427.41 1156.58,101.724 1176.86,1435.89 1197.15,94.5344 1217.43,1441.78 1237.72,89.9459 1258,1445.06 1278.28,87.9763 
  1298.57,1445.72 1318.85,88.633 1339.14,1443.75 1359.42,91.9137 1379.71,1439.16 1399.99,97.8055 1420.28,1431.97 1440.56,106.286 1460.85,1422.21 1481.13,117.321 
  1501.41,1409.91 1521.7,130.87 1541.98,1395.12 1562.27,146.879 1582.55,1377.9 1602.84,165.287 1623.12,1358.32 1643.41,186.022 1663.69,1336.45 1683.98,209.004 
  1704.26,1312.38 1724.54,234.144 1744.83,1286.2 1765.11,261.345 1785.4,1258.01 1805.68,290.502 1825.97,1227.91 1846.25,321.502 1866.54,1196.04 1886.82,354.225 
  1907.1,1162.5 1927.39,388.544 1947.67,1127.43 1967.96,424.326 1988.24,1090.97 2008.53,461.434 2028.81,1053.25 2049.1,499.724 2069.38,1014.43 2089.67,539.046 
  2109.95,974.644 2130.23,579.25 2150.52,934.057 2170.8,620.18 2191.09,892.824 2211.37,661.678 2231.66,851.103 2251.94,703.582 2272.23,809.056 2292.51,745.731 
  
  "/>
<path clip-path="url(#clip120)" d="
M295.053 1438.47 L1050.39 1438.47 L1050.39 1231.11 L295.053 1231.11  Z
  " fill="#ffffff" fill-rule="evenodd" fill-opacity="1"/>
<polyline clip-path="url(#clip120)" style="stroke:#000000; stroke-linecap:butt; stroke-linejoin:round; stroke-width:4; stroke-opacity:1; fill:none" points="
  295.053,1438.47 1050.39,1438.47 1050.39,1231.11 295.053,1231.11 295.053,1438.47 
  "/>
<polyline clip-path="url(#clip120)" style="stroke:#009af9; stroke-linecap:butt; stroke-linejoin:round; stroke-width:4; stroke-opacity:1; fill:none" points="
  318.705,1282.95 460.615,1282.95 
  "/>
<path clip-path="url(#clip120)" d="M484.938 1296.3 L492.577 1296.3 L492.577 1269.93 L484.267 1271.6 L484.267 1267.34 L492.531 1265.67 L497.207 1265.67 L497.207 1296.3 L504.846 1296.3 L504.846 1300.23 L484.938 1300.23 L484.938 1296.3 Z" fill="#000000" fill-rule="evenodd" fill-opacity="1" /><path clip-path="url(#clip120)" d="M514.29 1294.35 L519.174 1294.35 L519.174 1300.23 L514.29 1300.23 L514.29 1294.35 Z" fill="#000000" fill-rule="evenodd" fill-opacity="1" /><path clip-path="url(#clip120)" d="M529.498 1299.52 L529.498 1295.26 Q531.258 1296.09 533.063 1296.53 Q534.869 1296.97 536.605 1296.97 Q541.234 1296.97 543.665 1293.87 Q546.119 1290.74 546.466 1284.4 Q545.123 1286.39 543.063 1287.46 Q541.003 1288.52 538.503 1288.52 Q533.318 1288.52 530.285 1285.4 Q527.276 1282.25 527.276 1276.81 Q527.276 1271.48 530.424 1268.27 Q533.572 1265.05 538.804 1265.05 Q544.799 1265.05 547.947 1269.66 Q551.119 1274.24 551.119 1282.99 Q551.119 1291.16 547.23 1296.04 Q543.364 1300.91 536.813 1300.91 Q535.054 1300.91 533.248 1300.56 Q531.443 1300.21 529.498 1299.52 M538.804 1284.86 Q541.952 1284.86 543.781 1282.71 Q545.633 1280.56 545.633 1276.81 Q545.633 1273.08 543.781 1270.93 Q541.952 1268.75 538.804 1268.75 Q535.656 1268.75 533.804 1270.93 Q531.975 1273.08 531.975 1276.81 Q531.975 1280.56 533.804 1282.71 Q535.656 1284.86 538.804 1284.86 Z" fill="#000000" fill-rule="evenodd" fill-opacity="1" /><path clip-path="url(#clip120)" d="M559.66 1299.52 L559.66 1295.26 Q561.42 1296.09 563.225 1296.53 Q565.031 1296.97 566.767 1296.97 Q571.396 1296.97 573.827 1293.87 Q576.281 1290.74 576.628 1284.4 Q575.285 1286.39 573.225 1287.46 Q571.165 1288.52 568.665 1288.52 Q563.48 1288.52 560.447 1285.4 Q557.438 1282.25 557.438 1276.81 Q557.438 1271.48 560.586 1268.27 Q563.734 1265.05 568.966 1265.05 Q574.961 1265.05 578.109 1269.66 Q581.281 1274.24 581.281 1282.99 Q581.281 1291.16 577.392 1296.04 Q573.526 1300.91 566.975 1300.91 Q565.216 1300.91 563.41 1300.56 Q561.605 1300.21 559.66 1299.52 M568.966 1284.86 Q572.114 1284.86 573.943 1282.71 Q575.794 1280.56 575.794 1276.81 Q575.794 1273.08 573.943 1270.93 Q572.114 1268.75 568.966 1268.75 Q565.818 1268.75 563.966 1270.93 Q562.137 1273.08 562.137 1276.81 Q562.137 1280.56 563.966 1282.71 Q565.818 1284.86 568.966 1284.86 Z" fill="#000000" fill-rule="evenodd" fill-opacity="1" /><path clip-path="url(#clip120)" d="M589.73 1265.67 L608.086 1265.67 L608.086 1269.61 L594.012 1269.61 L594.012 1278.08 Q595.03 1277.73 596.049 1277.57 Q597.068 1277.39 598.086 1277.39 Q603.873 1277.39 607.253 1280.56 Q610.632 1283.73 610.632 1289.15 Q610.632 1294.73 607.16 1297.83 Q603.688 1300.91 597.368 1300.91 Q595.193 1300.91 592.924 1300.54 Q590.679 1300.16 588.271 1299.42 L588.271 1294.73 Q590.355 1295.86 592.577 1296.41 Q594.799 1296.97 597.276 1296.97 Q601.28 1296.97 603.618 1294.86 Q605.956 1292.76 605.956 1289.15 Q605.956 1285.54 603.618 1283.43 Q601.28 1281.32 597.276 1281.32 Q595.401 1281.32 593.526 1281.74 Q591.674 1282.16 589.73 1283.04 L589.73 1265.67 Z" fill="#000000" fill-rule="evenodd" fill-opacity="1" /><path clip-path="url(#clip120)" d="M630.424 1281.09 Q627.276 1281.09 625.424 1283.24 Q623.595 1285.4 623.595 1289.15 Q623.595 1292.87 625.424 1295.05 Q627.276 1297.2 630.424 1297.2 Q633.572 1297.2 635.401 1295.05 Q637.252 1292.87 637.252 1289.15 Q637.252 1285.4 635.401 1283.24 Q633.572 1281.09 630.424 1281.09 M639.706 1266.44 L639.706 1270.7 Q637.947 1269.86 636.141 1269.42 Q634.359 1268.98 632.6 1268.98 Q627.97 1268.98 625.516 1272.11 Q623.086 1275.23 622.739 1281.55 Q624.104 1279.54 626.165 1278.48 Q628.225 1277.39 630.702 1277.39 Q635.91 1277.39 638.919 1280.56 Q641.952 1283.71 641.952 1289.15 Q641.952 1294.47 638.803 1297.69 Q635.655 1300.91 630.424 1300.91 Q624.428 1300.91 621.257 1296.32 Q618.086 1291.72 618.086 1282.99 Q618.086 1274.79 621.975 1269.93 Q625.864 1265.05 632.415 1265.05 Q634.174 1265.05 635.956 1265.4 Q637.762 1265.74 639.706 1266.44 Z" fill="#000000" fill-rule="evenodd" fill-opacity="1" /><path clip-path="url(#clip120)" d="M662.854 1269.75 L651.049 1288.2 L662.854 1288.2 L662.854 1269.75 M661.627 1265.67 L667.507 1265.67 L667.507 1288.2 L672.437 1288.2 L672.437 1292.09 L667.507 1292.09 L667.507 1300.23 L662.854 1300.23 L662.854 1292.09 L647.252 1292.09 L647.252 1287.57 L661.627 1265.67 Z" fill="#000000" fill-rule="evenodd" fill-opacity="1" /><path clip-path="url(#clip120)" d="M680.308 1299.52 L680.308 1295.26 Q682.067 1296.09 683.873 1296.53 Q685.678 1296.97 687.414 1296.97 Q692.044 1296.97 694.474 1293.87 Q696.928 1290.74 697.275 1284.4 Q695.933 1286.39 693.873 1287.46 Q691.812 1288.52 689.312 1288.52 Q684.127 1288.52 681.095 1285.4 Q678.086 1282.25 678.086 1276.81 Q678.086 1271.48 681.234 1268.27 Q684.382 1265.05 689.613 1265.05 Q695.609 1265.05 698.757 1269.66 Q701.928 1274.24 701.928 1282.99 Q701.928 1291.16 698.039 1296.04 Q694.173 1300.91 687.623 1300.91 Q685.863 1300.91 684.058 1300.56 Q682.252 1300.21 680.308 1299.52 M689.613 1284.86 Q692.761 1284.86 694.59 1282.71 Q696.442 1280.56 696.442 1276.81 Q696.442 1273.08 694.59 1270.93 Q692.761 1268.75 689.613 1268.75 Q686.465 1268.75 684.613 1270.93 Q682.785 1273.08 682.785 1276.81 Q682.785 1280.56 684.613 1282.71 Q686.465 1284.86 689.613 1284.86 Z" fill="#000000" fill-rule="evenodd" fill-opacity="1" /><path clip-path="url(#clip120)" d="M724.497 1281.6 Q727.854 1282.32 729.729 1284.59 Q731.627 1286.85 731.627 1290.19 Q731.627 1295.3 728.108 1298.1 Q724.59 1300.91 718.109 1300.91 Q715.933 1300.91 713.618 1300.47 Q711.326 1300.05 708.872 1299.19 L708.872 1294.68 Q710.817 1295.81 713.132 1296.39 Q715.447 1296.97 717.97 1296.97 Q722.368 1296.97 724.659 1295.23 Q726.974 1293.5 726.974 1290.19 Q726.974 1287.13 724.821 1285.42 Q722.692 1283.68 718.872 1283.68 L714.845 1283.68 L714.845 1279.84 L719.058 1279.84 Q722.507 1279.84 724.335 1278.48 Q726.164 1277.09 726.164 1274.49 Q726.164 1271.83 724.266 1270.42 Q722.391 1268.98 718.872 1268.98 Q716.951 1268.98 714.752 1269.4 Q712.553 1269.82 709.914 1270.7 L709.914 1266.53 Q712.576 1265.79 714.891 1265.42 Q717.229 1265.05 719.289 1265.05 Q724.613 1265.05 727.715 1267.48 Q730.817 1269.89 730.817 1274.01 Q730.817 1276.88 729.173 1278.87 Q727.53 1280.84 724.497 1281.6 Z" fill="#000000" fill-rule="evenodd" fill-opacity="1" /><path clip-path="url(#clip120)" d="M753.34 1269.75 L741.534 1288.2 L753.34 1288.2 L753.34 1269.75 M752.113 1265.67 L757.993 1265.67 L757.993 1288.2 L762.923 1288.2 L762.923 1292.09 L757.993 1292.09 L757.993 1300.23 L753.34 1300.23 L753.34 1292.09 L737.738 1292.09 L737.738 1287.57 L752.113 1265.67 Z" fill="#000000" fill-rule="evenodd" fill-opacity="1" /><path clip-path="url(#clip120)" d="M769.474 1265.67 L791.696 1265.67 L791.696 1267.67 L779.15 1300.23 L774.266 1300.23 L786.071 1269.61 L769.474 1269.61 L769.474 1265.67 Z" fill="#000000" fill-rule="evenodd" fill-opacity="1" /><path clip-path="url(#clip120)" d="M800.955 1299.52 L800.955 1295.26 Q802.715 1296.09 804.52 1296.53 Q806.326 1296.97 808.062 1296.97 Q812.691 1296.97 815.122 1293.87 Q817.576 1290.74 817.923 1284.4 Q816.58 1286.39 814.52 1287.46 Q812.46 1288.52 809.96 1288.52 Q804.775 1288.52 801.742 1285.4 Q798.733 1282.25 798.733 1276.81 Q798.733 1271.48 801.881 1268.27 Q805.029 1265.05 810.261 1265.05 Q816.256 1265.05 819.404 1269.66 Q822.576 1274.24 822.576 1282.99 Q822.576 1291.16 818.687 1296.04 Q814.821 1300.91 808.27 1300.91 Q806.511 1300.91 804.705 1300.56 Q802.9 1300.21 800.955 1299.52 M810.261 1284.86 Q813.409 1284.86 815.238 1282.71 Q817.089 1280.56 817.089 1276.81 Q817.089 1273.08 815.238 1270.93 Q813.409 1268.75 810.261 1268.75 Q807.113 1268.75 805.261 1270.93 Q803.432 1273.08 803.432 1276.81 Q803.432 1280.56 805.261 1282.71 Q807.113 1284.86 810.261 1284.86 Z" fill="#000000" fill-rule="evenodd" fill-opacity="1" /><path clip-path="url(#clip120)" d="M841.557 1281.09 Q838.409 1281.09 836.557 1283.24 Q834.728 1285.4 834.728 1289.15 Q834.728 1292.87 836.557 1295.05 Q838.409 1297.2 841.557 1297.2 Q844.705 1297.2 846.534 1295.05 Q848.386 1292.87 848.386 1289.15 Q848.386 1285.4 846.534 1283.24 Q844.705 1281.09 841.557 1281.09 M850.839 1266.44 L850.839 1270.7 Q849.08 1269.86 847.275 1269.42 Q845.492 1268.98 843.733 1268.98 Q839.103 1268.98 836.65 1272.11 Q834.219 1275.23 833.872 1281.55 Q835.238 1279.54 837.298 1278.48 Q839.358 1277.39 841.835 1277.39 Q847.043 1277.39 850.052 1280.56 Q853.085 1283.71 853.085 1289.15 Q853.085 1294.47 849.937 1297.69 Q846.788 1300.91 841.557 1300.91 Q835.562 1300.91 832.39 1296.32 Q829.219 1291.72 829.219 1282.99 Q829.219 1274.79 833.108 1269.93 Q836.997 1265.05 843.548 1265.05 Q845.307 1265.05 847.089 1265.4 Q848.895 1265.74 850.839 1266.44 Z" fill="#000000" fill-rule="evenodd" fill-opacity="1" /><path clip-path="url(#clip120)" d="M861.279 1299.52 L861.279 1295.26 Q863.038 1296.09 864.844 1296.53 Q866.649 1296.97 868.386 1296.97 Q873.015 1296.97 875.446 1293.87 Q877.899 1290.74 878.247 1284.4 Q876.904 1286.39 874.844 1287.46 Q872.784 1288.52 870.284 1288.52 Q865.098 1288.52 862.066 1285.4 Q859.057 1282.25 859.057 1276.81 Q859.057 1271.48 862.205 1268.27 Q865.353 1265.05 870.585 1265.05 Q876.58 1265.05 879.728 1269.66 Q882.899 1274.24 882.899 1282.99 Q882.899 1291.16 879.01 1296.04 Q875.145 1300.91 868.594 1300.91 Q866.835 1300.91 865.029 1300.56 Q863.223 1300.21 861.279 1299.52 M870.585 1284.86 Q873.733 1284.86 875.561 1282.71 Q877.413 1280.56 877.413 1276.81 Q877.413 1273.08 875.561 1270.93 Q873.733 1268.75 870.585 1268.75 Q867.436 1268.75 865.585 1270.93 Q863.756 1273.08 863.756 1276.81 Q863.756 1280.56 865.585 1282.71 Q867.436 1284.86 870.585 1284.86 Z" fill="#000000" fill-rule="evenodd" fill-opacity="1" /><path clip-path="url(#clip120)" d="M901.302 1268.75 Q897.691 1268.75 895.862 1272.32 Q894.057 1275.86 894.057 1282.99 Q894.057 1290.1 895.862 1293.66 Q897.691 1297.2 901.302 1297.2 Q904.936 1297.2 906.742 1293.66 Q908.57 1290.1 908.57 1282.99 Q908.57 1275.86 906.742 1272.32 Q904.936 1268.75 901.302 1268.75 M901.302 1265.05 Q907.112 1265.05 910.168 1269.66 Q913.246 1274.24 913.246 1282.99 Q913.246 1291.72 910.168 1296.32 Q907.112 1300.91 901.302 1300.91 Q895.492 1300.91 892.413 1296.32 Q889.358 1291.72 889.358 1282.99 Q889.358 1274.24 892.413 1269.66 Q895.492 1265.05 901.302 1265.05 Z" fill="#000000" fill-rule="evenodd" fill-opacity="1" /><path clip-path="url(#clip120)" d="M922.274 1296.3 L929.913 1296.3 L929.913 1269.93 L921.603 1271.6 L921.603 1267.34 L929.867 1265.67 L934.543 1265.67 L934.543 1296.3 L942.181 1296.3 L942.181 1300.23 L922.274 1300.23 L922.274 1296.3 Z" fill="#000000" fill-rule="evenodd" fill-opacity="1" /><path clip-path="url(#clip120)" d="M961.626 1283.82 Q958.292 1283.82 956.371 1285.6 Q954.473 1287.39 954.473 1290.51 Q954.473 1293.64 956.371 1295.42 Q958.292 1297.2 961.626 1297.2 Q964.959 1297.2 966.88 1295.42 Q968.802 1293.61 968.802 1290.51 Q968.802 1287.39 966.88 1285.6 Q964.982 1283.82 961.626 1283.82 M956.95 1281.83 Q953.941 1281.09 952.251 1279.03 Q950.584 1276.97 950.584 1274.01 Q950.584 1269.86 953.524 1267.46 Q956.487 1265.05 961.626 1265.05 Q966.788 1265.05 969.728 1267.46 Q972.667 1269.86 972.667 1274.01 Q972.667 1276.97 970.978 1279.03 Q969.311 1281.09 966.325 1281.83 Q969.704 1282.62 971.579 1284.91 Q973.478 1287.2 973.478 1290.51 Q973.478 1295.54 970.399 1298.22 Q967.343 1300.91 961.626 1300.91 Q955.908 1300.91 952.829 1298.22 Q949.774 1295.54 949.774 1290.51 Q949.774 1287.2 951.672 1284.91 Q953.57 1282.62 956.95 1281.83 M955.237 1274.45 Q955.237 1277.13 956.904 1278.64 Q958.593 1280.14 961.626 1280.14 Q964.635 1280.14 966.325 1278.64 Q968.038 1277.13 968.038 1274.45 Q968.038 1271.76 966.325 1270.26 Q964.635 1268.75 961.626 1268.75 Q958.593 1268.75 956.904 1270.26 Q955.237 1271.76 955.237 1274.45 Z" fill="#000000" fill-rule="evenodd" fill-opacity="1" /><path clip-path="url(#clip120)" d="M981.834 1265.67 L1000.19 1265.67 L1000.19 1269.61 L986.116 1269.61 L986.116 1278.08 Q987.135 1277.73 988.153 1277.57 Q989.172 1277.39 990.19 1277.39 Q995.977 1277.39 999.357 1280.56 Q1002.74 1283.73 1002.74 1289.15 Q1002.74 1294.73 999.264 1297.83 Q995.792 1300.91 989.473 1300.91 Q987.297 1300.91 985.028 1300.54 Q982.783 1300.16 980.376 1299.42 L980.376 1294.73 Q982.459 1295.86 984.681 1296.41 Q986.903 1296.97 989.38 1296.97 Q993.385 1296.97 995.723 1294.86 Q998.061 1292.76 998.061 1289.15 Q998.061 1285.54 995.723 1283.43 Q993.385 1281.32 989.38 1281.32 Q987.505 1281.32 985.63 1281.74 Q983.778 1282.16 981.834 1283.04 L981.834 1265.67 Z" fill="#000000" fill-rule="evenodd" fill-opacity="1" /><polyline clip-path="url(#clip120)" style="stroke:#e26f46; stroke-linecap:butt; stroke-linejoin:round; stroke-width:4; stroke-opacity:1; fill:none" points="
  318.705,1334.79 460.615,1334.79 
  "/>
<path clip-path="url(#clip120)" d="M484.938 1348.14 L492.577 1348.14 L492.577 1321.77 L484.267 1323.44 L484.267 1319.18 L492.531 1317.51 L497.207 1317.51 L497.207 1348.14 L504.846 1348.14 L504.846 1352.07 L484.938 1352.07 L484.938 1348.14 Z" fill="#000000" fill-rule="evenodd" fill-opacity="1" /><path clip-path="url(#clip120)" d="M514.29 1346.19 L519.174 1346.19 L519.174 1352.07 L514.29 1352.07 L514.29 1346.19 Z" fill="#000000" fill-rule="evenodd" fill-opacity="1" /><path clip-path="url(#clip120)" d="M529.498 1351.36 L529.498 1347.1 Q531.258 1347.93 533.063 1348.37 Q534.869 1348.81 536.605 1348.81 Q541.234 1348.81 543.665 1345.71 Q546.119 1342.58 546.466 1336.24 Q545.123 1338.23 543.063 1339.3 Q541.003 1340.36 538.503 1340.36 Q533.318 1340.36 530.285 1337.24 Q527.276 1334.09 527.276 1328.65 Q527.276 1323.32 530.424 1320.11 Q533.572 1316.89 538.804 1316.89 Q544.799 1316.89 547.947 1321.5 Q551.119 1326.08 551.119 1334.83 Q551.119 1343 547.23 1347.88 Q543.364 1352.75 536.813 1352.75 Q535.054 1352.75 533.248 1352.4 Q531.443 1352.05 529.498 1351.36 M538.804 1336.7 Q541.952 1336.7 543.781 1334.55 Q545.633 1332.4 545.633 1328.65 Q545.633 1324.92 543.781 1322.77 Q541.952 1320.59 538.804 1320.59 Q535.656 1320.59 533.804 1322.77 Q531.975 1324.92 531.975 1328.65 Q531.975 1332.4 533.804 1334.55 Q535.656 1336.7 538.804 1336.7 Z" fill="#000000" fill-rule="evenodd" fill-opacity="1" /><path clip-path="url(#clip120)" d="M559.66 1351.36 L559.66 1347.1 Q561.42 1347.93 563.225 1348.37 Q565.031 1348.81 566.767 1348.81 Q571.396 1348.81 573.827 1345.71 Q576.281 1342.58 576.628 1336.24 Q575.285 1338.23 573.225 1339.3 Q571.165 1340.36 568.665 1340.36 Q563.48 1340.36 560.447 1337.24 Q557.438 1334.09 557.438 1328.65 Q557.438 1323.32 560.586 1320.11 Q563.734 1316.89 568.966 1316.89 Q574.961 1316.89 578.109 1321.5 Q581.281 1326.08 581.281 1334.83 Q581.281 1343 577.392 1347.88 Q573.526 1352.75 566.975 1352.75 Q565.216 1352.75 563.41 1352.4 Q561.605 1352.05 559.66 1351.36 M568.966 1336.7 Q572.114 1336.7 573.943 1334.55 Q575.794 1332.4 575.794 1328.65 Q575.794 1324.92 573.943 1322.77 Q572.114 1320.59 568.966 1320.59 Q565.818 1320.59 563.966 1322.77 Q562.137 1324.92 562.137 1328.65 Q562.137 1332.4 563.966 1334.55 Q565.818 1336.7 568.966 1336.7 Z" fill="#000000" fill-rule="evenodd" fill-opacity="1" /><path clip-path="url(#clip120)" d="M599.683 1335.66 Q596.35 1335.66 594.429 1337.44 Q592.53 1339.23 592.53 1342.35 Q592.53 1345.48 594.429 1347.26 Q596.35 1349.04 599.683 1349.04 Q603.017 1349.04 604.938 1347.26 Q606.859 1345.45 606.859 1342.35 Q606.859 1339.23 604.938 1337.44 Q603.04 1335.66 599.683 1335.66 M595.007 1333.67 Q591.998 1332.93 590.308 1330.87 Q588.642 1328.81 588.642 1325.85 Q588.642 1321.7 591.581 1319.3 Q594.544 1316.89 599.683 1316.89 Q604.845 1316.89 607.785 1319.3 Q610.725 1321.7 610.725 1325.85 Q610.725 1328.81 609.035 1330.87 Q607.368 1332.93 604.382 1333.67 Q607.762 1334.46 609.637 1336.75 Q611.535 1339.04 611.535 1342.35 Q611.535 1347.38 608.456 1350.06 Q605.401 1352.75 599.683 1352.75 Q593.966 1352.75 590.887 1350.06 Q587.831 1347.38 587.831 1342.35 Q587.831 1339.04 589.73 1336.75 Q591.628 1334.46 595.007 1333.67 M593.294 1326.29 Q593.294 1328.97 594.961 1330.48 Q596.651 1331.98 599.683 1331.98 Q602.692 1331.98 604.382 1330.48 Q606.095 1328.97 606.095 1326.29 Q606.095 1323.6 604.382 1322.1 Q602.692 1320.59 599.683 1320.59 Q596.651 1320.59 594.961 1322.1 Q593.294 1323.6 593.294 1326.29 Z" fill="#000000" fill-rule="evenodd" fill-opacity="1" /><path clip-path="url(#clip120)" d="M629.845 1320.59 Q626.234 1320.59 624.405 1324.16 Q622.6 1327.7 622.6 1334.83 Q622.6 1341.94 624.405 1345.5 Q626.234 1349.04 629.845 1349.04 Q633.479 1349.04 635.285 1345.5 Q637.114 1341.94 637.114 1334.83 Q637.114 1327.7 635.285 1324.16 Q633.479 1320.59 629.845 1320.59 M629.845 1316.89 Q635.655 1316.89 638.711 1321.5 Q641.789 1326.08 641.789 1334.83 Q641.789 1343.56 638.711 1348.16 Q635.655 1352.75 629.845 1352.75 Q624.035 1352.75 620.956 1348.16 Q617.901 1343.56 617.901 1334.83 Q617.901 1326.08 620.956 1321.5 Q624.035 1316.89 629.845 1316.89 Z" fill="#000000" fill-rule="evenodd" fill-opacity="1" /><path clip-path="url(#clip120)" d="M660.586 1332.93 Q657.438 1332.93 655.586 1335.08 Q653.757 1337.24 653.757 1340.99 Q653.757 1344.71 655.586 1346.89 Q657.438 1349.04 660.586 1349.04 Q663.734 1349.04 665.563 1346.89 Q667.414 1344.71 667.414 1340.99 Q667.414 1337.24 665.563 1335.08 Q663.734 1332.93 660.586 1332.93 M669.868 1318.28 L669.868 1322.54 Q668.109 1321.7 666.303 1321.26 Q664.521 1320.82 662.762 1320.82 Q658.132 1320.82 655.678 1323.95 Q653.248 1327.07 652.901 1333.39 Q654.266 1331.38 656.326 1330.32 Q658.387 1329.23 660.863 1329.23 Q666.072 1329.23 669.081 1332.4 Q672.113 1335.55 672.113 1340.99 Q672.113 1346.31 668.965 1349.53 Q665.817 1352.75 660.586 1352.75 Q654.59 1352.75 651.419 1348.16 Q648.248 1343.56 648.248 1334.83 Q648.248 1326.63 652.137 1321.77 Q656.026 1316.89 662.576 1316.89 Q664.336 1316.89 666.118 1317.24 Q667.924 1317.58 669.868 1318.28 Z" fill="#000000" fill-rule="evenodd" fill-opacity="1" /><path clip-path="url(#clip120)" d="M680.215 1317.51 L698.572 1317.51 L698.572 1321.45 L684.498 1321.45 L684.498 1329.92 Q685.516 1329.57 686.535 1329.41 Q687.553 1329.23 688.572 1329.23 Q694.359 1329.23 697.738 1332.4 Q701.118 1335.57 701.118 1340.99 Q701.118 1346.57 697.646 1349.67 Q694.173 1352.75 687.854 1352.75 Q685.678 1352.75 683.41 1352.38 Q681.164 1352 678.757 1351.26 L678.757 1346.57 Q680.84 1347.7 683.062 1348.25 Q685.285 1348.81 687.761 1348.81 Q691.766 1348.81 694.104 1346.7 Q696.442 1344.6 696.442 1340.99 Q696.442 1337.38 694.104 1335.27 Q691.766 1333.16 687.761 1333.16 Q685.886 1333.16 684.011 1333.58 Q682.16 1334 680.215 1334.88 L680.215 1317.51 Z" fill="#000000" fill-rule="evenodd" fill-opacity="1" /><path clip-path="url(#clip120)" d="M710.377 1317.51 L728.733 1317.51 L728.733 1321.45 L714.659 1321.45 L714.659 1329.92 Q715.678 1329.57 716.696 1329.41 Q717.715 1329.23 718.734 1329.23 Q724.521 1329.23 727.9 1332.4 Q731.28 1335.57 731.28 1340.99 Q731.28 1346.57 727.808 1349.67 Q724.335 1352.75 718.016 1352.75 Q715.84 1352.75 713.572 1352.38 Q711.326 1352 708.919 1351.26 L708.919 1346.57 Q711.002 1347.7 713.224 1348.25 Q715.447 1348.81 717.923 1348.81 Q721.928 1348.81 724.266 1346.7 Q726.604 1344.6 726.604 1340.99 Q726.604 1337.38 724.266 1335.27 Q721.928 1333.16 717.923 1333.16 Q716.048 1333.16 714.173 1333.58 Q712.322 1334 710.377 1334.88 L710.377 1317.51 Z" fill="#000000" fill-rule="evenodd" fill-opacity="1" /><path clip-path="url(#clip120)" d="M740.632 1351.36 L740.632 1347.1 Q742.391 1347.93 744.196 1348.37 Q746.002 1348.81 747.738 1348.81 Q752.368 1348.81 754.798 1345.71 Q757.252 1342.58 757.599 1336.24 Q756.256 1338.23 754.196 1339.3 Q752.136 1340.36 749.636 1340.36 Q744.451 1340.36 741.419 1337.24 Q738.409 1334.09 738.409 1328.65 Q738.409 1323.32 741.557 1320.11 Q744.706 1316.89 749.937 1316.89 Q755.932 1316.89 759.081 1321.5 Q762.252 1326.08 762.252 1334.83 Q762.252 1343 758.363 1347.88 Q754.497 1352.75 747.946 1352.75 Q746.187 1352.75 744.382 1352.4 Q742.576 1352.05 740.632 1351.36 M749.937 1336.7 Q753.085 1336.7 754.914 1334.55 Q756.766 1332.4 756.766 1328.65 Q756.766 1324.92 754.914 1322.77 Q753.085 1320.59 749.937 1320.59 Q746.789 1320.59 744.937 1322.77 Q743.108 1324.92 743.108 1328.65 Q743.108 1332.4 744.937 1334.55 Q746.789 1336.7 749.937 1336.7 Z" fill="#000000" fill-rule="evenodd" fill-opacity="1" /><path clip-path="url(#clip120)" d="M769.474 1317.51 L791.696 1317.51 L791.696 1319.51 L779.15 1352.07 L774.266 1352.07 L786.071 1321.45 L769.474 1321.45 L769.474 1317.51 Z" fill="#000000" fill-rule="evenodd" fill-opacity="1" /><path clip-path="url(#clip120)" d="M801.627 1348.14 L809.265 1348.14 L809.265 1321.77 L800.955 1323.44 L800.955 1319.18 L809.219 1317.51 L813.895 1317.51 L813.895 1348.14 L821.534 1348.14 L821.534 1352.07 L801.627 1352.07 L801.627 1348.14 Z" fill="#000000" fill-rule="evenodd" fill-opacity="1" /><path clip-path="url(#clip120)" d="M845.145 1333.44 Q848.501 1334.16 850.376 1336.43 Q852.274 1338.69 852.274 1342.03 Q852.274 1347.14 848.756 1349.94 Q845.237 1352.75 838.756 1352.75 Q836.58 1352.75 834.265 1352.31 Q831.974 1351.89 829.52 1351.03 L829.52 1346.52 Q831.464 1347.65 833.779 1348.23 Q836.094 1348.81 838.617 1348.81 Q843.015 1348.81 845.307 1347.07 Q847.622 1345.34 847.622 1342.03 Q847.622 1338.97 845.469 1337.26 Q843.339 1335.52 839.52 1335.52 L835.492 1335.52 L835.492 1331.68 L839.705 1331.68 Q843.154 1331.68 844.983 1330.32 Q846.812 1328.93 846.812 1326.33 Q846.812 1323.67 844.913 1322.26 Q843.038 1320.82 839.52 1320.82 Q837.599 1320.82 835.4 1321.24 Q833.201 1321.66 830.562 1322.54 L830.562 1318.37 Q833.224 1317.63 835.538 1317.26 Q837.876 1316.89 839.937 1316.89 Q845.261 1316.89 848.362 1319.32 Q851.464 1321.73 851.464 1325.85 Q851.464 1328.72 849.821 1330.71 Q848.177 1332.68 845.145 1333.44 Z" fill="#000000" fill-rule="evenodd" fill-opacity="1" /><path clip-path="url(#clip120)" d="M875.307 1333.44 Q878.663 1334.16 880.538 1336.43 Q882.436 1338.69 882.436 1342.03 Q882.436 1347.14 878.918 1349.94 Q875.399 1352.75 868.918 1352.75 Q866.742 1352.75 864.427 1352.31 Q862.136 1351.89 859.682 1351.03 L859.682 1346.52 Q861.626 1347.65 863.941 1348.23 Q866.256 1348.81 868.779 1348.81 Q873.177 1348.81 875.469 1347.07 Q877.784 1345.34 877.784 1342.03 Q877.784 1338.97 875.631 1337.26 Q873.501 1335.52 869.682 1335.52 L865.654 1335.52 L865.654 1331.68 L869.867 1331.68 Q873.316 1331.68 875.145 1330.32 Q876.973 1328.93 876.973 1326.33 Q876.973 1323.67 875.075 1322.26 Q873.2 1320.82 869.682 1320.82 Q867.761 1320.82 865.561 1321.24 Q863.362 1321.66 860.724 1322.54 L860.724 1318.37 Q863.386 1317.63 865.7 1317.26 Q868.038 1316.89 870.098 1316.89 Q875.422 1316.89 878.524 1319.32 Q881.626 1321.73 881.626 1325.85 Q881.626 1328.72 879.983 1330.71 Q878.339 1332.68 875.307 1333.44 Z" fill="#000000" fill-rule="evenodd" fill-opacity="1" /><path clip-path="url(#clip120)" d="M891.348 1317.51 L909.705 1317.51 L909.705 1321.45 L895.631 1321.45 L895.631 1329.92 Q896.649 1329.57 897.668 1329.41 Q898.686 1329.23 899.705 1329.23 Q905.492 1329.23 908.871 1332.4 Q912.251 1335.57 912.251 1340.99 Q912.251 1346.57 908.779 1349.67 Q905.307 1352.75 898.987 1352.75 Q896.811 1352.75 894.543 1352.38 Q892.297 1352 889.89 1351.26 L889.89 1346.57 Q891.973 1347.7 894.196 1348.25 Q896.418 1348.81 898.895 1348.81 Q902.899 1348.81 905.237 1346.7 Q907.575 1344.6 907.575 1340.99 Q907.575 1337.38 905.237 1335.27 Q902.899 1333.16 898.895 1333.16 Q897.02 1333.16 895.145 1333.58 Q893.293 1334 891.348 1334.88 L891.348 1317.51 Z" fill="#000000" fill-rule="evenodd" fill-opacity="1" /><path clip-path="url(#clip120)" d="M921.603 1351.36 L921.603 1347.1 Q923.362 1347.93 925.168 1348.37 Q926.973 1348.81 928.709 1348.81 Q933.339 1348.81 935.769 1345.71 Q938.223 1342.58 938.57 1336.24 Q937.228 1338.23 935.168 1339.3 Q933.107 1340.36 930.607 1340.36 Q925.422 1340.36 922.39 1337.24 Q919.381 1334.09 919.381 1328.65 Q919.381 1323.32 922.529 1320.11 Q925.677 1316.89 930.908 1316.89 Q936.904 1316.89 940.052 1321.5 Q943.223 1326.08 943.223 1334.83 Q943.223 1343 939.334 1347.88 Q935.468 1352.75 928.918 1352.75 Q927.158 1352.75 925.353 1352.4 Q923.547 1352.05 921.603 1351.36 M930.908 1336.7 Q934.056 1336.7 935.885 1334.55 Q937.737 1332.4 937.737 1328.65 Q937.737 1324.92 935.885 1322.77 Q934.056 1320.59 930.908 1320.59 Q927.76 1320.59 925.908 1322.77 Q924.08 1324.92 924.08 1328.65 Q924.08 1332.4 925.908 1334.55 Q927.76 1336.7 930.908 1336.7 Z" fill="#000000" fill-rule="evenodd" fill-opacity="1" /><path clip-path="url(#clip120)" d="M964.473 1321.59 L952.667 1340.04 L964.473 1340.04 L964.473 1321.59 M963.246 1317.51 L969.126 1317.51 L969.126 1340.04 L974.056 1340.04 L974.056 1343.93 L969.126 1343.93 L969.126 1352.07 L964.473 1352.07 L964.473 1343.93 L948.871 1343.93 L948.871 1339.41 L963.246 1317.51 Z" fill="#000000" fill-rule="evenodd" fill-opacity="1" /><path clip-path="url(#clip120)" d="M995.954 1333.44 Q999.311 1334.16 1001.19 1336.43 Q1003.08 1338.69 1003.08 1342.03 Q1003.08 1347.14 999.565 1349.94 Q996.047 1352.75 989.565 1352.75 Q987.389 1352.75 985.075 1352.31 Q982.783 1351.89 980.329 1351.03 L980.329 1346.52 Q982.274 1347.65 984.589 1348.23 Q986.903 1348.81 989.427 1348.81 Q993.825 1348.81 996.116 1347.07 Q998.431 1345.34 998.431 1342.03 Q998.431 1338.97 996.278 1337.26 Q994.149 1335.52 990.329 1335.52 L986.302 1335.52 L986.302 1331.68 L990.514 1331.68 Q993.964 1331.68 995.792 1330.32 Q997.621 1328.93 997.621 1326.33 Q997.621 1323.67 995.723 1322.26 Q993.848 1320.82 990.329 1320.82 Q988.408 1320.82 986.209 1321.24 Q984.01 1321.66 981.371 1322.54 L981.371 1318.37 Q984.033 1317.63 986.348 1317.26 Q988.686 1316.89 990.746 1316.89 Q996.07 1316.89 999.172 1319.32 Q1002.27 1321.73 1002.27 1325.85 Q1002.27 1328.72 1000.63 1330.71 Q998.987 1332.68 995.954 1333.44 Z" fill="#000000" fill-rule="evenodd" fill-opacity="1" /><polyline clip-path="url(#clip120)" style="stroke:#3da44d; stroke-linecap:butt; stroke-linejoin:round; stroke-width:4; stroke-opacity:1; fill:none" points="
  318.705,1386.63 460.615,1386.63 
  "/>
<path clip-path="url(#clip120)" d="M484.938 1399.98 L492.577 1399.98 L492.577 1373.61 L484.267 1375.28 L484.267 1371.02 L492.531 1369.35 L497.207 1369.35 L497.207 1399.98 L504.846 1399.98 L504.846 1403.91 L484.938 1403.91 L484.938 1399.98 Z" fill="#000000" fill-rule="evenodd" fill-opacity="1" /><path clip-path="url(#clip120)" d="M514.29 1398.03 L519.174 1398.03 L519.174 1403.91 L514.29 1403.91 L514.29 1398.03 Z" fill="#000000" fill-rule="evenodd" fill-opacity="1" /><path clip-path="url(#clip120)" d="M529.498 1403.2 L529.498 1398.94 Q531.258 1399.77 533.063 1400.21 Q534.869 1400.65 536.605 1400.65 Q541.234 1400.65 543.665 1397.55 Q546.119 1394.42 546.466 1388.08 Q545.123 1390.07 543.063 1391.14 Q541.003 1392.2 538.503 1392.2 Q533.318 1392.2 530.285 1389.08 Q527.276 1385.93 527.276 1380.49 Q527.276 1375.16 530.424 1371.95 Q533.572 1368.73 538.804 1368.73 Q544.799 1368.73 547.947 1373.34 Q551.119 1377.92 551.119 1386.67 Q551.119 1394.84 547.23 1399.72 Q543.364 1404.59 536.813 1404.59 Q535.054 1404.59 533.248 1404.24 Q531.443 1403.89 529.498 1403.2 M538.804 1388.54 Q541.952 1388.54 543.781 1386.39 Q545.633 1384.24 545.633 1380.49 Q545.633 1376.76 543.781 1374.61 Q541.952 1372.43 538.804 1372.43 Q535.656 1372.43 533.804 1374.61 Q531.975 1376.76 531.975 1380.49 Q531.975 1384.24 533.804 1386.39 Q535.656 1388.54 538.804 1388.54 Z" fill="#000000" fill-rule="evenodd" fill-opacity="1" /><path clip-path="url(#clip120)" d="M559.66 1403.2 L559.66 1398.94 Q561.42 1399.77 563.225 1400.21 Q565.031 1400.65 566.767 1400.65 Q571.396 1400.65 573.827 1397.55 Q576.281 1394.42 576.628 1388.08 Q575.285 1390.07 573.225 1391.14 Q571.165 1392.2 568.665 1392.2 Q563.48 1392.2 560.447 1389.08 Q557.438 1385.93 557.438 1380.49 Q557.438 1375.16 560.586 1371.95 Q563.734 1368.73 568.966 1368.73 Q574.961 1368.73 578.109 1373.34 Q581.281 1377.92 581.281 1386.67 Q581.281 1394.84 577.392 1399.72 Q573.526 1404.59 566.975 1404.59 Q565.216 1404.59 563.41 1404.24 Q561.605 1403.89 559.66 1403.2 M568.966 1388.54 Q572.114 1388.54 573.943 1386.39 Q575.794 1384.24 575.794 1380.49 Q575.794 1376.76 573.943 1374.61 Q572.114 1372.43 568.966 1372.43 Q565.818 1372.43 563.966 1374.61 Q562.137 1376.76 562.137 1380.49 Q562.137 1384.24 563.966 1386.39 Q565.818 1388.54 568.966 1388.54 Z" fill="#000000" fill-rule="evenodd" fill-opacity="1" /><path clip-path="url(#clip120)" d="M589.822 1403.2 L589.822 1398.94 Q591.581 1399.77 593.387 1400.21 Q595.193 1400.65 596.929 1400.65 Q601.558 1400.65 603.989 1397.55 Q606.442 1394.42 606.79 1388.08 Q605.447 1390.07 603.387 1391.14 Q601.327 1392.2 598.827 1392.2 Q593.642 1392.2 590.609 1389.08 Q587.6 1385.93 587.6 1380.49 Q587.6 1375.16 590.748 1371.95 Q593.896 1368.73 599.128 1368.73 Q605.123 1368.73 608.271 1373.34 Q611.442 1377.92 611.442 1386.67 Q611.442 1394.84 607.554 1399.72 Q603.688 1404.59 597.137 1404.59 Q595.378 1404.59 593.572 1404.24 Q591.767 1403.89 589.822 1403.2 M599.128 1388.54 Q602.276 1388.54 604.105 1386.39 Q605.956 1384.24 605.956 1380.49 Q605.956 1376.76 604.105 1374.61 Q602.276 1372.43 599.128 1372.43 Q595.98 1372.43 594.128 1374.61 Q592.299 1376.76 592.299 1380.49 Q592.299 1384.24 594.128 1386.39 Q595.98 1388.54 599.128 1388.54 Z" fill="#000000" fill-rule="evenodd" fill-opacity="1" /><path clip-path="url(#clip120)" d="M619.891 1369.35 L638.248 1369.35 L638.248 1373.29 L624.174 1373.29 L624.174 1381.76 Q625.192 1381.41 626.211 1381.25 Q627.229 1381.07 628.248 1381.07 Q634.035 1381.07 637.415 1384.24 Q640.794 1387.41 640.794 1392.83 Q640.794 1398.41 637.322 1401.51 Q633.85 1404.59 627.53 1404.59 Q625.354 1404.59 623.086 1404.22 Q620.841 1403.84 618.433 1403.1 L618.433 1398.41 Q620.516 1399.54 622.739 1400.09 Q624.961 1400.65 627.438 1400.65 Q631.442 1400.65 633.78 1398.54 Q636.118 1396.44 636.118 1392.83 Q636.118 1389.22 633.78 1387.11 Q631.442 1385 627.438 1385 Q625.563 1385 623.688 1385.42 Q621.836 1385.84 619.891 1386.72 L619.891 1369.35 Z" fill="#000000" fill-rule="evenodd" fill-opacity="1" /><path clip-path="url(#clip120)" d="M650.817 1399.98 L658.456 1399.98 L658.456 1373.61 L650.146 1375.28 L650.146 1371.02 L658.41 1369.35 L663.086 1369.35 L663.086 1399.98 L670.725 1399.98 L670.725 1403.91 L650.817 1403.91 L650.817 1399.98 Z" fill="#000000" fill-rule="evenodd" fill-opacity="1" /><path clip-path="url(#clip120)" d="M690.748 1384.77 Q687.599 1384.77 685.748 1386.92 Q683.919 1389.08 683.919 1392.83 Q683.919 1396.55 685.748 1398.73 Q687.599 1400.88 690.748 1400.88 Q693.896 1400.88 695.724 1398.73 Q697.576 1396.55 697.576 1392.83 Q697.576 1389.08 695.724 1386.92 Q693.896 1384.77 690.748 1384.77 M700.03 1370.12 L700.03 1374.38 Q698.271 1373.54 696.465 1373.1 Q694.683 1372.66 692.923 1372.66 Q688.294 1372.66 685.84 1375.79 Q683.41 1378.91 683.062 1385.23 Q684.428 1383.22 686.488 1382.16 Q688.549 1381.07 691.025 1381.07 Q696.234 1381.07 699.243 1384.24 Q702.275 1387.39 702.275 1392.83 Q702.275 1398.15 699.127 1401.37 Q695.979 1404.59 690.748 1404.59 Q684.752 1404.59 681.581 1400 Q678.41 1395.4 678.41 1386.67 Q678.41 1378.47 682.299 1373.61 Q686.187 1368.73 692.738 1368.73 Q694.498 1368.73 696.28 1369.08 Q698.085 1369.42 700.03 1370.12 Z" fill="#000000" fill-rule="evenodd" fill-opacity="1" /><path clip-path="url(#clip120)" d="M714.359 1399.98 L730.678 1399.98 L730.678 1403.91 L708.734 1403.91 L708.734 1399.98 Q711.396 1397.22 715.979 1392.6 Q720.585 1387.94 721.766 1386.6 Q724.011 1384.08 724.891 1382.34 Q725.794 1380.58 725.794 1378.89 Q725.794 1376.14 723.849 1374.4 Q721.928 1372.66 718.826 1372.66 Q716.627 1372.66 714.173 1373.43 Q711.743 1374.19 708.965 1375.74 L708.965 1371.02 Q711.789 1369.89 714.243 1369.31 Q716.696 1368.73 718.734 1368.73 Q724.104 1368.73 727.298 1371.41 Q730.493 1374.1 730.493 1378.59 Q730.493 1380.72 729.683 1382.64 Q728.896 1384.54 726.789 1387.13 Q726.21 1387.8 723.109 1391.02 Q720.007 1394.22 714.359 1399.98 Z" fill="#000000" fill-rule="evenodd" fill-opacity="1" /><path clip-path="url(#clip120)" d="M750.493 1387.5 Q747.159 1387.5 745.238 1389.28 Q743.34 1391.07 743.34 1394.19 Q743.34 1397.32 745.238 1399.1 Q747.159 1400.88 750.493 1400.88 Q753.826 1400.88 755.747 1399.1 Q757.669 1397.29 757.669 1394.19 Q757.669 1391.07 755.747 1389.28 Q753.849 1387.5 750.493 1387.5 M745.817 1385.51 Q742.807 1384.77 741.118 1382.71 Q739.451 1380.65 739.451 1377.69 Q739.451 1373.54 742.391 1371.14 Q745.354 1368.73 750.493 1368.73 Q755.655 1368.73 758.594 1371.14 Q761.534 1373.54 761.534 1377.69 Q761.534 1380.65 759.844 1382.71 Q758.178 1384.77 755.192 1385.51 Q758.571 1386.3 760.446 1388.59 Q762.344 1390.88 762.344 1394.19 Q762.344 1399.22 759.266 1401.9 Q756.21 1404.59 750.493 1404.59 Q744.775 1404.59 741.696 1401.9 Q738.641 1399.22 738.641 1394.19 Q738.641 1390.88 740.539 1388.59 Q742.437 1386.3 745.817 1385.51 M744.104 1378.13 Q744.104 1380.81 745.77 1382.32 Q747.46 1383.82 750.493 1383.82 Q753.502 1383.82 755.192 1382.32 Q756.905 1380.81 756.905 1378.13 Q756.905 1375.44 755.192 1373.94 Q753.502 1372.43 750.493 1372.43 Q747.46 1372.43 745.77 1373.94 Q744.104 1375.44 744.104 1378.13 Z" fill="#000000" fill-rule="evenodd" fill-opacity="1" /><path clip-path="url(#clip120)" d="M774.682 1399.98 L791.002 1399.98 L791.002 1403.91 L769.057 1403.91 L769.057 1399.98 Q771.719 1397.22 776.303 1392.6 Q780.909 1387.94 782.09 1386.6 Q784.335 1384.08 785.215 1382.34 Q786.117 1380.58 786.117 1378.89 Q786.117 1376.14 784.173 1374.4 Q782.252 1372.66 779.15 1372.66 Q776.951 1372.66 774.497 1373.43 Q772.067 1374.19 769.289 1375.74 L769.289 1371.02 Q772.113 1369.89 774.567 1369.31 Q777.02 1368.73 779.057 1368.73 Q784.428 1368.73 787.622 1371.41 Q790.816 1374.1 790.816 1378.59 Q790.816 1380.72 790.006 1382.64 Q789.219 1384.54 787.113 1387.13 Q786.534 1387.8 783.432 1391.02 Q780.33 1394.22 774.682 1399.98 Z" fill="#000000" fill-rule="evenodd" fill-opacity="1" /><path clip-path="url(#clip120)" d="M804.844 1399.98 L821.164 1399.98 L821.164 1403.91 L799.219 1403.91 L799.219 1399.98 Q801.881 1397.22 806.465 1392.6 Q811.071 1387.94 812.252 1386.6 Q814.497 1384.08 815.377 1382.34 Q816.279 1380.58 816.279 1378.89 Q816.279 1376.14 814.335 1374.4 Q812.414 1372.66 809.312 1372.66 Q807.113 1372.66 804.659 1373.43 Q802.228 1374.19 799.451 1375.74 L799.451 1371.02 Q802.275 1369.89 804.728 1369.31 Q807.182 1368.73 809.219 1368.73 Q814.589 1368.73 817.784 1371.41 Q820.978 1374.1 820.978 1378.59 Q820.978 1380.72 820.168 1382.64 Q819.381 1384.54 817.275 1387.13 Q816.696 1387.8 813.594 1391.02 Q810.492 1394.22 804.844 1399.98 Z" fill="#000000" fill-rule="evenodd" fill-opacity="1" /><path clip-path="url(#clip120)" d="M831.117 1403.2 L831.117 1398.94 Q832.876 1399.77 834.682 1400.21 Q836.488 1400.65 838.224 1400.65 Q842.853 1400.65 845.284 1397.55 Q847.737 1394.42 848.085 1388.08 Q846.742 1390.07 844.682 1391.14 Q842.622 1392.2 840.122 1392.2 Q834.937 1392.2 831.904 1389.08 Q828.895 1385.93 828.895 1380.49 Q828.895 1375.16 832.043 1371.95 Q835.191 1368.73 840.423 1368.73 Q846.418 1368.73 849.566 1373.34 Q852.737 1377.92 852.737 1386.67 Q852.737 1394.84 848.849 1399.72 Q844.983 1404.59 838.432 1404.59 Q836.673 1404.59 834.867 1404.24 Q833.062 1403.89 831.117 1403.2 M840.423 1388.54 Q843.571 1388.54 845.4 1386.39 Q847.251 1384.24 847.251 1380.49 Q847.251 1376.76 845.4 1374.61 Q843.571 1372.43 840.423 1372.43 Q837.275 1372.43 835.423 1374.61 Q833.594 1376.76 833.594 1380.49 Q833.594 1384.24 835.423 1386.39 Q837.275 1388.54 840.423 1388.54 Z" fill="#000000" fill-rule="evenodd" fill-opacity="1" /><path clip-path="url(#clip120)" d="M861.95 1399.98 L869.589 1399.98 L869.589 1373.61 L861.279 1375.28 L861.279 1371.02 L869.543 1369.35 L874.219 1369.35 L874.219 1399.98 L881.858 1399.98 L881.858 1403.91 L861.95 1403.91 L861.95 1399.98 Z" fill="#000000" fill-rule="evenodd" fill-opacity="1" /><path clip-path="url(#clip120)" d="M891.441 1403.2 L891.441 1398.94 Q893.2 1399.77 895.006 1400.21 Q896.811 1400.65 898.547 1400.65 Q903.177 1400.65 905.608 1397.55 Q908.061 1394.42 908.408 1388.08 Q907.066 1390.07 905.006 1391.14 Q902.946 1392.2 900.446 1392.2 Q895.26 1392.2 892.228 1389.08 Q889.219 1385.93 889.219 1380.49 Q889.219 1375.16 892.367 1371.95 Q895.515 1368.73 900.746 1368.73 Q906.742 1368.73 909.89 1373.34 Q913.061 1377.92 913.061 1386.67 Q913.061 1394.84 909.172 1399.72 Q905.307 1404.59 898.756 1404.59 Q896.996 1404.59 895.191 1404.24 Q893.385 1403.89 891.441 1403.2 M900.746 1388.54 Q903.895 1388.54 905.723 1386.39 Q907.575 1384.24 907.575 1380.49 Q907.575 1376.76 905.723 1374.61 Q903.895 1372.43 900.746 1372.43 Q897.598 1372.43 895.746 1374.61 Q893.918 1376.76 893.918 1380.49 Q893.918 1384.24 895.746 1386.39 Q897.598 1388.54 900.746 1388.54 Z" fill="#000000" fill-rule="evenodd" fill-opacity="1" /><path clip-path="url(#clip120)" d="M931.464 1387.5 Q928.131 1387.5 926.209 1389.28 Q924.311 1391.07 924.311 1394.19 Q924.311 1397.32 926.209 1399.1 Q928.131 1400.88 931.464 1400.88 Q934.797 1400.88 936.718 1399.1 Q938.64 1397.29 938.64 1394.19 Q938.64 1391.07 936.718 1389.28 Q934.82 1387.5 931.464 1387.5 M926.788 1385.51 Q923.779 1384.77 922.089 1382.71 Q920.422 1380.65 920.422 1377.69 Q920.422 1373.54 923.362 1371.14 Q926.325 1368.73 931.464 1368.73 Q936.626 1368.73 939.566 1371.14 Q942.505 1373.54 942.505 1377.69 Q942.505 1380.65 940.816 1382.71 Q939.149 1384.77 936.163 1385.51 Q939.543 1386.3 941.418 1388.59 Q943.316 1390.88 943.316 1394.19 Q943.316 1399.22 940.237 1401.9 Q937.181 1404.59 931.464 1404.59 Q925.746 1404.59 922.668 1401.9 Q919.612 1399.22 919.612 1394.19 Q919.612 1390.88 921.51 1388.59 Q923.408 1386.3 926.788 1385.51 M925.075 1378.13 Q925.075 1380.81 926.742 1382.32 Q928.431 1383.82 931.464 1383.82 Q934.473 1383.82 936.163 1382.32 Q937.876 1380.81 937.876 1378.13 Q937.876 1375.44 936.163 1373.94 Q934.473 1372.43 931.464 1372.43 Q928.431 1372.43 926.742 1373.94 Q925.075 1375.44 925.075 1378.13 Z" fill="#000000" fill-rule="evenodd" fill-opacity="1" /><path clip-path="url(#clip120)" d="M961.626 1387.5 Q958.292 1387.5 956.371 1389.28 Q954.473 1391.07 954.473 1394.19 Q954.473 1397.32 956.371 1399.1 Q958.292 1400.88 961.626 1400.88 Q964.959 1400.88 966.88 1399.1 Q968.802 1397.29 968.802 1394.19 Q968.802 1391.07 966.88 1389.28 Q964.982 1387.5 961.626 1387.5 M956.95 1385.51 Q953.941 1384.77 952.251 1382.71 Q950.584 1380.65 950.584 1377.69 Q950.584 1373.54 953.524 1371.14 Q956.487 1368.73 961.626 1368.73 Q966.788 1368.73 969.728 1371.14 Q972.667 1373.54 972.667 1377.69 Q972.667 1380.65 970.978 1382.71 Q969.311 1384.77 966.325 1385.51 Q969.704 1386.3 971.579 1388.59 Q973.478 1390.88 973.478 1394.19 Q973.478 1399.22 970.399 1401.9 Q967.343 1404.59 961.626 1404.59 Q955.908 1404.59 952.829 1401.9 Q949.774 1399.22 949.774 1394.19 Q949.774 1390.88 951.672 1388.59 Q953.57 1386.3 956.95 1385.51 M955.237 1378.13 Q955.237 1380.81 956.904 1382.32 Q958.593 1383.82 961.626 1383.82 Q964.635 1383.82 966.325 1382.32 Q968.038 1380.81 968.038 1378.13 Q968.038 1375.44 966.325 1373.94 Q964.635 1372.43 961.626 1372.43 Q958.593 1372.43 956.904 1373.94 Q955.237 1375.44 955.237 1378.13 Z" fill="#000000" fill-rule="evenodd" fill-opacity="1" /></svg>
