<?xml version="1.0" encoding="utf-8"?>
<svg xmlns="http://www.w3.org/2000/svg" xmlns:xlink="http://www.w3.org/1999/xlink" width="600" height="400" viewBox="0 0 2400 1600">
<defs>
  <clipPath id="clip540">
    <rect x="0" y="0" width="2400" height="1600"/>
  </clipPath>
</defs>
<path clip-path="url(#clip540)" d="
M0 1600 L2400 1600 L2400 0 L0 0  Z
  " fill="#ffffff" fill-rule="evenodd" fill-opacity="1"/>
<defs>
  <clipPath id="clip541">
    <rect x="480" y="0" width="1681" height="1600"/>
  </clipPath>
</defs>
<path clip-path="url(#clip540)" d="
M186.274 1486.45 L2352.76 1486.45 L2352.76 47.2441 L186.274 47.2441  Z
  " fill="#ffffff" fill-rule="evenodd" fill-opacity="1"/>
<defs>
  <clipPath id="clip542">
    <rect x="186" y="47" width="2167" height="1440"/>
  </clipPath>
</defs>
<polyline clip-path="url(#clip542)" style="stroke:#000000; stroke-linecap:butt; stroke-linejoin:round; stroke-width:2; stroke-opacity:0.1; fill:none" points="
  237.267,1486.45 237.267,47.2441 
  "/>
<polyline clip-path="url(#clip542)" style="stroke:#000000; stroke-linecap:butt; stroke-linejoin:round; stroke-width:2; stroke-opacity:0.1; fill:none" points="
  753.391,1486.45 753.391,47.2441 
  "/>
<polyline clip-path="url(#clip542)" style="stroke:#000000; stroke-linecap:butt; stroke-linejoin:round; stroke-width:2; stroke-opacity:0.1; fill:none" points="
  1269.51,1486.45 1269.51,47.2441 
  "/>
<polyline clip-path="url(#clip542)" style="stroke:#000000; stroke-linecap:butt; stroke-linejoin:round; stroke-width:2; stroke-opacity:0.1; fill:none" points="
  1785.64,1486.45 1785.64,47.2441 
  "/>
<polyline clip-path="url(#clip542)" style="stroke:#000000; stroke-linecap:butt; stroke-linejoin:round; stroke-width:2; stroke-opacity:0.1; fill:none" points="
  2301.76,1486.45 2301.76,47.2441 
  "/>
<polyline clip-path="url(#clip540)" style="stroke:#000000; stroke-linecap:butt; stroke-linejoin:round; stroke-width:4; stroke-opacity:1; fill:none" points="
  186.274,1486.45 2352.76,1486.45 
  "/>
<polyline clip-path="url(#clip540)" style="stroke:#000000; stroke-linecap:butt; stroke-linejoin:round; stroke-width:4; stroke-opacity:1; fill:none" points="
  237.267,1486.45 237.267,1467.55 
  "/>
<polyline clip-path="url(#clip540)" style="stroke:#000000; stroke-linecap:butt; stroke-linejoin:round; stroke-width:4; stroke-opacity:1; fill:none" points="
  753.391,1486.45 753.391,1467.55 
  "/>
<polyline clip-path="url(#clip540)" style="stroke:#000000; stroke-linecap:butt; stroke-linejoin:round; stroke-width:4; stroke-opacity:1; fill:none" points="
  1269.51,1486.45 1269.51,1467.55 
  "/>
<polyline clip-path="url(#clip540)" style="stroke:#000000; stroke-linecap:butt; stroke-linejoin:round; stroke-width:4; stroke-opacity:1; fill:none" points="
  1785.64,1486.45 1785.64,1467.55 
  "/>
<polyline clip-path="url(#clip540)" style="stroke:#000000; stroke-linecap:butt; stroke-linejoin:round; stroke-width:4; stroke-opacity:1; fill:none" points="
  2301.76,1486.45 2301.76,1467.55 
  "/>
<path clip-path="url(#clip540)" d="M183.795 1532.02 L213.471 1532.02 L213.471 1535.95 L183.795 1535.95 L183.795 1532.02 Z" fill="#000000" fill-rule="evenodd" fill-opacity="1" /><path clip-path="url(#clip540)" d="M224.374 1544.91 L232.012 1544.91 L232.012 1518.55 L223.702 1520.21 L223.702 1515.95 L231.966 1514.29 L236.642 1514.29 L236.642 1544.91 L244.281 1544.91 L244.281 1548.85 L224.374 1548.85 L224.374 1544.91 Z" fill="#000000" fill-rule="evenodd" fill-opacity="1" /><path clip-path="url(#clip540)" d="M253.725 1542.97 L258.61 1542.97 L258.61 1548.85 L253.725 1548.85 L253.725 1542.97 Z" fill="#000000" fill-rule="evenodd" fill-opacity="1" /><path clip-path="url(#clip540)" d="M278.795 1517.37 Q275.184 1517.37 273.355 1520.93 Q271.549 1524.47 271.549 1531.6 Q271.549 1538.71 273.355 1542.27 Q275.184 1545.82 278.795 1545.82 Q282.429 1545.82 284.234 1542.27 Q286.063 1538.71 286.063 1531.6 Q286.063 1524.47 284.234 1520.93 Q282.429 1517.37 278.795 1517.37 M278.795 1513.66 Q284.605 1513.66 287.66 1518.27 Q290.739 1522.85 290.739 1531.6 Q290.739 1540.33 287.66 1544.94 Q284.605 1549.52 278.795 1549.52 Q272.984 1549.52 269.906 1544.94 Q266.85 1540.33 266.85 1531.6 Q266.85 1522.85 269.906 1518.27 Q272.984 1513.66 278.795 1513.66 Z" fill="#000000" fill-rule="evenodd" fill-opacity="1" /><path clip-path="url(#clip540)" d="M700.417 1532.02 L730.093 1532.02 L730.093 1535.95 L700.417 1535.95 L700.417 1532.02 Z" fill="#000000" fill-rule="evenodd" fill-opacity="1" /><path clip-path="url(#clip540)" d="M750.185 1517.37 Q746.574 1517.37 744.745 1520.93 Q742.94 1524.47 742.94 1531.6 Q742.94 1538.71 744.745 1542.27 Q746.574 1545.82 750.185 1545.82 Q753.819 1545.82 755.625 1542.27 Q757.453 1538.71 757.453 1531.6 Q757.453 1524.47 755.625 1520.93 Q753.819 1517.37 750.185 1517.37 M750.185 1513.66 Q755.995 1513.66 759.051 1518.27 Q762.129 1522.85 762.129 1531.6 Q762.129 1540.33 759.051 1544.94 Q755.995 1549.52 750.185 1549.52 Q744.375 1549.52 741.296 1544.94 Q738.241 1540.33 738.241 1531.6 Q738.241 1522.85 741.296 1518.27 Q744.375 1513.66 750.185 1513.66 Z" fill="#000000" fill-rule="evenodd" fill-opacity="1" /><path clip-path="url(#clip540)" d="M770.347 1542.97 L775.231 1542.97 L775.231 1548.85 L770.347 1548.85 L770.347 1542.97 Z" fill="#000000" fill-rule="evenodd" fill-opacity="1" /><path clip-path="url(#clip540)" d="M785.463 1514.29 L803.819 1514.29 L803.819 1518.22 L789.745 1518.22 L789.745 1526.7 Q790.763 1526.35 791.782 1526.19 Q792.801 1526 793.819 1526 Q799.606 1526 802.986 1529.17 Q806.365 1532.34 806.365 1537.76 Q806.365 1543.34 802.893 1546.44 Q799.421 1549.52 793.101 1549.52 Q790.926 1549.52 788.657 1549.15 Q786.412 1548.78 784.004 1548.04 L784.004 1543.34 Q786.088 1544.47 788.31 1545.03 Q790.532 1545.58 793.009 1545.58 Q797.013 1545.58 799.351 1543.48 Q801.689 1541.37 801.689 1537.76 Q801.689 1534.15 799.351 1532.04 Q797.013 1529.94 793.009 1529.94 Q791.134 1529.94 789.259 1530.35 Q787.407 1530.77 785.463 1531.65 L785.463 1514.29 Z" fill="#000000" fill-rule="evenodd" fill-opacity="1" /><path clip-path="url(#clip540)" d="M1246.9 1517.37 Q1243.29 1517.37 1241.46 1520.93 Q1239.65 1524.47 1239.65 1531.6 Q1239.65 1538.71 1241.46 1542.27 Q1243.29 1545.82 1246.9 1545.82 Q1250.53 1545.82 1252.34 1542.27 Q1254.17 1538.71 1254.17 1531.6 Q1254.17 1524.47 1252.34 1520.93 Q1250.53 1517.37 1246.9 1517.37 M1246.9 1513.66 Q1252.71 1513.66 1255.77 1518.27 Q1258.84 1522.85 1258.84 1531.6 Q1258.84 1540.33 1255.77 1544.94 Q1252.71 1549.52 1246.9 1549.52 Q1241.09 1549.52 1238.01 1544.94 Q1234.95 1540.33 1234.95 1531.6 Q1234.95 1522.85 1238.01 1518.27 Q1241.09 1513.66 1246.9 1513.66 Z" fill="#000000" fill-rule="evenodd" fill-opacity="1" /><path clip-path="url(#clip540)" d="M1267.06 1542.97 L1271.95 1542.97 L1271.95 1548.85 L1267.06 1548.85 L1267.06 1542.97 Z" fill="#000000" fill-rule="evenodd" fill-opacity="1" /><path clip-path="url(#clip540)" d="M1292.13 1517.37 Q1288.52 1517.37 1286.69 1520.93 Q1284.89 1524.47 1284.89 1531.6 Q1284.89 1538.71 1286.69 1542.27 Q1288.52 1545.82 1292.13 1545.82 Q1295.76 1545.82 1297.57 1542.27 Q1299.4 1538.71 1299.4 1531.6 Q1299.4 1524.47 1297.57 1520.93 Q1295.76 1517.37 1292.13 1517.37 M1292.13 1513.66 Q1297.94 1513.66 1301 1518.27 Q1304.07 1522.85 1304.07 1531.6 Q1304.07 1540.33 1301 1544.94 Q1297.94 1549.52 1292.13 1549.52 Q1286.32 1549.52 1283.24 1544.94 Q1280.19 1540.33 1280.19 1531.6 Q1280.19 1522.85 1283.24 1518.27 Q1286.32 1513.66 1292.13 1513.66 Z" fill="#000000" fill-rule="evenodd" fill-opacity="1" /><path clip-path="url(#clip540)" d="M1763.52 1517.37 Q1759.91 1517.37 1758.08 1520.93 Q1756.28 1524.47 1756.28 1531.6 Q1756.28 1538.71 1758.08 1542.27 Q1759.91 1545.82 1763.52 1545.82 Q1767.16 1545.82 1768.96 1542.27 Q1770.79 1538.71 1770.79 1531.6 Q1770.79 1524.47 1768.96 1520.93 Q1767.16 1517.37 1763.52 1517.37 M1763.52 1513.66 Q1769.33 1513.66 1772.39 1518.27 Q1775.47 1522.85 1775.47 1531.6 Q1775.47 1540.33 1772.39 1544.94 Q1769.33 1549.52 1763.52 1549.52 Q1757.71 1549.52 1754.63 1544.94 Q1751.58 1540.33 1751.58 1531.6 Q1751.58 1522.85 1754.63 1518.27 Q1757.71 1513.66 1763.52 1513.66 Z" fill="#000000" fill-rule="evenodd" fill-opacity="1" /><path clip-path="url(#clip540)" d="M1783.68 1542.97 L1788.57 1542.97 L1788.57 1548.85 L1783.68 1548.85 L1783.68 1542.97 Z" fill="#000000" fill-rule="evenodd" fill-opacity="1" /><path clip-path="url(#clip540)" d="M1798.8 1514.29 L1817.15 1514.29 L1817.15 1518.22 L1803.08 1518.22 L1803.08 1526.7 Q1804.1 1526.35 1805.12 1526.19 Q1806.14 1526 1807.15 1526 Q1812.94 1526 1816.32 1529.17 Q1819.7 1532.34 1819.7 1537.76 Q1819.7 1543.34 1816.23 1546.44 Q1812.76 1549.52 1806.44 1549.52 Q1804.26 1549.52 1801.99 1549.15 Q1799.75 1548.78 1797.34 1548.04 L1797.34 1543.34 Q1799.42 1544.47 1801.65 1545.03 Q1803.87 1545.58 1806.34 1545.58 Q1810.35 1545.58 1812.69 1543.48 Q1815.03 1541.37 1815.03 1537.76 Q1815.03 1534.15 1812.69 1532.04 Q1810.35 1529.94 1806.34 1529.94 Q1804.47 1529.94 1802.59 1530.35 Q1800.74 1530.77 1798.8 1531.65 L1798.8 1514.29 Z" fill="#000000" fill-rule="evenodd" fill-opacity="1" /><path clip-path="url(#clip540)" d="M2268.92 1544.91 L2276.55 1544.91 L2276.55 1518.55 L2268.24 1520.21 L2268.24 1515.95 L2276.51 1514.29 L2281.18 1514.29 L2281.18 1544.91 L2288.82 1544.91 L2288.82 1548.85 L2268.92 1548.85 L2268.92 1544.91 Z" fill="#000000" fill-rule="evenodd" fill-opacity="1" /><path clip-path="url(#clip540)" d="M2298.27 1542.97 L2303.15 1542.97 L2303.15 1548.85 L2298.27 1548.85 L2298.27 1542.97 Z" fill="#000000" fill-rule="evenodd" fill-opacity="1" /><path clip-path="url(#clip540)" d="M2323.34 1517.37 Q2319.73 1517.37 2317.9 1520.93 Q2316.09 1524.47 2316.09 1531.6 Q2316.09 1538.71 2317.9 1542.27 Q2319.73 1545.82 2323.34 1545.82 Q2326.97 1545.82 2328.78 1542.27 Q2330.61 1538.71 2330.61 1531.6 Q2330.61 1524.47 2328.78 1520.93 Q2326.97 1517.37 2323.34 1517.37 M2323.34 1513.66 Q2329.15 1513.66 2332.2 1518.27 Q2335.28 1522.85 2335.28 1531.6 Q2335.28 1540.33 2332.2 1544.94 Q2329.15 1549.52 2323.34 1549.52 Q2317.53 1549.52 2314.45 1544.94 Q2311.39 1540.33 2311.39 1531.6 Q2311.39 1522.85 2314.45 1518.27 Q2317.53 1513.66 2323.34 1513.66 Z" fill="#000000" fill-rule="evenodd" fill-opacity="1" /><polyline clip-path="url(#clip542)" style="stroke:#000000; stroke-linecap:butt; stroke-linejoin:round; stroke-width:2; stroke-opacity:0.1; fill:none" points="
  186.274,1445.72 2352.76,1445.72 
  "/>
<polyline clip-path="url(#clip542)" style="stroke:#000000; stroke-linecap:butt; stroke-linejoin:round; stroke-width:2; stroke-opacity:0.1; fill:none" points="
  186.274,1106.28 2352.76,1106.28 
  "/>
<polyline clip-path="url(#clip542)" style="stroke:#000000; stroke-linecap:butt; stroke-linejoin:round; stroke-width:2; stroke-opacity:0.1; fill:none" points="
  186.274,766.846 2352.76,766.846 
  "/>
<polyline clip-path="url(#clip542)" style="stroke:#000000; stroke-linecap:butt; stroke-linejoin:round; stroke-width:2; stroke-opacity:0.1; fill:none" points="
  186.274,427.411 2352.76,427.411 
  "/>
<polyline clip-path="url(#clip542)" style="stroke:#000000; stroke-linecap:butt; stroke-linejoin:round; stroke-width:2; stroke-opacity:0.1; fill:none" points="
  186.274,87.9763 2352.76,87.9763 
  "/>
<polyline clip-path="url(#clip540)" style="stroke:#000000; stroke-linecap:butt; stroke-linejoin:round; stroke-width:4; stroke-opacity:1; fill:none" points="
  186.274,1486.45 186.274,47.2441 
  "/>
<polyline clip-path="url(#clip540)" style="stroke:#000000; stroke-linecap:butt; stroke-linejoin:round; stroke-width:4; stroke-opacity:1; fill:none" points="
  186.274,1445.72 205.172,1445.72 
  "/>
<polyline clip-path="url(#clip540)" style="stroke:#000000; stroke-linecap:butt; stroke-linejoin:round; stroke-width:4; stroke-opacity:1; fill:none" points="
  186.274,1106.28 205.172,1106.28 
  "/>
<polyline clip-path="url(#clip540)" style="stroke:#000000; stroke-linecap:butt; stroke-linejoin:round; stroke-width:4; stroke-opacity:1; fill:none" points="
  186.274,766.846 205.172,766.846 
  "/>
<polyline clip-path="url(#clip540)" style="stroke:#000000; stroke-linecap:butt; stroke-linejoin:round; stroke-width:4; stroke-opacity:1; fill:none" points="
  186.274,427.411 205.172,427.411 
  "/>
<polyline clip-path="url(#clip540)" style="stroke:#000000; stroke-linecap:butt; stroke-linejoin:round; stroke-width:4; stroke-opacity:1; fill:none" points="
  186.274,87.9763 205.172,87.9763 
  "/>
<path clip-path="url(#clip540)" d="M62.9365 1431.51 Q59.3254 1431.51 57.4967 1435.08 Q55.6912 1438.62 55.6912 1445.75 Q55.6912 1452.86 57.4967 1456.42 Q59.3254 1459.96 62.9365 1459.96 Q66.5707 1459.96 68.3763 1456.42 Q70.205 1452.86 70.205 1445.75 Q70.205 1438.62 68.3763 1435.08 Q66.5707 1431.51 62.9365 1431.51 M62.9365 1427.81 Q68.7467 1427.81 71.8022 1432.42 Q74.8809 1437 74.8809 1445.75 Q74.8809 1454.48 71.8022 1459.08 Q68.7467 1463.67 62.9365 1463.67 Q57.1264 1463.67 54.0477 1459.08 Q50.9921 1454.48 50.9921 1445.75 Q50.9921 1437 54.0477 1432.42 Q57.1264 1427.81 62.9365 1427.81 Z" fill="#000000" fill-rule="evenodd" fill-opacity="1" /><path clip-path="url(#clip540)" d="M83.0984 1457.12 L87.9827 1457.12 L87.9827 1463 L83.0984 1463 L83.0984 1457.12 Z" fill="#000000" fill-rule="evenodd" fill-opacity="1" /><path clip-path="url(#clip540)" d="M108.168 1431.51 Q104.557 1431.51 102.728 1435.08 Q100.922 1438.62 100.922 1445.75 Q100.922 1452.86 102.728 1456.42 Q104.557 1459.96 108.168 1459.96 Q111.802 1459.96 113.608 1456.42 Q115.436 1452.86 115.436 1445.75 Q115.436 1438.62 113.608 1435.08 Q111.802 1431.51 108.168 1431.51 M108.168 1427.81 Q113.978 1427.81 117.033 1432.42 Q120.112 1437 120.112 1445.75 Q120.112 1454.48 117.033 1459.08 Q113.978 1463.67 108.168 1463.67 Q102.358 1463.67 99.2789 1459.08 Q96.2234 1454.48 96.2234 1445.75 Q96.2234 1437 99.2789 1432.42 Q102.358 1427.81 108.168 1427.81 Z" fill="#000000" fill-rule="evenodd" fill-opacity="1" /><path clip-path="url(#clip540)" d="M138.33 1431.51 Q134.719 1431.51 132.89 1435.08 Q131.084 1438.62 131.084 1445.75 Q131.084 1452.86 132.89 1456.42 Q134.719 1459.96 138.33 1459.96 Q141.964 1459.96 143.769 1456.42 Q145.598 1452.86 145.598 1445.75 Q145.598 1438.62 143.769 1435.08 Q141.964 1431.51 138.33 1431.51 M138.33 1427.81 Q144.14 1427.81 147.195 1432.42 Q150.274 1437 150.274 1445.75 Q150.274 1454.48 147.195 1459.08 Q144.14 1463.67 138.33 1463.67 Q132.519 1463.67 129.441 1459.08 Q126.385 1454.48 126.385 1445.75 Q126.385 1437 129.441 1432.42 Q132.519 1427.81 138.33 1427.81 Z" fill="#000000" fill-rule="evenodd" fill-opacity="1" /><path clip-path="url(#clip540)" d="M63.9319 1092.08 Q60.3208 1092.08 58.4921 1095.64 Q56.6865 1099.19 56.6865 1106.32 Q56.6865 1113.42 58.4921 1116.99 Q60.3208 1120.53 63.9319 1120.53 Q67.5661 1120.53 69.3717 1116.99 Q71.2004 1113.42 71.2004 1106.32 Q71.2004 1099.19 69.3717 1095.64 Q67.5661 1092.08 63.9319 1092.08 M63.9319 1088.38 Q69.742 1088.38 72.7976 1092.98 Q75.8763 1097.57 75.8763 1106.32 Q75.8763 1115.04 72.7976 1119.65 Q69.742 1124.23 63.9319 1124.23 Q58.1217 1124.23 55.043 1119.65 Q51.9875 1115.04 51.9875 1106.32 Q51.9875 1097.57 55.043 1092.98 Q58.1217 1088.38 63.9319 1088.38 Z" fill="#000000" fill-rule="evenodd" fill-opacity="1" /><path clip-path="url(#clip540)" d="M84.0938 1117.68 L88.978 1117.68 L88.978 1123.56 L84.0938 1123.56 L84.0938 1117.68 Z" fill="#000000" fill-rule="evenodd" fill-opacity="1" /><path clip-path="url(#clip540)" d="M103.191 1119.63 L119.51 1119.63 L119.51 1123.56 L97.566 1123.56 L97.566 1119.63 Q100.228 1116.87 104.811 1112.24 Q109.418 1107.59 110.598 1106.25 Q112.844 1103.72 113.723 1101.99 Q114.626 1100.23 114.626 1098.54 Q114.626 1095.78 112.682 1094.05 Q110.76 1092.31 107.658 1092.31 Q105.459 1092.31 103.006 1093.07 Q100.575 1093.84 97.7974 1095.39 L97.7974 1090.67 Q100.621 1089.53 103.075 1088.95 Q105.529 1088.38 107.566 1088.38 Q112.936 1088.38 116.131 1091.06 Q119.325 1093.75 119.325 1098.24 Q119.325 1100.37 118.515 1102.29 Q117.728 1104.19 115.621 1106.78 Q115.043 1107.45 111.941 1110.67 Q108.839 1113.86 103.191 1119.63 Z" fill="#000000" fill-rule="evenodd" fill-opacity="1" /><path clip-path="url(#clip540)" d="M129.371 1089 L147.728 1089 L147.728 1092.94 L133.654 1092.94 L133.654 1101.41 Q134.672 1101.06 135.691 1100.9 Q136.709 1100.71 137.728 1100.71 Q143.515 1100.71 146.894 1103.89 Q150.274 1107.06 150.274 1112.47 Q150.274 1118.05 146.802 1121.15 Q143.33 1124.23 137.01 1124.23 Q134.834 1124.23 132.566 1123.86 Q130.32 1123.49 127.913 1122.75 L127.913 1118.05 Q129.996 1119.19 132.219 1119.74 Q134.441 1120.3 136.918 1120.3 Q140.922 1120.3 143.26 1118.19 Q145.598 1116.08 145.598 1112.47 Q145.598 1108.86 143.26 1106.76 Q140.922 1104.65 136.918 1104.65 Q135.043 1104.65 133.168 1105.07 Q131.316 1105.48 129.371 1106.36 L129.371 1089 Z" fill="#000000" fill-rule="evenodd" fill-opacity="1" /><path clip-path="url(#clip540)" d="M62.9365 752.645 Q59.3254 752.645 57.4967 756.209 Q55.6912 759.751 55.6912 766.881 Q55.6912 773.987 57.4967 777.552 Q59.3254 781.094 62.9365 781.094 Q66.5707 781.094 68.3763 777.552 Q70.205 773.987 70.205 766.881 Q70.205 759.751 68.3763 756.209 Q66.5707 752.645 62.9365 752.645 M62.9365 748.941 Q68.7467 748.941 71.8022 753.547 Q74.8809 758.131 74.8809 766.881 Q74.8809 775.608 71.8022 780.214 Q68.7467 784.797 62.9365 784.797 Q57.1264 784.797 54.0477 780.214 Q50.9921 775.608 50.9921 766.881 Q50.9921 758.131 54.0477 753.547 Q57.1264 748.941 62.9365 748.941 Z" fill="#000000" fill-rule="evenodd" fill-opacity="1" /><path clip-path="url(#clip540)" d="M83.0984 778.246 L87.9827 778.246 L87.9827 784.126 L83.0984 784.126 L83.0984 778.246 Z" fill="#000000" fill-rule="evenodd" fill-opacity="1" /><path clip-path="url(#clip540)" d="M98.2141 749.566 L116.57 749.566 L116.57 753.501 L102.496 753.501 L102.496 761.973 Q103.515 761.626 104.534 761.464 Q105.552 761.279 106.571 761.279 Q112.358 761.279 115.737 764.45 Q119.117 767.621 119.117 773.038 Q119.117 778.617 115.645 781.719 Q112.172 784.797 105.853 784.797 Q103.677 784.797 101.409 784.427 Q99.1632 784.057 96.7558 783.316 L96.7558 778.617 Q98.8391 779.751 101.061 780.307 Q103.284 780.862 105.76 780.862 Q109.765 780.862 112.103 778.756 Q114.441 776.649 114.441 773.038 Q114.441 769.427 112.103 767.321 Q109.765 765.214 105.76 765.214 Q103.885 765.214 102.01 765.631 Q100.159 766.047 98.2141 766.927 L98.2141 749.566 Z" fill="#000000" fill-rule="evenodd" fill-opacity="1" /><path clip-path="url(#clip540)" d="M138.33 752.645 Q134.719 752.645 132.89 756.209 Q131.084 759.751 131.084 766.881 Q131.084 773.987 132.89 777.552 Q134.719 781.094 138.33 781.094 Q141.964 781.094 143.769 777.552 Q145.598 773.987 145.598 766.881 Q145.598 759.751 143.769 756.209 Q141.964 752.645 138.33 752.645 M138.33 748.941 Q144.14 748.941 147.195 753.547 Q150.274 758.131 150.274 766.881 Q150.274 775.608 147.195 780.214 Q144.14 784.797 138.33 784.797 Q132.519 784.797 129.441 780.214 Q126.385 775.608 126.385 766.881 Q126.385 758.131 129.441 753.547 Q132.519 748.941 138.33 748.941 Z" fill="#000000" fill-rule="evenodd" fill-opacity="1" /><path clip-path="url(#clip540)" d="M63.9319 413.21 Q60.3208 413.21 58.4921 416.775 Q56.6865 420.316 56.6865 427.446 Q56.6865 434.552 58.4921 438.117 Q60.3208 441.659 63.9319 441.659 Q67.5661 441.659 69.3717 438.117 Q71.2004 434.552 71.2004 427.446 Q71.2004 420.316 69.3717 416.775 Q67.5661 413.21 63.9319 413.21 M63.9319 409.506 Q69.742 409.506 72.7976 414.113 Q75.8763 418.696 75.8763 427.446 Q75.8763 436.173 72.7976 440.779 Q69.742 445.362 63.9319 445.362 Q58.1217 445.362 55.043 440.779 Q51.9875 436.173 51.9875 427.446 Q51.9875 418.696 55.043 414.113 Q58.1217 409.506 63.9319 409.506 Z" fill="#000000" fill-rule="evenodd" fill-opacity="1" /><path clip-path="url(#clip540)" d="M84.0938 438.812 L88.978 438.812 L88.978 444.691 L84.0938 444.691 L84.0938 438.812 Z" fill="#000000" fill-rule="evenodd" fill-opacity="1" /><path clip-path="url(#clip540)" d="M97.9826 410.131 L120.205 410.131 L120.205 412.122 L107.658 444.691 L102.774 444.691 L114.58 414.066 L97.9826 414.066 L97.9826 410.131 Z" fill="#000000" fill-rule="evenodd" fill-opacity="1" /><path clip-path="url(#clip540)" d="M129.371 410.131 L147.728 410.131 L147.728 414.066 L133.654 414.066 L133.654 422.538 Q134.672 422.191 135.691 422.029 Q136.709 421.844 137.728 421.844 Q143.515 421.844 146.894 425.015 Q150.274 428.187 150.274 433.603 Q150.274 439.182 146.802 442.284 Q143.33 445.362 137.01 445.362 Q134.834 445.362 132.566 444.992 Q130.32 444.622 127.913 443.881 L127.913 439.182 Q129.996 440.316 132.219 440.872 Q134.441 441.427 136.918 441.427 Q140.922 441.427 143.26 439.321 Q145.598 437.214 145.598 433.603 Q145.598 429.992 143.26 427.886 Q140.922 425.779 136.918 425.779 Q135.043 425.779 133.168 426.196 Q131.316 426.613 129.371 427.492 L129.371 410.131 Z" fill="#000000" fill-rule="evenodd" fill-opacity="1" /><path clip-path="url(#clip540)" d="M53.7467 101.321 L61.3856 101.321 L61.3856 74.9555 L53.0754 76.6222 L53.0754 72.3629 L61.3393 70.6963 L66.0152 70.6963 L66.0152 101.321 L73.654 101.321 L73.654 105.256 L53.7467 105.256 L53.7467 101.321 Z" fill="#000000" fill-rule="evenodd" fill-opacity="1" /><path clip-path="url(#clip540)" d="M83.0984 99.3767 L87.9827 99.3767 L87.9827 105.256 L83.0984 105.256 L83.0984 99.3767 Z" fill="#000000" fill-rule="evenodd" fill-opacity="1" /><path clip-path="url(#clip540)" d="M108.168 73.775 Q104.557 73.775 102.728 77.3398 Q100.922 80.8814 100.922 88.011 Q100.922 95.1174 102.728 98.6822 Q104.557 102.224 108.168 102.224 Q111.802 102.224 113.608 98.6822 Q115.436 95.1174 115.436 88.011 Q115.436 80.8814 113.608 77.3398 Q111.802 73.775 108.168 73.775 M108.168 70.0713 Q113.978 70.0713 117.033 74.6777 Q120.112 79.261 120.112 88.011 Q120.112 96.7378 117.033 101.344 Q113.978 105.928 108.168 105.928 Q102.358 105.928 99.2789 101.344 Q96.2234 96.7378 96.2234 88.011 Q96.2234 79.261 99.2789 74.6777 Q102.358 70.0713 108.168 70.0713 Z" fill="#000000" fill-rule="evenodd" fill-opacity="1" /><path clip-path="url(#clip540)" d="M138.33 73.775 Q134.719 73.775 132.89 77.3398 Q131.084 80.8814 131.084 88.011 Q131.084 95.1174 132.89 98.6822 Q134.719 102.224 138.33 102.224 Q141.964 102.224 143.769 98.6822 Q145.598 95.1174 145.598 88.011 Q145.598 80.8814 143.769 77.3398 Q141.964 73.775 138.33 73.775 M138.33 70.0713 Q144.14 70.0713 147.195 74.6777 Q150.274 79.261 150.274 88.011 Q150.274 96.7378 147.195 101.344 Q144.14 105.928 138.33 105.928 Q132.519 105.928 129.441 101.344 Q126.385 96.7378 126.385 88.011 Q126.385 79.261 129.441 74.6777 Q132.519 70.0713 138.33 70.0713 Z" fill="#000000" fill-rule="evenodd" fill-opacity="1" /><polyline clip-path="url(#clip542)" style="stroke:#009af9; stroke-linecap:butt; stroke-linejoin:round; stroke-width:12; stroke-opacity:1; fill:none" points="
  247.59,1445.72 268.234,1445.72 288.879,1445.72 309.524,1445.72 330.169,1409.51 350.814,1300.89 371.459,1192.27 392.104,1083.65 412.749,975.033 433.394,866.414 
  454.039,757.794 474.684,649.175 495.329,540.556 515.974,431.937 536.619,323.318 557.264,214.699 577.909,106.079 598.554,178.492 619.199,287.111 639.844,395.731 
  660.489,504.35 681.134,612.969 701.779,721.588 722.424,830.207 743.069,938.826 763.713,1047.45 784.358,1156.06 805.003,1264.68 825.648,1373.3 846.293,1445.72 
  866.938,1445.72 887.583,1445.72 908.228,1445.72 928.873,1445.72 949.518,1445.72 970.163,1445.72 990.808,1445.72 1011.45,1445.72 1032.1,1445.72 1052.74,1445.72 
  1073.39,87.9763 1094.03,87.9763 1114.68,87.9763 1135.32,87.9763 1155.97,87.9763 1176.61,87.9763 1197.26,87.9763 1217.9,87.9763 1238.55,87.9763 1259.19,87.9763 
  1279.84,87.9763 1300.48,87.9763 1321.13,87.9763 1341.77,87.9763 1362.42,87.9763 1383.06,87.9763 1403.71,87.9763 1424.35,87.9763 1445,87.9763 1465.64,87.9763 
  1486.29,1445.72 1506.93,1445.72 1527.58,1445.72 1548.22,1445.72 1568.87,1445.72 1589.51,1445.72 1610.16,1445.72 1630.8,1445.72 1651.45,1445.72 1672.09,1445.72 
  1692.74,1445.72 1713.38,1436.21 1734.03,1387.02 1754.67,1298.87 1775.32,1177.29 1795.96,1029.92 1816.61,866.017 1837.25,695.885 1857.9,530.211 1878.54,379.406 
  1899.19,252.945 1919.83,158.774 1940.48,102.811 1961.12,88.5718 1981.77,116.951 2002.41,186.165 2023.06,291.866 2043.7,427.411 2064.35,584.284 2084.99,752.629 
  2105.64,921.866 2126.28,1081.36 2146.93,1221.1 2167.57,1332.29 2188.22,1407.95 2208.86,1443.33 2229.51,1445.72 2250.15,1445.72 2270.8,1445.72 2291.44,1445.72 
  
  "/>
<polyline clip-path="url(#clip542)" style="stroke:#e26f46; stroke-linecap:butt; stroke-linejoin:round; stroke-width:12; stroke-opacity:1; fill:none" points="
  247.59,1379.66 268.234,1410.59 288.879,1428.37 309.524,1437.77 330.169,1442.07 350.814,1442.12 371.459,1435.56 392.104,1417.38 412.749,1382.43 433.394,1328.18 
  454.039,1255.87 474.684,1169.24 495.329,1072.78 515.974,970.291 536.619,864.508 557.264,757.085 577.909,648.935 598.554,541.823 619.199,440.836 639.844,356.085 
  660.489,299.68 681.134,280.457 701.779,299.536 722.424,351.431 743.069,427.274 763.713,518.652 784.358,618.945 805.003,723.904 825.648,831.027 846.293,938.828 
  866.938,1045.26 887.583,1146.42 908.228,1236.52 928.873,1310.07 949.518,1364.4 970.163,1400.7 990.808,1422.68 1011.45,1434.84 1032.1,1440.97 1052.74,1443.81 
  1073.39,1434.94 1094.03,1390.66 1114.68,1277.7 1135.32,1087.71 1155.97,846.843 1176.61,607.752 1197.26,409.458 1217.9,269.501 1238.55,180.975 1259.19,131.826 
  1279.84,106.652 1300.48,95.4663 1321.13,90.6015 1341.77,88.8827 1362.42,88.2211 1383.06,88.0574 1403.71,87.9884 1424.35,87.9816 1445,87.9764 1465.64,87.9764 
  1486.29,98.045 1506.93,142.795 1527.58,255.912 1548.22,445.96 1568.87,686.843 1589.51,925.939 1610.16,1124.23 1630.8,1264.19 1651.45,1352.72 1672.09,1401.87 
  1692.74,1427.04 1713.38,1438.16 1734.03,1442.34 1754.67,1440.99 1775.32,1432.42 1795.96,1411.57 1816.61,1372.7 1837.25,1311.05 1857.9,1224.68 1878.54,1114.87 
  1899.19,985.917 1919.83,844.489 1940.48,698.736 1961.12,557.482 1981.77,429.463 2002.41,322.67 2023.06,243.794 2043.7,197.785 2064.35,187.533 2084.99,213.682 
  2105.64,274.587 2126.28,366.424 2146.93,483.42 2167.57,618.225 2188.22,762.368 2208.86,906.793 2229.51,1042.49 2250.15,1161.49 2270.8,1258.12 2291.44,1330.29 
  
  "/>
<polyline clip-path="url(#clip542)" style="stroke:#3da44d; stroke-linecap:butt; stroke-linejoin:round; stroke-width:12; stroke-opacity:1; fill:none" points="
  247.59,893.923 268.234,1011.55 288.879,1117.16 309.524,1207 330.169,1279.43 350.814,1334.75 371.459,1374.7 392.104,1401.67 412.749,1417.84 433.394,1424.46 
  454.039,1421.49 474.684,1407.83 495.329,1381.83 515.974,1342.15 536.619,1288.33 557.264,1221.08 577.909,1142.04 598.554,1053.47 619.199,957.813 639.844,857.564 
  660.489,755.464 681.134,655 701.779,560.842 722.424,478.786 743.069,414.991 763.713,374.726 784.358,361.167 805.003,374.781 825.648,413.487 846.293,473.423 
  866.938,549.928 887.583,638.357 908.228,734.512 928.873,834.632 949.518,935.137 970.163,1032.39 990.808,1122.77 1011.45,1203 1032.1,1270.75 1052.74,1324.99 
  1073.39,1366.02 1094.03,1394.82 1114.68,1411.66 1135.32,1414.23 1155.97,1396.53 1176.61,1349.96 1197.26,1267.01 1217.9,1145.88 1238.55,993.279 1259.19,823.349 
  1279.84,653.477 1300.48,499.239 1321.13,370.836 1341.77,272.089 1362.42,201.5 1383.06,154.364 1403.71,124.838 1424.35,107.431 1445,97.7446 1465.64,92.6466 
  1486.29,90.1778 1506.93,89.638 1527.58,92.2491 1548.22,102.293 1568.87,127.723 1589.51,178.779 1610.16,264.206 1630.8,386.623 1651.45,539.871 1672.09,710.106 
  1692.74,880.116 1713.38,1034.41 1734.03,1162.83 1754.67,1261.54 1775.32,1331.9 1795.96,1378.21 1816.61,1405.42 1837.25,1417.37 1857.9,1415.92 1878.54,1400.89 
  1899.19,1370.71 1919.83,1323.33 1940.48,1257.26 1961.12,1172.32 1981.77,1070.19 2002.41,954.397 2023.06,830.155 2043.7,703.888 2064.35,582.662 2084.99,473.581 
  2105.64,383.215 2126.28,317.092 2146.93,279.292 2167.57,272.153 2188.22,296.109 2208.86,349.648 2229.51,429.403 2250.15,530.368 2270.8,646.237 2291.44,769.872 
  
  "/>
<polyline clip-path="url(#clip542)" style="stroke:#c271d2; stroke-linecap:butt; stroke-linejoin:round; stroke-width:12; stroke-opacity:1; fill:none" points="
  247.59,413.395 268.234,482.689 288.879,570.008 309.524,670.112 330.169,777.224 350.814,885.541 371.459,989.757 392.104,1085.52 412.749,1169.72 433.394,1240.62 
  454.039,1297.66 474.684,1341.17 495.329,1371.94 515.974,1390.74 536.619,1398.03 557.264,1393.86 577.909,1377.93 598.554,1349.81 619.199,1309.27 639.844,1256.5 
  660.489,1192.19 681.134,1117.59 701.779,1034.47 722.424,945.056 743.069,852.081 763.713,758.852 784.358,669.262 805.003,587.671 825.648,518.575 846.293,466.112 
  866.938,433.514 887.583,422.675 908.228,433.941 928.873,466.183 949.518,517.068 970.163,583.451 990.808,661.734 1011.45,748.143 1032.1,838.894 1052.74,930.316 
  1073.39,1018.96 1094.03,1101.79 1114.68,1176.31 1135.32,1240.69 1155.97,1293.67 1176.61,1334.23 1197.26,1360.95 1217.9,1371.58 1238.55,1362.84 1259.19,1330.97 
  1279.84,1272.96 1300.48,1187.96 1321.13,1078.42 1341.77,950.27 1362.42,812.096 1383.06,673.537 1403.71,543.491 1424.35,428.697 1445,333.011 1465.64,257.443 
  1486.29,200.734 1506.93,160.201 1527.58,132.582 1548.22,114.763 1568.87,104.359 1589.51,100.224 1610.16,102.88 1630.8,114.745 1651.45,139.897 1672.09,183.203 
  1692.74,248.855 1713.38,338.75 1734.03,451.307 1754.67,581.244 1775.32,720.435 1795.96,859.537 1816.61,989.809 1837.25,1104.53 1857.9,1199.67 1878.54,1273.78 
  1899.19,1327.31 1919.83,1361.66 1940.48,1378.32 1961.12,1378.3 1981.77,1361.96 2002.41,1329.17 2023.06,1279.7 2043.7,1213.74 2064.35,1132.28 2084.99,1037.46 
  2105.64,932.643 2126.28,822.298 2146.93,711.744 2167.57,606.758 2188.22,513.135 2208.86,436.231 2229.51,380.546 2250.15,349.38 2270.8,344.578 2291.44,366.38 
  
  "/>
<polyline clip-path="url(#clip542)" style="stroke:#ac8d18; stroke-linecap:butt; stroke-linejoin:round; stroke-width:12; stroke-opacity:1; fill:none" points="
  247.59,483.046 268.234,435.796 288.879,409.887 309.524,406.743 330.169,426.459 350.814,467.784 371.459,528.222 392.104,604.233 412.749,691.532 433.394,785.446 
  454.039,881.306 474.684,974.809 495.329,1062.32 515.974,1141.05 536.619,1209.1 557.264,1265.4 577.909,1309.49 598.554,1341.31 619.199,1360.97 639.844,1368.58 
  660.489,1364.21 681.134,1347.86 701.779,1319.58 722.424,1279.58 743.069,1228.36 763.713,1166.79 784.358,1096.16 805.003,1018.24 825.648,935.316 846.293,850.146 
  866.938,765.955 887.583,686.298 908.228,614.868 928.873,555.218 949.518,510.447 970.163,482.901 990.808,473.956 1011.45,483.908 1032.1,511.999 1052.74,556.537 
  1073.39,615.091 1094.03,684.711 1114.68,762.141 1135.32,844.016 1155.97,927.036 1176.61,1008.12 1197.26,1084.53 1217.9,1153.88 1238.55,1214.1 1259.19,1263.31 
  1279.84,1299.59 1300.48,1320.8 1321.13,1324.64 1341.77,1308.83 1362.42,1271.63 1383.06,1212.42 1403.71,1132.24 1424.35,1034.08 1445,922.694 1465.64,804.088 
  1486.29,684.721 1506.93,570.626 1527.58,466.688 1548.22,376.195 1568.87,300.734 1589.51,240.385 1610.16,194.127 1630.8,160.369 1651.45,137.51 1672.09,124.453 
  1692.74,120.992 1713.38,127.995 1734.03,147.301 1754.67,181.296 1775.32,232.232 1795.96,301.436 1816.61,388.626 1837.25,491.546 1857.9,606.045 1878.54,726.582 
  1899.19,847.008 1919.83,961.423 1940.48,1064.87 1961.12,1153.73 1981.77,1225.81 2002.41,1280.1 2023.06,1316.4 2043.7,1334.95 2064.35,1336.15 2084.99,1320.37 
  2105.64,1288.01 2126.28,1239.7 2146.93,1176.44 2167.57,1099.91 2188.22,1012.53 2208.86,917.592 2229.51,819.092 2250.15,721.603 2270.8,629.972 2291.44,548.99 
  
  "/>
<polyline clip-path="url(#clip542)" style="stroke:#00a9ad; stroke-linecap:butt; stroke-linejoin:round; stroke-width:12; stroke-opacity:1; fill:none" points="
  247.59,907.016 268.234,818.924 288.879,732.58 309.524,652.127 330.169,581.591 350.814,524.606 371.459,484.162 392.104,462.387 412.749,460.387 433.394,478.168 
  454.039,514.636 474.684,567.696 495.329,634.42 515.974,711.289 536.619,794.474 557.264,880.119 577.909,964.613 598.554,1044.79 619.199,1118.06 639.844,1182.48 
  660.489,1236.67 681.134,1279.75 701.779,1311.24 722.424,1330.87 743.069,1338.56 763.713,1334.32 784.358,1318.27 805.003,1290.66 825.648,1251.92 846.293,1202.76 
  866.938,1144.23 887.583,1077.73 908.228,1005.11 928.873,928.62 949.518,850.908 970.163,774.927 990.808,703.804 1011.45,640.657 1032.1,588.387 1052.74,549.464 
  1073.39,525.73 1094.03,518.266 1114.68,527.315 1135.32,552.291 1155.97,591.846 1176.61,643.994 1197.26,706.263 1217.9,775.871 1238.55,849.883 1259.19,925.369 
  1279.84,999.507 1300.48,1069.66 1321.13,1133.38 1341.77,1188.37 1362.42,1232.44 1383.06,1263.45 1403.71,1279.35 1424.35,1278.3 1445,1258.9 1465.64,1220.49 
  1486.29,1163.41 1506.93,1089.24 1527.58,1000.79 1548.22,901.906 1568.87,797.161 1589.51,691.331 1610.16,588.917 1630.8,493.715 1651.45,408.535 1672.09,335.107 
  1692.74,274.17 1713.38,225.704 1734.03,189.274 1754.67,164.383 1775.32,150.797 1795.96,148.744 1816.61,158.957 1837.25,182.525 1857.9,220.586 1878.54,273.912 
  1899.19,342.503 1919.83,425.276 1940.48,519.945 1961.12,623.124 1981.77,730.632 2002.41,837.924 2023.06,940.553 2043.7,1034.57 2064.35,1116.76 2084.99,1184.8 
  2105.64,1237.13 2126.28,1272.89 2146.93,1291.74 2167.57,1293.68 2188.22,1279.04 2208.86,1248.43 2229.51,1202.81 2250.15,1143.6 2270.8,1072.75 2291.44,992.845 
  
  "/>
</svg>
