<?xml version="1.0" encoding="utf-8"?>
<svg xmlns="http://www.w3.org/2000/svg" xmlns:xlink="http://www.w3.org/1999/xlink" width="600" height="400" viewBox="0 0 2400 1600">
<defs>
  <clipPath id="clip990">
    <rect x="0" y="0" width="2400" height="1600"/>
  </clipPath>
</defs>
<path clip-path="url(#clip990)" d="
M0 1600 L2400 1600 L2400 0 L0 0  Z
  " fill="#ffffff" fill-rule="evenodd" fill-opacity="1"/>
<defs>
  <clipPath id="clip991">
    <rect x="480" y="0" width="1681" height="1600"/>
  </clipPath>
</defs>
<path clip-path="url(#clip990)" d="
M186.274 1486.45 L2352.76 1486.45 L2352.76 47.2441 L186.274 47.2441  Z
  " fill="#ffffff" fill-rule="evenodd" fill-opacity="1"/>
<defs>
  <clipPath id="clip992">
    <rect x="186" y="47" width="2167" height="1440"/>
  </clipPath>
</defs>
<polyline clip-path="url(#clip992)" style="stroke:#000000; stroke-linecap:butt; stroke-linejoin:round; stroke-width:2; stroke-opacity:0.1; fill:none" points="
  247.59,1486.45 247.59,47.2441 
  "/>
<polyline clip-path="url(#clip992)" style="stroke:#000000; stroke-linecap:butt; stroke-linejoin:round; stroke-width:2; stroke-opacity:0.1; fill:none" points="
  768.98,1486.45 768.98,47.2441 
  "/>
<polyline clip-path="url(#clip992)" style="stroke:#000000; stroke-linecap:butt; stroke-linejoin:round; stroke-width:2; stroke-opacity:0.1; fill:none" points="
  1290.37,1486.45 1290.37,47.2441 
  "/>
<polyline clip-path="url(#clip992)" style="stroke:#000000; stroke-linecap:butt; stroke-linejoin:round; stroke-width:2; stroke-opacity:0.1; fill:none" points="
  1811.76,1486.45 1811.76,47.2441 
  "/>
<polyline clip-path="url(#clip992)" style="stroke:#000000; stroke-linecap:butt; stroke-linejoin:round; stroke-width:2; stroke-opacity:0.1; fill:none" points="
  2333.15,1486.45 2333.15,47.2441 
  "/>
<polyline clip-path="url(#clip990)" style="stroke:#000000; stroke-linecap:butt; stroke-linejoin:round; stroke-width:4; stroke-opacity:1; fill:none" points="
  186.274,1486.45 2352.76,1486.45 
  "/>
<polyline clip-path="url(#clip990)" style="stroke:#000000; stroke-linecap:butt; stroke-linejoin:round; stroke-width:4; stroke-opacity:1; fill:none" points="
  247.59,1486.45 247.59,1467.55 
  "/>
<polyline clip-path="url(#clip990)" style="stroke:#000000; stroke-linecap:butt; stroke-linejoin:round; stroke-width:4; stroke-opacity:1; fill:none" points="
  768.98,1486.45 768.98,1467.55 
  "/>
<polyline clip-path="url(#clip990)" style="stroke:#000000; stroke-linecap:butt; stroke-linejoin:round; stroke-width:4; stroke-opacity:1; fill:none" points="
  1290.37,1486.45 1290.37,1467.55 
  "/>
<polyline clip-path="url(#clip990)" style="stroke:#000000; stroke-linecap:butt; stroke-linejoin:round; stroke-width:4; stroke-opacity:1; fill:none" points="
  1811.76,1486.45 1811.76,1467.55 
  "/>
<polyline clip-path="url(#clip990)" style="stroke:#000000; stroke-linecap:butt; stroke-linejoin:round; stroke-width:4; stroke-opacity:1; fill:none" points="
  2333.15,1486.45 2333.15,1467.55 
  "/>
<path clip-path="url(#clip990)" d="M194.118 1532.02 L223.793 1532.02 L223.793 1535.95 L194.118 1535.95 L194.118 1532.02 Z" fill="#000000" fill-rule="evenodd" fill-opacity="1" /><path clip-path="url(#clip990)" d="M234.696 1544.91 L242.335 1544.91 L242.335 1518.55 L234.025 1520.21 L234.025 1515.95 L242.289 1514.29 L246.965 1514.29 L246.965 1544.91 L254.603 1544.91 L254.603 1548.85 L234.696 1548.85 L234.696 1544.91 Z" fill="#000000" fill-rule="evenodd" fill-opacity="1" /><path clip-path="url(#clip990)" d="M264.048 1542.97 L268.932 1542.97 L268.932 1548.85 L264.048 1548.85 L264.048 1542.97 Z" fill="#000000" fill-rule="evenodd" fill-opacity="1" /><path clip-path="url(#clip990)" d="M289.117 1517.37 Q285.506 1517.37 283.677 1520.93 Q281.872 1524.47 281.872 1531.6 Q281.872 1538.71 283.677 1542.27 Q285.506 1545.82 289.117 1545.82 Q292.751 1545.82 294.557 1542.27 Q296.386 1538.71 296.386 1531.6 Q296.386 1524.47 294.557 1520.93 Q292.751 1517.37 289.117 1517.37 M289.117 1513.66 Q294.927 1513.66 297.983 1518.27 Q301.061 1522.85 301.061 1531.6 Q301.061 1540.33 297.983 1544.94 Q294.927 1549.52 289.117 1549.52 Q283.307 1549.52 280.228 1544.94 Q277.173 1540.33 277.173 1531.6 Q277.173 1522.85 280.228 1518.27 Q283.307 1513.66 289.117 1513.66 Z" fill="#000000" fill-rule="evenodd" fill-opacity="1" /><path clip-path="url(#clip990)" d="M716.006 1532.02 L745.682 1532.02 L745.682 1535.95 L716.006 1535.95 L716.006 1532.02 Z" fill="#000000" fill-rule="evenodd" fill-opacity="1" /><path clip-path="url(#clip990)" d="M765.774 1517.37 Q762.163 1517.37 760.334 1520.93 Q758.529 1524.47 758.529 1531.6 Q758.529 1538.71 760.334 1542.27 Q762.163 1545.82 765.774 1545.82 Q769.408 1545.82 771.214 1542.27 Q773.043 1538.71 773.043 1531.6 Q773.043 1524.47 771.214 1520.93 Q769.408 1517.37 765.774 1517.37 M765.774 1513.66 Q771.584 1513.66 774.64 1518.27 Q777.718 1522.85 777.718 1531.6 Q777.718 1540.33 774.64 1544.94 Q771.584 1549.52 765.774 1549.52 Q759.964 1549.52 756.885 1544.94 Q753.83 1540.33 753.83 1531.6 Q753.83 1522.85 756.885 1518.27 Q759.964 1513.66 765.774 1513.66 Z" fill="#000000" fill-rule="evenodd" fill-opacity="1" /><path clip-path="url(#clip990)" d="M785.936 1542.97 L790.82 1542.97 L790.82 1548.85 L785.936 1548.85 L785.936 1542.97 Z" fill="#000000" fill-rule="evenodd" fill-opacity="1" /><path clip-path="url(#clip990)" d="M801.052 1514.29 L819.408 1514.29 L819.408 1518.22 L805.334 1518.22 L805.334 1526.7 Q806.353 1526.35 807.371 1526.19 Q808.39 1526 809.408 1526 Q815.195 1526 818.575 1529.17 Q821.954 1532.34 821.954 1537.76 Q821.954 1543.34 818.482 1546.44 Q815.01 1549.52 808.69 1549.52 Q806.515 1549.52 804.246 1549.15 Q802.001 1548.78 799.593 1548.04 L799.593 1543.34 Q801.677 1544.47 803.899 1545.03 Q806.121 1545.58 808.598 1545.58 Q812.603 1545.58 814.94 1543.48 Q817.278 1541.37 817.278 1537.76 Q817.278 1534.15 814.94 1532.04 Q812.603 1529.94 808.598 1529.94 Q806.723 1529.94 804.848 1530.35 Q802.996 1530.77 801.052 1531.65 L801.052 1514.29 Z" fill="#000000" fill-rule="evenodd" fill-opacity="1" /><path clip-path="url(#clip990)" d="M1267.75 1517.37 Q1264.14 1517.37 1262.32 1520.93 Q1260.51 1524.47 1260.51 1531.6 Q1260.51 1538.71 1262.32 1542.27 Q1264.14 1545.82 1267.75 1545.82 Q1271.39 1545.82 1273.19 1542.27 Q1275.02 1538.71 1275.02 1531.6 Q1275.02 1524.47 1273.19 1520.93 Q1271.39 1517.37 1267.75 1517.37 M1267.75 1513.66 Q1273.57 1513.66 1276.62 1518.27 Q1279.7 1522.85 1279.7 1531.6 Q1279.7 1540.33 1276.62 1544.94 Q1273.57 1549.52 1267.75 1549.52 Q1261.94 1549.52 1258.87 1544.94 Q1255.81 1540.33 1255.81 1531.6 Q1255.81 1522.85 1258.87 1518.27 Q1261.94 1513.66 1267.75 1513.66 Z" fill="#000000" fill-rule="evenodd" fill-opacity="1" /><path clip-path="url(#clip990)" d="M1287.92 1542.97 L1292.8 1542.97 L1292.8 1548.85 L1287.92 1548.85 L1287.92 1542.97 Z" fill="#000000" fill-rule="evenodd" fill-opacity="1" /><path clip-path="url(#clip990)" d="M1312.99 1517.37 Q1309.38 1517.37 1307.55 1520.93 Q1305.74 1524.47 1305.74 1531.6 Q1305.74 1538.71 1307.55 1542.27 Q1309.38 1545.82 1312.99 1545.82 Q1316.62 1545.82 1318.43 1542.27 Q1320.25 1538.71 1320.25 1531.6 Q1320.25 1524.47 1318.43 1520.93 Q1316.62 1517.37 1312.99 1517.37 M1312.99 1513.66 Q1318.8 1513.66 1321.85 1518.27 Q1324.93 1522.85 1324.93 1531.6 Q1324.93 1540.33 1321.85 1544.94 Q1318.8 1549.52 1312.99 1549.52 Q1307.18 1549.52 1304.1 1544.94 Q1301.04 1540.33 1301.04 1531.6 Q1301.04 1522.85 1304.1 1518.27 Q1307.18 1513.66 1312.99 1513.66 Z" fill="#000000" fill-rule="evenodd" fill-opacity="1" /><path clip-path="url(#clip990)" d="M1789.64 1517.37 Q1786.03 1517.37 1784.2 1520.93 Q1782.4 1524.47 1782.4 1531.6 Q1782.4 1538.71 1784.2 1542.27 Q1786.03 1545.82 1789.64 1545.82 Q1793.28 1545.82 1795.08 1542.27 Q1796.91 1538.71 1796.91 1531.6 Q1796.91 1524.47 1795.08 1520.93 Q1793.28 1517.37 1789.64 1517.37 M1789.64 1513.66 Q1795.45 1513.66 1798.51 1518.27 Q1801.59 1522.85 1801.59 1531.6 Q1801.59 1540.33 1798.51 1544.94 Q1795.45 1549.52 1789.64 1549.52 Q1783.83 1549.52 1780.75 1544.94 Q1777.7 1540.33 1777.7 1531.6 Q1777.7 1522.85 1780.75 1518.27 Q1783.83 1513.66 1789.64 1513.66 Z" fill="#000000" fill-rule="evenodd" fill-opacity="1" /><path clip-path="url(#clip990)" d="M1809.81 1542.97 L1814.69 1542.97 L1814.69 1548.85 L1809.81 1548.85 L1809.81 1542.97 Z" fill="#000000" fill-rule="evenodd" fill-opacity="1" /><path clip-path="url(#clip990)" d="M1824.92 1514.29 L1843.28 1514.29 L1843.28 1518.22 L1829.2 1518.22 L1829.2 1526.7 Q1830.22 1526.35 1831.24 1526.19 Q1832.26 1526 1833.28 1526 Q1839.06 1526 1842.44 1529.17 Q1845.82 1532.34 1845.82 1537.76 Q1845.82 1543.34 1842.35 1546.44 Q1838.88 1549.52 1832.56 1549.52 Q1830.38 1549.52 1828.12 1549.15 Q1825.87 1548.78 1823.46 1548.04 L1823.46 1543.34 Q1825.55 1544.47 1827.77 1545.03 Q1829.99 1545.58 1832.47 1545.58 Q1836.47 1545.58 1838.81 1543.48 Q1841.15 1541.37 1841.15 1537.76 Q1841.15 1534.15 1838.81 1532.04 Q1836.47 1529.94 1832.47 1529.94 Q1830.59 1529.94 1828.72 1530.35 Q1826.87 1530.77 1824.92 1531.65 L1824.92 1514.29 Z" fill="#000000" fill-rule="evenodd" fill-opacity="1" /><path clip-path="url(#clip990)" d="M2300.3 1544.91 L2307.94 1544.91 L2307.94 1518.55 L2299.63 1520.21 L2299.63 1515.95 L2307.9 1514.29 L2312.57 1514.29 L2312.57 1544.91 L2320.21 1544.91 L2320.21 1548.85 L2300.3 1548.85 L2300.3 1544.91 Z" fill="#000000" fill-rule="evenodd" fill-opacity="1" /><path clip-path="url(#clip990)" d="M2329.66 1542.97 L2334.54 1542.97 L2334.54 1548.85 L2329.66 1548.85 L2329.66 1542.97 Z" fill="#000000" fill-rule="evenodd" fill-opacity="1" /><path clip-path="url(#clip990)" d="M2354.73 1517.37 Q2351.11 1517.37 2349.29 1520.93 Q2347.48 1524.47 2347.48 1531.6 Q2347.48 1538.71 2349.29 1542.27 Q2351.11 1545.82 2354.73 1545.82 Q2358.36 1545.82 2360.17 1542.27 Q2361.99 1538.71 2361.99 1531.6 Q2361.99 1524.47 2360.17 1520.93 Q2358.36 1517.37 2354.73 1517.37 M2354.73 1513.66 Q2360.54 1513.66 2363.59 1518.27 Q2366.67 1522.85 2366.67 1531.6 Q2366.67 1540.33 2363.59 1544.94 Q2360.54 1549.52 2354.73 1549.52 Q2348.92 1549.52 2345.84 1544.94 Q2342.78 1540.33 2342.78 1531.6 Q2342.78 1522.85 2345.84 1518.27 Q2348.92 1513.66 2354.73 1513.66 Z" fill="#000000" fill-rule="evenodd" fill-opacity="1" /><polyline clip-path="url(#clip992)" style="stroke:#000000; stroke-linecap:butt; stroke-linejoin:round; stroke-width:2; stroke-opacity:0.1; fill:none" points="
  186.274,1445.88 2352.76,1445.88 
  "/>
<polyline clip-path="url(#clip992)" style="stroke:#000000; stroke-linecap:butt; stroke-linejoin:round; stroke-width:2; stroke-opacity:0.1; fill:none" points="
  186.274,1106.41 2352.76,1106.41 
  "/>
<polyline clip-path="url(#clip992)" style="stroke:#000000; stroke-linecap:butt; stroke-linejoin:round; stroke-width:2; stroke-opacity:0.1; fill:none" points="
  186.274,766.93 2352.76,766.93 
  "/>
<polyline clip-path="url(#clip992)" style="stroke:#000000; stroke-linecap:butt; stroke-linejoin:round; stroke-width:2; stroke-opacity:0.1; fill:none" points="
  186.274,427.453 2352.76,427.453 
  "/>
<polyline clip-path="url(#clip992)" style="stroke:#000000; stroke-linecap:butt; stroke-linejoin:round; stroke-width:2; stroke-opacity:0.1; fill:none" points="
  186.274,87.9763 2352.76,87.9763 
  "/>
<polyline clip-path="url(#clip990)" style="stroke:#000000; stroke-linecap:butt; stroke-linejoin:round; stroke-width:4; stroke-opacity:1; fill:none" points="
  186.274,1486.45 186.274,47.2441 
  "/>
<polyline clip-path="url(#clip990)" style="stroke:#000000; stroke-linecap:butt; stroke-linejoin:round; stroke-width:4; stroke-opacity:1; fill:none" points="
  186.274,1445.88 205.172,1445.88 
  "/>
<polyline clip-path="url(#clip990)" style="stroke:#000000; stroke-linecap:butt; stroke-linejoin:round; stroke-width:4; stroke-opacity:1; fill:none" points="
  186.274,1106.41 205.172,1106.41 
  "/>
<polyline clip-path="url(#clip990)" style="stroke:#000000; stroke-linecap:butt; stroke-linejoin:round; stroke-width:4; stroke-opacity:1; fill:none" points="
  186.274,766.93 205.172,766.93 
  "/>
<polyline clip-path="url(#clip990)" style="stroke:#000000; stroke-linecap:butt; stroke-linejoin:round; stroke-width:4; stroke-opacity:1; fill:none" points="
  186.274,427.453 205.172,427.453 
  "/>
<polyline clip-path="url(#clip990)" style="stroke:#000000; stroke-linecap:butt; stroke-linejoin:round; stroke-width:4; stroke-opacity:1; fill:none" points="
  186.274,87.9763 205.172,87.9763 
  "/>
<path clip-path="url(#clip990)" d="M62.9365 1431.68 Q59.3254 1431.68 57.4967 1435.25 Q55.6912 1438.79 55.6912 1445.92 Q55.6912 1453.02 57.4967 1456.59 Q59.3254 1460.13 62.9365 1460.13 Q66.5707 1460.13 68.3763 1456.59 Q70.205 1453.02 70.205 1445.92 Q70.205 1438.79 68.3763 1435.25 Q66.5707 1431.68 62.9365 1431.68 M62.9365 1427.98 Q68.7467 1427.98 71.8022 1432.58 Q74.8809 1437.17 74.8809 1445.92 Q74.8809 1454.64 71.8022 1459.25 Q68.7467 1463.83 62.9365 1463.83 Q57.1264 1463.83 54.0477 1459.25 Q50.9921 1454.64 50.9921 1445.92 Q50.9921 1437.17 54.0477 1432.58 Q57.1264 1427.98 62.9365 1427.98 Z" fill="#000000" fill-rule="evenodd" fill-opacity="1" /><path clip-path="url(#clip990)" d="M83.0984 1457.28 L87.9827 1457.28 L87.9827 1463.16 L83.0984 1463.16 L83.0984 1457.28 Z" fill="#000000" fill-rule="evenodd" fill-opacity="1" /><path clip-path="url(#clip990)" d="M108.168 1431.68 Q104.557 1431.68 102.728 1435.25 Q100.922 1438.79 100.922 1445.92 Q100.922 1453.02 102.728 1456.59 Q104.557 1460.13 108.168 1460.13 Q111.802 1460.13 113.608 1456.59 Q115.436 1453.02 115.436 1445.92 Q115.436 1438.79 113.608 1435.25 Q111.802 1431.68 108.168 1431.68 M108.168 1427.98 Q113.978 1427.98 117.033 1432.58 Q120.112 1437.17 120.112 1445.92 Q120.112 1454.64 117.033 1459.25 Q113.978 1463.83 108.168 1463.83 Q102.358 1463.83 99.2789 1459.25 Q96.2234 1454.64 96.2234 1445.92 Q96.2234 1437.17 99.2789 1432.58 Q102.358 1427.98 108.168 1427.98 Z" fill="#000000" fill-rule="evenodd" fill-opacity="1" /><path clip-path="url(#clip990)" d="M138.33 1431.68 Q134.719 1431.68 132.89 1435.25 Q131.084 1438.79 131.084 1445.92 Q131.084 1453.02 132.89 1456.59 Q134.719 1460.13 138.33 1460.13 Q141.964 1460.13 143.769 1456.59 Q145.598 1453.02 145.598 1445.92 Q145.598 1438.79 143.769 1435.25 Q141.964 1431.68 138.33 1431.68 M138.33 1427.98 Q144.14 1427.98 147.195 1432.58 Q150.274 1437.17 150.274 1445.92 Q150.274 1454.64 147.195 1459.25 Q144.14 1463.83 138.33 1463.83 Q132.519 1463.83 129.441 1459.25 Q126.385 1454.64 126.385 1445.92 Q126.385 1437.17 129.441 1432.58 Q132.519 1427.98 138.33 1427.98 Z" fill="#000000" fill-rule="evenodd" fill-opacity="1" /><path clip-path="url(#clip990)" d="M63.9319 1092.21 Q60.3208 1092.21 58.4921 1095.77 Q56.6865 1099.31 56.6865 1106.44 Q56.6865 1113.55 58.4921 1117.11 Q60.3208 1120.65 63.9319 1120.65 Q67.5661 1120.65 69.3717 1117.11 Q71.2004 1113.55 71.2004 1106.44 Q71.2004 1099.31 69.3717 1095.77 Q67.5661 1092.21 63.9319 1092.21 M63.9319 1088.5 Q69.742 1088.5 72.7976 1093.11 Q75.8763 1097.69 75.8763 1106.44 Q75.8763 1115.17 72.7976 1119.77 Q69.742 1124.36 63.9319 1124.36 Q58.1217 1124.36 55.043 1119.77 Q51.9875 1115.17 51.9875 1106.44 Q51.9875 1097.69 55.043 1093.11 Q58.1217 1088.5 63.9319 1088.5 Z" fill="#000000" fill-rule="evenodd" fill-opacity="1" /><path clip-path="url(#clip990)" d="M84.0938 1117.81 L88.978 1117.81 L88.978 1123.69 L84.0938 1123.69 L84.0938 1117.81 Z" fill="#000000" fill-rule="evenodd" fill-opacity="1" /><path clip-path="url(#clip990)" d="M103.191 1119.75 L119.51 1119.75 L119.51 1123.69 L97.566 1123.69 L97.566 1119.75 Q100.228 1117 104.811 1112.37 Q109.418 1107.71 110.598 1106.37 Q112.844 1103.85 113.723 1102.11 Q114.626 1100.35 114.626 1098.66 Q114.626 1095.91 112.682 1094.17 Q110.76 1092.44 107.658 1092.44 Q105.459 1092.44 103.006 1093.2 Q100.575 1093.96 97.7974 1095.52 L97.7974 1090.79 Q100.621 1089.66 103.075 1089.08 Q105.529 1088.5 107.566 1088.5 Q112.936 1088.5 116.131 1091.19 Q119.325 1093.87 119.325 1098.36 Q119.325 1100.49 118.515 1102.41 Q117.728 1104.31 115.621 1106.9 Q115.043 1107.58 111.941 1110.79 Q108.839 1113.99 103.191 1119.75 Z" fill="#000000" fill-rule="evenodd" fill-opacity="1" /><path clip-path="url(#clip990)" d="M129.371 1089.13 L147.728 1089.13 L147.728 1093.06 L133.654 1093.06 L133.654 1101.53 Q134.672 1101.19 135.691 1101.02 Q136.709 1100.84 137.728 1100.84 Q143.515 1100.84 146.894 1104.01 Q150.274 1107.18 150.274 1112.6 Q150.274 1118.18 146.802 1121.28 Q143.33 1124.36 137.01 1124.36 Q134.834 1124.36 132.566 1123.99 Q130.32 1123.62 127.913 1122.88 L127.913 1118.18 Q129.996 1119.31 132.219 1119.87 Q134.441 1120.42 136.918 1120.42 Q140.922 1120.42 143.26 1118.32 Q145.598 1116.21 145.598 1112.6 Q145.598 1108.99 143.26 1106.88 Q140.922 1104.77 136.918 1104.77 Q135.043 1104.77 133.168 1105.19 Q131.316 1105.61 129.371 1106.49 L129.371 1089.13 Z" fill="#000000" fill-rule="evenodd" fill-opacity="1" /><path clip-path="url(#clip990)" d="M62.9365 752.728 Q59.3254 752.728 57.4967 756.293 Q55.6912 759.835 55.6912 766.964 Q55.6912 774.071 57.4967 777.636 Q59.3254 781.177 62.9365 781.177 Q66.5707 781.177 68.3763 777.636 Q70.205 774.071 70.205 766.964 Q70.205 759.835 68.3763 756.293 Q66.5707 752.728 62.9365 752.728 M62.9365 749.025 Q68.7467 749.025 71.8022 753.631 Q74.8809 758.215 74.8809 766.964 Q74.8809 775.691 71.8022 780.298 Q68.7467 784.881 62.9365 784.881 Q57.1264 784.881 54.0477 780.298 Q50.9921 775.691 50.9921 766.964 Q50.9921 758.215 54.0477 753.631 Q57.1264 749.025 62.9365 749.025 Z" fill="#000000" fill-rule="evenodd" fill-opacity="1" /><path clip-path="url(#clip990)" d="M83.0984 778.33 L87.9827 778.33 L87.9827 784.21 L83.0984 784.21 L83.0984 778.33 Z" fill="#000000" fill-rule="evenodd" fill-opacity="1" /><path clip-path="url(#clip990)" d="M98.2141 749.65 L116.57 749.65 L116.57 753.585 L102.496 753.585 L102.496 762.057 Q103.515 761.71 104.534 761.548 Q105.552 761.363 106.571 761.363 Q112.358 761.363 115.737 764.534 Q119.117 767.705 119.117 773.122 Q119.117 778.701 115.645 781.802 Q112.172 784.881 105.853 784.881 Q103.677 784.881 101.409 784.511 Q99.1632 784.14 96.7558 783.4 L96.7558 778.701 Q98.8391 779.835 101.061 780.39 Q103.284 780.946 105.76 780.946 Q109.765 780.946 112.103 778.839 Q114.441 776.733 114.441 773.122 Q114.441 769.511 112.103 767.404 Q109.765 765.298 105.76 765.298 Q103.885 765.298 102.01 765.715 Q100.159 766.131 98.2141 767.011 L98.2141 749.65 Z" fill="#000000" fill-rule="evenodd" fill-opacity="1" /><path clip-path="url(#clip990)" d="M138.33 752.728 Q134.719 752.728 132.89 756.293 Q131.084 759.835 131.084 766.964 Q131.084 774.071 132.89 777.636 Q134.719 781.177 138.33 781.177 Q141.964 781.177 143.769 777.636 Q145.598 774.071 145.598 766.964 Q145.598 759.835 143.769 756.293 Q141.964 752.728 138.33 752.728 M138.33 749.025 Q144.14 749.025 147.195 753.631 Q150.274 758.215 150.274 766.964 Q150.274 775.691 147.195 780.298 Q144.14 784.881 138.33 784.881 Q132.519 784.881 129.441 780.298 Q126.385 775.691 126.385 766.964 Q126.385 758.215 129.441 753.631 Q132.519 749.025 138.33 749.025 Z" fill="#000000" fill-rule="evenodd" fill-opacity="1" /><path clip-path="url(#clip990)" d="M63.9319 413.252 Q60.3208 413.252 58.4921 416.817 Q56.6865 420.358 56.6865 427.488 Q56.6865 434.594 58.4921 438.159 Q60.3208 441.701 63.9319 441.701 Q67.5661 441.701 69.3717 438.159 Q71.2004 434.594 71.2004 427.488 Q71.2004 420.358 69.3717 416.817 Q67.5661 413.252 63.9319 413.252 M63.9319 409.548 Q69.742 409.548 72.7976 414.154 Q75.8763 418.738 75.8763 427.488 Q75.8763 436.215 72.7976 440.821 Q69.742 445.404 63.9319 445.404 Q58.1217 445.404 55.043 440.821 Q51.9875 436.215 51.9875 427.488 Q51.9875 418.738 55.043 414.154 Q58.1217 409.548 63.9319 409.548 Z" fill="#000000" fill-rule="evenodd" fill-opacity="1" /><path clip-path="url(#clip990)" d="M84.0938 438.853 L88.978 438.853 L88.978 444.733 L84.0938 444.733 L84.0938 438.853 Z" fill="#000000" fill-rule="evenodd" fill-opacity="1" /><path clip-path="url(#clip990)" d="M97.9826 410.173 L120.205 410.173 L120.205 412.164 L107.658 444.733 L102.774 444.733 L114.58 414.108 L97.9826 414.108 L97.9826 410.173 Z" fill="#000000" fill-rule="evenodd" fill-opacity="1" /><path clip-path="url(#clip990)" d="M129.371 410.173 L147.728 410.173 L147.728 414.108 L133.654 414.108 L133.654 422.58 Q134.672 422.233 135.691 422.071 Q136.709 421.886 137.728 421.886 Q143.515 421.886 146.894 425.057 Q150.274 428.228 150.274 433.645 Q150.274 439.224 146.802 442.326 Q143.33 445.404 137.01 445.404 Q134.834 445.404 132.566 445.034 Q130.32 444.664 127.913 443.923 L127.913 439.224 Q129.996 440.358 132.219 440.914 Q134.441 441.469 136.918 441.469 Q140.922 441.469 143.26 439.363 Q145.598 437.256 145.598 433.645 Q145.598 430.034 143.26 427.928 Q140.922 425.821 136.918 425.821 Q135.043 425.821 133.168 426.238 Q131.316 426.654 129.371 427.534 L129.371 410.173 Z" fill="#000000" fill-rule="evenodd" fill-opacity="1" /><path clip-path="url(#clip990)" d="M53.7467 101.321 L61.3856 101.321 L61.3856 74.9555 L53.0754 76.6222 L53.0754 72.3629 L61.3393 70.6963 L66.0152 70.6963 L66.0152 101.321 L73.654 101.321 L73.654 105.256 L53.7467 105.256 L53.7467 101.321 Z" fill="#000000" fill-rule="evenodd" fill-opacity="1" /><path clip-path="url(#clip990)" d="M83.0984 99.3767 L87.9827 99.3767 L87.9827 105.256 L83.0984 105.256 L83.0984 99.3767 Z" fill="#000000" fill-rule="evenodd" fill-opacity="1" /><path clip-path="url(#clip990)" d="M108.168 73.775 Q104.557 73.775 102.728 77.3398 Q100.922 80.8814 100.922 88.011 Q100.922 95.1174 102.728 98.6822 Q104.557 102.224 108.168 102.224 Q111.802 102.224 113.608 98.6822 Q115.436 95.1174 115.436 88.011 Q115.436 80.8814 113.608 77.3398 Q111.802 73.775 108.168 73.775 M108.168 70.0713 Q113.978 70.0713 117.033 74.6777 Q120.112 79.261 120.112 88.011 Q120.112 96.7378 117.033 101.344 Q113.978 105.928 108.168 105.928 Q102.358 105.928 99.2789 101.344 Q96.2234 96.7378 96.2234 88.011 Q96.2234 79.261 99.2789 74.6777 Q102.358 70.0713 108.168 70.0713 Z" fill="#000000" fill-rule="evenodd" fill-opacity="1" /><path clip-path="url(#clip990)" d="M138.33 73.775 Q134.719 73.775 132.89 77.3398 Q131.084 80.8814 131.084 88.011 Q131.084 95.1174 132.89 98.6822 Q134.719 102.224 138.33 102.224 Q141.964 102.224 143.769 98.6822 Q145.598 95.1174 145.598 88.011 Q145.598 80.8814 143.769 77.3398 Q141.964 73.775 138.33 73.775 M138.33 70.0713 Q144.14 70.0713 147.195 74.6777 Q150.274 79.261 150.274 88.011 Q150.274 96.7378 147.195 101.344 Q144.14 105.928 138.33 105.928 Q132.519 105.928 129.441 101.344 Q126.385 96.7378 126.385 88.011 Q126.385 79.261 129.441 74.6777 Q132.519 70.0713 138.33 70.0713 Z" fill="#000000" fill-rule="evenodd" fill-opacity="1" /><polyline clip-path="url(#clip992)" style="stroke:#009af9; stroke-linecap:butt; stroke-linejoin:round; stroke-width:12; stroke-opacity:1; fill:none" points="
  247.59,1445.72 289.301,1445.54 331.012,1445.22 372.723,1444.61 414.434,1443.51 456.146,1441.6 497.857,1438.38 539.568,1433.1 581.279,1424.72 622.991,1411.85 
  664.702,1392.7 706.413,1365.14 748.124,1326.77 789.836,1275.15 831.547,1208.11 873.258,1124.16 914.969,1022.91 956.681,905.597 998.392,775.332 1040.1,637.287 
  1081.81,498.504 1123.53,367.412 1165.24,253.034 1206.95,163.982 1248.66,107.39 1290.37,87.9763 1332.08,107.39 1373.79,163.982 1415.5,253.034 1457.22,367.412 
  1498.93,498.504 1540.64,637.287 1582.35,775.332 1624.06,905.597 1665.77,1022.91 1707.48,1124.16 1749.19,1208.11 1790.91,1275.15 1832.62,1326.77 1874.33,1365.14 
  1916.04,1392.7 1957.75,1411.85 1999.46,1424.72 2041.17,1433.1 2082.88,1438.38 2124.6,1441.6 2166.31,1443.51 2208.02,1444.61 2249.73,1445.22 2291.44,1445.54 
  
  "/>
<polyline clip-path="url(#clip992)" style="stroke:#e26f46; stroke-linecap:butt; stroke-linejoin:round; stroke-width:12; stroke-opacity:1; fill:none" points="
  247.59,1444.89 289.301,1445.39 331.012,1445.61 372.723,1445.61 414.434,1445.41 456.146,1444.99 497.857,1444.23 539.568,1442.86 581.279,1440.5 622.991,1436.53 
  664.702,1430.07 706.413,1419.88 748.124,1404.34 789.836,1381.44 831.547,1348.83 873.258,1303.99 914.969,1244.53 956.681,1168.51 998.392,1074.98 1040.1,964.388 
  1081.81,839.008 1123.53,703.156 1165.24,563.156 1206.95,426.97 1248.66,303.517 1290.37,201.733 1332.08,129.51 1373.79,92.6899 1415.5,94.2814 1457.22,134.057 
  1498.93,208.598 1540.64,311.774 1582.35,435.575 1624.06,571.128 1665.77,709.725 1707.48,843.706 1749.19,967.077 1790.91,1075.81 1832.62,1167.83 1874.33,1242.8 
  1916.04,1301.69 1957.75,1346.35 1999.46,1379.09 2041.17,1402.31 2082.88,1418.25 2124.6,1428.85 2166.31,1435.67 2208.02,1439.9 2249.73,1442.53 2291.44,1444.01 
  
  "/>
<polyline clip-path="url(#clip992)" style="stroke:#3da44d; stroke-linecap:butt; stroke-linejoin:round; stroke-width:12; stroke-opacity:1; fill:none" points="
  247.59,1441.16 289.301,1443.22 331.012,1444.43 372.723,1445.12 414.434,1445.48 456.146,1445.59 497.857,1445.51 539.568,1445.25 581.279,1444.72 622.991,1443.76 
  664.702,1442.06 706.413,1439.14 748.124,1434.26 789.836,1426.36 831.547,1413.97 873.258,1395.25 914.969,1367.92 956.681,1329.46 998.392,1277.31 1040.1,1209.21 
  1081.81,1123.67 1123.53,1020.44 1165.24,900.958 1206.95,768.658 1248.66,629.07 1290.37,489.562 1332.08,358.785 1373.79,245.818 1415.5,159.134 1457.22,105.556 
  1498.93,89.3684 1540.64,111.755 1582.35,170.66 1624.06,261.092 1665.77,375.818 1707.48,506.306 1749.19,643.753 1790.91,780.026 1832.62,908.395 1874.33,1023.96 
  1916.04,1123.78 1957.75,1206.72 1999.46,1273.18 2041.17,1324.57 2082.88,1363.02 2124.6,1390.79 2166.31,1410.3 2208.02,1423.48 2249.73,1432.18 2291.44,1437.73 
  
  "/>
<polyline clip-path="url(#clip992)" style="stroke:#c271d2; stroke-linecap:butt; stroke-linejoin:round; stroke-width:12; stroke-opacity:1; fill:none" points="
  247.59,1427.78 289.301,1434.89 331.012,1439.38 372.723,1442.14 414.434,1443.8 456.146,1444.76 497.857,1445.28 539.568,1445.52 581.279,1445.54 622.991,1445.39 
  664.702,1445.04 706.413,1444.38 748.124,1443.19 789.836,1441.1 831.547,1437.49 873.258,1431.49 914.969,1421.82 956.681,1406.77 998.392,1384.22 1040.1,1351.68 
  1081.81,1306.51 1123.53,1246.2 1165.24,1168.79 1206.95,1073.4 1248.66,960.652 1290.37,833.122 1332.08,695.475 1373.79,554.381 1415.5,418.07 1457.22,295.584 
  1498.93,195.795 1540.64,126.349 1582.35,92.6955 1624.06,97.389 1665.77,139.769 1707.48,216.089 1749.19,320.051 1790.91,443.654 1832.62,578.184 1874.33,715.199 
  1916.04,847.346 1957.75,968.9 1999.46,1076.09 2041.17,1166.89 2082.88,1241.12 2124.6,1299.6 2166.31,1344.21 2208.02,1377.11 2249.73,1400.6 2291.44,1416.87 
  
  "/>
<polyline clip-path="url(#clip992)" style="stroke:#ac8d18; stroke-linecap:butt; stroke-linejoin:round; stroke-width:12; stroke-opacity:1; fill:none" points="
  247.59,1388.98 289.301,1408.75 331.012,1422.28 372.723,1431.27 414.434,1437.07 456.146,1440.71 497.857,1442.93 539.568,1444.25 581.279,1445 622.991,1445.38 
  664.702,1445.51 706.413,1445.46 748.124,1445.24 789.836,1444.79 831.547,1443.97 873.258,1442.51 914.969,1439.92 956.681,1435.48 998.392,1428.09 1040.1,1416.24 
  1081.81,1397.96 1123.53,1370.85 1165.24,1332.25 1206.95,1279.47 1248.66,1210.19 1290.37,1122.95 1332.08,1017.63 1373.79,895.932 1415.5,761.638 1457.22,620.627 
  1498.93,480.575 1540.64,350.315 1582.35,238.935 1624.06,154.731 1665.77,104.186 1707.48,91.1531 1749.19,116.371 1790.91,177.41 1832.62,269.058 1874.33,383.991 
  1916.04,513.832 1957.75,649.909 1999.46,784.49 2041.17,911.024 2082.88,1024.93 2124.6,1123.4 2166.31,1205.39 2208.02,1271.29 2249.73,1322.47 2291.44,1360.96 
  
  "/>
<polyline clip-path="url(#clip992)" style="stroke:#00a9ad; stroke-linecap:butt; stroke-linejoin:round; stroke-width:12; stroke-opacity:1; fill:none" points="
  247.59,1297.62 289.301,1342.15 331.012,1375.18 372.723,1398.93 414.434,1415.51 456.146,1426.73 497.857,1434.11 539.568,1438.84 581.279,1441.78 622.991,1443.56 
  664.702,1444.6 706.413,1445.16 748.124,1445.42 789.836,1445.46 831.547,1445.34 873.258,1445.05 914.969,1444.5 956.681,1443.5 998.392,1441.69 1040.1,1438.5 
  1081.81,1433 1123.53,1423.89 1165.24,1409.36 1206.95,1387.16 1248.66,1354.66 1290.37,1309.08 1332.08,1247.8 1373.79,1168.87 1415.5,1071.49 1457.22,956.535 
  1498.93,826.866 1540.64,687.516 1582.35,545.489 1624.06,409.249 1665.77,287.919 1707.48,190.259 1749.19,123.653 1790.91,93.1127 1832.62,100.818 1874.33,145.61 
  1916.04,223.563 1957.75,328.152 1999.46,451.47 2041.17,584.953 2082.88,720.408 2124.6,850.79 2166.31,970.623 2208.02,1076.31 2249.73,1166.02 2291.44,1239.48 
  
  "/>
<polyline clip-path="url(#clip992)" style="stroke:#ed5d92; stroke-linecap:butt; stroke-linejoin:round; stroke-width:12; stroke-opacity:1; fill:none" points="
  247.59,1123.02 289.301,1204.11 331.012,1269.48 372.723,1320.46 414.434,1358.98 456.146,1387.2 497.857,1407.25 539.568,1421.09 581.279,1430.37 622.991,1436.42 
  664.702,1440.27 706.413,1442.64 748.124,1444.05 789.836,1444.86 831.547,1445.26 873.258,1445.41 914.969,1445.38 956.681,1445.2 998.392,1444.83 1040.1,1444.16 
  1081.81,1442.94 1123.53,1440.72 1165.24,1436.76 1206.95,1429.94 1248.66,1418.66 1290.37,1400.84 1332.08,1373.93 1373.79,1335.12 1415.5,1281.6 1457.22,1211.01 
  1498.93,1121.94 1540.64,1014.45 1582.35,890.526 1624.06,754.293 1665.77,612.01 1707.48,471.579 1749.19,342.056 1790.91,232.393 1832.62,150.777 1874.33,103.252 
  1916.04,93.2905 1957.75,121.199 1999.46,184.201 2041.17,276.905 2082.88,391.957 2124.6,521.052 2166.31,655.827 2208.02,788.705 2249.73,913.52 2291.44,1025.83 
  
  "/>
<polyline clip-path="url(#clip992)" style="stroke:#c68125; stroke-linecap:butt; stroke-linejoin:round; stroke-width:12; stroke-opacity:1; fill:none" points="
  247.59,854.052 289.301,972.242 331.012,1076.52 372.723,1165.16 414.434,1237.93 456.146,1295.71 497.857,1340.16 539.568,1373.32 581.279,1397.31 622.991,1414.17 
  664.702,1425.7 706.413,1433.35 748.124,1438.3 789.836,1441.41 831.547,1443.32 873.258,1444.43 914.969,1445.03 956.681,1445.31 998.392,1445.36 1040.1,1445.26 
  1081.81,1445.02 1123.53,1444.58 1165.24,1443.78 1206.95,1442.29 1248.66,1439.55 1290.37,1434.62 1332.08,1426.11 1373.79,1412.12 1415.5,1390.27 1457.22,1357.76 
  1498.93,1311.66 1540.64,1249.28 1582.35,1168.72 1624.06,1069.24 1665.77,952.047 1707.48,820.248 1749.19,679.325 1790.91,536.524 1832.62,400.549 1874.33,280.551 
  1916.04,185.134 1957.75,121.388 1999.46,93.9398 2041.17,104.485 2082.88,151.591 2124.6,230.965 2166.31,336.086 2208.02,459.033 2249.73,591.443 2291.44,725.383 
  
  "/>
<polyline clip-path="url(#clip992)" style="stroke:#00a98d; stroke-linecap:butt; stroke-linejoin:round; stroke-width:12; stroke-opacity:1; fill:none" points="
  247.59,528.025 289.301,661.474 331.012,792.732 372.723,915.878 414.434,1026.68 456.146,1122.66 497.857,1202.88 539.568,1267.74 581.279,1318.52 622.991,1357.07 
  664.702,1385.47 706.413,1405.79 748.124,1419.92 789.836,1429.48 831.547,1435.78 873.258,1439.82 914.969,1442.33 956.681,1443.85 998.392,1444.7 1040.1,1445.14 
  1081.81,1445.3 1123.53,1445.27 1165.24,1445.11 1206.95,1444.82 1248.66,1444.31 1290.37,1443.36 1332.08,1441.55 1373.79,1438.12 1415.5,1431.93 1457.22,1421.25 
  1498.93,1403.92 1540.64,1377.15 1582.35,1338.07 1624.06,1283.67 1665.77,1211.65 1707.48,1120.62 1749.19,1010.89 1790.91,884.748 1832.62,746.666 1874.33,603.24 
  1916.04,462.655 1957.75,333.996 1999.46,226.245 2041.17,147.235 2082.88,102.736 2124.6,95.7471 2166.31,126.194 2208.02,191.014 2249.73,284.627 2291.44,399.695 
  
  "/>
<polyline clip-path="url(#clip992)" style="stroke:#8e971d; stroke-linecap:butt; stroke-linejoin:round; stroke-width:12; stroke-opacity:1; fill:none" points="
  247.59,238.313 289.301,343.834 331.012,466.352 372.723,597.682 414.434,730.132 456.146,857.158 497.857,973.773 539.568,1076.71 581.279,1164.33 622.991,1236.43 
  664.702,1293.88 706.413,1338.25 748.124,1371.51 789.836,1395.73 831.547,1412.87 873.258,1424.68 914.969,1432.59 956.681,1437.76 998.392,1441.04 1040.1,1443.06 
  1081.81,1444.25 1123.53,1444.89 1165.24,1445.18 1206.95,1445.23 1248.66,1445.14 1290.37,1444.94 1332.08,1444.62 1373.79,1444.02 1415.5,1442.92 1457.22,1440.66 
  1498.93,1436.36 1540.64,1428.48 1582.35,1415.08 1624.06,1393.55 1665.77,1360.95 1707.48,1314.24 1749.19,1250.63 1790.91,1168.28 1832.62,1066.65 1874.33,947.15 
  1916.04,813.327 1957.75,670.918 1999.46,527.539 2041.17,392.012 2082.88,273.491 2124.6,180.421 2166.31,119.545 2208.02,95.1128 2249.73,108.4 2291.44,157.635 
  
  "/>
<polyline clip-path="url(#clip992)" style="stroke:#00a8cb; stroke-linecap:butt; stroke-linejoin:round; stroke-width:12; stroke-opacity:1; fill:none" points="
  247.59,98.4849 289.301,131.334 331.012,197.816 372.723,292.219 414.434,407.216 456.146,534.747 497.857,666.887 539.568,796.572 581.279,918.117 622.991,1027.48 
  664.702,1122.3 706.413,1201.71 748.124,1266.08 789.836,1316.66 831.547,1355.22 873.258,1383.79 914.969,1404.36 956.681,1418.77 998.392,1428.6 1040.1,1435.14 
  1081.81,1439.37 1123.53,1442.03 1165.24,1443.64 1206.95,1444.54 1248.66,1445.01 1290.37,1445.15 1332.08,1445.14 1373.79,1444.97 1415.5,1444.77 1457.22,1444.41 
  1498.93,1443.78 1540.64,1442.42 1582.35,1439.59 1624.06,1434.07 1665.77,1424.04 1707.48,1407.15 1749.19,1380.52 1790.91,1341.03 1832.62,1285.67 1874.33,1212.04 
  1916.04,1118.97 1957.75,1006.95 1999.46,878.609 2041.17,738.788 2082.88,594.379 2124.6,453.806 2166.31,326.209 2208.02,220.455 2249.73,144.121 2291.44,102.599 
  
  "/>
<path clip-path="url(#clip990)" d="
M1956 717.298 L2280.54 717.298 L2280.54 95.2176 L1956 95.2176  Z
  " fill="#ffffff" fill-rule="evenodd" fill-opacity="1"/>
<polyline clip-path="url(#clip990)" style="stroke:#000000; stroke-linecap:butt; stroke-linejoin:round; stroke-width:4; stroke-opacity:1; fill:none" points="
  1956,717.298 2280.54,717.298 2280.54,95.2176 1956,95.2176 1956,717.298 
  "/>
<polyline clip-path="url(#clip990)" style="stroke:#009af9; stroke-linecap:butt; stroke-linejoin:round; stroke-width:4; stroke-opacity:1; fill:none" points="
  1980.07,147.058 2124.5,147.058 
  "/>
<path clip-path="url(#clip990)" d="M2162.42 166.745 Q2160.61 171.375 2158.9 172.787 Q2157.19 174.199 2154.32 174.199 L2150.91 174.199 L2150.91 170.634 L2153.41 170.634 Q2155.17 170.634 2156.15 169.8 Q2157.12 168.967 2158.3 165.865 L2159.06 163.921 L2148.58 138.412 L2153.09 138.412 L2161.19 158.689 L2169.29 138.412 L2173.81 138.412 L2162.42 166.745 Z" fill="#000000" fill-rule="evenodd" fill-opacity="1" /><path clip-path="url(#clip990)" d="M2181.1 160.402 L2188.74 160.402 L2188.74 134.037 L2180.43 135.703 L2180.43 131.444 L2188.69 129.778 L2193.37 129.778 L2193.37 160.402 L2201.01 160.402 L2201.01 164.338 L2181.1 164.338 L2181.1 160.402 Z" fill="#000000" fill-rule="evenodd" fill-opacity="1" /><polyline clip-path="url(#clip990)" style="stroke:#e26f46; stroke-linecap:butt; stroke-linejoin:round; stroke-width:4; stroke-opacity:1; fill:none" points="
  1980.07,198.898 2124.5,198.898 
  "/>
<path clip-path="url(#clip990)" d="M2162.42 218.585 Q2160.61 223.215 2158.9 224.627 Q2157.19 226.039 2154.32 226.039 L2150.91 226.039 L2150.91 222.474 L2153.41 222.474 Q2155.17 222.474 2156.15 221.64 Q2157.12 220.807 2158.3 217.705 L2159.06 215.761 L2148.58 190.252 L2153.09 190.252 L2161.19 210.529 L2169.29 190.252 L2173.81 190.252 L2162.42 218.585 Z" fill="#000000" fill-rule="evenodd" fill-opacity="1" /><path clip-path="url(#clip990)" d="M2184.32 212.242 L2200.64 212.242 L2200.64 216.178 L2178.69 216.178 L2178.69 212.242 Q2181.35 209.488 2185.94 204.858 Q2190.54 200.205 2191.72 198.863 Q2193.97 196.34 2194.85 194.604 Q2195.75 192.844 2195.75 191.155 Q2195.75 188.4 2193.81 186.664 Q2191.89 184.928 2188.78 184.928 Q2186.59 184.928 2184.13 185.692 Q2181.7 186.455 2178.92 188.006 L2178.92 183.284 Q2181.75 182.15 2184.2 181.571 Q2186.66 180.993 2188.69 180.993 Q2194.06 180.993 2197.26 183.678 Q2200.45 186.363 2200.45 190.854 Q2200.45 192.983 2199.64 194.905 Q2198.85 196.803 2196.75 199.395 Q2196.17 200.067 2193.07 203.284 Q2189.97 206.479 2184.32 212.242 Z" fill="#000000" fill-rule="evenodd" fill-opacity="1" /><polyline clip-path="url(#clip990)" style="stroke:#3da44d; stroke-linecap:butt; stroke-linejoin:round; stroke-width:4; stroke-opacity:1; fill:none" points="
  1980.07,250.738 2124.5,250.738 
  "/>
<path clip-path="url(#clip990)" d="M2162.42 270.425 Q2160.61 275.055 2158.9 276.467 Q2157.19 277.879 2154.32 277.879 L2150.91 277.879 L2150.91 274.314 L2153.41 274.314 Q2155.17 274.314 2156.15 273.48 Q2157.12 272.647 2158.3 269.545 L2159.06 267.601 L2148.58 242.092 L2153.09 242.092 L2161.19 262.369 L2169.29 242.092 L2173.81 242.092 L2162.42 270.425 Z" fill="#000000" fill-rule="evenodd" fill-opacity="1" /><path clip-path="url(#clip990)" d="M2194.46 249.383 Q2197.81 250.101 2199.69 252.369 Q2201.59 254.638 2201.59 257.971 Q2201.59 263.087 2198.07 265.888 Q2194.55 268.689 2188.07 268.689 Q2185.89 268.689 2183.58 268.249 Q2181.28 267.832 2178.83 266.976 L2178.83 262.462 Q2180.78 263.596 2183.09 264.175 Q2185.41 264.754 2187.93 264.754 Q2192.33 264.754 2194.62 263.018 Q2196.93 261.281 2196.93 257.971 Q2196.93 254.916 2194.78 253.203 Q2192.65 251.467 2188.83 251.467 L2184.8 251.467 L2184.8 247.624 L2189.02 247.624 Q2192.47 247.624 2194.29 246.258 Q2196.12 244.87 2196.12 242.277 Q2196.12 239.615 2194.22 238.203 Q2192.35 236.768 2188.83 236.768 Q2186.91 236.768 2184.71 237.184 Q2182.51 237.601 2179.87 238.481 L2179.87 234.314 Q2182.53 233.573 2184.85 233.203 Q2187.19 232.833 2189.25 232.833 Q2194.57 232.833 2197.67 235.263 Q2200.78 237.67 2200.78 241.791 Q2200.78 244.661 2199.13 246.652 Q2197.49 248.62 2194.46 249.383 Z" fill="#000000" fill-rule="evenodd" fill-opacity="1" /><polyline clip-path="url(#clip990)" style="stroke:#c271d2; stroke-linecap:butt; stroke-linejoin:round; stroke-width:4; stroke-opacity:1; fill:none" points="
  1980.07,302.578 2124.5,302.578 
  "/>
<path clip-path="url(#clip990)" d="M2162.42 322.265 Q2160.61 326.895 2158.9 328.307 Q2157.19 329.719 2154.32 329.719 L2150.91 329.719 L2150.91 326.154 L2153.41 326.154 Q2155.17 326.154 2156.15 325.32 Q2157.12 324.487 2158.3 321.385 L2159.06 319.441 L2148.58 293.932 L2153.09 293.932 L2161.19 314.209 L2169.29 293.932 L2173.81 293.932 L2162.42 322.265 Z" fill="#000000" fill-rule="evenodd" fill-opacity="1" /><path clip-path="url(#clip990)" d="M2193.14 289.372 L2181.33 307.821 L2193.14 307.821 L2193.14 289.372 M2191.91 285.298 L2197.79 285.298 L2197.79 307.821 L2202.72 307.821 L2202.72 311.709 L2197.79 311.709 L2197.79 319.858 L2193.14 319.858 L2193.14 311.709 L2177.53 311.709 L2177.53 307.196 L2191.91 285.298 Z" fill="#000000" fill-rule="evenodd" fill-opacity="1" /><polyline clip-path="url(#clip990)" style="stroke:#ac8d18; stroke-linecap:butt; stroke-linejoin:round; stroke-width:4; stroke-opacity:1; fill:none" points="
  1980.07,354.418 2124.5,354.418 
  "/>
<path clip-path="url(#clip990)" d="M2162.42 374.105 Q2160.61 378.735 2158.9 380.147 Q2157.19 381.559 2154.32 381.559 L2150.91 381.559 L2150.91 377.994 L2153.41 377.994 Q2155.17 377.994 2156.15 377.16 Q2157.12 376.327 2158.3 373.225 L2159.06 371.281 L2148.58 345.772 L2153.09 345.772 L2161.19 366.049 L2169.29 345.772 L2173.81 345.772 L2162.42 374.105 Z" fill="#000000" fill-rule="evenodd" fill-opacity="1" /><path clip-path="url(#clip990)" d="M2180.34 337.138 L2198.69 337.138 L2198.69 341.073 L2184.62 341.073 L2184.62 349.545 Q2185.64 349.198 2186.66 349.036 Q2187.67 348.85 2188.69 348.85 Q2194.48 348.85 2197.86 352.022 Q2201.24 355.193 2201.24 360.61 Q2201.24 366.188 2197.77 369.29 Q2194.29 372.369 2187.97 372.369 Q2185.8 372.369 2183.53 371.998 Q2181.28 371.628 2178.88 370.887 L2178.88 366.188 Q2180.96 367.323 2183.18 367.878 Q2185.41 368.434 2187.88 368.434 Q2191.89 368.434 2194.22 366.327 Q2196.56 364.221 2196.56 360.61 Q2196.56 356.999 2194.22 354.892 Q2191.89 352.786 2187.88 352.786 Q2186.01 352.786 2184.13 353.202 Q2182.28 353.619 2180.34 354.499 L2180.34 337.138 Z" fill="#000000" fill-rule="evenodd" fill-opacity="1" /><polyline clip-path="url(#clip990)" style="stroke:#00a9ad; stroke-linecap:butt; stroke-linejoin:round; stroke-width:4; stroke-opacity:1; fill:none" points="
  1980.07,406.258 2124.5,406.258 
  "/>
<path clip-path="url(#clip990)" d="M2162.42 425.945 Q2160.61 430.575 2158.9 431.987 Q2157.19 433.399 2154.32 433.399 L2150.91 433.399 L2150.91 429.834 L2153.41 429.834 Q2155.17 429.834 2156.15 429 Q2157.12 428.167 2158.3 425.065 L2159.06 423.121 L2148.58 397.612 L2153.09 397.612 L2161.19 417.889 L2169.29 397.612 L2173.81 397.612 L2162.42 425.945 Z" fill="#000000" fill-rule="evenodd" fill-opacity="1" /><path clip-path="url(#clip990)" d="M2190.87 404.394 Q2187.72 404.394 2185.87 406.547 Q2184.04 408.7 2184.04 412.45 Q2184.04 416.176 2185.87 418.352 Q2187.72 420.505 2190.87 420.505 Q2194.02 420.505 2195.85 418.352 Q2197.7 416.176 2197.7 412.45 Q2197.7 408.7 2195.85 406.547 Q2194.02 404.394 2190.87 404.394 M2200.15 389.741 L2200.15 394.001 Q2198.39 393.167 2196.59 392.728 Q2194.8 392.288 2193.04 392.288 Q2188.41 392.288 2185.96 395.413 Q2183.53 398.538 2183.18 404.857 Q2184.55 402.843 2186.61 401.778 Q2188.67 400.69 2191.15 400.69 Q2196.35 400.69 2199.36 403.862 Q2202.4 407.01 2202.4 412.45 Q2202.4 417.774 2199.25 420.991 Q2196.1 424.209 2190.87 424.209 Q2184.87 424.209 2181.7 419.626 Q2178.53 415.019 2178.53 406.292 Q2178.53 398.098 2182.42 393.237 Q2186.31 388.353 2192.86 388.353 Q2194.62 388.353 2196.4 388.7 Q2198.21 389.047 2200.15 389.741 Z" fill="#000000" fill-rule="evenodd" fill-opacity="1" /><polyline clip-path="url(#clip990)" style="stroke:#ed5d92; stroke-linecap:butt; stroke-linejoin:round; stroke-width:4; stroke-opacity:1; fill:none" points="
  1980.07,458.098 2124.5,458.098 
  "/>
<path clip-path="url(#clip990)" d="M2162.42 477.785 Q2160.61 482.415 2158.9 483.827 Q2157.19 485.239 2154.32 485.239 L2150.91 485.239 L2150.91 481.674 L2153.41 481.674 Q2155.17 481.674 2156.15 480.84 Q2157.12 480.007 2158.3 476.905 L2159.06 474.961 L2148.58 449.452 L2153.09 449.452 L2161.19 469.729 L2169.29 449.452 L2173.81 449.452 L2162.42 477.785 Z" fill="#000000" fill-rule="evenodd" fill-opacity="1" /><path clip-path="url(#clip990)" d="M2179.11 440.818 L2201.33 440.818 L2201.33 442.808 L2188.78 475.378 L2183.9 475.378 L2195.71 444.753 L2179.11 444.753 L2179.11 440.818 Z" fill="#000000" fill-rule="evenodd" fill-opacity="1" /><polyline clip-path="url(#clip990)" style="stroke:#c68125; stroke-linecap:butt; stroke-linejoin:round; stroke-width:4; stroke-opacity:1; fill:none" points="
  1980.07,509.938 2124.5,509.938 
  "/>
<path clip-path="url(#clip990)" d="M2162.42 529.625 Q2160.61 534.255 2158.9 535.667 Q2157.19 537.079 2154.32 537.079 L2150.91 537.079 L2150.91 533.514 L2153.41 533.514 Q2155.17 533.514 2156.15 532.68 Q2157.12 531.847 2158.3 528.745 L2159.06 526.801 L2148.58 501.292 L2153.09 501.292 L2161.19 521.569 L2169.29 501.292 L2173.81 501.292 L2162.42 529.625 Z" fill="#000000" fill-rule="evenodd" fill-opacity="1" /><path clip-path="url(#clip990)" d="M2190.29 510.806 Q2186.96 510.806 2185.03 512.588 Q2183.14 514.37 2183.14 517.495 Q2183.14 520.62 2185.03 522.403 Q2186.96 524.185 2190.29 524.185 Q2193.62 524.185 2195.54 522.403 Q2197.47 520.597 2197.47 517.495 Q2197.47 514.37 2195.54 512.588 Q2193.65 510.806 2190.29 510.806 M2185.61 508.815 Q2182.6 508.074 2180.91 506.014 Q2179.25 503.954 2179.25 500.991 Q2179.25 496.847 2182.19 494.44 Q2185.15 492.033 2190.29 492.033 Q2195.45 492.033 2198.39 494.44 Q2201.33 496.847 2201.33 500.991 Q2201.33 503.954 2199.64 506.014 Q2197.97 508.074 2194.99 508.815 Q2198.37 509.602 2200.24 511.894 Q2202.14 514.185 2202.14 517.495 Q2202.14 522.519 2199.06 525.204 Q2196.01 527.889 2190.29 527.889 Q2184.57 527.889 2181.49 525.204 Q2178.44 522.519 2178.44 517.495 Q2178.44 514.185 2180.34 511.894 Q2182.23 509.602 2185.61 508.815 M2183.9 501.431 Q2183.9 504.116 2185.57 505.62 Q2187.26 507.125 2190.29 507.125 Q2193.3 507.125 2194.99 505.62 Q2196.7 504.116 2196.7 501.431 Q2196.7 498.745 2194.99 497.241 Q2193.3 495.736 2190.29 495.736 Q2187.26 495.736 2185.57 497.241 Q2183.9 498.745 2183.9 501.431 Z" fill="#000000" fill-rule="evenodd" fill-opacity="1" /><polyline clip-path="url(#clip990)" style="stroke:#00a98d; stroke-linecap:butt; stroke-linejoin:round; stroke-width:4; stroke-opacity:1; fill:none" points="
  1980.07,561.778 2124.5,561.778 
  "/>
<path clip-path="url(#clip990)" d="M2162.42 581.465 Q2160.61 586.095 2158.9 587.507 Q2157.19 588.919 2154.32 588.919 L2150.91 588.919 L2150.91 585.354 L2153.41 585.354 Q2155.17 585.354 2156.15 584.52 Q2157.12 583.687 2158.3 580.585 L2159.06 578.641 L2148.58 553.132 L2153.09 553.132 L2161.19 573.409 L2169.29 553.132 L2173.81 553.132 L2162.42 581.465 Z" fill="#000000" fill-rule="evenodd" fill-opacity="1" /><path clip-path="url(#clip990)" d="M2180.43 578.34 L2180.43 574.081 Q2182.19 574.914 2183.99 575.354 Q2185.8 575.794 2187.53 575.794 Q2192.16 575.794 2194.6 572.692 Q2197.05 569.567 2197.4 563.224 Q2196.05 565.215 2193.99 566.28 Q2191.93 567.345 2189.43 567.345 Q2184.25 567.345 2181.22 564.22 Q2178.21 561.072 2178.21 555.632 Q2178.21 550.308 2181.35 547.09 Q2184.5 543.873 2189.73 543.873 Q2195.73 543.873 2198.88 548.479 Q2202.05 553.062 2202.05 561.812 Q2202.05 569.984 2198.16 574.868 Q2194.29 579.729 2187.74 579.729 Q2185.98 579.729 2184.18 579.382 Q2182.37 579.034 2180.43 578.34 M2189.73 563.687 Q2192.88 563.687 2194.71 561.534 Q2196.56 559.382 2196.56 555.632 Q2196.56 551.905 2194.71 549.752 Q2192.88 547.576 2189.73 547.576 Q2186.59 547.576 2184.73 549.752 Q2182.91 551.905 2182.91 555.632 Q2182.91 559.382 2184.73 561.534 Q2186.59 563.687 2189.73 563.687 Z" fill="#000000" fill-rule="evenodd" fill-opacity="1" /><polyline clip-path="url(#clip990)" style="stroke:#8e971d; stroke-linecap:butt; stroke-linejoin:round; stroke-width:4; stroke-opacity:1; fill:none" points="
  1980.07,613.618 2124.5,613.618 
  "/>
<path clip-path="url(#clip990)" d="M2162.42 633.305 Q2160.61 637.935 2158.9 639.347 Q2157.19 640.759 2154.32 640.759 L2150.91 640.759 L2150.91 637.194 L2153.41 637.194 Q2155.17 637.194 2156.15 636.36 Q2157.12 635.527 2158.3 632.425 L2159.06 630.481 L2148.58 604.972 L2153.09 604.972 L2161.19 625.249 L2169.29 604.972 L2173.81 604.972 L2162.42 633.305 Z" fill="#000000" fill-rule="evenodd" fill-opacity="1" /><path clip-path="url(#clip990)" d="M2181.1 626.962 L2188.74 626.962 L2188.74 600.597 L2180.43 602.263 L2180.43 598.004 L2188.69 596.338 L2193.37 596.338 L2193.37 626.962 L2201.01 626.962 L2201.01 630.898 L2181.1 630.898 L2181.1 626.962 Z" fill="#000000" fill-rule="evenodd" fill-opacity="1" /><path clip-path="url(#clip990)" d="M2220.45 599.416 Q2216.84 599.416 2215.01 602.981 Q2213.21 606.523 2213.21 613.652 Q2213.21 620.759 2215.01 624.324 Q2216.84 627.865 2220.45 627.865 Q2224.09 627.865 2225.89 624.324 Q2227.72 620.759 2227.72 613.652 Q2227.72 606.523 2225.89 602.981 Q2224.09 599.416 2220.45 599.416 M2220.45 595.713 Q2226.26 595.713 2229.32 600.319 Q2232.4 604.902 2232.4 613.652 Q2232.4 622.379 2229.32 626.986 Q2226.26 631.569 2220.45 631.569 Q2214.64 631.569 2211.56 626.986 Q2208.51 622.379 2208.51 613.652 Q2208.51 604.902 2211.56 600.319 Q2214.64 595.713 2220.45 595.713 Z" fill="#000000" fill-rule="evenodd" fill-opacity="1" /><polyline clip-path="url(#clip990)" style="stroke:#00a8cb; stroke-linecap:butt; stroke-linejoin:round; stroke-width:4; stroke-opacity:1; fill:none" points="
  1980.07,665.458 2124.5,665.458 
  "/>
<path clip-path="url(#clip990)" d="M2162.42 685.145 Q2160.61 689.775 2158.9 691.187 Q2157.19 692.599 2154.32 692.599 L2150.91 692.599 L2150.91 689.034 L2153.41 689.034 Q2155.17 689.034 2156.15 688.2 Q2157.12 687.367 2158.3 684.265 L2159.06 682.321 L2148.58 656.812 L2153.09 656.812 L2161.19 677.089 L2169.29 656.812 L2173.81 656.812 L2162.42 685.145 Z" fill="#000000" fill-rule="evenodd" fill-opacity="1" /><path clip-path="url(#clip990)" d="M2181.1 678.802 L2188.74 678.802 L2188.74 652.437 L2180.43 654.103 L2180.43 649.844 L2188.69 648.178 L2193.37 648.178 L2193.37 678.802 L2201.01 678.802 L2201.01 682.738 L2181.1 682.738 L2181.1 678.802 Z" fill="#000000" fill-rule="evenodd" fill-opacity="1" /><path clip-path="url(#clip990)" d="M2211.26 678.802 L2218.9 678.802 L2218.9 652.437 L2210.59 654.103 L2210.59 649.844 L2218.85 648.178 L2223.53 648.178 L2223.53 678.802 L2231.17 678.802 L2231.17 682.738 L2211.26 682.738 L2211.26 678.802 Z" fill="#000000" fill-rule="evenodd" fill-opacity="1" /></svg>
