<?xml version="1.0" encoding="utf-8"?>
<svg xmlns="http://www.w3.org/2000/svg" xmlns:xlink="http://www.w3.org/1999/xlink" width="600" height="400" viewBox="0 0 2400 1600">
<defs>
  <clipPath id="clip480">
    <rect x="0" y="0" width="2400" height="1600"/>
  </clipPath>
</defs>
<path clip-path="url(#clip480)" d="
M0 1600 L2400 1600 L2400 0 L0 0  Z
  " fill="#ffffff" fill-rule="evenodd" fill-opacity="1"/>
<defs>
  <clipPath id="clip481">
    <rect x="480" y="0" width="1681" height="1600"/>
  </clipPath>
</defs>
<defs>
  <clipPath id="clip482">
    <rect x="193" y="47" width="2160" height="1440"/>
  </clipPath>
</defs>
<path clip-path="url(#clip480)" d="
M189.233 1474.16 L2352.76 1474.16 L2352.76 47.2441 L189.233 47.2441  Z
  " fill="#ffffff" fill-rule="evenodd" fill-opacity="1"/>
<defs>
  <clipPath id="clip483">
    <rect x="189" y="47" width="2165" height="1428"/>
  </clipPath>
</defs>
<polyline clip-path="url(#clip483)" style="stroke:#000000; stroke-linecap:butt; stroke-linejoin:round; stroke-width:2; stroke-opacity:0.1; fill:none" points="
  259.194,1474.16 259.194,47.2441 
  "/>
<polyline clip-path="url(#clip483)" style="stroke:#000000; stroke-linecap:butt; stroke-linejoin:round; stroke-width:2; stroke-opacity:0.1; fill:none" points="
  1106.73,1474.16 1106.73,47.2441 
  "/>
<polyline clip-path="url(#clip483)" style="stroke:#000000; stroke-linecap:butt; stroke-linejoin:round; stroke-width:2; stroke-opacity:0.1; fill:none" points="
  1954.26,1474.16 1954.26,47.2441 
  "/>
<polyline clip-path="url(#clip480)" style="stroke:#000000; stroke-linecap:butt; stroke-linejoin:round; stroke-width:4; stroke-opacity:1; fill:none" points="
  189.233,1474.16 2352.76,1474.16 
  "/>
<polyline clip-path="url(#clip480)" style="stroke:#000000; stroke-linecap:butt; stroke-linejoin:round; stroke-width:4; stroke-opacity:1; fill:none" points="
  259.194,1474.16 259.194,1455.27 
  "/>
<polyline clip-path="url(#clip480)" style="stroke:#000000; stroke-linecap:butt; stroke-linejoin:round; stroke-width:4; stroke-opacity:1; fill:none" points="
  1106.73,1474.16 1106.73,1455.27 
  "/>
<polyline clip-path="url(#clip480)" style="stroke:#000000; stroke-linecap:butt; stroke-linejoin:round; stroke-width:4; stroke-opacity:1; fill:none" points="
  1954.26,1474.16 1954.26,1455.27 
  "/>
<path clip-path="url(#clip480)" d="M209.074 1548.29 L216.713 1548.29 L216.713 1521.92 L208.403 1523.59 L208.403 1519.33 L216.667 1517.66 L221.343 1517.66 L221.343 1548.29 L228.981 1548.29 L228.981 1552.22 L209.074 1552.22 L209.074 1548.29 Z" fill="#000000" fill-rule="evenodd" fill-opacity="1" /><path clip-path="url(#clip480)" d="M248.426 1520.74 Q244.815 1520.74 242.986 1524.31 Q241.18 1527.85 241.18 1534.98 Q241.18 1542.09 242.986 1545.65 Q244.815 1549.19 248.426 1549.19 Q252.06 1549.19 253.866 1545.65 Q255.694 1542.09 255.694 1534.98 Q255.694 1527.85 253.866 1524.31 Q252.06 1520.74 248.426 1520.74 M248.426 1517.04 Q254.236 1517.04 257.291 1521.65 Q260.37 1526.23 260.37 1534.98 Q260.37 1543.71 257.291 1548.31 Q254.236 1552.9 248.426 1552.9 Q242.616 1552.9 239.537 1548.31 Q236.481 1543.71 236.481 1534.98 Q236.481 1526.23 239.537 1521.65 Q242.616 1517.04 248.426 1517.04 Z" fill="#000000" fill-rule="evenodd" fill-opacity="1" /><path clip-path="url(#clip480)" d="M260.37 1511.14 L284.482 1511.14 L284.482 1514.34 L260.37 1514.34 L260.37 1511.14 Z" fill="#000000" fill-rule="evenodd" fill-opacity="1" /><path clip-path="url(#clip480)" d="M304.192 1509.67 Q306.919 1510.26 308.443 1512.1 Q309.985 1513.94 309.985 1516.65 Q309.985 1520.81 307.126 1523.08 Q304.267 1525.36 299.001 1525.36 Q297.233 1525.36 295.353 1525 Q293.491 1524.66 291.497 1523.97 L291.497 1520.3 Q293.077 1521.22 294.958 1521.69 Q296.838 1522.16 298.888 1522.16 Q302.462 1522.16 304.324 1520.75 Q306.205 1519.34 306.205 1516.65 Q306.205 1514.17 304.456 1512.78 Q302.725 1511.37 299.622 1511.37 L296.349 1511.37 L296.349 1508.24 L299.772 1508.24 Q302.575 1508.24 304.061 1507.13 Q305.546 1506.01 305.546 1503.9 Q305.546 1501.74 304.004 1500.59 Q302.481 1499.42 299.622 1499.42 Q298.061 1499.42 296.274 1499.76 Q294.487 1500.1 292.343 1500.82 L292.343 1497.43 Q294.506 1496.83 296.387 1496.53 Q298.287 1496.23 299.961 1496.23 Q304.286 1496.23 306.807 1498.2 Q309.327 1500.16 309.327 1503.51 Q309.327 1505.84 307.991 1507.45 Q306.656 1509.05 304.192 1509.67 Z" fill="#000000" fill-rule="evenodd" fill-opacity="1" /><path clip-path="url(#clip480)" d="M1056.99 1548.29 L1064.63 1548.29 L1064.63 1521.92 L1056.32 1523.59 L1056.32 1519.33 L1064.58 1517.66 L1069.26 1517.66 L1069.26 1548.29 L1076.9 1548.29 L1076.9 1552.22 L1056.99 1552.22 L1056.99 1548.29 Z" fill="#000000" fill-rule="evenodd" fill-opacity="1" /><path clip-path="url(#clip480)" d="M1096.34 1520.74 Q1092.73 1520.74 1090.9 1524.31 Q1089.1 1527.85 1089.1 1534.98 Q1089.1 1542.09 1090.9 1545.65 Q1092.73 1549.19 1096.34 1549.19 Q1099.98 1549.19 1101.78 1545.65 Q1103.61 1542.09 1103.61 1534.98 Q1103.61 1527.85 1101.78 1524.31 Q1099.98 1520.74 1096.34 1520.74 M1096.34 1517.04 Q1102.15 1517.04 1105.21 1521.65 Q1108.29 1526.23 1108.29 1534.98 Q1108.29 1543.71 1105.21 1548.31 Q1102.15 1552.9 1096.34 1552.9 Q1090.53 1552.9 1087.45 1548.31 Q1084.4 1543.71 1084.4 1534.98 Q1084.4 1526.23 1087.45 1521.65 Q1090.53 1517.04 1096.34 1517.04 Z" fill="#000000" fill-rule="evenodd" fill-opacity="1" /><path clip-path="url(#clip480)" d="M1108.29 1511.14 L1132.4 1511.14 L1132.4 1514.34 L1108.29 1514.34 L1108.29 1511.14 Z" fill="#000000" fill-rule="evenodd" fill-opacity="1" /><path clip-path="url(#clip480)" d="M1143.87 1521.62 L1157.13 1521.62 L1157.13 1524.81 L1139.3 1524.81 L1139.3 1521.62 Q1141.46 1519.38 1145.19 1515.62 Q1148.93 1511.84 1149.89 1510.75 Q1151.71 1508.7 1152.43 1507.29 Q1153.16 1505.86 1153.16 1504.48 Q1153.16 1502.24 1151.58 1500.83 Q1150.02 1499.42 1147.5 1499.42 Q1145.71 1499.42 1143.72 1500.04 Q1141.75 1500.67 1139.49 1501.93 L1139.49 1498.09 Q1141.78 1497.17 1143.78 1496.7 Q1145.77 1496.23 1147.43 1496.23 Q1151.79 1496.23 1154.39 1498.41 Q1156.98 1500.59 1156.98 1504.24 Q1156.98 1505.97 1156.32 1507.53 Q1155.68 1509.07 1153.97 1511.18 Q1153.5 1511.72 1150.98 1514.34 Q1148.46 1516.93 1143.87 1521.62 Z" fill="#000000" fill-rule="evenodd" fill-opacity="1" /><path clip-path="url(#clip480)" d="M1904.37 1548.29 L1912.01 1548.29 L1912.01 1521.92 L1903.7 1523.59 L1903.7 1519.33 L1911.97 1517.66 L1916.64 1517.66 L1916.64 1548.29 L1924.28 1548.29 L1924.28 1552.22 L1904.37 1552.22 L1904.37 1548.29 Z" fill="#000000" fill-rule="evenodd" fill-opacity="1" /><path clip-path="url(#clip480)" d="M1943.72 1520.74 Q1940.11 1520.74 1938.28 1524.31 Q1936.48 1527.85 1936.48 1534.98 Q1936.48 1542.09 1938.28 1545.65 Q1940.11 1549.19 1943.72 1549.19 Q1947.36 1549.19 1949.16 1545.65 Q1950.99 1542.09 1950.99 1534.98 Q1950.99 1527.85 1949.16 1524.31 Q1947.36 1520.74 1943.72 1520.74 M1943.72 1517.04 Q1949.53 1517.04 1952.59 1521.65 Q1955.67 1526.23 1955.67 1534.98 Q1955.67 1543.71 1952.59 1548.31 Q1949.53 1552.9 1943.72 1552.9 Q1937.91 1552.9 1934.84 1548.31 Q1931.78 1543.71 1931.78 1534.98 Q1931.78 1526.23 1934.84 1521.65 Q1937.91 1517.04 1943.72 1517.04 Z" fill="#000000" fill-rule="evenodd" fill-opacity="1" /><path clip-path="url(#clip480)" d="M1955.67 1511.14 L1979.78 1511.14 L1979.78 1514.34 L1955.67 1514.34 L1955.67 1511.14 Z" fill="#000000" fill-rule="evenodd" fill-opacity="1" /><path clip-path="url(#clip480)" d="M1988.64 1521.62 L1994.85 1521.62 L1994.85 1500.19 L1988.09 1501.55 L1988.09 1498.09 L1994.81 1496.73 L1998.61 1496.73 L1998.61 1521.62 L2004.81 1521.62 L2004.81 1524.81 L1988.64 1524.81 L1988.64 1521.62 Z" fill="#000000" fill-rule="evenodd" fill-opacity="1" /><polyline clip-path="url(#clip483)" style="stroke:#000000; stroke-linecap:butt; stroke-linejoin:round; stroke-width:2; stroke-opacity:0.1; fill:none" points="
  189.233,1428.91 2352.76,1428.91 
  "/>
<polyline clip-path="url(#clip483)" style="stroke:#000000; stroke-linecap:butt; stroke-linejoin:round; stroke-width:2; stroke-opacity:0.1; fill:none" points="
  189.233,719.178 2352.76,719.178 
  "/>
<polyline clip-path="url(#clip480)" style="stroke:#000000; stroke-linecap:butt; stroke-linejoin:round; stroke-width:4; stroke-opacity:1; fill:none" points="
  189.233,1474.16 189.233,47.2441 
  "/>
<polyline clip-path="url(#clip480)" style="stroke:#000000; stroke-linecap:butt; stroke-linejoin:round; stroke-width:4; stroke-opacity:1; fill:none" points="
  189.233,1428.91 208.13,1428.91 
  "/>
<polyline clip-path="url(#clip480)" style="stroke:#000000; stroke-linecap:butt; stroke-linejoin:round; stroke-width:4; stroke-opacity:1; fill:none" points="
  189.233,719.178 208.13,719.178 
  "/>
<path clip-path="url(#clip480)" d="M51.6634 1448.7 L59.3023 1448.7 L59.3023 1422.33 L50.9921 1424 L50.9921 1419.74 L59.256 1418.07 L63.9319 1418.07 L63.9319 1448.7 L71.5707 1448.7 L71.5707 1452.63 L51.6634 1452.63 L51.6634 1448.7 Z" fill="#000000" fill-rule="evenodd" fill-opacity="1" /><path clip-path="url(#clip480)" d="M91.0151 1421.15 Q87.404 1421.15 85.5753 1424.72 Q83.7697 1428.26 83.7697 1435.39 Q83.7697 1442.5 85.5753 1446.06 Q87.404 1449.6 91.0151 1449.6 Q94.6493 1449.6 96.4548 1446.06 Q98.2835 1442.5 98.2835 1435.39 Q98.2835 1428.26 96.4548 1424.72 Q94.6493 1421.15 91.0151 1421.15 M91.0151 1417.45 Q96.8252 1417.45 99.8808 1422.06 Q102.959 1426.64 102.959 1435.39 Q102.959 1444.12 99.8808 1448.72 Q96.8252 1453.31 91.0151 1453.31 Q85.2049 1453.31 82.1262 1448.72 Q79.0707 1444.12 79.0707 1435.39 Q79.0707 1426.64 82.1262 1422.06 Q85.2049 1417.45 91.0151 1417.45 Z" fill="#000000" fill-rule="evenodd" fill-opacity="1" /><path clip-path="url(#clip480)" d="M102.959 1411.55 L127.071 1411.55 L127.071 1414.75 L102.959 1414.75 L102.959 1411.55 Z" fill="#000000" fill-rule="evenodd" fill-opacity="1" /><path clip-path="url(#clip480)" d="M143.866 1409.67 Q141.308 1409.67 139.804 1411.42 Q138.318 1413.17 138.318 1416.21 Q138.318 1419.24 139.804 1421.01 Q141.308 1422.76 143.866 1422.76 Q146.424 1422.76 147.91 1421.01 Q149.415 1419.24 149.415 1416.21 Q149.415 1413.17 147.91 1411.42 Q146.424 1409.67 143.866 1409.67 M151.408 1397.76 L151.408 1401.23 Q149.979 1400.55 148.512 1400.19 Q147.064 1399.83 145.634 1399.83 Q141.873 1399.83 139.879 1402.37 Q137.904 1404.91 137.622 1410.05 Q138.732 1408.41 140.406 1407.54 Q142.08 1406.66 144.092 1406.66 Q148.324 1406.66 150.769 1409.24 Q153.233 1411.8 153.233 1416.21 Q153.233 1420.54 150.675 1423.16 Q148.117 1425.77 143.866 1425.77 Q138.995 1425.77 136.418 1422.05 Q133.842 1418.3 133.842 1411.21 Q133.842 1404.55 137.002 1400.6 Q140.161 1396.64 145.484 1396.64 Q146.913 1396.64 148.361 1396.92 Q149.828 1397.2 151.408 1397.76 Z" fill="#000000" fill-rule="evenodd" fill-opacity="1" /><path clip-path="url(#clip480)" d="M52.3217 738.97 L59.9605 738.97 L59.9605 712.605 L51.6504 714.271 L51.6504 710.012 L59.9142 708.345 L64.5901 708.345 L64.5901 738.97 L72.229 738.97 L72.229 742.905 L52.3217 742.905 L52.3217 738.97 Z" fill="#000000" fill-rule="evenodd" fill-opacity="1" /><path clip-path="url(#clip480)" d="M91.6733 711.424 Q88.0622 711.424 86.2335 714.989 Q84.428 718.53 84.428 725.66 Q84.428 732.766 86.2335 736.331 Q88.0622 739.873 91.6733 739.873 Q95.3076 739.873 97.1131 736.331 Q98.9418 732.766 98.9418 725.66 Q98.9418 718.53 97.1131 714.989 Q95.3076 711.424 91.6733 711.424 M91.6733 707.72 Q97.4835 707.72 100.539 712.327 Q103.618 716.91 103.618 725.66 Q103.618 734.387 100.539 738.993 Q97.4835 743.577 91.6733 743.577 Q85.8632 743.577 82.7845 738.993 Q79.729 734.387 79.729 725.66 Q79.729 716.91 82.7845 712.327 Q85.8632 707.72 91.6733 707.72 Z" fill="#000000" fill-rule="evenodd" fill-opacity="1" /><path clip-path="url(#clip480)" d="M103.618 701.822 L127.729 701.822 L127.729 705.019 L103.618 705.019 L103.618 701.822 Z" fill="#000000" fill-rule="evenodd" fill-opacity="1" /><path clip-path="url(#clip480)" d="M147.44 700.355 Q150.167 700.938 151.69 702.781 Q153.233 704.624 153.233 707.332 Q153.233 711.489 150.374 713.765 Q147.515 716.04 142.249 716.04 Q140.481 716.04 138.6 715.683 Q136.738 715.344 134.745 714.649 L134.745 710.981 Q136.324 711.903 138.205 712.373 Q140.086 712.843 142.136 712.843 Q145.71 712.843 147.571 711.432 Q149.452 710.022 149.452 707.332 Q149.452 704.85 147.703 703.458 Q145.973 702.047 142.87 702.047 L139.597 702.047 L139.597 698.925 L143.02 698.925 Q145.822 698.925 147.308 697.816 Q148.794 696.687 148.794 694.581 Q148.794 692.418 147.252 691.27 Q145.728 690.104 142.87 690.104 Q141.308 690.104 139.522 690.443 Q137.735 690.781 135.591 691.496 L135.591 688.111 Q137.754 687.509 139.635 687.208 Q141.534 686.907 143.208 686.907 Q147.534 686.907 150.054 688.882 Q152.574 690.838 152.574 694.186 Q152.574 696.518 151.239 698.135 Q149.904 699.734 147.44 700.355 Z" fill="#000000" fill-rule="evenodd" fill-opacity="1" /><polyline clip-path="url(#clip483)" style="stroke:#009af9; stroke-linecap:butt; stroke-linejoin:round; stroke-width:12; stroke-opacity:1; fill:none" points="
  2291.52,87.6286 2036.39,251.794 1781.26,408.325 1526.13,558.214 1270.99,704.444 1015.86,848.641 760.729,991.995 505.597,1134.89 250.464,1277.55 
  "/>
<circle clip-path="url(#clip483)" cx="2291.52" cy="87.6286" r="14.4" fill="#009af9" fill-rule="evenodd" fill-opacity="1" stroke="#000000" stroke-opacity="1" stroke-width="3.2"/>
<circle clip-path="url(#clip483)" cx="2036.39" cy="251.794" r="14.4" fill="#009af9" fill-rule="evenodd" fill-opacity="1" stroke="#000000" stroke-opacity="1" stroke-width="3.2"/>
<circle clip-path="url(#clip483)" cx="1781.26" cy="408.325" r="14.4" fill="#009af9" fill-rule="evenodd" fill-opacity="1" stroke="#000000" stroke-opacity="1" stroke-width="3.2"/>
<circle clip-path="url(#clip483)" cx="1526.13" cy="558.214" r="14.4" fill="#009af9" fill-rule="evenodd" fill-opacity="1" stroke="#000000" stroke-opacity="1" stroke-width="3.2"/>
<circle clip-path="url(#clip483)" cx="1270.99" cy="704.444" r="14.4" fill="#009af9" fill-rule="evenodd" fill-opacity="1" stroke="#000000" stroke-opacity="1" stroke-width="3.2"/>
<circle clip-path="url(#clip483)" cx="1015.86" cy="848.641" r="14.4" fill="#009af9" fill-rule="evenodd" fill-opacity="1" stroke="#000000" stroke-opacity="1" stroke-width="3.2"/>
<circle clip-path="url(#clip483)" cx="760.729" cy="991.995" r="14.4" fill="#009af9" fill-rule="evenodd" fill-opacity="1" stroke="#000000" stroke-opacity="1" stroke-width="3.2"/>
<circle clip-path="url(#clip483)" cx="505.597" cy="1134.89" r="14.4" fill="#009af9" fill-rule="evenodd" fill-opacity="1" stroke="#000000" stroke-opacity="1" stroke-width="3.2"/>
<circle clip-path="url(#clip483)" cx="250.464" cy="1277.55" r="14.4" fill="#009af9" fill-rule="evenodd" fill-opacity="1" stroke="#000000" stroke-opacity="1" stroke-width="3.2"/>
<polyline clip-path="url(#clip483)" style="stroke:#e26f46; stroke-linecap:butt; stroke-linejoin:round; stroke-width:12; stroke-opacity:1; fill:none" points="
  2291.52,151.882 2036.39,223.098 1781.26,294.315 1526.13,365.532 1270.99,436.748 1015.86,507.965 760.729,579.181 505.597,650.398 250.464,721.614 
  "/>
<polyline clip-path="url(#clip483)" style="stroke:#3da44d; stroke-linecap:butt; stroke-linejoin:round; stroke-width:12; stroke-opacity:1; fill:none" points="
  2291.52,294.315 2036.39,436.748 1781.26,579.181 1526.13,721.614 1270.99,864.048 1015.86,1006.48 760.729,1148.91 505.597,1291.35 250.464,1433.78 
  "/>
<path clip-path="url(#clip480)" d="
M261.35 302.168 L554.172 302.168 L554.172 94.8081 L261.35 94.8081  Z
  " fill="#ffffff" fill-rule="evenodd" fill-opacity="1"/>
<polyline clip-path="url(#clip480)" style="stroke:#000000; stroke-linecap:butt; stroke-linejoin:round; stroke-width:4; stroke-opacity:1; fill:none" points="
  261.35,302.168 554.172,302.168 554.172,94.8081 261.35,94.8081 261.35,302.168 
  "/>
<polyline clip-path="url(#clip480)" style="stroke:#009af9; stroke-linecap:butt; stroke-linejoin:round; stroke-width:4; stroke-opacity:1; fill:none" points="
  285.389,146.648 429.624,146.648 
  "/>
<circle clip-path="url(#clip480)" cx="357.507" cy="146.648" r="23.04" fill="#009af9" fill-rule="evenodd" fill-opacity="1" stroke="#000000" stroke-opacity="1" stroke-width="5.12"/>
<path clip-path="url(#clip480)" d="M467.506 166.336 Q465.7 170.965 463.987 172.377 Q462.274 173.789 459.404 173.789 L456.001 173.789 L456.001 170.224 L458.501 170.224 Q460.26 170.224 461.233 169.391 Q462.205 168.558 463.385 165.456 L464.149 163.511 L453.663 138.002 L458.177 138.002 L466.279 158.28 L474.381 138.002 L478.895 138.002 L467.506 166.336 Z" fill="#000000" fill-rule="evenodd" fill-opacity="1" /><path clip-path="url(#clip480)" d="M486.186 159.993 L493.825 159.993 L493.825 133.627 L485.515 135.294 L485.515 131.035 L493.779 129.368 L498.455 129.368 L498.455 159.993 L506.094 159.993 L506.094 163.928 L486.186 163.928 L486.186 159.993 Z" fill="#000000" fill-rule="evenodd" fill-opacity="1" /><polyline clip-path="url(#clip480)" style="stroke:#e26f46; stroke-linecap:butt; stroke-linejoin:round; stroke-width:4; stroke-opacity:1; fill:none" points="
  285.389,198.488 429.624,198.488 
  "/>
<path clip-path="url(#clip480)" d="M477.203 207.836 Q477.203 208.024 476.992 208.75 Q476.781 209.476 476.266 210.6 Q475.774 211.724 475.095 212.755 Q474.416 213.762 473.291 214.512 Q472.19 215.238 470.926 215.238 Q469.239 215.238 468.115 214.113 Q466.991 212.989 466.991 211.303 Q466.991 211.069 467.014 210.834 Q467.037 210.6 467.061 210.46 Q467.084 210.296 467.155 210.038 Q467.248 209.757 467.272 209.64 Q467.319 209.523 467.436 209.171 Q467.576 208.797 467.623 208.656 Q470.598 201.067 470.598 197.905 Q470.598 194.556 467.998 194.556 Q465.679 194.556 463.384 196.242 Q462.33 197.085 461.322 198.584 Q460.315 200.083 460.128 200.646 Q459.917 201.864 459.613 202.8 Q459.472 203.456 458.793 206.009 L457.739 210.342 L456.825 213.973 Q456.638 214.488 456.123 214.863 Q455.607 215.238 455.045 215.238 Q454.577 215.238 454.108 214.91 Q453.663 214.605 453.663 213.879 Q453.663 213.505 453.851 212.825 L460.807 185.187 L460.948 184.25 Q460.948 183.969 460.831 183.828 Q460.737 183.664 460.175 183.547 Q459.636 183.43 458.559 183.43 Q458.113 183.43 457.903 183.407 Q457.715 183.383 457.551 183.266 Q457.387 183.126 457.387 182.845 Q457.387 182.446 457.551 182.236 Q457.739 182.001 457.879 181.954 Q458.02 181.908 458.301 181.884 Q458.699 181.861 460.034 181.744 Q461.369 181.603 462.517 181.509 Q463.665 181.416 464.156 181.416 Q464.438 181.416 464.578 181.556 Q464.742 181.673 464.765 181.814 L464.789 181.931 L461.041 197.179 Q464.016 193.502 468.138 193.502 Q470.808 193.502 472.237 194.884 Q473.666 196.242 473.666 198.631 Q473.666 201.372 470.738 209.171 Q469.872 211.35 469.872 212.591 Q469.872 213.411 470.129 213.786 Q470.41 214.16 471.019 214.16 Q471.956 214.16 472.776 213.622 Q473.619 213.059 474.205 212.146 Q474.79 211.209 475.188 210.272 Q475.61 209.312 475.915 208.234 Q476.102 207.649 476.196 207.508 Q476.313 207.368 476.641 207.368 Q477.203 207.368 477.203 207.836 Z" fill="#000000" fill-rule="evenodd" fill-opacity="1" /><polyline clip-path="url(#clip480)" style="stroke:#3da44d; stroke-linecap:butt; stroke-linejoin:round; stroke-width:4; stroke-opacity:1; fill:none" points="
  285.389,250.328 429.624,250.328 
  "/>
<path clip-path="url(#clip480)" d="M477.203 267.428 Q477.203 267.616 476.992 268.342 Q476.781 269.068 476.266 270.192 Q475.774 271.316 475.095 272.347 Q474.416 273.354 473.291 274.104 Q472.19 274.83 470.926 274.83 Q469.239 274.83 468.115 273.705 Q466.991 272.581 466.991 270.895 Q466.991 270.661 467.014 270.426 Q467.037 270.192 467.061 270.052 Q467.084 269.888 467.155 269.63 Q467.248 269.349 467.272 269.232 Q467.319 269.115 467.436 268.763 Q467.576 268.389 467.623 268.248 Q470.598 260.659 470.598 257.497 Q470.598 254.148 467.998 254.148 Q465.679 254.148 463.384 255.834 Q462.33 256.677 461.322 258.176 Q460.315 259.675 460.128 260.238 Q459.917 261.456 459.613 262.392 Q459.472 263.048 458.793 265.601 L457.739 269.934 L456.825 273.565 Q456.638 274.08 456.123 274.455 Q455.607 274.83 455.045 274.83 Q454.577 274.83 454.108 274.502 Q453.663 274.197 453.663 273.471 Q453.663 273.096 453.851 272.417 L460.807 244.779 L460.948 243.842 Q460.948 243.561 460.831 243.42 Q460.737 243.256 460.175 243.139 Q459.636 243.022 458.559 243.022 Q458.113 243.022 457.903 242.999 Q457.715 242.975 457.551 242.858 Q457.387 242.718 457.387 242.436 Q457.387 242.038 457.551 241.827 Q457.739 241.593 457.879 241.546 Q458.02 241.5 458.301 241.476 Q458.699 241.453 460.034 241.336 Q461.369 241.195 462.517 241.101 Q463.665 241.008 464.156 241.008 Q464.438 241.008 464.578 241.148 Q464.742 241.265 464.765 241.406 L464.789 241.523 L461.041 256.771 Q464.016 253.094 468.138 253.094 Q470.808 253.094 472.237 254.476 Q473.666 255.834 473.666 258.223 Q473.666 260.964 470.738 268.763 Q469.872 270.942 469.872 272.183 Q469.872 273.003 470.129 273.378 Q470.41 273.752 471.019 273.752 Q471.956 273.752 472.776 273.214 Q473.619 272.651 474.205 271.738 Q474.79 270.801 475.188 269.864 Q475.61 268.904 475.915 267.826 Q476.102 267.241 476.196 267.1 Q476.313 266.96 476.641 266.96 Q477.203 266.96 477.203 267.428 Z" fill="#000000" fill-rule="evenodd" fill-opacity="1" /><path clip-path="url(#clip480)" d="M482.08 247.982 Q482.08 247.376 482.129 247.195 Q482.195 247.015 482.457 246.736 L488.901 239.555 Q492.426 235.587 492.426 232.128 Q492.426 229.882 491.245 228.275 Q490.081 226.668 487.933 226.668 Q486.458 226.668 485.212 227.57 Q483.966 228.472 483.392 230.078 Q483.49 230.046 483.834 230.046 Q484.671 230.046 485.13 230.57 Q485.605 231.095 485.605 231.8 Q485.605 232.702 485.015 233.144 Q484.441 233.571 483.867 233.571 Q483.638 233.571 483.326 233.521 Q483.031 233.472 482.556 233.013 Q482.08 232.538 482.08 231.701 Q482.08 229.357 483.851 227.488 Q485.638 225.619 488.36 225.619 Q491.442 225.619 493.459 227.455 Q495.492 229.275 495.492 232.128 Q495.492 233.128 495.18 234.046 Q494.885 234.948 494.475 235.653 Q494.082 236.358 493 237.489 Q491.918 238.62 491.049 239.424 Q490.18 240.227 488.229 241.932 L484.671 245.392 L490.721 245.392 Q493.672 245.392 493.901 245.13 Q494.229 244.654 494.639 242.146 L495.492 242.146 L494.541 247.982 L482.08 247.982 Z" fill="#000000" fill-rule="evenodd" fill-opacity="1" /></svg>
