<?xml version="1.0" encoding="utf-8"?>
<svg xmlns="http://www.w3.org/2000/svg" xmlns:xlink="http://www.w3.org/1999/xlink" width="600" height="400" viewBox="0 0 2400 1600">
<defs>
  <clipPath id="clip220">
    <rect x="0" y="0" width="2400" height="1600"/>
  </clipPath>
</defs>
<path clip-path="url(#clip220)" d="
M0 1600 L2400 1600 L2400 0 L0 0  Z
  " fill="#ffffff" fill-rule="evenodd" fill-opacity="1"/>
<defs>
  <clipPath id="clip221">
    <rect x="480" y="0" width="1681" height="1600"/>
  </clipPath>
</defs>
<path clip-path="url(#clip220)" d="
M193.936 1486.45 L2352.76 1486.45 L2352.76 47.2441 L193.936 47.2441  Z
  " fill="#ffffff" fill-rule="evenodd" fill-opacity="1"/>
<defs>
  <clipPath id="clip222">
    <rect x="193" y="47" width="2160" height="1440"/>
  </clipPath>
</defs>
<polyline clip-path="url(#clip222)" style="stroke:#000000; stroke-linecap:butt; stroke-linejoin:round; stroke-width:2; stroke-opacity:0.1; fill:none" points="
  244.749,1486.45 244.749,47.2441 
  "/>
<polyline clip-path="url(#clip222)" style="stroke:#000000; stroke-linecap:butt; stroke-linejoin:round; stroke-width:2; stroke-opacity:0.1; fill:none" points="
  759.047,1486.45 759.047,47.2441 
  "/>
<polyline clip-path="url(#clip222)" style="stroke:#000000; stroke-linecap:butt; stroke-linejoin:round; stroke-width:2; stroke-opacity:0.1; fill:none" points="
  1273.35,1486.45 1273.35,47.2441 
  "/>
<polyline clip-path="url(#clip222)" style="stroke:#000000; stroke-linecap:butt; stroke-linejoin:round; stroke-width:2; stroke-opacity:0.1; fill:none" points="
  1787.64,1486.45 1787.64,47.2441 
  "/>
<polyline clip-path="url(#clip222)" style="stroke:#000000; stroke-linecap:butt; stroke-linejoin:round; stroke-width:2; stroke-opacity:0.1; fill:none" points="
  2301.94,1486.45 2301.94,47.2441 
  "/>
<polyline clip-path="url(#clip220)" style="stroke:#000000; stroke-linecap:butt; stroke-linejoin:round; stroke-width:4; stroke-opacity:1; fill:none" points="
  193.936,1486.45 2352.76,1486.45 
  "/>
<polyline clip-path="url(#clip220)" style="stroke:#000000; stroke-linecap:butt; stroke-linejoin:round; stroke-width:4; stroke-opacity:1; fill:none" points="
  244.749,1486.45 244.749,1467.55 
  "/>
<polyline clip-path="url(#clip220)" style="stroke:#000000; stroke-linecap:butt; stroke-linejoin:round; stroke-width:4; stroke-opacity:1; fill:none" points="
  759.047,1486.45 759.047,1467.55 
  "/>
<polyline clip-path="url(#clip220)" style="stroke:#000000; stroke-linecap:butt; stroke-linejoin:round; stroke-width:4; stroke-opacity:1; fill:none" points="
  1273.35,1486.45 1273.35,1467.55 
  "/>
<polyline clip-path="url(#clip220)" style="stroke:#000000; stroke-linecap:butt; stroke-linejoin:round; stroke-width:4; stroke-opacity:1; fill:none" points="
  1787.64,1486.45 1787.64,1467.55 
  "/>
<polyline clip-path="url(#clip220)" style="stroke:#000000; stroke-linecap:butt; stroke-linejoin:round; stroke-width:4; stroke-opacity:1; fill:none" points="
  2301.94,1486.45 2301.94,1467.55 
  "/>
<path clip-path="url(#clip220)" d="M191.277 1532.02 L220.953 1532.02 L220.953 1535.95 L191.277 1535.95 L191.277 1532.02 Z" fill="#000000" fill-rule="evenodd" fill-opacity="1" /><path clip-path="url(#clip220)" d="M231.855 1544.91 L239.494 1544.91 L239.494 1518.55 L231.184 1520.21 L231.184 1515.95 L239.448 1514.29 L244.124 1514.29 L244.124 1544.91 L251.763 1544.91 L251.763 1548.85 L231.855 1548.85 L231.855 1544.91 Z" fill="#000000" fill-rule="evenodd" fill-opacity="1" /><path clip-path="url(#clip220)" d="M261.207 1542.97 L266.091 1542.97 L266.091 1548.85 L261.207 1548.85 L261.207 1542.97 Z" fill="#000000" fill-rule="evenodd" fill-opacity="1" /><path clip-path="url(#clip220)" d="M286.276 1517.37 Q282.665 1517.37 280.836 1520.93 Q279.031 1524.47 279.031 1531.6 Q279.031 1538.71 280.836 1542.27 Q282.665 1545.82 286.276 1545.82 Q289.91 1545.82 291.716 1542.27 Q293.545 1538.71 293.545 1531.6 Q293.545 1524.47 291.716 1520.93 Q289.91 1517.37 286.276 1517.37 M286.276 1513.66 Q292.086 1513.66 295.142 1518.27 Q298.221 1522.85 298.221 1531.6 Q298.221 1540.33 295.142 1544.94 Q292.086 1549.52 286.276 1549.52 Q280.466 1549.52 277.387 1544.94 Q274.332 1540.33 274.332 1531.6 Q274.332 1522.85 277.387 1518.27 Q280.466 1513.66 286.276 1513.66 Z" fill="#000000" fill-rule="evenodd" fill-opacity="1" /><path clip-path="url(#clip220)" d="M706.073 1532.02 L735.749 1532.02 L735.749 1535.95 L706.073 1535.95 L706.073 1532.02 Z" fill="#000000" fill-rule="evenodd" fill-opacity="1" /><path clip-path="url(#clip220)" d="M755.841 1517.37 Q752.23 1517.37 750.402 1520.93 Q748.596 1524.47 748.596 1531.6 Q748.596 1538.71 750.402 1542.27 Q752.23 1545.82 755.841 1545.82 Q759.476 1545.82 761.281 1542.27 Q763.11 1538.71 763.11 1531.6 Q763.11 1524.47 761.281 1520.93 Q759.476 1517.37 755.841 1517.37 M755.841 1513.66 Q761.651 1513.66 764.707 1518.27 Q767.786 1522.85 767.786 1531.6 Q767.786 1540.33 764.707 1544.94 Q761.651 1549.52 755.841 1549.52 Q750.031 1549.52 746.952 1544.94 Q743.897 1540.33 743.897 1531.6 Q743.897 1522.85 746.952 1518.27 Q750.031 1513.66 755.841 1513.66 Z" fill="#000000" fill-rule="evenodd" fill-opacity="1" /><path clip-path="url(#clip220)" d="M776.003 1542.97 L780.887 1542.97 L780.887 1548.85 L776.003 1548.85 L776.003 1542.97 Z" fill="#000000" fill-rule="evenodd" fill-opacity="1" /><path clip-path="url(#clip220)" d="M791.119 1514.29 L809.475 1514.29 L809.475 1518.22 L795.401 1518.22 L795.401 1526.7 Q796.42 1526.35 797.438 1526.19 Q798.457 1526 799.475 1526 Q805.262 1526 808.642 1529.17 Q812.022 1532.34 812.022 1537.76 Q812.022 1543.34 808.549 1546.44 Q805.077 1549.52 798.758 1549.52 Q796.582 1549.52 794.313 1549.15 Q792.068 1548.78 789.661 1548.04 L789.661 1543.34 Q791.744 1544.47 793.966 1545.03 Q796.188 1545.58 798.665 1545.58 Q802.67 1545.58 805.008 1543.48 Q807.346 1541.37 807.346 1537.76 Q807.346 1534.15 805.008 1532.04 Q802.67 1529.94 798.665 1529.94 Q796.79 1529.94 794.915 1530.35 Q793.063 1530.77 791.119 1531.65 L791.119 1514.29 Z" fill="#000000" fill-rule="evenodd" fill-opacity="1" /><path clip-path="url(#clip220)" d="M1250.73 1517.37 Q1247.12 1517.37 1245.29 1520.93 Q1243.49 1524.47 1243.49 1531.6 Q1243.49 1538.71 1245.29 1542.27 Q1247.12 1545.82 1250.73 1545.82 Q1254.36 1545.82 1256.17 1542.27 Q1258 1538.71 1258 1531.6 Q1258 1524.47 1256.17 1520.93 Q1254.36 1517.37 1250.73 1517.37 M1250.73 1513.66 Q1256.54 1513.66 1259.6 1518.27 Q1262.67 1522.85 1262.67 1531.6 Q1262.67 1540.33 1259.6 1544.94 Q1256.54 1549.52 1250.73 1549.52 Q1244.92 1549.52 1241.84 1544.94 Q1238.79 1540.33 1238.79 1531.6 Q1238.79 1522.85 1241.84 1518.27 Q1244.92 1513.66 1250.73 1513.66 Z" fill="#000000" fill-rule="evenodd" fill-opacity="1" /><path clip-path="url(#clip220)" d="M1270.89 1542.97 L1275.78 1542.97 L1275.78 1548.85 L1270.89 1548.85 L1270.89 1542.97 Z" fill="#000000" fill-rule="evenodd" fill-opacity="1" /><path clip-path="url(#clip220)" d="M1295.96 1517.37 Q1292.35 1517.37 1290.52 1520.93 Q1288.72 1524.47 1288.72 1531.6 Q1288.72 1538.71 1290.52 1542.27 Q1292.35 1545.82 1295.96 1545.82 Q1299.6 1545.82 1301.4 1542.27 Q1303.23 1538.71 1303.23 1531.6 Q1303.23 1524.47 1301.4 1520.93 Q1299.6 1517.37 1295.96 1517.37 M1295.96 1513.66 Q1301.77 1513.66 1304.83 1518.27 Q1307.91 1522.85 1307.91 1531.6 Q1307.91 1540.33 1304.83 1544.94 Q1301.77 1549.52 1295.96 1549.52 Q1290.15 1549.52 1287.07 1544.94 Q1284.02 1540.33 1284.02 1531.6 Q1284.02 1522.85 1287.07 1518.27 Q1290.15 1513.66 1295.96 1513.66 Z" fill="#000000" fill-rule="evenodd" fill-opacity="1" /><path clip-path="url(#clip220)" d="M1765.53 1517.37 Q1761.92 1517.37 1760.09 1520.93 Q1758.28 1524.47 1758.28 1531.6 Q1758.28 1538.71 1760.09 1542.27 Q1761.92 1545.82 1765.53 1545.82 Q1769.16 1545.82 1770.97 1542.27 Q1772.8 1538.71 1772.8 1531.6 Q1772.8 1524.47 1770.97 1520.93 Q1769.16 1517.37 1765.53 1517.37 M1765.53 1513.66 Q1771.34 1513.66 1774.39 1518.27 Q1777.47 1522.85 1777.47 1531.6 Q1777.47 1540.33 1774.39 1544.94 Q1771.34 1549.52 1765.53 1549.52 Q1759.72 1549.52 1756.64 1544.94 Q1753.58 1540.33 1753.58 1531.6 Q1753.58 1522.85 1756.64 1518.27 Q1759.72 1513.66 1765.53 1513.66 Z" fill="#000000" fill-rule="evenodd" fill-opacity="1" /><path clip-path="url(#clip220)" d="M1785.69 1542.97 L1790.57 1542.97 L1790.57 1548.85 L1785.69 1548.85 L1785.69 1542.97 Z" fill="#000000" fill-rule="evenodd" fill-opacity="1" /><path clip-path="url(#clip220)" d="M1800.8 1514.29 L1819.16 1514.29 L1819.16 1518.22 L1805.09 1518.22 L1805.09 1526.7 Q1806.11 1526.35 1807.12 1526.19 Q1808.14 1526 1809.16 1526 Q1814.95 1526 1818.33 1529.17 Q1821.71 1532.34 1821.71 1537.76 Q1821.71 1543.34 1818.23 1546.44 Q1814.76 1549.52 1808.44 1549.52 Q1806.27 1549.52 1804 1549.15 Q1801.75 1548.78 1799.35 1548.04 L1799.35 1543.34 Q1801.43 1544.47 1803.65 1545.03 Q1805.87 1545.58 1808.35 1545.58 Q1812.36 1545.58 1814.69 1543.48 Q1817.03 1541.37 1817.03 1537.76 Q1817.03 1534.15 1814.69 1532.04 Q1812.36 1529.94 1808.35 1529.94 Q1806.48 1529.94 1804.6 1530.35 Q1802.75 1530.77 1800.8 1531.65 L1800.8 1514.29 Z" fill="#000000" fill-rule="evenodd" fill-opacity="1" /><path clip-path="url(#clip220)" d="M2269.1 1544.91 L2276.74 1544.91 L2276.74 1518.55 L2268.42 1520.21 L2268.42 1515.95 L2276.69 1514.29 L2281.36 1514.29 L2281.36 1544.91 L2289 1544.91 L2289 1548.85 L2269.1 1548.85 L2269.1 1544.91 Z" fill="#000000" fill-rule="evenodd" fill-opacity="1" /><path clip-path="url(#clip220)" d="M2298.45 1542.97 L2303.33 1542.97 L2303.33 1548.85 L2298.45 1548.85 L2298.45 1542.97 Z" fill="#000000" fill-rule="evenodd" fill-opacity="1" /><path clip-path="url(#clip220)" d="M2323.52 1517.37 Q2319.91 1517.37 2318.08 1520.93 Q2316.27 1524.47 2316.27 1531.6 Q2316.27 1538.71 2318.08 1542.27 Q2319.91 1545.82 2323.52 1545.82 Q2327.15 1545.82 2328.96 1542.27 Q2330.79 1538.71 2330.79 1531.6 Q2330.79 1524.47 2328.96 1520.93 Q2327.15 1517.37 2323.52 1517.37 M2323.52 1513.66 Q2329.33 1513.66 2332.38 1518.27 Q2335.46 1522.85 2335.46 1531.6 Q2335.46 1540.33 2332.38 1544.94 Q2329.33 1549.52 2323.52 1549.52 Q2317.71 1549.52 2314.63 1544.94 Q2311.57 1540.33 2311.57 1531.6 Q2311.57 1522.85 2314.63 1518.27 Q2317.71 1513.66 2323.52 1513.66 Z" fill="#000000" fill-rule="evenodd" fill-opacity="1" /><polyline clip-path="url(#clip222)" style="stroke:#000000; stroke-linecap:butt; stroke-linejoin:round; stroke-width:2; stroke-opacity:0.1; fill:none" points="
  193.936,1446.05 2352.76,1446.05 
  "/>
<polyline clip-path="url(#clip222)" style="stroke:#000000; stroke-linecap:butt; stroke-linejoin:round; stroke-width:2; stroke-opacity:0.1; fill:none" points="
  193.936,1106.45 2352.76,1106.45 
  "/>
<polyline clip-path="url(#clip222)" style="stroke:#000000; stroke-linecap:butt; stroke-linejoin:round; stroke-width:2; stroke-opacity:0.1; fill:none" points="
  193.936,766.846 2352.76,766.846 
  "/>
<polyline clip-path="url(#clip222)" style="stroke:#000000; stroke-linecap:butt; stroke-linejoin:round; stroke-width:2; stroke-opacity:0.1; fill:none" points="
  193.936,427.244 2352.76,427.244 
  "/>
<polyline clip-path="url(#clip222)" style="stroke:#000000; stroke-linecap:butt; stroke-linejoin:round; stroke-width:2; stroke-opacity:0.1; fill:none" points="
  193.936,87.6411 2352.76,87.6411 
  "/>
<polyline clip-path="url(#clip220)" style="stroke:#000000; stroke-linecap:butt; stroke-linejoin:round; stroke-width:4; stroke-opacity:1; fill:none" points="
  193.936,1486.45 193.936,47.2441 
  "/>
<polyline clip-path="url(#clip220)" style="stroke:#000000; stroke-linecap:butt; stroke-linejoin:round; stroke-width:4; stroke-opacity:1; fill:none" points="
  193.936,1446.05 212.834,1446.05 
  "/>
<polyline clip-path="url(#clip220)" style="stroke:#000000; stroke-linecap:butt; stroke-linejoin:round; stroke-width:4; stroke-opacity:1; fill:none" points="
  193.936,1106.45 212.834,1106.45 
  "/>
<polyline clip-path="url(#clip220)" style="stroke:#000000; stroke-linecap:butt; stroke-linejoin:round; stroke-width:4; stroke-opacity:1; fill:none" points="
  193.936,766.846 212.834,766.846 
  "/>
<polyline clip-path="url(#clip220)" style="stroke:#000000; stroke-linecap:butt; stroke-linejoin:round; stroke-width:4; stroke-opacity:1; fill:none" points="
  193.936,427.244 212.834,427.244 
  "/>
<polyline clip-path="url(#clip220)" style="stroke:#000000; stroke-linecap:butt; stroke-linejoin:round; stroke-width:4; stroke-opacity:1; fill:none" points="
  193.936,87.6411 212.834,87.6411 
  "/>
<path clip-path="url(#clip220)" d="M50.9921 1446.5 L80.6679 1446.5 L80.6679 1450.44 L50.9921 1450.44 L50.9921 1446.5 Z" fill="#000000" fill-rule="evenodd" fill-opacity="1" /><path clip-path="url(#clip220)" d="M91.5706 1459.4 L99.2095 1459.4 L99.2095 1433.03 L90.8993 1434.7 L90.8993 1430.44 L99.1632 1428.77 L103.839 1428.77 L103.839 1459.4 L111.478 1459.4 L111.478 1463.33 L91.5706 1463.33 L91.5706 1459.4 Z" fill="#000000" fill-rule="evenodd" fill-opacity="1" /><path clip-path="url(#clip220)" d="M120.922 1457.45 L125.807 1457.45 L125.807 1463.33 L120.922 1463.33 L120.922 1457.45 Z" fill="#000000" fill-rule="evenodd" fill-opacity="1" /><path clip-path="url(#clip220)" d="M145.992 1431.85 Q142.381 1431.85 140.552 1435.41 Q138.746 1438.96 138.746 1446.09 Q138.746 1453.19 140.552 1456.76 Q142.381 1460.3 145.992 1460.3 Q149.626 1460.3 151.431 1456.76 Q153.26 1453.19 153.26 1446.09 Q153.26 1438.96 151.431 1435.41 Q149.626 1431.85 145.992 1431.85 M145.992 1428.15 Q151.802 1428.15 154.857 1432.75 Q157.936 1437.34 157.936 1446.09 Q157.936 1454.81 154.857 1459.42 Q151.802 1464 145.992 1464 Q140.181 1464 137.103 1459.42 Q134.047 1454.81 134.047 1446.09 Q134.047 1437.34 137.103 1432.75 Q140.181 1428.15 145.992 1428.15 Z" fill="#000000" fill-rule="evenodd" fill-opacity="1" /><path clip-path="url(#clip220)" d="M51.9875 1106.9 L81.6633 1106.9 L81.6633 1110.83 L51.9875 1110.83 L51.9875 1106.9 Z" fill="#000000" fill-rule="evenodd" fill-opacity="1" /><path clip-path="url(#clip220)" d="M101.756 1092.25 Q98.1447 1092.25 96.316 1095.81 Q94.5104 1099.35 94.5104 1106.48 Q94.5104 1113.59 96.316 1117.15 Q98.1447 1120.7 101.756 1120.7 Q105.39 1120.7 107.196 1117.15 Q109.024 1113.59 109.024 1106.48 Q109.024 1099.35 107.196 1095.81 Q105.39 1092.25 101.756 1092.25 M101.756 1088.54 Q107.566 1088.54 110.621 1093.15 Q113.7 1097.73 113.7 1106.48 Q113.7 1115.21 110.621 1119.82 Q107.566 1124.4 101.756 1124.4 Q95.9456 1124.4 92.8669 1119.82 Q89.8114 1115.21 89.8114 1106.48 Q89.8114 1097.73 92.8669 1093.15 Q95.9456 1088.54 101.756 1088.54 Z" fill="#000000" fill-rule="evenodd" fill-opacity="1" /><path clip-path="url(#clip220)" d="M121.918 1117.85 L126.802 1117.85 L126.802 1123.73 L121.918 1123.73 L121.918 1117.85 Z" fill="#000000" fill-rule="evenodd" fill-opacity="1" /><path clip-path="url(#clip220)" d="M137.033 1089.17 L155.39 1089.17 L155.39 1093.1 L141.316 1093.1 L141.316 1101.58 Q142.334 1101.23 143.353 1101.07 Q144.371 1100.88 145.39 1100.88 Q151.177 1100.88 154.556 1104.05 Q157.936 1107.22 157.936 1112.64 Q157.936 1118.22 154.464 1121.32 Q150.992 1124.4 144.672 1124.4 Q142.496 1124.4 140.228 1124.03 Q137.982 1123.66 135.575 1122.92 L135.575 1118.22 Q137.658 1119.35 139.881 1119.91 Q142.103 1120.46 144.58 1120.46 Q148.584 1120.46 150.922 1118.36 Q153.26 1116.25 153.26 1112.64 Q153.26 1109.03 150.922 1106.92 Q148.584 1104.82 144.58 1104.82 Q142.705 1104.82 140.83 1105.23 Q138.978 1105.65 137.033 1106.53 L137.033 1089.17 Z" fill="#000000" fill-rule="evenodd" fill-opacity="1" /><path clip-path="url(#clip220)" d="M100.76 752.645 Q97.1493 752.645 95.3206 756.209 Q93.515 759.751 93.515 766.881 Q93.515 773.987 95.3206 777.552 Q97.1493 781.094 100.76 781.094 Q104.395 781.094 106.2 777.552 Q108.029 773.987 108.029 766.881 Q108.029 759.751 106.2 756.209 Q104.395 752.645 100.76 752.645 M100.76 748.941 Q106.571 748.941 109.626 753.547 Q112.705 758.131 112.705 766.881 Q112.705 775.608 109.626 780.214 Q106.571 784.797 100.76 784.797 Q94.9502 784.797 91.8715 780.214 Q88.816 775.608 88.816 766.881 Q88.816 758.131 91.8715 753.547 Q94.9502 748.941 100.76 748.941 Z" fill="#000000" fill-rule="evenodd" fill-opacity="1" /><path clip-path="url(#clip220)" d="M120.922 778.246 L125.807 778.246 L125.807 784.126 L120.922 784.126 L120.922 778.246 Z" fill="#000000" fill-rule="evenodd" fill-opacity="1" /><path clip-path="url(#clip220)" d="M145.992 752.645 Q142.381 752.645 140.552 756.209 Q138.746 759.751 138.746 766.881 Q138.746 773.987 140.552 777.552 Q142.381 781.094 145.992 781.094 Q149.626 781.094 151.431 777.552 Q153.26 773.987 153.26 766.881 Q153.26 759.751 151.431 756.209 Q149.626 752.645 145.992 752.645 M145.992 748.941 Q151.802 748.941 154.857 753.547 Q157.936 758.131 157.936 766.881 Q157.936 775.608 154.857 780.214 Q151.802 784.797 145.992 784.797 Q140.181 784.797 137.103 780.214 Q134.047 775.608 134.047 766.881 Q134.047 758.131 137.103 753.547 Q140.181 748.941 145.992 748.941 Z" fill="#000000" fill-rule="evenodd" fill-opacity="1" /><path clip-path="url(#clip220)" d="M101.756 413.042 Q98.1447 413.042 96.316 416.607 Q94.5104 420.149 94.5104 427.278 Q94.5104 434.385 96.316 437.95 Q98.1447 441.491 101.756 441.491 Q105.39 441.491 107.196 437.95 Q109.024 434.385 109.024 427.278 Q109.024 420.149 107.196 416.607 Q105.39 413.042 101.756 413.042 M101.756 409.339 Q107.566 409.339 110.621 413.945 Q113.7 418.528 113.7 427.278 Q113.7 436.005 110.621 440.612 Q107.566 445.195 101.756 445.195 Q95.9456 445.195 92.8669 440.612 Q89.8114 436.005 89.8114 427.278 Q89.8114 418.528 92.8669 413.945 Q95.9456 409.339 101.756 409.339 Z" fill="#000000" fill-rule="evenodd" fill-opacity="1" /><path clip-path="url(#clip220)" d="M121.918 438.644 L126.802 438.644 L126.802 444.524 L121.918 444.524 L121.918 438.644 Z" fill="#000000" fill-rule="evenodd" fill-opacity="1" /><path clip-path="url(#clip220)" d="M137.033 409.964 L155.39 409.964 L155.39 413.899 L141.316 413.899 L141.316 422.371 Q142.334 422.024 143.353 421.862 Q144.371 421.676 145.39 421.676 Q151.177 421.676 154.556 424.848 Q157.936 428.019 157.936 433.436 Q157.936 439.014 154.464 442.116 Q150.992 445.195 144.672 445.195 Q142.496 445.195 140.228 444.824 Q137.982 444.454 135.575 443.713 L135.575 439.014 Q137.658 440.149 139.881 440.704 Q142.103 441.26 144.58 441.26 Q148.584 441.26 150.922 439.153 Q153.26 437.047 153.26 433.436 Q153.26 429.825 150.922 427.718 Q148.584 425.612 144.58 425.612 Q142.705 425.612 140.83 426.028 Q138.978 426.445 137.033 427.325 L137.033 409.964 Z" fill="#000000" fill-rule="evenodd" fill-opacity="1" /><path clip-path="url(#clip220)" d="M91.5706 100.986 L99.2095 100.986 L99.2095 74.6204 L90.8993 76.287 L90.8993 72.0278 L99.1632 70.3611 L103.839 70.3611 L103.839 100.986 L111.478 100.986 L111.478 104.921 L91.5706 104.921 L91.5706 100.986 Z" fill="#000000" fill-rule="evenodd" fill-opacity="1" /><path clip-path="url(#clip220)" d="M120.922 99.0415 L125.807 99.0415 L125.807 104.921 L120.922 104.921 L120.922 99.0415 Z" fill="#000000" fill-rule="evenodd" fill-opacity="1" /><path clip-path="url(#clip220)" d="M145.992 73.4398 Q142.381 73.4398 140.552 77.0046 Q138.746 80.5463 138.746 87.6759 Q138.746 94.7823 140.552 98.3471 Q142.381 101.889 145.992 101.889 Q149.626 101.889 151.431 98.3471 Q153.26 94.7823 153.26 87.6759 Q153.26 80.5463 151.431 77.0046 Q149.626 73.4398 145.992 73.4398 M145.992 69.7361 Q151.802 69.7361 154.857 74.3426 Q157.936 78.9259 157.936 87.6759 Q157.936 96.4027 154.857 101.009 Q151.802 105.592 145.992 105.592 Q140.181 105.592 137.103 101.009 Q134.047 96.4027 134.047 87.6759 Q134.047 78.9259 137.103 74.3426 Q140.181 69.7361 145.992 69.7361 Z" fill="#000000" fill-rule="evenodd" fill-opacity="1" /><polyline clip-path="url(#clip222)" style="stroke:#009af9; stroke-linecap:butt; stroke-linejoin:round; stroke-width:12; stroke-opacity:1; fill:none" points="
  255.035,1445.72 275.607,1443.04 296.179,1437.69 316.751,1429.69 337.322,1419.08 357.894,1405.9 378.466,1390.19 399.038,1372.02 419.61,1351.47 440.182,1328.6 
  460.754,1303.52 481.326,1276.33 501.898,1247.12 522.47,1216.01 543.042,1183.14 563.614,1148.62 584.186,1112.59 604.758,1075.2 625.33,1036.59 645.902,996.918 
  666.474,956.338 687.046,915.01 707.617,873.097 728.189,830.765 748.761,788.18 769.333,745.512 789.905,702.927 810.477,660.595 831.049,618.682 851.621,577.354 
  872.193,536.774 892.765,497.101 913.337,458.493 933.909,421.103 954.481,385.076 975.053,350.557 995.625,317.68 1016.2,286.576 1036.77,257.367 1057.34,230.169 
  1077.91,205.089 1098.48,182.226 1119.06,161.67 1139.63,143.503 1160.2,127.795 1180.77,114.61 1201.34,103.999 1221.92,96.0033 1242.49,90.6555 1263.06,87.9763 
  1283.63,87.9763 1304.2,90.6555 1324.78,96.0033 1345.35,103.999 1365.92,114.61 1386.49,127.795 1407.06,143.503 1427.64,161.67 1448.21,182.226 1468.78,205.089 
  1489.35,230.169 1509.92,257.367 1530.5,286.576 1551.07,317.68 1571.64,350.557 1592.21,385.076 1612.78,421.103 1633.35,458.493 1653.93,497.101 1674.5,536.774 
  1695.07,577.354 1715.64,618.682 1736.21,660.595 1756.79,702.927 1777.36,745.512 1797.93,788.18 1818.5,830.765 1839.07,873.097 1859.65,915.01 1880.22,956.338 
  1900.79,996.918 1921.36,1036.59 1941.93,1075.2 1962.51,1112.59 1983.08,1148.62 2003.65,1183.14 2024.22,1216.01 2044.79,1247.12 2065.37,1276.33 2085.94,1303.52 
  2106.51,1328.6 2127.08,1351.47 2147.65,1372.02 2168.23,1390.19 2188.8,1405.9 2209.37,1419.08 2229.94,1429.69 2250.51,1437.69 2271.09,1443.04 2291.66,1445.72 
  
  "/>
<polyline clip-path="url(#clip222)" style="stroke:#e26f46; stroke-linecap:butt; stroke-linejoin:round; stroke-width:12; stroke-opacity:1; fill:none" points="
  255.035,1341.31 275.607,1323.81 296.179,1305.73 316.751,1286.41 337.322,1266.3 357.894,1245.85 378.466,1224.56 399.038,1202.67 419.61,1180.4 440.182,1157.5 
  460.754,1134.24 481.326,1110.54 501.898,1086.49 522.47,1062.09 543.042,1037.39 563.614,1012.41 584.186,987.197 604.758,961.766 625.33,936.148 645.902,910.369 
  666.474,884.456 687.046,858.433 707.617,832.325 728.189,806.158 748.761,779.954 769.333,753.738 789.905,727.534 810.477,701.367 831.049,675.259 851.621,649.236 
  872.193,623.323 892.765,597.544 913.337,571.926 933.909,546.495 954.481,521.279 975.053,496.305 995.625,471.605 1016.2,447.207 1036.77,423.149 1057.34,399.448 
  1077.91,376.188 1098.48,353.294 1119.06,331.019 1139.63,309.128 1160.2,287.84 1180.77,267.389 1201.34,247.282 1221.92,227.964 1242.49,209.879 1263.06,192.386 
  1283.63,175.359 1304.2,159.731 1324.78,145.989 1345.35,133.353 1365.92,120.87 1386.49,109.064 1407.06,99.911 1427.64,95.2147 1448.21,94.3976 1468.78,95.3643 
  1489.35,98.1211 1509.92,103.115 1530.5,110.803 1551.07,121.686 1571.64,136.317 1592.21,155.3 1612.78,179.312 1633.35,209.118 1653.93,245.592 1674.5,289.728 
  1695.07,342.629 1715.64,405.454 1736.21,479.29 1756.79,564.864 1777.36,662.045 1797.93,871.647 1818.5,968.828 1839.07,1054.4 1859.65,1128.24 1880.22,1191.06 
  1900.79,1243.96 1921.36,1288.1 1941.93,1324.57 1962.51,1354.38 1983.08,1378.39 2003.65,1397.37 2024.22,1412.01 2044.79,1422.89 2065.37,1430.58 2085.94,1435.57 
  2106.51,1438.33 2127.08,1439.29 2147.65,1438.48 2168.23,1433.78 2188.8,1424.63 2209.37,1412.82 2229.94,1400.34 2250.51,1387.7 2271.09,1373.96 2291.66,1358.33 
  
  "/>
<polyline clip-path="url(#clip222)" style="stroke:#3da44d; stroke-linecap:butt; stroke-linejoin:round; stroke-width:12; stroke-opacity:1; fill:none" points="
  255.035,1212.29 275.607,1195.83 296.179,1179.03 316.751,1161.82 337.322,1144.45 357.894,1127.13 378.466,1109.59 399.038,1091.72 419.61,1073.83 440.182,1055.9 
  460.754,1037.7 481.326,1019.45 501.898,1001.16 522.47,982.687 543.042,964.203 563.614,945.61 584.186,926.966 604.758,908.261 625.33,889.506 645.902,870.707 
  666.474,851.872 687.046,833.008 707.617,814.121 728.189,795.217 748.761,776.304 769.333,757.388 789.905,738.475 810.477,719.571 831.049,700.684 851.621,681.82 
  872.193,662.985 892.765,644.186 913.337,625.431 933.909,606.726 954.481,588.082 975.053,569.489 995.625,551.005 1016.2,532.534 1036.77,514.238 1057.34,495.992 
  1077.91,477.794 1098.48,459.864 1119.06,441.974 1139.63,424.105 1160.2,406.563 1180.77,389.24 1201.34,371.871 1221.92,354.657 1242.49,337.866 1263.06,321.402 
  1283.63,304.952 1304.2,288.525 1324.78,272.534 1345.35,257.168 1365.92,242.235 1386.49,227.388 1407.06,212.453 1427.64,197.801 1448.21,184.129 1468.78,171.752 
  1489.35,160.268 1509.92,148.72 1530.5,136.457 1551.07,123.772 1571.64,112.268 1592.21,104.281 1612.78,100.88 1633.35,100.639 1653.93,102.067 1674.5,105.521 
  1695.07,111.68 1715.64,121.582 1736.21,136.874 1756.79,160.507 1777.36,198.864 1797.93,1334.83 1818.5,1373.18 1839.07,1396.82 1859.65,1412.11 1880.22,1422.01 
  1900.79,1428.17 1921.36,1431.62 1941.93,1433.05 1962.51,1432.81 1983.08,1429.41 2003.65,1421.42 2024.22,1409.92 2044.79,1397.24 2065.37,1384.97 2085.94,1373.42 
  2106.51,1361.94 2127.08,1349.56 2147.65,1335.89 2168.23,1321.24 2188.8,1306.3 2209.37,1291.46 2229.94,1276.52 2250.51,1261.16 2271.09,1245.17 2291.66,1228.74 
  
  "/>
<polyline clip-path="url(#clip222)" style="stroke:#c271d2; stroke-linecap:butt; stroke-linejoin:round; stroke-width:12; stroke-opacity:1; fill:none" points="
  255.035,1122.77 275.607,1108.84 296.179,1094.89 316.751,1080.75 337.322,1066.46 357.894,1052.14 378.466,1037.9 399.038,1023.58 419.61,1009.09 440.182,994.586 
  460.754,980.14 481.326,965.603 501.898,950.964 522.47,936.378 543.042,921.747 563.614,907.043 584.186,892.372 604.758,877.642 625.33,862.911 645.902,848.157 
  666.474,833.392 687.046,818.615 707.617,803.83 728.189,789.039 748.761,774.244 769.333,759.448 789.905,744.653 810.477,729.862 831.049,715.077 851.621,700.3 
  872.193,685.535 892.765,670.781 913.337,656.05 933.909,641.32 954.481,626.649 975.053,611.945 995.625,597.314 1016.2,582.728 1036.77,568.089 1057.34,553.552 
  1077.91,539.106 1098.48,524.6 1119.06,510.111 1139.63,495.796 1160.2,481.547 1180.77,467.236 1201.34,452.944 1221.92,438.807 1242.49,424.849 1263.06,410.922 
  1283.63,396.912 1304.2,382.946 1324.78,369.206 1345.35,355.683 1365.92,342.287 1386.49,328.87 1407.06,315.4 1427.64,302.011 1448.21,288.872 1468.78,276.146 
  1489.35,263.761 1509.92,251.408 1530.5,238.918 1551.07,226.291 1571.64,213.743 1592.21,201.686 1612.78,190.49 1633.35,180.291 1653.93,170.591 1674.5,160.717 
  1695.07,149.876 1715.64,137.76 1736.21,125.364 1756.79,114.923 1777.36,108.392 1797.93,1425.3 1818.5,1418.77 1839.07,1408.33 1859.65,1395.93 1880.22,1383.82 
  1900.79,1372.98 1921.36,1363.1 1941.93,1353.4 1962.51,1343.2 1983.08,1332.01 2003.65,1319.95 2024.22,1307.4 2044.79,1294.77 2065.37,1282.28 2085.94,1269.93 
  2106.51,1257.55 2127.08,1244.82 2147.65,1231.68 2168.23,1218.29 2188.8,1204.82 2209.37,1191.41 2229.94,1178.01 2250.51,1164.49 2271.09,1150.75 2291.66,1136.78 
  
  "/>
<polyline clip-path="url(#clip222)" style="stroke:#ac8d18; stroke-linecap:butt; stroke-linejoin:round; stroke-width:12; stroke-opacity:1; fill:none" points="
  255.035,1061.68 275.607,1049.79 296.179,1037.95 316.751,1026.14 337.322,1014.31 357.894,1002.38 378.466,990.387 399.038,978.401 419.61,966.474 440.182,954.505 
  460.754,942.437 481.326,930.374 501.898,918.36 522.47,906.305 543.042,894.184 563.614,882.105 584.186,870.018 604.758,857.879 625.33,845.773 645.902,833.636 
  666.474,821.503 687.046,809.362 707.617,797.217 728.189,785.07 748.761,772.921 769.333,760.771 789.905,748.622 810.477,736.475 831.049,724.33 851.621,712.189 
  872.193,700.056 892.765,687.919 913.337,675.813 933.909,663.674 954.481,651.587 975.053,639.508 995.625,627.387 1016.2,615.332 1036.77,603.318 1057.34,591.255 
  1077.91,579.187 1098.48,567.218 1119.06,555.291 1139.63,543.305 1160.2,531.308 1180.77,519.385 1201.34,507.551 1221.92,495.746 1242.49,483.905 1263.06,472.016 
  1283.63,460.204 1304.2,448.527 1324.78,436.92 1345.35,425.316 1365.92,413.665 1386.49,401.991 1407.06,390.41 1427.64,378.95 1448.21,367.609 1468.78,356.394 
  1489.35,345.161 1509.92,333.889 1530.5,322.507 1551.07,311.302 1571.64,299.991 1592.21,289.792 1612.78,277.596 1633.35,270.383 1653.93,254.215 1674.5,251.795 
  1695.07,231.221 1715.64,230.142 1736.21,210.178 1756.79,209.289 1777.36,191.146 1797.93,1342.55 1818.5,1324.4 1839.07,1323.51 1859.65,1303.55 1880.22,1302.47 
  1900.79,1281.9 1921.36,1279.48 1941.93,1263.31 1962.51,1256.1 1983.08,1243.9 2003.65,1233.7 2024.22,1222.39 2044.79,1211.18 2065.37,1199.8 2085.94,1188.53 
  2106.51,1177.3 2127.08,1166.08 2147.65,1154.74 2168.23,1143.28 2188.8,1131.7 2209.37,1120.03 2229.94,1108.38 2250.51,1096.77 2271.09,1085.16 2291.66,1073.49 
  
  "/>
<polyline clip-path="url(#clip222)" style="stroke:#00a9ad; stroke-linecap:butt; stroke-linejoin:round; stroke-width:12; stroke-opacity:1; fill:none" points="
  255.035,1017.87 275.607,1007.8 296.179,997.648 316.751,987.446 337.322,977.241 357.894,967.055 378.466,956.899 399.038,946.719 419.61,936.473 440.182,926.198 
  460.754,915.972 481.326,905.763 501.898,895.5 522.47,885.204 543.042,874.938 563.614,864.689 584.186,854.388 604.758,844.091 625.33,833.82 645.902,823.509 
  666.474,813.216 687.046,802.913 707.617,792.61 728.189,782.305 748.761,771.999 769.333,761.693 789.905,751.387 810.477,741.082 831.049,730.779 851.621,720.476 
  872.193,710.183 892.765,699.872 913.337,689.601 933.909,679.304 954.481,669.003 975.053,658.754 995.625,648.488 1016.2,638.192 1036.77,627.929 1057.34,617.72 
  1077.91,607.494 1098.48,597.219 1119.06,586.973 1139.63,576.793 1160.2,566.637 1180.77,556.451 1201.34,546.246 1221.92,536.044 1242.49,525.893 1263.06,515.82 
  1283.63,505.762 1304.2,495.658 1324.78,485.531 1345.35,475.418 1365.92,465.347 1386.49,455.409 1407.06,445.425 1427.64,435.644 1448.21,425.31 1468.78,416.242 
  1489.35,404.362 1509.92,398.04 1530.5,382.305 1551.07,380.853 1571.64,361.439 1592.21,361.837 1612.78,342.647 1633.35,341.638 1653.93,323.287 1674.5,322.744 
  1695.07,303.606 1715.64,303.593 1736.21,285.055 1756.79,285.351 1777.36,266.823 1797.93,1266.87 1818.5,1248.34 1839.07,1248.64 1859.65,1230.1 1880.22,1230.09 
  1900.79,1210.95 1921.36,1210.4 1941.93,1192.05 1962.51,1191.05 1983.08,1171.86 2003.65,1172.25 2024.22,1152.84 2044.79,1151.39 2065.37,1135.65 2085.94,1129.33 
  2106.51,1117.45 2127.08,1108.38 2147.65,1098.05 2168.23,1088.27 2188.8,1078.28 2209.37,1068.34 2229.94,1058.27 2250.51,1048.16 2271.09,1038.03 2291.66,1027.93 
  
  "/>
</svg>
