<?xml version="1.0" encoding="utf-8"?>
<svg xmlns="http://www.w3.org/2000/svg" xmlns:xlink="http://www.w3.org/1999/xlink" width="600" height="400" viewBox="0 0 2400 1600">
<defs>
  <clipPath id="clip610">
    <rect x="0" y="0" width="2400" height="1600"/>
  </clipPath>
</defs>
<path clip-path="url(#clip610)" d="
M0 1600 L2400 1600 L2400 0 L0 0  Z
  " fill="#ffffff" fill-rule="evenodd" fill-opacity="1"/>
<defs>
  <clipPath id="clip611">
    <rect x="480" y="0" width="1681" height="1600"/>
  </clipPath>
</defs>
<path clip-path="url(#clip610)" d="
M192.339 1486.45 L2352.76 1486.45 L2352.76 123.472 L192.339 123.472  Z
  " fill="#ffffff" fill-rule="evenodd" fill-opacity="1"/>
<defs>
  <clipPath id="clip612">
    <rect x="192" y="123" width="2161" height="1364"/>
  </clipPath>
</defs>
<polyline clip-path="url(#clip612)" style="stroke:#000000; stroke-linecap:butt; stroke-linejoin:round; stroke-width:2; stroke-opacity:0.1; fill:none" points="
  253.483,1486.45 253.483,123.472 
  "/>
<polyline clip-path="url(#clip612)" style="stroke:#000000; stroke-linecap:butt; stroke-linejoin:round; stroke-width:2; stroke-opacity:0.1; fill:none" points="
  763.015,1486.45 763.015,123.472 
  "/>
<polyline clip-path="url(#clip612)" style="stroke:#000000; stroke-linecap:butt; stroke-linejoin:round; stroke-width:2; stroke-opacity:0.1; fill:none" points="
  1272.55,1486.45 1272.55,123.472 
  "/>
<polyline clip-path="url(#clip612)" style="stroke:#000000; stroke-linecap:butt; stroke-linejoin:round; stroke-width:2; stroke-opacity:0.1; fill:none" points="
  1782.08,1486.45 1782.08,123.472 
  "/>
<polyline clip-path="url(#clip612)" style="stroke:#000000; stroke-linecap:butt; stroke-linejoin:round; stroke-width:2; stroke-opacity:0.1; fill:none" points="
  2291.61,1486.45 2291.61,123.472 
  "/>
<polyline clip-path="url(#clip610)" style="stroke:#000000; stroke-linecap:butt; stroke-linejoin:round; stroke-width:4; stroke-opacity:1; fill:none" points="
  192.339,1486.45 2352.76,1486.45 
  "/>
<polyline clip-path="url(#clip610)" style="stroke:#000000; stroke-linecap:butt; stroke-linejoin:round; stroke-width:4; stroke-opacity:1; fill:none" points="
  253.483,1486.45 253.483,1467.55 
  "/>
<polyline clip-path="url(#clip610)" style="stroke:#000000; stroke-linecap:butt; stroke-linejoin:round; stroke-width:4; stroke-opacity:1; fill:none" points="
  763.015,1486.45 763.015,1467.55 
  "/>
<polyline clip-path="url(#clip610)" style="stroke:#000000; stroke-linecap:butt; stroke-linejoin:round; stroke-width:4; stroke-opacity:1; fill:none" points="
  1272.55,1486.45 1272.55,1467.55 
  "/>
<polyline clip-path="url(#clip610)" style="stroke:#000000; stroke-linecap:butt; stroke-linejoin:round; stroke-width:4; stroke-opacity:1; fill:none" points="
  1782.08,1486.45 1782.08,1467.55 
  "/>
<polyline clip-path="url(#clip610)" style="stroke:#000000; stroke-linecap:butt; stroke-linejoin:round; stroke-width:4; stroke-opacity:1; fill:none" points="
  2291.61,1486.45 2291.61,1467.55 
  "/>
<path clip-path="url(#clip610)" d="M200.011 1532.02 L229.686 1532.02 L229.686 1535.95 L200.011 1535.95 L200.011 1532.02 Z" fill="#000000" fill-rule="evenodd" fill-opacity="1" /><path clip-path="url(#clip610)" d="M240.589 1544.91 L248.228 1544.91 L248.228 1518.55 L239.918 1520.21 L239.918 1515.95 L248.182 1514.29 L252.858 1514.29 L252.858 1544.91 L260.497 1544.91 L260.497 1548.85 L240.589 1548.85 L240.589 1544.91 Z" fill="#000000" fill-rule="evenodd" fill-opacity="1" /><path clip-path="url(#clip610)" d="M269.941 1542.97 L274.825 1542.97 L274.825 1548.85 L269.941 1548.85 L269.941 1542.97 Z" fill="#000000" fill-rule="evenodd" fill-opacity="1" /><path clip-path="url(#clip610)" d="M295.01 1517.37 Q291.399 1517.37 289.57 1520.93 Q287.765 1524.47 287.765 1531.6 Q287.765 1538.71 289.57 1542.27 Q291.399 1545.82 295.01 1545.82 Q298.644 1545.82 300.45 1542.27 Q302.279 1538.71 302.279 1531.6 Q302.279 1524.47 300.45 1520.93 Q298.644 1517.37 295.01 1517.37 M295.01 1513.66 Q300.82 1513.66 303.876 1518.27 Q306.955 1522.85 306.955 1531.6 Q306.955 1540.33 303.876 1544.94 Q300.82 1549.52 295.01 1549.52 Q289.2 1549.52 286.121 1544.94 Q283.066 1540.33 283.066 1531.6 Q283.066 1522.85 286.121 1518.27 Q289.2 1513.66 295.01 1513.66 Z" fill="#000000" fill-rule="evenodd" fill-opacity="1" /><path clip-path="url(#clip610)" d="M710.041 1532.02 L739.717 1532.02 L739.717 1535.95 L710.041 1535.95 L710.041 1532.02 Z" fill="#000000" fill-rule="evenodd" fill-opacity="1" /><path clip-path="url(#clip610)" d="M759.809 1517.37 Q756.198 1517.37 754.369 1520.93 Q752.564 1524.47 752.564 1531.6 Q752.564 1538.71 754.369 1542.27 Q756.198 1545.82 759.809 1545.82 Q763.443 1545.82 765.249 1542.27 Q767.077 1538.71 767.077 1531.6 Q767.077 1524.47 765.249 1520.93 Q763.443 1517.37 759.809 1517.37 M759.809 1513.66 Q765.619 1513.66 768.675 1518.27 Q771.753 1522.85 771.753 1531.6 Q771.753 1540.33 768.675 1544.94 Q765.619 1549.52 759.809 1549.52 Q753.999 1549.52 750.92 1544.94 Q747.865 1540.33 747.865 1531.6 Q747.865 1522.85 750.92 1518.27 Q753.999 1513.66 759.809 1513.66 Z" fill="#000000" fill-rule="evenodd" fill-opacity="1" /><path clip-path="url(#clip610)" d="M779.971 1542.97 L784.855 1542.97 L784.855 1548.85 L779.971 1548.85 L779.971 1542.97 Z" fill="#000000" fill-rule="evenodd" fill-opacity="1" /><path clip-path="url(#clip610)" d="M795.087 1514.29 L813.443 1514.29 L813.443 1518.22 L799.369 1518.22 L799.369 1526.7 Q800.387 1526.35 801.406 1526.19 Q802.425 1526 803.443 1526 Q809.23 1526 812.61 1529.17 Q815.989 1532.34 815.989 1537.76 Q815.989 1543.34 812.517 1546.44 Q809.045 1549.52 802.725 1549.52 Q800.55 1549.52 798.281 1549.15 Q796.036 1548.78 793.628 1548.04 L793.628 1543.34 Q795.712 1544.47 797.934 1545.03 Q800.156 1545.58 802.633 1545.58 Q806.637 1545.58 808.975 1543.48 Q811.313 1541.37 811.313 1537.76 Q811.313 1534.15 808.975 1532.04 Q806.637 1529.94 802.633 1529.94 Q800.758 1529.94 798.883 1530.35 Q797.031 1530.77 795.087 1531.65 L795.087 1514.29 Z" fill="#000000" fill-rule="evenodd" fill-opacity="1" /><path clip-path="url(#clip610)" d="M1249.93 1517.37 Q1246.32 1517.37 1244.49 1520.93 Q1242.69 1524.47 1242.69 1531.6 Q1242.69 1538.71 1244.49 1542.27 Q1246.32 1545.82 1249.93 1545.82 Q1253.57 1545.82 1255.37 1542.27 Q1257.2 1538.71 1257.2 1531.6 Q1257.2 1524.47 1255.37 1520.93 Q1253.57 1517.37 1249.93 1517.37 M1249.93 1513.66 Q1255.74 1513.66 1258.8 1518.27 Q1261.88 1522.85 1261.88 1531.6 Q1261.88 1540.33 1258.8 1544.94 Q1255.74 1549.52 1249.93 1549.52 Q1244.12 1549.52 1241.04 1544.94 Q1237.99 1540.33 1237.99 1531.6 Q1237.99 1522.85 1241.04 1518.27 Q1244.12 1513.66 1249.93 1513.66 Z" fill="#000000" fill-rule="evenodd" fill-opacity="1" /><path clip-path="url(#clip610)" d="M1270.09 1542.97 L1274.98 1542.97 L1274.98 1548.85 L1270.09 1548.85 L1270.09 1542.97 Z" fill="#000000" fill-rule="evenodd" fill-opacity="1" /><path clip-path="url(#clip610)" d="M1295.16 1517.37 Q1291.55 1517.37 1289.72 1520.93 Q1287.92 1524.47 1287.92 1531.6 Q1287.92 1538.71 1289.72 1542.27 Q1291.55 1545.82 1295.16 1545.82 Q1298.8 1545.82 1300.6 1542.27 Q1302.43 1538.71 1302.43 1531.6 Q1302.43 1524.47 1300.6 1520.93 Q1298.8 1517.37 1295.16 1517.37 M1295.16 1513.66 Q1300.97 1513.66 1304.03 1518.27 Q1307.11 1522.85 1307.11 1531.6 Q1307.11 1540.33 1304.03 1544.94 Q1300.97 1549.52 1295.16 1549.52 Q1289.35 1549.52 1286.27 1544.94 Q1283.22 1540.33 1283.22 1531.6 Q1283.22 1522.85 1286.27 1518.27 Q1289.35 1513.66 1295.16 1513.66 Z" fill="#000000" fill-rule="evenodd" fill-opacity="1" /><path clip-path="url(#clip610)" d="M1759.96 1517.37 Q1756.35 1517.37 1754.52 1520.93 Q1752.72 1524.47 1752.72 1531.6 Q1752.72 1538.71 1754.52 1542.27 Q1756.35 1545.82 1759.96 1545.82 Q1763.6 1545.82 1765.4 1542.27 Q1767.23 1538.71 1767.23 1531.6 Q1767.23 1524.47 1765.4 1520.93 Q1763.6 1517.37 1759.96 1517.37 M1759.96 1513.66 Q1765.77 1513.66 1768.83 1518.27 Q1771.91 1522.85 1771.91 1531.6 Q1771.91 1540.33 1768.83 1544.94 Q1765.77 1549.52 1759.96 1549.52 Q1754.15 1549.52 1751.07 1544.94 Q1748.02 1540.33 1748.02 1531.6 Q1748.02 1522.85 1751.07 1518.27 Q1754.15 1513.66 1759.96 1513.66 Z" fill="#000000" fill-rule="evenodd" fill-opacity="1" /><path clip-path="url(#clip610)" d="M1780.12 1542.97 L1785.01 1542.97 L1785.01 1548.85 L1780.12 1548.85 L1780.12 1542.97 Z" fill="#000000" fill-rule="evenodd" fill-opacity="1" /><path clip-path="url(#clip610)" d="M1795.24 1514.29 L1813.6 1514.29 L1813.6 1518.22 L1799.52 1518.22 L1799.52 1526.7 Q1800.54 1526.35 1801.56 1526.19 Q1802.58 1526 1803.6 1526 Q1809.38 1526 1812.76 1529.17 Q1816.14 1532.34 1816.14 1537.76 Q1816.14 1543.34 1812.67 1546.44 Q1809.2 1549.52 1802.88 1549.52 Q1800.7 1549.52 1798.43 1549.15 Q1796.19 1548.78 1793.78 1548.04 L1793.78 1543.34 Q1795.86 1544.47 1798.09 1545.03 Q1800.31 1545.58 1802.79 1545.58 Q1806.79 1545.58 1809.13 1543.48 Q1811.47 1541.37 1811.47 1537.76 Q1811.47 1534.15 1809.13 1532.04 Q1806.79 1529.94 1802.79 1529.94 Q1800.91 1529.94 1799.04 1530.35 Q1797.18 1530.77 1795.24 1531.65 L1795.24 1514.29 Z" fill="#000000" fill-rule="evenodd" fill-opacity="1" /><path clip-path="url(#clip610)" d="M2258.76 1544.91 L2266.4 1544.91 L2266.4 1518.55 L2258.09 1520.21 L2258.09 1515.95 L2266.36 1514.29 L2271.03 1514.29 L2271.03 1544.91 L2278.67 1544.91 L2278.67 1548.85 L2258.76 1548.85 L2258.76 1544.91 Z" fill="#000000" fill-rule="evenodd" fill-opacity="1" /><path clip-path="url(#clip610)" d="M2288.12 1542.97 L2293 1542.97 L2293 1548.85 L2288.12 1548.85 L2288.12 1542.97 Z" fill="#000000" fill-rule="evenodd" fill-opacity="1" /><path clip-path="url(#clip610)" d="M2313.19 1517.37 Q2309.57 1517.37 2307.75 1520.93 Q2305.94 1524.47 2305.94 1531.6 Q2305.94 1538.71 2307.75 1542.27 Q2309.57 1545.82 2313.19 1545.82 Q2316.82 1545.82 2318.63 1542.27 Q2320.45 1538.71 2320.45 1531.6 Q2320.45 1524.47 2318.63 1520.93 Q2316.82 1517.37 2313.19 1517.37 M2313.19 1513.66 Q2319 1513.66 2322.05 1518.27 Q2325.13 1522.85 2325.13 1531.6 Q2325.13 1540.33 2322.05 1544.94 Q2319 1549.52 2313.19 1549.52 Q2307.38 1549.52 2304.3 1544.94 Q2301.24 1540.33 2301.24 1531.6 Q2301.24 1522.85 2304.3 1518.27 Q2307.38 1513.66 2313.19 1513.66 Z" fill="#000000" fill-rule="evenodd" fill-opacity="1" /><polyline clip-path="url(#clip612)" style="stroke:#000000; stroke-linecap:butt; stroke-linejoin:round; stroke-width:2; stroke-opacity:0.1; fill:none" points="
  192.339,1352.53 2352.76,1352.53 
  "/>
<polyline clip-path="url(#clip612)" style="stroke:#000000; stroke-linecap:butt; stroke-linejoin:round; stroke-width:2; stroke-opacity:0.1; fill:none" points="
  192.339,1158.59 2352.76,1158.59 
  "/>
<polyline clip-path="url(#clip612)" style="stroke:#000000; stroke-linecap:butt; stroke-linejoin:round; stroke-width:2; stroke-opacity:0.1; fill:none" points="
  192.339,964.645 2352.76,964.645 
  "/>
<polyline clip-path="url(#clip612)" style="stroke:#000000; stroke-linecap:butt; stroke-linejoin:round; stroke-width:2; stroke-opacity:0.1; fill:none" points="
  192.339,770.701 2352.76,770.701 
  "/>
<polyline clip-path="url(#clip612)" style="stroke:#000000; stroke-linecap:butt; stroke-linejoin:round; stroke-width:2; stroke-opacity:0.1; fill:none" points="
  192.339,576.756 2352.76,576.756 
  "/>
<polyline clip-path="url(#clip612)" style="stroke:#000000; stroke-linecap:butt; stroke-linejoin:round; stroke-width:2; stroke-opacity:0.1; fill:none" points="
  192.339,382.812 2352.76,382.812 
  "/>
<polyline clip-path="url(#clip612)" style="stroke:#000000; stroke-linecap:butt; stroke-linejoin:round; stroke-width:2; stroke-opacity:0.1; fill:none" points="
  192.339,188.867 2352.76,188.867 
  "/>
<polyline clip-path="url(#clip610)" style="stroke:#000000; stroke-linecap:butt; stroke-linejoin:round; stroke-width:4; stroke-opacity:1; fill:none" points="
  192.339,1486.45 192.339,123.472 
  "/>
<polyline clip-path="url(#clip610)" style="stroke:#000000; stroke-linecap:butt; stroke-linejoin:round; stroke-width:4; stroke-opacity:1; fill:none" points="
  192.339,1352.53 211.236,1352.53 
  "/>
<polyline clip-path="url(#clip610)" style="stroke:#000000; stroke-linecap:butt; stroke-linejoin:round; stroke-width:4; stroke-opacity:1; fill:none" points="
  192.339,1158.59 211.236,1158.59 
  "/>
<polyline clip-path="url(#clip610)" style="stroke:#000000; stroke-linecap:butt; stroke-linejoin:round; stroke-width:4; stroke-opacity:1; fill:none" points="
  192.339,964.645 211.236,964.645 
  "/>
<polyline clip-path="url(#clip610)" style="stroke:#000000; stroke-linecap:butt; stroke-linejoin:round; stroke-width:4; stroke-opacity:1; fill:none" points="
  192.339,770.701 211.236,770.701 
  "/>
<polyline clip-path="url(#clip610)" style="stroke:#000000; stroke-linecap:butt; stroke-linejoin:round; stroke-width:4; stroke-opacity:1; fill:none" points="
  192.339,576.756 211.236,576.756 
  "/>
<polyline clip-path="url(#clip610)" style="stroke:#000000; stroke-linecap:butt; stroke-linejoin:round; stroke-width:4; stroke-opacity:1; fill:none" points="
  192.339,382.812 211.236,382.812 
  "/>
<polyline clip-path="url(#clip610)" style="stroke:#000000; stroke-linecap:butt; stroke-linejoin:round; stroke-width:4; stroke-opacity:1; fill:none" points="
  192.339,188.867 211.236,188.867 
  "/>
<path clip-path="url(#clip610)" d="M50.9921 1352.99 L80.6679 1352.99 L80.6679 1356.92 L50.9921 1356.92 L50.9921 1352.99 Z" fill="#000000" fill-rule="evenodd" fill-opacity="1" /><path clip-path="url(#clip610)" d="M100.76 1338.33 Q97.1493 1338.33 95.3206 1341.9 Q93.515 1345.44 93.515 1352.57 Q93.515 1359.68 95.3206 1363.24 Q97.1493 1366.78 100.76 1366.78 Q104.395 1366.78 106.2 1363.24 Q108.029 1359.68 108.029 1352.57 Q108.029 1345.44 106.2 1341.9 Q104.395 1338.33 100.76 1338.33 M100.76 1334.63 Q106.571 1334.63 109.626 1339.24 Q112.705 1343.82 112.705 1352.57 Q112.705 1361.3 109.626 1365.9 Q106.571 1370.49 100.76 1370.49 Q94.9502 1370.49 91.8715 1365.9 Q88.816 1361.3 88.816 1352.57 Q88.816 1343.82 91.8715 1339.24 Q94.9502 1334.63 100.76 1334.63 Z" fill="#000000" fill-rule="evenodd" fill-opacity="1" /><path clip-path="url(#clip610)" d="M120.922 1363.93 L125.807 1363.93 L125.807 1369.81 L120.922 1369.81 L120.922 1363.93 Z" fill="#000000" fill-rule="evenodd" fill-opacity="1" /><path clip-path="url(#clip610)" d="M140.019 1365.88 L156.339 1365.88 L156.339 1369.81 L134.394 1369.81 L134.394 1365.88 Q137.056 1363.12 141.64 1358.49 Q146.246 1353.84 147.427 1352.5 Q149.672 1349.98 150.552 1348.24 Q151.455 1346.48 151.455 1344.79 Q151.455 1342.04 149.51 1340.3 Q147.589 1338.56 144.487 1338.56 Q142.288 1338.56 139.834 1339.33 Q137.404 1340.09 134.626 1341.64 L134.626 1336.92 Q137.45 1335.79 139.904 1335.21 Q142.357 1334.63 144.394 1334.63 Q149.765 1334.63 152.959 1337.31 Q156.154 1340 156.154 1344.49 Q156.154 1346.62 155.343 1348.54 Q154.556 1350.44 152.45 1353.03 Q151.871 1353.7 148.769 1356.92 Q145.668 1360.11 140.019 1365.88 Z" fill="#000000" fill-rule="evenodd" fill-opacity="1" /><path clip-path="url(#clip610)" d="M99.1632 1144.39 Q95.5521 1144.39 93.7234 1147.95 Q91.9178 1151.49 91.9178 1158.62 Q91.9178 1165.73 93.7234 1169.3 Q95.5521 1172.84 99.1632 1172.84 Q102.797 1172.84 104.603 1169.3 Q106.432 1165.73 106.432 1158.62 Q106.432 1151.49 104.603 1147.95 Q102.797 1144.39 99.1632 1144.39 M99.1632 1140.68 Q104.973 1140.68 108.029 1145.29 Q111.108 1149.87 111.108 1158.62 Q111.108 1167.35 108.029 1171.96 Q104.973 1176.54 99.1632 1176.54 Q93.353 1176.54 90.2743 1171.96 Q87.2188 1167.35 87.2188 1158.62 Q87.2188 1149.87 90.2743 1145.29 Q93.353 1140.68 99.1632 1140.68 Z" fill="#000000" fill-rule="evenodd" fill-opacity="1" /><path clip-path="url(#clip610)" d="M119.325 1169.99 L124.209 1169.99 L124.209 1175.87 L119.325 1175.87 L119.325 1169.99 Z" fill="#000000" fill-rule="evenodd" fill-opacity="1" /><path clip-path="url(#clip610)" d="M144.394 1144.39 Q140.783 1144.39 138.955 1147.95 Q137.149 1151.49 137.149 1158.62 Q137.149 1165.73 138.955 1169.3 Q140.783 1172.84 144.394 1172.84 Q148.029 1172.84 149.834 1169.3 Q151.663 1165.73 151.663 1158.62 Q151.663 1151.49 149.834 1147.95 Q148.029 1144.39 144.394 1144.39 M144.394 1140.68 Q150.205 1140.68 153.26 1145.29 Q156.339 1149.87 156.339 1158.62 Q156.339 1167.35 153.26 1171.96 Q150.205 1176.54 144.394 1176.54 Q138.584 1176.54 135.506 1171.96 Q132.45 1167.35 132.45 1158.62 Q132.45 1149.87 135.506 1145.29 Q138.584 1140.68 144.394 1140.68 Z" fill="#000000" fill-rule="evenodd" fill-opacity="1" /><path clip-path="url(#clip610)" d="M100.76 950.444 Q97.1493 950.444 95.3206 954.008 Q93.515 957.55 93.515 964.68 Q93.515 971.786 95.3206 975.351 Q97.1493 978.893 100.76 978.893 Q104.395 978.893 106.2 975.351 Q108.029 971.786 108.029 964.68 Q108.029 957.55 106.2 954.008 Q104.395 950.444 100.76 950.444 M100.76 946.74 Q106.571 946.74 109.626 951.346 Q112.705 955.93 112.705 964.68 Q112.705 973.407 109.626 978.013 Q106.571 982.596 100.76 982.596 Q94.9502 982.596 91.8715 978.013 Q88.816 973.407 88.816 964.68 Q88.816 955.93 91.8715 951.346 Q94.9502 946.74 100.76 946.74 Z" fill="#000000" fill-rule="evenodd" fill-opacity="1" /><path clip-path="url(#clip610)" d="M120.922 976.045 L125.807 976.045 L125.807 981.925 L120.922 981.925 L120.922 976.045 Z" fill="#000000" fill-rule="evenodd" fill-opacity="1" /><path clip-path="url(#clip610)" d="M140.019 977.99 L156.339 977.99 L156.339 981.925 L134.394 981.925 L134.394 977.99 Q137.056 975.235 141.64 970.606 Q146.246 965.953 147.427 964.61 Q149.672 962.087 150.552 960.351 Q151.455 958.592 151.455 956.902 Q151.455 954.147 149.51 952.411 Q147.589 950.675 144.487 950.675 Q142.288 950.675 139.834 951.439 Q137.404 952.203 134.626 953.754 L134.626 949.032 Q137.45 947.897 139.904 947.319 Q142.357 946.74 144.394 946.74 Q149.765 946.74 152.959 949.425 Q156.154 952.11 156.154 956.601 Q156.154 958.731 155.343 960.652 Q154.556 962.55 152.45 965.143 Q151.871 965.814 148.769 969.032 Q145.668 972.226 140.019 977.99 Z" fill="#000000" fill-rule="evenodd" fill-opacity="1" /><path clip-path="url(#clip610)" d="M98.6771 756.499 Q95.066 756.499 93.2373 760.064 Q91.4317 763.606 91.4317 770.735 Q91.4317 777.842 93.2373 781.406 Q95.066 784.948 98.6771 784.948 Q102.311 784.948 104.117 781.406 Q105.946 777.842 105.946 770.735 Q105.946 763.606 104.117 760.064 Q102.311 756.499 98.6771 756.499 M98.6771 752.796 Q104.487 752.796 107.543 757.402 Q110.621 761.985 110.621 770.735 Q110.621 779.462 107.543 784.069 Q104.487 788.652 98.6771 788.652 Q92.8669 788.652 89.7882 784.069 Q86.7327 779.462 86.7327 770.735 Q86.7327 761.985 89.7882 757.402 Q92.8669 752.796 98.6771 752.796 Z" fill="#000000" fill-rule="evenodd" fill-opacity="1" /><path clip-path="url(#clip610)" d="M118.839 782.101 L123.723 782.101 L123.723 787.981 L118.839 787.981 L118.839 782.101 Z" fill="#000000" fill-rule="evenodd" fill-opacity="1" /><path clip-path="url(#clip610)" d="M146.756 757.495 L134.95 775.944 L146.756 775.944 L146.756 757.495 M145.529 753.421 L151.408 753.421 L151.408 775.944 L156.339 775.944 L156.339 779.832 L151.408 779.832 L151.408 787.981 L146.756 787.981 L146.756 779.832 L131.154 779.832 L131.154 775.319 L145.529 753.421 Z" fill="#000000" fill-rule="evenodd" fill-opacity="1" /><path clip-path="url(#clip610)" d="M99.0011 562.555 Q95.39 562.555 93.5613 566.12 Q91.7558 569.661 91.7558 576.791 Q91.7558 583.897 93.5613 587.462 Q95.39 591.004 99.0011 591.004 Q102.635 591.004 104.441 587.462 Q106.27 583.897 106.27 576.791 Q106.27 569.661 104.441 566.12 Q102.635 562.555 99.0011 562.555 M99.0011 558.851 Q104.811 558.851 107.867 563.457 Q110.946 568.041 110.946 576.791 Q110.946 585.518 107.867 590.124 Q104.811 594.707 99.0011 594.707 Q93.191 594.707 90.1123 590.124 Q87.0567 585.518 87.0567 576.791 Q87.0567 568.041 90.1123 563.457 Q93.191 558.851 99.0011 558.851 Z" fill="#000000" fill-rule="evenodd" fill-opacity="1" /><path clip-path="url(#clip610)" d="M119.163 588.156 L124.047 588.156 L124.047 594.036 L119.163 594.036 L119.163 588.156 Z" fill="#000000" fill-rule="evenodd" fill-opacity="1" /><path clip-path="url(#clip610)" d="M144.811 574.893 Q141.663 574.893 139.811 577.045 Q137.982 579.198 137.982 582.948 Q137.982 586.675 139.811 588.851 Q141.663 591.004 144.811 591.004 Q147.959 591.004 149.788 588.851 Q151.64 586.675 151.64 582.948 Q151.64 579.198 149.788 577.045 Q147.959 574.893 144.811 574.893 M154.093 560.24 L154.093 564.499 Q152.334 563.666 150.529 563.226 Q148.746 562.786 146.987 562.786 Q142.357 562.786 139.904 565.911 Q137.473 569.036 137.126 575.356 Q138.492 573.342 140.552 572.277 Q142.612 571.189 145.089 571.189 Q150.297 571.189 153.306 574.36 Q156.339 577.508 156.339 582.948 Q156.339 588.272 153.191 591.49 Q150.043 594.707 144.811 594.707 Q138.816 594.707 135.644 590.124 Q132.473 585.518 132.473 576.791 Q132.473 568.596 136.362 563.735 Q140.251 558.851 146.802 558.851 Q148.561 558.851 150.343 559.198 Q152.149 559.545 154.093 560.24 Z" fill="#000000" fill-rule="evenodd" fill-opacity="1" /><path clip-path="url(#clip610)" d="M99.2558 368.61 Q95.6447 368.61 93.816 372.175 Q92.0104 375.717 92.0104 382.846 Q92.0104 389.953 93.816 393.517 Q95.6447 397.059 99.2558 397.059 Q102.89 397.059 104.696 393.517 Q106.524 389.953 106.524 382.846 Q106.524 375.717 104.696 372.175 Q102.89 368.61 99.2558 368.61 M99.2558 364.907 Q105.066 364.907 108.121 369.513 Q111.2 374.096 111.2 382.846 Q111.2 391.573 108.121 396.18 Q105.066 400.763 99.2558 400.763 Q93.4456 400.763 90.3669 396.18 Q87.3114 391.573 87.3114 382.846 Q87.3114 374.096 90.3669 369.513 Q93.4456 364.907 99.2558 364.907 Z" fill="#000000" fill-rule="evenodd" fill-opacity="1" /><path clip-path="url(#clip610)" d="M119.418 394.212 L124.302 394.212 L124.302 400.092 L119.418 400.092 L119.418 394.212 Z" fill="#000000" fill-rule="evenodd" fill-opacity="1" /><path clip-path="url(#clip610)" d="M144.487 383.68 Q141.154 383.68 139.232 385.462 Q137.334 387.244 137.334 390.369 Q137.334 393.494 139.232 395.277 Q141.154 397.059 144.487 397.059 Q147.82 397.059 149.742 395.277 Q151.663 393.471 151.663 390.369 Q151.663 387.244 149.742 385.462 Q147.843 383.68 144.487 383.68 M139.811 381.689 Q136.802 380.948 135.112 378.888 Q133.445 376.828 133.445 373.865 Q133.445 369.721 136.385 367.314 Q139.348 364.907 144.487 364.907 Q149.649 364.907 152.589 367.314 Q155.529 369.721 155.529 373.865 Q155.529 376.828 153.839 378.888 Q152.172 380.948 149.186 381.689 Q152.566 382.476 154.441 384.768 Q156.339 387.059 156.339 390.369 Q156.339 395.392 153.26 398.078 Q150.205 400.763 144.487 400.763 Q138.769 400.763 135.691 398.078 Q132.635 395.392 132.635 390.369 Q132.635 387.059 134.533 384.768 Q136.431 382.476 139.811 381.689 M138.098 374.305 Q138.098 376.99 139.765 378.494 Q141.455 379.999 144.487 379.999 Q147.496 379.999 149.186 378.494 Q150.899 376.99 150.899 374.305 Q150.899 371.619 149.186 370.115 Q147.496 368.61 144.487 368.61 Q141.455 368.61 139.765 370.115 Q138.098 371.619 138.098 374.305 Z" fill="#000000" fill-rule="evenodd" fill-opacity="1" /><path clip-path="url(#clip610)" d="M89.9734 202.212 L97.6122 202.212 L97.6122 175.846 L89.3021 177.513 L89.3021 173.254 L97.566 171.587 L102.242 171.587 L102.242 202.212 L109.881 202.212 L109.881 206.147 L89.9734 206.147 L89.9734 202.212 Z" fill="#000000" fill-rule="evenodd" fill-opacity="1" /><path clip-path="url(#clip610)" d="M119.325 200.267 L124.209 200.267 L124.209 206.147 L119.325 206.147 L119.325 200.267 Z" fill="#000000" fill-rule="evenodd" fill-opacity="1" /><path clip-path="url(#clip610)" d="M144.394 174.666 Q140.783 174.666 138.955 178.231 Q137.149 181.772 137.149 188.902 Q137.149 196.008 138.955 199.573 Q140.783 203.115 144.394 203.115 Q148.029 203.115 149.834 199.573 Q151.663 196.008 151.663 188.902 Q151.663 181.772 149.834 178.231 Q148.029 174.666 144.394 174.666 M144.394 170.962 Q150.205 170.962 153.26 175.569 Q156.339 180.152 156.339 188.902 Q156.339 197.629 153.26 202.235 Q150.205 206.818 144.394 206.818 Q138.584 206.818 135.506 202.235 Q132.45 197.629 132.45 188.902 Q132.45 180.152 135.506 175.569 Q138.584 170.962 144.394 170.962 Z" fill="#000000" fill-rule="evenodd" fill-opacity="1" /><path clip-path="url(#clip610)" d="M1118.43 16.7545 L1118.43 25.383 Q1114.3 21.5346 1109.6 19.6307 Q1104.94 17.7268 1099.68 17.7268 Q1089.3 17.7268 1083.8 24.0867 Q1078.29 30.4061 1078.29 42.3968 Q1078.29 54.3469 1083.8 60.7069 Q1089.3 67.0263 1099.68 67.0263 Q1104.94 67.0263 1109.6 65.1223 Q1114.3 63.2184 1118.43 59.3701 L1118.43 67.9175 Q1114.14 70.8341 1109.32 72.2924 Q1104.54 73.7508 1099.19 73.7508 Q1085.46 73.7508 1077.56 65.3654 Q1069.66 56.9395 1069.66 42.3968 Q1069.66 27.8135 1077.56 19.4281 Q1085.46 11.0023 1099.19 11.0023 Q1104.62 11.0023 1109.4 12.4606 Q1114.22 13.8784 1118.43 16.7545 Z" fill="#000000" fill-rule="evenodd" fill-opacity="1" /><path clip-path="url(#clip610)" d="M1148.33 32.4315 Q1142.33 32.4315 1138.85 37.1306 Q1135.36 41.7891 1135.36 49.9314 Q1135.36 58.0738 1138.81 62.7728 Q1142.29 67.4314 1148.33 67.4314 Q1154.28 67.4314 1157.76 62.7323 Q1161.25 58.0333 1161.25 49.9314 Q1161.25 41.8701 1157.76 37.1711 Q1154.28 32.4315 1148.33 32.4315 M1148.33 26.1121 Q1158.05 26.1121 1163.6 32.4315 Q1169.15 38.7509 1169.15 49.9314 Q1169.15 61.0714 1163.6 67.4314 Q1158.05 73.7508 1148.33 73.7508 Q1138.56 73.7508 1133.01 67.4314 Q1127.5 61.0714 1127.5 49.9314 Q1127.5 38.7509 1133.01 32.4315 Q1138.56 26.1121 1148.33 26.1121 Z" fill="#000000" fill-rule="evenodd" fill-opacity="1" /><path clip-path="url(#clip610)" d="M1210.43 28.5427 L1210.43 35.5912 Q1207.27 33.9709 1203.86 33.1607 Q1200.46 32.3505 1196.82 32.3505 Q1191.27 32.3505 1188.47 34.0519 Q1185.72 35.7533 1185.72 39.156 Q1185.72 41.7486 1187.7 43.2475 Q1189.69 44.7058 1195.68 46.0426 L1198.23 46.6097 Q1206.17 48.3111 1209.5 51.4303 Q1212.86 54.509 1212.86 60.0587 Q1212.86 66.3781 1207.83 70.0644 Q1202.85 73.7508 1194.1 73.7508 Q1190.46 73.7508 1186.49 73.0216 Q1182.56 72.3329 1178.18 70.9151 L1178.18 63.2184 Q1182.31 65.3654 1186.32 66.4591 Q1190.33 67.5124 1194.26 67.5124 Q1199.53 67.5124 1202.37 65.73 Q1205.2 63.9071 1205.2 60.6258 Q1205.2 57.5877 1203.14 55.9673 Q1201.11 54.3469 1194.18 52.8481 L1191.59 52.2405 Q1184.66 50.7821 1181.58 47.7845 Q1178.51 44.7463 1178.51 39.4801 Q1178.51 33.0797 1183.04 29.5959 Q1187.58 26.1121 1195.92 26.1121 Q1200.06 26.1121 1203.7 26.7198 Q1207.35 27.3274 1210.43 28.5427 Z" fill="#000000" fill-rule="evenodd" fill-opacity="1" /><path clip-path="url(#clip610)" d="M1253.73 44.2197 Q1256.36 45.1109 1258.84 48.0275 Q1261.35 50.9442 1263.86 56.0483 L1272.16 72.576 L1263.37 72.576 L1255.63 57.061 Q1252.64 50.9847 1249.8 48.9997 Q1247.01 47.0148 1242.15 47.0148 L1233.23 47.0148 L1233.23 72.576 L1225.05 72.576 L1225.05 12.096 L1243.52 12.096 Q1253.89 12.096 1259 16.4305 Q1264.1 20.7649 1264.1 29.5149 Q1264.1 35.2267 1261.43 38.994 Q1258.79 42.7613 1253.73 44.2197 M1233.23 18.8205 L1233.23 40.2903 L1243.52 40.2903 Q1249.44 40.2903 1252.43 37.5762 Q1255.47 34.8216 1255.47 29.5149 Q1255.47 24.2082 1252.43 21.5346 Q1249.44 18.8205 1243.52 18.8205 L1233.23 18.8205 Z" fill="#000000" fill-rule="evenodd" fill-opacity="1" /><path clip-path="url(#clip610)" d="M1301.17 49.7694 Q1292.13 49.7694 1288.65 51.8354 Q1285.17 53.9013 1285.17 58.8839 Q1285.17 62.8538 1287.76 65.2034 Q1290.39 67.5124 1294.89 67.5124 Q1301.09 67.5124 1304.81 63.1374 Q1308.58 58.7219 1308.58 51.4303 L1308.58 49.7694 L1301.17 49.7694 M1316.03 46.6907 L1316.03 72.576 L1308.58 72.576 L1308.58 65.6895 Q1306.03 69.8214 1302.22 71.8063 Q1298.41 73.7508 1292.9 73.7508 Q1285.94 73.7508 1281.8 69.8619 Q1277.71 65.9325 1277.71 59.3701 Q1277.71 51.7138 1282.82 47.825 Q1287.96 43.9361 1298.13 43.9361 L1308.58 43.9361 L1308.58 43.2069 Q1308.58 38.0623 1305.18 35.2672 Q1301.82 32.4315 1295.7 32.4315 Q1291.81 32.4315 1288.12 33.3632 Q1284.44 34.295 1281.03 36.1584 L1281.03 29.2718 Q1285.13 27.692 1288.97 26.9223 Q1292.82 26.1121 1296.47 26.1121 Q1306.31 26.1121 1311.17 31.2163 Q1316.03 36.3204 1316.03 46.6907 Z" fill="#000000" fill-rule="evenodd" fill-opacity="1" /><path clip-path="url(#clip610)" d="M1369.1 45.1919 L1369.1 72.576 L1361.65 72.576 L1361.65 45.4349 Q1361.65 38.994 1359.14 35.7938 Q1356.62 32.5936 1351.6 32.5936 Q1345.56 32.5936 1342.08 36.4419 Q1338.6 40.2903 1338.6 46.9338 L1338.6 72.576 L1331.1 72.576 L1331.1 27.2059 L1338.6 27.2059 L1338.6 34.2544 Q1341.27 30.163 1344.88 28.1376 Q1348.52 26.1121 1353.26 26.1121 Q1361.08 26.1121 1365.09 30.9732 Q1369.1 35.7938 1369.1 45.1919 Z" fill="#000000" fill-rule="evenodd" fill-opacity="1" /><path clip-path="url(#clip610)" d="M1413.82 49.3643 Q1413.82 41.2625 1410.46 36.8065 Q1407.14 32.3505 1401.1 32.3505 Q1395.11 32.3505 1391.75 36.8065 Q1388.42 41.2625 1388.42 49.3643 Q1388.42 57.4256 1391.75 61.8816 Q1395.11 66.3376 1401.1 66.3376 Q1407.14 66.3376 1410.46 61.8816 Q1413.82 57.4256 1413.82 49.3643 M1421.28 66.9452 Q1421.28 78.5308 1416.13 84.1616 Q1410.99 89.8329 1400.37 89.8329 Q1396.44 89.8329 1392.96 89.2252 Q1389.48 88.6581 1386.2 87.4428 L1386.2 80.1917 Q1389.48 81.9741 1392.68 82.8248 Q1395.88 83.6755 1399.2 83.6755 Q1406.53 83.6755 1410.18 79.8271 Q1413.82 76.0193 1413.82 68.282 L1413.82 64.5957 Q1411.51 68.6061 1407.91 70.5911 Q1404.3 72.576 1399.28 72.576 Q1390.94 72.576 1385.83 66.2161 Q1380.73 59.8562 1380.73 49.3643 Q1380.73 38.832 1385.83 32.472 Q1390.94 26.1121 1399.28 26.1121 Q1404.3 26.1121 1407.91 28.0971 Q1411.51 30.082 1413.82 34.0924 L1413.82 27.2059 L1421.28 27.2059 L1421.28 66.9452 Z" fill="#000000" fill-rule="evenodd" fill-opacity="1" /><path clip-path="url(#clip610)" d="M1475.44 48.0275 L1475.44 51.6733 L1441.17 51.6733 Q1441.65 59.3701 1445.78 63.421 Q1449.96 67.4314 1457.37 67.4314 Q1461.66 67.4314 1465.67 66.3781 Q1469.73 65.3249 1473.69 63.2184 L1473.69 70.267 Q1469.68 71.9684 1465.47 72.8596 Q1461.26 73.7508 1456.92 73.7508 Q1446.07 73.7508 1439.71 67.4314 Q1433.39 61.1119 1433.39 50.3365 Q1433.39 39.1965 1439.38 32.6746 Q1445.42 26.1121 1455.63 26.1121 Q1464.78 26.1121 1470.09 32.0264 Q1475.44 37.9003 1475.44 48.0275 M1467.98 45.84 Q1467.9 39.7232 1464.54 36.0774 Q1461.22 32.4315 1455.71 32.4315 Q1449.47 32.4315 1445.7 35.9558 Q1441.98 39.4801 1441.41 45.8805 L1467.98 45.84 Z" fill="#000000" fill-rule="evenodd" fill-opacity="1" /><circle clip-path="url(#clip612)" cx="253.483" cy="188.867" r="14.4" fill="#009af9" fill-rule="evenodd" fill-opacity="1" stroke="#000000" stroke-opacity="1" stroke-width="3.2"/>
<circle clip-path="url(#clip612)" cx="288.206" cy="188.867" r="14.4" fill="#009af9" fill-rule="evenodd" fill-opacity="1" stroke="#000000" stroke-opacity="1" stroke-width="3.2"/>
<circle clip-path="url(#clip612)" cx="390.011" cy="188.867" r="14.4" fill="#009af9" fill-rule="evenodd" fill-opacity="1" stroke="#000000" stroke-opacity="1" stroke-width="3.2"/>
<circle clip-path="url(#clip612)" cx="551.96" cy="188.867" r="14.4" fill="#009af9" fill-rule="evenodd" fill-opacity="1" stroke="#000000" stroke-opacity="1" stroke-width="3.2"/>
<circle clip-path="url(#clip612)" cx="763.015" cy="188.867" r="14.4" fill="#009af9" fill-rule="evenodd" fill-opacity="1" stroke="#000000" stroke-opacity="1" stroke-width="3.2"/>
<circle clip-path="url(#clip612)" cx="1008.79" cy="188.867" r="14.4" fill="#009af9" fill-rule="evenodd" fill-opacity="1" stroke="#000000" stroke-opacity="1" stroke-width="3.2"/>
<circle clip-path="url(#clip612)" cx="1272.55" cy="188.867" r="14.4" fill="#009af9" fill-rule="evenodd" fill-opacity="1" stroke="#000000" stroke-opacity="1" stroke-width="3.2"/>
<circle clip-path="url(#clip612)" cx="1536.3" cy="188.867" r="14.4" fill="#009af9" fill-rule="evenodd" fill-opacity="1" stroke="#000000" stroke-opacity="1" stroke-width="3.2"/>
<circle clip-path="url(#clip612)" cx="1782.08" cy="188.867" r="14.4" fill="#009af9" fill-rule="evenodd" fill-opacity="1" stroke="#000000" stroke-opacity="1" stroke-width="3.2"/>
<circle clip-path="url(#clip612)" cx="1993.13" cy="188.867" r="14.4" fill="#009af9" fill-rule="evenodd" fill-opacity="1" stroke="#000000" stroke-opacity="1" stroke-width="3.2"/>
<circle clip-path="url(#clip612)" cx="2155.08" cy="188.867" r="14.4" fill="#009af9" fill-rule="evenodd" fill-opacity="1" stroke="#000000" stroke-opacity="1" stroke-width="3.2"/>
<circle clip-path="url(#clip612)" cx="2256.89" cy="188.867" r="14.4" fill="#009af9" fill-rule="evenodd" fill-opacity="1" stroke="#000000" stroke-opacity="1" stroke-width="3.2"/>
<circle clip-path="url(#clip612)" cx="2291.61" cy="188.867" r="14.4" fill="#009af9" fill-rule="evenodd" fill-opacity="1" stroke="#000000" stroke-opacity="1" stroke-width="3.2"/>
<polyline clip-path="url(#clip612)" style="stroke:#e26f46; stroke-linecap:butt; stroke-linejoin:round; stroke-width:12; stroke-opacity:1; fill:none" points="
  253.483,188.867 263.725,594.981 273.966,890.714 284.208,1097.75 294.45,1234.53 304.692,1316.61 314.934,1357.02 325.176,1366.62 335.418,1354.29 345.659,1327.27 
  355.901,1291.37 366.143,1251.14 376.385,1210.09 386.627,1170.83 396.869,1135.24 407.111,1104.57 417.352,1079.56 427.594,1060.55 437.836,1047.55 448.078,1040.33 
  458.32,1038.47 468.562,1041.39 478.803,1048.47 489.045,1059 499.287,1072.27 509.529,1087.57 519.771,1104.22 530.013,1121.59 540.255,1139.09 550.496,1156.2 
  560.738,1172.48 570.98,1187.53 581.222,1201.04 591.464,1212.78 601.706,1222.58 611.948,1230.31 622.189,1235.94 632.431,1239.46 642.673,1240.92 652.915,1240.42 
  663.157,1238.09 673.399,1234.08 683.641,1228.58 693.882,1221.78 704.124,1213.9 714.366,1205.17 724.608,1195.79 734.85,1185.99 745.092,1175.98 755.334,1165.98 
  765.575,1156.16 775.817,1146.72 786.059,1137.8 796.301,1129.55 806.543,1122.09 816.785,1115.52 827.027,1109.93 837.268,1105.37 847.51,1101.87 857.752,1099.47 
  867.994,1098.16 878.236,1097.91 888.478,1098.7 898.72,1100.47 908.961,1103.16 919.203,1106.69 929.445,1110.98 939.687,1115.93 949.929,1121.45 960.171,1127.41 
  970.413,1133.72 980.654,1140.27 990.896,1146.94 1001.14,1153.64 1011.38,1160.24 1021.62,1166.67 1031.86,1172.81 1042.11,1178.6 1052.35,1183.94 1062.59,1188.78 
  1072.83,1193.05 1083.07,1196.71 1093.31,1199.72 1103.56,1202.04 1113.8,1203.67 1124.04,1204.59 1134.28,1204.81 1144.52,1204.35 1154.77,1203.23 1165.01,1201.48 
  1175.25,1199.13 1185.49,1196.24 1195.73,1192.87 1205.98,1189.06 1216.22,1184.9 1226.46,1180.43 1236.7,1175.74 1246.94,1170.89 1257.18,1165.97 1267.43,1161.04 
  1277.67,1156.17 1287.91,1151.43 1298.15,1146.89 1308.39,1142.61 1318.64,1138.64 1328.88,1135.04 1339.12,1131.85 1349.36,1129.12 1359.6,1126.86 1369.84,1125.12 
  1380.09,1123.89 1390.33,1123.2 1400.57,1123.04 1410.81,1123.41 1421.05,1124.29 1431.3,1125.66 1441.54,1127.5 1451.78,1129.77 1462.02,1132.42 1472.26,1135.42 
  1482.51,1138.71 1492.75,1142.25 1502.99,1145.96 1513.23,1149.8 1523.47,1153.7 1533.71,1157.61 1543.96,1161.46 1554.2,1165.19 1564.44,1168.75 1574.68,1172.08 
  1584.92,1175.14 1595.17,1177.87 1605.41,1180.24 1615.65,1182.21 1625.89,1183.76 1636.13,1184.87 1646.38,1185.51 1656.62,1185.69 1666.86,1185.41 1677.1,1184.68 
  1687.34,1183.5 1697.58,1181.92 1707.83,1179.95 1718.07,1177.65 1728.31,1175.04 1738.55,1172.18 1748.79,1169.13 1759.04,1165.94 1769.28,1162.68 1779.52,1159.4 
  1789.76,1156.18 1800,1153.06 1810.24,1150.12 1820.49,1147.41 1830.73,1144.98 1840.97,1142.89 1851.21,1141.17 1861.45,1139.87 1871.7,1139 1881.94,1138.59 
  1892.18,1138.64 1902.42,1139.16 1912.66,1140.12 1922.91,1141.51 1933.15,1143.28 1943.39,1145.4 1953.63,1147.82 1963.87,1150.45 1974.11,1153.25 1984.36,1156.12 
  1994.6,1159 2004.84,1161.78 2015.08,1164.4 2025.32,1166.76 2035.57,1168.79 2045.81,1170.43 2056.05,1171.6 2066.29,1172.28 2076.53,1172.42 2086.77,1172.01 
  2097.02,1171.07 2107.26,1169.63 2117.5,1167.75 2127.74,1165.5 2137.98,1162.99 2148.23,1160.36 2158.47,1157.73 2168.71,1155.28 2178.95,1153.17 2189.19,1151.56 
  2199.44,1150.6 2209.68,1150.39 2219.92,1151.01 2230.16,1152.42 2240.4,1154.52 2250.64,1157.03 2260.89,1159.52 2271.13,1161.31 2281.37,1161.44 2291.61,1158.59 
  
  "/>
<polyline clip-path="url(#clip612)" style="stroke:#3da44d; stroke-linecap:butt; stroke-linejoin:round; stroke-width:12; stroke-opacity:1; fill:none" points="
  253.483,1158.59 263.725,687.026 273.966,387.936 284.208,223.544 294.45,162.047 304.692,176.89 314.934,246.112 325.176,351.754 335.418,479.324 345.659,617.321 
  355.901,756.806 366.143,891.018 376.385,1015.03 386.627,1125.47 396.869,1220.22 407.111,1298.19 417.352,1359.16 427.594,1403.52 437.836,1432.2 448.078,1446.47 
  458.32,1447.87 468.562,1438.11 478.803,1418.95 489.045,1392.21 499.287,1359.64 509.529,1322.92 519.771,1283.63 530.013,1243.22 540.255,1202.96 550.496,1163.99 
  560.738,1127.28 570.98,1093.61 581.222,1063.62 591.464,1037.79 601.706,1016.44 611.948,999.754 622.189,987.804 632.431,980.533 642.673,977.79 652.915,979.337 
  663.157,984.862 673.399,993.995 683.641,1006.32 693.882,1021.39 704.124,1038.72 714.366,1057.85 724.608,1078.28 734.85,1099.53 745.092,1121.16 755.334,1142.71 
  765.575,1163.79 775.817,1184.03 786.059,1203.07 796.301,1220.64 806.543,1236.48 816.785,1250.38 827.027,1262.18 837.268,1271.77 847.51,1279.06 857.752,1284.04 
  867.994,1286.7 878.236,1287.09 888.478,1285.3 898.72,1281.44 908.961,1275.65 919.203,1268.1 929.445,1258.96 939.687,1248.45 949.929,1236.77 960.171,1224.17 
  970.413,1210.85 980.654,1197.06 990.896,1183.03 1001.14,1168.98 1011.38,1155.12 1021.62,1141.67 1031.86,1128.81 1042.11,1116.73 1052.35,1105.58 1062.59,1095.5 
  1072.83,1086.61 1083.07,1079.02 1093.31,1072.79 1103.56,1067.99 1113.8,1064.64 1124.04,1062.76 1134.28,1062.34 1144.52,1063.35 1154.77,1065.73 1165.01,1069.42 
  1175.25,1074.33 1185.49,1080.37 1195.73,1087.41 1205.98,1095.34 1216.22,1104.01 1226.46,1113.29 1236.7,1123.03 1246.94,1133.09 1257.18,1143.3 1267.43,1153.52 
  1277.67,1163.61 1287.91,1173.41 1298.15,1182.8 1308.39,1191.65 1318.64,1199.83 1328.88,1207.26 1339.12,1213.83 1349.36,1219.46 1359.6,1224.1 1369.84,1227.69 
  1380.09,1230.19 1390.33,1231.6 1400.57,1231.91 1410.81,1231.13 1421.05,1229.29 1431.3,1226.44 1441.54,1222.64 1451.78,1217.96 1462.02,1212.47 1472.26,1206.29 
  1482.51,1199.5 1492.75,1192.22 1502.99,1184.57 1513.23,1176.67 1523.47,1168.64 1533.71,1160.6 1543.96,1152.69 1554.2,1145.02 1564.44,1137.72 1574.68,1130.88 
  1584.92,1124.61 1595.17,1119 1605.41,1114.15 1615.65,1110.1 1625.89,1106.93 1636.13,1104.68 1646.38,1103.37 1656.62,1103 1666.86,1103.59 1677.1,1105.11 
  1687.34,1107.52 1697.58,1110.78 1707.83,1114.82 1718.07,1119.55 1728.31,1124.9 1738.55,1130.75 1748.79,1137 1759.04,1143.53 1769.28,1150.22 1779.52,1156.92 
  1789.76,1163.53 1800,1169.9 1810.24,1175.92 1820.49,1181.46 1830.73,1186.42 1840.97,1190.7 1851.21,1194.2 1861.45,1196.86 1871.7,1198.63 1881.94,1199.46 
  1892.18,1199.35 1902.42,1198.29 1912.66,1196.32 1922.91,1193.48 1933.15,1189.85 1943.39,1185.51 1953.63,1180.59 1963.87,1175.2 1974.11,1169.49 1984.36,1163.62 
  1994.6,1157.76 2004.84,1152.07 2015.08,1146.74 2025.32,1141.92 2035.57,1137.78 2045.81,1134.44 2056.05,1132.05 2066.29,1130.68 2076.53,1130.4 2086.77,1131.23 
  2097.02,1133.15 2107.26,1136.08 2117.5,1139.93 2127.74,1144.51 2137.98,1149.62 2148.23,1154.99 2158.47,1160.33 2168.71,1165.32 2178.95,1169.62 2189.19,1172.9 
  2199.44,1174.86 2209.68,1175.28 2219.92,1174.03 2230.16,1171.15 2240.4,1166.88 2250.64,1161.76 2260.89,1156.69 2271.13,1153.06 2281.37,1152.8 2291.61,1158.59 
  
  "/>
<polyline clip-path="url(#clip612)" style="stroke:#c271d2; stroke-linecap:butt; stroke-linejoin:round; stroke-width:12; stroke-opacity:1; fill:none" points="
  253.483,1158.59 263.725,1250.01 273.966,1253.16 284.208,1193.92 294.45,1093.48 304.692,968.905 314.934,833.751 325.176,698.534 335.418,571.183 345.659,457.44 
  355.901,361.215 366.143,284.896 376.385,229.629 386.627,195.558 396.869,182.039 407.111,187.821 417.352,211.206 427.594,250.184 437.836,302.546 448.078,365.984 
  458.32,438.165 468.562,516.803 478.803,599.705 489.045,684.815 499.287,770.242 509.529,854.284 519.771,935.442 530.013,1012.42 540.255,1084.15 550.496,1149.76 
  560.738,1208.57 570.98,1260.12 581.222,1304.12 591.464,1340.44 601.706,1369.11 611.948,1390.28 622.189,1404.26 632.431,1411.42 642.673,1412.24 652.915,1407.25 
  663.157,1397.07 673.399,1382.31 683.641,1363.65 693.882,1341.76 704.124,1317.3 714.366,1290.95 724.608,1263.34 734.85,1235.08 745.092,1206.75 755.334,1178.89 
  765.575,1151.97 775.817,1126.44 786.059,1102.67 796.301,1080.99 806.543,1061.66 816.785,1044.9 827.027,1030.87 837.268,1019.65 847.51,1011.31 857.752,1005.84 
  867.994,1003.2 878.236,1003.29 888.478,1006 898.72,1011.15 908.961,1018.56 919.203,1028.02 929.445,1039.28 939.687,1052.09 949.929,1066.19 960.171,1081.3 
  970.413,1097.16 980.654,1113.49 990.896,1130.01 1001.14,1146.47 1011.38,1162.63 1021.62,1178.24 1031.86,1193.09 1042.11,1206.99 1052.35,1219.75 1062.59,1231.23 
  1072.83,1241.3 1083.07,1249.85 1093.31,1256.81 1103.56,1262.12 1113.8,1265.75 1124.04,1267.7 1134.28,1268 1144.52,1266.68 1154.77,1263.81 1165.01,1259.47 
  1175.25,1253.77 1185.49,1246.82 1195.73,1238.76 1205.98,1229.74 1216.22,1219.89 1226.46,1209.4 1236.7,1198.42 1246.94,1187.12 1257.18,1175.67 1267.43,1164.25 
  1277.67,1153 1287.91,1142.09 1298.15,1131.67 1308.39,1121.87 1318.64,1112.82 1328.88,1104.64 1339.12,1097.42 1349.36,1091.25 1359.6,1086.2 1369.84,1082.31 
  1380.09,1079.62 1390.33,1078.15 1400.57,1077.89 1410.81,1078.82 1421.05,1080.91 1431.3,1084.1 1441.54,1088.34 1451.78,1093.53 1462.02,1099.59 1472.26,1106.41 
  1482.51,1113.87 1492.75,1121.85 1502.99,1130.23 1513.23,1138.87 1523.47,1147.64 1533.71,1156.4 1543.96,1165.01 1554.2,1173.34 1564.44,1181.27 1574.68,1188.69 
  1584.92,1195.47 1595.17,1201.52 1605.41,1206.76 1615.65,1211.1 1625.89,1214.5 1636.13,1216.9 1646.38,1218.29 1656.62,1218.64 1666.86,1217.97 1677.1,1216.3 
  1687.34,1213.66 1697.58,1210.12 1707.83,1205.74 1718.07,1200.62 1728.31,1194.84 1738.55,1188.53 1748.79,1181.79 1759.04,1174.77 1769.28,1167.58 1779.52,1160.38 
  1789.76,1153.29 1800,1146.46 1810.24,1140.02 1820.49,1134.09 1830.73,1128.79 1840.97,1124.23 1851.21,1120.5 1861.45,1117.67 1871.7,1115.8 1881.94,1114.93 
  1892.18,1115.07 1902.42,1116.22 1912.66,1118.34 1922.91,1121.38 1933.15,1125.27 1943.39,1129.9 1953.63,1135.16 1963.87,1140.91 1974.11,1146.99 1984.36,1153.24 
  1994.6,1159.47 2004.84,1165.52 2015.08,1171.18 2025.32,1176.3 2035.57,1180.69 2045.81,1184.22 2056.05,1186.75 2066.29,1188.19 2076.53,1188.48 2086.77,1187.59 
  2097.02,1185.55 2107.26,1182.43 2117.5,1178.35 2127.74,1173.5 2137.98,1168.09 2148.23,1162.4 2158.47,1156.75 2168.71,1151.47 2178.95,1146.93 2189.19,1143.47 
  2199.44,1141.4 2209.68,1140.97 2219.92,1142.29 2230.16,1145.34 2240.4,1149.84 2250.64,1155.25 2260.89,1160.59 2271.13,1164.42 2281.37,1164.69 2291.61,1158.59 
  
  "/>
<polyline clip-path="url(#clip612)" style="stroke:#ac8d18; stroke-linecap:butt; stroke-linejoin:round; stroke-width:12; stroke-opacity:1; fill:none" points="
  253.483,1158.59 263.725,1118.54 273.966,1119.11 284.208,1144.63 294.45,1182.75 304.692,1224.04 314.934,1261.48 325.176,1290.12 335.418,1306.68 345.659,1309.33 
  355.901,1297.32 366.143,1270.82 376.385,1230.69 386.627,1178.3 396.869,1115.41 407.111,1043.99 417.352,966.161 427.594,884.073 437.836,799.856 448.078,715.549 
  458.32,633.056 468.562,554.11 478.803,480.254 489.045,412.818 499.287,352.914 509.529,301.431 519.771,259.038 530.013,226.19 540.255,203.141 550.496,189.951 
  560.738,186.508 570.98,192.538 581.222,207.628 591.464,231.242 601.706,262.738 611.948,301.391 622.189,346.405 632.431,396.937 642.673,452.109 652.915,511.026 
  663.157,572.789 673.399,636.511 683.641,701.327 693.882,766.404 704.124,830.954 714.366,894.24 724.608,955.582 734.85,1014.36 745.092,1070.04 755.334,1122.12 
  765.575,1170.22 775.817,1214 786.059,1253.19 796.301,1287.62 806.543,1317.17 816.785,1341.8 827.027,1361.51 837.268,1376.39 847.51,1386.57 857.752,1392.24 
  867.994,1393.61 878.236,1390.97 888.478,1384.62 898.72,1374.89 908.961,1362.14 919.203,1346.74 929.445,1329.09 939.687,1309.57 949.929,1288.59 960.171,1266.54 
  970.413,1243.79 980.654,1220.73 990.896,1197.72 1001.14,1175.08 1011.38,1153.13 1021.62,1132.17 1031.86,1112.45 1042.11,1094.2 1052.35,1077.63 1062.59,1062.91 
  1072.83,1050.16 1083.07,1039.5 1093.31,1030.99 1103.56,1024.67 1113.8,1020.54 1124.04,1018.59 1134.28,1018.75 1144.52,1020.96 1154.77,1025.1 1165.01,1031.06 
  1175.25,1038.68 1185.49,1047.8 1195.73,1058.25 1205.98,1069.83 1216.22,1082.34 1226.46,1095.58 1236.7,1109.34 1246.94,1123.41 1257.18,1137.58 1267.43,1151.65 
  1277.67,1165.43 1287.91,1178.72 1298.15,1191.36 1308.39,1203.17 1318.64,1214.02 1328.88,1223.78 1339.12,1232.34 1349.36,1239.6 1359.6,1245.49 1369.84,1249.97 
  1380.09,1253 1390.33,1254.57 1400.57,1254.69 1410.81,1253.4 1421.05,1250.75 1431.3,1246.79 1441.54,1241.63 1451.78,1235.36 1462.02,1228.09 1472.26,1219.96 
  1482.51,1211.09 1492.75,1201.65 1502.99,1191.77 1513.23,1181.63 1523.47,1171.36 1533.71,1161.14 1543.96,1151.12 1554.2,1141.45 1564.44,1132.28 1574.68,1123.73 
  1584.92,1115.93 1595.17,1109 1605.41,1103.02 1615.65,1098.08 1625.89,1094.25 1636.13,1091.56 1646.38,1090.06 1656.62,1089.73 1666.86,1090.58 1677.1,1092.58 
  1687.34,1095.66 1697.58,1099.77 1707.83,1104.83 1718.07,1110.72 1728.31,1117.34 1738.55,1124.57 1748.79,1132.25 1759.04,1140.24 1769.28,1148.4 1779.52,1156.57 
  1789.76,1164.58 1800,1172.29 1810.24,1179.55 1820.49,1186.22 1830.73,1192.16 1840.97,1197.27 1851.21,1201.43 1861.45,1204.57 1871.7,1206.63 1881.94,1207.57 
  1892.18,1207.37 1902.42,1206.05 1912.66,1203.63 1922.91,1200.2 1933.15,1195.82 1943.39,1190.62 1953.63,1184.73 1963.87,1178.3 1974.11,1171.51 1984.36,1164.55 
  1994.6,1157.61 2004.84,1150.89 2015.08,1144.6 2025.32,1138.94 2035.57,1134.07 2045.81,1130.18 2056.05,1127.39 2066.29,1125.82 2076.53,1125.52 2086.77,1126.53 
  2097.02,1128.8 2107.26,1132.27 2117.5,1136.78 2127.74,1142.15 2137.98,1148.12 2148.23,1154.39 2158.47,1160.62 2168.71,1166.42 2178.95,1171.41 2189.19,1175.2 
  2199.44,1177.47 2209.68,1177.93 2219.92,1176.47 2230.16,1173.12 2240.4,1168.17 2250.64,1162.25 2260.89,1156.4 2271.13,1152.21 2281.37,1151.91 2291.61,1158.59 
  
  "/>
<polyline clip-path="url(#clip612)" style="stroke:#00a9ad; stroke-linecap:butt; stroke-linejoin:round; stroke-width:12; stroke-opacity:1; fill:none" points="
  253.483,1158.59 263.725,1181.71 273.966,1181.03 284.208,1166.4 294.45,1145.31 304.692,1123.28 314.934,1104.16 325.176,1090.46 335.418,1083.59 345.659,1084.08 
  355.901,1091.78 366.143,1106.04 376.385,1125.85 386.627,1149.93 396.869,1176.88 407.111,1205.23 417.352,1233.52 427.594,1260.37 437.836,1284.49 448.078,1304.73 
  458.32,1320.1 468.562,1329.8 478.803,1333.19 489.045,1329.85 499.287,1319.5 509.529,1302.07 519.771,1277.63 530.013,1246.41 540.255,1208.79 550.496,1165.26 
  560.738,1116.4 570.98,1062.91 581.222,1005.52 591.464,945.044 601.706,882.319 611.948,818.202 622.189,753.553 632.431,689.225 642.673,626.046 652.915,564.811 
  663.157,506.271 673.399,451.121 683.641,399.998 693.882,353.469 704.124,312.03 714.366,276.1 724.608,246.021 734.85,222.055 745.092,204.382 755.334,193.107 
  765.575,188.255 775.817,189.777 786.059,197.554 796.301,211.401 806.543,231.069 816.785,256.255 827.027,286.602 837.268,321.712 847.51,361.145 857.752,404.429 
  867.994,451.068 878.236,500.546 888.478,552.333 898.72,605.893 908.961,660.689 919.203,716.19 929.445,771.874 939.687,827.237 949.929,881.794 960.171,935.085 
  970.413,986.681 980.654,1036.18 990.896,1083.23 1001.14,1127.49 1011.38,1168.69 1021.62,1206.58 1031.86,1240.96 1042.11,1271.67 1052.35,1298.6 1062.59,1321.68 
  1072.83,1340.88 1083.07,1356.21 1093.31,1367.73 1103.56,1375.51 1113.8,1379.7 1124.04,1380.44 1134.28,1377.92 1144.52,1372.36 1154.77,1363.99 1165.01,1353.08 
  1175.25,1339.89 1185.49,1324.72 1195.73,1307.87 1205.98,1289.65 1216.22,1270.35 1226.46,1250.3 1236.7,1229.78 1246.94,1209.11 1257.18,1188.57 1267.43,1168.43 
  1277.67,1148.95 1287.91,1130.36 1298.15,1112.9 1308.39,1096.75 1318.64,1082.1 1328.88,1069.08 1339.12,1057.82 1349.36,1048.42 1359.6,1040.94 1369.84,1035.43 
  1380.09,1031.89 1390.33,1030.32 1400.57,1030.67 1410.81,1032.89 1421.05,1036.87 1431.3,1042.53 1441.54,1049.72 1451.78,1058.3 1462.02,1068.1 1472.26,1078.96 
  1482.51,1090.68 1492.75,1103.08 1502.99,1115.94 1513.23,1129.07 1523.47,1142.27 1533.71,1155.34 1543.96,1168.07 1554.2,1180.3 1564.44,1191.83 1574.68,1202.52 
  1584.92,1212.2 1595.17,1220.76 1605.41,1228.08 1615.65,1234.07 1625.89,1238.67 1636.13,1241.82 1646.38,1243.5 1656.62,1243.71 1666.86,1242.48 1677.1,1239.85 
  1687.34,1235.89 1697.58,1230.69 1707.83,1224.36 1718.07,1217.03 1728.31,1208.85 1738.55,1199.97 1748.79,1190.57 1759.04,1180.82 1769.28,1170.92 1779.52,1161.03 
  1789.76,1151.37 1800,1142.1 1810.24,1133.4 1820.49,1125.45 1830.73,1118.38 1840.97,1112.34 1851.21,1107.44 1861.45,1103.77 1871.7,1101.4 1881.94,1100.37 
  1892.18,1100.69 1902.42,1102.34 1912.66,1105.28 1922.91,1109.41 1933.15,1114.64 1943.39,1120.83 1953.63,1127.82 1963.87,1135.42 1974.11,1143.42 1984.36,1151.6 
  1994.6,1159.74 2004.84,1167.6 2015.08,1174.93 2025.32,1181.53 2035.57,1187.17 2045.81,1191.67 2056.05,1194.88 2066.29,1196.67 2076.53,1196.97 2086.77,1195.76 
  2097.02,1193.09 2107.26,1189.05 2117.5,1183.79 2127.74,1177.57 2137.98,1170.66 2148.23,1163.42 2158.47,1156.25 2168.71,1149.58 2178.95,1143.86 2189.19,1139.52 
  2199.44,1136.94 2209.68,1136.42 2219.92,1138.12 2230.16,1141.97 2240.4,1147.64 2250.64,1154.41 2260.89,1161.09 2271.13,1165.87 2281.37,1166.19 2291.61,1158.59 
  
  "/>
<polyline clip-path="url(#clip612)" style="stroke:#ed5d92; stroke-linecap:butt; stroke-linejoin:round; stroke-width:12; stroke-opacity:1; fill:none" points="
  253.483,1158.59 263.725,1143.09 273.966,1143.66 284.208,1153.43 294.45,1167.3 304.692,1181.57 314.934,1193.74 325.176,1202.22 335.418,1206.21 345.659,1205.48 
  355.901,1200.25 366.143,1191.04 376.385,1178.61 386.627,1163.83 396.869,1147.65 407.111,1131 417.352,1114.79 427.594,1099.85 437.836,1086.89 448.078,1076.51 
  458.32,1069.19 468.562,1065.27 478.803,1064.96 489.045,1068.32 499.287,1075.3 509.529,1085.74 519.771,1099.38 530.013,1115.85 540.255,1134.72 550.496,1155.5 
  560.738,1177.64 570.98,1200.56 581.222,1223.67 591.464,1246.37 601.706,1268.06 611.948,1288.16 622.189,1306.13 632.431,1321.44 642.673,1333.63 652.915,1342.29 
  663.157,1347.05 673.399,1347.62 683.641,1343.77 693.882,1335.34 704.124,1322.22 714.366,1304.4 724.608,1281.92 734.85,1254.88 745.092,1223.44 755.334,1187.85 
  765.575,1148.37 775.817,1105.35 786.059,1059.16 796.301,1010.22 806.543,958.971 816.785,905.902 827.027,851.509 837.268,796.305 847.51,740.814 857.752,685.561 
  867.994,631.069 878.236,577.849 888.478,526.401 898.72,477.201 908.961,430.703 919.203,387.33 929.445,347.474 939.687,311.487 949.929,279.683 960.171,252.334 
  970.413,229.665 980.654,211.857 990.896,199.043 1001.14,191.308 1011.38,188.689 1021.62,191.175 1031.86,198.711 1042.11,211.192 1052.35,228.475 1062.59,250.37 
  1072.83,276.653 1083.07,307.061 1093.31,341.299 1103.56,379.041 1113.8,419.937 1124.04,463.614 1134.28,509.679 1144.52,557.728 1154.77,607.345 1165.01,658.106 
  1175.25,709.589 1185.49,761.37 1195.73,813.034 1205.98,864.175 1216.22,914.4 1226.46,963.333 1236.7,1010.62 1246.94,1055.92 1257.18,1098.94 1267.43,1139.4 
  1277.67,1177.05 1287.91,1211.67 1298.15,1243.09 1308.39,1271.15 1318.64,1295.76 1328.88,1316.83 1339.12,1334.33 1349.36,1348.27 1359.6,1358.66 1369.84,1365.59 
  1380.09,1369.16 1390.33,1369.49 1400.57,1366.76 1410.81,1361.14 1421.05,1352.87 1431.3,1342.17 1441.54,1329.3 1451.78,1314.53 1462.02,1298.15 1472.26,1280.45 
  1482.51,1261.73 1492.75,1242.3 1502.99,1222.45 1513.23,1202.49 1523.47,1182.7 1533.71,1163.37 1543.96,1144.75 1554.2,1127.1 1564.44,1110.64 1574.68,1095.59 
  1584.92,1082.1 1595.17,1070.36 1605.41,1060.47 1615.65,1052.53 1625.89,1046.62 1636.13,1042.76 1646.38,1040.95 1656.62,1041.18 1666.86,1043.37 1677.1,1047.45 
  1687.34,1053.3 1697.58,1060.77 1707.83,1069.69 1718.07,1079.89 1728.31,1091.16 1738.55,1103.27 1748.79,1115.98 1759.04,1129.07 1769.28,1142.28 1779.52,1155.37 
  1789.76,1168.09 1800,1180.21 1810.24,1191.5 1820.49,1201.77 1830.73,1210.82 1840.97,1218.5 1851.21,1224.66 1861.45,1229.21 1871.7,1232.06 1881.94,1233.19 
  1892.18,1232.59 1902.42,1230.31 1912.66,1226.4 1922.91,1220.99 1933.15,1214.22 1943.39,1206.27 1953.63,1197.36 1963.87,1187.73 1974.11,1177.62 1984.36,1167.34 
  1994.6,1157.15 2004.84,1147.36 2015.08,1138.25 2025.32,1130.1 2035.57,1123.17 2045.81,1117.67 2056.05,1113.79 2066.29,1111.66 2076.53,1111.38 2086.77,1112.94 
  2097.02,1116.3 2107.26,1121.32 2117.5,1127.8 2127.74,1135.44 2137.98,1143.89 2148.23,1152.71 2158.47,1161.42 2168.71,1169.5 2178.95,1176.41 2189.19,1181.63 
  2199.44,1184.71 2209.68,1185.29 2219.92,1183.22 2230.16,1178.56 2240.4,1171.73 2250.64,1163.6 2260.89,1155.6 2271.13,1149.9 2281.37,1149.52 2291.61,1158.59 
  
  "/>
<polyline clip-path="url(#clip612)" style="stroke:#c68125; stroke-linecap:butt; stroke-linejoin:round; stroke-width:12; stroke-opacity:1; fill:none" points="
  253.483,1158.59 263.725,1170.03 273.966,1169.58 284.208,1162.37 294.45,1152.23 304.692,1141.87 314.934,1133.12 325.176,1127.1 335.418,1124.37 345.659,1125.04 
  355.901,1128.92 366.143,1135.58 376.385,1144.46 386.627,1154.91 396.869,1166.24 407.111,1177.77 417.352,1188.88 427.594,1198.99 437.836,1207.64 448.078,1214.41 
  458.32,1219.03 468.562,1221.29 478.803,1221.11 489.045,1218.47 499.287,1213.47 509.529,1206.26 519.771,1197.05 530.013,1186.15 540.255,1173.86 550.496,1160.55 
  560.738,1146.6 570.98,1132.4 581.222,1118.34 591.464,1104.8 601.706,1092.16 611.948,1080.75 622.189,1070.88 632.431,1062.84 642.673,1056.84 652.915,1053.08 
  663.157,1051.7 673.399,1052.77 683.641,1056.34 693.882,1062.4 704.124,1070.88 714.366,1081.68 724.608,1094.62 734.85,1109.53 745.092,1126.16 755.334,1144.25 
  765.575,1163.49 775.817,1183.56 786.059,1204.11 796.301,1224.79 806.543,1245.23 816.785,1265.04 827.027,1283.88 837.268,1301.35 847.51,1317.12 857.752,1330.84 
  867.994,1342.19 878.236,1350.87 888.478,1356.63 898.72,1359.23 908.961,1358.45 919.203,1354.14 929.445,1346.18 939.687,1334.46 949.929,1318.96 960.171,1299.65 
  970.413,1276.59 980.654,1249.86 990.896,1219.56 1001.14,1185.87 1011.38,1148.99 1021.62,1109.13 1031.86,1066.58 1042.11,1021.64 1052.35,974.622 1062.59,925.886 
  1072.83,875.805 1083.07,824.768 1093.31,773.179 1103.56,721.452 1113.8,670.007 1124.04,619.264 1134.28,569.644 1144.52,521.557 1154.77,475.406 1165.01,431.578 
  1175.25,390.444 1185.49,352.351 1195.73,317.624 1205.98,286.558 1216.22,259.417 1226.46,236.435 1236.7,217.809 1246.94,203.697 1257.18,194.221 1267.43,189.463 
  1277.67,189.463 1287.91,194.221 1298.15,203.697 1308.39,217.809 1318.64,236.435 1328.88,259.417 1339.12,286.558 1349.36,317.624 1359.6,352.351 1369.84,390.444 
  1380.09,431.578 1390.33,475.406 1400.57,521.557 1410.81,569.644 1421.05,619.264 1431.3,670.007 1441.54,721.452 1451.78,773.179 1462.02,824.768 1472.26,875.805 
  1482.51,925.886 1492.75,974.622 1502.99,1021.64 1513.23,1066.58 1523.47,1109.13 1533.71,1148.99 1543.96,1185.87 1554.2,1219.56 1564.44,1249.86 1574.68,1276.59 
  1584.92,1299.65 1595.17,1318.96 1605.41,1334.46 1615.65,1346.18 1625.89,1354.14 1636.13,1358.45 1646.38,1359.23 1656.62,1356.63 1666.86,1350.87 1677.1,1342.19 
  1687.34,1330.84 1697.58,1317.12 1707.83,1301.35 1718.07,1283.88 1728.31,1265.04 1738.55,1245.23 1748.79,1224.79 1759.04,1204.11 1769.28,1183.56 1779.52,1163.49 
  1789.76,1144.25 1800,1126.16 1810.24,1109.53 1820.49,1094.62 1830.73,1081.68 1840.97,1070.88 1851.21,1062.4 1861.45,1056.34 1871.7,1052.77 1881.94,1051.7 
  1892.18,1053.08 1902.42,1056.84 1912.66,1062.84 1922.91,1070.88 1933.15,1080.75 1943.39,1092.16 1953.63,1104.8 1963.87,1118.34 1974.11,1132.4 1984.36,1146.6 
  1994.6,1160.55 2004.84,1173.86 2015.08,1186.15 2025.32,1197.05 2035.57,1206.26 2045.81,1213.47 2056.05,1218.47 2066.29,1221.11 2076.53,1221.29 2086.77,1219.03 
  2097.02,1214.41 2107.26,1207.64 2117.5,1198.99 2127.74,1188.88 2137.98,1177.77 2148.23,1166.24 2158.47,1154.91 2168.71,1144.46 2178.95,1135.58 2189.19,1128.92 
  2199.44,1125.04 2209.68,1124.37 2219.92,1127.1 2230.16,1133.12 2240.4,1141.87 2250.64,1152.23 2260.89,1162.37 2271.13,1169.58 2281.37,1170.03 2291.61,1158.59 
  
  "/>
<polyline clip-path="url(#clip612)" style="stroke:#00a98d; stroke-linecap:butt; stroke-linejoin:round; stroke-width:12; stroke-opacity:1; fill:none" points="
  253.483,1158.59 263.725,1149.52 273.966,1149.9 284.208,1155.6 294.45,1163.6 304.692,1171.73 314.934,1178.56 325.176,1183.22 335.418,1185.29 345.659,1184.71 
  355.901,1181.63 366.143,1176.41 376.385,1169.5 386.627,1161.42 396.869,1152.71 407.111,1143.89 417.352,1135.44 427.594,1127.8 437.836,1121.32 448.078,1116.3 
  458.32,1112.94 468.562,1111.38 478.803,1111.66 489.045,1113.79 499.287,1117.67 509.529,1123.17 519.771,1130.1 530.013,1138.25 540.255,1147.36 550.496,1157.15 
  560.738,1167.34 570.98,1177.62 581.222,1187.73 591.464,1197.36 601.706,1206.27 611.948,1214.22 622.189,1220.99 632.431,1226.4 642.673,1230.31 652.915,1232.59 
  663.157,1233.19 673.399,1232.06 683.641,1229.21 693.882,1224.66 704.124,1218.5 714.366,1210.82 724.608,1201.77 734.85,1191.5 745.092,1180.21 755.334,1168.09 
  765.575,1155.37 775.817,1142.28 786.059,1129.07 796.301,1115.98 806.543,1103.27 816.785,1091.16 827.027,1079.89 837.268,1069.69 847.51,1060.77 857.752,1053.3 
  867.994,1047.45 878.236,1043.37 888.478,1041.18 898.72,1040.95 908.961,1042.76 919.203,1046.62 929.445,1052.53 939.687,1060.47 949.929,1070.36 960.171,1082.1 
  970.413,1095.59 980.654,1110.64 990.896,1127.1 1001.14,1144.75 1011.38,1163.37 1021.62,1182.7 1031.86,1202.49 1042.11,1222.45 1052.35,1242.3 1062.59,1261.73 
  1072.83,1280.45 1083.07,1298.15 1093.31,1314.53 1103.56,1329.3 1113.8,1342.17 1124.04,1352.87 1134.28,1361.14 1144.52,1366.76 1154.77,1369.49 1165.01,1369.16 
  1175.25,1365.59 1185.49,1358.66 1195.73,1348.27 1205.98,1334.33 1216.22,1316.83 1226.46,1295.76 1236.7,1271.15 1246.94,1243.09 1257.18,1211.67 1267.43,1177.05 
  1277.67,1139.4 1287.91,1098.94 1298.15,1055.92 1308.39,1010.62 1318.64,963.333 1328.88,914.4 1339.12,864.175 1349.36,813.034 1359.6,761.37 1369.84,709.589 
  1380.09,658.106 1390.33,607.345 1400.57,557.728 1410.81,509.679 1421.05,463.614 1431.3,419.937 1441.54,379.041 1451.78,341.299 1462.02,307.061 1472.26,276.653 
  1482.51,250.37 1492.75,228.475 1502.99,211.192 1513.23,198.711 1523.47,191.175 1533.71,188.689 1543.96,191.308 1554.2,199.043 1564.44,211.857 1574.68,229.665 
  1584.92,252.334 1595.17,279.683 1605.41,311.487 1615.65,347.474 1625.89,387.33 1636.13,430.703 1646.38,477.201 1656.62,526.401 1666.86,577.849 1677.1,631.069 
  1687.34,685.561 1697.58,740.814 1707.83,796.305 1718.07,851.509 1728.31,905.902 1738.55,958.971 1748.79,1010.22 1759.04,1059.16 1769.28,1105.35 1779.52,1148.37 
  1789.76,1187.85 1800,1223.44 1810.24,1254.88 1820.49,1281.92 1830.73,1304.4 1840.97,1322.22 1851.21,1335.34 1861.45,1343.77 1871.7,1347.62 1881.94,1347.05 
  1892.18,1342.29 1902.42,1333.63 1912.66,1321.44 1922.91,1306.13 1933.15,1288.16 1943.39,1268.06 1953.63,1246.37 1963.87,1223.67 1974.11,1200.56 1984.36,1177.64 
  1994.6,1155.5 2004.84,1134.72 2015.08,1115.85 2025.32,1099.38 2035.57,1085.74 2045.81,1075.3 2056.05,1068.32 2066.29,1064.96 2076.53,1065.27 2086.77,1069.19 
  2097.02,1076.51 2107.26,1086.89 2117.5,1099.85 2127.74,1114.79 2137.98,1131 2148.23,1147.65 2158.47,1163.83 2168.71,1178.61 2178.95,1191.04 2189.19,1200.25 
  2199.44,1205.48 2209.68,1206.21 2219.92,1202.22 2230.16,1193.74 2240.4,1181.57 2250.64,1167.3 2260.89,1153.43 2271.13,1143.66 2281.37,1143.09 2291.61,1158.59 
  
  "/>
<polyline clip-path="url(#clip612)" style="stroke:#8e971d; stroke-linecap:butt; stroke-linejoin:round; stroke-width:12; stroke-opacity:1; fill:none" points="
  253.483,1158.59 263.725,1166.19 273.966,1165.87 284.208,1161.09 294.45,1154.41 304.692,1147.64 314.934,1141.97 325.176,1138.12 335.418,1136.42 345.659,1136.94 
  355.901,1139.52 366.143,1143.86 376.385,1149.58 386.627,1156.25 396.869,1163.42 407.111,1170.66 417.352,1177.57 427.594,1183.79 437.836,1189.05 448.078,1193.09 
  458.32,1195.76 468.562,1196.97 478.803,1196.67 489.045,1194.88 499.287,1191.67 509.529,1187.17 519.771,1181.53 530.013,1174.93 540.255,1167.6 550.496,1159.74 
  560.738,1151.6 570.98,1143.42 581.222,1135.42 591.464,1127.82 601.706,1120.83 611.948,1114.64 622.189,1109.41 632.431,1105.28 642.673,1102.34 652.915,1100.69 
  663.157,1100.37 673.399,1101.4 683.641,1103.77 693.882,1107.44 704.124,1112.34 714.366,1118.38 724.608,1125.45 734.85,1133.4 745.092,1142.1 755.334,1151.37 
  765.575,1161.03 775.817,1170.92 786.059,1180.82 796.301,1190.57 806.543,1199.97 816.785,1208.85 827.027,1217.03 837.268,1224.36 847.51,1230.69 857.752,1235.89 
  867.994,1239.85 878.236,1242.48 888.478,1243.71 898.72,1243.5 908.961,1241.82 919.203,1238.67 929.445,1234.07 939.687,1228.08 949.929,1220.76 960.171,1212.2 
  970.413,1202.52 980.654,1191.83 990.896,1180.3 1001.14,1168.07 1011.38,1155.34 1021.62,1142.27 1031.86,1129.07 1042.11,1115.94 1052.35,1103.08 1062.59,1090.68 
  1072.83,1078.96 1083.07,1068.1 1093.31,1058.3 1103.56,1049.72 1113.8,1042.53 1124.04,1036.87 1134.28,1032.89 1144.52,1030.67 1154.77,1030.32 1165.01,1031.89 
  1175.25,1035.43 1185.49,1040.94 1195.73,1048.42 1205.98,1057.82 1216.22,1069.08 1226.46,1082.1 1236.7,1096.75 1246.94,1112.9 1257.18,1130.36 1267.43,1148.95 
  1277.67,1168.43 1287.91,1188.57 1298.15,1209.11 1308.39,1229.78 1318.64,1250.3 1328.88,1270.35 1339.12,1289.65 1349.36,1307.87 1359.6,1324.72 1369.84,1339.89 
  1380.09,1353.08 1390.33,1363.99 1400.57,1372.36 1410.81,1377.92 1421.05,1380.44 1431.3,1379.7 1441.54,1375.51 1451.78,1367.73 1462.02,1356.21 1472.26,1340.88 
  1482.51,1321.68 1492.75,1298.6 1502.99,1271.67 1513.23,1240.96 1523.47,1206.58 1533.71,1168.69 1543.96,1127.49 1554.2,1083.23 1564.44,1036.18 1574.68,986.681 
  1584.92,935.085 1595.17,881.794 1605.41,827.237 1615.65,771.874 1625.89,716.19 1636.13,660.689 1646.38,605.893 1656.62,552.333 1666.86,500.546 1677.1,451.068 
  1687.34,404.429 1697.58,361.145 1707.83,321.712 1718.07,286.602 1728.31,256.255 1738.55,231.069 1748.79,211.401 1759.04,197.554 1769.28,189.777 1779.52,188.255 
  1789.76,193.107 1800,204.382 1810.24,222.055 1820.49,246.021 1830.73,276.1 1840.97,312.03 1851.21,353.469 1861.45,399.998 1871.7,451.121 1881.94,506.271 
  1892.18,564.811 1902.42,626.046 1912.66,689.225 1922.91,753.553 1933.15,818.202 1943.39,882.319 1953.63,945.044 1963.87,1005.52 1974.11,1062.91 1984.36,1116.4 
  1994.6,1165.26 2004.84,1208.79 2015.08,1246.41 2025.32,1277.63 2035.57,1302.07 2045.81,1319.5 2056.05,1329.85 2066.29,1333.19 2076.53,1329.8 2086.77,1320.1 
  2097.02,1304.73 2107.26,1284.49 2117.5,1260.37 2127.74,1233.52 2137.98,1205.23 2148.23,1176.88 2158.47,1149.93 2168.71,1125.85 2178.95,1106.04 2189.19,1091.78 
  2199.44,1084.08 2209.68,1083.59 2219.92,1090.46 2230.16,1104.16 2240.4,1123.28 2250.64,1145.31 2260.89,1166.4 2271.13,1181.03 2281.37,1181.71 2291.61,1158.59 
  
  "/>
<polyline clip-path="url(#clip612)" style="stroke:#00a8cb; stroke-linecap:butt; stroke-linejoin:round; stroke-width:12; stroke-opacity:1; fill:none" points="
  253.483,1158.59 263.725,1151.91 273.966,1152.21 284.208,1156.4 294.45,1162.25 304.692,1168.17 314.934,1173.12 325.176,1176.47 335.418,1177.93 345.659,1177.47 
  355.901,1175.2 366.143,1171.41 376.385,1166.42 386.627,1160.62 396.869,1154.39 407.111,1148.12 417.352,1142.15 427.594,1136.78 437.836,1132.27 448.078,1128.8 
  458.32,1126.53 468.562,1125.52 478.803,1125.82 489.045,1127.39 499.287,1130.18 509.529,1134.07 519.771,1138.94 530.013,1144.6 540.255,1150.89 550.496,1157.61 
  560.738,1164.55 570.98,1171.51 581.222,1178.3 591.464,1184.73 601.706,1190.62 611.948,1195.82 622.189,1200.2 632.431,1203.63 642.673,1206.05 652.915,1207.37 
  663.157,1207.57 673.399,1206.63 683.641,1204.57 693.882,1201.43 704.124,1197.27 714.366,1192.16 724.608,1186.22 734.85,1179.55 745.092,1172.29 755.334,1164.58 
  765.575,1156.57 775.817,1148.4 786.059,1140.24 796.301,1132.25 806.543,1124.57 816.785,1117.34 827.027,1110.72 837.268,1104.83 847.51,1099.77 857.752,1095.66 
  867.994,1092.58 878.236,1090.58 888.478,1089.73 898.72,1090.06 908.961,1091.56 919.203,1094.25 929.445,1098.08 939.687,1103.02 949.929,1109 960.171,1115.93 
  970.413,1123.73 980.654,1132.28 990.896,1141.45 1001.14,1151.12 1011.38,1161.14 1021.62,1171.36 1031.86,1181.63 1042.11,1191.77 1052.35,1201.65 1062.59,1211.09 
  1072.83,1219.96 1083.07,1228.09 1093.31,1235.36 1103.56,1241.63 1113.8,1246.79 1124.04,1250.75 1134.28,1253.4 1144.52,1254.69 1154.77,1254.57 1165.01,1253 
  1175.25,1249.97 1185.49,1245.49 1195.73,1239.6 1205.98,1232.34 1216.22,1223.78 1226.46,1214.02 1236.7,1203.17 1246.94,1191.36 1257.18,1178.72 1267.43,1165.43 
  1277.67,1151.65 1287.91,1137.58 1298.15,1123.41 1308.39,1109.34 1318.64,1095.58 1328.88,1082.34 1339.12,1069.83 1349.36,1058.25 1359.6,1047.8 1369.84,1038.68 
  1380.09,1031.06 1390.33,1025.1 1400.57,1020.96 1410.81,1018.75 1421.05,1018.59 1431.3,1020.54 1441.54,1024.67 1451.78,1030.99 1462.02,1039.5 1472.26,1050.16 
  1482.51,1062.91 1492.75,1077.63 1502.99,1094.2 1513.23,1112.45 1523.47,1132.17 1533.71,1153.13 1543.96,1175.08 1554.2,1197.72 1564.44,1220.73 1574.68,1243.79 
  1584.92,1266.54 1595.17,1288.59 1605.41,1309.57 1615.65,1329.09 1625.89,1346.74 1636.13,1362.14 1646.38,1374.89 1656.62,1384.62 1666.86,1390.97 1677.1,1393.61 
  1687.34,1392.24 1697.58,1386.57 1707.83,1376.39 1718.07,1361.51 1728.31,1341.8 1738.55,1317.17 1748.79,1287.62 1759.04,1253.19 1769.28,1214 1779.52,1170.22 
  1789.76,1122.12 1800,1070.04 1810.24,1014.36 1820.49,955.582 1830.73,894.24 1840.97,830.954 1851.21,766.404 1861.45,701.327 1871.7,636.511 1881.94,572.789 
  1892.18,511.026 1902.42,452.109 1912.66,396.937 1922.91,346.405 1933.15,301.391 1943.39,262.738 1953.63,231.242 1963.87,207.628 1974.11,192.538 1984.36,186.508 
  1994.6,189.951 2004.84,203.141 2015.08,226.19 2025.32,259.038 2035.57,301.431 2045.81,352.914 2056.05,412.818 2066.29,480.254 2076.53,554.11 2086.77,633.056 
  2097.02,715.549 2107.26,799.856 2117.5,884.073 2127.74,966.161 2137.98,1043.99 2148.23,1115.41 2158.47,1178.3 2168.71,1230.69 2178.95,1270.82 2189.19,1297.32 
  2199.44,1309.33 2209.68,1306.68 2219.92,1290.12 2230.16,1261.48 2240.4,1224.04 2250.64,1182.75 2260.89,1144.63 2271.13,1119.11 2281.37,1118.54 2291.61,1158.59 
  
  "/>
<polyline clip-path="url(#clip612)" style="stroke:#9b7fe8; stroke-linecap:butt; stroke-linejoin:round; stroke-width:12; stroke-opacity:1; fill:none" points="
  253.483,1158.59 263.725,1164.69 273.966,1164.42 284.208,1160.59 294.45,1155.25 304.692,1149.84 314.934,1145.34 325.176,1142.29 335.418,1140.97 345.659,1141.4 
  355.901,1143.47 366.143,1146.93 376.385,1151.47 386.627,1156.75 396.869,1162.4 407.111,1168.09 417.352,1173.5 427.594,1178.35 437.836,1182.43 448.078,1185.55 
  458.32,1187.59 468.562,1188.48 478.803,1188.19 489.045,1186.75 499.287,1184.22 509.529,1180.69 519.771,1176.3 530.013,1171.18 540.255,1165.52 550.496,1159.47 
  560.738,1153.24 570.98,1146.99 581.222,1140.91 591.464,1135.16 601.706,1129.9 611.948,1125.27 622.189,1121.38 632.431,1118.34 642.673,1116.22 652.915,1115.07 
  663.157,1114.93 673.399,1115.8 683.641,1117.67 693.882,1120.5 704.124,1124.23 714.366,1128.79 724.608,1134.09 734.85,1140.02 745.092,1146.46 755.334,1153.29 
  765.575,1160.38 775.817,1167.58 786.059,1174.77 796.301,1181.79 806.543,1188.53 816.785,1194.84 827.027,1200.62 837.268,1205.74 847.51,1210.12 857.752,1213.66 
  867.994,1216.3 878.236,1217.97 888.478,1218.64 898.72,1218.29 908.961,1216.9 919.203,1214.5 929.445,1211.1 939.687,1206.76 949.929,1201.52 960.171,1195.47 
  970.413,1188.69 980.654,1181.27 990.896,1173.34 1001.14,1165.01 1011.38,1156.4 1021.62,1147.64 1031.86,1138.87 1042.11,1130.23 1052.35,1121.85 1062.59,1113.87 
  1072.83,1106.41 1083.07,1099.59 1093.31,1093.53 1103.56,1088.34 1113.8,1084.1 1124.04,1080.91 1134.28,1078.82 1144.52,1077.89 1154.77,1078.15 1165.01,1079.62 
  1175.25,1082.31 1185.49,1086.2 1195.73,1091.25 1205.98,1097.42 1216.22,1104.64 1226.46,1112.82 1236.7,1121.87 1246.94,1131.67 1257.18,1142.09 1267.43,1153 
  1277.67,1164.25 1287.91,1175.67 1298.15,1187.12 1308.39,1198.42 1318.64,1209.4 1328.88,1219.89 1339.12,1229.74 1349.36,1238.76 1359.6,1246.82 1369.84,1253.77 
  1380.09,1259.47 1390.33,1263.81 1400.57,1266.68 1410.81,1268 1421.05,1267.7 1431.3,1265.75 1441.54,1262.12 1451.78,1256.81 1462.02,1249.85 1472.26,1241.3 
  1482.51,1231.23 1492.75,1219.75 1502.99,1206.99 1513.23,1193.09 1523.47,1178.24 1533.71,1162.63 1543.96,1146.47 1554.2,1130.01 1564.44,1113.49 1574.68,1097.16 
  1584.92,1081.3 1595.17,1066.19 1605.41,1052.09 1615.65,1039.28 1625.89,1028.02 1636.13,1018.56 1646.38,1011.15 1656.62,1006 1666.86,1003.29 1677.1,1003.2 
  1687.34,1005.84 1697.58,1011.31 1707.83,1019.65 1718.07,1030.87 1728.31,1044.9 1738.55,1061.66 1748.79,1080.99 1759.04,1102.67 1769.28,1126.44 1779.52,1151.97 
  1789.76,1178.89 1800,1206.75 1810.24,1235.08 1820.49,1263.34 1830.73,1290.95 1840.97,1317.3 1851.21,1341.76 1861.45,1363.65 1871.7,1382.31 1881.94,1397.07 
  1892.18,1407.25 1902.42,1412.24 1912.66,1411.42 1922.91,1404.26 1933.15,1390.28 1943.39,1369.11 1953.63,1340.44 1963.87,1304.12 1974.11,1260.12 1984.36,1208.57 
  1994.6,1149.76 2004.84,1084.15 2015.08,1012.42 2025.32,935.442 2035.57,854.284 2045.81,770.242 2056.05,684.815 2066.29,599.705 2076.53,516.803 2086.77,438.165 
  2097.02,365.984 2107.26,302.546 2117.5,250.184 2127.74,211.206 2137.98,187.821 2148.23,182.039 2158.47,195.558 2168.71,229.629 2178.95,284.896 2189.19,361.215 
  2199.44,457.44 2209.68,571.183 2219.92,698.534 2230.16,833.751 2240.4,968.905 2250.64,1093.48 2260.89,1193.92 2271.13,1253.16 2281.37,1250.01 2291.61,1158.59 
  
  "/>
<polyline clip-path="url(#clip612)" style="stroke:#608cf6; stroke-linecap:butt; stroke-linejoin:round; stroke-width:12; stroke-opacity:1; fill:none" points="
  253.483,1158.59 263.725,1152.8 273.966,1153.06 284.208,1156.69 294.45,1161.76 304.692,1166.88 314.934,1171.15 325.176,1174.03 335.418,1175.28 345.659,1174.86 
  355.901,1172.9 366.143,1169.62 376.385,1165.32 386.627,1160.33 396.869,1154.99 407.111,1149.62 417.352,1144.51 427.594,1139.93 437.836,1136.08 448.078,1133.15 
  458.32,1131.23 468.562,1130.4 478.803,1130.68 489.045,1132.05 499.287,1134.44 509.529,1137.78 519.771,1141.92 530.013,1146.74 540.255,1152.07 550.496,1157.76 
  560.738,1163.62 570.98,1169.49 581.222,1175.2 591.464,1180.59 601.706,1185.51 611.948,1189.85 622.189,1193.48 632.431,1196.32 642.673,1198.29 652.915,1199.35 
  663.157,1199.46 673.399,1198.63 683.641,1196.86 693.882,1194.2 704.124,1190.7 714.366,1186.42 724.608,1181.46 734.85,1175.92 745.092,1169.9 755.334,1163.53 
  765.575,1156.92 775.817,1150.22 786.059,1143.53 796.301,1137 806.543,1130.75 816.785,1124.9 827.027,1119.55 837.268,1114.82 847.51,1110.78 857.752,1107.52 
  867.994,1105.11 878.236,1103.59 888.478,1103 898.72,1103.37 908.961,1104.68 919.203,1106.93 929.445,1110.1 939.687,1114.15 949.929,1119 960.171,1124.61 
  970.413,1130.88 980.654,1137.72 990.896,1145.02 1001.14,1152.69 1011.38,1160.6 1021.62,1168.64 1031.86,1176.67 1042.11,1184.57 1052.35,1192.22 1062.59,1199.5 
  1072.83,1206.29 1083.07,1212.47 1093.31,1217.96 1103.56,1222.64 1113.8,1226.44 1124.04,1229.29 1134.28,1231.13 1144.52,1231.91 1154.77,1231.6 1165.01,1230.19 
  1175.25,1227.69 1185.49,1224.1 1195.73,1219.46 1205.98,1213.83 1216.22,1207.26 1226.46,1199.83 1236.7,1191.65 1246.94,1182.8 1257.18,1173.41 1267.43,1163.61 
  1277.67,1153.52 1287.91,1143.3 1298.15,1133.09 1308.39,1123.03 1318.64,1113.29 1328.88,1104.01 1339.12,1095.34 1349.36,1087.41 1359.6,1080.37 1369.84,1074.33 
  1380.09,1069.42 1390.33,1065.73 1400.57,1063.35 1410.81,1062.34 1421.05,1062.76 1431.3,1064.64 1441.54,1067.99 1451.78,1072.79 1462.02,1079.02 1472.26,1086.61 
  1482.51,1095.5 1492.75,1105.58 1502.99,1116.73 1513.23,1128.81 1523.47,1141.67 1533.71,1155.12 1543.96,1168.98 1554.2,1183.03 1564.44,1197.06 1574.68,1210.85 
  1584.92,1224.17 1595.17,1236.77 1605.41,1248.45 1615.65,1258.96 1625.89,1268.1 1636.13,1275.65 1646.38,1281.44 1656.62,1285.3 1666.86,1287.09 1677.1,1286.7 
  1687.34,1284.04 1697.58,1279.06 1707.83,1271.77 1718.07,1262.18 1728.31,1250.38 1738.55,1236.48 1748.79,1220.64 1759.04,1203.07 1769.28,1184.03 1779.52,1163.79 
  1789.76,1142.71 1800,1121.16 1810.24,1099.53 1820.49,1078.28 1830.73,1057.85 1840.97,1038.72 1851.21,1021.39 1861.45,1006.32 1871.7,993.995 1881.94,984.862 
  1892.18,979.337 1902.42,977.79 1912.66,980.533 1922.91,987.804 1933.15,999.754 1943.39,1016.44 1953.63,1037.79 1963.87,1063.62 1974.11,1093.61 1984.36,1127.28 
  1994.6,1163.99 2004.84,1202.96 2015.08,1243.22 2025.32,1283.63 2035.57,1322.92 2045.81,1359.64 2056.05,1392.21 2066.29,1418.95 2076.53,1438.11 2086.77,1447.87 
  2097.02,1446.47 2107.26,1432.2 2117.5,1403.52 2127.74,1359.16 2137.98,1298.19 2148.23,1220.22 2158.47,1125.47 2168.71,1015.03 2178.95,891.018 2189.19,756.806 
  2199.44,617.321 2209.68,479.324 2219.92,351.754 2230.16,246.112 2240.4,176.89 2250.64,162.047 2260.89,223.544 2271.13,387.936 2281.37,687.026 2291.61,1158.59 
  
  "/>
<polyline clip-path="url(#clip612)" style="stroke:#f05f73; stroke-linecap:butt; stroke-linejoin:round; stroke-width:12; stroke-opacity:1; fill:none" points="
  253.483,1158.59 263.725,1161.44 273.966,1161.31 284.208,1159.52 294.45,1157.03 304.692,1154.52 314.934,1152.42 325.176,1151.01 335.418,1150.39 345.659,1150.6 
  355.901,1151.56 366.143,1153.17 376.385,1155.28 386.627,1157.73 396.869,1160.36 407.111,1162.99 417.352,1165.5 427.594,1167.75 437.836,1169.63 448.078,1171.07 
  458.32,1172.01 468.562,1172.42 478.803,1172.28 489.045,1171.6 499.287,1170.43 509.529,1168.79 519.771,1166.76 530.013,1164.4 540.255,1161.78 550.496,1159 
  560.738,1156.12 570.98,1153.25 581.222,1150.45 591.464,1147.82 601.706,1145.4 611.948,1143.28 622.189,1141.51 632.431,1140.12 642.673,1139.16 652.915,1138.64 
  663.157,1138.59 673.399,1139 683.641,1139.87 693.882,1141.17 704.124,1142.89 714.366,1144.98 724.608,1147.41 734.85,1150.12 745.092,1153.06 755.334,1156.18 
  765.575,1159.4 775.817,1162.68 786.059,1165.94 796.301,1169.13 806.543,1172.18 816.785,1175.04 827.027,1177.65 837.268,1179.95 847.51,1181.92 857.752,1183.5 
  867.994,1184.68 878.236,1185.41 888.478,1185.69 898.72,1185.51 908.961,1184.87 919.203,1183.76 929.445,1182.21 939.687,1180.24 949.929,1177.87 960.171,1175.14 
  970.413,1172.08 980.654,1168.75 990.896,1165.19 1001.14,1161.46 1011.38,1157.61 1021.62,1153.7 1031.86,1149.8 1042.11,1145.96 1052.35,1142.25 1062.59,1138.71 
  1072.83,1135.42 1083.07,1132.42 1093.31,1129.77 1103.56,1127.5 1113.8,1125.66 1124.04,1124.29 1134.28,1123.41 1144.52,1123.04 1154.77,1123.2 1165.01,1123.89 
  1175.25,1125.12 1185.49,1126.86 1195.73,1129.12 1205.98,1131.85 1216.22,1135.04 1226.46,1138.64 1236.7,1142.61 1246.94,1146.89 1257.18,1151.43 1267.43,1156.17 
  1277.67,1161.04 1287.91,1165.97 1298.15,1170.89 1308.39,1175.74 1318.64,1180.43 1328.88,1184.9 1339.12,1189.06 1349.36,1192.87 1359.6,1196.24 1369.84,1199.13 
  1380.09,1201.48 1390.33,1203.23 1400.57,1204.35 1410.81,1204.81 1421.05,1204.59 1431.3,1203.67 1441.54,1202.04 1451.78,1199.72 1462.02,1196.71 1472.26,1193.05 
  1482.51,1188.78 1492.75,1183.94 1502.99,1178.6 1513.23,1172.81 1523.47,1166.67 1533.71,1160.24 1543.96,1153.64 1554.2,1146.94 1564.44,1140.27 1574.68,1133.72 
  1584.92,1127.41 1595.17,1121.45 1605.41,1115.93 1615.65,1110.98 1625.89,1106.69 1636.13,1103.16 1646.38,1100.47 1656.62,1098.7 1666.86,1097.91 1677.1,1098.16 
  1687.34,1099.47 1697.58,1101.87 1707.83,1105.37 1718.07,1109.93 1728.31,1115.52 1738.55,1122.09 1748.79,1129.55 1759.04,1137.8 1769.28,1146.72 1779.52,1156.16 
  1789.76,1165.98 1800,1175.98 1810.24,1185.99 1820.49,1195.79 1830.73,1205.17 1840.97,1213.9 1851.21,1221.78 1861.45,1228.58 1871.7,1234.08 1881.94,1238.09 
  1892.18,1240.42 1902.42,1240.92 1912.66,1239.46 1922.91,1235.94 1933.15,1230.31 1943.39,1222.58 1953.63,1212.78 1963.87,1201.04 1974.11,1187.53 1984.36,1172.48 
  1994.6,1156.2 2004.84,1139.09 2015.08,1121.59 2025.32,1104.22 2035.57,1087.57 2045.81,1072.27 2056.05,1059 2066.29,1048.47 2076.53,1041.39 2086.77,1038.47 
  2097.02,1040.33 2107.26,1047.55 2117.5,1060.55 2127.74,1079.56 2137.98,1104.57 2148.23,1135.24 2158.47,1170.83 2168.71,1210.09 2178.95,1251.14 2189.19,1291.37 
  2199.44,1327.27 2209.68,1354.29 2219.92,1366.62 2230.16,1357.02 2240.4,1316.61 2250.64,1234.53 2260.89,1097.75 2271.13,890.714 2281.37,594.981 2291.61,188.867 
  
  "/>
<path clip-path="url(#clip610)" d="
M1956.39 946.505 L2280.74 946.505 L2280.74 168.905 L1956.39 168.905  Z
  " fill="#ffffff" fill-rule="evenodd" fill-opacity="1"/>
<polyline clip-path="url(#clip610)" style="stroke:#000000; stroke-linecap:butt; stroke-linejoin:round; stroke-width:4; stroke-opacity:1; fill:none" points="
  1956.39,946.505 2280.74,946.505 2280.74,168.905 1956.39,168.905 1956.39,946.505 
  "/>
<circle clip-path="url(#clip610)" cx="2052.41" cy="220.745" r="23.04" fill="#009af9" fill-rule="evenodd" fill-opacity="1" stroke="#000000" stroke-opacity="1" stroke-width="5.12"/>
<path clip-path="url(#clip610)" d="M2162.27 240.432 Q2160.46 245.062 2158.75 246.474 Q2157.04 247.886 2154.17 247.886 L2150.77 247.886 L2150.77 244.321 L2153.27 244.321 Q2155.02 244.321 2156 243.488 Q2156.97 242.654 2158.15 239.552 L2158.91 237.608 L2148.43 212.099 L2152.94 212.099 L2161.04 232.377 L2169.15 212.099 L2173.66 212.099 L2162.27 240.432 Z" fill="#000000" fill-rule="evenodd" fill-opacity="1" /><path clip-path="url(#clip610)" d="M2180.95 234.089 L2188.59 234.089 L2188.59 207.724 L2180.28 209.391 L2180.28 205.131 L2188.54 203.465 L2193.22 203.465 L2193.22 234.089 L2200.86 234.089 L2200.86 238.025 L2180.95 238.025 L2180.95 234.089 Z" fill="#000000" fill-rule="evenodd" fill-opacity="1" /><polyline clip-path="url(#clip610)" style="stroke:#e26f46; stroke-linecap:butt; stroke-linejoin:round; stroke-width:4; stroke-opacity:1; fill:none" points="
  1980.4,272.585 2124.42,272.585 
  "/>
<path clip-path="url(#clip610)" d="M2162.27 292.272 Q2160.46 296.902 2158.75 298.314 Q2157.04 299.726 2154.17 299.726 L2150.77 299.726 L2150.77 296.161 L2153.27 296.161 Q2155.02 296.161 2156 295.328 Q2156.97 294.494 2158.15 291.392 L2158.91 289.448 L2148.43 263.939 L2152.94 263.939 L2161.04 284.217 L2169.15 263.939 L2173.66 263.939 L2162.27 292.272 Z" fill="#000000" fill-rule="evenodd" fill-opacity="1" /><path clip-path="url(#clip610)" d="M2184.17 285.929 L2200.49 285.929 L2200.49 289.865 L2178.54 289.865 L2178.54 285.929 Q2181.21 283.175 2185.79 278.545 Q2190.39 273.893 2191.58 272.55 Q2193.82 270.027 2194.7 268.291 Q2195.6 266.531 2195.6 264.842 Q2195.6 262.087 2193.66 260.351 Q2191.74 258.615 2188.64 258.615 Q2186.44 258.615 2183.98 259.379 Q2181.55 260.143 2178.77 261.694 L2178.77 256.971 Q2181.6 255.837 2184.05 255.258 Q2186.51 254.68 2188.54 254.68 Q2193.91 254.68 2197.11 257.365 Q2200.3 260.05 2200.3 264.541 Q2200.3 266.67 2199.49 268.592 Q2198.71 270.49 2196.6 273.082 Q2196.02 273.754 2192.92 276.971 Q2189.82 280.166 2184.17 285.929 Z" fill="#000000" fill-rule="evenodd" fill-opacity="1" /><polyline clip-path="url(#clip610)" style="stroke:#3da44d; stroke-linecap:butt; stroke-linejoin:round; stroke-width:4; stroke-opacity:1; fill:none" points="
  1980.4,324.425 2124.42,324.425 
  "/>
<path clip-path="url(#clip610)" d="M2162.27 344.112 Q2160.46 348.742 2158.75 350.154 Q2157.04 351.566 2154.17 351.566 L2150.77 351.566 L2150.77 348.001 L2153.27 348.001 Q2155.02 348.001 2156 347.168 Q2156.97 346.334 2158.15 343.232 L2158.91 341.288 L2148.43 315.779 L2152.94 315.779 L2161.04 336.057 L2169.15 315.779 L2173.66 315.779 L2162.27 344.112 Z" fill="#000000" fill-rule="evenodd" fill-opacity="1" /><path clip-path="url(#clip610)" d="M2194.31 323.07 Q2197.66 323.788 2199.54 326.057 Q2201.44 328.325 2201.44 331.658 Q2201.44 336.774 2197.92 339.575 Q2194.4 342.376 2187.92 342.376 Q2185.74 342.376 2183.43 341.936 Q2181.14 341.519 2178.68 340.663 L2178.68 336.149 Q2180.63 337.283 2182.94 337.862 Q2185.26 338.441 2187.78 338.441 Q2192.18 338.441 2194.47 336.705 Q2196.78 334.969 2196.78 331.658 Q2196.78 328.603 2194.63 326.89 Q2192.5 325.154 2188.68 325.154 L2184.65 325.154 L2184.65 321.311 L2188.87 321.311 Q2192.32 321.311 2194.14 319.946 Q2195.97 318.557 2195.97 315.964 Q2195.97 313.302 2194.08 311.89 Q2192.2 310.455 2188.68 310.455 Q2186.76 310.455 2184.56 310.871 Q2182.36 311.288 2179.72 312.168 L2179.72 308.001 Q2182.39 307.26 2184.7 306.89 Q2187.04 306.52 2189.1 306.52 Q2194.42 306.52 2197.52 308.95 Q2200.63 311.358 2200.63 315.478 Q2200.63 318.348 2198.98 320.339 Q2197.34 322.307 2194.31 323.07 Z" fill="#000000" fill-rule="evenodd" fill-opacity="1" /><polyline clip-path="url(#clip610)" style="stroke:#c271d2; stroke-linecap:butt; stroke-linejoin:round; stroke-width:4; stroke-opacity:1; fill:none" points="
  1980.4,376.265 2124.42,376.265 
  "/>
<path clip-path="url(#clip610)" d="M2162.27 395.952 Q2160.46 400.582 2158.75 401.994 Q2157.04 403.406 2154.17 403.406 L2150.77 403.406 L2150.77 399.841 L2153.27 399.841 Q2155.02 399.841 2156 399.008 Q2156.97 398.174 2158.15 395.072 L2158.91 393.128 L2148.43 367.619 L2152.94 367.619 L2161.04 387.897 L2169.15 367.619 L2173.66 367.619 L2162.27 395.952 Z" fill="#000000" fill-rule="evenodd" fill-opacity="1" /><path clip-path="url(#clip610)" d="M2192.99 363.059 L2181.18 381.508 L2192.99 381.508 L2192.99 363.059 M2191.76 358.985 L2197.64 358.985 L2197.64 381.508 L2202.57 381.508 L2202.57 385.397 L2197.64 385.397 L2197.64 393.545 L2192.99 393.545 L2192.99 385.397 L2177.39 385.397 L2177.39 380.883 L2191.76 358.985 Z" fill="#000000" fill-rule="evenodd" fill-opacity="1" /><polyline clip-path="url(#clip610)" style="stroke:#ac8d18; stroke-linecap:butt; stroke-linejoin:round; stroke-width:4; stroke-opacity:1; fill:none" points="
  1980.4,428.105 2124.42,428.105 
  "/>
<path clip-path="url(#clip610)" d="M2162.27 447.792 Q2160.46 452.422 2158.75 453.834 Q2157.04 455.246 2154.17 455.246 L2150.77 455.246 L2150.77 451.681 L2153.27 451.681 Q2155.02 451.681 2156 450.848 Q2156.97 450.014 2158.15 446.912 L2158.91 444.968 L2148.43 419.459 L2152.94 419.459 L2161.04 439.737 L2169.15 419.459 L2173.66 419.459 L2162.27 447.792 Z" fill="#000000" fill-rule="evenodd" fill-opacity="1" /><path clip-path="url(#clip610)" d="M2180.19 410.825 L2198.54 410.825 L2198.54 414.76 L2184.47 414.76 L2184.47 423.232 Q2185.49 422.885 2186.51 422.723 Q2187.52 422.538 2188.54 422.538 Q2194.33 422.538 2197.71 425.709 Q2201.09 428.88 2201.09 434.297 Q2201.09 439.875 2197.62 442.977 Q2194.14 446.056 2187.83 446.056 Q2185.65 446.056 2183.38 445.686 Q2181.14 445.315 2178.73 444.574 L2178.73 439.875 Q2180.81 441.01 2183.03 441.565 Q2185.26 442.121 2187.73 442.121 Q2191.74 442.121 2194.08 440.014 Q2196.41 437.908 2196.41 434.297 Q2196.41 430.686 2194.08 428.579 Q2191.74 426.473 2187.73 426.473 Q2185.86 426.473 2183.98 426.889 Q2182.13 427.306 2180.19 428.186 L2180.19 410.825 Z" fill="#000000" fill-rule="evenodd" fill-opacity="1" /><polyline clip-path="url(#clip610)" style="stroke:#00a9ad; stroke-linecap:butt; stroke-linejoin:round; stroke-width:4; stroke-opacity:1; fill:none" points="
  1980.4,479.945 2124.42,479.945 
  "/>
<path clip-path="url(#clip610)" d="M2162.27 499.632 Q2160.46 504.262 2158.75 505.674 Q2157.04 507.086 2154.17 507.086 L2150.77 507.086 L2150.77 503.521 L2153.27 503.521 Q2155.02 503.521 2156 502.688 Q2156.97 501.854 2158.15 498.752 L2158.91 496.808 L2148.43 471.299 L2152.94 471.299 L2161.04 491.577 L2169.15 471.299 L2173.66 471.299 L2162.27 499.632 Z" fill="#000000" fill-rule="evenodd" fill-opacity="1" /><path clip-path="url(#clip610)" d="M2190.72 478.081 Q2187.57 478.081 2185.72 480.234 Q2183.89 482.387 2183.89 486.137 Q2183.89 489.864 2185.72 492.039 Q2187.57 494.192 2190.72 494.192 Q2193.87 494.192 2195.7 492.039 Q2197.55 489.864 2197.55 486.137 Q2197.55 482.387 2195.7 480.234 Q2193.87 478.081 2190.72 478.081 M2200 463.429 L2200 467.688 Q2198.24 466.854 2196.44 466.415 Q2194.65 465.975 2192.89 465.975 Q2188.27 465.975 2185.81 469.1 Q2183.38 472.225 2183.03 478.544 Q2184.4 476.53 2186.46 475.466 Q2188.52 474.378 2191 474.378 Q2196.21 474.378 2199.21 477.549 Q2202.25 480.697 2202.25 486.137 Q2202.25 491.461 2199.1 494.678 Q2195.95 497.896 2190.72 497.896 Q2184.72 497.896 2181.55 493.313 Q2178.38 488.706 2178.38 479.979 Q2178.38 471.785 2182.27 466.924 Q2186.16 462.04 2192.71 462.04 Q2194.47 462.04 2196.25 462.387 Q2198.06 462.734 2200 463.429 Z" fill="#000000" fill-rule="evenodd" fill-opacity="1" /><polyline clip-path="url(#clip610)" style="stroke:#ed5d92; stroke-linecap:butt; stroke-linejoin:round; stroke-width:4; stroke-opacity:1; fill:none" points="
  1980.4,531.785 2124.42,531.785 
  "/>
<path clip-path="url(#clip610)" d="M2162.27 551.472 Q2160.46 556.102 2158.75 557.514 Q2157.04 558.926 2154.17 558.926 L2150.77 558.926 L2150.77 555.361 L2153.27 555.361 Q2155.02 555.361 2156 554.528 Q2156.97 553.694 2158.15 550.592 L2158.91 548.648 L2148.43 523.139 L2152.94 523.139 L2161.04 543.417 L2169.15 523.139 L2173.66 523.139 L2162.27 551.472 Z" fill="#000000" fill-rule="evenodd" fill-opacity="1" /><path clip-path="url(#clip610)" d="M2178.96 514.505 L2201.18 514.505 L2201.18 516.495 L2188.64 549.065 L2183.75 549.065 L2195.56 518.44 L2178.96 518.44 L2178.96 514.505 Z" fill="#000000" fill-rule="evenodd" fill-opacity="1" /><polyline clip-path="url(#clip610)" style="stroke:#c68125; stroke-linecap:butt; stroke-linejoin:round; stroke-width:4; stroke-opacity:1; fill:none" points="
  1980.4,583.625 2124.42,583.625 
  "/>
<path clip-path="url(#clip610)" d="M2162.27 603.312 Q2160.46 607.942 2158.75 609.354 Q2157.04 610.766 2154.17 610.766 L2150.77 610.766 L2150.77 607.201 L2153.27 607.201 Q2155.02 607.201 2156 606.368 Q2156.97 605.534 2158.15 602.432 L2158.91 600.488 L2148.43 574.979 L2152.94 574.979 L2161.04 595.257 L2169.15 574.979 L2173.66 574.979 L2162.27 603.312 Z" fill="#000000" fill-rule="evenodd" fill-opacity="1" /><path clip-path="url(#clip610)" d="M2190.14 584.493 Q2186.81 584.493 2184.89 586.275 Q2182.99 588.057 2182.99 591.182 Q2182.99 594.307 2184.89 596.09 Q2186.81 597.872 2190.14 597.872 Q2193.47 597.872 2195.39 596.09 Q2197.32 594.284 2197.32 591.182 Q2197.32 588.057 2195.39 586.275 Q2193.5 584.493 2190.14 584.493 M2185.46 582.502 Q2182.46 581.761 2180.77 579.701 Q2179.1 577.641 2179.1 574.678 Q2179.1 570.534 2182.04 568.127 Q2185 565.72 2190.14 565.72 Q2195.3 565.72 2198.24 568.127 Q2201.18 570.534 2201.18 574.678 Q2201.18 577.641 2199.49 579.701 Q2197.83 581.761 2194.84 582.502 Q2198.22 583.289 2200.09 585.581 Q2201.99 587.872 2201.99 591.182 Q2201.99 596.206 2198.91 598.891 Q2195.86 601.576 2190.14 601.576 Q2184.42 601.576 2181.34 598.891 Q2178.29 596.206 2178.29 591.182 Q2178.29 587.872 2180.19 585.581 Q2182.08 583.289 2185.46 582.502 M2183.75 575.118 Q2183.75 577.803 2185.42 579.308 Q2187.11 580.812 2190.14 580.812 Q2193.15 580.812 2194.84 579.308 Q2196.55 577.803 2196.55 575.118 Q2196.55 572.433 2194.84 570.928 Q2193.15 569.423 2190.14 569.423 Q2187.11 569.423 2185.42 570.928 Q2183.75 572.433 2183.75 575.118 Z" fill="#000000" fill-rule="evenodd" fill-opacity="1" /><polyline clip-path="url(#clip610)" style="stroke:#00a98d; stroke-linecap:butt; stroke-linejoin:round; stroke-width:4; stroke-opacity:1; fill:none" points="
  1980.4,635.465 2124.42,635.465 
  "/>
<path clip-path="url(#clip610)" d="M2162.27 655.152 Q2160.46 659.782 2158.75 661.194 Q2157.04 662.606 2154.17 662.606 L2150.77 662.606 L2150.77 659.041 L2153.27 659.041 Q2155.02 659.041 2156 658.208 Q2156.97 657.374 2158.15 654.272 L2158.91 652.328 L2148.43 626.819 L2152.94 626.819 L2161.04 647.097 L2169.15 626.819 L2173.66 626.819 L2162.27 655.152 Z" fill="#000000" fill-rule="evenodd" fill-opacity="1" /><path clip-path="url(#clip610)" d="M2180.28 652.027 L2180.28 647.768 Q2182.04 648.601 2183.84 649.041 Q2185.65 649.481 2187.39 649.481 Q2192.02 649.481 2194.45 646.379 Q2196.9 643.254 2197.25 636.911 Q2195.9 638.902 2193.84 639.967 Q2191.78 641.032 2189.28 641.032 Q2184.1 641.032 2181.07 637.907 Q2178.06 634.759 2178.06 629.319 Q2178.06 623.995 2181.21 620.777 Q2184.35 617.56 2189.58 617.56 Q2195.58 617.56 2198.73 622.166 Q2201.9 626.749 2201.9 635.499 Q2201.9 643.671 2198.01 648.555 Q2194.14 653.416 2187.59 653.416 Q2185.83 653.416 2184.03 653.069 Q2182.22 652.722 2180.28 652.027 M2189.58 637.374 Q2192.73 637.374 2194.56 635.222 Q2196.41 633.069 2196.41 629.319 Q2196.41 625.592 2194.56 623.439 Q2192.73 621.263 2189.58 621.263 Q2186.44 621.263 2184.58 623.439 Q2182.76 625.592 2182.76 629.319 Q2182.76 633.069 2184.58 635.222 Q2186.44 637.374 2189.58 637.374 Z" fill="#000000" fill-rule="evenodd" fill-opacity="1" /><polyline clip-path="url(#clip610)" style="stroke:#8e971d; stroke-linecap:butt; stroke-linejoin:round; stroke-width:4; stroke-opacity:1; fill:none" points="
  1980.4,687.305 2124.42,687.305 
  "/>
<path clip-path="url(#clip610)" d="M2162.27 706.992 Q2160.46 711.622 2158.75 713.034 Q2157.04 714.446 2154.17 714.446 L2150.77 714.446 L2150.77 710.881 L2153.27 710.881 Q2155.02 710.881 2156 710.048 Q2156.97 709.214 2158.15 706.112 L2158.91 704.168 L2148.43 678.659 L2152.94 678.659 L2161.04 698.937 L2169.15 678.659 L2173.66 678.659 L2162.27 706.992 Z" fill="#000000" fill-rule="evenodd" fill-opacity="1" /><path clip-path="url(#clip610)" d="M2180.95 700.649 L2188.59 700.649 L2188.59 674.284 L2180.28 675.951 L2180.28 671.691 L2188.54 670.025 L2193.22 670.025 L2193.22 700.649 L2200.86 700.649 L2200.86 704.585 L2180.95 704.585 L2180.95 700.649 Z" fill="#000000" fill-rule="evenodd" fill-opacity="1" /><path clip-path="url(#clip610)" d="M2220.3 673.103 Q2216.69 673.103 2214.86 676.668 Q2213.06 680.21 2213.06 687.339 Q2213.06 694.446 2214.86 698.011 Q2216.69 701.552 2220.3 701.552 Q2223.94 701.552 2225.74 698.011 Q2227.57 694.446 2227.57 687.339 Q2227.57 680.21 2225.74 676.668 Q2223.94 673.103 2220.3 673.103 M2220.3 669.4 Q2226.11 669.4 2229.17 674.006 Q2232.25 678.589 2232.25 687.339 Q2232.25 696.066 2229.17 700.673 Q2226.11 705.256 2220.3 705.256 Q2214.49 705.256 2211.41 700.673 Q2208.36 696.066 2208.36 687.339 Q2208.36 678.589 2211.41 674.006 Q2214.49 669.4 2220.3 669.4 Z" fill="#000000" fill-rule="evenodd" fill-opacity="1" /><polyline clip-path="url(#clip610)" style="stroke:#00a8cb; stroke-linecap:butt; stroke-linejoin:round; stroke-width:4; stroke-opacity:1; fill:none" points="
  1980.4,739.145 2124.42,739.145 
  "/>
<path clip-path="url(#clip610)" d="M2162.27 758.832 Q2160.46 763.462 2158.75 764.874 Q2157.04 766.286 2154.17 766.286 L2150.77 766.286 L2150.77 762.721 L2153.27 762.721 Q2155.02 762.721 2156 761.888 Q2156.97 761.054 2158.15 757.952 L2158.91 756.008 L2148.43 730.499 L2152.94 730.499 L2161.04 750.777 L2169.15 730.499 L2173.66 730.499 L2162.27 758.832 Z" fill="#000000" fill-rule="evenodd" fill-opacity="1" /><path clip-path="url(#clip610)" d="M2180.95 752.489 L2188.59 752.489 L2188.59 726.124 L2180.28 727.791 L2180.28 723.531 L2188.54 721.865 L2193.22 721.865 L2193.22 752.489 L2200.86 752.489 L2200.86 756.425 L2180.95 756.425 L2180.95 752.489 Z" fill="#000000" fill-rule="evenodd" fill-opacity="1" /><path clip-path="url(#clip610)" d="M2211.11 752.489 L2218.75 752.489 L2218.75 726.124 L2210.44 727.791 L2210.44 723.531 L2218.71 721.865 L2223.38 721.865 L2223.38 752.489 L2231.02 752.489 L2231.02 756.425 L2211.11 756.425 L2211.11 752.489 Z" fill="#000000" fill-rule="evenodd" fill-opacity="1" /><polyline clip-path="url(#clip610)" style="stroke:#9b7fe8; stroke-linecap:butt; stroke-linejoin:round; stroke-width:4; stroke-opacity:1; fill:none" points="
  1980.4,790.985 2124.42,790.985 
  "/>
<path clip-path="url(#clip610)" d="M2162.27 810.672 Q2160.46 815.302 2158.75 816.714 Q2157.04 818.126 2154.17 818.126 L2150.77 818.126 L2150.77 814.561 L2153.27 814.561 Q2155.02 814.561 2156 813.728 Q2156.97 812.894 2158.15 809.792 L2158.91 807.848 L2148.43 782.339 L2152.94 782.339 L2161.04 802.617 L2169.15 782.339 L2173.66 782.339 L2162.27 810.672 Z" fill="#000000" fill-rule="evenodd" fill-opacity="1" /><path clip-path="url(#clip610)" d="M2180.95 804.329 L2188.59 804.329 L2188.59 777.964 L2180.28 779.631 L2180.28 775.371 L2188.54 773.705 L2193.22 773.705 L2193.22 804.329 L2200.86 804.329 L2200.86 808.265 L2180.95 808.265 L2180.95 804.329 Z" fill="#000000" fill-rule="evenodd" fill-opacity="1" /><path clip-path="url(#clip610)" d="M2214.33 804.329 L2230.65 804.329 L2230.65 808.265 L2208.71 808.265 L2208.71 804.329 Q2211.37 801.575 2215.95 796.945 Q2220.56 792.293 2221.74 790.95 Q2223.98 788.427 2224.86 786.691 Q2225.77 784.931 2225.77 783.242 Q2225.77 780.487 2223.82 778.751 Q2221.9 777.015 2218.8 777.015 Q2216.6 777.015 2214.14 777.779 Q2211.71 778.543 2208.94 780.094 L2208.94 775.371 Q2211.76 774.237 2214.21 773.658 Q2216.67 773.08 2218.71 773.08 Q2224.08 773.08 2227.27 775.765 Q2230.46 778.45 2230.46 782.941 Q2230.46 785.07 2229.65 786.992 Q2228.87 788.89 2226.76 791.482 Q2226.18 792.154 2223.08 795.371 Q2219.98 798.566 2214.33 804.329 Z" fill="#000000" fill-rule="evenodd" fill-opacity="1" /><polyline clip-path="url(#clip610)" style="stroke:#608cf6; stroke-linecap:butt; stroke-linejoin:round; stroke-width:4; stroke-opacity:1; fill:none" points="
  1980.4,842.825 2124.42,842.825 
  "/>
<path clip-path="url(#clip610)" d="M2162.27 862.512 Q2160.46 867.142 2158.75 868.554 Q2157.04 869.966 2154.17 869.966 L2150.77 869.966 L2150.77 866.401 L2153.27 866.401 Q2155.02 866.401 2156 865.568 Q2156.97 864.734 2158.15 861.632 L2158.91 859.688 L2148.43 834.179 L2152.94 834.179 L2161.04 854.457 L2169.15 834.179 L2173.66 834.179 L2162.27 862.512 Z" fill="#000000" fill-rule="evenodd" fill-opacity="1" /><path clip-path="url(#clip610)" d="M2180.95 856.169 L2188.59 856.169 L2188.59 829.804 L2180.28 831.471 L2180.28 827.211 L2188.54 825.545 L2193.22 825.545 L2193.22 856.169 L2200.86 856.169 L2200.86 860.105 L2180.95 860.105 L2180.95 856.169 Z" fill="#000000" fill-rule="evenodd" fill-opacity="1" /><path clip-path="url(#clip610)" d="M2224.47 841.47 Q2227.83 842.188 2229.7 844.457 Q2231.6 846.725 2231.6 850.058 Q2231.6 855.174 2228.08 857.975 Q2224.56 860.776 2218.08 860.776 Q2215.9 860.776 2213.59 860.336 Q2211.3 859.919 2208.84 859.063 L2208.84 854.549 Q2210.79 855.683 2213.1 856.262 Q2215.42 856.841 2217.94 856.841 Q2222.34 856.841 2224.63 855.105 Q2226.95 853.369 2226.95 850.058 Q2226.95 847.003 2224.79 845.29 Q2222.66 843.554 2218.84 843.554 L2214.82 843.554 L2214.82 839.711 L2219.03 839.711 Q2222.48 839.711 2224.31 838.346 Q2226.14 836.957 2226.14 834.364 Q2226.14 831.702 2224.24 830.29 Q2222.36 828.855 2218.84 828.855 Q2216.92 828.855 2214.72 829.271 Q2212.52 829.688 2209.89 830.568 L2209.89 826.401 Q2212.55 825.66 2214.86 825.29 Q2217.2 824.92 2219.26 824.92 Q2224.58 824.92 2227.69 827.35 Q2230.79 829.758 2230.79 833.878 Q2230.79 836.748 2229.14 838.739 Q2227.5 840.707 2224.47 841.47 Z" fill="#000000" fill-rule="evenodd" fill-opacity="1" /><polyline clip-path="url(#clip610)" style="stroke:#f05f73; stroke-linecap:butt; stroke-linejoin:round; stroke-width:4; stroke-opacity:1; fill:none" points="
  1980.4,894.665 2124.42,894.665 
  "/>
<path clip-path="url(#clip610)" d="M2162.27 914.352 Q2160.46 918.982 2158.75 920.394 Q2157.04 921.806 2154.17 921.806 L2150.77 921.806 L2150.77 918.241 L2153.27 918.241 Q2155.02 918.241 2156 917.408 Q2156.97 916.574 2158.15 913.472 L2158.91 911.528 L2148.43 886.019 L2152.94 886.019 L2161.04 906.297 L2169.15 886.019 L2173.66 886.019 L2162.27 914.352 Z" fill="#000000" fill-rule="evenodd" fill-opacity="1" /><path clip-path="url(#clip610)" d="M2180.95 908.009 L2188.59 908.009 L2188.59 881.644 L2180.28 883.311 L2180.28 879.051 L2188.54 877.385 L2193.22 877.385 L2193.22 908.009 L2200.86 908.009 L2200.86 911.945 L2180.95 911.945 L2180.95 908.009 Z" fill="#000000" fill-rule="evenodd" fill-opacity="1" /><path clip-path="url(#clip610)" d="M2223.15 881.459 L2211.34 899.908 L2223.15 899.908 L2223.15 881.459 M2221.92 877.385 L2227.8 877.385 L2227.8 899.908 L2232.73 899.908 L2232.73 903.797 L2227.8 903.797 L2227.8 911.945 L2223.15 911.945 L2223.15 903.797 L2207.55 903.797 L2207.55 899.283 L2221.92 877.385 Z" fill="#000000" fill-rule="evenodd" fill-opacity="1" /></svg>
