<?xml version="1.0" encoding="utf-8"?>
<svg xmlns="http://www.w3.org/2000/svg" xmlns:xlink="http://www.w3.org/1999/xlink" width="600" height="400" viewBox="0 0 2400 1600">
<defs>
  <clipPath id="clip770">
    <rect x="0" y="0" width="2400" height="1600"/>
  </clipPath>
</defs>
<path clip-path="url(#clip770)" d="
M0 1600 L2400 1600 L2400 0 L0 0  Z
  " fill="#ffffff" fill-rule="evenodd" fill-opacity="1"/>
<defs>
  <clipPath id="clip771">
    <rect x="480" y="0" width="1681" height="1600"/>
  </clipPath>
</defs>
<path clip-path="url(#clip770)" d="
M156.598 1486.45 L2352.76 1486.45 L2352.76 47.2441 L156.598 47.2441  Z
  " fill="#ffffff" fill-rule="evenodd" fill-opacity="1"/>
<defs>
  <clipPath id="clip772">
    <rect x="156" y="47" width="2197" height="1440"/>
  </clipPath>
</defs>
<polyline clip-path="url(#clip772)" style="stroke:#000000; stroke-linecap:butt; stroke-linejoin:round; stroke-width:2; stroke-opacity:0.1; fill:none" points="
  218.754,1486.45 218.754,47.2441 
  "/>
<polyline clip-path="url(#clip772)" style="stroke:#000000; stroke-linecap:butt; stroke-linejoin:round; stroke-width:2; stroke-opacity:0.1; fill:none" points="
  736.715,1486.45 736.715,47.2441 
  "/>
<polyline clip-path="url(#clip772)" style="stroke:#000000; stroke-linecap:butt; stroke-linejoin:round; stroke-width:2; stroke-opacity:0.1; fill:none" points="
  1254.68,1486.45 1254.68,47.2441 
  "/>
<polyline clip-path="url(#clip772)" style="stroke:#000000; stroke-linecap:butt; stroke-linejoin:round; stroke-width:2; stroke-opacity:0.1; fill:none" points="
  1772.64,1486.45 1772.64,47.2441 
  "/>
<polyline clip-path="url(#clip772)" style="stroke:#000000; stroke-linecap:butt; stroke-linejoin:round; stroke-width:2; stroke-opacity:0.1; fill:none" points="
  2290.6,1486.45 2290.6,47.2441 
  "/>
<polyline clip-path="url(#clip770)" style="stroke:#000000; stroke-linecap:butt; stroke-linejoin:round; stroke-width:4; stroke-opacity:1; fill:none" points="
  156.598,1486.45 2352.76,1486.45 
  "/>
<polyline clip-path="url(#clip770)" style="stroke:#000000; stroke-linecap:butt; stroke-linejoin:round; stroke-width:4; stroke-opacity:1; fill:none" points="
  218.754,1486.45 218.754,1467.55 
  "/>
<polyline clip-path="url(#clip770)" style="stroke:#000000; stroke-linecap:butt; stroke-linejoin:round; stroke-width:4; stroke-opacity:1; fill:none" points="
  736.715,1486.45 736.715,1467.55 
  "/>
<polyline clip-path="url(#clip770)" style="stroke:#000000; stroke-linecap:butt; stroke-linejoin:round; stroke-width:4; stroke-opacity:1; fill:none" points="
  1254.68,1486.45 1254.68,1467.55 
  "/>
<polyline clip-path="url(#clip770)" style="stroke:#000000; stroke-linecap:butt; stroke-linejoin:round; stroke-width:4; stroke-opacity:1; fill:none" points="
  1772.64,1486.45 1772.64,1467.55 
  "/>
<polyline clip-path="url(#clip770)" style="stroke:#000000; stroke-linecap:butt; stroke-linejoin:round; stroke-width:4; stroke-opacity:1; fill:none" points="
  2290.6,1486.45 2290.6,1467.55 
  "/>
<path clip-path="url(#clip770)" d="M165.282 1532.02 L194.957 1532.02 L194.957 1535.95 L165.282 1535.95 L165.282 1532.02 Z" fill="#000000" fill-rule="evenodd" fill-opacity="1" /><path clip-path="url(#clip770)" d="M205.86 1544.91 L213.499 1544.91 L213.499 1518.55 L205.189 1520.21 L205.189 1515.95 L213.453 1514.29 L218.129 1514.29 L218.129 1544.91 L225.767 1544.91 L225.767 1548.85 L205.86 1548.85 L205.86 1544.91 Z" fill="#000000" fill-rule="evenodd" fill-opacity="1" /><path clip-path="url(#clip770)" d="M235.212 1542.97 L240.096 1542.97 L240.096 1548.85 L235.212 1548.85 L235.212 1542.97 Z" fill="#000000" fill-rule="evenodd" fill-opacity="1" /><path clip-path="url(#clip770)" d="M260.281 1517.37 Q256.67 1517.37 254.841 1520.93 Q253.036 1524.47 253.036 1531.6 Q253.036 1538.71 254.841 1542.27 Q256.67 1545.82 260.281 1545.82 Q263.915 1545.82 265.721 1542.27 Q267.55 1538.71 267.55 1531.6 Q267.55 1524.47 265.721 1520.93 Q263.915 1517.37 260.281 1517.37 M260.281 1513.66 Q266.091 1513.66 269.147 1518.27 Q272.226 1522.85 272.226 1531.6 Q272.226 1540.33 269.147 1544.94 Q266.091 1549.52 260.281 1549.52 Q254.471 1549.52 251.392 1544.94 Q248.337 1540.33 248.337 1531.6 Q248.337 1522.85 251.392 1518.27 Q254.471 1513.66 260.281 1513.66 Z" fill="#000000" fill-rule="evenodd" fill-opacity="1" /><path clip-path="url(#clip770)" d="M683.741 1532.02 L713.417 1532.02 L713.417 1535.95 L683.741 1535.95 L683.741 1532.02 Z" fill="#000000" fill-rule="evenodd" fill-opacity="1" /><path clip-path="url(#clip770)" d="M733.509 1517.37 Q729.898 1517.37 728.07 1520.93 Q726.264 1524.47 726.264 1531.6 Q726.264 1538.71 728.07 1542.27 Q729.898 1545.82 733.509 1545.82 Q737.144 1545.82 738.949 1542.27 Q740.778 1538.71 740.778 1531.6 Q740.778 1524.47 738.949 1520.93 Q737.144 1517.37 733.509 1517.37 M733.509 1513.66 Q739.32 1513.66 742.375 1518.27 Q745.454 1522.85 745.454 1531.6 Q745.454 1540.33 742.375 1544.94 Q739.32 1549.52 733.509 1549.52 Q727.699 1549.52 724.621 1544.94 Q721.565 1540.33 721.565 1531.6 Q721.565 1522.85 724.621 1518.27 Q727.699 1513.66 733.509 1513.66 Z" fill="#000000" fill-rule="evenodd" fill-opacity="1" /><path clip-path="url(#clip770)" d="M753.671 1542.97 L758.556 1542.97 L758.556 1548.85 L753.671 1548.85 L753.671 1542.97 Z" fill="#000000" fill-rule="evenodd" fill-opacity="1" /><path clip-path="url(#clip770)" d="M768.787 1514.29 L787.143 1514.29 L787.143 1518.22 L773.069 1518.22 L773.069 1526.7 Q774.088 1526.35 775.106 1526.19 Q776.125 1526 777.143 1526 Q782.93 1526 786.31 1529.17 Q789.69 1532.34 789.69 1537.76 Q789.69 1543.34 786.217 1546.44 Q782.745 1549.52 776.426 1549.52 Q774.25 1549.52 771.981 1549.15 Q769.736 1548.78 767.329 1548.04 L767.329 1543.34 Q769.412 1544.47 771.634 1545.03 Q773.856 1545.58 776.333 1545.58 Q780.338 1545.58 782.676 1543.48 Q785.014 1541.37 785.014 1537.76 Q785.014 1534.15 782.676 1532.04 Q780.338 1529.94 776.333 1529.94 Q774.458 1529.94 772.583 1530.35 Q770.731 1530.77 768.787 1531.65 L768.787 1514.29 Z" fill="#000000" fill-rule="evenodd" fill-opacity="1" /><path clip-path="url(#clip770)" d="M1232.06 1517.37 Q1228.45 1517.37 1226.62 1520.93 Q1224.82 1524.47 1224.82 1531.6 Q1224.82 1538.71 1226.62 1542.27 Q1228.45 1545.82 1232.06 1545.82 Q1235.7 1545.82 1237.5 1542.27 Q1239.33 1538.71 1239.33 1531.6 Q1239.33 1524.47 1237.5 1520.93 Q1235.7 1517.37 1232.06 1517.37 M1232.06 1513.66 Q1237.87 1513.66 1240.93 1518.27 Q1244.01 1522.85 1244.01 1531.6 Q1244.01 1540.33 1240.93 1544.94 Q1237.87 1549.52 1232.06 1549.52 Q1226.25 1549.52 1223.17 1544.94 Q1220.12 1540.33 1220.12 1531.6 Q1220.12 1522.85 1223.17 1518.27 Q1226.25 1513.66 1232.06 1513.66 Z" fill="#000000" fill-rule="evenodd" fill-opacity="1" /><path clip-path="url(#clip770)" d="M1252.22 1542.97 L1257.11 1542.97 L1257.11 1548.85 L1252.22 1548.85 L1252.22 1542.97 Z" fill="#000000" fill-rule="evenodd" fill-opacity="1" /><path clip-path="url(#clip770)" d="M1277.29 1517.37 Q1273.68 1517.37 1271.85 1520.93 Q1270.05 1524.47 1270.05 1531.6 Q1270.05 1538.71 1271.85 1542.27 Q1273.68 1545.82 1277.29 1545.82 Q1280.93 1545.82 1282.73 1542.27 Q1284.56 1538.71 1284.56 1531.6 Q1284.56 1524.47 1282.73 1520.93 Q1280.93 1517.37 1277.29 1517.37 M1277.29 1513.66 Q1283.1 1513.66 1286.16 1518.27 Q1289.24 1522.85 1289.24 1531.6 Q1289.24 1540.33 1286.16 1544.94 Q1283.1 1549.52 1277.29 1549.52 Q1271.48 1549.52 1268.4 1544.94 Q1265.35 1540.33 1265.35 1531.6 Q1265.35 1522.85 1268.4 1518.27 Q1271.48 1513.66 1277.29 1513.66 Z" fill="#000000" fill-rule="evenodd" fill-opacity="1" /><path clip-path="url(#clip770)" d="M1750.52 1517.37 Q1746.91 1517.37 1745.08 1520.93 Q1743.28 1524.47 1743.28 1531.6 Q1743.28 1538.71 1745.08 1542.27 Q1746.91 1545.82 1750.52 1545.82 Q1754.16 1545.82 1755.96 1542.27 Q1757.79 1538.71 1757.79 1531.6 Q1757.79 1524.47 1755.96 1520.93 Q1754.16 1517.37 1750.52 1517.37 M1750.52 1513.66 Q1756.33 1513.66 1759.39 1518.27 Q1762.47 1522.85 1762.47 1531.6 Q1762.47 1540.33 1759.39 1544.94 Q1756.33 1549.52 1750.52 1549.52 Q1744.71 1549.52 1741.63 1544.94 Q1738.58 1540.33 1738.58 1531.6 Q1738.58 1522.85 1741.63 1518.27 Q1744.71 1513.66 1750.52 1513.66 Z" fill="#000000" fill-rule="evenodd" fill-opacity="1" /><path clip-path="url(#clip770)" d="M1770.68 1542.97 L1775.57 1542.97 L1775.57 1548.85 L1770.68 1548.85 L1770.68 1542.97 Z" fill="#000000" fill-rule="evenodd" fill-opacity="1" /><path clip-path="url(#clip770)" d="M1785.8 1514.29 L1804.15 1514.29 L1804.15 1518.22 L1790.08 1518.22 L1790.08 1526.7 Q1791.1 1526.35 1792.12 1526.19 Q1793.14 1526 1794.15 1526 Q1799.94 1526 1803.32 1529.17 Q1806.7 1532.34 1806.7 1537.76 Q1806.7 1543.34 1803.23 1546.44 Q1799.76 1549.52 1793.44 1549.52 Q1791.26 1549.52 1788.99 1549.15 Q1786.75 1548.78 1784.34 1548.04 L1784.34 1543.34 Q1786.42 1544.47 1788.65 1545.03 Q1790.87 1545.58 1793.34 1545.58 Q1797.35 1545.58 1799.69 1543.48 Q1802.03 1541.37 1802.03 1537.76 Q1802.03 1534.15 1799.69 1532.04 Q1797.35 1529.94 1793.34 1529.94 Q1791.47 1529.94 1789.59 1530.35 Q1787.74 1530.77 1785.8 1531.65 L1785.8 1514.29 Z" fill="#000000" fill-rule="evenodd" fill-opacity="1" /><path clip-path="url(#clip770)" d="M2257.75 1544.91 L2265.39 1544.91 L2265.39 1518.55 L2257.08 1520.21 L2257.08 1515.95 L2265.35 1514.29 L2270.02 1514.29 L2270.02 1544.91 L2277.66 1544.91 L2277.66 1548.85 L2257.75 1548.85 L2257.75 1544.91 Z" fill="#000000" fill-rule="evenodd" fill-opacity="1" /><path clip-path="url(#clip770)" d="M2287.11 1542.97 L2291.99 1542.97 L2291.99 1548.85 L2287.11 1548.85 L2287.11 1542.97 Z" fill="#000000" fill-rule="evenodd" fill-opacity="1" /><path clip-path="url(#clip770)" d="M2312.17 1517.37 Q2308.56 1517.37 2306.73 1520.93 Q2304.93 1524.47 2304.93 1531.6 Q2304.93 1538.71 2306.73 1542.27 Q2308.56 1545.82 2312.17 1545.82 Q2315.81 1545.82 2317.61 1542.27 Q2319.44 1538.71 2319.44 1531.6 Q2319.44 1524.47 2317.61 1520.93 Q2315.81 1517.37 2312.17 1517.37 M2312.17 1513.66 Q2317.98 1513.66 2321.04 1518.27 Q2324.12 1522.85 2324.12 1531.6 Q2324.12 1540.33 2321.04 1544.94 Q2317.98 1549.52 2312.17 1549.52 Q2306.36 1549.52 2303.29 1544.94 Q2300.23 1540.33 2300.23 1531.6 Q2300.23 1522.85 2303.29 1518.27 Q2306.36 1513.66 2312.17 1513.66 Z" fill="#000000" fill-rule="evenodd" fill-opacity="1" /><polyline clip-path="url(#clip772)" style="stroke:#000000; stroke-linecap:butt; stroke-linejoin:round; stroke-width:2; stroke-opacity:0.1; fill:none" points="
  156.598,1302.09 2352.76,1302.09 
  "/>
<polyline clip-path="url(#clip772)" style="stroke:#000000; stroke-linecap:butt; stroke-linejoin:round; stroke-width:2; stroke-opacity:0.1; fill:none" points="
  156.598,1102.55 2352.76,1102.55 
  "/>
<polyline clip-path="url(#clip772)" style="stroke:#000000; stroke-linecap:butt; stroke-linejoin:round; stroke-width:2; stroke-opacity:0.1; fill:none" points="
  156.598,903.006 2352.76,903.006 
  "/>
<polyline clip-path="url(#clip772)" style="stroke:#000000; stroke-linecap:butt; stroke-linejoin:round; stroke-width:2; stroke-opacity:0.1; fill:none" points="
  156.598,703.462 2352.76,703.462 
  "/>
<polyline clip-path="url(#clip772)" style="stroke:#000000; stroke-linecap:butt; stroke-linejoin:round; stroke-width:2; stroke-opacity:0.1; fill:none" points="
  156.598,503.919 2352.76,503.919 
  "/>
<polyline clip-path="url(#clip772)" style="stroke:#000000; stroke-linecap:butt; stroke-linejoin:round; stroke-width:2; stroke-opacity:0.1; fill:none" points="
  156.598,304.376 2352.76,304.376 
  "/>
<polyline clip-path="url(#clip772)" style="stroke:#000000; stroke-linecap:butt; stroke-linejoin:round; stroke-width:2; stroke-opacity:0.1; fill:none" points="
  156.598,104.832 2352.76,104.832 
  "/>
<polyline clip-path="url(#clip770)" style="stroke:#000000; stroke-linecap:butt; stroke-linejoin:round; stroke-width:4; stroke-opacity:1; fill:none" points="
  156.598,1486.45 156.598,47.2441 
  "/>
<polyline clip-path="url(#clip770)" style="stroke:#000000; stroke-linecap:butt; stroke-linejoin:round; stroke-width:4; stroke-opacity:1; fill:none" points="
  156.598,1302.09 175.496,1302.09 
  "/>
<polyline clip-path="url(#clip770)" style="stroke:#000000; stroke-linecap:butt; stroke-linejoin:round; stroke-width:4; stroke-opacity:1; fill:none" points="
  156.598,1102.55 175.496,1102.55 
  "/>
<polyline clip-path="url(#clip770)" style="stroke:#000000; stroke-linecap:butt; stroke-linejoin:round; stroke-width:4; stroke-opacity:1; fill:none" points="
  156.598,903.006 175.496,903.006 
  "/>
<polyline clip-path="url(#clip770)" style="stroke:#000000; stroke-linecap:butt; stroke-linejoin:round; stroke-width:4; stroke-opacity:1; fill:none" points="
  156.598,703.462 175.496,703.462 
  "/>
<polyline clip-path="url(#clip770)" style="stroke:#000000; stroke-linecap:butt; stroke-linejoin:round; stroke-width:4; stroke-opacity:1; fill:none" points="
  156.598,503.919 175.496,503.919 
  "/>
<polyline clip-path="url(#clip770)" style="stroke:#000000; stroke-linecap:butt; stroke-linejoin:round; stroke-width:4; stroke-opacity:1; fill:none" points="
  156.598,304.376 175.496,304.376 
  "/>
<polyline clip-path="url(#clip770)" style="stroke:#000000; stroke-linecap:butt; stroke-linejoin:round; stroke-width:4; stroke-opacity:1; fill:none" points="
  156.598,104.832 175.496,104.832 
  "/>
<path clip-path="url(#clip770)" d="M63.4226 1287.89 Q59.8115 1287.89 57.9828 1291.46 Q56.1773 1295 56.1773 1302.13 Q56.1773 1309.23 57.9828 1312.8 Q59.8115 1316.34 63.4226 1316.34 Q67.0569 1316.34 68.8624 1312.8 Q70.6911 1309.23 70.6911 1302.13 Q70.6911 1295 68.8624 1291.46 Q67.0569 1287.89 63.4226 1287.89 M63.4226 1284.19 Q69.2328 1284.19 72.2883 1288.79 Q75.367 1293.38 75.367 1302.13 Q75.367 1310.85 72.2883 1315.46 Q69.2328 1320.04 63.4226 1320.04 Q57.6125 1320.04 54.5338 1315.46 Q51.4782 1310.85 51.4782 1302.13 Q51.4782 1293.38 54.5338 1288.79 Q57.6125 1284.19 63.4226 1284.19 Z" fill="#000000" fill-rule="evenodd" fill-opacity="1" /><path clip-path="url(#clip770)" d="M83.5845 1313.49 L88.4688 1313.49 L88.4688 1319.37 L83.5845 1319.37 L83.5845 1313.49 Z" fill="#000000" fill-rule="evenodd" fill-opacity="1" /><path clip-path="url(#clip770)" d="M108.654 1287.89 Q105.043 1287.89 103.214 1291.46 Q101.409 1295 101.409 1302.13 Q101.409 1309.23 103.214 1312.8 Q105.043 1316.34 108.654 1316.34 Q112.288 1316.34 114.094 1312.8 Q115.922 1309.23 115.922 1302.13 Q115.922 1295 114.094 1291.46 Q112.288 1287.89 108.654 1287.89 M108.654 1284.19 Q114.464 1284.19 117.52 1288.79 Q120.598 1293.38 120.598 1302.13 Q120.598 1310.85 117.52 1315.46 Q114.464 1320.04 108.654 1320.04 Q102.844 1320.04 99.765 1315.46 Q96.7095 1310.85 96.7095 1302.13 Q96.7095 1293.38 99.765 1288.79 Q102.844 1284.19 108.654 1284.19 Z" fill="#000000" fill-rule="evenodd" fill-opacity="1" /><path clip-path="url(#clip770)" d="M65.0198 1088.35 Q61.4087 1088.35 59.58 1091.91 Q57.7745 1095.45 57.7745 1102.58 Q57.7745 1109.69 59.58 1113.25 Q61.4087 1116.8 65.0198 1116.8 Q68.6541 1116.8 70.4596 1113.25 Q72.2883 1109.69 72.2883 1102.58 Q72.2883 1095.45 70.4596 1091.91 Q68.6541 1088.35 65.0198 1088.35 M65.0198 1084.64 Q70.83 1084.64 73.8855 1089.25 Q76.9642 1093.83 76.9642 1102.58 Q76.9642 1111.31 73.8855 1115.92 Q70.83 1120.5 65.0198 1120.5 Q59.2097 1120.5 56.131 1115.92 Q53.0754 1111.31 53.0754 1102.58 Q53.0754 1093.83 56.131 1089.25 Q59.2097 1084.64 65.0198 1084.64 Z" fill="#000000" fill-rule="evenodd" fill-opacity="1" /><path clip-path="url(#clip770)" d="M85.1818 1113.95 L90.066 1113.95 L90.066 1119.83 L85.1818 1119.83 L85.1818 1113.95 Z" fill="#000000" fill-rule="evenodd" fill-opacity="1" /><path clip-path="url(#clip770)" d="M104.279 1115.89 L120.598 1115.89 L120.598 1119.83 L98.6539 1119.83 L98.6539 1115.89 Q101.316 1113.14 105.899 1108.51 Q110.506 1103.86 111.686 1102.51 Q113.932 1099.99 114.811 1098.25 Q115.714 1096.5 115.714 1094.81 Q115.714 1092.05 113.77 1090.32 Q111.848 1088.58 108.746 1088.58 Q106.547 1088.58 104.094 1089.34 Q101.663 1090.11 98.8854 1091.66 L98.8854 1086.94 Q101.709 1085.8 104.163 1085.22 Q106.617 1084.64 108.654 1084.64 Q114.024 1084.64 117.219 1087.33 Q120.413 1090.01 120.413 1094.5 Q120.413 1096.63 119.603 1098.56 Q118.816 1100.45 116.709 1103.05 Q116.131 1103.72 113.029 1106.94 Q109.927 1110.13 104.279 1115.89 Z" fill="#000000" fill-rule="evenodd" fill-opacity="1" /><path clip-path="url(#clip770)" d="M62.9365 888.804 Q59.3254 888.804 57.4967 892.369 Q55.6912 895.911 55.6912 903.04 Q55.6912 910.147 57.4967 913.712 Q59.3254 917.253 62.9365 917.253 Q66.5707 917.253 68.3763 913.712 Q70.205 910.147 70.205 903.04 Q70.205 895.911 68.3763 892.369 Q66.5707 888.804 62.9365 888.804 M62.9365 885.101 Q68.7467 885.101 71.8022 889.707 Q74.8809 894.29 74.8809 903.04 Q74.8809 911.767 71.8022 916.374 Q68.7467 920.957 62.9365 920.957 Q57.1264 920.957 54.0477 916.374 Q50.9921 911.767 50.9921 903.04 Q50.9921 894.29 54.0477 889.707 Q57.1264 885.101 62.9365 885.101 Z" fill="#000000" fill-rule="evenodd" fill-opacity="1" /><path clip-path="url(#clip770)" d="M83.0984 914.406 L87.9827 914.406 L87.9827 920.286 L83.0984 920.286 L83.0984 914.406 Z" fill="#000000" fill-rule="evenodd" fill-opacity="1" /><path clip-path="url(#clip770)" d="M111.015 889.8 L99.2095 908.249 L111.015 908.249 L111.015 889.8 M109.788 885.726 L115.668 885.726 L115.668 908.249 L120.598 908.249 L120.598 912.137 L115.668 912.137 L115.668 920.286 L111.015 920.286 L111.015 912.137 L95.4132 912.137 L95.4132 907.624 L109.788 885.726 Z" fill="#000000" fill-rule="evenodd" fill-opacity="1" /><path clip-path="url(#clip770)" d="M63.2606 689.261 Q59.6495 689.261 57.8208 692.826 Q56.0152 696.367 56.0152 703.497 Q56.0152 710.603 57.8208 714.168 Q59.6495 717.71 63.2606 717.71 Q66.8948 717.71 68.7004 714.168 Q70.5291 710.603 70.5291 703.497 Q70.5291 696.367 68.7004 692.826 Q66.8948 689.261 63.2606 689.261 M63.2606 685.557 Q69.0707 685.557 72.1263 690.164 Q75.205 694.747 75.205 703.497 Q75.205 712.224 72.1263 716.83 Q69.0707 721.414 63.2606 721.414 Q57.4504 721.414 54.3717 716.83 Q51.3162 712.224 51.3162 703.497 Q51.3162 694.747 54.3717 690.164 Q57.4504 685.557 63.2606 685.557 Z" fill="#000000" fill-rule="evenodd" fill-opacity="1" /><path clip-path="url(#clip770)" d="M83.4225 714.863 L88.3067 714.863 L88.3067 720.742 L83.4225 720.742 L83.4225 714.863 Z" fill="#000000" fill-rule="evenodd" fill-opacity="1" /><path clip-path="url(#clip770)" d="M109.071 701.599 Q105.922 701.599 104.071 703.752 Q102.242 705.904 102.242 709.654 Q102.242 713.381 104.071 715.557 Q105.922 717.71 109.071 717.71 Q112.219 717.71 114.047 715.557 Q115.899 713.381 115.899 709.654 Q115.899 705.904 114.047 703.752 Q112.219 701.599 109.071 701.599 M118.353 686.946 L118.353 691.205 Q116.594 690.372 114.788 689.932 Q113.006 689.492 111.246 689.492 Q106.617 689.492 104.163 692.617 Q101.733 695.742 101.385 702.062 Q102.751 700.048 104.811 698.983 Q106.871 697.895 109.348 697.895 Q114.557 697.895 117.566 701.066 Q120.598 704.215 120.598 709.654 Q120.598 714.978 117.45 718.196 Q114.302 721.414 109.071 721.414 Q103.075 721.414 99.9039 716.83 Q96.7326 712.224 96.7326 703.497 Q96.7326 695.303 100.621 690.442 Q104.51 685.557 111.061 685.557 Q112.82 685.557 114.603 685.905 Q116.408 686.252 118.353 686.946 Z" fill="#000000" fill-rule="evenodd" fill-opacity="1" /><path clip-path="url(#clip770)" d="M63.5152 489.718 Q59.9041 489.718 58.0754 493.282 Q56.2699 496.824 56.2699 503.954 Q56.2699 511.06 58.0754 514.625 Q59.9041 518.167 63.5152 518.167 Q67.1494 518.167 68.955 514.625 Q70.7837 511.06 70.7837 503.954 Q70.7837 496.824 68.955 493.282 Q67.1494 489.718 63.5152 489.718 M63.5152 486.014 Q69.3254 486.014 72.3809 490.62 Q75.4596 495.204 75.4596 503.954 Q75.4596 512.681 72.3809 517.287 Q69.3254 521.87 63.5152 521.87 Q57.7051 521.87 54.6264 517.287 Q51.5708 512.681 51.5708 503.954 Q51.5708 495.204 54.6264 490.62 Q57.7051 486.014 63.5152 486.014 Z" fill="#000000" fill-rule="evenodd" fill-opacity="1" /><path clip-path="url(#clip770)" d="M83.6771 515.319 L88.5614 515.319 L88.5614 521.199 L83.6771 521.199 L83.6771 515.319 Z" fill="#000000" fill-rule="evenodd" fill-opacity="1" /><path clip-path="url(#clip770)" d="M108.746 504.787 Q105.413 504.787 103.492 506.569 Q101.594 508.352 101.594 511.477 Q101.594 514.602 103.492 516.384 Q105.413 518.167 108.746 518.167 Q112.08 518.167 114.001 516.384 Q115.922 514.579 115.922 511.477 Q115.922 508.352 114.001 506.569 Q112.103 504.787 108.746 504.787 M104.071 502.796 Q101.061 502.056 99.3715 499.995 Q97.7048 497.935 97.7048 494.972 Q97.7048 490.829 100.645 488.421 Q103.608 486.014 108.746 486.014 Q113.908 486.014 116.848 488.421 Q119.788 490.829 119.788 494.972 Q119.788 497.935 118.098 499.995 Q116.432 502.056 113.445 502.796 Q116.825 503.583 118.7 505.875 Q120.598 508.167 120.598 511.477 Q120.598 516.5 117.52 519.185 Q114.464 521.87 108.746 521.87 Q103.029 521.87 99.9502 519.185 Q96.8947 516.5 96.8947 511.477 Q96.8947 508.167 98.7928 505.875 Q100.691 503.583 104.071 502.796 M102.358 495.412 Q102.358 498.097 104.024 499.602 Q105.714 501.107 108.746 501.107 Q111.756 501.107 113.445 499.602 Q115.158 498.097 115.158 495.412 Q115.158 492.727 113.445 491.222 Q111.756 489.718 108.746 489.718 Q105.714 489.718 104.024 491.222 Q102.358 492.727 102.358 495.412 Z" fill="#000000" fill-rule="evenodd" fill-opacity="1" /><path clip-path="url(#clip770)" d="M54.2328 317.721 L61.8717 317.721 L61.8717 291.355 L53.5616 293.022 L53.5616 288.762 L61.8254 287.096 L66.5013 287.096 L66.5013 317.721 L74.1402 317.721 L74.1402 321.656 L54.2328 321.656 L54.2328 317.721 Z" fill="#000000" fill-rule="evenodd" fill-opacity="1" /><path clip-path="url(#clip770)" d="M83.5845 315.776 L88.4688 315.776 L88.4688 321.656 L83.5845 321.656 L83.5845 315.776 Z" fill="#000000" fill-rule="evenodd" fill-opacity="1" /><path clip-path="url(#clip770)" d="M108.654 290.174 Q105.043 290.174 103.214 293.739 Q101.409 297.281 101.409 304.41 Q101.409 311.517 103.214 315.082 Q105.043 318.623 108.654 318.623 Q112.288 318.623 114.094 315.082 Q115.922 311.517 115.922 304.41 Q115.922 297.281 114.094 293.739 Q112.288 290.174 108.654 290.174 M108.654 286.471 Q114.464 286.471 117.52 291.077 Q120.598 295.66 120.598 304.41 Q120.598 313.137 117.52 317.744 Q114.464 322.327 108.654 322.327 Q102.844 322.327 99.765 317.744 Q96.7095 313.137 96.7095 304.41 Q96.7095 295.66 99.765 291.077 Q102.844 286.471 108.654 286.471 Z" fill="#000000" fill-rule="evenodd" fill-opacity="1" /><path clip-path="url(#clip770)" d="M55.8301 118.177 L63.4689 118.177 L63.4689 91.8117 L55.1588 93.4783 L55.1588 89.2191 L63.4226 87.5524 L68.0985 87.5524 L68.0985 118.177 L75.7374 118.177 L75.7374 122.112 L55.8301 122.112 L55.8301 118.177 Z" fill="#000000" fill-rule="evenodd" fill-opacity="1" /><path clip-path="url(#clip770)" d="M85.1818 116.233 L90.066 116.233 L90.066 122.112 L85.1818 122.112 L85.1818 116.233 Z" fill="#000000" fill-rule="evenodd" fill-opacity="1" /><path clip-path="url(#clip770)" d="M104.279 118.177 L120.598 118.177 L120.598 122.112 L98.6539 122.112 L98.6539 118.177 Q101.316 115.423 105.899 110.793 Q110.506 106.14 111.686 104.798 Q113.932 102.275 114.811 100.538 Q115.714 98.7792 115.714 97.0894 Q115.714 94.3348 113.77 92.5987 Q111.848 90.8626 108.746 90.8626 Q106.547 90.8626 104.094 91.6265 Q101.663 92.3904 98.8854 93.9413 L98.8854 89.2191 Q101.709 88.0848 104.163 87.5061 Q106.617 86.9274 108.654 86.9274 Q114.024 86.9274 117.219 89.6126 Q120.413 92.2978 120.413 96.7885 Q120.413 98.9181 119.603 100.839 Q118.816 102.738 116.709 105.33 Q116.131 106.001 113.029 109.219 Q109.927 112.413 104.279 118.177 Z" fill="#000000" fill-rule="evenodd" fill-opacity="1" /><polyline clip-path="url(#clip772)" style="stroke:#009af9; stroke-linecap:butt; stroke-linejoin:round; stroke-width:12; stroke-opacity:1; fill:none" points="
  218.754,1057.47 239.472,941.608 260.191,809.967 280.909,679.78 301.628,602.558 322.346,420.752 343.064,440.124 363.783,295.349 384.501,311.522 405.22,342.944 
  425.938,284.686 446.657,490.835 467.375,430.661 488.094,648.498 508.812,740.586 529.531,799.24 550.249,1058.14 570.968,1012.33 591.686,1223.23 612.405,1257.53 
  633.123,1244.02 653.841,1363.55 674.56,1247.03 695.278,1323.83 715.997,1326.46 736.715,1261.77 757.434,1315.84 778.152,1309.72 798.871,1307.7 819.589,1282 
  840.308,1260.04 861.026,1131.92 881.745,1077.79 902.463,1029.42 923.182,859.472 943.9,887.277 964.619,757.293 985.337,595.759 1006.06,711.363 1026.77,483.205 
  1047.49,354.854 1068.21,461.79 1088.93,289.061 1109.65,372.237 1130.37,580.018 1151.08,514.46 1171.8,625.724 1192.52,783.328 1213.24,797.499 1233.96,867.024 
  1254.68,966.34 1275.4,1091.46 1296.11,1112.38 1316.83,1144.46 1337.55,1373.92 1358.27,1345.49 1378.99,1136.34 1399.71,1357.47 1420.42,1445.72 1441.14,1220.97 
  1461.86,1158.97 1482.58,1380.16 1503.3,1417 1524.02,1402.13 1544.74,935.111 1565.45,494.996 1586.17,298.047 1606.89,385.539 1627.61,189.136 1648.33,335.531 
  1669.05,330.837 1689.76,324.374 1710.48,190.713 1731.2,420.786 1751.92,300.934 1772.64,235.725 1793.36,290.02 1814.08,414.013 1834.79,287.596 1855.51,163.722 
  1876.23,369.461 1896.95,425.797 1917.67,307.086 1938.39,87.9763 1959.11,256.561 1979.82,702.066 2000.54,1039.49 2021.26,1345.65 2041.98,1241.59 2062.7,1401.4 
  2083.42,1210.96 2104.13,1384.52 2124.85,1238.02 2145.57,1340.95 2166.29,1282.78 2187.01,1303.13 2207.73,1320.6 2228.45,1253.89 2249.16,1254.46 2269.88,1135.37 
  2290.6,1057.47 
  "/>
<path clip-path="url(#clip770)" d="
M229.803 198.898 L665.417 198.898 L665.417 95.2176 L229.803 95.2176  Z
  " fill="#ffffff" fill-rule="evenodd" fill-opacity="1"/>
<polyline clip-path="url(#clip770)" style="stroke:#000000; stroke-linecap:butt; stroke-linejoin:round; stroke-width:4; stroke-opacity:1; fill:none" points="
  229.803,198.898 665.417,198.898 665.417,95.2176 229.803,95.2176 229.803,198.898 
  "/>
<polyline clip-path="url(#clip770)" style="stroke:#009af9; stroke-linecap:butt; stroke-linejoin:round; stroke-width:4; stroke-opacity:1; fill:none" points="
  254.205,147.058 400.616,147.058 
  "/>
<path clip-path="url(#clip770)" d="M450.573 159.407 L450.573 150.125 L442.934 150.125 L442.934 146.282 L455.203 146.282 L455.203 161.12 Q452.494 163.041 449.23 164.037 Q445.966 165.009 442.263 165.009 Q434.161 165.009 429.578 160.287 Q425.018 155.541 425.018 147.092 Q425.018 138.62 429.578 133.898 Q434.161 129.153 442.263 129.153 Q445.642 129.153 448.675 129.986 Q451.73 130.819 454.3 132.44 L454.3 137.416 Q451.707 135.217 448.791 134.106 Q445.874 132.995 442.656 132.995 Q436.314 132.995 433.119 136.537 Q429.948 140.078 429.948 147.092 Q429.948 154.083 433.119 157.625 Q436.314 161.166 442.656 161.166 Q445.133 161.166 447.078 160.75 Q449.022 160.31 450.573 159.407 Z" fill="#000000" fill-rule="evenodd" fill-opacity="1" /><path clip-path="url(#clip770)" d="M475.341 151.305 Q470.179 151.305 468.189 152.486 Q466.198 153.666 466.198 156.514 Q466.198 158.782 467.679 160.125 Q469.184 161.444 471.753 161.444 Q475.295 161.444 477.425 158.944 Q479.577 156.421 479.577 152.254 L479.577 151.305 L475.341 151.305 M483.837 149.546 L483.837 164.338 L479.577 164.338 L479.577 160.402 Q478.119 162.763 475.943 163.898 Q473.767 165.009 470.619 165.009 Q466.638 165.009 464.277 162.787 Q461.939 160.541 461.939 156.791 Q461.939 152.416 464.855 150.194 Q467.795 147.972 473.605 147.972 L479.577 147.972 L479.577 147.555 Q479.577 144.615 477.633 143.018 Q475.712 141.398 472.216 141.398 Q469.994 141.398 467.888 141.93 Q465.781 142.463 463.837 143.527 L463.837 139.592 Q466.175 138.69 468.374 138.25 Q470.573 137.787 472.656 137.787 Q478.281 137.787 481.059 140.703 Q483.837 143.62 483.837 149.546 Z" fill="#000000" fill-rule="evenodd" fill-opacity="1" /><path clip-path="url(#clip770)" d="M492.61 128.319 L496.869 128.319 L496.869 164.338 L492.61 164.338 L492.61 128.319 Z" fill="#000000" fill-rule="evenodd" fill-opacity="1" /><path clip-path="url(#clip770)" d="M527.957 150.31 L527.957 152.393 L508.374 152.393 Q508.651 156.791 511.012 159.106 Q513.397 161.398 517.633 161.398 Q520.086 161.398 522.378 160.796 Q524.693 160.194 526.961 158.99 L526.961 163.018 Q524.67 163.99 522.262 164.5 Q519.855 165.009 517.378 165.009 Q511.174 165.009 507.54 161.398 Q503.929 157.787 503.929 151.629 Q503.929 145.264 507.355 141.537 Q510.804 137.787 516.637 137.787 Q521.869 137.787 524.901 141.166 Q527.957 144.523 527.957 150.31 M523.698 149.06 Q523.651 145.565 521.73 143.481 Q519.832 141.398 516.684 141.398 Q513.119 141.398 510.966 143.412 Q508.837 145.426 508.512 149.083 L523.698 149.06 Z" fill="#000000" fill-rule="evenodd" fill-opacity="1" /><path clip-path="url(#clip770)" d="M549.971 142.393 Q549.253 141.977 548.396 141.791 Q547.563 141.583 546.545 141.583 Q542.934 141.583 540.989 143.944 Q539.068 146.282 539.068 150.68 L539.068 164.338 L534.785 164.338 L534.785 138.412 L539.068 138.412 L539.068 142.44 Q540.41 140.078 542.563 138.944 Q544.716 137.787 547.795 137.787 Q548.234 137.787 548.767 137.856 Q549.299 137.903 549.947 138.018 L549.971 142.393 Z" fill="#000000" fill-rule="evenodd" fill-opacity="1" /><path clip-path="url(#clip770)" d="M554.276 128.319 L558.558 128.319 L558.558 149.592 L571.267 138.412 L576.707 138.412 L562.957 150.541 L577.285 164.338 L571.73 164.338 L558.558 151.676 L558.558 164.338 L554.276 164.338 L554.276 128.319 Z" fill="#000000" fill-rule="evenodd" fill-opacity="1" /><path clip-path="url(#clip770)" d="M581.892 138.412 L586.151 138.412 L586.151 164.338 L581.892 164.338 L581.892 138.412 M581.892 128.319 L586.151 128.319 L586.151 133.713 L581.892 133.713 L581.892 128.319 Z" fill="#000000" fill-rule="evenodd" fill-opacity="1" /><path clip-path="url(#clip770)" d="M616.614 148.689 L616.614 164.338 L612.354 164.338 L612.354 148.828 Q612.354 145.148 610.919 143.319 Q609.484 141.49 606.614 141.49 Q603.165 141.49 601.174 143.69 Q599.183 145.889 599.183 149.685 L599.183 164.338 L594.901 164.338 L594.901 138.412 L599.183 138.412 L599.183 142.44 Q600.711 140.102 602.771 138.944 Q604.855 137.787 607.563 137.787 Q612.03 137.787 614.322 140.565 Q616.614 143.319 616.614 148.689 Z" fill="#000000" fill-rule="evenodd" fill-opacity="1" /></svg>
