<?xml version="1.0" encoding="utf-8"?>
<svg xmlns="http://www.w3.org/2000/svg" xmlns:xlink="http://www.w3.org/1999/xlink" width="600" height="400" viewBox="0 0 2400 1600">
<defs>
  <clipPath id="clip020">
    <rect x="0" y="0" width="2400" height="1600"/>
  </clipPath>
</defs>
<path clip-path="url(#clip020)" d="
M0 1600 L2400 1600 L2400 0 L0 0  Z
  " fill="#ffffff" fill-rule="evenodd" fill-opacity="1"/>
<defs>
  <clipPath id="clip021">
    <rect x="480" y="0" width="1681" height="1600"/>
  </clipPath>
</defs>
<path clip-path="url(#clip020)" d="
M276.876 1410.9 L2352.76 1410.9 L2352.76 47.2441 L276.876 47.2441  Z
  " fill="#ffffff" fill-rule="evenodd" fill-opacity="1"/>
<defs>
  <clipPath id="clip022">
    <rect x="276" y="47" width="2077" height="1365"/>
  </clipPath>
</defs>
<polyline clip-path="url(#clip022)" style="stroke:#000000; stroke-linecap:butt; stroke-linejoin:round; stroke-width:2; stroke-opacity:0.1; fill:none" points="
  662.023,1410.9 662.023,47.2441 
  "/>
<polyline clip-path="url(#clip022)" style="stroke:#000000; stroke-linecap:butt; stroke-linejoin:round; stroke-width:2; stroke-opacity:0.1; fill:none" points="
  1746.29,1410.9 1746.29,47.2441 
  "/>
<polyline clip-path="url(#clip020)" style="stroke:#000000; stroke-linecap:butt; stroke-linejoin:round; stroke-width:4; stroke-opacity:1; fill:none" points="
  276.876,1410.9 2352.76,1410.9 
  "/>
<polyline clip-path="url(#clip020)" style="stroke:#000000; stroke-linecap:butt; stroke-linejoin:round; stroke-width:4; stroke-opacity:1; fill:none" points="
  662.023,1410.9 662.023,1392 
  "/>
<polyline clip-path="url(#clip020)" style="stroke:#000000; stroke-linecap:butt; stroke-linejoin:round; stroke-width:4; stroke-opacity:1; fill:none" points="
  1746.29,1410.9 1746.29,1392 
  "/>
<path clip-path="url(#clip020)" d="M627.006 1485.02 L634.645 1485.02 L634.645 1458.66 L626.335 1460.32 L626.335 1456.06 L634.599 1454.4 L639.274 1454.4 L639.274 1485.02 L646.913 1485.02 L646.913 1488.96 L627.006 1488.96 L627.006 1485.02 Z" fill="#000000" fill-rule="evenodd" fill-opacity="1" /><path clip-path="url(#clip020)" d="M666.358 1457.48 Q662.747 1457.48 660.918 1461.04 Q659.112 1464.58 659.112 1471.71 Q659.112 1478.82 660.918 1482.38 Q662.747 1485.92 666.358 1485.92 Q669.992 1485.92 671.797 1482.38 Q673.626 1478.82 673.626 1471.71 Q673.626 1464.58 671.797 1461.04 Q669.992 1457.48 666.358 1457.48 M666.358 1453.77 Q672.168 1453.77 675.223 1458.38 Q678.302 1462.96 678.302 1471.71 Q678.302 1480.44 675.223 1485.04 Q672.168 1489.63 666.358 1489.63 Q660.547 1489.63 657.469 1485.04 Q654.413 1480.44 654.413 1471.71 Q654.413 1462.96 657.469 1458.38 Q660.547 1453.77 666.358 1453.77 Z" fill="#000000" fill-rule="evenodd" fill-opacity="1" /><path clip-path="url(#clip020)" d="M688.007 1435.97 Q685.073 1435.97 683.587 1438.86 Q682.12 1441.74 682.12 1447.53 Q682.12 1453.31 683.587 1456.2 Q685.073 1459.08 688.007 1459.08 Q690.96 1459.08 692.427 1456.2 Q693.912 1453.31 693.912 1447.53 Q693.912 1441.74 692.427 1438.86 Q690.96 1435.97 688.007 1435.97 M688.007 1432.96 Q692.728 1432.96 695.21 1436.7 Q697.712 1440.43 697.712 1447.53 Q697.712 1454.62 695.21 1458.37 Q692.728 1462.09 688.007 1462.09 Q683.286 1462.09 680.785 1458.37 Q678.302 1454.62 678.302 1447.53 Q678.302 1440.43 680.785 1436.7 Q683.286 1432.96 688.007 1432.96 Z" fill="#000000" fill-rule="evenodd" fill-opacity="1" /><path clip-path="url(#clip020)" d="M1712.06 1485.02 L1719.7 1485.02 L1719.7 1458.66 L1711.39 1460.32 L1711.39 1456.06 L1719.65 1454.4 L1724.33 1454.4 L1724.33 1485.02 L1731.97 1485.02 L1731.97 1488.96 L1712.06 1488.96 L1712.06 1485.02 Z" fill="#000000" fill-rule="evenodd" fill-opacity="1" /><path clip-path="url(#clip020)" d="M1751.41 1457.48 Q1747.8 1457.48 1745.97 1461.04 Q1744.17 1464.58 1744.17 1471.71 Q1744.17 1478.82 1745.97 1482.38 Q1747.8 1485.92 1751.41 1485.92 Q1755.05 1485.92 1756.85 1482.38 Q1758.68 1478.82 1758.68 1471.71 Q1758.68 1464.58 1756.85 1461.04 Q1755.05 1457.48 1751.41 1457.48 M1751.41 1453.77 Q1757.22 1453.77 1760.28 1458.38 Q1763.36 1462.96 1763.36 1471.71 Q1763.36 1480.44 1760.28 1485.04 Q1757.22 1489.63 1751.41 1489.63 Q1745.6 1489.63 1742.52 1485.04 Q1739.47 1480.44 1739.47 1471.71 Q1739.47 1462.96 1742.52 1458.38 Q1745.6 1453.77 1751.41 1453.77 Z" fill="#000000" fill-rule="evenodd" fill-opacity="1" /><path clip-path="url(#clip020)" d="M1767.93 1458.35 L1781.19 1458.35 L1781.19 1461.55 L1763.36 1461.55 L1763.36 1458.35 Q1765.52 1456.11 1769.24 1452.35 Q1772.99 1448.57 1773.95 1447.48 Q1775.77 1445.43 1776.48 1444.02 Q1777.22 1442.59 1777.22 1441.22 Q1777.22 1438.98 1775.64 1437.57 Q1774.08 1436.16 1771.56 1436.16 Q1769.77 1436.16 1767.78 1436.78 Q1765.8 1437.4 1763.54 1438.66 L1763.54 1434.82 Q1765.84 1433.9 1767.83 1433.43 Q1769.83 1432.96 1771.48 1432.96 Q1775.85 1432.96 1778.44 1435.14 Q1781.04 1437.32 1781.04 1440.97 Q1781.04 1442.7 1780.38 1444.26 Q1779.74 1445.8 1778.03 1447.91 Q1777.56 1448.46 1775.04 1451.07 Q1772.52 1453.67 1767.93 1458.35 Z" fill="#000000" fill-rule="evenodd" fill-opacity="1" /><path clip-path="url(#clip020)" d="M981.475 1552.67 L981.475 1574.19 L975.619 1574.19 L975.619 1552.86 Q975.619 1547.8 973.646 1545.29 Q971.672 1542.77 967.726 1542.77 Q962.983 1542.77 960.246 1545.79 Q957.509 1548.82 957.509 1554.04 L957.509 1574.19 L951.62 1574.19 L951.62 1538.54 L957.509 1538.54 L957.509 1544.08 Q959.609 1540.86 962.442 1539.27 Q965.307 1537.68 969.031 1537.68 Q975.173 1537.68 978.324 1541.5 Q981.475 1545.29 981.475 1552.67 Z" fill="#000000" fill-rule="evenodd" fill-opacity="1" /><path clip-path="url(#clip020)" d="M992.552 1560.12 L992.552 1538.54 L998.408 1538.54 L998.408 1559.89 Q998.408 1564.96 1000.38 1567.5 Q1002.35 1570.02 1006.3 1570.02 Q1011.04 1570.02 1013.78 1566.99 Q1016.55 1563.97 1016.55 1558.75 L1016.55 1538.54 L1022.41 1538.54 L1022.41 1574.19 L1016.55 1574.19 L1016.55 1568.71 Q1014.42 1571.96 1011.59 1573.55 Q1008.78 1575.11 1005.06 1575.11 Q998.918 1575.11 995.735 1571.29 Q992.552 1567.47 992.552 1560.12 M1007.29 1537.68 L1007.29 1537.68 Z" fill="#000000" fill-rule="evenodd" fill-opacity="1" /><path clip-path="url(#clip020)" d="M1062.22 1545.38 Q1064.42 1541.43 1067.48 1539.56 Q1070.53 1537.68 1074.67 1537.68 Q1080.24 1537.68 1083.26 1541.59 Q1086.29 1545.48 1086.29 1552.67 L1086.29 1574.19 L1080.4 1574.19 L1080.4 1552.86 Q1080.4 1547.74 1078.58 1545.25 Q1076.77 1542.77 1073.05 1542.77 Q1068.49 1542.77 1065.85 1545.79 Q1063.21 1548.82 1063.21 1554.04 L1063.21 1574.19 L1057.32 1574.19 L1057.32 1552.86 Q1057.32 1547.7 1055.51 1545.25 Q1053.69 1542.77 1049.91 1542.77 Q1045.42 1542.77 1042.78 1545.83 Q1040.14 1548.85 1040.14 1554.04 L1040.14 1574.19 L1034.25 1574.19 L1034.25 1538.54 L1040.14 1538.54 L1040.14 1544.08 Q1042.14 1540.8 1044.94 1539.24 Q1047.74 1537.68 1051.59 1537.68 Q1055.48 1537.68 1058.18 1539.65 Q1060.92 1541.62 1062.22 1545.38 Z" fill="#000000" fill-rule="evenodd" fill-opacity="1" /><path clip-path="url(#clip020)" d="M1123.56 1556.39 Q1123.56 1549.93 1120.88 1546.27 Q1118.24 1542.58 1113.6 1542.58 Q1108.95 1542.58 1106.28 1546.27 Q1103.63 1549.93 1103.63 1556.39 Q1103.63 1562.85 1106.28 1566.55 Q1108.95 1570.21 1113.6 1570.21 Q1118.24 1570.21 1120.88 1566.55 Q1123.56 1562.85 1123.56 1556.39 M1103.63 1543.95 Q1105.48 1540.77 1108.28 1539.24 Q1111.11 1537.68 1115.03 1537.68 Q1121.52 1537.68 1125.56 1542.83 Q1129.64 1547.99 1129.64 1556.39 Q1129.64 1564.8 1125.56 1569.95 Q1121.52 1575.11 1115.03 1575.11 Q1111.11 1575.11 1108.28 1573.58 Q1105.48 1572.02 1103.63 1568.84 L1103.63 1574.19 L1097.75 1574.19 L1097.75 1524.66 L1103.63 1524.66 L1103.63 1543.95 Z" fill="#000000" fill-rule="evenodd" fill-opacity="1" /><path clip-path="url(#clip020)" d="M1169.84 1554.9 L1169.84 1557.76 L1142.91 1557.76 Q1143.29 1563.81 1146.54 1566.99 Q1149.82 1570.14 1155.64 1570.14 Q1159.02 1570.14 1162.17 1569.32 Q1165.35 1568.49 1168.47 1566.83 L1168.47 1572.37 Q1165.32 1573.71 1162.01 1574.41 Q1158.7 1575.11 1155.29 1575.11 Q1146.76 1575.11 1141.76 1570.14 Q1136.8 1565.18 1136.8 1556.71 Q1136.8 1547.96 1141.51 1542.83 Q1146.25 1537.68 1154.27 1537.68 Q1161.47 1537.68 1165.64 1542.33 Q1169.84 1546.94 1169.84 1554.9 M1163.98 1553.18 Q1163.92 1548.37 1161.27 1545.51 Q1158.66 1542.64 1154.34 1542.64 Q1149.43 1542.64 1146.47 1545.41 Q1143.55 1548.18 1143.1 1553.21 L1163.98 1553.18 Z" fill="#000000" fill-rule="evenodd" fill-opacity="1" /><path clip-path="url(#clip020)" d="M1200.11 1544.01 Q1199.12 1543.44 1197.94 1543.18 Q1196.8 1542.9 1195.4 1542.9 Q1190.43 1542.9 1187.76 1546.14 Q1185.11 1549.36 1185.11 1555.41 L1185.11 1574.19 L1179.23 1574.19 L1179.23 1538.54 L1185.11 1538.54 L1185.11 1544.08 Q1186.96 1540.83 1189.92 1539.27 Q1192.88 1537.68 1197.11 1537.68 Q1197.72 1537.68 1198.45 1537.77 Q1199.18 1537.84 1200.07 1538 L1200.11 1544.01 Z" fill="#000000" fill-rule="evenodd" fill-opacity="1" /><path clip-path="url(#clip020)" d="M1240.78 1542.64 Q1236.07 1542.64 1233.33 1546.34 Q1230.6 1550 1230.6 1556.39 Q1230.6 1562.79 1233.3 1566.48 Q1236.04 1570.14 1240.78 1570.14 Q1245.46 1570.14 1248.2 1566.45 Q1250.94 1562.76 1250.94 1556.39 Q1250.94 1550.06 1248.2 1546.37 Q1245.46 1542.64 1240.78 1542.64 M1240.78 1537.68 Q1248.42 1537.68 1252.78 1542.64 Q1257.14 1547.61 1257.14 1556.39 Q1257.14 1565.15 1252.78 1570.14 Q1248.42 1575.11 1240.78 1575.11 Q1233.11 1575.11 1228.75 1570.14 Q1224.42 1565.15 1224.42 1556.39 Q1224.42 1547.61 1228.75 1542.64 Q1233.11 1537.68 1240.78 1537.68 Z" fill="#000000" fill-rule="evenodd" fill-opacity="1" /><path clip-path="url(#clip020)" d="M1284.9 1524.66 L1284.9 1529.53 L1279.3 1529.53 Q1276.14 1529.53 1274.9 1530.8 Q1273.69 1532.08 1273.69 1535.39 L1273.69 1538.54 L1283.34 1538.54 L1283.34 1543.09 L1273.69 1543.09 L1273.69 1574.19 L1267.8 1574.19 L1267.8 1543.09 L1262.2 1543.09 L1262.2 1538.54 L1267.8 1538.54 L1267.8 1536.05 Q1267.8 1530.1 1270.57 1527.4 Q1273.34 1524.66 1279.36 1524.66 L1284.9 1524.66 Z" fill="#000000" fill-rule="evenodd" fill-opacity="1" /><path clip-path="url(#clip020)" d="M1341.01 1554.9 L1341.01 1557.76 L1314.08 1557.76 Q1314.47 1563.81 1317.71 1566.99 Q1320.99 1570.14 1326.82 1570.14 Q1330.19 1570.14 1333.34 1569.32 Q1336.52 1568.49 1339.64 1566.83 L1339.64 1572.37 Q1336.49 1573.71 1333.18 1574.41 Q1329.87 1575.11 1326.46 1575.11 Q1317.93 1575.11 1312.94 1570.14 Q1307.97 1565.18 1307.97 1556.71 Q1307.97 1547.96 1312.68 1542.83 Q1317.43 1537.68 1325.45 1537.68 Q1332.64 1537.68 1336.81 1542.33 Q1341.01 1546.94 1341.01 1554.9 M1335.15 1553.18 Q1335.09 1548.37 1332.45 1545.51 Q1329.84 1542.64 1325.51 1542.64 Q1320.61 1542.64 1317.65 1545.41 Q1314.72 1548.18 1314.27 1553.21 L1335.15 1553.18 Z" fill="#000000" fill-rule="evenodd" fill-opacity="1" /><path clip-path="url(#clip020)" d="M1346.42 1538.54 L1352.63 1538.54 L1363.77 1568.46 L1374.91 1538.54 L1381.11 1538.54 L1367.75 1574.19 L1359.79 1574.19 L1346.42 1538.54 Z" fill="#000000" fill-rule="evenodd" fill-opacity="1" /><path clip-path="url(#clip020)" d="M1405.4 1556.27 Q1398.3 1556.27 1395.56 1557.89 Q1392.83 1559.51 1392.83 1563.43 Q1392.83 1566.55 1394.86 1568.39 Q1396.93 1570.21 1400.47 1570.21 Q1405.34 1570.21 1408.26 1566.77 Q1411.22 1563.3 1411.22 1557.57 L1411.22 1556.27 L1405.4 1556.27 M1417.08 1553.85 L1417.08 1574.19 L1411.22 1574.19 L1411.22 1568.77 Q1409.22 1572.02 1406.23 1573.58 Q1403.24 1575.11 1398.91 1575.11 Q1393.43 1575.11 1390.19 1572.05 Q1386.97 1568.97 1386.97 1563.81 Q1386.97 1557.79 1390.98 1554.74 Q1395.02 1551.68 1403.01 1551.68 L1411.22 1551.68 L1411.22 1551.11 Q1411.22 1547.07 1408.55 1544.87 Q1405.91 1542.64 1401.1 1542.64 Q1398.05 1542.64 1395.15 1543.38 Q1392.25 1544.11 1389.58 1545.57 L1389.58 1540.16 Q1392.8 1538.92 1395.82 1538.31 Q1398.84 1537.68 1401.71 1537.68 Q1409.44 1537.68 1413.26 1541.69 Q1417.08 1545.7 1417.08 1553.85 Z" fill="#000000" fill-rule="evenodd" fill-opacity="1" /><path clip-path="url(#clip020)" d="M1429.14 1524.66 L1435 1524.66 L1435 1574.19 L1429.14 1574.19 L1429.14 1524.66 Z" fill="#000000" fill-rule="evenodd" fill-opacity="1" /><path clip-path="url(#clip020)" d="M1446.65 1560.12 L1446.65 1538.54 L1452.51 1538.54 L1452.51 1559.89 Q1452.51 1564.96 1454.48 1567.5 Q1456.45 1570.02 1460.4 1570.02 Q1465.14 1570.02 1467.88 1566.99 Q1470.65 1563.97 1470.65 1558.75 L1470.65 1538.54 L1476.5 1538.54 L1476.5 1574.19 L1470.65 1574.19 L1470.65 1568.71 Q1468.52 1571.96 1465.68 1573.55 Q1462.88 1575.11 1459.16 1575.11 Q1453.02 1575.11 1449.83 1571.29 Q1446.65 1567.47 1446.65 1560.12 M1461.39 1537.68 L1461.39 1537.68 Z" fill="#000000" fill-rule="evenodd" fill-opacity="1" /><path clip-path="url(#clip020)" d="M1504.77 1556.27 Q1497.67 1556.27 1494.93 1557.89 Q1492.2 1559.51 1492.2 1563.43 Q1492.2 1566.55 1494.23 1568.39 Q1496.3 1570.21 1499.83 1570.21 Q1504.7 1570.21 1507.63 1566.77 Q1510.59 1563.3 1510.59 1557.57 L1510.59 1556.27 L1504.77 1556.27 M1516.45 1553.85 L1516.45 1574.19 L1510.59 1574.19 L1510.59 1568.77 Q1508.59 1572.02 1505.6 1573.58 Q1502.6 1575.11 1498.28 1575.11 Q1492.8 1575.11 1489.55 1572.05 Q1486.34 1568.97 1486.34 1563.81 Q1486.34 1557.79 1490.35 1554.74 Q1494.39 1551.68 1502.38 1551.68 L1510.59 1551.68 L1510.59 1551.11 Q1510.59 1547.07 1507.92 1544.87 Q1505.28 1542.64 1500.47 1542.64 Q1497.42 1542.64 1494.52 1543.38 Q1491.62 1544.11 1488.95 1545.57 L1488.95 1540.16 Q1492.16 1538.92 1495.19 1538.31 Q1498.21 1537.68 1501.08 1537.68 Q1508.81 1537.68 1512.63 1541.69 Q1516.45 1545.7 1516.45 1553.85 Z" fill="#000000" fill-rule="evenodd" fill-opacity="1" /><path clip-path="url(#clip020)" d="M1534.31 1528.42 L1534.31 1538.54 L1546.37 1538.54 L1546.37 1543.09 L1534.31 1543.09 L1534.31 1562.44 Q1534.31 1566.8 1535.48 1568.04 Q1536.69 1569.28 1540.35 1569.28 L1546.37 1569.28 L1546.37 1574.19 L1540.35 1574.19 Q1533.57 1574.19 1531 1571.67 Q1528.42 1569.12 1528.42 1562.44 L1528.42 1543.09 L1524.12 1543.09 L1524.12 1538.54 L1528.42 1538.54 L1528.42 1528.42 L1534.31 1528.42 Z" fill="#000000" fill-rule="evenodd" fill-opacity="1" /><path clip-path="url(#clip020)" d="M1554.07 1538.54 L1559.93 1538.54 L1559.93 1574.19 L1554.07 1574.19 L1554.07 1538.54 M1554.07 1524.66 L1559.93 1524.66 L1559.93 1532.08 L1554.07 1532.08 L1554.07 1524.66 Z" fill="#000000" fill-rule="evenodd" fill-opacity="1" /><path clip-path="url(#clip020)" d="M1585.99 1542.64 Q1581.28 1542.64 1578.55 1546.34 Q1575.81 1550 1575.81 1556.39 Q1575.81 1562.79 1578.52 1566.48 Q1581.25 1570.14 1585.99 1570.14 Q1590.67 1570.14 1593.41 1566.45 Q1596.15 1562.76 1596.15 1556.39 Q1596.15 1550.06 1593.41 1546.37 Q1590.67 1542.64 1585.99 1542.64 M1585.99 1537.68 Q1593.63 1537.68 1597.99 1542.64 Q1602.35 1547.61 1602.35 1556.39 Q1602.35 1565.15 1597.99 1570.14 Q1593.63 1575.11 1585.99 1575.11 Q1578.32 1575.11 1573.96 1570.14 Q1569.63 1565.15 1569.63 1556.39 Q1569.63 1547.61 1573.96 1542.64 Q1578.32 1537.68 1585.99 1537.68 Z" fill="#000000" fill-rule="evenodd" fill-opacity="1" /><path clip-path="url(#clip020)" d="M1641.69 1552.67 L1641.69 1574.19 L1635.84 1574.19 L1635.84 1552.86 Q1635.84 1547.8 1633.86 1545.29 Q1631.89 1542.77 1627.94 1542.77 Q1623.2 1542.77 1620.47 1545.79 Q1617.73 1548.82 1617.73 1554.04 L1617.73 1574.19 L1611.84 1574.19 L1611.84 1538.54 L1617.73 1538.54 L1617.73 1544.08 Q1619.83 1540.86 1622.66 1539.27 Q1625.53 1537.68 1629.25 1537.68 Q1635.39 1537.68 1638.54 1541.5 Q1641.69 1545.29 1641.69 1552.67 Z" fill="#000000" fill-rule="evenodd" fill-opacity="1" /><path clip-path="url(#clip020)" d="M1676.1 1539.59 L1676.1 1545.13 Q1673.62 1543.85 1670.95 1543.22 Q1668.27 1542.58 1665.41 1542.58 Q1661.05 1542.58 1658.85 1543.92 Q1656.69 1545.25 1656.69 1547.93 Q1656.69 1549.96 1658.25 1551.14 Q1659.81 1552.29 1664.52 1553.34 L1666.52 1553.78 Q1672.76 1555.12 1675.37 1557.57 Q1678.01 1559.99 1678.01 1564.35 Q1678.01 1569.32 1674.06 1572.21 Q1670.15 1575.11 1663.27 1575.11 Q1660.41 1575.11 1657.29 1574.54 Q1654.2 1573.99 1650.77 1572.88 L1650.77 1566.83 Q1654.01 1568.52 1657.16 1569.38 Q1660.31 1570.21 1663.4 1570.21 Q1667.54 1570.21 1669.77 1568.81 Q1672 1567.37 1672 1564.8 Q1672 1562.41 1670.37 1561.14 Q1668.78 1559.86 1663.34 1558.68 L1661.3 1558.21 Q1655.86 1557.06 1653.44 1554.71 Q1651.02 1552.32 1651.02 1548.18 Q1651.02 1543.15 1654.59 1540.42 Q1658.15 1537.68 1664.71 1537.68 Q1667.95 1537.68 1670.82 1538.16 Q1673.68 1538.63 1676.1 1539.59 Z" fill="#000000" fill-rule="evenodd" fill-opacity="1" /><polyline clip-path="url(#clip022)" style="stroke:#000000; stroke-linecap:butt; stroke-linejoin:round; stroke-width:2; stroke-opacity:0.1; fill:none" points="
  276.876,1237.83 2352.76,1237.83 
  "/>
<polyline clip-path="url(#clip022)" style="stroke:#000000; stroke-linecap:butt; stroke-linejoin:round; stroke-width:2; stroke-opacity:0.1; fill:none" points="
  276.876,693.423 2352.76,693.423 
  "/>
<polyline clip-path="url(#clip022)" style="stroke:#000000; stroke-linecap:butt; stroke-linejoin:round; stroke-width:2; stroke-opacity:0.1; fill:none" points="
  276.876,149.02 2352.76,149.02 
  "/>
<polyline clip-path="url(#clip020)" style="stroke:#000000; stroke-linecap:butt; stroke-linejoin:round; stroke-width:4; stroke-opacity:1; fill:none" points="
  276.876,1410.9 276.876,47.2441 
  "/>
<polyline clip-path="url(#clip020)" style="stroke:#000000; stroke-linecap:butt; stroke-linejoin:round; stroke-width:4; stroke-opacity:1; fill:none" points="
  276.876,1237.83 295.773,1237.83 
  "/>
<polyline clip-path="url(#clip020)" style="stroke:#000000; stroke-linecap:butt; stroke-linejoin:round; stroke-width:4; stroke-opacity:1; fill:none" points="
  276.876,693.423 295.773,693.423 
  "/>
<polyline clip-path="url(#clip020)" style="stroke:#000000; stroke-linecap:butt; stroke-linejoin:round; stroke-width:4; stroke-opacity:1; fill:none" points="
  276.876,149.02 295.773,149.02 
  "/>
<path clip-path="url(#clip020)" d="M114.931 1257.62 L122.57 1257.62 L122.57 1231.25 L114.26 1232.92 L114.26 1228.66 L122.524 1226.99 L127.2 1226.99 L127.2 1257.62 L134.839 1257.62 L134.839 1261.55 L114.931 1261.55 L114.931 1257.62 Z" fill="#000000" fill-rule="evenodd" fill-opacity="1" /><path clip-path="url(#clip020)" d="M154.283 1230.07 Q150.672 1230.07 148.843 1233.64 Q147.038 1237.18 147.038 1244.31 Q147.038 1251.42 148.843 1254.98 Q150.672 1258.52 154.283 1258.52 Q157.917 1258.52 159.723 1254.98 Q161.552 1251.42 161.552 1244.31 Q161.552 1237.18 159.723 1233.64 Q157.917 1230.07 154.283 1230.07 M154.283 1226.37 Q160.093 1226.37 163.149 1230.98 Q166.227 1235.56 166.227 1244.31 Q166.227 1253.04 163.149 1257.64 Q160.093 1262.23 154.283 1262.23 Q148.473 1262.23 145.394 1257.64 Q142.339 1253.04 142.339 1244.31 Q142.339 1235.56 145.394 1230.98 Q148.473 1226.37 154.283 1226.37 Z" fill="#000000" fill-rule="evenodd" fill-opacity="1" /><path clip-path="url(#clip020)" d="M166.227 1220.47 L190.339 1220.47 L190.339 1223.67 L166.227 1223.67 L166.227 1220.47 Z" fill="#000000" fill-rule="evenodd" fill-opacity="1" /><path clip-path="url(#clip020)" d="M199.197 1230.95 L205.404 1230.95 L205.404 1209.52 L198.652 1210.88 L198.652 1207.42 L205.366 1206.06 L209.166 1206.06 L209.166 1230.95 L215.372 1230.95 L215.372 1234.14 L199.197 1234.14 L199.197 1230.95 Z" fill="#000000" fill-rule="evenodd" fill-opacity="1" /><path clip-path="url(#clip020)" d="M231.171 1208.56 Q228.237 1208.56 226.751 1211.46 Q225.284 1214.34 225.284 1220.13 Q225.284 1225.91 226.751 1228.8 Q228.237 1231.68 231.171 1231.68 Q234.124 1231.68 235.591 1228.8 Q237.076 1225.91 237.076 1220.13 Q237.076 1214.34 235.591 1211.46 Q234.124 1208.56 231.171 1208.56 M231.171 1205.56 Q235.891 1205.56 238.374 1209.3 Q240.876 1213.02 240.876 1220.13 Q240.876 1227.22 238.374 1230.96 Q235.891 1234.69 231.171 1234.69 Q226.45 1234.69 223.949 1230.96 Q221.466 1227.22 221.466 1220.13 Q221.466 1213.02 223.949 1209.3 Q226.45 1205.56 231.171 1205.56 Z" fill="#000000" fill-rule="evenodd" fill-opacity="1" /><path clip-path="url(#clip020)" d="M140.247 713.215 L147.886 713.215 L147.886 686.85 L139.575 688.517 L139.575 684.257 L147.839 682.591 L152.515 682.591 L152.515 713.215 L160.154 713.215 L160.154 717.151 L140.247 717.151 L140.247 713.215 Z" fill="#000000" fill-rule="evenodd" fill-opacity="1" /><path clip-path="url(#clip020)" d="M179.598 685.669 Q175.987 685.669 174.159 689.234 Q172.353 692.776 172.353 699.905 Q172.353 707.012 174.159 710.577 Q175.987 714.118 179.598 714.118 Q183.233 714.118 185.038 710.577 Q186.867 707.012 186.867 699.905 Q186.867 692.776 185.038 689.234 Q183.233 685.669 179.598 685.669 M179.598 681.966 Q185.409 681.966 188.464 686.572 Q191.543 691.155 191.543 699.905 Q191.543 708.632 188.464 713.239 Q185.409 717.822 179.598 717.822 Q173.788 717.822 170.71 713.239 Q167.654 708.632 167.654 699.905 Q167.654 691.155 170.71 686.572 Q173.788 681.966 179.598 681.966 Z" fill="#000000" fill-rule="evenodd" fill-opacity="1" /><path clip-path="url(#clip020)" d="M191.543 676.067 L215.654 676.067 L215.654 679.264 L191.543 679.264 L191.543 676.067 Z" fill="#000000" fill-rule="evenodd" fill-opacity="1" /><path clip-path="url(#clip020)" d="M223.892 661.66 L238.807 661.66 L238.807 664.858 L227.372 664.858 L227.372 671.741 Q228.199 671.459 229.027 671.327 Q229.854 671.177 230.682 671.177 Q235.384 671.177 238.13 673.754 Q240.876 676.33 240.876 680.731 Q240.876 685.264 238.054 687.784 Q235.233 690.286 230.099 690.286 Q228.331 690.286 226.488 689.985 Q224.663 689.684 222.707 689.082 L222.707 685.264 Q224.4 686.186 226.205 686.637 Q228.011 687.088 230.023 687.088 Q233.277 687.088 235.177 685.377 Q237.076 683.665 237.076 680.731 Q237.076 677.797 235.177 676.086 Q233.277 674.374 230.023 674.374 Q228.5 674.374 226.977 674.713 Q225.472 675.051 223.892 675.766 L223.892 661.66 Z" fill="#000000" fill-rule="evenodd" fill-opacity="1" /><path clip-path="url(#clip020)" d="M170.17 168.812 L177.809 168.812 L177.809 142.447 L169.499 144.113 L169.499 139.854 L177.762 138.187 L182.438 138.187 L182.438 168.812 L190.077 168.812 L190.077 172.747 L170.17 172.747 L170.17 168.812 Z" fill="#000000" fill-rule="evenodd" fill-opacity="1" /><path clip-path="url(#clip020)" d="M209.522 141.266 Q205.91 141.266 204.082 144.831 Q202.276 148.372 202.276 155.502 Q202.276 162.609 204.082 166.173 Q205.91 169.715 209.522 169.715 Q213.156 169.715 214.961 166.173 Q216.79 162.609 216.79 155.502 Q216.79 148.372 214.961 144.831 Q213.156 141.266 209.522 141.266 M209.522 137.562 Q215.332 137.562 218.387 142.169 Q221.466 146.752 221.466 155.502 Q221.466 164.229 218.387 168.835 Q215.332 173.419 209.522 173.419 Q203.711 173.419 200.633 168.835 Q197.577 164.229 197.577 155.502 Q197.577 146.752 200.633 142.169 Q203.711 137.562 209.522 137.562 Z" fill="#000000" fill-rule="evenodd" fill-opacity="1" /><path clip-path="url(#clip020)" d="M231.171 119.758 Q228.237 119.758 226.751 122.655 Q225.284 125.532 225.284 131.325 Q225.284 137.099 226.751 139.996 Q228.237 142.873 231.171 142.873 Q234.124 142.873 235.591 139.996 Q237.076 137.099 237.076 131.325 Q237.076 125.532 235.591 122.655 Q234.124 119.758 231.171 119.758 M231.171 116.749 Q235.891 116.749 238.374 120.492 Q240.876 124.216 240.876 131.325 Q240.876 138.416 238.374 142.158 Q235.891 145.882 231.171 145.882 Q226.45 145.882 223.949 142.158 Q221.466 138.416 221.466 131.325 Q221.466 124.216 223.949 120.492 Q226.45 116.749 231.171 116.749 Z" fill="#000000" fill-rule="evenodd" fill-opacity="1" /><path clip-path="url(#clip020)" d="M44.7161 773.137 L47.5806 773.137 L47.5806 800.064 Q53.6281 799.682 56.8109 796.435 Q59.9619 793.157 59.9619 787.332 Q59.9619 783.959 59.1344 780.808 Q58.3069 777.625 56.6518 774.506 L62.1899 774.506 Q63.5267 777.657 64.227 780.967 Q64.9272 784.277 64.9272 787.683 Q64.9272 796.213 59.9619 801.21 Q54.9967 806.175 46.5303 806.175 Q37.7774 806.175 32.6531 801.464 Q27.4968 796.722 27.4968 788.701 Q27.4968 781.508 32.1438 777.338 Q36.7589 773.137 44.7161 773.137 M42.9973 778.993 Q38.1912 779.057 35.3266 781.699 Q32.4621 784.309 32.4621 788.637 Q32.4621 793.539 35.2312 796.499 Q38.0002 799.427 43.0292 799.873 L42.9973 778.993 Z" fill="#000000" fill-rule="evenodd" fill-opacity="1" /><path clip-path="url(#clip020)" d="M33.8307 742.868 Q33.2578 743.855 33.0032 745.032 Q32.7167 746.178 32.7167 747.579 Q32.7167 752.544 35.9632 755.218 Q39.1779 757.859 45.2253 757.859 L64.0042 757.859 L64.0042 763.748 L28.3562 763.748 L28.3562 757.859 L33.8944 757.859 Q30.6479 756.013 29.0883 753.053 Q27.4968 750.093 27.4968 745.86 Q27.4968 745.255 27.5923 744.523 Q27.656 743.791 27.8151 742.9 L33.8307 742.868 Z" fill="#000000" fill-rule="evenodd" fill-opacity="1" /><path clip-path="url(#clip020)" d="M33.8307 717.214 Q33.2578 718.201 33.0032 719.379 Q32.7167 720.524 32.7167 721.925 Q32.7167 726.89 35.9632 729.564 Q39.1779 732.205 45.2253 732.205 L64.0042 732.205 L64.0042 738.094 L28.3562 738.094 L28.3562 732.205 L33.8944 732.205 Q30.6479 730.359 29.0883 727.399 Q27.4968 724.439 27.4968 720.206 Q27.4968 719.601 27.5923 718.869 Q27.656 718.137 27.8151 717.246 L33.8307 717.214 Z" fill="#000000" fill-rule="evenodd" fill-opacity="1" /><path clip-path="url(#clip020)" d="M32.4621 698.69 Q32.4621 703.401 36.1542 706.138 Q39.8145 708.875 46.212 708.875 Q52.6095 708.875 56.3017 706.17 Q59.9619 703.432 59.9619 698.69 Q59.9619 694.011 56.2698 691.274 Q52.5777 688.537 46.212 688.537 Q39.8781 688.537 36.186 691.274 Q32.4621 694.011 32.4621 698.69 M27.4968 698.69 Q27.4968 691.051 32.4621 686.691 Q37.4273 682.33 46.212 682.33 Q54.9649 682.33 59.9619 686.691 Q64.9272 691.051 64.9272 698.69 Q64.9272 706.361 59.9619 710.721 Q54.9649 715.05 46.212 715.05 Q37.4273 715.05 32.4621 710.721 Q27.4968 706.361 27.4968 698.69 Z" fill="#000000" fill-rule="evenodd" fill-opacity="1" /><path clip-path="url(#clip020)" d="M33.8307 651.966 Q33.2578 652.952 33.0032 654.13 Q32.7167 655.276 32.7167 656.676 Q32.7167 661.642 35.9632 664.315 Q39.1779 666.957 45.2253 666.957 L64.0042 666.957 L64.0042 672.845 L28.3562 672.845 L28.3562 666.957 L33.8944 666.957 Q30.6479 665.111 29.0883 662.151 Q27.4968 659.191 27.4968 654.958 Q27.4968 654.353 27.5923 653.621 Q27.656 652.889 27.8151 651.998 L33.8307 651.966 Z" fill="#000000" fill-rule="evenodd" fill-opacity="1" /><polyline clip-path="url(#clip022)" style="stroke:#009af9; stroke-linecap:butt; stroke-linejoin:round; stroke-width:12; stroke-opacity:1; fill:none" points="
  335.627,85.838 498.825,85.838 662.023,129.327 825.221,177.391 988.419,246.675 1151.62,312.832 1314.82,378.452 1478.01,444.008 1641.21,509.56 1804.41,575.112 
  1967.61,640.665 2130.81,706.218 
  "/>
<line clip-path="url(#clip022)" x1="335.627" y1="85.838" x2="335.627" y2="69.838" style="stroke:#009af9; stroke-width:3.2; stroke-opacity:1"/>
<line clip-path="url(#clip022)" x1="335.627" y1="85.838" x2="319.627" y2="85.838" style="stroke:#009af9; stroke-width:3.2; stroke-opacity:1"/>
<line clip-path="url(#clip022)" x1="335.627" y1="85.838" x2="335.627" y2="101.838" style="stroke:#009af9; stroke-width:3.2; stroke-opacity:1"/>
<line clip-path="url(#clip022)" x1="335.627" y1="85.838" x2="351.627" y2="85.838" style="stroke:#009af9; stroke-width:3.2; stroke-opacity:1"/>
<line clip-path="url(#clip022)" x1="498.825" y1="85.838" x2="498.825" y2="69.838" style="stroke:#009af9; stroke-width:3.2; stroke-opacity:1"/>
<line clip-path="url(#clip022)" x1="498.825" y1="85.838" x2="482.825" y2="85.838" style="stroke:#009af9; stroke-width:3.2; stroke-opacity:1"/>
<line clip-path="url(#clip022)" x1="498.825" y1="85.838" x2="498.825" y2="101.838" style="stroke:#009af9; stroke-width:3.2; stroke-opacity:1"/>
<line clip-path="url(#clip022)" x1="498.825" y1="85.838" x2="514.825" y2="85.838" style="stroke:#009af9; stroke-width:3.2; stroke-opacity:1"/>
<line clip-path="url(#clip022)" x1="662.023" y1="129.327" x2="662.023" y2="113.327" style="stroke:#009af9; stroke-width:3.2; stroke-opacity:1"/>
<line clip-path="url(#clip022)" x1="662.023" y1="129.327" x2="646.023" y2="129.327" style="stroke:#009af9; stroke-width:3.2; stroke-opacity:1"/>
<line clip-path="url(#clip022)" x1="662.023" y1="129.327" x2="662.023" y2="145.327" style="stroke:#009af9; stroke-width:3.2; stroke-opacity:1"/>
<line clip-path="url(#clip022)" x1="662.023" y1="129.327" x2="678.023" y2="129.327" style="stroke:#009af9; stroke-width:3.2; stroke-opacity:1"/>
<line clip-path="url(#clip022)" x1="825.221" y1="177.391" x2="825.221" y2="161.391" style="stroke:#009af9; stroke-width:3.2; stroke-opacity:1"/>
<line clip-path="url(#clip022)" x1="825.221" y1="177.391" x2="809.221" y2="177.391" style="stroke:#009af9; stroke-width:3.2; stroke-opacity:1"/>
<line clip-path="url(#clip022)" x1="825.221" y1="177.391" x2="825.221" y2="193.391" style="stroke:#009af9; stroke-width:3.2; stroke-opacity:1"/>
<line clip-path="url(#clip022)" x1="825.221" y1="177.391" x2="841.221" y2="177.391" style="stroke:#009af9; stroke-width:3.2; stroke-opacity:1"/>
<line clip-path="url(#clip022)" x1="988.419" y1="246.675" x2="988.419" y2="230.675" style="stroke:#009af9; stroke-width:3.2; stroke-opacity:1"/>
<line clip-path="url(#clip022)" x1="988.419" y1="246.675" x2="972.419" y2="246.675" style="stroke:#009af9; stroke-width:3.2; stroke-opacity:1"/>
<line clip-path="url(#clip022)" x1="988.419" y1="246.675" x2="988.419" y2="262.675" style="stroke:#009af9; stroke-width:3.2; stroke-opacity:1"/>
<line clip-path="url(#clip022)" x1="988.419" y1="246.675" x2="1004.42" y2="246.675" style="stroke:#009af9; stroke-width:3.2; stroke-opacity:1"/>
<line clip-path="url(#clip022)" x1="1151.62" y1="312.832" x2="1151.62" y2="296.832" style="stroke:#009af9; stroke-width:3.2; stroke-opacity:1"/>
<line clip-path="url(#clip022)" x1="1151.62" y1="312.832" x2="1135.62" y2="312.832" style="stroke:#009af9; stroke-width:3.2; stroke-opacity:1"/>
<line clip-path="url(#clip022)" x1="1151.62" y1="312.832" x2="1151.62" y2="328.832" style="stroke:#009af9; stroke-width:3.2; stroke-opacity:1"/>
<line clip-path="url(#clip022)" x1="1151.62" y1="312.832" x2="1167.62" y2="312.832" style="stroke:#009af9; stroke-width:3.2; stroke-opacity:1"/>
<line clip-path="url(#clip022)" x1="1314.82" y1="378.452" x2="1314.82" y2="362.452" style="stroke:#009af9; stroke-width:3.2; stroke-opacity:1"/>
<line clip-path="url(#clip022)" x1="1314.82" y1="378.452" x2="1298.82" y2="378.452" style="stroke:#009af9; stroke-width:3.2; stroke-opacity:1"/>
<line clip-path="url(#clip022)" x1="1314.82" y1="378.452" x2="1314.82" y2="394.452" style="stroke:#009af9; stroke-width:3.2; stroke-opacity:1"/>
<line clip-path="url(#clip022)" x1="1314.82" y1="378.452" x2="1330.82" y2="378.452" style="stroke:#009af9; stroke-width:3.2; stroke-opacity:1"/>
<line clip-path="url(#clip022)" x1="1478.01" y1="444.008" x2="1478.01" y2="428.008" style="stroke:#009af9; stroke-width:3.2; stroke-opacity:1"/>
<line clip-path="url(#clip022)" x1="1478.01" y1="444.008" x2="1462.01" y2="444.008" style="stroke:#009af9; stroke-width:3.2; stroke-opacity:1"/>
<line clip-path="url(#clip022)" x1="1478.01" y1="444.008" x2="1478.01" y2="460.008" style="stroke:#009af9; stroke-width:3.2; stroke-opacity:1"/>
<line clip-path="url(#clip022)" x1="1478.01" y1="444.008" x2="1494.01" y2="444.008" style="stroke:#009af9; stroke-width:3.2; stroke-opacity:1"/>
<line clip-path="url(#clip022)" x1="1641.21" y1="509.56" x2="1641.21" y2="493.56" style="stroke:#009af9; stroke-width:3.2; stroke-opacity:1"/>
<line clip-path="url(#clip022)" x1="1641.21" y1="509.56" x2="1625.21" y2="509.56" style="stroke:#009af9; stroke-width:3.2; stroke-opacity:1"/>
<line clip-path="url(#clip022)" x1="1641.21" y1="509.56" x2="1641.21" y2="525.56" style="stroke:#009af9; stroke-width:3.2; stroke-opacity:1"/>
<line clip-path="url(#clip022)" x1="1641.21" y1="509.56" x2="1657.21" y2="509.56" style="stroke:#009af9; stroke-width:3.2; stroke-opacity:1"/>
<line clip-path="url(#clip022)" x1="1804.41" y1="575.112" x2="1804.41" y2="559.112" style="stroke:#009af9; stroke-width:3.2; stroke-opacity:1"/>
<line clip-path="url(#clip022)" x1="1804.41" y1="575.112" x2="1788.41" y2="575.112" style="stroke:#009af9; stroke-width:3.2; stroke-opacity:1"/>
<line clip-path="url(#clip022)" x1="1804.41" y1="575.112" x2="1804.41" y2="591.112" style="stroke:#009af9; stroke-width:3.2; stroke-opacity:1"/>
<line clip-path="url(#clip022)" x1="1804.41" y1="575.112" x2="1820.41" y2="575.112" style="stroke:#009af9; stroke-width:3.2; stroke-opacity:1"/>
<line clip-path="url(#clip022)" x1="1967.61" y1="640.665" x2="1967.61" y2="624.665" style="stroke:#009af9; stroke-width:3.2; stroke-opacity:1"/>
<line clip-path="url(#clip022)" x1="1967.61" y1="640.665" x2="1951.61" y2="640.665" style="stroke:#009af9; stroke-width:3.2; stroke-opacity:1"/>
<line clip-path="url(#clip022)" x1="1967.61" y1="640.665" x2="1967.61" y2="656.665" style="stroke:#009af9; stroke-width:3.2; stroke-opacity:1"/>
<line clip-path="url(#clip022)" x1="1967.61" y1="640.665" x2="1983.61" y2="640.665" style="stroke:#009af9; stroke-width:3.2; stroke-opacity:1"/>
<line clip-path="url(#clip022)" x1="2130.81" y1="706.218" x2="2130.81" y2="690.218" style="stroke:#009af9; stroke-width:3.2; stroke-opacity:1"/>
<line clip-path="url(#clip022)" x1="2130.81" y1="706.218" x2="2114.81" y2="706.218" style="stroke:#009af9; stroke-width:3.2; stroke-opacity:1"/>
<line clip-path="url(#clip022)" x1="2130.81" y1="706.218" x2="2130.81" y2="722.218" style="stroke:#009af9; stroke-width:3.2; stroke-opacity:1"/>
<line clip-path="url(#clip022)" x1="2130.81" y1="706.218" x2="2146.81" y2="706.218" style="stroke:#009af9; stroke-width:3.2; stroke-opacity:1"/>
<polyline clip-path="url(#clip022)" style="stroke:#e26f46; stroke-linecap:butt; stroke-linejoin:round; stroke-width:12; stroke-opacity:1; fill:none" points="
  498.825,119.799 662.023,119.799 825.221,212.65 988.419,324.21 1151.62,454.688 1314.82,585.694 1478.01,716.777 1641.21,847.876 1804.41,978.98 1967.61,1110.09 
  2130.81,1241.19 2294,1372.3 
  "/>
<circle clip-path="url(#clip022)" cx="498.825" cy="119.799" r="14.4" fill="#e26f46" fill-rule="evenodd" fill-opacity="1" stroke="#000000" stroke-opacity="1" stroke-width="3.2"/>
<circle clip-path="url(#clip022)" cx="662.023" cy="119.799" r="14.4" fill="#e26f46" fill-rule="evenodd" fill-opacity="1" stroke="#000000" stroke-opacity="1" stroke-width="3.2"/>
<circle clip-path="url(#clip022)" cx="825.221" cy="212.65" r="14.4" fill="#e26f46" fill-rule="evenodd" fill-opacity="1" stroke="#000000" stroke-opacity="1" stroke-width="3.2"/>
<circle clip-path="url(#clip022)" cx="988.419" cy="324.21" r="14.4" fill="#e26f46" fill-rule="evenodd" fill-opacity="1" stroke="#000000" stroke-opacity="1" stroke-width="3.2"/>
<circle clip-path="url(#clip022)" cx="1151.62" cy="454.688" r="14.4" fill="#e26f46" fill-rule="evenodd" fill-opacity="1" stroke="#000000" stroke-opacity="1" stroke-width="3.2"/>
<circle clip-path="url(#clip022)" cx="1314.82" cy="585.694" r="14.4" fill="#e26f46" fill-rule="evenodd" fill-opacity="1" stroke="#000000" stroke-opacity="1" stroke-width="3.2"/>
<circle clip-path="url(#clip022)" cx="1478.01" cy="716.777" r="14.4" fill="#e26f46" fill-rule="evenodd" fill-opacity="1" stroke="#000000" stroke-opacity="1" stroke-width="3.2"/>
<circle clip-path="url(#clip022)" cx="1641.21" cy="847.876" r="14.4" fill="#e26f46" fill-rule="evenodd" fill-opacity="1" stroke="#000000" stroke-opacity="1" stroke-width="3.2"/>
<circle clip-path="url(#clip022)" cx="1804.41" cy="978.98" r="14.4" fill="#e26f46" fill-rule="evenodd" fill-opacity="1" stroke="#000000" stroke-opacity="1" stroke-width="3.2"/>
<circle clip-path="url(#clip022)" cx="1967.61" cy="1110.09" r="14.4" fill="#e26f46" fill-rule="evenodd" fill-opacity="1" stroke="#000000" stroke-opacity="1" stroke-width="3.2"/>
<circle clip-path="url(#clip022)" cx="2130.81" cy="1241.19" r="14.4" fill="#e26f46" fill-rule="evenodd" fill-opacity="1" stroke="#000000" stroke-opacity="1" stroke-width="3.2"/>
<circle clip-path="url(#clip022)" cx="2294" cy="1372.3" r="14.4" fill="#e26f46" fill-rule="evenodd" fill-opacity="1" stroke="#000000" stroke-opacity="1" stroke-width="3.2"/>
<path clip-path="url(#clip020)" d="
M1941.93 248.219 L2283.56 248.219 L2283.56 92.6992 L1941.93 92.6992  Z
  " fill="#ffffff" fill-rule="evenodd" fill-opacity="1"/>
<polyline clip-path="url(#clip020)" style="stroke:#000000; stroke-linecap:butt; stroke-linejoin:round; stroke-width:4; stroke-opacity:1; fill:none" points="
  1941.93,248.219 2283.56,248.219 2283.56,92.6992 1941.93,92.6992 1941.93,248.219 
  "/>
<polyline clip-path="url(#clip020)" style="stroke:#009af9; stroke-linecap:butt; stroke-linejoin:round; stroke-width:4; stroke-opacity:1; fill:none" points="
  1965,144.539 2103.39,144.539 
  "/>
<line clip-path="url(#clip020)" x1="2034.2" y1="144.539" x2="2034.2" y2="118.939" style="stroke:#009af9; stroke-width:5.12; stroke-opacity:1"/>
<line clip-path="url(#clip020)" x1="2034.2" y1="144.539" x2="2008.6" y2="144.539" style="stroke:#009af9; stroke-width:5.12; stroke-opacity:1"/>
<line clip-path="url(#clip020)" x1="2034.2" y1="144.539" x2="2034.2" y2="170.139" style="stroke:#009af9; stroke-width:5.12; stroke-opacity:1"/>
<line clip-path="url(#clip020)" x1="2034.2" y1="144.539" x2="2059.8" y2="144.539" style="stroke:#009af9; stroke-width:5.12; stroke-opacity:1"/>
<path clip-path="url(#clip020)" d="M2148.17 146.171 L2148.17 161.819 L2143.91 161.819 L2143.91 146.31 Q2143.91 142.629 2142.48 140.801 Q2141.04 138.972 2138.17 138.972 Q2134.72 138.972 2132.73 141.171 Q2130.74 143.37 2130.74 147.166 L2130.74 161.819 L2126.46 161.819 L2126.46 125.801 L2130.74 125.801 L2130.74 139.921 Q2132.27 137.583 2134.33 136.426 Q2136.41 135.268 2139.12 135.268 Q2143.59 135.268 2145.88 138.046 Q2148.17 140.801 2148.17 146.171 Z" fill="#000000" fill-rule="evenodd" fill-opacity="1" /><path clip-path="url(#clip020)" d="M2178.84 147.791 L2178.84 149.875 L2159.26 149.875 Q2159.54 154.273 2161.9 156.588 Q2164.28 158.879 2168.52 158.879 Q2170.97 158.879 2173.26 158.278 Q2175.58 157.676 2177.85 156.472 L2177.85 160.5 Q2175.55 161.472 2173.15 161.981 Q2170.74 162.49 2168.26 162.49 Q2162.06 162.49 2158.43 158.879 Q2154.81 155.268 2154.81 149.111 Q2154.81 142.745 2158.24 139.018 Q2161.69 135.268 2167.52 135.268 Q2172.75 135.268 2175.79 138.648 Q2178.84 142.004 2178.84 147.791 M2174.58 146.541 Q2174.54 143.046 2172.61 140.963 Q2170.72 138.879 2167.57 138.879 Q2164 138.879 2161.85 140.893 Q2159.72 142.907 2159.4 146.565 L2174.58 146.541 Z" fill="#000000" fill-rule="evenodd" fill-opacity="1" /><path clip-path="url(#clip020)" d="M2185.39 151.588 L2185.39 135.893 L2189.65 135.893 L2189.65 151.426 Q2189.65 155.106 2191.09 156.958 Q2192.52 158.787 2195.39 158.787 Q2198.84 158.787 2200.83 156.588 Q2202.85 154.389 2202.85 150.592 L2202.85 135.893 L2207.11 135.893 L2207.11 161.819 L2202.85 161.819 L2202.85 157.838 Q2201.3 160.199 2199.23 161.356 Q2197.2 162.49 2194.49 162.49 Q2190.02 162.49 2187.71 159.713 Q2185.39 156.935 2185.39 151.588 M2196.11 135.268 L2196.11 135.268 Z" fill="#000000" fill-rule="evenodd" fill-opacity="1" /><path clip-path="url(#clip020)" d="M2237.43 146.171 L2237.43 161.819 L2233.17 161.819 L2233.17 146.31 Q2233.17 142.629 2231.73 140.801 Q2230.3 138.972 2227.43 138.972 Q2223.98 138.972 2221.99 141.171 Q2220 143.37 2220 147.166 L2220 161.819 L2215.72 161.819 L2215.72 135.893 L2220 135.893 L2220 139.921 Q2221.53 137.583 2223.59 136.426 Q2225.67 135.268 2228.38 135.268 Q2232.85 135.268 2235.14 138.046 Q2237.43 140.801 2237.43 146.171 Z" fill="#000000" fill-rule="evenodd" fill-opacity="1" /><polyline clip-path="url(#clip020)" style="stroke:#e26f46; stroke-linecap:butt; stroke-linejoin:round; stroke-width:4; stroke-opacity:1; fill:none" points="
  1965,196.379 2103.39,196.379 
  "/>
<circle clip-path="url(#clip020)" cx="2034.2" cy="196.379" r="23.04" fill="#e26f46" fill-rule="evenodd" fill-opacity="1" stroke="#000000" stroke-opacity="1" stroke-width="5.12"/>
<path clip-path="url(#clip020)" d="M2141.64 191.715 Q2140.93 191.298 2140.07 191.113 Q2139.24 190.905 2138.22 190.905 Q2134.61 190.905 2132.66 193.266 Q2130.74 195.604 2130.74 200.002 L2130.74 213.659 L2126.46 213.659 L2126.46 187.733 L2130.74 187.733 L2130.74 191.761 Q2132.08 189.4 2134.24 188.266 Q2136.39 187.108 2139.47 187.108 Q2139.91 187.108 2140.44 187.178 Q2140.97 187.224 2141.62 187.34 L2141.64 191.715 Z" fill="#000000" fill-rule="evenodd" fill-opacity="1" /><path clip-path="url(#clip020)" d="M2145.95 177.641 L2150.23 177.641 L2150.23 198.914 L2162.94 187.733 L2168.38 187.733 L2154.63 199.863 L2168.96 213.659 L2163.4 213.659 L2150.23 200.997 L2150.23 213.659 L2145.95 213.659 L2145.95 177.641 Z" fill="#000000" fill-rule="evenodd" fill-opacity="1" /><path clip-path="url(#clip020)" d="M2187.01 183.173 L2175.21 201.622 L2187.01 201.622 L2187.01 183.173 M2185.79 179.099 L2191.67 179.099 L2191.67 201.622 L2196.6 201.622 L2196.6 205.511 L2191.67 205.511 L2191.67 213.659 L2187.01 213.659 L2187.01 205.511 L2171.41 205.511 L2171.41 200.997 L2185.79 179.099 Z" fill="#000000" fill-rule="evenodd" fill-opacity="1" /></svg>
