<?xml version="1.0" encoding="utf-8"?>
<svg xmlns="http://www.w3.org/2000/svg" xmlns:xlink="http://www.w3.org/1999/xlink" width="600" height="400" viewBox="0 0 2400 1600">
<defs>
  <clipPath id="clip010">
    <rect x="0" y="0" width="2400" height="1600"/>
  </clipPath>
</defs>
<path clip-path="url(#clip010)" d="
M0 1600 L2400 1600 L2400 0 L0 0  Z
  " fill="#ffffff" fill-rule="evenodd" fill-opacity="1"/>
<defs>
  <clipPath id="clip011">
    <rect x="480" y="0" width="1681" height="1600"/>
  </clipPath>
</defs>
<path clip-path="url(#clip010)" d="
M193.936 1486.45 L2352.76 1486.45 L2352.76 47.2441 L193.936 47.2441  Z
  " fill="#ffffff" fill-rule="evenodd" fill-opacity="1"/>
<defs>
  <clipPath id="clip012">
    <rect x="193" y="47" width="2160" height="1440"/>
  </clipPath>
</defs>
<polyline clip-path="url(#clip012)" style="stroke:#000000; stroke-linecap:butt; stroke-linejoin:round; stroke-width:2; stroke-opacity:0.1; fill:none" points="
  255.035,1486.45 255.035,47.2441 
  "/>
<polyline clip-path="url(#clip012)" style="stroke:#000000; stroke-linecap:butt; stroke-linejoin:round; stroke-width:2; stroke-opacity:0.1; fill:none" points="
  662.359,1486.45 662.359,47.2441 
  "/>
<polyline clip-path="url(#clip012)" style="stroke:#000000; stroke-linecap:butt; stroke-linejoin:round; stroke-width:2; stroke-opacity:0.1; fill:none" points="
  1069.68,1486.45 1069.68,47.2441 
  "/>
<polyline clip-path="url(#clip012)" style="stroke:#000000; stroke-linecap:butt; stroke-linejoin:round; stroke-width:2; stroke-opacity:0.1; fill:none" points="
  1477.01,1486.45 1477.01,47.2441 
  "/>
<polyline clip-path="url(#clip012)" style="stroke:#000000; stroke-linecap:butt; stroke-linejoin:round; stroke-width:2; stroke-opacity:0.1; fill:none" points="
  1884.33,1486.45 1884.33,47.2441 
  "/>
<polyline clip-path="url(#clip012)" style="stroke:#000000; stroke-linecap:butt; stroke-linejoin:round; stroke-width:2; stroke-opacity:0.1; fill:none" points="
  2291.66,1486.45 2291.66,47.2441 
  "/>
<polyline clip-path="url(#clip010)" style="stroke:#000000; stroke-linecap:butt; stroke-linejoin:round; stroke-width:4; stroke-opacity:1; fill:none" points="
  193.936,1486.45 2352.76,1486.45 
  "/>
<polyline clip-path="url(#clip010)" style="stroke:#000000; stroke-linecap:butt; stroke-linejoin:round; stroke-width:4; stroke-opacity:1; fill:none" points="
  255.035,1486.45 255.035,1467.55 
  "/>
<polyline clip-path="url(#clip010)" style="stroke:#000000; stroke-linecap:butt; stroke-linejoin:round; stroke-width:4; stroke-opacity:1; fill:none" points="
  662.359,1486.45 662.359,1467.55 
  "/>
<polyline clip-path="url(#clip010)" style="stroke:#000000; stroke-linecap:butt; stroke-linejoin:round; stroke-width:4; stroke-opacity:1; fill:none" points="
  1069.68,1486.45 1069.68,1467.55 
  "/>
<polyline clip-path="url(#clip010)" style="stroke:#000000; stroke-linecap:butt; stroke-linejoin:round; stroke-width:4; stroke-opacity:1; fill:none" points="
  1477.01,1486.45 1477.01,1467.55 
  "/>
<polyline clip-path="url(#clip010)" style="stroke:#000000; stroke-linecap:butt; stroke-linejoin:round; stroke-width:4; stroke-opacity:1; fill:none" points="
  1884.33,1486.45 1884.33,1467.55 
  "/>
<polyline clip-path="url(#clip010)" style="stroke:#000000; stroke-linecap:butt; stroke-linejoin:round; stroke-width:4; stroke-opacity:1; fill:none" points="
  2291.66,1486.45 2291.66,1467.55 
  "/>
<path clip-path="url(#clip010)" d="M255.035 1517.37 Q251.424 1517.37 249.595 1520.93 Q247.789 1524.47 247.789 1531.6 Q247.789 1538.71 249.595 1542.27 Q251.424 1545.82 255.035 1545.82 Q258.669 1545.82 260.474 1542.27 Q262.303 1538.71 262.303 1531.6 Q262.303 1524.47 260.474 1520.93 Q258.669 1517.37 255.035 1517.37 M255.035 1513.66 Q260.845 1513.66 263.9 1518.27 Q266.979 1522.85 266.979 1531.6 Q266.979 1540.33 263.9 1544.94 Q260.845 1549.52 255.035 1549.52 Q249.225 1549.52 246.146 1544.94 Q243.09 1540.33 243.09 1531.6 Q243.09 1522.85 246.146 1518.27 Q249.225 1513.66 255.035 1513.66 Z" fill="#000000" fill-rule="evenodd" fill-opacity="1" /><path clip-path="url(#clip010)" d="M652.741 1544.91 L660.38 1544.91 L660.38 1518.55 L652.07 1520.21 L652.07 1515.95 L660.334 1514.29 L665.01 1514.29 L665.01 1544.91 L672.648 1544.91 L672.648 1548.85 L652.741 1548.85 L652.741 1544.91 Z" fill="#000000" fill-rule="evenodd" fill-opacity="1" /><path clip-path="url(#clip010)" d="M1064.34 1544.91 L1080.66 1544.91 L1080.66 1548.85 L1058.71 1548.85 L1058.71 1544.91 Q1061.37 1542.16 1065.96 1537.53 Q1070.56 1532.88 1071.74 1531.53 Q1073.99 1529.01 1074.87 1527.27 Q1075.77 1525.51 1075.77 1523.82 Q1075.77 1521.07 1073.83 1519.33 Q1071.91 1517.6 1068.8 1517.6 Q1066.61 1517.6 1064.15 1518.36 Q1061.72 1519.13 1058.94 1520.68 L1058.94 1515.95 Q1061.77 1514.82 1064.22 1514.24 Q1066.67 1513.66 1068.71 1513.66 Q1074.08 1513.66 1077.28 1516.35 Q1080.47 1519.03 1080.47 1523.52 Q1080.47 1525.65 1079.66 1527.57 Q1078.87 1529.47 1076.77 1532.07 Q1076.19 1532.74 1073.09 1535.95 Q1069.98 1539.15 1064.34 1544.91 Z" fill="#000000" fill-rule="evenodd" fill-opacity="1" /><path clip-path="url(#clip010)" d="M1481.26 1530.21 Q1484.61 1530.93 1486.49 1533.2 Q1488.39 1535.47 1488.39 1538.8 Q1488.39 1543.92 1484.87 1546.72 Q1481.35 1549.52 1474.87 1549.52 Q1472.69 1549.52 1470.38 1549.08 Q1468.08 1548.66 1465.63 1547.81 L1465.63 1543.29 Q1467.58 1544.43 1469.89 1545.01 Q1472.2 1545.58 1474.73 1545.58 Q1479.13 1545.58 1481.42 1543.85 Q1483.73 1542.11 1483.73 1538.8 Q1483.73 1535.75 1481.58 1534.03 Q1479.45 1532.3 1475.63 1532.3 L1471.6 1532.3 L1471.6 1528.45 L1475.82 1528.45 Q1479.27 1528.45 1481.09 1527.09 Q1482.92 1525.7 1482.92 1523.11 Q1482.92 1520.45 1481.02 1519.03 Q1479.15 1517.6 1475.63 1517.6 Q1473.71 1517.6 1471.51 1518.01 Q1469.31 1518.43 1466.67 1519.31 L1466.67 1515.14 Q1469.33 1514.4 1471.65 1514.03 Q1473.99 1513.66 1476.05 1513.66 Q1481.37 1513.66 1484.47 1516.09 Q1487.58 1518.5 1487.58 1522.62 Q1487.58 1525.49 1485.93 1527.48 Q1484.29 1529.45 1481.26 1530.21 Z" fill="#000000" fill-rule="evenodd" fill-opacity="1" /><path clip-path="url(#clip010)" d="M1887.34 1518.36 L1875.54 1536.81 L1887.34 1536.81 L1887.34 1518.36 M1886.12 1514.29 L1891.99 1514.29 L1891.99 1536.81 L1896.93 1536.81 L1896.93 1540.7 L1891.99 1540.7 L1891.99 1548.85 L1887.34 1548.85 L1887.34 1540.7 L1871.74 1540.7 L1871.74 1536.19 L1886.12 1514.29 Z" fill="#000000" fill-rule="evenodd" fill-opacity="1" /><path clip-path="url(#clip010)" d="M2281.94 1514.29 L2300.29 1514.29 L2300.29 1518.22 L2286.22 1518.22 L2286.22 1526.7 Q2287.24 1526.35 2288.25 1526.19 Q2289.27 1526 2290.29 1526 Q2296.08 1526 2299.46 1529.17 Q2302.84 1532.34 2302.84 1537.76 Q2302.84 1543.34 2299.37 1546.44 Q2295.89 1549.52 2289.57 1549.52 Q2287.4 1549.52 2285.13 1549.15 Q2282.88 1548.78 2280.48 1548.04 L2280.48 1543.34 Q2282.56 1544.47 2284.78 1545.03 Q2287 1545.58 2289.48 1545.58 Q2293.49 1545.58 2295.82 1543.48 Q2298.16 1541.37 2298.16 1537.76 Q2298.16 1534.15 2295.82 1532.04 Q2293.49 1529.94 2289.48 1529.94 Q2287.61 1529.94 2285.73 1530.35 Q2283.88 1530.77 2281.94 1531.65 L2281.94 1514.29 Z" fill="#000000" fill-rule="evenodd" fill-opacity="1" /><polyline clip-path="url(#clip012)" style="stroke:#000000; stroke-linecap:butt; stroke-linejoin:round; stroke-width:2; stroke-opacity:0.1; fill:none" points="
  193.936,1445.79 2352.76,1445.79 
  "/>
<polyline clip-path="url(#clip012)" style="stroke:#000000; stroke-linecap:butt; stroke-linejoin:round; stroke-width:2; stroke-opacity:0.1; fill:none" points="
  193.936,1106.33 2352.76,1106.33 
  "/>
<polyline clip-path="url(#clip012)" style="stroke:#000000; stroke-linecap:butt; stroke-linejoin:round; stroke-width:2; stroke-opacity:0.1; fill:none" points="
  193.936,766.881 2352.76,766.881 
  "/>
<polyline clip-path="url(#clip012)" style="stroke:#000000; stroke-linecap:butt; stroke-linejoin:round; stroke-width:2; stroke-opacity:0.1; fill:none" points="
  193.936,427.428 2352.76,427.428 
  "/>
<polyline clip-path="url(#clip012)" style="stroke:#000000; stroke-linecap:butt; stroke-linejoin:round; stroke-width:2; stroke-opacity:0.1; fill:none" points="
  193.936,87.9763 2352.76,87.9763 
  "/>
<polyline clip-path="url(#clip010)" style="stroke:#000000; stroke-linecap:butt; stroke-linejoin:round; stroke-width:4; stroke-opacity:1; fill:none" points="
  193.936,1486.45 193.936,47.2441 
  "/>
<polyline clip-path="url(#clip010)" style="stroke:#000000; stroke-linecap:butt; stroke-linejoin:round; stroke-width:4; stroke-opacity:1; fill:none" points="
  193.936,1445.79 212.834,1445.79 
  "/>
<polyline clip-path="url(#clip010)" style="stroke:#000000; stroke-linecap:butt; stroke-linejoin:round; stroke-width:4; stroke-opacity:1; fill:none" points="
  193.936,1106.33 212.834,1106.33 
  "/>
<polyline clip-path="url(#clip010)" style="stroke:#000000; stroke-linecap:butt; stroke-linejoin:round; stroke-width:4; stroke-opacity:1; fill:none" points="
  193.936,766.881 212.834,766.881 
  "/>
<polyline clip-path="url(#clip010)" style="stroke:#000000; stroke-linecap:butt; stroke-linejoin:round; stroke-width:4; stroke-opacity:1; fill:none" points="
  193.936,427.428 212.834,427.428 
  "/>
<polyline clip-path="url(#clip010)" style="stroke:#000000; stroke-linecap:butt; stroke-linejoin:round; stroke-width:4; stroke-opacity:1; fill:none" points="
  193.936,87.9763 212.834,87.9763 
  "/>
<path clip-path="url(#clip010)" d="M50.9921 1446.24 L80.6679 1446.24 L80.6679 1450.17 L50.9921 1450.17 L50.9921 1446.24 Z" fill="#000000" fill-rule="evenodd" fill-opacity="1" /><path clip-path="url(#clip010)" d="M91.5706 1459.13 L99.2095 1459.13 L99.2095 1432.76 L90.8993 1434.43 L90.8993 1430.17 L99.1632 1428.51 L103.839 1428.51 L103.839 1459.13 L111.478 1459.13 L111.478 1463.07 L91.5706 1463.07 L91.5706 1459.13 Z" fill="#000000" fill-rule="evenodd" fill-opacity="1" /><path clip-path="url(#clip010)" d="M120.922 1457.19 L125.807 1457.19 L125.807 1463.07 L120.922 1463.07 L120.922 1457.19 Z" fill="#000000" fill-rule="evenodd" fill-opacity="1" /><path clip-path="url(#clip010)" d="M145.992 1431.58 Q142.381 1431.58 140.552 1435.15 Q138.746 1438.69 138.746 1445.82 Q138.746 1452.93 140.552 1456.49 Q142.381 1460.03 145.992 1460.03 Q149.626 1460.03 151.431 1456.49 Q153.26 1452.93 153.26 1445.82 Q153.26 1438.69 151.431 1435.15 Q149.626 1431.58 145.992 1431.58 M145.992 1427.88 Q151.802 1427.88 154.857 1432.49 Q157.936 1437.07 157.936 1445.82 Q157.936 1454.55 154.857 1459.15 Q151.802 1463.74 145.992 1463.74 Q140.181 1463.74 137.103 1459.15 Q134.047 1454.55 134.047 1445.82 Q134.047 1437.07 137.103 1432.49 Q140.181 1427.88 145.992 1427.88 Z" fill="#000000" fill-rule="evenodd" fill-opacity="1" /><path clip-path="url(#clip010)" d="M51.9875 1106.78 L81.6633 1106.78 L81.6633 1110.72 L51.9875 1110.72 L51.9875 1106.78 Z" fill="#000000" fill-rule="evenodd" fill-opacity="1" /><path clip-path="url(#clip010)" d="M101.756 1092.13 Q98.1447 1092.13 96.316 1095.7 Q94.5104 1099.24 94.5104 1106.37 Q94.5104 1113.47 96.316 1117.04 Q98.1447 1120.58 101.756 1120.58 Q105.39 1120.58 107.196 1117.04 Q109.024 1113.47 109.024 1106.37 Q109.024 1099.24 107.196 1095.7 Q105.39 1092.13 101.756 1092.13 M101.756 1088.43 Q107.566 1088.43 110.621 1093.03 Q113.7 1097.62 113.7 1106.37 Q113.7 1115.09 110.621 1119.7 Q107.566 1124.28 101.756 1124.28 Q95.9456 1124.28 92.8669 1119.7 Q89.8114 1115.09 89.8114 1106.37 Q89.8114 1097.62 92.8669 1093.03 Q95.9456 1088.43 101.756 1088.43 Z" fill="#000000" fill-rule="evenodd" fill-opacity="1" /><path clip-path="url(#clip010)" d="M121.918 1117.73 L126.802 1117.73 L126.802 1123.61 L121.918 1123.61 L121.918 1117.73 Z" fill="#000000" fill-rule="evenodd" fill-opacity="1" /><path clip-path="url(#clip010)" d="M137.033 1089.05 L155.39 1089.05 L155.39 1092.99 L141.316 1092.99 L141.316 1101.46 Q142.334 1101.11 143.353 1100.95 Q144.371 1100.77 145.39 1100.77 Q151.177 1100.77 154.556 1103.94 Q157.936 1107.11 157.936 1112.52 Q157.936 1118.1 154.464 1121.21 Q150.992 1124.28 144.672 1124.28 Q142.496 1124.28 140.228 1123.91 Q137.982 1123.54 135.575 1122.8 L135.575 1118.1 Q137.658 1119.24 139.881 1119.79 Q142.103 1120.35 144.58 1120.35 Q148.584 1120.35 150.922 1118.24 Q153.26 1116.14 153.26 1112.52 Q153.26 1108.91 150.922 1106.81 Q148.584 1104.7 144.58 1104.7 Q142.705 1104.7 140.83 1105.12 Q138.978 1105.53 137.033 1106.41 L137.033 1089.05 Z" fill="#000000" fill-rule="evenodd" fill-opacity="1" /><path clip-path="url(#clip010)" d="M100.76 752.679 Q97.1493 752.679 95.3206 756.244 Q93.515 759.786 93.515 766.915 Q93.515 774.022 95.3206 777.587 Q97.1493 781.128 100.76 781.128 Q104.395 781.128 106.2 777.587 Q108.029 774.022 108.029 766.915 Q108.029 759.786 106.2 756.244 Q104.395 752.679 100.76 752.679 M100.76 748.976 Q106.571 748.976 109.626 753.582 Q112.705 758.165 112.705 766.915 Q112.705 775.642 109.626 780.249 Q106.571 784.832 100.76 784.832 Q94.9502 784.832 91.8715 780.249 Q88.816 775.642 88.816 766.915 Q88.816 758.165 91.8715 753.582 Q94.9502 748.976 100.76 748.976 Z" fill="#000000" fill-rule="evenodd" fill-opacity="1" /><path clip-path="url(#clip010)" d="M120.922 778.281 L125.807 778.281 L125.807 784.161 L120.922 784.161 L120.922 778.281 Z" fill="#000000" fill-rule="evenodd" fill-opacity="1" /><path clip-path="url(#clip010)" d="M145.992 752.679 Q142.381 752.679 140.552 756.244 Q138.746 759.786 138.746 766.915 Q138.746 774.022 140.552 777.587 Q142.381 781.128 145.992 781.128 Q149.626 781.128 151.431 777.587 Q153.26 774.022 153.26 766.915 Q153.26 759.786 151.431 756.244 Q149.626 752.679 145.992 752.679 M145.992 748.976 Q151.802 748.976 154.857 753.582 Q157.936 758.165 157.936 766.915 Q157.936 775.642 154.857 780.249 Q151.802 784.832 145.992 784.832 Q140.181 784.832 137.103 780.249 Q134.047 775.642 134.047 766.915 Q134.047 758.165 137.103 753.582 Q140.181 748.976 145.992 748.976 Z" fill="#000000" fill-rule="evenodd" fill-opacity="1" /><path clip-path="url(#clip010)" d="M101.756 413.227 Q98.1447 413.227 96.316 416.792 Q94.5104 420.334 94.5104 427.463 Q94.5104 434.57 96.316 438.134 Q98.1447 441.676 101.756 441.676 Q105.39 441.676 107.196 438.134 Q109.024 434.57 109.024 427.463 Q109.024 420.334 107.196 416.792 Q105.39 413.227 101.756 413.227 M101.756 409.523 Q107.566 409.523 110.621 414.13 Q113.7 418.713 113.7 427.463 Q113.7 436.19 110.621 440.796 Q107.566 445.38 101.756 445.38 Q95.9456 445.38 92.8669 440.796 Q89.8114 436.19 89.8114 427.463 Q89.8114 418.713 92.8669 414.13 Q95.9456 409.523 101.756 409.523 Z" fill="#000000" fill-rule="evenodd" fill-opacity="1" /><path clip-path="url(#clip010)" d="M121.918 438.829 L126.802 438.829 L126.802 444.708 L121.918 444.708 L121.918 438.829 Z" fill="#000000" fill-rule="evenodd" fill-opacity="1" /><path clip-path="url(#clip010)" d="M137.033 410.148 L155.39 410.148 L155.39 414.084 L141.316 414.084 L141.316 422.556 Q142.334 422.209 143.353 422.047 Q144.371 421.861 145.39 421.861 Q151.177 421.861 154.556 425.033 Q157.936 428.204 157.936 433.621 Q157.936 439.199 154.464 442.301 Q150.992 445.38 144.672 445.38 Q142.496 445.38 140.228 445.009 Q137.982 444.639 135.575 443.898 L135.575 439.199 Q137.658 440.333 139.881 440.889 Q142.103 441.445 144.58 441.445 Q148.584 441.445 150.922 439.338 Q153.26 437.232 153.26 433.621 Q153.26 430.009 150.922 427.903 Q148.584 425.797 144.58 425.797 Q142.705 425.797 140.83 426.213 Q138.978 426.63 137.033 427.509 L137.033 410.148 Z" fill="#000000" fill-rule="evenodd" fill-opacity="1" /><path clip-path="url(#clip010)" d="M91.5706 101.321 L99.2095 101.321 L99.2095 74.9555 L90.8993 76.6222 L90.8993 72.3629 L99.1632 70.6963 L103.839 70.6963 L103.839 101.321 L111.478 101.321 L111.478 105.256 L91.5706 105.256 L91.5706 101.321 Z" fill="#000000" fill-rule="evenodd" fill-opacity="1" /><path clip-path="url(#clip010)" d="M120.922 99.3767 L125.807 99.3767 L125.807 105.256 L120.922 105.256 L120.922 99.3767 Z" fill="#000000" fill-rule="evenodd" fill-opacity="1" /><path clip-path="url(#clip010)" d="M145.992 73.775 Q142.381 73.775 140.552 77.3398 Q138.746 80.8814 138.746 88.011 Q138.746 95.1174 140.552 98.6822 Q142.381 102.224 145.992 102.224 Q149.626 102.224 151.431 98.6822 Q153.26 95.1174 153.26 88.011 Q153.26 80.8814 151.431 77.3398 Q149.626 73.775 145.992 73.775 M145.992 70.0713 Q151.802 70.0713 154.857 74.6777 Q157.936 79.261 157.936 88.011 Q157.936 96.7378 154.857 101.344 Q151.802 105.928 145.992 105.928 Q140.181 105.928 137.103 101.344 Q134.047 96.7378 134.047 88.011 Q134.047 79.261 137.103 74.6777 Q140.181 70.0713 145.992 70.0713 Z" fill="#000000" fill-rule="evenodd" fill-opacity="1" /><circle clip-path="url(#clip012)" cx="255.035" cy="631.1" r="14.4" fill="#009af9" fill-rule="evenodd" fill-opacity="1" stroke="#000000" stroke-opacity="1" stroke-width="3.2"/>
<circle clip-path="url(#clip012)" cx="458.697" cy="171.178" r="14.4" fill="#009af9" fill-rule="evenodd" fill-opacity="1" stroke="#000000" stroke-opacity="1" stroke-width="3.2"/>
<circle clip-path="url(#clip012)" cx="662.359" cy="400.021" r="14.4" fill="#009af9" fill-rule="evenodd" fill-opacity="1" stroke="#000000" stroke-opacity="1" stroke-width="3.2"/>
<circle clip-path="url(#clip012)" cx="866.021" cy="718.793" r="14.4" fill="#009af9" fill-rule="evenodd" fill-opacity="1" stroke="#000000" stroke-opacity="1" stroke-width="3.2"/>
<circle clip-path="url(#clip012)" cx="1069.68" cy="1049.34" r="14.4" fill="#009af9" fill-rule="evenodd" fill-opacity="1" stroke="#000000" stroke-opacity="1" stroke-width="3.2"/>
<circle clip-path="url(#clip012)" cx="1273.35" cy="1310.73" r="14.4" fill="#009af9" fill-rule="evenodd" fill-opacity="1" stroke="#000000" stroke-opacity="1" stroke-width="3.2"/>
<circle clip-path="url(#clip012)" cx="1477.01" cy="1438.97" r="14.4" fill="#009af9" fill-rule="evenodd" fill-opacity="1" stroke="#000000" stroke-opacity="1" stroke-width="3.2"/>
<circle clip-path="url(#clip012)" cx="1680.67" cy="1402.65" r="14.4" fill="#009af9" fill-rule="evenodd" fill-opacity="1" stroke="#000000" stroke-opacity="1" stroke-width="3.2"/>
<circle clip-path="url(#clip012)" cx="1884.33" cy="1210.68" r="14.4" fill="#009af9" fill-rule="evenodd" fill-opacity="1" stroke="#000000" stroke-opacity="1" stroke-width="3.2"/>
<circle clip-path="url(#clip012)" cx="2087.99" cy="910.051" r="14.4" fill="#009af9" fill-rule="evenodd" fill-opacity="1" stroke="#000000" stroke-opacity="1" stroke-width="3.2"/>
<circle clip-path="url(#clip012)" cx="2291.66" cy="574.368" r="14.4" fill="#009af9" fill-rule="evenodd" fill-opacity="1" stroke="#000000" stroke-opacity="1" stroke-width="3.2"/>
<polyline clip-path="url(#clip012)" style="stroke:#e26f46; stroke-linecap:butt; stroke-linejoin:round; stroke-width:12; stroke-opacity:1; fill:none" points="
  255.035,87.9763 258.35,87.9988 261.664,88.0662 264.979,88.1786 268.294,88.336 298.945,91.9173 329.596,99.3188 360.247,110.499 390.898,125.393 409.318,136.097 
  427.737,148.091 446.157,161.35 464.577,175.847 495.725,203.093 526.872,233.635 560.707,270.338 594.542,310.464 625.735,350.252 656.928,392.483 690.37,440.189 
  723.812,490.096 762.558,550.227 801.304,612.317 870.17,725.756 930.558,826.307 963.478,880.712 996.398,934.374 1029.51,987.251 1062.63,1038.67 1099.24,1093.42 
  1135.86,1145.53 1170.69,1192.29 1205.53,1235.93 1223.64,1257.28 1241.75,1277.66 1259.86,1297.04 1277.98,1315.36 1308.47,1343.75 1338.96,1368.91 1357.57,1382.61 
  1376.19,1395.03 1394.8,1406.14 1413.41,1415.92 1430.46,1423.68 1447.51,1430.3 1464.57,1435.75 1481.62,1440.03 1497.36,1442.94 1513.11,1444.83 1528.86,1445.72 
  1544.61,1445.58 1560.56,1444.42 1576.51,1442.21 1592.46,1438.97 1608.42,1434.69 1626.29,1428.69 1644.17,1421.41 1662.05,1412.86 1679.93,1403.08 1696.13,1393.15 
  1712.33,1382.24 1728.53,1370.35 1744.73,1357.5 1763.28,1341.65 1781.83,1324.61 1800.37,1306.41 1818.92,1287.09 1836.1,1268.24 1853.27,1248.5 1870.44,1227.9 
  1887.62,1206.48 1921.48,1162.01 1955.34,1114.8 1988.22,1066.66 2021.1,1016.57 2088.51,909.154 2162.36,787.118 2269.65,609.743 2291.66,574.301 
  "/>
<path clip-path="url(#clip010)" d="
M1988.5 250.738 L2280.8 250.738 L2280.8 95.2176 L1988.5 95.2176  Z
  " fill="#ffffff" fill-rule="evenodd" fill-opacity="1"/>
<polyline clip-path="url(#clip010)" style="stroke:#000000; stroke-linecap:butt; stroke-linejoin:round; stroke-width:4; stroke-opacity:1; fill:none" points="
  1988.5,250.738 2280.8,250.738 2280.8,95.2176 1988.5,95.2176 1988.5,250.738 
  "/>
<circle clip-path="url(#clip010)" cx="2084.44" cy="147.058" r="23.04" fill="#009af9" fill-rule="evenodd" fill-opacity="1" stroke="#000000" stroke-opacity="1" stroke-width="5.12"/>
<path clip-path="url(#clip010)" d="M2194.23 166.745 Q2192.43 171.375 2190.72 172.787 Q2189 174.199 2186.13 174.199 L2182.73 174.199 L2182.73 170.634 L2185.23 170.634 Q2186.99 170.634 2187.96 169.8 Q2188.93 168.967 2190.11 165.865 L2190.88 163.921 L2180.39 138.412 L2184.91 138.412 L2193.01 158.689 L2201.11 138.412 L2205.62 138.412 L2194.23 166.745 Z" fill="#000000" fill-rule="evenodd" fill-opacity="1" /><path clip-path="url(#clip010)" d="M2212.91 160.402 L2220.55 160.402 L2220.55 134.037 L2212.24 135.703 L2212.24 131.444 L2220.51 129.778 L2225.18 129.778 L2225.18 160.402 L2232.82 160.402 L2232.82 164.338 L2212.91 164.338 L2212.91 160.402 Z" fill="#000000" fill-rule="evenodd" fill-opacity="1" /><polyline clip-path="url(#clip010)" style="stroke:#e26f46; stroke-linecap:butt; stroke-linejoin:round; stroke-width:4; stroke-opacity:1; fill:none" points="
  2012.48,198.898 2156.4,198.898 
  "/>
<path clip-path="url(#clip010)" d="M2194.23 218.585 Q2192.43 223.215 2190.72 224.627 Q2189 226.039 2186.13 226.039 L2182.73 226.039 L2182.73 222.474 L2185.23 222.474 Q2186.99 222.474 2187.96 221.64 Q2188.93 220.807 2190.11 217.705 L2190.88 215.761 L2180.39 190.252 L2184.91 190.252 L2193.01 210.529 L2201.11 190.252 L2205.62 190.252 L2194.23 218.585 Z" fill="#000000" fill-rule="evenodd" fill-opacity="1" /><path clip-path="url(#clip010)" d="M2216.13 212.242 L2232.45 212.242 L2232.45 216.178 L2210.51 216.178 L2210.51 212.242 Q2213.17 209.488 2217.75 204.858 Q2222.36 200.205 2223.54 198.863 Q2225.78 196.34 2226.66 194.604 Q2227.57 192.844 2227.57 191.155 Q2227.57 188.4 2225.62 186.664 Q2223.7 184.928 2220.6 184.928 Q2218.4 184.928 2215.95 185.692 Q2213.52 186.455 2210.74 188.006 L2210.74 183.284 Q2213.56 182.15 2216.02 181.571 Q2218.47 180.993 2220.51 180.993 Q2225.88 180.993 2229.07 183.678 Q2232.27 186.363 2232.27 190.854 Q2232.27 192.983 2231.46 194.905 Q2230.67 196.803 2228.56 199.395 Q2227.98 200.067 2224.88 203.284 Q2221.78 206.479 2216.13 212.242 Z" fill="#000000" fill-rule="evenodd" fill-opacity="1" /></svg>
