<?xml version="1.0" encoding="utf-8"?>
<svg xmlns="http://www.w3.org/2000/svg" xmlns:xlink="http://www.w3.org/1999/xlink" width="600" height="400" viewBox="0 0 2400 1600">
<defs>
  <clipPath id="clip570">
    <rect x="0" y="0" width="2400" height="1600"/>
  </clipPath>
</defs>
<path clip-path="url(#clip570)" d="
M0 1600 L2400 1600 L2400 0 L0 0  Z
  " fill="#ffffff" fill-rule="evenodd" fill-opacity="1"/>
<defs>
  <clipPath id="clip571">
    <rect x="480" y="0" width="1681" height="1600"/>
  </clipPath>
</defs>
<path clip-path="url(#clip570)" d="
M246.598 1486.45 L2352.76 1486.45 L2352.76 47.2441 L246.598 47.2441  Z
  " fill="#ffffff" fill-rule="evenodd" fill-opacity="1"/>
<defs>
  <clipPath id="clip572">
    <rect x="246" y="47" width="2107" height="1440"/>
  </clipPath>
</defs>
<polyline clip-path="url(#clip572)" style="stroke:#000000; stroke-linecap:butt; stroke-linejoin:round; stroke-width:2; stroke-opacity:0.1; fill:none" points="
  306.206,1486.45 306.206,47.2441 
  "/>
<polyline clip-path="url(#clip572)" style="stroke:#000000; stroke-linecap:butt; stroke-linejoin:round; stroke-width:2; stroke-opacity:0.1; fill:none" points="
  802.941,1486.45 802.941,47.2441 
  "/>
<polyline clip-path="url(#clip572)" style="stroke:#000000; stroke-linecap:butt; stroke-linejoin:round; stroke-width:2; stroke-opacity:0.1; fill:none" points="
  1299.68,1486.45 1299.68,47.2441 
  "/>
<polyline clip-path="url(#clip572)" style="stroke:#000000; stroke-linecap:butt; stroke-linejoin:round; stroke-width:2; stroke-opacity:0.1; fill:none" points="
  1796.41,1486.45 1796.41,47.2441 
  "/>
<polyline clip-path="url(#clip572)" style="stroke:#000000; stroke-linecap:butt; stroke-linejoin:round; stroke-width:2; stroke-opacity:0.1; fill:none" points="
  2293.15,1486.45 2293.15,47.2441 
  "/>
<polyline clip-path="url(#clip570)" style="stroke:#000000; stroke-linecap:butt; stroke-linejoin:round; stroke-width:4; stroke-opacity:1; fill:none" points="
  246.598,1486.45 2352.76,1486.45 
  "/>
<polyline clip-path="url(#clip570)" style="stroke:#000000; stroke-linecap:butt; stroke-linejoin:round; stroke-width:4; stroke-opacity:1; fill:none" points="
  306.206,1486.45 306.206,1467.55 
  "/>
<polyline clip-path="url(#clip570)" style="stroke:#000000; stroke-linecap:butt; stroke-linejoin:round; stroke-width:4; stroke-opacity:1; fill:none" points="
  802.941,1486.45 802.941,1467.55 
  "/>
<polyline clip-path="url(#clip570)" style="stroke:#000000; stroke-linecap:butt; stroke-linejoin:round; stroke-width:4; stroke-opacity:1; fill:none" points="
  1299.68,1486.45 1299.68,1467.55 
  "/>
<polyline clip-path="url(#clip570)" style="stroke:#000000; stroke-linecap:butt; stroke-linejoin:round; stroke-width:4; stroke-opacity:1; fill:none" points="
  1796.41,1486.45 1796.41,1467.55 
  "/>
<polyline clip-path="url(#clip570)" style="stroke:#000000; stroke-linecap:butt; stroke-linejoin:round; stroke-width:4; stroke-opacity:1; fill:none" points="
  2293.15,1486.45 2293.15,1467.55 
  "/>
<path clip-path="url(#clip570)" d="M252.734 1532.02 L282.41 1532.02 L282.41 1535.95 L252.734 1535.95 L252.734 1532.02 Z" fill="#000000" fill-rule="evenodd" fill-opacity="1" /><path clip-path="url(#clip570)" d="M293.313 1544.91 L300.951 1544.91 L300.951 1518.55 L292.641 1520.21 L292.641 1515.95 L300.905 1514.29 L305.581 1514.29 L305.581 1544.91 L313.22 1544.91 L313.22 1548.85 L293.313 1548.85 L293.313 1544.91 Z" fill="#000000" fill-rule="evenodd" fill-opacity="1" /><path clip-path="url(#clip570)" d="M322.664 1542.97 L327.548 1542.97 L327.548 1548.85 L322.664 1548.85 L322.664 1542.97 Z" fill="#000000" fill-rule="evenodd" fill-opacity="1" /><path clip-path="url(#clip570)" d="M347.734 1517.37 Q344.122 1517.37 342.294 1520.93 Q340.488 1524.47 340.488 1531.6 Q340.488 1538.71 342.294 1542.27 Q344.122 1545.82 347.734 1545.82 Q351.368 1545.82 353.173 1542.27 Q355.002 1538.71 355.002 1531.6 Q355.002 1524.47 353.173 1520.93 Q351.368 1517.37 347.734 1517.37 M347.734 1513.66 Q353.544 1513.66 356.599 1518.27 Q359.678 1522.85 359.678 1531.6 Q359.678 1540.33 356.599 1544.94 Q353.544 1549.52 347.734 1549.52 Q341.923 1549.52 338.845 1544.94 Q335.789 1540.33 335.789 1531.6 Q335.789 1522.85 338.845 1518.27 Q341.923 1513.66 347.734 1513.66 Z" fill="#000000" fill-rule="evenodd" fill-opacity="1" /><path clip-path="url(#clip570)" d="M749.967 1532.02 L779.643 1532.02 L779.643 1535.95 L749.967 1535.95 L749.967 1532.02 Z" fill="#000000" fill-rule="evenodd" fill-opacity="1" /><path clip-path="url(#clip570)" d="M799.735 1517.37 Q796.124 1517.37 794.296 1520.93 Q792.49 1524.47 792.49 1531.6 Q792.49 1538.71 794.296 1542.27 Q796.124 1545.82 799.735 1545.82 Q803.37 1545.82 805.175 1542.27 Q807.004 1538.71 807.004 1531.6 Q807.004 1524.47 805.175 1520.93 Q803.37 1517.37 799.735 1517.37 M799.735 1513.66 Q805.546 1513.66 808.601 1518.27 Q811.68 1522.85 811.68 1531.6 Q811.68 1540.33 808.601 1544.94 Q805.546 1549.52 799.735 1549.52 Q793.925 1549.52 790.847 1544.94 Q787.791 1540.33 787.791 1531.6 Q787.791 1522.85 790.847 1518.27 Q793.925 1513.66 799.735 1513.66 Z" fill="#000000" fill-rule="evenodd" fill-opacity="1" /><path clip-path="url(#clip570)" d="M819.897 1542.97 L824.782 1542.97 L824.782 1548.85 L819.897 1548.85 L819.897 1542.97 Z" fill="#000000" fill-rule="evenodd" fill-opacity="1" /><path clip-path="url(#clip570)" d="M835.013 1514.29 L853.369 1514.29 L853.369 1518.22 L839.295 1518.22 L839.295 1526.7 Q840.314 1526.35 841.332 1526.19 Q842.351 1526 843.369 1526 Q849.156 1526 852.536 1529.17 Q855.916 1532.34 855.916 1537.76 Q855.916 1543.34 852.443 1546.44 Q848.971 1549.52 842.652 1549.52 Q840.476 1549.52 838.207 1549.15 Q835.962 1548.78 833.555 1548.04 L833.555 1543.34 Q835.638 1544.47 837.86 1545.03 Q840.082 1545.58 842.559 1545.58 Q846.564 1545.58 848.902 1543.48 Q851.24 1541.37 851.24 1537.76 Q851.24 1534.15 848.902 1532.04 Q846.564 1529.94 842.559 1529.94 Q840.684 1529.94 838.809 1530.35 Q836.957 1530.77 835.013 1531.65 L835.013 1514.29 Z" fill="#000000" fill-rule="evenodd" fill-opacity="1" /><path clip-path="url(#clip570)" d="M1277.06 1517.37 Q1273.45 1517.37 1271.62 1520.93 Q1269.82 1524.47 1269.82 1531.6 Q1269.82 1538.71 1271.62 1542.27 Q1273.45 1545.82 1277.06 1545.82 Q1280.7 1545.82 1282.5 1542.27 Q1284.33 1538.71 1284.33 1531.6 Q1284.33 1524.47 1282.5 1520.93 Q1280.7 1517.37 1277.06 1517.37 M1277.06 1513.66 Q1282.87 1513.66 1285.93 1518.27 Q1289.01 1522.85 1289.01 1531.6 Q1289.01 1540.33 1285.93 1544.94 Q1282.87 1549.52 1277.06 1549.52 Q1271.25 1549.52 1268.17 1544.94 Q1265.12 1540.33 1265.12 1531.6 Q1265.12 1522.85 1268.17 1518.27 Q1271.25 1513.66 1277.06 1513.66 Z" fill="#000000" fill-rule="evenodd" fill-opacity="1" /><path clip-path="url(#clip570)" d="M1297.22 1542.97 L1302.11 1542.97 L1302.11 1548.85 L1297.22 1548.85 L1297.22 1542.97 Z" fill="#000000" fill-rule="evenodd" fill-opacity="1" /><path clip-path="url(#clip570)" d="M1322.29 1517.37 Q1318.68 1517.37 1316.85 1520.93 Q1315.05 1524.47 1315.05 1531.6 Q1315.05 1538.71 1316.85 1542.27 Q1318.68 1545.82 1322.29 1545.82 Q1325.93 1545.82 1327.73 1542.27 Q1329.56 1538.71 1329.56 1531.6 Q1329.56 1524.47 1327.73 1520.93 Q1325.93 1517.37 1322.29 1517.37 M1322.29 1513.66 Q1328.1 1513.66 1331.16 1518.27 Q1334.24 1522.85 1334.24 1531.6 Q1334.24 1540.33 1331.16 1544.94 Q1328.1 1549.52 1322.29 1549.52 Q1316.48 1549.52 1313.4 1544.94 Q1310.35 1540.33 1310.35 1531.6 Q1310.35 1522.85 1313.4 1518.27 Q1316.48 1513.66 1322.29 1513.66 Z" fill="#000000" fill-rule="evenodd" fill-opacity="1" /><path clip-path="url(#clip570)" d="M1774.29 1517.37 Q1770.68 1517.37 1768.85 1520.93 Q1767.05 1524.47 1767.05 1531.6 Q1767.05 1538.71 1768.85 1542.27 Q1770.68 1545.82 1774.29 1545.82 Q1777.93 1545.82 1779.73 1542.27 Q1781.56 1538.71 1781.56 1531.6 Q1781.56 1524.47 1779.73 1520.93 Q1777.93 1517.37 1774.29 1517.37 M1774.29 1513.66 Q1780.1 1513.66 1783.16 1518.27 Q1786.24 1522.85 1786.24 1531.6 Q1786.24 1540.33 1783.16 1544.94 Q1780.1 1549.52 1774.29 1549.52 Q1768.48 1549.52 1765.41 1544.94 Q1762.35 1540.33 1762.35 1531.6 Q1762.35 1522.85 1765.41 1518.27 Q1768.48 1513.66 1774.29 1513.66 Z" fill="#000000" fill-rule="evenodd" fill-opacity="1" /><path clip-path="url(#clip570)" d="M1794.46 1542.97 L1799.34 1542.97 L1799.34 1548.85 L1794.46 1548.85 L1794.46 1542.97 Z" fill="#000000" fill-rule="evenodd" fill-opacity="1" /><path clip-path="url(#clip570)" d="M1809.57 1514.29 L1827.93 1514.29 L1827.93 1518.22 L1813.85 1518.22 L1813.85 1526.7 Q1814.87 1526.35 1815.89 1526.19 Q1816.91 1526 1817.93 1526 Q1823.72 1526 1827.09 1529.17 Q1830.47 1532.34 1830.47 1537.76 Q1830.47 1543.34 1827 1546.44 Q1823.53 1549.52 1817.21 1549.52 Q1815.03 1549.52 1812.77 1549.15 Q1810.52 1548.78 1808.11 1548.04 L1808.11 1543.34 Q1810.2 1544.47 1812.42 1545.03 Q1814.64 1545.58 1817.12 1545.58 Q1821.12 1545.58 1823.46 1543.48 Q1825.8 1541.37 1825.8 1537.76 Q1825.8 1534.15 1823.46 1532.04 Q1821.12 1529.94 1817.12 1529.94 Q1815.24 1529.94 1813.37 1530.35 Q1811.52 1530.77 1809.57 1531.65 L1809.57 1514.29 Z" fill="#000000" fill-rule="evenodd" fill-opacity="1" /><path clip-path="url(#clip570)" d="M2260.3 1544.91 L2267.94 1544.91 L2267.94 1518.55 L2259.63 1520.21 L2259.63 1515.95 L2267.89 1514.29 L2272.57 1514.29 L2272.57 1544.91 L2280.21 1544.91 L2280.21 1548.85 L2260.3 1548.85 L2260.3 1544.91 Z" fill="#000000" fill-rule="evenodd" fill-opacity="1" /><path clip-path="url(#clip570)" d="M2289.65 1542.97 L2294.54 1542.97 L2294.54 1548.85 L2289.65 1548.85 L2289.65 1542.97 Z" fill="#000000" fill-rule="evenodd" fill-opacity="1" /><path clip-path="url(#clip570)" d="M2314.72 1517.37 Q2311.11 1517.37 2309.28 1520.93 Q2307.48 1524.47 2307.48 1531.6 Q2307.48 1538.71 2309.28 1542.27 Q2311.11 1545.82 2314.72 1545.82 Q2318.36 1545.82 2320.16 1542.27 Q2321.99 1538.71 2321.99 1531.6 Q2321.99 1524.47 2320.16 1520.93 Q2318.36 1517.37 2314.72 1517.37 M2314.72 1513.66 Q2320.53 1513.66 2323.59 1518.27 Q2326.67 1522.85 2326.67 1531.6 Q2326.67 1540.33 2323.59 1544.94 Q2320.53 1549.52 2314.72 1549.52 Q2308.91 1549.52 2305.83 1544.94 Q2302.78 1540.33 2302.78 1531.6 Q2302.78 1522.85 2305.83 1518.27 Q2308.91 1513.66 2314.72 1513.66 Z" fill="#000000" fill-rule="evenodd" fill-opacity="1" /><polyline clip-path="url(#clip572)" style="stroke:#000000; stroke-linecap:butt; stroke-linejoin:round; stroke-width:2; stroke-opacity:0.1; fill:none" points="
  246.598,1445.72 2352.76,1445.72 
  "/>
<polyline clip-path="url(#clip572)" style="stroke:#000000; stroke-linecap:butt; stroke-linejoin:round; stroke-width:2; stroke-opacity:0.1; fill:none" points="
  246.598,1094.58 2352.76,1094.58 
  "/>
<polyline clip-path="url(#clip572)" style="stroke:#000000; stroke-linecap:butt; stroke-linejoin:round; stroke-width:2; stroke-opacity:0.1; fill:none" points="
  246.598,743.437 2352.76,743.437 
  "/>
<polyline clip-path="url(#clip572)" style="stroke:#000000; stroke-linecap:butt; stroke-linejoin:round; stroke-width:2; stroke-opacity:0.1; fill:none" points="
  246.598,392.297 2352.76,392.297 
  "/>
<polyline clip-path="url(#clip570)" style="stroke:#000000; stroke-linecap:butt; stroke-linejoin:round; stroke-width:4; stroke-opacity:1; fill:none" points="
  246.598,1486.45 246.598,47.2441 
  "/>
<polyline clip-path="url(#clip570)" style="stroke:#000000; stroke-linecap:butt; stroke-linejoin:round; stroke-width:4; stroke-opacity:1; fill:none" points="
  246.598,1445.72 265.495,1445.72 
  "/>
<polyline clip-path="url(#clip570)" style="stroke:#000000; stroke-linecap:butt; stroke-linejoin:round; stroke-width:4; stroke-opacity:1; fill:none" points="
  246.598,1094.58 265.495,1094.58 
  "/>
<polyline clip-path="url(#clip570)" style="stroke:#000000; stroke-linecap:butt; stroke-linejoin:round; stroke-width:4; stroke-opacity:1; fill:none" points="
  246.598,743.437 265.495,743.437 
  "/>
<polyline clip-path="url(#clip570)" style="stroke:#000000; stroke-linecap:butt; stroke-linejoin:round; stroke-width:4; stroke-opacity:1; fill:none" points="
  246.598,392.297 265.495,392.297 
  "/>
<path clip-path="url(#clip570)" d="M62.9365 1431.51 Q59.3254 1431.51 57.4967 1435.08 Q55.6912 1438.62 55.6912 1445.75 Q55.6912 1452.86 57.4967 1456.42 Q59.3254 1459.96 62.9365 1459.96 Q66.5707 1459.96 68.3763 1456.42 Q70.205 1452.86 70.205 1445.75 Q70.205 1438.62 68.3763 1435.08 Q66.5707 1431.51 62.9365 1431.51 M62.9365 1427.81 Q68.7467 1427.81 71.8022 1432.42 Q74.8809 1437 74.8809 1445.75 Q74.8809 1454.48 71.8022 1459.08 Q68.7467 1463.67 62.9365 1463.67 Q57.1264 1463.67 54.0477 1459.08 Q50.9921 1454.48 50.9921 1445.75 Q50.9921 1437 54.0477 1432.42 Q57.1264 1427.81 62.9365 1427.81 Z" fill="#000000" fill-rule="evenodd" fill-opacity="1" /><path clip-path="url(#clip570)" d="M83.0984 1457.12 L87.9827 1457.12 L87.9827 1463 L83.0984 1463 L83.0984 1457.12 Z" fill="#000000" fill-rule="evenodd" fill-opacity="1" /><path clip-path="url(#clip570)" d="M108.168 1431.51 Q104.557 1431.51 102.728 1435.08 Q100.922 1438.62 100.922 1445.75 Q100.922 1452.86 102.728 1456.42 Q104.557 1459.96 108.168 1459.96 Q111.802 1459.96 113.608 1456.42 Q115.436 1452.86 115.436 1445.75 Q115.436 1438.62 113.608 1435.08 Q111.802 1431.51 108.168 1431.51 M108.168 1427.81 Q113.978 1427.81 117.033 1432.42 Q120.112 1437 120.112 1445.75 Q120.112 1454.48 117.033 1459.08 Q113.978 1463.67 108.168 1463.67 Q102.358 1463.67 99.2789 1459.08 Q96.2234 1454.48 96.2234 1445.75 Q96.2234 1437 99.2789 1432.42 Q102.358 1427.81 108.168 1427.81 Z" fill="#000000" fill-rule="evenodd" fill-opacity="1" /><path clip-path="url(#clip570)" d="M138.33 1431.51 Q134.719 1431.51 132.89 1435.08 Q131.084 1438.62 131.084 1445.75 Q131.084 1452.86 132.89 1456.42 Q134.719 1459.96 138.33 1459.96 Q141.964 1459.96 143.769 1456.42 Q145.598 1452.86 145.598 1445.75 Q145.598 1438.62 143.769 1435.08 Q141.964 1431.51 138.33 1431.51 M138.33 1427.81 Q144.14 1427.81 147.195 1432.42 Q150.274 1437 150.274 1445.75 Q150.274 1454.48 147.195 1459.08 Q144.14 1463.67 138.33 1463.67 Q132.519 1463.67 129.441 1459.08 Q126.385 1454.48 126.385 1445.75 Q126.385 1437 129.441 1432.42 Q132.519 1427.81 138.33 1427.81 Z" fill="#000000" fill-rule="evenodd" fill-opacity="1" /><path clip-path="url(#clip570)" d="M168.491 1431.51 Q164.88 1431.51 163.052 1435.08 Q161.246 1438.62 161.246 1445.75 Q161.246 1452.86 163.052 1456.42 Q164.88 1459.96 168.491 1459.96 Q172.126 1459.96 173.931 1456.42 Q175.76 1452.86 175.76 1445.75 Q175.76 1438.62 173.931 1435.08 Q172.126 1431.51 168.491 1431.51 M168.491 1427.81 Q174.302 1427.81 177.357 1432.42 Q180.436 1437 180.436 1445.75 Q180.436 1454.48 177.357 1459.08 Q174.302 1463.67 168.491 1463.67 Q162.681 1463.67 159.603 1459.08 Q156.547 1454.48 156.547 1445.75 Q156.547 1437 159.603 1432.42 Q162.681 1427.81 168.491 1427.81 Z" fill="#000000" fill-rule="evenodd" fill-opacity="1" /><path clip-path="url(#clip570)" d="M198.653 1431.51 Q195.042 1431.51 193.214 1435.08 Q191.408 1438.62 191.408 1445.75 Q191.408 1452.86 193.214 1456.42 Q195.042 1459.96 198.653 1459.96 Q202.288 1459.96 204.093 1456.42 Q205.922 1452.86 205.922 1445.75 Q205.922 1438.62 204.093 1435.08 Q202.288 1431.51 198.653 1431.51 M198.653 1427.81 Q204.464 1427.81 207.519 1432.42 Q210.598 1437 210.598 1445.75 Q210.598 1454.48 207.519 1459.08 Q204.464 1463.67 198.653 1463.67 Q192.843 1463.67 189.765 1459.08 Q186.709 1454.48 186.709 1445.75 Q186.709 1437 189.765 1432.42 Q192.843 1427.81 198.653 1427.81 Z" fill="#000000" fill-rule="evenodd" fill-opacity="1" /><path clip-path="url(#clip570)" d="M63.9319 1080.37 Q60.3208 1080.37 58.4921 1083.94 Q56.6865 1087.48 56.6865 1094.61 Q56.6865 1101.72 58.4921 1105.28 Q60.3208 1108.82 63.9319 1108.82 Q67.5661 1108.82 69.3717 1105.28 Q71.2004 1101.72 71.2004 1094.61 Q71.2004 1087.48 69.3717 1083.94 Q67.5661 1080.37 63.9319 1080.37 M63.9319 1076.67 Q69.742 1076.67 72.7976 1081.28 Q75.8763 1085.86 75.8763 1094.61 Q75.8763 1103.34 72.7976 1107.94 Q69.742 1112.53 63.9319 1112.53 Q58.1217 1112.53 55.043 1107.94 Q51.9875 1103.34 51.9875 1094.61 Q51.9875 1085.86 55.043 1081.28 Q58.1217 1076.67 63.9319 1076.67 Z" fill="#000000" fill-rule="evenodd" fill-opacity="1" /><path clip-path="url(#clip570)" d="M84.0938 1105.98 L88.978 1105.98 L88.978 1111.86 L84.0938 1111.86 L84.0938 1105.98 Z" fill="#000000" fill-rule="evenodd" fill-opacity="1" /><path clip-path="url(#clip570)" d="M109.163 1080.37 Q105.552 1080.37 103.723 1083.94 Q101.918 1087.48 101.918 1094.61 Q101.918 1101.72 103.723 1105.28 Q105.552 1108.82 109.163 1108.82 Q112.797 1108.82 114.603 1105.28 Q116.432 1101.72 116.432 1094.61 Q116.432 1087.48 114.603 1083.94 Q112.797 1080.37 109.163 1080.37 M109.163 1076.67 Q114.973 1076.67 118.029 1081.28 Q121.107 1085.86 121.107 1094.61 Q121.107 1103.34 118.029 1107.94 Q114.973 1112.53 109.163 1112.53 Q103.353 1112.53 100.274 1107.94 Q97.2187 1103.34 97.2187 1094.61 Q97.2187 1085.86 100.274 1081.28 Q103.353 1076.67 109.163 1076.67 Z" fill="#000000" fill-rule="evenodd" fill-opacity="1" /><path clip-path="url(#clip570)" d="M139.325 1080.37 Q135.714 1080.37 133.885 1083.94 Q132.08 1087.48 132.08 1094.61 Q132.08 1101.72 133.885 1105.28 Q135.714 1108.82 139.325 1108.82 Q142.959 1108.82 144.765 1105.28 Q146.593 1101.72 146.593 1094.61 Q146.593 1087.48 144.765 1083.94 Q142.959 1080.37 139.325 1080.37 M139.325 1076.67 Q145.135 1076.67 148.191 1081.28 Q151.269 1085.86 151.269 1094.61 Q151.269 1103.34 148.191 1107.94 Q145.135 1112.53 139.325 1112.53 Q133.515 1112.53 130.436 1107.94 Q127.381 1103.34 127.381 1094.61 Q127.381 1085.86 130.436 1081.28 Q133.515 1076.67 139.325 1076.67 Z" fill="#000000" fill-rule="evenodd" fill-opacity="1" /><path clip-path="url(#clip570)" d="M169.487 1080.37 Q165.876 1080.37 164.047 1083.94 Q162.242 1087.48 162.242 1094.61 Q162.242 1101.72 164.047 1105.28 Q165.876 1108.82 169.487 1108.82 Q173.121 1108.82 174.927 1105.28 Q176.755 1101.72 176.755 1094.61 Q176.755 1087.48 174.927 1083.94 Q173.121 1080.37 169.487 1080.37 M169.487 1076.67 Q175.297 1076.67 178.353 1081.28 Q181.431 1085.86 181.431 1094.61 Q181.431 1103.34 178.353 1107.94 Q175.297 1112.53 169.487 1112.53 Q163.677 1112.53 160.598 1107.94 Q157.542 1103.34 157.542 1094.61 Q157.542 1085.86 160.598 1081.28 Q163.677 1076.67 169.487 1076.67 Z" fill="#000000" fill-rule="evenodd" fill-opacity="1" /><path clip-path="url(#clip570)" d="M189.695 1077.3 L208.051 1077.3 L208.051 1081.23 L193.977 1081.23 L193.977 1089.7 Q194.996 1089.36 196.014 1089.19 Q197.033 1089.01 198.052 1089.01 Q203.839 1089.01 207.218 1092.18 Q210.598 1095.35 210.598 1100.77 Q210.598 1106.35 207.126 1109.45 Q203.653 1112.53 197.334 1112.53 Q195.158 1112.53 192.89 1112.16 Q190.644 1111.79 188.237 1111.05 L188.237 1106.35 Q190.32 1107.48 192.542 1108.04 Q194.765 1108.59 197.241 1108.59 Q201.246 1108.59 203.584 1106.49 Q205.922 1104.38 205.922 1100.77 Q205.922 1097.16 203.584 1095.05 Q201.246 1092.94 197.241 1092.94 Q195.366 1092.94 193.491 1093.36 Q191.64 1093.78 189.695 1094.66 L189.695 1077.3 Z" fill="#000000" fill-rule="evenodd" fill-opacity="1" /><path clip-path="url(#clip570)" d="M62.9365 729.235 Q59.3254 729.235 57.4967 732.8 Q55.6912 736.342 55.6912 743.471 Q55.6912 750.578 57.4967 754.143 Q59.3254 757.684 62.9365 757.684 Q66.5707 757.684 68.3763 754.143 Q70.205 750.578 70.205 743.471 Q70.205 736.342 68.3763 732.8 Q66.5707 729.235 62.9365 729.235 M62.9365 725.532 Q68.7467 725.532 71.8022 730.138 Q74.8809 734.721 74.8809 743.471 Q74.8809 752.198 71.8022 756.805 Q68.7467 761.388 62.9365 761.388 Q57.1264 761.388 54.0477 756.805 Q50.9921 752.198 50.9921 743.471 Q50.9921 734.721 54.0477 730.138 Q57.1264 725.532 62.9365 725.532 Z" fill="#000000" fill-rule="evenodd" fill-opacity="1" /><path clip-path="url(#clip570)" d="M83.0984 754.837 L87.9827 754.837 L87.9827 760.717 L83.0984 760.717 L83.0984 754.837 Z" fill="#000000" fill-rule="evenodd" fill-opacity="1" /><path clip-path="url(#clip570)" d="M108.168 729.235 Q104.557 729.235 102.728 732.8 Q100.922 736.342 100.922 743.471 Q100.922 750.578 102.728 754.143 Q104.557 757.684 108.168 757.684 Q111.802 757.684 113.608 754.143 Q115.436 750.578 115.436 743.471 Q115.436 736.342 113.608 732.8 Q111.802 729.235 108.168 729.235 M108.168 725.532 Q113.978 725.532 117.033 730.138 Q120.112 734.721 120.112 743.471 Q120.112 752.198 117.033 756.805 Q113.978 761.388 108.168 761.388 Q102.358 761.388 99.2789 756.805 Q96.2234 752.198 96.2234 743.471 Q96.2234 734.721 99.2789 730.138 Q102.358 725.532 108.168 725.532 Z" fill="#000000" fill-rule="evenodd" fill-opacity="1" /><path clip-path="url(#clip570)" d="M138.33 729.235 Q134.719 729.235 132.89 732.8 Q131.084 736.342 131.084 743.471 Q131.084 750.578 132.89 754.143 Q134.719 757.684 138.33 757.684 Q141.964 757.684 143.769 754.143 Q145.598 750.578 145.598 743.471 Q145.598 736.342 143.769 732.8 Q141.964 729.235 138.33 729.235 M138.33 725.532 Q144.14 725.532 147.195 730.138 Q150.274 734.721 150.274 743.471 Q150.274 752.198 147.195 756.805 Q144.14 761.388 138.33 761.388 Q132.519 761.388 129.441 756.805 Q126.385 752.198 126.385 743.471 Q126.385 734.721 129.441 730.138 Q132.519 725.532 138.33 725.532 Z" fill="#000000" fill-rule="evenodd" fill-opacity="1" /><path clip-path="url(#clip570)" d="M159.302 756.782 L166.941 756.782 L166.941 730.416 L158.63 732.083 L158.63 727.823 L166.894 726.157 L171.57 726.157 L171.57 756.782 L179.209 756.782 L179.209 760.717 L159.302 760.717 L159.302 756.782 Z" fill="#000000" fill-rule="evenodd" fill-opacity="1" /><path clip-path="url(#clip570)" d="M198.653 729.235 Q195.042 729.235 193.214 732.8 Q191.408 736.342 191.408 743.471 Q191.408 750.578 193.214 754.143 Q195.042 757.684 198.653 757.684 Q202.288 757.684 204.093 754.143 Q205.922 750.578 205.922 743.471 Q205.922 736.342 204.093 732.8 Q202.288 729.235 198.653 729.235 M198.653 725.532 Q204.464 725.532 207.519 730.138 Q210.598 734.721 210.598 743.471 Q210.598 752.198 207.519 756.805 Q204.464 761.388 198.653 761.388 Q192.843 761.388 189.765 756.805 Q186.709 752.198 186.709 743.471 Q186.709 734.721 189.765 730.138 Q192.843 725.532 198.653 725.532 Z" fill="#000000" fill-rule="evenodd" fill-opacity="1" /><path clip-path="url(#clip570)" d="M63.9319 378.096 Q60.3208 378.096 58.4921 381.661 Q56.6865 385.202 56.6865 392.332 Q56.6865 399.438 58.4921 403.003 Q60.3208 406.545 63.9319 406.545 Q67.5661 406.545 69.3717 403.003 Q71.2004 399.438 71.2004 392.332 Q71.2004 385.202 69.3717 381.661 Q67.5661 378.096 63.9319 378.096 M63.9319 374.392 Q69.742 374.392 72.7976 378.999 Q75.8763 383.582 75.8763 392.332 Q75.8763 401.059 72.7976 405.665 Q69.742 410.248 63.9319 410.248 Q58.1217 410.248 55.043 405.665 Q51.9875 401.059 51.9875 392.332 Q51.9875 383.582 55.043 378.999 Q58.1217 374.392 63.9319 374.392 Z" fill="#000000" fill-rule="evenodd" fill-opacity="1" /><path clip-path="url(#clip570)" d="M84.0938 403.698 L88.978 403.698 L88.978 409.577 L84.0938 409.577 L84.0938 403.698 Z" fill="#000000" fill-rule="evenodd" fill-opacity="1" /><path clip-path="url(#clip570)" d="M109.163 378.096 Q105.552 378.096 103.723 381.661 Q101.918 385.202 101.918 392.332 Q101.918 399.438 103.723 403.003 Q105.552 406.545 109.163 406.545 Q112.797 406.545 114.603 403.003 Q116.432 399.438 116.432 392.332 Q116.432 385.202 114.603 381.661 Q112.797 378.096 109.163 378.096 M109.163 374.392 Q114.973 374.392 118.029 378.999 Q121.107 383.582 121.107 392.332 Q121.107 401.059 118.029 405.665 Q114.973 410.248 109.163 410.248 Q103.353 410.248 100.274 405.665 Q97.2187 401.059 97.2187 392.332 Q97.2187 383.582 100.274 378.999 Q103.353 374.392 109.163 374.392 Z" fill="#000000" fill-rule="evenodd" fill-opacity="1" /><path clip-path="url(#clip570)" d="M139.325 378.096 Q135.714 378.096 133.885 381.661 Q132.08 385.202 132.08 392.332 Q132.08 399.438 133.885 403.003 Q135.714 406.545 139.325 406.545 Q142.959 406.545 144.765 403.003 Q146.593 399.438 146.593 392.332 Q146.593 385.202 144.765 381.661 Q142.959 378.096 139.325 378.096 M139.325 374.392 Q145.135 374.392 148.191 378.999 Q151.269 383.582 151.269 392.332 Q151.269 401.059 148.191 405.665 Q145.135 410.248 139.325 410.248 Q133.515 410.248 130.436 405.665 Q127.381 401.059 127.381 392.332 Q127.381 383.582 130.436 378.999 Q133.515 374.392 139.325 374.392 Z" fill="#000000" fill-rule="evenodd" fill-opacity="1" /><path clip-path="url(#clip570)" d="M160.297 405.642 L167.936 405.642 L167.936 379.276 L159.626 380.943 L159.626 376.684 L167.89 375.017 L172.566 375.017 L172.566 405.642 L180.204 405.642 L180.204 409.577 L160.297 409.577 L160.297 405.642 Z" fill="#000000" fill-rule="evenodd" fill-opacity="1" /><path clip-path="url(#clip570)" d="M189.695 375.017 L208.051 375.017 L208.051 378.952 L193.977 378.952 L193.977 387.425 Q194.996 387.077 196.014 386.915 Q197.033 386.73 198.052 386.73 Q203.839 386.73 207.218 389.901 Q210.598 393.073 210.598 398.489 Q210.598 404.068 207.126 407.17 Q203.653 410.248 197.334 410.248 Q195.158 410.248 192.89 409.878 Q190.644 409.508 188.237 408.767 L188.237 404.068 Q190.32 405.202 192.542 405.758 Q194.765 406.313 197.241 406.313 Q201.246 406.313 203.584 404.207 Q205.922 402.1 205.922 398.489 Q205.922 394.878 203.584 392.772 Q201.246 390.665 197.241 390.665 Q195.366 390.665 193.491 391.082 Q191.64 391.499 189.695 392.378 L189.695 375.017 Z" fill="#000000" fill-rule="evenodd" fill-opacity="1" /><polyline clip-path="url(#clip572)" style="stroke:#009af9; stroke-linecap:butt; stroke-linejoin:round; stroke-width:12; stroke-opacity:1; fill:none" points="
  306.206,1445.72 372.437,1398.9 438.669,1352.08 504.9,1305.26 571.132,1258.44 637.363,1211.62 703.594,1164.8 769.826,1117.99 836.057,1071.17 902.288,1024.35 
  968.52,977.53 1034.75,930.711 1100.98,883.892 1167.21,837.074 1233.45,790.255 1299.68,743.437 1365.91,696.618 1432.14,649.799 1498.37,602.981 1564.6,556.162 
  1630.83,509.344 1697.07,462.525 1763.3,415.706 1829.53,368.888 1895.76,322.069 1961.99,275.251 2028.22,228.432 2094.45,181.613 2160.68,134.795 2226.92,87.9763 
  2293.15,1445.72 
  "/>
<line clip-path="url(#clip572)" x1="306.206" y1="1445.72" x2="306.206" y2="1429.72" style="stroke:#009af9; stroke-width:3.2; stroke-opacity:1"/>
<line clip-path="url(#clip572)" x1="306.206" y1="1445.72" x2="290.206" y2="1445.72" style="stroke:#009af9; stroke-width:3.2; stroke-opacity:1"/>
<line clip-path="url(#clip572)" x1="306.206" y1="1445.72" x2="306.206" y2="1461.72" style="stroke:#009af9; stroke-width:3.2; stroke-opacity:1"/>
<line clip-path="url(#clip572)" x1="306.206" y1="1445.72" x2="322.206" y2="1445.72" style="stroke:#009af9; stroke-width:3.2; stroke-opacity:1"/>
<line clip-path="url(#clip572)" x1="372.437" y1="1398.9" x2="372.437" y2="1382.9" style="stroke:#009af9; stroke-width:3.2; stroke-opacity:1"/>
<line clip-path="url(#clip572)" x1="372.437" y1="1398.9" x2="356.437" y2="1398.9" style="stroke:#009af9; stroke-width:3.2; stroke-opacity:1"/>
<line clip-path="url(#clip572)" x1="372.437" y1="1398.9" x2="372.437" y2="1414.9" style="stroke:#009af9; stroke-width:3.2; stroke-opacity:1"/>
<line clip-path="url(#clip572)" x1="372.437" y1="1398.9" x2="388.437" y2="1398.9" style="stroke:#009af9; stroke-width:3.2; stroke-opacity:1"/>
<line clip-path="url(#clip572)" x1="438.669" y1="1352.08" x2="438.669" y2="1336.08" style="stroke:#009af9; stroke-width:3.2; stroke-opacity:1"/>
<line clip-path="url(#clip572)" x1="438.669" y1="1352.08" x2="422.669" y2="1352.08" style="stroke:#009af9; stroke-width:3.2; stroke-opacity:1"/>
<line clip-path="url(#clip572)" x1="438.669" y1="1352.08" x2="438.669" y2="1368.08" style="stroke:#009af9; stroke-width:3.2; stroke-opacity:1"/>
<line clip-path="url(#clip572)" x1="438.669" y1="1352.08" x2="454.669" y2="1352.08" style="stroke:#009af9; stroke-width:3.2; stroke-opacity:1"/>
<line clip-path="url(#clip572)" x1="504.9" y1="1305.26" x2="504.9" y2="1289.26" style="stroke:#009af9; stroke-width:3.2; stroke-opacity:1"/>
<line clip-path="url(#clip572)" x1="504.9" y1="1305.26" x2="488.9" y2="1305.26" style="stroke:#009af9; stroke-width:3.2; stroke-opacity:1"/>
<line clip-path="url(#clip572)" x1="504.9" y1="1305.26" x2="504.9" y2="1321.26" style="stroke:#009af9; stroke-width:3.2; stroke-opacity:1"/>
<line clip-path="url(#clip572)" x1="504.9" y1="1305.26" x2="520.9" y2="1305.26" style="stroke:#009af9; stroke-width:3.2; stroke-opacity:1"/>
<line clip-path="url(#clip572)" x1="571.132" y1="1258.44" x2="571.132" y2="1242.44" style="stroke:#009af9; stroke-width:3.2; stroke-opacity:1"/>
<line clip-path="url(#clip572)" x1="571.132" y1="1258.44" x2="555.132" y2="1258.44" style="stroke:#009af9; stroke-width:3.2; stroke-opacity:1"/>
<line clip-path="url(#clip572)" x1="571.132" y1="1258.44" x2="571.132" y2="1274.44" style="stroke:#009af9; stroke-width:3.2; stroke-opacity:1"/>
<line clip-path="url(#clip572)" x1="571.132" y1="1258.44" x2="587.132" y2="1258.44" style="stroke:#009af9; stroke-width:3.2; stroke-opacity:1"/>
<line clip-path="url(#clip572)" x1="637.363" y1="1211.62" x2="637.363" y2="1195.62" style="stroke:#009af9; stroke-width:3.2; stroke-opacity:1"/>
<line clip-path="url(#clip572)" x1="637.363" y1="1211.62" x2="621.363" y2="1211.62" style="stroke:#009af9; stroke-width:3.2; stroke-opacity:1"/>
<line clip-path="url(#clip572)" x1="637.363" y1="1211.62" x2="637.363" y2="1227.62" style="stroke:#009af9; stroke-width:3.2; stroke-opacity:1"/>
<line clip-path="url(#clip572)" x1="637.363" y1="1211.62" x2="653.363" y2="1211.62" style="stroke:#009af9; stroke-width:3.2; stroke-opacity:1"/>
<line clip-path="url(#clip572)" x1="703.594" y1="1164.8" x2="703.594" y2="1148.8" style="stroke:#009af9; stroke-width:3.2; stroke-opacity:1"/>
<line clip-path="url(#clip572)" x1="703.594" y1="1164.8" x2="687.594" y2="1164.8" style="stroke:#009af9; stroke-width:3.2; stroke-opacity:1"/>
<line clip-path="url(#clip572)" x1="703.594" y1="1164.8" x2="703.594" y2="1180.8" style="stroke:#009af9; stroke-width:3.2; stroke-opacity:1"/>
<line clip-path="url(#clip572)" x1="703.594" y1="1164.8" x2="719.594" y2="1164.8" style="stroke:#009af9; stroke-width:3.2; stroke-opacity:1"/>
<line clip-path="url(#clip572)" x1="769.826" y1="1117.99" x2="769.826" y2="1101.99" style="stroke:#009af9; stroke-width:3.2; stroke-opacity:1"/>
<line clip-path="url(#clip572)" x1="769.826" y1="1117.99" x2="753.826" y2="1117.99" style="stroke:#009af9; stroke-width:3.2; stroke-opacity:1"/>
<line clip-path="url(#clip572)" x1="769.826" y1="1117.99" x2="769.826" y2="1133.99" style="stroke:#009af9; stroke-width:3.2; stroke-opacity:1"/>
<line clip-path="url(#clip572)" x1="769.826" y1="1117.99" x2="785.826" y2="1117.99" style="stroke:#009af9; stroke-width:3.2; stroke-opacity:1"/>
<line clip-path="url(#clip572)" x1="836.057" y1="1071.17" x2="836.057" y2="1055.17" style="stroke:#009af9; stroke-width:3.2; stroke-opacity:1"/>
<line clip-path="url(#clip572)" x1="836.057" y1="1071.17" x2="820.057" y2="1071.17" style="stroke:#009af9; stroke-width:3.2; stroke-opacity:1"/>
<line clip-path="url(#clip572)" x1="836.057" y1="1071.17" x2="836.057" y2="1087.17" style="stroke:#009af9; stroke-width:3.2; stroke-opacity:1"/>
<line clip-path="url(#clip572)" x1="836.057" y1="1071.17" x2="852.057" y2="1071.17" style="stroke:#009af9; stroke-width:3.2; stroke-opacity:1"/>
<line clip-path="url(#clip572)" x1="902.288" y1="1024.35" x2="902.288" y2="1008.35" style="stroke:#009af9; stroke-width:3.2; stroke-opacity:1"/>
<line clip-path="url(#clip572)" x1="902.288" y1="1024.35" x2="886.288" y2="1024.35" style="stroke:#009af9; stroke-width:3.2; stroke-opacity:1"/>
<line clip-path="url(#clip572)" x1="902.288" y1="1024.35" x2="902.288" y2="1040.35" style="stroke:#009af9; stroke-width:3.2; stroke-opacity:1"/>
<line clip-path="url(#clip572)" x1="902.288" y1="1024.35" x2="918.288" y2="1024.35" style="stroke:#009af9; stroke-width:3.2; stroke-opacity:1"/>
<line clip-path="url(#clip572)" x1="968.52" y1="977.53" x2="968.52" y2="961.53" style="stroke:#009af9; stroke-width:3.2; stroke-opacity:1"/>
<line clip-path="url(#clip572)" x1="968.52" y1="977.53" x2="952.52" y2="977.53" style="stroke:#009af9; stroke-width:3.2; stroke-opacity:1"/>
<line clip-path="url(#clip572)" x1="968.52" y1="977.53" x2="968.52" y2="993.53" style="stroke:#009af9; stroke-width:3.2; stroke-opacity:1"/>
<line clip-path="url(#clip572)" x1="968.52" y1="977.53" x2="984.52" y2="977.53" style="stroke:#009af9; stroke-width:3.2; stroke-opacity:1"/>
<line clip-path="url(#clip572)" x1="1034.75" y1="930.711" x2="1034.75" y2="914.711" style="stroke:#009af9; stroke-width:3.2; stroke-opacity:1"/>
<line clip-path="url(#clip572)" x1="1034.75" y1="930.711" x2="1018.75" y2="930.711" style="stroke:#009af9; stroke-width:3.2; stroke-opacity:1"/>
<line clip-path="url(#clip572)" x1="1034.75" y1="930.711" x2="1034.75" y2="946.711" style="stroke:#009af9; stroke-width:3.2; stroke-opacity:1"/>
<line clip-path="url(#clip572)" x1="1034.75" y1="930.711" x2="1050.75" y2="930.711" style="stroke:#009af9; stroke-width:3.2; stroke-opacity:1"/>
<line clip-path="url(#clip572)" x1="1100.98" y1="883.892" x2="1100.98" y2="867.892" style="stroke:#009af9; stroke-width:3.2; stroke-opacity:1"/>
<line clip-path="url(#clip572)" x1="1100.98" y1="883.892" x2="1084.98" y2="883.892" style="stroke:#009af9; stroke-width:3.2; stroke-opacity:1"/>
<line clip-path="url(#clip572)" x1="1100.98" y1="883.892" x2="1100.98" y2="899.892" style="stroke:#009af9; stroke-width:3.2; stroke-opacity:1"/>
<line clip-path="url(#clip572)" x1="1100.98" y1="883.892" x2="1116.98" y2="883.892" style="stroke:#009af9; stroke-width:3.2; stroke-opacity:1"/>
<line clip-path="url(#clip572)" x1="1167.21" y1="837.074" x2="1167.21" y2="821.074" style="stroke:#009af9; stroke-width:3.2; stroke-opacity:1"/>
<line clip-path="url(#clip572)" x1="1167.21" y1="837.074" x2="1151.21" y2="837.074" style="stroke:#009af9; stroke-width:3.2; stroke-opacity:1"/>
<line clip-path="url(#clip572)" x1="1167.21" y1="837.074" x2="1167.21" y2="853.074" style="stroke:#009af9; stroke-width:3.2; stroke-opacity:1"/>
<line clip-path="url(#clip572)" x1="1167.21" y1="837.074" x2="1183.21" y2="837.074" style="stroke:#009af9; stroke-width:3.2; stroke-opacity:1"/>
<line clip-path="url(#clip572)" x1="1233.45" y1="790.255" x2="1233.45" y2="774.255" style="stroke:#009af9; stroke-width:3.2; stroke-opacity:1"/>
<line clip-path="url(#clip572)" x1="1233.45" y1="790.255" x2="1217.45" y2="790.255" style="stroke:#009af9; stroke-width:3.2; stroke-opacity:1"/>
<line clip-path="url(#clip572)" x1="1233.45" y1="790.255" x2="1233.45" y2="806.255" style="stroke:#009af9; stroke-width:3.2; stroke-opacity:1"/>
<line clip-path="url(#clip572)" x1="1233.45" y1="790.255" x2="1249.45" y2="790.255" style="stroke:#009af9; stroke-width:3.2; stroke-opacity:1"/>
<line clip-path="url(#clip572)" x1="1299.68" y1="743.437" x2="1299.68" y2="727.437" style="stroke:#009af9; stroke-width:3.2; stroke-opacity:1"/>
<line clip-path="url(#clip572)" x1="1299.68" y1="743.437" x2="1283.68" y2="743.437" style="stroke:#009af9; stroke-width:3.2; stroke-opacity:1"/>
<line clip-path="url(#clip572)" x1="1299.68" y1="743.437" x2="1299.68" y2="759.437" style="stroke:#009af9; stroke-width:3.2; stroke-opacity:1"/>
<line clip-path="url(#clip572)" x1="1299.68" y1="743.437" x2="1315.68" y2="743.437" style="stroke:#009af9; stroke-width:3.2; stroke-opacity:1"/>
<line clip-path="url(#clip572)" x1="1365.91" y1="696.618" x2="1365.91" y2="680.618" style="stroke:#009af9; stroke-width:3.2; stroke-opacity:1"/>
<line clip-path="url(#clip572)" x1="1365.91" y1="696.618" x2="1349.91" y2="696.618" style="stroke:#009af9; stroke-width:3.2; stroke-opacity:1"/>
<line clip-path="url(#clip572)" x1="1365.91" y1="696.618" x2="1365.91" y2="712.618" style="stroke:#009af9; stroke-width:3.2; stroke-opacity:1"/>
<line clip-path="url(#clip572)" x1="1365.91" y1="696.618" x2="1381.91" y2="696.618" style="stroke:#009af9; stroke-width:3.2; stroke-opacity:1"/>
<line clip-path="url(#clip572)" x1="1432.14" y1="649.799" x2="1432.14" y2="633.799" style="stroke:#009af9; stroke-width:3.2; stroke-opacity:1"/>
<line clip-path="url(#clip572)" x1="1432.14" y1="649.799" x2="1416.14" y2="649.799" style="stroke:#009af9; stroke-width:3.2; stroke-opacity:1"/>
<line clip-path="url(#clip572)" x1="1432.14" y1="649.799" x2="1432.14" y2="665.799" style="stroke:#009af9; stroke-width:3.2; stroke-opacity:1"/>
<line clip-path="url(#clip572)" x1="1432.14" y1="649.799" x2="1448.14" y2="649.799" style="stroke:#009af9; stroke-width:3.2; stroke-opacity:1"/>
<line clip-path="url(#clip572)" x1="1498.37" y1="602.981" x2="1498.37" y2="586.981" style="stroke:#009af9; stroke-width:3.2; stroke-opacity:1"/>
<line clip-path="url(#clip572)" x1="1498.37" y1="602.981" x2="1482.37" y2="602.981" style="stroke:#009af9; stroke-width:3.2; stroke-opacity:1"/>
<line clip-path="url(#clip572)" x1="1498.37" y1="602.981" x2="1498.37" y2="618.981" style="stroke:#009af9; stroke-width:3.2; stroke-opacity:1"/>
<line clip-path="url(#clip572)" x1="1498.37" y1="602.981" x2="1514.37" y2="602.981" style="stroke:#009af9; stroke-width:3.2; stroke-opacity:1"/>
<line clip-path="url(#clip572)" x1="1564.6" y1="556.162" x2="1564.6" y2="540.162" style="stroke:#009af9; stroke-width:3.2; stroke-opacity:1"/>
<line clip-path="url(#clip572)" x1="1564.6" y1="556.162" x2="1548.6" y2="556.162" style="stroke:#009af9; stroke-width:3.2; stroke-opacity:1"/>
<line clip-path="url(#clip572)" x1="1564.6" y1="556.162" x2="1564.6" y2="572.162" style="stroke:#009af9; stroke-width:3.2; stroke-opacity:1"/>
<line clip-path="url(#clip572)" x1="1564.6" y1="556.162" x2="1580.6" y2="556.162" style="stroke:#009af9; stroke-width:3.2; stroke-opacity:1"/>
<line clip-path="url(#clip572)" x1="1630.83" y1="509.344" x2="1630.83" y2="493.344" style="stroke:#009af9; stroke-width:3.2; stroke-opacity:1"/>
<line clip-path="url(#clip572)" x1="1630.83" y1="509.344" x2="1614.83" y2="509.344" style="stroke:#009af9; stroke-width:3.2; stroke-opacity:1"/>
<line clip-path="url(#clip572)" x1="1630.83" y1="509.344" x2="1630.83" y2="525.344" style="stroke:#009af9; stroke-width:3.2; stroke-opacity:1"/>
<line clip-path="url(#clip572)" x1="1630.83" y1="509.344" x2="1646.83" y2="509.344" style="stroke:#009af9; stroke-width:3.2; stroke-opacity:1"/>
<line clip-path="url(#clip572)" x1="1697.07" y1="462.525" x2="1697.07" y2="446.525" style="stroke:#009af9; stroke-width:3.2; stroke-opacity:1"/>
<line clip-path="url(#clip572)" x1="1697.07" y1="462.525" x2="1681.07" y2="462.525" style="stroke:#009af9; stroke-width:3.2; stroke-opacity:1"/>
<line clip-path="url(#clip572)" x1="1697.07" y1="462.525" x2="1697.07" y2="478.525" style="stroke:#009af9; stroke-width:3.2; stroke-opacity:1"/>
<line clip-path="url(#clip572)" x1="1697.07" y1="462.525" x2="1713.07" y2="462.525" style="stroke:#009af9; stroke-width:3.2; stroke-opacity:1"/>
<line clip-path="url(#clip572)" x1="1763.3" y1="415.706" x2="1763.3" y2="399.706" style="stroke:#009af9; stroke-width:3.2; stroke-opacity:1"/>
<line clip-path="url(#clip572)" x1="1763.3" y1="415.706" x2="1747.3" y2="415.706" style="stroke:#009af9; stroke-width:3.2; stroke-opacity:1"/>
<line clip-path="url(#clip572)" x1="1763.3" y1="415.706" x2="1763.3" y2="431.706" style="stroke:#009af9; stroke-width:3.2; stroke-opacity:1"/>
<line clip-path="url(#clip572)" x1="1763.3" y1="415.706" x2="1779.3" y2="415.706" style="stroke:#009af9; stroke-width:3.2; stroke-opacity:1"/>
<line clip-path="url(#clip572)" x1="1829.53" y1="368.888" x2="1829.53" y2="352.888" style="stroke:#009af9; stroke-width:3.2; stroke-opacity:1"/>
<line clip-path="url(#clip572)" x1="1829.53" y1="368.888" x2="1813.53" y2="368.888" style="stroke:#009af9; stroke-width:3.2; stroke-opacity:1"/>
<line clip-path="url(#clip572)" x1="1829.53" y1="368.888" x2="1829.53" y2="384.888" style="stroke:#009af9; stroke-width:3.2; stroke-opacity:1"/>
<line clip-path="url(#clip572)" x1="1829.53" y1="368.888" x2="1845.53" y2="368.888" style="stroke:#009af9; stroke-width:3.2; stroke-opacity:1"/>
<line clip-path="url(#clip572)" x1="1895.76" y1="322.069" x2="1895.76" y2="306.069" style="stroke:#009af9; stroke-width:3.2; stroke-opacity:1"/>
<line clip-path="url(#clip572)" x1="1895.76" y1="322.069" x2="1879.76" y2="322.069" style="stroke:#009af9; stroke-width:3.2; stroke-opacity:1"/>
<line clip-path="url(#clip572)" x1="1895.76" y1="322.069" x2="1895.76" y2="338.069" style="stroke:#009af9; stroke-width:3.2; stroke-opacity:1"/>
<line clip-path="url(#clip572)" x1="1895.76" y1="322.069" x2="1911.76" y2="322.069" style="stroke:#009af9; stroke-width:3.2; stroke-opacity:1"/>
<line clip-path="url(#clip572)" x1="1961.99" y1="275.251" x2="1961.99" y2="259.251" style="stroke:#009af9; stroke-width:3.2; stroke-opacity:1"/>
<line clip-path="url(#clip572)" x1="1961.99" y1="275.251" x2="1945.99" y2="275.251" style="stroke:#009af9; stroke-width:3.2; stroke-opacity:1"/>
<line clip-path="url(#clip572)" x1="1961.99" y1="275.251" x2="1961.99" y2="291.251" style="stroke:#009af9; stroke-width:3.2; stroke-opacity:1"/>
<line clip-path="url(#clip572)" x1="1961.99" y1="275.251" x2="1977.99" y2="275.251" style="stroke:#009af9; stroke-width:3.2; stroke-opacity:1"/>
<line clip-path="url(#clip572)" x1="2028.22" y1="228.432" x2="2028.22" y2="212.432" style="stroke:#009af9; stroke-width:3.2; stroke-opacity:1"/>
<line clip-path="url(#clip572)" x1="2028.22" y1="228.432" x2="2012.22" y2="228.432" style="stroke:#009af9; stroke-width:3.2; stroke-opacity:1"/>
<line clip-path="url(#clip572)" x1="2028.22" y1="228.432" x2="2028.22" y2="244.432" style="stroke:#009af9; stroke-width:3.2; stroke-opacity:1"/>
<line clip-path="url(#clip572)" x1="2028.22" y1="228.432" x2="2044.22" y2="228.432" style="stroke:#009af9; stroke-width:3.2; stroke-opacity:1"/>
<line clip-path="url(#clip572)" x1="2094.45" y1="181.613" x2="2094.45" y2="165.613" style="stroke:#009af9; stroke-width:3.2; stroke-opacity:1"/>
<line clip-path="url(#clip572)" x1="2094.45" y1="181.613" x2="2078.45" y2="181.613" style="stroke:#009af9; stroke-width:3.2; stroke-opacity:1"/>
<line clip-path="url(#clip572)" x1="2094.45" y1="181.613" x2="2094.45" y2="197.613" style="stroke:#009af9; stroke-width:3.2; stroke-opacity:1"/>
<line clip-path="url(#clip572)" x1="2094.45" y1="181.613" x2="2110.45" y2="181.613" style="stroke:#009af9; stroke-width:3.2; stroke-opacity:1"/>
<line clip-path="url(#clip572)" x1="2160.68" y1="134.795" x2="2160.68" y2="118.795" style="stroke:#009af9; stroke-width:3.2; stroke-opacity:1"/>
<line clip-path="url(#clip572)" x1="2160.68" y1="134.795" x2="2144.68" y2="134.795" style="stroke:#009af9; stroke-width:3.2; stroke-opacity:1"/>
<line clip-path="url(#clip572)" x1="2160.68" y1="134.795" x2="2160.68" y2="150.795" style="stroke:#009af9; stroke-width:3.2; stroke-opacity:1"/>
<line clip-path="url(#clip572)" x1="2160.68" y1="134.795" x2="2176.68" y2="134.795" style="stroke:#009af9; stroke-width:3.2; stroke-opacity:1"/>
<line clip-path="url(#clip572)" x1="2226.92" y1="87.9763" x2="2226.92" y2="71.9763" style="stroke:#009af9; stroke-width:3.2; stroke-opacity:1"/>
<line clip-path="url(#clip572)" x1="2226.92" y1="87.9763" x2="2210.92" y2="87.9763" style="stroke:#009af9; stroke-width:3.2; stroke-opacity:1"/>
<line clip-path="url(#clip572)" x1="2226.92" y1="87.9763" x2="2226.92" y2="103.976" style="stroke:#009af9; stroke-width:3.2; stroke-opacity:1"/>
<line clip-path="url(#clip572)" x1="2226.92" y1="87.9763" x2="2242.92" y2="87.9763" style="stroke:#009af9; stroke-width:3.2; stroke-opacity:1"/>
<line clip-path="url(#clip572)" x1="2293.15" y1="1445.72" x2="2293.15" y2="1429.72" style="stroke:#009af9; stroke-width:3.2; stroke-opacity:1"/>
<line clip-path="url(#clip572)" x1="2293.15" y1="1445.72" x2="2277.15" y2="1445.72" style="stroke:#009af9; stroke-width:3.2; stroke-opacity:1"/>
<line clip-path="url(#clip572)" x1="2293.15" y1="1445.72" x2="2293.15" y2="1461.72" style="stroke:#009af9; stroke-width:3.2; stroke-opacity:1"/>
<line clip-path="url(#clip572)" x1="2293.15" y1="1445.72" x2="2309.15" y2="1445.72" style="stroke:#009af9; stroke-width:3.2; stroke-opacity:1"/>
</svg>
