<?xml version="1.0" encoding="utf-8"?>
<svg xmlns="http://www.w3.org/2000/svg" xmlns:xlink="http://www.w3.org/1999/xlink" width="600" height="400" viewBox="0 0 2400 1600">
<defs>
  <clipPath id="clip630">
    <rect x="0" y="0" width="2400" height="1600"/>
  </clipPath>
</defs>
<path clip-path="url(#clip630)" d="
M0 1600 L2400 1600 L2400 0 L0 0  Z
  " fill="#ffffff" fill-rule="evenodd" fill-opacity="1"/>
<defs>
  <clipPath id="clip631">
    <rect x="480" y="0" width="1681" height="1600"/>
  </clipPath>
</defs>
<defs>
  <clipPath id="clip632">
    <rect x="193" y="47" width="2160" height="1440"/>
  </clipPath>
</defs>
<path clip-path="url(#clip630)" d="
M188.574 1474.16 L2352.76 1474.16 L2352.76 47.2441 L188.574 47.2441  Z
  " fill="#ffffff" fill-rule="evenodd" fill-opacity="1"/>
<defs>
  <clipPath id="clip633">
    <rect x="188" y="47" width="2165" height="1428"/>
  </clipPath>
</defs>
<polyline clip-path="url(#clip633)" style="stroke:#000000; stroke-linecap:butt; stroke-linejoin:round; stroke-width:2; stroke-opacity:0.1; fill:none" points="
  645.369,1474.16 645.369,47.2441 
  "/>
<polyline clip-path="url(#clip633)" style="stroke:#000000; stroke-linecap:butt; stroke-linejoin:round; stroke-width:2; stroke-opacity:0.1; fill:none" points="
  1614.27,1474.16 1614.27,47.2441 
  "/>
<polyline clip-path="url(#clip630)" style="stroke:#000000; stroke-linecap:butt; stroke-linejoin:round; stroke-width:4; stroke-opacity:1; fill:none" points="
  188.574,1474.16 2352.76,1474.16 
  "/>
<polyline clip-path="url(#clip630)" style="stroke:#000000; stroke-linecap:butt; stroke-linejoin:round; stroke-width:4; stroke-opacity:1; fill:none" points="
  645.369,1474.16 645.369,1455.27 
  "/>
<polyline clip-path="url(#clip630)" style="stroke:#000000; stroke-linecap:butt; stroke-linejoin:round; stroke-width:4; stroke-opacity:1; fill:none" points="
  1614.27,1474.16 1614.27,1455.27 
  "/>
<path clip-path="url(#clip630)" d="M595.635 1548.29 L603.274 1548.29 L603.274 1521.92 L594.964 1523.59 L594.964 1519.33 L603.228 1517.66 L607.904 1517.66 L607.904 1548.29 L615.542 1548.29 L615.542 1552.22 L595.635 1552.22 L595.635 1548.29 Z" fill="#000000" fill-rule="evenodd" fill-opacity="1" /><path clip-path="url(#clip630)" d="M634.987 1520.74 Q631.376 1520.74 629.547 1524.31 Q627.741 1527.85 627.741 1534.98 Q627.741 1542.09 629.547 1545.65 Q631.376 1549.19 634.987 1549.19 Q638.621 1549.19 640.427 1545.65 Q642.255 1542.09 642.255 1534.98 Q642.255 1527.85 640.427 1524.31 Q638.621 1520.74 634.987 1520.74 M634.987 1517.04 Q640.797 1517.04 643.853 1521.65 Q646.931 1526.23 646.931 1534.98 Q646.931 1543.71 643.853 1548.31 Q640.797 1552.9 634.987 1552.9 Q629.177 1552.9 626.098 1548.31 Q623.042 1543.71 623.042 1534.98 Q623.042 1526.23 626.098 1521.65 Q629.177 1517.04 634.987 1517.04 Z" fill="#000000" fill-rule="evenodd" fill-opacity="1" /><path clip-path="url(#clip630)" d="M646.931 1511.14 L671.043 1511.14 L671.043 1514.34 L646.931 1514.34 L646.931 1511.14 Z" fill="#000000" fill-rule="evenodd" fill-opacity="1" /><path clip-path="url(#clip630)" d="M682.515 1521.62 L695.775 1521.62 L695.775 1524.81 L677.945 1524.81 L677.945 1521.62 Q680.108 1519.38 683.832 1515.62 Q687.575 1511.84 688.534 1510.75 Q690.358 1508.7 691.073 1507.29 Q691.807 1505.86 691.807 1504.48 Q691.807 1502.24 690.227 1500.83 Q688.666 1499.42 686.145 1499.42 Q684.359 1499.42 682.365 1500.04 Q680.39 1500.67 678.133 1501.93 L678.133 1498.09 Q680.428 1497.17 682.421 1496.7 Q684.415 1496.23 686.07 1496.23 Q690.434 1496.23 693.029 1498.41 Q695.625 1500.59 695.625 1504.24 Q695.625 1505.97 694.966 1507.53 Q694.327 1509.07 692.615 1511.18 Q692.145 1511.72 689.625 1514.34 Q687.105 1516.93 682.515 1521.62 Z" fill="#000000" fill-rule="evenodd" fill-opacity="1" /><path clip-path="url(#clip630)" d="M1564.39 1548.29 L1572.03 1548.29 L1572.03 1521.92 L1563.72 1523.59 L1563.72 1519.33 L1571.98 1517.66 L1576.66 1517.66 L1576.66 1548.29 L1584.29 1548.29 L1584.29 1552.22 L1564.39 1552.22 L1564.39 1548.29 Z" fill="#000000" fill-rule="evenodd" fill-opacity="1" /><path clip-path="url(#clip630)" d="M1603.74 1520.74 Q1600.13 1520.74 1598.3 1524.31 Q1596.49 1527.85 1596.49 1534.98 Q1596.49 1542.09 1598.3 1545.65 Q1600.13 1549.19 1603.74 1549.19 Q1607.37 1549.19 1609.18 1545.65 Q1611.01 1542.09 1611.01 1534.98 Q1611.01 1527.85 1609.18 1524.31 Q1607.37 1520.74 1603.74 1520.74 M1603.74 1517.04 Q1609.55 1517.04 1612.6 1521.65 Q1615.68 1526.23 1615.68 1534.98 Q1615.68 1543.71 1612.6 1548.31 Q1609.55 1552.9 1603.74 1552.9 Q1597.93 1552.9 1594.85 1548.31 Q1591.79 1543.71 1591.79 1534.98 Q1591.79 1526.23 1594.85 1521.65 Q1597.93 1517.04 1603.74 1517.04 Z" fill="#000000" fill-rule="evenodd" fill-opacity="1" /><path clip-path="url(#clip630)" d="M1615.68 1511.14 L1639.79 1511.14 L1639.79 1514.34 L1615.68 1514.34 L1615.68 1511.14 Z" fill="#000000" fill-rule="evenodd" fill-opacity="1" /><path clip-path="url(#clip630)" d="M1648.65 1521.62 L1654.86 1521.62 L1654.86 1500.19 L1648.11 1501.55 L1648.11 1498.09 L1654.82 1496.73 L1658.62 1496.73 L1658.62 1521.62 L1664.83 1521.62 L1664.83 1524.81 L1648.65 1524.81 L1648.65 1521.62 Z" fill="#000000" fill-rule="evenodd" fill-opacity="1" /><polyline clip-path="url(#clip633)" style="stroke:#000000; stroke-linecap:butt; stroke-linejoin:round; stroke-width:2; stroke-opacity:0.1; fill:none" points="
  188.574,783.655 2352.76,783.655 
  "/>
<polyline clip-path="url(#clip633)" style="stroke:#000000; stroke-linecap:butt; stroke-linejoin:round; stroke-width:2; stroke-opacity:0.1; fill:none" points="
  188.574,67.6697 2352.76,67.6697 
  "/>
<polyline clip-path="url(#clip630)" style="stroke:#000000; stroke-linecap:butt; stroke-linejoin:round; stroke-width:4; stroke-opacity:1; fill:none" points="
  188.574,1474.16 188.574,47.2441 
  "/>
<polyline clip-path="url(#clip630)" style="stroke:#000000; stroke-linecap:butt; stroke-linejoin:round; stroke-width:4; stroke-opacity:1; fill:none" points="
  188.574,783.655 207.472,783.655 
  "/>
<polyline clip-path="url(#clip630)" style="stroke:#000000; stroke-linecap:butt; stroke-linejoin:round; stroke-width:4; stroke-opacity:1; fill:none" points="
  188.574,67.6697 207.472,67.6697 
  "/>
<path clip-path="url(#clip630)" d="M51.6634 803.448 L59.3023 803.448 L59.3023 777.082 L50.9921 778.749 L50.9921 774.49 L59.256 772.823 L63.9319 772.823 L63.9319 803.448 L71.5707 803.448 L71.5707 807.383 L51.6634 807.383 L51.6634 803.448 Z" fill="#000000" fill-rule="evenodd" fill-opacity="1" /><path clip-path="url(#clip630)" d="M91.0151 775.902 Q87.404 775.902 85.5753 779.466 Q83.7697 783.008 83.7697 790.138 Q83.7697 797.244 85.5753 800.809 Q87.404 804.351 91.0151 804.351 Q94.6493 804.351 96.4548 800.809 Q98.2835 797.244 98.2835 790.138 Q98.2835 783.008 96.4548 779.466 Q94.6493 775.902 91.0151 775.902 M91.0151 772.198 Q96.8252 772.198 99.8808 776.804 Q102.959 781.388 102.959 790.138 Q102.959 798.864 99.8808 803.471 Q96.8252 808.054 91.0151 808.054 Q85.2049 808.054 82.1262 803.471 Q79.0707 798.864 79.0707 790.138 Q79.0707 781.388 82.1262 776.804 Q85.2049 772.198 91.0151 772.198 Z" fill="#000000" fill-rule="evenodd" fill-opacity="1" /><path clip-path="url(#clip630)" d="M102.959 766.299 L127.071 766.299 L127.071 769.497 L102.959 769.497 L102.959 766.299 Z" fill="#000000" fill-rule="evenodd" fill-opacity="1" /><path clip-path="url(#clip630)" d="M146.782 764.832 Q149.509 765.415 151.032 767.258 Q152.574 769.102 152.574 771.81 Q152.574 775.966 149.716 778.242 Q146.857 780.518 141.591 780.518 Q139.823 780.518 137.942 780.161 Q136.08 779.822 134.086 779.126 L134.086 775.459 Q135.666 776.38 137.547 776.85 Q139.428 777.321 141.478 777.321 Q145.051 777.321 146.913 775.91 Q148.794 774.499 148.794 771.81 Q148.794 769.327 147.045 767.936 Q145.315 766.525 142.211 766.525 L138.939 766.525 L138.939 763.403 L142.362 763.403 Q145.164 763.403 146.65 762.293 Q148.136 761.165 148.136 759.058 Q148.136 756.895 146.593 755.748 Q145.07 754.582 142.211 754.582 Q140.65 754.582 138.863 754.921 Q137.077 755.259 134.933 755.974 L134.933 752.588 Q137.096 751.987 138.976 751.686 Q140.876 751.385 142.55 751.385 Q146.876 751.385 149.396 753.36 Q151.916 755.316 151.916 758.663 Q151.916 760.995 150.581 762.613 Q149.245 764.212 146.782 764.832 Z" fill="#000000" fill-rule="evenodd" fill-opacity="1" /><path clip-path="url(#clip630)" d="M81.8687 87.4621 L89.5075 87.4621 L89.5075 61.0965 L81.1974 62.7632 L81.1974 58.504 L89.4612 56.8373 L94.1371 56.8373 L94.1371 87.4621 L101.776 87.4621 L101.776 91.3973 L81.8687 91.3973 L81.8687 87.4621 Z" fill="#000000" fill-rule="evenodd" fill-opacity="1" /><path clip-path="url(#clip630)" d="M121.22 59.916 Q117.609 59.916 115.781 63.4808 Q113.975 67.0224 113.975 74.152 Q113.975 81.2585 115.781 84.8233 Q117.609 88.3649 121.22 88.3649 Q124.855 88.3649 126.66 84.8233 Q128.489 81.2585 128.489 74.152 Q128.489 67.0224 126.66 63.4808 Q124.855 59.916 121.22 59.916 M121.22 56.2123 Q127.03 56.2123 130.086 60.8188 Q133.165 65.4021 133.165 74.152 Q133.165 82.8788 130.086 87.4853 Q127.03 92.0686 121.22 92.0686 Q115.41 92.0686 112.331 87.4853 Q109.276 82.8788 109.276 74.152 Q109.276 65.4021 112.331 60.8188 Q115.41 56.2123 121.22 56.2123 Z" fill="#000000" fill-rule="evenodd" fill-opacity="1" /><path clip-path="url(#clip630)" d="M142.87 38.4083 Q139.936 38.4083 138.45 41.3047 Q136.983 44.1823 136.983 49.9751 Q136.983 55.7491 138.45 58.6455 Q139.936 61.5231 142.87 61.5231 Q145.822 61.5231 147.289 58.6455 Q148.775 55.7491 148.775 49.9751 Q148.775 44.1823 147.289 41.3047 Q145.822 38.4083 142.87 38.4083 M142.87 35.3991 Q147.59 35.3991 150.073 39.1418 Q152.574 42.8658 152.574 49.9751 Q152.574 57.0656 150.073 60.8084 Q147.59 64.5323 142.87 64.5323 Q138.149 64.5323 135.647 60.8084 Q133.165 57.0656 133.165 49.9751 Q133.165 42.8658 135.647 39.1418 Q138.149 35.3991 142.87 35.3991 Z" fill="#000000" fill-rule="evenodd" fill-opacity="1" /><polyline clip-path="url(#clip633)" style="stroke:#009af9; stroke-linecap:butt; stroke-linejoin:round; stroke-width:12; stroke-opacity:1; fill:none" points="
  2291.51,87.6286 1999.84,108.483 1708.17,169.617 1416.5,407.911 1124.83,999.64 833.162,1146.4 541.493,1290.09 249.825,1433.78 
  "/>
<circle clip-path="url(#clip633)" cx="2291.51" cy="87.6286" r="14.4" fill="#009af9" fill-rule="evenodd" fill-opacity="1" stroke="#000000" stroke-opacity="1" stroke-width="3.2"/>
<circle clip-path="url(#clip633)" cx="1999.84" cy="108.483" r="14.4" fill="#009af9" fill-rule="evenodd" fill-opacity="1" stroke="#000000" stroke-opacity="1" stroke-width="3.2"/>
<circle clip-path="url(#clip633)" cx="1708.17" cy="169.617" r="14.4" fill="#009af9" fill-rule="evenodd" fill-opacity="1" stroke="#000000" stroke-opacity="1" stroke-width="3.2"/>
<circle clip-path="url(#clip633)" cx="1416.5" cy="407.911" r="14.4" fill="#009af9" fill-rule="evenodd" fill-opacity="1" stroke="#000000" stroke-opacity="1" stroke-width="3.2"/>
<circle clip-path="url(#clip633)" cx="1124.83" cy="999.64" r="14.4" fill="#009af9" fill-rule="evenodd" fill-opacity="1" stroke="#000000" stroke-opacity="1" stroke-width="3.2"/>
<circle clip-path="url(#clip633)" cx="833.162" cy="1146.4" r="14.4" fill="#009af9" fill-rule="evenodd" fill-opacity="1" stroke="#000000" stroke-opacity="1" stroke-width="3.2"/>
<circle clip-path="url(#clip633)" cx="541.493" cy="1290.09" r="14.4" fill="#009af9" fill-rule="evenodd" fill-opacity="1" stroke="#000000" stroke-opacity="1" stroke-width="3.2"/>
<circle clip-path="url(#clip633)" cx="249.825" cy="1433.78" r="14.4" fill="#009af9" fill-rule="evenodd" fill-opacity="1" stroke="#000000" stroke-opacity="1" stroke-width="3.2"/>
<polyline clip-path="url(#clip633)" style="stroke:#e26f46; stroke-linecap:butt; stroke-linejoin:round; stroke-width:12; stroke-opacity:1; fill:none" points="
  2291.51,139.514 1999.84,211.358 1708.17,283.203 1416.5,355.047 1124.83,426.892 833.162,498.736 541.493,570.58 249.825,642.425 
  "/>
<polyline clip-path="url(#clip633)" style="stroke:#3da44d; stroke-linecap:butt; stroke-linejoin:round; stroke-width:12; stroke-opacity:1; fill:none" points="
  2291.51,211.358 1999.84,355.047 1708.17,498.736 1416.5,642.425 1124.83,786.114 833.162,929.802 541.493,1073.49 249.825,1217.18 
  "/>
<path clip-path="url(#clip630)" d="
M260.714 302.168 L553.609 302.168 L553.609 94.8081 L260.714 94.8081  Z
  " fill="#ffffff" fill-rule="evenodd" fill-opacity="1"/>
<polyline clip-path="url(#clip630)" style="stroke:#000000; stroke-linecap:butt; stroke-linejoin:round; stroke-width:4; stroke-opacity:1; fill:none" points="
  260.714,302.168 553.609,302.168 553.609,94.8081 260.714,94.8081 260.714,302.168 
  "/>
<polyline clip-path="url(#clip630)" style="stroke:#009af9; stroke-linecap:butt; stroke-linejoin:round; stroke-width:4; stroke-opacity:1; fill:none" points="
  284.76,146.648 429.039,146.648 
  "/>
<circle clip-path="url(#clip630)" cx="356.9" cy="146.648" r="23.04" fill="#009af9" fill-rule="evenodd" fill-opacity="1" stroke="#000000" stroke-opacity="1" stroke-width="5.12"/>
<path clip-path="url(#clip630)" d="M466.928 166.336 Q465.122 170.965 463.409 172.377 Q461.696 173.789 458.826 173.789 L455.423 173.789 L455.423 170.224 L457.923 170.224 Q459.683 170.224 460.655 169.391 Q461.627 168.558 462.808 165.456 L463.571 163.511 L453.085 138.002 L457.599 138.002 L465.701 158.28 L473.803 138.002 L478.317 138.002 L466.928 166.336 Z" fill="#000000" fill-rule="evenodd" fill-opacity="1" /><path clip-path="url(#clip630)" d="M485.608 159.993 L493.247 159.993 L493.247 133.627 L484.937 135.294 L484.937 131.035 L493.201 129.368 L497.877 129.368 L497.877 159.993 L505.516 159.993 L505.516 163.928 L485.608 163.928 L485.608 159.993 Z" fill="#000000" fill-rule="evenodd" fill-opacity="1" /><polyline clip-path="url(#clip630)" style="stroke:#e26f46; stroke-linecap:butt; stroke-linejoin:round; stroke-width:4; stroke-opacity:1; fill:none" points="
  284.76,198.488 429.039,198.488 
  "/>
<path clip-path="url(#clip630)" d="M476.625 207.836 Q476.625 208.024 476.414 208.75 Q476.203 209.476 475.688 210.6 Q475.196 211.724 474.517 212.755 Q473.838 213.762 472.713 214.512 Q471.613 215.238 470.348 215.238 Q468.661 215.238 467.537 214.113 Q466.413 212.989 466.413 211.303 Q466.413 211.069 466.436 210.834 Q466.46 210.6 466.483 210.46 Q466.506 210.296 466.577 210.038 Q466.67 209.757 466.694 209.64 Q466.741 209.523 466.858 209.171 Q466.998 208.797 467.045 208.656 Q470.02 201.067 470.02 197.905 Q470.02 194.556 467.42 194.556 Q465.101 194.556 462.806 196.242 Q461.752 197.085 460.745 198.584 Q459.737 200.083 459.55 200.646 Q459.339 201.864 459.035 202.8 Q458.894 203.456 458.215 206.009 L457.161 210.342 L456.247 213.973 Q456.06 214.488 455.545 214.863 Q455.029 215.238 454.467 215.238 Q453.999 215.238 453.53 214.91 Q453.085 214.605 453.085 213.879 Q453.085 213.505 453.273 212.825 L460.229 185.187 L460.37 184.25 Q460.37 183.969 460.253 183.828 Q460.159 183.664 459.597 183.547 Q459.058 183.43 457.981 183.43 Q457.536 183.43 457.325 183.407 Q457.137 183.383 456.974 183.266 Q456.81 183.126 456.81 182.845 Q456.81 182.446 456.974 182.236 Q457.161 182.001 457.301 181.954 Q457.442 181.908 457.723 181.884 Q458.121 181.861 459.456 181.744 Q460.791 181.603 461.939 181.509 Q463.087 181.416 463.579 181.416 Q463.86 181.416 464 181.556 Q464.164 181.673 464.188 181.814 L464.211 181.931 L460.463 197.179 Q463.438 193.502 467.56 193.502 Q470.231 193.502 471.659 194.884 Q473.088 196.242 473.088 198.631 Q473.088 201.372 470.16 209.171 Q469.294 211.35 469.294 212.591 Q469.294 213.411 469.551 213.786 Q469.832 214.16 470.441 214.16 Q471.378 214.16 472.198 213.622 Q473.041 213.059 473.627 212.146 Q474.212 211.209 474.611 210.272 Q475.032 209.312 475.337 208.234 Q475.524 207.649 475.618 207.508 Q475.735 207.368 476.063 207.368 Q476.625 207.368 476.625 207.836 Z" fill="#000000" fill-rule="evenodd" fill-opacity="1" /><polyline clip-path="url(#clip630)" style="stroke:#3da44d; stroke-linecap:butt; stroke-linejoin:round; stroke-width:4; stroke-opacity:1; fill:none" points="
  284.76,250.328 429.039,250.328 
  "/>
<path clip-path="url(#clip630)" d="M476.625 267.428 Q476.625 267.616 476.414 268.342 Q476.203 269.068 475.688 270.192 Q475.196 271.316 474.517 272.347 Q473.838 273.354 472.713 274.104 Q471.613 274.83 470.348 274.83 Q468.661 274.83 467.537 273.705 Q466.413 272.581 466.413 270.895 Q466.413 270.661 466.436 270.426 Q466.46 270.192 466.483 270.052 Q466.506 269.888 466.577 269.63 Q466.67 269.349 466.694 269.232 Q466.741 269.115 466.858 268.763 Q466.998 268.389 467.045 268.248 Q470.02 260.659 470.02 257.497 Q470.02 254.148 467.42 254.148 Q465.101 254.148 462.806 255.834 Q461.752 256.677 460.745 258.176 Q459.737 259.675 459.55 260.238 Q459.339 261.456 459.035 262.392 Q458.894 263.048 458.215 265.601 L457.161 269.934 L456.247 273.565 Q456.06 274.08 455.545 274.455 Q455.029 274.83 454.467 274.83 Q453.999 274.83 453.53 274.502 Q453.085 274.197 453.085 273.471 Q453.085 273.096 453.273 272.417 L460.229 244.779 L460.37 243.842 Q460.37 243.561 460.253 243.42 Q460.159 243.256 459.597 243.139 Q459.058 243.022 457.981 243.022 Q457.536 243.022 457.325 242.999 Q457.137 242.975 456.974 242.858 Q456.81 242.718 456.81 242.436 Q456.81 242.038 456.974 241.827 Q457.161 241.593 457.301 241.546 Q457.442 241.5 457.723 241.476 Q458.121 241.453 459.456 241.336 Q460.791 241.195 461.939 241.101 Q463.087 241.008 463.579 241.008 Q463.86 241.008 464 241.148 Q464.164 241.265 464.188 241.406 L464.211 241.523 L460.463 256.771 Q463.438 253.094 467.56 253.094 Q470.231 253.094 471.659 254.476 Q473.088 255.834 473.088 258.223 Q473.088 260.964 470.16 268.763 Q469.294 270.942 469.294 272.183 Q469.294 273.003 469.551 273.378 Q469.832 273.752 470.441 273.752 Q471.378 273.752 472.198 273.214 Q473.041 272.651 473.627 271.738 Q474.212 270.801 474.611 269.864 Q475.032 268.904 475.337 267.826 Q475.524 267.241 475.618 267.1 Q475.735 266.96 476.063 266.96 Q476.625 266.96 476.625 267.428 Z" fill="#000000" fill-rule="evenodd" fill-opacity="1" /><path clip-path="url(#clip630)" d="M481.502 247.982 Q481.502 247.376 481.551 247.195 Q481.617 247.015 481.879 246.736 L488.323 239.555 Q491.848 235.587 491.848 232.128 Q491.848 229.882 490.667 228.275 Q489.503 226.668 487.356 226.668 Q485.88 226.668 484.634 227.57 Q483.388 228.472 482.814 230.078 Q482.912 230.046 483.257 230.046 Q484.093 230.046 484.552 230.57 Q485.027 231.095 485.027 231.8 Q485.027 232.702 484.437 233.144 Q483.863 233.571 483.289 233.571 Q483.06 233.571 482.748 233.521 Q482.453 233.472 481.978 233.013 Q481.502 232.538 481.502 231.701 Q481.502 229.357 483.273 227.488 Q485.06 225.619 487.782 225.619 Q490.864 225.619 492.881 227.455 Q494.914 229.275 494.914 232.128 Q494.914 233.128 494.602 234.046 Q494.307 234.948 493.897 235.653 Q493.504 236.358 492.422 237.489 Q491.34 238.62 490.471 239.424 Q489.602 240.227 487.651 241.932 L484.093 245.392 L490.143 245.392 Q493.094 245.392 493.324 245.13 Q493.652 244.654 494.061 242.146 L494.914 242.146 L493.963 247.982 L481.502 247.982 Z" fill="#000000" fill-rule="evenodd" fill-opacity="1" /></svg>
