<?xml version="1.0" encoding="utf-8"?>
<svg xmlns="http://www.w3.org/2000/svg" xmlns:xlink="http://www.w3.org/1999/xlink" width="600" height="400" viewBox="0 0 2400 1600">
<defs>
  <clipPath id="clip210">
    <rect x="0" y="0" width="2400" height="1600"/>
  </clipPath>
</defs>
<path clip-path="url(#clip210)" d="
M0 1600 L2400 1600 L2400 0 L0 0  Z
  " fill="#ffffff" fill-rule="evenodd" fill-opacity="1"/>
<defs>
  <clipPath id="clip211">
    <rect x="480" y="0" width="1681" height="1600"/>
  </clipPath>
</defs>
<path clip-path="url(#clip210)" d="
M147.478 1486.45 L2352.76 1486.45 L2352.76 47.2441 L147.478 47.2441  Z
  " fill="#ffffff" fill-rule="evenodd" fill-opacity="1"/>
<defs>
  <clipPath id="clip212">
    <rect x="147" y="47" width="2206" height="1440"/>
  </clipPath>
</defs>
<polyline clip-path="url(#clip212)" style="stroke:#000000; stroke-linecap:butt; stroke-linejoin:round; stroke-width:2; stroke-opacity:0.1; fill:none" points="
  230.123,1486.45 230.123,47.2441 
  "/>
<polyline clip-path="url(#clip212)" style="stroke:#000000; stroke-linecap:butt; stroke-linejoin:round; stroke-width:2; stroke-opacity:0.1; fill:none" points="
  703.939,1486.45 703.939,47.2441 
  "/>
<polyline clip-path="url(#clip212)" style="stroke:#000000; stroke-linecap:butt; stroke-linejoin:round; stroke-width:2; stroke-opacity:0.1; fill:none" points="
  1177.75,1486.45 1177.75,47.2441 
  "/>
<polyline clip-path="url(#clip212)" style="stroke:#000000; stroke-linecap:butt; stroke-linejoin:round; stroke-width:2; stroke-opacity:0.1; fill:none" points="
  1651.57,1486.45 1651.57,47.2441 
  "/>
<polyline clip-path="url(#clip212)" style="stroke:#000000; stroke-linecap:butt; stroke-linejoin:round; stroke-width:2; stroke-opacity:0.1; fill:none" points="
  2125.39,1486.45 2125.39,47.2441 
  "/>
<polyline clip-path="url(#clip210)" style="stroke:#000000; stroke-linecap:butt; stroke-linejoin:round; stroke-width:4; stroke-opacity:1; fill:none" points="
  147.478,1486.45 2352.76,1486.45 
  "/>
<polyline clip-path="url(#clip210)" style="stroke:#000000; stroke-linecap:butt; stroke-linejoin:round; stroke-width:4; stroke-opacity:1; fill:none" points="
  230.123,1486.45 230.123,1467.55 
  "/>
<polyline clip-path="url(#clip210)" style="stroke:#000000; stroke-linecap:butt; stroke-linejoin:round; stroke-width:4; stroke-opacity:1; fill:none" points="
  703.939,1486.45 703.939,1467.55 
  "/>
<polyline clip-path="url(#clip210)" style="stroke:#000000; stroke-linecap:butt; stroke-linejoin:round; stroke-width:4; stroke-opacity:1; fill:none" points="
  1177.75,1486.45 1177.75,1467.55 
  "/>
<polyline clip-path="url(#clip210)" style="stroke:#000000; stroke-linecap:butt; stroke-linejoin:round; stroke-width:4; stroke-opacity:1; fill:none" points="
  1651.57,1486.45 1651.57,1467.55 
  "/>
<polyline clip-path="url(#clip210)" style="stroke:#000000; stroke-linecap:butt; stroke-linejoin:round; stroke-width:4; stroke-opacity:1; fill:none" points="
  2125.39,1486.45 2125.39,1467.55 
  "/>
<path clip-path="url(#clip210)" d="M199.023 1532.02 L228.699 1532.02 L228.699 1535.95 L199.023 1535.95 L199.023 1532.02 Z" fill="#000000" fill-rule="evenodd" fill-opacity="1" /><path clip-path="url(#clip210)" d="M251.639 1518.36 L239.833 1536.81 L251.639 1536.81 L251.639 1518.36 M250.412 1514.29 L256.291 1514.29 L256.291 1536.81 L261.222 1536.81 L261.222 1540.7 L256.291 1540.7 L256.291 1548.85 L251.639 1548.85 L251.639 1540.7 L236.037 1540.7 L236.037 1536.19 L250.412 1514.29 Z" fill="#000000" fill-rule="evenodd" fill-opacity="1" /><path clip-path="url(#clip210)" d="M673.881 1532.02 L703.557 1532.02 L703.557 1535.95 L673.881 1535.95 L673.881 1532.02 Z" fill="#000000" fill-rule="evenodd" fill-opacity="1" /><path clip-path="url(#clip210)" d="M717.677 1544.91 L733.996 1544.91 L733.996 1548.85 L712.052 1548.85 L712.052 1544.91 Q714.714 1542.16 719.297 1537.53 Q723.904 1532.88 725.084 1531.53 Q727.33 1529.01 728.209 1527.27 Q729.112 1525.51 729.112 1523.82 Q729.112 1521.07 727.168 1519.33 Q725.246 1517.6 722.144 1517.6 Q719.945 1517.6 717.492 1518.36 Q715.061 1519.13 712.283 1520.68 L712.283 1515.95 Q715.107 1514.82 717.561 1514.24 Q720.015 1513.66 722.052 1513.66 Q727.422 1513.66 730.617 1516.35 Q733.811 1519.03 733.811 1523.52 Q733.811 1525.65 733.001 1527.57 Q732.214 1529.47 730.107 1532.07 Q729.529 1532.74 726.427 1535.95 Q723.325 1539.15 717.677 1544.91 Z" fill="#000000" fill-rule="evenodd" fill-opacity="1" /><path clip-path="url(#clip210)" d="M1177.75 1517.37 Q1174.14 1517.37 1172.31 1520.93 Q1170.51 1524.47 1170.51 1531.6 Q1170.51 1538.71 1172.31 1542.27 Q1174.14 1545.82 1177.75 1545.82 Q1181.39 1545.82 1183.19 1542.27 Q1185.02 1538.71 1185.02 1531.6 Q1185.02 1524.47 1183.19 1520.93 Q1181.39 1517.37 1177.75 1517.37 M1177.75 1513.66 Q1183.56 1513.66 1186.62 1518.27 Q1189.7 1522.85 1189.7 1531.6 Q1189.7 1540.33 1186.62 1544.94 Q1183.56 1549.52 1177.75 1549.52 Q1171.94 1549.52 1168.87 1544.94 Q1165.81 1540.33 1165.81 1531.6 Q1165.81 1522.85 1168.87 1518.27 Q1171.94 1513.66 1177.75 1513.66 Z" fill="#000000" fill-rule="evenodd" fill-opacity="1" /><path clip-path="url(#clip210)" d="M1646.22 1544.91 L1662.54 1544.91 L1662.54 1548.85 L1640.6 1548.85 L1640.6 1544.91 Q1643.26 1542.16 1647.84 1537.53 Q1652.45 1532.88 1653.63 1531.53 Q1655.88 1529.01 1656.76 1527.27 Q1657.66 1525.51 1657.66 1523.82 Q1657.66 1521.07 1655.71 1519.33 Q1653.79 1517.6 1650.69 1517.6 Q1648.49 1517.6 1646.04 1518.36 Q1643.61 1519.13 1640.83 1520.68 L1640.83 1515.95 Q1643.65 1514.82 1646.11 1514.24 Q1648.56 1513.66 1650.6 1513.66 Q1655.97 1513.66 1659.16 1516.35 Q1662.36 1519.03 1662.36 1523.52 Q1662.36 1525.65 1661.55 1527.57 Q1660.76 1529.47 1658.65 1532.07 Q1658.08 1532.74 1654.97 1535.95 Q1651.87 1539.15 1646.22 1544.91 Z" fill="#000000" fill-rule="evenodd" fill-opacity="1" /><path clip-path="url(#clip210)" d="M2128.4 1518.36 L2116.59 1536.81 L2128.4 1536.81 L2128.4 1518.36 M2127.17 1514.29 L2133.05 1514.29 L2133.05 1536.81 L2137.98 1536.81 L2137.98 1540.7 L2133.05 1540.7 L2133.05 1548.85 L2128.4 1548.85 L2128.4 1540.7 L2112.79 1540.7 L2112.79 1536.19 L2127.17 1514.29 Z" fill="#000000" fill-rule="evenodd" fill-opacity="1" /><polyline clip-path="url(#clip212)" style="stroke:#000000; stroke-linecap:butt; stroke-linejoin:round; stroke-width:2; stroke-opacity:0.1; fill:none" points="
  147.478,1324.69 2352.76,1324.69 
  "/>
<polyline clip-path="url(#clip212)" style="stroke:#000000; stroke-linecap:butt; stroke-linejoin:round; stroke-width:2; stroke-opacity:0.1; fill:none" points="
  147.478,1087.78 2352.76,1087.78 
  "/>
<polyline clip-path="url(#clip212)" style="stroke:#000000; stroke-linecap:butt; stroke-linejoin:round; stroke-width:2; stroke-opacity:0.1; fill:none" points="
  147.478,850.875 2352.76,850.875 
  "/>
<polyline clip-path="url(#clip212)" style="stroke:#000000; stroke-linecap:butt; stroke-linejoin:round; stroke-width:2; stroke-opacity:0.1; fill:none" points="
  147.478,613.967 2352.76,613.967 
  "/>
<polyline clip-path="url(#clip212)" style="stroke:#000000; stroke-linecap:butt; stroke-linejoin:round; stroke-width:2; stroke-opacity:0.1; fill:none" points="
  147.478,377.059 2352.76,377.059 
  "/>
<polyline clip-path="url(#clip212)" style="stroke:#000000; stroke-linecap:butt; stroke-linejoin:round; stroke-width:2; stroke-opacity:0.1; fill:none" points="
  147.478,140.151 2352.76,140.151 
  "/>
<polyline clip-path="url(#clip210)" style="stroke:#000000; stroke-linecap:butt; stroke-linejoin:round; stroke-width:4; stroke-opacity:1; fill:none" points="
  147.478,1486.45 147.478,47.2441 
  "/>
<polyline clip-path="url(#clip210)" style="stroke:#000000; stroke-linecap:butt; stroke-linejoin:round; stroke-width:4; stroke-opacity:1; fill:none" points="
  147.478,1324.69 166.376,1324.69 
  "/>
<polyline clip-path="url(#clip210)" style="stroke:#000000; stroke-linecap:butt; stroke-linejoin:round; stroke-width:4; stroke-opacity:1; fill:none" points="
  147.478,1087.78 166.376,1087.78 
  "/>
<polyline clip-path="url(#clip210)" style="stroke:#000000; stroke-linecap:butt; stroke-linejoin:round; stroke-width:4; stroke-opacity:1; fill:none" points="
  147.478,850.875 166.376,850.875 
  "/>
<polyline clip-path="url(#clip210)" style="stroke:#000000; stroke-linecap:butt; stroke-linejoin:round; stroke-width:4; stroke-opacity:1; fill:none" points="
  147.478,613.967 166.376,613.967 
  "/>
<polyline clip-path="url(#clip210)" style="stroke:#000000; stroke-linecap:butt; stroke-linejoin:round; stroke-width:4; stroke-opacity:1; fill:none" points="
  147.478,377.059 166.376,377.059 
  "/>
<polyline clip-path="url(#clip210)" style="stroke:#000000; stroke-linecap:butt; stroke-linejoin:round; stroke-width:4; stroke-opacity:1; fill:none" points="
  147.478,140.151 166.376,140.151 
  "/>
<path clip-path="url(#clip210)" d="M51.3625 1325.14 L81.0383 1325.14 L81.0383 1329.08 L51.3625 1329.08 L51.3625 1325.14 Z" fill="#000000" fill-rule="evenodd" fill-opacity="1" /><path clip-path="url(#clip210)" d="M95.1586 1338.04 L111.478 1338.04 L111.478 1341.97 L89.5336 1341.97 L89.5336 1338.04 Q92.1956 1335.28 96.7789 1330.65 Q101.385 1326 102.566 1324.66 Q104.811 1322.13 105.691 1320.4 Q106.594 1318.64 106.594 1316.95 Q106.594 1314.19 104.649 1312.46 Q102.728 1310.72 99.6261 1310.72 Q97.4271 1310.72 94.9734 1311.49 Q92.5428 1312.25 89.7651 1313.8 L89.7651 1309.08 Q92.5891 1307.94 95.0428 1307.36 Q97.4965 1306.79 99.5335 1306.79 Q104.904 1306.79 108.098 1309.47 Q111.293 1312.16 111.293 1316.65 Q111.293 1318.78 110.483 1320.7 Q109.696 1322.6 107.589 1325.19 Q107.01 1325.86 103.909 1329.08 Q100.807 1332.27 95.1586 1338.04 Z" fill="#000000" fill-rule="evenodd" fill-opacity="1" /><path clip-path="url(#clip210)" d="M50.9921 1088.23 L80.6679 1088.23 L80.6679 1092.17 L50.9921 1092.17 L50.9921 1088.23 Z" fill="#000000" fill-rule="evenodd" fill-opacity="1" /><path clip-path="url(#clip210)" d="M91.5706 1101.13 L99.2095 1101.13 L99.2095 1074.76 L90.8993 1076.43 L90.8993 1072.17 L99.1632 1070.5 L103.839 1070.5 L103.839 1101.13 L111.478 1101.13 L111.478 1105.06 L91.5706 1105.06 L91.5706 1101.13 Z" fill="#000000" fill-rule="evenodd" fill-opacity="1" /><path clip-path="url(#clip210)" d="M99.5335 836.674 Q95.9224 836.674 94.0937 840.239 Q92.2882 843.78 92.2882 850.91 Q92.2882 858.016 94.0937 861.581 Q95.9224 865.123 99.5335 865.123 Q103.168 865.123 104.973 861.581 Q106.802 858.016 106.802 850.91 Q106.802 843.78 104.973 840.239 Q103.168 836.674 99.5335 836.674 M99.5335 832.97 Q105.344 832.97 108.399 837.577 Q111.478 842.16 111.478 850.91 Q111.478 859.637 108.399 864.243 Q105.344 868.826 99.5335 868.826 Q93.7234 868.826 90.6447 864.243 Q87.5892 859.637 87.5892 850.91 Q87.5892 842.16 90.6447 837.577 Q93.7234 832.97 99.5335 832.97 Z" fill="#000000" fill-rule="evenodd" fill-opacity="1" /><path clip-path="url(#clip210)" d="M91.5706 627.312 L99.2095 627.312 L99.2095 600.946 L90.8993 602.613 L90.8993 598.354 L99.1632 596.687 L103.839 596.687 L103.839 627.312 L111.478 627.312 L111.478 631.247 L91.5706 631.247 L91.5706 627.312 Z" fill="#000000" fill-rule="evenodd" fill-opacity="1" /><path clip-path="url(#clip210)" d="M95.1586 390.404 L111.478 390.404 L111.478 394.339 L89.5336 394.339 L89.5336 390.404 Q92.1956 387.649 96.7789 383.02 Q101.385 378.367 102.566 377.024 Q104.811 374.501 105.691 372.765 Q106.594 371.006 106.594 369.316 Q106.594 366.562 104.649 364.825 Q102.728 363.089 99.6261 363.089 Q97.4271 363.089 94.9734 363.853 Q92.5428 364.617 89.7651 366.168 L89.7651 361.446 Q92.5891 360.312 95.0428 359.733 Q97.4965 359.154 99.5335 359.154 Q104.904 359.154 108.098 361.839 Q111.293 364.524 111.293 369.015 Q111.293 371.145 110.483 373.066 Q109.696 374.964 107.589 377.557 Q107.01 378.228 103.909 381.446 Q100.807 384.64 95.1586 390.404 Z" fill="#000000" fill-rule="evenodd" fill-opacity="1" /><path clip-path="url(#clip210)" d="M104.348 138.797 Q107.705 139.515 109.58 141.783 Q111.478 144.052 111.478 147.385 Q111.478 152.501 107.959 155.302 Q104.441 158.102 97.9595 158.102 Q95.7836 158.102 93.4688 157.663 Q91.1771 157.246 88.7234 156.39 L88.7234 151.876 Q90.6678 153.01 92.9826 153.589 Q95.2974 154.167 97.8206 154.167 Q102.219 154.167 104.51 152.431 Q106.825 150.695 106.825 147.385 Q106.825 144.329 104.672 142.616 Q102.543 140.88 98.7234 140.88 L94.6956 140.88 L94.6956 137.038 L98.9085 137.038 Q102.358 137.038 104.186 135.672 Q106.015 134.283 106.015 131.691 Q106.015 129.029 104.117 127.617 Q102.242 126.181 98.7234 126.181 Q96.8021 126.181 94.603 126.598 Q92.4039 127.015 89.7651 127.894 L89.7651 123.728 Q92.4271 122.987 94.7419 122.617 Q97.0798 122.246 99.14 122.246 Q104.464 122.246 107.566 124.677 Q110.668 127.084 110.668 131.204 Q110.668 134.075 109.024 136.066 Q107.381 138.033 104.348 138.797 Z" fill="#000000" fill-rule="evenodd" fill-opacity="1" /><circle clip-path="url(#clip212)" cx="1414.66" cy="850.875" r="14.4" fill="#009af9" fill-rule="evenodd" fill-opacity="1" stroke="#000000" stroke-opacity="1" stroke-width="3.2"/>
<circle clip-path="url(#clip212)" cx="1483.75" cy="811.422" r="14.4" fill="#009af9" fill-rule="evenodd" fill-opacity="1" stroke="#000000" stroke-opacity="1" stroke-width="3.2"/>
<circle clip-path="url(#clip212)" cx="1538.16" cy="756.367" r="14.4" fill="#009af9" fill-rule="evenodd" fill-opacity="1" stroke="#000000" stroke-opacity="1" stroke-width="3.2"/>
<circle clip-path="url(#clip212)" cx="1569.33" cy="692.344" r="14.4" fill="#009af9" fill-rule="evenodd" fill-opacity="1" stroke="#000000" stroke-opacity="1" stroke-width="3.2"/>
<circle clip-path="url(#clip212)" cx="1572.62" cy="628.493" r="14.4" fill="#009af9" fill-rule="evenodd" fill-opacity="1" stroke="#000000" stroke-opacity="1" stroke-width="3.2"/>
<circle clip-path="url(#clip212)" cx="1548.1" cy="574.482" r="14.4" fill="#009af9" fill-rule="evenodd" fill-opacity="1" stroke="#000000" stroke-opacity="1" stroke-width="3.2"/>
<circle clip-path="url(#clip212)" cx="1500.39" cy="538.423" r="14.4" fill="#009af9" fill-rule="evenodd" fill-opacity="1" stroke="#000000" stroke-opacity="1" stroke-width="3.2"/>
<circle clip-path="url(#clip212)" cx="1437.5" cy="525.16" r="14.4" fill="#009af9" fill-rule="evenodd" fill-opacity="1" stroke="#000000" stroke-opacity="1" stroke-width="3.2"/>
<circle clip-path="url(#clip212)" cx="1369.04" cy="535.323" r="14.4" fill="#009af9" fill-rule="evenodd" fill-opacity="1" stroke="#000000" stroke-opacity="1" stroke-width="3.2"/>
<circle clip-path="url(#clip212)" cx="1304.16" cy="565.328" r="14.4" fill="#009af9" fill-rule="evenodd" fill-opacity="1" stroke="#000000" stroke-opacity="1" stroke-width="3.2"/>
<circle clip-path="url(#clip212)" cx="1249.75" cy="608.308" r="14.4" fill="#009af9" fill-rule="evenodd" fill-opacity="1" stroke="#000000" stroke-opacity="1" stroke-width="3.2"/>
<circle clip-path="url(#clip212)" cx="1209.3" cy="655.727" r="14.4" fill="#009af9" fill-rule="evenodd" fill-opacity="1" stroke="#000000" stroke-opacity="1" stroke-width="3.2"/>
<circle clip-path="url(#clip212)" cx="1182.62" cy="699.263" r="14.4" fill="#009af9" fill-rule="evenodd" fill-opacity="1" stroke="#000000" stroke-opacity="1" stroke-width="3.2"/>
<circle clip-path="url(#clip212)" cx="1166.34" cy="732.535" r="14.4" fill="#009af9" fill-rule="evenodd" fill-opacity="1" stroke="#000000" stroke-opacity="1" stroke-width="3.2"/>
<circle clip-path="url(#clip212)" cx="1155.25" cy="752.266" r="14.4" fill="#009af9" fill-rule="evenodd" fill-opacity="1" stroke="#000000" stroke-opacity="1" stroke-width="3.2"/>
<circle clip-path="url(#clip212)" cx="1143.82" cy="758.658" r="14.4" fill="#009af9" fill-rule="evenodd" fill-opacity="1" stroke="#000000" stroke-opacity="1" stroke-width="3.2"/>
<circle clip-path="url(#clip212)" cx="1127.7" cy="754.939" r="14.4" fill="#009af9" fill-rule="evenodd" fill-opacity="1" stroke="#000000" stroke-opacity="1" stroke-width="3.2"/>
<circle clip-path="url(#clip212)" cx="1104.78" cy="746.265" r="14.4" fill="#009af9" fill-rule="evenodd" fill-opacity="1" stroke="#000000" stroke-opacity="1" stroke-width="3.2"/>
<circle clip-path="url(#clip212)" cx="1075.5" cy="738.28" r="14.4" fill="#009af9" fill-rule="evenodd" fill-opacity="1" stroke="#000000" stroke-opacity="1" stroke-width="3.2"/>
<circle clip-path="url(#clip212)" cx="1042.51" cy="735.736" r="14.4" fill="#009af9" fill-rule="evenodd" fill-opacity="1" stroke="#000000" stroke-opacity="1" stroke-width="3.2"/>
<circle clip-path="url(#clip212)" cx="1009.74" cy="741.508" r="14.4" fill="#009af9" fill-rule="evenodd" fill-opacity="1" stroke="#000000" stroke-opacity="1" stroke-width="3.2"/>
<circle clip-path="url(#clip212)" cx="981.197" cy="756.218" r="14.4" fill="#009af9" fill-rule="evenodd" fill-opacity="1" stroke="#000000" stroke-opacity="1" stroke-width="3.2"/>
<circle clip-path="url(#clip212)" cx="959.84" cy="778.523" r="14.4" fill="#009af9" fill-rule="evenodd" fill-opacity="1" stroke="#000000" stroke-opacity="1" stroke-width="3.2"/>
<circle clip-path="url(#clip212)" cx="946.831" cy="805.903" r="14.4" fill="#009af9" fill-rule="evenodd" fill-opacity="1" stroke="#000000" stroke-opacity="1" stroke-width="3.2"/>
<circle clip-path="url(#clip212)" cx="941.395" cy="835.7" r="14.4" fill="#009af9" fill-rule="evenodd" fill-opacity="1" stroke="#000000" stroke-opacity="1" stroke-width="3.2"/>
<circle clip-path="url(#clip212)" cx="941.271" cy="866.058" r="14.4" fill="#009af9" fill-rule="evenodd" fill-opacity="1" stroke="#000000" stroke-opacity="1" stroke-width="3.2"/>
<circle clip-path="url(#clip212)" cx="943.6" cy="896.477" r="14.4" fill="#009af9" fill-rule="evenodd" fill-opacity="1" stroke="#000000" stroke-opacity="1" stroke-width="3.2"/>
<circle clip-path="url(#clip212)" cx="945.991" cy="927.826" r="14.4" fill="#009af9" fill-rule="evenodd" fill-opacity="1" stroke="#000000" stroke-opacity="1" stroke-width="3.2"/>
<circle clip-path="url(#clip212)" cx="947.418" cy="961.799" r="14.4" fill="#009af9" fill-rule="evenodd" fill-opacity="1" stroke="#000000" stroke-opacity="1" stroke-width="3.2"/>
<circle clip-path="url(#clip212)" cx="948.673" cy="999.991" r="14.4" fill="#009af9" fill-rule="evenodd" fill-opacity="1" stroke="#000000" stroke-opacity="1" stroke-width="3.2"/>
<circle clip-path="url(#clip212)" cx="952.218" cy="1042.88" r="14.4" fill="#009af9" fill-rule="evenodd" fill-opacity="1" stroke="#000000" stroke-opacity="1" stroke-width="3.2"/>
<circle clip-path="url(#clip212)" cx="961.464" cy="1089.04" r="14.4" fill="#009af9" fill-rule="evenodd" fill-opacity="1" stroke="#000000" stroke-opacity="1" stroke-width="3.2"/>
<circle clip-path="url(#clip212)" cx="979.648" cy="1134.88" r="14.4" fill="#009af9" fill-rule="evenodd" fill-opacity="1" stroke="#000000" stroke-opacity="1" stroke-width="3.2"/>
<circle clip-path="url(#clip212)" cx="1008.65" cy="1175.02" r="14.4" fill="#009af9" fill-rule="evenodd" fill-opacity="1" stroke="#000000" stroke-opacity="1" stroke-width="3.2"/>
<circle clip-path="url(#clip212)" cx="1048.05" cy="1203.32" r="14.4" fill="#009af9" fill-rule="evenodd" fill-opacity="1" stroke="#000000" stroke-opacity="1" stroke-width="3.2"/>
<circle clip-path="url(#clip212)" cx="1094.83" cy="1214.2" r="14.4" fill="#009af9" fill-rule="evenodd" fill-opacity="1" stroke="#000000" stroke-opacity="1" stroke-width="3.2"/>
<circle clip-path="url(#clip212)" cx="1143.67" cy="1204.16" r="14.4" fill="#009af9" fill-rule="evenodd" fill-opacity="1" stroke="#000000" stroke-opacity="1" stroke-width="3.2"/>
<circle clip-path="url(#clip212)" cx="1188.08" cy="1172.84" r="14.4" fill="#009af9" fill-rule="evenodd" fill-opacity="1" stroke="#000000" stroke-opacity="1" stroke-width="3.2"/>
<circle clip-path="url(#clip212)" cx="1221.83" cy="1123.47" r="14.4" fill="#009af9" fill-rule="evenodd" fill-opacity="1" stroke="#000000" stroke-opacity="1" stroke-width="3.2"/>
<circle clip-path="url(#clip212)" cx="1240.58" cy="1062.54" r="14.4" fill="#009af9" fill-rule="evenodd" fill-opacity="1" stroke="#000000" stroke-opacity="1" stroke-width="3.2"/>
<circle clip-path="url(#clip212)" cx="1243.14" cy="998.591" r="14.4" fill="#009af9" fill-rule="evenodd" fill-opacity="1" stroke="#000000" stroke-opacity="1" stroke-width="3.2"/>
<circle clip-path="url(#clip212)" cx="1232.09" cy="940.503" r="14.4" fill="#009af9" fill-rule="evenodd" fill-opacity="1" stroke="#000000" stroke-opacity="1" stroke-width="3.2"/>
<circle clip-path="url(#clip212)" cx="1213.42" cy="895.604" r="14.4" fill="#009af9" fill-rule="evenodd" fill-opacity="1" stroke="#000000" stroke-opacity="1" stroke-width="3.2"/>
<circle clip-path="url(#clip212)" cx="1195.49" cy="868.048" r="14.4" fill="#009af9" fill-rule="evenodd" fill-opacity="1" stroke="#000000" stroke-opacity="1" stroke-width="3.2"/>
<circle clip-path="url(#clip212)" cx="1187.14" cy="857.877" r="14.4" fill="#009af9" fill-rule="evenodd" fill-opacity="1" stroke="#000000" stroke-opacity="1" stroke-width="3.2"/>
<circle clip-path="url(#clip212)" cx="1195.74" cy="861.003" r="14.4" fill="#009af9" fill-rule="evenodd" fill-opacity="1" stroke="#000000" stroke-opacity="1" stroke-width="3.2"/>
<circle clip-path="url(#clip212)" cx="1225.37" cy="870.152" r="14.4" fill="#009af9" fill-rule="evenodd" fill-opacity="1" stroke="#000000" stroke-opacity="1" stroke-width="3.2"/>
<circle clip-path="url(#clip212)" cx="1275.67" cy="876.553" r="14.4" fill="#009af9" fill-rule="evenodd" fill-opacity="1" stroke="#000000" stroke-opacity="1" stroke-width="3.2"/>
<circle clip-path="url(#clip212)" cx="1341.69" cy="872.012" r="14.4" fill="#009af9" fill-rule="evenodd" fill-opacity="1" stroke="#000000" stroke-opacity="1" stroke-width="3.2"/>
<circle clip-path="url(#clip212)" cx="1414.66" cy="850.875" r="14.4" fill="#009af9" fill-rule="evenodd" fill-opacity="1" stroke="#000000" stroke-opacity="1" stroke-width="3.2"/>
<circle clip-path="url(#clip212)" cx="1215.51" cy="640.595" r="14.4" fill="#e26f46" fill-rule="evenodd" fill-opacity="1" stroke="#000000" stroke-opacity="1" stroke-width="3.2"/>
<circle clip-path="url(#clip212)" cx="1104.27" cy="641.996" r="14.4" fill="#e26f46" fill-rule="evenodd" fill-opacity="1" stroke="#000000" stroke-opacity="1" stroke-width="3.2"/>
<circle clip-path="url(#clip212)" cx="942.347" cy="681.226" r="14.4" fill="#e26f46" fill-rule="evenodd" fill-opacity="1" stroke="#000000" stroke-opacity="1" stroke-width="3.2"/>
<circle clip-path="url(#clip212)" cx="748.935" cy="755.336" r="14.4" fill="#e26f46" fill-rule="evenodd" fill-opacity="1" stroke="#000000" stroke-opacity="1" stroke-width="3.2"/>
<circle clip-path="url(#clip212)" cx="551.611" cy="853.926" r="14.4" fill="#e26f46" fill-rule="evenodd" fill-opacity="1" stroke="#000000" stroke-opacity="1" stroke-width="3.2"/>
<circle clip-path="url(#clip212)" cx="380.345" cy="961.554" r="14.4" fill="#e26f46" fill-rule="evenodd" fill-opacity="1" stroke="#000000" stroke-opacity="1" stroke-width="3.2"/>
<circle clip-path="url(#clip212)" cx="261.008" cy="1061.23" r="14.4" fill="#e26f46" fill-rule="evenodd" fill-opacity="1" stroke="#000000" stroke-opacity="1" stroke-width="3.2"/>
<circle clip-path="url(#clip212)" cx="209.891" cy="1138.13" r="14.4" fill="#e26f46" fill-rule="evenodd" fill-opacity="1" stroke="#000000" stroke-opacity="1" stroke-width="3.2"/>
<circle clip-path="url(#clip212)" cx="230.473" cy="1182.73" r="14.4" fill="#e26f46" fill-rule="evenodd" fill-opacity="1" stroke="#000000" stroke-opacity="1" stroke-width="3.2"/>
<circle clip-path="url(#clip212)" cx="313.104" cy="1192.63" r="14.4" fill="#e26f46" fill-rule="evenodd" fill-opacity="1" stroke="#000000" stroke-opacity="1" stroke-width="3.2"/>
<circle clip-path="url(#clip212)" cx="437.612" cy="1172.59" r="14.4" fill="#e26f46" fill-rule="evenodd" fill-opacity="1" stroke="#000000" stroke-opacity="1" stroke-width="3.2"/>
<circle clip-path="url(#clip212)" cx="578.098" cy="1133.11" r="14.4" fill="#e26f46" fill-rule="evenodd" fill-opacity="1" stroke="#000000" stroke-opacity="1" stroke-width="3.2"/>
<circle clip-path="url(#clip212)" cx="708.746" cy="1087.58" r="14.4" fill="#e26f46" fill-rule="evenodd" fill-opacity="1" stroke="#000000" stroke-opacity="1" stroke-width="3.2"/>
<circle clip-path="url(#clip212)" cx="809.248" cy="1049.14" r="14.4" fill="#e26f46" fill-rule="evenodd" fill-opacity="1" stroke="#000000" stroke-opacity="1" stroke-width="3.2"/>
<circle clip-path="url(#clip212)" cx="868.619" cy="1027.62" r="14.4" fill="#e26f46" fill-rule="evenodd" fill-opacity="1" stroke="#000000" stroke-opacity="1" stroke-width="3.2"/>
<circle clip-path="url(#clip212)" cx="886.602" cy="1027.6" r="14.4" fill="#e26f46" fill-rule="evenodd" fill-opacity="1" stroke="#000000" stroke-opacity="1" stroke-width="3.2"/>
<circle clip-path="url(#clip212)" cx="872.512" cy="1047.81" r="14.4" fill="#e26f46" fill-rule="evenodd" fill-opacity="1" stroke="#000000" stroke-opacity="1" stroke-width="3.2"/>
<circle clip-path="url(#clip212)" cx="841.981" cy="1081.95" r="14.4" fill="#e26f46" fill-rule="evenodd" fill-opacity="1" stroke="#000000" stroke-opacity="1" stroke-width="3.2"/>
<circle clip-path="url(#clip212)" cx="812.571" cy="1120.64" r="14.4" fill="#e26f46" fill-rule="evenodd" fill-opacity="1" stroke="#000000" stroke-opacity="1" stroke-width="3.2"/>
<circle clip-path="url(#clip212)" cx="799.431" cy="1153.96" r="14.4" fill="#e26f46" fill-rule="evenodd" fill-opacity="1" stroke="#000000" stroke-opacity="1" stroke-width="3.2"/>
<circle clip-path="url(#clip212)" cx="812.093" cy="1173.87" r="14.4" fill="#e26f46" fill-rule="evenodd" fill-opacity="1" stroke="#000000" stroke-opacity="1" stroke-width="3.2"/>
<circle clip-path="url(#clip212)" cx="853.127" cy="1175.82" r="14.4" fill="#e26f46" fill-rule="evenodd" fill-opacity="1" stroke="#000000" stroke-opacity="1" stroke-width="3.2"/>
<circle clip-path="url(#clip212)" cx="918.836" cy="1159.32" r="14.4" fill="#e26f46" fill-rule="evenodd" fill-opacity="1" stroke="#000000" stroke-opacity="1" stroke-width="3.2"/>
<circle clip-path="url(#clip212)" cx="1001.6" cy="1127.34" r="14.4" fill="#e26f46" fill-rule="evenodd" fill-opacity="1" stroke="#000000" stroke-opacity="1" stroke-width="3.2"/>
<circle clip-path="url(#clip212)" cx="1093.07" cy="1084.79" r="14.4" fill="#e26f46" fill-rule="evenodd" fill-opacity="1" stroke="#000000" stroke-opacity="1" stroke-width="3.2"/>
<circle clip-path="url(#clip212)" cx="1187.11" cy="1036.64" r="14.4" fill="#e26f46" fill-rule="evenodd" fill-opacity="1" stroke="#000000" stroke-opacity="1" stroke-width="3.2"/>
<circle clip-path="url(#clip212)" cx="1281.74" cy="986.216" r="14.4" fill="#e26f46" fill-rule="evenodd" fill-opacity="1" stroke="#000000" stroke-opacity="1" stroke-width="3.2"/>
<circle clip-path="url(#clip212)" cx="1379.26" cy="934.257" r="14.4" fill="#e26f46" fill-rule="evenodd" fill-opacity="1" stroke="#000000" stroke-opacity="1" stroke-width="3.2"/>
<circle clip-path="url(#clip212)" cx="1484.76" cy="878.981" r="14.4" fill="#e26f46" fill-rule="evenodd" fill-opacity="1" stroke="#000000" stroke-opacity="1" stroke-width="3.2"/>
<circle clip-path="url(#clip212)" cx="1603.3" cy="817.153" r="14.4" fill="#e26f46" fill-rule="evenodd" fill-opacity="1" stroke="#000000" stroke-opacity="1" stroke-width="3.2"/>
<circle clip-path="url(#clip212)" cx="1736.75" cy="745.828" r="14.4" fill="#e26f46" fill-rule="evenodd" fill-opacity="1" stroke="#000000" stroke-opacity="1" stroke-width="3.2"/>
<circle clip-path="url(#clip212)" cx="1881.25" cy="664.241" r="14.4" fill="#e26f46" fill-rule="evenodd" fill-opacity="1" stroke="#000000" stroke-opacity="1" stroke-width="3.2"/>
<circle clip-path="url(#clip212)" cx="2026.18" cy="575.226" r="14.4" fill="#e26f46" fill-rule="evenodd" fill-opacity="1" stroke="#000000" stroke-opacity="1" stroke-width="3.2"/>
<circle clip-path="url(#clip212)" cx="2155.21" cy="485.661" r="14.4" fill="#e26f46" fill-rule="evenodd" fill-opacity="1" stroke="#000000" stroke-opacity="1" stroke-width="3.2"/>
<circle clip-path="url(#clip212)" cx="2249.16" cy="405.703" r="14.4" fill="#e26f46" fill-rule="evenodd" fill-opacity="1" stroke="#000000" stroke-opacity="1" stroke-width="3.2"/>
<circle clip-path="url(#clip212)" cx="2290.34" cy="346.883" r="14.4" fill="#e26f46" fill-rule="evenodd" fill-opacity="1" stroke="#000000" stroke-opacity="1" stroke-width="3.2"/>
<circle clip-path="url(#clip212)" cx="2267.01" cy="319.489" r="14.4" fill="#e26f46" fill-rule="evenodd" fill-opacity="1" stroke="#000000" stroke-opacity="1" stroke-width="3.2"/>
<circle clip-path="url(#clip212)" cx="2177.02" cy="329.875" r="14.4" fill="#e26f46" fill-rule="evenodd" fill-opacity="1" stroke="#000000" stroke-opacity="1" stroke-width="3.2"/>
<circle clip-path="url(#clip212)" cx="2029.44" cy="378.401" r="14.4" fill="#e26f46" fill-rule="evenodd" fill-opacity="1" stroke="#000000" stroke-opacity="1" stroke-width="3.2"/>
<circle clip-path="url(#clip212)" cx="1843.63" cy="458.62" r="14.4" fill="#e26f46" fill-rule="evenodd" fill-opacity="1" stroke="#000000" stroke-opacity="1" stroke-width="3.2"/>
<circle clip-path="url(#clip212)" cx="1645.89" cy="558.004" r="14.4" fill="#e26f46" fill-rule="evenodd" fill-opacity="1" stroke="#000000" stroke-opacity="1" stroke-width="3.2"/>
<circle clip-path="url(#clip212)" cx="1464.13" cy="660.162" r="14.4" fill="#e26f46" fill-rule="evenodd" fill-opacity="1" stroke="#000000" stroke-opacity="1" stroke-width="3.2"/>
<circle clip-path="url(#clip212)" cx="1322.04" cy="748.106" r="14.4" fill="#e26f46" fill-rule="evenodd" fill-opacity="1" stroke="#000000" stroke-opacity="1" stroke-width="3.2"/>
<circle clip-path="url(#clip212)" cx="1233.79" cy="807.835" r="14.4" fill="#e26f46" fill-rule="evenodd" fill-opacity="1" stroke="#000000" stroke-opacity="1" stroke-width="3.2"/>
<circle clip-path="url(#clip212)" cx="1200.94" cy="831.417" r="14.4" fill="#e26f46" fill-rule="evenodd" fill-opacity="1" stroke="#000000" stroke-opacity="1" stroke-width="3.2"/>
<circle clip-path="url(#clip212)" cx="1212" cy="818.812" r="14.4" fill="#e26f46" fill-rule="evenodd" fill-opacity="1" stroke="#000000" stroke-opacity="1" stroke-width="3.2"/>
<circle clip-path="url(#clip212)" cx="1245.07" cy="777.968" r="14.4" fill="#e26f46" fill-rule="evenodd" fill-opacity="1" stroke="#000000" stroke-opacity="1" stroke-width="3.2"/>
<circle clip-path="url(#clip212)" cx="1272.92" cy="723.141" r="14.4" fill="#e26f46" fill-rule="evenodd" fill-opacity="1" stroke="#000000" stroke-opacity="1" stroke-width="3.2"/>
<circle clip-path="url(#clip212)" cx="1269.37" cy="671.765" r="14.4" fill="#e26f46" fill-rule="evenodd" fill-opacity="1" stroke="#000000" stroke-opacity="1" stroke-width="3.2"/>
<circle clip-path="url(#clip212)" cx="1215.51" cy="640.595" r="14.4" fill="#e26f46" fill-rule="evenodd" fill-opacity="1" stroke="#000000" stroke-opacity="1" stroke-width="3.2"/>
<path clip-path="url(#clip210)" d="
M1881.6 250.738 L2279.25 250.738 L2279.25 95.2176 L1881.6 95.2176  Z
  " fill="#ffffff" fill-rule="evenodd" fill-opacity="1"/>
<polyline clip-path="url(#clip210)" style="stroke:#000000; stroke-linecap:butt; stroke-linejoin:round; stroke-width:4; stroke-opacity:1; fill:none" points="
  1881.6,250.738 2279.25,250.738 2279.25,95.2176 1881.6,95.2176 1881.6,250.738 
  "/>
<circle clip-path="url(#clip210)" cx="1979.61" cy="147.058" r="23.04" fill="#009af9" fill-rule="evenodd" fill-opacity="1" stroke="#000000" stroke-opacity="1" stroke-width="5.12"/>
<path clip-path="url(#clip210)" d="M2077.63 138.412 L2081.88 138.412 L2081.88 164.338 L2077.63 164.338 L2077.63 138.412 M2077.63 128.319 L2081.88 128.319 L2081.88 133.713 L2077.63 133.713 L2077.63 128.319 Z" fill="#000000" fill-rule="evenodd" fill-opacity="1" /><path clip-path="url(#clip210)" d="M2112.35 148.689 L2112.35 164.338 L2108.09 164.338 L2108.09 148.828 Q2108.09 145.148 2106.65 143.319 Q2105.22 141.49 2102.35 141.49 Q2098.9 141.49 2096.91 143.69 Q2094.92 145.889 2094.92 149.685 L2094.92 164.338 L2090.63 164.338 L2090.63 138.412 L2094.92 138.412 L2094.92 142.44 Q2096.44 140.102 2098.51 138.944 Q2100.59 137.787 2103.3 137.787 Q2107.76 137.787 2110.06 140.565 Q2112.35 143.319 2112.35 148.689 Z" fill="#000000" fill-rule="evenodd" fill-opacity="1" /><path clip-path="url(#clip210)" d="M2124.96 160.449 L2124.96 174.199 L2120.68 174.199 L2120.68 138.412 L2124.96 138.412 L2124.96 142.347 Q2126.31 140.032 2128.34 138.921 Q2130.4 137.787 2133.25 137.787 Q2137.97 137.787 2140.91 141.537 Q2143.88 145.287 2143.88 151.398 Q2143.88 157.509 2140.91 161.259 Q2137.97 165.009 2133.25 165.009 Q2130.4 165.009 2128.34 163.898 Q2126.31 162.763 2124.96 160.449 M2139.45 151.398 Q2139.45 146.699 2137.51 144.037 Q2135.59 141.352 2132.21 141.352 Q2128.83 141.352 2126.88 144.037 Q2124.96 146.699 2124.96 151.398 Q2124.96 156.097 2126.88 158.782 Q2128.83 161.444 2132.21 161.444 Q2135.59 161.444 2137.51 158.782 Q2139.45 156.097 2139.45 151.398 Z" fill="#000000" fill-rule="evenodd" fill-opacity="1" /><path clip-path="url(#clip210)" d="M2150.5 154.106 L2150.5 138.412 L2154.75 138.412 L2154.75 153.944 Q2154.75 157.625 2156.19 159.476 Q2157.63 161.305 2160.5 161.305 Q2163.94 161.305 2165.94 159.106 Q2167.95 156.907 2167.95 153.111 L2167.95 138.412 L2172.21 138.412 L2172.21 164.338 L2167.95 164.338 L2167.95 160.356 Q2166.4 162.717 2164.34 163.875 Q2162.3 165.009 2159.59 165.009 Q2155.13 165.009 2152.81 162.231 Q2150.5 159.453 2150.5 154.106 M2161.21 137.787 L2161.21 137.787 Z" fill="#000000" fill-rule="evenodd" fill-opacity="1" /><path clip-path="url(#clip210)" d="M2185.19 131.051 L2185.19 138.412 L2193.97 138.412 L2193.97 141.722 L2185.19 141.722 L2185.19 155.796 Q2185.19 158.967 2186.05 159.87 Q2186.93 160.773 2189.59 160.773 L2193.97 160.773 L2193.97 164.338 L2189.59 164.338 Q2184.66 164.338 2182.79 162.509 Q2180.91 160.657 2180.91 155.796 L2180.91 141.722 L2177.79 141.722 L2177.79 138.412 L2180.91 138.412 L2180.91 131.051 L2185.19 131.051 Z" fill="#000000" fill-rule="evenodd" fill-opacity="1" /><circle clip-path="url(#clip210)" cx="1979.61" cy="198.898" r="23.04" fill="#e26f46" fill-rule="evenodd" fill-opacity="1" stroke="#000000" stroke-opacity="1" stroke-width="5.12"/>
<path clip-path="url(#clip210)" d="M2089.52 193.238 Q2086.1 193.238 2084.11 195.923 Q2082.12 198.585 2082.12 203.238 Q2082.12 207.891 2084.08 210.576 Q2086.07 213.238 2089.52 213.238 Q2092.93 213.238 2094.92 210.553 Q2096.91 207.867 2096.91 203.238 Q2096.91 198.631 2094.92 195.946 Q2092.93 193.238 2089.52 193.238 M2089.52 189.627 Q2095.08 189.627 2098.25 193.238 Q2101.42 196.849 2101.42 203.238 Q2101.42 209.604 2098.25 213.238 Q2095.08 216.849 2089.52 216.849 Q2083.94 216.849 2080.77 213.238 Q2077.63 209.604 2077.63 203.238 Q2077.63 196.849 2080.77 193.238 Q2083.94 189.627 2089.52 189.627 Z" fill="#000000" fill-rule="evenodd" fill-opacity="1" /><path clip-path="url(#clip210)" d="M2108.04 205.946 L2108.04 190.252 L2112.3 190.252 L2112.3 205.784 Q2112.3 209.465 2113.74 211.316 Q2115.17 213.145 2118.04 213.145 Q2121.49 213.145 2123.48 210.946 Q2125.5 208.747 2125.5 204.951 L2125.5 190.252 L2129.75 190.252 L2129.75 216.178 L2125.5 216.178 L2125.5 212.196 Q2123.94 214.557 2121.88 215.715 Q2119.85 216.849 2117.14 216.849 Q2112.67 216.849 2110.36 214.071 Q2108.04 211.293 2108.04 205.946 M2118.76 189.627 L2118.76 189.627 Z" fill="#000000" fill-rule="evenodd" fill-opacity="1" /><path clip-path="url(#clip210)" d="M2142.74 182.891 L2142.74 190.252 L2151.51 190.252 L2151.51 193.562 L2142.74 193.562 L2142.74 207.636 Q2142.74 210.807 2143.6 211.71 Q2144.48 212.613 2147.14 212.613 L2151.51 212.613 L2151.51 216.178 L2147.14 216.178 Q2142.21 216.178 2140.33 214.349 Q2138.46 212.497 2138.46 207.636 L2138.46 193.562 L2135.33 193.562 L2135.33 190.252 L2138.46 190.252 L2138.46 182.891 L2142.74 182.891 Z" fill="#000000" fill-rule="evenodd" fill-opacity="1" /><path clip-path="url(#clip210)" d="M2161.24 212.289 L2161.24 226.039 L2156.95 226.039 L2156.95 190.252 L2161.24 190.252 L2161.24 194.187 Q2162.58 191.872 2164.62 190.761 Q2166.68 189.627 2169.52 189.627 Q2174.25 189.627 2177.19 193.377 Q2180.15 197.127 2180.15 203.238 Q2180.15 209.349 2177.19 213.099 Q2174.25 216.849 2169.52 216.849 Q2166.68 216.849 2164.62 215.738 Q2162.58 214.603 2161.24 212.289 M2175.73 203.238 Q2175.73 198.539 2173.78 195.877 Q2171.86 193.192 2168.48 193.192 Q2165.1 193.192 2163.16 195.877 Q2161.24 198.539 2161.24 203.238 Q2161.24 207.937 2163.16 210.622 Q2165.1 213.284 2168.48 213.284 Q2171.86 213.284 2173.78 210.622 Q2175.73 207.937 2175.73 203.238 Z" fill="#000000" fill-rule="evenodd" fill-opacity="1" /><path clip-path="url(#clip210)" d="M2186.77 205.946 L2186.77 190.252 L2191.03 190.252 L2191.03 205.784 Q2191.03 209.465 2192.46 211.316 Q2193.9 213.145 2196.77 213.145 Q2200.22 213.145 2202.21 210.946 Q2204.22 208.747 2204.22 204.951 L2204.22 190.252 L2208.48 190.252 L2208.48 216.178 L2204.22 216.178 L2204.22 212.196 Q2202.67 214.557 2200.61 215.715 Q2198.57 216.849 2195.87 216.849 Q2191.4 216.849 2189.08 214.071 Q2186.77 211.293 2186.77 205.946 M2197.49 189.627 L2197.49 189.627 Z" fill="#000000" fill-rule="evenodd" fill-opacity="1" /><path clip-path="url(#clip210)" d="M2221.47 182.891 L2221.47 190.252 L2230.24 190.252 L2230.24 193.562 L2221.47 193.562 L2221.47 207.636 Q2221.47 210.807 2222.32 211.71 Q2223.2 212.613 2225.87 212.613 L2230.24 212.613 L2230.24 216.178 L2225.87 216.178 Q2220.93 216.178 2219.06 214.349 Q2217.18 212.497 2217.18 207.636 L2217.18 193.562 L2214.06 193.562 L2214.06 190.252 L2217.18 190.252 L2217.18 182.891 L2221.47 182.891 Z" fill="#000000" fill-rule="evenodd" fill-opacity="1" /></svg>
