<?xml version="1.0" encoding="utf-8"?>
<svg xmlns="http://www.w3.org/2000/svg" xmlns:xlink="http://www.w3.org/1999/xlink" width="600" height="400" viewBox="0 0 2400 1600">
<defs>
  <clipPath id="clip220">
    <rect x="0" y="0" width="2400" height="1600"/>
  </clipPath>
</defs>
<path clip-path="url(#clip220)" d="
M0 1600 L2400 1600 L2400 0 L0 0  Z
  " fill="#ffffff" fill-rule="evenodd" fill-opacity="1"/>
<defs>
  <clipPath id="clip221">
    <rect x="480" y="0" width="1681" height="1600"/>
  </clipPath>
</defs>
<path clip-path="url(#clip220)" d="
M252.764 1410.9 L2352.76 1410.9 L2352.76 47.2441 L252.764 47.2441  Z
  " fill="#ffffff" fill-rule="evenodd" fill-opacity="1"/>
<defs>
  <clipPath id="clip222">
    <rect x="252" y="47" width="2101" height="1365"/>
  </clipPath>
</defs>
<polyline clip-path="url(#clip222)" style="stroke:#000000; stroke-linecap:butt; stroke-linejoin:round; stroke-width:2; stroke-opacity:0.1; fill:none" points="
  951.681,1410.9 951.681,47.2441 
  "/>
<polyline clip-path="url(#clip222)" style="stroke:#000000; stroke-linecap:butt; stroke-linejoin:round; stroke-width:2; stroke-opacity:0.1; fill:none" points="
  1751.72,1410.9 1751.72,47.2441 
  "/>
<polyline clip-path="url(#clip220)" style="stroke:#000000; stroke-linecap:butt; stroke-linejoin:round; stroke-width:4; stroke-opacity:1; fill:none" points="
  252.764,1410.9 2352.76,1410.9 
  "/>
<polyline clip-path="url(#clip220)" style="stroke:#000000; stroke-linecap:butt; stroke-linejoin:round; stroke-width:4; stroke-opacity:1; fill:none" points="
  951.681,1410.9 951.681,1392 
  "/>
<polyline clip-path="url(#clip220)" style="stroke:#000000; stroke-linecap:butt; stroke-linejoin:round; stroke-width:4; stroke-opacity:1; fill:none" points="
  1751.72,1410.9 1751.72,1392 
  "/>
<path clip-path="url(#clip220)" d="M917.124 1485.02 L924.763 1485.02 L924.763 1458.66 L916.453 1460.32 L916.453 1456.06 L924.717 1454.4 L929.393 1454.4 L929.393 1485.02 L937.032 1485.02 L937.032 1488.96 L917.124 1488.96 L917.124 1485.02 Z" fill="#000000" fill-rule="evenodd" fill-opacity="1" /><path clip-path="url(#clip220)" d="M956.476 1457.48 Q952.865 1457.48 951.036 1461.04 Q949.231 1464.58 949.231 1471.71 Q949.231 1478.82 951.036 1482.38 Q952.865 1485.92 956.476 1485.92 Q960.11 1485.92 961.916 1482.38 Q963.745 1478.82 963.745 1471.71 Q963.745 1464.58 961.916 1461.04 Q960.11 1457.48 956.476 1457.48 M956.476 1453.77 Q962.286 1453.77 965.342 1458.38 Q968.42 1462.96 968.42 1471.71 Q968.42 1480.44 965.342 1485.04 Q962.286 1489.63 956.476 1489.63 Q950.666 1489.63 947.587 1485.04 Q944.532 1480.44 944.532 1471.71 Q944.532 1462.96 947.587 1458.38 Q950.666 1453.77 956.476 1453.77 Z" fill="#000000" fill-rule="evenodd" fill-opacity="1" /><path clip-path="url(#clip220)" d="M981.116 1446.41 Q983.843 1446.99 985.366 1448.83 Q986.908 1450.68 986.908 1453.38 Q986.908 1457.54 984.05 1459.82 Q981.191 1462.09 975.925 1462.09 Q974.157 1462.09 972.276 1461.73 Q970.414 1461.4 968.42 1460.7 L968.42 1457.03 Q970 1457.95 971.881 1458.42 Q973.762 1458.89 975.812 1458.89 Q979.385 1458.89 981.247 1457.48 Q983.128 1456.07 983.128 1453.38 Q983.128 1450.9 981.379 1449.51 Q979.649 1448.1 976.545 1448.1 L973.273 1448.1 L973.273 1444.98 L976.696 1444.98 Q979.498 1444.98 980.984 1443.87 Q982.47 1442.74 982.47 1440.63 Q982.47 1438.47 980.928 1437.32 Q979.404 1436.16 976.545 1436.16 Q974.984 1436.16 973.198 1436.49 Q971.411 1436.83 969.267 1437.55 L969.267 1434.16 Q971.43 1433.56 973.31 1433.26 Q975.21 1432.96 976.884 1432.96 Q981.21 1432.96 983.73 1434.93 Q986.25 1436.89 986.25 1440.24 Q986.25 1442.57 984.915 1444.19 Q983.579 1445.79 981.116 1446.41 Z" fill="#000000" fill-rule="evenodd" fill-opacity="1" /><path clip-path="url(#clip220)" d="M1716.71 1485.02 L1724.35 1485.02 L1724.35 1458.66 L1716.04 1460.32 L1716.04 1456.06 L1724.31 1454.4 L1728.98 1454.4 L1728.98 1485.02 L1736.62 1485.02 L1736.62 1488.96 L1716.71 1488.96 L1716.71 1485.02 Z" fill="#000000" fill-rule="evenodd" fill-opacity="1" /><path clip-path="url(#clip220)" d="M1756.07 1457.48 Q1752.45 1457.48 1750.63 1461.04 Q1748.82 1464.58 1748.82 1471.71 Q1748.82 1478.82 1750.63 1482.38 Q1752.45 1485.92 1756.07 1485.92 Q1759.7 1485.92 1761.51 1482.38 Q1763.33 1478.82 1763.33 1471.71 Q1763.33 1464.58 1761.51 1461.04 Q1759.7 1457.48 1756.07 1457.48 M1756.07 1453.77 Q1761.88 1453.77 1764.93 1458.38 Q1768.01 1462.96 1768.01 1471.71 Q1768.01 1480.44 1764.93 1485.04 Q1761.88 1489.63 1756.07 1489.63 Q1750.26 1489.63 1747.18 1485.04 Q1744.12 1480.44 1744.12 1471.71 Q1744.12 1462.96 1747.18 1458.38 Q1750.26 1453.77 1756.07 1453.77 Z" fill="#000000" fill-rule="evenodd" fill-opacity="1" /><path clip-path="url(#clip220)" d="M1778.03 1445.99 Q1775.48 1445.99 1773.97 1447.74 Q1772.49 1449.49 1772.49 1452.54 Q1772.49 1455.57 1773.97 1457.33 Q1775.48 1459.08 1778.03 1459.08 Q1780.59 1459.08 1782.08 1457.33 Q1783.58 1455.57 1783.58 1452.54 Q1783.58 1449.49 1782.08 1447.74 Q1780.59 1445.99 1778.03 1445.99 M1785.58 1434.09 L1785.58 1437.55 Q1784.15 1436.87 1782.68 1436.51 Q1781.23 1436.16 1779.8 1436.16 Q1776.04 1436.16 1774.05 1438.69 Q1772.07 1441.23 1771.79 1446.37 Q1772.9 1444.73 1774.57 1443.87 Q1776.25 1442.98 1778.26 1442.98 Q1782.49 1442.98 1784.94 1445.56 Q1787.4 1448.12 1787.4 1452.54 Q1787.4 1456.86 1784.84 1459.48 Q1782.28 1462.09 1778.03 1462.09 Q1773.16 1462.09 1770.59 1458.37 Q1768.01 1454.62 1768.01 1447.53 Q1768.01 1440.88 1771.17 1436.93 Q1774.33 1432.96 1779.65 1432.96 Q1781.08 1432.96 1782.53 1433.24 Q1784 1433.52 1785.58 1434.09 Z" fill="#000000" fill-rule="evenodd" fill-opacity="1" /><path clip-path="url(#clip220)" d="M1265.92 1539.91 L1265.92 1545.38 Q1263.44 1544.01 1260.92 1543.34 Q1258.44 1542.64 1255.89 1542.64 Q1250.2 1542.64 1247.04 1546.27 Q1243.89 1549.87 1243.89 1556.39 Q1243.89 1562.92 1247.04 1566.55 Q1250.2 1570.14 1255.89 1570.14 Q1258.44 1570.14 1260.92 1569.47 Q1263.44 1568.77 1265.92 1567.41 L1265.92 1572.82 Q1263.47 1573.96 1260.83 1574.54 Q1258.22 1575.11 1255.26 1575.11 Q1247.2 1575.11 1242.46 1570.05 Q1237.72 1564.99 1237.72 1556.39 Q1237.72 1547.67 1242.49 1542.68 Q1247.3 1537.68 1255.64 1537.68 Q1258.34 1537.68 1260.92 1538.25 Q1263.5 1538.79 1265.92 1539.91 Z" fill="#000000" fill-rule="evenodd" fill-opacity="1" /><path clip-path="url(#clip220)" d="M1289.92 1542.64 Q1285.21 1542.64 1282.47 1546.34 Q1279.73 1550 1279.73 1556.39 Q1279.73 1562.79 1282.44 1566.48 Q1285.17 1570.14 1289.92 1570.14 Q1294.6 1570.14 1297.33 1566.45 Q1300.07 1562.76 1300.07 1556.39 Q1300.07 1550.06 1297.33 1546.37 Q1294.6 1542.64 1289.92 1542.64 M1289.92 1537.68 Q1297.56 1537.68 1301.92 1542.64 Q1306.28 1547.61 1306.28 1556.39 Q1306.28 1565.15 1301.92 1570.14 Q1297.56 1575.11 1289.92 1575.11 Q1282.25 1575.11 1277.89 1570.14 Q1273.56 1565.15 1273.56 1556.39 Q1273.56 1547.61 1277.89 1542.64 Q1282.25 1537.68 1289.92 1537.68 Z" fill="#000000" fill-rule="evenodd" fill-opacity="1" /><path clip-path="url(#clip220)" d="M1338.71 1539.59 L1338.71 1545.13 Q1336.23 1543.85 1333.55 1543.22 Q1330.88 1542.58 1328.02 1542.58 Q1323.66 1542.58 1321.46 1543.92 Q1319.29 1545.25 1319.29 1547.93 Q1319.29 1549.96 1320.85 1551.14 Q1322.41 1552.29 1327.12 1553.34 L1329.13 1553.78 Q1335.37 1555.12 1337.98 1557.57 Q1340.62 1559.99 1340.62 1564.35 Q1340.62 1569.32 1336.67 1572.21 Q1332.76 1575.11 1325.88 1575.11 Q1323.02 1575.11 1319.9 1574.54 Q1316.81 1573.99 1313.37 1572.88 L1313.37 1566.83 Q1316.62 1568.52 1319.77 1569.38 Q1322.92 1570.21 1326.01 1570.21 Q1330.15 1570.21 1332.38 1568.81 Q1334.6 1567.37 1334.6 1564.8 Q1334.6 1562.41 1332.98 1561.14 Q1331.39 1559.86 1325.95 1558.68 L1323.91 1558.21 Q1318.47 1557.06 1316.05 1554.71 Q1313.63 1552.32 1313.63 1548.18 Q1313.63 1543.15 1317.19 1540.42 Q1320.76 1537.68 1327.32 1537.68 Q1330.56 1537.68 1333.43 1538.16 Q1336.29 1538.63 1338.71 1539.59 Z" fill="#000000" fill-rule="evenodd" fill-opacity="1" /><path clip-path="url(#clip220)" d="M1355.74 1528.42 L1355.74 1538.54 L1367.8 1538.54 L1367.8 1543.09 L1355.74 1543.09 L1355.74 1562.44 Q1355.74 1566.8 1356.92 1568.04 Q1358.13 1569.28 1361.79 1569.28 L1367.8 1569.28 L1367.8 1574.19 L1361.79 1574.19 Q1355.01 1574.19 1352.43 1571.67 Q1349.85 1569.12 1349.85 1562.44 L1349.85 1543.09 L1345.55 1543.09 L1345.55 1538.54 L1349.85 1538.54 L1349.85 1528.42 L1355.74 1528.42 Z" fill="#000000" fill-rule="evenodd" fill-opacity="1" /><polyline clip-path="url(#clip222)" style="stroke:#000000; stroke-linecap:butt; stroke-linejoin:round; stroke-width:2; stroke-opacity:0.1; fill:none" points="
  252.764,1368.54 2352.76,1368.54 
  "/>
<polyline clip-path="url(#clip222)" style="stroke:#000000; stroke-linecap:butt; stroke-linejoin:round; stroke-width:2; stroke-opacity:0.1; fill:none" points="
  252.764,1002.05 2352.76,1002.05 
  "/>
<polyline clip-path="url(#clip222)" style="stroke:#000000; stroke-linecap:butt; stroke-linejoin:round; stroke-width:2; stroke-opacity:0.1; fill:none" points="
  252.764,635.566 2352.76,635.566 
  "/>
<polyline clip-path="url(#clip222)" style="stroke:#000000; stroke-linecap:butt; stroke-linejoin:round; stroke-width:2; stroke-opacity:0.1; fill:none" points="
  252.764,269.081 2352.76,269.081 
  "/>
<polyline clip-path="url(#clip220)" style="stroke:#000000; stroke-linecap:butt; stroke-linejoin:round; stroke-width:4; stroke-opacity:1; fill:none" points="
  252.764,1410.9 252.764,47.2441 
  "/>
<polyline clip-path="url(#clip220)" style="stroke:#000000; stroke-linecap:butt; stroke-linejoin:round; stroke-width:4; stroke-opacity:1; fill:none" points="
  252.764,1368.54 271.662,1368.54 
  "/>
<polyline clip-path="url(#clip220)" style="stroke:#000000; stroke-linecap:butt; stroke-linejoin:round; stroke-width:4; stroke-opacity:1; fill:none" points="
  252.764,1002.05 271.662,1002.05 
  "/>
<polyline clip-path="url(#clip220)" style="stroke:#000000; stroke-linecap:butt; stroke-linejoin:round; stroke-width:4; stroke-opacity:1; fill:none" points="
  252.764,635.566 271.662,635.566 
  "/>
<polyline clip-path="url(#clip220)" style="stroke:#000000; stroke-linecap:butt; stroke-linejoin:round; stroke-width:4; stroke-opacity:1; fill:none" points="
  252.764,269.081 271.662,269.081 
  "/>
<path clip-path="url(#clip220)" d="M115.195 1388.33 L122.834 1388.33 L122.834 1361.96 L114.523 1363.63 L114.523 1359.37 L122.787 1357.7 L127.463 1357.7 L127.463 1388.33 L135.102 1388.33 L135.102 1392.26 L115.195 1392.26 L115.195 1388.33 Z" fill="#000000" fill-rule="evenodd" fill-opacity="1" /><path clip-path="url(#clip220)" d="M154.546 1360.78 Q150.935 1360.78 149.107 1364.35 Q147.301 1367.89 147.301 1375.02 Q147.301 1382.12 149.107 1385.69 Q150.935 1389.23 154.546 1389.23 Q158.181 1389.23 159.986 1385.69 Q161.815 1382.12 161.815 1375.02 Q161.815 1367.89 159.986 1364.35 Q158.181 1360.78 154.546 1360.78 M154.546 1357.08 Q160.357 1357.08 163.412 1361.68 Q166.491 1366.27 166.491 1375.02 Q166.491 1383.74 163.412 1388.35 Q160.357 1392.93 154.546 1392.93 Q148.736 1392.93 145.658 1388.35 Q142.602 1383.74 142.602 1375.02 Q142.602 1366.27 145.658 1361.68 Q148.736 1357.08 154.546 1357.08 Z" fill="#000000" fill-rule="evenodd" fill-opacity="1" /><path clip-path="url(#clip220)" d="M166.491 1351.18 L190.602 1351.18 L190.602 1354.38 L166.491 1354.38 L166.491 1351.18 Z" fill="#000000" fill-rule="evenodd" fill-opacity="1" /><path clip-path="url(#clip220)" d="M207.398 1349.3 Q204.84 1349.3 203.335 1351.05 Q201.849 1352.8 201.849 1355.84 Q201.849 1358.87 203.335 1360.64 Q204.84 1362.39 207.398 1362.39 Q209.956 1362.39 211.441 1360.64 Q212.946 1358.87 212.946 1355.84 Q212.946 1352.8 211.441 1351.05 Q209.956 1349.3 207.398 1349.3 M214.94 1337.39 L214.94 1340.85 Q213.51 1340.18 212.043 1339.82 Q210.595 1339.46 209.166 1339.46 Q205.404 1339.46 203.41 1342 Q201.436 1344.54 201.153 1349.67 Q202.263 1348.04 203.937 1347.17 Q205.611 1346.29 207.623 1346.29 Q211.855 1346.29 214.3 1348.87 Q216.764 1351.42 216.764 1355.84 Q216.764 1360.17 214.206 1362.78 Q211.648 1365.4 207.398 1365.4 Q202.526 1365.4 199.95 1361.67 Q197.373 1357.93 197.373 1350.84 Q197.373 1344.18 200.533 1340.23 Q203.693 1336.26 209.015 1336.26 Q210.445 1336.26 211.893 1336.55 Q213.36 1336.83 214.94 1337.39 Z" fill="#000000" fill-rule="evenodd" fill-opacity="1" /><path clip-path="url(#clip220)" d="M114.931 1021.84 L122.57 1021.84 L122.57 995.477 L114.26 997.144 L114.26 992.885 L122.524 991.218 L127.2 991.218 L127.2 1021.84 L134.839 1021.84 L134.839 1025.78 L114.931 1025.78 L114.931 1021.84 Z" fill="#000000" fill-rule="evenodd" fill-opacity="1" /><path clip-path="url(#clip220)" d="M154.283 994.297 Q150.672 994.297 148.843 997.862 Q147.038 1001.4 147.038 1008.53 Q147.038 1015.64 148.843 1019.2 Q150.672 1022.75 154.283 1022.75 Q157.917 1022.75 159.723 1019.2 Q161.552 1015.64 161.552 1008.53 Q161.552 1001.4 159.723 997.862 Q157.917 994.297 154.283 994.297 M154.283 990.593 Q160.093 990.593 163.149 995.2 Q166.227 999.783 166.227 1008.53 Q166.227 1017.26 163.149 1021.87 Q160.093 1026.45 154.283 1026.45 Q148.473 1026.45 145.394 1021.87 Q142.339 1017.26 142.339 1008.53 Q142.339 999.783 145.394 995.2 Q148.473 990.593 154.283 990.593 Z" fill="#000000" fill-rule="evenodd" fill-opacity="1" /><path clip-path="url(#clip220)" d="M166.227 984.694 L190.339 984.694 L190.339 987.892 L166.227 987.892 L166.227 984.694 Z" fill="#000000" fill-rule="evenodd" fill-opacity="1" /><path clip-path="url(#clip220)" d="M208.978 973.598 L199.386 988.588 L208.978 988.588 L208.978 973.598 M207.981 970.288 L212.758 970.288 L212.758 988.588 L216.764 988.588 L216.764 991.747 L212.758 991.747 L212.758 998.368 L208.978 998.368 L208.978 991.747 L196.301 991.747 L196.301 988.08 L207.981 970.288 Z" fill="#000000" fill-rule="evenodd" fill-opacity="1" /><path clip-path="url(#clip220)" d="M116.624 655.358 L124.263 655.358 L124.263 628.992 L115.953 630.659 L115.953 626.4 L124.217 624.733 L128.893 624.733 L128.893 655.358 L136.531 655.358 L136.531 659.293 L116.624 659.293 L116.624 655.358 Z" fill="#000000" fill-rule="evenodd" fill-opacity="1" /><path clip-path="url(#clip220)" d="M155.976 627.812 Q152.365 627.812 150.536 631.377 Q148.73 634.918 148.73 642.048 Q148.73 649.154 150.536 652.719 Q152.365 656.261 155.976 656.261 Q159.61 656.261 161.416 652.719 Q163.244 649.154 163.244 642.048 Q163.244 634.918 161.416 631.377 Q159.61 627.812 155.976 627.812 M155.976 624.108 Q161.786 624.108 164.841 628.715 Q167.92 633.298 167.92 642.048 Q167.92 650.775 164.841 655.381 Q161.786 659.964 155.976 659.964 Q150.166 659.964 147.087 655.381 Q144.031 650.775 144.031 642.048 Q144.031 633.298 147.087 628.715 Q150.166 624.108 155.976 624.108 Z" fill="#000000" fill-rule="evenodd" fill-opacity="1" /><path clip-path="url(#clip220)" d="M167.92 618.209 L192.032 618.209 L192.032 621.407 L167.92 621.407 L167.92 618.209 Z" fill="#000000" fill-rule="evenodd" fill-opacity="1" /><path clip-path="url(#clip220)" d="M203.504 628.685 L216.764 628.685 L216.764 631.883 L198.934 631.883 L198.934 628.685 Q201.097 626.447 204.821 622.686 Q208.564 618.905 209.523 617.815 Q211.347 615.764 212.062 614.354 Q212.796 612.924 212.796 611.552 Q212.796 609.313 211.216 607.903 Q209.655 606.492 207.134 606.492 Q205.348 606.492 203.354 607.113 Q201.379 607.734 199.122 608.994 L199.122 605.157 Q201.417 604.235 203.41 603.765 Q205.404 603.295 207.059 603.295 Q211.423 603.295 214.018 605.477 Q216.613 607.658 216.613 611.307 Q216.613 613.037 215.955 614.598 Q215.316 616.141 213.604 618.247 Q213.134 618.793 210.614 621.407 Q208.094 624.002 203.504 628.685 Z" fill="#000000" fill-rule="evenodd" fill-opacity="1" /><path clip-path="url(#clip220)" d="M146.058 288.873 L153.697 288.873 L153.697 262.507 L145.387 264.174 L145.387 259.915 L153.651 258.248 L158.327 258.248 L158.327 288.873 L165.966 288.873 L165.966 292.808 L146.058 292.808 L146.058 288.873 Z" fill="#000000" fill-rule="evenodd" fill-opacity="1" /><path clip-path="url(#clip220)" d="M185.41 261.327 Q181.799 261.327 179.97 264.892 Q178.165 268.433 178.165 275.563 Q178.165 282.669 179.97 286.234 Q181.799 289.776 185.41 289.776 Q189.044 289.776 190.85 286.234 Q192.678 282.669 192.678 275.563 Q192.678 268.433 190.85 264.892 Q189.044 261.327 185.41 261.327 M185.41 257.623 Q191.22 257.623 194.276 262.23 Q197.354 266.813 197.354 275.563 Q197.354 284.29 194.276 288.896 Q191.22 293.479 185.41 293.479 Q179.6 293.479 176.521 288.896 Q173.466 284.29 173.466 275.563 Q173.466 266.813 176.521 262.23 Q179.6 257.623 185.41 257.623 Z" fill="#000000" fill-rule="evenodd" fill-opacity="1" /><path clip-path="url(#clip220)" d="M207.059 239.819 Q204.125 239.819 202.639 242.716 Q201.172 245.593 201.172 251.386 Q201.172 257.16 202.639 260.056 Q204.125 262.934 207.059 262.934 Q210.012 262.934 211.479 260.056 Q212.965 257.16 212.965 251.386 Q212.965 245.593 211.479 242.716 Q210.012 239.819 207.059 239.819 M207.059 236.81 Q211.78 236.81 214.263 240.553 Q216.764 244.277 216.764 251.386 Q216.764 258.476 214.263 262.219 Q211.78 265.943 207.059 265.943 Q202.338 265.943 199.837 262.219 Q197.354 258.476 197.354 251.386 Q197.354 244.277 199.837 240.553 Q202.338 236.81 207.059 236.81 Z" fill="#000000" fill-rule="evenodd" fill-opacity="1" /><path clip-path="url(#clip220)" d="M44.7161 773.137 L47.5806 773.137 L47.5806 800.064 Q53.6281 799.682 56.8109 796.435 Q59.9619 793.157 59.9619 787.332 Q59.9619 783.959 59.1344 780.808 Q58.3069 777.625 56.6518 774.506 L62.1899 774.506 Q63.5267 777.657 64.227 780.967 Q64.9272 784.277 64.9272 787.683 Q64.9272 796.213 59.9619 801.21 Q54.9967 806.175 46.5303 806.175 Q37.7774 806.175 32.6531 801.464 Q27.4968 796.722 27.4968 788.701 Q27.4968 781.508 32.1438 777.338 Q36.7589 773.137 44.7161 773.137 M42.9973 778.993 Q38.1912 779.057 35.3266 781.699 Q32.4621 784.309 32.4621 788.637 Q32.4621 793.539 35.2312 796.499 Q38.0002 799.427 43.0292 799.873 L42.9973 778.993 Z" fill="#000000" fill-rule="evenodd" fill-opacity="1" /><path clip-path="url(#clip220)" d="M33.8307 742.868 Q33.2578 743.855 33.0032 745.032 Q32.7167 746.178 32.7167 747.579 Q32.7167 752.544 35.9632 755.218 Q39.1779 757.859 45.2253 757.859 L64.0042 757.859 L64.0042 763.748 L28.3562 763.748 L28.3562 757.859 L33.8944 757.859 Q30.6479 756.013 29.0883 753.053 Q27.4968 750.093 27.4968 745.86 Q27.4968 745.255 27.5923 744.523 Q27.656 743.791 27.8151 742.9 L33.8307 742.868 Z" fill="#000000" fill-rule="evenodd" fill-opacity="1" /><path clip-path="url(#clip220)" d="M33.8307 717.214 Q33.2578 718.201 33.0032 719.379 Q32.7167 720.524 32.7167 721.925 Q32.7167 726.89 35.9632 729.564 Q39.1779 732.205 45.2253 732.205 L64.0042 732.205 L64.0042 738.094 L28.3562 738.094 L28.3562 732.205 L33.8944 732.205 Q30.6479 730.359 29.0883 727.399 Q27.4968 724.439 27.4968 720.206 Q27.4968 719.601 27.5923 718.869 Q27.656 718.137 27.8151 717.246 L33.8307 717.214 Z" fill="#000000" fill-rule="evenodd" fill-opacity="1" /><path clip-path="url(#clip220)" d="M32.4621 698.69 Q32.4621 703.401 36.1542 706.138 Q39.8145 708.875 46.212 708.875 Q52.6095 708.875 56.3017 706.17 Q59.9619 703.432 59.9619 698.69 Q59.9619 694.011 56.2698 691.274 Q52.5777 688.537 46.212 688.537 Q39.8781 688.537 36.186 691.274 Q32.4621 694.011 32.4621 698.69 M27.4968 698.69 Q27.4968 691.051 32.4621 686.691 Q37.4273 682.33 46.212 682.33 Q54.9649 682.33 59.9619 686.691 Q64.9272 691.051 64.9272 698.69 Q64.9272 706.361 59.9619 710.721 Q54.9649 715.05 46.212 715.05 Q37.4273 715.05 32.4621 710.721 Q27.4968 706.361 27.4968 698.69 Z" fill="#000000" fill-rule="evenodd" fill-opacity="1" /><path clip-path="url(#clip220)" d="M33.8307 651.966 Q33.2578 652.952 33.0032 654.13 Q32.7167 655.276 32.7167 656.676 Q32.7167 661.642 35.9632 664.315 Q39.1779 666.957 45.2253 666.957 L64.0042 666.957 L64.0042 672.845 L28.3562 672.845 L28.3562 666.957 L33.8944 666.957 Q30.6479 665.111 29.0883 662.151 Q27.4968 659.191 27.4968 654.958 Q27.4968 654.353 27.5923 653.621 Q27.656 652.889 27.8151 651.998 L33.8307 651.966 Z" fill="#000000" fill-rule="evenodd" fill-opacity="1" /><polyline clip-path="url(#clip222)" style="stroke:#009af9; stroke-linecap:butt; stroke-linejoin:round; stroke-width:12; stroke-opacity:1; fill:none" points="
  312.198,324.242 472.755,434.565 633.313,544.888 793.87,85.838 954.428,85.838 1114.99,85.838 1275.54,85.838 1436.1,85.838 1596.66,85.838 1757.21,85.838 
  
  "/>
<polyline clip-path="url(#clip222)" style="stroke:#e26f46; stroke-linecap:butt; stroke-linejoin:round; stroke-width:12; stroke-opacity:1; fill:none" points="
  312.198,324.242 472.755,434.565 633.313,544.888 848.305,684.13 1089.14,813.28 1329.98,929.099 1570.81,1040.86 1811.65,1151.54 2052.49,1261.96 2293.32,1372.3 
  
  "/>
<polyline clip-path="url(#clip222)" style="stroke:#3da44d; stroke-linecap:butt; stroke-linejoin:round; stroke-width:12; stroke-opacity:1; fill:none" points="
  352.337,324.242 553.034,434.565 753.731,544.888 954.428,655.211 1155.12,765.534 1355.82,875.857 1556.52,986.18 1757.21,1096.5 1957.91,1206.83 2158.61,1317.15 
  
  "/>
<path clip-path="url(#clip220)" d="
M1645.21 300.059 L2282.76 300.059 L2282.76 92.6992 L1645.21 92.6992  Z
  " fill="#ffffff" fill-rule="evenodd" fill-opacity="1"/>
<polyline clip-path="url(#clip220)" style="stroke:#000000; stroke-linecap:butt; stroke-linejoin:round; stroke-width:4; stroke-opacity:1; fill:none" points="
  1645.21,300.059 2282.76,300.059 2282.76,92.6992 1645.21,92.6992 1645.21,300.059 
  "/>
<polyline clip-path="url(#clip220)" style="stroke:#009af9; stroke-linecap:butt; stroke-linejoin:round; stroke-width:4; stroke-opacity:1; fill:none" points="
  1668.55,144.539 1808.55,144.539 
  "/>
<path clip-path="url(#clip220)" d="M1855.91 147.791 L1855.91 149.875 L1836.32 149.875 Q1836.6 154.273 1838.96 156.588 Q1841.35 158.879 1845.58 158.879 Q1848.04 158.879 1850.33 158.278 Q1852.64 157.676 1854.91 156.472 L1854.91 160.5 Q1852.62 161.472 1850.21 161.981 Q1847.8 162.49 1845.33 162.49 Q1839.12 162.49 1835.49 158.879 Q1831.88 155.268 1831.88 149.111 Q1831.88 142.745 1835.3 139.018 Q1838.75 135.268 1844.59 135.268 Q1849.82 135.268 1852.85 138.648 Q1855.91 142.004 1855.91 147.791 M1851.65 146.541 Q1851.6 143.046 1849.68 140.963 Q1847.78 138.879 1844.63 138.879 Q1841.07 138.879 1838.92 140.893 Q1836.79 142.907 1836.46 146.565 L1851.65 146.541 Z" fill="#000000" fill-rule="evenodd" fill-opacity="1" /><path clip-path="url(#clip220)" d="M1883.61 135.893 L1874.24 148.509 L1884.1 161.819 L1879.08 161.819 L1871.53 151.634 L1863.99 161.819 L1858.96 161.819 L1869.03 148.254 L1859.82 135.893 L1864.84 135.893 L1871.72 145.129 L1878.59 135.893 L1883.61 135.893 Z" fill="#000000" fill-rule="evenodd" fill-opacity="1" /><path clip-path="url(#clip220)" d="M1894.24 157.93 L1894.24 171.68 L1889.96 171.68 L1889.96 135.893 L1894.24 135.893 L1894.24 139.829 Q1895.58 137.514 1897.62 136.403 Q1899.68 135.268 1902.53 135.268 Q1907.25 135.268 1910.19 139.018 Q1913.15 142.768 1913.15 148.879 Q1913.15 154.991 1910.19 158.74 Q1907.25 162.49 1902.53 162.49 Q1899.68 162.49 1897.62 161.379 Q1895.58 160.245 1894.24 157.93 M1908.73 148.879 Q1908.73 144.18 1906.79 141.518 Q1904.86 138.833 1901.48 138.833 Q1898.11 138.833 1896.16 141.518 Q1894.24 144.18 1894.24 148.879 Q1894.24 153.578 1896.16 156.264 Q1898.11 158.926 1901.48 158.926 Q1904.86 158.926 1906.79 156.264 Q1908.73 153.578 1908.73 148.879 Z" fill="#000000" fill-rule="evenodd" fill-opacity="1" /><path clip-path="url(#clip220)" d="M1920.21 125.801 L1924.47 125.801 L1924.47 161.819 L1920.21 161.819 L1920.21 125.801 Z" fill="#000000" fill-rule="evenodd" fill-opacity="1" /><path clip-path="url(#clip220)" d="M1933.38 135.893 L1937.64 135.893 L1937.64 161.819 L1933.38 161.819 L1933.38 135.893 M1933.38 125.801 L1937.64 125.801 L1937.64 131.194 L1933.38 131.194 L1933.38 125.801 Z" fill="#000000" fill-rule="evenodd" fill-opacity="1" /><path clip-path="url(#clip220)" d="M1965.21 136.889 L1965.21 140.87 Q1963.41 139.875 1961.58 139.389 Q1959.77 138.879 1957.92 138.879 Q1953.78 138.879 1951.48 141.518 Q1949.19 144.134 1949.19 148.879 Q1949.19 153.625 1951.48 156.264 Q1953.78 158.879 1957.92 158.879 Q1959.77 158.879 1961.58 158.393 Q1963.41 157.884 1965.21 156.889 L1965.21 160.824 Q1963.43 161.657 1961.51 162.074 Q1959.61 162.49 1957.46 162.49 Q1951.6 162.49 1948.15 158.81 Q1944.7 155.129 1944.7 148.879 Q1944.7 142.537 1948.17 138.903 Q1951.67 135.268 1957.73 135.268 Q1959.7 135.268 1961.58 135.685 Q1963.45 136.079 1965.21 136.889 Z" fill="#000000" fill-rule="evenodd" fill-opacity="1" /><path clip-path="url(#clip220)" d="M1972.62 135.893 L1976.88 135.893 L1976.88 161.819 L1972.62 161.819 L1972.62 135.893 M1972.62 125.801 L1976.88 125.801 L1976.88 131.194 L1972.62 131.194 L1972.62 125.801 Z" fill="#000000" fill-rule="evenodd" fill-opacity="1" /><path clip-path="url(#clip220)" d="M1990 128.532 L1990 135.893 L1998.78 135.893 L1998.78 139.204 L1990 139.204 L1990 153.278 Q1990 156.449 1990.86 157.352 Q1991.74 158.254 1994.4 158.254 L1998.78 158.254 L1998.78 161.819 L1994.4 161.819 Q1989.47 161.819 1987.6 159.99 Q1985.72 158.139 1985.72 153.278 L1985.72 139.204 L1982.6 139.204 L1982.6 135.893 L1985.72 135.893 L1985.72 128.532 L1990 128.532 Z" fill="#000000" fill-rule="evenodd" fill-opacity="1" /><path clip-path="url(#clip220)" d="M2024.08 169.69 L2024.08 173 L1999.45 173 L1999.45 169.69 L2024.08 169.69 Z" fill="#000000" fill-rule="evenodd" fill-opacity="1" /><path clip-path="url(#clip220)" d="M2039.86 148.787 Q2034.7 148.787 2032.71 149.967 Q2030.72 151.148 2030.72 153.995 Q2030.72 156.264 2032.2 157.606 Q2033.71 158.926 2036.28 158.926 Q2039.82 158.926 2041.95 156.426 Q2044.1 153.903 2044.1 149.736 L2044.1 148.787 L2039.86 148.787 M2048.36 147.028 L2048.36 161.819 L2044.1 161.819 L2044.1 157.884 Q2042.64 160.245 2040.47 161.379 Q2038.29 162.49 2035.14 162.49 Q2031.16 162.49 2028.8 160.268 Q2026.46 158.023 2026.46 154.273 Q2026.46 149.898 2029.38 147.676 Q2032.32 145.454 2038.13 145.454 L2044.1 145.454 L2044.1 145.037 Q2044.1 142.097 2042.16 140.5 Q2040.23 138.879 2036.74 138.879 Q2034.52 138.879 2032.41 139.412 Q2030.3 139.944 2028.36 141.009 L2028.36 137.074 Q2030.7 136.171 2032.9 135.731 Q2035.1 135.268 2037.18 135.268 Q2042.8 135.268 2045.58 138.185 Q2048.36 141.102 2048.36 147.028 Z" fill="#000000" fill-rule="evenodd" fill-opacity="1" /><path clip-path="url(#clip220)" d="M2075.79 136.889 L2075.79 140.87 Q2073.98 139.875 2072.16 139.389 Q2070.35 138.879 2068.5 138.879 Q2064.35 138.879 2062.06 141.518 Q2059.77 144.134 2059.77 148.879 Q2059.77 153.625 2062.06 156.264 Q2064.35 158.879 2068.5 158.879 Q2070.35 158.879 2072.16 158.393 Q2073.98 157.884 2075.79 156.889 L2075.79 160.824 Q2074.01 161.657 2072.09 162.074 Q2070.19 162.49 2068.04 162.49 Q2062.18 162.49 2058.73 158.81 Q2055.28 155.129 2055.28 148.879 Q2055.28 142.537 2058.75 138.903 Q2062.25 135.268 2068.31 135.268 Q2070.28 135.268 2072.16 135.685 Q2074.03 136.079 2075.79 136.889 Z" fill="#000000" fill-rule="evenodd" fill-opacity="1" /><path clip-path="url(#clip220)" d="M2101.85 136.889 L2101.85 140.87 Q2100.05 139.875 2098.22 139.389 Q2096.41 138.879 2094.56 138.879 Q2090.42 138.879 2088.13 141.518 Q2085.84 144.134 2085.84 148.879 Q2085.84 153.625 2088.13 156.264 Q2090.42 158.879 2094.56 158.879 Q2096.41 158.879 2098.22 158.393 Q2100.05 157.884 2101.85 156.889 L2101.85 160.824 Q2100.07 161.657 2098.15 162.074 Q2096.25 162.49 2094.1 162.49 Q2088.24 162.49 2084.79 158.81 Q2081.35 155.129 2081.35 148.879 Q2081.35 142.537 2084.82 138.903 Q2088.31 135.268 2094.38 135.268 Q2096.35 135.268 2098.22 135.685 Q2100.1 136.079 2101.85 136.889 Z" fill="#000000" fill-rule="evenodd" fill-opacity="1" /><path clip-path="url(#clip220)" d="M2108.82 151.588 L2108.82 135.893 L2113.08 135.893 L2113.08 151.426 Q2113.08 155.106 2114.52 156.958 Q2115.95 158.787 2118.82 158.787 Q2122.27 158.787 2124.26 156.588 Q2126.28 154.389 2126.28 150.592 L2126.28 135.893 L2130.53 135.893 L2130.53 161.819 L2126.28 161.819 L2126.28 157.838 Q2124.72 160.199 2122.66 161.356 Q2120.63 162.49 2117.92 162.49 Q2113.45 162.49 2111.14 159.713 Q2108.82 156.935 2108.82 151.588 M2119.54 135.268 L2119.54 135.268 Z" fill="#000000" fill-rule="evenodd" fill-opacity="1" /><path clip-path="url(#clip220)" d="M2154.33 139.875 Q2153.61 139.458 2152.76 139.273 Q2151.92 139.065 2150.9 139.065 Q2147.29 139.065 2145.35 141.426 Q2143.43 143.764 2143.43 148.162 L2143.43 161.819 L2139.15 161.819 L2139.15 135.893 L2143.43 135.893 L2143.43 139.921 Q2144.77 137.56 2146.92 136.426 Q2149.08 135.268 2152.15 135.268 Q2152.59 135.268 2153.13 135.338 Q2153.66 135.384 2154.31 135.5 L2154.33 139.875 Z" fill="#000000" fill-rule="evenodd" fill-opacity="1" /><path clip-path="url(#clip220)" d="M2170.58 148.787 Q2165.42 148.787 2163.43 149.967 Q2161.44 151.148 2161.44 153.995 Q2161.44 156.264 2162.92 157.606 Q2164.42 158.926 2166.99 158.926 Q2170.53 158.926 2172.66 156.426 Q2174.82 153.903 2174.82 149.736 L2174.82 148.787 L2170.58 148.787 M2179.08 147.028 L2179.08 161.819 L2174.82 161.819 L2174.82 157.884 Q2173.36 160.245 2171.18 161.379 Q2169.01 162.49 2165.86 162.49 Q2161.88 162.49 2159.52 160.268 Q2157.18 158.023 2157.18 154.273 Q2157.18 149.898 2160.09 147.676 Q2163.03 145.454 2168.84 145.454 L2174.82 145.454 L2174.82 145.037 Q2174.82 142.097 2172.87 140.5 Q2170.95 138.879 2167.46 138.879 Q2165.23 138.879 2163.13 139.412 Q2161.02 139.944 2159.08 141.009 L2159.08 137.074 Q2161.41 136.171 2163.61 135.731 Q2165.81 135.268 2167.9 135.268 Q2173.52 135.268 2176.3 138.185 Q2179.08 141.102 2179.08 147.028 Z" fill="#000000" fill-rule="evenodd" fill-opacity="1" /><path clip-path="url(#clip220)" d="M2206.51 136.889 L2206.51 140.87 Q2204.7 139.875 2202.87 139.389 Q2201.07 138.879 2199.21 138.879 Q2195.07 138.879 2192.78 141.518 Q2190.49 144.134 2190.49 148.879 Q2190.49 153.625 2192.78 156.264 Q2195.07 158.879 2199.21 158.879 Q2201.07 158.879 2202.87 158.393 Q2204.7 157.884 2206.51 156.889 L2206.51 160.824 Q2204.72 161.657 2202.8 162.074 Q2200.9 162.49 2198.75 162.49 Q2192.9 162.49 2189.45 158.81 Q2186 155.129 2186 148.879 Q2186 142.537 2189.47 138.903 Q2192.96 135.268 2199.03 135.268 Q2201 135.268 2202.87 135.685 Q2204.75 136.079 2206.51 136.889 Z" fill="#000000" fill-rule="evenodd" fill-opacity="1" /><path clip-path="url(#clip220)" d="M2224.7 164.227 Q2222.9 168.856 2221.18 170.268 Q2219.47 171.68 2216.6 171.68 L2213.2 171.68 L2213.2 168.115 L2215.7 168.115 Q2217.46 168.115 2218.43 167.282 Q2219.4 166.449 2220.58 163.347 L2221.34 161.403 L2210.86 135.893 L2215.37 135.893 L2223.47 156.171 L2231.58 135.893 L2236.09 135.893 L2224.7 164.227 Z" fill="#000000" fill-rule="evenodd" fill-opacity="1" /><polyline clip-path="url(#clip220)" style="stroke:#e26f46; stroke-linecap:butt; stroke-linejoin:round; stroke-width:4; stroke-opacity:1; fill:none" points="
  1668.55,196.379 1808.55,196.379 
  "/>
<path clip-path="url(#clip220)" d="M1855.91 199.631 L1855.91 201.715 L1836.32 201.715 Q1836.6 206.113 1838.96 208.428 Q1841.35 210.719 1845.58 210.719 Q1848.04 210.719 1850.33 210.118 Q1852.64 209.516 1854.91 208.312 L1854.91 212.34 Q1852.62 213.312 1850.21 213.821 Q1847.8 214.33 1845.33 214.33 Q1839.12 214.33 1835.49 210.719 Q1831.88 207.108 1831.88 200.951 Q1831.88 194.585 1835.3 190.858 Q1838.75 187.108 1844.59 187.108 Q1849.82 187.108 1852.85 190.488 Q1855.91 193.844 1855.91 199.631 M1851.65 198.381 Q1851.6 194.886 1849.68 192.803 Q1847.78 190.719 1844.63 190.719 Q1841.07 190.719 1838.92 192.733 Q1836.79 194.747 1836.46 198.405 L1851.65 198.381 Z" fill="#000000" fill-rule="evenodd" fill-opacity="1" /><path clip-path="url(#clip220)" d="M1883.61 187.733 L1874.24 200.349 L1884.1 213.659 L1879.08 213.659 L1871.53 203.474 L1863.99 213.659 L1858.96 213.659 L1869.03 200.094 L1859.82 187.733 L1864.84 187.733 L1871.72 196.969 L1878.59 187.733 L1883.61 187.733 Z" fill="#000000" fill-rule="evenodd" fill-opacity="1" /><path clip-path="url(#clip220)" d="M1894.24 209.77 L1894.24 223.52 L1889.96 223.52 L1889.96 187.733 L1894.24 187.733 L1894.24 191.669 Q1895.58 189.354 1897.62 188.243 Q1899.68 187.108 1902.53 187.108 Q1907.25 187.108 1910.19 190.858 Q1913.15 194.608 1913.15 200.719 Q1913.15 206.831 1910.19 210.58 Q1907.25 214.33 1902.53 214.33 Q1899.68 214.33 1897.62 213.219 Q1895.58 212.085 1894.24 209.77 M1908.73 200.719 Q1908.73 196.02 1906.79 193.358 Q1904.86 190.673 1901.48 190.673 Q1898.11 190.673 1896.16 193.358 Q1894.24 196.02 1894.24 200.719 Q1894.24 205.418 1896.16 208.104 Q1898.11 210.766 1901.48 210.766 Q1904.86 210.766 1906.79 208.104 Q1908.73 205.418 1908.73 200.719 Z" fill="#000000" fill-rule="evenodd" fill-opacity="1" /><path clip-path="url(#clip220)" d="M1920.21 177.641 L1924.47 177.641 L1924.47 213.659 L1920.21 213.659 L1920.21 177.641 Z" fill="#000000" fill-rule="evenodd" fill-opacity="1" /><path clip-path="url(#clip220)" d="M1933.38 187.733 L1937.64 187.733 L1937.64 213.659 L1933.38 213.659 L1933.38 187.733 M1933.38 177.641 L1937.64 177.641 L1937.64 183.034 L1933.38 183.034 L1933.38 177.641 Z" fill="#000000" fill-rule="evenodd" fill-opacity="1" /><path clip-path="url(#clip220)" d="M1965.21 188.729 L1965.21 192.71 Q1963.41 191.715 1961.58 191.229 Q1959.77 190.719 1957.92 190.719 Q1953.78 190.719 1951.48 193.358 Q1949.19 195.974 1949.19 200.719 Q1949.19 205.465 1951.48 208.104 Q1953.78 210.719 1957.92 210.719 Q1959.77 210.719 1961.58 210.233 Q1963.41 209.724 1965.21 208.729 L1965.21 212.664 Q1963.43 213.497 1961.51 213.914 Q1959.61 214.33 1957.46 214.33 Q1951.6 214.33 1948.15 210.65 Q1944.7 206.969 1944.7 200.719 Q1944.7 194.377 1948.17 190.743 Q1951.67 187.108 1957.73 187.108 Q1959.7 187.108 1961.58 187.525 Q1963.45 187.919 1965.21 188.729 Z" fill="#000000" fill-rule="evenodd" fill-opacity="1" /><path clip-path="url(#clip220)" d="M1972.62 187.733 L1976.88 187.733 L1976.88 213.659 L1972.62 213.659 L1972.62 187.733 M1972.62 177.641 L1976.88 177.641 L1976.88 183.034 L1972.62 183.034 L1972.62 177.641 Z" fill="#000000" fill-rule="evenodd" fill-opacity="1" /><path clip-path="url(#clip220)" d="M1990 180.372 L1990 187.733 L1998.78 187.733 L1998.78 191.044 L1990 191.044 L1990 205.118 Q1990 208.289 1990.86 209.192 Q1991.74 210.094 1994.4 210.094 L1998.78 210.094 L1998.78 213.659 L1994.4 213.659 Q1989.47 213.659 1987.6 211.83 Q1985.72 209.979 1985.72 205.118 L1985.72 191.044 L1982.6 191.044 L1982.6 187.733 L1985.72 187.733 L1985.72 180.372 L1990 180.372 Z" fill="#000000" fill-rule="evenodd" fill-opacity="1" /><path clip-path="url(#clip220)" d="M2024.08 221.53 L2024.08 224.84 L1999.45 224.84 L1999.45 221.53 L2024.08 221.53 Z" fill="#000000" fill-rule="evenodd" fill-opacity="1" /><path clip-path="url(#clip220)" d="M2044.61 188.497 L2044.61 192.525 Q2042.8 191.599 2040.86 191.136 Q2038.91 190.673 2036.83 190.673 Q2033.66 190.673 2032.06 191.645 Q2030.49 192.618 2030.49 194.562 Q2030.49 196.044 2031.62 196.9 Q2032.76 197.733 2036.18 198.497 L2037.64 198.821 Q2042.18 199.794 2044.08 201.576 Q2046 203.335 2046 206.506 Q2046 210.118 2043.13 212.224 Q2040.28 214.33 2035.28 214.33 Q2033.2 214.33 2030.93 213.914 Q2028.68 213.52 2026.18 212.71 L2026.18 208.312 Q2028.54 209.539 2030.84 210.164 Q2033.13 210.766 2035.37 210.766 Q2038.38 210.766 2040 209.747 Q2041.62 208.706 2041.62 206.831 Q2041.62 205.094 2040.44 204.168 Q2039.29 203.243 2035.33 202.386 L2033.85 202.039 Q2029.89 201.206 2028.13 199.493 Q2026.37 197.756 2026.37 194.747 Q2026.37 191.09 2028.96 189.099 Q2031.55 187.108 2036.32 187.108 Q2038.68 187.108 2040.77 187.456 Q2042.85 187.803 2044.61 188.497 Z" fill="#000000" fill-rule="evenodd" fill-opacity="1" /><path clip-path="url(#clip220)" d="M2056.99 180.372 L2056.99 187.733 L2065.77 187.733 L2065.77 191.044 L2056.99 191.044 L2056.99 205.118 Q2056.99 208.289 2057.85 209.192 Q2058.73 210.094 2061.39 210.094 L2065.77 210.094 L2065.77 213.659 L2061.39 213.659 Q2056.46 213.659 2054.59 211.83 Q2052.71 209.979 2052.71 205.118 L2052.71 191.044 L2049.59 191.044 L2049.59 187.733 L2052.71 187.733 L2052.71 180.372 L2056.99 180.372 Z" fill="#000000" fill-rule="evenodd" fill-opacity="1" /><path clip-path="url(#clip220)" d="M2083.15 200.627 Q2077.99 200.627 2076 201.807 Q2074.01 202.988 2074.01 205.835 Q2074.01 208.104 2075.49 209.446 Q2076.99 210.766 2079.56 210.766 Q2083.1 210.766 2085.23 208.266 Q2087.39 205.743 2087.39 201.576 L2087.39 200.627 L2083.15 200.627 M2091.65 198.868 L2091.65 213.659 L2087.39 213.659 L2087.39 209.724 Q2085.93 212.085 2083.75 213.219 Q2081.58 214.33 2078.43 214.33 Q2074.45 214.33 2072.09 212.108 Q2069.75 209.863 2069.75 206.113 Q2069.75 201.738 2072.66 199.516 Q2075.6 197.294 2081.41 197.294 L2087.39 197.294 L2087.39 196.877 Q2087.39 193.937 2085.44 192.34 Q2083.52 190.719 2080.03 190.719 Q2077.8 190.719 2075.7 191.252 Q2073.59 191.784 2071.65 192.849 L2071.65 188.914 Q2073.98 188.011 2076.18 187.571 Q2078.38 187.108 2080.47 187.108 Q2086.09 187.108 2088.87 190.025 Q2091.65 192.942 2091.65 198.868 Z" fill="#000000" fill-rule="evenodd" fill-opacity="1" /><path clip-path="url(#clip220)" d="M2119.03 200.719 Q2119.03 196.02 2117.09 193.358 Q2115.16 190.673 2111.78 190.673 Q2108.41 190.673 2106.46 193.358 Q2104.54 196.02 2104.54 200.719 Q2104.54 205.418 2106.46 208.104 Q2108.41 210.766 2111.78 210.766 Q2115.16 210.766 2117.09 208.104 Q2119.03 205.418 2119.03 200.719 M2104.54 191.669 Q2105.88 189.354 2107.92 188.243 Q2109.98 187.108 2112.83 187.108 Q2117.55 187.108 2120.49 190.858 Q2123.45 194.608 2123.45 200.719 Q2123.45 206.831 2120.49 210.58 Q2117.55 214.33 2112.83 214.33 Q2109.98 214.33 2107.92 213.219 Q2105.88 212.085 2104.54 209.77 L2104.54 213.659 L2100.26 213.659 L2100.26 177.641 L2104.54 177.641 L2104.54 191.669 Z" fill="#000000" fill-rule="evenodd" fill-opacity="1" /><path clip-path="url(#clip220)" d="M2130.51 177.641 L2134.77 177.641 L2134.77 213.659 L2130.51 213.659 L2130.51 177.641 Z" fill="#000000" fill-rule="evenodd" fill-opacity="1" /><path clip-path="url(#clip220)" d="M2165.86 199.631 L2165.86 201.715 L2146.28 201.715 Q2146.55 206.113 2148.91 208.428 Q2151.3 210.719 2155.53 210.719 Q2157.99 210.719 2160.28 210.118 Q2162.59 209.516 2164.86 208.312 L2164.86 212.34 Q2162.57 213.312 2160.16 213.821 Q2157.76 214.33 2155.28 214.33 Q2149.08 214.33 2145.44 210.719 Q2141.83 207.108 2141.83 200.951 Q2141.83 194.585 2145.26 190.858 Q2148.71 187.108 2154.54 187.108 Q2159.77 187.108 2162.8 190.488 Q2165.86 193.844 2165.86 199.631 M2161.6 198.381 Q2161.55 194.886 2159.63 192.803 Q2157.73 190.719 2154.59 190.719 Q2151.02 190.719 2148.87 192.733 Q2146.74 194.747 2146.41 198.405 L2161.6 198.381 Z" fill="#000000" fill-rule="evenodd" fill-opacity="1" /><polyline clip-path="url(#clip220)" style="stroke:#3da44d; stroke-linecap:butt; stroke-linejoin:round; stroke-width:4; stroke-opacity:1; fill:none" points="
  1668.55,248.219 1808.55,248.219 
  "/>
<path clip-path="url(#clip220)" d="M1831.88 239.573 L1836.14 239.573 L1836.14 265.499 L1831.88 265.499 L1831.88 239.573 M1831.88 229.481 L1836.14 229.481 L1836.14 234.874 L1831.88 234.874 L1831.88 229.481 Z" fill="#000000" fill-rule="evenodd" fill-opacity="1" /><path clip-path="url(#clip220)" d="M1865.24 244.55 Q1866.83 241.68 1869.05 240.314 Q1871.28 238.948 1874.29 238.948 Q1878.34 238.948 1880.54 241.796 Q1882.74 244.62 1882.74 249.851 L1882.74 265.499 L1878.45 265.499 L1878.45 249.99 Q1878.45 246.263 1877.13 244.458 Q1875.81 242.652 1873.11 242.652 Q1869.8 242.652 1867.87 244.851 Q1865.95 247.05 1865.95 250.846 L1865.95 265.499 L1861.67 265.499 L1861.67 249.99 Q1861.67 246.24 1860.35 244.458 Q1859.03 242.652 1856.28 242.652 Q1853.01 242.652 1851.09 244.874 Q1849.17 247.073 1849.17 250.846 L1849.17 265.499 L1844.89 265.499 L1844.89 239.573 L1849.17 239.573 L1849.17 243.601 Q1850.63 241.217 1852.67 240.083 Q1854.7 238.948 1857.5 238.948 Q1860.33 238.948 1862.3 240.384 Q1864.29 241.819 1865.24 244.55 Z" fill="#000000" fill-rule="evenodd" fill-opacity="1" /><path clip-path="url(#clip220)" d="M1895.35 261.61 L1895.35 275.36 L1891.07 275.36 L1891.07 239.573 L1895.35 239.573 L1895.35 243.509 Q1896.69 241.194 1898.73 240.083 Q1900.79 238.948 1903.64 238.948 Q1908.36 238.948 1911.3 242.698 Q1914.26 246.448 1914.26 252.559 Q1914.26 258.671 1911.3 262.42 Q1908.36 266.17 1903.64 266.17 Q1900.79 266.17 1898.73 265.059 Q1896.69 263.925 1895.35 261.61 M1909.84 252.559 Q1909.84 247.86 1907.9 245.198 Q1905.98 242.513 1902.6 242.513 Q1899.22 242.513 1897.27 245.198 Q1895.35 247.86 1895.35 252.559 Q1895.35 257.258 1897.27 259.944 Q1899.22 262.606 1902.6 262.606 Q1905.98 262.606 1907.9 259.944 Q1909.84 257.258 1909.84 252.559 Z" fill="#000000" fill-rule="evenodd" fill-opacity="1" /><path clip-path="url(#clip220)" d="M1921.32 229.481 L1925.58 229.481 L1925.58 265.499 L1921.32 265.499 L1921.32 229.481 Z" fill="#000000" fill-rule="evenodd" fill-opacity="1" /><path clip-path="url(#clip220)" d="M1934.49 239.573 L1938.75 239.573 L1938.75 265.499 L1934.49 265.499 L1934.49 239.573 M1934.49 229.481 L1938.75 229.481 L1938.75 234.874 L1934.49 234.874 L1934.49 229.481 Z" fill="#000000" fill-rule="evenodd" fill-opacity="1" /><path clip-path="url(#clip220)" d="M1966.32 240.569 L1966.32 244.55 Q1964.52 243.555 1962.69 243.069 Q1960.88 242.559 1959.03 242.559 Q1954.89 242.559 1952.6 245.198 Q1950.3 247.814 1950.3 252.559 Q1950.3 257.305 1952.6 259.944 Q1954.89 262.559 1959.03 262.559 Q1960.88 262.559 1962.69 262.073 Q1964.52 261.564 1966.32 260.569 L1966.32 264.504 Q1964.54 265.337 1962.62 265.754 Q1960.72 266.17 1958.57 266.17 Q1952.71 266.17 1949.26 262.49 Q1945.81 258.809 1945.81 252.559 Q1945.81 246.217 1949.29 242.583 Q1952.78 238.948 1958.85 238.948 Q1960.81 238.948 1962.69 239.365 Q1964.56 239.759 1966.32 240.569 Z" fill="#000000" fill-rule="evenodd" fill-opacity="1" /><path clip-path="url(#clip220)" d="M1973.73 239.573 L1977.99 239.573 L1977.99 265.499 L1973.73 265.499 L1973.73 239.573 M1973.73 229.481 L1977.99 229.481 L1977.99 234.874 L1973.73 234.874 L1973.73 229.481 Z" fill="#000000" fill-rule="evenodd" fill-opacity="1" /><path clip-path="url(#clip220)" d="M1991.11 232.212 L1991.11 239.573 L1999.89 239.573 L1999.89 242.884 L1991.11 242.884 L1991.11 256.958 Q1991.11 260.129 1991.97 261.032 Q1992.85 261.934 1995.51 261.934 L1999.89 261.934 L1999.89 265.499 L1995.51 265.499 Q1990.58 265.499 1988.71 263.67 Q1986.83 261.819 1986.83 256.958 L1986.83 242.884 L1983.71 242.884 L1983.71 239.573 L1986.83 239.573 L1986.83 232.212 L1991.11 232.212 Z" fill="#000000" fill-rule="evenodd" fill-opacity="1" /></svg>
