<?xml version="1.0" encoding="utf-8"?>
<svg xmlns="http://www.w3.org/2000/svg" xmlns:xlink="http://www.w3.org/1999/xlink" width="600" height="400" viewBox="0 0 2400 1600">
<defs>
  <clipPath id="clip440">
    <rect x="0" y="0" width="2400" height="1600"/>
  </clipPath>
</defs>
<path clip-path="url(#clip440)" d="
M0 1600 L2400 1600 L2400 0 L0 0  Z
  " fill="#ffffff" fill-rule="evenodd" fill-opacity="1"/>
<defs>
  <clipPath id="clip441">
    <rect x="480" y="0" width="1681" height="1600"/>
  </clipPath>
</defs>
<path clip-path="url(#clip440)" d="
M193.936 1486.45 L2352.76 1486.45 L2352.76 47.2441 L193.936 47.2441  Z
  " fill="#ffffff" fill-rule="evenodd" fill-opacity="1"/>
<defs>
  <clipPath id="clip442">
    <rect x="193" y="47" width="2160" height="1440"/>
  </clipPath>
</defs>
<polyline clip-path="url(#clip442)" style="stroke:#000000; stroke-linecap:butt; stroke-linejoin:round; stroke-width:2; stroke-opacity:0.1; fill:none" points="
  255.035,1486.45 255.035,47.2441 
  "/>
<polyline clip-path="url(#clip442)" style="stroke:#000000; stroke-linecap:butt; stroke-linejoin:round; stroke-width:2; stroke-opacity:0.1; fill:none" points="
  594.472,1486.45 594.472,47.2441 
  "/>
<polyline clip-path="url(#clip442)" style="stroke:#000000; stroke-linecap:butt; stroke-linejoin:round; stroke-width:2; stroke-opacity:0.1; fill:none" points="
  933.909,1486.45 933.909,47.2441 
  "/>
<polyline clip-path="url(#clip442)" style="stroke:#000000; stroke-linecap:butt; stroke-linejoin:round; stroke-width:2; stroke-opacity:0.1; fill:none" points="
  1273.35,1486.45 1273.35,47.2441 
  "/>
<polyline clip-path="url(#clip442)" style="stroke:#000000; stroke-linecap:butt; stroke-linejoin:round; stroke-width:2; stroke-opacity:0.1; fill:none" points="
  1612.78,1486.45 1612.78,47.2441 
  "/>
<polyline clip-path="url(#clip442)" style="stroke:#000000; stroke-linecap:butt; stroke-linejoin:round; stroke-width:2; stroke-opacity:0.1; fill:none" points="
  1952.22,1486.45 1952.22,47.2441 
  "/>
<polyline clip-path="url(#clip442)" style="stroke:#000000; stroke-linecap:butt; stroke-linejoin:round; stroke-width:2; stroke-opacity:0.1; fill:none" points="
  2291.66,1486.45 2291.66,47.2441 
  "/>
<polyline clip-path="url(#clip440)" style="stroke:#000000; stroke-linecap:butt; stroke-linejoin:round; stroke-width:4; stroke-opacity:1; fill:none" points="
  193.936,1486.45 2352.76,1486.45 
  "/>
<polyline clip-path="url(#clip440)" style="stroke:#000000; stroke-linecap:butt; stroke-linejoin:round; stroke-width:4; stroke-opacity:1; fill:none" points="
  255.035,1486.45 255.035,1467.55 
  "/>
<polyline clip-path="url(#clip440)" style="stroke:#000000; stroke-linecap:butt; stroke-linejoin:round; stroke-width:4; stroke-opacity:1; fill:none" points="
  594.472,1486.45 594.472,1467.55 
  "/>
<polyline clip-path="url(#clip440)" style="stroke:#000000; stroke-linecap:butt; stroke-linejoin:round; stroke-width:4; stroke-opacity:1; fill:none" points="
  933.909,1486.45 933.909,1467.55 
  "/>
<polyline clip-path="url(#clip440)" style="stroke:#000000; stroke-linecap:butt; stroke-linejoin:round; stroke-width:4; stroke-opacity:1; fill:none" points="
  1273.35,1486.45 1273.35,1467.55 
  "/>
<polyline clip-path="url(#clip440)" style="stroke:#000000; stroke-linecap:butt; stroke-linejoin:round; stroke-width:4; stroke-opacity:1; fill:none" points="
  1612.78,1486.45 1612.78,1467.55 
  "/>
<polyline clip-path="url(#clip440)" style="stroke:#000000; stroke-linecap:butt; stroke-linejoin:round; stroke-width:4; stroke-opacity:1; fill:none" points="
  1952.22,1486.45 1952.22,1467.55 
  "/>
<polyline clip-path="url(#clip440)" style="stroke:#000000; stroke-linecap:butt; stroke-linejoin:round; stroke-width:4; stroke-opacity:1; fill:none" points="
  2291.66,1486.45 2291.66,1467.55 
  "/>
<path clip-path="url(#clip440)" d="M224.502 1532.02 L254.178 1532.02 L254.178 1535.95 L224.502 1535.95 L224.502 1532.02 Z" fill="#000000" fill-rule="evenodd" fill-opacity="1" /><path clip-path="url(#clip440)" d="M278.437 1530.21 Q281.794 1530.93 283.669 1533.2 Q285.567 1535.47 285.567 1538.8 Q285.567 1543.92 282.048 1546.72 Q278.53 1549.52 272.048 1549.52 Q269.873 1549.52 267.558 1549.08 Q265.266 1548.66 262.812 1547.81 L262.812 1543.29 Q264.757 1544.43 267.072 1545.01 Q269.386 1545.58 271.91 1545.58 Q276.308 1545.58 278.599 1543.85 Q280.914 1542.11 280.914 1538.8 Q280.914 1535.75 278.761 1534.03 Q276.632 1532.3 272.812 1532.3 L268.785 1532.3 L268.785 1528.45 L272.998 1528.45 Q276.447 1528.45 278.275 1527.09 Q280.104 1525.7 280.104 1523.11 Q280.104 1520.45 278.206 1519.03 Q276.331 1517.6 272.812 1517.6 Q270.891 1517.6 268.692 1518.01 Q266.493 1518.43 263.854 1519.31 L263.854 1515.14 Q266.516 1514.4 268.831 1514.03 Q271.169 1513.66 273.229 1513.66 Q278.553 1513.66 281.655 1516.09 Q284.757 1518.5 284.757 1522.62 Q284.757 1525.49 283.113 1527.48 Q281.47 1529.45 278.437 1530.21 Z" fill="#000000" fill-rule="evenodd" fill-opacity="1" /><path clip-path="url(#clip440)" d="M564.414 1532.02 L594.09 1532.02 L594.09 1535.95 L564.414 1535.95 L564.414 1532.02 Z" fill="#000000" fill-rule="evenodd" fill-opacity="1" /><path clip-path="url(#clip440)" d="M608.21 1544.91 L624.529 1544.91 L624.529 1548.85 L602.585 1548.85 L602.585 1544.91 Q605.247 1542.16 609.83 1537.53 Q614.437 1532.88 615.617 1531.53 Q617.863 1529.01 618.742 1527.27 Q619.645 1525.51 619.645 1523.82 Q619.645 1521.07 617.701 1519.33 Q615.78 1517.6 612.678 1517.6 Q610.479 1517.6 608.025 1518.36 Q605.594 1519.13 602.817 1520.68 L602.817 1515.95 Q605.641 1514.82 608.094 1514.24 Q610.548 1513.66 612.585 1513.66 Q617.955 1513.66 621.15 1516.35 Q624.344 1519.03 624.344 1523.52 Q624.344 1525.65 623.534 1527.57 Q622.747 1529.47 620.641 1532.07 Q620.062 1532.74 616.96 1535.95 Q613.858 1539.15 608.21 1544.91 Z" fill="#000000" fill-rule="evenodd" fill-opacity="1" /><path clip-path="url(#clip440)" d="M903.666 1532.02 L933.342 1532.02 L933.342 1535.95 L903.666 1535.95 L903.666 1532.02 Z" fill="#000000" fill-rule="evenodd" fill-opacity="1" /><path clip-path="url(#clip440)" d="M944.244 1544.91 L951.883 1544.91 L951.883 1518.55 L943.573 1520.21 L943.573 1515.95 L951.837 1514.29 L956.513 1514.29 L956.513 1544.91 L964.152 1544.91 L964.152 1548.85 L944.244 1548.85 L944.244 1544.91 Z" fill="#000000" fill-rule="evenodd" fill-opacity="1" /><path clip-path="url(#clip440)" d="M1273.35 1517.37 Q1269.73 1517.37 1267.91 1520.93 Q1266.1 1524.47 1266.1 1531.6 Q1266.1 1538.71 1267.91 1542.27 Q1269.73 1545.82 1273.35 1545.82 Q1276.98 1545.82 1278.79 1542.27 Q1280.61 1538.71 1280.61 1531.6 Q1280.61 1524.47 1278.79 1520.93 Q1276.98 1517.37 1273.35 1517.37 M1273.35 1513.66 Q1279.16 1513.66 1282.21 1518.27 Q1285.29 1522.85 1285.29 1531.6 Q1285.29 1540.33 1282.21 1544.94 Q1279.16 1549.52 1273.35 1549.52 Q1267.54 1549.52 1264.46 1544.94 Q1261.4 1540.33 1261.4 1531.6 Q1261.4 1522.85 1264.46 1518.27 Q1267.54 1513.66 1273.35 1513.66 Z" fill="#000000" fill-rule="evenodd" fill-opacity="1" /><path clip-path="url(#clip440)" d="M1603.17 1544.91 L1610.8 1544.91 L1610.8 1518.55 L1602.49 1520.21 L1602.49 1515.95 L1610.76 1514.29 L1615.43 1514.29 L1615.43 1544.91 L1623.07 1544.91 L1623.07 1548.85 L1603.17 1548.85 L1603.17 1544.91 Z" fill="#000000" fill-rule="evenodd" fill-opacity="1" /><path clip-path="url(#clip440)" d="M1946.87 1544.91 L1963.19 1544.91 L1963.19 1548.85 L1941.25 1548.85 L1941.25 1544.91 Q1943.91 1542.16 1948.49 1537.53 Q1953.1 1532.88 1954.28 1531.53 Q1956.53 1529.01 1957.41 1527.27 Q1958.31 1525.51 1958.31 1523.82 Q1958.31 1521.07 1956.36 1519.33 Q1954.44 1517.6 1951.34 1517.6 Q1949.14 1517.6 1946.69 1518.36 Q1944.26 1519.13 1941.48 1520.68 L1941.48 1515.95 Q1944.3 1514.82 1946.76 1514.24 Q1949.21 1513.66 1951.25 1513.66 Q1956.62 1513.66 1959.81 1516.35 Q1963.01 1519.03 1963.01 1523.52 Q1963.01 1525.65 1962.2 1527.57 Q1961.41 1529.47 1959.3 1532.07 Q1958.72 1532.74 1955.62 1535.95 Q1952.52 1539.15 1946.87 1544.91 Z" fill="#000000" fill-rule="evenodd" fill-opacity="1" /><path clip-path="url(#clip440)" d="M2295.9 1530.21 Q2299.26 1530.93 2301.14 1533.2 Q2303.03 1535.47 2303.03 1538.8 Q2303.03 1543.92 2299.52 1546.72 Q2296 1549.52 2289.52 1549.52 Q2287.34 1549.52 2285.03 1549.08 Q2282.73 1548.66 2280.28 1547.81 L2280.28 1543.29 Q2282.22 1544.43 2284.54 1545.01 Q2286.85 1545.58 2289.38 1545.58 Q2293.78 1545.58 2296.07 1543.85 Q2298.38 1542.11 2298.38 1538.8 Q2298.38 1535.75 2296.23 1534.03 Q2294.1 1532.3 2290.28 1532.3 L2286.25 1532.3 L2286.25 1528.45 L2290.47 1528.45 Q2293.91 1528.45 2295.74 1527.09 Q2297.57 1525.7 2297.57 1523.11 Q2297.57 1520.45 2295.67 1519.03 Q2293.8 1517.6 2290.28 1517.6 Q2288.36 1517.6 2286.16 1518.01 Q2283.96 1518.43 2281.32 1519.31 L2281.32 1515.14 Q2283.98 1514.4 2286.3 1514.03 Q2288.64 1513.66 2290.7 1513.66 Q2296.02 1513.66 2299.12 1516.09 Q2302.22 1518.5 2302.22 1522.62 Q2302.22 1525.49 2300.58 1527.48 Q2298.94 1529.45 2295.9 1530.21 Z" fill="#000000" fill-rule="evenodd" fill-opacity="1" /><polyline clip-path="url(#clip442)" style="stroke:#000000; stroke-linecap:butt; stroke-linejoin:round; stroke-width:2; stroke-opacity:0.1; fill:none" points="
  193.936,1452.54 2352.76,1452.54 
  "/>
<polyline clip-path="url(#clip442)" style="stroke:#000000; stroke-linecap:butt; stroke-linejoin:round; stroke-width:2; stroke-opacity:0.1; fill:none" points="
  193.936,1111.39 2352.76,1111.39 
  "/>
<polyline clip-path="url(#clip442)" style="stroke:#000000; stroke-linecap:butt; stroke-linejoin:round; stroke-width:2; stroke-opacity:0.1; fill:none" points="
  193.936,770.228 2352.76,770.228 
  "/>
<polyline clip-path="url(#clip442)" style="stroke:#000000; stroke-linecap:butt; stroke-linejoin:round; stroke-width:2; stroke-opacity:0.1; fill:none" points="
  193.936,429.071 2352.76,429.071 
  "/>
<polyline clip-path="url(#clip442)" style="stroke:#000000; stroke-linecap:butt; stroke-linejoin:round; stroke-width:2; stroke-opacity:0.1; fill:none" points="
  193.936,87.9128 2352.76,87.9128 
  "/>
<polyline clip-path="url(#clip440)" style="stroke:#000000; stroke-linecap:butt; stroke-linejoin:round; stroke-width:4; stroke-opacity:1; fill:none" points="
  193.936,1486.45 193.936,47.2441 
  "/>
<polyline clip-path="url(#clip440)" style="stroke:#000000; stroke-linecap:butt; stroke-linejoin:round; stroke-width:4; stroke-opacity:1; fill:none" points="
  193.936,1452.54 212.834,1452.54 
  "/>
<polyline clip-path="url(#clip440)" style="stroke:#000000; stroke-linecap:butt; stroke-linejoin:round; stroke-width:4; stroke-opacity:1; fill:none" points="
  193.936,1111.39 212.834,1111.39 
  "/>
<polyline clip-path="url(#clip440)" style="stroke:#000000; stroke-linecap:butt; stroke-linejoin:round; stroke-width:4; stroke-opacity:1; fill:none" points="
  193.936,770.228 212.834,770.228 
  "/>
<polyline clip-path="url(#clip440)" style="stroke:#000000; stroke-linecap:butt; stroke-linejoin:round; stroke-width:4; stroke-opacity:1; fill:none" points="
  193.936,429.071 212.834,429.071 
  "/>
<polyline clip-path="url(#clip440)" style="stroke:#000000; stroke-linecap:butt; stroke-linejoin:round; stroke-width:4; stroke-opacity:1; fill:none" points="
  193.936,87.9128 212.834,87.9128 
  "/>
<path clip-path="url(#clip440)" d="M50.9921 1453 L80.6679 1453 L80.6679 1456.93 L50.9921 1456.93 L50.9921 1453 Z" fill="#000000" fill-rule="evenodd" fill-opacity="1" /><path clip-path="url(#clip440)" d="M91.5706 1465.89 L99.2095 1465.89 L99.2095 1439.52 L90.8993 1441.19 L90.8993 1436.93 L99.1632 1435.26 L103.839 1435.26 L103.839 1465.89 L111.478 1465.89 L111.478 1469.82 L91.5706 1469.82 L91.5706 1465.89 Z" fill="#000000" fill-rule="evenodd" fill-opacity="1" /><path clip-path="url(#clip440)" d="M120.922 1463.94 L125.807 1463.94 L125.807 1469.82 L120.922 1469.82 L120.922 1463.94 Z" fill="#000000" fill-rule="evenodd" fill-opacity="1" /><path clip-path="url(#clip440)" d="M145.992 1438.34 Q142.381 1438.34 140.552 1441.91 Q138.746 1445.45 138.746 1452.58 Q138.746 1459.69 140.552 1463.25 Q142.381 1466.79 145.992 1466.79 Q149.626 1466.79 151.431 1463.25 Q153.26 1459.69 153.26 1452.58 Q153.26 1445.45 151.431 1441.91 Q149.626 1438.34 145.992 1438.34 M145.992 1434.64 Q151.802 1434.64 154.857 1439.25 Q157.936 1443.83 157.936 1452.58 Q157.936 1461.31 154.857 1465.91 Q151.802 1470.5 145.992 1470.5 Q140.181 1470.5 137.103 1465.91 Q134.047 1461.31 134.047 1452.58 Q134.047 1443.83 137.103 1439.25 Q140.181 1434.64 145.992 1434.64 Z" fill="#000000" fill-rule="evenodd" fill-opacity="1" /><path clip-path="url(#clip440)" d="M51.9875 1111.84 L81.6633 1111.84 L81.6633 1115.77 L51.9875 1115.77 L51.9875 1111.84 Z" fill="#000000" fill-rule="evenodd" fill-opacity="1" /><path clip-path="url(#clip440)" d="M101.756 1097.18 Q98.1447 1097.18 96.316 1100.75 Q94.5104 1104.29 94.5104 1111.42 Q94.5104 1118.53 96.316 1122.09 Q98.1447 1125.63 101.756 1125.63 Q105.39 1125.63 107.196 1122.09 Q109.024 1118.53 109.024 1111.42 Q109.024 1104.29 107.196 1100.75 Q105.39 1097.18 101.756 1097.18 M101.756 1093.48 Q107.566 1093.48 110.621 1098.09 Q113.7 1102.67 113.7 1111.42 Q113.7 1120.15 110.621 1124.75 Q107.566 1129.34 101.756 1129.34 Q95.9456 1129.34 92.8669 1124.75 Q89.8114 1120.15 89.8114 1111.42 Q89.8114 1102.67 92.8669 1098.09 Q95.9456 1093.48 101.756 1093.48 Z" fill="#000000" fill-rule="evenodd" fill-opacity="1" /><path clip-path="url(#clip440)" d="M121.918 1122.79 L126.802 1122.79 L126.802 1128.67 L121.918 1128.67 L121.918 1122.79 Z" fill="#000000" fill-rule="evenodd" fill-opacity="1" /><path clip-path="url(#clip440)" d="M137.033 1094.11 L155.39 1094.11 L155.39 1098.04 L141.316 1098.04 L141.316 1106.51 Q142.334 1106.17 143.353 1106 Q144.371 1105.82 145.39 1105.82 Q151.177 1105.82 154.556 1108.99 Q157.936 1112.16 157.936 1117.58 Q157.936 1123.16 154.464 1126.26 Q150.992 1129.34 144.672 1129.34 Q142.496 1129.34 140.228 1128.97 Q137.982 1128.6 135.575 1127.86 L135.575 1123.16 Q137.658 1124.29 139.881 1124.85 Q142.103 1125.4 144.58 1125.4 Q148.584 1125.4 150.922 1123.3 Q153.26 1121.19 153.26 1117.58 Q153.26 1113.97 150.922 1111.86 Q148.584 1109.75 144.58 1109.75 Q142.705 1109.75 140.83 1110.17 Q138.978 1110.59 137.033 1111.47 L137.033 1094.11 Z" fill="#000000" fill-rule="evenodd" fill-opacity="1" /><path clip-path="url(#clip440)" d="M100.76 756.027 Q97.1493 756.027 95.3206 759.592 Q93.515 763.134 93.515 770.263 Q93.515 777.37 95.3206 780.934 Q97.1493 784.476 100.76 784.476 Q104.395 784.476 106.2 780.934 Q108.029 777.37 108.029 770.263 Q108.029 763.134 106.2 759.592 Q104.395 756.027 100.76 756.027 M100.76 752.323 Q106.571 752.323 109.626 756.93 Q112.705 761.513 112.705 770.263 Q112.705 778.99 109.626 783.596 Q106.571 788.18 100.76 788.18 Q94.9502 788.18 91.8715 783.596 Q88.816 778.99 88.816 770.263 Q88.816 761.513 91.8715 756.93 Q94.9502 752.323 100.76 752.323 Z" fill="#000000" fill-rule="evenodd" fill-opacity="1" /><path clip-path="url(#clip440)" d="M120.922 781.629 L125.807 781.629 L125.807 787.508 L120.922 787.508 L120.922 781.629 Z" fill="#000000" fill-rule="evenodd" fill-opacity="1" /><path clip-path="url(#clip440)" d="M145.992 756.027 Q142.381 756.027 140.552 759.592 Q138.746 763.134 138.746 770.263 Q138.746 777.37 140.552 780.934 Q142.381 784.476 145.992 784.476 Q149.626 784.476 151.431 780.934 Q153.26 777.37 153.26 770.263 Q153.26 763.134 151.431 759.592 Q149.626 756.027 145.992 756.027 M145.992 752.323 Q151.802 752.323 154.857 756.93 Q157.936 761.513 157.936 770.263 Q157.936 778.99 154.857 783.596 Q151.802 788.18 145.992 788.18 Q140.181 788.18 137.103 783.596 Q134.047 778.99 134.047 770.263 Q134.047 761.513 137.103 756.93 Q140.181 752.323 145.992 752.323 Z" fill="#000000" fill-rule="evenodd" fill-opacity="1" /><path clip-path="url(#clip440)" d="M101.756 414.869 Q98.1447 414.869 96.316 418.434 Q94.5104 421.976 94.5104 429.105 Q94.5104 436.212 96.316 439.777 Q98.1447 443.318 101.756 443.318 Q105.39 443.318 107.196 439.777 Q109.024 436.212 109.024 429.105 Q109.024 421.976 107.196 418.434 Q105.39 414.869 101.756 414.869 M101.756 411.166 Q107.566 411.166 110.621 415.772 Q113.7 420.355 113.7 429.105 Q113.7 437.832 110.621 442.439 Q107.566 447.022 101.756 447.022 Q95.9456 447.022 92.8669 442.439 Q89.8114 437.832 89.8114 429.105 Q89.8114 420.355 92.8669 415.772 Q95.9456 411.166 101.756 411.166 Z" fill="#000000" fill-rule="evenodd" fill-opacity="1" /><path clip-path="url(#clip440)" d="M121.918 440.471 L126.802 440.471 L126.802 446.351 L121.918 446.351 L121.918 440.471 Z" fill="#000000" fill-rule="evenodd" fill-opacity="1" /><path clip-path="url(#clip440)" d="M137.033 411.791 L155.39 411.791 L155.39 415.726 L141.316 415.726 L141.316 424.198 Q142.334 423.851 143.353 423.689 Q144.371 423.503 145.39 423.503 Q151.177 423.503 154.556 426.675 Q157.936 429.846 157.936 435.263 Q157.936 440.841 154.464 443.943 Q150.992 447.022 144.672 447.022 Q142.496 447.022 140.228 446.652 Q137.982 446.281 135.575 445.54 L135.575 440.841 Q137.658 441.976 139.881 442.531 Q142.103 443.087 144.58 443.087 Q148.584 443.087 150.922 440.98 Q153.26 438.874 153.26 435.263 Q153.26 431.652 150.922 429.545 Q148.584 427.439 144.58 427.439 Q142.705 427.439 140.83 427.855 Q138.978 428.272 137.033 429.152 L137.033 411.791 Z" fill="#000000" fill-rule="evenodd" fill-opacity="1" /><path clip-path="url(#clip440)" d="M91.5706 101.258 L99.2095 101.258 L99.2095 74.892 L90.8993 76.5587 L90.8993 72.2995 L99.1632 70.6328 L103.839 70.6328 L103.839 101.258 L111.478 101.258 L111.478 105.193 L91.5706 105.193 L91.5706 101.258 Z" fill="#000000" fill-rule="evenodd" fill-opacity="1" /><path clip-path="url(#clip440)" d="M120.922 99.3132 L125.807 99.3132 L125.807 105.193 L120.922 105.193 L120.922 99.3132 Z" fill="#000000" fill-rule="evenodd" fill-opacity="1" /><path clip-path="url(#clip440)" d="M145.992 73.7115 Q142.381 73.7115 140.552 77.2763 Q138.746 80.8179 138.746 87.9475 Q138.746 95.054 140.552 98.6188 Q142.381 102.16 145.992 102.16 Q149.626 102.16 151.431 98.6188 Q153.26 95.054 153.26 87.9475 Q153.26 80.8179 151.431 77.2763 Q149.626 73.7115 145.992 73.7115 M145.992 70.0078 Q151.802 70.0078 154.857 74.6143 Q157.936 79.1976 157.936 87.9475 Q157.936 96.6743 154.857 101.281 Q151.802 105.864 145.992 105.864 Q140.181 105.864 137.103 101.281 Q134.047 96.6743 134.047 87.9475 Q134.047 79.1976 137.103 74.6143 Q140.181 70.0078 145.992 70.0078 Z" fill="#000000" fill-rule="evenodd" fill-opacity="1" /><polyline clip-path="url(#clip442)" style="stroke:#009af9; stroke-linecap:butt; stroke-linejoin:round; stroke-width:12; stroke-opacity:1; fill:none" points="
  255.035,1365.85 481.326,1207.4 707.617,830.81 933.909,428.279 1160.2,172.179 1386.49,172.179 1612.78,428.279 1839.07,830.81 2065.37,1207.4 2291.66,1365.85 
  
  "/>
<circle clip-path="url(#clip442)" cx="255.035" cy="1365.85" r="14.4" fill="#009af9" fill-rule="evenodd" fill-opacity="1" stroke="#000000" stroke-opacity="1" stroke-width="3.2"/>
<circle clip-path="url(#clip442)" cx="481.326" cy="1207.4" r="14.4" fill="#009af9" fill-rule="evenodd" fill-opacity="1" stroke="#000000" stroke-opacity="1" stroke-width="3.2"/>
<circle clip-path="url(#clip442)" cx="707.617" cy="830.81" r="14.4" fill="#009af9" fill-rule="evenodd" fill-opacity="1" stroke="#000000" stroke-opacity="1" stroke-width="3.2"/>
<circle clip-path="url(#clip442)" cx="933.909" cy="428.279" r="14.4" fill="#009af9" fill-rule="evenodd" fill-opacity="1" stroke="#000000" stroke-opacity="1" stroke-width="3.2"/>
<circle clip-path="url(#clip442)" cx="1160.2" cy="172.179" r="14.4" fill="#009af9" fill-rule="evenodd" fill-opacity="1" stroke="#000000" stroke-opacity="1" stroke-width="3.2"/>
<circle clip-path="url(#clip442)" cx="1386.49" cy="172.179" r="14.4" fill="#009af9" fill-rule="evenodd" fill-opacity="1" stroke="#000000" stroke-opacity="1" stroke-width="3.2"/>
<circle clip-path="url(#clip442)" cx="1612.78" cy="428.279" r="14.4" fill="#009af9" fill-rule="evenodd" fill-opacity="1" stroke="#000000" stroke-opacity="1" stroke-width="3.2"/>
<circle clip-path="url(#clip442)" cx="1839.07" cy="830.81" r="14.4" fill="#009af9" fill-rule="evenodd" fill-opacity="1" stroke="#000000" stroke-opacity="1" stroke-width="3.2"/>
<circle clip-path="url(#clip442)" cx="2065.37" cy="1207.4" r="14.4" fill="#009af9" fill-rule="evenodd" fill-opacity="1" stroke="#000000" stroke-opacity="1" stroke-width="3.2"/>
<circle clip-path="url(#clip442)" cx="2291.66" cy="1365.85" r="14.4" fill="#009af9" fill-rule="evenodd" fill-opacity="1" stroke="#000000" stroke-opacity="1" stroke-width="3.2"/>
<polyline clip-path="url(#clip442)" style="stroke:#e26f46; stroke-linecap:butt; stroke-linejoin:round; stroke-width:12; stroke-opacity:1; fill:none" points="
  255.035,1445.72 258.35,1444.74 261.664,1443.71 264.979,1442.61 268.294,1441.44 283.62,1435.22 298.945,1427.65 314.27,1418.74 329.596,1408.5 344.921,1396.97 
  360.247,1384.16 375.572,1370.09 390.898,1354.81 409.318,1334.86 427.737,1313.25 446.157,1290.04 464.577,1265.3 480.151,1243.25 495.725,1220.2 511.299,1196.2 
  526.872,1171.3 560.707,1114.38 594.542,1054.04 625.735,995.905 656.928,935.863 723.812,803.076 801.304,647.983 835.737,580.633 870.17,515.233 900.364,460.018 
  930.558,407.257 947.018,379.678 963.478,353.017 979.938,327.337 996.398,302.698 1012.96,279.022 1029.51,256.514 1046.07,235.229 1062.63,215.216 1080.94,194.629 
  1099.24,175.715 1117.55,158.53 1135.86,143.124 1153.28,130.158 1170.69,118.877 1188.11,109.311 1205.53,101.485 1223.64,95.2147 1241.75,90.866 1259.86,88.4509 
  1277.98,87.9763 1293.22,89.0822 1308.47,91.562 1323.71,95.4106 1338.96,100.62 1357.57,108.811 1376.19,118.989 1394.8,131.126 1413.41,145.183 1430.46,159.711 
  1447.51,175.78 1464.57,193.348 1481.62,212.371 1497.36,231.192 1513.11,251.172 1528.86,272.27 1544.61,294.44 1560.56,317.94 1576.51,342.44 1592.46,367.884 
  1608.42,394.216 1644.17,456.165 1679.93,521.595 1712.33,583.287 1744.73,646.68 1818.92,795.126 1887.62,931.674 1921.48,996.898 1955.34,1059.87 1988.22,1118.26 
  2021.1,1173.38 2037.95,1200.2 2054.8,1225.97 2071.66,1250.6 2088.51,1274.06 2106.97,1298.33 2125.44,1321.04 2143.9,1342.12 2162.36,1361.5 2175.77,1374.49 
  2189.18,1386.54 2202.59,1397.62 2216,1407.72 2242.83,1424.93 2269.65,1438.06 2275.15,1440.24 2280.65,1442.24 2286.15,1444.07 2291.66,1445.72 
  "/>
<path clip-path="url(#clip440)" d="
M1988.5 250.738 L2280.8 250.738 L2280.8 95.2176 L1988.5 95.2176  Z
  " fill="#ffffff" fill-rule="evenodd" fill-opacity="1"/>
<polyline clip-path="url(#clip440)" style="stroke:#000000; stroke-linecap:butt; stroke-linejoin:round; stroke-width:4; stroke-opacity:1; fill:none" points="
  1988.5,250.738 2280.8,250.738 2280.8,95.2176 1988.5,95.2176 1988.5,250.738 
  "/>
<polyline clip-path="url(#clip440)" style="stroke:#009af9; stroke-linecap:butt; stroke-linejoin:round; stroke-width:4; stroke-opacity:1; fill:none" points="
  2012.48,147.058 2156.4,147.058 
  "/>
<circle clip-path="url(#clip440)" cx="2084.44" cy="147.058" r="23.04" fill="#009af9" fill-rule="evenodd" fill-opacity="1" stroke="#000000" stroke-opacity="1" stroke-width="5.12"/>
<path clip-path="url(#clip440)" d="M2194.23 166.745 Q2192.43 171.375 2190.72 172.787 Q2189 174.199 2186.13 174.199 L2182.73 174.199 L2182.73 170.634 L2185.23 170.634 Q2186.99 170.634 2187.96 169.8 Q2188.93 168.967 2190.11 165.865 L2190.88 163.921 L2180.39 138.412 L2184.91 138.412 L2193.01 158.689 L2201.11 138.412 L2205.62 138.412 L2194.23 166.745 Z" fill="#000000" fill-rule="evenodd" fill-opacity="1" /><path clip-path="url(#clip440)" d="M2212.91 160.402 L2220.55 160.402 L2220.55 134.037 L2212.24 135.703 L2212.24 131.444 L2220.51 129.778 L2225.18 129.778 L2225.18 160.402 L2232.82 160.402 L2232.82 164.338 L2212.91 164.338 L2212.91 160.402 Z" fill="#000000" fill-rule="evenodd" fill-opacity="1" /><polyline clip-path="url(#clip440)" style="stroke:#e26f46; stroke-linecap:butt; stroke-linejoin:round; stroke-width:4; stroke-opacity:1; fill:none" points="
  2012.48,198.898 2156.4,198.898 
  "/>
<path clip-path="url(#clip440)" d="M2194.23 218.585 Q2192.43 223.215 2190.72 224.627 Q2189 226.039 2186.13 226.039 L2182.73 226.039 L2182.73 222.474 L2185.23 222.474 Q2186.99 222.474 2187.96 221.64 Q2188.93 220.807 2190.11 217.705 L2190.88 215.761 L2180.39 190.252 L2184.91 190.252 L2193.01 210.529 L2201.11 190.252 L2205.62 190.252 L2194.23 218.585 Z" fill="#000000" fill-rule="evenodd" fill-opacity="1" /><path clip-path="url(#clip440)" d="M2216.13 212.242 L2232.45 212.242 L2232.45 216.178 L2210.51 216.178 L2210.51 212.242 Q2213.17 209.488 2217.75 204.858 Q2222.36 200.205 2223.54 198.863 Q2225.78 196.34 2226.66 194.604 Q2227.57 192.844 2227.57 191.155 Q2227.57 188.4 2225.62 186.664 Q2223.7 184.928 2220.6 184.928 Q2218.4 184.928 2215.95 185.692 Q2213.52 186.455 2210.74 188.006 L2210.74 183.284 Q2213.56 182.15 2216.02 181.571 Q2218.47 180.993 2220.51 180.993 Q2225.88 180.993 2229.07 183.678 Q2232.27 186.363 2232.27 190.854 Q2232.27 192.983 2231.46 194.905 Q2230.67 196.803 2228.56 199.395 Q2227.98 200.067 2224.88 203.284 Q2221.78 206.479 2216.13 212.242 Z" fill="#000000" fill-rule="evenodd" fill-opacity="1" /></svg>
