<?xml version="1.0" encoding="utf-8"?>
<svg xmlns="http://www.w3.org/2000/svg" xmlns:xlink="http://www.w3.org/1999/xlink" width="600" height="400" viewBox="0 0 2400 1600">
<defs>
  <clipPath id="clip170">
    <rect x="0" y="0" width="2400" height="1600"/>
  </clipPath>
</defs>
<path clip-path="url(#clip170)" d="
M0 1600 L2400 1600 L2400 0 L0 0  Z
  " fill="#ffffff" fill-rule="evenodd" fill-opacity="1"/>
<defs>
  <clipPath id="clip171">
    <rect x="480" y="0" width="1681" height="1600"/>
  </clipPath>
</defs>
<path clip-path="url(#clip170)" d="
M224.26 1486.45 L2352.76 1486.45 L2352.76 47.2441 L224.26 47.2441  Z
  " fill="#ffffff" fill-rule="evenodd" fill-opacity="1"/>
<defs>
  <clipPath id="clip172">
    <rect x="224" y="47" width="2129" height="1440"/>
  </clipPath>
</defs>
<polyline clip-path="url(#clip172)" style="stroke:#000000; stroke-linecap:butt; stroke-linejoin:round; stroke-width:2; stroke-opacity:0.1; fill:none" points="
  284.5,1486.45 284.5,47.2441 
  "/>
<polyline clip-path="url(#clip172)" style="stroke:#000000; stroke-linecap:butt; stroke-linejoin:round; stroke-width:2; stroke-opacity:0.1; fill:none" points="
  786.504,1486.45 786.504,47.2441 
  "/>
<polyline clip-path="url(#clip172)" style="stroke:#000000; stroke-linecap:butt; stroke-linejoin:round; stroke-width:2; stroke-opacity:0.1; fill:none" points="
  1288.51,1486.45 1288.51,47.2441 
  "/>
<polyline clip-path="url(#clip172)" style="stroke:#000000; stroke-linecap:butt; stroke-linejoin:round; stroke-width:2; stroke-opacity:0.1; fill:none" points="
  1790.51,1486.45 1790.51,47.2441 
  "/>
<polyline clip-path="url(#clip172)" style="stroke:#000000; stroke-linecap:butt; stroke-linejoin:round; stroke-width:2; stroke-opacity:0.1; fill:none" points="
  2292.52,1486.45 2292.52,47.2441 
  "/>
<polyline clip-path="url(#clip170)" style="stroke:#000000; stroke-linecap:butt; stroke-linejoin:round; stroke-width:4; stroke-opacity:1; fill:none" points="
  224.26,1486.45 2352.76,1486.45 
  "/>
<polyline clip-path="url(#clip170)" style="stroke:#000000; stroke-linecap:butt; stroke-linejoin:round; stroke-width:4; stroke-opacity:1; fill:none" points="
  284.5,1486.45 284.5,1467.55 
  "/>
<polyline clip-path="url(#clip170)" style="stroke:#000000; stroke-linecap:butt; stroke-linejoin:round; stroke-width:4; stroke-opacity:1; fill:none" points="
  786.504,1486.45 786.504,1467.55 
  "/>
<polyline clip-path="url(#clip170)" style="stroke:#000000; stroke-linecap:butt; stroke-linejoin:round; stroke-width:4; stroke-opacity:1; fill:none" points="
  1288.51,1486.45 1288.51,1467.55 
  "/>
<polyline clip-path="url(#clip170)" style="stroke:#000000; stroke-linecap:butt; stroke-linejoin:round; stroke-width:4; stroke-opacity:1; fill:none" points="
  1790.51,1486.45 1790.51,1467.55 
  "/>
<polyline clip-path="url(#clip170)" style="stroke:#000000; stroke-linecap:butt; stroke-linejoin:round; stroke-width:4; stroke-opacity:1; fill:none" points="
  2292.52,1486.45 2292.52,1467.55 
  "/>
<path clip-path="url(#clip170)" d="M231.028 1532.02 L260.704 1532.02 L260.704 1535.95 L231.028 1535.95 L231.028 1532.02 Z" fill="#000000" fill-rule="evenodd" fill-opacity="1" /><path clip-path="url(#clip170)" d="M271.607 1544.91 L279.246 1544.91 L279.246 1518.55 L270.936 1520.21 L270.936 1515.95 L279.199 1514.29 L283.875 1514.29 L283.875 1544.91 L291.514 1544.91 L291.514 1548.85 L271.607 1548.85 L271.607 1544.91 Z" fill="#000000" fill-rule="evenodd" fill-opacity="1" /><path clip-path="url(#clip170)" d="M300.959 1542.97 L305.843 1542.97 L305.843 1548.85 L300.959 1548.85 L300.959 1542.97 Z" fill="#000000" fill-rule="evenodd" fill-opacity="1" /><path clip-path="url(#clip170)" d="M326.028 1517.37 Q322.417 1517.37 320.588 1520.93 Q318.783 1524.47 318.783 1531.6 Q318.783 1538.71 320.588 1542.27 Q322.417 1545.82 326.028 1545.82 Q329.662 1545.82 331.468 1542.27 Q333.296 1538.71 333.296 1531.6 Q333.296 1524.47 331.468 1520.93 Q329.662 1517.37 326.028 1517.37 M326.028 1513.66 Q331.838 1513.66 334.894 1518.27 Q337.972 1522.85 337.972 1531.6 Q337.972 1540.33 334.894 1544.94 Q331.838 1549.52 326.028 1549.52 Q320.218 1549.52 317.139 1544.94 Q314.084 1540.33 314.084 1531.6 Q314.084 1522.85 317.139 1518.27 Q320.218 1513.66 326.028 1513.66 Z" fill="#000000" fill-rule="evenodd" fill-opacity="1" /><path clip-path="url(#clip170)" d="M733.53 1532.02 L763.206 1532.02 L763.206 1535.95 L733.53 1535.95 L733.53 1532.02 Z" fill="#000000" fill-rule="evenodd" fill-opacity="1" /><path clip-path="url(#clip170)" d="M783.298 1517.37 Q779.687 1517.37 777.858 1520.93 Q776.053 1524.47 776.053 1531.6 Q776.053 1538.71 777.858 1542.27 Q779.687 1545.82 783.298 1545.82 Q786.932 1545.82 788.738 1542.27 Q790.567 1538.71 790.567 1531.6 Q790.567 1524.47 788.738 1520.93 Q786.932 1517.37 783.298 1517.37 M783.298 1513.66 Q789.108 1513.66 792.164 1518.27 Q795.243 1522.85 795.243 1531.6 Q795.243 1540.33 792.164 1544.94 Q789.108 1549.52 783.298 1549.52 Q777.488 1549.52 774.409 1544.94 Q771.354 1540.33 771.354 1531.6 Q771.354 1522.85 774.409 1518.27 Q777.488 1513.66 783.298 1513.66 Z" fill="#000000" fill-rule="evenodd" fill-opacity="1" /><path clip-path="url(#clip170)" d="M803.46 1542.97 L808.344 1542.97 L808.344 1548.85 L803.46 1548.85 L803.46 1542.97 Z" fill="#000000" fill-rule="evenodd" fill-opacity="1" /><path clip-path="url(#clip170)" d="M818.576 1514.29 L836.932 1514.29 L836.932 1518.22 L822.858 1518.22 L822.858 1526.7 Q823.877 1526.35 824.895 1526.19 Q825.914 1526 826.932 1526 Q832.719 1526 836.099 1529.17 Q839.478 1532.34 839.478 1537.76 Q839.478 1543.34 836.006 1546.44 Q832.534 1549.52 826.215 1549.52 Q824.039 1549.52 821.77 1549.15 Q819.525 1548.78 817.117 1548.04 L817.117 1543.34 Q819.201 1544.47 821.423 1545.03 Q823.645 1545.58 826.122 1545.58 Q830.127 1545.58 832.465 1543.48 Q834.802 1541.37 834.802 1537.76 Q834.802 1534.15 832.465 1532.04 Q830.127 1529.94 826.122 1529.94 Q824.247 1529.94 822.372 1530.35 Q820.52 1530.77 818.576 1531.65 L818.576 1514.29 Z" fill="#000000" fill-rule="evenodd" fill-opacity="1" /><path clip-path="url(#clip170)" d="M1265.89 1517.37 Q1262.28 1517.37 1260.45 1520.93 Q1258.65 1524.47 1258.65 1531.6 Q1258.65 1538.71 1260.45 1542.27 Q1262.28 1545.82 1265.89 1545.82 Q1269.53 1545.82 1271.33 1542.27 Q1273.16 1538.71 1273.16 1531.6 Q1273.16 1524.47 1271.33 1520.93 Q1269.53 1517.37 1265.89 1517.37 M1265.89 1513.66 Q1271.7 1513.66 1274.76 1518.27 Q1277.84 1522.85 1277.84 1531.6 Q1277.84 1540.33 1274.76 1544.94 Q1271.7 1549.52 1265.89 1549.52 Q1260.08 1549.52 1257 1544.94 Q1253.95 1540.33 1253.95 1531.6 Q1253.95 1522.85 1257 1518.27 Q1260.08 1513.66 1265.89 1513.66 Z" fill="#000000" fill-rule="evenodd" fill-opacity="1" /><path clip-path="url(#clip170)" d="M1286.05 1542.97 L1290.94 1542.97 L1290.94 1548.85 L1286.05 1548.85 L1286.05 1542.97 Z" fill="#000000" fill-rule="evenodd" fill-opacity="1" /><path clip-path="url(#clip170)" d="M1311.12 1517.37 Q1307.51 1517.37 1305.68 1520.93 Q1303.88 1524.47 1303.88 1531.6 Q1303.88 1538.71 1305.68 1542.27 Q1307.51 1545.82 1311.12 1545.82 Q1314.76 1545.82 1316.56 1542.27 Q1318.39 1538.71 1318.39 1531.6 Q1318.39 1524.47 1316.56 1520.93 Q1314.76 1517.37 1311.12 1517.37 M1311.12 1513.66 Q1316.93 1513.66 1319.99 1518.27 Q1323.07 1522.85 1323.07 1531.6 Q1323.07 1540.33 1319.99 1544.94 Q1316.93 1549.52 1311.12 1549.52 Q1305.31 1549.52 1302.23 1544.94 Q1299.18 1540.33 1299.18 1531.6 Q1299.18 1522.85 1302.23 1518.27 Q1305.31 1513.66 1311.12 1513.66 Z" fill="#000000" fill-rule="evenodd" fill-opacity="1" /><path clip-path="url(#clip170)" d="M1768.39 1517.37 Q1764.78 1517.37 1762.95 1520.93 Q1761.15 1524.47 1761.15 1531.6 Q1761.15 1538.71 1762.95 1542.27 Q1764.78 1545.82 1768.39 1545.82 Q1772.03 1545.82 1773.83 1542.27 Q1775.66 1538.71 1775.66 1531.6 Q1775.66 1524.47 1773.83 1520.93 Q1772.03 1517.37 1768.39 1517.37 M1768.39 1513.66 Q1774.2 1513.66 1777.26 1518.27 Q1780.34 1522.85 1780.34 1531.6 Q1780.34 1540.33 1777.26 1544.94 Q1774.2 1549.52 1768.39 1549.52 Q1762.58 1549.52 1759.5 1544.94 Q1756.45 1540.33 1756.45 1531.6 Q1756.45 1522.85 1759.5 1518.27 Q1762.58 1513.66 1768.39 1513.66 Z" fill="#000000" fill-rule="evenodd" fill-opacity="1" /><path clip-path="url(#clip170)" d="M1788.56 1542.97 L1793.44 1542.97 L1793.44 1548.85 L1788.56 1548.85 L1788.56 1542.97 Z" fill="#000000" fill-rule="evenodd" fill-opacity="1" /><path clip-path="url(#clip170)" d="M1803.67 1514.29 L1822.03 1514.29 L1822.03 1518.22 L1807.95 1518.22 L1807.95 1526.7 Q1808.97 1526.35 1809.99 1526.19 Q1811.01 1526 1812.03 1526 Q1817.81 1526 1821.19 1529.17 Q1824.57 1532.34 1824.57 1537.76 Q1824.57 1543.34 1821.1 1546.44 Q1817.63 1549.52 1811.31 1549.52 Q1809.13 1549.52 1806.87 1549.15 Q1804.62 1548.78 1802.21 1548.04 L1802.21 1543.34 Q1804.3 1544.47 1806.52 1545.03 Q1808.74 1545.58 1811.22 1545.58 Q1815.22 1545.58 1817.56 1543.48 Q1819.9 1541.37 1819.9 1537.76 Q1819.9 1534.15 1817.56 1532.04 Q1815.22 1529.94 1811.22 1529.94 Q1809.34 1529.94 1807.47 1530.35 Q1805.62 1530.77 1803.67 1531.65 L1803.67 1514.29 Z" fill="#000000" fill-rule="evenodd" fill-opacity="1" /><path clip-path="url(#clip170)" d="M2259.67 1544.91 L2267.31 1544.91 L2267.31 1518.55 L2259 1520.21 L2259 1515.95 L2267.26 1514.29 L2271.94 1514.29 L2271.94 1544.91 L2279.58 1544.91 L2279.58 1548.85 L2259.67 1548.85 L2259.67 1544.91 Z" fill="#000000" fill-rule="evenodd" fill-opacity="1" /><path clip-path="url(#clip170)" d="M2289.02 1542.97 L2293.9 1542.97 L2293.9 1548.85 L2289.02 1548.85 L2289.02 1542.97 Z" fill="#000000" fill-rule="evenodd" fill-opacity="1" /><path clip-path="url(#clip170)" d="M2314.09 1517.37 Q2310.48 1517.37 2308.65 1520.93 Q2306.84 1524.47 2306.84 1531.6 Q2306.84 1538.71 2308.65 1542.27 Q2310.48 1545.82 2314.09 1545.82 Q2317.72 1545.82 2319.53 1542.27 Q2321.36 1538.71 2321.36 1531.6 Q2321.36 1524.47 2319.53 1520.93 Q2317.72 1517.37 2314.09 1517.37 M2314.09 1513.66 Q2319.9 1513.66 2322.96 1518.27 Q2326.03 1522.85 2326.03 1531.6 Q2326.03 1540.33 2322.96 1544.94 Q2319.9 1549.52 2314.09 1549.52 Q2308.28 1549.52 2305.2 1544.94 Q2302.15 1540.33 2302.15 1531.6 Q2302.15 1522.85 2305.2 1518.27 Q2308.28 1513.66 2314.09 1513.66 Z" fill="#000000" fill-rule="evenodd" fill-opacity="1" /><polyline clip-path="url(#clip172)" style="stroke:#000000; stroke-linecap:butt; stroke-linejoin:round; stroke-width:2; stroke-opacity:0.1; fill:none" points="
  224.26,1264.89 2352.76,1264.89 
  "/>
<polyline clip-path="url(#clip172)" style="stroke:#000000; stroke-linecap:butt; stroke-linejoin:round; stroke-width:2; stroke-opacity:0.1; fill:none" points="
  224.26,1015.87 2352.76,1015.87 
  "/>
<polyline clip-path="url(#clip172)" style="stroke:#000000; stroke-linecap:butt; stroke-linejoin:round; stroke-width:2; stroke-opacity:0.1; fill:none" points="
  224.26,766.846 2352.76,766.846 
  "/>
<polyline clip-path="url(#clip172)" style="stroke:#000000; stroke-linecap:butt; stroke-linejoin:round; stroke-width:2; stroke-opacity:0.1; fill:none" points="
  224.26,517.826 2352.76,517.826 
  "/>
<polyline clip-path="url(#clip172)" style="stroke:#000000; stroke-linecap:butt; stroke-linejoin:round; stroke-width:2; stroke-opacity:0.1; fill:none" points="
  224.26,268.806 2352.76,268.806 
  "/>
<polyline clip-path="url(#clip170)" style="stroke:#000000; stroke-linecap:butt; stroke-linejoin:round; stroke-width:4; stroke-opacity:1; fill:none" points="
  224.26,1486.45 224.26,47.2441 
  "/>
<polyline clip-path="url(#clip170)" style="stroke:#000000; stroke-linecap:butt; stroke-linejoin:round; stroke-width:4; stroke-opacity:1; fill:none" points="
  224.26,1264.89 243.158,1264.89 
  "/>
<polyline clip-path="url(#clip170)" style="stroke:#000000; stroke-linecap:butt; stroke-linejoin:round; stroke-width:4; stroke-opacity:1; fill:none" points="
  224.26,1015.87 243.158,1015.87 
  "/>
<polyline clip-path="url(#clip170)" style="stroke:#000000; stroke-linecap:butt; stroke-linejoin:round; stroke-width:4; stroke-opacity:1; fill:none" points="
  224.26,766.846 243.158,766.846 
  "/>
<polyline clip-path="url(#clip170)" style="stroke:#000000; stroke-linecap:butt; stroke-linejoin:round; stroke-width:4; stroke-opacity:1; fill:none" points="
  224.26,517.826 243.158,517.826 
  "/>
<polyline clip-path="url(#clip170)" style="stroke:#000000; stroke-linecap:butt; stroke-linejoin:round; stroke-width:4; stroke-opacity:1; fill:none" points="
  224.26,268.806 243.158,268.806 
  "/>
<path clip-path="url(#clip170)" d="M50.9921 1265.34 L80.6679 1265.34 L80.6679 1269.27 L50.9921 1269.27 L50.9921 1265.34 Z" fill="#000000" fill-rule="evenodd" fill-opacity="1" /><path clip-path="url(#clip170)" d="M100.76 1250.68 Q97.1493 1250.68 95.3206 1254.25 Q93.515 1257.79 93.515 1264.92 Q93.515 1272.03 95.3206 1275.59 Q97.1493 1279.13 100.76 1279.13 Q104.395 1279.13 106.2 1275.59 Q108.029 1272.03 108.029 1264.92 Q108.029 1257.79 106.2 1254.25 Q104.395 1250.68 100.76 1250.68 M100.76 1246.98 Q106.571 1246.98 109.626 1251.59 Q112.705 1256.17 112.705 1264.92 Q112.705 1273.65 109.626 1278.25 Q106.571 1282.84 100.76 1282.84 Q94.9502 1282.84 91.8715 1278.25 Q88.816 1273.65 88.816 1264.92 Q88.816 1256.17 91.8715 1251.59 Q94.9502 1246.98 100.76 1246.98 Z" fill="#000000" fill-rule="evenodd" fill-opacity="1" /><path clip-path="url(#clip170)" d="M120.922 1276.29 L125.807 1276.29 L125.807 1282.17 L120.922 1282.17 L120.922 1276.29 Z" fill="#000000" fill-rule="evenodd" fill-opacity="1" /><path clip-path="url(#clip170)" d="M145.992 1250.68 Q142.381 1250.68 140.552 1254.25 Q138.746 1257.79 138.746 1264.92 Q138.746 1272.03 140.552 1275.59 Q142.381 1279.13 145.992 1279.13 Q149.626 1279.13 151.431 1275.59 Q153.26 1272.03 153.26 1264.92 Q153.26 1257.79 151.431 1254.25 Q149.626 1250.68 145.992 1250.68 M145.992 1246.98 Q151.802 1246.98 154.857 1251.59 Q157.936 1256.17 157.936 1264.92 Q157.936 1273.65 154.857 1278.25 Q151.802 1282.84 145.992 1282.84 Q140.181 1282.84 137.103 1278.25 Q134.047 1273.65 134.047 1264.92 Q134.047 1256.17 137.103 1251.59 Q140.181 1246.98 145.992 1246.98 Z" fill="#000000" fill-rule="evenodd" fill-opacity="1" /><path clip-path="url(#clip170)" d="M176.732 1263.02 Q173.584 1263.02 171.732 1265.18 Q169.904 1267.33 169.904 1271.08 Q169.904 1274.8 171.732 1276.98 Q173.584 1279.13 176.732 1279.13 Q179.88 1279.13 181.709 1276.98 Q183.561 1274.8 183.561 1271.08 Q183.561 1267.33 181.709 1265.18 Q179.88 1263.02 176.732 1263.02 M186.015 1248.37 L186.015 1252.63 Q184.255 1251.8 182.45 1251.36 Q180.667 1250.92 178.908 1250.92 Q174.279 1250.92 171.825 1254.04 Q169.394 1257.17 169.047 1263.49 Q170.413 1261.47 172.473 1260.41 Q174.533 1259.32 177.01 1259.32 Q182.218 1259.32 185.228 1262.49 Q188.26 1265.64 188.26 1271.08 Q188.26 1276.4 185.112 1279.62 Q181.964 1282.84 176.732 1282.84 Q170.737 1282.84 167.566 1278.25 Q164.394 1273.65 164.394 1264.92 Q164.394 1256.73 168.283 1251.87 Q172.172 1246.98 178.723 1246.98 Q180.482 1246.98 182.265 1247.33 Q184.07 1247.68 186.015 1248.37 Z" fill="#000000" fill-rule="evenodd" fill-opacity="1" /><path clip-path="url(#clip170)" d="M51.8023 1016.32 L81.4781 1016.32 L81.4781 1020.25 L51.8023 1020.25 L51.8023 1016.32 Z" fill="#000000" fill-rule="evenodd" fill-opacity="1" /><path clip-path="url(#clip170)" d="M101.571 1001.66 Q97.9595 1001.66 96.1308 1005.23 Q94.3252 1008.77 94.3252 1015.9 Q94.3252 1023.01 96.1308 1026.57 Q97.9595 1030.11 101.571 1030.11 Q105.205 1030.11 107.01 1026.57 Q108.839 1023.01 108.839 1015.9 Q108.839 1008.77 107.01 1005.23 Q105.205 1001.66 101.571 1001.66 M101.571 997.961 Q107.381 997.961 110.436 1002.57 Q113.515 1007.15 113.515 1015.9 Q113.515 1024.63 110.436 1029.23 Q107.381 1033.82 101.571 1033.82 Q95.7604 1033.82 92.6817 1029.23 Q89.6262 1024.63 89.6262 1015.9 Q89.6262 1007.15 92.6817 1002.57 Q95.7604 997.961 101.571 997.961 Z" fill="#000000" fill-rule="evenodd" fill-opacity="1" /><path clip-path="url(#clip170)" d="M121.732 1027.27 L126.617 1027.27 L126.617 1033.15 L121.732 1033.15 L121.732 1027.27 Z" fill="#000000" fill-rule="evenodd" fill-opacity="1" /><path clip-path="url(#clip170)" d="M146.802 1001.66 Q143.191 1001.66 141.362 1005.23 Q139.556 1008.77 139.556 1015.9 Q139.556 1023.01 141.362 1026.57 Q143.191 1030.11 146.802 1030.11 Q150.436 1030.11 152.242 1026.57 Q154.07 1023.01 154.07 1015.9 Q154.07 1008.77 152.242 1005.23 Q150.436 1001.66 146.802 1001.66 M146.802 997.961 Q152.612 997.961 155.667 1002.57 Q158.746 1007.15 158.746 1015.9 Q158.746 1024.63 155.667 1029.23 Q152.612 1033.82 146.802 1033.82 Q140.992 1033.82 137.913 1029.23 Q134.857 1024.63 134.857 1015.9 Q134.857 1007.15 137.913 1002.57 Q140.992 997.961 146.802 997.961 Z" fill="#000000" fill-rule="evenodd" fill-opacity="1" /><path clip-path="url(#clip170)" d="M181.13 1014.51 Q184.487 1015.23 186.362 1017.5 Q188.26 1019.77 188.26 1023.1 Q188.26 1028.22 184.741 1031.02 Q181.223 1033.82 174.741 1033.82 Q172.566 1033.82 170.251 1033.38 Q167.959 1032.96 165.505 1032.1 L165.505 1027.59 Q167.45 1028.72 169.765 1029.3 Q172.079 1029.88 174.603 1029.88 Q179.001 1029.88 181.292 1028.15 Q183.607 1026.41 183.607 1023.1 Q183.607 1020.04 181.454 1018.33 Q179.325 1016.6 175.505 1016.6 L171.478 1016.6 L171.478 1012.75 L175.691 1012.75 Q179.14 1012.75 180.968 1011.39 Q182.797 1010 182.797 1007.41 Q182.797 1004.74 180.899 1003.33 Q179.024 1001.9 175.505 1001.9 Q173.584 1001.9 171.385 1002.31 Q169.186 1002.73 166.547 1003.61 L166.547 999.442 Q169.209 998.702 171.524 998.331 Q173.862 997.961 175.922 997.961 Q181.246 997.961 184.348 1000.39 Q187.45 1002.8 187.45 1006.92 Q187.45 1009.79 185.806 1011.78 Q184.163 1013.75 181.13 1014.51 Z" fill="#000000" fill-rule="evenodd" fill-opacity="1" /><path clip-path="url(#clip170)" d="M100.922 752.645 Q97.3113 752.645 95.4826 756.209 Q93.6771 759.751 93.6771 766.881 Q93.6771 773.987 95.4826 777.552 Q97.3113 781.094 100.922 781.094 Q104.557 781.094 106.362 777.552 Q108.191 773.987 108.191 766.881 Q108.191 759.751 106.362 756.209 Q104.557 752.645 100.922 752.645 M100.922 748.941 Q106.733 748.941 109.788 753.547 Q112.867 758.131 112.867 766.881 Q112.867 775.608 109.788 780.214 Q106.733 784.797 100.922 784.797 Q95.1123 784.797 92.0336 780.214 Q88.978 775.608 88.978 766.881 Q88.978 758.131 92.0336 753.547 Q95.1123 748.941 100.922 748.941 Z" fill="#000000" fill-rule="evenodd" fill-opacity="1" /><path clip-path="url(#clip170)" d="M121.084 778.246 L125.969 778.246 L125.969 784.126 L121.084 784.126 L121.084 778.246 Z" fill="#000000" fill-rule="evenodd" fill-opacity="1" /><path clip-path="url(#clip170)" d="M146.154 752.645 Q142.543 752.645 140.714 756.209 Q138.908 759.751 138.908 766.881 Q138.908 773.987 140.714 777.552 Q142.543 781.094 146.154 781.094 Q149.788 781.094 151.593 777.552 Q153.422 773.987 153.422 766.881 Q153.422 759.751 151.593 756.209 Q149.788 752.645 146.154 752.645 M146.154 748.941 Q151.964 748.941 155.019 753.547 Q158.098 758.131 158.098 766.881 Q158.098 775.608 155.019 780.214 Q151.964 784.797 146.154 784.797 Q140.343 784.797 137.265 780.214 Q134.209 775.608 134.209 766.881 Q134.209 758.131 137.265 753.547 Q140.343 748.941 146.154 748.941 Z" fill="#000000" fill-rule="evenodd" fill-opacity="1" /><path clip-path="url(#clip170)" d="M176.316 752.645 Q172.704 752.645 170.876 756.209 Q169.07 759.751 169.07 766.881 Q169.07 773.987 170.876 777.552 Q172.704 781.094 176.316 781.094 Q179.95 781.094 181.755 777.552 Q183.584 773.987 183.584 766.881 Q183.584 759.751 181.755 756.209 Q179.95 752.645 176.316 752.645 M176.316 748.941 Q182.126 748.941 185.181 753.547 Q188.26 758.131 188.26 766.881 Q188.26 775.608 185.181 780.214 Q182.126 784.797 176.316 784.797 Q170.505 784.797 167.427 780.214 Q164.371 775.608 164.371 766.881 Q164.371 758.131 167.427 753.547 Q170.505 748.941 176.316 748.941 Z" fill="#000000" fill-rule="evenodd" fill-opacity="1" /><path clip-path="url(#clip170)" d="M101.571 503.625 Q97.9595 503.625 96.1308 507.189 Q94.3252 510.731 94.3252 517.861 Q94.3252 524.967 96.1308 528.532 Q97.9595 532.074 101.571 532.074 Q105.205 532.074 107.01 528.532 Q108.839 524.967 108.839 517.861 Q108.839 510.731 107.01 507.189 Q105.205 503.625 101.571 503.625 M101.571 499.921 Q107.381 499.921 110.436 504.527 Q113.515 509.111 113.515 517.861 Q113.515 526.587 110.436 531.194 Q107.381 535.777 101.571 535.777 Q95.7604 535.777 92.6817 531.194 Q89.6262 526.587 89.6262 517.861 Q89.6262 509.111 92.6817 504.527 Q95.7604 499.921 101.571 499.921 Z" fill="#000000" fill-rule="evenodd" fill-opacity="1" /><path clip-path="url(#clip170)" d="M121.732 529.226 L126.617 529.226 L126.617 535.106 L121.732 535.106 L121.732 529.226 Z" fill="#000000" fill-rule="evenodd" fill-opacity="1" /><path clip-path="url(#clip170)" d="M146.802 503.625 Q143.191 503.625 141.362 507.189 Q139.556 510.731 139.556 517.861 Q139.556 524.967 141.362 528.532 Q143.191 532.074 146.802 532.074 Q150.436 532.074 152.242 528.532 Q154.07 524.967 154.07 517.861 Q154.07 510.731 152.242 507.189 Q150.436 503.625 146.802 503.625 M146.802 499.921 Q152.612 499.921 155.667 504.527 Q158.746 509.111 158.746 517.861 Q158.746 526.587 155.667 531.194 Q152.612 535.777 146.802 535.777 Q140.992 535.777 137.913 531.194 Q134.857 526.587 134.857 517.861 Q134.857 509.111 137.913 504.527 Q140.992 499.921 146.802 499.921 Z" fill="#000000" fill-rule="evenodd" fill-opacity="1" /><path clip-path="url(#clip170)" d="M181.13 516.472 Q184.487 517.189 186.362 519.458 Q188.26 521.726 188.26 525.06 Q188.26 530.175 184.741 532.976 Q181.223 535.777 174.741 535.777 Q172.566 535.777 170.251 535.337 Q167.959 534.921 165.505 534.064 L165.505 529.55 Q167.45 530.685 169.765 531.263 Q172.079 531.842 174.603 531.842 Q179.001 531.842 181.292 530.106 Q183.607 528.37 183.607 525.06 Q183.607 522.004 181.454 520.291 Q179.325 518.555 175.505 518.555 L171.478 518.555 L171.478 514.713 L175.691 514.713 Q179.14 514.713 180.968 513.347 Q182.797 511.958 182.797 509.365 Q182.797 506.703 180.899 505.291 Q179.024 503.856 175.505 503.856 Q173.584 503.856 171.385 504.273 Q169.186 504.689 166.547 505.569 L166.547 501.402 Q169.209 500.662 171.524 500.291 Q173.862 499.921 175.922 499.921 Q181.246 499.921 184.348 502.352 Q187.45 504.759 187.45 508.879 Q187.45 511.75 185.806 513.74 Q184.163 515.708 181.13 516.472 Z" fill="#000000" fill-rule="evenodd" fill-opacity="1" /><path clip-path="url(#clip170)" d="M100.76 254.605 Q97.1493 254.605 95.3206 258.169 Q93.515 261.711 93.515 268.841 Q93.515 275.947 95.3206 279.512 Q97.1493 283.054 100.76 283.054 Q104.395 283.054 106.2 279.512 Q108.029 275.947 108.029 268.841 Q108.029 261.711 106.2 258.169 Q104.395 254.605 100.76 254.605 M100.76 250.901 Q106.571 250.901 109.626 255.507 Q112.705 260.091 112.705 268.841 Q112.705 277.567 109.626 282.174 Q106.571 286.757 100.76 286.757 Q94.9502 286.757 91.8715 282.174 Q88.816 277.567 88.816 268.841 Q88.816 260.091 91.8715 255.507 Q94.9502 250.901 100.76 250.901 Z" fill="#000000" fill-rule="evenodd" fill-opacity="1" /><path clip-path="url(#clip170)" d="M120.922 280.206 L125.807 280.206 L125.807 286.086 L120.922 286.086 L120.922 280.206 Z" fill="#000000" fill-rule="evenodd" fill-opacity="1" /><path clip-path="url(#clip170)" d="M145.992 254.605 Q142.381 254.605 140.552 258.169 Q138.746 261.711 138.746 268.841 Q138.746 275.947 140.552 279.512 Q142.381 283.054 145.992 283.054 Q149.626 283.054 151.431 279.512 Q153.26 275.947 153.26 268.841 Q153.26 261.711 151.431 258.169 Q149.626 254.605 145.992 254.605 M145.992 250.901 Q151.802 250.901 154.857 255.507 Q157.936 260.091 157.936 268.841 Q157.936 277.567 154.857 282.174 Q151.802 286.757 145.992 286.757 Q140.181 286.757 137.103 282.174 Q134.047 277.567 134.047 268.841 Q134.047 260.091 137.103 255.507 Q140.181 250.901 145.992 250.901 Z" fill="#000000" fill-rule="evenodd" fill-opacity="1" /><path clip-path="url(#clip170)" d="M176.732 266.943 Q173.584 266.943 171.732 269.095 Q169.904 271.248 169.904 274.998 Q169.904 278.725 171.732 280.901 Q173.584 283.054 176.732 283.054 Q179.88 283.054 181.709 280.901 Q183.561 278.725 183.561 274.998 Q183.561 271.248 181.709 269.095 Q179.88 266.943 176.732 266.943 M186.015 252.29 L186.015 256.549 Q184.255 255.716 182.45 255.276 Q180.667 254.836 178.908 254.836 Q174.279 254.836 171.825 257.961 Q169.394 261.086 169.047 267.405 Q170.413 265.392 172.473 264.327 Q174.533 263.239 177.01 263.239 Q182.218 263.239 185.228 266.41 Q188.26 269.558 188.26 274.998 Q188.26 280.322 185.112 283.54 Q181.964 286.757 176.732 286.757 Q170.737 286.757 167.566 282.174 Q164.394 277.567 164.394 268.841 Q164.394 260.646 168.283 255.785 Q172.172 250.901 178.723 250.901 Q180.482 250.901 182.265 251.248 Q184.07 251.595 186.015 252.29 Z" fill="#000000" fill-rule="evenodd" fill-opacity="1" /><polyline clip-path="url(#clip172)" style="stroke:#009af9; stroke-linecap:butt; stroke-linejoin:round; stroke-width:12; stroke-opacity:1; fill:none" points="
  284.5,766.846 291.216,752.581 297.932,795.37 304.648,724.076 311.363,823.843 318.079,695.647 324.795,852.215 331.511,667.344 338.227,880.437 344.942,639.216 
  351.658,908.458 358.374,611.314 365.09,936.229 371.805,583.687 378.521,963.701 385.237,556.383 391.953,990.825 398.668,529.45 405.384,1017.55 412.1,502.937 
  418.816,1043.84 425.532,476.89 432.247,1069.64 438.963,451.355 445.679,1094.9 452.395,426.377 459.11,1119.58 465.826,402.001 472.542,1143.64 479.258,378.269 
  485.973,1167.03 492.689,355.223 499.405,1189.72 506.121,332.904 512.837,1211.66 519.552,311.352 526.268,1232.82 532.984,290.604 539.7,1253.15 546.415,270.697 
  553.131,1272.62 559.847,251.666 566.563,1291.2 573.278,233.545 579.994,1308.86 586.71,216.366 593.426,1325.55 600.142,200.159 606.857,1341.26 613.573,184.953 
  620.289,1355.96 627.005,170.775 633.72,1369.61 640.436,157.65 647.152,1382.2 653.868,145.6 660.583,1393.71 667.299,134.647 674.015,1404.1 680.731,124.811 
  687.447,1413.37 694.162,116.109 700.878,1421.5 707.594,108.557 714.31,1428.48 721.025,102.166 727.741,1434.28 734.457,96.9499 741.173,1438.91 747.888,92.9167 
  754.604,1442.35 761.32,90.0737 768.036,1444.59 774.752,88.4259 781.467,1445.64 788.183,87.9763 794.899,1445.49 801.615,88.7256 808.33,1444.14 815.046,90.6725 
  821.762,1441.6 828.478,93.8137 835.193,1437.86 841.909,98.1434 848.625,1432.94 855.341,103.654 862.057,1426.84 868.772,110.336 875.488,1419.58 882.204,118.178 
  888.92,1411.16 895.635,127.165 902.351,1401.61 909.067,137.282 915.783,1390.93 922.498,148.51 929.214,1379.16 935.93,160.831 942.646,1366.3 949.362,174.222 
  956.077,1352.38 962.793,188.66 969.509,1337.43 976.225,204.118 982.94,1321.47 989.656,220.571 996.372,1304.53 1003.09,237.988 1009.8,1286.64 1016.52,256.34 
  1023.24,1267.84 1029.95,275.593 1036.67,1248.15 1043.38,295.713 1050.1,1227.6 1056.81,316.666 1063.53,1206.25 1070.25,338.414 1076.96,1184.12 1083.68,360.918 
  1090.39,1161.25 1097.11,384.139 1103.82,1137.69 1110.54,408.036 1117.26,1113.47 1123.97,432.567 1130.69,1088.64 1137.4,457.688 1144.12,1063.24 1150.83,483.356 
  1157.55,1037.31 1164.27,509.523 1170.98,1010.91 1177.7,536.146 1184.41,984.079 1191.13,563.176 1197.85,956.864 1204.56,590.565 1211.28,929.312 1217.99,618.266 
  1224.71,901.474 1231.42,646.229 1238.14,873.398 1244.86,674.405 1251.57,845.134 1258.29,702.745 1265,816.732 1271.72,731.197 1278.43,788.241 1285.15,759.713 
  1291.87,759.713 1298.58,788.241 1305.3,731.197 1312.01,816.732 1318.73,702.745 1325.44,845.134 1332.16,674.405 1338.88,873.398 1345.59,646.229 1352.31,901.474 
  1359.02,618.266 1365.74,929.312 1372.46,590.565 1379.17,956.864 1385.89,563.176 1392.6,984.079 1399.32,536.146 1406.03,1010.91 1412.75,509.523 1419.47,1037.31 
  1426.18,483.356 1432.9,1063.24 1439.61,457.688 1446.33,1088.64 1453.04,432.567 1459.76,1113.47 1466.48,408.036 1473.19,1137.69 1479.91,384.139 1486.62,1161.25 
  1493.34,360.918 1500.05,1184.12 1506.77,338.414 1513.49,1206.25 1520.2,316.666 1526.92,1227.6 1533.63,295.713 1540.35,1248.15 1547.07,275.593 1553.78,1267.84 
  1560.5,256.34 1567.21,1286.64 1573.93,237.988 1580.64,1304.53 1587.36,220.571 1594.08,1321.47 1600.79,204.118 1607.51,1337.43 1614.22,188.66 1620.94,1352.38 
  1627.65,174.222 1634.37,1366.3 1641.09,160.831 1647.8,1379.16 1654.52,148.51 1661.23,1390.93 1667.95,137.282 1674.66,1401.61 1681.38,127.165 1688.1,1411.16 
  1694.81,118.178 1701.53,1419.58 1708.24,110.336 1714.96,1426.84 1721.68,103.654 1728.39,1432.94 1735.11,98.1434 1741.82,1437.86 1748.54,93.8137 1755.25,1441.6 
  1761.97,90.6725 1768.69,1444.14 1775.4,88.7256 1782.12,1445.49 1788.83,87.9763 1795.55,1445.64 1802.26,88.4259 1808.98,1444.59 1815.7,90.0737 1822.41,1442.35 
  1829.13,92.9167 1835.84,1438.91 1842.56,96.9499 1849.27,1434.28 1855.99,102.166 1862.71,1428.48 1869.42,108.557 1876.14,1421.5 1882.85,116.109 1889.57,1413.37 
  1896.29,124.811 1903,1404.1 1909.72,134.647 1916.43,1393.71 1923.15,145.6 1929.86,1382.2 1936.58,157.65 1943.3,1369.61 1950.01,170.775 1956.73,1355.96 
  1963.44,184.953 1970.16,1341.26 1976.87,200.159 1983.59,1325.55 1990.31,216.366 1997.02,1308.86 2003.74,233.545 2010.45,1291.2 2017.17,251.666 2023.88,1272.62 
  2030.6,270.697 2037.32,1253.15 2044.03,290.604 2050.75,1232.82 2057.46,311.352 2064.18,1211.66 2070.9,332.904 2077.61,1189.72 2084.33,355.223 2091.04,1167.03 
  2097.76,378.269 2104.47,1143.64 2111.19,402.001 2117.91,1119.58 2124.62,426.377 2131.34,1094.9 2138.05,451.355 2144.77,1069.64 2151.48,476.89 2158.2,1043.84 
  2164.92,502.937 2171.63,1017.55 2178.35,529.45 2185.06,990.825 2191.78,556.383 2198.49,963.701 2205.21,583.687 2211.93,936.229 2218.64,611.314 2225.36,908.458 
  2232.07,639.216 2238.79,880.437 2245.51,667.344 2252.22,852.215 2258.94,695.647 2265.65,823.843 2272.37,724.076 2279.08,795.37 2285.8,752.581 2292.52,766.846 
  
  "/>
<polyline clip-path="url(#clip172)" style="stroke:#e26f46; stroke-linecap:butt; stroke-linejoin:round; stroke-width:12; stroke-opacity:1; fill:none" points="
  284.5,766.846 291.216,759.713 297.932,781.111 304.648,745.451 311.363,795.37 318.079,731.197 324.795,809.616 331.511,716.96 338.227,823.843 344.942,702.745 
  351.658,838.045 358.374,688.558 365.09,852.215 371.805,674.405 378.521,866.348 385.237,660.294 391.953,880.437 398.668,646.229 405.384,894.476 412.1,632.218 
  418.816,908.458 425.532,618.266 432.247,922.378 438.963,604.38 445.679,936.229 452.395,590.565 459.11,950.005 465.826,576.828 472.542,963.701 479.258,563.176 
  485.973,977.309 492.689,549.613 499.405,990.825 506.121,536.146 512.837,1004.24 519.552,522.781 526.268,1017.55 532.984,509.523 539.7,1030.75 546.415,496.38 
  553.131,1043.84 559.847,483.356 566.563,1056.8 573.278,470.457 579.994,1069.64 586.71,457.688 593.426,1082.34 600.142,445.057 606.857,1094.9 613.573,432.567 
  620.289,1107.31 627.005,420.225 633.72,1119.58 640.436,408.036 647.152,1131.69 653.868,396.006 660.583,1143.64 667.299,384.139 674.015,1155.42 680.731,372.441 
  687.447,1167.03 694.162,360.918 700.878,1178.47 707.594,349.574 714.31,1189.72 721.025,338.414 727.741,1200.79 734.457,327.443 741.173,1211.66 747.888,316.666 
  754.604,1222.34 761.32,306.088 768.036,1232.82 774.752,295.713 781.467,1243.09 788.183,285.547 794.899,1253.15 801.615,275.593 808.33,1263 815.046,265.856 
  821.762,1272.62 828.478,256.34 835.193,1282.03 841.909,247.049 848.625,1291.2 855.341,237.988 862.057,1300.15 868.772,229.161 875.488,1308.86 882.204,220.571 
  888.92,1317.33 895.635,212.222 902.351,1325.55 909.067,204.118 915.783,1333.53 922.498,196.263 929.214,1341.26 935.93,188.66 942.646,1348.74 949.362,181.312 
  956.077,1355.96 962.793,174.222 969.509,1362.92 976.225,167.394 982.94,1369.61 989.656,160.831 996.372,1376.04 1003.09,154.535 1009.8,1382.2 1016.52,148.51 
  1023.24,1388.09 1029.95,142.758 1036.67,1393.71 1043.38,137.282 1050.1,1399.04 1056.81,132.083 1063.53,1404.1 1070.25,127.165 1076.96,1408.88 1083.68,122.529 
  1090.39,1413.37 1097.11,118.178 1103.82,1417.58 1110.54,114.113 1117.26,1421.5 1123.97,110.336 1130.69,1425.14 1137.4,106.849 1144.12,1428.48 1150.83,103.654 
  1157.55,1431.53 1164.27,100.752 1170.98,1434.28 1177.7,98.1434 1184.41,1436.74 1191.13,95.8304 1197.85,1438.91 1204.56,93.8137 1211.28,1440.78 1217.99,92.0941 
  1224.71,1442.35 1231.42,90.6725 1238.14,1443.62 1244.86,89.5495 1251.57,1444.59 1258.29,88.7256 1265,1445.27 1271.72,88.2011 1278.43,1445.64 1285.15,87.9763 
  1291.87,1445.72 1298.58,88.0512 1305.3,1445.49 1312.01,88.4259 1318.73,1444.97 1325.44,89.1002 1332.16,1444.14 1338.88,90.0737 1345.59,1443.02 1352.31,91.3461 
  1359.02,1441.6 1365.74,92.9167 1372.46,1439.88 1379.17,94.7849 1385.89,1437.86 1392.6,96.9499 1399.32,1435.55 1406.03,99.4108 1412.75,1432.94 1419.47,102.166 
  1426.18,1430.04 1432.9,105.215 1439.61,1426.84 1446.33,108.557 1453.04,1423.36 1459.76,112.188 1466.48,1419.58 1473.19,116.109 1479.91,1415.51 1486.62,120.318 
  1493.34,1411.16 1500.05,124.811 1506.77,1406.53 1513.49,129.589 1520.2,1401.61 1526.92,134.647 1533.63,1396.41 1540.35,139.985 1547.07,1390.93 1553.78,145.6 
  1560.5,1385.18 1567.21,151.489 1573.93,1379.16 1580.64,157.65 1587.36,1372.86 1594.08,164.079 1600.79,1366.3 1607.51,170.775 1614.22,1359.47 1620.94,177.734 
  1627.65,1352.38 1634.37,184.953 1641.09,1345.03 1647.8,192.43 1654.52,1337.43 1661.23,200.159 1667.95,1329.57 1674.66,208.139 1681.38,1321.47 1688.1,216.366 
  1694.81,1313.12 1701.53,224.836 1708.24,1304.53 1714.96,233.545 1721.68,1295.7 1728.39,242.49 1735.11,1286.64 1741.82,251.666 1748.54,1277.35 1755.25,261.07 
  1761.97,1267.84 1768.69,270.697 1775.4,1258.1 1782.12,280.543 1788.83,1248.15 1795.55,290.604 1802.26,1237.98 1808.98,300.875 1815.7,1227.6 1822.41,311.352 
  1829.13,1217.03 1835.84,322.03 1842.56,1206.25 1849.27,332.904 1855.99,1195.28 1862.71,343.97 1869.42,1184.12 1876.14,355.223 1882.85,1172.77 1889.57,366.658 
  1896.29,1161.25 1903,378.269 1909.72,1149.55 1916.43,390.052 1923.15,1137.69 1929.86,402.001 1936.58,1125.66 1943.3,414.111 1950.01,1113.47 1956.73,426.377 
  1963.44,1101.12 1970.16,438.794 1976.87,1088.64 1983.59,451.355 1990.31,1076 1997.02,464.056 2003.74,1063.24 2010.45,476.89 2017.17,1050.34 2023.88,489.852 
  2030.6,1037.31 2037.32,502.937 2044.03,1024.17 2050.75,516.138 2057.46,1010.91 2064.18,529.45 2070.9,997.546 2077.61,542.867 2084.33,984.079 2091.04,556.383 
  2097.76,970.516 2104.47,569.991 2111.19,956.864 2117.91,583.687 2124.62,943.127 2131.34,597.463 2138.05,929.312 2144.77,611.314 2151.48,915.426 2158.2,625.234 
  2164.92,901.474 2171.63,639.216 2178.35,887.463 2185.06,653.255 2191.78,873.398 2198.49,667.344 2205.21,859.287 2211.93,681.477 2218.64,845.134 2225.36,695.647 
  2232.07,830.947 2238.79,709.849 2245.51,816.732 2252.22,724.076 2258.94,802.494 2265.65,738.322 2272.37,788.241 2279.08,752.581 2285.8,773.979 2292.52,766.846 
  
  "/>
<path clip-path="url(#clip170)" d="
M1992.88 250.738 L2281.81 250.738 L2281.81 95.2176 L1992.88 95.2176  Z
  " fill="#ffffff" fill-rule="evenodd" fill-opacity="1"/>
<polyline clip-path="url(#clip170)" style="stroke:#000000; stroke-linecap:butt; stroke-linejoin:round; stroke-width:4; stroke-opacity:1; fill:none" points="
  1992.88,250.738 2281.81,250.738 2281.81,95.2176 1992.88,95.2176 1992.88,250.738 
  "/>
<polyline clip-path="url(#clip170)" style="stroke:#009af9; stroke-linecap:butt; stroke-linejoin:round; stroke-width:4; stroke-opacity:1; fill:none" points="
  2016.53,147.058 2158.43,147.058 
  "/>
<path clip-path="url(#clip170)" d="M2195.92 166.745 Q2194.11 171.375 2192.4 172.787 Q2190.69 174.199 2187.82 174.199 L2184.41 174.199 L2184.41 170.634 L2186.91 170.634 Q2188.67 170.634 2189.65 169.8 Q2190.62 168.967 2191.8 165.865 L2192.56 163.921 L2182.08 138.412 L2186.59 138.412 L2194.69 158.689 L2202.79 138.412 L2207.31 138.412 L2195.92 166.745 Z" fill="#000000" fill-rule="evenodd" fill-opacity="1" /><path clip-path="url(#clip170)" d="M2214.6 160.402 L2222.24 160.402 L2222.24 134.037 L2213.93 135.703 L2213.93 131.444 L2222.19 129.778 L2226.87 129.778 L2226.87 160.402 L2234.51 160.402 L2234.51 164.338 L2214.6 164.338 L2214.6 160.402 Z" fill="#000000" fill-rule="evenodd" fill-opacity="1" /><polyline clip-path="url(#clip170)" style="stroke:#e26f46; stroke-linecap:butt; stroke-linejoin:round; stroke-width:4; stroke-opacity:1; fill:none" points="
  2016.53,198.898 2158.43,198.898 
  "/>
<path clip-path="url(#clip170)" d="M2195.92 218.585 Q2194.11 223.215 2192.4 224.627 Q2190.69 226.039 2187.82 226.039 L2184.41 226.039 L2184.41 222.474 L2186.91 222.474 Q2188.67 222.474 2189.65 221.64 Q2190.62 220.807 2191.8 217.705 L2192.56 215.761 L2182.08 190.252 L2186.59 190.252 L2194.69 210.529 L2202.79 190.252 L2207.31 190.252 L2195.92 218.585 Z" fill="#000000" fill-rule="evenodd" fill-opacity="1" /><path clip-path="url(#clip170)" d="M2217.82 212.242 L2234.14 212.242 L2234.14 216.178 L2212.19 216.178 L2212.19 212.242 Q2214.85 209.488 2219.44 204.858 Q2224.04 200.205 2225.22 198.863 Q2227.47 196.34 2228.35 194.604 Q2229.25 192.844 2229.25 191.155 Q2229.25 188.4 2227.31 186.664 Q2225.39 184.928 2222.28 184.928 Q2220.08 184.928 2217.63 185.692 Q2215.2 186.455 2212.42 188.006 L2212.42 183.284 Q2215.25 182.15 2217.7 181.571 Q2220.15 180.993 2222.19 180.993 Q2227.56 180.993 2230.76 183.678 Q2233.95 186.363 2233.95 190.854 Q2233.95 192.983 2233.14 194.905 Q2232.35 196.803 2230.25 199.395 Q2229.67 200.067 2226.57 203.284 Q2223.46 206.479 2217.82 212.242 Z" fill="#000000" fill-rule="evenodd" fill-opacity="1" /></svg>
