<?xml version="1.0" encoding="utf-8"?>
<svg xmlns="http://www.w3.org/2000/svg" xmlns:xlink="http://www.w3.org/1999/xlink" width="600" height="400" viewBox="0 0 2400 1600">
<defs>
  <clipPath id="clip500">
    <rect x="0" y="0" width="2400" height="1600"/>
  </clipPath>
</defs>
<path clip-path="url(#clip500)" d="
M0 1600 L2400 1600 L2400 0 L0 0  Z
  " fill="#ffffff" fill-rule="evenodd" fill-opacity="1"/>
<defs>
  <clipPath id="clip501">
    <rect x="480" y="0" width="1681" height="1600"/>
  </clipPath>
</defs>
<path clip-path="url(#clip500)" d="
M189.496 1474.16 L2352.76 1474.16 L2352.76 47.2441 L189.496 47.2441  Z
  " fill="#ffffff" fill-rule="evenodd" fill-opacity="1"/>
<defs>
  <clipPath id="clip502">
    <rect x="189" y="47" width="2164" height="1428"/>
  </clipPath>
</defs>
<polyline clip-path="url(#clip502)" style="stroke:#000000; stroke-linecap:butt; stroke-linejoin:round; stroke-width:2; stroke-opacity:0.1; fill:none" points="
  790.281,1474.16 790.281,47.2441 
  "/>
<polyline clip-path="url(#clip502)" style="stroke:#000000; stroke-linecap:butt; stroke-linejoin:round; stroke-width:2; stroke-opacity:0.1; fill:none" points="
  2146.17,1474.16 2146.17,47.2441 
  "/>
<polyline clip-path="url(#clip500)" style="stroke:#000000; stroke-linecap:butt; stroke-linejoin:round; stroke-width:4; stroke-opacity:1; fill:none" points="
  189.496,1474.16 2352.76,1474.16 
  "/>
<polyline clip-path="url(#clip500)" style="stroke:#000000; stroke-linecap:butt; stroke-linejoin:round; stroke-width:4; stroke-opacity:1; fill:none" points="
  790.281,1474.16 790.281,1455.27 
  "/>
<polyline clip-path="url(#clip500)" style="stroke:#000000; stroke-linecap:butt; stroke-linejoin:round; stroke-width:4; stroke-opacity:1; fill:none" points="
  2146.17,1474.16 2146.17,1455.27 
  "/>
<path clip-path="url(#clip500)" d="M756.609 1548.29 L764.248 1548.29 L764.248 1521.92 L755.938 1523.59 L755.938 1519.33 L764.202 1517.66 L768.877 1517.66 L768.877 1548.29 L776.516 1548.29 L776.516 1552.22 L756.609 1552.22 L756.609 1548.29 Z" fill="#000000" fill-rule="evenodd" fill-opacity="1" /><path clip-path="url(#clip500)" d="M795.961 1520.74 Q792.35 1520.74 790.521 1524.31 Q788.715 1527.85 788.715 1534.98 Q788.715 1542.09 790.521 1545.65 Q792.35 1549.19 795.961 1549.19 Q799.595 1549.19 801.4 1545.65 Q803.229 1542.09 803.229 1534.98 Q803.229 1527.85 801.4 1524.31 Q799.595 1520.74 795.961 1520.74 M795.961 1517.04 Q801.771 1517.04 804.826 1521.65 Q807.905 1526.23 807.905 1534.98 Q807.905 1543.71 804.826 1548.31 Q801.771 1552.9 795.961 1552.9 Q790.15 1552.9 787.072 1548.31 Q784.016 1543.71 784.016 1534.98 Q784.016 1526.23 787.072 1521.65 Q790.15 1517.04 795.961 1517.04 Z" fill="#000000" fill-rule="evenodd" fill-opacity="1" /><path clip-path="url(#clip500)" d="M808.45 1521.62 L814.657 1521.62 L814.657 1500.19 L807.905 1501.55 L807.905 1498.09 L814.619 1496.73 L818.419 1496.73 L818.419 1521.62 L824.625 1521.62 L824.625 1524.81 L808.45 1524.81 L808.45 1521.62 Z" fill="#000000" fill-rule="evenodd" fill-opacity="1" /><path clip-path="url(#clip500)" d="M2111.94 1548.29 L2119.58 1548.29 L2119.58 1521.92 L2111.27 1523.59 L2111.27 1519.33 L2119.53 1517.66 L2124.21 1517.66 L2124.21 1548.29 L2131.85 1548.29 L2131.85 1552.22 L2111.94 1552.22 L2111.94 1548.29 Z" fill="#000000" fill-rule="evenodd" fill-opacity="1" /><path clip-path="url(#clip500)" d="M2151.29 1520.74 Q2147.68 1520.74 2145.85 1524.31 Q2144.05 1527.85 2144.05 1534.98 Q2144.05 1542.09 2145.85 1545.65 Q2147.68 1549.19 2151.29 1549.19 Q2154.93 1549.19 2156.73 1545.65 Q2158.56 1542.09 2158.56 1534.98 Q2158.56 1527.85 2156.73 1524.31 Q2154.93 1520.74 2151.29 1520.74 M2151.29 1517.04 Q2157.1 1517.04 2160.16 1521.65 Q2163.24 1526.23 2163.24 1534.98 Q2163.24 1543.71 2160.16 1548.31 Q2157.1 1552.9 2151.29 1552.9 Q2145.48 1552.9 2142.4 1548.31 Q2139.35 1543.71 2139.35 1534.98 Q2139.35 1526.23 2142.4 1521.65 Q2145.48 1517.04 2151.29 1517.04 Z" fill="#000000" fill-rule="evenodd" fill-opacity="1" /><path clip-path="url(#clip500)" d="M2167.81 1521.62 L2181.07 1521.62 L2181.07 1524.81 L2163.24 1524.81 L2163.24 1521.62 Q2165.4 1519.38 2169.12 1515.62 Q2172.87 1511.84 2173.82 1510.75 Q2175.65 1508.7 2176.36 1507.29 Q2177.1 1505.86 2177.1 1504.48 Q2177.1 1502.24 2175.52 1500.83 Q2173.96 1499.42 2171.44 1499.42 Q2169.65 1499.42 2167.66 1500.04 Q2165.68 1500.67 2163.42 1501.93 L2163.42 1498.09 Q2165.72 1497.17 2167.71 1496.7 Q2169.71 1496.23 2171.36 1496.23 Q2175.72 1496.23 2178.32 1498.41 Q2180.92 1500.59 2180.92 1504.24 Q2180.92 1505.97 2180.26 1507.53 Q2179.62 1509.07 2177.91 1511.18 Q2177.44 1511.72 2174.92 1514.34 Q2172.4 1516.93 2167.81 1521.62 Z" fill="#000000" fill-rule="evenodd" fill-opacity="1" /><polyline clip-path="url(#clip502)" style="stroke:#000000; stroke-linecap:butt; stroke-linejoin:round; stroke-width:2; stroke-opacity:0.1; fill:none" points="
  189.496,1359.05 2352.76,1359.05 
  "/>
<polyline clip-path="url(#clip502)" style="stroke:#000000; stroke-linecap:butt; stroke-linejoin:round; stroke-width:2; stroke-opacity:0.1; fill:none" points="
  189.496,661.962 2352.76,661.962 
  "/>
<polyline clip-path="url(#clip500)" style="stroke:#000000; stroke-linecap:butt; stroke-linejoin:round; stroke-width:4; stroke-opacity:1; fill:none" points="
  189.496,1474.16 189.496,47.2441 
  "/>
<polyline clip-path="url(#clip500)" style="stroke:#000000; stroke-linecap:butt; stroke-linejoin:round; stroke-width:4; stroke-opacity:1; fill:none" points="
  189.496,1359.05 208.394,1359.05 
  "/>
<polyline clip-path="url(#clip500)" style="stroke:#000000; stroke-linecap:butt; stroke-linejoin:round; stroke-width:4; stroke-opacity:1; fill:none" points="
  189.496,661.962 208.394,661.962 
  "/>
<path clip-path="url(#clip500)" d="M51.6634 1378.84 L59.3023 1378.84 L59.3023 1352.47 L50.9921 1354.14 L50.9921 1349.88 L59.256 1348.21 L63.9319 1348.21 L63.9319 1378.84 L71.5707 1378.84 L71.5707 1382.77 L51.6634 1382.77 L51.6634 1378.84 Z" fill="#000000" fill-rule="evenodd" fill-opacity="1" /><path clip-path="url(#clip500)" d="M91.0151 1351.29 Q87.404 1351.29 85.5753 1354.86 Q83.7697 1358.4 83.7697 1365.53 Q83.7697 1372.63 85.5753 1376.2 Q87.404 1379.74 91.0151 1379.74 Q94.6493 1379.74 96.4548 1376.2 Q98.2835 1372.63 98.2835 1365.53 Q98.2835 1358.4 96.4548 1354.86 Q94.6493 1351.29 91.0151 1351.29 M91.0151 1347.59 Q96.8252 1347.59 99.8808 1352.19 Q102.959 1356.78 102.959 1365.53 Q102.959 1374.25 99.8808 1378.86 Q96.8252 1383.44 91.0151 1383.44 Q85.2049 1383.44 82.1262 1378.86 Q79.0707 1374.25 79.0707 1365.53 Q79.0707 1356.78 82.1262 1352.19 Q85.2049 1347.59 91.0151 1347.59 Z" fill="#000000" fill-rule="evenodd" fill-opacity="1" /><path clip-path="url(#clip500)" d="M102.959 1341.69 L127.071 1341.69 L127.071 1344.89 L102.959 1344.89 L102.959 1341.69 Z" fill="#000000" fill-rule="evenodd" fill-opacity="1" /><path clip-path="url(#clip500)" d="M145.71 1330.59 L136.118 1345.58 L145.71 1345.58 L145.71 1330.59 M144.713 1327.28 L149.49 1327.28 L149.49 1345.58 L153.496 1345.58 L153.496 1348.74 L149.49 1348.74 L149.49 1355.36 L145.71 1355.36 L145.71 1348.74 L133.033 1348.74 L133.033 1345.08 L144.713 1327.28 Z" fill="#000000" fill-rule="evenodd" fill-opacity="1" /><path clip-path="url(#clip500)" d="M53.3561 681.754 L60.995 681.754 L60.995 655.389 L52.6848 657.056 L52.6848 652.796 L60.9487 651.13 L65.6246 651.13 L65.6246 681.754 L73.2634 681.754 L73.2634 685.69 L53.3561 685.69 L53.3561 681.754 Z" fill="#000000" fill-rule="evenodd" fill-opacity="1" /><path clip-path="url(#clip500)" d="M92.7078 654.208 Q89.0967 654.208 87.268 657.773 Q85.4624 661.315 85.4624 668.444 Q85.4624 675.551 87.268 679.116 Q89.0967 682.657 92.7078 682.657 Q96.342 682.657 98.1475 679.116 Q99.9762 675.551 99.9762 668.444 Q99.9762 661.315 98.1475 657.773 Q96.342 654.208 92.7078 654.208 M92.7078 650.505 Q98.5179 650.505 101.573 655.111 Q104.652 659.694 104.652 668.444 Q104.652 677.171 101.573 681.778 Q98.5179 686.361 92.7078 686.361 Q86.8976 686.361 83.8189 681.778 Q80.7634 677.171 80.7634 668.444 Q80.7634 659.694 83.8189 655.111 Q86.8976 650.505 92.7078 650.505 Z" fill="#000000" fill-rule="evenodd" fill-opacity="1" /><path clip-path="url(#clip500)" d="M104.652 644.606 L128.764 644.606 L128.764 647.803 L104.652 647.803 L104.652 644.606 Z" fill="#000000" fill-rule="evenodd" fill-opacity="1" /><path clip-path="url(#clip500)" d="M140.236 655.082 L153.496 655.082 L153.496 658.279 L135.666 658.279 L135.666 655.082 Q137.829 652.844 141.553 649.082 Q145.296 645.302 146.255 644.211 Q148.079 642.161 148.794 640.75 Q149.527 639.321 149.527 637.948 Q149.527 635.71 147.948 634.299 Q146.387 632.889 143.866 632.889 Q142.08 632.889 140.086 633.509 Q138.111 634.13 135.854 635.39 L135.854 631.553 Q138.149 630.632 140.142 630.162 Q142.136 629.691 143.791 629.691 Q148.155 629.691 150.75 631.873 Q153.345 634.055 153.345 637.704 Q153.345 639.434 152.687 640.995 Q152.048 642.537 150.336 644.644 Q149.866 645.189 147.346 647.803 Q144.826 650.399 140.236 655.082 Z" fill="#000000" fill-rule="evenodd" fill-opacity="1" /><polyline clip-path="url(#clip502)" style="stroke:#009af9; stroke-linecap:butt; stroke-linejoin:round; stroke-width:16; stroke-opacity:1; fill:none" points="
  250.72,87.6286 658.883,344.139 1067.04,574.869 1475.21,794.639 1883.37,1009.33 2291.53,1221.56 
  "/>
<line clip-path="url(#clip502)" x1="250.72" y1="87.6286" x2="250.72" y2="71.6286" style="stroke:#009af9; stroke-width:3.2; stroke-opacity:1"/>
<line clip-path="url(#clip502)" x1="250.72" y1="87.6286" x2="234.72" y2="87.6286" style="stroke:#009af9; stroke-width:3.2; stroke-opacity:1"/>
<line clip-path="url(#clip502)" x1="250.72" y1="87.6286" x2="250.72" y2="103.629" style="stroke:#009af9; stroke-width:3.2; stroke-opacity:1"/>
<line clip-path="url(#clip502)" x1="250.72" y1="87.6286" x2="266.72" y2="87.6286" style="stroke:#009af9; stroke-width:3.2; stroke-opacity:1"/>
<line clip-path="url(#clip502)" x1="658.883" y1="344.139" x2="658.883" y2="328.139" style="stroke:#009af9; stroke-width:3.2; stroke-opacity:1"/>
<line clip-path="url(#clip502)" x1="658.883" y1="344.139" x2="642.883" y2="344.139" style="stroke:#009af9; stroke-width:3.2; stroke-opacity:1"/>
<line clip-path="url(#clip502)" x1="658.883" y1="344.139" x2="658.883" y2="360.139" style="stroke:#009af9; stroke-width:3.2; stroke-opacity:1"/>
<line clip-path="url(#clip502)" x1="658.883" y1="344.139" x2="674.883" y2="344.139" style="stroke:#009af9; stroke-width:3.2; stroke-opacity:1"/>
<line clip-path="url(#clip502)" x1="1067.04" y1="574.869" x2="1067.04" y2="558.869" style="stroke:#009af9; stroke-width:3.2; stroke-opacity:1"/>
<line clip-path="url(#clip502)" x1="1067.04" y1="574.869" x2="1051.04" y2="574.869" style="stroke:#009af9; stroke-width:3.2; stroke-opacity:1"/>
<line clip-path="url(#clip502)" x1="1067.04" y1="574.869" x2="1067.04" y2="590.869" style="stroke:#009af9; stroke-width:3.2; stroke-opacity:1"/>
<line clip-path="url(#clip502)" x1="1067.04" y1="574.869" x2="1083.04" y2="574.869" style="stroke:#009af9; stroke-width:3.2; stroke-opacity:1"/>
<line clip-path="url(#clip502)" x1="1475.21" y1="794.639" x2="1475.21" y2="778.639" style="stroke:#009af9; stroke-width:3.2; stroke-opacity:1"/>
<line clip-path="url(#clip502)" x1="1475.21" y1="794.639" x2="1459.21" y2="794.639" style="stroke:#009af9; stroke-width:3.2; stroke-opacity:1"/>
<line clip-path="url(#clip502)" x1="1475.21" y1="794.639" x2="1475.21" y2="810.639" style="stroke:#009af9; stroke-width:3.2; stroke-opacity:1"/>
<line clip-path="url(#clip502)" x1="1475.21" y1="794.639" x2="1491.21" y2="794.639" style="stroke:#009af9; stroke-width:3.2; stroke-opacity:1"/>
<line clip-path="url(#clip502)" x1="1883.37" y1="1009.33" x2="1883.37" y2="993.326" style="stroke:#009af9; stroke-width:3.2; stroke-opacity:1"/>
<line clip-path="url(#clip502)" x1="1883.37" y1="1009.33" x2="1867.37" y2="1009.33" style="stroke:#009af9; stroke-width:3.2; stroke-opacity:1"/>
<line clip-path="url(#clip502)" x1="1883.37" y1="1009.33" x2="1883.37" y2="1025.33" style="stroke:#009af9; stroke-width:3.2; stroke-opacity:1"/>
<line clip-path="url(#clip502)" x1="1883.37" y1="1009.33" x2="1899.37" y2="1009.33" style="stroke:#009af9; stroke-width:3.2; stroke-opacity:1"/>
<line clip-path="url(#clip502)" x1="2291.53" y1="1221.56" x2="2291.53" y2="1205.56" style="stroke:#009af9; stroke-width:3.2; stroke-opacity:1"/>
<line clip-path="url(#clip502)" x1="2291.53" y1="1221.56" x2="2275.53" y2="1221.56" style="stroke:#009af9; stroke-width:3.2; stroke-opacity:1"/>
<line clip-path="url(#clip502)" x1="2291.53" y1="1221.56" x2="2291.53" y2="1237.56" style="stroke:#009af9; stroke-width:3.2; stroke-opacity:1"/>
<line clip-path="url(#clip502)" x1="2291.53" y1="1221.56" x2="2307.53" y2="1221.56" style="stroke:#009af9; stroke-width:3.2; stroke-opacity:1"/>
<polyline clip-path="url(#clip502)" style="stroke:#e26f46; stroke-linecap:butt; stroke-linejoin:round; stroke-width:16; stroke-opacity:1; fill:none" points="
  250.72,384.565 658.883,594.408 1067.04,804.251 1475.21,1014.09 1883.37,1223.94 2291.53,1433.78 
  "/>
<path clip-path="url(#clip500)" d="
M1680.68 250.328 L2280.65 250.328 L2280.65 94.8081 L1680.68 94.8081  Z
  " fill="#ffffff" fill-rule="evenodd" fill-opacity="1"/>
<polyline clip-path="url(#clip500)" style="stroke:#000000; stroke-linecap:butt; stroke-linejoin:round; stroke-width:4; stroke-opacity:1; fill:none" points="
  1680.68,250.328 2280.65,250.328 2280.65,94.8081 1680.68,94.8081 1680.68,250.328 
  "/>
<polyline clip-path="url(#clip500)" style="stroke:#009af9; stroke-linecap:butt; stroke-linejoin:round; stroke-width:4; stroke-opacity:1; fill:none" points="
  1704.72,146.648 1848.93,146.648 
  "/>
<line clip-path="url(#clip500)" x1="1776.83" y1="146.648" x2="1776.83" y2="121.048" style="stroke:#009af9; stroke-width:5.12; stroke-opacity:1"/>
<line clip-path="url(#clip500)" x1="1776.83" y1="146.648" x2="1751.23" y2="146.648" style="stroke:#009af9; stroke-width:5.12; stroke-opacity:1"/>
<line clip-path="url(#clip500)" x1="1776.83" y1="146.648" x2="1776.83" y2="172.248" style="stroke:#009af9; stroke-width:5.12; stroke-opacity:1"/>
<line clip-path="url(#clip500)" x1="1776.83" y1="146.648" x2="1802.43" y2="146.648" style="stroke:#009af9; stroke-width:5.12; stroke-opacity:1"/>
<path clip-path="url(#clip500)" d="M1877.37 150.988 Q1877.37 155.687 1879.29 158.373 Q1881.23 161.035 1884.61 161.035 Q1887.99 161.035 1889.94 158.373 Q1891.88 155.687 1891.88 150.988 Q1891.88 146.289 1889.94 143.627 Q1887.99 140.942 1884.61 140.942 Q1881.23 140.942 1879.29 143.627 Q1877.37 146.289 1877.37 150.988 M1891.88 160.039 Q1890.54 162.354 1888.48 163.488 Q1886.44 164.599 1883.57 164.599 Q1878.87 164.599 1875.91 160.849 Q1872.97 157.099 1872.97 150.988 Q1872.97 144.877 1875.91 141.127 Q1878.87 137.377 1883.57 137.377 Q1886.44 137.377 1888.48 138.512 Q1890.54 139.623 1891.88 141.937 L1891.88 138.002 L1896.14 138.002 L1896.14 173.789 L1891.88 173.789 L1891.88 160.039 Z" fill="#000000" fill-rule="evenodd" fill-opacity="1" /><path clip-path="url(#clip500)" d="M1904.47 153.697 L1904.47 138.002 L1908.73 138.002 L1908.73 153.535 Q1908.73 157.215 1910.17 159.067 Q1911.6 160.896 1914.47 160.896 Q1917.92 160.896 1919.91 158.697 Q1921.93 156.498 1921.93 152.701 L1921.93 138.002 L1926.19 138.002 L1926.19 163.928 L1921.93 163.928 L1921.93 159.947 Q1920.38 162.308 1918.32 163.465 Q1916.28 164.599 1913.57 164.599 Q1909.1 164.599 1906.79 161.822 Q1904.47 159.044 1904.47 153.697 M1915.19 137.377 L1915.19 137.377 Z" fill="#000000" fill-rule="evenodd" fill-opacity="1" /><path clip-path="url(#clip500)" d="M1946.74 150.896 Q1941.58 150.896 1939.59 152.076 Q1937.6 153.257 1937.6 156.104 Q1937.6 158.373 1939.08 159.715 Q1940.59 161.035 1943.16 161.035 Q1946.7 161.035 1948.83 158.535 Q1950.98 156.011 1950.98 151.845 L1950.98 150.896 L1946.74 150.896 M1955.24 149.137 L1955.24 163.928 L1950.98 163.928 L1950.98 159.993 Q1949.52 162.354 1947.34 163.488 Q1945.17 164.599 1942.02 164.599 Q1938.04 164.599 1935.68 162.377 Q1933.34 160.132 1933.34 156.382 Q1933.34 152.007 1936.26 149.785 Q1939.2 147.562 1945.01 147.562 L1950.98 147.562 L1950.98 147.146 Q1950.98 144.206 1949.03 142.609 Q1947.11 140.988 1943.62 140.988 Q1941.4 140.988 1939.29 141.521 Q1937.18 142.053 1935.24 143.118 L1935.24 139.183 Q1937.58 138.28 1939.78 137.84 Q1941.97 137.377 1944.06 137.377 Q1949.68 137.377 1952.46 140.294 Q1955.24 143.211 1955.24 149.137 Z" fill="#000000" fill-rule="evenodd" fill-opacity="1" /><path clip-path="url(#clip500)" d="M1981.07 141.937 L1981.07 127.91 L1985.33 127.91 L1985.33 163.928 L1981.07 163.928 L1981.07 160.039 Q1979.73 162.354 1977.67 163.488 Q1975.63 164.599 1972.76 164.599 Q1968.06 164.599 1965.1 160.849 Q1962.16 157.099 1962.16 150.988 Q1962.16 144.877 1965.1 141.127 Q1968.06 137.377 1972.76 137.377 Q1975.63 137.377 1977.67 138.512 Q1979.73 139.623 1981.07 141.937 M1966.56 150.988 Q1966.56 155.687 1968.48 158.373 Q1970.42 161.035 1973.8 161.035 Q1977.18 161.035 1979.13 158.373 Q1981.07 155.687 1981.07 150.988 Q1981.07 146.289 1979.13 143.627 Q1977.18 140.942 1973.8 140.942 Q1970.42 140.942 1968.48 143.627 Q1966.56 146.289 1966.56 150.988 Z" fill="#000000" fill-rule="evenodd" fill-opacity="1" /><path clip-path="url(#clip500)" d="M2013.8 171.798 L2013.8 175.109 L1989.17 175.109 L1989.17 171.798 L2013.8 171.798 Z" fill="#000000" fill-rule="evenodd" fill-opacity="1" /><path clip-path="url(#clip500)" d="M2022.02 130.641 L2022.02 138.002 L2030.79 138.002 L2030.79 141.312 L2022.02 141.312 L2022.02 155.386 Q2022.02 158.558 2022.88 159.461 Q2023.76 160.363 2026.42 160.363 L2030.79 160.363 L2030.79 163.928 L2026.42 163.928 Q2021.49 163.928 2019.61 162.099 Q2017.74 160.248 2017.74 155.386 L2017.74 141.312 L2014.61 141.312 L2014.61 138.002 L2017.74 138.002 L2017.74 130.641 L2022.02 130.641 Z" fill="#000000" fill-rule="evenodd" fill-opacity="1" /><path clip-path="url(#clip500)" d="M2051.42 141.984 Q2050.7 141.567 2049.84 141.382 Q2049.01 141.174 2047.99 141.174 Q2044.38 141.174 2042.44 143.535 Q2040.52 145.873 2040.52 150.271 L2040.52 163.928 L2036.23 163.928 L2036.23 138.002 L2040.52 138.002 L2040.52 142.03 Q2041.86 139.669 2044.01 138.535 Q2046.16 137.377 2049.24 137.377 Q2049.68 137.377 2050.21 137.447 Q2050.75 137.493 2051.4 137.609 L2051.42 141.984 Z" fill="#000000" fill-rule="evenodd" fill-opacity="1" /><path clip-path="url(#clip500)" d="M2067.67 150.896 Q2062.51 150.896 2060.52 152.076 Q2058.52 153.257 2058.52 156.104 Q2058.52 158.373 2060.01 159.715 Q2061.51 161.035 2064.08 161.035 Q2067.62 161.035 2069.75 158.535 Q2071.9 156.011 2071.9 151.845 L2071.9 150.896 L2067.67 150.896 M2076.16 149.137 L2076.16 163.928 L2071.9 163.928 L2071.9 159.993 Q2070.45 162.354 2068.27 163.488 Q2066.09 164.599 2062.95 164.599 Q2058.96 164.599 2056.6 162.377 Q2054.27 160.132 2054.27 156.382 Q2054.27 152.007 2057.18 149.785 Q2060.12 147.562 2065.93 147.562 L2071.9 147.562 L2071.9 147.146 Q2071.9 144.206 2069.96 142.609 Q2068.04 140.988 2064.54 140.988 Q2062.32 140.988 2060.21 141.521 Q2058.11 142.053 2056.16 143.118 L2056.16 139.183 Q2058.5 138.28 2060.7 137.84 Q2062.9 137.377 2064.98 137.377 Q2070.61 137.377 2073.39 140.294 Q2076.16 143.211 2076.16 149.137 Z" fill="#000000" fill-rule="evenodd" fill-opacity="1" /><path clip-path="url(#clip500)" d="M2089.06 160.039 L2089.06 173.789 L2084.77 173.789 L2084.77 138.002 L2089.06 138.002 L2089.06 141.937 Q2090.4 139.623 2092.44 138.512 Q2094.5 137.377 2097.34 137.377 Q2102.07 137.377 2105.01 141.127 Q2107.97 144.877 2107.97 150.988 Q2107.97 157.099 2105.01 160.849 Q2102.07 164.599 2097.34 164.599 Q2094.5 164.599 2092.44 163.488 Q2090.4 162.354 2089.06 160.039 M2103.55 150.988 Q2103.55 146.289 2101.6 143.627 Q2099.68 140.942 2096.3 140.942 Q2092.92 140.942 2090.98 143.627 Q2089.06 146.289 2089.06 150.988 Q2089.06 155.687 2090.98 158.373 Q2092.92 161.035 2096.3 161.035 Q2099.68 161.035 2101.6 158.373 Q2103.55 155.687 2103.55 150.988 Z" fill="#000000" fill-rule="evenodd" fill-opacity="1" /><path clip-path="url(#clip500)" d="M2137.2 149.9 L2137.2 151.984 L2117.62 151.984 Q2117.9 156.382 2120.26 158.697 Q2122.64 160.988 2126.88 160.988 Q2129.33 160.988 2131.63 160.386 Q2133.94 159.785 2136.21 158.581 L2136.21 162.609 Q2133.92 163.581 2131.51 164.09 Q2129.1 164.599 2126.63 164.599 Q2120.42 164.599 2116.79 160.988 Q2113.18 157.377 2113.18 151.22 Q2113.18 144.854 2116.6 141.127 Q2120.05 137.377 2125.89 137.377 Q2131.12 137.377 2134.15 140.757 Q2137.2 144.113 2137.2 149.9 M2132.95 148.65 Q2132.9 145.155 2130.98 143.072 Q2129.08 140.988 2125.93 140.988 Q2122.37 140.988 2120.21 143.002 Q2118.08 145.016 2117.76 148.674 L2132.95 148.65 Z" fill="#000000" fill-rule="evenodd" fill-opacity="1" /><path clip-path="url(#clip500)" d="M2142.34 138.002 L2162.58 138.002 L2162.58 141.891 L2146.56 160.525 L2162.58 160.525 L2162.58 163.928 L2141.77 163.928 L2141.77 160.039 L2157.78 141.405 L2142.34 141.405 L2142.34 138.002 Z" fill="#000000" fill-rule="evenodd" fill-opacity="1" /><path clip-path="url(#clip500)" d="M2179.13 140.988 Q2175.7 140.988 2173.71 143.674 Q2171.72 146.336 2171.72 150.988 Q2171.72 155.641 2173.69 158.326 Q2175.68 160.988 2179.13 160.988 Q2182.53 160.988 2184.52 158.303 Q2186.51 155.618 2186.51 150.988 Q2186.51 146.382 2184.52 143.697 Q2182.53 140.988 2179.13 140.988 M2179.13 137.377 Q2184.68 137.377 2187.85 140.988 Q2191.02 144.6 2191.02 150.988 Q2191.02 157.354 2187.85 160.988 Q2184.68 164.599 2179.13 164.599 Q2173.55 164.599 2170.38 160.988 Q2167.23 157.354 2167.23 150.988 Q2167.23 144.6 2170.38 140.988 Q2173.55 137.377 2179.13 137.377 Z" fill="#000000" fill-rule="evenodd" fill-opacity="1" /><path clip-path="url(#clip500)" d="M2198.08 138.002 L2202.34 138.002 L2202.34 163.928 L2198.08 163.928 L2198.08 138.002 M2198.08 127.91 L2202.34 127.91 L2202.34 133.303 L2198.08 133.303 L2198.08 127.91 Z" fill="#000000" fill-rule="evenodd" fill-opacity="1" /><path clip-path="url(#clip500)" d="M2228.32 141.937 L2228.32 127.91 L2232.57 127.91 L2232.57 163.928 L2228.32 163.928 L2228.32 160.039 Q2226.97 162.354 2224.91 163.488 Q2222.88 164.599 2220.01 164.599 Q2215.31 164.599 2212.34 160.849 Q2209.4 157.099 2209.4 150.988 Q2209.4 144.877 2212.34 141.127 Q2215.31 137.377 2220.01 137.377 Q2222.88 137.377 2224.91 138.512 Q2226.97 139.623 2228.32 141.937 M2213.8 150.988 Q2213.8 155.687 2215.72 158.373 Q2217.67 161.035 2221.05 161.035 Q2224.43 161.035 2226.37 158.373 Q2228.32 155.687 2228.32 150.988 Q2228.32 146.289 2226.37 143.627 Q2224.43 140.942 2221.05 140.942 Q2217.67 140.942 2215.72 143.627 Q2213.8 146.289 2213.8 150.988 Z" fill="#000000" fill-rule="evenodd" fill-opacity="1" /><polyline clip-path="url(#clip500)" style="stroke:#e26f46; stroke-linecap:butt; stroke-linejoin:round; stroke-width:4; stroke-opacity:1; fill:none" points="
  1704.72,198.488 1848.93,198.488 
  "/>
<path clip-path="url(#clip500)" d="M1886.81 218.176 Q1885.01 222.805 1883.29 224.217 Q1881.58 225.629 1878.71 225.629 L1875.31 225.629 L1875.31 222.064 L1877.81 222.064 Q1879.57 222.064 1880.54 221.231 Q1881.51 220.398 1882.69 217.296 L1883.46 215.351 L1872.97 189.842 L1877.48 189.842 L1885.59 210.12 L1893.69 189.842 L1898.2 189.842 L1886.81 218.176 Z" fill="#000000" fill-rule="evenodd" fill-opacity="1" /><path clip-path="url(#clip500)" d="M1908.71 211.833 L1925.03 211.833 L1925.03 215.768 L1903.09 215.768 L1903.09 211.833 Q1905.75 209.078 1910.33 204.449 Q1914.94 199.796 1916.12 198.453 Q1918.36 195.93 1919.24 194.194 Q1920.15 192.435 1920.15 190.745 Q1920.15 187.99 1918.2 186.254 Q1916.28 184.518 1913.18 184.518 Q1910.98 184.518 1908.53 185.282 Q1906.1 186.046 1903.32 187.597 L1903.32 182.875 Q1906.14 181.741 1908.6 181.162 Q1911.05 180.583 1913.09 180.583 Q1918.46 180.583 1921.65 183.268 Q1924.84 185.953 1924.84 190.444 Q1924.84 192.574 1924.03 194.495 Q1923.25 196.393 1921.14 198.986 Q1920.56 199.657 1917.46 202.875 Q1914.36 206.069 1908.71 211.833 Z" fill="#000000" fill-rule="evenodd" fill-opacity="1" /></svg>
