<?xml version="1.0" encoding="utf-8"?>
<svg xmlns="http://www.w3.org/2000/svg" xmlns:xlink="http://www.w3.org/1999/xlink" width="600" height="400" viewBox="0 0 2400 1600">
<defs>
  <clipPath id="clip540">
    <rect x="0" y="0" width="2400" height="1600"/>
  </clipPath>
</defs>
<path clip-path="url(#clip540)" d="
M0 1600 L2400 1600 L2400 0 L0 0  Z
  " fill="#ffffff" fill-rule="evenodd" fill-opacity="1"/>
<defs>
  <clipPath id="clip541">
    <rect x="480" y="0" width="1681" height="1600"/>
  </clipPath>
</defs>
<defs>
  <clipPath id="clip542">
    <rect x="193" y="123" width="2160" height="1364"/>
  </clipPath>
</defs>
<path clip-path="url(#clip540)" d="
M189.496 1474.16 L2352.76 1474.16 L2352.76 47.2441 L189.496 47.2441  Z
  " fill="#ffffff" fill-rule="evenodd" fill-opacity="1"/>
<defs>
  <clipPath id="clip543">
    <rect x="189" y="47" width="2164" height="1428"/>
  </clipPath>
</defs>
<polyline clip-path="url(#clip543)" style="stroke:#000000; stroke-linecap:butt; stroke-linejoin:round; stroke-width:2; stroke-opacity:0.1; fill:none" points="
  344.577,1474.16 344.577,47.2441 
  "/>
<polyline clip-path="url(#clip543)" style="stroke:#000000; stroke-linecap:butt; stroke-linejoin:round; stroke-width:2; stroke-opacity:0.1; fill:none" points="
  1313.07,1474.16 1313.07,47.2441 
  "/>
<polyline clip-path="url(#clip543)" style="stroke:#000000; stroke-linecap:butt; stroke-linejoin:round; stroke-width:2; stroke-opacity:0.1; fill:none" points="
  2281.56,1474.16 2281.56,47.2441 
  "/>
<polyline clip-path="url(#clip540)" style="stroke:#000000; stroke-linecap:butt; stroke-linejoin:round; stroke-width:4; stroke-opacity:1; fill:none" points="
  189.496,1474.16 2352.76,1474.16 
  "/>
<polyline clip-path="url(#clip540)" style="stroke:#000000; stroke-linecap:butt; stroke-linejoin:round; stroke-width:4; stroke-opacity:1; fill:none" points="
  344.577,1474.16 344.577,1455.27 
  "/>
<polyline clip-path="url(#clip540)" style="stroke:#000000; stroke-linecap:butt; stroke-linejoin:round; stroke-width:4; stroke-opacity:1; fill:none" points="
  1313.07,1474.16 1313.07,1455.27 
  "/>
<polyline clip-path="url(#clip540)" style="stroke:#000000; stroke-linecap:butt; stroke-linejoin:round; stroke-width:4; stroke-opacity:1; fill:none" points="
  2281.56,1474.16 2281.56,1455.27 
  "/>
<path clip-path="url(#clip540)" d="M310.904 1548.29 L318.543 1548.29 L318.543 1521.92 L310.233 1523.59 L310.233 1519.33 L318.497 1517.66 L323.173 1517.66 L323.173 1548.29 L330.811 1548.29 L330.811 1552.22 L310.904 1552.22 L310.904 1548.29 Z" fill="#000000" fill-rule="evenodd" fill-opacity="1" /><path clip-path="url(#clip540)" d="M350.256 1520.74 Q346.645 1520.74 344.816 1524.31 Q343.011 1527.85 343.011 1534.98 Q343.011 1542.09 344.816 1545.65 Q346.645 1549.19 350.256 1549.19 Q353.89 1549.19 355.696 1545.65 Q357.524 1542.09 357.524 1534.98 Q357.524 1527.85 355.696 1524.31 Q353.89 1520.74 350.256 1520.74 M350.256 1517.04 Q356.066 1517.04 359.122 1521.65 Q362.2 1526.23 362.2 1534.98 Q362.2 1543.71 359.122 1548.31 Q356.066 1552.9 350.256 1552.9 Q344.446 1552.9 341.367 1548.31 Q338.311 1543.71 338.311 1534.98 Q338.311 1526.23 341.367 1521.65 Q344.446 1517.04 350.256 1517.04 Z" fill="#000000" fill-rule="evenodd" fill-opacity="1" /><path clip-path="url(#clip540)" d="M362.746 1521.62 L368.952 1521.62 L368.952 1500.19 L362.2 1501.55 L362.2 1498.09 L368.915 1496.73 L372.714 1496.73 L372.714 1521.62 L378.92 1521.62 L378.92 1524.81 L362.746 1524.81 L362.746 1521.62 Z" fill="#000000" fill-rule="evenodd" fill-opacity="1" /><path clip-path="url(#clip540)" d="M1278.84 1548.29 L1286.48 1548.29 L1286.48 1521.92 L1278.17 1523.59 L1278.17 1519.33 L1286.43 1517.66 L1291.11 1517.66 L1291.11 1548.29 L1298.75 1548.29 L1298.75 1552.22 L1278.84 1552.22 L1278.84 1548.29 Z" fill="#000000" fill-rule="evenodd" fill-opacity="1" /><path clip-path="url(#clip540)" d="M1318.19 1520.74 Q1314.58 1520.74 1312.75 1524.31 Q1310.95 1527.85 1310.95 1534.98 Q1310.95 1542.09 1312.75 1545.65 Q1314.58 1549.19 1318.19 1549.19 Q1321.83 1549.19 1323.63 1545.65 Q1325.46 1542.09 1325.46 1534.98 Q1325.46 1527.85 1323.63 1524.31 Q1321.83 1520.74 1318.19 1520.74 M1318.19 1517.04 Q1324 1517.04 1327.06 1521.65 Q1330.14 1526.23 1330.14 1534.98 Q1330.14 1543.71 1327.06 1548.31 Q1324 1552.9 1318.19 1552.9 Q1312.38 1552.9 1309.3 1548.31 Q1306.25 1543.71 1306.25 1534.98 Q1306.25 1526.23 1309.3 1521.65 Q1312.38 1517.04 1318.19 1517.04 Z" fill="#000000" fill-rule="evenodd" fill-opacity="1" /><path clip-path="url(#clip540)" d="M1334.71 1521.62 L1347.96 1521.62 L1347.96 1524.81 L1330.14 1524.81 L1330.14 1521.62 Q1332.3 1519.38 1336.02 1515.62 Q1339.76 1511.84 1340.72 1510.75 Q1342.55 1508.7 1343.26 1507.29 Q1344 1505.86 1344 1504.48 Q1344 1502.24 1342.42 1500.83 Q1340.86 1499.42 1338.34 1499.42 Q1336.55 1499.42 1334.55 1500.04 Q1332.58 1500.67 1330.32 1501.93 L1330.32 1498.09 Q1332.62 1497.17 1334.61 1496.7 Q1336.61 1496.23 1338.26 1496.23 Q1342.62 1496.23 1345.22 1498.41 Q1347.81 1500.59 1347.81 1504.24 Q1347.81 1505.97 1347.16 1507.53 Q1346.52 1509.07 1344.81 1511.18 Q1344.34 1511.72 1341.81 1514.34 Q1339.29 1516.93 1334.71 1521.62 Z" fill="#000000" fill-rule="evenodd" fill-opacity="1" /><path clip-path="url(#clip540)" d="M2247 1548.29 L2254.64 1548.29 L2254.64 1521.92 L2246.33 1523.59 L2246.33 1519.33 L2254.59 1517.66 L2259.27 1517.66 L2259.27 1548.29 L2266.91 1548.29 L2266.91 1552.22 L2247 1552.22 L2247 1548.29 Z" fill="#000000" fill-rule="evenodd" fill-opacity="1" /><path clip-path="url(#clip540)" d="M2286.35 1520.74 Q2282.74 1520.74 2280.91 1524.31 Q2279.11 1527.85 2279.11 1534.98 Q2279.11 1542.09 2280.91 1545.65 Q2282.74 1549.19 2286.35 1549.19 Q2289.99 1549.19 2291.79 1545.65 Q2293.62 1542.09 2293.62 1534.98 Q2293.62 1527.85 2291.79 1524.31 Q2289.99 1520.74 2286.35 1520.74 M2286.35 1517.04 Q2292.16 1517.04 2295.22 1521.65 Q2298.3 1526.23 2298.3 1534.98 Q2298.3 1543.71 2295.22 1548.31 Q2292.16 1552.9 2286.35 1552.9 Q2280.54 1552.9 2277.46 1548.31 Q2274.41 1543.71 2274.41 1534.98 Q2274.41 1526.23 2277.46 1521.65 Q2280.54 1517.04 2286.35 1517.04 Z" fill="#000000" fill-rule="evenodd" fill-opacity="1" /><path clip-path="url(#clip540)" d="M2310.99 1509.67 Q2313.72 1510.26 2315.24 1512.1 Q2316.78 1513.94 2316.78 1516.65 Q2316.78 1520.81 2313.93 1523.08 Q2311.07 1525.36 2305.8 1525.36 Q2304.03 1525.36 2302.15 1525 Q2300.29 1524.66 2298.3 1523.97 L2298.3 1520.3 Q2299.88 1521.22 2301.76 1521.69 Q2303.64 1522.16 2305.69 1522.16 Q2309.26 1522.16 2311.12 1520.75 Q2313 1519.34 2313 1516.65 Q2313 1514.17 2311.25 1512.78 Q2309.52 1511.37 2306.42 1511.37 L2303.15 1511.37 L2303.15 1508.24 L2306.57 1508.24 Q2309.37 1508.24 2310.86 1507.13 Q2312.35 1506.01 2312.35 1503.9 Q2312.35 1501.74 2310.8 1500.59 Q2309.28 1499.42 2306.42 1499.42 Q2304.86 1499.42 2303.07 1499.76 Q2301.29 1500.1 2299.14 1500.82 L2299.14 1497.43 Q2301.31 1496.83 2303.19 1496.53 Q2305.09 1496.23 2306.76 1496.23 Q2311.09 1496.23 2313.61 1498.2 Q2316.13 1500.16 2316.13 1503.51 Q2316.13 1505.84 2314.79 1507.45 Q2313.45 1509.05 2310.99 1509.67 Z" fill="#000000" fill-rule="evenodd" fill-opacity="1" /><polyline clip-path="url(#clip543)" style="stroke:#000000; stroke-linecap:butt; stroke-linejoin:round; stroke-width:2; stroke-opacity:0.1; fill:none" points="
  189.496,1427.99 2352.76,1427.99 
  "/>
<polyline clip-path="url(#clip543)" style="stroke:#000000; stroke-linecap:butt; stroke-linejoin:round; stroke-width:2; stroke-opacity:0.1; fill:none" points="
  189.496,1147.03 2352.76,1147.03 
  "/>
<polyline clip-path="url(#clip543)" style="stroke:#000000; stroke-linecap:butt; stroke-linejoin:round; stroke-width:2; stroke-opacity:0.1; fill:none" points="
  189.496,866.073 2352.76,866.073 
  "/>
<polyline clip-path="url(#clip543)" style="stroke:#000000; stroke-linecap:butt; stroke-linejoin:round; stroke-width:2; stroke-opacity:0.1; fill:none" points="
  189.496,585.114 2352.76,585.114 
  "/>
<polyline clip-path="url(#clip543)" style="stroke:#000000; stroke-linecap:butt; stroke-linejoin:round; stroke-width:2; stroke-opacity:0.1; fill:none" points="
  189.496,304.154 2352.76,304.154 
  "/>
<polyline clip-path="url(#clip540)" style="stroke:#000000; stroke-linecap:butt; stroke-linejoin:round; stroke-width:4; stroke-opacity:1; fill:none" points="
  189.496,1474.16 189.496,47.2441 
  "/>
<polyline clip-path="url(#clip540)" style="stroke:#000000; stroke-linecap:butt; stroke-linejoin:round; stroke-width:4; stroke-opacity:1; fill:none" points="
  189.496,1427.99 208.394,1427.99 
  "/>
<polyline clip-path="url(#clip540)" style="stroke:#000000; stroke-linecap:butt; stroke-linejoin:round; stroke-width:4; stroke-opacity:1; fill:none" points="
  189.496,1147.03 208.394,1147.03 
  "/>
<polyline clip-path="url(#clip540)" style="stroke:#000000; stroke-linecap:butt; stroke-linejoin:round; stroke-width:4; stroke-opacity:1; fill:none" points="
  189.496,866.073 208.394,866.073 
  "/>
<polyline clip-path="url(#clip540)" style="stroke:#000000; stroke-linecap:butt; stroke-linejoin:round; stroke-width:4; stroke-opacity:1; fill:none" points="
  189.496,585.114 208.394,585.114 
  "/>
<polyline clip-path="url(#clip540)" style="stroke:#000000; stroke-linecap:butt; stroke-linejoin:round; stroke-width:4; stroke-opacity:1; fill:none" points="
  189.496,304.154 208.394,304.154 
  "/>
<path clip-path="url(#clip540)" d="M51.9267 1447.78 L59.5656 1447.78 L59.5656 1421.42 L51.2554 1423.09 L51.2554 1418.83 L59.5193 1417.16 L64.1952 1417.16 L64.1952 1447.78 L71.834 1447.78 L71.834 1451.72 L51.9267 1451.72 L51.9267 1447.78 Z" fill="#000000" fill-rule="evenodd" fill-opacity="1" /><path clip-path="url(#clip540)" d="M91.2784 1420.24 Q87.6673 1420.24 85.8386 1423.8 Q84.033 1427.35 84.033 1434.47 Q84.033 1441.58 85.8386 1445.15 Q87.6673 1448.69 91.2784 1448.69 Q94.9126 1448.69 96.7182 1445.15 Q98.5468 1441.58 98.5468 1434.47 Q98.5468 1427.35 96.7182 1423.8 Q94.9126 1420.24 91.2784 1420.24 M91.2784 1416.53 Q97.0885 1416.53 100.144 1421.14 Q103.223 1425.72 103.223 1434.47 Q103.223 1443.2 100.144 1447.81 Q97.0885 1452.39 91.2784 1452.39 Q85.4682 1452.39 82.3895 1447.81 Q79.334 1443.2 79.334 1434.47 Q79.334 1425.72 82.3895 1421.14 Q85.4682 1416.53 91.2784 1416.53 Z" fill="#000000" fill-rule="evenodd" fill-opacity="1" /><path clip-path="url(#clip540)" d="M103.223 1410.64 L127.334 1410.64 L127.334 1413.83 L103.223 1413.83 L103.223 1410.64 Z" fill="#000000" fill-rule="evenodd" fill-opacity="1" /><path clip-path="url(#clip540)" d="M144.13 1408.76 Q141.572 1408.76 140.067 1410.5 Q138.581 1412.25 138.581 1415.3 Q138.581 1418.33 140.067 1420.1 Q141.572 1421.85 144.13 1421.85 Q146.688 1421.85 148.173 1420.1 Q149.678 1418.33 149.678 1415.3 Q149.678 1412.25 148.173 1410.5 Q146.688 1408.76 144.13 1408.76 M151.672 1396.85 L151.672 1400.31 Q150.242 1399.63 148.775 1399.28 Q147.327 1398.92 145.898 1398.92 Q142.136 1398.92 140.142 1401.46 Q138.168 1404 137.885 1409.13 Q138.995 1407.5 140.669 1406.63 Q142.343 1405.75 144.355 1405.75 Q148.587 1405.75 151.032 1408.32 Q153.496 1410.88 153.496 1415.3 Q153.496 1419.63 150.938 1422.24 Q148.38 1424.86 144.13 1424.86 Q139.258 1424.86 136.682 1421.13 Q134.105 1417.39 134.105 1410.3 Q134.105 1403.64 137.265 1399.69 Q140.425 1395.72 145.747 1395.72 Q147.177 1395.72 148.625 1396 Q150.092 1396.29 151.672 1396.85 Z" fill="#000000" fill-rule="evenodd" fill-opacity="1" /><path clip-path="url(#clip540)" d="M52.8671 1166.83 L60.506 1166.83 L60.506 1140.46 L52.1958 1142.13 L52.1958 1137.87 L60.4597 1136.2 L65.1356 1136.2 L65.1356 1166.83 L72.7744 1166.83 L72.7744 1170.76 L52.8671 1170.76 L52.8671 1166.83 Z" fill="#000000" fill-rule="evenodd" fill-opacity="1" /><path clip-path="url(#clip540)" d="M92.2188 1139.28 Q88.6077 1139.28 86.779 1142.84 Q84.9734 1146.39 84.9734 1153.52 Q84.9734 1160.62 86.779 1164.19 Q88.6077 1167.73 92.2188 1167.73 Q95.853 1167.73 97.6585 1164.19 Q99.4872 1160.62 99.4872 1153.52 Q99.4872 1146.39 97.6585 1142.84 Q95.853 1139.28 92.2188 1139.28 M92.2188 1135.58 Q98.0289 1135.58 101.084 1140.18 Q104.163 1144.77 104.163 1153.52 Q104.163 1162.24 101.084 1166.85 Q98.0289 1171.43 92.2188 1171.43 Q86.4086 1171.43 83.3299 1166.85 Q80.2744 1162.24 80.2744 1153.52 Q80.2744 1144.77 83.3299 1140.18 Q86.4086 1135.58 92.2188 1135.58 Z" fill="#000000" fill-rule="evenodd" fill-opacity="1" /><path clip-path="url(#clip540)" d="M104.163 1129.68 L128.275 1129.68 L128.275 1132.87 L104.163 1132.87 L104.163 1129.68 Z" fill="#000000" fill-rule="evenodd" fill-opacity="1" /><path clip-path="url(#clip540)" d="M136.513 1115.27 L151.427 1115.27 L151.427 1118.47 L139.992 1118.47 L139.992 1125.35 Q140.819 1125.07 141.647 1124.94 Q142.475 1124.79 143.302 1124.79 Q148.004 1124.79 150.75 1127.36 Q153.496 1129.94 153.496 1134.34 Q153.496 1138.87 150.675 1141.39 Q147.854 1143.9 142.719 1143.9 Q140.951 1143.9 139.108 1143.59 Q137.284 1143.29 135.328 1142.69 L135.328 1138.87 Q137.02 1139.8 138.826 1140.25 Q140.631 1140.7 142.644 1140.7 Q145.898 1140.7 147.797 1138.99 Q149.697 1137.28 149.697 1134.34 Q149.697 1131.41 147.797 1129.7 Q145.898 1127.98 142.644 1127.98 Q141.12 1127.98 139.597 1128.32 Q138.092 1128.66 136.513 1129.38 L136.513 1115.27 Z" fill="#000000" fill-rule="evenodd" fill-opacity="1" /><path clip-path="url(#clip540)" d="M51.6634 885.866 L59.3023 885.866 L59.3023 859.5 L50.9921 861.167 L50.9921 856.908 L59.256 855.241 L63.9319 855.241 L63.9319 885.866 L71.5707 885.866 L71.5707 889.801 L51.6634 889.801 L51.6634 885.866 Z" fill="#000000" fill-rule="evenodd" fill-opacity="1" /><path clip-path="url(#clip540)" d="M91.0151 858.32 Q87.404 858.32 85.5753 861.884 Q83.7697 865.426 83.7697 872.556 Q83.7697 879.662 85.5753 883.227 Q87.404 886.769 91.0151 886.769 Q94.6493 886.769 96.4548 883.227 Q98.2835 879.662 98.2835 872.556 Q98.2835 865.426 96.4548 861.884 Q94.6493 858.32 91.0151 858.32 M91.0151 854.616 Q96.8252 854.616 99.8808 859.222 Q102.959 863.806 102.959 872.556 Q102.959 881.283 99.8808 885.889 Q96.8252 890.472 91.0151 890.472 Q85.2049 890.472 82.1262 885.889 Q79.0707 881.283 79.0707 872.556 Q79.0707 863.806 82.1262 859.222 Q85.2049 854.616 91.0151 854.616 Z" fill="#000000" fill-rule="evenodd" fill-opacity="1" /><path clip-path="url(#clip540)" d="M102.959 848.717 L127.071 848.717 L127.071 851.915 L102.959 851.915 L102.959 848.717 Z" fill="#000000" fill-rule="evenodd" fill-opacity="1" /><path clip-path="url(#clip540)" d="M145.71 837.621 L136.118 852.611 L145.71 852.611 L145.71 837.621 M144.713 834.311 L149.49 834.311 L149.49 852.611 L153.496 852.611 L153.496 855.77 L149.49 855.77 L149.49 862.391 L145.71 862.391 L145.71 855.77 L133.033 855.77 L133.033 852.103 L144.713 834.311 Z" fill="#000000" fill-rule="evenodd" fill-opacity="1" /><path clip-path="url(#clip540)" d="M52.585 604.906 L60.2238 604.906 L60.2238 578.541 L51.9137 580.207 L51.9137 575.948 L60.1776 574.281 L64.8535 574.281 L64.8535 604.906 L72.4923 604.906 L72.4923 608.841 L52.585 608.841 L52.585 604.906 Z" fill="#000000" fill-rule="evenodd" fill-opacity="1" /><path clip-path="url(#clip540)" d="M91.9366 577.36 Q88.3255 577.36 86.4969 580.925 Q84.6913 584.467 84.6913 591.596 Q84.6913 598.703 86.4969 602.267 Q88.3255 605.809 91.9366 605.809 Q95.5709 605.809 97.3764 602.267 Q99.2051 598.703 99.2051 591.596 Q99.2051 584.467 97.3764 580.925 Q95.5709 577.36 91.9366 577.36 M91.9366 573.656 Q97.7468 573.656 100.802 578.263 Q103.881 582.846 103.881 591.596 Q103.881 600.323 100.802 604.929 Q97.7468 609.513 91.9366 609.513 Q86.1265 609.513 83.0478 604.929 Q79.9923 600.323 79.9923 591.596 Q79.9923 582.846 83.0478 578.263 Q86.1265 573.656 91.9366 573.656 Z" fill="#000000" fill-rule="evenodd" fill-opacity="1" /><path clip-path="url(#clip540)" d="M103.881 567.758 L127.993 567.758 L127.993 570.955 L103.881 570.955 L103.881 567.758 Z" fill="#000000" fill-rule="evenodd" fill-opacity="1" /><path clip-path="url(#clip540)" d="M147.703 566.291 Q150.43 566.874 151.954 568.717 Q153.496 570.56 153.496 573.269 Q153.496 577.425 150.637 579.701 Q147.778 581.977 142.512 581.977 Q140.744 581.977 138.863 581.619 Q137.002 581.281 135.008 580.585 L135.008 576.917 Q136.588 577.839 138.469 578.309 Q140.349 578.779 142.399 578.779 Q145.973 578.779 147.835 577.369 Q149.716 575.958 149.716 573.269 Q149.716 570.786 147.966 569.394 Q146.236 567.984 143.133 567.984 L139.86 567.984 L139.86 564.861 L143.283 564.861 Q146.086 564.861 147.571 563.752 Q149.057 562.623 149.057 560.517 Q149.057 558.354 147.515 557.207 Q145.992 556.041 143.133 556.041 Q141.572 556.041 139.785 556.379 Q137.998 556.718 135.854 557.432 L135.854 554.047 Q138.017 553.445 139.898 553.144 Q141.797 552.843 143.471 552.843 Q147.797 552.843 150.317 554.818 Q152.838 556.774 152.838 560.122 Q152.838 562.454 151.502 564.072 Q150.167 565.67 147.703 566.291 Z" fill="#000000" fill-rule="evenodd" fill-opacity="1" /><path clip-path="url(#clip540)" d="M53.3561 323.947 L60.995 323.947 L60.995 297.581 L52.6848 299.248 L52.6848 294.989 L60.9487 293.322 L65.6246 293.322 L65.6246 323.947 L73.2634 323.947 L73.2634 327.882 L53.3561 327.882 L53.3561 323.947 Z" fill="#000000" fill-rule="evenodd" fill-opacity="1" /><path clip-path="url(#clip540)" d="M92.7078 296.401 Q89.0967 296.401 87.268 299.965 Q85.4624 303.507 85.4624 310.637 Q85.4624 317.743 87.268 321.308 Q89.0967 324.85 92.7078 324.85 Q96.342 324.85 98.1475 321.308 Q99.9762 317.743 99.9762 310.637 Q99.9762 303.507 98.1475 299.965 Q96.342 296.401 92.7078 296.401 M92.7078 292.697 Q98.5179 292.697 101.573 297.303 Q104.652 301.887 104.652 310.637 Q104.652 319.364 101.573 323.97 Q98.5179 328.553 92.7078 328.553 Q86.8976 328.553 83.8189 323.97 Q80.7634 319.364 80.7634 310.637 Q80.7634 301.887 83.8189 297.303 Q86.8976 292.697 92.7078 292.697 Z" fill="#000000" fill-rule="evenodd" fill-opacity="1" /><path clip-path="url(#clip540)" d="M104.652 286.798 L128.764 286.798 L128.764 289.996 L104.652 289.996 L104.652 286.798 Z" fill="#000000" fill-rule="evenodd" fill-opacity="1" /><path clip-path="url(#clip540)" d="M140.236 297.274 L153.496 297.274 L153.496 300.472 L135.666 300.472 L135.666 297.274 Q137.829 295.036 141.553 291.275 Q145.296 287.494 146.255 286.403 Q148.079 284.353 148.794 282.943 Q149.527 281.513 149.527 280.14 Q149.527 277.902 147.948 276.492 Q146.387 275.081 143.866 275.081 Q142.08 275.081 140.086 275.702 Q138.111 276.322 135.854 277.583 L135.854 273.746 Q138.149 272.824 140.142 272.354 Q142.136 271.884 143.791 271.884 Q148.155 271.884 150.75 274.065 Q153.345 276.247 153.345 279.896 Q153.345 281.626 152.687 283.187 Q152.048 284.729 150.336 286.836 Q149.866 287.381 147.346 289.996 Q144.826 292.591 140.236 297.274 Z" fill="#000000" fill-rule="evenodd" fill-opacity="1" /><polyline clip-path="url(#clip543)" style="stroke:#009af9; stroke-linecap:butt; stroke-linejoin:round; stroke-width:12; stroke-opacity:1; fill:none" points="
  250.72,87.6286 542.265,330.216 833.809,514.353 1125.35,687.084 1416.9,858.286 1708.44,1028.53 1999.99,1198.15 2291.53,1367.54 
  "/>
<line clip-path="url(#clip543)" x1="250.72" y1="87.6286" x2="250.72" y2="71.6286" style="stroke:#009af9; stroke-width:3.2; stroke-opacity:1"/>
<line clip-path="url(#clip543)" x1="250.72" y1="87.6286" x2="234.72" y2="87.6286" style="stroke:#009af9; stroke-width:3.2; stroke-opacity:1"/>
<line clip-path="url(#clip543)" x1="250.72" y1="87.6286" x2="250.72" y2="103.629" style="stroke:#009af9; stroke-width:3.2; stroke-opacity:1"/>
<line clip-path="url(#clip543)" x1="250.72" y1="87.6286" x2="266.72" y2="87.6286" style="stroke:#009af9; stroke-width:3.2; stroke-opacity:1"/>
<line clip-path="url(#clip543)" x1="542.265" y1="330.216" x2="542.265" y2="314.216" style="stroke:#009af9; stroke-width:3.2; stroke-opacity:1"/>
<line clip-path="url(#clip543)" x1="542.265" y1="330.216" x2="526.265" y2="330.216" style="stroke:#009af9; stroke-width:3.2; stroke-opacity:1"/>
<line clip-path="url(#clip543)" x1="542.265" y1="330.216" x2="542.265" y2="346.216" style="stroke:#009af9; stroke-width:3.2; stroke-opacity:1"/>
<line clip-path="url(#clip543)" x1="542.265" y1="330.216" x2="558.265" y2="330.216" style="stroke:#009af9; stroke-width:3.2; stroke-opacity:1"/>
<line clip-path="url(#clip543)" x1="833.809" y1="514.353" x2="833.809" y2="498.353" style="stroke:#009af9; stroke-width:3.2; stroke-opacity:1"/>
<line clip-path="url(#clip543)" x1="833.809" y1="514.353" x2="817.809" y2="514.353" style="stroke:#009af9; stroke-width:3.2; stroke-opacity:1"/>
<line clip-path="url(#clip543)" x1="833.809" y1="514.353" x2="833.809" y2="530.353" style="stroke:#009af9; stroke-width:3.2; stroke-opacity:1"/>
<line clip-path="url(#clip543)" x1="833.809" y1="514.353" x2="849.809" y2="514.353" style="stroke:#009af9; stroke-width:3.2; stroke-opacity:1"/>
<line clip-path="url(#clip543)" x1="1125.35" y1="687.084" x2="1125.35" y2="671.084" style="stroke:#009af9; stroke-width:3.2; stroke-opacity:1"/>
<line clip-path="url(#clip543)" x1="1125.35" y1="687.084" x2="1109.35" y2="687.084" style="stroke:#009af9; stroke-width:3.2; stroke-opacity:1"/>
<line clip-path="url(#clip543)" x1="1125.35" y1="687.084" x2="1125.35" y2="703.084" style="stroke:#009af9; stroke-width:3.2; stroke-opacity:1"/>
<line clip-path="url(#clip543)" x1="1125.35" y1="687.084" x2="1141.35" y2="687.084" style="stroke:#009af9; stroke-width:3.2; stroke-opacity:1"/>
<line clip-path="url(#clip543)" x1="1416.9" y1="858.286" x2="1416.9" y2="842.286" style="stroke:#009af9; stroke-width:3.2; stroke-opacity:1"/>
<line clip-path="url(#clip543)" x1="1416.9" y1="858.286" x2="1400.9" y2="858.286" style="stroke:#009af9; stroke-width:3.2; stroke-opacity:1"/>
<line clip-path="url(#clip543)" x1="1416.9" y1="858.286" x2="1416.9" y2="874.286" style="stroke:#009af9; stroke-width:3.2; stroke-opacity:1"/>
<line clip-path="url(#clip543)" x1="1416.9" y1="858.286" x2="1432.9" y2="858.286" style="stroke:#009af9; stroke-width:3.2; stroke-opacity:1"/>
<line clip-path="url(#clip543)" x1="1708.44" y1="1028.53" x2="1708.44" y2="1012.53" style="stroke:#009af9; stroke-width:3.2; stroke-opacity:1"/>
<line clip-path="url(#clip543)" x1="1708.44" y1="1028.53" x2="1692.44" y2="1028.53" style="stroke:#009af9; stroke-width:3.2; stroke-opacity:1"/>
<line clip-path="url(#clip543)" x1="1708.44" y1="1028.53" x2="1708.44" y2="1044.53" style="stroke:#009af9; stroke-width:3.2; stroke-opacity:1"/>
<line clip-path="url(#clip543)" x1="1708.44" y1="1028.53" x2="1724.44" y2="1028.53" style="stroke:#009af9; stroke-width:3.2; stroke-opacity:1"/>
<line clip-path="url(#clip543)" x1="1999.99" y1="1198.15" x2="1999.99" y2="1182.15" style="stroke:#009af9; stroke-width:3.2; stroke-opacity:1"/>
<line clip-path="url(#clip543)" x1="1999.99" y1="1198.15" x2="1983.99" y2="1198.15" style="stroke:#009af9; stroke-width:3.2; stroke-opacity:1"/>
<line clip-path="url(#clip543)" x1="1999.99" y1="1198.15" x2="1999.99" y2="1214.15" style="stroke:#009af9; stroke-width:3.2; stroke-opacity:1"/>
<line clip-path="url(#clip543)" x1="1999.99" y1="1198.15" x2="2015.99" y2="1198.15" style="stroke:#009af9; stroke-width:3.2; stroke-opacity:1"/>
<line clip-path="url(#clip543)" x1="2291.53" y1="1367.54" x2="2291.53" y2="1351.54" style="stroke:#009af9; stroke-width:3.2; stroke-opacity:1"/>
<line clip-path="url(#clip543)" x1="2291.53" y1="1367.54" x2="2275.53" y2="1367.54" style="stroke:#009af9; stroke-width:3.2; stroke-opacity:1"/>
<line clip-path="url(#clip543)" x1="2291.53" y1="1367.54" x2="2291.53" y2="1383.54" style="stroke:#009af9; stroke-width:3.2; stroke-opacity:1"/>
<line clip-path="url(#clip543)" x1="2291.53" y1="1367.54" x2="2307.53" y2="1367.54" style="stroke:#009af9; stroke-width:3.2; stroke-opacity:1"/>
<polyline clip-path="url(#clip543)" style="stroke:#e26f46; stroke-linecap:butt; stroke-linejoin:round; stroke-width:12; stroke-opacity:1; fill:none" points="
  250.72,249.699 256.119,252.831 261.45,255.924 266.714,258.979 271.913,261.995 277.049,264.975 282.122,267.918 287.135,270.827 292.09,273.701 301.826,279.35 
  311.342,284.872 320.648,290.271 329.752,295.553 338.663,300.723 347.389,305.786 355.938,310.746 364.317,315.608 372.532,320.374 380.59,325.049 388.496,329.636 
  396.256,334.139 403.876,338.56 411.36,342.902 418.713,347.169 425.94,351.362 433.045,355.484 440.032,359.538 446.905,363.525 453.667,367.449 466.874,375.111 
  479.678,382.541 485.937,386.172 492.105,389.75 498.183,393.277 504.174,396.753 517.706,404.604 530.816,412.211 543.53,419.588 555.871,426.748 567.86,433.704 
  579.517,440.467 590.859,447.048 601.903,453.456 612.665,459.7 623.159,465.788 633.397,471.728 643.391,477.527 662.695,488.727 681.152,499.436 698.833,509.694 
  715.8,519.539 732.109,529.001 747.81,538.111 777.555,555.369 805.335,571.487 831.393,586.606 855.93,600.842 879.115,614.294 901.088,627.043 941.864,650.701 
  979.034,672.268 1013.18,692.082 1044.77,710.407 1074.15,727.452 1101.61,743.384 1151.67,772.43 1196.4,798.384 1244.54,826.316 1287.74,851.376 1326.9,874.102 
  1362.73,894.89 1417.13,926.454 1465.3,954.399 1554.1,1005.92 1622.1,1045.37 1684.54,1081.6 1746.91,1117.79 1795.5,1145.98 1833.93,1168.28 1872.18,1190.47 
  1907.44,1210.93 1943.27,1231.72 1974.74,1249.98 2005.14,1267.61 2029.13,1281.53 2056.68,1297.52 2080.42,1311.29 2101.22,1323.36 2121.29,1335.01 2142.7,1347.43 
  2161.2,1358.16 2181.43,1369.9 2199.33,1380.29 2216.27,1390.11 2232.08,1399.29 2247.7,1408.35 2264.17,1417.9 2287,1431.15 2291.53,1433.78 
  "/>
<path clip-path="url(#clip540)" d="
M1943.53 250.328 L2280.65 250.328 L2280.65 94.8081 L1943.53 94.8081  Z
  " fill="#ffffff" fill-rule="evenodd" fill-opacity="1"/>
<polyline clip-path="url(#clip540)" style="stroke:#000000; stroke-linecap:butt; stroke-linejoin:round; stroke-width:4; stroke-opacity:1; fill:none" points="
  1943.53,250.328 2280.65,250.328 2280.65,94.8081 1943.53,94.8081 1943.53,250.328 
  "/>
<polyline clip-path="url(#clip540)" style="stroke:#009af9; stroke-linecap:butt; stroke-linejoin:round; stroke-width:4; stroke-opacity:1; fill:none" points="
  1967.57,146.648 2111.79,146.648 
  "/>
<line clip-path="url(#clip540)" x1="2039.68" y1="146.648" x2="2039.68" y2="121.048" style="stroke:#009af9; stroke-width:5.12; stroke-opacity:1"/>
<line clip-path="url(#clip540)" x1="2039.68" y1="146.648" x2="2014.08" y2="146.648" style="stroke:#009af9; stroke-width:5.12; stroke-opacity:1"/>
<line clip-path="url(#clip540)" x1="2039.68" y1="146.648" x2="2039.68" y2="172.248" style="stroke:#009af9; stroke-width:5.12; stroke-opacity:1"/>
<line clip-path="url(#clip540)" x1="2039.68" y1="146.648" x2="2065.28" y2="146.648" style="stroke:#009af9; stroke-width:5.12; stroke-opacity:1"/>
<path clip-path="url(#clip540)" d="M2149.66 166.336 Q2147.86 170.965 2146.15 172.377 Q2144.43 173.789 2141.56 173.789 L2138.16 173.789 L2138.16 170.224 L2140.66 170.224 Q2142.42 170.224 2143.39 169.391 Q2144.36 168.558 2145.54 165.456 L2146.31 163.511 L2135.82 138.002 L2140.34 138.002 L2148.44 158.28 L2156.54 138.002 L2161.05 138.002 L2149.66 166.336 Z" fill="#000000" fill-rule="evenodd" fill-opacity="1" /><path clip-path="url(#clip540)" d="M2168.35 159.993 L2175.98 159.993 L2175.98 133.627 L2167.67 135.294 L2167.67 131.035 L2175.94 129.368 L2180.61 129.368 L2180.61 159.993 L2188.25 159.993 L2188.25 163.928 L2168.35 163.928 L2168.35 159.993 Z" fill="#000000" fill-rule="evenodd" fill-opacity="1" /><polyline clip-path="url(#clip540)" style="stroke:#e26f46; stroke-linecap:butt; stroke-linejoin:round; stroke-width:4; stroke-opacity:1; fill:none" points="
  1967.57,198.488 2111.79,198.488 
  "/>
<path clip-path="url(#clip540)" d="M2135.82 183.461 L2135.82 181.962 Q2141.58 181.962 2144.56 178.893 Q2145.38 178.893 2145.52 179.081 Q2145.66 179.268 2145.66 180.135 L2145.66 207.047 Q2145.66 208.476 2146.36 208.921 Q2147.07 209.366 2150.13 209.366 L2151.66 209.366 L2151.66 210.842 Q2149.97 210.701 2143.88 210.701 Q2137.79 210.701 2136.13 210.842 L2136.13 209.366 L2137.65 209.366 Q2140.67 209.366 2141.4 208.944 Q2142.12 208.499 2142.12 207.047 L2142.12 182.196 Q2139.62 183.461 2135.82 183.461 Z" fill="#000000" fill-rule="evenodd" fill-opacity="1" /><path clip-path="url(#clip540)" d="M2159.57 222.155 Q2159.57 221.92 2159.76 221.405 L2176.69 176.153 Q2176.69 176.106 2176.81 175.848 Q2176.93 175.591 2177 175.427 Q2177.07 175.24 2177.21 175.099 Q2177.37 174.958 2177.56 174.958 Q2178.03 174.958 2178.03 175.544 Q2178.03 175.591 2177.89 176.153 L2160.91 221.452 Q2160.63 222.272 2160.44 222.506 Q2160.27 222.74 2159.99 222.74 Q2159.57 222.74 2159.57 222.155 Z" fill="#000000" fill-rule="evenodd" fill-opacity="1" /><path clip-path="url(#clip540)" d="M2209.32 203.979 Q2209.32 204.166 2209.11 204.892 Q2208.9 205.618 2208.38 206.743 Q2207.89 207.867 2207.21 208.898 Q2206.53 209.905 2205.41 210.654 Q2204.31 211.38 2203.04 211.38 Q2201.36 211.38 2200.23 210.256 Q2199.11 209.132 2199.11 207.445 Q2199.11 206.508 2199.6 205.22 Q2202.72 196.905 2202.72 194.048 Q2202.72 190.698 2200.12 190.698 Q2198.83 190.698 2197.61 191.19 Q2196.42 191.659 2195.6 192.314 Q2194.78 192.97 2194.03 193.884 Q2193.3 194.774 2192.93 195.383 Q2192.57 195.968 2192.29 196.554 L2191.68 198.943 Q2191.54 199.599 2190.86 202.152 L2189.81 206.485 Q2189.06 209.717 2188.9 210.022 Q2188.66 210.678 2188.15 211.029 Q2187.63 211.38 2187.12 211.38 Q2186.53 211.38 2186.13 211.029 Q2185.73 210.678 2185.73 210.069 Q2185.73 209.975 2185.81 209.624 Q2185.88 209.272 2185.99 208.78 Q2186.11 208.289 2186.16 208.008 L2188.94 196.929 Q2189.46 194.914 2189.58 194.282 Q2189.72 193.626 2189.72 192.9 Q2189.72 190.698 2188.22 190.698 Q2187 190.698 2186.2 192.151 Q2185.41 193.603 2184.73 196.413 Q2184.52 197.186 2184.38 197.35 Q2184.26 197.514 2183.91 197.514 Q2183.32 197.491 2183.32 197.022 Q2183.32 196.905 2183.51 196.132 Q2183.7 195.359 2184.05 194.259 Q2184.42 193.134 2184.77 192.385 Q2185.08 191.823 2185.24 191.565 Q2185.43 191.284 2185.88 190.745 Q2186.34 190.183 2186.95 189.925 Q2187.59 189.644 2188.36 189.644 Q2190.09 189.644 2191.36 190.769 Q2192.62 191.869 2192.78 193.814 Q2195.9 189.644 2200.26 189.644 Q2202.83 189.644 2204.31 191.003 Q2205.78 192.361 2205.78 194.774 Q2205.78 195.336 2205.67 196.062 Q2205.57 196.765 2205.34 197.655 Q2205.13 198.545 2204.94 199.224 Q2204.75 199.903 2204.38 201.004 Q2204 202.082 2203.84 202.55 Q2203.68 203.019 2203.28 204.119 Q2202.9 205.197 2202.86 205.314 Q2201.99 207.492 2201.99 208.734 Q2201.99 209.553 2202.25 209.928 Q2202.53 210.303 2203.14 210.303 Q2204.78 210.303 2206 208.687 Q2207.24 207.047 2208.03 204.377 Q2208.22 203.791 2208.31 203.651 Q2208.43 203.51 2208.76 203.51 Q2209.32 203.51 2209.32 203.979 Z" fill="#000000" fill-rule="evenodd" fill-opacity="1" /><path clip-path="url(#clip540)" d="M2214.18 196.502 Q2214.18 195.895 2214.23 195.715 Q2214.29 195.534 2214.55 195.256 L2221 188.074 Q2224.52 184.107 2224.52 180.647 Q2224.52 178.401 2223.34 176.794 Q2222.18 175.187 2220.03 175.187 Q2218.55 175.187 2217.31 176.089 Q2216.06 176.991 2215.49 178.598 Q2215.59 178.565 2215.93 178.565 Q2216.77 178.565 2217.23 179.09 Q2217.7 179.614 2217.7 180.319 Q2217.7 181.221 2217.11 181.664 Q2216.54 182.09 2215.96 182.09 Q2215.73 182.09 2215.42 182.041 Q2215.13 181.992 2214.65 181.533 Q2214.18 181.057 2214.18 180.221 Q2214.18 177.876 2215.95 176.007 Q2217.73 174.138 2220.46 174.138 Q2223.54 174.138 2225.56 175.974 Q2227.59 177.794 2227.59 180.647 Q2227.59 181.647 2227.28 182.565 Q2226.98 183.467 2226.57 184.172 Q2226.18 184.877 2225.1 186.009 Q2224.01 187.14 2223.15 187.943 Q2222.28 188.747 2220.33 190.452 L2216.77 193.911 L2222.82 193.911 Q2225.77 193.911 2226 193.649 Q2226.33 193.173 2226.74 190.665 L2227.59 190.665 L2226.64 196.502 L2214.18 196.502 Z" fill="#000000" fill-rule="evenodd" fill-opacity="1" /></svg>
