<?xml version="1.0" encoding="utf-8"?>
<svg xmlns="http://www.w3.org/2000/svg" xmlns:xlink="http://www.w3.org/1999/xlink" width="600" height="400" viewBox="0 0 2400 1600">
<defs>
  <clipPath id="clip050">
    <rect x="0" y="0" width="2400" height="1600"/>
  </clipPath>
</defs>
<path clip-path="url(#clip050)" d="
M0 1600 L2400 1600 L2400 0 L0 0  Z
  " fill="#ffffff" fill-rule="evenodd" fill-opacity="1"/>
<defs>
  <clipPath id="clip051">
    <rect x="480" y="0" width="1681" height="1600"/>
  </clipPath>
</defs>
<path clip-path="url(#clip050)" d="
M156.598 1486.45 L2352.76 1486.45 L2352.76 47.2441 L156.598 47.2441  Z
  " fill="#ffffff" fill-rule="evenodd" fill-opacity="1"/>
<defs>
  <clipPath id="clip052">
    <rect x="156" y="47" width="2197" height="1440"/>
  </clipPath>
</defs>
<polyline clip-path="url(#clip052)" style="stroke:#000000; stroke-linecap:butt; stroke-linejoin:round; stroke-width:2; stroke-opacity:0.1; fill:none" points="
  218.754,1486.45 218.754,47.2441 
  "/>
<polyline clip-path="url(#clip052)" style="stroke:#000000; stroke-linecap:butt; stroke-linejoin:round; stroke-width:2; stroke-opacity:0.1; fill:none" points="
  564.061,1486.45 564.061,47.2441 
  "/>
<polyline clip-path="url(#clip052)" style="stroke:#000000; stroke-linecap:butt; stroke-linejoin:round; stroke-width:2; stroke-opacity:0.1; fill:none" points="
  909.369,1486.45 909.369,47.2441 
  "/>
<polyline clip-path="url(#clip052)" style="stroke:#000000; stroke-linecap:butt; stroke-linejoin:round; stroke-width:2; stroke-opacity:0.1; fill:none" points="
  1254.68,1486.45 1254.68,47.2441 
  "/>
<polyline clip-path="url(#clip052)" style="stroke:#000000; stroke-linecap:butt; stroke-linejoin:round; stroke-width:2; stroke-opacity:0.1; fill:none" points="
  1599.98,1486.45 1599.98,47.2441 
  "/>
<polyline clip-path="url(#clip052)" style="stroke:#000000; stroke-linecap:butt; stroke-linejoin:round; stroke-width:2; stroke-opacity:0.1; fill:none" points="
  1945.29,1486.45 1945.29,47.2441 
  "/>
<polyline clip-path="url(#clip052)" style="stroke:#000000; stroke-linecap:butt; stroke-linejoin:round; stroke-width:2; stroke-opacity:0.1; fill:none" points="
  2290.6,1486.45 2290.6,47.2441 
  "/>
<polyline clip-path="url(#clip050)" style="stroke:#000000; stroke-linecap:butt; stroke-linejoin:round; stroke-width:4; stroke-opacity:1; fill:none" points="
  156.598,1486.45 2352.76,1486.45 
  "/>
<polyline clip-path="url(#clip050)" style="stroke:#000000; stroke-linecap:butt; stroke-linejoin:round; stroke-width:4; stroke-opacity:1; fill:none" points="
  218.754,1486.45 218.754,1467.55 
  "/>
<polyline clip-path="url(#clip050)" style="stroke:#000000; stroke-linecap:butt; stroke-linejoin:round; stroke-width:4; stroke-opacity:1; fill:none" points="
  564.061,1486.45 564.061,1467.55 
  "/>
<polyline clip-path="url(#clip050)" style="stroke:#000000; stroke-linecap:butt; stroke-linejoin:round; stroke-width:4; stroke-opacity:1; fill:none" points="
  909.369,1486.45 909.369,1467.55 
  "/>
<polyline clip-path="url(#clip050)" style="stroke:#000000; stroke-linecap:butt; stroke-linejoin:round; stroke-width:4; stroke-opacity:1; fill:none" points="
  1254.68,1486.45 1254.68,1467.55 
  "/>
<polyline clip-path="url(#clip050)" style="stroke:#000000; stroke-linecap:butt; stroke-linejoin:round; stroke-width:4; stroke-opacity:1; fill:none" points="
  1599.98,1486.45 1599.98,1467.55 
  "/>
<polyline clip-path="url(#clip050)" style="stroke:#000000; stroke-linecap:butt; stroke-linejoin:round; stroke-width:4; stroke-opacity:1; fill:none" points="
  1945.29,1486.45 1945.29,1467.55 
  "/>
<polyline clip-path="url(#clip050)" style="stroke:#000000; stroke-linecap:butt; stroke-linejoin:round; stroke-width:4; stroke-opacity:1; fill:none" points="
  2290.6,1486.45 2290.6,1467.55 
  "/>
<path clip-path="url(#clip050)" d="M188.221 1532.02 L217.897 1532.02 L217.897 1535.95 L188.221 1535.95 L188.221 1532.02 Z" fill="#000000" fill-rule="evenodd" fill-opacity="1" /><path clip-path="url(#clip050)" d="M242.156 1530.21 Q245.513 1530.93 247.388 1533.2 Q249.286 1535.47 249.286 1538.8 Q249.286 1543.92 245.767 1546.72 Q242.249 1549.52 235.767 1549.52 Q233.592 1549.52 231.277 1549.08 Q228.985 1548.66 226.531 1547.81 L226.531 1543.29 Q228.476 1544.43 230.791 1545.01 Q233.105 1545.58 235.629 1545.58 Q240.027 1545.58 242.318 1543.85 Q244.633 1542.11 244.633 1538.8 Q244.633 1535.75 242.48 1534.03 Q240.351 1532.3 236.531 1532.3 L232.504 1532.3 L232.504 1528.45 L236.717 1528.45 Q240.166 1528.45 241.994 1527.09 Q243.823 1525.7 243.823 1523.11 Q243.823 1520.45 241.925 1519.03 Q240.05 1517.6 236.531 1517.6 Q234.61 1517.6 232.411 1518.01 Q230.212 1518.43 227.573 1519.31 L227.573 1515.14 Q230.235 1514.4 232.55 1514.03 Q234.888 1513.66 236.948 1513.66 Q242.272 1513.66 245.374 1516.09 Q248.476 1518.5 248.476 1522.62 Q248.476 1525.49 246.832 1527.48 Q245.189 1529.45 242.156 1530.21 Z" fill="#000000" fill-rule="evenodd" fill-opacity="1" /><path clip-path="url(#clip050)" d="M534.004 1532.02 L563.68 1532.02 L563.68 1535.95 L534.004 1535.95 L534.004 1532.02 Z" fill="#000000" fill-rule="evenodd" fill-opacity="1" /><path clip-path="url(#clip050)" d="M577.8 1544.91 L594.119 1544.91 L594.119 1548.85 L572.175 1548.85 L572.175 1544.91 Q574.837 1542.16 579.42 1537.53 Q584.027 1532.88 585.207 1531.53 Q587.453 1529.01 588.332 1527.27 Q589.235 1525.51 589.235 1523.82 Q589.235 1521.07 587.29 1519.33 Q585.369 1517.6 582.267 1517.6 Q580.068 1517.6 577.615 1518.36 Q575.184 1519.13 572.406 1520.68 L572.406 1515.95 Q575.23 1514.82 577.684 1514.24 Q580.138 1513.66 582.175 1513.66 Q587.545 1513.66 590.74 1516.35 Q593.934 1519.03 593.934 1523.52 Q593.934 1525.65 593.124 1527.57 Q592.337 1529.47 590.23 1532.07 Q589.652 1532.74 586.55 1535.95 Q583.448 1539.15 577.8 1544.91 Z" fill="#000000" fill-rule="evenodd" fill-opacity="1" /><path clip-path="url(#clip050)" d="M879.126 1532.02 L908.802 1532.02 L908.802 1535.95 L879.126 1535.95 L879.126 1532.02 Z" fill="#000000" fill-rule="evenodd" fill-opacity="1" /><path clip-path="url(#clip050)" d="M919.705 1544.91 L927.344 1544.91 L927.344 1518.55 L919.034 1520.21 L919.034 1515.95 L927.297 1514.29 L931.973 1514.29 L931.973 1544.91 L939.612 1544.91 L939.612 1548.85 L919.705 1548.85 L919.705 1544.91 Z" fill="#000000" fill-rule="evenodd" fill-opacity="1" /><path clip-path="url(#clip050)" d="M1254.68 1517.37 Q1251.07 1517.37 1249.24 1520.93 Q1247.43 1524.47 1247.43 1531.6 Q1247.43 1538.71 1249.24 1542.27 Q1251.07 1545.82 1254.68 1545.82 Q1258.31 1545.82 1260.12 1542.27 Q1261.95 1538.71 1261.95 1531.6 Q1261.95 1524.47 1260.12 1520.93 Q1258.31 1517.37 1254.68 1517.37 M1254.68 1513.66 Q1260.49 1513.66 1263.54 1518.27 Q1266.62 1522.85 1266.62 1531.6 Q1266.62 1540.33 1263.54 1544.94 Q1260.49 1549.52 1254.68 1549.52 Q1248.87 1549.52 1245.79 1544.94 Q1242.73 1540.33 1242.73 1531.6 Q1242.73 1522.85 1245.79 1518.27 Q1248.87 1513.66 1254.68 1513.66 Z" fill="#000000" fill-rule="evenodd" fill-opacity="1" /><path clip-path="url(#clip050)" d="M1590.37 1544.91 L1598.01 1544.91 L1598.01 1518.55 L1589.7 1520.21 L1589.7 1515.95 L1597.96 1514.29 L1602.64 1514.29 L1602.64 1544.91 L1610.27 1544.91 L1610.27 1548.85 L1590.37 1548.85 L1590.37 1544.91 Z" fill="#000000" fill-rule="evenodd" fill-opacity="1" /><path clip-path="url(#clip050)" d="M1939.95 1544.91 L1956.26 1544.91 L1956.26 1548.85 L1934.32 1548.85 L1934.32 1544.91 Q1936.98 1542.16 1941.57 1537.53 Q1946.17 1532.88 1947.35 1531.53 Q1949.6 1529.01 1950.48 1527.27 Q1951.38 1525.51 1951.38 1523.82 Q1951.38 1521.07 1949.44 1519.33 Q1947.51 1517.6 1944.41 1517.6 Q1942.21 1517.6 1939.76 1518.36 Q1937.33 1519.13 1934.55 1520.68 L1934.55 1515.95 Q1937.38 1514.82 1939.83 1514.24 Q1942.28 1513.66 1944.32 1513.66 Q1949.69 1513.66 1952.89 1516.35 Q1956.08 1519.03 1956.08 1523.52 Q1956.08 1525.65 1955.27 1527.57 Q1954.48 1529.47 1952.38 1532.07 Q1951.8 1532.74 1948.7 1535.95 Q1945.59 1539.15 1939.95 1544.91 Z" fill="#000000" fill-rule="evenodd" fill-opacity="1" /><path clip-path="url(#clip050)" d="M2294.85 1530.21 Q2298.2 1530.93 2300.08 1533.2 Q2301.98 1535.47 2301.98 1538.8 Q2301.98 1543.92 2298.46 1546.72 Q2294.94 1549.52 2288.46 1549.52 Q2286.28 1549.52 2283.97 1549.08 Q2281.68 1548.66 2279.22 1547.81 L2279.22 1543.29 Q2281.17 1544.43 2283.48 1545.01 Q2285.8 1545.58 2288.32 1545.58 Q2292.72 1545.58 2295.01 1543.85 Q2297.33 1542.11 2297.33 1538.8 Q2297.33 1535.75 2295.17 1534.03 Q2293.04 1532.3 2289.22 1532.3 L2285.2 1532.3 L2285.2 1528.45 L2289.41 1528.45 Q2292.86 1528.45 2294.69 1527.09 Q2296.51 1525.7 2296.51 1523.11 Q2296.51 1520.45 2294.62 1519.03 Q2292.74 1517.6 2289.22 1517.6 Q2287.3 1517.6 2285.1 1518.01 Q2282.9 1518.43 2280.26 1519.31 L2280.26 1515.14 Q2282.93 1514.4 2285.24 1514.03 Q2287.58 1513.66 2289.64 1513.66 Q2294.96 1513.66 2298.07 1516.09 Q2301.17 1518.5 2301.17 1522.62 Q2301.17 1525.49 2299.52 1527.48 Q2297.88 1529.45 2294.85 1530.21 Z" fill="#000000" fill-rule="evenodd" fill-opacity="1" /><polyline clip-path="url(#clip052)" style="stroke:#000000; stroke-linecap:butt; stroke-linejoin:round; stroke-width:2; stroke-opacity:0.1; fill:none" points="
  156.598,1445.72 2352.76,1445.72 
  "/>
<polyline clip-path="url(#clip052)" style="stroke:#000000; stroke-linecap:butt; stroke-linejoin:round; stroke-width:2; stroke-opacity:0.1; fill:none" points="
  156.598,1140.22 2352.76,1140.22 
  "/>
<polyline clip-path="url(#clip052)" style="stroke:#000000; stroke-linecap:butt; stroke-linejoin:round; stroke-width:2; stroke-opacity:0.1; fill:none" points="
  156.598,834.733 2352.76,834.733 
  "/>
<polyline clip-path="url(#clip052)" style="stroke:#000000; stroke-linecap:butt; stroke-linejoin:round; stroke-width:2; stroke-opacity:0.1; fill:none" points="
  156.598,529.242 2352.76,529.242 
  "/>
<polyline clip-path="url(#clip052)" style="stroke:#000000; stroke-linecap:butt; stroke-linejoin:round; stroke-width:2; stroke-opacity:0.1; fill:none" points="
  156.598,223.75 2352.76,223.75 
  "/>
<polyline clip-path="url(#clip050)" style="stroke:#000000; stroke-linecap:butt; stroke-linejoin:round; stroke-width:4; stroke-opacity:1; fill:none" points="
  156.598,1486.45 156.598,47.2441 
  "/>
<polyline clip-path="url(#clip050)" style="stroke:#000000; stroke-linecap:butt; stroke-linejoin:round; stroke-width:4; stroke-opacity:1; fill:none" points="
  156.598,1445.72 175.496,1445.72 
  "/>
<polyline clip-path="url(#clip050)" style="stroke:#000000; stroke-linecap:butt; stroke-linejoin:round; stroke-width:4; stroke-opacity:1; fill:none" points="
  156.598,1140.22 175.496,1140.22 
  "/>
<polyline clip-path="url(#clip050)" style="stroke:#000000; stroke-linecap:butt; stroke-linejoin:round; stroke-width:4; stroke-opacity:1; fill:none" points="
  156.598,834.733 175.496,834.733 
  "/>
<polyline clip-path="url(#clip050)" style="stroke:#000000; stroke-linecap:butt; stroke-linejoin:round; stroke-width:4; stroke-opacity:1; fill:none" points="
  156.598,529.242 175.496,529.242 
  "/>
<polyline clip-path="url(#clip050)" style="stroke:#000000; stroke-linecap:butt; stroke-linejoin:round; stroke-width:4; stroke-opacity:1; fill:none" points="
  156.598,223.75 175.496,223.75 
  "/>
<path clip-path="url(#clip050)" d="M63.4226 1431.51 Q59.8115 1431.51 57.9828 1435.08 Q56.1773 1438.62 56.1773 1445.75 Q56.1773 1452.86 57.9828 1456.42 Q59.8115 1459.96 63.4226 1459.96 Q67.0569 1459.96 68.8624 1456.42 Q70.6911 1452.86 70.6911 1445.75 Q70.6911 1438.62 68.8624 1435.08 Q67.0569 1431.51 63.4226 1431.51 M63.4226 1427.81 Q69.2328 1427.81 72.2883 1432.42 Q75.367 1437 75.367 1445.75 Q75.367 1454.48 72.2883 1459.08 Q69.2328 1463.67 63.4226 1463.67 Q57.6125 1463.67 54.5338 1459.08 Q51.4782 1454.48 51.4782 1445.75 Q51.4782 1437 54.5338 1432.42 Q57.6125 1427.81 63.4226 1427.81 Z" fill="#000000" fill-rule="evenodd" fill-opacity="1" /><path clip-path="url(#clip050)" d="M83.5845 1457.12 L88.4688 1457.12 L88.4688 1463 L83.5845 1463 L83.5845 1457.12 Z" fill="#000000" fill-rule="evenodd" fill-opacity="1" /><path clip-path="url(#clip050)" d="M108.654 1431.51 Q105.043 1431.51 103.214 1435.08 Q101.409 1438.62 101.409 1445.75 Q101.409 1452.86 103.214 1456.42 Q105.043 1459.96 108.654 1459.96 Q112.288 1459.96 114.094 1456.42 Q115.922 1452.86 115.922 1445.75 Q115.922 1438.62 114.094 1435.08 Q112.288 1431.51 108.654 1431.51 M108.654 1427.81 Q114.464 1427.81 117.52 1432.42 Q120.598 1437 120.598 1445.75 Q120.598 1454.48 117.52 1459.08 Q114.464 1463.67 108.654 1463.67 Q102.844 1463.67 99.765 1459.08 Q96.7095 1454.48 96.7095 1445.75 Q96.7095 1437 99.765 1432.42 Q102.844 1427.81 108.654 1427.81 Z" fill="#000000" fill-rule="evenodd" fill-opacity="1" /><path clip-path="url(#clip050)" d="M65.0198 1126.02 Q61.4087 1126.02 59.58 1129.59 Q57.7745 1133.13 57.7745 1140.26 Q57.7745 1147.37 59.58 1150.93 Q61.4087 1154.47 65.0198 1154.47 Q68.6541 1154.47 70.4596 1150.93 Q72.2883 1147.37 72.2883 1140.26 Q72.2883 1133.13 70.4596 1129.59 Q68.6541 1126.02 65.0198 1126.02 M65.0198 1122.32 Q70.83 1122.32 73.8855 1126.93 Q76.9642 1131.51 76.9642 1140.26 Q76.9642 1148.99 73.8855 1153.59 Q70.83 1158.18 65.0198 1158.18 Q59.2097 1158.18 56.131 1153.59 Q53.0754 1148.99 53.0754 1140.26 Q53.0754 1131.51 56.131 1126.93 Q59.2097 1122.32 65.0198 1122.32 Z" fill="#000000" fill-rule="evenodd" fill-opacity="1" /><path clip-path="url(#clip050)" d="M85.1818 1151.62 L90.066 1151.62 L90.066 1157.5 L85.1818 1157.5 L85.1818 1151.62 Z" fill="#000000" fill-rule="evenodd" fill-opacity="1" /><path clip-path="url(#clip050)" d="M104.279 1153.57 L120.598 1153.57 L120.598 1157.5 L98.6539 1157.5 L98.6539 1153.57 Q101.316 1150.81 105.899 1146.18 Q110.506 1141.53 111.686 1140.19 Q113.932 1137.67 114.811 1135.93 Q115.714 1134.17 115.714 1132.48 Q115.714 1129.73 113.77 1127.99 Q111.848 1126.25 108.746 1126.25 Q106.547 1126.25 104.094 1127.02 Q101.663 1127.78 98.8854 1129.33 L98.8854 1124.61 Q101.709 1123.48 104.163 1122.9 Q106.617 1122.32 108.654 1122.32 Q114.024 1122.32 117.219 1125 Q120.413 1127.69 120.413 1132.18 Q120.413 1134.31 119.603 1136.23 Q118.816 1138.13 116.709 1140.72 Q116.131 1141.39 113.029 1144.61 Q109.927 1147.81 104.279 1153.57 Z" fill="#000000" fill-rule="evenodd" fill-opacity="1" /><path clip-path="url(#clip050)" d="M62.9365 820.532 Q59.3254 820.532 57.4967 824.096 Q55.6912 827.638 55.6912 834.768 Q55.6912 841.874 57.4967 845.439 Q59.3254 848.981 62.9365 848.981 Q66.5707 848.981 68.3763 845.439 Q70.205 841.874 70.205 834.768 Q70.205 827.638 68.3763 824.096 Q66.5707 820.532 62.9365 820.532 M62.9365 816.828 Q68.7467 816.828 71.8022 821.434 Q74.8809 826.018 74.8809 834.768 Q74.8809 843.494 71.8022 848.101 Q68.7467 852.684 62.9365 852.684 Q57.1264 852.684 54.0477 848.101 Q50.9921 843.494 50.9921 834.768 Q50.9921 826.018 54.0477 821.434 Q57.1264 816.828 62.9365 816.828 Z" fill="#000000" fill-rule="evenodd" fill-opacity="1" /><path clip-path="url(#clip050)" d="M83.0984 846.133 L87.9827 846.133 L87.9827 852.013 L83.0984 852.013 L83.0984 846.133 Z" fill="#000000" fill-rule="evenodd" fill-opacity="1" /><path clip-path="url(#clip050)" d="M111.015 821.527 L99.2095 839.976 L111.015 839.976 L111.015 821.527 M109.788 817.453 L115.668 817.453 L115.668 839.976 L120.598 839.976 L120.598 843.865 L115.668 843.865 L115.668 852.013 L111.015 852.013 L111.015 843.865 L95.4132 843.865 L95.4132 839.351 L109.788 817.453 Z" fill="#000000" fill-rule="evenodd" fill-opacity="1" /><path clip-path="url(#clip050)" d="M63.2606 515.04 Q59.6495 515.04 57.8208 518.605 Q56.0152 522.147 56.0152 529.276 Q56.0152 536.383 57.8208 539.948 Q59.6495 543.489 63.2606 543.489 Q66.8948 543.489 68.7004 539.948 Q70.5291 536.383 70.5291 529.276 Q70.5291 522.147 68.7004 518.605 Q66.8948 515.04 63.2606 515.04 M63.2606 511.337 Q69.0707 511.337 72.1263 515.943 Q75.205 520.526 75.205 529.276 Q75.205 538.003 72.1263 542.61 Q69.0707 547.193 63.2606 547.193 Q57.4504 547.193 54.3717 542.61 Q51.3162 538.003 51.3162 529.276 Q51.3162 520.526 54.3717 515.943 Q57.4504 511.337 63.2606 511.337 Z" fill="#000000" fill-rule="evenodd" fill-opacity="1" /><path clip-path="url(#clip050)" d="M83.4225 540.642 L88.3067 540.642 L88.3067 546.522 L83.4225 546.522 L83.4225 540.642 Z" fill="#000000" fill-rule="evenodd" fill-opacity="1" /><path clip-path="url(#clip050)" d="M109.071 527.378 Q105.922 527.378 104.071 529.531 Q102.242 531.684 102.242 535.434 Q102.242 539.161 104.071 541.336 Q105.922 543.489 109.071 543.489 Q112.219 543.489 114.047 541.336 Q115.899 539.161 115.899 535.434 Q115.899 531.684 114.047 529.531 Q112.219 527.378 109.071 527.378 M118.353 512.725 L118.353 516.985 Q116.594 516.151 114.788 515.712 Q113.006 515.272 111.246 515.272 Q106.617 515.272 104.163 518.397 Q101.733 521.522 101.385 527.841 Q102.751 525.827 104.811 524.762 Q106.871 523.674 109.348 523.674 Q114.557 523.674 117.566 526.846 Q120.598 529.994 120.598 535.434 Q120.598 540.758 117.45 543.975 Q114.302 547.193 109.071 547.193 Q103.075 547.193 99.9039 542.61 Q96.7326 538.003 96.7326 529.276 Q96.7326 521.082 100.621 516.221 Q104.51 511.337 111.061 511.337 Q112.82 511.337 114.603 511.684 Q116.408 512.031 118.353 512.725 Z" fill="#000000" fill-rule="evenodd" fill-opacity="1" /><path clip-path="url(#clip050)" d="M63.5152 209.549 Q59.9041 209.549 58.0754 213.114 Q56.2699 216.655 56.2699 223.785 Q56.2699 230.891 58.0754 234.456 Q59.9041 237.998 63.5152 237.998 Q67.1494 237.998 68.955 234.456 Q70.7837 230.891 70.7837 223.785 Q70.7837 216.655 68.955 213.114 Q67.1494 209.549 63.5152 209.549 M63.5152 205.845 Q69.3254 205.845 72.3809 210.452 Q75.4596 215.035 75.4596 223.785 Q75.4596 232.512 72.3809 237.118 Q69.3254 241.702 63.5152 241.702 Q57.7051 241.702 54.6264 237.118 Q51.5708 232.512 51.5708 223.785 Q51.5708 215.035 54.6264 210.452 Q57.7051 205.845 63.5152 205.845 Z" fill="#000000" fill-rule="evenodd" fill-opacity="1" /><path clip-path="url(#clip050)" d="M83.6771 235.151 L88.5614 235.151 L88.5614 241.03 L83.6771 241.03 L83.6771 235.151 Z" fill="#000000" fill-rule="evenodd" fill-opacity="1" /><path clip-path="url(#clip050)" d="M108.746 224.618 Q105.413 224.618 103.492 226.401 Q101.594 228.183 101.594 231.308 Q101.594 234.433 103.492 236.215 Q105.413 237.998 108.746 237.998 Q112.08 237.998 114.001 236.215 Q115.922 234.41 115.922 231.308 Q115.922 228.183 114.001 226.401 Q112.103 224.618 108.746 224.618 M104.071 222.628 Q101.061 221.887 99.3715 219.827 Q97.7048 217.766 97.7048 214.804 Q97.7048 210.66 100.645 208.253 Q103.608 205.845 108.746 205.845 Q113.908 205.845 116.848 208.253 Q119.788 210.66 119.788 214.804 Q119.788 217.766 118.098 219.827 Q116.432 221.887 113.445 222.628 Q116.825 223.415 118.7 225.706 Q120.598 227.998 120.598 231.308 Q120.598 236.331 117.52 239.016 Q114.464 241.702 108.746 241.702 Q103.029 241.702 99.9502 239.016 Q96.8947 236.331 96.8947 231.308 Q96.8947 227.998 98.7928 225.706 Q100.691 223.415 104.071 222.628 M102.358 215.243 Q102.358 217.928 104.024 219.433 Q105.714 220.938 108.746 220.938 Q111.756 220.938 113.445 219.433 Q115.158 217.928 115.158 215.243 Q115.158 212.558 113.445 211.054 Q111.756 209.549 108.746 209.549 Q105.714 209.549 104.024 211.054 Q102.358 212.558 102.358 215.243 Z" fill="#000000" fill-rule="evenodd" fill-opacity="1" /><polyline clip-path="url(#clip052)" style="stroke:#009af9; stroke-linecap:butt; stroke-linejoin:round; stroke-width:12; stroke-opacity:1; fill:none" points="
  218.754,1445.72 448.959,993.136 679.164,540.556 909.369,87.9763 1139.57,314.266 1369.78,540.556 1599.98,766.846 1830.19,993.136 2060.4,1219.43 2290.6,1445.72 
  
  "/>
<path clip-path="url(#clip050)" d="
M1983.1 198.898 L2279.55 198.898 L2279.55 95.2176 L1983.1 95.2176  Z
  " fill="#ffffff" fill-rule="evenodd" fill-opacity="1"/>
<polyline clip-path="url(#clip050)" style="stroke:#000000; stroke-linecap:butt; stroke-linejoin:round; stroke-width:4; stroke-opacity:1; fill:none" points="
  1983.1,198.898 2279.55,198.898 2279.55,95.2176 1983.1,95.2176 1983.1,198.898 
  "/>
<polyline clip-path="url(#clip050)" style="stroke:#009af9; stroke-linecap:butt; stroke-linejoin:round; stroke-width:4; stroke-opacity:1; fill:none" points="
  2007.5,147.058 2153.92,147.058 
  "/>
<path clip-path="url(#clip050)" d="M2192.16 166.745 Q2190.35 171.375 2188.64 172.787 Q2186.93 174.199 2184.06 174.199 L2180.65 174.199 L2180.65 170.634 L2183.15 170.634 Q2184.91 170.634 2185.89 169.8 Q2186.86 168.967 2188.04 165.865 L2188.8 163.921 L2178.32 138.412 L2182.83 138.412 L2190.93 158.689 L2199.03 138.412 L2203.55 138.412 L2192.16 166.745 Z" fill="#000000" fill-rule="evenodd" fill-opacity="1" /><path clip-path="url(#clip050)" d="M2210.84 160.402 L2218.48 160.402 L2218.48 134.037 L2210.17 135.703 L2210.17 131.444 L2218.43 129.778 L2223.11 129.778 L2223.11 160.402 L2230.75 160.402 L2230.75 164.338 L2210.84 164.338 L2210.84 160.402 Z" fill="#000000" fill-rule="evenodd" fill-opacity="1" /></svg>
