<?xml version="1.0" encoding="utf-8"?>
<svg xmlns="http://www.w3.org/2000/svg" xmlns:xlink="http://www.w3.org/1999/xlink" width="600" height="400" viewBox="0 0 2400 1600">
<defs>
  <clipPath id="clip250">
    <rect x="0" y="0" width="2400" height="1600"/>
  </clipPath>
</defs>
<path clip-path="url(#clip250)" d="
M0 1600 L2400 1600 L2400 0 L0 0  Z
  " fill="#ffffff" fill-rule="evenodd" fill-opacity="1"/>
<defs>
  <clipPath id="clip251">
    <rect x="480" y="0" width="1681" height="1600"/>
  </clipPath>
</defs>
<path clip-path="url(#clip250)" d="
M147.478 1486.45 L2352.76 1486.45 L2352.76 47.2441 L147.478 47.2441  Z
  " fill="#ffffff" fill-rule="evenodd" fill-opacity="1"/>
<defs>
  <clipPath id="clip252">
    <rect x="147" y="47" width="2206" height="1440"/>
  </clipPath>
</defs>
<polyline clip-path="url(#clip252)" style="stroke:#000000; stroke-linecap:butt; stroke-linejoin:round; stroke-width:2; stroke-opacity:0.1; fill:none" points="
  147.478,1486.45 147.478,47.2441 
  "/>
<polyline clip-path="url(#clip252)" style="stroke:#000000; stroke-linecap:butt; stroke-linejoin:round; stroke-width:2; stroke-opacity:0.1; fill:none" points="
  515.024,1486.45 515.024,47.2441 
  "/>
<polyline clip-path="url(#clip252)" style="stroke:#000000; stroke-linecap:butt; stroke-linejoin:round; stroke-width:2; stroke-opacity:0.1; fill:none" points="
  882.571,1486.45 882.571,47.2441 
  "/>
<polyline clip-path="url(#clip252)" style="stroke:#000000; stroke-linecap:butt; stroke-linejoin:round; stroke-width:2; stroke-opacity:0.1; fill:none" points="
  1250.12,1486.45 1250.12,47.2441 
  "/>
<polyline clip-path="url(#clip252)" style="stroke:#000000; stroke-linecap:butt; stroke-linejoin:round; stroke-width:2; stroke-opacity:0.1; fill:none" points="
  1617.66,1486.45 1617.66,47.2441 
  "/>
<polyline clip-path="url(#clip252)" style="stroke:#000000; stroke-linecap:butt; stroke-linejoin:round; stroke-width:2; stroke-opacity:0.1; fill:none" points="
  1985.21,1486.45 1985.21,47.2441 
  "/>
<polyline clip-path="url(#clip252)" style="stroke:#000000; stroke-linecap:butt; stroke-linejoin:round; stroke-width:2; stroke-opacity:0.1; fill:none" points="
  2352.76,1486.45 2352.76,47.2441 
  "/>
<polyline clip-path="url(#clip250)" style="stroke:#000000; stroke-linecap:butt; stroke-linejoin:round; stroke-width:4; stroke-opacity:1; fill:none" points="
  147.478,1486.45 2352.76,1486.45 
  "/>
<polyline clip-path="url(#clip250)" style="stroke:#000000; stroke-linecap:butt; stroke-linejoin:round; stroke-width:4; stroke-opacity:1; fill:none" points="
  147.478,1486.45 147.478,1467.55 
  "/>
<polyline clip-path="url(#clip250)" style="stroke:#000000; stroke-linecap:butt; stroke-linejoin:round; stroke-width:4; stroke-opacity:1; fill:none" points="
  515.024,1486.45 515.024,1467.55 
  "/>
<polyline clip-path="url(#clip250)" style="stroke:#000000; stroke-linecap:butt; stroke-linejoin:round; stroke-width:4; stroke-opacity:1; fill:none" points="
  882.571,1486.45 882.571,1467.55 
  "/>
<polyline clip-path="url(#clip250)" style="stroke:#000000; stroke-linecap:butt; stroke-linejoin:round; stroke-width:4; stroke-opacity:1; fill:none" points="
  1250.12,1486.45 1250.12,1467.55 
  "/>
<polyline clip-path="url(#clip250)" style="stroke:#000000; stroke-linecap:butt; stroke-linejoin:round; stroke-width:4; stroke-opacity:1; fill:none" points="
  1617.66,1486.45 1617.66,1467.55 
  "/>
<polyline clip-path="url(#clip250)" style="stroke:#000000; stroke-linecap:butt; stroke-linejoin:round; stroke-width:4; stroke-opacity:1; fill:none" points="
  1985.21,1486.45 1985.21,1467.55 
  "/>
<polyline clip-path="url(#clip250)" style="stroke:#000000; stroke-linecap:butt; stroke-linejoin:round; stroke-width:4; stroke-opacity:1; fill:none" points="
  2352.76,1486.45 2352.76,1467.55 
  "/>
<path clip-path="url(#clip250)" d="M116.946 1532.02 L146.621 1532.02 L146.621 1535.95 L116.946 1535.95 L116.946 1532.02 Z" fill="#000000" fill-rule="evenodd" fill-opacity="1" /><path clip-path="url(#clip250)" d="M170.881 1530.21 Q174.237 1530.93 176.112 1533.2 Q178.01 1535.47 178.01 1538.8 Q178.01 1543.92 174.492 1546.72 Q170.973 1549.52 164.492 1549.52 Q162.316 1549.52 160.001 1549.08 Q157.709 1548.66 155.256 1547.81 L155.256 1543.29 Q157.2 1544.43 159.515 1545.01 Q161.83 1545.58 164.353 1545.58 Q168.751 1545.58 171.043 1543.85 Q173.357 1542.11 173.357 1538.8 Q173.357 1535.75 171.205 1534.03 Q169.075 1532.3 165.256 1532.3 L161.228 1532.3 L161.228 1528.45 L165.441 1528.45 Q168.89 1528.45 170.719 1527.09 Q172.547 1525.7 172.547 1523.11 Q172.547 1520.45 170.649 1519.03 Q168.774 1517.6 165.256 1517.6 Q163.334 1517.6 161.135 1518.01 Q158.936 1518.43 156.297 1519.31 L156.297 1515.14 Q158.959 1514.4 161.274 1514.03 Q163.612 1513.66 165.672 1513.66 Q170.996 1513.66 174.098 1516.09 Q177.2 1518.5 177.2 1522.62 Q177.2 1525.49 175.556 1527.48 Q173.913 1529.45 170.881 1530.21 Z" fill="#000000" fill-rule="evenodd" fill-opacity="1" /><path clip-path="url(#clip250)" d="M484.967 1532.02 L514.642 1532.02 L514.642 1535.95 L484.967 1535.95 L484.967 1532.02 Z" fill="#000000" fill-rule="evenodd" fill-opacity="1" /><path clip-path="url(#clip250)" d="M528.763 1544.91 L545.082 1544.91 L545.082 1548.85 L523.138 1548.85 L523.138 1544.91 Q525.8 1542.16 530.383 1537.53 Q534.989 1532.88 536.17 1531.53 Q538.415 1529.01 539.295 1527.27 Q540.198 1525.51 540.198 1523.82 Q540.198 1521.07 538.253 1519.33 Q536.332 1517.6 533.23 1517.6 Q531.031 1517.6 528.577 1518.36 Q526.147 1519.13 523.369 1520.68 L523.369 1515.95 Q526.193 1514.82 528.647 1514.24 Q531.101 1513.66 533.138 1513.66 Q538.508 1513.66 541.702 1516.35 Q544.897 1519.03 544.897 1523.52 Q544.897 1525.65 544.087 1527.57 Q543.3 1529.47 541.193 1532.07 Q540.614 1532.74 537.513 1535.95 Q534.411 1539.15 528.763 1544.91 Z" fill="#000000" fill-rule="evenodd" fill-opacity="1" /><path clip-path="url(#clip250)" d="M852.328 1532.02 L882.003 1532.02 L882.003 1535.95 L852.328 1535.95 L852.328 1532.02 Z" fill="#000000" fill-rule="evenodd" fill-opacity="1" /><path clip-path="url(#clip250)" d="M892.906 1544.91 L900.545 1544.91 L900.545 1518.55 L892.235 1520.21 L892.235 1515.95 L900.499 1514.29 L905.175 1514.29 L905.175 1544.91 L912.813 1544.91 L912.813 1548.85 L892.906 1548.85 L892.906 1544.91 Z" fill="#000000" fill-rule="evenodd" fill-opacity="1" /><path clip-path="url(#clip250)" d="M1250.12 1517.37 Q1246.51 1517.37 1244.68 1520.93 Q1242.87 1524.47 1242.87 1531.6 Q1242.87 1538.71 1244.68 1542.27 Q1246.51 1545.82 1250.12 1545.82 Q1253.75 1545.82 1255.56 1542.27 Q1257.39 1538.71 1257.39 1531.6 Q1257.39 1524.47 1255.56 1520.93 Q1253.75 1517.37 1250.12 1517.37 M1250.12 1513.66 Q1255.93 1513.66 1258.98 1518.27 Q1262.06 1522.85 1262.06 1531.6 Q1262.06 1540.33 1258.98 1544.94 Q1255.93 1549.52 1250.12 1549.52 Q1244.31 1549.52 1241.23 1544.94 Q1238.17 1540.33 1238.17 1531.6 Q1238.17 1522.85 1241.23 1518.27 Q1244.31 1513.66 1250.12 1513.66 Z" fill="#000000" fill-rule="evenodd" fill-opacity="1" /><path clip-path="url(#clip250)" d="M1608.05 1544.91 L1615.68 1544.91 L1615.68 1518.55 L1607.37 1520.21 L1607.37 1515.95 L1615.64 1514.29 L1620.31 1514.29 L1620.31 1544.91 L1627.95 1544.91 L1627.95 1548.85 L1608.05 1548.85 L1608.05 1544.91 Z" fill="#000000" fill-rule="evenodd" fill-opacity="1" /><path clip-path="url(#clip250)" d="M1979.86 1544.91 L1996.18 1544.91 L1996.18 1548.85 L1974.24 1548.85 L1974.24 1544.91 Q1976.9 1542.16 1981.48 1537.53 Q1986.09 1532.88 1987.27 1531.53 Q1989.52 1529.01 1990.39 1527.27 Q1991.3 1525.51 1991.3 1523.82 Q1991.3 1521.07 1989.35 1519.33 Q1987.43 1517.6 1984.33 1517.6 Q1982.13 1517.6 1979.68 1518.36 Q1977.25 1519.13 1974.47 1520.68 L1974.47 1515.95 Q1977.29 1514.82 1979.75 1514.24 Q1982.2 1513.66 1984.24 1513.66 Q1989.61 1513.66 1992.8 1516.35 Q1996 1519.03 1996 1523.52 Q1996 1525.65 1995.19 1527.57 Q1994.4 1529.47 1992.29 1532.07 Q1991.71 1532.74 1988.61 1535.95 Q1985.51 1539.15 1979.86 1544.91 Z" fill="#000000" fill-rule="evenodd" fill-opacity="1" /><path clip-path="url(#clip250)" d="M2357 1530.21 Q2360.36 1530.93 2362.24 1533.2 Q2364.13 1535.47 2364.13 1538.8 Q2364.13 1543.92 2360.61 1546.72 Q2357.1 1549.52 2350.61 1549.52 Q2348.44 1549.52 2346.12 1549.08 Q2343.83 1548.66 2341.38 1547.81 L2341.38 1543.29 Q2343.32 1544.43 2345.64 1545.01 Q2347.95 1545.58 2350.48 1545.58 Q2354.87 1545.58 2357.17 1543.85 Q2359.48 1542.11 2359.48 1538.8 Q2359.48 1535.75 2357.33 1534.03 Q2355.2 1532.3 2351.38 1532.3 L2347.35 1532.3 L2347.35 1528.45 L2351.56 1528.45 Q2355.01 1528.45 2356.84 1527.09 Q2358.67 1525.7 2358.67 1523.11 Q2358.67 1520.45 2356.77 1519.03 Q2354.9 1517.6 2351.38 1517.6 Q2349.46 1517.6 2347.26 1518.01 Q2345.06 1518.43 2342.42 1519.31 L2342.42 1515.14 Q2345.08 1514.4 2347.4 1514.03 Q2349.74 1513.66 2351.8 1513.66 Q2357.12 1513.66 2360.22 1516.09 Q2363.32 1518.5 2363.32 1522.62 Q2363.32 1525.49 2361.68 1527.48 Q2360.04 1529.45 2357 1530.21 Z" fill="#000000" fill-rule="evenodd" fill-opacity="1" /><polyline clip-path="url(#clip252)" style="stroke:#000000; stroke-linecap:butt; stroke-linejoin:round; stroke-width:2; stroke-opacity:0.1; fill:none" points="
  147.478,1218.02 2352.76,1218.02 
  "/>
<polyline clip-path="url(#clip252)" style="stroke:#000000; stroke-linecap:butt; stroke-linejoin:round; stroke-width:2; stroke-opacity:0.1; fill:none" points="
  147.478,841.327 2352.76,841.327 
  "/>
<polyline clip-path="url(#clip252)" style="stroke:#000000; stroke-linecap:butt; stroke-linejoin:round; stroke-width:2; stroke-opacity:0.1; fill:none" points="
  147.478,464.634 2352.76,464.634 
  "/>
<polyline clip-path="url(#clip252)" style="stroke:#000000; stroke-linecap:butt; stroke-linejoin:round; stroke-width:2; stroke-opacity:0.1; fill:none" points="
  147.478,87.9412 2352.76,87.9412 
  "/>
<polyline clip-path="url(#clip250)" style="stroke:#000000; stroke-linecap:butt; stroke-linejoin:round; stroke-width:4; stroke-opacity:1; fill:none" points="
  147.478,1486.45 147.478,47.2441 
  "/>
<polyline clip-path="url(#clip250)" style="stroke:#000000; stroke-linecap:butt; stroke-linejoin:round; stroke-width:4; stroke-opacity:1; fill:none" points="
  147.478,1218.02 166.376,1218.02 
  "/>
<polyline clip-path="url(#clip250)" style="stroke:#000000; stroke-linecap:butt; stroke-linejoin:round; stroke-width:4; stroke-opacity:1; fill:none" points="
  147.478,841.327 166.376,841.327 
  "/>
<polyline clip-path="url(#clip250)" style="stroke:#000000; stroke-linecap:butt; stroke-linejoin:round; stroke-width:4; stroke-opacity:1; fill:none" points="
  147.478,464.634 166.376,464.634 
  "/>
<polyline clip-path="url(#clip250)" style="stroke:#000000; stroke-linecap:butt; stroke-linejoin:round; stroke-width:4; stroke-opacity:1; fill:none" points="
  147.478,87.9412 166.376,87.9412 
  "/>
<path clip-path="url(#clip250)" d="M51.3625 1218.47 L81.0383 1218.47 L81.0383 1222.41 L51.3625 1222.41 L51.3625 1218.47 Z" fill="#000000" fill-rule="evenodd" fill-opacity="1" /><path clip-path="url(#clip250)" d="M95.1586 1231.36 L111.478 1231.36 L111.478 1235.3 L89.5336 1235.3 L89.5336 1231.36 Q92.1956 1228.61 96.7789 1223.98 Q101.385 1219.33 102.566 1217.98 Q104.811 1215.46 105.691 1213.73 Q106.594 1211.97 106.594 1210.28 Q106.594 1207.52 104.649 1205.79 Q102.728 1204.05 99.6261 1204.05 Q97.4271 1204.05 94.9734 1204.81 Q92.5428 1205.58 89.7651 1207.13 L89.7651 1202.41 Q92.5891 1201.27 95.0428 1200.69 Q97.4965 1200.11 99.5335 1200.11 Q104.904 1200.11 108.098 1202.8 Q111.293 1205.48 111.293 1209.98 Q111.293 1212.1 110.483 1214.03 Q109.696 1215.92 107.589 1218.52 Q107.01 1219.19 103.909 1222.41 Q100.807 1225.6 95.1586 1231.36 Z" fill="#000000" fill-rule="evenodd" fill-opacity="1" /><path clip-path="url(#clip250)" d="M50.9921 841.778 L80.6679 841.778 L80.6679 845.713 L50.9921 845.713 L50.9921 841.778 Z" fill="#000000" fill-rule="evenodd" fill-opacity="1" /><path clip-path="url(#clip250)" d="M91.5706 854.671 L99.2095 854.671 L99.2095 828.306 L90.8993 829.973 L90.8993 825.713 L99.1632 824.047 L103.839 824.047 L103.839 854.671 L111.478 854.671 L111.478 858.607 L91.5706 858.607 L91.5706 854.671 Z" fill="#000000" fill-rule="evenodd" fill-opacity="1" /><path clip-path="url(#clip250)" d="M99.5335 450.433 Q95.9224 450.433 94.0937 453.997 Q92.2882 457.539 92.2882 464.669 Q92.2882 471.775 94.0937 475.34 Q95.9224 478.882 99.5335 478.882 Q103.168 478.882 104.973 475.34 Q106.802 471.775 106.802 464.669 Q106.802 457.539 104.973 453.997 Q103.168 450.433 99.5335 450.433 M99.5335 446.729 Q105.344 446.729 108.399 451.335 Q111.478 455.919 111.478 464.669 Q111.478 473.395 108.399 478.002 Q105.344 482.585 99.5335 482.585 Q93.7234 482.585 90.6447 478.002 Q87.5892 473.395 87.5892 464.669 Q87.5892 455.919 90.6447 451.335 Q93.7234 446.729 99.5335 446.729 Z" fill="#000000" fill-rule="evenodd" fill-opacity="1" /><path clip-path="url(#clip250)" d="M91.5706 101.286 L99.2095 101.286 L99.2095 74.9205 L90.8993 76.5871 L90.8993 72.3279 L99.1632 70.6612 L103.839 70.6612 L103.839 101.286 L111.478 101.286 L111.478 105.221 L91.5706 105.221 L91.5706 101.286 Z" fill="#000000" fill-rule="evenodd" fill-opacity="1" /><polyline clip-path="url(#clip252)" style="stroke:#009af9; stroke-linecap:butt; stroke-linejoin:round; stroke-width:12; stroke-opacity:1; fill:none" points="
  147.478,1445.72 151.067,1436.92 154.657,1428.16 158.246,1419.42 161.835,1410.72 195.025,1331.57 228.214,1254.87 261.403,1180.62 294.592,1108.83 334.482,1025.78 
  374.373,946.271 408.1,881.811 441.827,819.882 478.464,755.479 515.101,694.062 548.877,640.087 582.653,588.65 618.864,536.325 655.075,486.918 676.053,459.631 
  697.03,433.323 718.007,407.995 738.984,383.646 776.269,342.785 813.553,305.018 846.248,274.445 878.943,246.251 914.589,218.222 950.235,193.021 986.093,170.523 
  1021.95,150.887 1061.6,132.506 1101.24,117.623 1138.96,106.71 1176.69,98.9627 1215.91,94.2654 1255.13,92.9913 1288.15,94.5725 1321.16,98.5794 1341.32,102.218 
  1361.47,106.76 1381.63,112.206 1401.78,118.556 1438.71,132.536 1475.63,149.55 1509.74,167.958 1543.84,188.955 1578.39,212.863 1612.93,239.427 1651.65,272.353 
  1690.37,308.615 1725.45,344.355 1760.54,382.834 1780.62,406.095 1800.7,430.253 1820.79,455.309 1840.87,481.263 1878.06,531.695 1915.26,585.204 1951.92,640.972 
  1988.59,699.731 2024.19,759.644 2059.79,822.378 2096.29,889.615 2132.78,959.816 2152.78,999.53 2172.77,1040.13 2192.76,1081.62 2212.75,1124.01 2241.8,1187.16 
  2270.84,1252.18 2299.88,1319.09 2328.92,1387.87 2334.88,1402.21 2340.84,1416.64 2346.8,1431.14 2352.76,1445.72 
  "/>
<polyline clip-path="url(#clip252)" style="stroke:#e26f46; stroke-linecap:butt; stroke-linejoin:round; stroke-width:12; stroke-opacity:1; fill:none" points="
  147.478,837.557 151.067,837.02 154.657,836.448 158.246,835.84 161.835,835.196 178.43,831.764 195.025,827.583 211.619,822.663 228.214,817.013 244.808,810.644 
  261.403,803.571 277.997,795.807 294.592,787.367 314.537,776.355 334.482,764.425 354.428,751.613 374.373,737.955 391.236,725.779 408.1,713.053 424.963,699.804 
  441.827,686.06 478.464,654.634 515.101,621.322 548.877,589.226 582.653,556.078 655.075,482.768 738.984,397.145 776.269,359.962 813.553,323.856 846.248,293.373 
  878.943,264.245 896.766,249.019 914.589,234.3 932.412,220.122 950.235,206.52 968.164,193.449 986.093,181.023 1004.02,169.271 1021.95,158.223 1041.77,146.857 
  1061.6,136.415 1081.42,126.927 1101.24,118.422 1120.1,111.264 1138.96,105.036 1157.83,99.7546 1176.69,95.434 1196.3,91.9725 1215.91,89.5716 1235.52,88.2383 
  1255.13,87.9763 1271.64,88.5868 1288.15,89.9559 1304.65,92.0806 1321.16,94.9568 1341.32,99.4785 1361.47,105.098 1381.63,111.798 1401.78,119.559 1420.25,127.58 
  1438.71,136.451 1457.17,146.15 1475.63,156.652 1492.69,167.043 1509.74,178.074 1526.79,189.721 1543.84,201.961 1561.12,214.935 1578.39,228.46 1595.66,242.508 
  1612.93,257.045 1651.65,291.246 1690.37,327.369 1725.45,361.427 1760.54,396.425 1840.87,478.38 1915.26,553.765 1951.92,589.774 1988.59,624.538 2024.19,656.773 
  2059.79,687.207 2078.04,702.015 2096.29,716.238 2114.54,729.84 2132.78,742.789 2152.78,756.188 2172.77,768.725 2192.76,780.362 2212.75,791.066 2227.28,798.236 
  2241.8,804.886 2256.32,811.005 2270.84,816.583 2299.88,826.084 2328.92,833.329 2334.88,834.532 2340.84,835.638 2346.8,836.646 2352.76,837.557 
  "/>
<circle clip-path="url(#clip252)" cx="515.024" cy="464.634" r="14.4" fill="#3da44d" fill-rule="evenodd" fill-opacity="1" stroke="#000000" stroke-opacity="1" stroke-width="3.2"/>
<circle clip-path="url(#clip252)" cx="1005.09" cy="464.634" r="14.4" fill="#3da44d" fill-rule="evenodd" fill-opacity="1" stroke="#000000" stroke-opacity="1" stroke-width="3.2"/>
<circle clip-path="url(#clip252)" cx="1495.15" cy="464.634" r="14.4" fill="#3da44d" fill-rule="evenodd" fill-opacity="1" stroke="#000000" stroke-opacity="1" stroke-width="3.2"/>
<circle clip-path="url(#clip252)" cx="1985.21" cy="464.634" r="14.4" fill="#3da44d" fill-rule="evenodd" fill-opacity="1" stroke="#000000" stroke-opacity="1" stroke-width="3.2"/>
<path clip-path="url(#clip250)" d="
M1785.63 302.578 L2279.25 302.578 L2279.25 95.2176 L1785.63 95.2176  Z
  " fill="#ffffff" fill-rule="evenodd" fill-opacity="1"/>
<polyline clip-path="url(#clip250)" style="stroke:#000000; stroke-linecap:butt; stroke-linejoin:round; stroke-width:4; stroke-opacity:1; fill:none" points="
  1785.63,302.578 2279.25,302.578 2279.25,95.2176 1785.63,95.2176 1785.63,302.578 
  "/>
<polyline clip-path="url(#clip250)" style="stroke:#009af9; stroke-linecap:butt; stroke-linejoin:round; stroke-width:4; stroke-opacity:1; fill:none" points="
  1810.13,147.058 1957.15,147.058 
  "/>
<path clip-path="url(#clip250)" d="M1995.5 166.745 Q1993.69 171.375 1991.98 172.787 Q1990.26 174.199 1987.39 174.199 L1983.99 174.199 L1983.99 170.634 L1986.49 170.634 Q1988.25 170.634 1989.22 169.8 Q1990.2 168.967 1991.38 165.865 L1992.14 163.921 L1981.65 138.412 L1986.17 138.412 L1994.27 158.689 L2002.37 138.412 L2006.89 138.412 L1995.5 166.745 Z" fill="#000000" fill-rule="evenodd" fill-opacity="1" /><path clip-path="url(#clip250)" d="M2014.18 160.402 L2021.82 160.402 L2021.82 134.037 L2013.51 135.703 L2013.51 131.444 L2021.77 129.778 L2026.45 129.778 L2026.45 160.402 L2034.08 160.402 L2034.08 164.338 L2014.18 164.338 L2014.18 160.402 Z" fill="#000000" fill-rule="evenodd" fill-opacity="1" /><polyline clip-path="url(#clip250)" style="stroke:#e26f46; stroke-linecap:butt; stroke-linejoin:round; stroke-width:4; stroke-opacity:1; fill:none" points="
  1810.13,198.898 1957.15,198.898 
  "/>
<path clip-path="url(#clip250)" d="M1995.5 218.585 Q1993.69 223.215 1991.98 224.627 Q1990.26 226.039 1987.39 226.039 L1983.99 226.039 L1983.99 222.474 L1986.49 222.474 Q1988.25 222.474 1989.22 221.64 Q1990.2 220.807 1991.38 217.705 L1992.14 215.761 L1981.65 190.252 L1986.17 190.252 L1994.27 210.529 L2002.37 190.252 L2006.89 190.252 L1995.5 218.585 Z" fill="#000000" fill-rule="evenodd" fill-opacity="1" /><path clip-path="url(#clip250)" d="M2017.39 212.242 L2033.71 212.242 L2033.71 216.178 L2011.77 216.178 L2011.77 212.242 Q2014.43 209.488 2019.01 204.858 Q2023.62 200.205 2024.8 198.863 Q2027.05 196.34 2027.93 194.604 Q2028.83 192.844 2028.83 191.155 Q2028.83 188.4 2026.89 186.664 Q2024.96 184.928 2021.86 184.928 Q2019.66 184.928 2017.21 185.692 Q2014.78 186.455 2012 188.006 L2012 183.284 Q2014.82 182.15 2017.28 181.571 Q2019.73 180.993 2021.77 180.993 Q2027.14 180.993 2030.33 183.678 Q2033.53 186.363 2033.53 190.854 Q2033.53 192.983 2032.72 194.905 Q2031.93 196.803 2029.82 199.395 Q2029.25 200.067 2026.14 203.284 Q2023.04 206.479 2017.39 212.242 Z" fill="#000000" fill-rule="evenodd" fill-opacity="1" /><circle clip-path="url(#clip250)" cx="1883.64" cy="250.738" r="23.04" fill="#3da44d" fill-rule="evenodd" fill-opacity="1" stroke="#000000" stroke-opacity="1" stroke-width="5.12"/>
<path clip-path="url(#clip250)" d="M2000.57 254.754 Q2000.57 250.124 1998.64 247.578 Q1996.75 245.032 1993.3 245.032 Q1989.87 245.032 1987.95 247.578 Q1986.05 250.124 1986.05 254.754 Q1986.05 259.36 1987.95 261.906 Q1989.87 264.453 1993.3 264.453 Q1996.75 264.453 1998.64 261.906 Q2000.57 259.36 2000.57 254.754 M2004.83 264.8 Q2004.83 271.42 2001.89 274.638 Q1998.95 277.879 1992.88 277.879 Q1990.64 277.879 1988.64 277.531 Q1986.65 277.207 1984.78 276.513 L1984.78 272.369 Q1986.65 273.388 1988.48 273.874 Q1990.31 274.36 1992.21 274.36 Q1996.4 274.36 1998.48 272.161 Q2000.57 269.985 2000.57 265.564 L2000.57 263.457 Q1999.25 265.749 1997.19 266.883 Q1995.13 268.018 1992.26 268.018 Q1987.49 268.018 1984.57 264.383 Q1981.65 260.749 1981.65 254.754 Q1981.65 248.735 1984.57 245.101 Q1987.49 241.467 1992.26 241.467 Q1995.13 241.467 1997.19 242.601 Q1999.25 243.735 2000.57 246.027 L2000.57 242.092 L2004.83 242.092 L2004.83 264.8 Z" fill="#000000" fill-rule="evenodd" fill-opacity="1" /><path clip-path="url(#clip250)" d="M2028.62 246.073 Q2027.9 245.657 2027.05 245.471 Q2026.21 245.263 2025.2 245.263 Q2021.58 245.263 2019.64 247.624 Q2017.72 249.962 2017.72 254.36 L2017.72 268.018 L2013.44 268.018 L2013.44 242.092 L2017.72 242.092 L2017.72 246.12 Q2019.06 243.758 2021.21 242.624 Q2023.37 241.467 2026.45 241.467 Q2026.89 241.467 2027.42 241.536 Q2027.95 241.583 2028.6 241.698 L2028.62 246.073 Z" fill="#000000" fill-rule="evenodd" fill-opacity="1" /><path clip-path="url(#clip250)" d="M2033.09 242.092 L2037.35 242.092 L2037.35 268.018 L2033.09 268.018 L2033.09 242.092 M2033.09 231.999 L2037.35 231.999 L2037.35 237.393 L2033.09 237.393 L2033.09 231.999 Z" fill="#000000" fill-rule="evenodd" fill-opacity="1" /><path clip-path="url(#clip250)" d="M2063.32 246.027 L2063.32 231.999 L2067.58 231.999 L2067.58 268.018 L2063.32 268.018 L2063.32 264.129 Q2061.98 266.443 2059.92 267.578 Q2057.88 268.689 2055.01 268.689 Q2050.31 268.689 2047.35 264.939 Q2044.41 261.189 2044.41 255.078 Q2044.41 248.967 2047.35 245.217 Q2050.31 241.467 2055.01 241.467 Q2057.88 241.467 2059.92 242.601 Q2061.98 243.712 2063.32 246.027 M2048.81 255.078 Q2048.81 259.777 2050.73 262.462 Q2052.67 265.124 2056.05 265.124 Q2059.43 265.124 2061.38 262.462 Q2063.32 259.777 2063.32 255.078 Q2063.32 250.379 2061.38 247.717 Q2059.43 245.032 2056.05 245.032 Q2052.67 245.032 2050.73 247.717 Q2048.81 250.379 2048.81 255.078 Z" fill="#000000" fill-rule="evenodd" fill-opacity="1" /><path clip-path="url(#clip250)" d="M2095.54 264.129 L2095.54 277.879 L2091.26 277.879 L2091.26 242.092 L2095.54 242.092 L2095.54 246.027 Q2096.88 243.712 2098.92 242.601 Q2100.98 241.467 2103.83 241.467 Q2108.55 241.467 2111.49 245.217 Q2114.45 248.967 2114.45 255.078 Q2114.45 261.189 2111.49 264.939 Q2108.55 268.689 2103.83 268.689 Q2100.98 268.689 2098.92 267.578 Q2096.88 266.443 2095.54 264.129 M2110.03 255.078 Q2110.03 250.379 2108.09 247.717 Q2106.17 245.032 2102.79 245.032 Q2099.41 245.032 2097.46 247.717 Q2095.54 250.379 2095.54 255.078 Q2095.54 259.777 2097.46 262.462 Q2099.41 265.124 2102.79 265.124 Q2106.17 265.124 2108.09 262.462 Q2110.03 259.777 2110.03 255.078 Z" fill="#000000" fill-rule="evenodd" fill-opacity="1" /><path clip-path="url(#clip250)" d="M2131.56 245.078 Q2128.13 245.078 2126.14 247.763 Q2124.15 250.425 2124.15 255.078 Q2124.15 259.731 2126.12 262.416 Q2128.11 265.078 2131.56 265.078 Q2134.96 265.078 2136.95 262.393 Q2138.94 259.707 2138.94 255.078 Q2138.94 250.471 2136.95 247.786 Q2134.96 245.078 2131.56 245.078 M2131.56 241.467 Q2137.12 241.467 2140.29 245.078 Q2143.46 248.689 2143.46 255.078 Q2143.46 261.444 2140.29 265.078 Q2137.12 268.689 2131.56 268.689 Q2125.98 268.689 2122.81 265.078 Q2119.66 261.444 2119.66 255.078 Q2119.66 248.689 2122.81 245.078 Q2125.98 241.467 2131.56 241.467 Z" fill="#000000" fill-rule="evenodd" fill-opacity="1" /><path clip-path="url(#clip250)" d="M2150.52 242.092 L2154.78 242.092 L2154.78 268.018 L2150.52 268.018 L2150.52 242.092 M2150.52 231.999 L2154.78 231.999 L2154.78 237.393 L2150.52 237.393 L2150.52 231.999 Z" fill="#000000" fill-rule="evenodd" fill-opacity="1" /><path clip-path="url(#clip250)" d="M2185.24 252.369 L2185.24 268.018 L2180.98 268.018 L2180.98 252.508 Q2180.98 248.828 2179.55 246.999 Q2178.11 245.17 2175.24 245.17 Q2171.79 245.17 2169.8 247.37 Q2167.81 249.569 2167.81 253.365 L2167.81 268.018 L2163.53 268.018 L2163.53 242.092 L2167.81 242.092 L2167.81 246.12 Q2169.34 243.782 2171.4 242.624 Q2173.48 241.467 2176.19 241.467 Q2180.66 241.467 2182.95 244.245 Q2185.24 246.999 2185.24 252.369 Z" fill="#000000" fill-rule="evenodd" fill-opacity="1" /><path clip-path="url(#clip250)" d="M2197.95 234.731 L2197.95 242.092 L2206.72 242.092 L2206.72 245.402 L2197.95 245.402 L2197.95 259.476 Q2197.95 262.647 2198.81 263.55 Q2199.69 264.453 2202.35 264.453 L2206.72 264.453 L2206.72 268.018 L2202.35 268.018 Q2197.42 268.018 2195.54 266.189 Q2193.67 264.337 2193.67 259.476 L2193.67 245.402 L2190.54 245.402 L2190.54 242.092 L2193.67 242.092 L2193.67 234.731 L2197.95 234.731 Z" fill="#000000" fill-rule="evenodd" fill-opacity="1" /><path clip-path="url(#clip250)" d="M2228.85 242.856 L2228.85 246.883 Q2227.05 245.957 2225.1 245.495 Q2223.16 245.032 2221.07 245.032 Q2217.9 245.032 2216.31 246.004 Q2214.73 246.976 2214.73 248.92 Q2214.73 250.402 2215.87 251.258 Q2217 252.092 2220.43 252.856 L2221.88 253.18 Q2226.42 254.152 2228.32 255.934 Q2230.24 257.694 2230.24 260.865 Q2230.24 264.476 2227.37 266.582 Q2224.52 268.689 2219.52 268.689 Q2217.44 268.689 2215.17 268.272 Q2212.93 267.879 2210.43 267.068 L2210.43 262.67 Q2212.79 263.897 2215.08 264.522 Q2217.37 265.124 2219.62 265.124 Q2222.62 265.124 2224.25 264.106 Q2225.87 263.064 2225.87 261.189 Q2225.87 259.453 2224.68 258.527 Q2223.53 257.601 2219.57 256.744 L2218.09 256.397 Q2214.13 255.564 2212.37 253.851 Q2210.61 252.115 2210.61 249.106 Q2210.61 245.448 2213.2 243.458 Q2215.8 241.467 2220.56 241.467 Q2222.93 241.467 2225.01 241.814 Q2227.09 242.161 2228.85 242.856 Z" fill="#000000" fill-rule="evenodd" fill-opacity="1" /></svg>
