<?xml version="1.0" encoding="utf-8"?>
<svg xmlns="http://www.w3.org/2000/svg" xmlns:xlink="http://www.w3.org/1999/xlink" width="600" height="400" viewBox="0 0 2400 1600">
<defs>
  <clipPath id="clip740">
    <rect x="0" y="0" width="2400" height="1600"/>
  </clipPath>
</defs>
<path clip-path="url(#clip740)" d="
M0 1600 L2400 1600 L2400 0 L0 0  Z
  " fill="#ffffff" fill-rule="evenodd" fill-opacity="1"/>
<defs>
  <clipPath id="clip741">
    <rect x="480" y="0" width="1681" height="1600"/>
  </clipPath>
</defs>
<path clip-path="url(#clip740)" d="
M219.38 1423.18 L2112.76 1423.18 L2112.76 47.2441 L219.38 47.2441  Z
  " fill="#ffffff" fill-rule="evenodd" fill-opacity="1"/>
<defs>
  <clipPath id="clip742">
    <rect x="219" y="47" width="1894" height="1377"/>
  </clipPath>
</defs>
<polyline clip-path="url(#clip742)" style="stroke:#000000; stroke-linecap:butt; stroke-linejoin:round; stroke-width:2; stroke-opacity:0.1; fill:none" points="
  219.38,1423.18 219.38,47.2441 
  "/>
<polyline clip-path="url(#clip742)" style="stroke:#000000; stroke-linecap:butt; stroke-linejoin:round; stroke-width:2; stroke-opacity:0.1; fill:none" points="
  692.724,1423.18 692.724,47.2441 
  "/>
<polyline clip-path="url(#clip742)" style="stroke:#000000; stroke-linecap:butt; stroke-linejoin:round; stroke-width:2; stroke-opacity:0.1; fill:none" points="
  1166.07,1423.18 1166.07,47.2441 
  "/>
<polyline clip-path="url(#clip742)" style="stroke:#000000; stroke-linecap:butt; stroke-linejoin:round; stroke-width:2; stroke-opacity:0.1; fill:none" points="
  1639.41,1423.18 1639.41,47.2441 
  "/>
<polyline clip-path="url(#clip742)" style="stroke:#000000; stroke-linecap:butt; stroke-linejoin:round; stroke-width:2; stroke-opacity:0.1; fill:none" points="
  2112.76,1423.18 2112.76,47.2441 
  "/>
<polyline clip-path="url(#clip740)" style="stroke:#000000; stroke-linecap:butt; stroke-linejoin:round; stroke-width:4; stroke-opacity:1; fill:none" points="
  219.38,1423.18 2112.76,1423.18 
  "/>
<polyline clip-path="url(#clip740)" style="stroke:#000000; stroke-linecap:butt; stroke-linejoin:round; stroke-width:4; stroke-opacity:1; fill:none" points="
  219.38,1423.18 219.38,1404.28 
  "/>
<polyline clip-path="url(#clip740)" style="stroke:#000000; stroke-linecap:butt; stroke-linejoin:round; stroke-width:4; stroke-opacity:1; fill:none" points="
  692.724,1423.18 692.724,1404.28 
  "/>
<polyline clip-path="url(#clip740)" style="stroke:#000000; stroke-linecap:butt; stroke-linejoin:round; stroke-width:4; stroke-opacity:1; fill:none" points="
  1166.07,1423.18 1166.07,1404.28 
  "/>
<polyline clip-path="url(#clip740)" style="stroke:#000000; stroke-linecap:butt; stroke-linejoin:round; stroke-width:4; stroke-opacity:1; fill:none" points="
  1639.41,1423.18 1639.41,1404.28 
  "/>
<polyline clip-path="url(#clip740)" style="stroke:#000000; stroke-linecap:butt; stroke-linejoin:round; stroke-width:4; stroke-opacity:1; fill:none" points="
  2112.76,1423.18 2112.76,1404.28 
  "/>
<path clip-path="url(#clip740)" d="M196.765 1454.1 Q193.153 1454.1 191.325 1457.66 Q189.519 1461.2 189.519 1468.33 Q189.519 1475.44 191.325 1479.01 Q193.153 1482.55 196.765 1482.55 Q200.399 1482.55 202.204 1479.01 Q204.033 1475.44 204.033 1468.33 Q204.033 1461.2 202.204 1457.66 Q200.399 1454.1 196.765 1454.1 M196.765 1450.39 Q202.575 1450.39 205.63 1455 Q208.709 1459.58 208.709 1468.33 Q208.709 1477.06 205.63 1481.67 Q202.575 1486.25 196.765 1486.25 Q190.954 1486.25 187.876 1481.67 Q184.82 1477.06 184.82 1468.33 Q184.82 1459.58 187.876 1455 Q190.954 1450.39 196.765 1450.39 Z" fill="#000000" fill-rule="evenodd" fill-opacity="1" /><path clip-path="url(#clip740)" d="M216.926 1479.7 L221.811 1479.7 L221.811 1485.58 L216.926 1485.58 L216.926 1479.7 Z" fill="#000000" fill-rule="evenodd" fill-opacity="1" /><path clip-path="url(#clip740)" d="M241.996 1454.1 Q238.385 1454.1 236.556 1457.66 Q234.75 1461.2 234.75 1468.33 Q234.75 1475.44 236.556 1479.01 Q238.385 1482.55 241.996 1482.55 Q245.63 1482.55 247.436 1479.01 Q249.264 1475.44 249.264 1468.33 Q249.264 1461.2 247.436 1457.66 Q245.63 1454.1 241.996 1454.1 M241.996 1450.39 Q247.806 1450.39 250.861 1455 Q253.94 1459.58 253.94 1468.33 Q253.94 1477.06 250.861 1481.67 Q247.806 1486.25 241.996 1486.25 Q236.186 1486.25 233.107 1481.67 Q230.051 1477.06 230.051 1468.33 Q230.051 1459.58 233.107 1455 Q236.186 1450.39 241.996 1450.39 Z" fill="#000000" fill-rule="evenodd" fill-opacity="1" /><path clip-path="url(#clip740)" d="M670.606 1454.1 Q666.995 1454.1 665.166 1457.66 Q663.361 1461.2 663.361 1468.33 Q663.361 1475.44 665.166 1479.01 Q666.995 1482.55 670.606 1482.55 Q674.24 1482.55 676.046 1479.01 Q677.875 1475.44 677.875 1468.33 Q677.875 1461.2 676.046 1457.66 Q674.24 1454.1 670.606 1454.1 M670.606 1450.39 Q676.416 1450.39 679.472 1455 Q682.551 1459.58 682.551 1468.33 Q682.551 1477.06 679.472 1481.67 Q676.416 1486.25 670.606 1486.25 Q664.796 1486.25 661.717 1481.67 Q658.662 1477.06 658.662 1468.33 Q658.662 1459.58 661.717 1455 Q664.796 1450.39 670.606 1450.39 Z" fill="#000000" fill-rule="evenodd" fill-opacity="1" /><path clip-path="url(#clip740)" d="M690.768 1479.7 L695.652 1479.7 L695.652 1485.58 L690.768 1485.58 L690.768 1479.7 Z" fill="#000000" fill-rule="evenodd" fill-opacity="1" /><path clip-path="url(#clip740)" d="M705.884 1451.02 L724.24 1451.02 L724.24 1454.96 L710.166 1454.96 L710.166 1463.43 Q711.185 1463.08 712.203 1462.92 Q713.222 1462.73 714.24 1462.73 Q720.027 1462.73 723.407 1465.9 Q726.786 1469.08 726.786 1474.49 Q726.786 1480.07 723.314 1483.17 Q719.842 1486.25 713.523 1486.25 Q711.347 1486.25 709.078 1485.88 Q706.833 1485.51 704.425 1484.77 L704.425 1480.07 Q706.509 1481.2 708.731 1481.76 Q710.953 1482.32 713.43 1482.32 Q717.435 1482.32 719.773 1480.21 Q722.111 1478.1 722.111 1474.49 Q722.111 1470.88 719.773 1468.77 Q717.435 1466.67 713.43 1466.67 Q711.555 1466.67 709.68 1467.08 Q707.828 1467.5 705.884 1468.38 L705.884 1451.02 Z" fill="#000000" fill-rule="evenodd" fill-opacity="1" /><path clip-path="url(#clip740)" d="M1133.22 1481.64 L1140.86 1481.64 L1140.86 1455.28 L1132.55 1456.95 L1132.55 1452.69 L1140.81 1451.02 L1145.49 1451.02 L1145.49 1481.64 L1153.13 1481.64 L1153.13 1485.58 L1133.22 1485.58 L1133.22 1481.64 Z" fill="#000000" fill-rule="evenodd" fill-opacity="1" /><path clip-path="url(#clip740)" d="M1162.57 1479.7 L1167.46 1479.7 L1167.46 1485.58 L1162.57 1485.58 L1162.57 1479.7 Z" fill="#000000" fill-rule="evenodd" fill-opacity="1" /><path clip-path="url(#clip740)" d="M1187.64 1454.1 Q1184.03 1454.1 1182.2 1457.66 Q1180.4 1461.2 1180.4 1468.33 Q1180.4 1475.44 1182.2 1479.01 Q1184.03 1482.55 1187.64 1482.55 Q1191.28 1482.55 1193.08 1479.01 Q1194.91 1475.44 1194.91 1468.33 Q1194.91 1461.2 1193.08 1457.66 Q1191.28 1454.1 1187.64 1454.1 M1187.64 1450.39 Q1193.45 1450.39 1196.51 1455 Q1199.59 1459.58 1199.59 1468.33 Q1199.59 1477.06 1196.51 1481.67 Q1193.45 1486.25 1187.64 1486.25 Q1181.83 1486.25 1178.75 1481.67 Q1175.7 1477.06 1175.7 1468.33 Q1175.7 1459.58 1178.75 1455 Q1181.83 1450.39 1187.64 1450.39 Z" fill="#000000" fill-rule="evenodd" fill-opacity="1" /><path clip-path="url(#clip740)" d="M1607.06 1481.64 L1614.7 1481.64 L1614.7 1455.28 L1606.39 1456.95 L1606.39 1452.69 L1614.66 1451.02 L1619.33 1451.02 L1619.33 1481.64 L1626.97 1481.64 L1626.97 1485.58 L1607.06 1485.58 L1607.06 1481.64 Z" fill="#000000" fill-rule="evenodd" fill-opacity="1" /><path clip-path="url(#clip740)" d="M1636.41 1479.7 L1641.3 1479.7 L1641.3 1485.58 L1636.41 1485.58 L1636.41 1479.7 Z" fill="#000000" fill-rule="evenodd" fill-opacity="1" /><path clip-path="url(#clip740)" d="M1651.53 1451.02 L1669.89 1451.02 L1669.89 1454.96 L1655.81 1454.96 L1655.81 1463.43 Q1656.83 1463.08 1657.85 1462.92 Q1658.87 1462.73 1659.89 1462.73 Q1665.67 1462.73 1669.05 1465.9 Q1672.43 1469.08 1672.43 1474.49 Q1672.43 1480.07 1668.96 1483.17 Q1665.49 1486.25 1659.17 1486.25 Q1656.99 1486.25 1654.72 1485.88 Q1652.48 1485.51 1650.07 1484.77 L1650.07 1480.07 Q1652.15 1481.2 1654.38 1481.76 Q1656.6 1482.32 1659.08 1482.32 Q1663.08 1482.32 1665.42 1480.21 Q1667.76 1478.1 1667.76 1474.49 Q1667.76 1470.88 1665.42 1468.77 Q1663.08 1466.67 1659.08 1466.67 Q1657.2 1466.67 1655.33 1467.08 Q1653.47 1467.5 1651.53 1468.38 L1651.53 1451.02 Z" fill="#000000" fill-rule="evenodd" fill-opacity="1" /><path clip-path="url(#clip740)" d="M2083.99 1481.64 L2100.31 1481.64 L2100.31 1485.58 L2078.37 1485.58 L2078.37 1481.64 Q2081.03 1478.89 2085.61 1474.26 Q2090.22 1469.61 2091.4 1468.27 Q2093.65 1465.74 2094.53 1464.01 Q2095.43 1462.25 2095.43 1460.56 Q2095.43 1457.8 2093.49 1456.07 Q2091.56 1454.33 2088.46 1454.33 Q2086.26 1454.33 2083.81 1455.09 Q2081.38 1455.86 2078.6 1457.41 L2078.6 1452.69 Q2081.43 1451.55 2083.88 1450.97 Q2086.33 1450.39 2088.37 1450.39 Q2093.74 1450.39 2096.93 1453.08 Q2100.13 1455.77 2100.13 1460.26 Q2100.13 1462.39 2099.32 1464.31 Q2098.53 1466.2 2096.42 1468.8 Q2095.85 1469.47 2092.74 1472.69 Q2089.64 1475.88 2083.99 1481.64 Z" fill="#000000" fill-rule="evenodd" fill-opacity="1" /><path clip-path="url(#clip740)" d="M2110.13 1479.7 L2115.01 1479.7 L2115.01 1485.58 L2110.13 1485.58 L2110.13 1479.7 Z" fill="#000000" fill-rule="evenodd" fill-opacity="1" /><path clip-path="url(#clip740)" d="M2135.2 1454.1 Q2131.59 1454.1 2129.76 1457.66 Q2127.95 1461.2 2127.95 1468.33 Q2127.95 1475.44 2129.76 1479.01 Q2131.59 1482.55 2135.2 1482.55 Q2138.83 1482.55 2140.64 1479.01 Q2142.47 1475.44 2142.47 1468.33 Q2142.47 1461.2 2140.64 1457.66 Q2138.83 1454.1 2135.2 1454.1 M2135.2 1450.39 Q2141.01 1450.39 2144.06 1455 Q2147.14 1459.58 2147.14 1468.33 Q2147.14 1477.06 2144.06 1481.67 Q2141.01 1486.25 2135.2 1486.25 Q2129.39 1486.25 2126.31 1481.67 Q2123.25 1477.06 2123.25 1468.33 Q2123.25 1459.58 2126.31 1455 Q2129.39 1450.39 2135.2 1450.39 Z" fill="#000000" fill-rule="evenodd" fill-opacity="1" /><path clip-path="url(#clip740)" d="M1180.34 1528.53 Q1180.34 1533.3 1177.89 1537.78 Q1175.47 1542.25 1171.67 1544.96 Q1167.91 1547.66 1164.11 1547.66 Q1159.82 1547.66 1157.6 1543.22 Q1153.57 1559.35 1153.35 1559.77 Q1152.41 1561.16 1151.06 1561.16 Q1150.22 1561.16 1149.71 1560.64 Q1149.19 1560.16 1149.19 1559.39 Q1149.23 1559.13 1149.42 1558.32 L1155.86 1532.4 Q1157.34 1526.38 1161.82 1522.09 Q1166.33 1517.78 1171.16 1517.78 Q1174.99 1517.78 1177.66 1520.64 Q1180.34 1523.51 1180.34 1528.53 M1175.6 1525.7 Q1175.6 1522.48 1174.31 1520.87 Q1173.03 1519.23 1171.03 1519.23 Q1169.19 1519.23 1166.97 1520.71 Q1164.78 1522.19 1162.85 1525.47 Q1161.82 1527.37 1161.08 1529.72 Q1160.34 1532.08 1158.89 1537.87 Q1158.37 1540.19 1158.37 1540.32 Q1158.37 1540.58 1158.5 1541.16 Q1158.66 1541.74 1159.05 1542.64 Q1159.47 1543.51 1160.05 1544.28 Q1160.63 1545.05 1161.69 1545.63 Q1162.75 1546.18 1164.04 1546.18 Q1166.04 1546.18 1168.16 1544.57 Q1170.32 1542.93 1171.9 1539.93 Q1173.22 1537.52 1174.41 1532.98 Q1175.6 1528.4 1175.6 1525.7 Z" fill="#000000" fill-rule="evenodd" fill-opacity="1" /><polyline clip-path="url(#clip742)" style="stroke:#000000; stroke-linecap:butt; stroke-linejoin:round; stroke-width:2; stroke-opacity:0.1; fill:none" points="
  219.38,1423.18 2112.76,1423.18 
  "/>
<polyline clip-path="url(#clip742)" style="stroke:#000000; stroke-linecap:butt; stroke-linejoin:round; stroke-width:2; stroke-opacity:0.1; fill:none" points="
  219.38,1079.2 2112.76,1079.2 
  "/>
<polyline clip-path="url(#clip742)" style="stroke:#000000; stroke-linecap:butt; stroke-linejoin:round; stroke-width:2; stroke-opacity:0.1; fill:none" points="
  219.38,735.212 2112.76,735.212 
  "/>
<polyline clip-path="url(#clip742)" style="stroke:#000000; stroke-linecap:butt; stroke-linejoin:round; stroke-width:2; stroke-opacity:0.1; fill:none" points="
  219.38,391.228 2112.76,391.228 
  "/>
<polyline clip-path="url(#clip742)" style="stroke:#000000; stroke-linecap:butt; stroke-linejoin:round; stroke-width:2; stroke-opacity:0.1; fill:none" points="
  219.38,47.2441 2112.76,47.2441 
  "/>
<polyline clip-path="url(#clip740)" style="stroke:#000000; stroke-linecap:butt; stroke-linejoin:round; stroke-width:4; stroke-opacity:1; fill:none" points="
  219.38,1423.18 219.38,47.2441 
  "/>
<polyline clip-path="url(#clip740)" style="stroke:#000000; stroke-linecap:butt; stroke-linejoin:round; stroke-width:4; stroke-opacity:1; fill:none" points="
  219.38,1423.18 236.152,1423.18 
  "/>
<polyline clip-path="url(#clip740)" style="stroke:#000000; stroke-linecap:butt; stroke-linejoin:round; stroke-width:4; stroke-opacity:1; fill:none" points="
  219.38,1079.2 236.152,1079.2 
  "/>
<polyline clip-path="url(#clip740)" style="stroke:#000000; stroke-linecap:butt; stroke-linejoin:round; stroke-width:4; stroke-opacity:1; fill:none" points="
  219.38,735.212 236.152,735.212 
  "/>
<polyline clip-path="url(#clip740)" style="stroke:#000000; stroke-linecap:butt; stroke-linejoin:round; stroke-width:4; stroke-opacity:1; fill:none" points="
  219.38,391.228 236.152,391.228 
  "/>
<polyline clip-path="url(#clip740)" style="stroke:#000000; stroke-linecap:butt; stroke-linejoin:round; stroke-width:4; stroke-opacity:1; fill:none" points="
  219.38,47.2441 236.152,47.2441 
  "/>
<path clip-path="url(#clip740)" d="M126.205 1408.98 Q122.593 1408.98 120.765 1412.54 Q118.959 1416.08 118.959 1423.21 Q118.959 1430.32 120.765 1433.89 Q122.593 1437.43 126.205 1437.43 Q129.839 1437.43 131.644 1433.89 Q133.473 1430.32 133.473 1423.21 Q133.473 1416.08 131.644 1412.54 Q129.839 1408.98 126.205 1408.98 M126.205 1405.27 Q132.015 1405.27 135.07 1409.88 Q138.149 1414.46 138.149 1423.21 Q138.149 1431.94 135.07 1436.55 Q132.015 1441.13 126.205 1441.13 Q120.394 1441.13 117.316 1436.55 Q114.26 1431.94 114.26 1423.21 Q114.26 1414.46 117.316 1409.88 Q120.394 1405.27 126.205 1405.27 Z" fill="#000000" fill-rule="evenodd" fill-opacity="1" /><path clip-path="url(#clip740)" d="M146.366 1434.58 L151.251 1434.58 L151.251 1440.46 L146.366 1440.46 L146.366 1434.58 Z" fill="#000000" fill-rule="evenodd" fill-opacity="1" /><path clip-path="url(#clip740)" d="M171.436 1408.98 Q167.825 1408.98 165.996 1412.54 Q164.19 1416.08 164.19 1423.21 Q164.19 1430.32 165.996 1433.89 Q167.825 1437.43 171.436 1437.43 Q175.07 1437.43 176.876 1433.89 Q178.704 1430.32 178.704 1423.21 Q178.704 1416.08 176.876 1412.54 Q175.07 1408.98 171.436 1408.98 M171.436 1405.27 Q177.246 1405.27 180.301 1409.88 Q183.38 1414.46 183.38 1423.21 Q183.38 1431.94 180.301 1436.55 Q177.246 1441.13 171.436 1441.13 Q165.626 1441.13 162.547 1436.55 Q159.491 1431.94 159.491 1423.21 Q159.491 1414.46 162.547 1409.88 Q165.626 1405.27 171.436 1405.27 Z" fill="#000000" fill-rule="evenodd" fill-opacity="1" /><path clip-path="url(#clip740)" d="M127.2 1064.99 Q123.589 1064.99 121.76 1068.56 Q119.955 1072.1 119.955 1079.23 Q119.955 1086.34 121.76 1089.9 Q123.589 1093.44 127.2 1093.44 Q130.834 1093.44 132.64 1089.9 Q134.468 1086.34 134.468 1079.23 Q134.468 1072.1 132.64 1068.56 Q130.834 1064.99 127.2 1064.99 M127.2 1061.29 Q133.01 1061.29 136.066 1065.9 Q139.144 1070.48 139.144 1079.23 Q139.144 1087.96 136.066 1092.56 Q133.01 1097.15 127.2 1097.15 Q121.39 1097.15 118.311 1092.56 Q115.256 1087.96 115.256 1079.23 Q115.256 1070.48 118.311 1065.9 Q121.39 1061.29 127.2 1061.29 Z" fill="#000000" fill-rule="evenodd" fill-opacity="1" /><path clip-path="url(#clip740)" d="M147.362 1090.6 L152.246 1090.6 L152.246 1096.48 L147.362 1096.48 L147.362 1090.6 Z" fill="#000000" fill-rule="evenodd" fill-opacity="1" /><path clip-path="url(#clip740)" d="M162.477 1061.92 L180.834 1061.92 L180.834 1065.85 L166.76 1065.85 L166.76 1074.32 Q167.778 1073.98 168.797 1073.81 Q169.815 1073.63 170.834 1073.63 Q176.621 1073.63 180.001 1076.8 Q183.38 1079.97 183.38 1085.39 Q183.38 1090.97 179.908 1094.07 Q176.436 1097.15 170.116 1097.15 Q167.94 1097.15 165.672 1096.78 Q163.427 1096.41 161.019 1095.67 L161.019 1090.97 Q163.102 1092.1 165.325 1092.66 Q167.547 1093.21 170.024 1093.21 Q174.028 1093.21 176.366 1091.11 Q178.704 1089 178.704 1085.39 Q178.704 1081.78 176.366 1079.67 Q174.028 1077.56 170.024 1077.56 Q168.149 1077.56 166.274 1077.98 Q164.422 1078.4 162.477 1079.28 L162.477 1061.92 Z" fill="#000000" fill-rule="evenodd" fill-opacity="1" /><path clip-path="url(#clip740)" d="M117.015 748.557 L124.654 748.557 L124.654 722.191 L116.343 723.858 L116.343 719.599 L124.607 717.932 L129.283 717.932 L129.283 748.557 L136.922 748.557 L136.922 752.492 L117.015 752.492 L117.015 748.557 Z" fill="#000000" fill-rule="evenodd" fill-opacity="1" /><path clip-path="url(#clip740)" d="M146.366 746.612 L151.251 746.612 L151.251 752.492 L146.366 752.492 L146.366 746.612 Z" fill="#000000" fill-rule="evenodd" fill-opacity="1" /><path clip-path="url(#clip740)" d="M171.436 721.011 Q167.825 721.011 165.996 724.575 Q164.19 728.117 164.19 735.247 Q164.19 742.353 165.996 745.918 Q167.825 749.46 171.436 749.46 Q175.07 749.46 176.876 745.918 Q178.704 742.353 178.704 735.247 Q178.704 728.117 176.876 724.575 Q175.07 721.011 171.436 721.011 M171.436 717.307 Q177.246 717.307 180.301 721.913 Q183.38 726.497 183.38 735.247 Q183.38 743.973 180.301 748.58 Q177.246 753.163 171.436 753.163 Q165.626 753.163 162.547 748.58 Q159.491 743.973 159.491 735.247 Q159.491 726.497 162.547 721.913 Q165.626 717.307 171.436 717.307 Z" fill="#000000" fill-rule="evenodd" fill-opacity="1" /><path clip-path="url(#clip740)" d="M118.01 404.573 L125.649 404.573 L125.649 378.207 L117.339 379.874 L117.339 375.615 L125.603 373.948 L130.279 373.948 L130.279 404.573 L137.917 404.573 L137.917 408.508 L118.01 408.508 L118.01 404.573 Z" fill="#000000" fill-rule="evenodd" fill-opacity="1" /><path clip-path="url(#clip740)" d="M147.362 402.628 L152.246 402.628 L152.246 408.508 L147.362 408.508 L147.362 402.628 Z" fill="#000000" fill-rule="evenodd" fill-opacity="1" /><path clip-path="url(#clip740)" d="M162.477 373.948 L180.834 373.948 L180.834 377.883 L166.76 377.883 L166.76 386.355 Q167.778 386.008 168.797 385.846 Q169.815 385.661 170.834 385.661 Q176.621 385.661 180.001 388.832 Q183.38 392.003 183.38 397.42 Q183.38 402.999 179.908 406.101 Q176.436 409.179 170.116 409.179 Q167.94 409.179 165.672 408.809 Q163.427 408.439 161.019 407.698 L161.019 402.999 Q163.102 404.133 165.325 404.689 Q167.547 405.244 170.024 405.244 Q174.028 405.244 176.366 403.138 Q178.704 401.031 178.704 397.42 Q178.704 393.809 176.366 391.703 Q174.028 389.596 170.024 389.596 Q168.149 389.596 166.274 390.013 Q164.422 390.429 162.477 391.309 L162.477 373.948 Z" fill="#000000" fill-rule="evenodd" fill-opacity="1" /><path clip-path="url(#clip740)" d="M120.232 60.5889 L136.552 60.5889 L136.552 64.5241 L114.607 64.5241 L114.607 60.5889 Q117.269 57.8343 121.853 53.2047 Q126.459 48.552 127.64 47.2094 Q129.885 44.6862 130.765 42.9501 Q131.667 41.1909 131.667 39.5011 Q131.667 36.7465 129.723 35.0104 Q127.802 33.2743 124.7 33.2743 Q122.501 33.2743 120.047 34.0381 Q117.617 34.802 114.839 36.3529 L114.839 31.6308 Q117.663 30.4965 120.117 29.9178 Q122.57 29.3391 124.607 29.3391 Q129.978 29.3391 133.172 32.0243 Q136.367 34.7094 136.367 39.2002 Q136.367 41.3298 135.556 43.2511 Q134.769 45.1492 132.663 47.7418 Q132.084 48.4131 128.982 51.6306 Q125.88 54.8251 120.232 60.5889 Z" fill="#000000" fill-rule="evenodd" fill-opacity="1" /><path clip-path="url(#clip740)" d="M146.366 58.6445 L151.251 58.6445 L151.251 64.5241 L146.366 64.5241 L146.366 58.6445 Z" fill="#000000" fill-rule="evenodd" fill-opacity="1" /><path clip-path="url(#clip740)" d="M171.436 33.0428 Q167.825 33.0428 165.996 36.6076 Q164.19 40.1492 164.19 47.2788 Q164.19 54.3853 165.996 57.9501 Q167.825 61.4917 171.436 61.4917 Q175.07 61.4917 176.876 57.9501 Q178.704 54.3853 178.704 47.2788 Q178.704 40.1492 176.876 36.6076 Q175.07 33.0428 171.436 33.0428 M171.436 29.3391 Q177.246 29.3391 180.301 33.9456 Q183.38 38.5289 183.38 47.2788 Q183.38 56.0056 180.301 60.6121 Q177.246 65.1954 171.436 65.1954 Q165.626 65.1954 162.547 60.6121 Q159.491 56.0056 159.491 47.2788 Q159.491 38.5289 162.547 33.9456 Q165.626 29.3391 171.436 29.3391 Z" fill="#000000" fill-rule="evenodd" fill-opacity="1" /><path clip-path="url(#clip740)" d="M27.9287 709.425 Q28.5406 709.425 29.0559 709.553 L40.5212 711.357 Q41.3908 711.453 41.7128 711.647 Q42.0349 711.808 42.0349 712.323 Q42.0349 713.128 41.1976 713.128 Q40.7145 713.128 39.9415 712.935 Q36.3023 712.387 34.6598 712.387 Q33.5648 712.387 32.7596 712.613 Q31.9223 712.806 31.3426 713.128 Q30.7629 713.418 30.3764 714.094 Q29.9899 714.771 29.7645 715.415 Q29.539 716.059 29.4424 717.218 Q29.3136 718.378 29.2814 719.376 Q29.2492 720.374 29.2492 722.017 Q29.2492 725.592 29.378 726.172 Q29.539 726.783 30.0221 727.106 Q30.473 727.395 31.8256 727.717 L66.8334 736.477 L68.2183 736.735 Q68.9912 736.735 69.2489 736.252 Q69.5065 735.769 69.6675 734.287 Q69.8286 732.162 69.8286 730.068 Q69.8286 730.004 69.8286 729.875 Q69.8286 729.167 69.8608 728.877 Q69.8608 728.587 69.9252 728.297 Q69.9896 728.007 70.1506 727.943 Q70.2794 727.846 70.5371 727.846 Q71.149 727.846 71.4711 728.104 Q71.7609 728.362 71.8253 728.619 Q71.8575 728.845 71.8575 729.296 Q71.8575 730.197 71.7931 732.13 Q71.7287 734.062 71.7287 735.028 L71.6643 740.503 L71.7287 746.107 Q71.7287 746.977 71.7931 748.812 Q71.8575 750.648 71.8575 751.518 Q71.8575 752.645 71.0524 752.645 Q70.1506 752.645 69.9896 752.226 Q69.8286 751.775 69.8286 749.875 Q69.8286 747.202 69.6997 745.753 Q69.5709 744.303 69.12 743.531 Q68.6692 742.725 68.2183 742.5 Q67.7352 742.274 66.6402 742.017 L31.4392 733.16 Q30.6662 732.903 30.0543 732.903 Q29.7323 732.903 29.6034 732.999 Q29.4746 733.064 29.378 733.482 Q29.2492 733.901 29.2492 734.771 L29.2492 737.347 Q29.2492 739.988 29.378 741.63 Q29.4746 743.241 29.9577 744.787 Q30.4408 746.3 31.1171 747.202 Q31.7934 748.072 33.1783 749.038 Q34.5631 750.004 36.2378 750.712 Q37.9126 751.389 40.6501 752.355 Q41.5518 752.677 41.8095 752.87 Q42.0349 753.031 42.0349 753.482 Q42.0349 753.804 41.8417 754.062 Q41.6162 754.287 41.3264 754.287 Q40.2636 753.965 40.1348 753.901 L28.5084 749.939 Q27.5745 749.617 27.4134 749.328 Q27.2202 749.006 27.2202 747.814 L27.2202 711.228 Q27.2202 710.648 27.2202 710.455 Q27.2202 710.262 27.2846 709.94 Q27.349 709.618 27.5101 709.521 Q27.6711 709.425 27.9287 709.425 Z" fill="#000000" fill-rule="evenodd" fill-opacity="1" /><polyline clip-path="url(#clip742)" style="stroke:#f1e864; stroke-linecap:butt; stroke-linejoin:round; stroke-width:12; stroke-opacity:1; fill:none" points="
  2057.81,94.6902 2112.76,133.24 
  "/>
<polyline clip-path="url(#clip742)" style="stroke:#f1e864; stroke-linecap:butt; stroke-linejoin:round; stroke-width:12; stroke-opacity:1; fill:none" points="
  2047.47,87.1708 1994.42,47.2441 
  "/>
<polyline clip-path="url(#clip742)" style="stroke:#f8c931; stroke-linecap:butt; stroke-linejoin:round; stroke-width:12; stroke-opacity:1; fill:none" points="
  1876.08,47.2441 1916.89,80.3195 1935.25,94.6902 1982.18,130.055 1998.8,142.136 2047.47,176.238 2067.24,189.582 2112.76,219.236 
  "/>
<polyline clip-path="url(#clip742)" style="stroke:#fbaa0e; stroke-linecap:butt; stroke-linejoin:round; stroke-width:12; stroke-opacity:1; fill:none" points="
  2112.76,305.232 2078.24,284.474 2047.47,265.305 2003.89,237.028 1982.18,222.421 1935.25,189.582 1916.89,176.238 1871.7,142.136 1851.6,126.36 1812.69,94.6902 
  1786.31,72.3263 1757.75,47.2441 
  "/>
<polyline clip-path="url(#clip742)" style="stroke:#f98c09; stroke-linecap:butt; stroke-linejoin:round; stroke-width:12; stroke-opacity:1; fill:none" points="
  1639.41,47.2441 1655.73,62.8797 1690.13,94.6902 1721.02,122.023 1744.6,142.136 1786.31,176.238 1803.26,189.582 1851.6,226.116 1866.62,237.028 1916.89,272.157 
  1935.25,284.474 1982.18,314.787 2009.86,331.92 2047.47,354.373 2091.24,379.367 2112.76,391.228 
  "/>
<polyline clip-path="url(#clip742)" style="stroke:#f0701e; stroke-linecap:butt; stroke-linejoin:round; stroke-width:12; stroke-opacity:1; fill:none" points="
  2112.76,477.224 2106.84,474.259 2047.47,443.44 2016.96,426.813 1982.18,407.153 1935.25,379.367 1916.89,368.075 1860.65,331.92 1851.6,325.871 1792.26,284.474 
  1786.31,280.15 1729.35,237.028 1721.02,230.453 1671.27,189.582 1655.73,176.238 1617.5,142.136 1590.45,116.86 1567.57,94.6902 1525.16,51.5439 1521.08,47.2441 
  
  "/>
<polyline clip-path="url(#clip742)" style="stroke:#e35832; stroke-linecap:butt; stroke-linejoin:round; stroke-width:12; stroke-opacity:1; fill:none" points="
  1402.74,47.2441 1445,94.6902 1459.87,110.61 1490.4,142.136 1525.16,176.238 1539.28,189.582 1590.45,235.616 1592.08,237.028 1649.27,284.474 1655.73,289.596 
  1711.44,331.92 1721.02,338.883 1779.26,379.367 1786.31,384.062 1851.6,425.626 1853.54,426.813 1916.89,463.994 1935.25,474.259 1982.18,499.519 2025.56,521.705 
  2047.47,532.507 2112.76,563.22 
  "/>
<polyline clip-path="url(#clip742)" style="stroke:#d04544; stroke-linecap:butt; stroke-linejoin:round; stroke-width:12; stroke-opacity:1; fill:none" points="
  2112.76,649.216 2047.47,621.574 2036.19,616.597 1982.18,591.885 1935.25,569.151 1916.89,559.912 1851.6,525.382 1844.94,521.705 1786.31,487.974 1763.66,474.259 
  1721.02,447.312 1690.13,426.813 1655.73,402.955 1623.28,379.367 1590.45,354.373 1562.24,331.92 1525.16,300.932 1506.28,284.474 1459.87,241.867 1454.81,237.028 
  1407.29,189.582 1394.58,176.238 1363.29,142.136 1329.29,102.889 1322.44,94.6902 1284.4,47.2441 
  "/>
<polyline clip-path="url(#clip742)" style="stroke:#ba3655; stroke-linecap:butt; stroke-linejoin:round; stroke-width:12; stroke-opacity:1; fill:none" points="
  1166.07,47.2441 1198.71,93.1086 1199.88,94.6902 1236.19,142.136 1264,176.238 1275.3,189.582 1317.54,237.028 1329.29,249.588 1363.29,284.474 1394.58,314.787 
  1413.03,331.92 1459.87,373.124 1467.29,379.367 1525.16,425.626 1526.71,426.813 1590.45,473.129 1592.08,474.259 1655.73,516.313 1664.32,521.705 1721.02,555.742 
  1744.6,569.151 1786.31,591.885 1834.32,616.597 1851.6,625.137 1916.89,655.831 1935.25,664.043 1982.18,684.251 2047.47,710.642 2049.64,711.489 2112.76,735.212 
  
  "/>
<polyline clip-path="url(#clip742)" style="stroke:#a12b61; stroke-linecap:butt; stroke-linejoin:round; stroke-width:12; stroke-opacity:1; fill:none" points="
  2112.76,821.208 2067.24,806.381 2047.47,799.709 1982.18,776.617 1935.25,758.935 1916.89,751.75 1851.6,724.892 1820.86,711.489 1786.31,695.797 1721.02,664.172 
  1720.77,664.043 1655.73,629.671 1632.45,616.597 1590.45,591.885 1553.95,569.151 1525.16,550.321 1483.71,521.705 1459.87,504.381 1420.49,474.259 1394.58,453.336 
  1363.29,426.813 1329.29,396.287 1311.3,379.367 1264,332.106 1263.82,331.92 1220.31,284.474 1198.71,259.368 1180.27,237.028 1143.31,189.582 1133.42,176.238 
  1109.09,142.136 1077.32,94.6902 1068.13,80.3195 1047.73,47.2441 
  "/>
<polyline clip-path="url(#clip742)" style="stroke:#88216a; stroke-linecap:butt; stroke-linejoin:round; stroke-width:12; stroke-opacity:1; fill:none" points="
  929.396,47.2441 937.557,62.8797 954.754,94.6902 981.99,142.136 1002.85,176.238 1011.32,189.582 1043,237.028 1068.13,272.157 1077.32,284.474 1114.62,331.92 
  1133.42,354.373 1155.31,379.367 1198.71,425.626 1199.88,426.813 1248.9,474.259 1264,487.974 1303.09,521.705 1329.29,542.986 1363.29,569.151 1394.58,591.885 
  1430.58,616.597 1459.87,635.638 1506.28,664.043 1525.16,675.015 1590.45,710.642 1592.08,711.489 1655.73,743.03 1690.13,758.935 1721.02,772.602 1786.31,799.709 
  1803.26,806.381 1851.6,824.648 1916.89,847.668 1935.25,853.827 1982.18,868.983 2047.47,888.776 2091.24,901.273 2112.76,907.204 
  "/>
<polyline clip-path="url(#clip742)" style="stroke:#6e186e; stroke-linecap:butt; stroke-linejoin:round; stroke-width:12; stroke-opacity:1; fill:none" points="
  2112.76,993.2 2047.47,977.843 1982.18,961.35 1935.25,948.719 1916.89,943.587 1851.6,924.403 1786.31,903.621 1779.26,901.273 1721.02,881.031 1655.73,856.388 
  1649.27,853.827 1590.45,829.398 1539.28,806.381 1525.16,799.709 1459.87,766.895 1445,758.935 1394.58,730.434 1363.29,711.489 1329.29,689.685 1291.8,664.043 
  1264,643.841 1228.72,616.597 1198.71,591.885 1172.64,569.151 1133.42,532.507 1122.47,521.705 1077.32,474.259 1068.13,463.994 1036.46,426.813 1002.85,384.062 
  999.322,379.367 965.411,331.92 937.557,289.596 934.327,284.474 905.729,237.028 879.331,189.582 872.268,176.238 854.888,142.136 832.192,94.6902 811.06,47.2441 
  
  "/>
<polyline clip-path="url(#clip742)" style="stroke:#550f6d; stroke-linecap:butt; stroke-linejoin:round; stroke-width:12; stroke-opacity:1; fill:none" points="
  692.724,47.2441 709.629,94.6902 727.787,142.136 741.691,176.238 747.341,189.582 768.459,237.028 791.337,284.474 806.98,314.787 816.205,331.92 843.334,379.367 
  872.268,425.626 873.046,426.813 905.729,474.259 937.557,516.313 941.852,521.705 981.99,569.151 1002.85,591.885 1026.85,616.597 1068.13,655.831 1077.32,664.043 
  1133.42,710.642 1134.51,711.489 1198.71,758.144 1199.88,758.935 1264,799.709 1275.3,806.381 1329.29,836.384 1363.29,853.827 1394.58,868.983 1459.87,898.152 
  1467.29,901.273 1525.16,924.403 1590.45,948.154 1592.08,948.719 1655.73,969.746 1721.02,989.461 1744.6,996.165 1786.31,1007.53 1851.6,1024.16 1916.89,1039.51 
  1935.25,1043.61 1982.18,1053.72 2047.47,1066.91 2112.76,1079.2 
  "/>
<polyline clip-path="url(#clip742)" style="stroke:#3b0964; stroke-linecap:butt; stroke-linejoin:round; stroke-width:12; stroke-opacity:1; fill:none" points="
  2112.76,1165.19 2047.47,1155.98 1982.18,1146.08 1935.25,1138.5 1916.89,1135.42 1851.6,1123.91 1786.31,1111.44 1721.02,1097.89 1690.13,1091.06 1655.73,1083.1 
  1590.45,1066.91 1525.16,1049.1 1506.28,1043.61 1459.87,1029.41 1394.58,1007.53 1363.29,996.165 1329.29,983.083 1264,955.577 1248.9,948.719 1198.71,924.403 
  1155.31,901.273 1133.42,888.776 1077.32,853.827 1068.13,847.668 1011.32,806.381 1002.85,799.709 954.754,758.935 937.557,743.03 905.729,711.489 872.268,675.015 
  862.832,664.043 824.982,616.597 806.98,591.885 791.337,569.151 761.234,521.705 741.691,487.974 734.142,474.259 709.629,426.813 687.345,379.367 676.402,354.373 
  666.999,331.92 648.348,284.474 631.189,237.028 615.351,189.582 611.113,176.238 600.685,142.136 587.067,94.6902 574.388,47.2441 
  "/>
<polyline clip-path="url(#clip742)" style="stroke:#1f0c47; stroke-linecap:butt; stroke-linejoin:round; stroke-width:12; stroke-opacity:1; fill:none" points="
  456.052,47.2441 464.505,94.6902 473.583,142.136 480.535,176.238 483.36,189.582 493.92,237.028 505.359,284.474 517.793,331.92 531.357,379.367 545.824,425.626 
  546.213,426.813 562.555,474.259 580.616,521.705 600.685,569.151 611.113,591.885 623.115,616.597 648.348,664.043 676.402,710.642 676.946,711.489 709.629,758.935 
  741.691,799.709 747.341,806.381 791.337,853.827 806.98,868.983 843.334,901.273 872.268,924.403 905.729,948.719 937.557,969.746 981.99,996.165 1002.85,1007.53 
  1068.13,1039.51 1077.32,1043.61 1133.42,1066.91 1198.71,1090.66 1199.88,1091.06 1264,1111.44 1329.29,1129.78 1363.29,1138.5 1394.58,1146.08 1459.87,1160.67 
  1525.16,1173.79 1590.45,1185.67 1592.08,1185.95 1655.73,1196.46 1721.02,1206.32 1786.31,1215.36 1851.6,1223.67 1916.89,1231.34 1935.25,1233.4 1982.18,1238.45 
  2047.47,1245.05 2112.76,1251.19 
  "/>
<polyline clip-path="url(#clip742)" style="stroke:#090621; stroke-linecap:butt; stroke-linejoin:round; stroke-width:12; stroke-opacity:1; fill:none" points="
  2112.76,1337.18 2047.47,1334.11 1982.18,1330.81 1935.25,1328.29 1916.89,1327.26 1851.6,1323.42 1786.31,1319.27 1721.02,1314.75 1655.73,1309.82 1590.45,1304.42 
  1525.16,1298.49 1459.87,1291.92 1394.58,1284.63 1363.29,1280.84 1329.29,1276.48 1264,1267.31 1198.71,1256.92 1133.42,1245.05 1077.32,1233.4 1068.13,1231.34 
  1002.85,1215.36 937.557,1196.46 905.729,1185.95 872.268,1173.79 806.98,1146.08 791.337,1138.5 741.691,1111.44 709.629,1091.06 676.402,1066.91 648.348,1043.61 
  611.113,1007.53 600.685,996.165 562.555,948.719 545.824,924.403 531.357,901.273 505.359,853.827 483.36,806.381 480.535,799.709 464.505,758.935 448.163,711.489 
  433.864,664.043 421.247,616.597 415.247,591.885 410.033,569.151 399.998,521.705 390.967,474.259 382.797,426.813 375.369,379.367 368.586,331.92 362.369,284.474 
  356.65,237.028 351.37,189.582 349.958,176.238 346.482,142.136 341.942,94.6902 337.716,47.2441 
  "/>
<defs>
  <clipPath id="clip743">
    <rect x="2160" y="47" width="73" height="1377"/>
  </clipPath>
</defs>
<polyline clip-path="url(#clip743)" style="stroke:#0a0723; stroke-linecap:butt; stroke-linejoin:round; stroke-width:12; stroke-opacity:1; fill:none" points="
  2160.76,1337.18 2232.76,1337.18 
  "/>
<polyline clip-path="url(#clip743)" style="stroke:#200c4a; stroke-linecap:butt; stroke-linejoin:round; stroke-width:12; stroke-opacity:1; fill:none" points="
  2160.76,1251.19 2232.76,1251.19 
  "/>
<polyline clip-path="url(#clip743)" style="stroke:#3c0965; stroke-linecap:butt; stroke-linejoin:round; stroke-width:12; stroke-opacity:1; fill:none" points="
  2160.76,1165.19 2232.76,1165.19 
  "/>
<polyline clip-path="url(#clip743)" style="stroke:#570f6d; stroke-linecap:butt; stroke-linejoin:round; stroke-width:12; stroke-opacity:1; fill:none" points="
  2160.76,1079.2 2232.76,1079.2 
  "/>
<polyline clip-path="url(#clip743)" style="stroke:#70196e; stroke-linecap:butt; stroke-linejoin:round; stroke-width:12; stroke-opacity:1; fill:none" points="
  2160.76,993.2 2232.76,993.2 
  "/>
<polyline clip-path="url(#clip743)" style="stroke:#892269; stroke-linecap:butt; stroke-linejoin:round; stroke-width:12; stroke-opacity:1; fill:none" points="
  2160.76,907.204 2232.76,907.204 
  "/>
<polyline clip-path="url(#clip743)" style="stroke:#a32b61; stroke-linecap:butt; stroke-linejoin:round; stroke-width:12; stroke-opacity:1; fill:none" points="
  2160.76,821.208 2232.76,821.208 
  "/>
<polyline clip-path="url(#clip743)" style="stroke:#bb3754; stroke-linecap:butt; stroke-linejoin:round; stroke-width:12; stroke-opacity:1; fill:none" points="
  2160.76,735.212 2232.76,735.212 
  "/>
<polyline clip-path="url(#clip743)" style="stroke:#d04544; stroke-linecap:butt; stroke-linejoin:round; stroke-width:12; stroke-opacity:1; fill:none" points="
  2160.76,649.216 2232.76,649.216 
  "/>
<polyline clip-path="url(#clip743)" style="stroke:#e35832; stroke-linecap:butt; stroke-linejoin:round; stroke-width:12; stroke-opacity:1; fill:none" points="
  2160.76,563.22 2232.76,563.22 
  "/>
<polyline clip-path="url(#clip743)" style="stroke:#f0701e; stroke-linecap:butt; stroke-linejoin:round; stroke-width:12; stroke-opacity:1; fill:none" points="
  2160.76,477.224 2232.76,477.224 
  "/>
<polyline clip-path="url(#clip743)" style="stroke:#f98c09; stroke-linecap:butt; stroke-linejoin:round; stroke-width:12; stroke-opacity:1; fill:none" points="
  2160.76,391.228 2232.76,391.228 
  "/>
<polyline clip-path="url(#clip743)" style="stroke:#fbaa0e; stroke-linecap:butt; stroke-linejoin:round; stroke-width:12; stroke-opacity:1; fill:none" points="
  2160.76,305.232 2232.76,305.232 
  "/>
<polyline clip-path="url(#clip743)" style="stroke:#f8c931; stroke-linecap:butt; stroke-linejoin:round; stroke-width:12; stroke-opacity:1; fill:none" points="
  2160.76,219.236 2232.76,219.236 
  "/>
<polyline clip-path="url(#clip743)" style="stroke:#f1e864; stroke-linecap:butt; stroke-linejoin:round; stroke-width:12; stroke-opacity:1; fill:none" points="
  2160.76,133.24 2232.76,133.24 
  "/>
<path clip-path="url(#clip740)" d="M2280.7 1405.35 Q2277.09 1405.35 2275.26 1408.91 Q2273.45 1412.46 2273.45 1419.59 Q2273.45 1426.69 2275.26 1430.26 Q2277.09 1433.8 2280.7 1433.8 Q2284.33 1433.8 2286.14 1430.26 Q2287.97 1426.69 2287.97 1419.59 Q2287.97 1412.46 2286.14 1408.91 Q2284.33 1405.35 2280.7 1405.35 M2280.7 1401.65 Q2286.51 1401.65 2289.57 1406.25 Q2292.64 1410.84 2292.64 1419.59 Q2292.64 1428.31 2289.57 1432.92 Q2286.51 1437.5 2280.7 1437.5 Q2274.89 1437.5 2271.81 1432.92 Q2268.76 1428.31 2268.76 1419.59 Q2268.76 1410.84 2271.81 1406.25 Q2274.89 1401.65 2280.7 1401.65 Z" fill="#000000" fill-rule="evenodd" fill-opacity="1" /><path clip-path="url(#clip740)" d="M2280.7 1233.36 Q2277.09 1233.36 2275.26 1236.92 Q2273.45 1240.46 2273.45 1247.59 Q2273.45 1254.7 2275.26 1258.27 Q2277.09 1261.81 2280.7 1261.81 Q2284.33 1261.81 2286.14 1258.27 Q2287.97 1254.7 2287.97 1247.59 Q2287.97 1240.46 2286.14 1236.92 Q2284.33 1233.36 2280.7 1233.36 M2280.7 1229.65 Q2286.51 1229.65 2289.57 1234.26 Q2292.64 1238.84 2292.64 1247.59 Q2292.64 1256.32 2289.57 1260.93 Q2286.51 1265.51 2280.7 1265.51 Q2274.89 1265.51 2271.81 1260.93 Q2268.76 1256.32 2268.76 1247.59 Q2268.76 1238.84 2271.81 1234.26 Q2274.89 1229.65 2280.7 1229.65 Z" fill="#000000" fill-rule="evenodd" fill-opacity="1" /><path clip-path="url(#clip740)" d="M2300.86 1258.96 L2305.75 1258.96 L2305.75 1264.84 L2300.86 1264.84 L2300.86 1258.96 Z" fill="#000000" fill-rule="evenodd" fill-opacity="1" /><path clip-path="url(#clip740)" d="M2315.98 1230.28 L2334.33 1230.28 L2334.33 1234.21 L2320.26 1234.21 L2320.26 1242.69 Q2321.28 1242.34 2322.3 1242.18 Q2323.32 1241.99 2324.33 1241.99 Q2330.12 1241.99 2333.5 1245.16 Q2336.88 1248.33 2336.88 1253.75 Q2336.88 1259.33 2333.41 1262.43 Q2329.94 1265.51 2323.62 1265.51 Q2321.44 1265.51 2319.17 1265.14 Q2316.93 1264.77 2314.52 1264.03 L2314.52 1259.33 Q2316.6 1260.46 2318.83 1261.02 Q2321.05 1261.58 2323.52 1261.58 Q2327.53 1261.58 2329.87 1259.47 Q2332.2 1257.36 2332.2 1253.75 Q2332.2 1250.14 2329.87 1248.03 Q2327.53 1245.93 2323.52 1245.93 Q2321.65 1245.93 2319.77 1246.34 Q2317.92 1246.76 2315.98 1247.64 L2315.98 1230.28 Z" fill="#000000" fill-rule="evenodd" fill-opacity="1" /><path clip-path="url(#clip740)" d="M2269.43 1088.91 L2277.07 1088.91 L2277.07 1062.55 L2268.76 1064.21 L2268.76 1059.95 L2277.02 1058.29 L2281.7 1058.29 L2281.7 1088.91 L2289.33 1088.91 L2289.33 1092.85 L2269.43 1092.85 L2269.43 1088.91 Z" fill="#000000" fill-rule="evenodd" fill-opacity="1" /><path clip-path="url(#clip740)" d="M2298.78 1086.97 L2303.66 1086.97 L2303.66 1092.85 L2298.78 1092.85 L2298.78 1086.97 Z" fill="#000000" fill-rule="evenodd" fill-opacity="1" /><path clip-path="url(#clip740)" d="M2323.85 1061.37 Q2320.24 1061.37 2318.41 1064.93 Q2316.6 1068.47 2316.6 1075.6 Q2316.6 1082.71 2318.41 1086.27 Q2320.24 1089.81 2323.85 1089.81 Q2327.48 1089.81 2329.29 1086.27 Q2331.12 1082.71 2331.12 1075.6 Q2331.12 1068.47 2329.29 1064.93 Q2327.48 1061.37 2323.85 1061.37 M2323.85 1057.66 Q2329.66 1057.66 2332.71 1062.27 Q2335.79 1066.85 2335.79 1075.6 Q2335.79 1084.33 2332.71 1088.94 Q2329.66 1093.52 2323.85 1093.52 Q2318.04 1093.52 2314.96 1088.94 Q2311.9 1084.33 2311.9 1075.6 Q2311.9 1066.85 2314.96 1062.27 Q2318.04 1057.66 2323.85 1057.66 Z" fill="#000000" fill-rule="evenodd" fill-opacity="1" /><path clip-path="url(#clip740)" d="M2269.43 916.92 L2277.07 916.92 L2277.07 890.554 L2268.76 892.221 L2268.76 887.962 L2277.02 886.295 L2281.7 886.295 L2281.7 916.92 L2289.33 916.92 L2289.33 920.855 L2269.43 920.855 L2269.43 916.92 Z" fill="#000000" fill-rule="evenodd" fill-opacity="1" /><path clip-path="url(#clip740)" d="M2298.78 914.976 L2303.66 914.976 L2303.66 920.855 L2298.78 920.855 L2298.78 914.976 Z" fill="#000000" fill-rule="evenodd" fill-opacity="1" /><path clip-path="url(#clip740)" d="M2313.89 886.295 L2332.25 886.295 L2332.25 890.23 L2318.18 890.23 L2318.18 898.702 Q2319.2 898.355 2320.21 898.193 Q2321.23 898.008 2322.25 898.008 Q2328.04 898.008 2331.42 901.179 Q2334.8 904.351 2334.8 909.767 Q2334.8 915.346 2331.33 918.448 Q2327.85 921.526 2321.53 921.526 Q2319.36 921.526 2317.09 921.156 Q2314.84 920.786 2312.44 920.045 L2312.44 915.346 Q2314.52 916.48 2316.74 917.036 Q2318.96 917.591 2321.44 917.591 Q2325.45 917.591 2327.78 915.485 Q2330.12 913.378 2330.12 909.767 Q2330.12 906.156 2327.78 904.05 Q2325.45 901.943 2321.44 901.943 Q2319.57 901.943 2317.69 902.36 Q2315.84 902.777 2313.89 903.656 L2313.89 886.295 Z" fill="#000000" fill-rule="evenodd" fill-opacity="1" /><path clip-path="url(#clip740)" d="M2274.38 744.928 L2290.7 744.928 L2290.7 748.863 L2268.76 748.863 L2268.76 744.928 Q2271.42 742.173 2276 737.544 Q2280.61 732.891 2281.79 731.548 Q2284.03 729.025 2284.91 727.289 Q2285.82 725.53 2285.82 723.84 Q2285.82 721.086 2283.87 719.349 Q2281.95 717.613 2278.85 717.613 Q2276.65 717.613 2274.2 718.377 Q2271.77 719.141 2268.99 720.692 L2268.99 715.97 Q2271.81 714.836 2274.27 714.257 Q2276.72 713.678 2278.76 713.678 Q2284.13 713.678 2287.32 716.363 Q2290.52 719.049 2290.52 723.539 Q2290.52 725.669 2289.7 727.59 Q2288.92 729.488 2286.81 732.081 Q2286.23 732.752 2283.13 735.97 Q2280.03 739.164 2274.38 744.928 Z" fill="#000000" fill-rule="evenodd" fill-opacity="1" /><path clip-path="url(#clip740)" d="M2300.51 742.984 L2305.4 742.984 L2305.4 748.863 L2300.51 748.863 L2300.51 742.984 Z" fill="#000000" fill-rule="evenodd" fill-opacity="1" /><path clip-path="url(#clip740)" d="M2325.58 717.382 Q2321.97 717.382 2320.14 720.947 Q2318.34 724.488 2318.34 731.618 Q2318.34 738.724 2320.14 742.289 Q2321.97 745.831 2325.58 745.831 Q2329.22 745.831 2331.02 742.289 Q2332.85 738.724 2332.85 731.618 Q2332.85 724.488 2331.02 720.947 Q2329.22 717.382 2325.58 717.382 M2325.58 713.678 Q2331.39 713.678 2334.45 718.285 Q2337.53 722.868 2337.53 731.618 Q2337.53 740.345 2334.45 744.951 Q2331.39 749.534 2325.58 749.534 Q2319.77 749.534 2316.7 744.951 Q2313.64 740.345 2313.64 731.618 Q2313.64 722.868 2316.7 718.285 Q2319.77 713.678 2325.58 713.678 Z" fill="#000000" fill-rule="evenodd" fill-opacity="1" /><path clip-path="url(#clip740)" d="M2274.38 572.936 L2290.7 572.936 L2290.7 576.871 L2268.76 576.871 L2268.76 572.936 Q2271.42 570.181 2276 565.552 Q2280.61 560.899 2281.79 559.556 Q2284.03 557.033 2284.91 555.297 Q2285.82 553.538 2285.82 551.848 Q2285.82 549.094 2283.87 547.357 Q2281.95 545.621 2278.85 545.621 Q2276.65 545.621 2274.2 546.385 Q2271.77 547.149 2268.99 548.7 L2268.99 543.978 Q2271.81 542.844 2274.27 542.265 Q2276.72 541.686 2278.76 541.686 Q2284.13 541.686 2287.32 544.371 Q2290.52 547.057 2290.52 551.547 Q2290.52 553.677 2289.7 555.598 Q2288.92 557.496 2286.81 560.089 Q2286.23 560.76 2283.13 563.978 Q2280.03 567.172 2274.38 572.936 Z" fill="#000000" fill-rule="evenodd" fill-opacity="1" /><path clip-path="url(#clip740)" d="M2300.51 570.992 L2305.4 570.992 L2305.4 576.871 L2300.51 576.871 L2300.51 570.992 Z" fill="#000000" fill-rule="evenodd" fill-opacity="1" /><path clip-path="url(#clip740)" d="M2315.63 542.311 L2333.99 542.311 L2333.99 546.246 L2319.91 546.246 L2319.91 554.719 Q2320.93 554.371 2321.95 554.209 Q2322.97 554.024 2323.99 554.024 Q2329.77 554.024 2333.15 557.195 Q2336.53 560.367 2336.53 565.783 Q2336.53 571.362 2333.06 574.464 Q2329.59 577.542 2323.27 577.542 Q2321.09 577.542 2318.83 577.172 Q2316.58 576.802 2314.17 576.061 L2314.17 571.362 Q2316.26 572.496 2318.48 573.052 Q2320.7 573.607 2323.18 573.607 Q2327.18 573.607 2329.52 571.501 Q2331.86 569.394 2331.86 565.783 Q2331.86 562.172 2329.52 560.066 Q2327.18 557.959 2323.18 557.959 Q2321.3 557.959 2319.43 558.376 Q2317.58 558.793 2315.63 559.672 L2315.63 542.311 Z" fill="#000000" fill-rule="evenodd" fill-opacity="1" /><path clip-path="url(#clip740)" d="M2284.38 386.245 Q2287.74 386.963 2289.61 389.231 Q2291.51 391.5 2291.51 394.833 Q2291.51 399.949 2287.99 402.75 Q2284.47 405.551 2277.99 405.551 Q2275.82 405.551 2273.5 405.111 Q2271.21 404.694 2268.76 403.838 L2268.76 399.324 Q2270.7 400.458 2273.02 401.037 Q2275.33 401.615 2277.85 401.615 Q2282.25 401.615 2284.54 399.879 Q2286.86 398.143 2286.86 394.833 Q2286.86 391.777 2284.7 390.064 Q2282.58 388.328 2278.76 388.328 L2274.73 388.328 L2274.73 384.486 L2278.94 384.486 Q2282.39 384.486 2284.22 383.12 Q2286.05 381.731 2286.05 379.139 Q2286.05 376.477 2284.15 375.065 Q2282.27 373.629 2278.76 373.629 Q2276.83 373.629 2274.64 374.046 Q2272.44 374.463 2269.8 375.342 L2269.8 371.176 Q2272.46 370.435 2274.77 370.065 Q2277.11 369.694 2279.17 369.694 Q2284.5 369.694 2287.6 372.125 Q2290.7 374.532 2290.7 378.653 Q2290.7 381.523 2289.06 383.514 Q2287.41 385.481 2284.38 386.245 Z" fill="#000000" fill-rule="evenodd" fill-opacity="1" /><path clip-path="url(#clip740)" d="M2300.38 399 L2305.26 399 L2305.26 404.879 L2300.38 404.879 L2300.38 399 Z" fill="#000000" fill-rule="evenodd" fill-opacity="1" /><path clip-path="url(#clip740)" d="M2325.45 373.398 Q2321.83 373.398 2320.01 376.963 Q2318.2 380.504 2318.2 387.634 Q2318.2 394.74 2320.01 398.305 Q2321.83 401.847 2325.45 401.847 Q2329.08 401.847 2330.89 398.305 Q2332.71 394.74 2332.71 387.634 Q2332.71 380.504 2330.89 376.963 Q2329.08 373.398 2325.45 373.398 M2325.45 369.694 Q2331.26 369.694 2334.31 374.301 Q2337.39 378.884 2337.39 387.634 Q2337.39 396.361 2334.31 400.967 Q2331.26 405.551 2325.45 405.551 Q2319.64 405.551 2316.56 400.967 Q2313.5 396.361 2313.5 387.634 Q2313.5 378.884 2316.56 374.301 Q2319.64 369.694 2325.45 369.694 Z" fill="#000000" fill-rule="evenodd" fill-opacity="1" /><path clip-path="url(#clip740)" d="M2284.38 214.253 Q2287.74 214.971 2289.61 217.239 Q2291.51 219.508 2291.51 222.841 Q2291.51 227.957 2287.99 230.758 Q2284.47 233.559 2277.99 233.559 Q2275.82 233.559 2273.5 233.119 Q2271.21 232.702 2268.76 231.846 L2268.76 227.332 Q2270.7 228.466 2273.02 229.045 Q2275.33 229.623 2277.85 229.623 Q2282.25 229.623 2284.54 227.887 Q2286.86 226.151 2286.86 222.841 Q2286.86 219.785 2284.7 218.073 Q2282.58 216.336 2278.76 216.336 L2274.73 216.336 L2274.73 212.494 L2278.94 212.494 Q2282.39 212.494 2284.22 211.128 Q2286.05 209.739 2286.05 207.147 Q2286.05 204.485 2284.15 203.073 Q2282.27 201.637 2278.76 201.637 Q2276.83 201.637 2274.64 202.054 Q2272.44 202.471 2269.8 203.35 L2269.8 199.184 Q2272.46 198.443 2274.77 198.073 Q2277.11 197.702 2279.17 197.702 Q2284.5 197.702 2287.6 200.133 Q2290.7 202.54 2290.7 206.661 Q2290.7 209.531 2289.06 211.522 Q2287.41 213.489 2284.38 214.253 Z" fill="#000000" fill-rule="evenodd" fill-opacity="1" /><path clip-path="url(#clip740)" d="M2300.38 227.008 L2305.26 227.008 L2305.26 232.887 L2300.38 232.887 L2300.38 227.008 Z" fill="#000000" fill-rule="evenodd" fill-opacity="1" /><path clip-path="url(#clip740)" d="M2315.49 198.327 L2333.85 198.327 L2333.85 202.262 L2319.77 202.262 L2319.77 210.735 Q2320.79 210.387 2321.81 210.225 Q2322.83 210.04 2323.85 210.04 Q2329.64 210.04 2333.01 213.211 Q2336.39 216.383 2336.39 221.799 Q2336.39 227.378 2332.92 230.48 Q2329.45 233.559 2323.13 233.559 Q2320.95 233.559 2318.69 233.188 Q2316.44 232.818 2314.03 232.077 L2314.03 227.378 Q2316.12 228.512 2318.34 229.068 Q2320.56 229.623 2323.04 229.623 Q2327.04 229.623 2329.38 227.517 Q2331.72 225.41 2331.72 221.799 Q2331.72 218.188 2329.38 216.082 Q2327.04 213.975 2323.04 213.975 Q2321.16 213.975 2319.29 214.392 Q2317.44 214.809 2315.49 215.688 L2315.49 198.327 Z" fill="#000000" fill-rule="evenodd" fill-opacity="1" /><path clip-path="url(#clip740)" d="M2284.36 30.4093 L2272.55 48.8583 L2284.36 48.8583 L2284.36 30.4093 M2283.13 26.3353 L2289.01 26.3353 L2289.01 48.8583 L2293.94 48.8583 L2293.94 52.7472 L2289.01 52.7472 L2289.01 60.8953 L2284.36 60.8953 L2284.36 52.7472 L2268.76 52.7472 L2268.76 48.2333 L2283.13 26.3353 Z" fill="#000000" fill-rule="evenodd" fill-opacity="1" /><path clip-path="url(#clip740)" d="M2301.67 55.0157 L2306.56 55.0157 L2306.56 60.8953 L2301.67 60.8953 L2301.67 55.0157 Z" fill="#000000" fill-rule="evenodd" fill-opacity="1" /><path clip-path="url(#clip740)" d="M2326.74 29.414 Q2323.13 29.414 2321.3 32.9788 Q2319.5 36.5204 2319.5 43.65 Q2319.5 50.7565 2321.3 54.3213 Q2323.13 57.8629 2326.74 57.8629 Q2330.38 57.8629 2332.18 54.3213 Q2334.01 50.7565 2334.01 43.65 Q2334.01 36.5204 2332.18 32.9788 Q2330.38 29.414 2326.74 29.414 M2326.74 25.7103 Q2332.55 25.7103 2335.61 30.3168 Q2338.69 34.9001 2338.69 43.65 Q2338.69 52.3768 2335.61 56.9833 Q2332.55 61.5666 2326.74 61.5666 Q2320.93 61.5666 2317.85 56.9833 Q2314.8 52.3768 2314.8 43.65 Q2314.8 34.9001 2317.85 30.3168 Q2320.93 25.7103 2326.74 25.7103 Z" fill="#000000" fill-rule="evenodd" fill-opacity="1" /><polyline clip-path="url(#clip740)" style="stroke:#000000; stroke-linecap:butt; stroke-linejoin:round; stroke-width:4; stroke-opacity:1; fill:none" points="
  2232.76,1423.18 2232.76,1423.18 2256.76,1423.18 2232.76,1423.18 2232.76,1251.19 2256.76,1251.19 2232.76,1251.19 2232.76,1079.2 2256.76,1079.2 2232.76,1079.2 
  2232.76,907.204 2256.76,907.204 2232.76,907.204 2232.76,735.212 2256.76,735.212 2232.76,735.212 2232.76,563.22 2256.76,563.22 2232.76,563.22 2232.76,391.228 
  2256.76,391.228 2232.76,391.228 2232.76,219.236 2256.76,219.236 2232.76,219.236 2232.76,47.2441 2256.76,47.2441 2232.76,47.2441 
  "/>
</svg>
