<?xml version="1.0" encoding="utf-8"?>
<svg xmlns="http://www.w3.org/2000/svg" xmlns:xlink="http://www.w3.org/1999/xlink" width="600" height="400" viewBox="0 0 2400 1600">
<defs>
  <clipPath id="clip660">
    <rect x="0" y="0" width="2400" height="1600"/>
  </clipPath>
</defs>
<path clip-path="url(#clip660)" d="
M0 1600 L2400 1600 L2400 0 L0 0  Z
  " fill="#ffffff" fill-rule="evenodd" fill-opacity="1"/>
<defs>
  <clipPath id="clip661">
    <rect x="480" y="0" width="1681" height="1600"/>
  </clipPath>
</defs>
<path clip-path="url(#clip660)" d="
M186.274 1486.45 L2352.76 1486.45 L2352.76 47.2441 L186.274 47.2441  Z
  " fill="#ffffff" fill-rule="evenodd" fill-opacity="1"/>
<defs>
  <clipPath id="clip662">
    <rect x="186" y="47" width="2167" height="1440"/>
  </clipPath>
</defs>
<polyline clip-path="url(#clip662)" style="stroke:#000000; stroke-linecap:butt; stroke-linejoin:round; stroke-width:2; stroke-opacity:0.1; fill:none" points="
  204.447,1486.45 204.447,47.2441 
  "/>
<polyline clip-path="url(#clip662)" style="stroke:#000000; stroke-linecap:butt; stroke-linejoin:round; stroke-width:2; stroke-opacity:0.1; fill:none" points="
  644.558,1486.45 644.558,47.2441 
  "/>
<polyline clip-path="url(#clip662)" style="stroke:#000000; stroke-linecap:butt; stroke-linejoin:round; stroke-width:2; stroke-opacity:0.1; fill:none" points="
  1084.67,1486.45 1084.67,47.2441 
  "/>
<polyline clip-path="url(#clip662)" style="stroke:#000000; stroke-linecap:butt; stroke-linejoin:round; stroke-width:2; stroke-opacity:0.1; fill:none" points="
  1524.78,1486.45 1524.78,47.2441 
  "/>
<polyline clip-path="url(#clip662)" style="stroke:#000000; stroke-linecap:butt; stroke-linejoin:round; stroke-width:2; stroke-opacity:0.1; fill:none" points="
  1964.89,1486.45 1964.89,47.2441 
  "/>
<polyline clip-path="url(#clip660)" style="stroke:#000000; stroke-linecap:butt; stroke-linejoin:round; stroke-width:4; stroke-opacity:1; fill:none" points="
  186.274,1486.45 2352.76,1486.45 
  "/>
<polyline clip-path="url(#clip660)" style="stroke:#000000; stroke-linecap:butt; stroke-linejoin:round; stroke-width:4; stroke-opacity:1; fill:none" points="
  204.447,1486.45 204.447,1467.55 
  "/>
<polyline clip-path="url(#clip660)" style="stroke:#000000; stroke-linecap:butt; stroke-linejoin:round; stroke-width:4; stroke-opacity:1; fill:none" points="
  644.558,1486.45 644.558,1467.55 
  "/>
<polyline clip-path="url(#clip660)" style="stroke:#000000; stroke-linecap:butt; stroke-linejoin:round; stroke-width:4; stroke-opacity:1; fill:none" points="
  1084.67,1486.45 1084.67,1467.55 
  "/>
<polyline clip-path="url(#clip660)" style="stroke:#000000; stroke-linecap:butt; stroke-linejoin:round; stroke-width:4; stroke-opacity:1; fill:none" points="
  1524.78,1486.45 1524.78,1467.55 
  "/>
<polyline clip-path="url(#clip660)" style="stroke:#000000; stroke-linecap:butt; stroke-linejoin:round; stroke-width:4; stroke-opacity:1; fill:none" points="
  1964.89,1486.45 1964.89,1467.55 
  "/>
<path clip-path="url(#clip660)" d="M204.447 1517.37 Q200.836 1517.37 199.007 1520.93 Q197.201 1524.47 197.201 1531.6 Q197.201 1538.71 199.007 1542.27 Q200.836 1545.82 204.447 1545.82 Q208.081 1545.82 209.887 1542.27 Q211.715 1538.71 211.715 1531.6 Q211.715 1524.47 209.887 1520.93 Q208.081 1517.37 204.447 1517.37 M204.447 1513.66 Q210.257 1513.66 213.312 1518.27 Q216.391 1522.85 216.391 1531.6 Q216.391 1540.33 213.312 1544.94 Q210.257 1549.52 204.447 1549.52 Q198.637 1549.52 195.558 1544.94 Q192.502 1540.33 192.502 1531.6 Q192.502 1522.85 195.558 1518.27 Q198.637 1513.66 204.447 1513.66 Z" fill="#000000" fill-rule="evenodd" fill-opacity="1" /><path clip-path="url(#clip660)" d="M619.257 1514.29 L637.613 1514.29 L637.613 1518.22 L623.539 1518.22 L623.539 1526.7 Q624.558 1526.35 625.576 1526.19 Q626.595 1526 627.613 1526 Q633.4 1526 636.78 1529.17 Q640.159 1532.34 640.159 1537.76 Q640.159 1543.34 636.687 1546.44 Q633.215 1549.52 626.896 1549.52 Q624.72 1549.52 622.451 1549.15 Q620.206 1548.78 617.798 1548.04 L617.798 1543.34 Q619.882 1544.47 622.104 1545.03 Q624.326 1545.58 626.803 1545.58 Q630.808 1545.58 633.146 1543.48 Q635.484 1541.37 635.484 1537.76 Q635.484 1534.15 633.146 1532.04 Q630.808 1529.94 626.803 1529.94 Q624.928 1529.94 623.053 1530.35 Q621.201 1530.77 619.257 1531.65 L619.257 1514.29 Z" fill="#000000" fill-rule="evenodd" fill-opacity="1" /><path clip-path="url(#clip660)" d="M659.372 1517.37 Q655.761 1517.37 653.933 1520.93 Q652.127 1524.47 652.127 1531.6 Q652.127 1538.71 653.933 1542.27 Q655.761 1545.82 659.372 1545.82 Q663.007 1545.82 664.812 1542.27 Q666.641 1538.71 666.641 1531.6 Q666.641 1524.47 664.812 1520.93 Q663.007 1517.37 659.372 1517.37 M659.372 1513.66 Q665.182 1513.66 668.238 1518.27 Q671.317 1522.85 671.317 1531.6 Q671.317 1540.33 668.238 1544.94 Q665.182 1549.52 659.372 1549.52 Q653.562 1549.52 650.483 1544.94 Q647.428 1540.33 647.428 1531.6 Q647.428 1522.85 650.483 1518.27 Q653.562 1513.66 659.372 1513.66 Z" fill="#000000" fill-rule="evenodd" fill-opacity="1" /><path clip-path="url(#clip660)" d="M1044.28 1544.91 L1051.91 1544.91 L1051.91 1518.55 L1043.6 1520.21 L1043.6 1515.95 L1051.87 1514.29 L1056.54 1514.29 L1056.54 1544.91 L1064.18 1544.91 L1064.18 1548.85 L1044.28 1548.85 L1044.28 1544.91 Z" fill="#000000" fill-rule="evenodd" fill-opacity="1" /><path clip-path="url(#clip660)" d="M1083.63 1517.37 Q1080.02 1517.37 1078.19 1520.93 Q1076.38 1524.47 1076.38 1531.6 Q1076.38 1538.71 1078.19 1542.27 Q1080.02 1545.82 1083.63 1545.82 Q1087.26 1545.82 1089.07 1542.27 Q1090.9 1538.71 1090.9 1531.6 Q1090.9 1524.47 1089.07 1520.93 Q1087.26 1517.37 1083.63 1517.37 M1083.63 1513.66 Q1089.44 1513.66 1092.49 1518.27 Q1095.57 1522.85 1095.57 1531.6 Q1095.57 1540.33 1092.49 1544.94 Q1089.44 1549.52 1083.63 1549.52 Q1077.82 1549.52 1074.74 1544.94 Q1071.68 1540.33 1071.68 1531.6 Q1071.68 1522.85 1074.74 1518.27 Q1077.82 1513.66 1083.63 1513.66 Z" fill="#000000" fill-rule="evenodd" fill-opacity="1" /><path clip-path="url(#clip660)" d="M1113.79 1517.37 Q1110.18 1517.37 1108.35 1520.93 Q1106.54 1524.47 1106.54 1531.6 Q1106.54 1538.71 1108.35 1542.27 Q1110.18 1545.82 1113.79 1545.82 Q1117.42 1545.82 1119.23 1542.27 Q1121.06 1538.71 1121.06 1531.6 Q1121.06 1524.47 1119.23 1520.93 Q1117.42 1517.37 1113.79 1517.37 M1113.79 1513.66 Q1119.6 1513.66 1122.65 1518.27 Q1125.73 1522.85 1125.73 1531.6 Q1125.73 1540.33 1122.65 1544.94 Q1119.6 1549.52 1113.79 1549.52 Q1107.98 1549.52 1104.9 1544.94 Q1101.84 1540.33 1101.84 1531.6 Q1101.84 1522.85 1104.9 1518.27 Q1107.98 1513.66 1113.79 1513.66 Z" fill="#000000" fill-rule="evenodd" fill-opacity="1" /><path clip-path="url(#clip660)" d="M1484.39 1544.91 L1492.02 1544.91 L1492.02 1518.55 L1483.71 1520.21 L1483.71 1515.95 L1491.98 1514.29 L1496.65 1514.29 L1496.65 1544.91 L1504.29 1544.91 L1504.29 1548.85 L1484.39 1548.85 L1484.39 1544.91 Z" fill="#000000" fill-rule="evenodd" fill-opacity="1" /><path clip-path="url(#clip660)" d="M1513.78 1514.29 L1532.14 1514.29 L1532.14 1518.22 L1518.07 1518.22 L1518.07 1526.7 Q1519.08 1526.35 1520.1 1526.19 Q1521.12 1526 1522.14 1526 Q1527.93 1526 1531.31 1529.17 Q1534.69 1532.34 1534.69 1537.76 Q1534.69 1543.34 1531.21 1546.44 Q1527.74 1549.52 1521.42 1549.52 Q1519.25 1549.52 1516.98 1549.15 Q1514.73 1548.78 1512.33 1548.04 L1512.33 1543.34 Q1514.41 1544.47 1516.63 1545.03 Q1518.85 1545.58 1521.33 1545.58 Q1525.33 1545.58 1527.67 1543.48 Q1530.01 1541.37 1530.01 1537.76 Q1530.01 1534.15 1527.67 1532.04 Q1525.33 1529.94 1521.33 1529.94 Q1519.46 1529.94 1517.58 1530.35 Q1515.73 1530.77 1513.78 1531.65 L1513.78 1514.29 Z" fill="#000000" fill-rule="evenodd" fill-opacity="1" /><path clip-path="url(#clip660)" d="M1553.9 1517.37 Q1550.29 1517.37 1548.46 1520.93 Q1546.65 1524.47 1546.65 1531.6 Q1546.65 1538.71 1548.46 1542.27 Q1550.29 1545.82 1553.9 1545.82 Q1557.53 1545.82 1559.34 1542.27 Q1561.17 1538.71 1561.17 1531.6 Q1561.17 1524.47 1559.34 1520.93 Q1557.53 1517.37 1553.9 1517.37 M1553.9 1513.66 Q1559.71 1513.66 1562.77 1518.27 Q1565.84 1522.85 1565.84 1531.6 Q1565.84 1540.33 1562.77 1544.94 Q1559.71 1549.52 1553.9 1549.52 Q1548.09 1549.52 1545.01 1544.94 Q1541.96 1540.33 1541.96 1531.6 Q1541.96 1522.85 1545.01 1518.27 Q1548.09 1513.66 1553.9 1513.66 Z" fill="#000000" fill-rule="evenodd" fill-opacity="1" /><path clip-path="url(#clip660)" d="M1928.58 1544.91 L1944.9 1544.91 L1944.9 1548.85 L1922.96 1548.85 L1922.96 1544.91 Q1925.62 1542.16 1930.2 1537.53 Q1934.81 1532.88 1935.99 1531.53 Q1938.24 1529.01 1939.11 1527.27 Q1940.02 1525.51 1940.02 1523.82 Q1940.02 1521.07 1938.07 1519.33 Q1936.15 1517.6 1933.05 1517.6 Q1930.85 1517.6 1928.4 1518.36 Q1925.97 1519.13 1923.19 1520.68 L1923.19 1515.95 Q1926.01 1514.82 1928.47 1514.24 Q1930.92 1513.66 1932.96 1513.66 Q1938.33 1513.66 1941.52 1516.35 Q1944.72 1519.03 1944.72 1523.52 Q1944.72 1525.65 1943.91 1527.57 Q1943.12 1529.47 1941.01 1532.07 Q1940.43 1532.74 1937.33 1535.95 Q1934.23 1539.15 1928.58 1544.91 Z" fill="#000000" fill-rule="evenodd" fill-opacity="1" /><path clip-path="url(#clip660)" d="M1964.72 1517.37 Q1961.11 1517.37 1959.28 1520.93 Q1957.47 1524.47 1957.47 1531.6 Q1957.47 1538.71 1959.28 1542.27 Q1961.11 1545.82 1964.72 1545.82 Q1968.35 1545.82 1970.16 1542.27 Q1971.98 1538.71 1971.98 1531.6 Q1971.98 1524.47 1970.16 1520.93 Q1968.35 1517.37 1964.72 1517.37 M1964.72 1513.66 Q1970.53 1513.66 1973.58 1518.27 Q1976.66 1522.85 1976.66 1531.6 Q1976.66 1540.33 1973.58 1544.94 Q1970.53 1549.52 1964.72 1549.52 Q1958.91 1549.52 1955.83 1544.94 Q1952.77 1540.33 1952.77 1531.6 Q1952.77 1522.85 1955.83 1518.27 Q1958.91 1513.66 1964.72 1513.66 Z" fill="#000000" fill-rule="evenodd" fill-opacity="1" /><path clip-path="url(#clip660)" d="M1994.88 1517.37 Q1991.27 1517.37 1989.44 1520.93 Q1987.63 1524.47 1987.63 1531.6 Q1987.63 1538.71 1989.44 1542.27 Q1991.27 1545.82 1994.88 1545.82 Q1998.51 1545.82 2000.32 1542.27 Q2002.15 1538.71 2002.15 1531.6 Q2002.15 1524.47 2000.32 1520.93 Q1998.51 1517.37 1994.88 1517.37 M1994.88 1513.66 Q2000.69 1513.66 2003.74 1518.27 Q2006.82 1522.85 2006.82 1531.6 Q2006.82 1540.33 2003.74 1544.94 Q2000.69 1549.52 1994.88 1549.52 Q1989.07 1549.52 1985.99 1544.94 Q1982.93 1540.33 1982.93 1531.6 Q1982.93 1522.85 1985.99 1518.27 Q1989.07 1513.66 1994.88 1513.66 Z" fill="#000000" fill-rule="evenodd" fill-opacity="1" /><polyline clip-path="url(#clip662)" style="stroke:#000000; stroke-linecap:butt; stroke-linejoin:round; stroke-width:2; stroke-opacity:0.1; fill:none" points="
  186.274,1445.72 2352.76,1445.72 
  "/>
<polyline clip-path="url(#clip662)" style="stroke:#000000; stroke-linecap:butt; stroke-linejoin:round; stroke-width:2; stroke-opacity:0.1; fill:none" points="
  186.274,1104.61 2352.76,1104.61 
  "/>
<polyline clip-path="url(#clip662)" style="stroke:#000000; stroke-linecap:butt; stroke-linejoin:round; stroke-width:2; stroke-opacity:0.1; fill:none" points="
  186.274,763.502 2352.76,763.502 
  "/>
<polyline clip-path="url(#clip662)" style="stroke:#000000; stroke-linecap:butt; stroke-linejoin:round; stroke-width:2; stroke-opacity:0.1; fill:none" points="
  186.274,422.395 2352.76,422.395 
  "/>
<polyline clip-path="url(#clip662)" style="stroke:#000000; stroke-linecap:butt; stroke-linejoin:round; stroke-width:2; stroke-opacity:0.1; fill:none" points="
  186.274,81.2887 2352.76,81.2887 
  "/>
<polyline clip-path="url(#clip660)" style="stroke:#000000; stroke-linecap:butt; stroke-linejoin:round; stroke-width:4; stroke-opacity:1; fill:none" points="
  186.274,1486.45 186.274,47.2441 
  "/>
<polyline clip-path="url(#clip660)" style="stroke:#000000; stroke-linecap:butt; stroke-linejoin:round; stroke-width:4; stroke-opacity:1; fill:none" points="
  186.274,1445.72 205.172,1445.72 
  "/>
<polyline clip-path="url(#clip660)" style="stroke:#000000; stroke-linecap:butt; stroke-linejoin:round; stroke-width:4; stroke-opacity:1; fill:none" points="
  186.274,1104.61 205.172,1104.61 
  "/>
<polyline clip-path="url(#clip660)" style="stroke:#000000; stroke-linecap:butt; stroke-linejoin:round; stroke-width:4; stroke-opacity:1; fill:none" points="
  186.274,763.502 205.172,763.502 
  "/>
<polyline clip-path="url(#clip660)" style="stroke:#000000; stroke-linecap:butt; stroke-linejoin:round; stroke-width:4; stroke-opacity:1; fill:none" points="
  186.274,422.395 205.172,422.395 
  "/>
<polyline clip-path="url(#clip660)" style="stroke:#000000; stroke-linecap:butt; stroke-linejoin:round; stroke-width:4; stroke-opacity:1; fill:none" points="
  186.274,81.2887 205.172,81.2887 
  "/>
<path clip-path="url(#clip660)" d="M62.9365 1431.51 Q59.3254 1431.51 57.4967 1435.08 Q55.6912 1438.62 55.6912 1445.75 Q55.6912 1452.86 57.4967 1456.42 Q59.3254 1459.96 62.9365 1459.96 Q66.5707 1459.96 68.3763 1456.42 Q70.205 1452.86 70.205 1445.75 Q70.205 1438.62 68.3763 1435.08 Q66.5707 1431.51 62.9365 1431.51 M62.9365 1427.81 Q68.7467 1427.81 71.8022 1432.42 Q74.8809 1437 74.8809 1445.75 Q74.8809 1454.48 71.8022 1459.08 Q68.7467 1463.67 62.9365 1463.67 Q57.1264 1463.67 54.0477 1459.08 Q50.9921 1454.48 50.9921 1445.75 Q50.9921 1437 54.0477 1432.42 Q57.1264 1427.81 62.9365 1427.81 Z" fill="#000000" fill-rule="evenodd" fill-opacity="1" /><path clip-path="url(#clip660)" d="M83.0984 1457.12 L87.9827 1457.12 L87.9827 1463 L83.0984 1463 L83.0984 1457.12 Z" fill="#000000" fill-rule="evenodd" fill-opacity="1" /><path clip-path="url(#clip660)" d="M108.168 1431.51 Q104.557 1431.51 102.728 1435.08 Q100.922 1438.62 100.922 1445.75 Q100.922 1452.86 102.728 1456.42 Q104.557 1459.96 108.168 1459.96 Q111.802 1459.96 113.608 1456.42 Q115.436 1452.86 115.436 1445.75 Q115.436 1438.62 113.608 1435.08 Q111.802 1431.51 108.168 1431.51 M108.168 1427.81 Q113.978 1427.81 117.033 1432.42 Q120.112 1437 120.112 1445.75 Q120.112 1454.48 117.033 1459.08 Q113.978 1463.67 108.168 1463.67 Q102.358 1463.67 99.2789 1459.08 Q96.2234 1454.48 96.2234 1445.75 Q96.2234 1437 99.2789 1432.42 Q102.358 1427.81 108.168 1427.81 Z" fill="#000000" fill-rule="evenodd" fill-opacity="1" /><path clip-path="url(#clip660)" d="M138.33 1431.51 Q134.719 1431.51 132.89 1435.08 Q131.084 1438.62 131.084 1445.75 Q131.084 1452.86 132.89 1456.42 Q134.719 1459.96 138.33 1459.96 Q141.964 1459.96 143.769 1456.42 Q145.598 1452.86 145.598 1445.75 Q145.598 1438.62 143.769 1435.08 Q141.964 1431.51 138.33 1431.51 M138.33 1427.81 Q144.14 1427.81 147.195 1432.42 Q150.274 1437 150.274 1445.75 Q150.274 1454.48 147.195 1459.08 Q144.14 1463.67 138.33 1463.67 Q132.519 1463.67 129.441 1459.08 Q126.385 1454.48 126.385 1445.75 Q126.385 1437 129.441 1432.42 Q132.519 1427.81 138.33 1427.81 Z" fill="#000000" fill-rule="evenodd" fill-opacity="1" /><path clip-path="url(#clip660)" d="M63.9319 1090.41 Q60.3208 1090.41 58.4921 1093.97 Q56.6865 1097.51 56.6865 1104.64 Q56.6865 1111.75 58.4921 1115.31 Q60.3208 1118.86 63.9319 1118.86 Q67.5661 1118.86 69.3717 1115.31 Q71.2004 1111.75 71.2004 1104.64 Q71.2004 1097.51 69.3717 1093.97 Q67.5661 1090.41 63.9319 1090.41 M63.9319 1086.7 Q69.742 1086.7 72.7976 1091.31 Q75.8763 1095.89 75.8763 1104.64 Q75.8763 1113.37 72.7976 1117.98 Q69.742 1122.56 63.9319 1122.56 Q58.1217 1122.56 55.043 1117.98 Q51.9875 1113.37 51.9875 1104.64 Q51.9875 1095.89 55.043 1091.31 Q58.1217 1086.7 63.9319 1086.7 Z" fill="#000000" fill-rule="evenodd" fill-opacity="1" /><path clip-path="url(#clip660)" d="M84.0938 1116.01 L88.978 1116.01 L88.978 1121.89 L84.0938 1121.89 L84.0938 1116.01 Z" fill="#000000" fill-rule="evenodd" fill-opacity="1" /><path clip-path="url(#clip660)" d="M103.191 1117.95 L119.51 1117.95 L119.51 1121.89 L97.566 1121.89 L97.566 1117.95 Q100.228 1115.2 104.811 1110.57 Q109.418 1105.92 110.598 1104.57 Q112.844 1102.05 113.723 1100.31 Q114.626 1098.56 114.626 1096.87 Q114.626 1094.11 112.682 1092.38 Q110.76 1090.64 107.658 1090.64 Q105.459 1090.64 103.006 1091.4 Q100.575 1092.17 97.7974 1093.72 L97.7974 1089 Q100.621 1087.86 103.075 1087.28 Q105.529 1086.7 107.566 1086.7 Q112.936 1086.7 116.131 1089.39 Q119.325 1092.07 119.325 1096.57 Q119.325 1098.69 118.515 1100.62 Q117.728 1102.51 115.621 1105.11 Q115.043 1105.78 111.941 1109 Q108.839 1112.19 103.191 1117.95 Z" fill="#000000" fill-rule="evenodd" fill-opacity="1" /><path clip-path="url(#clip660)" d="M129.371 1087.33 L147.728 1087.33 L147.728 1091.26 L133.654 1091.26 L133.654 1099.74 Q134.672 1099.39 135.691 1099.23 Q136.709 1099.04 137.728 1099.04 Q143.515 1099.04 146.894 1102.21 Q150.274 1105.38 150.274 1110.8 Q150.274 1116.38 146.802 1119.48 Q143.33 1122.56 137.01 1122.56 Q134.834 1122.56 132.566 1122.19 Q130.32 1121.82 127.913 1121.08 L127.913 1116.38 Q129.996 1117.51 132.219 1118.07 Q134.441 1118.63 136.918 1118.63 Q140.922 1118.63 143.26 1116.52 Q145.598 1114.41 145.598 1110.8 Q145.598 1107.19 143.26 1105.08 Q140.922 1102.98 136.918 1102.98 Q135.043 1102.98 133.168 1103.39 Q131.316 1103.81 129.371 1104.69 L129.371 1087.33 Z" fill="#000000" fill-rule="evenodd" fill-opacity="1" /><path clip-path="url(#clip660)" d="M62.9365 749.301 Q59.3254 749.301 57.4967 752.866 Q55.6912 756.407 55.6912 763.537 Q55.6912 770.643 57.4967 774.208 Q59.3254 777.75 62.9365 777.75 Q66.5707 777.75 68.3763 774.208 Q70.205 770.643 70.205 763.537 Q70.205 756.407 68.3763 752.866 Q66.5707 749.301 62.9365 749.301 M62.9365 745.597 Q68.7467 745.597 71.8022 750.204 Q74.8809 754.787 74.8809 763.537 Q74.8809 772.264 71.8022 776.87 Q68.7467 781.454 62.9365 781.454 Q57.1264 781.454 54.0477 776.87 Q50.9921 772.264 50.9921 763.537 Q50.9921 754.787 54.0477 750.204 Q57.1264 745.597 62.9365 745.597 Z" fill="#000000" fill-rule="evenodd" fill-opacity="1" /><path clip-path="url(#clip660)" d="M83.0984 774.903 L87.9827 774.903 L87.9827 780.782 L83.0984 780.782 L83.0984 774.903 Z" fill="#000000" fill-rule="evenodd" fill-opacity="1" /><path clip-path="url(#clip660)" d="M98.2141 746.222 L116.57 746.222 L116.57 750.157 L102.496 750.157 L102.496 758.63 Q103.515 758.282 104.534 758.12 Q105.552 757.935 106.571 757.935 Q112.358 757.935 115.737 761.106 Q119.117 764.278 119.117 769.694 Q119.117 775.273 115.645 778.375 Q112.172 781.454 105.853 781.454 Q103.677 781.454 101.409 781.083 Q99.1632 780.713 96.7558 779.972 L96.7558 775.273 Q98.8391 776.407 101.061 776.963 Q103.284 777.518 105.76 777.518 Q109.765 777.518 112.103 775.412 Q114.441 773.305 114.441 769.694 Q114.441 766.083 112.103 763.977 Q109.765 761.87 105.76 761.87 Q103.885 761.87 102.01 762.287 Q100.159 762.704 98.2141 763.583 L98.2141 746.222 Z" fill="#000000" fill-rule="evenodd" fill-opacity="1" /><path clip-path="url(#clip660)" d="M138.33 749.301 Q134.719 749.301 132.89 752.866 Q131.084 756.407 131.084 763.537 Q131.084 770.643 132.89 774.208 Q134.719 777.75 138.33 777.75 Q141.964 777.75 143.769 774.208 Q145.598 770.643 145.598 763.537 Q145.598 756.407 143.769 752.866 Q141.964 749.301 138.33 749.301 M138.33 745.597 Q144.14 745.597 147.195 750.204 Q150.274 754.787 150.274 763.537 Q150.274 772.264 147.195 776.87 Q144.14 781.454 138.33 781.454 Q132.519 781.454 129.441 776.87 Q126.385 772.264 126.385 763.537 Q126.385 754.787 129.441 750.204 Q132.519 745.597 138.33 745.597 Z" fill="#000000" fill-rule="evenodd" fill-opacity="1" /><path clip-path="url(#clip660)" d="M63.9319 408.194 Q60.3208 408.194 58.4921 411.759 Q56.6865 415.301 56.6865 422.43 Q56.6865 429.537 58.4921 433.101 Q60.3208 436.643 63.9319 436.643 Q67.5661 436.643 69.3717 433.101 Q71.2004 429.537 71.2004 422.43 Q71.2004 415.301 69.3717 411.759 Q67.5661 408.194 63.9319 408.194 M63.9319 404.49 Q69.742 404.49 72.7976 409.097 Q75.8763 413.68 75.8763 422.43 Q75.8763 431.157 72.7976 435.763 Q69.742 440.347 63.9319 440.347 Q58.1217 440.347 55.043 435.763 Q51.9875 431.157 51.9875 422.43 Q51.9875 413.68 55.043 409.097 Q58.1217 404.49 63.9319 404.49 Z" fill="#000000" fill-rule="evenodd" fill-opacity="1" /><path clip-path="url(#clip660)" d="M84.0938 433.796 L88.978 433.796 L88.978 439.675 L84.0938 439.675 L84.0938 433.796 Z" fill="#000000" fill-rule="evenodd" fill-opacity="1" /><path clip-path="url(#clip660)" d="M97.9826 405.115 L120.205 405.115 L120.205 407.106 L107.658 439.675 L102.774 439.675 L114.58 409.051 L97.9826 409.051 L97.9826 405.115 Z" fill="#000000" fill-rule="evenodd" fill-opacity="1" /><path clip-path="url(#clip660)" d="M129.371 405.115 L147.728 405.115 L147.728 409.051 L133.654 409.051 L133.654 417.523 Q134.672 417.176 135.691 417.014 Q136.709 416.828 137.728 416.828 Q143.515 416.828 146.894 420 Q150.274 423.171 150.274 428.588 Q150.274 434.166 146.802 437.268 Q143.33 440.347 137.01 440.347 Q134.834 440.347 132.566 439.976 Q130.32 439.606 127.913 438.865 L127.913 434.166 Q129.996 435.301 132.219 435.856 Q134.441 436.412 136.918 436.412 Q140.922 436.412 143.26 434.305 Q145.598 432.199 145.598 428.588 Q145.598 424.976 143.26 422.87 Q140.922 420.764 136.918 420.764 Q135.043 420.764 133.168 421.18 Q131.316 421.597 129.371 422.476 L129.371 405.115 Z" fill="#000000" fill-rule="evenodd" fill-opacity="1" /><path clip-path="url(#clip660)" d="M53.7467 94.6336 L61.3856 94.6336 L61.3856 68.268 L53.0754 69.9346 L53.0754 65.6754 L61.3393 64.0087 L66.0152 64.0087 L66.0152 94.6336 L73.654 94.6336 L73.654 98.5687 L53.7467 98.5687 L53.7467 94.6336 Z" fill="#000000" fill-rule="evenodd" fill-opacity="1" /><path clip-path="url(#clip660)" d="M83.0984 92.6891 L87.9827 92.6891 L87.9827 98.5687 L83.0984 98.5687 L83.0984 92.6891 Z" fill="#000000" fill-rule="evenodd" fill-opacity="1" /><path clip-path="url(#clip660)" d="M108.168 67.0874 Q104.557 67.0874 102.728 70.6522 Q100.922 74.1939 100.922 81.3235 Q100.922 88.4299 102.728 91.9947 Q104.557 95.5364 108.168 95.5364 Q111.802 95.5364 113.608 91.9947 Q115.436 88.4299 115.436 81.3235 Q115.436 74.1939 113.608 70.6522 Q111.802 67.0874 108.168 67.0874 M108.168 63.3837 Q113.978 63.3837 117.033 67.9902 Q120.112 72.5735 120.112 81.3235 Q120.112 90.0503 117.033 94.6567 Q113.978 99.24 108.168 99.24 Q102.358 99.24 99.2789 94.6567 Q96.2234 90.0503 96.2234 81.3235 Q96.2234 72.5735 99.2789 67.9902 Q102.358 63.3837 108.168 63.3837 Z" fill="#000000" fill-rule="evenodd" fill-opacity="1" /><path clip-path="url(#clip660)" d="M138.33 67.0874 Q134.719 67.0874 132.89 70.6522 Q131.084 74.1939 131.084 81.3235 Q131.084 88.4299 132.89 91.9947 Q134.719 95.5364 138.33 95.5364 Q141.964 95.5364 143.769 91.9947 Q145.598 88.4299 145.598 81.3235 Q145.598 74.1939 143.769 70.6522 Q141.964 67.0874 138.33 67.0874 M138.33 63.3837 Q144.14 63.3837 147.195 67.9902 Q150.274 72.5735 150.274 81.3235 Q150.274 90.0503 147.195 94.6567 Q144.14 99.24 138.33 99.24 Q132.519 99.24 129.441 94.6567 Q126.385 90.0503 126.385 81.3235 Q126.385 72.5735 129.441 67.9902 Q132.519 63.3837 138.33 63.3837 Z" fill="#000000" fill-rule="evenodd" fill-opacity="1" /><circle clip-path="url(#clip662)" cx="247.59" cy="1445.72" r="14.4" fill="#009af9" fill-rule="evenodd" fill-opacity="1" stroke="#000000" stroke-opacity="1" stroke-width="3.2"/>
<circle clip-path="url(#clip662)" cx="310.556" cy="1445.72" r="14.4" fill="#009af9" fill-rule="evenodd" fill-opacity="1" stroke="#000000" stroke-opacity="1" stroke-width="3.2"/>
<circle clip-path="url(#clip662)" cx="310.556" cy="1445.72" r="14.4" fill="#009af9" fill-rule="evenodd" fill-opacity="1" stroke="#000000" stroke-opacity="1" stroke-width="3.2"/>
<circle clip-path="url(#clip662)" cx="373.523" cy="1445.72" r="14.4" fill="#009af9" fill-rule="evenodd" fill-opacity="1" stroke="#000000" stroke-opacity="1" stroke-width="3.2"/>
<circle clip-path="url(#clip662)" cx="409.817" cy="1445.72" r="14.4" fill="#009af9" fill-rule="evenodd" fill-opacity="1" stroke="#000000" stroke-opacity="1" stroke-width="3.2"/>
<circle clip-path="url(#clip662)" cx="409.817" cy="1445.72" r="14.4" fill="#009af9" fill-rule="evenodd" fill-opacity="1" stroke="#000000" stroke-opacity="1" stroke-width="3.2"/>
<circle clip-path="url(#clip662)" cx="472.783" cy="1445.72" r="14.4" fill="#009af9" fill-rule="evenodd" fill-opacity="1" stroke="#000000" stroke-opacity="1" stroke-width="3.2"/>
<circle clip-path="url(#clip662)" cx="472.783" cy="1445.72" r="14.4" fill="#009af9" fill-rule="evenodd" fill-opacity="1" stroke="#000000" stroke-opacity="1" stroke-width="3.2"/>
<circle clip-path="url(#clip662)" cx="537.33" cy="1445.72" r="14.4" fill="#009af9" fill-rule="evenodd" fill-opacity="1" stroke="#000000" stroke-opacity="1" stroke-width="3.2"/>
<circle clip-path="url(#clip662)" cx="537.33" cy="1445.72" r="14.4" fill="#009af9" fill-rule="evenodd" fill-opacity="1" stroke="#000000" stroke-opacity="1" stroke-width="3.2"/>
<circle clip-path="url(#clip662)" cx="572.044" cy="1445.72" r="14.4" fill="#009af9" fill-rule="evenodd" fill-opacity="1" stroke="#000000" stroke-opacity="1" stroke-width="3.2"/>
<circle clip-path="url(#clip662)" cx="600.296" cy="1445.72" r="14.4" fill="#009af9" fill-rule="evenodd" fill-opacity="1" stroke="#000000" stroke-opacity="1" stroke-width="3.2"/>
<circle clip-path="url(#clip662)" cx="600.296" cy="1445.72" r="14.4" fill="#009af9" fill-rule="evenodd" fill-opacity="1" stroke="#000000" stroke-opacity="1" stroke-width="3.2"/>
<circle clip-path="url(#clip662)" cx="682.765" cy="1445.72" r="14.4" fill="#009af9" fill-rule="evenodd" fill-opacity="1" stroke="#000000" stroke-opacity="1" stroke-width="3.2"/>
<circle clip-path="url(#clip662)" cx="682.765" cy="1445.72" r="14.4" fill="#009af9" fill-rule="evenodd" fill-opacity="1" stroke="#000000" stroke-opacity="1" stroke-width="3.2"/>
<circle clip-path="url(#clip662)" cx="699.557" cy="1445.72" r="14.4" fill="#009af9" fill-rule="evenodd" fill-opacity="1" stroke="#000000" stroke-opacity="1" stroke-width="3.2"/>
<circle clip-path="url(#clip662)" cx="699.557" cy="1445.72" r="14.4" fill="#009af9" fill-rule="evenodd" fill-opacity="1" stroke="#000000" stroke-opacity="1" stroke-width="3.2"/>
<circle clip-path="url(#clip662)" cx="745.731" cy="1445.72" r="14.4" fill="#009af9" fill-rule="evenodd" fill-opacity="1" stroke="#000000" stroke-opacity="1" stroke-width="3.2"/>
<circle clip-path="url(#clip662)" cx="745.731" cy="1445.72" r="14.4" fill="#009af9" fill-rule="evenodd" fill-opacity="1" stroke="#000000" stroke-opacity="1" stroke-width="3.2"/>
<circle clip-path="url(#clip662)" cx="827.07" cy="1445.72" r="14.4" fill="#009af9" fill-rule="evenodd" fill-opacity="1" stroke="#000000" stroke-opacity="1" stroke-width="3.2"/>
<circle clip-path="url(#clip662)" cx="834.34" cy="1445.72" r="14.4" fill="#009af9" fill-rule="evenodd" fill-opacity="1" stroke="#000000" stroke-opacity="1" stroke-width="3.2"/>
<circle clip-path="url(#clip662)" cx="834.34" cy="1445.72" r="14.4" fill="#009af9" fill-rule="evenodd" fill-opacity="1" stroke="#000000" stroke-opacity="1" stroke-width="3.2"/>
<circle clip-path="url(#clip662)" cx="844.992" cy="1445.72" r="14.4" fill="#009af9" fill-rule="evenodd" fill-opacity="1" stroke="#000000" stroke-opacity="1" stroke-width="3.2"/>
<circle clip-path="url(#clip662)" cx="844.992" cy="1445.72" r="14.4" fill="#009af9" fill-rule="evenodd" fill-opacity="1" stroke="#000000" stroke-opacity="1" stroke-width="3.2"/>
<circle clip-path="url(#clip662)" cx="897.306" cy="1445.72" r="14.4" fill="#009af9" fill-rule="evenodd" fill-opacity="1" stroke="#000000" stroke-opacity="1" stroke-width="3.2"/>
<circle clip-path="url(#clip662)" cx="897.306" cy="1445.72" r="14.4" fill="#009af9" fill-rule="evenodd" fill-opacity="1" stroke="#000000" stroke-opacity="1" stroke-width="3.2"/>
<circle clip-path="url(#clip662)" cx="972.505" cy="1445.72" r="14.4" fill="#009af9" fill-rule="evenodd" fill-opacity="1" stroke="#000000" stroke-opacity="1" stroke-width="3.2"/>
<circle clip-path="url(#clip662)" cx="972.505" cy="1445.72" r="14.4" fill="#009af9" fill-rule="evenodd" fill-opacity="1" stroke="#000000" stroke-opacity="1" stroke-width="3.2"/>
<circle clip-path="url(#clip662)" cx="979.775" cy="1445.72" r="14.4" fill="#009af9" fill-rule="evenodd" fill-opacity="1" stroke="#000000" stroke-opacity="1" stroke-width="3.2"/>
<circle clip-path="url(#clip662)" cx="979.775" cy="1445.72" r="14.4" fill="#009af9" fill-rule="evenodd" fill-opacity="1" stroke="#000000" stroke-opacity="1" stroke-width="3.2"/>
<circle clip-path="url(#clip662)" cx="996.567" cy="1445.72" r="14.4" fill="#009af9" fill-rule="evenodd" fill-opacity="1" stroke="#000000" stroke-opacity="1" stroke-width="3.2"/>
<circle clip-path="url(#clip662)" cx="996.567" cy="1445.72" r="14.4" fill="#009af9" fill-rule="evenodd" fill-opacity="1" stroke="#000000" stroke-opacity="1" stroke-width="3.2"/>
<circle clip-path="url(#clip662)" cx="1042.74" cy="1445.72" r="14.4" fill="#009af9" fill-rule="evenodd" fill-opacity="1" stroke="#000000" stroke-opacity="1" stroke-width="3.2"/>
<circle clip-path="url(#clip662)" cx="1042.74" cy="1445.72" r="14.4" fill="#009af9" fill-rule="evenodd" fill-opacity="1" stroke="#000000" stroke-opacity="1" stroke-width="3.2"/>
<circle clip-path="url(#clip662)" cx="1107.29" cy="1445.72" r="14.4" fill="#009af9" fill-rule="evenodd" fill-opacity="1" stroke="#000000" stroke-opacity="1" stroke-width="3.2"/>
<circle clip-path="url(#clip662)" cx="1107.29" cy="1445.72" r="14.4" fill="#009af9" fill-rule="evenodd" fill-opacity="1" stroke="#000000" stroke-opacity="1" stroke-width="3.2"/>
<circle clip-path="url(#clip662)" cx="1117.94" cy="1445.72" r="14.4" fill="#009af9" fill-rule="evenodd" fill-opacity="1" stroke="#000000" stroke-opacity="1" stroke-width="3.2"/>
<circle clip-path="url(#clip662)" cx="1124.08" cy="1445.72" r="14.4" fill="#009af9" fill-rule="evenodd" fill-opacity="1" stroke="#000000" stroke-opacity="1" stroke-width="3.2"/>
<circle clip-path="url(#clip662)" cx="1124.08" cy="1445.72" r="14.4" fill="#009af9" fill-rule="evenodd" fill-opacity="1" stroke="#000000" stroke-opacity="1" stroke-width="3.2"/>
<circle clip-path="url(#clip662)" cx="1142" cy="1445.72" r="14.4" fill="#009af9" fill-rule="evenodd" fill-opacity="1" stroke="#000000" stroke-opacity="1" stroke-width="3.2"/>
<circle clip-path="url(#clip662)" cx="1142" cy="1445.72" r="14.4" fill="#009af9" fill-rule="evenodd" fill-opacity="1" stroke="#000000" stroke-opacity="1" stroke-width="3.2"/>
<circle clip-path="url(#clip662)" cx="1170.25" cy="1445.72" r="14.4" fill="#009af9" fill-rule="evenodd" fill-opacity="1" stroke="#000000" stroke-opacity="1" stroke-width="3.2"/>
<circle clip-path="url(#clip662)" cx="1170.25" cy="1445.72" r="14.4" fill="#009af9" fill-rule="evenodd" fill-opacity="1" stroke="#000000" stroke-opacity="1" stroke-width="3.2"/>
<circle clip-path="url(#clip662)" cx="1206.55" cy="1445.72" r="14.4" fill="#009af9" fill-rule="evenodd" fill-opacity="1" stroke="#000000" stroke-opacity="1" stroke-width="3.2"/>
<circle clip-path="url(#clip662)" cx="1206.55" cy="1445.72" r="14.4" fill="#009af9" fill-rule="evenodd" fill-opacity="1" stroke="#000000" stroke-opacity="1" stroke-width="3.2"/>
<circle clip-path="url(#clip662)" cx="1269.51" cy="1445.72" r="14.4" fill="#009af9" fill-rule="evenodd" fill-opacity="1" stroke="#000000" stroke-opacity="1" stroke-width="3.2"/>
<circle clip-path="url(#clip662)" cx="1269.51" cy="1445.72" r="14.4" fill="#009af9" fill-rule="evenodd" fill-opacity="1" stroke="#000000" stroke-opacity="1" stroke-width="3.2"/>
<circle clip-path="url(#clip662)" cx="1269.51" cy="1445.72" r="14.4" fill="#009af9" fill-rule="evenodd" fill-opacity="1" stroke="#000000" stroke-opacity="1" stroke-width="3.2"/>
<circle clip-path="url(#clip662)" cx="1269.51" cy="1445.72" r="14.4" fill="#009af9" fill-rule="evenodd" fill-opacity="1" stroke="#000000" stroke-opacity="1" stroke-width="3.2"/>
<circle clip-path="url(#clip662)" cx="1269.51" cy="1445.72" r="14.4" fill="#009af9" fill-rule="evenodd" fill-opacity="1" stroke="#000000" stroke-opacity="1" stroke-width="3.2"/>
<circle clip-path="url(#clip662)" cx="1269.51" cy="1445.72" r="14.4" fill="#009af9" fill-rule="evenodd" fill-opacity="1" stroke="#000000" stroke-opacity="1" stroke-width="3.2"/>
<circle clip-path="url(#clip662)" cx="1269.51" cy="1445.72" r="14.4" fill="#009af9" fill-rule="evenodd" fill-opacity="1" stroke="#000000" stroke-opacity="1" stroke-width="3.2"/>
<circle clip-path="url(#clip662)" cx="1269.51" cy="1445.72" r="14.4" fill="#009af9" fill-rule="evenodd" fill-opacity="1" stroke="#000000" stroke-opacity="1" stroke-width="3.2"/>
<circle clip-path="url(#clip662)" cx="1269.51" cy="1445.72" r="14.4" fill="#009af9" fill-rule="evenodd" fill-opacity="1" stroke="#000000" stroke-opacity="1" stroke-width="3.2"/>
<circle clip-path="url(#clip662)" cx="1269.51" cy="1445.72" r="14.4" fill="#009af9" fill-rule="evenodd" fill-opacity="1" stroke="#000000" stroke-opacity="1" stroke-width="3.2"/>
<circle clip-path="url(#clip662)" cx="1332.48" cy="1445.72" r="14.4" fill="#009af9" fill-rule="evenodd" fill-opacity="1" stroke="#000000" stroke-opacity="1" stroke-width="3.2"/>
<circle clip-path="url(#clip662)" cx="1332.48" cy="1445.72" r="14.4" fill="#009af9" fill-rule="evenodd" fill-opacity="1" stroke="#000000" stroke-opacity="1" stroke-width="3.2"/>
<circle clip-path="url(#clip662)" cx="1368.78" cy="1445.72" r="14.4" fill="#009af9" fill-rule="evenodd" fill-opacity="1" stroke="#000000" stroke-opacity="1" stroke-width="3.2"/>
<circle clip-path="url(#clip662)" cx="1368.78" cy="1445.72" r="14.4" fill="#009af9" fill-rule="evenodd" fill-opacity="1" stroke="#000000" stroke-opacity="1" stroke-width="3.2"/>
<circle clip-path="url(#clip662)" cx="1397.03" cy="1445.72" r="14.4" fill="#009af9" fill-rule="evenodd" fill-opacity="1" stroke="#000000" stroke-opacity="1" stroke-width="3.2"/>
<circle clip-path="url(#clip662)" cx="1397.03" cy="1445.72" r="14.4" fill="#009af9" fill-rule="evenodd" fill-opacity="1" stroke="#000000" stroke-opacity="1" stroke-width="3.2"/>
<circle clip-path="url(#clip662)" cx="1414.95" cy="1445.72" r="14.4" fill="#009af9" fill-rule="evenodd" fill-opacity="1" stroke="#000000" stroke-opacity="1" stroke-width="3.2"/>
<circle clip-path="url(#clip662)" cx="1414.95" cy="1445.72" r="14.4" fill="#009af9" fill-rule="evenodd" fill-opacity="1" stroke="#000000" stroke-opacity="1" stroke-width="3.2"/>
<circle clip-path="url(#clip662)" cx="1421.09" cy="1445.72" r="14.4" fill="#009af9" fill-rule="evenodd" fill-opacity="1" stroke="#000000" stroke-opacity="1" stroke-width="3.2"/>
<circle clip-path="url(#clip662)" cx="1431.74" cy="1445.72" r="14.4" fill="#009af9" fill-rule="evenodd" fill-opacity="1" stroke="#000000" stroke-opacity="1" stroke-width="3.2"/>
<circle clip-path="url(#clip662)" cx="1431.74" cy="1445.72" r="14.4" fill="#009af9" fill-rule="evenodd" fill-opacity="1" stroke="#000000" stroke-opacity="1" stroke-width="3.2"/>
<circle clip-path="url(#clip662)" cx="1496.29" cy="1445.72" r="14.4" fill="#009af9" fill-rule="evenodd" fill-opacity="1" stroke="#000000" stroke-opacity="1" stroke-width="3.2"/>
<circle clip-path="url(#clip662)" cx="1496.29" cy="1445.72" r="14.4" fill="#009af9" fill-rule="evenodd" fill-opacity="1" stroke="#000000" stroke-opacity="1" stroke-width="3.2"/>
<circle clip-path="url(#clip662)" cx="1542.46" cy="1445.72" r="14.4" fill="#009af9" fill-rule="evenodd" fill-opacity="1" stroke="#000000" stroke-opacity="1" stroke-width="3.2"/>
<circle clip-path="url(#clip662)" cx="1542.46" cy="1445.72" r="14.4" fill="#009af9" fill-rule="evenodd" fill-opacity="1" stroke="#000000" stroke-opacity="1" stroke-width="3.2"/>
<circle clip-path="url(#clip662)" cx="1559.26" cy="1445.72" r="14.4" fill="#009af9" fill-rule="evenodd" fill-opacity="1" stroke="#000000" stroke-opacity="1" stroke-width="3.2"/>
<circle clip-path="url(#clip662)" cx="1559.26" cy="1445.72" r="14.4" fill="#009af9" fill-rule="evenodd" fill-opacity="1" stroke="#000000" stroke-opacity="1" stroke-width="3.2"/>
<circle clip-path="url(#clip662)" cx="1566.53" cy="1445.72" r="14.4" fill="#009af9" fill-rule="evenodd" fill-opacity="1" stroke="#000000" stroke-opacity="1" stroke-width="3.2"/>
<circle clip-path="url(#clip662)" cx="1566.53" cy="1445.72" r="14.4" fill="#009af9" fill-rule="evenodd" fill-opacity="1" stroke="#000000" stroke-opacity="1" stroke-width="3.2"/>
<circle clip-path="url(#clip662)" cx="1641.72" cy="1445.72" r="14.4" fill="#009af9" fill-rule="evenodd" fill-opacity="1" stroke="#000000" stroke-opacity="1" stroke-width="3.2"/>
<circle clip-path="url(#clip662)" cx="1641.72" cy="1445.72" r="14.4" fill="#009af9" fill-rule="evenodd" fill-opacity="1" stroke="#000000" stroke-opacity="1" stroke-width="3.2"/>
<circle clip-path="url(#clip662)" cx="1694.04" cy="1445.72" r="14.4" fill="#009af9" fill-rule="evenodd" fill-opacity="1" stroke="#000000" stroke-opacity="1" stroke-width="3.2"/>
<circle clip-path="url(#clip662)" cx="1694.04" cy="1445.72" r="14.4" fill="#009af9" fill-rule="evenodd" fill-opacity="1" stroke="#000000" stroke-opacity="1" stroke-width="3.2"/>
<circle clip-path="url(#clip662)" cx="1704.69" cy="1445.72" r="14.4" fill="#009af9" fill-rule="evenodd" fill-opacity="1" stroke="#000000" stroke-opacity="1" stroke-width="3.2"/>
<circle clip-path="url(#clip662)" cx="1704.69" cy="1445.72" r="14.4" fill="#009af9" fill-rule="evenodd" fill-opacity="1" stroke="#000000" stroke-opacity="1" stroke-width="3.2"/>
<circle clip-path="url(#clip662)" cx="1711.96" cy="1445.72" r="14.4" fill="#009af9" fill-rule="evenodd" fill-opacity="1" stroke="#000000" stroke-opacity="1" stroke-width="3.2"/>
<circle clip-path="url(#clip662)" cx="1793.3" cy="1445.72" r="14.4" fill="#009af9" fill-rule="evenodd" fill-opacity="1" stroke="#000000" stroke-opacity="1" stroke-width="3.2"/>
<circle clip-path="url(#clip662)" cx="1793.3" cy="1445.72" r="14.4" fill="#009af9" fill-rule="evenodd" fill-opacity="1" stroke="#000000" stroke-opacity="1" stroke-width="3.2"/>
<circle clip-path="url(#clip662)" cx="1839.47" cy="1445.72" r="14.4" fill="#009af9" fill-rule="evenodd" fill-opacity="1" stroke="#000000" stroke-opacity="1" stroke-width="3.2"/>
<circle clip-path="url(#clip662)" cx="1839.47" cy="1445.72" r="14.4" fill="#009af9" fill-rule="evenodd" fill-opacity="1" stroke="#000000" stroke-opacity="1" stroke-width="3.2"/>
<circle clip-path="url(#clip662)" cx="1856.27" cy="1445.72" r="14.4" fill="#009af9" fill-rule="evenodd" fill-opacity="1" stroke="#000000" stroke-opacity="1" stroke-width="3.2"/>
<circle clip-path="url(#clip662)" cx="1856.27" cy="1445.72" r="14.4" fill="#009af9" fill-rule="evenodd" fill-opacity="1" stroke="#000000" stroke-opacity="1" stroke-width="3.2"/>
<circle clip-path="url(#clip662)" cx="1938.73" cy="1445.72" r="14.4" fill="#009af9" fill-rule="evenodd" fill-opacity="1" stroke="#000000" stroke-opacity="1" stroke-width="3.2"/>
<circle clip-path="url(#clip662)" cx="1938.73" cy="1445.72" r="14.4" fill="#009af9" fill-rule="evenodd" fill-opacity="1" stroke="#000000" stroke-opacity="1" stroke-width="3.2"/>
<circle clip-path="url(#clip662)" cx="1966.99" cy="1445.72" r="14.4" fill="#009af9" fill-rule="evenodd" fill-opacity="1" stroke="#000000" stroke-opacity="1" stroke-width="3.2"/>
<circle clip-path="url(#clip662)" cx="2001.7" cy="1445.72" r="14.4" fill="#009af9" fill-rule="evenodd" fill-opacity="1" stroke="#000000" stroke-opacity="1" stroke-width="3.2"/>
<circle clip-path="url(#clip662)" cx="2001.7" cy="1445.72" r="14.4" fill="#009af9" fill-rule="evenodd" fill-opacity="1" stroke="#000000" stroke-opacity="1" stroke-width="3.2"/>
<circle clip-path="url(#clip662)" cx="2066.25" cy="1445.72" r="14.4" fill="#009af9" fill-rule="evenodd" fill-opacity="1" stroke="#000000" stroke-opacity="1" stroke-width="3.2"/>
<circle clip-path="url(#clip662)" cx="2066.25" cy="1445.72" r="14.4" fill="#009af9" fill-rule="evenodd" fill-opacity="1" stroke="#000000" stroke-opacity="1" stroke-width="3.2"/>
<circle clip-path="url(#clip662)" cx="2129.21" cy="1445.72" r="14.4" fill="#009af9" fill-rule="evenodd" fill-opacity="1" stroke="#000000" stroke-opacity="1" stroke-width="3.2"/>
<circle clip-path="url(#clip662)" cx="2129.21" cy="1445.72" r="14.4" fill="#009af9" fill-rule="evenodd" fill-opacity="1" stroke="#000000" stroke-opacity="1" stroke-width="3.2"/>
<circle clip-path="url(#clip662)" cx="2165.51" cy="1445.72" r="14.4" fill="#009af9" fill-rule="evenodd" fill-opacity="1" stroke="#000000" stroke-opacity="1" stroke-width="3.2"/>
<circle clip-path="url(#clip662)" cx="2228.47" cy="1445.72" r="14.4" fill="#009af9" fill-rule="evenodd" fill-opacity="1" stroke="#000000" stroke-opacity="1" stroke-width="3.2"/>
<circle clip-path="url(#clip662)" cx="2228.47" cy="1445.72" r="14.4" fill="#009af9" fill-rule="evenodd" fill-opacity="1" stroke="#000000" stroke-opacity="1" stroke-width="3.2"/>
<circle clip-path="url(#clip662)" cx="2291.44" cy="1445.72" r="14.4" fill="#009af9" fill-rule="evenodd" fill-opacity="1" stroke="#000000" stroke-opacity="1" stroke-width="3.2"/>
<polyline clip-path="url(#clip662)" style="stroke:#e26f46; stroke-linecap:butt; stroke-linejoin:round; stroke-width:12; stroke-opacity:1; fill:none" points="
  247.59,87.9763 260.896,90.0389 383.935,109.111 457.876,120.573 520.392,130.263 588.302,140.79 650.909,150.495 718.031,160.899 795.798,172.954 864.908,183.666 
  925.511,193.06 991.585,203.303 1058.05,213.605 1131.54,224.997 1201.46,235.835 1274.16,247.105 1335.36,256.591 1410.08,268.173 1478.52,278.783 1541.74,288.582 
  1605.77,298.508 1677.54,309.632 1742.57,319.713 1817.03,331.254 1885.97,341.94 1953.93,352.476 2019.92,362.705 2087.57,373.191 2161.69,384.679 2269.35,401.369 
  2291.44,404.793 
  "/>
<path clip-path="url(#clip660)" d="
M1987.39 250.738 L2280.54 250.738 L2280.54 95.2176 L1987.39 95.2176  Z
  " fill="#ffffff" fill-rule="evenodd" fill-opacity="1"/>
<polyline clip-path="url(#clip660)" style="stroke:#000000; stroke-linecap:butt; stroke-linejoin:round; stroke-width:4; stroke-opacity:1; fill:none" points="
  1987.39,250.738 2280.54,250.738 2280.54,95.2176 1987.39,95.2176 1987.39,250.738 
  "/>
<circle clip-path="url(#clip660)" cx="2083.68" cy="147.058" r="23.04" fill="#009af9" fill-rule="evenodd" fill-opacity="1" stroke="#000000" stroke-opacity="1" stroke-width="5.12"/>
<path clip-path="url(#clip660)" d="M2193.81 166.745 Q2192 171.375 2190.29 172.787 Q2188.58 174.199 2185.71 174.199 L2182.3 174.199 L2182.3 170.634 L2184.8 170.634 Q2186.56 170.634 2187.53 169.8 Q2188.51 168.967 2189.69 165.865 L2190.45 163.921 L2179.97 138.412 L2184.48 138.412 L2192.58 158.689 L2200.68 138.412 L2205.2 138.412 L2193.81 166.745 Z" fill="#000000" fill-rule="evenodd" fill-opacity="1" /><path clip-path="url(#clip660)" d="M2212.49 160.402 L2220.13 160.402 L2220.13 134.037 L2211.82 135.703 L2211.82 131.444 L2220.08 129.778 L2224.76 129.778 L2224.76 160.402 L2232.4 160.402 L2232.4 164.338 L2212.49 164.338 L2212.49 160.402 Z" fill="#000000" fill-rule="evenodd" fill-opacity="1" /><polyline clip-path="url(#clip660)" style="stroke:#e26f46; stroke-linecap:butt; stroke-linejoin:round; stroke-width:4; stroke-opacity:1; fill:none" points="
  2011.46,198.898 2155.89,198.898 
  "/>
<path clip-path="url(#clip660)" d="M2193.81 218.585 Q2192 223.215 2190.29 224.627 Q2188.58 226.039 2185.71 226.039 L2182.3 226.039 L2182.3 222.474 L2184.8 222.474 Q2186.56 222.474 2187.53 221.64 Q2188.51 220.807 2189.69 217.705 L2190.45 215.761 L2179.97 190.252 L2184.48 190.252 L2192.58 210.529 L2200.68 190.252 L2205.2 190.252 L2193.81 218.585 Z" fill="#000000" fill-rule="evenodd" fill-opacity="1" /><path clip-path="url(#clip660)" d="M2215.71 212.242 L2232.03 212.242 L2232.03 216.178 L2210.08 216.178 L2210.08 212.242 Q2212.74 209.488 2217.33 204.858 Q2221.93 200.205 2223.11 198.863 Q2225.36 196.34 2226.24 194.604 Q2227.14 192.844 2227.14 191.155 Q2227.14 188.4 2225.2 186.664 Q2223.28 184.928 2220.17 184.928 Q2217.97 184.928 2215.52 185.692 Q2213.09 186.455 2210.31 188.006 L2210.31 183.284 Q2213.14 182.15 2215.59 181.571 Q2218.04 180.993 2220.08 180.993 Q2225.45 180.993 2228.65 183.678 Q2231.84 186.363 2231.84 190.854 Q2231.84 192.983 2231.03 194.905 Q2230.24 196.803 2228.14 199.395 Q2227.56 200.067 2224.46 203.284 Q2221.35 206.479 2215.71 212.242 Z" fill="#000000" fill-rule="evenodd" fill-opacity="1" /></svg>
