<?xml version="1.0" encoding="utf-8"?>
<svg xmlns="http://www.w3.org/2000/svg" xmlns:xlink="http://www.w3.org/1999/xlink" width="600" height="400" viewBox="0 0 2400 1600">
<defs>
  <clipPath id="clip150">
    <rect x="0" y="0" width="2400" height="1600"/>
  </clipPath>
</defs>
<path clip-path="url(#clip150)" d="
M0 1600 L2400 1600 L2400 0 L0 0  Z
  " fill="#ffffff" fill-rule="evenodd" fill-opacity="1"/>
<defs>
  <clipPath id="clip151">
    <rect x="480" y="0" width="1681" height="1600"/>
  </clipPath>
</defs>
<path clip-path="url(#clip150)" d="
M186.274 1486.45 L2352.76 1486.45 L2352.76 47.2441 L186.274 47.2441  Z
  " fill="#ffffff" fill-rule="evenodd" fill-opacity="1"/>
<defs>
  <clipPath id="clip152">
    <rect x="186" y="47" width="2167" height="1440"/>
  </clipPath>
</defs>
<polyline clip-path="url(#clip152)" style="stroke:#000000; stroke-linecap:butt; stroke-linejoin:round; stroke-width:2; stroke-opacity:0.1; fill:none" points="
  247.59,1486.45 247.59,47.2441 
  "/>
<polyline clip-path="url(#clip152)" style="stroke:#000000; stroke-linecap:butt; stroke-linejoin:round; stroke-width:2; stroke-opacity:0.1; fill:none" points="
  768.98,1486.45 768.98,47.2441 
  "/>
<polyline clip-path="url(#clip152)" style="stroke:#000000; stroke-linecap:butt; stroke-linejoin:round; stroke-width:2; stroke-opacity:0.1; fill:none" points="
  1290.37,1486.45 1290.37,47.2441 
  "/>
<polyline clip-path="url(#clip152)" style="stroke:#000000; stroke-linecap:butt; stroke-linejoin:round; stroke-width:2; stroke-opacity:0.1; fill:none" points="
  1811.76,1486.45 1811.76,47.2441 
  "/>
<polyline clip-path="url(#clip152)" style="stroke:#000000; stroke-linecap:butt; stroke-linejoin:round; stroke-width:2; stroke-opacity:0.1; fill:none" points="
  2333.15,1486.45 2333.15,47.2441 
  "/>
<polyline clip-path="url(#clip150)" style="stroke:#000000; stroke-linecap:butt; stroke-linejoin:round; stroke-width:4; stroke-opacity:1; fill:none" points="
  186.274,1486.45 2352.76,1486.45 
  "/>
<polyline clip-path="url(#clip150)" style="stroke:#000000; stroke-linecap:butt; stroke-linejoin:round; stroke-width:4; stroke-opacity:1; fill:none" points="
  247.59,1486.45 247.59,1467.55 
  "/>
<polyline clip-path="url(#clip150)" style="stroke:#000000; stroke-linecap:butt; stroke-linejoin:round; stroke-width:4; stroke-opacity:1; fill:none" points="
  768.98,1486.45 768.98,1467.55 
  "/>
<polyline clip-path="url(#clip150)" style="stroke:#000000; stroke-linecap:butt; stroke-linejoin:round; stroke-width:4; stroke-opacity:1; fill:none" points="
  1290.37,1486.45 1290.37,1467.55 
  "/>
<polyline clip-path="url(#clip150)" style="stroke:#000000; stroke-linecap:butt; stroke-linejoin:round; stroke-width:4; stroke-opacity:1; fill:none" points="
  1811.76,1486.45 1811.76,1467.55 
  "/>
<polyline clip-path="url(#clip150)" style="stroke:#000000; stroke-linecap:butt; stroke-linejoin:round; stroke-width:4; stroke-opacity:1; fill:none" points="
  2333.15,1486.45 2333.15,1467.55 
  "/>
<path clip-path="url(#clip150)" d="M194.118 1532.02 L223.793 1532.02 L223.793 1535.95 L194.118 1535.95 L194.118 1532.02 Z" fill="#000000" fill-rule="evenodd" fill-opacity="1" /><path clip-path="url(#clip150)" d="M234.696 1544.91 L242.335 1544.91 L242.335 1518.55 L234.025 1520.21 L234.025 1515.95 L242.289 1514.29 L246.965 1514.29 L246.965 1544.91 L254.603 1544.91 L254.603 1548.85 L234.696 1548.85 L234.696 1544.91 Z" fill="#000000" fill-rule="evenodd" fill-opacity="1" /><path clip-path="url(#clip150)" d="M264.048 1542.97 L268.932 1542.97 L268.932 1548.85 L264.048 1548.85 L264.048 1542.97 Z" fill="#000000" fill-rule="evenodd" fill-opacity="1" /><path clip-path="url(#clip150)" d="M289.117 1517.37 Q285.506 1517.37 283.677 1520.93 Q281.872 1524.47 281.872 1531.6 Q281.872 1538.71 283.677 1542.27 Q285.506 1545.82 289.117 1545.82 Q292.751 1545.82 294.557 1542.27 Q296.386 1538.71 296.386 1531.6 Q296.386 1524.47 294.557 1520.93 Q292.751 1517.37 289.117 1517.37 M289.117 1513.66 Q294.927 1513.66 297.983 1518.27 Q301.061 1522.85 301.061 1531.6 Q301.061 1540.33 297.983 1544.94 Q294.927 1549.52 289.117 1549.52 Q283.307 1549.52 280.228 1544.94 Q277.173 1540.33 277.173 1531.6 Q277.173 1522.85 280.228 1518.27 Q283.307 1513.66 289.117 1513.66 Z" fill="#000000" fill-rule="evenodd" fill-opacity="1" /><path clip-path="url(#clip150)" d="M716.006 1532.02 L745.682 1532.02 L745.682 1535.95 L716.006 1535.95 L716.006 1532.02 Z" fill="#000000" fill-rule="evenodd" fill-opacity="1" /><path clip-path="url(#clip150)" d="M765.774 1517.37 Q762.163 1517.37 760.334 1520.93 Q758.529 1524.47 758.529 1531.6 Q758.529 1538.71 760.334 1542.27 Q762.163 1545.82 765.774 1545.82 Q769.408 1545.82 771.214 1542.27 Q773.043 1538.71 773.043 1531.6 Q773.043 1524.47 771.214 1520.93 Q769.408 1517.37 765.774 1517.37 M765.774 1513.66 Q771.584 1513.66 774.64 1518.27 Q777.718 1522.85 777.718 1531.6 Q777.718 1540.33 774.64 1544.94 Q771.584 1549.52 765.774 1549.52 Q759.964 1549.52 756.885 1544.94 Q753.83 1540.33 753.83 1531.6 Q753.83 1522.85 756.885 1518.27 Q759.964 1513.66 765.774 1513.66 Z" fill="#000000" fill-rule="evenodd" fill-opacity="1" /><path clip-path="url(#clip150)" d="M785.936 1542.97 L790.82 1542.97 L790.82 1548.85 L785.936 1548.85 L785.936 1542.97 Z" fill="#000000" fill-rule="evenodd" fill-opacity="1" /><path clip-path="url(#clip150)" d="M801.052 1514.29 L819.408 1514.29 L819.408 1518.22 L805.334 1518.22 L805.334 1526.7 Q806.353 1526.35 807.371 1526.19 Q808.39 1526 809.408 1526 Q815.195 1526 818.575 1529.17 Q821.954 1532.34 821.954 1537.76 Q821.954 1543.34 818.482 1546.44 Q815.01 1549.52 808.69 1549.52 Q806.515 1549.52 804.246 1549.15 Q802.001 1548.78 799.593 1548.04 L799.593 1543.34 Q801.677 1544.47 803.899 1545.03 Q806.121 1545.58 808.598 1545.58 Q812.603 1545.58 814.94 1543.48 Q817.278 1541.37 817.278 1537.76 Q817.278 1534.15 814.94 1532.04 Q812.603 1529.94 808.598 1529.94 Q806.723 1529.94 804.848 1530.35 Q802.996 1530.77 801.052 1531.65 L801.052 1514.29 Z" fill="#000000" fill-rule="evenodd" fill-opacity="1" /><path clip-path="url(#clip150)" d="M1267.75 1517.37 Q1264.14 1517.37 1262.32 1520.93 Q1260.51 1524.47 1260.51 1531.6 Q1260.51 1538.71 1262.32 1542.27 Q1264.14 1545.82 1267.75 1545.82 Q1271.39 1545.82 1273.19 1542.27 Q1275.02 1538.71 1275.02 1531.6 Q1275.02 1524.47 1273.19 1520.93 Q1271.39 1517.37 1267.75 1517.37 M1267.75 1513.66 Q1273.57 1513.66 1276.62 1518.27 Q1279.7 1522.85 1279.7 1531.6 Q1279.7 1540.33 1276.62 1544.94 Q1273.57 1549.52 1267.75 1549.52 Q1261.94 1549.52 1258.87 1544.94 Q1255.81 1540.33 1255.81 1531.6 Q1255.81 1522.85 1258.87 1518.27 Q1261.94 1513.66 1267.75 1513.66 Z" fill="#000000" fill-rule="evenodd" fill-opacity="1" /><path clip-path="url(#clip150)" d="M1287.92 1542.97 L1292.8 1542.97 L1292.8 1548.85 L1287.92 1548.85 L1287.92 1542.97 Z" fill="#000000" fill-rule="evenodd" fill-opacity="1" /><path clip-path="url(#clip150)" d="M1312.99 1517.37 Q1309.38 1517.37 1307.55 1520.93 Q1305.74 1524.47 1305.74 1531.6 Q1305.74 1538.71 1307.55 1542.27 Q1309.38 1545.82 1312.99 1545.82 Q1316.62 1545.82 1318.43 1542.27 Q1320.25 1538.71 1320.25 1531.6 Q1320.25 1524.47 1318.43 1520.93 Q1316.62 1517.37 1312.99 1517.37 M1312.99 1513.66 Q1318.8 1513.66 1321.85 1518.27 Q1324.93 1522.85 1324.93 1531.6 Q1324.93 1540.33 1321.85 1544.94 Q1318.8 1549.52 1312.99 1549.52 Q1307.18 1549.52 1304.1 1544.94 Q1301.04 1540.33 1301.04 1531.6 Q1301.04 1522.85 1304.1 1518.27 Q1307.18 1513.66 1312.99 1513.66 Z" fill="#000000" fill-rule="evenodd" fill-opacity="1" /><path clip-path="url(#clip150)" d="M1789.64 1517.37 Q1786.03 1517.37 1784.2 1520.93 Q1782.4 1524.47 1782.4 1531.6 Q1782.4 1538.71 1784.2 1542.27 Q1786.03 1545.82 1789.64 1545.82 Q1793.28 1545.82 1795.08 1542.27 Q1796.91 1538.71 1796.91 1531.6 Q1796.91 1524.47 1795.08 1520.93 Q1793.28 1517.37 1789.64 1517.37 M1789.64 1513.66 Q1795.45 1513.66 1798.51 1518.27 Q1801.59 1522.85 1801.59 1531.6 Q1801.59 1540.33 1798.51 1544.94 Q1795.45 1549.52 1789.64 1549.52 Q1783.83 1549.52 1780.75 1544.94 Q1777.7 1540.33 1777.7 1531.6 Q1777.7 1522.85 1780.75 1518.27 Q1783.83 1513.66 1789.64 1513.66 Z" fill="#000000" fill-rule="evenodd" fill-opacity="1" /><path clip-path="url(#clip150)" d="M1809.81 1542.97 L1814.69 1542.97 L1814.69 1548.85 L1809.81 1548.85 L1809.81 1542.97 Z" fill="#000000" fill-rule="evenodd" fill-opacity="1" /><path clip-path="url(#clip150)" d="M1824.92 1514.29 L1843.28 1514.29 L1843.28 1518.22 L1829.2 1518.22 L1829.2 1526.7 Q1830.22 1526.35 1831.24 1526.19 Q1832.26 1526 1833.28 1526 Q1839.06 1526 1842.44 1529.17 Q1845.82 1532.34 1845.82 1537.76 Q1845.82 1543.34 1842.35 1546.44 Q1838.88 1549.52 1832.56 1549.52 Q1830.38 1549.52 1828.12 1549.15 Q1825.87 1548.78 1823.46 1548.04 L1823.46 1543.34 Q1825.55 1544.47 1827.77 1545.03 Q1829.99 1545.58 1832.47 1545.58 Q1836.47 1545.58 1838.81 1543.48 Q1841.15 1541.37 1841.15 1537.76 Q1841.15 1534.15 1838.81 1532.04 Q1836.47 1529.94 1832.47 1529.94 Q1830.59 1529.94 1828.72 1530.35 Q1826.87 1530.77 1824.92 1531.65 L1824.92 1514.29 Z" fill="#000000" fill-rule="evenodd" fill-opacity="1" /><path clip-path="url(#clip150)" d="M2300.3 1544.91 L2307.94 1544.91 L2307.94 1518.55 L2299.63 1520.21 L2299.63 1515.95 L2307.9 1514.29 L2312.57 1514.29 L2312.57 1544.91 L2320.21 1544.91 L2320.21 1548.85 L2300.3 1548.85 L2300.3 1544.91 Z" fill="#000000" fill-rule="evenodd" fill-opacity="1" /><path clip-path="url(#clip150)" d="M2329.66 1542.97 L2334.54 1542.97 L2334.54 1548.85 L2329.66 1548.85 L2329.66 1542.97 Z" fill="#000000" fill-rule="evenodd" fill-opacity="1" /><path clip-path="url(#clip150)" d="M2354.73 1517.37 Q2351.11 1517.37 2349.29 1520.93 Q2347.48 1524.47 2347.48 1531.6 Q2347.48 1538.71 2349.29 1542.27 Q2351.11 1545.82 2354.73 1545.82 Q2358.36 1545.82 2360.17 1542.27 Q2361.99 1538.71 2361.99 1531.6 Q2361.99 1524.47 2360.17 1520.93 Q2358.36 1517.37 2354.73 1517.37 M2354.73 1513.66 Q2360.54 1513.66 2363.59 1518.27 Q2366.67 1522.85 2366.67 1531.6 Q2366.67 1540.33 2363.59 1544.94 Q2360.54 1549.52 2354.73 1549.52 Q2348.92 1549.52 2345.84 1544.94 Q2342.78 1540.33 2342.78 1531.6 Q2342.78 1522.85 2345.84 1518.27 Q2348.92 1513.66 2354.73 1513.66 Z" fill="#000000" fill-rule="evenodd" fill-opacity="1" /><polyline clip-path="url(#clip152)" style="stroke:#000000; stroke-linecap:butt; stroke-linejoin:round; stroke-width:2; stroke-opacity:0.1; fill:none" points="
  186.274,1445.75 2352.76,1445.75 
  "/>
<polyline clip-path="url(#clip152)" style="stroke:#000000; stroke-linecap:butt; stroke-linejoin:round; stroke-width:2; stroke-opacity:0.1; fill:none" points="
  186.274,1106.31 2352.76,1106.31 
  "/>
<polyline clip-path="url(#clip152)" style="stroke:#000000; stroke-linecap:butt; stroke-linejoin:round; stroke-width:2; stroke-opacity:0.1; fill:none" points="
  186.274,766.865 2352.76,766.865 
  "/>
<polyline clip-path="url(#clip152)" style="stroke:#000000; stroke-linecap:butt; stroke-linejoin:round; stroke-width:2; stroke-opacity:0.1; fill:none" points="
  186.274,427.421 2352.76,427.421 
  "/>
<polyline clip-path="url(#clip152)" style="stroke:#000000; stroke-linecap:butt; stroke-linejoin:round; stroke-width:2; stroke-opacity:0.1; fill:none" points="
  186.274,87.9763 2352.76,87.9763 
  "/>
<polyline clip-path="url(#clip150)" style="stroke:#000000; stroke-linecap:butt; stroke-linejoin:round; stroke-width:4; stroke-opacity:1; fill:none" points="
  186.274,1486.45 186.274,47.2441 
  "/>
<polyline clip-path="url(#clip150)" style="stroke:#000000; stroke-linecap:butt; stroke-linejoin:round; stroke-width:4; stroke-opacity:1; fill:none" points="
  186.274,1445.75 205.172,1445.75 
  "/>
<polyline clip-path="url(#clip150)" style="stroke:#000000; stroke-linecap:butt; stroke-linejoin:round; stroke-width:4; stroke-opacity:1; fill:none" points="
  186.274,1106.31 205.172,1106.31 
  "/>
<polyline clip-path="url(#clip150)" style="stroke:#000000; stroke-linecap:butt; stroke-linejoin:round; stroke-width:4; stroke-opacity:1; fill:none" points="
  186.274,766.865 205.172,766.865 
  "/>
<polyline clip-path="url(#clip150)" style="stroke:#000000; stroke-linecap:butt; stroke-linejoin:round; stroke-width:4; stroke-opacity:1; fill:none" points="
  186.274,427.421 205.172,427.421 
  "/>
<polyline clip-path="url(#clip150)" style="stroke:#000000; stroke-linecap:butt; stroke-linejoin:round; stroke-width:4; stroke-opacity:1; fill:none" points="
  186.274,87.9763 205.172,87.9763 
  "/>
<path clip-path="url(#clip150)" d="M62.9365 1431.55 Q59.3254 1431.55 57.4967 1435.12 Q55.6912 1438.66 55.6912 1445.79 Q55.6912 1452.89 57.4967 1456.46 Q59.3254 1460 62.9365 1460 Q66.5707 1460 68.3763 1456.46 Q70.205 1452.89 70.205 1445.79 Q70.205 1438.66 68.3763 1435.12 Q66.5707 1431.55 62.9365 1431.55 M62.9365 1427.85 Q68.7467 1427.85 71.8022 1432.45 Q74.8809 1437.04 74.8809 1445.79 Q74.8809 1454.51 71.8022 1459.12 Q68.7467 1463.7 62.9365 1463.7 Q57.1264 1463.7 54.0477 1459.12 Q50.9921 1454.51 50.9921 1445.79 Q50.9921 1437.04 54.0477 1432.45 Q57.1264 1427.85 62.9365 1427.85 Z" fill="#000000" fill-rule="evenodd" fill-opacity="1" /><path clip-path="url(#clip150)" d="M83.0984 1457.15 L87.9827 1457.15 L87.9827 1463.03 L83.0984 1463.03 L83.0984 1457.15 Z" fill="#000000" fill-rule="evenodd" fill-opacity="1" /><path clip-path="url(#clip150)" d="M108.168 1431.55 Q104.557 1431.55 102.728 1435.12 Q100.922 1438.66 100.922 1445.79 Q100.922 1452.89 102.728 1456.46 Q104.557 1460 108.168 1460 Q111.802 1460 113.608 1456.46 Q115.436 1452.89 115.436 1445.79 Q115.436 1438.66 113.608 1435.12 Q111.802 1431.55 108.168 1431.55 M108.168 1427.85 Q113.978 1427.85 117.033 1432.45 Q120.112 1437.04 120.112 1445.79 Q120.112 1454.51 117.033 1459.12 Q113.978 1463.7 108.168 1463.7 Q102.358 1463.7 99.2789 1459.12 Q96.2234 1454.51 96.2234 1445.79 Q96.2234 1437.04 99.2789 1432.45 Q102.358 1427.85 108.168 1427.85 Z" fill="#000000" fill-rule="evenodd" fill-opacity="1" /><path clip-path="url(#clip150)" d="M138.33 1431.55 Q134.719 1431.55 132.89 1435.12 Q131.084 1438.66 131.084 1445.79 Q131.084 1452.89 132.89 1456.46 Q134.719 1460 138.33 1460 Q141.964 1460 143.769 1456.46 Q145.598 1452.89 145.598 1445.79 Q145.598 1438.66 143.769 1435.12 Q141.964 1431.55 138.33 1431.55 M138.33 1427.85 Q144.14 1427.85 147.195 1432.45 Q150.274 1437.04 150.274 1445.79 Q150.274 1454.51 147.195 1459.12 Q144.14 1463.7 138.33 1463.7 Q132.519 1463.7 129.441 1459.12 Q126.385 1454.51 126.385 1445.79 Q126.385 1437.04 129.441 1432.45 Q132.519 1427.85 138.33 1427.85 Z" fill="#000000" fill-rule="evenodd" fill-opacity="1" /><path clip-path="url(#clip150)" d="M63.9319 1092.11 Q60.3208 1092.11 58.4921 1095.67 Q56.6865 1099.21 56.6865 1106.34 Q56.6865 1113.45 58.4921 1117.02 Q60.3208 1120.56 63.9319 1120.56 Q67.5661 1120.56 69.3717 1117.02 Q71.2004 1113.45 71.2004 1106.34 Q71.2004 1099.21 69.3717 1095.67 Q67.5661 1092.11 63.9319 1092.11 M63.9319 1088.4 Q69.742 1088.4 72.7976 1093.01 Q75.8763 1097.59 75.8763 1106.34 Q75.8763 1115.07 72.7976 1119.68 Q69.742 1124.26 63.9319 1124.26 Q58.1217 1124.26 55.043 1119.68 Q51.9875 1115.07 51.9875 1106.34 Q51.9875 1097.59 55.043 1093.01 Q58.1217 1088.4 63.9319 1088.4 Z" fill="#000000" fill-rule="evenodd" fill-opacity="1" /><path clip-path="url(#clip150)" d="M84.0938 1117.71 L88.978 1117.71 L88.978 1123.59 L84.0938 1123.59 L84.0938 1117.71 Z" fill="#000000" fill-rule="evenodd" fill-opacity="1" /><path clip-path="url(#clip150)" d="M103.191 1119.65 L119.51 1119.65 L119.51 1123.59 L97.566 1123.59 L97.566 1119.65 Q100.228 1116.9 104.811 1112.27 Q109.418 1107.62 110.598 1106.27 Q112.844 1103.75 113.723 1102.02 Q114.626 1100.26 114.626 1098.57 Q114.626 1095.81 112.682 1094.08 Q110.76 1092.34 107.658 1092.34 Q105.459 1092.34 103.006 1093.1 Q100.575 1093.87 97.7974 1095.42 L97.7974 1090.7 Q100.621 1089.56 103.075 1088.98 Q105.529 1088.4 107.566 1088.4 Q112.936 1088.4 116.131 1091.09 Q119.325 1093.77 119.325 1098.27 Q119.325 1100.39 118.515 1102.32 Q117.728 1104.21 115.621 1106.81 Q115.043 1107.48 111.941 1110.7 Q108.839 1113.89 103.191 1119.65 Z" fill="#000000" fill-rule="evenodd" fill-opacity="1" /><path clip-path="url(#clip150)" d="M129.371 1089.03 L147.728 1089.03 L147.728 1092.96 L133.654 1092.96 L133.654 1101.44 Q134.672 1101.09 135.691 1100.93 Q136.709 1100.74 137.728 1100.74 Q143.515 1100.74 146.894 1103.91 Q150.274 1107.08 150.274 1112.5 Q150.274 1118.08 146.802 1121.18 Q143.33 1124.26 137.01 1124.26 Q134.834 1124.26 132.566 1123.89 Q130.32 1123.52 127.913 1122.78 L127.913 1118.08 Q129.996 1119.21 132.219 1119.77 Q134.441 1120.33 136.918 1120.33 Q140.922 1120.33 143.26 1118.22 Q145.598 1116.11 145.598 1112.5 Q145.598 1108.89 143.26 1106.78 Q140.922 1104.68 136.918 1104.68 Q135.043 1104.68 133.168 1105.09 Q131.316 1105.51 129.371 1106.39 L129.371 1089.03 Z" fill="#000000" fill-rule="evenodd" fill-opacity="1" /><path clip-path="url(#clip150)" d="M62.9365 752.663 Q59.3254 752.663 57.4967 756.228 Q55.6912 759.77 55.6912 766.9 Q55.6912 774.006 57.4967 777.571 Q59.3254 781.112 62.9365 781.112 Q66.5707 781.112 68.3763 777.571 Q70.205 774.006 70.205 766.9 Q70.205 759.77 68.3763 756.228 Q66.5707 752.663 62.9365 752.663 M62.9365 748.96 Q68.7467 748.96 71.8022 753.566 Q74.8809 758.15 74.8809 766.9 Q74.8809 775.626 71.8022 780.233 Q68.7467 784.816 62.9365 784.816 Q57.1264 784.816 54.0477 780.233 Q50.9921 775.626 50.9921 766.9 Q50.9921 758.15 54.0477 753.566 Q57.1264 748.96 62.9365 748.96 Z" fill="#000000" fill-rule="evenodd" fill-opacity="1" /><path clip-path="url(#clip150)" d="M83.0984 778.265 L87.9827 778.265 L87.9827 784.145 L83.0984 784.145 L83.0984 778.265 Z" fill="#000000" fill-rule="evenodd" fill-opacity="1" /><path clip-path="url(#clip150)" d="M98.2141 749.585 L116.57 749.585 L116.57 753.52 L102.496 753.52 L102.496 761.992 Q103.515 761.645 104.534 761.483 Q105.552 761.298 106.571 761.298 Q112.358 761.298 115.737 764.469 Q119.117 767.64 119.117 773.057 Q119.117 778.636 115.645 781.737 Q112.172 784.816 105.853 784.816 Q103.677 784.816 101.409 784.446 Q99.1632 784.075 96.7558 783.335 L96.7558 778.636 Q98.8391 779.77 101.061 780.325 Q103.284 780.881 105.76 780.881 Q109.765 780.881 112.103 778.774 Q114.441 776.668 114.441 773.057 Q114.441 769.446 112.103 767.339 Q109.765 765.233 105.76 765.233 Q103.885 765.233 102.01 765.65 Q100.159 766.066 98.2141 766.946 L98.2141 749.585 Z" fill="#000000" fill-rule="evenodd" fill-opacity="1" /><path clip-path="url(#clip150)" d="M138.33 752.663 Q134.719 752.663 132.89 756.228 Q131.084 759.77 131.084 766.9 Q131.084 774.006 132.89 777.571 Q134.719 781.112 138.33 781.112 Q141.964 781.112 143.769 777.571 Q145.598 774.006 145.598 766.9 Q145.598 759.77 143.769 756.228 Q141.964 752.663 138.33 752.663 M138.33 748.96 Q144.14 748.96 147.195 753.566 Q150.274 758.15 150.274 766.9 Q150.274 775.626 147.195 780.233 Q144.14 784.816 138.33 784.816 Q132.519 784.816 129.441 780.233 Q126.385 775.626 126.385 766.9 Q126.385 758.15 129.441 753.566 Q132.519 748.96 138.33 748.96 Z" fill="#000000" fill-rule="evenodd" fill-opacity="1" /><path clip-path="url(#clip150)" d="M63.9319 413.219 Q60.3208 413.219 58.4921 416.784 Q56.6865 420.326 56.6865 427.455 Q56.6865 434.562 58.4921 438.126 Q60.3208 441.668 63.9319 441.668 Q67.5661 441.668 69.3717 438.126 Q71.2004 434.562 71.2004 427.455 Q71.2004 420.326 69.3717 416.784 Q67.5661 413.219 63.9319 413.219 M63.9319 409.516 Q69.742 409.516 72.7976 414.122 Q75.8763 418.705 75.8763 427.455 Q75.8763 436.182 72.7976 440.789 Q69.742 445.372 63.9319 445.372 Q58.1217 445.372 55.043 440.789 Q51.9875 436.182 51.9875 427.455 Q51.9875 418.705 55.043 414.122 Q58.1217 409.516 63.9319 409.516 Z" fill="#000000" fill-rule="evenodd" fill-opacity="1" /><path clip-path="url(#clip150)" d="M84.0938 438.821 L88.978 438.821 L88.978 444.701 L84.0938 444.701 L84.0938 438.821 Z" fill="#000000" fill-rule="evenodd" fill-opacity="1" /><path clip-path="url(#clip150)" d="M97.9826 410.141 L120.205 410.141 L120.205 412.131 L107.658 444.701 L102.774 444.701 L114.58 414.076 L97.9826 414.076 L97.9826 410.141 Z" fill="#000000" fill-rule="evenodd" fill-opacity="1" /><path clip-path="url(#clip150)" d="M129.371 410.141 L147.728 410.141 L147.728 414.076 L133.654 414.076 L133.654 422.548 Q134.672 422.201 135.691 422.039 Q136.709 421.853 137.728 421.853 Q143.515 421.853 146.894 425.025 Q150.274 428.196 150.274 433.613 Q150.274 439.191 146.802 442.293 Q143.33 445.372 137.01 445.372 Q134.834 445.372 132.566 445.001 Q130.32 444.631 127.913 443.89 L127.913 439.191 Q129.996 440.326 132.219 440.881 Q134.441 441.437 136.918 441.437 Q140.922 441.437 143.26 439.33 Q145.598 437.224 145.598 433.613 Q145.598 430.002 143.26 427.895 Q140.922 425.789 136.918 425.789 Q135.043 425.789 133.168 426.205 Q131.316 426.622 129.371 427.502 L129.371 410.141 Z" fill="#000000" fill-rule="evenodd" fill-opacity="1" /><path clip-path="url(#clip150)" d="M53.7467 101.321 L61.3856 101.321 L61.3856 74.9555 L53.0754 76.6222 L53.0754 72.3629 L61.3393 70.6963 L66.0152 70.6963 L66.0152 101.321 L73.654 101.321 L73.654 105.256 L53.7467 105.256 L53.7467 101.321 Z" fill="#000000" fill-rule="evenodd" fill-opacity="1" /><path clip-path="url(#clip150)" d="M83.0984 99.3767 L87.9827 99.3767 L87.9827 105.256 L83.0984 105.256 L83.0984 99.3767 Z" fill="#000000" fill-rule="evenodd" fill-opacity="1" /><path clip-path="url(#clip150)" d="M108.168 73.775 Q104.557 73.775 102.728 77.3398 Q100.922 80.8814 100.922 88.011 Q100.922 95.1174 102.728 98.6822 Q104.557 102.224 108.168 102.224 Q111.802 102.224 113.608 98.6822 Q115.436 95.1174 115.436 88.011 Q115.436 80.8814 113.608 77.3398 Q111.802 73.775 108.168 73.775 M108.168 70.0713 Q113.978 70.0713 117.033 74.6777 Q120.112 79.261 120.112 88.011 Q120.112 96.7378 117.033 101.344 Q113.978 105.928 108.168 105.928 Q102.358 105.928 99.2789 101.344 Q96.2234 96.7378 96.2234 88.011 Q96.2234 79.261 99.2789 74.6777 Q102.358 70.0713 108.168 70.0713 Z" fill="#000000" fill-rule="evenodd" fill-opacity="1" /><path clip-path="url(#clip150)" d="M138.33 73.775 Q134.719 73.775 132.89 77.3398 Q131.084 80.8814 131.084 88.011 Q131.084 95.1174 132.89 98.6822 Q134.719 102.224 138.33 102.224 Q141.964 102.224 143.769 98.6822 Q145.598 95.1174 145.598 88.011 Q145.598 80.8814 143.769 77.3398 Q141.964 73.775 138.33 73.775 M138.33 70.0713 Q144.14 70.0713 147.195 74.6777 Q150.274 79.261 150.274 88.011 Q150.274 96.7378 147.195 101.344 Q144.14 105.928 138.33 105.928 Q132.519 105.928 129.441 101.344 Q126.385 96.7378 126.385 88.011 Q126.385 79.261 129.441 74.6777 Q132.519 70.0713 138.33 70.0713 Z" fill="#000000" fill-rule="evenodd" fill-opacity="1" /><polyline clip-path="url(#clip152)" style="stroke:#009af9; stroke-linecap:butt; stroke-linejoin:round; stroke-width:12; stroke-opacity:1; fill:none" points="
  247.59,1445.59 289.301,1445.41 331.012,1445.09 372.723,1444.48 414.434,1443.38 456.146,1441.47 497.857,1438.25 539.568,1432.97 581.279,1424.6 622.991,1411.72 
  664.702,1392.58 706.413,1365.02 748.124,1326.65 789.836,1275.04 831.547,1208.01 873.258,1124.06 914.969,1022.82 956.681,905.518 998.392,775.266 1040.1,637.234 
  1081.81,498.464 1123.53,367.385 1165.24,253.019 1206.95,163.974 1248.66,107.388 1290.37,87.9763 1332.08,107.388 1373.79,163.974 1415.5,253.019 1457.22,367.385 
  1498.93,498.464 1540.64,637.234 1582.35,775.266 1624.06,905.518 1665.77,1022.82 1707.48,1124.06 1749.19,1208.01 1790.91,1275.04 1832.62,1326.65 1874.33,1365.02 
  1916.04,1392.58 1957.75,1411.72 1999.46,1424.6 2041.17,1432.97 2082.88,1438.25 2124.6,1441.47 2166.31,1443.38 2208.02,1444.48 2249.73,1445.09 2291.44,1445.41 
  
  "/>
<polyline clip-path="url(#clip152)" style="stroke:#e26f46; stroke-linecap:butt; stroke-linejoin:round; stroke-width:12; stroke-opacity:1; fill:none" points="
  247.59,1444.26 289.301,1445.03 331.012,1445.41 372.723,1445.52 414.434,1445.45 456.146,1445.19 497.857,1444.67 539.568,1443.69 581.279,1441.94 622.991,1438.92 
  664.702,1433.89 706.413,1425.8 748.124,1413.22 789.836,1394.3 831.547,1366.86 873.258,1328.4 914.969,1276.43 956.681,1208.7 998.392,1123.71 1040.1,1021.14 
  1081.81,902.332 1123.53,770.6 1165.24,631.349 1206.95,491.861 1248.66,360.753 1290.37,247.142 1332.08,159.605 1373.79,105.111 1415.5,88.1007 1457.22,109.89 
  1498.93,168.503 1540.64,258.962 1582.35,373.988 1624.06,504.957 1665.77,642.958 1707.48,779.757 1749.19,908.548 1790.91,1024.39 1832.62,1124.34 1874.33,1207.3 
  1916.04,1273.67 1957.75,1324.94 1999.46,1363.23 2041.17,1390.91 2082.88,1410.28 2124.6,1423.42 2166.31,1432.07 2208.02,1437.57 2249.73,1441.04 2291.44,1443.03 
  
  "/>
<polyline clip-path="url(#clip152)" style="stroke:#3da44d; stroke-linecap:butt; stroke-linejoin:round; stroke-width:12; stroke-opacity:1; fill:none" points="
  247.59,1436.93 289.301,1440.5 331.012,1442.74 372.723,1444.12 414.434,1444.91 456.146,1445.33 497.857,1445.49 539.568,1445.48 581.279,1445.29 622.991,1444.85 
  664.702,1443.99 706.413,1442.4 748.124,1439.6 789.836,1434.83 831.547,1427.04 873.258,1414.75 914.969,1396.09 956.681,1368.76 998.392,1330.21 1040.1,1277.85 
  1081.81,1209.38 1123.53,1123.3 1165.24,1019.34 1206.95,898.979 1248.66,765.753 1290.37,625.304 1332.08,485.154 1373.79,354.104 1415.5,241.348 1457.22,155.408 
  1498.93,103.066 1540.64,88.4732 1582.35,112.609 1624.06,173.176 1665.77,264.957 1707.48,380.547 1749.19,511.331 1790.91,648.518 1832.62,784.077 1874.33,911.429 
  1916.04,1025.85 1957.75,1124.57 1999.46,1206.58 2041.17,1272.32 2082.88,1323.3 2124.6,1361.49 2166.31,1389.31 2208.02,1408.85 2249.73,1422.26 2291.44,1431.21 
  
  "/>
<polyline clip-path="url(#clip152)" style="stroke:#c271d2; stroke-linecap:butt; stroke-linejoin:round; stroke-width:12; stroke-opacity:1; fill:none" points="
  247.59,1407.51 289.301,1421.18 331.012,1430.3 372.723,1436.23 414.434,1440.04 456.146,1442.45 497.857,1443.92 539.568,1444.78 581.279,1445.25 622.991,1445.46 
  664.702,1445.5 706.413,1445.38 748.124,1445.03 789.836,1444.28 831.547,1442.86 873.258,1440.28 914.969,1435.79 956.681,1428.31 998.392,1416.34 1040.1,1397.93 
  1081.81,1370.72 1123.53,1332.07 1165.24,1279.29 1206.95,1210.04 1248.66,1122.8 1290.37,1017.39 1332.08,895.453 1373.79,760.721 1415.5,619.101 1457.22,478.355 
  1498.93,347.454 1540.64,235.653 1582.35,151.397 1624.06,101.259 1665.77,89.091 1707.48,115.533 1749.19,177.98 1790.91,270.987 1832.62,387.054 1874.33,517.578 
  1916.04,653.924 1957.75,788.221 1999.46,914.188 2041.17,1027.2 2082.88,1124.77 2124.6,1205.86 2166.31,1271 2208.02,1321.7 2249.73,1359.83 2291.44,1387.69 
  
  "/>
<polyline clip-path="url(#clip152)" style="stroke:#ac8d18; stroke-linecap:butt; stroke-linejoin:round; stroke-width:12; stroke-opacity:1; fill:none" points="
  247.59,1320.09 289.301,1358.18 331.012,1386.2 372.723,1406.2 414.434,1420.05 456.146,1429.4 497.857,1435.59 539.568,1439.6 581.279,1442.15 622.991,1443.71 
  664.702,1444.64 706.413,1445.16 748.124,1445.43 789.836,1445.52 831.547,1445.46 873.258,1445.19 914.969,1444.57 956.681,1443.32 998.392,1440.97 1040.1,1436.77 
  1081.81,1429.62 1123.53,1417.98 1165.24,1399.84 1206.95,1372.76 1248.66,1333.98 1290.37,1280.75 1332.08,1210.66 1373.79,1122.21 1415.5,1015.31 1457.22,891.744 
  1498.93,755.502 1540.64,612.746 1582.35,471.474 1624.06,340.818 1665.77,230.074 1707.48,147.58 1749.19,99.6981 1790.91,89.9434 1832.62,118.661 1874.33,182.884 
  1916.04,277.058 1957.75,393.477 1999.46,523.712 2041.17,659.163 2082.88,792.212 2124.6,916.799 2166.31,1028.5 2208.02,1124.87 2249.73,1205.15 2291.44,1269.76 
  
  "/>
<polyline clip-path="url(#clip152)" style="stroke:#00a9ad; stroke-linecap:butt; stroke-linejoin:round; stroke-width:12; stroke-opacity:1; fill:none" points="
  247.59,1125.01 289.301,1204.43 331.012,1268.46 372.723,1318.56 414.434,1356.64 456.146,1384.74 497.857,1404.88 539.568,1418.95 581.279,1428.55 622.991,1434.96 
  664.702,1439.15 706.413,1441.83 748.124,1443.49 789.836,1444.49 831.547,1445.07 873.258,1445.39 914.969,1445.53 956.681,1445.53 998.392,1445.34 1040.1,1444.85 
  1081.81,1443.77 1123.53,1441.67 1165.24,1437.77 1206.95,1430.97 1248.66,1419.68 1290.37,1401.82 1332.08,1374.86 1373.79,1335.95 1415.5,1282.22 1457.22,1211.25 
  1498.93,1121.53 1540.64,1013.06 1582.35,887.848 1624.06,750.092 1665.77,606.251 1707.48,464.516 1749.19,334.227 1790.91,224.607 1832.62,143.99 1874.33,98.3639 
  1916.04,91.0438 1957.75,121.963 1999.46,187.9 2041.17,283.112 2082.88,399.867 2124.6,529.676 2166.31,664.248 2208.02,796.089 2249.73,919.254 2291.44,1029.68 
  
  "/>
<polyline clip-path="url(#clip152)" style="stroke:#ed5d92; stroke-linecap:butt; stroke-linejoin:round; stroke-width:12; stroke-opacity:1; fill:none" points="
  247.59,799.752 289.301,921.64 331.012,1030.84 372.723,1125.07 414.434,1203.68 456.146,1267.23 497.857,1317.11 539.568,1355.13 581.279,1383.29 622.991,1403.59 
  664.702,1417.88 706.413,1427.71 748.124,1434.34 789.836,1438.7 831.547,1441.51 873.258,1443.27 914.969,1444.34 956.681,1444.98 998.392,1445.34 1040.1,1445.53 
  1081.81,1445.58 1123.53,1445.48 1165.24,1445.11 1206.95,1444.23 1248.66,1442.37 1290.37,1438.8 1332.08,1432.37 1373.79,1421.44 1415.5,1403.88 1457.22,1377.04 
  1498.93,1337.97 1540.64,1283.7 1582.35,1211.8 1624.06,1120.72 1665.77,1010.67 1707.48,883.737 1749.19,744.512 1790.91,599.602 1832.62,457.516 1874.33,327.67 
  1916.04,219.303 1957.75,140.585 1999.46,97.3103 2041.17,92.3489 2082.88,125.425 2124.6,193.036 2166.31,289.147 2208.02,406.137 2249.73,535.571 2291.44,669.174 
  
  "/>
<polyline clip-path="url(#clip152)" style="stroke:#c68125; stroke-linecap:butt; stroke-linejoin:round; stroke-width:12; stroke-opacity:1; fill:none" points="
  247.59,412.364 289.301,541.273 331.012,673.928 372.723,803.334 414.434,923.934 456.146,1031.88 497.857,1125.09 539.568,1202.96 581.279,1266.06 622.991,1315.69 
  664.702,1353.63 706.413,1381.86 748.124,1402.34 789.836,1416.84 831.547,1426.9 873.258,1433.72 914.969,1438.25 956.681,1441.18 998.392,1443.04 1040.1,1444.18 
  1081.81,1444.87 1123.53,1445.28 1165.24,1445.52 1206.95,1445.63 1248.66,1445.61 1290.37,1445.37 1332.08,1444.67 1373.79,1443.08 1415.5,1439.85 1457.22,1433.8 
  1498.93,1423.29 1540.64,1406 1582.35,1379.3 1624.06,1340.02 1665.77,1285.2 1707.48,1212.27 1749.19,1119.79 1790.91,1008.08 1832.62,879.448 1874.33,738.718 
  1916.04,592.851 1957.75,450.467 1999.46,321.16 2041.17,214.183 2082.88,137.402 2124.6,96.459 2166.31,93.9208 2208.02,129.051 2249.73,198.178 2291.44,295.206 
  
  "/>
<polyline clip-path="url(#clip152)" style="stroke:#00a98d; stroke-linecap:butt; stroke-linejoin:round; stroke-width:12; stroke-opacity:1; fill:none" points="
  247.59,132.803 289.301,203.442 331.012,301.239 372.723,418.442 414.434,546.845 456.146,678.583 497.857,806.79 539.568,926.092 581.279,1032.85 622.991,1125.1 
  664.702,1202.27 706.413,1264.91 748.124,1314.3 789.836,1352.17 831.547,1380.48 873.258,1401.12 914.969,1415.83 956.681,1426.1 998.392,1433.11 1040.1,1437.79 
  1081.81,1440.85 1123.53,1442.8 1165.24,1444.02 1206.95,1444.76 1248.66,1445.22 1290.37,1445.49 1332.08,1445.67 1373.79,1445.72 1415.5,1445.63 1457.22,1445.1 
  1498.93,1443.81 1540.64,1440.92 1582.35,1435.3 1624.06,1425.19 1665.77,1408.22 1707.48,1381.63 1749.19,1342.14 1790.91,1286.68 1832.62,1212.69 1874.33,1118.74 
  1916.04,1005.29 1957.75,874.969 1999.46,732.753 2041.17,585.942 2082.88,443.426 2124.6,314.75 2166.31,209.174 2208.02,134.475 2249.73,95.8929 2291.44,95.6444 
  
  "/>
<path clip-path="url(#clip150)" d="
M1985.68 613.618 L2280.54 613.618 L2280.54 95.2176 L1985.68 95.2176  Z
  " fill="#ffffff" fill-rule="evenodd" fill-opacity="1"/>
<polyline clip-path="url(#clip150)" style="stroke:#000000; stroke-linecap:butt; stroke-linejoin:round; stroke-width:4; stroke-opacity:1; fill:none" points="
  1985.68,613.618 2280.54,613.618 2280.54,95.2176 1985.68,95.2176 1985.68,613.618 
  "/>
<polyline clip-path="url(#clip150)" style="stroke:#009af9; stroke-linecap:butt; stroke-linejoin:round; stroke-width:4; stroke-opacity:1; fill:none" points="
  2009.75,147.058 2154.18,147.058 
  "/>
<path clip-path="url(#clip150)" d="M2192.1 166.745 Q2190.29 171.375 2188.58 172.787 Q2186.86 174.199 2183.99 174.199 L2180.59 174.199 L2180.59 170.634 L2183.09 170.634 Q2184.85 170.634 2185.82 169.8 Q2186.79 168.967 2187.97 165.865 L2188.74 163.921 L2178.25 138.412 L2182.77 138.412 L2190.87 158.689 L2198.97 138.412 L2203.48 138.412 L2192.1 166.745 Z" fill="#000000" fill-rule="evenodd" fill-opacity="1" /><path clip-path="url(#clip150)" d="M2210.78 160.402 L2218.41 160.402 L2218.41 134.037 L2210.1 135.703 L2210.1 131.444 L2218.37 129.778 L2223.04 129.778 L2223.04 160.402 L2230.68 160.402 L2230.68 164.338 L2210.78 164.338 L2210.78 160.402 Z" fill="#000000" fill-rule="evenodd" fill-opacity="1" /><polyline clip-path="url(#clip150)" style="stroke:#e26f46; stroke-linecap:butt; stroke-linejoin:round; stroke-width:4; stroke-opacity:1; fill:none" points="
  2009.75,198.898 2154.18,198.898 
  "/>
<path clip-path="url(#clip150)" d="M2192.1 218.585 Q2190.29 223.215 2188.58 224.627 Q2186.86 226.039 2183.99 226.039 L2180.59 226.039 L2180.59 222.474 L2183.09 222.474 Q2184.85 222.474 2185.82 221.64 Q2186.79 220.807 2187.97 217.705 L2188.74 215.761 L2178.25 190.252 L2182.77 190.252 L2190.87 210.529 L2198.97 190.252 L2203.48 190.252 L2192.1 218.585 Z" fill="#000000" fill-rule="evenodd" fill-opacity="1" /><path clip-path="url(#clip150)" d="M2213.99 212.242 L2230.31 212.242 L2230.31 216.178 L2208.37 216.178 L2208.37 212.242 Q2211.03 209.488 2215.61 204.858 Q2220.22 200.205 2221.4 198.863 Q2223.65 196.34 2224.53 194.604 Q2225.43 192.844 2225.43 191.155 Q2225.43 188.4 2223.48 186.664 Q2221.56 184.928 2218.46 184.928 Q2216.26 184.928 2213.81 185.692 Q2211.38 186.455 2208.6 188.006 L2208.6 183.284 Q2211.42 182.15 2213.88 181.571 Q2216.33 180.993 2218.37 180.993 Q2223.74 180.993 2226.93 183.678 Q2230.13 186.363 2230.13 190.854 Q2230.13 192.983 2229.32 194.905 Q2228.53 196.803 2226.42 199.395 Q2225.84 200.067 2222.74 203.284 Q2219.64 206.479 2213.99 212.242 Z" fill="#000000" fill-rule="evenodd" fill-opacity="1" /><polyline clip-path="url(#clip150)" style="stroke:#3da44d; stroke-linecap:butt; stroke-linejoin:round; stroke-width:4; stroke-opacity:1; fill:none" points="
  2009.75,250.738 2154.18,250.738 
  "/>
<path clip-path="url(#clip150)" d="M2192.1 270.425 Q2190.29 275.055 2188.58 276.467 Q2186.86 277.879 2183.99 277.879 L2180.59 277.879 L2180.59 274.314 L2183.09 274.314 Q2184.85 274.314 2185.82 273.48 Q2186.79 272.647 2187.97 269.545 L2188.74 267.601 L2178.25 242.092 L2182.77 242.092 L2190.87 262.369 L2198.97 242.092 L2203.48 242.092 L2192.1 270.425 Z" fill="#000000" fill-rule="evenodd" fill-opacity="1" /><path clip-path="url(#clip150)" d="M2224.13 249.383 Q2227.49 250.101 2229.36 252.369 Q2231.26 254.638 2231.26 257.971 Q2231.26 263.087 2227.74 265.888 Q2224.22 268.689 2217.74 268.689 Q2215.57 268.689 2213.25 268.249 Q2210.96 267.832 2208.51 266.976 L2208.51 262.462 Q2210.45 263.596 2212.77 264.175 Q2215.08 264.754 2217.6 264.754 Q2222 264.754 2224.29 263.018 Q2226.61 261.281 2226.61 257.971 Q2226.61 254.916 2224.46 253.203 Q2222.33 251.467 2218.51 251.467 L2214.48 251.467 L2214.48 247.624 L2218.69 247.624 Q2222.14 247.624 2223.97 246.258 Q2225.8 244.87 2225.8 242.277 Q2225.8 239.615 2223.9 238.203 Q2222.03 236.768 2218.51 236.768 Q2216.59 236.768 2214.39 237.184 Q2212.19 237.601 2209.55 238.481 L2209.55 234.314 Q2212.21 233.573 2214.53 233.203 Q2216.86 232.833 2218.92 232.833 Q2224.25 232.833 2227.35 235.263 Q2230.45 237.67 2230.45 241.791 Q2230.45 244.661 2228.81 246.652 Q2227.16 248.62 2224.13 249.383 Z" fill="#000000" fill-rule="evenodd" fill-opacity="1" /><polyline clip-path="url(#clip150)" style="stroke:#c271d2; stroke-linecap:butt; stroke-linejoin:round; stroke-width:4; stroke-opacity:1; fill:none" points="
  2009.75,302.578 2154.18,302.578 
  "/>
<path clip-path="url(#clip150)" d="M2192.1 322.265 Q2190.29 326.895 2188.58 328.307 Q2186.86 329.719 2183.99 329.719 L2180.59 329.719 L2180.59 326.154 L2183.09 326.154 Q2184.85 326.154 2185.82 325.32 Q2186.79 324.487 2187.97 321.385 L2188.74 319.441 L2178.25 293.932 L2182.77 293.932 L2190.87 314.209 L2198.97 293.932 L2203.48 293.932 L2192.1 322.265 Z" fill="#000000" fill-rule="evenodd" fill-opacity="1" /><path clip-path="url(#clip150)" d="M2222.81 289.372 L2211.01 307.821 L2222.81 307.821 L2222.81 289.372 M2221.59 285.298 L2227.47 285.298 L2227.47 307.821 L2232.4 307.821 L2232.4 311.709 L2227.47 311.709 L2227.47 319.858 L2222.81 319.858 L2222.81 311.709 L2207.21 311.709 L2207.21 307.196 L2221.59 285.298 Z" fill="#000000" fill-rule="evenodd" fill-opacity="1" /><polyline clip-path="url(#clip150)" style="stroke:#ac8d18; stroke-linecap:butt; stroke-linejoin:round; stroke-width:4; stroke-opacity:1; fill:none" points="
  2009.75,354.418 2154.18,354.418 
  "/>
<path clip-path="url(#clip150)" d="M2192.1 374.105 Q2190.29 378.735 2188.58 380.147 Q2186.86 381.559 2183.99 381.559 L2180.59 381.559 L2180.59 377.994 L2183.09 377.994 Q2184.85 377.994 2185.82 377.16 Q2186.79 376.327 2187.97 373.225 L2188.74 371.281 L2178.25 345.772 L2182.77 345.772 L2190.87 366.049 L2198.97 345.772 L2203.48 345.772 L2192.1 374.105 Z" fill="#000000" fill-rule="evenodd" fill-opacity="1" /><path clip-path="url(#clip150)" d="M2210.01 337.138 L2228.37 337.138 L2228.37 341.073 L2214.29 341.073 L2214.29 349.545 Q2215.31 349.198 2216.33 349.036 Q2217.35 348.85 2218.37 348.85 Q2224.16 348.85 2227.53 352.022 Q2230.91 355.193 2230.91 360.61 Q2230.91 366.188 2227.44 369.29 Q2223.97 372.369 2217.65 372.369 Q2215.47 372.369 2213.21 371.998 Q2210.96 371.628 2208.55 370.887 L2208.55 366.188 Q2210.64 367.323 2212.86 367.878 Q2215.08 368.434 2217.56 368.434 Q2221.56 368.434 2223.9 366.327 Q2226.24 364.221 2226.24 360.61 Q2226.24 356.999 2223.9 354.892 Q2221.56 352.786 2217.56 352.786 Q2215.68 352.786 2213.81 353.202 Q2211.96 353.619 2210.01 354.499 L2210.01 337.138 Z" fill="#000000" fill-rule="evenodd" fill-opacity="1" /><polyline clip-path="url(#clip150)" style="stroke:#00a9ad; stroke-linecap:butt; stroke-linejoin:round; stroke-width:4; stroke-opacity:1; fill:none" points="
  2009.75,406.258 2154.18,406.258 
  "/>
<path clip-path="url(#clip150)" d="M2192.1 425.945 Q2190.29 430.575 2188.58 431.987 Q2186.86 433.399 2183.99 433.399 L2180.59 433.399 L2180.59 429.834 L2183.09 429.834 Q2184.85 429.834 2185.82 429 Q2186.79 428.167 2187.97 425.065 L2188.74 423.121 L2178.25 397.612 L2182.77 397.612 L2190.87 417.889 L2198.97 397.612 L2203.48 397.612 L2192.1 425.945 Z" fill="#000000" fill-rule="evenodd" fill-opacity="1" /><path clip-path="url(#clip150)" d="M2220.54 404.394 Q2217.4 404.394 2215.54 406.547 Q2213.72 408.7 2213.72 412.45 Q2213.72 416.176 2215.54 418.352 Q2217.4 420.505 2220.54 420.505 Q2223.69 420.505 2225.52 418.352 Q2227.37 416.176 2227.37 412.45 Q2227.37 408.7 2225.52 406.547 Q2223.69 404.394 2220.54 404.394 M2229.83 389.741 L2229.83 394.001 Q2228.07 393.167 2226.26 392.728 Q2224.48 392.288 2222.72 392.288 Q2218.09 392.288 2215.64 395.413 Q2213.21 398.538 2212.86 404.857 Q2214.22 402.843 2216.28 401.778 Q2218.34 400.69 2220.82 400.69 Q2226.03 400.69 2229.04 403.862 Q2232.07 407.01 2232.07 412.45 Q2232.07 417.774 2228.92 420.991 Q2225.78 424.209 2220.54 424.209 Q2214.55 424.209 2211.38 419.626 Q2208.21 415.019 2208.21 406.292 Q2208.21 398.098 2212.09 393.237 Q2215.98 388.353 2222.53 388.353 Q2224.29 388.353 2226.08 388.7 Q2227.88 389.047 2229.83 389.741 Z" fill="#000000" fill-rule="evenodd" fill-opacity="1" /><polyline clip-path="url(#clip150)" style="stroke:#ed5d92; stroke-linecap:butt; stroke-linejoin:round; stroke-width:4; stroke-opacity:1; fill:none" points="
  2009.75,458.098 2154.18,458.098 
  "/>
<path clip-path="url(#clip150)" d="M2192.1 477.785 Q2190.29 482.415 2188.58 483.827 Q2186.86 485.239 2183.99 485.239 L2180.59 485.239 L2180.59 481.674 L2183.09 481.674 Q2184.85 481.674 2185.82 480.84 Q2186.79 480.007 2187.97 476.905 L2188.74 474.961 L2178.25 449.452 L2182.77 449.452 L2190.87 469.729 L2198.97 449.452 L2203.48 449.452 L2192.1 477.785 Z" fill="#000000" fill-rule="evenodd" fill-opacity="1" /><path clip-path="url(#clip150)" d="M2208.78 440.818 L2231.01 440.818 L2231.01 442.808 L2218.46 475.378 L2213.58 475.378 L2225.38 444.753 L2208.78 444.753 L2208.78 440.818 Z" fill="#000000" fill-rule="evenodd" fill-opacity="1" /><polyline clip-path="url(#clip150)" style="stroke:#c68125; stroke-linecap:butt; stroke-linejoin:round; stroke-width:4; stroke-opacity:1; fill:none" points="
  2009.75,509.938 2154.18,509.938 
  "/>
<path clip-path="url(#clip150)" d="M2192.1 529.625 Q2190.29 534.255 2188.58 535.667 Q2186.86 537.079 2183.99 537.079 L2180.59 537.079 L2180.59 533.514 L2183.09 533.514 Q2184.85 533.514 2185.82 532.68 Q2186.79 531.847 2187.97 528.745 L2188.74 526.801 L2178.25 501.292 L2182.77 501.292 L2190.87 521.569 L2198.97 501.292 L2203.48 501.292 L2192.1 529.625 Z" fill="#000000" fill-rule="evenodd" fill-opacity="1" /><path clip-path="url(#clip150)" d="M2219.97 510.806 Q2216.63 510.806 2214.71 512.588 Q2212.81 514.37 2212.81 517.495 Q2212.81 520.62 2214.71 522.403 Q2216.63 524.185 2219.97 524.185 Q2223.3 524.185 2225.22 522.403 Q2227.14 520.597 2227.14 517.495 Q2227.14 514.37 2225.22 512.588 Q2223.32 510.806 2219.97 510.806 M2215.29 508.815 Q2212.28 508.074 2210.59 506.014 Q2208.92 503.954 2208.92 500.991 Q2208.92 496.847 2211.86 494.44 Q2214.83 492.033 2219.97 492.033 Q2225.13 492.033 2228.07 494.44 Q2231.01 496.847 2231.01 500.991 Q2231.01 503.954 2229.32 506.014 Q2227.65 508.074 2224.66 508.815 Q2228.04 509.602 2229.92 511.894 Q2231.82 514.185 2231.82 517.495 Q2231.82 522.519 2228.74 525.204 Q2225.68 527.889 2219.97 527.889 Q2214.25 527.889 2211.17 525.204 Q2208.11 522.519 2208.11 517.495 Q2208.11 514.185 2210.01 511.894 Q2211.91 509.602 2215.29 508.815 M2213.58 501.431 Q2213.58 504.116 2215.24 505.62 Q2216.93 507.125 2219.97 507.125 Q2222.97 507.125 2224.66 505.62 Q2226.38 504.116 2226.38 501.431 Q2226.38 498.745 2224.66 497.241 Q2222.97 495.736 2219.97 495.736 Q2216.93 495.736 2215.24 497.241 Q2213.58 498.745 2213.58 501.431 Z" fill="#000000" fill-rule="evenodd" fill-opacity="1" /><polyline clip-path="url(#clip150)" style="stroke:#00a98d; stroke-linecap:butt; stroke-linejoin:round; stroke-width:4; stroke-opacity:1; fill:none" points="
  2009.75,561.778 2154.18,561.778 
  "/>
<path clip-path="url(#clip150)" d="M2192.1 581.465 Q2190.29 586.095 2188.58 587.507 Q2186.86 588.919 2183.99 588.919 L2180.59 588.919 L2180.59 585.354 L2183.09 585.354 Q2184.85 585.354 2185.82 584.52 Q2186.79 583.687 2187.97 580.585 L2188.74 578.641 L2178.25 553.132 L2182.77 553.132 L2190.87 573.409 L2198.97 553.132 L2203.48 553.132 L2192.1 581.465 Z" fill="#000000" fill-rule="evenodd" fill-opacity="1" /><path clip-path="url(#clip150)" d="M2210.1 578.34 L2210.1 574.081 Q2211.86 574.914 2213.67 575.354 Q2215.47 575.794 2217.21 575.794 Q2221.84 575.794 2224.27 572.692 Q2226.72 569.567 2227.07 563.224 Q2225.73 565.215 2223.67 566.28 Q2221.61 567.345 2219.11 567.345 Q2213.92 567.345 2210.89 564.22 Q2207.88 561.072 2207.88 555.632 Q2207.88 550.308 2211.03 547.09 Q2214.18 543.873 2219.41 543.873 Q2225.41 543.873 2228.55 548.479 Q2231.72 553.062 2231.72 561.812 Q2231.72 569.984 2227.84 574.868 Q2223.97 579.729 2217.42 579.729 Q2215.66 579.729 2213.85 579.382 Q2212.05 579.034 2210.1 578.34 M2219.41 563.687 Q2222.56 563.687 2224.39 561.534 Q2226.24 559.382 2226.24 555.632 Q2226.24 551.905 2224.39 549.752 Q2222.56 547.576 2219.41 547.576 Q2216.26 547.576 2214.41 549.752 Q2212.58 551.905 2212.58 555.632 Q2212.58 559.382 2214.41 561.534 Q2216.26 563.687 2219.41 563.687 Z" fill="#000000" fill-rule="evenodd" fill-opacity="1" /></svg>
