<?xml version="1.0" encoding="utf-8"?>
<svg xmlns="http://www.w3.org/2000/svg" xmlns:xlink="http://www.w3.org/1999/xlink" width="600" height="400" viewBox="0 0 2400 1600">
<defs>
  <clipPath id="clip780">
    <rect x="0" y="0" width="2400" height="1600"/>
  </clipPath>
</defs>
<path clip-path="url(#clip780)" d="
M0 1600 L2400 1600 L2400 0 L0 0  Z
  " fill="#ffffff" fill-rule="evenodd" fill-opacity="1"/>
<defs>
  <clipPath id="clip781">
    <rect x="480" y="0" width="1681" height="1600"/>
  </clipPath>
</defs>
<path clip-path="url(#clip780)" d="
M251.842 1410.9 L2352.76 1410.9 L2352.76 47.2441 L251.842 47.2441  Z
  " fill="#ffffff" fill-rule="evenodd" fill-opacity="1"/>
<defs>
  <clipPath id="clip782">
    <rect x="251" y="47" width="2102" height="1365"/>
  </clipPath>
</defs>
<polyline clip-path="url(#clip782)" style="stroke:#000000; stroke-linecap:butt; stroke-linejoin:round; stroke-width:2; stroke-opacity:0.1; fill:none" points="
  1188.76,1410.9 1188.76,47.2441 
  "/>
<polyline clip-path="url(#clip782)" style="stroke:#000000; stroke-linecap:butt; stroke-linejoin:round; stroke-width:2; stroke-opacity:0.1; fill:none" points="
  2186.35,1410.9 2186.35,47.2441 
  "/>
<polyline clip-path="url(#clip780)" style="stroke:#000000; stroke-linecap:butt; stroke-linejoin:round; stroke-width:4; stroke-opacity:1; fill:none" points="
  251.842,1410.9 2352.76,1410.9 
  "/>
<polyline clip-path="url(#clip780)" style="stroke:#000000; stroke-linecap:butt; stroke-linejoin:round; stroke-width:4; stroke-opacity:1; fill:none" points="
  1188.76,1410.9 1188.76,1392 
  "/>
<polyline clip-path="url(#clip780)" style="stroke:#000000; stroke-linecap:butt; stroke-linejoin:round; stroke-width:4; stroke-opacity:1; fill:none" points="
  2186.35,1410.9 2186.35,1392 
  "/>
<path clip-path="url(#clip780)" d="M1154.37 1485.02 L1162.01 1485.02 L1162.01 1458.66 L1153.7 1460.32 L1153.7 1456.06 L1161.96 1454.4 L1166.64 1454.4 L1166.64 1485.02 L1174.27 1485.02 L1174.27 1488.96 L1154.37 1488.96 L1154.37 1485.02 Z" fill="#000000" fill-rule="evenodd" fill-opacity="1" /><path clip-path="url(#clip780)" d="M1193.72 1457.48 Q1190.11 1457.48 1188.28 1461.04 Q1186.47 1464.58 1186.47 1471.71 Q1186.47 1478.82 1188.28 1482.38 Q1190.11 1485.92 1193.72 1485.92 Q1197.35 1485.92 1199.16 1482.38 Q1200.99 1478.82 1200.99 1471.71 Q1200.99 1464.58 1199.16 1461.04 Q1197.35 1457.48 1193.72 1457.48 M1193.72 1453.77 Q1199.53 1453.77 1202.58 1458.38 Q1205.66 1462.96 1205.66 1471.71 Q1205.66 1480.44 1202.58 1485.04 Q1199.53 1489.63 1193.72 1489.63 Q1187.91 1489.63 1184.83 1485.04 Q1181.77 1480.44 1181.77 1471.71 Q1181.77 1462.96 1184.83 1458.38 Q1187.91 1453.77 1193.72 1453.77 Z" fill="#000000" fill-rule="evenodd" fill-opacity="1" /><path clip-path="url(#clip780)" d="M1206.85 1433.47 L1221.76 1433.47 L1221.76 1436.66 L1210.33 1436.66 L1210.33 1443.55 Q1211.15 1443.27 1211.98 1443.13 Q1212.81 1442.98 1213.64 1442.98 Q1218.34 1442.98 1221.09 1445.56 Q1223.83 1448.14 1223.83 1452.54 Q1223.83 1457.07 1221.01 1459.59 Q1218.19 1462.09 1213.05 1462.09 Q1211.29 1462.09 1209.44 1461.79 Q1207.62 1461.49 1205.66 1460.89 L1205.66 1457.07 Q1207.36 1457.99 1209.16 1458.44 Q1210.97 1458.89 1212.98 1458.89 Q1216.23 1458.89 1218.13 1457.18 Q1220.03 1455.47 1220.03 1452.54 Q1220.03 1449.6 1218.13 1447.89 Q1216.23 1446.18 1212.98 1446.18 Q1211.46 1446.18 1209.93 1446.52 Q1208.43 1446.86 1206.85 1447.57 L1206.85 1433.47 Z" fill="#000000" fill-rule="evenodd" fill-opacity="1" /><path clip-path="url(#clip780)" d="M2139.92 1485.02 L2147.56 1485.02 L2147.56 1458.66 L2139.25 1460.32 L2139.25 1456.06 L2147.51 1454.4 L2152.19 1454.4 L2152.19 1485.02 L2159.83 1485.02 L2159.83 1488.96 L2139.92 1488.96 L2139.92 1485.02 Z" fill="#000000" fill-rule="evenodd" fill-opacity="1" /><path clip-path="url(#clip780)" d="M2179.27 1457.48 Q2175.66 1457.48 2173.83 1461.04 Q2172.03 1464.58 2172.03 1471.71 Q2172.03 1478.82 2173.83 1482.38 Q2175.66 1485.92 2179.27 1485.92 Q2182.91 1485.92 2184.71 1482.38 Q2186.54 1478.82 2186.54 1471.71 Q2186.54 1464.58 2184.71 1461.04 Q2182.91 1457.48 2179.27 1457.48 M2179.27 1453.77 Q2185.08 1453.77 2188.14 1458.38 Q2191.22 1462.96 2191.22 1471.71 Q2191.22 1480.44 2188.14 1485.04 Q2185.08 1489.63 2179.27 1489.63 Q2173.46 1489.63 2170.38 1485.04 Q2167.33 1480.44 2167.33 1471.71 Q2167.33 1462.96 2170.38 1458.38 Q2173.46 1453.77 2179.27 1453.77 Z" fill="#000000" fill-rule="evenodd" fill-opacity="1" /><path clip-path="url(#clip780)" d="M2191.76 1458.35 L2197.97 1458.35 L2197.97 1436.93 L2191.22 1438.28 L2191.22 1434.82 L2197.93 1433.47 L2201.73 1433.47 L2201.73 1458.35 L2207.94 1458.35 L2207.94 1461.55 L2191.76 1461.55 L2191.76 1458.35 Z" fill="#000000" fill-rule="evenodd" fill-opacity="1" /><path clip-path="url(#clip780)" d="M2223.74 1435.97 Q2220.8 1435.97 2219.32 1438.86 Q2217.85 1441.74 2217.85 1447.53 Q2217.85 1453.31 2219.32 1456.2 Q2220.8 1459.08 2223.74 1459.08 Q2226.69 1459.08 2228.16 1456.2 Q2229.64 1453.31 2229.64 1447.53 Q2229.64 1441.74 2228.16 1438.86 Q2226.69 1435.97 2223.74 1435.97 M2223.74 1432.96 Q2228.46 1432.96 2230.94 1436.7 Q2233.44 1440.43 2233.44 1447.53 Q2233.44 1454.62 2230.94 1458.37 Q2228.46 1462.09 2223.74 1462.09 Q2219.02 1462.09 2216.51 1458.37 Q2214.03 1454.62 2214.03 1447.53 Q2214.03 1440.43 2216.51 1436.7 Q2219.02 1432.96 2223.74 1432.96 Z" fill="#000000" fill-rule="evenodd" fill-opacity="1" /><path clip-path="url(#clip780)" d="M1265.46 1539.91 L1265.46 1545.38 Q1262.97 1544.01 1260.46 1543.34 Q1257.98 1542.64 1255.43 1542.64 Q1249.73 1542.64 1246.58 1546.27 Q1243.43 1549.87 1243.43 1556.39 Q1243.43 1562.92 1246.58 1566.55 Q1249.73 1570.14 1255.43 1570.14 Q1257.98 1570.14 1260.46 1569.47 Q1262.97 1568.77 1265.46 1567.41 L1265.46 1572.82 Q1263.01 1573.96 1260.37 1574.54 Q1257.76 1575.11 1254.8 1575.11 Q1246.74 1575.11 1242 1570.05 Q1237.26 1564.99 1237.26 1556.39 Q1237.26 1547.67 1242.03 1542.68 Q1246.84 1537.68 1255.18 1537.68 Q1257.88 1537.68 1260.46 1538.25 Q1263.04 1538.79 1265.46 1539.91 Z" fill="#000000" fill-rule="evenodd" fill-opacity="1" /><path clip-path="url(#clip780)" d="M1289.46 1542.64 Q1284.75 1542.64 1282.01 1546.34 Q1279.27 1550 1279.27 1556.39 Q1279.27 1562.79 1281.98 1566.48 Q1284.71 1570.14 1289.46 1570.14 Q1294.14 1570.14 1296.87 1566.45 Q1299.61 1562.76 1299.61 1556.39 Q1299.61 1550.06 1296.87 1546.37 Q1294.14 1542.64 1289.46 1542.64 M1289.46 1537.68 Q1297.1 1537.68 1301.46 1542.64 Q1305.82 1547.61 1305.82 1556.39 Q1305.82 1565.15 1301.46 1570.14 Q1297.1 1575.11 1289.46 1575.11 Q1281.79 1575.11 1277.43 1570.14 Q1273.1 1565.15 1273.1 1556.39 Q1273.1 1547.61 1277.43 1542.64 Q1281.79 1537.68 1289.46 1537.68 Z" fill="#000000" fill-rule="evenodd" fill-opacity="1" /><path clip-path="url(#clip780)" d="M1338.25 1539.59 L1338.25 1545.13 Q1335.77 1543.85 1333.09 1543.22 Q1330.42 1542.58 1327.56 1542.58 Q1323.19 1542.58 1321 1543.92 Q1318.83 1545.25 1318.83 1547.93 Q1318.83 1549.96 1320.39 1551.14 Q1321.95 1552.29 1326.66 1553.34 L1328.67 1553.78 Q1334.91 1555.12 1337.52 1557.57 Q1340.16 1559.99 1340.16 1564.35 Q1340.16 1569.32 1336.21 1572.21 Q1332.3 1575.11 1325.42 1575.11 Q1322.56 1575.11 1319.44 1574.54 Q1316.35 1573.99 1312.91 1572.88 L1312.91 1566.83 Q1316.16 1568.52 1319.31 1569.38 Q1322.46 1570.21 1325.55 1570.21 Q1329.69 1570.21 1331.92 1568.81 Q1334.14 1567.37 1334.14 1564.8 Q1334.14 1562.41 1332.52 1561.14 Q1330.93 1559.86 1325.49 1558.68 L1323.45 1558.21 Q1318.01 1557.06 1315.59 1554.71 Q1313.17 1552.32 1313.17 1548.18 Q1313.17 1543.15 1316.73 1540.42 Q1320.3 1537.68 1326.85 1537.68 Q1330.1 1537.68 1332.97 1538.16 Q1335.83 1538.63 1338.25 1539.59 Z" fill="#000000" fill-rule="evenodd" fill-opacity="1" /><path clip-path="url(#clip780)" d="M1355.28 1528.42 L1355.28 1538.54 L1367.34 1538.54 L1367.34 1543.09 L1355.28 1543.09 L1355.28 1562.44 Q1355.28 1566.8 1356.46 1568.04 Q1357.66 1569.28 1361.33 1569.28 L1367.34 1569.28 L1367.34 1574.19 L1361.33 1574.19 Q1354.55 1574.19 1351.97 1571.67 Q1349.39 1569.12 1349.39 1562.44 L1349.39 1543.09 L1345.09 1543.09 L1345.09 1538.54 L1349.39 1538.54 L1349.39 1528.42 L1355.28 1528.42 Z" fill="#000000" fill-rule="evenodd" fill-opacity="1" /><polyline clip-path="url(#clip782)" style="stroke:#000000; stroke-linecap:butt; stroke-linejoin:round; stroke-width:2; stroke-opacity:0.1; fill:none" points="
  251.842,746.948 2352.76,746.948 
  "/>
<polyline clip-path="url(#clip782)" style="stroke:#000000; stroke-linecap:butt; stroke-linejoin:round; stroke-width:2; stroke-opacity:0.1; fill:none" points="
  251.842,57.1088 2352.76,57.1088 
  "/>
<polyline clip-path="url(#clip780)" style="stroke:#000000; stroke-linecap:butt; stroke-linejoin:round; stroke-width:4; stroke-opacity:1; fill:none" points="
  251.842,1410.9 251.842,47.2441 
  "/>
<polyline clip-path="url(#clip780)" style="stroke:#000000; stroke-linecap:butt; stroke-linejoin:round; stroke-width:4; stroke-opacity:1; fill:none" points="
  251.842,746.948 270.74,746.948 
  "/>
<polyline clip-path="url(#clip780)" style="stroke:#000000; stroke-linecap:butt; stroke-linejoin:round; stroke-width:4; stroke-opacity:1; fill:none" points="
  251.842,57.1088 270.74,57.1088 
  "/>
<path clip-path="url(#clip780)" d="M114.931 766.74 L122.57 766.74 L122.57 740.375 L114.26 742.041 L114.26 737.782 L122.524 736.115 L127.2 736.115 L127.2 766.74 L134.839 766.74 L134.839 770.675 L114.931 770.675 L114.931 766.74 Z" fill="#000000" fill-rule="evenodd" fill-opacity="1" /><path clip-path="url(#clip780)" d="M154.283 739.194 Q150.672 739.194 148.843 742.759 Q147.038 746.3 147.038 753.43 Q147.038 760.536 148.843 764.101 Q150.672 767.643 154.283 767.643 Q157.917 767.643 159.723 764.101 Q161.552 760.536 161.552 753.43 Q161.552 746.3 159.723 742.759 Q157.917 739.194 154.283 739.194 M154.283 735.49 Q160.093 735.49 163.149 740.097 Q166.227 744.68 166.227 753.43 Q166.227 762.157 163.149 766.763 Q160.093 771.347 154.283 771.347 Q148.473 771.347 145.394 766.763 Q142.339 762.157 142.339 753.43 Q142.339 744.68 145.394 740.097 Q148.473 735.49 154.283 735.49 Z" fill="#000000" fill-rule="evenodd" fill-opacity="1" /><path clip-path="url(#clip780)" d="M166.227 729.592 L190.339 729.592 L190.339 732.789 L166.227 732.789 L166.227 729.592 Z" fill="#000000" fill-rule="evenodd" fill-opacity="1" /><path clip-path="url(#clip780)" d="M210.05 728.125 Q212.777 728.708 214.3 730.551 Q215.842 732.394 215.842 735.102 Q215.842 739.259 212.984 741.535 Q210.125 743.81 204.859 743.81 Q203.091 743.81 201.21 743.453 Q199.348 743.114 197.354 742.419 L197.354 738.751 Q198.934 739.673 200.815 740.143 Q202.696 740.613 204.746 740.613 Q208.319 740.613 210.181 739.202 Q212.062 737.792 212.062 735.102 Q212.062 732.62 210.313 731.228 Q208.583 729.817 205.479 729.817 L202.207 729.817 L202.207 726.695 L205.63 726.695 Q208.432 726.695 209.918 725.586 Q211.404 724.457 211.404 722.351 Q211.404 720.188 209.861 719.04 Q208.338 717.874 205.479 717.874 Q203.918 717.874 202.132 718.213 Q200.345 718.551 198.201 719.266 L198.201 715.881 Q200.364 715.279 202.244 714.978 Q204.144 714.677 205.818 714.677 Q210.144 714.677 212.664 716.652 Q215.184 718.608 215.184 721.956 Q215.184 724.288 213.849 725.905 Q212.513 727.504 210.05 728.125 Z" fill="#000000" fill-rule="evenodd" fill-opacity="1" /><path clip-path="url(#clip780)" d="M145.137 76.9013 L152.776 76.9013 L152.776 50.5357 L144.465 52.2023 L144.465 47.9431 L152.729 46.2764 L157.405 46.2764 L157.405 76.9013 L165.044 76.9013 L165.044 80.8364 L145.137 80.8364 L145.137 76.9013 Z" fill="#000000" fill-rule="evenodd" fill-opacity="1" /><path clip-path="url(#clip780)" d="M184.488 49.3551 Q180.877 49.3551 179.049 52.9199 Q177.243 56.4616 177.243 63.5912 Q177.243 70.6976 179.049 74.2624 Q180.877 77.804 184.488 77.804 Q188.123 77.804 189.928 74.2624 Q191.757 70.6976 191.757 63.5912 Q191.757 56.4616 189.928 52.9199 Q188.123 49.3551 184.488 49.3551 M184.488 45.6514 Q190.299 45.6514 193.354 50.2579 Q196.433 54.8412 196.433 63.5912 Q196.433 72.318 193.354 76.9244 Q190.299 81.5077 184.488 81.5077 Q178.678 81.5077 175.6 76.9244 Q172.544 72.318 172.544 63.5912 Q172.544 54.8412 175.6 50.2579 Q178.678 45.6514 184.488 45.6514 Z" fill="#000000" fill-rule="evenodd" fill-opacity="1" /><path clip-path="url(#clip780)" d="M206.138 27.8475 Q203.204 27.8475 201.718 30.7439 Q200.251 33.6215 200.251 39.4142 Q200.251 45.1882 201.718 48.0846 Q203.204 50.9622 206.138 50.9622 Q209.09 50.9622 210.557 48.0846 Q212.043 45.1882 212.043 39.4142 Q212.043 33.6215 210.557 30.7439 Q209.09 27.8475 206.138 27.8475 M206.138 24.8382 Q210.858 24.8382 213.341 28.581 Q215.842 32.3049 215.842 39.4142 Q215.842 46.5048 213.341 50.2475 Q210.858 53.9715 206.138 53.9715 Q201.417 53.9715 198.915 50.2475 Q196.433 46.5048 196.433 39.4142 Q196.433 32.3049 198.915 28.581 Q201.417 24.8382 206.138 24.8382 Z" fill="#000000" fill-rule="evenodd" fill-opacity="1" /><path clip-path="url(#clip780)" d="M44.7161 773.137 L47.5806 773.137 L47.5806 800.064 Q53.6281 799.682 56.8109 796.435 Q59.9619 793.157 59.9619 787.332 Q59.9619 783.959 59.1344 780.808 Q58.3069 777.625 56.6518 774.506 L62.1899 774.506 Q63.5267 777.657 64.227 780.967 Q64.9272 784.277 64.9272 787.683 Q64.9272 796.213 59.9619 801.21 Q54.9967 806.175 46.5303 806.175 Q37.7774 806.175 32.6531 801.464 Q27.4968 796.722 27.4968 788.701 Q27.4968 781.508 32.1438 777.338 Q36.7589 773.137 44.7161 773.137 M42.9973 778.993 Q38.1912 779.057 35.3266 781.699 Q32.4621 784.309 32.4621 788.637 Q32.4621 793.539 35.2312 796.499 Q38.0002 799.427 43.0292 799.873 L42.9973 778.993 Z" fill="#000000" fill-rule="evenodd" fill-opacity="1" /><path clip-path="url(#clip780)" d="M33.8307 742.868 Q33.2578 743.855 33.0032 745.032 Q32.7167 746.178 32.7167 747.579 Q32.7167 752.544 35.9632 755.218 Q39.1779 757.859 45.2253 757.859 L64.0042 757.859 L64.0042 763.748 L28.3562 763.748 L28.3562 757.859 L33.8944 757.859 Q30.6479 756.013 29.0883 753.053 Q27.4968 750.093 27.4968 745.86 Q27.4968 745.255 27.5923 744.523 Q27.656 743.791 27.8151 742.9 L33.8307 742.868 Z" fill="#000000" fill-rule="evenodd" fill-opacity="1" /><path clip-path="url(#clip780)" d="M33.8307 717.214 Q33.2578 718.201 33.0032 719.379 Q32.7167 720.524 32.7167 721.925 Q32.7167 726.89 35.9632 729.564 Q39.1779 732.205 45.2253 732.205 L64.0042 732.205 L64.0042 738.094 L28.3562 738.094 L28.3562 732.205 L33.8944 732.205 Q30.6479 730.359 29.0883 727.399 Q27.4968 724.439 27.4968 720.206 Q27.4968 719.601 27.5923 718.869 Q27.656 718.137 27.8151 717.246 L33.8307 717.214 Z" fill="#000000" fill-rule="evenodd" fill-opacity="1" /><path clip-path="url(#clip780)" d="M32.4621 698.69 Q32.4621 703.401 36.1542 706.138 Q39.8145 708.875 46.212 708.875 Q52.6095 708.875 56.3017 706.17 Q59.9619 703.432 59.9619 698.69 Q59.9619 694.011 56.2698 691.274 Q52.5777 688.537 46.212 688.537 Q39.8781 688.537 36.186 691.274 Q32.4621 694.011 32.4621 698.69 M27.4968 698.69 Q27.4968 691.051 32.4621 686.691 Q37.4273 682.33 46.212 682.33 Q54.9649 682.33 59.9619 686.691 Q64.9272 691.051 64.9272 698.69 Q64.9272 706.361 59.9619 710.721 Q54.9649 715.05 46.212 715.05 Q37.4273 715.05 32.4621 710.721 Q27.4968 706.361 27.4968 698.69 Z" fill="#000000" fill-rule="evenodd" fill-opacity="1" /><path clip-path="url(#clip780)" d="M33.8307 651.966 Q33.2578 652.952 33.0032 654.13 Q32.7167 655.276 32.7167 656.676 Q32.7167 661.642 35.9632 664.315 Q39.1779 666.957 45.2253 666.957 L64.0042 666.957 L64.0042 672.845 L28.3562 672.845 L28.3562 666.957 L33.8944 666.957 Q30.6479 665.111 29.0883 662.151 Q27.4968 659.191 27.4968 654.958 Q27.4968 654.353 27.5923 653.621 Q27.656 652.889 27.8151 651.998 L33.8307 651.966 Z" fill="#000000" fill-rule="evenodd" fill-opacity="1" /><polyline clip-path="url(#clip782)" style="stroke:#009af9; stroke-linecap:butt; stroke-linejoin:round; stroke-width:12; stroke-opacity:1; fill:none" points="
  371.363,126.33 551.544,264.771 731.725,403.212 911.906,541.654 1092.09,680.095 1272.27,818.537 1452.45,956.978 1632.63,1095.42 1812.81,1233.86 1992.99,1372.3 
  
  "/>
<polyline clip-path="url(#clip782)" style="stroke:#e26f46; stroke-linecap:butt; stroke-linejoin:round; stroke-width:12; stroke-opacity:1; fill:none" points="
  311.302,85.838 431.423,173.266 551.544,253.009 712.39,371.41 892.571,509.852 1072.75,648.293 1252.93,786.735 1433.12,925.176 1613.3,1063.62 1793.48,1202.06 
  
  "/>
<polyline clip-path="url(#clip782)" style="stroke:#3da44d; stroke-linecap:butt; stroke-linejoin:round; stroke-width:12; stroke-opacity:1; fill:none" points="
  401.393,126.33 611.604,264.771 821.816,403.212 1032.03,541.654 1242.24,680.095 1452.45,818.537 1662.66,956.978 1872.87,1095.42 2083.08,1233.86 2293.3,1372.3 
  
  "/>
<path clip-path="url(#clip780)" d="
M1645.08 300.059 L2282.73 300.059 L2282.73 92.6992 L1645.08 92.6992  Z
  " fill="#ffffff" fill-rule="evenodd" fill-opacity="1"/>
<polyline clip-path="url(#clip780)" style="stroke:#000000; stroke-linecap:butt; stroke-linejoin:round; stroke-width:4; stroke-opacity:1; fill:none" points="
  1645.08,300.059 2282.73,300.059 2282.73,92.6992 1645.08,92.6992 1645.08,300.059 
  "/>
<polyline clip-path="url(#clip780)" style="stroke:#009af9; stroke-linecap:butt; stroke-linejoin:round; stroke-width:4; stroke-opacity:1; fill:none" points="
  1668.42,144.539 1808.48,144.539 
  "/>
<path clip-path="url(#clip780)" d="M1855.86 147.791 L1855.86 149.875 L1836.27 149.875 Q1836.55 154.273 1838.91 156.588 Q1841.3 158.879 1845.53 158.879 Q1847.99 158.879 1850.28 158.278 Q1852.59 157.676 1854.86 156.472 L1854.86 160.5 Q1852.57 161.472 1850.16 161.981 Q1847.75 162.49 1845.28 162.49 Q1839.07 162.49 1835.44 158.879 Q1831.83 155.268 1831.83 149.111 Q1831.83 142.745 1835.25 139.018 Q1838.7 135.268 1844.54 135.268 Q1849.77 135.268 1852.8 138.648 Q1855.86 142.004 1855.86 147.791 M1851.6 146.541 Q1851.55 143.046 1849.63 140.963 Q1847.73 138.879 1844.58 138.879 Q1841.02 138.879 1838.86 140.893 Q1836.74 142.907 1836.41 146.565 L1851.6 146.541 Z" fill="#000000" fill-rule="evenodd" fill-opacity="1" /><path clip-path="url(#clip780)" d="M1883.56 135.893 L1874.19 148.509 L1884.05 161.819 L1879.03 161.819 L1871.48 151.634 L1863.93 161.819 L1858.91 161.819 L1868.98 148.254 L1859.77 135.893 L1864.79 135.893 L1871.67 145.129 L1878.54 135.893 L1883.56 135.893 Z" fill="#000000" fill-rule="evenodd" fill-opacity="1" /><path clip-path="url(#clip780)" d="M1894.19 157.93 L1894.19 171.68 L1889.91 171.68 L1889.91 135.893 L1894.19 135.893 L1894.19 139.829 Q1895.53 137.514 1897.57 136.403 Q1899.63 135.268 1902.48 135.268 Q1907.2 135.268 1910.14 139.018 Q1913.1 142.768 1913.1 148.879 Q1913.1 154.991 1910.14 158.74 Q1907.2 162.49 1902.48 162.49 Q1899.63 162.49 1897.57 161.379 Q1895.53 160.245 1894.19 157.93 M1908.68 148.879 Q1908.68 144.18 1906.73 141.518 Q1904.81 138.833 1901.43 138.833 Q1898.05 138.833 1896.11 141.518 Q1894.19 144.18 1894.19 148.879 Q1894.19 153.578 1896.11 156.264 Q1898.05 158.926 1901.43 158.926 Q1904.81 158.926 1906.73 156.264 Q1908.68 153.578 1908.68 148.879 Z" fill="#000000" fill-rule="evenodd" fill-opacity="1" /><path clip-path="url(#clip780)" d="M1920.16 125.801 L1924.42 125.801 L1924.42 161.819 L1920.16 161.819 L1920.16 125.801 Z" fill="#000000" fill-rule="evenodd" fill-opacity="1" /><path clip-path="url(#clip780)" d="M1933.33 135.893 L1937.59 135.893 L1937.59 161.819 L1933.33 161.819 L1933.33 135.893 M1933.33 125.801 L1937.59 125.801 L1937.59 131.194 L1933.33 131.194 L1933.33 125.801 Z" fill="#000000" fill-rule="evenodd" fill-opacity="1" /><path clip-path="url(#clip780)" d="M1965.16 136.889 L1965.16 140.87 Q1963.35 139.875 1961.53 139.389 Q1959.72 138.879 1957.87 138.879 Q1953.73 138.879 1951.43 141.518 Q1949.14 144.134 1949.14 148.879 Q1949.14 153.625 1951.43 156.264 Q1953.73 158.879 1957.87 158.879 Q1959.72 158.879 1961.53 158.393 Q1963.35 157.884 1965.16 156.889 L1965.16 160.824 Q1963.38 161.657 1961.46 162.074 Q1959.56 162.49 1957.41 162.49 Q1951.55 162.49 1948.1 158.81 Q1944.65 155.129 1944.65 148.879 Q1944.65 142.537 1948.12 138.903 Q1951.62 135.268 1957.68 135.268 Q1959.65 135.268 1961.53 135.685 Q1963.4 136.079 1965.16 136.889 Z" fill="#000000" fill-rule="evenodd" fill-opacity="1" /><path clip-path="url(#clip780)" d="M1972.57 135.893 L1976.83 135.893 L1976.83 161.819 L1972.57 161.819 L1972.57 135.893 M1972.57 125.801 L1976.83 125.801 L1976.83 131.194 L1972.57 131.194 L1972.57 125.801 Z" fill="#000000" fill-rule="evenodd" fill-opacity="1" /><path clip-path="url(#clip780)" d="M1989.95 128.532 L1989.95 135.893 L1998.72 135.893 L1998.72 139.204 L1989.95 139.204 L1989.95 153.278 Q1989.95 156.449 1990.81 157.352 Q1991.69 158.254 1994.35 158.254 L1998.72 158.254 L1998.72 161.819 L1994.35 161.819 Q1989.42 161.819 1987.54 159.99 Q1985.67 158.139 1985.67 153.278 L1985.67 139.204 L1982.54 139.204 L1982.54 135.893 L1985.67 135.893 L1985.67 128.532 L1989.95 128.532 Z" fill="#000000" fill-rule="evenodd" fill-opacity="1" /><path clip-path="url(#clip780)" d="M2024.03 169.69 L2024.03 173 L1999.4 173 L1999.4 169.69 L2024.03 169.69 Z" fill="#000000" fill-rule="evenodd" fill-opacity="1" /><path clip-path="url(#clip780)" d="M2039.81 148.787 Q2034.65 148.787 2032.66 149.967 Q2030.67 151.148 2030.67 153.995 Q2030.67 156.264 2032.15 157.606 Q2033.66 158.926 2036.22 158.926 Q2039.77 158.926 2041.9 156.426 Q2044.05 153.903 2044.05 149.736 L2044.05 148.787 L2039.81 148.787 M2048.31 147.028 L2048.31 161.819 L2044.05 161.819 L2044.05 157.884 Q2042.59 160.245 2040.41 161.379 Q2038.24 162.49 2035.09 162.49 Q2031.11 162.49 2028.75 160.268 Q2026.41 158.023 2026.41 154.273 Q2026.41 149.898 2029.33 147.676 Q2032.27 145.454 2038.08 145.454 L2044.05 145.454 L2044.05 145.037 Q2044.05 142.097 2042.1 140.5 Q2040.18 138.879 2036.69 138.879 Q2034.47 138.879 2032.36 139.412 Q2030.25 139.944 2028.31 141.009 L2028.31 137.074 Q2030.65 136.171 2032.85 135.731 Q2035.04 135.268 2037.13 135.268 Q2042.75 135.268 2045.53 138.185 Q2048.31 141.102 2048.31 147.028 Z" fill="#000000" fill-rule="evenodd" fill-opacity="1" /><path clip-path="url(#clip780)" d="M2075.74 136.889 L2075.74 140.87 Q2073.93 139.875 2072.1 139.389 Q2070.3 138.879 2068.45 138.879 Q2064.3 138.879 2062.01 141.518 Q2059.72 144.134 2059.72 148.879 Q2059.72 153.625 2062.01 156.264 Q2064.3 158.879 2068.45 158.879 Q2070.3 158.879 2072.1 158.393 Q2073.93 157.884 2075.74 156.889 L2075.74 160.824 Q2073.96 161.657 2072.03 162.074 Q2070.14 162.49 2067.98 162.49 Q2062.13 162.49 2058.68 158.81 Q2055.23 155.129 2055.23 148.879 Q2055.23 142.537 2058.7 138.903 Q2062.2 135.268 2068.26 135.268 Q2070.23 135.268 2072.1 135.685 Q2073.98 136.079 2075.74 136.889 Z" fill="#000000" fill-rule="evenodd" fill-opacity="1" /><path clip-path="url(#clip780)" d="M2101.8 136.889 L2101.8 140.87 Q2100 139.875 2098.17 139.389 Q2096.36 138.879 2094.51 138.879 Q2090.37 138.879 2088.08 141.518 Q2085.78 144.134 2085.78 148.879 Q2085.78 153.625 2088.08 156.264 Q2090.37 158.879 2094.51 158.879 Q2096.36 158.879 2098.17 158.393 Q2100 157.884 2101.8 156.889 L2101.8 160.824 Q2100.02 161.657 2098.1 162.074 Q2096.2 162.49 2094.05 162.49 Q2088.19 162.49 2084.74 158.81 Q2081.29 155.129 2081.29 148.879 Q2081.29 142.537 2084.77 138.903 Q2088.26 135.268 2094.33 135.268 Q2096.29 135.268 2098.17 135.685 Q2100.04 136.079 2101.8 136.889 Z" fill="#000000" fill-rule="evenodd" fill-opacity="1" /><path clip-path="url(#clip780)" d="M2108.77 151.588 L2108.77 135.893 L2113.03 135.893 L2113.03 151.426 Q2113.03 155.106 2114.47 156.958 Q2115.9 158.787 2118.77 158.787 Q2122.22 158.787 2124.21 156.588 Q2126.22 154.389 2126.22 150.592 L2126.22 135.893 L2130.48 135.893 L2130.48 161.819 L2126.22 161.819 L2126.22 157.838 Q2124.67 160.199 2122.61 161.356 Q2120.58 162.49 2117.87 162.49 Q2113.4 162.49 2111.09 159.713 Q2108.77 156.935 2108.77 151.588 M2119.49 135.268 L2119.49 135.268 Z" fill="#000000" fill-rule="evenodd" fill-opacity="1" /><path clip-path="url(#clip780)" d="M2154.28 139.875 Q2153.56 139.458 2152.71 139.273 Q2151.87 139.065 2150.85 139.065 Q2147.24 139.065 2145.3 141.426 Q2143.38 143.764 2143.38 148.162 L2143.38 161.819 L2139.09 161.819 L2139.09 135.893 L2143.38 135.893 L2143.38 139.921 Q2144.72 137.56 2146.87 136.426 Q2149.03 135.268 2152.1 135.268 Q2152.54 135.268 2153.08 135.338 Q2153.61 135.384 2154.26 135.5 L2154.28 139.875 Z" fill="#000000" fill-rule="evenodd" fill-opacity="1" /><path clip-path="url(#clip780)" d="M2170.53 148.787 Q2165.37 148.787 2163.38 149.967 Q2161.39 151.148 2161.39 153.995 Q2161.39 156.264 2162.87 157.606 Q2164.37 158.926 2166.94 158.926 Q2170.48 158.926 2172.61 156.426 Q2174.77 153.903 2174.77 149.736 L2174.77 148.787 L2170.53 148.787 M2179.02 147.028 L2179.02 161.819 L2174.77 161.819 L2174.77 157.884 Q2173.31 160.245 2171.13 161.379 Q2168.96 162.49 2165.81 162.49 Q2161.83 162.49 2159.46 160.268 Q2157.13 158.023 2157.13 154.273 Q2157.13 149.898 2160.04 147.676 Q2162.98 145.454 2168.79 145.454 L2174.77 145.454 L2174.77 145.037 Q2174.77 142.097 2172.82 140.5 Q2170.9 138.879 2167.4 138.879 Q2165.18 138.879 2163.08 139.412 Q2160.97 139.944 2159.03 141.009 L2159.03 137.074 Q2161.36 136.171 2163.56 135.731 Q2165.76 135.268 2167.84 135.268 Q2173.47 135.268 2176.25 138.185 Q2179.02 141.102 2179.02 147.028 Z" fill="#000000" fill-rule="evenodd" fill-opacity="1" /><path clip-path="url(#clip780)" d="M2206.46 136.889 L2206.46 140.87 Q2204.65 139.875 2202.82 139.389 Q2201.02 138.879 2199.16 138.879 Q2195.02 138.879 2192.73 141.518 Q2190.44 144.134 2190.44 148.879 Q2190.44 153.625 2192.73 156.264 Q2195.02 158.879 2199.16 158.879 Q2201.02 158.879 2202.82 158.393 Q2204.65 157.884 2206.46 156.889 L2206.46 160.824 Q2204.67 161.657 2202.75 162.074 Q2200.85 162.49 2198.7 162.49 Q2192.84 162.49 2189.4 158.81 Q2185.95 155.129 2185.95 148.879 Q2185.95 142.537 2189.42 138.903 Q2192.91 135.268 2198.98 135.268 Q2200.95 135.268 2202.82 135.685 Q2204.7 136.079 2206.46 136.889 Z" fill="#000000" fill-rule="evenodd" fill-opacity="1" /><path clip-path="url(#clip780)" d="M2224.65 164.227 Q2222.84 168.856 2221.13 170.268 Q2219.42 171.68 2216.55 171.68 L2213.15 171.68 L2213.15 168.115 L2215.65 168.115 Q2217.4 168.115 2218.38 167.282 Q2219.35 166.449 2220.53 163.347 L2221.29 161.403 L2210.81 135.893 L2215.32 135.893 L2223.42 156.171 L2231.52 135.893 L2236.04 135.893 L2224.65 164.227 Z" fill="#000000" fill-rule="evenodd" fill-opacity="1" /><polyline clip-path="url(#clip780)" style="stroke:#e26f46; stroke-linecap:butt; stroke-linejoin:round; stroke-width:4; stroke-opacity:1; fill:none" points="
  1668.42,196.379 1808.48,196.379 
  "/>
<path clip-path="url(#clip780)" d="M1855.86 199.631 L1855.86 201.715 L1836.27 201.715 Q1836.55 206.113 1838.91 208.428 Q1841.3 210.719 1845.53 210.719 Q1847.99 210.719 1850.28 210.118 Q1852.59 209.516 1854.86 208.312 L1854.86 212.34 Q1852.57 213.312 1850.16 213.821 Q1847.75 214.33 1845.28 214.33 Q1839.07 214.33 1835.44 210.719 Q1831.83 207.108 1831.83 200.951 Q1831.83 194.585 1835.25 190.858 Q1838.7 187.108 1844.54 187.108 Q1849.77 187.108 1852.8 190.488 Q1855.86 193.844 1855.86 199.631 M1851.6 198.381 Q1851.55 194.886 1849.63 192.803 Q1847.73 190.719 1844.58 190.719 Q1841.02 190.719 1838.86 192.733 Q1836.74 194.747 1836.41 198.405 L1851.6 198.381 Z" fill="#000000" fill-rule="evenodd" fill-opacity="1" /><path clip-path="url(#clip780)" d="M1883.56 187.733 L1874.19 200.349 L1884.05 213.659 L1879.03 213.659 L1871.48 203.474 L1863.93 213.659 L1858.91 213.659 L1868.98 200.094 L1859.77 187.733 L1864.79 187.733 L1871.67 196.969 L1878.54 187.733 L1883.56 187.733 Z" fill="#000000" fill-rule="evenodd" fill-opacity="1" /><path clip-path="url(#clip780)" d="M1894.19 209.77 L1894.19 223.52 L1889.91 223.52 L1889.91 187.733 L1894.19 187.733 L1894.19 191.669 Q1895.53 189.354 1897.57 188.243 Q1899.63 187.108 1902.48 187.108 Q1907.2 187.108 1910.14 190.858 Q1913.1 194.608 1913.1 200.719 Q1913.1 206.831 1910.14 210.58 Q1907.2 214.33 1902.48 214.33 Q1899.63 214.33 1897.57 213.219 Q1895.53 212.085 1894.19 209.77 M1908.68 200.719 Q1908.68 196.02 1906.73 193.358 Q1904.81 190.673 1901.43 190.673 Q1898.05 190.673 1896.11 193.358 Q1894.19 196.02 1894.19 200.719 Q1894.19 205.418 1896.11 208.104 Q1898.05 210.766 1901.43 210.766 Q1904.81 210.766 1906.73 208.104 Q1908.68 205.418 1908.68 200.719 Z" fill="#000000" fill-rule="evenodd" fill-opacity="1" /><path clip-path="url(#clip780)" d="M1920.16 177.641 L1924.42 177.641 L1924.42 213.659 L1920.16 213.659 L1920.16 177.641 Z" fill="#000000" fill-rule="evenodd" fill-opacity="1" /><path clip-path="url(#clip780)" d="M1933.33 187.733 L1937.59 187.733 L1937.59 213.659 L1933.33 213.659 L1933.33 187.733 M1933.33 177.641 L1937.59 177.641 L1937.59 183.034 L1933.33 183.034 L1933.33 177.641 Z" fill="#000000" fill-rule="evenodd" fill-opacity="1" /><path clip-path="url(#clip780)" d="M1965.16 188.729 L1965.16 192.71 Q1963.35 191.715 1961.53 191.229 Q1959.72 190.719 1957.87 190.719 Q1953.73 190.719 1951.43 193.358 Q1949.14 195.974 1949.14 200.719 Q1949.14 205.465 1951.43 208.104 Q1953.73 210.719 1957.87 210.719 Q1959.72 210.719 1961.53 210.233 Q1963.35 209.724 1965.16 208.729 L1965.16 212.664 Q1963.38 213.497 1961.46 213.914 Q1959.56 214.33 1957.41 214.33 Q1951.55 214.33 1948.1 210.65 Q1944.65 206.969 1944.65 200.719 Q1944.65 194.377 1948.12 190.743 Q1951.62 187.108 1957.68 187.108 Q1959.65 187.108 1961.53 187.525 Q1963.4 187.919 1965.16 188.729 Z" fill="#000000" fill-rule="evenodd" fill-opacity="1" /><path clip-path="url(#clip780)" d="M1972.57 187.733 L1976.83 187.733 L1976.83 213.659 L1972.57 213.659 L1972.57 187.733 M1972.57 177.641 L1976.83 177.641 L1976.83 183.034 L1972.57 183.034 L1972.57 177.641 Z" fill="#000000" fill-rule="evenodd" fill-opacity="1" /><path clip-path="url(#clip780)" d="M1989.95 180.372 L1989.95 187.733 L1998.72 187.733 L1998.72 191.044 L1989.95 191.044 L1989.95 205.118 Q1989.95 208.289 1990.81 209.192 Q1991.69 210.094 1994.35 210.094 L1998.72 210.094 L1998.72 213.659 L1994.35 213.659 Q1989.42 213.659 1987.54 211.83 Q1985.67 209.979 1985.67 205.118 L1985.67 191.044 L1982.54 191.044 L1982.54 187.733 L1985.67 187.733 L1985.67 180.372 L1989.95 180.372 Z" fill="#000000" fill-rule="evenodd" fill-opacity="1" /><path clip-path="url(#clip780)" d="M2024.03 221.53 L2024.03 224.84 L1999.4 224.84 L1999.4 221.53 L2024.03 221.53 Z" fill="#000000" fill-rule="evenodd" fill-opacity="1" /><path clip-path="url(#clip780)" d="M2044.56 188.497 L2044.56 192.525 Q2042.75 191.599 2040.81 191.136 Q2038.86 190.673 2036.78 190.673 Q2033.61 190.673 2032.01 191.645 Q2030.44 192.618 2030.44 194.562 Q2030.44 196.044 2031.57 196.9 Q2032.71 197.733 2036.13 198.497 L2037.59 198.821 Q2042.13 199.794 2044.03 201.576 Q2045.95 203.335 2045.95 206.506 Q2045.95 210.118 2043.08 212.224 Q2040.23 214.33 2035.23 214.33 Q2033.15 214.33 2030.88 213.914 Q2028.63 213.52 2026.13 212.71 L2026.13 208.312 Q2028.49 209.539 2030.78 210.164 Q2033.08 210.766 2035.32 210.766 Q2038.33 210.766 2039.95 209.747 Q2041.57 208.706 2041.57 206.831 Q2041.57 205.094 2040.39 204.168 Q2039.23 203.243 2035.28 202.386 L2033.79 202.039 Q2029.84 201.206 2028.08 199.493 Q2026.32 197.756 2026.32 194.747 Q2026.32 191.09 2028.91 189.099 Q2031.5 187.108 2036.27 187.108 Q2038.63 187.108 2040.72 187.456 Q2042.8 187.803 2044.56 188.497 Z" fill="#000000" fill-rule="evenodd" fill-opacity="1" /><path clip-path="url(#clip780)" d="M2056.94 180.372 L2056.94 187.733 L2065.72 187.733 L2065.72 191.044 L2056.94 191.044 L2056.94 205.118 Q2056.94 208.289 2057.8 209.192 Q2058.68 210.094 2061.34 210.094 L2065.72 210.094 L2065.72 213.659 L2061.34 213.659 Q2056.41 213.659 2054.53 211.83 Q2052.66 209.979 2052.66 205.118 L2052.66 191.044 L2049.53 191.044 L2049.53 187.733 L2052.66 187.733 L2052.66 180.372 L2056.94 180.372 Z" fill="#000000" fill-rule="evenodd" fill-opacity="1" /><path clip-path="url(#clip780)" d="M2083.1 200.627 Q2077.94 200.627 2075.95 201.807 Q2073.96 202.988 2073.96 205.835 Q2073.96 208.104 2075.44 209.446 Q2076.94 210.766 2079.51 210.766 Q2083.05 210.766 2085.18 208.266 Q2087.34 205.743 2087.34 201.576 L2087.34 200.627 L2083.1 200.627 M2091.59 198.868 L2091.59 213.659 L2087.34 213.659 L2087.34 209.724 Q2085.88 212.085 2083.7 213.219 Q2081.53 214.33 2078.38 214.33 Q2074.4 214.33 2072.03 212.108 Q2069.7 209.863 2069.7 206.113 Q2069.7 201.738 2072.61 199.516 Q2075.55 197.294 2081.36 197.294 L2087.34 197.294 L2087.34 196.877 Q2087.34 193.937 2085.39 192.34 Q2083.47 190.719 2079.97 190.719 Q2077.75 190.719 2075.65 191.252 Q2073.54 191.784 2071.59 192.849 L2071.59 188.914 Q2073.93 188.011 2076.13 187.571 Q2078.33 187.108 2080.41 187.108 Q2086.04 187.108 2088.82 190.025 Q2091.59 192.942 2091.59 198.868 Z" fill="#000000" fill-rule="evenodd" fill-opacity="1" /><path clip-path="url(#clip780)" d="M2118.98 200.719 Q2118.98 196.02 2117.03 193.358 Q2115.11 190.673 2111.73 190.673 Q2108.35 190.673 2106.41 193.358 Q2104.49 196.02 2104.49 200.719 Q2104.49 205.418 2106.41 208.104 Q2108.35 210.766 2111.73 210.766 Q2115.11 210.766 2117.03 208.104 Q2118.98 205.418 2118.98 200.719 M2104.49 191.669 Q2105.83 189.354 2107.87 188.243 Q2109.93 187.108 2112.78 187.108 Q2117.5 187.108 2120.44 190.858 Q2123.4 194.608 2123.4 200.719 Q2123.4 206.831 2120.44 210.58 Q2117.5 214.33 2112.78 214.33 Q2109.93 214.33 2107.87 213.219 Q2105.83 212.085 2104.49 209.77 L2104.49 213.659 L2100.21 213.659 L2100.21 177.641 L2104.49 177.641 L2104.49 191.669 Z" fill="#000000" fill-rule="evenodd" fill-opacity="1" /><path clip-path="url(#clip780)" d="M2130.46 177.641 L2134.72 177.641 L2134.72 213.659 L2130.46 213.659 L2130.46 177.641 Z" fill="#000000" fill-rule="evenodd" fill-opacity="1" /><path clip-path="url(#clip780)" d="M2165.81 199.631 L2165.81 201.715 L2146.22 201.715 Q2146.5 206.113 2148.86 208.428 Q2151.25 210.719 2155.48 210.719 Q2157.94 210.719 2160.23 210.118 Q2162.54 209.516 2164.81 208.312 L2164.81 212.34 Q2162.52 213.312 2160.11 213.821 Q2157.71 214.33 2155.23 214.33 Q2149.03 214.33 2145.39 210.719 Q2141.78 207.108 2141.78 200.951 Q2141.78 194.585 2145.21 190.858 Q2148.65 187.108 2154.49 187.108 Q2159.72 187.108 2162.75 190.488 Q2165.81 193.844 2165.81 199.631 M2161.55 198.381 Q2161.5 194.886 2159.58 192.803 Q2157.68 190.719 2154.53 190.719 Q2150.97 190.719 2148.82 192.733 Q2146.69 194.747 2146.36 198.405 L2161.55 198.381 Z" fill="#000000" fill-rule="evenodd" fill-opacity="1" /><polyline clip-path="url(#clip780)" style="stroke:#3da44d; stroke-linecap:butt; stroke-linejoin:round; stroke-width:4; stroke-opacity:1; fill:none" points="
  1668.42,248.219 1808.48,248.219 
  "/>
<path clip-path="url(#clip780)" d="M1831.83 239.573 L1836.09 239.573 L1836.09 265.499 L1831.83 265.499 L1831.83 239.573 M1831.83 229.481 L1836.09 229.481 L1836.09 234.874 L1831.83 234.874 L1831.83 229.481 Z" fill="#000000" fill-rule="evenodd" fill-opacity="1" /><path clip-path="url(#clip780)" d="M1865.18 244.55 Q1866.78 241.68 1869 240.314 Q1871.23 238.948 1874.23 238.948 Q1878.29 238.948 1880.48 241.796 Q1882.68 244.62 1882.68 249.851 L1882.68 265.499 L1878.4 265.499 L1878.4 249.99 Q1878.4 246.263 1877.08 244.458 Q1875.76 242.652 1873.05 242.652 Q1869.74 242.652 1867.82 244.851 Q1865.9 247.05 1865.9 250.846 L1865.9 265.499 L1861.62 265.499 L1861.62 249.99 Q1861.62 246.24 1860.3 244.458 Q1858.98 242.652 1856.23 242.652 Q1852.96 242.652 1851.04 244.874 Q1849.12 247.073 1849.12 250.846 L1849.12 265.499 L1844.84 265.499 L1844.84 239.573 L1849.12 239.573 L1849.12 243.601 Q1850.58 241.217 1852.61 240.083 Q1854.65 238.948 1857.45 238.948 Q1860.28 238.948 1862.24 240.384 Q1864.23 241.819 1865.18 244.55 Z" fill="#000000" fill-rule="evenodd" fill-opacity="1" /><path clip-path="url(#clip780)" d="M1895.3 261.61 L1895.3 275.36 L1891.02 275.36 L1891.02 239.573 L1895.3 239.573 L1895.3 243.509 Q1896.64 241.194 1898.68 240.083 Q1900.74 238.948 1903.59 238.948 Q1908.31 238.948 1911.25 242.698 Q1914.21 246.448 1914.21 252.559 Q1914.21 258.671 1911.25 262.42 Q1908.31 266.17 1903.59 266.17 Q1900.74 266.17 1898.68 265.059 Q1896.64 263.925 1895.3 261.61 M1909.79 252.559 Q1909.79 247.86 1907.85 245.198 Q1905.92 242.513 1902.54 242.513 Q1899.17 242.513 1897.22 245.198 Q1895.3 247.86 1895.3 252.559 Q1895.3 257.258 1897.22 259.944 Q1899.17 262.606 1902.54 262.606 Q1905.92 262.606 1907.85 259.944 Q1909.79 257.258 1909.79 252.559 Z" fill="#000000" fill-rule="evenodd" fill-opacity="1" /><path clip-path="url(#clip780)" d="M1921.27 229.481 L1925.53 229.481 L1925.53 265.499 L1921.27 265.499 L1921.27 229.481 Z" fill="#000000" fill-rule="evenodd" fill-opacity="1" /><path clip-path="url(#clip780)" d="M1934.44 239.573 L1938.7 239.573 L1938.7 265.499 L1934.44 265.499 L1934.44 239.573 M1934.44 229.481 L1938.7 229.481 L1938.7 234.874 L1934.44 234.874 L1934.44 229.481 Z" fill="#000000" fill-rule="evenodd" fill-opacity="1" /><path clip-path="url(#clip780)" d="M1966.27 240.569 L1966.27 244.55 Q1964.47 243.555 1962.64 243.069 Q1960.83 242.559 1958.98 242.559 Q1954.84 242.559 1952.54 245.198 Q1950.25 247.814 1950.25 252.559 Q1950.25 257.305 1952.54 259.944 Q1954.84 262.559 1958.98 262.559 Q1960.83 262.559 1962.64 262.073 Q1964.47 261.564 1966.27 260.569 L1966.27 264.504 Q1964.49 265.337 1962.57 265.754 Q1960.67 266.17 1958.52 266.17 Q1952.66 266.17 1949.21 262.49 Q1945.76 258.809 1945.76 252.559 Q1945.76 246.217 1949.23 242.583 Q1952.73 238.948 1958.79 238.948 Q1960.76 238.948 1962.64 239.365 Q1964.51 239.759 1966.27 240.569 Z" fill="#000000" fill-rule="evenodd" fill-opacity="1" /><path clip-path="url(#clip780)" d="M1973.68 239.573 L1977.94 239.573 L1977.94 265.499 L1973.68 265.499 L1973.68 239.573 M1973.68 229.481 L1977.94 229.481 L1977.94 234.874 L1973.68 234.874 L1973.68 229.481 Z" fill="#000000" fill-rule="evenodd" fill-opacity="1" /><path clip-path="url(#clip780)" d="M1991.06 232.212 L1991.06 239.573 L1999.84 239.573 L1999.84 242.884 L1991.06 242.884 L1991.06 256.958 Q1991.06 260.129 1991.92 261.032 Q1992.8 261.934 1995.46 261.934 L1999.84 261.934 L1999.84 265.499 L1995.46 265.499 Q1990.53 265.499 1988.66 263.67 Q1986.78 261.819 1986.78 256.958 L1986.78 242.884 L1983.66 242.884 L1983.66 239.573 L1986.78 239.573 L1986.78 232.212 L1991.06 232.212 Z" fill="#000000" fill-rule="evenodd" fill-opacity="1" /></svg>
