<?xml version="1.0" encoding="utf-8"?>
<svg xmlns="http://www.w3.org/2000/svg" xmlns:xlink="http://www.w3.org/1999/xlink" width="600" height="400" viewBox="0 0 2400 1600">
<defs>
  <clipPath id="clip900">
    <rect x="0" y="0" width="2400" height="1600"/>
  </clipPath>
</defs>
<path clip-path="url(#clip900)" d="
M0 1600 L2400 1600 L2400 0 L0 0  Z
  " fill="#ffffff" fill-rule="evenodd" fill-opacity="1"/>
<defs>
  <clipPath id="clip901">
    <rect x="480" y="0" width="1681" height="1600"/>
  </clipPath>
</defs>
<path clip-path="url(#clip900)" d="
M112.177 1486.45 L2352.76 1486.45 L2352.76 47.2441 L112.177 47.2441  Z
  " fill="#ffffff" fill-rule="evenodd" fill-opacity="1"/>
<defs>
  <clipPath id="clip902">
    <rect x="112" y="47" width="2242" height="1440"/>
  </clipPath>
</defs>
<polyline clip-path="url(#clip902)" style="stroke:#000000; stroke-linecap:butt; stroke-linejoin:round; stroke-width:2; stroke-opacity:0.1; fill:none" points="
  175.59,1486.45 175.59,47.2441 
  "/>
<polyline clip-path="url(#clip902)" style="stroke:#000000; stroke-linecap:butt; stroke-linejoin:round; stroke-width:2; stroke-opacity:0.1; fill:none" points="
  527.882,1486.45 527.882,47.2441 
  "/>
<polyline clip-path="url(#clip902)" style="stroke:#000000; stroke-linecap:butt; stroke-linejoin:round; stroke-width:2; stroke-opacity:0.1; fill:none" points="
  880.174,1486.45 880.174,47.2441 
  "/>
<polyline clip-path="url(#clip902)" style="stroke:#000000; stroke-linecap:butt; stroke-linejoin:round; stroke-width:2; stroke-opacity:0.1; fill:none" points="
  1232.47,1486.45 1232.47,47.2441 
  "/>
<polyline clip-path="url(#clip902)" style="stroke:#000000; stroke-linecap:butt; stroke-linejoin:round; stroke-width:2; stroke-opacity:0.1; fill:none" points="
  1584.76,1486.45 1584.76,47.2441 
  "/>
<polyline clip-path="url(#clip902)" style="stroke:#000000; stroke-linecap:butt; stroke-linejoin:round; stroke-width:2; stroke-opacity:0.1; fill:none" points="
  1937.05,1486.45 1937.05,47.2441 
  "/>
<polyline clip-path="url(#clip902)" style="stroke:#000000; stroke-linecap:butt; stroke-linejoin:round; stroke-width:2; stroke-opacity:0.1; fill:none" points="
  2289.34,1486.45 2289.34,47.2441 
  "/>
<polyline clip-path="url(#clip900)" style="stroke:#000000; stroke-linecap:butt; stroke-linejoin:round; stroke-width:4; stroke-opacity:1; fill:none" points="
  112.177,1486.45 2352.76,1486.45 
  "/>
<polyline clip-path="url(#clip900)" style="stroke:#000000; stroke-linecap:butt; stroke-linejoin:round; stroke-width:4; stroke-opacity:1; fill:none" points="
  175.59,1486.45 175.59,1467.55 
  "/>
<polyline clip-path="url(#clip900)" style="stroke:#000000; stroke-linecap:butt; stroke-linejoin:round; stroke-width:4; stroke-opacity:1; fill:none" points="
  527.882,1486.45 527.882,1467.55 
  "/>
<polyline clip-path="url(#clip900)" style="stroke:#000000; stroke-linecap:butt; stroke-linejoin:round; stroke-width:4; stroke-opacity:1; fill:none" points="
  880.174,1486.45 880.174,1467.55 
  "/>
<polyline clip-path="url(#clip900)" style="stroke:#000000; stroke-linecap:butt; stroke-linejoin:round; stroke-width:4; stroke-opacity:1; fill:none" points="
  1232.47,1486.45 1232.47,1467.55 
  "/>
<polyline clip-path="url(#clip900)" style="stroke:#000000; stroke-linecap:butt; stroke-linejoin:round; stroke-width:4; stroke-opacity:1; fill:none" points="
  1584.76,1486.45 1584.76,1467.55 
  "/>
<polyline clip-path="url(#clip900)" style="stroke:#000000; stroke-linecap:butt; stroke-linejoin:round; stroke-width:4; stroke-opacity:1; fill:none" points="
  1937.05,1486.45 1937.05,1467.55 
  "/>
<polyline clip-path="url(#clip900)" style="stroke:#000000; stroke-linecap:butt; stroke-linejoin:round; stroke-width:4; stroke-opacity:1; fill:none" points="
  2289.34,1486.45 2289.34,1467.55 
  "/>
<path clip-path="url(#clip900)" d="M145.058 1532.02 L174.733 1532.02 L174.733 1535.95 L145.058 1535.95 L145.058 1532.02 Z" fill="#000000" fill-rule="evenodd" fill-opacity="1" /><path clip-path="url(#clip900)" d="M198.992 1530.21 Q202.349 1530.93 204.224 1533.2 Q206.122 1535.47 206.122 1538.8 Q206.122 1543.92 202.604 1546.72 Q199.085 1549.52 192.604 1549.52 Q190.428 1549.52 188.113 1549.08 Q185.821 1548.66 183.368 1547.81 L183.368 1543.29 Q185.312 1544.43 187.627 1545.01 Q189.942 1545.58 192.465 1545.58 Q196.863 1545.58 199.154 1543.85 Q201.469 1542.11 201.469 1538.8 Q201.469 1535.75 199.317 1534.03 Q197.187 1532.3 193.367 1532.3 L189.34 1532.3 L189.34 1528.45 L193.553 1528.45 Q197.002 1528.45 198.83 1527.09 Q200.659 1525.7 200.659 1523.11 Q200.659 1520.45 198.761 1519.03 Q196.886 1517.6 193.367 1517.6 Q191.446 1517.6 189.247 1518.01 Q187.048 1518.43 184.409 1519.31 L184.409 1515.14 Q187.071 1514.4 189.386 1514.03 Q191.724 1513.66 193.784 1513.66 Q199.108 1513.66 202.21 1516.09 Q205.312 1518.5 205.312 1522.62 Q205.312 1525.49 203.668 1527.48 Q202.025 1529.45 198.992 1530.21 Z" fill="#000000" fill-rule="evenodd" fill-opacity="1" /><path clip-path="url(#clip900)" d="M497.824 1532.02 L527.5 1532.02 L527.5 1535.95 L497.824 1535.95 L497.824 1532.02 Z" fill="#000000" fill-rule="evenodd" fill-opacity="1" /><path clip-path="url(#clip900)" d="M541.62 1544.91 L557.94 1544.91 L557.94 1548.85 L535.995 1548.85 L535.995 1544.91 Q538.657 1542.16 543.241 1537.53 Q547.847 1532.88 549.028 1531.53 Q551.273 1529.01 552.153 1527.27 Q553.056 1525.51 553.056 1523.82 Q553.056 1521.07 551.111 1519.33 Q549.19 1517.6 546.088 1517.6 Q543.889 1517.6 541.435 1518.36 Q539.005 1519.13 536.227 1520.68 L536.227 1515.95 Q539.051 1514.82 541.505 1514.24 Q543.958 1513.66 545.995 1513.66 Q551.366 1513.66 554.56 1516.35 Q557.755 1519.03 557.755 1523.52 Q557.755 1525.65 556.944 1527.57 Q556.157 1529.47 554.051 1532.07 Q553.472 1532.74 550.37 1535.95 Q547.269 1539.15 541.62 1544.91 Z" fill="#000000" fill-rule="evenodd" fill-opacity="1" /><path clip-path="url(#clip900)" d="M849.931 1532.02 L879.607 1532.02 L879.607 1535.95 L849.931 1535.95 L849.931 1532.02 Z" fill="#000000" fill-rule="evenodd" fill-opacity="1" /><path clip-path="url(#clip900)" d="M890.51 1544.91 L898.149 1544.91 L898.149 1518.55 L889.839 1520.21 L889.839 1515.95 L898.102 1514.29 L902.778 1514.29 L902.778 1544.91 L910.417 1544.91 L910.417 1548.85 L890.51 1548.85 L890.51 1544.91 Z" fill="#000000" fill-rule="evenodd" fill-opacity="1" /><path clip-path="url(#clip900)" d="M1232.47 1517.37 Q1228.86 1517.37 1227.03 1520.93 Q1225.22 1524.47 1225.22 1531.6 Q1225.22 1538.71 1227.03 1542.27 Q1228.86 1545.82 1232.47 1545.82 Q1236.1 1545.82 1237.91 1542.27 Q1239.74 1538.71 1239.74 1531.6 Q1239.74 1524.47 1237.91 1520.93 Q1236.1 1517.37 1232.47 1517.37 M1232.47 1513.66 Q1238.28 1513.66 1241.33 1518.27 Q1244.41 1522.85 1244.41 1531.6 Q1244.41 1540.33 1241.33 1544.94 Q1238.28 1549.52 1232.47 1549.52 Q1226.66 1549.52 1223.58 1544.94 Q1220.52 1540.33 1220.52 1531.6 Q1220.52 1522.85 1223.58 1518.27 Q1226.66 1513.66 1232.47 1513.66 Z" fill="#000000" fill-rule="evenodd" fill-opacity="1" /><path clip-path="url(#clip900)" d="M1575.14 1544.91 L1582.78 1544.91 L1582.78 1518.55 L1574.47 1520.21 L1574.47 1515.95 L1582.73 1514.29 L1587.41 1514.29 L1587.41 1544.91 L1595.05 1544.91 L1595.05 1548.85 L1575.14 1548.85 L1575.14 1544.91 Z" fill="#000000" fill-rule="evenodd" fill-opacity="1" /><path clip-path="url(#clip900)" d="M1931.7 1544.91 L1948.02 1544.91 L1948.02 1548.85 L1926.08 1548.85 L1926.08 1544.91 Q1928.74 1542.16 1933.32 1537.53 Q1937.93 1532.88 1939.11 1531.53 Q1941.36 1529.01 1942.24 1527.27 Q1943.14 1525.51 1943.14 1523.82 Q1943.14 1521.07 1941.19 1519.33 Q1939.27 1517.6 1936.17 1517.6 Q1933.97 1517.6 1931.52 1518.36 Q1929.09 1519.13 1926.31 1520.68 L1926.31 1515.95 Q1929.13 1514.82 1931.59 1514.24 Q1934.04 1513.66 1936.08 1513.66 Q1941.45 1513.66 1944.64 1516.35 Q1947.84 1519.03 1947.84 1523.52 Q1947.84 1525.65 1947.03 1527.57 Q1946.24 1529.47 1944.13 1532.07 Q1943.56 1532.74 1940.45 1535.95 Q1937.35 1539.15 1931.7 1544.91 Z" fill="#000000" fill-rule="evenodd" fill-opacity="1" /><path clip-path="url(#clip900)" d="M2293.59 1530.21 Q2296.95 1530.93 2298.82 1533.2 Q2300.72 1535.47 2300.72 1538.8 Q2300.72 1543.92 2297.2 1546.72 Q2293.68 1549.52 2287.2 1549.52 Q2285.03 1549.52 2282.71 1549.08 Q2280.42 1548.66 2277.97 1547.81 L2277.97 1543.29 Q2279.91 1544.43 2282.23 1545.01 Q2284.54 1545.58 2287.06 1545.58 Q2291.46 1545.58 2293.75 1543.85 Q2296.07 1542.11 2296.07 1538.8 Q2296.07 1535.75 2293.92 1534.03 Q2291.79 1532.3 2287.97 1532.3 L2283.94 1532.3 L2283.94 1528.45 L2288.15 1528.45 Q2291.6 1528.45 2293.43 1527.09 Q2295.26 1525.7 2295.26 1523.11 Q2295.26 1520.45 2293.36 1519.03 Q2291.48 1517.6 2287.97 1517.6 Q2286.04 1517.6 2283.85 1518.01 Q2281.65 1518.43 2279.01 1519.31 L2279.01 1515.14 Q2281.67 1514.4 2283.98 1514.03 Q2286.32 1513.66 2288.38 1513.66 Q2293.71 1513.66 2296.81 1516.09 Q2299.91 1518.5 2299.91 1522.62 Q2299.91 1525.49 2298.27 1527.48 Q2296.62 1529.45 2293.59 1530.21 Z" fill="#000000" fill-rule="evenodd" fill-opacity="1" /><polyline clip-path="url(#clip902)" style="stroke:#000000; stroke-linecap:butt; stroke-linejoin:round; stroke-width:2; stroke-opacity:0.1; fill:none" points="
  112.177,1445.72 2352.76,1445.72 
  "/>
<polyline clip-path="url(#clip902)" style="stroke:#000000; stroke-linecap:butt; stroke-linejoin:round; stroke-width:2; stroke-opacity:0.1; fill:none" points="
  112.177,1140.22 2352.76,1140.22 
  "/>
<polyline clip-path="url(#clip902)" style="stroke:#000000; stroke-linecap:butt; stroke-linejoin:round; stroke-width:2; stroke-opacity:0.1; fill:none" points="
  112.177,834.733 2352.76,834.733 
  "/>
<polyline clip-path="url(#clip902)" style="stroke:#000000; stroke-linecap:butt; stroke-linejoin:round; stroke-width:2; stroke-opacity:0.1; fill:none" points="
  112.177,529.242 2352.76,529.242 
  "/>
<polyline clip-path="url(#clip902)" style="stroke:#000000; stroke-linecap:butt; stroke-linejoin:round; stroke-width:2; stroke-opacity:0.1; fill:none" points="
  112.177,223.75 2352.76,223.75 
  "/>
<polyline clip-path="url(#clip900)" style="stroke:#000000; stroke-linecap:butt; stroke-linejoin:round; stroke-width:4; stroke-opacity:1; fill:none" points="
  112.177,1486.45 112.177,47.2441 
  "/>
<polyline clip-path="url(#clip900)" style="stroke:#000000; stroke-linecap:butt; stroke-linejoin:round; stroke-width:4; stroke-opacity:1; fill:none" points="
  112.177,1445.72 131.075,1445.72 
  "/>
<polyline clip-path="url(#clip900)" style="stroke:#000000; stroke-linecap:butt; stroke-linejoin:round; stroke-width:4; stroke-opacity:1; fill:none" points="
  112.177,1140.22 131.075,1140.22 
  "/>
<polyline clip-path="url(#clip900)" style="stroke:#000000; stroke-linecap:butt; stroke-linejoin:round; stroke-width:4; stroke-opacity:1; fill:none" points="
  112.177,834.733 131.075,834.733 
  "/>
<polyline clip-path="url(#clip900)" style="stroke:#000000; stroke-linecap:butt; stroke-linejoin:round; stroke-width:4; stroke-opacity:1; fill:none" points="
  112.177,529.242 131.075,529.242 
  "/>
<polyline clip-path="url(#clip900)" style="stroke:#000000; stroke-linecap:butt; stroke-linejoin:round; stroke-width:4; stroke-opacity:1; fill:none" points="
  112.177,223.75 131.075,223.75 
  "/>
<path clip-path="url(#clip900)" d="M64.2328 1431.51 Q60.6217 1431.51 58.793 1435.08 Q56.9875 1438.62 56.9875 1445.75 Q56.9875 1452.86 58.793 1456.42 Q60.6217 1459.96 64.2328 1459.96 Q67.867 1459.96 69.6726 1456.42 Q71.5013 1452.86 71.5013 1445.75 Q71.5013 1438.62 69.6726 1435.08 Q67.867 1431.51 64.2328 1431.51 M64.2328 1427.81 Q70.0429 1427.81 73.0985 1432.42 Q76.1772 1437 76.1772 1445.75 Q76.1772 1454.48 73.0985 1459.08 Q70.0429 1463.67 64.2328 1463.67 Q58.4226 1463.67 55.344 1459.08 Q52.2884 1454.48 52.2884 1445.75 Q52.2884 1437 55.344 1432.42 Q58.4226 1427.81 64.2328 1427.81 Z" fill="#000000" fill-rule="evenodd" fill-opacity="1" /><path clip-path="url(#clip900)" d="M56.2699 1153.57 L63.9087 1153.57 L63.9087 1127.2 L55.5986 1128.87 L55.5986 1124.61 L63.8624 1122.94 L68.5383 1122.94 L68.5383 1153.57 L76.1772 1153.57 L76.1772 1157.5 L56.2699 1157.5 L56.2699 1153.57 Z" fill="#000000" fill-rule="evenodd" fill-opacity="1" /><path clip-path="url(#clip900)" d="M59.8578 848.078 L76.1772 848.078 L76.1772 852.013 L54.2328 852.013 L54.2328 848.078 Q56.8949 845.323 61.4782 840.694 Q66.0846 836.041 67.2652 834.698 Q69.5105 832.175 70.3902 830.439 Q71.2929 828.68 71.2929 826.99 Q71.2929 824.235 69.3485 822.499 Q67.4272 820.763 64.3254 820.763 Q62.1263 820.763 59.6726 821.527 Q57.2421 822.291 54.4643 823.842 L54.4643 819.12 Q57.2884 817.985 59.7421 817.407 Q62.1958 816.828 64.2328 816.828 Q69.6031 816.828 72.7976 819.513 Q75.992 822.198 75.992 826.689 Q75.992 828.819 75.1818 830.74 Q74.3948 832.638 72.2883 835.231 Q71.7096 835.902 68.6078 839.12 Q65.5059 842.314 59.8578 848.078 Z" fill="#000000" fill-rule="evenodd" fill-opacity="1" /><path clip-path="url(#clip900)" d="M69.0476 527.887 Q72.404 528.605 74.279 530.874 Q76.1772 533.142 76.1772 536.475 Q76.1772 541.591 72.6587 544.392 Q69.1402 547.193 62.6587 547.193 Q60.4828 547.193 58.168 546.753 Q55.8764 546.336 53.4227 545.48 L53.4227 540.966 Q55.3671 542.1 57.6819 542.679 Q59.9967 543.258 62.5198 543.258 Q66.918 543.258 69.2096 541.522 Q71.5244 539.786 71.5244 536.475 Q71.5244 533.42 69.3717 531.707 Q67.242 529.971 63.4226 529.971 L59.3949 529.971 L59.3949 526.128 L63.6078 526.128 Q67.0569 526.128 68.8855 524.762 Q70.7142 523.374 70.7142 520.781 Q70.7142 518.119 68.8161 516.707 Q66.9411 515.272 63.4226 515.272 Q61.5013 515.272 59.3023 515.688 Q57.1032 516.105 54.4643 516.985 L54.4643 512.818 Q57.1264 512.077 59.4412 511.707 Q61.7791 511.337 63.8393 511.337 Q69.1633 511.337 72.2652 513.767 Q75.367 516.175 75.367 520.295 Q75.367 523.165 73.7235 525.156 Q72.08 527.124 69.0476 527.887 Z" fill="#000000" fill-rule="evenodd" fill-opacity="1" /><path clip-path="url(#clip900)" d="M66.5939 210.544 L54.7884 228.993 L66.5939 228.993 L66.5939 210.544 M65.367 206.47 L71.2466 206.47 L71.2466 228.993 L76.1772 228.993 L76.1772 232.882 L71.2466 232.882 L71.2466 241.03 L66.5939 241.03 L66.5939 232.882 L50.9921 232.882 L50.9921 228.368 L65.367 206.47 Z" fill="#000000" fill-rule="evenodd" fill-opacity="1" /><polyline clip-path="url(#clip902)" style="stroke:#009af9; stroke-linecap:butt; stroke-linejoin:round; stroke-width:12; stroke-opacity:1; fill:none" points="
  175.59,1445.72 410.451,902.62 645.313,495.298 880.174,223.75 1115.04,87.9763 1349.9,87.9763 1584.76,223.75 1819.62,495.298 2054.48,902.62 2289.34,1445.72 
  
  "/>
<path clip-path="url(#clip900)" d="
M1976.69 198.898 L2278.07 198.898 L2278.07 95.2176 L1976.69 95.2176  Z
  " fill="#ffffff" fill-rule="evenodd" fill-opacity="1"/>
<polyline clip-path="url(#clip900)" style="stroke:#000000; stroke-linecap:butt; stroke-linejoin:round; stroke-width:4; stroke-opacity:1; fill:none" points="
  1976.69,198.898 2278.07,198.898 2278.07,95.2176 1976.69,95.2176 1976.69,198.898 
  "/>
<polyline clip-path="url(#clip900)" style="stroke:#009af9; stroke-linecap:butt; stroke-linejoin:round; stroke-width:4; stroke-opacity:1; fill:none" points="
  2001.58,147.058 2150.95,147.058 
  "/>
<path clip-path="url(#clip900)" d="M2189.69 166.745 Q2187.89 171.375 2186.17 172.787 Q2184.46 174.199 2181.59 174.199 L2178.19 174.199 L2178.19 170.634 L2180.69 170.634 Q2182.45 170.634 2183.42 169.8 Q2184.39 168.967 2185.57 165.865 L2186.34 163.921 L2175.85 138.412 L2180.36 138.412 L2188.46 158.689 L2196.57 138.412 L2201.08 138.412 L2189.69 166.745 Z" fill="#000000" fill-rule="evenodd" fill-opacity="1" /><path clip-path="url(#clip900)" d="M2208.37 160.402 L2216.01 160.402 L2216.01 134.037 L2207.7 135.703 L2207.7 131.444 L2215.96 129.778 L2220.64 129.778 L2220.64 160.402 L2228.28 160.402 L2228.28 164.338 L2208.37 164.338 L2208.37 160.402 Z" fill="#000000" fill-rule="evenodd" fill-opacity="1" /></svg>
