<?xml version="1.0" encoding="utf-8"?>
<svg xmlns="http://www.w3.org/2000/svg" xmlns:xlink="http://www.w3.org/1999/xlink" width="600" height="400" viewBox="0 0 2400 1600">
<defs>
  <clipPath id="clip170">
    <rect x="0" y="0" width="2400" height="1600"/>
  </clipPath>
</defs>
<path clip-path="url(#clip170)" d="
M0 1600 L2400 1600 L2400 0 L0 0  Z
  " fill="#ffffff" fill-rule="evenodd" fill-opacity="1"/>
<defs>
  <clipPath id="clip171">
    <rect x="480" y="0" width="1681" height="1600"/>
  </clipPath>
</defs>
<path clip-path="url(#clip170)" d="
M225.043 1486.45 L2352.76 1486.45 L2352.76 47.2441 L225.043 47.2441  Z
  " fill="#ffffff" fill-rule="evenodd" fill-opacity="1"/>
<defs>
  <clipPath id="clip172">
    <rect x="225" y="47" width="2129" height="1440"/>
  </clipPath>
</defs>
<polyline clip-path="url(#clip172)" style="stroke:#000000; stroke-linecap:butt; stroke-linejoin:round; stroke-width:2; stroke-opacity:0.1; fill:none" points="
  552.898,1486.45 552.898,47.2441 
  "/>
<polyline clip-path="url(#clip172)" style="stroke:#000000; stroke-linecap:butt; stroke-linejoin:round; stroke-width:2; stroke-opacity:0.1; fill:none" points="
  954.353,1486.45 954.353,47.2441 
  "/>
<polyline clip-path="url(#clip172)" style="stroke:#000000; stroke-linecap:butt; stroke-linejoin:round; stroke-width:2; stroke-opacity:0.1; fill:none" points="
  1355.81,1486.45 1355.81,47.2441 
  "/>
<polyline clip-path="url(#clip172)" style="stroke:#000000; stroke-linecap:butt; stroke-linejoin:round; stroke-width:2; stroke-opacity:0.1; fill:none" points="
  1757.26,1486.45 1757.26,47.2441 
  "/>
<polyline clip-path="url(#clip172)" style="stroke:#000000; stroke-linecap:butt; stroke-linejoin:round; stroke-width:2; stroke-opacity:0.1; fill:none" points="
  2158.72,1486.45 2158.72,47.2441 
  "/>
<polyline clip-path="url(#clip170)" style="stroke:#000000; stroke-linecap:butt; stroke-linejoin:round; stroke-width:4; stroke-opacity:1; fill:none" points="
  225.043,1486.45 2352.76,1486.45 
  "/>
<polyline clip-path="url(#clip170)" style="stroke:#000000; stroke-linecap:butt; stroke-linejoin:round; stroke-width:4; stroke-opacity:1; fill:none" points="
  552.898,1486.45 552.898,1467.55 
  "/>
<polyline clip-path="url(#clip170)" style="stroke:#000000; stroke-linecap:butt; stroke-linejoin:round; stroke-width:4; stroke-opacity:1; fill:none" points="
  954.353,1486.45 954.353,1467.55 
  "/>
<polyline clip-path="url(#clip170)" style="stroke:#000000; stroke-linecap:butt; stroke-linejoin:round; stroke-width:4; stroke-opacity:1; fill:none" points="
  1355.81,1486.45 1355.81,1467.55 
  "/>
<polyline clip-path="url(#clip170)" style="stroke:#000000; stroke-linecap:butt; stroke-linejoin:round; stroke-width:4; stroke-opacity:1; fill:none" points="
  1757.26,1486.45 1757.26,1467.55 
  "/>
<polyline clip-path="url(#clip170)" style="stroke:#000000; stroke-linecap:butt; stroke-linejoin:round; stroke-width:4; stroke-opacity:1; fill:none" points="
  2158.72,1486.45 2158.72,1467.55 
  "/>
<path clip-path="url(#clip170)" d="M557.145 1530.21 Q560.502 1530.93 562.377 1533.2 Q564.275 1535.47 564.275 1538.8 Q564.275 1543.92 560.757 1546.72 Q557.238 1549.52 550.757 1549.52 Q548.581 1549.52 546.266 1549.08 Q543.974 1548.66 541.521 1547.81 L541.521 1543.29 Q543.465 1544.43 545.78 1545.01 Q548.095 1545.58 550.618 1545.58 Q555.016 1545.58 557.307 1543.85 Q559.622 1542.11 559.622 1538.8 Q559.622 1535.75 557.47 1534.03 Q555.34 1532.3 551.52 1532.3 L547.493 1532.3 L547.493 1528.45 L551.706 1528.45 Q555.155 1528.45 556.983 1527.09 Q558.812 1525.7 558.812 1523.11 Q558.812 1520.45 556.914 1519.03 Q555.039 1517.6 551.52 1517.6 Q549.599 1517.6 547.4 1518.01 Q545.201 1518.43 542.562 1519.31 L542.562 1515.14 Q545.224 1514.4 547.539 1514.03 Q549.877 1513.66 551.937 1513.66 Q557.261 1513.66 560.363 1516.09 Q563.465 1518.5 563.465 1522.62 Q563.465 1525.49 561.821 1527.48 Q560.178 1529.45 557.145 1530.21 Z" fill="#000000" fill-rule="evenodd" fill-opacity="1" /><path clip-path="url(#clip170)" d="M954.758 1529.7 Q951.61 1529.7 949.758 1531.86 Q947.93 1534.01 947.93 1537.76 Q947.93 1541.49 949.758 1543.66 Q951.61 1545.82 954.758 1545.82 Q957.906 1545.82 959.735 1543.66 Q961.587 1541.49 961.587 1537.76 Q961.587 1534.01 959.735 1531.86 Q957.906 1529.7 954.758 1529.7 M964.041 1515.05 L964.041 1519.31 Q962.281 1518.48 960.476 1518.04 Q958.693 1517.6 956.934 1517.6 Q952.305 1517.6 949.851 1520.72 Q947.42 1523.85 947.073 1530.17 Q948.439 1528.15 950.499 1527.09 Q952.559 1526 955.036 1526 Q960.244 1526 963.254 1529.17 Q966.286 1532.32 966.286 1537.76 Q966.286 1543.08 963.138 1546.3 Q959.99 1549.52 954.758 1549.52 Q948.763 1549.52 945.592 1544.94 Q942.42 1540.33 942.42 1531.6 Q942.42 1523.41 946.309 1518.55 Q950.198 1513.66 956.749 1513.66 Q958.508 1513.66 960.291 1514.01 Q962.096 1514.36 964.041 1515.05 Z" fill="#000000" fill-rule="evenodd" fill-opacity="1" /><path clip-path="url(#clip170)" d="M1346.11 1548.13 L1346.11 1543.87 Q1347.87 1544.7 1349.67 1545.14 Q1351.48 1545.58 1353.22 1545.58 Q1357.85 1545.58 1360.28 1542.48 Q1362.73 1539.36 1363.08 1533.01 Q1361.73 1535.01 1359.67 1536.07 Q1357.61 1537.13 1355.11 1537.13 Q1349.93 1537.13 1346.9 1534.01 Q1343.89 1530.86 1343.89 1525.42 Q1343.89 1520.1 1347.04 1516.88 Q1350.18 1513.66 1355.41 1513.66 Q1361.41 1513.66 1364.56 1518.27 Q1367.73 1522.85 1367.73 1531.6 Q1367.73 1539.77 1363.84 1544.66 Q1359.98 1549.52 1353.42 1549.52 Q1351.66 1549.52 1349.86 1549.17 Q1348.05 1548.82 1346.11 1548.13 M1355.41 1533.48 Q1358.56 1533.48 1360.39 1531.32 Q1362.24 1529.17 1362.24 1525.42 Q1362.24 1521.7 1360.39 1519.54 Q1358.56 1517.37 1355.41 1517.37 Q1352.27 1517.37 1350.41 1519.54 Q1348.59 1521.7 1348.59 1525.42 Q1348.59 1529.17 1350.41 1531.32 Q1352.27 1533.48 1355.41 1533.48 Z" fill="#000000" fill-rule="evenodd" fill-opacity="1" /><path clip-path="url(#clip170)" d="M1732.75 1544.91 L1740.39 1544.91 L1740.39 1518.55 L1732.08 1520.21 L1732.08 1515.95 L1740.34 1514.29 L1745.02 1514.29 L1745.02 1544.91 L1752.66 1544.91 L1752.66 1548.85 L1732.75 1548.85 L1732.75 1544.91 Z" fill="#000000" fill-rule="evenodd" fill-opacity="1" /><path clip-path="url(#clip170)" d="M1766.13 1544.91 L1782.45 1544.91 L1782.45 1548.85 L1760.5 1548.85 L1760.5 1544.91 Q1763.17 1542.16 1767.75 1537.53 Q1772.36 1532.88 1773.54 1531.53 Q1775.78 1529.01 1776.66 1527.27 Q1777.56 1525.51 1777.56 1523.82 Q1777.56 1521.07 1775.62 1519.33 Q1773.7 1517.6 1770.6 1517.6 Q1768.4 1517.6 1765.94 1518.36 Q1763.51 1519.13 1760.74 1520.68 L1760.74 1515.95 Q1763.56 1514.82 1766.01 1514.24 Q1768.47 1513.66 1770.5 1513.66 Q1775.87 1513.66 1779.07 1516.35 Q1782.26 1519.03 1782.26 1523.52 Q1782.26 1525.65 1781.45 1527.57 Q1780.67 1529.47 1778.56 1532.07 Q1777.98 1532.74 1774.88 1535.95 Q1771.78 1539.15 1766.13 1544.91 Z" fill="#000000" fill-rule="evenodd" fill-opacity="1" /><path clip-path="url(#clip170)" d="M2133.9 1544.91 L2141.54 1544.91 L2141.54 1518.55 L2133.23 1520.21 L2133.23 1515.95 L2141.5 1514.29 L2146.17 1514.29 L2146.17 1544.91 L2153.81 1544.91 L2153.81 1548.85 L2133.9 1548.85 L2133.9 1544.91 Z" fill="#000000" fill-rule="evenodd" fill-opacity="1" /><path clip-path="url(#clip170)" d="M2163.3 1514.29 L2181.66 1514.29 L2181.66 1518.22 L2167.58 1518.22 L2167.58 1526.7 Q2168.6 1526.35 2169.62 1526.19 Q2170.64 1526 2171.66 1526 Q2177.45 1526 2180.83 1529.17 Q2184.21 1532.34 2184.21 1537.76 Q2184.21 1543.34 2180.73 1546.44 Q2177.26 1549.52 2170.94 1549.52 Q2168.77 1549.52 2166.5 1549.15 Q2164.25 1548.78 2161.84 1548.04 L2161.84 1543.34 Q2163.93 1544.47 2166.15 1545.03 Q2168.37 1545.58 2170.85 1545.58 Q2174.85 1545.58 2177.19 1543.48 Q2179.53 1541.37 2179.53 1537.76 Q2179.53 1534.15 2177.19 1532.04 Q2174.85 1529.94 2170.85 1529.94 Q2168.97 1529.94 2167.1 1530.35 Q2165.25 1530.77 2163.3 1531.65 L2163.3 1514.29 Z" fill="#000000" fill-rule="evenodd" fill-opacity="1" /><polyline clip-path="url(#clip172)" style="stroke:#000000; stroke-linecap:butt; stroke-linejoin:round; stroke-width:2; stroke-opacity:0.1; fill:none" points="
  225.043,979.245 2352.76,979.245 
  "/>
<polyline clip-path="url(#clip172)" style="stroke:#000000; stroke-linecap:butt; stroke-linejoin:round; stroke-width:2; stroke-opacity:0.1; fill:none" points="
  225.043,430.819 2352.76,430.819 
  "/>
<polyline clip-path="url(#clip170)" style="stroke:#000000; stroke-linecap:butt; stroke-linejoin:round; stroke-width:4; stroke-opacity:1; fill:none" points="
  225.043,1486.45 225.043,47.2441 
  "/>
<polyline clip-path="url(#clip170)" style="stroke:#000000; stroke-linecap:butt; stroke-linejoin:round; stroke-width:4; stroke-opacity:1; fill:none" points="
  225.043,979.245 243.94,979.245 
  "/>
<polyline clip-path="url(#clip170)" style="stroke:#000000; stroke-linecap:butt; stroke-linejoin:round; stroke-width:4; stroke-opacity:1; fill:none" points="
  225.043,430.819 243.94,430.819 
  "/>
<path clip-path="url(#clip170)" d="M51.6634 999.037 L59.3023 999.037 L59.3023 972.672 L50.9921 974.338 L50.9921 970.079 L59.256 968.412 L63.9319 968.412 L63.9319 999.037 L71.5707 999.037 L71.5707 1002.97 L51.6634 1002.97 L51.6634 999.037 Z" fill="#000000" fill-rule="evenodd" fill-opacity="1" /><path clip-path="url(#clip170)" d="M91.0151 971.491 Q87.404 971.491 85.5753 975.056 Q83.7697 978.598 83.7697 985.727 Q83.7697 992.834 85.5753 996.398 Q87.404 999.94 91.0151 999.94 Q94.6493 999.94 96.4548 996.398 Q98.2835 992.834 98.2835 985.727 Q98.2835 978.598 96.4548 975.056 Q94.6493 971.491 91.0151 971.491 M91.0151 967.787 Q96.8252 967.787 99.8808 972.394 Q102.959 976.977 102.959 985.727 Q102.959 994.454 99.8808 999.06 Q96.8252 1003.64 91.0151 1003.64 Q85.2049 1003.64 82.1262 999.06 Q79.0707 994.454 79.0707 985.727 Q79.0707 976.977 82.1262 972.394 Q85.2049 967.787 91.0151 967.787 Z" fill="#000000" fill-rule="evenodd" fill-opacity="1" /><path clip-path="url(#clip170)" d="M102.959 961.889 L127.071 961.889 L127.071 965.086 L102.959 965.086 L102.959 961.889 Z" fill="#000000" fill-rule="evenodd" fill-opacity="1" /><path clip-path="url(#clip170)" d="M138.544 972.365 L151.803 972.365 L151.803 975.562 L133.973 975.562 L133.973 972.365 Q136.136 970.127 139.86 966.365 Q143.603 962.585 144.562 961.494 Q146.387 959.444 147.101 958.033 Q147.835 956.604 147.835 955.231 Q147.835 952.993 146.255 951.582 Q144.694 950.171 142.174 950.171 Q140.387 950.171 138.393 950.792 Q136.418 951.413 134.162 952.673 L134.162 948.836 Q136.456 947.915 138.45 947.444 Q140.443 946.974 142.098 946.974 Q146.462 946.974 149.057 949.156 Q151.653 951.338 151.653 954.986 Q151.653 956.717 150.994 958.278 Q150.355 959.82 148.644 961.926 Q148.173 962.472 145.653 965.086 Q143.133 967.682 138.544 972.365 Z" fill="#000000" fill-rule="evenodd" fill-opacity="1" /><path clip-path="url(#clip170)" d="M159.778 970.785 L163.746 970.785 L163.746 975.562 L159.778 975.562 L159.778 970.785 Z" fill="#000000" fill-rule="evenodd" fill-opacity="1" /><path clip-path="url(#clip170)" d="M172.059 947.482 L186.974 947.482 L186.974 950.679 L175.539 950.679 L175.539 957.563 Q176.366 957.281 177.194 957.149 Q178.021 956.999 178.849 956.999 Q183.551 956.999 186.297 959.575 Q189.043 962.152 189.043 966.553 Q189.043 971.086 186.221 973.606 Q183.4 976.107 178.266 976.107 Q176.498 976.107 174.655 975.806 Q172.83 975.506 170.874 974.904 L170.874 971.086 Q172.567 972.007 174.373 972.459 Q176.178 972.91 178.191 972.91 Q181.444 972.91 183.344 971.199 Q185.243 969.487 185.243 966.553 Q185.243 963.619 183.344 961.908 Q181.444 960.196 178.191 960.196 Q176.667 960.196 175.144 960.535 Q173.639 960.873 172.059 961.588 L172.059 947.482 Z" fill="#000000" fill-rule="evenodd" fill-opacity="1" /><path clip-path="url(#clip170)" d="M81.5866 450.611 L89.2254 450.611 L89.2254 424.246 L80.9153 425.912 L80.9153 421.653 L89.1791 419.986 L93.855 419.986 L93.855 450.611 L101.494 450.611 L101.494 454.546 L81.5866 454.546 L81.5866 450.611 Z" fill="#000000" fill-rule="evenodd" fill-opacity="1" /><path clip-path="url(#clip170)" d="M120.938 423.065 Q117.327 423.065 115.498 426.63 Q113.693 430.172 113.693 437.301 Q113.693 444.408 115.498 447.972 Q117.327 451.514 120.938 451.514 Q124.572 451.514 126.378 447.972 Q128.207 444.408 128.207 437.301 Q128.207 430.172 126.378 426.63 Q124.572 423.065 120.938 423.065 M120.938 419.361 Q126.748 419.361 129.804 423.968 Q132.883 428.551 132.883 437.301 Q132.883 446.028 129.804 450.634 Q126.748 455.218 120.938 455.218 Q115.128 455.218 112.049 450.634 Q108.994 446.028 108.994 437.301 Q108.994 428.551 112.049 423.968 Q115.128 419.361 120.938 419.361 Z" fill="#000000" fill-rule="evenodd" fill-opacity="1" /><path clip-path="url(#clip170)" d="M142.587 401.557 Q139.653 401.557 138.168 404.454 Q136.701 407.331 136.701 413.124 Q136.701 418.898 138.168 421.795 Q139.653 424.672 142.587 424.672 Q145.54 424.672 147.007 421.795 Q148.493 418.898 148.493 413.124 Q148.493 407.331 147.007 404.454 Q145.54 401.557 142.587 401.557 M142.587 398.548 Q147.308 398.548 149.791 402.291 Q152.292 406.015 152.292 413.124 Q152.292 420.215 149.791 423.957 Q147.308 427.681 142.587 427.681 Q137.867 427.681 135.365 423.957 Q132.883 420.215 132.883 413.124 Q132.883 406.015 135.365 402.291 Q137.867 398.548 142.587 398.548 Z" fill="#000000" fill-rule="evenodd" fill-opacity="1" /><path clip-path="url(#clip170)" d="M158.969 422.359 L162.937 422.359 L162.937 427.136 L158.969 427.136 L158.969 422.359 Z" fill="#000000" fill-rule="evenodd" fill-opacity="1" /><path clip-path="url(#clip170)" d="M179.338 401.557 Q176.404 401.557 174.918 404.454 Q173.451 407.331 173.451 413.124 Q173.451 418.898 174.918 421.795 Q176.404 424.672 179.338 424.672 Q182.291 424.672 183.758 421.795 Q185.243 418.898 185.243 413.124 Q185.243 407.331 183.758 404.454 Q182.291 401.557 179.338 401.557 M179.338 398.548 Q184.059 398.548 186.541 402.291 Q189.043 406.015 189.043 413.124 Q189.043 420.215 186.541 423.957 Q184.059 427.681 179.338 427.681 Q174.617 427.681 172.116 423.957 Q169.633 420.215 169.633 413.124 Q169.633 406.015 172.116 402.291 Q174.617 398.548 179.338 398.548 Z" fill="#000000" fill-rule="evenodd" fill-opacity="1" /><polyline clip-path="url(#clip172)" style="stroke:#009af9; stroke-linecap:butt; stroke-linejoin:round; stroke-width:12; stroke-opacity:1; fill:none" points="
  285.261,88.8921 419.079,87.9763 552.898,88.0149 686.716,164.929 820.535,165.848 954.353,179.076 1088.17,182.231 1221.99,182.231 1355.81,257.272 1489.63,273.523 
  1623.45,403.439 1757.26,377.684 1891.08,510.937 2024.9,648.236 2158.72,919.784 2292.54,1445.72 
  "/>
<circle clip-path="url(#clip172)" cx="285.261" cy="88.8921" r="14.4" fill="#009af9" fill-rule="evenodd" fill-opacity="1" stroke="#000000" stroke-opacity="1" stroke-width="3.2"/>
<circle clip-path="url(#clip172)" cx="419.079" cy="87.9763" r="14.4" fill="#009af9" fill-rule="evenodd" fill-opacity="1" stroke="#000000" stroke-opacity="1" stroke-width="3.2"/>
<circle clip-path="url(#clip172)" cx="552.898" cy="88.0149" r="14.4" fill="#009af9" fill-rule="evenodd" fill-opacity="1" stroke="#000000" stroke-opacity="1" stroke-width="3.2"/>
<circle clip-path="url(#clip172)" cx="686.716" cy="164.929" r="14.4" fill="#009af9" fill-rule="evenodd" fill-opacity="1" stroke="#000000" stroke-opacity="1" stroke-width="3.2"/>
<circle clip-path="url(#clip172)" cx="820.535" cy="165.848" r="14.4" fill="#009af9" fill-rule="evenodd" fill-opacity="1" stroke="#000000" stroke-opacity="1" stroke-width="3.2"/>
<circle clip-path="url(#clip172)" cx="954.353" cy="179.076" r="14.4" fill="#009af9" fill-rule="evenodd" fill-opacity="1" stroke="#000000" stroke-opacity="1" stroke-width="3.2"/>
<circle clip-path="url(#clip172)" cx="1088.17" cy="182.231" r="14.4" fill="#009af9" fill-rule="evenodd" fill-opacity="1" stroke="#000000" stroke-opacity="1" stroke-width="3.2"/>
<circle clip-path="url(#clip172)" cx="1221.99" cy="182.231" r="14.4" fill="#009af9" fill-rule="evenodd" fill-opacity="1" stroke="#000000" stroke-opacity="1" stroke-width="3.2"/>
<circle clip-path="url(#clip172)" cx="1355.81" cy="257.272" r="14.4" fill="#009af9" fill-rule="evenodd" fill-opacity="1" stroke="#000000" stroke-opacity="1" stroke-width="3.2"/>
<circle clip-path="url(#clip172)" cx="1489.63" cy="273.523" r="14.4" fill="#009af9" fill-rule="evenodd" fill-opacity="1" stroke="#000000" stroke-opacity="1" stroke-width="3.2"/>
<circle clip-path="url(#clip172)" cx="1623.45" cy="403.439" r="14.4" fill="#009af9" fill-rule="evenodd" fill-opacity="1" stroke="#000000" stroke-opacity="1" stroke-width="3.2"/>
<circle clip-path="url(#clip172)" cx="1757.26" cy="377.684" r="14.4" fill="#009af9" fill-rule="evenodd" fill-opacity="1" stroke="#000000" stroke-opacity="1" stroke-width="3.2"/>
<circle clip-path="url(#clip172)" cx="1891.08" cy="510.937" r="14.4" fill="#009af9" fill-rule="evenodd" fill-opacity="1" stroke="#000000" stroke-opacity="1" stroke-width="3.2"/>
<circle clip-path="url(#clip172)" cx="2024.9" cy="648.236" r="14.4" fill="#009af9" fill-rule="evenodd" fill-opacity="1" stroke="#000000" stroke-opacity="1" stroke-width="3.2"/>
<circle clip-path="url(#clip172)" cx="2158.72" cy="919.784" r="14.4" fill="#009af9" fill-rule="evenodd" fill-opacity="1" stroke="#000000" stroke-opacity="1" stroke-width="3.2"/>
<circle clip-path="url(#clip172)" cx="2292.54" cy="1445.72" r="14.4" fill="#009af9" fill-rule="evenodd" fill-opacity="1" stroke="#000000" stroke-opacity="1" stroke-width="3.2"/>
<path clip-path="url(#clip170)" d="
M1992.99 198.898 L2281.83 198.898 L2281.83 95.2176 L1992.99 95.2176  Z
  " fill="#ffffff" fill-rule="evenodd" fill-opacity="1"/>
<polyline clip-path="url(#clip170)" style="stroke:#000000; stroke-linecap:butt; stroke-linejoin:round; stroke-width:4; stroke-opacity:1; fill:none" points="
  1992.99,198.898 2281.83,198.898 2281.83,95.2176 1992.99,95.2176 1992.99,198.898 
  "/>
<polyline clip-path="url(#clip170)" style="stroke:#009af9; stroke-linecap:butt; stroke-linejoin:round; stroke-width:4; stroke-opacity:1; fill:none" points="
  2016.63,147.058 2158.48,147.058 
  "/>
<circle clip-path="url(#clip170)" cx="2087.55" cy="147.058" r="23.04" fill="#009af9" fill-rule="evenodd" fill-opacity="1" stroke="#000000" stroke-opacity="1" stroke-width="5.12"/>
<path clip-path="url(#clip170)" d="M2195.96 166.745 Q2194.16 171.375 2192.44 172.787 Q2190.73 174.199 2187.86 174.199 L2184.46 174.199 L2184.46 170.634 L2186.96 170.634 Q2188.72 170.634 2189.69 169.8 Q2190.66 168.967 2191.84 165.865 L2192.61 163.921 L2182.12 138.412 L2186.63 138.412 L2194.74 158.689 L2202.84 138.412 L2207.35 138.412 L2195.96 166.745 Z" fill="#000000" fill-rule="evenodd" fill-opacity="1" /><path clip-path="url(#clip170)" d="M2214.64 160.402 L2222.28 160.402 L2222.28 134.037 L2213.97 135.703 L2213.97 131.444 L2222.23 129.778 L2226.91 129.778 L2226.91 160.402 L2234.55 160.402 L2234.55 164.338 L2214.64 164.338 L2214.64 160.402 Z" fill="#000000" fill-rule="evenodd" fill-opacity="1" /></svg>
