<?xml version="1.0" encoding="utf-8"?>
<svg xmlns="http://www.w3.org/2000/svg" xmlns:xlink="http://www.w3.org/1999/xlink" width="600" height="400" viewBox="0 0 2400 1600">
<defs>
  <clipPath id="clip620">
    <rect x="0" y="0" width="2400" height="1600"/>
  </clipPath>
</defs>
<path clip-path="url(#clip620)" d="
M0 1600 L2400 1600 L2400 0 L0 0  Z
  " fill="#ffffff" fill-rule="evenodd" fill-opacity="1"/>
<defs>
  <clipPath id="clip621">
    <rect x="480" y="0" width="1681" height="1600"/>
  </clipPath>
</defs>
<defs>
  <clipPath id="clip622">
    <rect x="193" y="47" width="2160" height="1440"/>
  </clipPath>
</defs>
<path clip-path="url(#clip620)" d="
M189.496 1474.16 L2352.76 1474.16 L2352.76 47.2441 L189.496 47.2441  Z
  " fill="#ffffff" fill-rule="evenodd" fill-opacity="1"/>
<defs>
  <clipPath id="clip623">
    <rect x="189" y="47" width="2164" height="1428"/>
  </clipPath>
</defs>
<polyline clip-path="url(#clip623)" style="stroke:#000000; stroke-linecap:butt; stroke-linejoin:round; stroke-width:2; stroke-opacity:0.1; fill:none" points="
  646.096,1474.16 646.096,47.2441 
  "/>
<polyline clip-path="url(#clip623)" style="stroke:#000000; stroke-linecap:butt; stroke-linejoin:round; stroke-width:2; stroke-opacity:0.1; fill:none" points="
  1614.59,1474.16 1614.59,47.2441 
  "/>
<polyline clip-path="url(#clip620)" style="stroke:#000000; stroke-linecap:butt; stroke-linejoin:round; stroke-width:4; stroke-opacity:1; fill:none" points="
  189.496,1474.16 2352.76,1474.16 
  "/>
<polyline clip-path="url(#clip620)" style="stroke:#000000; stroke-linecap:butt; stroke-linejoin:round; stroke-width:4; stroke-opacity:1; fill:none" points="
  646.096,1474.16 646.096,1455.27 
  "/>
<polyline clip-path="url(#clip620)" style="stroke:#000000; stroke-linecap:butt; stroke-linejoin:round; stroke-width:4; stroke-opacity:1; fill:none" points="
  1614.59,1474.16 1614.59,1455.27 
  "/>
<path clip-path="url(#clip620)" d="M596.362 1548.29 L604.001 1548.29 L604.001 1521.92 L595.691 1523.59 L595.691 1519.33 L603.955 1517.66 L608.631 1517.66 L608.631 1548.29 L616.27 1548.29 L616.27 1552.22 L596.362 1552.22 L596.362 1548.29 Z" fill="#000000" fill-rule="evenodd" fill-opacity="1" /><path clip-path="url(#clip620)" d="M635.714 1520.74 Q632.103 1520.74 630.274 1524.31 Q628.469 1527.85 628.469 1534.98 Q628.469 1542.09 630.274 1545.65 Q632.103 1549.19 635.714 1549.19 Q639.348 1549.19 641.154 1545.65 Q642.982 1542.09 642.982 1534.98 Q642.982 1527.85 641.154 1524.31 Q639.348 1520.74 635.714 1520.74 M635.714 1517.04 Q641.524 1517.04 644.58 1521.65 Q647.658 1526.23 647.658 1534.98 Q647.658 1543.71 644.58 1548.31 Q641.524 1552.9 635.714 1552.9 Q629.904 1552.9 626.825 1548.31 Q623.769 1543.71 623.769 1534.98 Q623.769 1526.23 626.825 1521.65 Q629.904 1517.04 635.714 1517.04 Z" fill="#000000" fill-rule="evenodd" fill-opacity="1" /><path clip-path="url(#clip620)" d="M647.658 1511.14 L671.77 1511.14 L671.77 1514.34 L647.658 1514.34 L647.658 1511.14 Z" fill="#000000" fill-rule="evenodd" fill-opacity="1" /><path clip-path="url(#clip620)" d="M683.243 1521.62 L696.502 1521.62 L696.502 1524.81 L678.672 1524.81 L678.672 1521.62 Q680.835 1519.38 684.559 1515.62 Q688.302 1511.84 689.261 1510.75 Q691.085 1508.7 691.8 1507.29 Q692.534 1505.86 692.534 1504.48 Q692.534 1502.24 690.954 1500.83 Q689.393 1499.42 686.872 1499.42 Q685.086 1499.42 683.092 1500.04 Q681.117 1500.67 678.86 1501.93 L678.86 1498.09 Q681.155 1497.17 683.149 1496.7 Q685.142 1496.23 686.797 1496.23 Q691.161 1496.23 693.756 1498.41 Q696.352 1500.59 696.352 1504.24 Q696.352 1505.97 695.693 1507.53 Q695.054 1509.07 693.342 1511.18 Q692.872 1511.72 690.352 1514.34 Q687.832 1516.93 683.243 1521.62 Z" fill="#000000" fill-rule="evenodd" fill-opacity="1" /><path clip-path="url(#clip620)" d="M1564.7 1548.29 L1572.34 1548.29 L1572.34 1521.92 L1564.03 1523.59 L1564.03 1519.33 L1572.29 1517.66 L1576.97 1517.66 L1576.97 1548.29 L1584.61 1548.29 L1584.61 1552.22 L1564.7 1552.22 L1564.7 1548.29 Z" fill="#000000" fill-rule="evenodd" fill-opacity="1" /><path clip-path="url(#clip620)" d="M1604.05 1520.74 Q1600.44 1520.74 1598.61 1524.31 Q1596.81 1527.85 1596.81 1534.98 Q1596.81 1542.09 1598.61 1545.65 Q1600.44 1549.19 1604.05 1549.19 Q1607.69 1549.19 1609.49 1545.65 Q1611.32 1542.09 1611.32 1534.98 Q1611.32 1527.85 1609.49 1524.31 Q1607.69 1520.74 1604.05 1520.74 M1604.05 1517.04 Q1609.86 1517.04 1612.92 1521.65 Q1616 1526.23 1616 1534.98 Q1616 1543.71 1612.92 1548.31 Q1609.86 1552.9 1604.05 1552.9 Q1598.24 1552.9 1595.16 1548.31 Q1592.11 1543.71 1592.11 1534.98 Q1592.11 1526.23 1595.16 1521.65 Q1598.24 1517.04 1604.05 1517.04 Z" fill="#000000" fill-rule="evenodd" fill-opacity="1" /><path clip-path="url(#clip620)" d="M1616 1511.14 L1640.11 1511.14 L1640.11 1514.34 L1616 1514.34 L1616 1511.14 Z" fill="#000000" fill-rule="evenodd" fill-opacity="1" /><path clip-path="url(#clip620)" d="M1648.97 1521.62 L1655.17 1521.62 L1655.17 1500.19 L1648.42 1501.55 L1648.42 1498.09 L1655.14 1496.73 L1658.94 1496.73 L1658.94 1521.62 L1665.14 1521.62 L1665.14 1524.81 L1648.97 1524.81 L1648.97 1521.62 Z" fill="#000000" fill-rule="evenodd" fill-opacity="1" /><polyline clip-path="url(#clip623)" style="stroke:#000000; stroke-linecap:butt; stroke-linejoin:round; stroke-width:2; stroke-opacity:0.1; fill:none" points="
  189.496,1007.55 2352.76,1007.55 
  "/>
<polyline clip-path="url(#clip623)" style="stroke:#000000; stroke-linecap:butt; stroke-linejoin:round; stroke-width:2; stroke-opacity:0.1; fill:none" points="
  189.496,510.157 2352.76,510.157 
  "/>
<polyline clip-path="url(#clip620)" style="stroke:#000000; stroke-linecap:butt; stroke-linejoin:round; stroke-width:4; stroke-opacity:1; fill:none" points="
  189.496,1474.16 189.496,47.2441 
  "/>
<polyline clip-path="url(#clip620)" style="stroke:#000000; stroke-linecap:butt; stroke-linejoin:round; stroke-width:4; stroke-opacity:1; fill:none" points="
  189.496,1007.55 208.394,1007.55 
  "/>
<polyline clip-path="url(#clip620)" style="stroke:#000000; stroke-linecap:butt; stroke-linejoin:round; stroke-width:4; stroke-opacity:1; fill:none" points="
  189.496,510.157 208.394,510.157 
  "/>
<path clip-path="url(#clip620)" d="M51.6634 1027.34 L59.3023 1027.34 L59.3023 1000.98 L50.9921 1002.65 L50.9921 998.386 L59.256 996.719 L63.9319 996.719 L63.9319 1027.34 L71.5707 1027.34 L71.5707 1031.28 L51.6634 1031.28 L51.6634 1027.34 Z" fill="#000000" fill-rule="evenodd" fill-opacity="1" /><path clip-path="url(#clip620)" d="M91.0151 999.798 Q87.404 999.798 85.5753 1003.36 Q83.7697 1006.9 83.7697 1014.03 Q83.7697 1021.14 85.5753 1024.71 Q87.404 1028.25 91.0151 1028.25 Q94.6493 1028.25 96.4548 1024.71 Q98.2835 1021.14 98.2835 1014.03 Q98.2835 1006.9 96.4548 1003.36 Q94.6493 999.798 91.0151 999.798 M91.0151 996.094 Q96.8252 996.094 99.8808 1000.7 Q102.959 1005.28 102.959 1014.03 Q102.959 1022.76 99.8808 1027.37 Q96.8252 1031.95 91.0151 1031.95 Q85.2049 1031.95 82.1262 1027.37 Q79.0707 1022.76 79.0707 1014.03 Q79.0707 1005.28 82.1262 1000.7 Q85.2049 996.094 91.0151 996.094 Z" fill="#000000" fill-rule="evenodd" fill-opacity="1" /><path clip-path="url(#clip620)" d="M102.959 990.196 L127.071 990.196 L127.071 993.393 L102.959 993.393 L102.959 990.196 Z" fill="#000000" fill-rule="evenodd" fill-opacity="1" /><path clip-path="url(#clip620)" d="M145.71 979.099 L136.118 994.089 L145.71 994.089 L145.71 979.099 M144.713 975.789 L149.49 975.789 L149.49 994.089 L153.496 994.089 L153.496 997.248 L149.49 997.248 L149.49 1003.87 L145.71 1003.87 L145.71 997.248 L133.033 997.248 L133.033 993.581 L144.713 975.789 Z" fill="#000000" fill-rule="evenodd" fill-opacity="1" /><path clip-path="url(#clip620)" d="M53.3561 529.95 L60.995 529.95 L60.995 503.584 L52.6848 505.251 L52.6848 500.992 L60.9487 499.325 L65.6246 499.325 L65.6246 529.95 L73.2634 529.95 L73.2634 533.885 L53.3561 533.885 L53.3561 529.95 Z" fill="#000000" fill-rule="evenodd" fill-opacity="1" /><path clip-path="url(#clip620)" d="M92.7078 502.404 Q89.0967 502.404 87.268 505.969 Q85.4624 509.51 85.4624 516.64 Q85.4624 523.746 87.268 527.311 Q89.0967 530.853 92.7078 530.853 Q96.342 530.853 98.1475 527.311 Q99.9762 523.746 99.9762 516.64 Q99.9762 509.51 98.1475 505.969 Q96.342 502.404 92.7078 502.404 M92.7078 498.7 Q98.5179 498.7 101.573 503.307 Q104.652 507.89 104.652 516.64 Q104.652 525.367 101.573 529.973 Q98.5179 534.556 92.7078 534.556 Q86.8976 534.556 83.8189 529.973 Q80.7634 525.367 80.7634 516.64 Q80.7634 507.89 83.8189 503.307 Q86.8976 498.7 92.7078 498.7 Z" fill="#000000" fill-rule="evenodd" fill-opacity="1" /><path clip-path="url(#clip620)" d="M104.652 492.801 L128.764 492.801 L128.764 495.999 L104.652 495.999 L104.652 492.801 Z" fill="#000000" fill-rule="evenodd" fill-opacity="1" /><path clip-path="url(#clip620)" d="M140.236 503.277 L153.496 503.277 L153.496 506.475 L135.666 506.475 L135.666 503.277 Q137.829 501.039 141.553 497.278 Q145.296 493.497 146.255 492.406 Q148.079 490.356 148.794 488.946 Q149.527 487.516 149.527 486.143 Q149.527 483.905 147.948 482.495 Q146.387 481.084 143.866 481.084 Q142.08 481.084 140.086 481.705 Q138.111 482.325 135.854 483.586 L135.854 479.749 Q138.149 478.827 140.142 478.357 Q142.136 477.887 143.791 477.887 Q148.155 477.887 150.75 480.069 Q153.345 482.25 153.345 485.899 Q153.345 487.629 152.687 489.19 Q152.048 490.733 150.336 492.839 Q149.866 493.384 147.346 495.999 Q144.826 498.594 140.236 503.277 Z" fill="#000000" fill-rule="evenodd" fill-opacity="1" /><polyline clip-path="url(#clip623)" style="stroke:#009af9; stroke-linecap:butt; stroke-linejoin:round; stroke-width:12; stroke-opacity:1; fill:none" points="
  2291.53,914.639 1999.99,986.456 1708.44,1060.23 1416.9,1134.66 1125.35,1209.34 833.809,1284.11 542.265,1358.94 250.72,1433.78 
  "/>
<circle clip-path="url(#clip623)" cx="2291.53" cy="914.639" r="14.4" fill="#009af9" fill-rule="evenodd" fill-opacity="1" stroke="#000000" stroke-opacity="1" stroke-width="3.2"/>
<circle clip-path="url(#clip623)" cx="1999.99" cy="986.456" r="14.4" fill="#009af9" fill-rule="evenodd" fill-opacity="1" stroke="#000000" stroke-opacity="1" stroke-width="3.2"/>
<circle clip-path="url(#clip623)" cx="1708.44" cy="1060.23" r="14.4" fill="#009af9" fill-rule="evenodd" fill-opacity="1" stroke="#000000" stroke-opacity="1" stroke-width="3.2"/>
<circle clip-path="url(#clip623)" cx="1416.9" cy="1134.66" r="14.4" fill="#009af9" fill-rule="evenodd" fill-opacity="1" stroke="#000000" stroke-opacity="1" stroke-width="3.2"/>
<circle clip-path="url(#clip623)" cx="1125.35" cy="1209.34" r="14.4" fill="#009af9" fill-rule="evenodd" fill-opacity="1" stroke="#000000" stroke-opacity="1" stroke-width="3.2"/>
<circle clip-path="url(#clip623)" cx="833.809" cy="1284.11" r="14.4" fill="#009af9" fill-rule="evenodd" fill-opacity="1" stroke="#000000" stroke-opacity="1" stroke-width="3.2"/>
<circle clip-path="url(#clip623)" cx="542.265" cy="1358.94" r="14.4" fill="#009af9" fill-rule="evenodd" fill-opacity="1" stroke="#000000" stroke-opacity="1" stroke-width="3.2"/>
<circle clip-path="url(#clip623)" cx="250.72" cy="1433.78" r="14.4" fill="#009af9" fill-rule="evenodd" fill-opacity="1" stroke="#000000" stroke-opacity="1" stroke-width="3.2"/>
<polyline clip-path="url(#clip623)" style="stroke:#e26f46; stroke-linecap:butt; stroke-linejoin:round; stroke-width:12; stroke-opacity:1; fill:none" points="
  2291.53,87.6286 1999.99,162.494 1708.44,237.359 1416.9,312.224 1125.35,387.09 833.809,461.955 542.265,536.82 250.72,611.686 
  "/>
<polyline clip-path="url(#clip623)" style="stroke:#3da44d; stroke-linecap:butt; stroke-linejoin:round; stroke-width:12; stroke-opacity:1; fill:none" points="
  2291.53,162.494 1999.99,312.224 1708.44,461.955 1416.9,611.686 1125.35,761.416 833.809,911.147 542.265,1060.88 250.72,1210.61 
  "/>
<path clip-path="url(#clip620)" d="
M261.605 302.168 L554.397 302.168 L554.397 94.8081 L261.605 94.8081  Z
  " fill="#ffffff" fill-rule="evenodd" fill-opacity="1"/>
<polyline clip-path="url(#clip620)" style="stroke:#000000; stroke-linecap:butt; stroke-linejoin:round; stroke-width:4; stroke-opacity:1; fill:none" points="
  261.605,302.168 554.397,302.168 554.397,94.8081 261.605,94.8081 261.605,302.168 
  "/>
<polyline clip-path="url(#clip620)" style="stroke:#009af9; stroke-linecap:butt; stroke-linejoin:round; stroke-width:4; stroke-opacity:1; fill:none" points="
  285.641,146.648 429.858,146.648 
  "/>
<circle clip-path="url(#clip620)" cx="357.749" cy="146.648" r="23.04" fill="#009af9" fill-rule="evenodd" fill-opacity="1" stroke="#000000" stroke-opacity="1" stroke-width="5.12"/>
<path clip-path="url(#clip620)" d="M467.737 166.336 Q465.931 170.965 464.218 172.377 Q462.505 173.789 459.635 173.789 L456.232 173.789 L456.232 170.224 L458.732 170.224 Q460.492 170.224 461.464 169.391 Q462.436 168.558 463.617 165.456 L464.38 163.511 L453.894 138.002 L458.408 138.002 L466.51 158.28 L474.612 138.002 L479.126 138.002 L467.737 166.336 Z" fill="#000000" fill-rule="evenodd" fill-opacity="1" /><path clip-path="url(#clip620)" d="M486.417 159.993 L494.056 159.993 L494.056 133.627 L485.746 135.294 L485.746 131.035 L494.01 129.368 L498.686 129.368 L498.686 159.993 L506.325 159.993 L506.325 163.928 L486.417 163.928 L486.417 159.993 Z" fill="#000000" fill-rule="evenodd" fill-opacity="1" /><polyline clip-path="url(#clip620)" style="stroke:#e26f46; stroke-linecap:butt; stroke-linejoin:round; stroke-width:4; stroke-opacity:1; fill:none" points="
  285.641,198.488 429.858,198.488 
  "/>
<path clip-path="url(#clip620)" d="M477.434 207.836 Q477.434 208.024 477.223 208.75 Q477.012 209.476 476.497 210.6 Q476.005 211.724 475.326 212.755 Q474.647 213.762 473.522 214.512 Q472.422 215.238 471.157 215.238 Q469.47 215.238 468.346 214.113 Q467.222 212.989 467.222 211.303 Q467.222 211.069 467.245 210.834 Q467.269 210.6 467.292 210.46 Q467.315 210.296 467.386 210.038 Q467.479 209.757 467.503 209.64 Q467.55 209.523 467.667 209.171 Q467.807 208.797 467.854 208.656 Q470.829 201.067 470.829 197.905 Q470.829 194.556 468.229 194.556 Q465.91 194.556 463.615 196.242 Q462.561 197.085 461.553 198.584 Q460.546 200.083 460.359 200.646 Q460.148 201.864 459.844 202.8 Q459.703 203.456 459.024 206.009 L457.97 210.342 L457.056 213.973 Q456.869 214.488 456.354 214.863 Q455.838 215.238 455.276 215.238 Q454.808 215.238 454.339 214.91 Q453.894 214.605 453.894 213.879 Q453.894 213.505 454.082 212.825 L461.038 185.187 L461.179 184.25 Q461.179 183.969 461.062 183.828 Q460.968 183.664 460.406 183.547 Q459.867 183.43 458.79 183.43 Q458.345 183.43 458.134 183.407 Q457.946 183.383 457.782 183.266 Q457.619 183.126 457.619 182.845 Q457.619 182.446 457.782 182.236 Q457.97 182.001 458.11 181.954 Q458.251 181.908 458.532 181.884 Q458.93 181.861 460.265 181.744 Q461.6 181.603 462.748 181.509 Q463.896 181.416 464.388 181.416 Q464.669 181.416 464.809 181.556 Q464.973 181.673 464.997 181.814 L465.02 181.931 L461.272 197.179 Q464.247 193.502 468.369 193.502 Q471.04 193.502 472.468 194.884 Q473.897 196.242 473.897 198.631 Q473.897 201.372 470.969 209.171 Q470.103 211.35 470.103 212.591 Q470.103 213.411 470.36 213.786 Q470.641 214.16 471.25 214.16 Q472.187 214.16 473.007 213.622 Q473.85 213.059 474.436 212.146 Q475.021 211.209 475.42 210.272 Q475.841 209.312 476.146 208.234 Q476.333 207.649 476.427 207.508 Q476.544 207.368 476.872 207.368 Q477.434 207.368 477.434 207.836 Z" fill="#000000" fill-rule="evenodd" fill-opacity="1" /><polyline clip-path="url(#clip620)" style="stroke:#3da44d; stroke-linecap:butt; stroke-linejoin:round; stroke-width:4; stroke-opacity:1; fill:none" points="
  285.641,250.328 429.858,250.328 
  "/>
<path clip-path="url(#clip620)" d="M477.434 267.428 Q477.434 267.616 477.223 268.342 Q477.012 269.068 476.497 270.192 Q476.005 271.316 475.326 272.347 Q474.647 273.354 473.522 274.104 Q472.422 274.83 471.157 274.83 Q469.47 274.83 468.346 273.705 Q467.222 272.581 467.222 270.895 Q467.222 270.661 467.245 270.426 Q467.269 270.192 467.292 270.052 Q467.315 269.888 467.386 269.63 Q467.479 269.349 467.503 269.232 Q467.55 269.115 467.667 268.763 Q467.807 268.389 467.854 268.248 Q470.829 260.659 470.829 257.497 Q470.829 254.148 468.229 254.148 Q465.91 254.148 463.615 255.834 Q462.561 256.677 461.553 258.176 Q460.546 259.675 460.359 260.238 Q460.148 261.456 459.844 262.392 Q459.703 263.048 459.024 265.601 L457.97 269.934 L457.056 273.565 Q456.869 274.08 456.354 274.455 Q455.838 274.83 455.276 274.83 Q454.808 274.83 454.339 274.502 Q453.894 274.197 453.894 273.471 Q453.894 273.096 454.082 272.417 L461.038 244.779 L461.179 243.842 Q461.179 243.561 461.062 243.42 Q460.968 243.256 460.406 243.139 Q459.867 243.022 458.79 243.022 Q458.345 243.022 458.134 242.999 Q457.946 242.975 457.782 242.858 Q457.619 242.718 457.619 242.436 Q457.619 242.038 457.782 241.827 Q457.97 241.593 458.11 241.546 Q458.251 241.5 458.532 241.476 Q458.93 241.453 460.265 241.336 Q461.6 241.195 462.748 241.101 Q463.896 241.008 464.388 241.008 Q464.669 241.008 464.809 241.148 Q464.973 241.265 464.997 241.406 L465.02 241.523 L461.272 256.771 Q464.247 253.094 468.369 253.094 Q471.04 253.094 472.468 254.476 Q473.897 255.834 473.897 258.223 Q473.897 260.964 470.969 268.763 Q470.103 270.942 470.103 272.183 Q470.103 273.003 470.36 273.378 Q470.641 273.752 471.25 273.752 Q472.187 273.752 473.007 273.214 Q473.85 272.651 474.436 271.738 Q475.021 270.801 475.42 269.864 Q475.841 268.904 476.146 267.826 Q476.333 267.241 476.427 267.1 Q476.544 266.96 476.872 266.96 Q477.434 266.96 477.434 267.428 Z" fill="#000000" fill-rule="evenodd" fill-opacity="1" /><path clip-path="url(#clip620)" d="M482.311 247.982 Q482.311 247.376 482.36 247.195 Q482.426 247.015 482.688 246.736 L489.132 239.555 Q492.657 235.587 492.657 232.128 Q492.657 229.882 491.476 228.275 Q490.312 226.668 488.165 226.668 Q486.689 226.668 485.443 227.57 Q484.197 228.472 483.623 230.078 Q483.721 230.046 484.066 230.046 Q484.902 230.046 485.361 230.57 Q485.836 231.095 485.836 231.8 Q485.836 232.702 485.246 233.144 Q484.672 233.571 484.098 233.571 Q483.869 233.571 483.557 233.521 Q483.262 233.472 482.787 233.013 Q482.311 232.538 482.311 231.701 Q482.311 229.357 484.082 227.488 Q485.869 225.619 488.591 225.619 Q491.673 225.619 493.69 227.455 Q495.723 229.275 495.723 232.128 Q495.723 233.128 495.411 234.046 Q495.116 234.948 494.706 235.653 Q494.313 236.358 493.231 237.489 Q492.149 238.62 491.28 239.424 Q490.411 240.227 488.46 241.932 L484.902 245.392 L490.952 245.392 Q493.903 245.392 494.133 245.13 Q494.46 244.654 494.87 242.146 L495.723 242.146 L494.772 247.982 L482.311 247.982 Z" fill="#000000" fill-rule="evenodd" fill-opacity="1" /></svg>
