<?xml version="1.0" encoding="utf-8"?>
<svg xmlns="http://www.w3.org/2000/svg" xmlns:xlink="http://www.w3.org/1999/xlink" width="600" height="400" viewBox="0 0 2400 1600">
<defs>
  <clipPath id="clip020">
    <rect x="0" y="0" width="2400" height="1600"/>
  </clipPath>
</defs>
<path clip-path="url(#clip020)" d="
M0 1600 L2400 1600 L2400 0 L0 0  Z
  " fill="#ffffff" fill-rule="evenodd" fill-opacity="1"/>
<defs>
  <clipPath id="clip021">
    <rect x="480" y="0" width="1681" height="1600"/>
  </clipPath>
</defs>
<path clip-path="url(#clip020)" d="
M186.274 1486.45 L2352.76 1486.45 L2352.76 123.472 L186.274 123.472  Z
  " fill="#ffffff" fill-rule="evenodd" fill-opacity="1"/>
<defs>
  <clipPath id="clip022">
    <rect x="186" y="123" width="2167" height="1364"/>
  </clipPath>
</defs>
<polyline clip-path="url(#clip022)" style="stroke:#000000; stroke-linecap:butt; stroke-linejoin:round; stroke-width:2; stroke-opacity:0.1; fill:none" points="
  588.231,1486.45 588.231,123.472 
  "/>
<polyline clip-path="url(#clip022)" style="stroke:#000000; stroke-linecap:butt; stroke-linejoin:round; stroke-width:2; stroke-opacity:0.1; fill:none" points="
  1014.03,1486.45 1014.03,123.472 
  "/>
<polyline clip-path="url(#clip022)" style="stroke:#000000; stroke-linecap:butt; stroke-linejoin:round; stroke-width:2; stroke-opacity:0.1; fill:none" points="
  1439.84,1486.45 1439.84,123.472 
  "/>
<polyline clip-path="url(#clip022)" style="stroke:#000000; stroke-linecap:butt; stroke-linejoin:round; stroke-width:2; stroke-opacity:0.1; fill:none" points="
  1865.64,1486.45 1865.64,123.472 
  "/>
<polyline clip-path="url(#clip022)" style="stroke:#000000; stroke-linecap:butt; stroke-linejoin:round; stroke-width:2; stroke-opacity:0.1; fill:none" points="
  2291.44,1486.45 2291.44,123.472 
  "/>
<polyline clip-path="url(#clip020)" style="stroke:#000000; stroke-linecap:butt; stroke-linejoin:round; stroke-width:4; stroke-opacity:1; fill:none" points="
  186.274,1486.45 2352.76,1486.45 
  "/>
<polyline clip-path="url(#clip020)" style="stroke:#000000; stroke-linecap:butt; stroke-linejoin:round; stroke-width:4; stroke-opacity:1; fill:none" points="
  588.231,1486.45 588.231,1467.55 
  "/>
<polyline clip-path="url(#clip020)" style="stroke:#000000; stroke-linecap:butt; stroke-linejoin:round; stroke-width:4; stroke-opacity:1; fill:none" points="
  1014.03,1486.45 1014.03,1467.55 
  "/>
<polyline clip-path="url(#clip020)" style="stroke:#000000; stroke-linecap:butt; stroke-linejoin:round; stroke-width:4; stroke-opacity:1; fill:none" points="
  1439.84,1486.45 1439.84,1467.55 
  "/>
<polyline clip-path="url(#clip020)" style="stroke:#000000; stroke-linecap:butt; stroke-linejoin:round; stroke-width:4; stroke-opacity:1; fill:none" points="
  1865.64,1486.45 1865.64,1467.55 
  "/>
<polyline clip-path="url(#clip020)" style="stroke:#000000; stroke-linecap:butt; stroke-linejoin:round; stroke-width:4; stroke-opacity:1; fill:none" points="
  2291.44,1486.45 2291.44,1467.55 
  "/>
<path clip-path="url(#clip020)" d="M578.509 1514.29 L596.866 1514.29 L596.866 1518.22 L582.792 1518.22 L582.792 1526.7 Q583.81 1526.35 584.829 1526.19 Q585.847 1526 586.866 1526 Q592.653 1526 596.032 1529.17 Q599.412 1532.34 599.412 1537.76 Q599.412 1543.34 595.94 1546.44 Q592.467 1549.52 586.148 1549.52 Q583.972 1549.52 581.704 1549.15 Q579.458 1548.78 577.051 1548.04 L577.051 1543.34 Q579.134 1544.47 581.356 1545.03 Q583.579 1545.58 586.055 1545.58 Q590.06 1545.58 592.398 1543.48 Q594.736 1541.37 594.736 1537.76 Q594.736 1534.15 592.398 1532.04 Q590.06 1529.94 586.055 1529.94 Q584.18 1529.94 582.305 1530.35 Q580.454 1530.77 578.509 1531.65 L578.509 1514.29 Z" fill="#000000" fill-rule="evenodd" fill-opacity="1" /><path clip-path="url(#clip020)" d="M988.721 1544.91 L996.36 1544.91 L996.36 1518.55 L988.05 1520.21 L988.05 1515.95 L996.314 1514.29 L1000.99 1514.29 L1000.99 1544.91 L1008.63 1544.91 L1008.63 1548.85 L988.721 1548.85 L988.721 1544.91 Z" fill="#000000" fill-rule="evenodd" fill-opacity="1" /><path clip-path="url(#clip020)" d="M1028.07 1517.37 Q1024.46 1517.37 1022.63 1520.93 Q1020.83 1524.47 1020.83 1531.6 Q1020.83 1538.71 1022.63 1542.27 Q1024.46 1545.82 1028.07 1545.82 Q1031.71 1545.82 1033.51 1542.27 Q1035.34 1538.71 1035.34 1531.6 Q1035.34 1524.47 1033.51 1520.93 Q1031.71 1517.37 1028.07 1517.37 M1028.07 1513.66 Q1033.88 1513.66 1036.94 1518.27 Q1040.02 1522.85 1040.02 1531.6 Q1040.02 1540.33 1036.94 1544.94 Q1033.88 1549.52 1028.07 1549.52 Q1022.26 1549.52 1019.18 1544.94 Q1016.13 1540.33 1016.13 1531.6 Q1016.13 1522.85 1019.18 1518.27 Q1022.26 1513.66 1028.07 1513.66 Z" fill="#000000" fill-rule="evenodd" fill-opacity="1" /><path clip-path="url(#clip020)" d="M1415.02 1544.91 L1422.66 1544.91 L1422.66 1518.55 L1414.35 1520.21 L1414.35 1515.95 L1422.61 1514.29 L1427.29 1514.29 L1427.29 1544.91 L1434.93 1544.91 L1434.93 1548.85 L1415.02 1548.85 L1415.02 1544.91 Z" fill="#000000" fill-rule="evenodd" fill-opacity="1" /><path clip-path="url(#clip020)" d="M1444.42 1514.29 L1462.78 1514.29 L1462.78 1518.22 L1448.7 1518.22 L1448.7 1526.7 Q1449.72 1526.35 1450.74 1526.19 Q1451.76 1526 1452.78 1526 Q1458.56 1526 1461.94 1529.17 Q1465.32 1532.34 1465.32 1537.76 Q1465.32 1543.34 1461.85 1546.44 Q1458.38 1549.52 1452.06 1549.52 Q1449.88 1549.52 1447.61 1549.15 Q1445.37 1548.78 1442.96 1548.04 L1442.96 1543.34 Q1445.04 1544.47 1447.27 1545.03 Q1449.49 1545.58 1451.97 1545.58 Q1455.97 1545.58 1458.31 1543.48 Q1460.65 1541.37 1460.65 1537.76 Q1460.65 1534.15 1458.31 1532.04 Q1455.97 1529.94 1451.97 1529.94 Q1450.09 1529.94 1448.22 1530.35 Q1446.36 1530.77 1444.42 1531.65 L1444.42 1514.29 Z" fill="#000000" fill-rule="evenodd" fill-opacity="1" /><path clip-path="url(#clip020)" d="M1844.41 1544.91 L1860.73 1544.91 L1860.73 1548.85 L1838.79 1548.85 L1838.79 1544.91 Q1841.45 1542.16 1846.03 1537.53 Q1850.64 1532.88 1851.82 1531.53 Q1854.06 1529.01 1854.94 1527.27 Q1855.85 1525.51 1855.85 1523.82 Q1855.85 1521.07 1853.9 1519.33 Q1851.98 1517.6 1848.88 1517.6 Q1846.68 1517.6 1844.23 1518.36 Q1841.8 1519.13 1839.02 1520.68 L1839.02 1515.95 Q1841.84 1514.82 1844.3 1514.24 Q1846.75 1513.66 1848.79 1513.66 Q1854.16 1513.66 1857.35 1516.35 Q1860.55 1519.03 1860.55 1523.52 Q1860.55 1525.65 1859.74 1527.57 Q1858.95 1529.47 1856.84 1532.07 Q1856.26 1532.74 1853.16 1535.95 Q1850.06 1539.15 1844.41 1544.91 Z" fill="#000000" fill-rule="evenodd" fill-opacity="1" /><path clip-path="url(#clip020)" d="M1880.55 1517.37 Q1876.93 1517.37 1875.11 1520.93 Q1873.3 1524.47 1873.3 1531.6 Q1873.3 1538.71 1875.11 1542.27 Q1876.93 1545.82 1880.55 1545.82 Q1884.18 1545.82 1885.99 1542.27 Q1887.81 1538.71 1887.81 1531.6 Q1887.81 1524.47 1885.99 1520.93 Q1884.18 1517.37 1880.55 1517.37 M1880.55 1513.66 Q1886.36 1513.66 1889.41 1518.27 Q1892.49 1522.85 1892.49 1531.6 Q1892.49 1540.33 1889.41 1544.94 Q1886.36 1549.52 1880.55 1549.52 Q1874.74 1549.52 1871.66 1544.94 Q1868.6 1540.33 1868.6 1531.6 Q1868.6 1522.85 1871.66 1518.27 Q1874.74 1513.66 1880.55 1513.66 Z" fill="#000000" fill-rule="evenodd" fill-opacity="1" /><path clip-path="url(#clip020)" d="M2270.71 1544.91 L2287.03 1544.91 L2287.03 1548.85 L2265.09 1548.85 L2265.09 1544.91 Q2267.75 1542.16 2272.33 1537.53 Q2276.94 1532.88 2278.12 1531.53 Q2280.36 1529.01 2281.24 1527.27 Q2282.15 1525.51 2282.15 1523.82 Q2282.15 1521.07 2280.2 1519.33 Q2278.28 1517.6 2275.18 1517.6 Q2272.98 1517.6 2270.53 1518.36 Q2268.1 1519.13 2265.32 1520.68 L2265.32 1515.95 Q2268.14 1514.82 2270.6 1514.24 Q2273.05 1513.66 2275.09 1513.66 Q2280.46 1513.66 2283.65 1516.35 Q2286.85 1519.03 2286.85 1523.52 Q2286.85 1525.65 2286.04 1527.57 Q2285.25 1529.47 2283.14 1532.07 Q2282.56 1532.74 2279.46 1535.95 Q2276.36 1539.15 2270.71 1544.91 Z" fill="#000000" fill-rule="evenodd" fill-opacity="1" /><path clip-path="url(#clip020)" d="M2296.89 1514.29 L2315.25 1514.29 L2315.25 1518.22 L2301.17 1518.22 L2301.17 1526.7 Q2302.19 1526.35 2303.21 1526.19 Q2304.23 1526 2305.25 1526 Q2311.04 1526 2314.41 1529.17 Q2317.79 1532.34 2317.79 1537.76 Q2317.79 1543.34 2314.32 1546.44 Q2310.85 1549.52 2304.53 1549.52 Q2302.35 1549.52 2300.09 1549.15 Q2297.84 1548.78 2295.43 1548.04 L2295.43 1543.34 Q2297.52 1544.47 2299.74 1545.03 Q2301.96 1545.58 2304.44 1545.58 Q2308.44 1545.58 2310.78 1543.48 Q2313.12 1541.37 2313.12 1537.76 Q2313.12 1534.15 2310.78 1532.04 Q2308.44 1529.94 2304.44 1529.94 Q2302.56 1529.94 2300.69 1530.35 Q2298.84 1530.77 2296.89 1531.65 L2296.89 1514.29 Z" fill="#000000" fill-rule="evenodd" fill-opacity="1" /><polyline clip-path="url(#clip022)" style="stroke:#000000; stroke-linecap:butt; stroke-linejoin:round; stroke-width:2; stroke-opacity:0.1; fill:none" points="
  186.274,1452.77 2352.76,1452.77 
  "/>
<polyline clip-path="url(#clip022)" style="stroke:#000000; stroke-linecap:butt; stroke-linejoin:round; stroke-width:2; stroke-opacity:0.1; fill:none" points="
  186.274,1129.78 2352.76,1129.78 
  "/>
<polyline clip-path="url(#clip022)" style="stroke:#000000; stroke-linecap:butt; stroke-linejoin:round; stroke-width:2; stroke-opacity:0.1; fill:none" points="
  186.274,806.795 2352.76,806.795 
  "/>
<polyline clip-path="url(#clip022)" style="stroke:#000000; stroke-linecap:butt; stroke-linejoin:round; stroke-width:2; stroke-opacity:0.1; fill:none" points="
  186.274,483.809 2352.76,483.809 
  "/>
<polyline clip-path="url(#clip022)" style="stroke:#000000; stroke-linecap:butt; stroke-linejoin:round; stroke-width:2; stroke-opacity:0.1; fill:none" points="
  186.274,160.822 2352.76,160.822 
  "/>
<polyline clip-path="url(#clip020)" style="stroke:#000000; stroke-linecap:butt; stroke-linejoin:round; stroke-width:4; stroke-opacity:1; fill:none" points="
  186.274,1486.45 186.274,123.472 
  "/>
<polyline clip-path="url(#clip020)" style="stroke:#000000; stroke-linecap:butt; stroke-linejoin:round; stroke-width:4; stroke-opacity:1; fill:none" points="
  186.274,1452.77 205.172,1452.77 
  "/>
<polyline clip-path="url(#clip020)" style="stroke:#000000; stroke-linecap:butt; stroke-linejoin:round; stroke-width:4; stroke-opacity:1; fill:none" points="
  186.274,1129.78 205.172,1129.78 
  "/>
<polyline clip-path="url(#clip020)" style="stroke:#000000; stroke-linecap:butt; stroke-linejoin:round; stroke-width:4; stroke-opacity:1; fill:none" points="
  186.274,806.795 205.172,806.795 
  "/>
<polyline clip-path="url(#clip020)" style="stroke:#000000; stroke-linecap:butt; stroke-linejoin:round; stroke-width:4; stroke-opacity:1; fill:none" points="
  186.274,483.809 205.172,483.809 
  "/>
<polyline clip-path="url(#clip020)" style="stroke:#000000; stroke-linecap:butt; stroke-linejoin:round; stroke-width:4; stroke-opacity:1; fill:none" points="
  186.274,160.822 205.172,160.822 
  "/>
<path clip-path="url(#clip020)" d="M62.9365 1438.57 Q59.3254 1438.57 57.4967 1442.13 Q55.6912 1445.67 55.6912 1452.8 Q55.6912 1459.91 57.4967 1463.48 Q59.3254 1467.02 62.9365 1467.02 Q66.5707 1467.02 68.3763 1463.48 Q70.205 1459.91 70.205 1452.8 Q70.205 1445.67 68.3763 1442.13 Q66.5707 1438.57 62.9365 1438.57 M62.9365 1434.86 Q68.7467 1434.86 71.8022 1439.47 Q74.8809 1444.05 74.8809 1452.8 Q74.8809 1461.53 71.8022 1466.14 Q68.7467 1470.72 62.9365 1470.72 Q57.1264 1470.72 54.0477 1466.14 Q50.9921 1461.53 50.9921 1452.8 Q50.9921 1444.05 54.0477 1439.47 Q57.1264 1434.86 62.9365 1434.86 Z" fill="#000000" fill-rule="evenodd" fill-opacity="1" /><path clip-path="url(#clip020)" d="M83.0984 1464.17 L87.9827 1464.17 L87.9827 1470.05 L83.0984 1470.05 L83.0984 1464.17 Z" fill="#000000" fill-rule="evenodd" fill-opacity="1" /><path clip-path="url(#clip020)" d="M108.168 1438.57 Q104.557 1438.57 102.728 1442.13 Q100.922 1445.67 100.922 1452.8 Q100.922 1459.91 102.728 1463.48 Q104.557 1467.02 108.168 1467.02 Q111.802 1467.02 113.608 1463.48 Q115.436 1459.91 115.436 1452.8 Q115.436 1445.67 113.608 1442.13 Q111.802 1438.57 108.168 1438.57 M108.168 1434.86 Q113.978 1434.86 117.033 1439.47 Q120.112 1444.05 120.112 1452.8 Q120.112 1461.53 117.033 1466.14 Q113.978 1470.72 108.168 1470.72 Q102.358 1470.72 99.2789 1466.14 Q96.2234 1461.53 96.2234 1452.8 Q96.2234 1444.05 99.2789 1439.47 Q102.358 1434.86 108.168 1434.86 Z" fill="#000000" fill-rule="evenodd" fill-opacity="1" /><path clip-path="url(#clip020)" d="M138.33 1438.57 Q134.719 1438.57 132.89 1442.13 Q131.084 1445.67 131.084 1452.8 Q131.084 1459.91 132.89 1463.48 Q134.719 1467.02 138.33 1467.02 Q141.964 1467.02 143.769 1463.48 Q145.598 1459.91 145.598 1452.8 Q145.598 1445.67 143.769 1442.13 Q141.964 1438.57 138.33 1438.57 M138.33 1434.86 Q144.14 1434.86 147.195 1439.47 Q150.274 1444.05 150.274 1452.8 Q150.274 1461.53 147.195 1466.14 Q144.14 1470.72 138.33 1470.72 Q132.519 1470.72 129.441 1466.14 Q126.385 1461.53 126.385 1452.8 Q126.385 1444.05 129.441 1439.47 Q132.519 1434.86 138.33 1434.86 Z" fill="#000000" fill-rule="evenodd" fill-opacity="1" /><path clip-path="url(#clip020)" d="M63.9319 1115.58 Q60.3208 1115.58 58.4921 1119.15 Q56.6865 1122.69 56.6865 1129.82 Q56.6865 1136.92 58.4921 1140.49 Q60.3208 1144.03 63.9319 1144.03 Q67.5661 1144.03 69.3717 1140.49 Q71.2004 1136.92 71.2004 1129.82 Q71.2004 1122.69 69.3717 1119.15 Q67.5661 1115.58 63.9319 1115.58 M63.9319 1111.88 Q69.742 1111.88 72.7976 1116.48 Q75.8763 1121.07 75.8763 1129.82 Q75.8763 1138.54 72.7976 1143.15 Q69.742 1147.73 63.9319 1147.73 Q58.1217 1147.73 55.043 1143.15 Q51.9875 1138.54 51.9875 1129.82 Q51.9875 1121.07 55.043 1116.48 Q58.1217 1111.88 63.9319 1111.88 Z" fill="#000000" fill-rule="evenodd" fill-opacity="1" /><path clip-path="url(#clip020)" d="M84.0938 1141.18 L88.978 1141.18 L88.978 1147.06 L84.0938 1147.06 L84.0938 1141.18 Z" fill="#000000" fill-rule="evenodd" fill-opacity="1" /><path clip-path="url(#clip020)" d="M103.191 1143.13 L119.51 1143.13 L119.51 1147.06 L97.566 1147.06 L97.566 1143.13 Q100.228 1140.37 104.811 1135.74 Q109.418 1131.09 110.598 1129.75 Q112.844 1127.22 113.723 1125.49 Q114.626 1123.73 114.626 1122.04 Q114.626 1119.28 112.682 1117.55 Q110.76 1115.81 107.658 1115.81 Q105.459 1115.81 103.006 1116.58 Q100.575 1117.34 97.7974 1118.89 L97.7974 1114.17 Q100.621 1113.03 103.075 1112.46 Q105.529 1111.88 107.566 1111.88 Q112.936 1111.88 116.131 1114.56 Q119.325 1117.25 119.325 1121.74 Q119.325 1123.87 118.515 1125.79 Q117.728 1127.69 115.621 1130.28 Q115.043 1130.95 111.941 1134.17 Q108.839 1137.36 103.191 1143.13 Z" fill="#000000" fill-rule="evenodd" fill-opacity="1" /><path clip-path="url(#clip020)" d="M129.371 1112.5 L147.728 1112.5 L147.728 1116.44 L133.654 1116.44 L133.654 1124.91 Q134.672 1124.56 135.691 1124.4 Q136.709 1124.22 137.728 1124.22 Q143.515 1124.22 146.894 1127.39 Q150.274 1130.56 150.274 1135.97 Q150.274 1141.55 146.802 1144.65 Q143.33 1147.73 137.01 1147.73 Q134.834 1147.73 132.566 1147.36 Q130.32 1146.99 127.913 1146.25 L127.913 1141.55 Q129.996 1142.69 132.219 1143.24 Q134.441 1143.8 136.918 1143.8 Q140.922 1143.8 143.26 1141.69 Q145.598 1139.59 145.598 1135.97 Q145.598 1132.36 143.26 1130.26 Q140.922 1128.15 136.918 1128.15 Q135.043 1128.15 133.168 1128.57 Q131.316 1128.98 129.371 1129.86 L129.371 1112.5 Z" fill="#000000" fill-rule="evenodd" fill-opacity="1" /><path clip-path="url(#clip020)" d="M62.9365 792.594 Q59.3254 792.594 57.4967 796.159 Q55.6912 799.701 55.6912 806.83 Q55.6912 813.937 57.4967 817.501 Q59.3254 821.043 62.9365 821.043 Q66.5707 821.043 68.3763 817.501 Q70.205 813.937 70.205 806.83 Q70.205 799.701 68.3763 796.159 Q66.5707 792.594 62.9365 792.594 M62.9365 788.89 Q68.7467 788.89 71.8022 793.497 Q74.8809 798.08 74.8809 806.83 Q74.8809 815.557 71.8022 820.163 Q68.7467 824.747 62.9365 824.747 Q57.1264 824.747 54.0477 820.163 Q50.9921 815.557 50.9921 806.83 Q50.9921 798.08 54.0477 793.497 Q57.1264 788.89 62.9365 788.89 Z" fill="#000000" fill-rule="evenodd" fill-opacity="1" /><path clip-path="url(#clip020)" d="M83.0984 818.196 L87.9827 818.196 L87.9827 824.075 L83.0984 824.075 L83.0984 818.196 Z" fill="#000000" fill-rule="evenodd" fill-opacity="1" /><path clip-path="url(#clip020)" d="M98.2141 789.515 L116.57 789.515 L116.57 793.451 L102.496 793.451 L102.496 801.923 Q103.515 801.576 104.534 801.414 Q105.552 801.228 106.571 801.228 Q112.358 801.228 115.737 804.4 Q119.117 807.571 119.117 812.988 Q119.117 818.566 115.645 821.668 Q112.172 824.747 105.853 824.747 Q103.677 824.747 101.409 824.376 Q99.1632 824.006 96.7558 823.265 L96.7558 818.566 Q98.8391 819.7 101.061 820.256 Q103.284 820.812 105.76 820.812 Q109.765 820.812 112.103 818.705 Q114.441 816.599 114.441 812.988 Q114.441 809.376 112.103 807.27 Q109.765 805.164 105.76 805.164 Q103.885 805.164 102.01 805.58 Q100.159 805.997 98.2141 806.876 L98.2141 789.515 Z" fill="#000000" fill-rule="evenodd" fill-opacity="1" /><path clip-path="url(#clip020)" d="M138.33 792.594 Q134.719 792.594 132.89 796.159 Q131.084 799.701 131.084 806.83 Q131.084 813.937 132.89 817.501 Q134.719 821.043 138.33 821.043 Q141.964 821.043 143.769 817.501 Q145.598 813.937 145.598 806.83 Q145.598 799.701 143.769 796.159 Q141.964 792.594 138.33 792.594 M138.33 788.89 Q144.14 788.89 147.195 793.497 Q150.274 798.08 150.274 806.83 Q150.274 815.557 147.195 820.163 Q144.14 824.747 138.33 824.747 Q132.519 824.747 129.441 820.163 Q126.385 815.557 126.385 806.83 Q126.385 798.08 129.441 793.497 Q132.519 788.89 138.33 788.89 Z" fill="#000000" fill-rule="evenodd" fill-opacity="1" /><path clip-path="url(#clip020)" d="M63.9319 469.607 Q60.3208 469.607 58.4921 473.172 Q56.6865 476.714 56.6865 483.843 Q56.6865 490.95 58.4921 494.515 Q60.3208 498.056 63.9319 498.056 Q67.5661 498.056 69.3717 494.515 Q71.2004 490.95 71.2004 483.843 Q71.2004 476.714 69.3717 473.172 Q67.5661 469.607 63.9319 469.607 M63.9319 465.904 Q69.742 465.904 72.7976 470.51 Q75.8763 475.093 75.8763 483.843 Q75.8763 492.57 72.7976 497.177 Q69.742 501.76 63.9319 501.76 Q58.1217 501.76 55.043 497.177 Q51.9875 492.57 51.9875 483.843 Q51.9875 475.093 55.043 470.51 Q58.1217 465.904 63.9319 465.904 Z" fill="#000000" fill-rule="evenodd" fill-opacity="1" /><path clip-path="url(#clip020)" d="M84.0938 495.209 L88.978 495.209 L88.978 501.089 L84.0938 501.089 L84.0938 495.209 Z" fill="#000000" fill-rule="evenodd" fill-opacity="1" /><path clip-path="url(#clip020)" d="M97.9826 466.529 L120.205 466.529 L120.205 468.519 L107.658 501.089 L102.774 501.089 L114.58 470.464 L97.9826 470.464 L97.9826 466.529 Z" fill="#000000" fill-rule="evenodd" fill-opacity="1" /><path clip-path="url(#clip020)" d="M129.371 466.529 L147.728 466.529 L147.728 470.464 L133.654 470.464 L133.654 478.936 Q134.672 478.589 135.691 478.427 Q136.709 478.241 137.728 478.241 Q143.515 478.241 146.894 481.413 Q150.274 484.584 150.274 490.001 Q150.274 495.579 146.802 498.681 Q143.33 501.76 137.01 501.76 Q134.834 501.76 132.566 501.39 Q130.32 501.019 127.913 500.278 L127.913 495.579 Q129.996 496.714 132.219 497.269 Q134.441 497.825 136.918 497.825 Q140.922 497.825 143.26 495.718 Q145.598 493.612 145.598 490.001 Q145.598 486.39 143.26 484.283 Q140.922 482.177 136.918 482.177 Q135.043 482.177 133.168 482.593 Q131.316 483.01 129.371 483.89 L129.371 466.529 Z" fill="#000000" fill-rule="evenodd" fill-opacity="1" /><path clip-path="url(#clip020)" d="M53.7467 174.167 L61.3856 174.167 L61.3856 147.801 L53.0754 149.468 L53.0754 145.208 L61.3393 143.542 L66.0152 143.542 L66.0152 174.167 L73.654 174.167 L73.654 178.102 L53.7467 178.102 L53.7467 174.167 Z" fill="#000000" fill-rule="evenodd" fill-opacity="1" /><path clip-path="url(#clip020)" d="M83.0984 172.222 L87.9827 172.222 L87.9827 178.102 L83.0984 178.102 L83.0984 172.222 Z" fill="#000000" fill-rule="evenodd" fill-opacity="1" /><path clip-path="url(#clip020)" d="M108.168 146.62 Q104.557 146.62 102.728 150.185 Q100.922 153.727 100.922 160.856 Q100.922 167.963 102.728 171.528 Q104.557 175.069 108.168 175.069 Q111.802 175.069 113.608 171.528 Q115.436 167.963 115.436 160.856 Q115.436 153.727 113.608 150.185 Q111.802 146.62 108.168 146.62 M108.168 142.917 Q113.978 142.917 117.033 147.523 Q120.112 152.106 120.112 160.856 Q120.112 169.583 117.033 174.19 Q113.978 178.773 108.168 178.773 Q102.358 178.773 99.2789 174.19 Q96.2234 169.583 96.2234 160.856 Q96.2234 152.106 99.2789 147.523 Q102.358 142.917 108.168 142.917 Z" fill="#000000" fill-rule="evenodd" fill-opacity="1" /><path clip-path="url(#clip020)" d="M138.33 146.62 Q134.719 146.62 132.89 150.185 Q131.084 153.727 131.084 160.856 Q131.084 167.963 132.89 171.528 Q134.719 175.069 138.33 175.069 Q141.964 175.069 143.769 171.528 Q145.598 167.963 145.598 160.856 Q145.598 153.727 143.769 150.185 Q141.964 146.62 138.33 146.62 M138.33 142.917 Q144.14 142.917 147.195 147.523 Q150.274 152.106 150.274 160.856 Q150.274 169.583 147.195 174.19 Q144.14 178.773 138.33 178.773 Q132.519 178.773 129.441 174.19 Q126.385 169.583 126.385 160.856 Q126.385 152.106 129.441 147.523 Q132.519 142.917 138.33 142.917 Z" fill="#000000" fill-rule="evenodd" fill-opacity="1" /><path clip-path="url(#clip020)" d="M762.078 28.9478 L762.078 35.9153 Q758.919 34.1734 755.719 33.3227 Q752.559 32.4315 749.318 32.4315 Q742.067 32.4315 738.057 37.0496 Q734.046 41.6271 734.046 49.9314 Q734.046 58.2358 738.057 62.8538 Q742.067 67.4314 749.318 67.4314 Q752.559 67.4314 755.719 66.5807 Q758.919 65.6895 762.078 63.9476 L762.078 70.8341 Q758.959 72.2924 755.597 73.0216 Q752.275 73.7508 748.508 73.7508 Q738.259 73.7508 732.223 67.3098 Q726.187 60.8689 726.187 49.9314 Q726.187 38.832 732.264 32.472 Q738.381 26.1121 748.994 26.1121 Q752.437 26.1121 755.719 26.8413 Q759 27.5299 762.078 28.9478 Z" fill="#000000" fill-rule="evenodd" fill-opacity="1" /><path clip-path="url(#clip020)" d="M792.622 32.4315 Q786.627 32.4315 783.143 37.1306 Q779.659 41.7891 779.659 49.9314 Q779.659 58.0738 783.103 62.7728 Q786.586 67.4314 792.622 67.4314 Q798.577 67.4314 802.061 62.7323 Q805.545 58.0333 805.545 49.9314 Q805.545 41.8701 802.061 37.1711 Q798.577 32.4315 792.622 32.4315 M792.622 26.1121 Q802.344 26.1121 807.894 32.4315 Q813.444 38.7509 813.444 49.9314 Q813.444 61.0714 807.894 67.4314 Q802.344 73.7508 792.622 73.7508 Q782.86 73.7508 777.31 67.4314 Q771.801 61.0714 771.801 49.9314 Q771.801 38.7509 777.31 32.4315 Q782.86 26.1121 792.622 26.1121 Z" fill="#000000" fill-rule="evenodd" fill-opacity="1" /><path clip-path="url(#clip020)" d="M863.513 45.1919 L863.513 72.576 L856.059 72.576 L856.059 45.4349 Q856.059 38.994 853.548 35.7938 Q851.036 32.5936 846.013 32.5936 Q839.977 32.5936 836.494 36.4419 Q833.01 40.2903 833.01 46.9338 L833.01 72.576 L825.516 72.576 L825.516 27.2059 L833.01 27.2059 L833.01 34.2544 Q835.683 30.163 839.289 28.1376 Q842.934 26.1121 847.674 26.1121 Q855.492 26.1121 859.503 30.9732 Q863.513 35.7938 863.513 45.1919 Z" fill="#000000" fill-rule="evenodd" fill-opacity="1" /><path clip-path="url(#clip020)" d="M908.235 34.0924 L908.235 9.54393 L915.689 9.54393 L915.689 72.576 L908.235 72.576 L908.235 65.7705 Q905.886 69.8214 902.28 71.8063 Q898.715 73.7508 893.692 73.7508 Q885.469 73.7508 880.284 67.1883 Q875.139 60.6258 875.139 49.9314 Q875.139 39.2371 880.284 32.6746 Q885.469 26.1121 893.692 26.1121 Q898.715 26.1121 902.28 28.0971 Q905.886 30.0415 908.235 34.0924 M882.836 49.9314 Q882.836 58.1548 886.198 62.8538 Q889.601 67.5124 895.515 67.5124 Q901.43 67.5124 904.832 62.8538 Q908.235 58.1548 908.235 49.9314 Q908.235 41.7081 904.832 37.0496 Q901.43 32.3505 895.515 32.3505 Q889.601 32.3505 886.198 37.0496 Q882.836 41.7081 882.836 49.9314 Z" fill="#000000" fill-rule="evenodd" fill-opacity="1" /><path clip-path="url(#clip020)" d="M965.515 65.6895 L994.074 65.6895 L994.074 72.576 L955.671 72.576 L955.671 65.6895 Q960.33 60.8689 968.35 52.7671 Q976.412 44.6248 978.478 42.2752 Q982.407 37.8598 983.946 34.8216 Q985.526 31.7429 985.526 28.7857 Q985.526 23.9651 982.124 20.927 Q978.761 17.8888 973.333 17.8888 Q969.485 17.8888 965.191 19.2256 Q960.937 20.5624 956.076 23.2765 L956.076 15.0127 Q961.018 13.0277 965.312 12.015 Q969.606 11.0023 973.171 11.0023 Q982.569 11.0023 988.159 15.7013 Q993.75 20.4004 993.75 28.2591 Q993.75 31.9859 992.332 35.3482 Q990.955 38.6699 987.268 43.2069 Q986.255 44.3817 980.827 50.0125 Q975.399 55.6027 965.515 65.6895 Z" fill="#000000" fill-rule="evenodd" fill-opacity="1" /><path clip-path="url(#clip020)" d="M1029.76 39.075 Q1024.25 39.075 1021.01 42.8424 Q1017.81 46.6097 1017.81 53.1722 Q1017.81 59.6941 1021.01 63.502 Q1024.25 67.2693 1029.76 67.2693 Q1035.27 67.2693 1038.47 63.502 Q1041.71 59.6941 1041.71 53.1722 Q1041.71 46.6097 1038.47 42.8424 Q1035.27 39.075 1029.76 39.075 M1046.01 13.4328 L1046.01 20.8865 Q1042.93 19.4281 1039.77 18.6585 Q1036.65 17.8888 1033.57 17.8888 Q1025.47 17.8888 1021.17 23.3575 Q1016.92 28.8262 1016.31 39.8852 Q1018.7 36.3609 1022.31 34.4975 Q1025.91 32.5936 1030.25 32.5936 Q1039.36 32.5936 1044.63 38.1433 Q1049.94 43.6525 1049.94 53.1722 Q1049.94 62.4892 1044.43 68.12 Q1038.92 73.7508 1029.76 73.7508 Q1019.27 73.7508 1013.72 65.73 Q1008.17 57.6687 1008.17 42.3968 Q1008.17 28.0566 1014.98 19.5497 Q1021.78 11.0023 1033.25 11.0023 Q1036.32 11.0023 1039.44 11.6099 Q1042.6 12.2175 1046.01 13.4328 Z" fill="#000000" fill-rule="evenodd" fill-opacity="1" /><path clip-path="url(#clip020)" d="M1088.82 39.9662 Q1094.7 41.222 1097.98 45.1919 Q1101.3 49.1618 1101.3 54.9951 Q1101.3 63.9476 1095.14 68.8492 Q1088.99 73.7508 1077.64 73.7508 Q1073.84 73.7508 1069.79 72.9811 Q1065.77 72.2519 1061.48 70.7531 L1061.48 62.8538 Q1064.88 64.8388 1068.93 65.8515 Q1072.99 66.8642 1077.4 66.8642 Q1085.1 66.8642 1089.11 63.826 Q1093.16 60.7879 1093.16 54.9951 Q1093.16 49.6479 1089.39 46.6502 Q1085.66 43.612 1078.98 43.612 L1071.93 43.612 L1071.93 36.8875 L1079.3 36.8875 Q1085.34 36.8875 1088.54 34.4975 Q1091.74 32.067 1091.74 27.5299 Q1091.74 22.8714 1088.42 20.4004 Q1085.14 17.8888 1078.98 17.8888 Q1075.62 17.8888 1071.77 18.618 Q1067.92 19.3471 1063.3 20.8865 L1063.3 13.5948 Q1067.96 12.2985 1072.01 11.6504 Q1076.1 11.0023 1079.71 11.0023 Q1089.03 11.0023 1094.46 15.2557 Q1099.88 19.4686 1099.88 26.6793 Q1099.88 31.7024 1097.01 35.1862 Q1094.13 38.6294 1088.82 39.9662 Z" fill="#000000" fill-rule="evenodd" fill-opacity="1" /><path clip-path="url(#clip020)" d="M1116.82 62.2867 L1125.36 62.2867 L1125.36 72.576 L1116.82 72.576 L1116.82 62.2867 Z" fill="#000000" fill-rule="evenodd" fill-opacity="1" /><path clip-path="url(#clip020)" d="M1161.7 39.075 Q1156.19 39.075 1152.95 42.8424 Q1149.75 46.6097 1149.75 53.1722 Q1149.75 59.6941 1152.95 63.502 Q1156.19 67.2693 1161.7 67.2693 Q1167.21 67.2693 1170.41 63.502 Q1173.65 59.6941 1173.65 53.1722 Q1173.65 46.6097 1170.41 42.8424 Q1167.21 39.075 1161.7 39.075 M1177.94 13.4328 L1177.94 20.8865 Q1174.87 19.4281 1171.71 18.6585 Q1168.59 17.8888 1165.51 17.8888 Q1157.41 17.8888 1153.11 23.3575 Q1148.86 28.8262 1148.25 39.8852 Q1150.64 36.3609 1154.25 34.4975 Q1157.85 32.5936 1162.19 32.5936 Q1171.3 32.5936 1176.57 38.1433 Q1181.87 43.6525 1181.87 53.1722 Q1181.87 62.4892 1176.36 68.12 Q1170.86 73.7508 1161.7 73.7508 Q1151.21 73.7508 1145.66 65.73 Q1140.11 57.6687 1140.11 42.3968 Q1140.11 28.0566 1146.91 19.5497 Q1153.72 11.0023 1165.18 11.0023 Q1168.26 11.0023 1171.38 11.6099 Q1174.54 12.2175 1177.94 13.4328 Z" fill="#000000" fill-rule="evenodd" fill-opacity="1" /><path clip-path="url(#clip020)" d="M1197.39 65.6895 L1210.76 65.6895 L1210.76 19.5497 L1196.21 22.4663 L1196.21 15.0127 L1210.68 12.096 L1218.86 12.096 L1218.86 65.6895 L1232.23 65.6895 L1232.23 72.576 L1197.39 72.576 L1197.39 65.6895 Z" fill="#000000" fill-rule="evenodd" fill-opacity="1" /><path clip-path="url(#clip020)" d="M1249 71.3202 L1249 63.8666 Q1252.08 65.3249 1255.24 66.0946 Q1258.4 66.8642 1261.43 66.8642 Q1269.54 66.8642 1273.79 61.436 Q1278.08 55.9673 1278.69 44.8678 Q1276.34 48.3516 1272.74 50.215 Q1269.13 52.0784 1264.76 52.0784 Q1255.68 52.0784 1250.37 46.6097 Q1245.11 41.1005 1245.11 31.5808 Q1245.11 22.2638 1250.62 16.633 Q1256.13 11.0023 1265.28 11.0023 Q1275.77 11.0023 1281.28 19.0636 Q1286.83 27.0843 1286.83 42.3968 Q1286.83 56.6965 1280.03 65.2439 Q1273.26 73.7508 1261.8 73.7508 Q1258.72 73.7508 1255.56 73.1431 Q1252.4 72.5355 1249 71.3202 M1265.28 45.678 Q1270.79 45.678 1273.99 41.9107 Q1277.23 38.1433 1277.23 31.5808 Q1277.23 25.0589 1273.99 21.2916 Q1270.79 17.4837 1265.28 17.4837 Q1259.77 17.4837 1256.53 21.2916 Q1253.33 25.0589 1253.33 31.5808 Q1253.33 38.1433 1256.53 41.9107 Q1259.77 45.678 1265.28 45.678 Z" fill="#000000" fill-rule="evenodd" fill-opacity="1" /><path clip-path="url(#clip020)" d="M1299.47 12.096 L1338.36 12.096 L1338.36 15.5798 L1316.4 72.576 L1307.86 72.576 L1328.52 18.9825 L1299.47 18.9825 L1299.47 12.096 Z" fill="#000000" fill-rule="evenodd" fill-opacity="1" /><path clip-path="url(#clip020)" d="M1376.8 19.2256 L1356.14 51.5113 L1376.8 51.5113 L1376.8 19.2256 M1374.66 12.096 L1384.95 12.096 L1384.95 51.5113 L1393.57 51.5113 L1393.57 58.3168 L1384.95 58.3168 L1384.95 72.576 L1376.8 72.576 L1376.8 58.3168 L1349.5 58.3168 L1349.5 50.4176 L1374.66 12.096 Z" fill="#000000" fill-rule="evenodd" fill-opacity="1" /><path clip-path="url(#clip020)" d="M1405.04 12.096 L1443.93 12.096 L1443.93 15.5798 L1421.97 72.576 L1413.42 72.576 L1434.08 18.9825 L1405.04 18.9825 L1405.04 12.096 Z" fill="#000000" fill-rule="evenodd" fill-opacity="1" /><path clip-path="url(#clip020)" d="M1477.39 43.8551 Q1471.55 43.8551 1468.19 46.9743 Q1464.87 50.0935 1464.87 55.5622 Q1464.87 61.0309 1468.19 64.1501 Q1471.55 67.2693 1477.39 67.2693 Q1483.22 67.2693 1486.58 64.1501 Q1489.94 60.9904 1489.94 55.5622 Q1489.94 50.0935 1486.58 46.9743 Q1483.26 43.8551 1477.39 43.8551 M1469.2 40.3713 Q1463.94 39.075 1460.98 35.4697 Q1458.06 31.8644 1458.06 26.6793 Q1458.06 19.4281 1463.21 15.2152 Q1468.39 11.0023 1477.39 11.0023 Q1486.42 11.0023 1491.57 15.2152 Q1496.71 19.4281 1496.71 26.6793 Q1496.71 31.8644 1493.75 35.4697 Q1490.84 39.075 1485.61 40.3713 Q1491.52 41.7486 1494.81 45.759 Q1498.13 49.7694 1498.13 55.5622 Q1498.13 64.3527 1492.74 69.0517 Q1487.39 73.7508 1477.39 73.7508 Q1467.38 73.7508 1461.99 69.0517 Q1456.65 64.3527 1456.65 55.5622 Q1456.65 49.7694 1459.97 45.759 Q1463.29 41.7486 1469.2 40.3713 M1466.21 27.4489 Q1466.21 32.148 1469.12 34.7811 Q1472.08 37.4142 1477.39 37.4142 Q1482.65 37.4142 1485.61 34.7811 Q1488.61 32.148 1488.61 27.4489 Q1488.61 22.7499 1485.61 20.1168 Q1482.65 17.4837 1477.39 17.4837 Q1472.08 17.4837 1469.12 20.1168 Q1466.21 22.7499 1466.21 27.4489 Z" fill="#000000" fill-rule="evenodd" fill-opacity="1" /><path clip-path="url(#clip020)" d="M1530.17 17.4837 Q1523.85 17.4837 1520.65 23.7221 Q1517.49 29.92 1517.49 42.3968 Q1517.49 54.833 1520.65 61.0714 Q1523.85 67.2693 1530.17 67.2693 Q1536.53 67.2693 1539.69 61.0714 Q1542.89 54.833 1542.89 42.3968 Q1542.89 29.92 1539.69 23.7221 Q1536.53 17.4837 1530.17 17.4837 M1530.17 11.0023 Q1540.34 11.0023 1545.69 19.0636 Q1551.07 27.0843 1551.07 42.3968 Q1551.07 57.6687 1545.69 65.73 Q1540.34 73.7508 1530.17 73.7508 Q1520 73.7508 1514.61 65.73 Q1509.27 57.6687 1509.27 42.3968 Q1509.27 27.0843 1514.61 19.0636 Q1520 11.0023 1530.17 11.0023 Z" fill="#000000" fill-rule="evenodd" fill-opacity="1" /><path clip-path="url(#clip020)" d="M1582.95 17.4837 Q1576.63 17.4837 1573.43 23.7221 Q1570.27 29.92 1570.27 42.3968 Q1570.27 54.833 1573.43 61.0714 Q1576.63 67.2693 1582.95 67.2693 Q1589.31 67.2693 1592.47 61.0714 Q1595.67 54.833 1595.67 42.3968 Q1595.67 29.92 1592.47 23.7221 Q1589.31 17.4837 1582.95 17.4837 M1582.95 11.0023 Q1593.12 11.0023 1598.47 19.0636 Q1603.86 27.0843 1603.86 42.3968 Q1603.86 57.6687 1598.47 65.73 Q1593.12 73.7508 1582.95 73.7508 Q1572.79 73.7508 1567.4 65.73 Q1562.05 57.6687 1562.05 42.3968 Q1562.05 27.0843 1567.4 19.0636 Q1572.79 11.0023 1582.95 11.0023 Z" fill="#000000" fill-rule="evenodd" fill-opacity="1" /><path clip-path="url(#clip020)" d="M1635.74 17.4837 Q1629.42 17.4837 1626.22 23.7221 Q1623.06 29.92 1623.06 42.3968 Q1623.06 54.833 1626.22 61.0714 Q1629.42 67.2693 1635.74 67.2693 Q1642.1 67.2693 1645.26 61.0714 Q1648.46 54.833 1648.46 42.3968 Q1648.46 29.92 1645.26 23.7221 Q1642.1 17.4837 1635.74 17.4837 M1635.74 11.0023 Q1645.9 11.0023 1651.25 19.0636 Q1656.64 27.0843 1656.64 42.3968 Q1656.64 57.6687 1651.25 65.73 Q1645.9 73.7508 1635.74 73.7508 Q1625.57 73.7508 1620.18 65.73 Q1614.83 57.6687 1614.83 42.3968 Q1614.83 27.0843 1620.18 19.0636 Q1625.57 11.0023 1635.74 11.0023 Z" fill="#000000" fill-rule="evenodd" fill-opacity="1" /><path clip-path="url(#clip020)" d="M1695.81 39.9662 Q1701.69 41.222 1704.97 45.1919 Q1708.29 49.1618 1708.29 54.9951 Q1708.29 63.9476 1702.13 68.8492 Q1695.97 73.7508 1684.63 73.7508 Q1680.82 73.7508 1676.77 72.9811 Q1672.76 72.2519 1668.47 70.7531 L1668.47 62.8538 Q1671.87 64.8388 1675.92 65.8515 Q1679.97 66.8642 1684.39 66.8642 Q1692.09 66.8642 1696.1 63.826 Q1700.15 60.7879 1700.15 54.9951 Q1700.15 49.6479 1696.38 46.6502 Q1692.65 43.612 1685.97 43.612 L1678.92 43.612 L1678.92 36.8875 L1686.29 36.8875 Q1692.33 36.8875 1695.53 34.4975 Q1698.73 32.067 1698.73 27.5299 Q1698.73 22.8714 1695.41 20.4004 Q1692.13 17.8888 1685.97 17.8888 Q1682.61 17.8888 1678.76 18.618 Q1674.91 19.3471 1670.29 20.8865 L1670.29 13.5948 Q1674.95 12.2985 1679 11.6504 Q1683.09 11.0023 1686.7 11.0023 Q1696.01 11.0023 1701.44 15.2557 Q1706.87 19.4686 1706.87 26.6793 Q1706.87 31.7024 1703.99 35.1862 Q1701.12 38.6294 1695.81 39.9662 Z" fill="#000000" fill-rule="evenodd" fill-opacity="1" /><path clip-path="url(#clip020)" d="M1725.22 65.6895 L1738.59 65.6895 L1738.59 19.5497 L1724.05 22.4663 L1724.05 15.0127 L1738.51 12.096 L1746.69 12.096 L1746.69 65.6895 L1760.06 65.6895 L1760.06 72.576 L1725.22 72.576 L1725.22 65.6895 Z" fill="#000000" fill-rule="evenodd" fill-opacity="1" /><path clip-path="url(#clip020)" d="M1778 65.6895 L1791.37 65.6895 L1791.37 19.5497 L1776.83 22.4663 L1776.83 15.0127 L1791.29 12.096 L1799.47 12.096 L1799.47 65.6895 L1812.84 65.6895 L1812.84 72.576 L1778 72.576 L1778 65.6895 Z" fill="#000000" fill-rule="evenodd" fill-opacity="1" /><polyline clip-path="url(#clip022)" style="stroke:#009af9; stroke-linecap:butt; stroke-linejoin:round; stroke-width:12; stroke-opacity:1; fill:none" points="
  247.59,1447.87 332.75,1433.26 417.91,1409.15 503.071,1375.91 588.231,1334.04 673.392,1284.18 758.552,1227.08 843.713,1163.61 928.873,1094.73 1014.03,1021.49 
  1099.19,944.991 1184.35,866.398 1269.51,786.903 1354.68,707.708 1439.84,630.016 1525,555.004 1610.16,483.809 1695.32,417.509 1780.48,357.111 1865.64,303.53 
  1950.8,257.578 2035.96,219.951 2121.12,191.22 2206.28,171.821 2291.44,162.047 
  "/>
<path clip-path="url(#clip020)" d="
M1987.39 272.585 L2280.54 272.585 L2280.54 168.905 L1987.39 168.905  Z
  " fill="#ffffff" fill-rule="evenodd" fill-opacity="1"/>
<polyline clip-path="url(#clip020)" style="stroke:#000000; stroke-linecap:butt; stroke-linejoin:round; stroke-width:4; stroke-opacity:1; fill:none" points="
  1987.39,272.585 2280.54,272.585 2280.54,168.905 1987.39,168.905 1987.39,272.585 
  "/>
<polyline clip-path="url(#clip020)" style="stroke:#009af9; stroke-linecap:butt; stroke-linejoin:round; stroke-width:4; stroke-opacity:1; fill:none" points="
  2011.46,220.745 2155.89,220.745 
  "/>
<path clip-path="url(#clip020)" d="M2193.81 240.432 Q2192 245.062 2190.29 246.474 Q2188.58 247.886 2185.71 247.886 L2182.3 247.886 L2182.3 244.321 L2184.8 244.321 Q2186.56 244.321 2187.53 243.488 Q2188.51 242.654 2189.69 239.552 L2190.45 237.608 L2179.97 212.099 L2184.48 212.099 L2192.58 232.377 L2200.68 212.099 L2205.2 212.099 L2193.81 240.432 Z" fill="#000000" fill-rule="evenodd" fill-opacity="1" /><path clip-path="url(#clip020)" d="M2212.49 234.089 L2220.13 234.089 L2220.13 207.724 L2211.82 209.391 L2211.82 205.131 L2220.08 203.465 L2224.76 203.465 L2224.76 234.089 L2232.4 234.089 L2232.4 238.025 L2212.49 238.025 L2212.49 234.089 Z" fill="#000000" fill-rule="evenodd" fill-opacity="1" /></svg>
