<?xml version="1.0" encoding="utf-8"?>
<svg xmlns="http://www.w3.org/2000/svg" xmlns:xlink="http://www.w3.org/1999/xlink" width="600" height="400" viewBox="0 0 2400 1600">
<defs>
  <clipPath id="clip100">
    <rect x="0" y="0" width="2400" height="1600"/>
  </clipPath>
</defs>
<path clip-path="url(#clip100)" d="
M0 1600 L2400 1600 L2400 0 L0 0  Z
  " fill="#ffffff" fill-rule="evenodd" fill-opacity="1"/>
<defs>
  <clipPath id="clip101">
    <rect x="480" y="0" width="1681" height="1600"/>
  </clipPath>
</defs>
<path clip-path="url(#clip100)" d="
M276.876 1423.18 L2352.76 1423.18 L2352.76 123.472 L276.876 123.472  Z
  " fill="#ffffff" fill-rule="evenodd" fill-opacity="1"/>
<defs>
  <clipPath id="clip102">
    <rect x="276" y="123" width="2077" height="1301"/>
  </clipPath>
</defs>
<polyline clip-path="url(#clip102)" style="stroke:#000000; stroke-linecap:butt; stroke-linejoin:round; stroke-width:2; stroke-opacity:0.1; fill:none" points="
  304.541,1423.18 304.541,123.472 
  "/>
<polyline clip-path="url(#clip102)" style="stroke:#000000; stroke-linecap:butt; stroke-linejoin:round; stroke-width:2; stroke-opacity:0.1; fill:none" points="
  693.108,1423.18 693.108,123.472 
  "/>
<polyline clip-path="url(#clip102)" style="stroke:#000000; stroke-linecap:butt; stroke-linejoin:round; stroke-width:2; stroke-opacity:0.1; fill:none" points="
  1081.68,1423.18 1081.68,123.472 
  "/>
<polyline clip-path="url(#clip102)" style="stroke:#000000; stroke-linecap:butt; stroke-linejoin:round; stroke-width:2; stroke-opacity:0.1; fill:none" points="
  1470.24,1423.18 1470.24,123.472 
  "/>
<polyline clip-path="url(#clip102)" style="stroke:#000000; stroke-linecap:butt; stroke-linejoin:round; stroke-width:2; stroke-opacity:0.1; fill:none" points="
  1858.81,1423.18 1858.81,123.472 
  "/>
<polyline clip-path="url(#clip102)" style="stroke:#000000; stroke-linecap:butt; stroke-linejoin:round; stroke-width:2; stroke-opacity:0.1; fill:none" points="
  2247.38,1423.18 2247.38,123.472 
  "/>
<polyline clip-path="url(#clip100)" style="stroke:#000000; stroke-linecap:butt; stroke-linejoin:round; stroke-width:4; stroke-opacity:1; fill:none" points="
  276.876,1423.18 2352.76,1423.18 
  "/>
<polyline clip-path="url(#clip100)" style="stroke:#000000; stroke-linecap:butt; stroke-linejoin:round; stroke-width:4; stroke-opacity:1; fill:none" points="
  304.541,1423.18 304.541,1404.28 
  "/>
<polyline clip-path="url(#clip100)" style="stroke:#000000; stroke-linecap:butt; stroke-linejoin:round; stroke-width:4; stroke-opacity:1; fill:none" points="
  693.108,1423.18 693.108,1404.28 
  "/>
<polyline clip-path="url(#clip100)" style="stroke:#000000; stroke-linecap:butt; stroke-linejoin:round; stroke-width:4; stroke-opacity:1; fill:none" points="
  1081.68,1423.18 1081.68,1404.28 
  "/>
<polyline clip-path="url(#clip100)" style="stroke:#000000; stroke-linecap:butt; stroke-linejoin:round; stroke-width:4; stroke-opacity:1; fill:none" points="
  1470.24,1423.18 1470.24,1404.28 
  "/>
<polyline clip-path="url(#clip100)" style="stroke:#000000; stroke-linecap:butt; stroke-linejoin:round; stroke-width:4; stroke-opacity:1; fill:none" points="
  1858.81,1423.18 1858.81,1404.28 
  "/>
<polyline clip-path="url(#clip100)" style="stroke:#000000; stroke-linecap:butt; stroke-linejoin:round; stroke-width:4; stroke-opacity:1; fill:none" points="
  2247.38,1423.18 2247.38,1404.28 
  "/>
<path clip-path="url(#clip100)" d="M304.541 1454.1 Q300.93 1454.1 299.102 1457.66 Q297.296 1461.2 297.296 1468.33 Q297.296 1475.44 299.102 1479.01 Q300.93 1482.55 304.541 1482.55 Q308.176 1482.55 309.981 1479.01 Q311.81 1475.44 311.81 1468.33 Q311.81 1461.2 309.981 1457.66 Q308.176 1454.1 304.541 1454.1 M304.541 1450.39 Q310.352 1450.39 313.407 1455 Q316.486 1459.58 316.486 1468.33 Q316.486 1477.06 313.407 1481.67 Q310.352 1486.25 304.541 1486.25 Q298.731 1486.25 295.653 1481.67 Q292.597 1477.06 292.597 1468.33 Q292.597 1459.58 295.653 1455 Q298.731 1450.39 304.541 1450.39 Z" fill="#000000" fill-rule="evenodd" fill-opacity="1" /><path clip-path="url(#clip100)" d="M667.808 1451.02 L686.164 1451.02 L686.164 1454.96 L672.09 1454.96 L672.09 1463.43 Q673.109 1463.08 674.127 1462.92 Q675.146 1462.73 676.164 1462.73 Q681.951 1462.73 685.331 1465.9 Q688.71 1469.08 688.71 1474.49 Q688.71 1480.07 685.238 1483.17 Q681.766 1486.25 675.447 1486.25 Q673.271 1486.25 671.002 1485.88 Q668.757 1485.51 666.349 1484.77 L666.349 1480.07 Q668.433 1481.2 670.655 1481.76 Q672.877 1482.32 675.354 1482.32 Q679.359 1482.32 681.697 1480.21 Q684.034 1478.1 684.034 1474.49 Q684.034 1470.88 681.697 1468.77 Q679.359 1466.67 675.354 1466.67 Q673.479 1466.67 671.604 1467.08 Q669.752 1467.5 667.808 1468.38 L667.808 1451.02 Z" fill="#000000" fill-rule="evenodd" fill-opacity="1" /><path clip-path="url(#clip100)" d="M707.923 1454.1 Q704.312 1454.1 702.483 1457.66 Q700.678 1461.2 700.678 1468.33 Q700.678 1475.44 702.483 1479.01 Q704.312 1482.55 707.923 1482.55 Q711.557 1482.55 713.363 1479.01 Q715.192 1475.44 715.192 1468.33 Q715.192 1461.2 713.363 1457.66 Q711.557 1454.1 707.923 1454.1 M707.923 1450.39 Q713.733 1450.39 716.789 1455 Q719.868 1459.58 719.868 1468.33 Q719.868 1477.06 716.789 1481.67 Q713.733 1486.25 707.923 1486.25 Q702.113 1486.25 699.034 1481.67 Q695.979 1477.06 695.979 1468.33 Q695.979 1459.58 699.034 1455 Q702.113 1450.39 707.923 1450.39 Z" fill="#000000" fill-rule="evenodd" fill-opacity="1" /><path clip-path="url(#clip100)" d="M1041.28 1481.64 L1048.92 1481.64 L1048.92 1455.28 L1040.61 1456.95 L1040.61 1452.69 L1048.87 1451.02 L1053.55 1451.02 L1053.55 1481.64 L1061.19 1481.64 L1061.19 1485.58 L1041.28 1485.58 L1041.28 1481.64 Z" fill="#000000" fill-rule="evenodd" fill-opacity="1" /><path clip-path="url(#clip100)" d="M1080.63 1454.1 Q1077.02 1454.1 1075.19 1457.66 Q1073.39 1461.2 1073.39 1468.33 Q1073.39 1475.44 1075.19 1479.01 Q1077.02 1482.55 1080.63 1482.55 Q1084.27 1482.55 1086.07 1479.01 Q1087.9 1475.44 1087.9 1468.33 Q1087.9 1461.2 1086.07 1457.66 Q1084.27 1454.1 1080.63 1454.1 M1080.63 1450.39 Q1086.44 1450.39 1089.5 1455 Q1092.58 1459.58 1092.58 1468.33 Q1092.58 1477.06 1089.5 1481.67 Q1086.44 1486.25 1080.63 1486.25 Q1074.82 1486.25 1071.74 1481.67 Q1068.69 1477.06 1068.69 1468.33 Q1068.69 1459.58 1071.74 1455 Q1074.82 1450.39 1080.63 1450.39 Z" fill="#000000" fill-rule="evenodd" fill-opacity="1" /><path clip-path="url(#clip100)" d="M1110.8 1454.1 Q1107.18 1454.1 1105.36 1457.66 Q1103.55 1461.2 1103.55 1468.33 Q1103.55 1475.44 1105.36 1479.01 Q1107.18 1482.55 1110.8 1482.55 Q1114.43 1482.55 1116.24 1479.01 Q1118.06 1475.44 1118.06 1468.33 Q1118.06 1461.2 1116.24 1457.66 Q1114.43 1454.1 1110.8 1454.1 M1110.8 1450.39 Q1116.61 1450.39 1119.66 1455 Q1122.74 1459.58 1122.74 1468.33 Q1122.74 1477.06 1119.66 1481.67 Q1116.61 1486.25 1110.8 1486.25 Q1104.99 1486.25 1101.91 1481.67 Q1098.85 1477.06 1098.85 1468.33 Q1098.85 1459.58 1101.91 1455 Q1104.99 1450.39 1110.8 1450.39 Z" fill="#000000" fill-rule="evenodd" fill-opacity="1" /><path clip-path="url(#clip100)" d="M1429.85 1481.64 L1437.49 1481.64 L1437.49 1455.28 L1429.18 1456.95 L1429.18 1452.69 L1437.44 1451.02 L1442.12 1451.02 L1442.12 1481.64 L1449.76 1481.64 L1449.76 1485.58 L1429.85 1485.58 L1429.85 1481.64 Z" fill="#000000" fill-rule="evenodd" fill-opacity="1" /><path clip-path="url(#clip100)" d="M1459.25 1451.02 L1477.6 1451.02 L1477.6 1454.96 L1463.53 1454.96 L1463.53 1463.43 Q1464.55 1463.08 1465.57 1462.92 Q1466.59 1462.73 1467.6 1462.73 Q1473.39 1462.73 1476.77 1465.9 Q1480.15 1469.08 1480.15 1474.49 Q1480.15 1480.07 1476.68 1483.17 Q1473.21 1486.25 1466.89 1486.25 Q1464.71 1486.25 1462.44 1485.88 Q1460.2 1485.51 1457.79 1484.77 L1457.79 1480.07 Q1459.87 1481.2 1462.09 1481.76 Q1464.32 1482.32 1466.79 1482.32 Q1470.8 1482.32 1473.14 1480.21 Q1475.47 1478.1 1475.47 1474.49 Q1475.47 1470.88 1473.14 1468.77 Q1470.8 1466.67 1466.79 1466.67 Q1464.92 1466.67 1463.04 1467.08 Q1461.19 1467.5 1459.25 1468.38 L1459.25 1451.02 Z" fill="#000000" fill-rule="evenodd" fill-opacity="1" /><path clip-path="url(#clip100)" d="M1499.36 1454.1 Q1495.75 1454.1 1493.92 1457.66 Q1492.12 1461.2 1492.12 1468.33 Q1492.12 1475.44 1493.92 1479.01 Q1495.75 1482.55 1499.36 1482.55 Q1503 1482.55 1504.8 1479.01 Q1506.63 1475.44 1506.63 1468.33 Q1506.63 1461.2 1504.8 1457.66 Q1503 1454.1 1499.36 1454.1 M1499.36 1450.39 Q1505.17 1450.39 1508.23 1455 Q1511.31 1459.58 1511.31 1468.33 Q1511.31 1477.06 1508.23 1481.67 Q1505.17 1486.25 1499.36 1486.25 Q1493.55 1486.25 1490.47 1481.67 Q1487.42 1477.06 1487.42 1468.33 Q1487.42 1459.58 1490.47 1455 Q1493.55 1450.39 1499.36 1450.39 Z" fill="#000000" fill-rule="evenodd" fill-opacity="1" /><path clip-path="url(#clip100)" d="M1822.5 1481.64 L1838.82 1481.64 L1838.82 1485.58 L1816.88 1485.58 L1816.88 1481.64 Q1819.54 1478.89 1824.12 1474.26 Q1828.73 1469.61 1829.91 1468.27 Q1832.15 1465.74 1833.03 1464.01 Q1833.94 1462.25 1833.94 1460.56 Q1833.94 1457.8 1831.99 1456.07 Q1830.07 1454.33 1826.97 1454.33 Q1824.77 1454.33 1822.32 1455.09 Q1819.89 1455.86 1817.11 1457.41 L1817.11 1452.69 Q1819.93 1451.55 1822.39 1450.97 Q1824.84 1450.39 1826.88 1450.39 Q1832.25 1450.39 1835.44 1453.08 Q1838.64 1455.77 1838.64 1460.26 Q1838.64 1462.39 1837.83 1464.31 Q1837.04 1466.2 1834.93 1468.8 Q1834.35 1469.47 1831.25 1472.69 Q1828.15 1475.88 1822.5 1481.64 Z" fill="#000000" fill-rule="evenodd" fill-opacity="1" /><path clip-path="url(#clip100)" d="M1858.64 1454.1 Q1855.02 1454.1 1853.2 1457.66 Q1851.39 1461.2 1851.39 1468.33 Q1851.39 1475.44 1853.2 1479.01 Q1855.02 1482.55 1858.64 1482.55 Q1862.27 1482.55 1864.08 1479.01 Q1865.9 1475.44 1865.9 1468.33 Q1865.9 1461.2 1864.08 1457.66 Q1862.27 1454.1 1858.64 1454.1 M1858.64 1450.39 Q1864.45 1450.39 1867.5 1455 Q1870.58 1459.58 1870.58 1468.33 Q1870.58 1477.06 1867.5 1481.67 Q1864.45 1486.25 1858.64 1486.25 Q1852.83 1486.25 1849.75 1481.67 Q1846.69 1477.06 1846.69 1468.33 Q1846.69 1459.58 1849.75 1455 Q1852.83 1450.39 1858.64 1450.39 Z" fill="#000000" fill-rule="evenodd" fill-opacity="1" /><path clip-path="url(#clip100)" d="M1888.8 1454.1 Q1885.19 1454.1 1883.36 1457.66 Q1881.55 1461.2 1881.55 1468.33 Q1881.55 1475.44 1883.36 1479.01 Q1885.19 1482.55 1888.8 1482.55 Q1892.43 1482.55 1894.24 1479.01 Q1896.07 1475.44 1896.07 1468.33 Q1896.07 1461.2 1894.24 1457.66 Q1892.43 1454.1 1888.8 1454.1 M1888.8 1450.39 Q1894.61 1450.39 1897.66 1455 Q1900.74 1459.58 1900.74 1468.33 Q1900.74 1477.06 1897.66 1481.67 Q1894.61 1486.25 1888.8 1486.25 Q1882.99 1486.25 1879.91 1481.67 Q1876.85 1477.06 1876.85 1468.33 Q1876.85 1459.58 1879.91 1455 Q1882.99 1450.39 1888.8 1450.39 Z" fill="#000000" fill-rule="evenodd" fill-opacity="1" /><path clip-path="url(#clip100)" d="M2211.07 1481.64 L2227.39 1481.64 L2227.39 1485.58 L2205.44 1485.58 L2205.44 1481.64 Q2208.11 1478.89 2212.69 1474.26 Q2217.3 1469.61 2218.48 1468.27 Q2220.72 1465.74 2221.6 1464.01 Q2222.5 1462.25 2222.5 1460.56 Q2222.5 1457.8 2220.56 1456.07 Q2218.64 1454.33 2215.54 1454.33 Q2213.34 1454.33 2210.88 1455.09 Q2208.45 1455.86 2205.68 1457.41 L2205.68 1452.69 Q2208.5 1451.55 2210.95 1450.97 Q2213.41 1450.39 2215.44 1450.39 Q2220.81 1450.39 2224.01 1453.08 Q2227.2 1455.77 2227.2 1460.26 Q2227.2 1462.39 2226.39 1464.31 Q2225.61 1466.2 2223.5 1468.8 Q2222.92 1469.47 2219.82 1472.69 Q2216.72 1475.88 2211.07 1481.64 Z" fill="#000000" fill-rule="evenodd" fill-opacity="1" /><path clip-path="url(#clip100)" d="M2237.25 1451.02 L2255.61 1451.02 L2255.61 1454.96 L2241.53 1454.96 L2241.53 1463.43 Q2242.55 1463.08 2243.57 1462.92 Q2244.59 1462.73 2245.61 1462.73 Q2251.39 1462.73 2254.77 1465.9 Q2258.15 1469.08 2258.15 1474.49 Q2258.15 1480.07 2254.68 1483.17 Q2251.21 1486.25 2244.89 1486.25 Q2242.71 1486.25 2240.44 1485.88 Q2238.2 1485.51 2235.79 1484.77 L2235.79 1480.07 Q2237.87 1481.2 2240.1 1481.76 Q2242.32 1482.32 2244.8 1482.32 Q2248.8 1482.32 2251.14 1480.21 Q2253.48 1478.1 2253.48 1474.49 Q2253.48 1470.88 2251.14 1468.77 Q2248.8 1466.67 2244.8 1466.67 Q2242.92 1466.67 2241.05 1467.08 Q2239.19 1467.5 2237.25 1468.38 L2237.25 1451.02 Z" fill="#000000" fill-rule="evenodd" fill-opacity="1" /><path clip-path="url(#clip100)" d="M2277.36 1454.1 Q2273.75 1454.1 2271.93 1457.66 Q2270.12 1461.2 2270.12 1468.33 Q2270.12 1475.44 2271.93 1479.01 Q2273.75 1482.55 2277.36 1482.55 Q2281 1482.55 2282.8 1479.01 Q2284.63 1475.44 2284.63 1468.33 Q2284.63 1461.2 2282.8 1457.66 Q2281 1454.1 2277.36 1454.1 M2277.36 1450.39 Q2283.17 1450.39 2286.23 1455 Q2289.31 1459.58 2289.31 1468.33 Q2289.31 1477.06 2286.23 1481.67 Q2283.17 1486.25 2277.36 1486.25 Q2271.55 1486.25 2268.48 1481.67 Q2265.42 1477.06 2265.42 1468.33 Q2265.42 1459.58 2268.48 1455 Q2271.55 1450.39 2277.36 1450.39 Z" fill="#000000" fill-rule="evenodd" fill-opacity="1" /><path clip-path="url(#clip100)" d="M1069.78 1546.53 L1069.78 1568.04 L1063.93 1568.04 L1063.93 1546.72 Q1063.93 1541.66 1061.95 1539.14 Q1059.98 1536.63 1056.03 1536.63 Q1051.29 1536.63 1048.55 1539.65 Q1045.82 1542.68 1045.82 1547.9 L1045.82 1568.04 L1039.93 1568.04 L1039.93 1532.4 L1045.82 1532.4 L1045.82 1537.93 Q1047.92 1534.72 1050.75 1533.13 Q1053.61 1531.54 1057.34 1531.54 Q1063.48 1531.54 1066.63 1535.36 Q1069.78 1539.14 1069.78 1546.53 Z" fill="#000000" fill-rule="evenodd" fill-opacity="1" /><path clip-path="url(#clip100)" d="M1080.86 1553.98 L1080.86 1532.4 L1086.72 1532.4 L1086.72 1553.75 Q1086.72 1558.81 1088.69 1561.36 Q1090.66 1563.87 1094.61 1563.87 Q1099.35 1563.87 1102.09 1560.85 Q1104.86 1557.83 1104.86 1552.61 L1104.86 1532.4 L1110.72 1532.4 L1110.72 1568.04 L1104.86 1568.04 L1104.86 1562.57 Q1102.73 1565.82 1099.89 1567.41 Q1097.09 1568.97 1093.37 1568.97 Q1087.23 1568.97 1084.04 1565.15 Q1080.86 1561.33 1080.86 1553.98 M1095.6 1531.54 L1095.6 1531.54 Z" fill="#000000" fill-rule="evenodd" fill-opacity="1" /><path clip-path="url(#clip100)" d="M1150.53 1539.24 Q1152.73 1535.29 1155.78 1533.41 Q1158.84 1531.54 1162.98 1531.54 Q1168.55 1531.54 1171.57 1535.45 Q1174.6 1539.33 1174.6 1546.53 L1174.6 1568.04 L1168.71 1568.04 L1168.71 1546.72 Q1168.71 1541.59 1166.89 1539.11 Q1165.08 1536.63 1161.35 1536.63 Q1156.8 1536.63 1154.16 1539.65 Q1151.52 1542.68 1151.52 1547.9 L1151.52 1568.04 L1145.63 1568.04 L1145.63 1546.72 Q1145.63 1541.56 1143.82 1539.11 Q1142 1536.63 1138.22 1536.63 Q1133.73 1536.63 1131.09 1539.68 Q1128.44 1542.71 1128.44 1547.9 L1128.44 1568.04 L1122.56 1568.04 L1122.56 1532.4 L1128.44 1532.4 L1128.44 1537.93 Q1130.45 1534.66 1133.25 1533.1 Q1136.05 1531.54 1139.9 1531.54 Q1143.79 1531.54 1146.49 1533.51 Q1149.23 1535.48 1150.53 1539.24 Z" fill="#000000" fill-rule="evenodd" fill-opacity="1" /><path clip-path="url(#clip100)" d="M1211.87 1550.25 Q1211.87 1543.79 1209.19 1540.13 Q1206.55 1536.44 1201.9 1536.44 Q1197.26 1536.44 1194.58 1540.13 Q1191.94 1543.79 1191.94 1550.25 Q1191.94 1556.71 1194.58 1560.4 Q1197.26 1564.07 1201.9 1564.07 Q1206.55 1564.07 1209.19 1560.4 Q1211.87 1556.71 1211.87 1550.25 M1191.94 1537.81 Q1193.79 1534.62 1196.59 1533.1 Q1199.42 1531.54 1203.34 1531.54 Q1209.83 1531.54 1213.87 1536.69 Q1217.95 1541.85 1217.95 1550.25 Q1217.95 1558.65 1213.87 1563.81 Q1209.83 1568.97 1203.34 1568.97 Q1199.42 1568.97 1196.59 1567.44 Q1193.79 1565.88 1191.94 1562.7 L1191.94 1568.04 L1186.05 1568.04 L1186.05 1518.52 L1191.94 1518.52 L1191.94 1537.81 Z" fill="#000000" fill-rule="evenodd" fill-opacity="1" /><path clip-path="url(#clip100)" d="M1258.15 1548.76 L1258.15 1551.62 L1231.22 1551.62 Q1231.6 1557.67 1234.85 1560.85 Q1238.12 1564 1243.95 1564 Q1247.32 1564 1250.47 1563.17 Q1253.66 1562.35 1256.78 1560.69 L1256.78 1566.23 Q1253.63 1567.57 1250.32 1568.27 Q1247.01 1568.97 1243.6 1568.97 Q1235.07 1568.97 1230.07 1564 Q1225.11 1559.04 1225.11 1550.57 Q1225.11 1541.82 1229.82 1536.69 Q1234.56 1531.54 1242.58 1531.54 Q1249.77 1531.54 1253.94 1536.18 Q1258.15 1540.8 1258.15 1548.76 M1252.29 1547.04 Q1252.22 1542.23 1249.58 1539.37 Q1246.97 1536.5 1242.64 1536.5 Q1237.74 1536.5 1234.78 1539.27 Q1231.85 1542.04 1231.41 1547.07 L1252.29 1547.04 Z" fill="#000000" fill-rule="evenodd" fill-opacity="1" /><path clip-path="url(#clip100)" d="M1288.41 1537.87 Q1287.43 1537.3 1286.25 1537.04 Q1285.1 1536.76 1283.7 1536.76 Q1278.74 1536.76 1276.06 1540 Q1273.42 1543.22 1273.42 1549.27 L1273.42 1568.04 L1267.53 1568.04 L1267.53 1532.4 L1273.42 1532.4 L1273.42 1537.93 Q1275.27 1534.69 1278.23 1533.13 Q1281.19 1531.54 1285.42 1531.54 Q1286.03 1531.54 1286.76 1531.63 Q1287.49 1531.7 1288.38 1531.85 L1288.41 1537.87 Z" fill="#000000" fill-rule="evenodd" fill-opacity="1" /><path clip-path="url(#clip100)" d="M1329.09 1536.5 Q1324.38 1536.5 1321.64 1540.19 Q1318.91 1543.85 1318.91 1550.25 Q1318.91 1556.65 1321.61 1560.34 Q1324.35 1564 1329.09 1564 Q1333.77 1564 1336.51 1560.31 Q1339.24 1556.62 1339.24 1550.25 Q1339.24 1543.92 1336.51 1540.23 Q1333.77 1536.5 1329.09 1536.5 M1329.09 1531.54 Q1336.73 1531.54 1341.09 1536.5 Q1345.45 1541.47 1345.45 1550.25 Q1345.45 1559 1341.09 1564 Q1336.73 1568.97 1329.09 1568.97 Q1321.42 1568.97 1317.06 1564 Q1312.73 1559 1312.73 1550.25 Q1312.73 1541.47 1317.06 1536.5 Q1321.42 1531.54 1329.09 1531.54 Z" fill="#000000" fill-rule="evenodd" fill-opacity="1" /><path clip-path="url(#clip100)" d="M1373.21 1518.52 L1373.21 1523.39 L1367.6 1523.39 Q1364.45 1523.39 1363.21 1524.66 Q1362 1525.93 1362 1529.24 L1362 1532.4 L1371.65 1532.4 L1371.65 1536.95 L1362 1536.95 L1362 1568.04 L1356.11 1568.04 L1356.11 1536.95 L1350.51 1536.95 L1350.51 1532.4 L1356.11 1532.4 L1356.11 1529.91 Q1356.11 1523.96 1358.88 1521.26 Q1361.65 1518.52 1367.67 1518.52 L1373.21 1518.52 Z" fill="#000000" fill-rule="evenodd" fill-opacity="1" /><path clip-path="url(#clip100)" d="M1404.49 1562.7 L1404.49 1581.6 L1398.6 1581.6 L1398.6 1532.4 L1404.49 1532.4 L1404.49 1537.81 Q1406.34 1534.62 1409.14 1533.1 Q1411.97 1531.54 1415.89 1531.54 Q1422.38 1531.54 1426.42 1536.69 Q1430.5 1541.85 1430.5 1550.25 Q1430.5 1558.65 1426.42 1563.81 Q1422.38 1568.97 1415.89 1568.97 Q1411.97 1568.97 1409.14 1567.44 Q1406.34 1565.88 1404.49 1562.7 M1424.42 1550.25 Q1424.42 1543.79 1421.74 1540.13 Q1419.1 1536.44 1414.45 1536.44 Q1409.81 1536.44 1407.13 1540.13 Q1404.49 1543.79 1404.49 1550.25 Q1404.49 1556.71 1407.13 1560.4 Q1409.81 1564.07 1414.45 1564.07 Q1419.1 1564.07 1421.74 1560.4 Q1424.42 1556.71 1424.42 1550.25 Z" fill="#000000" fill-rule="evenodd" fill-opacity="1" /><path clip-path="url(#clip100)" d="M1454.02 1536.5 Q1449.31 1536.5 1446.57 1540.19 Q1443.83 1543.85 1443.83 1550.25 Q1443.83 1556.65 1446.54 1560.34 Q1449.28 1564 1454.02 1564 Q1458.7 1564 1461.43 1560.31 Q1464.17 1556.62 1464.17 1550.25 Q1464.17 1543.92 1461.43 1540.23 Q1458.7 1536.5 1454.02 1536.5 M1454.02 1531.54 Q1461.66 1531.54 1466.02 1536.5 Q1470.38 1541.47 1470.38 1550.25 Q1470.38 1559 1466.02 1564 Q1461.66 1568.97 1454.02 1568.97 Q1446.35 1568.97 1441.99 1564 Q1437.66 1559 1437.66 1550.25 Q1437.66 1541.47 1441.99 1536.5 Q1446.35 1531.54 1454.02 1531.54 Z" fill="#000000" fill-rule="evenodd" fill-opacity="1" /><path clip-path="url(#clip100)" d="M1480.09 1532.4 L1485.94 1532.4 L1485.94 1568.04 L1480.09 1568.04 L1480.09 1532.4 M1480.09 1518.52 L1485.94 1518.52 L1485.94 1525.93 L1480.09 1525.93 L1480.09 1518.52 Z" fill="#000000" fill-rule="evenodd" fill-opacity="1" /><path clip-path="url(#clip100)" d="M1527.83 1546.53 L1527.83 1568.04 L1521.97 1568.04 L1521.97 1546.72 Q1521.97 1541.66 1520 1539.14 Q1518.02 1536.63 1514.08 1536.63 Q1509.34 1536.63 1506.6 1539.65 Q1503.86 1542.68 1503.86 1547.9 L1503.86 1568.04 L1497.97 1568.04 L1497.97 1532.4 L1503.86 1532.4 L1503.86 1537.93 Q1505.96 1534.72 1508.79 1533.13 Q1511.66 1531.54 1515.38 1531.54 Q1521.53 1531.54 1524.68 1535.36 Q1527.83 1539.14 1527.83 1546.53 Z" fill="#000000" fill-rule="evenodd" fill-opacity="1" /><path clip-path="url(#clip100)" d="M1545.3 1522.27 L1545.3 1532.4 L1557.37 1532.4 L1557.37 1536.95 L1545.3 1536.95 L1545.3 1556.3 Q1545.3 1560.66 1546.48 1561.9 Q1547.69 1563.14 1551.35 1563.14 L1557.37 1563.14 L1557.37 1568.04 L1551.35 1568.04 Q1544.57 1568.04 1541.99 1565.53 Q1539.41 1562.98 1539.41 1556.3 L1539.41 1536.95 L1535.12 1536.95 L1535.12 1532.4 L1539.41 1532.4 L1539.41 1522.27 L1545.3 1522.27 Z" fill="#000000" fill-rule="evenodd" fill-opacity="1" /><path clip-path="url(#clip100)" d="M1587.79 1533.45 L1587.79 1538.98 Q1585.31 1537.71 1582.64 1537.07 Q1579.96 1536.44 1577.1 1536.44 Q1572.74 1536.44 1570.54 1537.77 Q1568.38 1539.11 1568.38 1541.79 Q1568.38 1543.82 1569.94 1545 Q1571.5 1546.15 1576.21 1547.2 L1578.21 1547.64 Q1584.45 1548.98 1587.06 1551.43 Q1589.7 1553.85 1589.7 1558.21 Q1589.7 1563.17 1585.76 1566.07 Q1581.84 1568.97 1574.97 1568.97 Q1572.1 1568.97 1568.98 1568.39 Q1565.9 1567.85 1562.46 1566.74 L1562.46 1560.69 Q1565.7 1562.38 1568.86 1563.24 Q1572.01 1564.07 1575.09 1564.07 Q1579.23 1564.07 1581.46 1562.66 Q1583.69 1561.23 1583.69 1558.65 Q1583.69 1556.27 1582.06 1554.99 Q1580.47 1553.72 1575.03 1552.54 L1572.99 1552.07 Q1567.55 1550.92 1565.13 1548.56 Q1562.71 1546.18 1562.71 1542.04 Q1562.71 1537.01 1566.28 1534.27 Q1569.84 1531.54 1576.4 1531.54 Q1579.65 1531.54 1582.51 1532.01 Q1585.37 1532.49 1587.79 1533.45 Z" fill="#000000" fill-rule="evenodd" fill-opacity="1" /><polyline clip-path="url(#clip102)" style="stroke:#000000; stroke-linecap:butt; stroke-linejoin:round; stroke-width:2; stroke-opacity:0.1; fill:none" points="
  276.876,1044.43 2352.76,1044.43 
  "/>
<polyline clip-path="url(#clip102)" style="stroke:#000000; stroke-linecap:butt; stroke-linejoin:round; stroke-width:2; stroke-opacity:0.1; fill:none" points="
  276.876,596.362 2352.76,596.362 
  "/>
<polyline clip-path="url(#clip102)" style="stroke:#000000; stroke-linecap:butt; stroke-linejoin:round; stroke-width:2; stroke-opacity:0.1; fill:none" points="
  276.876,148.297 2352.76,148.297 
  "/>
<polyline clip-path="url(#clip100)" style="stroke:#000000; stroke-linecap:butt; stroke-linejoin:round; stroke-width:4; stroke-opacity:1; fill:none" points="
  276.876,1423.18 276.876,123.472 
  "/>
<polyline clip-path="url(#clip100)" style="stroke:#000000; stroke-linecap:butt; stroke-linejoin:round; stroke-width:4; stroke-opacity:1; fill:none" points="
  276.876,1044.43 295.773,1044.43 
  "/>
<polyline clip-path="url(#clip100)" style="stroke:#000000; stroke-linecap:butt; stroke-linejoin:round; stroke-width:4; stroke-opacity:1; fill:none" points="
  276.876,596.362 295.773,596.362 
  "/>
<polyline clip-path="url(#clip100)" style="stroke:#000000; stroke-linecap:butt; stroke-linejoin:round; stroke-width:4; stroke-opacity:1; fill:none" points="
  276.876,148.297 295.773,148.297 
  "/>
<path clip-path="url(#clip100)" d="M114.931 1064.22 L122.57 1064.22 L122.57 1037.85 L114.26 1039.52 L114.26 1035.26 L122.524 1033.59 L127.2 1033.59 L127.2 1064.22 L134.839 1064.22 L134.839 1068.15 L114.931 1068.15 L114.931 1064.22 Z" fill="#000000" fill-rule="evenodd" fill-opacity="1" /><path clip-path="url(#clip100)" d="M154.283 1036.67 Q150.672 1036.67 148.843 1040.24 Q147.038 1043.78 147.038 1050.91 Q147.038 1058.02 148.843 1061.58 Q150.672 1065.12 154.283 1065.12 Q157.917 1065.12 159.723 1061.58 Q161.552 1058.02 161.552 1050.91 Q161.552 1043.78 159.723 1040.24 Q157.917 1036.67 154.283 1036.67 M154.283 1032.97 Q160.093 1032.97 163.149 1037.58 Q166.227 1042.16 166.227 1050.91 Q166.227 1059.64 163.149 1064.24 Q160.093 1068.83 154.283 1068.83 Q148.473 1068.83 145.394 1064.24 Q142.339 1059.64 142.339 1050.91 Q142.339 1042.16 145.394 1037.58 Q148.473 1032.97 154.283 1032.97 Z" fill="#000000" fill-rule="evenodd" fill-opacity="1" /><path clip-path="url(#clip100)" d="M166.227 1027.07 L190.339 1027.07 L190.339 1030.27 L166.227 1030.27 L166.227 1027.07 Z" fill="#000000" fill-rule="evenodd" fill-opacity="1" /><path clip-path="url(#clip100)" d="M199.197 1037.55 L205.404 1037.55 L205.404 1016.12 L198.652 1017.48 L198.652 1014.02 L205.366 1012.66 L209.166 1012.66 L209.166 1037.55 L215.372 1037.55 L215.372 1040.74 L199.197 1040.74 L199.197 1037.55 Z" fill="#000000" fill-rule="evenodd" fill-opacity="1" /><path clip-path="url(#clip100)" d="M231.171 1015.17 Q228.237 1015.17 226.751 1018.06 Q225.284 1020.94 225.284 1026.73 Q225.284 1032.51 226.751 1035.4 Q228.237 1038.28 231.171 1038.28 Q234.124 1038.28 235.591 1035.4 Q237.076 1032.51 237.076 1026.73 Q237.076 1020.94 235.591 1018.06 Q234.124 1015.17 231.171 1015.17 M231.171 1012.16 Q235.891 1012.16 238.374 1015.9 Q240.876 1019.62 240.876 1026.73 Q240.876 1033.82 238.374 1037.57 Q235.891 1041.29 231.171 1041.29 Q226.45 1041.29 223.949 1037.57 Q221.466 1033.82 221.466 1026.73 Q221.466 1019.62 223.949 1015.9 Q226.45 1012.16 231.171 1012.16 Z" fill="#000000" fill-rule="evenodd" fill-opacity="1" /><path clip-path="url(#clip100)" d="M140.247 616.155 L147.886 616.155 L147.886 589.789 L139.575 591.456 L139.575 587.197 L147.839 585.53 L152.515 585.53 L152.515 616.155 L160.154 616.155 L160.154 620.09 L140.247 620.09 L140.247 616.155 Z" fill="#000000" fill-rule="evenodd" fill-opacity="1" /><path clip-path="url(#clip100)" d="M179.598 588.609 Q175.987 588.609 174.159 592.173 Q172.353 595.715 172.353 602.845 Q172.353 609.951 174.159 613.516 Q175.987 617.057 179.598 617.057 Q183.233 617.057 185.038 613.516 Q186.867 609.951 186.867 602.845 Q186.867 595.715 185.038 592.173 Q183.233 588.609 179.598 588.609 M179.598 584.905 Q185.409 584.905 188.464 589.511 Q191.543 594.095 191.543 602.845 Q191.543 611.571 188.464 616.178 Q185.409 620.761 179.598 620.761 Q173.788 620.761 170.71 616.178 Q167.654 611.571 167.654 602.845 Q167.654 594.095 170.71 589.511 Q173.788 584.905 179.598 584.905 Z" fill="#000000" fill-rule="evenodd" fill-opacity="1" /><path clip-path="url(#clip100)" d="M191.543 579.006 L215.654 579.006 L215.654 582.204 L191.543 582.204 L191.543 579.006 Z" fill="#000000" fill-rule="evenodd" fill-opacity="1" /><path clip-path="url(#clip100)" d="M223.892 564.599 L238.807 564.599 L238.807 567.797 L227.372 567.797 L227.372 574.68 Q228.199 574.398 229.027 574.267 Q229.854 574.116 230.682 574.116 Q235.384 574.116 238.13 576.693 Q240.876 579.27 240.876 583.671 Q240.876 588.203 238.054 590.723 Q235.233 593.225 230.099 593.225 Q228.331 593.225 226.488 592.924 Q224.663 592.623 222.707 592.021 L222.707 588.203 Q224.4 589.125 226.205 589.576 Q228.011 590.028 230.023 590.028 Q233.277 590.028 235.177 588.316 Q237.076 586.605 237.076 583.671 Q237.076 580.737 235.177 579.025 Q233.277 577.314 230.023 577.314 Q228.5 577.314 226.977 577.652 Q225.472 577.991 223.892 578.705 L223.892 564.599 Z" fill="#000000" fill-rule="evenodd" fill-opacity="1" /><path clip-path="url(#clip100)" d="M170.17 168.09 L177.809 168.09 L177.809 141.724 L169.499 143.391 L169.499 139.132 L177.762 137.465 L182.438 137.465 L182.438 168.09 L190.077 168.09 L190.077 172.025 L170.17 172.025 L170.17 168.09 Z" fill="#000000" fill-rule="evenodd" fill-opacity="1" /><path clip-path="url(#clip100)" d="M209.522 140.544 Q205.91 140.544 204.082 144.109 Q202.276 147.65 202.276 154.78 Q202.276 161.886 204.082 165.451 Q205.91 168.993 209.522 168.993 Q213.156 168.993 214.961 165.451 Q216.79 161.886 216.79 154.78 Q216.79 147.65 214.961 144.109 Q213.156 140.544 209.522 140.544 M209.522 136.84 Q215.332 136.84 218.387 141.447 Q221.466 146.03 221.466 154.78 Q221.466 163.507 218.387 168.113 Q215.332 172.696 209.522 172.696 Q203.711 172.696 200.633 168.113 Q197.577 163.507 197.577 154.78 Q197.577 146.03 200.633 141.447 Q203.711 136.84 209.522 136.84 Z" fill="#000000" fill-rule="evenodd" fill-opacity="1" /><path clip-path="url(#clip100)" d="M231.171 119.036 Q228.237 119.036 226.751 121.933 Q225.284 124.81 225.284 130.603 Q225.284 136.377 226.751 139.273 Q228.237 142.151 231.171 142.151 Q234.124 142.151 235.591 139.273 Q237.076 136.377 237.076 130.603 Q237.076 124.81 235.591 121.933 Q234.124 119.036 231.171 119.036 M231.171 116.027 Q235.891 116.027 238.374 119.77 Q240.876 123.494 240.876 130.603 Q240.876 137.693 238.374 141.436 Q235.891 145.16 231.171 145.16 Q226.45 145.16 223.949 141.436 Q221.466 137.693 221.466 130.603 Q221.466 123.494 223.949 119.77 Q226.45 116.027 231.171 116.027 Z" fill="#000000" fill-rule="evenodd" fill-opacity="1" /><path clip-path="url(#clip100)" d="M44.7161 817.393 L47.5806 817.393 L47.5806 844.32 Q53.6281 843.938 56.8109 840.691 Q59.9619 837.413 59.9619 831.588 Q59.9619 828.214 59.1344 825.063 Q58.3069 821.88 56.6518 818.761 L62.1899 818.761 Q63.5267 821.912 64.227 825.222 Q64.9272 828.533 64.9272 831.938 Q64.9272 840.468 59.9619 845.465 Q54.9967 850.431 46.5303 850.431 Q37.7774 850.431 32.6531 845.72 Q27.4968 840.978 27.4968 832.957 Q27.4968 825.763 32.1438 821.594 Q36.7589 817.393 44.7161 817.393 M42.9973 823.249 Q38.1912 823.313 35.3266 825.954 Q32.4621 828.564 32.4621 832.893 Q32.4621 837.795 35.2312 840.755 Q38.0002 843.683 43.0292 844.129 L42.9973 823.249 Z" fill="#000000" fill-rule="evenodd" fill-opacity="1" /><path clip-path="url(#clip100)" d="M33.8307 787.124 Q33.2578 788.11 33.0032 789.288 Q32.7167 790.434 32.7167 791.834 Q32.7167 796.8 35.9632 799.473 Q39.1779 802.115 45.2253 802.115 L64.0042 802.115 L64.0042 808.003 L28.3562 808.003 L28.3562 802.115 L33.8944 802.115 Q30.6479 800.269 29.0883 797.309 Q27.4968 794.349 27.4968 790.116 Q27.4968 789.511 27.5923 788.779 Q27.656 788.047 27.8151 787.155 L33.8307 787.124 Z" fill="#000000" fill-rule="evenodd" fill-opacity="1" /><path clip-path="url(#clip100)" d="M33.8307 761.47 Q33.2578 762.457 33.0032 763.634 Q32.7167 764.78 32.7167 766.18 Q32.7167 771.146 35.9632 773.819 Q39.1779 776.461 45.2253 776.461 L64.0042 776.461 L64.0042 782.349 L28.3562 782.349 L28.3562 776.461 L33.8944 776.461 Q30.6479 774.615 29.0883 771.655 Q27.4968 768.695 27.4968 764.462 Q27.4968 763.857 27.5923 763.125 Q27.656 762.393 27.8151 761.502 L33.8307 761.47 Z" fill="#000000" fill-rule="evenodd" fill-opacity="1" /><path clip-path="url(#clip100)" d="M32.4621 742.946 Q32.4621 747.656 36.1542 750.394 Q39.8145 753.131 46.212 753.131 Q52.6095 753.131 56.3017 750.425 Q59.9619 747.688 59.9619 742.946 Q59.9619 738.267 56.2698 735.53 Q52.5777 732.792 46.212 732.792 Q39.8781 732.792 36.186 735.53 Q32.4621 738.267 32.4621 742.946 M27.4968 742.946 Q27.4968 735.307 32.4621 730.946 Q37.4273 726.586 46.212 726.586 Q54.9649 726.586 59.9619 730.946 Q64.9272 735.307 64.9272 742.946 Q64.9272 750.616 59.9619 754.977 Q54.9649 759.306 46.212 759.306 Q37.4273 759.306 32.4621 754.977 Q27.4968 750.616 27.4968 742.946 Z" fill="#000000" fill-rule="evenodd" fill-opacity="1" /><path clip-path="url(#clip100)" d="M33.8307 696.221 Q33.2578 697.208 33.0032 698.386 Q32.7167 699.532 32.7167 700.932 Q32.7167 705.897 35.9632 708.571 Q39.1779 711.213 45.2253 711.213 L64.0042 711.213 L64.0042 717.101 L28.3562 717.101 L28.3562 711.213 L33.8944 711.213 Q30.6479 709.367 29.0883 706.406 Q27.4968 703.446 27.4968 699.213 Q27.4968 698.609 27.5923 697.876 Q27.656 697.144 27.8151 696.253 L33.8307 696.221 Z" fill="#000000" fill-rule="evenodd" fill-opacity="1" /><path clip-path="url(#clip100)" d="M1094.63 16.7545 L1094.63 25.383 Q1090.5 21.5346 1085.8 19.6307 Q1081.14 17.7268 1075.87 17.7268 Q1065.5 17.7268 1059.99 24.0867 Q1054.48 30.4061 1054.48 42.3968 Q1054.48 54.3469 1059.99 60.7069 Q1065.5 67.0263 1075.87 67.0263 Q1081.14 67.0263 1085.8 65.1223 Q1090.5 63.2184 1094.63 59.3701 L1094.63 67.9175 Q1090.33 70.8341 1085.51 72.2924 Q1080.73 73.7508 1075.39 73.7508 Q1061.65 73.7508 1053.76 65.3654 Q1045.86 56.9395 1045.86 42.3968 Q1045.86 27.8135 1053.76 19.4281 Q1061.65 11.0023 1075.39 11.0023 Q1080.82 11.0023 1085.6 12.4606 Q1090.42 13.8784 1094.63 16.7545 Z" fill="#000000" fill-rule="evenodd" fill-opacity="1" /><path clip-path="url(#clip100)" d="M1124.52 32.4315 Q1118.53 32.4315 1115.05 37.1306 Q1111.56 41.7891 1111.56 49.9314 Q1111.56 58.0738 1115 62.7728 Q1118.49 67.4314 1124.52 67.4314 Q1130.48 67.4314 1133.96 62.7323 Q1137.45 58.0333 1137.45 49.9314 Q1137.45 41.8701 1133.96 37.1711 Q1130.48 32.4315 1124.52 32.4315 M1124.52 26.1121 Q1134.25 26.1121 1139.8 32.4315 Q1145.35 38.7509 1145.35 49.9314 Q1145.35 61.0714 1139.8 67.4314 Q1134.25 73.7508 1124.52 73.7508 Q1114.76 73.7508 1109.21 67.4314 Q1103.7 61.0714 1103.7 49.9314 Q1103.7 38.7509 1109.21 32.4315 Q1114.76 26.1121 1124.52 26.1121 Z" fill="#000000" fill-rule="evenodd" fill-opacity="1" /><path clip-path="url(#clip100)" d="M1195.42 45.1919 L1195.42 72.576 L1187.96 72.576 L1187.96 45.4349 Q1187.96 38.994 1185.45 35.7938 Q1182.94 32.5936 1177.92 32.5936 Q1171.88 32.5936 1168.4 36.4419 Q1164.91 40.2903 1164.91 46.9338 L1164.91 72.576 L1157.42 72.576 L1157.42 27.2059 L1164.91 27.2059 L1164.91 34.2544 Q1167.59 30.163 1171.19 28.1376 Q1174.84 26.1121 1179.58 26.1121 Q1187.39 26.1121 1191.4 30.9732 Q1195.42 35.7938 1195.42 45.1919 Z" fill="#000000" fill-rule="evenodd" fill-opacity="1" /><path clip-path="url(#clip100)" d="M1204.93 27.2059 L1212.83 27.2059 L1227.01 65.2844 L1241.19 27.2059 L1249.09 27.2059 L1232.08 72.576 L1221.95 72.576 L1204.93 27.2059 Z" fill="#000000" fill-rule="evenodd" fill-opacity="1" /><path clip-path="url(#clip100)" d="M1298.19 48.0275 L1298.19 51.6733 L1263.92 51.6733 Q1264.4 59.3701 1268.53 63.421 Q1272.71 67.4314 1280.12 67.4314 Q1284.41 67.4314 1288.42 66.3781 Q1292.47 65.3249 1296.44 63.2184 L1296.44 70.267 Q1292.43 71.9684 1288.22 72.8596 Q1284.01 73.7508 1279.67 73.7508 Q1268.82 73.7508 1262.46 67.4314 Q1256.14 61.1119 1256.14 50.3365 Q1256.14 39.1965 1262.13 32.6746 Q1268.17 26.1121 1278.38 26.1121 Q1287.53 26.1121 1292.84 32.0264 Q1298.19 37.9003 1298.19 48.0275 M1290.73 45.84 Q1290.65 39.7232 1287.29 36.0774 Q1283.97 32.4315 1278.46 32.4315 Q1272.22 32.4315 1268.45 35.9558 Q1264.73 39.4801 1264.16 45.8805 L1290.73 45.84 Z" fill="#000000" fill-rule="evenodd" fill-opacity="1" /><path clip-path="url(#clip100)" d="M1336.71 34.1734 Q1335.46 33.4443 1333.96 33.1202 Q1332.5 32.7556 1330.72 32.7556 Q1324.4 32.7556 1320.99 36.8875 Q1317.63 40.9789 1317.63 48.6757 L1317.63 72.576 L1310.14 72.576 L1310.14 27.2059 L1317.63 27.2059 L1317.63 34.2544 Q1319.98 30.1225 1323.75 28.1376 Q1327.52 26.1121 1332.9 26.1121 Q1333.67 26.1121 1334.6 26.2337 Q1335.54 26.3147 1336.67 26.5172 L1336.71 34.1734 Z" fill="#000000" fill-rule="evenodd" fill-opacity="1" /><path clip-path="url(#clip100)" d="M1372.93 49.3643 Q1372.93 41.2625 1369.56 36.8065 Q1366.24 32.3505 1360.21 32.3505 Q1354.21 32.3505 1350.85 36.8065 Q1347.53 41.2625 1347.53 49.3643 Q1347.53 57.4256 1350.85 61.8816 Q1354.21 66.3376 1360.21 66.3376 Q1366.24 66.3376 1369.56 61.8816 Q1372.93 57.4256 1372.93 49.3643 M1380.38 66.9452 Q1380.38 78.5308 1375.23 84.1616 Q1370.09 89.8329 1359.48 89.8329 Q1355.55 89.8329 1352.06 89.2252 Q1348.58 88.6581 1345.3 87.4428 L1345.3 80.1917 Q1348.58 81.9741 1351.78 82.8248 Q1354.98 83.6755 1358.3 83.6755 Q1365.63 83.6755 1369.28 79.8271 Q1372.93 76.0193 1372.93 68.282 L1372.93 64.5957 Q1370.62 68.6061 1367.01 70.5911 Q1363.41 72.576 1358.38 72.576 Q1350.04 72.576 1344.93 66.2161 Q1339.83 59.8562 1339.83 49.3643 Q1339.83 38.832 1344.93 32.472 Q1350.04 26.1121 1358.38 26.1121 Q1363.41 26.1121 1367.01 28.0971 Q1370.62 30.082 1372.93 34.0924 L1372.93 27.2059 L1380.38 27.2059 L1380.38 66.9452 Z" fill="#000000" fill-rule="evenodd" fill-opacity="1" /><path clip-path="url(#clip100)" d="M1434.54 48.0275 L1434.54 51.6733 L1400.27 51.6733 Q1400.76 59.3701 1404.89 63.421 Q1409.06 67.4314 1416.47 67.4314 Q1420.77 67.4314 1424.78 66.3781 Q1428.83 65.3249 1432.8 63.2184 L1432.8 70.267 Q1428.79 71.9684 1424.57 72.8596 Q1420.36 73.7508 1416.03 73.7508 Q1405.17 73.7508 1398.81 67.4314 Q1392.49 61.1119 1392.49 50.3365 Q1392.49 39.1965 1398.49 32.6746 Q1404.52 26.1121 1414.73 26.1121 Q1423.89 26.1121 1429.19 32.0264 Q1434.54 37.9003 1434.54 48.0275 M1427.09 45.84 Q1427.01 39.7232 1423.64 36.0774 Q1420.32 32.4315 1414.81 32.4315 Q1408.57 32.4315 1404.81 35.9558 Q1401.08 39.4801 1400.51 45.8805 L1427.09 45.84 Z" fill="#000000" fill-rule="evenodd" fill-opacity="1" /><path clip-path="url(#clip100)" d="M1484.49 45.1919 L1484.49 72.576 L1477.03 72.576 L1477.03 45.4349 Q1477.03 38.994 1474.52 35.7938 Q1472.01 32.5936 1466.99 32.5936 Q1460.95 32.5936 1457.47 36.4419 Q1453.98 40.2903 1453.98 46.9338 L1453.98 72.576 L1446.49 72.576 L1446.49 27.2059 L1453.98 27.2059 L1453.98 34.2544 Q1456.66 30.163 1460.26 28.1376 Q1463.91 26.1121 1468.65 26.1121 Q1476.47 26.1121 1480.48 30.9732 Q1484.49 35.7938 1484.49 45.1919 Z" fill="#000000" fill-rule="evenodd" fill-opacity="1" /><path clip-path="url(#clip100)" d="M1532 28.9478 L1532 35.9153 Q1528.85 34.1734 1525.65 33.3227 Q1522.49 32.4315 1519.24 32.4315 Q1511.99 32.4315 1507.98 37.0496 Q1503.97 41.6271 1503.97 49.9314 Q1503.97 58.2358 1507.98 62.8538 Q1511.99 67.4314 1519.24 67.4314 Q1522.49 67.4314 1525.65 66.5807 Q1528.85 65.6895 1532 63.9476 L1532 70.8341 Q1528.89 72.2924 1525.52 73.0216 Q1522.2 73.7508 1518.43 73.7508 Q1508.19 73.7508 1502.15 67.3098 Q1496.11 60.8689 1496.11 49.9314 Q1496.11 38.832 1502.19 32.472 Q1508.31 26.1121 1518.92 26.1121 Q1522.36 26.1121 1525.65 26.8413 Q1528.93 27.5299 1532 28.9478 Z" fill="#000000" fill-rule="evenodd" fill-opacity="1" /><path clip-path="url(#clip100)" d="M1583.78 48.0275 L1583.78 51.6733 L1549.5 51.6733 Q1549.99 59.3701 1554.12 63.421 Q1558.3 67.4314 1565.71 67.4314 Q1570 67.4314 1574.01 66.3781 Q1578.06 65.3249 1582.03 63.2184 L1582.03 70.267 Q1578.02 71.9684 1573.81 72.8596 Q1569.6 73.7508 1565.26 73.7508 Q1554.41 73.7508 1548.05 67.4314 Q1541.73 61.1119 1541.73 50.3365 Q1541.73 39.1965 1547.72 32.6746 Q1553.76 26.1121 1563.97 26.1121 Q1573.12 26.1121 1578.43 32.0264 Q1583.78 37.9003 1583.78 48.0275 M1576.32 45.84 Q1576.24 39.7232 1572.88 36.0774 Q1569.56 32.4315 1564.05 32.4315 Q1557.81 32.4315 1554.04 35.9558 Q1550.32 39.4801 1549.75 45.8805 L1576.32 45.84 Z" fill="#000000" fill-rule="evenodd" fill-opacity="1" /><polyline clip-path="url(#clip102)" style="stroke:#009af9; stroke-linecap:butt; stroke-linejoin:round; stroke-width:16; stroke-opacity:1; fill:none" points="
  335.627,160.256 366.712,193.865 428.883,275.057 553.224,452.467 801.907,822.476 1299.27,1386.4 2294,1365.48 
  "/>
<circle clip-path="url(#clip102)" cx="335.627" cy="160.256" r="14.4" fill="#009af9" fill-rule="evenodd" fill-opacity="1" stroke="#000000" stroke-opacity="1" stroke-width="3.2"/>
<circle clip-path="url(#clip102)" cx="366.712" cy="193.865" r="14.4" fill="#009af9" fill-rule="evenodd" fill-opacity="1" stroke="#000000" stroke-opacity="1" stroke-width="3.2"/>
<circle clip-path="url(#clip102)" cx="428.883" cy="275.057" r="14.4" fill="#009af9" fill-rule="evenodd" fill-opacity="1" stroke="#000000" stroke-opacity="1" stroke-width="3.2"/>
<circle clip-path="url(#clip102)" cx="553.224" cy="452.467" r="14.4" fill="#009af9" fill-rule="evenodd" fill-opacity="1" stroke="#000000" stroke-opacity="1" stroke-width="3.2"/>
<circle clip-path="url(#clip102)" cx="801.907" cy="822.476" r="14.4" fill="#009af9" fill-rule="evenodd" fill-opacity="1" stroke="#000000" stroke-opacity="1" stroke-width="3.2"/>
<circle clip-path="url(#clip102)" cx="1299.27" cy="1386.4" r="14.4" fill="#009af9" fill-rule="evenodd" fill-opacity="1" stroke="#000000" stroke-opacity="1" stroke-width="3.2"/>
<circle clip-path="url(#clip102)" cx="2294" cy="1365.48" r="14.4" fill="#009af9" fill-rule="evenodd" fill-opacity="1" stroke="#000000" stroke-opacity="1" stroke-width="3.2"/>
<path clip-path="url(#clip100)" d="
M2000.48 270.476 L2283.56 270.476 L2283.56 166.796 L2000.48 166.796  Z
  " fill="#ffffff" fill-rule="evenodd" fill-opacity="1"/>
<polyline clip-path="url(#clip100)" style="stroke:#000000; stroke-linecap:butt; stroke-linejoin:round; stroke-width:4; stroke-opacity:1; fill:none" points="
  2000.48,270.476 2283.56,270.476 2283.56,166.796 2000.48,166.796 2000.48,270.476 
  "/>
<polyline clip-path="url(#clip100)" style="stroke:#009af9; stroke-linecap:butt; stroke-linejoin:round; stroke-width:4; stroke-opacity:1; fill:none" points="
  2023.54,218.636 2161.93,218.636 
  "/>
<circle clip-path="url(#clip100)" cx="2092.74" cy="218.636" r="23.04" fill="#009af9" fill-rule="evenodd" fill-opacity="1" stroke="#000000" stroke-opacity="1" stroke-width="5.12"/>
<path clip-path="url(#clip100)" d="M2198.84 238.323 Q2197.04 242.953 2195.32 244.365 Q2193.61 245.777 2190.74 245.777 L2187.34 245.777 L2187.34 242.212 L2189.84 242.212 Q2191.6 242.212 2192.57 241.379 Q2193.54 240.545 2194.72 237.443 L2195.48 235.499 L2185 209.99 L2189.51 209.99 L2197.61 230.268 L2205.72 209.99 L2210.23 209.99 L2198.84 238.323 Z" fill="#000000" fill-rule="evenodd" fill-opacity="1" /><path clip-path="url(#clip100)" d="M2217.52 231.981 L2225.16 231.981 L2225.16 205.615 L2216.85 207.282 L2216.85 203.022 L2225.11 201.356 L2229.79 201.356 L2229.79 231.981 L2237.43 231.981 L2237.43 235.916 L2217.52 235.916 L2217.52 231.981 Z" fill="#000000" fill-rule="evenodd" fill-opacity="1" /></svg>
