<?xml version="1.0" encoding="utf-8"?>
<svg xmlns="http://www.w3.org/2000/svg" xmlns:xlink="http://www.w3.org/1999/xlink" width="600" height="400" viewBox="0 0 2400 1600">
<defs>
  <clipPath id="clip740">
    <rect x="0" y="0" width="2400" height="1600"/>
  </clipPath>
</defs>
<path clip-path="url(#clip740)" d="
M0 1600 L2400 1600 L2400 0 L0 0  Z
  " fill="#ffffff" fill-rule="evenodd" fill-opacity="1"/>
<defs>
  <clipPath id="clip741">
    <rect x="480" y="0" width="1681" height="1600"/>
  </clipPath>
</defs>
<path clip-path="url(#clip740)" d="
M224.098 1486.45 L2352.76 1486.45 L2352.76 47.2441 L224.098 47.2441  Z
  " fill="#ffffff" fill-rule="evenodd" fill-opacity="1"/>
<defs>
  <clipPath id="clip742">
    <rect x="224" y="47" width="2130" height="1440"/>
  </clipPath>
</defs>
<polyline clip-path="url(#clip742)" style="stroke:#000000; stroke-linecap:butt; stroke-linejoin:round; stroke-width:2; stroke-opacity:0.1; fill:none" points="
  264.058,1486.45 264.058,47.2441 
  "/>
<polyline clip-path="url(#clip742)" style="stroke:#000000; stroke-linecap:butt; stroke-linejoin:round; stroke-width:2; stroke-opacity:0.1; fill:none" points="
  776.243,1486.45 776.243,47.2441 
  "/>
<polyline clip-path="url(#clip742)" style="stroke:#000000; stroke-linecap:butt; stroke-linejoin:round; stroke-width:2; stroke-opacity:0.1; fill:none" points="
  1288.43,1486.45 1288.43,47.2441 
  "/>
<polyline clip-path="url(#clip742)" style="stroke:#000000; stroke-linecap:butt; stroke-linejoin:round; stroke-width:2; stroke-opacity:0.1; fill:none" points="
  1800.61,1486.45 1800.61,47.2441 
  "/>
<polyline clip-path="url(#clip742)" style="stroke:#000000; stroke-linecap:butt; stroke-linejoin:round; stroke-width:2; stroke-opacity:0.1; fill:none" points="
  2312.8,1486.45 2312.8,47.2441 
  "/>
<polyline clip-path="url(#clip740)" style="stroke:#000000; stroke-linecap:butt; stroke-linejoin:round; stroke-width:4; stroke-opacity:1; fill:none" points="
  224.098,1486.45 2352.76,1486.45 
  "/>
<polyline clip-path="url(#clip740)" style="stroke:#000000; stroke-linecap:butt; stroke-linejoin:round; stroke-width:4; stroke-opacity:1; fill:none" points="
  264.058,1486.45 264.058,1467.55 
  "/>
<polyline clip-path="url(#clip740)" style="stroke:#000000; stroke-linecap:butt; stroke-linejoin:round; stroke-width:4; stroke-opacity:1; fill:none" points="
  776.243,1486.45 776.243,1467.55 
  "/>
<polyline clip-path="url(#clip740)" style="stroke:#000000; stroke-linecap:butt; stroke-linejoin:round; stroke-width:4; stroke-opacity:1; fill:none" points="
  1288.43,1486.45 1288.43,1467.55 
  "/>
<polyline clip-path="url(#clip740)" style="stroke:#000000; stroke-linecap:butt; stroke-linejoin:round; stroke-width:4; stroke-opacity:1; fill:none" points="
  1800.61,1486.45 1800.61,1467.55 
  "/>
<polyline clip-path="url(#clip740)" style="stroke:#000000; stroke-linecap:butt; stroke-linejoin:round; stroke-width:4; stroke-opacity:1; fill:none" points="
  2312.8,1486.45 2312.8,1467.55 
  "/>
<path clip-path="url(#clip740)" d="M210.586 1532.02 L240.262 1532.02 L240.262 1535.95 L210.586 1535.95 L210.586 1532.02 Z" fill="#000000" fill-rule="evenodd" fill-opacity="1" /><path clip-path="url(#clip740)" d="M251.165 1544.91 L258.804 1544.91 L258.804 1518.55 L250.494 1520.21 L250.494 1515.95 L258.757 1514.29 L263.433 1514.29 L263.433 1544.91 L271.072 1544.91 L271.072 1548.85 L251.165 1548.85 L251.165 1544.91 Z" fill="#000000" fill-rule="evenodd" fill-opacity="1" /><path clip-path="url(#clip740)" d="M280.517 1542.97 L285.401 1542.97 L285.401 1548.85 L280.517 1548.85 L280.517 1542.97 Z" fill="#000000" fill-rule="evenodd" fill-opacity="1" /><path clip-path="url(#clip740)" d="M305.586 1517.37 Q301.975 1517.37 300.146 1520.93 Q298.341 1524.47 298.341 1531.6 Q298.341 1538.71 300.146 1542.27 Q301.975 1545.82 305.586 1545.82 Q309.22 1545.82 311.026 1542.27 Q312.854 1538.71 312.854 1531.6 Q312.854 1524.47 311.026 1520.93 Q309.22 1517.37 305.586 1517.37 M305.586 1513.66 Q311.396 1513.66 314.452 1518.27 Q317.53 1522.85 317.53 1531.6 Q317.53 1540.33 314.452 1544.94 Q311.396 1549.52 305.586 1549.52 Q299.776 1549.52 296.697 1544.94 Q293.642 1540.33 293.642 1531.6 Q293.642 1522.85 296.697 1518.27 Q299.776 1513.66 305.586 1513.66 Z" fill="#000000" fill-rule="evenodd" fill-opacity="1" /><path clip-path="url(#clip740)" d="M723.268 1532.02 L752.944 1532.02 L752.944 1535.95 L723.268 1535.95 L723.268 1532.02 Z" fill="#000000" fill-rule="evenodd" fill-opacity="1" /><path clip-path="url(#clip740)" d="M773.037 1517.37 Q769.426 1517.37 767.597 1520.93 Q765.791 1524.47 765.791 1531.6 Q765.791 1538.71 767.597 1542.27 Q769.426 1545.82 773.037 1545.82 Q776.671 1545.82 778.476 1542.27 Q780.305 1538.71 780.305 1531.6 Q780.305 1524.47 778.476 1520.93 Q776.671 1517.37 773.037 1517.37 M773.037 1513.66 Q778.847 1513.66 781.902 1518.27 Q784.981 1522.85 784.981 1531.6 Q784.981 1540.33 781.902 1544.94 Q778.847 1549.52 773.037 1549.52 Q767.226 1549.52 764.148 1544.94 Q761.092 1540.33 761.092 1531.6 Q761.092 1522.85 764.148 1518.27 Q767.226 1513.66 773.037 1513.66 Z" fill="#000000" fill-rule="evenodd" fill-opacity="1" /><path clip-path="url(#clip740)" d="M793.199 1542.97 L798.083 1542.97 L798.083 1548.85 L793.199 1548.85 L793.199 1542.97 Z" fill="#000000" fill-rule="evenodd" fill-opacity="1" /><path clip-path="url(#clip740)" d="M808.314 1514.29 L826.671 1514.29 L826.671 1518.22 L812.597 1518.22 L812.597 1526.7 Q813.615 1526.35 814.634 1526.19 Q815.652 1526 816.671 1526 Q822.458 1526 825.837 1529.17 Q829.217 1532.34 829.217 1537.76 Q829.217 1543.34 825.745 1546.44 Q822.272 1549.52 815.953 1549.52 Q813.777 1549.52 811.509 1549.15 Q809.263 1548.78 806.856 1548.04 L806.856 1543.34 Q808.939 1544.47 811.161 1545.03 Q813.384 1545.58 815.86 1545.58 Q819.865 1545.58 822.203 1543.48 Q824.541 1541.37 824.541 1537.76 Q824.541 1534.15 822.203 1532.04 Q819.865 1529.94 815.86 1529.94 Q813.985 1529.94 812.111 1530.35 Q810.259 1530.77 808.314 1531.65 L808.314 1514.29 Z" fill="#000000" fill-rule="evenodd" fill-opacity="1" /><path clip-path="url(#clip740)" d="M1265.81 1517.37 Q1262.2 1517.37 1260.37 1520.93 Q1258.57 1524.47 1258.57 1531.6 Q1258.57 1538.71 1260.37 1542.27 Q1262.2 1545.82 1265.81 1545.82 Q1269.45 1545.82 1271.25 1542.27 Q1273.08 1538.71 1273.08 1531.6 Q1273.08 1524.47 1271.25 1520.93 Q1269.45 1517.37 1265.81 1517.37 M1265.81 1513.66 Q1271.62 1513.66 1274.68 1518.27 Q1277.76 1522.85 1277.76 1531.6 Q1277.76 1540.33 1274.68 1544.94 Q1271.62 1549.52 1265.81 1549.52 Q1260 1549.52 1256.92 1544.94 Q1253.87 1540.33 1253.87 1531.6 Q1253.87 1522.85 1256.92 1518.27 Q1260 1513.66 1265.81 1513.66 Z" fill="#000000" fill-rule="evenodd" fill-opacity="1" /><path clip-path="url(#clip740)" d="M1285.97 1542.97 L1290.86 1542.97 L1290.86 1548.85 L1285.97 1548.85 L1285.97 1542.97 Z" fill="#000000" fill-rule="evenodd" fill-opacity="1" /><path clip-path="url(#clip740)" d="M1311.04 1517.37 Q1307.43 1517.37 1305.6 1520.93 Q1303.8 1524.47 1303.8 1531.6 Q1303.8 1538.71 1305.6 1542.27 Q1307.43 1545.82 1311.04 1545.82 Q1314.68 1545.82 1316.48 1542.27 Q1318.31 1538.71 1318.31 1531.6 Q1318.31 1524.47 1316.48 1520.93 Q1314.68 1517.37 1311.04 1517.37 M1311.04 1513.66 Q1316.85 1513.66 1319.91 1518.27 Q1322.99 1522.85 1322.99 1531.6 Q1322.99 1540.33 1319.91 1544.94 Q1316.85 1549.52 1311.04 1549.52 Q1305.23 1549.52 1302.15 1544.94 Q1299.1 1540.33 1299.1 1531.6 Q1299.1 1522.85 1302.15 1518.27 Q1305.23 1513.66 1311.04 1513.66 Z" fill="#000000" fill-rule="evenodd" fill-opacity="1" /><path clip-path="url(#clip740)" d="M1778.49 1517.37 Q1774.88 1517.37 1773.05 1520.93 Q1771.25 1524.47 1771.25 1531.6 Q1771.25 1538.71 1773.05 1542.27 Q1774.88 1545.82 1778.49 1545.82 Q1782.13 1545.82 1783.93 1542.27 Q1785.76 1538.71 1785.76 1531.6 Q1785.76 1524.47 1783.93 1520.93 Q1782.13 1517.37 1778.49 1517.37 M1778.49 1513.66 Q1784.3 1513.66 1787.36 1518.27 Q1790.44 1522.85 1790.44 1531.6 Q1790.44 1540.33 1787.36 1544.94 Q1784.3 1549.52 1778.49 1549.52 Q1772.68 1549.52 1769.6 1544.94 Q1766.55 1540.33 1766.55 1531.6 Q1766.55 1522.85 1769.6 1518.27 Q1772.68 1513.66 1778.49 1513.66 Z" fill="#000000" fill-rule="evenodd" fill-opacity="1" /><path clip-path="url(#clip740)" d="M1798.66 1542.97 L1803.54 1542.97 L1803.54 1548.85 L1798.66 1548.85 L1798.66 1542.97 Z" fill="#000000" fill-rule="evenodd" fill-opacity="1" /><path clip-path="url(#clip740)" d="M1813.77 1514.29 L1832.13 1514.29 L1832.13 1518.22 L1818.05 1518.22 L1818.05 1526.7 Q1819.07 1526.35 1820.09 1526.19 Q1821.11 1526 1822.13 1526 Q1827.91 1526 1831.29 1529.17 Q1834.67 1532.34 1834.67 1537.76 Q1834.67 1543.34 1831.2 1546.44 Q1827.73 1549.52 1821.41 1549.52 Q1819.23 1549.52 1816.97 1549.15 Q1814.72 1548.78 1812.31 1548.04 L1812.31 1543.34 Q1814.4 1544.47 1816.62 1545.03 Q1818.84 1545.58 1821.32 1545.58 Q1825.32 1545.58 1827.66 1543.48 Q1830 1541.37 1830 1537.76 Q1830 1534.15 1827.66 1532.04 Q1825.32 1529.94 1821.32 1529.94 Q1819.44 1529.94 1817.57 1530.35 Q1815.72 1530.77 1813.77 1531.65 L1813.77 1514.29 Z" fill="#000000" fill-rule="evenodd" fill-opacity="1" /><path clip-path="url(#clip740)" d="M2279.95 1544.91 L2287.59 1544.91 L2287.59 1518.55 L2279.28 1520.21 L2279.28 1515.95 L2287.54 1514.29 L2292.22 1514.29 L2292.22 1544.91 L2299.86 1544.91 L2299.86 1548.85 L2279.95 1548.85 L2279.95 1544.91 Z" fill="#000000" fill-rule="evenodd" fill-opacity="1" /><path clip-path="url(#clip740)" d="M2309.3 1542.97 L2314.18 1542.97 L2314.18 1548.85 L2309.3 1548.85 L2309.3 1542.97 Z" fill="#000000" fill-rule="evenodd" fill-opacity="1" /><path clip-path="url(#clip740)" d="M2334.37 1517.37 Q2330.76 1517.37 2328.93 1520.93 Q2327.12 1524.47 2327.12 1531.6 Q2327.12 1538.71 2328.93 1542.27 Q2330.76 1545.82 2334.37 1545.82 Q2338 1545.82 2339.81 1542.27 Q2341.64 1538.71 2341.64 1531.6 Q2341.64 1524.47 2339.81 1520.93 Q2338 1517.37 2334.37 1517.37 M2334.37 1513.66 Q2340.18 1513.66 2343.24 1518.27 Q2346.31 1522.85 2346.31 1531.6 Q2346.31 1540.33 2343.24 1544.94 Q2340.18 1549.52 2334.37 1549.52 Q2328.56 1549.52 2325.48 1544.94 Q2322.42 1540.33 2322.42 1531.6 Q2322.42 1522.85 2325.48 1518.27 Q2328.56 1513.66 2334.37 1513.66 Z" fill="#000000" fill-rule="evenodd" fill-opacity="1" /><polyline clip-path="url(#clip742)" style="stroke:#000000; stroke-linecap:butt; stroke-linejoin:round; stroke-width:2; stroke-opacity:0.1; fill:none" points="
  224.098,1249.33 2352.76,1249.33 
  "/>
<polyline clip-path="url(#clip742)" style="stroke:#000000; stroke-linecap:butt; stroke-linejoin:round; stroke-width:2; stroke-opacity:0.1; fill:none" points="
  224.098,1008.09 2352.76,1008.09 
  "/>
<polyline clip-path="url(#clip742)" style="stroke:#000000; stroke-linecap:butt; stroke-linejoin:round; stroke-width:2; stroke-opacity:0.1; fill:none" points="
  224.098,766.846 2352.76,766.846 
  "/>
<polyline clip-path="url(#clip742)" style="stroke:#000000; stroke-linecap:butt; stroke-linejoin:round; stroke-width:2; stroke-opacity:0.1; fill:none" points="
  224.098,525.603 2352.76,525.603 
  "/>
<polyline clip-path="url(#clip742)" style="stroke:#000000; stroke-linecap:butt; stroke-linejoin:round; stroke-width:2; stroke-opacity:0.1; fill:none" points="
  224.098,284.36 2352.76,284.36 
  "/>
<polyline clip-path="url(#clip740)" style="stroke:#000000; stroke-linecap:butt; stroke-linejoin:round; stroke-width:4; stroke-opacity:1; fill:none" points="
  224.098,1486.45 224.098,47.2441 
  "/>
<polyline clip-path="url(#clip740)" style="stroke:#000000; stroke-linecap:butt; stroke-linejoin:round; stroke-width:4; stroke-opacity:1; fill:none" points="
  224.098,1249.33 242.996,1249.33 
  "/>
<polyline clip-path="url(#clip740)" style="stroke:#000000; stroke-linecap:butt; stroke-linejoin:round; stroke-width:4; stroke-opacity:1; fill:none" points="
  224.098,1008.09 242.996,1008.09 
  "/>
<polyline clip-path="url(#clip740)" style="stroke:#000000; stroke-linecap:butt; stroke-linejoin:round; stroke-width:4; stroke-opacity:1; fill:none" points="
  224.098,766.846 242.996,766.846 
  "/>
<polyline clip-path="url(#clip740)" style="stroke:#000000; stroke-linecap:butt; stroke-linejoin:round; stroke-width:4; stroke-opacity:1; fill:none" points="
  224.098,525.603 242.996,525.603 
  "/>
<polyline clip-path="url(#clip740)" style="stroke:#000000; stroke-linecap:butt; stroke-linejoin:round; stroke-width:4; stroke-opacity:1; fill:none" points="
  224.098,284.36 242.996,284.36 
  "/>
<path clip-path="url(#clip740)" d="M50.9921 1249.78 L80.6679 1249.78 L80.6679 1253.72 L50.9921 1253.72 L50.9921 1249.78 Z" fill="#000000" fill-rule="evenodd" fill-opacity="1" /><path clip-path="url(#clip740)" d="M100.76 1235.13 Q97.1493 1235.13 95.3206 1238.7 Q93.515 1242.24 93.515 1249.37 Q93.515 1256.47 95.3206 1260.04 Q97.1493 1263.58 100.76 1263.58 Q104.395 1263.58 106.2 1260.04 Q108.029 1256.47 108.029 1249.37 Q108.029 1242.24 106.2 1238.7 Q104.395 1235.13 100.76 1235.13 M100.76 1231.43 Q106.571 1231.43 109.626 1236.03 Q112.705 1240.62 112.705 1249.37 Q112.705 1258.09 109.626 1262.7 Q106.571 1267.28 100.76 1267.28 Q94.9502 1267.28 91.8715 1262.7 Q88.816 1258.09 88.816 1249.37 Q88.816 1240.62 91.8715 1236.03 Q94.9502 1231.43 100.76 1231.43 Z" fill="#000000" fill-rule="evenodd" fill-opacity="1" /><path clip-path="url(#clip740)" d="M120.922 1260.73 L125.807 1260.73 L125.807 1266.61 L120.922 1266.61 L120.922 1260.73 Z" fill="#000000" fill-rule="evenodd" fill-opacity="1" /><path clip-path="url(#clip740)" d="M136.802 1262.68 L144.441 1262.68 L144.441 1236.31 L136.131 1237.98 L136.131 1233.72 L144.394 1232.05 L149.07 1232.05 L149.07 1262.68 L156.709 1262.68 L156.709 1266.61 L136.802 1266.61 L136.802 1262.68 Z" fill="#000000" fill-rule="evenodd" fill-opacity="1" /><path clip-path="url(#clip740)" d="M176.153 1235.13 Q172.542 1235.13 170.714 1238.7 Q168.908 1242.24 168.908 1249.37 Q168.908 1256.47 170.714 1260.04 Q172.542 1263.58 176.153 1263.58 Q179.788 1263.58 181.593 1260.04 Q183.422 1256.47 183.422 1249.37 Q183.422 1242.24 181.593 1238.7 Q179.788 1235.13 176.153 1235.13 M176.153 1231.43 Q181.964 1231.43 185.019 1236.03 Q188.098 1240.62 188.098 1249.37 Q188.098 1258.09 185.019 1262.7 Q181.964 1267.28 176.153 1267.28 Q170.343 1267.28 167.265 1262.7 Q164.209 1258.09 164.209 1249.37 Q164.209 1240.62 167.265 1236.03 Q170.343 1231.43 176.153 1231.43 Z" fill="#000000" fill-rule="evenodd" fill-opacity="1" /><path clip-path="url(#clip740)" d="M51.9875 1008.54 L81.6633 1008.54 L81.6633 1012.48 L51.9875 1012.48 L51.9875 1008.54 Z" fill="#000000" fill-rule="evenodd" fill-opacity="1" /><path clip-path="url(#clip740)" d="M101.756 993.888 Q98.1447 993.888 96.316 997.452 Q94.5104 1000.99 94.5104 1008.12 Q94.5104 1015.23 96.316 1018.79 Q98.1447 1022.34 101.756 1022.34 Q105.39 1022.34 107.196 1018.79 Q109.024 1015.23 109.024 1008.12 Q109.024 1000.99 107.196 997.452 Q105.39 993.888 101.756 993.888 M101.756 990.184 Q107.566 990.184 110.621 994.79 Q113.7 999.374 113.7 1008.12 Q113.7 1016.85 110.621 1021.46 Q107.566 1026.04 101.756 1026.04 Q95.9456 1026.04 92.8669 1021.46 Q89.8114 1016.85 89.8114 1008.12 Q89.8114 999.374 92.8669 994.79 Q95.9456 990.184 101.756 990.184 Z" fill="#000000" fill-rule="evenodd" fill-opacity="1" /><path clip-path="url(#clip740)" d="M121.918 1019.49 L126.802 1019.49 L126.802 1025.37 L121.918 1025.37 L121.918 1019.49 Z" fill="#000000" fill-rule="evenodd" fill-opacity="1" /><path clip-path="url(#clip740)" d="M146.987 993.888 Q143.376 993.888 141.547 997.452 Q139.742 1000.99 139.742 1008.12 Q139.742 1015.23 141.547 1018.79 Q143.376 1022.34 146.987 1022.34 Q150.621 1022.34 152.427 1018.79 Q154.255 1015.23 154.255 1008.12 Q154.255 1000.99 152.427 997.452 Q150.621 993.888 146.987 993.888 M146.987 990.184 Q152.797 990.184 155.853 994.79 Q158.931 999.374 158.931 1008.12 Q158.931 1016.85 155.853 1021.46 Q152.797 1026.04 146.987 1026.04 Q141.177 1026.04 138.098 1021.46 Q135.043 1016.85 135.043 1008.12 Q135.043 999.374 138.098 994.79 Q141.177 990.184 146.987 990.184 Z" fill="#000000" fill-rule="evenodd" fill-opacity="1" /><path clip-path="url(#clip740)" d="M167.195 990.809 L185.552 990.809 L185.552 994.744 L171.478 994.744 L171.478 1003.22 Q172.496 1002.87 173.515 1002.71 Q174.533 1002.52 175.552 1002.52 Q181.339 1002.52 184.718 1005.69 Q188.098 1008.86 188.098 1014.28 Q188.098 1019.86 184.626 1022.96 Q181.153 1026.04 174.834 1026.04 Q172.658 1026.04 170.39 1025.67 Q168.144 1025.3 165.737 1024.56 L165.737 1019.86 Q167.82 1020.99 170.042 1021.55 Q172.265 1022.11 174.741 1022.11 Q178.746 1022.11 181.084 1020 Q183.422 1017.89 183.422 1014.28 Q183.422 1010.67 181.084 1008.56 Q178.746 1006.46 174.741 1006.46 Q172.866 1006.46 170.991 1006.87 Q169.14 1007.29 167.195 1008.17 L167.195 990.809 Z" fill="#000000" fill-rule="evenodd" fill-opacity="1" /><path clip-path="url(#clip740)" d="M100.76 752.645 Q97.1493 752.645 95.3206 756.209 Q93.515 759.751 93.515 766.881 Q93.515 773.987 95.3206 777.552 Q97.1493 781.094 100.76 781.094 Q104.395 781.094 106.2 777.552 Q108.029 773.987 108.029 766.881 Q108.029 759.751 106.2 756.209 Q104.395 752.645 100.76 752.645 M100.76 748.941 Q106.571 748.941 109.626 753.547 Q112.705 758.131 112.705 766.881 Q112.705 775.608 109.626 780.214 Q106.571 784.797 100.76 784.797 Q94.9502 784.797 91.8715 780.214 Q88.816 775.608 88.816 766.881 Q88.816 758.131 91.8715 753.547 Q94.9502 748.941 100.76 748.941 Z" fill="#000000" fill-rule="evenodd" fill-opacity="1" /><path clip-path="url(#clip740)" d="M120.922 778.246 L125.807 778.246 L125.807 784.126 L120.922 784.126 L120.922 778.246 Z" fill="#000000" fill-rule="evenodd" fill-opacity="1" /><path clip-path="url(#clip740)" d="M145.992 752.645 Q142.381 752.645 140.552 756.209 Q138.746 759.751 138.746 766.881 Q138.746 773.987 140.552 777.552 Q142.381 781.094 145.992 781.094 Q149.626 781.094 151.431 777.552 Q153.26 773.987 153.26 766.881 Q153.26 759.751 151.431 756.209 Q149.626 752.645 145.992 752.645 M145.992 748.941 Q151.802 748.941 154.857 753.547 Q157.936 758.131 157.936 766.881 Q157.936 775.608 154.857 780.214 Q151.802 784.797 145.992 784.797 Q140.181 784.797 137.103 780.214 Q134.047 775.608 134.047 766.881 Q134.047 758.131 137.103 753.547 Q140.181 748.941 145.992 748.941 Z" fill="#000000" fill-rule="evenodd" fill-opacity="1" /><path clip-path="url(#clip740)" d="M176.153 752.645 Q172.542 752.645 170.714 756.209 Q168.908 759.751 168.908 766.881 Q168.908 773.987 170.714 777.552 Q172.542 781.094 176.153 781.094 Q179.788 781.094 181.593 777.552 Q183.422 773.987 183.422 766.881 Q183.422 759.751 181.593 756.209 Q179.788 752.645 176.153 752.645 M176.153 748.941 Q181.964 748.941 185.019 753.547 Q188.098 758.131 188.098 766.881 Q188.098 775.608 185.019 780.214 Q181.964 784.797 176.153 784.797 Q170.343 784.797 167.265 780.214 Q164.209 775.608 164.209 766.881 Q164.209 758.131 167.265 753.547 Q170.343 748.941 176.153 748.941 Z" fill="#000000" fill-rule="evenodd" fill-opacity="1" /><path clip-path="url(#clip740)" d="M101.756 511.402 Q98.1447 511.402 96.316 514.967 Q94.5104 518.508 94.5104 525.638 Q94.5104 532.744 96.316 536.309 Q98.1447 539.851 101.756 539.851 Q105.39 539.851 107.196 536.309 Q109.024 532.744 109.024 525.638 Q109.024 518.508 107.196 514.967 Q105.39 511.402 101.756 511.402 M101.756 507.698 Q107.566 507.698 110.621 512.304 Q113.7 516.888 113.7 525.638 Q113.7 534.365 110.621 538.971 Q107.566 543.554 101.756 543.554 Q95.9456 543.554 92.8669 538.971 Q89.8114 534.365 89.8114 525.638 Q89.8114 516.888 92.8669 512.304 Q95.9456 507.698 101.756 507.698 Z" fill="#000000" fill-rule="evenodd" fill-opacity="1" /><path clip-path="url(#clip740)" d="M121.918 537.003 L126.802 537.003 L126.802 542.883 L121.918 542.883 L121.918 537.003 Z" fill="#000000" fill-rule="evenodd" fill-opacity="1" /><path clip-path="url(#clip740)" d="M146.987 511.402 Q143.376 511.402 141.547 514.967 Q139.742 518.508 139.742 525.638 Q139.742 532.744 141.547 536.309 Q143.376 539.851 146.987 539.851 Q150.621 539.851 152.427 536.309 Q154.255 532.744 154.255 525.638 Q154.255 518.508 152.427 514.967 Q150.621 511.402 146.987 511.402 M146.987 507.698 Q152.797 507.698 155.853 512.304 Q158.931 516.888 158.931 525.638 Q158.931 534.365 155.853 538.971 Q152.797 543.554 146.987 543.554 Q141.177 543.554 138.098 538.971 Q135.043 534.365 135.043 525.638 Q135.043 516.888 138.098 512.304 Q141.177 507.698 146.987 507.698 Z" fill="#000000" fill-rule="evenodd" fill-opacity="1" /><path clip-path="url(#clip740)" d="M167.195 508.323 L185.552 508.323 L185.552 512.258 L171.478 512.258 L171.478 520.73 Q172.496 520.383 173.515 520.221 Q174.533 520.036 175.552 520.036 Q181.339 520.036 184.718 523.207 Q188.098 526.378 188.098 531.795 Q188.098 537.374 184.626 540.476 Q181.153 543.554 174.834 543.554 Q172.658 543.554 170.39 543.184 Q168.144 542.814 165.737 542.073 L165.737 537.374 Q167.82 538.508 170.042 539.064 Q172.265 539.619 174.741 539.619 Q178.746 539.619 181.084 537.513 Q183.422 535.406 183.422 531.795 Q183.422 528.184 181.084 526.078 Q178.746 523.971 174.741 523.971 Q172.866 523.971 170.991 524.388 Q169.14 524.804 167.195 525.684 L167.195 508.323 Z" fill="#000000" fill-rule="evenodd" fill-opacity="1" /><path clip-path="url(#clip740)" d="M100.76 270.159 Q97.1493 270.159 95.3206 273.724 Q93.515 277.265 93.515 284.395 Q93.515 291.501 95.3206 295.066 Q97.1493 298.608 100.76 298.608 Q104.395 298.608 106.2 295.066 Q108.029 291.501 108.029 284.395 Q108.029 277.265 106.2 273.724 Q104.395 270.159 100.76 270.159 M100.76 266.455 Q106.571 266.455 109.626 271.062 Q112.705 275.645 112.705 284.395 Q112.705 293.122 109.626 297.728 Q106.571 302.311 100.76 302.311 Q94.9502 302.311 91.8715 297.728 Q88.816 293.122 88.816 284.395 Q88.816 275.645 91.8715 271.062 Q94.9502 266.455 100.76 266.455 Z" fill="#000000" fill-rule="evenodd" fill-opacity="1" /><path clip-path="url(#clip740)" d="M120.922 295.76 L125.807 295.76 L125.807 301.64 L120.922 301.64 L120.922 295.76 Z" fill="#000000" fill-rule="evenodd" fill-opacity="1" /><path clip-path="url(#clip740)" d="M136.802 297.705 L144.441 297.705 L144.441 271.339 L136.131 273.006 L136.131 268.747 L144.394 267.08 L149.07 267.08 L149.07 297.705 L156.709 297.705 L156.709 301.64 L136.802 301.64 L136.802 297.705 Z" fill="#000000" fill-rule="evenodd" fill-opacity="1" /><path clip-path="url(#clip740)" d="M176.153 270.159 Q172.542 270.159 170.714 273.724 Q168.908 277.265 168.908 284.395 Q168.908 291.501 170.714 295.066 Q172.542 298.608 176.153 298.608 Q179.788 298.608 181.593 295.066 Q183.422 291.501 183.422 284.395 Q183.422 277.265 181.593 273.724 Q179.788 270.159 176.153 270.159 M176.153 266.455 Q181.964 266.455 185.019 271.062 Q188.098 275.645 188.098 284.395 Q188.098 293.122 185.019 297.728 Q181.964 302.311 176.153 302.311 Q170.343 302.311 167.265 297.728 Q164.209 293.122 164.209 284.395 Q164.209 275.645 167.265 271.062 Q170.343 266.455 176.153 266.455 Z" fill="#000000" fill-rule="evenodd" fill-opacity="1" /><polyline clip-path="url(#clip742)" style="stroke:#009af9; stroke-linecap:butt; stroke-linejoin:round; stroke-width:12; stroke-opacity:1; fill:none" points="
  284.343,745.731 304.627,724.636 324.912,703.582 345.196,682.589 365.481,661.678 385.766,640.868 406.05,620.18 426.335,599.634 446.619,579.25 466.904,559.048 
  487.188,539.046 507.473,519.265 527.757,499.724 548.042,480.44 568.326,461.434 588.611,442.724 608.895,424.326 629.18,406.261 649.464,388.544 669.749,371.193 
  690.033,354.225 710.318,337.656 730.602,321.502 750.887,305.779 771.172,290.502 791.456,275.686 811.741,261.345 832.025,247.494 852.31,234.144 872.594,221.31 
  892.879,209.004 913.163,197.237 933.448,186.022 953.732,175.368 974.017,165.287 994.301,155.788 1014.59,146.879 1034.87,138.571 1055.15,130.87 1075.44,123.785 
  1095.72,117.321 1116.01,111.487 1136.29,106.286 1156.58,101.724 1176.86,97.8055 1197.15,94.5344 1217.43,91.9137 1237.72,89.9459 1258,88.633 1278.28,87.9763 
  1298.57,87.9763 1318.85,88.633 1339.14,89.9459 1359.42,91.9137 1379.71,94.5344 1399.99,97.8055 1420.28,101.724 1440.56,106.286 1460.85,111.487 1481.13,117.321 
  1501.41,123.785 1521.7,130.87 1541.98,138.571 1562.27,146.879 1582.55,155.788 1602.84,165.287 1623.12,175.368 1643.41,186.022 1663.69,197.237 1683.98,209.004 
  1704.26,221.31 1724.54,234.144 1744.83,247.494 1765.11,261.345 1785.4,275.686 1805.68,290.502 1825.97,305.779 1846.25,321.502 1866.54,337.656 1886.82,354.225 
  1907.1,371.193 1927.39,388.544 1947.67,406.261 1967.96,424.326 1988.24,442.724 2008.53,461.434 2028.81,480.44 2049.1,499.724 2069.38,519.265 2089.67,539.046 
  2109.95,559.048 2130.23,579.25 2150.52,599.634 2170.8,620.18 2191.09,640.868 2211.37,661.678 2231.66,682.589 2251.94,703.582 2272.23,724.636 2292.51,745.731 
  
  "/>
<polyline clip-path="url(#clip742)" style="stroke:#e26f46; stroke-linecap:butt; stroke-linejoin:round; stroke-width:12; stroke-opacity:1; fill:none" points="
  284.343,724.636 304.627,682.589 324.912,640.868 345.196,599.634 365.481,559.048 385.766,519.265 406.05,480.44 426.335,442.724 446.619,406.261 466.904,371.193 
  487.188,337.656 507.473,305.779 527.757,275.686 548.042,247.494 568.326,221.31 588.611,197.237 608.895,175.368 629.18,155.788 649.464,138.571 669.749,123.785 
  690.033,111.487 710.318,101.724 730.602,94.5344 750.887,89.9459 771.172,87.9763 791.456,88.633 811.741,91.9137 832.025,97.8055 852.31,106.286 872.594,117.321 
  892.879,130.87 913.163,146.879 933.448,165.287 953.732,186.022 974.017,209.004 994.301,234.144 1014.59,261.345 1034.87,290.502 1055.15,321.502 1075.44,354.225 
  1095.72,388.544 1116.01,424.326 1136.29,461.434 1156.58,499.724 1176.86,539.046 1197.15,579.25 1217.43,620.18 1237.72,661.678 1258,703.582 1278.28,745.731 
  1298.57,787.961 1318.85,830.11 1339.14,872.014 1359.42,913.512 1379.71,954.442 1399.99,994.646 1420.28,1033.97 1440.56,1072.26 1460.85,1109.37 1481.13,1145.15 
  1501.41,1179.47 1521.7,1212.19 1541.98,1243.19 1562.27,1272.35 1582.55,1299.55 1602.84,1324.69 1623.12,1347.67 1643.41,1368.41 1663.69,1386.81 1683.98,1402.82 
  1704.26,1416.37 1724.54,1427.41 1744.83,1435.89 1765.11,1441.78 1785.4,1445.06 1805.68,1445.72 1825.97,1443.75 1846.25,1439.16 1866.54,1431.97 1886.82,1422.21 
  1907.1,1409.91 1927.39,1395.12 1947.67,1377.9 1967.96,1358.32 1988.24,1336.45 2008.53,1312.38 2028.81,1286.2 2049.1,1258.01 2069.38,1227.91 2089.67,1196.04 
  2109.95,1162.5 2130.23,1127.43 2150.52,1090.97 2170.8,1053.25 2191.09,1014.43 2211.37,974.644 2231.66,934.057 2251.94,892.824 2272.23,851.103 2292.51,809.056 
  
  "/>
<polyline clip-path="url(#clip742)" style="stroke:#3da44d; stroke-linecap:butt; stroke-linejoin:round; stroke-width:12; stroke-opacity:1; fill:none" points="
  284.343,703.582 304.627,640.868 324.912,579.25 345.196,519.265 365.481,461.434 385.766,406.261 406.05,354.225 426.335,305.779 446.619,261.345 466.904,221.31 
  487.188,186.022 507.473,155.788 527.757,130.87 548.042,111.487 568.326,97.8055 588.611,89.9459 608.895,87.9763 629.18,91.9137 649.464,101.724 669.749,117.321 
  690.033,138.571 710.318,165.287 730.602,197.237 750.887,234.144 771.172,275.686 791.456,321.502 811.741,371.193 832.025,424.326 852.31,480.44 872.594,539.046 
  892.879,599.634 913.163,661.678 933.448,724.636 953.732,787.961 974.017,851.103 994.301,913.512 1014.59,974.644 1034.87,1033.97 1055.15,1090.97 1075.44,1145.15 
  1095.72,1196.04 1116.01,1243.19 1136.29,1286.2 1156.58,1324.69 1176.86,1358.32 1197.15,1386.81 1217.43,1409.91 1237.72,1427.41 1258,1439.16 1278.28,1445.06 
  1298.57,1445.06 1318.85,1439.16 1339.14,1427.41 1359.42,1409.91 1379.71,1386.81 1399.99,1358.32 1420.28,1324.69 1440.56,1286.2 1460.85,1243.19 1481.13,1196.04 
  1501.41,1145.15 1521.7,1090.97 1541.98,1033.97 1562.27,974.644 1582.55,913.512 1602.84,851.103 1623.12,787.961 1643.41,724.636 1663.69,661.678 1683.98,599.634 
  1704.26,539.046 1724.54,480.44 1744.83,424.326 1765.11,371.193 1785.4,321.502 1805.68,275.686 1825.97,234.144 1846.25,197.237 1866.54,165.287 1886.82,138.571 
  1907.1,117.321 1927.39,101.724 1947.67,91.9137 1967.96,87.9763 1988.24,89.9459 2008.53,97.8055 2028.81,111.487 2049.1,130.87 2069.38,155.788 2089.67,186.022 
  2109.95,221.31 2130.23,261.345 2150.52,305.779 2170.8,354.225 2191.09,406.261 2211.37,461.434 2231.66,519.265 2251.94,579.25 2272.23,640.868 2292.51,703.582 
  
  "/>
<path clip-path="url(#clip740)" d="
M295.053 1438.47 L1173.93 1438.47 L1173.93 1231.11 L295.053 1231.11  Z
  " fill="#ffffff" fill-rule="evenodd" fill-opacity="1"/>
<polyline clip-path="url(#clip740)" style="stroke:#000000; stroke-linecap:butt; stroke-linejoin:round; stroke-width:4; stroke-opacity:1; fill:none" points="
  295.053,1438.47 1173.93,1438.47 1173.93,1231.11 295.053,1231.11 295.053,1438.47 
  "/>
<polyline clip-path="url(#clip740)" style="stroke:#009af9; stroke-linecap:butt; stroke-linejoin:round; stroke-width:4; stroke-opacity:1; fill:none" points="
  318.705,1282.95 460.615,1282.95 
  "/>
<path clip-path="url(#clip740)" d="M496.212 1268.75 Q492.6 1268.75 490.772 1272.32 Q488.966 1275.86 488.966 1282.99 Q488.966 1290.1 490.772 1293.66 Q492.6 1297.2 496.212 1297.2 Q499.846 1297.2 501.651 1293.66 Q503.48 1290.1 503.48 1282.99 Q503.48 1275.86 501.651 1272.32 Q499.846 1268.75 496.212 1268.75 M496.212 1265.05 Q502.022 1265.05 505.077 1269.66 Q508.156 1274.24 508.156 1282.99 Q508.156 1291.72 505.077 1296.32 Q502.022 1300.91 496.212 1300.91 Q490.401 1300.91 487.323 1296.32 Q484.267 1291.72 484.267 1282.99 Q484.267 1274.24 487.323 1269.66 Q490.401 1265.05 496.212 1265.05 Z" fill="#000000" fill-rule="evenodd" fill-opacity="1" /><path clip-path="url(#clip740)" d="M516.373 1294.35 L521.258 1294.35 L521.258 1300.23 L516.373 1300.23 L516.373 1294.35 Z" fill="#000000" fill-rule="evenodd" fill-opacity="1" /><path clip-path="url(#clip740)" d="M541.443 1268.75 Q537.832 1268.75 536.003 1272.32 Q534.197 1275.86 534.197 1282.99 Q534.197 1290.1 536.003 1293.66 Q537.832 1297.2 541.443 1297.2 Q545.077 1297.2 546.883 1293.66 Q548.711 1290.1 548.711 1282.99 Q548.711 1275.86 546.883 1272.32 Q545.077 1268.75 541.443 1268.75 M541.443 1265.05 Q547.253 1265.05 550.309 1269.66 Q553.387 1274.24 553.387 1282.99 Q553.387 1291.72 550.309 1296.32 Q547.253 1300.91 541.443 1300.91 Q535.633 1300.91 532.554 1296.32 Q529.498 1291.72 529.498 1282.99 Q529.498 1274.24 532.554 1269.66 Q535.633 1265.05 541.443 1265.05 Z" fill="#000000" fill-rule="evenodd" fill-opacity="1" /><path clip-path="url(#clip740)" d="M571.605 1268.75 Q567.994 1268.75 566.165 1272.32 Q564.359 1275.86 564.359 1282.99 Q564.359 1290.1 566.165 1293.66 Q567.994 1297.2 571.605 1297.2 Q575.239 1297.2 577.044 1293.66 Q578.873 1290.1 578.873 1282.99 Q578.873 1275.86 577.044 1272.32 Q575.239 1268.75 571.605 1268.75 M571.605 1265.05 Q577.415 1265.05 580.47 1269.66 Q583.549 1274.24 583.549 1282.99 Q583.549 1291.72 580.47 1296.32 Q577.415 1300.91 571.605 1300.91 Q565.795 1300.91 562.716 1296.32 Q559.66 1291.72 559.66 1282.99 Q559.66 1274.24 562.716 1269.66 Q565.795 1265.05 571.605 1265.05 Z" fill="#000000" fill-rule="evenodd" fill-opacity="1" /><path clip-path="url(#clip740)" d="M601.767 1268.75 Q598.155 1268.75 596.327 1272.32 Q594.521 1275.86 594.521 1282.99 Q594.521 1290.1 596.327 1293.66 Q598.155 1297.2 601.767 1297.2 Q605.401 1297.2 607.206 1293.66 Q609.035 1290.1 609.035 1282.99 Q609.035 1275.86 607.206 1272.32 Q605.401 1268.75 601.767 1268.75 M601.767 1265.05 Q607.577 1265.05 610.632 1269.66 Q613.711 1274.24 613.711 1282.99 Q613.711 1291.72 610.632 1296.32 Q607.577 1300.91 601.767 1300.91 Q595.956 1300.91 592.878 1296.32 Q589.822 1291.72 589.822 1282.99 Q589.822 1274.24 592.878 1269.66 Q595.956 1265.05 601.767 1265.05 Z" fill="#000000" fill-rule="evenodd" fill-opacity="1" /><path clip-path="url(#clip740)" d="M634.776 1269.75 L622.97 1288.2 L634.776 1288.2 L634.776 1269.75 M633.549 1265.67 L639.428 1265.67 L639.428 1288.2 L644.359 1288.2 L644.359 1292.09 L639.428 1292.09 L639.428 1300.23 L634.776 1300.23 L634.776 1292.09 L619.174 1292.09 L619.174 1287.57 L633.549 1265.67 Z" fill="#000000" fill-rule="evenodd" fill-opacity="1" /><path clip-path="url(#clip740)" d="M662.09 1283.82 Q658.757 1283.82 656.836 1285.6 Q654.938 1287.39 654.938 1290.51 Q654.938 1293.64 656.836 1295.42 Q658.757 1297.2 662.09 1297.2 Q665.424 1297.2 667.345 1295.42 Q669.266 1293.61 669.266 1290.51 Q669.266 1287.39 667.345 1285.6 Q665.447 1283.82 662.09 1283.82 M657.414 1281.83 Q654.405 1281.09 652.715 1279.03 Q651.049 1276.97 651.049 1274.01 Q651.049 1269.86 653.989 1267.46 Q656.951 1265.05 662.09 1265.05 Q667.252 1265.05 670.192 1267.46 Q673.132 1269.86 673.132 1274.01 Q673.132 1276.97 671.442 1279.03 Q669.775 1281.09 666.789 1281.83 Q670.169 1282.62 672.044 1284.91 Q673.942 1287.2 673.942 1290.51 Q673.942 1295.54 670.863 1298.22 Q667.808 1300.91 662.09 1300.91 Q656.373 1300.91 653.294 1298.22 Q650.239 1295.54 650.239 1290.51 Q650.239 1287.2 652.137 1284.91 Q654.035 1282.62 657.414 1281.83 M655.701 1274.45 Q655.701 1277.13 657.368 1278.64 Q659.058 1280.14 662.09 1280.14 Q665.1 1280.14 666.789 1278.64 Q668.502 1277.13 668.502 1274.45 Q668.502 1271.76 666.789 1270.26 Q665.1 1268.75 662.09 1268.75 Q659.058 1268.75 657.368 1270.26 Q655.701 1271.76 655.701 1274.45 Z" fill="#000000" fill-rule="evenodd" fill-opacity="1" /><path clip-path="url(#clip740)" d="M696.419 1281.6 Q699.775 1282.32 701.65 1284.59 Q703.548 1286.85 703.548 1290.19 Q703.548 1295.3 700.03 1298.1 Q696.511 1300.91 690.03 1300.91 Q687.854 1300.91 685.539 1300.47 Q683.248 1300.05 680.794 1299.19 L680.794 1294.68 Q682.738 1295.81 685.053 1296.39 Q687.368 1296.97 689.891 1296.97 Q694.289 1296.97 696.581 1295.23 Q698.896 1293.5 698.896 1290.19 Q698.896 1287.13 696.743 1285.42 Q694.613 1283.68 690.794 1283.68 L686.766 1283.68 L686.766 1279.84 L690.979 1279.84 Q694.428 1279.84 696.257 1278.48 Q698.085 1277.09 698.085 1274.49 Q698.085 1271.83 696.187 1270.42 Q694.312 1268.98 690.794 1268.98 Q688.873 1268.98 686.674 1269.4 Q684.474 1269.82 681.836 1270.7 L681.836 1266.53 Q684.498 1265.79 686.812 1265.42 Q689.15 1265.05 691.211 1265.05 Q696.535 1265.05 699.636 1267.48 Q702.738 1269.89 702.738 1274.01 Q702.738 1276.88 701.095 1278.87 Q699.451 1280.84 696.419 1281.6 Z" fill="#000000" fill-rule="evenodd" fill-opacity="1" /><path clip-path="url(#clip740)" d="M711.234 1265.67 L733.456 1265.67 L733.456 1267.67 L720.909 1300.23 L716.025 1300.23 L727.831 1269.61 L711.234 1269.61 L711.234 1265.67 Z" fill="#000000" fill-rule="evenodd" fill-opacity="1" /><path clip-path="url(#clip740)" d="M743.386 1296.3 L751.025 1296.3 L751.025 1269.93 L742.715 1271.6 L742.715 1267.34 L750.979 1265.67 L755.655 1265.67 L755.655 1296.3 L763.293 1296.3 L763.293 1300.23 L743.386 1300.23 L743.386 1296.3 Z" fill="#000000" fill-rule="evenodd" fill-opacity="1" /><path clip-path="url(#clip740)" d="M771.557 1265.67 L793.779 1265.67 L793.779 1267.67 L781.233 1300.23 L776.349 1300.23 L788.154 1269.61 L771.557 1269.61 L771.557 1265.67 Z" fill="#000000" fill-rule="evenodd" fill-opacity="1" /><path clip-path="url(#clip740)" d="M801.719 1265.67 L823.941 1265.67 L823.941 1267.67 L811.395 1300.23 L806.511 1300.23 L818.316 1269.61 L801.719 1269.61 L801.719 1265.67 Z" fill="#000000" fill-rule="evenodd" fill-opacity="1" /><path clip-path="url(#clip740)" d="M843.062 1268.75 Q839.45 1268.75 837.622 1272.32 Q835.816 1275.86 835.816 1282.99 Q835.816 1290.1 837.622 1293.66 Q839.45 1297.2 843.062 1297.2 Q846.696 1297.2 848.501 1293.66 Q850.33 1290.1 850.33 1282.99 Q850.33 1275.86 848.501 1272.32 Q846.696 1268.75 843.062 1268.75 M843.062 1265.05 Q848.872 1265.05 851.927 1269.66 Q855.006 1274.24 855.006 1282.99 Q855.006 1291.72 851.927 1296.32 Q848.872 1300.91 843.062 1300.91 Q837.251 1300.91 834.173 1296.32 Q831.117 1291.72 831.117 1282.99 Q831.117 1274.24 834.173 1269.66 Q837.251 1265.05 843.062 1265.05 Z" fill="#000000" fill-rule="evenodd" fill-opacity="1" /><path clip-path="url(#clip740)" d="M873.223 1283.82 Q869.89 1283.82 867.969 1285.6 Q866.071 1287.39 866.071 1290.51 Q866.071 1293.64 867.969 1295.42 Q869.89 1297.2 873.223 1297.2 Q876.557 1297.2 878.478 1295.42 Q880.399 1293.61 880.399 1290.51 Q880.399 1287.39 878.478 1285.6 Q876.58 1283.82 873.223 1283.82 M868.548 1281.83 Q865.538 1281.09 863.848 1279.03 Q862.182 1276.97 862.182 1274.01 Q862.182 1269.86 865.122 1267.46 Q868.085 1265.05 873.223 1265.05 Q878.385 1265.05 881.325 1267.46 Q884.265 1269.86 884.265 1274.01 Q884.265 1276.97 882.575 1279.03 Q880.909 1281.09 877.922 1281.83 Q881.302 1282.62 883.177 1284.91 Q885.075 1287.2 885.075 1290.51 Q885.075 1295.54 881.997 1298.22 Q878.941 1300.91 873.223 1300.91 Q867.506 1300.91 864.427 1298.22 Q861.372 1295.54 861.372 1290.51 Q861.372 1287.2 863.27 1284.91 Q865.168 1282.62 868.548 1281.83 M866.835 1274.45 Q866.835 1277.13 868.501 1278.64 Q870.191 1280.14 873.223 1280.14 Q876.233 1280.14 877.922 1278.64 Q879.635 1277.13 879.635 1274.45 Q879.635 1271.76 877.922 1270.26 Q876.233 1268.75 873.223 1268.75 Q870.191 1268.75 868.501 1270.26 Q866.835 1271.76 866.835 1274.45 Z" fill="#000000" fill-rule="evenodd" fill-opacity="1" /><path clip-path="url(#clip740)" d="M903.385 1268.75 Q899.774 1268.75 897.946 1272.32 Q896.14 1275.86 896.14 1282.99 Q896.14 1290.1 897.946 1293.66 Q899.774 1297.2 903.385 1297.2 Q907.02 1297.2 908.825 1293.66 Q910.654 1290.1 910.654 1282.99 Q910.654 1275.86 908.825 1272.32 Q907.02 1268.75 903.385 1268.75 M903.385 1265.05 Q909.195 1265.05 912.251 1269.66 Q915.33 1274.24 915.33 1282.99 Q915.33 1291.72 912.251 1296.32 Q909.195 1300.91 903.385 1300.91 Q897.575 1300.91 894.496 1296.32 Q891.441 1291.72 891.441 1282.99 Q891.441 1274.24 894.496 1269.66 Q897.575 1265.05 903.385 1265.05 Z" fill="#000000" fill-rule="evenodd" fill-opacity="1" /><path clip-path="url(#clip740)" d="M924.357 1296.3 L931.996 1296.3 L931.996 1269.93 L923.686 1271.6 L923.686 1267.34 L931.95 1265.67 L936.626 1265.67 L936.626 1296.3 L944.265 1296.3 L944.265 1300.23 L924.357 1300.23 L924.357 1296.3 Z" fill="#000000" fill-rule="evenodd" fill-opacity="1" /><path clip-path="url(#clip740)" d="M957.737 1296.3 L974.056 1296.3 L974.056 1300.23 L952.112 1300.23 L952.112 1296.3 Q954.774 1293.54 959.357 1288.92 Q963.964 1284.26 965.144 1282.92 Q967.39 1280.4 968.269 1278.66 Q969.172 1276.9 969.172 1275.21 Q969.172 1272.46 967.228 1270.72 Q965.306 1268.98 962.204 1268.98 Q960.005 1268.98 957.552 1269.75 Q955.121 1270.51 952.343 1272.06 L952.343 1267.34 Q955.167 1266.21 957.621 1265.63 Q960.075 1265.05 962.112 1265.05 Q967.482 1265.05 970.677 1267.73 Q973.871 1270.42 973.871 1274.91 Q973.871 1277.04 973.061 1278.96 Q972.274 1280.86 970.167 1283.45 Q969.589 1284.12 966.487 1287.34 Q963.385 1290.54 957.737 1296.3 Z" fill="#000000" fill-rule="evenodd" fill-opacity="1" /><path clip-path="url(#clip740)" d="M998.038 1281.6 Q1001.39 1282.32 1003.27 1284.59 Q1005.17 1286.85 1005.17 1290.19 Q1005.17 1295.3 1001.65 1298.1 Q998.13 1300.91 991.649 1300.91 Q989.473 1300.91 987.158 1300.47 Q984.866 1300.05 982.413 1299.19 L982.413 1294.68 Q984.357 1295.81 986.672 1296.39 Q988.987 1296.97 991.51 1296.97 Q995.908 1296.97 998.2 1295.23 Q1000.51 1293.5 1000.51 1290.19 Q1000.51 1287.13 998.362 1285.42 Q996.232 1283.68 992.413 1283.68 L988.385 1283.68 L988.385 1279.84 L992.598 1279.84 Q996.047 1279.84 997.876 1278.48 Q999.704 1277.09 999.704 1274.49 Q999.704 1271.83 997.806 1270.42 Q995.931 1268.98 992.413 1268.98 Q990.491 1268.98 988.292 1269.4 Q986.093 1269.82 983.454 1270.7 L983.454 1266.53 Q986.116 1265.79 988.431 1265.42 Q990.769 1265.05 992.829 1265.05 Q998.153 1265.05 1001.26 1267.48 Q1004.36 1269.89 1004.36 1274.01 Q1004.36 1276.88 1002.71 1278.87 Q1001.07 1280.84 998.038 1281.6 Z" fill="#000000" fill-rule="evenodd" fill-opacity="1" /><path clip-path="url(#clip740)" d="M1014.08 1265.67 L1032.44 1265.67 L1032.44 1269.61 L1018.36 1269.61 L1018.36 1278.08 Q1019.38 1277.73 1020.4 1277.57 Q1021.42 1277.39 1022.44 1277.39 Q1028.22 1277.39 1031.6 1280.56 Q1034.98 1283.73 1034.98 1289.15 Q1034.98 1294.73 1031.51 1297.83 Q1028.04 1300.91 1021.72 1300.91 Q1019.54 1300.91 1017.27 1300.54 Q1015.03 1300.16 1012.62 1299.42 L1012.62 1294.73 Q1014.7 1295.86 1016.93 1296.41 Q1019.15 1296.97 1021.63 1296.97 Q1025.63 1296.97 1027.97 1294.86 Q1030.31 1292.76 1030.31 1289.15 Q1030.31 1285.54 1027.97 1283.43 Q1025.63 1281.32 1021.63 1281.32 Q1019.75 1281.32 1017.88 1281.74 Q1016.02 1282.16 1014.08 1283.04 L1014.08 1265.67 Z" fill="#000000" fill-rule="evenodd" fill-opacity="1" /><path clip-path="url(#clip740)" d="M1044.24 1265.67 L1062.6 1265.67 L1062.6 1269.61 L1048.52 1269.61 L1048.52 1278.08 Q1049.54 1277.73 1050.56 1277.57 Q1051.58 1277.39 1052.6 1277.39 Q1058.38 1277.39 1061.76 1280.56 Q1065.14 1283.73 1065.14 1289.15 Q1065.14 1294.73 1061.67 1297.83 Q1058.2 1300.91 1051.88 1300.91 Q1049.7 1300.91 1047.44 1300.54 Q1045.19 1300.16 1042.78 1299.42 L1042.78 1294.73 Q1044.87 1295.86 1047.09 1296.41 Q1049.31 1296.97 1051.79 1296.97 Q1055.79 1296.97 1058.13 1294.86 Q1060.47 1292.76 1060.47 1289.15 Q1060.47 1285.54 1058.13 1283.43 Q1055.79 1281.32 1051.79 1281.32 Q1049.91 1281.32 1048.04 1281.74 Q1046.19 1282.16 1044.24 1283.04 L1044.24 1265.67 Z" fill="#000000" fill-rule="evenodd" fill-opacity="1" /><path clip-path="url(#clip740)" d="M1073.18 1265.67 L1095.4 1265.67 L1095.4 1267.67 L1082.85 1300.23 L1077.97 1300.23 L1089.77 1269.61 L1073.18 1269.61 L1073.18 1265.67 Z" fill="#000000" fill-rule="evenodd" fill-opacity="1" /><path clip-path="url(#clip740)" d="M1115.1 1281.09 Q1111.95 1281.09 1110.1 1283.24 Q1108.27 1285.4 1108.27 1289.15 Q1108.27 1292.87 1110.1 1295.05 Q1111.95 1297.2 1115.1 1297.2 Q1118.25 1297.2 1120.07 1295.05 Q1121.93 1292.87 1121.93 1289.15 Q1121.93 1285.4 1120.07 1283.24 Q1118.25 1281.09 1115.1 1281.09 M1124.38 1266.44 L1124.38 1270.7 Q1122.62 1269.86 1120.81 1269.42 Q1119.03 1268.98 1117.27 1268.98 Q1112.64 1268.98 1110.19 1272.11 Q1107.76 1275.23 1107.41 1281.55 Q1108.78 1279.54 1110.84 1278.48 Q1112.9 1277.39 1115.37 1277.39 Q1120.58 1277.39 1123.59 1280.56 Q1126.62 1283.71 1126.62 1289.15 Q1126.62 1294.47 1123.48 1297.69 Q1120.33 1300.91 1115.1 1300.91 Q1109.1 1300.91 1105.93 1296.32 Q1102.76 1291.72 1102.76 1282.99 Q1102.76 1274.79 1106.65 1269.93 Q1110.54 1265.05 1117.09 1265.05 Q1118.85 1265.05 1120.63 1265.4 Q1122.44 1265.74 1124.38 1266.44 Z" fill="#000000" fill-rule="evenodd" fill-opacity="1" /><polyline clip-path="url(#clip740)" style="stroke:#e26f46; stroke-linecap:butt; stroke-linejoin:round; stroke-width:4; stroke-opacity:1; fill:none" points="
  318.705,1334.79 460.615,1334.79 
  "/>
<path clip-path="url(#clip740)" d="M496.212 1320.59 Q492.6 1320.59 490.772 1324.16 Q488.966 1327.7 488.966 1334.83 Q488.966 1341.94 490.772 1345.5 Q492.6 1349.04 496.212 1349.04 Q499.846 1349.04 501.651 1345.5 Q503.48 1341.94 503.48 1334.83 Q503.48 1327.7 501.651 1324.16 Q499.846 1320.59 496.212 1320.59 M496.212 1316.89 Q502.022 1316.89 505.077 1321.5 Q508.156 1326.08 508.156 1334.83 Q508.156 1343.56 505.077 1348.16 Q502.022 1352.75 496.212 1352.75 Q490.401 1352.75 487.323 1348.16 Q484.267 1343.56 484.267 1334.83 Q484.267 1326.08 487.323 1321.5 Q490.401 1316.89 496.212 1316.89 Z" fill="#000000" fill-rule="evenodd" fill-opacity="1" /><path clip-path="url(#clip740)" d="M516.373 1346.19 L521.258 1346.19 L521.258 1352.07 L516.373 1352.07 L516.373 1346.19 Z" fill="#000000" fill-rule="evenodd" fill-opacity="1" /><path clip-path="url(#clip740)" d="M541.443 1320.59 Q537.832 1320.59 536.003 1324.16 Q534.197 1327.7 534.197 1334.83 Q534.197 1341.94 536.003 1345.5 Q537.832 1349.04 541.443 1349.04 Q545.077 1349.04 546.883 1345.5 Q548.711 1341.94 548.711 1334.83 Q548.711 1327.7 546.883 1324.16 Q545.077 1320.59 541.443 1320.59 M541.443 1316.89 Q547.253 1316.89 550.309 1321.5 Q553.387 1326.08 553.387 1334.83 Q553.387 1343.56 550.309 1348.16 Q547.253 1352.75 541.443 1352.75 Q535.633 1352.75 532.554 1348.16 Q529.498 1343.56 529.498 1334.83 Q529.498 1326.08 532.554 1321.5 Q535.633 1316.89 541.443 1316.89 Z" fill="#000000" fill-rule="evenodd" fill-opacity="1" /><path clip-path="url(#clip740)" d="M571.605 1320.59 Q567.994 1320.59 566.165 1324.16 Q564.359 1327.7 564.359 1334.83 Q564.359 1341.94 566.165 1345.5 Q567.994 1349.04 571.605 1349.04 Q575.239 1349.04 577.044 1345.5 Q578.873 1341.94 578.873 1334.83 Q578.873 1327.7 577.044 1324.16 Q575.239 1320.59 571.605 1320.59 M571.605 1316.89 Q577.415 1316.89 580.47 1321.5 Q583.549 1326.08 583.549 1334.83 Q583.549 1343.56 580.47 1348.16 Q577.415 1352.75 571.605 1352.75 Q565.795 1352.75 562.716 1348.16 Q559.66 1343.56 559.66 1334.83 Q559.66 1326.08 562.716 1321.5 Q565.795 1316.89 571.605 1316.89 Z" fill="#000000" fill-rule="evenodd" fill-opacity="1" /><path clip-path="url(#clip740)" d="M592.577 1348.14 L600.216 1348.14 L600.216 1321.77 L591.906 1323.44 L591.906 1319.18 L600.169 1317.51 L604.845 1317.51 L604.845 1348.14 L612.484 1348.14 L612.484 1352.07 L592.577 1352.07 L592.577 1348.14 Z" fill="#000000" fill-rule="evenodd" fill-opacity="1" /><path clip-path="url(#clip740)" d="M622.067 1351.36 L622.067 1347.1 Q623.827 1347.93 625.632 1348.37 Q627.438 1348.81 629.174 1348.81 Q633.803 1348.81 636.234 1345.71 Q638.688 1342.58 639.035 1336.24 Q637.692 1338.23 635.632 1339.3 Q633.572 1340.36 631.072 1340.36 Q625.887 1340.36 622.854 1337.24 Q619.845 1334.09 619.845 1328.65 Q619.845 1323.32 622.993 1320.11 Q626.141 1316.89 631.373 1316.89 Q637.368 1316.89 640.516 1321.5 Q643.688 1326.08 643.688 1334.83 Q643.688 1343 639.799 1347.88 Q635.933 1352.75 629.382 1352.75 Q627.623 1352.75 625.817 1352.4 Q624.012 1352.05 622.067 1351.36 M631.373 1336.7 Q634.521 1336.7 636.35 1334.55 Q638.202 1332.4 638.202 1328.65 Q638.202 1324.92 636.35 1322.77 Q634.521 1320.59 631.373 1320.59 Q628.225 1320.59 626.373 1322.77 Q624.544 1324.92 624.544 1328.65 Q624.544 1332.4 626.373 1334.55 Q628.225 1336.7 631.373 1336.7 Z" fill="#000000" fill-rule="evenodd" fill-opacity="1" /><path clip-path="url(#clip740)" d="M666.257 1333.44 Q669.613 1334.16 671.488 1336.43 Q673.387 1338.69 673.387 1342.03 Q673.387 1347.14 669.868 1349.94 Q666.35 1352.75 659.868 1352.75 Q657.692 1352.75 655.377 1352.31 Q653.086 1351.89 650.632 1351.03 L650.632 1346.52 Q652.576 1347.65 654.891 1348.23 Q657.206 1348.81 659.729 1348.81 Q664.127 1348.81 666.419 1347.07 Q668.734 1345.34 668.734 1342.03 Q668.734 1338.97 666.581 1337.26 Q664.451 1335.52 660.632 1335.52 L656.604 1335.52 L656.604 1331.68 L660.817 1331.68 Q664.266 1331.68 666.095 1330.32 Q667.924 1328.93 667.924 1326.33 Q667.924 1323.67 666.025 1322.26 Q664.15 1320.82 660.632 1320.82 Q658.711 1320.82 656.512 1321.24 Q654.313 1321.66 651.674 1322.54 L651.674 1318.37 Q654.336 1317.63 656.651 1317.26 Q658.988 1316.89 661.049 1316.89 Q666.373 1316.89 669.475 1319.32 Q672.576 1321.73 672.576 1325.85 Q672.576 1328.72 670.933 1330.71 Q669.289 1332.68 666.257 1333.44 Z" fill="#000000" fill-rule="evenodd" fill-opacity="1" /><path clip-path="url(#clip740)" d="M695.099 1321.59 L683.294 1340.04 L695.099 1340.04 L695.099 1321.59 M693.873 1317.51 L699.752 1317.51 L699.752 1340.04 L704.683 1340.04 L704.683 1343.93 L699.752 1343.93 L699.752 1352.07 L695.099 1352.07 L695.099 1343.93 L679.498 1343.93 L679.498 1339.41 L693.873 1317.51 Z" fill="#000000" fill-rule="evenodd" fill-opacity="1" /><path clip-path="url(#clip740)" d="M725.261 1321.59 L713.456 1340.04 L725.261 1340.04 L725.261 1321.59 M724.034 1317.51 L729.914 1317.51 L729.914 1340.04 L734.845 1340.04 L734.845 1343.93 L729.914 1343.93 L729.914 1352.07 L725.261 1352.07 L725.261 1343.93 L709.659 1343.93 L709.659 1339.41 L724.034 1317.51 Z" fill="#000000" fill-rule="evenodd" fill-opacity="1" /><path clip-path="url(#clip740)" d="M752.576 1320.59 Q748.965 1320.59 747.136 1324.16 Q745.331 1327.7 745.331 1334.83 Q745.331 1341.94 747.136 1345.5 Q748.965 1349.04 752.576 1349.04 Q756.21 1349.04 758.016 1345.5 Q759.844 1341.94 759.844 1334.83 Q759.844 1327.7 758.016 1324.16 Q756.21 1320.59 752.576 1320.59 M752.576 1316.89 Q758.386 1316.89 761.442 1321.5 Q764.52 1326.08 764.52 1334.83 Q764.52 1343.56 761.442 1348.16 Q758.386 1352.75 752.576 1352.75 Q746.766 1352.75 743.687 1348.16 Q740.632 1343.56 740.632 1334.83 Q740.632 1326.08 743.687 1321.5 Q746.766 1316.89 752.576 1316.89 Z" fill="#000000" fill-rule="evenodd" fill-opacity="1" /><path clip-path="url(#clip740)" d="M776.766 1348.14 L793.085 1348.14 L793.085 1352.07 L771.141 1352.07 L771.141 1348.14 Q773.803 1345.38 778.386 1340.76 Q782.992 1336.1 784.173 1334.76 Q786.418 1332.24 787.298 1330.5 Q788.201 1328.74 788.201 1327.05 Q788.201 1324.3 786.256 1322.56 Q784.335 1320.82 781.233 1320.82 Q779.034 1320.82 776.58 1321.59 Q774.15 1322.35 771.372 1323.9 L771.372 1319.18 Q774.196 1318.05 776.65 1317.47 Q779.104 1316.89 781.141 1316.89 Q786.511 1316.89 789.705 1319.57 Q792.9 1322.26 792.9 1326.75 Q792.9 1328.88 792.09 1330.8 Q791.303 1332.7 789.196 1335.29 Q788.617 1335.96 785.516 1339.18 Q782.414 1342.38 776.766 1348.14 Z" fill="#000000" fill-rule="evenodd" fill-opacity="1" /><path clip-path="url(#clip740)" d="M812.9 1335.66 Q809.566 1335.66 807.645 1337.44 Q805.747 1339.23 805.747 1342.35 Q805.747 1345.48 807.645 1347.26 Q809.566 1349.04 812.9 1349.04 Q816.233 1349.04 818.154 1347.26 Q820.076 1345.45 820.076 1342.35 Q820.076 1339.23 818.154 1337.44 Q816.256 1335.66 812.9 1335.66 M808.224 1333.67 Q805.215 1332.93 803.525 1330.87 Q801.858 1328.81 801.858 1325.85 Q801.858 1321.7 804.798 1319.3 Q807.761 1316.89 812.9 1316.89 Q818.062 1316.89 821.001 1319.3 Q823.941 1321.7 823.941 1325.85 Q823.941 1328.81 822.251 1330.87 Q820.585 1332.93 817.599 1333.67 Q820.978 1334.46 822.853 1336.75 Q824.751 1339.04 824.751 1342.35 Q824.751 1347.38 821.673 1350.06 Q818.617 1352.75 812.9 1352.75 Q807.182 1352.75 804.103 1350.06 Q801.048 1347.38 801.048 1342.35 Q801.048 1339.04 802.946 1336.75 Q804.844 1334.46 808.224 1333.67 M806.511 1326.29 Q806.511 1328.97 808.177 1330.48 Q809.867 1331.98 812.9 1331.98 Q815.909 1331.98 817.599 1330.48 Q819.312 1328.97 819.312 1326.29 Q819.312 1323.6 817.599 1322.1 Q815.909 1320.59 812.9 1320.59 Q809.867 1320.59 808.177 1322.1 Q806.511 1323.6 806.511 1326.29 Z" fill="#000000" fill-rule="evenodd" fill-opacity="1" /><path clip-path="url(#clip740)" d="M843.64 1332.93 Q840.492 1332.93 838.64 1335.08 Q836.812 1337.24 836.812 1340.99 Q836.812 1344.71 838.64 1346.89 Q840.492 1349.04 843.64 1349.04 Q846.788 1349.04 848.617 1346.89 Q850.469 1344.71 850.469 1340.99 Q850.469 1337.24 848.617 1335.08 Q846.788 1332.93 843.64 1332.93 M852.923 1318.28 L852.923 1322.54 Q851.163 1321.7 849.358 1321.26 Q847.575 1320.82 845.816 1320.82 Q841.187 1320.82 838.733 1323.95 Q836.302 1327.07 835.955 1333.39 Q837.321 1331.38 839.381 1330.32 Q841.441 1329.23 843.918 1329.23 Q849.126 1329.23 852.136 1332.4 Q855.168 1335.55 855.168 1340.99 Q855.168 1346.31 852.02 1349.53 Q848.872 1352.75 843.64 1352.75 Q837.645 1352.75 834.474 1348.16 Q831.302 1343.56 831.302 1334.83 Q831.302 1326.63 835.191 1321.77 Q839.08 1316.89 845.631 1316.89 Q847.39 1316.89 849.173 1317.24 Q850.978 1317.58 852.923 1318.28 Z" fill="#000000" fill-rule="evenodd" fill-opacity="1" /><path clip-path="url(#clip740)" d="M873.802 1332.93 Q870.654 1332.93 868.802 1335.08 Q866.973 1337.24 866.973 1340.99 Q866.973 1344.71 868.802 1346.89 Q870.654 1349.04 873.802 1349.04 Q876.95 1349.04 878.779 1346.89 Q880.631 1344.71 880.631 1340.99 Q880.631 1337.24 878.779 1335.08 Q876.95 1332.93 873.802 1332.93 M883.084 1318.28 L883.084 1322.54 Q881.325 1321.7 879.52 1321.26 Q877.737 1320.82 875.978 1320.82 Q871.348 1320.82 868.895 1323.95 Q866.464 1327.07 866.117 1333.39 Q867.483 1331.38 869.543 1330.32 Q871.603 1329.23 874.08 1329.23 Q879.288 1329.23 882.297 1332.4 Q885.33 1335.55 885.33 1340.99 Q885.33 1346.31 882.182 1349.53 Q879.034 1352.75 873.802 1352.75 Q867.807 1352.75 864.636 1348.16 Q861.464 1343.56 861.464 1334.83 Q861.464 1326.63 865.353 1321.77 Q869.242 1316.89 875.793 1316.89 Q877.552 1316.89 879.335 1317.24 Q881.14 1317.58 883.084 1318.28 Z" fill="#000000" fill-rule="evenodd" fill-opacity="1" /><path clip-path="url(#clip740)" d="M906.233 1321.59 L894.427 1340.04 L906.233 1340.04 L906.233 1321.59 M905.006 1317.51 L910.885 1317.51 L910.885 1340.04 L915.816 1340.04 L915.816 1343.93 L910.885 1343.93 L910.885 1352.07 L906.233 1352.07 L906.233 1343.93 L890.631 1343.93 L890.631 1339.41 L905.006 1317.51 Z" fill="#000000" fill-rule="evenodd" fill-opacity="1" /><path clip-path="url(#clip740)" d="M933.547 1320.59 Q929.936 1320.59 928.107 1324.16 Q926.302 1327.7 926.302 1334.83 Q926.302 1341.94 928.107 1345.5 Q929.936 1349.04 933.547 1349.04 Q937.181 1349.04 938.987 1345.5 Q940.816 1341.94 940.816 1334.83 Q940.816 1327.7 938.987 1324.16 Q937.181 1320.59 933.547 1320.59 M933.547 1316.89 Q939.357 1316.89 942.413 1321.5 Q945.492 1326.08 945.492 1334.83 Q945.492 1343.56 942.413 1348.16 Q939.357 1352.75 933.547 1352.75 Q927.737 1352.75 924.658 1348.16 Q921.603 1343.56 921.603 1334.83 Q921.603 1326.08 924.658 1321.5 Q927.737 1316.89 933.547 1316.89 Z" fill="#000000" fill-rule="evenodd" fill-opacity="1" /><path clip-path="url(#clip740)" d="M953.755 1317.51 L972.112 1317.51 L972.112 1321.45 L958.038 1321.45 L958.038 1329.92 Q959.056 1329.57 960.075 1329.41 Q961.093 1329.23 962.112 1329.23 Q967.899 1329.23 971.278 1332.4 Q974.658 1335.57 974.658 1340.99 Q974.658 1346.57 971.186 1349.67 Q967.714 1352.75 961.394 1352.75 Q959.218 1352.75 956.95 1352.38 Q954.704 1352 952.297 1351.26 L952.297 1346.57 Q954.38 1347.7 956.603 1348.25 Q958.825 1348.81 961.302 1348.81 Q965.306 1348.81 967.644 1346.7 Q969.982 1344.6 969.982 1340.99 Q969.982 1337.38 967.644 1335.27 Q965.306 1333.16 961.302 1333.16 Q959.427 1333.16 957.552 1333.58 Q955.7 1334 953.755 1334.88 L953.755 1317.51 Z" fill="#000000" fill-rule="evenodd" fill-opacity="1" /><path clip-path="url(#clip740)" d="M994.45 1332.93 Q991.302 1332.93 989.45 1335.08 Q987.621 1337.24 987.621 1340.99 Q987.621 1344.71 989.45 1346.89 Q991.302 1349.04 994.45 1349.04 Q997.598 1349.04 999.426 1346.89 Q1001.28 1344.71 1001.28 1340.99 Q1001.28 1337.24 999.426 1335.08 Q997.598 1332.93 994.45 1332.93 M1003.73 1318.28 L1003.73 1322.54 Q1001.97 1321.7 1000.17 1321.26 Q998.385 1320.82 996.626 1320.82 Q991.996 1320.82 989.542 1323.95 Q987.112 1327.07 986.764 1333.39 Q988.13 1331.38 990.19 1330.32 Q992.251 1329.23 994.727 1329.23 Q999.936 1329.23 1002.94 1332.4 Q1005.98 1335.55 1005.98 1340.99 Q1005.98 1346.31 1002.83 1349.53 Q999.681 1352.75 994.45 1352.75 Q988.454 1352.75 985.283 1348.16 Q982.112 1343.56 982.112 1334.83 Q982.112 1326.63 986.001 1321.77 Q989.889 1316.89 996.44 1316.89 Q998.2 1316.89 999.982 1317.24 Q1001.79 1317.58 1003.73 1318.28 Z" fill="#000000" fill-rule="evenodd" fill-opacity="1" /><path clip-path="url(#clip740)" d="M1018.06 1348.14 L1034.38 1348.14 L1034.38 1352.07 L1012.44 1352.07 L1012.44 1348.14 Q1015.1 1345.38 1019.68 1340.76 Q1024.29 1336.1 1025.47 1334.76 Q1027.71 1332.24 1028.59 1330.5 Q1029.5 1328.74 1029.5 1327.05 Q1029.5 1324.3 1027.55 1322.56 Q1025.63 1320.82 1022.53 1320.82 Q1020.33 1320.82 1017.88 1321.59 Q1015.44 1322.35 1012.67 1323.9 L1012.67 1319.18 Q1015.49 1318.05 1017.94 1317.47 Q1020.4 1316.89 1022.44 1316.89 Q1027.81 1316.89 1031 1319.57 Q1034.19 1322.26 1034.19 1326.75 Q1034.19 1328.88 1033.38 1330.8 Q1032.6 1332.7 1030.49 1335.29 Q1029.91 1335.96 1026.81 1339.18 Q1023.71 1342.38 1018.06 1348.14 Z" fill="#000000" fill-rule="evenodd" fill-opacity="1" /><path clip-path="url(#clip740)" d="M1044.33 1351.36 L1044.33 1347.1 Q1046.09 1347.93 1047.9 1348.37 Q1049.7 1348.81 1051.44 1348.81 Q1056.07 1348.81 1058.5 1345.71 Q1060.95 1342.58 1061.3 1336.24 Q1059.96 1338.23 1057.9 1339.3 Q1055.84 1340.36 1053.34 1340.36 Q1048.15 1340.36 1045.12 1337.24 Q1042.11 1334.09 1042.11 1328.65 Q1042.11 1323.32 1045.26 1320.11 Q1048.41 1316.89 1053.64 1316.89 Q1059.63 1316.89 1062.78 1321.5 Q1065.95 1326.08 1065.95 1334.83 Q1065.95 1343 1062.07 1347.88 Q1058.2 1352.75 1051.65 1352.75 Q1049.89 1352.75 1048.08 1352.4 Q1046.28 1352.05 1044.33 1351.36 M1053.64 1336.7 Q1056.79 1336.7 1058.62 1334.55 Q1060.47 1332.4 1060.47 1328.65 Q1060.47 1324.92 1058.62 1322.77 Q1056.79 1320.59 1053.64 1320.59 Q1050.49 1320.59 1048.64 1322.77 Q1046.81 1324.92 1046.81 1328.65 Q1046.81 1332.4 1048.64 1334.55 Q1050.49 1336.7 1053.64 1336.7 Z" fill="#000000" fill-rule="evenodd" fill-opacity="1" /><path clip-path="url(#clip740)" d="M1088.52 1333.44 Q1091.88 1334.16 1093.75 1336.43 Q1095.65 1338.69 1095.65 1342.03 Q1095.65 1347.14 1092.13 1349.94 Q1088.62 1352.75 1082.13 1352.75 Q1079.96 1352.75 1077.64 1352.31 Q1075.35 1351.89 1072.9 1351.03 L1072.9 1346.52 Q1074.84 1347.65 1077.16 1348.23 Q1079.47 1348.81 1082 1348.81 Q1086.39 1348.81 1088.69 1347.07 Q1091 1345.34 1091 1342.03 Q1091 1338.97 1088.85 1337.26 Q1086.72 1335.52 1082.9 1335.52 L1078.87 1335.52 L1078.87 1331.68 L1083.08 1331.68 Q1086.53 1331.68 1088.36 1330.32 Q1090.19 1328.93 1090.19 1326.33 Q1090.19 1323.67 1088.29 1322.26 Q1086.42 1320.82 1082.9 1320.82 Q1080.98 1320.82 1078.78 1321.24 Q1076.58 1321.66 1073.94 1322.54 L1073.94 1318.37 Q1076.6 1317.63 1078.92 1317.26 Q1081.25 1316.89 1083.31 1316.89 Q1088.64 1316.89 1091.74 1319.32 Q1094.84 1321.73 1094.84 1325.85 Q1094.84 1328.72 1093.2 1330.71 Q1091.56 1332.68 1088.52 1333.44 Z" fill="#000000" fill-rule="evenodd" fill-opacity="1" /><polyline clip-path="url(#clip740)" style="stroke:#3da44d; stroke-linecap:butt; stroke-linejoin:round; stroke-width:4; stroke-opacity:1; fill:none" points="
  318.705,1386.63 460.615,1386.63 
  "/>
<path clip-path="url(#clip740)" d="M496.212 1372.43 Q492.6 1372.43 490.772 1376 Q488.966 1379.54 488.966 1386.67 Q488.966 1393.78 490.772 1397.34 Q492.6 1400.88 496.212 1400.88 Q499.846 1400.88 501.651 1397.34 Q503.48 1393.78 503.48 1386.67 Q503.48 1379.54 501.651 1376 Q499.846 1372.43 496.212 1372.43 M496.212 1368.73 Q502.022 1368.73 505.077 1373.34 Q508.156 1377.92 508.156 1386.67 Q508.156 1395.4 505.077 1400 Q502.022 1404.59 496.212 1404.59 Q490.401 1404.59 487.323 1400 Q484.267 1395.4 484.267 1386.67 Q484.267 1377.92 487.323 1373.34 Q490.401 1368.73 496.212 1368.73 Z" fill="#000000" fill-rule="evenodd" fill-opacity="1" /><path clip-path="url(#clip740)" d="M516.373 1398.03 L521.258 1398.03 L521.258 1403.91 L516.373 1403.91 L516.373 1398.03 Z" fill="#000000" fill-rule="evenodd" fill-opacity="1" /><path clip-path="url(#clip740)" d="M541.443 1372.43 Q537.832 1372.43 536.003 1376 Q534.197 1379.54 534.197 1386.67 Q534.197 1393.78 536.003 1397.34 Q537.832 1400.88 541.443 1400.88 Q545.077 1400.88 546.883 1397.34 Q548.711 1393.78 548.711 1386.67 Q548.711 1379.54 546.883 1376 Q545.077 1372.43 541.443 1372.43 M541.443 1368.73 Q547.253 1368.73 550.309 1373.34 Q553.387 1377.92 553.387 1386.67 Q553.387 1395.4 550.309 1400 Q547.253 1404.59 541.443 1404.59 Q535.633 1404.59 532.554 1400 Q529.498 1395.4 529.498 1386.67 Q529.498 1377.92 532.554 1373.34 Q535.633 1368.73 541.443 1368.73 Z" fill="#000000" fill-rule="evenodd" fill-opacity="1" /><path clip-path="url(#clip740)" d="M571.605 1372.43 Q567.994 1372.43 566.165 1376 Q564.359 1379.54 564.359 1386.67 Q564.359 1393.78 566.165 1397.34 Q567.994 1400.88 571.605 1400.88 Q575.239 1400.88 577.044 1397.34 Q578.873 1393.78 578.873 1386.67 Q578.873 1379.54 577.044 1376 Q575.239 1372.43 571.605 1372.43 M571.605 1368.73 Q577.415 1368.73 580.47 1373.34 Q583.549 1377.92 583.549 1386.67 Q583.549 1395.4 580.47 1400 Q577.415 1404.59 571.605 1404.59 Q565.795 1404.59 562.716 1400 Q559.66 1395.4 559.66 1386.67 Q559.66 1377.92 562.716 1373.34 Q565.795 1368.73 571.605 1368.73 Z" fill="#000000" fill-rule="evenodd" fill-opacity="1" /><path clip-path="url(#clip740)" d="M604.614 1373.43 L592.808 1391.88 L604.614 1391.88 L604.614 1373.43 M603.387 1369.35 L609.267 1369.35 L609.267 1391.88 L614.197 1391.88 L614.197 1395.77 L609.267 1395.77 L609.267 1403.91 L604.614 1403.91 L604.614 1395.77 L589.012 1395.77 L589.012 1391.25 L603.387 1369.35 Z" fill="#000000" fill-rule="evenodd" fill-opacity="1" /><path clip-path="url(#clip740)" d="M636.095 1385.28 Q639.452 1386 641.327 1388.27 Q643.225 1390.53 643.225 1393.87 Q643.225 1398.98 639.706 1401.78 Q636.188 1404.59 629.706 1404.59 Q627.53 1404.59 625.216 1404.15 Q622.924 1403.73 620.47 1402.87 L620.47 1398.36 Q622.415 1399.49 624.729 1400.07 Q627.044 1400.65 629.567 1400.65 Q633.965 1400.65 636.257 1398.91 Q638.572 1397.18 638.572 1393.87 Q638.572 1390.81 636.419 1389.1 Q634.29 1387.36 630.47 1387.36 L626.442 1387.36 L626.442 1383.52 L630.655 1383.52 Q634.104 1383.52 635.933 1382.16 Q637.762 1380.77 637.762 1378.17 Q637.762 1375.51 635.864 1374.1 Q633.989 1372.66 630.47 1372.66 Q628.549 1372.66 626.35 1373.08 Q624.151 1373.5 621.512 1374.38 L621.512 1370.21 Q624.174 1369.47 626.489 1369.1 Q628.827 1368.73 630.887 1368.73 Q636.211 1368.73 639.313 1371.16 Q642.414 1373.57 642.414 1377.69 Q642.414 1380.56 640.771 1382.55 Q639.127 1384.52 636.095 1385.28 Z" fill="#000000" fill-rule="evenodd" fill-opacity="1" /><path clip-path="url(#clip740)" d="M652.137 1369.35 L670.493 1369.35 L670.493 1373.29 L656.419 1373.29 L656.419 1381.76 Q657.438 1381.41 658.456 1381.25 Q659.475 1381.07 660.493 1381.07 Q666.28 1381.07 669.66 1384.24 Q673.039 1387.41 673.039 1392.83 Q673.039 1398.41 669.567 1401.51 Q666.095 1404.59 659.776 1404.59 Q657.6 1404.59 655.331 1404.22 Q653.086 1403.84 650.678 1403.1 L650.678 1398.41 Q652.762 1399.54 654.984 1400.09 Q657.206 1400.65 659.683 1400.65 Q663.688 1400.65 666.025 1398.54 Q668.363 1396.44 668.363 1392.83 Q668.363 1389.22 666.025 1387.11 Q663.688 1385 659.683 1385 Q657.808 1385 655.933 1385.42 Q654.081 1385.84 652.137 1386.72 L652.137 1369.35 Z" fill="#000000" fill-rule="evenodd" fill-opacity="1" /><path clip-path="url(#clip740)" d="M692.252 1372.43 Q688.641 1372.43 686.812 1376 Q685.007 1379.54 685.007 1386.67 Q685.007 1393.78 686.812 1397.34 Q688.641 1400.88 692.252 1400.88 Q695.886 1400.88 697.692 1397.34 Q699.521 1393.78 699.521 1386.67 Q699.521 1379.54 697.692 1376 Q695.886 1372.43 692.252 1372.43 M692.252 1368.73 Q698.062 1368.73 701.118 1373.34 Q704.197 1377.92 704.197 1386.67 Q704.197 1395.4 701.118 1400 Q698.062 1404.59 692.252 1404.59 Q686.442 1404.59 683.363 1400 Q680.308 1395.4 680.308 1386.67 Q680.308 1377.92 683.363 1373.34 Q686.442 1368.73 692.252 1368.73 Z" fill="#000000" fill-rule="evenodd" fill-opacity="1" /><path clip-path="url(#clip740)" d="M722.993 1384.77 Q719.845 1384.77 717.993 1386.92 Q716.164 1389.08 716.164 1392.83 Q716.164 1396.55 717.993 1398.73 Q719.845 1400.88 722.993 1400.88 Q726.141 1400.88 727.97 1398.73 Q729.821 1396.55 729.821 1392.83 Q729.821 1389.08 727.97 1386.92 Q726.141 1384.77 722.993 1384.77 M732.275 1370.12 L732.275 1374.38 Q730.516 1373.54 728.71 1373.1 Q726.928 1372.66 725.169 1372.66 Q720.539 1372.66 718.085 1375.79 Q715.655 1378.91 715.308 1385.23 Q716.673 1383.22 718.734 1382.16 Q720.794 1381.07 723.271 1381.07 Q728.479 1381.07 731.488 1384.24 Q734.52 1387.39 734.52 1392.83 Q734.52 1398.15 731.372 1401.37 Q728.224 1404.59 722.993 1404.59 Q716.997 1404.59 713.826 1400 Q710.655 1395.4 710.655 1386.67 Q710.655 1378.47 714.544 1373.61 Q718.433 1368.73 724.983 1368.73 Q726.743 1368.73 728.525 1369.08 Q730.331 1369.42 732.275 1370.12 Z" fill="#000000" fill-rule="evenodd" fill-opacity="1" /><path clip-path="url(#clip740)" d="M742.622 1369.35 L760.979 1369.35 L760.979 1373.29 L746.905 1373.29 L746.905 1381.76 Q747.923 1381.41 748.942 1381.25 Q749.96 1381.07 750.979 1381.07 Q756.766 1381.07 760.145 1384.24 Q763.525 1387.41 763.525 1392.83 Q763.525 1398.41 760.053 1401.51 Q756.581 1404.59 750.261 1404.59 Q748.085 1404.59 745.817 1404.22 Q743.571 1403.84 741.164 1403.1 L741.164 1398.41 Q743.247 1399.54 745.469 1400.09 Q747.692 1400.65 750.169 1400.65 Q754.173 1400.65 756.511 1398.54 Q758.849 1396.44 758.849 1392.83 Q758.849 1389.22 756.511 1387.11 Q754.173 1385 750.169 1385 Q748.294 1385 746.419 1385.42 Q744.567 1385.84 742.622 1386.72 L742.622 1369.35 Z" fill="#000000" fill-rule="evenodd" fill-opacity="1" /><path clip-path="url(#clip740)" d="M776.766 1399.98 L793.085 1399.98 L793.085 1403.91 L771.141 1403.91 L771.141 1399.98 Q773.803 1397.22 778.386 1392.6 Q782.992 1387.94 784.173 1386.6 Q786.418 1384.08 787.298 1382.34 Q788.201 1380.58 788.201 1378.89 Q788.201 1376.14 786.256 1374.4 Q784.335 1372.66 781.233 1372.66 Q779.034 1372.66 776.58 1373.43 Q774.15 1374.19 771.372 1375.74 L771.372 1371.02 Q774.196 1369.89 776.65 1369.31 Q779.104 1368.73 781.141 1368.73 Q786.511 1368.73 789.705 1371.41 Q792.9 1374.1 792.9 1378.59 Q792.9 1380.72 792.09 1382.64 Q791.303 1384.54 789.196 1387.13 Q788.617 1387.8 785.516 1391.02 Q782.414 1394.22 776.766 1399.98 Z" fill="#000000" fill-rule="evenodd" fill-opacity="1" /><path clip-path="url(#clip740)" d="M812.9 1372.43 Q809.289 1372.43 807.46 1376 Q805.654 1379.54 805.654 1386.67 Q805.654 1393.78 807.46 1397.34 Q809.289 1400.88 812.9 1400.88 Q816.534 1400.88 818.339 1397.34 Q820.168 1393.78 820.168 1386.67 Q820.168 1379.54 818.339 1376 Q816.534 1372.43 812.9 1372.43 M812.9 1368.73 Q818.71 1368.73 821.765 1373.34 Q824.844 1377.92 824.844 1386.67 Q824.844 1395.4 821.765 1400 Q818.71 1404.59 812.9 1404.59 Q807.09 1404.59 804.011 1400 Q800.955 1395.4 800.955 1386.67 Q800.955 1377.92 804.011 1373.34 Q807.09 1368.73 812.9 1368.73 Z" fill="#000000" fill-rule="evenodd" fill-opacity="1" /><path clip-path="url(#clip740)" d="M847.228 1385.28 Q850.585 1386 852.46 1388.27 Q854.358 1390.53 854.358 1393.87 Q854.358 1398.98 850.839 1401.78 Q847.321 1404.59 840.839 1404.59 Q838.663 1404.59 836.349 1404.15 Q834.057 1403.73 831.603 1402.87 L831.603 1398.36 Q833.548 1399.49 835.863 1400.07 Q838.177 1400.65 840.7 1400.65 Q845.099 1400.65 847.39 1398.91 Q849.705 1397.18 849.705 1393.87 Q849.705 1390.81 847.552 1389.1 Q845.423 1387.36 841.603 1387.36 L837.575 1387.36 L837.575 1383.52 L841.788 1383.52 Q845.237 1383.52 847.066 1382.16 Q848.895 1380.77 848.895 1378.17 Q848.895 1375.51 846.997 1374.1 Q845.122 1372.66 841.603 1372.66 Q839.682 1372.66 837.483 1373.08 Q835.284 1373.5 832.645 1374.38 L832.645 1370.21 Q835.307 1369.47 837.622 1369.1 Q839.96 1368.73 842.02 1368.73 Q847.344 1368.73 850.446 1371.16 Q853.548 1373.57 853.548 1377.69 Q853.548 1380.56 851.904 1382.55 Q850.261 1384.52 847.228 1385.28 Z" fill="#000000" fill-rule="evenodd" fill-opacity="1" /><path clip-path="url(#clip740)" d="M873.223 1372.43 Q869.612 1372.43 867.784 1376 Q865.978 1379.54 865.978 1386.67 Q865.978 1393.78 867.784 1397.34 Q869.612 1400.88 873.223 1400.88 Q876.858 1400.88 878.663 1397.34 Q880.492 1393.78 880.492 1386.67 Q880.492 1379.54 878.663 1376 Q876.858 1372.43 873.223 1372.43 M873.223 1368.73 Q879.034 1368.73 882.089 1373.34 Q885.168 1377.92 885.168 1386.67 Q885.168 1395.4 882.089 1400 Q879.034 1404.59 873.223 1404.59 Q867.413 1404.59 864.335 1400 Q861.279 1395.4 861.279 1386.67 Q861.279 1377.92 864.335 1373.34 Q867.413 1368.73 873.223 1368.73 Z" fill="#000000" fill-rule="evenodd" fill-opacity="1" /><path clip-path="url(#clip740)" d="M893.524 1403.2 L893.524 1398.94 Q895.284 1399.77 897.089 1400.21 Q898.895 1400.65 900.631 1400.65 Q905.26 1400.65 907.691 1397.55 Q910.145 1394.42 910.492 1388.08 Q909.149 1390.07 907.089 1391.14 Q905.029 1392.2 902.529 1392.2 Q897.344 1392.2 894.311 1389.08 Q891.302 1385.93 891.302 1380.49 Q891.302 1375.16 894.45 1371.95 Q897.598 1368.73 902.83 1368.73 Q908.825 1368.73 911.973 1373.34 Q915.145 1377.92 915.145 1386.67 Q915.145 1394.84 911.256 1399.72 Q907.39 1404.59 900.839 1404.59 Q899.08 1404.59 897.274 1404.24 Q895.469 1403.89 893.524 1403.2 M902.83 1388.54 Q905.978 1388.54 907.807 1386.39 Q909.658 1384.24 909.658 1380.49 Q909.658 1376.76 907.807 1374.61 Q905.978 1372.43 902.83 1372.43 Q899.682 1372.43 897.83 1374.61 Q896.001 1376.76 896.001 1380.49 Q896.001 1384.24 897.83 1386.39 Q899.682 1388.54 902.83 1388.54 Z" fill="#000000" fill-rule="evenodd" fill-opacity="1" /><path clip-path="url(#clip740)" d="M933.547 1387.5 Q930.214 1387.5 928.293 1389.28 Q926.394 1391.07 926.394 1394.19 Q926.394 1397.32 928.293 1399.1 Q930.214 1400.88 933.547 1400.88 Q936.881 1400.88 938.802 1399.1 Q940.723 1397.29 940.723 1394.19 Q940.723 1391.07 938.802 1389.28 Q936.904 1387.5 933.547 1387.5 M928.871 1385.51 Q925.862 1384.77 924.172 1382.71 Q922.506 1380.65 922.506 1377.69 Q922.506 1373.54 925.445 1371.14 Q928.408 1368.73 933.547 1368.73 Q938.709 1368.73 941.649 1371.14 Q944.589 1373.54 944.589 1377.69 Q944.589 1380.65 942.899 1382.71 Q941.232 1384.77 938.246 1385.51 Q941.626 1386.3 943.501 1388.59 Q945.399 1390.88 945.399 1394.19 Q945.399 1399.22 942.32 1401.9 Q939.265 1404.59 933.547 1404.59 Q927.83 1404.59 924.751 1401.9 Q921.695 1399.22 921.695 1394.19 Q921.695 1390.88 923.594 1388.59 Q925.492 1386.3 928.871 1385.51 M927.158 1378.13 Q927.158 1380.81 928.825 1382.32 Q930.515 1383.82 933.547 1383.82 Q936.556 1383.82 938.246 1382.32 Q939.959 1380.81 939.959 1378.13 Q939.959 1375.44 938.246 1373.94 Q936.556 1372.43 933.547 1372.43 Q930.515 1372.43 928.825 1373.94 Q927.158 1375.44 927.158 1378.13 Z" fill="#000000" fill-rule="evenodd" fill-opacity="1" /><path clip-path="url(#clip740)" d="M954.519 1399.98 L962.158 1399.98 L962.158 1373.61 L953.848 1375.28 L953.848 1371.02 L962.112 1369.35 L966.788 1369.35 L966.788 1399.98 L974.427 1399.98 L974.427 1403.91 L954.519 1403.91 L954.519 1399.98 Z" fill="#000000" fill-rule="evenodd" fill-opacity="1" /><path clip-path="url(#clip740)" d="M982.69 1369.35 L1004.91 1369.35 L1004.91 1371.35 L992.366 1403.91 L987.482 1403.91 L999.288 1373.29 L982.69 1373.29 L982.69 1369.35 Z" fill="#000000" fill-rule="evenodd" fill-opacity="1" /><path clip-path="url(#clip740)" d="M1018.06 1399.98 L1034.38 1399.98 L1034.38 1403.91 L1012.44 1403.91 L1012.44 1399.98 Q1015.1 1397.22 1019.68 1392.6 Q1024.29 1387.94 1025.47 1386.6 Q1027.71 1384.08 1028.59 1382.34 Q1029.5 1380.58 1029.5 1378.89 Q1029.5 1376.14 1027.55 1374.4 Q1025.63 1372.66 1022.53 1372.66 Q1020.33 1372.66 1017.88 1373.43 Q1015.44 1374.19 1012.67 1375.74 L1012.67 1371.02 Q1015.49 1369.89 1017.94 1369.31 Q1020.4 1368.73 1022.44 1368.73 Q1027.81 1368.73 1031 1371.41 Q1034.19 1374.1 1034.19 1378.59 Q1034.19 1380.72 1033.38 1382.64 Q1032.6 1384.54 1030.49 1387.13 Q1029.91 1387.8 1026.81 1391.02 Q1023.71 1394.22 1018.06 1399.98 Z" fill="#000000" fill-rule="evenodd" fill-opacity="1" /><path clip-path="url(#clip740)" d="M1054.19 1387.5 Q1050.86 1387.5 1048.94 1389.28 Q1047.04 1391.07 1047.04 1394.19 Q1047.04 1397.32 1048.94 1399.1 Q1050.86 1400.88 1054.19 1400.88 Q1057.53 1400.88 1059.45 1399.1 Q1061.37 1397.29 1061.37 1394.19 Q1061.37 1391.07 1059.45 1389.28 Q1057.55 1387.5 1054.19 1387.5 M1049.52 1385.51 Q1046.51 1384.77 1044.82 1382.71 Q1043.15 1380.65 1043.15 1377.69 Q1043.15 1373.54 1046.09 1371.14 Q1049.06 1368.73 1054.19 1368.73 Q1059.36 1368.73 1062.3 1371.14 Q1065.24 1373.54 1065.24 1377.69 Q1065.24 1380.65 1063.55 1382.71 Q1061.88 1384.77 1058.89 1385.51 Q1062.27 1386.3 1064.15 1388.59 Q1066.05 1390.88 1066.05 1394.19 Q1066.05 1399.22 1062.97 1401.9 Q1059.91 1404.59 1054.19 1404.59 Q1048.48 1404.59 1045.4 1401.9 Q1042.34 1399.22 1042.34 1394.19 Q1042.34 1390.88 1044.24 1388.59 Q1046.14 1386.3 1049.52 1385.51 M1047.81 1378.13 Q1047.81 1380.81 1049.47 1382.32 Q1051.16 1383.82 1054.19 1383.82 Q1057.2 1383.82 1058.89 1382.32 Q1060.61 1380.81 1060.61 1378.13 Q1060.61 1375.44 1058.89 1373.94 Q1057.2 1372.43 1054.19 1372.43 Q1051.16 1372.43 1049.47 1373.94 Q1047.81 1375.44 1047.81 1378.13 Z" fill="#000000" fill-rule="evenodd" fill-opacity="1" /></svg>
