<?xml version="1.0" encoding="utf-8"?>
<svg xmlns="http://www.w3.org/2000/svg" xmlns:xlink="http://www.w3.org/1999/xlink" width="600" height="400" viewBox="0 0 2400 1600">
<defs>
  <clipPath id="clip850">
    <rect x="0" y="0" width="2400" height="1600"/>
  </clipPath>
</defs>
<path clip-path="url(#clip850)" d="
M0 1600 L2400 1600 L2400 0 L0 0  Z
  " fill="#ffffff" fill-rule="evenodd" fill-opacity="1"/>
<defs>
  <clipPath id="clip851">
    <rect x="480" y="0" width="1681" height="1600"/>
  </clipPath>
</defs>
<path clip-path="url(#clip850)" d="
M186.274 1486.45 L2352.76 1486.45 L2352.76 47.2441 L186.274 47.2441  Z
  " fill="#ffffff" fill-rule="evenodd" fill-opacity="1"/>
<defs>
  <clipPath id="clip852">
    <rect x="186" y="47" width="2167" height="1440"/>
  </clipPath>
</defs>
<polyline clip-path="url(#clip852)" style="stroke:#000000; stroke-linecap:butt; stroke-linejoin:round; stroke-width:2; stroke-opacity:0.1; fill:none" points="
  247.59,1486.45 247.59,47.2441 
  "/>
<polyline clip-path="url(#clip852)" style="stroke:#000000; stroke-linecap:butt; stroke-linejoin:round; stroke-width:2; stroke-opacity:0.1; fill:none" points="
  758.552,1486.45 758.552,47.2441 
  "/>
<polyline clip-path="url(#clip852)" style="stroke:#000000; stroke-linecap:butt; stroke-linejoin:round; stroke-width:2; stroke-opacity:0.1; fill:none" points="
  1269.51,1486.45 1269.51,47.2441 
  "/>
<polyline clip-path="url(#clip852)" style="stroke:#000000; stroke-linecap:butt; stroke-linejoin:round; stroke-width:2; stroke-opacity:0.1; fill:none" points="
  1780.48,1486.45 1780.48,47.2441 
  "/>
<polyline clip-path="url(#clip852)" style="stroke:#000000; stroke-linecap:butt; stroke-linejoin:round; stroke-width:2; stroke-opacity:0.1; fill:none" points="
  2291.44,1486.45 2291.44,47.2441 
  "/>
<polyline clip-path="url(#clip850)" style="stroke:#000000; stroke-linecap:butt; stroke-linejoin:round; stroke-width:4; stroke-opacity:1; fill:none" points="
  186.274,1486.45 2352.76,1486.45 
  "/>
<polyline clip-path="url(#clip850)" style="stroke:#000000; stroke-linecap:butt; stroke-linejoin:round; stroke-width:4; stroke-opacity:1; fill:none" points="
  247.59,1486.45 247.59,1467.55 
  "/>
<polyline clip-path="url(#clip850)" style="stroke:#000000; stroke-linecap:butt; stroke-linejoin:round; stroke-width:4; stroke-opacity:1; fill:none" points="
  758.552,1486.45 758.552,1467.55 
  "/>
<polyline clip-path="url(#clip850)" style="stroke:#000000; stroke-linecap:butt; stroke-linejoin:round; stroke-width:4; stroke-opacity:1; fill:none" points="
  1269.51,1486.45 1269.51,1467.55 
  "/>
<polyline clip-path="url(#clip850)" style="stroke:#000000; stroke-linecap:butt; stroke-linejoin:round; stroke-width:4; stroke-opacity:1; fill:none" points="
  1780.48,1486.45 1780.48,1467.55 
  "/>
<polyline clip-path="url(#clip850)" style="stroke:#000000; stroke-linecap:butt; stroke-linejoin:round; stroke-width:4; stroke-opacity:1; fill:none" points="
  2291.44,1486.45 2291.44,1467.55 
  "/>
<path clip-path="url(#clip850)" d="M194.118 1532.02 L223.793 1532.02 L223.793 1535.95 L194.118 1535.95 L194.118 1532.02 Z" fill="#000000" fill-rule="evenodd" fill-opacity="1" /><path clip-path="url(#clip850)" d="M234.696 1544.91 L242.335 1544.91 L242.335 1518.55 L234.025 1520.21 L234.025 1515.95 L242.289 1514.29 L246.965 1514.29 L246.965 1544.91 L254.603 1544.91 L254.603 1548.85 L234.696 1548.85 L234.696 1544.91 Z" fill="#000000" fill-rule="evenodd" fill-opacity="1" /><path clip-path="url(#clip850)" d="M264.048 1542.97 L268.932 1542.97 L268.932 1548.85 L264.048 1548.85 L264.048 1542.97 Z" fill="#000000" fill-rule="evenodd" fill-opacity="1" /><path clip-path="url(#clip850)" d="M289.117 1517.37 Q285.506 1517.37 283.677 1520.93 Q281.872 1524.47 281.872 1531.6 Q281.872 1538.71 283.677 1542.27 Q285.506 1545.82 289.117 1545.82 Q292.751 1545.82 294.557 1542.27 Q296.386 1538.71 296.386 1531.6 Q296.386 1524.47 294.557 1520.93 Q292.751 1517.37 289.117 1517.37 M289.117 1513.66 Q294.927 1513.66 297.983 1518.27 Q301.061 1522.85 301.061 1531.6 Q301.061 1540.33 297.983 1544.94 Q294.927 1549.52 289.117 1549.52 Q283.307 1549.52 280.228 1544.94 Q277.173 1540.33 277.173 1531.6 Q277.173 1522.85 280.228 1518.27 Q283.307 1513.66 289.117 1513.66 Z" fill="#000000" fill-rule="evenodd" fill-opacity="1" /><path clip-path="url(#clip850)" d="M705.578 1532.02 L735.254 1532.02 L735.254 1535.95 L705.578 1535.95 L705.578 1532.02 Z" fill="#000000" fill-rule="evenodd" fill-opacity="1" /><path clip-path="url(#clip850)" d="M755.346 1517.37 Q751.735 1517.37 749.906 1520.93 Q748.101 1524.47 748.101 1531.6 Q748.101 1538.71 749.906 1542.27 Q751.735 1545.82 755.346 1545.82 Q758.98 1545.82 760.786 1542.27 Q762.615 1538.71 762.615 1531.6 Q762.615 1524.47 760.786 1520.93 Q758.98 1517.37 755.346 1517.37 M755.346 1513.66 Q761.156 1513.66 764.212 1518.27 Q767.291 1522.85 767.291 1531.6 Q767.291 1540.33 764.212 1544.94 Q761.156 1549.52 755.346 1549.52 Q749.536 1549.52 746.457 1544.94 Q743.402 1540.33 743.402 1531.6 Q743.402 1522.85 746.457 1518.27 Q749.536 1513.66 755.346 1513.66 Z" fill="#000000" fill-rule="evenodd" fill-opacity="1" /><path clip-path="url(#clip850)" d="M775.508 1542.97 L780.392 1542.97 L780.392 1548.85 L775.508 1548.85 L775.508 1542.97 Z" fill="#000000" fill-rule="evenodd" fill-opacity="1" /><path clip-path="url(#clip850)" d="M790.624 1514.29 L808.98 1514.29 L808.98 1518.22 L794.906 1518.22 L794.906 1526.7 Q795.925 1526.35 796.943 1526.19 Q797.962 1526 798.98 1526 Q804.767 1526 808.147 1529.17 Q811.526 1532.34 811.526 1537.76 Q811.526 1543.34 808.054 1546.44 Q804.582 1549.52 798.263 1549.52 Q796.087 1549.52 793.818 1549.15 Q791.573 1548.78 789.166 1548.04 L789.166 1543.34 Q791.249 1544.47 793.471 1545.03 Q795.693 1545.58 798.17 1545.58 Q802.175 1545.58 804.513 1543.48 Q806.851 1541.37 806.851 1537.76 Q806.851 1534.15 804.513 1532.04 Q802.175 1529.94 798.17 1529.94 Q796.295 1529.94 794.42 1530.35 Q792.568 1530.77 790.624 1531.65 L790.624 1514.29 Z" fill="#000000" fill-rule="evenodd" fill-opacity="1" /><path clip-path="url(#clip850)" d="M1246.9 1517.37 Q1243.29 1517.37 1241.46 1520.93 Q1239.65 1524.47 1239.65 1531.6 Q1239.65 1538.71 1241.46 1542.27 Q1243.29 1545.82 1246.9 1545.82 Q1250.53 1545.82 1252.34 1542.27 Q1254.17 1538.71 1254.17 1531.6 Q1254.17 1524.47 1252.34 1520.93 Q1250.53 1517.37 1246.9 1517.37 M1246.9 1513.66 Q1252.71 1513.66 1255.77 1518.27 Q1258.84 1522.85 1258.84 1531.6 Q1258.84 1540.33 1255.77 1544.94 Q1252.71 1549.52 1246.9 1549.52 Q1241.09 1549.52 1238.01 1544.94 Q1234.95 1540.33 1234.95 1531.6 Q1234.95 1522.85 1238.01 1518.27 Q1241.09 1513.66 1246.9 1513.66 Z" fill="#000000" fill-rule="evenodd" fill-opacity="1" /><path clip-path="url(#clip850)" d="M1267.06 1542.97 L1271.95 1542.97 L1271.95 1548.85 L1267.06 1548.85 L1267.06 1542.97 Z" fill="#000000" fill-rule="evenodd" fill-opacity="1" /><path clip-path="url(#clip850)" d="M1292.13 1517.37 Q1288.52 1517.37 1286.69 1520.93 Q1284.89 1524.47 1284.89 1531.6 Q1284.89 1538.71 1286.69 1542.27 Q1288.52 1545.82 1292.13 1545.82 Q1295.76 1545.82 1297.57 1542.27 Q1299.4 1538.71 1299.4 1531.6 Q1299.4 1524.47 1297.57 1520.93 Q1295.76 1517.37 1292.13 1517.37 M1292.13 1513.66 Q1297.94 1513.66 1301 1518.27 Q1304.07 1522.85 1304.07 1531.6 Q1304.07 1540.33 1301 1544.94 Q1297.94 1549.52 1292.13 1549.52 Q1286.32 1549.52 1283.24 1544.94 Q1280.19 1540.33 1280.19 1531.6 Q1280.19 1522.85 1283.24 1518.27 Q1286.32 1513.66 1292.13 1513.66 Z" fill="#000000" fill-rule="evenodd" fill-opacity="1" /><path clip-path="url(#clip850)" d="M1758.36 1517.37 Q1754.75 1517.37 1752.92 1520.93 Q1751.11 1524.47 1751.11 1531.6 Q1751.11 1538.71 1752.92 1542.27 Q1754.75 1545.82 1758.36 1545.82 Q1761.99 1545.82 1763.8 1542.27 Q1765.63 1538.71 1765.63 1531.6 Q1765.63 1524.47 1763.8 1520.93 Q1761.99 1517.37 1758.36 1517.37 M1758.36 1513.66 Q1764.17 1513.66 1767.23 1518.27 Q1770.3 1522.85 1770.3 1531.6 Q1770.3 1540.33 1767.23 1544.94 Q1764.17 1549.52 1758.36 1549.52 Q1752.55 1549.52 1749.47 1544.94 Q1746.42 1540.33 1746.42 1531.6 Q1746.42 1522.85 1749.47 1518.27 Q1752.55 1513.66 1758.36 1513.66 Z" fill="#000000" fill-rule="evenodd" fill-opacity="1" /><path clip-path="url(#clip850)" d="M1778.52 1542.97 L1783.41 1542.97 L1783.41 1548.85 L1778.52 1548.85 L1778.52 1542.97 Z" fill="#000000" fill-rule="evenodd" fill-opacity="1" /><path clip-path="url(#clip850)" d="M1793.64 1514.29 L1811.99 1514.29 L1811.99 1518.22 L1797.92 1518.22 L1797.92 1526.7 Q1798.94 1526.35 1799.96 1526.19 Q1800.98 1526 1801.99 1526 Q1807.78 1526 1811.16 1529.17 Q1814.54 1532.34 1814.54 1537.76 Q1814.54 1543.34 1811.07 1546.44 Q1807.6 1549.52 1801.28 1549.52 Q1799.1 1549.52 1796.83 1549.15 Q1794.59 1548.78 1792.18 1548.04 L1792.18 1543.34 Q1794.26 1544.47 1796.48 1545.03 Q1798.71 1545.58 1801.18 1545.58 Q1805.19 1545.58 1807.53 1543.48 Q1809.86 1541.37 1809.86 1537.76 Q1809.86 1534.15 1807.53 1532.04 Q1805.19 1529.94 1801.18 1529.94 Q1799.31 1529.94 1797.43 1530.35 Q1795.58 1530.77 1793.64 1531.65 L1793.64 1514.29 Z" fill="#000000" fill-rule="evenodd" fill-opacity="1" /><path clip-path="url(#clip850)" d="M2258.59 1544.91 L2266.23 1544.91 L2266.23 1518.55 L2257.92 1520.21 L2257.92 1515.95 L2266.19 1514.29 L2270.86 1514.29 L2270.86 1544.91 L2278.5 1544.91 L2278.5 1548.85 L2258.59 1548.85 L2258.59 1544.91 Z" fill="#000000" fill-rule="evenodd" fill-opacity="1" /><path clip-path="url(#clip850)" d="M2287.95 1542.97 L2292.83 1542.97 L2292.83 1548.85 L2287.95 1548.85 L2287.95 1542.97 Z" fill="#000000" fill-rule="evenodd" fill-opacity="1" /><path clip-path="url(#clip850)" d="M2313.01 1517.37 Q2309.4 1517.37 2307.57 1520.93 Q2305.77 1524.47 2305.77 1531.6 Q2305.77 1538.71 2307.57 1542.27 Q2309.4 1545.82 2313.01 1545.82 Q2316.65 1545.82 2318.45 1542.27 Q2320.28 1538.71 2320.28 1531.6 Q2320.28 1524.47 2318.45 1520.93 Q2316.65 1517.37 2313.01 1517.37 M2313.01 1513.66 Q2318.82 1513.66 2321.88 1518.27 Q2324.96 1522.85 2324.96 1531.6 Q2324.96 1540.33 2321.88 1544.94 Q2318.82 1549.52 2313.01 1549.52 Q2307.2 1549.52 2304.13 1544.94 Q2301.07 1540.33 2301.07 1531.6 Q2301.07 1522.85 2304.13 1518.27 Q2307.2 1513.66 2313.01 1513.66 Z" fill="#000000" fill-rule="evenodd" fill-opacity="1" /><polyline clip-path="url(#clip852)" style="stroke:#000000; stroke-linecap:butt; stroke-linejoin:round; stroke-width:2; stroke-opacity:0.1; fill:none" points="
  186.274,1445.72 2352.76,1445.72 
  "/>
<polyline clip-path="url(#clip852)" style="stroke:#000000; stroke-linecap:butt; stroke-linejoin:round; stroke-width:2; stroke-opacity:0.1; fill:none" points="
  186.274,1203.38 2352.76,1203.38 
  "/>
<polyline clip-path="url(#clip852)" style="stroke:#000000; stroke-linecap:butt; stroke-linejoin:round; stroke-width:2; stroke-opacity:0.1; fill:none" points="
  186.274,961.046 2352.76,961.046 
  "/>
<polyline clip-path="url(#clip852)" style="stroke:#000000; stroke-linecap:butt; stroke-linejoin:round; stroke-width:2; stroke-opacity:0.1; fill:none" points="
  186.274,718.711 2352.76,718.711 
  "/>
<polyline clip-path="url(#clip852)" style="stroke:#000000; stroke-linecap:butt; stroke-linejoin:round; stroke-width:2; stroke-opacity:0.1; fill:none" points="
  186.274,476.375 2352.76,476.375 
  "/>
<polyline clip-path="url(#clip852)" style="stroke:#000000; stroke-linecap:butt; stroke-linejoin:round; stroke-width:2; stroke-opacity:0.1; fill:none" points="
  186.274,234.04 2352.76,234.04 
  "/>
<polyline clip-path="url(#clip850)" style="stroke:#000000; stroke-linecap:butt; stroke-linejoin:round; stroke-width:4; stroke-opacity:1; fill:none" points="
  186.274,1486.45 186.274,47.2441 
  "/>
<polyline clip-path="url(#clip850)" style="stroke:#000000; stroke-linecap:butt; stroke-linejoin:round; stroke-width:4; stroke-opacity:1; fill:none" points="
  186.274,1445.72 205.172,1445.72 
  "/>
<polyline clip-path="url(#clip850)" style="stroke:#000000; stroke-linecap:butt; stroke-linejoin:round; stroke-width:4; stroke-opacity:1; fill:none" points="
  186.274,1203.38 205.172,1203.38 
  "/>
<polyline clip-path="url(#clip850)" style="stroke:#000000; stroke-linecap:butt; stroke-linejoin:round; stroke-width:4; stroke-opacity:1; fill:none" points="
  186.274,961.046 205.172,961.046 
  "/>
<polyline clip-path="url(#clip850)" style="stroke:#000000; stroke-linecap:butt; stroke-linejoin:round; stroke-width:4; stroke-opacity:1; fill:none" points="
  186.274,718.711 205.172,718.711 
  "/>
<polyline clip-path="url(#clip850)" style="stroke:#000000; stroke-linecap:butt; stroke-linejoin:round; stroke-width:4; stroke-opacity:1; fill:none" points="
  186.274,476.375 205.172,476.375 
  "/>
<polyline clip-path="url(#clip850)" style="stroke:#000000; stroke-linecap:butt; stroke-linejoin:round; stroke-width:4; stroke-opacity:1; fill:none" points="
  186.274,234.04 205.172,234.04 
  "/>
<path clip-path="url(#clip850)" d="M62.9365 1431.51 Q59.3254 1431.51 57.4967 1435.08 Q55.6912 1438.62 55.6912 1445.75 Q55.6912 1452.86 57.4967 1456.42 Q59.3254 1459.96 62.9365 1459.96 Q66.5707 1459.96 68.3763 1456.42 Q70.205 1452.86 70.205 1445.75 Q70.205 1438.62 68.3763 1435.08 Q66.5707 1431.51 62.9365 1431.51 M62.9365 1427.81 Q68.7467 1427.81 71.8022 1432.42 Q74.8809 1437 74.8809 1445.75 Q74.8809 1454.48 71.8022 1459.08 Q68.7467 1463.67 62.9365 1463.67 Q57.1264 1463.67 54.0477 1459.08 Q50.9921 1454.48 50.9921 1445.75 Q50.9921 1437 54.0477 1432.42 Q57.1264 1427.81 62.9365 1427.81 Z" fill="#000000" fill-rule="evenodd" fill-opacity="1" /><path clip-path="url(#clip850)" d="M83.0984 1457.12 L87.9827 1457.12 L87.9827 1463 L83.0984 1463 L83.0984 1457.12 Z" fill="#000000" fill-rule="evenodd" fill-opacity="1" /><path clip-path="url(#clip850)" d="M108.168 1431.51 Q104.557 1431.51 102.728 1435.08 Q100.922 1438.62 100.922 1445.75 Q100.922 1452.86 102.728 1456.42 Q104.557 1459.96 108.168 1459.96 Q111.802 1459.96 113.608 1456.42 Q115.436 1452.86 115.436 1445.75 Q115.436 1438.62 113.608 1435.08 Q111.802 1431.51 108.168 1431.51 M108.168 1427.81 Q113.978 1427.81 117.033 1432.42 Q120.112 1437 120.112 1445.75 Q120.112 1454.48 117.033 1459.08 Q113.978 1463.67 108.168 1463.67 Q102.358 1463.67 99.2789 1459.08 Q96.2234 1454.48 96.2234 1445.75 Q96.2234 1437 99.2789 1432.42 Q102.358 1427.81 108.168 1427.81 Z" fill="#000000" fill-rule="evenodd" fill-opacity="1" /><path clip-path="url(#clip850)" d="M138.33 1431.51 Q134.719 1431.51 132.89 1435.08 Q131.084 1438.62 131.084 1445.75 Q131.084 1452.86 132.89 1456.42 Q134.719 1459.96 138.33 1459.96 Q141.964 1459.96 143.769 1456.42 Q145.598 1452.86 145.598 1445.75 Q145.598 1438.62 143.769 1435.08 Q141.964 1431.51 138.33 1431.51 M138.33 1427.81 Q144.14 1427.81 147.195 1432.42 Q150.274 1437 150.274 1445.75 Q150.274 1454.48 147.195 1459.08 Q144.14 1463.67 138.33 1463.67 Q132.519 1463.67 129.441 1459.08 Q126.385 1454.48 126.385 1445.75 Q126.385 1437 129.441 1432.42 Q132.519 1427.81 138.33 1427.81 Z" fill="#000000" fill-rule="evenodd" fill-opacity="1" /><path clip-path="url(#clip850)" d="M63.9319 1189.18 Q60.3208 1189.18 58.4921 1192.74 Q56.6865 1196.29 56.6865 1203.42 Q56.6865 1210.52 58.4921 1214.09 Q60.3208 1217.63 63.9319 1217.63 Q67.5661 1217.63 69.3717 1214.09 Q71.2004 1210.52 71.2004 1203.42 Q71.2004 1196.29 69.3717 1192.74 Q67.5661 1189.18 63.9319 1189.18 M63.9319 1185.48 Q69.742 1185.48 72.7976 1190.08 Q75.8763 1194.67 75.8763 1203.42 Q75.8763 1212.14 72.7976 1216.75 Q69.742 1221.33 63.9319 1221.33 Q58.1217 1221.33 55.043 1216.75 Q51.9875 1212.14 51.9875 1203.42 Q51.9875 1194.67 55.043 1190.08 Q58.1217 1185.48 63.9319 1185.48 Z" fill="#000000" fill-rule="evenodd" fill-opacity="1" /><path clip-path="url(#clip850)" d="M84.0938 1214.78 L88.978 1214.78 L88.978 1220.66 L84.0938 1220.66 L84.0938 1214.78 Z" fill="#000000" fill-rule="evenodd" fill-opacity="1" /><path clip-path="url(#clip850)" d="M103.191 1216.73 L119.51 1216.73 L119.51 1220.66 L97.566 1220.66 L97.566 1216.73 Q100.228 1213.97 104.811 1209.34 Q109.418 1204.69 110.598 1203.35 Q112.844 1200.82 113.723 1199.09 Q114.626 1197.33 114.626 1195.64 Q114.626 1192.88 112.682 1191.15 Q110.76 1189.41 107.658 1189.41 Q105.459 1189.41 103.006 1190.17 Q100.575 1190.94 97.7974 1192.49 L97.7974 1187.77 Q100.621 1186.63 103.075 1186.05 Q105.529 1185.48 107.566 1185.48 Q112.936 1185.48 116.131 1188.16 Q119.325 1190.85 119.325 1195.34 Q119.325 1197.47 118.515 1199.39 Q117.728 1201.29 115.621 1203.88 Q115.043 1204.55 111.941 1207.77 Q108.839 1210.96 103.191 1216.73 Z" fill="#000000" fill-rule="evenodd" fill-opacity="1" /><path clip-path="url(#clip850)" d="M129.371 1186.1 L147.728 1186.1 L147.728 1190.04 L133.654 1190.04 L133.654 1198.51 Q134.672 1198.16 135.691 1198 Q136.709 1197.81 137.728 1197.81 Q143.515 1197.81 146.894 1200.98 Q150.274 1204.16 150.274 1209.57 Q150.274 1215.15 146.802 1218.25 Q143.33 1221.33 137.01 1221.33 Q134.834 1221.33 132.566 1220.96 Q130.32 1220.59 127.913 1219.85 L127.913 1215.15 Q129.996 1216.29 132.219 1216.84 Q134.441 1217.4 136.918 1217.4 Q140.922 1217.4 143.26 1215.29 Q145.598 1213.18 145.598 1209.57 Q145.598 1205.96 143.26 1203.86 Q140.922 1201.75 136.918 1201.75 Q135.043 1201.75 133.168 1202.17 Q131.316 1202.58 129.371 1203.46 L129.371 1186.1 Z" fill="#000000" fill-rule="evenodd" fill-opacity="1" /><path clip-path="url(#clip850)" d="M62.9365 946.844 Q59.3254 946.844 57.4967 950.409 Q55.6912 953.951 55.6912 961.08 Q55.6912 968.187 57.4967 971.752 Q59.3254 975.293 62.9365 975.293 Q66.5707 975.293 68.3763 971.752 Q70.205 968.187 70.205 961.08 Q70.205 953.951 68.3763 950.409 Q66.5707 946.844 62.9365 946.844 M62.9365 943.141 Q68.7467 943.141 71.8022 947.747 Q74.8809 952.33 74.8809 961.08 Q74.8809 969.807 71.8022 974.414 Q68.7467 978.997 62.9365 978.997 Q57.1264 978.997 54.0477 974.414 Q50.9921 969.807 50.9921 961.08 Q50.9921 952.33 54.0477 947.747 Q57.1264 943.141 62.9365 943.141 Z" fill="#000000" fill-rule="evenodd" fill-opacity="1" /><path clip-path="url(#clip850)" d="M83.0984 972.446 L87.9827 972.446 L87.9827 978.326 L83.0984 978.326 L83.0984 972.446 Z" fill="#000000" fill-rule="evenodd" fill-opacity="1" /><path clip-path="url(#clip850)" d="M98.2141 943.766 L116.57 943.766 L116.57 947.701 L102.496 947.701 L102.496 956.173 Q103.515 955.826 104.534 955.664 Q105.552 955.478 106.571 955.478 Q112.358 955.478 115.737 958.65 Q119.117 961.821 119.117 967.238 Q119.117 972.816 115.645 975.918 Q112.172 978.997 105.853 978.997 Q103.677 978.997 101.409 978.627 Q99.1632 978.256 96.7558 977.515 L96.7558 972.816 Q98.8391 973.951 101.061 974.506 Q103.284 975.062 105.76 975.062 Q109.765 975.062 112.103 972.955 Q114.441 970.849 114.441 967.238 Q114.441 963.627 112.103 961.52 Q109.765 959.414 105.76 959.414 Q103.885 959.414 102.01 959.83 Q100.159 960.247 98.2141 961.127 L98.2141 943.766 Z" fill="#000000" fill-rule="evenodd" fill-opacity="1" /><path clip-path="url(#clip850)" d="M138.33 946.844 Q134.719 946.844 132.89 950.409 Q131.084 953.951 131.084 961.08 Q131.084 968.187 132.89 971.752 Q134.719 975.293 138.33 975.293 Q141.964 975.293 143.769 971.752 Q145.598 968.187 145.598 961.08 Q145.598 953.951 143.769 950.409 Q141.964 946.844 138.33 946.844 M138.33 943.141 Q144.14 943.141 147.195 947.747 Q150.274 952.33 150.274 961.08 Q150.274 969.807 147.195 974.414 Q144.14 978.997 138.33 978.997 Q132.519 978.997 129.441 974.414 Q126.385 969.807 126.385 961.08 Q126.385 952.33 129.441 947.747 Q132.519 943.141 138.33 943.141 Z" fill="#000000" fill-rule="evenodd" fill-opacity="1" /><path clip-path="url(#clip850)" d="M63.9319 704.509 Q60.3208 704.509 58.4921 708.074 Q56.6865 711.616 56.6865 718.745 Q56.6865 725.852 58.4921 729.416 Q60.3208 732.958 63.9319 732.958 Q67.5661 732.958 69.3717 729.416 Q71.2004 725.852 71.2004 718.745 Q71.2004 711.616 69.3717 708.074 Q67.5661 704.509 63.9319 704.509 M63.9319 700.806 Q69.742 700.806 72.7976 705.412 Q75.8763 709.995 75.8763 718.745 Q75.8763 727.472 72.7976 732.079 Q69.742 736.662 63.9319 736.662 Q58.1217 736.662 55.043 732.079 Q51.9875 727.472 51.9875 718.745 Q51.9875 709.995 55.043 705.412 Q58.1217 700.806 63.9319 700.806 Z" fill="#000000" fill-rule="evenodd" fill-opacity="1" /><path clip-path="url(#clip850)" d="M84.0938 730.111 L88.978 730.111 L88.978 735.991 L84.0938 735.991 L84.0938 730.111 Z" fill="#000000" fill-rule="evenodd" fill-opacity="1" /><path clip-path="url(#clip850)" d="M97.9826 701.431 L120.205 701.431 L120.205 703.421 L107.658 735.991 L102.774 735.991 L114.58 705.366 L97.9826 705.366 L97.9826 701.431 Z" fill="#000000" fill-rule="evenodd" fill-opacity="1" /><path clip-path="url(#clip850)" d="M129.371 701.431 L147.728 701.431 L147.728 705.366 L133.654 705.366 L133.654 713.838 Q134.672 713.491 135.691 713.329 Q136.709 713.143 137.728 713.143 Q143.515 713.143 146.894 716.315 Q150.274 719.486 150.274 724.903 Q150.274 730.481 146.802 733.583 Q143.33 736.662 137.01 736.662 Q134.834 736.662 132.566 736.291 Q130.32 735.921 127.913 735.18 L127.913 730.481 Q129.996 731.616 132.219 732.171 Q134.441 732.727 136.918 732.727 Q140.922 732.727 143.26 730.62 Q145.598 728.514 145.598 724.903 Q145.598 721.292 143.26 719.185 Q140.922 717.079 136.918 717.079 Q135.043 717.079 133.168 717.495 Q131.316 717.912 129.371 718.792 L129.371 701.431 Z" fill="#000000" fill-rule="evenodd" fill-opacity="1" /><path clip-path="url(#clip850)" d="M53.7467 489.72 L61.3856 489.72 L61.3856 463.355 L53.0754 465.021 L53.0754 460.762 L61.3393 459.095 L66.0152 459.095 L66.0152 489.72 L73.654 489.72 L73.654 493.655 L53.7467 493.655 L53.7467 489.72 Z" fill="#000000" fill-rule="evenodd" fill-opacity="1" /><path clip-path="url(#clip850)" d="M83.0984 487.776 L87.9827 487.776 L87.9827 493.655 L83.0984 493.655 L83.0984 487.776 Z" fill="#000000" fill-rule="evenodd" fill-opacity="1" /><path clip-path="url(#clip850)" d="M108.168 462.174 Q104.557 462.174 102.728 465.739 Q100.922 469.281 100.922 476.41 Q100.922 483.517 102.728 487.081 Q104.557 490.623 108.168 490.623 Q111.802 490.623 113.608 487.081 Q115.436 483.517 115.436 476.41 Q115.436 469.281 113.608 465.739 Q111.802 462.174 108.168 462.174 M108.168 458.47 Q113.978 458.47 117.033 463.077 Q120.112 467.66 120.112 476.41 Q120.112 485.137 117.033 489.743 Q113.978 494.327 108.168 494.327 Q102.358 494.327 99.2789 489.743 Q96.2234 485.137 96.2234 476.41 Q96.2234 467.66 99.2789 463.077 Q102.358 458.47 108.168 458.47 Z" fill="#000000" fill-rule="evenodd" fill-opacity="1" /><path clip-path="url(#clip850)" d="M138.33 462.174 Q134.719 462.174 132.89 465.739 Q131.084 469.281 131.084 476.41 Q131.084 483.517 132.89 487.081 Q134.719 490.623 138.33 490.623 Q141.964 490.623 143.769 487.081 Q145.598 483.517 145.598 476.41 Q145.598 469.281 143.769 465.739 Q141.964 462.174 138.33 462.174 M138.33 458.47 Q144.14 458.47 147.195 463.077 Q150.274 467.66 150.274 476.41 Q150.274 485.137 147.195 489.743 Q144.14 494.327 138.33 494.327 Q132.519 494.327 129.441 489.743 Q126.385 485.137 126.385 476.41 Q126.385 467.66 129.441 463.077 Q132.519 458.47 138.33 458.47 Z" fill="#000000" fill-rule="evenodd" fill-opacity="1" /><path clip-path="url(#clip850)" d="M54.7421 247.385 L62.381 247.385 L62.381 221.02 L54.0708 222.686 L54.0708 218.427 L62.3347 216.76 L67.0106 216.76 L67.0106 247.385 L74.6494 247.385 L74.6494 251.32 L54.7421 251.32 L54.7421 247.385 Z" fill="#000000" fill-rule="evenodd" fill-opacity="1" /><path clip-path="url(#clip850)" d="M84.0938 245.441 L88.978 245.441 L88.978 251.32 L84.0938 251.32 L84.0938 245.441 Z" fill="#000000" fill-rule="evenodd" fill-opacity="1" /><path clip-path="url(#clip850)" d="M103.191 247.385 L119.51 247.385 L119.51 251.32 L97.566 251.32 L97.566 247.385 Q100.228 244.631 104.811 240.001 Q109.418 235.348 110.598 234.006 Q112.844 231.483 113.723 229.746 Q114.626 227.987 114.626 226.297 Q114.626 223.543 112.682 221.807 Q110.76 220.071 107.658 220.071 Q105.459 220.071 103.006 220.834 Q100.575 221.598 97.7974 223.149 L97.7974 218.427 Q100.621 217.293 103.075 216.714 Q105.529 216.135 107.566 216.135 Q112.936 216.135 116.131 218.821 Q119.325 221.506 119.325 225.996 Q119.325 228.126 118.515 230.047 Q117.728 231.946 115.621 234.538 Q115.043 235.209 111.941 238.427 Q108.839 241.621 103.191 247.385 Z" fill="#000000" fill-rule="evenodd" fill-opacity="1" /><path clip-path="url(#clip850)" d="M129.371 216.76 L147.728 216.76 L147.728 220.696 L133.654 220.696 L133.654 229.168 Q134.672 228.821 135.691 228.659 Q136.709 228.473 137.728 228.473 Q143.515 228.473 146.894 231.645 Q150.274 234.816 150.274 240.233 Q150.274 245.811 146.802 248.913 Q143.33 251.992 137.01 251.992 Q134.834 251.992 132.566 251.621 Q130.32 251.251 127.913 250.51 L127.913 245.811 Q129.996 246.945 132.219 247.501 Q134.441 248.057 136.918 248.057 Q140.922 248.057 143.26 245.95 Q145.598 243.844 145.598 240.233 Q145.598 236.621 143.26 234.515 Q140.922 232.408 136.918 232.408 Q135.043 232.408 133.168 232.825 Q131.316 233.242 129.371 234.121 L129.371 216.76 Z" fill="#000000" fill-rule="evenodd" fill-opacity="1" /><polyline clip-path="url(#clip852)" style="stroke:#009af9; stroke-linecap:butt; stroke-linejoin:round; stroke-width:12; stroke-opacity:1; fill:none" points="
  247.59,1445.72 355.161,1294.86 462.732,1144 570.303,993.136 677.874,842.276 785.445,691.416 893.016,540.556 1000.59,389.696 1108.16,238.836 1215.73,87.9763 
  1323.3,145.999 1430.87,182.708 1538.44,219.416 1646.01,256.125 1753.58,292.833 1861.16,329.542 1968.73,366.25 2076.3,402.959 2183.87,439.667 2291.44,476.375 
  
  "/>
<line clip-path="url(#clip852)" x1="247.59" y1="1445.72" x2="247.59" y2="1429.72" style="stroke:#009af9; stroke-width:3.2; stroke-opacity:1"/>
<line clip-path="url(#clip852)" x1="247.59" y1="1445.72" x2="231.59" y2="1445.72" style="stroke:#009af9; stroke-width:3.2; stroke-opacity:1"/>
<line clip-path="url(#clip852)" x1="247.59" y1="1445.72" x2="247.59" y2="1461.72" style="stroke:#009af9; stroke-width:3.2; stroke-opacity:1"/>
<line clip-path="url(#clip852)" x1="247.59" y1="1445.72" x2="263.59" y2="1445.72" style="stroke:#009af9; stroke-width:3.2; stroke-opacity:1"/>
<line clip-path="url(#clip852)" x1="355.161" y1="1294.86" x2="355.161" y2="1278.86" style="stroke:#009af9; stroke-width:3.2; stroke-opacity:1"/>
<line clip-path="url(#clip852)" x1="355.161" y1="1294.86" x2="339.161" y2="1294.86" style="stroke:#009af9; stroke-width:3.2; stroke-opacity:1"/>
<line clip-path="url(#clip852)" x1="355.161" y1="1294.86" x2="355.161" y2="1310.86" style="stroke:#009af9; stroke-width:3.2; stroke-opacity:1"/>
<line clip-path="url(#clip852)" x1="355.161" y1="1294.86" x2="371.161" y2="1294.86" style="stroke:#009af9; stroke-width:3.2; stroke-opacity:1"/>
<line clip-path="url(#clip852)" x1="462.732" y1="1144" x2="462.732" y2="1128" style="stroke:#009af9; stroke-width:3.2; stroke-opacity:1"/>
<line clip-path="url(#clip852)" x1="462.732" y1="1144" x2="446.732" y2="1144" style="stroke:#009af9; stroke-width:3.2; stroke-opacity:1"/>
<line clip-path="url(#clip852)" x1="462.732" y1="1144" x2="462.732" y2="1160" style="stroke:#009af9; stroke-width:3.2; stroke-opacity:1"/>
<line clip-path="url(#clip852)" x1="462.732" y1="1144" x2="478.732" y2="1144" style="stroke:#009af9; stroke-width:3.2; stroke-opacity:1"/>
<line clip-path="url(#clip852)" x1="570.303" y1="993.136" x2="570.303" y2="977.136" style="stroke:#009af9; stroke-width:3.2; stroke-opacity:1"/>
<line clip-path="url(#clip852)" x1="570.303" y1="993.136" x2="554.303" y2="993.136" style="stroke:#009af9; stroke-width:3.2; stroke-opacity:1"/>
<line clip-path="url(#clip852)" x1="570.303" y1="993.136" x2="570.303" y2="1009.14" style="stroke:#009af9; stroke-width:3.2; stroke-opacity:1"/>
<line clip-path="url(#clip852)" x1="570.303" y1="993.136" x2="586.303" y2="993.136" style="stroke:#009af9; stroke-width:3.2; stroke-opacity:1"/>
<line clip-path="url(#clip852)" x1="677.874" y1="842.276" x2="677.874" y2="826.276" style="stroke:#009af9; stroke-width:3.2; stroke-opacity:1"/>
<line clip-path="url(#clip852)" x1="677.874" y1="842.276" x2="661.874" y2="842.276" style="stroke:#009af9; stroke-width:3.2; stroke-opacity:1"/>
<line clip-path="url(#clip852)" x1="677.874" y1="842.276" x2="677.874" y2="858.276" style="stroke:#009af9; stroke-width:3.2; stroke-opacity:1"/>
<line clip-path="url(#clip852)" x1="677.874" y1="842.276" x2="693.874" y2="842.276" style="stroke:#009af9; stroke-width:3.2; stroke-opacity:1"/>
<line clip-path="url(#clip852)" x1="785.445" y1="691.416" x2="785.445" y2="675.416" style="stroke:#009af9; stroke-width:3.2; stroke-opacity:1"/>
<line clip-path="url(#clip852)" x1="785.445" y1="691.416" x2="769.445" y2="691.416" style="stroke:#009af9; stroke-width:3.2; stroke-opacity:1"/>
<line clip-path="url(#clip852)" x1="785.445" y1="691.416" x2="785.445" y2="707.416" style="stroke:#009af9; stroke-width:3.2; stroke-opacity:1"/>
<line clip-path="url(#clip852)" x1="785.445" y1="691.416" x2="801.445" y2="691.416" style="stroke:#009af9; stroke-width:3.2; stroke-opacity:1"/>
<line clip-path="url(#clip852)" x1="893.016" y1="540.556" x2="893.016" y2="524.556" style="stroke:#009af9; stroke-width:3.2; stroke-opacity:1"/>
<line clip-path="url(#clip852)" x1="893.016" y1="540.556" x2="877.016" y2="540.556" style="stroke:#009af9; stroke-width:3.2; stroke-opacity:1"/>
<line clip-path="url(#clip852)" x1="893.016" y1="540.556" x2="893.016" y2="556.556" style="stroke:#009af9; stroke-width:3.2; stroke-opacity:1"/>
<line clip-path="url(#clip852)" x1="893.016" y1="540.556" x2="909.016" y2="540.556" style="stroke:#009af9; stroke-width:3.2; stroke-opacity:1"/>
<line clip-path="url(#clip852)" x1="1000.59" y1="389.696" x2="1000.59" y2="373.696" style="stroke:#009af9; stroke-width:3.2; stroke-opacity:1"/>
<line clip-path="url(#clip852)" x1="1000.59" y1="389.696" x2="984.587" y2="389.696" style="stroke:#009af9; stroke-width:3.2; stroke-opacity:1"/>
<line clip-path="url(#clip852)" x1="1000.59" y1="389.696" x2="1000.59" y2="405.696" style="stroke:#009af9; stroke-width:3.2; stroke-opacity:1"/>
<line clip-path="url(#clip852)" x1="1000.59" y1="389.696" x2="1016.59" y2="389.696" style="stroke:#009af9; stroke-width:3.2; stroke-opacity:1"/>
<line clip-path="url(#clip852)" x1="1108.16" y1="238.836" x2="1108.16" y2="222.836" style="stroke:#009af9; stroke-width:3.2; stroke-opacity:1"/>
<line clip-path="url(#clip852)" x1="1108.16" y1="238.836" x2="1092.16" y2="238.836" style="stroke:#009af9; stroke-width:3.2; stroke-opacity:1"/>
<line clip-path="url(#clip852)" x1="1108.16" y1="238.836" x2="1108.16" y2="254.836" style="stroke:#009af9; stroke-width:3.2; stroke-opacity:1"/>
<line clip-path="url(#clip852)" x1="1108.16" y1="238.836" x2="1124.16" y2="238.836" style="stroke:#009af9; stroke-width:3.2; stroke-opacity:1"/>
<line clip-path="url(#clip852)" x1="1215.73" y1="87.9763" x2="1215.73" y2="71.9763" style="stroke:#009af9; stroke-width:3.2; stroke-opacity:1"/>
<line clip-path="url(#clip852)" x1="1215.73" y1="87.9763" x2="1199.73" y2="87.9763" style="stroke:#009af9; stroke-width:3.2; stroke-opacity:1"/>
<line clip-path="url(#clip852)" x1="1215.73" y1="87.9763" x2="1215.73" y2="103.976" style="stroke:#009af9; stroke-width:3.2; stroke-opacity:1"/>
<line clip-path="url(#clip852)" x1="1215.73" y1="87.9763" x2="1231.73" y2="87.9763" style="stroke:#009af9; stroke-width:3.2; stroke-opacity:1"/>
<line clip-path="url(#clip852)" x1="1323.3" y1="145.999" x2="1323.3" y2="129.999" style="stroke:#009af9; stroke-width:3.2; stroke-opacity:1"/>
<line clip-path="url(#clip852)" x1="1323.3" y1="145.999" x2="1307.3" y2="145.999" style="stroke:#009af9; stroke-width:3.2; stroke-opacity:1"/>
<line clip-path="url(#clip852)" x1="1323.3" y1="145.999" x2="1323.3" y2="161.999" style="stroke:#009af9; stroke-width:3.2; stroke-opacity:1"/>
<line clip-path="url(#clip852)" x1="1323.3" y1="145.999" x2="1339.3" y2="145.999" style="stroke:#009af9; stroke-width:3.2; stroke-opacity:1"/>
<line clip-path="url(#clip852)" x1="1430.87" y1="182.708" x2="1430.87" y2="166.708" style="stroke:#009af9; stroke-width:3.2; stroke-opacity:1"/>
<line clip-path="url(#clip852)" x1="1430.87" y1="182.708" x2="1414.87" y2="182.708" style="stroke:#009af9; stroke-width:3.2; stroke-opacity:1"/>
<line clip-path="url(#clip852)" x1="1430.87" y1="182.708" x2="1430.87" y2="198.708" style="stroke:#009af9; stroke-width:3.2; stroke-opacity:1"/>
<line clip-path="url(#clip852)" x1="1430.87" y1="182.708" x2="1446.87" y2="182.708" style="stroke:#009af9; stroke-width:3.2; stroke-opacity:1"/>
<line clip-path="url(#clip852)" x1="1538.44" y1="219.416" x2="1538.44" y2="203.416" style="stroke:#009af9; stroke-width:3.2; stroke-opacity:1"/>
<line clip-path="url(#clip852)" x1="1538.44" y1="219.416" x2="1522.44" y2="219.416" style="stroke:#009af9; stroke-width:3.2; stroke-opacity:1"/>
<line clip-path="url(#clip852)" x1="1538.44" y1="219.416" x2="1538.44" y2="235.416" style="stroke:#009af9; stroke-width:3.2; stroke-opacity:1"/>
<line clip-path="url(#clip852)" x1="1538.44" y1="219.416" x2="1554.44" y2="219.416" style="stroke:#009af9; stroke-width:3.2; stroke-opacity:1"/>
<line clip-path="url(#clip852)" x1="1646.01" y1="256.125" x2="1646.01" y2="240.125" style="stroke:#009af9; stroke-width:3.2; stroke-opacity:1"/>
<line clip-path="url(#clip852)" x1="1646.01" y1="256.125" x2="1630.01" y2="256.125" style="stroke:#009af9; stroke-width:3.2; stroke-opacity:1"/>
<line clip-path="url(#clip852)" x1="1646.01" y1="256.125" x2="1646.01" y2="272.125" style="stroke:#009af9; stroke-width:3.2; stroke-opacity:1"/>
<line clip-path="url(#clip852)" x1="1646.01" y1="256.125" x2="1662.01" y2="256.125" style="stroke:#009af9; stroke-width:3.2; stroke-opacity:1"/>
<line clip-path="url(#clip852)" x1="1753.58" y1="292.833" x2="1753.58" y2="276.833" style="stroke:#009af9; stroke-width:3.2; stroke-opacity:1"/>
<line clip-path="url(#clip852)" x1="1753.58" y1="292.833" x2="1737.58" y2="292.833" style="stroke:#009af9; stroke-width:3.2; stroke-opacity:1"/>
<line clip-path="url(#clip852)" x1="1753.58" y1="292.833" x2="1753.58" y2="308.833" style="stroke:#009af9; stroke-width:3.2; stroke-opacity:1"/>
<line clip-path="url(#clip852)" x1="1753.58" y1="292.833" x2="1769.58" y2="292.833" style="stroke:#009af9; stroke-width:3.2; stroke-opacity:1"/>
<line clip-path="url(#clip852)" x1="1861.16" y1="329.542" x2="1861.16" y2="313.542" style="stroke:#009af9; stroke-width:3.2; stroke-opacity:1"/>
<line clip-path="url(#clip852)" x1="1861.16" y1="329.542" x2="1845.16" y2="329.542" style="stroke:#009af9; stroke-width:3.2; stroke-opacity:1"/>
<line clip-path="url(#clip852)" x1="1861.16" y1="329.542" x2="1861.16" y2="345.542" style="stroke:#009af9; stroke-width:3.2; stroke-opacity:1"/>
<line clip-path="url(#clip852)" x1="1861.16" y1="329.542" x2="1877.16" y2="329.542" style="stroke:#009af9; stroke-width:3.2; stroke-opacity:1"/>
<line clip-path="url(#clip852)" x1="1968.73" y1="366.25" x2="1968.73" y2="350.25" style="stroke:#009af9; stroke-width:3.2; stroke-opacity:1"/>
<line clip-path="url(#clip852)" x1="1968.73" y1="366.25" x2="1952.73" y2="366.25" style="stroke:#009af9; stroke-width:3.2; stroke-opacity:1"/>
<line clip-path="url(#clip852)" x1="1968.73" y1="366.25" x2="1968.73" y2="382.25" style="stroke:#009af9; stroke-width:3.2; stroke-opacity:1"/>
<line clip-path="url(#clip852)" x1="1968.73" y1="366.25" x2="1984.73" y2="366.25" style="stroke:#009af9; stroke-width:3.2; stroke-opacity:1"/>
<line clip-path="url(#clip852)" x1="2076.3" y1="402.959" x2="2076.3" y2="386.959" style="stroke:#009af9; stroke-width:3.2; stroke-opacity:1"/>
<line clip-path="url(#clip852)" x1="2076.3" y1="402.959" x2="2060.3" y2="402.959" style="stroke:#009af9; stroke-width:3.2; stroke-opacity:1"/>
<line clip-path="url(#clip852)" x1="2076.3" y1="402.959" x2="2076.3" y2="418.959" style="stroke:#009af9; stroke-width:3.2; stroke-opacity:1"/>
<line clip-path="url(#clip852)" x1="2076.3" y1="402.959" x2="2092.3" y2="402.959" style="stroke:#009af9; stroke-width:3.2; stroke-opacity:1"/>
<line clip-path="url(#clip852)" x1="2183.87" y1="439.667" x2="2183.87" y2="423.667" style="stroke:#009af9; stroke-width:3.2; stroke-opacity:1"/>
<line clip-path="url(#clip852)" x1="2183.87" y1="439.667" x2="2167.87" y2="439.667" style="stroke:#009af9; stroke-width:3.2; stroke-opacity:1"/>
<line clip-path="url(#clip852)" x1="2183.87" y1="439.667" x2="2183.87" y2="455.667" style="stroke:#009af9; stroke-width:3.2; stroke-opacity:1"/>
<line clip-path="url(#clip852)" x1="2183.87" y1="439.667" x2="2199.87" y2="439.667" style="stroke:#009af9; stroke-width:3.2; stroke-opacity:1"/>
<line clip-path="url(#clip852)" x1="2291.44" y1="476.375" x2="2291.44" y2="460.375" style="stroke:#009af9; stroke-width:3.2; stroke-opacity:1"/>
<line clip-path="url(#clip852)" x1="2291.44" y1="476.375" x2="2275.44" y2="476.375" style="stroke:#009af9; stroke-width:3.2; stroke-opacity:1"/>
<line clip-path="url(#clip852)" x1="2291.44" y1="476.375" x2="2291.44" y2="492.375" style="stroke:#009af9; stroke-width:3.2; stroke-opacity:1"/>
<line clip-path="url(#clip852)" x1="2291.44" y1="476.375" x2="2307.44" y2="476.375" style="stroke:#009af9; stroke-width:3.2; stroke-opacity:1"/>
<path clip-path="url(#clip850)" d="
M1987.39 1438.47 L2280.54 1438.47 L2280.54 1334.79 L1987.39 1334.79  Z
  " fill="#ffffff" fill-rule="evenodd" fill-opacity="1"/>
<polyline clip-path="url(#clip850)" style="stroke:#000000; stroke-linecap:butt; stroke-linejoin:round; stroke-width:4; stroke-opacity:1; fill:none" points="
  1987.39,1438.47 2280.54,1438.47 2280.54,1334.79 1987.39,1334.79 1987.39,1438.47 
  "/>
<polyline clip-path="url(#clip850)" style="stroke:#009af9; stroke-linecap:butt; stroke-linejoin:round; stroke-width:4; stroke-opacity:1; fill:none" points="
  2011.46,1386.63 2155.89,1386.63 
  "/>
<line clip-path="url(#clip850)" x1="2083.68" y1="1386.63" x2="2083.68" y2="1361.03" style="stroke:#009af9; stroke-width:5.12; stroke-opacity:1"/>
<line clip-path="url(#clip850)" x1="2083.68" y1="1386.63" x2="2058.08" y2="1386.63" style="stroke:#009af9; stroke-width:5.12; stroke-opacity:1"/>
<line clip-path="url(#clip850)" x1="2083.68" y1="1386.63" x2="2083.68" y2="1412.23" style="stroke:#009af9; stroke-width:5.12; stroke-opacity:1"/>
<line clip-path="url(#clip850)" x1="2083.68" y1="1386.63" x2="2109.28" y2="1386.63" style="stroke:#009af9; stroke-width:5.12; stroke-opacity:1"/>
<path clip-path="url(#clip850)" d="M2193.81 1406.32 Q2192 1410.95 2190.29 1412.36 Q2188.58 1413.78 2185.71 1413.78 L2182.3 1413.78 L2182.3 1410.21 L2184.8 1410.21 Q2186.56 1410.21 2187.53 1409.38 Q2188.51 1408.54 2189.69 1405.44 L2190.45 1403.5 L2179.97 1377.99 L2184.48 1377.99 L2192.58 1398.27 L2200.68 1377.99 L2205.2 1377.99 L2193.81 1406.32 Z" fill="#000000" fill-rule="evenodd" fill-opacity="1" /><path clip-path="url(#clip850)" d="M2212.49 1399.98 L2220.13 1399.98 L2220.13 1373.61 L2211.82 1375.28 L2211.82 1371.02 L2220.08 1369.35 L2224.76 1369.35 L2224.76 1399.98 L2232.4 1399.98 L2232.4 1403.91 L2212.49 1403.91 L2212.49 1399.98 Z" fill="#000000" fill-rule="evenodd" fill-opacity="1" /></svg>
