<?xml version="1.0" encoding="utf-8"?>
<svg xmlns="http://www.w3.org/2000/svg" xmlns:xlink="http://www.w3.org/1999/xlink" width="600" height="400" viewBox="0 0 2400 1600">
<defs>
  <clipPath id="clip280">
    <rect x="0" y="0" width="2400" height="1600"/>
  </clipPath>
</defs>
<path clip-path="url(#clip280)" d="
M0 1600 L2400 1600 L2400 0 L0 0  Z
  " fill="#ffffff" fill-rule="evenodd" fill-opacity="1"/>
<defs>
  <clipPath id="clip281">
    <rect x="480" y="0" width="1681" height="1600"/>
  </clipPath>
</defs>
<path clip-path="url(#clip280)" d="
M186.274 1486.45 L2352.76 1486.45 L2352.76 47.2441 L186.274 47.2441  Z
  " fill="#ffffff" fill-rule="evenodd" fill-opacity="1"/>
<defs>
  <clipPath id="clip282">
    <rect x="186" y="47" width="2167" height="1440"/>
  </clipPath>
</defs>
<polyline clip-path="url(#clip282)" style="stroke:#000000; stroke-linecap:butt; stroke-linejoin:round; stroke-width:2; stroke-opacity:0.1; fill:none" points="
  247.59,1486.45 247.59,47.2441 
  "/>
<polyline clip-path="url(#clip282)" style="stroke:#000000; stroke-linecap:butt; stroke-linejoin:round; stroke-width:2; stroke-opacity:0.1; fill:none" points="
  768.98,1486.45 768.98,47.2441 
  "/>
<polyline clip-path="url(#clip282)" style="stroke:#000000; stroke-linecap:butt; stroke-linejoin:round; stroke-width:2; stroke-opacity:0.1; fill:none" points="
  1290.37,1486.45 1290.37,47.2441 
  "/>
<polyline clip-path="url(#clip282)" style="stroke:#000000; stroke-linecap:butt; stroke-linejoin:round; stroke-width:2; stroke-opacity:0.1; fill:none" points="
  1811.76,1486.45 1811.76,47.2441 
  "/>
<polyline clip-path="url(#clip282)" style="stroke:#000000; stroke-linecap:butt; stroke-linejoin:round; stroke-width:2; stroke-opacity:0.1; fill:none" points="
  2333.15,1486.45 2333.15,47.2441 
  "/>
<polyline clip-path="url(#clip280)" style="stroke:#000000; stroke-linecap:butt; stroke-linejoin:round; stroke-width:4; stroke-opacity:1; fill:none" points="
  186.274,1486.45 2352.76,1486.45 
  "/>
<polyline clip-path="url(#clip280)" style="stroke:#000000; stroke-linecap:butt; stroke-linejoin:round; stroke-width:4; stroke-opacity:1; fill:none" points="
  247.59,1486.45 247.59,1467.55 
  "/>
<polyline clip-path="url(#clip280)" style="stroke:#000000; stroke-linecap:butt; stroke-linejoin:round; stroke-width:4; stroke-opacity:1; fill:none" points="
  768.98,1486.45 768.98,1467.55 
  "/>
<polyline clip-path="url(#clip280)" style="stroke:#000000; stroke-linecap:butt; stroke-linejoin:round; stroke-width:4; stroke-opacity:1; fill:none" points="
  1290.37,1486.45 1290.37,1467.55 
  "/>
<polyline clip-path="url(#clip280)" style="stroke:#000000; stroke-linecap:butt; stroke-linejoin:round; stroke-width:4; stroke-opacity:1; fill:none" points="
  1811.76,1486.45 1811.76,1467.55 
  "/>
<polyline clip-path="url(#clip280)" style="stroke:#000000; stroke-linecap:butt; stroke-linejoin:round; stroke-width:4; stroke-opacity:1; fill:none" points="
  2333.15,1486.45 2333.15,1467.55 
  "/>
<path clip-path="url(#clip280)" d="M194.118 1532.02 L223.793 1532.02 L223.793 1535.95 L194.118 1535.95 L194.118 1532.02 Z" fill="#000000" fill-rule="evenodd" fill-opacity="1" /><path clip-path="url(#clip280)" d="M234.696 1544.91 L242.335 1544.91 L242.335 1518.55 L234.025 1520.21 L234.025 1515.95 L242.289 1514.29 L246.965 1514.29 L246.965 1544.91 L254.603 1544.91 L254.603 1548.85 L234.696 1548.85 L234.696 1544.91 Z" fill="#000000" fill-rule="evenodd" fill-opacity="1" /><path clip-path="url(#clip280)" d="M264.048 1542.97 L268.932 1542.97 L268.932 1548.85 L264.048 1548.85 L264.048 1542.97 Z" fill="#000000" fill-rule="evenodd" fill-opacity="1" /><path clip-path="url(#clip280)" d="M289.117 1517.37 Q285.506 1517.37 283.677 1520.93 Q281.872 1524.47 281.872 1531.6 Q281.872 1538.71 283.677 1542.27 Q285.506 1545.82 289.117 1545.82 Q292.751 1545.82 294.557 1542.27 Q296.386 1538.71 296.386 1531.6 Q296.386 1524.47 294.557 1520.93 Q292.751 1517.37 289.117 1517.37 M289.117 1513.66 Q294.927 1513.66 297.983 1518.27 Q301.061 1522.85 301.061 1531.6 Q301.061 1540.33 297.983 1544.94 Q294.927 1549.52 289.117 1549.52 Q283.307 1549.52 280.228 1544.94 Q277.173 1540.33 277.173 1531.6 Q277.173 1522.85 280.228 1518.27 Q283.307 1513.66 289.117 1513.66 Z" fill="#000000" fill-rule="evenodd" fill-opacity="1" /><path clip-path="url(#clip280)" d="M716.006 1532.02 L745.682 1532.02 L745.682 1535.95 L716.006 1535.95 L716.006 1532.02 Z" fill="#000000" fill-rule="evenodd" fill-opacity="1" /><path clip-path="url(#clip280)" d="M765.774 1517.37 Q762.163 1517.37 760.334 1520.93 Q758.529 1524.47 758.529 1531.6 Q758.529 1538.71 760.334 1542.27 Q762.163 1545.82 765.774 1545.82 Q769.408 1545.82 771.214 1542.27 Q773.043 1538.71 773.043 1531.6 Q773.043 1524.47 771.214 1520.93 Q769.408 1517.37 765.774 1517.37 M765.774 1513.66 Q771.584 1513.66 774.64 1518.27 Q777.718 1522.85 777.718 1531.6 Q777.718 1540.33 774.64 1544.94 Q771.584 1549.52 765.774 1549.52 Q759.964 1549.52 756.885 1544.94 Q753.83 1540.33 753.83 1531.6 Q753.83 1522.85 756.885 1518.27 Q759.964 1513.66 765.774 1513.66 Z" fill="#000000" fill-rule="evenodd" fill-opacity="1" /><path clip-path="url(#clip280)" d="M785.936 1542.97 L790.82 1542.97 L790.82 1548.85 L785.936 1548.85 L785.936 1542.97 Z" fill="#000000" fill-rule="evenodd" fill-opacity="1" /><path clip-path="url(#clip280)" d="M801.052 1514.29 L819.408 1514.29 L819.408 1518.22 L805.334 1518.22 L805.334 1526.7 Q806.353 1526.35 807.371 1526.19 Q808.39 1526 809.408 1526 Q815.195 1526 818.575 1529.17 Q821.954 1532.34 821.954 1537.76 Q821.954 1543.34 818.482 1546.44 Q815.01 1549.52 808.69 1549.52 Q806.515 1549.52 804.246 1549.15 Q802.001 1548.78 799.593 1548.04 L799.593 1543.34 Q801.677 1544.47 803.899 1545.03 Q806.121 1545.58 808.598 1545.58 Q812.603 1545.58 814.94 1543.48 Q817.278 1541.37 817.278 1537.76 Q817.278 1534.15 814.94 1532.04 Q812.603 1529.94 808.598 1529.94 Q806.723 1529.94 804.848 1530.35 Q802.996 1530.77 801.052 1531.65 L801.052 1514.29 Z" fill="#000000" fill-rule="evenodd" fill-opacity="1" /><path clip-path="url(#clip280)" d="M1267.75 1517.37 Q1264.14 1517.37 1262.32 1520.93 Q1260.51 1524.47 1260.51 1531.6 Q1260.51 1538.71 1262.32 1542.27 Q1264.14 1545.82 1267.75 1545.82 Q1271.39 1545.82 1273.19 1542.27 Q1275.02 1538.71 1275.02 1531.6 Q1275.02 1524.47 1273.19 1520.93 Q1271.39 1517.37 1267.75 1517.37 M1267.75 1513.66 Q1273.57 1513.66 1276.62 1518.27 Q1279.7 1522.85 1279.7 1531.6 Q1279.7 1540.33 1276.62 1544.94 Q1273.57 1549.52 1267.75 1549.52 Q1261.94 1549.52 1258.87 1544.94 Q1255.81 1540.33 1255.81 1531.6 Q1255.81 1522.85 1258.87 1518.27 Q1261.94 1513.66 1267.75 1513.66 Z" fill="#000000" fill-rule="evenodd" fill-opacity="1" /><path clip-path="url(#clip280)" d="M1287.92 1542.97 L1292.8 1542.97 L1292.8 1548.85 L1287.92 1548.85 L1287.92 1542.97 Z" fill="#000000" fill-rule="evenodd" fill-opacity="1" /><path clip-path="url(#clip280)" d="M1312.99 1517.37 Q1309.38 1517.37 1307.55 1520.93 Q1305.74 1524.47 1305.74 1531.6 Q1305.74 1538.71 1307.55 1542.27 Q1309.38 1545.82 1312.99 1545.82 Q1316.62 1545.82 1318.43 1542.27 Q1320.25 1538.71 1320.25 1531.6 Q1320.25 1524.47 1318.43 1520.93 Q1316.62 1517.37 1312.99 1517.37 M1312.99 1513.66 Q1318.8 1513.66 1321.85 1518.27 Q1324.93 1522.85 1324.93 1531.6 Q1324.93 1540.33 1321.85 1544.94 Q1318.8 1549.52 1312.99 1549.52 Q1307.18 1549.52 1304.1 1544.94 Q1301.04 1540.33 1301.04 1531.6 Q1301.04 1522.85 1304.1 1518.27 Q1307.18 1513.66 1312.99 1513.66 Z" fill="#000000" fill-rule="evenodd" fill-opacity="1" /><path clip-path="url(#clip280)" d="M1789.64 1517.37 Q1786.03 1517.37 1784.2 1520.93 Q1782.4 1524.47 1782.4 1531.6 Q1782.4 1538.71 1784.2 1542.27 Q1786.03 1545.82 1789.64 1545.82 Q1793.28 1545.82 1795.08 1542.27 Q1796.91 1538.71 1796.91 1531.6 Q1796.91 1524.47 1795.08 1520.93 Q1793.28 1517.37 1789.64 1517.37 M1789.64 1513.66 Q1795.45 1513.66 1798.51 1518.27 Q1801.59 1522.85 1801.59 1531.6 Q1801.59 1540.33 1798.51 1544.94 Q1795.45 1549.52 1789.64 1549.52 Q1783.83 1549.52 1780.75 1544.94 Q1777.7 1540.33 1777.7 1531.6 Q1777.7 1522.85 1780.75 1518.27 Q1783.83 1513.66 1789.64 1513.66 Z" fill="#000000" fill-rule="evenodd" fill-opacity="1" /><path clip-path="url(#clip280)" d="M1809.81 1542.97 L1814.69 1542.97 L1814.69 1548.85 L1809.81 1548.85 L1809.81 1542.97 Z" fill="#000000" fill-rule="evenodd" fill-opacity="1" /><path clip-path="url(#clip280)" d="M1824.92 1514.29 L1843.28 1514.29 L1843.28 1518.22 L1829.2 1518.22 L1829.2 1526.7 Q1830.22 1526.35 1831.24 1526.19 Q1832.26 1526 1833.28 1526 Q1839.06 1526 1842.44 1529.17 Q1845.82 1532.34 1845.82 1537.76 Q1845.82 1543.34 1842.35 1546.44 Q1838.88 1549.52 1832.56 1549.52 Q1830.38 1549.52 1828.12 1549.15 Q1825.87 1548.78 1823.46 1548.04 L1823.46 1543.34 Q1825.55 1544.47 1827.77 1545.03 Q1829.99 1545.58 1832.47 1545.58 Q1836.47 1545.58 1838.81 1543.48 Q1841.15 1541.37 1841.15 1537.76 Q1841.15 1534.15 1838.81 1532.04 Q1836.47 1529.94 1832.47 1529.94 Q1830.59 1529.94 1828.72 1530.35 Q1826.87 1530.77 1824.92 1531.65 L1824.92 1514.29 Z" fill="#000000" fill-rule="evenodd" fill-opacity="1" /><path clip-path="url(#clip280)" d="M2300.3 1544.91 L2307.94 1544.91 L2307.94 1518.55 L2299.63 1520.21 L2299.63 1515.95 L2307.9 1514.29 L2312.57 1514.29 L2312.57 1544.91 L2320.21 1544.91 L2320.21 1548.85 L2300.3 1548.85 L2300.3 1544.91 Z" fill="#000000" fill-rule="evenodd" fill-opacity="1" /><path clip-path="url(#clip280)" d="M2329.66 1542.97 L2334.54 1542.97 L2334.54 1548.85 L2329.66 1548.85 L2329.66 1542.97 Z" fill="#000000" fill-rule="evenodd" fill-opacity="1" /><path clip-path="url(#clip280)" d="M2354.73 1517.37 Q2351.11 1517.37 2349.29 1520.93 Q2347.48 1524.47 2347.48 1531.6 Q2347.48 1538.71 2349.29 1542.27 Q2351.11 1545.82 2354.73 1545.82 Q2358.36 1545.82 2360.17 1542.27 Q2361.99 1538.71 2361.99 1531.6 Q2361.99 1524.47 2360.17 1520.93 Q2358.36 1517.37 2354.73 1517.37 M2354.73 1513.66 Q2360.54 1513.66 2363.59 1518.27 Q2366.67 1522.85 2366.67 1531.6 Q2366.67 1540.33 2363.59 1544.94 Q2360.54 1549.52 2354.73 1549.52 Q2348.92 1549.52 2345.84 1544.94 Q2342.78 1540.33 2342.78 1531.6 Q2342.78 1522.85 2345.84 1518.27 Q2348.92 1513.66 2354.73 1513.66 Z" fill="#000000" fill-rule="evenodd" fill-opacity="1" /><polyline clip-path="url(#clip282)" style="stroke:#000000; stroke-linecap:butt; stroke-linejoin:round; stroke-width:2; stroke-opacity:0.1; fill:none" points="
  186.274,1445.88 2352.76,1445.88 
  "/>
<polyline clip-path="url(#clip282)" style="stroke:#000000; stroke-linecap:butt; stroke-linejoin:round; stroke-width:2; stroke-opacity:0.1; fill:none" points="
  186.274,1106.41 2352.76,1106.41 
  "/>
<polyline clip-path="url(#clip282)" style="stroke:#000000; stroke-linecap:butt; stroke-linejoin:round; stroke-width:2; stroke-opacity:0.1; fill:none" points="
  186.274,766.93 2352.76,766.93 
  "/>
<polyline clip-path="url(#clip282)" style="stroke:#000000; stroke-linecap:butt; stroke-linejoin:round; stroke-width:2; stroke-opacity:0.1; fill:none" points="
  186.274,427.453 2352.76,427.453 
  "/>
<polyline clip-path="url(#clip282)" style="stroke:#000000; stroke-linecap:butt; stroke-linejoin:round; stroke-width:2; stroke-opacity:0.1; fill:none" points="
  186.274,87.9763 2352.76,87.9763 
  "/>
<polyline clip-path="url(#clip280)" style="stroke:#000000; stroke-linecap:butt; stroke-linejoin:round; stroke-width:4; stroke-opacity:1; fill:none" points="
  186.274,1486.45 186.274,47.2441 
  "/>
<polyline clip-path="url(#clip280)" style="stroke:#000000; stroke-linecap:butt; stroke-linejoin:round; stroke-width:4; stroke-opacity:1; fill:none" points="
  186.274,1445.88 205.172,1445.88 
  "/>
<polyline clip-path="url(#clip280)" style="stroke:#000000; stroke-linecap:butt; stroke-linejoin:round; stroke-width:4; stroke-opacity:1; fill:none" points="
  186.274,1106.41 205.172,1106.41 
  "/>
<polyline clip-path="url(#clip280)" style="stroke:#000000; stroke-linecap:butt; stroke-linejoin:round; stroke-width:4; stroke-opacity:1; fill:none" points="
  186.274,766.93 205.172,766.93 
  "/>
<polyline clip-path="url(#clip280)" style="stroke:#000000; stroke-linecap:butt; stroke-linejoin:round; stroke-width:4; stroke-opacity:1; fill:none" points="
  186.274,427.453 205.172,427.453 
  "/>
<polyline clip-path="url(#clip280)" style="stroke:#000000; stroke-linecap:butt; stroke-linejoin:round; stroke-width:4; stroke-opacity:1; fill:none" points="
  186.274,87.9763 205.172,87.9763 
  "/>
<path clip-path="url(#clip280)" d="M62.9365 1431.68 Q59.3254 1431.68 57.4967 1435.25 Q55.6912 1438.79 55.6912 1445.92 Q55.6912 1453.02 57.4967 1456.59 Q59.3254 1460.13 62.9365 1460.13 Q66.5707 1460.13 68.3763 1456.59 Q70.205 1453.02 70.205 1445.92 Q70.205 1438.79 68.3763 1435.25 Q66.5707 1431.68 62.9365 1431.68 M62.9365 1427.98 Q68.7467 1427.98 71.8022 1432.58 Q74.8809 1437.17 74.8809 1445.92 Q74.8809 1454.64 71.8022 1459.25 Q68.7467 1463.83 62.9365 1463.83 Q57.1264 1463.83 54.0477 1459.25 Q50.9921 1454.64 50.9921 1445.92 Q50.9921 1437.17 54.0477 1432.58 Q57.1264 1427.98 62.9365 1427.98 Z" fill="#000000" fill-rule="evenodd" fill-opacity="1" /><path clip-path="url(#clip280)" d="M83.0984 1457.28 L87.9827 1457.28 L87.9827 1463.16 L83.0984 1463.16 L83.0984 1457.28 Z" fill="#000000" fill-rule="evenodd" fill-opacity="1" /><path clip-path="url(#clip280)" d="M108.168 1431.68 Q104.557 1431.68 102.728 1435.25 Q100.922 1438.79 100.922 1445.92 Q100.922 1453.02 102.728 1456.59 Q104.557 1460.13 108.168 1460.13 Q111.802 1460.13 113.608 1456.59 Q115.436 1453.02 115.436 1445.92 Q115.436 1438.79 113.608 1435.25 Q111.802 1431.68 108.168 1431.68 M108.168 1427.98 Q113.978 1427.98 117.033 1432.58 Q120.112 1437.17 120.112 1445.92 Q120.112 1454.64 117.033 1459.25 Q113.978 1463.83 108.168 1463.83 Q102.358 1463.83 99.2789 1459.25 Q96.2234 1454.64 96.2234 1445.92 Q96.2234 1437.17 99.2789 1432.58 Q102.358 1427.98 108.168 1427.98 Z" fill="#000000" fill-rule="evenodd" fill-opacity="1" /><path clip-path="url(#clip280)" d="M138.33 1431.68 Q134.719 1431.68 132.89 1435.25 Q131.084 1438.79 131.084 1445.92 Q131.084 1453.02 132.89 1456.59 Q134.719 1460.13 138.33 1460.13 Q141.964 1460.13 143.769 1456.59 Q145.598 1453.02 145.598 1445.92 Q145.598 1438.79 143.769 1435.25 Q141.964 1431.68 138.33 1431.68 M138.33 1427.98 Q144.14 1427.98 147.195 1432.58 Q150.274 1437.17 150.274 1445.92 Q150.274 1454.64 147.195 1459.25 Q144.14 1463.83 138.33 1463.83 Q132.519 1463.83 129.441 1459.25 Q126.385 1454.64 126.385 1445.92 Q126.385 1437.17 129.441 1432.58 Q132.519 1427.98 138.33 1427.98 Z" fill="#000000" fill-rule="evenodd" fill-opacity="1" /><path clip-path="url(#clip280)" d="M63.9319 1092.21 Q60.3208 1092.21 58.4921 1095.77 Q56.6865 1099.31 56.6865 1106.44 Q56.6865 1113.55 58.4921 1117.11 Q60.3208 1120.65 63.9319 1120.65 Q67.5661 1120.65 69.3717 1117.11 Q71.2004 1113.55 71.2004 1106.44 Q71.2004 1099.31 69.3717 1095.77 Q67.5661 1092.21 63.9319 1092.21 M63.9319 1088.5 Q69.742 1088.5 72.7976 1093.11 Q75.8763 1097.69 75.8763 1106.44 Q75.8763 1115.17 72.7976 1119.77 Q69.742 1124.36 63.9319 1124.36 Q58.1217 1124.36 55.043 1119.77 Q51.9875 1115.17 51.9875 1106.44 Q51.9875 1097.69 55.043 1093.11 Q58.1217 1088.5 63.9319 1088.5 Z" fill="#000000" fill-rule="evenodd" fill-opacity="1" /><path clip-path="url(#clip280)" d="M84.0938 1117.81 L88.978 1117.81 L88.978 1123.69 L84.0938 1123.69 L84.0938 1117.81 Z" fill="#000000" fill-rule="evenodd" fill-opacity="1" /><path clip-path="url(#clip280)" d="M103.191 1119.75 L119.51 1119.75 L119.51 1123.69 L97.566 1123.69 L97.566 1119.75 Q100.228 1117 104.811 1112.37 Q109.418 1107.71 110.598 1106.37 Q112.844 1103.85 113.723 1102.11 Q114.626 1100.35 114.626 1098.66 Q114.626 1095.91 112.682 1094.17 Q110.76 1092.44 107.658 1092.44 Q105.459 1092.44 103.006 1093.2 Q100.575 1093.96 97.7974 1095.52 L97.7974 1090.79 Q100.621 1089.66 103.075 1089.08 Q105.529 1088.5 107.566 1088.5 Q112.936 1088.5 116.131 1091.19 Q119.325 1093.87 119.325 1098.36 Q119.325 1100.49 118.515 1102.41 Q117.728 1104.31 115.621 1106.9 Q115.043 1107.58 111.941 1110.79 Q108.839 1113.99 103.191 1119.75 Z" fill="#000000" fill-rule="evenodd" fill-opacity="1" /><path clip-path="url(#clip280)" d="M129.371 1089.13 L147.728 1089.13 L147.728 1093.06 L133.654 1093.06 L133.654 1101.53 Q134.672 1101.19 135.691 1101.02 Q136.709 1100.84 137.728 1100.84 Q143.515 1100.84 146.894 1104.01 Q150.274 1107.18 150.274 1112.6 Q150.274 1118.18 146.802 1121.28 Q143.33 1124.36 137.01 1124.36 Q134.834 1124.36 132.566 1123.99 Q130.32 1123.62 127.913 1122.88 L127.913 1118.18 Q129.996 1119.31 132.219 1119.87 Q134.441 1120.42 136.918 1120.42 Q140.922 1120.42 143.26 1118.32 Q145.598 1116.21 145.598 1112.6 Q145.598 1108.99 143.26 1106.88 Q140.922 1104.77 136.918 1104.77 Q135.043 1104.77 133.168 1105.19 Q131.316 1105.61 129.371 1106.49 L129.371 1089.13 Z" fill="#000000" fill-rule="evenodd" fill-opacity="1" /><path clip-path="url(#clip280)" d="M62.9365 752.728 Q59.3254 752.728 57.4967 756.293 Q55.6912 759.835 55.6912 766.964 Q55.6912 774.071 57.4967 777.636 Q59.3254 781.177 62.9365 781.177 Q66.5707 781.177 68.3763 777.636 Q70.205 774.071 70.205 766.964 Q70.205 759.835 68.3763 756.293 Q66.5707 752.728 62.9365 752.728 M62.9365 749.025 Q68.7467 749.025 71.8022 753.631 Q74.8809 758.215 74.8809 766.964 Q74.8809 775.691 71.8022 780.298 Q68.7467 784.881 62.9365 784.881 Q57.1264 784.881 54.0477 780.298 Q50.9921 775.691 50.9921 766.964 Q50.9921 758.215 54.0477 753.631 Q57.1264 749.025 62.9365 749.025 Z" fill="#000000" fill-rule="evenodd" fill-opacity="1" /><path clip-path="url(#clip280)" d="M83.0984 778.33 L87.9827 778.33 L87.9827 784.21 L83.0984 784.21 L83.0984 778.33 Z" fill="#000000" fill-rule="evenodd" fill-opacity="1" /><path clip-path="url(#clip280)" d="M98.2141 749.65 L116.57 749.65 L116.57 753.585 L102.496 753.585 L102.496 762.057 Q103.515 761.71 104.534 761.548 Q105.552 761.363 106.571 761.363 Q112.358 761.363 115.737 764.534 Q119.117 767.705 119.117 773.122 Q119.117 778.701 115.645 781.802 Q112.172 784.881 105.853 784.881 Q103.677 784.881 101.409 784.511 Q99.1632 784.14 96.7558 783.4 L96.7558 778.701 Q98.8391 779.835 101.061 780.39 Q103.284 780.946 105.76 780.946 Q109.765 780.946 112.103 778.839 Q114.441 776.733 114.441 773.122 Q114.441 769.511 112.103 767.404 Q109.765 765.298 105.76 765.298 Q103.885 765.298 102.01 765.715 Q100.159 766.131 98.2141 767.011 L98.2141 749.65 Z" fill="#000000" fill-rule="evenodd" fill-opacity="1" /><path clip-path="url(#clip280)" d="M138.33 752.728 Q134.719 752.728 132.89 756.293 Q131.084 759.835 131.084 766.964 Q131.084 774.071 132.89 777.636 Q134.719 781.177 138.33 781.177 Q141.964 781.177 143.769 777.636 Q145.598 774.071 145.598 766.964 Q145.598 759.835 143.769 756.293 Q141.964 752.728 138.33 752.728 M138.33 749.025 Q144.14 749.025 147.195 753.631 Q150.274 758.215 150.274 766.964 Q150.274 775.691 147.195 780.298 Q144.14 784.881 138.33 784.881 Q132.519 784.881 129.441 780.298 Q126.385 775.691 126.385 766.964 Q126.385 758.215 129.441 753.631 Q132.519 749.025 138.33 749.025 Z" fill="#000000" fill-rule="evenodd" fill-opacity="1" /><path clip-path="url(#clip280)" d="M63.9319 413.252 Q60.3208 413.252 58.4921 416.817 Q56.6865 420.358 56.6865 427.488 Q56.6865 434.594 58.4921 438.159 Q60.3208 441.701 63.9319 441.701 Q67.5661 441.701 69.3717 438.159 Q71.2004 434.594 71.2004 427.488 Q71.2004 420.358 69.3717 416.817 Q67.5661 413.252 63.9319 413.252 M63.9319 409.548 Q69.742 409.548 72.7976 414.154 Q75.8763 418.738 75.8763 427.488 Q75.8763 436.215 72.7976 440.821 Q69.742 445.404 63.9319 445.404 Q58.1217 445.404 55.043 440.821 Q51.9875 436.215 51.9875 427.488 Q51.9875 418.738 55.043 414.154 Q58.1217 409.548 63.9319 409.548 Z" fill="#000000" fill-rule="evenodd" fill-opacity="1" /><path clip-path="url(#clip280)" d="M84.0938 438.853 L88.978 438.853 L88.978 444.733 L84.0938 444.733 L84.0938 438.853 Z" fill="#000000" fill-rule="evenodd" fill-opacity="1" /><path clip-path="url(#clip280)" d="M97.9826 410.173 L120.205 410.173 L120.205 412.164 L107.658 444.733 L102.774 444.733 L114.58 414.108 L97.9826 414.108 L97.9826 410.173 Z" fill="#000000" fill-rule="evenodd" fill-opacity="1" /><path clip-path="url(#clip280)" d="M129.371 410.173 L147.728 410.173 L147.728 414.108 L133.654 414.108 L133.654 422.58 Q134.672 422.233 135.691 422.071 Q136.709 421.886 137.728 421.886 Q143.515 421.886 146.894 425.057 Q150.274 428.228 150.274 433.645 Q150.274 439.224 146.802 442.326 Q143.33 445.404 137.01 445.404 Q134.834 445.404 132.566 445.034 Q130.32 444.664 127.913 443.923 L127.913 439.224 Q129.996 440.358 132.219 440.914 Q134.441 441.469 136.918 441.469 Q140.922 441.469 143.26 439.363 Q145.598 437.256 145.598 433.645 Q145.598 430.034 143.26 427.928 Q140.922 425.821 136.918 425.821 Q135.043 425.821 133.168 426.238 Q131.316 426.654 129.371 427.534 L129.371 410.173 Z" fill="#000000" fill-rule="evenodd" fill-opacity="1" /><path clip-path="url(#clip280)" d="M53.7467 101.321 L61.3856 101.321 L61.3856 74.9555 L53.0754 76.6222 L53.0754 72.3629 L61.3393 70.6963 L66.0152 70.6963 L66.0152 101.321 L73.654 101.321 L73.654 105.256 L53.7467 105.256 L53.7467 101.321 Z" fill="#000000" fill-rule="evenodd" fill-opacity="1" /><path clip-path="url(#clip280)" d="M83.0984 99.3767 L87.9827 99.3767 L87.9827 105.256 L83.0984 105.256 L83.0984 99.3767 Z" fill="#000000" fill-rule="evenodd" fill-opacity="1" /><path clip-path="url(#clip280)" d="M108.168 73.775 Q104.557 73.775 102.728 77.3398 Q100.922 80.8814 100.922 88.011 Q100.922 95.1174 102.728 98.6822 Q104.557 102.224 108.168 102.224 Q111.802 102.224 113.608 98.6822 Q115.436 95.1174 115.436 88.011 Q115.436 80.8814 113.608 77.3398 Q111.802 73.775 108.168 73.775 M108.168 70.0713 Q113.978 70.0713 117.033 74.6777 Q120.112 79.261 120.112 88.011 Q120.112 96.7378 117.033 101.344 Q113.978 105.928 108.168 105.928 Q102.358 105.928 99.2789 101.344 Q96.2234 96.7378 96.2234 88.011 Q96.2234 79.261 99.2789 74.6777 Q102.358 70.0713 108.168 70.0713 Z" fill="#000000" fill-rule="evenodd" fill-opacity="1" /><path clip-path="url(#clip280)" d="M138.33 73.775 Q134.719 73.775 132.89 77.3398 Q131.084 80.8814 131.084 88.011 Q131.084 95.1174 132.89 98.6822 Q134.719 102.224 138.33 102.224 Q141.964 102.224 143.769 98.6822 Q145.598 95.1174 145.598 88.011 Q145.598 80.8814 143.769 77.3398 Q141.964 73.775 138.33 73.775 M138.33 70.0713 Q144.14 70.0713 147.195 74.6777 Q150.274 79.261 150.274 88.011 Q150.274 96.7378 147.195 101.344 Q144.14 105.928 138.33 105.928 Q132.519 105.928 129.441 101.344 Q126.385 96.7378 126.385 88.011 Q126.385 79.261 129.441 74.6777 Q132.519 70.0713 138.33 70.0713 Z" fill="#000000" fill-rule="evenodd" fill-opacity="1" /><polyline clip-path="url(#clip282)" style="stroke:#009af9; stroke-linecap:butt; stroke-linejoin:round; stroke-width:12; stroke-opacity:1; fill:none" points="
  247.59,1445.72 289.301,1445.54 331.012,1445.22 372.723,1444.61 414.434,1443.51 456.146,1441.6 497.857,1438.38 539.568,1433.1 581.279,1424.72 622.991,1411.85 
  664.702,1392.7 706.413,1365.14 748.124,1326.77 789.836,1275.15 831.547,1208.11 873.258,1124.16 914.969,1022.91 956.681,905.597 998.392,775.332 1040.1,637.287 
  1081.81,498.504 1123.53,367.412 1165.24,253.034 1206.95,163.982 1248.66,107.39 1290.37,87.9763 1332.08,107.39 1373.79,163.982 1415.5,253.034 1457.22,367.412 
  1498.93,498.504 1540.64,637.287 1582.35,775.332 1624.06,905.597 1665.77,1022.91 1707.48,1124.16 1749.19,1208.11 1790.91,1275.15 1832.62,1326.77 1874.33,1365.14 
  1916.04,1392.7 1957.75,1411.85 1999.46,1424.72 2041.17,1433.1 2082.88,1438.38 2124.6,1441.6 2166.31,1443.51 2208.02,1444.61 2249.73,1445.22 2291.44,1445.54 
  
  "/>
<polyline clip-path="url(#clip282)" style="stroke:#e26f46; stroke-linecap:butt; stroke-linejoin:round; stroke-width:12; stroke-opacity:1; fill:none" points="
  247.59,1444.46 289.301,1445.19 331.012,1445.56 372.723,1445.66 414.434,1445.57 456.146,1445.29 497.857,1444.73 539.568,1443.71 581.279,1441.91 622.991,1438.82 
  664.702,1433.71 706.413,1425.52 748.124,1412.85 789.836,1393.86 831.547,1366.39 873.258,1327.97 914.969,1276.12 956.681,1208.63 998.392,1123.97 1040.1,1021.83 
  1081.81,903.485 1123.53,772.205 1165.24,633.314 1206.95,494.021 1248.66,362.889 1290.37,249.009 1332.08,160.974 1373.79,105.807 1415.5,88.0359 1457.22,109.081 
  1498.93,167.065 1540.64,257.09 1582.35,371.919 1624.06,502.931 1665.77,641.181 1707.48,778.375 1749.19,907.634 1790.91,1023.95 1832.62,1124.31 1874.33,1207.6 
  1916.04,1274.19 1957.75,1325.59 1999.46,1363.92 2041.17,1391.57 2082.88,1410.88 2124.6,1423.93 2166.31,1432.5 2208.02,1437.93 2249.73,1441.33 2291.44,1443.28 
  
  "/>
<polyline clip-path="url(#clip282)" style="stroke:#3da44d; stroke-linecap:butt; stroke-linejoin:round; stroke-width:12; stroke-opacity:1; fill:none" points="
  247.59,1437.52 289.301,1440.96 331.012,1443.08 372.723,1444.37 414.434,1445.13 456.146,1445.51 497.857,1445.64 539.568,1445.59 581.279,1445.35 622.991,1444.85 
  664.702,1443.91 706.413,1442.21 748.124,1439.26 789.836,1434.33 831.547,1426.34 873.258,1413.86 914.969,1395.05 956.681,1367.66 998.392,1329.2 1040.1,1277.11 
  1081.81,1209.13 1123.53,1123.76 1165.24,1020.68 1206.95,901.297 1248.66,768.992 1290.37,629.263 1332.08,489.486 1373.79,358.355 1415.5,245.021 1457.22,158.046 
  1498.93,104.333 1540.64,88.2144 1582.35,110.876 1624.06,170.218 1665.77,261.171 1707.48,376.405 1749.19,507.302 1790.91,644.997 1832.62,781.336 1874.33,909.6 
  1916.04,1024.93 1957.75,1124.45 1999.46,1207.08 2041.17,1273.25 2082.88,1324.45 2124.6,1362.7 2166.31,1390.48 2208.02,1409.91 2249.73,1423.14 2291.44,1431.93 
  
  "/>
<polyline clip-path="url(#clip282)" style="stroke:#c271d2; stroke-linecap:butt; stroke-linejoin:round; stroke-width:12; stroke-opacity:1; fill:none" points="
  247.59,1408.97 289.301,1422.43 331.012,1431.33 372.723,1437.04 414.434,1440.65 456.146,1442.9 497.857,1444.26 539.568,1445.05 581.279,1445.46 622.991,1445.62 
  664.702,1445.61 706.413,1445.41 748.124,1444.97 789.836,1444.1 831.547,1442.51 873.258,1439.71 914.969,1434.95 956.681,1427.17 998.392,1414.9 1040.1,1396.27 
  1081.81,1368.97 1123.53,1330.45 1165.24,1278.1 1206.95,1209.63 1248.66,1123.51 1290.37,1019.48 1332.08,899.029 1373.79,765.691 1415.5,625.134 1457.22,484.902 
  1498.93,353.814 1540.64,241.073 1582.35,155.204 1624.06,102.973 1665.77,88.5113 1707.48,112.773 1749.19,173.437 1790.91,265.271 1832.62,380.868 1874.33,511.61 
  1916.04,648.742 1957.75,784.204 1999.46,911.518 2041.17,1025.85 2082.88,1124.57 2124.6,1206.57 2166.31,1272.31 2208.02,1323.32 2249.73,1361.57 2291.44,1389.35 
  
  "/>
<polyline clip-path="url(#clip282)" style="stroke:#ac8d18; stroke-linecap:butt; stroke-linejoin:round; stroke-width:12; stroke-opacity:1; fill:none" points="
  247.59,1322.2 289.301,1360.39 331.012,1388.3 372.723,1408.08 414.434,1421.67 456.146,1430.72 497.857,1436.6 539.568,1440.36 581.279,1442.71 622.991,1444.14 
  664.702,1444.96 706.413,1445.41 748.124,1445.6 789.836,1445.62 831.547,1445.47 873.258,1445.08 914.969,1444.29 956.681,1442.81 998.392,1440.15 1040.1,1435.58 
  1081.81,1428.01 1123.53,1415.96 1165.24,1397.51 1206.95,1370.31 1248.66,1331.73 1290.37,1279.12 1332.08,1210.12 1373.79,1123.23 1415.5,1018.22 1457.22,896.678 
  1498.93,762.301 1540.64,620.929 1582.35,480.272 1624.06,349.271 1665.77,237.174 1707.48,152.448 1749.19,101.73 1790.91,88.9185 1832.62,114.778 1874.33,176.7 
  1916.04,269.406 1957.75,385.285 1999.46,515.867 2041.17,652.407 2082.88,787.001 2124.6,913.339 2166.31,1026.78 2208.02,1124.63 2249.73,1206.04 2291.44,1271.44 
  
  "/>
<polyline clip-path="url(#clip282)" style="stroke:#00a9ad; stroke-linecap:butt; stroke-linejoin:round; stroke-width:12; stroke-opacity:1; fill:none" points="
  247.59,1124.72 289.301,1205.55 331.012,1270.52 372.723,1321.09 414.434,1359.28 456.146,1387.28 497.857,1407.18 539.568,1420.91 581.279,1430.12 622.991,1436.17 
  664.702,1440.06 706.413,1442.51 748.124,1444 789.836,1444.87 831.547,1445.35 873.258,1445.58 914.969,1445.63 956.681,1445.52 998.392,1445.19 1040.1,1444.48 
  1081.81,1443.11 1123.53,1440.6 1165.24,1436.22 1206.95,1428.87 1248.66,1417.05 1290.37,1398.79 1332.08,1371.68 1373.79,1333.04 1415.5,1280.14 1457.22,1210.6 
  1498.93,1122.9 1540.64,1016.88 1582.35,894.242 1624.06,758.817 1665.77,616.656 1707.48,475.59 1749.19,344.748 1790.91,233.309 1832.62,149.804 1874.33,100.588 
  1916.04,89.4487 1957.75,116.869 1999.46,180.037 2041.17,273.51 2082.88,389.718 2124.6,520.041 2166.31,655.968 2208.02,789.765 2249.73,915.109 2291.44,1027.6 
  
  "/>
<polyline clip-path="url(#clip282)" style="stroke:#ed5d92; stroke-linecap:butt; stroke-linejoin:round; stroke-width:12; stroke-opacity:1; fill:none" points="
  247.59,792.399 289.301,916.798 331.012,1028.43 372.723,1124.8 414.434,1205.02 456.146,1269.62 497.857,1320.03 539.568,1358.21 581.279,1386.27 622.991,1406.28 
  664.702,1420.16 706.413,1429.54 748.124,1435.75 789.836,1439.77 831.547,1442.31 873.258,1443.86 914.969,1444.78 956.681,1445.3 998.392,1445.56 1040.1,1445.64 
  1081.81,1445.57 1123.53,1445.29 1165.24,1444.66 1206.95,1443.4 1248.66,1441.05 1290.37,1436.87 1332.08,1429.75 1373.79,1418.16 1415.5,1400.09 1457.22,1373.08 
  1498.93,1334.38 1540.64,1281.17 1582.35,1211.08 1624.06,1122.52 1665.77,1015.5 1707.48,891.699 1749.19,755.259 1790.91,612.298 1832.62,470.88 1874.33,340.219 
  1916.04,229.532 1957.75,147.216 1999.46,99.5961 2041.17,90.0933 2082.88,119.017 2124.6,183.448 2166.31,277.649 2208.02,394.051 2249.73,524.177 2291.44,659.505 
  
  "/>
<polyline clip-path="url(#clip282)" style="stroke:#c68125; stroke-linecap:butt; stroke-linejoin:round; stroke-width:12; stroke-opacity:1; fill:none" points="
  247.59,398.401 289.301,528.257 331.012,662.916 372.723,794.964 414.434,918.473 456.146,1029.24 497.857,1124.83 539.568,1204.49 581.279,1268.74 622.991,1319.01 
  664.702,1357.16 706.413,1385.26 748.124,1405.39 789.836,1419.42 831.547,1428.98 873.258,1435.33 914.969,1439.47 956.681,1442.1 998.392,1443.72 1040.1,1444.69 
  1081.81,1445.24 1123.53,1445.53 1165.24,1445.65 1206.95,1445.61 1248.66,1445.39 1290.37,1444.83 1332.08,1443.7 1373.79,1441.5 1415.5,1437.53 1457.22,1430.64 
  1498.93,1419.32 1540.64,1401.42 1582.35,1374.54 1624.06,1335.73 1665.77,1282.22 1707.48,1211.53 1749.19,1122.11 1790.91,1014.01 1832.62,889.098 1874.33,751.575 
  1916.04,607.883 1957.75,466.153 1999.46,335.677 2041.17,225.82 2082.88,144.769 2124.6,98.669 2166.31,90.8496 2208.02,121.307 2249.73,186.861 2291.44,281.758 
  
  "/>
<polyline clip-path="url(#clip282)" style="stroke:#00a98d; stroke-linecap:butt; stroke-linejoin:round; stroke-width:12; stroke-opacity:1; fill:none" points="
  247.59,123.626 289.301,190.315 331.012,285.909 372.723,402.705 414.434,532.235 456.146,666.258 497.857,797.492 539.568,920.098 581.279,1029.98 622.991,1124.83 
  664.702,1203.97 706.413,1267.9 748.124,1318 789.836,1356.11 831.547,1384.27 873.258,1404.51 914.969,1418.7 956.681,1428.42 998.392,1434.92 1040.1,1439.17 
  1081.81,1441.89 1123.53,1443.57 1165.24,1444.59 1206.95,1445.18 1248.66,1445.51 1290.37,1445.64 1332.08,1445.66 1373.79,1445.46 1415.5,1445.02 1457.22,1443.97 
  1498.93,1441.97 1540.64,1438.19 1582.35,1431.55 1624.06,1420.48 1665.77,1402.8 1707.48,1376 1749.19,1337.13 1790.91,1283.26 1832.62,1211.96 1874.33,1121.67 
  1916.04,1012.43 1957.75,886.387 1999.46,747.847 2041.17,603.368 2082.88,461.375 2124.6,331.213 2166.31,222.153 2208.02,142.384 2249.73,97.908 2291.44,91.7303 
  
  "/>
<path clip-path="url(#clip280)" d="
M1985.68 613.618 L2280.54 613.618 L2280.54 95.2176 L1985.68 95.2176  Z
  " fill="#ffffff" fill-rule="evenodd" fill-opacity="1"/>
<polyline clip-path="url(#clip280)" style="stroke:#000000; stroke-linecap:butt; stroke-linejoin:round; stroke-width:4; stroke-opacity:1; fill:none" points="
  1985.68,613.618 2280.54,613.618 2280.54,95.2176 1985.68,95.2176 1985.68,613.618 
  "/>
<polyline clip-path="url(#clip280)" style="stroke:#009af9; stroke-linecap:butt; stroke-linejoin:round; stroke-width:4; stroke-opacity:1; fill:none" points="
  2009.75,147.058 2154.18,147.058 
  "/>
<path clip-path="url(#clip280)" d="M2192.1 166.745 Q2190.29 171.375 2188.58 172.787 Q2186.86 174.199 2183.99 174.199 L2180.59 174.199 L2180.59 170.634 L2183.09 170.634 Q2184.85 170.634 2185.82 169.8 Q2186.79 168.967 2187.97 165.865 L2188.74 163.921 L2178.25 138.412 L2182.77 138.412 L2190.87 158.689 L2198.97 138.412 L2203.48 138.412 L2192.1 166.745 Z" fill="#000000" fill-rule="evenodd" fill-opacity="1" /><path clip-path="url(#clip280)" d="M2210.78 160.402 L2218.41 160.402 L2218.41 134.037 L2210.1 135.703 L2210.1 131.444 L2218.37 129.778 L2223.04 129.778 L2223.04 160.402 L2230.68 160.402 L2230.68 164.338 L2210.78 164.338 L2210.78 160.402 Z" fill="#000000" fill-rule="evenodd" fill-opacity="1" /><polyline clip-path="url(#clip280)" style="stroke:#e26f46; stroke-linecap:butt; stroke-linejoin:round; stroke-width:4; stroke-opacity:1; fill:none" points="
  2009.75,198.898 2154.18,198.898 
  "/>
<path clip-path="url(#clip280)" d="M2192.1 218.585 Q2190.29 223.215 2188.58 224.627 Q2186.86 226.039 2183.99 226.039 L2180.59 226.039 L2180.59 222.474 L2183.09 222.474 Q2184.85 222.474 2185.82 221.64 Q2186.79 220.807 2187.97 217.705 L2188.74 215.761 L2178.25 190.252 L2182.77 190.252 L2190.87 210.529 L2198.97 190.252 L2203.48 190.252 L2192.1 218.585 Z" fill="#000000" fill-rule="evenodd" fill-opacity="1" /><path clip-path="url(#clip280)" d="M2213.99 212.242 L2230.31 212.242 L2230.31 216.178 L2208.37 216.178 L2208.37 212.242 Q2211.03 209.488 2215.61 204.858 Q2220.22 200.205 2221.4 198.863 Q2223.65 196.34 2224.53 194.604 Q2225.43 192.844 2225.43 191.155 Q2225.43 188.4 2223.48 186.664 Q2221.56 184.928 2218.46 184.928 Q2216.26 184.928 2213.81 185.692 Q2211.38 186.455 2208.6 188.006 L2208.6 183.284 Q2211.42 182.15 2213.88 181.571 Q2216.33 180.993 2218.37 180.993 Q2223.74 180.993 2226.93 183.678 Q2230.13 186.363 2230.13 190.854 Q2230.13 192.983 2229.32 194.905 Q2228.53 196.803 2226.42 199.395 Q2225.84 200.067 2222.74 203.284 Q2219.64 206.479 2213.99 212.242 Z" fill="#000000" fill-rule="evenodd" fill-opacity="1" /><polyline clip-path="url(#clip280)" style="stroke:#3da44d; stroke-linecap:butt; stroke-linejoin:round; stroke-width:4; stroke-opacity:1; fill:none" points="
  2009.75,250.738 2154.18,250.738 
  "/>
<path clip-path="url(#clip280)" d="M2192.1 270.425 Q2190.29 275.055 2188.58 276.467 Q2186.86 277.879 2183.99 277.879 L2180.59 277.879 L2180.59 274.314 L2183.09 274.314 Q2184.85 274.314 2185.82 273.48 Q2186.79 272.647 2187.97 269.545 L2188.74 267.601 L2178.25 242.092 L2182.77 242.092 L2190.87 262.369 L2198.97 242.092 L2203.48 242.092 L2192.1 270.425 Z" fill="#000000" fill-rule="evenodd" fill-opacity="1" /><path clip-path="url(#clip280)" d="M2224.13 249.383 Q2227.49 250.101 2229.36 252.369 Q2231.26 254.638 2231.26 257.971 Q2231.26 263.087 2227.74 265.888 Q2224.22 268.689 2217.74 268.689 Q2215.57 268.689 2213.25 268.249 Q2210.96 267.832 2208.51 266.976 L2208.51 262.462 Q2210.45 263.596 2212.77 264.175 Q2215.08 264.754 2217.6 264.754 Q2222 264.754 2224.29 263.018 Q2226.61 261.281 2226.61 257.971 Q2226.61 254.916 2224.46 253.203 Q2222.33 251.467 2218.51 251.467 L2214.48 251.467 L2214.48 247.624 L2218.69 247.624 Q2222.14 247.624 2223.97 246.258 Q2225.8 244.87 2225.8 242.277 Q2225.8 239.615 2223.9 238.203 Q2222.03 236.768 2218.51 236.768 Q2216.59 236.768 2214.39 237.184 Q2212.19 237.601 2209.55 238.481 L2209.55 234.314 Q2212.21 233.573 2214.53 233.203 Q2216.86 232.833 2218.92 232.833 Q2224.25 232.833 2227.35 235.263 Q2230.45 237.67 2230.45 241.791 Q2230.45 244.661 2228.81 246.652 Q2227.16 248.62 2224.13 249.383 Z" fill="#000000" fill-rule="evenodd" fill-opacity="1" /><polyline clip-path="url(#clip280)" style="stroke:#c271d2; stroke-linecap:butt; stroke-linejoin:round; stroke-width:4; stroke-opacity:1; fill:none" points="
  2009.75,302.578 2154.18,302.578 
  "/>
<path clip-path="url(#clip280)" d="M2192.1 322.265 Q2190.29 326.895 2188.58 328.307 Q2186.86 329.719 2183.99 329.719 L2180.59 329.719 L2180.59 326.154 L2183.09 326.154 Q2184.85 326.154 2185.82 325.32 Q2186.79 324.487 2187.97 321.385 L2188.74 319.441 L2178.25 293.932 L2182.77 293.932 L2190.87 314.209 L2198.97 293.932 L2203.48 293.932 L2192.1 322.265 Z" fill="#000000" fill-rule="evenodd" fill-opacity="1" /><path clip-path="url(#clip280)" d="M2222.81 289.372 L2211.01 307.821 L2222.81 307.821 L2222.81 289.372 M2221.59 285.298 L2227.47 285.298 L2227.47 307.821 L2232.4 307.821 L2232.4 311.709 L2227.47 311.709 L2227.47 319.858 L2222.81 319.858 L2222.81 311.709 L2207.21 311.709 L2207.21 307.196 L2221.59 285.298 Z" fill="#000000" fill-rule="evenodd" fill-opacity="1" /><polyline clip-path="url(#clip280)" style="stroke:#ac8d18; stroke-linecap:butt; stroke-linejoin:round; stroke-width:4; stroke-opacity:1; fill:none" points="
  2009.75,354.418 2154.18,354.418 
  "/>
<path clip-path="url(#clip280)" d="M2192.1 374.105 Q2190.29 378.735 2188.58 380.147 Q2186.86 381.559 2183.99 381.559 L2180.59 381.559 L2180.59 377.994 L2183.09 377.994 Q2184.85 377.994 2185.82 377.16 Q2186.79 376.327 2187.97 373.225 L2188.74 371.281 L2178.25 345.772 L2182.77 345.772 L2190.87 366.049 L2198.97 345.772 L2203.48 345.772 L2192.1 374.105 Z" fill="#000000" fill-rule="evenodd" fill-opacity="1" /><path clip-path="url(#clip280)" d="M2210.01 337.138 L2228.37 337.138 L2228.37 341.073 L2214.29 341.073 L2214.29 349.545 Q2215.31 349.198 2216.33 349.036 Q2217.35 348.85 2218.37 348.85 Q2224.16 348.85 2227.53 352.022 Q2230.91 355.193 2230.91 360.61 Q2230.91 366.188 2227.44 369.29 Q2223.97 372.369 2217.65 372.369 Q2215.47 372.369 2213.21 371.998 Q2210.96 371.628 2208.55 370.887 L2208.55 366.188 Q2210.64 367.323 2212.86 367.878 Q2215.08 368.434 2217.56 368.434 Q2221.56 368.434 2223.9 366.327 Q2226.24 364.221 2226.24 360.61 Q2226.24 356.999 2223.9 354.892 Q2221.56 352.786 2217.56 352.786 Q2215.68 352.786 2213.81 353.202 Q2211.96 353.619 2210.01 354.499 L2210.01 337.138 Z" fill="#000000" fill-rule="evenodd" fill-opacity="1" /><polyline clip-path="url(#clip280)" style="stroke:#00a9ad; stroke-linecap:butt; stroke-linejoin:round; stroke-width:4; stroke-opacity:1; fill:none" points="
  2009.75,406.258 2154.18,406.258 
  "/>
<path clip-path="url(#clip280)" d="M2192.1 425.945 Q2190.29 430.575 2188.58 431.987 Q2186.86 433.399 2183.99 433.399 L2180.59 433.399 L2180.59 429.834 L2183.09 429.834 Q2184.85 429.834 2185.82 429 Q2186.79 428.167 2187.97 425.065 L2188.74 423.121 L2178.25 397.612 L2182.77 397.612 L2190.87 417.889 L2198.97 397.612 L2203.48 397.612 L2192.1 425.945 Z" fill="#000000" fill-rule="evenodd" fill-opacity="1" /><path clip-path="url(#clip280)" d="M2220.54 404.394 Q2217.4 404.394 2215.54 406.547 Q2213.72 408.7 2213.72 412.45 Q2213.72 416.176 2215.54 418.352 Q2217.4 420.505 2220.54 420.505 Q2223.69 420.505 2225.52 418.352 Q2227.37 416.176 2227.37 412.45 Q2227.37 408.7 2225.52 406.547 Q2223.69 404.394 2220.54 404.394 M2229.83 389.741 L2229.83 394.001 Q2228.07 393.167 2226.26 392.728 Q2224.48 392.288 2222.72 392.288 Q2218.09 392.288 2215.64 395.413 Q2213.21 398.538 2212.86 404.857 Q2214.22 402.843 2216.28 401.778 Q2218.34 400.69 2220.82 400.69 Q2226.03 400.69 2229.04 403.862 Q2232.07 407.01 2232.07 412.45 Q2232.07 417.774 2228.92 420.991 Q2225.78 424.209 2220.54 424.209 Q2214.55 424.209 2211.38 419.626 Q2208.21 415.019 2208.21 406.292 Q2208.21 398.098 2212.09 393.237 Q2215.98 388.353 2222.53 388.353 Q2224.29 388.353 2226.08 388.7 Q2227.88 389.047 2229.83 389.741 Z" fill="#000000" fill-rule="evenodd" fill-opacity="1" /><polyline clip-path="url(#clip280)" style="stroke:#ed5d92; stroke-linecap:butt; stroke-linejoin:round; stroke-width:4; stroke-opacity:1; fill:none" points="
  2009.75,458.098 2154.18,458.098 
  "/>
<path clip-path="url(#clip280)" d="M2192.1 477.785 Q2190.29 482.415 2188.58 483.827 Q2186.86 485.239 2183.99 485.239 L2180.59 485.239 L2180.59 481.674 L2183.09 481.674 Q2184.85 481.674 2185.82 480.84 Q2186.79 480.007 2187.97 476.905 L2188.74 474.961 L2178.25 449.452 L2182.77 449.452 L2190.87 469.729 L2198.97 449.452 L2203.48 449.452 L2192.1 477.785 Z" fill="#000000" fill-rule="evenodd" fill-opacity="1" /><path clip-path="url(#clip280)" d="M2208.78 440.818 L2231.01 440.818 L2231.01 442.808 L2218.46 475.378 L2213.58 475.378 L2225.38 444.753 L2208.78 444.753 L2208.78 440.818 Z" fill="#000000" fill-rule="evenodd" fill-opacity="1" /><polyline clip-path="url(#clip280)" style="stroke:#c68125; stroke-linecap:butt; stroke-linejoin:round; stroke-width:4; stroke-opacity:1; fill:none" points="
  2009.75,509.938 2154.18,509.938 
  "/>
<path clip-path="url(#clip280)" d="M2192.1 529.625 Q2190.29 534.255 2188.58 535.667 Q2186.86 537.079 2183.99 537.079 L2180.59 537.079 L2180.59 533.514 L2183.09 533.514 Q2184.85 533.514 2185.82 532.68 Q2186.79 531.847 2187.97 528.745 L2188.74 526.801 L2178.25 501.292 L2182.77 501.292 L2190.87 521.569 L2198.97 501.292 L2203.48 501.292 L2192.1 529.625 Z" fill="#000000" fill-rule="evenodd" fill-opacity="1" /><path clip-path="url(#clip280)" d="M2219.97 510.806 Q2216.63 510.806 2214.71 512.588 Q2212.81 514.37 2212.81 517.495 Q2212.81 520.62 2214.71 522.403 Q2216.63 524.185 2219.97 524.185 Q2223.3 524.185 2225.22 522.403 Q2227.14 520.597 2227.14 517.495 Q2227.14 514.37 2225.22 512.588 Q2223.32 510.806 2219.97 510.806 M2215.29 508.815 Q2212.28 508.074 2210.59 506.014 Q2208.92 503.954 2208.92 500.991 Q2208.92 496.847 2211.86 494.44 Q2214.83 492.033 2219.97 492.033 Q2225.13 492.033 2228.07 494.44 Q2231.01 496.847 2231.01 500.991 Q2231.01 503.954 2229.32 506.014 Q2227.65 508.074 2224.66 508.815 Q2228.04 509.602 2229.92 511.894 Q2231.82 514.185 2231.82 517.495 Q2231.82 522.519 2228.74 525.204 Q2225.68 527.889 2219.97 527.889 Q2214.25 527.889 2211.17 525.204 Q2208.11 522.519 2208.11 517.495 Q2208.11 514.185 2210.01 511.894 Q2211.91 509.602 2215.29 508.815 M2213.58 501.431 Q2213.58 504.116 2215.24 505.62 Q2216.93 507.125 2219.97 507.125 Q2222.97 507.125 2224.66 505.62 Q2226.38 504.116 2226.38 501.431 Q2226.38 498.745 2224.66 497.241 Q2222.97 495.736 2219.97 495.736 Q2216.93 495.736 2215.24 497.241 Q2213.58 498.745 2213.58 501.431 Z" fill="#000000" fill-rule="evenodd" fill-opacity="1" /><polyline clip-path="url(#clip280)" style="stroke:#00a98d; stroke-linecap:butt; stroke-linejoin:round; stroke-width:4; stroke-opacity:1; fill:none" points="
  2009.75,561.778 2154.18,561.778 
  "/>
<path clip-path="url(#clip280)" d="M2192.1 581.465 Q2190.29 586.095 2188.58 587.507 Q2186.86 588.919 2183.99 588.919 L2180.59 588.919 L2180.59 585.354 L2183.09 585.354 Q2184.85 585.354 2185.82 584.52 Q2186.79 583.687 2187.97 580.585 L2188.74 578.641 L2178.25 553.132 L2182.77 553.132 L2190.87 573.409 L2198.97 553.132 L2203.48 553.132 L2192.1 581.465 Z" fill="#000000" fill-rule="evenodd" fill-opacity="1" /><path clip-path="url(#clip280)" d="M2210.1 578.34 L2210.1 574.081 Q2211.86 574.914 2213.67 575.354 Q2215.47 575.794 2217.21 575.794 Q2221.84 575.794 2224.27 572.692 Q2226.72 569.567 2227.07 563.224 Q2225.73 565.215 2223.67 566.28 Q2221.61 567.345 2219.11 567.345 Q2213.92 567.345 2210.89 564.22 Q2207.88 561.072 2207.88 555.632 Q2207.88 550.308 2211.03 547.09 Q2214.18 543.873 2219.41 543.873 Q2225.41 543.873 2228.55 548.479 Q2231.72 553.062 2231.72 561.812 Q2231.72 569.984 2227.84 574.868 Q2223.97 579.729 2217.42 579.729 Q2215.66 579.729 2213.85 579.382 Q2212.05 579.034 2210.1 578.34 M2219.41 563.687 Q2222.56 563.687 2224.39 561.534 Q2226.24 559.382 2226.24 555.632 Q2226.24 551.905 2224.39 549.752 Q2222.56 547.576 2219.41 547.576 Q2216.26 547.576 2214.41 549.752 Q2212.58 551.905 2212.58 555.632 Q2212.58 559.382 2214.41 561.534 Q2216.26 563.687 2219.41 563.687 Z" fill="#000000" fill-rule="evenodd" fill-opacity="1" /></svg>
