<?xml version="1.0" encoding="utf-8"?>
<svg xmlns="http://www.w3.org/2000/svg" xmlns:xlink="http://www.w3.org/1999/xlink" width="600" height="400" viewBox="0 0 2400 1600">
<defs>
  <clipPath id="clip440">
    <rect x="0" y="0" width="2400" height="1600"/>
  </clipPath>
</defs>
<path clip-path="url(#clip440)" d="
M0 1600 L2400 1600 L2400 0 L0 0  Z
  " fill="#ffffff" fill-rule="evenodd" fill-opacity="1"/>
<defs>
  <clipPath id="clip441">
    <rect x="480" y="0" width="1681" height="1600"/>
  </clipPath>
</defs>
<path clip-path="url(#clip440)" d="
M186.274 1486.45 L2352.76 1486.45 L2352.76 47.2441 L186.274 47.2441  Z
  " fill="#ffffff" fill-rule="evenodd" fill-opacity="1"/>
<defs>
  <clipPath id="clip442">
    <rect x="186" y="47" width="2167" height="1440"/>
  </clipPath>
</defs>
<polyline clip-path="url(#clip442)" style="stroke:#000000; stroke-linecap:butt; stroke-linejoin:round; stroke-width:2; stroke-opacity:0.1; fill:none" points="
  247.59,1486.45 247.59,47.2441 
  "/>
<polyline clip-path="url(#clip442)" style="stroke:#000000; stroke-linecap:butt; stroke-linejoin:round; stroke-width:2; stroke-opacity:0.1; fill:none" points="
  758.552,1486.45 758.552,47.2441 
  "/>
<polyline clip-path="url(#clip442)" style="stroke:#000000; stroke-linecap:butt; stroke-linejoin:round; stroke-width:2; stroke-opacity:0.1; fill:none" points="
  1269.51,1486.45 1269.51,47.2441 
  "/>
<polyline clip-path="url(#clip442)" style="stroke:#000000; stroke-linecap:butt; stroke-linejoin:round; stroke-width:2; stroke-opacity:0.1; fill:none" points="
  1780.48,1486.45 1780.48,47.2441 
  "/>
<polyline clip-path="url(#clip442)" style="stroke:#000000; stroke-linecap:butt; stroke-linejoin:round; stroke-width:2; stroke-opacity:0.1; fill:none" points="
  2291.44,1486.45 2291.44,47.2441 
  "/>
<polyline clip-path="url(#clip440)" style="stroke:#000000; stroke-linecap:butt; stroke-linejoin:round; stroke-width:4; stroke-opacity:1; fill:none" points="
  186.274,1486.45 2352.76,1486.45 
  "/>
<polyline clip-path="url(#clip440)" style="stroke:#000000; stroke-linecap:butt; stroke-linejoin:round; stroke-width:4; stroke-opacity:1; fill:none" points="
  247.59,1486.45 247.59,1467.55 
  "/>
<polyline clip-path="url(#clip440)" style="stroke:#000000; stroke-linecap:butt; stroke-linejoin:round; stroke-width:4; stroke-opacity:1; fill:none" points="
  758.552,1486.45 758.552,1467.55 
  "/>
<polyline clip-path="url(#clip440)" style="stroke:#000000; stroke-linecap:butt; stroke-linejoin:round; stroke-width:4; stroke-opacity:1; fill:none" points="
  1269.51,1486.45 1269.51,1467.55 
  "/>
<polyline clip-path="url(#clip440)" style="stroke:#000000; stroke-linecap:butt; stroke-linejoin:round; stroke-width:4; stroke-opacity:1; fill:none" points="
  1780.48,1486.45 1780.48,1467.55 
  "/>
<polyline clip-path="url(#clip440)" style="stroke:#000000; stroke-linecap:butt; stroke-linejoin:round; stroke-width:4; stroke-opacity:1; fill:none" points="
  2291.44,1486.45 2291.44,1467.55 
  "/>
<path clip-path="url(#clip440)" d="M194.118 1532.02 L223.793 1532.02 L223.793 1535.95 L194.118 1535.95 L194.118 1532.02 Z" fill="#000000" fill-rule="evenodd" fill-opacity="1" /><path clip-path="url(#clip440)" d="M234.696 1544.91 L242.335 1544.91 L242.335 1518.55 L234.025 1520.21 L234.025 1515.95 L242.289 1514.29 L246.965 1514.29 L246.965 1544.91 L254.603 1544.91 L254.603 1548.85 L234.696 1548.85 L234.696 1544.91 Z" fill="#000000" fill-rule="evenodd" fill-opacity="1" /><path clip-path="url(#clip440)" d="M264.048 1542.97 L268.932 1542.97 L268.932 1548.85 L264.048 1548.85 L264.048 1542.97 Z" fill="#000000" fill-rule="evenodd" fill-opacity="1" /><path clip-path="url(#clip440)" d="M289.117 1517.37 Q285.506 1517.37 283.677 1520.93 Q281.872 1524.47 281.872 1531.6 Q281.872 1538.71 283.677 1542.27 Q285.506 1545.82 289.117 1545.82 Q292.751 1545.82 294.557 1542.27 Q296.386 1538.71 296.386 1531.6 Q296.386 1524.47 294.557 1520.93 Q292.751 1517.37 289.117 1517.37 M289.117 1513.66 Q294.927 1513.66 297.983 1518.27 Q301.061 1522.85 301.061 1531.6 Q301.061 1540.33 297.983 1544.94 Q294.927 1549.52 289.117 1549.52 Q283.307 1549.52 280.228 1544.94 Q277.173 1540.33 277.173 1531.6 Q277.173 1522.85 280.228 1518.27 Q283.307 1513.66 289.117 1513.66 Z" fill="#000000" fill-rule="evenodd" fill-opacity="1" /><path clip-path="url(#clip440)" d="M705.578 1532.02 L735.254 1532.02 L735.254 1535.95 L705.578 1535.95 L705.578 1532.02 Z" fill="#000000" fill-rule="evenodd" fill-opacity="1" /><path clip-path="url(#clip440)" d="M755.346 1517.37 Q751.735 1517.37 749.906 1520.93 Q748.101 1524.47 748.101 1531.6 Q748.101 1538.71 749.906 1542.27 Q751.735 1545.82 755.346 1545.82 Q758.98 1545.82 760.786 1542.27 Q762.615 1538.71 762.615 1531.6 Q762.615 1524.47 760.786 1520.93 Q758.98 1517.37 755.346 1517.37 M755.346 1513.66 Q761.156 1513.66 764.212 1518.27 Q767.291 1522.85 767.291 1531.6 Q767.291 1540.33 764.212 1544.94 Q761.156 1549.52 755.346 1549.52 Q749.536 1549.52 746.457 1544.94 Q743.402 1540.33 743.402 1531.6 Q743.402 1522.85 746.457 1518.27 Q749.536 1513.66 755.346 1513.66 Z" fill="#000000" fill-rule="evenodd" fill-opacity="1" /><path clip-path="url(#clip440)" d="M775.508 1542.97 L780.392 1542.97 L780.392 1548.85 L775.508 1548.85 L775.508 1542.97 Z" fill="#000000" fill-rule="evenodd" fill-opacity="1" /><path clip-path="url(#clip440)" d="M790.624 1514.29 L808.98 1514.29 L808.98 1518.22 L794.906 1518.22 L794.906 1526.7 Q795.925 1526.35 796.943 1526.19 Q797.962 1526 798.98 1526 Q804.767 1526 808.147 1529.17 Q811.526 1532.34 811.526 1537.76 Q811.526 1543.34 808.054 1546.44 Q804.582 1549.52 798.263 1549.52 Q796.087 1549.52 793.818 1549.15 Q791.573 1548.78 789.166 1548.04 L789.166 1543.34 Q791.249 1544.47 793.471 1545.03 Q795.693 1545.58 798.17 1545.58 Q802.175 1545.58 804.513 1543.48 Q806.851 1541.37 806.851 1537.76 Q806.851 1534.15 804.513 1532.04 Q802.175 1529.94 798.17 1529.94 Q796.295 1529.94 794.42 1530.35 Q792.568 1530.77 790.624 1531.65 L790.624 1514.29 Z" fill="#000000" fill-rule="evenodd" fill-opacity="1" /><path clip-path="url(#clip440)" d="M1246.9 1517.37 Q1243.29 1517.37 1241.46 1520.93 Q1239.65 1524.47 1239.65 1531.6 Q1239.65 1538.71 1241.46 1542.27 Q1243.29 1545.82 1246.9 1545.82 Q1250.53 1545.82 1252.34 1542.27 Q1254.17 1538.71 1254.17 1531.6 Q1254.17 1524.47 1252.34 1520.93 Q1250.53 1517.37 1246.9 1517.37 M1246.9 1513.66 Q1252.71 1513.66 1255.77 1518.27 Q1258.84 1522.85 1258.84 1531.6 Q1258.84 1540.33 1255.77 1544.94 Q1252.71 1549.52 1246.9 1549.52 Q1241.09 1549.52 1238.01 1544.94 Q1234.95 1540.33 1234.95 1531.6 Q1234.95 1522.85 1238.01 1518.27 Q1241.09 1513.66 1246.9 1513.66 Z" fill="#000000" fill-rule="evenodd" fill-opacity="1" /><path clip-path="url(#clip440)" d="M1267.06 1542.97 L1271.95 1542.97 L1271.95 1548.85 L1267.06 1548.85 L1267.06 1542.97 Z" fill="#000000" fill-rule="evenodd" fill-opacity="1" /><path clip-path="url(#clip440)" d="M1292.13 1517.37 Q1288.52 1517.37 1286.69 1520.93 Q1284.89 1524.47 1284.89 1531.6 Q1284.89 1538.71 1286.69 1542.27 Q1288.52 1545.82 1292.13 1545.82 Q1295.76 1545.82 1297.57 1542.27 Q1299.4 1538.71 1299.4 1531.6 Q1299.4 1524.47 1297.57 1520.93 Q1295.76 1517.37 1292.13 1517.37 M1292.13 1513.66 Q1297.94 1513.66 1301 1518.27 Q1304.07 1522.85 1304.07 1531.6 Q1304.07 1540.33 1301 1544.94 Q1297.94 1549.52 1292.13 1549.52 Q1286.32 1549.52 1283.24 1544.94 Q1280.19 1540.33 1280.19 1531.6 Q1280.19 1522.85 1283.24 1518.27 Q1286.32 1513.66 1292.13 1513.66 Z" fill="#000000" fill-rule="evenodd" fill-opacity="1" /><path clip-path="url(#clip440)" d="M1758.36 1517.37 Q1754.75 1517.37 1752.92 1520.93 Q1751.11 1524.47 1751.11 1531.6 Q1751.11 1538.71 1752.92 1542.27 Q1754.75 1545.82 1758.36 1545.82 Q1761.99 1545.82 1763.8 1542.27 Q1765.63 1538.71 1765.63 1531.6 Q1765.63 1524.47 1763.8 1520.93 Q1761.99 1517.37 1758.36 1517.37 M1758.36 1513.66 Q1764.17 1513.66 1767.23 1518.27 Q1770.3 1522.85 1770.3 1531.6 Q1770.3 1540.33 1767.23 1544.94 Q1764.17 1549.52 1758.36 1549.52 Q1752.55 1549.52 1749.47 1544.94 Q1746.42 1540.33 1746.42 1531.6 Q1746.42 1522.85 1749.47 1518.27 Q1752.55 1513.66 1758.36 1513.66 Z" fill="#000000" fill-rule="evenodd" fill-opacity="1" /><path clip-path="url(#clip440)" d="M1778.52 1542.97 L1783.41 1542.97 L1783.41 1548.85 L1778.52 1548.85 L1778.52 1542.97 Z" fill="#000000" fill-rule="evenodd" fill-opacity="1" /><path clip-path="url(#clip440)" d="M1793.64 1514.29 L1811.99 1514.29 L1811.99 1518.22 L1797.92 1518.22 L1797.92 1526.7 Q1798.94 1526.35 1799.96 1526.19 Q1800.98 1526 1801.99 1526 Q1807.78 1526 1811.16 1529.17 Q1814.54 1532.34 1814.54 1537.76 Q1814.54 1543.34 1811.07 1546.44 Q1807.6 1549.52 1801.28 1549.52 Q1799.1 1549.52 1796.83 1549.15 Q1794.59 1548.78 1792.18 1548.04 L1792.18 1543.34 Q1794.26 1544.47 1796.48 1545.03 Q1798.71 1545.58 1801.18 1545.58 Q1805.19 1545.58 1807.53 1543.48 Q1809.86 1541.37 1809.86 1537.76 Q1809.86 1534.15 1807.53 1532.04 Q1805.19 1529.94 1801.18 1529.94 Q1799.31 1529.94 1797.43 1530.35 Q1795.58 1530.77 1793.64 1531.65 L1793.64 1514.29 Z" fill="#000000" fill-rule="evenodd" fill-opacity="1" /><path clip-path="url(#clip440)" d="M2258.59 1544.91 L2266.23 1544.91 L2266.23 1518.55 L2257.92 1520.21 L2257.92 1515.95 L2266.19 1514.29 L2270.86 1514.29 L2270.86 1544.91 L2278.5 1544.91 L2278.5 1548.85 L2258.59 1548.85 L2258.59 1544.91 Z" fill="#000000" fill-rule="evenodd" fill-opacity="1" /><path clip-path="url(#clip440)" d="M2287.95 1542.97 L2292.83 1542.97 L2292.83 1548.85 L2287.95 1548.85 L2287.95 1542.97 Z" fill="#000000" fill-rule="evenodd" fill-opacity="1" /><path clip-path="url(#clip440)" d="M2313.01 1517.37 Q2309.4 1517.37 2307.57 1520.93 Q2305.77 1524.47 2305.77 1531.6 Q2305.77 1538.71 2307.57 1542.27 Q2309.4 1545.82 2313.01 1545.82 Q2316.65 1545.82 2318.45 1542.27 Q2320.28 1538.71 2320.28 1531.6 Q2320.28 1524.47 2318.45 1520.93 Q2316.65 1517.37 2313.01 1517.37 M2313.01 1513.66 Q2318.82 1513.66 2321.88 1518.27 Q2324.96 1522.85 2324.96 1531.6 Q2324.96 1540.33 2321.88 1544.94 Q2318.82 1549.52 2313.01 1549.52 Q2307.2 1549.52 2304.13 1544.94 Q2301.07 1540.33 2301.07 1531.6 Q2301.07 1522.85 2304.13 1518.27 Q2307.2 1513.66 2313.01 1513.66 Z" fill="#000000" fill-rule="evenodd" fill-opacity="1" /><polyline clip-path="url(#clip442)" style="stroke:#000000; stroke-linecap:butt; stroke-linejoin:round; stroke-width:2; stroke-opacity:0.1; fill:none" points="
  186.274,1208.79 2352.76,1208.79 
  "/>
<polyline clip-path="url(#clip442)" style="stroke:#000000; stroke-linecap:butt; stroke-linejoin:round; stroke-width:2; stroke-opacity:0.1; fill:none" points="
  186.274,928.588 2352.76,928.588 
  "/>
<polyline clip-path="url(#clip442)" style="stroke:#000000; stroke-linecap:butt; stroke-linejoin:round; stroke-width:2; stroke-opacity:0.1; fill:none" points="
  186.274,648.384 2352.76,648.384 
  "/>
<polyline clip-path="url(#clip442)" style="stroke:#000000; stroke-linecap:butt; stroke-linejoin:round; stroke-width:2; stroke-opacity:0.1; fill:none" points="
  186.274,368.18 2352.76,368.18 
  "/>
<polyline clip-path="url(#clip442)" style="stroke:#000000; stroke-linecap:butt; stroke-linejoin:round; stroke-width:2; stroke-opacity:0.1; fill:none" points="
  186.274,87.9763 2352.76,87.9763 
  "/>
<polyline clip-path="url(#clip440)" style="stroke:#000000; stroke-linecap:butt; stroke-linejoin:round; stroke-width:4; stroke-opacity:1; fill:none" points="
  186.274,1486.45 186.274,47.2441 
  "/>
<polyline clip-path="url(#clip440)" style="stroke:#000000; stroke-linecap:butt; stroke-linejoin:round; stroke-width:4; stroke-opacity:1; fill:none" points="
  186.274,1208.79 205.172,1208.79 
  "/>
<polyline clip-path="url(#clip440)" style="stroke:#000000; stroke-linecap:butt; stroke-linejoin:round; stroke-width:4; stroke-opacity:1; fill:none" points="
  186.274,928.588 205.172,928.588 
  "/>
<polyline clip-path="url(#clip440)" style="stroke:#000000; stroke-linecap:butt; stroke-linejoin:round; stroke-width:4; stroke-opacity:1; fill:none" points="
  186.274,648.384 205.172,648.384 
  "/>
<polyline clip-path="url(#clip440)" style="stroke:#000000; stroke-linecap:butt; stroke-linejoin:round; stroke-width:4; stroke-opacity:1; fill:none" points="
  186.274,368.18 205.172,368.18 
  "/>
<polyline clip-path="url(#clip440)" style="stroke:#000000; stroke-linecap:butt; stroke-linejoin:round; stroke-width:4; stroke-opacity:1; fill:none" points="
  186.274,87.9763 205.172,87.9763 
  "/>
<path clip-path="url(#clip440)" d="M62.9365 1194.59 Q59.3254 1194.59 57.4967 1198.16 Q55.6912 1201.7 55.6912 1208.83 Q55.6912 1215.93 57.4967 1219.5 Q59.3254 1223.04 62.9365 1223.04 Q66.5707 1223.04 68.3763 1219.5 Q70.205 1215.93 70.205 1208.83 Q70.205 1201.7 68.3763 1198.16 Q66.5707 1194.59 62.9365 1194.59 M62.9365 1190.89 Q68.7467 1190.89 71.8022 1195.49 Q74.8809 1200.08 74.8809 1208.83 Q74.8809 1217.55 71.8022 1222.16 Q68.7467 1226.74 62.9365 1226.74 Q57.1264 1226.74 54.0477 1222.16 Q50.9921 1217.55 50.9921 1208.83 Q50.9921 1200.08 54.0477 1195.49 Q57.1264 1190.89 62.9365 1190.89 Z" fill="#000000" fill-rule="evenodd" fill-opacity="1" /><path clip-path="url(#clip440)" d="M83.0984 1220.19 L87.9827 1220.19 L87.9827 1226.07 L83.0984 1226.07 L83.0984 1220.19 Z" fill="#000000" fill-rule="evenodd" fill-opacity="1" /><path clip-path="url(#clip440)" d="M108.168 1194.59 Q104.557 1194.59 102.728 1198.16 Q100.922 1201.7 100.922 1208.83 Q100.922 1215.93 102.728 1219.5 Q104.557 1223.04 108.168 1223.04 Q111.802 1223.04 113.608 1219.5 Q115.436 1215.93 115.436 1208.83 Q115.436 1201.7 113.608 1198.16 Q111.802 1194.59 108.168 1194.59 M108.168 1190.89 Q113.978 1190.89 117.033 1195.49 Q120.112 1200.08 120.112 1208.83 Q120.112 1217.55 117.033 1222.16 Q113.978 1226.74 108.168 1226.74 Q102.358 1226.74 99.2789 1222.16 Q96.2234 1217.55 96.2234 1208.83 Q96.2234 1200.08 99.2789 1195.49 Q102.358 1190.89 108.168 1190.89 Z" fill="#000000" fill-rule="evenodd" fill-opacity="1" /><path clip-path="url(#clip440)" d="M138.33 1194.59 Q134.719 1194.59 132.89 1198.16 Q131.084 1201.7 131.084 1208.83 Q131.084 1215.93 132.89 1219.5 Q134.719 1223.04 138.33 1223.04 Q141.964 1223.04 143.769 1219.5 Q145.598 1215.93 145.598 1208.83 Q145.598 1201.7 143.769 1198.16 Q141.964 1194.59 138.33 1194.59 M138.33 1190.89 Q144.14 1190.89 147.195 1195.49 Q150.274 1200.08 150.274 1208.83 Q150.274 1217.55 147.195 1222.16 Q144.14 1226.74 138.33 1226.74 Q132.519 1226.74 129.441 1222.16 Q126.385 1217.55 126.385 1208.83 Q126.385 1200.08 129.441 1195.49 Q132.519 1190.89 138.33 1190.89 Z" fill="#000000" fill-rule="evenodd" fill-opacity="1" /><path clip-path="url(#clip440)" d="M63.9319 914.387 Q60.3208 914.387 58.4921 917.951 Q56.6865 921.493 56.6865 928.623 Q56.6865 935.729 58.4921 939.294 Q60.3208 942.835 63.9319 942.835 Q67.5661 942.835 69.3717 939.294 Q71.2004 935.729 71.2004 928.623 Q71.2004 921.493 69.3717 917.951 Q67.5661 914.387 63.9319 914.387 M63.9319 910.683 Q69.742 910.683 72.7976 915.289 Q75.8763 919.873 75.8763 928.623 Q75.8763 937.349 72.7976 941.956 Q69.742 946.539 63.9319 946.539 Q58.1217 946.539 55.043 941.956 Q51.9875 937.349 51.9875 928.623 Q51.9875 919.873 55.043 915.289 Q58.1217 910.683 63.9319 910.683 Z" fill="#000000" fill-rule="evenodd" fill-opacity="1" /><path clip-path="url(#clip440)" d="M84.0938 939.988 L88.978 939.988 L88.978 945.868 L84.0938 945.868 L84.0938 939.988 Z" fill="#000000" fill-rule="evenodd" fill-opacity="1" /><path clip-path="url(#clip440)" d="M103.191 941.933 L119.51 941.933 L119.51 945.868 L97.566 945.868 L97.566 941.933 Q100.228 939.178 104.811 934.548 Q109.418 929.896 110.598 928.553 Q112.844 926.03 113.723 924.294 Q114.626 922.535 114.626 920.845 Q114.626 918.09 112.682 916.354 Q110.76 914.618 107.658 914.618 Q105.459 914.618 103.006 915.382 Q100.575 916.146 97.7974 917.697 L97.7974 912.975 Q100.621 911.84 103.075 911.262 Q105.529 910.683 107.566 910.683 Q112.936 910.683 116.131 913.368 Q119.325 916.053 119.325 920.544 Q119.325 922.674 118.515 924.595 Q117.728 926.493 115.621 929.086 Q115.043 929.757 111.941 932.974 Q108.839 936.169 103.191 941.933 Z" fill="#000000" fill-rule="evenodd" fill-opacity="1" /><path clip-path="url(#clip440)" d="M129.371 911.308 L147.728 911.308 L147.728 915.243 L133.654 915.243 L133.654 923.715 Q134.672 923.368 135.691 923.206 Q136.709 923.021 137.728 923.021 Q143.515 923.021 146.894 926.192 Q150.274 929.363 150.274 934.78 Q150.274 940.359 146.802 943.46 Q143.33 946.539 137.01 946.539 Q134.834 946.539 132.566 946.169 Q130.32 945.798 127.913 945.058 L127.913 940.359 Q129.996 941.493 132.219 942.048 Q134.441 942.604 136.918 942.604 Q140.922 942.604 143.26 940.498 Q145.598 938.391 145.598 934.78 Q145.598 931.169 143.26 929.062 Q140.922 926.956 136.918 926.956 Q135.043 926.956 133.168 927.373 Q131.316 927.789 129.371 928.669 L129.371 911.308 Z" fill="#000000" fill-rule="evenodd" fill-opacity="1" /><path clip-path="url(#clip440)" d="M62.9365 634.183 Q59.3254 634.183 57.4967 637.747 Q55.6912 641.289 55.6912 648.419 Q55.6912 655.525 57.4967 659.09 Q59.3254 662.632 62.9365 662.632 Q66.5707 662.632 68.3763 659.09 Q70.205 655.525 70.205 648.419 Q70.205 641.289 68.3763 637.747 Q66.5707 634.183 62.9365 634.183 M62.9365 630.479 Q68.7467 630.479 71.8022 635.085 Q74.8809 639.669 74.8809 648.419 Q74.8809 657.146 71.8022 661.752 Q68.7467 666.335 62.9365 666.335 Q57.1264 666.335 54.0477 661.752 Q50.9921 657.146 50.9921 648.419 Q50.9921 639.669 54.0477 635.085 Q57.1264 630.479 62.9365 630.479 Z" fill="#000000" fill-rule="evenodd" fill-opacity="1" /><path clip-path="url(#clip440)" d="M83.0984 659.784 L87.9827 659.784 L87.9827 665.664 L83.0984 665.664 L83.0984 659.784 Z" fill="#000000" fill-rule="evenodd" fill-opacity="1" /><path clip-path="url(#clip440)" d="M98.2141 631.104 L116.57 631.104 L116.57 635.039 L102.496 635.039 L102.496 643.511 Q103.515 643.164 104.534 643.002 Q105.552 642.817 106.571 642.817 Q112.358 642.817 115.737 645.988 Q119.117 649.159 119.117 654.576 Q119.117 660.155 115.645 663.257 Q112.172 666.335 105.853 666.335 Q103.677 666.335 101.409 665.965 Q99.1632 665.595 96.7558 664.854 L96.7558 660.155 Q98.8391 661.289 101.061 661.845 Q103.284 662.4 105.76 662.4 Q109.765 662.4 112.103 660.294 Q114.441 658.187 114.441 654.576 Q114.441 650.965 112.103 648.859 Q109.765 646.752 105.76 646.752 Q103.885 646.752 102.01 647.169 Q100.159 647.585 98.2141 648.465 L98.2141 631.104 Z" fill="#000000" fill-rule="evenodd" fill-opacity="1" /><path clip-path="url(#clip440)" d="M138.33 634.183 Q134.719 634.183 132.89 637.747 Q131.084 641.289 131.084 648.419 Q131.084 655.525 132.89 659.09 Q134.719 662.632 138.33 662.632 Q141.964 662.632 143.769 659.09 Q145.598 655.525 145.598 648.419 Q145.598 641.289 143.769 637.747 Q141.964 634.183 138.33 634.183 M138.33 630.479 Q144.14 630.479 147.195 635.085 Q150.274 639.669 150.274 648.419 Q150.274 657.146 147.195 661.752 Q144.14 666.335 138.33 666.335 Q132.519 666.335 129.441 661.752 Q126.385 657.146 126.385 648.419 Q126.385 639.669 129.441 635.085 Q132.519 630.479 138.33 630.479 Z" fill="#000000" fill-rule="evenodd" fill-opacity="1" /><path clip-path="url(#clip440)" d="M63.9319 353.979 Q60.3208 353.979 58.4921 357.544 Q56.6865 361.085 56.6865 368.215 Q56.6865 375.321 58.4921 378.886 Q60.3208 382.428 63.9319 382.428 Q67.5661 382.428 69.3717 378.886 Q71.2004 375.321 71.2004 368.215 Q71.2004 361.085 69.3717 357.544 Q67.5661 353.979 63.9319 353.979 M63.9319 350.275 Q69.742 350.275 72.7976 354.882 Q75.8763 359.465 75.8763 368.215 Q75.8763 376.942 72.7976 381.548 Q69.742 386.131 63.9319 386.131 Q58.1217 386.131 55.043 381.548 Q51.9875 376.942 51.9875 368.215 Q51.9875 359.465 55.043 354.882 Q58.1217 350.275 63.9319 350.275 Z" fill="#000000" fill-rule="evenodd" fill-opacity="1" /><path clip-path="url(#clip440)" d="M84.0938 379.581 L88.978 379.581 L88.978 385.46 L84.0938 385.46 L84.0938 379.581 Z" fill="#000000" fill-rule="evenodd" fill-opacity="1" /><path clip-path="url(#clip440)" d="M97.9826 350.9 L120.205 350.9 L120.205 352.891 L107.658 385.46 L102.774 385.46 L114.58 354.835 L97.9826 354.835 L97.9826 350.9 Z" fill="#000000" fill-rule="evenodd" fill-opacity="1" /><path clip-path="url(#clip440)" d="M129.371 350.9 L147.728 350.9 L147.728 354.835 L133.654 354.835 L133.654 363.307 Q134.672 362.96 135.691 362.798 Q136.709 362.613 137.728 362.613 Q143.515 362.613 146.894 365.784 Q150.274 368.956 150.274 374.372 Q150.274 379.951 146.802 383.053 Q143.33 386.131 137.01 386.131 Q134.834 386.131 132.566 385.761 Q130.32 385.391 127.913 384.65 L127.913 379.951 Q129.996 381.085 132.219 381.641 Q134.441 382.196 136.918 382.196 Q140.922 382.196 143.26 380.09 Q145.598 377.983 145.598 374.372 Q145.598 370.761 143.26 368.655 Q140.922 366.548 136.918 366.548 Q135.043 366.548 133.168 366.965 Q131.316 367.382 129.371 368.261 L129.371 350.9 Z" fill="#000000" fill-rule="evenodd" fill-opacity="1" /><path clip-path="url(#clip440)" d="M53.7467 101.321 L61.3856 101.321 L61.3856 74.9555 L53.0754 76.6222 L53.0754 72.3629 L61.3393 70.6963 L66.0152 70.6963 L66.0152 101.321 L73.654 101.321 L73.654 105.256 L53.7467 105.256 L53.7467 101.321 Z" fill="#000000" fill-rule="evenodd" fill-opacity="1" /><path clip-path="url(#clip440)" d="M83.0984 99.3767 L87.9827 99.3767 L87.9827 105.256 L83.0984 105.256 L83.0984 99.3767 Z" fill="#000000" fill-rule="evenodd" fill-opacity="1" /><path clip-path="url(#clip440)" d="M108.168 73.775 Q104.557 73.775 102.728 77.3398 Q100.922 80.8814 100.922 88.011 Q100.922 95.1174 102.728 98.6822 Q104.557 102.224 108.168 102.224 Q111.802 102.224 113.608 98.6822 Q115.436 95.1174 115.436 88.011 Q115.436 80.8814 113.608 77.3398 Q111.802 73.775 108.168 73.775 M108.168 70.0713 Q113.978 70.0713 117.033 74.6777 Q120.112 79.261 120.112 88.011 Q120.112 96.7378 117.033 101.344 Q113.978 105.928 108.168 105.928 Q102.358 105.928 99.2789 101.344 Q96.2234 96.7378 96.2234 88.011 Q96.2234 79.261 99.2789 74.6777 Q102.358 70.0713 108.168 70.0713 Z" fill="#000000" fill-rule="evenodd" fill-opacity="1" /><path clip-path="url(#clip440)" d="M138.33 73.775 Q134.719 73.775 132.89 77.3398 Q131.084 80.8814 131.084 88.011 Q131.084 95.1174 132.89 98.6822 Q134.719 102.224 138.33 102.224 Q141.964 102.224 143.769 98.6822 Q145.598 95.1174 145.598 88.011 Q145.598 80.8814 143.769 77.3398 Q141.964 73.775 138.33 73.775 M138.33 70.0713 Q144.14 70.0713 147.195 74.6777 Q150.274 79.261 150.274 88.011 Q150.274 96.7378 147.195 101.344 Q144.14 105.928 138.33 105.928 Q132.519 105.928 129.441 101.344 Q126.385 96.7378 126.385 88.011 Q126.385 79.261 129.441 74.6777 Q132.519 70.0713 138.33 70.0713 Z" fill="#000000" fill-rule="evenodd" fill-opacity="1" /><polyline clip-path="url(#clip442)" style="stroke:#009af9; stroke-linecap:butt; stroke-linejoin:round; stroke-width:12; stroke-opacity:1; fill:none" points="
  247.59,87.9763 289.301,736.078 331.012,1106.61 372.723,1289.74 414.434,1353.33 456.146,1347.05 497.857,1305.95 539.568,1253.62 581.279,1204.73 622.991,1167.35 
  664.702,1144.7 706.413,1136.74 748.124,1141.31 789.836,1155.16 831.547,1174.61 873.258,1196.13 914.969,1216.63 956.681,1233.73 998.392,1245.86 1040.1,1252.23 
  1081.81,1252.81 1123.53,1248.18 1165.24,1239.41 1206.95,1227.89 1248.66,1215.14 1290.37,1202.69 1332.08,1191.9 1373.79,1183.84 1415.5,1179.25 1457.22,1178.43 
  1498.93,1181.28 1540.64,1187.27 1582.35,1195.54 1624.06,1204.99 1665.77,1214.38 1707.48,1222.46 1749.19,1228.16 1790.91,1230.68 1832.62,1229.65 1874.33,1225.22 
  1916.04,1218.12 1957.75,1209.58 1999.46,1201.32 2041.17,1195.23 2082.88,1193.08 2124.6,1195.94 2166.31,1203.51 2208.02,1213.14 2249.73,1218.64 2291.44,1208.79 
  
  "/>
<polyline clip-path="url(#clip442)" style="stroke:#e26f46; stroke-linecap:butt; stroke-linejoin:round; stroke-width:12; stroke-opacity:1; fill:none" points="
  247.59,1208.79 289.301,416.286 331.012,114.667 372.723,119.31 414.434,294.834 456.146,545.563 497.857,807.296 539.568,1040.25 581.279,1223.08 622.991,1347.9 
  664.702,1416.15 706.413,1435.23 748.124,1415.9 789.836,1370.2 831.547,1309.96 873.258,1245.75 914.969,1186.2 956.681,1137.64 998.392,1104.02 1040.1,1087.01 
  1081.81,1086.3 1123.53,1099.91 1165.24,1124.65 1206.95,1156.6 1248.66,1191.52 1290.37,1225.3 1332.08,1254.33 1373.79,1275.79 1415.5,1287.84 1457.22,1289.75 
  1498.93,1281.94 1540.64,1265.85 1582.35,1243.82 1624.06,1218.81 1665.77,1194.09 1707.48,1172.91 1749.19,1158.06 1790.91,1151.57 1832.62,1154.36 1874.33,1165.99 
  1916.04,1184.54 1957.75,1206.74 1999.46,1228.16 2041.17,1243.89 2082.88,1249.41 2124.6,1241.96 2166.31,1222.4 2208.02,1197.59 2249.73,1183.46 2291.44,1208.79 
  
  "/>
<polyline clip-path="url(#clip442)" style="stroke:#3da44d; stroke-linecap:butt; stroke-linejoin:round; stroke-width:12; stroke-opacity:1; fill:none" points="
  247.59,1208.79 289.301,1423.89 331.012,1317.53 372.723,1053.27 414.434,743.801 456.146,461.712 497.857,248.727 539.568,123.535 581.279,88.3179 622.991,134.135 
  664.702,245.267 706.413,402.65 748.124,586.5 789.836,778.244 831.547,961.836 873.258,1124.58 914.969,1257.5 956.681,1355.41 998.392,1416.67 1040.1,1442.76 
  1081.81,1437.71 1123.53,1407.44 1165.24,1359.1 1206.95,1300.3 1248.66,1238.58 1290.37,1180.75 1332.08,1132.45 1373.79,1097.85 1415.5,1079.35 1457.22,1077.56 
  1498.93,1091.33 1540.64,1117.95 1582.35,1153.46 1624.06,1193.09 1665.77,1231.68 1707.48,1264.32 1749.19,1286.82 1790.91,1296.3 1832.62,1291.6 1874.33,1273.59 
  1916.04,1245.33 1957.75,1211.88 1999.46,1179.86 2041.17,1156.56 2082.88,1148.58 2124.6,1159.79 2166.31,1188.75 2208.02,1225.23 2249.73,1245.86 2291.44,1208.79 
  
  "/>
<polyline clip-path="url(#clip442)" style="stroke:#c271d2; stroke-linecap:butt; stroke-linejoin:round; stroke-width:12; stroke-opacity:1; fill:none" points="
  247.59,1208.79 289.301,1094.48 331.012,1155.74 372.723,1276.84 414.434,1384.75 456.146,1439.02 497.857,1423.16 539.568,1337.58 581.279,1193.72 622.991,1009.34 
  664.702,804.899 706.413,600.762 748.124,415.202 789.836,263.084 831.547,155.095 873.258,97.4565 914.969,92.0002 956.681,136.545 998.392,225.489 1040.1,350.548 
  1081.81,501.582 1123.53,667.448 1165.24,836.838 1206.95,999.049 1248.66,1144.66 1290.37,1266.1 1332.08,1358.01 1373.79,1417.56 1415.5,1444.45 1457.22,1440.88 
  1498.93,1411.27 1540.64,1361.84 1582.35,1300.11 1624.06,1234.24 1665.77,1172.33 1707.48,1121.68 1749.19,1088.07 1790.91,1075.13 1832.62,1083.81 1874.33,1112.06 
  1916.04,1154.8 1957.75,1204.28 1999.46,1250.77 2041.17,1283.94 2082.88,1294.76 2124.6,1278.25 2166.31,1237.01 2208.02,1185.8 2249.73,1157.26 2291.44,1208.79 
  
  "/>
<polyline clip-path="url(#clip442)" style="stroke:#ac8d18; stroke-linecap:butt; stroke-linejoin:round; stroke-width:12; stroke-opacity:1; fill:none" points="
  247.59,1208.79 289.301,1282.36 331.012,1242.01 372.723,1167.48 414.434,1105.65 456.146,1079.15 497.857,1093.55 539.568,1143.22 581.279,1215.99 622.991,1296.79 
  664.702,1370.43 706.413,1423.51 748.124,1445.72 789.836,1430.52 831.547,1375.44 873.258,1281.92 914.969,1154.86 956.681,1002.05 998.392,833.375 1040.1,659.949 
  1081.81,493.283 1123.53,344.439 1165.24,223.27 1206.95,137.771 1248.66,93.5703 1290.37,93.5703 1332.08,137.771 1373.79,223.27 1415.5,344.439 1457.22,493.283 
  1498.93,659.949 1540.64,833.375 1582.35,1002.05 1624.06,1154.86 1665.77,1281.92 1707.48,1375.44 1749.19,1430.52 1790.91,1445.72 1832.62,1423.51 1874.33,1370.43 
  1916.04,1296.79 1957.75,1215.99 1999.46,1143.22 2041.17,1093.55 2082.88,1079.15 2124.6,1105.65 2166.31,1167.48 2208.02,1242.01 2249.73,1282.36 2291.44,1208.79 
  
  "/>
<polyline clip-path="url(#clip442)" style="stroke:#00a9ad; stroke-linecap:butt; stroke-linejoin:round; stroke-width:12; stroke-opacity:1; fill:none" points="
  247.59,1208.79 289.301,1157.26 331.012,1185.8 372.723,1237.01 414.434,1278.25 456.146,1294.76 497.857,1283.94 539.568,1250.77 581.279,1204.28 622.991,1154.8 
  664.702,1112.06 706.413,1083.81 748.124,1075.13 789.836,1088.07 831.547,1121.68 873.258,1172.33 914.969,1234.24 956.681,1300.11 998.392,1361.84 1040.1,1411.27 
  1081.81,1440.88 1123.53,1444.45 1165.24,1417.56 1206.95,1358.01 1248.66,1266.1 1290.37,1144.66 1332.08,999.049 1373.79,836.838 1415.5,667.448 1457.22,501.582 
  1498.93,350.548 1540.64,225.489 1582.35,136.545 1624.06,92.0002 1665.77,97.4565 1707.48,155.095 1749.19,263.084 1790.91,415.202 1832.62,600.762 1874.33,804.899 
  1916.04,1009.34 1957.75,1193.72 1999.46,1337.58 2041.17,1423.16 2082.88,1439.02 2124.6,1384.75 2166.31,1276.84 2208.02,1155.74 2249.73,1094.48 2291.44,1208.79 
  
  "/>
<polyline clip-path="url(#clip442)" style="stroke:#ed5d92; stroke-linecap:butt; stroke-linejoin:round; stroke-width:12; stroke-opacity:1; fill:none" points="
  247.59,1208.79 289.301,1245.86 331.012,1225.23 372.723,1188.75 414.434,1159.79 456.146,1148.58 497.857,1156.56 539.568,1179.86 581.279,1211.88 622.991,1245.33 
  664.702,1273.59 706.413,1291.6 748.124,1296.3 789.836,1286.82 831.547,1264.32 873.258,1231.68 914.969,1193.09 956.681,1153.46 998.392,1117.95 1040.1,1091.33 
  1081.81,1077.56 1123.53,1079.35 1165.24,1097.85 1206.95,1132.45 1248.66,1180.75 1290.37,1238.58 1332.08,1300.3 1373.79,1359.1 1415.5,1407.44 1457.22,1437.71 
  1498.93,1442.76 1540.64,1416.67 1582.35,1355.41 1624.06,1257.5 1665.77,1124.58 1707.48,961.836 1749.19,778.244 1790.91,586.5 1832.62,402.65 1874.33,245.267 
  1916.04,134.135 1957.75,88.3179 1999.46,123.535 2041.17,248.727 2082.88,461.712 2124.6,743.801 2166.31,1053.27 2208.02,1317.53 2249.73,1423.89 2291.44,1208.79 
  
  "/>
<polyline clip-path="url(#clip442)" style="stroke:#c68125; stroke-linecap:butt; stroke-linejoin:round; stroke-width:12; stroke-opacity:1; fill:none" points="
  247.59,1208.79 289.301,1183.46 331.012,1197.59 372.723,1222.4 414.434,1241.96 456.146,1249.41 497.857,1243.89 539.568,1228.16 581.279,1206.74 622.991,1184.54 
  664.702,1165.99 706.413,1154.36 748.124,1151.57 789.836,1158.06 831.547,1172.91 873.258,1194.09 914.969,1218.81 956.681,1243.82 998.392,1265.85 1040.1,1281.94 
  1081.81,1289.75 1123.53,1287.84 1165.24,1275.79 1206.95,1254.33 1248.66,1225.3 1290.37,1191.52 1332.08,1156.6 1373.79,1124.65 1415.5,1099.91 1457.22,1086.3 
  1498.93,1087.01 1540.64,1104.02 1582.35,1137.64 1624.06,1186.2 1665.77,1245.75 1707.48,1309.96 1749.19,1370.2 1790.91,1415.9 1832.62,1435.23 1874.33,1416.15 
  1916.04,1347.9 1957.75,1223.08 1999.46,1040.25 2041.17,807.296 2082.88,545.563 2124.6,294.834 2166.31,119.31 2208.02,114.667 2249.73,416.286 2291.44,1208.79 
  
  "/>
<polyline clip-path="url(#clip442)" style="stroke:#00a98d; stroke-linecap:butt; stroke-linejoin:round; stroke-width:12; stroke-opacity:1; fill:none" points="
  247.59,1208.79 289.301,1218.64 331.012,1213.14 372.723,1203.51 414.434,1195.94 456.146,1193.08 497.857,1195.23 539.568,1201.32 581.279,1209.58 622.991,1218.12 
  664.702,1225.22 706.413,1229.65 748.124,1230.68 789.836,1228.16 831.547,1222.46 873.258,1214.38 914.969,1204.99 956.681,1195.54 998.392,1187.27 1040.1,1181.28 
  1081.81,1178.43 1123.53,1179.25 1165.24,1183.84 1206.95,1191.9 1248.66,1202.69 1290.37,1215.14 1332.08,1227.89 1373.79,1239.41 1415.5,1248.18 1457.22,1252.81 
  1498.93,1252.23 1540.64,1245.86 1582.35,1233.73 1624.06,1216.63 1665.77,1196.13 1707.48,1174.61 1749.19,1155.16 1790.91,1141.31 1832.62,1136.74 1874.33,1144.7 
  1916.04,1167.35 1957.75,1204.73 1999.46,1253.62 2041.17,1305.95 2082.88,1347.05 2124.6,1353.33 2166.31,1289.74 2208.02,1106.61 2249.73,736.078 2291.44,87.9763 
  
  "/>
<circle clip-path="url(#clip442)" cx="247.59" cy="87.9763" r="14.4" fill="#8e971d" fill-rule="evenodd" fill-opacity="1" stroke="#000000" stroke-opacity="1" stroke-width="3.2"/>
<circle clip-path="url(#clip442)" cx="350.029" cy="87.9763" r="14.4" fill="#8e971d" fill-rule="evenodd" fill-opacity="1" stroke="#000000" stroke-opacity="1" stroke-width="3.2"/>
<circle clip-path="url(#clip442)" cx="577.481" cy="87.9763" r="14.4" fill="#8e971d" fill-rule="evenodd" fill-opacity="1" stroke="#000000" stroke-opacity="1" stroke-width="3.2"/>
<circle clip-path="url(#clip442)" cx="898.436" cy="87.9763" r="14.4" fill="#8e971d" fill-rule="evenodd" fill-opacity="1" stroke="#000000" stroke-opacity="1" stroke-width="3.2"/>
<circle clip-path="url(#clip442)" cx="1269.51" cy="87.9763" r="14.4" fill="#8e971d" fill-rule="evenodd" fill-opacity="1" stroke="#000000" stroke-opacity="1" stroke-width="3.2"/>
<circle clip-path="url(#clip442)" cx="1640.59" cy="87.9763" r="14.4" fill="#8e971d" fill-rule="evenodd" fill-opacity="1" stroke="#000000" stroke-opacity="1" stroke-width="3.2"/>
<circle clip-path="url(#clip442)" cx="1961.55" cy="87.9763" r="14.4" fill="#8e971d" fill-rule="evenodd" fill-opacity="1" stroke="#000000" stroke-opacity="1" stroke-width="3.2"/>
<circle clip-path="url(#clip442)" cx="2189" cy="87.9763" r="14.4" fill="#8e971d" fill-rule="evenodd" fill-opacity="1" stroke="#000000" stroke-opacity="1" stroke-width="3.2"/>
<circle clip-path="url(#clip442)" cx="2291.44" cy="87.9763" r="14.4" fill="#8e971d" fill-rule="evenodd" fill-opacity="1" stroke="#000000" stroke-opacity="1" stroke-width="3.2"/>
<path clip-path="url(#clip440)" d="
M1956 665.458 L2280.54 665.458 L2280.54 95.2176 L1956 95.2176  Z
  " fill="#ffffff" fill-rule="evenodd" fill-opacity="1"/>
<polyline clip-path="url(#clip440)" style="stroke:#000000; stroke-linecap:butt; stroke-linejoin:round; stroke-width:4; stroke-opacity:1; fill:none" points="
  1956,665.458 2280.54,665.458 2280.54,95.2176 1956,95.2176 1956,665.458 
  "/>
<polyline clip-path="url(#clip440)" style="stroke:#009af9; stroke-linecap:butt; stroke-linejoin:round; stroke-width:4; stroke-opacity:1; fill:none" points="
  1980.07,147.058 2124.5,147.058 
  "/>
<path clip-path="url(#clip440)" d="M2162.42 166.745 Q2160.61 171.375 2158.9 172.787 Q2157.19 174.199 2154.32 174.199 L2150.91 174.199 L2150.91 170.634 L2153.41 170.634 Q2155.17 170.634 2156.15 169.8 Q2157.12 168.967 2158.3 165.865 L2159.06 163.921 L2148.58 138.412 L2153.09 138.412 L2161.19 158.689 L2169.29 138.412 L2173.81 138.412 L2162.42 166.745 Z" fill="#000000" fill-rule="evenodd" fill-opacity="1" /><path clip-path="url(#clip440)" d="M2181.1 160.402 L2188.74 160.402 L2188.74 134.037 L2180.43 135.703 L2180.43 131.444 L2188.69 129.778 L2193.37 129.778 L2193.37 160.402 L2201.01 160.402 L2201.01 164.338 L2181.1 164.338 L2181.1 160.402 Z" fill="#000000" fill-rule="evenodd" fill-opacity="1" /><polyline clip-path="url(#clip440)" style="stroke:#e26f46; stroke-linecap:butt; stroke-linejoin:round; stroke-width:4; stroke-opacity:1; fill:none" points="
  1980.07,198.898 2124.5,198.898 
  "/>
<path clip-path="url(#clip440)" d="M2162.42 218.585 Q2160.61 223.215 2158.9 224.627 Q2157.19 226.039 2154.32 226.039 L2150.91 226.039 L2150.91 222.474 L2153.41 222.474 Q2155.17 222.474 2156.15 221.64 Q2157.12 220.807 2158.3 217.705 L2159.06 215.761 L2148.58 190.252 L2153.09 190.252 L2161.19 210.529 L2169.29 190.252 L2173.81 190.252 L2162.42 218.585 Z" fill="#000000" fill-rule="evenodd" fill-opacity="1" /><path clip-path="url(#clip440)" d="M2184.32 212.242 L2200.64 212.242 L2200.64 216.178 L2178.69 216.178 L2178.69 212.242 Q2181.35 209.488 2185.94 204.858 Q2190.54 200.205 2191.72 198.863 Q2193.97 196.34 2194.85 194.604 Q2195.75 192.844 2195.75 191.155 Q2195.75 188.4 2193.81 186.664 Q2191.89 184.928 2188.78 184.928 Q2186.59 184.928 2184.13 185.692 Q2181.7 186.455 2178.92 188.006 L2178.92 183.284 Q2181.75 182.15 2184.2 181.571 Q2186.66 180.993 2188.69 180.993 Q2194.06 180.993 2197.26 183.678 Q2200.45 186.363 2200.45 190.854 Q2200.45 192.983 2199.64 194.905 Q2198.85 196.803 2196.75 199.395 Q2196.17 200.067 2193.07 203.284 Q2189.97 206.479 2184.32 212.242 Z" fill="#000000" fill-rule="evenodd" fill-opacity="1" /><polyline clip-path="url(#clip440)" style="stroke:#3da44d; stroke-linecap:butt; stroke-linejoin:round; stroke-width:4; stroke-opacity:1; fill:none" points="
  1980.07,250.738 2124.5,250.738 
  "/>
<path clip-path="url(#clip440)" d="M2162.42 270.425 Q2160.61 275.055 2158.9 276.467 Q2157.19 277.879 2154.32 277.879 L2150.91 277.879 L2150.91 274.314 L2153.41 274.314 Q2155.17 274.314 2156.15 273.48 Q2157.12 272.647 2158.3 269.545 L2159.06 267.601 L2148.58 242.092 L2153.09 242.092 L2161.19 262.369 L2169.29 242.092 L2173.81 242.092 L2162.42 270.425 Z" fill="#000000" fill-rule="evenodd" fill-opacity="1" /><path clip-path="url(#clip440)" d="M2194.46 249.383 Q2197.81 250.101 2199.69 252.369 Q2201.59 254.638 2201.59 257.971 Q2201.59 263.087 2198.07 265.888 Q2194.55 268.689 2188.07 268.689 Q2185.89 268.689 2183.58 268.249 Q2181.28 267.832 2178.83 266.976 L2178.83 262.462 Q2180.78 263.596 2183.09 264.175 Q2185.41 264.754 2187.93 264.754 Q2192.33 264.754 2194.62 263.018 Q2196.93 261.281 2196.93 257.971 Q2196.93 254.916 2194.78 253.203 Q2192.65 251.467 2188.83 251.467 L2184.8 251.467 L2184.8 247.624 L2189.02 247.624 Q2192.47 247.624 2194.29 246.258 Q2196.12 244.87 2196.12 242.277 Q2196.12 239.615 2194.22 238.203 Q2192.35 236.768 2188.83 236.768 Q2186.91 236.768 2184.71 237.184 Q2182.51 237.601 2179.87 238.481 L2179.87 234.314 Q2182.53 233.573 2184.85 233.203 Q2187.19 232.833 2189.25 232.833 Q2194.57 232.833 2197.67 235.263 Q2200.78 237.67 2200.78 241.791 Q2200.78 244.661 2199.13 246.652 Q2197.49 248.62 2194.46 249.383 Z" fill="#000000" fill-rule="evenodd" fill-opacity="1" /><polyline clip-path="url(#clip440)" style="stroke:#c271d2; stroke-linecap:butt; stroke-linejoin:round; stroke-width:4; stroke-opacity:1; fill:none" points="
  1980.07,302.578 2124.5,302.578 
  "/>
<path clip-path="url(#clip440)" d="M2162.42 322.265 Q2160.61 326.895 2158.9 328.307 Q2157.19 329.719 2154.32 329.719 L2150.91 329.719 L2150.91 326.154 L2153.41 326.154 Q2155.17 326.154 2156.15 325.32 Q2157.12 324.487 2158.3 321.385 L2159.06 319.441 L2148.58 293.932 L2153.09 293.932 L2161.19 314.209 L2169.29 293.932 L2173.81 293.932 L2162.42 322.265 Z" fill="#000000" fill-rule="evenodd" fill-opacity="1" /><path clip-path="url(#clip440)" d="M2193.14 289.372 L2181.33 307.821 L2193.14 307.821 L2193.14 289.372 M2191.91 285.298 L2197.79 285.298 L2197.79 307.821 L2202.72 307.821 L2202.72 311.709 L2197.79 311.709 L2197.79 319.858 L2193.14 319.858 L2193.14 311.709 L2177.53 311.709 L2177.53 307.196 L2191.91 285.298 Z" fill="#000000" fill-rule="evenodd" fill-opacity="1" /><polyline clip-path="url(#clip440)" style="stroke:#ac8d18; stroke-linecap:butt; stroke-linejoin:round; stroke-width:4; stroke-opacity:1; fill:none" points="
  1980.07,354.418 2124.5,354.418 
  "/>
<path clip-path="url(#clip440)" d="M2162.42 374.105 Q2160.61 378.735 2158.9 380.147 Q2157.19 381.559 2154.32 381.559 L2150.91 381.559 L2150.91 377.994 L2153.41 377.994 Q2155.17 377.994 2156.15 377.16 Q2157.12 376.327 2158.3 373.225 L2159.06 371.281 L2148.58 345.772 L2153.09 345.772 L2161.19 366.049 L2169.29 345.772 L2173.81 345.772 L2162.42 374.105 Z" fill="#000000" fill-rule="evenodd" fill-opacity="1" /><path clip-path="url(#clip440)" d="M2180.34 337.138 L2198.69 337.138 L2198.69 341.073 L2184.62 341.073 L2184.62 349.545 Q2185.64 349.198 2186.66 349.036 Q2187.67 348.85 2188.69 348.85 Q2194.48 348.85 2197.86 352.022 Q2201.24 355.193 2201.24 360.61 Q2201.24 366.188 2197.77 369.29 Q2194.29 372.369 2187.97 372.369 Q2185.8 372.369 2183.53 371.998 Q2181.28 371.628 2178.88 370.887 L2178.88 366.188 Q2180.96 367.323 2183.18 367.878 Q2185.41 368.434 2187.88 368.434 Q2191.89 368.434 2194.22 366.327 Q2196.56 364.221 2196.56 360.61 Q2196.56 356.999 2194.22 354.892 Q2191.89 352.786 2187.88 352.786 Q2186.01 352.786 2184.13 353.202 Q2182.28 353.619 2180.34 354.499 L2180.34 337.138 Z" fill="#000000" fill-rule="evenodd" fill-opacity="1" /><polyline clip-path="url(#clip440)" style="stroke:#00a9ad; stroke-linecap:butt; stroke-linejoin:round; stroke-width:4; stroke-opacity:1; fill:none" points="
  1980.07,406.258 2124.5,406.258 
  "/>
<path clip-path="url(#clip440)" d="M2162.42 425.945 Q2160.61 430.575 2158.9 431.987 Q2157.19 433.399 2154.32 433.399 L2150.91 433.399 L2150.91 429.834 L2153.41 429.834 Q2155.17 429.834 2156.15 429 Q2157.12 428.167 2158.3 425.065 L2159.06 423.121 L2148.58 397.612 L2153.09 397.612 L2161.19 417.889 L2169.29 397.612 L2173.81 397.612 L2162.42 425.945 Z" fill="#000000" fill-rule="evenodd" fill-opacity="1" /><path clip-path="url(#clip440)" d="M2190.87 404.394 Q2187.72 404.394 2185.87 406.547 Q2184.04 408.7 2184.04 412.45 Q2184.04 416.176 2185.87 418.352 Q2187.72 420.505 2190.87 420.505 Q2194.02 420.505 2195.85 418.352 Q2197.7 416.176 2197.7 412.45 Q2197.7 408.7 2195.85 406.547 Q2194.02 404.394 2190.87 404.394 M2200.15 389.741 L2200.15 394.001 Q2198.39 393.167 2196.59 392.728 Q2194.8 392.288 2193.04 392.288 Q2188.41 392.288 2185.96 395.413 Q2183.53 398.538 2183.18 404.857 Q2184.55 402.843 2186.61 401.778 Q2188.67 400.69 2191.15 400.69 Q2196.35 400.69 2199.36 403.862 Q2202.4 407.01 2202.4 412.45 Q2202.4 417.774 2199.25 420.991 Q2196.1 424.209 2190.87 424.209 Q2184.87 424.209 2181.7 419.626 Q2178.53 415.019 2178.53 406.292 Q2178.53 398.098 2182.42 393.237 Q2186.31 388.353 2192.86 388.353 Q2194.62 388.353 2196.4 388.7 Q2198.21 389.047 2200.15 389.741 Z" fill="#000000" fill-rule="evenodd" fill-opacity="1" /><polyline clip-path="url(#clip440)" style="stroke:#ed5d92; stroke-linecap:butt; stroke-linejoin:round; stroke-width:4; stroke-opacity:1; fill:none" points="
  1980.07,458.098 2124.5,458.098 
  "/>
<path clip-path="url(#clip440)" d="M2162.42 477.785 Q2160.61 482.415 2158.9 483.827 Q2157.19 485.239 2154.32 485.239 L2150.91 485.239 L2150.91 481.674 L2153.41 481.674 Q2155.17 481.674 2156.15 480.84 Q2157.12 480.007 2158.3 476.905 L2159.06 474.961 L2148.58 449.452 L2153.09 449.452 L2161.19 469.729 L2169.29 449.452 L2173.81 449.452 L2162.42 477.785 Z" fill="#000000" fill-rule="evenodd" fill-opacity="1" /><path clip-path="url(#clip440)" d="M2179.11 440.818 L2201.33 440.818 L2201.33 442.808 L2188.78 475.378 L2183.9 475.378 L2195.71 444.753 L2179.11 444.753 L2179.11 440.818 Z" fill="#000000" fill-rule="evenodd" fill-opacity="1" /><polyline clip-path="url(#clip440)" style="stroke:#c68125; stroke-linecap:butt; stroke-linejoin:round; stroke-width:4; stroke-opacity:1; fill:none" points="
  1980.07,509.938 2124.5,509.938 
  "/>
<path clip-path="url(#clip440)" d="M2162.42 529.625 Q2160.61 534.255 2158.9 535.667 Q2157.19 537.079 2154.32 537.079 L2150.91 537.079 L2150.91 533.514 L2153.41 533.514 Q2155.17 533.514 2156.15 532.68 Q2157.12 531.847 2158.3 528.745 L2159.06 526.801 L2148.58 501.292 L2153.09 501.292 L2161.19 521.569 L2169.29 501.292 L2173.81 501.292 L2162.42 529.625 Z" fill="#000000" fill-rule="evenodd" fill-opacity="1" /><path clip-path="url(#clip440)" d="M2190.29 510.806 Q2186.96 510.806 2185.03 512.588 Q2183.14 514.37 2183.14 517.495 Q2183.14 520.62 2185.03 522.403 Q2186.96 524.185 2190.29 524.185 Q2193.62 524.185 2195.54 522.403 Q2197.47 520.597 2197.47 517.495 Q2197.47 514.37 2195.54 512.588 Q2193.65 510.806 2190.29 510.806 M2185.61 508.815 Q2182.6 508.074 2180.91 506.014 Q2179.25 503.954 2179.25 500.991 Q2179.25 496.847 2182.19 494.44 Q2185.15 492.033 2190.29 492.033 Q2195.45 492.033 2198.39 494.44 Q2201.33 496.847 2201.33 500.991 Q2201.33 503.954 2199.64 506.014 Q2197.97 508.074 2194.99 508.815 Q2198.37 509.602 2200.24 511.894 Q2202.14 514.185 2202.14 517.495 Q2202.14 522.519 2199.06 525.204 Q2196.01 527.889 2190.29 527.889 Q2184.57 527.889 2181.49 525.204 Q2178.44 522.519 2178.44 517.495 Q2178.44 514.185 2180.34 511.894 Q2182.23 509.602 2185.61 508.815 M2183.9 501.431 Q2183.9 504.116 2185.57 505.62 Q2187.26 507.125 2190.29 507.125 Q2193.3 507.125 2194.99 505.62 Q2196.7 504.116 2196.7 501.431 Q2196.7 498.745 2194.99 497.241 Q2193.3 495.736 2190.29 495.736 Q2187.26 495.736 2185.57 497.241 Q2183.9 498.745 2183.9 501.431 Z" fill="#000000" fill-rule="evenodd" fill-opacity="1" /><polyline clip-path="url(#clip440)" style="stroke:#00a98d; stroke-linecap:butt; stroke-linejoin:round; stroke-width:4; stroke-opacity:1; fill:none" points="
  1980.07,561.778 2124.5,561.778 
  "/>
<path clip-path="url(#clip440)" d="M2162.42 581.465 Q2160.61 586.095 2158.9 587.507 Q2157.19 588.919 2154.32 588.919 L2150.91 588.919 L2150.91 585.354 L2153.41 585.354 Q2155.17 585.354 2156.15 584.52 Q2157.12 583.687 2158.3 580.585 L2159.06 578.641 L2148.58 553.132 L2153.09 553.132 L2161.19 573.409 L2169.29 553.132 L2173.81 553.132 L2162.42 581.465 Z" fill="#000000" fill-rule="evenodd" fill-opacity="1" /><path clip-path="url(#clip440)" d="M2180.43 578.34 L2180.43 574.081 Q2182.19 574.914 2183.99 575.354 Q2185.8 575.794 2187.53 575.794 Q2192.16 575.794 2194.6 572.692 Q2197.05 569.567 2197.4 563.224 Q2196.05 565.215 2193.99 566.28 Q2191.93 567.345 2189.43 567.345 Q2184.25 567.345 2181.22 564.22 Q2178.21 561.072 2178.21 555.632 Q2178.21 550.308 2181.35 547.09 Q2184.5 543.873 2189.73 543.873 Q2195.73 543.873 2198.88 548.479 Q2202.05 553.062 2202.05 561.812 Q2202.05 569.984 2198.16 574.868 Q2194.29 579.729 2187.74 579.729 Q2185.98 579.729 2184.18 579.382 Q2182.37 579.034 2180.43 578.34 M2189.73 563.687 Q2192.88 563.687 2194.71 561.534 Q2196.56 559.382 2196.56 555.632 Q2196.56 551.905 2194.71 549.752 Q2192.88 547.576 2189.73 547.576 Q2186.59 547.576 2184.73 549.752 Q2182.91 551.905 2182.91 555.632 Q2182.91 559.382 2184.73 561.534 Q2186.59 563.687 2189.73 563.687 Z" fill="#000000" fill-rule="evenodd" fill-opacity="1" /><circle clip-path="url(#clip440)" cx="2052.29" cy="613.618" r="23.04" fill="#8e971d" fill-rule="evenodd" fill-opacity="1" stroke="#000000" stroke-opacity="1" stroke-width="5.12"/>
<path clip-path="url(#clip440)" d="M2162.42 633.305 Q2160.61 637.935 2158.9 639.347 Q2157.19 640.759 2154.32 640.759 L2150.91 640.759 L2150.91 637.194 L2153.41 637.194 Q2155.17 637.194 2156.15 636.36 Q2157.12 635.527 2158.3 632.425 L2159.06 630.481 L2148.58 604.972 L2153.09 604.972 L2161.19 625.249 L2169.29 604.972 L2173.81 604.972 L2162.42 633.305 Z" fill="#000000" fill-rule="evenodd" fill-opacity="1" /><path clip-path="url(#clip440)" d="M2181.1 626.962 L2188.74 626.962 L2188.74 600.597 L2180.43 602.263 L2180.43 598.004 L2188.69 596.338 L2193.37 596.338 L2193.37 626.962 L2201.01 626.962 L2201.01 630.898 L2181.1 630.898 L2181.1 626.962 Z" fill="#000000" fill-rule="evenodd" fill-opacity="1" /><path clip-path="url(#clip440)" d="M2220.45 599.416 Q2216.84 599.416 2215.01 602.981 Q2213.21 606.523 2213.21 613.652 Q2213.21 620.759 2215.01 624.324 Q2216.84 627.865 2220.45 627.865 Q2224.09 627.865 2225.89 624.324 Q2227.72 620.759 2227.72 613.652 Q2227.72 606.523 2225.89 602.981 Q2224.09 599.416 2220.45 599.416 M2220.45 595.713 Q2226.26 595.713 2229.32 600.319 Q2232.4 604.902 2232.4 613.652 Q2232.4 622.379 2229.32 626.986 Q2226.26 631.569 2220.45 631.569 Q2214.64 631.569 2211.56 626.986 Q2208.51 622.379 2208.51 613.652 Q2208.51 604.902 2211.56 600.319 Q2214.64 595.713 2220.45 595.713 Z" fill="#000000" fill-rule="evenodd" fill-opacity="1" /></svg>
