<?xml version="1.0" encoding="utf-8"?>
<svg xmlns="http://www.w3.org/2000/svg" xmlns:xlink="http://www.w3.org/1999/xlink" width="600" height="400" viewBox="0 0 2400 1600">
<defs>
  <clipPath id="clip180">
    <rect x="0" y="0" width="2400" height="1600"/>
  </clipPath>
</defs>
<path clip-path="url(#clip180)" d="
M0 1600 L2400 1600 L2400 0 L0 0  Z
  " fill="#ffffff" fill-rule="evenodd" fill-opacity="1"/>
<defs>
  <clipPath id="clip181">
    <rect x="480" y="0" width="1681" height="1600"/>
  </clipPath>
</defs>
<path clip-path="url(#clip180)" d="
M187.803 1474.16 L2352.76 1474.16 L2352.76 47.2441 L187.803 47.2441  Z
  " fill="#ffffff" fill-rule="evenodd" fill-opacity="1"/>
<defs>
  <clipPath id="clip182">
    <rect x="187" y="47" width="2166" height="1428"/>
  </clipPath>
</defs>
<polyline clip-path="url(#clip182)" style="stroke:#000000; stroke-linecap:butt; stroke-linejoin:round; stroke-width:2; stroke-opacity:0.1; fill:none" points="
  249.075,1474.16 249.075,47.2441 
  "/>
<polyline clip-path="url(#clip182)" style="stroke:#000000; stroke-linecap:butt; stroke-linejoin:round; stroke-width:2; stroke-opacity:0.1; fill:none" points="
  861.798,1474.16 861.798,47.2441 
  "/>
<polyline clip-path="url(#clip182)" style="stroke:#000000; stroke-linecap:butt; stroke-linejoin:round; stroke-width:2; stroke-opacity:0.1; fill:none" points="
  1474.52,1474.16 1474.52,47.2441 
  "/>
<polyline clip-path="url(#clip182)" style="stroke:#000000; stroke-linecap:butt; stroke-linejoin:round; stroke-width:2; stroke-opacity:0.1; fill:none" points="
  2087.24,1474.16 2087.24,47.2441 
  "/>
<polyline clip-path="url(#clip180)" style="stroke:#000000; stroke-linecap:butt; stroke-linejoin:round; stroke-width:4; stroke-opacity:1; fill:none" points="
  187.803,1474.16 2352.76,1474.16 
  "/>
<polyline clip-path="url(#clip180)" style="stroke:#000000; stroke-linecap:butt; stroke-linejoin:round; stroke-width:4; stroke-opacity:1; fill:none" points="
  249.075,1474.16 249.075,1455.27 
  "/>
<polyline clip-path="url(#clip180)" style="stroke:#000000; stroke-linecap:butt; stroke-linejoin:round; stroke-width:4; stroke-opacity:1; fill:none" points="
  861.798,1474.16 861.798,1455.27 
  "/>
<polyline clip-path="url(#clip180)" style="stroke:#000000; stroke-linecap:butt; stroke-linejoin:round; stroke-width:4; stroke-opacity:1; fill:none" points="
  1474.52,1474.16 1474.52,1455.27 
  "/>
<polyline clip-path="url(#clip180)" style="stroke:#000000; stroke-linecap:butt; stroke-linejoin:round; stroke-width:4; stroke-opacity:1; fill:none" points="
  2087.24,1474.16 2087.24,1455.27 
  "/>
<path clip-path="url(#clip180)" d="M195.881 1548.29 L203.519 1548.29 L203.519 1521.92 L195.209 1523.59 L195.209 1519.33 L203.473 1517.66 L208.149 1517.66 L208.149 1548.29 L215.788 1548.29 L215.788 1552.22 L195.881 1552.22 L195.881 1548.29 Z" fill="#000000" fill-rule="evenodd" fill-opacity="1" /><path clip-path="url(#clip180)" d="M235.232 1520.74 Q231.621 1520.74 229.792 1524.31 Q227.987 1527.85 227.987 1534.98 Q227.987 1542.09 229.792 1545.65 Q231.621 1549.19 235.232 1549.19 Q238.866 1549.19 240.672 1545.65 Q242.501 1542.09 242.501 1534.98 Q242.501 1527.85 240.672 1524.31 Q238.866 1520.74 235.232 1520.74 M235.232 1517.04 Q241.042 1517.04 244.098 1521.65 Q247.177 1526.23 247.177 1534.98 Q247.177 1543.71 244.098 1548.31 Q241.042 1552.9 235.232 1552.9 Q229.422 1552.9 226.343 1548.31 Q223.288 1543.71 223.288 1534.98 Q223.288 1526.23 226.343 1521.65 Q229.422 1517.04 235.232 1517.04 Z" fill="#000000" fill-rule="evenodd" fill-opacity="1" /><path clip-path="url(#clip180)" d="M259.872 1509.67 Q262.599 1510.26 264.122 1512.1 Q265.665 1513.94 265.665 1516.65 Q265.665 1520.81 262.806 1523.08 Q259.947 1525.36 254.681 1525.36 Q252.913 1525.36 251.032 1525 Q249.17 1524.66 247.177 1523.97 L247.177 1520.3 Q248.756 1521.22 250.637 1521.69 Q252.518 1522.16 254.568 1522.16 Q258.142 1522.16 260.004 1520.75 Q261.884 1519.34 261.884 1516.65 Q261.884 1514.17 260.135 1512.78 Q258.405 1511.37 255.302 1511.37 L252.029 1511.37 L252.029 1508.24 L255.452 1508.24 Q258.254 1508.24 259.74 1507.13 Q261.226 1506.01 261.226 1503.9 Q261.226 1501.74 259.684 1500.59 Q258.16 1499.42 255.302 1499.42 Q253.741 1499.42 251.954 1499.76 Q250.167 1500.1 248.023 1500.82 L248.023 1497.43 Q250.186 1496.83 252.067 1496.53 Q253.966 1496.23 255.64 1496.23 Q259.966 1496.23 262.486 1498.2 Q265.006 1500.16 265.006 1503.51 Q265.006 1505.84 263.671 1507.45 Q262.336 1509.05 259.872 1509.67 Z" fill="#000000" fill-rule="evenodd" fill-opacity="1" /><path clip-path="url(#clip180)" d="M272.868 1520.04 L276.836 1520.04 L276.836 1524.81 L272.868 1524.81 L272.868 1520.04 Z" fill="#000000" fill-rule="evenodd" fill-opacity="1" /><path clip-path="url(#clip180)" d="M293.237 1499.24 Q290.303 1499.24 288.817 1502.13 Q287.35 1505.01 287.35 1510.8 Q287.35 1516.58 288.817 1519.47 Q290.303 1522.35 293.237 1522.35 Q296.19 1522.35 297.657 1519.47 Q299.142 1516.58 299.142 1510.8 Q299.142 1505.01 297.657 1502.13 Q296.19 1499.24 293.237 1499.24 M293.237 1496.23 Q297.958 1496.23 300.44 1499.97 Q302.942 1503.69 302.942 1510.8 Q302.942 1517.89 300.44 1521.64 Q297.958 1525.36 293.237 1525.36 Q288.516 1525.36 286.015 1521.64 Q283.532 1517.89 283.532 1510.8 Q283.532 1503.69 286.015 1499.97 Q288.516 1496.23 293.237 1496.23 Z" fill="#000000" fill-rule="evenodd" fill-opacity="1" /><path clip-path="url(#clip180)" d="M808.866 1548.29 L816.505 1548.29 L816.505 1521.92 L808.195 1523.59 L808.195 1519.33 L816.459 1517.66 L821.135 1517.66 L821.135 1548.29 L828.774 1548.29 L828.774 1552.22 L808.866 1552.22 L808.866 1548.29 Z" fill="#000000" fill-rule="evenodd" fill-opacity="1" /><path clip-path="url(#clip180)" d="M848.218 1520.74 Q844.607 1520.74 842.778 1524.31 Q840.973 1527.85 840.973 1534.98 Q840.973 1542.09 842.778 1545.65 Q844.607 1549.19 848.218 1549.19 Q851.852 1549.19 853.658 1545.65 Q855.486 1542.09 855.486 1534.98 Q855.486 1527.85 853.658 1524.31 Q851.852 1520.74 848.218 1520.74 M848.218 1517.04 Q854.028 1517.04 857.084 1521.65 Q860.162 1526.23 860.162 1534.98 Q860.162 1543.71 857.084 1548.31 Q854.028 1552.9 848.218 1552.9 Q842.408 1552.9 839.329 1548.31 Q836.274 1543.71 836.274 1534.98 Q836.274 1526.23 839.329 1521.65 Q842.408 1517.04 848.218 1517.04 Z" fill="#000000" fill-rule="evenodd" fill-opacity="1" /><path clip-path="url(#clip180)" d="M872.858 1509.67 Q875.585 1510.26 877.108 1512.1 Q878.65 1513.94 878.65 1516.65 Q878.65 1520.81 875.792 1523.08 Q872.933 1525.36 867.667 1525.36 Q865.899 1525.36 864.018 1525 Q862.156 1524.66 860.162 1523.97 L860.162 1520.3 Q861.742 1521.22 863.623 1521.69 Q865.504 1522.16 867.554 1522.16 Q871.127 1522.16 872.989 1520.75 Q874.87 1519.34 874.87 1516.65 Q874.87 1514.17 873.121 1512.78 Q871.391 1511.37 868.287 1511.37 L865.015 1511.37 L865.015 1508.24 L868.438 1508.24 Q871.24 1508.24 872.726 1507.13 Q874.212 1506.01 874.212 1503.9 Q874.212 1501.74 872.67 1500.59 Q871.146 1499.42 868.287 1499.42 Q866.726 1499.42 864.94 1499.76 Q863.153 1500.1 861.009 1500.82 L861.009 1497.43 Q863.172 1496.83 865.052 1496.53 Q866.952 1496.23 868.626 1496.23 Q872.952 1496.23 875.472 1498.2 Q877.992 1500.16 877.992 1503.51 Q877.992 1505.84 876.657 1507.45 Q875.321 1509.05 872.858 1509.67 Z" fill="#000000" fill-rule="evenodd" fill-opacity="1" /><path clip-path="url(#clip180)" d="M885.854 1520.04 L889.822 1520.04 L889.822 1524.81 L885.854 1524.81 L885.854 1520.04 Z" fill="#000000" fill-rule="evenodd" fill-opacity="1" /><path clip-path="url(#clip180)" d="M909.608 1509.67 Q912.335 1510.26 913.859 1512.1 Q915.401 1513.94 915.401 1516.65 Q915.401 1520.81 912.542 1523.08 Q909.683 1525.36 904.417 1525.36 Q902.649 1525.36 900.768 1525 Q898.906 1524.66 896.913 1523.97 L896.913 1520.3 Q898.493 1521.22 900.373 1521.69 Q902.254 1522.16 904.304 1522.16 Q907.878 1522.16 909.74 1520.75 Q911.62 1519.34 911.62 1516.65 Q911.62 1514.17 909.871 1512.78 Q908.141 1511.37 905.038 1511.37 L901.765 1511.37 L901.765 1508.24 L905.188 1508.24 Q907.991 1508.24 909.476 1507.13 Q910.962 1506.01 910.962 1503.9 Q910.962 1501.74 909.42 1500.59 Q907.896 1499.42 905.038 1499.42 Q903.477 1499.42 901.69 1499.76 Q899.903 1500.1 897.759 1500.82 L897.759 1497.43 Q899.922 1496.83 901.803 1496.53 Q903.702 1496.23 905.376 1496.23 Q909.702 1496.23 912.222 1498.2 Q914.743 1500.16 914.743 1503.51 Q914.743 1505.84 913.407 1507.45 Q912.072 1509.05 909.608 1509.67 Z" fill="#000000" fill-rule="evenodd" fill-opacity="1" /><path clip-path="url(#clip180)" d="M1421.26 1548.29 L1428.9 1548.29 L1428.9 1521.92 L1420.59 1523.59 L1420.59 1519.33 L1428.85 1517.66 L1433.53 1517.66 L1433.53 1548.29 L1441.17 1548.29 L1441.17 1552.22 L1421.26 1552.22 L1421.26 1548.29 Z" fill="#000000" fill-rule="evenodd" fill-opacity="1" /><path clip-path="url(#clip180)" d="M1460.61 1520.74 Q1457 1520.74 1455.17 1524.31 Q1453.37 1527.85 1453.37 1534.98 Q1453.37 1542.09 1455.17 1545.65 Q1457 1549.19 1460.61 1549.19 Q1464.25 1549.19 1466.05 1545.65 Q1467.88 1542.09 1467.88 1534.98 Q1467.88 1527.85 1466.05 1524.31 Q1464.25 1520.74 1460.61 1520.74 M1460.61 1517.04 Q1466.42 1517.04 1469.48 1521.65 Q1472.56 1526.23 1472.56 1534.98 Q1472.56 1543.71 1469.48 1548.31 Q1466.42 1552.9 1460.61 1552.9 Q1454.8 1552.9 1451.72 1548.31 Q1448.67 1543.71 1448.67 1534.98 Q1448.67 1526.23 1451.72 1521.65 Q1454.8 1517.04 1460.61 1517.04 Z" fill="#000000" fill-rule="evenodd" fill-opacity="1" /><path clip-path="url(#clip180)" d="M1485.25 1509.67 Q1487.98 1510.26 1489.5 1512.1 Q1491.04 1513.94 1491.04 1516.65 Q1491.04 1520.81 1488.18 1523.08 Q1485.33 1525.36 1480.06 1525.36 Q1478.29 1525.36 1476.41 1525 Q1474.55 1524.66 1472.56 1523.97 L1472.56 1520.3 Q1474.14 1521.22 1476.02 1521.69 Q1477.9 1522.16 1479.95 1522.16 Q1483.52 1522.16 1485.38 1520.75 Q1487.26 1519.34 1487.26 1516.65 Q1487.26 1514.17 1485.51 1512.78 Q1483.78 1511.37 1480.68 1511.37 L1477.41 1511.37 L1477.41 1508.24 L1480.83 1508.24 Q1483.63 1508.24 1485.12 1507.13 Q1486.61 1506.01 1486.61 1503.9 Q1486.61 1501.74 1485.06 1500.59 Q1483.54 1499.42 1480.68 1499.42 Q1479.12 1499.42 1477.33 1499.76 Q1475.55 1500.1 1473.4 1500.82 L1473.4 1497.43 Q1475.56 1496.83 1477.45 1496.53 Q1479.35 1496.23 1481.02 1496.23 Q1485.34 1496.23 1487.87 1498.2 Q1490.39 1500.16 1490.39 1503.51 Q1490.39 1505.84 1489.05 1507.45 Q1487.71 1509.05 1485.25 1509.67 Z" fill="#000000" fill-rule="evenodd" fill-opacity="1" /><path clip-path="url(#clip180)" d="M1498.25 1520.04 L1502.22 1520.04 L1502.22 1524.81 L1498.25 1524.81 L1498.25 1520.04 Z" fill="#000000" fill-rule="evenodd" fill-opacity="1" /><path clip-path="url(#clip180)" d="M1519.09 1509.26 Q1516.53 1509.26 1515.02 1511.01 Q1513.54 1512.76 1513.54 1515.81 Q1513.54 1518.83 1515.02 1520.6 Q1516.53 1522.35 1519.09 1522.35 Q1521.64 1522.35 1523.13 1520.6 Q1524.63 1518.83 1524.63 1515.81 Q1524.63 1512.76 1523.13 1511.01 Q1521.64 1509.26 1519.09 1509.26 M1526.63 1497.35 L1526.63 1500.82 Q1525.2 1500.14 1523.73 1499.78 Q1522.28 1499.42 1520.85 1499.42 Q1517.09 1499.42 1515.1 1501.96 Q1513.12 1504.5 1512.84 1509.64 Q1513.95 1508 1515.63 1507.13 Q1517.3 1506.25 1519.31 1506.25 Q1523.54 1506.25 1525.99 1508.83 Q1528.45 1511.39 1528.45 1515.81 Q1528.45 1520.13 1525.89 1522.75 Q1523.34 1525.36 1519.09 1525.36 Q1514.21 1525.36 1511.64 1521.64 Q1509.06 1517.89 1509.06 1510.8 Q1509.06 1504.14 1512.22 1500.19 Q1515.38 1496.23 1520.7 1496.23 Q1522.13 1496.23 1523.58 1496.51 Q1525.05 1496.79 1526.63 1497.35 Z" fill="#000000" fill-rule="evenodd" fill-opacity="1" /><path clip-path="url(#clip180)" d="M2034.12 1548.29 L2041.76 1548.29 L2041.76 1521.92 L2033.45 1523.59 L2033.45 1519.33 L2041.72 1517.66 L2046.39 1517.66 L2046.39 1548.29 L2054.03 1548.29 L2054.03 1552.22 L2034.12 1552.22 L2034.12 1548.29 Z" fill="#000000" fill-rule="evenodd" fill-opacity="1" /><path clip-path="url(#clip180)" d="M2073.47 1520.74 Q2069.86 1520.74 2068.04 1524.31 Q2066.23 1527.85 2066.23 1534.98 Q2066.23 1542.09 2068.04 1545.65 Q2069.86 1549.19 2073.47 1549.19 Q2077.11 1549.19 2078.91 1545.65 Q2080.74 1542.09 2080.74 1534.98 Q2080.74 1527.85 2078.91 1524.31 Q2077.11 1520.74 2073.47 1520.74 M2073.47 1517.04 Q2079.28 1517.04 2082.34 1521.65 Q2085.42 1526.23 2085.42 1534.98 Q2085.42 1543.71 2082.34 1548.31 Q2079.28 1552.9 2073.47 1552.9 Q2067.66 1552.9 2064.59 1548.31 Q2061.53 1543.71 2061.53 1534.98 Q2061.53 1526.23 2064.59 1521.65 Q2067.66 1517.04 2073.47 1517.04 Z" fill="#000000" fill-rule="evenodd" fill-opacity="1" /><path clip-path="url(#clip180)" d="M2098.11 1509.67 Q2100.84 1510.26 2102.37 1512.1 Q2103.91 1513.94 2103.91 1516.65 Q2103.91 1520.81 2101.05 1523.08 Q2098.19 1525.36 2092.92 1525.36 Q2091.16 1525.36 2089.27 1525 Q2087.41 1524.66 2085.42 1523.97 L2085.42 1520.3 Q2087 1521.22 2088.88 1521.69 Q2090.76 1522.16 2092.81 1522.16 Q2096.38 1522.16 2098.25 1520.75 Q2100.13 1519.34 2100.13 1516.65 Q2100.13 1514.17 2098.38 1512.78 Q2096.65 1511.37 2093.54 1511.37 L2090.27 1511.37 L2090.27 1508.24 L2093.69 1508.24 Q2096.5 1508.24 2097.98 1507.13 Q2099.47 1506.01 2099.47 1503.9 Q2099.47 1501.74 2097.93 1500.59 Q2096.4 1499.42 2093.54 1499.42 Q2091.98 1499.42 2090.2 1499.76 Q2088.41 1500.1 2086.27 1500.82 L2086.27 1497.43 Q2088.43 1496.83 2090.31 1496.53 Q2092.21 1496.23 2093.88 1496.23 Q2098.21 1496.23 2100.73 1498.2 Q2103.25 1500.16 2103.25 1503.51 Q2103.25 1505.84 2101.91 1507.45 Q2100.58 1509.05 2098.11 1509.67 Z" fill="#000000" fill-rule="evenodd" fill-opacity="1" /><path clip-path="url(#clip180)" d="M2111.11 1520.04 L2115.08 1520.04 L2115.08 1524.81 L2111.11 1524.81 L2111.11 1520.04 Z" fill="#000000" fill-rule="evenodd" fill-opacity="1" /><path clip-path="url(#clip180)" d="M2123.47 1524.23 L2123.47 1520.77 Q2124.9 1521.45 2126.36 1521.81 Q2127.83 1522.16 2129.24 1522.16 Q2133 1522.16 2134.98 1519.64 Q2136.97 1517.1 2137.25 1511.95 Q2136.16 1513.57 2134.49 1514.43 Q2132.81 1515.3 2130.78 1515.3 Q2126.57 1515.3 2124.11 1512.76 Q2121.66 1510.2 2121.66 1505.78 Q2121.66 1501.46 2124.22 1498.84 Q2126.78 1496.23 2131.03 1496.23 Q2135.9 1496.23 2138.46 1499.97 Q2141.03 1503.69 2141.03 1510.8 Q2141.03 1517.44 2137.87 1521.41 Q2134.73 1525.36 2129.41 1525.36 Q2127.98 1525.36 2126.51 1525.08 Q2125.05 1524.8 2123.47 1524.23 M2131.03 1512.33 Q2133.59 1512.33 2135.07 1510.58 Q2136.58 1508.83 2136.58 1505.78 Q2136.58 1502.75 2135.07 1501 Q2133.59 1499.24 2131.03 1499.24 Q2128.47 1499.24 2126.97 1501 Q2125.48 1502.75 2125.48 1505.78 Q2125.48 1508.83 2126.97 1510.58 Q2128.47 1512.33 2131.03 1512.33 Z" fill="#000000" fill-rule="evenodd" fill-opacity="1" /><polyline clip-path="url(#clip182)" style="stroke:#000000; stroke-linecap:butt; stroke-linejoin:round; stroke-width:2; stroke-opacity:0.1; fill:none" points="
  187.803,1038.83 2352.76,1038.83 
  "/>
<polyline clip-path="url(#clip182)" style="stroke:#000000; stroke-linecap:butt; stroke-linejoin:round; stroke-width:2; stroke-opacity:0.1; fill:none" points="
  187.803,404.696 2352.76,404.696 
  "/>
<polyline clip-path="url(#clip180)" style="stroke:#000000; stroke-linecap:butt; stroke-linejoin:round; stroke-width:4; stroke-opacity:1; fill:none" points="
  187.803,1474.16 187.803,47.2441 
  "/>
<polyline clip-path="url(#clip180)" style="stroke:#000000; stroke-linecap:butt; stroke-linejoin:round; stroke-width:4; stroke-opacity:1; fill:none" points="
  187.803,1038.83 206.701,1038.83 
  "/>
<polyline clip-path="url(#clip180)" style="stroke:#000000; stroke-linecap:butt; stroke-linejoin:round; stroke-width:4; stroke-opacity:1; fill:none" points="
  187.803,404.696 206.701,404.696 
  "/>
<path clip-path="url(#clip180)" d="M51.6634 1058.62 L59.3023 1058.62 L59.3023 1032.26 L50.9921 1033.92 L50.9921 1029.66 L59.256 1028 L63.9319 1028 L63.9319 1058.62 L71.5707 1058.62 L71.5707 1062.56 L51.6634 1062.56 L51.6634 1058.62 Z" fill="#000000" fill-rule="evenodd" fill-opacity="1" /><path clip-path="url(#clip180)" d="M91.0151 1031.08 Q87.404 1031.08 85.5753 1034.64 Q83.7697 1038.18 83.7697 1045.31 Q83.7697 1052.42 85.5753 1055.98 Q87.404 1059.52 91.0151 1059.52 Q94.6493 1059.52 96.4548 1055.98 Q98.2835 1052.42 98.2835 1045.31 Q98.2835 1038.18 96.4548 1034.64 Q94.6493 1031.08 91.0151 1031.08 M91.0151 1027.37 Q96.8252 1027.37 99.8808 1031.98 Q102.959 1036.56 102.959 1045.31 Q102.959 1054.04 99.8808 1058.64 Q96.8252 1063.23 91.0151 1063.23 Q85.2049 1063.23 82.1262 1058.64 Q79.0707 1054.04 79.0707 1045.31 Q79.0707 1036.56 82.1262 1031.98 Q85.2049 1027.37 91.0151 1027.37 Z" fill="#000000" fill-rule="evenodd" fill-opacity="1" /><path clip-path="url(#clip180)" d="M102.959 1021.47 L127.071 1021.47 L127.071 1024.67 L102.959 1024.67 L102.959 1021.47 Z" fill="#000000" fill-rule="evenodd" fill-opacity="1" /><path clip-path="url(#clip180)" d="M138.544 1031.95 L151.803 1031.95 L151.803 1035.15 L133.973 1035.15 L133.973 1031.95 Q136.136 1029.71 139.86 1025.95 Q143.603 1022.17 144.562 1021.08 Q146.387 1019.03 147.101 1017.62 Q147.835 1016.19 147.835 1014.82 Q147.835 1012.58 146.255 1011.17 Q144.694 1009.76 142.174 1009.76 Q140.387 1009.76 138.393 1010.38 Q136.418 1011 134.162 1012.26 L134.162 1008.42 Q136.456 1007.5 138.45 1007.03 Q140.443 1006.56 142.098 1006.56 Q146.462 1006.56 149.057 1008.74 Q151.653 1010.92 151.653 1014.57 Q151.653 1016.3 150.994 1017.86 Q150.355 1019.4 148.644 1021.51 Q148.173 1022.06 145.653 1024.67 Q143.133 1027.27 138.544 1031.95 Z" fill="#000000" fill-rule="evenodd" fill-opacity="1" /><path clip-path="url(#clip180)" d="M81.0976 424.488 L88.7364 424.488 L88.7364 398.122 L80.4263 399.789 L80.4263 395.53 L88.6901 393.863 L93.366 393.863 L93.366 424.488 L101.005 424.488 L101.005 428.423 L81.0976 428.423 L81.0976 424.488 Z" fill="#000000" fill-rule="evenodd" fill-opacity="1" /><path clip-path="url(#clip180)" d="M120.449 396.942 Q116.838 396.942 115.009 400.507 Q113.204 404.048 113.204 411.178 Q113.204 418.284 115.009 421.849 Q116.838 425.391 120.449 425.391 Q124.083 425.391 125.889 421.849 Q127.718 418.284 127.718 411.178 Q127.718 404.048 125.889 400.507 Q124.083 396.942 120.449 396.942 M120.449 393.238 Q126.259 393.238 129.315 397.845 Q132.394 402.428 132.394 411.178 Q132.394 419.905 129.315 424.511 Q126.259 429.094 120.449 429.094 Q114.639 429.094 111.56 424.511 Q108.505 419.905 108.505 411.178 Q108.505 402.428 111.56 397.845 Q114.639 393.238 120.449 393.238 Z" fill="#000000" fill-rule="evenodd" fill-opacity="1" /><path clip-path="url(#clip180)" d="M142.098 375.434 Q139.164 375.434 137.679 378.331 Q136.212 381.208 136.212 387.001 Q136.212 392.775 137.679 395.671 Q139.164 398.549 142.098 398.549 Q145.051 398.549 146.518 395.671 Q148.004 392.775 148.004 387.001 Q148.004 381.208 146.518 378.331 Q145.051 375.434 142.098 375.434 M142.098 372.425 Q146.819 372.425 149.302 376.168 Q151.803 379.892 151.803 387.001 Q151.803 394.091 149.302 397.834 Q146.819 401.558 142.098 401.558 Q137.378 401.558 134.876 397.834 Q132.394 394.091 132.394 387.001 Q132.394 379.892 134.876 376.168 Q137.378 372.425 142.098 372.425 Z" fill="#000000" fill-rule="evenodd" fill-opacity="1" /><circle clip-path="url(#clip182)" cx="249.075" cy="1433.78" r="14.4" fill="#009af9" fill-rule="evenodd" fill-opacity="1" stroke="#000000" stroke-opacity="1" stroke-width="3.2"/>
<circle clip-path="url(#clip182)" cx="863.902" cy="1343.15" r="14.4" fill="#009af9" fill-rule="evenodd" fill-opacity="1" stroke="#000000" stroke-opacity="1" stroke-width="3.2"/>
<circle clip-path="url(#clip182)" cx="1223.55" cy="1302.96" r="14.4" fill="#009af9" fill-rule="evenodd" fill-opacity="1" stroke="#000000" stroke-opacity="1" stroke-width="3.2"/>
<circle clip-path="url(#clip182)" cx="1478.73" cy="1259.99" r="14.4" fill="#009af9" fill-rule="evenodd" fill-opacity="1" stroke="#000000" stroke-opacity="1" stroke-width="3.2"/>
<circle clip-path="url(#clip182)" cx="1676.66" cy="1236.38" r="14.4" fill="#009af9" fill-rule="evenodd" fill-opacity="1" stroke="#000000" stroke-opacity="1" stroke-width="3.2"/>
<circle clip-path="url(#clip182)" cx="1838.38" cy="1211" r="14.4" fill="#009af9" fill-rule="evenodd" fill-opacity="1" stroke="#000000" stroke-opacity="1" stroke-width="3.2"/>
<circle clip-path="url(#clip182)" cx="1975.11" cy="1153.09" r="14.4" fill="#009af9" fill-rule="evenodd" fill-opacity="1" stroke="#000000" stroke-opacity="1" stroke-width="3.2"/>
<circle clip-path="url(#clip182)" cx="2093.55" cy="1154.17" r="14.4" fill="#009af9" fill-rule="evenodd" fill-opacity="1" stroke="#000000" stroke-opacity="1" stroke-width="3.2"/>
<circle clip-path="url(#clip182)" cx="2198.03" cy="1145.39" r="14.4" fill="#009af9" fill-rule="evenodd" fill-opacity="1" stroke="#000000" stroke-opacity="1" stroke-width="3.2"/>
<circle clip-path="url(#clip182)" cx="2291.48" cy="1132" r="14.4" fill="#009af9" fill-rule="evenodd" fill-opacity="1" stroke="#000000" stroke-opacity="1" stroke-width="3.2"/>
<polyline clip-path="url(#clip182)" style="stroke:#e26f46; stroke-linecap:butt; stroke-linejoin:round; stroke-width:12; stroke-opacity:1; fill:none" points="
  249.075,1038.83 299.584,1030.99 666.188,974.076 830.453,948.575 948.955,930.179 1061.94,912.639 1154.72,898.236 1244.46,884.304 1338.22,869.749 1413.96,857.991 
  1475.44,848.447 1537.94,838.743 1596.67,829.627 1657.37,820.204 1711.5,811.8 1764.49,803.574 1806.77,797.01 1855.79,789.4 1898.44,782.779 1936.09,776.935 
  1972.66,771.257 2011.93,765.16 2046.08,759.859 2083.62,754.031 2117.03,748.846 2148.77,743.918 2178.54,739.297 2208.05,734.715 2239.3,729.864 2282.81,723.108 
  2291.48,721.762 
  "/>
<polyline clip-path="url(#clip182)" style="stroke:#3da44d; stroke-linecap:butt; stroke-linejoin:round; stroke-width:12; stroke-opacity:1; fill:none" points="
  249.075,1038.83 299.584,1023.15 666.188,909.323 830.453,858.321 948.955,821.528 1061.94,786.448 1154.72,757.642 1244.46,729.778 1338.22,700.668 1413.96,677.152 
  1475.44,658.064 1537.94,638.658 1596.67,620.425 1657.37,601.579 1711.5,584.77 1764.49,568.318 1806.77,555.192 1855.79,539.97 1898.44,526.729 1936.09,515.04 
  1972.66,503.684 2011.93,491.491 2046.08,480.89 2083.62,469.232 2117.03,458.862 2148.77,449.007 2178.54,439.764 2208.05,430.6 2239.3,420.898 2282.81,407.387 
  2291.48,404.696 
  "/>
<polyline clip-path="url(#clip182)" style="stroke:#c271d2; stroke-linecap:butt; stroke-linejoin:round; stroke-width:12; stroke-opacity:1; fill:none" points="
  249.075,1038.83 299.584,1015.31 666.188,844.57 830.453,768.067 948.955,712.878 1061.94,660.257 1154.72,617.049 1244.46,575.252 1338.22,531.588 1413.96,496.314 
  1475.44,467.681 1537.94,438.572 1596.67,411.222 1627.54,396.846 1657.37,382.953 1684.85,370.155 1711.5,357.741 1738.39,345.217 1764.49,333.062 1785.88,323.1 
  1806.77,313.373 1831.62,301.799 1855.79,290.541 1877.37,280.49 1898.44,270.678 1917.47,261.818 1936.09,253.145 1954.56,244.541 1972.66,236.112 1992.52,226.866 
  2011.93,217.822 2029.17,209.794 2046.08,201.92 2065.05,193.084 2083.62,184.434 2100.48,176.583 2117.03,168.878 2133.04,161.421 2148.77,154.095 2163.78,147.105 
  2178.54,140.231 2193.42,133.301 2208.05,126.486 2223.81,119.145 2239.3,111.933 2250.38,106.772 2261.32,101.675 2272.13,96.6405 2282.81,91.6663 2284.99,90.6531 
  2287.16,89.6425 2289.32,88.6344 2291.48,87.6286 
  "/>
<path clip-path="url(#clip180)" d="
M1948.21 354.008 L2280.59 354.008 L2280.59 94.8081 L1948.21 94.8081  Z
  " fill="#ffffff" fill-rule="evenodd" fill-opacity="1"/>
<polyline clip-path="url(#clip180)" style="stroke:#000000; stroke-linecap:butt; stroke-linejoin:round; stroke-width:4; stroke-opacity:1; fill:none" points="
  1948.21,354.008 2280.59,354.008 2280.59,94.8081 1948.21,94.8081 1948.21,354.008 
  "/>
<circle clip-path="url(#clip180)" cx="2044.43" cy="146.648" r="23.04" fill="#009af9" fill-rule="evenodd" fill-opacity="1" stroke="#000000" stroke-opacity="1" stroke-width="5.12"/>
<path clip-path="url(#clip180)" d="M2154.5 166.336 Q2152.69 170.965 2150.98 172.377 Q2149.26 173.789 2146.39 173.789 L2142.99 173.789 L2142.99 170.224 L2145.49 170.224 Q2147.25 170.224 2148.22 169.391 Q2149.19 168.558 2150.37 165.456 L2151.14 163.511 L2140.65 138.002 L2145.17 138.002 L2153.27 158.28 L2161.37 138.002 L2165.88 138.002 L2154.5 166.336 Z" fill="#000000" fill-rule="evenodd" fill-opacity="1" /><path clip-path="url(#clip180)" d="M2173.18 159.993 L2180.81 159.993 L2180.81 133.627 L2172.5 135.294 L2172.5 131.035 L2180.77 129.368 L2185.44 129.368 L2185.44 159.993 L2193.08 159.993 L2193.08 163.928 L2173.18 163.928 L2173.18 159.993 Z" fill="#000000" fill-rule="evenodd" fill-opacity="1" /><polyline clip-path="url(#clip180)" style="stroke:#e26f46; stroke-linecap:butt; stroke-linejoin:round; stroke-width:4; stroke-opacity:1; fill:none" points="
  1972.27,198.488 2116.6,198.488 
  "/>
<path clip-path="url(#clip180)" d="M2162.37 200.12 L2162.37 215.768 L2158.11 215.768 L2158.11 200.259 Q2158.11 196.578 2156.67 194.75 Q2155.24 192.921 2152.37 192.921 Q2148.92 192.921 2146.93 195.12 Q2144.93 197.319 2144.93 201.115 L2144.93 215.768 L2140.65 215.768 L2140.65 189.842 L2144.93 189.842 L2144.93 193.87 Q2146.46 191.532 2148.52 190.375 Q2150.61 189.217 2153.31 189.217 Q2157.78 189.217 2160.07 191.995 Q2162.37 194.75 2162.37 200.12 Z" fill="#000000" fill-rule="evenodd" fill-opacity="1" /><polyline clip-path="url(#clip180)" style="stroke:#3da44d; stroke-linecap:butt; stroke-linejoin:round; stroke-width:4; stroke-opacity:1; fill:none" points="
  1972.27,250.328 2116.6,250.328 
  "/>
<path clip-path="url(#clip180)" d="M2162.37 251.96 L2162.37 267.608 L2158.11 267.608 L2158.11 252.099 Q2158.11 248.418 2156.67 246.59 Q2155.24 244.761 2152.37 244.761 Q2148.92 244.761 2146.93 246.96 Q2144.93 249.159 2144.93 252.955 L2144.93 267.608 L2140.65 267.608 L2140.65 241.682 L2144.93 241.682 L2144.93 245.71 Q2146.46 243.372 2148.52 242.215 Q2150.61 241.057 2153.31 241.057 Q2157.78 241.057 2160.07 243.835 Q2162.37 246.59 2162.37 251.96 Z" fill="#000000" fill-rule="evenodd" fill-opacity="1" /><path clip-path="url(#clip180)" d="M2188.52 233.048 L2201.09 245.942 L2196.44 245.942 L2186.25 236.798 L2176.07 245.942 L2171.42 245.942 L2183.99 233.048 L2188.52 233.048 Z" fill="#000000" fill-rule="evenodd" fill-opacity="1" /><path clip-path="url(#clip180)" d="M2215.21 263.673 L2231.53 263.673 L2231.53 267.608 L2209.59 267.608 L2209.59 263.673 Q2212.25 260.918 2216.83 256.289 Q2221.44 251.636 2222.62 250.293 Q2224.87 247.77 2225.74 246.034 Q2226.65 244.275 2226.65 242.585 Q2226.65 239.83 2224.7 238.094 Q2222.78 236.358 2219.68 236.358 Q2217.48 236.358 2215.03 237.122 Q2212.6 237.886 2209.82 239.437 L2209.82 234.715 Q2212.64 233.581 2215.1 233.002 Q2217.55 232.423 2219.59 232.423 Q2224.96 232.423 2228.15 235.108 Q2231.35 237.793 2231.35 242.284 Q2231.35 244.414 2230.54 246.335 Q2229.75 248.233 2227.64 250.826 Q2227.06 251.497 2223.96 254.715 Q2220.86 257.909 2215.21 263.673 Z" fill="#000000" fill-rule="evenodd" fill-opacity="1" /><polyline clip-path="url(#clip180)" style="stroke:#c271d2; stroke-linecap:butt; stroke-linejoin:round; stroke-width:4; stroke-opacity:1; fill:none" points="
  1972.27,302.168 2116.6,302.168 
  "/>
<path clip-path="url(#clip180)" d="M2162.37 303.8 L2162.37 319.448 L2158.11 319.448 L2158.11 303.939 Q2158.11 300.258 2156.67 298.43 Q2155.24 296.601 2152.37 296.601 Q2148.92 296.601 2146.93 298.8 Q2144.93 300.999 2144.93 304.795 L2144.93 319.448 L2140.65 319.448 L2140.65 293.522 L2144.93 293.522 L2144.93 297.55 Q2146.46 295.212 2148.52 294.055 Q2150.61 292.897 2153.31 292.897 Q2157.78 292.897 2160.07 295.675 Q2162.37 298.43 2162.37 303.8 Z" fill="#000000" fill-rule="evenodd" fill-opacity="1" /><path clip-path="url(#clip180)" d="M2188.52 284.888 L2201.09 297.782 L2196.44 297.782 L2186.25 288.638 L2176.07 297.782 L2171.42 297.782 L2183.99 284.888 L2188.52 284.888 Z" fill="#000000" fill-rule="evenodd" fill-opacity="1" /><path clip-path="url(#clip180)" d="M2225.35 300.814 Q2228.71 301.532 2230.58 303.8 Q2232.48 306.069 2232.48 309.402 Q2232.48 314.518 2228.96 317.318 Q2225.44 320.119 2218.96 320.119 Q2216.79 320.119 2214.47 319.68 Q2212.18 319.263 2209.73 318.406 L2209.73 313.893 Q2211.67 315.027 2213.99 315.606 Q2216.3 316.184 2218.82 316.184 Q2223.22 316.184 2225.51 314.448 Q2227.83 312.712 2227.83 309.402 Q2227.83 306.346 2225.68 304.633 Q2223.55 302.897 2219.73 302.897 L2215.7 302.897 L2215.7 299.055 L2219.91 299.055 Q2223.36 299.055 2225.19 297.689 Q2227.02 296.3 2227.02 293.708 Q2227.02 291.045 2225.12 289.633 Q2223.24 288.198 2219.73 288.198 Q2217.8 288.198 2215.61 288.615 Q2213.41 289.032 2210.77 289.911 L2210.77 285.745 Q2213.43 285.004 2215.74 284.633 Q2218.08 284.263 2220.14 284.263 Q2225.47 284.263 2228.57 286.694 Q2231.67 289.101 2231.67 293.221 Q2231.67 296.092 2230.03 298.082 Q2228.38 300.05 2225.35 300.814 Z" fill="#000000" fill-rule="evenodd" fill-opacity="1" /></svg>
