<?xml version="1.0" encoding="utf-8"?>
<svg xmlns="http://www.w3.org/2000/svg" xmlns:xlink="http://www.w3.org/1999/xlink" width="600" height="400" viewBox="0 0 2400 1600">
<defs>
  <clipPath id="clip530">
    <rect x="0" y="0" width="2400" height="1600"/>
  </clipPath>
</defs>
<path clip-path="url(#clip530)" d="
M0 1600 L2400 1600 L2400 0 L0 0  Z
  " fill="#ffffff" fill-rule="evenodd" fill-opacity="1"/>
<defs>
  <clipPath id="clip531">
    <rect x="480" y="0" width="1681" height="1600"/>
  </clipPath>
</defs>
<path clip-path="url(#clip530)" d="
M216.922 1486.45 L2352.76 1486.45 L2352.76 47.2441 L216.922 47.2441  Z
  " fill="#ffffff" fill-rule="evenodd" fill-opacity="1"/>
<defs>
  <clipPath id="clip532">
    <rect x="216" y="47" width="2137" height="1440"/>
  </clipPath>
</defs>
<polyline clip-path="url(#clip532)" style="stroke:#000000; stroke-linecap:butt; stroke-linejoin:round; stroke-width:2; stroke-opacity:0.1; fill:none" points="
  277.37,1486.45 277.37,47.2441 
  "/>
<polyline clip-path="url(#clip532)" style="stroke:#000000; stroke-linecap:butt; stroke-linejoin:round; stroke-width:2; stroke-opacity:0.1; fill:none" points="
  781.105,1486.45 781.105,47.2441 
  "/>
<polyline clip-path="url(#clip532)" style="stroke:#000000; stroke-linecap:butt; stroke-linejoin:round; stroke-width:2; stroke-opacity:0.1; fill:none" points="
  1284.84,1486.45 1284.84,47.2441 
  "/>
<polyline clip-path="url(#clip532)" style="stroke:#000000; stroke-linecap:butt; stroke-linejoin:round; stroke-width:2; stroke-opacity:0.1; fill:none" points="
  1788.57,1486.45 1788.57,47.2441 
  "/>
<polyline clip-path="url(#clip532)" style="stroke:#000000; stroke-linecap:butt; stroke-linejoin:round; stroke-width:2; stroke-opacity:0.1; fill:none" points="
  2292.31,1486.45 2292.31,47.2441 
  "/>
<polyline clip-path="url(#clip530)" style="stroke:#000000; stroke-linecap:butt; stroke-linejoin:round; stroke-width:4; stroke-opacity:1; fill:none" points="
  216.922,1486.45 2352.76,1486.45 
  "/>
<polyline clip-path="url(#clip530)" style="stroke:#000000; stroke-linecap:butt; stroke-linejoin:round; stroke-width:4; stroke-opacity:1; fill:none" points="
  277.37,1486.45 277.37,1467.55 
  "/>
<polyline clip-path="url(#clip530)" style="stroke:#000000; stroke-linecap:butt; stroke-linejoin:round; stroke-width:4; stroke-opacity:1; fill:none" points="
  781.105,1486.45 781.105,1467.55 
  "/>
<polyline clip-path="url(#clip530)" style="stroke:#000000; stroke-linecap:butt; stroke-linejoin:round; stroke-width:4; stroke-opacity:1; fill:none" points="
  1284.84,1486.45 1284.84,1467.55 
  "/>
<polyline clip-path="url(#clip530)" style="stroke:#000000; stroke-linecap:butt; stroke-linejoin:round; stroke-width:4; stroke-opacity:1; fill:none" points="
  1788.57,1486.45 1788.57,1467.55 
  "/>
<polyline clip-path="url(#clip530)" style="stroke:#000000; stroke-linecap:butt; stroke-linejoin:round; stroke-width:4; stroke-opacity:1; fill:none" points="
  2292.31,1486.45 2292.31,1467.55 
  "/>
<path clip-path="url(#clip530)" d="M223.898 1532.02 L253.574 1532.02 L253.574 1535.95 L223.898 1535.95 L223.898 1532.02 Z" fill="#000000" fill-rule="evenodd" fill-opacity="1" /><path clip-path="url(#clip530)" d="M264.477 1544.91 L272.116 1544.91 L272.116 1518.55 L263.805 1520.21 L263.805 1515.95 L272.069 1514.29 L276.745 1514.29 L276.745 1544.91 L284.384 1544.91 L284.384 1548.85 L264.477 1548.85 L264.477 1544.91 Z" fill="#000000" fill-rule="evenodd" fill-opacity="1" /><path clip-path="url(#clip530)" d="M293.828 1542.97 L298.713 1542.97 L298.713 1548.85 L293.828 1548.85 L293.828 1542.97 Z" fill="#000000" fill-rule="evenodd" fill-opacity="1" /><path clip-path="url(#clip530)" d="M318.898 1517.37 Q315.287 1517.37 313.458 1520.93 Q311.652 1524.47 311.652 1531.6 Q311.652 1538.71 313.458 1542.27 Q315.287 1545.82 318.898 1545.82 Q322.532 1545.82 324.337 1542.27 Q326.166 1538.71 326.166 1531.6 Q326.166 1524.47 324.337 1520.93 Q322.532 1517.37 318.898 1517.37 M318.898 1513.66 Q324.708 1513.66 327.763 1518.27 Q330.842 1522.85 330.842 1531.6 Q330.842 1540.33 327.763 1544.94 Q324.708 1549.52 318.898 1549.52 Q313.088 1549.52 310.009 1544.94 Q306.953 1540.33 306.953 1531.6 Q306.953 1522.85 310.009 1518.27 Q313.088 1513.66 318.898 1513.66 Z" fill="#000000" fill-rule="evenodd" fill-opacity="1" /><path clip-path="url(#clip530)" d="M728.13 1532.02 L757.806 1532.02 L757.806 1535.95 L728.13 1535.95 L728.13 1532.02 Z" fill="#000000" fill-rule="evenodd" fill-opacity="1" /><path clip-path="url(#clip530)" d="M777.899 1517.37 Q774.287 1517.37 772.459 1520.93 Q770.653 1524.47 770.653 1531.6 Q770.653 1538.71 772.459 1542.27 Q774.287 1545.82 777.899 1545.82 Q781.533 1545.82 783.338 1542.27 Q785.167 1538.71 785.167 1531.6 Q785.167 1524.47 783.338 1520.93 Q781.533 1517.37 777.899 1517.37 M777.899 1513.66 Q783.709 1513.66 786.764 1518.27 Q789.843 1522.85 789.843 1531.6 Q789.843 1540.33 786.764 1544.94 Q783.709 1549.52 777.899 1549.52 Q772.088 1549.52 769.01 1544.94 Q765.954 1540.33 765.954 1531.6 Q765.954 1522.85 769.01 1518.27 Q772.088 1513.66 777.899 1513.66 Z" fill="#000000" fill-rule="evenodd" fill-opacity="1" /><path clip-path="url(#clip530)" d="M798.06 1542.97 L802.945 1542.97 L802.945 1548.85 L798.06 1548.85 L798.06 1542.97 Z" fill="#000000" fill-rule="evenodd" fill-opacity="1" /><path clip-path="url(#clip530)" d="M813.176 1514.29 L831.533 1514.29 L831.533 1518.22 L817.459 1518.22 L817.459 1526.7 Q818.477 1526.35 819.496 1526.19 Q820.514 1526 821.533 1526 Q827.32 1526 830.699 1529.17 Q834.079 1532.34 834.079 1537.76 Q834.079 1543.34 830.607 1546.44 Q827.134 1549.52 820.815 1549.52 Q818.639 1549.52 816.371 1549.15 Q814.125 1548.78 811.718 1548.04 L811.718 1543.34 Q813.801 1544.47 816.023 1545.03 Q818.246 1545.58 820.722 1545.58 Q824.727 1545.58 827.065 1543.48 Q829.403 1541.37 829.403 1537.76 Q829.403 1534.15 827.065 1532.04 Q824.727 1529.94 820.722 1529.94 Q818.847 1529.94 816.972 1530.35 Q815.121 1530.77 813.176 1531.65 L813.176 1514.29 Z" fill="#000000" fill-rule="evenodd" fill-opacity="1" /><path clip-path="url(#clip530)" d="M1262.22 1517.37 Q1258.61 1517.37 1256.78 1520.93 Q1254.98 1524.47 1254.98 1531.6 Q1254.98 1538.71 1256.78 1542.27 Q1258.61 1545.82 1262.22 1545.82 Q1265.86 1545.82 1267.66 1542.27 Q1269.49 1538.71 1269.49 1531.6 Q1269.49 1524.47 1267.66 1520.93 Q1265.86 1517.37 1262.22 1517.37 M1262.22 1513.66 Q1268.03 1513.66 1271.09 1518.27 Q1274.17 1522.85 1274.17 1531.6 Q1274.17 1540.33 1271.09 1544.94 Q1268.03 1549.52 1262.22 1549.52 Q1256.41 1549.52 1253.33 1544.94 Q1250.28 1540.33 1250.28 1531.6 Q1250.28 1522.85 1253.33 1518.27 Q1256.41 1513.66 1262.22 1513.66 Z" fill="#000000" fill-rule="evenodd" fill-opacity="1" /><path clip-path="url(#clip530)" d="M1282.39 1542.97 L1287.27 1542.97 L1287.27 1548.85 L1282.39 1548.85 L1282.39 1542.97 Z" fill="#000000" fill-rule="evenodd" fill-opacity="1" /><path clip-path="url(#clip530)" d="M1307.45 1517.37 Q1303.84 1517.37 1302.01 1520.93 Q1300.21 1524.47 1300.21 1531.6 Q1300.21 1538.71 1302.01 1542.27 Q1303.84 1545.82 1307.45 1545.82 Q1311.09 1545.82 1312.89 1542.27 Q1314.72 1538.71 1314.72 1531.6 Q1314.72 1524.47 1312.89 1520.93 Q1311.09 1517.37 1307.45 1517.37 M1307.45 1513.66 Q1313.26 1513.66 1316.32 1518.27 Q1319.4 1522.85 1319.4 1531.6 Q1319.4 1540.33 1316.32 1544.94 Q1313.26 1549.52 1307.45 1549.52 Q1301.64 1549.52 1298.57 1544.94 Q1295.51 1540.33 1295.51 1531.6 Q1295.51 1522.85 1298.57 1518.27 Q1301.64 1513.66 1307.45 1513.66 Z" fill="#000000" fill-rule="evenodd" fill-opacity="1" /><path clip-path="url(#clip530)" d="M1766.46 1517.37 Q1762.84 1517.37 1761.02 1520.93 Q1759.21 1524.47 1759.21 1531.6 Q1759.21 1538.71 1761.02 1542.27 Q1762.84 1545.82 1766.46 1545.82 Q1770.09 1545.82 1771.9 1542.27 Q1773.72 1538.71 1773.72 1531.6 Q1773.72 1524.47 1771.9 1520.93 Q1770.09 1517.37 1766.46 1517.37 M1766.46 1513.66 Q1772.27 1513.66 1775.32 1518.27 Q1778.4 1522.85 1778.4 1531.6 Q1778.4 1540.33 1775.32 1544.94 Q1772.27 1549.52 1766.46 1549.52 Q1760.65 1549.52 1757.57 1544.94 Q1754.51 1540.33 1754.51 1531.6 Q1754.51 1522.85 1757.57 1518.27 Q1760.65 1513.66 1766.46 1513.66 Z" fill="#000000" fill-rule="evenodd" fill-opacity="1" /><path clip-path="url(#clip530)" d="M1786.62 1542.97 L1791.5 1542.97 L1791.5 1548.85 L1786.62 1548.85 L1786.62 1542.97 Z" fill="#000000" fill-rule="evenodd" fill-opacity="1" /><path clip-path="url(#clip530)" d="M1801.73 1514.29 L1820.09 1514.29 L1820.09 1518.22 L1806.02 1518.22 L1806.02 1526.7 Q1807.03 1526.35 1808.05 1526.19 Q1809.07 1526 1810.09 1526 Q1815.88 1526 1819.26 1529.17 Q1822.64 1532.34 1822.64 1537.76 Q1822.64 1543.34 1819.16 1546.44 Q1815.69 1549.52 1809.37 1549.52 Q1807.2 1549.52 1804.93 1549.15 Q1802.68 1548.78 1800.27 1548.04 L1800.27 1543.34 Q1802.36 1544.47 1804.58 1545.03 Q1806.8 1545.58 1809.28 1545.58 Q1813.28 1545.58 1815.62 1543.48 Q1817.96 1541.37 1817.96 1537.76 Q1817.96 1534.15 1815.62 1532.04 Q1813.28 1529.94 1809.28 1529.94 Q1807.4 1529.94 1805.53 1530.35 Q1803.68 1530.77 1801.73 1531.65 L1801.73 1514.29 Z" fill="#000000" fill-rule="evenodd" fill-opacity="1" /><path clip-path="url(#clip530)" d="M2259.46 1544.91 L2267.1 1544.91 L2267.1 1518.55 L2258.79 1520.21 L2258.79 1515.95 L2267.05 1514.29 L2271.73 1514.29 L2271.73 1544.91 L2279.37 1544.91 L2279.37 1548.85 L2259.46 1548.85 L2259.46 1544.91 Z" fill="#000000" fill-rule="evenodd" fill-opacity="1" /><path clip-path="url(#clip530)" d="M2288.81 1542.97 L2293.7 1542.97 L2293.7 1548.85 L2288.81 1548.85 L2288.81 1542.97 Z" fill="#000000" fill-rule="evenodd" fill-opacity="1" /><path clip-path="url(#clip530)" d="M2313.88 1517.37 Q2310.27 1517.37 2308.44 1520.93 Q2306.64 1524.47 2306.64 1531.6 Q2306.64 1538.71 2308.44 1542.27 Q2310.27 1545.82 2313.88 1545.82 Q2317.52 1545.82 2319.32 1542.27 Q2321.15 1538.71 2321.15 1531.6 Q2321.15 1524.47 2319.32 1520.93 Q2317.52 1517.37 2313.88 1517.37 M2313.88 1513.66 Q2319.69 1513.66 2322.75 1518.27 Q2325.83 1522.85 2325.83 1531.6 Q2325.83 1540.33 2322.75 1544.94 Q2319.69 1549.52 2313.88 1549.52 Q2308.07 1549.52 2304.99 1544.94 Q2301.94 1540.33 2301.94 1531.6 Q2301.94 1522.85 2304.99 1518.27 Q2308.07 1513.66 2313.88 1513.66 Z" fill="#000000" fill-rule="evenodd" fill-opacity="1" /><polyline clip-path="url(#clip532)" style="stroke:#000000; stroke-linecap:butt; stroke-linejoin:round; stroke-width:2; stroke-opacity:0.1; fill:none" points="
  216.922,1445.72 2352.76,1445.72 
  "/>
<polyline clip-path="url(#clip532)" style="stroke:#000000; stroke-linecap:butt; stroke-linejoin:round; stroke-width:2; stroke-opacity:0.1; fill:none" points="
  216.922,1195.05 2352.76,1195.05 
  "/>
<polyline clip-path="url(#clip532)" style="stroke:#000000; stroke-linecap:butt; stroke-linejoin:round; stroke-width:2; stroke-opacity:0.1; fill:none" points="
  216.922,944.382 2352.76,944.382 
  "/>
<polyline clip-path="url(#clip532)" style="stroke:#000000; stroke-linecap:butt; stroke-linejoin:round; stroke-width:2; stroke-opacity:0.1; fill:none" points="
  216.922,693.715 2352.76,693.715 
  "/>
<polyline clip-path="url(#clip532)" style="stroke:#000000; stroke-linecap:butt; stroke-linejoin:round; stroke-width:2; stroke-opacity:0.1; fill:none" points="
  216.922,443.048 2352.76,443.048 
  "/>
<polyline clip-path="url(#clip532)" style="stroke:#000000; stroke-linecap:butt; stroke-linejoin:round; stroke-width:2; stroke-opacity:0.1; fill:none" points="
  216.922,192.382 2352.76,192.382 
  "/>
<polyline clip-path="url(#clip530)" style="stroke:#000000; stroke-linecap:butt; stroke-linejoin:round; stroke-width:4; stroke-opacity:1; fill:none" points="
  216.922,1486.45 216.922,47.2441 
  "/>
<polyline clip-path="url(#clip530)" style="stroke:#000000; stroke-linecap:butt; stroke-linejoin:round; stroke-width:4; stroke-opacity:1; fill:none" points="
  216.922,1445.72 235.82,1445.72 
  "/>
<polyline clip-path="url(#clip530)" style="stroke:#000000; stroke-linecap:butt; stroke-linejoin:round; stroke-width:4; stroke-opacity:1; fill:none" points="
  216.922,1195.05 235.82,1195.05 
  "/>
<polyline clip-path="url(#clip530)" style="stroke:#000000; stroke-linecap:butt; stroke-linejoin:round; stroke-width:4; stroke-opacity:1; fill:none" points="
  216.922,944.382 235.82,944.382 
  "/>
<polyline clip-path="url(#clip530)" style="stroke:#000000; stroke-linecap:butt; stroke-linejoin:round; stroke-width:4; stroke-opacity:1; fill:none" points="
  216.922,693.715 235.82,693.715 
  "/>
<polyline clip-path="url(#clip530)" style="stroke:#000000; stroke-linecap:butt; stroke-linejoin:round; stroke-width:4; stroke-opacity:1; fill:none" points="
  216.922,443.048 235.82,443.048 
  "/>
<polyline clip-path="url(#clip530)" style="stroke:#000000; stroke-linecap:butt; stroke-linejoin:round; stroke-width:4; stroke-opacity:1; fill:none" points="
  216.922,192.382 235.82,192.382 
  "/>
<path clip-path="url(#clip530)" d="M63.4226 1431.51 Q59.8115 1431.51 57.9828 1435.08 Q56.1773 1438.62 56.1773 1445.75 Q56.1773 1452.86 57.9828 1456.42 Q59.8115 1459.96 63.4226 1459.96 Q67.0569 1459.96 68.8624 1456.42 Q70.6911 1452.86 70.6911 1445.75 Q70.6911 1438.62 68.8624 1435.08 Q67.0569 1431.51 63.4226 1431.51 M63.4226 1427.81 Q69.2328 1427.81 72.2883 1432.42 Q75.367 1437 75.367 1445.75 Q75.367 1454.48 72.2883 1459.08 Q69.2328 1463.67 63.4226 1463.67 Q57.6125 1463.67 54.5338 1459.08 Q51.4782 1454.48 51.4782 1445.75 Q51.4782 1437 54.5338 1432.42 Q57.6125 1427.81 63.4226 1427.81 Z" fill="#000000" fill-rule="evenodd" fill-opacity="1" /><path clip-path="url(#clip530)" d="M83.5845 1457.12 L88.4688 1457.12 L88.4688 1463 L83.5845 1463 L83.5845 1457.12 Z" fill="#000000" fill-rule="evenodd" fill-opacity="1" /><path clip-path="url(#clip530)" d="M108.654 1431.51 Q105.043 1431.51 103.214 1435.08 Q101.409 1438.62 101.409 1445.75 Q101.409 1452.86 103.214 1456.42 Q105.043 1459.96 108.654 1459.96 Q112.288 1459.96 114.094 1456.42 Q115.922 1452.86 115.922 1445.75 Q115.922 1438.62 114.094 1435.08 Q112.288 1431.51 108.654 1431.51 M108.654 1427.81 Q114.464 1427.81 117.52 1432.42 Q120.598 1437 120.598 1445.75 Q120.598 1454.48 117.52 1459.08 Q114.464 1463.67 108.654 1463.67 Q102.844 1463.67 99.765 1459.08 Q96.7095 1454.48 96.7095 1445.75 Q96.7095 1437 99.765 1432.42 Q102.844 1427.81 108.654 1427.81 Z" fill="#000000" fill-rule="evenodd" fill-opacity="1" /><path clip-path="url(#clip530)" d="M138.816 1431.51 Q135.205 1431.51 133.376 1435.08 Q131.57 1438.62 131.57 1445.75 Q131.57 1452.86 133.376 1456.42 Q135.205 1459.96 138.816 1459.96 Q142.45 1459.96 144.256 1456.42 Q146.084 1452.86 146.084 1445.75 Q146.084 1438.62 144.256 1435.08 Q142.45 1431.51 138.816 1431.51 M138.816 1427.81 Q144.626 1427.81 147.681 1432.42 Q150.76 1437 150.76 1445.75 Q150.76 1454.48 147.681 1459.08 Q144.626 1463.67 138.816 1463.67 Q133.006 1463.67 129.927 1459.08 Q126.871 1454.48 126.871 1445.75 Q126.871 1437 129.927 1432.42 Q133.006 1427.81 138.816 1427.81 Z" fill="#000000" fill-rule="evenodd" fill-opacity="1" /><path clip-path="url(#clip530)" d="M168.978 1431.51 Q165.367 1431.51 163.538 1435.08 Q161.732 1438.62 161.732 1445.75 Q161.732 1452.86 163.538 1456.42 Q165.367 1459.96 168.978 1459.96 Q172.612 1459.96 174.417 1456.42 Q176.246 1452.86 176.246 1445.75 Q176.246 1438.62 174.417 1435.08 Q172.612 1431.51 168.978 1431.51 M168.978 1427.81 Q174.788 1427.81 177.843 1432.42 Q180.922 1437 180.922 1445.75 Q180.922 1454.48 177.843 1459.08 Q174.788 1463.67 168.978 1463.67 Q163.167 1463.67 160.089 1459.08 Q157.033 1454.48 157.033 1445.75 Q157.033 1437 160.089 1432.42 Q163.167 1427.81 168.978 1427.81 Z" fill="#000000" fill-rule="evenodd" fill-opacity="1" /><path clip-path="url(#clip530)" d="M64.6495 1180.85 Q61.0384 1180.85 59.2097 1184.41 Q57.4041 1187.95 57.4041 1195.08 Q57.4041 1202.19 59.2097 1205.75 Q61.0384 1209.3 64.6495 1209.3 Q68.2837 1209.3 70.0892 1205.75 Q71.9179 1202.19 71.9179 1195.08 Q71.9179 1187.95 70.0892 1184.41 Q68.2837 1180.85 64.6495 1180.85 M64.6495 1177.14 Q70.4596 1177.14 73.5152 1181.75 Q76.5938 1186.33 76.5938 1195.08 Q76.5938 1203.81 73.5152 1208.42 Q70.4596 1213 64.6495 1213 Q58.8393 1213 55.7606 1208.42 Q52.7051 1203.81 52.7051 1195.08 Q52.7051 1186.33 55.7606 1181.75 Q58.8393 1177.14 64.6495 1177.14 Z" fill="#000000" fill-rule="evenodd" fill-opacity="1" /><path clip-path="url(#clip530)" d="M84.8114 1206.45 L89.6956 1206.45 L89.6956 1212.33 L84.8114 1212.33 L84.8114 1206.45 Z" fill="#000000" fill-rule="evenodd" fill-opacity="1" /><path clip-path="url(#clip530)" d="M109.881 1180.85 Q106.27 1180.85 104.441 1184.41 Q102.635 1187.95 102.635 1195.08 Q102.635 1202.19 104.441 1205.75 Q106.27 1209.3 109.881 1209.3 Q113.515 1209.3 115.32 1205.75 Q117.149 1202.19 117.149 1195.08 Q117.149 1187.95 115.32 1184.41 Q113.515 1180.85 109.881 1180.85 M109.881 1177.14 Q115.691 1177.14 118.746 1181.75 Q121.825 1186.33 121.825 1195.08 Q121.825 1203.81 118.746 1208.42 Q115.691 1213 109.881 1213 Q104.071 1213 100.992 1208.42 Q97.9363 1203.81 97.9363 1195.08 Q97.9363 1186.33 100.992 1181.75 Q104.071 1177.14 109.881 1177.14 Z" fill="#000000" fill-rule="evenodd" fill-opacity="1" /><path clip-path="url(#clip530)" d="M140.043 1180.85 Q136.431 1180.85 134.603 1184.41 Q132.797 1187.95 132.797 1195.08 Q132.797 1202.19 134.603 1205.75 Q136.431 1209.3 140.043 1209.3 Q143.677 1209.3 145.482 1205.75 Q147.311 1202.19 147.311 1195.08 Q147.311 1187.95 145.482 1184.41 Q143.677 1180.85 140.043 1180.85 M140.043 1177.14 Q145.853 1177.14 148.908 1181.75 Q151.987 1186.33 151.987 1195.08 Q151.987 1203.81 148.908 1208.42 Q145.853 1213 140.043 1213 Q134.232 1213 131.154 1208.42 Q128.098 1203.81 128.098 1195.08 Q128.098 1186.33 131.154 1181.75 Q134.232 1177.14 140.043 1177.14 Z" fill="#000000" fill-rule="evenodd" fill-opacity="1" /><path clip-path="url(#clip530)" d="M161.015 1208.39 L168.654 1208.39 L168.654 1182.03 L160.343 1183.69 L160.343 1179.44 L168.607 1177.77 L173.283 1177.77 L173.283 1208.39 L180.922 1208.39 L180.922 1212.33 L161.015 1212.33 L161.015 1208.39 Z" fill="#000000" fill-rule="evenodd" fill-opacity="1" /><path clip-path="url(#clip530)" d="M65.0198 930.181 Q61.4087 930.181 59.58 933.746 Q57.7745 937.287 57.7745 944.417 Q57.7745 951.523 59.58 955.088 Q61.4087 958.63 65.0198 958.63 Q68.6541 958.63 70.4596 955.088 Q72.2883 951.523 72.2883 944.417 Q72.2883 937.287 70.4596 933.746 Q68.6541 930.181 65.0198 930.181 M65.0198 926.477 Q70.83 926.477 73.8855 931.084 Q76.9642 935.667 76.9642 944.417 Q76.9642 953.144 73.8855 957.75 Q70.83 962.333 65.0198 962.333 Q59.2097 962.333 56.131 957.75 Q53.0754 953.144 53.0754 944.417 Q53.0754 935.667 56.131 931.084 Q59.2097 926.477 65.0198 926.477 Z" fill="#000000" fill-rule="evenodd" fill-opacity="1" /><path clip-path="url(#clip530)" d="M85.1818 955.782 L90.066 955.782 L90.066 961.662 L85.1818 961.662 L85.1818 955.782 Z" fill="#000000" fill-rule="evenodd" fill-opacity="1" /><path clip-path="url(#clip530)" d="M110.251 930.181 Q106.64 930.181 104.811 933.746 Q103.006 937.287 103.006 944.417 Q103.006 951.523 104.811 955.088 Q106.64 958.63 110.251 958.63 Q113.885 958.63 115.691 955.088 Q117.52 951.523 117.52 944.417 Q117.52 937.287 115.691 933.746 Q113.885 930.181 110.251 930.181 M110.251 926.477 Q116.061 926.477 119.117 931.084 Q122.195 935.667 122.195 944.417 Q122.195 953.144 119.117 957.75 Q116.061 962.333 110.251 962.333 Q104.441 962.333 101.362 957.75 Q98.3067 953.144 98.3067 944.417 Q98.3067 935.667 101.362 931.084 Q104.441 926.477 110.251 926.477 Z" fill="#000000" fill-rule="evenodd" fill-opacity="1" /><path clip-path="url(#clip530)" d="M140.413 930.181 Q136.802 930.181 134.973 933.746 Q133.168 937.287 133.168 944.417 Q133.168 951.523 134.973 955.088 Q136.802 958.63 140.413 958.63 Q144.047 958.63 145.853 955.088 Q147.681 951.523 147.681 944.417 Q147.681 937.287 145.853 933.746 Q144.047 930.181 140.413 930.181 M140.413 926.477 Q146.223 926.477 149.279 931.084 Q152.357 935.667 152.357 944.417 Q152.357 953.144 149.279 957.75 Q146.223 962.333 140.413 962.333 Q134.603 962.333 131.524 957.75 Q128.469 953.144 128.469 944.417 Q128.469 935.667 131.524 931.084 Q134.603 926.477 140.413 926.477 Z" fill="#000000" fill-rule="evenodd" fill-opacity="1" /><path clip-path="url(#clip530)" d="M164.603 957.727 L180.922 957.727 L180.922 961.662 L158.978 961.662 L158.978 957.727 Q161.64 954.972 166.223 950.343 Q170.829 945.69 172.01 944.347 Q174.255 941.824 175.135 940.088 Q176.038 938.329 176.038 936.639 Q176.038 933.884 174.093 932.148 Q172.172 930.412 169.07 930.412 Q166.871 930.412 164.417 931.176 Q161.987 931.94 159.209 933.491 L159.209 928.769 Q162.033 927.634 164.487 927.056 Q166.941 926.477 168.978 926.477 Q174.348 926.477 177.542 929.162 Q180.737 931.847 180.737 936.338 Q180.737 938.468 179.927 940.389 Q179.14 942.287 177.033 944.88 Q176.454 945.551 173.353 948.769 Q170.251 951.963 164.603 957.727 Z" fill="#000000" fill-rule="evenodd" fill-opacity="1" /><path clip-path="url(#clip530)" d="M64.0708 679.514 Q60.4597 679.514 58.631 683.079 Q56.8254 686.62 56.8254 693.75 Q56.8254 700.856 58.631 704.421 Q60.4597 707.963 64.0708 707.963 Q67.705 707.963 69.5105 704.421 Q71.3392 700.856 71.3392 693.75 Q71.3392 686.62 69.5105 683.079 Q67.705 679.514 64.0708 679.514 M64.0708 675.81 Q69.8809 675.81 72.9365 680.417 Q76.0151 685 76.0151 693.75 Q76.0151 702.477 72.9365 707.083 Q69.8809 711.667 64.0708 711.667 Q58.2606 711.667 55.1819 707.083 Q52.1264 702.477 52.1264 693.75 Q52.1264 685 55.1819 680.417 Q58.2606 675.81 64.0708 675.81 Z" fill="#000000" fill-rule="evenodd" fill-opacity="1" /><path clip-path="url(#clip530)" d="M84.2327 705.116 L89.1169 705.116 L89.1169 710.995 L84.2327 710.995 L84.2327 705.116 Z" fill="#000000" fill-rule="evenodd" fill-opacity="1" /><path clip-path="url(#clip530)" d="M109.302 679.514 Q105.691 679.514 103.862 683.079 Q102.057 686.62 102.057 693.75 Q102.057 700.856 103.862 704.421 Q105.691 707.963 109.302 707.963 Q112.936 707.963 114.742 704.421 Q116.57 700.856 116.57 693.75 Q116.57 686.62 114.742 683.079 Q112.936 679.514 109.302 679.514 M109.302 675.81 Q115.112 675.81 118.168 680.417 Q121.246 685 121.246 693.75 Q121.246 702.477 118.168 707.083 Q115.112 711.667 109.302 711.667 Q103.492 711.667 100.413 707.083 Q97.3576 702.477 97.3576 693.75 Q97.3576 685 100.413 680.417 Q103.492 675.81 109.302 675.81 Z" fill="#000000" fill-rule="evenodd" fill-opacity="1" /><path clip-path="url(#clip530)" d="M139.464 679.514 Q135.853 679.514 134.024 683.079 Q132.219 686.62 132.219 693.75 Q132.219 700.856 134.024 704.421 Q135.853 707.963 139.464 707.963 Q143.098 707.963 144.904 704.421 Q146.732 700.856 146.732 693.75 Q146.732 686.62 144.904 683.079 Q143.098 679.514 139.464 679.514 M139.464 675.81 Q145.274 675.81 148.33 680.417 Q151.408 685 151.408 693.75 Q151.408 702.477 148.33 707.083 Q145.274 711.667 139.464 711.667 Q133.654 711.667 130.575 707.083 Q127.519 702.477 127.519 693.75 Q127.519 685 130.575 680.417 Q133.654 675.81 139.464 675.81 Z" fill="#000000" fill-rule="evenodd" fill-opacity="1" /><path clip-path="url(#clip530)" d="M173.792 692.361 Q177.149 693.079 179.024 695.347 Q180.922 697.616 180.922 700.949 Q180.922 706.065 177.403 708.866 Q173.885 711.667 167.404 711.667 Q165.228 711.667 162.913 711.227 Q160.621 710.81 158.167 709.954 L158.167 705.44 Q160.112 706.574 162.427 707.153 Q164.742 707.731 167.265 707.731 Q171.663 707.731 173.954 705.995 Q176.269 704.259 176.269 700.949 Q176.269 697.893 174.116 696.18 Q171.987 694.444 168.167 694.444 L164.14 694.444 L164.14 690.602 L168.353 690.602 Q171.802 690.602 173.63 689.236 Q175.459 687.847 175.459 685.255 Q175.459 682.593 173.561 681.181 Q171.686 679.745 168.167 679.745 Q166.246 679.745 164.047 680.162 Q161.848 680.579 159.209 681.458 L159.209 677.292 Q161.871 676.551 164.186 676.181 Q166.524 675.81 168.584 675.81 Q173.908 675.81 177.01 678.241 Q180.112 680.648 180.112 684.769 Q180.112 687.639 178.468 689.63 Q176.825 691.597 173.792 692.361 Z" fill="#000000" fill-rule="evenodd" fill-opacity="1" /><path clip-path="url(#clip530)" d="M62.9365 428.847 Q59.3254 428.847 57.4967 432.412 Q55.6912 435.954 55.6912 443.083 Q55.6912 450.19 57.4967 453.754 Q59.3254 457.296 62.9365 457.296 Q66.5707 457.296 68.3763 453.754 Q70.205 450.19 70.205 443.083 Q70.205 435.954 68.3763 432.412 Q66.5707 428.847 62.9365 428.847 M62.9365 425.143 Q68.7467 425.143 71.8022 429.75 Q74.8809 434.333 74.8809 443.083 Q74.8809 451.81 71.8022 456.416 Q68.7467 461 62.9365 461 Q57.1264 461 54.0477 456.416 Q50.9921 451.81 50.9921 443.083 Q50.9921 434.333 54.0477 429.75 Q57.1264 425.143 62.9365 425.143 Z" fill="#000000" fill-rule="evenodd" fill-opacity="1" /><path clip-path="url(#clip530)" d="M83.0984 454.449 L87.9827 454.449 L87.9827 460.328 L83.0984 460.328 L83.0984 454.449 Z" fill="#000000" fill-rule="evenodd" fill-opacity="1" /><path clip-path="url(#clip530)" d="M108.168 428.847 Q104.557 428.847 102.728 432.412 Q100.922 435.954 100.922 443.083 Q100.922 450.19 102.728 453.754 Q104.557 457.296 108.168 457.296 Q111.802 457.296 113.608 453.754 Q115.436 450.19 115.436 443.083 Q115.436 435.954 113.608 432.412 Q111.802 428.847 108.168 428.847 M108.168 425.143 Q113.978 425.143 117.033 429.75 Q120.112 434.333 120.112 443.083 Q120.112 451.81 117.033 456.416 Q113.978 461 108.168 461 Q102.358 461 99.2789 456.416 Q96.2234 451.81 96.2234 443.083 Q96.2234 434.333 99.2789 429.75 Q102.358 425.143 108.168 425.143 Z" fill="#000000" fill-rule="evenodd" fill-opacity="1" /><path clip-path="url(#clip530)" d="M138.33 428.847 Q134.719 428.847 132.89 432.412 Q131.084 435.954 131.084 443.083 Q131.084 450.19 132.89 453.754 Q134.719 457.296 138.33 457.296 Q141.964 457.296 143.769 453.754 Q145.598 450.19 145.598 443.083 Q145.598 435.954 143.769 432.412 Q141.964 428.847 138.33 428.847 M138.33 425.143 Q144.14 425.143 147.195 429.75 Q150.274 434.333 150.274 443.083 Q150.274 451.81 147.195 456.416 Q144.14 461 138.33 461 Q132.519 461 129.441 456.416 Q126.385 451.81 126.385 443.083 Q126.385 434.333 129.441 429.75 Q132.519 425.143 138.33 425.143 Z" fill="#000000" fill-rule="evenodd" fill-opacity="1" /><path clip-path="url(#clip530)" d="M171.339 429.842 L159.533 448.291 L171.339 448.291 L171.339 429.842 M170.112 425.768 L175.991 425.768 L175.991 448.291 L180.922 448.291 L180.922 452.18 L175.991 452.18 L175.991 460.328 L171.339 460.328 L171.339 452.18 L155.737 452.18 L155.737 447.666 L170.112 425.768 Z" fill="#000000" fill-rule="evenodd" fill-opacity="1" /><path clip-path="url(#clip530)" d="M64.418 178.18 Q60.8069 178.18 58.9782 181.745 Q57.1726 185.287 57.1726 192.416 Q57.1726 199.523 58.9782 203.088 Q60.8069 206.629 64.418 206.629 Q68.0522 206.629 69.8578 203.088 Q71.6865 199.523 71.6865 192.416 Q71.6865 185.287 69.8578 181.745 Q68.0522 178.18 64.418 178.18 M64.418 174.477 Q70.2281 174.477 73.2837 179.083 Q76.3624 183.666 76.3624 192.416 Q76.3624 201.143 73.2837 205.75 Q70.2281 210.333 64.418 210.333 Q58.6078 210.333 55.5291 205.75 Q52.4736 201.143 52.4736 192.416 Q52.4736 183.666 55.5291 179.083 Q58.6078 174.477 64.418 174.477 Z" fill="#000000" fill-rule="evenodd" fill-opacity="1" /><path clip-path="url(#clip530)" d="M84.5799 203.782 L89.4641 203.782 L89.4641 209.662 L84.5799 209.662 L84.5799 203.782 Z" fill="#000000" fill-rule="evenodd" fill-opacity="1" /><path clip-path="url(#clip530)" d="M109.649 178.18 Q106.038 178.18 104.209 181.745 Q102.404 185.287 102.404 192.416 Q102.404 199.523 104.209 203.088 Q106.038 206.629 109.649 206.629 Q113.283 206.629 115.089 203.088 Q116.918 199.523 116.918 192.416 Q116.918 185.287 115.089 181.745 Q113.283 178.18 109.649 178.18 M109.649 174.477 Q115.459 174.477 118.515 179.083 Q121.594 183.666 121.594 192.416 Q121.594 201.143 118.515 205.75 Q115.459 210.333 109.649 210.333 Q103.839 210.333 100.76 205.75 Q97.7048 201.143 97.7048 192.416 Q97.7048 183.666 100.76 179.083 Q103.839 174.477 109.649 174.477 Z" fill="#000000" fill-rule="evenodd" fill-opacity="1" /><path clip-path="url(#clip530)" d="M139.811 178.18 Q136.2 178.18 134.371 181.745 Q132.566 185.287 132.566 192.416 Q132.566 199.523 134.371 203.088 Q136.2 206.629 139.811 206.629 Q143.445 206.629 145.251 203.088 Q147.08 199.523 147.08 192.416 Q147.08 185.287 145.251 181.745 Q143.445 178.18 139.811 178.18 M139.811 174.477 Q145.621 174.477 148.677 179.083 Q151.755 183.666 151.755 192.416 Q151.755 201.143 148.677 205.75 Q145.621 210.333 139.811 210.333 Q134.001 210.333 130.922 205.75 Q127.867 201.143 127.867 192.416 Q127.867 183.666 130.922 179.083 Q134.001 174.477 139.811 174.477 Z" fill="#000000" fill-rule="evenodd" fill-opacity="1" /><path clip-path="url(#clip530)" d="M160.019 175.102 L178.376 175.102 L178.376 179.037 L164.302 179.037 L164.302 187.509 Q165.32 187.162 166.339 187 Q167.357 186.814 168.376 186.814 Q174.163 186.814 177.542 189.986 Q180.922 193.157 180.922 198.574 Q180.922 204.152 177.45 207.254 Q173.978 210.333 167.658 210.333 Q165.482 210.333 163.214 209.963 Q160.968 209.592 158.561 208.851 L158.561 204.152 Q160.644 205.287 162.867 205.842 Q165.089 206.398 167.566 206.398 Q171.57 206.398 173.908 204.291 Q176.246 202.185 176.246 198.574 Q176.246 194.963 173.908 192.856 Q171.57 190.75 167.566 190.75 Q165.691 190.75 163.816 191.166 Q161.964 191.583 160.019 192.463 L160.019 175.102 Z" fill="#000000" fill-rule="evenodd" fill-opacity="1" /><polyline clip-path="url(#clip532)" style="stroke:#009af9; stroke-linecap:butt; stroke-linejoin:round; stroke-width:12; stroke-opacity:1; fill:none" points="
  277.37,1445.72 312.163,1399.96 378.117,1385.37 444.071,1334.34 478.864,1354.66 513.656,1294.92 579.611,1289.3 645.565,1229.32 680.358,1268.14 715.15,1187.54 
  781.105,1195.29 847.059,1121.95 881.851,1188.37 916.644,1076.66 982.598,1104.35 1048.55,1011.1 1083.35,1118.67 1118.14,960.563 1184.09,1018 1250.05,895.048 
  1284.84,1064 1319.63,836.687 1385.59,938.495 1451.54,771.233 1486.33,1031.75 1521.13,701.207 1587.08,869.19 1653.03,635.844 1687.83,1032.92 1722.62,548.417 
  1788.57,815.104 1854.53,483.191 1889.32,1083.96 1924.11,369.81 1990.07,783.719 2056.02,304.788 2090.81,1209.37 2125.61,152.695 2191.56,786.192 2257.52,87.9763 
  2292.31,1445.72 
  "/>
<line clip-path="url(#clip532)" x1="277.37" y1="1445.72" x2="277.37" y2="1429.72" style="stroke:#009af9; stroke-width:3.2; stroke-opacity:1"/>
<line clip-path="url(#clip532)" x1="277.37" y1="1445.72" x2="261.37" y2="1445.72" style="stroke:#009af9; stroke-width:3.2; stroke-opacity:1"/>
<line clip-path="url(#clip532)" x1="277.37" y1="1445.72" x2="277.37" y2="1461.72" style="stroke:#009af9; stroke-width:3.2; stroke-opacity:1"/>
<line clip-path="url(#clip532)" x1="277.37" y1="1445.72" x2="293.37" y2="1445.72" style="stroke:#009af9; stroke-width:3.2; stroke-opacity:1"/>
<line clip-path="url(#clip532)" x1="312.163" y1="1399.96" x2="312.163" y2="1383.96" style="stroke:#009af9; stroke-width:3.2; stroke-opacity:1"/>
<line clip-path="url(#clip532)" x1="312.163" y1="1399.96" x2="296.163" y2="1399.96" style="stroke:#009af9; stroke-width:3.2; stroke-opacity:1"/>
<line clip-path="url(#clip532)" x1="312.163" y1="1399.96" x2="312.163" y2="1415.96" style="stroke:#009af9; stroke-width:3.2; stroke-opacity:1"/>
<line clip-path="url(#clip532)" x1="312.163" y1="1399.96" x2="328.163" y2="1399.96" style="stroke:#009af9; stroke-width:3.2; stroke-opacity:1"/>
<line clip-path="url(#clip532)" x1="378.117" y1="1385.37" x2="378.117" y2="1369.37" style="stroke:#009af9; stroke-width:3.2; stroke-opacity:1"/>
<line clip-path="url(#clip532)" x1="378.117" y1="1385.37" x2="362.117" y2="1385.37" style="stroke:#009af9; stroke-width:3.2; stroke-opacity:1"/>
<line clip-path="url(#clip532)" x1="378.117" y1="1385.37" x2="378.117" y2="1401.37" style="stroke:#009af9; stroke-width:3.2; stroke-opacity:1"/>
<line clip-path="url(#clip532)" x1="378.117" y1="1385.37" x2="394.117" y2="1385.37" style="stroke:#009af9; stroke-width:3.2; stroke-opacity:1"/>
<line clip-path="url(#clip532)" x1="444.071" y1="1334.34" x2="444.071" y2="1318.34" style="stroke:#009af9; stroke-width:3.2; stroke-opacity:1"/>
<line clip-path="url(#clip532)" x1="444.071" y1="1334.34" x2="428.071" y2="1334.34" style="stroke:#009af9; stroke-width:3.2; stroke-opacity:1"/>
<line clip-path="url(#clip532)" x1="444.071" y1="1334.34" x2="444.071" y2="1350.34" style="stroke:#009af9; stroke-width:3.2; stroke-opacity:1"/>
<line clip-path="url(#clip532)" x1="444.071" y1="1334.34" x2="460.071" y2="1334.34" style="stroke:#009af9; stroke-width:3.2; stroke-opacity:1"/>
<line clip-path="url(#clip532)" x1="478.864" y1="1354.66" x2="478.864" y2="1338.66" style="stroke:#009af9; stroke-width:3.2; stroke-opacity:1"/>
<line clip-path="url(#clip532)" x1="478.864" y1="1354.66" x2="462.864" y2="1354.66" style="stroke:#009af9; stroke-width:3.2; stroke-opacity:1"/>
<line clip-path="url(#clip532)" x1="478.864" y1="1354.66" x2="478.864" y2="1370.66" style="stroke:#009af9; stroke-width:3.2; stroke-opacity:1"/>
<line clip-path="url(#clip532)" x1="478.864" y1="1354.66" x2="494.864" y2="1354.66" style="stroke:#009af9; stroke-width:3.2; stroke-opacity:1"/>
<line clip-path="url(#clip532)" x1="513.656" y1="1294.92" x2="513.656" y2="1278.92" style="stroke:#009af9; stroke-width:3.2; stroke-opacity:1"/>
<line clip-path="url(#clip532)" x1="513.656" y1="1294.92" x2="497.656" y2="1294.92" style="stroke:#009af9; stroke-width:3.2; stroke-opacity:1"/>
<line clip-path="url(#clip532)" x1="513.656" y1="1294.92" x2="513.656" y2="1310.92" style="stroke:#009af9; stroke-width:3.2; stroke-opacity:1"/>
<line clip-path="url(#clip532)" x1="513.656" y1="1294.92" x2="529.656" y2="1294.92" style="stroke:#009af9; stroke-width:3.2; stroke-opacity:1"/>
<line clip-path="url(#clip532)" x1="579.611" y1="1289.3" x2="579.611" y2="1273.3" style="stroke:#009af9; stroke-width:3.2; stroke-opacity:1"/>
<line clip-path="url(#clip532)" x1="579.611" y1="1289.3" x2="563.611" y2="1289.3" style="stroke:#009af9; stroke-width:3.2; stroke-opacity:1"/>
<line clip-path="url(#clip532)" x1="579.611" y1="1289.3" x2="579.611" y2="1305.3" style="stroke:#009af9; stroke-width:3.2; stroke-opacity:1"/>
<line clip-path="url(#clip532)" x1="579.611" y1="1289.3" x2="595.611" y2="1289.3" style="stroke:#009af9; stroke-width:3.2; stroke-opacity:1"/>
<line clip-path="url(#clip532)" x1="645.565" y1="1229.32" x2="645.565" y2="1213.32" style="stroke:#009af9; stroke-width:3.2; stroke-opacity:1"/>
<line clip-path="url(#clip532)" x1="645.565" y1="1229.32" x2="629.565" y2="1229.32" style="stroke:#009af9; stroke-width:3.2; stroke-opacity:1"/>
<line clip-path="url(#clip532)" x1="645.565" y1="1229.32" x2="645.565" y2="1245.32" style="stroke:#009af9; stroke-width:3.2; stroke-opacity:1"/>
<line clip-path="url(#clip532)" x1="645.565" y1="1229.32" x2="661.565" y2="1229.32" style="stroke:#009af9; stroke-width:3.2; stroke-opacity:1"/>
<line clip-path="url(#clip532)" x1="680.358" y1="1268.14" x2="680.358" y2="1252.14" style="stroke:#009af9; stroke-width:3.2; stroke-opacity:1"/>
<line clip-path="url(#clip532)" x1="680.358" y1="1268.14" x2="664.358" y2="1268.14" style="stroke:#009af9; stroke-width:3.2; stroke-opacity:1"/>
<line clip-path="url(#clip532)" x1="680.358" y1="1268.14" x2="680.358" y2="1284.14" style="stroke:#009af9; stroke-width:3.2; stroke-opacity:1"/>
<line clip-path="url(#clip532)" x1="680.358" y1="1268.14" x2="696.358" y2="1268.14" style="stroke:#009af9; stroke-width:3.2; stroke-opacity:1"/>
<line clip-path="url(#clip532)" x1="715.15" y1="1187.54" x2="715.15" y2="1171.54" style="stroke:#009af9; stroke-width:3.2; stroke-opacity:1"/>
<line clip-path="url(#clip532)" x1="715.15" y1="1187.54" x2="699.15" y2="1187.54" style="stroke:#009af9; stroke-width:3.2; stroke-opacity:1"/>
<line clip-path="url(#clip532)" x1="715.15" y1="1187.54" x2="715.15" y2="1203.54" style="stroke:#009af9; stroke-width:3.2; stroke-opacity:1"/>
<line clip-path="url(#clip532)" x1="715.15" y1="1187.54" x2="731.15" y2="1187.54" style="stroke:#009af9; stroke-width:3.2; stroke-opacity:1"/>
<line clip-path="url(#clip532)" x1="781.105" y1="1195.29" x2="781.105" y2="1179.29" style="stroke:#009af9; stroke-width:3.2; stroke-opacity:1"/>
<line clip-path="url(#clip532)" x1="781.105" y1="1195.29" x2="765.105" y2="1195.29" style="stroke:#009af9; stroke-width:3.2; stroke-opacity:1"/>
<line clip-path="url(#clip532)" x1="781.105" y1="1195.29" x2="781.105" y2="1211.29" style="stroke:#009af9; stroke-width:3.2; stroke-opacity:1"/>
<line clip-path="url(#clip532)" x1="781.105" y1="1195.29" x2="797.105" y2="1195.29" style="stroke:#009af9; stroke-width:3.2; stroke-opacity:1"/>
<line clip-path="url(#clip532)" x1="847.059" y1="1121.95" x2="847.059" y2="1105.95" style="stroke:#009af9; stroke-width:3.2; stroke-opacity:1"/>
<line clip-path="url(#clip532)" x1="847.059" y1="1121.95" x2="831.059" y2="1121.95" style="stroke:#009af9; stroke-width:3.2; stroke-opacity:1"/>
<line clip-path="url(#clip532)" x1="847.059" y1="1121.95" x2="847.059" y2="1137.95" style="stroke:#009af9; stroke-width:3.2; stroke-opacity:1"/>
<line clip-path="url(#clip532)" x1="847.059" y1="1121.95" x2="863.059" y2="1121.95" style="stroke:#009af9; stroke-width:3.2; stroke-opacity:1"/>
<line clip-path="url(#clip532)" x1="881.851" y1="1188.37" x2="881.851" y2="1172.37" style="stroke:#009af9; stroke-width:3.2; stroke-opacity:1"/>
<line clip-path="url(#clip532)" x1="881.851" y1="1188.37" x2="865.851" y2="1188.37" style="stroke:#009af9; stroke-width:3.2; stroke-opacity:1"/>
<line clip-path="url(#clip532)" x1="881.851" y1="1188.37" x2="881.851" y2="1204.37" style="stroke:#009af9; stroke-width:3.2; stroke-opacity:1"/>
<line clip-path="url(#clip532)" x1="881.851" y1="1188.37" x2="897.851" y2="1188.37" style="stroke:#009af9; stroke-width:3.2; stroke-opacity:1"/>
<line clip-path="url(#clip532)" x1="916.644" y1="1076.66" x2="916.644" y2="1060.66" style="stroke:#009af9; stroke-width:3.2; stroke-opacity:1"/>
<line clip-path="url(#clip532)" x1="916.644" y1="1076.66" x2="900.644" y2="1076.66" style="stroke:#009af9; stroke-width:3.2; stroke-opacity:1"/>
<line clip-path="url(#clip532)" x1="916.644" y1="1076.66" x2="916.644" y2="1092.66" style="stroke:#009af9; stroke-width:3.2; stroke-opacity:1"/>
<line clip-path="url(#clip532)" x1="916.644" y1="1076.66" x2="932.644" y2="1076.66" style="stroke:#009af9; stroke-width:3.2; stroke-opacity:1"/>
<line clip-path="url(#clip532)" x1="982.598" y1="1104.35" x2="982.598" y2="1088.35" style="stroke:#009af9; stroke-width:3.2; stroke-opacity:1"/>
<line clip-path="url(#clip532)" x1="982.598" y1="1104.35" x2="966.598" y2="1104.35" style="stroke:#009af9; stroke-width:3.2; stroke-opacity:1"/>
<line clip-path="url(#clip532)" x1="982.598" y1="1104.35" x2="982.598" y2="1120.35" style="stroke:#009af9; stroke-width:3.2; stroke-opacity:1"/>
<line clip-path="url(#clip532)" x1="982.598" y1="1104.35" x2="998.598" y2="1104.35" style="stroke:#009af9; stroke-width:3.2; stroke-opacity:1"/>
<line clip-path="url(#clip532)" x1="1048.55" y1="1011.1" x2="1048.55" y2="995.102" style="stroke:#009af9; stroke-width:3.2; stroke-opacity:1"/>
<line clip-path="url(#clip532)" x1="1048.55" y1="1011.1" x2="1032.55" y2="1011.1" style="stroke:#009af9; stroke-width:3.2; stroke-opacity:1"/>
<line clip-path="url(#clip532)" x1="1048.55" y1="1011.1" x2="1048.55" y2="1027.1" style="stroke:#009af9; stroke-width:3.2; stroke-opacity:1"/>
<line clip-path="url(#clip532)" x1="1048.55" y1="1011.1" x2="1064.55" y2="1011.1" style="stroke:#009af9; stroke-width:3.2; stroke-opacity:1"/>
<line clip-path="url(#clip532)" x1="1083.35" y1="1118.67" x2="1083.35" y2="1102.67" style="stroke:#009af9; stroke-width:3.2; stroke-opacity:1"/>
<line clip-path="url(#clip532)" x1="1083.35" y1="1118.67" x2="1067.35" y2="1118.67" style="stroke:#009af9; stroke-width:3.2; stroke-opacity:1"/>
<line clip-path="url(#clip532)" x1="1083.35" y1="1118.67" x2="1083.35" y2="1134.67" style="stroke:#009af9; stroke-width:3.2; stroke-opacity:1"/>
<line clip-path="url(#clip532)" x1="1083.35" y1="1118.67" x2="1099.35" y2="1118.67" style="stroke:#009af9; stroke-width:3.2; stroke-opacity:1"/>
<line clip-path="url(#clip532)" x1="1118.14" y1="960.563" x2="1118.14" y2="944.563" style="stroke:#009af9; stroke-width:3.2; stroke-opacity:1"/>
<line clip-path="url(#clip532)" x1="1118.14" y1="960.563" x2="1102.14" y2="960.563" style="stroke:#009af9; stroke-width:3.2; stroke-opacity:1"/>
<line clip-path="url(#clip532)" x1="1118.14" y1="960.563" x2="1118.14" y2="976.563" style="stroke:#009af9; stroke-width:3.2; stroke-opacity:1"/>
<line clip-path="url(#clip532)" x1="1118.14" y1="960.563" x2="1134.14" y2="960.563" style="stroke:#009af9; stroke-width:3.2; stroke-opacity:1"/>
<line clip-path="url(#clip532)" x1="1184.09" y1="1018" x2="1184.09" y2="1002" style="stroke:#009af9; stroke-width:3.2; stroke-opacity:1"/>
<line clip-path="url(#clip532)" x1="1184.09" y1="1018" x2="1168.09" y2="1018" style="stroke:#009af9; stroke-width:3.2; stroke-opacity:1"/>
<line clip-path="url(#clip532)" x1="1184.09" y1="1018" x2="1184.09" y2="1034" style="stroke:#009af9; stroke-width:3.2; stroke-opacity:1"/>
<line clip-path="url(#clip532)" x1="1184.09" y1="1018" x2="1200.09" y2="1018" style="stroke:#009af9; stroke-width:3.2; stroke-opacity:1"/>
<line clip-path="url(#clip532)" x1="1250.05" y1="895.048" x2="1250.05" y2="879.048" style="stroke:#009af9; stroke-width:3.2; stroke-opacity:1"/>
<line clip-path="url(#clip532)" x1="1250.05" y1="895.048" x2="1234.05" y2="895.048" style="stroke:#009af9; stroke-width:3.2; stroke-opacity:1"/>
<line clip-path="url(#clip532)" x1="1250.05" y1="895.048" x2="1250.05" y2="911.048" style="stroke:#009af9; stroke-width:3.2; stroke-opacity:1"/>
<line clip-path="url(#clip532)" x1="1250.05" y1="895.048" x2="1266.05" y2="895.048" style="stroke:#009af9; stroke-width:3.2; stroke-opacity:1"/>
<line clip-path="url(#clip532)" x1="1284.84" y1="1064" x2="1284.84" y2="1048" style="stroke:#009af9; stroke-width:3.2; stroke-opacity:1"/>
<line clip-path="url(#clip532)" x1="1284.84" y1="1064" x2="1268.84" y2="1064" style="stroke:#009af9; stroke-width:3.2; stroke-opacity:1"/>
<line clip-path="url(#clip532)" x1="1284.84" y1="1064" x2="1284.84" y2="1080" style="stroke:#009af9; stroke-width:3.2; stroke-opacity:1"/>
<line clip-path="url(#clip532)" x1="1284.84" y1="1064" x2="1300.84" y2="1064" style="stroke:#009af9; stroke-width:3.2; stroke-opacity:1"/>
<line clip-path="url(#clip532)" x1="1319.63" y1="836.687" x2="1319.63" y2="820.687" style="stroke:#009af9; stroke-width:3.2; stroke-opacity:1"/>
<line clip-path="url(#clip532)" x1="1319.63" y1="836.687" x2="1303.63" y2="836.687" style="stroke:#009af9; stroke-width:3.2; stroke-opacity:1"/>
<line clip-path="url(#clip532)" x1="1319.63" y1="836.687" x2="1319.63" y2="852.687" style="stroke:#009af9; stroke-width:3.2; stroke-opacity:1"/>
<line clip-path="url(#clip532)" x1="1319.63" y1="836.687" x2="1335.63" y2="836.687" style="stroke:#009af9; stroke-width:3.2; stroke-opacity:1"/>
<line clip-path="url(#clip532)" x1="1385.59" y1="938.495" x2="1385.59" y2="922.495" style="stroke:#009af9; stroke-width:3.2; stroke-opacity:1"/>
<line clip-path="url(#clip532)" x1="1385.59" y1="938.495" x2="1369.59" y2="938.495" style="stroke:#009af9; stroke-width:3.2; stroke-opacity:1"/>
<line clip-path="url(#clip532)" x1="1385.59" y1="938.495" x2="1385.59" y2="954.495" style="stroke:#009af9; stroke-width:3.2; stroke-opacity:1"/>
<line clip-path="url(#clip532)" x1="1385.59" y1="938.495" x2="1401.59" y2="938.495" style="stroke:#009af9; stroke-width:3.2; stroke-opacity:1"/>
<line clip-path="url(#clip532)" x1="1451.54" y1="771.233" x2="1451.54" y2="755.233" style="stroke:#009af9; stroke-width:3.2; stroke-opacity:1"/>
<line clip-path="url(#clip532)" x1="1451.54" y1="771.233" x2="1435.54" y2="771.233" style="stroke:#009af9; stroke-width:3.2; stroke-opacity:1"/>
<line clip-path="url(#clip532)" x1="1451.54" y1="771.233" x2="1451.54" y2="787.233" style="stroke:#009af9; stroke-width:3.2; stroke-opacity:1"/>
<line clip-path="url(#clip532)" x1="1451.54" y1="771.233" x2="1467.54" y2="771.233" style="stroke:#009af9; stroke-width:3.2; stroke-opacity:1"/>
<line clip-path="url(#clip532)" x1="1486.33" y1="1031.75" x2="1486.33" y2="1015.75" style="stroke:#009af9; stroke-width:3.2; stroke-opacity:1"/>
<line clip-path="url(#clip532)" x1="1486.33" y1="1031.75" x2="1470.33" y2="1031.75" style="stroke:#009af9; stroke-width:3.2; stroke-opacity:1"/>
<line clip-path="url(#clip532)" x1="1486.33" y1="1031.75" x2="1486.33" y2="1047.75" style="stroke:#009af9; stroke-width:3.2; stroke-opacity:1"/>
<line clip-path="url(#clip532)" x1="1486.33" y1="1031.75" x2="1502.33" y2="1031.75" style="stroke:#009af9; stroke-width:3.2; stroke-opacity:1"/>
<line clip-path="url(#clip532)" x1="1521.13" y1="701.207" x2="1521.13" y2="685.207" style="stroke:#009af9; stroke-width:3.2; stroke-opacity:1"/>
<line clip-path="url(#clip532)" x1="1521.13" y1="701.207" x2="1505.13" y2="701.207" style="stroke:#009af9; stroke-width:3.2; stroke-opacity:1"/>
<line clip-path="url(#clip532)" x1="1521.13" y1="701.207" x2="1521.13" y2="717.207" style="stroke:#009af9; stroke-width:3.2; stroke-opacity:1"/>
<line clip-path="url(#clip532)" x1="1521.13" y1="701.207" x2="1537.13" y2="701.207" style="stroke:#009af9; stroke-width:3.2; stroke-opacity:1"/>
<line clip-path="url(#clip532)" x1="1587.08" y1="869.19" x2="1587.08" y2="853.19" style="stroke:#009af9; stroke-width:3.2; stroke-opacity:1"/>
<line clip-path="url(#clip532)" x1="1587.08" y1="869.19" x2="1571.08" y2="869.19" style="stroke:#009af9; stroke-width:3.2; stroke-opacity:1"/>
<line clip-path="url(#clip532)" x1="1587.08" y1="869.19" x2="1587.08" y2="885.19" style="stroke:#009af9; stroke-width:3.2; stroke-opacity:1"/>
<line clip-path="url(#clip532)" x1="1587.08" y1="869.19" x2="1603.08" y2="869.19" style="stroke:#009af9; stroke-width:3.2; stroke-opacity:1"/>
<line clip-path="url(#clip532)" x1="1653.03" y1="635.844" x2="1653.03" y2="619.844" style="stroke:#009af9; stroke-width:3.2; stroke-opacity:1"/>
<line clip-path="url(#clip532)" x1="1653.03" y1="635.844" x2="1637.03" y2="635.844" style="stroke:#009af9; stroke-width:3.2; stroke-opacity:1"/>
<line clip-path="url(#clip532)" x1="1653.03" y1="635.844" x2="1653.03" y2="651.844" style="stroke:#009af9; stroke-width:3.2; stroke-opacity:1"/>
<line clip-path="url(#clip532)" x1="1653.03" y1="635.844" x2="1669.03" y2="635.844" style="stroke:#009af9; stroke-width:3.2; stroke-opacity:1"/>
<line clip-path="url(#clip532)" x1="1687.83" y1="1032.92" x2="1687.83" y2="1016.92" style="stroke:#009af9; stroke-width:3.2; stroke-opacity:1"/>
<line clip-path="url(#clip532)" x1="1687.83" y1="1032.92" x2="1671.83" y2="1032.92" style="stroke:#009af9; stroke-width:3.2; stroke-opacity:1"/>
<line clip-path="url(#clip532)" x1="1687.83" y1="1032.92" x2="1687.83" y2="1048.92" style="stroke:#009af9; stroke-width:3.2; stroke-opacity:1"/>
<line clip-path="url(#clip532)" x1="1687.83" y1="1032.92" x2="1703.83" y2="1032.92" style="stroke:#009af9; stroke-width:3.2; stroke-opacity:1"/>
<line clip-path="url(#clip532)" x1="1722.62" y1="548.417" x2="1722.62" y2="532.417" style="stroke:#009af9; stroke-width:3.2; stroke-opacity:1"/>
<line clip-path="url(#clip532)" x1="1722.62" y1="548.417" x2="1706.62" y2="548.417" style="stroke:#009af9; stroke-width:3.2; stroke-opacity:1"/>
<line clip-path="url(#clip532)" x1="1722.62" y1="548.417" x2="1722.62" y2="564.417" style="stroke:#009af9; stroke-width:3.2; stroke-opacity:1"/>
<line clip-path="url(#clip532)" x1="1722.62" y1="548.417" x2="1738.62" y2="548.417" style="stroke:#009af9; stroke-width:3.2; stroke-opacity:1"/>
<line clip-path="url(#clip532)" x1="1788.57" y1="815.104" x2="1788.57" y2="799.104" style="stroke:#009af9; stroke-width:3.2; stroke-opacity:1"/>
<line clip-path="url(#clip532)" x1="1788.57" y1="815.104" x2="1772.57" y2="815.104" style="stroke:#009af9; stroke-width:3.2; stroke-opacity:1"/>
<line clip-path="url(#clip532)" x1="1788.57" y1="815.104" x2="1788.57" y2="831.104" style="stroke:#009af9; stroke-width:3.2; stroke-opacity:1"/>
<line clip-path="url(#clip532)" x1="1788.57" y1="815.104" x2="1804.57" y2="815.104" style="stroke:#009af9; stroke-width:3.2; stroke-opacity:1"/>
<line clip-path="url(#clip532)" x1="1854.53" y1="483.191" x2="1854.53" y2="467.191" style="stroke:#009af9; stroke-width:3.2; stroke-opacity:1"/>
<line clip-path="url(#clip532)" x1="1854.53" y1="483.191" x2="1838.53" y2="483.191" style="stroke:#009af9; stroke-width:3.2; stroke-opacity:1"/>
<line clip-path="url(#clip532)" x1="1854.53" y1="483.191" x2="1854.53" y2="499.191" style="stroke:#009af9; stroke-width:3.2; stroke-opacity:1"/>
<line clip-path="url(#clip532)" x1="1854.53" y1="483.191" x2="1870.53" y2="483.191" style="stroke:#009af9; stroke-width:3.2; stroke-opacity:1"/>
<line clip-path="url(#clip532)" x1="1889.32" y1="1083.96" x2="1889.32" y2="1067.96" style="stroke:#009af9; stroke-width:3.2; stroke-opacity:1"/>
<line clip-path="url(#clip532)" x1="1889.32" y1="1083.96" x2="1873.32" y2="1083.96" style="stroke:#009af9; stroke-width:3.2; stroke-opacity:1"/>
<line clip-path="url(#clip532)" x1="1889.32" y1="1083.96" x2="1889.32" y2="1099.96" style="stroke:#009af9; stroke-width:3.2; stroke-opacity:1"/>
<line clip-path="url(#clip532)" x1="1889.32" y1="1083.96" x2="1905.32" y2="1083.96" style="stroke:#009af9; stroke-width:3.2; stroke-opacity:1"/>
<line clip-path="url(#clip532)" x1="1924.11" y1="369.81" x2="1924.11" y2="353.81" style="stroke:#009af9; stroke-width:3.2; stroke-opacity:1"/>
<line clip-path="url(#clip532)" x1="1924.11" y1="369.81" x2="1908.11" y2="369.81" style="stroke:#009af9; stroke-width:3.2; stroke-opacity:1"/>
<line clip-path="url(#clip532)" x1="1924.11" y1="369.81" x2="1924.11" y2="385.81" style="stroke:#009af9; stroke-width:3.2; stroke-opacity:1"/>
<line clip-path="url(#clip532)" x1="1924.11" y1="369.81" x2="1940.11" y2="369.81" style="stroke:#009af9; stroke-width:3.2; stroke-opacity:1"/>
<line clip-path="url(#clip532)" x1="1990.07" y1="783.719" x2="1990.07" y2="767.719" style="stroke:#009af9; stroke-width:3.2; stroke-opacity:1"/>
<line clip-path="url(#clip532)" x1="1990.07" y1="783.719" x2="1974.07" y2="783.719" style="stroke:#009af9; stroke-width:3.2; stroke-opacity:1"/>
<line clip-path="url(#clip532)" x1="1990.07" y1="783.719" x2="1990.07" y2="799.719" style="stroke:#009af9; stroke-width:3.2; stroke-opacity:1"/>
<line clip-path="url(#clip532)" x1="1990.07" y1="783.719" x2="2006.07" y2="783.719" style="stroke:#009af9; stroke-width:3.2; stroke-opacity:1"/>
<line clip-path="url(#clip532)" x1="2056.02" y1="304.788" x2="2056.02" y2="288.788" style="stroke:#009af9; stroke-width:3.2; stroke-opacity:1"/>
<line clip-path="url(#clip532)" x1="2056.02" y1="304.788" x2="2040.02" y2="304.788" style="stroke:#009af9; stroke-width:3.2; stroke-opacity:1"/>
<line clip-path="url(#clip532)" x1="2056.02" y1="304.788" x2="2056.02" y2="320.788" style="stroke:#009af9; stroke-width:3.2; stroke-opacity:1"/>
<line clip-path="url(#clip532)" x1="2056.02" y1="304.788" x2="2072.02" y2="304.788" style="stroke:#009af9; stroke-width:3.2; stroke-opacity:1"/>
<line clip-path="url(#clip532)" x1="2090.81" y1="1209.37" x2="2090.81" y2="1193.37" style="stroke:#009af9; stroke-width:3.2; stroke-opacity:1"/>
<line clip-path="url(#clip532)" x1="2090.81" y1="1209.37" x2="2074.81" y2="1209.37" style="stroke:#009af9; stroke-width:3.2; stroke-opacity:1"/>
<line clip-path="url(#clip532)" x1="2090.81" y1="1209.37" x2="2090.81" y2="1225.37" style="stroke:#009af9; stroke-width:3.2; stroke-opacity:1"/>
<line clip-path="url(#clip532)" x1="2090.81" y1="1209.37" x2="2106.81" y2="1209.37" style="stroke:#009af9; stroke-width:3.2; stroke-opacity:1"/>
<line clip-path="url(#clip532)" x1="2125.61" y1="152.695" x2="2125.61" y2="136.695" style="stroke:#009af9; stroke-width:3.2; stroke-opacity:1"/>
<line clip-path="url(#clip532)" x1="2125.61" y1="152.695" x2="2109.61" y2="152.695" style="stroke:#009af9; stroke-width:3.2; stroke-opacity:1"/>
<line clip-path="url(#clip532)" x1="2125.61" y1="152.695" x2="2125.61" y2="168.695" style="stroke:#009af9; stroke-width:3.2; stroke-opacity:1"/>
<line clip-path="url(#clip532)" x1="2125.61" y1="152.695" x2="2141.61" y2="152.695" style="stroke:#009af9; stroke-width:3.2; stroke-opacity:1"/>
<line clip-path="url(#clip532)" x1="2191.56" y1="786.192" x2="2191.56" y2="770.192" style="stroke:#009af9; stroke-width:3.2; stroke-opacity:1"/>
<line clip-path="url(#clip532)" x1="2191.56" y1="786.192" x2="2175.56" y2="786.192" style="stroke:#009af9; stroke-width:3.2; stroke-opacity:1"/>
<line clip-path="url(#clip532)" x1="2191.56" y1="786.192" x2="2191.56" y2="802.192" style="stroke:#009af9; stroke-width:3.2; stroke-opacity:1"/>
<line clip-path="url(#clip532)" x1="2191.56" y1="786.192" x2="2207.56" y2="786.192" style="stroke:#009af9; stroke-width:3.2; stroke-opacity:1"/>
<line clip-path="url(#clip532)" x1="2257.52" y1="87.9763" x2="2257.52" y2="71.9763" style="stroke:#009af9; stroke-width:3.2; stroke-opacity:1"/>
<line clip-path="url(#clip532)" x1="2257.52" y1="87.9763" x2="2241.52" y2="87.9763" style="stroke:#009af9; stroke-width:3.2; stroke-opacity:1"/>
<line clip-path="url(#clip532)" x1="2257.52" y1="87.9763" x2="2257.52" y2="103.976" style="stroke:#009af9; stroke-width:3.2; stroke-opacity:1"/>
<line clip-path="url(#clip532)" x1="2257.52" y1="87.9763" x2="2273.52" y2="87.9763" style="stroke:#009af9; stroke-width:3.2; stroke-opacity:1"/>
<line clip-path="url(#clip532)" x1="2292.31" y1="1445.72" x2="2292.31" y2="1429.72" style="stroke:#009af9; stroke-width:3.2; stroke-opacity:1"/>
<line clip-path="url(#clip532)" x1="2292.31" y1="1445.72" x2="2276.31" y2="1445.72" style="stroke:#009af9; stroke-width:3.2; stroke-opacity:1"/>
<line clip-path="url(#clip532)" x1="2292.31" y1="1445.72" x2="2292.31" y2="1461.72" style="stroke:#009af9; stroke-width:3.2; stroke-opacity:1"/>
<line clip-path="url(#clip532)" x1="2292.31" y1="1445.72" x2="2308.31" y2="1445.72" style="stroke:#009af9; stroke-width:3.2; stroke-opacity:1"/>
</svg>
