<?xml version="1.0" encoding="utf-8"?>
<svg xmlns="http://www.w3.org/2000/svg" xmlns:xlink="http://www.w3.org/1999/xlink" width="600" height="400" viewBox="0 0 2400 1600">
<defs>
  <clipPath id="clip170">
    <rect x="0" y="0" width="2400" height="1600"/>
  </clipPath>
</defs>
<path clip-path="url(#clip170)" d="
M0 1600 L2400 1600 L2400 0 L0 0  Z
  " fill="#ffffff" fill-rule="evenodd" fill-opacity="1"/>
<defs>
  <clipPath id="clip171">
    <rect x="480" y="0" width="1681" height="1600"/>
  </clipPath>
</defs>
<path clip-path="url(#clip170)" d="
M188.574 1486.45 L2352.76 1486.45 L2352.76 47.2441 L188.574 47.2441  Z
  " fill="#ffffff" fill-rule="evenodd" fill-opacity="1"/>
<defs>
  <clipPath id="clip172">
    <rect x="188" y="47" width="2165" height="1440"/>
  </clipPath>
</defs>
<polyline clip-path="url(#clip172)" style="stroke:#000000; stroke-linecap:butt; stroke-linejoin:round; stroke-width:2; stroke-opacity:0.1; fill:none" points="
  227.389,1486.45 227.389,47.2441 
  "/>
<polyline clip-path="url(#clip172)" style="stroke:#000000; stroke-linecap:butt; stroke-linejoin:round; stroke-width:2; stroke-opacity:0.1; fill:none" points="
  676.11,1486.45 676.11,47.2441 
  "/>
<polyline clip-path="url(#clip172)" style="stroke:#000000; stroke-linecap:butt; stroke-linejoin:round; stroke-width:2; stroke-opacity:0.1; fill:none" points="
  1124.83,1486.45 1124.83,47.2441 
  "/>
<polyline clip-path="url(#clip172)" style="stroke:#000000; stroke-linecap:butt; stroke-linejoin:round; stroke-width:2; stroke-opacity:0.1; fill:none" points="
  1573.55,1486.45 1573.55,47.2441 
  "/>
<polyline clip-path="url(#clip172)" style="stroke:#000000; stroke-linecap:butt; stroke-linejoin:round; stroke-width:2; stroke-opacity:0.1; fill:none" points="
  2022.27,1486.45 2022.27,47.2441 
  "/>
<polyline clip-path="url(#clip170)" style="stroke:#000000; stroke-linecap:butt; stroke-linejoin:round; stroke-width:4; stroke-opacity:1; fill:none" points="
  188.574,1486.45 2352.76,1486.45 
  "/>
<polyline clip-path="url(#clip170)" style="stroke:#000000; stroke-linecap:butt; stroke-linejoin:round; stroke-width:4; stroke-opacity:1; fill:none" points="
  227.389,1486.45 227.389,1467.55 
  "/>
<polyline clip-path="url(#clip170)" style="stroke:#000000; stroke-linecap:butt; stroke-linejoin:round; stroke-width:4; stroke-opacity:1; fill:none" points="
  676.11,1486.45 676.11,1467.55 
  "/>
<polyline clip-path="url(#clip170)" style="stroke:#000000; stroke-linecap:butt; stroke-linejoin:round; stroke-width:4; stroke-opacity:1; fill:none" points="
  1124.83,1486.45 1124.83,1467.55 
  "/>
<polyline clip-path="url(#clip170)" style="stroke:#000000; stroke-linecap:butt; stroke-linejoin:round; stroke-width:4; stroke-opacity:1; fill:none" points="
  1573.55,1486.45 1573.55,1467.55 
  "/>
<polyline clip-path="url(#clip170)" style="stroke:#000000; stroke-linecap:butt; stroke-linejoin:round; stroke-width:4; stroke-opacity:1; fill:none" points="
  2022.27,1486.45 2022.27,1467.55 
  "/>
<path clip-path="url(#clip170)" d="M227.389 1517.37 Q223.778 1517.37 221.949 1520.93 Q220.143 1524.47 220.143 1531.6 Q220.143 1538.71 221.949 1542.27 Q223.778 1545.82 227.389 1545.82 Q231.023 1545.82 232.828 1542.27 Q234.657 1538.71 234.657 1531.6 Q234.657 1524.47 232.828 1520.93 Q231.023 1517.37 227.389 1517.37 M227.389 1513.66 Q233.199 1513.66 236.254 1518.27 Q239.333 1522.85 239.333 1531.6 Q239.333 1540.33 236.254 1544.94 Q233.199 1549.52 227.389 1549.52 Q221.579 1549.52 218.5 1544.94 Q215.444 1540.33 215.444 1531.6 Q215.444 1522.85 218.5 1518.27 Q221.579 1513.66 227.389 1513.66 Z" fill="#000000" fill-rule="evenodd" fill-opacity="1" /><path clip-path="url(#clip170)" d="M654.883 1544.91 L671.202 1544.91 L671.202 1548.85 L649.258 1548.85 L649.258 1544.91 Q651.92 1542.16 656.503 1537.53 Q661.11 1532.88 662.29 1531.53 Q664.536 1529.01 665.415 1527.27 Q666.318 1525.51 666.318 1523.82 Q666.318 1521.07 664.374 1519.33 Q662.452 1517.6 659.351 1517.6 Q657.152 1517.6 654.698 1518.36 Q652.267 1519.13 649.49 1520.68 L649.49 1515.95 Q652.314 1514.82 654.767 1514.24 Q657.221 1513.66 659.258 1513.66 Q664.628 1513.66 667.823 1516.35 Q671.017 1519.03 671.017 1523.52 Q671.017 1525.65 670.207 1527.57 Q669.42 1529.47 667.313 1532.07 Q666.735 1532.74 663.633 1535.95 Q660.531 1539.15 654.883 1544.91 Z" fill="#000000" fill-rule="evenodd" fill-opacity="1" /><path clip-path="url(#clip170)" d="M691.017 1517.37 Q687.406 1517.37 685.577 1520.93 Q683.772 1524.47 683.772 1531.6 Q683.772 1538.71 685.577 1542.27 Q687.406 1545.82 691.017 1545.82 Q694.651 1545.82 696.457 1542.27 Q698.286 1538.71 698.286 1531.6 Q698.286 1524.47 696.457 1520.93 Q694.651 1517.37 691.017 1517.37 M691.017 1513.66 Q696.827 1513.66 699.883 1518.27 Q702.961 1522.85 702.961 1531.6 Q702.961 1540.33 699.883 1544.94 Q696.827 1549.52 691.017 1549.52 Q685.207 1549.52 682.128 1544.94 Q679.073 1540.33 679.073 1531.6 Q679.073 1522.85 682.128 1518.27 Q685.207 1513.66 691.017 1513.66 Z" fill="#000000" fill-rule="evenodd" fill-opacity="1" /><path clip-path="url(#clip170)" d="M1113 1518.36 L1101.2 1536.81 L1113 1536.81 L1113 1518.36 M1111.78 1514.29 L1117.65 1514.29 L1117.65 1536.81 L1122.59 1536.81 L1122.59 1540.7 L1117.65 1540.7 L1117.65 1548.85 L1113 1548.85 L1113 1540.7 L1097.4 1540.7 L1097.4 1536.19 L1111.78 1514.29 Z" fill="#000000" fill-rule="evenodd" fill-opacity="1" /><path clip-path="url(#clip170)" d="M1140.32 1517.37 Q1136.71 1517.37 1134.88 1520.93 Q1133.07 1524.47 1133.07 1531.6 Q1133.07 1538.71 1134.88 1542.27 Q1136.71 1545.82 1140.32 1545.82 Q1143.95 1545.82 1145.76 1542.27 Q1147.59 1538.71 1147.59 1531.6 Q1147.59 1524.47 1145.76 1520.93 Q1143.95 1517.37 1140.32 1517.37 M1140.32 1513.66 Q1146.13 1513.66 1149.18 1518.27 Q1152.26 1522.85 1152.26 1531.6 Q1152.26 1540.33 1149.18 1544.94 Q1146.13 1549.52 1140.32 1549.52 Q1134.51 1549.52 1131.43 1544.94 Q1128.37 1540.33 1128.37 1531.6 Q1128.37 1522.85 1131.43 1518.27 Q1134.51 1513.66 1140.32 1513.66 Z" fill="#000000" fill-rule="evenodd" fill-opacity="1" /><path clip-path="url(#clip170)" d="M1558.96 1529.7 Q1555.81 1529.7 1553.96 1531.86 Q1552.13 1534.01 1552.13 1537.76 Q1552.13 1541.49 1553.96 1543.66 Q1555.81 1545.82 1558.96 1545.82 Q1562.11 1545.82 1563.93 1543.66 Q1565.79 1541.49 1565.79 1537.76 Q1565.79 1534.01 1563.93 1531.86 Q1562.11 1529.7 1558.96 1529.7 M1568.24 1515.05 L1568.24 1519.31 Q1566.48 1518.48 1564.67 1518.04 Q1562.89 1517.6 1561.13 1517.6 Q1556.5 1517.6 1554.05 1520.72 Q1551.62 1523.85 1551.27 1530.17 Q1552.64 1528.15 1554.7 1527.09 Q1556.76 1526 1559.23 1526 Q1564.44 1526 1567.45 1529.17 Q1570.48 1532.32 1570.48 1537.76 Q1570.48 1543.08 1567.34 1546.3 Q1564.19 1549.52 1558.96 1549.52 Q1552.96 1549.52 1549.79 1544.94 Q1546.62 1540.33 1546.62 1531.6 Q1546.62 1523.41 1550.51 1518.55 Q1554.4 1513.66 1560.95 1513.66 Q1562.71 1513.66 1564.49 1514.01 Q1566.29 1514.36 1568.24 1515.05 Z" fill="#000000" fill-rule="evenodd" fill-opacity="1" /><path clip-path="url(#clip170)" d="M1588.54 1517.37 Q1584.93 1517.37 1583.1 1520.93 Q1581.29 1524.47 1581.29 1531.6 Q1581.29 1538.71 1583.1 1542.27 Q1584.93 1545.82 1588.54 1545.82 Q1592.17 1545.82 1593.98 1542.27 Q1595.81 1538.71 1595.81 1531.6 Q1595.81 1524.47 1593.98 1520.93 Q1592.17 1517.37 1588.54 1517.37 M1588.54 1513.66 Q1594.35 1513.66 1597.41 1518.27 Q1600.48 1522.85 1600.48 1531.6 Q1600.48 1540.33 1597.41 1544.94 Q1594.35 1549.52 1588.54 1549.52 Q1582.73 1549.52 1579.65 1544.94 Q1576.6 1540.33 1576.6 1531.6 Q1576.6 1522.85 1579.65 1518.27 Q1582.73 1513.66 1588.54 1513.66 Z" fill="#000000" fill-rule="evenodd" fill-opacity="1" /><path clip-path="url(#clip170)" d="M2007.15 1532.44 Q2003.81 1532.44 2001.89 1534.22 Q1999.99 1536 1999.99 1539.13 Q1999.99 1542.25 2001.89 1544.03 Q2003.81 1545.82 2007.15 1545.82 Q2010.48 1545.82 2012.4 1544.03 Q2014.32 1542.23 2014.32 1539.13 Q2014.32 1536 2012.4 1534.22 Q2010.5 1532.44 2007.15 1532.44 M2002.47 1530.45 Q1999.46 1529.7 1997.77 1527.64 Q1996.1 1525.58 1996.1 1522.62 Q1996.1 1518.48 1999.04 1516.07 Q2002.01 1513.66 2007.15 1513.66 Q2012.31 1513.66 2015.25 1516.07 Q2018.19 1518.48 2018.19 1522.62 Q2018.19 1525.58 2016.5 1527.64 Q2014.83 1529.7 2011.84 1530.45 Q2015.22 1531.23 2017.1 1533.52 Q2019 1535.82 2019 1539.13 Q2019 1544.15 2015.92 1546.83 Q2012.86 1549.52 2007.15 1549.52 Q2001.43 1549.52 1998.35 1546.83 Q1995.29 1544.15 1995.29 1539.13 Q1995.29 1535.82 1997.19 1533.52 Q1999.09 1531.23 2002.47 1530.45 M2000.76 1523.06 Q2000.76 1525.75 2002.42 1527.25 Q2004.11 1528.76 2007.15 1528.76 Q2010.15 1528.76 2011.84 1527.25 Q2013.56 1525.75 2013.56 1523.06 Q2013.56 1520.38 2011.84 1518.87 Q2010.15 1517.37 2007.15 1517.37 Q2004.11 1517.37 2002.42 1518.87 Q2000.76 1520.38 2000.76 1523.06 Z" fill="#000000" fill-rule="evenodd" fill-opacity="1" /><path clip-path="url(#clip170)" d="M2037.31 1517.37 Q2033.7 1517.37 2031.87 1520.93 Q2030.06 1524.47 2030.06 1531.6 Q2030.06 1538.71 2031.87 1542.27 Q2033.7 1545.82 2037.31 1545.82 Q2040.94 1545.82 2042.75 1542.27 Q2044.58 1538.71 2044.58 1531.6 Q2044.58 1524.47 2042.75 1520.93 Q2040.94 1517.37 2037.31 1517.37 M2037.31 1513.66 Q2043.12 1513.66 2046.17 1518.27 Q2049.25 1522.85 2049.25 1531.6 Q2049.25 1540.33 2046.17 1544.94 Q2043.12 1549.52 2037.31 1549.52 Q2031.5 1549.52 2028.42 1544.94 Q2025.36 1540.33 2025.36 1531.6 Q2025.36 1522.85 2028.42 1518.27 Q2031.5 1513.66 2037.31 1513.66 Z" fill="#000000" fill-rule="evenodd" fill-opacity="1" /><polyline clip-path="url(#clip172)" style="stroke:#000000; stroke-linecap:butt; stroke-linejoin:round; stroke-width:2; stroke-opacity:0.1; fill:none" points="
  188.574,871.408 2352.76,871.408 
  "/>
<polyline clip-path="url(#clip172)" style="stroke:#000000; stroke-linecap:butt; stroke-linejoin:round; stroke-width:2; stroke-opacity:0.1; fill:none" points="
  188.574,245.599 2352.76,245.599 
  "/>
<polyline clip-path="url(#clip170)" style="stroke:#000000; stroke-linecap:butt; stroke-linejoin:round; stroke-width:4; stroke-opacity:1; fill:none" points="
  188.574,1486.45 188.574,47.2441 
  "/>
<polyline clip-path="url(#clip170)" style="stroke:#000000; stroke-linecap:butt; stroke-linejoin:round; stroke-width:4; stroke-opacity:1; fill:none" points="
  188.574,871.408 207.472,871.408 
  "/>
<polyline clip-path="url(#clip170)" style="stroke:#000000; stroke-linecap:butt; stroke-linejoin:round; stroke-width:4; stroke-opacity:1; fill:none" points="
  188.574,245.599 207.472,245.599 
  "/>
<path clip-path="url(#clip170)" d="M51.6634 891.2 L59.3023 891.2 L59.3023 864.835 L50.9921 866.501 L50.9921 862.242 L59.256 860.575 L63.9319 860.575 L63.9319 891.2 L71.5707 891.2 L71.5707 895.135 L51.6634 895.135 L51.6634 891.2 Z" fill="#000000" fill-rule="evenodd" fill-opacity="1" /><path clip-path="url(#clip170)" d="M91.0151 863.654 Q87.404 863.654 85.5753 867.219 Q83.7697 870.76 83.7697 877.89 Q83.7697 884.997 85.5753 888.561 Q87.404 892.103 91.0151 892.103 Q94.6493 892.103 96.4548 888.561 Q98.2835 884.997 98.2835 877.89 Q98.2835 870.76 96.4548 867.219 Q94.6493 863.654 91.0151 863.654 M91.0151 859.95 Q96.8252 859.95 99.8808 864.557 Q102.959 869.14 102.959 877.89 Q102.959 886.617 99.8808 891.223 Q96.8252 895.807 91.0151 895.807 Q85.2049 895.807 82.1262 891.223 Q79.0707 886.617 79.0707 877.89 Q79.0707 869.14 82.1262 864.557 Q85.2049 859.95 91.0151 859.95 Z" fill="#000000" fill-rule="evenodd" fill-opacity="1" /><path clip-path="url(#clip170)" d="M102.959 854.052 L127.071 854.052 L127.071 857.249 L102.959 857.249 L102.959 854.052 Z" fill="#000000" fill-rule="evenodd" fill-opacity="1" /><path clip-path="url(#clip170)" d="M146.782 852.585 Q149.509 853.168 151.032 855.011 Q152.574 856.854 152.574 859.562 Q152.574 863.719 149.716 865.995 Q146.857 868.27 141.591 868.27 Q139.823 868.27 137.942 867.913 Q136.08 867.575 134.086 866.879 L134.086 863.211 Q135.666 864.133 137.547 864.603 Q139.428 865.073 141.478 865.073 Q145.051 865.073 146.913 863.662 Q148.794 862.252 148.794 859.562 Q148.794 857.08 147.045 855.688 Q145.315 854.277 142.211 854.277 L138.939 854.277 L138.939 851.155 L142.362 851.155 Q145.164 851.155 146.65 850.046 Q148.136 848.917 148.136 846.811 Q148.136 844.648 146.593 843.501 Q145.07 842.334 142.211 842.334 Q140.65 842.334 138.863 842.673 Q137.077 843.012 134.933 843.726 L134.933 840.341 Q137.096 839.739 138.976 839.438 Q140.876 839.137 142.55 839.137 Q146.876 839.137 149.396 841.112 Q151.916 843.068 151.916 846.416 Q151.916 848.748 150.581 850.365 Q149.245 851.964 146.782 852.585 Z" fill="#000000" fill-rule="evenodd" fill-opacity="1" /><path clip-path="url(#clip170)" d="M81.8687 265.391 L89.5075 265.391 L89.5075 239.026 L81.1974 240.692 L81.1974 236.433 L89.4612 234.767 L94.1371 234.767 L94.1371 265.391 L101.776 265.391 L101.776 269.327 L81.8687 269.327 L81.8687 265.391 Z" fill="#000000" fill-rule="evenodd" fill-opacity="1" /><path clip-path="url(#clip170)" d="M121.22 237.845 Q117.609 237.845 115.781 241.41 Q113.975 244.952 113.975 252.081 Q113.975 259.188 115.781 262.753 Q117.609 266.294 121.22 266.294 Q124.855 266.294 126.66 262.753 Q128.489 259.188 128.489 252.081 Q128.489 244.952 126.66 241.41 Q124.855 237.845 121.22 237.845 M121.22 234.142 Q127.03 234.142 130.086 238.748 Q133.165 243.331 133.165 252.081 Q133.165 260.808 130.086 265.415 Q127.03 269.998 121.22 269.998 Q115.41 269.998 112.331 265.415 Q109.276 260.808 109.276 252.081 Q109.276 243.331 112.331 238.748 Q115.41 234.142 121.22 234.142 Z" fill="#000000" fill-rule="evenodd" fill-opacity="1" /><path clip-path="url(#clip170)" d="M142.87 216.338 Q139.936 216.338 138.45 219.234 Q136.983 222.112 136.983 227.904 Q136.983 233.678 138.45 236.575 Q139.936 239.452 142.87 239.452 Q145.822 239.452 147.289 236.575 Q148.775 233.678 148.775 227.904 Q148.775 222.112 147.289 219.234 Q145.822 216.338 142.87 216.338 M142.87 213.328 Q147.59 213.328 150.073 217.071 Q152.574 220.795 152.574 227.904 Q152.574 234.995 150.073 238.738 Q147.59 242.462 142.87 242.462 Q138.149 242.462 135.647 238.738 Q133.165 234.995 133.165 227.904 Q133.165 220.795 135.647 217.071 Q138.149 213.328 142.87 213.328 Z" fill="#000000" fill-rule="evenodd" fill-opacity="1" /><polyline clip-path="url(#clip172)" style="stroke:#009af9; stroke-linecap:butt; stroke-linejoin:round; stroke-width:12; stroke-opacity:1; fill:none" points="
  249.825,172.536 272.261,87.9763 294.697,87.9763 317.133,87.9763 339.569,87.9763 362.005,87.9763 384.441,103.733 406.877,129.396 429.313,141.208 451.749,143.667 
  474.185,142.324 496.621,141.881 519.057,141.716 541.493,141.645 563.929,152.562 586.366,198.301 608.802,157.749 631.238,173.967 653.674,221.832 676.11,224.277 
  698.546,248.449 720.982,245.116 743.418,249.04 765.854,267.276 788.29,259.228 810.726,291.597 833.162,289.211 855.598,235.865 878.034,301.178 900.47,364.227 
  922.906,206.002 945.342,353.069 967.778,313.81 990.214,313.81 1012.65,313.81 1035.09,315.073 1057.52,315.585 1079.96,315.648 1102.39,315.683 1124.83,315.701 
  1147.27,315.71 1169.7,315.715 1192.14,315.718 1214.57,315.719 1237.01,315.719 1259.45,321.58 1281.88,411.601 1304.32,434.517 1326.76,385.052 1349.19,385.045 
  1371.63,385.042 1394.06,385.041 1416.5,385.04 1438.94,385.039 1461.37,419.531 1483.81,467.194 1506.24,405.278 1528.68,421.028 1551.12,474.523 1573.55,428.16 
  1595.99,428.16 1618.42,474.751 1640.86,475.869 1663.3,476.193 1685.73,476.445 1708.17,477.765 1730.6,478.161 1753.04,478.355 1775.48,476.976 1797.91,477.645 
  1820.35,477.419 1842.78,479.264 1865.22,479.209 1887.66,479.379 1910.09,482.996 1932.53,484.79 1954.96,481.927 1977.4,486.317 1999.84,482.547 2022.27,486.21 
  2044.71,483.713 2067.14,486.983 2089.58,484.558 2112.02,489.112 2134.45,488.004 2156.89,496.131 2179.33,501.612 2201.76,527.979 2224.2,598.368 2246.63,699.488 
  2269.07,958.998 2291.51,1445.72 
  "/>
<circle clip-path="url(#clip172)" cx="249.825" cy="172.536" r="14.4" fill="#009af9" fill-rule="evenodd" fill-opacity="1" stroke="#000000" stroke-opacity="1" stroke-width="3.2"/>
<circle clip-path="url(#clip172)" cx="272.261" cy="87.9763" r="14.4" fill="#009af9" fill-rule="evenodd" fill-opacity="1" stroke="#000000" stroke-opacity="1" stroke-width="3.2"/>
<circle clip-path="url(#clip172)" cx="294.697" cy="87.9763" r="14.4" fill="#009af9" fill-rule="evenodd" fill-opacity="1" stroke="#000000" stroke-opacity="1" stroke-width="3.2"/>
<circle clip-path="url(#clip172)" cx="317.133" cy="87.9763" r="14.4" fill="#009af9" fill-rule="evenodd" fill-opacity="1" stroke="#000000" stroke-opacity="1" stroke-width="3.2"/>
<circle clip-path="url(#clip172)" cx="339.569" cy="87.9763" r="14.4" fill="#009af9" fill-rule="evenodd" fill-opacity="1" stroke="#000000" stroke-opacity="1" stroke-width="3.2"/>
<circle clip-path="url(#clip172)" cx="362.005" cy="87.9763" r="14.4" fill="#009af9" fill-rule="evenodd" fill-opacity="1" stroke="#000000" stroke-opacity="1" stroke-width="3.2"/>
<circle clip-path="url(#clip172)" cx="384.441" cy="103.733" r="14.4" fill="#009af9" fill-rule="evenodd" fill-opacity="1" stroke="#000000" stroke-opacity="1" stroke-width="3.2"/>
<circle clip-path="url(#clip172)" cx="406.877" cy="129.396" r="14.4" fill="#009af9" fill-rule="evenodd" fill-opacity="1" stroke="#000000" stroke-opacity="1" stroke-width="3.2"/>
<circle clip-path="url(#clip172)" cx="429.313" cy="141.208" r="14.4" fill="#009af9" fill-rule="evenodd" fill-opacity="1" stroke="#000000" stroke-opacity="1" stroke-width="3.2"/>
<circle clip-path="url(#clip172)" cx="451.749" cy="143.667" r="14.4" fill="#009af9" fill-rule="evenodd" fill-opacity="1" stroke="#000000" stroke-opacity="1" stroke-width="3.2"/>
<circle clip-path="url(#clip172)" cx="474.185" cy="142.324" r="14.4" fill="#009af9" fill-rule="evenodd" fill-opacity="1" stroke="#000000" stroke-opacity="1" stroke-width="3.2"/>
<circle clip-path="url(#clip172)" cx="496.621" cy="141.881" r="14.4" fill="#009af9" fill-rule="evenodd" fill-opacity="1" stroke="#000000" stroke-opacity="1" stroke-width="3.2"/>
<circle clip-path="url(#clip172)" cx="519.057" cy="141.716" r="14.4" fill="#009af9" fill-rule="evenodd" fill-opacity="1" stroke="#000000" stroke-opacity="1" stroke-width="3.2"/>
<circle clip-path="url(#clip172)" cx="541.493" cy="141.645" r="14.4" fill="#009af9" fill-rule="evenodd" fill-opacity="1" stroke="#000000" stroke-opacity="1" stroke-width="3.2"/>
<circle clip-path="url(#clip172)" cx="563.929" cy="152.562" r="14.4" fill="#009af9" fill-rule="evenodd" fill-opacity="1" stroke="#000000" stroke-opacity="1" stroke-width="3.2"/>
<circle clip-path="url(#clip172)" cx="586.366" cy="198.301" r="14.4" fill="#009af9" fill-rule="evenodd" fill-opacity="1" stroke="#000000" stroke-opacity="1" stroke-width="3.2"/>
<circle clip-path="url(#clip172)" cx="608.802" cy="157.749" r="14.4" fill="#009af9" fill-rule="evenodd" fill-opacity="1" stroke="#000000" stroke-opacity="1" stroke-width="3.2"/>
<circle clip-path="url(#clip172)" cx="631.238" cy="173.967" r="14.4" fill="#009af9" fill-rule="evenodd" fill-opacity="1" stroke="#000000" stroke-opacity="1" stroke-width="3.2"/>
<circle clip-path="url(#clip172)" cx="653.674" cy="221.832" r="14.4" fill="#009af9" fill-rule="evenodd" fill-opacity="1" stroke="#000000" stroke-opacity="1" stroke-width="3.2"/>
<circle clip-path="url(#clip172)" cx="676.11" cy="224.277" r="14.4" fill="#009af9" fill-rule="evenodd" fill-opacity="1" stroke="#000000" stroke-opacity="1" stroke-width="3.2"/>
<circle clip-path="url(#clip172)" cx="698.546" cy="248.449" r="14.4" fill="#009af9" fill-rule="evenodd" fill-opacity="1" stroke="#000000" stroke-opacity="1" stroke-width="3.2"/>
<circle clip-path="url(#clip172)" cx="720.982" cy="245.116" r="14.4" fill="#009af9" fill-rule="evenodd" fill-opacity="1" stroke="#000000" stroke-opacity="1" stroke-width="3.2"/>
<circle clip-path="url(#clip172)" cx="743.418" cy="249.04" r="14.4" fill="#009af9" fill-rule="evenodd" fill-opacity="1" stroke="#000000" stroke-opacity="1" stroke-width="3.2"/>
<circle clip-path="url(#clip172)" cx="765.854" cy="267.276" r="14.4" fill="#009af9" fill-rule="evenodd" fill-opacity="1" stroke="#000000" stroke-opacity="1" stroke-width="3.2"/>
<circle clip-path="url(#clip172)" cx="788.29" cy="259.228" r="14.4" fill="#009af9" fill-rule="evenodd" fill-opacity="1" stroke="#000000" stroke-opacity="1" stroke-width="3.2"/>
<circle clip-path="url(#clip172)" cx="810.726" cy="291.597" r="14.4" fill="#009af9" fill-rule="evenodd" fill-opacity="1" stroke="#000000" stroke-opacity="1" stroke-width="3.2"/>
<circle clip-path="url(#clip172)" cx="833.162" cy="289.211" r="14.4" fill="#009af9" fill-rule="evenodd" fill-opacity="1" stroke="#000000" stroke-opacity="1" stroke-width="3.2"/>
<circle clip-path="url(#clip172)" cx="855.598" cy="235.865" r="14.4" fill="#009af9" fill-rule="evenodd" fill-opacity="1" stroke="#000000" stroke-opacity="1" stroke-width="3.2"/>
<circle clip-path="url(#clip172)" cx="878.034" cy="301.178" r="14.4" fill="#009af9" fill-rule="evenodd" fill-opacity="1" stroke="#000000" stroke-opacity="1" stroke-width="3.2"/>
<circle clip-path="url(#clip172)" cx="900.47" cy="364.227" r="14.4" fill="#009af9" fill-rule="evenodd" fill-opacity="1" stroke="#000000" stroke-opacity="1" stroke-width="3.2"/>
<circle clip-path="url(#clip172)" cx="922.906" cy="206.002" r="14.4" fill="#009af9" fill-rule="evenodd" fill-opacity="1" stroke="#000000" stroke-opacity="1" stroke-width="3.2"/>
<circle clip-path="url(#clip172)" cx="945.342" cy="353.069" r="14.4" fill="#009af9" fill-rule="evenodd" fill-opacity="1" stroke="#000000" stroke-opacity="1" stroke-width="3.2"/>
<circle clip-path="url(#clip172)" cx="967.778" cy="313.81" r="14.4" fill="#009af9" fill-rule="evenodd" fill-opacity="1" stroke="#000000" stroke-opacity="1" stroke-width="3.2"/>
<circle clip-path="url(#clip172)" cx="990.214" cy="313.81" r="14.4" fill="#009af9" fill-rule="evenodd" fill-opacity="1" stroke="#000000" stroke-opacity="1" stroke-width="3.2"/>
<circle clip-path="url(#clip172)" cx="1012.65" cy="313.81" r="14.4" fill="#009af9" fill-rule="evenodd" fill-opacity="1" stroke="#000000" stroke-opacity="1" stroke-width="3.2"/>
<circle clip-path="url(#clip172)" cx="1035.09" cy="315.073" r="14.4" fill="#009af9" fill-rule="evenodd" fill-opacity="1" stroke="#000000" stroke-opacity="1" stroke-width="3.2"/>
<circle clip-path="url(#clip172)" cx="1057.52" cy="315.585" r="14.4" fill="#009af9" fill-rule="evenodd" fill-opacity="1" stroke="#000000" stroke-opacity="1" stroke-width="3.2"/>
<circle clip-path="url(#clip172)" cx="1079.96" cy="315.648" r="14.4" fill="#009af9" fill-rule="evenodd" fill-opacity="1" stroke="#000000" stroke-opacity="1" stroke-width="3.2"/>
<circle clip-path="url(#clip172)" cx="1102.39" cy="315.683" r="14.4" fill="#009af9" fill-rule="evenodd" fill-opacity="1" stroke="#000000" stroke-opacity="1" stroke-width="3.2"/>
<circle clip-path="url(#clip172)" cx="1124.83" cy="315.701" r="14.4" fill="#009af9" fill-rule="evenodd" fill-opacity="1" stroke="#000000" stroke-opacity="1" stroke-width="3.2"/>
<circle clip-path="url(#clip172)" cx="1147.27" cy="315.71" r="14.4" fill="#009af9" fill-rule="evenodd" fill-opacity="1" stroke="#000000" stroke-opacity="1" stroke-width="3.2"/>
<circle clip-path="url(#clip172)" cx="1169.7" cy="315.715" r="14.4" fill="#009af9" fill-rule="evenodd" fill-opacity="1" stroke="#000000" stroke-opacity="1" stroke-width="3.2"/>
<circle clip-path="url(#clip172)" cx="1192.14" cy="315.718" r="14.4" fill="#009af9" fill-rule="evenodd" fill-opacity="1" stroke="#000000" stroke-opacity="1" stroke-width="3.2"/>
<circle clip-path="url(#clip172)" cx="1214.57" cy="315.719" r="14.4" fill="#009af9" fill-rule="evenodd" fill-opacity="1" stroke="#000000" stroke-opacity="1" stroke-width="3.2"/>
<circle clip-path="url(#clip172)" cx="1237.01" cy="315.719" r="14.4" fill="#009af9" fill-rule="evenodd" fill-opacity="1" stroke="#000000" stroke-opacity="1" stroke-width="3.2"/>
<circle clip-path="url(#clip172)" cx="1259.45" cy="321.58" r="14.4" fill="#009af9" fill-rule="evenodd" fill-opacity="1" stroke="#000000" stroke-opacity="1" stroke-width="3.2"/>
<circle clip-path="url(#clip172)" cx="1281.88" cy="411.601" r="14.4" fill="#009af9" fill-rule="evenodd" fill-opacity="1" stroke="#000000" stroke-opacity="1" stroke-width="3.2"/>
<circle clip-path="url(#clip172)" cx="1304.32" cy="434.517" r="14.4" fill="#009af9" fill-rule="evenodd" fill-opacity="1" stroke="#000000" stroke-opacity="1" stroke-width="3.2"/>
<circle clip-path="url(#clip172)" cx="1326.76" cy="385.052" r="14.4" fill="#009af9" fill-rule="evenodd" fill-opacity="1" stroke="#000000" stroke-opacity="1" stroke-width="3.2"/>
<circle clip-path="url(#clip172)" cx="1349.19" cy="385.045" r="14.4" fill="#009af9" fill-rule="evenodd" fill-opacity="1" stroke="#000000" stroke-opacity="1" stroke-width="3.2"/>
<circle clip-path="url(#clip172)" cx="1371.63" cy="385.042" r="14.4" fill="#009af9" fill-rule="evenodd" fill-opacity="1" stroke="#000000" stroke-opacity="1" stroke-width="3.2"/>
<circle clip-path="url(#clip172)" cx="1394.06" cy="385.041" r="14.4" fill="#009af9" fill-rule="evenodd" fill-opacity="1" stroke="#000000" stroke-opacity="1" stroke-width="3.2"/>
<circle clip-path="url(#clip172)" cx="1416.5" cy="385.04" r="14.4" fill="#009af9" fill-rule="evenodd" fill-opacity="1" stroke="#000000" stroke-opacity="1" stroke-width="3.2"/>
<circle clip-path="url(#clip172)" cx="1438.94" cy="385.039" r="14.4" fill="#009af9" fill-rule="evenodd" fill-opacity="1" stroke="#000000" stroke-opacity="1" stroke-width="3.2"/>
<circle clip-path="url(#clip172)" cx="1461.37" cy="419.531" r="14.4" fill="#009af9" fill-rule="evenodd" fill-opacity="1" stroke="#000000" stroke-opacity="1" stroke-width="3.2"/>
<circle clip-path="url(#clip172)" cx="1483.81" cy="467.194" r="14.4" fill="#009af9" fill-rule="evenodd" fill-opacity="1" stroke="#000000" stroke-opacity="1" stroke-width="3.2"/>
<circle clip-path="url(#clip172)" cx="1506.24" cy="405.278" r="14.4" fill="#009af9" fill-rule="evenodd" fill-opacity="1" stroke="#000000" stroke-opacity="1" stroke-width="3.2"/>
<circle clip-path="url(#clip172)" cx="1528.68" cy="421.028" r="14.4" fill="#009af9" fill-rule="evenodd" fill-opacity="1" stroke="#000000" stroke-opacity="1" stroke-width="3.2"/>
<circle clip-path="url(#clip172)" cx="1551.12" cy="474.523" r="14.4" fill="#009af9" fill-rule="evenodd" fill-opacity="1" stroke="#000000" stroke-opacity="1" stroke-width="3.2"/>
<circle clip-path="url(#clip172)" cx="1573.55" cy="428.16" r="14.4" fill="#009af9" fill-rule="evenodd" fill-opacity="1" stroke="#000000" stroke-opacity="1" stroke-width="3.2"/>
<circle clip-path="url(#clip172)" cx="1595.99" cy="428.16" r="14.4" fill="#009af9" fill-rule="evenodd" fill-opacity="1" stroke="#000000" stroke-opacity="1" stroke-width="3.2"/>
<circle clip-path="url(#clip172)" cx="1618.42" cy="474.751" r="14.4" fill="#009af9" fill-rule="evenodd" fill-opacity="1" stroke="#000000" stroke-opacity="1" stroke-width="3.2"/>
<circle clip-path="url(#clip172)" cx="1640.86" cy="475.869" r="14.4" fill="#009af9" fill-rule="evenodd" fill-opacity="1" stroke="#000000" stroke-opacity="1" stroke-width="3.2"/>
<circle clip-path="url(#clip172)" cx="1663.3" cy="476.193" r="14.4" fill="#009af9" fill-rule="evenodd" fill-opacity="1" stroke="#000000" stroke-opacity="1" stroke-width="3.2"/>
<circle clip-path="url(#clip172)" cx="1685.73" cy="476.445" r="14.4" fill="#009af9" fill-rule="evenodd" fill-opacity="1" stroke="#000000" stroke-opacity="1" stroke-width="3.2"/>
<circle clip-path="url(#clip172)" cx="1708.17" cy="477.765" r="14.4" fill="#009af9" fill-rule="evenodd" fill-opacity="1" stroke="#000000" stroke-opacity="1" stroke-width="3.2"/>
<circle clip-path="url(#clip172)" cx="1730.6" cy="478.161" r="14.4" fill="#009af9" fill-rule="evenodd" fill-opacity="1" stroke="#000000" stroke-opacity="1" stroke-width="3.2"/>
<circle clip-path="url(#clip172)" cx="1753.04" cy="478.355" r="14.4" fill="#009af9" fill-rule="evenodd" fill-opacity="1" stroke="#000000" stroke-opacity="1" stroke-width="3.2"/>
<circle clip-path="url(#clip172)" cx="1775.48" cy="476.976" r="14.4" fill="#009af9" fill-rule="evenodd" fill-opacity="1" stroke="#000000" stroke-opacity="1" stroke-width="3.2"/>
<circle clip-path="url(#clip172)" cx="1797.91" cy="477.645" r="14.4" fill="#009af9" fill-rule="evenodd" fill-opacity="1" stroke="#000000" stroke-opacity="1" stroke-width="3.2"/>
<circle clip-path="url(#clip172)" cx="1820.35" cy="477.419" r="14.4" fill="#009af9" fill-rule="evenodd" fill-opacity="1" stroke="#000000" stroke-opacity="1" stroke-width="3.2"/>
<circle clip-path="url(#clip172)" cx="1842.78" cy="479.264" r="14.4" fill="#009af9" fill-rule="evenodd" fill-opacity="1" stroke="#000000" stroke-opacity="1" stroke-width="3.2"/>
<circle clip-path="url(#clip172)" cx="1865.22" cy="479.209" r="14.4" fill="#009af9" fill-rule="evenodd" fill-opacity="1" stroke="#000000" stroke-opacity="1" stroke-width="3.2"/>
<circle clip-path="url(#clip172)" cx="1887.66" cy="479.379" r="14.4" fill="#009af9" fill-rule="evenodd" fill-opacity="1" stroke="#000000" stroke-opacity="1" stroke-width="3.2"/>
<circle clip-path="url(#clip172)" cx="1910.09" cy="482.996" r="14.4" fill="#009af9" fill-rule="evenodd" fill-opacity="1" stroke="#000000" stroke-opacity="1" stroke-width="3.2"/>
<circle clip-path="url(#clip172)" cx="1932.53" cy="484.79" r="14.4" fill="#009af9" fill-rule="evenodd" fill-opacity="1" stroke="#000000" stroke-opacity="1" stroke-width="3.2"/>
<circle clip-path="url(#clip172)" cx="1954.96" cy="481.927" r="14.4" fill="#009af9" fill-rule="evenodd" fill-opacity="1" stroke="#000000" stroke-opacity="1" stroke-width="3.2"/>
<circle clip-path="url(#clip172)" cx="1977.4" cy="486.317" r="14.4" fill="#009af9" fill-rule="evenodd" fill-opacity="1" stroke="#000000" stroke-opacity="1" stroke-width="3.2"/>
<circle clip-path="url(#clip172)" cx="1999.84" cy="482.547" r="14.4" fill="#009af9" fill-rule="evenodd" fill-opacity="1" stroke="#000000" stroke-opacity="1" stroke-width="3.2"/>
<circle clip-path="url(#clip172)" cx="2022.27" cy="486.21" r="14.4" fill="#009af9" fill-rule="evenodd" fill-opacity="1" stroke="#000000" stroke-opacity="1" stroke-width="3.2"/>
<circle clip-path="url(#clip172)" cx="2044.71" cy="483.713" r="14.4" fill="#009af9" fill-rule="evenodd" fill-opacity="1" stroke="#000000" stroke-opacity="1" stroke-width="3.2"/>
<circle clip-path="url(#clip172)" cx="2067.14" cy="486.983" r="14.4" fill="#009af9" fill-rule="evenodd" fill-opacity="1" stroke="#000000" stroke-opacity="1" stroke-width="3.2"/>
<circle clip-path="url(#clip172)" cx="2089.58" cy="484.558" r="14.4" fill="#009af9" fill-rule="evenodd" fill-opacity="1" stroke="#000000" stroke-opacity="1" stroke-width="3.2"/>
<circle clip-path="url(#clip172)" cx="2112.02" cy="489.112" r="14.4" fill="#009af9" fill-rule="evenodd" fill-opacity="1" stroke="#000000" stroke-opacity="1" stroke-width="3.2"/>
<circle clip-path="url(#clip172)" cx="2134.45" cy="488.004" r="14.4" fill="#009af9" fill-rule="evenodd" fill-opacity="1" stroke="#000000" stroke-opacity="1" stroke-width="3.2"/>
<circle clip-path="url(#clip172)" cx="2156.89" cy="496.131" r="14.4" fill="#009af9" fill-rule="evenodd" fill-opacity="1" stroke="#000000" stroke-opacity="1" stroke-width="3.2"/>
<circle clip-path="url(#clip172)" cx="2179.33" cy="501.612" r="14.4" fill="#009af9" fill-rule="evenodd" fill-opacity="1" stroke="#000000" stroke-opacity="1" stroke-width="3.2"/>
<circle clip-path="url(#clip172)" cx="2201.76" cy="527.979" r="14.4" fill="#009af9" fill-rule="evenodd" fill-opacity="1" stroke="#000000" stroke-opacity="1" stroke-width="3.2"/>
<circle clip-path="url(#clip172)" cx="2224.2" cy="598.368" r="14.4" fill="#009af9" fill-rule="evenodd" fill-opacity="1" stroke="#000000" stroke-opacity="1" stroke-width="3.2"/>
<circle clip-path="url(#clip172)" cx="2246.63" cy="699.488" r="14.4" fill="#009af9" fill-rule="evenodd" fill-opacity="1" stroke="#000000" stroke-opacity="1" stroke-width="3.2"/>
<circle clip-path="url(#clip172)" cx="2269.07" cy="958.998" r="14.4" fill="#009af9" fill-rule="evenodd" fill-opacity="1" stroke="#000000" stroke-opacity="1" stroke-width="3.2"/>
<circle clip-path="url(#clip172)" cx="2291.51" cy="1445.72" r="14.4" fill="#009af9" fill-rule="evenodd" fill-opacity="1" stroke="#000000" stroke-opacity="1" stroke-width="3.2"/>
<path clip-path="url(#clip170)" d="
M1987.72 198.898 L2280.62 198.898 L2280.62 95.2176 L1987.72 95.2176  Z
  " fill="#ffffff" fill-rule="evenodd" fill-opacity="1"/>
<polyline clip-path="url(#clip170)" style="stroke:#000000; stroke-linecap:butt; stroke-linejoin:round; stroke-width:4; stroke-opacity:1; fill:none" points="
  1987.72,198.898 2280.62,198.898 2280.62,95.2176 1987.72,95.2176 1987.72,198.898 
  "/>
<polyline clip-path="url(#clip170)" style="stroke:#009af9; stroke-linecap:butt; stroke-linejoin:round; stroke-width:4; stroke-opacity:1; fill:none" points="
  2011.77,147.058 2156.05,147.058 
  "/>
<circle clip-path="url(#clip170)" cx="2083.91" cy="147.058" r="23.04" fill="#009af9" fill-rule="evenodd" fill-opacity="1" stroke="#000000" stroke-opacity="1" stroke-width="5.12"/>
<path clip-path="url(#clip170)" d="M2193.94 166.745 Q2192.13 171.375 2190.42 172.787 Q2188.7 174.199 2185.83 174.199 L2182.43 174.199 L2182.43 170.634 L2184.93 170.634 Q2186.69 170.634 2187.66 169.8 Q2188.63 168.967 2189.82 165.865 L2190.58 163.921 L2180.09 138.412 L2184.61 138.412 L2192.71 158.689 L2200.81 138.412 L2205.32 138.412 L2193.94 166.745 Z" fill="#000000" fill-rule="evenodd" fill-opacity="1" /><path clip-path="url(#clip170)" d="M2212.62 160.402 L2220.26 160.402 L2220.26 134.037 L2211.95 135.703 L2211.95 131.444 L2220.21 129.778 L2224.88 129.778 L2224.88 160.402 L2232.52 160.402 L2232.52 164.338 L2212.62 164.338 L2212.62 160.402 Z" fill="#000000" fill-rule="evenodd" fill-opacity="1" /></svg>
