<?xml version="1.0" encoding="utf-8"?>
<svg xmlns="http://www.w3.org/2000/svg" xmlns:xlink="http://www.w3.org/1999/xlink" width="600" height="400" viewBox="0 0 2400 1600">
<defs>
  <clipPath id="clip260">
    <rect x="0" y="0" width="2400" height="1600"/>
  </clipPath>
</defs>
<path clip-path="url(#clip260)" d="
M0 1600 L2400 1600 L2400 0 L0 0  Z
  " fill="#ffffff" fill-rule="evenodd" fill-opacity="1"/>
<defs>
  <clipPath id="clip261">
    <rect x="480" y="0" width="1681" height="1600"/>
  </clipPath>
</defs>
<path clip-path="url(#clip260)" d="
M398.265 1486.45 L2352.76 1486.45 L2352.76 47.2441 L398.265 47.2441  Z
  " fill="#ffffff" fill-rule="evenodd" fill-opacity="1"/>
<defs>
  <clipPath id="clip262">
    <rect x="398" y="47" width="1955" height="1440"/>
  </clipPath>
</defs>
<polyline clip-path="url(#clip262)" style="stroke:#000000; stroke-linecap:butt; stroke-linejoin:round; stroke-width:2; stroke-opacity:0.1; fill:none" points="
  451.735,1486.45 451.735,47.2441 
  "/>
<polyline clip-path="url(#clip262)" style="stroke:#000000; stroke-linecap:butt; stroke-linejoin:round; stroke-width:2; stroke-opacity:0.1; fill:none" points="
  820.876,1486.45 820.876,47.2441 
  "/>
<polyline clip-path="url(#clip262)" style="stroke:#000000; stroke-linecap:butt; stroke-linejoin:round; stroke-width:2; stroke-opacity:0.1; fill:none" points="
  1190.02,1486.45 1190.02,47.2441 
  "/>
<polyline clip-path="url(#clip262)" style="stroke:#000000; stroke-linecap:butt; stroke-linejoin:round; stroke-width:2; stroke-opacity:0.1; fill:none" points="
  1559.16,1486.45 1559.16,47.2441 
  "/>
<polyline clip-path="url(#clip262)" style="stroke:#000000; stroke-linecap:butt; stroke-linejoin:round; stroke-width:2; stroke-opacity:0.1; fill:none" points="
  1928.3,1486.45 1928.3,47.2441 
  "/>
<polyline clip-path="url(#clip262)" style="stroke:#000000; stroke-linecap:butt; stroke-linejoin:round; stroke-width:2; stroke-opacity:0.1; fill:none" points="
  2297.44,1486.45 2297.44,47.2441 
  "/>
<polyline clip-path="url(#clip260)" style="stroke:#000000; stroke-linecap:butt; stroke-linejoin:round; stroke-width:4; stroke-opacity:1; fill:none" points="
  398.265,1486.45 2352.76,1486.45 
  "/>
<polyline clip-path="url(#clip260)" style="stroke:#000000; stroke-linecap:butt; stroke-linejoin:round; stroke-width:4; stroke-opacity:1; fill:none" points="
  451.735,1486.45 451.735,1467.55 
  "/>
<polyline clip-path="url(#clip260)" style="stroke:#000000; stroke-linecap:butt; stroke-linejoin:round; stroke-width:4; stroke-opacity:1; fill:none" points="
  820.876,1486.45 820.876,1467.55 
  "/>
<polyline clip-path="url(#clip260)" style="stroke:#000000; stroke-linecap:butt; stroke-linejoin:round; stroke-width:4; stroke-opacity:1; fill:none" points="
  1190.02,1486.45 1190.02,1467.55 
  "/>
<polyline clip-path="url(#clip260)" style="stroke:#000000; stroke-linecap:butt; stroke-linejoin:round; stroke-width:4; stroke-opacity:1; fill:none" points="
  1559.16,1486.45 1559.16,1467.55 
  "/>
<polyline clip-path="url(#clip260)" style="stroke:#000000; stroke-linecap:butt; stroke-linejoin:round; stroke-width:4; stroke-opacity:1; fill:none" points="
  1928.3,1486.45 1928.3,1467.55 
  "/>
<polyline clip-path="url(#clip260)" style="stroke:#000000; stroke-linecap:butt; stroke-linejoin:round; stroke-width:4; stroke-opacity:1; fill:none" points="
  2297.44,1486.45 2297.44,1467.55 
  "/>
<path clip-path="url(#clip260)" d="M451.735 1517.37 Q448.124 1517.37 446.295 1520.93 Q444.49 1524.47 444.49 1531.6 Q444.49 1538.71 446.295 1542.27 Q448.124 1545.82 451.735 1545.82 Q455.369 1545.82 457.175 1542.27 Q459.004 1538.71 459.004 1531.6 Q459.004 1524.47 457.175 1520.93 Q455.369 1517.37 451.735 1517.37 M451.735 1513.66 Q457.545 1513.66 460.601 1518.27 Q463.68 1522.85 463.68 1531.6 Q463.68 1540.33 460.601 1544.94 Q457.545 1549.52 451.735 1549.52 Q445.925 1549.52 442.846 1544.94 Q439.791 1540.33 439.791 1531.6 Q439.791 1522.85 442.846 1518.27 Q445.925 1513.66 451.735 1513.66 Z" fill="#000000" fill-rule="evenodd" fill-opacity="1" /><path clip-path="url(#clip260)" d="M795.564 1544.91 L803.203 1544.91 L803.203 1518.55 L794.892 1520.21 L794.892 1515.95 L803.156 1514.29 L807.832 1514.29 L807.832 1544.91 L815.471 1544.91 L815.471 1548.85 L795.564 1548.85 L795.564 1544.91 Z" fill="#000000" fill-rule="evenodd" fill-opacity="1" /><path clip-path="url(#clip260)" d="M834.915 1517.37 Q831.304 1517.37 829.476 1520.93 Q827.67 1524.47 827.67 1531.6 Q827.67 1538.71 829.476 1542.27 Q831.304 1545.82 834.915 1545.82 Q838.55 1545.82 840.355 1542.27 Q842.184 1538.71 842.184 1531.6 Q842.184 1524.47 840.355 1520.93 Q838.55 1517.37 834.915 1517.37 M834.915 1513.66 Q840.726 1513.66 843.781 1518.27 Q846.86 1522.85 846.86 1531.6 Q846.86 1540.33 843.781 1544.94 Q840.726 1549.52 834.915 1549.52 Q829.105 1549.52 826.027 1544.94 Q822.971 1540.33 822.971 1531.6 Q822.971 1522.85 826.027 1518.27 Q829.105 1513.66 834.915 1513.66 Z" fill="#000000" fill-rule="evenodd" fill-opacity="1" /><path clip-path="url(#clip260)" d="M1168.79 1544.91 L1185.11 1544.91 L1185.11 1548.85 L1163.17 1548.85 L1163.17 1544.91 Q1165.83 1542.16 1170.41 1537.53 Q1175.02 1532.88 1176.2 1531.53 Q1178.44 1529.01 1179.32 1527.27 Q1180.23 1525.51 1180.23 1523.82 Q1180.23 1521.07 1178.28 1519.33 Q1176.36 1517.6 1173.26 1517.6 Q1171.06 1517.6 1168.61 1518.36 Q1166.17 1519.13 1163.4 1520.68 L1163.4 1515.95 Q1166.22 1514.82 1168.67 1514.24 Q1171.13 1513.66 1173.17 1513.66 Q1178.54 1513.66 1181.73 1516.35 Q1184.92 1519.03 1184.92 1523.52 Q1184.92 1525.65 1184.11 1527.57 Q1183.33 1529.47 1181.22 1532.07 Q1180.64 1532.74 1177.54 1535.95 Q1174.44 1539.15 1168.79 1544.91 Z" fill="#000000" fill-rule="evenodd" fill-opacity="1" /><path clip-path="url(#clip260)" d="M1204.92 1517.37 Q1201.31 1517.37 1199.48 1520.93 Q1197.68 1524.47 1197.68 1531.6 Q1197.68 1538.71 1199.48 1542.27 Q1201.31 1545.82 1204.92 1545.82 Q1208.56 1545.82 1210.36 1542.27 Q1212.19 1538.71 1212.19 1531.6 Q1212.19 1524.47 1210.36 1520.93 Q1208.56 1517.37 1204.92 1517.37 M1204.92 1513.66 Q1210.73 1513.66 1213.79 1518.27 Q1216.87 1522.85 1216.87 1531.6 Q1216.87 1540.33 1213.79 1544.94 Q1210.73 1549.52 1204.92 1549.52 Q1199.11 1549.52 1196.04 1544.94 Q1192.98 1540.33 1192.98 1531.6 Q1192.98 1522.85 1196.04 1518.27 Q1199.11 1513.66 1204.92 1513.66 Z" fill="#000000" fill-rule="evenodd" fill-opacity="1" /><path clip-path="url(#clip260)" d="M1548 1530.21 Q1551.36 1530.93 1553.23 1533.2 Q1555.13 1535.47 1555.13 1538.8 Q1555.13 1543.92 1551.61 1546.72 Q1548.09 1549.52 1541.61 1549.52 Q1539.44 1549.52 1537.12 1549.08 Q1534.83 1548.66 1532.38 1547.81 L1532.38 1543.29 Q1534.32 1544.43 1536.64 1545.01 Q1538.95 1545.58 1541.47 1545.58 Q1545.87 1545.58 1548.16 1543.85 Q1550.48 1542.11 1550.48 1538.8 Q1550.48 1535.75 1548.32 1534.03 Q1546.2 1532.3 1542.38 1532.3 L1538.35 1532.3 L1538.35 1528.45 L1542.56 1528.45 Q1546.01 1528.45 1547.84 1527.09 Q1549.67 1525.7 1549.67 1523.11 Q1549.67 1520.45 1547.77 1519.03 Q1545.89 1517.6 1542.38 1517.6 Q1540.45 1517.6 1538.26 1518.01 Q1536.06 1518.43 1533.42 1519.31 L1533.42 1515.14 Q1536.08 1514.4 1538.39 1514.03 Q1540.73 1513.66 1542.79 1513.66 Q1548.12 1513.66 1551.22 1516.09 Q1554.32 1518.5 1554.32 1522.62 Q1554.32 1525.49 1552.68 1527.48 Q1551.03 1529.45 1548 1530.21 Z" fill="#000000" fill-rule="evenodd" fill-opacity="1" /><path clip-path="url(#clip260)" d="M1574 1517.37 Q1570.38 1517.37 1568.56 1520.93 Q1566.75 1524.47 1566.75 1531.6 Q1566.75 1538.71 1568.56 1542.27 Q1570.38 1545.82 1574 1545.82 Q1577.63 1545.82 1579.44 1542.27 Q1581.26 1538.71 1581.26 1531.6 Q1581.26 1524.47 1579.44 1520.93 Q1577.63 1517.37 1574 1517.37 M1574 1513.66 Q1579.81 1513.66 1582.86 1518.27 Q1585.94 1522.85 1585.94 1531.6 Q1585.94 1540.33 1582.86 1544.94 Q1579.81 1549.52 1574 1549.52 Q1568.19 1549.52 1565.11 1544.94 Q1562.05 1540.33 1562.05 1531.6 Q1562.05 1522.85 1565.11 1518.27 Q1568.19 1513.66 1574 1513.66 Z" fill="#000000" fill-rule="evenodd" fill-opacity="1" /><path clip-path="url(#clip260)" d="M1916.47 1518.36 L1904.66 1536.81 L1916.47 1536.81 L1916.47 1518.36 M1915.24 1514.29 L1921.12 1514.29 L1921.12 1536.81 L1926.05 1536.81 L1926.05 1540.7 L1921.12 1540.7 L1921.12 1548.85 L1916.47 1548.85 L1916.47 1540.7 L1900.87 1540.7 L1900.87 1536.19 L1915.24 1514.29 Z" fill="#000000" fill-rule="evenodd" fill-opacity="1" /><path clip-path="url(#clip260)" d="M1943.79 1517.37 Q1940.17 1517.37 1938.35 1520.93 Q1936.54 1524.47 1936.54 1531.6 Q1936.54 1538.71 1938.35 1542.27 Q1940.17 1545.82 1943.79 1545.82 Q1947.42 1545.82 1949.22 1542.27 Q1951.05 1538.71 1951.05 1531.6 Q1951.05 1524.47 1949.22 1520.93 Q1947.42 1517.37 1943.79 1517.37 M1943.79 1513.66 Q1949.6 1513.66 1952.65 1518.27 Q1955.73 1522.85 1955.73 1531.6 Q1955.73 1540.33 1952.65 1544.94 Q1949.6 1549.52 1943.79 1549.52 Q1937.98 1549.52 1934.9 1544.94 Q1931.84 1540.33 1931.84 1531.6 Q1931.84 1522.85 1934.9 1518.27 Q1937.98 1513.66 1943.79 1513.66 Z" fill="#000000" fill-rule="evenodd" fill-opacity="1" /><path clip-path="url(#clip260)" d="M2272.14 1514.29 L2290.5 1514.29 L2290.5 1518.22 L2276.42 1518.22 L2276.42 1526.7 Q2277.44 1526.35 2278.46 1526.19 Q2279.48 1526 2280.5 1526 Q2286.28 1526 2289.66 1529.17 Q2293.04 1532.34 2293.04 1537.76 Q2293.04 1543.34 2289.57 1546.44 Q2286.1 1549.52 2279.78 1549.52 Q2277.6 1549.52 2275.33 1549.15 Q2273.09 1548.78 2270.68 1548.04 L2270.68 1543.34 Q2272.76 1544.47 2274.99 1545.03 Q2277.21 1545.58 2279.69 1545.58 Q2283.69 1545.58 2286.03 1543.48 Q2288.37 1541.37 2288.37 1537.76 Q2288.37 1534.15 2286.03 1532.04 Q2283.69 1529.94 2279.69 1529.94 Q2277.81 1529.94 2275.94 1530.35 Q2274.08 1530.77 2272.14 1531.65 L2272.14 1514.29 Z" fill="#000000" fill-rule="evenodd" fill-opacity="1" /><path clip-path="url(#clip260)" d="M2312.25 1517.37 Q2308.64 1517.37 2306.82 1520.93 Q2305.01 1524.47 2305.01 1531.6 Q2305.01 1538.71 2306.82 1542.27 Q2308.64 1545.82 2312.25 1545.82 Q2315.89 1545.82 2317.69 1542.27 Q2319.52 1538.71 2319.52 1531.6 Q2319.52 1524.47 2317.69 1520.93 Q2315.89 1517.37 2312.25 1517.37 M2312.25 1513.66 Q2318.07 1513.66 2321.12 1518.27 Q2324.2 1522.85 2324.2 1531.6 Q2324.2 1540.33 2321.12 1544.94 Q2318.07 1549.52 2312.25 1549.52 Q2306.44 1549.52 2303.37 1544.94 Q2300.31 1540.33 2300.31 1531.6 Q2300.31 1522.85 2303.37 1518.27 Q2306.44 1513.66 2312.25 1513.66 Z" fill="#000000" fill-rule="evenodd" fill-opacity="1" /><polyline clip-path="url(#clip262)" style="stroke:#000000; stroke-linecap:butt; stroke-linejoin:round; stroke-width:2; stroke-opacity:0.1; fill:none" points="
  398.265,1302.26 2352.76,1302.26 
  "/>
<polyline clip-path="url(#clip262)" style="stroke:#000000; stroke-linecap:butt; stroke-linejoin:round; stroke-width:2; stroke-opacity:0.1; fill:none" points="
  398.265,1062.81 2352.76,1062.81 
  "/>
<polyline clip-path="url(#clip262)" style="stroke:#000000; stroke-linecap:butt; stroke-linejoin:round; stroke-width:2; stroke-opacity:0.1; fill:none" points="
  398.265,823.355 2352.76,823.355 
  "/>
<polyline clip-path="url(#clip262)" style="stroke:#000000; stroke-linecap:butt; stroke-linejoin:round; stroke-width:2; stroke-opacity:0.1; fill:none" points="
  398.265,583.9 2352.76,583.9 
  "/>
<polyline clip-path="url(#clip262)" style="stroke:#000000; stroke-linecap:butt; stroke-linejoin:round; stroke-width:2; stroke-opacity:0.1; fill:none" points="
  398.265,344.445 2352.76,344.445 
  "/>
<polyline clip-path="url(#clip262)" style="stroke:#000000; stroke-linecap:butt; stroke-linejoin:round; stroke-width:2; stroke-opacity:0.1; fill:none" points="
  398.265,104.991 2352.76,104.991 
  "/>
<polyline clip-path="url(#clip260)" style="stroke:#000000; stroke-linecap:butt; stroke-linejoin:round; stroke-width:4; stroke-opacity:1; fill:none" points="
  398.265,1486.45 398.265,47.2441 
  "/>
<polyline clip-path="url(#clip260)" style="stroke:#000000; stroke-linecap:butt; stroke-linejoin:round; stroke-width:4; stroke-opacity:1; fill:none" points="
  398.265,1302.26 417.163,1302.26 
  "/>
<polyline clip-path="url(#clip260)" style="stroke:#000000; stroke-linecap:butt; stroke-linejoin:round; stroke-width:4; stroke-opacity:1; fill:none" points="
  398.265,1062.81 417.163,1062.81 
  "/>
<polyline clip-path="url(#clip260)" style="stroke:#000000; stroke-linecap:butt; stroke-linejoin:round; stroke-width:4; stroke-opacity:1; fill:none" points="
  398.265,823.355 417.163,823.355 
  "/>
<polyline clip-path="url(#clip260)" style="stroke:#000000; stroke-linecap:butt; stroke-linejoin:round; stroke-width:4; stroke-opacity:1; fill:none" points="
  398.265,583.9 417.163,583.9 
  "/>
<polyline clip-path="url(#clip260)" style="stroke:#000000; stroke-linecap:butt; stroke-linejoin:round; stroke-width:4; stroke-opacity:1; fill:none" points="
  398.265,344.445 417.163,344.445 
  "/>
<polyline clip-path="url(#clip260)" style="stroke:#000000; stroke-linecap:butt; stroke-linejoin:round; stroke-width:4; stroke-opacity:1; fill:none" points="
  398.265,104.991 417.163,104.991 
  "/>
<path clip-path="url(#clip260)" d="M51.7632 1309.16 L81.439 1309.16 L81.439 1313.1 L51.7632 1313.1 L51.7632 1309.16 Z" fill="#000000" fill-rule="evenodd" fill-opacity="1" /><path clip-path="url(#clip260)" d="M95.5593 1322.06 L111.879 1322.06 L111.879 1325.99 L89.9343 1325.99 L89.9343 1322.06 Q92.5964 1319.3 97.1797 1314.67 Q101.786 1310.02 102.967 1308.68 Q105.212 1306.15 106.092 1304.42 Q106.994 1302.66 106.994 1300.97 Q106.994 1298.21 105.05 1296.48 Q103.129 1294.74 100.027 1294.74 Q97.8278 1294.74 95.3741 1295.51 Q92.9436 1296.27 90.1658 1297.82 L90.1658 1293.1 Q92.9899 1291.96 95.4436 1291.39 Q97.8973 1290.81 99.9343 1290.81 Q105.305 1290.81 108.499 1293.49 Q111.693 1296.18 111.693 1300.67 Q111.693 1302.8 110.883 1304.72 Q110.096 1306.62 107.99 1309.21 Q107.411 1309.88 104.309 1313.1 Q101.207 1316.29 95.5593 1322.06 Z" fill="#000000" fill-rule="evenodd" fill-opacity="1" /><path clip-path="url(#clip260)" d="M121.693 1320.11 L126.578 1320.11 L126.578 1325.99 L121.693 1325.99 L121.693 1320.11 Z" fill="#000000" fill-rule="evenodd" fill-opacity="1" /><path clip-path="url(#clip260)" d="M136.809 1291.43 L155.165 1291.43 L155.165 1295.37 L141.091 1295.37 L141.091 1303.84 Q142.11 1303.49 143.128 1303.33 Q144.147 1303.14 145.166 1303.14 Q150.953 1303.14 154.332 1306.32 Q157.712 1309.49 157.712 1314.9 Q157.712 1320.48 154.24 1323.58 Q150.767 1326.66 144.448 1326.66 Q142.272 1326.66 140.004 1326.29 Q137.758 1325.92 135.351 1325.18 L135.351 1320.48 Q137.434 1321.62 139.656 1322.17 Q141.879 1322.73 144.355 1322.73 Q148.36 1322.73 150.698 1320.62 Q153.036 1318.51 153.036 1314.9 Q153.036 1311.29 150.698 1309.19 Q148.36 1307.08 144.355 1307.08 Q142.48 1307.08 140.605 1307.5 Q138.754 1307.91 136.809 1308.79 L136.809 1291.43 Z" fill="#000000" fill-rule="evenodd" fill-opacity="1" /><path clip-path="url(#clip260)" d="M176.925 1294.51 Q173.314 1294.51 171.485 1298.08 Q169.679 1301.62 169.679 1308.75 Q169.679 1315.85 171.485 1319.42 Q173.314 1322.96 176.925 1322.96 Q180.559 1322.96 182.364 1319.42 Q184.193 1315.85 184.193 1308.75 Q184.193 1301.62 182.364 1298.08 Q180.559 1294.51 176.925 1294.51 M176.925 1290.81 Q182.735 1290.81 185.79 1295.41 Q188.869 1300 188.869 1308.75 Q188.869 1317.47 185.79 1322.08 Q182.735 1326.66 176.925 1326.66 Q171.114 1326.66 168.036 1322.08 Q164.98 1317.47 164.98 1308.75 Q164.98 1300 168.036 1295.41 Q171.114 1290.81 176.925 1290.81 Z" fill="#000000" fill-rule="evenodd" fill-opacity="1" /><path clip-path="url(#clip260)" d="M225.258 1300.53 L214.679 1311.15 L225.258 1321.73 L222.503 1324.53 L211.878 1313.91 L201.253 1324.53 L198.522 1321.73 L209.077 1311.15 L198.522 1300.53 L201.253 1297.73 L211.878 1308.35 L222.503 1297.73 L225.258 1300.53 Z" fill="#000000" fill-rule="evenodd" fill-opacity="1" /><path clip-path="url(#clip260)" d="M237.619 1322.06 L245.258 1322.06 L245.258 1295.69 L236.947 1297.36 L236.947 1293.1 L245.211 1291.43 L249.887 1291.43 L249.887 1322.06 L257.526 1322.06 L257.526 1325.99 L237.619 1325.99 L237.619 1322.06 Z" fill="#000000" fill-rule="evenodd" fill-opacity="1" /><path clip-path="url(#clip260)" d="M276.97 1294.51 Q273.359 1294.51 271.531 1298.08 Q269.725 1301.62 269.725 1308.75 Q269.725 1315.85 271.531 1319.42 Q273.359 1322.96 276.97 1322.96 Q280.605 1322.96 282.41 1319.42 Q284.239 1315.85 284.239 1308.75 Q284.239 1301.62 282.41 1298.08 Q280.605 1294.51 276.97 1294.51 M276.97 1290.81 Q282.781 1290.81 285.836 1295.41 Q288.915 1300 288.915 1308.75 Q288.915 1317.47 285.836 1322.08 Q282.781 1326.66 276.97 1326.66 Q271.16 1326.66 268.082 1322.08 Q265.026 1317.47 265.026 1308.75 Q265.026 1300 268.082 1295.41 Q271.16 1290.81 276.97 1290.81 Z" fill="#000000" fill-rule="evenodd" fill-opacity="1" /><path clip-path="url(#clip260)" d="M288.915 1284.91 L313.026 1284.91 L313.026 1288.11 L288.915 1288.11 L288.915 1284.91 Z" fill="#000000" fill-rule="evenodd" fill-opacity="1" /><path clip-path="url(#clip260)" d="M321.885 1295.38 L328.091 1295.38 L328.091 1273.96 L321.339 1275.32 L321.339 1271.86 L328.054 1270.5 L331.853 1270.5 L331.853 1295.38 L338.059 1295.38 L338.059 1298.58 L321.885 1298.58 L321.885 1295.38 Z" fill="#000000" fill-rule="evenodd" fill-opacity="1" /><path clip-path="url(#clip260)" d="M349.006 1295.38 L362.265 1295.38 L362.265 1298.58 L344.435 1298.58 L344.435 1295.38 Q346.598 1293.15 350.322 1289.38 Q354.065 1285.6 355.024 1284.51 Q356.848 1282.46 357.563 1281.05 Q358.297 1279.62 358.297 1278.25 Q358.297 1276.01 356.717 1274.6 Q355.156 1273.19 352.635 1273.19 Q350.849 1273.19 348.855 1273.81 Q346.88 1274.43 344.623 1275.69 L344.623 1271.86 Q346.918 1270.93 348.912 1270.46 Q350.905 1269.99 352.56 1269.99 Q356.924 1269.99 359.519 1272.18 Q362.115 1274.36 362.115 1278.01 Q362.115 1279.74 361.456 1281.3 Q360.817 1282.84 359.105 1284.95 Q358.635 1285.49 356.115 1288.11 Q353.595 1290.7 349.006 1295.38 Z" fill="#000000" fill-rule="evenodd" fill-opacity="1" /><path clip-path="url(#clip260)" d="M51.7632 1069.71 L81.439 1069.71 L81.439 1073.64 L51.7632 1073.64 L51.7632 1069.71 Z" fill="#000000" fill-rule="evenodd" fill-opacity="1" /><path clip-path="url(#clip260)" d="M95.5593 1082.6 L111.879 1082.6 L111.879 1086.54 L89.9343 1086.54 L89.9343 1082.6 Q92.5964 1079.85 97.1797 1075.22 Q101.786 1070.56 102.967 1069.22 Q105.212 1066.7 106.092 1064.96 Q106.994 1063.2 106.994 1061.51 Q106.994 1058.76 105.05 1057.02 Q103.129 1055.29 100.027 1055.29 Q97.8278 1055.29 95.3741 1056.05 Q92.9436 1056.81 90.1658 1058.37 L90.1658 1053.64 Q92.9899 1052.51 95.4436 1051.93 Q97.8973 1051.35 99.9343 1051.35 Q105.305 1051.35 108.499 1054.04 Q111.693 1056.72 111.693 1061.21 Q111.693 1063.34 110.883 1065.26 Q110.096 1067.16 107.99 1069.75 Q107.411 1070.43 104.309 1073.64 Q101.207 1076.84 95.5593 1082.6 Z" fill="#000000" fill-rule="evenodd" fill-opacity="1" /><path clip-path="url(#clip260)" d="M121.693 1080.66 L126.578 1080.66 L126.578 1086.54 L121.693 1086.54 L121.693 1080.66 Z" fill="#000000" fill-rule="evenodd" fill-opacity="1" /><path clip-path="url(#clip260)" d="M146.763 1055.06 Q143.152 1055.06 141.323 1058.62 Q139.517 1062.16 139.517 1069.29 Q139.517 1076.4 141.323 1079.96 Q143.152 1083.5 146.763 1083.5 Q150.397 1083.5 152.203 1079.96 Q154.031 1076.4 154.031 1069.29 Q154.031 1062.16 152.203 1058.62 Q150.397 1055.06 146.763 1055.06 M146.763 1051.35 Q152.573 1051.35 155.628 1055.96 Q158.707 1060.54 158.707 1069.29 Q158.707 1078.02 155.628 1082.62 Q152.573 1087.21 146.763 1087.21 Q140.953 1087.21 137.874 1082.62 Q134.818 1078.02 134.818 1069.29 Q134.818 1060.54 137.874 1055.96 Q140.953 1051.35 146.763 1051.35 Z" fill="#000000" fill-rule="evenodd" fill-opacity="1" /><path clip-path="url(#clip260)" d="M176.925 1055.06 Q173.314 1055.06 171.485 1058.62 Q169.679 1062.16 169.679 1069.29 Q169.679 1076.4 171.485 1079.96 Q173.314 1083.5 176.925 1083.5 Q180.559 1083.5 182.364 1079.96 Q184.193 1076.4 184.193 1069.29 Q184.193 1062.16 182.364 1058.62 Q180.559 1055.06 176.925 1055.06 M176.925 1051.35 Q182.735 1051.35 185.79 1055.96 Q188.869 1060.54 188.869 1069.29 Q188.869 1078.02 185.79 1082.62 Q182.735 1087.21 176.925 1087.21 Q171.114 1087.21 168.036 1082.62 Q164.98 1078.02 164.98 1069.29 Q164.98 1060.54 168.036 1055.96 Q171.114 1051.35 176.925 1051.35 Z" fill="#000000" fill-rule="evenodd" fill-opacity="1" /><path clip-path="url(#clip260)" d="M225.258 1061.07 L214.679 1071.7 L225.258 1082.28 L222.503 1085.08 L211.878 1074.45 L201.253 1085.08 L198.522 1082.28 L209.077 1071.7 L198.522 1061.07 L201.253 1058.27 L211.878 1068.9 L222.503 1058.27 L225.258 1061.07 Z" fill="#000000" fill-rule="evenodd" fill-opacity="1" /><path clip-path="url(#clip260)" d="M237.619 1082.6 L245.258 1082.6 L245.258 1056.24 L236.947 1057.9 L236.947 1053.64 L245.211 1051.98 L249.887 1051.98 L249.887 1082.6 L257.526 1082.6 L257.526 1086.54 L237.619 1086.54 L237.619 1082.6 Z" fill="#000000" fill-rule="evenodd" fill-opacity="1" /><path clip-path="url(#clip260)" d="M276.97 1055.06 Q273.359 1055.06 271.531 1058.62 Q269.725 1062.16 269.725 1069.29 Q269.725 1076.4 271.531 1079.96 Q273.359 1083.5 276.97 1083.5 Q280.605 1083.5 282.41 1079.96 Q284.239 1076.4 284.239 1069.29 Q284.239 1062.16 282.41 1058.62 Q280.605 1055.06 276.97 1055.06 M276.97 1051.35 Q282.781 1051.35 285.836 1055.96 Q288.915 1060.54 288.915 1069.29 Q288.915 1078.02 285.836 1082.62 Q282.781 1087.21 276.97 1087.21 Q271.16 1087.21 268.082 1082.62 Q265.026 1078.02 265.026 1069.29 Q265.026 1060.54 268.082 1055.96 Q271.16 1051.35 276.97 1051.35 Z" fill="#000000" fill-rule="evenodd" fill-opacity="1" /><path clip-path="url(#clip260)" d="M288.915 1045.45 L313.026 1045.45 L313.026 1048.65 L288.915 1048.65 L288.915 1045.45 Z" fill="#000000" fill-rule="evenodd" fill-opacity="1" /><path clip-path="url(#clip260)" d="M321.885 1055.93 L328.091 1055.93 L328.091 1034.51 L321.339 1035.86 L321.339 1032.4 L328.054 1031.05 L331.853 1031.05 L331.853 1055.93 L338.059 1055.93 L338.059 1059.13 L321.885 1059.13 L321.885 1055.93 Z" fill="#000000" fill-rule="evenodd" fill-opacity="1" /><path clip-path="url(#clip260)" d="M349.006 1055.93 L362.265 1055.93 L362.265 1059.13 L344.435 1059.13 L344.435 1055.93 Q346.598 1053.69 350.322 1049.93 Q354.065 1046.15 355.024 1045.06 Q356.848 1043.01 357.563 1041.6 Q358.297 1040.17 358.297 1038.8 Q358.297 1036.56 356.717 1035.15 Q355.156 1033.74 352.635 1033.74 Q350.849 1033.74 348.855 1034.36 Q346.88 1034.98 344.623 1036.24 L344.623 1032.4 Q346.918 1031.48 348.912 1031.01 Q350.905 1030.54 352.56 1030.54 Q356.924 1030.54 359.519 1032.72 Q362.115 1034.9 362.115 1038.55 Q362.115 1040.28 361.456 1041.84 Q360.817 1043.38 359.105 1045.49 Q358.635 1046.04 356.115 1048.65 Q353.595 1051.25 349.006 1055.93 Z" fill="#000000" fill-rule="evenodd" fill-opacity="1" /><path clip-path="url(#clip260)" d="M51.7632 830.254 L81.439 830.254 L81.439 834.189 L51.7632 834.189 L51.7632 830.254 Z" fill="#000000" fill-rule="evenodd" fill-opacity="1" /><path clip-path="url(#clip260)" d="M92.3417 843.147 L99.9806 843.147 L99.9806 816.781 L91.6704 818.448 L91.6704 814.189 L99.9343 812.522 L104.61 812.522 L104.61 843.147 L112.249 843.147 L112.249 847.082 L92.3417 847.082 L92.3417 843.147 Z" fill="#000000" fill-rule="evenodd" fill-opacity="1" /><path clip-path="url(#clip260)" d="M121.693 841.203 L126.578 841.203 L126.578 847.082 L121.693 847.082 L121.693 841.203 Z" fill="#000000" fill-rule="evenodd" fill-opacity="1" /><path clip-path="url(#clip260)" d="M136.809 812.522 L155.165 812.522 L155.165 816.457 L141.091 816.457 L141.091 824.93 Q142.11 824.582 143.128 824.42 Q144.147 824.235 145.166 824.235 Q150.953 824.235 154.332 827.406 Q157.712 830.578 157.712 835.994 Q157.712 841.573 154.24 844.675 Q150.767 847.753 144.448 847.753 Q142.272 847.753 140.004 847.383 Q137.758 847.013 135.351 846.272 L135.351 841.573 Q137.434 842.707 139.656 843.263 Q141.879 843.818 144.355 843.818 Q148.36 843.818 150.698 841.712 Q153.036 839.605 153.036 835.994 Q153.036 832.383 150.698 830.277 Q148.36 828.17 144.355 828.17 Q142.48 828.17 140.605 828.587 Q138.754 829.004 136.809 829.883 L136.809 812.522 Z" fill="#000000" fill-rule="evenodd" fill-opacity="1" /><path clip-path="url(#clip260)" d="M176.925 815.601 Q173.314 815.601 171.485 819.166 Q169.679 822.707 169.679 829.837 Q169.679 836.943 171.485 840.508 Q173.314 844.05 176.925 844.05 Q180.559 844.05 182.364 840.508 Q184.193 836.943 184.193 829.837 Q184.193 822.707 182.364 819.166 Q180.559 815.601 176.925 815.601 M176.925 811.897 Q182.735 811.897 185.79 816.504 Q188.869 821.087 188.869 829.837 Q188.869 838.564 185.79 843.17 Q182.735 847.753 176.925 847.753 Q171.114 847.753 168.036 843.17 Q164.98 838.564 164.98 829.837 Q164.98 821.087 168.036 816.504 Q171.114 811.897 176.925 811.897 Z" fill="#000000" fill-rule="evenodd" fill-opacity="1" /><path clip-path="url(#clip260)" d="M225.258 821.619 L214.679 832.244 L225.258 842.823 L222.503 845.624 L211.878 834.999 L201.253 845.624 L198.522 842.823 L209.077 832.244 L198.522 821.619 L201.253 818.818 L211.878 829.443 L222.503 818.818 L225.258 821.619 Z" fill="#000000" fill-rule="evenodd" fill-opacity="1" /><path clip-path="url(#clip260)" d="M237.619 843.147 L245.258 843.147 L245.258 816.781 L236.947 818.448 L236.947 814.189 L245.211 812.522 L249.887 812.522 L249.887 843.147 L257.526 843.147 L257.526 847.082 L237.619 847.082 L237.619 843.147 Z" fill="#000000" fill-rule="evenodd" fill-opacity="1" /><path clip-path="url(#clip260)" d="M276.97 815.601 Q273.359 815.601 271.531 819.166 Q269.725 822.707 269.725 829.837 Q269.725 836.943 271.531 840.508 Q273.359 844.05 276.97 844.05 Q280.605 844.05 282.41 840.508 Q284.239 836.943 284.239 829.837 Q284.239 822.707 282.41 819.166 Q280.605 815.601 276.97 815.601 M276.97 811.897 Q282.781 811.897 285.836 816.504 Q288.915 821.087 288.915 829.837 Q288.915 838.564 285.836 843.17 Q282.781 847.753 276.97 847.753 Q271.16 847.753 268.082 843.17 Q265.026 838.564 265.026 829.837 Q265.026 821.087 268.082 816.504 Q271.16 811.897 276.97 811.897 Z" fill="#000000" fill-rule="evenodd" fill-opacity="1" /><path clip-path="url(#clip260)" d="M288.915 805.999 L313.026 805.999 L313.026 809.196 L288.915 809.196 L288.915 805.999 Z" fill="#000000" fill-rule="evenodd" fill-opacity="1" /><path clip-path="url(#clip260)" d="M321.885 816.474 L328.091 816.474 L328.091 795.052 L321.339 796.407 L321.339 792.946 L328.054 791.592 L331.853 791.592 L331.853 816.474 L338.059 816.474 L338.059 819.672 L321.885 819.672 L321.885 816.474 Z" fill="#000000" fill-rule="evenodd" fill-opacity="1" /><path clip-path="url(#clip260)" d="M349.006 816.474 L362.265 816.474 L362.265 819.672 L344.435 819.672 L344.435 816.474 Q346.598 814.236 350.322 810.475 Q354.065 806.694 355.024 805.604 Q356.848 803.554 357.563 802.143 Q358.297 800.714 358.297 799.341 Q358.297 797.102 356.717 795.692 Q355.156 794.281 352.635 794.281 Q350.849 794.281 348.855 794.902 Q346.88 795.523 344.623 796.783 L344.623 792.946 Q346.918 792.024 348.912 791.554 Q350.905 791.084 352.56 791.084 Q356.924 791.084 359.519 793.266 Q362.115 795.447 362.115 799.096 Q362.115 800.826 361.456 802.387 Q360.817 803.93 359.105 806.036 Q358.635 806.582 356.115 809.196 Q353.595 811.791 349.006 816.474 Z" fill="#000000" fill-rule="evenodd" fill-opacity="1" /><path clip-path="url(#clip260)" d="M51.7632 590.799 L81.439 590.799 L81.439 594.734 L51.7632 594.734 L51.7632 590.799 Z" fill="#000000" fill-rule="evenodd" fill-opacity="1" /><path clip-path="url(#clip260)" d="M92.3417 603.692 L99.9806 603.692 L99.9806 577.327 L91.6704 578.993 L91.6704 574.734 L99.9343 573.068 L104.61 573.068 L104.61 603.692 L112.249 603.692 L112.249 607.628 L92.3417 607.628 L92.3417 603.692 Z" fill="#000000" fill-rule="evenodd" fill-opacity="1" /><path clip-path="url(#clip260)" d="M121.693 601.748 L126.578 601.748 L126.578 607.628 L121.693 607.628 L121.693 601.748 Z" fill="#000000" fill-rule="evenodd" fill-opacity="1" /><path clip-path="url(#clip260)" d="M146.763 576.146 Q143.152 576.146 141.323 579.711 Q139.517 583.253 139.517 590.382 Q139.517 597.489 141.323 601.053 Q143.152 604.595 146.763 604.595 Q150.397 604.595 152.203 601.053 Q154.031 597.489 154.031 590.382 Q154.031 583.253 152.203 579.711 Q150.397 576.146 146.763 576.146 M146.763 572.443 Q152.573 572.443 155.628 577.049 Q158.707 581.632 158.707 590.382 Q158.707 599.109 155.628 603.716 Q152.573 608.299 146.763 608.299 Q140.953 608.299 137.874 603.716 Q134.818 599.109 134.818 590.382 Q134.818 581.632 137.874 577.049 Q140.953 572.443 146.763 572.443 Z" fill="#000000" fill-rule="evenodd" fill-opacity="1" /><path clip-path="url(#clip260)" d="M176.925 576.146 Q173.314 576.146 171.485 579.711 Q169.679 583.253 169.679 590.382 Q169.679 597.489 171.485 601.053 Q173.314 604.595 176.925 604.595 Q180.559 604.595 182.364 601.053 Q184.193 597.489 184.193 590.382 Q184.193 583.253 182.364 579.711 Q180.559 576.146 176.925 576.146 M176.925 572.443 Q182.735 572.443 185.79 577.049 Q188.869 581.632 188.869 590.382 Q188.869 599.109 185.79 603.716 Q182.735 608.299 176.925 608.299 Q171.114 608.299 168.036 603.716 Q164.98 599.109 164.98 590.382 Q164.98 581.632 168.036 577.049 Q171.114 572.443 176.925 572.443 Z" fill="#000000" fill-rule="evenodd" fill-opacity="1" /><path clip-path="url(#clip260)" d="M225.258 582.165 L214.679 592.79 L225.258 603.368 L222.503 606.169 L211.878 595.544 L201.253 606.169 L198.522 603.368 L209.077 592.79 L198.522 582.165 L201.253 579.364 L211.878 589.989 L222.503 579.364 L225.258 582.165 Z" fill="#000000" fill-rule="evenodd" fill-opacity="1" /><path clip-path="url(#clip260)" d="M237.619 603.692 L245.258 603.692 L245.258 577.327 L236.947 578.993 L236.947 574.734 L245.211 573.068 L249.887 573.068 L249.887 603.692 L257.526 603.692 L257.526 607.628 L237.619 607.628 L237.619 603.692 Z" fill="#000000" fill-rule="evenodd" fill-opacity="1" /><path clip-path="url(#clip260)" d="M276.97 576.146 Q273.359 576.146 271.531 579.711 Q269.725 583.253 269.725 590.382 Q269.725 597.489 271.531 601.053 Q273.359 604.595 276.97 604.595 Q280.605 604.595 282.41 601.053 Q284.239 597.489 284.239 590.382 Q284.239 583.253 282.41 579.711 Q280.605 576.146 276.97 576.146 M276.97 572.443 Q282.781 572.443 285.836 577.049 Q288.915 581.632 288.915 590.382 Q288.915 599.109 285.836 603.716 Q282.781 608.299 276.97 608.299 Q271.16 608.299 268.082 603.716 Q265.026 599.109 265.026 590.382 Q265.026 581.632 268.082 577.049 Q271.16 572.443 276.97 572.443 Z" fill="#000000" fill-rule="evenodd" fill-opacity="1" /><path clip-path="url(#clip260)" d="M288.915 566.544 L313.026 566.544 L313.026 569.741 L288.915 569.741 L288.915 566.544 Z" fill="#000000" fill-rule="evenodd" fill-opacity="1" /><path clip-path="url(#clip260)" d="M321.885 577.02 L328.091 577.02 L328.091 555.598 L321.339 556.952 L321.339 553.491 L328.054 552.137 L331.853 552.137 L331.853 577.02 L338.059 577.02 L338.059 580.217 L321.885 580.217 L321.885 577.02 Z" fill="#000000" fill-rule="evenodd" fill-opacity="1" /><path clip-path="url(#clip260)" d="M349.006 577.02 L362.265 577.02 L362.265 580.217 L344.435 580.217 L344.435 577.02 Q346.598 574.782 350.322 571.02 Q354.065 567.24 355.024 566.149 Q356.848 564.099 357.563 562.688 Q358.297 561.259 358.297 559.886 Q358.297 557.648 356.717 556.237 Q355.156 554.827 352.635 554.827 Q350.849 554.827 348.855 555.447 Q346.88 556.068 344.623 557.328 L344.623 553.491 Q346.918 552.57 348.912 552.1 Q350.905 551.629 352.56 551.629 Q356.924 551.629 359.519 553.811 Q362.115 555.993 362.115 559.641 Q362.115 561.372 361.456 562.933 Q360.817 564.475 359.105 566.581 Q358.635 567.127 356.115 569.741 Q353.595 572.337 349.006 577.02 Z" fill="#000000" fill-rule="evenodd" fill-opacity="1" /><path clip-path="url(#clip260)" d="M50.9921 351.344 L80.6679 351.344 L80.6679 355.279 L50.9921 355.279 L50.9921 351.344 Z" fill="#000000" fill-rule="evenodd" fill-opacity="1" /><path clip-path="url(#clip260)" d="M90.8067 333.613 L109.163 333.613 L109.163 337.548 L95.0891 337.548 L95.0891 346.02 Q96.1076 345.673 97.1261 345.511 Q98.1447 345.326 99.1632 345.326 Q104.95 345.326 108.33 348.497 Q111.709 351.668 111.709 357.085 Q111.709 362.664 108.237 365.765 Q104.765 368.844 98.4456 368.844 Q96.2697 368.844 94.0012 368.474 Q91.7558 368.103 89.3484 367.363 L89.3484 362.664 Q91.4317 363.798 93.6539 364.353 Q95.8761 364.909 98.353 364.909 Q102.358 364.909 104.696 362.802 Q107.033 360.696 107.033 357.085 Q107.033 353.474 104.696 351.367 Q102.358 349.261 98.353 349.261 Q96.478 349.261 94.603 349.678 Q92.7512 350.094 90.8067 350.974 L90.8067 333.613 Z" fill="#000000" fill-rule="evenodd" fill-opacity="1" /><path clip-path="url(#clip260)" d="M120.922 362.293 L125.807 362.293 L125.807 368.173 L120.922 368.173 L120.922 362.293 Z" fill="#000000" fill-rule="evenodd" fill-opacity="1" /><path clip-path="url(#clip260)" d="M145.992 336.692 Q142.381 336.692 140.552 340.256 Q138.746 343.798 138.746 350.928 Q138.746 358.034 140.552 361.599 Q142.381 365.14 145.992 365.14 Q149.626 365.14 151.431 361.599 Q153.26 358.034 153.26 350.928 Q153.26 343.798 151.431 340.256 Q149.626 336.692 145.992 336.692 M145.992 332.988 Q151.802 332.988 154.857 337.594 Q157.936 342.178 157.936 350.928 Q157.936 359.654 154.857 364.261 Q151.802 368.844 145.992 368.844 Q140.181 368.844 137.103 364.261 Q134.047 359.654 134.047 350.928 Q134.047 342.178 137.103 337.594 Q140.181 332.988 145.992 332.988 Z" fill="#000000" fill-rule="evenodd" fill-opacity="1" /><path clip-path="url(#clip260)" d="M176.153 336.692 Q172.542 336.692 170.714 340.256 Q168.908 343.798 168.908 350.928 Q168.908 358.034 170.714 361.599 Q172.542 365.14 176.153 365.14 Q179.788 365.14 181.593 361.599 Q183.422 358.034 183.422 350.928 Q183.422 343.798 181.593 340.256 Q179.788 336.692 176.153 336.692 M176.153 332.988 Q181.964 332.988 185.019 337.594 Q188.098 342.178 188.098 350.928 Q188.098 359.654 185.019 364.261 Q181.964 368.844 176.153 368.844 Q170.343 368.844 167.265 364.261 Q164.209 359.654 164.209 350.928 Q164.209 342.178 167.265 337.594 Q170.343 332.988 176.153 332.988 Z" fill="#000000" fill-rule="evenodd" fill-opacity="1" /><path clip-path="url(#clip260)" d="M224.487 342.71 L213.908 353.335 L224.487 363.914 L221.732 366.715 L211.107 356.09 L200.482 366.715 L197.751 363.914 L208.306 353.335 L197.751 342.71 L200.482 339.909 L211.107 350.534 L221.732 339.909 L224.487 342.71 Z" fill="#000000" fill-rule="evenodd" fill-opacity="1" /><path clip-path="url(#clip260)" d="M236.848 364.238 L244.486 364.238 L244.486 337.872 L236.176 339.539 L236.176 335.279 L244.44 333.613 L249.116 333.613 L249.116 364.238 L256.755 364.238 L256.755 368.173 L236.848 368.173 L236.848 364.238 Z" fill="#000000" fill-rule="evenodd" fill-opacity="1" /><path clip-path="url(#clip260)" d="M276.199 336.692 Q272.588 336.692 270.759 340.256 Q268.954 343.798 268.954 350.928 Q268.954 358.034 270.759 361.599 Q272.588 365.14 276.199 365.14 Q279.833 365.14 281.639 361.599 Q283.468 358.034 283.468 350.928 Q283.468 343.798 281.639 340.256 Q279.833 336.692 276.199 336.692 M276.199 332.988 Q282.009 332.988 285.065 337.594 Q288.144 342.178 288.144 350.928 Q288.144 359.654 285.065 364.261 Q282.009 368.844 276.199 368.844 Q270.389 368.844 267.31 364.261 Q264.255 359.654 264.255 350.928 Q264.255 342.178 267.31 337.594 Q270.389 332.988 276.199 332.988 Z" fill="#000000" fill-rule="evenodd" fill-opacity="1" /><path clip-path="url(#clip260)" d="M288.144 327.089 L312.255 327.089 L312.255 330.287 L288.144 330.287 L288.144 327.089 Z" fill="#000000" fill-rule="evenodd" fill-opacity="1" /><path clip-path="url(#clip260)" d="M321.114 337.565 L327.32 337.565 L327.32 316.143 L320.568 317.497 L320.568 314.037 L327.283 312.682 L331.082 312.682 L331.082 337.565 L337.288 337.565 L337.288 340.762 L321.114 340.762 L321.114 337.565 Z" fill="#000000" fill-rule="evenodd" fill-opacity="1" /><path clip-path="url(#clip260)" d="M356.472 325.622 Q359.199 326.205 360.723 328.048 Q362.265 329.892 362.265 332.6 Q362.265 336.756 359.406 339.032 Q356.547 341.308 351.281 341.308 Q349.513 341.308 347.633 340.951 Q345.771 340.612 343.777 339.916 L343.777 336.249 Q345.357 337.17 347.238 337.64 Q349.118 338.111 351.168 338.111 Q354.742 338.111 356.604 336.7 Q358.485 335.289 358.485 332.6 Q358.485 330.117 356.736 328.725 Q355.005 327.315 351.902 327.315 L348.629 327.315 L348.629 324.193 L352.052 324.193 Q354.855 324.193 356.341 323.083 Q357.826 321.955 357.826 319.848 Q357.826 317.685 356.284 316.538 Q354.761 315.372 351.902 315.372 Q350.341 315.372 348.554 315.71 Q346.767 316.049 344.623 316.764 L344.623 313.378 Q346.786 312.776 348.667 312.476 Q350.567 312.175 352.241 312.175 Q356.566 312.175 359.087 314.149 Q361.607 316.105 361.607 319.453 Q361.607 321.785 360.271 323.403 Q358.936 325.002 356.472 325.622 Z" fill="#000000" fill-rule="evenodd" fill-opacity="1" /><path clip-path="url(#clip260)" d="M350.321 90.7892 Q346.71 90.7892 344.881 94.354 Q343.075 97.8957 343.075 105.025 Q343.075 112.132 344.881 115.697 Q346.71 119.238 350.321 119.238 Q353.955 119.238 355.76 115.697 Q357.589 112.132 357.589 105.025 Q357.589 97.8957 355.76 94.354 Q353.955 90.7892 350.321 90.7892 M350.321 87.0856 Q356.131 87.0856 359.186 91.692 Q362.265 96.2753 362.265 105.025 Q362.265 113.752 359.186 118.359 Q356.131 122.942 350.321 122.942 Q344.511 122.942 341.432 118.359 Q338.376 113.752 338.376 105.025 Q338.376 96.2753 341.432 91.692 Q344.511 87.0856 350.321 87.0856 Z" fill="#000000" fill-rule="evenodd" fill-opacity="1" /><polyline clip-path="url(#clip262)" style="stroke:#009af9; stroke-linecap:butt; stroke-linejoin:round; stroke-width:12; stroke-opacity:1; fill:none" points="
  453.581,108.393 455.427,98.1848 457.272,108.393 459.118,98.1848 460.964,111.796 462.809,101.588 464.655,104.991 466.501,108.393 468.346,108.393 470.192,108.393 
  472.038,111.796 473.884,98.1848 475.729,104.991 477.575,101.588 479.421,101.588 481.266,104.991 483.112,104.991 484.958,104.991 486.804,108.393 488.649,108.393 
  490.495,104.991 492.341,104.991 494.186,104.991 496.032,104.991 497.878,104.991 499.723,115.199 501.569,104.991 503.415,104.991 505.261,104.991 507.106,104.991 
  508.952,108.393 510.798,101.588 512.643,111.796 514.489,104.991 516.335,104.991 518.181,104.991 520.026,104.991 521.872,108.393 523.718,108.393 525.563,101.588 
  527.409,108.393 529.255,104.991 531.1,108.393 532.946,111.796 534.792,111.796 536.638,111.796 538.483,108.393 540.329,108.393 542.175,111.796 544.02,111.796 
  545.866,101.588 547.712,108.393 549.557,111.796 551.403,115.199 553.249,104.991 555.095,111.796 556.94,111.796 558.786,111.796 560.632,104.991 562.477,111.796 
  564.323,115.199 566.169,108.393 568.015,115.199 569.86,115.199 571.706,111.796 573.552,101.588 575.397,111.796 577.243,104.991 579.089,108.393 580.934,111.796 
  582.78,111.796 584.626,108.393 586.472,101.588 588.317,111.796 590.163,108.393 592.009,118.602 593.854,104.991 595.7,111.796 597.546,108.393 599.392,108.393 
  601.237,115.199 603.083,108.393 604.929,104.991 606.774,108.393 608.62,111.796 610.466,111.796 612.311,104.991 614.157,104.991 616.003,104.991 617.849,108.393 
  619.694,101.588 621.54,104.991 623.386,104.991 625.231,111.796 627.077,111.796 628.923,104.991 630.769,108.393 632.614,108.393 634.46,104.991 636.306,101.588 
  638.151,104.991 639.997,98.1848 641.843,101.588 643.688,101.588 645.534,104.991 647.38,98.1848 649.226,104.991 651.071,98.1848 652.917,94.782 654.763,101.588 
  656.608,98.1848 658.454,101.588 660.3,91.3791 662.145,94.782 663.991,98.1848 665.837,98.1848 667.683,87.9763 669.528,98.1848 671.374,98.1848 673.22,94.782 
  675.065,87.9763 676.911,94.782 678.757,94.782 680.603,104.991 682.448,94.782 684.294,98.1848 686.14,101.588 687.985,98.1848 689.831,98.1848 691.677,94.782 
  693.522,94.782 695.368,94.782 697.214,91.3791 699.06,101.588 700.905,98.1848 702.751,104.991 704.597,98.1848 706.442,101.588 708.288,98.1848 710.134,101.588 
  711.98,98.1848 713.825,98.1848 715.671,98.1848 717.517,98.1848 719.362,104.991 721.208,104.991 723.054,101.588 724.899,101.588 726.745,104.991 728.591,104.991 
  730.437,111.796 732.282,101.588 734.128,104.991 735.974,101.588 737.819,108.393 739.665,104.991 741.511,108.393 743.357,104.991 745.202,104.991 747.048,101.588 
  748.894,98.1848 750.739,111.796 752.585,104.991 754.431,111.796 756.276,104.991 758.122,104.991 759.968,111.796 761.814,108.393 763.659,104.991 765.505,104.991 
  767.351,101.588 769.196,108.393 771.042,111.796 772.888,108.393 774.734,111.796 776.579,108.393 778.425,111.796 780.271,115.199 782.116,111.796 783.962,111.796 
  785.808,108.393 787.653,111.796 789.499,115.199 791.345,115.199 793.191,108.393 795.036,115.199 796.882,122.005 798.728,122.005 800.573,122.005 802.419,111.796 
  804.265,118.602 806.11,128.811 807.956,118.602 809.802,118.602 811.648,125.408 813.493,118.602 815.339,125.408 817.185,122.005 819.03,125.408 820.876,128.811 
  822.722,115.199 824.568,125.408 826.413,125.408 828.259,132.213 830.105,125.408 831.95,132.213 833.796,132.213 835.642,132.213 837.487,135.616 839.333,128.811 
  841.179,128.811 843.025,128.811 844.87,128.811 846.716,128.811 848.562,132.213 850.407,135.616 852.253,139.019 854.099,139.019 855.945,135.616 857.79,142.422 
  859.636,135.616 861.482,142.422 863.327,142.422 865.173,142.422 867.019,145.825 868.864,142.422 870.71,145.825 872.556,145.825 874.402,152.631 876.247,149.228 
  878.093,149.228 879.939,149.228 881.784,149.228 883.63,142.422 885.476,145.825 887.322,149.228 889.167,156.033 891.013,149.228 892.859,139.019 894.704,152.631 
  896.55,156.033 898.396,152.631 900.241,145.825 902.087,152.631 903.933,149.228 905.779,156.033 907.624,156.033 909.47,145.825 911.316,152.631 913.161,149.228 
  915.007,145.825 916.853,149.228 918.698,149.228 920.544,145.825 922.39,149.228 924.236,149.228 926.081,152.631 927.927,149.228 929.773,145.825 931.618,152.631 
  933.464,159.436 935.31,149.228 937.156,156.033 939.001,162.839 940.847,156.033 942.693,152.631 944.538,149.228 946.384,156.033 948.23,156.033 950.075,156.033 
  951.921,159.436 953.767,152.631 955.613,156.033 957.458,152.631 959.304,156.033 961.15,159.436 962.995,152.631 964.841,156.033 966.687,159.436 968.533,152.631 
  970.378,156.033 972.224,152.631 974.07,159.436 975.915,156.033 977.761,156.033 979.607,156.033 981.452,156.033 983.298,159.436 985.144,159.436 986.99,166.242 
  988.835,159.436 990.681,159.436 992.527,156.033 994.372,162.839 996.218,162.839 998.064,156.033 999.91,156.033 1001.76,166.242 1003.6,162.839 1005.45,162.839 
  1007.29,156.033 1009.14,159.436 1010.98,162.839 1012.83,156.033 1014.68,162.839 1016.52,166.242 1018.37,176.451 1020.21,169.645 1022.06,166.242 1023.9,162.839 
  1025.75,169.645 1027.6,162.839 1029.44,166.242 1031.29,162.839 1033.13,166.242 1034.98,173.048 1036.82,169.645 1038.67,173.048 1040.52,173.048 1042.36,173.048 
  1044.21,176.451 1046.05,173.048 1047.9,173.048 1049.74,173.048 1051.59,176.451 1053.43,176.451 1055.28,179.853 1057.13,169.645 1058.97,186.659 1060.82,179.853 
  1062.66,183.256 1064.51,186.659 1066.35,176.451 1068.2,183.256 1070.05,176.451 1071.89,190.062 1073.74,186.659 1075.58,179.853 1077.43,190.062 1079.27,183.256 
  1081.12,186.659 1082.97,190.062 1084.81,190.062 1086.66,196.868 1088.5,193.465 1090.35,190.062 1092.19,193.465 1094.04,200.271 1095.89,193.465 1097.73,196.868 
  1099.58,193.465 1101.42,193.465 1103.27,196.868 1105.11,193.465 1106.96,200.271 1108.81,196.868 1110.65,207.076 1112.5,203.673 1114.34,203.673 1116.19,203.673 
  1118.03,203.673 1119.88,207.076 1121.73,207.076 1123.57,203.673 1125.42,210.479 1127.26,210.479 1129.11,207.076 1130.95,213.882 1132.8,210.479 1134.65,210.479 
  1136.49,217.285 1138.34,213.882 1140.18,213.882 1142.03,217.285 1143.87,220.688 1145.72,213.882 1147.57,220.688 1149.41,213.882 1151.26,220.688 1153.1,220.688 
  1154.95,220.688 1156.79,220.688 1158.64,224.091 1160.49,220.688 1162.33,230.896 1164.18,227.493 1166.02,227.493 1167.87,224.091 1169.71,230.896 1171.56,244.508 
  1173.41,234.299 1175.25,244.508 1177.1,237.702 1178.94,244.508 1180.79,251.313 1182.63,247.91 1184.48,244.508 1186.33,247.91 1188.17,251.313 1190.02,254.716 
  1191.86,258.119 1193.71,251.313 1195.55,251.313 1197.4,254.716 1199.25,258.119 1201.09,261.522 1202.94,261.522 1204.78,264.925 1206.63,268.328 1208.47,271.73 
  1210.32,271.73 1212.17,268.328 1214.01,281.939 1215.86,278.536 1217.7,271.73 1219.55,281.939 1221.39,275.133 1223.24,285.342 1225.09,281.939 1226.93,281.939 
  1228.78,292.148 1230.62,292.148 1232.47,295.55 1234.31,295.55 1236.16,298.953 1238.01,302.356 1239.85,315.968 1241.7,302.356 1243.54,305.759 1245.39,305.759 
  1247.23,309.162 1249.08,312.565 1250.93,315.968 1252.77,315.968 1254.62,319.37 1256.46,329.579 1258.31,326.176 1260.15,326.176 1262,332.982 1263.85,332.982 
  1265.69,336.385 1267.54,332.982 1269.38,336.385 1271.23,346.593 1273.07,346.593 1274.92,339.788 1276.77,346.593 1278.61,353.399 1280.46,353.399 1282.3,353.399 
  1284.15,360.205 1285.99,356.802 1287.84,363.608 1289.69,367.01 1291.53,370.413 1293.38,370.413 1295.22,384.025 1297.07,377.219 1298.91,380.622 1300.76,380.622 
  1302.61,380.622 1304.45,380.622 1306.3,384.025 1308.14,390.83 1309.99,397.636 1311.83,390.83 1313.68,401.039 1315.53,404.442 1317.37,397.636 1319.22,404.442 
  1321.06,404.442 1322.91,407.845 1324.75,404.442 1326.6,407.845 1328.45,407.845 1330.29,414.65 1332.14,418.053 1333.98,421.456 1335.83,418.053 1337.67,428.262 
  1339.52,424.859 1341.36,428.262 1343.21,421.456 1345.06,435.068 1346.9,428.262 1348.75,435.068 1350.59,431.665 1352.44,435.068 1354.28,435.068 1356.13,435.068 
  1357.98,441.873 1359.82,445.276 1361.67,452.082 1363.51,452.082 1365.36,458.888 1367.2,448.679 1369.05,458.888 1370.9,455.485 1372.74,458.888 1374.59,458.888 
  1376.43,465.693 1378.28,469.096 1380.12,469.096 1381.97,472.499 1383.82,469.096 1385.66,479.305 1387.51,482.708 1389.35,486.11 1391.2,482.708 1393.04,486.11 
  1394.89,489.513 1396.74,486.11 1398.58,492.916 1400.43,486.11 1402.27,499.722 1404.12,492.916 1405.96,492.916 1407.81,499.722 1409.66,499.722 1411.5,506.528 
  1413.35,509.93 1415.19,516.736 1417.04,509.93 1418.88,513.333 1420.73,513.333 1422.58,509.93 1424.42,516.736 1426.27,526.945 1428.11,523.542 1429.96,526.945 
  1431.8,530.348 1433.65,533.75 1435.5,530.348 1437.34,526.945 1439.19,533.75 1441.03,537.153 1442.88,543.959 1444.72,543.959 1446.57,547.362 1448.42,550.765 
  1450.26,550.765 1452.11,557.57 1453.95,564.376 1455.8,564.376 1457.64,557.57 1459.49,567.779 1461.34,564.376 1463.18,574.585 1465.03,571.182 1466.87,581.39 
  1468.72,577.987 1470.56,581.39 1472.41,598.405 1474.26,591.599 1476.1,588.196 1477.95,595.002 1479.79,595.002 1481.64,605.21 1483.48,591.599 1485.33,601.807 
  1487.18,605.21 1489.02,612.016 1490.87,612.016 1492.71,605.21 1494.56,618.822 1496.4,612.016 1498.25,622.225 1500.1,622.225 1501.94,625.627 1503.79,625.627 
  1505.63,629.03 1507.48,625.627 1509.32,629.03 1511.17,635.836 1513.02,639.239 1514.86,635.836 1516.71,639.239 1518.55,642.642 1520.4,646.045 1522.24,649.447 
  1524.09,646.045 1525.94,646.045 1527.78,656.253 1529.63,656.253 1531.47,659.656 1533.32,663.059 1535.16,673.267 1537.01,669.865 1538.86,666.462 1540.7,669.865 
  1542.55,673.267 1544.39,676.67 1546.24,686.879 1548.08,683.476 1549.93,690.282 1551.78,686.879 1553.62,690.282 1555.47,693.685 1557.31,690.282 1559.16,693.685 
  1561,700.49 1562.85,697.087 1564.7,707.296 1566.54,703.893 1568.39,703.893 1570.23,707.296 1572.08,714.102 1573.92,720.907 1575.77,717.505 1577.62,720.907 
  1579.46,720.907 1581.31,734.519 1583.15,734.519 1585,734.519 1586.84,734.519 1588.69,734.519 1590.54,734.519 1592.38,737.922 1594.23,744.727 1596.07,741.325 
  1597.92,751.533 1599.76,748.13 1601.61,751.533 1603.46,754.936 1605.3,761.742 1607.15,758.339 1608.99,768.547 1610.84,765.145 1612.68,771.95 1614.53,771.95 
  1616.37,768.547 1618.22,775.353 1620.07,775.353 1621.91,771.95 1623.76,782.159 1625.6,788.965 1627.45,788.965 1629.29,788.965 1631.14,795.77 1632.99,799.173 
  1634.83,792.367 1636.68,795.77 1638.52,799.173 1640.37,805.979 1642.21,805.979 1644.06,805.979 1645.91,816.187 1647.75,819.59 1649.6,819.59 1651.44,819.59 
  1653.29,822.993 1655.13,826.396 1656.98,833.202 1658.83,829.799 1660.67,833.202 1662.52,840.007 1664.36,829.799 1666.21,843.41 1668.05,843.41 1669.9,846.813 
  1671.75,850.216 1673.59,850.216 1675.44,853.619 1677.28,853.619 1679.13,850.216 1680.97,860.425 1682.82,860.425 1684.67,860.425 1686.51,863.827 1688.36,870.633 
  1690.2,877.439 1692.05,874.036 1693.89,870.633 1695.74,880.842 1697.59,874.036 1699.43,880.842 1701.28,887.647 1703.12,887.647 1704.97,891.05 1706.81,891.05 
  1708.66,891.05 1710.51,894.453 1712.35,894.453 1714.2,901.259 1716.04,908.064 1717.89,904.662 1719.73,908.064 1721.58,904.662 1723.43,901.259 1725.27,911.467 
  1727.12,918.273 1728.96,911.467 1730.81,921.676 1732.65,921.676 1734.5,921.676 1736.35,928.482 1738.19,921.676 1740.04,931.884 1741.88,935.287 1743.73,931.884 
  1745.57,938.69 1747.42,942.093 1749.27,938.69 1751.11,938.69 1752.96,948.899 1754.8,948.899 1756.65,952.302 1758.49,959.107 1760.34,959.107 1762.19,948.899 
  1764.03,959.107 1765.88,965.913 1767.72,965.913 1769.57,969.316 1771.41,965.913 1773.26,976.122 1775.11,979.524 1776.95,976.122 1778.8,979.524 1780.64,986.33 
  1782.49,989.733 1784.33,986.33 1786.18,993.136 1788.03,989.733 1789.87,996.539 1791.72,999.942 1793.56,993.136 1795.41,999.942 1797.25,999.942 1799.1,1006.75 
  1800.95,1013.55 1802.79,1010.15 1804.64,1016.96 1806.48,1016.96 1808.33,1023.76 1810.17,1016.96 1812.02,1020.36 1813.87,1023.76 1815.71,1027.16 1817.56,1030.57 
  1819.4,1027.16 1821.25,1030.57 1823.09,1037.37 1824.94,1030.57 1826.79,1044.18 1828.63,1040.78 1830.48,1047.58 1832.32,1047.58 1834.17,1054.39 1836.01,1054.39 
  1837.86,1054.39 1839.71,1047.58 1841.55,1057.79 1843.4,1064.6 1845.24,1064.6 1847.09,1057.79 1848.93,1064.6 1850.78,1068 1852.63,1068 1854.47,1074.8 
  1856.32,1074.8 1858.16,1081.61 1860.01,1074.8 1861.85,1085.01 1863.7,1095.22 1865.55,1081.61 1867.39,1085.01 1869.24,1095.22 1871.08,1088.42 1872.93,1091.82 
  1874.77,1091.82 1876.62,1102.03 1878.47,1098.62 1880.31,1102.03 1882.16,1102.03 1884,1105.43 1885.85,1108.83 1887.69,1112.24 1889.54,1115.64 1891.39,1112.24 
  1893.23,1122.44 1895.08,1122.44 1896.92,1119.04 1898.77,1129.25 1900.61,1129.25 1902.46,1125.85 1904.3,1136.06 1906.15,1129.25 1908,1132.65 1909.84,1142.86 
  1911.69,1139.46 1913.53,1142.86 1915.38,1142.86 1917.22,1146.26 1919.07,1153.07 1920.92,1149.67 1922.76,1153.07 1924.61,1153.07 1926.45,1153.07 1928.3,1159.88 
  1930.14,1153.07 1931.99,1159.88 1933.84,1153.07 1935.68,1163.28 1937.53,1173.49 1939.37,1173.49 1941.22,1166.68 1943.06,1173.49 1944.91,1180.29 1946.76,1180.29 
  1948.6,1180.29 1950.45,1183.7 1952.29,1183.7 1954.14,1187.1 1955.98,1193.9 1957.83,1197.31 1959.68,1197.31 1961.52,1197.31 1963.37,1200.71 1965.21,1193.9 
  1967.06,1200.71 1968.9,1210.92 1970.75,1210.92 1972.6,1214.32 1974.44,1217.72 1976.29,1210.92 1978.13,1221.13 1979.98,1224.53 1981.82,1221.13 1983.67,1221.13 
  1985.52,1227.93 1987.36,1231.34 1989.21,1231.34 1991.05,1231.34 1992.9,1234.74 1994.74,1238.14 1996.59,1244.95 1998.44,1244.95 2000.28,1244.95 2002.13,1248.35 
  2003.97,1251.75 2005.82,1258.56 2007.66,1261.96 2009.51,1258.56 2011.36,1258.56 2013.2,1258.56 2015.05,1261.96 2016.89,1265.36 2018.74,1268.77 2020.58,1265.36 
  2022.43,1272.17 2024.28,1278.98 2026.12,1272.17 2027.97,1275.57 2029.81,1275.57 2031.66,1275.57 2033.5,1282.38 2035.35,1289.18 2037.2,1289.18 2039.04,1292.59 
  2040.89,1295.99 2042.73,1289.18 2044.58,1292.59 2046.42,1295.99 2048.27,1295.99 2050.12,1299.39 2051.96,1299.39 2053.81,1295.99 2055.65,1306.2 2057.5,1306.2 
  2059.34,1306.2 2061.19,1306.2 2063.04,1306.2 2064.88,1313 2066.73,1319.81 2068.57,1319.81 2070.42,1313 2072.26,1319.81 2074.11,1319.81 2075.96,1326.62 
  2077.8,1326.62 2079.65,1323.21 2081.49,1330.02 2083.34,1319.81 2085.18,1326.62 2087.03,1326.62 2088.88,1326.62 2090.72,1326.62 2092.57,1336.82 2094.41,1333.42 
  2096.26,1330.02 2098.1,1336.82 2099.95,1333.42 2101.8,1333.42 2103.64,1343.63 2105.49,1343.63 2107.33,1347.03 2109.18,1340.23 2111.02,1347.03 2112.87,1347.03 
  2114.72,1347.03 2116.56,1350.44 2118.41,1343.63 2120.25,1353.84 2122.1,1347.03 2123.94,1353.84 2125.79,1350.44 2127.64,1353.84 2129.48,1364.05 2131.33,1360.64 
  2133.17,1360.64 2135.02,1360.64 2136.86,1360.64 2138.71,1357.24 2140.56,1364.05 2142.4,1360.64 2144.25,1364.05 2146.09,1367.45 2147.94,1364.05 2149.78,1367.45 
  2151.63,1364.05 2153.48,1360.64 2155.32,1357.24 2157.17,1367.45 2159.01,1367.45 2160.86,1364.05 2162.7,1374.26 2164.55,1367.45 2166.4,1377.66 2168.24,1370.85 
  2170.09,1374.26 2171.93,1374.26 2173.78,1374.26 2175.62,1381.06 2177.47,1370.85 2179.32,1377.66 2181.16,1381.06 2183.01,1381.06 2184.85,1374.26 2186.7,1384.46 
  2188.54,1387.87 2190.39,1377.66 2192.23,1377.66 2194.08,1384.46 2195.93,1387.87 2197.77,1381.06 2199.62,1391.27 2201.46,1384.46 2203.31,1387.87 2205.15,1394.67 
  2207,1387.87 2208.85,1394.67 2210.69,1387.87 2212.54,1401.48 2214.38,1387.87 2216.23,1391.27 2218.07,1398.08 2219.92,1401.48 2221.77,1394.67 2223.61,1394.67 
  2225.46,1401.48 2227.3,1394.67 2229.15,1404.88 2230.99,1408.28 2232.84,1408.28 2234.69,1408.28 2236.53,1411.69 2238.38,1398.08 2240.22,1408.28 2242.07,1415.09 
  2243.91,1411.69 2245.76,1415.09 2247.61,1411.69 2249.45,1415.09 2251.3,1418.49 2253.14,1418.49 2254.99,1421.9 2256.83,1421.9 2258.68,1418.49 2260.53,1425.3 
  2262.37,1421.9 2264.22,1428.7 2266.06,1432.1 2267.91,1425.3 2269.75,1428.7 2271.6,1435.51 2273.45,1435.51 2275.29,1438.91 2277.14,1438.91 2278.98,1428.7 
  2280.83,1432.1 2282.67,1438.91 2284.52,1435.51 2286.37,1432.1 2288.21,1432.1 2290.06,1442.31 2291.9,1442.31 2293.75,1445.72 2295.59,1442.31 2297.44,1442.31 
  
  "/>
<path clip-path="url(#clip260)" d="
M2018.01 198.898 L2287.61 198.898 L2287.61 95.2176 L2018.01 95.2176  Z
  " fill="#ffffff" fill-rule="evenodd" fill-opacity="1"/>
<polyline clip-path="url(#clip260)" style="stroke:#000000; stroke-linecap:butt; stroke-linejoin:round; stroke-width:4; stroke-opacity:1; fill:none" points="
  2018.01,198.898 2287.61,198.898 2287.61,95.2176 2018.01,95.2176 2018.01,198.898 
  "/>
<polyline clip-path="url(#clip260)" style="stroke:#009af9; stroke-linecap:butt; stroke-linejoin:round; stroke-width:4; stroke-opacity:1; fill:none" points="
  2039.73,147.058 2170.03,147.058 
  "/>
<path clip-path="url(#clip260)" d="M2205.59 166.745 Q2203.78 171.375 2202.07 172.787 Q2200.35 174.199 2197.48 174.199 L2194.08 174.199 L2194.08 170.634 L2196.58 170.634 Q2198.34 170.634 2199.31 169.8 Q2200.28 168.967 2201.46 165.865 L2202.23 163.921 L2191.74 138.412 L2196.26 138.412 L2204.36 158.689 L2212.46 138.412 L2216.97 138.412 L2205.59 166.745 Z" fill="#000000" fill-rule="evenodd" fill-opacity="1" /><path clip-path="url(#clip260)" d="M2224.27 160.402 L2231.9 160.402 L2231.9 134.037 L2223.59 135.703 L2223.59 131.444 L2231.86 129.778 L2236.53 129.778 L2236.53 160.402 L2244.17 160.402 L2244.17 164.338 L2224.27 164.338 L2224.27 160.402 Z" fill="#000000" fill-rule="evenodd" fill-opacity="1" /></svg>
