<?xml version="1.0" encoding="utf-8"?>
<svg xmlns="http://www.w3.org/2000/svg" xmlns:xlink="http://www.w3.org/1999/xlink" width="600" height="400" viewBox="0 0 2400 1600">
<defs>
  <clipPath id="clip810">
    <rect x="0" y="0" width="2400" height="1600"/>
  </clipPath>
</defs>
<path clip-path="url(#clip810)" d="
M0 1600 L2400 1600 L2400 0 L0 0  Z
  " fill="#ffffff" fill-rule="evenodd" fill-opacity="1"/>
<defs>
  <clipPath id="clip811">
    <rect x="480" y="0" width="1681" height="1600"/>
  </clipPath>
</defs>
<path clip-path="url(#clip810)" d="
M186.274 1486.45 L2352.76 1486.45 L2352.76 47.2441 L186.274 47.2441  Z
  " fill="#ffffff" fill-rule="evenodd" fill-opacity="1"/>
<defs>
  <clipPath id="clip812">
    <rect x="186" y="47" width="2167" height="1440"/>
  </clipPath>
</defs>
<polyline clip-path="url(#clip812)" style="stroke:#000000; stroke-linecap:butt; stroke-linejoin:round; stroke-width:2; stroke-opacity:0.1; fill:none" points="
  247.59,1486.45 247.59,47.2441 
  "/>
<polyline clip-path="url(#clip812)" style="stroke:#000000; stroke-linecap:butt; stroke-linejoin:round; stroke-width:2; stroke-opacity:0.1; fill:none" points="
  768.98,1486.45 768.98,47.2441 
  "/>
<polyline clip-path="url(#clip812)" style="stroke:#000000; stroke-linecap:butt; stroke-linejoin:round; stroke-width:2; stroke-opacity:0.1; fill:none" points="
  1290.37,1486.45 1290.37,47.2441 
  "/>
<polyline clip-path="url(#clip812)" style="stroke:#000000; stroke-linecap:butt; stroke-linejoin:round; stroke-width:2; stroke-opacity:0.1; fill:none" points="
  1811.76,1486.45 1811.76,47.2441 
  "/>
<polyline clip-path="url(#clip812)" style="stroke:#000000; stroke-linecap:butt; stroke-linejoin:round; stroke-width:2; stroke-opacity:0.1; fill:none" points="
  2333.15,1486.45 2333.15,47.2441 
  "/>
<polyline clip-path="url(#clip810)" style="stroke:#000000; stroke-linecap:butt; stroke-linejoin:round; stroke-width:4; stroke-opacity:1; fill:none" points="
  186.274,1486.45 2352.76,1486.45 
  "/>
<polyline clip-path="url(#clip810)" style="stroke:#000000; stroke-linecap:butt; stroke-linejoin:round; stroke-width:4; stroke-opacity:1; fill:none" points="
  247.59,1486.45 247.59,1467.55 
  "/>
<polyline clip-path="url(#clip810)" style="stroke:#000000; stroke-linecap:butt; stroke-linejoin:round; stroke-width:4; stroke-opacity:1; fill:none" points="
  768.98,1486.45 768.98,1467.55 
  "/>
<polyline clip-path="url(#clip810)" style="stroke:#000000; stroke-linecap:butt; stroke-linejoin:round; stroke-width:4; stroke-opacity:1; fill:none" points="
  1290.37,1486.45 1290.37,1467.55 
  "/>
<polyline clip-path="url(#clip810)" style="stroke:#000000; stroke-linecap:butt; stroke-linejoin:round; stroke-width:4; stroke-opacity:1; fill:none" points="
  1811.76,1486.45 1811.76,1467.55 
  "/>
<polyline clip-path="url(#clip810)" style="stroke:#000000; stroke-linecap:butt; stroke-linejoin:round; stroke-width:4; stroke-opacity:1; fill:none" points="
  2333.15,1486.45 2333.15,1467.55 
  "/>
<path clip-path="url(#clip810)" d="M194.118 1532.02 L223.793 1532.02 L223.793 1535.95 L194.118 1535.95 L194.118 1532.02 Z" fill="#000000" fill-rule="evenodd" fill-opacity="1" /><path clip-path="url(#clip810)" d="M234.696 1544.91 L242.335 1544.91 L242.335 1518.55 L234.025 1520.21 L234.025 1515.95 L242.289 1514.29 L246.965 1514.29 L246.965 1544.91 L254.603 1544.91 L254.603 1548.85 L234.696 1548.85 L234.696 1544.91 Z" fill="#000000" fill-rule="evenodd" fill-opacity="1" /><path clip-path="url(#clip810)" d="M264.048 1542.97 L268.932 1542.97 L268.932 1548.85 L264.048 1548.85 L264.048 1542.97 Z" fill="#000000" fill-rule="evenodd" fill-opacity="1" /><path clip-path="url(#clip810)" d="M289.117 1517.37 Q285.506 1517.37 283.677 1520.93 Q281.872 1524.47 281.872 1531.6 Q281.872 1538.71 283.677 1542.27 Q285.506 1545.82 289.117 1545.82 Q292.751 1545.82 294.557 1542.27 Q296.386 1538.71 296.386 1531.6 Q296.386 1524.47 294.557 1520.93 Q292.751 1517.37 289.117 1517.37 M289.117 1513.66 Q294.927 1513.66 297.983 1518.27 Q301.061 1522.85 301.061 1531.6 Q301.061 1540.33 297.983 1544.94 Q294.927 1549.52 289.117 1549.52 Q283.307 1549.52 280.228 1544.94 Q277.173 1540.33 277.173 1531.6 Q277.173 1522.85 280.228 1518.27 Q283.307 1513.66 289.117 1513.66 Z" fill="#000000" fill-rule="evenodd" fill-opacity="1" /><path clip-path="url(#clip810)" d="M716.006 1532.02 L745.682 1532.02 L745.682 1535.95 L716.006 1535.95 L716.006 1532.02 Z" fill="#000000" fill-rule="evenodd" fill-opacity="1" /><path clip-path="url(#clip810)" d="M765.774 1517.37 Q762.163 1517.37 760.334 1520.93 Q758.529 1524.47 758.529 1531.6 Q758.529 1538.71 760.334 1542.27 Q762.163 1545.82 765.774 1545.82 Q769.408 1545.82 771.214 1542.27 Q773.043 1538.71 773.043 1531.6 Q773.043 1524.47 771.214 1520.93 Q769.408 1517.37 765.774 1517.37 M765.774 1513.66 Q771.584 1513.66 774.64 1518.27 Q777.718 1522.85 777.718 1531.6 Q777.718 1540.33 774.64 1544.94 Q771.584 1549.52 765.774 1549.52 Q759.964 1549.52 756.885 1544.94 Q753.83 1540.33 753.83 1531.6 Q753.83 1522.85 756.885 1518.27 Q759.964 1513.66 765.774 1513.66 Z" fill="#000000" fill-rule="evenodd" fill-opacity="1" /><path clip-path="url(#clip810)" d="M785.936 1542.97 L790.82 1542.97 L790.82 1548.85 L785.936 1548.85 L785.936 1542.97 Z" fill="#000000" fill-rule="evenodd" fill-opacity="1" /><path clip-path="url(#clip810)" d="M801.052 1514.29 L819.408 1514.29 L819.408 1518.22 L805.334 1518.22 L805.334 1526.7 Q806.353 1526.35 807.371 1526.19 Q808.39 1526 809.408 1526 Q815.195 1526 818.575 1529.17 Q821.954 1532.34 821.954 1537.76 Q821.954 1543.34 818.482 1546.44 Q815.01 1549.52 808.69 1549.52 Q806.515 1549.52 804.246 1549.15 Q802.001 1548.78 799.593 1548.04 L799.593 1543.34 Q801.677 1544.47 803.899 1545.03 Q806.121 1545.58 808.598 1545.58 Q812.603 1545.58 814.94 1543.48 Q817.278 1541.37 817.278 1537.76 Q817.278 1534.15 814.94 1532.04 Q812.603 1529.94 808.598 1529.94 Q806.723 1529.94 804.848 1530.35 Q802.996 1530.77 801.052 1531.65 L801.052 1514.29 Z" fill="#000000" fill-rule="evenodd" fill-opacity="1" /><path clip-path="url(#clip810)" d="M1267.75 1517.37 Q1264.14 1517.37 1262.32 1520.93 Q1260.51 1524.47 1260.51 1531.6 Q1260.51 1538.71 1262.32 1542.27 Q1264.14 1545.82 1267.75 1545.82 Q1271.39 1545.82 1273.19 1542.27 Q1275.02 1538.71 1275.02 1531.6 Q1275.02 1524.47 1273.19 1520.93 Q1271.39 1517.37 1267.75 1517.37 M1267.75 1513.66 Q1273.57 1513.66 1276.62 1518.27 Q1279.7 1522.85 1279.7 1531.6 Q1279.7 1540.33 1276.62 1544.94 Q1273.57 1549.52 1267.75 1549.52 Q1261.94 1549.52 1258.87 1544.94 Q1255.81 1540.33 1255.81 1531.6 Q1255.81 1522.85 1258.87 1518.27 Q1261.94 1513.66 1267.75 1513.66 Z" fill="#000000" fill-rule="evenodd" fill-opacity="1" /><path clip-path="url(#clip810)" d="M1287.92 1542.97 L1292.8 1542.97 L1292.8 1548.85 L1287.92 1548.85 L1287.92 1542.97 Z" fill="#000000" fill-rule="evenodd" fill-opacity="1" /><path clip-path="url(#clip810)" d="M1312.99 1517.37 Q1309.38 1517.37 1307.55 1520.93 Q1305.74 1524.47 1305.74 1531.6 Q1305.74 1538.71 1307.55 1542.27 Q1309.38 1545.82 1312.99 1545.82 Q1316.62 1545.82 1318.43 1542.27 Q1320.25 1538.71 1320.25 1531.6 Q1320.25 1524.47 1318.43 1520.93 Q1316.62 1517.37 1312.99 1517.37 M1312.99 1513.66 Q1318.8 1513.66 1321.85 1518.27 Q1324.93 1522.85 1324.93 1531.6 Q1324.93 1540.33 1321.85 1544.94 Q1318.8 1549.52 1312.99 1549.52 Q1307.18 1549.52 1304.1 1544.94 Q1301.04 1540.33 1301.04 1531.6 Q1301.04 1522.85 1304.1 1518.27 Q1307.18 1513.66 1312.99 1513.66 Z" fill="#000000" fill-rule="evenodd" fill-opacity="1" /><path clip-path="url(#clip810)" d="M1789.64 1517.37 Q1786.03 1517.37 1784.2 1520.93 Q1782.4 1524.47 1782.4 1531.6 Q1782.4 1538.71 1784.2 1542.27 Q1786.03 1545.82 1789.64 1545.82 Q1793.28 1545.82 1795.08 1542.27 Q1796.91 1538.71 1796.91 1531.6 Q1796.91 1524.47 1795.08 1520.93 Q1793.28 1517.37 1789.64 1517.37 M1789.64 1513.66 Q1795.45 1513.66 1798.51 1518.27 Q1801.59 1522.85 1801.59 1531.6 Q1801.59 1540.33 1798.51 1544.94 Q1795.45 1549.52 1789.64 1549.52 Q1783.83 1549.52 1780.75 1544.94 Q1777.7 1540.33 1777.7 1531.6 Q1777.7 1522.85 1780.75 1518.27 Q1783.83 1513.66 1789.64 1513.66 Z" fill="#000000" fill-rule="evenodd" fill-opacity="1" /><path clip-path="url(#clip810)" d="M1809.81 1542.97 L1814.69 1542.97 L1814.69 1548.85 L1809.81 1548.85 L1809.81 1542.97 Z" fill="#000000" fill-rule="evenodd" fill-opacity="1" /><path clip-path="url(#clip810)" d="M1824.92 1514.29 L1843.28 1514.29 L1843.28 1518.22 L1829.2 1518.22 L1829.2 1526.7 Q1830.22 1526.35 1831.24 1526.19 Q1832.26 1526 1833.28 1526 Q1839.06 1526 1842.44 1529.17 Q1845.82 1532.34 1845.82 1537.76 Q1845.82 1543.34 1842.35 1546.44 Q1838.88 1549.52 1832.56 1549.52 Q1830.38 1549.52 1828.12 1549.15 Q1825.87 1548.78 1823.46 1548.04 L1823.46 1543.34 Q1825.55 1544.47 1827.77 1545.03 Q1829.99 1545.58 1832.47 1545.58 Q1836.47 1545.58 1838.81 1543.48 Q1841.15 1541.37 1841.15 1537.76 Q1841.15 1534.15 1838.81 1532.04 Q1836.47 1529.94 1832.47 1529.94 Q1830.59 1529.94 1828.72 1530.35 Q1826.87 1530.77 1824.92 1531.65 L1824.92 1514.29 Z" fill="#000000" fill-rule="evenodd" fill-opacity="1" /><path clip-path="url(#clip810)" d="M2300.3 1544.91 L2307.94 1544.91 L2307.94 1518.55 L2299.63 1520.21 L2299.63 1515.95 L2307.9 1514.29 L2312.57 1514.29 L2312.57 1544.91 L2320.21 1544.91 L2320.21 1548.85 L2300.3 1548.85 L2300.3 1544.91 Z" fill="#000000" fill-rule="evenodd" fill-opacity="1" /><path clip-path="url(#clip810)" d="M2329.66 1542.97 L2334.54 1542.97 L2334.54 1548.85 L2329.66 1548.85 L2329.66 1542.97 Z" fill="#000000" fill-rule="evenodd" fill-opacity="1" /><path clip-path="url(#clip810)" d="M2354.73 1517.37 Q2351.11 1517.37 2349.29 1520.93 Q2347.48 1524.47 2347.48 1531.6 Q2347.48 1538.71 2349.29 1542.27 Q2351.11 1545.82 2354.73 1545.82 Q2358.36 1545.82 2360.17 1542.27 Q2361.99 1538.71 2361.99 1531.6 Q2361.99 1524.47 2360.17 1520.93 Q2358.36 1517.37 2354.73 1517.37 M2354.73 1513.66 Q2360.54 1513.66 2363.59 1518.27 Q2366.67 1522.85 2366.67 1531.6 Q2366.67 1540.33 2363.59 1544.94 Q2360.54 1549.52 2354.73 1549.52 Q2348.92 1549.52 2345.84 1544.94 Q2342.78 1540.33 2342.78 1531.6 Q2342.78 1522.85 2345.84 1518.27 Q2348.92 1513.66 2354.73 1513.66 Z" fill="#000000" fill-rule="evenodd" fill-opacity="1" /><polyline clip-path="url(#clip812)" style="stroke:#000000; stroke-linecap:butt; stroke-linejoin:round; stroke-width:2; stroke-opacity:0.1; fill:none" points="
  186.274,1436.84 2352.76,1436.84 
  "/>
<polyline clip-path="url(#clip812)" style="stroke:#000000; stroke-linecap:butt; stroke-linejoin:round; stroke-width:2; stroke-opacity:0.1; fill:none" points="
  186.274,1157.52 2352.76,1157.52 
  "/>
<polyline clip-path="url(#clip812)" style="stroke:#000000; stroke-linecap:butt; stroke-linejoin:round; stroke-width:2; stroke-opacity:0.1; fill:none" points="
  186.274,878.2 2352.76,878.2 
  "/>
<polyline clip-path="url(#clip812)" style="stroke:#000000; stroke-linecap:butt; stroke-linejoin:round; stroke-width:2; stroke-opacity:0.1; fill:none" points="
  186.274,598.878 2352.76,598.878 
  "/>
<polyline clip-path="url(#clip812)" style="stroke:#000000; stroke-linecap:butt; stroke-linejoin:round; stroke-width:2; stroke-opacity:0.1; fill:none" points="
  186.274,319.556 2352.76,319.556 
  "/>
<polyline clip-path="url(#clip810)" style="stroke:#000000; stroke-linecap:butt; stroke-linejoin:round; stroke-width:4; stroke-opacity:1; fill:none" points="
  186.274,1486.45 186.274,47.2441 
  "/>
<polyline clip-path="url(#clip810)" style="stroke:#000000; stroke-linecap:butt; stroke-linejoin:round; stroke-width:4; stroke-opacity:1; fill:none" points="
  186.274,1436.84 205.172,1436.84 
  "/>
<polyline clip-path="url(#clip810)" style="stroke:#000000; stroke-linecap:butt; stroke-linejoin:round; stroke-width:4; stroke-opacity:1; fill:none" points="
  186.274,1157.52 205.172,1157.52 
  "/>
<polyline clip-path="url(#clip810)" style="stroke:#000000; stroke-linecap:butt; stroke-linejoin:round; stroke-width:4; stroke-opacity:1; fill:none" points="
  186.274,878.2 205.172,878.2 
  "/>
<polyline clip-path="url(#clip810)" style="stroke:#000000; stroke-linecap:butt; stroke-linejoin:round; stroke-width:4; stroke-opacity:1; fill:none" points="
  186.274,598.878 205.172,598.878 
  "/>
<polyline clip-path="url(#clip810)" style="stroke:#000000; stroke-linecap:butt; stroke-linejoin:round; stroke-width:4; stroke-opacity:1; fill:none" points="
  186.274,319.556 205.172,319.556 
  "/>
<path clip-path="url(#clip810)" d="M62.9365 1422.64 Q59.3254 1422.64 57.4967 1426.21 Q55.6912 1429.75 55.6912 1436.88 Q55.6912 1443.99 57.4967 1447.55 Q59.3254 1451.09 62.9365 1451.09 Q66.5707 1451.09 68.3763 1447.55 Q70.205 1443.99 70.205 1436.88 Q70.205 1429.75 68.3763 1426.21 Q66.5707 1422.64 62.9365 1422.64 M62.9365 1418.94 Q68.7467 1418.94 71.8022 1423.55 Q74.8809 1428.13 74.8809 1436.88 Q74.8809 1445.61 71.8022 1450.21 Q68.7467 1454.8 62.9365 1454.8 Q57.1264 1454.8 54.0477 1450.21 Q50.9921 1445.61 50.9921 1436.88 Q50.9921 1428.13 54.0477 1423.55 Q57.1264 1418.94 62.9365 1418.94 Z" fill="#000000" fill-rule="evenodd" fill-opacity="1" /><path clip-path="url(#clip810)" d="M83.0984 1448.24 L87.9827 1448.24 L87.9827 1454.12 L83.0984 1454.12 L83.0984 1448.24 Z" fill="#000000" fill-rule="evenodd" fill-opacity="1" /><path clip-path="url(#clip810)" d="M108.168 1422.64 Q104.557 1422.64 102.728 1426.21 Q100.922 1429.75 100.922 1436.88 Q100.922 1443.99 102.728 1447.55 Q104.557 1451.09 108.168 1451.09 Q111.802 1451.09 113.608 1447.55 Q115.436 1443.99 115.436 1436.88 Q115.436 1429.75 113.608 1426.21 Q111.802 1422.64 108.168 1422.64 M108.168 1418.94 Q113.978 1418.94 117.033 1423.55 Q120.112 1428.13 120.112 1436.88 Q120.112 1445.61 117.033 1450.21 Q113.978 1454.8 108.168 1454.8 Q102.358 1454.8 99.2789 1450.21 Q96.2234 1445.61 96.2234 1436.88 Q96.2234 1428.13 99.2789 1423.55 Q102.358 1418.94 108.168 1418.94 Z" fill="#000000" fill-rule="evenodd" fill-opacity="1" /><path clip-path="url(#clip810)" d="M138.33 1422.64 Q134.719 1422.64 132.89 1426.21 Q131.084 1429.75 131.084 1436.88 Q131.084 1443.99 132.89 1447.55 Q134.719 1451.09 138.33 1451.09 Q141.964 1451.09 143.769 1447.55 Q145.598 1443.99 145.598 1436.88 Q145.598 1429.75 143.769 1426.21 Q141.964 1422.64 138.33 1422.64 M138.33 1418.94 Q144.14 1418.94 147.195 1423.55 Q150.274 1428.13 150.274 1436.88 Q150.274 1445.61 147.195 1450.21 Q144.14 1454.8 138.33 1454.8 Q132.519 1454.8 129.441 1450.21 Q126.385 1445.61 126.385 1436.88 Q126.385 1428.13 129.441 1423.55 Q132.519 1418.94 138.33 1418.94 Z" fill="#000000" fill-rule="evenodd" fill-opacity="1" /><path clip-path="url(#clip810)" d="M63.9319 1143.32 Q60.3208 1143.32 58.4921 1146.89 Q56.6865 1150.43 56.6865 1157.56 Q56.6865 1164.66 58.4921 1168.23 Q60.3208 1171.77 63.9319 1171.77 Q67.5661 1171.77 69.3717 1168.23 Q71.2004 1164.66 71.2004 1157.56 Q71.2004 1150.43 69.3717 1146.89 Q67.5661 1143.32 63.9319 1143.32 M63.9319 1139.62 Q69.742 1139.62 72.7976 1144.22 Q75.8763 1148.81 75.8763 1157.56 Q75.8763 1166.28 72.7976 1170.89 Q69.742 1175.47 63.9319 1175.47 Q58.1217 1175.47 55.043 1170.89 Q51.9875 1166.28 51.9875 1157.56 Q51.9875 1148.81 55.043 1144.22 Q58.1217 1139.62 63.9319 1139.62 Z" fill="#000000" fill-rule="evenodd" fill-opacity="1" /><path clip-path="url(#clip810)" d="M84.0938 1168.92 L88.978 1168.92 L88.978 1174.8 L84.0938 1174.8 L84.0938 1168.92 Z" fill="#000000" fill-rule="evenodd" fill-opacity="1" /><path clip-path="url(#clip810)" d="M103.191 1170.87 L119.51 1170.87 L119.51 1174.8 L97.566 1174.8 L97.566 1170.87 Q100.228 1168.11 104.811 1163.48 Q109.418 1158.83 110.598 1157.49 Q112.844 1154.96 113.723 1153.23 Q114.626 1151.47 114.626 1149.78 Q114.626 1147.02 112.682 1145.29 Q110.76 1143.55 107.658 1143.55 Q105.459 1143.55 103.006 1144.32 Q100.575 1145.08 97.7974 1146.63 L97.7974 1141.91 Q100.621 1140.77 103.075 1140.2 Q105.529 1139.62 107.566 1139.62 Q112.936 1139.62 116.131 1142.3 Q119.325 1144.99 119.325 1149.48 Q119.325 1151.61 118.515 1153.53 Q117.728 1155.43 115.621 1158.02 Q115.043 1158.69 111.941 1161.91 Q108.839 1165.1 103.191 1170.87 Z" fill="#000000" fill-rule="evenodd" fill-opacity="1" /><path clip-path="url(#clip810)" d="M129.371 1140.24 L147.728 1140.24 L147.728 1144.18 L133.654 1144.18 L133.654 1152.65 Q134.672 1152.3 135.691 1152.14 Q136.709 1151.96 137.728 1151.96 Q143.515 1151.96 146.894 1155.13 Q150.274 1158.3 150.274 1163.71 Q150.274 1169.29 146.802 1172.39 Q143.33 1175.47 137.01 1175.47 Q134.834 1175.47 132.566 1175.1 Q130.32 1174.73 127.913 1173.99 L127.913 1169.29 Q129.996 1170.43 132.219 1170.98 Q134.441 1171.54 136.918 1171.54 Q140.922 1171.54 143.26 1169.43 Q145.598 1167.33 145.598 1163.71 Q145.598 1160.1 143.26 1158 Q140.922 1155.89 136.918 1155.89 Q135.043 1155.89 133.168 1156.31 Q131.316 1156.72 129.371 1157.6 L129.371 1140.24 Z" fill="#000000" fill-rule="evenodd" fill-opacity="1" /><path clip-path="url(#clip810)" d="M62.9365 863.999 Q59.3254 863.999 57.4967 867.564 Q55.6912 871.105 55.6912 878.235 Q55.6912 885.341 57.4967 888.906 Q59.3254 892.448 62.9365 892.448 Q66.5707 892.448 68.3763 888.906 Q70.205 885.341 70.205 878.235 Q70.205 871.105 68.3763 867.564 Q66.5707 863.999 62.9365 863.999 M62.9365 860.295 Q68.7467 860.295 71.8022 864.902 Q74.8809 869.485 74.8809 878.235 Q74.8809 886.962 71.8022 891.568 Q68.7467 896.151 62.9365 896.151 Q57.1264 896.151 54.0477 891.568 Q50.9921 886.962 50.9921 878.235 Q50.9921 869.485 54.0477 864.902 Q57.1264 860.295 62.9365 860.295 Z" fill="#000000" fill-rule="evenodd" fill-opacity="1" /><path clip-path="url(#clip810)" d="M83.0984 889.6 L87.9827 889.6 L87.9827 895.48 L83.0984 895.48 L83.0984 889.6 Z" fill="#000000" fill-rule="evenodd" fill-opacity="1" /><path clip-path="url(#clip810)" d="M98.2141 860.92 L116.57 860.92 L116.57 864.855 L102.496 864.855 L102.496 873.327 Q103.515 872.98 104.534 872.818 Q105.552 872.633 106.571 872.633 Q112.358 872.633 115.737 875.804 Q119.117 878.976 119.117 884.392 Q119.117 889.971 115.645 893.073 Q112.172 896.151 105.853 896.151 Q103.677 896.151 101.409 895.781 Q99.1632 895.411 96.7558 894.67 L96.7558 889.971 Q98.8391 891.105 101.061 891.661 Q103.284 892.216 105.76 892.216 Q109.765 892.216 112.103 890.11 Q114.441 888.003 114.441 884.392 Q114.441 880.781 112.103 878.675 Q109.765 876.568 105.76 876.568 Q103.885 876.568 102.01 876.985 Q100.159 877.401 98.2141 878.281 L98.2141 860.92 Z" fill="#000000" fill-rule="evenodd" fill-opacity="1" /><path clip-path="url(#clip810)" d="M138.33 863.999 Q134.719 863.999 132.89 867.564 Q131.084 871.105 131.084 878.235 Q131.084 885.341 132.89 888.906 Q134.719 892.448 138.33 892.448 Q141.964 892.448 143.769 888.906 Q145.598 885.341 145.598 878.235 Q145.598 871.105 143.769 867.564 Q141.964 863.999 138.33 863.999 M138.33 860.295 Q144.14 860.295 147.195 864.902 Q150.274 869.485 150.274 878.235 Q150.274 886.962 147.195 891.568 Q144.14 896.151 138.33 896.151 Q132.519 896.151 129.441 891.568 Q126.385 886.962 126.385 878.235 Q126.385 869.485 129.441 864.902 Q132.519 860.295 138.33 860.295 Z" fill="#000000" fill-rule="evenodd" fill-opacity="1" /><path clip-path="url(#clip810)" d="M63.9319 584.677 Q60.3208 584.677 58.4921 588.242 Q56.6865 591.783 56.6865 598.913 Q56.6865 606.019 58.4921 609.584 Q60.3208 613.126 63.9319 613.126 Q67.5661 613.126 69.3717 609.584 Q71.2004 606.019 71.2004 598.913 Q71.2004 591.783 69.3717 588.242 Q67.5661 584.677 63.9319 584.677 M63.9319 580.973 Q69.742 580.973 72.7976 585.579 Q75.8763 590.163 75.8763 598.913 Q75.8763 607.64 72.7976 612.246 Q69.742 616.829 63.9319 616.829 Q58.1217 616.829 55.043 612.246 Q51.9875 607.64 51.9875 598.913 Q51.9875 590.163 55.043 585.579 Q58.1217 580.973 63.9319 580.973 Z" fill="#000000" fill-rule="evenodd" fill-opacity="1" /><path clip-path="url(#clip810)" d="M84.0938 610.278 L88.978 610.278 L88.978 616.158 L84.0938 616.158 L84.0938 610.278 Z" fill="#000000" fill-rule="evenodd" fill-opacity="1" /><path clip-path="url(#clip810)" d="M97.9826 581.598 L120.205 581.598 L120.205 583.589 L107.658 616.158 L102.774 616.158 L114.58 585.533 L97.9826 585.533 L97.9826 581.598 Z" fill="#000000" fill-rule="evenodd" fill-opacity="1" /><path clip-path="url(#clip810)" d="M129.371 581.598 L147.728 581.598 L147.728 585.533 L133.654 585.533 L133.654 594.005 Q134.672 593.658 135.691 593.496 Q136.709 593.311 137.728 593.311 Q143.515 593.311 146.894 596.482 Q150.274 599.653 150.274 605.07 Q150.274 610.649 146.802 613.751 Q143.33 616.829 137.01 616.829 Q134.834 616.829 132.566 616.459 Q130.32 616.089 127.913 615.348 L127.913 610.649 Q129.996 611.783 132.219 612.339 Q134.441 612.894 136.918 612.894 Q140.922 612.894 143.26 610.788 Q145.598 608.681 145.598 605.07 Q145.598 601.459 143.26 599.353 Q140.922 597.246 136.918 597.246 Q135.043 597.246 133.168 597.663 Q131.316 598.079 129.371 598.959 L129.371 581.598 Z" fill="#000000" fill-rule="evenodd" fill-opacity="1" /><path clip-path="url(#clip810)" d="M53.7467 332.901 L61.3856 332.901 L61.3856 306.535 L53.0754 308.202 L53.0754 303.943 L61.3393 302.276 L66.0152 302.276 L66.0152 332.901 L73.654 332.901 L73.654 336.836 L53.7467 336.836 L53.7467 332.901 Z" fill="#000000" fill-rule="evenodd" fill-opacity="1" /><path clip-path="url(#clip810)" d="M83.0984 330.956 L87.9827 330.956 L87.9827 336.836 L83.0984 336.836 L83.0984 330.956 Z" fill="#000000" fill-rule="evenodd" fill-opacity="1" /><path clip-path="url(#clip810)" d="M108.168 305.355 Q104.557 305.355 102.728 308.919 Q100.922 312.461 100.922 319.591 Q100.922 326.697 102.728 330.262 Q104.557 333.804 108.168 333.804 Q111.802 333.804 113.608 330.262 Q115.436 326.697 115.436 319.591 Q115.436 312.461 113.608 308.919 Q111.802 305.355 108.168 305.355 M108.168 301.651 Q113.978 301.651 117.033 306.257 Q120.112 310.841 120.112 319.591 Q120.112 328.317 117.033 332.924 Q113.978 337.507 108.168 337.507 Q102.358 337.507 99.2789 332.924 Q96.2234 328.317 96.2234 319.591 Q96.2234 310.841 99.2789 306.257 Q102.358 301.651 108.168 301.651 Z" fill="#000000" fill-rule="evenodd" fill-opacity="1" /><path clip-path="url(#clip810)" d="M138.33 305.355 Q134.719 305.355 132.89 308.919 Q131.084 312.461 131.084 319.591 Q131.084 326.697 132.89 330.262 Q134.719 333.804 138.33 333.804 Q141.964 333.804 143.769 330.262 Q145.598 326.697 145.598 319.591 Q145.598 312.461 143.769 308.919 Q141.964 305.355 138.33 305.355 M138.33 301.651 Q144.14 301.651 147.195 306.257 Q150.274 310.841 150.274 319.591 Q150.274 328.317 147.195 332.924 Q144.14 337.507 138.33 337.507 Q132.519 337.507 129.441 332.924 Q126.385 328.317 126.385 319.591 Q126.385 310.841 129.441 306.257 Q132.519 301.651 138.33 301.651 Z" fill="#000000" fill-rule="evenodd" fill-opacity="1" /><polyline clip-path="url(#clip812)" style="stroke:#009af9; stroke-linecap:butt; stroke-linejoin:round; stroke-width:12; stroke-opacity:1; fill:none" points="
  247.59,1436.71 289.301,1436.57 331.012,1436.29 372.723,1435.79 414.434,1434.89 456.146,1433.32 497.857,1430.67 539.568,1426.33 581.279,1419.43 622.991,1408.84 
  664.702,1393.09 706.413,1370.41 748.124,1338.84 789.836,1296.36 831.547,1241.21 873.258,1172.13 914.969,1088.82 956.681,992.295 998.392,885.114 1040.1,771.53 
  1081.81,657.339 1123.53,549.476 1165.24,455.366 1206.95,382.093 1248.66,335.53 1290.37,319.556 1332.08,335.53 1373.79,382.093 1415.5,455.366 1457.22,549.476 
  1498.93,657.339 1540.64,771.53 1582.35,885.114 1624.06,992.295 1665.77,1088.82 1707.48,1172.13 1749.19,1241.21 1790.91,1296.36 1832.62,1338.84 1874.33,1370.41 
  1916.04,1393.09 1957.75,1408.84 1999.46,1419.43 2041.17,1426.33 2082.88,1430.67 2124.6,1433.32 2166.31,1434.89 2208.02,1435.79 2249.73,1436.29 2291.44,1436.57 
  
  "/>
<polyline clip-path="url(#clip812)" style="stroke:#e26f46; stroke-linecap:butt; stroke-linejoin:round; stroke-width:12; stroke-opacity:1; fill:none" points="
  247.59,1435.91 289.301,1436.46 331.012,1436.72 372.723,1436.77 414.434,1436.71 456.146,1436.55 497.857,1436.23 539.568,1435.62 581.279,1434.49 622.991,1432.46 
  664.702,1428.98 706.413,1423.2 748.124,1413.98 789.836,1399.78 831.547,1378.72 873.258,1348.63 914.969,1307.24 956.681,1252.43 998.392,1182.68 1040.1,1097.45 
  1081.81,997.628 1123.53,885.892 1165.24,766.815 1206.95,646.72 1248.66,533.218 1290.37,434.448 1332.08,358.126 1373.79,310.55 1415.5,295.742 1457.22,314.889 
  1498.93,366.182 1540.64,445.101 1582.35,545.064 1624.06,658.327 1665.77,776.961 1707.48,893.731 1749.19,1002.76 1790.91,1099.91 1832.62,1182.84 1874.33,1250.86 
  1916.04,1304.56 1957.75,1345.45 1999.46,1375.5 2041.17,1396.84 2082.88,1411.5 2124.6,1421.24 2166.31,1427.51 2208.02,1431.41 2249.73,1433.82 2291.44,1435.11 
  
  "/>
<polyline clip-path="url(#clip812)" style="stroke:#3da44d; stroke-linecap:butt; stroke-linejoin:round; stroke-width:12; stroke-opacity:1; fill:none" points="
  247.59,1432.11 289.301,1434.06 331.012,1435.32 372.723,1436.15 414.434,1436.6 456.146,1436.77 497.857,1436.82 539.568,1436.8 581.279,1436.73 622.991,1436.56 
  664.702,1436.2 706.413,1435.47 748.124,1434.05 789.836,1431.42 831.547,1426.8 873.258,1419.04 914.969,1406.55 956.681,1387.33 998.392,1358.98 1040.1,1318.92 
  1081.81,1264.67 1123.53,1194.34 1165.24,1107.11 1206.95,1003.74 1248.66,887.015 1290.37,761.891 1332.08,635.308 1373.79,515.654 1415.5,411.883 1457.22,332.408 
  1498.93,283.974 1540.64,270.712 1582.35,293.561 1624.06,350.16 1665.77,435.248 1707.48,541.455 1749.19,660.338 1790.91,783.455 1832.62,903.305 1874.33,1013.98 
  1916.04,1111.51 1957.75,1193.83 1999.46,1260.58 2041.17,1312.69 2082.88,1351.91 2124.6,1380.38 2166.31,1400.45 2208.02,1413.95 2249.73,1422.88 2291.44,1428.69 
  
  "/>
<polyline clip-path="url(#clip812)" style="stroke:#c271d2; stroke-linecap:butt; stroke-linejoin:round; stroke-width:12; stroke-opacity:1; fill:none" points="
  247.59,1416.33 289.301,1424.64 331.012,1429.6 372.723,1432.52 414.434,1434.39 456.146,1435.63 497.857,1436.34 539.568,1436.67 581.279,1436.8 622.991,1436.84 
  664.702,1436.85 706.413,1436.83 748.124,1436.78 789.836,1436.63 831.547,1436.25 873.258,1435.39 914.969,1433.61 956.681,1430.18 998.392,1423.97 1040.1,1413.37 
  1081.81,1396.24 1123.53,1369.93 1165.24,1331.5 1206.95,1278.06 1248.66,1207.26 1290.37,1117.94 1332.08,1010.72 1373.79,888.509 1415.5,756.698 1457.22,622.958 
  1498.93,496.585 1540.64,387.458 1582.35,304.757 1624.06,255.687 1665.77,244.436 1707.48,271.596 1749.19,334.139 1790.91,425.951 1832.62,538.792 1874.33,663.483 
  1916.04,791.084 1957.75,913.859 1999.46,1025.96 2041.17,1123.54 2082.88,1205.08 2124.6,1270.3 2166.31,1320.64 2208.02,1358.28 2249.73,1385.09 2291.44,1403.6 
  
  "/>
<polyline clip-path="url(#clip812)" style="stroke:#ac8d18; stroke-linecap:butt; stroke-linejoin:round; stroke-width:12; stroke-opacity:1; fill:none" points="
  247.59,1364.09 289.301,1389.25 331.012,1407 372.723,1418.77 414.434,1425.94 456.146,1430.23 497.857,1432.98 539.568,1434.79 581.279,1435.9 622.991,1436.47 
  664.702,1436.72 706.413,1436.81 748.124,1436.84 789.836,1436.86 831.547,1436.88 873.258,1436.9 914.969,1436.9 956.681,1436.81 998.392,1436.46 1040.1,1435.49 
  1081.81,1433.26 1123.53,1428.71 1165.24,1420.19 1206.95,1405.43 1248.66,1381.51 1290.37,1345.09 1332.08,1292.75 1373.79,1221.63 1415.5,1130.13 1457.22,1018.69 
  1498.93,890.392 1540.64,751.147 1582.35,609.491 1624.06,475.775 1665.77,360.931 1707.48,274.978 1749.19,225.577 1790.91,216.901 1832.62,249.077 1874.33,318.252 
  1916.04,417.397 1957.75,537.185 1999.46,667.93 2041.17,799.906 2082.88,925.331 2124.6,1038.76 2166.31,1136.09 2208.02,1216.2 2249.73,1280.14 2291.44,1328.82 
  
  "/>
<polyline clip-path="url(#clip812)" style="stroke:#00a9ad; stroke-linecap:butt; stroke-linejoin:round; stroke-width:12; stroke-opacity:1; fill:none" points="
  247.59,1228.31 289.301,1290.1 331.012,1335.89 372.723,1369.55 414.434,1393.88 456.146,1410.37 497.857,1420.66 539.568,1426.91 581.279,1430.89 622.991,1433.52 
  664.702,1435.18 706.413,1436.12 748.124,1436.57 789.836,1436.75 831.547,1436.81 873.258,1436.83 914.969,1436.85 956.681,1436.87 998.392,1436.92 1040.1,1437.01 
  1081.81,1437.13 1123.53,1437.21 1165.24,1437 1206.95,1435.98 1248.66,1433.16 1290.37,1426.93 1332.08,1414.88 1373.79,1393.79 1415.5,1359.82 1457.22,1308.95 
  1498.93,1237.66 1540.64,1143.86 1582.35,1027.78 1624.06,892.674 1665.77,745.121 1707.48,594.68 1749.19,452.951 1790.91,332.012 1832.62,242.9 1874.33,193.49 
  1916.04,188.163 1957.75,226.137 1999.46,302.563 2041.17,409.841 2082.88,536.988 2124.6,673.353 2166.31,810.12 2208.02,938.316 2249.73,1051.69 2291.44,1148.6 
  
  "/>
<polyline clip-path="url(#clip812)" style="stroke:#ed5d92; stroke-linecap:butt; stroke-linejoin:round; stroke-width:12; stroke-opacity:1; fill:none" points="
  247.59,950.639 289.301,1065.6 331.012,1163 372.723,1240.09 414.434,1298.64 456.146,1342.86 497.857,1375.66 539.568,1398.47 581.279,1413.09 622.991,1422.1 
  664.702,1427.82 706.413,1431.61 748.124,1434.06 789.836,1435.52 831.547,1436.29 873.258,1436.64 914.969,1436.78 956.681,1436.82 998.392,1436.83 1040.1,1436.82 
  1081.81,1436.82 1123.53,1436.86 1165.24,1436.97 1206.95,1437.21 1248.66,1437.6 1290.37,1438.06 1332.08,1438.22 1373.79,1437.23 1415.5,1433.53 1457.22,1424.58 
  1498.93,1406.83 1540.64,1375.86 1582.35,1326.89 1624.06,1255.63 1665.77,1159.4 1707.48,1038.08 1749.19,895.389 1790.91,738.399 1832.62,578.274 1874.33,427.843 
  1916.04,300.271 1957.75,208.332 1999.46,159.653 2041.17,157.761 2082.88,202.966 2124.6,288.123 2166.31,402.665 2208.02,537.63 2249.73,681.62 2291.44,821.722 
  
  "/>
<polyline clip-path="url(#clip812)" style="stroke:#c68125; stroke-linecap:butt; stroke-linejoin:round; stroke-width:12; stroke-opacity:1; fill:none" points="
  247.59,542.5 289.301,689.794 331.012,832.286 372.723,965.516 414.434,1082.13 456.146,1176.65 497.857,1250.19 539.568,1307.22 581.279,1350.7 622.991,1381.82 
  664.702,1402.35 706.413,1415.23 748.124,1423.4 789.836,1428.78 831.547,1432.34 873.258,1434.56 914.969,1435.8 956.681,1436.42 998.392,1436.69 1040.1,1436.8 
  1081.81,1436.83 1123.53,1436.83 1165.24,1436.81 1206.95,1436.77 1248.66,1436.74 1290.37,1436.79 1332.08,1437.03 1373.79,1437.59 1415.5,1438.58 1457.22,1439.85 
  1498.93,1440.78 1540.64,1439.86 1582.35,1434.52 1624.06,1420.68 1665.77,1393.47 1707.48,1346.83 1749.19,1275.86 1790.91,1177.1 1832.62,1049.6 1874.33,898.426 
  1916.04,731.218 1957.75,559.372 1999.46,399.913 2041.17,266.571 2082.88,170.143 2124.6,122.818 2166.31,128.239 2208.02,179.746 2249.73,271.803 2291.44,397.844 
  
  "/>
<polyline clip-path="url(#clip812)" style="stroke:#00a98d; stroke-linecap:butt; stroke-linejoin:round; stroke-width:12; stroke-opacity:1; fill:none" points="
  247.59,153.201 289.301,260.966 331.012,397.451 372.723,544.947 414.434,696.962 456.146,847.256 497.857,983.884 539.568,1097.61 581.279,1188.26 622.991,1260.4 
  664.702,1316.98 706.413,1358.79 748.124,1387.25 789.836,1405.47 831.547,1417.07 873.258,1424.69 914.969,1429.78 956.681,1433.05 998.392,1434.99 1040.1,1436.02 
  1081.81,1436.52 1123.53,1436.73 1165.24,1436.82 1206.95,1436.85 1248.66,1436.85 1290.37,1436.82 1332.08,1436.73 1373.79,1436.6 1415.5,1436.51 1457.22,1436.56 
  1498.93,1437.16 1540.64,1438.39 1582.35,1440.78 1624.06,1443.57 1665.77,1445.72 1707.48,1444.81 1749.19,1435.32 1790.91,1412.71 1832.62,1369.75 1874.33,1298.19 
  1916.04,1196.78 1957.75,1064.07 1999.46,900.809 2041.17,721.339 2082.88,540.82 2124.6,369.05 2166.31,225.533 2208.02,130.889 2249.73,87.9763 2291.44,94.0579 
  
  "/>
<path clip-path="url(#clip810)" d="
M1985.68 613.618 L2280.54 613.618 L2280.54 95.2176 L1985.68 95.2176  Z
  " fill="#ffffff" fill-rule="evenodd" fill-opacity="1"/>
<polyline clip-path="url(#clip810)" style="stroke:#000000; stroke-linecap:butt; stroke-linejoin:round; stroke-width:4; stroke-opacity:1; fill:none" points="
  1985.68,613.618 2280.54,613.618 2280.54,95.2176 1985.68,95.2176 1985.68,613.618 
  "/>
<polyline clip-path="url(#clip810)" style="stroke:#009af9; stroke-linecap:butt; stroke-linejoin:round; stroke-width:4; stroke-opacity:1; fill:none" points="
  2009.75,147.058 2154.18,147.058 
  "/>
<path clip-path="url(#clip810)" d="M2192.1 166.745 Q2190.29 171.375 2188.58 172.787 Q2186.86 174.199 2183.99 174.199 L2180.59 174.199 L2180.59 170.634 L2183.09 170.634 Q2184.85 170.634 2185.82 169.8 Q2186.79 168.967 2187.97 165.865 L2188.74 163.921 L2178.25 138.412 L2182.77 138.412 L2190.87 158.689 L2198.97 138.412 L2203.48 138.412 L2192.1 166.745 Z" fill="#000000" fill-rule="evenodd" fill-opacity="1" /><path clip-path="url(#clip810)" d="M2210.78 160.402 L2218.41 160.402 L2218.41 134.037 L2210.1 135.703 L2210.1 131.444 L2218.37 129.778 L2223.04 129.778 L2223.04 160.402 L2230.68 160.402 L2230.68 164.338 L2210.78 164.338 L2210.78 160.402 Z" fill="#000000" fill-rule="evenodd" fill-opacity="1" /><polyline clip-path="url(#clip810)" style="stroke:#e26f46; stroke-linecap:butt; stroke-linejoin:round; stroke-width:4; stroke-opacity:1; fill:none" points="
  2009.75,198.898 2154.18,198.898 
  "/>
<path clip-path="url(#clip810)" d="M2192.1 218.585 Q2190.29 223.215 2188.58 224.627 Q2186.86 226.039 2183.99 226.039 L2180.59 226.039 L2180.59 222.474 L2183.09 222.474 Q2184.85 222.474 2185.82 221.64 Q2186.79 220.807 2187.97 217.705 L2188.74 215.761 L2178.25 190.252 L2182.77 190.252 L2190.87 210.529 L2198.97 190.252 L2203.48 190.252 L2192.1 218.585 Z" fill="#000000" fill-rule="evenodd" fill-opacity="1" /><path clip-path="url(#clip810)" d="M2213.99 212.242 L2230.31 212.242 L2230.31 216.178 L2208.37 216.178 L2208.37 212.242 Q2211.03 209.488 2215.61 204.858 Q2220.22 200.205 2221.4 198.863 Q2223.65 196.34 2224.53 194.604 Q2225.43 192.844 2225.43 191.155 Q2225.43 188.4 2223.48 186.664 Q2221.56 184.928 2218.46 184.928 Q2216.26 184.928 2213.81 185.692 Q2211.38 186.455 2208.6 188.006 L2208.6 183.284 Q2211.42 182.15 2213.88 181.571 Q2216.33 180.993 2218.37 180.993 Q2223.74 180.993 2226.93 183.678 Q2230.13 186.363 2230.13 190.854 Q2230.13 192.983 2229.32 194.905 Q2228.53 196.803 2226.42 199.395 Q2225.84 200.067 2222.74 203.284 Q2219.64 206.479 2213.99 212.242 Z" fill="#000000" fill-rule="evenodd" fill-opacity="1" /><polyline clip-path="url(#clip810)" style="stroke:#3da44d; stroke-linecap:butt; stroke-linejoin:round; stroke-width:4; stroke-opacity:1; fill:none" points="
  2009.75,250.738 2154.18,250.738 
  "/>
<path clip-path="url(#clip810)" d="M2192.1 270.425 Q2190.29 275.055 2188.58 276.467 Q2186.86 277.879 2183.99 277.879 L2180.59 277.879 L2180.59 274.314 L2183.09 274.314 Q2184.85 274.314 2185.82 273.48 Q2186.79 272.647 2187.97 269.545 L2188.74 267.601 L2178.25 242.092 L2182.77 242.092 L2190.87 262.369 L2198.97 242.092 L2203.48 242.092 L2192.1 270.425 Z" fill="#000000" fill-rule="evenodd" fill-opacity="1" /><path clip-path="url(#clip810)" d="M2224.13 249.383 Q2227.49 250.101 2229.36 252.369 Q2231.26 254.638 2231.26 257.971 Q2231.26 263.087 2227.74 265.888 Q2224.22 268.689 2217.74 268.689 Q2215.57 268.689 2213.25 268.249 Q2210.96 267.832 2208.51 266.976 L2208.51 262.462 Q2210.45 263.596 2212.77 264.175 Q2215.08 264.754 2217.6 264.754 Q2222 264.754 2224.29 263.018 Q2226.61 261.281 2226.61 257.971 Q2226.61 254.916 2224.46 253.203 Q2222.33 251.467 2218.51 251.467 L2214.48 251.467 L2214.48 247.624 L2218.69 247.624 Q2222.14 247.624 2223.97 246.258 Q2225.8 244.87 2225.8 242.277 Q2225.8 239.615 2223.9 238.203 Q2222.03 236.768 2218.51 236.768 Q2216.59 236.768 2214.39 237.184 Q2212.19 237.601 2209.55 238.481 L2209.55 234.314 Q2212.21 233.573 2214.53 233.203 Q2216.86 232.833 2218.92 232.833 Q2224.25 232.833 2227.35 235.263 Q2230.45 237.67 2230.45 241.791 Q2230.45 244.661 2228.81 246.652 Q2227.16 248.62 2224.13 249.383 Z" fill="#000000" fill-rule="evenodd" fill-opacity="1" /><polyline clip-path="url(#clip810)" style="stroke:#c271d2; stroke-linecap:butt; stroke-linejoin:round; stroke-width:4; stroke-opacity:1; fill:none" points="
  2009.75,302.578 2154.18,302.578 
  "/>
<path clip-path="url(#clip810)" d="M2192.1 322.265 Q2190.29 326.895 2188.58 328.307 Q2186.86 329.719 2183.99 329.719 L2180.59 329.719 L2180.59 326.154 L2183.09 326.154 Q2184.85 326.154 2185.82 325.32 Q2186.79 324.487 2187.97 321.385 L2188.74 319.441 L2178.25 293.932 L2182.77 293.932 L2190.87 314.209 L2198.97 293.932 L2203.48 293.932 L2192.1 322.265 Z" fill="#000000" fill-rule="evenodd" fill-opacity="1" /><path clip-path="url(#clip810)" d="M2222.81 289.372 L2211.01 307.821 L2222.81 307.821 L2222.81 289.372 M2221.59 285.298 L2227.47 285.298 L2227.47 307.821 L2232.4 307.821 L2232.4 311.709 L2227.47 311.709 L2227.47 319.858 L2222.81 319.858 L2222.81 311.709 L2207.21 311.709 L2207.21 307.196 L2221.59 285.298 Z" fill="#000000" fill-rule="evenodd" fill-opacity="1" /><polyline clip-path="url(#clip810)" style="stroke:#ac8d18; stroke-linecap:butt; stroke-linejoin:round; stroke-width:4; stroke-opacity:1; fill:none" points="
  2009.75,354.418 2154.18,354.418 
  "/>
<path clip-path="url(#clip810)" d="M2192.1 374.105 Q2190.29 378.735 2188.58 380.147 Q2186.86 381.559 2183.99 381.559 L2180.59 381.559 L2180.59 377.994 L2183.09 377.994 Q2184.85 377.994 2185.82 377.16 Q2186.79 376.327 2187.97 373.225 L2188.74 371.281 L2178.25 345.772 L2182.77 345.772 L2190.87 366.049 L2198.97 345.772 L2203.48 345.772 L2192.1 374.105 Z" fill="#000000" fill-rule="evenodd" fill-opacity="1" /><path clip-path="url(#clip810)" d="M2210.01 337.138 L2228.37 337.138 L2228.37 341.073 L2214.29 341.073 L2214.29 349.545 Q2215.31 349.198 2216.33 349.036 Q2217.35 348.85 2218.37 348.85 Q2224.16 348.85 2227.53 352.022 Q2230.91 355.193 2230.91 360.61 Q2230.91 366.188 2227.44 369.29 Q2223.97 372.369 2217.65 372.369 Q2215.47 372.369 2213.21 371.998 Q2210.96 371.628 2208.55 370.887 L2208.55 366.188 Q2210.64 367.323 2212.86 367.878 Q2215.08 368.434 2217.56 368.434 Q2221.56 368.434 2223.9 366.327 Q2226.24 364.221 2226.24 360.61 Q2226.24 356.999 2223.9 354.892 Q2221.56 352.786 2217.56 352.786 Q2215.68 352.786 2213.81 353.202 Q2211.96 353.619 2210.01 354.499 L2210.01 337.138 Z" fill="#000000" fill-rule="evenodd" fill-opacity="1" /><polyline clip-path="url(#clip810)" style="stroke:#00a9ad; stroke-linecap:butt; stroke-linejoin:round; stroke-width:4; stroke-opacity:1; fill:none" points="
  2009.75,406.258 2154.18,406.258 
  "/>
<path clip-path="url(#clip810)" d="M2192.1 425.945 Q2190.29 430.575 2188.58 431.987 Q2186.86 433.399 2183.99 433.399 L2180.59 433.399 L2180.59 429.834 L2183.09 429.834 Q2184.85 429.834 2185.82 429 Q2186.79 428.167 2187.97 425.065 L2188.74 423.121 L2178.25 397.612 L2182.77 397.612 L2190.87 417.889 L2198.97 397.612 L2203.48 397.612 L2192.1 425.945 Z" fill="#000000" fill-rule="evenodd" fill-opacity="1" /><path clip-path="url(#clip810)" d="M2220.54 404.394 Q2217.4 404.394 2215.54 406.547 Q2213.72 408.7 2213.72 412.45 Q2213.72 416.176 2215.54 418.352 Q2217.4 420.505 2220.54 420.505 Q2223.69 420.505 2225.52 418.352 Q2227.37 416.176 2227.37 412.45 Q2227.37 408.7 2225.52 406.547 Q2223.69 404.394 2220.54 404.394 M2229.83 389.741 L2229.83 394.001 Q2228.07 393.167 2226.26 392.728 Q2224.48 392.288 2222.72 392.288 Q2218.09 392.288 2215.64 395.413 Q2213.21 398.538 2212.86 404.857 Q2214.22 402.843 2216.28 401.778 Q2218.34 400.69 2220.82 400.69 Q2226.03 400.69 2229.04 403.862 Q2232.07 407.01 2232.07 412.45 Q2232.07 417.774 2228.92 420.991 Q2225.78 424.209 2220.54 424.209 Q2214.55 424.209 2211.38 419.626 Q2208.21 415.019 2208.21 406.292 Q2208.21 398.098 2212.09 393.237 Q2215.98 388.353 2222.53 388.353 Q2224.29 388.353 2226.08 388.7 Q2227.88 389.047 2229.83 389.741 Z" fill="#000000" fill-rule="evenodd" fill-opacity="1" /><polyline clip-path="url(#clip810)" style="stroke:#ed5d92; stroke-linecap:butt; stroke-linejoin:round; stroke-width:4; stroke-opacity:1; fill:none" points="
  2009.75,458.098 2154.18,458.098 
  "/>
<path clip-path="url(#clip810)" d="M2192.1 477.785 Q2190.29 482.415 2188.58 483.827 Q2186.86 485.239 2183.99 485.239 L2180.59 485.239 L2180.59 481.674 L2183.09 481.674 Q2184.85 481.674 2185.82 480.84 Q2186.79 480.007 2187.97 476.905 L2188.74 474.961 L2178.25 449.452 L2182.77 449.452 L2190.87 469.729 L2198.97 449.452 L2203.48 449.452 L2192.1 477.785 Z" fill="#000000" fill-rule="evenodd" fill-opacity="1" /><path clip-path="url(#clip810)" d="M2208.78 440.818 L2231.01 440.818 L2231.01 442.808 L2218.46 475.378 L2213.58 475.378 L2225.38 444.753 L2208.78 444.753 L2208.78 440.818 Z" fill="#000000" fill-rule="evenodd" fill-opacity="1" /><polyline clip-path="url(#clip810)" style="stroke:#c68125; stroke-linecap:butt; stroke-linejoin:round; stroke-width:4; stroke-opacity:1; fill:none" points="
  2009.75,509.938 2154.18,509.938 
  "/>
<path clip-path="url(#clip810)" d="M2192.1 529.625 Q2190.29 534.255 2188.58 535.667 Q2186.86 537.079 2183.99 537.079 L2180.59 537.079 L2180.59 533.514 L2183.09 533.514 Q2184.85 533.514 2185.82 532.68 Q2186.79 531.847 2187.97 528.745 L2188.74 526.801 L2178.25 501.292 L2182.77 501.292 L2190.87 521.569 L2198.97 501.292 L2203.48 501.292 L2192.1 529.625 Z" fill="#000000" fill-rule="evenodd" fill-opacity="1" /><path clip-path="url(#clip810)" d="M2219.97 510.806 Q2216.63 510.806 2214.71 512.588 Q2212.81 514.37 2212.81 517.495 Q2212.81 520.62 2214.71 522.403 Q2216.63 524.185 2219.97 524.185 Q2223.3 524.185 2225.22 522.403 Q2227.14 520.597 2227.14 517.495 Q2227.14 514.37 2225.22 512.588 Q2223.32 510.806 2219.97 510.806 M2215.29 508.815 Q2212.28 508.074 2210.59 506.014 Q2208.92 503.954 2208.92 500.991 Q2208.92 496.847 2211.86 494.44 Q2214.83 492.033 2219.97 492.033 Q2225.13 492.033 2228.07 494.44 Q2231.01 496.847 2231.01 500.991 Q2231.01 503.954 2229.32 506.014 Q2227.65 508.074 2224.66 508.815 Q2228.04 509.602 2229.92 511.894 Q2231.82 514.185 2231.82 517.495 Q2231.82 522.519 2228.74 525.204 Q2225.68 527.889 2219.97 527.889 Q2214.25 527.889 2211.17 525.204 Q2208.11 522.519 2208.11 517.495 Q2208.11 514.185 2210.01 511.894 Q2211.91 509.602 2215.29 508.815 M2213.58 501.431 Q2213.58 504.116 2215.24 505.62 Q2216.93 507.125 2219.97 507.125 Q2222.97 507.125 2224.66 505.62 Q2226.38 504.116 2226.38 501.431 Q2226.38 498.745 2224.66 497.241 Q2222.97 495.736 2219.97 495.736 Q2216.93 495.736 2215.24 497.241 Q2213.58 498.745 2213.58 501.431 Z" fill="#000000" fill-rule="evenodd" fill-opacity="1" /><polyline clip-path="url(#clip810)" style="stroke:#00a98d; stroke-linecap:butt; stroke-linejoin:round; stroke-width:4; stroke-opacity:1; fill:none" points="
  2009.75,561.778 2154.18,561.778 
  "/>
<path clip-path="url(#clip810)" d="M2192.1 581.465 Q2190.29 586.095 2188.58 587.507 Q2186.86 588.919 2183.99 588.919 L2180.59 588.919 L2180.59 585.354 L2183.09 585.354 Q2184.85 585.354 2185.82 584.52 Q2186.79 583.687 2187.97 580.585 L2188.74 578.641 L2178.25 553.132 L2182.77 553.132 L2190.87 573.409 L2198.97 553.132 L2203.48 553.132 L2192.1 581.465 Z" fill="#000000" fill-rule="evenodd" fill-opacity="1" /><path clip-path="url(#clip810)" d="M2210.1 578.34 L2210.1 574.081 Q2211.86 574.914 2213.67 575.354 Q2215.47 575.794 2217.21 575.794 Q2221.84 575.794 2224.27 572.692 Q2226.72 569.567 2227.07 563.224 Q2225.73 565.215 2223.67 566.28 Q2221.61 567.345 2219.11 567.345 Q2213.92 567.345 2210.89 564.22 Q2207.88 561.072 2207.88 555.632 Q2207.88 550.308 2211.03 547.09 Q2214.18 543.873 2219.41 543.873 Q2225.41 543.873 2228.55 548.479 Q2231.72 553.062 2231.72 561.812 Q2231.72 569.984 2227.84 574.868 Q2223.97 579.729 2217.42 579.729 Q2215.66 579.729 2213.85 579.382 Q2212.05 579.034 2210.1 578.34 M2219.41 563.687 Q2222.56 563.687 2224.39 561.534 Q2226.24 559.382 2226.24 555.632 Q2226.24 551.905 2224.39 549.752 Q2222.56 547.576 2219.41 547.576 Q2216.26 547.576 2214.41 549.752 Q2212.58 551.905 2212.58 555.632 Q2212.58 559.382 2214.41 561.534 Q2216.26 563.687 2219.41 563.687 Z" fill="#000000" fill-rule="evenodd" fill-opacity="1" /></svg>
