<?xml version="1.0" encoding="utf-8"?>
<svg xmlns="http://www.w3.org/2000/svg" xmlns:xlink="http://www.w3.org/1999/xlink" width="600" height="400" viewBox="0 0 2400 1600">
<defs>
  <clipPath id="clip140">
    <rect x="0" y="0" width="2400" height="1600"/>
  </clipPath>
</defs>
<path clip-path="url(#clip140)" d="
M0 1600 L2400 1600 L2400 0 L0 0  Z
  " fill="#ffffff" fill-rule="evenodd" fill-opacity="1"/>
<defs>
  <clipPath id="clip141">
    <rect x="480" y="0" width="1681" height="1600"/>
  </clipPath>
</defs>
<defs>
  <clipPath id="clip142">
    <rect x="193" y="47" width="2160" height="1440"/>
  </clipPath>
</defs>
<path clip-path="url(#clip140)" d="
M189.233 1474.16 L2352.76 1474.16 L2352.76 47.2441 L189.233 47.2441  Z
  " fill="#ffffff" fill-rule="evenodd" fill-opacity="1"/>
<defs>
  <clipPath id="clip143">
    <rect x="189" y="47" width="2165" height="1428"/>
  </clipPath>
</defs>
<polyline clip-path="url(#clip143)" style="stroke:#000000; stroke-linecap:butt; stroke-linejoin:round; stroke-width:2; stroke-opacity:0.1; fill:none" points="
  260.441,1474.16 260.441,47.2441 
  "/>
<polyline clip-path="url(#clip143)" style="stroke:#000000; stroke-linecap:butt; stroke-linejoin:round; stroke-width:2; stroke-opacity:0.1; fill:none" points="
  1229.05,1474.16 1229.05,47.2441 
  "/>
<polyline clip-path="url(#clip143)" style="stroke:#000000; stroke-linecap:butt; stroke-linejoin:round; stroke-width:2; stroke-opacity:0.1; fill:none" points="
  2197.66,1474.16 2197.66,47.2441 
  "/>
<polyline clip-path="url(#clip140)" style="stroke:#000000; stroke-linecap:butt; stroke-linejoin:round; stroke-width:4; stroke-opacity:1; fill:none" points="
  189.233,1474.16 2352.76,1474.16 
  "/>
<polyline clip-path="url(#clip140)" style="stroke:#000000; stroke-linecap:butt; stroke-linejoin:round; stroke-width:4; stroke-opacity:1; fill:none" points="
  260.441,1474.16 260.441,1455.27 
  "/>
<polyline clip-path="url(#clip140)" style="stroke:#000000; stroke-linecap:butt; stroke-linejoin:round; stroke-width:4; stroke-opacity:1; fill:none" points="
  1229.05,1474.16 1229.05,1455.27 
  "/>
<polyline clip-path="url(#clip140)" style="stroke:#000000; stroke-linecap:butt; stroke-linejoin:round; stroke-width:4; stroke-opacity:1; fill:none" points="
  2197.66,1474.16 2197.66,1455.27 
  "/>
<path clip-path="url(#clip140)" d="M210.321 1548.29 L217.96 1548.29 L217.96 1521.92 L209.65 1523.59 L209.65 1519.33 L217.914 1517.66 L222.59 1517.66 L222.59 1548.29 L230.229 1548.29 L230.229 1552.22 L210.321 1552.22 L210.321 1548.29 Z" fill="#000000" fill-rule="evenodd" fill-opacity="1" /><path clip-path="url(#clip140)" d="M249.673 1520.74 Q246.062 1520.74 244.233 1524.31 Q242.428 1527.85 242.428 1534.98 Q242.428 1542.09 244.233 1545.65 Q246.062 1549.19 249.673 1549.19 Q253.307 1549.19 255.113 1545.65 Q256.941 1542.09 256.941 1534.98 Q256.941 1527.85 255.113 1524.31 Q253.307 1520.74 249.673 1520.74 M249.673 1517.04 Q255.483 1517.04 258.539 1521.65 Q261.617 1526.23 261.617 1534.98 Q261.617 1543.71 258.539 1548.31 Q255.483 1552.9 249.673 1552.9 Q243.863 1552.9 240.784 1548.31 Q237.728 1543.71 237.728 1534.98 Q237.728 1526.23 240.784 1521.65 Q243.863 1517.04 249.673 1517.04 Z" fill="#000000" fill-rule="evenodd" fill-opacity="1" /><path clip-path="url(#clip140)" d="M261.617 1511.14 L285.729 1511.14 L285.729 1514.34 L261.617 1514.34 L261.617 1511.14 Z" fill="#000000" fill-rule="evenodd" fill-opacity="1" /><path clip-path="url(#clip140)" d="M305.439 1509.67 Q308.166 1510.26 309.69 1512.1 Q311.232 1513.94 311.232 1516.65 Q311.232 1520.81 308.373 1523.08 Q305.515 1525.36 300.248 1525.36 Q298.48 1525.36 296.6 1525 Q294.738 1524.66 292.744 1523.97 L292.744 1520.3 Q294.324 1521.22 296.205 1521.69 Q298.085 1522.16 300.136 1522.16 Q303.709 1522.16 305.571 1520.75 Q307.452 1519.34 307.452 1516.65 Q307.452 1514.17 305.703 1512.78 Q303.972 1511.37 300.869 1511.37 L297.596 1511.37 L297.596 1508.24 L301.02 1508.24 Q303.822 1508.24 305.308 1507.13 Q306.793 1506.01 306.793 1503.9 Q306.793 1501.74 305.251 1500.59 Q303.728 1499.42 300.869 1499.42 Q299.308 1499.42 297.521 1499.76 Q295.735 1500.1 293.59 1500.82 L293.59 1497.43 Q295.753 1496.83 297.634 1496.53 Q299.534 1496.23 301.208 1496.23 Q305.533 1496.23 308.054 1498.2 Q310.574 1500.16 310.574 1503.51 Q310.574 1505.84 309.238 1507.45 Q307.903 1509.05 305.439 1509.67 Z" fill="#000000" fill-rule="evenodd" fill-opacity="1" /><path clip-path="url(#clip140)" d="M1179.31 1548.29 L1186.95 1548.29 L1186.95 1521.92 L1178.64 1523.59 L1178.64 1519.33 L1186.91 1517.66 L1191.58 1517.66 L1191.58 1548.29 L1199.22 1548.29 L1199.22 1552.22 L1179.31 1552.22 L1179.31 1548.29 Z" fill="#000000" fill-rule="evenodd" fill-opacity="1" /><path clip-path="url(#clip140)" d="M1218.67 1520.74 Q1215.05 1520.74 1213.23 1524.31 Q1211.42 1527.85 1211.42 1534.98 Q1211.42 1542.09 1213.23 1545.65 Q1215.05 1549.19 1218.67 1549.19 Q1222.3 1549.19 1224.11 1545.65 Q1225.93 1542.09 1225.93 1534.98 Q1225.93 1527.85 1224.11 1524.31 Q1222.3 1520.74 1218.67 1520.74 M1218.67 1517.04 Q1224.48 1517.04 1227.53 1521.65 Q1230.61 1526.23 1230.61 1534.98 Q1230.61 1543.71 1227.53 1548.31 Q1224.48 1552.9 1218.67 1552.9 Q1212.86 1552.9 1209.78 1548.31 Q1206.72 1543.71 1206.72 1534.98 Q1206.72 1526.23 1209.78 1521.65 Q1212.86 1517.04 1218.67 1517.04 Z" fill="#000000" fill-rule="evenodd" fill-opacity="1" /><path clip-path="url(#clip140)" d="M1230.61 1511.14 L1254.72 1511.14 L1254.72 1514.34 L1230.61 1514.34 L1230.61 1511.14 Z" fill="#000000" fill-rule="evenodd" fill-opacity="1" /><path clip-path="url(#clip140)" d="M1266.19 1521.62 L1279.45 1521.62 L1279.45 1524.81 L1261.62 1524.81 L1261.62 1521.62 Q1263.79 1519.38 1267.51 1515.62 Q1271.25 1511.84 1272.21 1510.75 Q1274.04 1508.7 1274.75 1507.29 Q1275.49 1505.86 1275.49 1504.48 Q1275.49 1502.24 1273.91 1500.83 Q1272.34 1499.42 1269.82 1499.42 Q1268.04 1499.42 1266.04 1500.04 Q1264.07 1500.67 1261.81 1501.93 L1261.81 1498.09 Q1264.11 1497.17 1266.1 1496.7 Q1268.09 1496.23 1269.75 1496.23 Q1274.11 1496.23 1276.71 1498.41 Q1279.3 1500.59 1279.3 1504.24 Q1279.3 1505.97 1278.65 1507.53 Q1278.01 1509.07 1276.29 1511.18 Q1275.82 1511.72 1273.3 1514.34 Q1270.78 1516.93 1266.19 1521.62 Z" fill="#000000" fill-rule="evenodd" fill-opacity="1" /><path clip-path="url(#clip140)" d="M2147.77 1548.29 L2155.41 1548.29 L2155.41 1521.92 L2147.1 1523.59 L2147.1 1519.33 L2155.36 1517.66 L2160.04 1517.66 L2160.04 1548.29 L2167.68 1548.29 L2167.68 1552.22 L2147.77 1552.22 L2147.77 1548.29 Z" fill="#000000" fill-rule="evenodd" fill-opacity="1" /><path clip-path="url(#clip140)" d="M2187.12 1520.74 Q2183.51 1520.74 2181.68 1524.31 Q2179.88 1527.85 2179.88 1534.98 Q2179.88 1542.09 2181.68 1545.65 Q2183.51 1549.19 2187.12 1549.19 Q2190.76 1549.19 2192.56 1545.65 Q2194.39 1542.09 2194.39 1534.98 Q2194.39 1527.85 2192.56 1524.31 Q2190.76 1520.74 2187.12 1520.74 M2187.12 1517.04 Q2192.93 1517.04 2195.99 1521.65 Q2199.07 1526.23 2199.07 1534.98 Q2199.07 1543.71 2195.99 1548.31 Q2192.93 1552.9 2187.12 1552.9 Q2181.31 1552.9 2178.23 1548.31 Q2175.18 1543.71 2175.18 1534.98 Q2175.18 1526.23 2178.23 1521.65 Q2181.31 1517.04 2187.12 1517.04 Z" fill="#000000" fill-rule="evenodd" fill-opacity="1" /><path clip-path="url(#clip140)" d="M2199.07 1511.14 L2223.18 1511.14 L2223.18 1514.34 L2199.07 1514.34 L2199.07 1511.14 Z" fill="#000000" fill-rule="evenodd" fill-opacity="1" /><path clip-path="url(#clip140)" d="M2232.04 1521.62 L2238.24 1521.62 L2238.24 1500.19 L2231.49 1501.55 L2231.49 1498.09 L2238.21 1496.73 L2242.01 1496.73 L2242.01 1521.62 L2248.21 1521.62 L2248.21 1524.81 L2232.04 1524.81 L2232.04 1521.62 Z" fill="#000000" fill-rule="evenodd" fill-opacity="1" /><polyline clip-path="url(#clip143)" style="stroke:#000000; stroke-linecap:butt; stroke-linejoin:round; stroke-width:2; stroke-opacity:0.1; fill:none" points="
  189.233,1428.51 2352.76,1428.51 
  "/>
<polyline clip-path="url(#clip143)" style="stroke:#000000; stroke-linecap:butt; stroke-linejoin:round; stroke-width:2; stroke-opacity:0.1; fill:none" points="
  189.233,660.805 2352.76,660.805 
  "/>
<polyline clip-path="url(#clip140)" style="stroke:#000000; stroke-linecap:butt; stroke-linejoin:round; stroke-width:4; stroke-opacity:1; fill:none" points="
  189.233,1474.16 189.233,47.2441 
  "/>
<polyline clip-path="url(#clip140)" style="stroke:#000000; stroke-linecap:butt; stroke-linejoin:round; stroke-width:4; stroke-opacity:1; fill:none" points="
  189.233,1428.51 208.13,1428.51 
  "/>
<polyline clip-path="url(#clip140)" style="stroke:#000000; stroke-linecap:butt; stroke-linejoin:round; stroke-width:4; stroke-opacity:1; fill:none" points="
  189.233,660.805 208.13,660.805 
  "/>
<path clip-path="url(#clip140)" d="M51.6634 1448.3 L59.3023 1448.3 L59.3023 1421.94 L50.9921 1423.6 L50.9921 1419.34 L59.256 1417.68 L63.9319 1417.68 L63.9319 1448.3 L71.5707 1448.3 L71.5707 1452.24 L51.6634 1452.24 L51.6634 1448.3 Z" fill="#000000" fill-rule="evenodd" fill-opacity="1" /><path clip-path="url(#clip140)" d="M91.0151 1420.75 Q87.404 1420.75 85.5753 1424.32 Q83.7697 1427.86 83.7697 1434.99 Q83.7697 1442.1 85.5753 1445.66 Q87.404 1449.2 91.0151 1449.2 Q94.6493 1449.2 96.4548 1445.66 Q98.2835 1442.1 98.2835 1434.99 Q98.2835 1427.86 96.4548 1424.32 Q94.6493 1420.75 91.0151 1420.75 M91.0151 1417.05 Q96.8252 1417.05 99.8808 1421.66 Q102.959 1426.24 102.959 1434.99 Q102.959 1443.72 99.8808 1448.32 Q96.8252 1452.91 91.0151 1452.91 Q85.2049 1452.91 82.1262 1448.32 Q79.0707 1443.72 79.0707 1434.99 Q79.0707 1426.24 82.1262 1421.66 Q85.2049 1417.05 91.0151 1417.05 Z" fill="#000000" fill-rule="evenodd" fill-opacity="1" /><path clip-path="url(#clip140)" d="M102.959 1411.15 L127.071 1411.15 L127.071 1414.35 L102.959 1414.35 L102.959 1411.15 Z" fill="#000000" fill-rule="evenodd" fill-opacity="1" /><path clip-path="url(#clip140)" d="M143.866 1409.27 Q141.308 1409.27 139.804 1411.02 Q138.318 1412.77 138.318 1415.82 Q138.318 1418.84 139.804 1420.61 Q141.308 1422.36 143.866 1422.36 Q146.424 1422.36 147.91 1420.61 Q149.415 1418.84 149.415 1415.82 Q149.415 1412.77 147.91 1411.02 Q146.424 1409.27 143.866 1409.27 M151.408 1397.37 L151.408 1400.83 Q149.979 1400.15 148.512 1399.79 Q147.064 1399.44 145.634 1399.44 Q141.873 1399.44 139.879 1401.97 Q137.904 1404.51 137.622 1409.65 Q138.732 1408.01 140.406 1407.15 Q142.08 1406.26 144.092 1406.26 Q148.324 1406.26 150.769 1408.84 Q153.233 1411.4 153.233 1415.82 Q153.233 1420.14 150.675 1422.76 Q148.117 1425.37 143.866 1425.37 Q138.995 1425.37 136.418 1421.65 Q133.842 1417.9 133.842 1410.81 Q133.842 1404.16 137.002 1400.21 Q140.161 1396.24 145.484 1396.24 Q146.913 1396.24 148.361 1396.52 Q149.828 1396.8 151.408 1397.37 Z" fill="#000000" fill-rule="evenodd" fill-opacity="1" /><path clip-path="url(#clip140)" d="M52.3217 680.598 L59.9605 680.598 L59.9605 654.232 L51.6504 655.899 L51.6504 651.639 L59.9142 649.973 L64.5901 649.973 L64.5901 680.598 L72.229 680.598 L72.229 684.533 L52.3217 684.533 L52.3217 680.598 Z" fill="#000000" fill-rule="evenodd" fill-opacity="1" /><path clip-path="url(#clip140)" d="M91.6733 653.051 Q88.0622 653.051 86.2335 656.616 Q84.428 660.158 84.428 667.287 Q84.428 674.394 86.2335 677.959 Q88.0622 681.5 91.6733 681.5 Q95.3076 681.5 97.1131 677.959 Q98.9418 674.394 98.9418 667.287 Q98.9418 660.158 97.1131 656.616 Q95.3076 653.051 91.6733 653.051 M91.6733 649.348 Q97.4835 649.348 100.539 653.954 Q103.618 658.537 103.618 667.287 Q103.618 676.014 100.539 680.621 Q97.4835 685.204 91.6733 685.204 Q85.8632 685.204 82.7845 680.621 Q79.729 676.014 79.729 667.287 Q79.729 658.537 82.7845 653.954 Q85.8632 649.348 91.6733 649.348 Z" fill="#000000" fill-rule="evenodd" fill-opacity="1" /><path clip-path="url(#clip140)" d="M103.618 643.449 L127.729 643.449 L127.729 646.646 L103.618 646.646 L103.618 643.449 Z" fill="#000000" fill-rule="evenodd" fill-opacity="1" /><path clip-path="url(#clip140)" d="M147.44 641.982 Q150.167 642.565 151.69 644.408 Q153.233 646.251 153.233 648.96 Q153.233 653.116 150.374 655.392 Q147.515 657.668 142.249 657.668 Q140.481 657.668 138.6 657.31 Q136.738 656.972 134.745 656.276 L134.745 652.608 Q136.324 653.53 138.205 654 Q140.086 654.47 142.136 654.47 Q145.71 654.47 147.571 653.06 Q149.452 651.649 149.452 648.96 Q149.452 646.477 147.703 645.085 Q145.973 643.675 142.87 643.675 L139.597 643.675 L139.597 640.553 L143.02 640.553 Q145.822 640.553 147.308 639.443 Q148.794 638.315 148.794 636.208 Q148.794 634.045 147.252 632.898 Q145.728 631.732 142.87 631.732 Q141.308 631.732 139.522 632.07 Q137.735 632.409 135.591 633.124 L135.591 629.738 Q137.754 629.136 139.635 628.835 Q141.534 628.534 143.208 628.534 Q147.534 628.534 150.054 630.509 Q152.574 632.465 152.574 635.813 Q152.574 638.145 151.239 639.763 Q149.904 641.361 147.44 641.982 Z" fill="#000000" fill-rule="evenodd" fill-opacity="1" /><polyline clip-path="url(#clip143)" style="stroke:#009af9; stroke-linecap:butt; stroke-linejoin:round; stroke-width:12; stroke-opacity:1; fill:none" points="
  2291.52,87.6286 1999.94,217.403 1708.36,329.079 1416.78,426.812 1125.2,515.367 833.624,598.516 542.044,678.706 250.464,757.344 
  "/>
<circle clip-path="url(#clip143)" cx="2291.52" cy="87.6286" r="14.4" fill="#009af9" fill-rule="evenodd" fill-opacity="1" stroke="#000000" stroke-opacity="1" stroke-width="3.2"/>
<circle clip-path="url(#clip143)" cx="1999.94" cy="217.403" r="14.4" fill="#009af9" fill-rule="evenodd" fill-opacity="1" stroke="#000000" stroke-opacity="1" stroke-width="3.2"/>
<circle clip-path="url(#clip143)" cx="1708.36" cy="329.079" r="14.4" fill="#009af9" fill-rule="evenodd" fill-opacity="1" stroke="#000000" stroke-opacity="1" stroke-width="3.2"/>
<circle clip-path="url(#clip143)" cx="1416.78" cy="426.812" r="14.4" fill="#009af9" fill-rule="evenodd" fill-opacity="1" stroke="#000000" stroke-opacity="1" stroke-width="3.2"/>
<circle clip-path="url(#clip143)" cx="1125.2" cy="515.367" r="14.4" fill="#009af9" fill-rule="evenodd" fill-opacity="1" stroke="#000000" stroke-opacity="1" stroke-width="3.2"/>
<circle clip-path="url(#clip143)" cx="833.624" cy="598.516" r="14.4" fill="#009af9" fill-rule="evenodd" fill-opacity="1" stroke="#000000" stroke-opacity="1" stroke-width="3.2"/>
<circle clip-path="url(#clip143)" cx="542.044" cy="678.706" r="14.4" fill="#009af9" fill-rule="evenodd" fill-opacity="1" stroke="#000000" stroke-opacity="1" stroke-width="3.2"/>
<circle clip-path="url(#clip143)" cx="250.464" cy="757.344" r="14.4" fill="#009af9" fill-rule="evenodd" fill-opacity="1" stroke="#000000" stroke-opacity="1" stroke-width="3.2"/>
<polyline clip-path="url(#clip143)" style="stroke:#e26f46; stroke-linecap:butt; stroke-linejoin:round; stroke-width:12; stroke-opacity:1; fill:none" points="
  2291.52,124.203 1999.94,201.237 1708.36,278.271 1416.78,355.305 1125.2,432.339 833.624,509.373 542.044,586.407 250.464,663.441 
  "/>
<polyline clip-path="url(#clip143)" style="stroke:#3da44d; stroke-linecap:butt; stroke-linejoin:round; stroke-width:12; stroke-opacity:1; fill:none" points="
  2291.52,355.305 1999.94,509.373 1708.36,663.441 1416.78,817.509 1125.2,971.577 833.624,1125.64 542.044,1279.71 250.464,1433.78 
  "/>
<path clip-path="url(#clip140)" d="
M261.35 302.168 L554.172 302.168 L554.172 94.8081 L261.35 94.8081  Z
  " fill="#ffffff" fill-rule="evenodd" fill-opacity="1"/>
<polyline clip-path="url(#clip140)" style="stroke:#000000; stroke-linecap:butt; stroke-linejoin:round; stroke-width:4; stroke-opacity:1; fill:none" points="
  261.35,302.168 554.172,302.168 554.172,94.8081 261.35,94.8081 261.35,302.168 
  "/>
<polyline clip-path="url(#clip140)" style="stroke:#009af9; stroke-linecap:butt; stroke-linejoin:round; stroke-width:4; stroke-opacity:1; fill:none" points="
  285.389,146.648 429.624,146.648 
  "/>
<circle clip-path="url(#clip140)" cx="357.507" cy="146.648" r="23.04" fill="#009af9" fill-rule="evenodd" fill-opacity="1" stroke="#000000" stroke-opacity="1" stroke-width="5.12"/>
<path clip-path="url(#clip140)" d="M467.506 166.336 Q465.7 170.965 463.987 172.377 Q462.274 173.789 459.404 173.789 L456.001 173.789 L456.001 170.224 L458.501 170.224 Q460.26 170.224 461.233 169.391 Q462.205 168.558 463.385 165.456 L464.149 163.511 L453.663 138.002 L458.177 138.002 L466.279 158.28 L474.381 138.002 L478.895 138.002 L467.506 166.336 Z" fill="#000000" fill-rule="evenodd" fill-opacity="1" /><path clip-path="url(#clip140)" d="M486.186 159.993 L493.825 159.993 L493.825 133.627 L485.515 135.294 L485.515 131.035 L493.779 129.368 L498.455 129.368 L498.455 159.993 L506.094 159.993 L506.094 163.928 L486.186 163.928 L486.186 159.993 Z" fill="#000000" fill-rule="evenodd" fill-opacity="1" /><polyline clip-path="url(#clip140)" style="stroke:#e26f46; stroke-linecap:butt; stroke-linejoin:round; stroke-width:4; stroke-opacity:1; fill:none" points="
  285.389,198.488 429.624,198.488 
  "/>
<path clip-path="url(#clip140)" d="M477.203 207.836 Q477.203 208.024 476.992 208.75 Q476.781 209.476 476.266 210.6 Q475.774 211.724 475.095 212.755 Q474.416 213.762 473.291 214.512 Q472.19 215.238 470.926 215.238 Q469.239 215.238 468.115 214.113 Q466.991 212.989 466.991 211.303 Q466.991 211.069 467.014 210.834 Q467.037 210.6 467.061 210.46 Q467.084 210.296 467.155 210.038 Q467.248 209.757 467.272 209.64 Q467.319 209.523 467.436 209.171 Q467.576 208.797 467.623 208.656 Q470.598 201.067 470.598 197.905 Q470.598 194.556 467.998 194.556 Q465.679 194.556 463.384 196.242 Q462.33 197.085 461.322 198.584 Q460.315 200.083 460.128 200.646 Q459.917 201.864 459.613 202.8 Q459.472 203.456 458.793 206.009 L457.739 210.342 L456.825 213.973 Q456.638 214.488 456.123 214.863 Q455.607 215.238 455.045 215.238 Q454.577 215.238 454.108 214.91 Q453.663 214.605 453.663 213.879 Q453.663 213.505 453.851 212.825 L460.807 185.187 L460.948 184.25 Q460.948 183.969 460.831 183.828 Q460.737 183.664 460.175 183.547 Q459.636 183.43 458.559 183.43 Q458.113 183.43 457.903 183.407 Q457.715 183.383 457.551 183.266 Q457.387 183.126 457.387 182.845 Q457.387 182.446 457.551 182.236 Q457.739 182.001 457.879 181.954 Q458.02 181.908 458.301 181.884 Q458.699 181.861 460.034 181.744 Q461.369 181.603 462.517 181.509 Q463.665 181.416 464.156 181.416 Q464.438 181.416 464.578 181.556 Q464.742 181.673 464.765 181.814 L464.789 181.931 L461.041 197.179 Q464.016 193.502 468.138 193.502 Q470.808 193.502 472.237 194.884 Q473.666 196.242 473.666 198.631 Q473.666 201.372 470.738 209.171 Q469.872 211.35 469.872 212.591 Q469.872 213.411 470.129 213.786 Q470.41 214.16 471.019 214.16 Q471.956 214.16 472.776 213.622 Q473.619 213.059 474.205 212.146 Q474.79 211.209 475.188 210.272 Q475.61 209.312 475.915 208.234 Q476.102 207.649 476.196 207.508 Q476.313 207.368 476.641 207.368 Q477.203 207.368 477.203 207.836 Z" fill="#000000" fill-rule="evenodd" fill-opacity="1" /><polyline clip-path="url(#clip140)" style="stroke:#3da44d; stroke-linecap:butt; stroke-linejoin:round; stroke-width:4; stroke-opacity:1; fill:none" points="
  285.389,250.328 429.624,250.328 
  "/>
<path clip-path="url(#clip140)" d="M477.203 267.428 Q477.203 267.616 476.992 268.342 Q476.781 269.068 476.266 270.192 Q475.774 271.316 475.095 272.347 Q474.416 273.354 473.291 274.104 Q472.19 274.83 470.926 274.83 Q469.239 274.83 468.115 273.705 Q466.991 272.581 466.991 270.895 Q466.991 270.661 467.014 270.426 Q467.037 270.192 467.061 270.052 Q467.084 269.888 467.155 269.63 Q467.248 269.349 467.272 269.232 Q467.319 269.115 467.436 268.763 Q467.576 268.389 467.623 268.248 Q470.598 260.659 470.598 257.497 Q470.598 254.148 467.998 254.148 Q465.679 254.148 463.384 255.834 Q462.33 256.677 461.322 258.176 Q460.315 259.675 460.128 260.238 Q459.917 261.456 459.613 262.392 Q459.472 263.048 458.793 265.601 L457.739 269.934 L456.825 273.565 Q456.638 274.08 456.123 274.455 Q455.607 274.83 455.045 274.83 Q454.577 274.83 454.108 274.502 Q453.663 274.197 453.663 273.471 Q453.663 273.096 453.851 272.417 L460.807 244.779 L460.948 243.842 Q460.948 243.561 460.831 243.42 Q460.737 243.256 460.175 243.139 Q459.636 243.022 458.559 243.022 Q458.113 243.022 457.903 242.999 Q457.715 242.975 457.551 242.858 Q457.387 242.718 457.387 242.436 Q457.387 242.038 457.551 241.827 Q457.739 241.593 457.879 241.546 Q458.02 241.5 458.301 241.476 Q458.699 241.453 460.034 241.336 Q461.369 241.195 462.517 241.101 Q463.665 241.008 464.156 241.008 Q464.438 241.008 464.578 241.148 Q464.742 241.265 464.765 241.406 L464.789 241.523 L461.041 256.771 Q464.016 253.094 468.138 253.094 Q470.808 253.094 472.237 254.476 Q473.666 255.834 473.666 258.223 Q473.666 260.964 470.738 268.763 Q469.872 270.942 469.872 272.183 Q469.872 273.003 470.129 273.378 Q470.41 273.752 471.019 273.752 Q471.956 273.752 472.776 273.214 Q473.619 272.651 474.205 271.738 Q474.79 270.801 475.188 269.864 Q475.61 268.904 475.915 267.826 Q476.102 267.241 476.196 267.1 Q476.313 266.96 476.641 266.96 Q477.203 266.96 477.203 267.428 Z" fill="#000000" fill-rule="evenodd" fill-opacity="1" /><path clip-path="url(#clip140)" d="M482.08 247.982 Q482.08 247.376 482.129 247.195 Q482.195 247.015 482.457 246.736 L488.901 239.555 Q492.426 235.587 492.426 232.128 Q492.426 229.882 491.245 228.275 Q490.081 226.668 487.933 226.668 Q486.458 226.668 485.212 227.57 Q483.966 228.472 483.392 230.078 Q483.49 230.046 483.834 230.046 Q484.671 230.046 485.13 230.57 Q485.605 231.095 485.605 231.8 Q485.605 232.702 485.015 233.144 Q484.441 233.571 483.867 233.571 Q483.638 233.571 483.326 233.521 Q483.031 233.472 482.556 233.013 Q482.08 232.538 482.08 231.701 Q482.08 229.357 483.851 227.488 Q485.638 225.619 488.36 225.619 Q491.442 225.619 493.459 227.455 Q495.492 229.275 495.492 232.128 Q495.492 233.128 495.18 234.046 Q494.885 234.948 494.475 235.653 Q494.082 236.358 493 237.489 Q491.918 238.62 491.049 239.424 Q490.18 240.227 488.229 241.932 L484.671 245.392 L490.721 245.392 Q493.672 245.392 493.901 245.13 Q494.229 244.654 494.639 242.146 L495.492 242.146 L494.541 247.982 L482.08 247.982 Z" fill="#000000" fill-rule="evenodd" fill-opacity="1" /></svg>
