<?xml version="1.0" encoding="utf-8"?>
<svg xmlns="http://www.w3.org/2000/svg" xmlns:xlink="http://www.w3.org/1999/xlink" width="600" height="400" viewBox="0 0 2400 1600">
<defs>
  <clipPath id="clip570">
    <rect x="0" y="0" width="2400" height="1600"/>
  </clipPath>
</defs>
<path clip-path="url(#clip570)" d="
M0 1600 L2400 1600 L2400 0 L0 0  Z
  " fill="#ffffff" fill-rule="evenodd" fill-opacity="1"/>
<defs>
  <clipPath id="clip571">
    <rect x="480" y="0" width="1681" height="1600"/>
  </clipPath>
</defs>
<path clip-path="url(#clip570)" d="
M193.936 1486.45 L2352.76 1486.45 L2352.76 123.472 L193.936 123.472  Z
  " fill="#ffffff" fill-rule="evenodd" fill-opacity="1"/>
<defs>
  <clipPath id="clip572">
    <rect x="193" y="123" width="2160" height="1364"/>
  </clipPath>
</defs>
<polyline clip-path="url(#clip572)" style="stroke:#000000; stroke-linecap:butt; stroke-linejoin:round; stroke-width:2; stroke-opacity:0.1; fill:none" points="
  255.035,1486.45 255.035,123.472 
  "/>
<polyline clip-path="url(#clip572)" style="stroke:#000000; stroke-linecap:butt; stroke-linejoin:round; stroke-width:2; stroke-opacity:0.1; fill:none" points="
  764.19,1486.45 764.19,123.472 
  "/>
<polyline clip-path="url(#clip572)" style="stroke:#000000; stroke-linecap:butt; stroke-linejoin:round; stroke-width:2; stroke-opacity:0.1; fill:none" points="
  1273.35,1486.45 1273.35,123.472 
  "/>
<polyline clip-path="url(#clip572)" style="stroke:#000000; stroke-linecap:butt; stroke-linejoin:round; stroke-width:2; stroke-opacity:0.1; fill:none" points="
  1782.5,1486.45 1782.5,123.472 
  "/>
<polyline clip-path="url(#clip572)" style="stroke:#000000; stroke-linecap:butt; stroke-linejoin:round; stroke-width:2; stroke-opacity:0.1; fill:none" points="
  2291.66,1486.45 2291.66,123.472 
  "/>
<polyline clip-path="url(#clip570)" style="stroke:#000000; stroke-linecap:butt; stroke-linejoin:round; stroke-width:4; stroke-opacity:1; fill:none" points="
  193.936,1486.45 2352.76,1486.45 
  "/>
<polyline clip-path="url(#clip570)" style="stroke:#000000; stroke-linecap:butt; stroke-linejoin:round; stroke-width:4; stroke-opacity:1; fill:none" points="
  255.035,1486.45 255.035,1467.55 
  "/>
<polyline clip-path="url(#clip570)" style="stroke:#000000; stroke-linecap:butt; stroke-linejoin:round; stroke-width:4; stroke-opacity:1; fill:none" points="
  764.19,1486.45 764.19,1467.55 
  "/>
<polyline clip-path="url(#clip570)" style="stroke:#000000; stroke-linecap:butt; stroke-linejoin:round; stroke-width:4; stroke-opacity:1; fill:none" points="
  1273.35,1486.45 1273.35,1467.55 
  "/>
<polyline clip-path="url(#clip570)" style="stroke:#000000; stroke-linecap:butt; stroke-linejoin:round; stroke-width:4; stroke-opacity:1; fill:none" points="
  1782.5,1486.45 1782.5,1467.55 
  "/>
<polyline clip-path="url(#clip570)" style="stroke:#000000; stroke-linecap:butt; stroke-linejoin:round; stroke-width:4; stroke-opacity:1; fill:none" points="
  2291.66,1486.45 2291.66,1467.55 
  "/>
<path clip-path="url(#clip570)" d="M201.563 1532.02 L231.239 1532.02 L231.239 1535.95 L201.563 1535.95 L201.563 1532.02 Z" fill="#000000" fill-rule="evenodd" fill-opacity="1" /><path clip-path="url(#clip570)" d="M242.141 1544.91 L249.78 1544.91 L249.78 1518.55 L241.47 1520.21 L241.47 1515.95 L249.734 1514.29 L254.41 1514.29 L254.41 1544.91 L262.049 1544.91 L262.049 1548.85 L242.141 1548.85 L242.141 1544.91 Z" fill="#000000" fill-rule="evenodd" fill-opacity="1" /><path clip-path="url(#clip570)" d="M271.493 1542.97 L276.377 1542.97 L276.377 1548.85 L271.493 1548.85 L271.493 1542.97 Z" fill="#000000" fill-rule="evenodd" fill-opacity="1" /><path clip-path="url(#clip570)" d="M296.562 1517.37 Q292.951 1517.37 291.122 1520.93 Q289.317 1524.47 289.317 1531.6 Q289.317 1538.71 291.122 1542.27 Q292.951 1545.82 296.562 1545.82 Q300.196 1545.82 302.002 1542.27 Q303.831 1538.71 303.831 1531.6 Q303.831 1524.47 302.002 1520.93 Q300.196 1517.37 296.562 1517.37 M296.562 1513.66 Q302.372 1513.66 305.428 1518.27 Q308.507 1522.85 308.507 1531.6 Q308.507 1540.33 305.428 1544.94 Q302.372 1549.52 296.562 1549.52 Q290.752 1549.52 287.673 1544.94 Q284.618 1540.33 284.618 1531.6 Q284.618 1522.85 287.673 1518.27 Q290.752 1513.66 296.562 1513.66 Z" fill="#000000" fill-rule="evenodd" fill-opacity="1" /><path clip-path="url(#clip570)" d="M711.216 1532.02 L740.892 1532.02 L740.892 1535.95 L711.216 1535.95 L711.216 1532.02 Z" fill="#000000" fill-rule="evenodd" fill-opacity="1" /><path clip-path="url(#clip570)" d="M760.984 1517.37 Q757.373 1517.37 755.545 1520.93 Q753.739 1524.47 753.739 1531.6 Q753.739 1538.71 755.545 1542.27 Q757.373 1545.82 760.984 1545.82 Q764.619 1545.82 766.424 1542.27 Q768.253 1538.71 768.253 1531.6 Q768.253 1524.47 766.424 1520.93 Q764.619 1517.37 760.984 1517.37 M760.984 1513.66 Q766.794 1513.66 769.85 1518.27 Q772.929 1522.85 772.929 1531.6 Q772.929 1540.33 769.85 1544.94 Q766.794 1549.52 760.984 1549.52 Q755.174 1549.52 752.095 1544.94 Q749.04 1540.33 749.04 1531.6 Q749.04 1522.85 752.095 1518.27 Q755.174 1513.66 760.984 1513.66 Z" fill="#000000" fill-rule="evenodd" fill-opacity="1" /><path clip-path="url(#clip570)" d="M781.146 1542.97 L786.03 1542.97 L786.03 1548.85 L781.146 1548.85 L781.146 1542.97 Z" fill="#000000" fill-rule="evenodd" fill-opacity="1" /><path clip-path="url(#clip570)" d="M796.262 1514.29 L814.618 1514.29 L814.618 1518.22 L800.544 1518.22 L800.544 1526.7 Q801.563 1526.35 802.581 1526.19 Q803.6 1526 804.618 1526 Q810.405 1526 813.785 1529.17 Q817.165 1532.34 817.165 1537.76 Q817.165 1543.34 813.692 1546.44 Q810.22 1549.52 803.901 1549.52 Q801.725 1549.52 799.456 1549.15 Q797.211 1548.78 794.804 1548.04 L794.804 1543.34 Q796.887 1544.47 799.109 1545.03 Q801.331 1545.58 803.808 1545.58 Q807.813 1545.58 810.151 1543.48 Q812.489 1541.37 812.489 1537.76 Q812.489 1534.15 810.151 1532.04 Q807.813 1529.94 803.808 1529.94 Q801.933 1529.94 800.058 1530.35 Q798.206 1530.77 796.262 1531.65 L796.262 1514.29 Z" fill="#000000" fill-rule="evenodd" fill-opacity="1" /><path clip-path="url(#clip570)" d="M1250.73 1517.37 Q1247.12 1517.37 1245.29 1520.93 Q1243.49 1524.47 1243.49 1531.6 Q1243.49 1538.71 1245.29 1542.27 Q1247.12 1545.82 1250.73 1545.82 Q1254.36 1545.82 1256.17 1542.27 Q1258 1538.71 1258 1531.6 Q1258 1524.47 1256.17 1520.93 Q1254.36 1517.37 1250.73 1517.37 M1250.73 1513.66 Q1256.54 1513.66 1259.6 1518.27 Q1262.67 1522.85 1262.67 1531.6 Q1262.67 1540.33 1259.6 1544.94 Q1256.54 1549.52 1250.73 1549.52 Q1244.92 1549.52 1241.84 1544.94 Q1238.79 1540.33 1238.79 1531.6 Q1238.79 1522.85 1241.84 1518.27 Q1244.92 1513.66 1250.73 1513.66 Z" fill="#000000" fill-rule="evenodd" fill-opacity="1" /><path clip-path="url(#clip570)" d="M1270.89 1542.97 L1275.78 1542.97 L1275.78 1548.85 L1270.89 1548.85 L1270.89 1542.97 Z" fill="#000000" fill-rule="evenodd" fill-opacity="1" /><path clip-path="url(#clip570)" d="M1295.96 1517.37 Q1292.35 1517.37 1290.52 1520.93 Q1288.72 1524.47 1288.72 1531.6 Q1288.72 1538.71 1290.52 1542.27 Q1292.35 1545.82 1295.96 1545.82 Q1299.6 1545.82 1301.4 1542.27 Q1303.23 1538.71 1303.23 1531.6 Q1303.23 1524.47 1301.4 1520.93 Q1299.6 1517.37 1295.96 1517.37 M1295.96 1513.66 Q1301.77 1513.66 1304.83 1518.27 Q1307.91 1522.85 1307.91 1531.6 Q1307.91 1540.33 1304.83 1544.94 Q1301.77 1549.52 1295.96 1549.52 Q1290.15 1549.52 1287.07 1544.94 Q1284.02 1540.33 1284.02 1531.6 Q1284.02 1522.85 1287.07 1518.27 Q1290.15 1513.66 1295.96 1513.66 Z" fill="#000000" fill-rule="evenodd" fill-opacity="1" /><path clip-path="url(#clip570)" d="M1760.38 1517.37 Q1756.77 1517.37 1754.94 1520.93 Q1753.14 1524.47 1753.14 1531.6 Q1753.14 1538.71 1754.94 1542.27 Q1756.77 1545.82 1760.38 1545.82 Q1764.02 1545.82 1765.82 1542.27 Q1767.65 1538.71 1767.65 1531.6 Q1767.65 1524.47 1765.82 1520.93 Q1764.02 1517.37 1760.38 1517.37 M1760.38 1513.66 Q1766.19 1513.66 1769.25 1518.27 Q1772.33 1522.85 1772.33 1531.6 Q1772.33 1540.33 1769.25 1544.94 Q1766.19 1549.52 1760.38 1549.52 Q1754.57 1549.52 1751.49 1544.94 Q1748.44 1540.33 1748.44 1531.6 Q1748.44 1522.85 1751.49 1518.27 Q1754.57 1513.66 1760.38 1513.66 Z" fill="#000000" fill-rule="evenodd" fill-opacity="1" /><path clip-path="url(#clip570)" d="M1780.55 1542.97 L1785.43 1542.97 L1785.43 1548.85 L1780.55 1548.85 L1780.55 1542.97 Z" fill="#000000" fill-rule="evenodd" fill-opacity="1" /><path clip-path="url(#clip570)" d="M1795.66 1514.29 L1814.02 1514.29 L1814.02 1518.22 L1799.94 1518.22 L1799.94 1526.7 Q1800.96 1526.35 1801.98 1526.19 Q1803 1526 1804.02 1526 Q1809.8 1526 1813.18 1529.17 Q1816.56 1532.34 1816.56 1537.76 Q1816.56 1543.34 1813.09 1546.44 Q1809.62 1549.52 1803.3 1549.52 Q1801.12 1549.52 1798.86 1549.15 Q1796.61 1548.78 1794.2 1548.04 L1794.2 1543.34 Q1796.29 1544.47 1798.51 1545.03 Q1800.73 1545.58 1803.21 1545.58 Q1807.21 1545.58 1809.55 1543.48 Q1811.89 1541.37 1811.89 1537.76 Q1811.89 1534.15 1809.55 1532.04 Q1807.21 1529.94 1803.21 1529.94 Q1801.33 1529.94 1799.46 1530.35 Q1797.61 1530.77 1795.66 1531.65 L1795.66 1514.29 Z" fill="#000000" fill-rule="evenodd" fill-opacity="1" /><path clip-path="url(#clip570)" d="M2258.81 1544.91 L2266.45 1544.91 L2266.45 1518.55 L2258.14 1520.21 L2258.14 1515.95 L2266.4 1514.29 L2271.08 1514.29 L2271.08 1544.91 L2278.72 1544.91 L2278.72 1548.85 L2258.81 1548.85 L2258.81 1544.91 Z" fill="#000000" fill-rule="evenodd" fill-opacity="1" /><path clip-path="url(#clip570)" d="M2288.16 1542.97 L2293.05 1542.97 L2293.05 1548.85 L2288.16 1548.85 L2288.16 1542.97 Z" fill="#000000" fill-rule="evenodd" fill-opacity="1" /><path clip-path="url(#clip570)" d="M2313.23 1517.37 Q2309.62 1517.37 2307.79 1520.93 Q2305.99 1524.47 2305.99 1531.6 Q2305.99 1538.71 2307.79 1542.27 Q2309.62 1545.82 2313.23 1545.82 Q2316.87 1545.82 2318.67 1542.27 Q2320.5 1538.71 2320.5 1531.6 Q2320.5 1524.47 2318.67 1520.93 Q2316.87 1517.37 2313.23 1517.37 M2313.23 1513.66 Q2319.04 1513.66 2322.1 1518.27 Q2325.18 1522.85 2325.18 1531.6 Q2325.18 1540.33 2322.1 1544.94 Q2319.04 1549.52 2313.23 1549.52 Q2307.42 1549.52 2304.34 1544.94 Q2301.29 1540.33 2301.29 1531.6 Q2301.29 1522.85 2304.34 1518.27 Q2307.42 1513.66 2313.23 1513.66 Z" fill="#000000" fill-rule="evenodd" fill-opacity="1" /><polyline clip-path="url(#clip572)" style="stroke:#000000; stroke-linecap:butt; stroke-linejoin:round; stroke-width:2; stroke-opacity:0.1; fill:none" points="
  193.936,1294.77 2352.76,1294.77 
  "/>
<polyline clip-path="url(#clip572)" style="stroke:#000000; stroke-linecap:butt; stroke-linejoin:round; stroke-width:2; stroke-opacity:0.1; fill:none" points="
  193.936,1040.71 2352.76,1040.71 
  "/>
<polyline clip-path="url(#clip572)" style="stroke:#000000; stroke-linecap:butt; stroke-linejoin:round; stroke-width:2; stroke-opacity:0.1; fill:none" points="
  193.936,786.644 2352.76,786.644 
  "/>
<polyline clip-path="url(#clip572)" style="stroke:#000000; stroke-linecap:butt; stroke-linejoin:round; stroke-width:2; stroke-opacity:0.1; fill:none" points="
  193.936,532.58 2352.76,532.58 
  "/>
<polyline clip-path="url(#clip572)" style="stroke:#000000; stroke-linecap:butt; stroke-linejoin:round; stroke-width:2; stroke-opacity:0.1; fill:none" points="
  193.936,278.517 2352.76,278.517 
  "/>
<polyline clip-path="url(#clip570)" style="stroke:#000000; stroke-linecap:butt; stroke-linejoin:round; stroke-width:4; stroke-opacity:1; fill:none" points="
  193.936,1486.45 193.936,123.472 
  "/>
<polyline clip-path="url(#clip570)" style="stroke:#000000; stroke-linecap:butt; stroke-linejoin:round; stroke-width:4; stroke-opacity:1; fill:none" points="
  193.936,1294.77 212.834,1294.77 
  "/>
<polyline clip-path="url(#clip570)" style="stroke:#000000; stroke-linecap:butt; stroke-linejoin:round; stroke-width:4; stroke-opacity:1; fill:none" points="
  193.936,1040.71 212.834,1040.71 
  "/>
<polyline clip-path="url(#clip570)" style="stroke:#000000; stroke-linecap:butt; stroke-linejoin:round; stroke-width:4; stroke-opacity:1; fill:none" points="
  193.936,786.644 212.834,786.644 
  "/>
<polyline clip-path="url(#clip570)" style="stroke:#000000; stroke-linecap:butt; stroke-linejoin:round; stroke-width:4; stroke-opacity:1; fill:none" points="
  193.936,532.58 212.834,532.58 
  "/>
<polyline clip-path="url(#clip570)" style="stroke:#000000; stroke-linecap:butt; stroke-linejoin:round; stroke-width:4; stroke-opacity:1; fill:none" points="
  193.936,278.517 212.834,278.517 
  "/>
<path clip-path="url(#clip570)" d="M50.9921 1295.22 L80.6679 1295.22 L80.6679 1299.16 L50.9921 1299.16 L50.9921 1295.22 Z" fill="#000000" fill-rule="evenodd" fill-opacity="1" /><path clip-path="url(#clip570)" d="M90.8067 1277.49 L109.163 1277.49 L109.163 1281.43 L95.0891 1281.43 L95.0891 1289.9 Q96.1076 1289.55 97.1261 1289.39 Q98.1447 1289.2 99.1632 1289.2 Q104.95 1289.2 108.33 1292.37 Q111.709 1295.55 111.709 1300.96 Q111.709 1306.54 108.237 1309.64 Q104.765 1312.72 98.4456 1312.72 Q96.2697 1312.72 94.0012 1312.35 Q91.7558 1311.98 89.3484 1311.24 L89.3484 1306.54 Q91.4317 1307.67 93.6539 1308.23 Q95.8761 1308.79 98.353 1308.79 Q102.358 1308.79 104.696 1306.68 Q107.033 1304.57 107.033 1300.96 Q107.033 1297.35 104.696 1295.24 Q102.358 1293.14 98.353 1293.14 Q96.478 1293.14 94.603 1293.55 Q92.7512 1293.97 90.8067 1294.85 L90.8067 1277.49 Z" fill="#000000" fill-rule="evenodd" fill-opacity="1" /><path clip-path="url(#clip570)" d="M120.922 1306.17 L125.807 1306.17 L125.807 1312.05 L120.922 1312.05 L120.922 1306.17 Z" fill="#000000" fill-rule="evenodd" fill-opacity="1" /><path clip-path="url(#clip570)" d="M145.992 1280.57 Q142.381 1280.57 140.552 1284.13 Q138.746 1287.68 138.746 1294.8 Q138.746 1301.91 140.552 1305.48 Q142.381 1309.02 145.992 1309.02 Q149.626 1309.02 151.431 1305.48 Q153.26 1301.91 153.26 1294.8 Q153.26 1287.68 151.431 1284.13 Q149.626 1280.57 145.992 1280.57 M145.992 1276.86 Q151.802 1276.86 154.857 1281.47 Q157.936 1286.05 157.936 1294.8 Q157.936 1303.53 154.857 1308.14 Q151.802 1312.72 145.992 1312.72 Q140.181 1312.72 137.103 1308.14 Q134.047 1303.53 134.047 1294.8 Q134.047 1286.05 137.103 1281.47 Q140.181 1276.86 145.992 1276.86 Z" fill="#000000" fill-rule="evenodd" fill-opacity="1" /><path clip-path="url(#clip570)" d="M51.9875 1041.16 L81.6633 1041.16 L81.6633 1045.09 L51.9875 1045.09 L51.9875 1041.16 Z" fill="#000000" fill-rule="evenodd" fill-opacity="1" /><path clip-path="url(#clip570)" d="M95.7836 1054.05 L112.103 1054.05 L112.103 1057.99 L90.1586 1057.99 L90.1586 1054.05 Q92.8206 1051.3 97.4039 1046.67 Q102.01 1042.01 103.191 1040.67 Q105.436 1038.15 106.316 1036.41 Q107.219 1034.65 107.219 1032.96 Q107.219 1030.21 105.274 1028.47 Q103.353 1026.74 100.251 1026.74 Q98.0521 1026.74 95.5984 1027.5 Q93.1678 1028.26 90.3901 1029.82 L90.3901 1025.09 Q93.2141 1023.96 95.6678 1023.38 Q98.1215 1022.8 100.159 1022.8 Q105.529 1022.8 108.723 1025.49 Q111.918 1028.17 111.918 1032.66 Q111.918 1034.79 111.108 1036.71 Q110.321 1038.61 108.214 1041.2 Q107.635 1041.88 104.534 1045.09 Q101.432 1048.29 95.7836 1054.05 Z" fill="#000000" fill-rule="evenodd" fill-opacity="1" /><path clip-path="url(#clip570)" d="M121.918 1052.11 L126.802 1052.11 L126.802 1057.99 L121.918 1057.99 L121.918 1052.11 Z" fill="#000000" fill-rule="evenodd" fill-opacity="1" /><path clip-path="url(#clip570)" d="M137.033 1023.43 L155.39 1023.43 L155.39 1027.36 L141.316 1027.36 L141.316 1035.83 Q142.334 1035.49 143.353 1035.32 Q144.371 1035.14 145.39 1035.14 Q151.177 1035.14 154.556 1038.31 Q157.936 1041.48 157.936 1046.9 Q157.936 1052.48 154.464 1055.58 Q150.992 1058.66 144.672 1058.66 Q142.496 1058.66 140.228 1058.29 Q137.982 1057.92 135.575 1057.18 L135.575 1052.48 Q137.658 1053.61 139.881 1054.17 Q142.103 1054.72 144.58 1054.72 Q148.584 1054.72 150.922 1052.62 Q153.26 1050.51 153.26 1046.9 Q153.26 1043.29 150.922 1041.18 Q148.584 1039.07 144.58 1039.07 Q142.705 1039.07 140.83 1039.49 Q138.978 1039.91 137.033 1040.79 L137.033 1023.43 Z" fill="#000000" fill-rule="evenodd" fill-opacity="1" /><path clip-path="url(#clip570)" d="M100.76 772.442 Q97.1493 772.442 95.3206 776.007 Q93.515 779.549 93.515 786.678 Q93.515 793.785 95.3206 797.35 Q97.1493 800.891 100.76 800.891 Q104.395 800.891 106.2 797.35 Q108.029 793.785 108.029 786.678 Q108.029 779.549 106.2 776.007 Q104.395 772.442 100.76 772.442 M100.76 768.739 Q106.571 768.739 109.626 773.345 Q112.705 777.928 112.705 786.678 Q112.705 795.405 109.626 800.012 Q106.571 804.595 100.76 804.595 Q94.9502 804.595 91.8715 800.012 Q88.816 795.405 88.816 786.678 Q88.816 777.928 91.8715 773.345 Q94.9502 768.739 100.76 768.739 Z" fill="#000000" fill-rule="evenodd" fill-opacity="1" /><path clip-path="url(#clip570)" d="M120.922 798.044 L125.807 798.044 L125.807 803.924 L120.922 803.924 L120.922 798.044 Z" fill="#000000" fill-rule="evenodd" fill-opacity="1" /><path clip-path="url(#clip570)" d="M145.992 772.442 Q142.381 772.442 140.552 776.007 Q138.746 779.549 138.746 786.678 Q138.746 793.785 140.552 797.35 Q142.381 800.891 145.992 800.891 Q149.626 800.891 151.431 797.35 Q153.26 793.785 153.26 786.678 Q153.26 779.549 151.431 776.007 Q149.626 772.442 145.992 772.442 M145.992 768.739 Q151.802 768.739 154.857 773.345 Q157.936 777.928 157.936 786.678 Q157.936 795.405 154.857 800.012 Q151.802 804.595 145.992 804.595 Q140.181 804.595 137.103 800.012 Q134.047 795.405 134.047 786.678 Q134.047 777.928 137.103 773.345 Q140.181 768.739 145.992 768.739 Z" fill="#000000" fill-rule="evenodd" fill-opacity="1" /><path clip-path="url(#clip570)" d="M95.7836 545.925 L112.103 545.925 L112.103 549.86 L90.1586 549.86 L90.1586 545.925 Q92.8206 543.171 97.4039 538.541 Q102.01 533.888 103.191 532.546 Q105.436 530.023 106.316 528.286 Q107.219 526.527 107.219 524.837 Q107.219 522.083 105.274 520.347 Q103.353 518.611 100.251 518.611 Q98.0521 518.611 95.5984 519.374 Q93.1678 520.138 90.3901 521.689 L90.3901 516.967 Q93.2141 515.833 95.6678 515.254 Q98.1215 514.675 100.159 514.675 Q105.529 514.675 108.723 517.361 Q111.918 520.046 111.918 524.536 Q111.918 526.666 111.108 528.587 Q110.321 530.486 108.214 533.078 Q107.635 533.749 104.534 536.967 Q101.432 540.161 95.7836 545.925 Z" fill="#000000" fill-rule="evenodd" fill-opacity="1" /><path clip-path="url(#clip570)" d="M121.918 543.981 L126.802 543.981 L126.802 549.86 L121.918 549.86 L121.918 543.981 Z" fill="#000000" fill-rule="evenodd" fill-opacity="1" /><path clip-path="url(#clip570)" d="M137.033 515.3 L155.39 515.3 L155.39 519.236 L141.316 519.236 L141.316 527.708 Q142.334 527.361 143.353 527.198 Q144.371 527.013 145.39 527.013 Q151.177 527.013 154.556 530.185 Q157.936 533.356 157.936 538.773 Q157.936 544.351 154.464 547.453 Q150.992 550.532 144.672 550.532 Q142.496 550.532 140.228 550.161 Q137.982 549.791 135.575 549.05 L135.575 544.351 Q137.658 545.485 139.881 546.041 Q142.103 546.597 144.58 546.597 Q148.584 546.597 150.922 544.49 Q153.26 542.384 153.26 538.773 Q153.26 535.161 150.922 533.055 Q148.584 530.948 144.58 530.948 Q142.705 530.948 140.83 531.365 Q138.978 531.782 137.033 532.661 L137.033 515.3 Z" fill="#000000" fill-rule="evenodd" fill-opacity="1" /><path clip-path="url(#clip570)" d="M90.8067 261.237 L109.163 261.237 L109.163 265.172 L95.0891 265.172 L95.0891 273.645 Q96.1076 273.297 97.1261 273.135 Q98.1447 272.95 99.1632 272.95 Q104.95 272.95 108.33 276.121 Q111.709 279.293 111.709 284.709 Q111.709 290.288 108.237 293.39 Q104.765 296.469 98.4456 296.469 Q96.2697 296.469 94.0012 296.098 Q91.7558 295.728 89.3484 294.987 L89.3484 290.288 Q91.4317 291.422 93.6539 291.978 Q95.8761 292.533 98.353 292.533 Q102.358 292.533 104.696 290.427 Q107.033 288.32 107.033 284.709 Q107.033 281.098 104.696 278.992 Q102.358 276.885 98.353 276.885 Q96.478 276.885 94.603 277.302 Q92.7512 277.719 90.8067 278.598 L90.8067 261.237 Z" fill="#000000" fill-rule="evenodd" fill-opacity="1" /><path clip-path="url(#clip570)" d="M120.922 289.918 L125.807 289.918 L125.807 295.797 L120.922 295.797 L120.922 289.918 Z" fill="#000000" fill-rule="evenodd" fill-opacity="1" /><path clip-path="url(#clip570)" d="M145.992 264.316 Q142.381 264.316 140.552 267.881 Q138.746 271.422 138.746 278.552 Q138.746 285.658 140.552 289.223 Q142.381 292.765 145.992 292.765 Q149.626 292.765 151.431 289.223 Q153.26 285.658 153.26 278.552 Q153.26 271.422 151.431 267.881 Q149.626 264.316 145.992 264.316 M145.992 260.612 Q151.802 260.612 154.857 265.219 Q157.936 269.802 157.936 278.552 Q157.936 287.279 154.857 291.885 Q151.802 296.469 145.992 296.469 Q140.181 296.469 137.103 291.885 Q134.047 287.279 134.047 278.552 Q134.047 269.802 137.103 265.219 Q140.181 260.612 145.992 260.612 Z" fill="#000000" fill-rule="evenodd" fill-opacity="1" /><path clip-path="url(#clip570)" d="M1087.23 12.096 L1095.41 12.096 L1095.41 65.6895 L1124.86 65.6895 L1124.86 72.576 L1087.23 72.576 L1087.23 12.096 Z" fill="#000000" fill-rule="evenodd" fill-opacity="1" /><path clip-path="url(#clip570)" d="M1133.12 27.2059 L1140.58 27.2059 L1140.58 72.576 L1133.12 72.576 L1133.12 27.2059 M1133.12 9.54393 L1140.58 9.54393 L1140.58 18.9825 L1133.12 18.9825 L1133.12 9.54393 Z" fill="#000000" fill-rule="evenodd" fill-opacity="1" /><path clip-path="url(#clip570)" d="M1193.89 45.1919 L1193.89 72.576 L1186.43 72.576 L1186.43 45.4349 Q1186.43 38.994 1183.92 35.7938 Q1181.41 32.5936 1176.39 32.5936 Q1170.35 32.5936 1166.87 36.4419 Q1163.38 40.2903 1163.38 46.9338 L1163.38 72.576 L1155.89 72.576 L1155.89 27.2059 L1163.38 27.2059 L1163.38 34.2544 Q1166.06 30.163 1169.66 28.1376 Q1173.31 26.1121 1178.05 26.1121 Q1185.87 26.1121 1189.88 30.9732 Q1193.89 35.7938 1193.89 45.1919 Z" fill="#000000" fill-rule="evenodd" fill-opacity="1" /><path clip-path="url(#clip570)" d="M1237.76 44.2197 Q1240.39 45.1109 1242.86 48.0275 Q1245.37 50.9442 1247.89 56.0483 L1256.19 72.576 L1247.4 72.576 L1239.66 57.061 Q1236.67 50.9847 1233.83 48.9997 Q1231.03 47.0148 1226.17 47.0148 L1217.26 47.0148 L1217.26 72.576 L1209.08 72.576 L1209.08 12.096 L1227.55 12.096 Q1237.92 12.096 1243.02 16.4305 Q1248.13 20.7649 1248.13 29.5149 Q1248.13 35.2267 1245.46 38.994 Q1242.82 42.7613 1237.76 44.2197 M1217.26 18.8205 L1217.26 40.2903 L1227.55 40.2903 Q1233.46 40.2903 1236.46 37.5762 Q1239.5 34.8216 1239.5 29.5149 Q1239.5 24.2082 1236.46 21.5346 Q1233.46 18.8205 1227.55 18.8205 L1217.26 18.8205 Z" fill="#000000" fill-rule="evenodd" fill-opacity="1" /><path clip-path="url(#clip570)" d="M1285.19 49.7694 Q1276.16 49.7694 1272.68 51.8354 Q1269.19 53.9013 1269.19 58.8839 Q1269.19 62.8538 1271.79 65.2034 Q1274.42 67.5124 1278.92 67.5124 Q1285.11 67.5124 1288.84 63.1374 Q1292.61 58.7219 1292.61 51.4303 L1292.61 49.7694 L1285.19 49.7694 M1300.06 46.6907 L1300.06 72.576 L1292.61 72.576 L1292.61 65.6895 Q1290.06 69.8214 1286.25 71.8063 Q1282.44 73.7508 1276.93 73.7508 Q1269.96 73.7508 1265.83 69.8619 Q1261.74 65.9325 1261.74 59.3701 Q1261.74 51.7138 1266.84 47.825 Q1271.99 43.9361 1282.16 43.9361 L1292.61 43.9361 L1292.61 43.2069 Q1292.61 38.0623 1289.21 35.2672 Q1285.84 32.4315 1279.73 32.4315 Q1275.84 32.4315 1272.15 33.3632 Q1268.46 34.295 1265.06 36.1584 L1265.06 29.2718 Q1269.15 27.692 1273 26.9223 Q1276.85 26.1121 1280.5 26.1121 Q1290.34 26.1121 1295.2 31.2163 Q1300.06 36.3204 1300.06 46.6907 Z" fill="#000000" fill-rule="evenodd" fill-opacity="1" /><path clip-path="url(#clip570)" d="M1353.13 45.1919 L1353.13 72.576 L1345.67 72.576 L1345.67 45.4349 Q1345.67 38.994 1343.16 35.7938 Q1340.65 32.5936 1335.63 32.5936 Q1329.59 32.5936 1326.11 36.4419 Q1322.63 40.2903 1322.63 46.9338 L1322.63 72.576 L1315.13 72.576 L1315.13 27.2059 L1322.63 27.2059 L1322.63 34.2544 Q1325.3 30.163 1328.9 28.1376 Q1332.55 26.1121 1337.29 26.1121 Q1345.11 26.1121 1349.12 30.9732 Q1353.13 35.7938 1353.13 45.1919 Z" fill="#000000" fill-rule="evenodd" fill-opacity="1" /><path clip-path="url(#clip570)" d="M1397.85 49.3643 Q1397.85 41.2625 1394.49 36.8065 Q1391.17 32.3505 1385.13 32.3505 Q1379.14 32.3505 1375.77 36.8065 Q1372.45 41.2625 1372.45 49.3643 Q1372.45 57.4256 1375.77 61.8816 Q1379.14 66.3376 1385.13 66.3376 Q1391.17 66.3376 1394.49 61.8816 Q1397.85 57.4256 1397.85 49.3643 M1405.3 66.9452 Q1405.3 78.5308 1400.16 84.1616 Q1395.01 89.8329 1384.4 89.8329 Q1380.47 89.8329 1376.99 89.2252 Q1373.5 88.6581 1370.22 87.4428 L1370.22 80.1917 Q1373.5 81.9741 1376.7 82.8248 Q1379.9 83.6755 1383.23 83.6755 Q1390.56 83.6755 1394.2 79.8271 Q1397.85 76.0193 1397.85 68.282 L1397.85 64.5957 Q1395.54 68.6061 1391.94 70.5911 Q1388.33 72.576 1383.31 72.576 Q1374.96 72.576 1369.86 66.2161 Q1364.75 59.8562 1364.75 49.3643 Q1364.75 38.832 1369.86 32.472 Q1374.96 26.1121 1383.31 26.1121 Q1388.33 26.1121 1391.94 28.0971 Q1395.54 30.082 1397.85 34.0924 L1397.85 27.2059 L1405.3 27.2059 L1405.3 66.9452 Z" fill="#000000" fill-rule="evenodd" fill-opacity="1" /><path clip-path="url(#clip570)" d="M1459.46 48.0275 L1459.46 51.6733 L1425.19 51.6733 Q1425.68 59.3701 1429.81 63.421 Q1433.98 67.4314 1441.4 67.4314 Q1445.69 67.4314 1449.7 66.3781 Q1453.75 65.3249 1457.72 63.2184 L1457.72 70.267 Q1453.71 71.9684 1449.5 72.8596 Q1445.29 73.7508 1440.95 73.7508 Q1430.1 73.7508 1423.74 67.4314 Q1417.42 61.1119 1417.42 50.3365 Q1417.42 39.1965 1423.41 32.6746 Q1429.45 26.1121 1439.66 26.1121 Q1448.81 26.1121 1454.12 32.0264 Q1459.46 37.9003 1459.46 48.0275 M1452.01 45.84 Q1451.93 39.7232 1448.57 36.0774 Q1445.25 32.4315 1439.74 32.4315 Q1433.5 32.4315 1429.73 35.9558 Q1426 39.4801 1425.44 45.8805 L1452.01 45.84 Z" fill="#000000" fill-rule="evenodd" fill-opacity="1" /><circle clip-path="url(#clip572)" cx="255.035" cy="685.018" r="14.4" fill="#009af9" fill-rule="evenodd" fill-opacity="1" stroke="#000000" stroke-opacity="1" stroke-width="3.2"/>
<circle clip-path="url(#clip572)" cx="458.697" cy="685.018" r="14.4" fill="#009af9" fill-rule="evenodd" fill-opacity="1" stroke="#000000" stroke-opacity="1" stroke-width="3.2"/>
<circle clip-path="url(#clip572)" cx="662.359" cy="685.018" r="14.4" fill="#009af9" fill-rule="evenodd" fill-opacity="1" stroke="#000000" stroke-opacity="1" stroke-width="3.2"/>
<circle clip-path="url(#clip572)" cx="866.021" cy="685.018" r="14.4" fill="#009af9" fill-rule="evenodd" fill-opacity="1" stroke="#000000" stroke-opacity="1" stroke-width="3.2"/>
<circle clip-path="url(#clip572)" cx="1069.68" cy="685.018" r="14.4" fill="#009af9" fill-rule="evenodd" fill-opacity="1" stroke="#000000" stroke-opacity="1" stroke-width="3.2"/>
<circle clip-path="url(#clip572)" cx="1273.35" cy="685.018" r="14.4" fill="#009af9" fill-rule="evenodd" fill-opacity="1" stroke="#000000" stroke-opacity="1" stroke-width="3.2"/>
<circle clip-path="url(#clip572)" cx="1477.01" cy="685.018" r="14.4" fill="#009af9" fill-rule="evenodd" fill-opacity="1" stroke="#000000" stroke-opacity="1" stroke-width="3.2"/>
<circle clip-path="url(#clip572)" cx="1680.67" cy="685.018" r="14.4" fill="#009af9" fill-rule="evenodd" fill-opacity="1" stroke="#000000" stroke-opacity="1" stroke-width="3.2"/>
<circle clip-path="url(#clip572)" cx="1884.33" cy="685.018" r="14.4" fill="#009af9" fill-rule="evenodd" fill-opacity="1" stroke="#000000" stroke-opacity="1" stroke-width="3.2"/>
<circle clip-path="url(#clip572)" cx="2087.99" cy="685.018" r="14.4" fill="#009af9" fill-rule="evenodd" fill-opacity="1" stroke="#000000" stroke-opacity="1" stroke-width="3.2"/>
<circle clip-path="url(#clip572)" cx="2291.66" cy="685.018" r="14.4" fill="#009af9" fill-rule="evenodd" fill-opacity="1" stroke="#000000" stroke-opacity="1" stroke-width="3.2"/>
<polyline clip-path="url(#clip572)" style="stroke:#e26f46; stroke-linecap:butt; stroke-linejoin:round; stroke-width:12; stroke-opacity:1; fill:none" points="
  255.035,685.018 265.269,699.103 275.503,711.556 285.738,722.533 295.972,732.183 306.206,740.637 316.44,748.019 326.675,754.442 336.909,760.006 347.143,764.807 
  357.378,768.929 367.612,772.449 377.846,775.439 388.08,777.961 398.315,780.072 408.549,781.826 418.783,783.268 429.018,784.441 439.252,785.381 449.486,786.122 
  459.72,786.694 469.955,787.123 480.189,787.432 490.423,787.642 500.657,787.77 510.892,787.833 521.126,787.843 531.36,787.813 541.595,787.752 551.829,787.669 
  562.063,787.571 572.297,787.463 582.532,787.351 592.766,787.239 603,787.13 613.235,787.026 623.469,786.929 633.703,786.841 643.937,786.762 654.172,786.692 
  664.406,786.632 674.64,786.582 684.875,786.542 695.109,786.51 705.343,786.487 715.577,786.471 725.812,786.463 736.046,786.46 746.28,786.463 756.515,786.47 
  766.749,786.48 776.983,786.494 787.217,786.51 797.452,786.527 807.686,786.545 817.92,786.564 828.155,786.582 838.389,786.6 848.623,786.617 858.857,786.633 
  869.092,786.648 879.326,786.661 889.56,786.672 899.795,786.681 910.029,786.689 920.263,786.694 930.497,786.698 940.732,786.701 950.966,786.701 961.2,786.7 
  971.435,786.698 981.669,786.695 991.903,786.691 1002.14,786.685 1012.37,786.68 1022.61,786.673 1032.84,786.667 1043.07,786.66 1053.31,786.654 1063.54,786.647 
  1073.78,786.641 1084.01,786.635 1094.25,786.63 1104.48,786.626 1114.71,786.622 1124.95,786.619 1135.18,786.616 1145.42,786.615 1155.65,786.614 1165.89,786.614 
  1176.12,786.614 1186.35,786.615 1196.59,786.617 1206.82,786.62 1217.06,786.623 1227.29,786.626 1237.53,786.63 1247.76,786.633 1257.99,786.637 1268.23,786.642 
  1278.46,786.646 1288.7,786.65 1298.93,786.653 1309.17,786.657 1319.4,786.66 1329.63,786.662 1339.87,786.665 1350.1,786.666 1360.34,786.667 1370.57,786.668 
  1380.81,786.668 1391.04,786.667 1401.27,786.666 1411.51,786.664 1421.74,786.662 1431.98,786.659 1442.21,786.656 1452.45,786.653 1462.68,786.649 1472.91,786.645 
  1483.15,786.641 1493.38,786.637 1503.62,786.633 1513.85,786.629 1524.09,786.626 1534.32,786.622 1544.55,786.619 1554.79,786.617 1565.02,786.615 1575.26,786.614 
  1585.49,786.613 1595.73,786.614 1605.96,786.615 1616.19,786.616 1626.43,786.619 1636.66,786.622 1646.9,786.626 1657.13,786.631 1667.37,786.636 1677.6,786.642 
  1687.83,786.648 1698.07,786.654 1708.3,786.661 1718.54,786.668 1728.77,786.674 1739.01,786.68 1749.24,786.686 1759.47,786.691 1769.71,786.695 1779.94,786.698 
  1790.18,786.7 1800.41,786.701 1810.65,786.7 1820.88,786.698 1831.11,786.694 1841.35,786.688 1851.58,786.68 1861.82,786.671 1872.05,786.659 1882.29,786.646 
  1892.52,786.632 1902.75,786.616 1912.99,786.599 1923.22,786.58 1933.46,786.562 1943.69,786.543 1953.93,786.525 1964.16,786.508 1974.39,786.492 1984.63,786.479 
  1994.86,786.469 2005.1,786.462 2015.33,786.46 2025.57,786.463 2035.8,786.473 2046.03,786.489 2056.27,786.513 2066.5,786.546 2076.74,786.587 2086.97,786.638 
  2097.21,786.699 2107.44,786.769 2117.67,786.849 2127.91,786.939 2138.14,787.036 2148.38,787.141 2158.61,787.25 2168.85,787.363 2179.08,787.474 2189.31,787.581 
  2199.55,787.678 2209.78,787.759 2220.02,787.818 2230.25,787.844 2240.49,787.829 2250.72,787.761 2260.95,787.625 2271.19,787.406 2281.42,787.086 2291.66,786.644 
  
  "/>
<polyline clip-path="url(#clip572)" style="stroke:#3da44d; stroke-linecap:butt; stroke-linejoin:round; stroke-width:12; stroke-opacity:1; fill:none" points="
  255.035,786.644 265.269,740.326 275.503,702.746 285.738,672.839 295.972,649.635 306.206,632.26 316.44,619.92 326.675,611.904 336.909,607.569 347.143,606.34 
  357.378,607.705 367.612,611.207 377.846,616.441 388.08,623.049 398.315,630.717 408.549,639.171 418.783,648.172 429.018,657.513 439.252,667.019 449.486,676.541 
  459.72,685.951 469.955,695.147 480.189,704.044 490.423,712.574 500.657,720.685 510.892,728.338 521.126,735.505 531.36,742.171 541.595,748.326 551.829,753.97 
  562.063,759.11 572.297,763.756 582.532,767.925 592.766,771.636 603,774.911 613.235,777.775 623.469,780.254 633.703,782.374 643.937,784.165 654.172,785.652 
  664.406,786.866 674.64,787.831 684.875,788.575 695.109,789.124 705.343,789.501 715.577,789.73 725.812,789.832 736.046,789.828 746.28,789.736 756.515,789.574 
  766.749,789.357 776.983,789.099 787.217,788.814 797.452,788.511 807.686,788.202 817.92,787.894 828.155,787.594 838.389,787.309 848.623,787.043 858.857,786.799 
  869.092,786.581 879.326,786.39 889.56,786.228 899.795,786.094 910.029,785.989 920.263,785.912 930.497,785.86 940.732,785.834 950.966,785.83 961.2,785.847 
  971.435,785.882 981.669,785.932 991.903,785.995 1002.14,786.069 1012.37,786.15 1022.61,786.237 1032.84,786.327 1043.07,786.418 1053.31,786.508 1063.54,786.594 
  1073.78,786.676 1084.01,786.751 1094.25,786.819 1104.48,786.878 1114.71,786.928 1124.95,786.969 1135.18,786.999 1145.42,787.02 1155.65,787.03 1165.89,787.031 
  1176.12,787.022 1186.35,787.005 1196.59,786.98 1206.82,786.948 1217.06,786.91 1227.29,786.867 1237.53,786.821 1247.76,786.771 1257.99,786.72 1268.23,786.669 
  1278.46,786.618 1288.7,786.57 1298.93,786.524 1309.17,786.481 1319.4,786.444 1329.63,786.411 1339.87,786.385 1350.1,786.365 1360.34,786.352 1370.57,786.346 
  1380.81,786.346 1391.04,786.355 1401.27,786.369 1411.51,786.391 1421.74,786.418 1431.98,786.452 1442.21,786.49 1452.45,786.532 1462.68,786.577 1472.91,786.624 
  1483.15,786.673 1493.38,786.722 1503.62,786.77 1513.85,786.816 1524.09,786.859 1534.32,786.897 1544.55,786.931 1554.79,786.959 1565.02,786.98 1575.26,786.994 
  1585.49,786.999 1595.73,786.996 1605.96,786.984 1616.19,786.963 1626.43,786.933 1636.66,786.894 1646.9,786.848 1657.13,786.793 1667.37,786.732 1677.6,786.665 
  1687.83,786.593 1698.07,786.518 1708.3,786.441 1718.54,786.365 1728.77,786.29 1739.01,786.219 1749.24,786.153 1759.47,786.095 1769.71,786.047 1779.94,786.011 
  1790.18,785.988 1800.41,785.981 1810.65,785.99 1820.88,786.018 1831.11,786.066 1841.35,786.134 1851.58,786.223 1861.82,786.332 1872.05,786.462 1882.29,786.612 
  1892.52,786.779 1902.75,786.962 1912.99,787.157 1923.22,787.363 1933.46,787.573 1943.69,787.784 1953.93,787.989 1964.16,788.183 1974.39,788.359 1984.63,788.509 
  1994.86,788.624 2005.1,788.698 2015.33,788.72 2025.57,788.681 2035.8,788.573 2046.03,788.387 2056.27,788.115 2066.5,787.748 2076.74,787.28 2086.97,786.707 
  2097.21,786.025 2107.44,785.233 2117.67,784.333 2127.91,783.332 2138.14,782.24 2148.38,781.071 2158.61,779.848 2168.85,778.597 2179.08,777.355 2189.31,776.168 
  2199.55,775.09 2209.78,774.189 2220.02,773.546 2230.25,773.256 2240.49,773.431 2250.72,774.203 2260.95,775.722 2271.19,778.164 2281.42,781.728 2291.66,786.644 
  
  "/>
<polyline clip-path="url(#clip572)" style="stroke:#c271d2; stroke-linecap:butt; stroke-linejoin:round; stroke-width:12; stroke-opacity:1; fill:none" points="
  255.035,786.644 265.269,888.172 275.503,965.425 285.738,1021.83 295.972,1060.47 306.206,1084.1 316.44,1095.18 326.675,1095.9 336.909,1088.2 347.143,1073.78 
  357.378,1054.15 367.612,1030.61 377.846,1004.29 388.08,976.181 398.315,947.102 408.549,917.763 418.783,888.752 429.018,860.554 439.252,833.56 449.486,808.082 
  459.72,784.355 469.955,762.553 480.189,742.792 490.423,725.14 500.657,709.622 510.892,696.23 521.126,684.923 531.36,675.635 541.595,668.281 551.829,662.758 
  562.063,658.95 572.297,656.732 582.532,655.974 592.766,656.54 603,658.292 613.235,661.095 623.469,664.811 633.703,669.311 643.937,674.468 654.172,680.158 
  664.406,686.269 674.64,692.691 684.875,699.324 695.109,706.077 705.343,712.864 715.577,719.609 725.812,726.245 736.046,732.711 746.28,738.956 756.515,744.936 
  766.749,750.613 776.983,755.958 787.217,760.948 797.452,765.567 807.686,769.803 817.92,773.651 828.155,777.111 838.389,780.186 848.623,782.885 858.857,785.219 
  869.092,787.203 879.326,788.854 889.56,790.191 899.795,791.236 910.029,792.01 920.263,792.539 930.497,792.845 940.732,792.953 950.966,792.887 961.2,792.673 
  971.435,792.332 981.669,791.889 991.903,791.365 1002.14,790.78 1012.37,790.154 1022.61,789.505 1032.84,788.849 1043.07,788.201 1053.31,787.574 1063.54,786.98 
  1073.78,786.429 1084.01,785.928 1094.25,785.484 1104.48,785.102 1114.71,784.785 1124.95,784.535 1135.18,784.352 1145.42,784.236 1155.65,784.185 1165.89,784.195 
  1176.12,784.263 1186.35,784.383 1196.59,784.551 1206.82,784.759 1217.06,785.002 1227.29,785.273 1237.53,785.564 1247.76,785.869 1257.99,786.18 1268.23,786.49 
  1278.46,786.794 1288.7,787.085 1298.93,787.356 1309.17,787.604 1319.4,787.822 1329.63,788.008 1339.87,788.158 1350.1,788.269 1360.34,788.34 1370.57,788.371 
  1380.81,788.36 1391.04,788.308 1401.27,788.217 1411.51,788.09 1421.74,787.928 1431.98,787.736 1442.21,787.518 1452.45,787.278 1462.68,787.021 1472.91,786.753 
  1483.15,786.479 1493.38,786.206 1503.62,785.939 1513.85,785.684 1524.09,785.448 1534.32,785.235 1544.55,785.051 1554.79,784.9 1565.02,784.788 1575.26,784.718 
  1585.49,784.692 1595.73,784.713 1605.96,784.782 1616.19,784.9 1626.43,785.067 1636.66,785.279 1646.9,785.536 1657.13,785.833 1667.37,786.166 1677.6,786.53 
  1687.83,786.917 1698.07,787.32 1708.3,787.73 1718.54,788.14 1728.77,788.539 1739.01,788.917 1749.24,789.263 1759.47,789.568 1769.71,789.82 1779.94,790.009 
  1790.18,790.126 1800.41,790.16 1810.65,790.104 1820.88,789.952 1831.11,789.696 1841.35,789.333 1851.58,788.862 1861.82,788.283 1872.05,787.597 1882.29,786.812 
  1892.52,785.935 1902.75,784.978 1912.99,783.955 1923.22,782.886 1933.46,781.791 1943.69,780.698 1953.93,779.633 1964.16,778.631 1974.39,777.726 1984.63,776.958 
  1994.86,776.367 2005.1,775.998 2015.33,775.895 2025.57,776.105 2035.8,776.673 2046.03,777.643 2056.27,779.057 2066.5,780.954 2076.74,783.366 2086.97,786.318 
  2097.21,789.824 2107.44,793.887 2117.67,798.494 2127.91,803.614 2138.14,809.194 2148.38,815.155 2158.61,821.388 2168.85,827.749 2179.08,834.054 2189.31,840.073 
  2199.55,845.524 2209.78,850.066 2220.02,853.29 2230.25,854.715 2240.49,853.774 2250.72,849.807 2260.95,842.053 2271.19,829.633 2281.42,811.544 2291.66,786.644 
  
  "/>
<polyline clip-path="url(#clip572)" style="stroke:#ac8d18; stroke-linecap:butt; stroke-linejoin:round; stroke-width:12; stroke-opacity:1; fill:none" points="
  255.035,786.644 265.269,607.686 275.503,474.319 285.738,379.595 295.972,317.322 306.206,282.003 316.44,268.777 326.675,273.366 336.909,292.023 347.143,321.482 
  357.378,358.92 367.612,401.909 377.846,448.38 388.08,496.588 398.315,545.077 408.549,592.653 418.783,638.349 429.018,681.404 439.252,721.238 449.486,757.427 
  459.72,789.687 469.955,817.852 480.189,841.856 490.423,861.722 500.657,877.544 510.892,889.477 521.126,897.721 531.36,902.518 541.595,904.135 551.829,902.862 
  562.063,899.003 572.297,892.866 582.532,884.764 592.766,875.004 603,863.887 613.235,851.705 623.469,838.735 633.703,825.237 643.937,811.457 654.172,797.618 
  664.406,783.926 674.64,770.566 684.875,757.702 695.109,745.476 705.343,734.011 715.577,723.409 725.812,713.754 736.046,705.108 746.28,697.519 756.515,691.015 
  766.749,685.609 776.983,681.302 787.217,678.078 797.452,675.912 807.686,674.766 817.92,674.593 828.155,675.34 838.389,676.944 848.623,679.339 858.857,682.452 
  869.092,686.208 879.326,690.53 889.56,695.338 899.795,700.555 910.029,706.101 920.263,711.899 930.497,717.874 940.732,723.955 950.966,730.073 961.2,736.162 
  971.435,742.164 981.669,748.021 991.903,753.685 1002.14,759.11 1012.37,764.257 1022.61,769.091 1032.84,773.584 1043.07,777.714 1053.31,781.464 1063.54,784.821 
  1073.78,787.779 1084.01,790.337 1094.25,792.497 1104.48,794.268 1114.71,795.66 1124.95,796.691 1135.18,797.377 1145.42,797.742 1155.65,797.81 1165.89,797.607 
  1176.12,797.161 1186.35,796.503 1196.59,795.662 1206.82,794.671 1217.06,793.56 1227.29,792.359 1237.53,791.101 1247.76,789.813 1257.99,788.523 1268.23,787.259 
  1278.46,786.044 1288.7,784.901 1298.93,783.849 1309.17,782.907 1319.4,782.089 1329.63,781.407 1339.87,780.87 1350.1,780.485 1360.34,780.254 1370.57,780.179 
  1380.81,780.257 1391.04,780.484 1401.27,780.85 1411.51,781.347 1421.74,781.962 1431.98,782.681 1442.21,783.488 1452.45,784.366 1462.68,785.294 1472.91,786.255 
  1483.15,787.227 1493.38,788.19 1503.62,789.123 1513.85,790.006 1524.09,790.82 1534.32,791.546 1544.55,792.167 1554.79,792.667 1565.02,793.033 1575.26,793.255 
  1585.49,793.322 1595.73,793.229 1605.96,792.973 1616.19,792.554 1626.43,791.975 1636.66,791.243 1646.9,790.367 1657.13,789.36 1667.37,788.239 1677.6,787.024 
  1687.83,785.735 1698.07,784.4 1708.3,783.045 1718.54,781.7 1728.77,780.396 1739.01,779.168 1749.24,778.047 1759.47,777.068 1769.71,776.265 1779.94,775.669 
  1790.18,775.312 1800.41,775.222 1810.65,775.425 1820.88,775.941 1831.11,776.786 1841.35,777.973 1851.58,779.504 1861.82,781.379 1872.05,783.585 1882.29,786.104 
  1892.52,788.908 1902.75,791.959 1912.99,795.207 1923.22,798.595 1933.46,802.051 1943.69,805.496 1953.93,808.837 1964.16,811.974 1974.39,814.793 1984.63,817.175 
  1994.86,818.991 2005.1,820.107 2015.33,820.384 2025.57,819.683 2035.8,817.862 2046.03,814.789 2056.27,810.336 2066.5,804.389 2076.74,796.853 2086.97,787.656 
  2097.21,776.759 2107.44,764.159 2117.67,749.9 2127.91,734.085 2138.14,716.882 2148.38,698.538 2158.61,679.394 2168.85,659.894 2179.08,640.606 2189.31,622.236 
  2199.55,605.648 2209.78,591.884 2220.02,582.186 2230.25,578.021 2240.49,581.105 2250.72,593.434 2260.95,617.314 2271.19,655.39 2281.42,710.687 2291.66,786.644 
  
  "/>
<polyline clip-path="url(#clip572)" style="stroke:#00a9ad; stroke-linecap:butt; stroke-linejoin:round; stroke-width:12; stroke-opacity:1; fill:none" points="
  255.035,786.644 265.269,1020.53 275.503,1193.05 285.738,1313.92 295.972,1391.76 306.206,1434.19 316.44,1447.87 326.675,1438.67 336.909,1411.66 347.143,1371.22 
  357.378,1321.14 367.612,1264.62 377.846,1204.34 388.08,1142.57 398.315,1081.14 408.549,1021.55 418.783,964.959 429.018,912.267 439.252,864.127 449.486,820.983 
  459.72,783.096 469.955,750.576 480.189,723.403 490.423,701.451 500.657,684.503 510.892,672.275 521.126,664.427 531.36,660.581 541.595,660.329 551.829,663.247 
  562.063,668.904 572.297,676.869 582.532,686.72 592.766,698.047 603,710.459 613.235,723.588 623.469,737.091 633.703,750.654 643.937,763.993 654.172,776.852 
  664.406,789.009 674.64,800.274 684.875,810.486 695.109,819.516 705.343,827.264 715.577,833.658 725.812,838.653 736.046,842.23 746.28,844.391 756.515,845.162 
  766.749,844.585 776.983,842.721 787.217,839.648 797.452,835.453 807.686,830.237 817.92,824.108 828.155,817.181 838.389,809.578 848.623,801.423 858.857,792.839 
  869.092,783.953 879.326,774.888 889.56,765.763 899.795,756.694 910.029,747.792 920.263,739.16 930.497,730.895 940.732,723.084 950.966,715.808 961.2,709.136 
  971.435,703.128 981.669,697.835 991.903,693.298 1002.14,689.547 1012.37,686.602 1022.61,684.475 1032.84,683.166 1043.07,682.667 1053.31,682.961 1063.54,684.025 
  1073.78,685.824 1084.01,688.32 1094.25,691.466 1104.48,695.21 1114.71,699.497 1124.95,704.266 1135.18,709.452 1145.42,714.989 1155.65,720.809 1165.89,726.842 
  1176.12,733.019 1186.35,739.272 1196.59,745.532 1206.82,751.734 1217.06,757.815 1227.29,763.715 1237.53,769.379 1247.76,774.755 1257.99,779.797 1268.23,784.463 
  1278.46,788.717 1288.7,792.53 1298.93,795.878 1309.17,798.743 1319.4,801.115 1329.63,802.988 1339.87,804.363 1350.1,805.249 1360.34,805.659 1370.57,805.613 
  1380.81,805.135 1391.04,804.255 1401.27,803.009 1411.51,801.435 1421.74,799.575 1431.98,797.475 1442.21,795.184 1452.45,792.751 1462.68,790.228 1472.91,787.667 
  1483.15,785.12 1493.38,782.637 1503.62,780.268 1513.85,778.06 1524.09,776.059 1534.32,774.304 1544.55,772.832 1554.79,771.677 1565.02,770.864 1575.26,770.414 
  1585.49,770.342 1595.73,770.657 1605.96,771.36 1616.19,772.445 1626.43,773.9 1636.66,775.703 1646.9,777.829 1657.13,780.241 1667.37,782.899 1677.6,785.756 
  1687.83,788.757 1698.07,791.843 1708.3,794.95 1718.54,798.011 1728.77,800.954 1739.01,803.708 1749.24,806.197 1759.47,808.349 1769.71,810.091 1779.94,811.356 
  1790.18,812.079 1800.41,812.201 1810.65,811.673 1820.88,810.452 1831.11,808.508 1841.35,805.822 1851.58,802.391 1861.82,798.226 1872.05,793.354 1882.29,787.823 
  1892.52,781.699 1902.75,775.068 1912.99,768.038 1923.22,760.738 1933.46,753.323 1943.69,745.964 1953.93,738.859 1964.16,732.223 1974.39,726.293 1984.63,721.321 
  1994.86,717.574 2005.1,715.333 2015.33,714.881 2025.57,716.507 2035.8,720.494 2046.03,727.115 2056.27,736.624 2066.5,749.245 2076.74,765.164 2086.97,784.516 
  2097.21,807.37 2107.44,833.715 2117.67,863.441 2127.91,896.323 2138.14,931.997 2148.38,969.938 2158.61,1009.43 2168.85,1049.55 2179.08,1089.13 2189.31,1126.69 
  2199.55,1160.48 2209.78,1188.36 2220.02,1207.79 2230.25,1215.8 2240.49,1208.91 2250.72,1183.07 2260.95,1133.63 2271.19,1055.27 2281.42,941.909 2291.66,786.644 
  
  "/>
<polyline clip-path="url(#clip572)" style="stroke:#ed5d92; stroke-linecap:butt; stroke-linejoin:round; stroke-width:12; stroke-opacity:1; fill:none" points="
  255.035,786.644 265.269,562.683 275.503,398.496 285.738,284.392 295.972,211.811 306.206,173.225 316.44,162.047 326.675,172.542 336.909,199.748 347.143,239.398 
  357.378,287.856 367.612,342.047 377.846,399.399 388.08,457.791 398.315,515.496 408.549,571.142 418.783,623.661 429.018,672.258 439.252,716.366 449.486,755.623 
  459.72,789.835 469.955,818.953 480.189,843.046 490.423,862.281 500.657,876.906 510.892,887.227 521.126,893.595 531.36,896.396 541.595,896.034 551.829,892.922 
  562.063,887.476 572.297,880.104 582.532,871.201 592.766,861.145 603,850.29 613.235,838.965 623.469,827.472 633.703,816.08 643.937,805.03 654.172,794.529 
  664.406,784.754 674.64,775.851 684.875,767.935 695.109,761.09 705.343,755.377 715.577,750.826 725.812,747.447 736.046,745.224 746.28,744.123 756.515,744.093 
  766.749,745.066 776.983,746.961 787.217,749.686 797.452,753.138 807.686,757.211 817.92,761.791 828.155,766.762 838.389,772.008 848.623,777.413 858.857,782.862 
  869.092,788.245 879.326,793.459 889.56,798.404 899.795,802.989 910.029,807.131 920.263,810.757 930.497,813.802 940.732,816.213 950.966,817.946 961.2,818.968 
  971.435,819.257 981.669,818.802 991.903,817.6 1002.14,815.663 1012.37,813.007 1022.61,809.663 1032.84,805.666 1043.07,801.062 1053.31,795.903 1063.54,790.248 
  1073.78,784.162 1084.01,777.715 1094.25,770.98 1104.48,764.035 1114.71,756.958 1124.95,749.829 1135.18,742.73 1145.42,735.74 1155.65,728.938 1165.89,722.399 
  1176.12,716.198 1186.35,710.403 1196.59,705.078 1206.82,700.282 1217.06,696.068 1227.29,692.484 1237.53,689.568 1247.76,687.352 1257.99,685.862 1268.23,685.112 
  1278.46,685.112 1288.7,685.862 1298.93,687.352 1309.17,689.568 1319.4,692.484 1329.63,696.068 1339.87,700.282 1350.1,705.078 1360.34,710.403 1370.57,716.198 
  1380.81,722.399 1391.04,728.938 1401.27,735.74 1411.51,742.73 1421.74,749.829 1431.98,756.958 1442.21,764.035 1452.45,770.98 1462.68,777.715 1472.91,784.162 
  1483.15,790.248 1493.38,795.903 1503.62,801.062 1513.85,805.666 1524.09,809.663 1534.32,813.007 1544.55,815.663 1554.79,817.6 1565.02,818.802 1575.26,819.257 
  1585.49,818.968 1595.73,817.946 1605.96,816.213 1616.19,813.802 1626.43,810.757 1636.66,807.131 1646.9,802.989 1657.13,798.404 1667.37,793.459 1677.6,788.245 
  1687.83,782.862 1698.07,777.413 1708.3,772.008 1718.54,766.762 1728.77,761.791 1739.01,757.211 1749.24,753.138 1759.47,749.686 1769.71,746.961 1779.94,745.066 
  1790.18,744.093 1800.41,744.123 1810.65,745.224 1820.88,747.447 1831.11,750.826 1841.35,755.377 1851.58,761.09 1861.82,767.935 1872.05,775.851 1882.29,784.754 
  1892.52,794.529 1902.75,805.03 1912.99,816.08 1923.22,827.472 1933.46,838.965 1943.69,850.29 1953.93,861.145 1964.16,871.201 1974.39,880.104 1984.63,887.476 
  1994.86,892.922 2005.1,896.034 2015.33,896.396 2025.57,893.595 2035.8,887.227 2046.03,876.906 2056.27,862.281 2066.5,843.046 2076.74,818.953 2086.97,789.835 
  2097.21,755.623 2107.44,716.366 2117.67,672.258 2127.91,623.661 2138.14,571.142 2148.38,515.496 2158.61,457.791 2168.85,399.399 2179.08,342.047 2189.31,287.856 
  2199.55,239.398 2209.78,199.748 2220.02,172.542 2230.25,162.047 2240.49,173.225 2250.72,211.811 2260.95,284.392 2271.19,398.496 2281.42,562.683 2291.66,786.644 
  
  "/>
<polyline clip-path="url(#clip572)" style="stroke:#c68125; stroke-linecap:butt; stroke-linejoin:round; stroke-width:12; stroke-opacity:1; fill:none" points="
  255.035,786.644 265.269,941.909 275.503,1055.27 285.738,1133.63 295.972,1183.07 306.206,1208.91 316.44,1215.8 326.675,1207.79 336.909,1188.36 347.143,1160.48 
  357.378,1126.69 367.612,1089.13 377.846,1049.55 388.08,1009.43 398.315,969.938 408.549,931.997 418.783,896.323 429.018,863.441 439.252,833.715 449.486,807.37 
  459.72,784.516 469.955,765.164 480.189,749.245 490.423,736.624 500.657,727.115 510.892,720.494 521.126,716.507 531.36,714.881 541.595,715.333 551.829,717.574 
  562.063,721.321 572.297,726.293 582.532,732.223 592.766,738.859 603,745.964 613.235,753.323 623.469,760.738 633.703,768.038 643.937,775.068 654.172,781.699 
  664.406,787.823 674.64,793.354 684.875,798.226 695.109,802.391 705.343,805.822 715.577,808.508 725.812,810.452 736.046,811.673 746.28,812.201 756.515,812.079 
  766.749,811.356 776.983,810.091 787.217,808.349 797.452,806.197 807.686,803.708 817.92,800.954 828.155,798.011 838.389,794.95 848.623,791.843 858.857,788.757 
  869.092,785.756 879.326,782.899 889.56,780.241 899.795,777.829 910.029,775.703 920.263,773.9 930.497,772.445 940.732,771.36 950.966,770.657 961.2,770.342 
  971.435,770.414 981.669,770.864 991.903,771.677 1002.14,772.832 1012.37,774.304 1022.61,776.059 1032.84,778.06 1043.07,780.268 1053.31,782.637 1063.54,785.12 
  1073.78,787.667 1084.01,790.228 1094.25,792.751 1104.48,795.184 1114.71,797.475 1124.95,799.575 1135.18,801.435 1145.42,803.009 1155.65,804.255 1165.89,805.135 
  1176.12,805.613 1186.35,805.659 1196.59,805.249 1206.82,804.363 1217.06,802.988 1227.29,801.115 1237.53,798.743 1247.76,795.878 1257.99,792.53 1268.23,788.717 
  1278.46,784.463 1288.7,779.797 1298.93,774.755 1309.17,769.379 1319.4,763.715 1329.63,757.815 1339.87,751.734 1350.1,745.532 1360.34,739.272 1370.57,733.019 
  1380.81,726.842 1391.04,720.809 1401.27,714.989 1411.51,709.452 1421.74,704.266 1431.98,699.497 1442.21,695.21 1452.45,691.466 1462.68,688.32 1472.91,685.824 
  1483.15,684.025 1493.38,682.961 1503.62,682.667 1513.85,683.166 1524.09,684.475 1534.32,686.602 1544.55,689.547 1554.79,693.298 1565.02,697.835 1575.26,703.128 
  1585.49,709.136 1595.73,715.808 1605.96,723.084 1616.19,730.895 1626.43,739.16 1636.66,747.792 1646.9,756.694 1657.13,765.763 1667.37,774.888 1677.6,783.953 
  1687.83,792.839 1698.07,801.423 1708.3,809.578 1718.54,817.181 1728.77,824.108 1739.01,830.237 1749.24,835.453 1759.47,839.648 1769.71,842.721 1779.94,844.585 
  1790.18,845.162 1800.41,844.391 1810.65,842.23 1820.88,838.653 1831.11,833.658 1841.35,827.264 1851.58,819.516 1861.82,810.486 1872.05,800.274 1882.29,789.009 
  1892.52,776.852 1902.75,763.993 1912.99,750.654 1923.22,737.091 1933.46,723.588 1943.69,710.459 1953.93,698.047 1964.16,686.72 1974.39,676.869 1984.63,668.904 
  1994.86,663.247 2005.1,660.329 2015.33,660.581 2025.57,664.427 2035.8,672.275 2046.03,684.503 2056.27,701.451 2066.5,723.403 2076.74,750.576 2086.97,783.096 
  2097.21,820.983 2107.44,864.127 2117.67,912.267 2127.91,964.959 2138.14,1021.55 2148.38,1081.14 2158.61,1142.57 2168.85,1204.34 2179.08,1264.62 2189.31,1321.14 
  2199.55,1371.22 2209.78,1411.66 2220.02,1438.67 2230.25,1447.87 2240.49,1434.19 2250.72,1391.76 2260.95,1313.92 2271.19,1193.05 2281.42,1020.53 2291.66,786.644 
  
  "/>
<polyline clip-path="url(#clip572)" style="stroke:#00a98d; stroke-linecap:butt; stroke-linejoin:round; stroke-width:12; stroke-opacity:1; fill:none" points="
  255.035,786.644 265.269,710.687 275.503,655.39 285.738,617.314 295.972,593.434 306.206,581.105 316.44,578.021 326.675,582.186 336.909,591.884 347.143,605.648 
  357.378,622.236 367.612,640.606 377.846,659.894 388.08,679.394 398.315,698.538 408.549,716.882 418.783,734.085 429.018,749.9 439.252,764.159 449.486,776.759 
  459.72,787.656 469.955,796.853 480.189,804.389 490.423,810.336 500.657,814.789 510.892,817.862 521.126,819.683 531.36,820.384 541.595,820.107 551.829,818.991 
  562.063,817.175 572.297,814.793 582.532,811.974 592.766,808.837 603,805.496 613.235,802.051 623.469,798.595 633.703,795.207 643.937,791.959 654.172,788.908 
  664.406,786.104 674.64,783.585 684.875,781.379 695.109,779.504 705.343,777.973 715.577,776.786 725.812,775.941 736.046,775.425 746.28,775.222 756.515,775.312 
  766.749,775.669 776.983,776.265 787.217,777.068 797.452,778.047 807.686,779.168 817.92,780.396 828.155,781.7 838.389,783.045 848.623,784.4 858.857,785.735 
  869.092,787.024 879.326,788.239 889.56,789.36 899.795,790.367 910.029,791.243 920.263,791.975 930.497,792.554 940.732,792.973 950.966,793.229 961.2,793.322 
  971.435,793.255 981.669,793.033 991.903,792.667 1002.14,792.167 1012.37,791.546 1022.61,790.82 1032.84,790.006 1043.07,789.123 1053.31,788.19 1063.54,787.227 
  1073.78,786.255 1084.01,785.294 1094.25,784.366 1104.48,783.488 1114.71,782.681 1124.95,781.962 1135.18,781.347 1145.42,780.85 1155.65,780.484 1165.89,780.257 
  1176.12,780.179 1186.35,780.254 1196.59,780.485 1206.82,780.87 1217.06,781.407 1227.29,782.089 1237.53,782.907 1247.76,783.849 1257.99,784.901 1268.23,786.044 
  1278.46,787.259 1288.7,788.523 1298.93,789.813 1309.17,791.101 1319.4,792.359 1329.63,793.56 1339.87,794.671 1350.1,795.662 1360.34,796.503 1370.57,797.161 
  1380.81,797.607 1391.04,797.81 1401.27,797.742 1411.51,797.377 1421.74,796.691 1431.98,795.66 1442.21,794.268 1452.45,792.497 1462.68,790.337 1472.91,787.779 
  1483.15,784.821 1493.38,781.464 1503.62,777.714 1513.85,773.584 1524.09,769.091 1534.32,764.257 1544.55,759.11 1554.79,753.685 1565.02,748.021 1575.26,742.164 
  1585.49,736.162 1595.73,730.073 1605.96,723.955 1616.19,717.874 1626.43,711.899 1636.66,706.101 1646.9,700.555 1657.13,695.338 1667.37,690.53 1677.6,686.208 
  1687.83,682.452 1698.07,679.339 1708.3,676.944 1718.54,675.34 1728.77,674.593 1739.01,674.766 1749.24,675.912 1759.47,678.078 1769.71,681.302 1779.94,685.609 
  1790.18,691.015 1800.41,697.519 1810.65,705.108 1820.88,713.754 1831.11,723.409 1841.35,734.011 1851.58,745.476 1861.82,757.702 1872.05,770.566 1882.29,783.926 
  1892.52,797.618 1902.75,811.457 1912.99,825.237 1923.22,838.735 1933.46,851.705 1943.69,863.887 1953.93,875.004 1964.16,884.764 1974.39,892.866 1984.63,899.003 
  1994.86,902.862 2005.1,904.135 2015.33,902.518 2025.57,897.721 2035.8,889.477 2046.03,877.544 2056.27,861.722 2066.5,841.856 2076.74,817.852 2086.97,789.687 
  2097.21,757.427 2107.44,721.238 2117.67,681.404 2127.91,638.349 2138.14,592.653 2148.38,545.077 2158.61,496.588 2168.85,448.38 2179.08,401.909 2189.31,358.92 
  2199.55,321.482 2209.78,292.023 2220.02,273.366 2230.25,268.777 2240.49,282.003 2250.72,317.322 2260.95,379.595 2271.19,474.319 2281.42,607.686 2291.66,786.644 
  
  "/>
<polyline clip-path="url(#clip572)" style="stroke:#8e971d; stroke-linecap:butt; stroke-linejoin:round; stroke-width:12; stroke-opacity:1; fill:none" points="
  255.035,786.644 265.269,811.544 275.503,829.633 285.738,842.053 295.972,849.807 306.206,853.774 316.44,854.715 326.675,853.29 336.909,850.066 347.143,845.524 
  357.378,840.073 367.612,834.054 377.846,827.749 388.08,821.388 398.315,815.155 408.549,809.194 418.783,803.614 429.018,798.494 439.252,793.887 449.486,789.824 
  459.72,786.318 469.955,783.366 480.189,780.954 490.423,779.057 500.657,777.643 510.892,776.673 521.126,776.105 531.36,775.895 541.595,775.998 551.829,776.367 
  562.063,776.958 572.297,777.726 582.532,778.631 592.766,779.633 603,780.698 613.235,781.791 623.469,782.886 633.703,783.955 643.937,784.978 654.172,785.935 
  664.406,786.812 674.64,787.597 684.875,788.283 695.109,788.862 705.343,789.333 715.577,789.696 725.812,789.952 736.046,790.104 746.28,790.16 756.515,790.126 
  766.749,790.009 776.983,789.82 787.217,789.568 797.452,789.263 807.686,788.917 817.92,788.539 828.155,788.14 838.389,787.73 848.623,787.32 858.857,786.917 
  869.092,786.53 879.326,786.166 889.56,785.833 899.795,785.536 910.029,785.279 920.263,785.067 930.497,784.9 940.732,784.782 950.966,784.713 961.2,784.692 
  971.435,784.718 981.669,784.788 991.903,784.9 1002.14,785.051 1012.37,785.235 1022.61,785.448 1032.84,785.684 1043.07,785.939 1053.31,786.206 1063.54,786.479 
  1073.78,786.753 1084.01,787.021 1094.25,787.278 1104.48,787.518 1114.71,787.736 1124.95,787.928 1135.18,788.09 1145.42,788.217 1155.65,788.308 1165.89,788.36 
  1176.12,788.371 1186.35,788.34 1196.59,788.269 1206.82,788.158 1217.06,788.008 1227.29,787.822 1237.53,787.604 1247.76,787.356 1257.99,787.085 1268.23,786.794 
  1278.46,786.49 1288.7,786.18 1298.93,785.869 1309.17,785.564 1319.4,785.273 1329.63,785.002 1339.87,784.759 1350.1,784.551 1360.34,784.383 1370.57,784.263 
  1380.81,784.195 1391.04,784.185 1401.27,784.236 1411.51,784.352 1421.74,784.535 1431.98,784.785 1442.21,785.102 1452.45,785.484 1462.68,785.928 1472.91,786.429 
  1483.15,786.98 1493.38,787.574 1503.62,788.201 1513.85,788.849 1524.09,789.505 1534.32,790.154 1544.55,790.78 1554.79,791.365 1565.02,791.889 1575.26,792.332 
  1585.49,792.673 1595.73,792.887 1605.96,792.953 1616.19,792.845 1626.43,792.539 1636.66,792.01 1646.9,791.236 1657.13,790.191 1667.37,788.854 1677.6,787.203 
  1687.83,785.219 1698.07,782.885 1708.3,780.186 1718.54,777.111 1728.77,773.651 1739.01,769.803 1749.24,765.567 1759.47,760.948 1769.71,755.958 1779.94,750.613 
  1790.18,744.936 1800.41,738.956 1810.65,732.711 1820.88,726.245 1831.11,719.609 1841.35,712.864 1851.58,706.077 1861.82,699.324 1872.05,692.691 1882.29,686.269 
  1892.52,680.158 1902.75,674.468 1912.99,669.311 1923.22,664.811 1933.46,661.095 1943.69,658.292 1953.93,656.54 1964.16,655.974 1974.39,656.732 1984.63,658.95 
  1994.86,662.758 2005.1,668.281 2015.33,675.635 2025.57,684.923 2035.8,696.23 2046.03,709.622 2056.27,725.14 2066.5,742.792 2076.74,762.553 2086.97,784.355 
  2097.21,808.082 2107.44,833.56 2117.67,860.554 2127.91,888.752 2138.14,917.763 2148.38,947.102 2158.61,976.181 2168.85,1004.29 2179.08,1030.61 2189.31,1054.15 
  2199.55,1073.78 2209.78,1088.2 2220.02,1095.9 2230.25,1095.18 2240.49,1084.1 2250.72,1060.47 2260.95,1021.83 2271.19,965.425 2281.42,888.172 2291.66,786.644 
  
  "/>
<polyline clip-path="url(#clip572)" style="stroke:#00a8cb; stroke-linecap:butt; stroke-linejoin:round; stroke-width:12; stroke-opacity:1; fill:none" points="
  255.035,786.644 265.269,781.728 275.503,778.164 285.738,775.722 295.972,774.203 306.206,773.431 316.44,773.256 326.675,773.546 336.909,774.189 347.143,775.09 
  357.378,776.168 367.612,777.355 377.846,778.597 388.08,779.848 398.315,781.071 408.549,782.24 418.783,783.332 429.018,784.333 439.252,785.233 449.486,786.025 
  459.72,786.707 469.955,787.28 480.189,787.748 490.423,788.115 500.657,788.387 510.892,788.573 521.126,788.681 531.36,788.72 541.595,788.698 551.829,788.624 
  562.063,788.509 572.297,788.359 582.532,788.183 592.766,787.989 603,787.784 613.235,787.573 623.469,787.363 633.703,787.157 643.937,786.962 654.172,786.779 
  664.406,786.612 674.64,786.462 684.875,786.332 695.109,786.223 705.343,786.134 715.577,786.066 725.812,786.018 736.046,785.99 746.28,785.981 756.515,785.988 
  766.749,786.011 776.983,786.047 787.217,786.095 797.452,786.153 807.686,786.219 817.92,786.29 828.155,786.365 838.389,786.441 848.623,786.518 858.857,786.593 
  869.092,786.665 879.326,786.732 889.56,786.793 899.795,786.848 910.029,786.894 920.263,786.933 930.497,786.963 940.732,786.984 950.966,786.996 961.2,786.999 
  971.435,786.994 981.669,786.98 991.903,786.959 1002.14,786.931 1012.37,786.897 1022.61,786.859 1032.84,786.816 1043.07,786.77 1053.31,786.722 1063.54,786.673 
  1073.78,786.624 1084.01,786.577 1094.25,786.532 1104.48,786.49 1114.71,786.452 1124.95,786.418 1135.18,786.391 1145.42,786.369 1155.65,786.355 1165.89,786.346 
  1176.12,786.346 1186.35,786.352 1196.59,786.365 1206.82,786.385 1217.06,786.411 1227.29,786.444 1237.53,786.481 1247.76,786.524 1257.99,786.57 1268.23,786.618 
  1278.46,786.669 1288.7,786.72 1298.93,786.771 1309.17,786.821 1319.4,786.867 1329.63,786.91 1339.87,786.948 1350.1,786.98 1360.34,787.005 1370.57,787.022 
  1380.81,787.031 1391.04,787.03 1401.27,787.02 1411.51,786.999 1421.74,786.969 1431.98,786.928 1442.21,786.878 1452.45,786.819 1462.68,786.751 1472.91,786.676 
  1483.15,786.594 1493.38,786.508 1503.62,786.418 1513.85,786.327 1524.09,786.237 1534.32,786.15 1544.55,786.069 1554.79,785.995 1565.02,785.932 1575.26,785.882 
  1585.49,785.847 1595.73,785.83 1605.96,785.834 1616.19,785.86 1626.43,785.912 1636.66,785.989 1646.9,786.094 1657.13,786.228 1667.37,786.39 1677.6,786.581 
  1687.83,786.799 1698.07,787.043 1708.3,787.309 1718.54,787.594 1728.77,787.894 1739.01,788.202 1749.24,788.511 1759.47,788.814 1769.71,789.099 1779.94,789.357 
  1790.18,789.574 1800.41,789.736 1810.65,789.828 1820.88,789.832 1831.11,789.73 1841.35,789.501 1851.58,789.124 1861.82,788.575 1872.05,787.831 1882.29,786.866 
  1892.52,785.652 1902.75,784.165 1912.99,782.374 1923.22,780.254 1933.46,777.775 1943.69,774.911 1953.93,771.636 1964.16,767.925 1974.39,763.756 1984.63,759.11 
  1994.86,753.97 2005.1,748.326 2015.33,742.171 2025.57,735.505 2035.8,728.338 2046.03,720.685 2056.27,712.574 2066.5,704.044 2076.74,695.147 2086.97,685.951 
  2097.21,676.541 2107.44,667.019 2117.67,657.513 2127.91,648.172 2138.14,639.171 2148.38,630.717 2158.61,623.049 2168.85,616.441 2179.08,611.207 2189.31,607.705 
  2199.55,606.34 2209.78,607.569 2220.02,611.904 2230.25,619.92 2240.49,632.26 2250.72,649.635 2260.95,672.839 2271.19,702.746 2281.42,740.326 2291.66,786.644 
  
  "/>
<polyline clip-path="url(#clip572)" style="stroke:#9b7fe8; stroke-linecap:butt; stroke-linejoin:round; stroke-width:12; stroke-opacity:1; fill:none" points="
  255.035,786.644 265.269,787.086 275.503,787.406 285.738,787.625 295.972,787.761 306.206,787.829 316.44,787.844 326.675,787.818 336.909,787.759 347.143,787.678 
  357.378,787.581 367.612,787.474 377.846,787.363 388.08,787.25 398.315,787.141 408.549,787.036 418.783,786.939 429.018,786.849 439.252,786.769 449.486,786.699 
  459.72,786.638 469.955,786.587 480.189,786.546 490.423,786.513 500.657,786.489 510.892,786.473 521.126,786.463 531.36,786.46 541.595,786.462 551.829,786.469 
  562.063,786.479 572.297,786.492 582.532,786.508 592.766,786.525 603,786.543 613.235,786.562 623.469,786.58 633.703,786.599 643.937,786.616 654.172,786.632 
  664.406,786.646 674.64,786.659 684.875,786.671 695.109,786.68 705.343,786.688 715.577,786.694 725.812,786.698 736.046,786.7 746.28,786.701 756.515,786.7 
  766.749,786.698 776.983,786.695 787.217,786.691 797.452,786.686 807.686,786.68 817.92,786.674 828.155,786.668 838.389,786.661 848.623,786.654 858.857,786.648 
  869.092,786.642 879.326,786.636 889.56,786.631 899.795,786.626 910.029,786.622 920.263,786.619 930.497,786.616 940.732,786.615 950.966,786.614 961.2,786.613 
  971.435,786.614 981.669,786.615 991.903,786.617 1002.14,786.619 1012.37,786.622 1022.61,786.626 1032.84,786.629 1043.07,786.633 1053.31,786.637 1063.54,786.641 
  1073.78,786.645 1084.01,786.649 1094.25,786.653 1104.48,786.656 1114.71,786.659 1124.95,786.662 1135.18,786.664 1145.42,786.666 1155.65,786.667 1165.89,786.668 
  1176.12,786.668 1186.35,786.667 1196.59,786.666 1206.82,786.665 1217.06,786.662 1227.29,786.66 1237.53,786.657 1247.76,786.653 1257.99,786.65 1268.23,786.646 
  1278.46,786.642 1288.7,786.637 1298.93,786.633 1309.17,786.63 1319.4,786.626 1329.63,786.623 1339.87,786.62 1350.1,786.617 1360.34,786.615 1370.57,786.614 
  1380.81,786.614 1391.04,786.614 1401.27,786.615 1411.51,786.616 1421.74,786.619 1431.98,786.622 1442.21,786.626 1452.45,786.63 1462.68,786.635 1472.91,786.641 
  1483.15,786.647 1493.38,786.654 1503.62,786.66 1513.85,786.667 1524.09,786.673 1534.32,786.68 1544.55,786.685 1554.79,786.691 1565.02,786.695 1575.26,786.698 
  1585.49,786.7 1595.73,786.701 1605.96,786.701 1616.19,786.698 1626.43,786.694 1636.66,786.689 1646.9,786.681 1657.13,786.672 1667.37,786.661 1677.6,786.648 
  1687.83,786.633 1698.07,786.617 1708.3,786.6 1718.54,786.582 1728.77,786.564 1739.01,786.545 1749.24,786.527 1759.47,786.51 1769.71,786.494 1779.94,786.48 
  1790.18,786.47 1800.41,786.463 1810.65,786.46 1820.88,786.463 1831.11,786.471 1841.35,786.487 1851.58,786.51 1861.82,786.542 1872.05,786.582 1882.29,786.632 
  1892.52,786.692 1902.75,786.762 1912.99,786.841 1923.22,786.929 1933.46,787.026 1943.69,787.13 1953.93,787.239 1964.16,787.351 1974.39,787.463 1984.63,787.571 
  1994.86,787.669 2005.1,787.752 2015.33,787.813 2025.57,787.843 2035.8,787.833 2046.03,787.77 2056.27,787.642 2066.5,787.432 2076.74,787.123 2086.97,786.694 
  2097.21,786.122 2107.44,785.381 2117.67,784.441 2127.91,783.268 2138.14,781.826 2148.38,780.072 2158.61,777.961 2168.85,775.439 2179.08,772.449 2189.31,768.929 
  2199.55,764.807 2209.78,760.006 2220.02,754.442 2230.25,748.019 2240.49,740.637 2250.72,732.183 2260.95,722.533 2271.19,711.556 2281.42,699.103 2291.66,685.018 
  
  "/>
<path clip-path="url(#clip570)" d="
M1957.11 842.825 L2280.8 842.825 L2280.8 168.905 L1957.11 168.905  Z
  " fill="#ffffff" fill-rule="evenodd" fill-opacity="1"/>
<polyline clip-path="url(#clip570)" style="stroke:#000000; stroke-linecap:butt; stroke-linejoin:round; stroke-width:4; stroke-opacity:1; fill:none" points="
  1957.11,842.825 2280.8,842.825 2280.8,168.905 1957.11,168.905 1957.11,842.825 
  "/>
<circle clip-path="url(#clip570)" cx="2053.05" cy="220.745" r="23.04" fill="#009af9" fill-rule="evenodd" fill-opacity="1" stroke="#000000" stroke-opacity="1" stroke-width="5.12"/>
<path clip-path="url(#clip570)" d="M2162.84 240.432 Q2161.04 245.062 2159.33 246.474 Q2157.61 247.886 2154.74 247.886 L2151.34 247.886 L2151.34 244.321 L2153.84 244.321 Q2155.6 244.321 2156.57 243.488 Q2157.54 242.654 2158.72 239.552 L2159.49 237.608 L2149 212.099 L2153.52 212.099 L2161.62 232.377 L2169.72 212.099 L2174.23 212.099 L2162.84 240.432 Z" fill="#000000" fill-rule="evenodd" fill-opacity="1" /><path clip-path="url(#clip570)" d="M2181.53 234.089 L2189.16 234.089 L2189.16 207.724 L2180.85 209.391 L2180.85 205.131 L2189.12 203.465 L2193.79 203.465 L2193.79 234.089 L2201.43 234.089 L2201.43 238.025 L2181.53 238.025 L2181.53 234.089 Z" fill="#000000" fill-rule="evenodd" fill-opacity="1" /><polyline clip-path="url(#clip570)" style="stroke:#e26f46; stroke-linecap:butt; stroke-linejoin:round; stroke-width:4; stroke-opacity:1; fill:none" points="
  1981.09,272.585 2125.02,272.585 
  "/>
<path clip-path="url(#clip570)" d="M2162.84 292.272 Q2161.04 296.902 2159.33 298.314 Q2157.61 299.726 2154.74 299.726 L2151.34 299.726 L2151.34 296.161 L2153.84 296.161 Q2155.6 296.161 2156.57 295.328 Q2157.54 294.494 2158.72 291.392 L2159.49 289.448 L2149 263.939 L2153.52 263.939 L2161.62 284.217 L2169.72 263.939 L2174.23 263.939 L2162.84 292.272 Z" fill="#000000" fill-rule="evenodd" fill-opacity="1" /><path clip-path="url(#clip570)" d="M2184.74 285.929 L2201.06 285.929 L2201.06 289.865 L2179.12 289.865 L2179.12 285.929 Q2181.78 283.175 2186.36 278.545 Q2190.97 273.893 2192.15 272.55 Q2194.4 270.027 2195.28 268.291 Q2196.18 266.531 2196.18 264.842 Q2196.18 262.087 2194.23 260.351 Q2192.31 258.615 2189.21 258.615 Q2187.01 258.615 2184.56 259.379 Q2182.13 260.143 2179.35 261.694 L2179.35 256.971 Q2182.17 255.837 2184.63 255.258 Q2187.08 254.68 2189.12 254.68 Q2194.49 254.68 2197.68 257.365 Q2200.88 260.05 2200.88 264.541 Q2200.88 266.67 2200.07 268.592 Q2199.28 270.49 2197.17 273.082 Q2196.59 273.754 2193.49 276.971 Q2190.39 280.166 2184.74 285.929 Z" fill="#000000" fill-rule="evenodd" fill-opacity="1" /><polyline clip-path="url(#clip570)" style="stroke:#3da44d; stroke-linecap:butt; stroke-linejoin:round; stroke-width:4; stroke-opacity:1; fill:none" points="
  1981.09,324.425 2125.02,324.425 
  "/>
<path clip-path="url(#clip570)" d="M2162.84 344.112 Q2161.04 348.742 2159.33 350.154 Q2157.61 351.566 2154.74 351.566 L2151.34 351.566 L2151.34 348.001 L2153.84 348.001 Q2155.6 348.001 2156.57 347.168 Q2157.54 346.334 2158.72 343.232 L2159.49 341.288 L2149 315.779 L2153.52 315.779 L2161.62 336.057 L2169.72 315.779 L2174.23 315.779 L2162.84 344.112 Z" fill="#000000" fill-rule="evenodd" fill-opacity="1" /><path clip-path="url(#clip570)" d="M2194.88 323.07 Q2198.24 323.788 2200.11 326.057 Q2202.01 328.325 2202.01 331.658 Q2202.01 336.774 2198.49 339.575 Q2194.97 342.376 2188.49 342.376 Q2186.32 342.376 2184 341.936 Q2181.71 341.519 2179.26 340.663 L2179.26 336.149 Q2181.2 337.283 2183.52 337.862 Q2185.83 338.441 2188.35 338.441 Q2192.75 338.441 2195.04 336.705 Q2197.36 334.969 2197.36 331.658 Q2197.36 328.603 2195.21 326.89 Q2193.08 325.154 2189.26 325.154 L2185.23 325.154 L2185.23 321.311 L2189.44 321.311 Q2192.89 321.311 2194.72 319.946 Q2196.55 318.557 2196.55 315.964 Q2196.55 313.302 2194.65 311.89 Q2192.78 310.455 2189.26 310.455 Q2187.34 310.455 2185.14 310.871 Q2182.94 311.288 2180.3 312.168 L2180.3 308.001 Q2182.96 307.26 2185.28 306.89 Q2187.61 306.52 2189.67 306.52 Q2195 306.52 2198.1 308.95 Q2201.2 311.358 2201.2 315.478 Q2201.2 318.348 2199.56 320.339 Q2197.91 322.307 2194.88 323.07 Z" fill="#000000" fill-rule="evenodd" fill-opacity="1" /><polyline clip-path="url(#clip570)" style="stroke:#c271d2; stroke-linecap:butt; stroke-linejoin:round; stroke-width:4; stroke-opacity:1; fill:none" points="
  1981.09,376.265 2125.02,376.265 
  "/>
<path clip-path="url(#clip570)" d="M2162.84 395.952 Q2161.04 400.582 2159.33 401.994 Q2157.61 403.406 2154.74 403.406 L2151.34 403.406 L2151.34 399.841 L2153.84 399.841 Q2155.6 399.841 2156.57 399.008 Q2157.54 398.174 2158.72 395.072 L2159.49 393.128 L2149 367.619 L2153.52 367.619 L2161.62 387.897 L2169.72 367.619 L2174.23 367.619 L2162.84 395.952 Z" fill="#000000" fill-rule="evenodd" fill-opacity="1" /><path clip-path="url(#clip570)" d="M2193.56 363.059 L2181.76 381.508 L2193.56 381.508 L2193.56 363.059 M2192.34 358.985 L2198.22 358.985 L2198.22 381.508 L2203.15 381.508 L2203.15 385.397 L2198.22 385.397 L2198.22 393.545 L2193.56 393.545 L2193.56 385.397 L2177.96 385.397 L2177.96 380.883 L2192.34 358.985 Z" fill="#000000" fill-rule="evenodd" fill-opacity="1" /><polyline clip-path="url(#clip570)" style="stroke:#ac8d18; stroke-linecap:butt; stroke-linejoin:round; stroke-width:4; stroke-opacity:1; fill:none" points="
  1981.09,428.105 2125.02,428.105 
  "/>
<path clip-path="url(#clip570)" d="M2162.84 447.792 Q2161.04 452.422 2159.33 453.834 Q2157.61 455.246 2154.74 455.246 L2151.34 455.246 L2151.34 451.681 L2153.84 451.681 Q2155.6 451.681 2156.57 450.848 Q2157.54 450.014 2158.72 446.912 L2159.49 444.968 L2149 419.459 L2153.52 419.459 L2161.62 439.737 L2169.72 419.459 L2174.23 419.459 L2162.84 447.792 Z" fill="#000000" fill-rule="evenodd" fill-opacity="1" /><path clip-path="url(#clip570)" d="M2180.76 410.825 L2199.12 410.825 L2199.12 414.76 L2185.04 414.76 L2185.04 423.232 Q2186.06 422.885 2187.08 422.723 Q2188.1 422.538 2189.12 422.538 Q2194.91 422.538 2198.28 425.709 Q2201.66 428.88 2201.66 434.297 Q2201.66 439.875 2198.19 442.977 Q2194.72 446.056 2188.4 446.056 Q2186.22 446.056 2183.96 445.686 Q2181.71 445.315 2179.3 444.574 L2179.3 439.875 Q2181.39 441.01 2183.61 441.565 Q2185.83 442.121 2188.31 442.121 Q2192.31 442.121 2194.65 440.014 Q2196.99 437.908 2196.99 434.297 Q2196.99 430.686 2194.65 428.579 Q2192.31 426.473 2188.31 426.473 Q2186.43 426.473 2184.56 426.889 Q2182.71 427.306 2180.76 428.186 L2180.76 410.825 Z" fill="#000000" fill-rule="evenodd" fill-opacity="1" /><polyline clip-path="url(#clip570)" style="stroke:#00a9ad; stroke-linecap:butt; stroke-linejoin:round; stroke-width:4; stroke-opacity:1; fill:none" points="
  1981.09,479.945 2125.02,479.945 
  "/>
<path clip-path="url(#clip570)" d="M2162.84 499.632 Q2161.04 504.262 2159.33 505.674 Q2157.61 507.086 2154.74 507.086 L2151.34 507.086 L2151.34 503.521 L2153.84 503.521 Q2155.6 503.521 2156.57 502.688 Q2157.54 501.854 2158.72 498.752 L2159.49 496.808 L2149 471.299 L2153.52 471.299 L2161.62 491.577 L2169.72 471.299 L2174.23 471.299 L2162.84 499.632 Z" fill="#000000" fill-rule="evenodd" fill-opacity="1" /><path clip-path="url(#clip570)" d="M2191.29 478.081 Q2188.15 478.081 2186.29 480.234 Q2184.47 482.387 2184.47 486.137 Q2184.47 489.864 2186.29 492.039 Q2188.15 494.192 2191.29 494.192 Q2194.44 494.192 2196.27 492.039 Q2198.12 489.864 2198.12 486.137 Q2198.12 482.387 2196.27 480.234 Q2194.44 478.081 2191.29 478.081 M2200.58 463.429 L2200.58 467.688 Q2198.82 466.854 2197.01 466.415 Q2195.23 465.975 2193.47 465.975 Q2188.84 465.975 2186.39 469.1 Q2183.96 472.225 2183.61 478.544 Q2184.97 476.53 2187.03 475.466 Q2189.09 474.378 2191.57 474.378 Q2196.78 474.378 2199.79 477.549 Q2202.82 480.697 2202.82 486.137 Q2202.82 491.461 2199.67 494.678 Q2196.53 497.896 2191.29 497.896 Q2185.3 497.896 2182.13 493.313 Q2178.96 488.706 2178.96 479.979 Q2178.96 471.785 2182.84 466.924 Q2186.73 462.04 2193.28 462.04 Q2195.04 462.04 2196.83 462.387 Q2198.63 462.734 2200.58 463.429 Z" fill="#000000" fill-rule="evenodd" fill-opacity="1" /><polyline clip-path="url(#clip570)" style="stroke:#ed5d92; stroke-linecap:butt; stroke-linejoin:round; stroke-width:4; stroke-opacity:1; fill:none" points="
  1981.09,531.785 2125.02,531.785 
  "/>
<path clip-path="url(#clip570)" d="M2162.84 551.472 Q2161.04 556.102 2159.33 557.514 Q2157.61 558.926 2154.74 558.926 L2151.34 558.926 L2151.34 555.361 L2153.84 555.361 Q2155.6 555.361 2156.57 554.528 Q2157.54 553.694 2158.72 550.592 L2159.49 548.648 L2149 523.139 L2153.52 523.139 L2161.62 543.417 L2169.72 523.139 L2174.23 523.139 L2162.84 551.472 Z" fill="#000000" fill-rule="evenodd" fill-opacity="1" /><path clip-path="url(#clip570)" d="M2179.53 514.505 L2201.76 514.505 L2201.76 516.495 L2189.21 549.065 L2184.33 549.065 L2196.13 518.44 L2179.53 518.44 L2179.53 514.505 Z" fill="#000000" fill-rule="evenodd" fill-opacity="1" /><polyline clip-path="url(#clip570)" style="stroke:#c68125; stroke-linecap:butt; stroke-linejoin:round; stroke-width:4; stroke-opacity:1; fill:none" points="
  1981.09,583.625 2125.02,583.625 
  "/>
<path clip-path="url(#clip570)" d="M2162.84 603.312 Q2161.04 607.942 2159.33 609.354 Q2157.61 610.766 2154.74 610.766 L2151.34 610.766 L2151.34 607.201 L2153.84 607.201 Q2155.6 607.201 2156.57 606.368 Q2157.54 605.534 2158.72 602.432 L2159.49 600.488 L2149 574.979 L2153.52 574.979 L2161.62 595.257 L2169.72 574.979 L2174.23 574.979 L2162.84 603.312 Z" fill="#000000" fill-rule="evenodd" fill-opacity="1" /><path clip-path="url(#clip570)" d="M2190.72 584.493 Q2187.38 584.493 2185.46 586.275 Q2183.56 588.057 2183.56 591.182 Q2183.56 594.307 2185.46 596.09 Q2187.38 597.872 2190.72 597.872 Q2194.05 597.872 2195.97 596.09 Q2197.89 594.284 2197.89 591.182 Q2197.89 588.057 2195.97 586.275 Q2194.07 584.493 2190.72 584.493 M2186.04 582.502 Q2183.03 581.761 2181.34 579.701 Q2179.67 577.641 2179.67 574.678 Q2179.67 570.534 2182.61 568.127 Q2185.58 565.72 2190.72 565.72 Q2195.88 565.72 2198.82 568.127 Q2201.76 570.534 2201.76 574.678 Q2201.76 577.641 2200.07 579.701 Q2198.4 581.761 2195.41 582.502 Q2198.79 583.289 2200.67 585.581 Q2202.57 587.872 2202.57 591.182 Q2202.57 596.206 2199.49 598.891 Q2196.43 601.576 2190.72 601.576 Q2185 601.576 2181.92 598.891 Q2178.86 596.206 2178.86 591.182 Q2178.86 587.872 2180.76 585.581 Q2182.66 583.289 2186.04 582.502 M2184.33 575.118 Q2184.33 577.803 2185.99 579.308 Q2187.68 580.812 2190.72 580.812 Q2193.72 580.812 2195.41 579.308 Q2197.13 577.803 2197.13 575.118 Q2197.13 572.433 2195.41 570.928 Q2193.72 569.423 2190.72 569.423 Q2187.68 569.423 2185.99 570.928 Q2184.33 572.433 2184.33 575.118 Z" fill="#000000" fill-rule="evenodd" fill-opacity="1" /><polyline clip-path="url(#clip570)" style="stroke:#00a98d; stroke-linecap:butt; stroke-linejoin:round; stroke-width:4; stroke-opacity:1; fill:none" points="
  1981.09,635.465 2125.02,635.465 
  "/>
<path clip-path="url(#clip570)" d="M2162.84 655.152 Q2161.04 659.782 2159.33 661.194 Q2157.61 662.606 2154.74 662.606 L2151.34 662.606 L2151.34 659.041 L2153.84 659.041 Q2155.6 659.041 2156.57 658.208 Q2157.54 657.374 2158.72 654.272 L2159.49 652.328 L2149 626.819 L2153.52 626.819 L2161.62 647.097 L2169.72 626.819 L2174.23 626.819 L2162.84 655.152 Z" fill="#000000" fill-rule="evenodd" fill-opacity="1" /><path clip-path="url(#clip570)" d="M2180.85 652.027 L2180.85 647.768 Q2182.61 648.601 2184.42 649.041 Q2186.22 649.481 2187.96 649.481 Q2192.59 649.481 2195.02 646.379 Q2197.47 643.254 2197.82 636.911 Q2196.48 638.902 2194.42 639.967 Q2192.36 641.032 2189.86 641.032 Q2184.67 641.032 2181.64 637.907 Q2178.63 634.759 2178.63 629.319 Q2178.63 623.995 2181.78 620.777 Q2184.93 617.56 2190.16 617.56 Q2196.15 617.56 2199.3 622.166 Q2202.47 626.749 2202.47 635.499 Q2202.47 643.671 2198.59 648.555 Q2194.72 653.416 2188.17 653.416 Q2186.41 653.416 2184.6 653.069 Q2182.8 652.722 2180.85 652.027 M2190.16 637.374 Q2193.31 637.374 2195.14 635.222 Q2196.99 633.069 2196.99 629.319 Q2196.99 625.592 2195.14 623.439 Q2193.31 621.263 2190.16 621.263 Q2187.01 621.263 2185.16 623.439 Q2183.33 625.592 2183.33 629.319 Q2183.33 633.069 2185.16 635.222 Q2187.01 637.374 2190.16 637.374 Z" fill="#000000" fill-rule="evenodd" fill-opacity="1" /><polyline clip-path="url(#clip570)" style="stroke:#8e971d; stroke-linecap:butt; stroke-linejoin:round; stroke-width:4; stroke-opacity:1; fill:none" points="
  1981.09,687.305 2125.02,687.305 
  "/>
<path clip-path="url(#clip570)" d="M2162.84 706.992 Q2161.04 711.622 2159.33 713.034 Q2157.61 714.446 2154.74 714.446 L2151.34 714.446 L2151.34 710.881 L2153.84 710.881 Q2155.6 710.881 2156.57 710.048 Q2157.54 709.214 2158.72 706.112 L2159.49 704.168 L2149 678.659 L2153.52 678.659 L2161.62 698.937 L2169.72 678.659 L2174.23 678.659 L2162.84 706.992 Z" fill="#000000" fill-rule="evenodd" fill-opacity="1" /><path clip-path="url(#clip570)" d="M2181.53 700.649 L2189.16 700.649 L2189.16 674.284 L2180.85 675.951 L2180.85 671.691 L2189.12 670.025 L2193.79 670.025 L2193.79 700.649 L2201.43 700.649 L2201.43 704.585 L2181.53 704.585 L2181.53 700.649 Z" fill="#000000" fill-rule="evenodd" fill-opacity="1" /><path clip-path="url(#clip570)" d="M2220.88 673.103 Q2217.27 673.103 2215.44 676.668 Q2213.63 680.21 2213.63 687.339 Q2213.63 694.446 2215.44 698.011 Q2217.27 701.552 2220.88 701.552 Q2224.51 701.552 2226.32 698.011 Q2228.15 694.446 2228.15 687.339 Q2228.15 680.21 2226.32 676.668 Q2224.51 673.103 2220.88 673.103 M2220.88 669.4 Q2226.69 669.4 2229.74 674.006 Q2232.82 678.589 2232.82 687.339 Q2232.82 696.066 2229.74 700.673 Q2226.69 705.256 2220.88 705.256 Q2215.07 705.256 2211.99 700.673 Q2208.93 696.066 2208.93 687.339 Q2208.93 678.589 2211.99 674.006 Q2215.07 669.4 2220.88 669.4 Z" fill="#000000" fill-rule="evenodd" fill-opacity="1" /><polyline clip-path="url(#clip570)" style="stroke:#00a8cb; stroke-linecap:butt; stroke-linejoin:round; stroke-width:4; stroke-opacity:1; fill:none" points="
  1981.09,739.145 2125.02,739.145 
  "/>
<path clip-path="url(#clip570)" d="M2162.84 758.832 Q2161.04 763.462 2159.33 764.874 Q2157.61 766.286 2154.74 766.286 L2151.34 766.286 L2151.34 762.721 L2153.84 762.721 Q2155.6 762.721 2156.57 761.888 Q2157.54 761.054 2158.72 757.952 L2159.49 756.008 L2149 730.499 L2153.52 730.499 L2161.62 750.777 L2169.72 730.499 L2174.23 730.499 L2162.84 758.832 Z" fill="#000000" fill-rule="evenodd" fill-opacity="1" /><path clip-path="url(#clip570)" d="M2181.53 752.489 L2189.16 752.489 L2189.16 726.124 L2180.85 727.791 L2180.85 723.531 L2189.12 721.865 L2193.79 721.865 L2193.79 752.489 L2201.43 752.489 L2201.43 756.425 L2181.53 756.425 L2181.53 752.489 Z" fill="#000000" fill-rule="evenodd" fill-opacity="1" /><path clip-path="url(#clip570)" d="M2211.69 752.489 L2219.33 752.489 L2219.33 726.124 L2211.02 727.791 L2211.02 723.531 L2219.28 721.865 L2223.96 721.865 L2223.96 752.489 L2231.59 752.489 L2231.59 756.425 L2211.69 756.425 L2211.69 752.489 Z" fill="#000000" fill-rule="evenodd" fill-opacity="1" /><polyline clip-path="url(#clip570)" style="stroke:#9b7fe8; stroke-linecap:butt; stroke-linejoin:round; stroke-width:4; stroke-opacity:1; fill:none" points="
  1981.09,790.985 2125.02,790.985 
  "/>
<path clip-path="url(#clip570)" d="M2162.84 810.672 Q2161.04 815.302 2159.33 816.714 Q2157.61 818.126 2154.74 818.126 L2151.34 818.126 L2151.34 814.561 L2153.84 814.561 Q2155.6 814.561 2156.57 813.728 Q2157.54 812.894 2158.72 809.792 L2159.49 807.848 L2149 782.339 L2153.52 782.339 L2161.62 802.617 L2169.72 782.339 L2174.23 782.339 L2162.84 810.672 Z" fill="#000000" fill-rule="evenodd" fill-opacity="1" /><path clip-path="url(#clip570)" d="M2181.53 804.329 L2189.16 804.329 L2189.16 777.964 L2180.85 779.631 L2180.85 775.371 L2189.12 773.705 L2193.79 773.705 L2193.79 804.329 L2201.43 804.329 L2201.43 808.265 L2181.53 808.265 L2181.53 804.329 Z" fill="#000000" fill-rule="evenodd" fill-opacity="1" /><path clip-path="url(#clip570)" d="M2214.9 804.329 L2231.22 804.329 L2231.22 808.265 L2209.28 808.265 L2209.28 804.329 Q2211.94 801.575 2216.53 796.945 Q2221.13 792.293 2222.31 790.95 Q2224.56 788.427 2225.44 786.691 Q2226.34 784.931 2226.34 783.242 Q2226.34 780.487 2224.4 778.751 Q2222.47 777.015 2219.37 777.015 Q2217.17 777.015 2214.72 777.779 Q2212.29 778.543 2209.51 780.094 L2209.51 775.371 Q2212.34 774.237 2214.79 773.658 Q2217.24 773.08 2219.28 773.08 Q2224.65 773.08 2227.84 775.765 Q2231.04 778.45 2231.04 782.941 Q2231.04 785.07 2230.23 786.992 Q2229.44 788.89 2227.34 791.482 Q2226.76 792.154 2223.65 795.371 Q2220.55 798.566 2214.9 804.329 Z" fill="#000000" fill-rule="evenodd" fill-opacity="1" /></svg>
