<?xml version="1.0" encoding="utf-8"?>
<svg xmlns="http://www.w3.org/2000/svg" xmlns:xlink="http://www.w3.org/1999/xlink" width="600" height="400" viewBox="0 0 2400 1600">
<defs>
  <clipPath id="clip450">
    <rect x="0" y="0" width="2400" height="1600"/>
  </clipPath>
</defs>
<path clip-path="url(#clip450)" d="
M0 1600 L2400 1600 L2400 0 L0 0  Z
  " fill="#ffffff" fill-rule="evenodd" fill-opacity="1"/>
<defs>
  <clipPath id="clip451">
    <rect x="480" y="0" width="1681" height="1600"/>
  </clipPath>
</defs>
<defs>
  <clipPath id="clip452">
    <rect x="193" y="123" width="2160" height="1364"/>
  </clipPath>
</defs>
<path clip-path="url(#clip450)" d="
M189.496 1474.16 L2352.76 1474.16 L2352.76 47.2441 L189.496 47.2441  Z
  " fill="#ffffff" fill-rule="evenodd" fill-opacity="1"/>
<defs>
  <clipPath id="clip453">
    <rect x="189" y="47" width="2164" height="1428"/>
  </clipPath>
</defs>
<polyline clip-path="url(#clip453)" style="stroke:#000000; stroke-linecap:butt; stroke-linejoin:round; stroke-width:2; stroke-opacity:0.1; fill:none" points="
  344.577,1474.16 344.577,47.2441 
  "/>
<polyline clip-path="url(#clip453)" style="stroke:#000000; stroke-linecap:butt; stroke-linejoin:round; stroke-width:2; stroke-opacity:0.1; fill:none" points="
  1313.07,1474.16 1313.07,47.2441 
  "/>
<polyline clip-path="url(#clip453)" style="stroke:#000000; stroke-linecap:butt; stroke-linejoin:round; stroke-width:2; stroke-opacity:0.1; fill:none" points="
  2281.56,1474.16 2281.56,47.2441 
  "/>
<polyline clip-path="url(#clip450)" style="stroke:#000000; stroke-linecap:butt; stroke-linejoin:round; stroke-width:4; stroke-opacity:1; fill:none" points="
  189.496,1474.16 2352.76,1474.16 
  "/>
<polyline clip-path="url(#clip450)" style="stroke:#000000; stroke-linecap:butt; stroke-linejoin:round; stroke-width:4; stroke-opacity:1; fill:none" points="
  344.577,1474.16 344.577,1455.27 
  "/>
<polyline clip-path="url(#clip450)" style="stroke:#000000; stroke-linecap:butt; stroke-linejoin:round; stroke-width:4; stroke-opacity:1; fill:none" points="
  1313.07,1474.16 1313.07,1455.27 
  "/>
<polyline clip-path="url(#clip450)" style="stroke:#000000; stroke-linecap:butt; stroke-linejoin:round; stroke-width:4; stroke-opacity:1; fill:none" points="
  2281.56,1474.16 2281.56,1455.27 
  "/>
<path clip-path="url(#clip450)" d="M310.904 1548.29 L318.543 1548.29 L318.543 1521.92 L310.233 1523.59 L310.233 1519.33 L318.497 1517.66 L323.173 1517.66 L323.173 1548.29 L330.811 1548.29 L330.811 1552.22 L310.904 1552.22 L310.904 1548.29 Z" fill="#000000" fill-rule="evenodd" fill-opacity="1" /><path clip-path="url(#clip450)" d="M350.256 1520.74 Q346.645 1520.74 344.816 1524.31 Q343.011 1527.85 343.011 1534.98 Q343.011 1542.09 344.816 1545.65 Q346.645 1549.19 350.256 1549.19 Q353.89 1549.19 355.696 1545.65 Q357.524 1542.09 357.524 1534.98 Q357.524 1527.85 355.696 1524.31 Q353.89 1520.74 350.256 1520.74 M350.256 1517.04 Q356.066 1517.04 359.122 1521.65 Q362.2 1526.23 362.2 1534.98 Q362.2 1543.71 359.122 1548.31 Q356.066 1552.9 350.256 1552.9 Q344.446 1552.9 341.367 1548.31 Q338.311 1543.71 338.311 1534.98 Q338.311 1526.23 341.367 1521.65 Q344.446 1517.04 350.256 1517.04 Z" fill="#000000" fill-rule="evenodd" fill-opacity="1" /><path clip-path="url(#clip450)" d="M362.746 1521.62 L368.952 1521.62 L368.952 1500.19 L362.2 1501.55 L362.2 1498.09 L368.915 1496.73 L372.714 1496.73 L372.714 1521.62 L378.92 1521.62 L378.92 1524.81 L362.746 1524.81 L362.746 1521.62 Z" fill="#000000" fill-rule="evenodd" fill-opacity="1" /><path clip-path="url(#clip450)" d="M1278.84 1548.29 L1286.48 1548.29 L1286.48 1521.92 L1278.17 1523.59 L1278.17 1519.33 L1286.43 1517.66 L1291.11 1517.66 L1291.11 1548.29 L1298.75 1548.29 L1298.75 1552.22 L1278.84 1552.22 L1278.84 1548.29 Z" fill="#000000" fill-rule="evenodd" fill-opacity="1" /><path clip-path="url(#clip450)" d="M1318.19 1520.74 Q1314.58 1520.74 1312.75 1524.31 Q1310.95 1527.85 1310.95 1534.98 Q1310.95 1542.09 1312.75 1545.65 Q1314.58 1549.19 1318.19 1549.19 Q1321.83 1549.19 1323.63 1545.65 Q1325.46 1542.09 1325.46 1534.98 Q1325.46 1527.85 1323.63 1524.31 Q1321.83 1520.74 1318.19 1520.74 M1318.19 1517.04 Q1324 1517.04 1327.06 1521.65 Q1330.14 1526.23 1330.14 1534.98 Q1330.14 1543.71 1327.06 1548.31 Q1324 1552.9 1318.19 1552.9 Q1312.38 1552.9 1309.3 1548.31 Q1306.25 1543.71 1306.25 1534.98 Q1306.25 1526.23 1309.3 1521.65 Q1312.38 1517.04 1318.19 1517.04 Z" fill="#000000" fill-rule="evenodd" fill-opacity="1" /><path clip-path="url(#clip450)" d="M1334.71 1521.62 L1347.96 1521.62 L1347.96 1524.81 L1330.14 1524.81 L1330.14 1521.62 Q1332.3 1519.38 1336.02 1515.62 Q1339.76 1511.84 1340.72 1510.75 Q1342.55 1508.7 1343.26 1507.29 Q1344 1505.86 1344 1504.48 Q1344 1502.24 1342.42 1500.83 Q1340.86 1499.42 1338.34 1499.42 Q1336.55 1499.42 1334.55 1500.04 Q1332.58 1500.67 1330.32 1501.93 L1330.32 1498.09 Q1332.62 1497.17 1334.61 1496.7 Q1336.61 1496.23 1338.26 1496.23 Q1342.62 1496.23 1345.22 1498.41 Q1347.81 1500.59 1347.81 1504.24 Q1347.81 1505.97 1347.16 1507.53 Q1346.52 1509.07 1344.81 1511.18 Q1344.34 1511.72 1341.81 1514.34 Q1339.29 1516.93 1334.71 1521.62 Z" fill="#000000" fill-rule="evenodd" fill-opacity="1" /><path clip-path="url(#clip450)" d="M2247 1548.29 L2254.64 1548.29 L2254.64 1521.92 L2246.33 1523.59 L2246.33 1519.33 L2254.59 1517.66 L2259.27 1517.66 L2259.27 1548.29 L2266.91 1548.29 L2266.91 1552.22 L2247 1552.22 L2247 1548.29 Z" fill="#000000" fill-rule="evenodd" fill-opacity="1" /><path clip-path="url(#clip450)" d="M2286.35 1520.74 Q2282.74 1520.74 2280.91 1524.31 Q2279.11 1527.85 2279.11 1534.98 Q2279.11 1542.09 2280.91 1545.65 Q2282.74 1549.19 2286.35 1549.19 Q2289.99 1549.19 2291.79 1545.65 Q2293.62 1542.09 2293.62 1534.98 Q2293.62 1527.85 2291.79 1524.31 Q2289.99 1520.74 2286.35 1520.74 M2286.35 1517.04 Q2292.16 1517.04 2295.22 1521.65 Q2298.3 1526.23 2298.3 1534.98 Q2298.3 1543.71 2295.22 1548.31 Q2292.16 1552.9 2286.35 1552.9 Q2280.54 1552.9 2277.46 1548.31 Q2274.41 1543.71 2274.41 1534.98 Q2274.41 1526.23 2277.46 1521.65 Q2280.54 1517.04 2286.35 1517.04 Z" fill="#000000" fill-rule="evenodd" fill-opacity="1" /><path clip-path="url(#clip450)" d="M2310.99 1509.67 Q2313.72 1510.26 2315.24 1512.1 Q2316.78 1513.94 2316.78 1516.65 Q2316.78 1520.81 2313.93 1523.08 Q2311.07 1525.36 2305.8 1525.36 Q2304.03 1525.36 2302.15 1525 Q2300.29 1524.66 2298.3 1523.97 L2298.3 1520.3 Q2299.88 1521.22 2301.76 1521.69 Q2303.64 1522.16 2305.69 1522.16 Q2309.26 1522.16 2311.12 1520.75 Q2313 1519.34 2313 1516.65 Q2313 1514.17 2311.25 1512.78 Q2309.52 1511.37 2306.42 1511.37 L2303.15 1511.37 L2303.15 1508.24 L2306.57 1508.24 Q2309.37 1508.24 2310.86 1507.13 Q2312.35 1506.01 2312.35 1503.9 Q2312.35 1501.74 2310.8 1500.59 Q2309.28 1499.42 2306.42 1499.42 Q2304.86 1499.42 2303.07 1499.76 Q2301.29 1500.1 2299.14 1500.82 L2299.14 1497.43 Q2301.31 1496.83 2303.19 1496.53 Q2305.09 1496.23 2306.76 1496.23 Q2311.09 1496.23 2313.61 1498.2 Q2316.13 1500.16 2316.13 1503.51 Q2316.13 1505.84 2314.79 1507.45 Q2313.45 1509.05 2310.99 1509.67 Z" fill="#000000" fill-rule="evenodd" fill-opacity="1" /><polyline clip-path="url(#clip453)" style="stroke:#000000; stroke-linecap:butt; stroke-linejoin:round; stroke-width:2; stroke-opacity:0.1; fill:none" points="
  189.496,1429.33 2352.76,1429.33 
  "/>
<polyline clip-path="url(#clip453)" style="stroke:#000000; stroke-linecap:butt; stroke-linejoin:round; stroke-width:2; stroke-opacity:0.1; fill:none" points="
  189.496,1213.46 2352.76,1213.46 
  "/>
<polyline clip-path="url(#clip453)" style="stroke:#000000; stroke-linecap:butt; stroke-linejoin:round; stroke-width:2; stroke-opacity:0.1; fill:none" points="
  189.496,997.596 2352.76,997.596 
  "/>
<polyline clip-path="url(#clip453)" style="stroke:#000000; stroke-linecap:butt; stroke-linejoin:round; stroke-width:2; stroke-opacity:0.1; fill:none" points="
  189.496,781.728 2352.76,781.728 
  "/>
<polyline clip-path="url(#clip453)" style="stroke:#000000; stroke-linecap:butt; stroke-linejoin:round; stroke-width:2; stroke-opacity:0.1; fill:none" points="
  189.496,565.859 2352.76,565.859 
  "/>
<polyline clip-path="url(#clip453)" style="stroke:#000000; stroke-linecap:butt; stroke-linejoin:round; stroke-width:2; stroke-opacity:0.1; fill:none" points="
  189.496,349.991 2352.76,349.991 
  "/>
<polyline clip-path="url(#clip453)" style="stroke:#000000; stroke-linecap:butt; stroke-linejoin:round; stroke-width:2; stroke-opacity:0.1; fill:none" points="
  189.496,134.122 2352.76,134.122 
  "/>
<polyline clip-path="url(#clip450)" style="stroke:#000000; stroke-linecap:butt; stroke-linejoin:round; stroke-width:4; stroke-opacity:1; fill:none" points="
  189.496,1474.16 189.496,47.2441 
  "/>
<polyline clip-path="url(#clip450)" style="stroke:#000000; stroke-linecap:butt; stroke-linejoin:round; stroke-width:4; stroke-opacity:1; fill:none" points="
  189.496,1429.33 208.394,1429.33 
  "/>
<polyline clip-path="url(#clip450)" style="stroke:#000000; stroke-linecap:butt; stroke-linejoin:round; stroke-width:4; stroke-opacity:1; fill:none" points="
  189.496,1213.46 208.394,1213.46 
  "/>
<polyline clip-path="url(#clip450)" style="stroke:#000000; stroke-linecap:butt; stroke-linejoin:round; stroke-width:4; stroke-opacity:1; fill:none" points="
  189.496,997.596 208.394,997.596 
  "/>
<polyline clip-path="url(#clip450)" style="stroke:#000000; stroke-linecap:butt; stroke-linejoin:round; stroke-width:4; stroke-opacity:1; fill:none" points="
  189.496,781.728 208.394,781.728 
  "/>
<polyline clip-path="url(#clip450)" style="stroke:#000000; stroke-linecap:butt; stroke-linejoin:round; stroke-width:4; stroke-opacity:1; fill:none" points="
  189.496,565.859 208.394,565.859 
  "/>
<polyline clip-path="url(#clip450)" style="stroke:#000000; stroke-linecap:butt; stroke-linejoin:round; stroke-width:4; stroke-opacity:1; fill:none" points="
  189.496,349.991 208.394,349.991 
  "/>
<polyline clip-path="url(#clip450)" style="stroke:#000000; stroke-linecap:butt; stroke-linejoin:round; stroke-width:4; stroke-opacity:1; fill:none" points="
  189.496,134.122 208.394,134.122 
  "/>
<path clip-path="url(#clip450)" d="M51.9267 1449.13 L59.5656 1449.13 L59.5656 1422.76 L51.2554 1424.43 L51.2554 1420.17 L59.5193 1418.5 L64.1952 1418.5 L64.1952 1449.13 L71.834 1449.13 L71.834 1453.06 L51.9267 1453.06 L51.9267 1449.13 Z" fill="#000000" fill-rule="evenodd" fill-opacity="1" /><path clip-path="url(#clip450)" d="M91.2784 1421.58 Q87.6673 1421.58 85.8386 1425.14 Q84.033 1428.69 84.033 1435.82 Q84.033 1442.92 85.8386 1446.49 Q87.6673 1450.03 91.2784 1450.03 Q94.9126 1450.03 96.7182 1446.49 Q98.5468 1442.92 98.5468 1435.82 Q98.5468 1428.69 96.7182 1425.14 Q94.9126 1421.58 91.2784 1421.58 M91.2784 1417.88 Q97.0885 1417.88 100.144 1422.48 Q103.223 1427.07 103.223 1435.82 Q103.223 1444.54 100.144 1449.15 Q97.0885 1453.73 91.2784 1453.73 Q85.4682 1453.73 82.3895 1449.15 Q79.334 1444.54 79.334 1435.82 Q79.334 1427.07 82.3895 1422.48 Q85.4682 1417.88 91.2784 1417.88 Z" fill="#000000" fill-rule="evenodd" fill-opacity="1" /><path clip-path="url(#clip450)" d="M103.223 1411.98 L127.334 1411.98 L127.334 1415.17 L103.223 1415.17 L103.223 1411.98 Z" fill="#000000" fill-rule="evenodd" fill-opacity="1" /><path clip-path="url(#clip450)" d="M144.13 1410.1 Q141.572 1410.1 140.067 1411.85 Q138.581 1413.59 138.581 1416.64 Q138.581 1419.67 140.067 1421.44 Q141.572 1423.19 144.13 1423.19 Q146.688 1423.19 148.173 1421.44 Q149.678 1419.67 149.678 1416.64 Q149.678 1413.59 148.173 1411.85 Q146.688 1410.1 144.13 1410.1 M151.672 1398.19 L151.672 1401.65 Q150.242 1400.97 148.775 1400.62 Q147.327 1400.26 145.898 1400.26 Q142.136 1400.26 140.142 1402.8 Q138.168 1405.34 137.885 1410.47 Q138.995 1408.84 140.669 1407.97 Q142.343 1407.09 144.355 1407.09 Q148.587 1407.09 151.032 1409.66 Q153.496 1412.22 153.496 1416.64 Q153.496 1420.97 150.938 1423.58 Q148.38 1426.2 144.13 1426.2 Q139.258 1426.2 136.682 1422.47 Q134.105 1418.73 134.105 1411.64 Q134.105 1404.98 137.265 1401.03 Q140.425 1397.06 145.747 1397.06 Q147.177 1397.06 148.625 1397.34 Q150.092 1397.63 151.672 1398.19 Z" fill="#000000" fill-rule="evenodd" fill-opacity="1" /><path clip-path="url(#clip450)" d="M52.8671 1233.26 L60.506 1233.26 L60.506 1206.89 L52.1958 1208.56 L52.1958 1204.3 L60.4597 1202.63 L65.1356 1202.63 L65.1356 1233.26 L72.7744 1233.26 L72.7744 1237.19 L52.8671 1237.19 L52.8671 1233.26 Z" fill="#000000" fill-rule="evenodd" fill-opacity="1" /><path clip-path="url(#clip450)" d="M92.2188 1205.71 Q88.6077 1205.71 86.779 1209.28 Q84.9734 1212.82 84.9734 1219.95 Q84.9734 1227.05 86.779 1230.62 Q88.6077 1234.16 92.2188 1234.16 Q95.853 1234.16 97.6585 1230.62 Q99.4872 1227.05 99.4872 1219.95 Q99.4872 1212.82 97.6585 1209.28 Q95.853 1205.71 92.2188 1205.71 M92.2188 1202.01 Q98.0289 1202.01 101.084 1206.61 Q104.163 1211.2 104.163 1219.95 Q104.163 1228.67 101.084 1233.28 Q98.0289 1237.86 92.2188 1237.86 Q86.4086 1237.86 83.3299 1233.28 Q80.2744 1228.67 80.2744 1219.95 Q80.2744 1211.2 83.3299 1206.61 Q86.4086 1202.01 92.2188 1202.01 Z" fill="#000000" fill-rule="evenodd" fill-opacity="1" /><path clip-path="url(#clip450)" d="M104.163 1196.11 L128.275 1196.11 L128.275 1199.31 L104.163 1199.31 L104.163 1196.11 Z" fill="#000000" fill-rule="evenodd" fill-opacity="1" /><path clip-path="url(#clip450)" d="M136.513 1181.7 L151.427 1181.7 L151.427 1184.9 L139.992 1184.9 L139.992 1191.78 Q140.819 1191.5 141.647 1191.37 Q142.475 1191.22 143.302 1191.22 Q148.004 1191.22 150.75 1193.8 Q153.496 1196.37 153.496 1200.77 Q153.496 1205.31 150.675 1207.83 Q147.854 1210.33 142.719 1210.33 Q140.951 1210.33 139.108 1210.03 Q137.284 1209.73 135.328 1209.12 L135.328 1205.31 Q137.02 1206.23 138.826 1206.68 Q140.631 1207.13 142.644 1207.13 Q145.898 1207.13 147.797 1205.42 Q149.697 1203.71 149.697 1200.77 Q149.697 1197.84 147.797 1196.13 Q145.898 1194.42 142.644 1194.42 Q141.12 1194.42 139.597 1194.75 Q138.092 1195.09 136.513 1195.81 L136.513 1181.7 Z" fill="#000000" fill-rule="evenodd" fill-opacity="1" /><path clip-path="url(#clip450)" d="M51.6634 1017.39 L59.3023 1017.39 L59.3023 991.023 L50.9921 992.69 L50.9921 988.43 L59.256 986.764 L63.9319 986.764 L63.9319 1017.39 L71.5707 1017.39 L71.5707 1021.32 L51.6634 1021.32 L51.6634 1017.39 Z" fill="#000000" fill-rule="evenodd" fill-opacity="1" /><path clip-path="url(#clip450)" d="M91.0151 989.842 Q87.404 989.842 85.5753 993.407 Q83.7697 996.949 83.7697 1004.08 Q83.7697 1011.18 85.5753 1014.75 Q87.404 1018.29 91.0151 1018.29 Q94.6493 1018.29 96.4548 1014.75 Q98.2835 1011.18 98.2835 1004.08 Q98.2835 996.949 96.4548 993.407 Q94.6493 989.842 91.0151 989.842 M91.0151 986.139 Q96.8252 986.139 99.8808 990.745 Q102.959 995.329 102.959 1004.08 Q102.959 1012.81 99.8808 1017.41 Q96.8252 1022 91.0151 1022 Q85.2049 1022 82.1262 1017.41 Q79.0707 1012.81 79.0707 1004.08 Q79.0707 995.329 82.1262 990.745 Q85.2049 986.139 91.0151 986.139 Z" fill="#000000" fill-rule="evenodd" fill-opacity="1" /><path clip-path="url(#clip450)" d="M102.959 980.24 L127.071 980.24 L127.071 983.437 L102.959 983.437 L102.959 980.24 Z" fill="#000000" fill-rule="evenodd" fill-opacity="1" /><path clip-path="url(#clip450)" d="M145.71 969.144 L136.118 984.133 L145.71 984.133 L145.71 969.144 M144.713 965.833 L149.49 965.833 L149.49 984.133 L153.496 984.133 L153.496 987.293 L149.49 987.293 L149.49 993.913 L145.71 993.913 L145.71 987.293 L133.033 987.293 L133.033 983.626 L144.713 965.833 Z" fill="#000000" fill-rule="evenodd" fill-opacity="1" /><path clip-path="url(#clip450)" d="M52.585 801.52 L60.2238 801.52 L60.2238 775.155 L51.9137 776.821 L51.9137 772.562 L60.1776 770.895 L64.8535 770.895 L64.8535 801.52 L72.4923 801.52 L72.4923 805.455 L52.585 805.455 L52.585 801.52 Z" fill="#000000" fill-rule="evenodd" fill-opacity="1" /><path clip-path="url(#clip450)" d="M91.9366 773.974 Q88.3255 773.974 86.4969 777.539 Q84.6913 781.08 84.6913 788.21 Q84.6913 795.316 86.4969 798.881 Q88.3255 802.423 91.9366 802.423 Q95.5709 802.423 97.3764 798.881 Q99.2051 795.316 99.2051 788.21 Q99.2051 781.08 97.3764 777.539 Q95.5709 773.974 91.9366 773.974 M91.9366 770.27 Q97.7468 770.27 100.802 774.877 Q103.881 779.46 103.881 788.21 Q103.881 796.937 100.802 801.543 Q97.7468 806.127 91.9366 806.127 Q86.1265 806.127 83.0478 801.543 Q79.9923 796.937 79.9923 788.21 Q79.9923 779.46 83.0478 774.877 Q86.1265 770.27 91.9366 770.27 Z" fill="#000000" fill-rule="evenodd" fill-opacity="1" /><path clip-path="url(#clip450)" d="M103.881 764.372 L127.993 764.372 L127.993 767.569 L103.881 767.569 L103.881 764.372 Z" fill="#000000" fill-rule="evenodd" fill-opacity="1" /><path clip-path="url(#clip450)" d="M147.703 762.905 Q150.43 763.488 151.954 765.331 Q153.496 767.174 153.496 769.882 Q153.496 774.039 150.637 776.315 Q147.778 778.59 142.512 778.59 Q140.744 778.59 138.863 778.233 Q137.002 777.894 135.008 777.199 L135.008 773.531 Q136.588 774.453 138.469 774.923 Q140.349 775.393 142.399 775.393 Q145.973 775.393 147.835 773.982 Q149.716 772.572 149.716 769.882 Q149.716 767.4 147.966 766.008 Q146.236 764.597 143.133 764.597 L139.86 764.597 L139.86 761.475 L143.283 761.475 Q146.086 761.475 147.571 760.366 Q149.057 759.237 149.057 757.131 Q149.057 754.968 147.515 753.82 Q145.992 752.654 143.133 752.654 Q141.572 752.654 139.785 752.993 Q137.998 753.331 135.854 754.046 L135.854 750.661 Q138.017 750.059 139.898 749.758 Q141.797 749.457 143.471 749.457 Q147.797 749.457 150.317 751.432 Q152.838 753.388 152.838 756.736 Q152.838 759.068 151.502 760.685 Q150.167 762.284 147.703 762.905 Z" fill="#000000" fill-rule="evenodd" fill-opacity="1" /><path clip-path="url(#clip450)" d="M53.3561 585.652 L60.995 585.652 L60.995 559.286 L52.6848 560.953 L52.6848 556.693 L60.9487 555.027 L65.6246 555.027 L65.6246 585.652 L73.2634 585.652 L73.2634 589.587 L53.3561 589.587 L53.3561 585.652 Z" fill="#000000" fill-rule="evenodd" fill-opacity="1" /><path clip-path="url(#clip450)" d="M92.7078 558.105 Q89.0967 558.105 87.268 561.67 Q85.4624 565.212 85.4624 572.341 Q85.4624 579.448 87.268 583.013 Q89.0967 586.554 92.7078 586.554 Q96.342 586.554 98.1475 583.013 Q99.9762 579.448 99.9762 572.341 Q99.9762 565.212 98.1475 561.67 Q96.342 558.105 92.7078 558.105 M92.7078 554.402 Q98.5179 554.402 101.573 559.008 Q104.652 563.592 104.652 572.341 Q104.652 581.068 101.573 585.675 Q98.5179 590.258 92.7078 590.258 Q86.8976 590.258 83.8189 585.675 Q80.7634 581.068 80.7634 572.341 Q80.7634 563.592 83.8189 559.008 Q86.8976 554.402 92.7078 554.402 Z" fill="#000000" fill-rule="evenodd" fill-opacity="1" /><path clip-path="url(#clip450)" d="M104.652 548.503 L128.764 548.503 L128.764 551.7 L104.652 551.7 L104.652 548.503 Z" fill="#000000" fill-rule="evenodd" fill-opacity="1" /><path clip-path="url(#clip450)" d="M140.236 558.979 L153.496 558.979 L153.496 562.176 L135.666 562.176 L135.666 558.979 Q137.829 556.741 141.553 552.979 Q145.296 549.199 146.255 548.108 Q148.079 546.058 148.794 544.648 Q149.527 543.218 149.527 541.845 Q149.527 539.607 147.948 538.196 Q146.387 536.786 143.866 536.786 Q142.08 536.786 140.086 537.407 Q138.111 538.027 135.854 539.287 L135.854 535.451 Q138.149 534.529 140.142 534.059 Q142.136 533.589 143.791 533.589 Q148.155 533.589 150.75 535.77 Q153.345 537.952 153.345 541.601 Q153.345 543.331 152.687 544.892 Q152.048 546.434 150.336 548.541 Q149.866 549.086 147.346 551.7 Q144.826 554.296 140.236 558.979 Z" fill="#000000" fill-rule="evenodd" fill-opacity="1" /><path clip-path="url(#clip450)" d="M53.0552 369.783 L60.694 369.783 L60.694 343.417 L52.3839 345.084 L52.3839 340.825 L60.6477 339.158 L65.3236 339.158 L65.3236 369.783 L72.9625 369.783 L72.9625 373.718 L53.0552 373.718 L53.0552 369.783 Z" fill="#000000" fill-rule="evenodd" fill-opacity="1" /><path clip-path="url(#clip450)" d="M92.4068 342.237 Q88.7957 342.237 86.967 345.802 Q85.1615 349.343 85.1615 356.473 Q85.1615 363.579 86.967 367.144 Q88.7957 370.686 92.4068 370.686 Q96.0411 370.686 97.8466 367.144 Q99.6753 363.579 99.6753 356.473 Q99.6753 349.343 97.8466 345.802 Q96.0411 342.237 92.4068 342.237 M92.4068 338.533 Q98.217 338.533 101.273 343.14 Q104.351 347.723 104.351 356.473 Q104.351 365.2 101.273 369.806 Q98.217 374.39 92.4068 374.39 Q86.5967 374.39 83.518 369.806 Q80.4625 365.2 80.4625 356.473 Q80.4625 347.723 83.518 343.14 Q86.5967 338.533 92.4068 338.533 Z" fill="#000000" fill-rule="evenodd" fill-opacity="1" /><path clip-path="url(#clip450)" d="M104.351 332.635 L128.463 332.635 L128.463 335.832 L104.351 335.832 L104.351 332.635 Z" fill="#000000" fill-rule="evenodd" fill-opacity="1" /><path clip-path="url(#clip450)" d="M137.321 343.111 L143.528 343.111 L143.528 321.688 L136.776 323.043 L136.776 319.582 L143.49 318.228 L147.289 318.228 L147.289 343.111 L153.496 343.111 L153.496 346.308 L137.321 346.308 L137.321 343.111 Z" fill="#000000" fill-rule="evenodd" fill-opacity="1" /><path clip-path="url(#clip450)" d="M82.7903 153.915 L90.4291 153.915 L90.4291 127.549 L82.119 129.216 L82.119 124.956 L90.3828 123.29 L95.0587 123.29 L95.0587 153.915 L102.698 153.915 L102.698 157.85 L82.7903 157.85 L82.7903 153.915 Z" fill="#000000" fill-rule="evenodd" fill-opacity="1" /><path clip-path="url(#clip450)" d="M122.142 126.368 Q118.531 126.368 116.702 129.933 Q114.897 133.475 114.897 140.604 Q114.897 147.711 116.702 151.276 Q118.531 154.817 122.142 154.817 Q125.776 154.817 127.582 151.276 Q129.41 147.711 129.41 140.604 Q129.41 133.475 127.582 129.933 Q125.776 126.368 122.142 126.368 M122.142 122.665 Q127.952 122.665 131.008 127.271 Q134.086 131.854 134.086 140.604 Q134.086 149.331 131.008 153.938 Q127.952 158.521 122.142 158.521 Q116.332 158.521 113.253 153.938 Q110.198 149.331 110.198 140.604 Q110.198 131.854 113.253 127.271 Q116.332 122.665 122.142 122.665 Z" fill="#000000" fill-rule="evenodd" fill-opacity="1" /><path clip-path="url(#clip450)" d="M143.791 104.861 Q140.857 104.861 139.371 107.757 Q137.904 110.635 137.904 116.428 Q137.904 122.201 139.371 125.098 Q140.857 127.975 143.791 127.975 Q146.744 127.975 148.211 125.098 Q149.697 122.201 149.697 116.428 Q149.697 110.635 148.211 107.757 Q146.744 104.861 143.791 104.861 M143.791 101.851 Q148.512 101.851 150.994 105.594 Q153.496 109.318 153.496 116.428 Q153.496 123.518 150.994 127.261 Q148.512 130.985 143.791 130.985 Q139.07 130.985 136.569 127.261 Q134.086 123.518 134.086 116.428 Q134.086 109.318 136.569 105.594 Q139.07 101.851 143.791 101.851 Z" fill="#000000" fill-rule="evenodd" fill-opacity="1" /><polyline clip-path="url(#clip453)" style="stroke:#009af9; stroke-linecap:butt; stroke-linejoin:round; stroke-width:12; stroke-opacity:1; fill:none" points="
  250.72,87.6286 542.265,182.245 833.809,462.465 1125.35,717.55 1416.9,850.085 1708.44,980.77 1999.99,1111.13 2291.53,1241.27 
  "/>
<line clip-path="url(#clip453)" x1="250.72" y1="87.6286" x2="250.72" y2="71.6286" style="stroke:#009af9; stroke-width:3.2; stroke-opacity:1"/>
<line clip-path="url(#clip453)" x1="250.72" y1="87.6286" x2="234.72" y2="87.6286" style="stroke:#009af9; stroke-width:3.2; stroke-opacity:1"/>
<line clip-path="url(#clip453)" x1="250.72" y1="87.6286" x2="250.72" y2="103.629" style="stroke:#009af9; stroke-width:3.2; stroke-opacity:1"/>
<line clip-path="url(#clip453)" x1="250.72" y1="87.6286" x2="266.72" y2="87.6286" style="stroke:#009af9; stroke-width:3.2; stroke-opacity:1"/>
<line clip-path="url(#clip453)" x1="542.265" y1="182.245" x2="542.265" y2="166.245" style="stroke:#009af9; stroke-width:3.2; stroke-opacity:1"/>
<line clip-path="url(#clip453)" x1="542.265" y1="182.245" x2="526.265" y2="182.245" style="stroke:#009af9; stroke-width:3.2; stroke-opacity:1"/>
<line clip-path="url(#clip453)" x1="542.265" y1="182.245" x2="542.265" y2="198.245" style="stroke:#009af9; stroke-width:3.2; stroke-opacity:1"/>
<line clip-path="url(#clip453)" x1="542.265" y1="182.245" x2="558.265" y2="182.245" style="stroke:#009af9; stroke-width:3.2; stroke-opacity:1"/>
<line clip-path="url(#clip453)" x1="833.809" y1="462.465" x2="833.809" y2="446.465" style="stroke:#009af9; stroke-width:3.2; stroke-opacity:1"/>
<line clip-path="url(#clip453)" x1="833.809" y1="462.465" x2="817.809" y2="462.465" style="stroke:#009af9; stroke-width:3.2; stroke-opacity:1"/>
<line clip-path="url(#clip453)" x1="833.809" y1="462.465" x2="833.809" y2="478.465" style="stroke:#009af9; stroke-width:3.2; stroke-opacity:1"/>
<line clip-path="url(#clip453)" x1="833.809" y1="462.465" x2="849.809" y2="462.465" style="stroke:#009af9; stroke-width:3.2; stroke-opacity:1"/>
<line clip-path="url(#clip453)" x1="1125.35" y1="717.55" x2="1125.35" y2="701.55" style="stroke:#009af9; stroke-width:3.2; stroke-opacity:1"/>
<line clip-path="url(#clip453)" x1="1125.35" y1="717.55" x2="1109.35" y2="717.55" style="stroke:#009af9; stroke-width:3.2; stroke-opacity:1"/>
<line clip-path="url(#clip453)" x1="1125.35" y1="717.55" x2="1125.35" y2="733.55" style="stroke:#009af9; stroke-width:3.2; stroke-opacity:1"/>
<line clip-path="url(#clip453)" x1="1125.35" y1="717.55" x2="1141.35" y2="717.55" style="stroke:#009af9; stroke-width:3.2; stroke-opacity:1"/>
<line clip-path="url(#clip453)" x1="1416.9" y1="850.085" x2="1416.9" y2="834.085" style="stroke:#009af9; stroke-width:3.2; stroke-opacity:1"/>
<line clip-path="url(#clip453)" x1="1416.9" y1="850.085" x2="1400.9" y2="850.085" style="stroke:#009af9; stroke-width:3.2; stroke-opacity:1"/>
<line clip-path="url(#clip453)" x1="1416.9" y1="850.085" x2="1416.9" y2="866.085" style="stroke:#009af9; stroke-width:3.2; stroke-opacity:1"/>
<line clip-path="url(#clip453)" x1="1416.9" y1="850.085" x2="1432.9" y2="850.085" style="stroke:#009af9; stroke-width:3.2; stroke-opacity:1"/>
<line clip-path="url(#clip453)" x1="1708.44" y1="980.77" x2="1708.44" y2="964.77" style="stroke:#009af9; stroke-width:3.2; stroke-opacity:1"/>
<line clip-path="url(#clip453)" x1="1708.44" y1="980.77" x2="1692.44" y2="980.77" style="stroke:#009af9; stroke-width:3.2; stroke-opacity:1"/>
<line clip-path="url(#clip453)" x1="1708.44" y1="980.77" x2="1708.44" y2="996.77" style="stroke:#009af9; stroke-width:3.2; stroke-opacity:1"/>
<line clip-path="url(#clip453)" x1="1708.44" y1="980.77" x2="1724.44" y2="980.77" style="stroke:#009af9; stroke-width:3.2; stroke-opacity:1"/>
<line clip-path="url(#clip453)" x1="1999.99" y1="1111.13" x2="1999.99" y2="1095.13" style="stroke:#009af9; stroke-width:3.2; stroke-opacity:1"/>
<line clip-path="url(#clip453)" x1="1999.99" y1="1111.13" x2="1983.99" y2="1111.13" style="stroke:#009af9; stroke-width:3.2; stroke-opacity:1"/>
<line clip-path="url(#clip453)" x1="1999.99" y1="1111.13" x2="1999.99" y2="1127.13" style="stroke:#009af9; stroke-width:3.2; stroke-opacity:1"/>
<line clip-path="url(#clip453)" x1="1999.99" y1="1111.13" x2="2015.99" y2="1111.13" style="stroke:#009af9; stroke-width:3.2; stroke-opacity:1"/>
<line clip-path="url(#clip453)" x1="2291.53" y1="1241.27" x2="2291.53" y2="1225.27" style="stroke:#009af9; stroke-width:3.2; stroke-opacity:1"/>
<line clip-path="url(#clip453)" x1="2291.53" y1="1241.27" x2="2275.53" y2="1241.27" style="stroke:#009af9; stroke-width:3.2; stroke-opacity:1"/>
<line clip-path="url(#clip453)" x1="2291.53" y1="1241.27" x2="2291.53" y2="1257.27" style="stroke:#009af9; stroke-width:3.2; stroke-opacity:1"/>
<line clip-path="url(#clip453)" x1="2291.53" y1="1241.27" x2="2307.53" y2="1241.27" style="stroke:#009af9; stroke-width:3.2; stroke-opacity:1"/>
<polyline clip-path="url(#clip453)" style="stroke:#e26f46; stroke-linecap:butt; stroke-linejoin:round; stroke-width:12; stroke-opacity:1; fill:none" points="
  250.72,524.02 256.119,526.426 261.45,528.803 266.714,531.149 271.913,533.467 277.049,535.756 282.122,538.018 287.135,540.253 292.09,542.461 301.826,546.802 
  311.342,551.044 320.648,555.192 329.752,559.25 338.663,563.223 347.389,567.113 355.938,570.924 364.317,574.659 372.532,578.321 380.59,581.913 388.496,585.438 
  396.256,588.897 403.876,592.294 411.36,595.63 418.713,598.908 425.94,602.13 433.045,605.297 440.032,608.412 446.905,611.475 453.667,614.49 466.874,620.377 
  479.678,626.085 485.937,628.876 492.105,631.625 498.183,634.334 504.174,637.005 517.706,643.038 530.816,648.882 543.53,654.549 555.871,660.051 567.86,665.395 
  579.517,670.592 590.859,675.648 601.903,680.571 612.665,685.369 623.159,690.047 633.397,694.61 643.391,699.066 662.695,707.671 681.152,715.899 698.833,723.781 
  715.8,731.345 732.109,738.615 747.81,745.614 777.555,758.874 805.335,771.258 831.393,782.874 855.93,793.812 879.115,804.148 901.088,813.943 941.864,832.12 
  979.034,848.69 1013.18,863.914 1044.77,877.994 1074.15,891.09 1101.61,903.331 1151.67,925.648 1196.4,945.589 1244.54,967.049 1287.74,986.304 1326.9,1003.76 
  1362.73,1019.74 1417.13,1043.99 1465.3,1065.46 1554.1,1105.05 1622.1,1135.36 1684.54,1163.19 1746.91,1191 1795.5,1212.66 1833.93,1229.79 1872.18,1246.84 
  1907.44,1262.56 1943.27,1278.53 1974.74,1292.56 2005.14,1306.11 2029.13,1316.81 2056.68,1329.09 2080.42,1339.67 2101.22,1348.94 2121.29,1357.89 2142.7,1367.43 
  2161.2,1375.68 2181.43,1384.7 2199.33,1392.68 2216.27,1400.23 2232.08,1407.28 2247.7,1414.24 2264.17,1421.58 2287,1431.76 2291.53,1433.78 
  "/>
<path clip-path="url(#clip450)" d="
M1943.53 250.328 L2280.65 250.328 L2280.65 94.8081 L1943.53 94.8081  Z
  " fill="#ffffff" fill-rule="evenodd" fill-opacity="1"/>
<polyline clip-path="url(#clip450)" style="stroke:#000000; stroke-linecap:butt; stroke-linejoin:round; stroke-width:4; stroke-opacity:1; fill:none" points="
  1943.53,250.328 2280.65,250.328 2280.65,94.8081 1943.53,94.8081 1943.53,250.328 
  "/>
<polyline clip-path="url(#clip450)" style="stroke:#009af9; stroke-linecap:butt; stroke-linejoin:round; stroke-width:4; stroke-opacity:1; fill:none" points="
  1967.57,146.648 2111.79,146.648 
  "/>
<line clip-path="url(#clip450)" x1="2039.68" y1="146.648" x2="2039.68" y2="121.048" style="stroke:#009af9; stroke-width:5.12; stroke-opacity:1"/>
<line clip-path="url(#clip450)" x1="2039.68" y1="146.648" x2="2014.08" y2="146.648" style="stroke:#009af9; stroke-width:5.12; stroke-opacity:1"/>
<line clip-path="url(#clip450)" x1="2039.68" y1="146.648" x2="2039.68" y2="172.248" style="stroke:#009af9; stroke-width:5.12; stroke-opacity:1"/>
<line clip-path="url(#clip450)" x1="2039.68" y1="146.648" x2="2065.28" y2="146.648" style="stroke:#009af9; stroke-width:5.12; stroke-opacity:1"/>
<path clip-path="url(#clip450)" d="M2149.66 166.336 Q2147.86 170.965 2146.15 172.377 Q2144.43 173.789 2141.56 173.789 L2138.16 173.789 L2138.16 170.224 L2140.66 170.224 Q2142.42 170.224 2143.39 169.391 Q2144.36 168.558 2145.54 165.456 L2146.31 163.511 L2135.82 138.002 L2140.34 138.002 L2148.44 158.28 L2156.54 138.002 L2161.05 138.002 L2149.66 166.336 Z" fill="#000000" fill-rule="evenodd" fill-opacity="1" /><path clip-path="url(#clip450)" d="M2168.35 159.993 L2175.98 159.993 L2175.98 133.627 L2167.67 135.294 L2167.67 131.035 L2175.94 129.368 L2180.61 129.368 L2180.61 159.993 L2188.25 159.993 L2188.25 163.928 L2168.35 163.928 L2168.35 159.993 Z" fill="#000000" fill-rule="evenodd" fill-opacity="1" /><polyline clip-path="url(#clip450)" style="stroke:#e26f46; stroke-linecap:butt; stroke-linejoin:round; stroke-width:4; stroke-opacity:1; fill:none" points="
  1967.57,198.488 2111.79,198.488 
  "/>
<path clip-path="url(#clip450)" d="M2135.82 183.461 L2135.82 181.962 Q2141.58 181.962 2144.56 178.893 Q2145.38 178.893 2145.52 179.081 Q2145.66 179.268 2145.66 180.135 L2145.66 207.047 Q2145.66 208.476 2146.36 208.921 Q2147.07 209.366 2150.13 209.366 L2151.66 209.366 L2151.66 210.842 Q2149.97 210.701 2143.88 210.701 Q2137.79 210.701 2136.13 210.842 L2136.13 209.366 L2137.65 209.366 Q2140.67 209.366 2141.4 208.944 Q2142.12 208.499 2142.12 207.047 L2142.12 182.196 Q2139.62 183.461 2135.82 183.461 Z" fill="#000000" fill-rule="evenodd" fill-opacity="1" /><path clip-path="url(#clip450)" d="M2159.57 222.155 Q2159.57 221.92 2159.76 221.405 L2176.69 176.153 Q2176.69 176.106 2176.81 175.848 Q2176.93 175.591 2177 175.427 Q2177.07 175.24 2177.21 175.099 Q2177.37 174.958 2177.56 174.958 Q2178.03 174.958 2178.03 175.544 Q2178.03 175.591 2177.89 176.153 L2160.91 221.452 Q2160.63 222.272 2160.44 222.506 Q2160.27 222.74 2159.99 222.74 Q2159.57 222.74 2159.57 222.155 Z" fill="#000000" fill-rule="evenodd" fill-opacity="1" /><path clip-path="url(#clip450)" d="M2209.32 203.979 Q2209.32 204.166 2209.11 204.892 Q2208.9 205.618 2208.38 206.743 Q2207.89 207.867 2207.21 208.898 Q2206.53 209.905 2205.41 210.654 Q2204.31 211.38 2203.04 211.38 Q2201.36 211.38 2200.23 210.256 Q2199.11 209.132 2199.11 207.445 Q2199.11 206.508 2199.6 205.22 Q2202.72 196.905 2202.72 194.048 Q2202.72 190.698 2200.12 190.698 Q2198.83 190.698 2197.61 191.19 Q2196.42 191.659 2195.6 192.314 Q2194.78 192.97 2194.03 193.884 Q2193.3 194.774 2192.93 195.383 Q2192.57 195.968 2192.29 196.554 L2191.68 198.943 Q2191.54 199.599 2190.86 202.152 L2189.81 206.485 Q2189.06 209.717 2188.9 210.022 Q2188.66 210.678 2188.15 211.029 Q2187.63 211.38 2187.12 211.38 Q2186.53 211.38 2186.13 211.029 Q2185.73 210.678 2185.73 210.069 Q2185.73 209.975 2185.81 209.624 Q2185.88 209.272 2185.99 208.78 Q2186.11 208.289 2186.16 208.008 L2188.94 196.929 Q2189.46 194.914 2189.58 194.282 Q2189.72 193.626 2189.72 192.9 Q2189.72 190.698 2188.22 190.698 Q2187 190.698 2186.2 192.151 Q2185.41 193.603 2184.73 196.413 Q2184.52 197.186 2184.38 197.35 Q2184.26 197.514 2183.91 197.514 Q2183.32 197.491 2183.32 197.022 Q2183.32 196.905 2183.51 196.132 Q2183.7 195.359 2184.05 194.259 Q2184.42 193.134 2184.77 192.385 Q2185.08 191.823 2185.24 191.565 Q2185.43 191.284 2185.88 190.745 Q2186.34 190.183 2186.95 189.925 Q2187.59 189.644 2188.36 189.644 Q2190.09 189.644 2191.36 190.769 Q2192.62 191.869 2192.78 193.814 Q2195.9 189.644 2200.26 189.644 Q2202.83 189.644 2204.31 191.003 Q2205.78 192.361 2205.78 194.774 Q2205.78 195.336 2205.67 196.062 Q2205.57 196.765 2205.34 197.655 Q2205.13 198.545 2204.94 199.224 Q2204.75 199.903 2204.38 201.004 Q2204 202.082 2203.84 202.55 Q2203.68 203.019 2203.28 204.119 Q2202.9 205.197 2202.86 205.314 Q2201.99 207.492 2201.99 208.734 Q2201.99 209.553 2202.25 209.928 Q2202.53 210.303 2203.14 210.303 Q2204.78 210.303 2206 208.687 Q2207.24 207.047 2208.03 204.377 Q2208.22 203.791 2208.31 203.651 Q2208.43 203.51 2208.76 203.51 Q2209.32 203.51 2209.32 203.979 Z" fill="#000000" fill-rule="evenodd" fill-opacity="1" /><path clip-path="url(#clip450)" d="M2214.18 196.502 Q2214.18 195.895 2214.23 195.715 Q2214.29 195.534 2214.55 195.256 L2221 188.074 Q2224.52 184.107 2224.52 180.647 Q2224.52 178.401 2223.34 176.794 Q2222.18 175.187 2220.03 175.187 Q2218.55 175.187 2217.31 176.089 Q2216.06 176.991 2215.49 178.598 Q2215.59 178.565 2215.93 178.565 Q2216.77 178.565 2217.23 179.09 Q2217.7 179.614 2217.7 180.319 Q2217.7 181.221 2217.11 181.664 Q2216.54 182.09 2215.96 182.09 Q2215.73 182.09 2215.42 182.041 Q2215.13 181.992 2214.65 181.533 Q2214.18 181.057 2214.18 180.221 Q2214.18 177.876 2215.95 176.007 Q2217.73 174.138 2220.46 174.138 Q2223.54 174.138 2225.56 175.974 Q2227.59 177.794 2227.59 180.647 Q2227.59 181.647 2227.28 182.565 Q2226.98 183.467 2226.57 184.172 Q2226.18 184.877 2225.1 186.009 Q2224.01 187.14 2223.15 187.943 Q2222.28 188.747 2220.33 190.452 L2216.77 193.911 L2222.82 193.911 Q2225.77 193.911 2226 193.649 Q2226.33 193.173 2226.74 190.665 L2227.59 190.665 L2226.64 196.502 L2214.18 196.502 Z" fill="#000000" fill-rule="evenodd" fill-opacity="1" /></svg>
