<?xml version="1.0" encoding="utf-8"?>
<svg xmlns="http://www.w3.org/2000/svg" xmlns:xlink="http://www.w3.org/1999/xlink" width="600" height="400" viewBox="0 0 2400 1600">
<defs>
  <clipPath id="clip460">
    <rect x="0" y="0" width="2400" height="1600"/>
  </clipPath>
</defs>
<path clip-path="url(#clip460)" d="
M0 1600 L2400 1600 L2400 0 L0 0  Z
  " fill="#ffffff" fill-rule="evenodd" fill-opacity="1"/>
<defs>
  <clipPath id="clip461">
    <rect x="480" y="0" width="1681" height="1600"/>
  </clipPath>
</defs>
<path clip-path="url(#clip460)" d="
M194.422 1486.45 L2352.76 1486.45 L2352.76 47.2441 L194.422 47.2441  Z
  " fill="#ffffff" fill-rule="evenodd" fill-opacity="1"/>
<defs>
  <clipPath id="clip462">
    <rect x="194" y="47" width="2159" height="1440"/>
  </clipPath>
</defs>
<polyline clip-path="url(#clip462)" style="stroke:#000000; stroke-linecap:butt; stroke-linejoin:round; stroke-width:2; stroke-opacity:0.1; fill:none" points="
  255.507,1486.45 255.507,47.2441 
  "/>
<polyline clip-path="url(#clip462)" style="stroke:#000000; stroke-linecap:butt; stroke-linejoin:round; stroke-width:2; stroke-opacity:0.1; fill:none" points="
  764.548,1486.45 764.548,47.2441 
  "/>
<polyline clip-path="url(#clip462)" style="stroke:#000000; stroke-linecap:butt; stroke-linejoin:round; stroke-width:2; stroke-opacity:0.1; fill:none" points="
  1273.59,1486.45 1273.59,47.2441 
  "/>
<polyline clip-path="url(#clip462)" style="stroke:#000000; stroke-linecap:butt; stroke-linejoin:round; stroke-width:2; stroke-opacity:0.1; fill:none" points="
  1782.63,1486.45 1782.63,47.2441 
  "/>
<polyline clip-path="url(#clip462)" style="stroke:#000000; stroke-linecap:butt; stroke-linejoin:round; stroke-width:2; stroke-opacity:0.1; fill:none" points="
  2291.67,1486.45 2291.67,47.2441 
  "/>
<polyline clip-path="url(#clip460)" style="stroke:#000000; stroke-linecap:butt; stroke-linejoin:round; stroke-width:4; stroke-opacity:1; fill:none" points="
  194.422,1486.45 2352.76,1486.45 
  "/>
<polyline clip-path="url(#clip460)" style="stroke:#000000; stroke-linecap:butt; stroke-linejoin:round; stroke-width:4; stroke-opacity:1; fill:none" points="
  255.507,1486.45 255.507,1467.55 
  "/>
<polyline clip-path="url(#clip460)" style="stroke:#000000; stroke-linecap:butt; stroke-linejoin:round; stroke-width:4; stroke-opacity:1; fill:none" points="
  764.548,1486.45 764.548,1467.55 
  "/>
<polyline clip-path="url(#clip460)" style="stroke:#000000; stroke-linecap:butt; stroke-linejoin:round; stroke-width:4; stroke-opacity:1; fill:none" points="
  1273.59,1486.45 1273.59,1467.55 
  "/>
<polyline clip-path="url(#clip460)" style="stroke:#000000; stroke-linecap:butt; stroke-linejoin:round; stroke-width:4; stroke-opacity:1; fill:none" points="
  1782.63,1486.45 1782.63,1467.55 
  "/>
<polyline clip-path="url(#clip460)" style="stroke:#000000; stroke-linecap:butt; stroke-linejoin:round; stroke-width:4; stroke-opacity:1; fill:none" points="
  2291.67,1486.45 2291.67,1467.55 
  "/>
<path clip-path="url(#clip460)" d="M202.035 1532.02 L231.711 1532.02 L231.711 1535.95 L202.035 1535.95 L202.035 1532.02 Z" fill="#000000" fill-rule="evenodd" fill-opacity="1" /><path clip-path="url(#clip460)" d="M242.614 1544.91 L250.252 1544.91 L250.252 1518.55 L241.942 1520.21 L241.942 1515.95 L250.206 1514.29 L254.882 1514.29 L254.882 1544.91 L262.521 1544.91 L262.521 1548.85 L242.614 1548.85 L242.614 1544.91 Z" fill="#000000" fill-rule="evenodd" fill-opacity="1" /><path clip-path="url(#clip460)" d="M271.965 1542.97 L276.85 1542.97 L276.85 1548.85 L271.965 1548.85 L271.965 1542.97 Z" fill="#000000" fill-rule="evenodd" fill-opacity="1" /><path clip-path="url(#clip460)" d="M297.035 1517.37 Q293.423 1517.37 291.595 1520.93 Q289.789 1524.47 289.789 1531.6 Q289.789 1538.71 291.595 1542.27 Q293.423 1545.82 297.035 1545.82 Q300.669 1545.82 302.474 1542.27 Q304.303 1538.71 304.303 1531.6 Q304.303 1524.47 302.474 1520.93 Q300.669 1517.37 297.035 1517.37 M297.035 1513.66 Q302.845 1513.66 305.9 1518.27 Q308.979 1522.85 308.979 1531.6 Q308.979 1540.33 305.9 1544.94 Q302.845 1549.52 297.035 1549.52 Q291.224 1549.52 288.146 1544.94 Q285.09 1540.33 285.09 1531.6 Q285.09 1522.85 288.146 1518.27 Q291.224 1513.66 297.035 1513.66 Z" fill="#000000" fill-rule="evenodd" fill-opacity="1" /><path clip-path="url(#clip460)" d="M711.574 1532.02 L741.25 1532.02 L741.25 1535.95 L711.574 1535.95 L711.574 1532.02 Z" fill="#000000" fill-rule="evenodd" fill-opacity="1" /><path clip-path="url(#clip460)" d="M761.342 1517.37 Q757.731 1517.37 755.902 1520.93 Q754.097 1524.47 754.097 1531.6 Q754.097 1538.71 755.902 1542.27 Q757.731 1545.82 761.342 1545.82 Q764.976 1545.82 766.782 1542.27 Q768.61 1538.71 768.61 1531.6 Q768.61 1524.47 766.782 1520.93 Q764.976 1517.37 761.342 1517.37 M761.342 1513.66 Q767.152 1513.66 770.208 1518.27 Q773.286 1522.85 773.286 1531.6 Q773.286 1540.33 770.208 1544.94 Q767.152 1549.52 761.342 1549.52 Q755.532 1549.52 752.453 1544.94 Q749.398 1540.33 749.398 1531.6 Q749.398 1522.85 752.453 1518.27 Q755.532 1513.66 761.342 1513.66 Z" fill="#000000" fill-rule="evenodd" fill-opacity="1" /><path clip-path="url(#clip460)" d="M781.504 1542.97 L786.388 1542.97 L786.388 1548.85 L781.504 1548.85 L781.504 1542.97 Z" fill="#000000" fill-rule="evenodd" fill-opacity="1" /><path clip-path="url(#clip460)" d="M796.62 1514.29 L814.976 1514.29 L814.976 1518.22 L800.902 1518.22 L800.902 1526.7 Q801.921 1526.35 802.939 1526.19 Q803.958 1526 804.976 1526 Q810.763 1526 814.143 1529.17 Q817.522 1532.34 817.522 1537.76 Q817.522 1543.34 814.05 1546.44 Q810.578 1549.52 804.258 1549.52 Q802.083 1549.52 799.814 1549.15 Q797.569 1548.78 795.161 1548.04 L795.161 1543.34 Q797.245 1544.47 799.467 1545.03 Q801.689 1545.58 804.166 1545.58 Q808.17 1545.58 810.508 1543.48 Q812.846 1541.37 812.846 1537.76 Q812.846 1534.15 810.508 1532.04 Q808.17 1529.94 804.166 1529.94 Q802.291 1529.94 800.416 1530.35 Q798.564 1530.77 796.62 1531.65 L796.62 1514.29 Z" fill="#000000" fill-rule="evenodd" fill-opacity="1" /><path clip-path="url(#clip460)" d="M1250.97 1517.37 Q1247.36 1517.37 1245.53 1520.93 Q1243.73 1524.47 1243.73 1531.6 Q1243.73 1538.71 1245.53 1542.27 Q1247.36 1545.82 1250.97 1545.82 Q1254.61 1545.82 1256.41 1542.27 Q1258.24 1538.71 1258.24 1531.6 Q1258.24 1524.47 1256.41 1520.93 Q1254.61 1517.37 1250.97 1517.37 M1250.97 1513.66 Q1256.78 1513.66 1259.84 1518.27 Q1262.92 1522.85 1262.92 1531.6 Q1262.92 1540.33 1259.84 1544.94 Q1256.78 1549.52 1250.97 1549.52 Q1245.16 1549.52 1242.08 1544.94 Q1239.03 1540.33 1239.03 1531.6 Q1239.03 1522.85 1242.08 1518.27 Q1245.16 1513.66 1250.97 1513.66 Z" fill="#000000" fill-rule="evenodd" fill-opacity="1" /><path clip-path="url(#clip460)" d="M1271.14 1542.97 L1276.02 1542.97 L1276.02 1548.85 L1271.14 1548.85 L1271.14 1542.97 Z" fill="#000000" fill-rule="evenodd" fill-opacity="1" /><path clip-path="url(#clip460)" d="M1296.2 1517.37 Q1292.59 1517.37 1290.76 1520.93 Q1288.96 1524.47 1288.96 1531.6 Q1288.96 1538.71 1290.76 1542.27 Q1292.59 1545.82 1296.2 1545.82 Q1299.84 1545.82 1301.64 1542.27 Q1303.47 1538.71 1303.47 1531.6 Q1303.47 1524.47 1301.64 1520.93 Q1299.84 1517.37 1296.2 1517.37 M1296.2 1513.66 Q1302.01 1513.66 1305.07 1518.27 Q1308.15 1522.85 1308.15 1531.6 Q1308.15 1540.33 1305.07 1544.94 Q1302.01 1549.52 1296.2 1549.52 Q1290.39 1549.52 1287.32 1544.94 Q1284.26 1540.33 1284.26 1531.6 Q1284.26 1522.85 1287.32 1518.27 Q1290.39 1513.66 1296.2 1513.66 Z" fill="#000000" fill-rule="evenodd" fill-opacity="1" /><path clip-path="url(#clip460)" d="M1760.51 1517.37 Q1756.9 1517.37 1755.07 1520.93 Q1753.27 1524.47 1753.27 1531.6 Q1753.27 1538.71 1755.07 1542.27 Q1756.9 1545.82 1760.51 1545.82 Q1764.15 1545.82 1765.95 1542.27 Q1767.78 1538.71 1767.78 1531.6 Q1767.78 1524.47 1765.95 1520.93 Q1764.15 1517.37 1760.51 1517.37 M1760.51 1513.66 Q1766.32 1513.66 1769.38 1518.27 Q1772.46 1522.85 1772.46 1531.6 Q1772.46 1540.33 1769.38 1544.94 Q1766.32 1549.52 1760.51 1549.52 Q1754.7 1549.52 1751.62 1544.94 Q1748.57 1540.33 1748.57 1531.6 Q1748.57 1522.85 1751.62 1518.27 Q1754.7 1513.66 1760.51 1513.66 Z" fill="#000000" fill-rule="evenodd" fill-opacity="1" /><path clip-path="url(#clip460)" d="M1780.67 1542.97 L1785.56 1542.97 L1785.56 1548.85 L1780.67 1548.85 L1780.67 1542.97 Z" fill="#000000" fill-rule="evenodd" fill-opacity="1" /><path clip-path="url(#clip460)" d="M1795.79 1514.29 L1814.15 1514.29 L1814.15 1518.22 L1800.07 1518.22 L1800.07 1526.7 Q1801.09 1526.35 1802.11 1526.19 Q1803.13 1526 1804.15 1526 Q1809.93 1526 1813.31 1529.17 Q1816.69 1532.34 1816.69 1537.76 Q1816.69 1543.34 1813.22 1546.44 Q1809.75 1549.52 1803.43 1549.52 Q1801.25 1549.52 1798.98 1549.15 Q1796.74 1548.78 1794.33 1548.04 L1794.33 1543.34 Q1796.41 1544.47 1798.64 1545.03 Q1800.86 1545.58 1803.34 1545.58 Q1807.34 1545.58 1809.68 1543.48 Q1812.02 1541.37 1812.02 1537.76 Q1812.02 1534.15 1809.68 1532.04 Q1807.34 1529.94 1803.34 1529.94 Q1801.46 1529.94 1799.59 1530.35 Q1797.73 1530.77 1795.79 1531.65 L1795.79 1514.29 Z" fill="#000000" fill-rule="evenodd" fill-opacity="1" /><path clip-path="url(#clip460)" d="M2258.82 1544.91 L2266.46 1544.91 L2266.46 1518.55 L2258.15 1520.21 L2258.15 1515.95 L2266.42 1514.29 L2271.09 1514.29 L2271.09 1544.91 L2278.73 1544.91 L2278.73 1548.85 L2258.82 1548.85 L2258.82 1544.91 Z" fill="#000000" fill-rule="evenodd" fill-opacity="1" /><path clip-path="url(#clip460)" d="M2288.18 1542.97 L2293.06 1542.97 L2293.06 1548.85 L2288.18 1548.85 L2288.18 1542.97 Z" fill="#000000" fill-rule="evenodd" fill-opacity="1" /><path clip-path="url(#clip460)" d="M2313.24 1517.37 Q2309.63 1517.37 2307.81 1520.93 Q2306 1524.47 2306 1531.6 Q2306 1538.71 2307.81 1542.27 Q2309.63 1545.82 2313.24 1545.82 Q2316.88 1545.82 2318.68 1542.27 Q2320.51 1538.71 2320.51 1531.6 Q2320.51 1524.47 2318.68 1520.93 Q2316.88 1517.37 2313.24 1517.37 M2313.24 1513.66 Q2319.06 1513.66 2322.11 1518.27 Q2325.19 1522.85 2325.19 1531.6 Q2325.19 1540.33 2322.11 1544.94 Q2319.06 1549.52 2313.24 1549.52 Q2307.43 1549.52 2304.36 1544.94 Q2301.3 1540.33 2301.3 1531.6 Q2301.3 1522.85 2304.36 1518.27 Q2307.43 1513.66 2313.24 1513.66 Z" fill="#000000" fill-rule="evenodd" fill-opacity="1" /><polyline clip-path="url(#clip462)" style="stroke:#000000; stroke-linecap:butt; stroke-linejoin:round; stroke-width:2; stroke-opacity:0.1; fill:none" points="
  194.422,1351.77 2352.76,1351.77 
  "/>
<polyline clip-path="url(#clip462)" style="stroke:#000000; stroke-linecap:butt; stroke-linejoin:round; stroke-width:2; stroke-opacity:0.1; fill:none" points="
  194.422,1059.31 2352.76,1059.31 
  "/>
<polyline clip-path="url(#clip462)" style="stroke:#000000; stroke-linecap:butt; stroke-linejoin:round; stroke-width:2; stroke-opacity:0.1; fill:none" points="
  194.422,766.846 2352.76,766.846 
  "/>
<polyline clip-path="url(#clip462)" style="stroke:#000000; stroke-linecap:butt; stroke-linejoin:round; stroke-width:2; stroke-opacity:0.1; fill:none" points="
  194.422,474.383 2352.76,474.383 
  "/>
<polyline clip-path="url(#clip462)" style="stroke:#000000; stroke-linecap:butt; stroke-linejoin:round; stroke-width:2; stroke-opacity:0.1; fill:none" points="
  194.422,181.92 2352.76,181.92 
  "/>
<polyline clip-path="url(#clip460)" style="stroke:#000000; stroke-linecap:butt; stroke-linejoin:round; stroke-width:4; stroke-opacity:1; fill:none" points="
  194.422,1486.45 194.422,47.2441 
  "/>
<polyline clip-path="url(#clip460)" style="stroke:#000000; stroke-linecap:butt; stroke-linejoin:round; stroke-width:4; stroke-opacity:1; fill:none" points="
  194.422,1351.77 213.32,1351.77 
  "/>
<polyline clip-path="url(#clip460)" style="stroke:#000000; stroke-linecap:butt; stroke-linejoin:round; stroke-width:4; stroke-opacity:1; fill:none" points="
  194.422,1059.31 213.32,1059.31 
  "/>
<polyline clip-path="url(#clip460)" style="stroke:#000000; stroke-linecap:butt; stroke-linejoin:round; stroke-width:4; stroke-opacity:1; fill:none" points="
  194.422,766.846 213.32,766.846 
  "/>
<polyline clip-path="url(#clip460)" style="stroke:#000000; stroke-linecap:butt; stroke-linejoin:round; stroke-width:4; stroke-opacity:1; fill:none" points="
  194.422,474.383 213.32,474.383 
  "/>
<polyline clip-path="url(#clip460)" style="stroke:#000000; stroke-linecap:butt; stroke-linejoin:round; stroke-width:4; stroke-opacity:1; fill:none" points="
  194.422,181.92 213.32,181.92 
  "/>
<path clip-path="url(#clip460)" d="M50.9921 1352.22 L80.6679 1352.22 L80.6679 1356.16 L50.9921 1356.16 L50.9921 1352.22 Z" fill="#000000" fill-rule="evenodd" fill-opacity="1" /><path clip-path="url(#clip460)" d="M100.76 1337.57 Q97.1493 1337.57 95.3206 1341.14 Q93.515 1344.68 93.515 1351.81 Q93.515 1358.91 95.3206 1362.48 Q97.1493 1366.02 100.76 1366.02 Q104.395 1366.02 106.2 1362.48 Q108.029 1358.91 108.029 1351.81 Q108.029 1344.68 106.2 1341.14 Q104.395 1337.57 100.76 1337.57 M100.76 1333.87 Q106.571 1333.87 109.626 1338.47 Q112.705 1343.06 112.705 1351.81 Q112.705 1360.53 109.626 1365.14 Q106.571 1369.72 100.76 1369.72 Q94.9502 1369.72 91.8715 1365.14 Q88.816 1360.53 88.816 1351.81 Q88.816 1343.06 91.8715 1338.47 Q94.9502 1333.87 100.76 1333.87 Z" fill="#000000" fill-rule="evenodd" fill-opacity="1" /><path clip-path="url(#clip460)" d="M120.922 1363.17 L125.807 1363.17 L125.807 1369.05 L120.922 1369.05 L120.922 1363.17 Z" fill="#000000" fill-rule="evenodd" fill-opacity="1" /><path clip-path="url(#clip460)" d="M148.839 1338.57 L137.033 1357.02 L148.839 1357.02 L148.839 1338.57 M147.612 1334.49 L153.492 1334.49 L153.492 1357.02 L158.422 1357.02 L158.422 1360.9 L153.492 1360.9 L153.492 1369.05 L148.839 1369.05 L148.839 1360.9 L133.237 1360.9 L133.237 1356.39 L147.612 1334.49 Z" fill="#000000" fill-rule="evenodd" fill-opacity="1" /><path clip-path="url(#clip460)" d="M53.0754 1059.76 L82.7512 1059.76 L82.7512 1063.7 L53.0754 1063.7 L53.0754 1059.76 Z" fill="#000000" fill-rule="evenodd" fill-opacity="1" /><path clip-path="url(#clip460)" d="M102.844 1045.11 Q99.2326 1045.11 97.4039 1048.67 Q95.5984 1052.21 95.5984 1059.34 Q95.5984 1066.45 97.4039 1070.02 Q99.2326 1073.56 102.844 1073.56 Q106.478 1073.56 108.283 1070.02 Q110.112 1066.45 110.112 1059.34 Q110.112 1052.21 108.283 1048.67 Q106.478 1045.11 102.844 1045.11 M102.844 1041.4 Q108.654 1041.4 111.709 1046.01 Q114.788 1050.59 114.788 1059.34 Q114.788 1068.07 111.709 1072.68 Q108.654 1077.26 102.844 1077.26 Q97.0335 1077.26 93.9549 1072.68 Q90.8993 1068.07 90.8993 1059.34 Q90.8993 1050.59 93.9549 1046.01 Q97.0335 1041.4 102.844 1041.4 Z" fill="#000000" fill-rule="evenodd" fill-opacity="1" /><path clip-path="url(#clip460)" d="M123.006 1070.71 L127.89 1070.71 L127.89 1076.59 L123.006 1076.59 L123.006 1070.71 Z" fill="#000000" fill-rule="evenodd" fill-opacity="1" /><path clip-path="url(#clip460)" d="M142.103 1072.65 L158.422 1072.65 L158.422 1076.59 L136.478 1076.59 L136.478 1072.65 Q139.14 1069.9 143.723 1065.27 Q148.33 1060.62 149.51 1059.27 Q151.755 1056.75 152.635 1055.02 Q153.538 1053.26 153.538 1051.57 Q153.538 1048.81 151.593 1047.08 Q149.672 1045.34 146.57 1045.34 Q144.371 1045.34 141.918 1046.1 Q139.487 1046.87 136.709 1048.42 L136.709 1043.7 Q139.533 1042.56 141.987 1041.98 Q144.441 1041.4 146.478 1041.4 Q151.848 1041.4 155.042 1044.09 Q158.237 1046.77 158.237 1051.27 Q158.237 1053.39 157.427 1055.32 Q156.64 1057.21 154.533 1059.81 Q153.955 1060.48 150.853 1063.7 Q147.751 1066.89 142.103 1072.65 Z" fill="#000000" fill-rule="evenodd" fill-opacity="1" /><path clip-path="url(#clip460)" d="M101.246 752.645 Q97.6354 752.645 95.8067 756.209 Q94.0012 759.751 94.0012 766.881 Q94.0012 773.987 95.8067 777.552 Q97.6354 781.094 101.246 781.094 Q104.881 781.094 106.686 777.552 Q108.515 773.987 108.515 766.881 Q108.515 759.751 106.686 756.209 Q104.881 752.645 101.246 752.645 M101.246 748.941 Q107.057 748.941 110.112 753.547 Q113.191 758.131 113.191 766.881 Q113.191 775.608 110.112 780.214 Q107.057 784.797 101.246 784.797 Q95.4363 784.797 92.3576 780.214 Q89.3021 775.608 89.3021 766.881 Q89.3021 758.131 92.3576 753.547 Q95.4363 748.941 101.246 748.941 Z" fill="#000000" fill-rule="evenodd" fill-opacity="1" /><path clip-path="url(#clip460)" d="M121.408 778.246 L126.293 778.246 L126.293 784.126 L121.408 784.126 L121.408 778.246 Z" fill="#000000" fill-rule="evenodd" fill-opacity="1" /><path clip-path="url(#clip460)" d="M146.478 752.645 Q142.867 752.645 141.038 756.209 Q139.232 759.751 139.232 766.881 Q139.232 773.987 141.038 777.552 Q142.867 781.094 146.478 781.094 Q150.112 781.094 151.918 777.552 Q153.746 773.987 153.746 766.881 Q153.746 759.751 151.918 756.209 Q150.112 752.645 146.478 752.645 M146.478 748.941 Q152.288 748.941 155.343 753.547 Q158.422 758.131 158.422 766.881 Q158.422 775.608 155.343 780.214 Q152.288 784.797 146.478 784.797 Q140.668 784.797 137.589 780.214 Q134.533 775.608 134.533 766.881 Q134.533 758.131 137.589 753.547 Q140.668 748.941 146.478 748.941 Z" fill="#000000" fill-rule="evenodd" fill-opacity="1" /><path clip-path="url(#clip460)" d="M102.844 460.181 Q99.2326 460.181 97.4039 463.746 Q95.5984 467.288 95.5984 474.418 Q95.5984 481.524 97.4039 485.089 Q99.2326 488.63 102.844 488.63 Q106.478 488.63 108.283 485.089 Q110.112 481.524 110.112 474.418 Q110.112 467.288 108.283 463.746 Q106.478 460.181 102.844 460.181 M102.844 456.478 Q108.654 456.478 111.709 461.084 Q114.788 465.668 114.788 474.418 Q114.788 483.144 111.709 487.751 Q108.654 492.334 102.844 492.334 Q97.0335 492.334 93.9549 487.751 Q90.8993 483.144 90.8993 474.418 Q90.8993 465.668 93.9549 461.084 Q97.0335 456.478 102.844 456.478 Z" fill="#000000" fill-rule="evenodd" fill-opacity="1" /><path clip-path="url(#clip460)" d="M123.006 485.783 L127.89 485.783 L127.89 491.663 L123.006 491.663 L123.006 485.783 Z" fill="#000000" fill-rule="evenodd" fill-opacity="1" /><path clip-path="url(#clip460)" d="M142.103 487.728 L158.422 487.728 L158.422 491.663 L136.478 491.663 L136.478 487.728 Q139.14 484.973 143.723 480.343 Q148.33 475.691 149.51 474.348 Q151.755 471.825 152.635 470.089 Q153.538 468.33 153.538 466.64 Q153.538 463.885 151.593 462.149 Q149.672 460.413 146.57 460.413 Q144.371 460.413 141.918 461.177 Q139.487 461.941 136.709 463.492 L136.709 458.769 Q139.533 457.635 141.987 457.056 Q144.441 456.478 146.478 456.478 Q151.848 456.478 155.042 459.163 Q158.237 461.848 158.237 466.339 Q158.237 468.468 157.427 470.39 Q156.64 472.288 154.533 474.88 Q153.955 475.552 150.853 478.769 Q147.751 481.964 142.103 487.728 Z" fill="#000000" fill-rule="evenodd" fill-opacity="1" /><path clip-path="url(#clip460)" d="M100.76 167.718 Q97.1493 167.718 95.3206 171.283 Q93.515 174.825 93.515 181.954 Q93.515 189.061 95.3206 192.626 Q97.1493 196.167 100.76 196.167 Q104.395 196.167 106.2 192.626 Q108.029 189.061 108.029 181.954 Q108.029 174.825 106.2 171.283 Q104.395 167.718 100.76 167.718 M100.76 164.015 Q106.571 164.015 109.626 168.621 Q112.705 173.204 112.705 181.954 Q112.705 190.681 109.626 195.288 Q106.571 199.871 100.76 199.871 Q94.9502 199.871 91.8715 195.288 Q88.816 190.681 88.816 181.954 Q88.816 173.204 91.8715 168.621 Q94.9502 164.015 100.76 164.015 Z" fill="#000000" fill-rule="evenodd" fill-opacity="1" /><path clip-path="url(#clip460)" d="M120.922 193.32 L125.807 193.32 L125.807 199.2 L120.922 199.2 L120.922 193.32 Z" fill="#000000" fill-rule="evenodd" fill-opacity="1" /><path clip-path="url(#clip460)" d="M148.839 168.714 L137.033 187.163 L148.839 187.163 L148.839 168.714 M147.612 164.64 L153.492 164.64 L153.492 187.163 L158.422 187.163 L158.422 191.051 L153.492 191.051 L153.492 199.2 L148.839 199.2 L148.839 191.051 L133.237 191.051 L133.237 186.538 L147.612 164.64 Z" fill="#000000" fill-rule="evenodd" fill-opacity="1" /><polyline clip-path="url(#clip462)" style="stroke:#009af9; stroke-linecap:butt; stroke-linejoin:round; stroke-width:12; stroke-opacity:1; fill:none" points="
  255.507,213.547 481.747,170.672 707.988,157.239 934.228,173.91 1160.47,219.861 1386.71,292.824 1612.95,389.196 1839.19,504.217 2065.43,632.207 2291.67,766.846 
  
  "/>
<polyline clip-path="url(#clip462)" style="stroke:#e26f46; stroke-linecap:butt; stroke-linejoin:round; stroke-width:12; stroke-opacity:1; fill:none" points="
  255.507,766.846 481.747,632.207 707.988,504.217 934.228,389.196 1160.47,292.824 1386.71,219.861 1612.95,173.91 1839.19,157.239 2065.43,170.672 2291.67,213.547 
  
  "/>
<polyline clip-path="url(#clip462)" style="stroke:#3da44d; stroke-linecap:butt; stroke-linejoin:round; stroke-width:12; stroke-opacity:1; fill:none" points="
  255.507,766.846 481.747,531.077 707.988,323.745 934.228,169.858 1160.47,87.9763 1386.71,87.9763 1612.95,169.858 1839.19,323.745 2065.43,531.077 2291.67,766.846 
  
  "/>
<polyline clip-path="url(#clip462)" style="stroke:#c271d2; stroke-linecap:butt; stroke-linejoin:round; stroke-width:12; stroke-opacity:1; fill:none" points="
  255.507,766.846 481.747,323.745 707.988,87.9763 934.228,169.858 1160.47,531.077 1386.71,1002.61 1612.95,1363.83 1839.19,1445.72 2065.43,1209.95 2291.67,766.846 
  
  "/>
<path clip-path="url(#clip460)" d="
M1986.85 354.418 L2280.81 354.418 L2280.81 95.2176 L1986.85 95.2176  Z
  " fill="#ffffff" fill-rule="evenodd" fill-opacity="1"/>
<polyline clip-path="url(#clip460)" style="stroke:#000000; stroke-linecap:butt; stroke-linejoin:round; stroke-width:4; stroke-opacity:1; fill:none" points="
  1986.85,354.418 2280.81,354.418 2280.81,95.2176 1986.85,95.2176 1986.85,354.418 
  "/>
<polyline clip-path="url(#clip460)" style="stroke:#009af9; stroke-linecap:butt; stroke-linejoin:round; stroke-width:4; stroke-opacity:1; fill:none" points="
  2010.83,147.058 2154.72,147.058 
  "/>
<path clip-path="url(#clip460)" d="M2192.55 166.745 Q2190.74 171.375 2189.03 172.787 Q2187.32 174.199 2184.45 174.199 L2181.04 174.199 L2181.04 170.634 L2183.54 170.634 Q2185.3 170.634 2186.27 169.8 Q2187.25 168.967 2188.43 165.865 L2189.19 163.921 L2178.71 138.412 L2183.22 138.412 L2191.32 158.689 L2199.42 138.412 L2203.94 138.412 L2192.55 166.745 Z" fill="#000000" fill-rule="evenodd" fill-opacity="1" /><path clip-path="url(#clip460)" d="M2211.23 160.402 L2218.87 160.402 L2218.87 134.037 L2210.56 135.703 L2210.56 131.444 L2218.82 129.778 L2223.5 129.778 L2223.5 160.402 L2231.14 160.402 L2231.14 164.338 L2211.23 164.338 L2211.23 160.402 Z" fill="#000000" fill-rule="evenodd" fill-opacity="1" /><polyline clip-path="url(#clip460)" style="stroke:#e26f46; stroke-linecap:butt; stroke-linejoin:round; stroke-width:4; stroke-opacity:1; fill:none" points="
  2010.83,198.898 2154.72,198.898 
  "/>
<path clip-path="url(#clip460)" d="M2192.55 218.585 Q2190.74 223.215 2189.03 224.627 Q2187.32 226.039 2184.45 226.039 L2181.04 226.039 L2181.04 222.474 L2183.54 222.474 Q2185.3 222.474 2186.27 221.64 Q2187.25 220.807 2188.43 217.705 L2189.19 215.761 L2178.71 190.252 L2183.22 190.252 L2191.32 210.529 L2199.42 190.252 L2203.94 190.252 L2192.55 218.585 Z" fill="#000000" fill-rule="evenodd" fill-opacity="1" /><path clip-path="url(#clip460)" d="M2214.45 212.242 L2230.77 212.242 L2230.77 216.178 L2208.82 216.178 L2208.82 212.242 Q2211.48 209.488 2216.07 204.858 Q2220.67 200.205 2221.85 198.863 Q2224.1 196.34 2224.98 194.604 Q2225.88 192.844 2225.88 191.155 Q2225.88 188.4 2223.94 186.664 Q2222.02 184.928 2218.91 184.928 Q2216.71 184.928 2214.26 185.692 Q2211.83 186.455 2209.05 188.006 L2209.05 183.284 Q2211.88 182.15 2214.33 181.571 Q2216.78 180.993 2218.82 180.993 Q2224.19 180.993 2227.39 183.678 Q2230.58 186.363 2230.58 190.854 Q2230.58 192.983 2229.77 194.905 Q2228.98 196.803 2226.88 199.395 Q2226.3 200.067 2223.2 203.284 Q2220.09 206.479 2214.45 212.242 Z" fill="#000000" fill-rule="evenodd" fill-opacity="1" /><polyline clip-path="url(#clip460)" style="stroke:#3da44d; stroke-linecap:butt; stroke-linejoin:round; stroke-width:4; stroke-opacity:1; fill:none" points="
  2010.83,250.738 2154.72,250.738 
  "/>
<path clip-path="url(#clip460)" d="M2192.55 270.425 Q2190.74 275.055 2189.03 276.467 Q2187.32 277.879 2184.45 277.879 L2181.04 277.879 L2181.04 274.314 L2183.54 274.314 Q2185.3 274.314 2186.27 273.48 Q2187.25 272.647 2188.43 269.545 L2189.19 267.601 L2178.71 242.092 L2183.22 242.092 L2191.32 262.369 L2199.42 242.092 L2203.94 242.092 L2192.55 270.425 Z" fill="#000000" fill-rule="evenodd" fill-opacity="1" /><path clip-path="url(#clip460)" d="M2224.58 249.383 Q2227.94 250.101 2229.82 252.369 Q2231.71 254.638 2231.71 257.971 Q2231.71 263.087 2228.2 265.888 Q2224.68 268.689 2218.2 268.689 Q2216.02 268.689 2213.71 268.249 Q2211.41 267.832 2208.96 266.976 L2208.96 262.462 Q2210.9 263.596 2213.22 264.175 Q2215.53 264.754 2218.06 264.754 Q2222.46 264.754 2224.75 263.018 Q2227.06 261.281 2227.06 257.971 Q2227.06 254.916 2224.91 253.203 Q2222.78 251.467 2218.96 251.467 L2214.93 251.467 L2214.93 247.624 L2219.14 247.624 Q2222.59 247.624 2224.42 246.258 Q2226.25 244.87 2226.25 242.277 Q2226.25 239.615 2224.35 238.203 Q2222.48 236.768 2218.96 236.768 Q2217.04 236.768 2214.84 237.184 Q2212.64 237.601 2210 238.481 L2210 234.314 Q2212.66 233.573 2214.98 233.203 Q2217.32 232.833 2219.38 232.833 Q2224.7 232.833 2227.8 235.263 Q2230.9 237.67 2230.9 241.791 Q2230.9 244.661 2229.26 246.652 Q2227.62 248.62 2224.58 249.383 Z" fill="#000000" fill-rule="evenodd" fill-opacity="1" /><polyline clip-path="url(#clip460)" style="stroke:#c271d2; stroke-linecap:butt; stroke-linejoin:round; stroke-width:4; stroke-opacity:1; fill:none" points="
  2010.83,302.578 2154.72,302.578 
  "/>
<path clip-path="url(#clip460)" d="M2192.55 322.265 Q2190.74 326.895 2189.03 328.307 Q2187.32 329.719 2184.45 329.719 L2181.04 329.719 L2181.04 326.154 L2183.54 326.154 Q2185.3 326.154 2186.27 325.32 Q2187.25 324.487 2188.43 321.385 L2189.19 319.441 L2178.71 293.932 L2183.22 293.932 L2191.32 314.209 L2199.42 293.932 L2203.94 293.932 L2192.55 322.265 Z" fill="#000000" fill-rule="evenodd" fill-opacity="1" /><path clip-path="url(#clip460)" d="M2223.27 289.372 L2211.46 307.821 L2223.27 307.821 L2223.27 289.372 M2222.04 285.298 L2227.92 285.298 L2227.92 307.821 L2232.85 307.821 L2232.85 311.709 L2227.92 311.709 L2227.92 319.858 L2223.27 319.858 L2223.27 311.709 L2207.66 311.709 L2207.66 307.196 L2222.04 285.298 Z" fill="#000000" fill-rule="evenodd" fill-opacity="1" /></svg>
