<?xml version="1.0" encoding="utf-8"?>
<svg xmlns="http://www.w3.org/2000/svg" xmlns:xlink="http://www.w3.org/1999/xlink" width="600" height="400" viewBox="0 0 2400 1600">
<defs>
  <clipPath id="clip370">
    <rect x="0" y="0" width="2400" height="1600"/>
  </clipPath>
</defs>
<path clip-path="url(#clip370)" d="
M0 1600 L2400 1600 L2400 0 L0 0  Z
  " fill="#ffffff" fill-rule="evenodd" fill-opacity="1"/>
<defs>
  <clipPath id="clip371">
    <rect x="480" y="0" width="1681" height="1600"/>
  </clipPath>
</defs>
<path clip-path="url(#clip370)" d="
M186.274 1486.45 L2352.76 1486.45 L2352.76 47.2441 L186.274 47.2441  Z
  " fill="#ffffff" fill-rule="evenodd" fill-opacity="1"/>
<defs>
  <clipPath id="clip372">
    <rect x="186" y="47" width="2167" height="1440"/>
  </clipPath>
</defs>
<polyline clip-path="url(#clip372)" style="stroke:#000000; stroke-linecap:butt; stroke-linejoin:round; stroke-width:2; stroke-opacity:0.1; fill:none" points="
  247.59,1486.45 247.59,47.2441 
  "/>
<polyline clip-path="url(#clip372)" style="stroke:#000000; stroke-linecap:butt; stroke-linejoin:round; stroke-width:2; stroke-opacity:0.1; fill:none" points="
  758.552,1486.45 758.552,47.2441 
  "/>
<polyline clip-path="url(#clip372)" style="stroke:#000000; stroke-linecap:butt; stroke-linejoin:round; stroke-width:2; stroke-opacity:0.1; fill:none" points="
  1269.51,1486.45 1269.51,47.2441 
  "/>
<polyline clip-path="url(#clip372)" style="stroke:#000000; stroke-linecap:butt; stroke-linejoin:round; stroke-width:2; stroke-opacity:0.1; fill:none" points="
  1780.48,1486.45 1780.48,47.2441 
  "/>
<polyline clip-path="url(#clip372)" style="stroke:#000000; stroke-linecap:butt; stroke-linejoin:round; stroke-width:2; stroke-opacity:0.1; fill:none" points="
  2291.44,1486.45 2291.44,47.2441 
  "/>
<polyline clip-path="url(#clip370)" style="stroke:#000000; stroke-linecap:butt; stroke-linejoin:round; stroke-width:4; stroke-opacity:1; fill:none" points="
  186.274,1486.45 2352.76,1486.45 
  "/>
<polyline clip-path="url(#clip370)" style="stroke:#000000; stroke-linecap:butt; stroke-linejoin:round; stroke-width:4; stroke-opacity:1; fill:none" points="
  247.59,1486.45 247.59,1467.55 
  "/>
<polyline clip-path="url(#clip370)" style="stroke:#000000; stroke-linecap:butt; stroke-linejoin:round; stroke-width:4; stroke-opacity:1; fill:none" points="
  758.552,1486.45 758.552,1467.55 
  "/>
<polyline clip-path="url(#clip370)" style="stroke:#000000; stroke-linecap:butt; stroke-linejoin:round; stroke-width:4; stroke-opacity:1; fill:none" points="
  1269.51,1486.45 1269.51,1467.55 
  "/>
<polyline clip-path="url(#clip370)" style="stroke:#000000; stroke-linecap:butt; stroke-linejoin:round; stroke-width:4; stroke-opacity:1; fill:none" points="
  1780.48,1486.45 1780.48,1467.55 
  "/>
<polyline clip-path="url(#clip370)" style="stroke:#000000; stroke-linecap:butt; stroke-linejoin:round; stroke-width:4; stroke-opacity:1; fill:none" points="
  2291.44,1486.45 2291.44,1467.55 
  "/>
<path clip-path="url(#clip370)" d="M194.118 1532.02 L223.793 1532.02 L223.793 1535.95 L194.118 1535.95 L194.118 1532.02 Z" fill="#000000" fill-rule="evenodd" fill-opacity="1" /><path clip-path="url(#clip370)" d="M234.696 1544.91 L242.335 1544.91 L242.335 1518.55 L234.025 1520.21 L234.025 1515.95 L242.289 1514.29 L246.965 1514.29 L246.965 1544.91 L254.603 1544.91 L254.603 1548.85 L234.696 1548.85 L234.696 1544.91 Z" fill="#000000" fill-rule="evenodd" fill-opacity="1" /><path clip-path="url(#clip370)" d="M264.048 1542.97 L268.932 1542.97 L268.932 1548.85 L264.048 1548.85 L264.048 1542.97 Z" fill="#000000" fill-rule="evenodd" fill-opacity="1" /><path clip-path="url(#clip370)" d="M289.117 1517.37 Q285.506 1517.37 283.677 1520.93 Q281.872 1524.47 281.872 1531.6 Q281.872 1538.71 283.677 1542.27 Q285.506 1545.82 289.117 1545.82 Q292.751 1545.82 294.557 1542.27 Q296.386 1538.71 296.386 1531.6 Q296.386 1524.47 294.557 1520.93 Q292.751 1517.37 289.117 1517.37 M289.117 1513.66 Q294.927 1513.66 297.983 1518.27 Q301.061 1522.85 301.061 1531.6 Q301.061 1540.33 297.983 1544.94 Q294.927 1549.52 289.117 1549.52 Q283.307 1549.52 280.228 1544.94 Q277.173 1540.33 277.173 1531.6 Q277.173 1522.85 280.228 1518.27 Q283.307 1513.66 289.117 1513.66 Z" fill="#000000" fill-rule="evenodd" fill-opacity="1" /><path clip-path="url(#clip370)" d="M705.578 1532.02 L735.254 1532.02 L735.254 1535.95 L705.578 1535.95 L705.578 1532.02 Z" fill="#000000" fill-rule="evenodd" fill-opacity="1" /><path clip-path="url(#clip370)" d="M755.346 1517.37 Q751.735 1517.37 749.906 1520.93 Q748.101 1524.47 748.101 1531.6 Q748.101 1538.71 749.906 1542.27 Q751.735 1545.82 755.346 1545.82 Q758.98 1545.82 760.786 1542.27 Q762.615 1538.71 762.615 1531.6 Q762.615 1524.47 760.786 1520.93 Q758.98 1517.37 755.346 1517.37 M755.346 1513.66 Q761.156 1513.66 764.212 1518.27 Q767.291 1522.85 767.291 1531.6 Q767.291 1540.33 764.212 1544.94 Q761.156 1549.52 755.346 1549.52 Q749.536 1549.52 746.457 1544.94 Q743.402 1540.33 743.402 1531.6 Q743.402 1522.85 746.457 1518.27 Q749.536 1513.66 755.346 1513.66 Z" fill="#000000" fill-rule="evenodd" fill-opacity="1" /><path clip-path="url(#clip370)" d="M775.508 1542.97 L780.392 1542.97 L780.392 1548.85 L775.508 1548.85 L775.508 1542.97 Z" fill="#000000" fill-rule="evenodd" fill-opacity="1" /><path clip-path="url(#clip370)" d="M790.624 1514.29 L808.98 1514.29 L808.98 1518.22 L794.906 1518.22 L794.906 1526.7 Q795.925 1526.35 796.943 1526.19 Q797.962 1526 798.98 1526 Q804.767 1526 808.147 1529.17 Q811.526 1532.34 811.526 1537.76 Q811.526 1543.34 808.054 1546.44 Q804.582 1549.52 798.263 1549.52 Q796.087 1549.52 793.818 1549.15 Q791.573 1548.78 789.166 1548.04 L789.166 1543.34 Q791.249 1544.47 793.471 1545.03 Q795.693 1545.58 798.17 1545.58 Q802.175 1545.58 804.513 1543.48 Q806.851 1541.37 806.851 1537.76 Q806.851 1534.15 804.513 1532.04 Q802.175 1529.94 798.17 1529.94 Q796.295 1529.94 794.42 1530.35 Q792.568 1530.77 790.624 1531.65 L790.624 1514.29 Z" fill="#000000" fill-rule="evenodd" fill-opacity="1" /><path clip-path="url(#clip370)" d="M1246.9 1517.37 Q1243.29 1517.37 1241.46 1520.93 Q1239.65 1524.47 1239.65 1531.6 Q1239.65 1538.71 1241.46 1542.27 Q1243.29 1545.82 1246.9 1545.82 Q1250.53 1545.82 1252.34 1542.27 Q1254.17 1538.71 1254.17 1531.6 Q1254.17 1524.47 1252.34 1520.93 Q1250.53 1517.37 1246.9 1517.37 M1246.9 1513.66 Q1252.71 1513.66 1255.77 1518.27 Q1258.84 1522.85 1258.84 1531.6 Q1258.84 1540.33 1255.77 1544.94 Q1252.71 1549.52 1246.9 1549.52 Q1241.09 1549.52 1238.01 1544.94 Q1234.95 1540.33 1234.95 1531.6 Q1234.95 1522.85 1238.01 1518.27 Q1241.09 1513.66 1246.9 1513.66 Z" fill="#000000" fill-rule="evenodd" fill-opacity="1" /><path clip-path="url(#clip370)" d="M1267.06 1542.97 L1271.95 1542.97 L1271.95 1548.85 L1267.06 1548.85 L1267.06 1542.97 Z" fill="#000000" fill-rule="evenodd" fill-opacity="1" /><path clip-path="url(#clip370)" d="M1292.13 1517.37 Q1288.52 1517.37 1286.69 1520.93 Q1284.89 1524.47 1284.89 1531.6 Q1284.89 1538.71 1286.69 1542.27 Q1288.52 1545.82 1292.13 1545.82 Q1295.76 1545.82 1297.57 1542.27 Q1299.4 1538.71 1299.4 1531.6 Q1299.4 1524.47 1297.57 1520.93 Q1295.76 1517.37 1292.13 1517.37 M1292.13 1513.66 Q1297.94 1513.66 1301 1518.27 Q1304.07 1522.85 1304.07 1531.6 Q1304.07 1540.33 1301 1544.94 Q1297.94 1549.52 1292.13 1549.52 Q1286.32 1549.52 1283.24 1544.94 Q1280.19 1540.33 1280.19 1531.6 Q1280.19 1522.85 1283.24 1518.27 Q1286.32 1513.66 1292.13 1513.66 Z" fill="#000000" fill-rule="evenodd" fill-opacity="1" /><path clip-path="url(#clip370)" d="M1758.36 1517.37 Q1754.75 1517.37 1752.92 1520.93 Q1751.11 1524.47 1751.11 1531.6 Q1751.11 1538.71 1752.92 1542.27 Q1754.75 1545.82 1758.36 1545.82 Q1761.99 1545.82 1763.8 1542.27 Q1765.63 1538.71 1765.63 1531.6 Q1765.63 1524.47 1763.8 1520.93 Q1761.99 1517.37 1758.36 1517.37 M1758.36 1513.66 Q1764.17 1513.66 1767.23 1518.27 Q1770.3 1522.85 1770.3 1531.6 Q1770.3 1540.33 1767.23 1544.94 Q1764.17 1549.52 1758.36 1549.52 Q1752.55 1549.52 1749.47 1544.94 Q1746.42 1540.33 1746.42 1531.6 Q1746.42 1522.85 1749.47 1518.27 Q1752.55 1513.66 1758.36 1513.66 Z" fill="#000000" fill-rule="evenodd" fill-opacity="1" /><path clip-path="url(#clip370)" d="M1778.52 1542.97 L1783.41 1542.97 L1783.41 1548.85 L1778.52 1548.85 L1778.52 1542.97 Z" fill="#000000" fill-rule="evenodd" fill-opacity="1" /><path clip-path="url(#clip370)" d="M1793.64 1514.29 L1811.99 1514.29 L1811.99 1518.22 L1797.92 1518.22 L1797.92 1526.7 Q1798.94 1526.35 1799.96 1526.19 Q1800.98 1526 1801.99 1526 Q1807.78 1526 1811.16 1529.17 Q1814.54 1532.34 1814.54 1537.76 Q1814.54 1543.34 1811.07 1546.44 Q1807.6 1549.52 1801.28 1549.52 Q1799.1 1549.52 1796.83 1549.15 Q1794.59 1548.78 1792.18 1548.04 L1792.18 1543.34 Q1794.26 1544.47 1796.48 1545.03 Q1798.71 1545.58 1801.18 1545.58 Q1805.19 1545.58 1807.53 1543.48 Q1809.86 1541.37 1809.86 1537.76 Q1809.86 1534.15 1807.53 1532.04 Q1805.19 1529.94 1801.18 1529.94 Q1799.31 1529.94 1797.43 1530.35 Q1795.58 1530.77 1793.64 1531.65 L1793.64 1514.29 Z" fill="#000000" fill-rule="evenodd" fill-opacity="1" /><path clip-path="url(#clip370)" d="M2258.59 1544.91 L2266.23 1544.91 L2266.23 1518.55 L2257.92 1520.21 L2257.92 1515.95 L2266.19 1514.29 L2270.86 1514.29 L2270.86 1544.91 L2278.5 1544.91 L2278.5 1548.85 L2258.59 1548.85 L2258.59 1544.91 Z" fill="#000000" fill-rule="evenodd" fill-opacity="1" /><path clip-path="url(#clip370)" d="M2287.95 1542.97 L2292.83 1542.97 L2292.83 1548.85 L2287.95 1548.85 L2287.95 1542.97 Z" fill="#000000" fill-rule="evenodd" fill-opacity="1" /><path clip-path="url(#clip370)" d="M2313.01 1517.37 Q2309.4 1517.37 2307.57 1520.93 Q2305.77 1524.47 2305.77 1531.6 Q2305.77 1538.71 2307.57 1542.27 Q2309.4 1545.82 2313.01 1545.82 Q2316.65 1545.82 2318.45 1542.27 Q2320.28 1538.71 2320.28 1531.6 Q2320.28 1524.47 2318.45 1520.93 Q2316.65 1517.37 2313.01 1517.37 M2313.01 1513.66 Q2318.82 1513.66 2321.88 1518.27 Q2324.96 1522.85 2324.96 1531.6 Q2324.96 1540.33 2321.88 1544.94 Q2318.82 1549.52 2313.01 1549.52 Q2307.2 1549.52 2304.13 1544.94 Q2301.07 1540.33 2301.07 1531.6 Q2301.07 1522.85 2304.13 1518.27 Q2307.2 1513.66 2313.01 1513.66 Z" fill="#000000" fill-rule="evenodd" fill-opacity="1" /><polyline clip-path="url(#clip372)" style="stroke:#000000; stroke-linecap:butt; stroke-linejoin:round; stroke-width:2; stroke-opacity:0.1; fill:none" points="
  186.274,1445.72 2352.76,1445.72 
  "/>
<polyline clip-path="url(#clip372)" style="stroke:#000000; stroke-linecap:butt; stroke-linejoin:round; stroke-width:2; stroke-opacity:0.1; fill:none" points="
  186.274,1113.84 2352.76,1113.84 
  "/>
<polyline clip-path="url(#clip372)" style="stroke:#000000; stroke-linecap:butt; stroke-linejoin:round; stroke-width:2; stroke-opacity:0.1; fill:none" points="
  186.274,781.966 2352.76,781.966 
  "/>
<polyline clip-path="url(#clip372)" style="stroke:#000000; stroke-linecap:butt; stroke-linejoin:round; stroke-width:2; stroke-opacity:0.1; fill:none" points="
  186.274,450.092 2352.76,450.092 
  "/>
<polyline clip-path="url(#clip372)" style="stroke:#000000; stroke-linecap:butt; stroke-linejoin:round; stroke-width:2; stroke-opacity:0.1; fill:none" points="
  186.274,118.217 2352.76,118.217 
  "/>
<polyline clip-path="url(#clip370)" style="stroke:#000000; stroke-linecap:butt; stroke-linejoin:round; stroke-width:4; stroke-opacity:1; fill:none" points="
  186.274,1486.45 186.274,47.2441 
  "/>
<polyline clip-path="url(#clip370)" style="stroke:#000000; stroke-linecap:butt; stroke-linejoin:round; stroke-width:4; stroke-opacity:1; fill:none" points="
  186.274,1445.72 205.172,1445.72 
  "/>
<polyline clip-path="url(#clip370)" style="stroke:#000000; stroke-linecap:butt; stroke-linejoin:round; stroke-width:4; stroke-opacity:1; fill:none" points="
  186.274,1113.84 205.172,1113.84 
  "/>
<polyline clip-path="url(#clip370)" style="stroke:#000000; stroke-linecap:butt; stroke-linejoin:round; stroke-width:4; stroke-opacity:1; fill:none" points="
  186.274,781.966 205.172,781.966 
  "/>
<polyline clip-path="url(#clip370)" style="stroke:#000000; stroke-linecap:butt; stroke-linejoin:round; stroke-width:4; stroke-opacity:1; fill:none" points="
  186.274,450.092 205.172,450.092 
  "/>
<polyline clip-path="url(#clip370)" style="stroke:#000000; stroke-linecap:butt; stroke-linejoin:round; stroke-width:4; stroke-opacity:1; fill:none" points="
  186.274,118.217 205.172,118.217 
  "/>
<path clip-path="url(#clip370)" d="M62.9365 1431.51 Q59.3254 1431.51 57.4967 1435.08 Q55.6912 1438.62 55.6912 1445.75 Q55.6912 1452.86 57.4967 1456.42 Q59.3254 1459.96 62.9365 1459.96 Q66.5707 1459.96 68.3763 1456.42 Q70.205 1452.86 70.205 1445.75 Q70.205 1438.62 68.3763 1435.08 Q66.5707 1431.51 62.9365 1431.51 M62.9365 1427.81 Q68.7467 1427.81 71.8022 1432.42 Q74.8809 1437 74.8809 1445.75 Q74.8809 1454.48 71.8022 1459.08 Q68.7467 1463.67 62.9365 1463.67 Q57.1264 1463.67 54.0477 1459.08 Q50.9921 1454.48 50.9921 1445.75 Q50.9921 1437 54.0477 1432.42 Q57.1264 1427.81 62.9365 1427.81 Z" fill="#000000" fill-rule="evenodd" fill-opacity="1" /><path clip-path="url(#clip370)" d="M83.0984 1457.12 L87.9827 1457.12 L87.9827 1463 L83.0984 1463 L83.0984 1457.12 Z" fill="#000000" fill-rule="evenodd" fill-opacity="1" /><path clip-path="url(#clip370)" d="M108.168 1431.51 Q104.557 1431.51 102.728 1435.08 Q100.922 1438.62 100.922 1445.75 Q100.922 1452.86 102.728 1456.42 Q104.557 1459.96 108.168 1459.96 Q111.802 1459.96 113.608 1456.42 Q115.436 1452.86 115.436 1445.75 Q115.436 1438.62 113.608 1435.08 Q111.802 1431.51 108.168 1431.51 M108.168 1427.81 Q113.978 1427.81 117.033 1432.42 Q120.112 1437 120.112 1445.75 Q120.112 1454.48 117.033 1459.08 Q113.978 1463.67 108.168 1463.67 Q102.358 1463.67 99.2789 1459.08 Q96.2234 1454.48 96.2234 1445.75 Q96.2234 1437 99.2789 1432.42 Q102.358 1427.81 108.168 1427.81 Z" fill="#000000" fill-rule="evenodd" fill-opacity="1" /><path clip-path="url(#clip370)" d="M138.33 1431.51 Q134.719 1431.51 132.89 1435.08 Q131.084 1438.62 131.084 1445.75 Q131.084 1452.86 132.89 1456.42 Q134.719 1459.96 138.33 1459.96 Q141.964 1459.96 143.769 1456.42 Q145.598 1452.86 145.598 1445.75 Q145.598 1438.62 143.769 1435.08 Q141.964 1431.51 138.33 1431.51 M138.33 1427.81 Q144.14 1427.81 147.195 1432.42 Q150.274 1437 150.274 1445.75 Q150.274 1454.48 147.195 1459.08 Q144.14 1463.67 138.33 1463.67 Q132.519 1463.67 129.441 1459.08 Q126.385 1454.48 126.385 1445.75 Q126.385 1437 129.441 1432.42 Q132.519 1427.81 138.33 1427.81 Z" fill="#000000" fill-rule="evenodd" fill-opacity="1" /><path clip-path="url(#clip370)" d="M63.9319 1099.64 Q60.3208 1099.64 58.4921 1103.2 Q56.6865 1106.75 56.6865 1113.88 Q56.6865 1120.98 58.4921 1124.55 Q60.3208 1128.09 63.9319 1128.09 Q67.5661 1128.09 69.3717 1124.55 Q71.2004 1120.98 71.2004 1113.88 Q71.2004 1106.75 69.3717 1103.2 Q67.5661 1099.64 63.9319 1099.64 M63.9319 1095.94 Q69.742 1095.94 72.7976 1100.54 Q75.8763 1105.13 75.8763 1113.88 Q75.8763 1122.6 72.7976 1127.21 Q69.742 1131.79 63.9319 1131.79 Q58.1217 1131.79 55.043 1127.21 Q51.9875 1122.6 51.9875 1113.88 Q51.9875 1105.13 55.043 1100.54 Q58.1217 1095.94 63.9319 1095.94 Z" fill="#000000" fill-rule="evenodd" fill-opacity="1" /><path clip-path="url(#clip370)" d="M84.0938 1125.24 L88.978 1125.24 L88.978 1131.12 L84.0938 1131.12 L84.0938 1125.24 Z" fill="#000000" fill-rule="evenodd" fill-opacity="1" /><path clip-path="url(#clip370)" d="M103.191 1127.19 L119.51 1127.19 L119.51 1131.12 L97.566 1131.12 L97.566 1127.19 Q100.228 1124.43 104.811 1119.8 Q109.418 1115.15 110.598 1113.81 Q112.844 1111.28 113.723 1109.55 Q114.626 1107.79 114.626 1106.1 Q114.626 1103.34 112.682 1101.61 Q110.76 1099.87 107.658 1099.87 Q105.459 1099.87 103.006 1100.64 Q100.575 1101.4 97.7974 1102.95 L97.7974 1098.23 Q100.621 1097.09 103.075 1096.51 Q105.529 1095.94 107.566 1095.94 Q112.936 1095.94 116.131 1098.62 Q119.325 1101.31 119.325 1105.8 Q119.325 1107.93 118.515 1109.85 Q117.728 1111.75 115.621 1114.34 Q115.043 1115.01 111.941 1118.23 Q108.839 1121.42 103.191 1127.19 Z" fill="#000000" fill-rule="evenodd" fill-opacity="1" /><path clip-path="url(#clip370)" d="M129.371 1096.56 L147.728 1096.56 L147.728 1100.5 L133.654 1100.5 L133.654 1108.97 Q134.672 1108.62 135.691 1108.46 Q136.709 1108.27 137.728 1108.27 Q143.515 1108.27 146.894 1111.45 Q150.274 1114.62 150.274 1120.03 Q150.274 1125.61 146.802 1128.71 Q143.33 1131.79 137.01 1131.79 Q134.834 1131.79 132.566 1131.42 Q130.32 1131.05 127.913 1130.31 L127.913 1125.61 Q129.996 1126.75 132.219 1127.3 Q134.441 1127.86 136.918 1127.86 Q140.922 1127.86 143.26 1125.75 Q145.598 1123.64 145.598 1120.03 Q145.598 1116.42 143.26 1114.32 Q140.922 1112.21 136.918 1112.21 Q135.043 1112.21 133.168 1112.63 Q131.316 1113.04 129.371 1113.92 L129.371 1096.56 Z" fill="#000000" fill-rule="evenodd" fill-opacity="1" /><path clip-path="url(#clip370)" d="M62.9365 767.765 Q59.3254 767.765 57.4967 771.33 Q55.6912 774.872 55.6912 782.001 Q55.6912 789.108 57.4967 792.672 Q59.3254 796.214 62.9365 796.214 Q66.5707 796.214 68.3763 792.672 Q70.205 789.108 70.205 782.001 Q70.205 774.872 68.3763 771.33 Q66.5707 767.765 62.9365 767.765 M62.9365 764.061 Q68.7467 764.061 71.8022 768.668 Q74.8809 773.251 74.8809 782.001 Q74.8809 790.728 71.8022 795.334 Q68.7467 799.918 62.9365 799.918 Q57.1264 799.918 54.0477 795.334 Q50.9921 790.728 50.9921 782.001 Q50.9921 773.251 54.0477 768.668 Q57.1264 764.061 62.9365 764.061 Z" fill="#000000" fill-rule="evenodd" fill-opacity="1" /><path clip-path="url(#clip370)" d="M83.0984 793.367 L87.9827 793.367 L87.9827 799.246 L83.0984 799.246 L83.0984 793.367 Z" fill="#000000" fill-rule="evenodd" fill-opacity="1" /><path clip-path="url(#clip370)" d="M98.2141 764.686 L116.57 764.686 L116.57 768.622 L102.496 768.622 L102.496 777.094 Q103.515 776.747 104.534 776.585 Q105.552 776.399 106.571 776.399 Q112.358 776.399 115.737 779.571 Q119.117 782.742 119.117 788.159 Q119.117 793.737 115.645 796.839 Q112.172 799.918 105.853 799.918 Q103.677 799.918 101.409 799.547 Q99.1632 799.177 96.7558 798.436 L96.7558 793.737 Q98.8391 794.871 101.061 795.427 Q103.284 795.983 105.76 795.983 Q109.765 795.983 112.103 793.876 Q114.441 791.77 114.441 788.159 Q114.441 784.547 112.103 782.441 Q109.765 780.335 105.76 780.335 Q103.885 780.335 102.01 780.751 Q100.159 781.168 98.2141 782.047 L98.2141 764.686 Z" fill="#000000" fill-rule="evenodd" fill-opacity="1" /><path clip-path="url(#clip370)" d="M138.33 767.765 Q134.719 767.765 132.89 771.33 Q131.084 774.872 131.084 782.001 Q131.084 789.108 132.89 792.672 Q134.719 796.214 138.33 796.214 Q141.964 796.214 143.769 792.672 Q145.598 789.108 145.598 782.001 Q145.598 774.872 143.769 771.33 Q141.964 767.765 138.33 767.765 M138.33 764.061 Q144.14 764.061 147.195 768.668 Q150.274 773.251 150.274 782.001 Q150.274 790.728 147.195 795.334 Q144.14 799.918 138.33 799.918 Q132.519 799.918 129.441 795.334 Q126.385 790.728 126.385 782.001 Q126.385 773.251 129.441 768.668 Q132.519 764.061 138.33 764.061 Z" fill="#000000" fill-rule="evenodd" fill-opacity="1" /><path clip-path="url(#clip370)" d="M63.9319 435.891 Q60.3208 435.891 58.4921 439.455 Q56.6865 442.997 56.6865 450.127 Q56.6865 457.233 58.4921 460.798 Q60.3208 464.339 63.9319 464.339 Q67.5661 464.339 69.3717 460.798 Q71.2004 457.233 71.2004 450.127 Q71.2004 442.997 69.3717 439.455 Q67.5661 435.891 63.9319 435.891 M63.9319 432.187 Q69.742 432.187 72.7976 436.793 Q75.8763 441.377 75.8763 450.127 Q75.8763 458.853 72.7976 463.46 Q69.742 468.043 63.9319 468.043 Q58.1217 468.043 55.043 463.46 Q51.9875 458.853 51.9875 450.127 Q51.9875 441.377 55.043 436.793 Q58.1217 432.187 63.9319 432.187 Z" fill="#000000" fill-rule="evenodd" fill-opacity="1" /><path clip-path="url(#clip370)" d="M84.0938 461.492 L88.978 461.492 L88.978 467.372 L84.0938 467.372 L84.0938 461.492 Z" fill="#000000" fill-rule="evenodd" fill-opacity="1" /><path clip-path="url(#clip370)" d="M97.9826 432.812 L120.205 432.812 L120.205 434.803 L107.658 467.372 L102.774 467.372 L114.58 436.747 L97.9826 436.747 L97.9826 432.812 Z" fill="#000000" fill-rule="evenodd" fill-opacity="1" /><path clip-path="url(#clip370)" d="M129.371 432.812 L147.728 432.812 L147.728 436.747 L133.654 436.747 L133.654 445.219 Q134.672 444.872 135.691 444.71 Q136.709 444.525 137.728 444.525 Q143.515 444.525 146.894 447.696 Q150.274 450.867 150.274 456.284 Q150.274 461.863 146.802 464.964 Q143.33 468.043 137.01 468.043 Q134.834 468.043 132.566 467.673 Q130.32 467.302 127.913 466.562 L127.913 461.863 Q129.996 462.997 132.219 463.552 Q134.441 464.108 136.918 464.108 Q140.922 464.108 143.26 462.001 Q145.598 459.895 145.598 456.284 Q145.598 452.673 143.26 450.566 Q140.922 448.46 136.918 448.46 Q135.043 448.46 133.168 448.877 Q131.316 449.293 129.371 450.173 L129.371 432.812 Z" fill="#000000" fill-rule="evenodd" fill-opacity="1" /><path clip-path="url(#clip370)" d="M53.7467 131.562 L61.3856 131.562 L61.3856 105.196 L53.0754 106.863 L53.0754 102.604 L61.3393 100.937 L66.0152 100.937 L66.0152 131.562 L73.654 131.562 L73.654 135.497 L53.7467 135.497 L53.7467 131.562 Z" fill="#000000" fill-rule="evenodd" fill-opacity="1" /><path clip-path="url(#clip370)" d="M83.0984 129.618 L87.9827 129.618 L87.9827 135.497 L83.0984 135.497 L83.0984 129.618 Z" fill="#000000" fill-rule="evenodd" fill-opacity="1" /><path clip-path="url(#clip370)" d="M108.168 104.016 Q104.557 104.016 102.728 107.581 Q100.922 111.122 100.922 118.252 Q100.922 125.358 102.728 128.923 Q104.557 132.465 108.168 132.465 Q111.802 132.465 113.608 128.923 Q115.436 125.358 115.436 118.252 Q115.436 111.122 113.608 107.581 Q111.802 104.016 108.168 104.016 M108.168 100.312 Q113.978 100.312 117.033 104.919 Q120.112 109.502 120.112 118.252 Q120.112 126.979 117.033 131.585 Q113.978 136.168 108.168 136.168 Q102.358 136.168 99.2789 131.585 Q96.2234 126.979 96.2234 118.252 Q96.2234 109.502 99.2789 104.919 Q102.358 100.312 108.168 100.312 Z" fill="#000000" fill-rule="evenodd" fill-opacity="1" /><path clip-path="url(#clip370)" d="M138.33 104.016 Q134.719 104.016 132.89 107.581 Q131.084 111.122 131.084 118.252 Q131.084 125.358 132.89 128.923 Q134.719 132.465 138.33 132.465 Q141.964 132.465 143.769 128.923 Q145.598 125.358 145.598 118.252 Q145.598 111.122 143.769 107.581 Q141.964 104.016 138.33 104.016 M138.33 100.312 Q144.14 100.312 147.195 104.919 Q150.274 109.502 150.274 118.252 Q150.274 126.979 147.195 131.585 Q144.14 136.168 138.33 136.168 Q132.519 136.168 129.441 131.585 Q126.385 126.979 126.385 118.252 Q126.385 109.502 129.441 104.919 Q132.519 100.312 138.33 100.312 Z" fill="#000000" fill-rule="evenodd" fill-opacity="1" /><polyline clip-path="url(#clip372)" style="stroke:#009af9; stroke-linecap:butt; stroke-linejoin:round; stroke-width:12; stroke-opacity:1; fill:none" points="
  247.59,1445.72 355.161,1375.85 462.732,1305.98 570.303,1236.11 677.874,1166.24 785.445,1096.37 893.016,1026.51 1000.59,956.637 1108.16,886.769 1215.73,816.901 
  1323.3,747.032 1430.87,677.164 1538.44,607.296 1646.01,537.427 1753.58,467.559 1861.16,397.691 1968.73,327.822 2076.3,257.954 2183.87,188.086 2291.44,118.217 
  
  "/>
<line clip-path="url(#clip372)" x1="247.59" y1="1445.72" x2="247.59" y2="1429.72" style="stroke:#009af9; stroke-width:3.2; stroke-opacity:1"/>
<line clip-path="url(#clip372)" x1="247.59" y1="1445.72" x2="231.59" y2="1445.72" style="stroke:#009af9; stroke-width:3.2; stroke-opacity:1"/>
<line clip-path="url(#clip372)" x1="247.59" y1="1445.72" x2="247.59" y2="1461.72" style="stroke:#009af9; stroke-width:3.2; stroke-opacity:1"/>
<line clip-path="url(#clip372)" x1="247.59" y1="1445.72" x2="263.59" y2="1445.72" style="stroke:#009af9; stroke-width:3.2; stroke-opacity:1"/>
<line clip-path="url(#clip372)" x1="355.161" y1="1375.85" x2="355.161" y2="1359.85" style="stroke:#009af9; stroke-width:3.2; stroke-opacity:1"/>
<line clip-path="url(#clip372)" x1="355.161" y1="1375.85" x2="339.161" y2="1375.85" style="stroke:#009af9; stroke-width:3.2; stroke-opacity:1"/>
<line clip-path="url(#clip372)" x1="355.161" y1="1375.85" x2="355.161" y2="1391.85" style="stroke:#009af9; stroke-width:3.2; stroke-opacity:1"/>
<line clip-path="url(#clip372)" x1="355.161" y1="1375.85" x2="371.161" y2="1375.85" style="stroke:#009af9; stroke-width:3.2; stroke-opacity:1"/>
<line clip-path="url(#clip372)" x1="462.732" y1="1305.98" x2="462.732" y2="1289.98" style="stroke:#009af9; stroke-width:3.2; stroke-opacity:1"/>
<line clip-path="url(#clip372)" x1="462.732" y1="1305.98" x2="446.732" y2="1305.98" style="stroke:#009af9; stroke-width:3.2; stroke-opacity:1"/>
<line clip-path="url(#clip372)" x1="462.732" y1="1305.98" x2="462.732" y2="1321.98" style="stroke:#009af9; stroke-width:3.2; stroke-opacity:1"/>
<line clip-path="url(#clip372)" x1="462.732" y1="1305.98" x2="478.732" y2="1305.98" style="stroke:#009af9; stroke-width:3.2; stroke-opacity:1"/>
<line clip-path="url(#clip372)" x1="570.303" y1="1236.11" x2="570.303" y2="1220.11" style="stroke:#009af9; stroke-width:3.2; stroke-opacity:1"/>
<line clip-path="url(#clip372)" x1="570.303" y1="1236.11" x2="554.303" y2="1236.11" style="stroke:#009af9; stroke-width:3.2; stroke-opacity:1"/>
<line clip-path="url(#clip372)" x1="570.303" y1="1236.11" x2="570.303" y2="1252.11" style="stroke:#009af9; stroke-width:3.2; stroke-opacity:1"/>
<line clip-path="url(#clip372)" x1="570.303" y1="1236.11" x2="586.303" y2="1236.11" style="stroke:#009af9; stroke-width:3.2; stroke-opacity:1"/>
<line clip-path="url(#clip372)" x1="677.874" y1="1166.24" x2="677.874" y2="1150.24" style="stroke:#009af9; stroke-width:3.2; stroke-opacity:1"/>
<line clip-path="url(#clip372)" x1="677.874" y1="1166.24" x2="661.874" y2="1166.24" style="stroke:#009af9; stroke-width:3.2; stroke-opacity:1"/>
<line clip-path="url(#clip372)" x1="677.874" y1="1166.24" x2="677.874" y2="1182.24" style="stroke:#009af9; stroke-width:3.2; stroke-opacity:1"/>
<line clip-path="url(#clip372)" x1="677.874" y1="1166.24" x2="693.874" y2="1166.24" style="stroke:#009af9; stroke-width:3.2; stroke-opacity:1"/>
<line clip-path="url(#clip372)" x1="785.445" y1="1096.37" x2="785.445" y2="1080.37" style="stroke:#009af9; stroke-width:3.2; stroke-opacity:1"/>
<line clip-path="url(#clip372)" x1="785.445" y1="1096.37" x2="769.445" y2="1096.37" style="stroke:#009af9; stroke-width:3.2; stroke-opacity:1"/>
<line clip-path="url(#clip372)" x1="785.445" y1="1096.37" x2="785.445" y2="1112.37" style="stroke:#009af9; stroke-width:3.2; stroke-opacity:1"/>
<line clip-path="url(#clip372)" x1="785.445" y1="1096.37" x2="801.445" y2="1096.37" style="stroke:#009af9; stroke-width:3.2; stroke-opacity:1"/>
<line clip-path="url(#clip372)" x1="893.016" y1="1026.51" x2="893.016" y2="1010.51" style="stroke:#009af9; stroke-width:3.2; stroke-opacity:1"/>
<line clip-path="url(#clip372)" x1="893.016" y1="1026.51" x2="877.016" y2="1026.51" style="stroke:#009af9; stroke-width:3.2; stroke-opacity:1"/>
<line clip-path="url(#clip372)" x1="893.016" y1="1026.51" x2="893.016" y2="1042.51" style="stroke:#009af9; stroke-width:3.2; stroke-opacity:1"/>
<line clip-path="url(#clip372)" x1="893.016" y1="1026.51" x2="909.016" y2="1026.51" style="stroke:#009af9; stroke-width:3.2; stroke-opacity:1"/>
<line clip-path="url(#clip372)" x1="1000.59" y1="956.637" x2="1000.59" y2="940.637" style="stroke:#009af9; stroke-width:3.2; stroke-opacity:1"/>
<line clip-path="url(#clip372)" x1="1000.59" y1="956.637" x2="984.587" y2="956.637" style="stroke:#009af9; stroke-width:3.2; stroke-opacity:1"/>
<line clip-path="url(#clip372)" x1="1000.59" y1="956.637" x2="1000.59" y2="972.637" style="stroke:#009af9; stroke-width:3.2; stroke-opacity:1"/>
<line clip-path="url(#clip372)" x1="1000.59" y1="956.637" x2="1016.59" y2="956.637" style="stroke:#009af9; stroke-width:3.2; stroke-opacity:1"/>
<line clip-path="url(#clip372)" x1="1108.16" y1="886.769" x2="1108.16" y2="870.769" style="stroke:#009af9; stroke-width:3.2; stroke-opacity:1"/>
<line clip-path="url(#clip372)" x1="1108.16" y1="886.769" x2="1092.16" y2="886.769" style="stroke:#009af9; stroke-width:3.2; stroke-opacity:1"/>
<line clip-path="url(#clip372)" x1="1108.16" y1="886.769" x2="1108.16" y2="902.769" style="stroke:#009af9; stroke-width:3.2; stroke-opacity:1"/>
<line clip-path="url(#clip372)" x1="1108.16" y1="886.769" x2="1124.16" y2="886.769" style="stroke:#009af9; stroke-width:3.2; stroke-opacity:1"/>
<line clip-path="url(#clip372)" x1="1215.73" y1="816.901" x2="1215.73" y2="800.901" style="stroke:#009af9; stroke-width:3.2; stroke-opacity:1"/>
<line clip-path="url(#clip372)" x1="1215.73" y1="816.901" x2="1199.73" y2="816.901" style="stroke:#009af9; stroke-width:3.2; stroke-opacity:1"/>
<line clip-path="url(#clip372)" x1="1215.73" y1="816.901" x2="1215.73" y2="832.901" style="stroke:#009af9; stroke-width:3.2; stroke-opacity:1"/>
<line clip-path="url(#clip372)" x1="1215.73" y1="816.901" x2="1231.73" y2="816.901" style="stroke:#009af9; stroke-width:3.2; stroke-opacity:1"/>
<line clip-path="url(#clip372)" x1="1323.3" y1="747.032" x2="1323.3" y2="731.032" style="stroke:#009af9; stroke-width:3.2; stroke-opacity:1"/>
<line clip-path="url(#clip372)" x1="1323.3" y1="747.032" x2="1307.3" y2="747.032" style="stroke:#009af9; stroke-width:3.2; stroke-opacity:1"/>
<line clip-path="url(#clip372)" x1="1323.3" y1="747.032" x2="1323.3" y2="763.032" style="stroke:#009af9; stroke-width:3.2; stroke-opacity:1"/>
<line clip-path="url(#clip372)" x1="1323.3" y1="747.032" x2="1339.3" y2="747.032" style="stroke:#009af9; stroke-width:3.2; stroke-opacity:1"/>
<line clip-path="url(#clip372)" x1="1430.87" y1="677.164" x2="1430.87" y2="661.164" style="stroke:#009af9; stroke-width:3.2; stroke-opacity:1"/>
<line clip-path="url(#clip372)" x1="1430.87" y1="677.164" x2="1414.87" y2="677.164" style="stroke:#009af9; stroke-width:3.2; stroke-opacity:1"/>
<line clip-path="url(#clip372)" x1="1430.87" y1="677.164" x2="1430.87" y2="693.164" style="stroke:#009af9; stroke-width:3.2; stroke-opacity:1"/>
<line clip-path="url(#clip372)" x1="1430.87" y1="677.164" x2="1446.87" y2="677.164" style="stroke:#009af9; stroke-width:3.2; stroke-opacity:1"/>
<line clip-path="url(#clip372)" x1="1538.44" y1="607.296" x2="1538.44" y2="591.296" style="stroke:#009af9; stroke-width:3.2; stroke-opacity:1"/>
<line clip-path="url(#clip372)" x1="1538.44" y1="607.296" x2="1522.44" y2="607.296" style="stroke:#009af9; stroke-width:3.2; stroke-opacity:1"/>
<line clip-path="url(#clip372)" x1="1538.44" y1="607.296" x2="1538.44" y2="623.296" style="stroke:#009af9; stroke-width:3.2; stroke-opacity:1"/>
<line clip-path="url(#clip372)" x1="1538.44" y1="607.296" x2="1554.44" y2="607.296" style="stroke:#009af9; stroke-width:3.2; stroke-opacity:1"/>
<line clip-path="url(#clip372)" x1="1646.01" y1="537.427" x2="1646.01" y2="521.427" style="stroke:#009af9; stroke-width:3.2; stroke-opacity:1"/>
<line clip-path="url(#clip372)" x1="1646.01" y1="537.427" x2="1630.01" y2="537.427" style="stroke:#009af9; stroke-width:3.2; stroke-opacity:1"/>
<line clip-path="url(#clip372)" x1="1646.01" y1="537.427" x2="1646.01" y2="553.427" style="stroke:#009af9; stroke-width:3.2; stroke-opacity:1"/>
<line clip-path="url(#clip372)" x1="1646.01" y1="537.427" x2="1662.01" y2="537.427" style="stroke:#009af9; stroke-width:3.2; stroke-opacity:1"/>
<line clip-path="url(#clip372)" x1="1753.58" y1="467.559" x2="1753.58" y2="451.559" style="stroke:#009af9; stroke-width:3.2; stroke-opacity:1"/>
<line clip-path="url(#clip372)" x1="1753.58" y1="467.559" x2="1737.58" y2="467.559" style="stroke:#009af9; stroke-width:3.2; stroke-opacity:1"/>
<line clip-path="url(#clip372)" x1="1753.58" y1="467.559" x2="1753.58" y2="483.559" style="stroke:#009af9; stroke-width:3.2; stroke-opacity:1"/>
<line clip-path="url(#clip372)" x1="1753.58" y1="467.559" x2="1769.58" y2="467.559" style="stroke:#009af9; stroke-width:3.2; stroke-opacity:1"/>
<line clip-path="url(#clip372)" x1="1861.16" y1="397.691" x2="1861.16" y2="381.691" style="stroke:#009af9; stroke-width:3.2; stroke-opacity:1"/>
<line clip-path="url(#clip372)" x1="1861.16" y1="397.691" x2="1845.16" y2="397.691" style="stroke:#009af9; stroke-width:3.2; stroke-opacity:1"/>
<line clip-path="url(#clip372)" x1="1861.16" y1="397.691" x2="1861.16" y2="413.691" style="stroke:#009af9; stroke-width:3.2; stroke-opacity:1"/>
<line clip-path="url(#clip372)" x1="1861.16" y1="397.691" x2="1877.16" y2="397.691" style="stroke:#009af9; stroke-width:3.2; stroke-opacity:1"/>
<line clip-path="url(#clip372)" x1="1968.73" y1="327.822" x2="1968.73" y2="311.822" style="stroke:#009af9; stroke-width:3.2; stroke-opacity:1"/>
<line clip-path="url(#clip372)" x1="1968.73" y1="327.822" x2="1952.73" y2="327.822" style="stroke:#009af9; stroke-width:3.2; stroke-opacity:1"/>
<line clip-path="url(#clip372)" x1="1968.73" y1="327.822" x2="1968.73" y2="343.822" style="stroke:#009af9; stroke-width:3.2; stroke-opacity:1"/>
<line clip-path="url(#clip372)" x1="1968.73" y1="327.822" x2="1984.73" y2="327.822" style="stroke:#009af9; stroke-width:3.2; stroke-opacity:1"/>
<line clip-path="url(#clip372)" x1="2076.3" y1="257.954" x2="2076.3" y2="241.954" style="stroke:#009af9; stroke-width:3.2; stroke-opacity:1"/>
<line clip-path="url(#clip372)" x1="2076.3" y1="257.954" x2="2060.3" y2="257.954" style="stroke:#009af9; stroke-width:3.2; stroke-opacity:1"/>
<line clip-path="url(#clip372)" x1="2076.3" y1="257.954" x2="2076.3" y2="273.954" style="stroke:#009af9; stroke-width:3.2; stroke-opacity:1"/>
<line clip-path="url(#clip372)" x1="2076.3" y1="257.954" x2="2092.3" y2="257.954" style="stroke:#009af9; stroke-width:3.2; stroke-opacity:1"/>
<line clip-path="url(#clip372)" x1="2183.87" y1="188.086" x2="2183.87" y2="172.086" style="stroke:#009af9; stroke-width:3.2; stroke-opacity:1"/>
<line clip-path="url(#clip372)" x1="2183.87" y1="188.086" x2="2167.87" y2="188.086" style="stroke:#009af9; stroke-width:3.2; stroke-opacity:1"/>
<line clip-path="url(#clip372)" x1="2183.87" y1="188.086" x2="2183.87" y2="204.086" style="stroke:#009af9; stroke-width:3.2; stroke-opacity:1"/>
<line clip-path="url(#clip372)" x1="2183.87" y1="188.086" x2="2199.87" y2="188.086" style="stroke:#009af9; stroke-width:3.2; stroke-opacity:1"/>
<line clip-path="url(#clip372)" x1="2291.44" y1="118.217" x2="2291.44" y2="102.217" style="stroke:#009af9; stroke-width:3.2; stroke-opacity:1"/>
<line clip-path="url(#clip372)" x1="2291.44" y1="118.217" x2="2275.44" y2="118.217" style="stroke:#009af9; stroke-width:3.2; stroke-opacity:1"/>
<line clip-path="url(#clip372)" x1="2291.44" y1="118.217" x2="2291.44" y2="134.217" style="stroke:#009af9; stroke-width:3.2; stroke-opacity:1"/>
<line clip-path="url(#clip372)" x1="2291.44" y1="118.217" x2="2307.44" y2="118.217" style="stroke:#009af9; stroke-width:3.2; stroke-opacity:1"/>
<polyline clip-path="url(#clip372)" style="stroke:#e26f46; stroke-linecap:butt; stroke-linejoin:round; stroke-width:12; stroke-opacity:1; fill:none" points="
  247.59,1445.72 355.161,1115.19 462.732,848.276 570.303,636.568 677.874,472.182 785.445,347.768 893.016,256.519 1000.59,192.185 1108.16,149.09 1215.73,122.146 
  1323.3,106.876 1430.87,99.4412 1538.44,96.6711 1646.01,96.1135 1753.58,96.1142 1861.16,96.2533 1968.73,97.28 2076.3,100.076 2183.87,105.069 2291.44,118.217 
  
  "/>
<circle clip-path="url(#clip372)" cx="247.59" cy="1445.72" r="14.4" fill="#e26f46" fill-rule="evenodd" fill-opacity="1" stroke="#000000" stroke-opacity="1" stroke-width="3.2"/>
<circle clip-path="url(#clip372)" cx="355.161" cy="1115.19" r="14.4" fill="#e26f46" fill-rule="evenodd" fill-opacity="1" stroke="#000000" stroke-opacity="1" stroke-width="3.2"/>
<circle clip-path="url(#clip372)" cx="462.732" cy="848.276" r="14.4" fill="#e26f46" fill-rule="evenodd" fill-opacity="1" stroke="#000000" stroke-opacity="1" stroke-width="3.2"/>
<circle clip-path="url(#clip372)" cx="570.303" cy="636.568" r="14.4" fill="#e26f46" fill-rule="evenodd" fill-opacity="1" stroke="#000000" stroke-opacity="1" stroke-width="3.2"/>
<circle clip-path="url(#clip372)" cx="677.874" cy="472.182" r="14.4" fill="#e26f46" fill-rule="evenodd" fill-opacity="1" stroke="#000000" stroke-opacity="1" stroke-width="3.2"/>
<circle clip-path="url(#clip372)" cx="785.445" cy="347.768" r="14.4" fill="#e26f46" fill-rule="evenodd" fill-opacity="1" stroke="#000000" stroke-opacity="1" stroke-width="3.2"/>
<circle clip-path="url(#clip372)" cx="893.016" cy="256.519" r="14.4" fill="#e26f46" fill-rule="evenodd" fill-opacity="1" stroke="#000000" stroke-opacity="1" stroke-width="3.2"/>
<circle clip-path="url(#clip372)" cx="1000.59" cy="192.185" r="14.4" fill="#e26f46" fill-rule="evenodd" fill-opacity="1" stroke="#000000" stroke-opacity="1" stroke-width="3.2"/>
<circle clip-path="url(#clip372)" cx="1108.16" cy="149.09" r="14.4" fill="#e26f46" fill-rule="evenodd" fill-opacity="1" stroke="#000000" stroke-opacity="1" stroke-width="3.2"/>
<circle clip-path="url(#clip372)" cx="1215.73" cy="122.146" r="14.4" fill="#e26f46" fill-rule="evenodd" fill-opacity="1" stroke="#000000" stroke-opacity="1" stroke-width="3.2"/>
<circle clip-path="url(#clip372)" cx="1323.3" cy="106.876" r="14.4" fill="#e26f46" fill-rule="evenodd" fill-opacity="1" stroke="#000000" stroke-opacity="1" stroke-width="3.2"/>
<circle clip-path="url(#clip372)" cx="1430.87" cy="99.4412" r="14.4" fill="#e26f46" fill-rule="evenodd" fill-opacity="1" stroke="#000000" stroke-opacity="1" stroke-width="3.2"/>
<circle clip-path="url(#clip372)" cx="1538.44" cy="96.6711" r="14.4" fill="#e26f46" fill-rule="evenodd" fill-opacity="1" stroke="#000000" stroke-opacity="1" stroke-width="3.2"/>
<circle clip-path="url(#clip372)" cx="1646.01" cy="96.1135" r="14.4" fill="#e26f46" fill-rule="evenodd" fill-opacity="1" stroke="#000000" stroke-opacity="1" stroke-width="3.2"/>
<circle clip-path="url(#clip372)" cx="1753.58" cy="96.1142" r="14.4" fill="#e26f46" fill-rule="evenodd" fill-opacity="1" stroke="#000000" stroke-opacity="1" stroke-width="3.2"/>
<circle clip-path="url(#clip372)" cx="1861.16" cy="96.2533" r="14.4" fill="#e26f46" fill-rule="evenodd" fill-opacity="1" stroke="#000000" stroke-opacity="1" stroke-width="3.2"/>
<circle clip-path="url(#clip372)" cx="1968.73" cy="97.28" r="14.4" fill="#e26f46" fill-rule="evenodd" fill-opacity="1" stroke="#000000" stroke-opacity="1" stroke-width="3.2"/>
<circle clip-path="url(#clip372)" cx="2076.3" cy="100.076" r="14.4" fill="#e26f46" fill-rule="evenodd" fill-opacity="1" stroke="#000000" stroke-opacity="1" stroke-width="3.2"/>
<circle clip-path="url(#clip372)" cx="2183.87" cy="105.069" r="14.4" fill="#e26f46" fill-rule="evenodd" fill-opacity="1" stroke="#000000" stroke-opacity="1" stroke-width="3.2"/>
<circle clip-path="url(#clip372)" cx="2291.44" cy="118.217" r="14.4" fill="#e26f46" fill-rule="evenodd" fill-opacity="1" stroke="#000000" stroke-opacity="1" stroke-width="3.2"/>
<polyline clip-path="url(#clip372)" style="stroke:#3da44d; stroke-linecap:butt; stroke-linejoin:round; stroke-width:12; stroke-opacity:1; fill:none" points="
  247.59,1445.72 355.161,1067.42 462.732,775.577 570.303,555.462 677.874,393.864 785.445,279.038 893.016,200.679 1000.59,149.878 1108.16,119.085 1215.73,102.061 
  1323.3,93.8289 1430.87,90.611 1538.44,89.7616 1646.01,89.6782 1753.58,89.6782 1861.16,89.7853 1968.73,90.7001 2076.3,93.9058 2183.87,101.601 2291.44,118.217 
  
  "/>
<line clip-path="url(#clip372)" x1="247.59" y1="1445.72" x2="247.59" y2="1429.72" style="stroke:#3da44d; stroke-width:3.2; stroke-opacity:1"/>
<line clip-path="url(#clip372)" x1="247.59" y1="1445.72" x2="231.59" y2="1445.72" style="stroke:#3da44d; stroke-width:3.2; stroke-opacity:1"/>
<line clip-path="url(#clip372)" x1="247.59" y1="1445.72" x2="247.59" y2="1461.72" style="stroke:#3da44d; stroke-width:3.2; stroke-opacity:1"/>
<line clip-path="url(#clip372)" x1="247.59" y1="1445.72" x2="263.59" y2="1445.72" style="stroke:#3da44d; stroke-width:3.2; stroke-opacity:1"/>
<line clip-path="url(#clip372)" x1="355.161" y1="1067.42" x2="355.161" y2="1051.42" style="stroke:#3da44d; stroke-width:3.2; stroke-opacity:1"/>
<line clip-path="url(#clip372)" x1="355.161" y1="1067.42" x2="339.161" y2="1067.42" style="stroke:#3da44d; stroke-width:3.2; stroke-opacity:1"/>
<line clip-path="url(#clip372)" x1="355.161" y1="1067.42" x2="355.161" y2="1083.42" style="stroke:#3da44d; stroke-width:3.2; stroke-opacity:1"/>
<line clip-path="url(#clip372)" x1="355.161" y1="1067.42" x2="371.161" y2="1067.42" style="stroke:#3da44d; stroke-width:3.2; stroke-opacity:1"/>
<line clip-path="url(#clip372)" x1="462.732" y1="775.577" x2="462.732" y2="759.577" style="stroke:#3da44d; stroke-width:3.2; stroke-opacity:1"/>
<line clip-path="url(#clip372)" x1="462.732" y1="775.577" x2="446.732" y2="775.577" style="stroke:#3da44d; stroke-width:3.2; stroke-opacity:1"/>
<line clip-path="url(#clip372)" x1="462.732" y1="775.577" x2="462.732" y2="791.577" style="stroke:#3da44d; stroke-width:3.2; stroke-opacity:1"/>
<line clip-path="url(#clip372)" x1="462.732" y1="775.577" x2="478.732" y2="775.577" style="stroke:#3da44d; stroke-width:3.2; stroke-opacity:1"/>
<line clip-path="url(#clip372)" x1="570.303" y1="555.462" x2="570.303" y2="539.462" style="stroke:#3da44d; stroke-width:3.2; stroke-opacity:1"/>
<line clip-path="url(#clip372)" x1="570.303" y1="555.462" x2="554.303" y2="555.462" style="stroke:#3da44d; stroke-width:3.2; stroke-opacity:1"/>
<line clip-path="url(#clip372)" x1="570.303" y1="555.462" x2="570.303" y2="571.462" style="stroke:#3da44d; stroke-width:3.2; stroke-opacity:1"/>
<line clip-path="url(#clip372)" x1="570.303" y1="555.462" x2="586.303" y2="555.462" style="stroke:#3da44d; stroke-width:3.2; stroke-opacity:1"/>
<line clip-path="url(#clip372)" x1="677.874" y1="393.864" x2="677.874" y2="377.864" style="stroke:#3da44d; stroke-width:3.2; stroke-opacity:1"/>
<line clip-path="url(#clip372)" x1="677.874" y1="393.864" x2="661.874" y2="393.864" style="stroke:#3da44d; stroke-width:3.2; stroke-opacity:1"/>
<line clip-path="url(#clip372)" x1="677.874" y1="393.864" x2="677.874" y2="409.864" style="stroke:#3da44d; stroke-width:3.2; stroke-opacity:1"/>
<line clip-path="url(#clip372)" x1="677.874" y1="393.864" x2="693.874" y2="393.864" style="stroke:#3da44d; stroke-width:3.2; stroke-opacity:1"/>
<line clip-path="url(#clip372)" x1="785.445" y1="279.038" x2="785.445" y2="263.038" style="stroke:#3da44d; stroke-width:3.2; stroke-opacity:1"/>
<line clip-path="url(#clip372)" x1="785.445" y1="279.038" x2="769.445" y2="279.038" style="stroke:#3da44d; stroke-width:3.2; stroke-opacity:1"/>
<line clip-path="url(#clip372)" x1="785.445" y1="279.038" x2="785.445" y2="295.038" style="stroke:#3da44d; stroke-width:3.2; stroke-opacity:1"/>
<line clip-path="url(#clip372)" x1="785.445" y1="279.038" x2="801.445" y2="279.038" style="stroke:#3da44d; stroke-width:3.2; stroke-opacity:1"/>
<line clip-path="url(#clip372)" x1="893.016" y1="200.679" x2="893.016" y2="184.679" style="stroke:#3da44d; stroke-width:3.2; stroke-opacity:1"/>
<line clip-path="url(#clip372)" x1="893.016" y1="200.679" x2="877.016" y2="200.679" style="stroke:#3da44d; stroke-width:3.2; stroke-opacity:1"/>
<line clip-path="url(#clip372)" x1="893.016" y1="200.679" x2="893.016" y2="216.679" style="stroke:#3da44d; stroke-width:3.2; stroke-opacity:1"/>
<line clip-path="url(#clip372)" x1="893.016" y1="200.679" x2="909.016" y2="200.679" style="stroke:#3da44d; stroke-width:3.2; stroke-opacity:1"/>
<line clip-path="url(#clip372)" x1="1000.59" y1="149.878" x2="1000.59" y2="133.878" style="stroke:#3da44d; stroke-width:3.2; stroke-opacity:1"/>
<line clip-path="url(#clip372)" x1="1000.59" y1="149.878" x2="984.587" y2="149.878" style="stroke:#3da44d; stroke-width:3.2; stroke-opacity:1"/>
<line clip-path="url(#clip372)" x1="1000.59" y1="149.878" x2="1000.59" y2="165.878" style="stroke:#3da44d; stroke-width:3.2; stroke-opacity:1"/>
<line clip-path="url(#clip372)" x1="1000.59" y1="149.878" x2="1016.59" y2="149.878" style="stroke:#3da44d; stroke-width:3.2; stroke-opacity:1"/>
<line clip-path="url(#clip372)" x1="1108.16" y1="119.085" x2="1108.16" y2="103.085" style="stroke:#3da44d; stroke-width:3.2; stroke-opacity:1"/>
<line clip-path="url(#clip372)" x1="1108.16" y1="119.085" x2="1092.16" y2="119.085" style="stroke:#3da44d; stroke-width:3.2; stroke-opacity:1"/>
<line clip-path="url(#clip372)" x1="1108.16" y1="119.085" x2="1108.16" y2="135.085" style="stroke:#3da44d; stroke-width:3.2; stroke-opacity:1"/>
<line clip-path="url(#clip372)" x1="1108.16" y1="119.085" x2="1124.16" y2="119.085" style="stroke:#3da44d; stroke-width:3.2; stroke-opacity:1"/>
<line clip-path="url(#clip372)" x1="1215.73" y1="102.061" x2="1215.73" y2="86.0612" style="stroke:#3da44d; stroke-width:3.2; stroke-opacity:1"/>
<line clip-path="url(#clip372)" x1="1215.73" y1="102.061" x2="1199.73" y2="102.061" style="stroke:#3da44d; stroke-width:3.2; stroke-opacity:1"/>
<line clip-path="url(#clip372)" x1="1215.73" y1="102.061" x2="1215.73" y2="118.061" style="stroke:#3da44d; stroke-width:3.2; stroke-opacity:1"/>
<line clip-path="url(#clip372)" x1="1215.73" y1="102.061" x2="1231.73" y2="102.061" style="stroke:#3da44d; stroke-width:3.2; stroke-opacity:1"/>
<line clip-path="url(#clip372)" x1="1323.3" y1="93.8289" x2="1323.3" y2="77.8289" style="stroke:#3da44d; stroke-width:3.2; stroke-opacity:1"/>
<line clip-path="url(#clip372)" x1="1323.3" y1="93.8289" x2="1307.3" y2="93.8289" style="stroke:#3da44d; stroke-width:3.2; stroke-opacity:1"/>
<line clip-path="url(#clip372)" x1="1323.3" y1="93.8289" x2="1323.3" y2="109.829" style="stroke:#3da44d; stroke-width:3.2; stroke-opacity:1"/>
<line clip-path="url(#clip372)" x1="1323.3" y1="93.8289" x2="1339.3" y2="93.8289" style="stroke:#3da44d; stroke-width:3.2; stroke-opacity:1"/>
<line clip-path="url(#clip372)" x1="1430.87" y1="90.611" x2="1430.87" y2="74.611" style="stroke:#3da44d; stroke-width:3.2; stroke-opacity:1"/>
<line clip-path="url(#clip372)" x1="1430.87" y1="90.611" x2="1414.87" y2="90.611" style="stroke:#3da44d; stroke-width:3.2; stroke-opacity:1"/>
<line clip-path="url(#clip372)" x1="1430.87" y1="90.611" x2="1430.87" y2="106.611" style="stroke:#3da44d; stroke-width:3.2; stroke-opacity:1"/>
<line clip-path="url(#clip372)" x1="1430.87" y1="90.611" x2="1446.87" y2="90.611" style="stroke:#3da44d; stroke-width:3.2; stroke-opacity:1"/>
<line clip-path="url(#clip372)" x1="1538.44" y1="89.7616" x2="1538.44" y2="73.7616" style="stroke:#3da44d; stroke-width:3.2; stroke-opacity:1"/>
<line clip-path="url(#clip372)" x1="1538.44" y1="89.7616" x2="1522.44" y2="89.7616" style="stroke:#3da44d; stroke-width:3.2; stroke-opacity:1"/>
<line clip-path="url(#clip372)" x1="1538.44" y1="89.7616" x2="1538.44" y2="105.762" style="stroke:#3da44d; stroke-width:3.2; stroke-opacity:1"/>
<line clip-path="url(#clip372)" x1="1538.44" y1="89.7616" x2="1554.44" y2="89.7616" style="stroke:#3da44d; stroke-width:3.2; stroke-opacity:1"/>
<line clip-path="url(#clip372)" x1="1646.01" y1="89.6782" x2="1646.01" y2="73.6782" style="stroke:#3da44d; stroke-width:3.2; stroke-opacity:1"/>
<line clip-path="url(#clip372)" x1="1646.01" y1="89.6782" x2="1630.01" y2="89.6782" style="stroke:#3da44d; stroke-width:3.2; stroke-opacity:1"/>
<line clip-path="url(#clip372)" x1="1646.01" y1="89.6782" x2="1646.01" y2="105.678" style="stroke:#3da44d; stroke-width:3.2; stroke-opacity:1"/>
<line clip-path="url(#clip372)" x1="1646.01" y1="89.6782" x2="1662.01" y2="89.6782" style="stroke:#3da44d; stroke-width:3.2; stroke-opacity:1"/>
<line clip-path="url(#clip372)" x1="1753.58" y1="89.6782" x2="1753.58" y2="73.6782" style="stroke:#3da44d; stroke-width:3.2; stroke-opacity:1"/>
<line clip-path="url(#clip372)" x1="1753.58" y1="89.6782" x2="1737.58" y2="89.6782" style="stroke:#3da44d; stroke-width:3.2; stroke-opacity:1"/>
<line clip-path="url(#clip372)" x1="1753.58" y1="89.6782" x2="1753.58" y2="105.678" style="stroke:#3da44d; stroke-width:3.2; stroke-opacity:1"/>
<line clip-path="url(#clip372)" x1="1753.58" y1="89.6782" x2="1769.58" y2="89.6782" style="stroke:#3da44d; stroke-width:3.2; stroke-opacity:1"/>
<line clip-path="url(#clip372)" x1="1861.16" y1="89.7853" x2="1861.16" y2="73.7853" style="stroke:#3da44d; stroke-width:3.2; stroke-opacity:1"/>
<line clip-path="url(#clip372)" x1="1861.16" y1="89.7853" x2="1845.16" y2="89.7853" style="stroke:#3da44d; stroke-width:3.2; stroke-opacity:1"/>
<line clip-path="url(#clip372)" x1="1861.16" y1="89.7853" x2="1861.16" y2="105.785" style="stroke:#3da44d; stroke-width:3.2; stroke-opacity:1"/>
<line clip-path="url(#clip372)" x1="1861.16" y1="89.7853" x2="1877.16" y2="89.7853" style="stroke:#3da44d; stroke-width:3.2; stroke-opacity:1"/>
<line clip-path="url(#clip372)" x1="1968.73" y1="90.7001" x2="1968.73" y2="74.7001" style="stroke:#3da44d; stroke-width:3.2; stroke-opacity:1"/>
<line clip-path="url(#clip372)" x1="1968.73" y1="90.7001" x2="1952.73" y2="90.7001" style="stroke:#3da44d; stroke-width:3.2; stroke-opacity:1"/>
<line clip-path="url(#clip372)" x1="1968.73" y1="90.7001" x2="1968.73" y2="106.7" style="stroke:#3da44d; stroke-width:3.2; stroke-opacity:1"/>
<line clip-path="url(#clip372)" x1="1968.73" y1="90.7001" x2="1984.73" y2="90.7001" style="stroke:#3da44d; stroke-width:3.2; stroke-opacity:1"/>
<line clip-path="url(#clip372)" x1="2076.3" y1="93.9058" x2="2076.3" y2="77.9058" style="stroke:#3da44d; stroke-width:3.2; stroke-opacity:1"/>
<line clip-path="url(#clip372)" x1="2076.3" y1="93.9058" x2="2060.3" y2="93.9058" style="stroke:#3da44d; stroke-width:3.2; stroke-opacity:1"/>
<line clip-path="url(#clip372)" x1="2076.3" y1="93.9058" x2="2076.3" y2="109.906" style="stroke:#3da44d; stroke-width:3.2; stroke-opacity:1"/>
<line clip-path="url(#clip372)" x1="2076.3" y1="93.9058" x2="2092.3" y2="93.9058" style="stroke:#3da44d; stroke-width:3.2; stroke-opacity:1"/>
<line clip-path="url(#clip372)" x1="2183.87" y1="101.601" x2="2183.87" y2="85.6014" style="stroke:#3da44d; stroke-width:3.2; stroke-opacity:1"/>
<line clip-path="url(#clip372)" x1="2183.87" y1="101.601" x2="2167.87" y2="101.601" style="stroke:#3da44d; stroke-width:3.2; stroke-opacity:1"/>
<line clip-path="url(#clip372)" x1="2183.87" y1="101.601" x2="2183.87" y2="117.601" style="stroke:#3da44d; stroke-width:3.2; stroke-opacity:1"/>
<line clip-path="url(#clip372)" x1="2183.87" y1="101.601" x2="2199.87" y2="101.601" style="stroke:#3da44d; stroke-width:3.2; stroke-opacity:1"/>
<line clip-path="url(#clip372)" x1="2291.44" y1="118.217" x2="2291.44" y2="102.217" style="stroke:#3da44d; stroke-width:3.2; stroke-opacity:1"/>
<line clip-path="url(#clip372)" x1="2291.44" y1="118.217" x2="2275.44" y2="118.217" style="stroke:#3da44d; stroke-width:3.2; stroke-opacity:1"/>
<line clip-path="url(#clip372)" x1="2291.44" y1="118.217" x2="2291.44" y2="134.217" style="stroke:#3da44d; stroke-width:3.2; stroke-opacity:1"/>
<line clip-path="url(#clip372)" x1="2291.44" y1="118.217" x2="2307.44" y2="118.217" style="stroke:#3da44d; stroke-width:3.2; stroke-opacity:1"/>
<polyline clip-path="url(#clip372)" style="stroke:#c271d2; stroke-linecap:butt; stroke-linejoin:round; stroke-width:12; stroke-opacity:1; fill:none" points="
  247.59,1445.72 355.161,1059.37 462.732,763.632 570.303,542.497 677.874,381.702 785.445,268.68 893.016,192.503 1000.59,143.826 1108.16,114.828 1215.73,99.1356 
  1323.3,91.7548 1430.87,88.9794 1538.44,88.2907 1646.01,88.2314 1753.58,88.2315 1861.16,88.3359 1968.73,89.2422 2076.3,92.5449 2183.87,100.863 2291.44,118.217 
  
  "/>
<path clip-path="url(#clip372)" d="M247.59 1429.72 L231.59 1445.72 L247.59 1461.72 L263.59 1445.72 L247.59 1429.72 Z" fill="#c271d2" fill-rule="evenodd" fill-opacity="1" stroke="#000000" stroke-opacity="1" stroke-width="3.2"/>
<path clip-path="url(#clip372)" d="M355.161 1043.37 L339.161 1059.37 L355.161 1075.37 L371.161 1059.37 L355.161 1043.37 Z" fill="#c271d2" fill-rule="evenodd" fill-opacity="1" stroke="#000000" stroke-opacity="1" stroke-width="3.2"/>
<path clip-path="url(#clip372)" d="M462.732 747.632 L446.732 763.632 L462.732 779.632 L478.732 763.632 L462.732 747.632 Z" fill="#c271d2" fill-rule="evenodd" fill-opacity="1" stroke="#000000" stroke-opacity="1" stroke-width="3.2"/>
<path clip-path="url(#clip372)" d="M570.303 526.497 L554.303 542.497 L570.303 558.497 L586.303 542.497 L570.303 526.497 Z" fill="#c271d2" fill-rule="evenodd" fill-opacity="1" stroke="#000000" stroke-opacity="1" stroke-width="3.2"/>
<path clip-path="url(#clip372)" d="M677.874 365.702 L661.874 381.702 L677.874 397.702 L693.874 381.702 L677.874 365.702 Z" fill="#c271d2" fill-rule="evenodd" fill-opacity="1" stroke="#000000" stroke-opacity="1" stroke-width="3.2"/>
<path clip-path="url(#clip372)" d="M785.445 252.68 L769.445 268.68 L785.445 284.68 L801.445 268.68 L785.445 252.68 Z" fill="#c271d2" fill-rule="evenodd" fill-opacity="1" stroke="#000000" stroke-opacity="1" stroke-width="3.2"/>
<path clip-path="url(#clip372)" d="M893.016 176.503 L877.016 192.503 L893.016 208.503 L909.016 192.503 L893.016 176.503 Z" fill="#c271d2" fill-rule="evenodd" fill-opacity="1" stroke="#000000" stroke-opacity="1" stroke-width="3.2"/>
<path clip-path="url(#clip372)" d="M1000.59 127.826 L984.587 143.826 L1000.59 159.826 L1016.59 143.826 L1000.59 127.826 Z" fill="#c271d2" fill-rule="evenodd" fill-opacity="1" stroke="#000000" stroke-opacity="1" stroke-width="3.2"/>
<path clip-path="url(#clip372)" d="M1108.16 98.8278 L1092.16 114.828 L1108.16 130.828 L1124.16 114.828 L1108.16 98.8278 Z" fill="#c271d2" fill-rule="evenodd" fill-opacity="1" stroke="#000000" stroke-opacity="1" stroke-width="3.2"/>
<path clip-path="url(#clip372)" d="M1215.73 83.1356 L1199.73 99.1356 L1215.73 115.136 L1231.73 99.1356 L1215.73 83.1356 Z" fill="#c271d2" fill-rule="evenodd" fill-opacity="1" stroke="#000000" stroke-opacity="1" stroke-width="3.2"/>
<path clip-path="url(#clip372)" d="M1323.3 75.7548 L1307.3 91.7548 L1323.3 107.755 L1339.3 91.7548 L1323.3 75.7548 Z" fill="#c271d2" fill-rule="evenodd" fill-opacity="1" stroke="#000000" stroke-opacity="1" stroke-width="3.2"/>
<path clip-path="url(#clip372)" d="M1430.87 72.9794 L1414.87 88.9794 L1430.87 104.979 L1446.87 88.9794 L1430.87 72.9794 Z" fill="#c271d2" fill-rule="evenodd" fill-opacity="1" stroke="#000000" stroke-opacity="1" stroke-width="3.2"/>
<path clip-path="url(#clip372)" d="M1538.44 72.2907 L1522.44 88.2907 L1538.44 104.291 L1554.44 88.2907 L1538.44 72.2907 Z" fill="#c271d2" fill-rule="evenodd" fill-opacity="1" stroke="#000000" stroke-opacity="1" stroke-width="3.2"/>
<path clip-path="url(#clip372)" d="M1646.01 72.2314 L1630.01 88.2314 L1646.01 104.231 L1662.01 88.2314 L1646.01 72.2314 Z" fill="#c271d2" fill-rule="evenodd" fill-opacity="1" stroke="#000000" stroke-opacity="1" stroke-width="3.2"/>
<path clip-path="url(#clip372)" d="M1753.58 72.2315 L1737.58 88.2315 L1753.58 104.231 L1769.58 88.2315 L1753.58 72.2315 Z" fill="#c271d2" fill-rule="evenodd" fill-opacity="1" stroke="#000000" stroke-opacity="1" stroke-width="3.2"/>
<path clip-path="url(#clip372)" d="M1861.16 72.3359 L1845.16 88.3359 L1861.16 104.336 L1877.16 88.3359 L1861.16 72.3359 Z" fill="#c271d2" fill-rule="evenodd" fill-opacity="1" stroke="#000000" stroke-opacity="1" stroke-width="3.2"/>
<path clip-path="url(#clip372)" d="M1968.73 73.2422 L1952.73 89.2422 L1968.73 105.242 L1984.73 89.2422 L1968.73 73.2422 Z" fill="#c271d2" fill-rule="evenodd" fill-opacity="1" stroke="#000000" stroke-opacity="1" stroke-width="3.2"/>
<path clip-path="url(#clip372)" d="M2076.3 76.5449 L2060.3 92.5449 L2076.3 108.545 L2092.3 92.5449 L2076.3 76.5449 Z" fill="#c271d2" fill-rule="evenodd" fill-opacity="1" stroke="#000000" stroke-opacity="1" stroke-width="3.2"/>
<path clip-path="url(#clip372)" d="M2183.87 84.8633 L2167.87 100.863 L2183.87 116.863 L2199.87 100.863 L2183.87 84.8633 Z" fill="#c271d2" fill-rule="evenodd" fill-opacity="1" stroke="#000000" stroke-opacity="1" stroke-width="3.2"/>
<path clip-path="url(#clip372)" d="M2291.44 102.217 L2275.44 118.217 L2291.44 134.217 L2307.44 118.217 L2291.44 102.217 Z" fill="#c271d2" fill-rule="evenodd" fill-opacity="1" stroke="#000000" stroke-opacity="1" stroke-width="3.2"/>
<polyline clip-path="url(#clip372)" style="stroke:#ac8d18; stroke-linecap:butt; stroke-linejoin:round; stroke-width:12; stroke-opacity:1; fill:none" points="
  247.59,1445.72 355.161,1058.01 462.732,761.631 570.303,540.334 677.874,379.683 785.445,266.967 893.016,191.156 1000.59,142.832 1108.16,114.127 1215.73,98.6493 
  1323.3,91.4037 1430.87,88.6969 1538.44,88.0322 1646.01,87.9763 1753.58,87.9763 1861.16,88.0804 1968.73,88.9855 2076.3,92.3053 2183.87,100.734 2291.44,118.217 
  
  "/>
<path clip-path="url(#clip372)" d="M263.59 1429.72 L231.59 1429.72 L247.59 1461.72 L263.59 1429.72 Z" fill="#ac8d18" fill-rule="evenodd" fill-opacity="1" stroke="#000000" stroke-opacity="1" stroke-width="3.2"/>
<path clip-path="url(#clip372)" d="M371.161 1042.01 L339.161 1042.01 L355.161 1074.01 L371.161 1042.01 Z" fill="#ac8d18" fill-rule="evenodd" fill-opacity="1" stroke="#000000" stroke-opacity="1" stroke-width="3.2"/>
<path clip-path="url(#clip372)" d="M478.732 745.631 L446.732 745.631 L462.732 777.631 L478.732 745.631 Z" fill="#ac8d18" fill-rule="evenodd" fill-opacity="1" stroke="#000000" stroke-opacity="1" stroke-width="3.2"/>
<path clip-path="url(#clip372)" d="M586.303 524.334 L554.303 524.334 L570.303 556.334 L586.303 524.334 Z" fill="#ac8d18" fill-rule="evenodd" fill-opacity="1" stroke="#000000" stroke-opacity="1" stroke-width="3.2"/>
<path clip-path="url(#clip372)" d="M693.874 363.683 L661.874 363.683 L677.874 395.683 L693.874 363.683 Z" fill="#ac8d18" fill-rule="evenodd" fill-opacity="1" stroke="#000000" stroke-opacity="1" stroke-width="3.2"/>
<path clip-path="url(#clip372)" d="M801.445 250.967 L769.445 250.967 L785.445 282.967 L801.445 250.967 Z" fill="#ac8d18" fill-rule="evenodd" fill-opacity="1" stroke="#000000" stroke-opacity="1" stroke-width="3.2"/>
<path clip-path="url(#clip372)" d="M909.016 175.156 L877.016 175.156 L893.016 207.156 L909.016 175.156 Z" fill="#ac8d18" fill-rule="evenodd" fill-opacity="1" stroke="#000000" stroke-opacity="1" stroke-width="3.2"/>
<path clip-path="url(#clip372)" d="M1016.59 126.832 L984.587 126.832 L1000.59 158.832 L1016.59 126.832 Z" fill="#ac8d18" fill-rule="evenodd" fill-opacity="1" stroke="#000000" stroke-opacity="1" stroke-width="3.2"/>
<path clip-path="url(#clip372)" d="M1124.16 98.1265 L1092.16 98.1265 L1108.16 130.127 L1124.16 98.1265 Z" fill="#ac8d18" fill-rule="evenodd" fill-opacity="1" stroke="#000000" stroke-opacity="1" stroke-width="3.2"/>
<path clip-path="url(#clip372)" d="M1231.73 82.6493 L1199.73 82.6493 L1215.73 114.649 L1231.73 82.6493 Z" fill="#ac8d18" fill-rule="evenodd" fill-opacity="1" stroke="#000000" stroke-opacity="1" stroke-width="3.2"/>
<path clip-path="url(#clip372)" d="M1339.3 75.4037 L1307.3 75.4037 L1323.3 107.404 L1339.3 75.4037 Z" fill="#ac8d18" fill-rule="evenodd" fill-opacity="1" stroke="#000000" stroke-opacity="1" stroke-width="3.2"/>
<path clip-path="url(#clip372)" d="M1446.87 72.6969 L1414.87 72.6969 L1430.87 104.697 L1446.87 72.6969 Z" fill="#ac8d18" fill-rule="evenodd" fill-opacity="1" stroke="#000000" stroke-opacity="1" stroke-width="3.2"/>
<path clip-path="url(#clip372)" d="M1554.44 72.0322 L1522.44 72.0322 L1538.44 104.032 L1554.44 72.0322 Z" fill="#ac8d18" fill-rule="evenodd" fill-opacity="1" stroke="#000000" stroke-opacity="1" stroke-width="3.2"/>
<path clip-path="url(#clip372)" d="M1662.01 71.9763 L1630.01 71.9763 L1646.01 103.976 L1662.01 71.9763 Z" fill="#ac8d18" fill-rule="evenodd" fill-opacity="1" stroke="#000000" stroke-opacity="1" stroke-width="3.2"/>
<path clip-path="url(#clip372)" d="M1769.58 71.9763 L1737.58 71.9763 L1753.58 103.976 L1769.58 71.9763 Z" fill="#ac8d18" fill-rule="evenodd" fill-opacity="1" stroke="#000000" stroke-opacity="1" stroke-width="3.2"/>
<path clip-path="url(#clip372)" d="M1877.16 72.0804 L1845.16 72.0804 L1861.16 104.08 L1877.16 72.0804 Z" fill="#ac8d18" fill-rule="evenodd" fill-opacity="1" stroke="#000000" stroke-opacity="1" stroke-width="3.2"/>
<path clip-path="url(#clip372)" d="M1984.73 72.9855 L1952.73 72.9855 L1968.73 104.985 L1984.73 72.9855 Z" fill="#ac8d18" fill-rule="evenodd" fill-opacity="1" stroke="#000000" stroke-opacity="1" stroke-width="3.2"/>
<path clip-path="url(#clip372)" d="M2092.3 76.3053 L2060.3 76.3053 L2076.3 108.305 L2092.3 76.3053 Z" fill="#ac8d18" fill-rule="evenodd" fill-opacity="1" stroke="#000000" stroke-opacity="1" stroke-width="3.2"/>
<path clip-path="url(#clip372)" d="M2199.87 84.7343 L2167.87 84.7343 L2183.87 116.734 L2199.87 84.7343 Z" fill="#ac8d18" fill-rule="evenodd" fill-opacity="1" stroke="#000000" stroke-opacity="1" stroke-width="3.2"/>
<path clip-path="url(#clip372)" d="M2307.44 102.217 L2275.44 102.217 L2291.44 134.217 L2307.44 102.217 Z" fill="#ac8d18" fill-rule="evenodd" fill-opacity="1" stroke="#000000" stroke-opacity="1" stroke-width="3.2"/>
<path clip-path="url(#clip370)" d="
M1985.68 1438.47 L2280.54 1438.47 L2280.54 1127.43 L1985.68 1127.43  Z
  " fill="#ffffff" fill-rule="evenodd" fill-opacity="1"/>
<polyline clip-path="url(#clip370)" style="stroke:#000000; stroke-linecap:butt; stroke-linejoin:round; stroke-width:4; stroke-opacity:1; fill:none" points="
  1985.68,1438.47 2280.54,1438.47 2280.54,1127.43 1985.68,1127.43 1985.68,1438.47 
  "/>
<polyline clip-path="url(#clip370)" style="stroke:#009af9; stroke-linecap:butt; stroke-linejoin:round; stroke-width:4; stroke-opacity:1; fill:none" points="
  2009.75,1179.27 2154.18,1179.27 
  "/>
<line clip-path="url(#clip370)" x1="2081.96" y1="1179.27" x2="2081.96" y2="1153.67" style="stroke:#009af9; stroke-width:5.12; stroke-opacity:1"/>
<line clip-path="url(#clip370)" x1="2081.96" y1="1179.27" x2="2056.36" y2="1179.27" style="stroke:#009af9; stroke-width:5.12; stroke-opacity:1"/>
<line clip-path="url(#clip370)" x1="2081.96" y1="1179.27" x2="2081.96" y2="1204.87" style="stroke:#009af9; stroke-width:5.12; stroke-opacity:1"/>
<line clip-path="url(#clip370)" x1="2081.96" y1="1179.27" x2="2107.56" y2="1179.27" style="stroke:#009af9; stroke-width:5.12; stroke-opacity:1"/>
<path clip-path="url(#clip370)" d="M2192.1 1198.96 Q2190.29 1203.59 2188.58 1205 Q2186.86 1206.42 2183.99 1206.42 L2180.59 1206.42 L2180.59 1202.85 L2183.09 1202.85 Q2184.85 1202.85 2185.82 1202.02 Q2186.79 1201.18 2187.97 1198.08 L2188.74 1196.14 L2178.25 1170.63 L2182.77 1170.63 L2190.87 1190.91 L2198.97 1170.63 L2203.48 1170.63 L2192.1 1198.96 Z" fill="#000000" fill-rule="evenodd" fill-opacity="1" /><path clip-path="url(#clip370)" d="M2210.78 1192.62 L2218.41 1192.62 L2218.41 1166.25 L2210.1 1167.92 L2210.1 1163.66 L2218.37 1161.99 L2223.04 1161.99 L2223.04 1192.62 L2230.68 1192.62 L2230.68 1196.55 L2210.78 1196.55 L2210.78 1192.62 Z" fill="#000000" fill-rule="evenodd" fill-opacity="1" /><polyline clip-path="url(#clip370)" style="stroke:#e26f46; stroke-linecap:butt; stroke-linejoin:round; stroke-width:4; stroke-opacity:1; fill:none" points="
  2009.75,1231.11 2154.18,1231.11 
  "/>
<circle clip-path="url(#clip370)" cx="2081.96" cy="1231.11" r="23.04" fill="#e26f46" fill-rule="evenodd" fill-opacity="1" stroke="#000000" stroke-opacity="1" stroke-width="5.12"/>
<path clip-path="url(#clip370)" d="M2192.1 1250.8 Q2190.29 1255.43 2188.58 1256.84 Q2186.86 1258.26 2183.99 1258.26 L2180.59 1258.26 L2180.59 1254.69 L2183.09 1254.69 Q2184.85 1254.69 2185.82 1253.86 Q2186.79 1253.02 2187.97 1249.92 L2188.74 1247.98 L2178.25 1222.47 L2182.77 1222.47 L2190.87 1242.75 L2198.97 1222.47 L2203.48 1222.47 L2192.1 1250.8 Z" fill="#000000" fill-rule="evenodd" fill-opacity="1" /><path clip-path="url(#clip370)" d="M2213.99 1244.46 L2230.31 1244.46 L2230.31 1248.39 L2208.37 1248.39 L2208.37 1244.46 Q2211.03 1241.7 2215.61 1237.08 Q2220.22 1232.42 2221.4 1231.08 Q2223.65 1228.56 2224.53 1226.82 Q2225.43 1225.06 2225.43 1223.37 Q2225.43 1220.62 2223.48 1218.88 Q2221.56 1217.14 2218.46 1217.14 Q2216.26 1217.14 2213.81 1217.91 Q2211.38 1218.67 2208.6 1220.22 L2208.6 1215.5 Q2211.42 1214.37 2213.88 1213.79 Q2216.33 1213.21 2218.37 1213.21 Q2223.74 1213.21 2226.93 1215.89 Q2230.13 1218.58 2230.13 1223.07 Q2230.13 1225.2 2229.32 1227.12 Q2228.53 1229.02 2226.42 1231.61 Q2225.84 1232.28 2222.74 1235.5 Q2219.64 1238.7 2213.99 1244.46 Z" fill="#000000" fill-rule="evenodd" fill-opacity="1" /><polyline clip-path="url(#clip370)" style="stroke:#3da44d; stroke-linecap:butt; stroke-linejoin:round; stroke-width:4; stroke-opacity:1; fill:none" points="
  2009.75,1282.95 2154.18,1282.95 
  "/>
<line clip-path="url(#clip370)" x1="2081.96" y1="1282.95" x2="2081.96" y2="1257.35" style="stroke:#3da44d; stroke-width:5.12; stroke-opacity:1"/>
<line clip-path="url(#clip370)" x1="2081.96" y1="1282.95" x2="2056.36" y2="1282.95" style="stroke:#3da44d; stroke-width:5.12; stroke-opacity:1"/>
<line clip-path="url(#clip370)" x1="2081.96" y1="1282.95" x2="2081.96" y2="1308.55" style="stroke:#3da44d; stroke-width:5.12; stroke-opacity:1"/>
<line clip-path="url(#clip370)" x1="2081.96" y1="1282.95" x2="2107.56" y2="1282.95" style="stroke:#3da44d; stroke-width:5.12; stroke-opacity:1"/>
<path clip-path="url(#clip370)" d="M2192.1 1302.64 Q2190.29 1307.27 2188.58 1308.68 Q2186.86 1310.1 2183.99 1310.1 L2180.59 1310.1 L2180.59 1306.53 L2183.09 1306.53 Q2184.85 1306.53 2185.82 1305.7 Q2186.79 1304.86 2187.97 1301.76 L2188.74 1299.82 L2178.25 1274.31 L2182.77 1274.31 L2190.87 1294.59 L2198.97 1274.31 L2203.48 1274.31 L2192.1 1302.64 Z" fill="#000000" fill-rule="evenodd" fill-opacity="1" /><path clip-path="url(#clip370)" d="M2224.13 1281.6 Q2227.49 1282.32 2229.36 1284.59 Q2231.26 1286.85 2231.26 1290.19 Q2231.26 1295.3 2227.74 1298.1 Q2224.22 1300.91 2217.74 1300.91 Q2215.57 1300.91 2213.25 1300.47 Q2210.96 1300.05 2208.51 1299.19 L2208.51 1294.68 Q2210.45 1295.81 2212.77 1296.39 Q2215.08 1296.97 2217.6 1296.97 Q2222 1296.97 2224.29 1295.23 Q2226.61 1293.5 2226.61 1290.19 Q2226.61 1287.13 2224.46 1285.42 Q2222.33 1283.68 2218.51 1283.68 L2214.48 1283.68 L2214.48 1279.84 L2218.69 1279.84 Q2222.14 1279.84 2223.97 1278.48 Q2225.8 1277.09 2225.8 1274.49 Q2225.8 1271.83 2223.9 1270.42 Q2222.03 1268.98 2218.51 1268.98 Q2216.59 1268.98 2214.39 1269.4 Q2212.19 1269.82 2209.55 1270.7 L2209.55 1266.53 Q2212.21 1265.79 2214.53 1265.42 Q2216.86 1265.05 2218.92 1265.05 Q2224.25 1265.05 2227.35 1267.48 Q2230.45 1269.89 2230.45 1274.01 Q2230.45 1276.88 2228.81 1278.87 Q2227.16 1280.84 2224.13 1281.6 Z" fill="#000000" fill-rule="evenodd" fill-opacity="1" /><polyline clip-path="url(#clip370)" style="stroke:#c271d2; stroke-linecap:butt; stroke-linejoin:round; stroke-width:4; stroke-opacity:1; fill:none" points="
  2009.75,1334.79 2154.18,1334.79 
  "/>
<path clip-path="url(#clip370)" d="M2081.96 1309.19 L2056.36 1334.79 L2081.96 1360.39 L2107.56 1334.79 L2081.96 1309.19 Z" fill="#c271d2" fill-rule="evenodd" fill-opacity="1" stroke="#000000" stroke-opacity="1" stroke-width="5.12"/>
<path clip-path="url(#clip370)" d="M2192.1 1354.48 Q2190.29 1359.11 2188.58 1360.52 Q2186.86 1361.94 2183.99 1361.94 L2180.59 1361.94 L2180.59 1358.37 L2183.09 1358.37 Q2184.85 1358.37 2185.82 1357.54 Q2186.79 1356.7 2187.97 1353.6 L2188.74 1351.66 L2178.25 1326.15 L2182.77 1326.15 L2190.87 1346.43 L2198.97 1326.15 L2203.48 1326.15 L2192.1 1354.48 Z" fill="#000000" fill-rule="evenodd" fill-opacity="1" /><path clip-path="url(#clip370)" d="M2222.81 1321.59 L2211.01 1340.04 L2222.81 1340.04 L2222.81 1321.59 M2221.59 1317.51 L2227.47 1317.51 L2227.47 1340.04 L2232.4 1340.04 L2232.4 1343.93 L2227.47 1343.93 L2227.47 1352.07 L2222.81 1352.07 L2222.81 1343.93 L2207.21 1343.93 L2207.21 1339.41 L2221.59 1317.51 Z" fill="#000000" fill-rule="evenodd" fill-opacity="1" /><polyline clip-path="url(#clip370)" style="stroke:#ac8d18; stroke-linecap:butt; stroke-linejoin:round; stroke-width:4; stroke-opacity:1; fill:none" points="
  2009.75,1386.63 2154.18,1386.63 
  "/>
<path clip-path="url(#clip370)" d="M2107.56 1361.03 L2056.36 1361.03 L2081.96 1412.23 L2107.56 1361.03 Z" fill="#ac8d18" fill-rule="evenodd" fill-opacity="1" stroke="#000000" stroke-opacity="1" stroke-width="5.12"/>
<path clip-path="url(#clip370)" d="M2192.1 1406.32 Q2190.29 1410.95 2188.58 1412.36 Q2186.86 1413.78 2183.99 1413.78 L2180.59 1413.78 L2180.59 1410.21 L2183.09 1410.21 Q2184.85 1410.21 2185.82 1409.38 Q2186.79 1408.54 2187.97 1405.44 L2188.74 1403.5 L2178.25 1377.99 L2182.77 1377.99 L2190.87 1398.27 L2198.97 1377.99 L2203.48 1377.99 L2192.1 1406.32 Z" fill="#000000" fill-rule="evenodd" fill-opacity="1" /><path clip-path="url(#clip370)" d="M2210.01 1369.35 L2228.37 1369.35 L2228.37 1373.29 L2214.29 1373.29 L2214.29 1381.76 Q2215.31 1381.41 2216.33 1381.25 Q2217.35 1381.07 2218.37 1381.07 Q2224.16 1381.07 2227.53 1384.24 Q2230.91 1387.41 2230.91 1392.83 Q2230.91 1398.41 2227.44 1401.51 Q2223.97 1404.59 2217.65 1404.59 Q2215.47 1404.59 2213.21 1404.22 Q2210.96 1403.84 2208.55 1403.1 L2208.55 1398.41 Q2210.64 1399.54 2212.86 1400.09 Q2215.08 1400.65 2217.56 1400.65 Q2221.56 1400.65 2223.9 1398.54 Q2226.24 1396.44 2226.24 1392.83 Q2226.24 1389.22 2223.9 1387.11 Q2221.56 1385 2217.56 1385 Q2215.68 1385 2213.81 1385.42 Q2211.96 1385.84 2210.01 1386.72 L2210.01 1369.35 Z" fill="#000000" fill-rule="evenodd" fill-opacity="1" /></svg>
