<?xml version="1.0" encoding="utf-8"?>
<svg xmlns="http://www.w3.org/2000/svg" xmlns:xlink="http://www.w3.org/1999/xlink" width="600" height="400" viewBox="0 0 2400 1600">
<defs>
  <clipPath id="clip730">
    <rect x="0" y="0" width="2400" height="1600"/>
  </clipPath>
</defs>
<path clip-path="url(#clip730)" d="
M0 1600 L2400 1600 L2400 0 L0 0  Z
  " fill="#ffffff" fill-rule="evenodd" fill-opacity="1"/>
<defs>
  <clipPath id="clip731">
    <rect x="480" y="0" width="1681" height="1600"/>
  </clipPath>
</defs>
<path clip-path="url(#clip730)" d="
M112.177 1486.45 L2352.76 1486.45 L2352.76 47.2441 L112.177 47.2441  Z
  " fill="#ffffff" fill-rule="evenodd" fill-opacity="1"/>
<defs>
  <clipPath id="clip732">
    <rect x="112" y="47" width="2242" height="1440"/>
  </clipPath>
</defs>
<polyline clip-path="url(#clip732)" style="stroke:#000000; stroke-linecap:butt; stroke-linejoin:round; stroke-width:2; stroke-opacity:0.1; fill:none" points="
  175.59,1486.45 175.59,47.2441 
  "/>
<polyline clip-path="url(#clip732)" style="stroke:#000000; stroke-linecap:butt; stroke-linejoin:round; stroke-width:2; stroke-opacity:0.1; fill:none" points="
  704.028,1486.45 704.028,47.2441 
  "/>
<polyline clip-path="url(#clip732)" style="stroke:#000000; stroke-linecap:butt; stroke-linejoin:round; stroke-width:2; stroke-opacity:0.1; fill:none" points="
  1232.47,1486.45 1232.47,47.2441 
  "/>
<polyline clip-path="url(#clip732)" style="stroke:#000000; stroke-linecap:butt; stroke-linejoin:round; stroke-width:2; stroke-opacity:0.1; fill:none" points="
  1760.9,1486.45 1760.9,47.2441 
  "/>
<polyline clip-path="url(#clip732)" style="stroke:#000000; stroke-linecap:butt; stroke-linejoin:round; stroke-width:2; stroke-opacity:0.1; fill:none" points="
  2289.34,1486.45 2289.34,47.2441 
  "/>
<polyline clip-path="url(#clip730)" style="stroke:#000000; stroke-linecap:butt; stroke-linejoin:round; stroke-width:4; stroke-opacity:1; fill:none" points="
  112.177,1486.45 2352.76,1486.45 
  "/>
<polyline clip-path="url(#clip730)" style="stroke:#000000; stroke-linecap:butt; stroke-linejoin:round; stroke-width:4; stroke-opacity:1; fill:none" points="
  175.59,1486.45 175.59,1467.55 
  "/>
<polyline clip-path="url(#clip730)" style="stroke:#000000; stroke-linecap:butt; stroke-linejoin:round; stroke-width:4; stroke-opacity:1; fill:none" points="
  704.028,1486.45 704.028,1467.55 
  "/>
<polyline clip-path="url(#clip730)" style="stroke:#000000; stroke-linecap:butt; stroke-linejoin:round; stroke-width:4; stroke-opacity:1; fill:none" points="
  1232.47,1486.45 1232.47,1467.55 
  "/>
<polyline clip-path="url(#clip730)" style="stroke:#000000; stroke-linecap:butt; stroke-linejoin:round; stroke-width:4; stroke-opacity:1; fill:none" points="
  1760.9,1486.45 1760.9,1467.55 
  "/>
<polyline clip-path="url(#clip730)" style="stroke:#000000; stroke-linecap:butt; stroke-linejoin:round; stroke-width:4; stroke-opacity:1; fill:none" points="
  2289.34,1486.45 2289.34,1467.55 
  "/>
<path clip-path="url(#clip730)" d="M122.118 1532.02 L151.794 1532.02 L151.794 1535.95 L122.118 1535.95 L122.118 1532.02 Z" fill="#000000" fill-rule="evenodd" fill-opacity="1" /><path clip-path="url(#clip730)" d="M162.696 1544.91 L170.335 1544.91 L170.335 1518.55 L162.025 1520.21 L162.025 1515.95 L170.289 1514.29 L174.965 1514.29 L174.965 1544.91 L182.604 1544.91 L182.604 1548.85 L162.696 1548.85 L162.696 1544.91 Z" fill="#000000" fill-rule="evenodd" fill-opacity="1" /><path clip-path="url(#clip730)" d="M192.048 1542.97 L196.932 1542.97 L196.932 1548.85 L192.048 1548.85 L192.048 1542.97 Z" fill="#000000" fill-rule="evenodd" fill-opacity="1" /><path clip-path="url(#clip730)" d="M217.117 1517.37 Q213.506 1517.37 211.678 1520.93 Q209.872 1524.47 209.872 1531.6 Q209.872 1538.71 211.678 1542.27 Q213.506 1545.82 217.117 1545.82 Q220.752 1545.82 222.557 1542.27 Q224.386 1538.71 224.386 1531.6 Q224.386 1524.47 222.557 1520.93 Q220.752 1517.37 217.117 1517.37 M217.117 1513.66 Q222.927 1513.66 225.983 1518.27 Q229.062 1522.85 229.062 1531.6 Q229.062 1540.33 225.983 1544.94 Q222.927 1549.52 217.117 1549.52 Q211.307 1549.52 208.228 1544.94 Q205.173 1540.33 205.173 1531.6 Q205.173 1522.85 208.228 1518.27 Q211.307 1513.66 217.117 1513.66 Z" fill="#000000" fill-rule="evenodd" fill-opacity="1" /><path clip-path="url(#clip730)" d="M651.054 1532.02 L680.73 1532.02 L680.73 1535.95 L651.054 1535.95 L651.054 1532.02 Z" fill="#000000" fill-rule="evenodd" fill-opacity="1" /><path clip-path="url(#clip730)" d="M700.822 1517.37 Q697.211 1517.37 695.382 1520.93 Q693.577 1524.47 693.577 1531.6 Q693.577 1538.71 695.382 1542.27 Q697.211 1545.82 700.822 1545.82 Q704.456 1545.82 706.262 1542.27 Q708.091 1538.71 708.091 1531.6 Q708.091 1524.47 706.262 1520.93 Q704.456 1517.37 700.822 1517.37 M700.822 1513.66 Q706.632 1513.66 709.688 1518.27 Q712.767 1522.85 712.767 1531.6 Q712.767 1540.33 709.688 1544.94 Q706.632 1549.52 700.822 1549.52 Q695.012 1549.52 691.933 1544.94 Q688.878 1540.33 688.878 1531.6 Q688.878 1522.85 691.933 1518.27 Q695.012 1513.66 700.822 1513.66 Z" fill="#000000" fill-rule="evenodd" fill-opacity="1" /><path clip-path="url(#clip730)" d="M720.984 1542.97 L725.868 1542.97 L725.868 1548.85 L720.984 1548.85 L720.984 1542.97 Z" fill="#000000" fill-rule="evenodd" fill-opacity="1" /><path clip-path="url(#clip730)" d="M736.1 1514.29 L754.456 1514.29 L754.456 1518.22 L740.382 1518.22 L740.382 1526.7 Q741.401 1526.35 742.419 1526.19 Q743.438 1526 744.456 1526 Q750.243 1526 753.623 1529.17 Q757.002 1532.34 757.002 1537.76 Q757.002 1543.34 753.53 1546.44 Q750.058 1549.52 743.739 1549.52 Q741.563 1549.52 739.294 1549.15 Q737.049 1548.78 734.641 1548.04 L734.641 1543.34 Q736.725 1544.47 738.947 1545.03 Q741.169 1545.58 743.646 1545.58 Q747.651 1545.58 749.989 1543.48 Q752.327 1541.37 752.327 1537.76 Q752.327 1534.15 749.989 1532.04 Q747.651 1529.94 743.646 1529.94 Q741.771 1529.94 739.896 1530.35 Q738.044 1530.77 736.1 1531.65 L736.1 1514.29 Z" fill="#000000" fill-rule="evenodd" fill-opacity="1" /><path clip-path="url(#clip730)" d="M1209.85 1517.37 Q1206.24 1517.37 1204.41 1520.93 Q1202.61 1524.47 1202.61 1531.6 Q1202.61 1538.71 1204.41 1542.27 Q1206.24 1545.82 1209.85 1545.82 Q1213.49 1545.82 1215.29 1542.27 Q1217.12 1538.71 1217.12 1531.6 Q1217.12 1524.47 1215.29 1520.93 Q1213.49 1517.37 1209.85 1517.37 M1209.85 1513.66 Q1215.66 1513.66 1218.72 1518.27 Q1221.8 1522.85 1221.8 1531.6 Q1221.8 1540.33 1218.72 1544.94 Q1215.66 1549.52 1209.85 1549.52 Q1204.04 1549.52 1200.96 1544.94 Q1197.91 1540.33 1197.91 1531.6 Q1197.91 1522.85 1200.96 1518.27 Q1204.04 1513.66 1209.85 1513.66 Z" fill="#000000" fill-rule="evenodd" fill-opacity="1" /><path clip-path="url(#clip730)" d="M1230.01 1542.97 L1234.9 1542.97 L1234.9 1548.85 L1230.01 1548.85 L1230.01 1542.97 Z" fill="#000000" fill-rule="evenodd" fill-opacity="1" /><path clip-path="url(#clip730)" d="M1255.08 1517.37 Q1251.47 1517.37 1249.64 1520.93 Q1247.84 1524.47 1247.84 1531.6 Q1247.84 1538.71 1249.64 1542.27 Q1251.47 1545.82 1255.08 1545.82 Q1258.72 1545.82 1260.52 1542.27 Q1262.35 1538.71 1262.35 1531.6 Q1262.35 1524.47 1260.52 1520.93 Q1258.72 1517.37 1255.08 1517.37 M1255.08 1513.66 Q1260.89 1513.66 1263.95 1518.27 Q1267.03 1522.85 1267.03 1531.6 Q1267.03 1540.33 1263.95 1544.94 Q1260.89 1549.52 1255.08 1549.52 Q1249.27 1549.52 1246.19 1544.94 Q1243.14 1540.33 1243.14 1531.6 Q1243.14 1522.85 1246.19 1518.27 Q1249.27 1513.66 1255.08 1513.66 Z" fill="#000000" fill-rule="evenodd" fill-opacity="1" /><path clip-path="url(#clip730)" d="M1738.79 1517.37 Q1735.18 1517.37 1733.35 1520.93 Q1731.54 1524.47 1731.54 1531.6 Q1731.54 1538.71 1733.35 1542.27 Q1735.18 1545.82 1738.79 1545.82 Q1742.42 1545.82 1744.23 1542.27 Q1746.06 1538.71 1746.06 1531.6 Q1746.06 1524.47 1744.23 1520.93 Q1742.42 1517.37 1738.79 1517.37 M1738.79 1513.66 Q1744.6 1513.66 1747.65 1518.27 Q1750.73 1522.85 1750.73 1531.6 Q1750.73 1540.33 1747.65 1544.94 Q1744.6 1549.52 1738.79 1549.52 Q1732.98 1549.52 1729.9 1544.94 Q1726.84 1540.33 1726.84 1531.6 Q1726.84 1522.85 1729.9 1518.27 Q1732.98 1513.66 1738.79 1513.66 Z" fill="#000000" fill-rule="evenodd" fill-opacity="1" /><path clip-path="url(#clip730)" d="M1758.95 1542.97 L1763.83 1542.97 L1763.83 1548.85 L1758.95 1548.85 L1758.95 1542.97 Z" fill="#000000" fill-rule="evenodd" fill-opacity="1" /><path clip-path="url(#clip730)" d="M1774.06 1514.29 L1792.42 1514.29 L1792.42 1518.22 L1778.35 1518.22 L1778.35 1526.7 Q1779.37 1526.35 1780.38 1526.19 Q1781.4 1526 1782.42 1526 Q1788.21 1526 1791.59 1529.17 Q1794.97 1532.34 1794.97 1537.76 Q1794.97 1543.34 1791.5 1546.44 Q1788.02 1549.52 1781.7 1549.52 Q1779.53 1549.52 1777.26 1549.15 Q1775.01 1548.78 1772.61 1548.04 L1772.61 1543.34 Q1774.69 1544.47 1776.91 1545.03 Q1779.13 1545.58 1781.61 1545.58 Q1785.62 1545.58 1787.95 1543.48 Q1790.29 1541.37 1790.29 1537.76 Q1790.29 1534.15 1787.95 1532.04 Q1785.62 1529.94 1781.61 1529.94 Q1779.74 1529.94 1777.86 1530.35 Q1776.01 1530.77 1774.06 1531.65 L1774.06 1514.29 Z" fill="#000000" fill-rule="evenodd" fill-opacity="1" /><path clip-path="url(#clip730)" d="M2256.5 1544.91 L2264.14 1544.91 L2264.14 1518.55 L2255.82 1520.21 L2255.82 1515.95 L2264.09 1514.29 L2268.76 1514.29 L2268.76 1544.91 L2276.4 1544.91 L2276.4 1548.85 L2256.5 1548.85 L2256.5 1544.91 Z" fill="#000000" fill-rule="evenodd" fill-opacity="1" /><path clip-path="url(#clip730)" d="M2285.85 1542.97 L2290.73 1542.97 L2290.73 1548.85 L2285.85 1548.85 L2285.85 1542.97 Z" fill="#000000" fill-rule="evenodd" fill-opacity="1" /><path clip-path="url(#clip730)" d="M2310.92 1517.37 Q2307.31 1517.37 2305.48 1520.93 Q2303.67 1524.47 2303.67 1531.6 Q2303.67 1538.71 2305.48 1542.27 Q2307.31 1545.82 2310.92 1545.82 Q2314.55 1545.82 2316.36 1542.27 Q2318.19 1538.71 2318.19 1531.6 Q2318.19 1524.47 2316.36 1520.93 Q2314.55 1517.37 2310.92 1517.37 M2310.92 1513.66 Q2316.73 1513.66 2319.78 1518.27 Q2322.86 1522.85 2322.86 1531.6 Q2322.86 1540.33 2319.78 1544.94 Q2316.73 1549.52 2310.92 1549.52 Q2305.11 1549.52 2302.03 1544.94 Q2298.97 1540.33 2298.97 1531.6 Q2298.97 1522.85 2302.03 1518.27 Q2305.11 1513.66 2310.92 1513.66 Z" fill="#000000" fill-rule="evenodd" fill-opacity="1" /><polyline clip-path="url(#clip732)" style="stroke:#000000; stroke-linecap:butt; stroke-linejoin:round; stroke-width:2; stroke-opacity:0.1; fill:none" points="
  112.177,1445.72 2352.76,1445.72 
  "/>
<polyline clip-path="url(#clip732)" style="stroke:#000000; stroke-linecap:butt; stroke-linejoin:round; stroke-width:2; stroke-opacity:0.1; fill:none" points="
  112.177,1231.32 2352.76,1231.32 
  "/>
<polyline clip-path="url(#clip732)" style="stroke:#000000; stroke-linecap:butt; stroke-linejoin:round; stroke-width:2; stroke-opacity:0.1; fill:none" points="
  112.177,1016.93 2352.76,1016.93 
  "/>
<polyline clip-path="url(#clip732)" style="stroke:#000000; stroke-linecap:butt; stroke-linejoin:round; stroke-width:2; stroke-opacity:0.1; fill:none" points="
  112.177,802.53 2352.76,802.53 
  "/>
<polyline clip-path="url(#clip732)" style="stroke:#000000; stroke-linecap:butt; stroke-linejoin:round; stroke-width:2; stroke-opacity:0.1; fill:none" points="
  112.177,588.135 2352.76,588.135 
  "/>
<polyline clip-path="url(#clip732)" style="stroke:#000000; stroke-linecap:butt; stroke-linejoin:round; stroke-width:2; stroke-opacity:0.1; fill:none" points="
  112.177,373.74 2352.76,373.74 
  "/>
<polyline clip-path="url(#clip732)" style="stroke:#000000; stroke-linecap:butt; stroke-linejoin:round; stroke-width:2; stroke-opacity:0.1; fill:none" points="
  112.177,159.345 2352.76,159.345 
  "/>
<polyline clip-path="url(#clip730)" style="stroke:#000000; stroke-linecap:butt; stroke-linejoin:round; stroke-width:4; stroke-opacity:1; fill:none" points="
  112.177,1486.45 112.177,47.2441 
  "/>
<polyline clip-path="url(#clip730)" style="stroke:#000000; stroke-linecap:butt; stroke-linejoin:round; stroke-width:4; stroke-opacity:1; fill:none" points="
  112.177,1445.72 131.075,1445.72 
  "/>
<polyline clip-path="url(#clip730)" style="stroke:#000000; stroke-linecap:butt; stroke-linejoin:round; stroke-width:4; stroke-opacity:1; fill:none" points="
  112.177,1231.32 131.075,1231.32 
  "/>
<polyline clip-path="url(#clip730)" style="stroke:#000000; stroke-linecap:butt; stroke-linejoin:round; stroke-width:4; stroke-opacity:1; fill:none" points="
  112.177,1016.93 131.075,1016.93 
  "/>
<polyline clip-path="url(#clip730)" style="stroke:#000000; stroke-linecap:butt; stroke-linejoin:round; stroke-width:4; stroke-opacity:1; fill:none" points="
  112.177,802.53 131.075,802.53 
  "/>
<polyline clip-path="url(#clip730)" style="stroke:#000000; stroke-linecap:butt; stroke-linejoin:round; stroke-width:4; stroke-opacity:1; fill:none" points="
  112.177,588.135 131.075,588.135 
  "/>
<polyline clip-path="url(#clip730)" style="stroke:#000000; stroke-linecap:butt; stroke-linejoin:round; stroke-width:4; stroke-opacity:1; fill:none" points="
  112.177,373.74 131.075,373.74 
  "/>
<polyline clip-path="url(#clip730)" style="stroke:#000000; stroke-linecap:butt; stroke-linejoin:round; stroke-width:4; stroke-opacity:1; fill:none" points="
  112.177,159.345 131.075,159.345 
  "/>
<path clip-path="url(#clip730)" d="M64.2328 1431.51 Q60.6217 1431.51 58.793 1435.08 Q56.9875 1438.62 56.9875 1445.75 Q56.9875 1452.86 58.793 1456.42 Q60.6217 1459.96 64.2328 1459.96 Q67.867 1459.96 69.6726 1456.42 Q71.5013 1452.86 71.5013 1445.75 Q71.5013 1438.62 69.6726 1435.08 Q67.867 1431.51 64.2328 1431.51 M64.2328 1427.81 Q70.0429 1427.81 73.0985 1432.42 Q76.1772 1437 76.1772 1445.75 Q76.1772 1454.48 73.0985 1459.08 Q70.0429 1463.67 64.2328 1463.67 Q58.4226 1463.67 55.344 1459.08 Q52.2884 1454.48 52.2884 1445.75 Q52.2884 1437 55.344 1432.42 Q58.4226 1427.81 64.2328 1427.81 Z" fill="#000000" fill-rule="evenodd" fill-opacity="1" /><path clip-path="url(#clip730)" d="M56.2699 1244.67 L63.9087 1244.67 L63.9087 1218.3 L55.5986 1219.97 L55.5986 1215.71 L63.8624 1214.04 L68.5383 1214.04 L68.5383 1244.67 L76.1772 1244.67 L76.1772 1248.6 L56.2699 1248.6 L56.2699 1244.67 Z" fill="#000000" fill-rule="evenodd" fill-opacity="1" /><path clip-path="url(#clip730)" d="M59.8578 1030.27 L76.1772 1030.27 L76.1772 1034.21 L54.2328 1034.21 L54.2328 1030.27 Q56.8949 1027.52 61.4782 1022.89 Q66.0846 1018.23 67.2652 1016.89 Q69.5105 1014.37 70.3902 1012.63 Q71.2929 1010.87 71.2929 1009.18 Q71.2929 1006.43 69.3485 1004.69 Q67.4272 1002.96 64.3254 1002.96 Q62.1263 1002.96 59.6726 1003.72 Q57.2421 1004.48 54.4643 1006.03 L54.4643 1001.31 Q57.2884 1000.18 59.7421 999.599 Q62.1958 999.02 64.2328 999.02 Q69.6031 999.02 72.7976 1001.71 Q75.992 1004.39 75.992 1008.88 Q75.992 1011.01 75.1818 1012.93 Q74.3948 1014.83 72.2883 1017.42 Q71.7096 1018.09 68.6078 1021.31 Q65.5059 1024.51 59.8578 1030.27 Z" fill="#000000" fill-rule="evenodd" fill-opacity="1" /><path clip-path="url(#clip730)" d="M69.0476 801.176 Q72.404 801.894 74.279 804.162 Q76.1772 806.431 76.1772 809.764 Q76.1772 814.88 72.6587 817.681 Q69.1402 820.482 62.6587 820.482 Q60.4828 820.482 58.168 820.042 Q55.8764 819.625 53.4227 818.769 L53.4227 814.255 Q55.3671 815.389 57.6819 815.968 Q59.9967 816.546 62.5198 816.546 Q66.918 816.546 69.2096 814.81 Q71.5244 813.074 71.5244 809.764 Q71.5244 806.709 69.3717 804.996 Q67.242 803.259 63.4226 803.259 L59.3949 803.259 L59.3949 799.417 L63.6078 799.417 Q67.0569 799.417 68.8855 798.051 Q70.7142 796.662 70.7142 794.07 Q70.7142 791.408 68.8161 789.996 Q66.9411 788.56 63.4226 788.56 Q61.5013 788.56 59.3023 788.977 Q57.1032 789.394 54.4643 790.273 L54.4643 786.107 Q57.1264 785.366 59.4412 784.996 Q61.7791 784.625 63.8393 784.625 Q69.1633 784.625 72.2652 787.056 Q75.367 789.463 75.367 793.584 Q75.367 796.454 73.7235 798.445 Q72.08 800.412 69.0476 801.176 Z" fill="#000000" fill-rule="evenodd" fill-opacity="1" /><path clip-path="url(#clip730)" d="M66.5939 574.929 L54.7884 593.378 L66.5939 593.378 L66.5939 574.929 M65.367 570.855 L71.2466 570.855 L71.2466 593.378 L76.1772 593.378 L76.1772 597.267 L71.2466 597.267 L71.2466 605.415 L66.5939 605.415 L66.5939 597.267 L50.9921 597.267 L50.9921 592.753 L65.367 570.855 Z" fill="#000000" fill-rule="evenodd" fill-opacity="1" /><path clip-path="url(#clip730)" d="M55.2745 356.46 L73.6309 356.46 L73.6309 360.395 L59.5569 360.395 L59.5569 368.867 Q60.5754 368.52 61.5939 368.358 Q62.6124 368.173 63.6309 368.173 Q69.418 368.173 72.7976 371.344 Q76.1772 374.516 76.1772 379.932 Q76.1772 385.511 72.705 388.613 Q69.2328 391.691 62.9134 391.691 Q60.7374 391.691 58.4689 391.321 Q56.2236 390.951 53.8162 390.21 L53.8162 385.511 Q55.8995 386.645 58.1217 387.201 Q60.3439 387.756 62.8208 387.756 Q66.8254 387.756 69.1633 385.65 Q71.5013 383.543 71.5013 379.932 Q71.5013 376.321 69.1633 374.215 Q66.8254 372.108 62.8208 372.108 Q60.9458 372.108 59.0708 372.525 Q57.2189 372.941 55.2745 373.821 L55.2745 356.46 Z" fill="#000000" fill-rule="evenodd" fill-opacity="1" /><path clip-path="url(#clip730)" d="M64.6495 157.482 Q61.5013 157.482 59.6495 159.634 Q57.8208 161.787 57.8208 165.537 Q57.8208 169.264 59.6495 171.44 Q61.5013 173.593 64.6495 173.593 Q67.7976 173.593 69.6263 171.44 Q71.4781 169.264 71.4781 165.537 Q71.4781 161.787 69.6263 159.634 Q67.7976 157.482 64.6495 157.482 M73.9318 142.829 L73.9318 147.088 Q72.1726 146.255 70.367 145.815 Q68.5846 145.375 66.8254 145.375 Q62.1958 145.375 59.7421 148.5 Q57.3115 151.625 56.9643 157.944 Q58.33 155.931 60.3902 154.866 Q62.4504 153.778 64.9272 153.778 Q70.1355 153.778 73.1448 156.949 Q76.1772 160.097 76.1772 165.537 Q76.1772 170.861 73.029 174.079 Q69.8809 177.296 64.6495 177.296 Q58.6541 177.296 55.4828 172.713 Q52.3116 168.106 52.3116 159.38 Q52.3116 151.185 56.2004 146.324 Q60.0893 141.44 66.6402 141.44 Q68.3994 141.44 70.1818 141.787 Q71.9874 142.134 73.9318 142.829 Z" fill="#000000" fill-rule="evenodd" fill-opacity="1" /><polyline clip-path="url(#clip732)" style="stroke:#009af9; stroke-linecap:butt; stroke-linejoin:round; stroke-width:12; stroke-opacity:1; fill:none" points="
  175.59,1445.72 248.478,1298.46 321.366,1158.57 394.254,1031.32 467.142,919.12 540.03,822.02 612.918,738.685 685.806,667.232 758.694,605.74 831.582,552.473 
  904.47,505.961 977.358,464.991 1050.25,428.581 1123.13,395.94 1196.02,366.425 1268.91,339.517 1341.8,314.793 1414.69,291.905 1487.57,270.563 1560.46,250.526 
  1633.35,231.59 1706.24,213.581 1779.13,196.348 1852.01,179.761 1924.9,163.703 1997.79,148.07 2070.68,132.767 2143.57,117.705 2216.46,102.801 2289.34,87.9763 
  
  "/>
<polyline clip-path="url(#clip732)" style="stroke:#e26f46; stroke-linecap:butt; stroke-linejoin:round; stroke-width:12; stroke-opacity:1; fill:none" points="
  175.59,1338.52 179.03,1338.51 182.471,1338.49 185.911,1338.46 189.351,1338.42 221.163,1337.41 252.975,1335.33 284.786,1332.18 316.598,1327.96 354.833,1321.5 
  393.068,1313.54 425.395,1305.65 457.722,1296.73 492.839,1285.88 527.955,1273.86 560.329,1261.78 592.704,1248.75 627.412,1233.78 662.121,1217.8 702.334,1198.09 
  742.547,1177.15 778.284,1157.59 814.021,1137.17 845.359,1118.61 876.697,1099.48 945.031,1056 1013.77,1010.18 1089.77,957.671 1162.08,906.499 1237.27,852.684 
  1300.56,807.389 1377.84,752.714 1448.62,703.806 1514,660.12 1580.23,617.754 1617.34,594.998 1654.45,573.035 1688.07,553.876 1721.7,535.471 1760.2,515.385 
  1798.7,496.414 1834.35,479.897 1870,464.437 1905.15,450.27 1940.29,437.211 1974.42,425.624 2008.54,415.145 2043.52,405.58 2078.5,397.232 2116.83,389.51 
  2155.15,383.303 2182.99,379.754 2210.83,377.021 2238.66,375.108 2266.5,374.018 2272.21,373.896 2277.92,373.81 2283.63,373.757 2289.34,373.74 
  "/>
<path clip-path="url(#clip730)" d="
M1847.98 250.738 L2278.07 250.738 L2278.07 95.2176 L1847.98 95.2176  Z
  " fill="#ffffff" fill-rule="evenodd" fill-opacity="1"/>
<polyline clip-path="url(#clip730)" style="stroke:#000000; stroke-linecap:butt; stroke-linejoin:round; stroke-width:4; stroke-opacity:1; fill:none" points="
  1847.98,250.738 2278.07,250.738 2278.07,95.2176 1847.98,95.2176 1847.98,250.738 
  "/>
<polyline clip-path="url(#clip730)" style="stroke:#009af9; stroke-linecap:butt; stroke-linejoin:round; stroke-width:4; stroke-opacity:1; fill:none" points="
  1872.88,147.058 2022.25,147.058 
  "/>
<path clip-path="url(#clip730)" d="M2065.57 139.176 L2065.57 143.203 Q2063.77 142.277 2061.82 141.815 Q2059.88 141.352 2057.79 141.352 Q2054.62 141.352 2053.03 142.324 Q2051.45 143.296 2051.45 145.24 Q2051.45 146.722 2052.59 147.578 Q2053.72 148.412 2057.15 149.176 L2058.6 149.5 Q2063.14 150.472 2065.04 152.254 Q2066.96 154.014 2066.96 157.185 Q2066.96 160.796 2064.09 162.902 Q2061.24 165.009 2056.24 165.009 Q2054.16 165.009 2051.89 164.592 Q2049.65 164.199 2047.15 163.388 L2047.15 158.99 Q2049.51 160.217 2051.8 160.842 Q2054.09 161.444 2056.34 161.444 Q2059.35 161.444 2060.97 160.426 Q2062.59 159.384 2062.59 157.509 Q2062.59 155.773 2061.41 154.847 Q2060.25 153.921 2056.29 153.064 L2054.81 152.717 Q2050.85 151.884 2049.09 150.171 Q2047.33 148.435 2047.33 145.426 Q2047.33 141.768 2049.92 139.778 Q2052.52 137.787 2057.28 137.787 Q2059.65 137.787 2061.73 138.134 Q2063.81 138.481 2065.57 139.176 Z" fill="#000000" fill-rule="evenodd" fill-opacity="1" /><path clip-path="url(#clip730)" d="M2083.79 141.398 Q2080.36 141.398 2078.37 144.083 Q2076.38 146.745 2076.38 151.398 Q2076.38 156.051 2078.35 158.736 Q2080.34 161.398 2083.79 161.398 Q2087.19 161.398 2089.18 158.713 Q2091.17 156.027 2091.17 151.398 Q2091.17 146.791 2089.18 144.106 Q2087.19 141.398 2083.79 141.398 M2083.79 137.787 Q2089.34 137.787 2092.52 141.398 Q2095.69 145.009 2095.69 151.398 Q2095.69 157.764 2092.52 161.398 Q2089.34 165.009 2083.79 165.009 Q2078.21 165.009 2075.04 161.398 Q2071.89 157.764 2071.89 151.398 Q2071.89 145.009 2075.04 141.398 Q2078.21 137.787 2083.79 137.787 Z" fill="#000000" fill-rule="evenodd" fill-opacity="1" /><path clip-path="url(#clip730)" d="M2102.75 128.319 L2107.01 128.319 L2107.01 164.338 L2102.75 164.338 L2102.75 128.319 Z" fill="#000000" fill-rule="evenodd" fill-opacity="1" /><path clip-path="url(#clip730)" d="M2115.48 154.106 L2115.48 138.412 L2119.74 138.412 L2119.74 153.944 Q2119.74 157.625 2121.17 159.476 Q2122.61 161.305 2125.48 161.305 Q2128.93 161.305 2130.92 159.106 Q2132.93 156.907 2132.93 153.111 L2132.93 138.412 L2137.19 138.412 L2137.19 164.338 L2132.93 164.338 L2132.93 160.356 Q2131.38 162.717 2129.32 163.875 Q2127.28 165.009 2124.58 165.009 Q2120.11 165.009 2117.79 162.231 Q2115.48 159.453 2115.48 154.106 M2126.2 137.787 L2126.2 137.787 Z" fill="#000000" fill-rule="evenodd" fill-opacity="1" /><path clip-path="url(#clip730)" d="M2150.18 131.051 L2150.18 138.412 L2158.95 138.412 L2158.95 141.722 L2150.18 141.722 L2150.18 155.796 Q2150.18 158.967 2151.03 159.87 Q2151.91 160.773 2154.58 160.773 L2158.95 160.773 L2158.95 164.338 L2154.58 164.338 Q2149.65 164.338 2147.77 162.509 Q2145.9 160.657 2145.9 155.796 L2145.9 141.722 L2142.77 141.722 L2142.77 138.412 L2145.9 138.412 L2145.9 131.051 L2150.18 131.051 Z" fill="#000000" fill-rule="evenodd" fill-opacity="1" /><path clip-path="url(#clip730)" d="M2164.55 138.412 L2168.81 138.412 L2168.81 164.338 L2164.55 164.338 L2164.55 138.412 M2164.55 128.319 L2168.81 128.319 L2168.81 133.713 L2164.55 133.713 L2164.55 128.319 Z" fill="#000000" fill-rule="evenodd" fill-opacity="1" /><path clip-path="url(#clip730)" d="M2187.77 141.398 Q2184.34 141.398 2182.35 144.083 Q2180.36 146.745 2180.36 151.398 Q2180.36 156.051 2182.33 158.736 Q2184.32 161.398 2187.77 161.398 Q2191.17 161.398 2193.16 158.713 Q2195.15 156.027 2195.15 151.398 Q2195.15 146.791 2193.16 144.106 Q2191.17 141.398 2187.77 141.398 M2187.77 137.787 Q2193.33 137.787 2196.5 141.398 Q2199.67 145.009 2199.67 151.398 Q2199.67 157.764 2196.5 161.398 Q2193.33 165.009 2187.77 165.009 Q2182.19 165.009 2179.02 161.398 Q2175.87 157.764 2175.87 151.398 Q2175.87 145.009 2179.02 141.398 Q2182.19 137.787 2187.77 137.787 Z" fill="#000000" fill-rule="evenodd" fill-opacity="1" /><path clip-path="url(#clip730)" d="M2228.28 148.689 L2228.28 164.338 L2224.02 164.338 L2224.02 148.828 Q2224.02 145.148 2222.58 143.319 Q2221.15 141.49 2218.28 141.49 Q2214.83 141.49 2212.84 143.69 Q2210.85 145.889 2210.85 149.685 L2210.85 164.338 L2206.57 164.338 L2206.57 138.412 L2210.85 138.412 L2210.85 142.44 Q2212.38 140.102 2214.44 138.944 Q2216.52 137.787 2219.23 137.787 Q2223.7 137.787 2225.99 140.565 Q2228.28 143.319 2228.28 148.689 Z" fill="#000000" fill-rule="evenodd" fill-opacity="1" /><polyline clip-path="url(#clip730)" style="stroke:#e26f46; stroke-linecap:butt; stroke-linejoin:round; stroke-width:4; stroke-opacity:1; fill:none" points="
  1872.88,198.898 2022.25,198.898 
  "/>
<path clip-path="url(#clip730)" d="M2047.15 180.159 L2051.43 180.159 L2051.43 201.432 L2064.14 190.252 L2069.58 190.252 L2055.83 202.381 L2070.16 216.178 L2064.6 216.178 L2051.43 203.516 L2051.43 216.178 L2047.15 216.178 L2047.15 180.159 Z" fill="#000000" fill-rule="evenodd" fill-opacity="1" /><path clip-path="url(#clip730)" d="M2085.71 203.145 Q2080.55 203.145 2078.56 204.326 Q2076.57 205.506 2076.57 208.354 Q2076.57 210.622 2078.05 211.965 Q2079.55 213.284 2082.12 213.284 Q2085.66 213.284 2087.79 210.784 Q2089.95 208.261 2089.95 204.094 L2089.95 203.145 L2085.71 203.145 M2094.21 201.386 L2094.21 216.178 L2089.95 216.178 L2089.95 212.242 Q2088.49 214.603 2086.31 215.738 Q2084.14 216.849 2080.99 216.849 Q2077.01 216.849 2074.65 214.627 Q2072.31 212.381 2072.31 208.631 Q2072.31 204.256 2075.22 202.034 Q2078.16 199.812 2083.97 199.812 L2089.95 199.812 L2089.95 199.395 Q2089.95 196.455 2088 194.858 Q2086.08 193.238 2082.59 193.238 Q2080.36 193.238 2078.26 193.77 Q2076.15 194.303 2074.21 195.367 L2074.21 191.432 Q2076.54 190.53 2078.74 190.09 Q2080.94 189.627 2083.03 189.627 Q2088.65 189.627 2091.43 192.543 Q2094.21 195.46 2094.21 201.386 Z" fill="#000000" fill-rule="evenodd" fill-opacity="1" /><path clip-path="url(#clip730)" d="M2107.1 212.289 L2107.1 226.039 L2102.82 226.039 L2102.82 190.252 L2107.1 190.252 L2107.1 194.187 Q2108.44 191.872 2110.48 190.761 Q2112.54 189.627 2115.39 189.627 Q2120.11 189.627 2123.05 193.377 Q2126.01 197.127 2126.01 203.238 Q2126.01 209.349 2123.05 213.099 Q2120.11 216.849 2115.39 216.849 Q2112.54 216.849 2110.48 215.738 Q2108.44 214.603 2107.1 212.289 M2121.59 203.238 Q2121.59 198.539 2119.65 195.877 Q2117.72 193.192 2114.34 193.192 Q2110.97 193.192 2109.02 195.877 Q2107.1 198.539 2107.1 203.238 Q2107.1 207.937 2109.02 210.622 Q2110.97 213.284 2114.34 213.284 Q2117.72 213.284 2119.65 210.622 Q2121.59 207.937 2121.59 203.238 Z" fill="#000000" fill-rule="evenodd" fill-opacity="1" /><path clip-path="url(#clip730)" d="M2137.19 212.289 L2137.19 226.039 L2132.91 226.039 L2132.91 190.252 L2137.19 190.252 L2137.19 194.187 Q2138.53 191.872 2140.57 190.761 Q2142.63 189.627 2145.48 189.627 Q2150.2 189.627 2153.14 193.377 Q2156.1 197.127 2156.1 203.238 Q2156.1 209.349 2153.14 213.099 Q2150.2 216.849 2145.48 216.849 Q2142.63 216.849 2140.57 215.738 Q2138.53 214.603 2137.19 212.289 M2151.68 203.238 Q2151.68 198.539 2149.74 195.877 Q2147.82 193.192 2144.44 193.192 Q2141.06 193.192 2139.11 195.877 Q2137.19 198.539 2137.19 203.238 Q2137.19 207.937 2139.11 210.622 Q2141.06 213.284 2144.44 213.284 Q2147.82 213.284 2149.74 210.622 Q2151.68 207.937 2151.68 203.238 Z" fill="#000000" fill-rule="evenodd" fill-opacity="1" /><path clip-path="url(#clip730)" d="M2174.95 203.145 Q2169.78 203.145 2167.79 204.326 Q2165.8 205.506 2165.8 208.354 Q2165.8 210.622 2167.28 211.965 Q2168.79 213.284 2171.36 213.284 Q2174.9 213.284 2177.03 210.784 Q2179.18 208.261 2179.18 204.094 L2179.18 203.145 L2174.95 203.145 M2183.44 201.386 L2183.44 216.178 L2179.18 216.178 L2179.18 212.242 Q2177.72 214.603 2175.55 215.738 Q2173.37 216.849 2170.22 216.849 Q2166.24 216.849 2163.88 214.627 Q2161.54 212.381 2161.54 208.631 Q2161.54 204.256 2164.46 202.034 Q2167.4 199.812 2173.21 199.812 L2179.18 199.812 L2179.18 199.395 Q2179.18 196.455 2177.24 194.858 Q2175.32 193.238 2171.82 193.238 Q2169.6 193.238 2167.49 193.77 Q2165.39 194.303 2163.44 195.367 L2163.44 191.432 Q2165.78 190.53 2167.98 190.09 Q2170.18 189.627 2172.26 189.627 Q2177.89 189.627 2180.66 192.543 Q2183.44 195.46 2183.44 201.386 Z" fill="#000000" fill-rule="evenodd" fill-opacity="1" /></svg>
