<?xml version="1.0" encoding="utf-8"?>
<svg xmlns="http://www.w3.org/2000/svg" xmlns:xlink="http://www.w3.org/1999/xlink" width="600" height="400" viewBox="0 0 2400 1600">
<defs>
  <clipPath id="clip450">
    <rect x="0" y="0" width="2400" height="1600"/>
  </clipPath>
</defs>
<path clip-path="url(#clip450)" d="
M0 1600 L2400 1600 L2400 0 L0 0  Z
  " fill="#ffffff" fill-rule="evenodd" fill-opacity="1"/>
<defs>
  <clipPath id="clip451">
    <rect x="480" y="0" width="1681" height="1600"/>
  </clipPath>
</defs>
<path clip-path="url(#clip450)" d="
M158.35 1486.45 L2352.76 1486.45 L2352.76 123.472 L158.35 123.472  Z
  " fill="#ffffff" fill-rule="evenodd" fill-opacity="1"/>
<defs>
  <clipPath id="clip452">
    <rect x="158" y="123" width="2195" height="1364"/>
  </clipPath>
</defs>
<polyline clip-path="url(#clip452)" style="stroke:#000000; stroke-linecap:butt; stroke-linejoin:round; stroke-width:2; stroke-opacity:0.1; fill:none" points="
  516.198,1486.45 516.198,123.472 
  "/>
<polyline clip-path="url(#clip452)" style="stroke:#000000; stroke-linecap:butt; stroke-linejoin:round; stroke-width:2; stroke-opacity:0.1; fill:none" points="
  885.876,1486.45 885.876,123.472 
  "/>
<polyline clip-path="url(#clip452)" style="stroke:#000000; stroke-linecap:butt; stroke-linejoin:round; stroke-width:2; stroke-opacity:0.1; fill:none" points="
  1255.55,1486.45 1255.55,123.472 
  "/>
<polyline clip-path="url(#clip452)" style="stroke:#000000; stroke-linecap:butt; stroke-linejoin:round; stroke-width:2; stroke-opacity:0.1; fill:none" points="
  1625.23,1486.45 1625.23,123.472 
  "/>
<polyline clip-path="url(#clip452)" style="stroke:#000000; stroke-linecap:butt; stroke-linejoin:round; stroke-width:2; stroke-opacity:0.1; fill:none" points="
  1994.91,1486.45 1994.91,123.472 
  "/>
<polyline clip-path="url(#clip450)" style="stroke:#000000; stroke-linecap:butt; stroke-linejoin:round; stroke-width:4; stroke-opacity:1; fill:none" points="
  158.35,1486.45 2352.76,1486.45 
  "/>
<polyline clip-path="url(#clip450)" style="stroke:#000000; stroke-linecap:butt; stroke-linejoin:round; stroke-width:4; stroke-opacity:1; fill:none" points="
  516.198,1486.45 516.198,1467.55 
  "/>
<polyline clip-path="url(#clip450)" style="stroke:#000000; stroke-linecap:butt; stroke-linejoin:round; stroke-width:4; stroke-opacity:1; fill:none" points="
  885.876,1486.45 885.876,1467.55 
  "/>
<polyline clip-path="url(#clip450)" style="stroke:#000000; stroke-linecap:butt; stroke-linejoin:round; stroke-width:4; stroke-opacity:1; fill:none" points="
  1255.55,1486.45 1255.55,1467.55 
  "/>
<polyline clip-path="url(#clip450)" style="stroke:#000000; stroke-linecap:butt; stroke-linejoin:round; stroke-width:4; stroke-opacity:1; fill:none" points="
  1625.23,1486.45 1625.23,1467.55 
  "/>
<polyline clip-path="url(#clip450)" style="stroke:#000000; stroke-linecap:butt; stroke-linejoin:round; stroke-width:4; stroke-opacity:1; fill:none" points="
  1994.91,1486.45 1994.91,1467.55 
  "/>
<path clip-path="url(#clip450)" d="M506.476 1514.29 L524.832 1514.29 L524.832 1518.22 L510.758 1518.22 L510.758 1526.7 Q511.777 1526.35 512.795 1526.19 Q513.814 1526 514.832 1526 Q520.619 1526 523.999 1529.17 Q527.379 1532.34 527.379 1537.76 Q527.379 1543.34 523.906 1546.44 Q520.434 1549.52 514.115 1549.52 Q511.939 1549.52 509.67 1549.15 Q507.425 1548.78 505.018 1548.04 L505.018 1543.34 Q507.101 1544.47 509.323 1545.03 Q511.545 1545.58 514.022 1545.58 Q518.027 1545.58 520.365 1543.48 Q522.703 1541.37 522.703 1537.76 Q522.703 1534.15 520.365 1532.04 Q518.027 1529.94 514.022 1529.94 Q512.147 1529.94 510.272 1530.35 Q508.42 1530.77 506.476 1531.65 L506.476 1514.29 Z" fill="#000000" fill-rule="evenodd" fill-opacity="1" /><path clip-path="url(#clip450)" d="M860.563 1544.91 L868.202 1544.91 L868.202 1518.55 L859.892 1520.21 L859.892 1515.95 L868.156 1514.29 L872.832 1514.29 L872.832 1544.91 L880.471 1544.91 L880.471 1548.85 L860.563 1548.85 L860.563 1544.91 Z" fill="#000000" fill-rule="evenodd" fill-opacity="1" /><path clip-path="url(#clip450)" d="M899.915 1517.37 Q896.304 1517.37 894.475 1520.93 Q892.67 1524.47 892.67 1531.6 Q892.67 1538.71 894.475 1542.27 Q896.304 1545.82 899.915 1545.82 Q903.549 1545.82 905.355 1542.27 Q907.183 1538.71 907.183 1531.6 Q907.183 1524.47 905.355 1520.93 Q903.549 1517.37 899.915 1517.37 M899.915 1513.66 Q905.725 1513.66 908.781 1518.27 Q911.859 1522.85 911.859 1531.6 Q911.859 1540.33 908.781 1544.94 Q905.725 1549.52 899.915 1549.52 Q894.105 1549.52 891.026 1544.94 Q887.97 1540.33 887.97 1531.6 Q887.97 1522.85 891.026 1518.27 Q894.105 1513.66 899.915 1513.66 Z" fill="#000000" fill-rule="evenodd" fill-opacity="1" /><path clip-path="url(#clip450)" d="M1230.74 1544.91 L1238.38 1544.91 L1238.38 1518.55 L1230.07 1520.21 L1230.07 1515.95 L1238.33 1514.29 L1243.01 1514.29 L1243.01 1544.91 L1250.65 1544.91 L1250.65 1548.85 L1230.74 1548.85 L1230.74 1544.91 Z" fill="#000000" fill-rule="evenodd" fill-opacity="1" /><path clip-path="url(#clip450)" d="M1260.14 1514.29 L1278.49 1514.29 L1278.49 1518.22 L1264.42 1518.22 L1264.42 1526.7 Q1265.44 1526.35 1266.46 1526.19 Q1267.47 1526 1268.49 1526 Q1274.28 1526 1277.66 1529.17 Q1281.04 1532.34 1281.04 1537.76 Q1281.04 1543.34 1277.57 1546.44 Q1274.09 1549.52 1267.78 1549.52 Q1265.6 1549.52 1263.33 1549.15 Q1261.09 1548.78 1258.68 1548.04 L1258.68 1543.34 Q1260.76 1544.47 1262.98 1545.03 Q1265.21 1545.58 1267.68 1545.58 Q1271.69 1545.58 1274.03 1543.48 Q1276.36 1541.37 1276.36 1537.76 Q1276.36 1534.15 1274.03 1532.04 Q1271.69 1529.94 1267.68 1529.94 Q1265.81 1529.94 1263.93 1530.35 Q1262.08 1530.77 1260.14 1531.65 L1260.14 1514.29 Z" fill="#000000" fill-rule="evenodd" fill-opacity="1" /><path clip-path="url(#clip450)" d="M1604 1544.91 L1620.32 1544.91 L1620.32 1548.85 L1598.38 1548.85 L1598.38 1544.91 Q1601.04 1542.16 1605.62 1537.53 Q1610.23 1532.88 1611.41 1531.53 Q1613.66 1529.01 1614.54 1527.27 Q1615.44 1525.51 1615.44 1523.82 Q1615.44 1521.07 1613.49 1519.33 Q1611.57 1517.6 1608.47 1517.6 Q1606.27 1517.6 1603.82 1518.36 Q1601.39 1519.13 1598.61 1520.68 L1598.61 1515.95 Q1601.43 1514.82 1603.89 1514.24 Q1606.34 1513.66 1608.38 1513.66 Q1613.75 1513.66 1616.94 1516.35 Q1620.14 1519.03 1620.14 1523.52 Q1620.14 1525.65 1619.33 1527.57 Q1618.54 1529.47 1616.43 1532.07 Q1615.86 1532.74 1612.75 1535.95 Q1609.65 1539.15 1604 1544.91 Z" fill="#000000" fill-rule="evenodd" fill-opacity="1" /><path clip-path="url(#clip450)" d="M1640.14 1517.37 Q1636.53 1517.37 1634.7 1520.93 Q1632.89 1524.47 1632.89 1531.6 Q1632.89 1538.71 1634.7 1542.27 Q1636.53 1545.82 1640.14 1545.82 Q1643.77 1545.82 1645.58 1542.27 Q1647.41 1538.71 1647.41 1531.6 Q1647.41 1524.47 1645.58 1520.93 Q1643.77 1517.37 1640.14 1517.37 M1640.14 1513.66 Q1645.95 1513.66 1649 1518.27 Q1652.08 1522.85 1652.08 1531.6 Q1652.08 1540.33 1649 1544.94 Q1645.95 1549.52 1640.14 1549.52 Q1634.33 1549.52 1631.25 1544.94 Q1628.19 1540.33 1628.19 1531.6 Q1628.19 1522.85 1631.25 1518.27 Q1634.33 1513.66 1640.14 1513.66 Z" fill="#000000" fill-rule="evenodd" fill-opacity="1" /><path clip-path="url(#clip450)" d="M1974.18 1544.91 L1990.5 1544.91 L1990.5 1548.85 L1968.55 1548.85 L1968.55 1544.91 Q1971.22 1542.16 1975.8 1537.53 Q1980.41 1532.88 1981.59 1531.53 Q1983.83 1529.01 1984.71 1527.27 Q1985.61 1525.51 1985.61 1523.82 Q1985.61 1521.07 1983.67 1519.33 Q1981.75 1517.6 1978.65 1517.6 Q1976.45 1517.6 1973.99 1518.36 Q1971.56 1519.13 1968.79 1520.68 L1968.79 1515.95 Q1971.61 1514.82 1974.06 1514.24 Q1976.52 1513.66 1978.55 1513.66 Q1983.92 1513.66 1987.12 1516.35 Q1990.31 1519.03 1990.31 1523.52 Q1990.31 1525.65 1989.5 1527.57 Q1988.72 1529.47 1986.61 1532.07 Q1986.03 1532.74 1982.93 1535.95 Q1979.83 1539.15 1974.18 1544.91 Z" fill="#000000" fill-rule="evenodd" fill-opacity="1" /><path clip-path="url(#clip450)" d="M2000.36 1514.29 L2018.72 1514.29 L2018.72 1518.22 L2004.64 1518.22 L2004.64 1526.7 Q2005.66 1526.35 2006.68 1526.19 Q2007.7 1526 2008.72 1526 Q2014.5 1526 2017.88 1529.17 Q2021.26 1532.34 2021.26 1537.76 Q2021.26 1543.34 2017.79 1546.44 Q2014.32 1549.52 2008 1549.52 Q2005.82 1549.52 2003.55 1549.15 Q2001.31 1548.78 1998.9 1548.04 L1998.9 1543.34 Q2000.98 1544.47 2003.21 1545.03 Q2005.43 1545.58 2007.91 1545.58 Q2011.91 1545.58 2014.25 1543.48 Q2016.59 1541.37 2016.59 1537.76 Q2016.59 1534.15 2014.25 1532.04 Q2011.91 1529.94 2007.91 1529.94 Q2006.03 1529.94 2004.16 1530.35 Q2002.3 1530.77 2000.36 1531.65 L2000.36 1514.29 Z" fill="#000000" fill-rule="evenodd" fill-opacity="1" /><polyline clip-path="url(#clip452)" style="stroke:#000000; stroke-linecap:butt; stroke-linejoin:round; stroke-width:2; stroke-opacity:0.1; fill:none" points="
  158.35,853.32 2352.76,853.32 
  "/>
<polyline clip-path="url(#clip452)" style="stroke:#000000; stroke-linecap:butt; stroke-linejoin:round; stroke-width:2; stroke-opacity:0.1; fill:none" points="
  158.35,208.418 2352.76,208.418 
  "/>
<polyline clip-path="url(#clip450)" style="stroke:#000000; stroke-linecap:butt; stroke-linejoin:round; stroke-width:4; stroke-opacity:1; fill:none" points="
  158.35,1486.45 158.35,123.472 
  "/>
<polyline clip-path="url(#clip450)" style="stroke:#000000; stroke-linecap:butt; stroke-linejoin:round; stroke-width:4; stroke-opacity:1; fill:none" points="
  158.35,853.32 177.248,853.32 
  "/>
<polyline clip-path="url(#clip450)" style="stroke:#000000; stroke-linecap:butt; stroke-linejoin:round; stroke-width:4; stroke-opacity:1; fill:none" points="
  158.35,208.418 177.248,208.418 
  "/>
<path clip-path="url(#clip450)" d="M52.5662 873.113 L60.205 873.113 L60.205 846.747 L51.8949 848.414 L51.8949 844.154 L60.1587 842.488 L64.8346 842.488 L64.8346 873.113 L72.4735 873.113 L72.4735 877.048 L52.5662 877.048 L52.5662 873.113 Z" fill="#000000" fill-rule="evenodd" fill-opacity="1" /><path clip-path="url(#clip450)" d="M91.9178 845.566 Q88.3067 845.566 86.478 849.131 Q84.6725 852.673 84.6725 859.802 Q84.6725 866.909 86.478 870.474 Q88.3067 874.015 91.9178 874.015 Q95.5521 874.015 97.3576 870.474 Q99.1863 866.909 99.1863 859.802 Q99.1863 852.673 97.3576 849.131 Q95.5521 845.566 91.9178 845.566 M91.9178 841.863 Q97.728 841.863 100.784 846.469 Q103.862 851.052 103.862 859.802 Q103.862 868.529 100.784 873.136 Q97.728 877.719 91.9178 877.719 Q86.1077 877.719 83.029 873.136 Q79.9735 868.529 79.9735 859.802 Q79.9735 851.052 83.029 846.469 Q86.1077 841.863 91.9178 841.863 Z" fill="#000000" fill-rule="evenodd" fill-opacity="1" /><path clip-path="url(#clip450)" d="M116.557 834.497 Q119.285 835.08 120.808 836.923 Q122.35 838.766 122.35 841.475 Q122.35 845.631 119.491 847.907 Q116.633 850.183 111.367 850.183 Q109.599 850.183 107.718 849.825 Q105.856 849.487 103.862 848.791 L103.862 845.123 Q105.442 846.045 107.323 846.515 Q109.204 846.985 111.254 846.985 Q114.827 846.985 116.689 845.575 Q118.57 844.164 118.57 841.475 Q118.57 838.992 116.821 837.6 Q115.09 836.19 111.987 836.19 L108.715 836.19 L108.715 833.068 L112.138 833.068 Q114.94 833.068 116.426 831.958 Q117.912 830.83 117.912 828.723 Q117.912 826.56 116.369 825.413 Q114.846 824.247 111.987 824.247 Q110.426 824.247 108.639 824.585 Q106.853 824.924 104.709 825.639 L104.709 822.253 Q106.871 821.651 108.752 821.35 Q110.652 821.049 112.326 821.049 Q116.651 821.049 119.172 823.024 Q121.692 824.98 121.692 828.328 Q121.692 830.66 120.357 832.278 Q119.021 833.876 116.557 834.497 Z" fill="#000000" fill-rule="evenodd" fill-opacity="1" /><path clip-path="url(#clip450)" d="M51.6634 228.21 L59.3023 228.21 L59.3023 201.845 L50.9921 203.511 L50.9921 199.252 L59.256 197.586 L63.9319 197.586 L63.9319 228.21 L71.5707 228.21 L71.5707 232.146 L51.6634 232.146 L51.6634 228.21 Z" fill="#000000" fill-rule="evenodd" fill-opacity="1" /><path clip-path="url(#clip450)" d="M91.0151 200.664 Q87.404 200.664 85.5753 204.229 Q83.7697 207.771 83.7697 214.9 Q83.7697 222.007 85.5753 225.572 Q87.404 229.113 91.0151 229.113 Q94.6493 229.113 96.4548 225.572 Q98.2835 222.007 98.2835 214.9 Q98.2835 207.771 96.4548 204.229 Q94.6493 200.664 91.0151 200.664 M91.0151 196.961 Q96.8252 196.961 99.8808 201.567 Q102.959 206.15 102.959 214.9 Q102.959 223.627 99.8808 228.234 Q96.8252 232.817 91.0151 232.817 Q85.2049 232.817 82.1262 228.234 Q79.0707 223.627 79.0707 214.9 Q79.0707 206.15 82.1262 201.567 Q85.2049 196.961 91.0151 196.961 Z" fill="#000000" fill-rule="evenodd" fill-opacity="1" /><path clip-path="url(#clip450)" d="M112.984 189.181 Q110.426 189.181 108.922 190.93 Q107.436 192.679 107.436 195.726 Q107.436 198.754 108.922 200.522 Q110.426 202.271 112.984 202.271 Q115.542 202.271 117.028 200.522 Q118.532 198.754 118.532 195.726 Q118.532 192.679 117.028 190.93 Q115.542 189.181 112.984 189.181 M120.526 177.276 L120.526 180.736 Q119.097 180.059 117.63 179.702 Q116.181 179.345 114.752 179.345 Q110.99 179.345 108.997 181.884 Q107.022 184.423 106.74 189.557 Q107.849 187.921 109.523 187.056 Q111.197 186.172 113.21 186.172 Q117.441 186.172 119.886 188.749 Q122.35 191.306 122.35 195.726 Q122.35 200.052 119.792 202.666 Q117.235 205.281 112.984 205.281 Q108.113 205.281 105.536 201.557 Q102.959 197.814 102.959 190.723 Q102.959 184.065 106.119 180.116 Q109.279 176.147 114.601 176.147 Q116.031 176.147 117.479 176.429 Q118.946 176.712 120.526 177.276 Z" fill="#000000" fill-rule="evenodd" fill-opacity="1" /><path clip-path="url(#clip450)" d="M594.506 12.096 L602.689 12.096 L602.689 72.576 L594.506 72.576 L594.506 12.096 Z" fill="#000000" fill-rule="evenodd" fill-opacity="1" /><path clip-path="url(#clip450)" d="M656.364 45.1919 L656.364 72.576 L648.91 72.576 L648.91 45.4349 Q648.91 38.994 646.398 35.7938 Q643.887 32.5936 638.864 32.5936 Q632.828 32.5936 629.344 36.4419 Q625.86 40.2903 625.86 46.9338 L625.86 72.576 L618.366 72.576 L618.366 27.2059 L625.86 27.2059 L625.86 34.2544 Q628.534 30.163 632.139 28.1376 Q635.785 26.1121 640.525 26.1121 Q648.343 26.1121 652.353 30.9732 Q656.364 35.7938 656.364 45.1919 Z" fill="#000000" fill-rule="evenodd" fill-opacity="1" /><path clip-path="url(#clip450)" d="M678.603 14.324 L678.603 27.2059 L693.956 27.2059 L693.956 32.9987 L678.603 32.9987 L678.603 57.6282 Q678.603 63.1779 680.102 64.7578 Q681.641 66.3376 686.3 66.3376 L693.956 66.3376 L693.956 72.576 L686.3 72.576 Q677.671 72.576 674.39 69.3758 Q671.109 66.1351 671.109 57.6282 L671.109 32.9987 L665.64 32.9987 L665.64 27.2059 L671.109 27.2059 L671.109 14.324 L678.603 14.324 Z" fill="#000000" fill-rule="evenodd" fill-opacity="1" /><path clip-path="url(#clip450)" d="M742.567 48.0275 L742.567 51.6733 L708.296 51.6733 Q708.782 59.3701 712.914 63.421 Q717.087 67.4314 724.5 67.4314 Q728.794 67.4314 732.804 66.3781 Q736.855 65.3249 740.825 63.2184 L740.825 70.267 Q736.815 71.9684 732.602 72.8596 Q728.389 73.7508 724.054 73.7508 Q713.198 73.7508 706.838 67.4314 Q700.518 61.1119 700.518 50.3365 Q700.518 39.1965 706.514 32.6746 Q712.55 26.1121 722.758 26.1121 Q731.913 26.1121 737.22 32.0264 Q742.567 37.9003 742.567 48.0275 M735.113 45.84 Q735.032 39.7232 731.67 36.0774 Q728.348 32.4315 722.839 32.4315 Q716.601 32.4315 712.833 35.9558 Q709.106 39.4801 708.539 45.8805 L735.113 45.84 Z" fill="#000000" fill-rule="evenodd" fill-opacity="1" /><path clip-path="url(#clip450)" d="M781.091 34.1734 Q779.835 33.4443 778.336 33.1202 Q776.878 32.7556 775.096 32.7556 Q768.776 32.7556 765.373 36.8875 Q762.011 40.9789 762.011 48.6757 L762.011 72.576 L754.517 72.576 L754.517 27.2059 L762.011 27.2059 L762.011 34.2544 Q764.361 30.1225 768.128 28.1376 Q771.895 26.1121 777.283 26.1121 Q778.053 26.1121 778.984 26.2337 Q779.916 26.3147 781.05 26.5172 L781.091 34.1734 Z" fill="#000000" fill-rule="evenodd" fill-opacity="1" /><path clip-path="url(#clip450)" d="M796.12 65.7705 L796.12 89.8329 L788.626 89.8329 L788.626 27.2059 L796.12 27.2059 L796.12 34.0924 Q798.469 30.0415 802.034 28.0971 Q805.639 26.1121 810.622 26.1121 Q818.886 26.1121 824.031 32.6746 Q829.216 39.2371 829.216 49.9314 Q829.216 60.6258 824.031 67.1883 Q818.886 73.7508 810.622 73.7508 Q805.639 73.7508 802.034 71.8063 Q798.469 69.8214 796.12 65.7705 M821.478 49.9314 Q821.478 41.7081 818.076 37.0496 Q814.713 32.3505 808.799 32.3505 Q802.885 32.3505 799.482 37.0496 Q796.12 41.7081 796.12 49.9314 Q796.12 58.1548 799.482 62.8538 Q802.885 67.5124 808.799 67.5124 Q814.713 67.5124 818.076 62.8538 Q821.478 58.1548 821.478 49.9314 Z" fill="#000000" fill-rule="evenodd" fill-opacity="1" /><path clip-path="url(#clip450)" d="M859.152 32.4315 Q853.157 32.4315 849.673 37.1306 Q846.189 41.7891 846.189 49.9314 Q846.189 58.0738 849.632 62.7728 Q853.116 67.4314 859.152 67.4314 Q865.107 67.4314 868.59 62.7323 Q872.074 58.0333 872.074 49.9314 Q872.074 41.8701 868.59 37.1711 Q865.107 32.4315 859.152 32.4315 M859.152 26.1121 Q868.874 26.1121 874.424 32.4315 Q879.973 38.7509 879.973 49.9314 Q879.973 61.0714 874.424 67.4314 Q868.874 73.7508 859.152 73.7508 Q849.389 73.7508 843.839 67.4314 Q838.33 61.0714 838.33 49.9314 Q838.33 38.7509 843.839 32.4315 Q849.389 26.1121 859.152 26.1121 Z" fill="#000000" fill-rule="evenodd" fill-opacity="1" /><path clip-path="url(#clip450)" d="M892.329 9.54393 L899.782 9.54393 L899.782 72.576 L892.329 72.576 L892.329 9.54393 Z" fill="#000000" fill-rule="evenodd" fill-opacity="1" /><path clip-path="url(#clip450)" d="M935.997 49.7694 Q926.964 49.7694 923.48 51.8354 Q919.996 53.9013 919.996 58.8839 Q919.996 62.8538 922.589 65.2034 Q925.222 67.5124 929.719 67.5124 Q935.916 67.5124 939.643 63.1374 Q943.411 58.7219 943.411 51.4303 L943.411 49.7694 L935.997 49.7694 M950.864 46.6907 L950.864 72.576 L943.411 72.576 L943.411 65.6895 Q940.859 69.8214 937.051 71.8063 Q933.243 73.7508 927.734 73.7508 Q920.766 73.7508 916.634 69.8619 Q912.543 65.9325 912.543 59.3701 Q912.543 51.7138 917.647 47.825 Q922.792 43.9361 932.959 43.9361 L943.411 43.9361 L943.411 43.2069 Q943.411 38.0623 940.008 35.2672 Q936.646 32.4315 930.529 32.4315 Q926.64 32.4315 922.954 33.3632 Q919.267 34.295 915.865 36.1584 L915.865 29.2718 Q919.956 27.692 923.804 26.9223 Q927.653 26.1121 931.298 26.1121 Q941.142 26.1121 946.003 31.2163 Q950.864 36.3204 950.864 46.6907 Z" fill="#000000" fill-rule="evenodd" fill-opacity="1" /><path clip-path="url(#clip450)" d="M973.59 14.324 L973.59 27.2059 L988.943 27.2059 L988.943 32.9987 L973.59 32.9987 L973.59 57.6282 Q973.59 63.1779 975.089 64.7578 Q976.628 66.3376 981.287 66.3376 L988.943 66.3376 L988.943 72.576 L981.287 72.576 Q972.658 72.576 969.377 69.3758 Q966.096 66.1351 966.096 57.6282 L966.096 32.9987 L960.627 32.9987 L960.627 27.2059 L966.096 27.2059 L966.096 14.324 L973.59 14.324 Z" fill="#000000" fill-rule="evenodd" fill-opacity="1" /><path clip-path="url(#clip450)" d="M998.746 27.2059 L1006.2 27.2059 L1006.2 72.576 L998.746 72.576 L998.746 27.2059 M998.746 9.54393 L1006.2 9.54393 L1006.2 18.9825 L998.746 18.9825 L998.746 9.54393 Z" fill="#000000" fill-rule="evenodd" fill-opacity="1" /><path clip-path="url(#clip450)" d="M1039.38 32.4315 Q1033.38 32.4315 1029.9 37.1306 Q1026.41 41.7891 1026.41 49.9314 Q1026.41 58.0738 1029.86 62.7728 Q1033.34 67.4314 1039.38 67.4314 Q1045.33 67.4314 1048.82 62.7323 Q1052.3 58.0333 1052.3 49.9314 Q1052.3 41.8701 1048.82 37.1711 Q1045.33 32.4315 1039.38 32.4315 M1039.38 26.1121 Q1049.1 26.1121 1054.65 32.4315 Q1060.2 38.7509 1060.2 49.9314 Q1060.2 61.0714 1054.65 67.4314 Q1049.1 73.7508 1039.38 73.7508 Q1029.61 73.7508 1024.06 67.4314 Q1018.55 61.0714 1018.55 49.9314 Q1018.55 38.7509 1024.06 32.4315 Q1029.61 26.1121 1039.38 26.1121 Z" fill="#000000" fill-rule="evenodd" fill-opacity="1" /><path clip-path="url(#clip450)" d="M1110.27 45.1919 L1110.27 72.576 L1102.81 72.576 L1102.81 45.4349 Q1102.81 38.994 1100.3 35.7938 Q1097.79 32.5936 1092.77 32.5936 Q1086.73 32.5936 1083.25 36.4419 Q1079.76 40.2903 1079.76 46.9338 L1079.76 72.576 L1072.27 72.576 L1072.27 27.2059 L1079.76 27.2059 L1079.76 34.2544 Q1082.44 30.163 1086.04 28.1376 Q1089.69 26.1121 1094.43 26.1121 Q1102.25 26.1121 1106.26 30.9732 Q1110.27 35.7938 1110.27 45.1919 Z" fill="#000000" fill-rule="evenodd" fill-opacity="1" /><path clip-path="url(#clip450)" d="M1184.16 28.9478 L1184.16 35.9153 Q1181 34.1734 1177.8 33.3227 Q1174.64 32.4315 1171.4 32.4315 Q1164.14 32.4315 1160.13 37.0496 Q1156.12 41.6271 1156.12 49.9314 Q1156.12 58.2358 1160.13 62.8538 Q1164.14 67.4314 1171.4 67.4314 Q1174.64 67.4314 1177.8 66.5807 Q1181 65.6895 1184.16 63.9476 L1184.16 70.8341 Q1181.04 72.2924 1177.67 73.0216 Q1174.35 73.7508 1170.59 73.7508 Q1160.34 73.7508 1154.3 67.3098 Q1148.26 60.8689 1148.26 49.9314 Q1148.26 38.832 1154.34 32.472 Q1160.46 26.1121 1171.07 26.1121 Q1174.51 26.1121 1177.8 26.8413 Q1181.08 27.5299 1184.16 28.9478 Z" fill="#000000" fill-rule="evenodd" fill-opacity="1" /><path clip-path="url(#clip450)" d="M1214.7 32.4315 Q1208.7 32.4315 1205.22 37.1306 Q1201.74 41.7891 1201.74 49.9314 Q1201.74 58.0738 1205.18 62.7728 Q1208.66 67.4314 1214.7 67.4314 Q1220.65 67.4314 1224.14 62.7323 Q1227.62 58.0333 1227.62 49.9314 Q1227.62 41.8701 1224.14 37.1711 Q1220.65 32.4315 1214.7 32.4315 M1214.7 26.1121 Q1224.42 26.1121 1229.97 32.4315 Q1235.52 38.7509 1235.52 49.9314 Q1235.52 61.0714 1229.97 67.4314 Q1224.42 73.7508 1214.7 73.7508 Q1204.94 73.7508 1199.39 67.4314 Q1193.88 61.0714 1193.88 49.9314 Q1193.88 38.7509 1199.39 32.4315 Q1204.94 26.1121 1214.7 26.1121 Z" fill="#000000" fill-rule="evenodd" fill-opacity="1" /><path clip-path="url(#clip450)" d="M1285.59 45.1919 L1285.59 72.576 L1278.14 72.576 L1278.14 45.4349 Q1278.14 38.994 1275.63 35.7938 Q1273.11 32.5936 1268.09 32.5936 Q1262.05 32.5936 1258.57 36.4419 Q1255.09 40.2903 1255.09 46.9338 L1255.09 72.576 L1247.59 72.576 L1247.59 27.2059 L1255.09 27.2059 L1255.09 34.2544 Q1257.76 30.163 1261.37 28.1376 Q1265.01 26.1121 1269.75 26.1121 Q1277.57 26.1121 1281.58 30.9732 Q1285.59 35.7938 1285.59 45.1919 Z" fill="#000000" fill-rule="evenodd" fill-opacity="1" /><path clip-path="url(#clip450)" d="M1330.31 34.0924 L1330.31 9.54393 L1337.77 9.54393 L1337.77 72.576 L1330.31 72.576 L1330.31 65.7705 Q1327.96 69.8214 1324.36 71.8063 Q1320.79 73.7508 1315.77 73.7508 Q1307.55 73.7508 1302.36 67.1883 Q1297.22 60.6258 1297.22 49.9314 Q1297.22 39.2371 1302.36 32.6746 Q1307.55 26.1121 1315.77 26.1121 Q1320.79 26.1121 1324.36 28.0971 Q1327.96 30.0415 1330.31 34.0924 M1304.91 49.9314 Q1304.91 58.1548 1308.28 62.8538 Q1311.68 67.5124 1317.59 67.5124 Q1323.51 67.5124 1326.91 62.8538 Q1330.31 58.1548 1330.31 49.9314 Q1330.31 41.7081 1326.91 37.0496 Q1323.51 32.3505 1317.59 32.3505 Q1311.68 32.3505 1308.28 37.0496 Q1304.91 41.7081 1304.91 49.9314 Z" fill="#000000" fill-rule="evenodd" fill-opacity="1" /><path clip-path="url(#clip450)" d="M1353.12 27.2059 L1360.57 27.2059 L1360.57 72.576 L1353.12 72.576 L1353.12 27.2059 M1353.12 9.54393 L1360.57 9.54393 L1360.57 18.9825 L1353.12 18.9825 L1353.12 9.54393 Z" fill="#000000" fill-rule="evenodd" fill-opacity="1" /><path clip-path="url(#clip450)" d="M1383.54 14.324 L1383.54 27.2059 L1398.89 27.2059 L1398.89 32.9987 L1383.54 32.9987 L1383.54 57.6282 Q1383.54 63.1779 1385.04 64.7578 Q1386.58 66.3376 1391.24 66.3376 L1398.89 66.3376 L1398.89 72.576 L1391.24 72.576 Q1382.61 72.576 1379.33 69.3758 Q1376.05 66.1351 1376.05 57.6282 L1376.05 32.9987 L1370.58 32.9987 L1370.58 27.2059 L1376.05 27.2059 L1376.05 14.324 L1383.54 14.324 Z" fill="#000000" fill-rule="evenodd" fill-opacity="1" /><path clip-path="url(#clip450)" d="M1408.7 27.2059 L1416.15 27.2059 L1416.15 72.576 L1408.7 72.576 L1408.7 27.2059 M1408.7 9.54393 L1416.15 9.54393 L1416.15 18.9825 L1408.7 18.9825 L1408.7 9.54393 Z" fill="#000000" fill-rule="evenodd" fill-opacity="1" /><path clip-path="url(#clip450)" d="M1449.33 32.4315 Q1443.33 32.4315 1439.85 37.1306 Q1436.37 41.7891 1436.37 49.9314 Q1436.37 58.0738 1439.81 62.7728 Q1443.29 67.4314 1449.33 67.4314 Q1455.28 67.4314 1458.77 62.7323 Q1462.25 58.0333 1462.25 49.9314 Q1462.25 41.8701 1458.77 37.1711 Q1455.28 32.4315 1449.33 32.4315 M1449.33 26.1121 Q1459.05 26.1121 1464.6 32.4315 Q1470.15 38.7509 1470.15 49.9314 Q1470.15 61.0714 1464.6 67.4314 Q1459.05 73.7508 1449.33 73.7508 Q1439.57 73.7508 1434.02 67.4314 Q1428.51 61.0714 1428.51 49.9314 Q1428.51 38.7509 1434.02 32.4315 Q1439.57 26.1121 1449.33 26.1121 Z" fill="#000000" fill-rule="evenodd" fill-opacity="1" /><path clip-path="url(#clip450)" d="M1520.22 45.1919 L1520.22 72.576 L1512.77 72.576 L1512.77 45.4349 Q1512.77 38.994 1510.25 35.7938 Q1507.74 32.5936 1502.72 32.5936 Q1496.68 32.5936 1493.2 36.4419 Q1489.72 40.2903 1489.72 46.9338 L1489.72 72.576 L1482.22 72.576 L1482.22 27.2059 L1489.72 27.2059 L1489.72 34.2544 Q1492.39 30.163 1495.99 28.1376 Q1499.64 26.1121 1504.38 26.1121 Q1512.2 26.1121 1516.21 30.9732 Q1520.22 35.7938 1520.22 45.1919 Z" fill="#000000" fill-rule="evenodd" fill-opacity="1" /><path clip-path="url(#clip450)" d="M1599.17 45.1919 L1599.17 72.576 L1591.72 72.576 L1591.72 45.4349 Q1591.72 38.994 1589.21 35.7938 Q1586.69 32.5936 1581.67 32.5936 Q1575.64 32.5936 1572.15 36.4419 Q1568.67 40.2903 1568.67 46.9338 L1568.67 72.576 L1561.17 72.576 L1561.17 27.2059 L1568.67 27.2059 L1568.67 34.2544 Q1571.34 30.163 1574.95 28.1376 Q1578.59 26.1121 1583.33 26.1121 Q1591.15 26.1121 1595.16 30.9732 Q1599.17 35.7938 1599.17 45.1919 Z" fill="#000000" fill-rule="evenodd" fill-opacity="1" /><path clip-path="url(#clip450)" d="M1613.27 54.671 L1613.27 27.2059 L1620.72 27.2059 L1620.72 54.3874 Q1620.72 60.8284 1623.23 64.0691 Q1625.74 67.2693 1630.77 67.2693 Q1636.8 67.2693 1640.29 63.421 Q1643.81 59.5726 1643.81 52.9291 L1643.81 27.2059 L1651.27 27.2059 L1651.27 72.576 L1643.81 72.576 L1643.81 65.6084 Q1641.1 69.7404 1637.49 71.7658 Q1633.93 73.7508 1629.19 73.7508 Q1621.37 73.7508 1617.32 68.8897 Q1613.27 64.0286 1613.27 54.671 M1632.02 26.1121 L1632.02 26.1121 Z" fill="#000000" fill-rule="evenodd" fill-opacity="1" /><path clip-path="url(#clip450)" d="M1701.94 35.9153 Q1704.74 30.8922 1708.63 28.5022 Q1712.52 26.1121 1717.78 26.1121 Q1724.87 26.1121 1728.72 31.0947 Q1732.57 36.0368 1732.57 45.1919 L1732.57 72.576 L1725.07 72.576 L1725.07 45.4349 Q1725.07 38.913 1722.76 35.7533 Q1720.46 32.5936 1715.72 32.5936 Q1709.92 32.5936 1706.56 36.4419 Q1703.2 40.2903 1703.2 46.9338 L1703.2 72.576 L1695.7 72.576 L1695.7 45.4349 Q1695.7 38.8725 1693.4 35.7533 Q1691.09 32.5936 1686.27 32.5936 Q1680.55 32.5936 1677.19 36.4824 Q1673.83 40.3308 1673.83 46.9338 L1673.83 72.576 L1666.34 72.576 L1666.34 27.2059 L1673.83 27.2059 L1673.83 34.2544 Q1676.38 30.082 1679.95 28.0971 Q1683.51 26.1121 1688.41 26.1121 Q1693.35 26.1121 1696.8 28.6237 Q1700.28 31.1352 1701.94 35.9153 Z" fill="#000000" fill-rule="evenodd" fill-opacity="1" /><path clip-path="url(#clip450)" d="M1780 49.9314 Q1780 41.7081 1776.6 37.0496 Q1773.24 32.3505 1767.32 32.3505 Q1761.41 32.3505 1758.01 37.0496 Q1754.64 41.7081 1754.64 49.9314 Q1754.64 58.1548 1758.01 62.8538 Q1761.41 67.5124 1767.32 67.5124 Q1773.24 67.5124 1776.6 62.8538 Q1780 58.1548 1780 49.9314 M1754.64 34.0924 Q1756.99 30.0415 1760.56 28.0971 Q1764.16 26.1121 1769.15 26.1121 Q1777.41 26.1121 1782.56 32.6746 Q1787.74 39.2371 1787.74 49.9314 Q1787.74 60.6258 1782.56 67.1883 Q1777.41 73.7508 1769.15 73.7508 Q1764.16 73.7508 1760.56 71.8063 Q1756.99 69.8214 1754.64 65.7705 L1754.64 72.576 L1747.15 72.576 L1747.15 9.54393 L1754.64 9.54393 L1754.64 34.0924 Z" fill="#000000" fill-rule="evenodd" fill-opacity="1" /><path clip-path="url(#clip450)" d="M1838.9 48.0275 L1838.9 51.6733 L1804.63 51.6733 Q1805.12 59.3701 1809.25 63.421 Q1813.42 67.4314 1820.84 67.4314 Q1825.13 67.4314 1829.14 66.3781 Q1833.19 65.3249 1837.16 63.2184 L1837.16 70.267 Q1833.15 71.9684 1828.94 72.8596 Q1824.73 73.7508 1820.39 73.7508 Q1809.53 73.7508 1803.17 67.4314 Q1796.86 61.1119 1796.86 50.3365 Q1796.86 39.1965 1802.85 32.6746 Q1808.89 26.1121 1819.09 26.1121 Q1828.25 26.1121 1833.56 32.0264 Q1838.9 37.9003 1838.9 48.0275 M1831.45 45.84 Q1831.37 39.7232 1828.01 36.0774 Q1824.68 32.4315 1819.18 32.4315 Q1812.94 32.4315 1809.17 35.9558 Q1805.44 39.4801 1804.88 45.8805 L1831.45 45.84 Z" fill="#000000" fill-rule="evenodd" fill-opacity="1" /><path clip-path="url(#clip450)" d="M1877.43 34.1734 Q1876.17 33.4443 1874.67 33.1202 Q1873.21 32.7556 1871.43 32.7556 Q1865.11 32.7556 1861.71 36.8875 Q1858.35 40.9789 1858.35 48.6757 L1858.35 72.576 L1850.85 72.576 L1850.85 27.2059 L1858.35 27.2059 L1858.35 34.2544 Q1860.7 30.1225 1864.46 28.1376 Q1868.23 26.1121 1873.62 26.1121 Q1874.39 26.1121 1875.32 26.2337 Q1876.25 26.3147 1877.39 26.5172 L1877.43 34.1734 Z" fill="#000000" fill-rule="evenodd" fill-opacity="1" /><path clip-path="url(#clip450)" d="M1914.17 28.5427 L1914.17 35.5912 Q1911.01 33.9709 1907.61 33.1607 Q1904.2 32.3505 1900.56 32.3505 Q1895.01 32.3505 1892.21 34.0519 Q1889.46 35.7533 1889.46 39.156 Q1889.46 41.7486 1891.44 43.2475 Q1893.43 44.7058 1899.42 46.0426 L1901.98 46.6097 Q1909.92 48.3111 1913.24 51.4303 Q1916.6 54.509 1916.6 60.0587 Q1916.6 66.3781 1911.58 70.0644 Q1906.59 73.7508 1897.84 73.7508 Q1894.2 73.7508 1890.23 73.0216 Q1886.3 72.3329 1881.92 70.9151 L1881.92 63.2184 Q1886.06 65.3654 1890.07 66.4591 Q1894.08 67.5124 1898.01 67.5124 Q1903.27 67.5124 1906.11 65.73 Q1908.94 63.9071 1908.94 60.6258 Q1908.94 57.5877 1906.88 55.9673 Q1904.85 54.3469 1897.93 52.8481 L1895.33 52.2405 Q1888.41 50.7821 1885.33 47.7845 Q1882.25 44.7463 1882.25 39.4801 Q1882.25 33.0797 1886.79 29.5959 Q1891.32 26.1121 1899.67 26.1121 Q1903.8 26.1121 1907.44 26.7198 Q1911.09 27.3274 1914.17 28.5427 Z" fill="#000000" fill-rule="evenodd" fill-opacity="1" /><polyline clip-path="url(#clip452)" style="stroke:#009af9; stroke-linecap:butt; stroke-linejoin:round; stroke-width:12; stroke-opacity:1; fill:none" points="
  220.456,1447.87 294.392,1410.96 368.327,1398.41 442.263,1381.43 516.198,1360.09 590.134,1333.91 664.069,1302.55 738.005,1266.12 811.94,1225.27 885.876,1180.98 
  959.811,1134.2 1033.75,1085.68 1107.68,1035.91 1181.62,985.173 1255.55,933.65 1329.49,881.434 1403.42,828.593 1477.36,775.179 1551.3,721.244 1625.23,666.835 
  1699.17,611.996 1773.1,556.768 1847.04,501.188 1920.97,445.289 1994.91,389.104 2068.84,332.66 2142.78,275.983 2216.71,219.104 2290.65,162.047 
  "/>
<line clip-path="url(#clip452)" x1="220.456" y1="1447.87" x2="220.456" y2="1431.87" style="stroke:#009af9; stroke-width:3.2; stroke-opacity:1"/>
<line clip-path="url(#clip452)" x1="220.456" y1="1447.87" x2="204.456" y2="1447.87" style="stroke:#009af9; stroke-width:3.2; stroke-opacity:1"/>
<line clip-path="url(#clip452)" x1="220.456" y1="1447.87" x2="220.456" y2="1463.87" style="stroke:#009af9; stroke-width:3.2; stroke-opacity:1"/>
<line clip-path="url(#clip452)" x1="220.456" y1="1447.87" x2="236.456" y2="1447.87" style="stroke:#009af9; stroke-width:3.2; stroke-opacity:1"/>
<line clip-path="url(#clip452)" x1="294.392" y1="1410.96" x2="294.392" y2="1394.96" style="stroke:#009af9; stroke-width:3.2; stroke-opacity:1"/>
<line clip-path="url(#clip452)" x1="294.392" y1="1410.96" x2="278.392" y2="1410.96" style="stroke:#009af9; stroke-width:3.2; stroke-opacity:1"/>
<line clip-path="url(#clip452)" x1="294.392" y1="1410.96" x2="294.392" y2="1426.96" style="stroke:#009af9; stroke-width:3.2; stroke-opacity:1"/>
<line clip-path="url(#clip452)" x1="294.392" y1="1410.96" x2="310.392" y2="1410.96" style="stroke:#009af9; stroke-width:3.2; stroke-opacity:1"/>
<line clip-path="url(#clip452)" x1="368.327" y1="1398.41" x2="368.327" y2="1382.41" style="stroke:#009af9; stroke-width:3.2; stroke-opacity:1"/>
<line clip-path="url(#clip452)" x1="368.327" y1="1398.41" x2="352.327" y2="1398.41" style="stroke:#009af9; stroke-width:3.2; stroke-opacity:1"/>
<line clip-path="url(#clip452)" x1="368.327" y1="1398.41" x2="368.327" y2="1414.41" style="stroke:#009af9; stroke-width:3.2; stroke-opacity:1"/>
<line clip-path="url(#clip452)" x1="368.327" y1="1398.41" x2="384.327" y2="1398.41" style="stroke:#009af9; stroke-width:3.2; stroke-opacity:1"/>
<line clip-path="url(#clip452)" x1="442.263" y1="1381.43" x2="442.263" y2="1365.43" style="stroke:#009af9; stroke-width:3.2; stroke-opacity:1"/>
<line clip-path="url(#clip452)" x1="442.263" y1="1381.43" x2="426.263" y2="1381.43" style="stroke:#009af9; stroke-width:3.2; stroke-opacity:1"/>
<line clip-path="url(#clip452)" x1="442.263" y1="1381.43" x2="442.263" y2="1397.43" style="stroke:#009af9; stroke-width:3.2; stroke-opacity:1"/>
<line clip-path="url(#clip452)" x1="442.263" y1="1381.43" x2="458.263" y2="1381.43" style="stroke:#009af9; stroke-width:3.2; stroke-opacity:1"/>
<line clip-path="url(#clip452)" x1="516.198" y1="1360.09" x2="516.198" y2="1344.09" style="stroke:#009af9; stroke-width:3.2; stroke-opacity:1"/>
<line clip-path="url(#clip452)" x1="516.198" y1="1360.09" x2="500.198" y2="1360.09" style="stroke:#009af9; stroke-width:3.2; stroke-opacity:1"/>
<line clip-path="url(#clip452)" x1="516.198" y1="1360.09" x2="516.198" y2="1376.09" style="stroke:#009af9; stroke-width:3.2; stroke-opacity:1"/>
<line clip-path="url(#clip452)" x1="516.198" y1="1360.09" x2="532.198" y2="1360.09" style="stroke:#009af9; stroke-width:3.2; stroke-opacity:1"/>
<line clip-path="url(#clip452)" x1="590.134" y1="1333.91" x2="590.134" y2="1317.91" style="stroke:#009af9; stroke-width:3.2; stroke-opacity:1"/>
<line clip-path="url(#clip452)" x1="590.134" y1="1333.91" x2="574.134" y2="1333.91" style="stroke:#009af9; stroke-width:3.2; stroke-opacity:1"/>
<line clip-path="url(#clip452)" x1="590.134" y1="1333.91" x2="590.134" y2="1349.91" style="stroke:#009af9; stroke-width:3.2; stroke-opacity:1"/>
<line clip-path="url(#clip452)" x1="590.134" y1="1333.91" x2="606.134" y2="1333.91" style="stroke:#009af9; stroke-width:3.2; stroke-opacity:1"/>
<line clip-path="url(#clip452)" x1="664.069" y1="1302.55" x2="664.069" y2="1286.55" style="stroke:#009af9; stroke-width:3.2; stroke-opacity:1"/>
<line clip-path="url(#clip452)" x1="664.069" y1="1302.55" x2="648.069" y2="1302.55" style="stroke:#009af9; stroke-width:3.2; stroke-opacity:1"/>
<line clip-path="url(#clip452)" x1="664.069" y1="1302.55" x2="664.069" y2="1318.55" style="stroke:#009af9; stroke-width:3.2; stroke-opacity:1"/>
<line clip-path="url(#clip452)" x1="664.069" y1="1302.55" x2="680.069" y2="1302.55" style="stroke:#009af9; stroke-width:3.2; stroke-opacity:1"/>
<line clip-path="url(#clip452)" x1="738.005" y1="1266.12" x2="738.005" y2="1250.12" style="stroke:#009af9; stroke-width:3.2; stroke-opacity:1"/>
<line clip-path="url(#clip452)" x1="738.005" y1="1266.12" x2="722.005" y2="1266.12" style="stroke:#009af9; stroke-width:3.2; stroke-opacity:1"/>
<line clip-path="url(#clip452)" x1="738.005" y1="1266.12" x2="738.005" y2="1282.12" style="stroke:#009af9; stroke-width:3.2; stroke-opacity:1"/>
<line clip-path="url(#clip452)" x1="738.005" y1="1266.12" x2="754.005" y2="1266.12" style="stroke:#009af9; stroke-width:3.2; stroke-opacity:1"/>
<line clip-path="url(#clip452)" x1="811.94" y1="1225.27" x2="811.94" y2="1209.27" style="stroke:#009af9; stroke-width:3.2; stroke-opacity:1"/>
<line clip-path="url(#clip452)" x1="811.94" y1="1225.27" x2="795.94" y2="1225.27" style="stroke:#009af9; stroke-width:3.2; stroke-opacity:1"/>
<line clip-path="url(#clip452)" x1="811.94" y1="1225.27" x2="811.94" y2="1241.27" style="stroke:#009af9; stroke-width:3.2; stroke-opacity:1"/>
<line clip-path="url(#clip452)" x1="811.94" y1="1225.27" x2="827.94" y2="1225.27" style="stroke:#009af9; stroke-width:3.2; stroke-opacity:1"/>
<line clip-path="url(#clip452)" x1="885.876" y1="1180.98" x2="885.876" y2="1164.98" style="stroke:#009af9; stroke-width:3.2; stroke-opacity:1"/>
<line clip-path="url(#clip452)" x1="885.876" y1="1180.98" x2="869.876" y2="1180.98" style="stroke:#009af9; stroke-width:3.2; stroke-opacity:1"/>
<line clip-path="url(#clip452)" x1="885.876" y1="1180.98" x2="885.876" y2="1196.98" style="stroke:#009af9; stroke-width:3.2; stroke-opacity:1"/>
<line clip-path="url(#clip452)" x1="885.876" y1="1180.98" x2="901.876" y2="1180.98" style="stroke:#009af9; stroke-width:3.2; stroke-opacity:1"/>
<line clip-path="url(#clip452)" x1="959.811" y1="1134.2" x2="959.811" y2="1118.2" style="stroke:#009af9; stroke-width:3.2; stroke-opacity:1"/>
<line clip-path="url(#clip452)" x1="959.811" y1="1134.2" x2="943.811" y2="1134.2" style="stroke:#009af9; stroke-width:3.2; stroke-opacity:1"/>
<line clip-path="url(#clip452)" x1="959.811" y1="1134.2" x2="959.811" y2="1150.2" style="stroke:#009af9; stroke-width:3.2; stroke-opacity:1"/>
<line clip-path="url(#clip452)" x1="959.811" y1="1134.2" x2="975.811" y2="1134.2" style="stroke:#009af9; stroke-width:3.2; stroke-opacity:1"/>
<line clip-path="url(#clip452)" x1="1033.75" y1="1085.68" x2="1033.75" y2="1069.68" style="stroke:#009af9; stroke-width:3.2; stroke-opacity:1"/>
<line clip-path="url(#clip452)" x1="1033.75" y1="1085.68" x2="1017.75" y2="1085.68" style="stroke:#009af9; stroke-width:3.2; stroke-opacity:1"/>
<line clip-path="url(#clip452)" x1="1033.75" y1="1085.68" x2="1033.75" y2="1101.68" style="stroke:#009af9; stroke-width:3.2; stroke-opacity:1"/>
<line clip-path="url(#clip452)" x1="1033.75" y1="1085.68" x2="1049.75" y2="1085.68" style="stroke:#009af9; stroke-width:3.2; stroke-opacity:1"/>
<line clip-path="url(#clip452)" x1="1107.68" y1="1035.91" x2="1107.68" y2="1019.91" style="stroke:#009af9; stroke-width:3.2; stroke-opacity:1"/>
<line clip-path="url(#clip452)" x1="1107.68" y1="1035.91" x2="1091.68" y2="1035.91" style="stroke:#009af9; stroke-width:3.2; stroke-opacity:1"/>
<line clip-path="url(#clip452)" x1="1107.68" y1="1035.91" x2="1107.68" y2="1051.91" style="stroke:#009af9; stroke-width:3.2; stroke-opacity:1"/>
<line clip-path="url(#clip452)" x1="1107.68" y1="1035.91" x2="1123.68" y2="1035.91" style="stroke:#009af9; stroke-width:3.2; stroke-opacity:1"/>
<line clip-path="url(#clip452)" x1="1181.62" y1="985.173" x2="1181.62" y2="969.173" style="stroke:#009af9; stroke-width:3.2; stroke-opacity:1"/>
<line clip-path="url(#clip452)" x1="1181.62" y1="985.173" x2="1165.62" y2="985.173" style="stroke:#009af9; stroke-width:3.2; stroke-opacity:1"/>
<line clip-path="url(#clip452)" x1="1181.62" y1="985.173" x2="1181.62" y2="1001.17" style="stroke:#009af9; stroke-width:3.2; stroke-opacity:1"/>
<line clip-path="url(#clip452)" x1="1181.62" y1="985.173" x2="1197.62" y2="985.173" style="stroke:#009af9; stroke-width:3.2; stroke-opacity:1"/>
<line clip-path="url(#clip452)" x1="1255.55" y1="933.65" x2="1255.55" y2="917.65" style="stroke:#009af9; stroke-width:3.2; stroke-opacity:1"/>
<line clip-path="url(#clip452)" x1="1255.55" y1="933.65" x2="1239.55" y2="933.65" style="stroke:#009af9; stroke-width:3.2; stroke-opacity:1"/>
<line clip-path="url(#clip452)" x1="1255.55" y1="933.65" x2="1255.55" y2="949.65" style="stroke:#009af9; stroke-width:3.2; stroke-opacity:1"/>
<line clip-path="url(#clip452)" x1="1255.55" y1="933.65" x2="1271.55" y2="933.65" style="stroke:#009af9; stroke-width:3.2; stroke-opacity:1"/>
<line clip-path="url(#clip452)" x1="1329.49" y1="881.434" x2="1329.49" y2="865.434" style="stroke:#009af9; stroke-width:3.2; stroke-opacity:1"/>
<line clip-path="url(#clip452)" x1="1329.49" y1="881.434" x2="1313.49" y2="881.434" style="stroke:#009af9; stroke-width:3.2; stroke-opacity:1"/>
<line clip-path="url(#clip452)" x1="1329.49" y1="881.434" x2="1329.49" y2="897.434" style="stroke:#009af9; stroke-width:3.2; stroke-opacity:1"/>
<line clip-path="url(#clip452)" x1="1329.49" y1="881.434" x2="1345.49" y2="881.434" style="stroke:#009af9; stroke-width:3.2; stroke-opacity:1"/>
<line clip-path="url(#clip452)" x1="1403.42" y1="828.593" x2="1403.42" y2="812.593" style="stroke:#009af9; stroke-width:3.2; stroke-opacity:1"/>
<line clip-path="url(#clip452)" x1="1403.42" y1="828.593" x2="1387.42" y2="828.593" style="stroke:#009af9; stroke-width:3.2; stroke-opacity:1"/>
<line clip-path="url(#clip452)" x1="1403.42" y1="828.593" x2="1403.42" y2="844.593" style="stroke:#009af9; stroke-width:3.2; stroke-opacity:1"/>
<line clip-path="url(#clip452)" x1="1403.42" y1="828.593" x2="1419.42" y2="828.593" style="stroke:#009af9; stroke-width:3.2; stroke-opacity:1"/>
<line clip-path="url(#clip452)" x1="1477.36" y1="775.179" x2="1477.36" y2="759.179" style="stroke:#009af9; stroke-width:3.2; stroke-opacity:1"/>
<line clip-path="url(#clip452)" x1="1477.36" y1="775.179" x2="1461.36" y2="775.179" style="stroke:#009af9; stroke-width:3.2; stroke-opacity:1"/>
<line clip-path="url(#clip452)" x1="1477.36" y1="775.179" x2="1477.36" y2="791.179" style="stroke:#009af9; stroke-width:3.2; stroke-opacity:1"/>
<line clip-path="url(#clip452)" x1="1477.36" y1="775.179" x2="1493.36" y2="775.179" style="stroke:#009af9; stroke-width:3.2; stroke-opacity:1"/>
<line clip-path="url(#clip452)" x1="1551.3" y1="721.244" x2="1551.3" y2="705.244" style="stroke:#009af9; stroke-width:3.2; stroke-opacity:1"/>
<line clip-path="url(#clip452)" x1="1551.3" y1="721.244" x2="1535.3" y2="721.244" style="stroke:#009af9; stroke-width:3.2; stroke-opacity:1"/>
<line clip-path="url(#clip452)" x1="1551.3" y1="721.244" x2="1551.3" y2="737.244" style="stroke:#009af9; stroke-width:3.2; stroke-opacity:1"/>
<line clip-path="url(#clip452)" x1="1551.3" y1="721.244" x2="1567.3" y2="721.244" style="stroke:#009af9; stroke-width:3.2; stroke-opacity:1"/>
<line clip-path="url(#clip452)" x1="1625.23" y1="666.835" x2="1625.23" y2="650.835" style="stroke:#009af9; stroke-width:3.2; stroke-opacity:1"/>
<line clip-path="url(#clip452)" x1="1625.23" y1="666.835" x2="1609.23" y2="666.835" style="stroke:#009af9; stroke-width:3.2; stroke-opacity:1"/>
<line clip-path="url(#clip452)" x1="1625.23" y1="666.835" x2="1625.23" y2="682.835" style="stroke:#009af9; stroke-width:3.2; stroke-opacity:1"/>
<line clip-path="url(#clip452)" x1="1625.23" y1="666.835" x2="1641.23" y2="666.835" style="stroke:#009af9; stroke-width:3.2; stroke-opacity:1"/>
<line clip-path="url(#clip452)" x1="1699.17" y1="611.996" x2="1699.17" y2="595.996" style="stroke:#009af9; stroke-width:3.2; stroke-opacity:1"/>
<line clip-path="url(#clip452)" x1="1699.17" y1="611.996" x2="1683.17" y2="611.996" style="stroke:#009af9; stroke-width:3.2; stroke-opacity:1"/>
<line clip-path="url(#clip452)" x1="1699.17" y1="611.996" x2="1699.17" y2="627.996" style="stroke:#009af9; stroke-width:3.2; stroke-opacity:1"/>
<line clip-path="url(#clip452)" x1="1699.17" y1="611.996" x2="1715.17" y2="611.996" style="stroke:#009af9; stroke-width:3.2; stroke-opacity:1"/>
<line clip-path="url(#clip452)" x1="1773.1" y1="556.768" x2="1773.1" y2="540.768" style="stroke:#009af9; stroke-width:3.2; stroke-opacity:1"/>
<line clip-path="url(#clip452)" x1="1773.1" y1="556.768" x2="1757.1" y2="556.768" style="stroke:#009af9; stroke-width:3.2; stroke-opacity:1"/>
<line clip-path="url(#clip452)" x1="1773.1" y1="556.768" x2="1773.1" y2="572.768" style="stroke:#009af9; stroke-width:3.2; stroke-opacity:1"/>
<line clip-path="url(#clip452)" x1="1773.1" y1="556.768" x2="1789.1" y2="556.768" style="stroke:#009af9; stroke-width:3.2; stroke-opacity:1"/>
<line clip-path="url(#clip452)" x1="1847.04" y1="501.188" x2="1847.04" y2="485.188" style="stroke:#009af9; stroke-width:3.2; stroke-opacity:1"/>
<line clip-path="url(#clip452)" x1="1847.04" y1="501.188" x2="1831.04" y2="501.188" style="stroke:#009af9; stroke-width:3.2; stroke-opacity:1"/>
<line clip-path="url(#clip452)" x1="1847.04" y1="501.188" x2="1847.04" y2="517.188" style="stroke:#009af9; stroke-width:3.2; stroke-opacity:1"/>
<line clip-path="url(#clip452)" x1="1847.04" y1="501.188" x2="1863.04" y2="501.188" style="stroke:#009af9; stroke-width:3.2; stroke-opacity:1"/>
<line clip-path="url(#clip452)" x1="1920.97" y1="445.289" x2="1920.97" y2="429.289" style="stroke:#009af9; stroke-width:3.2; stroke-opacity:1"/>
<line clip-path="url(#clip452)" x1="1920.97" y1="445.289" x2="1904.97" y2="445.289" style="stroke:#009af9; stroke-width:3.2; stroke-opacity:1"/>
<line clip-path="url(#clip452)" x1="1920.97" y1="445.289" x2="1920.97" y2="461.289" style="stroke:#009af9; stroke-width:3.2; stroke-opacity:1"/>
<line clip-path="url(#clip452)" x1="1920.97" y1="445.289" x2="1936.97" y2="445.289" style="stroke:#009af9; stroke-width:3.2; stroke-opacity:1"/>
<line clip-path="url(#clip452)" x1="1994.91" y1="389.104" x2="1994.91" y2="373.104" style="stroke:#009af9; stroke-width:3.2; stroke-opacity:1"/>
<line clip-path="url(#clip452)" x1="1994.91" y1="389.104" x2="1978.91" y2="389.104" style="stroke:#009af9; stroke-width:3.2; stroke-opacity:1"/>
<line clip-path="url(#clip452)" x1="1994.91" y1="389.104" x2="1994.91" y2="405.104" style="stroke:#009af9; stroke-width:3.2; stroke-opacity:1"/>
<line clip-path="url(#clip452)" x1="1994.91" y1="389.104" x2="2010.91" y2="389.104" style="stroke:#009af9; stroke-width:3.2; stroke-opacity:1"/>
<line clip-path="url(#clip452)" x1="2068.84" y1="332.66" x2="2068.84" y2="316.66" style="stroke:#009af9; stroke-width:3.2; stroke-opacity:1"/>
<line clip-path="url(#clip452)" x1="2068.84" y1="332.66" x2="2052.84" y2="332.66" style="stroke:#009af9; stroke-width:3.2; stroke-opacity:1"/>
<line clip-path="url(#clip452)" x1="2068.84" y1="332.66" x2="2068.84" y2="348.66" style="stroke:#009af9; stroke-width:3.2; stroke-opacity:1"/>
<line clip-path="url(#clip452)" x1="2068.84" y1="332.66" x2="2084.84" y2="332.66" style="stroke:#009af9; stroke-width:3.2; stroke-opacity:1"/>
<line clip-path="url(#clip452)" x1="2142.78" y1="275.983" x2="2142.78" y2="259.983" style="stroke:#009af9; stroke-width:3.2; stroke-opacity:1"/>
<line clip-path="url(#clip452)" x1="2142.78" y1="275.983" x2="2126.78" y2="275.983" style="stroke:#009af9; stroke-width:3.2; stroke-opacity:1"/>
<line clip-path="url(#clip452)" x1="2142.78" y1="275.983" x2="2142.78" y2="291.983" style="stroke:#009af9; stroke-width:3.2; stroke-opacity:1"/>
<line clip-path="url(#clip452)" x1="2142.78" y1="275.983" x2="2158.78" y2="275.983" style="stroke:#009af9; stroke-width:3.2; stroke-opacity:1"/>
<line clip-path="url(#clip452)" x1="2216.71" y1="219.104" x2="2216.71" y2="203.104" style="stroke:#009af9; stroke-width:3.2; stroke-opacity:1"/>
<line clip-path="url(#clip452)" x1="2216.71" y1="219.104" x2="2200.71" y2="219.104" style="stroke:#009af9; stroke-width:3.2; stroke-opacity:1"/>
<line clip-path="url(#clip452)" x1="2216.71" y1="219.104" x2="2216.71" y2="235.104" style="stroke:#009af9; stroke-width:3.2; stroke-opacity:1"/>
<line clip-path="url(#clip452)" x1="2216.71" y1="219.104" x2="2232.71" y2="219.104" style="stroke:#009af9; stroke-width:3.2; stroke-opacity:1"/>
<line clip-path="url(#clip452)" x1="2290.65" y1="162.047" x2="2290.65" y2="146.047" style="stroke:#009af9; stroke-width:3.2; stroke-opacity:1"/>
<line clip-path="url(#clip452)" x1="2290.65" y1="162.047" x2="2274.65" y2="162.047" style="stroke:#009af9; stroke-width:3.2; stroke-opacity:1"/>
<line clip-path="url(#clip452)" x1="2290.65" y1="162.047" x2="2290.65" y2="178.047" style="stroke:#009af9; stroke-width:3.2; stroke-opacity:1"/>
<line clip-path="url(#clip452)" x1="2290.65" y1="162.047" x2="2306.65" y2="162.047" style="stroke:#009af9; stroke-width:3.2; stroke-opacity:1"/>
<polyline clip-path="url(#clip452)" style="stroke:#e26f46; stroke-linecap:butt; stroke-linejoin:round; stroke-width:12; stroke-opacity:1; fill:none" points="
  220.456,1447.87 294.392,1410.96 368.327,1396.23 442.263,1392.64 516.198,1388.45 590.134,1386.56 664.069,1384.86 738.005,1384.3 811.94,1384.04 885.876,1384.48 
  959.811,1385.18 1033.75,1386.29 1107.68,1387.54 1181.62,1388.98 1255.55,1390.42 1329.49,1391.84 1403.42,1393.08 1477.36,1394.08 1551.3,1394.65 1625.23,1394.66 
  1699.17,1393.87 1773.1,1392.11 1847.04,1389.17 1920.97,1384.95 1994.91,1379.31 2068.84,1372.18 2142.78,1363.4 2216.71,1352.88 2290.65,1340.47 
  "/>
<circle clip-path="url(#clip452)" cx="220.456" cy="1447.87" r="14.4" fill="#e26f46" fill-rule="evenodd" fill-opacity="1" stroke="#000000" stroke-opacity="1" stroke-width="3.2"/>
<circle clip-path="url(#clip452)" cx="294.392" cy="1410.96" r="14.4" fill="#e26f46" fill-rule="evenodd" fill-opacity="1" stroke="#000000" stroke-opacity="1" stroke-width="3.2"/>
<circle clip-path="url(#clip452)" cx="368.327" cy="1396.23" r="14.4" fill="#e26f46" fill-rule="evenodd" fill-opacity="1" stroke="#000000" stroke-opacity="1" stroke-width="3.2"/>
<circle clip-path="url(#clip452)" cx="442.263" cy="1392.64" r="14.4" fill="#e26f46" fill-rule="evenodd" fill-opacity="1" stroke="#000000" stroke-opacity="1" stroke-width="3.2"/>
<circle clip-path="url(#clip452)" cx="516.198" cy="1388.45" r="14.4" fill="#e26f46" fill-rule="evenodd" fill-opacity="1" stroke="#000000" stroke-opacity="1" stroke-width="3.2"/>
<circle clip-path="url(#clip452)" cx="590.134" cy="1386.56" r="14.4" fill="#e26f46" fill-rule="evenodd" fill-opacity="1" stroke="#000000" stroke-opacity="1" stroke-width="3.2"/>
<circle clip-path="url(#clip452)" cx="664.069" cy="1384.86" r="14.4" fill="#e26f46" fill-rule="evenodd" fill-opacity="1" stroke="#000000" stroke-opacity="1" stroke-width="3.2"/>
<circle clip-path="url(#clip452)" cx="738.005" cy="1384.3" r="14.4" fill="#e26f46" fill-rule="evenodd" fill-opacity="1" stroke="#000000" stroke-opacity="1" stroke-width="3.2"/>
<circle clip-path="url(#clip452)" cx="811.94" cy="1384.04" r="14.4" fill="#e26f46" fill-rule="evenodd" fill-opacity="1" stroke="#000000" stroke-opacity="1" stroke-width="3.2"/>
<circle clip-path="url(#clip452)" cx="885.876" cy="1384.48" r="14.4" fill="#e26f46" fill-rule="evenodd" fill-opacity="1" stroke="#000000" stroke-opacity="1" stroke-width="3.2"/>
<circle clip-path="url(#clip452)" cx="959.811" cy="1385.18" r="14.4" fill="#e26f46" fill-rule="evenodd" fill-opacity="1" stroke="#000000" stroke-opacity="1" stroke-width="3.2"/>
<circle clip-path="url(#clip452)" cx="1033.75" cy="1386.29" r="14.4" fill="#e26f46" fill-rule="evenodd" fill-opacity="1" stroke="#000000" stroke-opacity="1" stroke-width="3.2"/>
<circle clip-path="url(#clip452)" cx="1107.68" cy="1387.54" r="14.4" fill="#e26f46" fill-rule="evenodd" fill-opacity="1" stroke="#000000" stroke-opacity="1" stroke-width="3.2"/>
<circle clip-path="url(#clip452)" cx="1181.62" cy="1388.98" r="14.4" fill="#e26f46" fill-rule="evenodd" fill-opacity="1" stroke="#000000" stroke-opacity="1" stroke-width="3.2"/>
<circle clip-path="url(#clip452)" cx="1255.55" cy="1390.42" r="14.4" fill="#e26f46" fill-rule="evenodd" fill-opacity="1" stroke="#000000" stroke-opacity="1" stroke-width="3.2"/>
<circle clip-path="url(#clip452)" cx="1329.49" cy="1391.84" r="14.4" fill="#e26f46" fill-rule="evenodd" fill-opacity="1" stroke="#000000" stroke-opacity="1" stroke-width="3.2"/>
<circle clip-path="url(#clip452)" cx="1403.42" cy="1393.08" r="14.4" fill="#e26f46" fill-rule="evenodd" fill-opacity="1" stroke="#000000" stroke-opacity="1" stroke-width="3.2"/>
<circle clip-path="url(#clip452)" cx="1477.36" cy="1394.08" r="14.4" fill="#e26f46" fill-rule="evenodd" fill-opacity="1" stroke="#000000" stroke-opacity="1" stroke-width="3.2"/>
<circle clip-path="url(#clip452)" cx="1551.3" cy="1394.65" r="14.4" fill="#e26f46" fill-rule="evenodd" fill-opacity="1" stroke="#000000" stroke-opacity="1" stroke-width="3.2"/>
<circle clip-path="url(#clip452)" cx="1625.23" cy="1394.66" r="14.4" fill="#e26f46" fill-rule="evenodd" fill-opacity="1" stroke="#000000" stroke-opacity="1" stroke-width="3.2"/>
<circle clip-path="url(#clip452)" cx="1699.17" cy="1393.87" r="14.4" fill="#e26f46" fill-rule="evenodd" fill-opacity="1" stroke="#000000" stroke-opacity="1" stroke-width="3.2"/>
<circle clip-path="url(#clip452)" cx="1773.1" cy="1392.11" r="14.4" fill="#e26f46" fill-rule="evenodd" fill-opacity="1" stroke="#000000" stroke-opacity="1" stroke-width="3.2"/>
<circle clip-path="url(#clip452)" cx="1847.04" cy="1389.17" r="14.4" fill="#e26f46" fill-rule="evenodd" fill-opacity="1" stroke="#000000" stroke-opacity="1" stroke-width="3.2"/>
<circle clip-path="url(#clip452)" cx="1920.97" cy="1384.95" r="14.4" fill="#e26f46" fill-rule="evenodd" fill-opacity="1" stroke="#000000" stroke-opacity="1" stroke-width="3.2"/>
<circle clip-path="url(#clip452)" cx="1994.91" cy="1379.31" r="14.4" fill="#e26f46" fill-rule="evenodd" fill-opacity="1" stroke="#000000" stroke-opacity="1" stroke-width="3.2"/>
<circle clip-path="url(#clip452)" cx="2068.84" cy="1372.18" r="14.4" fill="#e26f46" fill-rule="evenodd" fill-opacity="1" stroke="#000000" stroke-opacity="1" stroke-width="3.2"/>
<circle clip-path="url(#clip452)" cx="2142.78" cy="1363.4" r="14.4" fill="#e26f46" fill-rule="evenodd" fill-opacity="1" stroke="#000000" stroke-opacity="1" stroke-width="3.2"/>
<circle clip-path="url(#clip452)" cx="2216.71" cy="1352.88" r="14.4" fill="#e26f46" fill-rule="evenodd" fill-opacity="1" stroke="#000000" stroke-opacity="1" stroke-width="3.2"/>
<circle clip-path="url(#clip452)" cx="2290.65" cy="1340.47" r="14.4" fill="#e26f46" fill-rule="evenodd" fill-opacity="1" stroke="#000000" stroke-opacity="1" stroke-width="3.2"/>
<path clip-path="url(#clip450)" d="
M1530.21 324.425 L2279.61 324.425 L2279.61 168.905 L1530.21 168.905  Z
  " fill="#ffffff" fill-rule="evenodd" fill-opacity="1"/>
<polyline clip-path="url(#clip450)" style="stroke:#000000; stroke-linecap:butt; stroke-linejoin:round; stroke-width:4; stroke-opacity:1; fill:none" points="
  1530.21,324.425 2279.61,324.425 2279.61,168.905 1530.21,168.905 1530.21,324.425 
  "/>
<polyline clip-path="url(#clip450)" style="stroke:#009af9; stroke-linecap:butt; stroke-linejoin:round; stroke-width:4; stroke-opacity:1; fill:none" points="
  1554.59,220.745 1700.89,220.745 
  "/>
<line clip-path="url(#clip450)" x1="1627.74" y1="220.745" x2="1627.74" y2="195.145" style="stroke:#009af9; stroke-width:5.12; stroke-opacity:1"/>
<line clip-path="url(#clip450)" x1="1627.74" y1="220.745" x2="1602.14" y2="220.745" style="stroke:#009af9; stroke-width:5.12; stroke-opacity:1"/>
<line clip-path="url(#clip450)" x1="1627.74" y1="220.745" x2="1627.74" y2="246.345" style="stroke:#009af9; stroke-width:5.12; stroke-opacity:1"/>
<line clip-path="url(#clip450)" x1="1627.74" y1="220.745" x2="1653.34" y2="220.745" style="stroke:#009af9; stroke-width:5.12; stroke-opacity:1"/>
<path clip-path="url(#clip450)" d="M1725.27 212.099 L1729.53 212.099 L1729.53 238.025 L1725.27 238.025 L1725.27 212.099 M1725.27 202.006 L1729.53 202.006 L1729.53 207.4 L1725.27 207.4 L1725.27 202.006 Z" fill="#000000" fill-rule="evenodd" fill-opacity="1" /><path clip-path="url(#clip450)" d="M1759.99 222.377 L1759.99 238.025 L1755.73 238.025 L1755.73 222.515 Q1755.73 218.835 1754.3 217.006 Q1752.86 215.178 1749.99 215.178 Q1746.54 215.178 1744.55 217.377 Q1742.56 219.576 1742.56 223.372 L1742.56 238.025 L1738.28 238.025 L1738.28 212.099 L1742.56 212.099 L1742.56 216.127 Q1744.09 213.789 1746.15 212.631 Q1748.23 211.474 1750.94 211.474 Q1755.41 211.474 1757.7 214.252 Q1759.99 217.006 1759.99 222.377 Z" fill="#000000" fill-rule="evenodd" fill-opacity="1" /><path clip-path="url(#clip450)" d="M1772.7 204.738 L1772.7 212.099 L1781.47 212.099 L1781.47 215.409 L1772.7 215.409 L1772.7 229.483 Q1772.7 232.654 1773.56 233.557 Q1774.43 234.46 1777.1 234.46 L1781.47 234.46 L1781.47 238.025 L1777.1 238.025 Q1772.17 238.025 1770.29 236.196 Q1768.42 234.344 1768.42 229.483 L1768.42 215.409 L1765.29 215.409 L1765.29 212.099 L1768.42 212.099 L1768.42 204.738 L1772.7 204.738 Z" fill="#000000" fill-rule="evenodd" fill-opacity="1" /><path clip-path="url(#clip450)" d="M1809.25 223.997 L1809.25 226.08 L1789.67 226.08 Q1789.94 230.478 1792.31 232.793 Q1794.69 235.085 1798.93 235.085 Q1801.38 235.085 1803.67 234.483 Q1805.99 233.881 1808.25 232.677 L1808.25 236.705 Q1805.96 237.677 1803.56 238.187 Q1801.15 238.696 1798.67 238.696 Q1792.47 238.696 1788.83 235.085 Q1785.22 231.474 1785.22 225.316 Q1785.22 218.951 1788.65 215.224 Q1792.1 211.474 1797.93 211.474 Q1803.16 211.474 1806.19 214.853 Q1809.25 218.21 1809.25 223.997 M1804.99 222.747 Q1804.94 219.252 1803.02 217.168 Q1801.12 215.085 1797.98 215.085 Q1794.41 215.085 1792.26 217.099 Q1790.13 219.113 1789.81 222.77 L1804.99 222.747 Z" fill="#000000" fill-rule="evenodd" fill-opacity="1" /><path clip-path="url(#clip450)" d="M1831.26 216.08 Q1830.55 215.664 1829.69 215.478 Q1828.86 215.27 1827.84 215.27 Q1824.23 215.27 1822.28 217.631 Q1820.36 219.969 1820.36 224.367 L1820.36 238.025 L1816.08 238.025 L1816.08 212.099 L1820.36 212.099 L1820.36 216.127 Q1821.7 213.766 1823.86 212.631 Q1826.01 211.474 1829.09 211.474 Q1829.53 211.474 1830.06 211.543 Q1830.59 211.59 1831.24 211.705 L1831.26 216.08 Z" fill="#000000" fill-rule="evenodd" fill-opacity="1" /><path clip-path="url(#clip450)" d="M1839.85 234.136 L1839.85 247.886 L1835.57 247.886 L1835.57 212.099 L1839.85 212.099 L1839.85 216.034 Q1841.19 213.719 1843.23 212.608 Q1845.29 211.474 1848.14 211.474 Q1852.86 211.474 1855.8 215.224 Q1858.76 218.974 1858.76 225.085 Q1858.76 231.196 1855.8 234.946 Q1852.86 238.696 1848.14 238.696 Q1845.29 238.696 1843.23 237.585 Q1841.19 236.451 1839.85 234.136 M1854.34 225.085 Q1854.34 220.386 1852.4 217.724 Q1850.48 215.039 1847.1 215.039 Q1843.72 215.039 1841.77 217.724 Q1839.85 220.386 1839.85 225.085 Q1839.85 229.784 1841.77 232.469 Q1843.72 235.131 1847.1 235.131 Q1850.48 235.131 1852.4 232.469 Q1854.34 229.784 1854.34 225.085 Z" fill="#000000" fill-rule="evenodd" fill-opacity="1" /><path clip-path="url(#clip450)" d="M1875.87 215.085 Q1872.44 215.085 1870.45 217.77 Q1868.46 220.432 1868.46 225.085 Q1868.46 229.738 1870.43 232.423 Q1872.42 235.085 1875.87 235.085 Q1879.27 235.085 1881.26 232.4 Q1883.25 229.715 1883.25 225.085 Q1883.25 220.478 1881.26 217.793 Q1879.27 215.085 1875.87 215.085 M1875.87 211.474 Q1881.43 211.474 1884.6 215.085 Q1887.77 218.696 1887.77 225.085 Q1887.77 231.451 1884.6 235.085 Q1881.43 238.696 1875.87 238.696 Q1870.29 238.696 1867.12 235.085 Q1863.97 231.451 1863.97 225.085 Q1863.97 218.696 1867.12 215.085 Q1870.29 211.474 1875.87 211.474 Z" fill="#000000" fill-rule="evenodd" fill-opacity="1" /><path clip-path="url(#clip450)" d="M1894.83 202.006 L1899.09 202.006 L1899.09 238.025 L1894.83 238.025 L1894.83 202.006 Z" fill="#000000" fill-rule="evenodd" fill-opacity="1" /><path clip-path="url(#clip450)" d="M1919.78 224.992 Q1914.62 224.992 1912.63 226.173 Q1910.64 227.353 1910.64 230.201 Q1910.64 232.469 1912.12 233.812 Q1913.62 235.131 1916.19 235.131 Q1919.74 235.131 1921.86 232.631 Q1924.02 230.108 1924.02 225.941 L1924.02 224.992 L1919.78 224.992 M1928.28 223.233 L1928.28 238.025 L1924.02 238.025 L1924.02 234.089 Q1922.56 236.451 1920.38 237.585 Q1918.21 238.696 1915.06 238.696 Q1911.08 238.696 1908.72 236.474 Q1906.38 234.228 1906.38 230.478 Q1906.38 226.103 1909.3 223.881 Q1912.24 221.659 1918.05 221.659 L1924.02 221.659 L1924.02 221.242 Q1924.02 218.303 1922.07 216.705 Q1920.15 215.085 1916.66 215.085 Q1914.43 215.085 1912.33 215.617 Q1910.22 216.15 1908.28 217.215 L1908.28 213.279 Q1910.61 212.377 1912.81 211.937 Q1915.01 211.474 1917.1 211.474 Q1922.72 211.474 1925.5 214.391 Q1928.28 217.307 1928.28 223.233 Z" fill="#000000" fill-rule="evenodd" fill-opacity="1" /><path clip-path="url(#clip450)" d="M1941.26 204.738 L1941.26 212.099 L1950.04 212.099 L1950.04 215.409 L1941.26 215.409 L1941.26 229.483 Q1941.26 232.654 1942.12 233.557 Q1943 234.46 1945.66 234.46 L1950.04 234.46 L1950.04 238.025 L1945.66 238.025 Q1940.73 238.025 1938.86 236.196 Q1936.98 234.344 1936.98 229.483 L1936.98 215.409 L1933.86 215.409 L1933.86 212.099 L1936.98 212.099 L1936.98 204.738 L1941.26 204.738 Z" fill="#000000" fill-rule="evenodd" fill-opacity="1" /><path clip-path="url(#clip450)" d="M1977.81 223.997 L1977.81 226.08 L1958.23 226.08 Q1958.51 230.478 1960.87 232.793 Q1963.25 235.085 1967.49 235.085 Q1969.94 235.085 1972.23 234.483 Q1974.55 233.881 1976.82 232.677 L1976.82 236.705 Q1974.53 237.677 1972.12 238.187 Q1969.71 238.696 1967.23 238.696 Q1961.03 238.696 1957.4 235.085 Q1953.79 231.474 1953.79 225.316 Q1953.79 218.951 1957.21 215.224 Q1960.66 211.474 1966.49 211.474 Q1971.73 211.474 1974.76 214.853 Q1977.81 218.21 1977.81 223.997 M1973.55 222.747 Q1973.51 219.252 1971.59 217.168 Q1969.69 215.085 1966.54 215.085 Q1962.98 215.085 1960.82 217.099 Q1958.69 219.113 1958.37 222.77 L1973.55 222.747 Z" fill="#000000" fill-rule="evenodd" fill-opacity="1" /><path clip-path="url(#clip450)" d="M1992.37 203.465 L1996.31 203.465 L1984.27 242.423 L1980.34 242.423 L1992.37 203.465 Z" fill="#000000" fill-rule="evenodd" fill-opacity="1" /><path clip-path="url(#clip450)" d="M2000.96 203.465 L2005.64 203.465 L2005.64 234.089 L2022.47 234.089 L2022.47 238.025 L2000.96 238.025 L2000.96 203.465 Z" fill="#000000" fill-rule="evenodd" fill-opacity="1" /><path clip-path="url(#clip450)" d="M2027.19 212.099 L2031.45 212.099 L2031.45 238.025 L2027.19 238.025 L2027.19 212.099 M2027.19 202.006 L2031.45 202.006 L2031.45 207.4 L2027.19 207.4 L2027.19 202.006 Z" fill="#000000" fill-rule="evenodd" fill-opacity="1" /><path clip-path="url(#clip450)" d="M2061.91 222.377 L2061.91 238.025 L2057.65 238.025 L2057.65 222.515 Q2057.65 218.835 2056.22 217.006 Q2054.78 215.178 2051.91 215.178 Q2048.46 215.178 2046.47 217.377 Q2044.48 219.576 2044.48 223.372 L2044.48 238.025 L2040.2 238.025 L2040.2 212.099 L2044.48 212.099 L2044.48 216.127 Q2046.01 213.789 2048.07 212.631 Q2050.15 211.474 2052.86 211.474 Q2057.33 211.474 2059.62 214.252 Q2061.91 217.006 2061.91 222.377 Z" fill="#000000" fill-rule="evenodd" fill-opacity="1" /><path clip-path="url(#clip450)" d="M2086.98 221.821 Q2088.48 222.33 2089.9 223.997 Q2091.33 225.664 2092.77 228.58 L2097.51 238.025 L2092.49 238.025 L2088.07 229.159 Q2086.35 225.687 2084.73 224.553 Q2083.14 223.418 2080.36 223.418 L2075.27 223.418 L2075.27 238.025 L2070.59 238.025 L2070.59 203.465 L2081.15 203.465 Q2087.07 203.465 2089.99 205.941 Q2092.91 208.418 2092.91 213.418 Q2092.91 216.682 2091.38 218.835 Q2089.87 220.988 2086.98 221.821 M2075.27 207.307 L2075.27 219.576 L2081.15 219.576 Q2084.53 219.576 2086.24 218.025 Q2087.97 216.451 2087.97 213.418 Q2087.97 210.386 2086.24 208.858 Q2084.53 207.307 2081.15 207.307 L2075.27 207.307 Z" fill="#000000" fill-rule="evenodd" fill-opacity="1" /><path clip-path="url(#clip450)" d="M2114.09 224.992 Q2108.92 224.992 2106.93 226.173 Q2104.94 227.353 2104.94 230.201 Q2104.94 232.469 2106.42 233.812 Q2107.93 235.131 2110.5 235.131 Q2114.04 235.131 2116.17 232.631 Q2118.32 230.108 2118.32 225.941 L2118.32 224.992 L2114.09 224.992 M2122.58 223.233 L2122.58 238.025 L2118.32 238.025 L2118.32 234.089 Q2116.86 236.451 2114.69 237.585 Q2112.51 238.696 2109.36 238.696 Q2105.38 238.696 2103.02 236.474 Q2100.68 234.228 2100.68 230.478 Q2100.68 226.103 2103.6 223.881 Q2106.54 221.659 2112.35 221.659 L2118.32 221.659 L2118.32 221.242 Q2118.32 218.303 2116.38 216.705 Q2114.46 215.085 2110.96 215.085 Q2108.74 215.085 2106.63 215.617 Q2104.53 216.15 2102.58 217.215 L2102.58 213.279 Q2104.92 212.377 2107.12 211.937 Q2109.32 211.474 2111.4 211.474 Q2117.03 211.474 2119.8 214.391 Q2122.58 217.307 2122.58 223.233 Z" fill="#000000" fill-rule="evenodd" fill-opacity="1" /><path clip-path="url(#clip450)" d="M2152.91 222.377 L2152.91 238.025 L2148.65 238.025 L2148.65 222.515 Q2148.65 218.835 2147.21 217.006 Q2145.78 215.178 2142.91 215.178 Q2139.46 215.178 2137.47 217.377 Q2135.47 219.576 2135.47 223.372 L2135.47 238.025 L2131.19 238.025 L2131.19 212.099 L2135.47 212.099 L2135.47 216.127 Q2137 213.789 2139.06 212.631 Q2141.15 211.474 2143.85 211.474 Q2148.32 211.474 2150.61 214.252 Q2152.91 217.006 2152.91 222.377 Z" fill="#000000" fill-rule="evenodd" fill-opacity="1" /><path clip-path="url(#clip450)" d="M2178.46 224.761 Q2178.46 220.131 2176.54 217.585 Q2174.64 215.039 2171.19 215.039 Q2167.77 215.039 2165.84 217.585 Q2163.95 220.131 2163.95 224.761 Q2163.95 229.367 2165.84 231.914 Q2167.77 234.46 2171.19 234.46 Q2174.64 234.46 2176.54 231.914 Q2178.46 229.367 2178.46 224.761 M2182.72 234.807 Q2182.72 241.427 2179.78 244.645 Q2176.84 247.886 2170.78 247.886 Q2168.53 247.886 2166.54 247.538 Q2164.55 247.214 2162.67 246.52 L2162.67 242.376 Q2164.55 243.395 2166.38 243.881 Q2168.21 244.367 2170.1 244.367 Q2174.29 244.367 2176.38 242.168 Q2178.46 239.992 2178.46 235.571 L2178.46 233.464 Q2177.14 235.756 2175.08 236.89 Q2173.02 238.025 2170.15 238.025 Q2165.38 238.025 2162.47 234.39 Q2159.55 230.756 2159.55 224.761 Q2159.55 218.742 2162.47 215.108 Q2165.38 211.474 2170.15 211.474 Q2173.02 211.474 2175.08 212.608 Q2177.14 213.742 2178.46 216.034 L2178.46 212.099 L2182.72 212.099 L2182.72 234.807 Z" fill="#000000" fill-rule="evenodd" fill-opacity="1" /><path clip-path="url(#clip450)" d="M2213.67 223.997 L2213.67 226.08 L2194.09 226.08 Q2194.36 230.478 2196.72 232.793 Q2199.11 235.085 2203.34 235.085 Q2205.8 235.085 2208.09 234.483 Q2210.4 233.881 2212.67 232.677 L2212.67 236.705 Q2210.38 237.677 2207.97 238.187 Q2205.57 238.696 2203.09 238.696 Q2196.89 238.696 2193.25 235.085 Q2189.64 231.474 2189.64 225.316 Q2189.64 218.951 2193.07 215.224 Q2196.52 211.474 2202.35 211.474 Q2207.58 211.474 2210.61 214.853 Q2213.67 218.21 2213.67 223.997 M2209.41 222.747 Q2209.36 219.252 2207.44 217.168 Q2205.54 215.085 2202.4 215.085 Q2198.83 215.085 2196.68 217.099 Q2194.55 219.113 2194.22 222.77 L2209.41 222.747 Z" fill="#000000" fill-rule="evenodd" fill-opacity="1" /><polyline clip-path="url(#clip450)" style="stroke:#e26f46; stroke-linecap:butt; stroke-linejoin:round; stroke-width:4; stroke-opacity:1; fill:none" points="
  1554.59,272.585 1700.89,272.585 
  "/>
<circle clip-path="url(#clip450)" cx="1627.74" cy="272.585" r="23.04" fill="#e26f46" fill-rule="evenodd" fill-opacity="1" stroke="#000000" stroke-opacity="1" stroke-width="5.12"/>
<path clip-path="url(#clip450)" d="M1725.27 263.939 L1729.53 263.939 L1729.53 289.865 L1725.27 289.865 L1725.27 263.939 M1725.27 253.846 L1729.53 253.846 L1729.53 259.24 L1725.27 259.24 L1725.27 253.846 Z" fill="#000000" fill-rule="evenodd" fill-opacity="1" /><path clip-path="url(#clip450)" d="M1759.99 274.217 L1759.99 289.865 L1755.73 289.865 L1755.73 274.355 Q1755.73 270.675 1754.3 268.846 Q1752.86 267.018 1749.99 267.018 Q1746.54 267.018 1744.55 269.217 Q1742.56 271.416 1742.56 275.212 L1742.56 289.865 L1738.28 289.865 L1738.28 263.939 L1742.56 263.939 L1742.56 267.967 Q1744.09 265.629 1746.15 264.471 Q1748.23 263.314 1750.94 263.314 Q1755.41 263.314 1757.7 266.092 Q1759.99 268.846 1759.99 274.217 Z" fill="#000000" fill-rule="evenodd" fill-opacity="1" /><path clip-path="url(#clip450)" d="M1772.7 256.578 L1772.7 263.939 L1781.47 263.939 L1781.47 267.249 L1772.7 267.249 L1772.7 281.323 Q1772.7 284.494 1773.56 285.397 Q1774.43 286.3 1777.1 286.3 L1781.47 286.3 L1781.47 289.865 L1777.1 289.865 Q1772.17 289.865 1770.29 288.036 Q1768.42 286.184 1768.42 281.323 L1768.42 267.249 L1765.29 267.249 L1765.29 263.939 L1768.42 263.939 L1768.42 256.578 L1772.7 256.578 Z" fill="#000000" fill-rule="evenodd" fill-opacity="1" /><path clip-path="url(#clip450)" d="M1809.25 275.837 L1809.25 277.92 L1789.67 277.92 Q1789.94 282.318 1792.31 284.633 Q1794.69 286.925 1798.93 286.925 Q1801.38 286.925 1803.67 286.323 Q1805.99 285.721 1808.25 284.517 L1808.25 288.545 Q1805.96 289.517 1803.56 290.027 Q1801.15 290.536 1798.67 290.536 Q1792.47 290.536 1788.83 286.925 Q1785.22 283.314 1785.22 277.156 Q1785.22 270.791 1788.65 267.064 Q1792.1 263.314 1797.93 263.314 Q1803.16 263.314 1806.19 266.693 Q1809.25 270.05 1809.25 275.837 M1804.99 274.587 Q1804.94 271.092 1803.02 269.008 Q1801.12 266.925 1797.98 266.925 Q1794.41 266.925 1792.26 268.939 Q1790.13 270.953 1789.81 274.61 L1804.99 274.587 Z" fill="#000000" fill-rule="evenodd" fill-opacity="1" /><path clip-path="url(#clip450)" d="M1831.26 267.92 Q1830.55 267.504 1829.69 267.318 Q1828.86 267.11 1827.84 267.11 Q1824.23 267.11 1822.28 269.471 Q1820.36 271.809 1820.36 276.207 L1820.36 289.865 L1816.08 289.865 L1816.08 263.939 L1820.36 263.939 L1820.36 267.967 Q1821.7 265.606 1823.86 264.471 Q1826.01 263.314 1829.09 263.314 Q1829.53 263.314 1830.06 263.383 Q1830.59 263.43 1831.24 263.545 L1831.26 267.92 Z" fill="#000000" fill-rule="evenodd" fill-opacity="1" /><path clip-path="url(#clip450)" d="M1839.85 285.976 L1839.85 299.726 L1835.57 299.726 L1835.57 263.939 L1839.85 263.939 L1839.85 267.874 Q1841.19 265.559 1843.23 264.448 Q1845.29 263.314 1848.14 263.314 Q1852.86 263.314 1855.8 267.064 Q1858.76 270.814 1858.76 276.925 Q1858.76 283.036 1855.8 286.786 Q1852.86 290.536 1848.14 290.536 Q1845.29 290.536 1843.23 289.425 Q1841.19 288.291 1839.85 285.976 M1854.34 276.925 Q1854.34 272.226 1852.4 269.564 Q1850.48 266.879 1847.1 266.879 Q1843.72 266.879 1841.77 269.564 Q1839.85 272.226 1839.85 276.925 Q1839.85 281.624 1841.77 284.309 Q1843.72 286.971 1847.1 286.971 Q1850.48 286.971 1852.4 284.309 Q1854.34 281.624 1854.34 276.925 Z" fill="#000000" fill-rule="evenodd" fill-opacity="1" /><path clip-path="url(#clip450)" d="M1875.87 266.925 Q1872.44 266.925 1870.45 269.61 Q1868.46 272.272 1868.46 276.925 Q1868.46 281.578 1870.43 284.263 Q1872.42 286.925 1875.87 286.925 Q1879.27 286.925 1881.26 284.24 Q1883.25 281.555 1883.25 276.925 Q1883.25 272.318 1881.26 269.633 Q1879.27 266.925 1875.87 266.925 M1875.87 263.314 Q1881.43 263.314 1884.6 266.925 Q1887.77 270.536 1887.77 276.925 Q1887.77 283.291 1884.6 286.925 Q1881.43 290.536 1875.87 290.536 Q1870.29 290.536 1867.12 286.925 Q1863.97 283.291 1863.97 276.925 Q1863.97 270.536 1867.12 266.925 Q1870.29 263.314 1875.87 263.314 Z" fill="#000000" fill-rule="evenodd" fill-opacity="1" /><path clip-path="url(#clip450)" d="M1894.83 253.846 L1899.09 253.846 L1899.09 289.865 L1894.83 289.865 L1894.83 253.846 Z" fill="#000000" fill-rule="evenodd" fill-opacity="1" /><path clip-path="url(#clip450)" d="M1919.78 276.832 Q1914.62 276.832 1912.63 278.013 Q1910.64 279.193 1910.64 282.041 Q1910.64 284.309 1912.12 285.652 Q1913.62 286.971 1916.19 286.971 Q1919.74 286.971 1921.86 284.471 Q1924.02 281.948 1924.02 277.781 L1924.02 276.832 L1919.78 276.832 M1928.28 275.073 L1928.28 289.865 L1924.02 289.865 L1924.02 285.929 Q1922.56 288.291 1920.38 289.425 Q1918.21 290.536 1915.06 290.536 Q1911.08 290.536 1908.72 288.314 Q1906.38 286.068 1906.38 282.318 Q1906.38 277.943 1909.3 275.721 Q1912.24 273.499 1918.05 273.499 L1924.02 273.499 L1924.02 273.082 Q1924.02 270.143 1922.07 268.545 Q1920.15 266.925 1916.66 266.925 Q1914.43 266.925 1912.33 267.457 Q1910.22 267.99 1908.28 269.055 L1908.28 265.119 Q1910.61 264.217 1912.81 263.777 Q1915.01 263.314 1917.1 263.314 Q1922.72 263.314 1925.5 266.231 Q1928.28 269.147 1928.28 275.073 Z" fill="#000000" fill-rule="evenodd" fill-opacity="1" /><path clip-path="url(#clip450)" d="M1941.26 256.578 L1941.26 263.939 L1950.04 263.939 L1950.04 267.249 L1941.26 267.249 L1941.26 281.323 Q1941.26 284.494 1942.12 285.397 Q1943 286.3 1945.66 286.3 L1950.04 286.3 L1950.04 289.865 L1945.66 289.865 Q1940.73 289.865 1938.86 288.036 Q1936.98 286.184 1936.98 281.323 L1936.98 267.249 L1933.86 267.249 L1933.86 263.939 L1936.98 263.939 L1936.98 256.578 L1941.26 256.578 Z" fill="#000000" fill-rule="evenodd" fill-opacity="1" /><path clip-path="url(#clip450)" d="M1977.81 275.837 L1977.81 277.92 L1958.23 277.92 Q1958.51 282.318 1960.87 284.633 Q1963.25 286.925 1967.49 286.925 Q1969.94 286.925 1972.23 286.323 Q1974.55 285.721 1976.82 284.517 L1976.82 288.545 Q1974.53 289.517 1972.12 290.027 Q1969.71 290.536 1967.23 290.536 Q1961.03 290.536 1957.4 286.925 Q1953.79 283.314 1953.79 277.156 Q1953.79 270.791 1957.21 267.064 Q1960.66 263.314 1966.49 263.314 Q1971.73 263.314 1974.76 266.693 Q1977.81 270.05 1977.81 275.837 M1973.55 274.587 Q1973.51 271.092 1971.59 269.008 Q1969.69 266.925 1966.54 266.925 Q1962.98 266.925 1960.82 268.939 Q1958.69 270.953 1958.37 274.61 L1973.55 274.587 Z" fill="#000000" fill-rule="evenodd" fill-opacity="1" /><path clip-path="url(#clip450)" d="M1992.37 255.305 L1996.31 255.305 L1984.27 294.263 L1980.34 294.263 L1992.37 255.305 Z" fill="#000000" fill-rule="evenodd" fill-opacity="1" /><path clip-path="url(#clip450)" d="M2026.84 257.967 L2026.84 262.897 Q2024.48 260.698 2021.79 259.61 Q2019.13 258.522 2016.12 258.522 Q2010.2 258.522 2007.05 262.156 Q2003.9 265.768 2003.9 272.619 Q2003.9 279.448 2007.05 283.082 Q2010.2 286.693 2016.12 286.693 Q2019.13 286.693 2021.79 285.605 Q2024.48 284.517 2026.84 282.318 L2026.84 287.203 Q2024.39 288.869 2021.63 289.703 Q2018.9 290.536 2015.85 290.536 Q2008 290.536 2003.48 285.744 Q1998.97 280.93 1998.97 272.619 Q1998.97 264.286 2003.48 259.494 Q2008 254.68 2015.85 254.68 Q2018.95 254.68 2021.68 255.513 Q2024.43 256.323 2026.84 257.967 Z" fill="#000000" fill-rule="evenodd" fill-opacity="1" /><path clip-path="url(#clip450)" d="M2043.92 266.925 Q2040.5 266.925 2038.51 269.61 Q2036.52 272.272 2036.52 276.925 Q2036.52 281.578 2038.48 284.263 Q2040.48 286.925 2043.92 286.925 Q2047.33 286.925 2049.32 284.24 Q2051.31 281.555 2051.31 276.925 Q2051.31 272.318 2049.32 269.633 Q2047.33 266.925 2043.92 266.925 M2043.92 263.314 Q2049.48 263.314 2052.65 266.925 Q2055.82 270.536 2055.82 276.925 Q2055.82 283.291 2052.65 286.925 Q2049.48 290.536 2043.92 290.536 Q2038.35 290.536 2035.17 286.925 Q2032.03 283.291 2032.03 276.925 Q2032.03 270.536 2035.17 266.925 Q2038.35 263.314 2043.92 263.314 Z" fill="#000000" fill-rule="evenodd" fill-opacity="1" /><path clip-path="url(#clip450)" d="M2079.41 264.703 L2079.41 268.731 Q2077.6 267.805 2075.66 267.342 Q2073.72 266.879 2071.63 266.879 Q2068.46 266.879 2066.86 267.851 Q2065.29 268.823 2065.29 270.768 Q2065.29 272.249 2066.42 273.105 Q2067.56 273.939 2070.98 274.703 L2072.44 275.027 Q2076.98 275.999 2078.88 277.781 Q2080.8 279.541 2080.8 282.712 Q2080.8 286.323 2077.93 288.429 Q2075.08 290.536 2070.08 290.536 Q2068 290.536 2065.73 290.119 Q2063.48 289.726 2060.98 288.916 L2060.98 284.517 Q2063.35 285.744 2065.64 286.369 Q2067.93 286.971 2070.17 286.971 Q2073.18 286.971 2074.8 285.953 Q2076.42 284.911 2076.42 283.036 Q2076.42 281.3 2075.24 280.374 Q2074.09 279.448 2070.13 278.592 L2068.65 278.244 Q2064.69 277.411 2062.93 275.698 Q2061.17 273.962 2061.17 270.953 Q2061.17 267.295 2063.76 265.305 Q2066.35 263.314 2071.12 263.314 Q2073.48 263.314 2075.57 263.661 Q2077.65 264.008 2079.41 264.703 Z" fill="#000000" fill-rule="evenodd" fill-opacity="1" /><path clip-path="url(#clip450)" d="M2104.16 273.661 Q2105.66 274.17 2107.07 275.837 Q2108.51 277.504 2109.94 280.42 L2114.69 289.865 L2109.66 289.865 L2105.24 280.999 Q2103.53 277.527 2101.91 276.393 Q2100.31 275.258 2097.54 275.258 L2092.44 275.258 L2092.44 289.865 L2087.77 289.865 L2087.77 255.305 L2098.32 255.305 Q2104.25 255.305 2107.16 257.781 Q2110.08 260.258 2110.08 265.258 Q2110.08 268.522 2108.55 270.675 Q2107.05 272.828 2104.16 273.661 M2092.44 259.147 L2092.44 271.416 L2098.32 271.416 Q2101.7 271.416 2103.41 269.865 Q2105.15 268.291 2105.15 265.258 Q2105.15 262.226 2103.41 260.698 Q2101.7 259.147 2098.32 259.147 L2092.44 259.147 Z" fill="#000000" fill-rule="evenodd" fill-opacity="1" /><path clip-path="url(#clip450)" d="M2131.26 276.832 Q2126.1 276.832 2124.11 278.013 Q2122.12 279.193 2122.12 282.041 Q2122.12 284.309 2123.6 285.652 Q2125.1 286.971 2127.67 286.971 Q2131.22 286.971 2133.35 284.471 Q2135.5 281.948 2135.5 277.781 L2135.5 276.832 L2131.26 276.832 M2139.76 275.073 L2139.76 289.865 L2135.5 289.865 L2135.5 285.929 Q2134.04 288.291 2131.86 289.425 Q2129.69 290.536 2126.54 290.536 Q2122.56 290.536 2120.2 288.314 Q2117.86 286.068 2117.86 282.318 Q2117.86 277.943 2120.78 275.721 Q2123.72 273.499 2129.53 273.499 L2135.5 273.499 L2135.5 273.082 Q2135.5 270.143 2133.55 268.545 Q2131.63 266.925 2128.14 266.925 Q2125.91 266.925 2123.81 267.457 Q2121.7 267.99 2119.76 269.055 L2119.76 265.119 Q2122.1 264.217 2124.29 263.777 Q2126.49 263.314 2128.58 263.314 Q2134.2 263.314 2136.98 266.231 Q2139.76 269.147 2139.76 275.073 Z" fill="#000000" fill-rule="evenodd" fill-opacity="1" /><path clip-path="url(#clip450)" d="M2170.08 274.217 L2170.08 289.865 L2165.82 289.865 L2165.82 274.355 Q2165.82 270.675 2164.39 268.846 Q2162.95 267.018 2160.08 267.018 Q2156.63 267.018 2154.64 269.217 Q2152.65 271.416 2152.65 275.212 L2152.65 289.865 L2148.37 289.865 L2148.37 263.939 L2152.65 263.939 L2152.65 267.967 Q2154.18 265.629 2156.24 264.471 Q2158.32 263.314 2161.03 263.314 Q2165.5 263.314 2167.79 266.092 Q2170.08 268.846 2170.08 274.217 Z" fill="#000000" fill-rule="evenodd" fill-opacity="1" /><path clip-path="url(#clip450)" d="M2195.64 276.601 Q2195.64 271.971 2193.72 269.425 Q2191.82 266.879 2188.37 266.879 Q2184.94 266.879 2183.02 269.425 Q2181.12 271.971 2181.12 276.601 Q2181.12 281.207 2183.02 283.754 Q2184.94 286.3 2188.37 286.3 Q2191.82 286.3 2193.72 283.754 Q2195.64 281.207 2195.64 276.601 M2199.9 286.647 Q2199.9 293.267 2196.96 296.485 Q2194.02 299.726 2187.95 299.726 Q2185.71 299.726 2183.72 299.378 Q2181.72 299.054 2179.85 298.36 L2179.85 294.216 Q2181.72 295.235 2183.55 295.721 Q2185.38 296.207 2187.28 296.207 Q2191.47 296.207 2193.55 294.008 Q2195.64 291.832 2195.64 287.411 L2195.64 285.304 Q2194.32 287.596 2192.26 288.73 Q2190.2 289.865 2187.33 289.865 Q2182.56 289.865 2179.64 286.23 Q2176.72 282.596 2176.72 276.601 Q2176.72 270.582 2179.64 266.948 Q2182.56 263.314 2187.33 263.314 Q2190.2 263.314 2192.26 264.448 Q2194.32 265.582 2195.64 267.874 L2195.64 263.939 L2199.9 263.939 L2199.9 286.647 Z" fill="#000000" fill-rule="evenodd" fill-opacity="1" /><path clip-path="url(#clip450)" d="M2230.84 275.837 L2230.84 277.92 L2211.26 277.92 Q2211.54 282.318 2213.9 284.633 Q2216.28 286.925 2220.52 286.925 Q2222.97 286.925 2225.27 286.323 Q2227.58 285.721 2229.85 284.517 L2229.85 288.545 Q2227.56 289.517 2225.15 290.027 Q2222.74 290.536 2220.27 290.536 Q2214.06 290.536 2210.43 286.925 Q2206.82 283.314 2206.82 277.156 Q2206.82 270.791 2210.24 267.064 Q2213.69 263.314 2219.53 263.314 Q2224.76 263.314 2227.79 266.693 Q2230.84 270.05 2230.84 275.837 M2226.59 274.587 Q2226.54 271.092 2224.62 269.008 Q2222.72 266.925 2219.57 266.925 Q2216.01 266.925 2213.85 268.939 Q2211.72 270.953 2211.4 274.61 L2226.59 274.587 Z" fill="#000000" fill-rule="evenodd" fill-opacity="1" /></svg>
