<?xml version="1.0" encoding="utf-8"?>
<svg xmlns="http://www.w3.org/2000/svg" xmlns:xlink="http://www.w3.org/1999/xlink" width="600" height="400" viewBox="0 0 2400 1600">
<defs>
  <clipPath id="clip210">
    <rect x="0" y="0" width="2400" height="1600"/>
  </clipPath>
</defs>
<path clip-path="url(#clip210)" d="
M0 1600 L2400 1600 L2400 0 L0 0  Z
  " fill="#ffffff" fill-rule="evenodd" fill-opacity="1"/>
<defs>
  <clipPath id="clip211">
    <rect x="480" y="0" width="1681" height="1600"/>
  </clipPath>
</defs>
<path clip-path="url(#clip210)" d="
M186.274 1486.45 L2352.76 1486.45 L2352.76 47.2441 L186.274 47.2441  Z
  " fill="#ffffff" fill-rule="evenodd" fill-opacity="1"/>
<defs>
  <clipPath id="clip212">
    <rect x="186" y="47" width="2167" height="1440"/>
  </clipPath>
</defs>
<polyline clip-path="url(#clip212)" style="stroke:#000000; stroke-linecap:butt; stroke-linejoin:round; stroke-width:2; stroke-opacity:0.1; fill:none" points="
  247.59,1486.45 247.59,47.2441 
  "/>
<polyline clip-path="url(#clip212)" style="stroke:#000000; stroke-linecap:butt; stroke-linejoin:round; stroke-width:2; stroke-opacity:0.1; fill:none" points="
  758.552,1486.45 758.552,47.2441 
  "/>
<polyline clip-path="url(#clip212)" style="stroke:#000000; stroke-linecap:butt; stroke-linejoin:round; stroke-width:2; stroke-opacity:0.1; fill:none" points="
  1269.51,1486.45 1269.51,47.2441 
  "/>
<polyline clip-path="url(#clip212)" style="stroke:#000000; stroke-linecap:butt; stroke-linejoin:round; stroke-width:2; stroke-opacity:0.1; fill:none" points="
  1780.48,1486.45 1780.48,47.2441 
  "/>
<polyline clip-path="url(#clip212)" style="stroke:#000000; stroke-linecap:butt; stroke-linejoin:round; stroke-width:2; stroke-opacity:0.1; fill:none" points="
  2291.44,1486.45 2291.44,47.2441 
  "/>
<polyline clip-path="url(#clip210)" style="stroke:#000000; stroke-linecap:butt; stroke-linejoin:round; stroke-width:4; stroke-opacity:1; fill:none" points="
  186.274,1486.45 2352.76,1486.45 
  "/>
<polyline clip-path="url(#clip210)" style="stroke:#000000; stroke-linecap:butt; stroke-linejoin:round; stroke-width:4; stroke-opacity:1; fill:none" points="
  247.59,1486.45 247.59,1467.55 
  "/>
<polyline clip-path="url(#clip210)" style="stroke:#000000; stroke-linecap:butt; stroke-linejoin:round; stroke-width:4; stroke-opacity:1; fill:none" points="
  758.552,1486.45 758.552,1467.55 
  "/>
<polyline clip-path="url(#clip210)" style="stroke:#000000; stroke-linecap:butt; stroke-linejoin:round; stroke-width:4; stroke-opacity:1; fill:none" points="
  1269.51,1486.45 1269.51,1467.55 
  "/>
<polyline clip-path="url(#clip210)" style="stroke:#000000; stroke-linecap:butt; stroke-linejoin:round; stroke-width:4; stroke-opacity:1; fill:none" points="
  1780.48,1486.45 1780.48,1467.55 
  "/>
<polyline clip-path="url(#clip210)" style="stroke:#000000; stroke-linecap:butt; stroke-linejoin:round; stroke-width:4; stroke-opacity:1; fill:none" points="
  2291.44,1486.45 2291.44,1467.55 
  "/>
<path clip-path="url(#clip210)" d="M194.118 1532.02 L223.793 1532.02 L223.793 1535.95 L194.118 1535.95 L194.118 1532.02 Z" fill="#000000" fill-rule="evenodd" fill-opacity="1" /><path clip-path="url(#clip210)" d="M234.696 1544.91 L242.335 1544.91 L242.335 1518.55 L234.025 1520.21 L234.025 1515.95 L242.289 1514.29 L246.965 1514.29 L246.965 1544.91 L254.603 1544.91 L254.603 1548.85 L234.696 1548.85 L234.696 1544.91 Z" fill="#000000" fill-rule="evenodd" fill-opacity="1" /><path clip-path="url(#clip210)" d="M264.048 1542.97 L268.932 1542.97 L268.932 1548.85 L264.048 1548.85 L264.048 1542.97 Z" fill="#000000" fill-rule="evenodd" fill-opacity="1" /><path clip-path="url(#clip210)" d="M289.117 1517.37 Q285.506 1517.37 283.677 1520.93 Q281.872 1524.47 281.872 1531.6 Q281.872 1538.71 283.677 1542.27 Q285.506 1545.82 289.117 1545.82 Q292.751 1545.82 294.557 1542.27 Q296.386 1538.71 296.386 1531.6 Q296.386 1524.47 294.557 1520.93 Q292.751 1517.37 289.117 1517.37 M289.117 1513.66 Q294.927 1513.66 297.983 1518.27 Q301.061 1522.85 301.061 1531.6 Q301.061 1540.33 297.983 1544.94 Q294.927 1549.52 289.117 1549.52 Q283.307 1549.52 280.228 1544.94 Q277.173 1540.33 277.173 1531.6 Q277.173 1522.85 280.228 1518.27 Q283.307 1513.66 289.117 1513.66 Z" fill="#000000" fill-rule="evenodd" fill-opacity="1" /><path clip-path="url(#clip210)" d="M705.578 1532.02 L735.254 1532.02 L735.254 1535.95 L705.578 1535.95 L705.578 1532.02 Z" fill="#000000" fill-rule="evenodd" fill-opacity="1" /><path clip-path="url(#clip210)" d="M755.346 1517.37 Q751.735 1517.37 749.906 1520.93 Q748.101 1524.47 748.101 1531.6 Q748.101 1538.71 749.906 1542.27 Q751.735 1545.82 755.346 1545.82 Q758.98 1545.82 760.786 1542.27 Q762.615 1538.71 762.615 1531.6 Q762.615 1524.47 760.786 1520.93 Q758.98 1517.37 755.346 1517.37 M755.346 1513.66 Q761.156 1513.66 764.212 1518.27 Q767.291 1522.85 767.291 1531.6 Q767.291 1540.33 764.212 1544.94 Q761.156 1549.52 755.346 1549.52 Q749.536 1549.52 746.457 1544.94 Q743.402 1540.33 743.402 1531.6 Q743.402 1522.85 746.457 1518.27 Q749.536 1513.66 755.346 1513.66 Z" fill="#000000" fill-rule="evenodd" fill-opacity="1" /><path clip-path="url(#clip210)" d="M775.508 1542.97 L780.392 1542.97 L780.392 1548.85 L775.508 1548.85 L775.508 1542.97 Z" fill="#000000" fill-rule="evenodd" fill-opacity="1" /><path clip-path="url(#clip210)" d="M790.624 1514.29 L808.98 1514.29 L808.98 1518.22 L794.906 1518.22 L794.906 1526.7 Q795.925 1526.35 796.943 1526.19 Q797.962 1526 798.98 1526 Q804.767 1526 808.147 1529.17 Q811.526 1532.34 811.526 1537.76 Q811.526 1543.34 808.054 1546.44 Q804.582 1549.52 798.263 1549.52 Q796.087 1549.52 793.818 1549.15 Q791.573 1548.78 789.166 1548.04 L789.166 1543.34 Q791.249 1544.47 793.471 1545.03 Q795.693 1545.58 798.17 1545.58 Q802.175 1545.58 804.513 1543.48 Q806.851 1541.37 806.851 1537.76 Q806.851 1534.15 804.513 1532.04 Q802.175 1529.94 798.17 1529.94 Q796.295 1529.94 794.42 1530.35 Q792.568 1530.77 790.624 1531.65 L790.624 1514.29 Z" fill="#000000" fill-rule="evenodd" fill-opacity="1" /><path clip-path="url(#clip210)" d="M1246.9 1517.37 Q1243.29 1517.37 1241.46 1520.93 Q1239.65 1524.47 1239.65 1531.6 Q1239.65 1538.71 1241.46 1542.27 Q1243.29 1545.82 1246.9 1545.82 Q1250.53 1545.82 1252.34 1542.27 Q1254.17 1538.71 1254.17 1531.6 Q1254.17 1524.47 1252.34 1520.93 Q1250.53 1517.37 1246.9 1517.37 M1246.9 1513.66 Q1252.71 1513.66 1255.77 1518.27 Q1258.84 1522.85 1258.84 1531.6 Q1258.84 1540.33 1255.77 1544.94 Q1252.71 1549.52 1246.9 1549.52 Q1241.09 1549.52 1238.01 1544.94 Q1234.95 1540.33 1234.95 1531.6 Q1234.95 1522.85 1238.01 1518.27 Q1241.09 1513.66 1246.9 1513.66 Z" fill="#000000" fill-rule="evenodd" fill-opacity="1" /><path clip-path="url(#clip210)" d="M1267.06 1542.97 L1271.95 1542.97 L1271.95 1548.85 L1267.06 1548.85 L1267.06 1542.97 Z" fill="#000000" fill-rule="evenodd" fill-opacity="1" /><path clip-path="url(#clip210)" d="M1292.13 1517.37 Q1288.52 1517.37 1286.69 1520.93 Q1284.89 1524.47 1284.89 1531.6 Q1284.89 1538.71 1286.69 1542.27 Q1288.52 1545.82 1292.13 1545.82 Q1295.76 1545.82 1297.57 1542.27 Q1299.4 1538.71 1299.4 1531.6 Q1299.4 1524.47 1297.57 1520.93 Q1295.76 1517.37 1292.13 1517.37 M1292.13 1513.66 Q1297.94 1513.66 1301 1518.27 Q1304.07 1522.85 1304.07 1531.6 Q1304.07 1540.33 1301 1544.94 Q1297.94 1549.52 1292.13 1549.52 Q1286.32 1549.52 1283.24 1544.94 Q1280.19 1540.33 1280.19 1531.6 Q1280.19 1522.85 1283.24 1518.27 Q1286.32 1513.66 1292.13 1513.66 Z" fill="#000000" fill-rule="evenodd" fill-opacity="1" /><path clip-path="url(#clip210)" d="M1758.36 1517.37 Q1754.75 1517.37 1752.92 1520.93 Q1751.11 1524.47 1751.11 1531.6 Q1751.11 1538.71 1752.92 1542.27 Q1754.75 1545.82 1758.36 1545.82 Q1761.99 1545.82 1763.8 1542.27 Q1765.63 1538.71 1765.63 1531.6 Q1765.63 1524.47 1763.8 1520.93 Q1761.99 1517.37 1758.36 1517.37 M1758.36 1513.66 Q1764.17 1513.66 1767.23 1518.27 Q1770.3 1522.85 1770.3 1531.6 Q1770.3 1540.33 1767.23 1544.94 Q1764.17 1549.52 1758.36 1549.52 Q1752.55 1549.52 1749.47 1544.94 Q1746.42 1540.33 1746.42 1531.6 Q1746.42 1522.85 1749.47 1518.27 Q1752.55 1513.66 1758.36 1513.66 Z" fill="#000000" fill-rule="evenodd" fill-opacity="1" /><path clip-path="url(#clip210)" d="M1778.52 1542.97 L1783.41 1542.97 L1783.41 1548.85 L1778.52 1548.85 L1778.52 1542.97 Z" fill="#000000" fill-rule="evenodd" fill-opacity="1" /><path clip-path="url(#clip210)" d="M1793.64 1514.29 L1811.99 1514.29 L1811.99 1518.22 L1797.92 1518.22 L1797.92 1526.7 Q1798.94 1526.35 1799.96 1526.19 Q1800.98 1526 1801.99 1526 Q1807.78 1526 1811.16 1529.17 Q1814.54 1532.34 1814.54 1537.76 Q1814.54 1543.34 1811.07 1546.44 Q1807.6 1549.52 1801.28 1549.52 Q1799.1 1549.52 1796.83 1549.15 Q1794.59 1548.78 1792.18 1548.04 L1792.18 1543.34 Q1794.26 1544.47 1796.48 1545.03 Q1798.71 1545.58 1801.18 1545.58 Q1805.19 1545.58 1807.53 1543.48 Q1809.86 1541.37 1809.86 1537.76 Q1809.86 1534.15 1807.53 1532.04 Q1805.19 1529.94 1801.18 1529.94 Q1799.31 1529.94 1797.43 1530.35 Q1795.58 1530.77 1793.64 1531.65 L1793.64 1514.29 Z" fill="#000000" fill-rule="evenodd" fill-opacity="1" /><path clip-path="url(#clip210)" d="M2258.59 1544.91 L2266.23 1544.91 L2266.23 1518.55 L2257.92 1520.21 L2257.92 1515.95 L2266.19 1514.29 L2270.86 1514.29 L2270.86 1544.91 L2278.5 1544.91 L2278.5 1548.85 L2258.59 1548.85 L2258.59 1544.91 Z" fill="#000000" fill-rule="evenodd" fill-opacity="1" /><path clip-path="url(#clip210)" d="M2287.95 1542.97 L2292.83 1542.97 L2292.83 1548.85 L2287.95 1548.85 L2287.95 1542.97 Z" fill="#000000" fill-rule="evenodd" fill-opacity="1" /><path clip-path="url(#clip210)" d="M2313.01 1517.37 Q2309.4 1517.37 2307.57 1520.93 Q2305.77 1524.47 2305.77 1531.6 Q2305.77 1538.71 2307.57 1542.27 Q2309.4 1545.82 2313.01 1545.82 Q2316.65 1545.82 2318.45 1542.27 Q2320.28 1538.71 2320.28 1531.6 Q2320.28 1524.47 2318.45 1520.93 Q2316.65 1517.37 2313.01 1517.37 M2313.01 1513.66 Q2318.82 1513.66 2321.88 1518.27 Q2324.96 1522.85 2324.96 1531.6 Q2324.96 1540.33 2321.88 1544.94 Q2318.82 1549.52 2313.01 1549.52 Q2307.2 1549.52 2304.13 1544.94 Q2301.07 1540.33 2301.07 1531.6 Q2301.07 1522.85 2304.13 1518.27 Q2307.2 1513.66 2313.01 1513.66 Z" fill="#000000" fill-rule="evenodd" fill-opacity="1" /><polyline clip-path="url(#clip212)" style="stroke:#000000; stroke-linecap:butt; stroke-linejoin:round; stroke-width:2; stroke-opacity:0.1; fill:none" points="
  186.274,1445.72 2352.76,1445.72 
  "/>
<polyline clip-path="url(#clip212)" style="stroke:#000000; stroke-linecap:butt; stroke-linejoin:round; stroke-width:2; stroke-opacity:0.1; fill:none" points="
  186.274,1122.48 2352.76,1122.48 
  "/>
<polyline clip-path="url(#clip212)" style="stroke:#000000; stroke-linecap:butt; stroke-linejoin:round; stroke-width:2; stroke-opacity:0.1; fill:none" points="
  186.274,799.239 2352.76,799.239 
  "/>
<polyline clip-path="url(#clip212)" style="stroke:#000000; stroke-linecap:butt; stroke-linejoin:round; stroke-width:2; stroke-opacity:0.1; fill:none" points="
  186.274,476 2352.76,476 
  "/>
<polyline clip-path="url(#clip212)" style="stroke:#000000; stroke-linecap:butt; stroke-linejoin:round; stroke-width:2; stroke-opacity:0.1; fill:none" points="
  186.274,152.762 2352.76,152.762 
  "/>
<polyline clip-path="url(#clip210)" style="stroke:#000000; stroke-linecap:butt; stroke-linejoin:round; stroke-width:4; stroke-opacity:1; fill:none" points="
  186.274,1486.45 186.274,47.2441 
  "/>
<polyline clip-path="url(#clip210)" style="stroke:#000000; stroke-linecap:butt; stroke-linejoin:round; stroke-width:4; stroke-opacity:1; fill:none" points="
  186.274,1445.72 205.172,1445.72 
  "/>
<polyline clip-path="url(#clip210)" style="stroke:#000000; stroke-linecap:butt; stroke-linejoin:round; stroke-width:4; stroke-opacity:1; fill:none" points="
  186.274,1122.48 205.172,1122.48 
  "/>
<polyline clip-path="url(#clip210)" style="stroke:#000000; stroke-linecap:butt; stroke-linejoin:round; stroke-width:4; stroke-opacity:1; fill:none" points="
  186.274,799.239 205.172,799.239 
  "/>
<polyline clip-path="url(#clip210)" style="stroke:#000000; stroke-linecap:butt; stroke-linejoin:round; stroke-width:4; stroke-opacity:1; fill:none" points="
  186.274,476 205.172,476 
  "/>
<polyline clip-path="url(#clip210)" style="stroke:#000000; stroke-linecap:butt; stroke-linejoin:round; stroke-width:4; stroke-opacity:1; fill:none" points="
  186.274,152.762 205.172,152.762 
  "/>
<path clip-path="url(#clip210)" d="M62.9365 1431.51 Q59.3254 1431.51 57.4967 1435.08 Q55.6912 1438.62 55.6912 1445.75 Q55.6912 1452.86 57.4967 1456.42 Q59.3254 1459.96 62.9365 1459.96 Q66.5707 1459.96 68.3763 1456.42 Q70.205 1452.86 70.205 1445.75 Q70.205 1438.62 68.3763 1435.08 Q66.5707 1431.51 62.9365 1431.51 M62.9365 1427.81 Q68.7467 1427.81 71.8022 1432.42 Q74.8809 1437 74.8809 1445.75 Q74.8809 1454.48 71.8022 1459.08 Q68.7467 1463.67 62.9365 1463.67 Q57.1264 1463.67 54.0477 1459.08 Q50.9921 1454.48 50.9921 1445.75 Q50.9921 1437 54.0477 1432.42 Q57.1264 1427.81 62.9365 1427.81 Z" fill="#000000" fill-rule="evenodd" fill-opacity="1" /><path clip-path="url(#clip210)" d="M83.0984 1457.12 L87.9827 1457.12 L87.9827 1463 L83.0984 1463 L83.0984 1457.12 Z" fill="#000000" fill-rule="evenodd" fill-opacity="1" /><path clip-path="url(#clip210)" d="M108.168 1431.51 Q104.557 1431.51 102.728 1435.08 Q100.922 1438.62 100.922 1445.75 Q100.922 1452.86 102.728 1456.42 Q104.557 1459.96 108.168 1459.96 Q111.802 1459.96 113.608 1456.42 Q115.436 1452.86 115.436 1445.75 Q115.436 1438.62 113.608 1435.08 Q111.802 1431.51 108.168 1431.51 M108.168 1427.81 Q113.978 1427.81 117.033 1432.42 Q120.112 1437 120.112 1445.75 Q120.112 1454.48 117.033 1459.08 Q113.978 1463.67 108.168 1463.67 Q102.358 1463.67 99.2789 1459.08 Q96.2234 1454.48 96.2234 1445.75 Q96.2234 1437 99.2789 1432.42 Q102.358 1427.81 108.168 1427.81 Z" fill="#000000" fill-rule="evenodd" fill-opacity="1" /><path clip-path="url(#clip210)" d="M138.33 1431.51 Q134.719 1431.51 132.89 1435.08 Q131.084 1438.62 131.084 1445.75 Q131.084 1452.86 132.89 1456.42 Q134.719 1459.96 138.33 1459.96 Q141.964 1459.96 143.769 1456.42 Q145.598 1452.86 145.598 1445.75 Q145.598 1438.62 143.769 1435.08 Q141.964 1431.51 138.33 1431.51 M138.33 1427.81 Q144.14 1427.81 147.195 1432.42 Q150.274 1437 150.274 1445.75 Q150.274 1454.48 147.195 1459.08 Q144.14 1463.67 138.33 1463.67 Q132.519 1463.67 129.441 1459.08 Q126.385 1454.48 126.385 1445.75 Q126.385 1437 129.441 1432.42 Q132.519 1427.81 138.33 1427.81 Z" fill="#000000" fill-rule="evenodd" fill-opacity="1" /><path clip-path="url(#clip210)" d="M63.9319 1108.28 Q60.3208 1108.28 58.4921 1111.84 Q56.6865 1115.38 56.6865 1122.51 Q56.6865 1129.62 58.4921 1133.18 Q60.3208 1136.72 63.9319 1136.72 Q67.5661 1136.72 69.3717 1133.18 Q71.2004 1129.62 71.2004 1122.51 Q71.2004 1115.38 69.3717 1111.84 Q67.5661 1108.28 63.9319 1108.28 M63.9319 1104.57 Q69.742 1104.57 72.7976 1109.18 Q75.8763 1113.76 75.8763 1122.51 Q75.8763 1131.24 72.7976 1135.85 Q69.742 1140.43 63.9319 1140.43 Q58.1217 1140.43 55.043 1135.85 Q51.9875 1131.24 51.9875 1122.51 Q51.9875 1113.76 55.043 1109.18 Q58.1217 1104.57 63.9319 1104.57 Z" fill="#000000" fill-rule="evenodd" fill-opacity="1" /><path clip-path="url(#clip210)" d="M84.0938 1133.88 L88.978 1133.88 L88.978 1139.76 L84.0938 1139.76 L84.0938 1133.88 Z" fill="#000000" fill-rule="evenodd" fill-opacity="1" /><path clip-path="url(#clip210)" d="M103.191 1135.82 L119.51 1135.82 L119.51 1139.76 L97.566 1139.76 L97.566 1135.82 Q100.228 1133.07 104.811 1128.44 Q109.418 1123.79 110.598 1122.44 Q112.844 1119.92 113.723 1118.18 Q114.626 1116.42 114.626 1114.73 Q114.626 1111.98 112.682 1110.24 Q110.76 1108.51 107.658 1108.51 Q105.459 1108.51 103.006 1109.27 Q100.575 1110.04 97.7974 1111.59 L97.7974 1106.86 Q100.621 1105.73 103.075 1105.15 Q105.529 1104.57 107.566 1104.57 Q112.936 1104.57 116.131 1107.26 Q119.325 1109.94 119.325 1114.43 Q119.325 1116.56 118.515 1118.48 Q117.728 1120.38 115.621 1122.97 Q115.043 1123.65 111.941 1126.86 Q108.839 1130.06 103.191 1135.82 Z" fill="#000000" fill-rule="evenodd" fill-opacity="1" /><path clip-path="url(#clip210)" d="M129.371 1105.2 L147.728 1105.2 L147.728 1109.13 L133.654 1109.13 L133.654 1117.6 Q134.672 1117.26 135.691 1117.1 Q136.709 1116.91 137.728 1116.91 Q143.515 1116.91 146.894 1120.08 Q150.274 1123.25 150.274 1128.67 Q150.274 1134.25 146.802 1137.35 Q143.33 1140.43 137.01 1140.43 Q134.834 1140.43 132.566 1140.06 Q130.32 1139.69 127.913 1138.95 L127.913 1134.25 Q129.996 1135.38 132.219 1135.94 Q134.441 1136.49 136.918 1136.49 Q140.922 1136.49 143.26 1134.39 Q145.598 1132.28 145.598 1128.67 Q145.598 1125.06 143.26 1122.95 Q140.922 1120.85 136.918 1120.85 Q135.043 1120.85 133.168 1121.26 Q131.316 1121.68 129.371 1122.56 L129.371 1105.2 Z" fill="#000000" fill-rule="evenodd" fill-opacity="1" /><path clip-path="url(#clip210)" d="M62.9365 785.037 Q59.3254 785.037 57.4967 788.602 Q55.6912 792.144 55.6912 799.273 Q55.6912 806.38 57.4967 809.945 Q59.3254 813.486 62.9365 813.486 Q66.5707 813.486 68.3763 809.945 Q70.205 806.38 70.205 799.273 Q70.205 792.144 68.3763 788.602 Q66.5707 785.037 62.9365 785.037 M62.9365 781.334 Q68.7467 781.334 71.8022 785.94 Q74.8809 790.523 74.8809 799.273 Q74.8809 808 71.8022 812.607 Q68.7467 817.19 62.9365 817.19 Q57.1264 817.19 54.0477 812.607 Q50.9921 808 50.9921 799.273 Q50.9921 790.523 54.0477 785.94 Q57.1264 781.334 62.9365 781.334 Z" fill="#000000" fill-rule="evenodd" fill-opacity="1" /><path clip-path="url(#clip210)" d="M83.0984 810.639 L87.9827 810.639 L87.9827 816.519 L83.0984 816.519 L83.0984 810.639 Z" fill="#000000" fill-rule="evenodd" fill-opacity="1" /><path clip-path="url(#clip210)" d="M98.2141 781.959 L116.57 781.959 L116.57 785.894 L102.496 785.894 L102.496 794.366 Q103.515 794.019 104.534 793.857 Q105.552 793.672 106.571 793.672 Q112.358 793.672 115.737 796.843 Q119.117 800.014 119.117 805.431 Q119.117 811.009 115.645 814.111 Q112.172 817.19 105.853 817.19 Q103.677 817.19 101.409 816.82 Q99.1632 816.449 96.7558 815.709 L96.7558 811.009 Q98.8391 812.144 101.061 812.699 Q103.284 813.255 105.76 813.255 Q109.765 813.255 112.103 811.148 Q114.441 809.042 114.441 805.431 Q114.441 801.82 112.103 799.713 Q109.765 797.607 105.76 797.607 Q103.885 797.607 102.01 798.023 Q100.159 798.44 98.2141 799.32 L98.2141 781.959 Z" fill="#000000" fill-rule="evenodd" fill-opacity="1" /><path clip-path="url(#clip210)" d="M138.33 785.037 Q134.719 785.037 132.89 788.602 Q131.084 792.144 131.084 799.273 Q131.084 806.38 132.89 809.945 Q134.719 813.486 138.33 813.486 Q141.964 813.486 143.769 809.945 Q145.598 806.38 145.598 799.273 Q145.598 792.144 143.769 788.602 Q141.964 785.037 138.33 785.037 M138.33 781.334 Q144.14 781.334 147.195 785.94 Q150.274 790.523 150.274 799.273 Q150.274 808 147.195 812.607 Q144.14 817.19 138.33 817.19 Q132.519 817.19 129.441 812.607 Q126.385 808 126.385 799.273 Q126.385 790.523 129.441 785.94 Q132.519 781.334 138.33 781.334 Z" fill="#000000" fill-rule="evenodd" fill-opacity="1" /><path clip-path="url(#clip210)" d="M63.9319 461.799 Q60.3208 461.799 58.4921 465.364 Q56.6865 468.905 56.6865 476.035 Q56.6865 483.141 58.4921 486.706 Q60.3208 490.248 63.9319 490.248 Q67.5661 490.248 69.3717 486.706 Q71.2004 483.141 71.2004 476.035 Q71.2004 468.905 69.3717 465.364 Q67.5661 461.799 63.9319 461.799 M63.9319 458.095 Q69.742 458.095 72.7976 462.702 Q75.8763 467.285 75.8763 476.035 Q75.8763 484.762 72.7976 489.368 Q69.742 493.952 63.9319 493.952 Q58.1217 493.952 55.043 489.368 Q51.9875 484.762 51.9875 476.035 Q51.9875 467.285 55.043 462.702 Q58.1217 458.095 63.9319 458.095 Z" fill="#000000" fill-rule="evenodd" fill-opacity="1" /><path clip-path="url(#clip210)" d="M84.0938 487.401 L88.978 487.401 L88.978 493.28 L84.0938 493.28 L84.0938 487.401 Z" fill="#000000" fill-rule="evenodd" fill-opacity="1" /><path clip-path="url(#clip210)" d="M97.9826 458.72 L120.205 458.72 L120.205 460.711 L107.658 493.28 L102.774 493.28 L114.58 462.655 L97.9826 462.655 L97.9826 458.72 Z" fill="#000000" fill-rule="evenodd" fill-opacity="1" /><path clip-path="url(#clip210)" d="M129.371 458.72 L147.728 458.72 L147.728 462.655 L133.654 462.655 L133.654 471.128 Q134.672 470.78 135.691 470.618 Q136.709 470.433 137.728 470.433 Q143.515 470.433 146.894 473.604 Q150.274 476.776 150.274 482.192 Q150.274 487.771 146.802 490.873 Q143.33 493.952 137.01 493.952 Q134.834 493.952 132.566 493.581 Q130.32 493.211 127.913 492.47 L127.913 487.771 Q129.996 488.905 132.219 489.461 Q134.441 490.016 136.918 490.016 Q140.922 490.016 143.26 487.91 Q145.598 485.803 145.598 482.192 Q145.598 478.581 143.26 476.475 Q140.922 474.368 136.918 474.368 Q135.043 474.368 133.168 474.785 Q131.316 475.202 129.371 476.081 L129.371 458.72 Z" fill="#000000" fill-rule="evenodd" fill-opacity="1" /><path clip-path="url(#clip210)" d="M53.7467 166.107 L61.3856 166.107 L61.3856 139.741 L53.0754 141.408 L53.0754 137.148 L61.3393 135.482 L66.0152 135.482 L66.0152 166.107 L73.654 166.107 L73.654 170.042 L53.7467 170.042 L53.7467 166.107 Z" fill="#000000" fill-rule="evenodd" fill-opacity="1" /><path clip-path="url(#clip210)" d="M83.0984 164.162 L87.9827 164.162 L87.9827 170.042 L83.0984 170.042 L83.0984 164.162 Z" fill="#000000" fill-rule="evenodd" fill-opacity="1" /><path clip-path="url(#clip210)" d="M108.168 138.56 Q104.557 138.56 102.728 142.125 Q100.922 145.667 100.922 152.796 Q100.922 159.903 102.728 163.468 Q104.557 167.009 108.168 167.009 Q111.802 167.009 113.608 163.468 Q115.436 159.903 115.436 152.796 Q115.436 145.667 113.608 142.125 Q111.802 138.56 108.168 138.56 M108.168 134.857 Q113.978 134.857 117.033 139.463 Q120.112 144.047 120.112 152.796 Q120.112 161.523 117.033 166.13 Q113.978 170.713 108.168 170.713 Q102.358 170.713 99.2789 166.13 Q96.2234 161.523 96.2234 152.796 Q96.2234 144.047 99.2789 139.463 Q102.358 134.857 108.168 134.857 Z" fill="#000000" fill-rule="evenodd" fill-opacity="1" /><path clip-path="url(#clip210)" d="M138.33 138.56 Q134.719 138.56 132.89 142.125 Q131.084 145.667 131.084 152.796 Q131.084 159.903 132.89 163.468 Q134.719 167.009 138.33 167.009 Q141.964 167.009 143.769 163.468 Q145.598 159.903 145.598 152.796 Q145.598 145.667 143.769 142.125 Q141.964 138.56 138.33 138.56 M138.33 134.857 Q144.14 134.857 147.195 139.463 Q150.274 144.047 150.274 152.796 Q150.274 161.523 147.195 166.13 Q144.14 170.713 138.33 170.713 Q132.519 170.713 129.441 166.13 Q126.385 161.523 126.385 152.796 Q126.385 144.047 129.441 139.463 Q132.519 134.857 138.33 134.857 Z" fill="#000000" fill-rule="evenodd" fill-opacity="1" /><polyline clip-path="url(#clip212)" style="stroke:#009af9; stroke-linecap:butt; stroke-linejoin:round; stroke-width:12; stroke-opacity:1; fill:none" points="
  247.59,1445.72 355.161,1173.62 462.732,940.524 570.303,743.42 677.874,579.289 785.445,445.116 893.016,337.884 1000.59,254.576 1108.16,192.178 1215.73,147.673 
  1323.3,118.044 1430.87,100.276 1538.44,91.353 1646.01,88.2584 1753.58,87.9763 1861.16,88.4619 1968.73,92.1672 2076.3,102.108 2183.87,121.301 2291.44,152.762 
  
  "/>
<polyline clip-path="url(#clip212)" style="stroke:#e26f46; stroke-linecap:butt; stroke-linejoin:round; stroke-width:12; stroke-opacity:1; fill:none" points="
  247.59,1445.72 355.161,1067.84 462.732,779.038 570.303,563.469 677.874,407.027 785.445,297.305 893.016,223.538 1000.59,176.541 1108.16,148.64 1215.73,133.608 
  1323.3,126.577 1430.87,123.954 1538.44,123.311 1646.01,123.257 1753.58,123.257 1861.16,123.358 1968.73,124.24 2076.3,127.477 2183.87,135.708 2291.44,152.762 
  
  "/>
<path clip-path="url(#clip210)" d="
M1858.69 250.738 L2280.54 250.738 L2280.54 95.2176 L1858.69 95.2176  Z
  " fill="#ffffff" fill-rule="evenodd" fill-opacity="1"/>
<polyline clip-path="url(#clip210)" style="stroke:#000000; stroke-linecap:butt; stroke-linejoin:round; stroke-width:4; stroke-opacity:1; fill:none" points="
  1858.69,250.738 2280.54,250.738 2280.54,95.2176 1858.69,95.2176 1858.69,250.738 
  "/>
<polyline clip-path="url(#clip210)" style="stroke:#009af9; stroke-linecap:butt; stroke-linejoin:round; stroke-width:4; stroke-opacity:1; fill:none" points="
  1882.76,147.058 2027.19,147.058 
  "/>
<path clip-path="url(#clip210)" d="M2051.26 138.412 L2055.52 138.412 L2055.52 164.338 L2051.26 164.338 L2051.26 138.412 M2051.26 128.319 L2055.52 128.319 L2055.52 133.713 L2051.26 133.713 L2051.26 128.319 Z" fill="#000000" fill-rule="evenodd" fill-opacity="1" /><path clip-path="url(#clip210)" d="M2085.98 148.689 L2085.98 164.338 L2081.73 164.338 L2081.73 148.828 Q2081.73 145.148 2080.29 143.319 Q2078.85 141.49 2075.98 141.49 Q2072.54 141.49 2070.54 143.69 Q2068.55 145.889 2068.55 149.685 L2068.55 164.338 L2064.27 164.338 L2064.27 138.412 L2068.55 138.412 L2068.55 142.44 Q2070.08 140.102 2072.14 138.944 Q2074.23 137.787 2076.93 137.787 Q2081.4 137.787 2083.69 140.565 Q2085.98 143.319 2085.98 148.689 Z" fill="#000000" fill-rule="evenodd" fill-opacity="1" /><path clip-path="url(#clip210)" d="M2094.48 138.412 L2098.74 138.412 L2098.74 164.338 L2094.48 164.338 L2094.48 138.412 M2094.48 128.319 L2098.74 128.319 L2098.74 133.713 L2094.48 133.713 L2094.48 128.319 Z" fill="#000000" fill-rule="evenodd" fill-opacity="1" /><path clip-path="url(#clip210)" d="M2111.86 131.051 L2111.86 138.412 L2120.64 138.412 L2120.64 141.722 L2111.86 141.722 L2111.86 155.796 Q2111.86 158.967 2112.72 159.87 Q2113.6 160.773 2116.26 160.773 L2120.64 160.773 L2120.64 164.338 L2116.26 164.338 Q2111.33 164.338 2109.46 162.509 Q2107.58 160.657 2107.58 155.796 L2107.58 141.722 L2104.46 141.722 L2104.46 138.412 L2107.58 138.412 L2107.58 131.051 L2111.86 131.051 Z" fill="#000000" fill-rule="evenodd" fill-opacity="1" /><path clip-path="url(#clip210)" d="M2126.24 138.412 L2130.5 138.412 L2130.5 164.338 L2126.24 164.338 L2126.24 138.412 M2126.24 128.319 L2130.5 128.319 L2130.5 133.713 L2126.24 133.713 L2126.24 128.319 Z" fill="#000000" fill-rule="evenodd" fill-opacity="1" /><path clip-path="url(#clip210)" d="M2151.19 151.305 Q2146.03 151.305 2144.04 152.486 Q2142.05 153.666 2142.05 156.514 Q2142.05 158.782 2143.53 160.125 Q2145.04 161.444 2147.6 161.444 Q2151.15 161.444 2153.28 158.944 Q2155.43 156.421 2155.43 152.254 L2155.43 151.305 L2151.19 151.305 M2159.69 149.546 L2159.69 164.338 L2155.43 164.338 L2155.43 160.402 Q2153.97 162.763 2151.79 163.898 Q2149.62 165.009 2146.47 165.009 Q2142.49 165.009 2140.13 162.787 Q2137.79 160.541 2137.79 156.791 Q2137.79 152.416 2140.71 150.194 Q2143.65 147.972 2149.46 147.972 L2155.43 147.972 L2155.43 147.555 Q2155.43 144.615 2153.48 143.018 Q2151.56 141.398 2148.07 141.398 Q2145.85 141.398 2143.74 141.93 Q2141.63 142.463 2139.69 143.527 L2139.69 139.592 Q2142.03 138.69 2144.22 138.25 Q2146.42 137.787 2148.51 137.787 Q2154.13 137.787 2156.91 140.703 Q2159.69 143.62 2159.69 149.546 Z" fill="#000000" fill-rule="evenodd" fill-opacity="1" /><path clip-path="url(#clip210)" d="M2168.46 128.319 L2172.72 128.319 L2172.72 164.338 L2168.46 164.338 L2168.46 128.319 Z" fill="#000000" fill-rule="evenodd" fill-opacity="1" /><polyline clip-path="url(#clip210)" style="stroke:#e26f46; stroke-linecap:butt; stroke-linejoin:round; stroke-width:4; stroke-opacity:1; fill:none" points="
  1882.76,198.898 2027.19,198.898 
  "/>
<path clip-path="url(#clip210)" d="M2069.69 191.016 L2069.69 195.043 Q2067.88 194.117 2065.94 193.655 Q2063.99 193.192 2061.91 193.192 Q2058.74 193.192 2057.14 194.164 Q2055.57 195.136 2055.57 197.08 Q2055.57 198.562 2056.7 199.418 Q2057.84 200.252 2061.26 201.016 L2062.72 201.34 Q2067.26 202.312 2069.16 204.094 Q2071.08 205.854 2071.08 209.025 Q2071.08 212.636 2068.21 214.742 Q2065.36 216.849 2060.36 216.849 Q2058.28 216.849 2056.01 216.432 Q2053.76 216.039 2051.26 215.228 L2051.26 210.83 Q2053.62 212.057 2055.92 212.682 Q2058.21 213.284 2060.45 213.284 Q2063.46 213.284 2065.08 212.266 Q2066.7 211.224 2066.7 209.349 Q2066.7 207.613 2065.52 206.687 Q2064.36 205.761 2060.41 204.904 L2058.92 204.557 Q2054.97 203.724 2053.21 202.011 Q2051.45 200.275 2051.45 197.266 Q2051.45 193.608 2054.04 191.618 Q2056.63 189.627 2061.4 189.627 Q2063.76 189.627 2065.85 189.974 Q2067.93 190.321 2069.69 191.016 Z" fill="#000000" fill-rule="evenodd" fill-opacity="1" /><path clip-path="url(#clip210)" d="M2087.91 193.238 Q2084.48 193.238 2082.49 195.923 Q2080.5 198.585 2080.5 203.238 Q2080.5 207.891 2082.47 210.576 Q2084.46 213.238 2087.91 213.238 Q2091.31 213.238 2093.3 210.553 Q2095.29 207.867 2095.29 203.238 Q2095.29 198.631 2093.3 195.946 Q2091.31 193.238 2087.91 193.238 M2087.91 189.627 Q2093.46 189.627 2096.63 193.238 Q2099.8 196.849 2099.8 203.238 Q2099.8 209.604 2096.63 213.238 Q2093.46 216.849 2087.91 216.849 Q2082.33 216.849 2079.16 213.238 Q2076.01 209.604 2076.01 203.238 Q2076.01 196.849 2079.16 193.238 Q2082.33 189.627 2087.91 189.627 Z" fill="#000000" fill-rule="evenodd" fill-opacity="1" /><path clip-path="url(#clip210)" d="M2106.86 180.159 L2111.12 180.159 L2111.12 216.178 L2106.86 216.178 L2106.86 180.159 Z" fill="#000000" fill-rule="evenodd" fill-opacity="1" /><path clip-path="url(#clip210)" d="M2119.6 205.946 L2119.6 190.252 L2123.85 190.252 L2123.85 205.784 Q2123.85 209.465 2125.29 211.316 Q2126.73 213.145 2129.6 213.145 Q2133.04 213.145 2135.04 210.946 Q2137.05 208.747 2137.05 204.951 L2137.05 190.252 L2141.31 190.252 L2141.31 216.178 L2137.05 216.178 L2137.05 212.196 Q2135.5 214.557 2133.44 215.715 Q2131.4 216.849 2128.69 216.849 Q2124.23 216.849 2121.91 214.071 Q2119.6 211.293 2119.6 205.946 M2130.31 189.627 L2130.31 189.627 Z" fill="#000000" fill-rule="evenodd" fill-opacity="1" /><path clip-path="url(#clip210)" d="M2154.29 182.891 L2154.29 190.252 L2163.07 190.252 L2163.07 193.562 L2154.29 193.562 L2154.29 207.636 Q2154.29 210.807 2155.15 211.71 Q2156.03 212.613 2158.69 212.613 L2163.07 212.613 L2163.07 216.178 L2158.69 216.178 Q2153.76 216.178 2151.89 214.349 Q2150.01 212.497 2150.01 207.636 L2150.01 193.562 L2146.89 193.562 L2146.89 190.252 L2150.01 190.252 L2150.01 182.891 L2154.29 182.891 Z" fill="#000000" fill-rule="evenodd" fill-opacity="1" /><path clip-path="url(#clip210)" d="M2168.67 190.252 L2172.93 190.252 L2172.93 216.178 L2168.67 216.178 L2168.67 190.252 M2168.67 180.159 L2172.93 180.159 L2172.93 185.553 L2168.67 185.553 L2168.67 180.159 Z" fill="#000000" fill-rule="evenodd" fill-opacity="1" /><path clip-path="url(#clip210)" d="M2191.89 193.238 Q2188.46 193.238 2186.47 195.923 Q2184.48 198.585 2184.48 203.238 Q2184.48 207.891 2186.45 210.576 Q2188.44 213.238 2191.89 213.238 Q2195.29 213.238 2197.28 210.553 Q2199.27 207.867 2199.27 203.238 Q2199.27 198.631 2197.28 195.946 Q2195.29 193.238 2191.89 193.238 M2191.89 189.627 Q2197.44 189.627 2200.61 193.238 Q2203.78 196.849 2203.78 203.238 Q2203.78 209.604 2200.61 213.238 Q2197.44 216.849 2191.89 216.849 Q2186.31 216.849 2183.14 213.238 Q2179.99 209.604 2179.99 203.238 Q2179.99 196.849 2183.14 193.238 Q2186.31 189.627 2191.89 189.627 Z" fill="#000000" fill-rule="evenodd" fill-opacity="1" /><path clip-path="url(#clip210)" d="M2232.4 200.529 L2232.4 216.178 L2228.14 216.178 L2228.14 200.668 Q2228.14 196.988 2226.7 195.159 Q2225.27 193.33 2222.4 193.33 Q2218.95 193.33 2216.96 195.53 Q2214.97 197.729 2214.97 201.525 L2214.97 216.178 L2210.68 216.178 L2210.68 190.252 L2214.97 190.252 L2214.97 194.28 Q2216.49 191.942 2218.55 190.784 Q2220.64 189.627 2223.34 189.627 Q2227.81 189.627 2230.1 192.405 Q2232.4 195.159 2232.4 200.529 Z" fill="#000000" fill-rule="evenodd" fill-opacity="1" /></svg>
