<?xml version="1.0" encoding="utf-8"?>
<svg xmlns="http://www.w3.org/2000/svg" xmlns:xlink="http://www.w3.org/1999/xlink" width="600" height="400" viewBox="0 0 2400 1600">
<defs>
  <clipPath id="clip980">
    <rect x="0" y="0" width="2400" height="1600"/>
  </clipPath>
</defs>
<path clip-path="url(#clip980)" d="
M0 1600 L2400 1600 L2400 0 L0 0  Z
  " fill="#ffffff" fill-rule="evenodd" fill-opacity="1"/>
<defs>
  <clipPath id="clip981">
    <rect x="480" y="0" width="1681" height="1600"/>
  </clipPath>
</defs>
<path clip-path="url(#clip980)" d="
M216.436 1486.45 L2352.76 1486.45 L2352.76 123.472 L216.436 123.472  Z
  " fill="#ffffff" fill-rule="evenodd" fill-opacity="1"/>
<defs>
  <clipPath id="clip982">
    <rect x="216" y="123" width="2137" height="1364"/>
  </clipPath>
</defs>
<polyline clip-path="url(#clip982)" style="stroke:#000000; stroke-linecap:butt; stroke-linejoin:round; stroke-width:2; stroke-opacity:0.1; fill:none" points="
  276.898,1486.45 276.898,123.472 
  "/>
<polyline clip-path="url(#clip982)" style="stroke:#000000; stroke-linecap:butt; stroke-linejoin:round; stroke-width:2; stroke-opacity:0.1; fill:none" points="
  780.747,1486.45 780.747,123.472 
  "/>
<polyline clip-path="url(#clip982)" style="stroke:#000000; stroke-linecap:butt; stroke-linejoin:round; stroke-width:2; stroke-opacity:0.1; fill:none" points="
  1284.6,1486.45 1284.6,123.472 
  "/>
<polyline clip-path="url(#clip982)" style="stroke:#000000; stroke-linecap:butt; stroke-linejoin:round; stroke-width:2; stroke-opacity:0.1; fill:none" points="
  1788.44,1486.45 1788.44,123.472 
  "/>
<polyline clip-path="url(#clip982)" style="stroke:#000000; stroke-linecap:butt; stroke-linejoin:round; stroke-width:2; stroke-opacity:0.1; fill:none" points="
  2292.29,1486.45 2292.29,123.472 
  "/>
<polyline clip-path="url(#clip980)" style="stroke:#000000; stroke-linecap:butt; stroke-linejoin:round; stroke-width:4; stroke-opacity:1; fill:none" points="
  216.436,1486.45 2352.76,1486.45 
  "/>
<polyline clip-path="url(#clip980)" style="stroke:#000000; stroke-linecap:butt; stroke-linejoin:round; stroke-width:4; stroke-opacity:1; fill:none" points="
  276.898,1486.45 276.898,1467.55 
  "/>
<polyline clip-path="url(#clip980)" style="stroke:#000000; stroke-linecap:butt; stroke-linejoin:round; stroke-width:4; stroke-opacity:1; fill:none" points="
  780.747,1486.45 780.747,1467.55 
  "/>
<polyline clip-path="url(#clip980)" style="stroke:#000000; stroke-linecap:butt; stroke-linejoin:round; stroke-width:4; stroke-opacity:1; fill:none" points="
  1284.6,1486.45 1284.6,1467.55 
  "/>
<polyline clip-path="url(#clip980)" style="stroke:#000000; stroke-linecap:butt; stroke-linejoin:round; stroke-width:4; stroke-opacity:1; fill:none" points="
  1788.44,1486.45 1788.44,1467.55 
  "/>
<polyline clip-path="url(#clip980)" style="stroke:#000000; stroke-linecap:butt; stroke-linejoin:round; stroke-width:4; stroke-opacity:1; fill:none" points="
  2292.29,1486.45 2292.29,1467.55 
  "/>
<path clip-path="url(#clip980)" d="M223.426 1532.02 L253.102 1532.02 L253.102 1535.95 L223.426 1535.95 L223.426 1532.02 Z" fill="#000000" fill-rule="evenodd" fill-opacity="1" /><path clip-path="url(#clip980)" d="M264.004 1544.91 L271.643 1544.91 L271.643 1518.55 L263.333 1520.21 L263.333 1515.95 L271.597 1514.29 L276.273 1514.29 L276.273 1544.91 L283.912 1544.91 L283.912 1548.85 L264.004 1548.85 L264.004 1544.91 Z" fill="#000000" fill-rule="evenodd" fill-opacity="1" /><path clip-path="url(#clip980)" d="M293.356 1542.97 L298.24 1542.97 L298.24 1548.85 L293.356 1548.85 L293.356 1542.97 Z" fill="#000000" fill-rule="evenodd" fill-opacity="1" /><path clip-path="url(#clip980)" d="M318.425 1517.37 Q314.814 1517.37 312.986 1520.93 Q311.18 1524.47 311.18 1531.6 Q311.18 1538.71 312.986 1542.27 Q314.814 1545.82 318.425 1545.82 Q322.06 1545.82 323.865 1542.27 Q325.694 1538.71 325.694 1531.6 Q325.694 1524.47 323.865 1520.93 Q322.06 1517.37 318.425 1517.37 M318.425 1513.66 Q324.235 1513.66 327.291 1518.27 Q330.37 1522.85 330.37 1531.6 Q330.37 1540.33 327.291 1544.94 Q324.235 1549.52 318.425 1549.52 Q312.615 1549.52 309.536 1544.94 Q306.481 1540.33 306.481 1531.6 Q306.481 1522.85 309.536 1518.27 Q312.615 1513.66 318.425 1513.66 Z" fill="#000000" fill-rule="evenodd" fill-opacity="1" /><path clip-path="url(#clip980)" d="M727.773 1532.02 L757.448 1532.02 L757.448 1535.95 L727.773 1535.95 L727.773 1532.02 Z" fill="#000000" fill-rule="evenodd" fill-opacity="1" /><path clip-path="url(#clip980)" d="M777.541 1517.37 Q773.93 1517.37 772.101 1520.93 Q770.295 1524.47 770.295 1531.6 Q770.295 1538.71 772.101 1542.27 Q773.93 1545.82 777.541 1545.82 Q781.175 1545.82 782.981 1542.27 Q784.809 1538.71 784.809 1531.6 Q784.809 1524.47 782.981 1520.93 Q781.175 1517.37 777.541 1517.37 M777.541 1513.66 Q783.351 1513.66 786.407 1518.27 Q789.485 1522.85 789.485 1531.6 Q789.485 1540.33 786.407 1544.94 Q783.351 1549.52 777.541 1549.52 Q771.731 1549.52 768.652 1544.94 Q765.596 1540.33 765.596 1531.6 Q765.596 1522.85 768.652 1518.27 Q771.731 1513.66 777.541 1513.66 Z" fill="#000000" fill-rule="evenodd" fill-opacity="1" /><path clip-path="url(#clip980)" d="M797.703 1542.97 L802.587 1542.97 L802.587 1548.85 L797.703 1548.85 L797.703 1542.97 Z" fill="#000000" fill-rule="evenodd" fill-opacity="1" /><path clip-path="url(#clip980)" d="M812.818 1514.29 L831.175 1514.29 L831.175 1518.22 L817.101 1518.22 L817.101 1526.7 Q818.119 1526.35 819.138 1526.19 Q820.156 1526 821.175 1526 Q826.962 1526 830.341 1529.17 Q833.721 1532.34 833.721 1537.76 Q833.721 1543.34 830.249 1546.44 Q826.777 1549.52 820.457 1549.52 Q818.281 1549.52 816.013 1549.15 Q813.767 1548.78 811.36 1548.04 L811.36 1543.34 Q813.443 1544.47 815.666 1545.03 Q817.888 1545.58 820.365 1545.58 Q824.369 1545.58 826.707 1543.48 Q829.045 1541.37 829.045 1537.76 Q829.045 1534.15 826.707 1532.04 Q824.369 1529.94 820.365 1529.94 Q818.49 1529.94 816.615 1530.35 Q814.763 1530.77 812.818 1531.65 L812.818 1514.29 Z" fill="#000000" fill-rule="evenodd" fill-opacity="1" /><path clip-path="url(#clip980)" d="M1261.98 1517.37 Q1258.37 1517.37 1256.54 1520.93 Q1254.73 1524.47 1254.73 1531.6 Q1254.73 1538.71 1256.54 1542.27 Q1258.37 1545.82 1261.98 1545.82 Q1265.61 1545.82 1267.42 1542.27 Q1269.25 1538.71 1269.25 1531.6 Q1269.25 1524.47 1267.42 1520.93 Q1265.61 1517.37 1261.98 1517.37 M1261.98 1513.66 Q1267.79 1513.66 1270.85 1518.27 Q1273.92 1522.85 1273.92 1531.6 Q1273.92 1540.33 1270.85 1544.94 Q1267.79 1549.52 1261.98 1549.52 Q1256.17 1549.52 1253.09 1544.94 Q1250.04 1540.33 1250.04 1531.6 Q1250.04 1522.85 1253.09 1518.27 Q1256.17 1513.66 1261.98 1513.66 Z" fill="#000000" fill-rule="evenodd" fill-opacity="1" /><path clip-path="url(#clip980)" d="M1282.14 1542.97 L1287.03 1542.97 L1287.03 1548.85 L1282.14 1548.85 L1282.14 1542.97 Z" fill="#000000" fill-rule="evenodd" fill-opacity="1" /><path clip-path="url(#clip980)" d="M1307.21 1517.37 Q1303.6 1517.37 1301.77 1520.93 Q1299.97 1524.47 1299.97 1531.6 Q1299.97 1538.71 1301.77 1542.27 Q1303.6 1545.82 1307.21 1545.82 Q1310.85 1545.82 1312.65 1542.27 Q1314.48 1538.71 1314.48 1531.6 Q1314.48 1524.47 1312.65 1520.93 Q1310.85 1517.37 1307.21 1517.37 M1307.21 1513.66 Q1313.02 1513.66 1316.08 1518.27 Q1319.16 1522.85 1319.16 1531.6 Q1319.16 1540.33 1316.08 1544.94 Q1313.02 1549.52 1307.21 1549.52 Q1301.4 1549.52 1298.32 1544.94 Q1295.27 1540.33 1295.27 1531.6 Q1295.27 1522.85 1298.32 1518.27 Q1301.4 1513.66 1307.21 1513.66 Z" fill="#000000" fill-rule="evenodd" fill-opacity="1" /><path clip-path="url(#clip980)" d="M1766.33 1517.37 Q1762.72 1517.37 1760.89 1520.93 Q1759.08 1524.47 1759.08 1531.6 Q1759.08 1538.71 1760.89 1542.27 Q1762.72 1545.82 1766.33 1545.82 Q1769.96 1545.82 1771.77 1542.27 Q1773.6 1538.71 1773.6 1531.6 Q1773.6 1524.47 1771.77 1520.93 Q1769.96 1517.37 1766.33 1517.37 M1766.33 1513.66 Q1772.14 1513.66 1775.19 1518.27 Q1778.27 1522.85 1778.27 1531.6 Q1778.27 1540.33 1775.19 1544.94 Q1772.14 1549.52 1766.33 1549.52 Q1760.52 1549.52 1757.44 1544.94 Q1754.38 1540.33 1754.38 1531.6 Q1754.38 1522.85 1757.44 1518.27 Q1760.52 1513.66 1766.33 1513.66 Z" fill="#000000" fill-rule="evenodd" fill-opacity="1" /><path clip-path="url(#clip980)" d="M1786.49 1542.97 L1791.37 1542.97 L1791.37 1548.85 L1786.49 1548.85 L1786.49 1542.97 Z" fill="#000000" fill-rule="evenodd" fill-opacity="1" /><path clip-path="url(#clip980)" d="M1801.6 1514.29 L1819.96 1514.29 L1819.96 1518.22 L1805.89 1518.22 L1805.89 1526.7 Q1806.91 1526.35 1807.92 1526.19 Q1808.94 1526 1809.96 1526 Q1815.75 1526 1819.13 1529.17 Q1822.51 1532.34 1822.51 1537.76 Q1822.51 1543.34 1819.04 1546.44 Q1815.56 1549.52 1809.24 1549.52 Q1807.07 1549.52 1804.8 1549.15 Q1802.55 1548.78 1800.15 1548.04 L1800.15 1543.34 Q1802.23 1544.47 1804.45 1545.03 Q1806.67 1545.58 1809.15 1545.58 Q1813.16 1545.58 1815.49 1543.48 Q1817.83 1541.37 1817.83 1537.76 Q1817.83 1534.15 1815.49 1532.04 Q1813.16 1529.94 1809.15 1529.94 Q1807.28 1529.94 1805.4 1530.35 Q1803.55 1530.77 1801.6 1531.65 L1801.6 1514.29 Z" fill="#000000" fill-rule="evenodd" fill-opacity="1" /><path clip-path="url(#clip980)" d="M2259.45 1544.91 L2267.09 1544.91 L2267.09 1518.55 L2258.78 1520.21 L2258.78 1515.95 L2267.04 1514.29 L2271.72 1514.29 L2271.72 1544.91 L2279.35 1544.91 L2279.35 1548.85 L2259.45 1548.85 L2259.45 1544.91 Z" fill="#000000" fill-rule="evenodd" fill-opacity="1" /><path clip-path="url(#clip980)" d="M2288.8 1542.97 L2293.68 1542.97 L2293.68 1548.85 L2288.8 1548.85 L2288.8 1542.97 Z" fill="#000000" fill-rule="evenodd" fill-opacity="1" /><path clip-path="url(#clip980)" d="M2313.87 1517.37 Q2310.26 1517.37 2308.43 1520.93 Q2306.62 1524.47 2306.62 1531.6 Q2306.62 1538.71 2308.43 1542.27 Q2310.26 1545.82 2313.87 1545.82 Q2317.5 1545.82 2319.31 1542.27 Q2321.14 1538.71 2321.14 1531.6 Q2321.14 1524.47 2319.31 1520.93 Q2317.5 1517.37 2313.87 1517.37 M2313.87 1513.66 Q2319.68 1513.66 2322.73 1518.27 Q2325.81 1522.85 2325.81 1531.6 Q2325.81 1540.33 2322.73 1544.94 Q2319.68 1549.52 2313.87 1549.52 Q2308.06 1549.52 2304.98 1544.94 Q2301.92 1540.33 2301.92 1531.6 Q2301.92 1522.85 2304.98 1518.27 Q2308.06 1513.66 2313.87 1513.66 Z" fill="#000000" fill-rule="evenodd" fill-opacity="1" /><polyline clip-path="url(#clip982)" style="stroke:#000000; stroke-linecap:butt; stroke-linejoin:round; stroke-width:2; stroke-opacity:0.1; fill:none" points="
  216.436,1447.87 2352.76,1447.87 
  "/>
<polyline clip-path="url(#clip982)" style="stroke:#000000; stroke-linecap:butt; stroke-linejoin:round; stroke-width:2; stroke-opacity:0.1; fill:none" points="
  216.436,1113.84 2352.76,1113.84 
  "/>
<polyline clip-path="url(#clip982)" style="stroke:#000000; stroke-linecap:butt; stroke-linejoin:round; stroke-width:2; stroke-opacity:0.1; fill:none" points="
  216.436,779.797 2352.76,779.797 
  "/>
<polyline clip-path="url(#clip982)" style="stroke:#000000; stroke-linecap:butt; stroke-linejoin:round; stroke-width:2; stroke-opacity:0.1; fill:none" points="
  216.436,445.76 2352.76,445.76 
  "/>
<polyline clip-path="url(#clip980)" style="stroke:#000000; stroke-linecap:butt; stroke-linejoin:round; stroke-width:4; stroke-opacity:1; fill:none" points="
  216.436,1486.45 216.436,123.472 
  "/>
<polyline clip-path="url(#clip980)" style="stroke:#000000; stroke-linecap:butt; stroke-linejoin:round; stroke-width:4; stroke-opacity:1; fill:none" points="
  216.436,1447.87 235.334,1447.87 
  "/>
<polyline clip-path="url(#clip980)" style="stroke:#000000; stroke-linecap:butt; stroke-linejoin:round; stroke-width:4; stroke-opacity:1; fill:none" points="
  216.436,1113.84 235.334,1113.84 
  "/>
<polyline clip-path="url(#clip980)" style="stroke:#000000; stroke-linecap:butt; stroke-linejoin:round; stroke-width:4; stroke-opacity:1; fill:none" points="
  216.436,779.797 235.334,779.797 
  "/>
<polyline clip-path="url(#clip980)" style="stroke:#000000; stroke-linecap:butt; stroke-linejoin:round; stroke-width:4; stroke-opacity:1; fill:none" points="
  216.436,445.76 235.334,445.76 
  "/>
<path clip-path="url(#clip980)" d="M62.9365 1433.67 Q59.3254 1433.67 57.4967 1437.24 Q55.6912 1440.78 55.6912 1447.91 Q55.6912 1455.01 57.4967 1458.58 Q59.3254 1462.12 62.9365 1462.12 Q66.5707 1462.12 68.3763 1458.58 Q70.205 1455.01 70.205 1447.91 Q70.205 1440.78 68.3763 1437.24 Q66.5707 1433.67 62.9365 1433.67 M62.9365 1429.97 Q68.7467 1429.97 71.8022 1434.57 Q74.8809 1439.16 74.8809 1447.91 Q74.8809 1456.63 71.8022 1461.24 Q68.7467 1465.82 62.9365 1465.82 Q57.1264 1465.82 54.0477 1461.24 Q50.9921 1456.63 50.9921 1447.91 Q50.9921 1439.16 54.0477 1434.57 Q57.1264 1429.97 62.9365 1429.97 Z" fill="#000000" fill-rule="evenodd" fill-opacity="1" /><path clip-path="url(#clip980)" d="M83.0984 1459.27 L87.9827 1459.27 L87.9827 1465.15 L83.0984 1465.15 L83.0984 1459.27 Z" fill="#000000" fill-rule="evenodd" fill-opacity="1" /><path clip-path="url(#clip980)" d="M108.168 1433.67 Q104.557 1433.67 102.728 1437.24 Q100.922 1440.78 100.922 1447.91 Q100.922 1455.01 102.728 1458.58 Q104.557 1462.12 108.168 1462.12 Q111.802 1462.12 113.608 1458.58 Q115.436 1455.01 115.436 1447.91 Q115.436 1440.78 113.608 1437.24 Q111.802 1433.67 108.168 1433.67 M108.168 1429.97 Q113.978 1429.97 117.033 1434.57 Q120.112 1439.16 120.112 1447.91 Q120.112 1456.63 117.033 1461.24 Q113.978 1465.82 108.168 1465.82 Q102.358 1465.82 99.2789 1461.24 Q96.2234 1456.63 96.2234 1447.91 Q96.2234 1439.16 99.2789 1434.57 Q102.358 1429.97 108.168 1429.97 Z" fill="#000000" fill-rule="evenodd" fill-opacity="1" /><path clip-path="url(#clip980)" d="M138.33 1433.67 Q134.719 1433.67 132.89 1437.24 Q131.084 1440.78 131.084 1447.91 Q131.084 1455.01 132.89 1458.58 Q134.719 1462.12 138.33 1462.12 Q141.964 1462.12 143.769 1458.58 Q145.598 1455.01 145.598 1447.91 Q145.598 1440.78 143.769 1437.24 Q141.964 1433.67 138.33 1433.67 M138.33 1429.97 Q144.14 1429.97 147.195 1434.57 Q150.274 1439.16 150.274 1447.91 Q150.274 1456.63 147.195 1461.24 Q144.14 1465.82 138.33 1465.82 Q132.519 1465.82 129.441 1461.24 Q126.385 1456.63 126.385 1447.91 Q126.385 1439.16 129.441 1434.57 Q132.519 1429.97 138.33 1429.97 Z" fill="#000000" fill-rule="evenodd" fill-opacity="1" /><path clip-path="url(#clip980)" d="M168.491 1433.67 Q164.88 1433.67 163.052 1437.24 Q161.246 1440.78 161.246 1447.91 Q161.246 1455.01 163.052 1458.58 Q164.88 1462.12 168.491 1462.12 Q172.126 1462.12 173.931 1458.58 Q175.76 1455.01 175.76 1447.91 Q175.76 1440.78 173.931 1437.24 Q172.126 1433.67 168.491 1433.67 M168.491 1429.97 Q174.302 1429.97 177.357 1434.57 Q180.436 1439.16 180.436 1447.91 Q180.436 1456.63 177.357 1461.24 Q174.302 1465.82 168.491 1465.82 Q162.681 1465.82 159.603 1461.24 Q156.547 1456.63 156.547 1447.91 Q156.547 1439.16 159.603 1434.57 Q162.681 1429.97 168.491 1429.97 Z" fill="#000000" fill-rule="evenodd" fill-opacity="1" /><path clip-path="url(#clip980)" d="M63.9319 1099.63 Q60.3208 1099.63 58.4921 1103.2 Q56.6865 1106.74 56.6865 1113.87 Q56.6865 1120.98 58.4921 1124.54 Q60.3208 1128.08 63.9319 1128.08 Q67.5661 1128.08 69.3717 1124.54 Q71.2004 1120.98 71.2004 1113.87 Q71.2004 1106.74 69.3717 1103.2 Q67.5661 1099.63 63.9319 1099.63 M63.9319 1095.93 Q69.742 1095.93 72.7976 1100.54 Q75.8763 1105.12 75.8763 1113.87 Q75.8763 1122.6 72.7976 1127.2 Q69.742 1131.79 63.9319 1131.79 Q58.1217 1131.79 55.043 1127.2 Q51.9875 1122.6 51.9875 1113.87 Q51.9875 1105.12 55.043 1100.54 Q58.1217 1095.93 63.9319 1095.93 Z" fill="#000000" fill-rule="evenodd" fill-opacity="1" /><path clip-path="url(#clip980)" d="M84.0938 1125.24 L88.978 1125.24 L88.978 1131.12 L84.0938 1131.12 L84.0938 1125.24 Z" fill="#000000" fill-rule="evenodd" fill-opacity="1" /><path clip-path="url(#clip980)" d="M109.163 1099.63 Q105.552 1099.63 103.723 1103.2 Q101.918 1106.74 101.918 1113.87 Q101.918 1120.98 103.723 1124.54 Q105.552 1128.08 109.163 1128.08 Q112.797 1128.08 114.603 1124.54 Q116.432 1120.98 116.432 1113.87 Q116.432 1106.74 114.603 1103.2 Q112.797 1099.63 109.163 1099.63 M109.163 1095.93 Q114.973 1095.93 118.029 1100.54 Q121.107 1105.12 121.107 1113.87 Q121.107 1122.6 118.029 1127.2 Q114.973 1131.79 109.163 1131.79 Q103.353 1131.79 100.274 1127.2 Q97.2187 1122.6 97.2187 1113.87 Q97.2187 1105.12 100.274 1100.54 Q103.353 1095.93 109.163 1095.93 Z" fill="#000000" fill-rule="evenodd" fill-opacity="1" /><path clip-path="url(#clip980)" d="M139.325 1099.63 Q135.714 1099.63 133.885 1103.2 Q132.08 1106.74 132.08 1113.87 Q132.08 1120.98 133.885 1124.54 Q135.714 1128.08 139.325 1128.08 Q142.959 1128.08 144.765 1124.54 Q146.593 1120.98 146.593 1113.87 Q146.593 1106.74 144.765 1103.2 Q142.959 1099.63 139.325 1099.63 M139.325 1095.93 Q145.135 1095.93 148.191 1100.54 Q151.269 1105.12 151.269 1113.87 Q151.269 1122.6 148.191 1127.2 Q145.135 1131.79 139.325 1131.79 Q133.515 1131.79 130.436 1127.2 Q127.381 1122.6 127.381 1113.87 Q127.381 1105.12 130.436 1100.54 Q133.515 1095.93 139.325 1095.93 Z" fill="#000000" fill-rule="evenodd" fill-opacity="1" /><path clip-path="url(#clip980)" d="M159.533 1096.56 L177.89 1096.56 L177.89 1100.49 L163.816 1100.49 L163.816 1108.96 Q164.834 1108.62 165.853 1108.45 Q166.871 1108.27 167.89 1108.27 Q173.677 1108.27 177.056 1111.44 Q180.436 1114.61 180.436 1120.03 Q180.436 1125.61 176.964 1128.71 Q173.491 1131.79 167.172 1131.79 Q164.996 1131.79 162.728 1131.42 Q160.482 1131.05 158.075 1130.31 L158.075 1125.61 Q160.158 1126.74 162.38 1127.3 Q164.603 1127.85 167.079 1127.85 Q171.084 1127.85 173.422 1125.74 Q175.76 1123.64 175.76 1120.03 Q175.76 1116.42 173.422 1114.31 Q171.084 1112.2 167.079 1112.2 Q165.204 1112.2 163.329 1112.62 Q161.478 1113.04 159.533 1113.92 L159.533 1096.56 Z" fill="#000000" fill-rule="evenodd" fill-opacity="1" /><path clip-path="url(#clip980)" d="M62.9365 765.596 Q59.3254 765.596 57.4967 769.161 Q55.6912 772.703 55.6912 779.832 Q55.6912 786.939 57.4967 790.503 Q59.3254 794.045 62.9365 794.045 Q66.5707 794.045 68.3763 790.503 Q70.205 786.939 70.205 779.832 Q70.205 772.703 68.3763 769.161 Q66.5707 765.596 62.9365 765.596 M62.9365 761.892 Q68.7467 761.892 71.8022 766.499 Q74.8809 771.082 74.8809 779.832 Q74.8809 788.559 71.8022 793.165 Q68.7467 797.749 62.9365 797.749 Q57.1264 797.749 54.0477 793.165 Q50.9921 788.559 50.9921 779.832 Q50.9921 771.082 54.0477 766.499 Q57.1264 761.892 62.9365 761.892 Z" fill="#000000" fill-rule="evenodd" fill-opacity="1" /><path clip-path="url(#clip980)" d="M83.0984 791.198 L87.9827 791.198 L87.9827 797.077 L83.0984 797.077 L83.0984 791.198 Z" fill="#000000" fill-rule="evenodd" fill-opacity="1" /><path clip-path="url(#clip980)" d="M108.168 765.596 Q104.557 765.596 102.728 769.161 Q100.922 772.703 100.922 779.832 Q100.922 786.939 102.728 790.503 Q104.557 794.045 108.168 794.045 Q111.802 794.045 113.608 790.503 Q115.436 786.939 115.436 779.832 Q115.436 772.703 113.608 769.161 Q111.802 765.596 108.168 765.596 M108.168 761.892 Q113.978 761.892 117.033 766.499 Q120.112 771.082 120.112 779.832 Q120.112 788.559 117.033 793.165 Q113.978 797.749 108.168 797.749 Q102.358 797.749 99.2789 793.165 Q96.2234 788.559 96.2234 779.832 Q96.2234 771.082 99.2789 766.499 Q102.358 761.892 108.168 761.892 Z" fill="#000000" fill-rule="evenodd" fill-opacity="1" /><path clip-path="url(#clip980)" d="M129.14 793.142 L136.779 793.142 L136.779 766.777 L128.469 768.443 L128.469 764.184 L136.732 762.517 L141.408 762.517 L141.408 793.142 L149.047 793.142 L149.047 797.077 L129.14 797.077 L129.14 793.142 Z" fill="#000000" fill-rule="evenodd" fill-opacity="1" /><path clip-path="url(#clip980)" d="M168.491 765.596 Q164.88 765.596 163.052 769.161 Q161.246 772.703 161.246 779.832 Q161.246 786.939 163.052 790.503 Q164.88 794.045 168.491 794.045 Q172.126 794.045 173.931 790.503 Q175.76 786.939 175.76 779.832 Q175.76 772.703 173.931 769.161 Q172.126 765.596 168.491 765.596 M168.491 761.892 Q174.302 761.892 177.357 766.499 Q180.436 771.082 180.436 779.832 Q180.436 788.559 177.357 793.165 Q174.302 797.749 168.491 797.749 Q162.681 797.749 159.603 793.165 Q156.547 788.559 156.547 779.832 Q156.547 771.082 159.603 766.499 Q162.681 761.892 168.491 761.892 Z" fill="#000000" fill-rule="evenodd" fill-opacity="1" /><path clip-path="url(#clip980)" d="M63.9319 431.558 Q60.3208 431.558 58.4921 435.123 Q56.6865 438.665 56.6865 445.794 Q56.6865 452.901 58.4921 456.466 Q60.3208 460.007 63.9319 460.007 Q67.5661 460.007 69.3717 456.466 Q71.2004 452.901 71.2004 445.794 Q71.2004 438.665 69.3717 435.123 Q67.5661 431.558 63.9319 431.558 M63.9319 427.855 Q69.742 427.855 72.7976 432.461 Q75.8763 437.044 75.8763 445.794 Q75.8763 454.521 72.7976 459.128 Q69.742 463.711 63.9319 463.711 Q58.1217 463.711 55.043 459.128 Q51.9875 454.521 51.9875 445.794 Q51.9875 437.044 55.043 432.461 Q58.1217 427.855 63.9319 427.855 Z" fill="#000000" fill-rule="evenodd" fill-opacity="1" /><path clip-path="url(#clip980)" d="M84.0938 457.16 L88.978 457.16 L88.978 463.04 L84.0938 463.04 L84.0938 457.16 Z" fill="#000000" fill-rule="evenodd" fill-opacity="1" /><path clip-path="url(#clip980)" d="M109.163 431.558 Q105.552 431.558 103.723 435.123 Q101.918 438.665 101.918 445.794 Q101.918 452.901 103.723 456.466 Q105.552 460.007 109.163 460.007 Q112.797 460.007 114.603 456.466 Q116.432 452.901 116.432 445.794 Q116.432 438.665 114.603 435.123 Q112.797 431.558 109.163 431.558 M109.163 427.855 Q114.973 427.855 118.029 432.461 Q121.107 437.044 121.107 445.794 Q121.107 454.521 118.029 459.128 Q114.973 463.711 109.163 463.711 Q103.353 463.711 100.274 459.128 Q97.2187 454.521 97.2187 445.794 Q97.2187 437.044 100.274 432.461 Q103.353 427.855 109.163 427.855 Z" fill="#000000" fill-rule="evenodd" fill-opacity="1" /><path clip-path="url(#clip980)" d="M130.135 459.104 L137.774 459.104 L137.774 432.739 L129.464 434.406 L129.464 430.146 L137.728 428.48 L142.404 428.48 L142.404 459.104 L150.043 459.104 L150.043 463.04 L130.135 463.04 L130.135 459.104 Z" fill="#000000" fill-rule="evenodd" fill-opacity="1" /><path clip-path="url(#clip980)" d="M159.533 428.48 L177.89 428.48 L177.89 432.415 L163.816 432.415 L163.816 440.887 Q164.834 440.54 165.853 440.378 Q166.871 440.193 167.89 440.193 Q173.677 440.193 177.056 443.364 Q180.436 446.535 180.436 451.952 Q180.436 457.53 176.964 460.632 Q173.491 463.711 167.172 463.711 Q164.996 463.711 162.728 463.341 Q160.482 462.97 158.075 462.229 L158.075 457.53 Q160.158 458.665 162.38 459.22 Q164.603 459.776 167.079 459.776 Q171.084 459.776 173.422 457.669 Q175.76 455.563 175.76 451.952 Q175.76 448.341 173.422 446.234 Q171.084 444.128 167.079 444.128 Q165.204 444.128 163.329 444.544 Q161.478 444.961 159.533 445.841 L159.533 428.48 Z" fill="#000000" fill-rule="evenodd" fill-opacity="1" /><path clip-path="url(#clip980)" d="M1125.23 18.8205 L1125.23 41.5461 L1135.52 41.5461 Q1141.23 41.5461 1144.35 38.5889 Q1147.47 35.6318 1147.47 30.163 Q1147.47 24.7348 1144.35 21.7777 Q1141.23 18.8205 1135.52 18.8205 L1125.23 18.8205 M1117.05 12.096 L1135.52 12.096 Q1145.69 12.096 1150.88 16.714 Q1156.1 21.2916 1156.1 30.163 Q1156.1 39.1155 1150.88 43.6931 Q1145.69 48.2706 1135.52 48.2706 L1125.23 48.2706 L1125.23 72.576 L1117.05 72.576 L1117.05 12.096 Z" fill="#000000" fill-rule="evenodd" fill-opacity="1" /><path clip-path="url(#clip980)" d="M1202.61 48.0275 L1202.61 51.6733 L1168.33 51.6733 Q1168.82 59.3701 1172.95 63.421 Q1177.13 67.4314 1184.54 67.4314 Q1188.83 67.4314 1192.84 66.3781 Q1196.89 65.3249 1200.86 63.2184 L1200.86 70.267 Q1196.85 71.9684 1192.64 72.8596 Q1188.43 73.7508 1184.09 73.7508 Q1173.24 73.7508 1166.88 67.4314 Q1160.56 61.1119 1160.56 50.3365 Q1160.56 39.1965 1166.55 32.6746 Q1172.59 26.1121 1182.8 26.1121 Q1191.95 26.1121 1197.26 32.0264 Q1202.61 37.9003 1202.61 48.0275 M1195.15 45.84 Q1195.07 39.7232 1191.71 36.0774 Q1188.39 32.4315 1182.88 32.4315 Q1176.64 32.4315 1172.87 35.9558 Q1169.15 39.4801 1168.58 45.8805 L1195.15 45.84 Z" fill="#000000" fill-rule="evenodd" fill-opacity="1" /><path clip-path="url(#clip980)" d="M1249.31 86.3491 L1249.31 92.1419 L1206.21 92.1419 L1206.21 86.3491 L1249.31 86.3491 Z" fill="#000000" fill-rule="evenodd" fill-opacity="1" /><path clip-path="url(#clip980)" d="M1294.03 45.1919 L1294.03 72.576 L1286.58 72.576 L1286.58 45.4349 Q1286.58 38.994 1284.07 35.7938 Q1281.56 32.5936 1276.53 32.5936 Q1270.5 32.5936 1267.01 36.4419 Q1263.53 40.2903 1263.53 46.9338 L1263.53 72.576 L1256.04 72.576 L1256.04 9.54393 L1263.53 9.54393 L1263.53 34.2544 Q1266.2 30.163 1269.81 28.1376 Q1273.46 26.1121 1278.2 26.1121 Q1286.01 26.1121 1290.02 30.9732 Q1294.03 35.7938 1294.03 45.1919 Z" fill="#000000" fill-rule="evenodd" fill-opacity="1" /><path clip-path="url(#clip980)" d="M1353.83 17.4837 Q1347.51 17.4837 1344.31 23.7221 Q1341.15 29.92 1341.15 42.3968 Q1341.15 54.833 1344.31 61.0714 Q1347.51 67.2693 1353.83 67.2693 Q1360.19 67.2693 1363.35 61.0714 Q1366.55 54.833 1366.55 42.3968 Q1366.55 29.92 1363.35 23.7221 Q1360.19 17.4837 1353.83 17.4837 M1353.83 11.0023 Q1363.99 11.0023 1369.34 19.0636 Q1374.73 27.0843 1374.73 42.3968 Q1374.73 57.6687 1369.34 65.73 Q1363.99 73.7508 1353.83 73.7508 Q1343.66 73.7508 1338.27 65.73 Q1332.92 57.6687 1332.92 42.3968 Q1332.92 27.0843 1338.27 19.0636 Q1343.66 11.0023 1353.83 11.0023 Z" fill="#000000" fill-rule="evenodd" fill-opacity="1" /><path clip-path="url(#clip980)" d="M1389.11 62.2867 L1397.66 62.2867 L1397.66 72.576 L1389.11 72.576 L1389.11 62.2867 Z" fill="#000000" fill-rule="evenodd" fill-opacity="1" /><path clip-path="url(#clip980)" d="M1415.56 12.096 L1447.69 12.096 L1447.69 18.9825 L1423.06 18.9825 L1423.06 33.8088 Q1424.84 33.2012 1426.62 32.9176 Q1428.4 32.5936 1430.19 32.5936 Q1440.31 32.5936 1446.23 38.1433 Q1452.14 43.6931 1452.14 53.1722 Q1452.14 62.9348 1446.06 68.3631 Q1439.99 73.7508 1428.93 73.7508 Q1425.12 73.7508 1421.15 73.1026 Q1417.22 72.4545 1413.01 71.1582 L1413.01 62.9348 Q1416.66 64.9198 1420.54 65.892 Q1424.43 66.8642 1428.77 66.8642 Q1435.78 66.8642 1439.87 63.1779 Q1443.96 59.4916 1443.96 53.1722 Q1443.96 46.8528 1439.87 43.1664 Q1435.78 39.4801 1428.77 39.4801 Q1425.49 39.4801 1422.21 40.2093 Q1418.96 40.9384 1415.56 42.4778 L1415.56 12.096 Z" fill="#000000" fill-rule="evenodd" fill-opacity="1" /><polyline clip-path="url(#clip982)" style="stroke:#009af9; stroke-linecap:butt; stroke-linejoin:round; stroke-width:12; stroke-opacity:1; fill:none" points="
  276.898,1447.87 281.949,1444.52 287,1441.18 292.051,1437.83 297.102,1434.48 302.153,1431.13 307.204,1427.78 312.256,1424.43 317.307,1421.08 322.358,1417.73 
  327.409,1414.39 332.46,1411.04 337.511,1407.69 342.562,1404.34 347.613,1400.99 352.665,1397.64 357.716,1394.29 362.767,1390.94 367.818,1387.6 372.869,1384.25 
  377.92,1380.9 382.971,1377.55 388.022,1374.2 393.073,1370.85 398.125,1367.5 403.176,1364.15 408.227,1360.81 413.278,1357.46 418.329,1354.11 423.38,1350.76 
  428.431,1347.41 433.482,1344.06 438.534,1340.71 443.585,1337.36 448.636,1334.02 453.687,1330.67 458.738,1327.32 463.789,1323.97 468.84,1320.62 473.891,1317.27 
  478.943,1313.92 483.994,1310.57 489.045,1307.23 494.096,1303.88 499.147,1300.53 504.198,1297.18 509.249,1293.83 514.3,1290.48 519.351,1287.13 524.403,1283.78 
  529.454,1280.44 534.505,1277.09 539.556,1273.74 544.607,1270.39 549.658,1267.04 554.709,1263.69 559.76,1260.34 564.812,1256.99 569.863,1253.65 574.914,1250.3 
  579.965,1246.95 585.016,1243.6 590.067,1240.25 595.118,1236.9 600.169,1233.55 605.22,1230.2 610.272,1226.86 615.323,1223.51 620.374,1220.16 625.425,1216.81 
  630.476,1213.46 635.527,1210.11 640.578,1206.76 645.629,1203.41 650.681,1200.07 655.732,1196.72 660.783,1193.37 665.834,1190.02 670.885,1186.67 675.936,1183.32 
  680.987,1179.97 686.038,1176.62 691.089,1173.28 696.141,1169.93 701.192,1166.58 706.243,1163.23 711.294,1159.88 716.345,1156.53 721.396,1153.18 726.447,1149.83 
  731.498,1146.49 736.55,1143.14 741.601,1139.79 746.652,1136.44 751.703,1133.09 756.754,1129.74 761.805,1126.39 766.856,1123.04 771.907,1119.7 776.958,1116.35 
  782.01,1113 787.061,1109.65 792.112,1106.3 797.163,1102.95 802.214,1099.6 807.265,1096.25 812.316,1092.91 817.367,1089.56 822.419,1086.21 827.47,1082.86 
  832.521,1079.51 837.572,1076.16 842.623,1072.81 847.674,1069.46 852.725,1066.12 857.776,1062.77 862.828,1059.42 867.879,1056.07 872.93,1052.72 877.981,1049.37 
  883.032,1046.02 888.083,1042.67 893.134,1039.33 898.185,1035.98 903.236,1032.63 908.288,1029.28 913.339,1025.93 918.39,1022.58 923.441,1019.23 928.492,1015.88 
  933.543,1012.54 938.594,1009.19 943.645,1005.84 948.697,1002.49 953.748,999.141 958.799,995.792 963.85,992.443 968.901,989.094 973.952,985.746 979.003,982.397 
  984.054,979.048 989.105,975.699 994.157,972.351 999.208,969.002 1004.26,965.653 1009.31,962.304 1014.36,958.956 1019.41,955.607 1024.46,952.258 1029.51,948.909 
  1034.57,945.561 1039.62,942.212 1044.67,938.863 1049.72,935.514 1054.77,932.166 1059.82,928.817 1064.87,925.468 1069.92,922.119 1074.97,918.771 1080.03,915.422 
  1085.08,912.073 1090.13,908.724 1095.18,905.376 1100.23,902.027 1105.28,898.678 1110.33,895.329 1115.38,891.981 1120.43,888.632 1125.49,885.283 1130.54,881.934 
  1135.59,878.586 1140.64,875.237 1145.69,871.888 1150.74,868.539 1155.79,865.191 1160.84,861.842 1165.89,858.493 1170.95,855.144 1176,851.796 1181.05,848.447 
  1186.1,845.098 1191.15,841.749 1196.2,838.401 1201.25,835.052 1206.3,831.703 1211.35,828.354 1216.41,825.006 1221.46,821.657 1226.51,818.308 1231.56,814.959 
  1236.61,811.611 1241.66,808.262 1246.71,804.913 1251.76,801.564 1256.81,798.216 1261.87,794.867 1266.92,791.518 1271.97,788.169 1277.02,784.821 1282.07,781.472 
  1287.12,778.123 1292.17,774.774 1297.22,771.426 1302.27,768.077 1307.33,764.728 1312.38,761.379 1317.43,758.031 1322.48,754.682 1327.53,751.333 1332.58,747.984 
  1337.63,744.636 1342.68,741.287 1347.73,737.938 1352.79,734.589 1357.84,731.241 1362.89,727.892 1367.94,724.543 1372.99,721.194 1378.04,717.846 1383.09,714.497 
  1388.14,711.148 1393.19,707.799 1398.25,704.451 1403.3,701.102 1408.35,697.753 1413.4,694.404 1418.45,691.056 1423.5,687.707 1428.55,684.358 1433.6,681.009 
  1438.66,677.661 1443.71,674.312 1448.76,670.963 1453.81,667.614 1458.86,664.266 1463.91,660.917 1468.96,657.568 1474.01,654.219 1479.06,650.871 1484.12,647.522 
  1489.17,644.173 1494.22,640.824 1499.27,637.476 1504.32,634.127 1509.37,630.778 1514.42,627.429 1519.47,624.081 1524.52,620.732 1529.58,617.383 1534.63,614.034 
  1539.68,610.686 1544.73,607.337 1549.78,603.988 1554.83,600.639 1559.88,597.291 1564.93,593.942 1569.98,590.593 1575.04,587.244 1580.09,583.896 1585.14,580.547 
  1590.19,577.198 1595.24,573.849 1600.29,570.501 1605.34,567.152 1610.39,563.803 1615.44,560.454 1620.5,557.106 1625.55,553.757 1630.6,550.408 1635.65,547.059 
  1640.7,543.711 1645.75,540.362 1650.8,537.013 1655.85,533.664 1660.9,530.316 1665.96,526.967 1671.01,523.618 1676.06,520.269 1681.11,516.921 1686.16,513.572 
  1691.21,510.223 1696.26,506.874 1701.31,503.526 1706.36,500.177 1711.42,496.828 1716.47,493.479 1721.52,490.131 1726.57,486.782 1731.62,483.433 1736.67,480.084 
  1741.72,476.736 1746.77,473.387 1751.82,470.038 1756.88,466.689 1761.93,463.341 1766.98,459.992 1772.03,456.643 1777.08,453.294 1782.13,449.946 1787.18,446.597 
  1792.23,443.248 1797.28,439.899 1802.34,436.551 1807.39,433.202 1812.44,429.853 1817.49,426.504 1822.54,423.156 1827.59,419.807 1832.64,416.458 1837.69,413.109 
  1842.74,409.761 1847.8,406.412 1852.85,403.063 1857.9,399.714 1862.95,396.366 1868,393.017 1873.05,389.668 1878.1,386.319 1883.15,382.971 1888.2,379.622 
  1893.26,376.273 1898.31,372.924 1903.36,369.576 1908.41,366.227 1913.46,362.878 1918.51,359.529 1923.56,356.181 1928.61,352.832 1933.66,349.483 1938.72,346.134 
  1943.77,342.786 1948.82,339.437 1953.87,336.088 1958.92,332.739 1963.97,329.391 1969.02,326.042 1974.07,322.693 1979.12,319.344 1984.18,315.996 1989.23,312.647 
  1994.28,309.298 1999.33,305.949 2004.38,302.601 2009.43,299.252 2014.48,295.903 2019.53,292.554 2024.58,289.206 2029.64,285.857 2034.69,282.508 2039.74,279.159 
  2044.79,275.811 2049.84,272.462 2054.89,269.113 2059.94,265.764 2064.99,262.416 2070.04,259.067 2075.1,255.718 2080.15,252.369 2085.2,249.021 2090.25,245.672 
  2095.3,242.323 2100.35,238.975 2105.4,235.626 2110.45,232.277 2115.5,228.929 2120.56,225.581 2125.61,222.233 2130.66,218.885 2135.71,215.538 2140.76,212.191 
  2145.81,208.846 2150.86,205.502 2155.91,202.161 2160.96,198.824 2166.02,195.492 2171.07,192.17 2176.12,188.86 2181.17,185.57 2186.22,182.309 2191.27,179.092 
  2196.32,175.941 2201.37,172.89 2206.43,169.988 2211.48,167.309 2216.53,164.966 2221.58,163.128 2226.63,162.047 2231.68,162.102 2236.73,163.864 2241.78,168.188 
  2246.83,176.357 2251.89,190.299 2256.94,212.909 2261.99,248.531 2267.04,303.687 2272.09,388.168 2277.14,516.674 2282.19,711.273 2287.24,1005.09 2292.29,1447.87 
  
  "/>
</svg>
