<?xml version="1.0" encoding="utf-8"?>
<svg xmlns="http://www.w3.org/2000/svg" xmlns:xlink="http://www.w3.org/1999/xlink" width="600" height="400" viewBox="0 0 2400 1600">
<defs>
  <clipPath id="clip180">
    <rect x="0" y="0" width="2400" height="1600"/>
  </clipPath>
</defs>
<path clip-path="url(#clip180)" d="
M0 1600 L2400 1600 L2400 0 L0 0  Z
  " fill="#ffffff" fill-rule="evenodd" fill-opacity="1"/>
<defs>
  <clipPath id="clip181">
    <rect x="480" y="0" width="1681" height="1600"/>
  </clipPath>
</defs>
<path clip-path="url(#clip180)" d="
M147.478 1486.45 L2352.76 1486.45 L2352.76 47.2441 L147.478 47.2441  Z
  " fill="#ffffff" fill-rule="evenodd" fill-opacity="1"/>
<defs>
  <clipPath id="clip182">
    <rect x="147" y="47" width="2206" height="1440"/>
  </clipPath>
</defs>
<polyline clip-path="url(#clip182)" style="stroke:#000000; stroke-linecap:butt; stroke-linejoin:round; stroke-width:2; stroke-opacity:0.1; fill:none" points="
  209.891,1486.45 209.891,47.2441 
  "/>
<polyline clip-path="url(#clip182)" style="stroke:#000000; stroke-linecap:butt; stroke-linejoin:round; stroke-width:2; stroke-opacity:0.1; fill:none" points="
  730.004,1486.45 730.004,47.2441 
  "/>
<polyline clip-path="url(#clip182)" style="stroke:#000000; stroke-linecap:butt; stroke-linejoin:round; stroke-width:2; stroke-opacity:0.1; fill:none" points="
  1250.12,1486.45 1250.12,47.2441 
  "/>
<polyline clip-path="url(#clip182)" style="stroke:#000000; stroke-linecap:butt; stroke-linejoin:round; stroke-width:2; stroke-opacity:0.1; fill:none" points="
  1770.23,1486.45 1770.23,47.2441 
  "/>
<polyline clip-path="url(#clip182)" style="stroke:#000000; stroke-linecap:butt; stroke-linejoin:round; stroke-width:2; stroke-opacity:0.1; fill:none" points="
  2290.34,1486.45 2290.34,47.2441 
  "/>
<polyline clip-path="url(#clip180)" style="stroke:#000000; stroke-linecap:butt; stroke-linejoin:round; stroke-width:4; stroke-opacity:1; fill:none" points="
  147.478,1486.45 2352.76,1486.45 
  "/>
<polyline clip-path="url(#clip180)" style="stroke:#000000; stroke-linecap:butt; stroke-linejoin:round; stroke-width:4; stroke-opacity:1; fill:none" points="
  209.891,1486.45 209.891,1467.55 
  "/>
<polyline clip-path="url(#clip180)" style="stroke:#000000; stroke-linecap:butt; stroke-linejoin:round; stroke-width:4; stroke-opacity:1; fill:none" points="
  730.004,1486.45 730.004,1467.55 
  "/>
<polyline clip-path="url(#clip180)" style="stroke:#000000; stroke-linecap:butt; stroke-linejoin:round; stroke-width:4; stroke-opacity:1; fill:none" points="
  1250.12,1486.45 1250.12,1467.55 
  "/>
<polyline clip-path="url(#clip180)" style="stroke:#000000; stroke-linecap:butt; stroke-linejoin:round; stroke-width:4; stroke-opacity:1; fill:none" points="
  1770.23,1486.45 1770.23,1467.55 
  "/>
<polyline clip-path="url(#clip180)" style="stroke:#000000; stroke-linecap:butt; stroke-linejoin:round; stroke-width:4; stroke-opacity:1; fill:none" points="
  2290.34,1486.45 2290.34,1467.55 
  "/>
<path clip-path="url(#clip180)" d="M156.42 1532.02 L186.095 1532.02 L186.095 1535.95 L156.42 1535.95 L156.42 1532.02 Z" fill="#000000" fill-rule="evenodd" fill-opacity="1" /><path clip-path="url(#clip180)" d="M196.998 1544.91 L204.637 1544.91 L204.637 1518.55 L196.327 1520.21 L196.327 1515.95 L204.591 1514.29 L209.266 1514.29 L209.266 1544.91 L216.905 1544.91 L216.905 1548.85 L196.998 1548.85 L196.998 1544.91 Z" fill="#000000" fill-rule="evenodd" fill-opacity="1" /><path clip-path="url(#clip180)" d="M226.35 1542.97 L231.234 1542.97 L231.234 1548.85 L226.35 1548.85 L226.35 1542.97 Z" fill="#000000" fill-rule="evenodd" fill-opacity="1" /><path clip-path="url(#clip180)" d="M251.419 1517.37 Q247.808 1517.37 245.979 1520.93 Q244.174 1524.47 244.174 1531.6 Q244.174 1538.71 245.979 1542.27 Q247.808 1545.82 251.419 1545.82 Q255.053 1545.82 256.859 1542.27 Q258.687 1538.71 258.687 1531.6 Q258.687 1524.47 256.859 1520.93 Q255.053 1517.37 251.419 1517.37 M251.419 1513.66 Q257.229 1513.66 260.285 1518.27 Q263.363 1522.85 263.363 1531.6 Q263.363 1540.33 260.285 1544.94 Q257.229 1549.52 251.419 1549.52 Q245.609 1549.52 242.53 1544.94 Q239.475 1540.33 239.475 1531.6 Q239.475 1522.85 242.53 1518.27 Q245.609 1513.66 251.419 1513.66 Z" fill="#000000" fill-rule="evenodd" fill-opacity="1" /><path clip-path="url(#clip180)" d="M677.03 1532.02 L706.706 1532.02 L706.706 1535.95 L677.03 1535.95 L677.03 1532.02 Z" fill="#000000" fill-rule="evenodd" fill-opacity="1" /><path clip-path="url(#clip180)" d="M726.798 1517.37 Q723.187 1517.37 721.358 1520.93 Q719.553 1524.47 719.553 1531.6 Q719.553 1538.71 721.358 1542.27 Q723.187 1545.82 726.798 1545.82 Q730.432 1545.82 732.238 1542.27 Q734.067 1538.71 734.067 1531.6 Q734.067 1524.47 732.238 1520.93 Q730.432 1517.37 726.798 1517.37 M726.798 1513.66 Q732.608 1513.66 735.664 1518.27 Q738.743 1522.85 738.743 1531.6 Q738.743 1540.33 735.664 1544.94 Q732.608 1549.52 726.798 1549.52 Q720.988 1549.52 717.909 1544.94 Q714.854 1540.33 714.854 1531.6 Q714.854 1522.85 717.909 1518.27 Q720.988 1513.66 726.798 1513.66 Z" fill="#000000" fill-rule="evenodd" fill-opacity="1" /><path clip-path="url(#clip180)" d="M746.96 1542.97 L751.844 1542.97 L751.844 1548.85 L746.96 1548.85 L746.96 1542.97 Z" fill="#000000" fill-rule="evenodd" fill-opacity="1" /><path clip-path="url(#clip180)" d="M762.076 1514.29 L780.432 1514.29 L780.432 1518.22 L766.358 1518.22 L766.358 1526.7 Q767.377 1526.35 768.395 1526.19 Q769.414 1526 770.432 1526 Q776.219 1526 779.599 1529.17 Q782.978 1532.34 782.978 1537.76 Q782.978 1543.34 779.506 1546.44 Q776.034 1549.52 769.715 1549.52 Q767.539 1549.52 765.27 1549.15 Q763.025 1548.78 760.617 1548.04 L760.617 1543.34 Q762.701 1544.47 764.923 1545.03 Q767.145 1545.58 769.622 1545.58 Q773.627 1545.58 775.965 1543.48 Q778.303 1541.37 778.303 1537.76 Q778.303 1534.15 775.965 1532.04 Q773.627 1529.94 769.622 1529.94 Q767.747 1529.94 765.872 1530.35 Q764.02 1530.77 762.076 1531.65 L762.076 1514.29 Z" fill="#000000" fill-rule="evenodd" fill-opacity="1" /><path clip-path="url(#clip180)" d="M1227.5 1517.37 Q1223.89 1517.37 1222.06 1520.93 Q1220.26 1524.47 1220.26 1531.6 Q1220.26 1538.71 1222.06 1542.27 Q1223.89 1545.82 1227.5 1545.82 Q1231.14 1545.82 1232.94 1542.27 Q1234.77 1538.71 1234.77 1531.6 Q1234.77 1524.47 1232.94 1520.93 Q1231.14 1517.37 1227.5 1517.37 M1227.5 1513.66 Q1233.31 1513.66 1236.37 1518.27 Q1239.45 1522.85 1239.45 1531.6 Q1239.45 1540.33 1236.37 1544.94 Q1233.31 1549.52 1227.5 1549.52 Q1221.69 1549.52 1218.61 1544.94 Q1215.56 1540.33 1215.56 1531.6 Q1215.56 1522.85 1218.61 1518.27 Q1221.69 1513.66 1227.5 1513.66 Z" fill="#000000" fill-rule="evenodd" fill-opacity="1" /><path clip-path="url(#clip180)" d="M1247.66 1542.97 L1252.55 1542.97 L1252.55 1548.85 L1247.66 1548.85 L1247.66 1542.97 Z" fill="#000000" fill-rule="evenodd" fill-opacity="1" /><path clip-path="url(#clip180)" d="M1272.73 1517.37 Q1269.12 1517.37 1267.29 1520.93 Q1265.49 1524.47 1265.49 1531.6 Q1265.49 1538.71 1267.29 1542.27 Q1269.12 1545.82 1272.73 1545.82 Q1276.37 1545.82 1278.17 1542.27 Q1280 1538.71 1280 1531.6 Q1280 1524.47 1278.17 1520.93 Q1276.37 1517.37 1272.73 1517.37 M1272.73 1513.66 Q1278.54 1513.66 1281.6 1518.27 Q1284.68 1522.85 1284.68 1531.6 Q1284.68 1540.33 1281.6 1544.94 Q1278.54 1549.52 1272.73 1549.52 Q1266.92 1549.52 1263.84 1544.94 Q1260.79 1540.33 1260.79 1531.6 Q1260.79 1522.85 1263.84 1518.27 Q1266.92 1513.66 1272.73 1513.66 Z" fill="#000000" fill-rule="evenodd" fill-opacity="1" /><path clip-path="url(#clip180)" d="M1748.11 1517.37 Q1744.5 1517.37 1742.67 1520.93 Q1740.87 1524.47 1740.87 1531.6 Q1740.87 1538.71 1742.67 1542.27 Q1744.5 1545.82 1748.11 1545.82 Q1751.75 1545.82 1753.55 1542.27 Q1755.38 1538.71 1755.38 1531.6 Q1755.38 1524.47 1753.55 1520.93 Q1751.75 1517.37 1748.11 1517.37 M1748.11 1513.66 Q1753.92 1513.66 1756.98 1518.27 Q1760.06 1522.85 1760.06 1531.6 Q1760.06 1540.33 1756.98 1544.94 Q1753.92 1549.52 1748.11 1549.52 Q1742.3 1549.52 1739.22 1544.94 Q1736.17 1540.33 1736.17 1531.6 Q1736.17 1522.85 1739.22 1518.27 Q1742.3 1513.66 1748.11 1513.66 Z" fill="#000000" fill-rule="evenodd" fill-opacity="1" /><path clip-path="url(#clip180)" d="M1768.27 1542.97 L1773.16 1542.97 L1773.16 1548.85 L1768.27 1548.85 L1768.27 1542.97 Z" fill="#000000" fill-rule="evenodd" fill-opacity="1" /><path clip-path="url(#clip180)" d="M1783.39 1514.29 L1801.75 1514.29 L1801.75 1518.22 L1787.67 1518.22 L1787.67 1526.7 Q1788.69 1526.35 1789.71 1526.19 Q1790.73 1526 1791.75 1526 Q1797.53 1526 1800.91 1529.17 Q1804.29 1532.34 1804.29 1537.76 Q1804.29 1543.34 1800.82 1546.44 Q1797.35 1549.52 1791.03 1549.52 Q1788.85 1549.52 1786.58 1549.15 Q1784.34 1548.78 1781.93 1548.04 L1781.93 1543.34 Q1784.01 1544.47 1786.24 1545.03 Q1788.46 1545.58 1790.94 1545.58 Q1794.94 1545.58 1797.28 1543.48 Q1799.62 1541.37 1799.62 1537.76 Q1799.62 1534.15 1797.28 1532.04 Q1794.94 1529.94 1790.94 1529.94 Q1789.06 1529.94 1787.19 1530.35 Q1785.33 1530.77 1783.39 1531.65 L1783.39 1514.29 Z" fill="#000000" fill-rule="evenodd" fill-opacity="1" /><path clip-path="url(#clip180)" d="M2257.5 1544.91 L2265.13 1544.91 L2265.13 1518.55 L2256.82 1520.21 L2256.82 1515.95 L2265.09 1514.29 L2269.76 1514.29 L2269.76 1544.91 L2277.4 1544.91 L2277.4 1548.85 L2257.5 1548.85 L2257.5 1544.91 Z" fill="#000000" fill-rule="evenodd" fill-opacity="1" /><path clip-path="url(#clip180)" d="M2286.85 1542.97 L2291.73 1542.97 L2291.73 1548.85 L2286.85 1548.85 L2286.85 1542.97 Z" fill="#000000" fill-rule="evenodd" fill-opacity="1" /><path clip-path="url(#clip180)" d="M2311.92 1517.37 Q2308.31 1517.37 2306.48 1520.93 Q2304.67 1524.47 2304.67 1531.6 Q2304.67 1538.71 2306.48 1542.27 Q2308.31 1545.82 2311.92 1545.82 Q2315.55 1545.82 2317.36 1542.27 Q2319.18 1538.71 2319.18 1531.6 Q2319.18 1524.47 2317.36 1520.93 Q2315.55 1517.37 2311.92 1517.37 M2311.92 1513.66 Q2317.73 1513.66 2320.78 1518.27 Q2323.86 1522.85 2323.86 1531.6 Q2323.86 1540.33 2320.78 1544.94 Q2317.73 1549.52 2311.92 1549.52 Q2306.11 1549.52 2303.03 1544.94 Q2299.97 1540.33 2299.97 1531.6 Q2299.97 1522.85 2303.03 1518.27 Q2306.11 1513.66 2311.92 1513.66 Z" fill="#000000" fill-rule="evenodd" fill-opacity="1" /><polyline clip-path="url(#clip182)" style="stroke:#000000; stroke-linecap:butt; stroke-linejoin:round; stroke-width:2; stroke-opacity:0.1; fill:none" points="
  147.478,1369.26 2352.76,1369.26 
  "/>
<polyline clip-path="url(#clip182)" style="stroke:#000000; stroke-linecap:butt; stroke-linejoin:round; stroke-width:2; stroke-opacity:0.1; fill:none" points="
  147.478,1034.41 2352.76,1034.41 
  "/>
<polyline clip-path="url(#clip182)" style="stroke:#000000; stroke-linecap:butt; stroke-linejoin:round; stroke-width:2; stroke-opacity:0.1; fill:none" points="
  147.478,699.552 2352.76,699.552 
  "/>
<polyline clip-path="url(#clip182)" style="stroke:#000000; stroke-linecap:butt; stroke-linejoin:round; stroke-width:2; stroke-opacity:0.1; fill:none" points="
  147.478,364.697 2352.76,364.697 
  "/>
<polyline clip-path="url(#clip180)" style="stroke:#000000; stroke-linecap:butt; stroke-linejoin:round; stroke-width:4; stroke-opacity:1; fill:none" points="
  147.478,1486.45 147.478,47.2441 
  "/>
<polyline clip-path="url(#clip180)" style="stroke:#000000; stroke-linecap:butt; stroke-linejoin:round; stroke-width:4; stroke-opacity:1; fill:none" points="
  147.478,1369.26 166.376,1369.26 
  "/>
<polyline clip-path="url(#clip180)" style="stroke:#000000; stroke-linecap:butt; stroke-linejoin:round; stroke-width:4; stroke-opacity:1; fill:none" points="
  147.478,1034.41 166.376,1034.41 
  "/>
<polyline clip-path="url(#clip180)" style="stroke:#000000; stroke-linecap:butt; stroke-linejoin:round; stroke-width:4; stroke-opacity:1; fill:none" points="
  147.478,699.552 166.376,699.552 
  "/>
<polyline clip-path="url(#clip180)" style="stroke:#000000; stroke-linecap:butt; stroke-linejoin:round; stroke-width:4; stroke-opacity:1; fill:none" points="
  147.478,364.697 166.376,364.697 
  "/>
<path clip-path="url(#clip180)" d="M51.3625 1369.71 L81.0383 1369.71 L81.0383 1373.65 L51.3625 1373.65 L51.3625 1369.71 Z" fill="#000000" fill-rule="evenodd" fill-opacity="1" /><path clip-path="url(#clip180)" d="M95.1586 1382.61 L111.478 1382.61 L111.478 1386.54 L89.5336 1386.54 L89.5336 1382.61 Q92.1956 1379.85 96.7789 1375.22 Q101.385 1370.57 102.566 1369.23 Q104.811 1366.7 105.691 1364.97 Q106.594 1363.21 106.594 1361.52 Q106.594 1358.76 104.649 1357.03 Q102.728 1355.29 99.6261 1355.29 Q97.4271 1355.29 94.9734 1356.06 Q92.5428 1356.82 89.7651 1358.37 L89.7651 1353.65 Q92.5891 1352.51 95.0428 1351.94 Q97.4965 1351.36 99.5335 1351.36 Q104.904 1351.36 108.098 1354.04 Q111.293 1356.73 111.293 1361.22 Q111.293 1363.35 110.483 1365.27 Q109.696 1367.17 107.589 1369.76 Q107.01 1370.43 103.909 1373.65 Q100.807 1376.84 95.1586 1382.61 Z" fill="#000000" fill-rule="evenodd" fill-opacity="1" /><path clip-path="url(#clip180)" d="M50.9921 1034.86 L80.6679 1034.86 L80.6679 1038.79 L50.9921 1038.79 L50.9921 1034.86 Z" fill="#000000" fill-rule="evenodd" fill-opacity="1" /><path clip-path="url(#clip180)" d="M91.5706 1047.75 L99.2095 1047.75 L99.2095 1021.39 L90.8993 1023.05 L90.8993 1018.79 L99.1632 1017.13 L103.839 1017.13 L103.839 1047.75 L111.478 1047.75 L111.478 1051.69 L91.5706 1051.69 L91.5706 1047.75 Z" fill="#000000" fill-rule="evenodd" fill-opacity="1" /><path clip-path="url(#clip180)" d="M99.5335 685.351 Q95.9224 685.351 94.0937 688.916 Q92.2882 692.457 92.2882 699.587 Q92.2882 706.693 94.0937 710.258 Q95.9224 713.8 99.5335 713.8 Q103.168 713.8 104.973 710.258 Q106.802 706.693 106.802 699.587 Q106.802 692.457 104.973 688.916 Q103.168 685.351 99.5335 685.351 M99.5335 681.647 Q105.344 681.647 108.399 686.254 Q111.478 690.837 111.478 699.587 Q111.478 708.314 108.399 712.92 Q105.344 717.503 99.5335 717.503 Q93.7234 717.503 90.6447 712.92 Q87.5892 708.314 87.5892 699.587 Q87.5892 690.837 90.6447 686.254 Q93.7234 681.647 99.5335 681.647 Z" fill="#000000" fill-rule="evenodd" fill-opacity="1" /><path clip-path="url(#clip180)" d="M91.5706 378.042 L99.2095 378.042 L99.2095 351.676 L90.8993 353.343 L90.8993 349.084 L99.1632 347.417 L103.839 347.417 L103.839 378.042 L111.478 378.042 L111.478 381.977 L91.5706 381.977 L91.5706 378.042 Z" fill="#000000" fill-rule="evenodd" fill-opacity="1" /><polyline clip-path="url(#clip182)" style="stroke:#009af9; stroke-linecap:butt; stroke-linejoin:round; stroke-width:12; stroke-opacity:1; fill:none" points="
  209.891,1022.36 319.389,1014.86 428.886,1004.55 538.384,990.216 647.881,970.156 757.379,942.318 866.876,904.642 976.373,855.741 1085.87,795.864 1195.37,727.729 
  1304.87,656.466 1414.36,588.245 1523.86,528.24 1633.36,479.239 1742.86,441.562 1852.35,413.88 1961.85,394.187 2071.35,380.471 2180.84,371.034 2290.34,364.568 
  
  "/>
<circle clip-path="url(#clip182)" cx="209.891" cy="1022.36" r="14.4" fill="#009af9" fill-rule="evenodd" fill-opacity="1" stroke="#000000" stroke-opacity="1" stroke-width="3.2"/>
<circle clip-path="url(#clip182)" cx="319.389" cy="1014.86" r="14.4" fill="#009af9" fill-rule="evenodd" fill-opacity="1" stroke="#000000" stroke-opacity="1" stroke-width="3.2"/>
<circle clip-path="url(#clip182)" cx="428.886" cy="1004.55" r="14.4" fill="#009af9" fill-rule="evenodd" fill-opacity="1" stroke="#000000" stroke-opacity="1" stroke-width="3.2"/>
<circle clip-path="url(#clip182)" cx="538.384" cy="990.216" r="14.4" fill="#009af9" fill-rule="evenodd" fill-opacity="1" stroke="#000000" stroke-opacity="1" stroke-width="3.2"/>
<circle clip-path="url(#clip182)" cx="647.881" cy="970.156" r="14.4" fill="#009af9" fill-rule="evenodd" fill-opacity="1" stroke="#000000" stroke-opacity="1" stroke-width="3.2"/>
<circle clip-path="url(#clip182)" cx="757.379" cy="942.318" r="14.4" fill="#009af9" fill-rule="evenodd" fill-opacity="1" stroke="#000000" stroke-opacity="1" stroke-width="3.2"/>
<circle clip-path="url(#clip182)" cx="866.876" cy="904.642" r="14.4" fill="#009af9" fill-rule="evenodd" fill-opacity="1" stroke="#000000" stroke-opacity="1" stroke-width="3.2"/>
<circle clip-path="url(#clip182)" cx="976.373" cy="855.741" r="14.4" fill="#009af9" fill-rule="evenodd" fill-opacity="1" stroke="#000000" stroke-opacity="1" stroke-width="3.2"/>
<circle clip-path="url(#clip182)" cx="1085.87" cy="795.864" r="14.4" fill="#009af9" fill-rule="evenodd" fill-opacity="1" stroke="#000000" stroke-opacity="1" stroke-width="3.2"/>
<circle clip-path="url(#clip182)" cx="1195.37" cy="727.729" r="14.4" fill="#009af9" fill-rule="evenodd" fill-opacity="1" stroke="#000000" stroke-opacity="1" stroke-width="3.2"/>
<circle clip-path="url(#clip182)" cx="1304.87" cy="656.466" r="14.4" fill="#009af9" fill-rule="evenodd" fill-opacity="1" stroke="#000000" stroke-opacity="1" stroke-width="3.2"/>
<circle clip-path="url(#clip182)" cx="1414.36" cy="588.245" r="14.4" fill="#009af9" fill-rule="evenodd" fill-opacity="1" stroke="#000000" stroke-opacity="1" stroke-width="3.2"/>
<circle clip-path="url(#clip182)" cx="1523.86" cy="528.24" r="14.4" fill="#009af9" fill-rule="evenodd" fill-opacity="1" stroke="#000000" stroke-opacity="1" stroke-width="3.2"/>
<circle clip-path="url(#clip182)" cx="1633.36" cy="479.239" r="14.4" fill="#009af9" fill-rule="evenodd" fill-opacity="1" stroke="#000000" stroke-opacity="1" stroke-width="3.2"/>
<circle clip-path="url(#clip182)" cx="1742.86" cy="441.562" r="14.4" fill="#009af9" fill-rule="evenodd" fill-opacity="1" stroke="#000000" stroke-opacity="1" stroke-width="3.2"/>
<circle clip-path="url(#clip182)" cx="1852.35" cy="413.88" r="14.4" fill="#009af9" fill-rule="evenodd" fill-opacity="1" stroke="#000000" stroke-opacity="1" stroke-width="3.2"/>
<circle clip-path="url(#clip182)" cx="1961.85" cy="394.187" r="14.4" fill="#009af9" fill-rule="evenodd" fill-opacity="1" stroke="#000000" stroke-opacity="1" stroke-width="3.2"/>
<circle clip-path="url(#clip182)" cx="2071.35" cy="380.471" r="14.4" fill="#009af9" fill-rule="evenodd" fill-opacity="1" stroke="#000000" stroke-opacity="1" stroke-width="3.2"/>
<circle clip-path="url(#clip182)" cx="2180.84" cy="371.034" r="14.4" fill="#009af9" fill-rule="evenodd" fill-opacity="1" stroke="#000000" stroke-opacity="1" stroke-width="3.2"/>
<circle clip-path="url(#clip182)" cx="2290.34" cy="364.568" r="14.4" fill="#009af9" fill-rule="evenodd" fill-opacity="1" stroke="#000000" stroke-opacity="1" stroke-width="3.2"/>
<polyline clip-path="url(#clip182)" style="stroke:#e26f46; stroke-linecap:butt; stroke-linejoin:round; stroke-width:12; stroke-opacity:1; fill:none" points="
  209.891,1022.36 216.664,1022.05 223.436,1021.73 286.057,1018.36 348.678,1014.12 386.311,1011.08 423.943,1007.59 455.761,1004.26 487.579,1000.53 522.142,995.991 
  556.705,990.885 588.569,985.625 620.434,979.785 654.595,972.822 688.757,965.072 728.337,955.025 767.917,943.742 803.09,932.608 838.264,920.375 869.108,908.71 
  899.953,896.149 933.581,881.423 967.21,865.627 1001.04,848.682 1034.87,830.728 1072.27,809.79 1109.67,787.838 1145.26,766.163 1180.84,743.89 1254.85,696.507 
  1317.14,656.638 1355.17,632.823 1393.2,609.691 1428.03,589.275 1462.87,569.74 1495.04,552.573 1527.22,536.312 1559.81,520.81 1592.4,506.31 1628.92,491.261 
  1665.45,477.469 1698.55,466.032 1731.64,455.565 1769.54,444.716 1807.43,435.004 1842.52,426.955 1877.61,419.743 1912.2,413.386 1946.79,407.711 1980.38,402.796 
  2013.96,398.413 2048.39,394.417 2082.82,390.876 2120.54,387.462 2158.27,384.479 2213.06,380.811 2267.86,377.809 2279.1,377.265 2290.34,376.743 
  "/>
<polyline clip-path="url(#clip182)" style="stroke:#3da44d; stroke-linecap:butt; stroke-linejoin:round; stroke-width:12; stroke-opacity:1; fill:none" points="
  209.891,694.821 216.664,694.699 223.436,694.572 286.057,693.101 348.678,690.91 386.311,689.115 423.943,686.855 455.761,684.503 487.579,681.671 522.142,677.954 
  556.705,673.457 588.569,668.509 620.434,662.682 637.514,659.156 654.595,655.328 671.676,651.179 688.757,646.691 708.547,641.046 728.337,634.897 748.127,628.221 
  767.917,620.995 785.503,614.098 803.09,606.741 820.677,598.916 838.264,590.618 853.686,582.953 869.108,574.925 884.53,566.54 899.953,557.805 916.767,547.896 
  933.581,537.603 950.395,526.951 967.21,515.967 1001.04,493.011 1034.87,469.209 1072.27,442.433 1109.67,415.844 1127.46,403.484 1145.26,391.428 1163.05,379.766 
  1180.84,368.586 1199.34,357.565 1217.84,347.251 1236.35,337.732 1254.85,329.09 1270.42,322.548 1285.99,316.717 1301.57,311.629 1317.14,307.312 1326.65,305.064 
  1336.16,303.115 1345.66,301.467 1355.17,300.122 1364.68,299.082 1374.18,298.346 1383.69,297.913 1393.2,297.783 1410.62,298.32 1428.03,299.84 1445.45,302.315 
  1462.87,305.706 1478.96,309.614 1495.04,314.227 1511.13,319.503 1527.22,325.394 1543.51,331.941 1559.81,339.018 1576.1,346.574 1592.4,354.555 1610.66,363.938 
  1628.92,373.715 1647.19,383.813 1665.45,394.164 1698.55,413.353 1731.64,432.795 1769.54,454.961 1807.43,476.652 1842.52,496.039 1877.61,514.563 1912.2,531.849 
  1946.79,548.08 1963.58,555.563 1980.38,562.782 1997.17,569.736 2013.96,576.426 2031.18,583.011 2048.39,589.321 2065.61,595.361 2082.82,601.135 2101.68,607.162 
  2120.54,612.884 2139.4,618.31 2158.27,623.449 2185.66,630.422 2213.06,636.841 2240.46,642.738 2267.86,648.144 2273.48,649.196 2279.1,650.228 2284.72,651.241 
  2290.34,652.237 
  "/>
<polyline clip-path="url(#clip182)" style="stroke:#c271d2; stroke-linecap:butt; stroke-linejoin:round; stroke-width:12; stroke-opacity:1; fill:none" points="
  209.891,717.797 213.278,718.193 216.664,718.598 220.05,719.012 223.436,719.436 254.747,723.83 286.057,729.201 317.368,735.724 348.678,743.596 386.311,755.153 
  423.943,769.394 455.761,783.864 487.579,800.865 504.861,811.263 522.142,822.54 539.424,834.74 556.705,847.905 572.637,860.931 588.569,874.838 604.502,889.65 
  620.434,905.385 637.514,923.296 654.595,942.291 671.676,962.367 688.757,983.508 708.547,1009.3 728.337,1036.41 748.127,1064.73 767.917,1094.14 838.264,1204.33 
  899.953,1300.28 916.767,1324.66 933.581,1347.73 950.395,1369.16 967.21,1388.62 984.124,1405.88 1001.04,1420.46 1017.95,1432.02 1034.87,1440.25 1044.22,1443.25 
  1053.57,1445.09 1062.92,1445.72 1072.27,1445.09 1081.62,1443.18 1090.97,1439.94 1100.32,1435.35 1109.67,1429.37 1118.57,1422.38 1127.46,1414.11 1136.36,1404.55 
  1145.26,1393.69 1154.15,1381.54 1163.05,1368.1 1171.95,1353.38 1180.84,1337.39 1190.09,1319.45 1199.34,1300.2 1208.59,1279.66 1217.84,1257.89 1227.09,1234.93 
  1236.35,1210.82 1245.6,1185.63 1254.85,1159.42 1270.42,1113.16 1285.99,1064.54 1301.57,1013.93 1317.14,961.71 1355.17,830.045 1393.2,697.362 1410.62,637.869 
  1428.03,579.917 1445.45,523.982 1462.87,470.496 1478.96,423.599 1495.04,379.367 1511.13,338.013 1527.22,299.706 1543.51,264.139 1559.81,231.917 1567.95,217.078 
  1576.1,203.09 1584.25,189.953 1592.4,177.665 1601.53,164.896 1610.66,153.179 1619.79,142.502 1628.92,132.848 1638.05,124.202 1647.19,116.542 1656.32,109.847 
  1665.45,104.093 1682,95.9802 1698.55,90.7088 1715.1,88.1027 1731.64,87.9763 1750.59,90.6306 1769.54,95.9948 1788.49,103.779 1807.43,113.699 1824.98,124.549 
  1842.52,136.782 1860.06,150.2 1877.61,164.613 1946.79,227.921 2013.96,293.332 2048.39,326.453 2082.82,358.586 2120.54,392.216 2158.27,423.875 2185.66,445.513 
  2213.06,465.957 2240.46,485.188 2267.86,503.207 2273.48,506.755 2279.1,510.252 2284.72,513.7 2290.34,517.098 
  "/>
<polyline clip-path="url(#clip182)" style="stroke:#ac8d18; stroke-linecap:butt; stroke-linejoin:round; stroke-width:12; stroke-opacity:1; fill:none" points="
  209.891,666.067 213.278,666.065 216.664,666.059 220.05,666.049 223.436,666.035 254.747,665.721 286.057,665.071 317.368,664.086 348.678,662.769 386.311,660.751 
  423.943,658.263 455.761,655.8 487.579,653.012 522.142,649.624 556.705,645.87 588.569,642.095 620.434,638.026 654.595,633.349 688.757,628.358 728.337,622.2 
  767.917,615.661 803.09,609.548 838.264,603.17 869.108,597.373 899.953,591.398 967.21,577.815 1034.87,563.503 1109.67,547.101 1180.84,531.116 1254.85,514.306 
  1317.14,500.157 1393.2,483.078 1462.87,467.8 1527.22,454.154 1592.4,440.92 1628.92,433.812 1665.45,426.951 1698.55,420.966 1731.64,415.217 1769.54,408.943 
  1807.43,403.017 1842.52,397.858 1877.61,393.028 1912.2,388.603 1946.79,384.524 1980.38,380.904 2013.96,377.631 2048.39,374.643 2082.82,372.035 2120.54,369.623 
  2158.27,367.684 2185.66,366.576 2213.06,365.722 2240.46,365.124 2267.86,364.784 2273.48,364.746 2279.1,364.719 2284.72,364.703 2290.34,364.697 
  "/>
<path clip-path="url(#clip180)" d="
M1655.33 1438.47 L2279.25 1438.47 L2279.25 1127.43 L1655.33 1127.43  Z
  " fill="#ffffff" fill-rule="evenodd" fill-opacity="1"/>
<polyline clip-path="url(#clip180)" style="stroke:#000000; stroke-linecap:butt; stroke-linejoin:round; stroke-width:4; stroke-opacity:1; fill:none" points="
  1655.33,1438.47 2279.25,1438.47 2279.25,1127.43 1655.33,1127.43 1655.33,1438.47 
  "/>
<polyline clip-path="url(#clip180)" style="stroke:#009af9; stroke-linecap:butt; stroke-linejoin:round; stroke-width:4; stroke-opacity:1; fill:none" points="
  1679.83,1179.27 1826.85,1179.27 
  "/>
<circle clip-path="url(#clip180)" cx="1753.34" cy="1179.27" r="23.04" fill="#009af9" fill-rule="evenodd" fill-opacity="1" stroke="#000000" stroke-opacity="1" stroke-width="5.12"/>
<path clip-path="url(#clip180)" d="M1851.35 1186.32 L1851.35 1170.63 L1855.61 1170.63 L1855.61 1186.16 Q1855.61 1189.84 1857.05 1191.69 Q1858.48 1193.52 1861.35 1193.52 Q1864.8 1193.52 1866.79 1191.32 Q1868.81 1189.12 1868.81 1185.33 L1868.81 1170.63 L1873.07 1170.63 L1873.07 1196.55 L1868.81 1196.55 L1868.81 1192.57 Q1867.26 1194.93 1865.2 1196.09 Q1863.16 1197.23 1860.45 1197.23 Q1855.98 1197.23 1853.67 1194.45 Q1851.35 1191.67 1851.35 1186.32 M1862.07 1170 L1862.07 1170 Z" fill="#000000" fill-rule="evenodd" fill-opacity="1" /><path clip-path="url(#clip180)" d="M1901.54 1204.42 L1901.54 1207.73 L1876.91 1207.73 L1876.91 1204.42 L1901.54 1204.42 Z" fill="#000000" fill-rule="evenodd" fill-opacity="1" /><path clip-path="url(#clip180)" d="M1927.09 1180.91 L1927.09 1196.55 L1922.83 1196.55 L1922.83 1181.05 Q1922.83 1177.36 1921.4 1175.54 Q1919.96 1173.71 1917.09 1173.71 Q1913.64 1173.71 1911.65 1175.91 Q1909.66 1178.11 1909.66 1181.9 L1909.66 1196.55 L1905.38 1196.55 L1905.38 1160.54 L1909.66 1160.54 L1909.66 1174.66 Q1911.19 1172.32 1913.25 1171.16 Q1915.33 1170 1918.04 1170 Q1922.51 1170 1924.8 1172.78 Q1927.09 1175.54 1927.09 1180.91 Z" fill="#000000" fill-rule="evenodd" fill-opacity="1" /><polyline clip-path="url(#clip180)" style="stroke:#e26f46; stroke-linecap:butt; stroke-linejoin:round; stroke-width:4; stroke-opacity:1; fill:none" points="
  1679.83,1231.11 1826.85,1231.11 
  "/>
<path clip-path="url(#clip180)" d="M1851.35 1238.16 L1851.35 1222.47 L1855.61 1222.47 L1855.61 1238 Q1855.61 1241.68 1857.05 1243.53 Q1858.48 1245.36 1861.35 1245.36 Q1864.8 1245.36 1866.79 1243.16 Q1868.81 1240.96 1868.81 1237.17 L1868.81 1222.47 L1873.07 1222.47 L1873.07 1248.39 L1868.81 1248.39 L1868.81 1244.41 Q1867.26 1246.77 1865.2 1247.93 Q1863.16 1249.07 1860.45 1249.07 Q1855.98 1249.07 1853.67 1246.29 Q1851.35 1243.51 1851.35 1238.16 M1862.07 1221.84 L1862.07 1221.84 Z" fill="#000000" fill-rule="evenodd" fill-opacity="1" /><path clip-path="url(#clip180)" d="M1901.54 1256.26 L1901.54 1259.57 L1876.91 1259.57 L1876.91 1256.26 L1901.54 1256.26 Z" fill="#000000" fill-rule="evenodd" fill-opacity="1" /><path clip-path="url(#clip180)" d="M1925.73 1227.45 Q1927.33 1224.58 1929.55 1223.21 Q1931.77 1221.84 1934.78 1221.84 Q1938.83 1221.84 1941.03 1224.69 Q1943.23 1227.51 1943.23 1232.75 L1943.23 1248.39 L1938.95 1248.39 L1938.95 1232.89 Q1938.95 1229.16 1937.63 1227.35 Q1936.31 1225.55 1933.6 1225.55 Q1930.29 1225.55 1928.37 1227.75 Q1926.45 1229.95 1926.45 1233.74 L1926.45 1248.39 L1922.16 1248.39 L1922.16 1232.89 Q1922.16 1229.14 1920.84 1227.35 Q1919.52 1225.55 1916.77 1225.55 Q1913.51 1225.55 1911.58 1227.77 Q1909.66 1229.97 1909.66 1233.74 L1909.66 1248.39 L1905.38 1248.39 L1905.38 1222.47 L1909.66 1222.47 L1909.66 1226.5 Q1911.12 1224.11 1913.16 1222.98 Q1915.2 1221.84 1918 1221.84 Q1920.82 1221.84 1922.79 1223.28 Q1924.78 1224.71 1925.73 1227.45 Z" fill="#000000" fill-rule="evenodd" fill-opacity="1" /><path clip-path="url(#clip180)" d="M1963.51 1235.36 Q1958.34 1235.36 1956.35 1236.54 Q1954.36 1237.72 1954.36 1240.57 Q1954.36 1242.84 1955.84 1244.18 Q1957.35 1245.5 1959.92 1245.5 Q1963.46 1245.5 1965.59 1243 Q1967.74 1240.48 1967.74 1236.31 L1967.74 1235.36 L1963.51 1235.36 M1972 1233.6 L1972 1248.39 L1967.74 1248.39 L1967.74 1244.46 Q1966.28 1246.82 1964.11 1247.95 Q1961.93 1249.07 1958.78 1249.07 Q1954.8 1249.07 1952.44 1246.84 Q1950.1 1244.6 1950.1 1240.85 Q1950.1 1236.47 1953.02 1234.25 Q1955.96 1232.03 1961.77 1232.03 L1967.74 1232.03 L1967.74 1231.61 Q1967.74 1228.67 1965.8 1227.08 Q1963.88 1225.45 1960.38 1225.45 Q1958.16 1225.45 1956.05 1225.99 Q1953.95 1226.52 1952 1227.58 L1952 1223.65 Q1954.34 1222.75 1956.54 1222.31 Q1958.74 1221.84 1960.82 1221.84 Q1966.45 1221.84 1969.22 1224.76 Q1972 1227.68 1972 1233.6 Z" fill="#000000" fill-rule="evenodd" fill-opacity="1" /><path clip-path="url(#clip180)" d="M2002.33 1232.75 L2002.33 1248.39 L1998.07 1248.39 L1998.07 1232.89 Q1998.07 1229.2 1996.63 1227.38 Q1995.2 1225.55 1992.33 1225.55 Q1988.88 1225.55 1986.89 1227.75 Q1984.89 1229.95 1984.89 1233.74 L1984.89 1248.39 L1980.61 1248.39 L1980.61 1222.47 L1984.89 1222.47 L1984.89 1226.5 Q1986.42 1224.16 1988.48 1223 Q1990.57 1221.84 1993.27 1221.84 Q1997.74 1221.84 2000.03 1224.62 Q2002.33 1227.38 2002.33 1232.75 Z" fill="#000000" fill-rule="evenodd" fill-opacity="1" /><path clip-path="url(#clip180)" d="M2010.38 1238.16 L2010.38 1222.47 L2014.64 1222.47 L2014.64 1238 Q2014.64 1241.68 2016.07 1243.53 Q2017.51 1245.36 2020.38 1245.36 Q2023.83 1245.36 2025.82 1243.16 Q2027.83 1240.96 2027.83 1237.17 L2027.83 1222.47 L2032.09 1222.47 L2032.09 1248.39 L2027.83 1248.39 L2027.83 1244.41 Q2026.28 1246.77 2024.22 1247.93 Q2022.19 1249.07 2019.48 1249.07 Q2015.01 1249.07 2012.7 1246.29 Q2010.38 1243.51 2010.38 1238.16 M2021.1 1221.84 L2021.1 1221.84 Z" fill="#000000" fill-rule="evenodd" fill-opacity="1" /><path clip-path="url(#clip180)" d="M2053.99 1212.38 L2053.99 1215.92 L2049.92 1215.92 Q2047.63 1215.92 2046.72 1216.84 Q2045.84 1217.77 2045.84 1220.18 L2045.84 1222.47 L2052.86 1222.47 L2052.86 1225.78 L2045.84 1225.78 L2045.84 1248.39 L2041.56 1248.39 L2041.56 1225.78 L2037.49 1225.78 L2037.49 1222.47 L2041.56 1222.47 L2041.56 1220.66 Q2041.56 1216.33 2043.57 1214.37 Q2045.59 1212.38 2049.96 1212.38 L2053.99 1212.38 Z" fill="#000000" fill-rule="evenodd" fill-opacity="1" /><path clip-path="url(#clip180)" d="M2069.34 1235.36 Q2064.18 1235.36 2062.19 1236.54 Q2060.2 1237.72 2060.2 1240.57 Q2060.2 1242.84 2061.68 1244.18 Q2063.18 1245.5 2065.75 1245.5 Q2069.29 1245.5 2071.42 1243 Q2073.57 1240.48 2073.57 1236.31 L2073.57 1235.36 L2069.34 1235.36 M2077.83 1233.6 L2077.83 1248.39 L2073.57 1248.39 L2073.57 1244.46 Q2072.12 1246.82 2069.94 1247.95 Q2067.76 1249.07 2064.62 1249.07 Q2060.63 1249.07 2058.27 1246.84 Q2055.94 1244.6 2055.94 1240.85 Q2055.94 1236.47 2058.85 1234.25 Q2061.79 1232.03 2067.6 1232.03 L2073.57 1232.03 L2073.57 1231.61 Q2073.57 1228.67 2071.63 1227.08 Q2069.71 1225.45 2066.21 1225.45 Q2063.99 1225.45 2061.88 1225.99 Q2059.78 1226.52 2057.83 1227.58 L2057.83 1223.65 Q2060.17 1222.75 2062.37 1222.31 Q2064.57 1221.84 2066.65 1221.84 Q2072.28 1221.84 2075.06 1224.76 Q2077.83 1227.68 2077.83 1233.6 Z" fill="#000000" fill-rule="evenodd" fill-opacity="1" /><path clip-path="url(#clip180)" d="M2105.26 1223.46 L2105.26 1227.45 Q2103.46 1226.45 2101.63 1225.96 Q2099.82 1225.45 2097.97 1225.45 Q2093.83 1225.45 2091.54 1228.09 Q2089.25 1230.71 2089.25 1235.45 Q2089.25 1240.2 2091.54 1242.84 Q2093.83 1245.45 2097.97 1245.45 Q2099.82 1245.45 2101.63 1244.97 Q2103.46 1244.46 2105.26 1243.46 L2105.26 1247.4 Q2103.48 1248.23 2101.56 1248.65 Q2099.66 1249.07 2097.51 1249.07 Q2091.65 1249.07 2088.2 1245.39 Q2084.76 1241.7 2084.76 1235.45 Q2084.76 1229.11 2088.23 1225.48 Q2091.72 1221.84 2097.79 1221.84 Q2099.76 1221.84 2101.63 1222.26 Q2103.51 1222.65 2105.26 1223.46 Z" fill="#000000" fill-rule="evenodd" fill-opacity="1" /><path clip-path="url(#clip180)" d="M2116.88 1215.11 L2116.88 1222.47 L2125.66 1222.47 L2125.66 1225.78 L2116.88 1225.78 L2116.88 1239.85 Q2116.88 1243.02 2117.74 1243.93 Q2118.62 1244.83 2121.28 1244.83 L2125.66 1244.83 L2125.66 1248.39 L2121.28 1248.39 Q2116.35 1248.39 2114.48 1246.57 Q2112.6 1244.71 2112.6 1239.85 L2112.6 1225.78 L2109.48 1225.78 L2109.48 1222.47 L2112.6 1222.47 L2112.6 1215.11 L2116.88 1215.11 Z" fill="#000000" fill-rule="evenodd" fill-opacity="1" /><path clip-path="url(#clip180)" d="M2130.82 1238.16 L2130.82 1222.47 L2135.08 1222.47 L2135.08 1238 Q2135.08 1241.68 2136.51 1243.53 Q2137.95 1245.36 2140.82 1245.36 Q2144.27 1245.36 2146.26 1243.16 Q2148.27 1240.96 2148.27 1237.17 L2148.27 1222.47 L2152.53 1222.47 L2152.53 1248.39 L2148.27 1248.39 L2148.27 1244.41 Q2146.72 1246.77 2144.66 1247.93 Q2142.63 1249.07 2139.92 1249.07 Q2135.45 1249.07 2133.13 1246.29 Q2130.82 1243.51 2130.82 1238.16 M2141.54 1221.84 L2141.54 1221.84 Z" fill="#000000" fill-rule="evenodd" fill-opacity="1" /><path clip-path="url(#clip180)" d="M2176.33 1226.45 Q2175.61 1226.03 2174.75 1225.85 Q2173.92 1225.64 2172.9 1225.64 Q2169.29 1225.64 2167.35 1228 Q2165.43 1230.34 2165.43 1234.74 L2165.43 1248.39 L2161.14 1248.39 L2161.14 1222.47 L2165.43 1222.47 L2165.43 1226.5 Q2166.77 1224.14 2168.92 1223 Q2171.07 1221.84 2174.15 1221.84 Q2174.59 1221.84 2175.13 1221.91 Q2175.66 1221.96 2176.31 1222.08 L2176.33 1226.45 Z" fill="#000000" fill-rule="evenodd" fill-opacity="1" /><path clip-path="url(#clip180)" d="M2201.93 1234.37 L2201.93 1236.45 L2182.35 1236.45 Q2182.62 1240.85 2184.99 1243.16 Q2187.37 1245.45 2191.61 1245.45 Q2194.06 1245.45 2196.35 1244.85 Q2198.67 1244.25 2200.94 1243.05 L2200.94 1247.07 Q2198.64 1248.05 2196.24 1248.56 Q2193.83 1249.07 2191.35 1249.07 Q2185.15 1249.07 2181.51 1245.45 Q2177.9 1241.84 2177.9 1235.69 Q2177.9 1229.32 2181.33 1225.59 Q2184.78 1221.84 2190.61 1221.84 Q2195.84 1221.84 2198.87 1225.22 Q2201.93 1228.58 2201.93 1234.37 M2197.67 1233.12 Q2197.62 1229.62 2195.7 1227.54 Q2193.81 1225.45 2190.66 1225.45 Q2187.09 1225.45 2184.94 1227.47 Q2182.81 1229.48 2182.49 1233.14 L2197.67 1233.12 Z" fill="#000000" fill-rule="evenodd" fill-opacity="1" /><path clip-path="url(#clip180)" d="M2225.98 1226.4 L2225.98 1212.38 L2230.24 1212.38 L2230.24 1248.39 L2225.98 1248.39 L2225.98 1244.51 Q2224.64 1246.82 2222.58 1247.95 Q2220.54 1249.07 2217.67 1249.07 Q2212.97 1249.07 2210.01 1245.32 Q2207.07 1241.57 2207.07 1235.45 Q2207.07 1229.34 2210.01 1225.59 Q2212.97 1221.84 2217.67 1221.84 Q2220.54 1221.84 2222.58 1222.98 Q2224.64 1224.09 2225.98 1226.4 M2211.47 1235.45 Q2211.47 1240.15 2213.39 1242.84 Q2215.33 1245.5 2218.71 1245.5 Q2222.09 1245.5 2224.04 1242.84 Q2225.98 1240.15 2225.98 1235.45 Q2225.98 1230.76 2224.04 1228.09 Q2222.09 1225.41 2218.71 1225.41 Q2215.33 1225.41 2213.39 1228.09 Q2211.47 1230.76 2211.47 1235.45 Z" fill="#000000" fill-rule="evenodd" fill-opacity="1" /><polyline clip-path="url(#clip180)" style="stroke:#3da44d; stroke-linecap:butt; stroke-linejoin:round; stroke-width:4; stroke-opacity:1; fill:none" points="
  1679.83,1282.95 1826.85,1282.95 
  "/>
<path clip-path="url(#clip180)" d="M1867.86 1264.22 L1867.86 1267.76 L1863.78 1267.76 Q1861.49 1267.76 1860.59 1268.68 Q1859.71 1269.61 1859.71 1272.02 L1859.71 1274.31 L1866.72 1274.31 L1866.72 1277.62 L1859.71 1277.62 L1859.71 1300.23 L1855.43 1300.23 L1855.43 1277.62 L1851.35 1277.62 L1851.35 1274.31 L1855.43 1274.31 L1855.43 1272.5 Q1855.43 1268.17 1857.44 1266.21 Q1859.46 1264.22 1863.83 1264.22 L1867.86 1264.22 Z" fill="#000000" fill-rule="evenodd" fill-opacity="1" /><path clip-path="url(#clip180)" d="M1871.42 1264.22 L1875.68 1264.22 L1875.68 1300.23 L1871.42 1300.23 L1871.42 1264.22 Z" fill="#000000" fill-rule="evenodd" fill-opacity="1" /><path clip-path="url(#clip180)" d="M1884.15 1290 L1884.15 1274.31 L1888.41 1274.31 L1888.41 1289.84 Q1888.41 1293.52 1889.85 1295.37 Q1891.28 1297.2 1894.15 1297.2 Q1897.6 1297.2 1899.59 1295 Q1901.61 1292.8 1901.61 1289.01 L1901.61 1274.31 L1905.87 1274.31 L1905.87 1300.23 L1901.61 1300.23 L1901.61 1296.25 Q1900.06 1298.61 1898 1299.77 Q1895.96 1300.91 1893.25 1300.91 Q1888.78 1300.91 1886.47 1298.13 Q1884.15 1295.35 1884.15 1290 M1894.87 1273.68 L1894.87 1273.68 Z" fill="#000000" fill-rule="evenodd" fill-opacity="1" /><path clip-path="url(#clip180)" d="M1936.19 1274.31 L1926.82 1286.92 L1936.68 1300.23 L1931.65 1300.23 L1924.11 1290.05 L1916.56 1300.23 L1911.54 1300.23 L1921.61 1286.67 L1912.39 1274.31 L1917.42 1274.31 L1924.29 1283.54 L1931.17 1274.31 L1936.19 1274.31 Z" fill="#000000" fill-rule="evenodd" fill-opacity="1" /><polyline clip-path="url(#clip180)" style="stroke:#c271d2; stroke-linecap:butt; stroke-linejoin:round; stroke-width:4; stroke-opacity:1; fill:none" points="
  1679.83,1334.79 1826.85,1334.79 
  "/>
<path clip-path="url(#clip180)" d="M1867.86 1316.06 L1867.86 1319.6 L1863.78 1319.6 Q1861.49 1319.6 1860.59 1320.52 Q1859.71 1321.45 1859.71 1323.86 L1859.71 1326.15 L1866.72 1326.15 L1866.72 1329.46 L1859.71 1329.46 L1859.71 1352.07 L1855.43 1352.07 L1855.43 1329.46 L1851.35 1329.46 L1851.35 1326.15 L1855.43 1326.15 L1855.43 1324.34 Q1855.43 1320.01 1857.44 1318.05 Q1859.46 1316.06 1863.83 1316.06 L1867.86 1316.06 Z" fill="#000000" fill-rule="evenodd" fill-opacity="1" /><path clip-path="url(#clip180)" d="M1881.47 1329.13 Q1878.04 1329.13 1876.05 1331.82 Q1874.06 1334.48 1874.06 1339.13 Q1874.06 1343.79 1876.03 1346.47 Q1878.02 1349.13 1881.47 1349.13 Q1884.87 1349.13 1886.86 1346.45 Q1888.85 1343.76 1888.85 1339.13 Q1888.85 1334.53 1886.86 1331.84 Q1884.87 1329.13 1881.47 1329.13 M1881.47 1325.52 Q1887.02 1325.52 1890.2 1329.13 Q1893.37 1332.75 1893.37 1339.13 Q1893.37 1345.5 1890.2 1349.13 Q1887.02 1352.75 1881.47 1352.75 Q1875.89 1352.75 1872.72 1349.13 Q1869.57 1345.5 1869.57 1339.13 Q1869.57 1332.75 1872.72 1329.13 Q1875.89 1325.52 1881.47 1325.52 Z" fill="#000000" fill-rule="evenodd" fill-opacity="1" /><path clip-path="url(#clip180)" d="M1915.45 1330.13 Q1914.73 1329.71 1913.88 1329.53 Q1913.04 1329.32 1912.02 1329.32 Q1908.41 1329.32 1906.47 1331.68 Q1904.55 1334.02 1904.55 1338.42 L1904.55 1352.07 L1900.27 1352.07 L1900.27 1326.15 L1904.55 1326.15 L1904.55 1330.18 Q1905.89 1327.82 1908.04 1326.68 Q1910.2 1325.52 1913.27 1325.52 Q1913.71 1325.52 1914.25 1325.59 Q1914.78 1325.64 1915.43 1325.76 L1915.45 1330.13 Z" fill="#000000" fill-rule="evenodd" fill-opacity="1" /><path clip-path="url(#clip180)" d="M1937.53 1327.14 L1937.53 1331.13 Q1935.73 1330.13 1933.9 1329.64 Q1932.09 1329.13 1930.24 1329.13 Q1926.1 1329.13 1923.81 1331.77 Q1921.52 1334.39 1921.52 1339.13 Q1921.52 1343.88 1923.81 1346.52 Q1926.1 1349.13 1930.24 1349.13 Q1932.09 1349.13 1933.9 1348.65 Q1935.73 1348.14 1937.53 1347.14 L1937.53 1351.08 Q1935.75 1351.91 1933.83 1352.33 Q1931.93 1352.75 1929.78 1352.75 Q1923.92 1352.75 1920.47 1349.07 Q1917.02 1345.38 1917.02 1339.13 Q1917.02 1332.79 1920.5 1329.16 Q1923.99 1325.52 1930.06 1325.52 Q1932.02 1325.52 1933.9 1325.94 Q1935.77 1326.33 1937.53 1327.14 Z" fill="#000000" fill-rule="evenodd" fill-opacity="1" /><path clip-path="url(#clip180)" d="M1944.94 1326.15 L1949.2 1326.15 L1949.2 1352.07 L1944.94 1352.07 L1944.94 1326.15 M1944.94 1316.06 L1949.2 1316.06 L1949.2 1321.45 L1944.94 1321.45 L1944.94 1316.06 Z" fill="#000000" fill-rule="evenodd" fill-opacity="1" /><path clip-path="url(#clip180)" d="M1979.66 1336.43 L1979.66 1352.07 L1975.4 1352.07 L1975.4 1336.57 Q1975.4 1332.88 1973.97 1331.06 Q1972.53 1329.23 1969.66 1329.23 Q1966.21 1329.23 1964.22 1331.43 Q1962.23 1333.63 1962.23 1337.42 L1962.23 1352.07 L1957.95 1352.07 L1957.95 1326.15 L1962.23 1326.15 L1962.23 1330.18 Q1963.76 1327.84 1965.82 1326.68 Q1967.9 1325.52 1970.61 1325.52 Q1975.08 1325.52 1977.37 1328.3 Q1979.66 1331.06 1979.66 1336.43 Z" fill="#000000" fill-rule="evenodd" fill-opacity="1" /><path clip-path="url(#clip180)" d="M2005.22 1338.81 Q2005.22 1334.18 2003.3 1331.63 Q2001.4 1329.09 1997.95 1329.09 Q1994.52 1329.09 1992.6 1331.63 Q1990.7 1334.18 1990.7 1338.81 Q1990.7 1343.42 1992.6 1345.96 Q1994.52 1348.51 1997.95 1348.51 Q2001.4 1348.51 2003.3 1345.96 Q2005.22 1343.42 2005.22 1338.81 M2009.48 1348.86 Q2009.48 1355.48 2006.54 1358.69 Q2003.6 1361.94 1997.53 1361.94 Q1995.29 1361.94 1993.3 1361.59 Q1991.31 1361.26 1989.43 1360.57 L1989.43 1356.43 Q1991.31 1357.44 1993.14 1357.93 Q1994.96 1358.42 1996.86 1358.42 Q2001.05 1358.42 2003.14 1356.22 Q2005.22 1354.04 2005.22 1349.62 L2005.22 1347.51 Q2003.9 1349.81 2001.84 1350.94 Q1999.78 1352.07 1996.91 1352.07 Q1992.14 1352.07 1989.22 1348.44 Q1986.31 1344.81 1986.31 1338.81 Q1986.31 1332.79 1989.22 1329.16 Q1992.14 1325.52 1996.91 1325.52 Q1999.78 1325.52 2001.84 1326.66 Q2003.9 1327.79 2005.22 1330.08 L2005.22 1326.15 L2009.48 1326.15 L2009.48 1348.86 Z" fill="#000000" fill-rule="evenodd" fill-opacity="1" /><polyline clip-path="url(#clip180)" style="stroke:#ac8d18; stroke-linecap:butt; stroke-linejoin:round; stroke-width:4; stroke-opacity:1; fill:none" points="
  1679.83,1386.63 1826.85,1386.63 
  "/>
<path clip-path="url(#clip180)" d="M1851.35 1367.9 L1855.64 1367.9 L1855.64 1389.17 L1868.34 1377.99 L1873.78 1377.99 L1860.03 1390.12 L1874.36 1403.91 L1868.81 1403.91 L1855.64 1391.25 L1855.64 1403.91 L1851.35 1403.91 L1851.35 1367.9 Z" fill="#000000" fill-rule="evenodd" fill-opacity="1" /><path clip-path="url(#clip180)" d="M1889.92 1390.88 Q1884.76 1390.88 1882.77 1392.06 Q1880.77 1393.24 1880.77 1396.09 Q1880.77 1398.36 1882.26 1399.7 Q1883.76 1401.02 1886.33 1401.02 Q1889.87 1401.02 1892 1398.52 Q1894.15 1396 1894.15 1391.83 L1894.15 1390.88 L1889.92 1390.88 M1898.41 1389.12 L1898.41 1403.91 L1894.15 1403.91 L1894.15 1399.98 Q1892.7 1402.34 1890.52 1403.47 Q1888.34 1404.59 1885.2 1404.59 Q1881.21 1404.59 1878.85 1402.36 Q1876.52 1400.12 1876.52 1396.37 Q1876.52 1391.99 1879.43 1389.77 Q1882.37 1387.55 1888.18 1387.55 L1894.15 1387.55 L1894.15 1387.13 Q1894.15 1384.19 1892.21 1382.6 Q1890.29 1380.97 1886.79 1380.97 Q1884.57 1380.97 1882.46 1381.51 Q1880.36 1382.04 1878.41 1383.1 L1878.41 1379.17 Q1880.75 1378.27 1882.95 1377.83 Q1885.15 1377.36 1887.23 1377.36 Q1892.86 1377.36 1895.64 1380.28 Q1898.41 1383.2 1898.41 1389.12 Z" fill="#000000" fill-rule="evenodd" fill-opacity="1" /><path clip-path="url(#clip180)" d="M1911.31 1400.03 L1911.31 1413.78 L1907.02 1413.78 L1907.02 1377.99 L1911.31 1377.99 L1911.31 1381.92 Q1912.65 1379.61 1914.69 1378.5 Q1916.75 1377.36 1919.59 1377.36 Q1924.32 1377.36 1927.26 1381.11 Q1930.22 1384.86 1930.22 1390.97 Q1930.22 1397.09 1927.26 1400.84 Q1924.32 1404.59 1919.59 1404.59 Q1916.75 1404.59 1914.69 1403.47 Q1912.65 1402.34 1911.31 1400.03 M1925.8 1390.97 Q1925.8 1386.28 1923.85 1383.61 Q1921.93 1380.93 1918.55 1380.93 Q1915.17 1380.93 1913.23 1383.61 Q1911.31 1386.28 1911.31 1390.97 Q1911.31 1395.67 1913.23 1398.36 Q1915.17 1401.02 1918.55 1401.02 Q1921.93 1401.02 1923.85 1398.36 Q1925.8 1395.67 1925.8 1390.97 Z" fill="#000000" fill-rule="evenodd" fill-opacity="1" /><path clip-path="url(#clip180)" d="M1941.4 1400.03 L1941.4 1413.78 L1937.12 1413.78 L1937.12 1377.99 L1941.4 1377.99 L1941.4 1381.92 Q1942.74 1379.61 1944.78 1378.5 Q1946.84 1377.36 1949.69 1377.36 Q1954.41 1377.36 1957.35 1381.11 Q1960.31 1384.86 1960.31 1390.97 Q1960.31 1397.09 1957.35 1400.84 Q1954.41 1404.59 1949.69 1404.59 Q1946.84 1404.59 1944.78 1403.47 Q1942.74 1402.34 1941.4 1400.03 M1955.89 1390.97 Q1955.89 1386.28 1953.95 1383.61 Q1952.02 1380.93 1948.64 1380.93 Q1945.27 1380.93 1943.32 1383.61 Q1941.4 1386.28 1941.4 1390.97 Q1941.4 1395.67 1943.32 1398.36 Q1945.27 1401.02 1948.64 1401.02 Q1952.02 1401.02 1953.95 1398.36 Q1955.89 1395.67 1955.89 1390.97 Z" fill="#000000" fill-rule="evenodd" fill-opacity="1" /><path clip-path="url(#clip180)" d="M1979.15 1390.88 Q1973.99 1390.88 1972 1392.06 Q1970.01 1393.24 1970.01 1396.09 Q1970.01 1398.36 1971.49 1399.7 Q1973 1401.02 1975.57 1401.02 Q1979.11 1401.02 1981.24 1398.52 Q1983.39 1396 1983.39 1391.83 L1983.39 1390.88 L1979.15 1390.88 M1987.65 1389.12 L1987.65 1403.91 L1983.39 1403.91 L1983.39 1399.98 Q1981.93 1402.34 1979.76 1403.47 Q1977.58 1404.59 1974.43 1404.59 Q1970.45 1404.59 1968.09 1402.36 Q1965.75 1400.12 1965.75 1396.37 Q1965.75 1391.99 1968.67 1389.77 Q1971.61 1387.55 1977.42 1387.55 L1983.39 1387.55 L1983.39 1387.13 Q1983.39 1384.19 1981.45 1382.6 Q1979.52 1380.97 1976.03 1380.97 Q1973.81 1380.97 1971.7 1381.51 Q1969.59 1382.04 1967.65 1383.1 L1967.65 1379.17 Q1969.99 1378.27 1972.19 1377.83 Q1974.39 1377.36 1976.47 1377.36 Q1982.09 1377.36 1984.87 1380.28 Q1987.65 1383.2 1987.65 1389.12 Z" fill="#000000" fill-rule="evenodd" fill-opacity="1" /></svg>
