<?xml version="1.0" encoding="utf-8"?>
<svg xmlns="http://www.w3.org/2000/svg" xmlns:xlink="http://www.w3.org/1999/xlink" width="600" height="400" viewBox="0 0 2400 1600">
<defs>
  <clipPath id="clip190">
    <rect x="0" y="0" width="2400" height="1600"/>
  </clipPath>
</defs>
<path clip-path="url(#clip190)" d="
M0 1600 L2400 1600 L2400 0 L0 0  Z
  " fill="#ffffff" fill-rule="evenodd" fill-opacity="1"/>
<defs>
  <clipPath id="clip191">
    <rect x="480" y="0" width="1681" height="1600"/>
  </clipPath>
</defs>
<path clip-path="url(#clip190)" d="
M186.274 1486.45 L2352.76 1486.45 L2352.76 47.2441 L186.274 47.2441  Z
  " fill="#ffffff" fill-rule="evenodd" fill-opacity="1"/>
<defs>
  <clipPath id="clip192">
    <rect x="186" y="47" width="2167" height="1440"/>
  </clipPath>
</defs>
<polyline clip-path="url(#clip192)" style="stroke:#000000; stroke-linecap:butt; stroke-linejoin:round; stroke-width:2; stroke-opacity:0.1; fill:none" points="
  237.267,1486.45 237.267,47.2441 
  "/>
<polyline clip-path="url(#clip192)" style="stroke:#000000; stroke-linecap:butt; stroke-linejoin:round; stroke-width:2; stroke-opacity:0.1; fill:none" points="
  753.391,1486.45 753.391,47.2441 
  "/>
<polyline clip-path="url(#clip192)" style="stroke:#000000; stroke-linecap:butt; stroke-linejoin:round; stroke-width:2; stroke-opacity:0.1; fill:none" points="
  1269.51,1486.45 1269.51,47.2441 
  "/>
<polyline clip-path="url(#clip192)" style="stroke:#000000; stroke-linecap:butt; stroke-linejoin:round; stroke-width:2; stroke-opacity:0.1; fill:none" points="
  1785.64,1486.45 1785.64,47.2441 
  "/>
<polyline clip-path="url(#clip192)" style="stroke:#000000; stroke-linecap:butt; stroke-linejoin:round; stroke-width:2; stroke-opacity:0.1; fill:none" points="
  2301.76,1486.45 2301.76,47.2441 
  "/>
<polyline clip-path="url(#clip190)" style="stroke:#000000; stroke-linecap:butt; stroke-linejoin:round; stroke-width:4; stroke-opacity:1; fill:none" points="
  186.274,1486.45 2352.76,1486.45 
  "/>
<polyline clip-path="url(#clip190)" style="stroke:#000000; stroke-linecap:butt; stroke-linejoin:round; stroke-width:4; stroke-opacity:1; fill:none" points="
  237.267,1486.45 237.267,1467.55 
  "/>
<polyline clip-path="url(#clip190)" style="stroke:#000000; stroke-linecap:butt; stroke-linejoin:round; stroke-width:4; stroke-opacity:1; fill:none" points="
  753.391,1486.45 753.391,1467.55 
  "/>
<polyline clip-path="url(#clip190)" style="stroke:#000000; stroke-linecap:butt; stroke-linejoin:round; stroke-width:4; stroke-opacity:1; fill:none" points="
  1269.51,1486.45 1269.51,1467.55 
  "/>
<polyline clip-path="url(#clip190)" style="stroke:#000000; stroke-linecap:butt; stroke-linejoin:round; stroke-width:4; stroke-opacity:1; fill:none" points="
  1785.64,1486.45 1785.64,1467.55 
  "/>
<polyline clip-path="url(#clip190)" style="stroke:#000000; stroke-linecap:butt; stroke-linejoin:round; stroke-width:4; stroke-opacity:1; fill:none" points="
  2301.76,1486.45 2301.76,1467.55 
  "/>
<path clip-path="url(#clip190)" d="M183.795 1532.02 L213.471 1532.02 L213.471 1535.95 L183.795 1535.95 L183.795 1532.02 Z" fill="#000000" fill-rule="evenodd" fill-opacity="1" /><path clip-path="url(#clip190)" d="M224.374 1544.91 L232.012 1544.91 L232.012 1518.55 L223.702 1520.21 L223.702 1515.95 L231.966 1514.29 L236.642 1514.29 L236.642 1544.91 L244.281 1544.91 L244.281 1548.85 L224.374 1548.85 L224.374 1544.91 Z" fill="#000000" fill-rule="evenodd" fill-opacity="1" /><path clip-path="url(#clip190)" d="M253.725 1542.97 L258.61 1542.97 L258.61 1548.85 L253.725 1548.85 L253.725 1542.97 Z" fill="#000000" fill-rule="evenodd" fill-opacity="1" /><path clip-path="url(#clip190)" d="M278.795 1517.37 Q275.184 1517.37 273.355 1520.93 Q271.549 1524.47 271.549 1531.6 Q271.549 1538.71 273.355 1542.27 Q275.184 1545.82 278.795 1545.82 Q282.429 1545.82 284.234 1542.27 Q286.063 1538.71 286.063 1531.6 Q286.063 1524.47 284.234 1520.93 Q282.429 1517.37 278.795 1517.37 M278.795 1513.66 Q284.605 1513.66 287.66 1518.27 Q290.739 1522.85 290.739 1531.6 Q290.739 1540.33 287.66 1544.94 Q284.605 1549.52 278.795 1549.52 Q272.984 1549.52 269.906 1544.94 Q266.85 1540.33 266.85 1531.6 Q266.85 1522.85 269.906 1518.27 Q272.984 1513.66 278.795 1513.66 Z" fill="#000000" fill-rule="evenodd" fill-opacity="1" /><path clip-path="url(#clip190)" d="M700.417 1532.02 L730.093 1532.02 L730.093 1535.95 L700.417 1535.95 L700.417 1532.02 Z" fill="#000000" fill-rule="evenodd" fill-opacity="1" /><path clip-path="url(#clip190)" d="M750.185 1517.37 Q746.574 1517.37 744.745 1520.93 Q742.94 1524.47 742.94 1531.6 Q742.94 1538.71 744.745 1542.27 Q746.574 1545.82 750.185 1545.82 Q753.819 1545.82 755.625 1542.27 Q757.453 1538.71 757.453 1531.6 Q757.453 1524.47 755.625 1520.93 Q753.819 1517.37 750.185 1517.37 M750.185 1513.66 Q755.995 1513.66 759.051 1518.27 Q762.129 1522.85 762.129 1531.6 Q762.129 1540.33 759.051 1544.94 Q755.995 1549.52 750.185 1549.52 Q744.375 1549.52 741.296 1544.94 Q738.241 1540.33 738.241 1531.6 Q738.241 1522.85 741.296 1518.27 Q744.375 1513.66 750.185 1513.66 Z" fill="#000000" fill-rule="evenodd" fill-opacity="1" /><path clip-path="url(#clip190)" d="M770.347 1542.97 L775.231 1542.97 L775.231 1548.85 L770.347 1548.85 L770.347 1542.97 Z" fill="#000000" fill-rule="evenodd" fill-opacity="1" /><path clip-path="url(#clip190)" d="M785.463 1514.29 L803.819 1514.29 L803.819 1518.22 L789.745 1518.22 L789.745 1526.7 Q790.763 1526.35 791.782 1526.19 Q792.801 1526 793.819 1526 Q799.606 1526 802.986 1529.17 Q806.365 1532.34 806.365 1537.76 Q806.365 1543.34 802.893 1546.44 Q799.421 1549.52 793.101 1549.52 Q790.926 1549.52 788.657 1549.15 Q786.412 1548.78 784.004 1548.04 L784.004 1543.34 Q786.088 1544.47 788.31 1545.03 Q790.532 1545.58 793.009 1545.58 Q797.013 1545.58 799.351 1543.48 Q801.689 1541.37 801.689 1537.76 Q801.689 1534.15 799.351 1532.04 Q797.013 1529.94 793.009 1529.94 Q791.134 1529.94 789.259 1530.35 Q787.407 1530.77 785.463 1531.65 L785.463 1514.29 Z" fill="#000000" fill-rule="evenodd" fill-opacity="1" /><path clip-path="url(#clip190)" d="M1246.9 1517.37 Q1243.29 1517.37 1241.46 1520.93 Q1239.65 1524.47 1239.65 1531.6 Q1239.65 1538.71 1241.46 1542.27 Q1243.29 1545.82 1246.9 1545.82 Q1250.53 1545.82 1252.34 1542.27 Q1254.17 1538.71 1254.17 1531.6 Q1254.17 1524.47 1252.34 1520.93 Q1250.53 1517.37 1246.9 1517.37 M1246.9 1513.66 Q1252.71 1513.66 1255.77 1518.27 Q1258.84 1522.85 1258.84 1531.6 Q1258.84 1540.33 1255.77 1544.94 Q1252.71 1549.52 1246.9 1549.52 Q1241.09 1549.52 1238.01 1544.94 Q1234.95 1540.33 1234.95 1531.6 Q1234.95 1522.85 1238.01 1518.27 Q1241.09 1513.66 1246.9 1513.66 Z" fill="#000000" fill-rule="evenodd" fill-opacity="1" /><path clip-path="url(#clip190)" d="M1267.06 1542.97 L1271.95 1542.97 L1271.95 1548.85 L1267.06 1548.85 L1267.06 1542.97 Z" fill="#000000" fill-rule="evenodd" fill-opacity="1" /><path clip-path="url(#clip190)" d="M1292.13 1517.37 Q1288.52 1517.37 1286.69 1520.93 Q1284.89 1524.47 1284.89 1531.6 Q1284.89 1538.71 1286.69 1542.27 Q1288.52 1545.82 1292.13 1545.82 Q1295.76 1545.82 1297.57 1542.27 Q1299.4 1538.71 1299.4 1531.6 Q1299.4 1524.47 1297.57 1520.93 Q1295.76 1517.37 1292.13 1517.37 M1292.13 1513.66 Q1297.94 1513.66 1301 1518.27 Q1304.07 1522.85 1304.07 1531.6 Q1304.07 1540.33 1301 1544.94 Q1297.94 1549.52 1292.13 1549.52 Q1286.32 1549.52 1283.24 1544.94 Q1280.19 1540.33 1280.19 1531.6 Q1280.19 1522.85 1283.24 1518.27 Q1286.32 1513.66 1292.13 1513.66 Z" fill="#000000" fill-rule="evenodd" fill-opacity="1" /><path clip-path="url(#clip190)" d="M1763.52 1517.37 Q1759.91 1517.37 1758.08 1520.93 Q1756.28 1524.47 1756.28 1531.6 Q1756.28 1538.71 1758.08 1542.27 Q1759.91 1545.82 1763.52 1545.82 Q1767.16 1545.82 1768.96 1542.27 Q1770.79 1538.71 1770.79 1531.6 Q1770.79 1524.47 1768.96 1520.93 Q1767.16 1517.37 1763.52 1517.37 M1763.52 1513.66 Q1769.33 1513.66 1772.39 1518.27 Q1775.47 1522.85 1775.47 1531.6 Q1775.47 1540.33 1772.39 1544.94 Q1769.33 1549.52 1763.52 1549.52 Q1757.71 1549.52 1754.63 1544.94 Q1751.58 1540.33 1751.58 1531.6 Q1751.58 1522.85 1754.63 1518.27 Q1757.71 1513.66 1763.52 1513.66 Z" fill="#000000" fill-rule="evenodd" fill-opacity="1" /><path clip-path="url(#clip190)" d="M1783.68 1542.97 L1788.57 1542.97 L1788.57 1548.85 L1783.68 1548.85 L1783.68 1542.97 Z" fill="#000000" fill-rule="evenodd" fill-opacity="1" /><path clip-path="url(#clip190)" d="M1798.8 1514.29 L1817.15 1514.29 L1817.15 1518.22 L1803.08 1518.22 L1803.08 1526.7 Q1804.1 1526.35 1805.12 1526.19 Q1806.14 1526 1807.15 1526 Q1812.94 1526 1816.32 1529.17 Q1819.7 1532.34 1819.7 1537.76 Q1819.7 1543.34 1816.23 1546.44 Q1812.76 1549.52 1806.44 1549.52 Q1804.26 1549.52 1801.99 1549.15 Q1799.75 1548.78 1797.34 1548.04 L1797.34 1543.34 Q1799.42 1544.47 1801.65 1545.03 Q1803.87 1545.58 1806.34 1545.58 Q1810.35 1545.58 1812.69 1543.48 Q1815.03 1541.37 1815.03 1537.76 Q1815.03 1534.15 1812.69 1532.04 Q1810.35 1529.94 1806.34 1529.94 Q1804.47 1529.94 1802.59 1530.35 Q1800.74 1530.77 1798.8 1531.65 L1798.8 1514.29 Z" fill="#000000" fill-rule="evenodd" fill-opacity="1" /><path clip-path="url(#clip190)" d="M2268.92 1544.91 L2276.55 1544.91 L2276.55 1518.55 L2268.24 1520.21 L2268.24 1515.95 L2276.51 1514.29 L2281.18 1514.29 L2281.18 1544.91 L2288.82 1544.91 L2288.82 1548.85 L2268.92 1548.85 L2268.92 1544.91 Z" fill="#000000" fill-rule="evenodd" fill-opacity="1" /><path clip-path="url(#clip190)" d="M2298.27 1542.97 L2303.15 1542.97 L2303.15 1548.85 L2298.27 1548.85 L2298.27 1542.97 Z" fill="#000000" fill-rule="evenodd" fill-opacity="1" /><path clip-path="url(#clip190)" d="M2323.34 1517.37 Q2319.73 1517.37 2317.9 1520.93 Q2316.09 1524.47 2316.09 1531.6 Q2316.09 1538.71 2317.9 1542.27 Q2319.73 1545.82 2323.34 1545.82 Q2326.97 1545.82 2328.78 1542.27 Q2330.61 1538.71 2330.61 1531.6 Q2330.61 1524.47 2328.78 1520.93 Q2326.97 1517.37 2323.34 1517.37 M2323.34 1513.66 Q2329.15 1513.66 2332.2 1518.27 Q2335.28 1522.85 2335.28 1531.6 Q2335.28 1540.33 2332.2 1544.94 Q2329.15 1549.52 2323.34 1549.52 Q2317.53 1549.52 2314.45 1544.94 Q2311.39 1540.33 2311.39 1531.6 Q2311.39 1522.85 2314.45 1518.27 Q2317.53 1513.66 2323.34 1513.66 Z" fill="#000000" fill-rule="evenodd" fill-opacity="1" /><polyline clip-path="url(#clip192)" style="stroke:#000000; stroke-linecap:butt; stroke-linejoin:round; stroke-width:2; stroke-opacity:0.1; fill:none" points="
  186.274,1445.72 2352.76,1445.72 
  "/>
<polyline clip-path="url(#clip192)" style="stroke:#000000; stroke-linecap:butt; stroke-linejoin:round; stroke-width:2; stroke-opacity:0.1; fill:none" points="
  186.274,1106.28 2352.76,1106.28 
  "/>
<polyline clip-path="url(#clip192)" style="stroke:#000000; stroke-linecap:butt; stroke-linejoin:round; stroke-width:2; stroke-opacity:0.1; fill:none" points="
  186.274,766.846 2352.76,766.846 
  "/>
<polyline clip-path="url(#clip192)" style="stroke:#000000; stroke-linecap:butt; stroke-linejoin:round; stroke-width:2; stroke-opacity:0.1; fill:none" points="
  186.274,427.411 2352.76,427.411 
  "/>
<polyline clip-path="url(#clip192)" style="stroke:#000000; stroke-linecap:butt; stroke-linejoin:round; stroke-width:2; stroke-opacity:0.1; fill:none" points="
  186.274,87.9763 2352.76,87.9763 
  "/>
<polyline clip-path="url(#clip190)" style="stroke:#000000; stroke-linecap:butt; stroke-linejoin:round; stroke-width:4; stroke-opacity:1; fill:none" points="
  186.274,1486.45 186.274,47.2441 
  "/>
<polyline clip-path="url(#clip190)" style="stroke:#000000; stroke-linecap:butt; stroke-linejoin:round; stroke-width:4; stroke-opacity:1; fill:none" points="
  186.274,1445.72 205.172,1445.72 
  "/>
<polyline clip-path="url(#clip190)" style="stroke:#000000; stroke-linecap:butt; stroke-linejoin:round; stroke-width:4; stroke-opacity:1; fill:none" points="
  186.274,1106.28 205.172,1106.28 
  "/>
<polyline clip-path="url(#clip190)" style="stroke:#000000; stroke-linecap:butt; stroke-linejoin:round; stroke-width:4; stroke-opacity:1; fill:none" points="
  186.274,766.846 205.172,766.846 
  "/>
<polyline clip-path="url(#clip190)" style="stroke:#000000; stroke-linecap:butt; stroke-linejoin:round; stroke-width:4; stroke-opacity:1; fill:none" points="
  186.274,427.411 205.172,427.411 
  "/>
<polyline clip-path="url(#clip190)" style="stroke:#000000; stroke-linecap:butt; stroke-linejoin:round; stroke-width:4; stroke-opacity:1; fill:none" points="
  186.274,87.9763 205.172,87.9763 
  "/>
<path clip-path="url(#clip190)" d="M62.9365 1431.51 Q59.3254 1431.51 57.4967 1435.08 Q55.6912 1438.62 55.6912 1445.75 Q55.6912 1452.86 57.4967 1456.42 Q59.3254 1459.96 62.9365 1459.96 Q66.5707 1459.96 68.3763 1456.42 Q70.205 1452.86 70.205 1445.75 Q70.205 1438.62 68.3763 1435.08 Q66.5707 1431.51 62.9365 1431.51 M62.9365 1427.81 Q68.7467 1427.81 71.8022 1432.42 Q74.8809 1437 74.8809 1445.75 Q74.8809 1454.48 71.8022 1459.08 Q68.7467 1463.67 62.9365 1463.67 Q57.1264 1463.67 54.0477 1459.08 Q50.9921 1454.48 50.9921 1445.75 Q50.9921 1437 54.0477 1432.42 Q57.1264 1427.81 62.9365 1427.81 Z" fill="#000000" fill-rule="evenodd" fill-opacity="1" /><path clip-path="url(#clip190)" d="M83.0984 1457.12 L87.9827 1457.12 L87.9827 1463 L83.0984 1463 L83.0984 1457.12 Z" fill="#000000" fill-rule="evenodd" fill-opacity="1" /><path clip-path="url(#clip190)" d="M108.168 1431.51 Q104.557 1431.51 102.728 1435.08 Q100.922 1438.62 100.922 1445.75 Q100.922 1452.86 102.728 1456.42 Q104.557 1459.96 108.168 1459.96 Q111.802 1459.96 113.608 1456.42 Q115.436 1452.86 115.436 1445.75 Q115.436 1438.62 113.608 1435.08 Q111.802 1431.51 108.168 1431.51 M108.168 1427.81 Q113.978 1427.81 117.033 1432.42 Q120.112 1437 120.112 1445.75 Q120.112 1454.48 117.033 1459.08 Q113.978 1463.67 108.168 1463.67 Q102.358 1463.67 99.2789 1459.08 Q96.2234 1454.48 96.2234 1445.75 Q96.2234 1437 99.2789 1432.42 Q102.358 1427.81 108.168 1427.81 Z" fill="#000000" fill-rule="evenodd" fill-opacity="1" /><path clip-path="url(#clip190)" d="M138.33 1431.51 Q134.719 1431.51 132.89 1435.08 Q131.084 1438.62 131.084 1445.75 Q131.084 1452.86 132.89 1456.42 Q134.719 1459.96 138.33 1459.96 Q141.964 1459.96 143.769 1456.42 Q145.598 1452.86 145.598 1445.75 Q145.598 1438.62 143.769 1435.08 Q141.964 1431.51 138.33 1431.51 M138.33 1427.81 Q144.14 1427.81 147.195 1432.42 Q150.274 1437 150.274 1445.75 Q150.274 1454.48 147.195 1459.08 Q144.14 1463.67 138.33 1463.67 Q132.519 1463.67 129.441 1459.08 Q126.385 1454.48 126.385 1445.75 Q126.385 1437 129.441 1432.42 Q132.519 1427.81 138.33 1427.81 Z" fill="#000000" fill-rule="evenodd" fill-opacity="1" /><path clip-path="url(#clip190)" d="M63.9319 1092.08 Q60.3208 1092.08 58.4921 1095.64 Q56.6865 1099.19 56.6865 1106.32 Q56.6865 1113.42 58.4921 1116.99 Q60.3208 1120.53 63.9319 1120.53 Q67.5661 1120.53 69.3717 1116.99 Q71.2004 1113.42 71.2004 1106.32 Q71.2004 1099.19 69.3717 1095.64 Q67.5661 1092.08 63.9319 1092.08 M63.9319 1088.38 Q69.742 1088.38 72.7976 1092.98 Q75.8763 1097.57 75.8763 1106.32 Q75.8763 1115.04 72.7976 1119.65 Q69.742 1124.23 63.9319 1124.23 Q58.1217 1124.23 55.043 1119.65 Q51.9875 1115.04 51.9875 1106.32 Q51.9875 1097.57 55.043 1092.98 Q58.1217 1088.38 63.9319 1088.38 Z" fill="#000000" fill-rule="evenodd" fill-opacity="1" /><path clip-path="url(#clip190)" d="M84.0938 1117.68 L88.978 1117.68 L88.978 1123.56 L84.0938 1123.56 L84.0938 1117.68 Z" fill="#000000" fill-rule="evenodd" fill-opacity="1" /><path clip-path="url(#clip190)" d="M103.191 1119.63 L119.51 1119.63 L119.51 1123.56 L97.566 1123.56 L97.566 1119.63 Q100.228 1116.87 104.811 1112.24 Q109.418 1107.59 110.598 1106.25 Q112.844 1103.72 113.723 1101.99 Q114.626 1100.23 114.626 1098.54 Q114.626 1095.78 112.682 1094.05 Q110.76 1092.31 107.658 1092.31 Q105.459 1092.31 103.006 1093.07 Q100.575 1093.84 97.7974 1095.39 L97.7974 1090.67 Q100.621 1089.53 103.075 1088.95 Q105.529 1088.38 107.566 1088.38 Q112.936 1088.38 116.131 1091.06 Q119.325 1093.75 119.325 1098.24 Q119.325 1100.37 118.515 1102.29 Q117.728 1104.19 115.621 1106.78 Q115.043 1107.45 111.941 1110.67 Q108.839 1113.86 103.191 1119.63 Z" fill="#000000" fill-rule="evenodd" fill-opacity="1" /><path clip-path="url(#clip190)" d="M129.371 1089 L147.728 1089 L147.728 1092.94 L133.654 1092.94 L133.654 1101.41 Q134.672 1101.06 135.691 1100.9 Q136.709 1100.71 137.728 1100.71 Q143.515 1100.71 146.894 1103.89 Q150.274 1107.06 150.274 1112.47 Q150.274 1118.05 146.802 1121.15 Q143.33 1124.23 137.01 1124.23 Q134.834 1124.23 132.566 1123.86 Q130.32 1123.49 127.913 1122.75 L127.913 1118.05 Q129.996 1119.19 132.219 1119.74 Q134.441 1120.3 136.918 1120.3 Q140.922 1120.3 143.26 1118.19 Q145.598 1116.08 145.598 1112.47 Q145.598 1108.86 143.26 1106.76 Q140.922 1104.65 136.918 1104.65 Q135.043 1104.65 133.168 1105.07 Q131.316 1105.48 129.371 1106.36 L129.371 1089 Z" fill="#000000" fill-rule="evenodd" fill-opacity="1" /><path clip-path="url(#clip190)" d="M62.9365 752.645 Q59.3254 752.645 57.4967 756.209 Q55.6912 759.751 55.6912 766.881 Q55.6912 773.987 57.4967 777.552 Q59.3254 781.094 62.9365 781.094 Q66.5707 781.094 68.3763 777.552 Q70.205 773.987 70.205 766.881 Q70.205 759.751 68.3763 756.209 Q66.5707 752.645 62.9365 752.645 M62.9365 748.941 Q68.7467 748.941 71.8022 753.547 Q74.8809 758.131 74.8809 766.881 Q74.8809 775.608 71.8022 780.214 Q68.7467 784.797 62.9365 784.797 Q57.1264 784.797 54.0477 780.214 Q50.9921 775.608 50.9921 766.881 Q50.9921 758.131 54.0477 753.547 Q57.1264 748.941 62.9365 748.941 Z" fill="#000000" fill-rule="evenodd" fill-opacity="1" /><path clip-path="url(#clip190)" d="M83.0984 778.246 L87.9827 778.246 L87.9827 784.126 L83.0984 784.126 L83.0984 778.246 Z" fill="#000000" fill-rule="evenodd" fill-opacity="1" /><path clip-path="url(#clip190)" d="M98.2141 749.566 L116.57 749.566 L116.57 753.501 L102.496 753.501 L102.496 761.973 Q103.515 761.626 104.534 761.464 Q105.552 761.279 106.571 761.279 Q112.358 761.279 115.737 764.45 Q119.117 767.621 119.117 773.038 Q119.117 778.617 115.645 781.719 Q112.172 784.797 105.853 784.797 Q103.677 784.797 101.409 784.427 Q99.1632 784.057 96.7558 783.316 L96.7558 778.617 Q98.8391 779.751 101.061 780.307 Q103.284 780.862 105.76 780.862 Q109.765 780.862 112.103 778.756 Q114.441 776.649 114.441 773.038 Q114.441 769.427 112.103 767.321 Q109.765 765.214 105.76 765.214 Q103.885 765.214 102.01 765.631 Q100.159 766.047 98.2141 766.927 L98.2141 749.566 Z" fill="#000000" fill-rule="evenodd" fill-opacity="1" /><path clip-path="url(#clip190)" d="M138.33 752.645 Q134.719 752.645 132.89 756.209 Q131.084 759.751 131.084 766.881 Q131.084 773.987 132.89 777.552 Q134.719 781.094 138.33 781.094 Q141.964 781.094 143.769 777.552 Q145.598 773.987 145.598 766.881 Q145.598 759.751 143.769 756.209 Q141.964 752.645 138.33 752.645 M138.33 748.941 Q144.14 748.941 147.195 753.547 Q150.274 758.131 150.274 766.881 Q150.274 775.608 147.195 780.214 Q144.14 784.797 138.33 784.797 Q132.519 784.797 129.441 780.214 Q126.385 775.608 126.385 766.881 Q126.385 758.131 129.441 753.547 Q132.519 748.941 138.33 748.941 Z" fill="#000000" fill-rule="evenodd" fill-opacity="1" /><path clip-path="url(#clip190)" d="M63.9319 413.21 Q60.3208 413.21 58.4921 416.775 Q56.6865 420.316 56.6865 427.446 Q56.6865 434.552 58.4921 438.117 Q60.3208 441.659 63.9319 441.659 Q67.5661 441.659 69.3717 438.117 Q71.2004 434.552 71.2004 427.446 Q71.2004 420.316 69.3717 416.775 Q67.5661 413.21 63.9319 413.21 M63.9319 409.506 Q69.742 409.506 72.7976 414.113 Q75.8763 418.696 75.8763 427.446 Q75.8763 436.173 72.7976 440.779 Q69.742 445.362 63.9319 445.362 Q58.1217 445.362 55.043 440.779 Q51.9875 436.173 51.9875 427.446 Q51.9875 418.696 55.043 414.113 Q58.1217 409.506 63.9319 409.506 Z" fill="#000000" fill-rule="evenodd" fill-opacity="1" /><path clip-path="url(#clip190)" d="M84.0938 438.812 L88.978 438.812 L88.978 444.691 L84.0938 444.691 L84.0938 438.812 Z" fill="#000000" fill-rule="evenodd" fill-opacity="1" /><path clip-path="url(#clip190)" d="M97.9826 410.131 L120.205 410.131 L120.205 412.122 L107.658 444.691 L102.774 444.691 L114.58 414.066 L97.9826 414.066 L97.9826 410.131 Z" fill="#000000" fill-rule="evenodd" fill-opacity="1" /><path clip-path="url(#clip190)" d="M129.371 410.131 L147.728 410.131 L147.728 414.066 L133.654 414.066 L133.654 422.538 Q134.672 422.191 135.691 422.029 Q136.709 421.844 137.728 421.844 Q143.515 421.844 146.894 425.015 Q150.274 428.187 150.274 433.603 Q150.274 439.182 146.802 442.284 Q143.33 445.362 137.01 445.362 Q134.834 445.362 132.566 444.992 Q130.32 444.622 127.913 443.881 L127.913 439.182 Q129.996 440.316 132.219 440.872 Q134.441 441.427 136.918 441.427 Q140.922 441.427 143.26 439.321 Q145.598 437.214 145.598 433.603 Q145.598 429.992 143.26 427.886 Q140.922 425.779 136.918 425.779 Q135.043 425.779 133.168 426.196 Q131.316 426.613 129.371 427.492 L129.371 410.131 Z" fill="#000000" fill-rule="evenodd" fill-opacity="1" /><path clip-path="url(#clip190)" d="M53.7467 101.321 L61.3856 101.321 L61.3856 74.9555 L53.0754 76.6222 L53.0754 72.3629 L61.3393 70.6963 L66.0152 70.6963 L66.0152 101.321 L73.654 101.321 L73.654 105.256 L53.7467 105.256 L53.7467 101.321 Z" fill="#000000" fill-rule="evenodd" fill-opacity="1" /><path clip-path="url(#clip190)" d="M83.0984 99.3767 L87.9827 99.3767 L87.9827 105.256 L83.0984 105.256 L83.0984 99.3767 Z" fill="#000000" fill-rule="evenodd" fill-opacity="1" /><path clip-path="url(#clip190)" d="M108.168 73.775 Q104.557 73.775 102.728 77.3398 Q100.922 80.8814 100.922 88.011 Q100.922 95.1174 102.728 98.6822 Q104.557 102.224 108.168 102.224 Q111.802 102.224 113.608 98.6822 Q115.436 95.1174 115.436 88.011 Q115.436 80.8814 113.608 77.3398 Q111.802 73.775 108.168 73.775 M108.168 70.0713 Q113.978 70.0713 117.033 74.6777 Q120.112 79.261 120.112 88.011 Q120.112 96.7378 117.033 101.344 Q113.978 105.928 108.168 105.928 Q102.358 105.928 99.2789 101.344 Q96.2234 96.7378 96.2234 88.011 Q96.2234 79.261 99.2789 74.6777 Q102.358 70.0713 108.168 70.0713 Z" fill="#000000" fill-rule="evenodd" fill-opacity="1" /><path clip-path="url(#clip190)" d="M138.33 73.775 Q134.719 73.775 132.89 77.3398 Q131.084 80.8814 131.084 88.011 Q131.084 95.1174 132.89 98.6822 Q134.719 102.224 138.33 102.224 Q141.964 102.224 143.769 98.6822 Q145.598 95.1174 145.598 88.011 Q145.598 80.8814 143.769 77.3398 Q141.964 73.775 138.33 73.775 M138.33 70.0713 Q144.14 70.0713 147.195 74.6777 Q150.274 79.261 150.274 88.011 Q150.274 96.7378 147.195 101.344 Q144.14 105.928 138.33 105.928 Q132.519 105.928 129.441 101.344 Q126.385 96.7378 126.385 88.011 Q126.385 79.261 129.441 74.6777 Q132.519 70.0713 138.33 70.0713 Z" fill="#000000" fill-rule="evenodd" fill-opacity="1" /><polyline clip-path="url(#clip192)" style="stroke:#009af9; stroke-linecap:butt; stroke-linejoin:round; stroke-width:12; stroke-opacity:1; fill:none" points="
  247.59,1445.72 268.234,1445.72 288.879,1445.72 309.524,1445.72 330.169,1409.51 350.814,1300.89 371.459,1192.27 392.104,1083.65 412.749,975.033 433.394,866.414 
  454.039,757.794 474.684,649.175 495.329,540.556 515.974,431.937 536.619,323.318 557.264,214.699 577.909,106.079 598.554,178.492 619.199,287.111 639.844,395.731 
  660.489,504.35 681.134,612.969 701.779,721.588 722.424,830.207 743.069,938.826 763.713,1047.45 784.358,1156.06 805.003,1264.68 825.648,1373.3 846.293,1445.72 
  866.938,1445.72 887.583,1445.72 908.228,1445.72 928.873,1445.72 949.518,1445.72 970.163,1445.72 990.808,1445.72 1011.45,1445.72 1032.1,1445.72 1052.74,1445.72 
  1073.39,87.9763 1094.03,87.9763 1114.68,87.9763 1135.32,87.9763 1155.97,87.9763 1176.61,87.9763 1197.26,87.9763 1217.9,87.9763 1238.55,87.9763 1259.19,87.9763 
  1279.84,87.9763 1300.48,87.9763 1321.13,87.9763 1341.77,87.9763 1362.42,87.9763 1383.06,87.9763 1403.71,87.9763 1424.35,87.9763 1445,87.9763 1465.64,87.9763 
  1486.29,1445.72 1506.93,1445.72 1527.58,1445.72 1548.22,1445.72 1568.87,1445.72 1589.51,1445.72 1610.16,1445.72 1630.8,1445.72 1651.45,1445.72 1672.09,1445.72 
  1692.74,1445.72 1713.38,1436.21 1734.03,1387.02 1754.67,1298.87 1775.32,1177.29 1795.96,1029.92 1816.61,866.017 1837.25,695.885 1857.9,530.211 1878.54,379.406 
  1899.19,252.945 1919.83,158.774 1940.48,102.811 1961.12,88.5718 1981.77,116.951 2002.41,186.165 2023.06,291.866 2043.7,427.411 2064.35,584.284 2084.99,752.629 
  2105.64,921.866 2126.28,1081.36 2146.93,1221.1 2167.57,1332.29 2188.22,1407.95 2208.86,1443.33 2229.51,1445.72 2250.15,1445.72 2270.8,1445.72 2291.44,1445.72 
  
  "/>
<polyline clip-path="url(#clip192)" style="stroke:#e26f46; stroke-linecap:butt; stroke-linejoin:round; stroke-width:12; stroke-opacity:1; fill:none" points="
  247.59,1409.49 268.234,1425.21 288.879,1434.95 309.524,1440.49 330.169,1443.1 350.814,1442.28 371.459,1433.76 392.104,1407.17 412.749,1343.51 433.394,1212.55 
  454.039,735.143 474.684,345.201 495.329,260.847 515.974,242.887 536.619,264.226 557.264,307.79 577.909,362.714 598.554,422.253 619.199,482.61 639.844,542.992 
  660.489,603.467 681.134,664.339 701.779,728.053 722.424,818.22 743.069,879.743 763.713,940.355 784.358,1000.78 805.003,1061.15 825.648,1121.5 846.293,1181.11 
  866.938,1238.19 887.583,1290.5 908.228,1335.83 928.873,1372.6 949.518,1400.26 970.163,1419.44 990.808,1431.64 1011.45,1438.76 1032.1,1442.55 1052.74,1443.62 
  1073.39,87.9763 1094.03,87.9763 1114.68,87.9773 1135.32,87.9789 1155.97,87.992 1176.61,88.0256 1197.26,88.1512 1217.9,88.483 1238.55,89.3778 1259.19,91.4214 
  1279.84,95.8395 1300.48,104.331 1321.13,119.36 1341.77,143.524 1362.42,179.477 1383.06,228.944 1403.71,292.796 1424.35,370.868 1445,463.328 1465.64,572.873 
  1486.29,960.819 1506.93,1070.36 1527.58,1162.82 1548.22,1240.9 1568.87,1304.75 1589.51,1354.22 1610.16,1390.17 1630.8,1414.33 1651.45,1429.36 1672.09,1437.85 
  1692.74,1442.27 1713.38,1444.24 1734.03,1444.44 1754.67,1441.38 1775.32,1430.04 1795.96,1398.18 1816.61,1314.75 1837.25,349.77 1857.9,179.265 1878.54,163.555 
  1899.19,179.785 1919.83,214.417 1940.48,260.942 1961.12,315.721 1981.77,376.508 2002.41,441.81 2023.06,510.607 2043.7,582.289 2064.35,657.221 2084.99,753.336 
  2105.64,865.53 2126.28,939.746 2146.93,1011.51 2167.57,1080.7 2188.22,1146.61 2208.86,1208.22 2229.51,1264.25 2250.15,1313.29 2270.8,1354.15 2291.44,1386.15 
  
  "/>
<polyline clip-path="url(#clip192)" style="stroke:#3da44d; stroke-linecap:butt; stroke-linejoin:round; stroke-width:12; stroke-opacity:1; fill:none" points="
  247.59,1275.85 268.234,1308.73 288.879,1338.16 309.524,1363.77 330.169,1385.35 350.814,1402.84 371.459,1416.32 392.104,1425.7 412.749,1430.21 433.394,1426.72 
  454.039,1224.26 474.684,301.543 495.329,325.729 515.974,359.201 536.619,397.235 557.264,437.553 577.909,478.912 598.554,520.648 619.199,562.477 639.844,604.367 
  660.489,646.406 681.134,688.856 701.779,732.902 722.424,810.047 743.069,852.435 763.713,894.479 784.358,936.38 805.003,978.218 825.648,1020.02 846.293,1061.76 
  866.938,1103.27 887.583,1144.25 908.228,1184.32 928.873,1222.99 949.518,1259.69 970.163,1293.87 990.808,1324.95 1011.45,1352.46 1032.1,1376.05 1052.74,1304.51 
  1073.39,88.7739 1094.03,89.6059 1114.68,91.1408 1135.32,93.815 1155.97,98.2153 1176.61,105.054 1197.26,115.105 1217.9,129.111 1238.55,147.677 1259.19,171.196 
  1279.84,199.819 1300.48,233.471 1321.13,271.903 1341.77,314.763 1362.42,361.669 1383.06,412.279 1403.71,466.369 1424.35,523.956 1445,585.605 1465.64,653.697 
  1486.29,879.995 1506.93,948.087 1527.58,1009.74 1548.22,1067.32 1568.87,1121.41 1589.51,1172.02 1610.16,1218.93 1630.8,1261.79 1651.45,1300.22 1672.09,1333.87 
  1692.74,1362.5 1713.38,1386.01 1734.03,1404.57 1754.67,1418.52 1775.32,1428.3 1795.96,1434.09 1816.61,1434.97 1837.25,676.974 1857.9,255.449 1878.54,288.692 
  1899.19,326.045 1919.83,366.172 1940.48,408.322 1961.12,452.024 1981.77,496.965 2002.41,542.951 2023.06,589.908 2043.7,638.004 2064.35,688.278 2084.99,753.976 
  2105.64,839.226 2126.28,888.669 2146.93,936.423 2167.57,983.277 2188.22,1029.29 2208.86,1074.35 2229.51,1118.24 2250.15,1160.7 2270.8,1201.39 2291.44,1239.91 
  
  "/>
<polyline clip-path="url(#clip192)" style="stroke:#c271d2; stroke-linecap:butt; stroke-linejoin:round; stroke-width:12; stroke-opacity:1; fill:none" points="
  247.59,1166.61 268.234,1197.3 288.879,1226.9 309.524,1255.24 330.169,1282.09 350.814,1307.26 371.459,1330.52 392.104,1351.65 412.749,1370.46 433.394,1386.66 
  454.039,1397.88 474.684,1098.68 495.329,416.759 515.974,447.383 536.619,478.743 557.264,510.478 577.909,542.389 598.554,574.374 619.199,606.407 639.844,638.511 
  660.489,670.755 681.134,703.306 701.779,736.674 722.424,804.117 743.069,836.457 763.713,868.614 784.358,900.683 805.003,932.702 825.648,964.692 846.293,996.658 
  866.938,1028.58 887.583,1060.4 908.228,1092.05 928.873,1123.42 949.518,1154.36 970.163,1184.71 990.808,1214.27 1011.45,1242.83 1032.1,1270.15 1052.74,787.834 
  1073.39,110.464 1094.03,119.93 1114.68,131.954 1135.32,146.726 1155.97,164.334 1176.61,184.769 1197.26,207.939 1217.9,233.688 1238.55,261.824 1259.19,292.138 
  1279.84,324.418 1300.48,358.47 1321.13,394.12 1341.77,431.23 1362.42,469.701 1383.06,509.492 1403.71,550.649 1424.35,593.37 1445,638.213 1465.64,686.977 
  1486.29,846.715 1506.93,895.479 1527.58,940.322 1548.22,983.043 1568.87,1024.2 1589.51,1063.99 1610.16,1102.46 1630.8,1139.57 1651.45,1175.22 1672.09,1209.27 
  1692.74,1241.55 1713.38,1271.87 1734.03,1300 1754.67,1325.75 1775.32,1348.92 1795.96,1369.32 1816.61,1386.82 1837.25,1347.11 1857.9,483.289 1878.54,393.516 
  1899.19,425.719 1919.83,458.652 1940.48,492.182 1961.12,526.218 1981.77,560.711 2002.41,595.657 2023.06,631.13 2043.7,667.403 2064.35,705.45 2084.99,754.559 
  2105.64,823.994 2126.28,861.479 2146.93,897.391 2167.57,932.662 2188.22,967.504 2208.86,1001.96 2229.51,1036 2250.15,1069.58 2270.8,1102.61 2291.44,1135 
  
  "/>
<polyline clip-path="url(#clip192)" style="stroke:#ac8d18; stroke-linecap:butt; stroke-linejoin:round; stroke-width:12; stroke-opacity:1; fill:none" points="
  247.59,1092.54 268.234,1118.71 288.879,1144.47 309.524,1169.77 330.169,1194.52 350.814,1218.63 371.459,1242.03 392.104,1264.59 412.749,1286.2 433.394,1306.73 
  454.039,1326.01 474.684,1339.12 495.329,1158.02 515.974,529.465 536.619,530.744 557.264,556.582 577.909,582.471 598.554,608.397 619.199,634.363 639.844,660.394 
  660.489,686.54 681.134,712.899 701.779,739.691 722.424,799.619 743.069,825.844 763.713,851.881 784.358,877.851 805.003,903.784 825.648,929.694 846.293,955.586 
  866.938,981.46 887.583,1007.31 908.228,1033.1 928.873,1058.83 949.518,1084.43 970.163,1109.87 990.808,1135.07 1011.45,1159.98 1032.1,1091.51 1052.74,209.047 
  1073.39,174.986 1094.03,192.744 1114.68,212.175 1135.32,233.16 1155.97,255.57 1176.61,279.276 1197.26,304.153 1217.9,330.084 1238.55,356.965 1259.19,384.703 
  1279.84,413.222 1300.48,442.457 1321.13,472.363 1341.77,502.915 1362.42,534.109 1383.06,565.979 1403.71,598.614 1424.35,632.213 1445,667.246 1465.64,705.129 
  1486.29,828.563 1506.93,866.446 1527.58,901.479 1548.22,935.078 1568.87,967.713 1589.51,999.583 1610.16,1030.78 1630.8,1061.33 1651.45,1091.24 1672.09,1120.47 
  1692.74,1148.99 1713.38,1176.73 1734.03,1203.61 1754.67,1229.54 1775.32,1254.42 1795.96,1278.12 1816.61,1300.53 1837.25,1320.76 1857.9,1243.83 1878.54,541.439 
  1899.19,490.103 1919.83,517.178 1940.48,544.511 1961.12,572.088 1981.77,599.916 2002.41,628.031 2023.06,656.536 2043.7,685.695 2064.35,716.333 2084.99,755.091 
  2105.64,814.058 2126.28,844.397 2146.93,873.268 2167.57,901.569 2188.22,929.548 2208.86,957.291 2229.51,984.82 2250.15,1012.13 2270.8,1039.21 2291.44,1066.03 
  
  "/>
<polyline clip-path="url(#clip192)" style="stroke:#00a9ad; stroke-linecap:butt; stroke-linejoin:round; stroke-width:12; stroke-opacity:1; fill:none" points="
  247.59,1040.94 268.234,1063.28 288.879,1085.44 309.524,1107.39 330.169,1129.11 350.814,1150.55 371.459,1171.68 392.104,1192.47 412.749,1212.85 433.394,1232.77 
  454.039,1252.18 474.684,1270.9 495.329,1284.66 515.974,1195.13 536.619,671.238 557.264,588.375 577.909,610.146 598.554,631.944 619.199,653.779 639.844,675.669 
  660.489,697.648 681.134,719.775 701.779,742.16 722.424,796.09 743.069,818.218 763.713,840.106 784.358,861.929 805.003,883.72 825.648,905.491 846.293,927.248 
  866.938,948.994 887.583,970.727 908.228,992.442 928.873,1014.13 949.518,1035.78 970.163,1057.37 990.808,1078.88 1011.45,1099.21 1032.1,421.514 1052.74,233.3 
  1073.39,251.216 1094.03,270.794 1114.68,291.148 1135.32,312.206 1155.97,333.897 1176.61,356.162 1197.26,378.948 1217.9,402.208 1238.55,425.903 1259.19,450.002 
  1279.84,474.481 1300.48,499.324 1321.13,524.525 1341.77,550.09 1362.42,576.039 1383.06,602.42 1403.71,629.322 1424.35,656.922 1445,685.613 1465.64,716.559 
  1486.29,817.133 1506.93,848.079 1527.58,876.77 1548.22,904.37 1568.87,931.272 1589.51,957.653 1610.16,983.602 1630.8,1009.17 1651.45,1034.37 1672.09,1059.21 
  1692.74,1083.69 1713.38,1107.79 1734.03,1131.48 1754.67,1154.74 1775.32,1177.53 1795.96,1199.79 1816.61,1221.49 1837.25,1242.53 1857.9,1260.72 1878.54,1181.31 
  1899.19,615.2 1919.83,557.1 1940.48,580.062 1961.12,603.177 1981.77,626.467 2002.41,649.978 2023.06,673.813 2043.7,698.207 2064.35,723.842 2084.99,755.578 
  2105.64,807.065 2126.28,832.611 2146.93,856.8 2167.57,880.46 2188.22,903.838 2208.86,927.031 2229.51,950.078 2250.15,972.995 2270.8,995.783 2291.44,1018.44 
  
  "/>
<polyline clip-path="url(#clip192)" style="stroke:#ed5d92; stroke-linecap:butt; stroke-linejoin:round; stroke-width:12; stroke-opacity:1; fill:none" points="
  247.59,1003.31 268.234,1022.67 288.879,1041.94 309.524,1061.1 330.169,1080.13 350.814,1099.04 371.459,1117.79 392.104,1136.37 412.749,1154.77 433.394,1172.94 
  454.039,1190.88 474.684,1208.54 495.329,1225.76 515.974,1239.44 536.619,1198 557.264,818.659 577.909,630.436 598.554,649.242 619.199,668.079 639.844,686.962 
  660.489,705.914 681.134,724.973 701.779,744.217 722.424,793.246 743.069,812.439 763.713,831.336 784.358,850.159 805.003,868.949 825.648,887.723 846.293,906.484 
  866.938,925.236 887.583,943.98 908.228,962.714 928.873,981.437 949.518,1000.14 970.163,1018.83 990.808,1037.48 1011.45,623.444 1032.1,287.78 1052.74,299.8 
  1073.39,318.022 1094.03,336.678 1114.68,355.708 1135.32,375.081 1155.97,394.767 1176.61,414.741 1197.26,434.982 1217.9,455.472 1238.55,476.198 1259.19,497.15 
  1279.84,518.323 1300.48,539.717 1321.13,561.337 1341.77,583.198 1362.42,605.326 1383.06,627.768 1403.71,650.607 1424.35,673.995 1445,698.27 1465.64,724.416 
  1486.29,809.276 1506.93,835.422 1527.58,859.697 1548.22,883.085 1568.87,905.924 1589.51,928.366 1610.16,950.494 1630.8,972.355 1651.45,993.975 1672.09,1015.37 
  1692.74,1036.54 1713.38,1057.49 1734.03,1078.22 1754.67,1098.71 1775.32,1118.95 1795.96,1138.92 1816.61,1158.61 1837.25,1177.98 1857.9,1196.94 1878.54,1212.14 
  1899.19,1139.59 1919.83,676.124 1940.48,605.756 1961.12,625.636 1981.77,645.654 2002.41,665.859 2023.06,686.344 2043.7,707.313 2064.35,729.332 2084.99,756.027 
  2105.64,801.877 2126.28,823.967 2146.93,844.809 2167.57,865.157 2188.22,885.243 2208.86,905.167 2229.51,924.974 2250.15,944.685 2270.8,964.31 2291.44,983.851 
  
  "/>
<polyline clip-path="url(#clip192)" style="stroke:#c68125; stroke-linecap:butt; stroke-linejoin:round; stroke-width:12; stroke-opacity:1; fill:none" points="
  247.59,974.743 268.234,991.785 288.879,1008.77 309.524,1025.69 330.169,1042.53 350.814,1059.31 371.459,1076 392.104,1092.59 412.749,1109.09 433.394,1125.47 
  454.039,1141.73 474.684,1157.85 495.329,1173.81 515.974,1189.45 536.619,1202.59 557.264,1184.74 577.909,947.874 598.554,667.539 619.199,679.065 639.844,695.666 
  660.489,712.321 681.134,729.058 701.779,745.958 722.424,790.907 743.069,807.888 763.713,824.53 784.358,841.083 805.003,857.603 825.648,874.104 846.293,890.595 
  866.938,907.078 887.583,923.554 908.228,940.024 928.873,956.487 949.518,972.942 970.163,989.386 990.808,765.317 1011.45,342.548 1032.1,339.024 1052.74,355.448 
  1073.39,372.317 1094.03,389.405 1114.68,406.696 1135.32,424.174 1155.97,441.827 1176.61,459.645 1197.26,477.619 1217.9,495.743 1238.55,514.014 1259.19,532.429 
  1279.84,550.991 1300.48,569.704 1321.13,588.578 1341.77,607.629 1362.42,626.884 1383.06,646.386 1403.71,666.21 1424.35,686.49 1445,707.519 1465.64,730.15 
  1486.29,803.542 1506.93,826.173 1527.58,847.202 1548.22,867.482 1568.87,887.305 1589.51,906.808 1610.16,926.063 1630.8,945.114 1651.45,963.988 1672.09,982.701 
  1692.74,1001.26 1713.38,1019.68 1734.03,1037.95 1754.67,1056.07 1775.32,1074.05 1795.96,1091.87 1816.61,1109.52 1837.25,1127 1857.9,1144.28 1878.54,1161.2 
  1899.19,1173.56 1919.83,1108.66 1940.48,723.882 1961.12,642.626 1981.77,660.178 2002.41,677.894 2023.06,695.856 2043.7,714.242 2064.35,733.52 2084.99,756.442 
  2105.64,797.874 2126.28,817.347 2146.93,835.673 2167.57,853.534 2188.22,871.151 2208.86,888.618 2229.51,905.982 2250.15,923.266 2270.8,940.484 2291.44,957.643 
  
  "/>
<polyline clip-path="url(#clip192)" style="stroke:#00a98d; stroke-linecap:butt; stroke-linejoin:round; stroke-width:12; stroke-opacity:1; fill:none" points="
  247.59,952.351 268.234,967.551 288.879,982.709 309.524,997.825 330.169,1012.9 350.814,1027.92 371.459,1042.89 392.104,1057.81 412.749,1072.67 433.394,1087.46 
  454.039,1102.19 474.684,1116.83 495.329,1131.38 515.974,1145.84 536.619,1160.05 557.264,1172.46 577.909,1166.31 598.554,1027.18 619.199,729.087 639.844,702.588 
  660.489,717.441 681.134,732.363 701.779,747.45 722.424,788.949 743.069,804.202 763.713,819.081 784.358,833.86 805.003,848.6 825.648,863.322 846.293,878.033 
  866.938,892.736 887.583,907.434 908.228,922.127 928.873,936.816 949.518,951.499 970.163,857.807 990.808,406.913 1011.45,371.222 1032.1,385.373 1052.74,400.621 
  1073.39,416.017 1094.03,431.541 1114.68,447.187 1135.32,462.947 1155.97,478.816 1176.61,494.79 1197.26,510.866 1217.9,527.042 1238.55,543.319 1259.19,559.699 
  1279.84,576.185 1300.48,592.783 1321.13,609.506 1341.77,626.368 1362.42,643.396 1383.06,660.628 1403.71,678.131 1424.35,696.026 1445,714.571 1465.64,734.519 
  1486.29,799.173 1506.93,819.121 1527.58,837.666 1548.22,855.561 1568.87,873.064 1589.51,890.296 1610.16,907.324 1630.8,924.186 1651.45,940.909 1672.09,957.507 
  1692.74,973.993 1713.38,990.373 1734.03,1006.65 1754.67,1022.83 1775.32,1038.9 1795.96,1054.88 1816.61,1070.75 1837.25,1086.51 1857.9,1102.15 1878.54,1117.66 
  1899.19,1132.77 1919.83,1142.62 1940.48,1083.68 1961.12,761.994 1981.77,671.561 2002.41,687.334 2023.06,703.327 2043.7,719.691 2064.35,736.82 2084.99,756.826 
  2105.64,794.692 2126.28,812.111 2146.93,828.472 2167.57,844.397 2188.22,860.092 2208.86,875.646 2229.51,891.105 2250.15,906.493 2270.8,921.826 2291.44,937.11 
  
  "/>
<polyline clip-path="url(#clip192)" style="stroke:#8e971d; stroke-linecap:butt; stroke-linejoin:round; stroke-width:12; stroke-opacity:1; fill:none" points="
  247.59,934.335 268.234,948.043 288.879,961.721 309.524,975.368 330.169,988.983 350.814,1002.57 371.459,1016.12 392.104,1029.63 412.749,1043.11 433.394,1056.54 
  454.039,1069.93 474.684,1083.28 495.329,1096.57 515.974,1109.8 536.619,1122.96 557.264,1135.93 577.909,1147.56 598.554,1147.42 619.199,1066.66 639.844,807.663 
  660.489,721.635 681.134,735.1 701.779,748.743 722.424,787.285 743.069,801.147 763.713,814.612 784.358,827.965 805.003,841.276 825.648,854.566 846.293,867.844 
  866.938,881.116 887.583,894.382 908.228,907.644 928.873,920.902 949.518,902.947 970.163,489.601 990.808,399.145 1011.45,409.702 1032.1,423.505 1052.74,437.462 
  1073.39,451.506 1094.03,465.633 1114.68,479.839 1135.32,494.122 1155.97,508.478 1176.61,522.908 1197.26,537.409 1217.9,551.984 1238.55,566.633 1259.19,581.36 
  1279.84,596.169 1300.48,611.069 1321.13,626.068 1341.77,641.183 1362.42,656.438 1383.06,671.868 1403.71,687.533 1424.35,703.542 1445,720.126 1465.64,737.958 
  1486.29,795.734 1506.93,813.566 1527.58,830.15 1548.22,846.159 1568.87,861.824 1589.51,877.254 1610.16,892.509 1630.8,907.624 1651.45,922.623 1672.09,937.522 
  1692.74,952.332 1713.38,967.059 1734.03,981.708 1754.67,996.283 1775.32,1010.78 1795.96,1025.21 1816.61,1039.57 1837.25,1053.85 1857.9,1068.06 1878.54,1082.18 
  1899.19,1096.2 1919.83,1109.73 1940.48,1117.36 1961.12,1063.48 1981.77,792.278 2002.41,694.94 2023.06,709.351 2043.7,724.091 2064.35,739.488 2084.99,757.182 
  2105.64,792.102 2126.28,807.864 2146.93,822.646 2167.57,837.02 2188.22,851.176 2208.86,865.198 2229.51,879.131 2250.15,892.999 2270.8,906.817 2291.44,920.594 
  
  "/>
<polyline clip-path="url(#clip192)" style="stroke:#00a8cb; stroke-linecap:butt; stroke-linejoin:round; stroke-width:12; stroke-opacity:1; fill:none" points="
  247.59,919.527 268.234,932.007 288.879,944.463 309.524,956.894 330.169,969.303 350.814,981.687 371.459,994.048 392.104,1006.38 412.749,1018.69 433.394,1030.98 
  454.039,1043.23 474.684,1055.45 495.329,1067.64 515.974,1079.79 536.619,1091.9 557.264,1103.95 577.909,1115.85 598.554,1126.73 619.199,1129.77 639.844,1082.59 
  660.489,885.336 681.134,742.93 701.779,749.874 722.424,785.854 743.069,798.571 763.713,810.875 784.358,823.058 805.003,835.194 825.648,847.308 846.293,859.409 
  866.938,871.503 887.583,883.592 908.228,895.676 928.873,906.246 949.518,590.261 970.163,426.069 990.808,429.911 1011.45,442.334 1032.1,455.068 1052.74,467.867 
  1073.39,480.727 1094.03,493.643 1114.68,506.615 1135.32,519.641 1155.97,532.722 1176.61,545.856 1197.26,559.045 1217.9,572.291 1238.55,585.594 1259.19,598.96 
  1279.84,612.394 1300.48,625.901 1321.13,639.493 1341.77,653.185 1362.42,666.997 1383.06,680.962 1403.71,695.137 1424.35,709.617 1445,724.614 1465.64,740.735 
  1486.29,792.957 1506.93,809.078 1527.58,824.075 1548.22,838.555 1568.87,852.729 1589.51,866.695 1610.16,880.507 1630.8,894.199 1651.45,907.791 1672.09,921.298 
  1692.74,934.732 1713.38,948.098 1734.03,961.401 1754.67,974.647 1775.32,987.836 1795.96,1000.97 1816.61,1014.05 1837.25,1027.08 1857.9,1040.05 1878.54,1052.97 
  1899.19,1065.82 1919.83,1078.58 1940.48,1090.71 1961.12,1096.43 1981.77,1046.62 2002.41,817.013 2023.06,714.313 2043.7,727.717 2064.35,741.69 2084.99,757.514 
  2105.64,789.953 2126.28,804.348 2146.93,817.833 2167.57,830.935 2188.22,843.83 2208.86,856.598 2229.51,869.281 2250.15,881.904 2270.8,894.48 2291.44,907.019 
  
  "/>
<polyline clip-path="url(#clip192)" style="stroke:#9b7fe8; stroke-linecap:butt; stroke-linejoin:round; stroke-width:12; stroke-opacity:1; fill:none" points="
  247.59,907.14 268.234,918.593 288.879,930.025 309.524,941.437 330.169,952.83 350.814,964.205 371.459,975.562 392.104,986.9 412.749,998.219 433.394,1009.52 
  454.039,1020.8 474.684,1032.05 495.329,1043.29 515.974,1054.5 536.619,1065.68 557.264,1076.83 577.909,1087.94 598.554,1098.92 619.199,1109.09 639.844,1113.83 
  660.489,1086.26 681.134,945.575 701.779,776.305 722.424,784.622 743.069,796.366 763.713,807.7 784.358,818.906 805.003,830.061 825.648,841.191 846.293,852.307 
  866.938,863.416 887.583,874.519 908.228,885.619 928.873,692.262 949.518,456.182 970.163,447.238 990.808,458.083 1011.45,469.759 1032.1,481.504 1052.74,493.294 
  1073.39,505.126 1094.03,517.001 1114.68,528.916 1135.32,540.873 1155.97,552.872 1176.61,564.913 1197.26,576.997 1217.9,589.127 1238.55,601.304 1259.19,613.533 
  1279.84,625.819 1300.48,638.168 1321.13,650.591 1341.77,663.101 1362.42,675.717 1383.06,688.471 1403.71,701.412 1424.35,714.63 1445,728.316 1465.64,743.026 
  1486.29,790.666 1506.93,805.376 1527.58,819.062 1548.22,832.28 1568.87,845.221 1589.51,857.975 1610.16,870.591 1630.8,883.101 1651.45,895.524 1672.09,907.873 
  1692.74,920.159 1713.38,932.388 1734.03,944.565 1754.67,956.695 1775.32,968.779 1795.96,980.82 1816.61,992.819 1837.25,1004.78 1857.9,1016.69 1878.54,1028.57 
  1899.19,1040.4 1919.83,1052.18 1940.48,1063.86 1961.12,1074.76 1981.77,1078.8 2002.41,1032.46 2023.06,836.773 2043.7,731.595 2064.35,743.538 2084.99,757.824 
  2105.64,788.141 2126.28,801.39 2146.93,813.79 2167.57,825.829 2188.22,837.672 2208.86,849.394 2229.51,861.035 2250.15,872.618 2270.8,884.157 2291.44,895.663 
  
  "/>
<polyline clip-path="url(#clip192)" style="stroke:#608cf6; stroke-linecap:butt; stroke-linejoin:round; stroke-width:12; stroke-opacity:1; fill:none" points="
  247.59,896.625 268.234,907.206 288.879,917.769 309.524,928.314 330.169,938.844 350.814,949.358 371.459,959.858 392.104,970.343 412.749,980.814 433.394,991.27 
  454.039,1001.71 474.684,1012.14 495.329,1022.54 515.974,1032.93 536.619,1043.31 557.264,1053.66 577.909,1063.99 598.554,1074.28 619.199,1084.46 639.844,1094 
  660.489,1099.62 681.134,1083.73 701.779,986.848 722.424,838.683 743.069,797.619 763.713,805.07 784.358,815.348 805.003,825.666 825.648,835.961 846.293,846.242 
  866.938,856.515 887.583,866.782 908.228,768.052 928.873,494.792 949.518,462.914 970.163,471.474 990.808,482.194 1011.45,493.036 1032.1,503.914 1052.74,514.825 
  1073.39,525.769 1094.03,536.745 1114.68,547.753 1135.32,558.794 1155.97,569.868 1176.61,580.976 1197.26,592.121 1217.9,603.303 1238.55,614.525 1259.19,625.792 
  1279.84,637.108 1300.48,648.48 1321.13,659.916 1341.77,671.43 1362.42,683.04 1383.06,694.774 1403.71,706.678 1424.35,718.835 1445,731.421 1465.64,744.947 
  1486.29,788.745 1506.93,802.27 1527.58,814.857 1548.22,827.014 1568.87,838.918 1589.51,850.652 1610.16,862.262 1630.8,873.776 1651.45,885.212 1672.09,896.584 
  1692.74,907.9 1713.38,919.167 1734.03,930.389 1754.67,941.571 1775.32,952.716 1795.96,963.824 1816.61,974.898 1837.25,985.939 1857.9,996.947 1878.54,1007.92 
  1899.19,1018.87 1919.83,1029.78 1940.48,1040.64 1961.12,1051.38 1981.77,1061.19 2002.41,1063.77 2023.06,1020.46 2043.7,852.119 2064.35,748.228 2084.99,758.115 
  2105.64,786.592 2126.28,798.865 2146.93,810.343 2167.57,821.481 2188.22,832.433 2208.86,843.269 2229.51,854.027 2250.15,864.73 2270.8,875.392 2291.44,886.021 
  
  "/>
<polyline clip-path="url(#clip192)" style="stroke:#f05f73; stroke-linecap:butt; stroke-linejoin:round; stroke-width:12; stroke-opacity:1; fill:none" points="
  247.59,887.586 268.234,897.419 288.879,907.235 309.524,917.035 330.169,926.821 350.814,936.595 371.459,946.356 392.104,956.106 412.749,965.843 433.394,975.569 
  454.039,985.283 474.684,994.985 495.329,1004.67 515.974,1014.35 536.619,1024.01 557.264,1033.66 577.909,1043.29 598.554,1052.91 619.199,1062.49 639.844,1071.98 
  660.489,1080.94 681.134,1087 701.779,1078.28 722.424,1018.49 743.069,892.094 763.713,816.634 784.358,813.173 805.003,821.919 825.648,831.442 846.293,841.001 
  866.938,850.555 887.583,814.684 908.228,545.867 928.873,478.47 949.518,483.092 970.163,492.857 990.808,502.912 1011.45,513.005 1032.1,523.124 1052.74,533.269 
  1073.39,543.44 1094.03,553.637 1114.68,563.86 1135.32,574.11 1155.97,584.387 1176.61,594.693 1197.26,605.029 1217.9,615.398 1238.55,625.802 1259.19,636.245 
  1279.84,646.731 1300.48,657.267 1321.13,667.861 1341.77,678.524 1362.42,689.276 1383.06,700.14 1403.71,711.161 1424.35,722.414 1445,734.064 1465.64,746.581 
  1486.29,787.111 1506.93,799.628 1527.58,811.278 1548.22,822.531 1568.87,833.552 1589.51,844.416 1610.16,855.168 1630.8,865.831 1651.45,876.425 1672.09,886.961 
  1692.74,897.447 1713.38,907.89 1734.03,918.294 1754.67,928.663 1775.32,938.999 1795.96,949.305 1816.61,959.582 1837.25,969.832 1857.9,980.055 1878.54,990.252 
  1899.19,1000.42 1919.83,1010.57 1940.48,1020.69 1961.12,1030.76 1981.77,1040.68 2002.41,1049.5 2023.06,1050.82 2043.7,1010.25 2064.35,864.42 2084.99,764.8 
  2105.64,785.254 2126.28,796.685 2146.93,807.37 2167.57,817.734 2188.22,827.92 2208.86,837.996 2229.51,847.998 2250.15,857.946 2270.8,867.854 2291.44,877.732 
  
  "/>
<polyline clip-path="url(#clip192)" style="stroke:#dd64b5; stroke-linecap:butt; stroke-linejoin:round; stroke-width:12; stroke-opacity:1; fill:none" points="
  247.59,879.732 268.234,888.915 288.879,898.083 309.524,907.236 330.169,916.377 350.814,925.506 371.459,934.625 392.104,943.733 412.749,952.832 433.394,961.921 
  454.039,971.001 474.684,980.071 495.329,989.131 515.974,998.181 536.619,1007.22 557.264,1016.25 577.909,1025.27 598.554,1034.27 619.199,1043.26 639.844,1052.23 
  660.489,1061.1 681.134,1069.54 701.779,1075.78 722.424,1072.29 743.069,1035.5 763.713,938.013 784.358,843.833 805.003,822.33 825.648,827.833 846.293,836.459 
  866.938,833.381 887.583,609.086 908.228,495.914 928.873,493.489 949.518,502.113 970.163,511.463 990.808,520.873 1011.45,530.305 1032.1,539.759 1052.74,549.233 
  1073.39,558.728 1094.03,568.244 1114.68,577.783 1135.32,587.344 1155.97,596.928 1176.61,606.537 1197.26,616.173 1217.9,625.836 1238.55,635.531 1259.19,645.261 
  1279.84,655.029 1300.48,664.843 1321.13,674.709 1341.77,684.639 1362.42,694.649 1383.06,704.764 1403.71,715.022 1424.35,725.497 1445,736.339 1465.64,747.988 
  1486.29,785.704 1506.93,797.353 1527.58,808.195 1548.22,818.669 1568.87,828.928 1589.51,839.043 1610.16,849.053 1630.8,858.983 1651.45,868.849 1672.09,878.663 
  1692.74,888.431 1713.38,898.161 1734.03,907.855 1754.67,917.519 1775.32,927.155 1795.96,936.764 1816.61,946.348 1837.25,955.909 1857.9,965.448 1878.54,974.964 
  1899.19,984.459 1919.83,993.933 1940.48,1003.39 1961.12,1012.82 1981.77,1022.2 2002.41,1031.38 2023.06,1039.31 2043.7,1039.54 2064.35,1001.58 2084.99,875.102 
  2105.64,794.197 2126.28,795.065 2146.93,804.788 2167.57,814.471 2188.22,823.992 2208.86,833.409 2229.51,842.753 2250.15,852.047 2270.8,861.303 2291.44,870.529 
  
  "/>
<polyline clip-path="url(#clip192)" style="stroke:#6b9e32; stroke-linecap:butt; stroke-linejoin:round; stroke-width:12; stroke-opacity:1; fill:none" points="
  247.59,872.843 268.234,881.458 288.879,890.057 309.524,898.644 330.169,907.218 350.814,915.783 371.459,924.338 392.104,932.884 412.749,941.421 433.394,949.95 
  454.039,958.472 474.684,966.985 495.329,975.491 515.974,983.988 536.619,992.477 557.264,1000.96 577.909,1009.43 598.554,1017.89 619.199,1026.34 639.844,1034.78 
  660.489,1043.2 681.134,1051.54 701.779,1059.51 722.424,1065.85 743.069,1065.63 763.713,1043.35 784.358,972.864 805.003,876.993 825.648,834.662 846.293,833.012 
  866.938,676.414 887.583,517.868 908.228,503.283 928.873,510.261 949.518,518.941 970.163,527.749 990.808,536.58 1011.45,545.428 1032.1,554.293 1052.74,563.176 
  1073.39,572.077 1094.03,580.995 1114.68,589.933 1135.32,598.889 1155.97,607.866 1176.61,616.865 1197.26,625.887 1217.9,634.935 1238.55,644.01 1259.19,653.117 
  1279.84,662.258 1300.48,671.441 1321.13,680.672 1341.77,689.963 1362.42,699.327 1383.06,708.788 1403.71,718.384 1424.35,728.18 1445,738.32 1465.64,749.213 
  1486.29,784.479 1506.93,795.372 1527.58,805.512 1548.22,815.308 1568.87,824.904 1589.51,834.365 1610.16,843.729 1630.8,853.02 1651.45,862.251 1672.09,871.434 
  1692.74,880.575 1713.38,889.682 1734.03,898.757 1754.67,907.805 1775.32,916.827 1795.96,925.826 1816.61,934.803 1837.25,943.759 1857.9,952.697 1878.54,961.615 
  1899.19,970.516 1919.83,979.398 1940.48,988.264 1961.12,997.112 1981.77,1005.94 2002.41,1014.71 2023.06,1023.24 2043.7,1030.35 2064.35,1029.67 2084.99,994.382 
  2105.64,893.119 2126.28,811.625 2146.93,803.662 2167.57,811.67 2188.22,820.546 2208.86,829.38 2229.51,838.15 2250.15,846.871 2270.8,855.554 2291.44,864.21 
  
  "/>
<polyline clip-path="url(#clip192)" style="stroke:#009af9; stroke-linecap:butt; stroke-linejoin:round; stroke-width:12; stroke-opacity:1; fill:none" points="
  247.59,866.752 268.234,874.865 288.879,882.962 309.524,891.048 330.169,899.122 350.814,907.187 371.459,915.244 392.104,923.292 412.749,931.333 433.394,939.367 
  454.039,947.394 474.684,955.414 495.329,963.427 515.974,971.434 536.619,979.434 557.264,987.427 577.909,995.413 598.554,1003.39 619.199,1011.36 639.844,1019.33 
  660.489,1027.28 681.134,1035.21 701.779,1043.07 722.424,1050.63 743.069,1056.97 763.713,1058.77 784.358,1045.7 805.003,996.743 825.648,911.178 846.293,761.732 
  866.938,547.124 887.583,513.29 908.228,517.576 928.873,525.543 949.518,533.809 970.163,542.109 990.808,550.424 1011.45,558.753 1032.1,567.097 1052.74,575.456 
  1073.39,583.83 1094.03,592.219 1114.68,600.625 1135.32,609.048 1155.97,617.489 1176.61,625.949 1197.26,634.43 1217.9,642.934 1238.55,651.464 1259.19,660.021 
  1279.84,668.612 1300.48,677.24 1321.13,685.912 1341.77,694.64 1362.42,703.436 1383.06,712.323 1403.71,721.336 1424.35,730.536 1445,740.058 1465.64,750.288 
  1486.29,783.404 1506.93,793.634 1527.58,803.156 1548.22,812.356 1568.87,821.369 1589.51,830.256 1610.16,839.052 1630.8,847.78 1651.45,856.452 1672.09,865.08 
  1692.74,873.671 1713.38,882.228 1734.03,890.758 1754.67,899.262 1775.32,907.743 1795.96,916.203 1816.61,924.644 1837.25,933.067 1857.9,941.473 1878.54,949.862 
  1899.19,958.236 1919.83,966.595 1940.48,974.939 1961.12,983.268 1981.77,991.582 2002.41,999.874 2023.06,1008.11 2043.7,1016.04 2064.35,1022.41 2084.99,1021 
  2105.64,990.733 2126.28,906.286 2146.93,826.966 2167.57,811.692 2188.22,817.709 2208.86,825.835 2229.51,834.078 2250.15,842.291 2270.8,850.47 2291.44,858.622 
  
  "/>
<polyline clip-path="url(#clip192)" style="stroke:#e26f46; stroke-linecap:butt; stroke-linejoin:round; stroke-width:12; stroke-opacity:1; fill:none" points="
  247.59,861.327 268.234,868.993 288.879,876.644 309.524,884.284 330.169,891.914 350.814,899.534 371.459,907.147 392.104,914.752 412.749,922.351 433.394,929.943 
  454.039,937.529 474.684,945.109 495.329,952.683 515.974,960.252 536.619,967.815 557.264,975.372 577.909,982.924 598.554,990.47 619.199,998.009 639.844,1005.54 
  660.489,1013.07 681.134,1020.59 701.779,1028.08 722.424,1035.52 743.069,1042.71 763.713,1048.98 784.358,1052.03 805.003,1044.86 825.648,1011.73 846.293,706.946 
  866.938,524.636 887.583,524.351 908.228,531.432 928.873,539.193 949.518,547.018 970.163,554.86 990.808,562.714 1011.45,570.58 1032.1,578.458 1052.74,586.35 
  1073.39,594.254 1094.03,602.173 1114.68,610.106 1135.32,618.054 1155.97,626.018 1176.61,634 1197.26,642.001 1217.9,650.022 1238.55,658.067 1259.19,666.138 
  1279.84,674.239 1300.48,682.375 1321.13,690.553 1341.77,698.781 1362.42,707.075 1383.06,715.453 1403.71,723.949 1424.35,732.622 1445,741.598 1465.64,751.24 
  1486.29,782.452 1506.93,792.094 1527.58,801.07 1548.22,809.743 1568.87,818.239 1589.51,826.617 1610.16,834.911 1630.8,843.139 1651.45,851.317 1672.09,859.453 
  1692.74,867.554 1713.38,875.625 1734.03,883.67 1754.67,891.691 1775.32,899.692 1795.96,907.674 1816.61,915.638 1837.25,923.586 1857.9,931.519 1878.54,939.438 
  1899.19,947.342 1919.83,955.234 1940.48,963.112 1961.12,970.978 1981.77,978.832 2002.41,986.672 2023.06,994.489 2043.7,1002.23 2064.35,1009.63 2084.99,1015.33 
  2105.64,1013.77 2126.28,987.883 2146.93,916.417 2167.57,840.884 2188.22,819.456 2208.86,823.156 2229.51,830.506 2250.15,838.217 2270.8,845.941 2291.44,853.644 
  
  "/>
<polyline clip-path="url(#clip192)" style="stroke:#3da44d; stroke-linecap:butt; stroke-linejoin:round; stroke-width:12; stroke-opacity:1; fill:none" points="
  247.59,856.464 268.234,863.729 288.879,870.982 309.524,878.223 330.169,885.454 350.814,892.677 371.459,899.892 392.104,907.1 412.749,914.302 433.394,921.498 
  454.039,928.689 474.684,935.874 495.329,943.054 515.974,950.23 536.619,957.4 557.264,964.566 577.909,971.727 598.554,978.883 619.199,986.034 639.844,993.18 
  660.489,1000.32 681.134,1007.46 701.779,1014.58 722.424,1021.69 743.069,1028.74 763.713,1035.59 784.358,1041.74 805.003,1045.55 825.648,1042.21 846.293,753.648 
  866.938,530.953 887.583,536.757 908.228,544.011 928.873,551.407 949.518,558.825 970.163,566.254 990.808,573.694 1011.45,581.144 1032.1,588.605 1052.74,596.078 
  1073.39,603.562 1094.03,611.058 1114.68,618.568 1135.32,626.091 1155.97,633.629 1176.61,641.183 1197.26,648.755 1217.9,656.345 1238.55,663.957 1259.19,671.593 
  1279.84,679.257 1300.48,686.954 1321.13,694.69 1341.77,702.474 1362.42,710.318 1383.06,718.243 1403.71,726.278 1424.35,734.481 1445,742.969 1465.64,752.088 
  1486.29,781.604 1506.93,790.723 1527.58,799.211 1548.22,807.414 1568.87,815.449 1589.51,823.373 1610.16,831.218 1630.8,839.002 1651.45,846.738 1672.09,854.435 
  1692.74,862.099 1713.38,869.735 1734.03,877.347 1754.67,884.937 1775.32,892.509 1795.96,900.063 1816.61,907.601 1837.25,915.124 1857.9,922.633 1878.54,930.13 
  1899.19,937.614 1919.83,945.087 1940.48,952.548 1961.12,959.998 1981.77,967.438 2002.41,974.866 2023.06,982.282 2043.7,989.672 2064.35,996.974 2084.99,1003.88 
  2105.64,1009.05 2126.28,1007.55 2146.93,985.331 2167.57,924.33 2188.22,853.508 2208.86,827.092 2229.51,828.196 2250.15,834.692 2270.8,841.899 2291.44,849.184 
  
  "/>
<polyline clip-path="url(#clip192)" style="stroke:#c271d2; stroke-linecap:butt; stroke-linejoin:round; stroke-width:12; stroke-opacity:1; fill:none" points="
  247.59,852.088 268.234,858.986 288.879,865.878 309.524,872.76 330.169,879.632 350.814,886.496 371.459,893.353 392.104,900.204 412.749,907.048 433.394,913.887 
  454.039,920.722 474.684,927.551 495.329,934.376 515.974,941.197 536.619,948.013 557.264,954.825 577.909,961.633 598.554,968.437 619.199,975.237 639.844,982.032 
  660.489,988.823 681.134,995.61 701.779,1002.39 722.424,1009.16 743.069,1015.92 763.713,1022.63 784.358,1029.17 805.003,1035.17 825.648,1039.44 846.293,836.703 
  866.938,541.671 887.583,548.357 908.228,555.355 928.873,562.391 949.518,569.439 970.163,576.495 990.808,583.561 1011.45,590.636 1032.1,597.721 1052.74,604.816 
  1073.39,611.922 1094.03,619.039 1114.68,626.167 1135.32,633.308 1155.97,640.463 1176.61,647.632 1197.26,654.817 1217.9,662.02 1238.55,669.243 1259.19,676.489 
  1279.84,683.761 1300.48,691.063 1321.13,698.403 1341.77,705.787 1362.42,713.229 1383.06,720.746 1403.71,728.368 1424.35,736.148 1445,744.2 1465.64,752.849 
  1486.29,780.843 1506.93,789.492 1527.58,797.544 1548.22,805.324 1568.87,812.946 1589.51,820.463 1610.16,827.905 1630.8,835.289 1651.45,842.629 1672.09,849.931 
  1692.74,857.203 1713.38,864.449 1734.03,871.672 1754.67,878.875 1775.32,886.06 1795.96,893.229 1816.61,900.384 1837.25,907.525 1857.9,914.653 1878.54,921.77 
  1899.19,928.876 1919.83,935.971 1940.48,943.056 1961.12,950.131 1981.77,957.197 2002.41,964.253 2023.06,971.3 2043.7,978.334 2064.35,985.339 2084.99,992.238 
  2105.64,998.699 2126.28,1003.44 2146.93,1002.1 2167.57,982.937 2188.22,930.537 2208.86,864.877 2229.51,834.642 2250.15,832.966 2270.8,838.496 2291.44,845.205 
  
  "/>
<polyline clip-path="url(#clip192)" style="stroke:#ac8d18; stroke-linecap:butt; stroke-linejoin:round; stroke-width:12; stroke-opacity:1; fill:none" points="
  247.59,848.202 268.234,854.705 288.879,861.257 309.524,867.811 330.169,874.357 350.814,880.897 371.459,887.43 392.104,893.956 412.749,900.477 433.394,906.993 
  454.039,913.505 474.684,920.012 495.329,926.515 515.974,933.014 536.619,939.509 557.264,946 577.909,952.488 598.554,958.972 619.199,965.452 639.844,971.929 
  660.489,978.403 681.134,984.872 701.779,991.338 722.424,997.799 743.069,1004.25 763.713,1010.69 784.358,1017.09 805.003,1023.34 825.648,1029.17 846.293,922.633 
  866.938,552.317 887.583,558.928 908.228,565.616 928.873,572.319 949.518,579.029 970.163,585.748 990.808,592.475 1011.45,599.21 1032.1,605.955 1052.74,612.708 
  1073.39,619.471 1094.03,626.244 1114.68,633.028 1135.32,639.823 1155.97,646.631 1176.61,653.453 1197.26,660.289 1217.9,667.142 1238.55,674.014 1259.19,680.907 
  1279.84,687.825 1300.48,694.771 1321.13,701.752 1341.77,708.776 1362.42,715.854 1383.06,723.004 1403.71,730.253 1424.35,737.653 1445,745.31 1465.64,753.535 
  1486.29,780.157 1506.93,788.382 1527.58,796.039 1548.22,803.439 1568.87,810.688 1589.51,817.838 1610.16,824.916 1630.8,831.94 1651.45,838.921 1672.09,845.867 
  1692.74,852.785 1713.38,859.678 1734.03,866.55 1754.67,873.403 1775.32,880.239 1795.96,887.061 1816.61,893.869 1837.25,900.664 1857.9,907.448 1878.54,914.221 
  1899.19,920.984 1919.83,927.737 1940.48,934.482 1961.12,941.217 1981.77,947.944 2002.41,954.663 2023.06,961.373 2043.7,968.075 2064.35,974.763 2084.99,981.418 
  2105.64,987.951 2126.28,994.018 2146.93,998.404 2167.57,997.246 2188.22,980.652 2208.86,935.403 2229.51,875.031 2250.15,842.09 2270.8,837.57 2291.44,842.008 
  
  "/>
</svg>
