<?xml version="1.0" encoding="utf-8"?>
<svg xmlns="http://www.w3.org/2000/svg" xmlns:xlink="http://www.w3.org/1999/xlink" width="600" height="400" viewBox="0 0 2400 1600">
<defs>
  <clipPath id="clip340">
    <rect x="0" y="0" width="2400" height="1600"/>
  </clipPath>
</defs>
<path clip-path="url(#clip340)" d="
M0 1600 L2400 1600 L2400 0 L0 0  Z
  " fill="#ffffff" fill-rule="evenodd" fill-opacity="1"/>
<defs>
  <clipPath id="clip341">
    <rect x="480" y="0" width="1681" height="1600"/>
  </clipPath>
</defs>
<path clip-path="url(#clip340)" d="
M213.607 1486.45 L2352.76 1486.45 L2352.76 47.2441 L213.607 47.2441  Z
  " fill="#ffffff" fill-rule="evenodd" fill-opacity="1"/>
<defs>
  <clipPath id="clip342">
    <rect x="213" y="47" width="2140" height="1440"/>
  </clipPath>
</defs>
<polyline clip-path="url(#clip342)" style="stroke:#000000; stroke-linecap:butt; stroke-linejoin:round; stroke-width:2; stroke-opacity:0.1; fill:none" points="
  699.005,1486.45 699.005,47.2441 
  "/>
<polyline clip-path="url(#clip342)" style="stroke:#000000; stroke-linecap:butt; stroke-linejoin:round; stroke-width:2; stroke-opacity:0.1; fill:none" points="
  1230.07,1486.45 1230.07,47.2441 
  "/>
<polyline clip-path="url(#clip342)" style="stroke:#000000; stroke-linecap:butt; stroke-linejoin:round; stroke-width:2; stroke-opacity:0.1; fill:none" points="
  1761.14,1486.45 1761.14,47.2441 
  "/>
<polyline clip-path="url(#clip342)" style="stroke:#000000; stroke-linecap:butt; stroke-linejoin:round; stroke-width:2; stroke-opacity:0.1; fill:none" points="
  2292.21,1486.45 2292.21,47.2441 
  "/>
<polyline clip-path="url(#clip340)" style="stroke:#000000; stroke-linecap:butt; stroke-linejoin:round; stroke-width:4; stroke-opacity:1; fill:none" points="
  213.607,1486.45 2352.76,1486.45 
  "/>
<polyline clip-path="url(#clip340)" style="stroke:#000000; stroke-linecap:butt; stroke-linejoin:round; stroke-width:4; stroke-opacity:1; fill:none" points="
  699.005,1486.45 699.005,1467.55 
  "/>
<polyline clip-path="url(#clip340)" style="stroke:#000000; stroke-linecap:butt; stroke-linejoin:round; stroke-width:4; stroke-opacity:1; fill:none" points="
  1230.07,1486.45 1230.07,1467.55 
  "/>
<polyline clip-path="url(#clip340)" style="stroke:#000000; stroke-linecap:butt; stroke-linejoin:round; stroke-width:4; stroke-opacity:1; fill:none" points="
  1761.14,1486.45 1761.14,1467.55 
  "/>
<polyline clip-path="url(#clip340)" style="stroke:#000000; stroke-linecap:butt; stroke-linejoin:round; stroke-width:4; stroke-opacity:1; fill:none" points="
  2292.21,1486.45 2292.21,1467.55 
  "/>
<path clip-path="url(#clip340)" d="M689.283 1514.29 L707.639 1514.29 L707.639 1518.22 L693.565 1518.22 L693.565 1526.7 Q694.584 1526.35 695.602 1526.19 Q696.621 1526 697.639 1526 Q703.426 1526 706.806 1529.17 Q710.186 1532.34 710.186 1537.76 Q710.186 1543.34 706.713 1546.44 Q703.241 1549.52 696.922 1549.52 Q694.746 1549.52 692.477 1549.15 Q690.232 1548.78 687.825 1548.04 L687.825 1543.34 Q689.908 1544.47 692.13 1545.03 Q694.352 1545.58 696.829 1545.58 Q700.834 1545.58 703.172 1543.48 Q705.51 1541.37 705.51 1537.76 Q705.51 1534.15 703.172 1532.04 Q700.834 1529.94 696.829 1529.94 Q694.954 1529.94 693.079 1530.35 Q691.227 1530.77 689.283 1531.65 L689.283 1514.29 Z" fill="#000000" fill-rule="evenodd" fill-opacity="1" /><path clip-path="url(#clip340)" d="M1204.76 1544.91 L1212.4 1544.91 L1212.4 1518.55 L1204.09 1520.21 L1204.09 1515.95 L1212.35 1514.29 L1217.03 1514.29 L1217.03 1544.91 L1224.67 1544.91 L1224.67 1548.85 L1204.76 1548.85 L1204.76 1544.91 Z" fill="#000000" fill-rule="evenodd" fill-opacity="1" /><path clip-path="url(#clip340)" d="M1244.11 1517.37 Q1240.5 1517.37 1238.67 1520.93 Q1236.87 1524.47 1236.87 1531.6 Q1236.87 1538.71 1238.67 1542.27 Q1240.5 1545.82 1244.11 1545.82 Q1247.75 1545.82 1249.55 1542.27 Q1251.38 1538.71 1251.38 1531.6 Q1251.38 1524.47 1249.55 1520.93 Q1247.75 1517.37 1244.11 1517.37 M1244.11 1513.66 Q1249.92 1513.66 1252.98 1518.27 Q1256.06 1522.85 1256.06 1531.6 Q1256.06 1540.33 1252.98 1544.94 Q1249.92 1549.52 1244.11 1549.52 Q1238.3 1549.52 1235.23 1544.94 Q1232.17 1540.33 1232.17 1531.6 Q1232.17 1522.85 1235.23 1518.27 Q1238.3 1513.66 1244.11 1513.66 Z" fill="#000000" fill-rule="evenodd" fill-opacity="1" /><path clip-path="url(#clip340)" d="M1736.33 1544.91 L1743.97 1544.91 L1743.97 1518.55 L1735.66 1520.21 L1735.66 1515.95 L1743.92 1514.29 L1748.6 1514.29 L1748.6 1544.91 L1756.24 1544.91 L1756.24 1548.85 L1736.33 1548.85 L1736.33 1544.91 Z" fill="#000000" fill-rule="evenodd" fill-opacity="1" /><path clip-path="url(#clip340)" d="M1765.73 1514.29 L1784.08 1514.29 L1784.08 1518.22 L1770.01 1518.22 L1770.01 1526.7 Q1771.03 1526.35 1772.05 1526.19 Q1773.07 1526 1774.08 1526 Q1779.87 1526 1783.25 1529.17 Q1786.63 1532.34 1786.63 1537.76 Q1786.63 1543.34 1783.16 1546.44 Q1779.69 1549.52 1773.37 1549.52 Q1771.19 1549.52 1768.92 1549.15 Q1766.68 1548.78 1764.27 1548.04 L1764.27 1543.34 Q1766.35 1544.47 1768.57 1545.03 Q1770.8 1545.58 1773.27 1545.58 Q1777.28 1545.58 1779.62 1543.48 Q1781.95 1541.37 1781.95 1537.76 Q1781.95 1534.15 1779.62 1532.04 Q1777.28 1529.94 1773.27 1529.94 Q1771.4 1529.94 1769.52 1530.35 Q1767.67 1530.77 1765.73 1531.65 L1765.73 1514.29 Z" fill="#000000" fill-rule="evenodd" fill-opacity="1" /><path clip-path="url(#clip340)" d="M2270.99 1544.91 L2287.31 1544.91 L2287.31 1548.85 L2265.36 1548.85 L2265.36 1544.91 Q2268.02 1542.16 2272.61 1537.53 Q2277.21 1532.88 2278.39 1531.53 Q2280.64 1529.01 2281.52 1527.27 Q2282.42 1525.51 2282.42 1523.82 Q2282.42 1521.07 2280.48 1519.33 Q2278.56 1517.6 2275.45 1517.6 Q2273.26 1517.6 2270.8 1518.36 Q2268.37 1519.13 2265.59 1520.68 L2265.59 1515.95 Q2268.42 1514.82 2270.87 1514.24 Q2273.33 1513.66 2275.36 1513.66 Q2280.73 1513.66 2283.93 1516.35 Q2287.12 1519.03 2287.12 1523.52 Q2287.12 1525.65 2286.31 1527.57 Q2285.52 1529.47 2283.42 1532.07 Q2282.84 1532.74 2279.74 1535.95 Q2276.64 1539.15 2270.99 1544.91 Z" fill="#000000" fill-rule="evenodd" fill-opacity="1" /><path clip-path="url(#clip340)" d="M2307.12 1517.37 Q2303.51 1517.37 2301.68 1520.93 Q2299.88 1524.47 2299.88 1531.6 Q2299.88 1538.71 2301.68 1542.27 Q2303.51 1545.82 2307.12 1545.82 Q2310.76 1545.82 2312.56 1542.27 Q2314.39 1538.71 2314.39 1531.6 Q2314.39 1524.47 2312.56 1520.93 Q2310.76 1517.37 2307.12 1517.37 M2307.12 1513.66 Q2312.93 1513.66 2315.99 1518.27 Q2319.07 1522.85 2319.07 1531.6 Q2319.07 1540.33 2315.99 1544.94 Q2312.93 1549.52 2307.12 1549.52 Q2301.31 1549.52 2298.23 1544.94 Q2295.18 1540.33 2295.18 1531.6 Q2295.18 1522.85 2298.23 1518.27 Q2301.31 1513.66 2307.12 1513.66 Z" fill="#000000" fill-rule="evenodd" fill-opacity="1" /><polyline clip-path="url(#clip342)" style="stroke:#000000; stroke-linecap:butt; stroke-linejoin:round; stroke-width:2; stroke-opacity:0.1; fill:none" points="
  213.607,983.812 2352.76,983.812 
  "/>
<polyline clip-path="url(#clip342)" style="stroke:#000000; stroke-linecap:butt; stroke-linejoin:round; stroke-width:2; stroke-opacity:0.1; fill:none" points="
  213.607,208.102 2352.76,208.102 
  "/>
<polyline clip-path="url(#clip340)" style="stroke:#000000; stroke-linecap:butt; stroke-linejoin:round; stroke-width:4; stroke-opacity:1; fill:none" points="
  213.607,1486.45 213.607,47.2441 
  "/>
<polyline clip-path="url(#clip340)" style="stroke:#000000; stroke-linecap:butt; stroke-linejoin:round; stroke-width:4; stroke-opacity:1; fill:none" points="
  213.607,983.812 232.505,983.812 
  "/>
<polyline clip-path="url(#clip340)" style="stroke:#000000; stroke-linecap:butt; stroke-linejoin:round; stroke-width:4; stroke-opacity:1; fill:none" points="
  213.607,208.102 232.505,208.102 
  "/>
<path clip-path="url(#clip340)" d="M51.6634 1003.6 L59.3023 1003.6 L59.3023 977.239 L50.9921 978.905 L50.9921 974.646 L59.256 972.98 L63.9319 972.98 L63.9319 1003.6 L71.5707 1003.6 L71.5707 1007.54 L51.6634 1007.54 L51.6634 1003.6 Z" fill="#000000" fill-rule="evenodd" fill-opacity="1" /><path clip-path="url(#clip340)" d="M91.0151 976.058 Q87.404 976.058 85.5753 979.623 Q83.7697 983.165 83.7697 990.294 Q83.7697 997.401 85.5753 1000.97 Q87.404 1004.51 91.0151 1004.51 Q94.6493 1004.51 96.4548 1000.97 Q98.2835 997.401 98.2835 990.294 Q98.2835 983.165 96.4548 979.623 Q94.6493 976.058 91.0151 976.058 M91.0151 972.355 Q96.8252 972.355 99.8808 976.961 Q102.959 981.544 102.959 990.294 Q102.959 999.021 99.8808 1003.63 Q96.8252 1008.21 91.0151 1008.21 Q85.2049 1008.21 82.1262 1003.63 Q79.0707 999.021 79.0707 990.294 Q79.0707 981.544 82.1262 976.961 Q85.2049 972.355 91.0151 972.355 Z" fill="#000000" fill-rule="evenodd" fill-opacity="1" /><path clip-path="url(#clip340)" d="M102.959 966.456 L127.071 966.456 L127.071 969.653 L102.959 969.653 L102.959 966.456 Z" fill="#000000" fill-rule="evenodd" fill-opacity="1" /><path clip-path="url(#clip340)" d="M135.929 976.932 L142.136 976.932 L142.136 955.51 L135.384 956.864 L135.384 953.403 L142.098 952.049 L145.898 952.049 L145.898 976.932 L152.104 976.932 L152.104 980.129 L135.929 980.129 L135.929 976.932 Z" fill="#000000" fill-rule="evenodd" fill-opacity="1" /><path clip-path="url(#clip340)" d="M167.903 954.551 Q164.969 954.551 163.483 957.447 Q162.016 960.325 162.016 966.117 Q162.016 971.891 163.483 974.788 Q164.969 977.665 167.903 977.665 Q170.855 977.665 172.322 974.788 Q173.808 971.891 173.808 966.117 Q173.808 960.325 172.322 957.447 Q170.855 954.551 167.903 954.551 M167.903 951.541 Q172.623 951.541 175.106 955.284 Q177.607 959.008 177.607 966.117 Q177.607 973.208 175.106 976.951 Q172.623 980.675 167.903 980.675 Q163.182 980.675 160.68 976.951 Q158.198 973.208 158.198 966.117 Q158.198 959.008 160.68 955.284 Q163.182 951.541 167.903 951.541 Z" fill="#000000" fill-rule="evenodd" fill-opacity="1" /><path clip-path="url(#clip340)" d="M106.902 227.894 L114.541 227.894 L114.541 201.528 L106.231 203.195 L106.231 198.936 L114.494 197.269 L119.17 197.269 L119.17 227.894 L126.809 227.894 L126.809 231.829 L106.902 231.829 L106.902 227.894 Z" fill="#000000" fill-rule="evenodd" fill-opacity="1" /><path clip-path="url(#clip340)" d="M146.253 200.348 Q142.642 200.348 140.814 203.913 Q139.008 207.454 139.008 214.584 Q139.008 221.69 140.814 225.255 Q142.642 228.797 146.253 228.797 Q149.888 228.797 151.693 225.255 Q153.522 221.69 153.522 214.584 Q153.522 207.454 151.693 203.913 Q149.888 200.348 146.253 200.348 M146.253 196.644 Q152.064 196.644 155.119 201.251 Q158.198 205.834 158.198 214.584 Q158.198 223.311 155.119 227.917 Q152.064 232.501 146.253 232.501 Q140.443 232.501 137.365 227.917 Q134.309 223.311 134.309 214.584 Q134.309 205.834 137.365 201.251 Q140.443 196.644 146.253 196.644 Z" fill="#000000" fill-rule="evenodd" fill-opacity="1" /><path clip-path="url(#clip340)" d="M167.903 178.84 Q164.969 178.84 163.483 181.737 Q162.016 184.614 162.016 190.407 Q162.016 196.181 163.483 199.077 Q164.969 201.955 167.903 201.955 Q170.855 201.955 172.322 199.077 Q173.808 196.181 173.808 190.407 Q173.808 184.614 172.322 181.737 Q170.855 178.84 167.903 178.84 M167.903 175.831 Q172.623 175.831 175.106 179.574 Q177.607 183.298 177.607 190.407 Q177.607 197.498 175.106 201.24 Q172.623 204.964 167.903 204.964 Q163.182 204.964 160.68 201.24 Q158.198 197.498 158.198 190.407 Q158.198 183.298 160.68 179.574 Q163.182 175.831 167.903 175.831 Z" fill="#000000" fill-rule="evenodd" fill-opacity="1" /><polyline clip-path="url(#clip342)" style="stroke:#009af9; stroke-linecap:butt; stroke-linejoin:round; stroke-width:12; stroke-opacity:1; fill:none" points="
  274.149,164.871 380.363,87.9763 486.577,135.494 592.791,185.473 699.005,244.615 805.219,334.317 911.433,503.596 1017.65,841.264 1123.86,1445.72 1230.07,1445.72 
  1336.29,1445.72 1442.5,1445.72 1548.72,1445.72 1654.93,1445.72 1761.14,1445.72 1867.36,1445.72 1973.57,1445.72 2079.79,1445.72 2186,1445.72 2292.21,1445.72 
  
  "/>
<line clip-path="url(#clip342)" x1="274.149" y1="164.871" x2="274.149" y2="148.871" style="stroke:#009af9; stroke-width:3.2; stroke-opacity:1"/>
<line clip-path="url(#clip342)" x1="274.149" y1="164.871" x2="258.149" y2="164.871" style="stroke:#009af9; stroke-width:3.2; stroke-opacity:1"/>
<line clip-path="url(#clip342)" x1="274.149" y1="164.871" x2="274.149" y2="180.871" style="stroke:#009af9; stroke-width:3.2; stroke-opacity:1"/>
<line clip-path="url(#clip342)" x1="274.149" y1="164.871" x2="290.149" y2="164.871" style="stroke:#009af9; stroke-width:3.2; stroke-opacity:1"/>
<line clip-path="url(#clip342)" x1="380.363" y1="87.9763" x2="380.363" y2="71.9763" style="stroke:#009af9; stroke-width:3.2; stroke-opacity:1"/>
<line clip-path="url(#clip342)" x1="380.363" y1="87.9763" x2="364.363" y2="87.9763" style="stroke:#009af9; stroke-width:3.2; stroke-opacity:1"/>
<line clip-path="url(#clip342)" x1="380.363" y1="87.9763" x2="380.363" y2="103.976" style="stroke:#009af9; stroke-width:3.2; stroke-opacity:1"/>
<line clip-path="url(#clip342)" x1="380.363" y1="87.9763" x2="396.363" y2="87.9763" style="stroke:#009af9; stroke-width:3.2; stroke-opacity:1"/>
<line clip-path="url(#clip342)" x1="486.577" y1="135.494" x2="486.577" y2="119.494" style="stroke:#009af9; stroke-width:3.2; stroke-opacity:1"/>
<line clip-path="url(#clip342)" x1="486.577" y1="135.494" x2="470.577" y2="135.494" style="stroke:#009af9; stroke-width:3.2; stroke-opacity:1"/>
<line clip-path="url(#clip342)" x1="486.577" y1="135.494" x2="486.577" y2="151.494" style="stroke:#009af9; stroke-width:3.2; stroke-opacity:1"/>
<line clip-path="url(#clip342)" x1="486.577" y1="135.494" x2="502.577" y2="135.494" style="stroke:#009af9; stroke-width:3.2; stroke-opacity:1"/>
<line clip-path="url(#clip342)" x1="592.791" y1="185.473" x2="592.791" y2="169.473" style="stroke:#009af9; stroke-width:3.2; stroke-opacity:1"/>
<line clip-path="url(#clip342)" x1="592.791" y1="185.473" x2="576.791" y2="185.473" style="stroke:#009af9; stroke-width:3.2; stroke-opacity:1"/>
<line clip-path="url(#clip342)" x1="592.791" y1="185.473" x2="592.791" y2="201.473" style="stroke:#009af9; stroke-width:3.2; stroke-opacity:1"/>
<line clip-path="url(#clip342)" x1="592.791" y1="185.473" x2="608.791" y2="185.473" style="stroke:#009af9; stroke-width:3.2; stroke-opacity:1"/>
<line clip-path="url(#clip342)" x1="699.005" y1="244.615" x2="699.005" y2="228.615" style="stroke:#009af9; stroke-width:3.2; stroke-opacity:1"/>
<line clip-path="url(#clip342)" x1="699.005" y1="244.615" x2="683.005" y2="244.615" style="stroke:#009af9; stroke-width:3.2; stroke-opacity:1"/>
<line clip-path="url(#clip342)" x1="699.005" y1="244.615" x2="699.005" y2="260.615" style="stroke:#009af9; stroke-width:3.2; stroke-opacity:1"/>
<line clip-path="url(#clip342)" x1="699.005" y1="244.615" x2="715.005" y2="244.615" style="stroke:#009af9; stroke-width:3.2; stroke-opacity:1"/>
<line clip-path="url(#clip342)" x1="805.219" y1="334.317" x2="805.219" y2="318.317" style="stroke:#009af9; stroke-width:3.2; stroke-opacity:1"/>
<line clip-path="url(#clip342)" x1="805.219" y1="334.317" x2="789.219" y2="334.317" style="stroke:#009af9; stroke-width:3.2; stroke-opacity:1"/>
<line clip-path="url(#clip342)" x1="805.219" y1="334.317" x2="805.219" y2="350.317" style="stroke:#009af9; stroke-width:3.2; stroke-opacity:1"/>
<line clip-path="url(#clip342)" x1="805.219" y1="334.317" x2="821.219" y2="334.317" style="stroke:#009af9; stroke-width:3.2; stroke-opacity:1"/>
<line clip-path="url(#clip342)" x1="911.433" y1="503.596" x2="911.433" y2="487.596" style="stroke:#009af9; stroke-width:3.2; stroke-opacity:1"/>
<line clip-path="url(#clip342)" x1="911.433" y1="503.596" x2="895.433" y2="503.596" style="stroke:#009af9; stroke-width:3.2; stroke-opacity:1"/>
<line clip-path="url(#clip342)" x1="911.433" y1="503.596" x2="911.433" y2="519.596" style="stroke:#009af9; stroke-width:3.2; stroke-opacity:1"/>
<line clip-path="url(#clip342)" x1="911.433" y1="503.596" x2="927.433" y2="503.596" style="stroke:#009af9; stroke-width:3.2; stroke-opacity:1"/>
<line clip-path="url(#clip342)" x1="1017.65" y1="841.264" x2="1017.65" y2="825.264" style="stroke:#009af9; stroke-width:3.2; stroke-opacity:1"/>
<line clip-path="url(#clip342)" x1="1017.65" y1="841.264" x2="1001.65" y2="841.264" style="stroke:#009af9; stroke-width:3.2; stroke-opacity:1"/>
<line clip-path="url(#clip342)" x1="1017.65" y1="841.264" x2="1017.65" y2="857.264" style="stroke:#009af9; stroke-width:3.2; stroke-opacity:1"/>
<line clip-path="url(#clip342)" x1="1017.65" y1="841.264" x2="1033.65" y2="841.264" style="stroke:#009af9; stroke-width:3.2; stroke-opacity:1"/>
<line clip-path="url(#clip342)" x1="1123.86" y1="1445.72" x2="1123.86" y2="1429.72" style="stroke:#009af9; stroke-width:3.2; stroke-opacity:1"/>
<line clip-path="url(#clip342)" x1="1123.86" y1="1445.72" x2="1107.86" y2="1445.72" style="stroke:#009af9; stroke-width:3.2; stroke-opacity:1"/>
<line clip-path="url(#clip342)" x1="1123.86" y1="1445.72" x2="1123.86" y2="1461.72" style="stroke:#009af9; stroke-width:3.2; stroke-opacity:1"/>
<line clip-path="url(#clip342)" x1="1123.86" y1="1445.72" x2="1139.86" y2="1445.72" style="stroke:#009af9; stroke-width:3.2; stroke-opacity:1"/>
<line clip-path="url(#clip342)" x1="1230.07" y1="1445.72" x2="1230.07" y2="1429.72" style="stroke:#009af9; stroke-width:3.2; stroke-opacity:1"/>
<line clip-path="url(#clip342)" x1="1230.07" y1="1445.72" x2="1214.07" y2="1445.72" style="stroke:#009af9; stroke-width:3.2; stroke-opacity:1"/>
<line clip-path="url(#clip342)" x1="1230.07" y1="1445.72" x2="1230.07" y2="1461.72" style="stroke:#009af9; stroke-width:3.2; stroke-opacity:1"/>
<line clip-path="url(#clip342)" x1="1230.07" y1="1445.72" x2="1246.07" y2="1445.72" style="stroke:#009af9; stroke-width:3.2; stroke-opacity:1"/>
<line clip-path="url(#clip342)" x1="1336.29" y1="1445.72" x2="1336.29" y2="1429.72" style="stroke:#009af9; stroke-width:3.2; stroke-opacity:1"/>
<line clip-path="url(#clip342)" x1="1336.29" y1="1445.72" x2="1320.29" y2="1445.72" style="stroke:#009af9; stroke-width:3.2; stroke-opacity:1"/>
<line clip-path="url(#clip342)" x1="1336.29" y1="1445.72" x2="1336.29" y2="1461.72" style="stroke:#009af9; stroke-width:3.2; stroke-opacity:1"/>
<line clip-path="url(#clip342)" x1="1336.29" y1="1445.72" x2="1352.29" y2="1445.72" style="stroke:#009af9; stroke-width:3.2; stroke-opacity:1"/>
<line clip-path="url(#clip342)" x1="1442.5" y1="1445.72" x2="1442.5" y2="1429.72" style="stroke:#009af9; stroke-width:3.2; stroke-opacity:1"/>
<line clip-path="url(#clip342)" x1="1442.5" y1="1445.72" x2="1426.5" y2="1445.72" style="stroke:#009af9; stroke-width:3.2; stroke-opacity:1"/>
<line clip-path="url(#clip342)" x1="1442.5" y1="1445.72" x2="1442.5" y2="1461.72" style="stroke:#009af9; stroke-width:3.2; stroke-opacity:1"/>
<line clip-path="url(#clip342)" x1="1442.5" y1="1445.72" x2="1458.5" y2="1445.72" style="stroke:#009af9; stroke-width:3.2; stroke-opacity:1"/>
<line clip-path="url(#clip342)" x1="1548.72" y1="1445.72" x2="1548.72" y2="1429.72" style="stroke:#009af9; stroke-width:3.2; stroke-opacity:1"/>
<line clip-path="url(#clip342)" x1="1548.72" y1="1445.72" x2="1532.72" y2="1445.72" style="stroke:#009af9; stroke-width:3.2; stroke-opacity:1"/>
<line clip-path="url(#clip342)" x1="1548.72" y1="1445.72" x2="1548.72" y2="1461.72" style="stroke:#009af9; stroke-width:3.2; stroke-opacity:1"/>
<line clip-path="url(#clip342)" x1="1548.72" y1="1445.72" x2="1564.72" y2="1445.72" style="stroke:#009af9; stroke-width:3.2; stroke-opacity:1"/>
<line clip-path="url(#clip342)" x1="1654.93" y1="1445.72" x2="1654.93" y2="1429.72" style="stroke:#009af9; stroke-width:3.2; stroke-opacity:1"/>
<line clip-path="url(#clip342)" x1="1654.93" y1="1445.72" x2="1638.93" y2="1445.72" style="stroke:#009af9; stroke-width:3.2; stroke-opacity:1"/>
<line clip-path="url(#clip342)" x1="1654.93" y1="1445.72" x2="1654.93" y2="1461.72" style="stroke:#009af9; stroke-width:3.2; stroke-opacity:1"/>
<line clip-path="url(#clip342)" x1="1654.93" y1="1445.72" x2="1670.93" y2="1445.72" style="stroke:#009af9; stroke-width:3.2; stroke-opacity:1"/>
<line clip-path="url(#clip342)" x1="1761.14" y1="1445.72" x2="1761.14" y2="1429.72" style="stroke:#009af9; stroke-width:3.2; stroke-opacity:1"/>
<line clip-path="url(#clip342)" x1="1761.14" y1="1445.72" x2="1745.14" y2="1445.72" style="stroke:#009af9; stroke-width:3.2; stroke-opacity:1"/>
<line clip-path="url(#clip342)" x1="1761.14" y1="1445.72" x2="1761.14" y2="1461.72" style="stroke:#009af9; stroke-width:3.2; stroke-opacity:1"/>
<line clip-path="url(#clip342)" x1="1761.14" y1="1445.72" x2="1777.14" y2="1445.72" style="stroke:#009af9; stroke-width:3.2; stroke-opacity:1"/>
<line clip-path="url(#clip342)" x1="1867.36" y1="1445.72" x2="1867.36" y2="1429.72" style="stroke:#009af9; stroke-width:3.2; stroke-opacity:1"/>
<line clip-path="url(#clip342)" x1="1867.36" y1="1445.72" x2="1851.36" y2="1445.72" style="stroke:#009af9; stroke-width:3.2; stroke-opacity:1"/>
<line clip-path="url(#clip342)" x1="1867.36" y1="1445.72" x2="1867.36" y2="1461.72" style="stroke:#009af9; stroke-width:3.2; stroke-opacity:1"/>
<line clip-path="url(#clip342)" x1="1867.36" y1="1445.72" x2="1883.36" y2="1445.72" style="stroke:#009af9; stroke-width:3.2; stroke-opacity:1"/>
<line clip-path="url(#clip342)" x1="1973.57" y1="1445.72" x2="1973.57" y2="1429.72" style="stroke:#009af9; stroke-width:3.2; stroke-opacity:1"/>
<line clip-path="url(#clip342)" x1="1973.57" y1="1445.72" x2="1957.57" y2="1445.72" style="stroke:#009af9; stroke-width:3.2; stroke-opacity:1"/>
<line clip-path="url(#clip342)" x1="1973.57" y1="1445.72" x2="1973.57" y2="1461.72" style="stroke:#009af9; stroke-width:3.2; stroke-opacity:1"/>
<line clip-path="url(#clip342)" x1="1973.57" y1="1445.72" x2="1989.57" y2="1445.72" style="stroke:#009af9; stroke-width:3.2; stroke-opacity:1"/>
<line clip-path="url(#clip342)" x1="2079.79" y1="1445.72" x2="2079.79" y2="1429.72" style="stroke:#009af9; stroke-width:3.2; stroke-opacity:1"/>
<line clip-path="url(#clip342)" x1="2079.79" y1="1445.72" x2="2063.79" y2="1445.72" style="stroke:#009af9; stroke-width:3.2; stroke-opacity:1"/>
<line clip-path="url(#clip342)" x1="2079.79" y1="1445.72" x2="2079.79" y2="1461.72" style="stroke:#009af9; stroke-width:3.2; stroke-opacity:1"/>
<line clip-path="url(#clip342)" x1="2079.79" y1="1445.72" x2="2095.79" y2="1445.72" style="stroke:#009af9; stroke-width:3.2; stroke-opacity:1"/>
<line clip-path="url(#clip342)" x1="2186" y1="1445.72" x2="2186" y2="1429.72" style="stroke:#009af9; stroke-width:3.2; stroke-opacity:1"/>
<line clip-path="url(#clip342)" x1="2186" y1="1445.72" x2="2170" y2="1445.72" style="stroke:#009af9; stroke-width:3.2; stroke-opacity:1"/>
<line clip-path="url(#clip342)" x1="2186" y1="1445.72" x2="2186" y2="1461.72" style="stroke:#009af9; stroke-width:3.2; stroke-opacity:1"/>
<line clip-path="url(#clip342)" x1="2186" y1="1445.72" x2="2202" y2="1445.72" style="stroke:#009af9; stroke-width:3.2; stroke-opacity:1"/>
<line clip-path="url(#clip342)" x1="2292.21" y1="1445.72" x2="2292.21" y2="1429.72" style="stroke:#009af9; stroke-width:3.2; stroke-opacity:1"/>
<line clip-path="url(#clip342)" x1="2292.21" y1="1445.72" x2="2276.21" y2="1445.72" style="stroke:#009af9; stroke-width:3.2; stroke-opacity:1"/>
<line clip-path="url(#clip342)" x1="2292.21" y1="1445.72" x2="2292.21" y2="1461.72" style="stroke:#009af9; stroke-width:3.2; stroke-opacity:1"/>
<line clip-path="url(#clip342)" x1="2292.21" y1="1445.72" x2="2308.21" y2="1445.72" style="stroke:#009af9; stroke-width:3.2; stroke-opacity:1"/>
<path clip-path="url(#clip340)" d="
M1991.34 198.898 L2281.45 198.898 L2281.45 95.2176 L1991.34 95.2176  Z
  " fill="#ffffff" fill-rule="evenodd" fill-opacity="1"/>
<polyline clip-path="url(#clip340)" style="stroke:#000000; stroke-linecap:butt; stroke-linejoin:round; stroke-width:4; stroke-opacity:1; fill:none" points="
  1991.34,198.898 2281.45,198.898 2281.45,95.2176 1991.34,95.2176 1991.34,198.898 
  "/>
<polyline clip-path="url(#clip340)" style="stroke:#009af9; stroke-linecap:butt; stroke-linejoin:round; stroke-width:4; stroke-opacity:1; fill:none" points="
  2015.11,147.058 2157.72,147.058 
  "/>
<line clip-path="url(#clip340)" x1="2086.41" y1="147.058" x2="2086.41" y2="121.458" style="stroke:#009af9; stroke-width:5.12; stroke-opacity:1"/>
<line clip-path="url(#clip340)" x1="2086.41" y1="147.058" x2="2060.81" y2="147.058" style="stroke:#009af9; stroke-width:5.12; stroke-opacity:1"/>
<line clip-path="url(#clip340)" x1="2086.41" y1="147.058" x2="2086.41" y2="172.658" style="stroke:#009af9; stroke-width:5.12; stroke-opacity:1"/>
<line clip-path="url(#clip340)" x1="2086.41" y1="147.058" x2="2112.01" y2="147.058" style="stroke:#009af9; stroke-width:5.12; stroke-opacity:1"/>
<path clip-path="url(#clip340)" d="M2195.33 166.745 Q2193.52 171.375 2191.81 172.787 Q2190.1 174.199 2187.22 174.199 L2183.82 174.199 L2183.82 170.634 L2186.32 170.634 Q2188.08 170.634 2189.05 169.8 Q2190.03 168.967 2191.21 165.865 L2191.97 163.921 L2181.48 138.412 L2186 138.412 L2194.1 158.689 L2202.2 138.412 L2206.72 138.412 L2195.33 166.745 Z" fill="#000000" fill-rule="evenodd" fill-opacity="1" /><path clip-path="url(#clip340)" d="M2214.01 160.402 L2221.65 160.402 L2221.65 134.037 L2213.34 135.703 L2213.34 131.444 L2221.6 129.778 L2226.28 129.778 L2226.28 160.402 L2233.91 160.402 L2233.91 164.338 L2214.01 164.338 L2214.01 160.402 Z" fill="#000000" fill-rule="evenodd" fill-opacity="1" /></svg>
