<?xml version="1.0" encoding="utf-8"?>
<svg xmlns="http://www.w3.org/2000/svg" xmlns:xlink="http://www.w3.org/1999/xlink" width="600" height="400" viewBox="0 0 2400 1600">
<defs>
  <clipPath id="clip020">
    <rect x="0" y="0" width="2400" height="1600"/>
  </clipPath>
</defs>
<path clip-path="url(#clip020)" d="
M0 1600 L2400 1600 L2400 0 L0 0  Z
  " fill="#ffffff" fill-rule="evenodd" fill-opacity="1"/>
<defs>
  <clipPath id="clip021">
    <rect x="480" y="0" width="1681" height="1600"/>
  </clipPath>
</defs>
<path clip-path="url(#clip020)" d="
M193.936 1486.45 L2352.76 1486.45 L2352.76 123.472 L193.936 123.472  Z
  " fill="#ffffff" fill-rule="evenodd" fill-opacity="1"/>
<defs>
  <clipPath id="clip022">
    <rect x="193" y="123" width="2160" height="1364"/>
  </clipPath>
</defs>
<polyline clip-path="url(#clip022)" style="stroke:#000000; stroke-linecap:butt; stroke-linejoin:round; stroke-width:2; stroke-opacity:0.1; fill:none" points="
  193.936,1486.45 193.936,123.472 
  "/>
<polyline clip-path="url(#clip022)" style="stroke:#000000; stroke-linecap:butt; stroke-linejoin:round; stroke-width:2; stroke-opacity:0.1; fill:none" points="
  733.641,1486.45 733.641,123.472 
  "/>
<polyline clip-path="url(#clip022)" style="stroke:#000000; stroke-linecap:butt; stroke-linejoin:round; stroke-width:2; stroke-opacity:0.1; fill:none" points="
  1273.35,1486.45 1273.35,123.472 
  "/>
<polyline clip-path="url(#clip022)" style="stroke:#000000; stroke-linecap:butt; stroke-linejoin:round; stroke-width:2; stroke-opacity:0.1; fill:none" points="
  1813.05,1486.45 1813.05,123.472 
  "/>
<polyline clip-path="url(#clip022)" style="stroke:#000000; stroke-linecap:butt; stroke-linejoin:round; stroke-width:2; stroke-opacity:0.1; fill:none" points="
  2352.76,1486.45 2352.76,123.472 
  "/>
<polyline clip-path="url(#clip020)" style="stroke:#000000; stroke-linecap:butt; stroke-linejoin:round; stroke-width:4; stroke-opacity:1; fill:none" points="
  193.936,1486.45 2352.76,1486.45 
  "/>
<polyline clip-path="url(#clip020)" style="stroke:#000000; stroke-linecap:butt; stroke-linejoin:round; stroke-width:4; stroke-opacity:1; fill:none" points="
  193.936,1486.45 193.936,1467.55 
  "/>
<polyline clip-path="url(#clip020)" style="stroke:#000000; stroke-linecap:butt; stroke-linejoin:round; stroke-width:4; stroke-opacity:1; fill:none" points="
  733.641,1486.45 733.641,1467.55 
  "/>
<polyline clip-path="url(#clip020)" style="stroke:#000000; stroke-linecap:butt; stroke-linejoin:round; stroke-width:4; stroke-opacity:1; fill:none" points="
  1273.35,1486.45 1273.35,1467.55 
  "/>
<polyline clip-path="url(#clip020)" style="stroke:#000000; stroke-linecap:butt; stroke-linejoin:round; stroke-width:4; stroke-opacity:1; fill:none" points="
  1813.05,1486.45 1813.05,1467.55 
  "/>
<polyline clip-path="url(#clip020)" style="stroke:#000000; stroke-linecap:butt; stroke-linejoin:round; stroke-width:4; stroke-opacity:1; fill:none" points="
  2352.76,1486.45 2352.76,1467.55 
  "/>
<path clip-path="url(#clip020)" d="M140.464 1532.02 L170.14 1532.02 L170.14 1535.95 L140.464 1535.95 L140.464 1532.02 Z" fill="#000000" fill-rule="evenodd" fill-opacity="1" /><path clip-path="url(#clip020)" d="M181.043 1544.91 L188.681 1544.91 L188.681 1518.55 L180.371 1520.21 L180.371 1515.95 L188.635 1514.29 L193.311 1514.29 L193.311 1544.91 L200.95 1544.91 L200.95 1548.85 L181.043 1548.85 L181.043 1544.91 Z" fill="#000000" fill-rule="evenodd" fill-opacity="1" /><path clip-path="url(#clip020)" d="M210.394 1542.97 L215.278 1542.97 L215.278 1548.85 L210.394 1548.85 L210.394 1542.97 Z" fill="#000000" fill-rule="evenodd" fill-opacity="1" /><path clip-path="url(#clip020)" d="M235.464 1517.37 Q231.852 1517.37 230.024 1520.93 Q228.218 1524.47 228.218 1531.6 Q228.218 1538.71 230.024 1542.27 Q231.852 1545.82 235.464 1545.82 Q239.098 1545.82 240.903 1542.27 Q242.732 1538.71 242.732 1531.6 Q242.732 1524.47 240.903 1520.93 Q239.098 1517.37 235.464 1517.37 M235.464 1513.66 Q241.274 1513.66 244.329 1518.27 Q247.408 1522.85 247.408 1531.6 Q247.408 1540.33 244.329 1544.94 Q241.274 1549.52 235.464 1549.52 Q229.653 1549.52 226.575 1544.94 Q223.519 1540.33 223.519 1531.6 Q223.519 1522.85 226.575 1518.27 Q229.653 1513.66 235.464 1513.66 Z" fill="#000000" fill-rule="evenodd" fill-opacity="1" /><path clip-path="url(#clip020)" d="M680.667 1532.02 L710.342 1532.02 L710.342 1535.95 L680.667 1535.95 L680.667 1532.02 Z" fill="#000000" fill-rule="evenodd" fill-opacity="1" /><path clip-path="url(#clip020)" d="M730.435 1517.37 Q726.824 1517.37 724.995 1520.93 Q723.19 1524.47 723.19 1531.6 Q723.19 1538.71 724.995 1542.27 Q726.824 1545.82 730.435 1545.82 Q734.069 1545.82 735.875 1542.27 Q737.703 1538.71 737.703 1531.6 Q737.703 1524.47 735.875 1520.93 Q734.069 1517.37 730.435 1517.37 M730.435 1513.66 Q736.245 1513.66 739.301 1518.27 Q742.379 1522.85 742.379 1531.6 Q742.379 1540.33 739.301 1544.94 Q736.245 1549.52 730.435 1549.52 Q724.625 1549.52 721.546 1544.94 Q718.491 1540.33 718.491 1531.6 Q718.491 1522.85 721.546 1518.27 Q724.625 1513.66 730.435 1513.66 Z" fill="#000000" fill-rule="evenodd" fill-opacity="1" /><path clip-path="url(#clip020)" d="M750.597 1542.97 L755.481 1542.97 L755.481 1548.85 L750.597 1548.85 L750.597 1542.97 Z" fill="#000000" fill-rule="evenodd" fill-opacity="1" /><path clip-path="url(#clip020)" d="M765.713 1514.29 L784.069 1514.29 L784.069 1518.22 L769.995 1518.22 L769.995 1526.7 Q771.013 1526.35 772.032 1526.19 Q773.05 1526 774.069 1526 Q779.856 1526 783.236 1529.17 Q786.615 1532.34 786.615 1537.76 Q786.615 1543.34 783.143 1546.44 Q779.671 1549.52 773.351 1549.52 Q771.175 1549.52 768.907 1549.15 Q766.662 1548.78 764.254 1548.04 L764.254 1543.34 Q766.338 1544.47 768.56 1545.03 Q770.782 1545.58 773.259 1545.58 Q777.263 1545.58 779.601 1543.48 Q781.939 1541.37 781.939 1537.76 Q781.939 1534.15 779.601 1532.04 Q777.263 1529.94 773.259 1529.94 Q771.384 1529.94 769.509 1530.35 Q767.657 1530.77 765.713 1531.65 L765.713 1514.29 Z" fill="#000000" fill-rule="evenodd" fill-opacity="1" /><path clip-path="url(#clip020)" d="M1250.73 1517.37 Q1247.12 1517.37 1245.29 1520.93 Q1243.49 1524.47 1243.49 1531.6 Q1243.49 1538.71 1245.29 1542.27 Q1247.12 1545.82 1250.73 1545.82 Q1254.36 1545.82 1256.17 1542.27 Q1258 1538.71 1258 1531.6 Q1258 1524.47 1256.17 1520.93 Q1254.36 1517.37 1250.73 1517.37 M1250.73 1513.66 Q1256.54 1513.66 1259.6 1518.27 Q1262.67 1522.85 1262.67 1531.6 Q1262.67 1540.33 1259.6 1544.94 Q1256.54 1549.52 1250.73 1549.52 Q1244.92 1549.52 1241.84 1544.94 Q1238.79 1540.33 1238.79 1531.6 Q1238.79 1522.85 1241.84 1518.27 Q1244.92 1513.66 1250.73 1513.66 Z" fill="#000000" fill-rule="evenodd" fill-opacity="1" /><path clip-path="url(#clip020)" d="M1270.89 1542.97 L1275.78 1542.97 L1275.78 1548.85 L1270.89 1548.85 L1270.89 1542.97 Z" fill="#000000" fill-rule="evenodd" fill-opacity="1" /><path clip-path="url(#clip020)" d="M1295.96 1517.37 Q1292.35 1517.37 1290.52 1520.93 Q1288.72 1524.47 1288.72 1531.6 Q1288.72 1538.71 1290.52 1542.27 Q1292.35 1545.82 1295.96 1545.82 Q1299.6 1545.82 1301.4 1542.27 Q1303.23 1538.71 1303.23 1531.6 Q1303.23 1524.47 1301.4 1520.93 Q1299.6 1517.37 1295.96 1517.37 M1295.96 1513.66 Q1301.77 1513.66 1304.83 1518.27 Q1307.91 1522.85 1307.91 1531.6 Q1307.91 1540.33 1304.83 1544.94 Q1301.77 1549.52 1295.96 1549.52 Q1290.15 1549.52 1287.07 1544.94 Q1284.02 1540.33 1284.02 1531.6 Q1284.02 1522.85 1287.07 1518.27 Q1290.15 1513.66 1295.96 1513.66 Z" fill="#000000" fill-rule="evenodd" fill-opacity="1" /><path clip-path="url(#clip020)" d="M1790.93 1517.37 Q1787.32 1517.37 1785.49 1520.93 Q1783.69 1524.47 1783.69 1531.6 Q1783.69 1538.71 1785.49 1542.27 Q1787.32 1545.82 1790.93 1545.82 Q1794.57 1545.82 1796.37 1542.27 Q1798.2 1538.71 1798.2 1531.6 Q1798.2 1524.47 1796.37 1520.93 Q1794.57 1517.37 1790.93 1517.37 M1790.93 1513.66 Q1796.74 1513.66 1799.8 1518.27 Q1802.88 1522.85 1802.88 1531.6 Q1802.88 1540.33 1799.8 1544.94 Q1796.74 1549.52 1790.93 1549.52 Q1785.12 1549.52 1782.04 1544.94 Q1778.99 1540.33 1778.99 1531.6 Q1778.99 1522.85 1782.04 1518.27 Q1785.12 1513.66 1790.93 1513.66 Z" fill="#000000" fill-rule="evenodd" fill-opacity="1" /><path clip-path="url(#clip020)" d="M1811.09 1542.97 L1815.98 1542.97 L1815.98 1548.85 L1811.09 1548.85 L1811.09 1542.97 Z" fill="#000000" fill-rule="evenodd" fill-opacity="1" /><path clip-path="url(#clip020)" d="M1826.21 1514.29 L1844.57 1514.29 L1844.57 1518.22 L1830.49 1518.22 L1830.49 1526.7 Q1831.51 1526.35 1832.53 1526.19 Q1833.55 1526 1834.57 1526 Q1840.35 1526 1843.73 1529.17 Q1847.11 1532.34 1847.11 1537.76 Q1847.11 1543.34 1843.64 1546.44 Q1840.17 1549.52 1833.85 1549.52 Q1831.67 1549.52 1829.41 1549.15 Q1827.16 1548.78 1824.75 1548.04 L1824.75 1543.34 Q1826.84 1544.47 1829.06 1545.03 Q1831.28 1545.58 1833.76 1545.58 Q1837.76 1545.58 1840.1 1543.48 Q1842.44 1541.37 1842.44 1537.76 Q1842.44 1534.15 1840.1 1532.04 Q1837.76 1529.94 1833.76 1529.94 Q1831.88 1529.94 1830.01 1530.35 Q1828.16 1530.77 1826.21 1531.65 L1826.21 1514.29 Z" fill="#000000" fill-rule="evenodd" fill-opacity="1" /><path clip-path="url(#clip020)" d="M2319.91 1544.91 L2327.55 1544.91 L2327.55 1518.55 L2319.24 1520.21 L2319.24 1515.95 L2327.5 1514.29 L2332.18 1514.29 L2332.18 1544.91 L2339.82 1544.91 L2339.82 1548.85 L2319.91 1548.85 L2319.91 1544.91 Z" fill="#000000" fill-rule="evenodd" fill-opacity="1" /><path clip-path="url(#clip020)" d="M2349.26 1542.97 L2354.14 1542.97 L2354.14 1548.85 L2349.26 1548.85 L2349.26 1542.97 Z" fill="#000000" fill-rule="evenodd" fill-opacity="1" /><path clip-path="url(#clip020)" d="M2374.33 1517.37 Q2370.72 1517.37 2368.89 1520.93 Q2367.08 1524.47 2367.08 1531.6 Q2367.08 1538.71 2368.89 1542.27 Q2370.72 1545.82 2374.33 1545.82 Q2377.96 1545.82 2379.77 1542.27 Q2381.6 1538.71 2381.6 1531.6 Q2381.6 1524.47 2379.77 1520.93 Q2377.96 1517.37 2374.33 1517.37 M2374.33 1513.66 Q2380.14 1513.66 2383.2 1518.27 Q2386.27 1522.85 2386.27 1531.6 Q2386.27 1540.33 2383.2 1544.94 Q2380.14 1549.52 2374.33 1549.52 Q2368.52 1549.52 2365.44 1544.94 Q2362.39 1540.33 2362.39 1531.6 Q2362.39 1522.85 2365.44 1518.27 Q2368.52 1513.66 2374.33 1513.66 Z" fill="#000000" fill-rule="evenodd" fill-opacity="1" /><polyline clip-path="url(#clip022)" style="stroke:#000000; stroke-linecap:butt; stroke-linejoin:round; stroke-width:2; stroke-opacity:0.1; fill:none" points="
  193.936,1402.24 2352.76,1402.24 
  "/>
<polyline clip-path="url(#clip022)" style="stroke:#000000; stroke-linecap:butt; stroke-linejoin:round; stroke-width:2; stroke-opacity:0.1; fill:none" points="
  193.936,1103.6 2352.76,1103.6 
  "/>
<polyline clip-path="url(#clip022)" style="stroke:#000000; stroke-linecap:butt; stroke-linejoin:round; stroke-width:2; stroke-opacity:0.1; fill:none" points="
  193.936,804.96 2352.76,804.96 
  "/>
<polyline clip-path="url(#clip022)" style="stroke:#000000; stroke-linecap:butt; stroke-linejoin:round; stroke-width:2; stroke-opacity:0.1; fill:none" points="
  193.936,506.32 2352.76,506.32 
  "/>
<polyline clip-path="url(#clip022)" style="stroke:#000000; stroke-linecap:butt; stroke-linejoin:round; stroke-width:2; stroke-opacity:0.1; fill:none" points="
  193.936,207.68 2352.76,207.68 
  "/>
<polyline clip-path="url(#clip020)" style="stroke:#000000; stroke-linecap:butt; stroke-linejoin:round; stroke-width:4; stroke-opacity:1; fill:none" points="
  193.936,1486.45 193.936,123.472 
  "/>
<polyline clip-path="url(#clip020)" style="stroke:#000000; stroke-linecap:butt; stroke-linejoin:round; stroke-width:4; stroke-opacity:1; fill:none" points="
  193.936,1402.24 212.834,1402.24 
  "/>
<polyline clip-path="url(#clip020)" style="stroke:#000000; stroke-linecap:butt; stroke-linejoin:round; stroke-width:4; stroke-opacity:1; fill:none" points="
  193.936,1103.6 212.834,1103.6 
  "/>
<polyline clip-path="url(#clip020)" style="stroke:#000000; stroke-linecap:butt; stroke-linejoin:round; stroke-width:4; stroke-opacity:1; fill:none" points="
  193.936,804.96 212.834,804.96 
  "/>
<polyline clip-path="url(#clip020)" style="stroke:#000000; stroke-linecap:butt; stroke-linejoin:round; stroke-width:4; stroke-opacity:1; fill:none" points="
  193.936,506.32 212.834,506.32 
  "/>
<polyline clip-path="url(#clip020)" style="stroke:#000000; stroke-linecap:butt; stroke-linejoin:round; stroke-width:4; stroke-opacity:1; fill:none" points="
  193.936,207.68 212.834,207.68 
  "/>
<path clip-path="url(#clip020)" d="M50.9921 1402.69 L80.6679 1402.69 L80.6679 1406.63 L50.9921 1406.63 L50.9921 1402.69 Z" fill="#000000" fill-rule="evenodd" fill-opacity="1" /><path clip-path="url(#clip020)" d="M91.5706 1415.58 L99.2095 1415.58 L99.2095 1389.22 L90.8993 1390.89 L90.8993 1386.63 L99.1632 1384.96 L103.839 1384.96 L103.839 1415.58 L111.478 1415.58 L111.478 1419.52 L91.5706 1419.52 L91.5706 1415.58 Z" fill="#000000" fill-rule="evenodd" fill-opacity="1" /><path clip-path="url(#clip020)" d="M120.922 1413.64 L125.807 1413.64 L125.807 1419.52 L120.922 1419.52 L120.922 1413.64 Z" fill="#000000" fill-rule="evenodd" fill-opacity="1" /><path clip-path="url(#clip020)" d="M145.992 1388.04 Q142.381 1388.04 140.552 1391.6 Q138.746 1395.15 138.746 1402.27 Q138.746 1409.38 140.552 1412.95 Q142.381 1416.49 145.992 1416.49 Q149.626 1416.49 151.431 1412.95 Q153.26 1409.38 153.26 1402.27 Q153.26 1395.15 151.431 1391.6 Q149.626 1388.04 145.992 1388.04 M145.992 1384.34 Q151.802 1384.34 154.857 1388.94 Q157.936 1393.52 157.936 1402.27 Q157.936 1411 154.857 1415.61 Q151.802 1420.19 145.992 1420.19 Q140.181 1420.19 137.103 1415.61 Q134.047 1411 134.047 1402.27 Q134.047 1393.52 137.103 1388.94 Q140.181 1384.34 145.992 1384.34 Z" fill="#000000" fill-rule="evenodd" fill-opacity="1" /><path clip-path="url(#clip020)" d="M51.9875 1104.05 L81.6633 1104.05 L81.6633 1107.99 L51.9875 1107.99 L51.9875 1104.05 Z" fill="#000000" fill-rule="evenodd" fill-opacity="1" /><path clip-path="url(#clip020)" d="M101.756 1089.4 Q98.1447 1089.4 96.316 1092.96 Q94.5104 1096.51 94.5104 1103.63 Q94.5104 1110.74 96.316 1114.31 Q98.1447 1117.85 101.756 1117.85 Q105.39 1117.85 107.196 1114.31 Q109.024 1110.74 109.024 1103.63 Q109.024 1096.51 107.196 1092.96 Q105.39 1089.4 101.756 1089.4 M101.756 1085.7 Q107.566 1085.7 110.621 1090.3 Q113.7 1094.88 113.7 1103.63 Q113.7 1112.36 110.621 1116.97 Q107.566 1121.55 101.756 1121.55 Q95.9456 1121.55 92.8669 1116.97 Q89.8114 1112.36 89.8114 1103.63 Q89.8114 1094.88 92.8669 1090.3 Q95.9456 1085.7 101.756 1085.7 Z" fill="#000000" fill-rule="evenodd" fill-opacity="1" /><path clip-path="url(#clip020)" d="M121.918 1115 L126.802 1115 L126.802 1120.88 L121.918 1120.88 L121.918 1115 Z" fill="#000000" fill-rule="evenodd" fill-opacity="1" /><path clip-path="url(#clip020)" d="M137.033 1086.32 L155.39 1086.32 L155.39 1090.26 L141.316 1090.26 L141.316 1098.73 Q142.334 1098.38 143.353 1098.22 Q144.371 1098.03 145.39 1098.03 Q151.177 1098.03 154.556 1101.2 Q157.936 1104.38 157.936 1109.79 Q157.936 1115.37 154.464 1118.47 Q150.992 1121.55 144.672 1121.55 Q142.496 1121.55 140.228 1121.18 Q137.982 1120.81 135.575 1120.07 L135.575 1115.37 Q137.658 1116.51 139.881 1117.06 Q142.103 1117.62 144.58 1117.62 Q148.584 1117.62 150.922 1115.51 Q153.26 1113.4 153.26 1109.79 Q153.26 1106.18 150.922 1104.07 Q148.584 1101.97 144.58 1101.97 Q142.705 1101.97 140.83 1102.38 Q138.978 1102.8 137.033 1103.68 L137.033 1086.32 Z" fill="#000000" fill-rule="evenodd" fill-opacity="1" /><path clip-path="url(#clip020)" d="M100.76 790.759 Q97.1493 790.759 95.3206 794.323 Q93.515 797.865 93.515 804.995 Q93.515 812.101 95.3206 815.666 Q97.1493 819.208 100.76 819.208 Q104.395 819.208 106.2 815.666 Q108.029 812.101 108.029 804.995 Q108.029 797.865 106.2 794.323 Q104.395 790.759 100.76 790.759 M100.76 787.055 Q106.571 787.055 109.626 791.661 Q112.705 796.245 112.705 804.995 Q112.705 813.722 109.626 818.328 Q106.571 822.911 100.76 822.911 Q94.9502 822.911 91.8715 818.328 Q88.816 813.722 88.816 804.995 Q88.816 796.245 91.8715 791.661 Q94.9502 787.055 100.76 787.055 Z" fill="#000000" fill-rule="evenodd" fill-opacity="1" /><path clip-path="url(#clip020)" d="M120.922 816.36 L125.807 816.36 L125.807 822.24 L120.922 822.24 L120.922 816.36 Z" fill="#000000" fill-rule="evenodd" fill-opacity="1" /><path clip-path="url(#clip020)" d="M145.992 790.759 Q142.381 790.759 140.552 794.323 Q138.746 797.865 138.746 804.995 Q138.746 812.101 140.552 815.666 Q142.381 819.208 145.992 819.208 Q149.626 819.208 151.431 815.666 Q153.26 812.101 153.26 804.995 Q153.26 797.865 151.431 794.323 Q149.626 790.759 145.992 790.759 M145.992 787.055 Q151.802 787.055 154.857 791.661 Q157.936 796.245 157.936 804.995 Q157.936 813.722 154.857 818.328 Q151.802 822.911 145.992 822.911 Q140.181 822.911 137.103 818.328 Q134.047 813.722 134.047 804.995 Q134.047 796.245 137.103 791.661 Q140.181 787.055 145.992 787.055 Z" fill="#000000" fill-rule="evenodd" fill-opacity="1" /><path clip-path="url(#clip020)" d="M101.756 492.119 Q98.1447 492.119 96.316 495.683 Q94.5104 499.225 94.5104 506.355 Q94.5104 513.461 96.316 517.026 Q98.1447 520.568 101.756 520.568 Q105.39 520.568 107.196 517.026 Q109.024 513.461 109.024 506.355 Q109.024 499.225 107.196 495.683 Q105.39 492.119 101.756 492.119 M101.756 488.415 Q107.566 488.415 110.621 493.021 Q113.7 497.605 113.7 506.355 Q113.7 515.082 110.621 519.688 Q107.566 524.271 101.756 524.271 Q95.9456 524.271 92.8669 519.688 Q89.8114 515.082 89.8114 506.355 Q89.8114 497.605 92.8669 493.021 Q95.9456 488.415 101.756 488.415 Z" fill="#000000" fill-rule="evenodd" fill-opacity="1" /><path clip-path="url(#clip020)" d="M121.918 517.72 L126.802 517.72 L126.802 523.6 L121.918 523.6 L121.918 517.72 Z" fill="#000000" fill-rule="evenodd" fill-opacity="1" /><path clip-path="url(#clip020)" d="M137.033 489.04 L155.39 489.04 L155.39 492.975 L141.316 492.975 L141.316 501.447 Q142.334 501.1 143.353 500.938 Q144.371 500.753 145.39 500.753 Q151.177 500.753 154.556 503.924 Q157.936 507.095 157.936 512.512 Q157.936 518.091 154.464 521.193 Q150.992 524.271 144.672 524.271 Q142.496 524.271 140.228 523.901 Q137.982 523.531 135.575 522.79 L135.575 518.091 Q137.658 519.225 139.881 519.781 Q142.103 520.336 144.58 520.336 Q148.584 520.336 150.922 518.23 Q153.26 516.123 153.26 512.512 Q153.26 508.901 150.922 506.795 Q148.584 504.688 144.58 504.688 Q142.705 504.688 140.83 505.105 Q138.978 505.521 137.033 506.401 L137.033 489.04 Z" fill="#000000" fill-rule="evenodd" fill-opacity="1" /><path clip-path="url(#clip020)" d="M91.5706 221.025 L99.2095 221.025 L99.2095 194.659 L90.8993 196.326 L90.8993 192.067 L99.1632 190.4 L103.839 190.4 L103.839 221.025 L111.478 221.025 L111.478 224.96 L91.5706 224.96 L91.5706 221.025 Z" fill="#000000" fill-rule="evenodd" fill-opacity="1" /><path clip-path="url(#clip020)" d="M120.922 219.08 L125.807 219.08 L125.807 224.96 L120.922 224.96 L120.922 219.08 Z" fill="#000000" fill-rule="evenodd" fill-opacity="1" /><path clip-path="url(#clip020)" d="M145.992 193.479 Q142.381 193.479 140.552 197.043 Q138.746 200.585 138.746 207.715 Q138.746 214.821 140.552 218.386 Q142.381 221.928 145.992 221.928 Q149.626 221.928 151.431 218.386 Q153.26 214.821 153.26 207.715 Q153.26 200.585 151.431 197.043 Q149.626 193.479 145.992 193.479 M145.992 189.775 Q151.802 189.775 154.857 194.381 Q157.936 198.965 157.936 207.715 Q157.936 216.442 154.857 221.048 Q151.802 225.631 145.992 225.631 Q140.181 225.631 137.103 221.048 Q134.047 216.442 134.047 207.715 Q134.047 198.965 137.103 194.381 Q140.181 189.775 145.992 189.775 Z" fill="#000000" fill-rule="evenodd" fill-opacity="1" /><path clip-path="url(#clip020)" d="M522.248 63.9476 L522.248 47.7034 L508.88 47.7034 L508.88 40.9789 L530.349 40.9789 L530.349 66.9452 Q525.61 70.3075 519.898 72.0494 Q514.186 73.7508 507.705 73.7508 Q493.527 73.7508 485.506 65.4869 Q477.526 57.1826 477.526 42.3968 Q477.526 27.5705 485.506 19.3066 Q493.527 11.0023 507.705 11.0023 Q513.619 11.0023 518.926 12.4606 Q524.273 13.9189 528.77 16.7545 L528.77 25.464 Q524.232 21.6156 519.128 19.6712 Q514.024 17.7268 508.393 17.7268 Q497.294 17.7268 491.704 23.9246 Q486.154 30.1225 486.154 42.3968 Q486.154 54.6305 491.704 60.8284 Q497.294 67.0263 508.393 67.0263 Q512.728 67.0263 516.131 66.2971 Q519.533 65.5274 522.248 63.9476 Z" fill="#000000" fill-rule="evenodd" fill-opacity="1" /><path clip-path="url(#clip020)" d="M565.592 49.7694 Q556.559 49.7694 553.075 51.8354 Q549.591 53.9013 549.591 58.8839 Q549.591 62.8538 552.184 65.2034 Q554.817 67.5124 559.313 67.5124 Q565.511 67.5124 569.238 63.1374 Q573.005 58.7219 573.005 51.4303 L573.005 49.7694 L565.592 49.7694 M580.459 46.6907 L580.459 72.576 L573.005 72.576 L573.005 65.6895 Q570.453 69.8214 566.645 71.8063 Q562.838 73.7508 557.328 73.7508 Q550.361 73.7508 546.229 69.8619 Q542.137 65.9325 542.137 59.3701 Q542.137 51.7138 547.242 47.825 Q552.386 43.9361 562.554 43.9361 L573.005 43.9361 L573.005 43.2069 Q573.005 38.0623 569.603 35.2672 Q566.24 32.4315 560.124 32.4315 Q556.235 32.4315 552.548 33.3632 Q548.862 34.295 545.459 36.1584 L545.459 29.2718 Q549.551 27.692 553.399 26.9223 Q557.247 26.1121 560.893 26.1121 Q570.737 26.1121 575.598 31.2163 Q580.459 36.3204 580.459 46.6907 Z" fill="#000000" fill-rule="evenodd" fill-opacity="1" /><path clip-path="url(#clip020)" d="M595.812 9.54393 L603.266 9.54393 L603.266 72.576 L595.812 72.576 L595.812 9.54393 Z" fill="#000000" fill-rule="evenodd" fill-opacity="1" /><path clip-path="url(#clip020)" d="M657.669 48.0275 L657.669 51.6733 L623.399 51.6733 Q623.885 59.3701 628.017 63.421 Q632.189 67.4314 639.602 67.4314 Q643.896 67.4314 647.907 66.3781 Q651.957 65.3249 655.927 63.2184 L655.927 70.267 Q651.917 71.9684 647.704 72.8596 Q643.491 73.7508 639.157 73.7508 Q628.3 73.7508 621.94 67.4314 Q615.621 61.1119 615.621 50.3365 Q615.621 39.1965 621.616 32.6746 Q627.652 26.1121 637.86 26.1121 Q647.015 26.1121 652.322 32.0264 Q657.669 37.9003 657.669 48.0275 M650.216 45.84 Q650.135 39.7232 646.772 36.0774 Q643.451 32.4315 637.941 32.4315 Q631.703 32.4315 627.936 35.9558 Q624.209 39.4801 623.642 45.8805 L650.216 45.84 Z" fill="#000000" fill-rule="evenodd" fill-opacity="1" /><path clip-path="url(#clip020)" d="M696.193 34.1734 Q694.938 33.4443 693.439 33.1202 Q691.98 32.7556 690.198 32.7556 Q683.879 32.7556 680.476 36.8875 Q677.114 40.9789 677.114 48.6757 L677.114 72.576 L669.619 72.576 L669.619 27.2059 L677.114 27.2059 L677.114 34.2544 Q679.463 30.1225 683.23 28.1376 Q686.998 26.1121 692.386 26.1121 Q693.155 26.1121 694.087 26.2337 Q695.019 26.3147 696.153 26.5172 L696.193 34.1734 Z" fill="#000000" fill-rule="evenodd" fill-opacity="1" /><path clip-path="url(#clip020)" d="M703.728 9.54393 L711.222 9.54393 L711.222 46.7717 L733.462 27.2059 L742.981 27.2059 L718.919 48.4326 L743.994 72.576 L734.272 72.576 L711.222 50.4176 L711.222 72.576 L703.728 72.576 L703.728 9.54393 Z" fill="#000000" fill-rule="evenodd" fill-opacity="1" /><path clip-path="url(#clip020)" d="M752.055 27.2059 L759.509 27.2059 L759.509 72.576 L752.055 72.576 L752.055 27.2059 M752.055 9.54393 L759.509 9.54393 L759.509 18.9825 L752.055 18.9825 L752.055 9.54393 Z" fill="#000000" fill-rule="evenodd" fill-opacity="1" /><path clip-path="url(#clip020)" d="M812.819 45.1919 L812.819 72.576 L805.365 72.576 L805.365 45.4349 Q805.365 38.994 802.854 35.7938 Q800.342 32.5936 795.319 32.5936 Q789.283 32.5936 785.799 36.4419 Q782.316 40.2903 782.316 46.9338 L782.316 72.576 L774.821 72.576 L774.821 27.2059 L782.316 27.2059 L782.316 34.2544 Q784.989 30.163 788.594 28.1376 Q792.24 26.1121 796.98 26.1121 Q804.798 26.1121 808.809 30.9732 Q812.819 35.7938 812.819 45.1919 Z" fill="#000000" fill-rule="evenodd" fill-opacity="1" /><path clip-path="url(#clip020)" d="M892.865 48.0275 L892.865 51.6733 L858.594 51.6733 Q859.08 59.3701 863.212 63.421 Q867.385 67.4314 874.798 67.4314 Q879.092 67.4314 883.102 66.3781 Q887.153 65.3249 891.123 63.2184 L891.123 70.267 Q887.112 71.9684 882.9 72.8596 Q878.687 73.7508 874.352 73.7508 Q863.496 73.7508 857.136 67.4314 Q850.816 61.1119 850.816 50.3365 Q850.816 39.1965 856.812 32.6746 Q862.848 26.1121 873.056 26.1121 Q882.211 26.1121 887.518 32.0264 Q892.865 37.9003 892.865 48.0275 M885.411 45.84 Q885.33 39.7232 881.968 36.0774 Q878.646 32.4315 873.137 32.4315 Q866.898 32.4315 863.131 35.9558 Q859.404 39.4801 858.837 45.8805 L885.411 45.84 Z" fill="#000000" fill-rule="evenodd" fill-opacity="1" /><path clip-path="url(#clip020)" d="M931.389 34.1734 Q930.133 33.4443 928.634 33.1202 Q927.176 32.7556 925.394 32.7556 Q919.074 32.7556 915.671 36.8875 Q912.309 40.9789 912.309 48.6757 L912.309 72.576 L904.815 72.576 L904.815 27.2059 L912.309 27.2059 L912.309 34.2544 Q914.659 30.1225 918.426 28.1376 Q922.193 26.1121 927.581 26.1121 Q928.351 26.1121 929.282 26.2337 Q930.214 26.3147 931.348 26.5172 L931.389 34.1734 Z" fill="#000000" fill-rule="evenodd" fill-opacity="1" /><path clip-path="url(#clip020)" d="M964.039 34.1734 Q962.783 33.4443 961.285 33.1202 Q959.826 32.7556 958.044 32.7556 Q951.724 32.7556 948.322 36.8875 Q944.959 40.9789 944.959 48.6757 L944.959 72.576 L937.465 72.576 L937.465 27.2059 L944.959 27.2059 L944.959 34.2544 Q947.309 30.1225 951.076 28.1376 Q954.844 26.1121 960.231 26.1121 Q961.001 26.1121 961.933 26.2337 Q962.864 26.3147 963.999 26.5172 L964.039 34.1734 Z" fill="#000000" fill-rule="evenodd" fill-opacity="1" /><path clip-path="url(#clip020)" d="M987.615 32.4315 Q981.62 32.4315 978.136 37.1306 Q974.653 41.7891 974.653 49.9314 Q974.653 58.0738 978.096 62.7728 Q981.58 67.4314 987.615 67.4314 Q993.57 67.4314 997.054 62.7323 Q1000.54 58.0333 1000.54 49.9314 Q1000.54 41.8701 997.054 37.1711 Q993.57 32.4315 987.615 32.4315 M987.615 26.1121 Q997.338 26.1121 1002.89 32.4315 Q1008.44 38.7509 1008.44 49.9314 Q1008.44 61.0714 1002.89 67.4314 Q997.338 73.7508 987.615 73.7508 Q977.853 73.7508 972.303 67.4314 Q966.794 61.0714 966.794 49.9314 Q966.794 38.7509 972.303 32.4315 Q977.853 26.1121 987.615 26.1121 Z" fill="#000000" fill-rule="evenodd" fill-opacity="1" /><path clip-path="url(#clip020)" d="M1047.08 34.1734 Q1045.83 33.4443 1044.33 33.1202 Q1042.87 32.7556 1041.09 32.7556 Q1034.77 32.7556 1031.37 36.8875 Q1028 40.9789 1028 48.6757 L1028 72.576 L1020.51 72.576 L1020.51 27.2059 L1028 27.2059 L1028 34.2544 Q1030.35 30.1225 1034.12 28.1376 Q1037.89 26.1121 1043.27 26.1121 Q1044.04 26.1121 1044.98 26.2337 Q1045.91 26.3147 1047.04 26.5172 L1047.08 34.1734 Z" fill="#000000" fill-rule="evenodd" fill-opacity="1" /><path clip-path="url(#clip020)" d="M1055.35 62.2867 L1063.89 62.2867 L1063.89 72.576 L1055.35 72.576 L1055.35 62.2867 M1055.35 29.6769 L1063.89 29.6769 L1063.89 39.9662 L1055.35 39.9662 L1055.35 29.6769 Z" fill="#000000" fill-rule="evenodd" fill-opacity="1" /><path clip-path="url(#clip020)" d="M1126.32 17.4837 Q1120 17.4837 1116.8 23.7221 Q1113.64 29.92 1113.64 42.3968 Q1113.64 54.833 1116.8 61.0714 Q1120 67.2693 1126.32 67.2693 Q1132.68 67.2693 1135.84 61.0714 Q1139.04 54.833 1139.04 42.3968 Q1139.04 29.92 1135.84 23.7221 Q1132.68 17.4837 1126.32 17.4837 M1126.32 11.0023 Q1136.49 11.0023 1141.83 19.0636 Q1147.22 27.0843 1147.22 42.3968 Q1147.22 57.6687 1141.83 65.73 Q1136.49 73.7508 1126.32 73.7508 Q1116.15 73.7508 1110.76 65.73 Q1105.42 57.6687 1105.42 42.3968 Q1105.42 27.0843 1110.76 19.0636 Q1116.15 11.0023 1126.32 11.0023 Z" fill="#000000" fill-rule="evenodd" fill-opacity="1" /><path clip-path="url(#clip020)" d="M1161.6 62.2867 L1170.15 62.2867 L1170.15 72.576 L1161.6 72.576 L1161.6 62.2867 Z" fill="#000000" fill-rule="evenodd" fill-opacity="1" /><path clip-path="url(#clip020)" d="M1189.39 65.6895 L1202.76 65.6895 L1202.76 19.5497 L1188.22 22.4663 L1188.22 15.0127 L1202.68 12.096 L1210.86 12.096 L1210.86 65.6895 L1224.23 65.6895 L1224.23 72.576 L1189.39 72.576 L1189.39 65.6895 Z" fill="#000000" fill-rule="evenodd" fill-opacity="1" /><path clip-path="url(#clip020)" d="M1247.81 65.6895 L1276.36 65.6895 L1276.36 72.576 L1237.96 72.576 L1237.96 65.6895 Q1242.62 60.8689 1250.64 52.7671 Q1258.7 44.6248 1260.77 42.2752 Q1264.7 37.8598 1266.24 34.8216 Q1267.82 31.7429 1267.82 28.7857 Q1267.82 23.9651 1264.41 20.927 Q1261.05 17.8888 1255.62 17.8888 Q1251.77 17.8888 1247.48 19.2256 Q1243.23 20.5624 1238.37 23.2765 L1238.37 15.0127 Q1243.31 13.0277 1247.6 12.015 Q1251.9 11.0023 1255.46 11.0023 Q1264.86 11.0023 1270.45 15.7013 Q1276.04 20.4004 1276.04 28.2591 Q1276.04 31.9859 1274.62 35.3482 Q1273.24 38.6699 1269.56 43.2069 Q1268.55 44.3817 1263.12 50.0125 Q1257.69 55.6027 1247.81 65.6895 Z" fill="#000000" fill-rule="evenodd" fill-opacity="1" /><path clip-path="url(#clip020)" d="M1318.33 39.9662 Q1324.21 41.222 1327.49 45.1919 Q1330.81 49.1618 1330.81 54.9951 Q1330.81 63.9476 1324.65 68.8492 Q1318.49 73.7508 1307.15 73.7508 Q1303.34 73.7508 1299.29 72.9811 Q1295.28 72.2519 1290.99 70.7531 L1290.99 62.8538 Q1294.39 64.8388 1298.44 65.8515 Q1302.49 66.8642 1306.91 66.8642 Q1314.6 66.8642 1318.61 63.826 Q1322.67 60.7879 1322.67 54.9951 Q1322.67 49.6479 1318.9 46.6502 Q1315.17 43.612 1308.49 43.612 L1301.44 43.612 L1301.44 36.8875 L1308.81 36.8875 Q1314.85 36.8875 1318.05 34.4975 Q1321.25 32.067 1321.25 27.5299 Q1321.25 22.8714 1317.93 20.4004 Q1314.64 17.8888 1308.49 17.8888 Q1305.13 17.8888 1301.28 18.618 Q1297.43 19.3471 1292.81 20.8865 L1292.81 13.5948 Q1297.47 12.2985 1301.52 11.6504 Q1305.61 11.0023 1309.22 11.0023 Q1318.53 11.0023 1323.96 15.2557 Q1329.39 19.4686 1329.39 26.6793 Q1329.39 31.7024 1326.51 35.1862 Q1323.64 38.6294 1318.33 39.9662 Z" fill="#000000" fill-rule="evenodd" fill-opacity="1" /><path clip-path="url(#clip020)" d="M1364.84 39.075 Q1359.33 39.075 1356.09 42.8424 Q1352.89 46.6097 1352.89 53.1722 Q1352.89 59.6941 1356.09 63.502 Q1359.33 67.2693 1364.84 67.2693 Q1370.34 67.2693 1373.55 63.502 Q1376.79 59.6941 1376.79 53.1722 Q1376.79 46.6097 1373.55 42.8424 Q1370.34 39.075 1364.84 39.075 M1381.08 13.4328 L1381.08 20.8865 Q1378 19.4281 1374.84 18.6585 Q1371.72 17.8888 1368.64 17.8888 Q1360.54 17.8888 1356.25 23.3575 Q1351.99 28.8262 1351.39 39.8852 Q1353.78 36.3609 1357.38 34.4975 Q1360.99 32.5936 1365.32 32.5936 Q1374.44 32.5936 1379.7 38.1433 Q1385.01 43.6525 1385.01 53.1722 Q1385.01 62.4892 1379.5 68.12 Q1373.99 73.7508 1364.84 73.7508 Q1354.34 73.7508 1348.79 65.73 Q1343.24 57.6687 1343.24 42.3968 Q1343.24 28.0566 1350.05 19.5497 Q1356.86 11.0023 1368.32 11.0023 Q1371.4 11.0023 1374.52 11.6099 Q1377.68 12.2175 1381.08 13.4328 Z" fill="#000000" fill-rule="evenodd" fill-opacity="1" /><path clip-path="url(#clip020)" d="M1423.9 39.9662 Q1429.77 41.222 1433.05 45.1919 Q1436.37 49.1618 1436.37 54.9951 Q1436.37 63.9476 1430.22 68.8492 Q1424.06 73.7508 1412.72 73.7508 Q1408.91 73.7508 1404.86 72.9811 Q1400.85 72.2519 1396.55 70.7531 L1396.55 62.8538 Q1399.96 64.8388 1404.01 65.8515 Q1408.06 66.8642 1412.47 66.8642 Q1420.17 66.8642 1424.18 63.826 Q1428.23 60.7879 1428.23 54.9951 Q1428.23 49.6479 1424.46 46.6502 Q1420.74 43.612 1414.05 43.612 L1407.01 43.612 L1407.01 36.8875 L1414.38 36.8875 Q1420.41 36.8875 1423.61 34.4975 Q1426.81 32.067 1426.81 27.5299 Q1426.81 22.8714 1423.49 20.4004 Q1420.21 17.8888 1414.05 17.8888 Q1410.69 17.8888 1406.84 18.618 Q1403 19.3471 1398.38 20.8865 L1398.38 13.5948 Q1403.04 12.2985 1407.09 11.6504 Q1411.18 11.0023 1414.78 11.0023 Q1424.1 11.0023 1429.53 15.2557 Q1434.96 19.4686 1434.96 26.6793 Q1434.96 31.7024 1432.08 35.1862 Q1429.2 38.6294 1423.9 39.9662 Z" fill="#000000" fill-rule="evenodd" fill-opacity="1" /><path clip-path="url(#clip020)" d="M1458.94 65.6895 L1487.5 65.6895 L1487.5 72.576 L1449.09 72.576 L1449.09 65.6895 Q1453.75 60.8689 1461.77 52.7671 Q1469.84 44.6248 1471.9 42.2752 Q1475.83 37.8598 1477.37 34.8216 Q1478.95 31.7429 1478.95 28.7857 Q1478.95 23.9651 1475.55 20.927 Q1472.18 17.8888 1466.76 17.8888 Q1462.91 17.8888 1458.61 19.2256 Q1454.36 20.5624 1449.5 23.2765 L1449.5 15.0127 Q1454.44 13.0277 1458.74 12.015 Q1463.03 11.0023 1466.59 11.0023 Q1475.99 11.0023 1481.58 15.7013 Q1487.17 20.4004 1487.17 28.2591 Q1487.17 31.9859 1485.76 35.3482 Q1484.38 38.6699 1480.69 43.2069 Q1479.68 44.3817 1474.25 50.0125 Q1468.82 55.6027 1458.94 65.6895 Z" fill="#000000" fill-rule="evenodd" fill-opacity="1" /><path clip-path="url(#clip020)" d="M1502.61 12.096 L1541.5 12.096 L1541.5 15.5798 L1519.54 72.576 L1510.99 72.576 L1531.65 18.9825 L1502.61 18.9825 L1502.61 12.096 Z" fill="#000000" fill-rule="evenodd" fill-opacity="1" /><path clip-path="url(#clip020)" d="M1574.96 17.4837 Q1568.64 17.4837 1565.44 23.7221 Q1562.28 29.92 1562.28 42.3968 Q1562.28 54.833 1565.44 61.0714 Q1568.64 67.2693 1574.96 67.2693 Q1581.32 67.2693 1584.48 61.0714 Q1587.68 54.833 1587.68 42.3968 Q1587.68 29.92 1584.48 23.7221 Q1581.32 17.4837 1574.96 17.4837 M1574.96 11.0023 Q1585.12 11.0023 1590.47 19.0636 Q1595.86 27.0843 1595.86 42.3968 Q1595.86 57.6687 1590.47 65.73 Q1585.12 73.7508 1574.96 73.7508 Q1564.79 73.7508 1559.4 65.73 Q1554.05 57.6687 1554.05 42.3968 Q1554.05 27.0843 1559.4 19.0636 Q1564.79 11.0023 1574.96 11.0023 Z" fill="#000000" fill-rule="evenodd" fill-opacity="1" /><path clip-path="url(#clip020)" d="M1627.74 43.8551 Q1621.91 43.8551 1618.54 46.9743 Q1615.22 50.0935 1615.22 55.5622 Q1615.22 61.0309 1618.54 64.1501 Q1621.91 67.2693 1627.74 67.2693 Q1633.57 67.2693 1636.93 64.1501 Q1640.3 60.9904 1640.3 55.5622 Q1640.3 50.0935 1636.93 46.9743 Q1633.61 43.8551 1627.74 43.8551 M1619.56 40.3713 Q1614.29 39.075 1611.33 35.4697 Q1608.42 31.8644 1608.42 26.6793 Q1608.42 19.4281 1613.56 15.2152 Q1618.75 11.0023 1627.74 11.0023 Q1636.77 11.0023 1641.92 15.2152 Q1647.06 19.4281 1647.06 26.6793 Q1647.06 31.8644 1644.1 35.4697 Q1641.19 39.075 1635.96 40.3713 Q1641.88 41.7486 1645.16 45.759 Q1648.48 49.7694 1648.48 55.5622 Q1648.48 64.3527 1643.09 69.0517 Q1637.75 73.7508 1627.74 73.7508 Q1617.73 73.7508 1612.35 69.0517 Q1607 64.3527 1607 55.5622 Q1607 49.7694 1610.32 45.759 Q1613.64 41.7486 1619.56 40.3713 M1616.56 27.4489 Q1616.56 32.148 1619.48 34.7811 Q1622.43 37.4142 1627.74 37.4142 Q1633.01 37.4142 1635.96 34.7811 Q1638.96 32.148 1638.96 27.4489 Q1638.96 22.7499 1635.96 20.1168 Q1633.01 17.4837 1627.74 17.4837 Q1622.43 17.4837 1619.48 20.1168 Q1616.56 22.7499 1616.56 27.4489 Z" fill="#000000" fill-rule="evenodd" fill-opacity="1" /><path clip-path="url(#clip020)" d="M1687.81 39.9662 Q1693.69 41.222 1696.97 45.1919 Q1700.29 49.1618 1700.29 54.9951 Q1700.29 63.9476 1694.13 68.8492 Q1687.98 73.7508 1676.63 73.7508 Q1672.83 73.7508 1668.77 72.9811 Q1664.76 72.2519 1660.47 70.7531 L1660.47 62.8538 Q1663.87 64.8388 1667.92 65.8515 Q1671.98 66.8642 1676.39 66.8642 Q1684.09 66.8642 1688.1 63.826 Q1692.15 60.7879 1692.15 54.9951 Q1692.15 49.6479 1688.38 46.6502 Q1684.65 43.612 1677.97 43.612 L1670.92 43.612 L1670.92 36.8875 L1678.29 36.8875 Q1684.33 36.8875 1687.53 34.4975 Q1690.73 32.067 1690.73 27.5299 Q1690.73 22.8714 1687.41 20.4004 Q1684.13 17.8888 1677.97 17.8888 Q1674.61 17.8888 1670.76 18.618 Q1666.91 19.3471 1662.29 20.8865 L1662.29 13.5948 Q1666.95 12.2985 1671 11.6504 Q1675.09 11.0023 1678.7 11.0023 Q1688.02 11.0023 1693.44 15.2557 Q1698.87 19.4686 1698.87 26.6793 Q1698.87 31.7024 1696 35.1862 Q1693.12 38.6294 1687.81 39.9662 Z" fill="#000000" fill-rule="evenodd" fill-opacity="1" /><path clip-path="url(#clip020)" d="M1717.22 65.6895 L1730.59 65.6895 L1730.59 19.5497 L1716.05 22.4663 L1716.05 15.0127 L1730.51 12.096 L1738.69 12.096 L1738.69 65.6895 L1752.06 65.6895 L1752.06 72.576 L1717.22 72.576 L1717.22 65.6895 Z" fill="#000000" fill-rule="evenodd" fill-opacity="1" /><path clip-path="url(#clip020)" d="M1768.83 71.3202 L1768.83 63.8666 Q1771.91 65.3249 1775.07 66.0946 Q1778.23 66.8642 1781.27 66.8642 Q1789.37 66.8642 1793.62 61.436 Q1797.92 55.9673 1798.53 44.8678 Q1796.18 48.3516 1792.57 50.215 Q1788.97 52.0784 1784.59 52.0784 Q1775.52 52.0784 1770.21 46.6097 Q1764.94 41.1005 1764.94 31.5808 Q1764.94 22.2638 1770.45 16.633 Q1775.96 11.0023 1785.12 11.0023 Q1795.61 11.0023 1801.12 19.0636 Q1806.67 27.0843 1806.67 42.3968 Q1806.67 56.6965 1799.86 65.2439 Q1793.1 73.7508 1781.63 73.7508 Q1778.55 73.7508 1775.39 73.1431 Q1772.24 72.5355 1768.83 71.3202 M1785.12 45.678 Q1790.63 45.678 1793.83 41.9107 Q1797.07 38.1433 1797.07 31.5808 Q1797.07 25.0589 1793.83 21.2916 Q1790.63 17.4837 1785.12 17.4837 Q1779.61 17.4837 1776.37 21.2916 Q1773.17 25.0589 1773.17 31.5808 Q1773.17 38.1433 1776.37 41.9107 Q1779.61 45.678 1785.12 45.678 Z" fill="#000000" fill-rule="evenodd" fill-opacity="1" /><path clip-path="url(#clip020)" d="M1846.16 39.9662 Q1852.04 41.222 1855.32 45.1919 Q1858.64 49.1618 1858.64 54.9951 Q1858.64 63.9476 1852.48 68.8492 Q1846.33 73.7508 1834.98 73.7508 Q1831.18 73.7508 1827.12 72.9811 Q1823.11 72.2519 1818.82 70.7531 L1818.82 62.8538 Q1822.22 64.8388 1826.27 65.8515 Q1830.33 66.8642 1834.74 66.8642 Q1842.44 66.8642 1846.45 63.826 Q1850.5 60.7879 1850.5 54.9951 Q1850.5 49.6479 1846.73 46.6502 Q1843 43.612 1836.32 43.612 L1829.27 43.612 L1829.27 36.8875 L1836.64 36.8875 Q1842.68 36.8875 1845.88 34.4975 Q1849.08 32.067 1849.08 27.5299 Q1849.08 22.8714 1845.76 20.4004 Q1842.48 17.8888 1836.32 17.8888 Q1832.96 17.8888 1829.11 18.618 Q1825.26 19.3471 1820.64 20.8865 L1820.64 13.5948 Q1825.3 12.2985 1829.35 11.6504 Q1833.44 11.0023 1837.05 11.0023 Q1846.37 11.0023 1851.79 15.2557 Q1857.22 19.4686 1857.22 26.6793 Q1857.22 31.7024 1854.35 35.1862 Q1851.47 38.6294 1846.16 39.9662 Z" fill="#000000" fill-rule="evenodd" fill-opacity="1" /><path clip-path="url(#clip020)" d="M1898.95 39.9662 Q1904.82 41.222 1908.1 45.1919 Q1911.42 49.1618 1911.42 54.9951 Q1911.42 63.9476 1905.27 68.8492 Q1899.11 73.7508 1887.77 73.7508 Q1883.96 73.7508 1879.91 72.9811 Q1875.9 72.2519 1871.6 70.7531 L1871.6 62.8538 Q1875.01 64.8388 1879.06 65.8515 Q1883.11 66.8642 1887.52 66.8642 Q1895.22 66.8642 1899.23 63.826 Q1903.28 60.7879 1903.28 54.9951 Q1903.28 49.6479 1899.51 46.6502 Q1895.79 43.612 1889.1 43.612 L1882.06 43.612 L1882.06 36.8875 L1889.43 36.8875 Q1895.46 36.8875 1898.66 34.4975 Q1901.86 32.067 1901.86 27.5299 Q1901.86 22.8714 1898.54 20.4004 Q1895.26 17.8888 1889.1 17.8888 Q1885.74 17.8888 1881.89 18.618 Q1878.04 19.3471 1873.43 20.8865 L1873.43 13.5948 Q1878.09 12.2985 1882.14 11.6504 Q1886.23 11.0023 1889.83 11.0023 Q1899.15 11.0023 1904.58 15.2557 Q1910.01 19.4686 1910.01 26.6793 Q1910.01 31.7024 1907.13 35.1862 Q1904.25 38.6294 1898.95 39.9662 Z" fill="#000000" fill-rule="evenodd" fill-opacity="1" /><path clip-path="url(#clip020)" d="M1927.02 12.096 L1959.14 12.096 L1959.14 18.9825 L1934.51 18.9825 L1934.51 33.8088 Q1936.3 33.2012 1938.08 32.9176 Q1939.86 32.5936 1941.64 32.5936 Q1951.77 32.5936 1957.69 38.1433 Q1963.6 43.6931 1963.6 53.1722 Q1963.6 62.9348 1957.52 68.3631 Q1951.45 73.7508 1940.39 73.7508 Q1936.58 73.7508 1932.61 73.1026 Q1928.68 72.4545 1924.47 71.1582 L1924.47 62.9348 Q1928.11 64.9198 1932 65.892 Q1935.89 66.8642 1940.23 66.8642 Q1947.23 66.8642 1951.33 63.1779 Q1955.42 59.4916 1955.42 53.1722 Q1955.42 46.8528 1951.33 43.1664 Q1947.23 39.4801 1940.23 39.4801 Q1936.94 39.4801 1933.66 40.2093 Q1930.42 40.9384 1927.02 42.4778 L1927.02 12.096 Z" fill="#000000" fill-rule="evenodd" fill-opacity="1" /><path clip-path="url(#clip020)" d="M1979.97 71.3202 L1979.97 63.8666 Q1983.04 65.3249 1986.2 66.0946 Q1989.36 66.8642 1992.4 66.8642 Q2000.5 66.8642 2004.76 61.436 Q2009.05 55.9673 2009.66 44.8678 Q2007.31 48.3516 2003.7 50.215 Q2000.1 52.0784 1995.72 52.0784 Q1986.65 52.0784 1981.34 46.6097 Q1976.08 41.1005 1976.08 31.5808 Q1976.08 22.2638 1981.59 16.633 Q1987.1 11.0023 1996.25 11.0023 Q2006.74 11.0023 2012.25 19.0636 Q2017.8 27.0843 2017.8 42.3968 Q2017.8 56.6965 2011 65.2439 Q2004.23 73.7508 1992.77 73.7508 Q1989.69 73.7508 1986.53 73.1431 Q1983.37 72.5355 1979.97 71.3202 M1996.25 45.678 Q2001.76 45.678 2004.96 41.9107 Q2008.2 38.1433 2008.2 31.5808 Q2008.2 25.0589 2004.96 21.2916 Q2001.76 17.4837 1996.25 17.4837 Q1990.74 17.4837 1987.5 21.2916 Q1984.3 25.0589 1984.3 31.5808 Q1984.3 38.1433 1987.5 41.9107 Q1990.74 45.678 1996.25 45.678 Z" fill="#000000" fill-rule="evenodd" fill-opacity="1" /><path clip-path="url(#clip020)" d="M2032.59 12.096 L2064.71 12.096 L2064.71 18.9825 L2040.08 18.9825 L2040.08 33.8088 Q2041.86 33.2012 2043.65 32.9176 Q2045.43 32.5936 2047.21 32.5936 Q2057.34 32.5936 2063.25 38.1433 Q2069.17 43.6931 2069.17 53.1722 Q2069.17 62.9348 2063.09 68.3631 Q2057.01 73.7508 2045.95 73.7508 Q2042.15 73.7508 2038.18 73.1026 Q2034.25 72.4545 2030.03 71.1582 L2030.03 62.9348 Q2033.68 64.9198 2037.57 65.892 Q2041.46 66.8642 2045.79 66.8642 Q2052.8 66.8642 2056.89 63.1779 Q2060.98 59.4916 2060.98 53.1722 Q2060.98 46.8528 2056.89 43.1664 Q2052.8 39.4801 2045.79 39.4801 Q2042.51 39.4801 2039.23 40.2093 Q2035.99 40.9384 2032.59 42.4778 L2032.59 12.096 Z" fill="#000000" fill-rule="evenodd" fill-opacity="1" /><polyline clip-path="url(#clip022)" style="stroke:#009af9; stroke-linecap:butt; stroke-linejoin:round; stroke-width:16; stroke-opacity:1; fill:none" points="
  193.936,1402.19 207.991,1402.18 337.951,1402.03 416.051,1401.82 482.084,1401.46 553.814,1400.72 619.943,1399.44 690.84,1396.85 772.981,1390.76 809.48,1386.21 
  845.979,1379.88 877.985,1372.35 909.991,1362.38 927.439,1355.66 944.886,1347.86 962.334,1338.83 979.782,1328.39 997.333,1316.29 1014.88,1302.38 1032.44,1286.46 
  1049.99,1268.31 1059.69,1257.24 1069.39,1245.39 1079.09,1232.73 1088.8,1219.23 1098.5,1204.86 1108.2,1189.61 1117.91,1173.44 1127.61,1156.35 1136.84,1139.23 
  1146.07,1121.27 1155.3,1102.47 1164.54,1082.86 1183,1041.29 1201.46,996.802 1220.66,947.899 1239.86,896.875 1259.06,844.439 1278.25,791.384 1294.41,746.855 
  1310.57,702.969 1326.74,660.188 1342.9,618.929 1352.76,594.646 1362.63,571.131 1372.49,548.442 1382.36,526.626 1392.22,505.719 1402.09,485.748 1411.95,466.728 
  1421.82,448.667 1430.85,432.962 1439.89,418.056 1448.93,403.935 1457.96,390.587 1476.04,366.128 1494.11,344.497 1510.81,326.849 1527.5,311.255 1544.19,297.53 
  1560.88,285.495 1577.79,274.846 1594.7,265.579 1611.61,257.534 1628.52,250.565 1647.47,243.869 1666.42,238.191 1685.37,233.384 1704.32,229.32 1738.67,223.501 
  1773.01,219.231 1851.66,213.282 1924.47,210.54 1996.26,209.152 2065.96,208.452 2137.42,208.079 2215.7,207.873 2329.43,207.747 2352.76,207.734 
  "/>
<polyline clip-path="url(#clip022)" style="stroke:#e26f46; stroke-linecap:butt; stroke-linejoin:round; stroke-width:16; stroke-opacity:1; fill:none" points="
  194.245,1447.14 195.564,1444.1 197.935,1438.86 201.357,1431.85 205.826,1423.61 211.339,1414.76 217.889,1405.98 225.47,1397.92 234.075,1391.16 243.696,1386.17 
  254.323,1383.23 265.945,1382.49 278.552,1383.86 292.13,1387.1 306.668,1391.8 322.15,1397.42 338.561,1403.37 355.886,1409.02 374.107,1413.8 393.207,1417.2 
  413.166,1418.88 433.967,1418.65 455.587,1416.53 478.006,1412.71 501.203,1407.55 525.154,1401.57 549.836,1395.36 575.225,1389.55 601.296,1384.72 628.023,1381.37 
  655.382,1379.81 683.344,1380.13 711.882,1382.19 740.969,1385.53 770.577,1389.46 800.675,1393.02 831.236,1395.03 862.228,1394.19 893.622,1389.14 925.387,1378.52 
  957.492,1361.12 989.906,1335.92 1022.6,1302.19 1055.53,1259.55 1088.68,1208.04 1122.01,1148.08 1155.49,1080.54 1189.08,1006.64 1222.75,927.959 1256.48,846.297 
  1290.22,763.623 1323.94,681.961 1357.61,603.277 1391.21,529.382 1424.68,461.839 1458.01,401.883 1491.16,350.367 1524.1,307.733 1556.79,274.002 1589.2,248.8 
  1621.3,231.399 1653.07,220.782 1684.46,215.727 1715.46,214.889 1746.02,216.901 1776.12,220.455 1805.72,224.387 1834.81,227.734 1863.35,229.788 1891.31,230.113 
  1918.67,228.55 1945.4,225.197 1971.47,220.372 1996.86,214.56 2021.54,208.351 2045.49,202.37 2068.69,197.214 2091.1,193.39 2112.73,191.267 2133.53,191.042 
  2153.49,192.722 2172.58,196.125 2190.81,200.896 2208.13,206.547 2224.54,212.495 2240.02,218.119 2254.56,222.816 2268.14,226.056 2280.75,227.429 2292.37,226.685 
  2303,223.755 2312.62,218.759 2321.22,212.002 2328.8,203.942 2335.35,195.162 2340.87,186.313 2345.33,178.066 2348.76,171.055 2351.13,165.823 2352.45,162.775 
  
  "/>
<circle clip-path="url(#clip022)" cx="193.936" cy="1447.87" r="14.4" fill="#000000" fill-rule="evenodd" fill-opacity="1" stroke="none"/>
<circle clip-path="url(#clip022)" cx="280.792" cy="1384.29" r="14.4" fill="#000000" fill-rule="evenodd" fill-opacity="1" stroke="none"/>
<circle clip-path="url(#clip022)" cx="475.906" cy="1413.12" r="14.4" fill="#000000" fill-rule="evenodd" fill-opacity="1" stroke="none"/>
<circle clip-path="url(#clip022)" cx="757.469" cy="1387.72" r="14.4" fill="#000000" fill-rule="evenodd" fill-opacity="1" stroke="none"/>
<circle clip-path="url(#clip022)" cx="1094.94" cy="1197.37" r="14.4" fill="#000000" fill-rule="evenodd" fill-opacity="1" stroke="none"/>
<circle clip-path="url(#clip022)" cx="1451.75" cy="412.546" r="14.4" fill="#000000" fill-rule="evenodd" fill-opacity="1" stroke="none"/>
<circle clip-path="url(#clip022)" cx="1789.22" cy="222.203" r="14.4" fill="#000000" fill-rule="evenodd" fill-opacity="1" stroke="none"/>
<circle clip-path="url(#clip022)" cx="2070.79" cy="196.799" r="14.4" fill="#000000" fill-rule="evenodd" fill-opacity="1" stroke="none"/>
<circle clip-path="url(#clip022)" cx="2265.9" cy="225.627" r="14.4" fill="#000000" fill-rule="evenodd" fill-opacity="1" stroke="none"/>
<circle clip-path="url(#clip022)" cx="2352.76" cy="162.047" r="14.4" fill="#000000" fill-rule="evenodd" fill-opacity="1" stroke="none"/>
<path clip-path="url(#clip020)" d="
M1646.53 1441.02 L2280.8 1441.02 L2280.8 1233.66 L1646.53 1233.66  Z
  " fill="#ffffff" fill-rule="evenodd" fill-opacity="1"/>
<polyline clip-path="url(#clip020)" style="stroke:#000000; stroke-linecap:butt; stroke-linejoin:round; stroke-width:4; stroke-opacity:1; fill:none" points="
  1646.53,1441.02 2280.8,1441.02 2280.8,1233.66 1646.53,1233.66 1646.53,1441.02 
  "/>
<polyline clip-path="url(#clip020)" style="stroke:#009af9; stroke-linecap:butt; stroke-linejoin:round; stroke-width:4; stroke-opacity:1; fill:none" points="
  1670.52,1285.5 1814.44,1285.5 
  "/>
<path clip-path="url(#clip020)" d="M1862.45 1288.75 L1862.45 1290.83 L1842.87 1290.83 Q1843.15 1295.23 1845.51 1297.54 Q1847.89 1299.84 1852.13 1299.84 Q1854.58 1299.84 1856.87 1299.23 Q1859.19 1298.63 1861.46 1297.43 L1861.46 1301.46 Q1859.17 1302.43 1856.76 1302.94 Q1854.35 1303.45 1851.87 1303.45 Q1845.67 1303.45 1842.04 1299.84 Q1838.43 1296.22 1838.43 1290.07 Q1838.43 1283.7 1841.85 1279.97 Q1845.3 1276.22 1851.13 1276.22 Q1856.37 1276.22 1859.4 1279.6 Q1862.45 1282.96 1862.45 1288.75 M1858.19 1287.5 Q1858.15 1284 1856.23 1281.92 Q1854.33 1279.84 1851.18 1279.84 Q1847.62 1279.84 1845.46 1281.85 Q1843.33 1283.86 1843.01 1287.52 L1858.19 1287.5 Z" fill="#000000" fill-rule="evenodd" fill-opacity="1" /><path clip-path="url(#clip020)" d="M1890.16 1276.85 L1880.79 1289.47 L1890.65 1302.78 L1885.62 1302.78 L1878.08 1292.59 L1870.53 1302.78 L1865.51 1302.78 L1875.58 1289.21 L1866.37 1276.85 L1871.39 1276.85 L1878.26 1286.09 L1885.14 1276.85 L1890.16 1276.85 Z" fill="#000000" fill-rule="evenodd" fill-opacity="1" /><path clip-path="url(#clip020)" d="M1908.45 1289.74 Q1903.29 1289.74 1901.3 1290.92 Q1899.3 1292.1 1899.3 1294.95 Q1899.3 1297.22 1900.79 1298.56 Q1902.29 1299.88 1904.86 1299.88 Q1908.4 1299.88 1910.53 1297.38 Q1912.68 1294.86 1912.68 1290.69 L1912.68 1289.74 L1908.45 1289.74 M1916.94 1287.98 L1916.94 1302.78 L1912.68 1302.78 L1912.68 1298.84 Q1911.23 1301.2 1909.05 1302.34 Q1906.87 1303.45 1903.73 1303.45 Q1899.74 1303.45 1897.38 1301.22 Q1895.05 1298.98 1895.05 1295.23 Q1895.05 1290.85 1897.96 1288.63 Q1900.9 1286.41 1906.71 1286.41 L1912.68 1286.41 L1912.68 1285.99 Q1912.68 1283.05 1910.74 1281.46 Q1908.82 1279.84 1905.32 1279.84 Q1903.1 1279.84 1900.99 1280.37 Q1898.89 1280.9 1896.94 1281.97 L1896.94 1278.03 Q1899.28 1277.13 1901.48 1276.69 Q1903.68 1276.22 1905.76 1276.22 Q1911.39 1276.22 1914.17 1279.14 Q1916.94 1282.06 1916.94 1287.98 Z" fill="#000000" fill-rule="evenodd" fill-opacity="1" /><path clip-path="url(#clip020)" d="M1944.37 1277.84 L1944.37 1281.83 Q1942.57 1280.83 1940.74 1280.34 Q1938.93 1279.84 1937.08 1279.84 Q1932.94 1279.84 1930.65 1282.47 Q1928.36 1285.09 1928.36 1289.84 Q1928.36 1294.58 1930.65 1297.22 Q1932.94 1299.84 1937.08 1299.84 Q1938.93 1299.84 1940.74 1299.35 Q1942.57 1298.84 1944.37 1297.84 L1944.37 1301.78 Q1942.59 1302.61 1940.67 1303.03 Q1938.77 1303.45 1936.62 1303.45 Q1930.76 1303.45 1927.31 1299.77 Q1923.86 1296.09 1923.86 1289.84 Q1923.86 1283.49 1927.34 1279.86 Q1930.83 1276.22 1936.9 1276.22 Q1938.86 1276.22 1940.74 1276.64 Q1942.61 1277.03 1944.37 1277.84 Z" fill="#000000" fill-rule="evenodd" fill-opacity="1" /><path clip-path="url(#clip020)" d="M1955.99 1269.49 L1955.99 1276.85 L1964.77 1276.85 L1964.77 1280.16 L1955.99 1280.16 L1955.99 1294.23 Q1955.99 1297.41 1956.85 1298.31 Q1957.73 1299.21 1960.39 1299.21 L1964.77 1299.21 L1964.77 1302.78 L1960.39 1302.78 Q1955.46 1302.78 1953.59 1300.95 Q1951.71 1299.09 1951.71 1294.23 L1951.71 1280.16 L1948.59 1280.16 L1948.59 1276.85 L1951.71 1276.85 L1951.71 1269.49 L1955.99 1269.49 Z" fill="#000000" fill-rule="evenodd" fill-opacity="1" /><polyline clip-path="url(#clip020)" style="stroke:#e26f46; stroke-linecap:butt; stroke-linejoin:round; stroke-width:4; stroke-opacity:1; fill:none" points="
  1670.52,1337.34 1814.44,1337.34 
  "/>
<path clip-path="url(#clip020)" d="M1863.98 1349.68 L1863.98 1340.4 L1856.34 1340.4 L1856.34 1336.56 L1868.61 1336.56 L1868.61 1351.4 Q1865.9 1353.32 1862.64 1354.31 Q1859.37 1355.29 1855.67 1355.29 Q1847.57 1355.29 1842.99 1350.56 Q1838.43 1345.82 1838.43 1337.37 Q1838.43 1328.9 1842.99 1324.18 Q1847.57 1319.43 1855.67 1319.43 Q1859.05 1319.43 1862.08 1320.26 Q1865.14 1321.1 1867.71 1322.72 L1867.71 1327.69 Q1865.12 1325.5 1862.2 1324.38 Q1859.28 1323.27 1856.06 1323.27 Q1849.72 1323.27 1846.53 1326.81 Q1843.36 1330.36 1843.36 1337.37 Q1843.36 1344.36 1846.53 1347.9 Q1849.72 1351.44 1856.06 1351.44 Q1858.54 1351.44 1860.49 1351.03 Q1862.43 1350.59 1863.98 1349.68 Z" fill="#000000" fill-rule="evenodd" fill-opacity="1" /><path clip-path="url(#clip020)" d="M1888.75 1341.58 Q1883.59 1341.58 1881.6 1342.76 Q1879.61 1343.94 1879.61 1346.79 Q1879.61 1349.06 1881.09 1350.4 Q1882.59 1351.72 1885.16 1351.72 Q1888.7 1351.72 1890.83 1349.22 Q1892.99 1346.7 1892.99 1342.53 L1892.99 1341.58 L1888.75 1341.58 M1897.24 1339.82 L1897.24 1354.62 L1892.99 1354.62 L1892.99 1350.68 Q1891.53 1353.04 1889.35 1354.18 Q1887.18 1355.29 1884.03 1355.29 Q1880.05 1355.29 1877.68 1353.06 Q1875.35 1350.82 1875.35 1347.07 Q1875.35 1342.69 1878.26 1340.47 Q1881.2 1338.25 1887.01 1338.25 L1892.99 1338.25 L1892.99 1337.83 Q1892.99 1334.89 1891.04 1333.3 Q1889.12 1331.68 1885.62 1331.68 Q1883.4 1331.68 1881.3 1332.21 Q1879.19 1332.74 1877.24 1333.81 L1877.24 1329.87 Q1879.58 1328.97 1881.78 1328.53 Q1883.98 1328.06 1886.06 1328.06 Q1891.69 1328.06 1894.47 1330.98 Q1897.24 1333.9 1897.24 1339.82 Z" fill="#000000" fill-rule="evenodd" fill-opacity="1" /><path clip-path="url(#clip020)" d="M1906.02 1318.6 L1910.28 1318.6 L1910.28 1354.62 L1906.02 1354.62 L1906.02 1318.6 Z" fill="#000000" fill-rule="evenodd" fill-opacity="1" /><path clip-path="url(#clip020)" d="M1941.36 1340.59 L1941.36 1342.67 L1921.78 1342.67 Q1922.06 1347.07 1924.42 1349.38 Q1926.8 1351.68 1931.04 1351.68 Q1933.49 1351.68 1935.79 1351.07 Q1938.1 1350.47 1940.37 1349.27 L1940.37 1353.3 Q1938.08 1354.27 1935.67 1354.78 Q1933.26 1355.29 1930.79 1355.29 Q1924.58 1355.29 1920.95 1351.68 Q1917.34 1348.06 1917.34 1341.91 Q1917.34 1335.54 1920.76 1331.81 Q1924.21 1328.06 1930.05 1328.06 Q1935.28 1328.06 1938.31 1331.44 Q1941.36 1334.8 1941.36 1340.59 M1937.11 1339.34 Q1937.06 1335.84 1935.14 1333.76 Q1933.24 1331.68 1930.09 1331.68 Q1926.53 1331.68 1924.37 1333.69 Q1922.24 1335.7 1921.92 1339.36 L1937.11 1339.34 Z" fill="#000000" fill-rule="evenodd" fill-opacity="1" /><path clip-path="url(#clip020)" d="M1963.38 1332.67 Q1962.66 1332.25 1961.8 1332.07 Q1960.97 1331.86 1959.95 1331.86 Q1956.34 1331.86 1954.4 1334.22 Q1952.48 1336.56 1952.48 1340.96 L1952.48 1354.62 L1948.19 1354.62 L1948.19 1328.69 L1952.48 1328.69 L1952.48 1332.72 Q1953.82 1330.36 1955.97 1329.22 Q1958.12 1328.06 1961.2 1328.06 Q1961.64 1328.06 1962.17 1328.13 Q1962.71 1328.18 1963.36 1328.3 L1963.38 1332.67 Z" fill="#000000" fill-rule="evenodd" fill-opacity="1" /><path clip-path="url(#clip020)" d="M1967.68 1318.6 L1971.97 1318.6 L1971.97 1339.87 L1984.67 1328.69 L1990.11 1328.69 L1976.36 1340.82 L1990.69 1354.62 L1985.14 1354.62 L1971.97 1341.95 L1971.97 1354.62 L1967.68 1354.62 L1967.68 1318.6 Z" fill="#000000" fill-rule="evenodd" fill-opacity="1" /><path clip-path="url(#clip020)" d="M1995.3 1328.69 L1999.56 1328.69 L1999.56 1354.62 L1995.3 1354.62 L1995.3 1328.69 M1995.3 1318.6 L1999.56 1318.6 L1999.56 1323.99 L1995.3 1323.99 L1995.3 1318.6 Z" fill="#000000" fill-rule="evenodd" fill-opacity="1" /><path clip-path="url(#clip020)" d="M2030.02 1338.97 L2030.02 1354.62 L2025.76 1354.62 L2025.76 1339.11 Q2025.76 1335.43 2024.33 1333.6 Q2022.89 1331.77 2020.02 1331.77 Q2016.57 1331.77 2014.58 1333.97 Q2012.59 1336.17 2012.59 1339.96 L2012.59 1354.62 L2008.31 1354.62 L2008.31 1328.69 L2012.59 1328.69 L2012.59 1332.72 Q2014.12 1330.38 2016.18 1329.22 Q2018.26 1328.06 2020.97 1328.06 Q2025.44 1328.06 2027.73 1330.84 Q2030.02 1333.6 2030.02 1338.97 Z" fill="#000000" fill-rule="evenodd" fill-opacity="1" /><path clip-path="url(#clip020)" d="M2070.11 1329.45 L2070.11 1333.48 Q2068.31 1332.56 2066.36 1332.09 Q2064.42 1331.63 2062.34 1331.63 Q2059.16 1331.63 2057.57 1332.6 Q2055.99 1333.57 2055.99 1335.52 Q2055.99 1337 2057.13 1337.86 Q2058.26 1338.69 2061.69 1339.45 L2063.15 1339.78 Q2067.68 1340.75 2069.58 1342.53 Q2071.5 1344.29 2071.5 1347.46 Q2071.5 1351.07 2068.63 1353.18 Q2065.79 1355.29 2060.79 1355.29 Q2058.7 1355.29 2056.43 1354.87 Q2054.19 1354.48 2051.69 1353.67 L2051.69 1349.27 Q2054.05 1350.5 2056.34 1351.12 Q2058.63 1351.72 2060.88 1351.72 Q2063.89 1351.72 2065.51 1350.7 Q2067.13 1349.66 2067.13 1347.79 Q2067.13 1346.05 2065.95 1345.12 Q2064.79 1344.2 2060.83 1343.34 L2059.35 1343 Q2055.39 1342.16 2053.63 1340.45 Q2051.87 1338.71 2051.87 1335.7 Q2051.87 1332.05 2054.47 1330.06 Q2057.06 1328.06 2061.83 1328.06 Q2064.19 1328.06 2066.27 1328.41 Q2068.35 1328.76 2070.11 1329.45 Z" fill="#000000" fill-rule="evenodd" fill-opacity="1" /><path clip-path="url(#clip020)" d="M2088.33 1331.68 Q2084.91 1331.68 2082.91 1334.36 Q2080.92 1337.02 2080.92 1341.68 Q2080.92 1346.33 2082.89 1349.01 Q2084.88 1351.68 2088.33 1351.68 Q2091.73 1351.68 2093.72 1348.99 Q2095.72 1346.31 2095.72 1341.68 Q2095.72 1337.07 2093.72 1334.38 Q2091.73 1331.68 2088.33 1331.68 M2088.33 1328.06 Q2093.89 1328.06 2097.06 1331.68 Q2100.23 1335.29 2100.23 1341.68 Q2100.23 1348.04 2097.06 1351.68 Q2093.89 1355.29 2088.33 1355.29 Q2082.75 1355.29 2079.58 1351.68 Q2076.43 1348.04 2076.43 1341.68 Q2076.43 1335.29 2079.58 1331.68 Q2082.75 1328.06 2088.33 1328.06 Z" fill="#000000" fill-rule="evenodd" fill-opacity="1" /><path clip-path="url(#clip020)" d="M2107.29 1318.6 L2111.55 1318.6 L2111.55 1354.62 L2107.29 1354.62 L2107.29 1318.6 Z" fill="#000000" fill-rule="evenodd" fill-opacity="1" /><path clip-path="url(#clip020)" d="M2120.02 1344.38 L2120.02 1328.69 L2124.28 1328.69 L2124.28 1344.22 Q2124.28 1347.9 2125.72 1349.75 Q2127.15 1351.58 2130.02 1351.58 Q2133.47 1351.58 2135.46 1349.38 Q2137.47 1347.18 2137.47 1343.39 L2137.47 1328.69 L2141.73 1328.69 L2141.73 1354.62 L2137.47 1354.62 L2137.47 1350.63 Q2135.92 1352.99 2133.86 1354.15 Q2131.83 1355.29 2129.12 1355.29 Q2124.65 1355.29 2122.34 1352.51 Q2120.02 1349.73 2120.02 1344.38 M2130.74 1328.06 L2130.74 1328.06 Z" fill="#000000" fill-rule="evenodd" fill-opacity="1" /><path clip-path="url(#clip020)" d="M2154.72 1321.33 L2154.72 1328.69 L2163.49 1328.69 L2163.49 1332 L2154.72 1332 L2154.72 1346.07 Q2154.72 1349.25 2155.58 1350.15 Q2156.46 1351.05 2159.12 1351.05 L2163.49 1351.05 L2163.49 1354.62 L2159.12 1354.62 Q2154.19 1354.62 2152.31 1352.79 Q2150.44 1350.93 2150.44 1346.07 L2150.44 1332 L2147.31 1332 L2147.31 1328.69 L2150.44 1328.69 L2150.44 1321.33 L2154.72 1321.33 Z" fill="#000000" fill-rule="evenodd" fill-opacity="1" /><path clip-path="url(#clip020)" d="M2169.09 1328.69 L2173.35 1328.69 L2173.35 1354.62 L2169.09 1354.62 L2169.09 1328.69 M2169.09 1318.6 L2173.35 1318.6 L2173.35 1323.99 L2169.09 1323.99 L2169.09 1318.6 Z" fill="#000000" fill-rule="evenodd" fill-opacity="1" /><path clip-path="url(#clip020)" d="M2192.31 1331.68 Q2188.89 1331.68 2186.9 1334.36 Q2184.91 1337.02 2184.91 1341.68 Q2184.91 1346.33 2186.87 1349.01 Q2188.86 1351.68 2192.31 1351.68 Q2195.72 1351.68 2197.71 1348.99 Q2199.7 1346.31 2199.7 1341.68 Q2199.7 1337.07 2197.71 1334.38 Q2195.72 1331.68 2192.31 1331.68 M2192.31 1328.06 Q2197.87 1328.06 2201.04 1331.68 Q2204.21 1335.29 2204.21 1341.68 Q2204.21 1348.04 2201.04 1351.68 Q2197.87 1355.29 2192.31 1355.29 Q2186.73 1355.29 2183.56 1351.68 Q2180.41 1348.04 2180.41 1341.68 Q2180.41 1335.29 2183.56 1331.68 Q2186.73 1328.06 2192.31 1328.06 Z" fill="#000000" fill-rule="evenodd" fill-opacity="1" /><path clip-path="url(#clip020)" d="M2232.82 1338.97 L2232.82 1354.62 L2228.56 1354.62 L2228.56 1339.11 Q2228.56 1335.43 2227.13 1333.6 Q2225.69 1331.77 2222.82 1331.77 Q2219.37 1331.77 2217.38 1333.97 Q2215.39 1336.17 2215.39 1339.96 L2215.39 1354.62 L2211.11 1354.62 L2211.11 1328.69 L2215.39 1328.69 L2215.39 1332.72 Q2216.92 1330.38 2218.98 1329.22 Q2221.06 1328.06 2223.77 1328.06 Q2228.24 1328.06 2230.53 1330.84 Q2232.82 1333.6 2232.82 1338.97 Z" fill="#000000" fill-rule="evenodd" fill-opacity="1" /><circle clip-path="url(#clip020)" cx="1742.48" cy="1389.18" r="23.04" fill="#000000" fill-rule="evenodd" fill-opacity="1" stroke="none"/>
<path clip-path="url(#clip020)" d="M1838.43 1371.9 L1844.72 1371.9 L1860.05 1400.81 L1860.05 1371.9 L1864.58 1371.9 L1864.58 1406.46 L1858.29 1406.46 L1842.96 1377.54 L1842.96 1406.46 L1838.43 1406.46 L1838.43 1371.9 Z" fill="#000000" fill-rule="evenodd" fill-opacity="1" /><path clip-path="url(#clip020)" d="M1883.75 1383.52 Q1880.32 1383.52 1878.33 1386.2 Q1876.34 1388.86 1876.34 1393.52 Q1876.34 1398.17 1878.31 1400.85 Q1880.3 1403.52 1883.75 1403.52 Q1887.15 1403.52 1889.14 1400.83 Q1891.13 1398.15 1891.13 1393.52 Q1891.13 1388.91 1889.14 1386.22 Q1887.15 1383.52 1883.75 1383.52 M1883.75 1379.9 Q1889.3 1379.9 1892.48 1383.52 Q1895.65 1387.13 1895.65 1393.52 Q1895.65 1399.88 1892.48 1403.52 Q1889.3 1407.13 1883.75 1407.13 Q1878.17 1407.13 1875 1403.52 Q1871.85 1399.88 1871.85 1393.52 Q1871.85 1387.13 1875 1383.52 Q1878.17 1379.9 1883.75 1379.9 Z" fill="#000000" fill-rule="evenodd" fill-opacity="1" /><path clip-path="url(#clip020)" d="M1919.77 1384.46 L1919.77 1370.44 L1924.03 1370.44 L1924.03 1406.46 L1919.77 1406.46 L1919.77 1402.57 Q1918.43 1404.88 1916.36 1406.02 Q1914.33 1407.13 1911.46 1407.13 Q1906.76 1407.13 1903.8 1403.38 Q1900.86 1399.63 1900.86 1393.52 Q1900.86 1387.4 1903.8 1383.65 Q1906.76 1379.9 1911.46 1379.9 Q1914.33 1379.9 1916.36 1381.04 Q1918.43 1382.15 1919.77 1384.46 M1905.25 1393.52 Q1905.25 1398.21 1907.18 1400.9 Q1909.12 1403.56 1912.5 1403.56 Q1915.88 1403.56 1917.82 1400.9 Q1919.77 1398.21 1919.77 1393.52 Q1919.77 1388.82 1917.82 1386.15 Q1915.88 1383.47 1912.5 1383.47 Q1909.12 1383.47 1907.18 1386.15 Q1905.25 1388.82 1905.25 1393.52 Z" fill="#000000" fill-rule="evenodd" fill-opacity="1" /><path clip-path="url(#clip020)" d="M1944.58 1393.42 Q1939.42 1393.42 1937.43 1394.6 Q1935.44 1395.78 1935.44 1398.63 Q1935.44 1400.9 1936.92 1402.24 Q1938.42 1403.56 1940.99 1403.56 Q1944.54 1403.56 1946.67 1401.06 Q1948.82 1398.54 1948.82 1394.37 L1948.82 1393.42 L1944.58 1393.42 M1953.08 1391.66 L1953.08 1406.46 L1948.82 1406.46 L1948.82 1402.52 Q1947.36 1404.88 1945.18 1406.02 Q1943.01 1407.13 1939.86 1407.13 Q1935.88 1407.13 1933.52 1404.9 Q1931.18 1402.66 1931.18 1398.91 Q1931.18 1394.53 1934.1 1392.31 Q1937.04 1390.09 1942.85 1390.09 L1948.82 1390.09 L1948.82 1389.67 Q1948.82 1386.73 1946.87 1385.14 Q1944.95 1383.52 1941.46 1383.52 Q1939.24 1383.52 1937.13 1384.05 Q1935.02 1384.58 1933.08 1385.65 L1933.08 1381.71 Q1935.42 1380.81 1937.61 1380.37 Q1939.81 1379.9 1941.9 1379.9 Q1947.52 1379.9 1950.3 1382.82 Q1953.08 1385.74 1953.08 1391.66 Z" fill="#000000" fill-rule="evenodd" fill-opacity="1" /><path clip-path="url(#clip020)" d="M1961.85 1370.44 L1966.11 1370.44 L1966.11 1406.46 L1961.85 1406.46 L1961.85 1370.44 Z" fill="#000000" fill-rule="evenodd" fill-opacity="1" /><path clip-path="url(#clip020)" d="M1987.04 1380.53 L1991.55 1380.53 L1999.65 1402.29 L2007.75 1380.53 L2012.27 1380.53 L2002.54 1406.46 L1996.76 1406.46 L1987.04 1380.53 Z" fill="#000000" fill-rule="evenodd" fill-opacity="1" /><path clip-path="url(#clip020)" d="M2029.93 1393.42 Q2024.77 1393.42 2022.78 1394.6 Q2020.79 1395.78 2020.79 1398.63 Q2020.79 1400.9 2022.27 1402.24 Q2023.77 1403.56 2026.34 1403.56 Q2029.88 1403.56 2032.01 1401.06 Q2034.17 1398.54 2034.17 1394.37 L2034.17 1393.42 L2029.93 1393.42 M2038.42 1391.66 L2038.42 1406.46 L2034.17 1406.46 L2034.17 1402.52 Q2032.71 1404.88 2030.53 1406.02 Q2028.35 1407.13 2025.21 1407.13 Q2021.23 1407.13 2018.86 1404.9 Q2016.53 1402.66 2016.53 1398.91 Q2016.53 1394.53 2019.44 1392.31 Q2022.38 1390.09 2028.19 1390.09 L2034.17 1390.09 L2034.17 1389.67 Q2034.17 1386.73 2032.22 1385.14 Q2030.3 1383.52 2026.8 1383.52 Q2024.58 1383.52 2022.48 1384.05 Q2020.37 1384.58 2018.42 1385.65 L2018.42 1381.71 Q2020.76 1380.81 2022.96 1380.37 Q2025.16 1379.9 2027.24 1379.9 Q2032.87 1379.9 2035.65 1382.82 Q2038.42 1385.74 2038.42 1391.66 Z" fill="#000000" fill-rule="evenodd" fill-opacity="1" /><path clip-path="url(#clip020)" d="M2047.2 1370.44 L2051.46 1370.44 L2051.46 1406.46 L2047.2 1406.46 L2047.2 1370.44 Z" fill="#000000" fill-rule="evenodd" fill-opacity="1" /><path clip-path="url(#clip020)" d="M2059.93 1396.22 L2059.93 1380.53 L2064.19 1380.53 L2064.19 1396.06 Q2064.19 1399.74 2065.62 1401.59 Q2067.06 1403.42 2069.93 1403.42 Q2073.38 1403.42 2075.37 1401.22 Q2077.38 1399.02 2077.38 1395.23 L2077.38 1380.53 L2081.64 1380.53 L2081.64 1406.46 L2077.38 1406.46 L2077.38 1402.47 Q2075.83 1404.83 2073.77 1405.99 Q2071.73 1407.13 2069.03 1407.13 Q2064.56 1407.13 2062.24 1404.35 Q2059.93 1401.57 2059.93 1396.22 M2070.65 1379.9 L2070.65 1379.9 Z" fill="#000000" fill-rule="evenodd" fill-opacity="1" /><path clip-path="url(#clip020)" d="M2112.59 1392.43 L2112.59 1394.51 L2093.01 1394.51 Q2093.29 1398.91 2095.65 1401.22 Q2098.03 1403.52 2102.27 1403.52 Q2104.72 1403.52 2107.01 1402.91 Q2109.33 1402.31 2111.6 1401.11 L2111.6 1405.14 Q2109.3 1406.11 2106.9 1406.62 Q2104.49 1407.13 2102.01 1407.13 Q2095.81 1407.13 2092.17 1403.52 Q2088.56 1399.9 2088.56 1393.75 Q2088.56 1387.38 2091.99 1383.65 Q2095.44 1379.9 2101.27 1379.9 Q2106.5 1379.9 2109.54 1383.28 Q2112.59 1386.64 2112.59 1392.43 M2108.33 1391.18 Q2108.29 1387.68 2106.36 1385.6 Q2104.47 1383.52 2101.32 1383.52 Q2097.75 1383.52 2095.6 1385.53 Q2093.47 1387.54 2093.15 1391.2 L2108.33 1391.18 Z" fill="#000000" fill-rule="evenodd" fill-opacity="1" /><path clip-path="url(#clip020)" d="M2136.11 1381.29 L2136.11 1385.32 Q2134.3 1384.4 2132.36 1383.93 Q2130.41 1383.47 2128.33 1383.47 Q2125.16 1383.47 2123.56 1384.44 Q2121.99 1385.41 2121.99 1387.36 Q2121.99 1388.84 2123.12 1389.7 Q2124.26 1390.53 2127.68 1391.29 L2129.14 1391.62 Q2133.68 1392.59 2135.58 1394.37 Q2137.5 1396.13 2137.5 1399.3 Q2137.5 1402.91 2134.63 1405.02 Q2131.78 1407.13 2126.78 1407.13 Q2124.7 1407.13 2122.43 1406.71 Q2120.18 1406.32 2117.68 1405.51 L2117.68 1401.11 Q2120.04 1402.34 2122.34 1402.96 Q2124.63 1403.56 2126.87 1403.56 Q2129.88 1403.56 2131.5 1402.54 Q2133.12 1401.5 2133.12 1399.63 Q2133.12 1397.89 2131.94 1396.96 Q2130.78 1396.04 2126.83 1395.18 L2125.35 1394.84 Q2121.39 1394 2119.63 1392.29 Q2117.87 1390.55 2117.87 1387.54 Q2117.87 1383.89 2120.46 1381.9 Q2123.05 1379.9 2127.82 1379.9 Q2130.18 1379.9 2132.27 1380.25 Q2134.35 1380.6 2136.11 1381.29 Z" fill="#000000" fill-rule="evenodd" fill-opacity="1" /></svg>
