<?xml version="1.0" encoding="utf-8"?>
<svg xmlns="http://www.w3.org/2000/svg" xmlns:xlink="http://www.w3.org/1999/xlink" width="600" height="400" viewBox="0 0 2400 1600">
<defs>
  <clipPath id="clip330">
    <rect x="0" y="0" width="2400" height="1600"/>
  </clipPath>
</defs>
<path clip-path="url(#clip330)" d="
M0 1600 L2400 1600 L2400 0 L0 0  Z
  " fill="#ffffff" fill-rule="evenodd" fill-opacity="1"/>
<defs>
  <clipPath id="clip331">
    <rect x="480" y="0" width="1681" height="1600"/>
  </clipPath>
</defs>
<defs>
  <clipPath id="clip332">
    <rect x="147" y="47" width="2206" height="1440"/>
  </clipPath>
</defs>
<path clip-path="url(#clip330)" d="
M213.607 1474.16 L2352.76 1474.16 L2352.76 47.2441 L213.607 47.2441  Z
  " fill="#ffffff" fill-rule="evenodd" fill-opacity="1"/>
<defs>
  <clipPath id="clip333">
    <rect x="213" y="47" width="2140" height="1428"/>
  </clipPath>
</defs>
<polyline clip-path="url(#clip333)" style="stroke:#000000; stroke-linecap:butt; stroke-linejoin:round; stroke-width:2; stroke-opacity:0.1; fill:none" points="
  757.929,1474.16 757.929,47.2441 
  "/>
<polyline clip-path="url(#clip333)" style="stroke:#000000; stroke-linecap:butt; stroke-linejoin:round; stroke-width:2; stroke-opacity:0.1; fill:none" points="
  1715.62,1474.16 1715.62,47.2441 
  "/>
<polyline clip-path="url(#clip330)" style="stroke:#000000; stroke-linecap:butt; stroke-linejoin:round; stroke-width:4; stroke-opacity:1; fill:none" points="
  213.607,1474.16 2352.76,1474.16 
  "/>
<polyline clip-path="url(#clip330)" style="stroke:#000000; stroke-linecap:butt; stroke-linejoin:round; stroke-width:4; stroke-opacity:1; fill:none" points="
  757.929,1474.16 757.929,1455.27 
  "/>
<polyline clip-path="url(#clip330)" style="stroke:#000000; stroke-linecap:butt; stroke-linejoin:round; stroke-width:4; stroke-opacity:1; fill:none" points="
  1715.62,1474.16 1715.62,1455.27 
  "/>
<path clip-path="url(#clip330)" d="M708.195 1548.29 L715.834 1548.29 L715.834 1521.92 L707.524 1523.59 L707.524 1519.33 L715.787 1517.66 L720.463 1517.66 L720.463 1548.29 L728.102 1548.29 L728.102 1552.22 L708.195 1552.22 L708.195 1548.29 Z" fill="#000000" fill-rule="evenodd" fill-opacity="1" /><path clip-path="url(#clip330)" d="M747.546 1520.74 Q743.935 1520.74 742.107 1524.31 Q740.301 1527.85 740.301 1534.98 Q740.301 1542.09 742.107 1545.65 Q743.935 1549.19 747.546 1549.19 Q751.181 1549.19 752.986 1545.65 Q754.815 1542.09 754.815 1534.98 Q754.815 1527.85 752.986 1524.31 Q751.181 1520.74 747.546 1520.74 M747.546 1517.04 Q753.357 1517.04 756.412 1521.65 Q759.491 1526.23 759.491 1534.98 Q759.491 1543.71 756.412 1548.31 Q753.357 1552.9 747.546 1552.9 Q741.736 1552.9 738.658 1548.31 Q735.602 1543.71 735.602 1534.98 Q735.602 1526.23 738.658 1521.65 Q741.736 1517.04 747.546 1517.04 Z" fill="#000000" fill-rule="evenodd" fill-opacity="1" /><path clip-path="url(#clip330)" d="M759.491 1511.14 L783.602 1511.14 L783.602 1514.34 L759.491 1514.34 L759.491 1511.14 Z" fill="#000000" fill-rule="evenodd" fill-opacity="1" /><path clip-path="url(#clip330)" d="M795.075 1521.62 L808.335 1521.62 L808.335 1524.81 L790.505 1524.81 L790.505 1521.62 Q792.668 1519.38 796.392 1515.62 Q800.134 1511.84 801.094 1510.75 Q802.918 1508.7 803.633 1507.29 Q804.366 1505.86 804.366 1504.48 Q804.366 1502.24 802.786 1500.83 Q801.225 1499.42 798.705 1499.42 Q796.918 1499.42 794.925 1500.04 Q792.95 1500.67 790.693 1501.93 L790.693 1498.09 Q792.987 1497.17 794.981 1496.7 Q796.975 1496.23 798.63 1496.23 Q802.993 1496.23 805.589 1498.41 Q808.184 1500.59 808.184 1504.24 Q808.184 1505.97 807.526 1507.53 Q806.886 1509.07 805.175 1511.18 Q804.705 1511.72 802.184 1514.34 Q799.664 1516.93 795.075 1521.62 Z" fill="#000000" fill-rule="evenodd" fill-opacity="1" /><path clip-path="url(#clip330)" d="M1680.61 1548.29 L1688.25 1548.29 L1688.25 1521.92 L1679.94 1523.59 L1679.94 1519.33 L1688.2 1517.66 L1692.88 1517.66 L1692.88 1548.29 L1700.51 1548.29 L1700.51 1552.22 L1680.61 1552.22 L1680.61 1548.29 Z" fill="#000000" fill-rule="evenodd" fill-opacity="1" /><path clip-path="url(#clip330)" d="M1719.96 1520.74 Q1716.35 1520.74 1714.52 1524.31 Q1712.71 1527.85 1712.71 1534.98 Q1712.71 1542.09 1714.52 1545.65 Q1716.35 1549.19 1719.96 1549.19 Q1723.59 1549.19 1725.4 1545.65 Q1727.23 1542.09 1727.23 1534.98 Q1727.23 1527.85 1725.4 1524.31 Q1723.59 1520.74 1719.96 1520.74 M1719.96 1517.04 Q1725.77 1517.04 1728.82 1521.65 Q1731.9 1526.23 1731.9 1534.98 Q1731.9 1543.71 1728.82 1548.31 Q1725.77 1552.9 1719.96 1552.9 Q1714.15 1552.9 1711.07 1548.31 Q1708.01 1543.71 1708.01 1534.98 Q1708.01 1526.23 1711.07 1521.65 Q1714.15 1517.04 1719.96 1517.04 Z" fill="#000000" fill-rule="evenodd" fill-opacity="1" /><path clip-path="url(#clip330)" d="M1741.61 1499.24 Q1738.67 1499.24 1737.19 1502.13 Q1735.72 1505.01 1735.72 1510.8 Q1735.72 1516.58 1737.19 1519.47 Q1738.67 1522.35 1741.61 1522.35 Q1744.56 1522.35 1746.03 1519.47 Q1747.51 1516.58 1747.51 1510.8 Q1747.51 1505.01 1746.03 1502.13 Q1744.56 1499.24 1741.61 1499.24 M1741.61 1496.23 Q1746.33 1496.23 1748.81 1499.97 Q1751.31 1503.69 1751.31 1510.8 Q1751.31 1517.89 1748.81 1521.64 Q1746.33 1525.36 1741.61 1525.36 Q1736.89 1525.36 1734.39 1521.64 Q1731.9 1517.89 1731.9 1510.8 Q1731.9 1503.69 1734.39 1499.97 Q1736.89 1496.23 1741.61 1496.23 Z" fill="#000000" fill-rule="evenodd" fill-opacity="1" /><polyline clip-path="url(#clip333)" style="stroke:#000000; stroke-linecap:butt; stroke-linejoin:round; stroke-width:2; stroke-opacity:0.1; fill:none" points="
  213.607,1445.47 2352.76,1445.47 
  "/>
<polyline clip-path="url(#clip333)" style="stroke:#000000; stroke-linecap:butt; stroke-linejoin:round; stroke-width:2; stroke-opacity:0.1; fill:none" points="
  213.607,946.718 2352.76,946.718 
  "/>
<polyline clip-path="url(#clip333)" style="stroke:#000000; stroke-linecap:butt; stroke-linejoin:round; stroke-width:2; stroke-opacity:0.1; fill:none" points="
  213.607,447.964 2352.76,447.964 
  "/>
<polyline clip-path="url(#clip330)" style="stroke:#000000; stroke-linecap:butt; stroke-linejoin:round; stroke-width:4; stroke-opacity:1; fill:none" points="
  213.607,1474.16 213.607,47.2441 
  "/>
<polyline clip-path="url(#clip330)" style="stroke:#000000; stroke-linecap:butt; stroke-linejoin:round; stroke-width:4; stroke-opacity:1; fill:none" points="
  213.607,1445.47 232.505,1445.47 
  "/>
<polyline clip-path="url(#clip330)" style="stroke:#000000; stroke-linecap:butt; stroke-linejoin:round; stroke-width:4; stroke-opacity:1; fill:none" points="
  213.607,946.718 232.505,946.718 
  "/>
<polyline clip-path="url(#clip330)" style="stroke:#000000; stroke-linecap:butt; stroke-linejoin:round; stroke-width:4; stroke-opacity:1; fill:none" points="
  213.607,447.964 232.505,447.964 
  "/>
<path clip-path="url(#clip330)" d="M51.6634 1465.26 L59.3023 1465.26 L59.3023 1438.9 L50.9921 1440.57 L50.9921 1436.31 L59.256 1434.64 L63.9319 1434.64 L63.9319 1465.26 L71.5707 1465.26 L71.5707 1469.2 L51.6634 1469.2 L51.6634 1465.26 Z" fill="#000000" fill-rule="evenodd" fill-opacity="1" /><path clip-path="url(#clip330)" d="M91.0151 1437.72 Q87.404 1437.72 85.5753 1441.28 Q83.7697 1444.82 83.7697 1451.95 Q83.7697 1459.06 85.5753 1462.63 Q87.404 1466.17 91.0151 1466.17 Q94.6493 1466.17 96.4548 1462.63 Q98.2835 1459.06 98.2835 1451.95 Q98.2835 1444.82 96.4548 1441.28 Q94.6493 1437.72 91.0151 1437.72 M91.0151 1434.01 Q96.8252 1434.01 99.8808 1438.62 Q102.959 1443.2 102.959 1451.95 Q102.959 1460.68 99.8808 1465.29 Q96.8252 1469.87 91.0151 1469.87 Q85.2049 1469.87 82.1262 1465.29 Q79.0707 1460.68 79.0707 1451.95 Q79.0707 1443.2 82.1262 1438.62 Q85.2049 1434.01 91.0151 1434.01 Z" fill="#000000" fill-rule="evenodd" fill-opacity="1" /><path clip-path="url(#clip330)" d="M102.959 1428.12 L127.071 1428.12 L127.071 1431.31 L102.959 1431.31 L102.959 1428.12 Z" fill="#000000" fill-rule="evenodd" fill-opacity="1" /><path clip-path="url(#clip330)" d="M135.929 1438.59 L142.136 1438.59 L142.136 1417.17 L135.384 1418.52 L135.384 1415.06 L142.098 1413.71 L145.898 1413.71 L145.898 1438.59 L152.104 1438.59 L152.104 1441.79 L135.929 1441.79 L135.929 1438.59 Z" fill="#000000" fill-rule="evenodd" fill-opacity="1" /><path clip-path="url(#clip330)" d="M167.903 1416.21 Q164.969 1416.21 163.483 1419.11 Q162.016 1421.98 162.016 1427.78 Q162.016 1433.55 163.483 1436.45 Q164.969 1439.33 167.903 1439.33 Q170.855 1439.33 172.322 1436.45 Q173.808 1433.55 173.808 1427.78 Q173.808 1421.98 172.322 1419.11 Q170.855 1416.21 167.903 1416.21 M167.903 1413.2 Q172.623 1413.2 175.106 1416.94 Q177.607 1420.67 177.607 1427.78 Q177.607 1434.87 175.106 1438.61 Q172.623 1442.33 167.903 1442.33 Q163.182 1442.33 160.68 1438.61 Q158.198 1434.87 158.198 1427.78 Q158.198 1420.67 160.68 1416.94 Q163.182 1413.2 167.903 1413.2 Z" fill="#000000" fill-rule="evenodd" fill-opacity="1" /><path clip-path="url(#clip330)" d="M76.9787 966.511 L84.6175 966.511 L84.6175 940.145 L76.3074 941.812 L76.3074 937.552 L84.5712 935.886 L89.2471 935.886 L89.2471 966.511 L96.886 966.511 L96.886 970.446 L76.9787 970.446 L76.9787 966.511 Z" fill="#000000" fill-rule="evenodd" fill-opacity="1" /><path clip-path="url(#clip330)" d="M116.33 938.965 Q112.719 938.965 110.891 942.529 Q109.085 946.071 109.085 953.201 Q109.085 960.307 110.891 963.872 Q112.719 967.413 116.33 967.413 Q119.965 967.413 121.77 963.872 Q123.599 960.307 123.599 953.201 Q123.599 946.071 121.77 942.529 Q119.965 938.965 116.33 938.965 M116.33 935.261 Q122.14 935.261 125.196 939.867 Q128.275 944.451 128.275 953.201 Q128.275 961.927 125.196 966.534 Q122.14 971.117 116.33 971.117 Q110.52 971.117 107.441 966.534 Q104.386 961.927 104.386 953.201 Q104.386 944.451 107.441 939.867 Q110.52 935.261 116.33 935.261 Z" fill="#000000" fill-rule="evenodd" fill-opacity="1" /><path clip-path="url(#clip330)" d="M128.275 929.362 L152.386 929.362 L152.386 932.559 L128.275 932.559 L128.275 929.362 Z" fill="#000000" fill-rule="evenodd" fill-opacity="1" /><path clip-path="url(#clip330)" d="M160.624 914.955 L175.539 914.955 L175.539 918.153 L164.103 918.153 L164.103 925.036 Q164.931 924.754 165.759 924.623 Q166.586 924.472 167.414 924.472 Q172.116 924.472 174.862 927.049 Q177.607 929.625 177.607 934.026 Q177.607 938.559 174.786 941.079 Q171.965 943.581 166.831 943.581 Q165.063 943.581 163.22 943.28 Q161.395 942.979 159.439 942.377 L159.439 938.559 Q161.132 939.481 162.937 939.932 Q164.743 940.384 166.755 940.384 Q170.009 940.384 171.909 938.672 Q173.808 936.961 173.808 934.026 Q173.808 931.092 171.909 929.381 Q170.009 927.669 166.755 927.669 Q165.232 927.669 163.709 928.008 Q162.204 928.347 160.624 929.061 L160.624 914.955 Z" fill="#000000" fill-rule="evenodd" fill-opacity="1" /><path clip-path="url(#clip330)" d="M106.902 467.757 L114.541 467.757 L114.541 441.391 L106.231 443.058 L106.231 438.799 L114.494 437.132 L119.17 437.132 L119.17 467.757 L126.809 467.757 L126.809 471.692 L106.902 471.692 L106.902 467.757 Z" fill="#000000" fill-rule="evenodd" fill-opacity="1" /><path clip-path="url(#clip330)" d="M146.253 440.211 Q142.642 440.211 140.814 443.775 Q139.008 447.317 139.008 454.447 Q139.008 461.553 140.814 465.118 Q142.642 468.66 146.253 468.66 Q149.888 468.66 151.693 465.118 Q153.522 461.553 153.522 454.447 Q153.522 447.317 151.693 443.775 Q149.888 440.211 146.253 440.211 M146.253 436.507 Q152.064 436.507 155.119 441.113 Q158.198 445.697 158.198 454.447 Q158.198 463.173 155.119 467.78 Q152.064 472.363 146.253 472.363 Q140.443 472.363 137.365 467.78 Q134.309 463.173 134.309 454.447 Q134.309 445.697 137.365 441.113 Q140.443 436.507 146.253 436.507 Z" fill="#000000" fill-rule="evenodd" fill-opacity="1" /><path clip-path="url(#clip330)" d="M167.903 418.703 Q164.969 418.703 163.483 421.599 Q162.016 424.477 162.016 430.27 Q162.016 436.044 163.483 438.94 Q164.969 441.818 167.903 441.818 Q170.855 441.818 172.322 438.94 Q173.808 436.044 173.808 430.27 Q173.808 424.477 172.322 421.599 Q170.855 418.703 167.903 418.703 M167.903 415.694 Q172.623 415.694 175.106 419.436 Q177.607 423.16 177.607 430.27 Q177.607 437.36 175.106 441.103 Q172.623 444.827 167.903 444.827 Q163.182 444.827 160.68 441.103 Q158.198 437.36 158.198 430.27 Q158.198 423.16 160.68 419.436 Q163.182 415.694 167.903 415.694 Z" fill="#000000" fill-rule="evenodd" fill-opacity="1" /><polyline clip-path="url(#clip333)" style="stroke:#009af9; stroke-linecap:butt; stroke-linejoin:round; stroke-width:12; stroke-opacity:1; fill:none" points="
  2292.21,455.655 2067.98,476.298 1843.76,594.96 1619.53,733.966 1395.3,874.486 1171.07,1014.84 946.838,1155.06 722.608,1295.21 498.379,1433.78 274.149,1347.13 
  
  "/>
<circle clip-path="url(#clip333)" cx="2292.21" cy="455.655" r="14.4" fill="#009af9" fill-rule="evenodd" fill-opacity="1" stroke="#000000" stroke-opacity="1" stroke-width="3.2"/>
<circle clip-path="url(#clip333)" cx="2067.98" cy="476.298" r="14.4" fill="#009af9" fill-rule="evenodd" fill-opacity="1" stroke="#000000" stroke-opacity="1" stroke-width="3.2"/>
<circle clip-path="url(#clip333)" cx="1843.76" cy="594.96" r="14.4" fill="#009af9" fill-rule="evenodd" fill-opacity="1" stroke="#000000" stroke-opacity="1" stroke-width="3.2"/>
<circle clip-path="url(#clip333)" cx="1619.53" cy="733.966" r="14.4" fill="#009af9" fill-rule="evenodd" fill-opacity="1" stroke="#000000" stroke-opacity="1" stroke-width="3.2"/>
<circle clip-path="url(#clip333)" cx="1395.3" cy="874.486" r="14.4" fill="#009af9" fill-rule="evenodd" fill-opacity="1" stroke="#000000" stroke-opacity="1" stroke-width="3.2"/>
<circle clip-path="url(#clip333)" cx="1171.07" cy="1014.84" r="14.4" fill="#009af9" fill-rule="evenodd" fill-opacity="1" stroke="#000000" stroke-opacity="1" stroke-width="3.2"/>
<circle clip-path="url(#clip333)" cx="946.838" cy="1155.06" r="14.4" fill="#009af9" fill-rule="evenodd" fill-opacity="1" stroke="#000000" stroke-opacity="1" stroke-width="3.2"/>
<circle clip-path="url(#clip333)" cx="722.608" cy="1295.21" r="14.4" fill="#009af9" fill-rule="evenodd" fill-opacity="1" stroke="#000000" stroke-opacity="1" stroke-width="3.2"/>
<circle clip-path="url(#clip333)" cx="498.379" cy="1433.78" r="14.4" fill="#009af9" fill-rule="evenodd" fill-opacity="1" stroke="#000000" stroke-opacity="1" stroke-width="3.2"/>
<circle clip-path="url(#clip333)" cx="274.149" cy="1347.13" r="14.4" fill="#009af9" fill-rule="evenodd" fill-opacity="1" stroke="#000000" stroke-opacity="1" stroke-width="3.2"/>
<polyline clip-path="url(#clip333)" style="stroke:#e26f46; stroke-linecap:butt; stroke-linejoin:round; stroke-width:12; stroke-opacity:1; fill:none" points="
  274.149,1348.8 287.288,1340.59 408.774,1264.67 481.783,1219.04 543.51,1180.47 610.563,1138.56 672.381,1099.93 738.655,1058.51 815.441,1010.53 883.679,967.882 
  943.518,930.487 1008.76,889.715 1074.39,848.702 1146.95,803.356 1215.98,760.21 1287.77,715.349 1348.2,677.585 1421.97,631.48 1489.55,589.245 1551.97,550.238 
  1615.2,510.724 1686.06,466.441 1750.27,426.313 1823.79,380.369 1891.86,337.83 1958.96,295.89 2024.12,255.171 2090.92,213.428 2164.1,167.694 2270.4,101.258 
  2292.21,87.6286 
  "/>
<path clip-path="url(#clip330)" d="
M1991.34 250.328 L2281.45 250.328 L2281.45 94.8081 L1991.34 94.8081  Z
  " fill="#ffffff" fill-rule="evenodd" fill-opacity="1"/>
<polyline clip-path="url(#clip330)" style="stroke:#000000; stroke-linecap:butt; stroke-linejoin:round; stroke-width:4; stroke-opacity:1; fill:none" points="
  1991.34,250.328 2281.45,250.328 2281.45,94.8081 1991.34,94.8081 1991.34,250.328 
  "/>
<polyline clip-path="url(#clip330)" style="stroke:#009af9; stroke-linecap:butt; stroke-linejoin:round; stroke-width:4; stroke-opacity:1; fill:none" points="
  2015.11,146.648 2157.72,146.648 
  "/>
<circle clip-path="url(#clip330)" cx="2086.41" cy="146.648" r="23.04" fill="#009af9" fill-rule="evenodd" fill-opacity="1" stroke="#000000" stroke-opacity="1" stroke-width="5.12"/>
<path clip-path="url(#clip330)" d="M2195.33 166.336 Q2193.52 170.965 2191.81 172.377 Q2190.1 173.789 2187.22 173.789 L2183.82 173.789 L2183.82 170.224 L2186.32 170.224 Q2188.08 170.224 2189.05 169.391 Q2190.03 168.558 2191.21 165.456 L2191.97 163.511 L2181.48 138.002 L2186 138.002 L2194.1 158.28 L2202.2 138.002 L2206.72 138.002 L2195.33 166.336 Z" fill="#000000" fill-rule="evenodd" fill-opacity="1" /><path clip-path="url(#clip330)" d="M2214.01 159.993 L2221.65 159.993 L2221.65 133.627 L2213.34 135.294 L2213.34 131.035 L2221.6 129.368 L2226.28 129.368 L2226.28 159.993 L2233.91 159.993 L2233.91 163.928 L2214.01 163.928 L2214.01 159.993 Z" fill="#000000" fill-rule="evenodd" fill-opacity="1" /><polyline clip-path="url(#clip330)" style="stroke:#e26f46; stroke-linecap:butt; stroke-linejoin:round; stroke-width:4; stroke-opacity:1; fill:none" points="
  2015.11,198.488 2157.72,198.488 
  "/>
<path clip-path="url(#clip330)" d="M2205.02 216.04 Q2205.02 216.227 2204.81 216.953 Q2204.6 217.68 2204.09 218.804 Q2203.59 219.928 2202.92 220.959 Q2202.24 221.966 2201.11 222.715 Q2200.01 223.441 2198.75 223.441 Q2197.06 223.441 2195.94 222.317 Q2194.81 221.193 2194.81 219.506 Q2194.81 219.272 2194.83 219.038 Q2194.86 218.804 2194.88 218.663 Q2194.91 218.499 2194.98 218.242 Q2195.07 217.961 2195.09 217.843 Q2195.14 217.726 2195.26 217.375 Q2195.4 217 2195.44 216.86 Q2198.42 209.271 2198.42 206.109 Q2198.42 202.759 2195.82 202.759 Q2193.5 202.759 2191.2 204.446 Q2190.15 205.289 2189.14 206.788 Q2188.14 208.287 2187.95 208.849 Q2187.74 210.067 2187.43 211.004 Q2187.29 211.66 2186.61 214.213 L2185.56 218.546 L2184.65 222.177 Q2184.46 222.692 2183.94 223.067 Q2183.43 223.441 2182.87 223.441 Q2182.4 223.441 2181.93 223.114 Q2181.48 222.809 2181.48 222.083 Q2181.48 221.708 2181.67 221.029 L2188.63 193.39 L2188.77 192.454 Q2188.77 192.172 2188.65 192.032 Q2188.56 191.868 2188 191.751 Q2187.46 191.634 2186.38 191.634 Q2185.93 191.634 2185.72 191.61 Q2185.54 191.587 2185.37 191.47 Q2185.21 191.329 2185.21 191.048 Q2185.21 190.65 2185.37 190.439 Q2185.56 190.205 2185.7 190.158 Q2185.84 190.111 2186.12 190.088 Q2186.52 190.064 2187.85 189.947 Q2189.19 189.807 2190.34 189.713 Q2191.49 189.619 2191.98 189.619 Q2192.26 189.619 2192.4 189.76 Q2192.56 189.877 2192.59 190.018 L2192.61 190.135 L2188.86 205.383 Q2191.84 201.705 2195.96 201.705 Q2198.63 201.705 2200.06 203.087 Q2201.49 204.446 2201.49 206.835 Q2201.49 209.575 2198.56 217.375 Q2197.69 219.553 2197.69 220.795 Q2197.69 221.614 2197.95 221.989 Q2198.23 222.364 2198.84 222.364 Q2199.78 222.364 2200.6 221.825 Q2201.44 221.263 2202.03 220.35 Q2202.61 219.413 2203.01 218.476 Q2203.43 217.516 2203.74 216.438 Q2203.92 215.853 2204.02 215.712 Q2204.13 215.571 2204.46 215.571 Q2205.02 215.571 2205.02 216.04 Z" fill="#000000" fill-rule="evenodd" fill-opacity="1" /><path clip-path="url(#clip330)" d="M2209.9 177.782 Q2209.9 176.044 2211.46 174.683 Q2213.02 173.306 2215.61 173.306 Q2219 173.306 2220.48 174.683 Q2221.95 176.06 2221.95 177.848 Q2221.95 179.93 2220.34 181.127 Q2215.92 184.422 2215.9 188.62 L2215.9 189.8 Q2215.9 190.177 2215.89 190.325 Q2215.87 190.472 2215.77 190.587 Q2215.67 190.702 2215.48 190.702 Q2215.21 190.702 2215.13 190.554 Q2215.07 190.407 2215.07 189.898 L2215.07 188.39 Q2215.07 186.603 2215.77 184.553 Q2216.48 182.504 2218.02 180.832 Q2218.39 180.454 2218.59 180.176 Q2218.79 179.897 2218.97 179.241 Q2219.16 178.585 2219.16 177.634 Q2219.16 177.061 2219.15 176.733 Q2219.13 176.405 2218.92 175.831 Q2218.72 175.257 2218.36 174.929 Q2218.02 174.585 2217.28 174.322 Q2216.54 174.044 2215.51 174.044 Q2212.46 174.044 2211.1 176.323 Q2212.98 176.323 2212.98 177.848 Q2212.98 178.52 2212.56 178.962 Q2212.15 179.389 2211.44 179.389 Q2210.8 179.389 2210.34 178.995 Q2209.9 178.585 2209.9 177.782 M2214.21 196.473 Q2213.69 195.948 2213.69 195.211 Q2213.69 194.456 2214.21 193.948 Q2214.74 193.423 2215.48 193.423 Q2216.21 193.423 2216.72 193.948 Q2217.25 194.456 2217.25 195.211 Q2217.25 195.948 2216.72 196.473 Q2216.21 196.981 2215.48 196.981 Q2214.74 196.981 2214.21 196.473 Z" fill="#000000" fill-rule="evenodd" fill-opacity="1" /></svg>
