<?xml version="1.0" encoding="utf-8"?>
<svg xmlns="http://www.w3.org/2000/svg" xmlns:xlink="http://www.w3.org/1999/xlink" width="600" height="400" viewBox="0 0 2400 1600">
<defs>
  <clipPath id="clip370">
    <rect x="0" y="0" width="2400" height="1600"/>
  </clipPath>
</defs>
<path clip-path="url(#clip370)" d="
M0 1600 L2400 1600 L2400 0 L0 0  Z
  " fill="#ffffff" fill-rule="evenodd" fill-opacity="1"/>
<defs>
  <clipPath id="clip371">
    <rect x="480" y="0" width="1681" height="1600"/>
  </clipPath>
</defs>
<defs>
  <clipPath id="clip372">
    <rect x="213" y="47" width="2140" height="1428"/>
  </clipPath>
</defs>
<path clip-path="url(#clip370)" d="
M213.607 1474.16 L2352.76 1474.16 L2352.76 47.2441 L213.607 47.2441  Z
  " fill="#ffffff" fill-rule="evenodd" fill-opacity="1"/>
<polyline clip-path="url(#clip372)" style="stroke:#000000; stroke-linecap:butt; stroke-linejoin:round; stroke-width:2; stroke-opacity:0.1; fill:none" points="
  284.014,1474.16 284.014,47.2441 
  "/>
<polyline clip-path="url(#clip372)" style="stroke:#000000; stroke-linecap:butt; stroke-linejoin:round; stroke-width:2; stroke-opacity:0.1; fill:none" points="
  1241.71,1474.16 1241.71,47.2441 
  "/>
<polyline clip-path="url(#clip372)" style="stroke:#000000; stroke-linecap:butt; stroke-linejoin:round; stroke-width:2; stroke-opacity:0.1; fill:none" points="
  2199.4,1474.16 2199.4,47.2441 
  "/>
<polyline clip-path="url(#clip370)" style="stroke:#000000; stroke-linecap:butt; stroke-linejoin:round; stroke-width:4; stroke-opacity:1; fill:none" points="
  213.607,1474.16 2352.76,1474.16 
  "/>
<polyline clip-path="url(#clip370)" style="stroke:#000000; stroke-linecap:butt; stroke-linejoin:round; stroke-width:4; stroke-opacity:1; fill:none" points="
  284.014,1474.16 284.014,1455.27 
  "/>
<polyline clip-path="url(#clip370)" style="stroke:#000000; stroke-linecap:butt; stroke-linejoin:round; stroke-width:4; stroke-opacity:1; fill:none" points="
  1241.71,1474.16 1241.71,1455.27 
  "/>
<polyline clip-path="url(#clip370)" style="stroke:#000000; stroke-linecap:butt; stroke-linejoin:round; stroke-width:4; stroke-opacity:1; fill:none" points="
  2199.4,1474.16 2199.4,1455.27 
  "/>
<path clip-path="url(#clip370)" d="M233.894 1548.29 L241.533 1548.29 L241.533 1521.92 L233.223 1523.59 L233.223 1519.33 L241.486 1517.66 L246.162 1517.66 L246.162 1548.29 L253.801 1548.29 L253.801 1552.22 L233.894 1552.22 L233.894 1548.29 Z" fill="#000000" fill-rule="evenodd" fill-opacity="1" /><path clip-path="url(#clip370)" d="M273.245 1520.74 Q269.634 1520.74 267.806 1524.31 Q266 1527.85 266 1534.98 Q266 1542.09 267.806 1545.65 Q269.634 1549.19 273.245 1549.19 Q276.88 1549.19 278.685 1545.65 Q280.514 1542.09 280.514 1534.98 Q280.514 1527.85 278.685 1524.31 Q276.88 1520.74 273.245 1520.74 M273.245 1517.04 Q279.056 1517.04 282.111 1521.65 Q285.19 1526.23 285.19 1534.98 Q285.19 1543.71 282.111 1548.31 Q279.056 1552.9 273.245 1552.9 Q267.435 1552.9 264.357 1548.31 Q261.301 1543.71 261.301 1534.98 Q261.301 1526.23 264.357 1521.65 Q267.435 1517.04 273.245 1517.04 Z" fill="#000000" fill-rule="evenodd" fill-opacity="1" /><path clip-path="url(#clip370)" d="M285.19 1511.14 L309.301 1511.14 L309.301 1514.34 L285.19 1514.34 L285.19 1511.14 Z" fill="#000000" fill-rule="evenodd" fill-opacity="1" /><path clip-path="url(#clip370)" d="M329.012 1509.67 Q331.739 1510.26 333.262 1512.1 Q334.805 1513.94 334.805 1516.65 Q334.805 1520.81 331.946 1523.08 Q329.087 1525.36 323.821 1525.36 Q322.053 1525.36 320.172 1525 Q318.31 1524.66 316.317 1523.97 L316.317 1520.3 Q317.897 1521.22 319.777 1521.69 Q321.658 1522.16 323.708 1522.16 Q327.282 1522.16 329.144 1520.75 Q331.024 1519.34 331.024 1516.65 Q331.024 1514.17 329.275 1512.78 Q327.545 1511.37 324.442 1511.37 L321.169 1511.37 L321.169 1508.24 L324.592 1508.24 Q327.394 1508.24 328.88 1507.13 Q330.366 1506.01 330.366 1503.9 Q330.366 1501.74 328.824 1500.59 Q327.3 1499.42 324.442 1499.42 Q322.881 1499.42 321.094 1499.76 Q319.307 1500.1 317.163 1500.82 L317.163 1497.43 Q319.326 1496.83 321.207 1496.53 Q323.106 1496.23 324.78 1496.23 Q329.106 1496.23 331.626 1498.2 Q334.146 1500.16 334.146 1503.51 Q334.146 1505.84 332.811 1507.45 Q331.476 1509.05 329.012 1509.67 Z" fill="#000000" fill-rule="evenodd" fill-opacity="1" /><path clip-path="url(#clip370)" d="M1191.97 1548.29 L1199.61 1548.29 L1199.61 1521.92 L1191.3 1523.59 L1191.3 1519.33 L1199.57 1517.66 L1204.24 1517.66 L1204.24 1548.29 L1211.88 1548.29 L1211.88 1552.22 L1191.97 1552.22 L1191.97 1548.29 Z" fill="#000000" fill-rule="evenodd" fill-opacity="1" /><path clip-path="url(#clip370)" d="M1231.33 1520.74 Q1227.71 1520.74 1225.89 1524.31 Q1224.08 1527.85 1224.08 1534.98 Q1224.08 1542.09 1225.89 1545.65 Q1227.71 1549.19 1231.33 1549.19 Q1234.96 1549.19 1236.77 1545.65 Q1238.59 1542.09 1238.59 1534.98 Q1238.59 1527.85 1236.77 1524.31 Q1234.96 1520.74 1231.33 1520.74 M1231.33 1517.04 Q1237.14 1517.04 1240.19 1521.65 Q1243.27 1526.23 1243.27 1534.98 Q1243.27 1543.71 1240.19 1548.31 Q1237.14 1552.9 1231.33 1552.9 Q1225.52 1552.9 1222.44 1548.31 Q1219.38 1543.71 1219.38 1534.98 Q1219.38 1526.23 1222.44 1521.65 Q1225.52 1517.04 1231.33 1517.04 Z" fill="#000000" fill-rule="evenodd" fill-opacity="1" /><path clip-path="url(#clip370)" d="M1243.27 1511.14 L1267.38 1511.14 L1267.38 1514.34 L1243.27 1514.34 L1243.27 1511.14 Z" fill="#000000" fill-rule="evenodd" fill-opacity="1" /><path clip-path="url(#clip370)" d="M1278.85 1521.62 L1292.11 1521.62 L1292.11 1524.81 L1274.28 1524.81 L1274.28 1521.62 Q1276.45 1519.38 1280.17 1515.62 Q1283.91 1511.84 1284.87 1510.75 Q1286.7 1508.7 1287.41 1507.29 Q1288.15 1505.86 1288.15 1504.48 Q1288.15 1502.24 1286.57 1500.83 Q1285 1499.42 1282.48 1499.42 Q1280.7 1499.42 1278.7 1500.04 Q1276.73 1500.67 1274.47 1501.93 L1274.47 1498.09 Q1276.77 1497.17 1278.76 1496.7 Q1280.75 1496.23 1282.41 1496.23 Q1286.77 1496.23 1289.37 1498.41 Q1291.96 1500.59 1291.96 1504.24 Q1291.96 1505.97 1291.31 1507.53 Q1290.67 1509.07 1288.95 1511.18 Q1288.48 1511.72 1285.96 1514.34 Q1283.44 1516.93 1278.85 1521.62 Z" fill="#000000" fill-rule="evenodd" fill-opacity="1" /><path clip-path="url(#clip370)" d="M2149.52 1548.29 L2157.16 1548.29 L2157.16 1521.92 L2148.85 1523.59 L2148.85 1519.33 L2157.11 1517.66 L2161.79 1517.66 L2161.79 1548.29 L2169.43 1548.29 L2169.43 1552.22 L2149.52 1552.22 L2149.52 1548.29 Z" fill="#000000" fill-rule="evenodd" fill-opacity="1" /><path clip-path="url(#clip370)" d="M2188.87 1520.74 Q2185.26 1520.74 2183.43 1524.31 Q2181.63 1527.85 2181.63 1534.98 Q2181.63 1542.09 2183.43 1545.65 Q2185.26 1549.19 2188.87 1549.19 Q2192.5 1549.19 2194.31 1545.65 Q2196.14 1542.09 2196.14 1534.98 Q2196.14 1527.85 2194.31 1524.31 Q2192.5 1520.74 2188.87 1520.74 M2188.87 1517.04 Q2194.68 1517.04 2197.74 1521.65 Q2200.82 1526.23 2200.82 1534.98 Q2200.82 1543.71 2197.74 1548.31 Q2194.68 1552.9 2188.87 1552.9 Q2183.06 1552.9 2179.98 1548.31 Q2176.93 1543.71 2176.93 1534.98 Q2176.93 1526.23 2179.98 1521.65 Q2183.06 1517.04 2188.87 1517.04 Z" fill="#000000" fill-rule="evenodd" fill-opacity="1" /><path clip-path="url(#clip370)" d="M2200.82 1511.14 L2224.93 1511.14 L2224.93 1514.34 L2200.82 1514.34 L2200.82 1511.14 Z" fill="#000000" fill-rule="evenodd" fill-opacity="1" /><path clip-path="url(#clip370)" d="M2233.79 1521.62 L2239.99 1521.62 L2239.99 1500.19 L2233.24 1501.55 L2233.24 1498.09 L2239.95 1496.73 L2243.75 1496.73 L2243.75 1521.62 L2249.96 1521.62 L2249.96 1524.81 L2233.79 1524.81 L2233.79 1521.62 Z" fill="#000000" fill-rule="evenodd" fill-opacity="1" /><polyline clip-path="url(#clip372)" style="stroke:#000000; stroke-linecap:butt; stroke-linejoin:round; stroke-width:2; stroke-opacity:0.1; fill:none" points="
  213.607,1200.51 2352.76,1200.51 
  "/>
<polyline clip-path="url(#clip372)" style="stroke:#000000; stroke-linecap:butt; stroke-linejoin:round; stroke-width:2; stroke-opacity:0.1; fill:none" points="
  213.607,629.118 2352.76,629.118 
  "/>
<polyline clip-path="url(#clip372)" style="stroke:#000000; stroke-linecap:butt; stroke-linejoin:round; stroke-width:2; stroke-opacity:0.1; fill:none" points="
  213.607,57.7217 2352.76,57.7217 
  "/>
<polyline clip-path="url(#clip370)" style="stroke:#000000; stroke-linecap:butt; stroke-linejoin:round; stroke-width:4; stroke-opacity:1; fill:none" points="
  213.607,1474.16 213.607,47.2441 
  "/>
<polyline clip-path="url(#clip370)" style="stroke:#000000; stroke-linecap:butt; stroke-linejoin:round; stroke-width:4; stroke-opacity:1; fill:none" points="
  213.607,1200.51 232.505,1200.51 
  "/>
<polyline clip-path="url(#clip370)" style="stroke:#000000; stroke-linecap:butt; stroke-linejoin:round; stroke-width:4; stroke-opacity:1; fill:none" points="
  213.607,629.118 232.505,629.118 
  "/>
<polyline clip-path="url(#clip370)" style="stroke:#000000; stroke-linecap:butt; stroke-linejoin:round; stroke-width:4; stroke-opacity:1; fill:none" points="
  213.607,57.7217 232.505,57.7217 
  "/>
<path clip-path="url(#clip370)" d="M51.6634 1220.31 L59.3023 1220.31 L59.3023 1193.94 L50.9921 1195.61 L50.9921 1191.35 L59.256 1189.68 L63.9319 1189.68 L63.9319 1220.31 L71.5707 1220.31 L71.5707 1224.24 L51.6634 1224.24 L51.6634 1220.31 Z" fill="#000000" fill-rule="evenodd" fill-opacity="1" /><path clip-path="url(#clip370)" d="M91.0151 1192.76 Q87.404 1192.76 85.5753 1196.32 Q83.7697 1199.87 83.7697 1207 Q83.7697 1214.1 85.5753 1217.67 Q87.404 1221.21 91.0151 1221.21 Q94.6493 1221.21 96.4548 1217.67 Q98.2835 1214.1 98.2835 1207 Q98.2835 1199.87 96.4548 1196.32 Q94.6493 1192.76 91.0151 1192.76 M91.0151 1189.06 Q96.8252 1189.06 99.8808 1193.66 Q102.959 1198.25 102.959 1207 Q102.959 1215.72 99.8808 1220.33 Q96.8252 1224.91 91.0151 1224.91 Q85.2049 1224.91 82.1262 1220.33 Q79.0707 1215.72 79.0707 1207 Q79.0707 1198.25 82.1262 1193.66 Q85.2049 1189.06 91.0151 1189.06 Z" fill="#000000" fill-rule="evenodd" fill-opacity="1" /><path clip-path="url(#clip370)" d="M102.959 1183.16 L127.071 1183.16 L127.071 1186.35 L102.959 1186.35 L102.959 1183.16 Z" fill="#000000" fill-rule="evenodd" fill-opacity="1" /><path clip-path="url(#clip370)" d="M135.929 1193.63 L142.136 1193.63 L142.136 1172.21 L135.384 1173.57 L135.384 1170.1 L142.098 1168.75 L145.898 1168.75 L145.898 1193.63 L152.104 1193.63 L152.104 1196.83 L135.929 1196.83 L135.929 1193.63 Z" fill="#000000" fill-rule="evenodd" fill-opacity="1" /><path clip-path="url(#clip370)" d="M167.903 1171.25 Q164.969 1171.25 163.483 1174.15 Q162.016 1177.03 162.016 1182.82 Q162.016 1188.59 163.483 1191.49 Q164.969 1194.37 167.903 1194.37 Q170.855 1194.37 172.322 1191.49 Q173.808 1188.59 173.808 1182.82 Q173.808 1177.03 172.322 1174.15 Q170.855 1171.25 167.903 1171.25 M167.903 1168.24 Q172.623 1168.24 175.106 1171.99 Q177.607 1175.71 177.607 1182.82 Q177.607 1189.91 175.106 1193.65 Q172.623 1197.38 167.903 1197.38 Q163.182 1197.38 160.68 1193.65 Q158.198 1189.91 158.198 1182.82 Q158.198 1175.71 160.68 1171.99 Q163.182 1168.24 167.903 1168.24 Z" fill="#000000" fill-rule="evenodd" fill-opacity="1" /><path clip-path="url(#clip370)" d="M76.9787 648.91 L84.6175 648.91 L84.6175 622.544 L76.3074 624.211 L76.3074 619.952 L84.5712 618.285 L89.2471 618.285 L89.2471 648.91 L96.886 648.91 L96.886 652.845 L76.9787 652.845 L76.9787 648.91 Z" fill="#000000" fill-rule="evenodd" fill-opacity="1" /><path clip-path="url(#clip370)" d="M116.33 621.364 Q112.719 621.364 110.891 624.929 Q109.085 628.47 109.085 635.6 Q109.085 642.706 110.891 646.271 Q112.719 649.813 116.33 649.813 Q119.965 649.813 121.77 646.271 Q123.599 642.706 123.599 635.6 Q123.599 628.47 121.77 624.929 Q119.965 621.364 116.33 621.364 M116.33 617.66 Q122.14 617.66 125.196 622.267 Q128.275 626.85 128.275 635.6 Q128.275 644.327 125.196 648.933 Q122.14 653.516 116.33 653.516 Q110.52 653.516 107.441 648.933 Q104.386 644.327 104.386 635.6 Q104.386 626.85 107.441 622.267 Q110.52 617.66 116.33 617.66 Z" fill="#000000" fill-rule="evenodd" fill-opacity="1" /><path clip-path="url(#clip370)" d="M128.275 611.762 L152.386 611.762 L152.386 614.959 L128.275 614.959 L128.275 611.762 Z" fill="#000000" fill-rule="evenodd" fill-opacity="1" /><path clip-path="url(#clip370)" d="M160.624 597.355 L175.539 597.355 L175.539 600.552 L164.103 600.552 L164.103 607.436 Q164.931 607.154 165.759 607.022 Q166.586 606.872 167.414 606.872 Q172.116 606.872 174.862 609.448 Q177.607 612.025 177.607 616.426 Q177.607 620.959 174.786 623.479 Q171.965 625.98 166.831 625.98 Q165.063 625.98 163.22 625.679 Q161.395 625.378 159.439 624.777 L159.439 620.959 Q161.132 621.88 162.937 622.332 Q164.743 622.783 166.755 622.783 Q170.009 622.783 171.909 621.071 Q173.808 619.36 173.808 616.426 Q173.808 613.492 171.909 611.78 Q170.009 610.069 166.755 610.069 Q165.232 610.069 163.709 610.407 Q162.204 610.746 160.624 611.461 L160.624 597.355 Z" fill="#000000" fill-rule="evenodd" fill-opacity="1" /><path clip-path="url(#clip370)" d="M106.902 77.5141 L114.541 77.5141 L114.541 51.1485 L106.231 52.8152 L106.231 48.556 L114.494 46.8893 L119.17 46.8893 L119.17 77.5141 L126.809 77.5141 L126.809 81.4493 L106.902 81.4493 L106.902 77.5141 Z" fill="#000000" fill-rule="evenodd" fill-opacity="1" /><path clip-path="url(#clip370)" d="M146.253 49.968 Q142.642 49.968 140.814 53.5328 Q139.008 57.0744 139.008 64.204 Q139.008 71.3105 140.814 74.8753 Q142.642 78.4169 146.253 78.4169 Q149.888 78.4169 151.693 74.8753 Q153.522 71.3105 153.522 64.204 Q153.522 57.0744 151.693 53.5328 Q149.888 49.968 146.253 49.968 M146.253 46.2643 Q152.064 46.2643 155.119 50.8708 Q158.198 55.4541 158.198 64.204 Q158.198 72.9308 155.119 77.5373 Q152.064 82.1206 146.253 82.1206 Q140.443 82.1206 137.365 77.5373 Q134.309 72.9308 134.309 64.204 Q134.309 55.4541 137.365 50.8708 Q140.443 46.2643 146.253 46.2643 Z" fill="#000000" fill-rule="evenodd" fill-opacity="1" /><path clip-path="url(#clip370)" d="M167.903 28.4603 Q164.969 28.4603 163.483 31.3567 Q162.016 34.2343 162.016 40.0271 Q162.016 45.8011 163.483 48.6975 Q164.969 51.5751 167.903 51.5751 Q170.855 51.5751 172.322 48.6975 Q173.808 45.8011 173.808 40.0271 Q173.808 34.2343 172.322 31.3567 Q170.855 28.4603 167.903 28.4603 M167.903 25.4511 Q172.623 25.4511 175.106 29.1938 Q177.607 32.9178 177.607 40.0271 Q177.607 47.1176 175.106 50.8604 Q172.623 54.5843 167.903 54.5843 Q163.182 54.5843 160.68 50.8604 Q158.198 47.1176 158.198 40.0271 Q158.198 32.9178 160.68 29.1938 Q163.182 25.4511 167.903 25.4511 Z" fill="#000000" fill-rule="evenodd" fill-opacity="1" /><polyline clip-path="url(#clip372)" style="stroke:#009af9; stroke-linecap:butt; stroke-linejoin:round; stroke-width:12; stroke-opacity:1; fill:none" points="
  2292.21,87.6286 2003.92,374.695 1715.62,482.875 1427.33,614.248 1139.03,752.025 850.739,890.197 562.444,1028.2 274.149,1155.27 
  "/>
<circle clip-path="url(#clip372)" cx="2292.21" cy="87.6286" r="14.4" fill="#009af9" fill-rule="evenodd" fill-opacity="1" stroke="#000000" stroke-opacity="1" stroke-width="3.2"/>
<circle clip-path="url(#clip372)" cx="2003.92" cy="374.695" r="14.4" fill="#009af9" fill-rule="evenodd" fill-opacity="1" stroke="#000000" stroke-opacity="1" stroke-width="3.2"/>
<circle clip-path="url(#clip372)" cx="1715.62" cy="482.875" r="14.4" fill="#009af9" fill-rule="evenodd" fill-opacity="1" stroke="#000000" stroke-opacity="1" stroke-width="3.2"/>
<circle clip-path="url(#clip372)" cx="1427.33" cy="614.248" r="14.4" fill="#009af9" fill-rule="evenodd" fill-opacity="1" stroke="#000000" stroke-opacity="1" stroke-width="3.2"/>
<circle clip-path="url(#clip372)" cx="1139.03" cy="752.025" r="14.4" fill="#009af9" fill-rule="evenodd" fill-opacity="1" stroke="#000000" stroke-opacity="1" stroke-width="3.2"/>
<circle clip-path="url(#clip372)" cx="850.739" cy="890.197" r="14.4" fill="#009af9" fill-rule="evenodd" fill-opacity="1" stroke="#000000" stroke-opacity="1" stroke-width="3.2"/>
<circle clip-path="url(#clip372)" cx="562.444" cy="1028.2" r="14.4" fill="#009af9" fill-rule="evenodd" fill-opacity="1" stroke="#000000" stroke-opacity="1" stroke-width="3.2"/>
<circle clip-path="url(#clip372)" cx="274.149" cy="1155.27" r="14.4" fill="#009af9" fill-rule="evenodd" fill-opacity="1" stroke="#000000" stroke-opacity="1" stroke-width="3.2"/>
<polyline clip-path="url(#clip372)" style="stroke:#e26f46; stroke-linecap:butt; stroke-linejoin:round; stroke-width:12; stroke-opacity:1; fill:none" points="
  274.149,1433.78 287.288,1427.51 408.774,1369.52 481.783,1334.67 543.51,1305.21 610.563,1273.21 672.381,1243.7 738.655,1212.07 815.441,1175.42 883.679,1142.85 
  943.518,1114.28 1008.76,1083.14 1074.39,1051.82 1146.95,1017.19 1215.98,984.233 1287.77,949.97 1348.2,921.127 1421.97,885.914 1489.55,853.656 1551.97,823.864 
  1615.2,793.685 1686.06,759.863 1750.27,729.214 1823.79,694.124 1891.86,661.634 1958.96,629.602 2024.12,598.502 2090.92,566.621 2164.1,531.691 2270.4,480.949 
  2292.21,470.539 
  "/>
<path clip-path="url(#clip370)" d="
M1991.34 250.328 L2281.45 250.328 L2281.45 94.8081 L1991.34 94.8081  Z
  " fill="#ffffff" fill-rule="evenodd" fill-opacity="1"/>
<polyline clip-path="url(#clip370)" style="stroke:#000000; stroke-linecap:butt; stroke-linejoin:round; stroke-width:4; stroke-opacity:1; fill:none" points="
  1991.34,250.328 2281.45,250.328 2281.45,94.8081 1991.34,94.8081 1991.34,250.328 
  "/>
<polyline clip-path="url(#clip370)" style="stroke:#009af9; stroke-linecap:butt; stroke-linejoin:round; stroke-width:4; stroke-opacity:1; fill:none" points="
  2015.11,146.648 2157.72,146.648 
  "/>
<circle clip-path="url(#clip370)" cx="2086.41" cy="146.648" r="23.04" fill="#009af9" fill-rule="evenodd" fill-opacity="1" stroke="#000000" stroke-opacity="1" stroke-width="5.12"/>
<path clip-path="url(#clip370)" d="M2195.33 166.336 Q2193.52 170.965 2191.81 172.377 Q2190.1 173.789 2187.22 173.789 L2183.82 173.789 L2183.82 170.224 L2186.32 170.224 Q2188.08 170.224 2189.05 169.391 Q2190.03 168.558 2191.21 165.456 L2191.97 163.511 L2181.48 138.002 L2186 138.002 L2194.1 158.28 L2202.2 138.002 L2206.72 138.002 L2195.33 166.336 Z" fill="#000000" fill-rule="evenodd" fill-opacity="1" /><path clip-path="url(#clip370)" d="M2214.01 159.993 L2221.65 159.993 L2221.65 133.627 L2213.34 135.294 L2213.34 131.035 L2221.6 129.368 L2226.28 129.368 L2226.28 159.993 L2233.91 159.993 L2233.91 163.928 L2214.01 163.928 L2214.01 159.993 Z" fill="#000000" fill-rule="evenodd" fill-opacity="1" /><polyline clip-path="url(#clip370)" style="stroke:#e26f46; stroke-linecap:butt; stroke-linejoin:round; stroke-width:4; stroke-opacity:1; fill:none" points="
  2015.11,198.488 2157.72,198.488 
  "/>
<path clip-path="url(#clip370)" d="M2205.02 215.588 Q2205.02 215.776 2204.81 216.502 Q2204.6 217.228 2204.09 218.352 Q2203.59 219.476 2202.92 220.507 Q2202.24 221.514 2201.11 222.264 Q2200.01 222.99 2198.75 222.99 Q2197.06 222.99 2195.94 221.865 Q2194.81 220.741 2194.81 219.055 Q2194.81 218.821 2194.83 218.586 Q2194.86 218.352 2194.88 218.212 Q2194.91 218.048 2194.98 217.79 Q2195.07 217.509 2195.09 217.392 Q2195.14 217.275 2195.26 216.923 Q2195.4 216.549 2195.44 216.408 Q2198.42 208.819 2198.42 205.657 Q2198.42 202.308 2195.82 202.308 Q2193.5 202.308 2191.2 203.994 Q2190.15 204.837 2189.14 206.336 Q2188.14 207.835 2187.95 208.398 Q2187.74 209.616 2187.43 210.552 Q2187.29 211.208 2186.61 213.761 L2185.56 218.094 L2184.65 221.725 Q2184.46 222.24 2183.94 222.615 Q2183.43 222.99 2182.87 222.99 Q2182.4 222.99 2181.93 222.662 Q2181.48 222.357 2181.48 221.631 Q2181.48 221.256 2181.67 220.577 L2188.63 192.939 L2188.77 192.002 Q2188.77 191.721 2188.65 191.58 Q2188.56 191.416 2188 191.299 Q2187.46 191.182 2186.38 191.182 Q2185.93 191.182 2185.72 191.159 Q2185.54 191.135 2185.37 191.018 Q2185.21 190.878 2185.21 190.596 Q2185.21 190.198 2185.37 189.987 Q2185.56 189.753 2185.7 189.706 Q2185.84 189.66 2186.12 189.636 Q2186.52 189.613 2187.85 189.496 Q2189.19 189.355 2190.34 189.261 Q2191.49 189.168 2191.98 189.168 Q2192.26 189.168 2192.4 189.308 Q2192.56 189.425 2192.59 189.566 L2192.61 189.683 L2188.86 204.931 Q2191.84 201.254 2195.96 201.254 Q2198.63 201.254 2200.06 202.636 Q2201.49 203.994 2201.49 206.383 Q2201.49 209.124 2198.56 216.923 Q2197.69 219.102 2197.69 220.343 Q2197.69 221.163 2197.95 221.538 Q2198.23 221.912 2198.84 221.912 Q2199.78 221.912 2200.6 221.374 Q2201.44 220.811 2202.03 219.898 Q2202.61 218.961 2203.01 218.024 Q2203.43 217.064 2203.74 215.986 Q2203.92 215.401 2204.02 215.26 Q2204.13 215.12 2204.46 215.12 Q2205.02 215.12 2205.02 215.588 Z" fill="#000000" fill-rule="evenodd" fill-opacity="1" /><path clip-path="url(#clip370)" d="M2209.9 196.142 Q2209.9 195.536 2209.95 195.355 Q2210.02 195.175 2210.28 194.896 L2216.72 187.715 Q2220.25 183.747 2220.25 180.288 Q2220.25 178.042 2219.07 176.435 Q2217.9 174.828 2215.75 174.828 Q2214.28 174.828 2213.03 175.73 Q2211.79 176.632 2211.21 178.238 Q2211.31 178.206 2211.66 178.206 Q2212.49 178.206 2212.95 178.73 Q2213.43 179.255 2213.43 179.96 Q2213.43 180.862 2212.84 181.304 Q2212.26 181.731 2211.69 181.731 Q2211.46 181.731 2211.15 181.681 Q2210.85 181.632 2210.38 181.173 Q2209.9 180.698 2209.9 179.861 Q2209.9 177.517 2211.67 175.648 Q2213.46 173.779 2216.18 173.779 Q2219.26 173.779 2221.28 175.615 Q2223.31 177.435 2223.31 180.288 Q2223.31 181.288 2223 182.206 Q2222.71 183.108 2222.3 183.813 Q2221.9 184.518 2220.82 185.649 Q2219.74 186.78 2218.87 187.584 Q2218 188.387 2216.05 190.092 L2212.49 193.552 L2218.54 193.552 Q2221.49 193.552 2221.72 193.29 Q2222.05 192.814 2222.46 190.306 L2223.31 190.306 L2222.36 196.142 L2209.9 196.142 Z" fill="#000000" fill-rule="evenodd" fill-opacity="1" /></svg>
