<?xml version="1.0" encoding="utf-8"?>
<svg xmlns="http://www.w3.org/2000/svg" xmlns:xlink="http://www.w3.org/1999/xlink" width="600" height="400" viewBox="0 0 2400 1600">
<defs>
  <clipPath id="clip820">
    <rect x="0" y="0" width="2400" height="1600"/>
  </clipPath>
</defs>
<path clip-path="url(#clip820)" d="
M0 1600 L2400 1600 L2400 0 L0 0  Z
  " fill="#ffffff" fill-rule="evenodd" fill-opacity="1"/>
<defs>
  <clipPath id="clip821">
    <rect x="480" y="0" width="1681" height="1600"/>
  </clipPath>
</defs>
<path clip-path="url(#clip820)" d="
M149.191 1486.45 L2352.76 1486.45 L2352.76 47.2441 L149.191 47.2441  Z
  " fill="#ffffff" fill-rule="evenodd" fill-opacity="1"/>
<defs>
  <clipPath id="clip822">
    <rect x="149" y="47" width="2205" height="1440"/>
  </clipPath>
</defs>
<polyline clip-path="url(#clip822)" style="stroke:#000000; stroke-linecap:butt; stroke-linejoin:round; stroke-width:2; stroke-opacity:0.1; fill:none" points="
  385.287,1486.45 385.287,47.2441 
  "/>
<polyline clip-path="url(#clip822)" style="stroke:#000000; stroke-linecap:butt; stroke-linejoin:round; stroke-width:2; stroke-opacity:0.1; fill:none" points="
  778.781,1486.45 778.781,47.2441 
  "/>
<polyline clip-path="url(#clip822)" style="stroke:#000000; stroke-linecap:butt; stroke-linejoin:round; stroke-width:2; stroke-opacity:0.1; fill:none" points="
  1172.27,1486.45 1172.27,47.2441 
  "/>
<polyline clip-path="url(#clip822)" style="stroke:#000000; stroke-linecap:butt; stroke-linejoin:round; stroke-width:2; stroke-opacity:0.1; fill:none" points="
  1565.77,1486.45 1565.77,47.2441 
  "/>
<polyline clip-path="url(#clip822)" style="stroke:#000000; stroke-linecap:butt; stroke-linejoin:round; stroke-width:2; stroke-opacity:0.1; fill:none" points="
  1959.26,1486.45 1959.26,47.2441 
  "/>
<polyline clip-path="url(#clip822)" style="stroke:#000000; stroke-linecap:butt; stroke-linejoin:round; stroke-width:2; stroke-opacity:0.1; fill:none" points="
  2352.76,1486.45 2352.76,47.2441 
  "/>
<polyline clip-path="url(#clip820)" style="stroke:#000000; stroke-linecap:butt; stroke-linejoin:round; stroke-width:4; stroke-opacity:1; fill:none" points="
  149.191,1486.45 2352.76,1486.45 
  "/>
<polyline clip-path="url(#clip820)" style="stroke:#000000; stroke-linecap:butt; stroke-linejoin:round; stroke-width:4; stroke-opacity:1; fill:none" points="
  385.287,1486.45 385.287,1467.55 
  "/>
<polyline clip-path="url(#clip820)" style="stroke:#000000; stroke-linecap:butt; stroke-linejoin:round; stroke-width:4; stroke-opacity:1; fill:none" points="
  778.781,1486.45 778.781,1467.55 
  "/>
<polyline clip-path="url(#clip820)" style="stroke:#000000; stroke-linecap:butt; stroke-linejoin:round; stroke-width:4; stroke-opacity:1; fill:none" points="
  1172.27,1486.45 1172.27,1467.55 
  "/>
<polyline clip-path="url(#clip820)" style="stroke:#000000; stroke-linecap:butt; stroke-linejoin:round; stroke-width:4; stroke-opacity:1; fill:none" points="
  1565.77,1486.45 1565.77,1467.55 
  "/>
<polyline clip-path="url(#clip820)" style="stroke:#000000; stroke-linecap:butt; stroke-linejoin:round; stroke-width:4; stroke-opacity:1; fill:none" points="
  1959.26,1486.45 1959.26,1467.55 
  "/>
<polyline clip-path="url(#clip820)" style="stroke:#000000; stroke-linecap:butt; stroke-linejoin:round; stroke-width:4; stroke-opacity:1; fill:none" points="
  2352.76,1486.45 2352.76,1467.55 
  "/>
<path clip-path="url(#clip820)" d="M332.313 1532.02 L361.989 1532.02 L361.989 1535.95 L332.313 1535.95 L332.313 1532.02 Z" fill="#000000" fill-rule="evenodd" fill-opacity="1" /><path clip-path="url(#clip820)" d="M382.081 1517.37 Q378.47 1517.37 376.641 1520.93 Q374.836 1524.47 374.836 1531.6 Q374.836 1538.71 376.641 1542.27 Q378.47 1545.82 382.081 1545.82 Q385.715 1545.82 387.521 1542.27 Q389.35 1538.71 389.35 1531.6 Q389.35 1524.47 387.521 1520.93 Q385.715 1517.37 382.081 1517.37 M382.081 1513.66 Q387.891 1513.66 390.947 1518.27 Q394.026 1522.85 394.026 1531.6 Q394.026 1540.33 390.947 1544.94 Q387.891 1549.52 382.081 1549.52 Q376.271 1549.52 373.192 1544.94 Q370.137 1540.33 370.137 1531.6 Q370.137 1522.85 373.192 1518.27 Q376.271 1513.66 382.081 1513.66 Z" fill="#000000" fill-rule="evenodd" fill-opacity="1" /><path clip-path="url(#clip820)" d="M402.243 1542.97 L407.127 1542.97 L407.127 1548.85 L402.243 1548.85 L402.243 1542.97 Z" fill="#000000" fill-rule="evenodd" fill-opacity="1" /><path clip-path="url(#clip820)" d="M417.359 1514.29 L435.715 1514.29 L435.715 1518.22 L421.641 1518.22 L421.641 1526.7 Q422.66 1526.35 423.678 1526.19 Q424.697 1526 425.715 1526 Q431.502 1526 434.882 1529.17 Q438.261 1532.34 438.261 1537.76 Q438.261 1543.34 434.789 1546.44 Q431.317 1549.52 424.998 1549.52 Q422.822 1549.52 420.553 1549.15 Q418.308 1548.78 415.9 1548.04 L415.9 1543.34 Q417.984 1544.47 420.206 1545.03 Q422.428 1545.58 424.905 1545.58 Q428.91 1545.58 431.248 1543.48 Q433.585 1541.37 433.585 1537.76 Q433.585 1534.15 431.248 1532.04 Q428.91 1529.94 424.905 1529.94 Q423.03 1529.94 421.155 1530.35 Q419.303 1530.77 417.359 1531.65 L417.359 1514.29 Z" fill="#000000" fill-rule="evenodd" fill-opacity="1" /><path clip-path="url(#clip820)" d="M756.165 1517.37 Q752.554 1517.37 750.725 1520.93 Q748.92 1524.47 748.92 1531.6 Q748.92 1538.71 750.725 1542.27 Q752.554 1545.82 756.165 1545.82 Q759.799 1545.82 761.605 1542.27 Q763.434 1538.71 763.434 1531.6 Q763.434 1524.47 761.605 1520.93 Q759.799 1517.37 756.165 1517.37 M756.165 1513.66 Q761.975 1513.66 765.031 1518.27 Q768.11 1522.85 768.11 1531.6 Q768.11 1540.33 765.031 1544.94 Q761.975 1549.52 756.165 1549.52 Q750.355 1549.52 747.276 1544.94 Q744.221 1540.33 744.221 1531.6 Q744.221 1522.85 747.276 1518.27 Q750.355 1513.66 756.165 1513.66 Z" fill="#000000" fill-rule="evenodd" fill-opacity="1" /><path clip-path="url(#clip820)" d="M776.327 1542.97 L781.211 1542.97 L781.211 1548.85 L776.327 1548.85 L776.327 1542.97 Z" fill="#000000" fill-rule="evenodd" fill-opacity="1" /><path clip-path="url(#clip820)" d="M801.396 1517.37 Q797.785 1517.37 795.957 1520.93 Q794.151 1524.47 794.151 1531.6 Q794.151 1538.71 795.957 1542.27 Q797.785 1545.82 801.396 1545.82 Q805.031 1545.82 806.836 1542.27 Q808.665 1538.71 808.665 1531.6 Q808.665 1524.47 806.836 1520.93 Q805.031 1517.37 801.396 1517.37 M801.396 1513.66 Q807.207 1513.66 810.262 1518.27 Q813.341 1522.85 813.341 1531.6 Q813.341 1540.33 810.262 1544.94 Q807.207 1549.52 801.396 1549.52 Q795.586 1549.52 792.508 1544.94 Q789.452 1540.33 789.452 1531.6 Q789.452 1522.85 792.508 1518.27 Q795.586 1513.66 801.396 1513.66 Z" fill="#000000" fill-rule="evenodd" fill-opacity="1" /><path clip-path="url(#clip820)" d="M1150.16 1517.37 Q1146.55 1517.37 1144.72 1520.93 Q1142.91 1524.47 1142.91 1531.6 Q1142.91 1538.71 1144.72 1542.27 Q1146.55 1545.82 1150.16 1545.82 Q1153.79 1545.82 1155.6 1542.27 Q1157.43 1538.71 1157.43 1531.6 Q1157.43 1524.47 1155.6 1520.93 Q1153.79 1517.37 1150.16 1517.37 M1150.16 1513.66 Q1155.97 1513.66 1159.02 1518.27 Q1162.1 1522.85 1162.1 1531.6 Q1162.1 1540.33 1159.02 1544.94 Q1155.97 1549.52 1150.16 1549.52 Q1144.35 1549.52 1141.27 1544.94 Q1138.21 1540.33 1138.21 1531.6 Q1138.21 1522.85 1141.27 1518.27 Q1144.35 1513.66 1150.16 1513.66 Z" fill="#000000" fill-rule="evenodd" fill-opacity="1" /><path clip-path="url(#clip820)" d="M1170.32 1542.97 L1175.2 1542.97 L1175.2 1548.85 L1170.32 1548.85 L1170.32 1542.97 Z" fill="#000000" fill-rule="evenodd" fill-opacity="1" /><path clip-path="url(#clip820)" d="M1185.43 1514.29 L1203.79 1514.29 L1203.79 1518.22 L1189.72 1518.22 L1189.72 1526.7 Q1190.74 1526.35 1191.75 1526.19 Q1192.77 1526 1193.79 1526 Q1199.58 1526 1202.96 1529.17 Q1206.34 1532.34 1206.34 1537.76 Q1206.34 1543.34 1202.86 1546.44 Q1199.39 1549.52 1193.07 1549.52 Q1190.9 1549.52 1188.63 1549.15 Q1186.38 1548.78 1183.98 1548.04 L1183.98 1543.34 Q1186.06 1544.47 1188.28 1545.03 Q1190.5 1545.58 1192.98 1545.58 Q1196.99 1545.58 1199.32 1543.48 Q1201.66 1541.37 1201.66 1537.76 Q1201.66 1534.15 1199.32 1532.04 Q1196.99 1529.94 1192.98 1529.94 Q1191.11 1529.94 1189.23 1530.35 Q1187.38 1530.77 1185.43 1531.65 L1185.43 1514.29 Z" fill="#000000" fill-rule="evenodd" fill-opacity="1" /><path clip-path="url(#clip820)" d="M1532.92 1544.91 L1540.56 1544.91 L1540.56 1518.55 L1532.25 1520.21 L1532.25 1515.95 L1540.51 1514.29 L1545.19 1514.29 L1545.19 1544.91 L1552.83 1544.91 L1552.83 1548.85 L1532.92 1548.85 L1532.92 1544.91 Z" fill="#000000" fill-rule="evenodd" fill-opacity="1" /><path clip-path="url(#clip820)" d="M1562.27 1542.97 L1567.16 1542.97 L1567.16 1548.85 L1562.27 1548.85 L1562.27 1542.97 Z" fill="#000000" fill-rule="evenodd" fill-opacity="1" /><path clip-path="url(#clip820)" d="M1587.34 1517.37 Q1583.73 1517.37 1581.9 1520.93 Q1580.1 1524.47 1580.1 1531.6 Q1580.1 1538.71 1581.9 1542.27 Q1583.73 1545.82 1587.34 1545.82 Q1590.98 1545.82 1592.78 1542.27 Q1594.61 1538.71 1594.61 1531.6 Q1594.61 1524.47 1592.78 1520.93 Q1590.98 1517.37 1587.34 1517.37 M1587.34 1513.66 Q1593.15 1513.66 1596.21 1518.27 Q1599.29 1522.85 1599.29 1531.6 Q1599.29 1540.33 1596.21 1544.94 Q1593.15 1549.52 1587.34 1549.52 Q1581.53 1549.52 1578.45 1544.94 Q1575.4 1540.33 1575.4 1531.6 Q1575.4 1522.85 1578.45 1518.27 Q1581.53 1513.66 1587.34 1513.66 Z" fill="#000000" fill-rule="evenodd" fill-opacity="1" /><path clip-path="url(#clip820)" d="M1926.91 1544.91 L1934.55 1544.91 L1934.55 1518.55 L1926.24 1520.21 L1926.24 1515.95 L1934.51 1514.29 L1939.18 1514.29 L1939.18 1544.91 L1946.82 1544.91 L1946.82 1548.85 L1926.91 1548.85 L1926.91 1544.91 Z" fill="#000000" fill-rule="evenodd" fill-opacity="1" /><path clip-path="url(#clip820)" d="M1956.26 1542.97 L1961.15 1542.97 L1961.15 1548.85 L1956.26 1548.85 L1956.26 1542.97 Z" fill="#000000" fill-rule="evenodd" fill-opacity="1" /><path clip-path="url(#clip820)" d="M1971.38 1514.29 L1989.74 1514.29 L1989.74 1518.22 L1975.66 1518.22 L1975.66 1526.7 Q1976.68 1526.35 1977.7 1526.19 Q1978.72 1526 1979.74 1526 Q1985.52 1526 1988.9 1529.17 Q1992.28 1532.34 1992.28 1537.76 Q1992.28 1543.34 1988.81 1546.44 Q1985.34 1549.52 1979.02 1549.52 Q1976.84 1549.52 1974.57 1549.15 Q1972.33 1548.78 1969.92 1548.04 L1969.92 1543.34 Q1972.01 1544.47 1974.23 1545.03 Q1976.45 1545.58 1978.93 1545.58 Q1982.93 1545.58 1985.27 1543.48 Q1987.61 1541.37 1987.61 1537.76 Q1987.61 1534.15 1985.27 1532.04 Q1982.93 1529.94 1978.93 1529.94 Q1977.05 1529.94 1975.18 1530.35 Q1973.32 1530.77 1971.38 1531.65 L1971.38 1514.29 Z" fill="#000000" fill-rule="evenodd" fill-opacity="1" /><path clip-path="url(#clip820)" d="M2323.99 1544.91 L2340.31 1544.91 L2340.31 1548.85 L2318.37 1548.85 L2318.37 1544.91 Q2321.03 1542.16 2325.61 1537.53 Q2330.22 1532.88 2331.4 1531.53 Q2333.65 1529.01 2334.53 1527.27 Q2335.43 1525.51 2335.43 1523.82 Q2335.43 1521.07 2333.49 1519.33 Q2331.56 1517.6 2328.46 1517.6 Q2326.26 1517.6 2323.81 1518.36 Q2321.38 1519.13 2318.6 1520.68 L2318.6 1515.95 Q2321.43 1514.82 2323.88 1514.24 Q2326.33 1513.66 2328.37 1513.66 Q2333.74 1513.66 2336.93 1516.35 Q2340.13 1519.03 2340.13 1523.52 Q2340.13 1525.65 2339.32 1527.57 Q2338.53 1529.47 2336.42 1532.07 Q2335.85 1532.74 2332.74 1535.95 Q2329.64 1539.15 2323.99 1544.91 Z" fill="#000000" fill-rule="evenodd" fill-opacity="1" /><path clip-path="url(#clip820)" d="M2350.13 1542.97 L2355.01 1542.97 L2355.01 1548.85 L2350.13 1548.85 L2350.13 1542.97 Z" fill="#000000" fill-rule="evenodd" fill-opacity="1" /><path clip-path="url(#clip820)" d="M2375.2 1517.37 Q2371.59 1517.37 2369.76 1520.93 Q2367.95 1524.47 2367.95 1531.6 Q2367.95 1538.71 2369.76 1542.27 Q2371.59 1545.82 2375.2 1545.82 Q2378.83 1545.82 2380.64 1542.27 Q2382.47 1538.71 2382.47 1531.6 Q2382.47 1524.47 2380.64 1520.93 Q2378.83 1517.37 2375.2 1517.37 M2375.2 1513.66 Q2381.01 1513.66 2384.06 1518.27 Q2387.14 1522.85 2387.14 1531.6 Q2387.14 1540.33 2384.06 1544.94 Q2381.01 1549.52 2375.2 1549.52 Q2369.39 1549.52 2366.31 1544.94 Q2363.25 1540.33 2363.25 1531.6 Q2363.25 1522.85 2366.31 1518.27 Q2369.39 1513.66 2375.2 1513.66 Z" fill="#000000" fill-rule="evenodd" fill-opacity="1" /><polyline clip-path="url(#clip822)" style="stroke:#000000; stroke-linecap:butt; stroke-linejoin:round; stroke-width:2; stroke-opacity:0.1; fill:none" points="
  149.191,1309.94 2352.76,1309.94 
  "/>
<polyline clip-path="url(#clip822)" style="stroke:#000000; stroke-linecap:butt; stroke-linejoin:round; stroke-width:2; stroke-opacity:0.1; fill:none" points="
  149.191,1038.39 2352.76,1038.39 
  "/>
<polyline clip-path="url(#clip822)" style="stroke:#000000; stroke-linecap:butt; stroke-linejoin:round; stroke-width:2; stroke-opacity:0.1; fill:none" points="
  149.191,766.846 2352.76,766.846 
  "/>
<polyline clip-path="url(#clip822)" style="stroke:#000000; stroke-linecap:butt; stroke-linejoin:round; stroke-width:2; stroke-opacity:0.1; fill:none" points="
  149.191,495.298 2352.76,495.298 
  "/>
<polyline clip-path="url(#clip822)" style="stroke:#000000; stroke-linecap:butt; stroke-linejoin:round; stroke-width:2; stroke-opacity:0.1; fill:none" points="
  149.191,223.75 2352.76,223.75 
  "/>
<polyline clip-path="url(#clip820)" style="stroke:#000000; stroke-linecap:butt; stroke-linejoin:round; stroke-width:4; stroke-opacity:1; fill:none" points="
  149.191,1486.45 149.191,47.2441 
  "/>
<polyline clip-path="url(#clip820)" style="stroke:#000000; stroke-linecap:butt; stroke-linejoin:round; stroke-width:4; stroke-opacity:1; fill:none" points="
  149.191,1309.94 168.089,1309.94 
  "/>
<polyline clip-path="url(#clip820)" style="stroke:#000000; stroke-linecap:butt; stroke-linejoin:round; stroke-width:4; stroke-opacity:1; fill:none" points="
  149.191,1038.39 168.089,1038.39 
  "/>
<polyline clip-path="url(#clip820)" style="stroke:#000000; stroke-linecap:butt; stroke-linejoin:round; stroke-width:4; stroke-opacity:1; fill:none" points="
  149.191,766.846 168.089,766.846 
  "/>
<polyline clip-path="url(#clip820)" style="stroke:#000000; stroke-linecap:butt; stroke-linejoin:round; stroke-width:4; stroke-opacity:1; fill:none" points="
  149.191,495.298 168.089,495.298 
  "/>
<polyline clip-path="url(#clip820)" style="stroke:#000000; stroke-linecap:butt; stroke-linejoin:round; stroke-width:4; stroke-opacity:1; fill:none" points="
  149.191,223.75 168.089,223.75 
  "/>
<path clip-path="url(#clip820)" d="M50.9921 1310.39 L80.6679 1310.39 L80.6679 1314.33 L50.9921 1314.33 L50.9921 1310.39 Z" fill="#000000" fill-rule="evenodd" fill-opacity="1" /><path clip-path="url(#clip820)" d="M103.608 1296.74 L91.8021 1315.18 L103.608 1315.18 L103.608 1296.74 M102.381 1292.66 L108.26 1292.66 L108.26 1315.18 L113.191 1315.18 L113.191 1319.07 L108.26 1319.07 L108.26 1327.22 L103.608 1327.22 L103.608 1319.07 L88.0058 1319.07 L88.0058 1314.56 L102.381 1292.66 Z" fill="#000000" fill-rule="evenodd" fill-opacity="1" /><path clip-path="url(#clip820)" d="M53.0754 1038.85 L82.7512 1038.85 L82.7512 1042.78 L53.0754 1042.78 L53.0754 1038.85 Z" fill="#000000" fill-rule="evenodd" fill-opacity="1" /><path clip-path="url(#clip820)" d="M96.8715 1051.74 L113.191 1051.74 L113.191 1055.67 L91.2465 1055.67 L91.2465 1051.74 Q93.9086 1048.98 98.4919 1044.35 Q103.098 1039.7 104.279 1038.36 Q106.524 1035.84 107.404 1034.1 Q108.307 1032.34 108.307 1030.65 Q108.307 1027.9 106.362 1026.16 Q104.441 1024.42 101.339 1024.42 Q99.14 1024.42 96.6863 1025.19 Q94.2558 1025.95 91.478 1027.5 L91.478 1022.78 Q94.3021 1021.65 96.7558 1021.07 Q99.2095 1020.49 101.246 1020.49 Q106.617 1020.49 109.811 1023.17 Q113.006 1025.86 113.006 1030.35 Q113.006 1032.48 112.196 1034.4 Q111.408 1036.3 109.302 1038.89 Q108.723 1039.56 105.621 1042.78 Q102.52 1045.97 96.8715 1051.74 Z" fill="#000000" fill-rule="evenodd" fill-opacity="1" /><path clip-path="url(#clip820)" d="M101.246 752.645 Q97.6354 752.645 95.8067 756.209 Q94.0012 759.751 94.0012 766.881 Q94.0012 773.987 95.8067 777.552 Q97.6354 781.094 101.246 781.094 Q104.881 781.094 106.686 777.552 Q108.515 773.987 108.515 766.881 Q108.515 759.751 106.686 756.209 Q104.881 752.645 101.246 752.645 M101.246 748.941 Q107.057 748.941 110.112 753.547 Q113.191 758.131 113.191 766.881 Q113.191 775.608 110.112 780.214 Q107.057 784.797 101.246 784.797 Q95.4363 784.797 92.3576 780.214 Q89.3021 775.608 89.3021 766.881 Q89.3021 758.131 92.3576 753.547 Q95.4363 748.941 101.246 748.941 Z" fill="#000000" fill-rule="evenodd" fill-opacity="1" /><path clip-path="url(#clip820)" d="M96.8715 508.643 L113.191 508.643 L113.191 512.578 L91.2465 512.578 L91.2465 508.643 Q93.9086 505.888 98.4919 501.259 Q103.098 496.606 104.279 495.263 Q106.524 492.74 107.404 491.004 Q108.307 489.245 108.307 487.555 Q108.307 484.8 106.362 483.064 Q104.441 481.328 101.339 481.328 Q99.14 481.328 96.6863 482.092 Q94.2558 482.856 91.478 484.407 L91.478 479.685 Q94.3021 478.551 96.7558 477.972 Q99.2095 477.393 101.246 477.393 Q106.617 477.393 109.811 480.078 Q113.006 482.763 113.006 487.254 Q113.006 489.384 112.196 491.305 Q111.408 493.203 109.302 495.796 Q108.723 496.467 105.621 499.685 Q102.52 502.879 96.8715 508.643 Z" fill="#000000" fill-rule="evenodd" fill-opacity="1" /><path clip-path="url(#clip820)" d="M103.608 210.544 L91.8021 228.993 L103.608 228.993 L103.608 210.544 M102.381 206.47 L108.26 206.47 L108.26 228.993 L113.191 228.993 L113.191 232.882 L108.26 232.882 L108.26 241.03 L103.608 241.03 L103.608 232.882 L88.0058 232.882 L88.0058 228.368 L102.381 206.47 Z" fill="#000000" fill-rule="evenodd" fill-opacity="1" /><polyline clip-path="url(#clip822)" style="stroke:#000000; stroke-linecap:butt; stroke-linejoin:round; stroke-width:12; stroke-opacity:1; fill:none" points="
  -3156.16,1445.72 -3104.92,1436.88 -2631.16,1355.14 -2346.45,1306.02 -2105.73,1264.49 -1844.24,1219.38 -1603.17,1177.79 -1344.72,1133.2 -1045.27,1081.54 -779.165,1035.63 
  -545.812,995.37 -291.394,951.476 -35.4638,907.322 247.5,858.505 516.732,812.056 796.671,763.759 1032.32,723.104 1320.02,673.469 1583.57,628 1826.99,586.006 
  2073.55,543.467 2349.89,495.793 2600.29,452.593 2886.98,403.131 3152.44,357.334 3414.14,312.184 3668.24,268.347 3928.71,223.408 4214.1,174.172 4628.67,102.649 
  4713.72,87.9763 
  "/>
<polyline clip-path="url(#clip822)" style="stroke:#e26f46; stroke-linecap:butt; stroke-linejoin:round; stroke-width:12; stroke-opacity:1; fill:none" points="
  149.191,985.366 152.777,982.307 156.364,979.315 159.951,976.388 163.537,973.522 180.119,961.008 196.701,949.551 213.282,938.986 229.864,929.183 246.446,920.042 
  263.027,911.477 279.609,903.42 296.191,895.815 316.12,887.204 336.05,879.107 355.98,871.466 375.91,864.232 392.76,858.403 409.61,852.814 426.461,847.446 
  443.311,842.282 479.92,831.697 516.528,821.878 550.278,813.414 584.028,805.448 620.211,797.396 656.394,789.795 698.316,781.49 740.238,773.664 777.493,767.068 
  814.748,760.778 847.418,755.493 880.087,750.405 951.324,739.931 1022.98,730.152 1102.21,720.101 1177.6,711.183 1255.98,702.493 1321.96,695.585 1402.52,687.602 
  1476.32,680.679 1544.47,674.584 1613.51,668.678 1690.88,662.35 1761,656.859 1841.27,650.835 1915.6,645.485 1988.87,640.409 2060.02,635.656 2132.95,630.951 
  2212.86,625.976 2328.94,619.06 2352.76,617.683 
  "/>
<polyline clip-path="url(#clip822)" style="stroke:#3da44d; stroke-linecap:butt; stroke-linejoin:round; stroke-width:12; stroke-opacity:1; fill:none" points="
  149.191,985.366 152.777,982.307 156.364,979.315 159.951,976.388 163.537,973.522 180.119,961.008 196.701,949.551 213.282,938.986 229.864,929.183 246.446,920.042 
  263.027,911.477 279.609,903.42 296.191,895.815 316.12,887.204 336.05,879.107 355.98,871.466 375.91,864.232 392.76,858.403 409.61,852.814 426.461,847.446 
  443.311,842.282 479.92,831.697 516.528,821.878 550.278,813.414 584.028,805.448 620.211,797.396 656.394,789.795 698.316,781.49 740.238,773.664 777.493,767.068 
  814.748,760.778 847.418,755.493 880.087,750.405 951.324,739.931 1022.98,730.152 1102.21,720.101 1177.6,711.183 1255.98,702.493 1321.96,695.585 1402.52,687.602 
  1476.32,680.679 1544.47,674.584 1613.51,668.678 1690.88,662.35 1761,656.859 1841.27,650.835 1915.6,645.485 1988.87,640.409 2060.02,635.656 2132.95,630.951 
  2212.86,625.976 2328.94,619.06 2352.76,617.683 
  "/>
<path clip-path="url(#clip820)" d="
M1981.45 302.578 L2279.3 302.578 L2279.3 95.2176 L1981.45 95.2176  Z
  " fill="#ffffff" fill-rule="evenodd" fill-opacity="1"/>
<polyline clip-path="url(#clip820)" style="stroke:#000000; stroke-linecap:butt; stroke-linejoin:round; stroke-width:4; stroke-opacity:1; fill:none" points="
  1981.45,302.578 2279.3,302.578 2279.3,95.2176 1981.45,95.2176 1981.45,302.578 
  "/>
<polyline clip-path="url(#clip820)" style="stroke:#000000; stroke-linecap:butt; stroke-linejoin:round; stroke-width:4; stroke-opacity:1; fill:none" points="
  2005.94,147.058 2152.84,147.058 
  "/>
<path clip-path="url(#clip820)" d="M2191.17 166.745 Q2189.36 171.375 2187.65 172.787 Q2185.94 174.199 2183.07 174.199 L2179.66 174.199 L2179.66 170.634 L2182.16 170.634 Q2183.92 170.634 2184.9 169.8 Q2185.87 168.967 2187.05 165.865 L2187.81 163.921 L2177.33 138.412 L2181.84 138.412 L2189.94 158.689 L2198.04 138.412 L2202.56 138.412 L2191.17 166.745 Z" fill="#000000" fill-rule="evenodd" fill-opacity="1" /><path clip-path="url(#clip820)" d="M2209.85 160.402 L2217.49 160.402 L2217.49 134.037 L2209.18 135.703 L2209.18 131.444 L2217.44 129.778 L2222.12 129.778 L2222.12 160.402 L2229.76 160.402 L2229.76 164.338 L2209.85 164.338 L2209.85 160.402 Z" fill="#000000" fill-rule="evenodd" fill-opacity="1" /><polyline clip-path="url(#clip820)" style="stroke:#e26f46; stroke-linecap:butt; stroke-linejoin:round; stroke-width:4; stroke-opacity:1; fill:none" points="
  2005.94,198.898 2152.84,198.898 
  "/>
<path clip-path="url(#clip820)" d="M2191.17 218.585 Q2189.36 223.215 2187.65 224.627 Q2185.94 226.039 2183.07 226.039 L2179.66 226.039 L2179.66 222.474 L2182.16 222.474 Q2183.92 222.474 2184.9 221.64 Q2185.87 220.807 2187.05 217.705 L2187.81 215.761 L2177.33 190.252 L2181.84 190.252 L2189.94 210.529 L2198.04 190.252 L2202.56 190.252 L2191.17 218.585 Z" fill="#000000" fill-rule="evenodd" fill-opacity="1" /><path clip-path="url(#clip820)" d="M2213.07 212.242 L2229.39 212.242 L2229.39 216.178 L2207.44 216.178 L2207.44 212.242 Q2210.1 209.488 2214.69 204.858 Q2219.29 200.205 2220.47 198.863 Q2222.72 196.34 2223.6 194.604 Q2224.5 192.844 2224.5 191.155 Q2224.5 188.4 2222.56 186.664 Q2220.64 184.928 2217.53 184.928 Q2215.34 184.928 2212.88 185.692 Q2210.45 186.455 2207.67 188.006 L2207.67 183.284 Q2210.5 182.15 2212.95 181.571 Q2215.41 180.993 2217.44 180.993 Q2222.81 180.993 2226.01 183.678 Q2229.2 186.363 2229.2 190.854 Q2229.2 192.983 2228.39 194.905 Q2227.6 196.803 2225.5 199.395 Q2224.92 200.067 2221.82 203.284 Q2218.72 206.479 2213.07 212.242 Z" fill="#000000" fill-rule="evenodd" fill-opacity="1" /><polyline clip-path="url(#clip820)" style="stroke:#3da44d; stroke-linecap:butt; stroke-linejoin:round; stroke-width:4; stroke-opacity:1; fill:none" points="
  2005.94,250.738 2152.84,250.738 
  "/>
<path clip-path="url(#clip820)" d="M2191.17 270.425 Q2189.36 275.055 2187.65 276.467 Q2185.94 277.879 2183.07 277.879 L2179.66 277.879 L2179.66 274.314 L2182.16 274.314 Q2183.92 274.314 2184.9 273.48 Q2185.87 272.647 2187.05 269.545 L2187.81 267.601 L2177.33 242.092 L2181.84 242.092 L2189.94 262.369 L2198.04 242.092 L2202.56 242.092 L2191.17 270.425 Z" fill="#000000" fill-rule="evenodd" fill-opacity="1" /><path clip-path="url(#clip820)" d="M2223.21 249.383 Q2226.56 250.101 2228.44 252.369 Q2230.34 254.638 2230.34 257.971 Q2230.34 263.087 2226.82 265.888 Q2223.3 268.689 2216.82 268.689 Q2214.64 268.689 2212.33 268.249 Q2210.03 267.832 2207.58 266.976 L2207.58 262.462 Q2209.53 263.596 2211.84 264.175 Q2214.16 264.754 2216.68 264.754 Q2221.08 264.754 2223.37 263.018 Q2225.68 261.281 2225.68 257.971 Q2225.68 254.916 2223.53 253.203 Q2221.4 251.467 2217.58 251.467 L2213.55 251.467 L2213.55 247.624 L2217.77 247.624 Q2221.22 247.624 2223.04 246.258 Q2224.87 244.87 2224.87 242.277 Q2224.87 239.615 2222.97 238.203 Q2221.1 236.768 2217.58 236.768 Q2215.66 236.768 2213.46 237.184 Q2211.26 237.601 2208.62 238.481 L2208.62 234.314 Q2211.28 233.573 2213.6 233.203 Q2215.94 232.833 2218 232.833 Q2223.32 232.833 2226.42 235.263 Q2229.53 237.67 2229.53 241.791 Q2229.53 244.661 2227.88 246.652 Q2226.24 248.62 2223.21 249.383 Z" fill="#000000" fill-rule="evenodd" fill-opacity="1" /></svg>
