<?xml version="1.0" encoding="utf-8"?>
<svg xmlns="http://www.w3.org/2000/svg" xmlns:xlink="http://www.w3.org/1999/xlink" width="600" height="400" viewBox="0 0 2400 1600">
<defs>
  <clipPath id="clip040">
    <rect x="0" y="0" width="2400" height="1600"/>
  </clipPath>
</defs>
<path clip-path="url(#clip040)" d="
M0 1600 L2400 1600 L2400 0 L0 0  Z
  " fill="#ffffff" fill-rule="evenodd" fill-opacity="1"/>
<defs>
  <clipPath id="clip041">
    <rect x="480" y="0" width="1681" height="1600"/>
  </clipPath>
</defs>
<path clip-path="url(#clip040)" d="
M213.607 1486.45 L2352.76 1486.45 L2352.76 47.2441 L213.607 47.2441  Z
  " fill="#ffffff" fill-rule="evenodd" fill-opacity="1"/>
<defs>
  <clipPath id="clip042">
    <rect x="213" y="47" width="2140" height="1440"/>
  </clipPath>
</defs>
<polyline clip-path="url(#clip042)" style="stroke:#000000; stroke-linecap:butt; stroke-linejoin:round; stroke-width:2; stroke-opacity:0.1; fill:none" points="
  263.584,1486.45 263.584,47.2441 
  "/>
<polyline clip-path="url(#clip042)" style="stroke:#000000; stroke-linecap:butt; stroke-linejoin:round; stroke-width:2; stroke-opacity:0.1; fill:none" points="
  791.873,1486.45 791.873,47.2441 
  "/>
<polyline clip-path="url(#clip042)" style="stroke:#000000; stroke-linecap:butt; stroke-linejoin:round; stroke-width:2; stroke-opacity:0.1; fill:none" points="
  1320.16,1486.45 1320.16,47.2441 
  "/>
<polyline clip-path="url(#clip042)" style="stroke:#000000; stroke-linecap:butt; stroke-linejoin:round; stroke-width:2; stroke-opacity:0.1; fill:none" points="
  1848.45,1486.45 1848.45,47.2441 
  "/>
<polyline clip-path="url(#clip040)" style="stroke:#000000; stroke-linecap:butt; stroke-linejoin:round; stroke-width:4; stroke-opacity:1; fill:none" points="
  213.607,1486.45 2352.76,1486.45 
  "/>
<polyline clip-path="url(#clip040)" style="stroke:#000000; stroke-linecap:butt; stroke-linejoin:round; stroke-width:4; stroke-opacity:1; fill:none" points="
  263.584,1486.45 263.584,1467.55 
  "/>
<polyline clip-path="url(#clip040)" style="stroke:#000000; stroke-linecap:butt; stroke-linejoin:round; stroke-width:4; stroke-opacity:1; fill:none" points="
  791.873,1486.45 791.873,1467.55 
  "/>
<polyline clip-path="url(#clip040)" style="stroke:#000000; stroke-linecap:butt; stroke-linejoin:round; stroke-width:4; stroke-opacity:1; fill:none" points="
  1320.16,1486.45 1320.16,1467.55 
  "/>
<polyline clip-path="url(#clip040)" style="stroke:#000000; stroke-linecap:butt; stroke-linejoin:round; stroke-width:4; stroke-opacity:1; fill:none" points="
  1848.45,1486.45 1848.45,1467.55 
  "/>
<path clip-path="url(#clip040)" d="M263.584 1517.37 Q259.973 1517.37 258.144 1520.93 Q256.338 1524.47 256.338 1531.6 Q256.338 1538.71 258.144 1542.27 Q259.973 1545.82 263.584 1545.82 Q267.218 1545.82 269.023 1542.27 Q270.852 1538.71 270.852 1531.6 Q270.852 1524.47 269.023 1520.93 Q267.218 1517.37 263.584 1517.37 M263.584 1513.66 Q269.394 1513.66 272.449 1518.27 Q275.528 1522.85 275.528 1531.6 Q275.528 1540.33 272.449 1544.94 Q269.394 1549.52 263.584 1549.52 Q257.773 1549.52 254.695 1544.94 Q251.639 1540.33 251.639 1531.6 Q251.639 1522.85 254.695 1518.27 Q257.773 1513.66 263.584 1513.66 Z" fill="#000000" fill-rule="evenodd" fill-opacity="1" /><path clip-path="url(#clip040)" d="M766.572 1514.29 L784.928 1514.29 L784.928 1518.22 L770.854 1518.22 L770.854 1526.7 Q771.873 1526.35 772.891 1526.19 Q773.91 1526 774.928 1526 Q780.715 1526 784.095 1529.17 Q787.475 1532.34 787.475 1537.76 Q787.475 1543.34 784.002 1546.44 Q780.53 1549.52 774.211 1549.52 Q772.035 1549.52 769.766 1549.15 Q767.521 1548.78 765.114 1548.04 L765.114 1543.34 Q767.197 1544.47 769.419 1545.03 Q771.641 1545.58 774.118 1545.58 Q778.123 1545.58 780.461 1543.48 Q782.799 1541.37 782.799 1537.76 Q782.799 1534.15 780.461 1532.04 Q778.123 1529.94 774.118 1529.94 Q772.243 1529.94 770.368 1530.35 Q768.516 1530.77 766.572 1531.65 L766.572 1514.29 Z" fill="#000000" fill-rule="evenodd" fill-opacity="1" /><path clip-path="url(#clip040)" d="M806.688 1517.37 Q803.076 1517.37 801.248 1520.93 Q799.442 1524.47 799.442 1531.6 Q799.442 1538.71 801.248 1542.27 Q803.076 1545.82 806.688 1545.82 Q810.322 1545.82 812.127 1542.27 Q813.956 1538.71 813.956 1531.6 Q813.956 1524.47 812.127 1520.93 Q810.322 1517.37 806.688 1517.37 M806.688 1513.66 Q812.498 1513.66 815.553 1518.27 Q818.632 1522.85 818.632 1531.6 Q818.632 1540.33 815.553 1544.94 Q812.498 1549.52 806.688 1549.52 Q800.877 1549.52 797.799 1544.94 Q794.743 1540.33 794.743 1531.6 Q794.743 1522.85 797.799 1518.27 Q800.877 1513.66 806.688 1513.66 Z" fill="#000000" fill-rule="evenodd" fill-opacity="1" /><path clip-path="url(#clip040)" d="M1279.77 1544.91 L1287.41 1544.91 L1287.41 1518.55 L1279.1 1520.21 L1279.1 1515.95 L1287.36 1514.29 L1292.04 1514.29 L1292.04 1544.91 L1299.68 1544.91 L1299.68 1548.85 L1279.77 1548.85 L1279.77 1544.91 Z" fill="#000000" fill-rule="evenodd" fill-opacity="1" /><path clip-path="url(#clip040)" d="M1319.12 1517.37 Q1315.51 1517.37 1313.68 1520.93 Q1311.87 1524.47 1311.87 1531.6 Q1311.87 1538.71 1313.68 1542.27 Q1315.51 1545.82 1319.12 1545.82 Q1322.75 1545.82 1324.56 1542.27 Q1326.39 1538.71 1326.39 1531.6 Q1326.39 1524.47 1324.56 1520.93 Q1322.75 1517.37 1319.12 1517.37 M1319.12 1513.66 Q1324.93 1513.66 1327.99 1518.27 Q1331.06 1522.85 1331.06 1531.6 Q1331.06 1540.33 1327.99 1544.94 Q1324.93 1549.52 1319.12 1549.52 Q1313.31 1549.52 1310.23 1544.94 Q1307.18 1540.33 1307.18 1531.6 Q1307.18 1522.85 1310.23 1518.27 Q1313.31 1513.66 1319.12 1513.66 Z" fill="#000000" fill-rule="evenodd" fill-opacity="1" /><path clip-path="url(#clip040)" d="M1349.28 1517.37 Q1345.67 1517.37 1343.84 1520.93 Q1342.04 1524.47 1342.04 1531.6 Q1342.04 1538.71 1343.84 1542.27 Q1345.67 1545.82 1349.28 1545.82 Q1352.92 1545.82 1354.72 1542.27 Q1356.55 1538.71 1356.55 1531.6 Q1356.55 1524.47 1354.72 1520.93 Q1352.92 1517.37 1349.28 1517.37 M1349.28 1513.66 Q1355.09 1513.66 1358.15 1518.27 Q1361.23 1522.85 1361.23 1531.6 Q1361.23 1540.33 1358.15 1544.94 Q1355.09 1549.52 1349.28 1549.52 Q1343.47 1549.52 1340.39 1544.94 Q1337.34 1540.33 1337.34 1531.6 Q1337.34 1522.85 1340.39 1518.27 Q1343.47 1513.66 1349.28 1513.66 Z" fill="#000000" fill-rule="evenodd" fill-opacity="1" /><path clip-path="url(#clip040)" d="M1808.06 1544.91 L1815.7 1544.91 L1815.7 1518.55 L1807.39 1520.21 L1807.39 1515.95 L1815.65 1514.29 L1820.33 1514.29 L1820.33 1544.91 L1827.97 1544.91 L1827.97 1548.85 L1808.06 1548.85 L1808.06 1544.91 Z" fill="#000000" fill-rule="evenodd" fill-opacity="1" /><path clip-path="url(#clip040)" d="M1837.46 1514.29 L1855.81 1514.29 L1855.81 1518.22 L1841.74 1518.22 L1841.74 1526.7 Q1842.76 1526.35 1843.78 1526.19 Q1844.79 1526 1845.81 1526 Q1851.6 1526 1854.98 1529.17 Q1858.36 1532.34 1858.36 1537.76 Q1858.36 1543.34 1854.89 1546.44 Q1851.41 1549.52 1845.09 1549.52 Q1842.92 1549.52 1840.65 1549.15 Q1838.4 1548.78 1836 1548.04 L1836 1543.34 Q1838.08 1544.47 1840.3 1545.03 Q1842.53 1545.58 1845 1545.58 Q1849.01 1545.58 1851.34 1543.48 Q1853.68 1541.37 1853.68 1537.76 Q1853.68 1534.15 1851.34 1532.04 Q1849.01 1529.94 1845 1529.94 Q1843.13 1529.94 1841.25 1530.35 Q1839.4 1530.77 1837.46 1531.65 L1837.46 1514.29 Z" fill="#000000" fill-rule="evenodd" fill-opacity="1" /><path clip-path="url(#clip040)" d="M1877.57 1517.37 Q1873.96 1517.37 1872.13 1520.93 Q1870.33 1524.47 1870.33 1531.6 Q1870.33 1538.71 1872.13 1542.27 Q1873.96 1545.82 1877.57 1545.82 Q1881.21 1545.82 1883.01 1542.27 Q1884.84 1538.71 1884.84 1531.6 Q1884.84 1524.47 1883.01 1520.93 Q1881.21 1517.37 1877.57 1517.37 M1877.57 1513.66 Q1883.38 1513.66 1886.44 1518.27 Q1889.52 1522.85 1889.52 1531.6 Q1889.52 1540.33 1886.44 1544.94 Q1883.38 1549.52 1877.57 1549.52 Q1871.76 1549.52 1868.68 1544.94 Q1865.63 1540.33 1865.63 1531.6 Q1865.63 1522.85 1868.68 1518.27 Q1871.76 1513.66 1877.57 1513.66 Z" fill="#000000" fill-rule="evenodd" fill-opacity="1" /><polyline clip-path="url(#clip042)" style="stroke:#000000; stroke-linecap:butt; stroke-linejoin:round; stroke-width:2; stroke-opacity:0.1; fill:none" points="
  213.607,1405.5 2352.76,1405.5 
  "/>
<polyline clip-path="url(#clip042)" style="stroke:#000000; stroke-linecap:butt; stroke-linejoin:round; stroke-width:2; stroke-opacity:0.1; fill:none" points="
  213.607,813.409 2352.76,813.409 
  "/>
<polyline clip-path="url(#clip042)" style="stroke:#000000; stroke-linecap:butt; stroke-linejoin:round; stroke-width:2; stroke-opacity:0.1; fill:none" points="
  213.607,221.313 2352.76,221.313 
  "/>
<polyline clip-path="url(#clip040)" style="stroke:#000000; stroke-linecap:butt; stroke-linejoin:round; stroke-width:4; stroke-opacity:1; fill:none" points="
  213.607,1486.45 213.607,47.2441 
  "/>
<polyline clip-path="url(#clip040)" style="stroke:#000000; stroke-linecap:butt; stroke-linejoin:round; stroke-width:4; stroke-opacity:1; fill:none" points="
  213.607,1405.5 232.505,1405.5 
  "/>
<polyline clip-path="url(#clip040)" style="stroke:#000000; stroke-linecap:butt; stroke-linejoin:round; stroke-width:4; stroke-opacity:1; fill:none" points="
  213.607,813.409 232.505,813.409 
  "/>
<polyline clip-path="url(#clip040)" style="stroke:#000000; stroke-linecap:butt; stroke-linejoin:round; stroke-width:4; stroke-opacity:1; fill:none" points="
  213.607,221.313 232.505,221.313 
  "/>
<path clip-path="url(#clip040)" d="M51.6634 1425.3 L59.3023 1425.3 L59.3023 1398.93 L50.9921 1400.6 L50.9921 1396.34 L59.256 1394.67 L63.9319 1394.67 L63.9319 1425.3 L71.5707 1425.3 L71.5707 1429.23 L51.6634 1429.23 L51.6634 1425.3 Z" fill="#000000" fill-rule="evenodd" fill-opacity="1" /><path clip-path="url(#clip040)" d="M91.0151 1397.75 Q87.404 1397.75 85.5753 1401.32 Q83.7697 1404.86 83.7697 1411.99 Q83.7697 1419.09 85.5753 1422.66 Q87.404 1426.2 91.0151 1426.2 Q94.6493 1426.2 96.4548 1422.66 Q98.2835 1419.09 98.2835 1411.99 Q98.2835 1404.86 96.4548 1401.32 Q94.6493 1397.75 91.0151 1397.75 M91.0151 1394.05 Q96.8252 1394.05 99.8808 1398.65 Q102.959 1403.24 102.959 1411.99 Q102.959 1420.71 99.8808 1425.32 Q96.8252 1429.9 91.0151 1429.9 Q85.2049 1429.9 82.1262 1425.32 Q79.0707 1420.71 79.0707 1411.99 Q79.0707 1403.24 82.1262 1398.65 Q85.2049 1394.05 91.0151 1394.05 Z" fill="#000000" fill-rule="evenodd" fill-opacity="1" /><path clip-path="url(#clip040)" d="M102.959 1388.15 L127.071 1388.15 L127.071 1391.35 L102.959 1391.35 L102.959 1388.15 Z" fill="#000000" fill-rule="evenodd" fill-opacity="1" /><path clip-path="url(#clip040)" d="M135.929 1398.62 L142.136 1398.62 L142.136 1377.2 L135.384 1378.56 L135.384 1375.1 L142.098 1373.74 L145.898 1373.74 L145.898 1398.62 L152.104 1398.62 L152.104 1401.82 L135.929 1401.82 L135.929 1398.62 Z" fill="#000000" fill-rule="evenodd" fill-opacity="1" /><path clip-path="url(#clip040)" d="M167.903 1376.24 Q164.969 1376.24 163.483 1379.14 Q162.016 1382.02 162.016 1387.81 Q162.016 1393.58 163.483 1396.48 Q164.969 1399.36 167.903 1399.36 Q170.855 1399.36 172.322 1396.48 Q173.808 1393.58 173.808 1387.81 Q173.808 1382.02 172.322 1379.14 Q170.855 1376.24 167.903 1376.24 M167.903 1373.23 Q172.623 1373.23 175.106 1376.98 Q177.607 1380.7 177.607 1387.81 Q177.607 1394.9 175.106 1398.64 Q172.623 1402.37 167.903 1402.37 Q163.182 1402.37 160.68 1398.64 Q158.198 1394.9 158.198 1387.81 Q158.198 1380.7 160.68 1376.98 Q163.182 1373.23 167.903 1373.23 Z" fill="#000000" fill-rule="evenodd" fill-opacity="1" /><path clip-path="url(#clip040)" d="M76.9787 833.201 L84.6175 833.201 L84.6175 806.835 L76.3074 808.502 L76.3074 804.243 L84.5712 802.576 L89.2471 802.576 L89.2471 833.201 L96.886 833.201 L96.886 837.136 L76.9787 837.136 L76.9787 833.201 Z" fill="#000000" fill-rule="evenodd" fill-opacity="1" /><path clip-path="url(#clip040)" d="M116.33 805.655 Q112.719 805.655 110.891 809.22 Q109.085 812.761 109.085 819.891 Q109.085 826.997 110.891 830.562 Q112.719 834.104 116.33 834.104 Q119.965 834.104 121.77 830.562 Q123.599 826.997 123.599 819.891 Q123.599 812.761 121.77 809.22 Q119.965 805.655 116.33 805.655 M116.33 801.951 Q122.14 801.951 125.196 806.558 Q128.275 811.141 128.275 819.891 Q128.275 828.618 125.196 833.224 Q122.14 837.807 116.33 837.807 Q110.52 837.807 107.441 833.224 Q104.386 828.618 104.386 819.891 Q104.386 811.141 107.441 806.558 Q110.52 801.951 116.33 801.951 Z" fill="#000000" fill-rule="evenodd" fill-opacity="1" /><path clip-path="url(#clip040)" d="M128.275 796.053 L152.386 796.053 L152.386 799.25 L128.275 799.25 L128.275 796.053 Z" fill="#000000" fill-rule="evenodd" fill-opacity="1" /><path clip-path="url(#clip040)" d="M160.624 781.646 L175.539 781.646 L175.539 784.843 L164.103 784.843 L164.103 791.727 Q164.931 791.445 165.759 791.313 Q166.586 791.162 167.414 791.162 Q172.116 791.162 174.862 793.739 Q177.607 796.316 177.607 800.717 Q177.607 805.25 174.786 807.77 Q171.965 810.271 166.831 810.271 Q165.063 810.271 163.22 809.97 Q161.395 809.669 159.439 809.067 L159.439 805.25 Q161.132 806.171 162.937 806.622 Q164.743 807.074 166.755 807.074 Q170.009 807.074 171.909 805.362 Q173.808 803.651 173.808 800.717 Q173.808 797.783 171.909 796.071 Q170.009 794.36 166.755 794.36 Q165.232 794.36 163.709 794.698 Q162.204 795.037 160.624 795.752 L160.624 781.646 Z" fill="#000000" fill-rule="evenodd" fill-opacity="1" /><path clip-path="url(#clip040)" d="M106.902 241.105 L114.541 241.105 L114.541 214.739 L106.231 216.406 L106.231 212.147 L114.494 210.48 L119.17 210.48 L119.17 241.105 L126.809 241.105 L126.809 245.04 L106.902 245.04 L106.902 241.105 Z" fill="#000000" fill-rule="evenodd" fill-opacity="1" /><path clip-path="url(#clip040)" d="M146.253 213.559 Q142.642 213.559 140.814 217.124 Q139.008 220.665 139.008 227.795 Q139.008 234.901 140.814 238.466 Q142.642 242.008 146.253 242.008 Q149.888 242.008 151.693 238.466 Q153.522 234.901 153.522 227.795 Q153.522 220.665 151.693 217.124 Q149.888 213.559 146.253 213.559 M146.253 209.855 Q152.064 209.855 155.119 214.462 Q158.198 219.045 158.198 227.795 Q158.198 236.522 155.119 241.128 Q152.064 245.712 146.253 245.712 Q140.443 245.712 137.365 241.128 Q134.309 236.522 134.309 227.795 Q134.309 219.045 137.365 214.462 Q140.443 209.855 146.253 209.855 Z" fill="#000000" fill-rule="evenodd" fill-opacity="1" /><path clip-path="url(#clip040)" d="M167.903 192.051 Q164.969 192.051 163.483 194.948 Q162.016 197.825 162.016 203.618 Q162.016 209.392 163.483 212.288 Q164.969 215.166 167.903 215.166 Q170.855 215.166 172.322 212.288 Q173.808 209.392 173.808 203.618 Q173.808 197.825 172.322 194.948 Q170.855 192.051 167.903 192.051 M167.903 189.042 Q172.623 189.042 175.106 192.785 Q177.607 196.509 177.607 203.618 Q177.607 210.709 175.106 214.451 Q172.623 218.175 167.903 218.175 Q163.182 218.175 160.68 214.451 Q158.198 210.709 158.198 203.618 Q158.198 196.509 160.68 192.785 Q163.182 189.042 167.903 189.042 Z" fill="#000000" fill-rule="evenodd" fill-opacity="1" /><polyline clip-path="url(#clip042)" style="stroke:#009af9; stroke-linecap:butt; stroke-linejoin:round; stroke-width:12; stroke-opacity:1; fill:none" points="
  274.149,87.9763 284.715,110.134 295.281,132.099 305.847,153.807 316.413,175.174 326.978,196.093 337.544,216.437 348.11,236.058 358.676,254.794 369.241,272.486 
  379.807,288.992 390.373,304.214 400.939,318.111 411.505,330.708 422.07,342.094 432.636,352.402 443.202,361.789 453.768,370.417 464.334,378.439 474.899,385.987 
  485.465,393.172 496.031,400.083 506.597,406.788 517.162,413.342 527.728,419.783 538.294,426.142 548.86,432.441 559.426,438.696 569.991,444.919 580.557,451.119 
  591.123,457.303 601.689,463.473 612.254,469.635 622.82,475.791 633.386,481.942 643.952,488.089 654.518,494.234 665.083,500.377 675.649,506.519 686.215,512.66 
  696.781,518.8 707.347,524.94 717.912,531.08 728.478,537.219 739.044,543.358 749.61,549.497 760.175,555.635 770.741,561.774 781.307,567.913 791.873,574.051 
  802.439,580.19 813.004,586.328 823.57,592.467 834.136,598.605 844.702,604.744 855.267,610.882 865.833,617.021 876.399,623.159 886.965,629.298 897.531,635.436 
  908.096,641.575 918.662,647.713 929.228,653.852 939.794,659.99 950.36,666.129 960.925,672.267 971.491,678.406 982.057,684.544 992.623,690.683 1003.19,696.821 
  1013.75,702.96 1024.32,709.098 1034.89,715.237 1045.45,721.375 1056.02,727.514 1066.58,733.652 1077.15,739.79 1087.71,745.929 1098.28,752.067 1108.85,758.206 
  1119.41,764.344 1129.98,770.483 1140.54,776.621 1151.11,782.76 1161.68,788.898 1172.24,795.037 1182.81,801.175 1193.37,807.314 1203.94,813.452 1214.5,819.591 
  1225.07,825.729 1235.64,831.868 1246.2,838.006 1256.77,844.145 1267.33,850.283 1277.9,856.422 1288.46,862.56 1299.03,868.699 1309.6,874.837 1320.16,880.976 
  1330.73,887.114 1341.29,893.252 1351.86,899.391 1362.43,905.529 1372.99,911.668 1383.56,917.806 1394.12,923.945 1404.69,930.083 1415.25,936.222 1425.82,942.36 
  1436.39,948.499 1446.95,954.637 1457.52,960.776 1468.08,966.914 1478.65,973.053 1489.21,979.191 1499.78,985.33 1510.35,991.468 1520.91,997.607 1531.48,1003.75 
  1542.04,1009.88 1552.61,1016.02 1563.17,1022.16 1573.74,1028.3 1584.31,1034.44 1594.87,1040.58 1605.44,1046.71 1616,1052.85 1626.57,1058.99 1637.14,1065.13 
  1647.7,1071.27 1658.27,1077.41 1668.83,1083.55 1679.4,1089.68 1689.96,1095.82 1700.53,1101.96 1711.1,1108.1 1721.66,1114.24 1732.23,1120.38 1742.79,1126.51 
  1753.36,1132.65 1763.92,1138.79 1774.49,1144.93 1785.06,1151.07 1795.62,1157.21 1806.19,1163.35 1816.75,1169.48 1827.32,1175.62 1837.89,1181.76 1848.45,1187.9 
  1859.02,1194.04 1869.58,1200.18 1880.15,1206.31 1890.71,1212.45 1901.28,1218.59 1911.85,1224.73 1922.41,1230.87 1932.98,1237.01 1943.54,1243.15 1954.11,1249.28 
  1964.67,1255.42 1975.24,1261.56 1985.81,1267.7 1996.37,1273.84 2006.94,1279.98 2017.5,1286.12 2028.07,1292.25 2038.64,1298.39 2049.2,1304.53 2059.77,1310.67 
  2070.33,1316.81 2080.9,1322.95 2091.46,1329.08 2102.03,1335.22 2112.6,1341.36 2123.16,1347.5 2133.73,1353.64 2144.29,1359.78 2154.86,1365.92 2165.42,1372.05 
  2175.99,1378.19 2186.56,1384.33 2197.12,1390.47 2207.69,1396.61 2218.25,1402.75 2228.82,1408.88 2239.39,1415.02 2249.95,1421.16 2260.52,1427.3 2271.08,1433.44 
  2281.65,1439.58 2292.21,1445.72 
  "/>
<path clip-path="url(#clip040)" d="
M1991.34 198.898 L2281.45 198.898 L2281.45 95.2176 L1991.34 95.2176  Z
  " fill="#ffffff" fill-rule="evenodd" fill-opacity="1"/>
<polyline clip-path="url(#clip040)" style="stroke:#000000; stroke-linecap:butt; stroke-linejoin:round; stroke-width:4; stroke-opacity:1; fill:none" points="
  1991.34,198.898 2281.45,198.898 2281.45,95.2176 1991.34,95.2176 1991.34,198.898 
  "/>
<polyline clip-path="url(#clip040)" style="stroke:#009af9; stroke-linecap:butt; stroke-linejoin:round; stroke-width:4; stroke-opacity:1; fill:none" points="
  2015.11,147.058 2157.72,147.058 
  "/>
<path clip-path="url(#clip040)" d="M2195.33 166.745 Q2193.52 171.375 2191.81 172.787 Q2190.1 174.199 2187.22 174.199 L2183.82 174.199 L2183.82 170.634 L2186.32 170.634 Q2188.08 170.634 2189.05 169.8 Q2190.03 168.967 2191.21 165.865 L2191.97 163.921 L2181.48 138.412 L2186 138.412 L2194.1 158.689 L2202.2 138.412 L2206.72 138.412 L2195.33 166.745 Z" fill="#000000" fill-rule="evenodd" fill-opacity="1" /><path clip-path="url(#clip040)" d="M2214.01 160.402 L2221.65 160.402 L2221.65 134.037 L2213.34 135.703 L2213.34 131.444 L2221.6 129.778 L2226.28 129.778 L2226.28 160.402 L2233.91 160.402 L2233.91 164.338 L2214.01 164.338 L2214.01 160.402 Z" fill="#000000" fill-rule="evenodd" fill-opacity="1" /></svg>
