<?xml version="1.0" encoding="utf-8"?>
<svg xmlns="http://www.w3.org/2000/svg" xmlns:xlink="http://www.w3.org/1999/xlink" width="600" height="400" viewBox="0 0 2400 1600">
<defs>
  <clipPath id="clip560">
    <rect x="0" y="0" width="2400" height="1600"/>
  </clipPath>
</defs>
<path clip-path="url(#clip560)" d="
M0 1600 L2400 1600 L2400 0 L0 0  Z
  " fill="#ffffff" fill-rule="evenodd" fill-opacity="1"/>
<defs>
  <clipPath id="clip561">
    <rect x="480" y="0" width="1681" height="1600"/>
  </clipPath>
</defs>
<defs>
  <clipPath id="clip562">
    <rect x="246" y="123" width="2107" height="1364"/>
  </clipPath>
</defs>
<path clip-path="url(#clip560)" d="
M336.061 1486.45 L2352.76 1486.45 L2352.76 123.472 L336.061 123.472  Z
  " fill="#ffffff" fill-rule="evenodd" fill-opacity="1"/>
<defs>
  <clipPath id="clip563">
    <rect x="336" y="123" width="2018" height="1364"/>
  </clipPath>
</defs>
<polyline clip-path="url(#clip563)" style="stroke:#000000; stroke-linecap:butt; stroke-linejoin:round; stroke-width:2; stroke-opacity:0.1; fill:none" points="
  393.137,1486.45 393.137,123.472 
  "/>
<polyline clip-path="url(#clip563)" style="stroke:#000000; stroke-linecap:butt; stroke-linejoin:round; stroke-width:2; stroke-opacity:0.1; fill:none" points="
  868.773,1486.45 868.773,123.472 
  "/>
<polyline clip-path="url(#clip563)" style="stroke:#000000; stroke-linecap:butt; stroke-linejoin:round; stroke-width:2; stroke-opacity:0.1; fill:none" points="
  1344.41,1486.45 1344.41,123.472 
  "/>
<polyline clip-path="url(#clip563)" style="stroke:#000000; stroke-linecap:butt; stroke-linejoin:round; stroke-width:2; stroke-opacity:0.1; fill:none" points="
  1820.04,1486.45 1820.04,123.472 
  "/>
<polyline clip-path="url(#clip563)" style="stroke:#000000; stroke-linecap:butt; stroke-linejoin:round; stroke-width:2; stroke-opacity:0.1; fill:none" points="
  2295.68,1486.45 2295.68,123.472 
  "/>
<polyline clip-path="url(#clip560)" style="stroke:#000000; stroke-linecap:butt; stroke-linejoin:round; stroke-width:4; stroke-opacity:1; fill:none" points="
  336.061,1486.45 2352.76,1486.45 
  "/>
<polyline clip-path="url(#clip560)" style="stroke:#000000; stroke-linecap:butt; stroke-linejoin:round; stroke-width:4; stroke-opacity:1; fill:none" points="
  393.137,1486.45 393.137,1467.55 
  "/>
<polyline clip-path="url(#clip560)" style="stroke:#000000; stroke-linecap:butt; stroke-linejoin:round; stroke-width:4; stroke-opacity:1; fill:none" points="
  868.773,1486.45 868.773,1467.55 
  "/>
<polyline clip-path="url(#clip560)" style="stroke:#000000; stroke-linecap:butt; stroke-linejoin:round; stroke-width:4; stroke-opacity:1; fill:none" points="
  1344.41,1486.45 1344.41,1467.55 
  "/>
<polyline clip-path="url(#clip560)" style="stroke:#000000; stroke-linecap:butt; stroke-linejoin:round; stroke-width:4; stroke-opacity:1; fill:none" points="
  1820.04,1486.45 1820.04,1467.55 
  "/>
<polyline clip-path="url(#clip560)" style="stroke:#000000; stroke-linecap:butt; stroke-linejoin:round; stroke-width:4; stroke-opacity:1; fill:none" points="
  2295.68,1486.45 2295.68,1467.55 
  "/>
<path clip-path="url(#clip560)" d="M339.665 1532.02 L369.341 1532.02 L369.341 1535.95 L339.665 1535.95 L339.665 1532.02 Z" fill="#000000" fill-rule="evenodd" fill-opacity="1" /><path clip-path="url(#clip560)" d="M380.243 1544.91 L387.882 1544.91 L387.882 1518.55 L379.572 1520.21 L379.572 1515.95 L387.836 1514.29 L392.512 1514.29 L392.512 1544.91 L400.151 1544.91 L400.151 1548.85 L380.243 1548.85 L380.243 1544.91 Z" fill="#000000" fill-rule="evenodd" fill-opacity="1" /><path clip-path="url(#clip560)" d="M409.595 1542.97 L414.479 1542.97 L414.479 1548.85 L409.595 1548.85 L409.595 1542.97 Z" fill="#000000" fill-rule="evenodd" fill-opacity="1" /><path clip-path="url(#clip560)" d="M434.664 1517.37 Q431.053 1517.37 429.225 1520.93 Q427.419 1524.47 427.419 1531.6 Q427.419 1538.71 429.225 1542.27 Q431.053 1545.82 434.664 1545.82 Q438.299 1545.82 440.104 1542.27 Q441.933 1538.71 441.933 1531.6 Q441.933 1524.47 440.104 1520.93 Q438.299 1517.37 434.664 1517.37 M434.664 1513.66 Q440.475 1513.66 443.53 1518.27 Q446.609 1522.85 446.609 1531.6 Q446.609 1540.33 443.53 1544.94 Q440.475 1549.52 434.664 1549.52 Q428.854 1549.52 425.776 1544.94 Q422.72 1540.33 422.72 1531.6 Q422.72 1522.85 425.776 1518.27 Q428.854 1513.66 434.664 1513.66 Z" fill="#000000" fill-rule="evenodd" fill-opacity="1" /><path clip-path="url(#clip560)" d="M815.798 1532.02 L845.474 1532.02 L845.474 1535.95 L815.798 1535.95 L815.798 1532.02 Z" fill="#000000" fill-rule="evenodd" fill-opacity="1" /><path clip-path="url(#clip560)" d="M865.567 1517.37 Q861.955 1517.37 860.127 1520.93 Q858.321 1524.47 858.321 1531.6 Q858.321 1538.71 860.127 1542.27 Q861.955 1545.82 865.567 1545.82 Q869.201 1545.82 871.006 1542.27 Q872.835 1538.71 872.835 1531.6 Q872.835 1524.47 871.006 1520.93 Q869.201 1517.37 865.567 1517.37 M865.567 1513.66 Q871.377 1513.66 874.432 1518.27 Q877.511 1522.85 877.511 1531.6 Q877.511 1540.33 874.432 1544.94 Q871.377 1549.52 865.567 1549.52 Q859.756 1549.52 856.678 1544.94 Q853.622 1540.33 853.622 1531.6 Q853.622 1522.85 856.678 1518.27 Q859.756 1513.66 865.567 1513.66 Z" fill="#000000" fill-rule="evenodd" fill-opacity="1" /><path clip-path="url(#clip560)" d="M885.728 1542.97 L890.613 1542.97 L890.613 1548.85 L885.728 1548.85 L885.728 1542.97 Z" fill="#000000" fill-rule="evenodd" fill-opacity="1" /><path clip-path="url(#clip560)" d="M900.844 1514.29 L919.2 1514.29 L919.2 1518.22 L905.126 1518.22 L905.126 1526.7 Q906.145 1526.35 907.164 1526.19 Q908.182 1526 909.201 1526 Q914.988 1526 918.367 1529.17 Q921.747 1532.34 921.747 1537.76 Q921.747 1543.34 918.275 1546.44 Q914.802 1549.52 908.483 1549.52 Q906.307 1549.52 904.039 1549.15 Q901.793 1548.78 899.386 1548.04 L899.386 1543.34 Q901.469 1544.47 903.691 1545.03 Q905.914 1545.58 908.39 1545.58 Q912.395 1545.58 914.733 1543.48 Q917.071 1541.37 917.071 1537.76 Q917.071 1534.15 914.733 1532.04 Q912.395 1529.94 908.39 1529.94 Q906.515 1529.94 904.64 1530.35 Q902.789 1530.77 900.844 1531.65 L900.844 1514.29 Z" fill="#000000" fill-rule="evenodd" fill-opacity="1" /><path clip-path="url(#clip560)" d="M1321.79 1517.37 Q1318.18 1517.37 1316.35 1520.93 Q1314.55 1524.47 1314.55 1531.6 Q1314.55 1538.71 1316.35 1542.27 Q1318.18 1545.82 1321.79 1545.82 Q1325.43 1545.82 1327.23 1542.27 Q1329.06 1538.71 1329.06 1531.6 Q1329.06 1524.47 1327.23 1520.93 Q1325.43 1517.37 1321.79 1517.37 M1321.79 1513.66 Q1327.6 1513.66 1330.66 1518.27 Q1333.74 1522.85 1333.74 1531.6 Q1333.74 1540.33 1330.66 1544.94 Q1327.6 1549.52 1321.79 1549.52 Q1315.98 1549.52 1312.9 1544.94 Q1309.85 1540.33 1309.85 1531.6 Q1309.85 1522.85 1312.9 1518.27 Q1315.98 1513.66 1321.79 1513.66 Z" fill="#000000" fill-rule="evenodd" fill-opacity="1" /><path clip-path="url(#clip560)" d="M1341.95 1542.97 L1346.84 1542.97 L1346.84 1548.85 L1341.95 1548.85 L1341.95 1542.97 Z" fill="#000000" fill-rule="evenodd" fill-opacity="1" /><path clip-path="url(#clip560)" d="M1367.02 1517.37 Q1363.41 1517.37 1361.58 1520.93 Q1359.78 1524.47 1359.78 1531.6 Q1359.78 1538.71 1361.58 1542.27 Q1363.41 1545.82 1367.02 1545.82 Q1370.66 1545.82 1372.46 1542.27 Q1374.29 1538.71 1374.29 1531.6 Q1374.29 1524.47 1372.46 1520.93 Q1370.66 1517.37 1367.02 1517.37 M1367.02 1513.66 Q1372.83 1513.66 1375.89 1518.27 Q1378.97 1522.85 1378.97 1531.6 Q1378.97 1540.33 1375.89 1544.94 Q1372.83 1549.52 1367.02 1549.52 Q1361.21 1549.52 1358.13 1544.94 Q1355.08 1540.33 1355.08 1531.6 Q1355.08 1522.85 1358.13 1518.27 Q1361.21 1513.66 1367.02 1513.66 Z" fill="#000000" fill-rule="evenodd" fill-opacity="1" /><path clip-path="url(#clip560)" d="M1797.93 1517.37 Q1794.31 1517.37 1792.49 1520.93 Q1790.68 1524.47 1790.68 1531.6 Q1790.68 1538.71 1792.49 1542.27 Q1794.31 1545.82 1797.93 1545.82 Q1801.56 1545.82 1803.37 1542.27 Q1805.19 1538.71 1805.19 1531.6 Q1805.19 1524.47 1803.37 1520.93 Q1801.56 1517.37 1797.93 1517.37 M1797.93 1513.66 Q1803.74 1513.66 1806.79 1518.27 Q1809.87 1522.85 1809.87 1531.6 Q1809.87 1540.33 1806.79 1544.94 Q1803.74 1549.52 1797.93 1549.52 Q1792.12 1549.52 1789.04 1544.94 Q1785.98 1540.33 1785.98 1531.6 Q1785.98 1522.85 1789.04 1518.27 Q1792.12 1513.66 1797.93 1513.66 Z" fill="#000000" fill-rule="evenodd" fill-opacity="1" /><path clip-path="url(#clip560)" d="M1818.09 1542.97 L1822.97 1542.97 L1822.97 1548.85 L1818.09 1548.85 L1818.09 1542.97 Z" fill="#000000" fill-rule="evenodd" fill-opacity="1" /><path clip-path="url(#clip560)" d="M1833.2 1514.29 L1851.56 1514.29 L1851.56 1518.22 L1837.49 1518.22 L1837.49 1526.7 Q1838.5 1526.35 1839.52 1526.19 Q1840.54 1526 1841.56 1526 Q1847.35 1526 1850.73 1529.17 Q1854.11 1532.34 1854.11 1537.76 Q1854.11 1543.34 1850.63 1546.44 Q1847.16 1549.52 1840.84 1549.52 Q1838.67 1549.52 1836.4 1549.15 Q1834.15 1548.78 1831.75 1548.04 L1831.75 1543.34 Q1833.83 1544.47 1836.05 1545.03 Q1838.27 1545.58 1840.75 1545.58 Q1844.75 1545.58 1847.09 1543.48 Q1849.43 1541.37 1849.43 1537.76 Q1849.43 1534.15 1847.09 1532.04 Q1844.75 1529.94 1840.75 1529.94 Q1838.87 1529.94 1837 1530.35 Q1835.15 1530.77 1833.2 1531.65 L1833.2 1514.29 Z" fill="#000000" fill-rule="evenodd" fill-opacity="1" /><path clip-path="url(#clip560)" d="M2262.83 1544.91 L2270.47 1544.91 L2270.47 1518.55 L2262.16 1520.21 L2262.16 1515.95 L2270.43 1514.29 L2275.1 1514.29 L2275.1 1544.91 L2282.74 1544.91 L2282.74 1548.85 L2262.83 1548.85 L2262.83 1544.91 Z" fill="#000000" fill-rule="evenodd" fill-opacity="1" /><path clip-path="url(#clip560)" d="M2292.18 1542.97 L2297.07 1542.97 L2297.07 1548.85 L2292.18 1548.85 L2292.18 1542.97 Z" fill="#000000" fill-rule="evenodd" fill-opacity="1" /><path clip-path="url(#clip560)" d="M2317.25 1517.37 Q2313.64 1517.37 2311.81 1520.93 Q2310.01 1524.47 2310.01 1531.6 Q2310.01 1538.71 2311.81 1542.27 Q2313.64 1545.82 2317.25 1545.82 Q2320.89 1545.82 2322.69 1542.27 Q2324.52 1538.71 2324.52 1531.6 Q2324.52 1524.47 2322.69 1520.93 Q2320.89 1517.37 2317.25 1517.37 M2317.25 1513.66 Q2323.06 1513.66 2326.12 1518.27 Q2329.2 1522.85 2329.2 1531.6 Q2329.2 1540.33 2326.12 1544.94 Q2323.06 1549.52 2317.25 1549.52 Q2311.44 1549.52 2308.36 1544.94 Q2305.31 1540.33 2305.31 1531.6 Q2305.31 1522.85 2308.36 1518.27 Q2311.44 1513.66 2317.25 1513.66 Z" fill="#000000" fill-rule="evenodd" fill-opacity="1" /><polyline clip-path="url(#clip563)" style="stroke:#000000; stroke-linecap:butt; stroke-linejoin:round; stroke-width:2; stroke-opacity:0.1; fill:none" points="
  336.061,1447.87 2352.76,1447.87 
  "/>
<polyline clip-path="url(#clip563)" style="stroke:#000000; stroke-linecap:butt; stroke-linejoin:round; stroke-width:2; stroke-opacity:0.1; fill:none" points="
  336.061,1114.89 2352.76,1114.89 
  "/>
<polyline clip-path="url(#clip563)" style="stroke:#000000; stroke-linecap:butt; stroke-linejoin:round; stroke-width:2; stroke-opacity:0.1; fill:none" points="
  336.061,781.899 2352.76,781.899 
  "/>
<polyline clip-path="url(#clip563)" style="stroke:#000000; stroke-linecap:butt; stroke-linejoin:round; stroke-width:2; stroke-opacity:0.1; fill:none" points="
  336.061,448.912 2352.76,448.912 
  "/>
<polyline clip-path="url(#clip560)" style="stroke:#000000; stroke-linecap:butt; stroke-linejoin:round; stroke-width:4; stroke-opacity:1; fill:none" points="
  336.061,1486.45 336.061,123.472 
  "/>
<polyline clip-path="url(#clip560)" style="stroke:#000000; stroke-linecap:butt; stroke-linejoin:round; stroke-width:4; stroke-opacity:1; fill:none" points="
  336.061,1447.87 354.958,1447.87 
  "/>
<polyline clip-path="url(#clip560)" style="stroke:#000000; stroke-linecap:butt; stroke-linejoin:round; stroke-width:4; stroke-opacity:1; fill:none" points="
  336.061,1114.89 354.958,1114.89 
  "/>
<polyline clip-path="url(#clip560)" style="stroke:#000000; stroke-linecap:butt; stroke-linejoin:round; stroke-width:4; stroke-opacity:1; fill:none" points="
  336.061,781.899 354.958,781.899 
  "/>
<polyline clip-path="url(#clip560)" style="stroke:#000000; stroke-linecap:butt; stroke-linejoin:round; stroke-width:4; stroke-opacity:1; fill:none" points="
  336.061,448.912 354.958,448.912 
  "/>
<path clip-path="url(#clip560)" d="M288.116 1433.67 Q284.505 1433.67 282.676 1437.24 Q280.871 1440.78 280.871 1447.91 Q280.871 1455.01 282.676 1458.58 Q284.505 1462.12 288.116 1462.12 Q291.75 1462.12 293.556 1458.58 Q295.385 1455.01 295.385 1447.91 Q295.385 1440.78 293.556 1437.24 Q291.75 1433.67 288.116 1433.67 M288.116 1429.97 Q293.926 1429.97 296.982 1434.57 Q300.061 1439.16 300.061 1447.91 Q300.061 1456.63 296.982 1461.24 Q293.926 1465.82 288.116 1465.82 Q282.306 1465.82 279.227 1461.24 Q276.172 1456.63 276.172 1447.91 Q276.172 1439.16 279.227 1434.57 Q282.306 1429.97 288.116 1429.97 Z" fill="#000000" fill-rule="evenodd" fill-opacity="1" /><path clip-path="url(#clip560)" d="M52.4505 1104.05 L70.8068 1104.05 L70.8068 1107.99 L56.7328 1107.99 L56.7328 1116.46 Q57.7513 1116.11 58.7699 1115.95 Q59.7884 1115.77 60.8069 1115.77 Q66.5939 1115.77 69.9735 1118.94 Q73.3531 1122.11 73.3531 1127.53 Q73.3531 1133.1 69.8809 1136.21 Q66.4087 1139.28 60.0893 1139.28 Q57.9134 1139.28 55.6449 1138.91 Q53.3995 1138.54 50.9921 1137.8 L50.9921 1133.1 Q53.0754 1134.24 55.2977 1134.79 Q57.5199 1135.35 59.9967 1135.35 Q64.0013 1135.35 66.3393 1133.24 Q68.6772 1131.14 68.6772 1127.53 Q68.6772 1123.91 66.3393 1121.81 Q64.0013 1119.7 59.9967 1119.7 Q58.1217 1119.7 56.2467 1120.12 Q54.3949 1120.53 52.4505 1121.41 L52.4505 1104.05 Z" fill="#000000" fill-rule="evenodd" fill-opacity="1" /><path clip-path="url(#clip560)" d="M82.566 1132.73 L87.4503 1132.73 L87.4503 1138.61 L82.566 1138.61 L82.566 1132.73 Z" fill="#000000" fill-rule="evenodd" fill-opacity="1" /><path clip-path="url(#clip560)" d="M107.635 1107.13 Q104.024 1107.13 102.196 1110.7 Q100.39 1114.24 100.39 1121.37 Q100.39 1128.47 102.196 1132.04 Q104.024 1135.58 107.635 1135.58 Q111.27 1135.58 113.075 1132.04 Q114.904 1128.47 114.904 1121.37 Q114.904 1114.24 113.075 1110.7 Q111.27 1107.13 107.635 1107.13 M107.635 1103.43 Q113.445 1103.43 116.501 1108.04 Q119.58 1112.62 119.58 1121.37 Q119.58 1130.1 116.501 1134.7 Q113.445 1139.28 107.635 1139.28 Q101.825 1139.28 98.7465 1134.7 Q95.691 1130.1 95.691 1121.37 Q95.691 1112.62 98.7465 1108.04 Q101.825 1103.43 107.635 1103.43 Z" fill="#000000" fill-rule="evenodd" fill-opacity="1" /><path clip-path="url(#clip560)" d="M137.797 1107.13 Q134.186 1107.13 132.357 1110.7 Q130.552 1114.24 130.552 1121.37 Q130.552 1128.47 132.357 1132.04 Q134.186 1135.58 137.797 1135.58 Q141.431 1135.58 143.237 1132.04 Q145.066 1128.47 145.066 1121.37 Q145.066 1114.24 143.237 1110.7 Q141.431 1107.13 137.797 1107.13 M137.797 1103.43 Q143.607 1103.43 146.663 1108.04 Q149.742 1112.62 149.742 1121.37 Q149.742 1130.1 146.663 1134.7 Q143.607 1139.28 137.797 1139.28 Q131.987 1139.28 128.908 1134.7 Q125.853 1130.1 125.853 1121.37 Q125.853 1112.62 128.908 1108.04 Q131.987 1103.43 137.797 1103.43 Z" fill="#000000" fill-rule="evenodd" fill-opacity="1" /><path clip-path="url(#clip560)" d="M186.13 1113.15 L175.552 1123.78 L186.13 1134.35 L183.376 1137.16 L172.751 1126.53 L162.126 1137.16 L159.394 1134.35 L169.95 1123.78 L159.394 1113.15 L162.126 1110.35 L172.751 1120.97 L183.376 1110.35 L186.13 1113.15 Z" fill="#000000" fill-rule="evenodd" fill-opacity="1" /><path clip-path="url(#clip560)" d="M198.491 1134.68 L206.13 1134.68 L206.13 1108.31 L197.82 1109.98 L197.82 1105.72 L206.084 1104.05 L210.76 1104.05 L210.76 1134.68 L218.399 1134.68 L218.399 1138.61 L198.491 1138.61 L198.491 1134.68 Z" fill="#000000" fill-rule="evenodd" fill-opacity="1" /><path clip-path="url(#clip560)" d="M237.843 1107.13 Q234.232 1107.13 232.403 1110.7 Q230.598 1114.24 230.598 1121.37 Q230.598 1128.47 232.403 1132.04 Q234.232 1135.58 237.843 1135.58 Q241.477 1135.58 243.283 1132.04 Q245.111 1128.47 245.111 1121.37 Q245.111 1114.24 243.283 1110.7 Q241.477 1107.13 237.843 1107.13 M237.843 1103.43 Q243.653 1103.43 246.709 1108.04 Q249.787 1112.62 249.787 1121.37 Q249.787 1130.1 246.709 1134.7 Q243.653 1139.28 237.843 1139.28 Q232.033 1139.28 228.954 1134.7 Q225.899 1130.1 225.899 1121.37 Q225.899 1112.62 228.954 1108.04 Q232.033 1103.43 237.843 1103.43 Z" fill="#000000" fill-rule="evenodd" fill-opacity="1" /><path clip-path="url(#clip560)" d="M249.787 1097.53 L273.899 1097.53 L273.899 1100.73 L249.787 1100.73 L249.787 1097.53 Z" fill="#000000" fill-rule="evenodd" fill-opacity="1" /><path clip-path="url(#clip560)" d="M290.694 1095.65 Q288.136 1095.65 286.632 1097.4 Q285.146 1099.15 285.146 1102.19 Q285.146 1105.22 286.632 1106.99 Q288.136 1108.74 290.694 1108.74 Q293.252 1108.74 294.738 1106.99 Q296.243 1105.22 296.243 1102.19 Q296.243 1099.15 294.738 1097.4 Q293.252 1095.65 290.694 1095.65 M298.236 1083.74 L298.236 1087.2 Q296.807 1086.53 295.34 1086.17 Q293.892 1085.81 292.462 1085.81 Q288.701 1085.81 286.707 1088.35 Q284.732 1090.89 284.45 1096.03 Q285.56 1094.39 287.234 1093.52 Q288.908 1092.64 290.92 1092.64 Q295.152 1092.64 297.597 1095.22 Q300.061 1097.77 300.061 1102.19 Q300.061 1106.52 297.503 1109.13 Q294.945 1111.75 290.694 1111.75 Q285.823 1111.75 283.246 1108.02 Q280.67 1104.28 280.67 1097.19 Q280.67 1090.53 283.829 1086.58 Q286.989 1082.62 292.312 1082.62 Q293.741 1082.62 295.189 1082.9 Q296.656 1083.18 298.236 1083.74 Z" fill="#000000" fill-rule="evenodd" fill-opacity="1" /><path clip-path="url(#clip560)" d="M54.1547 801.691 L61.7936 801.691 L61.7936 775.326 L53.4834 776.992 L53.4834 772.733 L61.7473 771.066 L66.4232 771.066 L66.4232 801.691 L74.062 801.691 L74.062 805.626 L54.1547 805.626 L54.1547 801.691 Z" fill="#000000" fill-rule="evenodd" fill-opacity="1" /><path clip-path="url(#clip560)" d="M83.5064 799.747 L88.3907 799.747 L88.3907 805.626 L83.5064 805.626 L83.5064 799.747 Z" fill="#000000" fill-rule="evenodd" fill-opacity="1" /><path clip-path="url(#clip560)" d="M108.576 774.145 Q104.965 774.145 103.136 777.71 Q101.33 781.252 101.33 788.381 Q101.33 795.488 103.136 799.052 Q104.965 802.594 108.576 802.594 Q112.21 802.594 114.016 799.052 Q115.844 795.488 115.844 788.381 Q115.844 781.252 114.016 777.71 Q112.21 774.145 108.576 774.145 M108.576 770.441 Q114.386 770.441 117.441 775.048 Q120.52 779.631 120.52 788.381 Q120.52 797.108 117.441 801.714 Q114.386 806.298 108.576 806.298 Q102.766 806.298 99.6869 801.714 Q96.6313 797.108 96.6313 788.381 Q96.6313 779.631 99.6869 775.048 Q102.766 770.441 108.576 770.441 Z" fill="#000000" fill-rule="evenodd" fill-opacity="1" /><path clip-path="url(#clip560)" d="M138.738 774.145 Q135.127 774.145 133.298 777.71 Q131.492 781.252 131.492 788.381 Q131.492 795.488 133.298 799.052 Q135.127 802.594 138.738 802.594 Q142.372 802.594 144.177 799.052 Q146.006 795.488 146.006 788.381 Q146.006 781.252 144.177 777.71 Q142.372 774.145 138.738 774.145 M138.738 770.441 Q144.548 770.441 147.603 775.048 Q150.682 779.631 150.682 788.381 Q150.682 797.108 147.603 801.714 Q144.548 806.298 138.738 806.298 Q132.927 806.298 129.849 801.714 Q126.793 797.108 126.793 788.381 Q126.793 779.631 129.849 775.048 Q132.927 770.441 138.738 770.441 Z" fill="#000000" fill-rule="evenodd" fill-opacity="1" /><path clip-path="url(#clip560)" d="M187.071 780.164 L176.492 790.789 L187.071 801.367 L184.316 804.168 L173.691 793.543 L163.066 804.168 L160.335 801.367 L170.89 790.789 L160.335 780.164 L163.066 777.363 L173.691 787.988 L184.316 777.363 L187.071 780.164 Z" fill="#000000" fill-rule="evenodd" fill-opacity="1" /><path clip-path="url(#clip560)" d="M199.432 801.691 L207.071 801.691 L207.071 775.326 L198.76 776.992 L198.76 772.733 L207.024 771.066 L211.7 771.066 L211.7 801.691 L219.339 801.691 L219.339 805.626 L199.432 805.626 L199.432 801.691 Z" fill="#000000" fill-rule="evenodd" fill-opacity="1" /><path clip-path="url(#clip560)" d="M238.783 774.145 Q235.172 774.145 233.344 777.71 Q231.538 781.252 231.538 788.381 Q231.538 795.488 233.344 799.052 Q235.172 802.594 238.783 802.594 Q242.418 802.594 244.223 799.052 Q246.052 795.488 246.052 788.381 Q246.052 781.252 244.223 777.71 Q242.418 774.145 238.783 774.145 M238.783 770.441 Q244.594 770.441 247.649 775.048 Q250.728 779.631 250.728 788.381 Q250.728 797.108 247.649 801.714 Q244.594 806.298 238.783 806.298 Q232.973 806.298 229.895 801.714 Q226.839 797.108 226.839 788.381 Q226.839 779.631 229.895 775.048 Q232.973 770.441 238.783 770.441 Z" fill="#000000" fill-rule="evenodd" fill-opacity="1" /><path clip-path="url(#clip560)" d="M250.728 764.543 L274.839 764.543 L274.839 767.74 L250.728 767.74 L250.728 764.543 Z" fill="#000000" fill-rule="evenodd" fill-opacity="1" /><path clip-path="url(#clip560)" d="M283.077 750.136 L297.992 750.136 L297.992 753.333 L286.557 753.333 L286.557 760.217 Q287.384 759.935 288.212 759.803 Q289.039 759.653 289.867 759.653 Q294.569 759.653 297.315 762.229 Q300.061 764.806 300.061 769.207 Q300.061 773.74 297.239 776.26 Q294.418 778.761 289.284 778.761 Q287.516 778.761 285.673 778.461 Q283.848 778.16 281.892 777.558 L281.892 773.74 Q283.585 774.661 285.39 775.113 Q287.196 775.564 289.208 775.564 Q292.462 775.564 294.362 773.853 Q296.261 772.141 296.261 769.207 Q296.261 766.273 294.362 764.562 Q292.462 762.85 289.208 762.85 Q287.685 762.85 286.162 763.189 Q284.657 763.527 283.077 764.242 L283.077 750.136 Z" fill="#000000" fill-rule="evenodd" fill-opacity="1" /><path clip-path="url(#clip560)" d="M54.1547 468.704 L61.7936 468.704 L61.7936 442.339 L53.4834 444.005 L53.4834 439.746 L61.7473 438.079 L66.4232 438.079 L66.4232 468.704 L74.062 468.704 L74.062 472.639 L54.1547 472.639 L54.1547 468.704 Z" fill="#000000" fill-rule="evenodd" fill-opacity="1" /><path clip-path="url(#clip560)" d="M83.5064 466.76 L88.3907 466.76 L88.3907 472.639 L83.5064 472.639 L83.5064 466.76 Z" fill="#000000" fill-rule="evenodd" fill-opacity="1" /><path clip-path="url(#clip560)" d="M98.6221 438.079 L116.978 438.079 L116.978 442.014 L102.904 442.014 L102.904 450.487 Q103.923 450.139 104.941 449.977 Q105.96 449.792 106.979 449.792 Q112.766 449.792 116.145 452.963 Q119.525 456.135 119.525 461.551 Q119.525 467.13 116.053 470.232 Q112.58 473.311 106.261 473.311 Q104.085 473.311 101.817 472.94 Q99.5711 472.57 97.1638 471.829 L97.1638 467.13 Q99.2471 468.264 101.469 468.82 Q103.691 469.375 106.168 469.375 Q110.173 469.375 112.511 467.269 Q114.849 465.162 114.849 461.551 Q114.849 457.94 112.511 455.834 Q110.173 453.727 106.168 453.727 Q104.293 453.727 102.418 454.144 Q100.567 454.561 98.6221 455.44 L98.6221 438.079 Z" fill="#000000" fill-rule="evenodd" fill-opacity="1" /><path clip-path="url(#clip560)" d="M138.738 441.158 Q135.127 441.158 133.298 444.723 Q131.492 448.264 131.492 455.394 Q131.492 462.5 133.298 466.065 Q135.127 469.607 138.738 469.607 Q142.372 469.607 144.177 466.065 Q146.006 462.5 146.006 455.394 Q146.006 448.264 144.177 444.723 Q142.372 441.158 138.738 441.158 M138.738 437.454 Q144.548 437.454 147.603 442.061 Q150.682 446.644 150.682 455.394 Q150.682 464.121 147.603 468.727 Q144.548 473.311 138.738 473.311 Q132.927 473.311 129.849 468.727 Q126.793 464.121 126.793 455.394 Q126.793 446.644 129.849 442.061 Q132.927 437.454 138.738 437.454 Z" fill="#000000" fill-rule="evenodd" fill-opacity="1" /><path clip-path="url(#clip560)" d="M187.071 447.176 L176.492 457.801 L187.071 468.38 L184.316 471.181 L173.691 460.556 L163.066 471.181 L160.335 468.38 L170.89 457.801 L160.335 447.176 L163.066 444.376 L173.691 455 L184.316 444.376 L187.071 447.176 Z" fill="#000000" fill-rule="evenodd" fill-opacity="1" /><path clip-path="url(#clip560)" d="M199.432 468.704 L207.071 468.704 L207.071 442.339 L198.76 444.005 L198.76 439.746 L207.024 438.079 L211.7 438.079 L211.7 468.704 L219.339 468.704 L219.339 472.639 L199.432 472.639 L199.432 468.704 Z" fill="#000000" fill-rule="evenodd" fill-opacity="1" /><path clip-path="url(#clip560)" d="M238.783 441.158 Q235.172 441.158 233.344 444.723 Q231.538 448.264 231.538 455.394 Q231.538 462.5 233.344 466.065 Q235.172 469.607 238.783 469.607 Q242.418 469.607 244.223 466.065 Q246.052 462.5 246.052 455.394 Q246.052 448.264 244.223 444.723 Q242.418 441.158 238.783 441.158 M238.783 437.454 Q244.594 437.454 247.649 442.061 Q250.728 446.644 250.728 455.394 Q250.728 464.121 247.649 468.727 Q244.594 473.311 238.783 473.311 Q232.973 473.311 229.895 468.727 Q226.839 464.121 226.839 455.394 Q226.839 446.644 229.895 442.061 Q232.973 437.454 238.783 437.454 Z" fill="#000000" fill-rule="evenodd" fill-opacity="1" /><path clip-path="url(#clip560)" d="M250.728 431.556 L274.839 431.556 L274.839 434.753 L250.728 434.753 L250.728 431.556 Z" fill="#000000" fill-rule="evenodd" fill-opacity="1" /><path clip-path="url(#clip560)" d="M283.077 417.149 L297.992 417.149 L297.992 420.346 L286.557 420.346 L286.557 427.23 Q287.384 426.948 288.212 426.816 Q289.039 426.666 289.867 426.666 Q294.569 426.666 297.315 429.242 Q300.061 431.819 300.061 436.22 Q300.061 440.753 297.239 443.273 Q294.418 445.774 289.284 445.774 Q287.516 445.774 285.673 445.473 Q283.848 445.172 281.892 444.571 L281.892 440.753 Q283.585 441.674 285.39 442.126 Q287.196 442.577 289.208 442.577 Q292.462 442.577 294.362 440.865 Q296.261 439.154 296.261 436.22 Q296.261 433.286 294.362 431.574 Q292.462 429.863 289.208 429.863 Q287.685 429.863 286.162 430.201 Q284.657 430.54 283.077 431.255 L283.077 417.149 Z" fill="#000000" fill-rule="evenodd" fill-opacity="1" /><path clip-path="url(#clip560)" d="M937.276 25.2409 Q937.276 29.8317 933.874 34.0536 Q930.513 38.2755 925.02 40.8578 Q919.569 43.3991 913.707 43.3991 L899.443 43.3991 L894.237 64.3856 Q894.196 64.5086 894.073 65.0415 Q893.95 65.5333 893.95 65.8203 Q893.95 66.845 895.221 67.0909 Q896.533 67.3369 899.443 67.3369 Q901.328 67.3369 901.615 67.6648 Q901.779 67.8697 901.779 68.2386 Q901.779 68.8125 901.615 69.2224 Q901.451 69.5913 901.123 69.7142 Q900.837 69.8372 900.632 69.8782 Q900.427 69.9192 900.099 69.9192 Q899.238 69.9192 897.393 69.8372 Q895.59 69.7552 894.647 69.7552 L889.278 69.6733 L878.62 69.9192 Q877.35 69.9192 877.35 68.8945 Q877.35 68.1157 877.678 67.7877 Q878.006 67.4188 878.374 67.3779 Q878.743 67.3369 879.686 67.3369 Q881.736 67.3369 882.965 67.2139 Q884.195 67.0909 884.974 66.927 Q885.793 66.722 886.203 66.1482 Q886.654 65.5743 886.859 65.0825 Q887.064 64.5496 887.351 63.3609 L898.582 18.2727 Q898.91 16.9201 898.91 16.7151 Q898.91 16.0183 898.5 15.7724 Q898.131 15.4854 897.066 15.3625 Q895.016 15.1985 893.458 15.1985 Q892.434 15.1985 892.024 15.1575 Q891.655 15.1165 891.327 14.9116 Q891.04 14.6656 891.04 14.1738 Q891.04 13.395 891.368 13.0671 Q891.737 12.6982 892.147 12.6572 Q892.557 12.5752 893.54 12.5752 L920.757 12.5752 Q928.586 12.5752 932.931 16.3052 Q937.276 20.0352 937.276 25.2409 M929.488 23.2324 Q929.488 15.1985 918.052 15.1985 L910.018 15.1985 Q907.354 15.1985 906.698 15.6904 Q906.042 16.1413 905.468 18.3957 L899.771 41.2267 L911.617 41.2267 Q919.569 41.2267 924.528 36.7589 Q926.783 34.7094 928.135 30.4465 Q929.488 26.1836 929.488 23.2324 Z" fill="#000000" fill-rule="evenodd" fill-opacity="1" /><path clip-path="url(#clip560)" d="M962.623 60.2047 Q962.951 60.5736 962.951 60.9425 Q962.951 61.3114 962.132 62.3772 Q961.353 63.4429 959.672 64.8775 Q957.992 66.3121 955.819 67.6648 Q953.647 69.0174 950.45 69.9192 Q947.253 70.8619 943.891 70.8619 Q937.866 70.8619 934.259 66.5581 Q930.693 62.2542 930.693 55.6549 Q930.693 51.433 932.086 47.703 Q933.48 43.932 935.735 41.2677 Q938.03 38.6034 940.899 36.6769 Q943.809 34.7094 946.843 33.7666 Q949.876 32.8239 952.704 32.8239 Q956.844 32.8239 959.262 34.9143 Q961.681 37.0048 961.681 39.956 Q961.681 40.6528 961.476 41.5136 Q961.312 42.3744 960.738 43.727 Q960.205 45.0797 958.811 46.4323 Q957.418 47.744 955.368 48.6048 Q950.819 50.5313 942.539 50.5313 L938.071 50.5313 Q936.759 55.8189 936.759 59.262 Q936.759 60.6146 937.005 62.0083 Q937.251 63.3609 937.907 65.0825 Q938.604 66.804 940.161 67.9107 Q941.76 68.9764 944.055 68.9764 Q944.793 68.9764 945.572 68.9354 Q946.392 68.8945 948.441 68.4436 Q950.532 67.9927 952.376 67.2139 Q954.221 66.4351 956.557 64.7545 Q958.934 63.033 960.82 60.6966 Q961.476 59.8358 961.927 59.8358 Q962.296 59.8358 962.623 60.2047 M958.893 39.956 Q958.893 37.7016 957.213 36.185 Q955.573 34.6684 952.704 34.6684 Q951.802 34.6684 950.696 34.8734 Q949.589 35.0783 947.744 35.9391 Q945.941 36.7999 944.342 38.2345 Q942.744 39.6281 941.145 42.3744 Q939.547 45.0797 938.604 48.6867 L942.047 48.6867 Q943.236 48.6867 944.096 48.6867 Q944.957 48.6458 946.843 48.4818 Q948.769 48.3178 950.163 48.0309 Q951.556 47.703 953.319 47.0472 Q955.081 46.3913 956.188 45.5306 Q957.336 44.6288 958.115 43.1942 Q958.893 41.7596 958.893 39.956 Z" fill="#000000" fill-rule="evenodd" fill-opacity="1" /><path clip-path="url(#clip560)" d="M1000.43 86.6785 Q1000.43 86.9081 1000.17 87.7975 Q999.91 88.687 999.279 90.0643 Q998.676 91.4415 997.844 92.704 Q997.012 93.9377 995.635 94.8559 Q994.286 95.7454 992.737 95.7454 Q990.671 95.7454 989.294 94.3681 Q987.916 92.9909 987.916 90.925 Q987.916 90.6381 987.945 90.3512 Q987.974 90.0643 988.002 89.8921 Q988.031 89.6912 988.117 89.3756 Q988.232 89.0313 988.261 88.8879 Q988.318 88.7444 988.462 88.314 Q988.634 87.8549 988.691 87.6828 Q992.335 78.3864 992.335 74.5129 Q992.335 70.4099 989.15 70.4099 Q986.31 70.4099 983.498 72.4758 Q982.207 73.5087 980.973 75.345 Q979.739 77.1813 979.509 77.8699 Q979.251 79.362 978.878 80.5097 Q978.706 81.313 977.874 84.4405 L976.583 89.7486 L975.464 94.196 Q975.234 94.8272 974.603 95.2863 Q973.972 95.7454 973.283 95.7454 Q972.709 95.7454 972.136 95.3437 Q971.59 94.9707 971.59 94.0812 Q971.59 93.6221 971.82 92.79 L980.342 58.9329 L980.514 57.7852 Q980.514 57.4409 980.37 57.2687 Q980.255 57.0679 979.567 56.9244 Q978.907 56.781 977.587 56.781 Q977.042 56.781 976.784 56.7523 Q976.554 56.7236 976.353 56.5801 Q976.152 56.408 976.152 56.0636 Q976.152 55.5759 976.353 55.3176 Q976.583 55.0307 976.755 54.9733 Q976.927 54.9159 977.271 54.8873 Q977.759 54.8586 979.395 54.7151 Q981.03 54.5429 982.436 54.4282 Q983.842 54.3134 984.445 54.3134 Q984.789 54.3134 984.961 54.4856 Q985.162 54.629 985.191 54.8012 L985.219 54.9446 L980.628 73.6235 Q984.272 69.1187 989.322 69.1187 Q992.593 69.1187 994.343 70.8116 Q996.094 72.4758 996.094 75.4024 Q996.094 78.7594 992.507 88.314 Q991.446 90.9824 991.446 92.5031 Q991.446 93.5074 991.761 93.9664 Q992.105 94.4255 992.851 94.4255 Q993.999 94.4255 995.003 93.7656 Q996.036 93.077 996.754 91.958 Q997.471 90.8103 997.959 89.6626 Q998.475 88.4862 998.848 87.1663 Q999.078 86.449 999.193 86.2768 Q999.336 86.1047 999.738 86.1047 Q1000.43 86.1047 1000.43 86.6785 Z" fill="#000000" fill-rule="evenodd" fill-opacity="1" /><path clip-path="url(#clip560)" d="M1032.4 57.1715 Q1032.48 56.1468 1034.08 56.1468 L1085.52 56.1468 Q1087.94 56.1468 1087.98 57.0895 Q1087.98 58.1143 1085.68 58.0733 L1034.65 58.0733 Q1032.4 58.1143 1032.4 57.1715 M1032.4 40.7758 Q1032.4 39.7511 1034.16 39.7921 L1085.44 39.7921 Q1087.94 39.7921 1087.98 40.7758 Q1087.98 41.7186 1085.85 41.7186 L1034.08 41.7186 Q1032.4 41.7186 1032.4 40.7758 Z" fill="#000000" fill-rule="evenodd" fill-opacity="1" /><path clip-path="url(#clip560)" d="M1120.36 43.3991 Q1120.36 30.2006 1127.08 22.1257 Q1133.8 14.0098 1142.45 14.0098 Q1147.49 14.0098 1150.28 16.5921 Q1153.11 19.1335 1153.11 23.0684 Q1153.11 25.2409 1151.84 26.1836 Q1150.57 27.1264 1149.26 27.1264 Q1147.74 27.1264 1146.55 26.1016 Q1145.36 25.0769 1145.36 23.2324 Q1145.36 19.4614 1149.99 19.4614 Q1147.82 16.1003 1142.62 16.1003 Q1141.02 16.1003 1139.38 16.5921 Q1137.74 17.043 1135.61 18.6006 Q1133.48 20.1582 1131.84 22.6176 Q1130.2 25.0769 1129.05 29.7087 Q1127.9 34.3405 1127.9 40.3659 L1127.9 42.3744 Q1131.34 34.0536 1138.39 34.0946 Q1145.44 34.0946 1150.32 39.4642 Q1155.2 44.8337 1155.2 52.7857 Q1155.2 60.9425 1150.12 66.3531 Q1145.03 71.7637 1137.9 71.7637 Q1134.7 71.7637 1131.79 70.4111 Q1128.93 69.0994 1126.22 66.0662 Q1123.56 63.033 1121.96 57.2125 Q1120.36 51.392 1120.36 43.3991 M1128.06 50.9412 Q1128.06 59.18 1129.58 63.115 Q1129.83 63.7708 1130.36 64.6726 Q1130.93 65.5743 1131.88 66.763 Q1132.86 67.9107 1134.46 68.6895 Q1136.06 69.4273 1137.9 69.4273 Q1143.52 69.4273 1146.22 63.9757 Q1147.66 60.9425 1147.66 52.7037 Q1147.66 44.3009 1146.14 41.2267 Q1143.56 36.0211 1138.31 36.0211 Q1134.79 36.0211 1132.33 38.4394 Q1129.91 40.8578 1128.97 44.0959 Q1128.06 47.3341 1128.06 50.9412 Z" fill="#000000" fill-rule="evenodd" fill-opacity="1" /><path clip-path="url(#clip560)" d="M1162.26 43.3991 Q1162.26 30.2006 1168.99 22.1257 Q1175.71 14.0098 1184.36 14.0098 Q1189.4 14.0098 1192.19 16.5921 Q1195.02 19.1335 1195.02 23.0684 Q1195.02 25.2409 1193.74 26.1836 Q1192.47 27.1264 1191.16 27.1264 Q1189.65 27.1264 1188.46 26.1016 Q1187.27 25.0769 1187.27 23.2324 Q1187.27 19.4614 1191.9 19.4614 Q1189.73 16.1003 1184.52 16.1003 Q1182.92 16.1003 1181.28 16.5921 Q1179.64 17.043 1177.51 18.6006 Q1175.38 20.1582 1173.74 22.6176 Q1172.1 25.0769 1170.95 29.7087 Q1169.81 34.3405 1169.81 40.3659 L1169.81 42.3744 Q1173.25 34.0536 1180.3 34.0946 Q1187.35 34.0946 1192.23 39.4642 Q1197.11 44.8337 1197.11 52.7857 Q1197.11 60.9425 1192.02 66.3531 Q1186.94 71.7637 1179.81 71.7637 Q1176.61 71.7637 1173.7 70.4111 Q1170.83 69.0994 1168.13 66.0662 Q1165.46 63.033 1163.86 57.2125 Q1162.26 51.392 1162.26 43.3991 M1169.97 50.9412 Q1169.97 59.18 1171.49 63.115 Q1171.73 63.7708 1172.27 64.6726 Q1172.84 65.5743 1173.78 66.763 Q1174.77 67.9107 1176.37 68.6895 Q1177.96 69.4273 1179.81 69.4273 Q1185.42 69.4273 1188.13 63.9757 Q1189.56 60.9425 1189.56 52.7037 Q1189.56 44.3009 1188.05 41.2267 Q1185.46 36.0211 1180.22 36.0211 Q1176.69 36.0211 1174.23 38.4394 Q1171.82 40.8578 1170.87 44.0959 Q1169.97 47.3341 1169.97 50.9412 Z" fill="#000000" fill-rule="evenodd" fill-opacity="1" /><path clip-path="url(#clip560)" d="M1204.17 43.3991 Q1204.17 30.2006 1210.89 22.1257 Q1217.62 14.0098 1226.26 14.0098 Q1231.31 14.0098 1234.09 16.5921 Q1236.92 19.1335 1236.92 23.0684 Q1236.92 25.2409 1235.65 26.1836 Q1234.38 27.1264 1233.07 27.1264 Q1231.55 27.1264 1230.36 26.1016 Q1229.17 25.0769 1229.17 23.2324 Q1229.17 19.4614 1233.81 19.4614 Q1231.63 16.1003 1226.43 16.1003 Q1224.83 16.1003 1223.19 16.5921 Q1221.55 17.043 1219.42 18.6006 Q1217.29 20.1582 1215.65 22.6176 Q1214.01 25.0769 1212.86 29.7087 Q1211.71 34.3405 1211.71 40.3659 L1211.71 42.3744 Q1215.16 34.0536 1222.21 34.0946 Q1229.26 34.0946 1234.13 39.4642 Q1239.01 44.8337 1239.01 52.7857 Q1239.01 60.9425 1233.93 66.3531 Q1228.85 71.7637 1221.71 71.7637 Q1218.52 71.7637 1215.61 70.4111 Q1212.74 69.0994 1210.03 66.0662 Q1207.37 63.033 1205.77 57.2125 Q1204.17 51.392 1204.17 43.3991 M1211.88 50.9412 Q1211.88 59.18 1213.39 63.115 Q1213.64 63.7708 1214.17 64.6726 Q1214.75 65.5743 1215.69 66.763 Q1216.67 67.9107 1218.27 68.6895 Q1219.87 69.4273 1221.71 69.4273 Q1227.33 69.4273 1230.04 63.9757 Q1231.47 60.9425 1231.47 52.7037 Q1231.47 44.3009 1229.95 41.2267 Q1227.37 36.0211 1222.12 36.0211 Q1218.6 36.0211 1216.14 38.4394 Q1213.72 40.8578 1212.78 44.0959 Q1211.88 47.3341 1211.88 50.9412 Z" fill="#000000" fill-rule="evenodd" fill-opacity="1" /><path clip-path="url(#clip560)" d="M1246.08 43.3991 Q1246.08 30.2006 1252.8 22.1257 Q1259.52 14.0098 1268.17 14.0098 Q1273.21 14.0098 1276 16.5921 Q1278.83 19.1335 1278.83 23.0684 Q1278.83 25.2409 1277.56 26.1836 Q1276.29 27.1264 1274.97 27.1264 Q1273.46 27.1264 1272.27 26.1016 Q1271.08 25.0769 1271.08 23.2324 Q1271.08 19.4614 1275.71 19.4614 Q1273.54 16.1003 1268.33 16.1003 Q1266.74 16.1003 1265.1 16.5921 Q1263.46 17.043 1261.33 18.6006 Q1259.19 20.1582 1257.55 22.6176 Q1255.91 25.0769 1254.77 29.7087 Q1253.62 34.3405 1253.62 40.3659 L1253.62 42.3744 Q1257.06 34.0536 1264.11 34.0946 Q1271.16 34.0946 1276.04 39.4642 Q1280.92 44.8337 1280.92 52.7857 Q1280.92 60.9425 1275.84 66.3531 Q1270.75 71.7637 1263.62 71.7637 Q1260.42 71.7637 1257.51 70.4111 Q1254.64 69.0994 1251.94 66.0662 Q1249.27 63.033 1247.68 57.2125 Q1246.08 51.392 1246.08 43.3991 M1253.78 50.9412 Q1253.78 59.18 1255.3 63.115 Q1255.55 63.7708 1256.08 64.6726 Q1256.65 65.5743 1257.6 66.763 Q1258.58 67.9107 1260.18 68.6895 Q1261.78 69.4273 1263.62 69.4273 Q1269.24 69.4273 1271.94 63.9757 Q1273.38 60.9425 1273.38 52.7037 Q1273.38 44.3009 1271.86 41.2267 Q1269.28 36.0211 1264.03 36.0211 Q1260.51 36.0211 1258.05 38.4394 Q1255.63 40.8578 1254.69 44.0959 Q1253.78 47.3341 1253.78 50.9412 Z" fill="#000000" fill-rule="evenodd" fill-opacity="1" /><path clip-path="url(#clip560)" d="M1288.92 68.5665 Q1287.65 67.2139 1287.65 65.4514 Q1287.65 63.6888 1288.92 62.4181 Q1290.19 61.1065 1292.12 61.1065 Q1293.96 61.1065 1295.19 62.3362 Q1296.46 63.5249 1296.46 65.4923 Q1296.46 67.4188 1295.11 68.6895 Q1293.8 69.9192 1292.12 69.9192 Q1290.19 69.9192 1288.92 68.5665 Z" fill="#000000" fill-rule="evenodd" fill-opacity="1" /><path clip-path="url(#clip560)" d="M1310.75 43.3991 Q1310.75 30.2006 1317.47 22.1257 Q1324.19 14.0098 1332.84 14.0098 Q1337.88 14.0098 1340.67 16.5921 Q1343.5 19.1335 1343.5 23.0684 Q1343.5 25.2409 1342.23 26.1836 Q1340.96 27.1264 1339.64 27.1264 Q1338.13 27.1264 1336.94 26.1016 Q1335.75 25.0769 1335.75 23.2324 Q1335.75 19.4614 1340.38 19.4614 Q1338.21 16.1003 1333 16.1003 Q1331.41 16.1003 1329.77 16.5921 Q1328.13 17.043 1325.99 18.6006 Q1323.86 20.1582 1322.22 22.6176 Q1320.58 25.0769 1319.44 29.7087 Q1318.29 34.3405 1318.29 40.3659 L1318.29 42.3744 Q1321.73 34.0536 1328.78 34.0946 Q1335.83 34.0946 1340.71 39.4642 Q1345.59 44.8337 1345.59 52.7857 Q1345.59 60.9425 1340.51 66.3531 Q1335.42 71.7637 1328.29 71.7637 Q1325.09 71.7637 1322.18 70.4111 Q1319.31 69.0994 1316.61 66.0662 Q1313.94 63.033 1312.35 57.2125 Q1310.75 51.392 1310.75 43.3991 M1318.45 50.9412 Q1318.45 59.18 1319.97 63.115 Q1320.22 63.7708 1320.75 64.6726 Q1321.32 65.5743 1322.26 66.763 Q1323.25 67.9107 1324.85 68.6895 Q1326.45 69.4273 1328.29 69.4273 Q1333.91 69.4273 1336.61 63.9757 Q1338.05 60.9425 1338.05 52.7037 Q1338.05 44.3009 1336.53 41.2267 Q1333.95 36.0211 1328.7 36.0211 Q1325.18 36.0211 1322.72 38.4394 Q1320.3 40.8578 1319.35 44.0959 Q1318.45 47.3341 1318.45 50.9412 Z" fill="#000000" fill-rule="evenodd" fill-opacity="1" /><path clip-path="url(#clip560)" d="M1352.65 43.3991 Q1352.65 30.2006 1359.38 22.1257 Q1366.1 14.0098 1374.75 14.0098 Q1379.79 14.0098 1382.58 16.5921 Q1385.4 19.1335 1385.4 23.0684 Q1385.4 25.2409 1384.13 26.1836 Q1382.86 27.1264 1381.55 27.1264 Q1380.03 27.1264 1378.85 26.1016 Q1377.66 25.0769 1377.66 23.2324 Q1377.66 19.4614 1382.29 19.4614 Q1380.12 16.1003 1374.91 16.1003 Q1373.31 16.1003 1371.67 16.5921 Q1370.03 17.043 1367.9 18.6006 Q1365.77 20.1582 1364.13 22.6176 Q1362.49 25.0769 1361.34 29.7087 Q1360.2 34.3405 1360.2 40.3659 L1360.2 42.3744 Q1363.64 34.0536 1370.69 34.0946 Q1377.74 34.0946 1382.62 39.4642 Q1387.49 44.8337 1387.49 52.7857 Q1387.49 60.9425 1382.41 66.3531 Q1377.33 71.7637 1370.2 71.7637 Q1367 71.7637 1364.09 70.4111 Q1361.22 69.0994 1358.51 66.0662 Q1355.85 63.033 1354.25 57.2125 Q1352.65 51.392 1352.65 43.3991 M1360.36 50.9412 Q1360.36 59.18 1361.88 63.115 Q1362.12 63.7708 1362.65 64.6726 Q1363.23 65.5743 1364.17 66.763 Q1365.16 67.9107 1366.75 68.6895 Q1368.35 69.4273 1370.2 69.4273 Q1375.81 69.4273 1378.52 63.9757 Q1379.95 60.9425 1379.95 52.7037 Q1379.95 44.3009 1378.44 41.2267 Q1375.85 36.0211 1370.61 36.0211 Q1367.08 36.0211 1364.62 38.4394 Q1362.2 40.8578 1361.26 44.0959 Q1360.36 47.3341 1360.36 50.9412 Z" fill="#000000" fill-rule="evenodd" fill-opacity="1" /><path clip-path="url(#clip560)" d="M1394.56 43.3991 Q1394.56 30.2006 1401.28 22.1257 Q1408 14.0098 1416.65 14.0098 Q1421.69 14.0098 1424.48 16.5921 Q1427.31 19.1335 1427.31 23.0684 Q1427.31 25.2409 1426.04 26.1836 Q1424.77 27.1264 1423.46 27.1264 Q1421.94 27.1264 1420.75 26.1016 Q1419.56 25.0769 1419.56 23.2324 Q1419.56 19.4614 1424.19 19.4614 Q1422.02 16.1003 1416.82 16.1003 Q1415.22 16.1003 1413.58 16.5921 Q1411.94 17.043 1409.81 18.6006 Q1407.68 20.1582 1406.04 22.6176 Q1404.4 25.0769 1403.25 29.7087 Q1402.1 34.3405 1402.1 40.3659 L1402.1 42.3744 Q1405.54 34.0536 1412.59 34.0946 Q1419.65 34.0946 1424.52 39.4642 Q1429.4 44.8337 1429.4 52.7857 Q1429.4 60.9425 1424.32 66.3531 Q1419.24 71.7637 1412.1 71.7637 Q1408.91 71.7637 1406 70.4111 Q1403.13 69.0994 1400.42 66.0662 Q1397.76 63.033 1396.16 57.2125 Q1394.56 51.392 1394.56 43.3991 M1402.27 50.9412 Q1402.27 59.18 1403.78 63.115 Q1404.03 63.7708 1404.56 64.6726 Q1405.13 65.5743 1406.08 66.763 Q1407.06 67.9107 1408.66 68.6895 Q1410.26 69.4273 1412.1 69.4273 Q1417.72 69.4273 1420.42 63.9757 Q1421.86 60.9425 1421.86 52.7037 Q1421.86 44.3009 1420.34 41.2267 Q1417.76 36.0211 1412.51 36.0211 Q1408.99 36.0211 1406.53 38.4394 Q1404.11 40.8578 1403.17 44.0959 Q1402.27 47.3341 1402.27 50.9412 Z" fill="#000000" fill-rule="evenodd" fill-opacity="1" /><path clip-path="url(#clip560)" d="M1436.47 43.3991 Q1436.47 30.2006 1443.19 22.1257 Q1449.91 14.0098 1458.56 14.0098 Q1463.6 14.0098 1466.39 16.5921 Q1469.22 19.1335 1469.22 23.0684 Q1469.22 25.2409 1467.95 26.1836 Q1466.68 27.1264 1465.36 27.1264 Q1463.85 27.1264 1462.66 26.1016 Q1461.47 25.0769 1461.47 23.2324 Q1461.47 19.4614 1466.1 19.4614 Q1463.93 16.1003 1458.72 16.1003 Q1457.12 16.1003 1455.48 16.5921 Q1453.85 17.043 1451.71 18.6006 Q1449.58 20.1582 1447.94 22.6176 Q1446.3 25.0769 1445.16 29.7087 Q1444.01 34.3405 1444.01 40.3659 L1444.01 42.3744 Q1447.45 34.0536 1454.5 34.0946 Q1461.55 34.0946 1466.43 39.4642 Q1471.31 44.8337 1471.31 52.7857 Q1471.31 60.9425 1466.22 66.3531 Q1461.14 71.7637 1454.01 71.7637 Q1450.81 71.7637 1447.9 70.4111 Q1445.03 69.0994 1442.33 66.0662 Q1439.66 63.033 1438.06 57.2125 Q1436.47 51.392 1436.47 43.3991 M1444.17 50.9412 Q1444.17 59.18 1445.69 63.115 Q1445.93 63.7708 1446.47 64.6726 Q1447.04 65.5743 1447.98 66.763 Q1448.97 67.9107 1450.57 68.6895 Q1452.16 69.4273 1454.01 69.4273 Q1459.62 69.4273 1462.33 63.9757 Q1463.76 60.9425 1463.76 52.7037 Q1463.76 44.3009 1462.25 41.2267 Q1459.67 36.0211 1454.42 36.0211 Q1450.89 36.0211 1448.43 38.4394 Q1446.02 40.8578 1445.07 44.0959 Q1444.17 47.3341 1444.17 50.9412 Z" fill="#000000" fill-rule="evenodd" fill-opacity="1" /><path clip-path="url(#clip560)" d="M1478.37 43.3991 Q1478.37 30.2006 1485.09 22.1257 Q1491.82 14.0098 1500.47 14.0098 Q1505.51 14.0098 1508.29 16.5921 Q1511.12 19.1335 1511.12 23.0684 Q1511.12 25.2409 1509.85 26.1836 Q1508.58 27.1264 1507.27 27.1264 Q1505.75 27.1264 1504.56 26.1016 Q1503.38 25.0769 1503.38 23.2324 Q1503.38 19.4614 1508.01 19.4614 Q1505.84 16.1003 1500.63 16.1003 Q1499.03 16.1003 1497.39 16.5921 Q1495.75 17.043 1493.62 18.6006 Q1491.49 20.1582 1489.85 22.6176 Q1488.21 25.0769 1487.06 29.7087 Q1485.91 34.3405 1485.91 40.3659 L1485.91 42.3744 Q1489.36 34.0536 1496.41 34.0946 Q1503.46 34.0946 1508.34 39.4642 Q1513.21 44.8337 1513.21 52.7857 Q1513.21 60.9425 1508.13 66.3531 Q1503.05 71.7637 1495.92 71.7637 Q1492.72 71.7637 1489.81 70.4111 Q1486.94 69.0994 1484.23 66.0662 Q1481.57 63.033 1479.97 57.2125 Q1478.37 51.392 1478.37 43.3991 M1486.08 50.9412 Q1486.08 59.18 1487.59 63.115 Q1487.84 63.7708 1488.37 64.6726 Q1488.95 65.5743 1489.89 66.763 Q1490.87 67.9107 1492.47 68.6895 Q1494.07 69.4273 1495.92 69.4273 Q1501.53 69.4273 1504.24 63.9757 Q1505.67 60.9425 1505.67 52.7037 Q1505.67 44.3009 1504.15 41.2267 Q1501.57 36.0211 1496.33 36.0211 Q1492.8 36.0211 1490.34 38.4394 Q1487.92 40.8578 1486.98 44.0959 Q1486.08 47.3341 1486.08 50.9412 Z" fill="#000000" fill-rule="evenodd" fill-opacity="1" /><path clip-path="url(#clip560)" d="M1520.28 43.3991 Q1520.28 30.2006 1527 22.1257 Q1533.72 14.0098 1542.37 14.0098 Q1547.41 14.0098 1550.2 16.5921 Q1553.03 19.1335 1553.03 23.0684 Q1553.03 25.2409 1551.76 26.1836 Q1550.49 27.1264 1549.18 27.1264 Q1547.66 27.1264 1546.47 26.1016 Q1545.28 25.0769 1545.28 23.2324 Q1545.28 19.4614 1549.91 19.4614 Q1547.74 16.1003 1542.54 16.1003 Q1540.94 16.1003 1539.3 16.5921 Q1537.66 17.043 1535.53 18.6006 Q1533.4 20.1582 1531.76 22.6176 Q1530.12 25.0769 1528.97 29.7087 Q1527.82 34.3405 1527.82 40.3659 L1527.82 42.3744 Q1531.26 34.0536 1538.31 34.0946 Q1545.36 34.0946 1550.24 39.4642 Q1555.12 44.8337 1555.12 52.7857 Q1555.12 60.9425 1550.04 66.3531 Q1544.95 71.7637 1537.82 71.7637 Q1534.62 71.7637 1531.71 70.4111 Q1528.85 69.0994 1526.14 66.0662 Q1523.48 63.033 1521.88 57.2125 Q1520.28 51.392 1520.28 43.3991 M1527.98 50.9412 Q1527.98 59.18 1529.5 63.115 Q1529.75 63.7708 1530.28 64.6726 Q1530.85 65.5743 1531.8 66.763 Q1532.78 67.9107 1534.38 68.6895 Q1535.98 69.4273 1537.82 69.4273 Q1543.44 69.4273 1546.14 63.9757 Q1547.58 60.9425 1547.58 52.7037 Q1547.58 44.3009 1546.06 41.2267 Q1543.48 36.0211 1538.23 36.0211 Q1534.71 36.0211 1532.25 38.4394 Q1529.83 40.8578 1528.89 44.0959 Q1527.98 47.3341 1527.98 50.9412 Z" fill="#000000" fill-rule="evenodd" fill-opacity="1" /><path clip-path="url(#clip560)" d="M1562.18 43.3991 Q1562.18 30.2006 1568.91 22.1257 Q1575.63 14.0098 1584.28 14.0098 Q1589.32 14.0098 1592.11 16.5921 Q1594.94 19.1335 1594.94 23.0684 Q1594.94 25.2409 1593.66 26.1836 Q1592.39 27.1264 1591.08 27.1264 Q1589.57 27.1264 1588.38 26.1016 Q1587.19 25.0769 1587.19 23.2324 Q1587.19 19.4614 1591.82 19.4614 Q1589.65 16.1003 1584.44 16.1003 Q1582.84 16.1003 1581.2 16.5921 Q1579.56 17.043 1577.43 18.6006 Q1575.3 20.1582 1573.66 22.6176 Q1572.02 25.0769 1570.87 29.7087 Q1569.73 34.3405 1569.73 40.3659 L1569.73 42.3744 Q1573.17 34.0536 1580.22 34.0946 Q1587.27 34.0946 1592.15 39.4642 Q1597.03 44.8337 1597.03 52.7857 Q1597.03 60.9425 1591.94 66.3531 Q1586.86 71.7637 1579.73 71.7637 Q1576.53 71.7637 1573.62 70.4111 Q1570.75 69.0994 1568.05 66.0662 Q1565.38 63.033 1563.78 57.2125 Q1562.18 51.392 1562.18 43.3991 M1569.89 50.9412 Q1569.89 59.18 1571.41 63.115 Q1571.65 63.7708 1572.19 64.6726 Q1572.76 65.5743 1573.7 66.763 Q1574.69 67.9107 1576.29 68.6895 Q1577.88 69.4273 1579.73 69.4273 Q1585.34 69.4273 1588.05 63.9757 Q1589.48 60.9425 1589.48 52.7037 Q1589.48 44.3009 1587.97 41.2267 Q1585.38 36.0211 1580.14 36.0211 Q1576.61 36.0211 1574.15 38.4394 Q1571.74 40.8578 1570.79 44.0959 Q1569.89 47.3341 1569.89 50.9412 Z" fill="#000000" fill-rule="evenodd" fill-opacity="1" /><path clip-path="url(#clip560)" d="M1604.09 43.3991 Q1604.09 30.2006 1610.81 22.1257 Q1617.54 14.0098 1626.18 14.0098 Q1631.23 14.0098 1634.01 16.5921 Q1636.84 19.1335 1636.84 23.0684 Q1636.84 25.2409 1635.57 26.1836 Q1634.3 27.1264 1632.99 27.1264 Q1631.47 27.1264 1630.28 26.1016 Q1629.09 25.0769 1629.09 23.2324 Q1629.09 19.4614 1633.73 19.4614 Q1631.55 16.1003 1626.35 16.1003 Q1624.75 16.1003 1623.11 16.5921 Q1621.47 17.043 1619.34 18.6006 Q1617.21 20.1582 1615.57 22.6176 Q1613.93 25.0769 1612.78 29.7087 Q1611.63 34.3405 1611.63 40.3659 L1611.63 42.3744 Q1615.08 34.0536 1622.13 34.0946 Q1629.18 34.0946 1634.05 39.4642 Q1638.93 44.8337 1638.93 52.7857 Q1638.93 60.9425 1633.85 66.3531 Q1628.77 71.7637 1621.63 71.7637 Q1618.44 71.7637 1615.53 70.4111 Q1612.66 69.0994 1609.95 66.0662 Q1607.29 63.033 1605.69 57.2125 Q1604.09 51.392 1604.09 43.3991 M1611.8 50.9412 Q1611.8 59.18 1613.31 63.115 Q1613.56 63.7708 1614.09 64.6726 Q1614.67 65.5743 1615.61 66.763 Q1616.59 67.9107 1618.19 68.6895 Q1619.79 69.4273 1621.63 69.4273 Q1627.25 69.4273 1629.96 63.9757 Q1631.39 60.9425 1631.39 52.7037 Q1631.39 44.3009 1629.87 41.2267 Q1627.29 36.0211 1622.04 36.0211 Q1618.52 36.0211 1616.06 38.4394 Q1613.64 40.8578 1612.7 44.0959 Q1611.8 47.3341 1611.8 50.9412 Z" fill="#000000" fill-rule="evenodd" fill-opacity="1" /><path clip-path="url(#clip560)" d="M1646 43.3991 Q1646 30.2006 1652.72 22.1257 Q1659.44 14.0098 1668.09 14.0098 Q1673.13 14.0098 1675.92 16.5921 Q1678.75 19.1335 1678.75 23.0684 Q1678.75 25.2409 1677.48 26.1836 Q1676.21 27.1264 1674.89 27.1264 Q1673.38 27.1264 1672.19 26.1016 Q1671 25.0769 1671 23.2324 Q1671 19.4614 1675.63 19.4614 Q1673.46 16.1003 1668.25 16.1003 Q1666.66 16.1003 1665.02 16.5921 Q1663.38 17.043 1661.25 18.6006 Q1659.11 20.1582 1657.47 22.6176 Q1655.83 25.0769 1654.69 29.7087 Q1653.54 34.3405 1653.54 40.3659 L1653.54 42.3744 Q1656.98 34.0536 1664.03 34.0946 Q1671.08 34.0946 1675.96 39.4642 Q1680.84 44.8337 1680.84 52.7857 Q1680.84 60.9425 1675.76 66.3531 Q1670.67 71.7637 1663.54 71.7637 Q1660.34 71.7637 1657.43 70.4111 Q1654.56 69.0994 1651.86 66.0662 Q1649.19 63.033 1647.6 57.2125 Q1646 51.392 1646 43.3991 M1653.7 50.9412 Q1653.7 59.18 1655.22 63.115 Q1655.47 63.7708 1656 64.6726 Q1656.57 65.5743 1657.52 66.763 Q1658.5 67.9107 1660.1 68.6895 Q1661.7 69.4273 1663.54 69.4273 Q1669.16 69.4273 1671.86 63.9757 Q1673.3 60.9425 1673.3 52.7037 Q1673.3 44.3009 1671.78 41.2267 Q1669.2 36.0211 1663.95 36.0211 Q1660.43 36.0211 1657.97 38.4394 Q1655.55 40.8578 1654.61 44.0959 Q1653.7 47.3341 1653.7 50.9412 Z" fill="#000000" fill-rule="evenodd" fill-opacity="1" /><path clip-path="url(#clip560)" d="M1687.9 43.3991 Q1687.9 30.2006 1694.63 22.1257 Q1701.35 14.0098 1710 14.0098 Q1715.04 14.0098 1717.83 16.5921 Q1720.65 19.1335 1720.65 23.0684 Q1720.65 25.2409 1719.38 26.1836 Q1718.11 27.1264 1716.8 27.1264 Q1715.28 27.1264 1714.1 26.1016 Q1712.91 25.0769 1712.91 23.2324 Q1712.91 19.4614 1717.54 19.4614 Q1715.37 16.1003 1710.16 16.1003 Q1708.56 16.1003 1706.92 16.5921 Q1705.28 17.043 1703.15 18.6006 Q1701.02 20.1582 1699.38 22.6176 Q1697.74 25.0769 1696.59 29.7087 Q1695.45 34.3405 1695.45 40.3659 L1695.45 42.3744 Q1698.89 34.0536 1705.94 34.0946 Q1712.99 34.0946 1717.87 39.4642 Q1722.74 44.8337 1722.74 52.7857 Q1722.74 60.9425 1717.66 66.3531 Q1712.58 71.7637 1705.45 71.7637 Q1702.25 71.7637 1699.34 70.4111 Q1696.47 69.0994 1693.77 66.0662 Q1691.1 63.033 1689.5 57.2125 Q1687.9 51.392 1687.9 43.3991 M1695.61 50.9412 Q1695.61 59.18 1697.13 63.115 Q1697.37 63.7708 1697.91 64.6726 Q1698.48 65.5743 1699.42 66.763 Q1700.41 67.9107 1702 68.6895 Q1703.6 69.4273 1705.45 69.4273 Q1711.06 69.4273 1713.77 63.9757 Q1715.2 60.9425 1715.2 52.7037 Q1715.2 44.3009 1713.69 41.2267 Q1711.1 36.0211 1705.86 36.0211 Q1702.33 36.0211 1699.87 38.4394 Q1697.45 40.8578 1696.51 44.0959 Q1695.61 47.3341 1695.61 50.9412 Z" fill="#000000" fill-rule="evenodd" fill-opacity="1" /><path clip-path="url(#clip560)" d="M1729.81 43.3991 Q1729.81 30.2006 1736.53 22.1257 Q1743.25 14.0098 1751.9 14.0098 Q1756.95 14.0098 1759.73 16.5921 Q1762.56 19.1335 1762.56 23.0684 Q1762.56 25.2409 1761.29 26.1836 Q1760.02 27.1264 1758.71 27.1264 Q1757.19 27.1264 1756 26.1016 Q1754.81 25.0769 1754.81 23.2324 Q1754.81 19.4614 1759.45 19.4614 Q1757.27 16.1003 1752.07 16.1003 Q1750.47 16.1003 1748.83 16.5921 Q1747.19 17.043 1745.06 18.6006 Q1742.93 20.1582 1741.29 22.6176 Q1739.65 25.0769 1738.5 29.7087 Q1737.35 34.3405 1737.35 40.3659 L1737.35 42.3744 Q1740.8 34.0536 1747.85 34.0946 Q1754.9 34.0946 1759.77 39.4642 Q1764.65 44.8337 1764.65 52.7857 Q1764.65 60.9425 1759.57 66.3531 Q1754.49 71.7637 1747.35 71.7637 Q1744.16 71.7637 1741.25 70.4111 Q1738.38 69.0994 1735.67 66.0662 Q1733.01 63.033 1731.41 57.2125 Q1729.81 51.392 1729.81 43.3991 M1737.52 50.9412 Q1737.52 59.18 1739.03 63.115 Q1739.28 63.7708 1739.81 64.6726 Q1740.39 65.5743 1741.33 66.763 Q1742.31 67.9107 1743.91 68.6895 Q1745.51 69.4273 1747.35 69.4273 Q1752.97 69.4273 1755.67 63.9757 Q1757.11 60.9425 1757.11 52.7037 Q1757.11 44.3009 1755.59 41.2267 Q1753.01 36.0211 1747.76 36.0211 Q1744.24 36.0211 1741.78 38.4394 Q1739.36 40.8578 1738.42 44.0959 Q1737.52 47.3341 1737.52 50.9412 Z" fill="#000000" fill-rule="evenodd" fill-opacity="1" /><path clip-path="url(#clip560)" d="M1769.9 30.4465 L1772.64 13.19 L1774.73 13.19 Q1774.98 14.2148 1775.39 14.6656 Q1775.84 15.1165 1778.22 15.4854 Q1780.64 15.8543 1785.51 15.8543 L1805.89 15.8543 Q1805.89 17.7808 1805.15 18.8056 L1793.79 34.7504 Q1790.19 39.7921 1788.59 49.0966 Q1787.64 55.327 1787.69 62.869 L1787.69 67.1319 Q1787.69 71.7637 1783.79 71.7637 Q1779.94 71.7637 1779.94 67.1319 Q1779.94 51.1051 1790.27 35.5702 Q1791.37 33.9716 1795.43 28.2741 Q1799.53 22.5766 1799.7 22.3306 L1782.32 22.3306 Q1774.69 22.3306 1774.08 22.8225 Q1773.26 23.5603 1771.99 30.4465 L1769.9 30.4465 Z" fill="#000000" fill-rule="evenodd" fill-opacity="1" /><polyline clip-path="url(#clip563)" style="stroke:#009af9; stroke-linecap:butt; stroke-linejoin:round; stroke-width:12; stroke-opacity:1; fill:none" points="
  393.137,1447.87 458.742,1401.94 524.347,1356.01 589.952,1310.09 655.557,1264.16 721.161,1218.23 786.766,1172.3 852.371,1126.37 917.976,1080.44 983.581,1034.51 
  1049.19,988.58 1114.79,942.651 1180.4,896.722 1246,850.793 1311.61,804.863 1377.21,758.934 1442.82,713.005 1508.42,667.076 1574.03,621.146 1639.63,575.217 
  1705.24,529.288 1770.84,483.359 1836.45,437.429 1902.05,391.5 1967.65,345.571 2033.26,299.642 2098.86,253.712 2164.47,207.783 2230.07,162.047 2295.68,1447.87 
  
  "/>
<line clip-path="url(#clip563)" x1="393.137" y1="1447.87" x2="393.137" y2="1431.87" style="stroke:#009af9; stroke-width:3.2; stroke-opacity:1"/>
<line clip-path="url(#clip563)" x1="393.137" y1="1447.87" x2="377.137" y2="1447.87" style="stroke:#009af9; stroke-width:3.2; stroke-opacity:1"/>
<line clip-path="url(#clip563)" x1="393.137" y1="1447.87" x2="393.137" y2="1463.87" style="stroke:#009af9; stroke-width:3.2; stroke-opacity:1"/>
<line clip-path="url(#clip563)" x1="393.137" y1="1447.87" x2="409.137" y2="1447.87" style="stroke:#009af9; stroke-width:3.2; stroke-opacity:1"/>
<line clip-path="url(#clip563)" x1="458.742" y1="1401.94" x2="458.742" y2="1385.94" style="stroke:#009af9; stroke-width:3.2; stroke-opacity:1"/>
<line clip-path="url(#clip563)" x1="458.742" y1="1401.94" x2="442.742" y2="1401.94" style="stroke:#009af9; stroke-width:3.2; stroke-opacity:1"/>
<line clip-path="url(#clip563)" x1="458.742" y1="1401.94" x2="458.742" y2="1417.94" style="stroke:#009af9; stroke-width:3.2; stroke-opacity:1"/>
<line clip-path="url(#clip563)" x1="458.742" y1="1401.94" x2="474.742" y2="1401.94" style="stroke:#009af9; stroke-width:3.2; stroke-opacity:1"/>
<line clip-path="url(#clip563)" x1="524.347" y1="1356.01" x2="524.347" y2="1340.01" style="stroke:#009af9; stroke-width:3.2; stroke-opacity:1"/>
<line clip-path="url(#clip563)" x1="524.347" y1="1356.01" x2="508.347" y2="1356.01" style="stroke:#009af9; stroke-width:3.2; stroke-opacity:1"/>
<line clip-path="url(#clip563)" x1="524.347" y1="1356.01" x2="524.347" y2="1372.01" style="stroke:#009af9; stroke-width:3.2; stroke-opacity:1"/>
<line clip-path="url(#clip563)" x1="524.347" y1="1356.01" x2="540.347" y2="1356.01" style="stroke:#009af9; stroke-width:3.2; stroke-opacity:1"/>
<line clip-path="url(#clip563)" x1="589.952" y1="1310.09" x2="589.952" y2="1294.09" style="stroke:#009af9; stroke-width:3.2; stroke-opacity:1"/>
<line clip-path="url(#clip563)" x1="589.952" y1="1310.09" x2="573.952" y2="1310.09" style="stroke:#009af9; stroke-width:3.2; stroke-opacity:1"/>
<line clip-path="url(#clip563)" x1="589.952" y1="1310.09" x2="589.952" y2="1326.09" style="stroke:#009af9; stroke-width:3.2; stroke-opacity:1"/>
<line clip-path="url(#clip563)" x1="589.952" y1="1310.09" x2="605.952" y2="1310.09" style="stroke:#009af9; stroke-width:3.2; stroke-opacity:1"/>
<line clip-path="url(#clip563)" x1="655.557" y1="1264.16" x2="655.557" y2="1248.16" style="stroke:#009af9; stroke-width:3.2; stroke-opacity:1"/>
<line clip-path="url(#clip563)" x1="655.557" y1="1264.16" x2="639.557" y2="1264.16" style="stroke:#009af9; stroke-width:3.2; stroke-opacity:1"/>
<line clip-path="url(#clip563)" x1="655.557" y1="1264.16" x2="655.557" y2="1280.16" style="stroke:#009af9; stroke-width:3.2; stroke-opacity:1"/>
<line clip-path="url(#clip563)" x1="655.557" y1="1264.16" x2="671.557" y2="1264.16" style="stroke:#009af9; stroke-width:3.2; stroke-opacity:1"/>
<line clip-path="url(#clip563)" x1="721.161" y1="1218.23" x2="721.161" y2="1202.23" style="stroke:#009af9; stroke-width:3.2; stroke-opacity:1"/>
<line clip-path="url(#clip563)" x1="721.161" y1="1218.23" x2="705.161" y2="1218.23" style="stroke:#009af9; stroke-width:3.2; stroke-opacity:1"/>
<line clip-path="url(#clip563)" x1="721.161" y1="1218.23" x2="721.161" y2="1234.23" style="stroke:#009af9; stroke-width:3.2; stroke-opacity:1"/>
<line clip-path="url(#clip563)" x1="721.161" y1="1218.23" x2="737.161" y2="1218.23" style="stroke:#009af9; stroke-width:3.2; stroke-opacity:1"/>
<line clip-path="url(#clip563)" x1="786.766" y1="1172.3" x2="786.766" y2="1156.3" style="stroke:#009af9; stroke-width:3.2; stroke-opacity:1"/>
<line clip-path="url(#clip563)" x1="786.766" y1="1172.3" x2="770.766" y2="1172.3" style="stroke:#009af9; stroke-width:3.2; stroke-opacity:1"/>
<line clip-path="url(#clip563)" x1="786.766" y1="1172.3" x2="786.766" y2="1188.3" style="stroke:#009af9; stroke-width:3.2; stroke-opacity:1"/>
<line clip-path="url(#clip563)" x1="786.766" y1="1172.3" x2="802.766" y2="1172.3" style="stroke:#009af9; stroke-width:3.2; stroke-opacity:1"/>
<line clip-path="url(#clip563)" x1="852.371" y1="1126.37" x2="852.371" y2="1110.37" style="stroke:#009af9; stroke-width:3.2; stroke-opacity:1"/>
<line clip-path="url(#clip563)" x1="852.371" y1="1126.37" x2="836.371" y2="1126.37" style="stroke:#009af9; stroke-width:3.2; stroke-opacity:1"/>
<line clip-path="url(#clip563)" x1="852.371" y1="1126.37" x2="852.371" y2="1142.37" style="stroke:#009af9; stroke-width:3.2; stroke-opacity:1"/>
<line clip-path="url(#clip563)" x1="852.371" y1="1126.37" x2="868.371" y2="1126.37" style="stroke:#009af9; stroke-width:3.2; stroke-opacity:1"/>
<line clip-path="url(#clip563)" x1="917.976" y1="1080.44" x2="917.976" y2="1064.44" style="stroke:#009af9; stroke-width:3.2; stroke-opacity:1"/>
<line clip-path="url(#clip563)" x1="917.976" y1="1080.44" x2="901.976" y2="1080.44" style="stroke:#009af9; stroke-width:3.2; stroke-opacity:1"/>
<line clip-path="url(#clip563)" x1="917.976" y1="1080.44" x2="917.976" y2="1096.44" style="stroke:#009af9; stroke-width:3.2; stroke-opacity:1"/>
<line clip-path="url(#clip563)" x1="917.976" y1="1080.44" x2="933.976" y2="1080.44" style="stroke:#009af9; stroke-width:3.2; stroke-opacity:1"/>
<line clip-path="url(#clip563)" x1="983.581" y1="1034.51" x2="983.581" y2="1018.51" style="stroke:#009af9; stroke-width:3.2; stroke-opacity:1"/>
<line clip-path="url(#clip563)" x1="983.581" y1="1034.51" x2="967.581" y2="1034.51" style="stroke:#009af9; stroke-width:3.2; stroke-opacity:1"/>
<line clip-path="url(#clip563)" x1="983.581" y1="1034.51" x2="983.581" y2="1050.51" style="stroke:#009af9; stroke-width:3.2; stroke-opacity:1"/>
<line clip-path="url(#clip563)" x1="983.581" y1="1034.51" x2="999.581" y2="1034.51" style="stroke:#009af9; stroke-width:3.2; stroke-opacity:1"/>
<line clip-path="url(#clip563)" x1="1049.19" y1="988.58" x2="1049.19" y2="972.58" style="stroke:#009af9; stroke-width:3.2; stroke-opacity:1"/>
<line clip-path="url(#clip563)" x1="1049.19" y1="988.58" x2="1033.19" y2="988.58" style="stroke:#009af9; stroke-width:3.2; stroke-opacity:1"/>
<line clip-path="url(#clip563)" x1="1049.19" y1="988.58" x2="1049.19" y2="1004.58" style="stroke:#009af9; stroke-width:3.2; stroke-opacity:1"/>
<line clip-path="url(#clip563)" x1="1049.19" y1="988.58" x2="1065.19" y2="988.58" style="stroke:#009af9; stroke-width:3.2; stroke-opacity:1"/>
<line clip-path="url(#clip563)" x1="1114.79" y1="942.651" x2="1114.79" y2="926.651" style="stroke:#009af9; stroke-width:3.2; stroke-opacity:1"/>
<line clip-path="url(#clip563)" x1="1114.79" y1="942.651" x2="1098.79" y2="942.651" style="stroke:#009af9; stroke-width:3.2; stroke-opacity:1"/>
<line clip-path="url(#clip563)" x1="1114.79" y1="942.651" x2="1114.79" y2="958.651" style="stroke:#009af9; stroke-width:3.2; stroke-opacity:1"/>
<line clip-path="url(#clip563)" x1="1114.79" y1="942.651" x2="1130.79" y2="942.651" style="stroke:#009af9; stroke-width:3.2; stroke-opacity:1"/>
<line clip-path="url(#clip563)" x1="1180.4" y1="896.722" x2="1180.4" y2="880.722" style="stroke:#009af9; stroke-width:3.2; stroke-opacity:1"/>
<line clip-path="url(#clip563)" x1="1180.4" y1="896.722" x2="1164.4" y2="896.722" style="stroke:#009af9; stroke-width:3.2; stroke-opacity:1"/>
<line clip-path="url(#clip563)" x1="1180.4" y1="896.722" x2="1180.4" y2="912.722" style="stroke:#009af9; stroke-width:3.2; stroke-opacity:1"/>
<line clip-path="url(#clip563)" x1="1180.4" y1="896.722" x2="1196.4" y2="896.722" style="stroke:#009af9; stroke-width:3.2; stroke-opacity:1"/>
<line clip-path="url(#clip563)" x1="1246" y1="850.793" x2="1246" y2="834.793" style="stroke:#009af9; stroke-width:3.2; stroke-opacity:1"/>
<line clip-path="url(#clip563)" x1="1246" y1="850.793" x2="1230" y2="850.793" style="stroke:#009af9; stroke-width:3.2; stroke-opacity:1"/>
<line clip-path="url(#clip563)" x1="1246" y1="850.793" x2="1246" y2="866.793" style="stroke:#009af9; stroke-width:3.2; stroke-opacity:1"/>
<line clip-path="url(#clip563)" x1="1246" y1="850.793" x2="1262" y2="850.793" style="stroke:#009af9; stroke-width:3.2; stroke-opacity:1"/>
<line clip-path="url(#clip563)" x1="1311.61" y1="804.863" x2="1311.61" y2="788.863" style="stroke:#009af9; stroke-width:3.2; stroke-opacity:1"/>
<line clip-path="url(#clip563)" x1="1311.61" y1="804.863" x2="1295.61" y2="804.863" style="stroke:#009af9; stroke-width:3.2; stroke-opacity:1"/>
<line clip-path="url(#clip563)" x1="1311.61" y1="804.863" x2="1311.61" y2="820.863" style="stroke:#009af9; stroke-width:3.2; stroke-opacity:1"/>
<line clip-path="url(#clip563)" x1="1311.61" y1="804.863" x2="1327.61" y2="804.863" style="stroke:#009af9; stroke-width:3.2; stroke-opacity:1"/>
<line clip-path="url(#clip563)" x1="1377.21" y1="758.934" x2="1377.21" y2="742.934" style="stroke:#009af9; stroke-width:3.2; stroke-opacity:1"/>
<line clip-path="url(#clip563)" x1="1377.21" y1="758.934" x2="1361.21" y2="758.934" style="stroke:#009af9; stroke-width:3.2; stroke-opacity:1"/>
<line clip-path="url(#clip563)" x1="1377.21" y1="758.934" x2="1377.21" y2="774.934" style="stroke:#009af9; stroke-width:3.2; stroke-opacity:1"/>
<line clip-path="url(#clip563)" x1="1377.21" y1="758.934" x2="1393.21" y2="758.934" style="stroke:#009af9; stroke-width:3.2; stroke-opacity:1"/>
<line clip-path="url(#clip563)" x1="1442.82" y1="713.005" x2="1442.82" y2="697.005" style="stroke:#009af9; stroke-width:3.2; stroke-opacity:1"/>
<line clip-path="url(#clip563)" x1="1442.82" y1="713.005" x2="1426.82" y2="713.005" style="stroke:#009af9; stroke-width:3.2; stroke-opacity:1"/>
<line clip-path="url(#clip563)" x1="1442.82" y1="713.005" x2="1442.82" y2="729.005" style="stroke:#009af9; stroke-width:3.2; stroke-opacity:1"/>
<line clip-path="url(#clip563)" x1="1442.82" y1="713.005" x2="1458.82" y2="713.005" style="stroke:#009af9; stroke-width:3.2; stroke-opacity:1"/>
<line clip-path="url(#clip563)" x1="1508.42" y1="667.076" x2="1508.42" y2="651.076" style="stroke:#009af9; stroke-width:3.2; stroke-opacity:1"/>
<line clip-path="url(#clip563)" x1="1508.42" y1="667.076" x2="1492.42" y2="667.076" style="stroke:#009af9; stroke-width:3.2; stroke-opacity:1"/>
<line clip-path="url(#clip563)" x1="1508.42" y1="667.076" x2="1508.42" y2="683.076" style="stroke:#009af9; stroke-width:3.2; stroke-opacity:1"/>
<line clip-path="url(#clip563)" x1="1508.42" y1="667.076" x2="1524.42" y2="667.076" style="stroke:#009af9; stroke-width:3.2; stroke-opacity:1"/>
<line clip-path="url(#clip563)" x1="1574.03" y1="621.146" x2="1574.03" y2="605.146" style="stroke:#009af9; stroke-width:3.2; stroke-opacity:1"/>
<line clip-path="url(#clip563)" x1="1574.03" y1="621.146" x2="1558.03" y2="621.146" style="stroke:#009af9; stroke-width:3.2; stroke-opacity:1"/>
<line clip-path="url(#clip563)" x1="1574.03" y1="621.146" x2="1574.03" y2="637.146" style="stroke:#009af9; stroke-width:3.2; stroke-opacity:1"/>
<line clip-path="url(#clip563)" x1="1574.03" y1="621.146" x2="1590.03" y2="621.146" style="stroke:#009af9; stroke-width:3.2; stroke-opacity:1"/>
<line clip-path="url(#clip563)" x1="1639.63" y1="575.217" x2="1639.63" y2="559.217" style="stroke:#009af9; stroke-width:3.2; stroke-opacity:1"/>
<line clip-path="url(#clip563)" x1="1639.63" y1="575.217" x2="1623.63" y2="575.217" style="stroke:#009af9; stroke-width:3.2; stroke-opacity:1"/>
<line clip-path="url(#clip563)" x1="1639.63" y1="575.217" x2="1639.63" y2="591.217" style="stroke:#009af9; stroke-width:3.2; stroke-opacity:1"/>
<line clip-path="url(#clip563)" x1="1639.63" y1="575.217" x2="1655.63" y2="575.217" style="stroke:#009af9; stroke-width:3.2; stroke-opacity:1"/>
<line clip-path="url(#clip563)" x1="1705.24" y1="529.288" x2="1705.24" y2="513.288" style="stroke:#009af9; stroke-width:3.2; stroke-opacity:1"/>
<line clip-path="url(#clip563)" x1="1705.24" y1="529.288" x2="1689.24" y2="529.288" style="stroke:#009af9; stroke-width:3.2; stroke-opacity:1"/>
<line clip-path="url(#clip563)" x1="1705.24" y1="529.288" x2="1705.24" y2="545.288" style="stroke:#009af9; stroke-width:3.2; stroke-opacity:1"/>
<line clip-path="url(#clip563)" x1="1705.24" y1="529.288" x2="1721.24" y2="529.288" style="stroke:#009af9; stroke-width:3.2; stroke-opacity:1"/>
<line clip-path="url(#clip563)" x1="1770.84" y1="483.359" x2="1770.84" y2="467.359" style="stroke:#009af9; stroke-width:3.2; stroke-opacity:1"/>
<line clip-path="url(#clip563)" x1="1770.84" y1="483.359" x2="1754.84" y2="483.359" style="stroke:#009af9; stroke-width:3.2; stroke-opacity:1"/>
<line clip-path="url(#clip563)" x1="1770.84" y1="483.359" x2="1770.84" y2="499.359" style="stroke:#009af9; stroke-width:3.2; stroke-opacity:1"/>
<line clip-path="url(#clip563)" x1="1770.84" y1="483.359" x2="1786.84" y2="483.359" style="stroke:#009af9; stroke-width:3.2; stroke-opacity:1"/>
<line clip-path="url(#clip563)" x1="1836.45" y1="437.429" x2="1836.45" y2="421.429" style="stroke:#009af9; stroke-width:3.2; stroke-opacity:1"/>
<line clip-path="url(#clip563)" x1="1836.45" y1="437.429" x2="1820.45" y2="437.429" style="stroke:#009af9; stroke-width:3.2; stroke-opacity:1"/>
<line clip-path="url(#clip563)" x1="1836.45" y1="437.429" x2="1836.45" y2="453.429" style="stroke:#009af9; stroke-width:3.2; stroke-opacity:1"/>
<line clip-path="url(#clip563)" x1="1836.45" y1="437.429" x2="1852.45" y2="437.429" style="stroke:#009af9; stroke-width:3.2; stroke-opacity:1"/>
<line clip-path="url(#clip563)" x1="1902.05" y1="391.5" x2="1902.05" y2="375.5" style="stroke:#009af9; stroke-width:3.2; stroke-opacity:1"/>
<line clip-path="url(#clip563)" x1="1902.05" y1="391.5" x2="1886.05" y2="391.5" style="stroke:#009af9; stroke-width:3.2; stroke-opacity:1"/>
<line clip-path="url(#clip563)" x1="1902.05" y1="391.5" x2="1902.05" y2="407.5" style="stroke:#009af9; stroke-width:3.2; stroke-opacity:1"/>
<line clip-path="url(#clip563)" x1="1902.05" y1="391.5" x2="1918.05" y2="391.5" style="stroke:#009af9; stroke-width:3.2; stroke-opacity:1"/>
<line clip-path="url(#clip563)" x1="1967.65" y1="345.571" x2="1967.65" y2="329.571" style="stroke:#009af9; stroke-width:3.2; stroke-opacity:1"/>
<line clip-path="url(#clip563)" x1="1967.65" y1="345.571" x2="1951.65" y2="345.571" style="stroke:#009af9; stroke-width:3.2; stroke-opacity:1"/>
<line clip-path="url(#clip563)" x1="1967.65" y1="345.571" x2="1967.65" y2="361.571" style="stroke:#009af9; stroke-width:3.2; stroke-opacity:1"/>
<line clip-path="url(#clip563)" x1="1967.65" y1="345.571" x2="1983.65" y2="345.571" style="stroke:#009af9; stroke-width:3.2; stroke-opacity:1"/>
<line clip-path="url(#clip563)" x1="2033.26" y1="299.642" x2="2033.26" y2="283.642" style="stroke:#009af9; stroke-width:3.2; stroke-opacity:1"/>
<line clip-path="url(#clip563)" x1="2033.26" y1="299.642" x2="2017.26" y2="299.642" style="stroke:#009af9; stroke-width:3.2; stroke-opacity:1"/>
<line clip-path="url(#clip563)" x1="2033.26" y1="299.642" x2="2033.26" y2="315.642" style="stroke:#009af9; stroke-width:3.2; stroke-opacity:1"/>
<line clip-path="url(#clip563)" x1="2033.26" y1="299.642" x2="2049.26" y2="299.642" style="stroke:#009af9; stroke-width:3.2; stroke-opacity:1"/>
<line clip-path="url(#clip563)" x1="2098.86" y1="253.712" x2="2098.86" y2="237.712" style="stroke:#009af9; stroke-width:3.2; stroke-opacity:1"/>
<line clip-path="url(#clip563)" x1="2098.86" y1="253.712" x2="2082.86" y2="253.712" style="stroke:#009af9; stroke-width:3.2; stroke-opacity:1"/>
<line clip-path="url(#clip563)" x1="2098.86" y1="253.712" x2="2098.86" y2="269.712" style="stroke:#009af9; stroke-width:3.2; stroke-opacity:1"/>
<line clip-path="url(#clip563)" x1="2098.86" y1="253.712" x2="2114.86" y2="253.712" style="stroke:#009af9; stroke-width:3.2; stroke-opacity:1"/>
<line clip-path="url(#clip563)" x1="2164.47" y1="207.783" x2="2164.47" y2="191.783" style="stroke:#009af9; stroke-width:3.2; stroke-opacity:1"/>
<line clip-path="url(#clip563)" x1="2164.47" y1="207.783" x2="2148.47" y2="207.783" style="stroke:#009af9; stroke-width:3.2; stroke-opacity:1"/>
<line clip-path="url(#clip563)" x1="2164.47" y1="207.783" x2="2164.47" y2="223.783" style="stroke:#009af9; stroke-width:3.2; stroke-opacity:1"/>
<line clip-path="url(#clip563)" x1="2164.47" y1="207.783" x2="2180.47" y2="207.783" style="stroke:#009af9; stroke-width:3.2; stroke-opacity:1"/>
<line clip-path="url(#clip563)" x1="2230.07" y1="162.047" x2="2230.07" y2="146.047" style="stroke:#009af9; stroke-width:3.2; stroke-opacity:1"/>
<line clip-path="url(#clip563)" x1="2230.07" y1="162.047" x2="2214.07" y2="162.047" style="stroke:#009af9; stroke-width:3.2; stroke-opacity:1"/>
<line clip-path="url(#clip563)" x1="2230.07" y1="162.047" x2="2230.07" y2="178.047" style="stroke:#009af9; stroke-width:3.2; stroke-opacity:1"/>
<line clip-path="url(#clip563)" x1="2230.07" y1="162.047" x2="2246.07" y2="162.047" style="stroke:#009af9; stroke-width:3.2; stroke-opacity:1"/>
<line clip-path="url(#clip563)" x1="2295.68" y1="1447.87" x2="2295.68" y2="1431.87" style="stroke:#009af9; stroke-width:3.2; stroke-opacity:1"/>
<line clip-path="url(#clip563)" x1="2295.68" y1="1447.87" x2="2279.68" y2="1447.87" style="stroke:#009af9; stroke-width:3.2; stroke-opacity:1"/>
<line clip-path="url(#clip563)" x1="2295.68" y1="1447.87" x2="2295.68" y2="1463.87" style="stroke:#009af9; stroke-width:3.2; stroke-opacity:1"/>
<line clip-path="url(#clip563)" x1="2295.68" y1="1447.87" x2="2311.68" y2="1447.87" style="stroke:#009af9; stroke-width:3.2; stroke-opacity:1"/>
</svg>
