<?xml version="1.0" encoding="utf-8"?>
<svg xmlns="http://www.w3.org/2000/svg" xmlns:xlink="http://www.w3.org/1999/xlink" width="600" height="400" viewBox="0 0 2400 1600">
<defs>
  <clipPath id="clip490">
    <rect x="0" y="0" width="2400" height="1600"/>
  </clipPath>
</defs>
<path clip-path="url(#clip490)" d="
M0 1600 L2400 1600 L2400 0 L0 0  Z
  " fill="#ffffff" fill-rule="evenodd" fill-opacity="1"/>
<defs>
  <clipPath id="clip491">
    <rect x="480" y="0" width="1681" height="1600"/>
  </clipPath>
</defs>
<path clip-path="url(#clip490)" d="
M193.936 1486.45 L2352.76 1486.45 L2352.76 47.2441 L193.936 47.2441  Z
  " fill="#ffffff" fill-rule="evenodd" fill-opacity="1"/>
<defs>
  <clipPath id="clip492">
    <rect x="193" y="47" width="2160" height="1440"/>
  </clipPath>
</defs>
<polyline clip-path="url(#clip492)" style="stroke:#000000; stroke-linecap:butt; stroke-linejoin:round; stroke-width:2; stroke-opacity:0.1; fill:none" points="
  255.035,1486.45 255.035,47.2441 
  "/>
<polyline clip-path="url(#clip492)" style="stroke:#000000; stroke-linecap:butt; stroke-linejoin:round; stroke-width:2; stroke-opacity:0.1; fill:none" points="
  764.19,1486.45 764.19,47.2441 
  "/>
<polyline clip-path="url(#clip492)" style="stroke:#000000; stroke-linecap:butt; stroke-linejoin:round; stroke-width:2; stroke-opacity:0.1; fill:none" points="
  1273.35,1486.45 1273.35,47.2441 
  "/>
<polyline clip-path="url(#clip492)" style="stroke:#000000; stroke-linecap:butt; stroke-linejoin:round; stroke-width:2; stroke-opacity:0.1; fill:none" points="
  1782.5,1486.45 1782.5,47.2441 
  "/>
<polyline clip-path="url(#clip492)" style="stroke:#000000; stroke-linecap:butt; stroke-linejoin:round; stroke-width:2; stroke-opacity:0.1; fill:none" points="
  2291.66,1486.45 2291.66,47.2441 
  "/>
<polyline clip-path="url(#clip490)" style="stroke:#000000; stroke-linecap:butt; stroke-linejoin:round; stroke-width:4; stroke-opacity:1; fill:none" points="
  193.936,1486.45 2352.76,1486.45 
  "/>
<polyline clip-path="url(#clip490)" style="stroke:#000000; stroke-linecap:butt; stroke-linejoin:round; stroke-width:4; stroke-opacity:1; fill:none" points="
  255.035,1486.45 255.035,1467.55 
  "/>
<polyline clip-path="url(#clip490)" style="stroke:#000000; stroke-linecap:butt; stroke-linejoin:round; stroke-width:4; stroke-opacity:1; fill:none" points="
  764.19,1486.45 764.19,1467.55 
  "/>
<polyline clip-path="url(#clip490)" style="stroke:#000000; stroke-linecap:butt; stroke-linejoin:round; stroke-width:4; stroke-opacity:1; fill:none" points="
  1273.35,1486.45 1273.35,1467.55 
  "/>
<polyline clip-path="url(#clip490)" style="stroke:#000000; stroke-linecap:butt; stroke-linejoin:round; stroke-width:4; stroke-opacity:1; fill:none" points="
  1782.5,1486.45 1782.5,1467.55 
  "/>
<polyline clip-path="url(#clip490)" style="stroke:#000000; stroke-linecap:butt; stroke-linejoin:round; stroke-width:4; stroke-opacity:1; fill:none" points="
  2291.66,1486.45 2291.66,1467.55 
  "/>
<path clip-path="url(#clip490)" d="M201.563 1532.02 L231.239 1532.02 L231.239 1535.95 L201.563 1535.95 L201.563 1532.02 Z" fill="#000000" fill-rule="evenodd" fill-opacity="1" /><path clip-path="url(#clip490)" d="M242.141 1544.91 L249.78 1544.91 L249.78 1518.55 L241.47 1520.21 L241.47 1515.95 L249.734 1514.29 L254.41 1514.29 L254.41 1544.91 L262.049 1544.91 L262.049 1548.85 L242.141 1548.85 L242.141 1544.91 Z" fill="#000000" fill-rule="evenodd" fill-opacity="1" /><path clip-path="url(#clip490)" d="M271.493 1542.97 L276.377 1542.97 L276.377 1548.85 L271.493 1548.85 L271.493 1542.97 Z" fill="#000000" fill-rule="evenodd" fill-opacity="1" /><path clip-path="url(#clip490)" d="M296.562 1517.37 Q292.951 1517.37 291.122 1520.93 Q289.317 1524.47 289.317 1531.6 Q289.317 1538.71 291.122 1542.27 Q292.951 1545.82 296.562 1545.82 Q300.196 1545.82 302.002 1542.27 Q303.831 1538.71 303.831 1531.6 Q303.831 1524.47 302.002 1520.93 Q300.196 1517.37 296.562 1517.37 M296.562 1513.66 Q302.372 1513.66 305.428 1518.27 Q308.507 1522.85 308.507 1531.6 Q308.507 1540.33 305.428 1544.94 Q302.372 1549.52 296.562 1549.52 Q290.752 1549.52 287.673 1544.94 Q284.618 1540.33 284.618 1531.6 Q284.618 1522.85 287.673 1518.27 Q290.752 1513.66 296.562 1513.66 Z" fill="#000000" fill-rule="evenodd" fill-opacity="1" /><path clip-path="url(#clip490)" d="M711.216 1532.02 L740.892 1532.02 L740.892 1535.95 L711.216 1535.95 L711.216 1532.02 Z" fill="#000000" fill-rule="evenodd" fill-opacity="1" /><path clip-path="url(#clip490)" d="M760.984 1517.37 Q757.373 1517.37 755.545 1520.93 Q753.739 1524.47 753.739 1531.6 Q753.739 1538.71 755.545 1542.27 Q757.373 1545.82 760.984 1545.82 Q764.619 1545.82 766.424 1542.27 Q768.253 1538.71 768.253 1531.6 Q768.253 1524.47 766.424 1520.93 Q764.619 1517.37 760.984 1517.37 M760.984 1513.66 Q766.794 1513.66 769.85 1518.27 Q772.929 1522.85 772.929 1531.6 Q772.929 1540.33 769.85 1544.94 Q766.794 1549.52 760.984 1549.52 Q755.174 1549.52 752.095 1544.94 Q749.04 1540.33 749.04 1531.6 Q749.04 1522.85 752.095 1518.27 Q755.174 1513.66 760.984 1513.66 Z" fill="#000000" fill-rule="evenodd" fill-opacity="1" /><path clip-path="url(#clip490)" d="M781.146 1542.97 L786.03 1542.97 L786.03 1548.85 L781.146 1548.85 L781.146 1542.97 Z" fill="#000000" fill-rule="evenodd" fill-opacity="1" /><path clip-path="url(#clip490)" d="M796.262 1514.29 L814.618 1514.29 L814.618 1518.22 L800.544 1518.22 L800.544 1526.7 Q801.563 1526.35 802.581 1526.19 Q803.6 1526 804.618 1526 Q810.405 1526 813.785 1529.17 Q817.165 1532.34 817.165 1537.76 Q817.165 1543.34 813.692 1546.44 Q810.22 1549.52 803.901 1549.52 Q801.725 1549.52 799.456 1549.15 Q797.211 1548.78 794.804 1548.04 L794.804 1543.34 Q796.887 1544.47 799.109 1545.03 Q801.331 1545.58 803.808 1545.58 Q807.813 1545.58 810.151 1543.48 Q812.489 1541.37 812.489 1537.76 Q812.489 1534.15 810.151 1532.04 Q807.813 1529.94 803.808 1529.94 Q801.933 1529.94 800.058 1530.35 Q798.206 1530.77 796.262 1531.65 L796.262 1514.29 Z" fill="#000000" fill-rule="evenodd" fill-opacity="1" /><path clip-path="url(#clip490)" d="M1250.73 1517.37 Q1247.12 1517.37 1245.29 1520.93 Q1243.49 1524.47 1243.49 1531.6 Q1243.49 1538.71 1245.29 1542.27 Q1247.12 1545.82 1250.73 1545.82 Q1254.36 1545.82 1256.17 1542.27 Q1258 1538.71 1258 1531.6 Q1258 1524.47 1256.17 1520.93 Q1254.36 1517.37 1250.73 1517.37 M1250.73 1513.66 Q1256.54 1513.66 1259.6 1518.27 Q1262.67 1522.85 1262.67 1531.6 Q1262.67 1540.33 1259.6 1544.94 Q1256.54 1549.52 1250.73 1549.52 Q1244.92 1549.52 1241.84 1544.94 Q1238.79 1540.33 1238.79 1531.6 Q1238.79 1522.85 1241.84 1518.27 Q1244.92 1513.66 1250.73 1513.66 Z" fill="#000000" fill-rule="evenodd" fill-opacity="1" /><path clip-path="url(#clip490)" d="M1270.89 1542.97 L1275.78 1542.97 L1275.78 1548.85 L1270.89 1548.85 L1270.89 1542.97 Z" fill="#000000" fill-rule="evenodd" fill-opacity="1" /><path clip-path="url(#clip490)" d="M1295.96 1517.37 Q1292.35 1517.37 1290.52 1520.93 Q1288.72 1524.47 1288.72 1531.6 Q1288.72 1538.71 1290.52 1542.27 Q1292.35 1545.82 1295.96 1545.82 Q1299.6 1545.82 1301.4 1542.27 Q1303.23 1538.71 1303.23 1531.6 Q1303.23 1524.47 1301.4 1520.93 Q1299.6 1517.37 1295.96 1517.37 M1295.96 1513.66 Q1301.77 1513.66 1304.83 1518.27 Q1307.91 1522.85 1307.91 1531.6 Q1307.91 1540.33 1304.83 1544.94 Q1301.77 1549.52 1295.96 1549.52 Q1290.15 1549.52 1287.07 1544.94 Q1284.02 1540.33 1284.02 1531.6 Q1284.02 1522.85 1287.07 1518.27 Q1290.15 1513.66 1295.96 1513.66 Z" fill="#000000" fill-rule="evenodd" fill-opacity="1" /><path clip-path="url(#clip490)" d="M1760.38 1517.37 Q1756.77 1517.37 1754.94 1520.93 Q1753.14 1524.47 1753.14 1531.6 Q1753.14 1538.71 1754.94 1542.27 Q1756.77 1545.82 1760.38 1545.82 Q1764.02 1545.82 1765.82 1542.27 Q1767.65 1538.71 1767.65 1531.6 Q1767.65 1524.47 1765.82 1520.93 Q1764.02 1517.37 1760.38 1517.37 M1760.38 1513.66 Q1766.19 1513.66 1769.25 1518.27 Q1772.33 1522.85 1772.33 1531.6 Q1772.33 1540.33 1769.25 1544.94 Q1766.19 1549.52 1760.38 1549.52 Q1754.57 1549.52 1751.49 1544.94 Q1748.44 1540.33 1748.44 1531.6 Q1748.44 1522.85 1751.49 1518.27 Q1754.57 1513.66 1760.38 1513.66 Z" fill="#000000" fill-rule="evenodd" fill-opacity="1" /><path clip-path="url(#clip490)" d="M1780.55 1542.97 L1785.43 1542.97 L1785.43 1548.85 L1780.55 1548.85 L1780.55 1542.97 Z" fill="#000000" fill-rule="evenodd" fill-opacity="1" /><path clip-path="url(#clip490)" d="M1795.66 1514.29 L1814.02 1514.29 L1814.02 1518.22 L1799.94 1518.22 L1799.94 1526.7 Q1800.96 1526.35 1801.98 1526.19 Q1803 1526 1804.02 1526 Q1809.8 1526 1813.18 1529.17 Q1816.56 1532.34 1816.56 1537.76 Q1816.56 1543.34 1813.09 1546.44 Q1809.62 1549.52 1803.3 1549.52 Q1801.12 1549.52 1798.86 1549.15 Q1796.61 1548.78 1794.2 1548.04 L1794.2 1543.34 Q1796.29 1544.47 1798.51 1545.03 Q1800.73 1545.58 1803.21 1545.58 Q1807.21 1545.58 1809.55 1543.48 Q1811.89 1541.37 1811.89 1537.76 Q1811.89 1534.15 1809.55 1532.04 Q1807.21 1529.94 1803.21 1529.94 Q1801.33 1529.94 1799.46 1530.35 Q1797.61 1530.77 1795.66 1531.65 L1795.66 1514.29 Z" fill="#000000" fill-rule="evenodd" fill-opacity="1" /><path clip-path="url(#clip490)" d="M2258.81 1544.91 L2266.45 1544.91 L2266.45 1518.55 L2258.14 1520.21 L2258.14 1515.95 L2266.4 1514.29 L2271.08 1514.29 L2271.08 1544.91 L2278.72 1544.91 L2278.72 1548.85 L2258.81 1548.85 L2258.81 1544.91 Z" fill="#000000" fill-rule="evenodd" fill-opacity="1" /><path clip-path="url(#clip490)" d="M2288.16 1542.97 L2293.05 1542.97 L2293.05 1548.85 L2288.16 1548.85 L2288.16 1542.97 Z" fill="#000000" fill-rule="evenodd" fill-opacity="1" /><path clip-path="url(#clip490)" d="M2313.23 1517.37 Q2309.62 1517.37 2307.79 1520.93 Q2305.99 1524.47 2305.99 1531.6 Q2305.99 1538.71 2307.79 1542.27 Q2309.62 1545.82 2313.23 1545.82 Q2316.87 1545.82 2318.67 1542.27 Q2320.5 1538.71 2320.5 1531.6 Q2320.5 1524.47 2318.67 1520.93 Q2316.87 1517.37 2313.23 1517.37 M2313.23 1513.66 Q2319.04 1513.66 2322.1 1518.27 Q2325.18 1522.85 2325.18 1531.6 Q2325.18 1540.33 2322.1 1544.94 Q2319.04 1549.52 2313.23 1549.52 Q2307.42 1549.52 2304.34 1544.94 Q2301.29 1540.33 2301.29 1531.6 Q2301.29 1522.85 2304.34 1518.27 Q2307.42 1513.66 2313.23 1513.66 Z" fill="#000000" fill-rule="evenodd" fill-opacity="1" /><polyline clip-path="url(#clip492)" style="stroke:#000000; stroke-linecap:butt; stroke-linejoin:round; stroke-width:2; stroke-opacity:0.1; fill:none" points="
  193.936,1445.72 2352.76,1445.72 
  "/>
<polyline clip-path="url(#clip492)" style="stroke:#000000; stroke-linecap:butt; stroke-linejoin:round; stroke-width:2; stroke-opacity:0.1; fill:none" points="
  193.936,1100.07 2352.76,1100.07 
  "/>
<polyline clip-path="url(#clip492)" style="stroke:#000000; stroke-linecap:butt; stroke-linejoin:round; stroke-width:2; stroke-opacity:0.1; fill:none" points="
  193.936,754.416 2352.76,754.416 
  "/>
<polyline clip-path="url(#clip492)" style="stroke:#000000; stroke-linecap:butt; stroke-linejoin:round; stroke-width:2; stroke-opacity:0.1; fill:none" points="
  193.936,408.762 2352.76,408.762 
  "/>
<polyline clip-path="url(#clip492)" style="stroke:#000000; stroke-linecap:butt; stroke-linejoin:round; stroke-width:2; stroke-opacity:0.1; fill:none" points="
  193.936,63.1083 2352.76,63.1083 
  "/>
<polyline clip-path="url(#clip490)" style="stroke:#000000; stroke-linecap:butt; stroke-linejoin:round; stroke-width:4; stroke-opacity:1; fill:none" points="
  193.936,1486.45 193.936,47.2441 
  "/>
<polyline clip-path="url(#clip490)" style="stroke:#000000; stroke-linecap:butt; stroke-linejoin:round; stroke-width:4; stroke-opacity:1; fill:none" points="
  193.936,1445.72 212.834,1445.72 
  "/>
<polyline clip-path="url(#clip490)" style="stroke:#000000; stroke-linecap:butt; stroke-linejoin:round; stroke-width:4; stroke-opacity:1; fill:none" points="
  193.936,1100.07 212.834,1100.07 
  "/>
<polyline clip-path="url(#clip490)" style="stroke:#000000; stroke-linecap:butt; stroke-linejoin:round; stroke-width:4; stroke-opacity:1; fill:none" points="
  193.936,754.416 212.834,754.416 
  "/>
<polyline clip-path="url(#clip490)" style="stroke:#000000; stroke-linecap:butt; stroke-linejoin:round; stroke-width:4; stroke-opacity:1; fill:none" points="
  193.936,408.762 212.834,408.762 
  "/>
<polyline clip-path="url(#clip490)" style="stroke:#000000; stroke-linecap:butt; stroke-linejoin:round; stroke-width:4; stroke-opacity:1; fill:none" points="
  193.936,63.1083 212.834,63.1083 
  "/>
<path clip-path="url(#clip490)" d="M50.9921 1446.18 L80.6679 1446.18 L80.6679 1450.11 L50.9921 1450.11 L50.9921 1446.18 Z" fill="#000000" fill-rule="evenodd" fill-opacity="1" /><path clip-path="url(#clip490)" d="M91.5706 1459.07 L99.2095 1459.07 L99.2095 1432.7 L90.8993 1434.37 L90.8993 1430.11 L99.1632 1428.44 L103.839 1428.44 L103.839 1459.07 L111.478 1459.07 L111.478 1463 L91.5706 1463 L91.5706 1459.07 Z" fill="#000000" fill-rule="evenodd" fill-opacity="1" /><path clip-path="url(#clip490)" d="M120.922 1457.12 L125.807 1457.12 L125.807 1463 L120.922 1463 L120.922 1457.12 Z" fill="#000000" fill-rule="evenodd" fill-opacity="1" /><path clip-path="url(#clip490)" d="M145.992 1431.52 Q142.381 1431.52 140.552 1435.09 Q138.746 1438.63 138.746 1445.76 Q138.746 1452.87 140.552 1456.43 Q142.381 1459.97 145.992 1459.97 Q149.626 1459.97 151.431 1456.43 Q153.26 1452.87 153.26 1445.76 Q153.26 1438.63 151.431 1435.09 Q149.626 1431.52 145.992 1431.52 M145.992 1427.82 Q151.802 1427.82 154.857 1432.43 Q157.936 1437.01 157.936 1445.76 Q157.936 1454.49 154.857 1459.09 Q151.802 1463.68 145.992 1463.68 Q140.181 1463.68 137.103 1459.09 Q134.047 1454.49 134.047 1445.76 Q134.047 1437.01 137.103 1432.43 Q140.181 1427.82 145.992 1427.82 Z" fill="#000000" fill-rule="evenodd" fill-opacity="1" /><path clip-path="url(#clip490)" d="M51.9875 1100.52 L81.6633 1100.52 L81.6633 1104.46 L51.9875 1104.46 L51.9875 1100.52 Z" fill="#000000" fill-rule="evenodd" fill-opacity="1" /><path clip-path="url(#clip490)" d="M101.756 1085.87 Q98.1447 1085.87 96.316 1089.43 Q94.5104 1092.98 94.5104 1100.1 Q94.5104 1107.21 96.316 1110.78 Q98.1447 1114.32 101.756 1114.32 Q105.39 1114.32 107.196 1110.78 Q109.024 1107.21 109.024 1100.1 Q109.024 1092.98 107.196 1089.43 Q105.39 1085.87 101.756 1085.87 M101.756 1082.17 Q107.566 1082.17 110.621 1086.77 Q113.7 1091.35 113.7 1100.1 Q113.7 1108.83 110.621 1113.44 Q107.566 1118.02 101.756 1118.02 Q95.9456 1118.02 92.8669 1113.44 Q89.8114 1108.83 89.8114 1100.1 Q89.8114 1091.35 92.8669 1086.77 Q95.9456 1082.17 101.756 1082.17 Z" fill="#000000" fill-rule="evenodd" fill-opacity="1" /><path clip-path="url(#clip490)" d="M121.918 1111.47 L126.802 1111.47 L126.802 1117.35 L121.918 1117.35 L121.918 1111.47 Z" fill="#000000" fill-rule="evenodd" fill-opacity="1" /><path clip-path="url(#clip490)" d="M137.033 1082.79 L155.39 1082.79 L155.39 1086.73 L141.316 1086.73 L141.316 1095.2 Q142.334 1094.85 143.353 1094.69 Q144.371 1094.5 145.39 1094.5 Q151.177 1094.5 154.556 1097.67 Q157.936 1100.85 157.936 1106.26 Q157.936 1111.84 154.464 1114.94 Q150.992 1118.02 144.672 1118.02 Q142.496 1118.02 140.228 1117.65 Q137.982 1117.28 135.575 1116.54 L135.575 1111.84 Q137.658 1112.98 139.881 1113.53 Q142.103 1114.09 144.58 1114.09 Q148.584 1114.09 150.922 1111.98 Q153.26 1109.87 153.26 1106.26 Q153.26 1102.65 150.922 1100.54 Q148.584 1098.44 144.58 1098.44 Q142.705 1098.44 140.83 1098.85 Q138.978 1099.27 137.033 1100.15 L137.033 1082.79 Z" fill="#000000" fill-rule="evenodd" fill-opacity="1" /><path clip-path="url(#clip490)" d="M100.76 740.215 Q97.1493 740.215 95.3206 743.78 Q93.515 747.321 93.515 754.451 Q93.515 761.557 95.3206 765.122 Q97.1493 768.664 100.76 768.664 Q104.395 768.664 106.2 765.122 Q108.029 761.557 108.029 754.451 Q108.029 747.321 106.2 743.78 Q104.395 740.215 100.76 740.215 M100.76 736.511 Q106.571 736.511 109.626 741.118 Q112.705 745.701 112.705 754.451 Q112.705 763.178 109.626 767.784 Q106.571 772.368 100.76 772.368 Q94.9502 772.368 91.8715 767.784 Q88.816 763.178 88.816 754.451 Q88.816 745.701 91.8715 741.118 Q94.9502 736.511 100.76 736.511 Z" fill="#000000" fill-rule="evenodd" fill-opacity="1" /><path clip-path="url(#clip490)" d="M120.922 765.817 L125.807 765.817 L125.807 771.696 L120.922 771.696 L120.922 765.817 Z" fill="#000000" fill-rule="evenodd" fill-opacity="1" /><path clip-path="url(#clip490)" d="M145.992 740.215 Q142.381 740.215 140.552 743.78 Q138.746 747.321 138.746 754.451 Q138.746 761.557 140.552 765.122 Q142.381 768.664 145.992 768.664 Q149.626 768.664 151.431 765.122 Q153.26 761.557 153.26 754.451 Q153.26 747.321 151.431 743.78 Q149.626 740.215 145.992 740.215 M145.992 736.511 Q151.802 736.511 154.857 741.118 Q157.936 745.701 157.936 754.451 Q157.936 763.178 154.857 767.784 Q151.802 772.368 145.992 772.368 Q140.181 772.368 137.103 767.784 Q134.047 763.178 134.047 754.451 Q134.047 745.701 137.103 741.118 Q140.181 736.511 145.992 736.511 Z" fill="#000000" fill-rule="evenodd" fill-opacity="1" /><path clip-path="url(#clip490)" d="M101.756 394.561 Q98.1447 394.561 96.316 398.126 Q94.5104 401.667 94.5104 408.797 Q94.5104 415.903 96.316 419.468 Q98.1447 423.01 101.756 423.01 Q105.39 423.01 107.196 419.468 Q109.024 415.903 109.024 408.797 Q109.024 401.667 107.196 398.126 Q105.39 394.561 101.756 394.561 M101.756 390.857 Q107.566 390.857 110.621 395.464 Q113.7 400.047 113.7 408.797 Q113.7 417.524 110.621 422.13 Q107.566 426.714 101.756 426.714 Q95.9456 426.714 92.8669 422.13 Q89.8114 417.524 89.8114 408.797 Q89.8114 400.047 92.8669 395.464 Q95.9456 390.857 101.756 390.857 Z" fill="#000000" fill-rule="evenodd" fill-opacity="1" /><path clip-path="url(#clip490)" d="M121.918 420.163 L126.802 420.163 L126.802 426.042 L121.918 426.042 L121.918 420.163 Z" fill="#000000" fill-rule="evenodd" fill-opacity="1" /><path clip-path="url(#clip490)" d="M137.033 391.482 L155.39 391.482 L155.39 395.417 L141.316 395.417 L141.316 403.89 Q142.334 403.542 143.353 403.38 Q144.371 403.195 145.39 403.195 Q151.177 403.195 154.556 406.366 Q157.936 409.538 157.936 414.954 Q157.936 420.533 154.464 423.635 Q150.992 426.714 144.672 426.714 Q142.496 426.714 140.228 426.343 Q137.982 425.973 135.575 425.232 L135.575 420.533 Q137.658 421.667 139.881 422.223 Q142.103 422.778 144.58 422.778 Q148.584 422.778 150.922 420.672 Q153.26 418.565 153.26 414.954 Q153.26 411.343 150.922 409.237 Q148.584 407.13 144.58 407.13 Q142.705 407.13 140.83 407.547 Q138.978 407.964 137.033 408.843 L137.033 391.482 Z" fill="#000000" fill-rule="evenodd" fill-opacity="1" /><path clip-path="url(#clip490)" d="M91.5706 76.4531 L99.2095 76.4531 L99.2095 50.0875 L90.8993 51.7542 L90.8993 47.4949 L99.1632 45.8283 L103.839 45.8283 L103.839 76.4531 L111.478 76.4531 L111.478 80.3883 L91.5706 80.3883 L91.5706 76.4531 Z" fill="#000000" fill-rule="evenodd" fill-opacity="1" /><path clip-path="url(#clip490)" d="M120.922 74.5087 L125.807 74.5087 L125.807 80.3883 L120.922 80.3883 L120.922 74.5087 Z" fill="#000000" fill-rule="evenodd" fill-opacity="1" /><path clip-path="url(#clip490)" d="M145.992 48.9069 Q142.381 48.9069 140.552 52.4717 Q138.746 56.0134 138.746 63.143 Q138.746 70.2494 140.552 73.8142 Q142.381 77.3559 145.992 77.3559 Q149.626 77.3559 151.431 73.8142 Q153.26 70.2494 153.26 63.143 Q153.26 56.0134 151.431 52.4717 Q149.626 48.9069 145.992 48.9069 M145.992 45.2033 Q151.802 45.2033 154.857 49.8097 Q157.936 54.393 157.936 63.143 Q157.936 71.8698 154.857 76.4762 Q151.802 81.0595 145.992 81.0595 Q140.181 81.0595 137.103 76.4762 Q134.047 71.8698 134.047 63.143 Q134.047 54.393 137.103 49.8097 Q140.181 45.2033 145.992 45.2033 Z" fill="#000000" fill-rule="evenodd" fill-opacity="1" /><polyline clip-path="url(#clip492)" style="stroke:#009af9; stroke-linecap:butt; stroke-linejoin:round; stroke-width:12; stroke-opacity:1; fill:none" points="
  255.035,1420.86 296.598,1416.54 338.162,1411.49 379.726,1405.6 421.29,1398.72 462.853,1390.72 504.417,1381.42 545.981,1370.63 587.544,1358.16 629.108,1343.77 
  670.672,1327.24 712.236,1308.31 753.799,1286.75 795.363,1262.29 836.927,1234.73 878.491,1203.85 920.054,1169.52 961.618,1131.67 1003.18,1090.29 1044.75,1045.5 
  1086.31,997.528 1127.87,946.728 1169.44,893.573 1211,838.646 1252.56,782.617 1294.13,726.215 1335.69,670.187 1377.26,615.26 1418.82,562.104 1460.38,511.305 
  1501.95,463.334 1543.51,418.545 1585.07,377.166 1626.64,339.308 1668.2,304.982 1709.77,274.107 1751.33,246.54 1792.89,222.086 1834.46,200.519 1876.02,181.594 
  1917.58,165.062 1959.15,150.677 2000.71,138.203 2042.27,127.417 2083.84,118.115 2125.4,110.111 2166.97,103.236 2208.53,97.3413 2250.09,92.2935 2291.66,87.9763 
  
  "/>
<polyline clip-path="url(#clip492)" style="stroke:#e26f46; stroke-linecap:butt; stroke-linejoin:round; stroke-width:12; stroke-opacity:1; fill:none" points="
  255.035,1434.44 296.598,1432.46 338.162,1430.13 379.726,1427.4 421.29,1424.2 462.853,1420.45 504.417,1416.07 545.981,1410.94 587.544,1404.96 629.108,1397.97 
  670.672,1389.85 712.236,1380.41 753.799,1369.46 795.363,1356.81 836.927,1342.22 878.491,1325.46 920.054,1306.28 961.618,1284.43 1003.18,1259.68 1044.75,1231.79 
  1086.31,1200.58 1127.87,1165.9 1169.44,1127.69 1211,1085.96 1252.56,1040.84 1294.13,992.568 1335.69,941.51 1377.26,888.149 1418.82,833.081 1460.38,776.982 
  1501.95,720.583 1543.51,664.633 1585.07,609.854 1626.64,556.91 1668.2,506.374 1709.77,458.707 1751.33,414.251 1792.89,373.221 1834.46,335.718 1876.02,301.741 
  1917.58,271.205 1959.15,243.959 2000.71,219.804 2042.27,198.512 2083.84,179.837 2125.4,163.531 2166.97,149.347 2208.53,137.052 2250.09,126.423 2291.66,117.259 
  
  "/>
<polyline clip-path="url(#clip492)" style="stroke:#3da44d; stroke-linecap:butt; stroke-linejoin:round; stroke-width:12; stroke-opacity:1; fill:none" points="
  255.035,1440.63 296.598,1439.73 338.162,1438.67 379.726,1437.43 421.29,1435.97 462.853,1434.25 504.417,1432.24 545.981,1429.88 587.544,1427.1 629.108,1423.85 
  670.672,1420.05 712.236,1415.59 753.799,1410.38 795.363,1404.3 836.927,1397.22 878.491,1388.97 920.054,1379.38 961.618,1368.28 1003.18,1355.44 1044.75,1340.64 
  1086.31,1323.65 1127.87,1304.22 1169.44,1282.09 1211,1257.03 1252.56,1228.82 1294.13,1197.27 1335.69,1162.24 1377.26,1123.67 1418.82,1081.6 1460.38,1036.15 
  1501.95,987.581 1543.51,936.268 1585.07,882.709 1626.64,827.505 1668.2,771.343 1709.77,714.956 1751.33,659.091 1792.89,604.467 1834.46,551.739 1876.02,501.471 
  1917.58,454.113 1959.15,409.991 2000.71,369.311 2042.27,332.162 2083.84,298.534 2125.4,268.335 2166.97,241.408 2208.53,217.55 2250.09,196.531 2291.66,178.104 
  
  "/>
<polyline clip-path="url(#clip492)" style="stroke:#c271d2; stroke-linecap:butt; stroke-linejoin:round; stroke-width:12; stroke-opacity:1; fill:none" points="
  255.035,1443.43 296.598,1443.02 338.162,1442.55 379.726,1441.99 421.29,1441.32 462.853,1440.55 504.417,1439.63 545.981,1438.56 587.544,1437.29 629.108,1435.81 
  670.672,1434.07 712.236,1432.02 753.799,1429.62 795.363,1426.8 836.927,1423.5 878.491,1419.63 920.054,1415.11 961.618,1409.82 1003.18,1403.64 1044.75,1396.45 
  1086.31,1388.07 1127.87,1378.34 1169.44,1367.07 1211,1354.05 1252.56,1339.05 1294.13,1321.82 1335.69,1302.13 1377.26,1279.72 1418.82,1254.36 1460.38,1225.82 
  1501.95,1193.92 1543.51,1158.54 1585.07,1119.62 1626.64,1077.2 1668.2,1031.43 1709.77,982.566 1751.33,931.004 1792.89,877.252 1834.46,821.92 1876.02,765.702 
  1917.58,709.334 1959.15,653.561 2000.71,599.098 2042.27,546.593 2083.84,496.598 2125.4,449.551 2166.97,405.766 2208.53,365.436 2250.09,328.642 2291.66,295.362 
  
  "/>
<polyline clip-path="url(#clip492)" style="stroke:#ac8d18; stroke-linecap:butt; stroke-linejoin:round; stroke-width:12; stroke-opacity:1; fill:none" points="
  255.035,1444.69 296.598,1444.51 338.162,1444.29 379.726,1444.04 421.29,1443.74 462.853,1443.39 504.417,1442.98 545.981,1442.49 587.544,1441.92 629.108,1441.25 
  670.672,1440.46 712.236,1439.53 753.799,1438.44 795.363,1437.16 836.927,1435.65 878.491,1433.88 920.054,1431.8 961.618,1429.36 1003.18,1426.49 1044.75,1423.14 
  1086.31,1419.21 1127.87,1414.61 1169.44,1409.24 1211,1402.97 1252.56,1395.66 1294.13,1387.16 1335.69,1377.29 1377.26,1365.85 1418.82,1352.64 1460.38,1337.43 
  1501.95,1319.97 1543.51,1300.02 1585.07,1277.32 1626.64,1251.65 1668.2,1222.78 1709.77,1190.54 1751.33,1154.81 1792.89,1115.53 1834.46,1072.77 1876.02,1026.67 
  1917.58,977.523 1959.15,925.718 2000.71,871.779 2042.27,816.327 2083.84,760.059 2125.4,703.717 2166.97,648.045 2208.53,593.75 2250.09,541.473 2291.66,491.754 
  
  "/>
<polyline clip-path="url(#clip492)" style="stroke:#00a9ad; stroke-linecap:butt; stroke-linejoin:round; stroke-width:12; stroke-opacity:1; fill:none" points="
  255.035,1445.26 296.598,1445.18 338.162,1445.08 379.726,1444.97 421.29,1444.83 462.853,1444.68 504.417,1444.49 545.981,1444.27 587.544,1444.01 629.108,1443.71 
  670.672,1443.35 712.236,1442.94 753.799,1442.44 795.363,1441.86 836.927,1441.18 878.491,1440.38 920.054,1439.43 961.618,1438.32 1003.18,1437.02 1044.75,1435.48 
  1086.31,1433.68 1127.87,1431.57 1169.44,1429.09 1211,1426.18 1252.56,1422.77 1294.13,1418.78 1335.69,1414.11 1377.26,1408.66 1418.82,1402.29 1460.38,1394.87 
  1501.95,1386.24 1543.51,1376.22 1585.07,1364.62 1626.64,1351.22 1668.2,1335.79 1709.77,1318.09 1751.33,1297.88 1792.89,1274.89 1834.46,1248.91 1876.02,1219.71 
  1917.58,1187.13 1959.15,1151.04 2000.71,1111.41 2042.27,1068.31 2083.84,1021.89 2125.4,972.455 2166.97,920.411 2208.53,866.291 2250.09,810.725 2291.66,754.416 
  
  "/>
<polyline clip-path="url(#clip492)" style="stroke:#ed5d92; stroke-linecap:butt; stroke-linejoin:round; stroke-width:12; stroke-opacity:1; fill:none" points="
  255.035,1445.52 296.598,1445.48 338.162,1445.44 379.726,1445.38 421.29,1445.32 462.853,1445.25 504.417,1445.17 545.981,1445.07 587.544,1444.96 629.108,1444.82 
  670.672,1444.66 712.236,1444.47 753.799,1444.25 795.363,1443.99 836.927,1443.68 878.491,1443.32 920.054,1442.89 961.618,1442.39 1003.18,1441.8 1044.75,1441.1 
  1086.31,1440.29 1127.87,1439.33 1169.44,1438.2 1211,1436.87 1252.56,1435.32 1294.13,1433.49 1335.69,1431.34 1377.26,1428.82 1418.82,1425.86 1460.38,1422.4 
  1501.95,1418.35 1543.51,1413.61 1585.07,1408.06 1626.64,1401.6 1668.2,1394.06 1709.77,1385.3 1751.33,1375.13 1792.89,1363.36 1834.46,1349.77 1876.02,1334.12 
  1917.58,1316.19 1959.15,1295.71 2000.71,1272.43 2042.27,1246.14 2083.84,1216.61 2125.4,1183.68 2166.97,1147.23 2208.53,1107.26 2250.09,1063.81 2291.66,1017.08 
  
  "/>
<polyline clip-path="url(#clip492)" style="stroke:#c68125; stroke-linecap:butt; stroke-linejoin:round; stroke-width:12; stroke-opacity:1; fill:none" points="
  255.035,1445.63 296.598,1445.61 338.162,1445.59 379.726,1445.57 421.29,1445.54 462.853,1445.51 504.417,1445.47 545.981,1445.43 587.544,1445.38 629.108,1445.32 
  670.672,1445.25 712.236,1445.16 753.799,1445.06 795.363,1444.94 836.927,1444.8 878.491,1444.64 920.054,1444.45 961.618,1444.22 1003.18,1443.96 1044.75,1443.64 
  1086.31,1443.28 1127.87,1442.84 1169.44,1442.33 1211,1441.73 1252.56,1441.03 1294.13,1440.2 1335.69,1439.22 1377.26,1438.08 1418.82,1436.73 1460.38,1435.15 
  1501.95,1433.29 1543.51,1431.11 1585.07,1428.54 1626.64,1425.54 1668.2,1422.02 1709.77,1417.91 1751.33,1413.09 1792.89,1407.46 1834.46,1400.9 1876.02,1393.25 
  1917.58,1384.35 1959.15,1374.03 2000.71,1362.09 2042.27,1348.3 2083.84,1332.44 2125.4,1314.26 2166.97,1293.51 2208.53,1269.95 2250.09,1243.33 2291.66,1213.47 
  
  "/>
<polyline clip-path="url(#clip492)" style="stroke:#00a98d; stroke-linecap:butt; stroke-linejoin:round; stroke-width:12; stroke-opacity:1; fill:none" points="
  255.035,1445.68 296.598,1445.67 338.162,1445.67 379.726,1445.66 421.29,1445.64 462.853,1445.63 504.417,1445.61 545.981,1445.59 587.544,1445.57 629.108,1445.54 
  670.672,1445.51 712.236,1445.47 753.799,1445.43 795.363,1445.37 836.927,1445.31 878.491,1445.24 920.054,1445.15 961.618,1445.05 1003.18,1444.93 1044.75,1444.79 
  1086.31,1444.62 1127.87,1444.43 1169.44,1444.2 1211,1443.93 1252.56,1443.61 1294.13,1443.24 1335.69,1442.8 1377.26,1442.28 1418.82,1441.67 1460.38,1440.95 
  1501.95,1440.11 1543.51,1439.12 1585.07,1437.95 1626.64,1436.58 1668.2,1434.97 1709.77,1433.08 1751.33,1430.87 1792.89,1428.27 1834.46,1425.22 1876.02,1421.64 
  1917.58,1417.46 1959.15,1412.56 2000.71,1406.85 2042.27,1400.18 2083.84,1392.42 2125.4,1383.39 2166.97,1372.92 2208.53,1360.8 2250.09,1346.81 2291.66,1330.73 
  
  "/>
<polyline clip-path="url(#clip492)" style="stroke:#8e971d; stroke-linecap:butt; stroke-linejoin:round; stroke-width:12; stroke-opacity:1; fill:none" points="
  255.035,1445.71 296.598,1445.7 338.162,1445.7 379.726,1445.69 421.29,1445.69 462.853,1445.68 504.417,1445.67 545.981,1445.66 587.544,1445.65 629.108,1445.64 
  670.672,1445.63 712.236,1445.61 753.799,1445.59 795.363,1445.57 836.927,1445.54 878.491,1445.51 920.054,1445.47 961.618,1445.42 1003.18,1445.37 1044.75,1445.3 
  1086.31,1445.23 1127.87,1445.14 1169.44,1445.04 1211,1444.92 1252.56,1444.77 1294.13,1444.61 1335.69,1444.41 1377.26,1444.17 1418.82,1443.9 1460.38,1443.58 
  1501.95,1443.2 1543.51,1442.75 1585.07,1442.22 1626.64,1441.6 1668.2,1440.87 1709.77,1440.02 1751.33,1439.01 1792.89,1437.82 1834.46,1436.43 1876.02,1434.8 
  1917.58,1432.88 1959.15,1430.63 2000.71,1427.98 2042.27,1424.88 2083.84,1421.25 2125.4,1417 2166.97,1412.03 2208.53,1406.23 2250.09,1399.46 2291.66,1391.57 
  
  "/>
<polyline clip-path="url(#clip492)" style="stroke:#00a8cb; stroke-linecap:butt; stroke-linejoin:round; stroke-width:12; stroke-opacity:1; fill:none" points="
  255.035,1445.72 296.598,1445.71 338.162,1445.71 379.726,1445.71 421.29,1445.71 462.853,1445.7 504.417,1445.7 545.981,1445.7 587.544,1445.69 629.108,1445.69 
  670.672,1445.68 712.236,1445.67 753.799,1445.66 795.363,1445.65 836.927,1445.64 878.491,1445.63 920.054,1445.61 961.618,1445.59 1003.18,1445.56 1044.75,1445.54 
  1086.31,1445.5 1127.87,1445.46 1169.44,1445.42 1211,1445.36 1252.56,1445.3 1294.13,1445.22 1335.69,1445.13 1377.26,1445.03 1418.82,1444.9 1460.38,1444.76 
  1501.95,1444.59 1543.51,1444.39 1585.07,1444.15 1626.64,1443.87 1668.2,1443.54 1709.77,1443.15 1751.33,1442.7 1792.89,1442.16 1834.46,1441.53 1876.02,1440.79 
  1917.58,1439.92 1959.15,1438.9 2000.71,1437.7 2042.27,1436.28 2083.84,1434.62 2125.4,1432.67 2166.97,1430.38 2208.53,1427.69 2250.09,1424.54 2291.66,1420.86 
  
  "/>
</svg>
