<?xml version="1.0" encoding="utf-8"?>
<svg xmlns="http://www.w3.org/2000/svg" xmlns:xlink="http://www.w3.org/1999/xlink" width="600" height="400" viewBox="0 0 2400 1600">
<defs>
  <clipPath id="clip930">
    <rect x="0" y="0" width="2400" height="1600"/>
  </clipPath>
</defs>
<path clip-path="url(#clip930)" d="
M0 1600 L2400 1600 L2400 0 L0 0  Z
  " fill="#ffffff" fill-rule="evenodd" fill-opacity="1"/>
<defs>
  <clipPath id="clip931">
    <rect x="480" y="0" width="1681" height="1600"/>
  </clipPath>
</defs>
<path clip-path="url(#clip930)" d="
M213.607 1486.45 L2352.76 1486.45 L2352.76 47.2441 L213.607 47.2441  Z
  " fill="#ffffff" fill-rule="evenodd" fill-opacity="1"/>
<defs>
  <clipPath id="clip932">
    <rect x="213" y="47" width="2140" height="1440"/>
  </clipPath>
</defs>
<polyline clip-path="url(#clip932)" style="stroke:#000000; stroke-linecap:butt; stroke-linejoin:round; stroke-width:2; stroke-opacity:0.1; fill:none" points="
  699.005,1486.45 699.005,47.2441 
  "/>
<polyline clip-path="url(#clip932)" style="stroke:#000000; stroke-linecap:butt; stroke-linejoin:round; stroke-width:2; stroke-opacity:0.1; fill:none" points="
  1230.07,1486.45 1230.07,47.2441 
  "/>
<polyline clip-path="url(#clip932)" style="stroke:#000000; stroke-linecap:butt; stroke-linejoin:round; stroke-width:2; stroke-opacity:0.1; fill:none" points="
  1761.14,1486.45 1761.14,47.2441 
  "/>
<polyline clip-path="url(#clip932)" style="stroke:#000000; stroke-linecap:butt; stroke-linejoin:round; stroke-width:2; stroke-opacity:0.1; fill:none" points="
  2292.21,1486.45 2292.21,47.2441 
  "/>
<polyline clip-path="url(#clip930)" style="stroke:#000000; stroke-linecap:butt; stroke-linejoin:round; stroke-width:4; stroke-opacity:1; fill:none" points="
  213.607,1486.45 2352.76,1486.45 
  "/>
<polyline clip-path="url(#clip930)" style="stroke:#000000; stroke-linecap:butt; stroke-linejoin:round; stroke-width:4; stroke-opacity:1; fill:none" points="
  699.005,1486.45 699.005,1467.55 
  "/>
<polyline clip-path="url(#clip930)" style="stroke:#000000; stroke-linecap:butt; stroke-linejoin:round; stroke-width:4; stroke-opacity:1; fill:none" points="
  1230.07,1486.45 1230.07,1467.55 
  "/>
<polyline clip-path="url(#clip930)" style="stroke:#000000; stroke-linecap:butt; stroke-linejoin:round; stroke-width:4; stroke-opacity:1; fill:none" points="
  1761.14,1486.45 1761.14,1467.55 
  "/>
<polyline clip-path="url(#clip930)" style="stroke:#000000; stroke-linecap:butt; stroke-linejoin:round; stroke-width:4; stroke-opacity:1; fill:none" points="
  2292.21,1486.45 2292.21,1467.55 
  "/>
<path clip-path="url(#clip930)" d="M689.283 1514.29 L707.639 1514.29 L707.639 1518.22 L693.565 1518.22 L693.565 1526.7 Q694.584 1526.35 695.602 1526.19 Q696.621 1526 697.639 1526 Q703.426 1526 706.806 1529.17 Q710.186 1532.34 710.186 1537.76 Q710.186 1543.34 706.713 1546.44 Q703.241 1549.52 696.922 1549.52 Q694.746 1549.52 692.477 1549.15 Q690.232 1548.78 687.825 1548.04 L687.825 1543.34 Q689.908 1544.47 692.13 1545.03 Q694.352 1545.58 696.829 1545.58 Q700.834 1545.58 703.172 1543.48 Q705.51 1541.37 705.51 1537.76 Q705.51 1534.15 703.172 1532.04 Q700.834 1529.94 696.829 1529.94 Q694.954 1529.94 693.079 1530.35 Q691.227 1530.77 689.283 1531.65 L689.283 1514.29 Z" fill="#000000" fill-rule="evenodd" fill-opacity="1" /><path clip-path="url(#clip930)" d="M1204.76 1544.91 L1212.4 1544.91 L1212.4 1518.55 L1204.09 1520.21 L1204.09 1515.95 L1212.35 1514.29 L1217.03 1514.29 L1217.03 1544.91 L1224.67 1544.91 L1224.67 1548.85 L1204.76 1548.85 L1204.76 1544.91 Z" fill="#000000" fill-rule="evenodd" fill-opacity="1" /><path clip-path="url(#clip930)" d="M1244.11 1517.37 Q1240.5 1517.37 1238.67 1520.93 Q1236.87 1524.47 1236.87 1531.6 Q1236.87 1538.71 1238.67 1542.27 Q1240.5 1545.82 1244.11 1545.82 Q1247.75 1545.82 1249.55 1542.27 Q1251.38 1538.71 1251.38 1531.6 Q1251.38 1524.47 1249.55 1520.93 Q1247.75 1517.37 1244.11 1517.37 M1244.11 1513.66 Q1249.92 1513.66 1252.98 1518.27 Q1256.06 1522.85 1256.06 1531.6 Q1256.06 1540.33 1252.98 1544.94 Q1249.92 1549.52 1244.11 1549.52 Q1238.3 1549.52 1235.23 1544.94 Q1232.17 1540.33 1232.17 1531.6 Q1232.17 1522.85 1235.23 1518.27 Q1238.3 1513.66 1244.11 1513.66 Z" fill="#000000" fill-rule="evenodd" fill-opacity="1" /><path clip-path="url(#clip930)" d="M1736.33 1544.91 L1743.97 1544.91 L1743.97 1518.55 L1735.66 1520.21 L1735.66 1515.95 L1743.92 1514.29 L1748.6 1514.29 L1748.6 1544.91 L1756.24 1544.91 L1756.24 1548.85 L1736.33 1548.85 L1736.33 1544.91 Z" fill="#000000" fill-rule="evenodd" fill-opacity="1" /><path clip-path="url(#clip930)" d="M1765.73 1514.29 L1784.08 1514.29 L1784.08 1518.22 L1770.01 1518.22 L1770.01 1526.7 Q1771.03 1526.35 1772.05 1526.19 Q1773.07 1526 1774.08 1526 Q1779.87 1526 1783.25 1529.17 Q1786.63 1532.34 1786.63 1537.76 Q1786.63 1543.34 1783.16 1546.44 Q1779.69 1549.52 1773.37 1549.52 Q1771.19 1549.52 1768.92 1549.15 Q1766.68 1548.78 1764.27 1548.04 L1764.27 1543.34 Q1766.35 1544.47 1768.57 1545.03 Q1770.8 1545.58 1773.27 1545.58 Q1777.28 1545.58 1779.62 1543.48 Q1781.95 1541.37 1781.95 1537.76 Q1781.95 1534.15 1779.62 1532.04 Q1777.28 1529.94 1773.27 1529.94 Q1771.4 1529.94 1769.52 1530.35 Q1767.67 1530.77 1765.73 1531.65 L1765.73 1514.29 Z" fill="#000000" fill-rule="evenodd" fill-opacity="1" /><path clip-path="url(#clip930)" d="M2270.99 1544.91 L2287.31 1544.91 L2287.31 1548.85 L2265.36 1548.85 L2265.36 1544.91 Q2268.02 1542.16 2272.61 1537.53 Q2277.21 1532.88 2278.39 1531.53 Q2280.64 1529.01 2281.52 1527.27 Q2282.42 1525.51 2282.42 1523.82 Q2282.42 1521.07 2280.48 1519.33 Q2278.56 1517.6 2275.45 1517.6 Q2273.26 1517.6 2270.8 1518.36 Q2268.37 1519.13 2265.59 1520.68 L2265.59 1515.95 Q2268.42 1514.82 2270.87 1514.24 Q2273.33 1513.66 2275.36 1513.66 Q2280.73 1513.66 2283.93 1516.35 Q2287.12 1519.03 2287.12 1523.52 Q2287.12 1525.65 2286.31 1527.57 Q2285.52 1529.47 2283.42 1532.07 Q2282.84 1532.74 2279.74 1535.95 Q2276.64 1539.15 2270.99 1544.91 Z" fill="#000000" fill-rule="evenodd" fill-opacity="1" /><path clip-path="url(#clip930)" d="M2307.12 1517.37 Q2303.51 1517.37 2301.68 1520.93 Q2299.88 1524.47 2299.88 1531.6 Q2299.88 1538.71 2301.68 1542.27 Q2303.51 1545.82 2307.12 1545.82 Q2310.76 1545.82 2312.56 1542.27 Q2314.39 1538.71 2314.39 1531.6 Q2314.39 1524.47 2312.56 1520.93 Q2310.76 1517.37 2307.12 1517.37 M2307.12 1513.66 Q2312.93 1513.66 2315.99 1518.27 Q2319.07 1522.85 2319.07 1531.6 Q2319.07 1540.33 2315.99 1544.94 Q2312.93 1549.52 2307.12 1549.52 Q2301.31 1549.52 2298.23 1544.94 Q2295.18 1540.33 2295.18 1531.6 Q2295.18 1522.85 2298.23 1518.27 Q2301.31 1513.66 2307.12 1513.66 Z" fill="#000000" fill-rule="evenodd" fill-opacity="1" /><polyline clip-path="url(#clip932)" style="stroke:#000000; stroke-linecap:butt; stroke-linejoin:round; stroke-width:2; stroke-opacity:0.1; fill:none" points="
  213.607,1147.98 2352.76,1147.98 
  "/>
<polyline clip-path="url(#clip932)" style="stroke:#000000; stroke-linecap:butt; stroke-linejoin:round; stroke-width:2; stroke-opacity:0.1; fill:none" points="
  213.607,692.406 2352.76,692.406 
  "/>
<polyline clip-path="url(#clip932)" style="stroke:#000000; stroke-linecap:butt; stroke-linejoin:round; stroke-width:2; stroke-opacity:0.1; fill:none" points="
  213.607,236.826 2352.76,236.826 
  "/>
<polyline clip-path="url(#clip930)" style="stroke:#000000; stroke-linecap:butt; stroke-linejoin:round; stroke-width:4; stroke-opacity:1; fill:none" points="
  213.607,1486.45 213.607,47.2441 
  "/>
<polyline clip-path="url(#clip930)" style="stroke:#000000; stroke-linecap:butt; stroke-linejoin:round; stroke-width:4; stroke-opacity:1; fill:none" points="
  213.607,1147.98 232.505,1147.98 
  "/>
<polyline clip-path="url(#clip930)" style="stroke:#000000; stroke-linecap:butt; stroke-linejoin:round; stroke-width:4; stroke-opacity:1; fill:none" points="
  213.607,692.406 232.505,692.406 
  "/>
<polyline clip-path="url(#clip930)" style="stroke:#000000; stroke-linecap:butt; stroke-linejoin:round; stroke-width:4; stroke-opacity:1; fill:none" points="
  213.607,236.826 232.505,236.826 
  "/>
<path clip-path="url(#clip930)" d="M51.6634 1167.78 L59.3023 1167.78 L59.3023 1141.41 L50.9921 1143.08 L50.9921 1138.82 L59.256 1137.15 L63.9319 1137.15 L63.9319 1167.78 L71.5707 1167.78 L71.5707 1171.71 L51.6634 1171.71 L51.6634 1167.78 Z" fill="#000000" fill-rule="evenodd" fill-opacity="1" /><path clip-path="url(#clip930)" d="M91.0151 1140.23 Q87.404 1140.23 85.5753 1143.8 Q83.7697 1147.34 83.7697 1154.47 Q83.7697 1161.57 85.5753 1165.14 Q87.404 1168.68 91.0151 1168.68 Q94.6493 1168.68 96.4548 1165.14 Q98.2835 1161.57 98.2835 1154.47 Q98.2835 1147.34 96.4548 1143.8 Q94.6493 1140.23 91.0151 1140.23 M91.0151 1136.53 Q96.8252 1136.53 99.8808 1141.13 Q102.959 1145.72 102.959 1154.47 Q102.959 1163.19 99.8808 1167.8 Q96.8252 1172.38 91.0151 1172.38 Q85.2049 1172.38 82.1262 1167.8 Q79.0707 1163.19 79.0707 1154.47 Q79.0707 1145.72 82.1262 1141.13 Q85.2049 1136.53 91.0151 1136.53 Z" fill="#000000" fill-rule="evenodd" fill-opacity="1" /><path clip-path="url(#clip930)" d="M102.959 1130.63 L127.071 1130.63 L127.071 1133.83 L102.959 1133.83 L102.959 1130.63 Z" fill="#000000" fill-rule="evenodd" fill-opacity="1" /><path clip-path="url(#clip930)" d="M135.929 1141.1 L142.136 1141.1 L142.136 1119.68 L135.384 1121.04 L135.384 1117.58 L142.098 1116.22 L145.898 1116.22 L145.898 1141.1 L152.104 1141.1 L152.104 1144.3 L135.929 1144.3 L135.929 1141.1 Z" fill="#000000" fill-rule="evenodd" fill-opacity="1" /><path clip-path="url(#clip930)" d="M167.903 1118.72 Q164.969 1118.72 163.483 1121.62 Q162.016 1124.5 162.016 1130.29 Q162.016 1136.06 163.483 1138.96 Q164.969 1141.84 167.903 1141.84 Q170.855 1141.84 172.322 1138.96 Q173.808 1136.06 173.808 1130.29 Q173.808 1124.5 172.322 1121.62 Q170.855 1118.72 167.903 1118.72 M167.903 1115.71 Q172.623 1115.71 175.106 1119.46 Q177.607 1123.18 177.607 1130.29 Q177.607 1137.38 175.106 1141.12 Q172.623 1144.85 167.903 1144.85 Q163.182 1144.85 160.68 1141.12 Q158.198 1137.38 158.198 1130.29 Q158.198 1123.18 160.68 1119.46 Q163.182 1115.71 167.903 1115.71 Z" fill="#000000" fill-rule="evenodd" fill-opacity="1" /><path clip-path="url(#clip930)" d="M76.9787 712.198 L84.6175 712.198 L84.6175 685.832 L76.3074 687.499 L76.3074 683.24 L84.5712 681.573 L89.2471 681.573 L89.2471 712.198 L96.886 712.198 L96.886 716.133 L76.9787 716.133 L76.9787 712.198 Z" fill="#000000" fill-rule="evenodd" fill-opacity="1" /><path clip-path="url(#clip930)" d="M116.33 684.652 Q112.719 684.652 110.891 688.217 Q109.085 691.758 109.085 698.888 Q109.085 705.994 110.891 709.559 Q112.719 713.101 116.33 713.101 Q119.965 713.101 121.77 709.559 Q123.599 705.994 123.599 698.888 Q123.599 691.758 121.77 688.217 Q119.965 684.652 116.33 684.652 M116.33 680.948 Q122.14 680.948 125.196 685.555 Q128.275 690.138 128.275 698.888 Q128.275 707.615 125.196 712.221 Q122.14 716.804 116.33 716.804 Q110.52 716.804 107.441 712.221 Q104.386 707.615 104.386 698.888 Q104.386 690.138 107.441 685.555 Q110.52 680.948 116.33 680.948 Z" fill="#000000" fill-rule="evenodd" fill-opacity="1" /><path clip-path="url(#clip930)" d="M128.275 675.049 L152.386 675.049 L152.386 678.247 L128.275 678.247 L128.275 675.049 Z" fill="#000000" fill-rule="evenodd" fill-opacity="1" /><path clip-path="url(#clip930)" d="M160.624 660.643 L175.539 660.643 L175.539 663.84 L164.103 663.84 L164.103 670.724 Q164.931 670.442 165.759 670.31 Q166.586 670.159 167.414 670.159 Q172.116 670.159 174.862 672.736 Q177.607 675.313 177.607 679.714 Q177.607 684.246 174.786 686.767 Q171.965 689.268 166.831 689.268 Q165.063 689.268 163.22 688.967 Q161.395 688.666 159.439 688.064 L159.439 684.246 Q161.132 685.168 162.937 685.619 Q164.743 686.071 166.755 686.071 Q170.009 686.071 171.909 684.359 Q173.808 682.648 173.808 679.714 Q173.808 676.78 171.909 675.068 Q170.009 673.357 166.755 673.357 Q165.232 673.357 163.709 673.695 Q162.204 674.034 160.624 674.749 L160.624 660.643 Z" fill="#000000" fill-rule="evenodd" fill-opacity="1" /><path clip-path="url(#clip930)" d="M106.902 256.618 L114.541 256.618 L114.541 230.253 L106.231 231.92 L106.231 227.66 L114.494 225.994 L119.17 225.994 L119.17 256.618 L126.809 256.618 L126.809 260.554 L106.902 260.554 L106.902 256.618 Z" fill="#000000" fill-rule="evenodd" fill-opacity="1" /><path clip-path="url(#clip930)" d="M146.253 229.072 Q142.642 229.072 140.814 232.637 Q139.008 236.179 139.008 243.308 Q139.008 250.415 140.814 253.98 Q142.642 257.521 146.253 257.521 Q149.888 257.521 151.693 253.98 Q153.522 250.415 153.522 243.308 Q153.522 236.179 151.693 232.637 Q149.888 229.072 146.253 229.072 M146.253 225.369 Q152.064 225.369 155.119 229.975 Q158.198 234.558 158.198 243.308 Q158.198 252.035 155.119 256.642 Q152.064 261.225 146.253 261.225 Q140.443 261.225 137.365 256.642 Q134.309 252.035 134.309 243.308 Q134.309 234.558 137.365 229.975 Q140.443 225.369 146.253 225.369 Z" fill="#000000" fill-rule="evenodd" fill-opacity="1" /><path clip-path="url(#clip930)" d="M167.903 207.565 Q164.969 207.565 163.483 210.461 Q162.016 213.339 162.016 219.131 Q162.016 224.905 163.483 227.802 Q164.969 230.679 167.903 230.679 Q170.855 230.679 172.322 227.802 Q173.808 224.905 173.808 219.131 Q173.808 213.339 172.322 210.461 Q170.855 207.565 167.903 207.565 M167.903 204.555 Q172.623 204.555 175.106 208.298 Q177.607 212.022 177.607 219.131 Q177.607 226.222 175.106 229.965 Q172.623 233.689 167.903 233.689 Q163.182 233.689 160.68 229.965 Q158.198 226.222 158.198 219.131 Q158.198 212.022 160.68 208.298 Q163.182 204.555 167.903 204.555 Z" fill="#000000" fill-rule="evenodd" fill-opacity="1" /><polyline clip-path="url(#clip932)" style="stroke:#009af9; stroke-linecap:butt; stroke-linejoin:round; stroke-width:12; stroke-opacity:1; fill:none" points="
  274.149,87.9763 380.363,97.6827 486.577,109.827 592.791,121.216 699.005,144.723 805.219,153.921 911.433,190.574 1017.65,195.825 1123.86,216.074 1230.07,239.79 
  1336.29,238.556 1442.5,412.108 1548.72,596.009 1654.93,996.822 1761.14,1445.52 1867.36,1445.72 1973.57,1445.48 2079.79,1445.59 2186,1444.77 2292.21,1444.86 
  
  "/>
<line clip-path="url(#clip932)" x1="274.149" y1="87.9763" x2="274.149" y2="71.9763" style="stroke:#009af9; stroke-width:3.2; stroke-opacity:1"/>
<line clip-path="url(#clip932)" x1="274.149" y1="87.9763" x2="258.149" y2="87.9763" style="stroke:#009af9; stroke-width:3.2; stroke-opacity:1"/>
<line clip-path="url(#clip932)" x1="274.149" y1="87.9763" x2="274.149" y2="103.976" style="stroke:#009af9; stroke-width:3.2; stroke-opacity:1"/>
<line clip-path="url(#clip932)" x1="274.149" y1="87.9763" x2="290.149" y2="87.9763" style="stroke:#009af9; stroke-width:3.2; stroke-opacity:1"/>
<line clip-path="url(#clip932)" x1="380.363" y1="97.6827" x2="380.363" y2="81.6827" style="stroke:#009af9; stroke-width:3.2; stroke-opacity:1"/>
<line clip-path="url(#clip932)" x1="380.363" y1="97.6827" x2="364.363" y2="97.6827" style="stroke:#009af9; stroke-width:3.2; stroke-opacity:1"/>
<line clip-path="url(#clip932)" x1="380.363" y1="97.6827" x2="380.363" y2="113.683" style="stroke:#009af9; stroke-width:3.2; stroke-opacity:1"/>
<line clip-path="url(#clip932)" x1="380.363" y1="97.6827" x2="396.363" y2="97.6827" style="stroke:#009af9; stroke-width:3.2; stroke-opacity:1"/>
<line clip-path="url(#clip932)" x1="486.577" y1="109.827" x2="486.577" y2="93.8271" style="stroke:#009af9; stroke-width:3.2; stroke-opacity:1"/>
<line clip-path="url(#clip932)" x1="486.577" y1="109.827" x2="470.577" y2="109.827" style="stroke:#009af9; stroke-width:3.2; stroke-opacity:1"/>
<line clip-path="url(#clip932)" x1="486.577" y1="109.827" x2="486.577" y2="125.827" style="stroke:#009af9; stroke-width:3.2; stroke-opacity:1"/>
<line clip-path="url(#clip932)" x1="486.577" y1="109.827" x2="502.577" y2="109.827" style="stroke:#009af9; stroke-width:3.2; stroke-opacity:1"/>
<line clip-path="url(#clip932)" x1="592.791" y1="121.216" x2="592.791" y2="105.216" style="stroke:#009af9; stroke-width:3.2; stroke-opacity:1"/>
<line clip-path="url(#clip932)" x1="592.791" y1="121.216" x2="576.791" y2="121.216" style="stroke:#009af9; stroke-width:3.2; stroke-opacity:1"/>
<line clip-path="url(#clip932)" x1="592.791" y1="121.216" x2="592.791" y2="137.216" style="stroke:#009af9; stroke-width:3.2; stroke-opacity:1"/>
<line clip-path="url(#clip932)" x1="592.791" y1="121.216" x2="608.791" y2="121.216" style="stroke:#009af9; stroke-width:3.2; stroke-opacity:1"/>
<line clip-path="url(#clip932)" x1="699.005" y1="144.723" x2="699.005" y2="128.723" style="stroke:#009af9; stroke-width:3.2; stroke-opacity:1"/>
<line clip-path="url(#clip932)" x1="699.005" y1="144.723" x2="683.005" y2="144.723" style="stroke:#009af9; stroke-width:3.2; stroke-opacity:1"/>
<line clip-path="url(#clip932)" x1="699.005" y1="144.723" x2="699.005" y2="160.723" style="stroke:#009af9; stroke-width:3.2; stroke-opacity:1"/>
<line clip-path="url(#clip932)" x1="699.005" y1="144.723" x2="715.005" y2="144.723" style="stroke:#009af9; stroke-width:3.2; stroke-opacity:1"/>
<line clip-path="url(#clip932)" x1="805.219" y1="153.921" x2="805.219" y2="137.921" style="stroke:#009af9; stroke-width:3.2; stroke-opacity:1"/>
<line clip-path="url(#clip932)" x1="805.219" y1="153.921" x2="789.219" y2="153.921" style="stroke:#009af9; stroke-width:3.2; stroke-opacity:1"/>
<line clip-path="url(#clip932)" x1="805.219" y1="153.921" x2="805.219" y2="169.921" style="stroke:#009af9; stroke-width:3.2; stroke-opacity:1"/>
<line clip-path="url(#clip932)" x1="805.219" y1="153.921" x2="821.219" y2="153.921" style="stroke:#009af9; stroke-width:3.2; stroke-opacity:1"/>
<line clip-path="url(#clip932)" x1="911.433" y1="190.574" x2="911.433" y2="174.574" style="stroke:#009af9; stroke-width:3.2; stroke-opacity:1"/>
<line clip-path="url(#clip932)" x1="911.433" y1="190.574" x2="895.433" y2="190.574" style="stroke:#009af9; stroke-width:3.2; stroke-opacity:1"/>
<line clip-path="url(#clip932)" x1="911.433" y1="190.574" x2="911.433" y2="206.574" style="stroke:#009af9; stroke-width:3.2; stroke-opacity:1"/>
<line clip-path="url(#clip932)" x1="911.433" y1="190.574" x2="927.433" y2="190.574" style="stroke:#009af9; stroke-width:3.2; stroke-opacity:1"/>
<line clip-path="url(#clip932)" x1="1017.65" y1="195.825" x2="1017.65" y2="179.825" style="stroke:#009af9; stroke-width:3.2; stroke-opacity:1"/>
<line clip-path="url(#clip932)" x1="1017.65" y1="195.825" x2="1001.65" y2="195.825" style="stroke:#009af9; stroke-width:3.2; stroke-opacity:1"/>
<line clip-path="url(#clip932)" x1="1017.65" y1="195.825" x2="1017.65" y2="211.825" style="stroke:#009af9; stroke-width:3.2; stroke-opacity:1"/>
<line clip-path="url(#clip932)" x1="1017.65" y1="195.825" x2="1033.65" y2="195.825" style="stroke:#009af9; stroke-width:3.2; stroke-opacity:1"/>
<line clip-path="url(#clip932)" x1="1123.86" y1="216.074" x2="1123.86" y2="200.074" style="stroke:#009af9; stroke-width:3.2; stroke-opacity:1"/>
<line clip-path="url(#clip932)" x1="1123.86" y1="216.074" x2="1107.86" y2="216.074" style="stroke:#009af9; stroke-width:3.2; stroke-opacity:1"/>
<line clip-path="url(#clip932)" x1="1123.86" y1="216.074" x2="1123.86" y2="232.074" style="stroke:#009af9; stroke-width:3.2; stroke-opacity:1"/>
<line clip-path="url(#clip932)" x1="1123.86" y1="216.074" x2="1139.86" y2="216.074" style="stroke:#009af9; stroke-width:3.2; stroke-opacity:1"/>
<line clip-path="url(#clip932)" x1="1230.07" y1="239.79" x2="1230.07" y2="223.79" style="stroke:#009af9; stroke-width:3.2; stroke-opacity:1"/>
<line clip-path="url(#clip932)" x1="1230.07" y1="239.79" x2="1214.07" y2="239.79" style="stroke:#009af9; stroke-width:3.2; stroke-opacity:1"/>
<line clip-path="url(#clip932)" x1="1230.07" y1="239.79" x2="1230.07" y2="255.79" style="stroke:#009af9; stroke-width:3.2; stroke-opacity:1"/>
<line clip-path="url(#clip932)" x1="1230.07" y1="239.79" x2="1246.07" y2="239.79" style="stroke:#009af9; stroke-width:3.2; stroke-opacity:1"/>
<line clip-path="url(#clip932)" x1="1336.29" y1="238.556" x2="1336.29" y2="222.556" style="stroke:#009af9; stroke-width:3.2; stroke-opacity:1"/>
<line clip-path="url(#clip932)" x1="1336.29" y1="238.556" x2="1320.29" y2="238.556" style="stroke:#009af9; stroke-width:3.2; stroke-opacity:1"/>
<line clip-path="url(#clip932)" x1="1336.29" y1="238.556" x2="1336.29" y2="254.556" style="stroke:#009af9; stroke-width:3.2; stroke-opacity:1"/>
<line clip-path="url(#clip932)" x1="1336.29" y1="238.556" x2="1352.29" y2="238.556" style="stroke:#009af9; stroke-width:3.2; stroke-opacity:1"/>
<line clip-path="url(#clip932)" x1="1442.5" y1="412.108" x2="1442.5" y2="396.108" style="stroke:#009af9; stroke-width:3.2; stroke-opacity:1"/>
<line clip-path="url(#clip932)" x1="1442.5" y1="412.108" x2="1426.5" y2="412.108" style="stroke:#009af9; stroke-width:3.2; stroke-opacity:1"/>
<line clip-path="url(#clip932)" x1="1442.5" y1="412.108" x2="1442.5" y2="428.108" style="stroke:#009af9; stroke-width:3.2; stroke-opacity:1"/>
<line clip-path="url(#clip932)" x1="1442.5" y1="412.108" x2="1458.5" y2="412.108" style="stroke:#009af9; stroke-width:3.2; stroke-opacity:1"/>
<line clip-path="url(#clip932)" x1="1548.72" y1="596.009" x2="1548.72" y2="580.009" style="stroke:#009af9; stroke-width:3.2; stroke-opacity:1"/>
<line clip-path="url(#clip932)" x1="1548.72" y1="596.009" x2="1532.72" y2="596.009" style="stroke:#009af9; stroke-width:3.2; stroke-opacity:1"/>
<line clip-path="url(#clip932)" x1="1548.72" y1="596.009" x2="1548.72" y2="612.009" style="stroke:#009af9; stroke-width:3.2; stroke-opacity:1"/>
<line clip-path="url(#clip932)" x1="1548.72" y1="596.009" x2="1564.72" y2="596.009" style="stroke:#009af9; stroke-width:3.2; stroke-opacity:1"/>
<line clip-path="url(#clip932)" x1="1654.93" y1="996.822" x2="1654.93" y2="980.822" style="stroke:#009af9; stroke-width:3.2; stroke-opacity:1"/>
<line clip-path="url(#clip932)" x1="1654.93" y1="996.822" x2="1638.93" y2="996.822" style="stroke:#009af9; stroke-width:3.2; stroke-opacity:1"/>
<line clip-path="url(#clip932)" x1="1654.93" y1="996.822" x2="1654.93" y2="1012.82" style="stroke:#009af9; stroke-width:3.2; stroke-opacity:1"/>
<line clip-path="url(#clip932)" x1="1654.93" y1="996.822" x2="1670.93" y2="996.822" style="stroke:#009af9; stroke-width:3.2; stroke-opacity:1"/>
<line clip-path="url(#clip932)" x1="1761.14" y1="1445.52" x2="1761.14" y2="1429.52" style="stroke:#009af9; stroke-width:3.2; stroke-opacity:1"/>
<line clip-path="url(#clip932)" x1="1761.14" y1="1445.52" x2="1745.14" y2="1445.52" style="stroke:#009af9; stroke-width:3.2; stroke-opacity:1"/>
<line clip-path="url(#clip932)" x1="1761.14" y1="1445.52" x2="1761.14" y2="1461.52" style="stroke:#009af9; stroke-width:3.2; stroke-opacity:1"/>
<line clip-path="url(#clip932)" x1="1761.14" y1="1445.52" x2="1777.14" y2="1445.52" style="stroke:#009af9; stroke-width:3.2; stroke-opacity:1"/>
<line clip-path="url(#clip932)" x1="1867.36" y1="1445.72" x2="1867.36" y2="1429.72" style="stroke:#009af9; stroke-width:3.2; stroke-opacity:1"/>
<line clip-path="url(#clip932)" x1="1867.36" y1="1445.72" x2="1851.36" y2="1445.72" style="stroke:#009af9; stroke-width:3.2; stroke-opacity:1"/>
<line clip-path="url(#clip932)" x1="1867.36" y1="1445.72" x2="1867.36" y2="1461.72" style="stroke:#009af9; stroke-width:3.2; stroke-opacity:1"/>
<line clip-path="url(#clip932)" x1="1867.36" y1="1445.72" x2="1883.36" y2="1445.72" style="stroke:#009af9; stroke-width:3.2; stroke-opacity:1"/>
<line clip-path="url(#clip932)" x1="1973.57" y1="1445.48" x2="1973.57" y2="1429.48" style="stroke:#009af9; stroke-width:3.2; stroke-opacity:1"/>
<line clip-path="url(#clip932)" x1="1973.57" y1="1445.48" x2="1957.57" y2="1445.48" style="stroke:#009af9; stroke-width:3.2; stroke-opacity:1"/>
<line clip-path="url(#clip932)" x1="1973.57" y1="1445.48" x2="1973.57" y2="1461.48" style="stroke:#009af9; stroke-width:3.2; stroke-opacity:1"/>
<line clip-path="url(#clip932)" x1="1973.57" y1="1445.48" x2="1989.57" y2="1445.48" style="stroke:#009af9; stroke-width:3.2; stroke-opacity:1"/>
<line clip-path="url(#clip932)" x1="2079.79" y1="1445.59" x2="2079.79" y2="1429.59" style="stroke:#009af9; stroke-width:3.2; stroke-opacity:1"/>
<line clip-path="url(#clip932)" x1="2079.79" y1="1445.59" x2="2063.79" y2="1445.59" style="stroke:#009af9; stroke-width:3.2; stroke-opacity:1"/>
<line clip-path="url(#clip932)" x1="2079.79" y1="1445.59" x2="2079.79" y2="1461.59" style="stroke:#009af9; stroke-width:3.2; stroke-opacity:1"/>
<line clip-path="url(#clip932)" x1="2079.79" y1="1445.59" x2="2095.79" y2="1445.59" style="stroke:#009af9; stroke-width:3.2; stroke-opacity:1"/>
<line clip-path="url(#clip932)" x1="2186" y1="1444.77" x2="2186" y2="1428.77" style="stroke:#009af9; stroke-width:3.2; stroke-opacity:1"/>
<line clip-path="url(#clip932)" x1="2186" y1="1444.77" x2="2170" y2="1444.77" style="stroke:#009af9; stroke-width:3.2; stroke-opacity:1"/>
<line clip-path="url(#clip932)" x1="2186" y1="1444.77" x2="2186" y2="1460.77" style="stroke:#009af9; stroke-width:3.2; stroke-opacity:1"/>
<line clip-path="url(#clip932)" x1="2186" y1="1444.77" x2="2202" y2="1444.77" style="stroke:#009af9; stroke-width:3.2; stroke-opacity:1"/>
<line clip-path="url(#clip932)" x1="2292.21" y1="1444.86" x2="2292.21" y2="1428.86" style="stroke:#009af9; stroke-width:3.2; stroke-opacity:1"/>
<line clip-path="url(#clip932)" x1="2292.21" y1="1444.86" x2="2276.21" y2="1444.86" style="stroke:#009af9; stroke-width:3.2; stroke-opacity:1"/>
<line clip-path="url(#clip932)" x1="2292.21" y1="1444.86" x2="2292.21" y2="1460.86" style="stroke:#009af9; stroke-width:3.2; stroke-opacity:1"/>
<line clip-path="url(#clip932)" x1="2292.21" y1="1444.86" x2="2308.21" y2="1444.86" style="stroke:#009af9; stroke-width:3.2; stroke-opacity:1"/>
<path clip-path="url(#clip930)" d="
M1991.34 198.898 L2281.45 198.898 L2281.45 95.2176 L1991.34 95.2176  Z
  " fill="#ffffff" fill-rule="evenodd" fill-opacity="1"/>
<polyline clip-path="url(#clip930)" style="stroke:#000000; stroke-linecap:butt; stroke-linejoin:round; stroke-width:4; stroke-opacity:1; fill:none" points="
  1991.34,198.898 2281.45,198.898 2281.45,95.2176 1991.34,95.2176 1991.34,198.898 
  "/>
<polyline clip-path="url(#clip930)" style="stroke:#009af9; stroke-linecap:butt; stroke-linejoin:round; stroke-width:4; stroke-opacity:1; fill:none" points="
  2015.11,147.058 2157.72,147.058 
  "/>
<line clip-path="url(#clip930)" x1="2086.41" y1="147.058" x2="2086.41" y2="121.458" style="stroke:#009af9; stroke-width:5.12; stroke-opacity:1"/>
<line clip-path="url(#clip930)" x1="2086.41" y1="147.058" x2="2060.81" y2="147.058" style="stroke:#009af9; stroke-width:5.12; stroke-opacity:1"/>
<line clip-path="url(#clip930)" x1="2086.41" y1="147.058" x2="2086.41" y2="172.658" style="stroke:#009af9; stroke-width:5.12; stroke-opacity:1"/>
<line clip-path="url(#clip930)" x1="2086.41" y1="147.058" x2="2112.01" y2="147.058" style="stroke:#009af9; stroke-width:5.12; stroke-opacity:1"/>
<path clip-path="url(#clip930)" d="M2195.33 166.745 Q2193.52 171.375 2191.81 172.787 Q2190.1 174.199 2187.22 174.199 L2183.82 174.199 L2183.82 170.634 L2186.32 170.634 Q2188.08 170.634 2189.05 169.8 Q2190.03 168.967 2191.21 165.865 L2191.97 163.921 L2181.48 138.412 L2186 138.412 L2194.1 158.689 L2202.2 138.412 L2206.72 138.412 L2195.33 166.745 Z" fill="#000000" fill-rule="evenodd" fill-opacity="1" /><path clip-path="url(#clip930)" d="M2214.01 160.402 L2221.65 160.402 L2221.65 134.037 L2213.34 135.703 L2213.34 131.444 L2221.6 129.778 L2226.28 129.778 L2226.28 160.402 L2233.91 160.402 L2233.91 164.338 L2214.01 164.338 L2214.01 160.402 Z" fill="#000000" fill-rule="evenodd" fill-opacity="1" /></svg>
