<?xml version="1.0" encoding="utf-8"?>
<svg xmlns="http://www.w3.org/2000/svg" xmlns:xlink="http://www.w3.org/1999/xlink" width="600" height="400" viewBox="0 0 2400 1600">
<defs>
  <clipPath id="clip650">
    <rect x="0" y="0" width="2400" height="1600"/>
  </clipPath>
</defs>
<path clip-path="url(#clip650)" d="
M0 1600 L2400 1600 L2400 0 L0 0  Z
  " fill="#ffffff" fill-rule="evenodd" fill-opacity="1"/>
<defs>
  <clipPath id="clip651">
    <rect x="480" y="0" width="1681" height="1600"/>
  </clipPath>
</defs>
<path clip-path="url(#clip650)" d="
M193.936 1486.45 L2352.76 1486.45 L2352.76 47.2441 L193.936 47.2441  Z
  " fill="#ffffff" fill-rule="evenodd" fill-opacity="1"/>
<defs>
  <clipPath id="clip652">
    <rect x="193" y="47" width="2160" height="1440"/>
  </clipPath>
</defs>
<polyline clip-path="url(#clip652)" style="stroke:#000000; stroke-linecap:butt; stroke-linejoin:round; stroke-width:2; stroke-opacity:0.1; fill:none" points="
  255.035,1486.45 255.035,47.2441 
  "/>
<polyline clip-path="url(#clip652)" style="stroke:#000000; stroke-linecap:butt; stroke-linejoin:round; stroke-width:2; stroke-opacity:0.1; fill:none" points="
  764.19,1486.45 764.19,47.2441 
  "/>
<polyline clip-path="url(#clip652)" style="stroke:#000000; stroke-linecap:butt; stroke-linejoin:round; stroke-width:2; stroke-opacity:0.1; fill:none" points="
  1273.35,1486.45 1273.35,47.2441 
  "/>
<polyline clip-path="url(#clip652)" style="stroke:#000000; stroke-linecap:butt; stroke-linejoin:round; stroke-width:2; stroke-opacity:0.1; fill:none" points="
  1782.5,1486.45 1782.5,47.2441 
  "/>
<polyline clip-path="url(#clip652)" style="stroke:#000000; stroke-linecap:butt; stroke-linejoin:round; stroke-width:2; stroke-opacity:0.1; fill:none" points="
  2291.66,1486.45 2291.66,47.2441 
  "/>
<polyline clip-path="url(#clip650)" style="stroke:#000000; stroke-linecap:butt; stroke-linejoin:round; stroke-width:4; stroke-opacity:1; fill:none" points="
  193.936,1486.45 2352.76,1486.45 
  "/>
<polyline clip-path="url(#clip650)" style="stroke:#000000; stroke-linecap:butt; stroke-linejoin:round; stroke-width:4; stroke-opacity:1; fill:none" points="
  255.035,1486.45 255.035,1467.55 
  "/>
<polyline clip-path="url(#clip650)" style="stroke:#000000; stroke-linecap:butt; stroke-linejoin:round; stroke-width:4; stroke-opacity:1; fill:none" points="
  764.19,1486.45 764.19,1467.55 
  "/>
<polyline clip-path="url(#clip650)" style="stroke:#000000; stroke-linecap:butt; stroke-linejoin:round; stroke-width:4; stroke-opacity:1; fill:none" points="
  1273.35,1486.45 1273.35,1467.55 
  "/>
<polyline clip-path="url(#clip650)" style="stroke:#000000; stroke-linecap:butt; stroke-linejoin:round; stroke-width:4; stroke-opacity:1; fill:none" points="
  1782.5,1486.45 1782.5,1467.55 
  "/>
<polyline clip-path="url(#clip650)" style="stroke:#000000; stroke-linecap:butt; stroke-linejoin:round; stroke-width:4; stroke-opacity:1; fill:none" points="
  2291.66,1486.45 2291.66,1467.55 
  "/>
<path clip-path="url(#clip650)" d="M232.419 1517.37 Q228.808 1517.37 226.979 1520.93 Q225.174 1524.47 225.174 1531.6 Q225.174 1538.71 226.979 1542.27 Q228.808 1545.82 232.419 1545.82 Q236.053 1545.82 237.859 1542.27 Q239.688 1538.71 239.688 1531.6 Q239.688 1524.47 237.859 1520.93 Q236.053 1517.37 232.419 1517.37 M232.419 1513.66 Q238.229 1513.66 241.285 1518.27 Q244.363 1522.85 244.363 1531.6 Q244.363 1540.33 241.285 1544.94 Q238.229 1549.52 232.419 1549.52 Q226.609 1549.52 223.53 1544.94 Q220.475 1540.33 220.475 1531.6 Q220.475 1522.85 223.53 1518.27 Q226.609 1513.66 232.419 1513.66 Z" fill="#000000" fill-rule="evenodd" fill-opacity="1" /><path clip-path="url(#clip650)" d="M252.581 1542.97 L257.465 1542.97 L257.465 1548.85 L252.581 1548.85 L252.581 1542.97 Z" fill="#000000" fill-rule="evenodd" fill-opacity="1" /><path clip-path="url(#clip650)" d="M277.65 1517.37 Q274.039 1517.37 272.211 1520.93 Q270.405 1524.47 270.405 1531.6 Q270.405 1538.71 272.211 1542.27 Q274.039 1545.82 277.65 1545.82 Q281.285 1545.82 283.09 1542.27 Q284.919 1538.71 284.919 1531.6 Q284.919 1524.47 283.09 1520.93 Q281.285 1517.37 277.65 1517.37 M277.65 1513.66 Q283.46 1513.66 286.516 1518.27 Q289.595 1522.85 289.595 1531.6 Q289.595 1540.33 286.516 1544.94 Q283.46 1549.52 277.65 1549.52 Q271.84 1549.52 268.761 1544.94 Q265.706 1540.33 265.706 1531.6 Q265.706 1522.85 268.761 1518.27 Q271.84 1513.66 277.65 1513.66 Z" fill="#000000" fill-rule="evenodd" fill-opacity="1" /><path clip-path="url(#clip650)" d="M735.927 1544.91 L752.246 1544.91 L752.246 1548.85 L730.302 1548.85 L730.302 1544.91 Q732.964 1542.16 737.547 1537.53 Q742.153 1532.88 743.334 1531.53 Q745.579 1529.01 746.459 1527.27 Q747.362 1525.51 747.362 1523.82 Q747.362 1521.07 745.417 1519.33 Q743.496 1517.6 740.394 1517.6 Q738.195 1517.6 735.741 1518.36 Q733.311 1519.13 730.533 1520.68 L730.533 1515.95 Q733.357 1514.82 735.811 1514.24 Q738.265 1513.66 740.302 1513.66 Q745.672 1513.66 748.866 1516.35 Q752.061 1519.03 752.061 1523.52 Q752.061 1525.65 751.251 1527.57 Q750.464 1529.47 748.357 1532.07 Q747.778 1532.74 744.677 1535.95 Q741.575 1539.15 735.927 1544.91 Z" fill="#000000" fill-rule="evenodd" fill-opacity="1" /><path clip-path="url(#clip650)" d="M762.061 1542.97 L766.945 1542.97 L766.945 1548.85 L762.061 1548.85 L762.061 1542.97 Z" fill="#000000" fill-rule="evenodd" fill-opacity="1" /><path clip-path="url(#clip650)" d="M777.176 1514.29 L795.533 1514.29 L795.533 1518.22 L781.459 1518.22 L781.459 1526.7 Q782.477 1526.35 783.496 1526.19 Q784.514 1526 785.533 1526 Q791.32 1526 794.699 1529.17 Q798.079 1532.34 798.079 1537.76 Q798.079 1543.34 794.607 1546.44 Q791.135 1549.52 784.815 1549.52 Q782.639 1549.52 780.371 1549.15 Q778.125 1548.78 775.718 1548.04 L775.718 1543.34 Q777.801 1544.47 780.024 1545.03 Q782.246 1545.58 784.723 1545.58 Q788.727 1545.58 791.065 1543.48 Q793.403 1541.37 793.403 1537.76 Q793.403 1534.15 791.065 1532.04 Q788.727 1529.94 784.723 1529.94 Q782.848 1529.94 780.973 1530.35 Q779.121 1530.77 777.176 1531.65 L777.176 1514.29 Z" fill="#000000" fill-rule="evenodd" fill-opacity="1" /><path clip-path="url(#clip650)" d="M1240.51 1514.29 L1258.87 1514.29 L1258.87 1518.22 L1244.79 1518.22 L1244.79 1526.7 Q1245.81 1526.35 1246.83 1526.19 Q1247.85 1526 1248.87 1526 Q1254.65 1526 1258.03 1529.17 Q1261.41 1532.34 1261.41 1537.76 Q1261.41 1543.34 1257.94 1546.44 Q1254.47 1549.52 1248.15 1549.52 Q1245.97 1549.52 1243.7 1549.15 Q1241.46 1548.78 1239.05 1548.04 L1239.05 1543.34 Q1241.14 1544.47 1243.36 1545.03 Q1245.58 1545.58 1248.06 1545.58 Q1252.06 1545.58 1254.4 1543.48 Q1256.74 1541.37 1256.74 1537.76 Q1256.74 1534.15 1254.4 1532.04 Q1252.06 1529.94 1248.06 1529.94 Q1246.18 1529.94 1244.31 1530.35 Q1242.45 1530.77 1240.51 1531.65 L1240.51 1514.29 Z" fill="#000000" fill-rule="evenodd" fill-opacity="1" /><path clip-path="url(#clip650)" d="M1270.63 1542.97 L1275.51 1542.97 L1275.51 1548.85 L1270.63 1548.85 L1270.63 1542.97 Z" fill="#000000" fill-rule="evenodd" fill-opacity="1" /><path clip-path="url(#clip650)" d="M1295.7 1517.37 Q1292.08 1517.37 1290.26 1520.93 Q1288.45 1524.47 1288.45 1531.6 Q1288.45 1538.71 1290.26 1542.27 Q1292.08 1545.82 1295.7 1545.82 Q1299.33 1545.82 1301.14 1542.27 Q1302.96 1538.71 1302.96 1531.6 Q1302.96 1524.47 1301.14 1520.93 Q1299.33 1517.37 1295.7 1517.37 M1295.7 1513.66 Q1301.51 1513.66 1304.56 1518.27 Q1307.64 1522.85 1307.64 1531.6 Q1307.64 1540.33 1304.56 1544.94 Q1301.51 1549.52 1295.7 1549.52 Q1289.89 1549.52 1286.81 1544.94 Q1283.75 1540.33 1283.75 1531.6 Q1283.75 1522.85 1286.81 1518.27 Q1289.89 1513.66 1295.7 1513.66 Z" fill="#000000" fill-rule="evenodd" fill-opacity="1" /><path clip-path="url(#clip650)" d="M1748.82 1514.29 L1771.04 1514.29 L1771.04 1516.28 L1758.5 1548.85 L1753.61 1548.85 L1765.42 1518.22 L1748.82 1518.22 L1748.82 1514.29 Z" fill="#000000" fill-rule="evenodd" fill-opacity="1" /><path clip-path="url(#clip650)" d="M1780.16 1542.97 L1785.05 1542.97 L1785.05 1548.85 L1780.16 1548.85 L1780.16 1542.97 Z" fill="#000000" fill-rule="evenodd" fill-opacity="1" /><path clip-path="url(#clip650)" d="M1795.28 1514.29 L1813.64 1514.29 L1813.64 1518.22 L1799.56 1518.22 L1799.56 1526.7 Q1800.58 1526.35 1801.6 1526.19 Q1802.62 1526 1803.64 1526 Q1809.42 1526 1812.8 1529.17 Q1816.18 1532.34 1816.18 1537.76 Q1816.18 1543.34 1812.71 1546.44 Q1809.24 1549.52 1802.92 1549.52 Q1800.74 1549.52 1798.47 1549.15 Q1796.23 1548.78 1793.82 1548.04 L1793.82 1543.34 Q1795.9 1544.47 1798.13 1545.03 Q1800.35 1545.58 1802.83 1545.58 Q1806.83 1545.58 1809.17 1543.48 Q1811.51 1541.37 1811.51 1537.76 Q1811.51 1534.15 1809.17 1532.04 Q1806.83 1529.94 1802.83 1529.94 Q1800.95 1529.94 1799.08 1530.35 Q1797.22 1530.77 1795.28 1531.65 L1795.28 1514.29 Z" fill="#000000" fill-rule="evenodd" fill-opacity="1" /><path clip-path="url(#clip650)" d="M2243.73 1544.91 L2251.37 1544.91 L2251.37 1518.55 L2243.06 1520.21 L2243.06 1515.95 L2251.32 1514.29 L2256 1514.29 L2256 1544.91 L2263.64 1544.91 L2263.64 1548.85 L2243.73 1548.85 L2243.73 1544.91 Z" fill="#000000" fill-rule="evenodd" fill-opacity="1" /><path clip-path="url(#clip650)" d="M2283.08 1517.37 Q2279.47 1517.37 2277.64 1520.93 Q2275.84 1524.47 2275.84 1531.6 Q2275.84 1538.71 2277.64 1542.27 Q2279.47 1545.82 2283.08 1545.82 Q2286.72 1545.82 2288.52 1542.27 Q2290.35 1538.71 2290.35 1531.6 Q2290.35 1524.47 2288.52 1520.93 Q2286.72 1517.37 2283.08 1517.37 M2283.08 1513.66 Q2288.89 1513.66 2291.95 1518.27 Q2295.03 1522.85 2295.03 1531.6 Q2295.03 1540.33 2291.95 1544.94 Q2288.89 1549.52 2283.08 1549.52 Q2277.27 1549.52 2274.19 1544.94 Q2271.14 1540.33 2271.14 1531.6 Q2271.14 1522.85 2274.19 1518.27 Q2277.27 1513.66 2283.08 1513.66 Z" fill="#000000" fill-rule="evenodd" fill-opacity="1" /><path clip-path="url(#clip650)" d="M2303.24 1542.97 L2308.13 1542.97 L2308.13 1548.85 L2303.24 1548.85 L2303.24 1542.97 Z" fill="#000000" fill-rule="evenodd" fill-opacity="1" /><path clip-path="url(#clip650)" d="M2328.31 1517.37 Q2324.7 1517.37 2322.87 1520.93 Q2321.07 1524.47 2321.07 1531.6 Q2321.07 1538.71 2322.87 1542.27 Q2324.7 1545.82 2328.31 1545.82 Q2331.95 1545.82 2333.75 1542.27 Q2335.58 1538.71 2335.58 1531.6 Q2335.58 1524.47 2333.75 1520.93 Q2331.95 1517.37 2328.31 1517.37 M2328.31 1513.66 Q2334.12 1513.66 2337.18 1518.27 Q2340.26 1522.85 2340.26 1531.6 Q2340.26 1540.33 2337.18 1544.94 Q2334.12 1549.52 2328.31 1549.52 Q2322.5 1549.52 2319.42 1544.94 Q2316.37 1540.33 2316.37 1531.6 Q2316.37 1522.85 2319.42 1518.27 Q2322.5 1513.66 2328.31 1513.66 Z" fill="#000000" fill-rule="evenodd" fill-opacity="1" /><polyline clip-path="url(#clip652)" style="stroke:#000000; stroke-linecap:butt; stroke-linejoin:round; stroke-width:2; stroke-opacity:0.1; fill:none" points="
  193.936,1436.71 2352.76,1436.71 
  "/>
<polyline clip-path="url(#clip652)" style="stroke:#000000; stroke-linecap:butt; stroke-linejoin:round; stroke-width:2; stroke-opacity:0.1; fill:none" points="
  193.936,1211.92 2352.76,1211.92 
  "/>
<polyline clip-path="url(#clip652)" style="stroke:#000000; stroke-linecap:butt; stroke-linejoin:round; stroke-width:2; stroke-opacity:0.1; fill:none" points="
  193.936,987.134 2352.76,987.134 
  "/>
<polyline clip-path="url(#clip652)" style="stroke:#000000; stroke-linecap:butt; stroke-linejoin:round; stroke-width:2; stroke-opacity:0.1; fill:none" points="
  193.936,762.344 2352.76,762.344 
  "/>
<polyline clip-path="url(#clip652)" style="stroke:#000000; stroke-linecap:butt; stroke-linejoin:round; stroke-width:2; stroke-opacity:0.1; fill:none" points="
  193.936,537.555 2352.76,537.555 
  "/>
<polyline clip-path="url(#clip652)" style="stroke:#000000; stroke-linecap:butt; stroke-linejoin:round; stroke-width:2; stroke-opacity:0.1; fill:none" points="
  193.936,312.766 2352.76,312.766 
  "/>
<polyline clip-path="url(#clip652)" style="stroke:#000000; stroke-linecap:butt; stroke-linejoin:round; stroke-width:2; stroke-opacity:0.1; fill:none" points="
  193.936,87.9763 2352.76,87.9763 
  "/>
<polyline clip-path="url(#clip650)" style="stroke:#000000; stroke-linecap:butt; stroke-linejoin:round; stroke-width:4; stroke-opacity:1; fill:none" points="
  193.936,1486.45 193.936,47.2441 
  "/>
<polyline clip-path="url(#clip650)" style="stroke:#000000; stroke-linecap:butt; stroke-linejoin:round; stroke-width:4; stroke-opacity:1; fill:none" points="
  193.936,1436.71 212.834,1436.71 
  "/>
<polyline clip-path="url(#clip650)" style="stroke:#000000; stroke-linecap:butt; stroke-linejoin:round; stroke-width:4; stroke-opacity:1; fill:none" points="
  193.936,1211.92 212.834,1211.92 
  "/>
<polyline clip-path="url(#clip650)" style="stroke:#000000; stroke-linecap:butt; stroke-linejoin:round; stroke-width:4; stroke-opacity:1; fill:none" points="
  193.936,987.134 212.834,987.134 
  "/>
<polyline clip-path="url(#clip650)" style="stroke:#000000; stroke-linecap:butt; stroke-linejoin:round; stroke-width:4; stroke-opacity:1; fill:none" points="
  193.936,762.344 212.834,762.344 
  "/>
<polyline clip-path="url(#clip650)" style="stroke:#000000; stroke-linecap:butt; stroke-linejoin:round; stroke-width:4; stroke-opacity:1; fill:none" points="
  193.936,537.555 212.834,537.555 
  "/>
<polyline clip-path="url(#clip650)" style="stroke:#000000; stroke-linecap:butt; stroke-linejoin:round; stroke-width:4; stroke-opacity:1; fill:none" points="
  193.936,312.766 212.834,312.766 
  "/>
<polyline clip-path="url(#clip650)" style="stroke:#000000; stroke-linecap:butt; stroke-linejoin:round; stroke-width:4; stroke-opacity:1; fill:none" points="
  193.936,87.9763 212.834,87.9763 
  "/>
<path clip-path="url(#clip650)" d="M51.9875 1437.16 L81.6633 1437.16 L81.6633 1441.1 L51.9875 1441.1 L51.9875 1437.16 Z" fill="#000000" fill-rule="evenodd" fill-opacity="1" /><path clip-path="url(#clip650)" d="M92.566 1450.06 L100.205 1450.06 L100.205 1423.69 L91.8947 1425.36 L91.8947 1421.1 L100.159 1419.43 L104.834 1419.43 L104.834 1450.06 L112.473 1450.06 L112.473 1453.99 L92.566 1453.99 L92.566 1450.06 Z" fill="#000000" fill-rule="evenodd" fill-opacity="1" /><path clip-path="url(#clip650)" d="M121.918 1448.11 L126.802 1448.11 L126.802 1453.99 L121.918 1453.99 L121.918 1448.11 Z" fill="#000000" fill-rule="evenodd" fill-opacity="1" /><path clip-path="url(#clip650)" d="M137.033 1419.43 L155.39 1419.43 L155.39 1423.37 L141.316 1423.37 L141.316 1431.84 Q142.334 1431.49 143.353 1431.33 Q144.371 1431.15 145.39 1431.15 Q151.177 1431.15 154.556 1434.32 Q157.936 1437.49 157.936 1442.9 Q157.936 1448.48 154.464 1451.59 Q150.992 1454.66 144.672 1454.66 Q142.496 1454.66 140.228 1454.29 Q137.982 1453.92 135.575 1453.18 L135.575 1448.48 Q137.658 1449.62 139.881 1450.17 Q142.103 1450.73 144.58 1450.73 Q148.584 1450.73 150.922 1448.62 Q153.26 1446.52 153.26 1442.9 Q153.26 1439.29 150.922 1437.19 Q148.584 1435.08 144.58 1435.08 Q142.705 1435.08 140.83 1435.5 Q138.978 1435.91 137.033 1436.79 L137.033 1419.43 Z" fill="#000000" fill-rule="evenodd" fill-opacity="1" /><path clip-path="url(#clip650)" d="M50.9921 1212.37 L80.6679 1212.37 L80.6679 1216.31 L50.9921 1216.31 L50.9921 1212.37 Z" fill="#000000" fill-rule="evenodd" fill-opacity="1" /><path clip-path="url(#clip650)" d="M91.5706 1225.27 L99.2095 1225.27 L99.2095 1198.9 L90.8993 1200.57 L90.8993 1196.31 L99.1632 1194.64 L103.839 1194.64 L103.839 1225.27 L111.478 1225.27 L111.478 1229.2 L91.5706 1229.2 L91.5706 1225.27 Z" fill="#000000" fill-rule="evenodd" fill-opacity="1" /><path clip-path="url(#clip650)" d="M120.922 1223.32 L125.807 1223.32 L125.807 1229.2 L120.922 1229.2 L120.922 1223.32 Z" fill="#000000" fill-rule="evenodd" fill-opacity="1" /><path clip-path="url(#clip650)" d="M145.992 1197.72 Q142.381 1197.72 140.552 1201.29 Q138.746 1204.83 138.746 1211.96 Q138.746 1219.06 140.552 1222.63 Q142.381 1226.17 145.992 1226.17 Q149.626 1226.17 151.431 1222.63 Q153.26 1219.06 153.26 1211.96 Q153.26 1204.83 151.431 1201.29 Q149.626 1197.72 145.992 1197.72 M145.992 1194.02 Q151.802 1194.02 154.857 1198.62 Q157.936 1203.21 157.936 1211.96 Q157.936 1220.68 154.857 1225.29 Q151.802 1229.87 145.992 1229.87 Q140.181 1229.87 137.103 1225.29 Q134.047 1220.68 134.047 1211.96 Q134.047 1203.21 137.103 1198.62 Q140.181 1194.02 145.992 1194.02 Z" fill="#000000" fill-rule="evenodd" fill-opacity="1" /><path clip-path="url(#clip650)" d="M51.9875 987.585 L81.6633 987.585 L81.6633 991.52 L51.9875 991.52 L51.9875 987.585 Z" fill="#000000" fill-rule="evenodd" fill-opacity="1" /><path clip-path="url(#clip650)" d="M101.756 972.933 Q98.1447 972.933 96.316 976.497 Q94.5104 980.039 94.5104 987.169 Q94.5104 994.275 96.316 997.84 Q98.1447 1001.38 101.756 1001.38 Q105.39 1001.38 107.196 997.84 Q109.024 994.275 109.024 987.169 Q109.024 980.039 107.196 976.497 Q105.39 972.933 101.756 972.933 M101.756 969.229 Q107.566 969.229 110.621 973.835 Q113.7 978.419 113.7 987.169 Q113.7 995.895 110.621 1000.5 Q107.566 1005.09 101.756 1005.09 Q95.9456 1005.09 92.8669 1000.5 Q89.8114 995.895 89.8114 987.169 Q89.8114 978.419 92.8669 973.835 Q95.9456 969.229 101.756 969.229 Z" fill="#000000" fill-rule="evenodd" fill-opacity="1" /><path clip-path="url(#clip650)" d="M121.918 998.534 L126.802 998.534 L126.802 1004.41 L121.918 1004.41 L121.918 998.534 Z" fill="#000000" fill-rule="evenodd" fill-opacity="1" /><path clip-path="url(#clip650)" d="M137.033 969.854 L155.39 969.854 L155.39 973.789 L141.316 973.789 L141.316 982.261 Q142.334 981.914 143.353 981.752 Q144.371 981.567 145.39 981.567 Q151.177 981.567 154.556 984.738 Q157.936 987.909 157.936 993.326 Q157.936 998.905 154.464 1002.01 Q150.992 1005.09 144.672 1005.09 Q142.496 1005.09 140.228 1004.71 Q137.982 1004.34 135.575 1003.6 L135.575 998.905 Q137.658 1000.04 139.881 1000.59 Q142.103 1001.15 144.58 1001.15 Q148.584 1001.15 150.922 999.043 Q153.26 996.937 153.26 993.326 Q153.26 989.715 150.922 987.608 Q148.584 985.502 144.58 985.502 Q142.705 985.502 140.83 985.919 Q138.978 986.335 137.033 987.215 L137.033 969.854 Z" fill="#000000" fill-rule="evenodd" fill-opacity="1" /><path clip-path="url(#clip650)" d="M100.76 748.143 Q97.1493 748.143 95.3206 751.708 Q93.515 755.25 93.515 762.379 Q93.515 769.486 95.3206 773.05 Q97.1493 776.592 100.76 776.592 Q104.395 776.592 106.2 773.05 Q108.029 769.486 108.029 762.379 Q108.029 755.25 106.2 751.708 Q104.395 748.143 100.76 748.143 M100.76 744.439 Q106.571 744.439 109.626 749.046 Q112.705 753.629 112.705 762.379 Q112.705 771.106 109.626 775.712 Q106.571 780.296 100.76 780.296 Q94.9502 780.296 91.8715 775.712 Q88.816 771.106 88.816 762.379 Q88.816 753.629 91.8715 749.046 Q94.9502 744.439 100.76 744.439 Z" fill="#000000" fill-rule="evenodd" fill-opacity="1" /><path clip-path="url(#clip650)" d="M120.922 773.745 L125.807 773.745 L125.807 779.624 L120.922 779.624 L120.922 773.745 Z" fill="#000000" fill-rule="evenodd" fill-opacity="1" /><path clip-path="url(#clip650)" d="M145.992 748.143 Q142.381 748.143 140.552 751.708 Q138.746 755.25 138.746 762.379 Q138.746 769.486 140.552 773.05 Q142.381 776.592 145.992 776.592 Q149.626 776.592 151.431 773.05 Q153.26 769.486 153.26 762.379 Q153.26 755.25 151.431 751.708 Q149.626 748.143 145.992 748.143 M145.992 744.439 Q151.802 744.439 154.857 749.046 Q157.936 753.629 157.936 762.379 Q157.936 771.106 154.857 775.712 Q151.802 780.296 145.992 780.296 Q140.181 780.296 137.103 775.712 Q134.047 771.106 134.047 762.379 Q134.047 753.629 137.103 749.046 Q140.181 744.439 145.992 744.439 Z" fill="#000000" fill-rule="evenodd" fill-opacity="1" /><path clip-path="url(#clip650)" d="M101.756 523.354 Q98.1447 523.354 96.316 526.919 Q94.5104 530.46 94.5104 537.59 Q94.5104 544.696 96.316 548.261 Q98.1447 551.803 101.756 551.803 Q105.39 551.803 107.196 548.261 Q109.024 544.696 109.024 537.59 Q109.024 530.46 107.196 526.919 Q105.39 523.354 101.756 523.354 M101.756 519.65 Q107.566 519.65 110.621 524.257 Q113.7 528.84 113.7 537.59 Q113.7 546.317 110.621 550.923 Q107.566 555.506 101.756 555.506 Q95.9456 555.506 92.8669 550.923 Q89.8114 546.317 89.8114 537.59 Q89.8114 528.84 92.8669 524.257 Q95.9456 519.65 101.756 519.65 Z" fill="#000000" fill-rule="evenodd" fill-opacity="1" /><path clip-path="url(#clip650)" d="M121.918 548.955 L126.802 548.955 L126.802 554.835 L121.918 554.835 L121.918 548.955 Z" fill="#000000" fill-rule="evenodd" fill-opacity="1" /><path clip-path="url(#clip650)" d="M137.033 520.275 L155.39 520.275 L155.39 524.21 L141.316 524.21 L141.316 532.682 Q142.334 532.335 143.353 532.173 Q144.371 531.988 145.39 531.988 Q151.177 531.988 154.556 535.159 Q157.936 538.331 157.936 543.747 Q157.936 549.326 154.464 552.428 Q150.992 555.506 144.672 555.506 Q142.496 555.506 140.228 555.136 Q137.982 554.766 135.575 554.025 L135.575 549.326 Q137.658 550.46 139.881 551.016 Q142.103 551.571 144.58 551.571 Q148.584 551.571 150.922 549.465 Q153.26 547.358 153.26 543.747 Q153.26 540.136 150.922 538.03 Q148.584 535.923 144.58 535.923 Q142.705 535.923 140.83 536.34 Q138.978 536.756 137.033 537.636 L137.033 520.275 Z" fill="#000000" fill-rule="evenodd" fill-opacity="1" /><path clip-path="url(#clip650)" d="M91.5706 326.11 L99.2095 326.11 L99.2095 299.745 L90.8993 301.412 L90.8993 297.152 L99.1632 295.486 L103.839 295.486 L103.839 326.11 L111.478 326.11 L111.478 330.046 L91.5706 330.046 L91.5706 326.11 Z" fill="#000000" fill-rule="evenodd" fill-opacity="1" /><path clip-path="url(#clip650)" d="M120.922 324.166 L125.807 324.166 L125.807 330.046 L120.922 330.046 L120.922 324.166 Z" fill="#000000" fill-rule="evenodd" fill-opacity="1" /><path clip-path="url(#clip650)" d="M145.992 298.564 Q142.381 298.564 140.552 302.129 Q138.746 305.671 138.746 312.8 Q138.746 319.907 140.552 323.472 Q142.381 327.013 145.992 327.013 Q149.626 327.013 151.431 323.472 Q153.26 319.907 153.26 312.8 Q153.26 305.671 151.431 302.129 Q149.626 298.564 145.992 298.564 M145.992 294.861 Q151.802 294.861 154.857 299.467 Q157.936 304.05 157.936 312.8 Q157.936 321.527 154.857 326.134 Q151.802 330.717 145.992 330.717 Q140.181 330.717 137.103 326.134 Q134.047 321.527 134.047 312.8 Q134.047 304.05 137.103 299.467 Q140.181 294.861 145.992 294.861 Z" fill="#000000" fill-rule="evenodd" fill-opacity="1" /><path clip-path="url(#clip650)" d="M92.566 101.321 L100.205 101.321 L100.205 74.9555 L91.8947 76.6222 L91.8947 72.3629 L100.159 70.6963 L104.834 70.6963 L104.834 101.321 L112.473 101.321 L112.473 105.256 L92.566 105.256 L92.566 101.321 Z" fill="#000000" fill-rule="evenodd" fill-opacity="1" /><path clip-path="url(#clip650)" d="M121.918 99.3767 L126.802 99.3767 L126.802 105.256 L121.918 105.256 L121.918 99.3767 Z" fill="#000000" fill-rule="evenodd" fill-opacity="1" /><path clip-path="url(#clip650)" d="M137.033 70.6963 L155.39 70.6963 L155.39 74.6314 L141.316 74.6314 L141.316 83.1036 Q142.334 82.7564 143.353 82.5944 Q144.371 82.4092 145.39 82.4092 Q151.177 82.4092 154.556 85.5805 Q157.936 88.7517 157.936 94.1684 Q157.936 99.747 154.464 102.849 Q150.992 105.928 144.672 105.928 Q142.496 105.928 140.228 105.557 Q137.982 105.187 135.575 104.446 L135.575 99.747 Q137.658 100.881 139.881 101.437 Q142.103 101.992 144.58 101.992 Q148.584 101.992 150.922 99.8859 Q153.26 97.7795 153.26 94.1684 Q153.26 90.5573 150.922 88.4508 Q148.584 86.3443 144.58 86.3443 Q142.705 86.3443 140.83 86.761 Q138.978 87.1777 137.033 88.0573 L137.033 70.6963 Z" fill="#000000" fill-rule="evenodd" fill-opacity="1" /><circle clip-path="url(#clip652)" cx="255.035" cy="537.555" r="14.4" fill="#009af9" fill-rule="evenodd" fill-opacity="1" stroke="#000000" stroke-opacity="1" stroke-width="3.2"/>
<circle clip-path="url(#clip652)" cx="336.5" cy="87.9763" r="14.4" fill="#009af9" fill-rule="evenodd" fill-opacity="1" stroke="#000000" stroke-opacity="1" stroke-width="3.2"/>
<circle clip-path="url(#clip652)" cx="417.964" cy="608.534" r="14.4" fill="#009af9" fill-rule="evenodd" fill-opacity="1" stroke="#000000" stroke-opacity="1" stroke-width="3.2"/>
<circle clip-path="url(#clip652)" cx="499.429" cy="289.706" r="14.4" fill="#009af9" fill-rule="evenodd" fill-opacity="1" stroke="#000000" stroke-opacity="1" stroke-width="3.2"/>
<circle clip-path="url(#clip652)" cx="580.894" cy="909.166" r="14.4" fill="#009af9" fill-rule="evenodd" fill-opacity="1" stroke="#000000" stroke-opacity="1" stroke-width="3.2"/>
<circle clip-path="url(#clip652)" cx="662.359" cy="641.778" r="14.4" fill="#009af9" fill-rule="evenodd" fill-opacity="1" stroke="#000000" stroke-opacity="1" stroke-width="3.2"/>
<circle clip-path="url(#clip652)" cx="743.824" cy="1257.09" r="14.4" fill="#009af9" fill-rule="evenodd" fill-opacity="1" stroke="#000000" stroke-opacity="1" stroke-width="3.2"/>
<circle clip-path="url(#clip652)" cx="825.289" cy="930.629" r="14.4" fill="#009af9" fill-rule="evenodd" fill-opacity="1" stroke="#000000" stroke-opacity="1" stroke-width="3.2"/>
<circle clip-path="url(#clip652)" cx="906.754" cy="1441.27" r="14.4" fill="#009af9" fill-rule="evenodd" fill-opacity="1" stroke="#000000" stroke-opacity="1" stroke-width="3.2"/>
<circle clip-path="url(#clip652)" cx="988.219" cy="981.047" r="14.4" fill="#009af9" fill-rule="evenodd" fill-opacity="1" stroke="#000000" stroke-opacity="1" stroke-width="3.2"/>
<circle clip-path="url(#clip652)" cx="1069.68" cy="1349.97" r="14.4" fill="#009af9" fill-rule="evenodd" fill-opacity="1" stroke="#000000" stroke-opacity="1" stroke-width="3.2"/>
<circle clip-path="url(#clip652)" cx="1151.15" cy="762.449" r="14.4" fill="#009af9" fill-rule="evenodd" fill-opacity="1" stroke="#000000" stroke-opacity="1" stroke-width="3.2"/>
<circle clip-path="url(#clip652)" cx="1232.61" cy="1038.58" r="14.4" fill="#009af9" fill-rule="evenodd" fill-opacity="1" stroke="#000000" stroke-opacity="1" stroke-width="3.2"/>
<circle clip-path="url(#clip652)" cx="1314.08" cy="407.433" r="14.4" fill="#009af9" fill-rule="evenodd" fill-opacity="1" stroke="#000000" stroke-opacity="1" stroke-width="3.2"/>
<circle clip-path="url(#clip652)" cx="1395.54" cy="695.986" r="14.4" fill="#009af9" fill-rule="evenodd" fill-opacity="1" stroke="#000000" stroke-opacity="1" stroke-width="3.2"/>
<circle clip-path="url(#clip652)" cx="1477.01" cy="131.347" r="14.4" fill="#009af9" fill-rule="evenodd" fill-opacity="1" stroke="#000000" stroke-opacity="1" stroke-width="3.2"/>
<circle clip-path="url(#clip652)" cx="1558.47" cy="529.997" r="14.4" fill="#009af9" fill-rule="evenodd" fill-opacity="1" stroke="#000000" stroke-opacity="1" stroke-width="3.2"/>
<circle clip-path="url(#clip652)" cx="1639.94" cy="101.662" r="14.4" fill="#009af9" fill-rule="evenodd" fill-opacity="1" stroke="#000000" stroke-opacity="1" stroke-width="3.2"/>
<circle clip-path="url(#clip652)" cx="1721.4" cy="641.302" r="14.4" fill="#009af9" fill-rule="evenodd" fill-opacity="1" stroke="#000000" stroke-opacity="1" stroke-width="3.2"/>
<circle clip-path="url(#clip652)" cx="1802.87" cy="336.383" r="14.4" fill="#009af9" fill-rule="evenodd" fill-opacity="1" stroke="#000000" stroke-opacity="1" stroke-width="3.2"/>
<circle clip-path="url(#clip652)" cx="1884.33" cy="962.383" r="14.4" fill="#009af9" fill-rule="evenodd" fill-opacity="1" stroke="#000000" stroke-opacity="1" stroke-width="3.2"/>
<circle clip-path="url(#clip652)" cx="1965.8" cy="693.133" r="14.4" fill="#009af9" fill-rule="evenodd" fill-opacity="1" stroke="#000000" stroke-opacity="1" stroke-width="3.2"/>
<circle clip-path="url(#clip652)" cx="2047.26" cy="1298.48" r="14.4" fill="#009af9" fill-rule="evenodd" fill-opacity="1" stroke="#000000" stroke-opacity="1" stroke-width="3.2"/>
<circle clip-path="url(#clip652)" cx="2128.73" cy="955.511" r="14.4" fill="#009af9" fill-rule="evenodd" fill-opacity="1" stroke="#000000" stroke-opacity="1" stroke-width="3.2"/>
<circle clip-path="url(#clip652)" cx="2210.19" cy="1445.72" r="14.4" fill="#009af9" fill-rule="evenodd" fill-opacity="1" stroke="#000000" stroke-opacity="1" stroke-width="3.2"/>
<circle clip-path="url(#clip652)" cx="2291.66" cy="964.363" r="14.4" fill="#009af9" fill-rule="evenodd" fill-opacity="1" stroke="#000000" stroke-opacity="1" stroke-width="3.2"/>
<polyline clip-path="url(#clip652)" style="stroke:#e26f46; stroke-linecap:butt; stroke-linejoin:round; stroke-width:12; stroke-opacity:1; fill:none" points="
  255.035,312.766 258.35,312.825 261.664,313.004 264.979,313.302 268.294,313.718 283.62,317.187 298.945,323.175 306.608,327.103 314.27,331.648 321.933,336.803 
  329.596,342.559 337.259,348.91 344.921,355.847 352.584,363.358 360.247,371.434 375.572,389.235 390.898,409.147 400.108,422.082 409.318,435.713 418.527,450.013 
  427.737,464.95 446.157,496.618 464.577,530.458 480.151,560.56 495.725,591.841 511.299,624.119 526.872,657.205 560.707,730.937 594.542,805.535 625.735,873.3 
  656.928,938.468 673.649,971.798 690.37,1003.72 707.091,1034.01 723.812,1062.47 733.499,1078.05 743.185,1092.91 752.872,1107.02 762.558,1120.35 772.245,1132.88 
  781.931,1144.56 791.617,1155.39 801.304,1165.32 809.912,1173.38 818.52,1180.71 827.129,1187.29 835.737,1193.11 844.345,1198.17 852.953,1202.44 861.561,1205.93 
  870.17,1208.62 885.267,1211.42 900.364,1211.76 915.461,1209.62 930.558,1205.03 938.788,1201.51 947.018,1197.26 955.248,1192.3 963.478,1186.65 971.708,1180.29 
  979.938,1173.26 988.168,1165.56 996.398,1157.19 1004.68,1148.13 1012.96,1138.43 1021.24,1128.11 1029.51,1117.19 1046.07,1093.59 1062.63,1067.81 1080.94,1036.97 
  1099.24,1003.91 1117.55,968.897 1135.86,932.217 1170.69,858.884 1205.53,782.733 1241.75,702.954 1277.98,625.049 1293.22,593.417 1308.47,562.731 1323.71,533.162 
  1338.96,504.878 1348.27,488.311 1357.57,472.316 1366.88,456.927 1376.19,442.175 1385.49,428.092 1394.8,414.706 1404.11,402.047 1413.41,390.139 1421.94,379.913 
  1430.46,370.356 1438.99,361.487 1447.51,353.319 1456.04,345.869 1464.57,339.148 1473.09,333.168 1481.62,327.941 1489.49,323.789 1497.36,320.292 1505.24,317.456 
  1513.11,315.285 1520.99,313.782 1528.86,312.949 1536.73,312.788 1544.61,313.299 1552.58,314.501 1560.56,316.39 1568.54,318.962 1576.51,322.215 1584.49,326.142 
  1592.46,330.739 1600.44,335.997 1608.42,341.909 1617.36,349.301 1626.29,357.488 1635.23,366.455 1644.17,376.184 1653.11,386.657 1662.05,397.854 1670.99,409.753 
  1679.93,422.331 1696.13,446.778 1712.33,473.221 1728.53,501.492 1744.73,531.412 1763.28,567.451 1781.83,605.105 1800.37,644.062 1818.92,684 1853.27,759.42 
  1887.62,834.923 1904.55,871.515 1921.48,907.354 1938.41,942.19 1955.34,975.785 1971.78,1006.99 1988.22,1036.61 2004.66,1064.44 2021.1,1090.3 2029.53,1102.74 
  2037.95,1114.6 2046.38,1125.85 2054.8,1136.48 2071.66,1155.8 2088.51,1172.43 2097.74,1180.36 2106.97,1187.43 2116.2,1193.63 2125.44,1198.94 2134.67,1203.35 
  2143.9,1206.86 2153.13,1209.45 2162.36,1211.12 2175.77,1211.91 2189.18,1210.76 2202.59,1207.65 2216,1202.62 2229.42,1195.68 2242.83,1186.86 2256.24,1176.21 
  2269.65,1163.75 2275.15,1158.14 2280.65,1152.23 2286.15,1146.04 2291.66,1139.57 
  "/>
<path clip-path="url(#clip650)" d="
M1988.5 250.738 L2280.8 250.738 L2280.8 95.2176 L1988.5 95.2176  Z
  " fill="#ffffff" fill-rule="evenodd" fill-opacity="1"/>
<polyline clip-path="url(#clip650)" style="stroke:#000000; stroke-linecap:butt; stroke-linejoin:round; stroke-width:4; stroke-opacity:1; fill:none" points="
  1988.5,250.738 2280.8,250.738 2280.8,95.2176 1988.5,95.2176 1988.5,250.738 
  "/>
<circle clip-path="url(#clip650)" cx="2084.44" cy="147.058" r="23.04" fill="#009af9" fill-rule="evenodd" fill-opacity="1" stroke="#000000" stroke-opacity="1" stroke-width="5.12"/>
<path clip-path="url(#clip650)" d="M2194.23 166.745 Q2192.43 171.375 2190.72 172.787 Q2189 174.199 2186.13 174.199 L2182.73 174.199 L2182.73 170.634 L2185.23 170.634 Q2186.99 170.634 2187.96 169.8 Q2188.93 168.967 2190.11 165.865 L2190.88 163.921 L2180.39 138.412 L2184.91 138.412 L2193.01 158.689 L2201.11 138.412 L2205.62 138.412 L2194.23 166.745 Z" fill="#000000" fill-rule="evenodd" fill-opacity="1" /><path clip-path="url(#clip650)" d="M2212.91 160.402 L2220.55 160.402 L2220.55 134.037 L2212.24 135.703 L2212.24 131.444 L2220.51 129.778 L2225.18 129.778 L2225.18 160.402 L2232.82 160.402 L2232.82 164.338 L2212.91 164.338 L2212.91 160.402 Z" fill="#000000" fill-rule="evenodd" fill-opacity="1" /><polyline clip-path="url(#clip650)" style="stroke:#e26f46; stroke-linecap:butt; stroke-linejoin:round; stroke-width:4; stroke-opacity:1; fill:none" points="
  2012.48,198.898 2156.4,198.898 
  "/>
<path clip-path="url(#clip650)" d="M2194.23 218.585 Q2192.43 223.215 2190.72 224.627 Q2189 226.039 2186.13 226.039 L2182.73 226.039 L2182.73 222.474 L2185.23 222.474 Q2186.99 222.474 2187.96 221.64 Q2188.93 220.807 2190.11 217.705 L2190.88 215.761 L2180.39 190.252 L2184.91 190.252 L2193.01 210.529 L2201.11 190.252 L2205.62 190.252 L2194.23 218.585 Z" fill="#000000" fill-rule="evenodd" fill-opacity="1" /><path clip-path="url(#clip650)" d="M2216.13 212.242 L2232.45 212.242 L2232.45 216.178 L2210.51 216.178 L2210.51 212.242 Q2213.17 209.488 2217.75 204.858 Q2222.36 200.205 2223.54 198.863 Q2225.78 196.34 2226.66 194.604 Q2227.57 192.844 2227.57 191.155 Q2227.57 188.4 2225.62 186.664 Q2223.7 184.928 2220.6 184.928 Q2218.4 184.928 2215.95 185.692 Q2213.52 186.455 2210.74 188.006 L2210.74 183.284 Q2213.56 182.15 2216.02 181.571 Q2218.47 180.993 2220.51 180.993 Q2225.88 180.993 2229.07 183.678 Q2232.27 186.363 2232.27 190.854 Q2232.27 192.983 2231.46 194.905 Q2230.67 196.803 2228.56 199.395 Q2227.98 200.067 2224.88 203.284 Q2221.78 206.479 2216.13 212.242 Z" fill="#000000" fill-rule="evenodd" fill-opacity="1" /></svg>
