<?xml version="1.0" encoding="utf-8"?>
<svg xmlns="http://www.w3.org/2000/svg" xmlns:xlink="http://www.w3.org/1999/xlink" width="600" height="400" viewBox="0 0 2400 1600">
<defs>
  <clipPath id="clip360">
    <rect x="0" y="0" width="2400" height="1600"/>
  </clipPath>
</defs>
<path clip-path="url(#clip360)" d="
M0 1600 L2400 1600 L2400 0 L0 0  Z
  " fill="#ffffff" fill-rule="evenodd" fill-opacity="1"/>
<defs>
  <clipPath id="clip361">
    <rect x="480" y="0" width="1681" height="1600"/>
  </clipPath>
</defs>
<path clip-path="url(#clip360)" d="
M216.436 1486.45 L2352.76 1486.45 L2352.76 47.2441 L216.436 47.2441  Z
  " fill="#ffffff" fill-rule="evenodd" fill-opacity="1"/>
<defs>
  <clipPath id="clip362">
    <rect x="216" y="47" width="2137" height="1440"/>
  </clipPath>
</defs>
<polyline clip-path="url(#clip362)" style="stroke:#000000; stroke-linecap:butt; stroke-linejoin:round; stroke-width:2; stroke-opacity:0.1; fill:none" points="
  276.898,1486.45 276.898,47.2441 
  "/>
<polyline clip-path="url(#clip362)" style="stroke:#000000; stroke-linecap:butt; stroke-linejoin:round; stroke-width:2; stroke-opacity:0.1; fill:none" points="
  780.747,1486.45 780.747,47.2441 
  "/>
<polyline clip-path="url(#clip362)" style="stroke:#000000; stroke-linecap:butt; stroke-linejoin:round; stroke-width:2; stroke-opacity:0.1; fill:none" points="
  1284.6,1486.45 1284.6,47.2441 
  "/>
<polyline clip-path="url(#clip362)" style="stroke:#000000; stroke-linecap:butt; stroke-linejoin:round; stroke-width:2; stroke-opacity:0.1; fill:none" points="
  1788.44,1486.45 1788.44,47.2441 
  "/>
<polyline clip-path="url(#clip362)" style="stroke:#000000; stroke-linecap:butt; stroke-linejoin:round; stroke-width:2; stroke-opacity:0.1; fill:none" points="
  2292.29,1486.45 2292.29,47.2441 
  "/>
<polyline clip-path="url(#clip360)" style="stroke:#000000; stroke-linecap:butt; stroke-linejoin:round; stroke-width:4; stroke-opacity:1; fill:none" points="
  216.436,1486.45 2352.76,1486.45 
  "/>
<polyline clip-path="url(#clip360)" style="stroke:#000000; stroke-linecap:butt; stroke-linejoin:round; stroke-width:4; stroke-opacity:1; fill:none" points="
  276.898,1486.45 276.898,1467.55 
  "/>
<polyline clip-path="url(#clip360)" style="stroke:#000000; stroke-linecap:butt; stroke-linejoin:round; stroke-width:4; stroke-opacity:1; fill:none" points="
  780.747,1486.45 780.747,1467.55 
  "/>
<polyline clip-path="url(#clip360)" style="stroke:#000000; stroke-linecap:butt; stroke-linejoin:round; stroke-width:4; stroke-opacity:1; fill:none" points="
  1284.6,1486.45 1284.6,1467.55 
  "/>
<polyline clip-path="url(#clip360)" style="stroke:#000000; stroke-linecap:butt; stroke-linejoin:round; stroke-width:4; stroke-opacity:1; fill:none" points="
  1788.44,1486.45 1788.44,1467.55 
  "/>
<polyline clip-path="url(#clip360)" style="stroke:#000000; stroke-linecap:butt; stroke-linejoin:round; stroke-width:4; stroke-opacity:1; fill:none" points="
  2292.29,1486.45 2292.29,1467.55 
  "/>
<path clip-path="url(#clip360)" d="M223.426 1532.02 L253.102 1532.02 L253.102 1535.95 L223.426 1535.95 L223.426 1532.02 Z" fill="#000000" fill-rule="evenodd" fill-opacity="1" /><path clip-path="url(#clip360)" d="M264.004 1544.91 L271.643 1544.91 L271.643 1518.55 L263.333 1520.21 L263.333 1515.95 L271.597 1514.29 L276.273 1514.29 L276.273 1544.91 L283.912 1544.91 L283.912 1548.85 L264.004 1548.85 L264.004 1544.91 Z" fill="#000000" fill-rule="evenodd" fill-opacity="1" /><path clip-path="url(#clip360)" d="M293.356 1542.97 L298.24 1542.97 L298.24 1548.85 L293.356 1548.85 L293.356 1542.97 Z" fill="#000000" fill-rule="evenodd" fill-opacity="1" /><path clip-path="url(#clip360)" d="M318.425 1517.37 Q314.814 1517.37 312.986 1520.93 Q311.18 1524.47 311.18 1531.6 Q311.18 1538.71 312.986 1542.27 Q314.814 1545.82 318.425 1545.82 Q322.06 1545.82 323.865 1542.27 Q325.694 1538.71 325.694 1531.6 Q325.694 1524.47 323.865 1520.93 Q322.06 1517.37 318.425 1517.37 M318.425 1513.66 Q324.235 1513.66 327.291 1518.27 Q330.37 1522.85 330.37 1531.6 Q330.37 1540.33 327.291 1544.94 Q324.235 1549.52 318.425 1549.52 Q312.615 1549.52 309.536 1544.94 Q306.481 1540.33 306.481 1531.6 Q306.481 1522.85 309.536 1518.27 Q312.615 1513.66 318.425 1513.66 Z" fill="#000000" fill-rule="evenodd" fill-opacity="1" /><path clip-path="url(#clip360)" d="M727.773 1532.02 L757.448 1532.02 L757.448 1535.95 L727.773 1535.95 L727.773 1532.02 Z" fill="#000000" fill-rule="evenodd" fill-opacity="1" /><path clip-path="url(#clip360)" d="M777.541 1517.37 Q773.93 1517.37 772.101 1520.93 Q770.295 1524.47 770.295 1531.6 Q770.295 1538.71 772.101 1542.27 Q773.93 1545.82 777.541 1545.82 Q781.175 1545.82 782.981 1542.27 Q784.809 1538.71 784.809 1531.6 Q784.809 1524.47 782.981 1520.93 Q781.175 1517.37 777.541 1517.37 M777.541 1513.66 Q783.351 1513.66 786.407 1518.27 Q789.485 1522.85 789.485 1531.6 Q789.485 1540.33 786.407 1544.94 Q783.351 1549.52 777.541 1549.52 Q771.731 1549.52 768.652 1544.94 Q765.596 1540.33 765.596 1531.6 Q765.596 1522.85 768.652 1518.27 Q771.731 1513.66 777.541 1513.66 Z" fill="#000000" fill-rule="evenodd" fill-opacity="1" /><path clip-path="url(#clip360)" d="M797.703 1542.97 L802.587 1542.97 L802.587 1548.85 L797.703 1548.85 L797.703 1542.97 Z" fill="#000000" fill-rule="evenodd" fill-opacity="1" /><path clip-path="url(#clip360)" d="M812.818 1514.29 L831.175 1514.29 L831.175 1518.22 L817.101 1518.22 L817.101 1526.7 Q818.119 1526.35 819.138 1526.19 Q820.156 1526 821.175 1526 Q826.962 1526 830.341 1529.17 Q833.721 1532.34 833.721 1537.76 Q833.721 1543.34 830.249 1546.44 Q826.777 1549.52 820.457 1549.52 Q818.281 1549.52 816.013 1549.15 Q813.767 1548.78 811.36 1548.04 L811.36 1543.34 Q813.443 1544.47 815.666 1545.03 Q817.888 1545.58 820.365 1545.58 Q824.369 1545.58 826.707 1543.48 Q829.045 1541.37 829.045 1537.76 Q829.045 1534.15 826.707 1532.04 Q824.369 1529.94 820.365 1529.94 Q818.49 1529.94 816.615 1530.35 Q814.763 1530.77 812.818 1531.65 L812.818 1514.29 Z" fill="#000000" fill-rule="evenodd" fill-opacity="1" /><path clip-path="url(#clip360)" d="M1261.98 1517.37 Q1258.37 1517.37 1256.54 1520.93 Q1254.73 1524.47 1254.73 1531.6 Q1254.73 1538.71 1256.54 1542.27 Q1258.37 1545.82 1261.98 1545.82 Q1265.61 1545.82 1267.42 1542.27 Q1269.25 1538.71 1269.25 1531.6 Q1269.25 1524.47 1267.42 1520.93 Q1265.61 1517.37 1261.98 1517.37 M1261.98 1513.66 Q1267.79 1513.66 1270.85 1518.27 Q1273.92 1522.85 1273.92 1531.6 Q1273.92 1540.33 1270.85 1544.94 Q1267.79 1549.52 1261.98 1549.52 Q1256.17 1549.52 1253.09 1544.94 Q1250.04 1540.33 1250.04 1531.6 Q1250.04 1522.85 1253.09 1518.27 Q1256.17 1513.66 1261.98 1513.66 Z" fill="#000000" fill-rule="evenodd" fill-opacity="1" /><path clip-path="url(#clip360)" d="M1282.14 1542.97 L1287.03 1542.97 L1287.03 1548.85 L1282.14 1548.85 L1282.14 1542.97 Z" fill="#000000" fill-rule="evenodd" fill-opacity="1" /><path clip-path="url(#clip360)" d="M1307.21 1517.37 Q1303.6 1517.37 1301.77 1520.93 Q1299.97 1524.47 1299.97 1531.6 Q1299.97 1538.71 1301.77 1542.27 Q1303.6 1545.82 1307.21 1545.82 Q1310.85 1545.82 1312.65 1542.27 Q1314.48 1538.71 1314.48 1531.6 Q1314.48 1524.47 1312.65 1520.93 Q1310.85 1517.37 1307.21 1517.37 M1307.21 1513.66 Q1313.02 1513.66 1316.08 1518.27 Q1319.16 1522.85 1319.16 1531.6 Q1319.16 1540.33 1316.08 1544.94 Q1313.02 1549.52 1307.21 1549.52 Q1301.4 1549.52 1298.32 1544.94 Q1295.27 1540.33 1295.27 1531.6 Q1295.27 1522.85 1298.32 1518.27 Q1301.4 1513.66 1307.21 1513.66 Z" fill="#000000" fill-rule="evenodd" fill-opacity="1" /><path clip-path="url(#clip360)" d="M1766.33 1517.37 Q1762.72 1517.37 1760.89 1520.93 Q1759.08 1524.47 1759.08 1531.6 Q1759.08 1538.71 1760.89 1542.27 Q1762.72 1545.82 1766.33 1545.82 Q1769.96 1545.82 1771.77 1542.27 Q1773.6 1538.71 1773.6 1531.6 Q1773.6 1524.47 1771.77 1520.93 Q1769.96 1517.37 1766.33 1517.37 M1766.33 1513.66 Q1772.14 1513.66 1775.19 1518.27 Q1778.27 1522.85 1778.27 1531.6 Q1778.27 1540.33 1775.19 1544.94 Q1772.14 1549.52 1766.33 1549.52 Q1760.52 1549.52 1757.44 1544.94 Q1754.38 1540.33 1754.38 1531.6 Q1754.38 1522.85 1757.44 1518.27 Q1760.52 1513.66 1766.33 1513.66 Z" fill="#000000" fill-rule="evenodd" fill-opacity="1" /><path clip-path="url(#clip360)" d="M1786.49 1542.97 L1791.37 1542.97 L1791.37 1548.85 L1786.49 1548.85 L1786.49 1542.97 Z" fill="#000000" fill-rule="evenodd" fill-opacity="1" /><path clip-path="url(#clip360)" d="M1801.6 1514.29 L1819.96 1514.29 L1819.96 1518.22 L1805.89 1518.22 L1805.89 1526.7 Q1806.91 1526.35 1807.92 1526.19 Q1808.94 1526 1809.96 1526 Q1815.75 1526 1819.13 1529.17 Q1822.51 1532.34 1822.51 1537.76 Q1822.51 1543.34 1819.04 1546.44 Q1815.56 1549.52 1809.24 1549.52 Q1807.07 1549.52 1804.8 1549.15 Q1802.55 1548.78 1800.15 1548.04 L1800.15 1543.34 Q1802.23 1544.47 1804.45 1545.03 Q1806.67 1545.58 1809.15 1545.58 Q1813.16 1545.58 1815.49 1543.48 Q1817.83 1541.37 1817.83 1537.76 Q1817.83 1534.15 1815.49 1532.04 Q1813.16 1529.94 1809.15 1529.94 Q1807.28 1529.94 1805.4 1530.35 Q1803.55 1530.77 1801.6 1531.65 L1801.6 1514.29 Z" fill="#000000" fill-rule="evenodd" fill-opacity="1" /><path clip-path="url(#clip360)" d="M2259.45 1544.91 L2267.09 1544.91 L2267.09 1518.55 L2258.78 1520.21 L2258.78 1515.95 L2267.04 1514.29 L2271.72 1514.29 L2271.72 1544.91 L2279.35 1544.91 L2279.35 1548.85 L2259.45 1548.85 L2259.45 1544.91 Z" fill="#000000" fill-rule="evenodd" fill-opacity="1" /><path clip-path="url(#clip360)" d="M2288.8 1542.97 L2293.68 1542.97 L2293.68 1548.85 L2288.8 1548.85 L2288.8 1542.97 Z" fill="#000000" fill-rule="evenodd" fill-opacity="1" /><path clip-path="url(#clip360)" d="M2313.87 1517.37 Q2310.26 1517.37 2308.43 1520.93 Q2306.62 1524.47 2306.62 1531.6 Q2306.62 1538.71 2308.43 1542.27 Q2310.26 1545.82 2313.87 1545.82 Q2317.5 1545.82 2319.31 1542.27 Q2321.14 1538.71 2321.14 1531.6 Q2321.14 1524.47 2319.31 1520.93 Q2317.5 1517.37 2313.87 1517.37 M2313.87 1513.66 Q2319.68 1513.66 2322.73 1518.27 Q2325.81 1522.85 2325.81 1531.6 Q2325.81 1540.33 2322.73 1544.94 Q2319.68 1549.52 2313.87 1549.52 Q2308.06 1549.52 2304.98 1544.94 Q2301.92 1540.33 2301.92 1531.6 Q2301.92 1522.85 2304.98 1518.27 Q2308.06 1513.66 2313.87 1513.66 Z" fill="#000000" fill-rule="evenodd" fill-opacity="1" /><polyline clip-path="url(#clip362)" style="stroke:#000000; stroke-linecap:butt; stroke-linejoin:round; stroke-width:2; stroke-opacity:0.1; fill:none" points="
  216.436,1445.72 2352.76,1445.72 
  "/>
<polyline clip-path="url(#clip362)" style="stroke:#000000; stroke-linecap:butt; stroke-linejoin:round; stroke-width:2; stroke-opacity:0.1; fill:none" points="
  216.436,1094.11 2352.76,1094.11 
  "/>
<polyline clip-path="url(#clip362)" style="stroke:#000000; stroke-linecap:butt; stroke-linejoin:round; stroke-width:2; stroke-opacity:0.1; fill:none" points="
  216.436,742.511 2352.76,742.511 
  "/>
<polyline clip-path="url(#clip362)" style="stroke:#000000; stroke-linecap:butt; stroke-linejoin:round; stroke-width:2; stroke-opacity:0.1; fill:none" points="
  216.436,390.909 2352.76,390.909 
  "/>
<polyline clip-path="url(#clip360)" style="stroke:#000000; stroke-linecap:butt; stroke-linejoin:round; stroke-width:4; stroke-opacity:1; fill:none" points="
  216.436,1486.45 216.436,47.2441 
  "/>
<polyline clip-path="url(#clip360)" style="stroke:#000000; stroke-linecap:butt; stroke-linejoin:round; stroke-width:4; stroke-opacity:1; fill:none" points="
  216.436,1445.72 235.334,1445.72 
  "/>
<polyline clip-path="url(#clip360)" style="stroke:#000000; stroke-linecap:butt; stroke-linejoin:round; stroke-width:4; stroke-opacity:1; fill:none" points="
  216.436,1094.11 235.334,1094.11 
  "/>
<polyline clip-path="url(#clip360)" style="stroke:#000000; stroke-linecap:butt; stroke-linejoin:round; stroke-width:4; stroke-opacity:1; fill:none" points="
  216.436,742.511 235.334,742.511 
  "/>
<polyline clip-path="url(#clip360)" style="stroke:#000000; stroke-linecap:butt; stroke-linejoin:round; stroke-width:4; stroke-opacity:1; fill:none" points="
  216.436,390.909 235.334,390.909 
  "/>
<path clip-path="url(#clip360)" d="M62.9365 1431.51 Q59.3254 1431.51 57.4967 1435.08 Q55.6912 1438.62 55.6912 1445.75 Q55.6912 1452.86 57.4967 1456.42 Q59.3254 1459.96 62.9365 1459.96 Q66.5707 1459.96 68.3763 1456.42 Q70.205 1452.86 70.205 1445.75 Q70.205 1438.62 68.3763 1435.08 Q66.5707 1431.51 62.9365 1431.51 M62.9365 1427.81 Q68.7467 1427.81 71.8022 1432.42 Q74.8809 1437 74.8809 1445.75 Q74.8809 1454.48 71.8022 1459.08 Q68.7467 1463.67 62.9365 1463.67 Q57.1264 1463.67 54.0477 1459.08 Q50.9921 1454.48 50.9921 1445.75 Q50.9921 1437 54.0477 1432.42 Q57.1264 1427.81 62.9365 1427.81 Z" fill="#000000" fill-rule="evenodd" fill-opacity="1" /><path clip-path="url(#clip360)" d="M83.0984 1457.12 L87.9827 1457.12 L87.9827 1463 L83.0984 1463 L83.0984 1457.12 Z" fill="#000000" fill-rule="evenodd" fill-opacity="1" /><path clip-path="url(#clip360)" d="M108.168 1431.51 Q104.557 1431.51 102.728 1435.08 Q100.922 1438.62 100.922 1445.75 Q100.922 1452.86 102.728 1456.42 Q104.557 1459.96 108.168 1459.96 Q111.802 1459.96 113.608 1456.42 Q115.436 1452.86 115.436 1445.75 Q115.436 1438.62 113.608 1435.08 Q111.802 1431.51 108.168 1431.51 M108.168 1427.81 Q113.978 1427.81 117.033 1432.42 Q120.112 1437 120.112 1445.75 Q120.112 1454.48 117.033 1459.08 Q113.978 1463.67 108.168 1463.67 Q102.358 1463.67 99.2789 1459.08 Q96.2234 1454.48 96.2234 1445.75 Q96.2234 1437 99.2789 1432.42 Q102.358 1427.81 108.168 1427.81 Z" fill="#000000" fill-rule="evenodd" fill-opacity="1" /><path clip-path="url(#clip360)" d="M138.33 1431.51 Q134.719 1431.51 132.89 1435.08 Q131.084 1438.62 131.084 1445.75 Q131.084 1452.86 132.89 1456.42 Q134.719 1459.96 138.33 1459.96 Q141.964 1459.96 143.769 1456.42 Q145.598 1452.86 145.598 1445.75 Q145.598 1438.62 143.769 1435.08 Q141.964 1431.51 138.33 1431.51 M138.33 1427.81 Q144.14 1427.81 147.195 1432.42 Q150.274 1437 150.274 1445.75 Q150.274 1454.48 147.195 1459.08 Q144.14 1463.67 138.33 1463.67 Q132.519 1463.67 129.441 1459.08 Q126.385 1454.48 126.385 1445.75 Q126.385 1437 129.441 1432.42 Q132.519 1427.81 138.33 1427.81 Z" fill="#000000" fill-rule="evenodd" fill-opacity="1" /><path clip-path="url(#clip360)" d="M168.491 1431.51 Q164.88 1431.51 163.052 1435.08 Q161.246 1438.62 161.246 1445.75 Q161.246 1452.86 163.052 1456.42 Q164.88 1459.96 168.491 1459.96 Q172.126 1459.96 173.931 1456.42 Q175.76 1452.86 175.76 1445.75 Q175.76 1438.62 173.931 1435.08 Q172.126 1431.51 168.491 1431.51 M168.491 1427.81 Q174.302 1427.81 177.357 1432.42 Q180.436 1437 180.436 1445.75 Q180.436 1454.48 177.357 1459.08 Q174.302 1463.67 168.491 1463.67 Q162.681 1463.67 159.603 1459.08 Q156.547 1454.48 156.547 1445.75 Q156.547 1437 159.603 1432.42 Q162.681 1427.81 168.491 1427.81 Z" fill="#000000" fill-rule="evenodd" fill-opacity="1" /><path clip-path="url(#clip360)" d="M63.9319 1079.91 Q60.3208 1079.91 58.4921 1083.48 Q56.6865 1087.02 56.6865 1094.15 Q56.6865 1101.25 58.4921 1104.82 Q60.3208 1108.36 63.9319 1108.36 Q67.5661 1108.36 69.3717 1104.82 Q71.2004 1101.25 71.2004 1094.15 Q71.2004 1087.02 69.3717 1083.48 Q67.5661 1079.91 63.9319 1079.91 M63.9319 1076.21 Q69.742 1076.21 72.7976 1080.81 Q75.8763 1085.4 75.8763 1094.15 Q75.8763 1102.87 72.7976 1107.48 Q69.742 1112.06 63.9319 1112.06 Q58.1217 1112.06 55.043 1107.48 Q51.9875 1102.87 51.9875 1094.15 Q51.9875 1085.4 55.043 1080.81 Q58.1217 1076.21 63.9319 1076.21 Z" fill="#000000" fill-rule="evenodd" fill-opacity="1" /><path clip-path="url(#clip360)" d="M84.0938 1105.51 L88.978 1105.51 L88.978 1111.39 L84.0938 1111.39 L84.0938 1105.51 Z" fill="#000000" fill-rule="evenodd" fill-opacity="1" /><path clip-path="url(#clip360)" d="M109.163 1079.91 Q105.552 1079.91 103.723 1083.48 Q101.918 1087.02 101.918 1094.15 Q101.918 1101.25 103.723 1104.82 Q105.552 1108.36 109.163 1108.36 Q112.797 1108.36 114.603 1104.82 Q116.432 1101.25 116.432 1094.15 Q116.432 1087.02 114.603 1083.48 Q112.797 1079.91 109.163 1079.91 M109.163 1076.21 Q114.973 1076.21 118.029 1080.81 Q121.107 1085.4 121.107 1094.15 Q121.107 1102.87 118.029 1107.48 Q114.973 1112.06 109.163 1112.06 Q103.353 1112.06 100.274 1107.48 Q97.2187 1102.87 97.2187 1094.15 Q97.2187 1085.4 100.274 1080.81 Q103.353 1076.21 109.163 1076.21 Z" fill="#000000" fill-rule="evenodd" fill-opacity="1" /><path clip-path="url(#clip360)" d="M139.325 1079.91 Q135.714 1079.91 133.885 1083.48 Q132.08 1087.02 132.08 1094.15 Q132.08 1101.25 133.885 1104.82 Q135.714 1108.36 139.325 1108.36 Q142.959 1108.36 144.765 1104.82 Q146.593 1101.25 146.593 1094.15 Q146.593 1087.02 144.765 1083.48 Q142.959 1079.91 139.325 1079.91 M139.325 1076.21 Q145.135 1076.21 148.191 1080.81 Q151.269 1085.4 151.269 1094.15 Q151.269 1102.87 148.191 1107.48 Q145.135 1112.06 139.325 1112.06 Q133.515 1112.06 130.436 1107.48 Q127.381 1102.87 127.381 1094.15 Q127.381 1085.4 130.436 1080.81 Q133.515 1076.21 139.325 1076.21 Z" fill="#000000" fill-rule="evenodd" fill-opacity="1" /><path clip-path="url(#clip360)" d="M159.533 1076.83 L177.89 1076.83 L177.89 1080.77 L163.816 1080.77 L163.816 1089.24 Q164.834 1088.89 165.853 1088.73 Q166.871 1088.55 167.89 1088.55 Q173.677 1088.55 177.056 1091.72 Q180.436 1094.89 180.436 1100.31 Q180.436 1105.88 176.964 1108.99 Q173.491 1112.06 167.172 1112.06 Q164.996 1112.06 162.728 1111.69 Q160.482 1111.32 158.075 1110.58 L158.075 1105.88 Q160.158 1107.02 162.38 1107.57 Q164.603 1108.13 167.079 1108.13 Q171.084 1108.13 173.422 1106.02 Q175.76 1103.92 175.76 1100.31 Q175.76 1096.69 173.422 1094.59 Q171.084 1092.48 167.079 1092.48 Q165.204 1092.48 163.329 1092.9 Q161.478 1093.31 159.533 1094.19 L159.533 1076.83 Z" fill="#000000" fill-rule="evenodd" fill-opacity="1" /><path clip-path="url(#clip360)" d="M62.9365 728.31 Q59.3254 728.31 57.4967 731.874 Q55.6912 735.416 55.6912 742.546 Q55.6912 749.652 57.4967 753.217 Q59.3254 756.759 62.9365 756.759 Q66.5707 756.759 68.3763 753.217 Q70.205 749.652 70.205 742.546 Q70.205 735.416 68.3763 731.874 Q66.5707 728.31 62.9365 728.31 M62.9365 724.606 Q68.7467 724.606 71.8022 729.212 Q74.8809 733.796 74.8809 742.546 Q74.8809 751.272 71.8022 755.879 Q68.7467 760.462 62.9365 760.462 Q57.1264 760.462 54.0477 755.879 Q50.9921 751.272 50.9921 742.546 Q50.9921 733.796 54.0477 729.212 Q57.1264 724.606 62.9365 724.606 Z" fill="#000000" fill-rule="evenodd" fill-opacity="1" /><path clip-path="url(#clip360)" d="M83.0984 753.911 L87.9827 753.911 L87.9827 759.791 L83.0984 759.791 L83.0984 753.911 Z" fill="#000000" fill-rule="evenodd" fill-opacity="1" /><path clip-path="url(#clip360)" d="M108.168 728.31 Q104.557 728.31 102.728 731.874 Q100.922 735.416 100.922 742.546 Q100.922 749.652 102.728 753.217 Q104.557 756.759 108.168 756.759 Q111.802 756.759 113.608 753.217 Q115.436 749.652 115.436 742.546 Q115.436 735.416 113.608 731.874 Q111.802 728.31 108.168 728.31 M108.168 724.606 Q113.978 724.606 117.033 729.212 Q120.112 733.796 120.112 742.546 Q120.112 751.272 117.033 755.879 Q113.978 760.462 108.168 760.462 Q102.358 760.462 99.2789 755.879 Q96.2234 751.272 96.2234 742.546 Q96.2234 733.796 99.2789 729.212 Q102.358 724.606 108.168 724.606 Z" fill="#000000" fill-rule="evenodd" fill-opacity="1" /><path clip-path="url(#clip360)" d="M129.14 755.856 L136.779 755.856 L136.779 729.49 L128.469 731.157 L128.469 726.898 L136.732 725.231 L141.408 725.231 L141.408 755.856 L149.047 755.856 L149.047 759.791 L129.14 759.791 L129.14 755.856 Z" fill="#000000" fill-rule="evenodd" fill-opacity="1" /><path clip-path="url(#clip360)" d="M168.491 728.31 Q164.88 728.31 163.052 731.874 Q161.246 735.416 161.246 742.546 Q161.246 749.652 163.052 753.217 Q164.88 756.759 168.491 756.759 Q172.126 756.759 173.931 753.217 Q175.76 749.652 175.76 742.546 Q175.76 735.416 173.931 731.874 Q172.126 728.31 168.491 728.31 M168.491 724.606 Q174.302 724.606 177.357 729.212 Q180.436 733.796 180.436 742.546 Q180.436 751.272 177.357 755.879 Q174.302 760.462 168.491 760.462 Q162.681 760.462 159.603 755.879 Q156.547 751.272 156.547 742.546 Q156.547 733.796 159.603 729.212 Q162.681 724.606 168.491 724.606 Z" fill="#000000" fill-rule="evenodd" fill-opacity="1" /><path clip-path="url(#clip360)" d="M63.9319 376.707 Q60.3208 376.707 58.4921 380.272 Q56.6865 383.814 56.6865 390.943 Q56.6865 398.05 58.4921 401.614 Q60.3208 405.156 63.9319 405.156 Q67.5661 405.156 69.3717 401.614 Q71.2004 398.05 71.2004 390.943 Q71.2004 383.814 69.3717 380.272 Q67.5661 376.707 63.9319 376.707 M63.9319 373.004 Q69.742 373.004 72.7976 377.61 Q75.8763 382.193 75.8763 390.943 Q75.8763 399.67 72.7976 404.276 Q69.742 408.86 63.9319 408.86 Q58.1217 408.86 55.043 404.276 Q51.9875 399.67 51.9875 390.943 Q51.9875 382.193 55.043 377.61 Q58.1217 373.004 63.9319 373.004 Z" fill="#000000" fill-rule="evenodd" fill-opacity="1" /><path clip-path="url(#clip360)" d="M84.0938 402.309 L88.978 402.309 L88.978 408.189 L84.0938 408.189 L84.0938 402.309 Z" fill="#000000" fill-rule="evenodd" fill-opacity="1" /><path clip-path="url(#clip360)" d="M109.163 376.707 Q105.552 376.707 103.723 380.272 Q101.918 383.814 101.918 390.943 Q101.918 398.05 103.723 401.614 Q105.552 405.156 109.163 405.156 Q112.797 405.156 114.603 401.614 Q116.432 398.05 116.432 390.943 Q116.432 383.814 114.603 380.272 Q112.797 376.707 109.163 376.707 M109.163 373.004 Q114.973 373.004 118.029 377.61 Q121.107 382.193 121.107 390.943 Q121.107 399.67 118.029 404.276 Q114.973 408.86 109.163 408.86 Q103.353 408.86 100.274 404.276 Q97.2187 399.67 97.2187 390.943 Q97.2187 382.193 100.274 377.61 Q103.353 373.004 109.163 373.004 Z" fill="#000000" fill-rule="evenodd" fill-opacity="1" /><path clip-path="url(#clip360)" d="M130.135 404.253 L137.774 404.253 L137.774 377.888 L129.464 379.554 L129.464 375.295 L137.728 373.629 L142.404 373.629 L142.404 404.253 L150.043 404.253 L150.043 408.189 L130.135 408.189 L130.135 404.253 Z" fill="#000000" fill-rule="evenodd" fill-opacity="1" /><path clip-path="url(#clip360)" d="M159.533 373.629 L177.89 373.629 L177.89 377.564 L163.816 377.564 L163.816 386.036 Q164.834 385.689 165.853 385.527 Q166.871 385.341 167.89 385.341 Q173.677 385.341 177.056 388.513 Q180.436 391.684 180.436 397.101 Q180.436 402.679 176.964 405.781 Q173.491 408.86 167.172 408.86 Q164.996 408.86 162.728 408.489 Q160.482 408.119 158.075 407.378 L158.075 402.679 Q160.158 403.814 162.38 404.369 Q164.603 404.925 167.079 404.925 Q171.084 404.925 173.422 402.818 Q175.76 400.712 175.76 397.101 Q175.76 393.49 173.422 391.383 Q171.084 389.277 167.079 389.277 Q165.204 389.277 163.329 389.693 Q161.478 390.11 159.533 390.99 L159.533 373.629 Z" fill="#000000" fill-rule="evenodd" fill-opacity="1" /><polyline clip-path="url(#clip362)" style="stroke:#009af9; stroke-linecap:butt; stroke-linejoin:round; stroke-width:12; stroke-opacity:1; fill:none" points="
  276.898,1445.72 344.078,1398.84 411.258,1351.96 478.437,1305.07 545.617,1258.19 612.797,1211.31 679.977,1164.43 747.157,1117.55 814.337,1070.67 881.517,1023.79 
  948.697,976.912 1015.88,930.032 1083.06,883.152 1150.24,836.272 1217.42,789.391 1284.6,742.511 1351.78,695.631 1418.96,648.75 1486.14,601.87 1553.32,554.99 
  1620.5,508.109 1687.68,461.229 1754.86,414.349 1822.03,367.468 1889.21,320.588 1956.39,273.708 2023.57,226.827 2090.75,179.947 2157.93,133.069 2225.11,87.9763 
  2292.29,1445.72 
  "/>
<line clip-path="url(#clip362)" x1="276.898" y1="1445.72" x2="276.898" y2="1429.72" style="stroke:#009af9; stroke-width:3.2; stroke-opacity:1"/>
<line clip-path="url(#clip362)" x1="276.898" y1="1445.72" x2="260.898" y2="1445.72" style="stroke:#009af9; stroke-width:3.2; stroke-opacity:1"/>
<line clip-path="url(#clip362)" x1="276.898" y1="1445.72" x2="276.898" y2="1461.72" style="stroke:#009af9; stroke-width:3.2; stroke-opacity:1"/>
<line clip-path="url(#clip362)" x1="276.898" y1="1445.72" x2="292.898" y2="1445.72" style="stroke:#009af9; stroke-width:3.2; stroke-opacity:1"/>
<line clip-path="url(#clip362)" x1="344.078" y1="1398.84" x2="344.078" y2="1382.84" style="stroke:#009af9; stroke-width:3.2; stroke-opacity:1"/>
<line clip-path="url(#clip362)" x1="344.078" y1="1398.84" x2="328.078" y2="1398.84" style="stroke:#009af9; stroke-width:3.2; stroke-opacity:1"/>
<line clip-path="url(#clip362)" x1="344.078" y1="1398.84" x2="344.078" y2="1414.84" style="stroke:#009af9; stroke-width:3.2; stroke-opacity:1"/>
<line clip-path="url(#clip362)" x1="344.078" y1="1398.84" x2="360.078" y2="1398.84" style="stroke:#009af9; stroke-width:3.2; stroke-opacity:1"/>
<line clip-path="url(#clip362)" x1="411.258" y1="1351.96" x2="411.258" y2="1335.96" style="stroke:#009af9; stroke-width:3.2; stroke-opacity:1"/>
<line clip-path="url(#clip362)" x1="411.258" y1="1351.96" x2="395.258" y2="1351.96" style="stroke:#009af9; stroke-width:3.2; stroke-opacity:1"/>
<line clip-path="url(#clip362)" x1="411.258" y1="1351.96" x2="411.258" y2="1367.96" style="stroke:#009af9; stroke-width:3.2; stroke-opacity:1"/>
<line clip-path="url(#clip362)" x1="411.258" y1="1351.96" x2="427.258" y2="1351.96" style="stroke:#009af9; stroke-width:3.2; stroke-opacity:1"/>
<line clip-path="url(#clip362)" x1="478.437" y1="1305.07" x2="478.437" y2="1289.07" style="stroke:#009af9; stroke-width:3.2; stroke-opacity:1"/>
<line clip-path="url(#clip362)" x1="478.437" y1="1305.07" x2="462.437" y2="1305.07" style="stroke:#009af9; stroke-width:3.2; stroke-opacity:1"/>
<line clip-path="url(#clip362)" x1="478.437" y1="1305.07" x2="478.437" y2="1321.07" style="stroke:#009af9; stroke-width:3.2; stroke-opacity:1"/>
<line clip-path="url(#clip362)" x1="478.437" y1="1305.07" x2="494.437" y2="1305.07" style="stroke:#009af9; stroke-width:3.2; stroke-opacity:1"/>
<line clip-path="url(#clip362)" x1="545.617" y1="1258.19" x2="545.617" y2="1242.19" style="stroke:#009af9; stroke-width:3.2; stroke-opacity:1"/>
<line clip-path="url(#clip362)" x1="545.617" y1="1258.19" x2="529.617" y2="1258.19" style="stroke:#009af9; stroke-width:3.2; stroke-opacity:1"/>
<line clip-path="url(#clip362)" x1="545.617" y1="1258.19" x2="545.617" y2="1274.19" style="stroke:#009af9; stroke-width:3.2; stroke-opacity:1"/>
<line clip-path="url(#clip362)" x1="545.617" y1="1258.19" x2="561.617" y2="1258.19" style="stroke:#009af9; stroke-width:3.2; stroke-opacity:1"/>
<line clip-path="url(#clip362)" x1="612.797" y1="1211.31" x2="612.797" y2="1195.31" style="stroke:#009af9; stroke-width:3.2; stroke-opacity:1"/>
<line clip-path="url(#clip362)" x1="612.797" y1="1211.31" x2="596.797" y2="1211.31" style="stroke:#009af9; stroke-width:3.2; stroke-opacity:1"/>
<line clip-path="url(#clip362)" x1="612.797" y1="1211.31" x2="612.797" y2="1227.31" style="stroke:#009af9; stroke-width:3.2; stroke-opacity:1"/>
<line clip-path="url(#clip362)" x1="612.797" y1="1211.31" x2="628.797" y2="1211.31" style="stroke:#009af9; stroke-width:3.2; stroke-opacity:1"/>
<line clip-path="url(#clip362)" x1="679.977" y1="1164.43" x2="679.977" y2="1148.43" style="stroke:#009af9; stroke-width:3.2; stroke-opacity:1"/>
<line clip-path="url(#clip362)" x1="679.977" y1="1164.43" x2="663.977" y2="1164.43" style="stroke:#009af9; stroke-width:3.2; stroke-opacity:1"/>
<line clip-path="url(#clip362)" x1="679.977" y1="1164.43" x2="679.977" y2="1180.43" style="stroke:#009af9; stroke-width:3.2; stroke-opacity:1"/>
<line clip-path="url(#clip362)" x1="679.977" y1="1164.43" x2="695.977" y2="1164.43" style="stroke:#009af9; stroke-width:3.2; stroke-opacity:1"/>
<line clip-path="url(#clip362)" x1="747.157" y1="1117.55" x2="747.157" y2="1101.55" style="stroke:#009af9; stroke-width:3.2; stroke-opacity:1"/>
<line clip-path="url(#clip362)" x1="747.157" y1="1117.55" x2="731.157" y2="1117.55" style="stroke:#009af9; stroke-width:3.2; stroke-opacity:1"/>
<line clip-path="url(#clip362)" x1="747.157" y1="1117.55" x2="747.157" y2="1133.55" style="stroke:#009af9; stroke-width:3.2; stroke-opacity:1"/>
<line clip-path="url(#clip362)" x1="747.157" y1="1117.55" x2="763.157" y2="1117.55" style="stroke:#009af9; stroke-width:3.2; stroke-opacity:1"/>
<line clip-path="url(#clip362)" x1="814.337" y1="1070.67" x2="814.337" y2="1054.67" style="stroke:#009af9; stroke-width:3.2; stroke-opacity:1"/>
<line clip-path="url(#clip362)" x1="814.337" y1="1070.67" x2="798.337" y2="1070.67" style="stroke:#009af9; stroke-width:3.2; stroke-opacity:1"/>
<line clip-path="url(#clip362)" x1="814.337" y1="1070.67" x2="814.337" y2="1086.67" style="stroke:#009af9; stroke-width:3.2; stroke-opacity:1"/>
<line clip-path="url(#clip362)" x1="814.337" y1="1070.67" x2="830.337" y2="1070.67" style="stroke:#009af9; stroke-width:3.2; stroke-opacity:1"/>
<line clip-path="url(#clip362)" x1="881.517" y1="1023.79" x2="881.517" y2="1007.79" style="stroke:#009af9; stroke-width:3.2; stroke-opacity:1"/>
<line clip-path="url(#clip362)" x1="881.517" y1="1023.79" x2="865.517" y2="1023.79" style="stroke:#009af9; stroke-width:3.2; stroke-opacity:1"/>
<line clip-path="url(#clip362)" x1="881.517" y1="1023.79" x2="881.517" y2="1039.79" style="stroke:#009af9; stroke-width:3.2; stroke-opacity:1"/>
<line clip-path="url(#clip362)" x1="881.517" y1="1023.79" x2="897.517" y2="1023.79" style="stroke:#009af9; stroke-width:3.2; stroke-opacity:1"/>
<line clip-path="url(#clip362)" x1="948.697" y1="976.912" x2="948.697" y2="960.912" style="stroke:#009af9; stroke-width:3.2; stroke-opacity:1"/>
<line clip-path="url(#clip362)" x1="948.697" y1="976.912" x2="932.697" y2="976.912" style="stroke:#009af9; stroke-width:3.2; stroke-opacity:1"/>
<line clip-path="url(#clip362)" x1="948.697" y1="976.912" x2="948.697" y2="992.912" style="stroke:#009af9; stroke-width:3.2; stroke-opacity:1"/>
<line clip-path="url(#clip362)" x1="948.697" y1="976.912" x2="964.697" y2="976.912" style="stroke:#009af9; stroke-width:3.2; stroke-opacity:1"/>
<line clip-path="url(#clip362)" x1="1015.88" y1="930.032" x2="1015.88" y2="914.032" style="stroke:#009af9; stroke-width:3.2; stroke-opacity:1"/>
<line clip-path="url(#clip362)" x1="1015.88" y1="930.032" x2="999.876" y2="930.032" style="stroke:#009af9; stroke-width:3.2; stroke-opacity:1"/>
<line clip-path="url(#clip362)" x1="1015.88" y1="930.032" x2="1015.88" y2="946.032" style="stroke:#009af9; stroke-width:3.2; stroke-opacity:1"/>
<line clip-path="url(#clip362)" x1="1015.88" y1="930.032" x2="1031.88" y2="930.032" style="stroke:#009af9; stroke-width:3.2; stroke-opacity:1"/>
<line clip-path="url(#clip362)" x1="1083.06" y1="883.152" x2="1083.06" y2="867.152" style="stroke:#009af9; stroke-width:3.2; stroke-opacity:1"/>
<line clip-path="url(#clip362)" x1="1083.06" y1="883.152" x2="1067.06" y2="883.152" style="stroke:#009af9; stroke-width:3.2; stroke-opacity:1"/>
<line clip-path="url(#clip362)" x1="1083.06" y1="883.152" x2="1083.06" y2="899.152" style="stroke:#009af9; stroke-width:3.2; stroke-opacity:1"/>
<line clip-path="url(#clip362)" x1="1083.06" y1="883.152" x2="1099.06" y2="883.152" style="stroke:#009af9; stroke-width:3.2; stroke-opacity:1"/>
<line clip-path="url(#clip362)" x1="1150.24" y1="836.272" x2="1150.24" y2="820.272" style="stroke:#009af9; stroke-width:3.2; stroke-opacity:1"/>
<line clip-path="url(#clip362)" x1="1150.24" y1="836.272" x2="1134.24" y2="836.272" style="stroke:#009af9; stroke-width:3.2; stroke-opacity:1"/>
<line clip-path="url(#clip362)" x1="1150.24" y1="836.272" x2="1150.24" y2="852.272" style="stroke:#009af9; stroke-width:3.2; stroke-opacity:1"/>
<line clip-path="url(#clip362)" x1="1150.24" y1="836.272" x2="1166.24" y2="836.272" style="stroke:#009af9; stroke-width:3.2; stroke-opacity:1"/>
<line clip-path="url(#clip362)" x1="1217.42" y1="789.391" x2="1217.42" y2="773.391" style="stroke:#009af9; stroke-width:3.2; stroke-opacity:1"/>
<line clip-path="url(#clip362)" x1="1217.42" y1="789.391" x2="1201.42" y2="789.391" style="stroke:#009af9; stroke-width:3.2; stroke-opacity:1"/>
<line clip-path="url(#clip362)" x1="1217.42" y1="789.391" x2="1217.42" y2="805.391" style="stroke:#009af9; stroke-width:3.2; stroke-opacity:1"/>
<line clip-path="url(#clip362)" x1="1217.42" y1="789.391" x2="1233.42" y2="789.391" style="stroke:#009af9; stroke-width:3.2; stroke-opacity:1"/>
<line clip-path="url(#clip362)" x1="1284.6" y1="742.511" x2="1284.6" y2="726.511" style="stroke:#009af9; stroke-width:3.2; stroke-opacity:1"/>
<line clip-path="url(#clip362)" x1="1284.6" y1="742.511" x2="1268.6" y2="742.511" style="stroke:#009af9; stroke-width:3.2; stroke-opacity:1"/>
<line clip-path="url(#clip362)" x1="1284.6" y1="742.511" x2="1284.6" y2="758.511" style="stroke:#009af9; stroke-width:3.2; stroke-opacity:1"/>
<line clip-path="url(#clip362)" x1="1284.6" y1="742.511" x2="1300.6" y2="742.511" style="stroke:#009af9; stroke-width:3.2; stroke-opacity:1"/>
<line clip-path="url(#clip362)" x1="1351.78" y1="695.631" x2="1351.78" y2="679.631" style="stroke:#009af9; stroke-width:3.2; stroke-opacity:1"/>
<line clip-path="url(#clip362)" x1="1351.78" y1="695.631" x2="1335.78" y2="695.631" style="stroke:#009af9; stroke-width:3.2; stroke-opacity:1"/>
<line clip-path="url(#clip362)" x1="1351.78" y1="695.631" x2="1351.78" y2="711.631" style="stroke:#009af9; stroke-width:3.2; stroke-opacity:1"/>
<line clip-path="url(#clip362)" x1="1351.78" y1="695.631" x2="1367.78" y2="695.631" style="stroke:#009af9; stroke-width:3.2; stroke-opacity:1"/>
<line clip-path="url(#clip362)" x1="1418.96" y1="648.75" x2="1418.96" y2="632.75" style="stroke:#009af9; stroke-width:3.2; stroke-opacity:1"/>
<line clip-path="url(#clip362)" x1="1418.96" y1="648.75" x2="1402.96" y2="648.75" style="stroke:#009af9; stroke-width:3.2; stroke-opacity:1"/>
<line clip-path="url(#clip362)" x1="1418.96" y1="648.75" x2="1418.96" y2="664.75" style="stroke:#009af9; stroke-width:3.2; stroke-opacity:1"/>
<line clip-path="url(#clip362)" x1="1418.96" y1="648.75" x2="1434.96" y2="648.75" style="stroke:#009af9; stroke-width:3.2; stroke-opacity:1"/>
<line clip-path="url(#clip362)" x1="1486.14" y1="601.87" x2="1486.14" y2="585.87" style="stroke:#009af9; stroke-width:3.2; stroke-opacity:1"/>
<line clip-path="url(#clip362)" x1="1486.14" y1="601.87" x2="1470.14" y2="601.87" style="stroke:#009af9; stroke-width:3.2; stroke-opacity:1"/>
<line clip-path="url(#clip362)" x1="1486.14" y1="601.87" x2="1486.14" y2="617.87" style="stroke:#009af9; stroke-width:3.2; stroke-opacity:1"/>
<line clip-path="url(#clip362)" x1="1486.14" y1="601.87" x2="1502.14" y2="601.87" style="stroke:#009af9; stroke-width:3.2; stroke-opacity:1"/>
<line clip-path="url(#clip362)" x1="1553.32" y1="554.99" x2="1553.32" y2="538.99" style="stroke:#009af9; stroke-width:3.2; stroke-opacity:1"/>
<line clip-path="url(#clip362)" x1="1553.32" y1="554.99" x2="1537.32" y2="554.99" style="stroke:#009af9; stroke-width:3.2; stroke-opacity:1"/>
<line clip-path="url(#clip362)" x1="1553.32" y1="554.99" x2="1553.32" y2="570.99" style="stroke:#009af9; stroke-width:3.2; stroke-opacity:1"/>
<line clip-path="url(#clip362)" x1="1553.32" y1="554.99" x2="1569.32" y2="554.99" style="stroke:#009af9; stroke-width:3.2; stroke-opacity:1"/>
<line clip-path="url(#clip362)" x1="1620.5" y1="508.109" x2="1620.5" y2="492.109" style="stroke:#009af9; stroke-width:3.2; stroke-opacity:1"/>
<line clip-path="url(#clip362)" x1="1620.5" y1="508.109" x2="1604.5" y2="508.109" style="stroke:#009af9; stroke-width:3.2; stroke-opacity:1"/>
<line clip-path="url(#clip362)" x1="1620.5" y1="508.109" x2="1620.5" y2="524.109" style="stroke:#009af9; stroke-width:3.2; stroke-opacity:1"/>
<line clip-path="url(#clip362)" x1="1620.5" y1="508.109" x2="1636.5" y2="508.109" style="stroke:#009af9; stroke-width:3.2; stroke-opacity:1"/>
<line clip-path="url(#clip362)" x1="1687.68" y1="461.229" x2="1687.68" y2="445.229" style="stroke:#009af9; stroke-width:3.2; stroke-opacity:1"/>
<line clip-path="url(#clip362)" x1="1687.68" y1="461.229" x2="1671.68" y2="461.229" style="stroke:#009af9; stroke-width:3.2; stroke-opacity:1"/>
<line clip-path="url(#clip362)" x1="1687.68" y1="461.229" x2="1687.68" y2="477.229" style="stroke:#009af9; stroke-width:3.2; stroke-opacity:1"/>
<line clip-path="url(#clip362)" x1="1687.68" y1="461.229" x2="1703.68" y2="461.229" style="stroke:#009af9; stroke-width:3.2; stroke-opacity:1"/>
<line clip-path="url(#clip362)" x1="1754.86" y1="414.349" x2="1754.86" y2="398.349" style="stroke:#009af9; stroke-width:3.2; stroke-opacity:1"/>
<line clip-path="url(#clip362)" x1="1754.86" y1="414.349" x2="1738.86" y2="414.349" style="stroke:#009af9; stroke-width:3.2; stroke-opacity:1"/>
<line clip-path="url(#clip362)" x1="1754.86" y1="414.349" x2="1754.86" y2="430.349" style="stroke:#009af9; stroke-width:3.2; stroke-opacity:1"/>
<line clip-path="url(#clip362)" x1="1754.86" y1="414.349" x2="1770.86" y2="414.349" style="stroke:#009af9; stroke-width:3.2; stroke-opacity:1"/>
<line clip-path="url(#clip362)" x1="1822.03" y1="367.468" x2="1822.03" y2="351.468" style="stroke:#009af9; stroke-width:3.2; stroke-opacity:1"/>
<line clip-path="url(#clip362)" x1="1822.03" y1="367.468" x2="1806.03" y2="367.468" style="stroke:#009af9; stroke-width:3.2; stroke-opacity:1"/>
<line clip-path="url(#clip362)" x1="1822.03" y1="367.468" x2="1822.03" y2="383.468" style="stroke:#009af9; stroke-width:3.2; stroke-opacity:1"/>
<line clip-path="url(#clip362)" x1="1822.03" y1="367.468" x2="1838.03" y2="367.468" style="stroke:#009af9; stroke-width:3.2; stroke-opacity:1"/>
<line clip-path="url(#clip362)" x1="1889.21" y1="320.588" x2="1889.21" y2="304.588" style="stroke:#009af9; stroke-width:3.2; stroke-opacity:1"/>
<line clip-path="url(#clip362)" x1="1889.21" y1="320.588" x2="1873.21" y2="320.588" style="stroke:#009af9; stroke-width:3.2; stroke-opacity:1"/>
<line clip-path="url(#clip362)" x1="1889.21" y1="320.588" x2="1889.21" y2="336.588" style="stroke:#009af9; stroke-width:3.2; stroke-opacity:1"/>
<line clip-path="url(#clip362)" x1="1889.21" y1="320.588" x2="1905.21" y2="320.588" style="stroke:#009af9; stroke-width:3.2; stroke-opacity:1"/>
<line clip-path="url(#clip362)" x1="1956.39" y1="273.708" x2="1956.39" y2="257.708" style="stroke:#009af9; stroke-width:3.2; stroke-opacity:1"/>
<line clip-path="url(#clip362)" x1="1956.39" y1="273.708" x2="1940.39" y2="273.708" style="stroke:#009af9; stroke-width:3.2; stroke-opacity:1"/>
<line clip-path="url(#clip362)" x1="1956.39" y1="273.708" x2="1956.39" y2="289.708" style="stroke:#009af9; stroke-width:3.2; stroke-opacity:1"/>
<line clip-path="url(#clip362)" x1="1956.39" y1="273.708" x2="1972.39" y2="273.708" style="stroke:#009af9; stroke-width:3.2; stroke-opacity:1"/>
<line clip-path="url(#clip362)" x1="2023.57" y1="226.827" x2="2023.57" y2="210.827" style="stroke:#009af9; stroke-width:3.2; stroke-opacity:1"/>
<line clip-path="url(#clip362)" x1="2023.57" y1="226.827" x2="2007.57" y2="226.827" style="stroke:#009af9; stroke-width:3.2; stroke-opacity:1"/>
<line clip-path="url(#clip362)" x1="2023.57" y1="226.827" x2="2023.57" y2="242.827" style="stroke:#009af9; stroke-width:3.2; stroke-opacity:1"/>
<line clip-path="url(#clip362)" x1="2023.57" y1="226.827" x2="2039.57" y2="226.827" style="stroke:#009af9; stroke-width:3.2; stroke-opacity:1"/>
<line clip-path="url(#clip362)" x1="2090.75" y1="179.947" x2="2090.75" y2="163.947" style="stroke:#009af9; stroke-width:3.2; stroke-opacity:1"/>
<line clip-path="url(#clip362)" x1="2090.75" y1="179.947" x2="2074.75" y2="179.947" style="stroke:#009af9; stroke-width:3.2; stroke-opacity:1"/>
<line clip-path="url(#clip362)" x1="2090.75" y1="179.947" x2="2090.75" y2="195.947" style="stroke:#009af9; stroke-width:3.2; stroke-opacity:1"/>
<line clip-path="url(#clip362)" x1="2090.75" y1="179.947" x2="2106.75" y2="179.947" style="stroke:#009af9; stroke-width:3.2; stroke-opacity:1"/>
<line clip-path="url(#clip362)" x1="2157.93" y1="133.069" x2="2157.93" y2="117.069" style="stroke:#009af9; stroke-width:3.2; stroke-opacity:1"/>
<line clip-path="url(#clip362)" x1="2157.93" y1="133.069" x2="2141.93" y2="133.069" style="stroke:#009af9; stroke-width:3.2; stroke-opacity:1"/>
<line clip-path="url(#clip362)" x1="2157.93" y1="133.069" x2="2157.93" y2="149.069" style="stroke:#009af9; stroke-width:3.2; stroke-opacity:1"/>
<line clip-path="url(#clip362)" x1="2157.93" y1="133.069" x2="2173.93" y2="133.069" style="stroke:#009af9; stroke-width:3.2; stroke-opacity:1"/>
<line clip-path="url(#clip362)" x1="2225.11" y1="87.9763" x2="2225.11" y2="71.9763" style="stroke:#009af9; stroke-width:3.2; stroke-opacity:1"/>
<line clip-path="url(#clip362)" x1="2225.11" y1="87.9763" x2="2209.11" y2="87.9763" style="stroke:#009af9; stroke-width:3.2; stroke-opacity:1"/>
<line clip-path="url(#clip362)" x1="2225.11" y1="87.9763" x2="2225.11" y2="103.976" style="stroke:#009af9; stroke-width:3.2; stroke-opacity:1"/>
<line clip-path="url(#clip362)" x1="2225.11" y1="87.9763" x2="2241.11" y2="87.9763" style="stroke:#009af9; stroke-width:3.2; stroke-opacity:1"/>
<line clip-path="url(#clip362)" x1="2292.29" y1="1445.72" x2="2292.29" y2="1429.72" style="stroke:#009af9; stroke-width:3.2; stroke-opacity:1"/>
<line clip-path="url(#clip362)" x1="2292.29" y1="1445.72" x2="2276.29" y2="1445.72" style="stroke:#009af9; stroke-width:3.2; stroke-opacity:1"/>
<line clip-path="url(#clip362)" x1="2292.29" y1="1445.72" x2="2292.29" y2="1461.72" style="stroke:#009af9; stroke-width:3.2; stroke-opacity:1"/>
<line clip-path="url(#clip362)" x1="2292.29" y1="1445.72" x2="2308.29" y2="1445.72" style="stroke:#009af9; stroke-width:3.2; stroke-opacity:1"/>
</svg>
