<?xml version="1.0" encoding="utf-8"?>
<svg xmlns="http://www.w3.org/2000/svg" xmlns:xlink="http://www.w3.org/1999/xlink" width="600" height="400" viewBox="0 0 2400 1600">
<defs>
  <clipPath id="clip530">
    <rect x="0" y="0" width="2400" height="1600"/>
  </clipPath>
</defs>
<path clip-path="url(#clip530)" d="
M0 1600 L2400 1600 L2400 0 L0 0  Z
  " fill="#ffffff" fill-rule="evenodd" fill-opacity="1"/>
<defs>
  <clipPath id="clip531">
    <rect x="480" y="0" width="1681" height="1600"/>
  </clipPath>
</defs>
<path clip-path="url(#clip530)" d="
M193.936 1486.45 L2352.76 1486.45 L2352.76 47.2441 L193.936 47.2441  Z
  " fill="#ffffff" fill-rule="evenodd" fill-opacity="1"/>
<defs>
  <clipPath id="clip532">
    <rect x="193" y="47" width="2160" height="1440"/>
  </clipPath>
</defs>
<polyline clip-path="url(#clip532)" style="stroke:#000000; stroke-linecap:butt; stroke-linejoin:round; stroke-width:2; stroke-opacity:0.1; fill:none" points="
  255.035,1486.45 255.035,47.2441 
  "/>
<polyline clip-path="url(#clip532)" style="stroke:#000000; stroke-linecap:butt; stroke-linejoin:round; stroke-width:2; stroke-opacity:0.1; fill:none" points="
  764.19,1486.45 764.19,47.2441 
  "/>
<polyline clip-path="url(#clip532)" style="stroke:#000000; stroke-linecap:butt; stroke-linejoin:round; stroke-width:2; stroke-opacity:0.1; fill:none" points="
  1273.35,1486.45 1273.35,47.2441 
  "/>
<polyline clip-path="url(#clip532)" style="stroke:#000000; stroke-linecap:butt; stroke-linejoin:round; stroke-width:2; stroke-opacity:0.1; fill:none" points="
  1782.5,1486.45 1782.5,47.2441 
  "/>
<polyline clip-path="url(#clip532)" style="stroke:#000000; stroke-linecap:butt; stroke-linejoin:round; stroke-width:2; stroke-opacity:0.1; fill:none" points="
  2291.66,1486.45 2291.66,47.2441 
  "/>
<polyline clip-path="url(#clip530)" style="stroke:#000000; stroke-linecap:butt; stroke-linejoin:round; stroke-width:4; stroke-opacity:1; fill:none" points="
  193.936,1486.45 2352.76,1486.45 
  "/>
<polyline clip-path="url(#clip530)" style="stroke:#000000; stroke-linecap:butt; stroke-linejoin:round; stroke-width:4; stroke-opacity:1; fill:none" points="
  255.035,1486.45 255.035,1467.55 
  "/>
<polyline clip-path="url(#clip530)" style="stroke:#000000; stroke-linecap:butt; stroke-linejoin:round; stroke-width:4; stroke-opacity:1; fill:none" points="
  764.19,1486.45 764.19,1467.55 
  "/>
<polyline clip-path="url(#clip530)" style="stroke:#000000; stroke-linecap:butt; stroke-linejoin:round; stroke-width:4; stroke-opacity:1; fill:none" points="
  1273.35,1486.45 1273.35,1467.55 
  "/>
<polyline clip-path="url(#clip530)" style="stroke:#000000; stroke-linecap:butt; stroke-linejoin:round; stroke-width:4; stroke-opacity:1; fill:none" points="
  1782.5,1486.45 1782.5,1467.55 
  "/>
<polyline clip-path="url(#clip530)" style="stroke:#000000; stroke-linecap:butt; stroke-linejoin:round; stroke-width:4; stroke-opacity:1; fill:none" points="
  2291.66,1486.45 2291.66,1467.55 
  "/>
<path clip-path="url(#clip530)" d="M201.563 1532.02 L231.239 1532.02 L231.239 1535.95 L201.563 1535.95 L201.563 1532.02 Z" fill="#000000" fill-rule="evenodd" fill-opacity="1" /><path clip-path="url(#clip530)" d="M242.141 1544.91 L249.78 1544.91 L249.78 1518.55 L241.47 1520.21 L241.47 1515.95 L249.734 1514.29 L254.41 1514.29 L254.41 1544.91 L262.049 1544.91 L262.049 1548.85 L242.141 1548.85 L242.141 1544.91 Z" fill="#000000" fill-rule="evenodd" fill-opacity="1" /><path clip-path="url(#clip530)" d="M271.493 1542.97 L276.377 1542.97 L276.377 1548.85 L271.493 1548.85 L271.493 1542.97 Z" fill="#000000" fill-rule="evenodd" fill-opacity="1" /><path clip-path="url(#clip530)" d="M296.562 1517.37 Q292.951 1517.37 291.122 1520.93 Q289.317 1524.47 289.317 1531.6 Q289.317 1538.71 291.122 1542.27 Q292.951 1545.82 296.562 1545.82 Q300.196 1545.82 302.002 1542.27 Q303.831 1538.71 303.831 1531.6 Q303.831 1524.47 302.002 1520.93 Q300.196 1517.37 296.562 1517.37 M296.562 1513.66 Q302.372 1513.66 305.428 1518.27 Q308.507 1522.85 308.507 1531.6 Q308.507 1540.33 305.428 1544.94 Q302.372 1549.52 296.562 1549.52 Q290.752 1549.52 287.673 1544.94 Q284.618 1540.33 284.618 1531.6 Q284.618 1522.85 287.673 1518.27 Q290.752 1513.66 296.562 1513.66 Z" fill="#000000" fill-rule="evenodd" fill-opacity="1" /><path clip-path="url(#clip530)" d="M711.216 1532.02 L740.892 1532.02 L740.892 1535.95 L711.216 1535.95 L711.216 1532.02 Z" fill="#000000" fill-rule="evenodd" fill-opacity="1" /><path clip-path="url(#clip530)" d="M760.984 1517.37 Q757.373 1517.37 755.545 1520.93 Q753.739 1524.47 753.739 1531.6 Q753.739 1538.71 755.545 1542.27 Q757.373 1545.82 760.984 1545.82 Q764.619 1545.82 766.424 1542.27 Q768.253 1538.71 768.253 1531.6 Q768.253 1524.47 766.424 1520.93 Q764.619 1517.37 760.984 1517.37 M760.984 1513.66 Q766.794 1513.66 769.85 1518.27 Q772.929 1522.85 772.929 1531.6 Q772.929 1540.33 769.85 1544.94 Q766.794 1549.52 760.984 1549.52 Q755.174 1549.52 752.095 1544.94 Q749.04 1540.33 749.04 1531.6 Q749.04 1522.85 752.095 1518.27 Q755.174 1513.66 760.984 1513.66 Z" fill="#000000" fill-rule="evenodd" fill-opacity="1" /><path clip-path="url(#clip530)" d="M781.146 1542.97 L786.03 1542.97 L786.03 1548.85 L781.146 1548.85 L781.146 1542.97 Z" fill="#000000" fill-rule="evenodd" fill-opacity="1" /><path clip-path="url(#clip530)" d="M796.262 1514.29 L814.618 1514.29 L814.618 1518.22 L800.544 1518.22 L800.544 1526.7 Q801.563 1526.35 802.581 1526.19 Q803.6 1526 804.618 1526 Q810.405 1526 813.785 1529.17 Q817.165 1532.34 817.165 1537.76 Q817.165 1543.34 813.692 1546.44 Q810.22 1549.52 803.901 1549.52 Q801.725 1549.52 799.456 1549.15 Q797.211 1548.78 794.804 1548.04 L794.804 1543.34 Q796.887 1544.47 799.109 1545.03 Q801.331 1545.58 803.808 1545.58 Q807.813 1545.58 810.151 1543.48 Q812.489 1541.37 812.489 1537.76 Q812.489 1534.15 810.151 1532.04 Q807.813 1529.94 803.808 1529.94 Q801.933 1529.94 800.058 1530.35 Q798.206 1530.77 796.262 1531.65 L796.262 1514.29 Z" fill="#000000" fill-rule="evenodd" fill-opacity="1" /><path clip-path="url(#clip530)" d="M1250.73 1517.37 Q1247.12 1517.37 1245.29 1520.93 Q1243.49 1524.47 1243.49 1531.6 Q1243.49 1538.71 1245.29 1542.27 Q1247.12 1545.82 1250.73 1545.82 Q1254.36 1545.82 1256.17 1542.27 Q1258 1538.71 1258 1531.6 Q1258 1524.47 1256.17 1520.93 Q1254.36 1517.37 1250.73 1517.37 M1250.73 1513.66 Q1256.54 1513.66 1259.6 1518.27 Q1262.67 1522.85 1262.67 1531.6 Q1262.67 1540.33 1259.6 1544.94 Q1256.54 1549.52 1250.73 1549.52 Q1244.92 1549.52 1241.84 1544.94 Q1238.79 1540.33 1238.79 1531.6 Q1238.79 1522.85 1241.84 1518.27 Q1244.92 1513.66 1250.73 1513.66 Z" fill="#000000" fill-rule="evenodd" fill-opacity="1" /><path clip-path="url(#clip530)" d="M1270.89 1542.97 L1275.78 1542.97 L1275.78 1548.85 L1270.89 1548.85 L1270.89 1542.97 Z" fill="#000000" fill-rule="evenodd" fill-opacity="1" /><path clip-path="url(#clip530)" d="M1295.96 1517.37 Q1292.35 1517.37 1290.52 1520.93 Q1288.72 1524.47 1288.72 1531.6 Q1288.72 1538.71 1290.52 1542.27 Q1292.35 1545.82 1295.96 1545.82 Q1299.6 1545.82 1301.4 1542.27 Q1303.23 1538.71 1303.23 1531.6 Q1303.23 1524.47 1301.4 1520.93 Q1299.6 1517.37 1295.96 1517.37 M1295.96 1513.66 Q1301.77 1513.66 1304.83 1518.27 Q1307.91 1522.85 1307.91 1531.6 Q1307.91 1540.33 1304.83 1544.94 Q1301.77 1549.52 1295.96 1549.52 Q1290.15 1549.52 1287.07 1544.94 Q1284.02 1540.33 1284.02 1531.6 Q1284.02 1522.85 1287.07 1518.27 Q1290.15 1513.66 1295.96 1513.66 Z" fill="#000000" fill-rule="evenodd" fill-opacity="1" /><path clip-path="url(#clip530)" d="M1760.38 1517.37 Q1756.77 1517.37 1754.94 1520.93 Q1753.14 1524.47 1753.14 1531.6 Q1753.14 1538.71 1754.94 1542.27 Q1756.77 1545.82 1760.38 1545.82 Q1764.02 1545.82 1765.82 1542.27 Q1767.65 1538.71 1767.65 1531.6 Q1767.65 1524.47 1765.82 1520.93 Q1764.02 1517.37 1760.38 1517.37 M1760.38 1513.66 Q1766.19 1513.66 1769.25 1518.27 Q1772.33 1522.85 1772.33 1531.6 Q1772.33 1540.33 1769.25 1544.94 Q1766.19 1549.52 1760.38 1549.52 Q1754.57 1549.52 1751.49 1544.94 Q1748.44 1540.33 1748.44 1531.6 Q1748.44 1522.85 1751.49 1518.27 Q1754.57 1513.66 1760.38 1513.66 Z" fill="#000000" fill-rule="evenodd" fill-opacity="1" /><path clip-path="url(#clip530)" d="M1780.55 1542.97 L1785.43 1542.97 L1785.43 1548.85 L1780.55 1548.85 L1780.55 1542.97 Z" fill="#000000" fill-rule="evenodd" fill-opacity="1" /><path clip-path="url(#clip530)" d="M1795.66 1514.29 L1814.02 1514.29 L1814.02 1518.22 L1799.94 1518.22 L1799.94 1526.7 Q1800.96 1526.35 1801.98 1526.19 Q1803 1526 1804.02 1526 Q1809.8 1526 1813.18 1529.17 Q1816.56 1532.34 1816.56 1537.76 Q1816.56 1543.34 1813.09 1546.44 Q1809.62 1549.52 1803.3 1549.52 Q1801.12 1549.52 1798.86 1549.15 Q1796.61 1548.78 1794.2 1548.04 L1794.2 1543.34 Q1796.29 1544.47 1798.51 1545.03 Q1800.73 1545.58 1803.21 1545.58 Q1807.21 1545.58 1809.55 1543.48 Q1811.89 1541.37 1811.89 1537.76 Q1811.89 1534.15 1809.55 1532.04 Q1807.21 1529.94 1803.21 1529.94 Q1801.33 1529.94 1799.46 1530.35 Q1797.61 1530.77 1795.66 1531.65 L1795.66 1514.29 Z" fill="#000000" fill-rule="evenodd" fill-opacity="1" /><path clip-path="url(#clip530)" d="M2258.81 1544.91 L2266.45 1544.91 L2266.45 1518.55 L2258.14 1520.21 L2258.14 1515.95 L2266.4 1514.29 L2271.08 1514.29 L2271.08 1544.91 L2278.72 1544.91 L2278.72 1548.85 L2258.81 1548.85 L2258.81 1544.91 Z" fill="#000000" fill-rule="evenodd" fill-opacity="1" /><path clip-path="url(#clip530)" d="M2288.16 1542.97 L2293.05 1542.97 L2293.05 1548.85 L2288.16 1548.85 L2288.16 1542.97 Z" fill="#000000" fill-rule="evenodd" fill-opacity="1" /><path clip-path="url(#clip530)" d="M2313.23 1517.37 Q2309.62 1517.37 2307.79 1520.93 Q2305.99 1524.47 2305.99 1531.6 Q2305.99 1538.71 2307.79 1542.27 Q2309.62 1545.82 2313.23 1545.82 Q2316.87 1545.82 2318.67 1542.27 Q2320.5 1538.71 2320.5 1531.6 Q2320.5 1524.47 2318.67 1520.93 Q2316.87 1517.37 2313.23 1517.37 M2313.23 1513.66 Q2319.04 1513.66 2322.1 1518.27 Q2325.18 1522.85 2325.18 1531.6 Q2325.18 1540.33 2322.1 1544.94 Q2319.04 1549.52 2313.23 1549.52 Q2307.42 1549.52 2304.34 1544.94 Q2301.29 1540.33 2301.29 1531.6 Q2301.29 1522.85 2304.34 1518.27 Q2307.42 1513.66 2313.23 1513.66 Z" fill="#000000" fill-rule="evenodd" fill-opacity="1" /><polyline clip-path="url(#clip532)" style="stroke:#000000; stroke-linecap:butt; stroke-linejoin:round; stroke-width:2; stroke-opacity:0.1; fill:none" points="
  193.936,1445.72 2352.76,1445.72 
  "/>
<polyline clip-path="url(#clip532)" style="stroke:#000000; stroke-linecap:butt; stroke-linejoin:round; stroke-width:2; stroke-opacity:0.1; fill:none" points="
  193.936,1106.28 2352.76,1106.28 
  "/>
<polyline clip-path="url(#clip532)" style="stroke:#000000; stroke-linecap:butt; stroke-linejoin:round; stroke-width:2; stroke-opacity:0.1; fill:none" points="
  193.936,766.846 2352.76,766.846 
  "/>
<polyline clip-path="url(#clip532)" style="stroke:#000000; stroke-linecap:butt; stroke-linejoin:round; stroke-width:2; stroke-opacity:0.1; fill:none" points="
  193.936,427.411 2352.76,427.411 
  "/>
<polyline clip-path="url(#clip532)" style="stroke:#000000; stroke-linecap:butt; stroke-linejoin:round; stroke-width:2; stroke-opacity:0.1; fill:none" points="
  193.936,87.9763 2352.76,87.9763 
  "/>
<polyline clip-path="url(#clip530)" style="stroke:#000000; stroke-linecap:butt; stroke-linejoin:round; stroke-width:4; stroke-opacity:1; fill:none" points="
  193.936,1486.45 193.936,47.2441 
  "/>
<polyline clip-path="url(#clip530)" style="stroke:#000000; stroke-linecap:butt; stroke-linejoin:round; stroke-width:4; stroke-opacity:1; fill:none" points="
  193.936,1445.72 212.834,1445.72 
  "/>
<polyline clip-path="url(#clip530)" style="stroke:#000000; stroke-linecap:butt; stroke-linejoin:round; stroke-width:4; stroke-opacity:1; fill:none" points="
  193.936,1106.28 212.834,1106.28 
  "/>
<polyline clip-path="url(#clip530)" style="stroke:#000000; stroke-linecap:butt; stroke-linejoin:round; stroke-width:4; stroke-opacity:1; fill:none" points="
  193.936,766.846 212.834,766.846 
  "/>
<polyline clip-path="url(#clip530)" style="stroke:#000000; stroke-linecap:butt; stroke-linejoin:round; stroke-width:4; stroke-opacity:1; fill:none" points="
  193.936,427.411 212.834,427.411 
  "/>
<polyline clip-path="url(#clip530)" style="stroke:#000000; stroke-linecap:butt; stroke-linejoin:round; stroke-width:4; stroke-opacity:1; fill:none" points="
  193.936,87.9763 212.834,87.9763 
  "/>
<path clip-path="url(#clip530)" d="M50.9921 1446.17 L80.6679 1446.17 L80.6679 1450.1 L50.9921 1450.1 L50.9921 1446.17 Z" fill="#000000" fill-rule="evenodd" fill-opacity="1" /><path clip-path="url(#clip530)" d="M91.5706 1459.06 L99.2095 1459.06 L99.2095 1432.69 L90.8993 1434.36 L90.8993 1430.1 L99.1632 1428.44 L103.839 1428.44 L103.839 1459.06 L111.478 1459.06 L111.478 1463 L91.5706 1463 L91.5706 1459.06 Z" fill="#000000" fill-rule="evenodd" fill-opacity="1" /><path clip-path="url(#clip530)" d="M120.922 1457.12 L125.807 1457.12 L125.807 1463 L120.922 1463 L120.922 1457.12 Z" fill="#000000" fill-rule="evenodd" fill-opacity="1" /><path clip-path="url(#clip530)" d="M145.992 1431.51 Q142.381 1431.51 140.552 1435.08 Q138.746 1438.62 138.746 1445.75 Q138.746 1452.86 140.552 1456.42 Q142.381 1459.96 145.992 1459.96 Q149.626 1459.96 151.431 1456.42 Q153.26 1452.86 153.26 1445.75 Q153.26 1438.62 151.431 1435.08 Q149.626 1431.51 145.992 1431.51 M145.992 1427.81 Q151.802 1427.81 154.857 1432.42 Q157.936 1437 157.936 1445.75 Q157.936 1454.48 154.857 1459.08 Q151.802 1463.67 145.992 1463.67 Q140.181 1463.67 137.103 1459.08 Q134.047 1454.48 134.047 1445.75 Q134.047 1437 137.103 1432.42 Q140.181 1427.81 145.992 1427.81 Z" fill="#000000" fill-rule="evenodd" fill-opacity="1" /><path clip-path="url(#clip530)" d="M51.9875 1106.73 L81.6633 1106.73 L81.6633 1110.67 L51.9875 1110.67 L51.9875 1106.73 Z" fill="#000000" fill-rule="evenodd" fill-opacity="1" /><path clip-path="url(#clip530)" d="M101.756 1092.08 Q98.1447 1092.08 96.316 1095.64 Q94.5104 1099.19 94.5104 1106.32 Q94.5104 1113.42 96.316 1116.99 Q98.1447 1120.53 101.756 1120.53 Q105.39 1120.53 107.196 1116.99 Q109.024 1113.42 109.024 1106.32 Q109.024 1099.19 107.196 1095.64 Q105.39 1092.08 101.756 1092.08 M101.756 1088.38 Q107.566 1088.38 110.621 1092.98 Q113.7 1097.57 113.7 1106.32 Q113.7 1115.04 110.621 1119.65 Q107.566 1124.23 101.756 1124.23 Q95.9456 1124.23 92.8669 1119.65 Q89.8114 1115.04 89.8114 1106.32 Q89.8114 1097.57 92.8669 1092.98 Q95.9456 1088.38 101.756 1088.38 Z" fill="#000000" fill-rule="evenodd" fill-opacity="1" /><path clip-path="url(#clip530)" d="M121.918 1117.68 L126.802 1117.68 L126.802 1123.56 L121.918 1123.56 L121.918 1117.68 Z" fill="#000000" fill-rule="evenodd" fill-opacity="1" /><path clip-path="url(#clip530)" d="M137.033 1089 L155.39 1089 L155.39 1092.94 L141.316 1092.94 L141.316 1101.41 Q142.334 1101.06 143.353 1100.9 Q144.371 1100.71 145.39 1100.71 Q151.177 1100.71 154.556 1103.89 Q157.936 1107.06 157.936 1112.47 Q157.936 1118.05 154.464 1121.15 Q150.992 1124.23 144.672 1124.23 Q142.496 1124.23 140.228 1123.86 Q137.982 1123.49 135.575 1122.75 L135.575 1118.05 Q137.658 1119.19 139.881 1119.74 Q142.103 1120.3 144.58 1120.3 Q148.584 1120.3 150.922 1118.19 Q153.26 1116.08 153.26 1112.47 Q153.26 1108.86 150.922 1106.76 Q148.584 1104.65 144.58 1104.65 Q142.705 1104.65 140.83 1105.07 Q138.978 1105.48 137.033 1106.36 L137.033 1089 Z" fill="#000000" fill-rule="evenodd" fill-opacity="1" /><path clip-path="url(#clip530)" d="M100.76 752.645 Q97.1493 752.645 95.3206 756.209 Q93.515 759.751 93.515 766.881 Q93.515 773.987 95.3206 777.552 Q97.1493 781.094 100.76 781.094 Q104.395 781.094 106.2 777.552 Q108.029 773.987 108.029 766.881 Q108.029 759.751 106.2 756.209 Q104.395 752.645 100.76 752.645 M100.76 748.941 Q106.571 748.941 109.626 753.547 Q112.705 758.131 112.705 766.881 Q112.705 775.608 109.626 780.214 Q106.571 784.797 100.76 784.797 Q94.9502 784.797 91.8715 780.214 Q88.816 775.608 88.816 766.881 Q88.816 758.131 91.8715 753.547 Q94.9502 748.941 100.76 748.941 Z" fill="#000000" fill-rule="evenodd" fill-opacity="1" /><path clip-path="url(#clip530)" d="M120.922 778.246 L125.807 778.246 L125.807 784.126 L120.922 784.126 L120.922 778.246 Z" fill="#000000" fill-rule="evenodd" fill-opacity="1" /><path clip-path="url(#clip530)" d="M145.992 752.645 Q142.381 752.645 140.552 756.209 Q138.746 759.751 138.746 766.881 Q138.746 773.987 140.552 777.552 Q142.381 781.094 145.992 781.094 Q149.626 781.094 151.431 777.552 Q153.26 773.987 153.26 766.881 Q153.26 759.751 151.431 756.209 Q149.626 752.645 145.992 752.645 M145.992 748.941 Q151.802 748.941 154.857 753.547 Q157.936 758.131 157.936 766.881 Q157.936 775.608 154.857 780.214 Q151.802 784.797 145.992 784.797 Q140.181 784.797 137.103 780.214 Q134.047 775.608 134.047 766.881 Q134.047 758.131 137.103 753.547 Q140.181 748.941 145.992 748.941 Z" fill="#000000" fill-rule="evenodd" fill-opacity="1" /><path clip-path="url(#clip530)" d="M101.756 413.21 Q98.1447 413.21 96.316 416.775 Q94.5104 420.316 94.5104 427.446 Q94.5104 434.552 96.316 438.117 Q98.1447 441.659 101.756 441.659 Q105.39 441.659 107.196 438.117 Q109.024 434.552 109.024 427.446 Q109.024 420.316 107.196 416.775 Q105.39 413.21 101.756 413.21 M101.756 409.506 Q107.566 409.506 110.621 414.113 Q113.7 418.696 113.7 427.446 Q113.7 436.173 110.621 440.779 Q107.566 445.362 101.756 445.362 Q95.9456 445.362 92.8669 440.779 Q89.8114 436.173 89.8114 427.446 Q89.8114 418.696 92.8669 414.113 Q95.9456 409.506 101.756 409.506 Z" fill="#000000" fill-rule="evenodd" fill-opacity="1" /><path clip-path="url(#clip530)" d="M121.918 438.812 L126.802 438.812 L126.802 444.691 L121.918 444.691 L121.918 438.812 Z" fill="#000000" fill-rule="evenodd" fill-opacity="1" /><path clip-path="url(#clip530)" d="M137.033 410.131 L155.39 410.131 L155.39 414.066 L141.316 414.066 L141.316 422.538 Q142.334 422.191 143.353 422.029 Q144.371 421.844 145.39 421.844 Q151.177 421.844 154.556 425.015 Q157.936 428.187 157.936 433.603 Q157.936 439.182 154.464 442.284 Q150.992 445.362 144.672 445.362 Q142.496 445.362 140.228 444.992 Q137.982 444.622 135.575 443.881 L135.575 439.182 Q137.658 440.316 139.881 440.872 Q142.103 441.427 144.58 441.427 Q148.584 441.427 150.922 439.321 Q153.26 437.214 153.26 433.603 Q153.26 429.992 150.922 427.886 Q148.584 425.779 144.58 425.779 Q142.705 425.779 140.83 426.196 Q138.978 426.613 137.033 427.492 L137.033 410.131 Z" fill="#000000" fill-rule="evenodd" fill-opacity="1" /><path clip-path="url(#clip530)" d="M91.5706 101.321 L99.2095 101.321 L99.2095 74.9555 L90.8993 76.6222 L90.8993 72.3629 L99.1632 70.6963 L103.839 70.6963 L103.839 101.321 L111.478 101.321 L111.478 105.256 L91.5706 105.256 L91.5706 101.321 Z" fill="#000000" fill-rule="evenodd" fill-opacity="1" /><path clip-path="url(#clip530)" d="M120.922 99.3767 L125.807 99.3767 L125.807 105.256 L120.922 105.256 L120.922 99.3767 Z" fill="#000000" fill-rule="evenodd" fill-opacity="1" /><path clip-path="url(#clip530)" d="M145.992 73.775 Q142.381 73.775 140.552 77.3398 Q138.746 80.8814 138.746 88.011 Q138.746 95.1174 140.552 98.6822 Q142.381 102.224 145.992 102.224 Q149.626 102.224 151.431 98.6822 Q153.26 95.1174 153.26 88.011 Q153.26 80.8814 151.431 77.3398 Q149.626 73.775 145.992 73.775 M145.992 70.0713 Q151.802 70.0713 154.857 74.6777 Q157.936 79.261 157.936 88.011 Q157.936 96.7378 154.857 101.344 Q151.802 105.928 145.992 105.928 Q140.181 105.928 137.103 101.344 Q134.047 96.7378 134.047 88.011 Q134.047 79.261 137.103 74.6777 Q140.181 70.0713 145.992 70.0713 Z" fill="#000000" fill-rule="evenodd" fill-opacity="1" /><polyline clip-path="url(#clip532)" style="stroke:#009af9; stroke-linecap:butt; stroke-linejoin:round; stroke-width:12; stroke-opacity:1; fill:none" points="
  255.035,87.9763 275.607,87.9763 296.179,87.9763 316.751,87.9763 337.322,87.9763 357.894,87.9763 378.466,87.9763 399.038,87.9763 419.61,87.9763 440.182,87.9763 
  460.754,87.9763 481.326,87.9763 501.898,87.9763 522.47,87.9763 543.042,87.9763 563.614,87.9763 584.186,87.9763 604.758,87.9763 625.33,87.9763 645.902,87.9763 
  666.474,87.9763 687.046,87.9763 707.617,87.9763 728.189,87.9763 748.761,87.9763 769.333,87.9763 789.905,87.9763 810.477,87.9763 831.049,87.9763 851.621,87.9763 
  872.193,87.9763 892.765,87.9763 913.337,87.9763 933.909,87.9763 954.481,87.9763 975.053,87.9763 995.625,87.9763 1016.2,87.9763 1036.77,87.9763 1057.34,87.9763 
  1077.91,87.9763 1098.48,87.9763 1119.06,87.9763 1139.63,87.9763 1160.2,87.9763 1180.77,87.9763 1201.34,87.9763 1221.92,87.9763 1242.49,87.9763 1263.06,87.9763 
  1283.63,87.9763 1304.2,87.9763 1324.78,87.9763 1345.35,87.9763 1365.92,87.9763 1386.49,87.9763 1407.06,87.9763 1427.64,87.9763 1448.21,87.9763 1468.78,87.9763 
  1489.35,87.9763 1509.92,87.9763 1530.5,87.9763 1551.07,87.9763 1571.64,87.9763 1592.21,87.9763 1612.78,87.9763 1633.35,87.9763 1653.93,87.9763 1674.5,87.9763 
  1695.07,87.9763 1715.64,87.9763 1736.21,87.9763 1756.79,87.9763 1777.36,87.9763 1797.93,87.9763 1818.5,87.9763 1839.07,87.9763 1859.65,87.9763 1880.22,87.9763 
  1900.79,87.9763 1921.36,87.9763 1941.93,87.9763 1962.51,87.9763 1983.08,87.9763 2003.65,87.9763 2024.22,87.9763 2044.79,87.9763 2065.37,87.9763 2085.94,87.9763 
  2106.51,87.9763 2127.08,87.9763 2147.65,87.9763 2168.23,87.9763 2188.8,87.9763 2209.37,87.9763 2229.94,87.9763 2250.51,87.9763 2271.09,87.9763 2291.66,87.9763 
  
  "/>
<polyline clip-path="url(#clip532)" style="stroke:#e26f46; stroke-linecap:butt; stroke-linejoin:round; stroke-width:12; stroke-opacity:1; fill:none" points="
  255.035,1445.72 275.607,1432 296.179,1418.29 316.751,1404.57 337.322,1390.86 357.894,1377.14 378.466,1363.43 399.038,1349.71 419.61,1336 440.182,1322.28 
  460.754,1308.57 481.326,1294.86 501.898,1281.14 522.47,1267.43 543.042,1253.71 563.614,1240 584.186,1226.28 604.758,1212.57 625.33,1198.85 645.902,1185.14 
  666.474,1171.42 687.046,1157.71 707.617,1144 728.189,1130.28 748.761,1116.57 769.333,1102.85 789.905,1089.14 810.477,1075.42 831.049,1061.71 851.621,1047.99 
  872.193,1034.28 892.765,1020.56 913.337,1006.85 933.909,993.136 954.481,979.421 975.053,965.707 995.625,951.992 1016.2,938.278 1036.77,924.563 1057.34,910.849 
  1077.91,897.134 1098.48,883.42 1119.06,869.705 1139.63,855.99 1160.2,842.276 1180.77,828.561 1201.34,814.847 1221.92,801.132 1242.49,787.418 1263.06,773.703 
  1283.63,759.989 1304.2,746.274 1324.78,732.56 1345.35,718.845 1365.92,705.131 1386.49,691.416 1407.06,677.701 1427.64,663.987 1448.21,650.272 1468.78,636.558 
  1489.35,622.843 1509.92,609.129 1530.5,595.414 1551.07,581.7 1571.64,567.985 1592.21,554.271 1612.78,540.556 1633.35,526.842 1653.93,513.127 1674.5,499.412 
  1695.07,485.698 1715.64,471.983 1736.21,458.269 1756.79,444.554 1777.36,430.84 1797.93,417.125 1818.5,403.411 1839.07,389.696 1859.65,375.982 1880.22,362.267 
  1900.79,348.553 1921.36,334.838 1941.93,321.123 1962.51,307.409 1983.08,293.694 2003.65,279.98 2024.22,266.265 2044.79,252.551 2065.37,238.836 2085.94,225.122 
  2106.51,211.407 2127.08,197.693 2147.65,183.978 2168.23,170.264 2188.8,156.549 2209.37,142.834 2229.94,129.12 2250.51,115.405 2271.09,101.691 2291.66,87.9763 
  
  "/>
<polyline clip-path="url(#clip532)" style="stroke:#3da44d; stroke-linecap:butt; stroke-linejoin:round; stroke-width:12; stroke-opacity:1; fill:none" points="
  255.035,87.9763 275.607,142.28 296.179,195.476 316.751,247.564 337.322,298.543 357.894,348.414 378.466,397.177 399.038,444.831 419.61,491.378 440.182,536.816 
  460.754,581.146 481.326,624.367 501.898,666.48 522.47,707.486 543.042,747.382 563.614,786.171 584.186,823.851 604.758,860.423 625.33,895.887 645.902,930.243 
  666.474,963.49 687.046,995.629 707.617,1026.66 728.189,1056.58 748.761,1085.4 769.333,1113.1 789.905,1139.7 810.477,1165.19 831.049,1189.57 851.621,1212.85 
  872.193,1235.01 892.765,1256.07 913.337,1276.02 933.909,1294.86 954.481,1312.59 975.053,1329.21 995.625,1344.73 1016.2,1359.13 1036.77,1372.43 1057.34,1384.62 
  1077.91,1395.71 1098.48,1405.68 1119.06,1414.55 1139.63,1422.3 1160.2,1428.95 1180.77,1434.49 1201.34,1438.93 1221.92,1442.25 1242.49,1444.47 1263.06,1445.58 
  1283.63,1445.58 1304.2,1444.47 1324.78,1442.25 1345.35,1438.93 1365.92,1434.49 1386.49,1428.95 1407.06,1422.3 1427.64,1414.55 1448.21,1405.68 1468.78,1395.71 
  1489.35,1384.62 1509.92,1372.43 1530.5,1359.13 1551.07,1344.73 1571.64,1329.21 1592.21,1312.59 1612.78,1294.86 1633.35,1276.02 1653.93,1256.07 1674.5,1235.01 
  1695.07,1212.85 1715.64,1189.57 1736.21,1165.19 1756.79,1139.7 1777.36,1113.1 1797.93,1085.4 1818.5,1056.58 1839.07,1026.66 1859.65,995.629 1880.22,963.49 
  1900.79,930.243 1921.36,895.887 1941.93,860.423 1962.51,823.851 1983.08,786.171 2003.65,747.382 2024.22,707.486 2044.79,666.48 2065.37,624.367 2085.94,581.146 
  2106.51,536.816 2127.08,491.378 2147.65,444.831 2168.23,397.177 2188.8,348.414 2209.37,298.543 2229.94,247.564 2250.51,195.476 2271.09,142.28 2291.66,87.9763 
  
  "/>
<polyline clip-path="url(#clip532)" style="stroke:#c271d2; stroke-linecap:butt; stroke-linejoin:round; stroke-width:12; stroke-opacity:1; fill:none" points="
  255.035,1445.72 275.607,1325.59 296.179,1211.97 316.751,1104.74 337.322,1003.76 357.894,908.881 378.466,819.985 399.038,736.932 419.61,659.589 440.182,587.82 
  460.754,521.492 481.326,460.47 501.898,404.62 522.47,353.807 543.042,307.897 563.614,266.756 584.186,230.25 604.758,198.244 625.33,170.604 645.902,147.195 
  666.474,127.883 687.046,112.534 707.617,101.014 728.189,93.1873 748.761,88.9208 769.333,88.0798 789.905,90.53 810.477,96.137 831.049,104.766 851.621,116.284 
  872.193,130.556 892.765,147.447 913.337,166.823 933.909,188.55 954.481,212.493 975.053,238.519 995.625,266.492 1016.2,296.279 1036.77,327.745 1057.34,360.756 
  1077.91,395.177 1098.48,430.875 1119.06,467.714 1139.63,505.561 1160.2,544.281 1180.77,583.74 1201.34,623.803 1221.92,664.337 1242.49,705.206 1263.06,746.277 
  1283.63,787.415 1304.2,828.486 1324.78,869.355 1345.35,909.889 1365.92,949.952 1386.49,989.411 1407.06,1028.13 1427.64,1065.98 1448.21,1102.82 1468.78,1138.51 
  1489.35,1172.94 1509.92,1205.95 1530.5,1237.41 1551.07,1267.2 1571.64,1295.17 1592.21,1321.2 1612.78,1345.14 1633.35,1366.87 1653.93,1386.25 1674.5,1403.14 
  1695.07,1417.41 1715.64,1428.93 1736.21,1437.55 1756.79,1443.16 1777.36,1445.61 1797.93,1444.77 1818.5,1440.5 1839.07,1432.68 1859.65,1421.16 1880.22,1405.81 
  1900.79,1386.5 1921.36,1363.09 1941.93,1335.45 1962.51,1303.44 1983.08,1266.94 2003.65,1225.79 2024.22,1179.89 2044.79,1129.07 2065.37,1073.22 2085.94,1012.2 
  2106.51,945.872 2127.08,874.103 2147.65,796.76 2168.23,713.707 2188.8,624.811 2209.37,529.937 2229.94,428.951 2250.51,321.718 2271.09,208.105 2291.66,87.9763 
  
  "/>
<polyline clip-path="url(#clip532)" style="stroke:#ac8d18; stroke-linecap:butt; stroke-linejoin:round; stroke-width:12; stroke-opacity:1; fill:none" points="
  255.035,87.9763 275.607,296.505 296.179,483.93 316.751,651.295 337.322,799.619 357.894,929.901 378.466,1043.12 399.038,1140.23 419.61,1222.16 440.182,1289.83 
  460.754,1344.12 481.326,1385.91 501.898,1416.04 522.47,1435.33 543.042,1444.6 563.614,1444.62 584.186,1436.14 604.758,1419.92 625.33,1396.66 645.902,1367.06 
  666.474,1331.79 687.046,1291.51 707.617,1246.85 728.189,1198.4 748.761,1146.76 769.333,1092.5 789.905,1036.15 810.477,978.236 831.049,919.259 851.621,859.696 
  872.193,800.001 892.765,740.61 913.337,681.935 933.909,624.367 954.481,568.275 975.053,514.006 995.625,461.886 1016.2,412.218 1036.77,365.286 1057.34,321.349 
  1077.91,280.647 1098.48,243.396 1119.06,209.792 1139.63,180.008 1160.2,154.197 1180.77,132.489 1201.34,114.993 1221.92,101.794 1242.49,92.9588 1263.06,88.5303 
  1283.63,88.5303 1304.2,92.9588 1324.78,101.794 1345.35,114.993 1365.92,132.489 1386.49,154.197 1407.06,180.008 1427.64,209.792 1448.21,243.396 1468.78,280.647 
  1489.35,321.349 1509.92,365.286 1530.5,412.218 1551.07,461.886 1571.64,514.006 1592.21,568.275 1612.78,624.367 1633.35,681.935 1653.93,740.61 1674.5,800.001 
  1695.07,859.696 1715.64,919.259 1736.21,978.236 1756.79,1036.15 1777.36,1092.5 1797.93,1146.76 1818.5,1198.4 1839.07,1246.85 1859.65,1291.51 1880.22,1331.79 
  1900.79,1367.06 1921.36,1396.66 1941.93,1419.92 1962.51,1436.14 1983.08,1444.62 2003.65,1444.6 2024.22,1435.33 2044.79,1416.04 2065.37,1385.91 2085.94,1344.12 
  2106.51,1289.83 2127.08,1222.16 2147.65,1140.23 2168.23,1043.12 2188.8,929.901 2209.37,799.619 2229.94,651.295 2250.51,483.93 2271.09,296.505 2291.66,87.9763 
  
  "/>
<path clip-path="url(#clip530)" d="
M1986.78 406.258 L2280.8 406.258 L2280.8 95.2176 L1986.78 95.2176  Z
  " fill="#ffffff" fill-rule="evenodd" fill-opacity="1"/>
<polyline clip-path="url(#clip530)" style="stroke:#000000; stroke-linecap:butt; stroke-linejoin:round; stroke-width:4; stroke-opacity:1; fill:none" points="
  1986.78,406.258 2280.8,406.258 2280.8,95.2176 1986.78,95.2176 1986.78,406.258 
  "/>
<polyline clip-path="url(#clip530)" style="stroke:#009af9; stroke-linecap:butt; stroke-linejoin:round; stroke-width:4; stroke-opacity:1; fill:none" points="
  2010.77,147.058 2154.69,147.058 
  "/>
<path clip-path="url(#clip530)" d="M2192.52 166.745 Q2190.72 171.375 2189 172.787 Q2187.29 174.199 2184.42 174.199 L2181.02 174.199 L2181.02 170.634 L2183.52 170.634 Q2185.28 170.634 2186.25 169.8 Q2187.22 168.967 2188.4 165.865 L2189.16 163.921 L2178.68 138.412 L2183.19 138.412 L2191.29 158.689 L2199.4 138.412 L2203.91 138.412 L2192.52 166.745 Z" fill="#000000" fill-rule="evenodd" fill-opacity="1" /><path clip-path="url(#clip530)" d="M2211.2 160.402 L2218.84 160.402 L2218.84 134.037 L2210.53 135.703 L2210.53 131.444 L2218.79 129.778 L2223.47 129.778 L2223.47 160.402 L2231.11 160.402 L2231.11 164.338 L2211.2 164.338 L2211.2 160.402 Z" fill="#000000" fill-rule="evenodd" fill-opacity="1" /><polyline clip-path="url(#clip530)" style="stroke:#e26f46; stroke-linecap:butt; stroke-linejoin:round; stroke-width:4; stroke-opacity:1; fill:none" points="
  2010.77,198.898 2154.69,198.898 
  "/>
<path clip-path="url(#clip530)" d="M2192.52 218.585 Q2190.72 223.215 2189 224.627 Q2187.29 226.039 2184.42 226.039 L2181.02 226.039 L2181.02 222.474 L2183.52 222.474 Q2185.28 222.474 2186.25 221.64 Q2187.22 220.807 2188.4 217.705 L2189.16 215.761 L2178.68 190.252 L2183.19 190.252 L2191.29 210.529 L2199.4 190.252 L2203.91 190.252 L2192.52 218.585 Z" fill="#000000" fill-rule="evenodd" fill-opacity="1" /><path clip-path="url(#clip530)" d="M2214.42 212.242 L2230.74 212.242 L2230.74 216.178 L2208.79 216.178 L2208.79 212.242 Q2211.46 209.488 2216.04 204.858 Q2220.65 200.205 2221.83 198.863 Q2224.07 196.34 2224.95 194.604 Q2225.85 192.844 2225.85 191.155 Q2225.85 188.4 2223.91 186.664 Q2221.99 184.928 2218.89 184.928 Q2216.69 184.928 2214.23 185.692 Q2211.8 186.455 2209.03 188.006 L2209.03 183.284 Q2211.85 182.15 2214.3 181.571 Q2216.76 180.993 2218.79 180.993 Q2224.16 180.993 2227.36 183.678 Q2230.55 186.363 2230.55 190.854 Q2230.55 192.983 2229.74 194.905 Q2228.96 196.803 2226.85 199.395 Q2226.27 200.067 2223.17 203.284 Q2220.07 206.479 2214.42 212.242 Z" fill="#000000" fill-rule="evenodd" fill-opacity="1" /><polyline clip-path="url(#clip530)" style="stroke:#3da44d; stroke-linecap:butt; stroke-linejoin:round; stroke-width:4; stroke-opacity:1; fill:none" points="
  2010.77,250.738 2154.69,250.738 
  "/>
<path clip-path="url(#clip530)" d="M2192.52 270.425 Q2190.72 275.055 2189 276.467 Q2187.29 277.879 2184.42 277.879 L2181.02 277.879 L2181.02 274.314 L2183.52 274.314 Q2185.28 274.314 2186.25 273.48 Q2187.22 272.647 2188.4 269.545 L2189.16 267.601 L2178.68 242.092 L2183.19 242.092 L2191.29 262.369 L2199.4 242.092 L2203.91 242.092 L2192.52 270.425 Z" fill="#000000" fill-rule="evenodd" fill-opacity="1" /><path clip-path="url(#clip530)" d="M2224.56 249.383 Q2227.91 250.101 2229.79 252.369 Q2231.69 254.638 2231.69 257.971 Q2231.69 263.087 2228.17 265.888 Q2224.65 268.689 2218.17 268.689 Q2215.99 268.689 2213.68 268.249 Q2211.39 267.832 2208.93 266.976 L2208.93 262.462 Q2210.88 263.596 2213.19 264.175 Q2215.51 264.754 2218.03 264.754 Q2222.43 264.754 2224.72 263.018 Q2227.03 261.281 2227.03 257.971 Q2227.03 254.916 2224.88 253.203 Q2222.75 251.467 2218.93 251.467 L2214.9 251.467 L2214.9 247.624 L2219.12 247.624 Q2222.57 247.624 2224.4 246.258 Q2226.22 244.87 2226.22 242.277 Q2226.22 239.615 2224.33 238.203 Q2222.45 236.768 2218.93 236.768 Q2217.01 236.768 2214.81 237.184 Q2212.61 237.601 2209.97 238.481 L2209.97 234.314 Q2212.64 233.573 2214.95 233.203 Q2217.29 232.833 2219.35 232.833 Q2224.67 232.833 2227.78 235.263 Q2230.88 237.67 2230.88 241.791 Q2230.88 244.661 2229.23 246.652 Q2227.59 248.62 2224.56 249.383 Z" fill="#000000" fill-rule="evenodd" fill-opacity="1" /><polyline clip-path="url(#clip530)" style="stroke:#c271d2; stroke-linecap:butt; stroke-linejoin:round; stroke-width:4; stroke-opacity:1; fill:none" points="
  2010.77,302.578 2154.69,302.578 
  "/>
<path clip-path="url(#clip530)" d="M2192.52 322.265 Q2190.72 326.895 2189 328.307 Q2187.29 329.719 2184.42 329.719 L2181.02 329.719 L2181.02 326.154 L2183.52 326.154 Q2185.28 326.154 2186.25 325.32 Q2187.22 324.487 2188.4 321.385 L2189.16 319.441 L2178.68 293.932 L2183.19 293.932 L2191.29 314.209 L2199.4 293.932 L2203.91 293.932 L2192.52 322.265 Z" fill="#000000" fill-rule="evenodd" fill-opacity="1" /><path clip-path="url(#clip530)" d="M2223.24 289.372 L2211.43 307.821 L2223.24 307.821 L2223.24 289.372 M2222.01 285.298 L2227.89 285.298 L2227.89 307.821 L2232.82 307.821 L2232.82 311.709 L2227.89 311.709 L2227.89 319.858 L2223.24 319.858 L2223.24 311.709 L2207.64 311.709 L2207.64 307.196 L2222.01 285.298 Z" fill="#000000" fill-rule="evenodd" fill-opacity="1" /><polyline clip-path="url(#clip530)" style="stroke:#ac8d18; stroke-linecap:butt; stroke-linejoin:round; stroke-width:4; stroke-opacity:1; fill:none" points="
  2010.77,354.418 2154.69,354.418 
  "/>
<path clip-path="url(#clip530)" d="M2192.52 374.105 Q2190.72 378.735 2189 380.147 Q2187.29 381.559 2184.42 381.559 L2181.02 381.559 L2181.02 377.994 L2183.52 377.994 Q2185.28 377.994 2186.25 377.16 Q2187.22 376.327 2188.4 373.225 L2189.16 371.281 L2178.68 345.772 L2183.19 345.772 L2191.29 366.049 L2199.4 345.772 L2203.91 345.772 L2192.52 374.105 Z" fill="#000000" fill-rule="evenodd" fill-opacity="1" /><path clip-path="url(#clip530)" d="M2210.44 337.138 L2228.79 337.138 L2228.79 341.073 L2214.72 341.073 L2214.72 349.545 Q2215.74 349.198 2216.76 349.036 Q2217.78 348.85 2218.79 348.85 Q2224.58 348.85 2227.96 352.022 Q2231.34 355.193 2231.34 360.61 Q2231.34 366.188 2227.87 369.29 Q2224.4 372.369 2218.08 372.369 Q2215.9 372.369 2213.63 371.998 Q2211.39 371.628 2208.98 370.887 L2208.98 366.188 Q2211.06 367.323 2213.28 367.878 Q2215.51 368.434 2217.98 368.434 Q2221.99 368.434 2224.33 366.327 Q2226.66 364.221 2226.66 360.61 Q2226.66 356.999 2224.33 354.892 Q2221.99 352.786 2217.98 352.786 Q2216.11 352.786 2214.23 353.202 Q2212.38 353.619 2210.44 354.499 L2210.44 337.138 Z" fill="#000000" fill-rule="evenodd" fill-opacity="1" /></svg>
