<?xml version="1.0" encoding="utf-8"?>
<svg xmlns="http://www.w3.org/2000/svg" xmlns:xlink="http://www.w3.org/1999/xlink" width="600" height="400" viewBox="0 0 2400 1600">
<defs>
  <clipPath id="clip780">
    <rect x="0" y="0" width="2400" height="1600"/>
  </clipPath>
</defs>
<path clip-path="url(#clip780)" d="
M0 1600 L2400 1600 L2400 0 L0 0  Z
  " fill="#ffffff" fill-rule="evenodd" fill-opacity="1"/>
<defs>
  <clipPath id="clip781">
    <rect x="480" y="0" width="1681" height="1600"/>
  </clipPath>
</defs>
<path clip-path="url(#clip780)" d="
M156.598 1486.45 L2352.76 1486.45 L2352.76 123.472 L156.598 123.472  Z
  " fill="#ffffff" fill-rule="evenodd" fill-opacity="1"/>
<defs>
  <clipPath id="clip782">
    <rect x="156" y="123" width="2197" height="1364"/>
  </clipPath>
</defs>
<polyline clip-path="url(#clip782)" style="stroke:#000000; stroke-linecap:butt; stroke-linejoin:round; stroke-width:2; stroke-opacity:0.1; fill:none" points="
  218.754,1486.45 218.754,123.472 
  "/>
<polyline clip-path="url(#clip782)" style="stroke:#000000; stroke-linecap:butt; stroke-linejoin:round; stroke-width:2; stroke-opacity:0.1; fill:none" points="
  736.715,1486.45 736.715,123.472 
  "/>
<polyline clip-path="url(#clip782)" style="stroke:#000000; stroke-linecap:butt; stroke-linejoin:round; stroke-width:2; stroke-opacity:0.1; fill:none" points="
  1254.68,1486.45 1254.68,123.472 
  "/>
<polyline clip-path="url(#clip782)" style="stroke:#000000; stroke-linecap:butt; stroke-linejoin:round; stroke-width:2; stroke-opacity:0.1; fill:none" points="
  1772.64,1486.45 1772.64,123.472 
  "/>
<polyline clip-path="url(#clip782)" style="stroke:#000000; stroke-linecap:butt; stroke-linejoin:round; stroke-width:2; stroke-opacity:0.1; fill:none" points="
  2290.6,1486.45 2290.6,123.472 
  "/>
<polyline clip-path="url(#clip780)" style="stroke:#000000; stroke-linecap:butt; stroke-linejoin:round; stroke-width:4; stroke-opacity:1; fill:none" points="
  156.598,1486.45 2352.76,1486.45 
  "/>
<polyline clip-path="url(#clip780)" style="stroke:#000000; stroke-linecap:butt; stroke-linejoin:round; stroke-width:4; stroke-opacity:1; fill:none" points="
  218.754,1486.45 218.754,1467.55 
  "/>
<polyline clip-path="url(#clip780)" style="stroke:#000000; stroke-linecap:butt; stroke-linejoin:round; stroke-width:4; stroke-opacity:1; fill:none" points="
  736.715,1486.45 736.715,1467.55 
  "/>
<polyline clip-path="url(#clip780)" style="stroke:#000000; stroke-linecap:butt; stroke-linejoin:round; stroke-width:4; stroke-opacity:1; fill:none" points="
  1254.68,1486.45 1254.68,1467.55 
  "/>
<polyline clip-path="url(#clip780)" style="stroke:#000000; stroke-linecap:butt; stroke-linejoin:round; stroke-width:4; stroke-opacity:1; fill:none" points="
  1772.64,1486.45 1772.64,1467.55 
  "/>
<polyline clip-path="url(#clip780)" style="stroke:#000000; stroke-linecap:butt; stroke-linejoin:round; stroke-width:4; stroke-opacity:1; fill:none" points="
  2290.6,1486.45 2290.6,1467.55 
  "/>
<path clip-path="url(#clip780)" d="M165.282 1532.02 L194.957 1532.02 L194.957 1535.95 L165.282 1535.95 L165.282 1532.02 Z" fill="#000000" fill-rule="evenodd" fill-opacity="1" /><path clip-path="url(#clip780)" d="M205.86 1544.91 L213.499 1544.91 L213.499 1518.55 L205.189 1520.21 L205.189 1515.95 L213.453 1514.29 L218.129 1514.29 L218.129 1544.91 L225.767 1544.91 L225.767 1548.85 L205.86 1548.85 L205.86 1544.91 Z" fill="#000000" fill-rule="evenodd" fill-opacity="1" /><path clip-path="url(#clip780)" d="M235.212 1542.97 L240.096 1542.97 L240.096 1548.85 L235.212 1548.85 L235.212 1542.97 Z" fill="#000000" fill-rule="evenodd" fill-opacity="1" /><path clip-path="url(#clip780)" d="M260.281 1517.37 Q256.67 1517.37 254.841 1520.93 Q253.036 1524.47 253.036 1531.6 Q253.036 1538.71 254.841 1542.27 Q256.67 1545.82 260.281 1545.82 Q263.915 1545.82 265.721 1542.27 Q267.55 1538.71 267.55 1531.6 Q267.55 1524.47 265.721 1520.93 Q263.915 1517.37 260.281 1517.37 M260.281 1513.66 Q266.091 1513.66 269.147 1518.27 Q272.226 1522.85 272.226 1531.6 Q272.226 1540.33 269.147 1544.94 Q266.091 1549.52 260.281 1549.52 Q254.471 1549.52 251.392 1544.94 Q248.337 1540.33 248.337 1531.6 Q248.337 1522.85 251.392 1518.27 Q254.471 1513.66 260.281 1513.66 Z" fill="#000000" fill-rule="evenodd" fill-opacity="1" /><path clip-path="url(#clip780)" d="M683.741 1532.02 L713.417 1532.02 L713.417 1535.95 L683.741 1535.95 L683.741 1532.02 Z" fill="#000000" fill-rule="evenodd" fill-opacity="1" /><path clip-path="url(#clip780)" d="M733.509 1517.37 Q729.898 1517.37 728.07 1520.93 Q726.264 1524.47 726.264 1531.6 Q726.264 1538.71 728.07 1542.27 Q729.898 1545.82 733.509 1545.82 Q737.144 1545.82 738.949 1542.27 Q740.778 1538.71 740.778 1531.6 Q740.778 1524.47 738.949 1520.93 Q737.144 1517.37 733.509 1517.37 M733.509 1513.66 Q739.32 1513.66 742.375 1518.27 Q745.454 1522.85 745.454 1531.6 Q745.454 1540.33 742.375 1544.94 Q739.32 1549.52 733.509 1549.52 Q727.699 1549.52 724.621 1544.94 Q721.565 1540.33 721.565 1531.6 Q721.565 1522.85 724.621 1518.27 Q727.699 1513.66 733.509 1513.66 Z" fill="#000000" fill-rule="evenodd" fill-opacity="1" /><path clip-path="url(#clip780)" d="M753.671 1542.97 L758.556 1542.97 L758.556 1548.85 L753.671 1548.85 L753.671 1542.97 Z" fill="#000000" fill-rule="evenodd" fill-opacity="1" /><path clip-path="url(#clip780)" d="M768.787 1514.29 L787.143 1514.29 L787.143 1518.22 L773.069 1518.22 L773.069 1526.7 Q774.088 1526.35 775.106 1526.19 Q776.125 1526 777.143 1526 Q782.93 1526 786.31 1529.17 Q789.69 1532.34 789.69 1537.76 Q789.69 1543.34 786.217 1546.44 Q782.745 1549.52 776.426 1549.52 Q774.25 1549.52 771.981 1549.15 Q769.736 1548.78 767.329 1548.04 L767.329 1543.34 Q769.412 1544.47 771.634 1545.03 Q773.856 1545.58 776.333 1545.58 Q780.338 1545.58 782.676 1543.48 Q785.014 1541.37 785.014 1537.76 Q785.014 1534.15 782.676 1532.04 Q780.338 1529.94 776.333 1529.94 Q774.458 1529.94 772.583 1530.35 Q770.731 1530.77 768.787 1531.65 L768.787 1514.29 Z" fill="#000000" fill-rule="evenodd" fill-opacity="1" /><path clip-path="url(#clip780)" d="M1232.06 1517.37 Q1228.45 1517.37 1226.62 1520.93 Q1224.82 1524.47 1224.82 1531.6 Q1224.82 1538.71 1226.62 1542.27 Q1228.45 1545.82 1232.06 1545.82 Q1235.7 1545.82 1237.5 1542.27 Q1239.33 1538.71 1239.33 1531.6 Q1239.33 1524.47 1237.5 1520.93 Q1235.7 1517.37 1232.06 1517.37 M1232.06 1513.66 Q1237.87 1513.66 1240.93 1518.27 Q1244.01 1522.85 1244.01 1531.6 Q1244.01 1540.33 1240.93 1544.94 Q1237.87 1549.52 1232.06 1549.52 Q1226.25 1549.52 1223.17 1544.94 Q1220.12 1540.33 1220.12 1531.6 Q1220.12 1522.85 1223.17 1518.27 Q1226.25 1513.66 1232.06 1513.66 Z" fill="#000000" fill-rule="evenodd" fill-opacity="1" /><path clip-path="url(#clip780)" d="M1252.22 1542.97 L1257.11 1542.97 L1257.11 1548.85 L1252.22 1548.85 L1252.22 1542.97 Z" fill="#000000" fill-rule="evenodd" fill-opacity="1" /><path clip-path="url(#clip780)" d="M1277.29 1517.37 Q1273.68 1517.37 1271.85 1520.93 Q1270.05 1524.47 1270.05 1531.6 Q1270.05 1538.71 1271.85 1542.27 Q1273.68 1545.82 1277.29 1545.82 Q1280.93 1545.82 1282.73 1542.27 Q1284.56 1538.71 1284.56 1531.6 Q1284.56 1524.47 1282.73 1520.93 Q1280.93 1517.37 1277.29 1517.37 M1277.29 1513.66 Q1283.1 1513.66 1286.16 1518.27 Q1289.24 1522.85 1289.24 1531.6 Q1289.24 1540.33 1286.16 1544.94 Q1283.1 1549.52 1277.29 1549.52 Q1271.48 1549.52 1268.4 1544.94 Q1265.35 1540.33 1265.35 1531.6 Q1265.35 1522.85 1268.4 1518.27 Q1271.48 1513.66 1277.29 1513.66 Z" fill="#000000" fill-rule="evenodd" fill-opacity="1" /><path clip-path="url(#clip780)" d="M1750.52 1517.37 Q1746.91 1517.37 1745.08 1520.93 Q1743.28 1524.47 1743.28 1531.6 Q1743.28 1538.71 1745.08 1542.27 Q1746.91 1545.82 1750.52 1545.82 Q1754.16 1545.82 1755.96 1542.27 Q1757.79 1538.71 1757.79 1531.6 Q1757.79 1524.47 1755.96 1520.93 Q1754.16 1517.37 1750.52 1517.37 M1750.52 1513.66 Q1756.33 1513.66 1759.39 1518.27 Q1762.47 1522.85 1762.47 1531.6 Q1762.47 1540.33 1759.39 1544.94 Q1756.33 1549.52 1750.52 1549.52 Q1744.71 1549.52 1741.63 1544.94 Q1738.58 1540.33 1738.58 1531.6 Q1738.58 1522.85 1741.63 1518.27 Q1744.71 1513.66 1750.52 1513.66 Z" fill="#000000" fill-rule="evenodd" fill-opacity="1" /><path clip-path="url(#clip780)" d="M1770.68 1542.97 L1775.57 1542.97 L1775.57 1548.85 L1770.68 1548.85 L1770.68 1542.97 Z" fill="#000000" fill-rule="evenodd" fill-opacity="1" /><path clip-path="url(#clip780)" d="M1785.8 1514.29 L1804.15 1514.29 L1804.15 1518.22 L1790.08 1518.22 L1790.08 1526.7 Q1791.1 1526.35 1792.12 1526.19 Q1793.14 1526 1794.15 1526 Q1799.94 1526 1803.32 1529.17 Q1806.7 1532.34 1806.7 1537.76 Q1806.7 1543.34 1803.23 1546.44 Q1799.76 1549.52 1793.44 1549.52 Q1791.26 1549.52 1788.99 1549.15 Q1786.75 1548.78 1784.34 1548.04 L1784.34 1543.34 Q1786.42 1544.47 1788.65 1545.03 Q1790.87 1545.58 1793.34 1545.58 Q1797.35 1545.58 1799.69 1543.48 Q1802.03 1541.37 1802.03 1537.76 Q1802.03 1534.15 1799.69 1532.04 Q1797.35 1529.94 1793.34 1529.94 Q1791.47 1529.94 1789.59 1530.35 Q1787.74 1530.77 1785.8 1531.65 L1785.8 1514.29 Z" fill="#000000" fill-rule="evenodd" fill-opacity="1" /><path clip-path="url(#clip780)" d="M2257.75 1544.91 L2265.39 1544.91 L2265.39 1518.55 L2257.08 1520.21 L2257.08 1515.95 L2265.35 1514.29 L2270.02 1514.29 L2270.02 1544.91 L2277.66 1544.91 L2277.66 1548.85 L2257.75 1548.85 L2257.75 1544.91 Z" fill="#000000" fill-rule="evenodd" fill-opacity="1" /><path clip-path="url(#clip780)" d="M2287.11 1542.97 L2291.99 1542.97 L2291.99 1548.85 L2287.11 1548.85 L2287.11 1542.97 Z" fill="#000000" fill-rule="evenodd" fill-opacity="1" /><path clip-path="url(#clip780)" d="M2312.17 1517.37 Q2308.56 1517.37 2306.73 1520.93 Q2304.93 1524.47 2304.93 1531.6 Q2304.93 1538.71 2306.73 1542.27 Q2308.56 1545.82 2312.17 1545.82 Q2315.81 1545.82 2317.61 1542.27 Q2319.44 1538.71 2319.44 1531.6 Q2319.44 1524.47 2317.61 1520.93 Q2315.81 1517.37 2312.17 1517.37 M2312.17 1513.66 Q2317.98 1513.66 2321.04 1518.27 Q2324.12 1522.85 2324.12 1531.6 Q2324.12 1540.33 2321.04 1544.94 Q2317.98 1549.52 2312.17 1549.52 Q2306.36 1549.52 2303.29 1544.94 Q2300.23 1540.33 2300.23 1531.6 Q2300.23 1522.85 2303.29 1518.27 Q2306.36 1513.66 2312.17 1513.66 Z" fill="#000000" fill-rule="evenodd" fill-opacity="1" /><polyline clip-path="url(#clip782)" style="stroke:#000000; stroke-linecap:butt; stroke-linejoin:round; stroke-width:2; stroke-opacity:0.1; fill:none" points="
  156.598,1447.87 2352.76,1447.87 
  "/>
<polyline clip-path="url(#clip782)" style="stroke:#000000; stroke-linecap:butt; stroke-linejoin:round; stroke-width:2; stroke-opacity:0.1; fill:none" points="
  156.598,1245.9 2352.76,1245.9 
  "/>
<polyline clip-path="url(#clip782)" style="stroke:#000000; stroke-linecap:butt; stroke-linejoin:round; stroke-width:2; stroke-opacity:0.1; fill:none" points="
  156.598,1043.92 2352.76,1043.92 
  "/>
<polyline clip-path="url(#clip782)" style="stroke:#000000; stroke-linecap:butt; stroke-linejoin:round; stroke-width:2; stroke-opacity:0.1; fill:none" points="
  156.598,841.942 2352.76,841.942 
  "/>
<polyline clip-path="url(#clip782)" style="stroke:#000000; stroke-linecap:butt; stroke-linejoin:round; stroke-width:2; stroke-opacity:0.1; fill:none" points="
  156.598,639.965 2352.76,639.965 
  "/>
<polyline clip-path="url(#clip782)" style="stroke:#000000; stroke-linecap:butt; stroke-linejoin:round; stroke-width:2; stroke-opacity:0.1; fill:none" points="
  156.598,437.988 2352.76,437.988 
  "/>
<polyline clip-path="url(#clip782)" style="stroke:#000000; stroke-linecap:butt; stroke-linejoin:round; stroke-width:2; stroke-opacity:0.1; fill:none" points="
  156.598,236.01 2352.76,236.01 
  "/>
<polyline clip-path="url(#clip780)" style="stroke:#000000; stroke-linecap:butt; stroke-linejoin:round; stroke-width:4; stroke-opacity:1; fill:none" points="
  156.598,1486.45 156.598,123.472 
  "/>
<polyline clip-path="url(#clip780)" style="stroke:#000000; stroke-linecap:butt; stroke-linejoin:round; stroke-width:4; stroke-opacity:1; fill:none" points="
  156.598,1447.87 175.496,1447.87 
  "/>
<polyline clip-path="url(#clip780)" style="stroke:#000000; stroke-linecap:butt; stroke-linejoin:round; stroke-width:4; stroke-opacity:1; fill:none" points="
  156.598,1245.9 175.496,1245.9 
  "/>
<polyline clip-path="url(#clip780)" style="stroke:#000000; stroke-linecap:butt; stroke-linejoin:round; stroke-width:4; stroke-opacity:1; fill:none" points="
  156.598,1043.92 175.496,1043.92 
  "/>
<polyline clip-path="url(#clip780)" style="stroke:#000000; stroke-linecap:butt; stroke-linejoin:round; stroke-width:4; stroke-opacity:1; fill:none" points="
  156.598,841.942 175.496,841.942 
  "/>
<polyline clip-path="url(#clip780)" style="stroke:#000000; stroke-linecap:butt; stroke-linejoin:round; stroke-width:4; stroke-opacity:1; fill:none" points="
  156.598,639.965 175.496,639.965 
  "/>
<polyline clip-path="url(#clip780)" style="stroke:#000000; stroke-linecap:butt; stroke-linejoin:round; stroke-width:4; stroke-opacity:1; fill:none" points="
  156.598,437.988 175.496,437.988 
  "/>
<polyline clip-path="url(#clip780)" style="stroke:#000000; stroke-linecap:butt; stroke-linejoin:round; stroke-width:4; stroke-opacity:1; fill:none" points="
  156.598,236.01 175.496,236.01 
  "/>
<path clip-path="url(#clip780)" d="M63.4226 1433.67 Q59.8115 1433.67 57.9828 1437.24 Q56.1773 1440.78 56.1773 1447.91 Q56.1773 1455.01 57.9828 1458.58 Q59.8115 1462.12 63.4226 1462.12 Q67.0569 1462.12 68.8624 1458.58 Q70.6911 1455.01 70.6911 1447.91 Q70.6911 1440.78 68.8624 1437.24 Q67.0569 1433.67 63.4226 1433.67 M63.4226 1429.97 Q69.2328 1429.97 72.2883 1434.57 Q75.367 1439.16 75.367 1447.91 Q75.367 1456.63 72.2883 1461.24 Q69.2328 1465.82 63.4226 1465.82 Q57.6125 1465.82 54.5338 1461.24 Q51.4782 1456.63 51.4782 1447.91 Q51.4782 1439.16 54.5338 1434.57 Q57.6125 1429.97 63.4226 1429.97 Z" fill="#000000" fill-rule="evenodd" fill-opacity="1" /><path clip-path="url(#clip780)" d="M83.5845 1459.27 L88.4688 1459.27 L88.4688 1465.15 L83.5845 1465.15 L83.5845 1459.27 Z" fill="#000000" fill-rule="evenodd" fill-opacity="1" /><path clip-path="url(#clip780)" d="M108.654 1433.67 Q105.043 1433.67 103.214 1437.24 Q101.409 1440.78 101.409 1447.91 Q101.409 1455.01 103.214 1458.58 Q105.043 1462.12 108.654 1462.12 Q112.288 1462.12 114.094 1458.58 Q115.922 1455.01 115.922 1447.91 Q115.922 1440.78 114.094 1437.24 Q112.288 1433.67 108.654 1433.67 M108.654 1429.97 Q114.464 1429.97 117.52 1434.57 Q120.598 1439.16 120.598 1447.91 Q120.598 1456.63 117.52 1461.24 Q114.464 1465.82 108.654 1465.82 Q102.844 1465.82 99.765 1461.24 Q96.7095 1456.63 96.7095 1447.91 Q96.7095 1439.16 99.765 1434.57 Q102.844 1429.97 108.654 1429.97 Z" fill="#000000" fill-rule="evenodd" fill-opacity="1" /><path clip-path="url(#clip780)" d="M65.0198 1231.69 Q61.4087 1231.69 59.58 1235.26 Q57.7745 1238.8 57.7745 1245.93 Q57.7745 1253.04 59.58 1256.6 Q61.4087 1260.14 65.0198 1260.14 Q68.6541 1260.14 70.4596 1256.6 Q72.2883 1253.04 72.2883 1245.93 Q72.2883 1238.8 70.4596 1235.26 Q68.6541 1231.69 65.0198 1231.69 M65.0198 1227.99 Q70.83 1227.99 73.8855 1232.6 Q76.9642 1237.18 76.9642 1245.93 Q76.9642 1254.66 73.8855 1259.26 Q70.83 1263.85 65.0198 1263.85 Q59.2097 1263.85 56.131 1259.26 Q53.0754 1254.66 53.0754 1245.93 Q53.0754 1237.18 56.131 1232.6 Q59.2097 1227.99 65.0198 1227.99 Z" fill="#000000" fill-rule="evenodd" fill-opacity="1" /><path clip-path="url(#clip780)" d="M85.1818 1257.3 L90.066 1257.3 L90.066 1263.18 L85.1818 1263.18 L85.1818 1257.3 Z" fill="#000000" fill-rule="evenodd" fill-opacity="1" /><path clip-path="url(#clip780)" d="M104.279 1259.24 L120.598 1259.24 L120.598 1263.18 L98.6539 1263.18 L98.6539 1259.24 Q101.316 1256.49 105.899 1251.86 Q110.506 1247.2 111.686 1245.86 Q113.932 1243.34 114.811 1241.6 Q115.714 1239.84 115.714 1238.15 Q115.714 1235.4 113.77 1233.66 Q111.848 1231.93 108.746 1231.93 Q106.547 1231.93 104.094 1232.69 Q101.663 1233.45 98.8854 1235 L98.8854 1230.28 Q101.709 1229.15 104.163 1228.57 Q106.617 1227.99 108.654 1227.99 Q114.024 1227.99 117.219 1230.68 Q120.413 1233.36 120.413 1237.85 Q120.413 1239.98 119.603 1241.9 Q118.816 1243.8 116.709 1246.39 Q116.131 1247.06 113.029 1250.28 Q109.927 1253.48 104.279 1259.24 Z" fill="#000000" fill-rule="evenodd" fill-opacity="1" /><path clip-path="url(#clip780)" d="M62.9365 1029.72 Q59.3254 1029.72 57.4967 1033.28 Q55.6912 1036.82 55.6912 1043.95 Q55.6912 1051.06 57.4967 1054.62 Q59.3254 1058.17 62.9365 1058.17 Q66.5707 1058.17 68.3763 1054.62 Q70.205 1051.06 70.205 1043.95 Q70.205 1036.82 68.3763 1033.28 Q66.5707 1029.72 62.9365 1029.72 M62.9365 1026.01 Q68.7467 1026.01 71.8022 1030.62 Q74.8809 1035.2 74.8809 1043.95 Q74.8809 1052.68 71.8022 1057.29 Q68.7467 1061.87 62.9365 1061.87 Q57.1264 1061.87 54.0477 1057.29 Q50.9921 1052.68 50.9921 1043.95 Q50.9921 1035.2 54.0477 1030.62 Q57.1264 1026.01 62.9365 1026.01 Z" fill="#000000" fill-rule="evenodd" fill-opacity="1" /><path clip-path="url(#clip780)" d="M83.0984 1055.32 L87.9827 1055.32 L87.9827 1061.2 L83.0984 1061.2 L83.0984 1055.32 Z" fill="#000000" fill-rule="evenodd" fill-opacity="1" /><path clip-path="url(#clip780)" d="M111.015 1030.71 L99.2095 1049.16 L111.015 1049.16 L111.015 1030.71 M109.788 1026.64 L115.668 1026.64 L115.668 1049.16 L120.598 1049.16 L120.598 1053.05 L115.668 1053.05 L115.668 1061.2 L111.015 1061.2 L111.015 1053.05 L95.4132 1053.05 L95.4132 1048.54 L109.788 1026.64 Z" fill="#000000" fill-rule="evenodd" fill-opacity="1" /><path clip-path="url(#clip780)" d="M63.2606 827.74 Q59.6495 827.74 57.8208 831.305 Q56.0152 834.847 56.0152 841.976 Q56.0152 849.083 57.8208 852.648 Q59.6495 856.189 63.2606 856.189 Q66.8948 856.189 68.7004 852.648 Q70.5291 849.083 70.5291 841.976 Q70.5291 834.847 68.7004 831.305 Q66.8948 827.74 63.2606 827.74 M63.2606 824.037 Q69.0707 824.037 72.1263 828.643 Q75.205 833.227 75.205 841.976 Q75.205 850.703 72.1263 855.31 Q69.0707 859.893 63.2606 859.893 Q57.4504 859.893 54.3717 855.31 Q51.3162 850.703 51.3162 841.976 Q51.3162 833.227 54.3717 828.643 Q57.4504 824.037 63.2606 824.037 Z" fill="#000000" fill-rule="evenodd" fill-opacity="1" /><path clip-path="url(#clip780)" d="M83.4225 853.342 L88.3067 853.342 L88.3067 859.222 L83.4225 859.222 L83.4225 853.342 Z" fill="#000000" fill-rule="evenodd" fill-opacity="1" /><path clip-path="url(#clip780)" d="M109.071 840.078 Q105.922 840.078 104.071 842.231 Q102.242 844.384 102.242 848.134 Q102.242 851.861 104.071 854.037 Q105.922 856.189 109.071 856.189 Q112.219 856.189 114.047 854.037 Q115.899 851.861 115.899 848.134 Q115.899 844.384 114.047 842.231 Q112.219 840.078 109.071 840.078 M118.353 825.426 L118.353 829.685 Q116.594 828.852 114.788 828.412 Q113.006 827.972 111.246 827.972 Q106.617 827.972 104.163 831.097 Q101.733 834.222 101.385 840.541 Q102.751 838.527 104.811 837.463 Q106.871 836.375 109.348 836.375 Q114.557 836.375 117.566 839.546 Q120.598 842.694 120.598 848.134 Q120.598 853.458 117.45 856.675 Q114.302 859.893 109.071 859.893 Q103.075 859.893 99.9039 855.31 Q96.7326 850.703 96.7326 841.976 Q96.7326 833.782 100.621 828.921 Q104.51 824.037 111.061 824.037 Q112.82 824.037 114.603 824.384 Q116.408 824.731 118.353 825.426 Z" fill="#000000" fill-rule="evenodd" fill-opacity="1" /><path clip-path="url(#clip780)" d="M63.5152 625.763 Q59.9041 625.763 58.0754 629.328 Q56.2699 632.87 56.2699 639.999 Q56.2699 647.106 58.0754 650.671 Q59.9041 654.212 63.5152 654.212 Q67.1494 654.212 68.955 650.671 Q70.7837 647.106 70.7837 639.999 Q70.7837 632.87 68.955 629.328 Q67.1494 625.763 63.5152 625.763 M63.5152 622.06 Q69.3254 622.06 72.3809 626.666 Q75.4596 631.249 75.4596 639.999 Q75.4596 648.726 72.3809 653.333 Q69.3254 657.916 63.5152 657.916 Q57.7051 657.916 54.6264 653.333 Q51.5708 648.726 51.5708 639.999 Q51.5708 631.249 54.6264 626.666 Q57.7051 622.06 63.5152 622.06 Z" fill="#000000" fill-rule="evenodd" fill-opacity="1" /><path clip-path="url(#clip780)" d="M83.6771 651.365 L88.5614 651.365 L88.5614 657.245 L83.6771 657.245 L83.6771 651.365 Z" fill="#000000" fill-rule="evenodd" fill-opacity="1" /><path clip-path="url(#clip780)" d="M108.746 640.833 Q105.413 640.833 103.492 642.615 Q101.594 644.398 101.594 647.523 Q101.594 650.647 103.492 652.43 Q105.413 654.212 108.746 654.212 Q112.08 654.212 114.001 652.43 Q115.922 650.624 115.922 647.523 Q115.922 644.398 114.001 642.615 Q112.103 640.833 108.746 640.833 M104.071 638.842 Q101.061 638.101 99.3715 636.041 Q97.7048 633.981 97.7048 631.018 Q97.7048 626.874 100.645 624.467 Q103.608 622.06 108.746 622.06 Q113.908 622.06 116.848 624.467 Q119.788 626.874 119.788 631.018 Q119.788 633.981 118.098 636.041 Q116.432 638.101 113.445 638.842 Q116.825 639.629 118.7 641.921 Q120.598 644.212 120.598 647.523 Q120.598 652.546 117.52 655.231 Q114.464 657.916 108.746 657.916 Q103.029 657.916 99.9502 655.231 Q96.8947 652.546 96.8947 647.523 Q96.8947 644.212 98.7928 641.921 Q100.691 639.629 104.071 638.842 M102.358 631.458 Q102.358 634.143 104.024 635.648 Q105.714 637.152 108.746 637.152 Q111.756 637.152 113.445 635.648 Q115.158 634.143 115.158 631.458 Q115.158 628.773 113.445 627.268 Q111.756 625.763 108.746 625.763 Q105.714 625.763 104.024 627.268 Q102.358 628.773 102.358 631.458 Z" fill="#000000" fill-rule="evenodd" fill-opacity="1" /><path clip-path="url(#clip780)" d="M54.2328 451.332 L61.8717 451.332 L61.8717 424.967 L53.5616 426.633 L53.5616 422.374 L61.8254 420.708 L66.5013 420.708 L66.5013 451.332 L74.1402 451.332 L74.1402 455.268 L54.2328 455.268 L54.2328 451.332 Z" fill="#000000" fill-rule="evenodd" fill-opacity="1" /><path clip-path="url(#clip780)" d="M83.5845 449.388 L88.4688 449.388 L88.4688 455.268 L83.5845 455.268 L83.5845 449.388 Z" fill="#000000" fill-rule="evenodd" fill-opacity="1" /><path clip-path="url(#clip780)" d="M108.654 423.786 Q105.043 423.786 103.214 427.351 Q101.409 430.893 101.409 438.022 Q101.409 445.129 103.214 448.694 Q105.043 452.235 108.654 452.235 Q112.288 452.235 114.094 448.694 Q115.922 445.129 115.922 438.022 Q115.922 430.893 114.094 427.351 Q112.288 423.786 108.654 423.786 M108.654 420.083 Q114.464 420.083 117.52 424.689 Q120.598 429.272 120.598 438.022 Q120.598 446.749 117.52 451.356 Q114.464 455.939 108.654 455.939 Q102.844 455.939 99.765 451.356 Q96.7095 446.749 96.7095 438.022 Q96.7095 429.272 99.765 424.689 Q102.844 420.083 108.654 420.083 Z" fill="#000000" fill-rule="evenodd" fill-opacity="1" /><path clip-path="url(#clip780)" d="M55.8301 249.355 L63.4689 249.355 L63.4689 222.99 L55.1588 224.656 L55.1588 220.397 L63.4226 218.73 L68.0985 218.73 L68.0985 249.355 L75.7374 249.355 L75.7374 253.29 L55.8301 253.29 L55.8301 249.355 Z" fill="#000000" fill-rule="evenodd" fill-opacity="1" /><path clip-path="url(#clip780)" d="M85.1818 247.411 L90.066 247.411 L90.066 253.29 L85.1818 253.29 L85.1818 247.411 Z" fill="#000000" fill-rule="evenodd" fill-opacity="1" /><path clip-path="url(#clip780)" d="M104.279 249.355 L120.598 249.355 L120.598 253.29 L98.6539 253.29 L98.6539 249.355 Q101.316 246.601 105.899 241.971 Q110.506 237.318 111.686 235.976 Q113.932 233.453 114.811 231.717 Q115.714 229.957 115.714 228.267 Q115.714 225.513 113.77 223.777 Q111.848 222.041 108.746 222.041 Q106.547 222.041 104.094 222.805 Q101.663 223.568 98.8854 225.119 L98.8854 220.397 Q101.709 219.263 104.163 218.684 Q106.617 218.105 108.654 218.105 Q114.024 218.105 117.219 220.791 Q120.413 223.476 120.413 227.967 Q120.413 230.096 119.603 232.017 Q118.816 233.916 116.709 236.508 Q116.131 237.179 113.029 240.397 Q109.927 243.591 104.279 249.355 Z" fill="#000000" fill-rule="evenodd" fill-opacity="1" /><path clip-path="url(#clip780)" d="M698.67 12.096 L736.911 12.096 L736.911 18.9825 L706.853 18.9825 L706.853 36.8875 L735.655 36.8875 L735.655 43.7741 L706.853 43.7741 L706.853 65.6895 L737.64 65.6895 L737.64 72.576 L698.67 72.576 L698.67 12.096 Z" fill="#000000" fill-rule="evenodd" fill-opacity="1" /><path clip-path="url(#clip780)" d="M777.055 34.1734 Q775.799 33.4443 774.301 33.1202 Q772.842 32.7556 771.06 32.7556 Q764.74 32.7556 761.338 36.8875 Q757.975 40.9789 757.975 48.6757 L757.975 72.576 L750.481 72.576 L750.481 27.2059 L757.975 27.2059 L757.975 34.2544 Q760.325 30.1225 764.092 28.1376 Q767.86 26.1121 773.247 26.1121 Q774.017 26.1121 774.949 26.2337 Q775.88 26.3147 777.015 26.5172 L777.055 34.1734 Z" fill="#000000" fill-rule="evenodd" fill-opacity="1" /><path clip-path="url(#clip780)" d="M809.705 34.1734 Q808.45 33.4443 806.951 33.1202 Q805.493 32.7556 803.71 32.7556 Q797.391 32.7556 793.988 36.8875 Q790.626 40.9789 790.626 48.6757 L790.626 72.576 L783.132 72.576 L783.132 27.2059 L790.626 27.2059 L790.626 34.2544 Q792.975 30.1225 796.743 28.1376 Q800.51 26.1121 805.898 26.1121 Q806.667 26.1121 807.599 26.2337 Q808.531 26.3147 809.665 26.5172 L809.705 34.1734 Z" fill="#000000" fill-rule="evenodd" fill-opacity="1" /><path clip-path="url(#clip780)" d="M833.282 32.4315 Q827.286 32.4315 823.803 37.1306 Q820.319 41.7891 820.319 49.9314 Q820.319 58.0738 823.762 62.7728 Q827.246 67.4314 833.282 67.4314 Q839.237 67.4314 842.72 62.7323 Q846.204 58.0333 846.204 49.9314 Q846.204 41.8701 842.72 37.1711 Q839.237 32.4315 833.282 32.4315 M833.282 26.1121 Q843.004 26.1121 848.554 32.4315 Q854.103 38.7509 854.103 49.9314 Q854.103 61.0714 848.554 67.4314 Q843.004 73.7508 833.282 73.7508 Q823.519 73.7508 817.969 67.4314 Q812.46 61.0714 812.46 49.9314 Q812.46 38.7509 817.969 32.4315 Q823.519 26.1121 833.282 26.1121 Z" fill="#000000" fill-rule="evenodd" fill-opacity="1" /><path clip-path="url(#clip780)" d="M892.749 34.1734 Q891.493 33.4443 889.994 33.1202 Q888.536 32.7556 886.754 32.7556 Q880.434 32.7556 877.032 36.8875 Q873.669 40.9789 873.669 48.6757 L873.669 72.576 L866.175 72.576 L866.175 27.2059 L873.669 27.2059 L873.669 34.2544 Q876.019 30.1225 879.786 28.1376 Q883.553 26.1121 888.941 26.1121 Q889.711 26.1121 890.643 26.2337 Q891.574 26.3147 892.709 26.5172 L892.749 34.1734 Z" fill="#000000" fill-rule="evenodd" fill-opacity="1" /><path clip-path="url(#clip780)" d="M901.013 62.2867 L909.56 62.2867 L909.56 72.576 L901.013 72.576 L901.013 62.2867 M901.013 29.6769 L909.56 29.6769 L909.56 39.9662 L901.013 39.9662 L901.013 29.6769 Z" fill="#000000" fill-rule="evenodd" fill-opacity="1" /><path clip-path="url(#clip780)" d="M976.967 19.2256 L956.308 51.5113 L976.967 51.5113 L976.967 19.2256 M974.82 12.096 L985.11 12.096 L985.11 51.5113 L993.738 51.5113 L993.738 58.3168 L985.11 58.3168 L985.11 72.576 L976.967 72.576 L976.967 58.3168 L949.664 58.3168 L949.664 50.4176 L974.82 12.096 Z" fill="#000000" fill-rule="evenodd" fill-opacity="1" /><path clip-path="url(#clip780)" d="M1007.27 62.2867 L1015.82 62.2867 L1015.82 72.576 L1007.27 72.576 L1007.27 62.2867 Z" fill="#000000" fill-rule="evenodd" fill-opacity="1" /><path clip-path="url(#clip780)" d="M1033.88 71.3202 L1033.88 63.8666 Q1036.96 65.3249 1040.12 66.0946 Q1043.28 66.8642 1046.32 66.8642 Q1054.42 66.8642 1058.67 61.436 Q1062.97 55.9673 1063.58 44.8678 Q1061.23 48.3516 1057.62 50.215 Q1054.02 52.0784 1049.64 52.0784 Q1040.57 52.0784 1035.26 46.6097 Q1029.99 41.1005 1029.99 31.5808 Q1029.99 22.2638 1035.5 16.633 Q1041.01 11.0023 1050.17 11.0023 Q1060.66 11.0023 1066.17 19.0636 Q1071.72 27.0843 1071.72 42.3968 Q1071.72 56.6965 1064.91 65.2439 Q1058.15 73.7508 1046.68 73.7508 Q1043.6 73.7508 1040.45 73.1431 Q1037.29 72.5355 1033.88 71.3202 M1050.17 45.678 Q1055.68 45.678 1058.88 41.9107 Q1062.12 38.1433 1062.12 31.5808 Q1062.12 25.0589 1058.88 21.2916 Q1055.68 17.4837 1050.17 17.4837 Q1044.66 17.4837 1041.42 21.2916 Q1038.22 25.0589 1038.22 31.5808 Q1038.22 38.1433 1041.42 41.9107 Q1044.66 45.678 1050.17 45.678 Z" fill="#000000" fill-rule="evenodd" fill-opacity="1" /><path clip-path="url(#clip780)" d="M1108.91 19.2256 L1088.25 51.5113 L1108.91 51.5113 L1108.91 19.2256 M1106.76 12.096 L1117.05 12.096 L1117.05 51.5113 L1125.68 51.5113 L1125.68 58.3168 L1117.05 58.3168 L1117.05 72.576 L1108.91 72.576 L1108.91 58.3168 L1081.6 58.3168 L1081.6 50.4176 L1106.76 12.096 Z" fill="#000000" fill-rule="evenodd" fill-opacity="1" /><path clip-path="url(#clip780)" d="M1140.62 65.6895 L1153.99 65.6895 L1153.99 19.5497 L1139.45 22.4663 L1139.45 15.0127 L1153.91 12.096 L1162.09 12.096 L1162.09 65.6895 L1175.46 65.6895 L1175.46 72.576 L1140.62 72.576 L1140.62 65.6895 Z" fill="#000000" fill-rule="evenodd" fill-opacity="1" /><path clip-path="url(#clip780)" d="M1209.49 43.8551 Q1203.66 43.8551 1200.29 46.9743 Q1196.97 50.0935 1196.97 55.5622 Q1196.97 61.0309 1200.29 64.1501 Q1203.66 67.2693 1209.49 67.2693 Q1215.32 67.2693 1218.68 64.1501 Q1222.05 60.9904 1222.05 55.5622 Q1222.05 50.0935 1218.68 46.9743 Q1215.36 43.8551 1209.49 43.8551 M1201.31 40.3713 Q1196.04 39.075 1193.08 35.4697 Q1190.17 31.8644 1190.17 26.6793 Q1190.17 19.4281 1195.31 15.2152 Q1200.5 11.0023 1209.49 11.0023 Q1218.52 11.0023 1223.67 15.2152 Q1228.81 19.4281 1228.81 26.6793 Q1228.81 31.8644 1225.85 35.4697 Q1222.94 39.075 1217.71 40.3713 Q1223.63 41.7486 1226.91 45.759 Q1230.23 49.7694 1230.23 55.5622 Q1230.23 64.3527 1224.84 69.0517 Q1219.49 73.7508 1209.49 73.7508 Q1199.48 73.7508 1194.1 69.0517 Q1188.75 64.3527 1188.75 55.5622 Q1188.75 49.7694 1192.07 45.759 Q1195.39 41.7486 1201.31 40.3713 M1198.31 27.4489 Q1198.31 32.148 1201.23 34.7811 Q1204.18 37.4142 1209.49 37.4142 Q1214.76 37.4142 1217.71 34.7811 Q1220.71 32.148 1220.71 27.4489 Q1220.71 22.7499 1217.71 20.1168 Q1214.76 17.4837 1209.49 17.4837 Q1204.18 17.4837 1201.23 20.1168 Q1198.31 22.7499 1198.31 27.4489 Z" fill="#000000" fill-rule="evenodd" fill-opacity="1" /><path clip-path="url(#clip780)" d="M1245.02 71.3202 L1245.02 63.8666 Q1248.09 65.3249 1251.25 66.0946 Q1254.41 66.8642 1257.45 66.8642 Q1265.55 66.8642 1269.81 61.436 Q1274.1 55.9673 1274.71 44.8678 Q1272.36 48.3516 1268.75 50.215 Q1265.15 52.0784 1260.77 52.0784 Q1251.7 52.0784 1246.39 46.6097 Q1241.13 41.1005 1241.13 31.5808 Q1241.13 22.2638 1246.64 16.633 Q1252.15 11.0023 1261.3 11.0023 Q1271.79 11.0023 1277.3 19.0636 Q1282.85 27.0843 1282.85 42.3968 Q1282.85 56.6965 1276.05 65.2439 Q1269.28 73.7508 1257.82 73.7508 Q1254.74 73.7508 1251.58 73.1431 Q1248.42 72.5355 1245.02 71.3202 M1261.3 45.678 Q1266.81 45.678 1270.01 41.9107 Q1273.25 38.1433 1273.25 31.5808 Q1273.25 25.0589 1270.01 21.2916 Q1266.81 17.4837 1261.3 17.4837 Q1255.79 17.4837 1252.55 21.2916 Q1249.35 25.0589 1249.35 31.5808 Q1249.35 38.1433 1252.55 41.9107 Q1255.79 45.678 1261.3 45.678 Z" fill="#000000" fill-rule="evenodd" fill-opacity="1" /><path clip-path="url(#clip780)" d="M1295.49 12.096 L1334.38 12.096 L1334.38 15.5798 L1312.42 72.576 L1303.88 72.576 L1324.53 18.9825 L1295.49 18.9825 L1295.49 12.096 Z" fill="#000000" fill-rule="evenodd" fill-opacity="1" /><path clip-path="url(#clip780)" d="M1368.85 39.075 Q1363.34 39.075 1360.1 42.8424 Q1356.9 46.6097 1356.9 53.1722 Q1356.9 59.6941 1360.1 63.502 Q1363.34 67.2693 1368.85 67.2693 Q1374.36 67.2693 1377.56 63.502 Q1380.8 59.6941 1380.8 53.1722 Q1380.8 46.6097 1377.56 42.8424 Q1374.36 39.075 1368.85 39.075 M1385.1 13.4328 L1385.1 20.8865 Q1382.02 19.4281 1378.86 18.6585 Q1375.74 17.8888 1372.66 17.8888 Q1364.56 17.8888 1360.26 23.3575 Q1356.01 28.8262 1355.4 39.8852 Q1357.79 36.3609 1361.4 34.4975 Q1365 32.5936 1369.34 32.5936 Q1378.45 32.5936 1383.72 38.1433 Q1389.03 43.6525 1389.03 53.1722 Q1389.03 62.4892 1383.52 68.12 Q1378.01 73.7508 1368.85 73.7508 Q1358.36 73.7508 1352.81 65.73 Q1347.26 57.6687 1347.26 42.3968 Q1347.26 28.0566 1354.07 19.5497 Q1360.87 11.0023 1372.34 11.0023 Q1375.41 11.0023 1378.53 11.6099 Q1381.69 12.2175 1385.1 13.4328 Z" fill="#000000" fill-rule="evenodd" fill-opacity="1" /><path clip-path="url(#clip780)" d="M1403.37 71.3202 L1403.37 63.8666 Q1406.44 65.3249 1409.6 66.0946 Q1412.76 66.8642 1415.8 66.8642 Q1423.9 66.8642 1428.16 61.436 Q1432.45 55.9673 1433.06 44.8678 Q1430.71 48.3516 1427.1 50.215 Q1423.5 52.0784 1419.12 52.0784 Q1410.05 52.0784 1404.74 46.6097 Q1399.48 41.1005 1399.48 31.5808 Q1399.48 22.2638 1404.99 16.633 Q1410.5 11.0023 1419.65 11.0023 Q1430.14 11.0023 1435.65 19.0636 Q1441.2 27.0843 1441.2 42.3968 Q1441.2 56.6965 1434.4 65.2439 Q1427.63 73.7508 1416.17 73.7508 Q1413.09 73.7508 1409.93 73.1431 Q1406.77 72.5355 1403.37 71.3202 M1419.65 45.678 Q1425.16 45.678 1428.36 41.9107 Q1431.6 38.1433 1431.6 31.5808 Q1431.6 25.0589 1428.36 21.2916 Q1425.16 17.4837 1419.65 17.4837 Q1414.14 17.4837 1410.9 21.2916 Q1407.7 25.0589 1407.7 31.5808 Q1407.7 38.1433 1410.9 41.9107 Q1414.14 45.678 1419.65 45.678 Z" fill="#000000" fill-rule="evenodd" fill-opacity="1" /><path clip-path="url(#clip780)" d="M1455.99 12.096 L1488.11 12.096 L1488.11 18.9825 L1463.48 18.9825 L1463.48 33.8088 Q1465.26 33.2012 1467.05 32.9176 Q1468.83 32.5936 1470.61 32.5936 Q1480.74 32.5936 1486.65 38.1433 Q1492.57 43.6931 1492.57 53.1722 Q1492.57 62.9348 1486.49 68.3631 Q1480.41 73.7508 1469.35 73.7508 Q1465.55 73.7508 1461.58 73.1026 Q1457.65 72.4545 1453.43 71.1582 L1453.43 62.9348 Q1457.08 64.9198 1460.97 65.892 Q1464.86 66.8642 1469.19 66.8642 Q1476.2 66.8642 1480.29 63.1779 Q1484.38 59.4916 1484.38 53.1722 Q1484.38 46.8528 1480.29 43.1664 Q1476.2 39.4801 1469.19 39.4801 Q1465.91 39.4801 1462.63 40.2093 Q1459.39 40.9384 1455.99 42.4778 L1455.99 12.096 Z" fill="#000000" fill-rule="evenodd" fill-opacity="1" /><path clip-path="url(#clip780)" d="M1526.19 43.8551 Q1520.36 43.8551 1516.99 46.9743 Q1513.67 50.0935 1513.67 55.5622 Q1513.67 61.0309 1516.99 64.1501 Q1520.36 67.2693 1526.19 67.2693 Q1532.02 67.2693 1535.38 64.1501 Q1538.75 60.9904 1538.75 55.5622 Q1538.75 50.0935 1535.38 46.9743 Q1532.06 43.8551 1526.19 43.8551 M1518.01 40.3713 Q1512.74 39.075 1509.78 35.4697 Q1506.87 31.8644 1506.87 26.6793 Q1506.87 19.4281 1512.01 15.2152 Q1517.2 11.0023 1526.19 11.0023 Q1535.22 11.0023 1540.37 15.2152 Q1545.51 19.4281 1545.51 26.6793 Q1545.51 31.8644 1542.55 35.4697 Q1539.64 39.075 1534.41 40.3713 Q1540.33 41.7486 1543.61 45.759 Q1546.93 49.7694 1546.93 55.5622 Q1546.93 64.3527 1541.54 69.0517 Q1536.19 73.7508 1526.19 73.7508 Q1516.18 73.7508 1510.8 69.0517 Q1505.45 64.3527 1505.45 55.5622 Q1505.45 49.7694 1508.77 45.759 Q1512.09 41.7486 1518.01 40.3713 M1515.01 27.4489 Q1515.01 32.148 1517.93 34.7811 Q1520.88 37.4142 1526.19 37.4142 Q1531.46 37.4142 1534.41 34.7811 Q1537.41 32.148 1537.41 27.4489 Q1537.41 22.7499 1534.41 20.1168 Q1531.46 17.4837 1526.19 17.4837 Q1520.88 17.4837 1517.93 20.1168 Q1515.01 22.7499 1515.01 27.4489 Z" fill="#000000" fill-rule="evenodd" fill-opacity="1" /><path clip-path="url(#clip780)" d="M1579.98 39.075 Q1574.48 39.075 1571.23 42.8424 Q1568.03 46.6097 1568.03 53.1722 Q1568.03 59.6941 1571.23 63.502 Q1574.48 67.2693 1579.98 67.2693 Q1585.49 67.2693 1588.69 63.502 Q1591.94 59.6941 1591.94 53.1722 Q1591.94 46.6097 1588.69 42.8424 Q1585.49 39.075 1579.98 39.075 M1596.23 13.4328 L1596.23 20.8865 Q1593.15 19.4281 1589.99 18.6585 Q1586.87 17.8888 1583.79 17.8888 Q1575.69 17.8888 1571.4 23.3575 Q1567.14 28.8262 1566.54 39.8852 Q1568.93 36.3609 1572.53 34.4975 Q1576.14 32.5936 1580.47 32.5936 Q1589.59 32.5936 1594.85 38.1433 Q1600.16 43.6525 1600.16 53.1722 Q1600.16 62.4892 1594.65 68.12 Q1589.14 73.7508 1579.98 73.7508 Q1569.49 73.7508 1563.94 65.73 Q1558.39 57.6687 1558.39 42.3968 Q1558.39 28.0566 1565.2 19.5497 Q1572 11.0023 1583.47 11.0023 Q1586.55 11.0023 1589.67 11.6099 Q1592.83 12.2175 1596.23 13.4328 Z" fill="#000000" fill-rule="evenodd" fill-opacity="1" /><path clip-path="url(#clip780)" d="M1614.34 12.096 L1646.46 12.096 L1646.46 18.9825 L1621.83 18.9825 L1621.83 33.8088 Q1623.61 33.2012 1625.4 32.9176 Q1627.18 32.5936 1628.96 32.5936 Q1639.09 32.5936 1645 38.1433 Q1650.92 43.6931 1650.92 53.1722 Q1650.92 62.9348 1644.84 68.3631 Q1638.76 73.7508 1627.7 73.7508 Q1623.9 73.7508 1619.93 73.1026 Q1616 72.4545 1611.78 71.1582 L1611.78 62.9348 Q1615.43 64.9198 1619.32 65.892 Q1623.21 66.8642 1627.54 66.8642 Q1634.55 66.8642 1638.64 63.1779 Q1642.73 59.4916 1642.73 53.1722 Q1642.73 46.8528 1638.64 43.1664 Q1634.55 39.4801 1627.54 39.4801 Q1624.26 39.4801 1620.98 40.2093 Q1617.74 40.9384 1614.34 42.4778 L1614.34 12.096 Z" fill="#000000" fill-rule="evenodd" fill-opacity="1" /><path clip-path="url(#clip780)" d="M1668.46 65.6895 L1681.82 65.6895 L1681.82 19.5497 L1667.28 22.4663 L1667.28 15.0127 L1681.74 12.096 L1689.93 12.096 L1689.93 65.6895 L1703.29 65.6895 L1703.29 72.576 L1668.46 72.576 L1668.46 65.6895 Z" fill="#000000" fill-rule="evenodd" fill-opacity="1" /><path clip-path="url(#clip780)" d="M1721.24 65.6895 L1734.61 65.6895 L1734.61 19.5497 L1720.07 22.4663 L1720.07 15.0127 L1734.53 12.096 L1742.71 12.096 L1742.71 65.6895 L1756.08 65.6895 L1756.08 72.576 L1721.24 72.576 L1721.24 65.6895 Z" fill="#000000" fill-rule="evenodd" fill-opacity="1" /><path clip-path="url(#clip780)" d="M1772.85 71.3202 L1772.85 63.8666 Q1775.93 65.3249 1779.09 66.0946 Q1782.25 66.8642 1785.28 66.8642 Q1793.39 66.8642 1797.64 61.436 Q1801.93 55.9673 1802.54 44.8678 Q1800.19 48.3516 1796.59 50.215 Q1792.98 52.0784 1788.61 52.0784 Q1779.53 52.0784 1774.23 46.6097 Q1768.96 41.1005 1768.96 31.5808 Q1768.96 22.2638 1774.47 16.633 Q1779.98 11.0023 1789.13 11.0023 Q1799.62 11.0023 1805.13 19.0636 Q1810.68 27.0843 1810.68 42.3968 Q1810.68 56.6965 1803.88 65.2439 Q1797.11 73.7508 1785.65 73.7508 Q1782.57 73.7508 1779.41 73.1431 Q1776.25 72.5355 1772.85 71.3202 M1789.13 45.678 Q1794.64 45.678 1797.84 41.9107 Q1801.08 38.1433 1801.08 31.5808 Q1801.08 25.0589 1797.84 21.2916 Q1794.64 17.4837 1789.13 17.4837 Q1783.62 17.4837 1780.38 21.2916 Q1777.18 25.0589 1777.18 31.5808 Q1777.18 38.1433 1780.38 41.9107 Q1783.62 45.678 1789.13 45.678 Z" fill="#000000" fill-rule="evenodd" fill-opacity="1" /><polyline clip-path="url(#clip782)" style="stroke:#009af9; stroke-linecap:butt; stroke-linejoin:round; stroke-width:16; stroke-opacity:1; fill:none" points="
  218.754,1447.87 223.625,1441.83 235.053,1427.64 252.929,1405.46 277.139,1375.45 307.529,1337.85 343.907,1292.99 386.044,1241.34 433.673,1183.46 486.492,1120.07 
  544.168,1052.05 606.336,980.402 672.603,906.251 742.55,830.834 815.735,755.444 891.695,681.388 969.95,609.933 1050,542.245 1131.35,479.341 1213.48,422.033 
  1295.87,370.901 1378,326.267 1459.35,288.199 1539.4,256.519 1617.66,230.841 1693.62,210.613 1766.8,195.163 1836.75,183.759 1903.02,175.657 1965.19,170.143 
  2022.86,166.574 2075.68,164.395 2123.31,163.157 2165.45,162.512 2201.83,162.213 2232.22,162.094 2256.43,162.056 2274.3,162.048 2285.73,162.047 2290.6,162.047 
  
  "/>
<line clip-path="url(#clip782)" x1="218.754" y1="1447.87" x2="218.754" y2="1431.87" style="stroke:#009af9; stroke-width:3.2; stroke-opacity:1"/>
<line clip-path="url(#clip782)" x1="218.754" y1="1447.87" x2="202.754" y2="1447.87" style="stroke:#009af9; stroke-width:3.2; stroke-opacity:1"/>
<line clip-path="url(#clip782)" x1="218.754" y1="1447.87" x2="218.754" y2="1463.87" style="stroke:#009af9; stroke-width:3.2; stroke-opacity:1"/>
<line clip-path="url(#clip782)" x1="218.754" y1="1447.87" x2="234.754" y2="1447.87" style="stroke:#009af9; stroke-width:3.2; stroke-opacity:1"/>
<line clip-path="url(#clip782)" x1="223.625" y1="1441.83" x2="223.625" y2="1425.83" style="stroke:#009af9; stroke-width:3.2; stroke-opacity:1"/>
<line clip-path="url(#clip782)" x1="223.625" y1="1441.83" x2="207.625" y2="1441.83" style="stroke:#009af9; stroke-width:3.2; stroke-opacity:1"/>
<line clip-path="url(#clip782)" x1="223.625" y1="1441.83" x2="223.625" y2="1457.83" style="stroke:#009af9; stroke-width:3.2; stroke-opacity:1"/>
<line clip-path="url(#clip782)" x1="223.625" y1="1441.83" x2="239.625" y2="1441.83" style="stroke:#009af9; stroke-width:3.2; stroke-opacity:1"/>
<line clip-path="url(#clip782)" x1="235.053" y1="1427.64" x2="235.053" y2="1411.64" style="stroke:#009af9; stroke-width:3.2; stroke-opacity:1"/>
<line clip-path="url(#clip782)" x1="235.053" y1="1427.64" x2="219.053" y2="1427.64" style="stroke:#009af9; stroke-width:3.2; stroke-opacity:1"/>
<line clip-path="url(#clip782)" x1="235.053" y1="1427.64" x2="235.053" y2="1443.64" style="stroke:#009af9; stroke-width:3.2; stroke-opacity:1"/>
<line clip-path="url(#clip782)" x1="235.053" y1="1427.64" x2="251.053" y2="1427.64" style="stroke:#009af9; stroke-width:3.2; stroke-opacity:1"/>
<line clip-path="url(#clip782)" x1="252.929" y1="1405.46" x2="252.929" y2="1389.46" style="stroke:#009af9; stroke-width:3.2; stroke-opacity:1"/>
<line clip-path="url(#clip782)" x1="252.929" y1="1405.46" x2="236.929" y2="1405.46" style="stroke:#009af9; stroke-width:3.2; stroke-opacity:1"/>
<line clip-path="url(#clip782)" x1="252.929" y1="1405.46" x2="252.929" y2="1421.46" style="stroke:#009af9; stroke-width:3.2; stroke-opacity:1"/>
<line clip-path="url(#clip782)" x1="252.929" y1="1405.46" x2="268.929" y2="1405.46" style="stroke:#009af9; stroke-width:3.2; stroke-opacity:1"/>
<line clip-path="url(#clip782)" x1="277.139" y1="1375.45" x2="277.139" y2="1359.45" style="stroke:#009af9; stroke-width:3.2; stroke-opacity:1"/>
<line clip-path="url(#clip782)" x1="277.139" y1="1375.45" x2="261.139" y2="1375.45" style="stroke:#009af9; stroke-width:3.2; stroke-opacity:1"/>
<line clip-path="url(#clip782)" x1="277.139" y1="1375.45" x2="277.139" y2="1391.45" style="stroke:#009af9; stroke-width:3.2; stroke-opacity:1"/>
<line clip-path="url(#clip782)" x1="277.139" y1="1375.45" x2="293.139" y2="1375.45" style="stroke:#009af9; stroke-width:3.2; stroke-opacity:1"/>
<line clip-path="url(#clip782)" x1="307.529" y1="1337.85" x2="307.529" y2="1321.85" style="stroke:#009af9; stroke-width:3.2; stroke-opacity:1"/>
<line clip-path="url(#clip782)" x1="307.529" y1="1337.85" x2="291.529" y2="1337.85" style="stroke:#009af9; stroke-width:3.2; stroke-opacity:1"/>
<line clip-path="url(#clip782)" x1="307.529" y1="1337.85" x2="307.529" y2="1353.85" style="stroke:#009af9; stroke-width:3.2; stroke-opacity:1"/>
<line clip-path="url(#clip782)" x1="307.529" y1="1337.85" x2="323.529" y2="1337.85" style="stroke:#009af9; stroke-width:3.2; stroke-opacity:1"/>
<line clip-path="url(#clip782)" x1="343.907" y1="1292.99" x2="343.907" y2="1276.99" style="stroke:#009af9; stroke-width:3.2; stroke-opacity:1"/>
<line clip-path="url(#clip782)" x1="343.907" y1="1292.99" x2="327.907" y2="1292.99" style="stroke:#009af9; stroke-width:3.2; stroke-opacity:1"/>
<line clip-path="url(#clip782)" x1="343.907" y1="1292.99" x2="343.907" y2="1308.99" style="stroke:#009af9; stroke-width:3.2; stroke-opacity:1"/>
<line clip-path="url(#clip782)" x1="343.907" y1="1292.99" x2="359.907" y2="1292.99" style="stroke:#009af9; stroke-width:3.2; stroke-opacity:1"/>
<line clip-path="url(#clip782)" x1="386.044" y1="1241.34" x2="386.044" y2="1225.34" style="stroke:#009af9; stroke-width:3.2; stroke-opacity:1"/>
<line clip-path="url(#clip782)" x1="386.044" y1="1241.34" x2="370.044" y2="1241.34" style="stroke:#009af9; stroke-width:3.2; stroke-opacity:1"/>
<line clip-path="url(#clip782)" x1="386.044" y1="1241.34" x2="386.044" y2="1257.34" style="stroke:#009af9; stroke-width:3.2; stroke-opacity:1"/>
<line clip-path="url(#clip782)" x1="386.044" y1="1241.34" x2="402.044" y2="1241.34" style="stroke:#009af9; stroke-width:3.2; stroke-opacity:1"/>
<line clip-path="url(#clip782)" x1="433.673" y1="1183.46" x2="433.673" y2="1167.46" style="stroke:#009af9; stroke-width:3.2; stroke-opacity:1"/>
<line clip-path="url(#clip782)" x1="433.673" y1="1183.46" x2="417.673" y2="1183.46" style="stroke:#009af9; stroke-width:3.2; stroke-opacity:1"/>
<line clip-path="url(#clip782)" x1="433.673" y1="1183.46" x2="433.673" y2="1199.46" style="stroke:#009af9; stroke-width:3.2; stroke-opacity:1"/>
<line clip-path="url(#clip782)" x1="433.673" y1="1183.46" x2="449.673" y2="1183.46" style="stroke:#009af9; stroke-width:3.2; stroke-opacity:1"/>
<line clip-path="url(#clip782)" x1="486.492" y1="1120.07" x2="486.492" y2="1104.07" style="stroke:#009af9; stroke-width:3.2; stroke-opacity:1"/>
<line clip-path="url(#clip782)" x1="486.492" y1="1120.07" x2="470.492" y2="1120.07" style="stroke:#009af9; stroke-width:3.2; stroke-opacity:1"/>
<line clip-path="url(#clip782)" x1="486.492" y1="1120.07" x2="486.492" y2="1136.07" style="stroke:#009af9; stroke-width:3.2; stroke-opacity:1"/>
<line clip-path="url(#clip782)" x1="486.492" y1="1120.07" x2="502.492" y2="1120.07" style="stroke:#009af9; stroke-width:3.2; stroke-opacity:1"/>
<line clip-path="url(#clip782)" x1="544.168" y1="1052.05" x2="544.168" y2="1036.05" style="stroke:#009af9; stroke-width:3.2; stroke-opacity:1"/>
<line clip-path="url(#clip782)" x1="544.168" y1="1052.05" x2="528.168" y2="1052.05" style="stroke:#009af9; stroke-width:3.2; stroke-opacity:1"/>
<line clip-path="url(#clip782)" x1="544.168" y1="1052.05" x2="544.168" y2="1068.05" style="stroke:#009af9; stroke-width:3.2; stroke-opacity:1"/>
<line clip-path="url(#clip782)" x1="544.168" y1="1052.05" x2="560.168" y2="1052.05" style="stroke:#009af9; stroke-width:3.2; stroke-opacity:1"/>
<line clip-path="url(#clip782)" x1="606.336" y1="980.402" x2="606.336" y2="964.402" style="stroke:#009af9; stroke-width:3.2; stroke-opacity:1"/>
<line clip-path="url(#clip782)" x1="606.336" y1="980.402" x2="590.336" y2="980.402" style="stroke:#009af9; stroke-width:3.2; stroke-opacity:1"/>
<line clip-path="url(#clip782)" x1="606.336" y1="980.402" x2="606.336" y2="996.402" style="stroke:#009af9; stroke-width:3.2; stroke-opacity:1"/>
<line clip-path="url(#clip782)" x1="606.336" y1="980.402" x2="622.336" y2="980.402" style="stroke:#009af9; stroke-width:3.2; stroke-opacity:1"/>
<line clip-path="url(#clip782)" x1="672.603" y1="906.251" x2="672.603" y2="890.251" style="stroke:#009af9; stroke-width:3.2; stroke-opacity:1"/>
<line clip-path="url(#clip782)" x1="672.603" y1="906.251" x2="656.603" y2="906.251" style="stroke:#009af9; stroke-width:3.2; stroke-opacity:1"/>
<line clip-path="url(#clip782)" x1="672.603" y1="906.251" x2="672.603" y2="922.251" style="stroke:#009af9; stroke-width:3.2; stroke-opacity:1"/>
<line clip-path="url(#clip782)" x1="672.603" y1="906.251" x2="688.603" y2="906.251" style="stroke:#009af9; stroke-width:3.2; stroke-opacity:1"/>
<line clip-path="url(#clip782)" x1="742.55" y1="830.834" x2="742.55" y2="814.834" style="stroke:#009af9; stroke-width:3.2; stroke-opacity:1"/>
<line clip-path="url(#clip782)" x1="742.55" y1="830.834" x2="726.55" y2="830.834" style="stroke:#009af9; stroke-width:3.2; stroke-opacity:1"/>
<line clip-path="url(#clip782)" x1="742.55" y1="830.834" x2="742.55" y2="846.834" style="stroke:#009af9; stroke-width:3.2; stroke-opacity:1"/>
<line clip-path="url(#clip782)" x1="742.55" y1="830.834" x2="758.55" y2="830.834" style="stroke:#009af9; stroke-width:3.2; stroke-opacity:1"/>
<line clip-path="url(#clip782)" x1="815.735" y1="755.444" x2="815.735" y2="739.444" style="stroke:#009af9; stroke-width:3.2; stroke-opacity:1"/>
<line clip-path="url(#clip782)" x1="815.735" y1="755.444" x2="799.735" y2="755.444" style="stroke:#009af9; stroke-width:3.2; stroke-opacity:1"/>
<line clip-path="url(#clip782)" x1="815.735" y1="755.444" x2="815.735" y2="771.444" style="stroke:#009af9; stroke-width:3.2; stroke-opacity:1"/>
<line clip-path="url(#clip782)" x1="815.735" y1="755.444" x2="831.735" y2="755.444" style="stroke:#009af9; stroke-width:3.2; stroke-opacity:1"/>
<line clip-path="url(#clip782)" x1="891.695" y1="681.388" x2="891.695" y2="665.388" style="stroke:#009af9; stroke-width:3.2; stroke-opacity:1"/>
<line clip-path="url(#clip782)" x1="891.695" y1="681.388" x2="875.695" y2="681.388" style="stroke:#009af9; stroke-width:3.2; stroke-opacity:1"/>
<line clip-path="url(#clip782)" x1="891.695" y1="681.388" x2="891.695" y2="697.388" style="stroke:#009af9; stroke-width:3.2; stroke-opacity:1"/>
<line clip-path="url(#clip782)" x1="891.695" y1="681.388" x2="907.695" y2="681.388" style="stroke:#009af9; stroke-width:3.2; stroke-opacity:1"/>
<line clip-path="url(#clip782)" x1="969.95" y1="609.933" x2="969.95" y2="593.933" style="stroke:#009af9; stroke-width:3.2; stroke-opacity:1"/>
<line clip-path="url(#clip782)" x1="969.95" y1="609.933" x2="953.95" y2="609.933" style="stroke:#009af9; stroke-width:3.2; stroke-opacity:1"/>
<line clip-path="url(#clip782)" x1="969.95" y1="609.933" x2="969.95" y2="625.933" style="stroke:#009af9; stroke-width:3.2; stroke-opacity:1"/>
<line clip-path="url(#clip782)" x1="969.95" y1="609.933" x2="985.95" y2="609.933" style="stroke:#009af9; stroke-width:3.2; stroke-opacity:1"/>
<line clip-path="url(#clip782)" x1="1050" y1="542.245" x2="1050" y2="526.245" style="stroke:#009af9; stroke-width:3.2; stroke-opacity:1"/>
<line clip-path="url(#clip782)" x1="1050" y1="542.245" x2="1034" y2="542.245" style="stroke:#009af9; stroke-width:3.2; stroke-opacity:1"/>
<line clip-path="url(#clip782)" x1="1050" y1="542.245" x2="1050" y2="558.245" style="stroke:#009af9; stroke-width:3.2; stroke-opacity:1"/>
<line clip-path="url(#clip782)" x1="1050" y1="542.245" x2="1066" y2="542.245" style="stroke:#009af9; stroke-width:3.2; stroke-opacity:1"/>
<line clip-path="url(#clip782)" x1="1131.35" y1="479.341" x2="1131.35" y2="463.341" style="stroke:#009af9; stroke-width:3.2; stroke-opacity:1"/>
<line clip-path="url(#clip782)" x1="1131.35" y1="479.341" x2="1115.35" y2="479.341" style="stroke:#009af9; stroke-width:3.2; stroke-opacity:1"/>
<line clip-path="url(#clip782)" x1="1131.35" y1="479.341" x2="1131.35" y2="495.341" style="stroke:#009af9; stroke-width:3.2; stroke-opacity:1"/>
<line clip-path="url(#clip782)" x1="1131.35" y1="479.341" x2="1147.35" y2="479.341" style="stroke:#009af9; stroke-width:3.2; stroke-opacity:1"/>
<line clip-path="url(#clip782)" x1="1213.48" y1="422.033" x2="1213.48" y2="406.033" style="stroke:#009af9; stroke-width:3.2; stroke-opacity:1"/>
<line clip-path="url(#clip782)" x1="1213.48" y1="422.033" x2="1197.48" y2="422.033" style="stroke:#009af9; stroke-width:3.2; stroke-opacity:1"/>
<line clip-path="url(#clip782)" x1="1213.48" y1="422.033" x2="1213.48" y2="438.033" style="stroke:#009af9; stroke-width:3.2; stroke-opacity:1"/>
<line clip-path="url(#clip782)" x1="1213.48" y1="422.033" x2="1229.48" y2="422.033" style="stroke:#009af9; stroke-width:3.2; stroke-opacity:1"/>
<line clip-path="url(#clip782)" x1="1295.87" y1="370.901" x2="1295.87" y2="354.901" style="stroke:#009af9; stroke-width:3.2; stroke-opacity:1"/>
<line clip-path="url(#clip782)" x1="1295.87" y1="370.901" x2="1279.87" y2="370.901" style="stroke:#009af9; stroke-width:3.2; stroke-opacity:1"/>
<line clip-path="url(#clip782)" x1="1295.87" y1="370.901" x2="1295.87" y2="386.901" style="stroke:#009af9; stroke-width:3.2; stroke-opacity:1"/>
<line clip-path="url(#clip782)" x1="1295.87" y1="370.901" x2="1311.87" y2="370.901" style="stroke:#009af9; stroke-width:3.2; stroke-opacity:1"/>
<line clip-path="url(#clip782)" x1="1378" y1="326.267" x2="1378" y2="310.267" style="stroke:#009af9; stroke-width:3.2; stroke-opacity:1"/>
<line clip-path="url(#clip782)" x1="1378" y1="326.267" x2="1362" y2="326.267" style="stroke:#009af9; stroke-width:3.2; stroke-opacity:1"/>
<line clip-path="url(#clip782)" x1="1378" y1="326.267" x2="1378" y2="342.267" style="stroke:#009af9; stroke-width:3.2; stroke-opacity:1"/>
<line clip-path="url(#clip782)" x1="1378" y1="326.267" x2="1394" y2="326.267" style="stroke:#009af9; stroke-width:3.2; stroke-opacity:1"/>
<line clip-path="url(#clip782)" x1="1459.35" y1="288.199" x2="1459.35" y2="272.199" style="stroke:#009af9; stroke-width:3.2; stroke-opacity:1"/>
<line clip-path="url(#clip782)" x1="1459.35" y1="288.199" x2="1443.35" y2="288.199" style="stroke:#009af9; stroke-width:3.2; stroke-opacity:1"/>
<line clip-path="url(#clip782)" x1="1459.35" y1="288.199" x2="1459.35" y2="304.199" style="stroke:#009af9; stroke-width:3.2; stroke-opacity:1"/>
<line clip-path="url(#clip782)" x1="1459.35" y1="288.199" x2="1475.35" y2="288.199" style="stroke:#009af9; stroke-width:3.2; stroke-opacity:1"/>
<line clip-path="url(#clip782)" x1="1539.4" y1="256.519" x2="1539.4" y2="240.519" style="stroke:#009af9; stroke-width:3.2; stroke-opacity:1"/>
<line clip-path="url(#clip782)" x1="1539.4" y1="256.519" x2="1523.4" y2="256.519" style="stroke:#009af9; stroke-width:3.2; stroke-opacity:1"/>
<line clip-path="url(#clip782)" x1="1539.4" y1="256.519" x2="1539.4" y2="272.519" style="stroke:#009af9; stroke-width:3.2; stroke-opacity:1"/>
<line clip-path="url(#clip782)" x1="1539.4" y1="256.519" x2="1555.4" y2="256.519" style="stroke:#009af9; stroke-width:3.2; stroke-opacity:1"/>
<line clip-path="url(#clip782)" x1="1617.66" y1="230.841" x2="1617.66" y2="214.841" style="stroke:#009af9; stroke-width:3.2; stroke-opacity:1"/>
<line clip-path="url(#clip782)" x1="1617.66" y1="230.841" x2="1601.66" y2="230.841" style="stroke:#009af9; stroke-width:3.2; stroke-opacity:1"/>
<line clip-path="url(#clip782)" x1="1617.66" y1="230.841" x2="1617.66" y2="246.841" style="stroke:#009af9; stroke-width:3.2; stroke-opacity:1"/>
<line clip-path="url(#clip782)" x1="1617.66" y1="230.841" x2="1633.66" y2="230.841" style="stroke:#009af9; stroke-width:3.2; stroke-opacity:1"/>
<line clip-path="url(#clip782)" x1="1693.62" y1="210.613" x2="1693.62" y2="194.613" style="stroke:#009af9; stroke-width:3.2; stroke-opacity:1"/>
<line clip-path="url(#clip782)" x1="1693.62" y1="210.613" x2="1677.62" y2="210.613" style="stroke:#009af9; stroke-width:3.2; stroke-opacity:1"/>
<line clip-path="url(#clip782)" x1="1693.62" y1="210.613" x2="1693.62" y2="226.613" style="stroke:#009af9; stroke-width:3.2; stroke-opacity:1"/>
<line clip-path="url(#clip782)" x1="1693.62" y1="210.613" x2="1709.62" y2="210.613" style="stroke:#009af9; stroke-width:3.2; stroke-opacity:1"/>
<line clip-path="url(#clip782)" x1="1766.8" y1="195.163" x2="1766.8" y2="179.163" style="stroke:#009af9; stroke-width:3.2; stroke-opacity:1"/>
<line clip-path="url(#clip782)" x1="1766.8" y1="195.163" x2="1750.8" y2="195.163" style="stroke:#009af9; stroke-width:3.2; stroke-opacity:1"/>
<line clip-path="url(#clip782)" x1="1766.8" y1="195.163" x2="1766.8" y2="211.163" style="stroke:#009af9; stroke-width:3.2; stroke-opacity:1"/>
<line clip-path="url(#clip782)" x1="1766.8" y1="195.163" x2="1782.8" y2="195.163" style="stroke:#009af9; stroke-width:3.2; stroke-opacity:1"/>
<line clip-path="url(#clip782)" x1="1836.75" y1="183.759" x2="1836.75" y2="167.759" style="stroke:#009af9; stroke-width:3.2; stroke-opacity:1"/>
<line clip-path="url(#clip782)" x1="1836.75" y1="183.759" x2="1820.75" y2="183.759" style="stroke:#009af9; stroke-width:3.2; stroke-opacity:1"/>
<line clip-path="url(#clip782)" x1="1836.75" y1="183.759" x2="1836.75" y2="199.759" style="stroke:#009af9; stroke-width:3.2; stroke-opacity:1"/>
<line clip-path="url(#clip782)" x1="1836.75" y1="183.759" x2="1852.75" y2="183.759" style="stroke:#009af9; stroke-width:3.2; stroke-opacity:1"/>
<line clip-path="url(#clip782)" x1="1903.02" y1="175.657" x2="1903.02" y2="159.657" style="stroke:#009af9; stroke-width:3.2; stroke-opacity:1"/>
<line clip-path="url(#clip782)" x1="1903.02" y1="175.657" x2="1887.02" y2="175.657" style="stroke:#009af9; stroke-width:3.2; stroke-opacity:1"/>
<line clip-path="url(#clip782)" x1="1903.02" y1="175.657" x2="1903.02" y2="191.657" style="stroke:#009af9; stroke-width:3.2; stroke-opacity:1"/>
<line clip-path="url(#clip782)" x1="1903.02" y1="175.657" x2="1919.02" y2="175.657" style="stroke:#009af9; stroke-width:3.2; stroke-opacity:1"/>
<line clip-path="url(#clip782)" x1="1965.19" y1="170.143" x2="1965.19" y2="154.143" style="stroke:#009af9; stroke-width:3.2; stroke-opacity:1"/>
<line clip-path="url(#clip782)" x1="1965.19" y1="170.143" x2="1949.19" y2="170.143" style="stroke:#009af9; stroke-width:3.2; stroke-opacity:1"/>
<line clip-path="url(#clip782)" x1="1965.19" y1="170.143" x2="1965.19" y2="186.143" style="stroke:#009af9; stroke-width:3.2; stroke-opacity:1"/>
<line clip-path="url(#clip782)" x1="1965.19" y1="170.143" x2="1981.19" y2="170.143" style="stroke:#009af9; stroke-width:3.2; stroke-opacity:1"/>
<line clip-path="url(#clip782)" x1="2022.86" y1="166.574" x2="2022.86" y2="150.574" style="stroke:#009af9; stroke-width:3.2; stroke-opacity:1"/>
<line clip-path="url(#clip782)" x1="2022.86" y1="166.574" x2="2006.86" y2="166.574" style="stroke:#009af9; stroke-width:3.2; stroke-opacity:1"/>
<line clip-path="url(#clip782)" x1="2022.86" y1="166.574" x2="2022.86" y2="182.574" style="stroke:#009af9; stroke-width:3.2; stroke-opacity:1"/>
<line clip-path="url(#clip782)" x1="2022.86" y1="166.574" x2="2038.86" y2="166.574" style="stroke:#009af9; stroke-width:3.2; stroke-opacity:1"/>
<line clip-path="url(#clip782)" x1="2075.68" y1="164.395" x2="2075.68" y2="148.395" style="stroke:#009af9; stroke-width:3.2; stroke-opacity:1"/>
<line clip-path="url(#clip782)" x1="2075.68" y1="164.395" x2="2059.68" y2="164.395" style="stroke:#009af9; stroke-width:3.2; stroke-opacity:1"/>
<line clip-path="url(#clip782)" x1="2075.68" y1="164.395" x2="2075.68" y2="180.395" style="stroke:#009af9; stroke-width:3.2; stroke-opacity:1"/>
<line clip-path="url(#clip782)" x1="2075.68" y1="164.395" x2="2091.68" y2="164.395" style="stroke:#009af9; stroke-width:3.2; stroke-opacity:1"/>
<line clip-path="url(#clip782)" x1="2123.31" y1="163.157" x2="2123.31" y2="147.157" style="stroke:#009af9; stroke-width:3.2; stroke-opacity:1"/>
<line clip-path="url(#clip782)" x1="2123.31" y1="163.157" x2="2107.31" y2="163.157" style="stroke:#009af9; stroke-width:3.2; stroke-opacity:1"/>
<line clip-path="url(#clip782)" x1="2123.31" y1="163.157" x2="2123.31" y2="179.157" style="stroke:#009af9; stroke-width:3.2; stroke-opacity:1"/>
<line clip-path="url(#clip782)" x1="2123.31" y1="163.157" x2="2139.31" y2="163.157" style="stroke:#009af9; stroke-width:3.2; stroke-opacity:1"/>
<line clip-path="url(#clip782)" x1="2165.45" y1="162.512" x2="2165.45" y2="146.512" style="stroke:#009af9; stroke-width:3.2; stroke-opacity:1"/>
<line clip-path="url(#clip782)" x1="2165.45" y1="162.512" x2="2149.45" y2="162.512" style="stroke:#009af9; stroke-width:3.2; stroke-opacity:1"/>
<line clip-path="url(#clip782)" x1="2165.45" y1="162.512" x2="2165.45" y2="178.512" style="stroke:#009af9; stroke-width:3.2; stroke-opacity:1"/>
<line clip-path="url(#clip782)" x1="2165.45" y1="162.512" x2="2181.45" y2="162.512" style="stroke:#009af9; stroke-width:3.2; stroke-opacity:1"/>
<line clip-path="url(#clip782)" x1="2201.83" y1="162.213" x2="2201.83" y2="146.213" style="stroke:#009af9; stroke-width:3.2; stroke-opacity:1"/>
<line clip-path="url(#clip782)" x1="2201.83" y1="162.213" x2="2185.83" y2="162.213" style="stroke:#009af9; stroke-width:3.2; stroke-opacity:1"/>
<line clip-path="url(#clip782)" x1="2201.83" y1="162.213" x2="2201.83" y2="178.213" style="stroke:#009af9; stroke-width:3.2; stroke-opacity:1"/>
<line clip-path="url(#clip782)" x1="2201.83" y1="162.213" x2="2217.83" y2="162.213" style="stroke:#009af9; stroke-width:3.2; stroke-opacity:1"/>
<line clip-path="url(#clip782)" x1="2232.22" y1="162.094" x2="2232.22" y2="146.094" style="stroke:#009af9; stroke-width:3.2; stroke-opacity:1"/>
<line clip-path="url(#clip782)" x1="2232.22" y1="162.094" x2="2216.22" y2="162.094" style="stroke:#009af9; stroke-width:3.2; stroke-opacity:1"/>
<line clip-path="url(#clip782)" x1="2232.22" y1="162.094" x2="2232.22" y2="178.094" style="stroke:#009af9; stroke-width:3.2; stroke-opacity:1"/>
<line clip-path="url(#clip782)" x1="2232.22" y1="162.094" x2="2248.22" y2="162.094" style="stroke:#009af9; stroke-width:3.2; stroke-opacity:1"/>
<line clip-path="url(#clip782)" x1="2256.43" y1="162.056" x2="2256.43" y2="146.056" style="stroke:#009af9; stroke-width:3.2; stroke-opacity:1"/>
<line clip-path="url(#clip782)" x1="2256.43" y1="162.056" x2="2240.43" y2="162.056" style="stroke:#009af9; stroke-width:3.2; stroke-opacity:1"/>
<line clip-path="url(#clip782)" x1="2256.43" y1="162.056" x2="2256.43" y2="178.056" style="stroke:#009af9; stroke-width:3.2; stroke-opacity:1"/>
<line clip-path="url(#clip782)" x1="2256.43" y1="162.056" x2="2272.43" y2="162.056" style="stroke:#009af9; stroke-width:3.2; stroke-opacity:1"/>
<line clip-path="url(#clip782)" x1="2274.3" y1="162.048" x2="2274.3" y2="146.048" style="stroke:#009af9; stroke-width:3.2; stroke-opacity:1"/>
<line clip-path="url(#clip782)" x1="2274.3" y1="162.048" x2="2258.3" y2="162.048" style="stroke:#009af9; stroke-width:3.2; stroke-opacity:1"/>
<line clip-path="url(#clip782)" x1="2274.3" y1="162.048" x2="2274.3" y2="178.048" style="stroke:#009af9; stroke-width:3.2; stroke-opacity:1"/>
<line clip-path="url(#clip782)" x1="2274.3" y1="162.048" x2="2290.3" y2="162.048" style="stroke:#009af9; stroke-width:3.2; stroke-opacity:1"/>
<line clip-path="url(#clip782)" x1="2285.73" y1="162.047" x2="2285.73" y2="146.047" style="stroke:#009af9; stroke-width:3.2; stroke-opacity:1"/>
<line clip-path="url(#clip782)" x1="2285.73" y1="162.047" x2="2269.73" y2="162.047" style="stroke:#009af9; stroke-width:3.2; stroke-opacity:1"/>
<line clip-path="url(#clip782)" x1="2285.73" y1="162.047" x2="2285.73" y2="178.047" style="stroke:#009af9; stroke-width:3.2; stroke-opacity:1"/>
<line clip-path="url(#clip782)" x1="2285.73" y1="162.047" x2="2301.73" y2="162.047" style="stroke:#009af9; stroke-width:3.2; stroke-opacity:1"/>
<line clip-path="url(#clip782)" x1="2290.6" y1="162.047" x2="2290.6" y2="146.047" style="stroke:#009af9; stroke-width:3.2; stroke-opacity:1"/>
<line clip-path="url(#clip782)" x1="2290.6" y1="162.047" x2="2274.6" y2="162.047" style="stroke:#009af9; stroke-width:3.2; stroke-opacity:1"/>
<line clip-path="url(#clip782)" x1="2290.6" y1="162.047" x2="2290.6" y2="178.047" style="stroke:#009af9; stroke-width:3.2; stroke-opacity:1"/>
<line clip-path="url(#clip782)" x1="2290.6" y1="162.047" x2="2306.6" y2="162.047" style="stroke:#009af9; stroke-width:3.2; stroke-opacity:1"/>
<polyline clip-path="url(#clip782)" style="stroke:#e26f46; stroke-linecap:butt; stroke-linejoin:round; stroke-width:16; stroke-opacity:1; fill:none" points="
  218.754,1447.87 225.498,1443.69 232.242,1439.5 294.604,1400.9 356.966,1362.72 394.443,1340.12 431.92,1317.87 463.607,1299.38 495.293,1281.23 529.713,1261.96 
  564.133,1243.19 595.866,1226.38 627.598,1210.08 661.618,1193.22 695.639,1177.04 735.055,1159.19 774.471,1142.37 791.985,1135.25 809.499,1128.35 827.013,1121.67 
  844.528,1115.22 875.244,1104.48 905.961,1094.48 939.45,1084.45 972.94,1075.37 1006.63,1067.19 1040.32,1060.01 1058.94,1056.48 1077.56,1053.25 1096.19,1050.34 
  1114.81,1047.75 1132.53,1045.58 1150.25,1043.7 1167.97,1042.11 1185.69,1040.82 1204.11,1039.78 1222.54,1039.07 1240.96,1038.67 1259.39,1038.59 1290.41,1039.18 
  1321.42,1040.68 1340.36,1042.03 1359.3,1043.72 1378.23,1045.74 1397.17,1048.1 1431.86,1053.26 1466.55,1059.52 1498.59,1066.26 1530.63,1073.89 1563.09,1082.53 
  1595.54,1092.05 1631.92,1103.74 1668.29,1116.47 1701.25,1128.89 1734.21,1142.1 1771.95,1158.16 1809.69,1175.17 1844.63,1191.71 1879.57,1208.98 1914.02,1226.66 
  1948.47,1244.94 1981.92,1263.22 2015.36,1281.97 2049.65,1301.64 2083.94,1321.7 2121.5,1344.07 2159.07,1366.78 2213.64,1400.22 2268.21,1433.98 2279.41,1440.93 
  2290.6,1447.87 
  "/>
<path clip-path="url(#clip780)" d="
M1983.1 324.425 L2279.55 324.425 L2279.55 168.905 L1983.1 168.905  Z
  " fill="#ffffff" fill-rule="evenodd" fill-opacity="1"/>
<polyline clip-path="url(#clip780)" style="stroke:#000000; stroke-linecap:butt; stroke-linejoin:round; stroke-width:4; stroke-opacity:1; fill:none" points="
  1983.1,324.425 2279.55,324.425 2279.55,168.905 1983.1,168.905 1983.1,324.425 
  "/>
<polyline clip-path="url(#clip780)" style="stroke:#009af9; stroke-linecap:butt; stroke-linejoin:round; stroke-width:4; stroke-opacity:1; fill:none" points="
  2007.5,220.745 2153.92,220.745 
  "/>
<line clip-path="url(#clip780)" x1="2080.71" y1="220.745" x2="2080.71" y2="195.145" style="stroke:#009af9; stroke-width:5.12; stroke-opacity:1"/>
<line clip-path="url(#clip780)" x1="2080.71" y1="220.745" x2="2055.11" y2="220.745" style="stroke:#009af9; stroke-width:5.12; stroke-opacity:1"/>
<line clip-path="url(#clip780)" x1="2080.71" y1="220.745" x2="2080.71" y2="246.345" style="stroke:#009af9; stroke-width:5.12; stroke-opacity:1"/>
<line clip-path="url(#clip780)" x1="2080.71" y1="220.745" x2="2106.31" y2="220.745" style="stroke:#009af9; stroke-width:5.12; stroke-opacity:1"/>
<path clip-path="url(#clip780)" d="M2192.16 240.432 Q2190.35 245.062 2188.64 246.474 Q2186.93 247.886 2184.06 247.886 L2180.65 247.886 L2180.65 244.321 L2183.15 244.321 Q2184.91 244.321 2185.89 243.488 Q2186.86 242.654 2188.04 239.552 L2188.8 237.608 L2178.32 212.099 L2182.83 212.099 L2190.93 232.377 L2199.03 212.099 L2203.55 212.099 L2192.16 240.432 Z" fill="#000000" fill-rule="evenodd" fill-opacity="1" /><path clip-path="url(#clip780)" d="M2210.84 234.089 L2218.48 234.089 L2218.48 207.724 L2210.17 209.391 L2210.17 205.131 L2218.43 203.465 L2223.11 203.465 L2223.11 234.089 L2230.75 234.089 L2230.75 238.025 L2210.84 238.025 L2210.84 234.089 Z" fill="#000000" fill-rule="evenodd" fill-opacity="1" /><polyline clip-path="url(#clip780)" style="stroke:#e26f46; stroke-linecap:butt; stroke-linejoin:round; stroke-width:4; stroke-opacity:1; fill:none" points="
  2007.5,272.585 2153.92,272.585 
  "/>
<path clip-path="url(#clip780)" d="M2192.16 292.272 Q2190.35 296.902 2188.64 298.314 Q2186.93 299.726 2184.06 299.726 L2180.65 299.726 L2180.65 296.161 L2183.15 296.161 Q2184.91 296.161 2185.89 295.328 Q2186.86 294.494 2188.04 291.392 L2188.8 289.448 L2178.32 263.939 L2182.83 263.939 L2190.93 284.217 L2199.03 263.939 L2203.55 263.939 L2192.16 292.272 Z" fill="#000000" fill-rule="evenodd" fill-opacity="1" /><path clip-path="url(#clip780)" d="M2214.06 285.929 L2230.38 285.929 L2230.38 289.865 L2208.43 289.865 L2208.43 285.929 Q2211.09 283.175 2215.68 278.545 Q2220.28 273.893 2221.46 272.55 Q2223.71 270.027 2224.59 268.291 Q2225.49 266.531 2225.49 264.842 Q2225.49 262.087 2223.55 260.351 Q2221.63 258.615 2218.52 258.615 Q2216.33 258.615 2213.87 259.379 Q2211.44 260.143 2208.66 261.694 L2208.66 256.971 Q2211.49 255.837 2213.94 255.258 Q2216.4 254.68 2218.43 254.68 Q2223.8 254.68 2227 257.365 Q2230.19 260.05 2230.19 264.541 Q2230.19 266.67 2229.38 268.592 Q2228.59 270.49 2226.49 273.082 Q2225.91 273.754 2222.81 276.971 Q2219.71 280.166 2214.06 285.929 Z" fill="#000000" fill-rule="evenodd" fill-opacity="1" /></svg>
