<?xml version="1.0" encoding="utf-8"?>
<svg xmlns="http://www.w3.org/2000/svg" xmlns:xlink="http://www.w3.org/1999/xlink" width="600" height="400" viewBox="0 0 2400 1600">
<defs>
  <clipPath id="clip380">
    <rect x="0" y="0" width="2400" height="1600"/>
  </clipPath>
</defs>
<path clip-path="url(#clip380)" d="
M0 1600 L2400 1600 L2400 0 L0 0  Z
  " fill="#ffffff" fill-rule="evenodd" fill-opacity="1"/>
<defs>
  <clipPath id="clip381">
    <rect x="480" y="0" width="1681" height="1600"/>
  </clipPath>
</defs>
<path clip-path="url(#clip380)" d="
M193.936 1486.45 L2352.76 1486.45 L2352.76 123.472 L193.936 123.472  Z
  " fill="#ffffff" fill-rule="evenodd" fill-opacity="1"/>
<defs>
  <clipPath id="clip382">
    <rect x="193" y="123" width="2160" height="1364"/>
  </clipPath>
</defs>
<polyline clip-path="url(#clip382)" style="stroke:#000000; stroke-linecap:butt; stroke-linejoin:round; stroke-width:2; stroke-opacity:0.1; fill:none" points="
  255.035,1486.45 255.035,123.472 
  "/>
<polyline clip-path="url(#clip382)" style="stroke:#000000; stroke-linecap:butt; stroke-linejoin:round; stroke-width:2; stroke-opacity:0.1; fill:none" points="
  764.19,1486.45 764.19,123.472 
  "/>
<polyline clip-path="url(#clip382)" style="stroke:#000000; stroke-linecap:butt; stroke-linejoin:round; stroke-width:2; stroke-opacity:0.1; fill:none" points="
  1273.35,1486.45 1273.35,123.472 
  "/>
<polyline clip-path="url(#clip382)" style="stroke:#000000; stroke-linecap:butt; stroke-linejoin:round; stroke-width:2; stroke-opacity:0.1; fill:none" points="
  1782.5,1486.45 1782.5,123.472 
  "/>
<polyline clip-path="url(#clip382)" style="stroke:#000000; stroke-linecap:butt; stroke-linejoin:round; stroke-width:2; stroke-opacity:0.1; fill:none" points="
  2291.66,1486.45 2291.66,123.472 
  "/>
<polyline clip-path="url(#clip380)" style="stroke:#000000; stroke-linecap:butt; stroke-linejoin:round; stroke-width:4; stroke-opacity:1; fill:none" points="
  193.936,1486.45 2352.76,1486.45 
  "/>
<polyline clip-path="url(#clip380)" style="stroke:#000000; stroke-linecap:butt; stroke-linejoin:round; stroke-width:4; stroke-opacity:1; fill:none" points="
  255.035,1486.45 255.035,1467.55 
  "/>
<polyline clip-path="url(#clip380)" style="stroke:#000000; stroke-linecap:butt; stroke-linejoin:round; stroke-width:4; stroke-opacity:1; fill:none" points="
  764.19,1486.45 764.19,1467.55 
  "/>
<polyline clip-path="url(#clip380)" style="stroke:#000000; stroke-linecap:butt; stroke-linejoin:round; stroke-width:4; stroke-opacity:1; fill:none" points="
  1273.35,1486.45 1273.35,1467.55 
  "/>
<polyline clip-path="url(#clip380)" style="stroke:#000000; stroke-linecap:butt; stroke-linejoin:round; stroke-width:4; stroke-opacity:1; fill:none" points="
  1782.5,1486.45 1782.5,1467.55 
  "/>
<polyline clip-path="url(#clip380)" style="stroke:#000000; stroke-linecap:butt; stroke-linejoin:round; stroke-width:4; stroke-opacity:1; fill:none" points="
  2291.66,1486.45 2291.66,1467.55 
  "/>
<path clip-path="url(#clip380)" d="M201.563 1532.02 L231.239 1532.02 L231.239 1535.95 L201.563 1535.95 L201.563 1532.02 Z" fill="#000000" fill-rule="evenodd" fill-opacity="1" /><path clip-path="url(#clip380)" d="M242.141 1544.91 L249.78 1544.91 L249.78 1518.55 L241.47 1520.21 L241.47 1515.95 L249.734 1514.29 L254.41 1514.29 L254.41 1544.91 L262.049 1544.91 L262.049 1548.85 L242.141 1548.85 L242.141 1544.91 Z" fill="#000000" fill-rule="evenodd" fill-opacity="1" /><path clip-path="url(#clip380)" d="M271.493 1542.97 L276.377 1542.97 L276.377 1548.85 L271.493 1548.85 L271.493 1542.97 Z" fill="#000000" fill-rule="evenodd" fill-opacity="1" /><path clip-path="url(#clip380)" d="M296.562 1517.37 Q292.951 1517.37 291.122 1520.93 Q289.317 1524.47 289.317 1531.6 Q289.317 1538.71 291.122 1542.27 Q292.951 1545.82 296.562 1545.82 Q300.196 1545.82 302.002 1542.27 Q303.831 1538.71 303.831 1531.6 Q303.831 1524.47 302.002 1520.93 Q300.196 1517.37 296.562 1517.37 M296.562 1513.66 Q302.372 1513.66 305.428 1518.27 Q308.507 1522.85 308.507 1531.6 Q308.507 1540.33 305.428 1544.94 Q302.372 1549.52 296.562 1549.52 Q290.752 1549.52 287.673 1544.94 Q284.618 1540.33 284.618 1531.6 Q284.618 1522.85 287.673 1518.27 Q290.752 1513.66 296.562 1513.66 Z" fill="#000000" fill-rule="evenodd" fill-opacity="1" /><path clip-path="url(#clip380)" d="M711.216 1532.02 L740.892 1532.02 L740.892 1535.95 L711.216 1535.95 L711.216 1532.02 Z" fill="#000000" fill-rule="evenodd" fill-opacity="1" /><path clip-path="url(#clip380)" d="M760.984 1517.37 Q757.373 1517.37 755.545 1520.93 Q753.739 1524.47 753.739 1531.6 Q753.739 1538.71 755.545 1542.27 Q757.373 1545.82 760.984 1545.82 Q764.619 1545.82 766.424 1542.27 Q768.253 1538.71 768.253 1531.6 Q768.253 1524.47 766.424 1520.93 Q764.619 1517.37 760.984 1517.37 M760.984 1513.66 Q766.794 1513.66 769.85 1518.27 Q772.929 1522.85 772.929 1531.6 Q772.929 1540.33 769.85 1544.94 Q766.794 1549.52 760.984 1549.52 Q755.174 1549.52 752.095 1544.94 Q749.04 1540.33 749.04 1531.6 Q749.04 1522.85 752.095 1518.27 Q755.174 1513.66 760.984 1513.66 Z" fill="#000000" fill-rule="evenodd" fill-opacity="1" /><path clip-path="url(#clip380)" d="M781.146 1542.97 L786.03 1542.97 L786.03 1548.85 L781.146 1548.85 L781.146 1542.97 Z" fill="#000000" fill-rule="evenodd" fill-opacity="1" /><path clip-path="url(#clip380)" d="M796.262 1514.29 L814.618 1514.29 L814.618 1518.22 L800.544 1518.22 L800.544 1526.7 Q801.563 1526.35 802.581 1526.19 Q803.6 1526 804.618 1526 Q810.405 1526 813.785 1529.17 Q817.165 1532.34 817.165 1537.76 Q817.165 1543.34 813.692 1546.44 Q810.22 1549.52 803.901 1549.52 Q801.725 1549.52 799.456 1549.15 Q797.211 1548.78 794.804 1548.04 L794.804 1543.34 Q796.887 1544.47 799.109 1545.03 Q801.331 1545.58 803.808 1545.58 Q807.813 1545.58 810.151 1543.48 Q812.489 1541.37 812.489 1537.76 Q812.489 1534.15 810.151 1532.04 Q807.813 1529.94 803.808 1529.94 Q801.933 1529.94 800.058 1530.35 Q798.206 1530.77 796.262 1531.65 L796.262 1514.29 Z" fill="#000000" fill-rule="evenodd" fill-opacity="1" /><path clip-path="url(#clip380)" d="M1250.73 1517.37 Q1247.12 1517.37 1245.29 1520.93 Q1243.49 1524.47 1243.49 1531.6 Q1243.49 1538.71 1245.29 1542.27 Q1247.12 1545.82 1250.73 1545.82 Q1254.36 1545.82 1256.17 1542.27 Q1258 1538.71 1258 1531.6 Q1258 1524.47 1256.17 1520.93 Q1254.36 1517.37 1250.73 1517.37 M1250.73 1513.66 Q1256.54 1513.66 1259.6 1518.27 Q1262.67 1522.85 1262.67 1531.6 Q1262.67 1540.33 1259.6 1544.94 Q1256.54 1549.52 1250.73 1549.52 Q1244.92 1549.52 1241.84 1544.94 Q1238.79 1540.33 1238.79 1531.6 Q1238.79 1522.85 1241.84 1518.27 Q1244.92 1513.66 1250.73 1513.66 Z" fill="#000000" fill-rule="evenodd" fill-opacity="1" /><path clip-path="url(#clip380)" d="M1270.89 1542.97 L1275.78 1542.97 L1275.78 1548.85 L1270.89 1548.85 L1270.89 1542.97 Z" fill="#000000" fill-rule="evenodd" fill-opacity="1" /><path clip-path="url(#clip380)" d="M1295.96 1517.37 Q1292.35 1517.37 1290.52 1520.93 Q1288.72 1524.47 1288.72 1531.6 Q1288.72 1538.71 1290.52 1542.27 Q1292.35 1545.82 1295.96 1545.82 Q1299.6 1545.82 1301.4 1542.27 Q1303.23 1538.71 1303.23 1531.6 Q1303.23 1524.47 1301.4 1520.93 Q1299.6 1517.37 1295.96 1517.37 M1295.96 1513.66 Q1301.77 1513.66 1304.83 1518.27 Q1307.91 1522.85 1307.91 1531.6 Q1307.91 1540.33 1304.83 1544.94 Q1301.77 1549.52 1295.96 1549.52 Q1290.15 1549.52 1287.07 1544.94 Q1284.02 1540.33 1284.02 1531.6 Q1284.02 1522.85 1287.07 1518.27 Q1290.15 1513.66 1295.96 1513.66 Z" fill="#000000" fill-rule="evenodd" fill-opacity="1" /><path clip-path="url(#clip380)" d="M1760.38 1517.37 Q1756.77 1517.37 1754.94 1520.93 Q1753.14 1524.47 1753.14 1531.6 Q1753.14 1538.71 1754.94 1542.27 Q1756.77 1545.82 1760.38 1545.82 Q1764.02 1545.82 1765.82 1542.27 Q1767.65 1538.71 1767.65 1531.6 Q1767.65 1524.47 1765.82 1520.93 Q1764.02 1517.37 1760.38 1517.37 M1760.38 1513.66 Q1766.19 1513.66 1769.25 1518.27 Q1772.33 1522.85 1772.33 1531.6 Q1772.33 1540.33 1769.25 1544.94 Q1766.19 1549.52 1760.38 1549.52 Q1754.57 1549.52 1751.49 1544.94 Q1748.44 1540.33 1748.44 1531.6 Q1748.44 1522.85 1751.49 1518.27 Q1754.57 1513.66 1760.38 1513.66 Z" fill="#000000" fill-rule="evenodd" fill-opacity="1" /><path clip-path="url(#clip380)" d="M1780.55 1542.97 L1785.43 1542.97 L1785.43 1548.85 L1780.55 1548.85 L1780.55 1542.97 Z" fill="#000000" fill-rule="evenodd" fill-opacity="1" /><path clip-path="url(#clip380)" d="M1795.66 1514.29 L1814.02 1514.29 L1814.02 1518.22 L1799.94 1518.22 L1799.94 1526.7 Q1800.96 1526.35 1801.98 1526.19 Q1803 1526 1804.02 1526 Q1809.8 1526 1813.18 1529.17 Q1816.56 1532.34 1816.56 1537.76 Q1816.56 1543.34 1813.09 1546.44 Q1809.62 1549.52 1803.3 1549.52 Q1801.12 1549.52 1798.86 1549.15 Q1796.61 1548.78 1794.2 1548.04 L1794.2 1543.34 Q1796.29 1544.47 1798.51 1545.03 Q1800.73 1545.58 1803.21 1545.58 Q1807.21 1545.58 1809.55 1543.48 Q1811.89 1541.37 1811.89 1537.76 Q1811.89 1534.15 1809.55 1532.04 Q1807.21 1529.94 1803.21 1529.94 Q1801.33 1529.94 1799.46 1530.35 Q1797.61 1530.77 1795.66 1531.65 L1795.66 1514.29 Z" fill="#000000" fill-rule="evenodd" fill-opacity="1" /><path clip-path="url(#clip380)" d="M2258.81 1544.91 L2266.45 1544.91 L2266.45 1518.55 L2258.14 1520.21 L2258.14 1515.95 L2266.4 1514.29 L2271.08 1514.29 L2271.08 1544.91 L2278.72 1544.91 L2278.72 1548.85 L2258.81 1548.85 L2258.81 1544.91 Z" fill="#000000" fill-rule="evenodd" fill-opacity="1" /><path clip-path="url(#clip380)" d="M2288.16 1542.97 L2293.05 1542.97 L2293.05 1548.85 L2288.16 1548.85 L2288.16 1542.97 Z" fill="#000000" fill-rule="evenodd" fill-opacity="1" /><path clip-path="url(#clip380)" d="M2313.23 1517.37 Q2309.62 1517.37 2307.79 1520.93 Q2305.99 1524.47 2305.99 1531.6 Q2305.99 1538.71 2307.79 1542.27 Q2309.62 1545.82 2313.23 1545.82 Q2316.87 1545.82 2318.67 1542.27 Q2320.5 1538.71 2320.5 1531.6 Q2320.5 1524.47 2318.67 1520.93 Q2316.87 1517.37 2313.23 1517.37 M2313.23 1513.66 Q2319.04 1513.66 2322.1 1518.27 Q2325.18 1522.85 2325.18 1531.6 Q2325.18 1540.33 2322.1 1544.94 Q2319.04 1549.52 2313.23 1549.52 Q2307.42 1549.52 2304.34 1544.94 Q2301.29 1540.33 2301.29 1531.6 Q2301.29 1522.85 2304.34 1518.27 Q2307.42 1513.66 2313.23 1513.66 Z" fill="#000000" fill-rule="evenodd" fill-opacity="1" /><polyline clip-path="url(#clip382)" style="stroke:#000000; stroke-linecap:butt; stroke-linejoin:round; stroke-width:2; stroke-opacity:0.1; fill:none" points="
  193.936,1401.22 2352.76,1401.22 
  "/>
<polyline clip-path="url(#clip382)" style="stroke:#000000; stroke-linecap:butt; stroke-linejoin:round; stroke-width:2; stroke-opacity:0.1; fill:none" points="
  193.936,1103.09 2352.76,1103.09 
  "/>
<polyline clip-path="url(#clip382)" style="stroke:#000000; stroke-linecap:butt; stroke-linejoin:round; stroke-width:2; stroke-opacity:0.1; fill:none" points="
  193.936,804.96 2352.76,804.96 
  "/>
<polyline clip-path="url(#clip382)" style="stroke:#000000; stroke-linecap:butt; stroke-linejoin:round; stroke-width:2; stroke-opacity:0.1; fill:none" points="
  193.936,506.831 2352.76,506.831 
  "/>
<polyline clip-path="url(#clip382)" style="stroke:#000000; stroke-linecap:butt; stroke-linejoin:round; stroke-width:2; stroke-opacity:0.1; fill:none" points="
  193.936,208.702 2352.76,208.702 
  "/>
<polyline clip-path="url(#clip380)" style="stroke:#000000; stroke-linecap:butt; stroke-linejoin:round; stroke-width:4; stroke-opacity:1; fill:none" points="
  193.936,1486.45 193.936,123.472 
  "/>
<polyline clip-path="url(#clip380)" style="stroke:#000000; stroke-linecap:butt; stroke-linejoin:round; stroke-width:4; stroke-opacity:1; fill:none" points="
  193.936,1401.22 212.834,1401.22 
  "/>
<polyline clip-path="url(#clip380)" style="stroke:#000000; stroke-linecap:butt; stroke-linejoin:round; stroke-width:4; stroke-opacity:1; fill:none" points="
  193.936,1103.09 212.834,1103.09 
  "/>
<polyline clip-path="url(#clip380)" style="stroke:#000000; stroke-linecap:butt; stroke-linejoin:round; stroke-width:4; stroke-opacity:1; fill:none" points="
  193.936,804.96 212.834,804.96 
  "/>
<polyline clip-path="url(#clip380)" style="stroke:#000000; stroke-linecap:butt; stroke-linejoin:round; stroke-width:4; stroke-opacity:1; fill:none" points="
  193.936,506.831 212.834,506.831 
  "/>
<polyline clip-path="url(#clip380)" style="stroke:#000000; stroke-linecap:butt; stroke-linejoin:round; stroke-width:4; stroke-opacity:1; fill:none" points="
  193.936,208.702 212.834,208.702 
  "/>
<path clip-path="url(#clip380)" d="M50.9921 1401.67 L80.6679 1401.67 L80.6679 1405.6 L50.9921 1405.6 L50.9921 1401.67 Z" fill="#000000" fill-rule="evenodd" fill-opacity="1" /><path clip-path="url(#clip380)" d="M91.5706 1414.56 L99.2095 1414.56 L99.2095 1388.2 L90.8993 1389.86 L90.8993 1385.6 L99.1632 1383.94 L103.839 1383.94 L103.839 1414.56 L111.478 1414.56 L111.478 1418.5 L91.5706 1418.5 L91.5706 1414.56 Z" fill="#000000" fill-rule="evenodd" fill-opacity="1" /><path clip-path="url(#clip380)" d="M120.922 1412.62 L125.807 1412.62 L125.807 1418.5 L120.922 1418.5 L120.922 1412.62 Z" fill="#000000" fill-rule="evenodd" fill-opacity="1" /><path clip-path="url(#clip380)" d="M145.992 1387.02 Q142.381 1387.02 140.552 1390.58 Q138.746 1394.12 138.746 1401.25 Q138.746 1408.36 140.552 1411.92 Q142.381 1415.47 145.992 1415.47 Q149.626 1415.47 151.431 1411.92 Q153.26 1408.36 153.26 1401.25 Q153.26 1394.12 151.431 1390.58 Q149.626 1387.02 145.992 1387.02 M145.992 1383.31 Q151.802 1383.31 154.857 1387.92 Q157.936 1392.5 157.936 1401.25 Q157.936 1409.98 154.857 1414.59 Q151.802 1419.17 145.992 1419.17 Q140.181 1419.17 137.103 1414.59 Q134.047 1409.98 134.047 1401.25 Q134.047 1392.5 137.103 1387.92 Q140.181 1383.31 145.992 1383.31 Z" fill="#000000" fill-rule="evenodd" fill-opacity="1" /><path clip-path="url(#clip380)" d="M51.9875 1103.54 L81.6633 1103.54 L81.6633 1107.48 L51.9875 1107.48 L51.9875 1103.54 Z" fill="#000000" fill-rule="evenodd" fill-opacity="1" /><path clip-path="url(#clip380)" d="M101.756 1088.89 Q98.1447 1088.89 96.316 1092.45 Q94.5104 1095.99 94.5104 1103.12 Q94.5104 1110.23 96.316 1113.79 Q98.1447 1117.34 101.756 1117.34 Q105.39 1117.34 107.196 1113.79 Q109.024 1110.23 109.024 1103.12 Q109.024 1095.99 107.196 1092.45 Q105.39 1088.89 101.756 1088.89 M101.756 1085.18 Q107.566 1085.18 110.621 1089.79 Q113.7 1094.37 113.7 1103.12 Q113.7 1111.85 110.621 1116.46 Q107.566 1121.04 101.756 1121.04 Q95.9456 1121.04 92.8669 1116.46 Q89.8114 1111.85 89.8114 1103.12 Q89.8114 1094.37 92.8669 1089.79 Q95.9456 1085.18 101.756 1085.18 Z" fill="#000000" fill-rule="evenodd" fill-opacity="1" /><path clip-path="url(#clip380)" d="M121.918 1114.49 L126.802 1114.49 L126.802 1120.37 L121.918 1120.37 L121.918 1114.49 Z" fill="#000000" fill-rule="evenodd" fill-opacity="1" /><path clip-path="url(#clip380)" d="M137.033 1085.81 L155.39 1085.81 L155.39 1089.74 L141.316 1089.74 L141.316 1098.22 Q142.334 1097.87 143.353 1097.71 Q144.371 1097.52 145.39 1097.52 Q151.177 1097.52 154.556 1100.69 Q157.936 1103.86 157.936 1109.28 Q157.936 1114.86 154.464 1117.96 Q150.992 1121.04 144.672 1121.04 Q142.496 1121.04 140.228 1120.67 Q137.982 1120.3 135.575 1119.56 L135.575 1114.86 Q137.658 1115.99 139.881 1116.55 Q142.103 1117.1 144.58 1117.1 Q148.584 1117.1 150.922 1115 Q153.26 1112.89 153.26 1109.28 Q153.26 1105.67 150.922 1103.56 Q148.584 1101.46 144.58 1101.46 Q142.705 1101.46 140.83 1101.87 Q138.978 1102.29 137.033 1103.17 L137.033 1085.81 Z" fill="#000000" fill-rule="evenodd" fill-opacity="1" /><path clip-path="url(#clip380)" d="M100.76 790.759 Q97.1493 790.759 95.3206 794.323 Q93.515 797.865 93.515 804.995 Q93.515 812.101 95.3206 815.666 Q97.1493 819.208 100.76 819.208 Q104.395 819.208 106.2 815.666 Q108.029 812.101 108.029 804.995 Q108.029 797.865 106.2 794.323 Q104.395 790.759 100.76 790.759 M100.76 787.055 Q106.571 787.055 109.626 791.661 Q112.705 796.245 112.705 804.995 Q112.705 813.722 109.626 818.328 Q106.571 822.911 100.76 822.911 Q94.9502 822.911 91.8715 818.328 Q88.816 813.722 88.816 804.995 Q88.816 796.245 91.8715 791.661 Q94.9502 787.055 100.76 787.055 Z" fill="#000000" fill-rule="evenodd" fill-opacity="1" /><path clip-path="url(#clip380)" d="M120.922 816.36 L125.807 816.36 L125.807 822.24 L120.922 822.24 L120.922 816.36 Z" fill="#000000" fill-rule="evenodd" fill-opacity="1" /><path clip-path="url(#clip380)" d="M145.992 790.759 Q142.381 790.759 140.552 794.323 Q138.746 797.865 138.746 804.995 Q138.746 812.101 140.552 815.666 Q142.381 819.208 145.992 819.208 Q149.626 819.208 151.431 815.666 Q153.26 812.101 153.26 804.995 Q153.26 797.865 151.431 794.323 Q149.626 790.759 145.992 790.759 M145.992 787.055 Q151.802 787.055 154.857 791.661 Q157.936 796.245 157.936 804.995 Q157.936 813.722 154.857 818.328 Q151.802 822.911 145.992 822.911 Q140.181 822.911 137.103 818.328 Q134.047 813.722 134.047 804.995 Q134.047 796.245 137.103 791.661 Q140.181 787.055 145.992 787.055 Z" fill="#000000" fill-rule="evenodd" fill-opacity="1" /><path clip-path="url(#clip380)" d="M101.756 492.63 Q98.1447 492.63 96.316 496.195 Q94.5104 499.736 94.5104 506.866 Q94.5104 513.972 96.316 517.537 Q98.1447 521.079 101.756 521.079 Q105.39 521.079 107.196 517.537 Q109.024 513.972 109.024 506.866 Q109.024 499.736 107.196 496.195 Q105.39 492.63 101.756 492.63 M101.756 488.926 Q107.566 488.926 110.621 493.533 Q113.7 498.116 113.7 506.866 Q113.7 515.593 110.621 520.199 Q107.566 524.782 101.756 524.782 Q95.9456 524.782 92.8669 520.199 Q89.8114 515.593 89.8114 506.866 Q89.8114 498.116 92.8669 493.533 Q95.9456 488.926 101.756 488.926 Z" fill="#000000" fill-rule="evenodd" fill-opacity="1" /><path clip-path="url(#clip380)" d="M121.918 518.232 L126.802 518.232 L126.802 524.111 L121.918 524.111 L121.918 518.232 Z" fill="#000000" fill-rule="evenodd" fill-opacity="1" /><path clip-path="url(#clip380)" d="M137.033 489.551 L155.39 489.551 L155.39 493.486 L141.316 493.486 L141.316 501.959 Q142.334 501.611 143.353 501.449 Q144.371 501.264 145.39 501.264 Q151.177 501.264 154.556 504.435 Q157.936 507.607 157.936 513.023 Q157.936 518.602 154.464 521.704 Q150.992 524.782 144.672 524.782 Q142.496 524.782 140.228 524.412 Q137.982 524.042 135.575 523.301 L135.575 518.602 Q137.658 519.736 139.881 520.292 Q142.103 520.847 144.58 520.847 Q148.584 520.847 150.922 518.741 Q153.26 516.634 153.26 513.023 Q153.26 509.412 150.922 507.306 Q148.584 505.199 144.58 505.199 Q142.705 505.199 140.83 505.616 Q138.978 506.033 137.033 506.912 L137.033 489.551 Z" fill="#000000" fill-rule="evenodd" fill-opacity="1" /><path clip-path="url(#clip380)" d="M91.5706 222.047 L99.2095 222.047 L99.2095 195.682 L90.8993 197.348 L90.8993 193.089 L99.1632 191.422 L103.839 191.422 L103.839 222.047 L111.478 222.047 L111.478 225.982 L91.5706 225.982 L91.5706 222.047 Z" fill="#000000" fill-rule="evenodd" fill-opacity="1" /><path clip-path="url(#clip380)" d="M120.922 220.103 L125.807 220.103 L125.807 225.982 L120.922 225.982 L120.922 220.103 Z" fill="#000000" fill-rule="evenodd" fill-opacity="1" /><path clip-path="url(#clip380)" d="M145.992 194.501 Q142.381 194.501 140.552 198.066 Q138.746 201.607 138.746 208.737 Q138.746 215.844 140.552 219.408 Q142.381 222.95 145.992 222.95 Q149.626 222.95 151.431 219.408 Q153.26 215.844 153.26 208.737 Q153.26 201.607 151.431 198.066 Q149.626 194.501 145.992 194.501 M145.992 190.797 Q151.802 190.797 154.857 195.404 Q157.936 199.987 157.936 208.737 Q157.936 217.464 154.857 222.07 Q151.802 226.654 145.992 226.654 Q140.181 226.654 137.103 222.07 Q134.047 217.464 134.047 208.737 Q134.047 199.987 137.103 195.404 Q140.181 190.797 145.992 190.797 Z" fill="#000000" fill-rule="evenodd" fill-opacity="1" /><path clip-path="url(#clip380)" d="M548.639 63.9476 L548.639 47.7034 L535.271 47.7034 L535.271 40.9789 L556.741 40.9789 L556.741 66.9452 Q552.001 70.3075 546.29 72.0494 Q540.578 73.7508 534.096 73.7508 Q519.918 73.7508 511.897 65.4869 Q503.917 57.1826 503.917 42.3968 Q503.917 27.5705 511.897 19.3066 Q519.918 11.0023 534.096 11.0023 Q540.011 11.0023 545.317 12.4606 Q550.665 13.9189 555.161 16.7545 L555.161 25.464 Q550.624 21.6156 545.52 19.6712 Q540.416 17.7268 534.785 17.7268 Q523.686 17.7268 518.095 23.9246 Q512.546 30.1225 512.546 42.3968 Q512.546 54.6305 518.095 60.8284 Q523.686 67.0263 534.785 67.0263 Q539.12 67.0263 542.522 66.2971 Q545.925 65.5274 548.639 63.9476 Z" fill="#000000" fill-rule="evenodd" fill-opacity="1" /><path clip-path="url(#clip380)" d="M591.984 49.7694 Q582.95 49.7694 579.467 51.8354 Q575.983 53.9013 575.983 58.8839 Q575.983 62.8538 578.575 65.2034 Q581.208 67.5124 585.705 67.5124 Q591.903 67.5124 595.63 63.1374 Q599.397 58.7219 599.397 51.4303 L599.397 49.7694 L591.984 49.7694 M606.851 46.6907 L606.851 72.576 L599.397 72.576 L599.397 65.6895 Q596.845 69.8214 593.037 71.8063 Q589.229 73.7508 583.72 73.7508 Q576.752 73.7508 572.621 69.8619 Q568.529 65.9325 568.529 59.3701 Q568.529 51.7138 573.633 47.825 Q578.778 43.9361 588.946 43.9361 L599.397 43.9361 L599.397 43.2069 Q599.397 38.0623 595.994 35.2672 Q592.632 32.4315 586.515 32.4315 Q582.626 32.4315 578.94 33.3632 Q575.254 34.295 571.851 36.1584 L571.851 29.2718 Q575.942 27.692 579.791 26.9223 Q583.639 26.1121 587.285 26.1121 Q597.129 26.1121 601.99 31.2163 Q606.851 36.3204 606.851 46.6907 Z" fill="#000000" fill-rule="evenodd" fill-opacity="1" /><path clip-path="url(#clip380)" d="M622.204 9.54393 L629.657 9.54393 L629.657 72.576 L622.204 72.576 L622.204 9.54393 Z" fill="#000000" fill-rule="evenodd" fill-opacity="1" /><path clip-path="url(#clip380)" d="M684.061 48.0275 L684.061 51.6733 L649.79 51.6733 Q650.276 59.3701 654.408 63.421 Q658.581 67.4314 665.994 67.4314 Q670.288 67.4314 674.298 66.3781 Q678.349 65.3249 682.319 63.2184 L682.319 70.267 Q678.309 71.9684 674.096 72.8596 Q669.883 73.7508 665.548 73.7508 Q654.692 73.7508 648.332 67.4314 Q642.013 61.1119 642.013 50.3365 Q642.013 39.1965 648.008 32.6746 Q654.044 26.1121 664.252 26.1121 Q673.407 26.1121 678.714 32.0264 Q684.061 37.9003 684.061 48.0275 M676.607 45.84 Q676.526 39.7232 673.164 36.0774 Q669.842 32.4315 664.333 32.4315 Q658.095 32.4315 654.327 35.9558 Q650.6 39.4801 650.033 45.8805 L676.607 45.84 Z" fill="#000000" fill-rule="evenodd" fill-opacity="1" /><path clip-path="url(#clip380)" d="M722.585 34.1734 Q721.329 33.4443 719.83 33.1202 Q718.372 32.7556 716.59 32.7556 Q710.27 32.7556 706.868 36.8875 Q703.505 40.9789 703.505 48.6757 L703.505 72.576 L696.011 72.576 L696.011 27.2059 L703.505 27.2059 L703.505 34.2544 Q705.855 30.1225 709.622 28.1376 Q713.389 26.1121 718.777 26.1121 Q719.547 26.1121 720.479 26.2337 Q721.41 26.3147 722.545 26.5172 L722.585 34.1734 Z" fill="#000000" fill-rule="evenodd" fill-opacity="1" /><path clip-path="url(#clip380)" d="M730.12 9.54393 L737.614 9.54393 L737.614 46.7717 L759.853 27.2059 L769.373 27.2059 L745.311 48.4326 L770.386 72.576 L760.664 72.576 L737.614 50.4176 L737.614 72.576 L730.12 72.576 L730.12 9.54393 Z" fill="#000000" fill-rule="evenodd" fill-opacity="1" /><path clip-path="url(#clip380)" d="M778.447 27.2059 L785.901 27.2059 L785.901 72.576 L778.447 72.576 L778.447 27.2059 M778.447 9.54393 L785.901 9.54393 L785.901 18.9825 L778.447 18.9825 L778.447 9.54393 Z" fill="#000000" fill-rule="evenodd" fill-opacity="1" /><path clip-path="url(#clip380)" d="M839.211 45.1919 L839.211 72.576 L831.757 72.576 L831.757 45.4349 Q831.757 38.994 829.245 35.7938 Q826.734 32.5936 821.711 32.5936 Q815.675 32.5936 812.191 36.4419 Q808.707 40.2903 808.707 46.9338 L808.707 72.576 L801.213 72.576 L801.213 27.2059 L808.707 27.2059 L808.707 34.2544 Q811.381 30.163 814.986 28.1376 Q818.632 26.1121 823.372 26.1121 Q831.19 26.1121 835.2 30.9732 Q839.211 35.7938 839.211 45.1919 Z" fill="#000000" fill-rule="evenodd" fill-opacity="1" /><path clip-path="url(#clip380)" d="M919.256 48.0275 L919.256 51.6733 L884.986 51.6733 Q885.472 59.3701 889.604 63.421 Q893.776 67.4314 901.189 67.4314 Q905.483 67.4314 909.494 66.3781 Q913.545 65.3249 917.515 63.2184 L917.515 70.267 Q913.504 71.9684 909.291 72.8596 Q905.078 73.7508 900.744 73.7508 Q889.887 73.7508 883.527 67.4314 Q877.208 61.1119 877.208 50.3365 Q877.208 39.1965 883.203 32.6746 Q889.239 26.1121 899.447 26.1121 Q908.603 26.1121 913.909 32.0264 Q919.256 37.9003 919.256 48.0275 M911.803 45.84 Q911.722 39.7232 908.359 36.0774 Q905.038 32.4315 899.529 32.4315 Q893.29 32.4315 889.523 35.9558 Q885.796 39.4801 885.229 45.8805 L911.803 45.84 Z" fill="#000000" fill-rule="evenodd" fill-opacity="1" /><path clip-path="url(#clip380)" d="M957.781 34.1734 Q956.525 33.4443 955.026 33.1202 Q953.568 32.7556 951.785 32.7556 Q945.466 32.7556 942.063 36.8875 Q938.701 40.9789 938.701 48.6757 L938.701 72.576 L931.207 72.576 L931.207 27.2059 L938.701 27.2059 L938.701 34.2544 Q941.05 30.1225 944.818 28.1376 Q948.585 26.1121 953.973 26.1121 Q954.742 26.1121 955.674 26.2337 Q956.606 26.3147 957.74 26.5172 L957.781 34.1734 Z" fill="#000000" fill-rule="evenodd" fill-opacity="1" /><path clip-path="url(#clip380)" d="M990.431 34.1734 Q989.175 33.4443 987.676 33.1202 Q986.218 32.7556 984.435 32.7556 Q978.116 32.7556 974.713 36.8875 Q971.351 40.9789 971.351 48.6757 L971.351 72.576 L963.857 72.576 L963.857 27.2059 L971.351 27.2059 L971.351 34.2544 Q973.701 30.1225 977.468 28.1376 Q981.235 26.1121 986.623 26.1121 Q987.393 26.1121 988.324 26.2337 Q989.256 26.3147 990.39 26.5172 L990.431 34.1734 Z" fill="#000000" fill-rule="evenodd" fill-opacity="1" /><path clip-path="url(#clip380)" d="M1014.01 32.4315 Q1008.01 32.4315 1004.53 37.1306 Q1001.04 41.7891 1001.04 49.9314 Q1001.04 58.0738 1004.49 62.7728 Q1007.97 67.4314 1014.01 67.4314 Q1019.96 67.4314 1023.45 62.7323 Q1026.93 58.0333 1026.93 49.9314 Q1026.93 41.8701 1023.45 37.1711 Q1019.96 32.4315 1014.01 32.4315 M1014.01 26.1121 Q1023.73 26.1121 1029.28 32.4315 Q1034.83 38.7509 1034.83 49.9314 Q1034.83 61.0714 1029.28 67.4314 Q1023.73 73.7508 1014.01 73.7508 Q1004.24 73.7508 998.695 67.4314 Q993.185 61.0714 993.185 49.9314 Q993.185 38.7509 998.695 32.4315 Q1004.24 26.1121 1014.01 26.1121 Z" fill="#000000" fill-rule="evenodd" fill-opacity="1" /><path clip-path="url(#clip380)" d="M1073.47 34.1734 Q1072.22 33.4443 1070.72 33.1202 Q1069.26 32.7556 1067.48 32.7556 Q1061.16 32.7556 1057.76 36.8875 Q1054.39 40.9789 1054.39 48.6757 L1054.39 72.576 L1046.9 72.576 L1046.9 27.2059 L1054.39 27.2059 L1054.39 34.2544 Q1056.74 30.1225 1060.51 28.1376 Q1064.28 26.1121 1069.67 26.1121 Q1070.44 26.1121 1071.37 26.2337 Q1072.3 26.3147 1073.43 26.5172 L1073.47 34.1734 Z" fill="#000000" fill-rule="evenodd" fill-opacity="1" /><path clip-path="url(#clip380)" d="M1081.74 62.2867 L1090.29 62.2867 L1090.29 72.576 L1081.74 72.576 L1081.74 62.2867 M1081.74 29.6769 L1090.29 29.6769 L1090.29 39.9662 L1081.74 39.9662 L1081.74 29.6769 Z" fill="#000000" fill-rule="evenodd" fill-opacity="1" /><path clip-path="url(#clip380)" d="M1152.71 17.4837 Q1146.39 17.4837 1143.19 23.7221 Q1140.03 29.92 1140.03 42.3968 Q1140.03 54.833 1143.19 61.0714 Q1146.39 67.2693 1152.71 67.2693 Q1159.07 67.2693 1162.23 61.0714 Q1165.43 54.833 1165.43 42.3968 Q1165.43 29.92 1162.23 23.7221 Q1159.07 17.4837 1152.71 17.4837 M1152.71 11.0023 Q1162.88 11.0023 1168.22 19.0636 Q1173.61 27.0843 1173.61 42.3968 Q1173.61 57.6687 1168.22 65.73 Q1162.88 73.7508 1152.71 73.7508 Q1142.54 73.7508 1137.15 65.73 Q1131.81 57.6687 1131.81 42.3968 Q1131.81 27.0843 1137.15 19.0636 Q1142.54 11.0023 1152.71 11.0023 Z" fill="#000000" fill-rule="evenodd" fill-opacity="1" /><path clip-path="url(#clip380)" d="M1187.99 62.2867 L1196.54 62.2867 L1196.54 72.576 L1187.99 72.576 L1187.99 62.2867 Z" fill="#000000" fill-rule="evenodd" fill-opacity="1" /><path clip-path="url(#clip380)" d="M1239.16 39.9662 Q1245.03 41.222 1248.31 45.1919 Q1251.63 49.1618 1251.63 54.9951 Q1251.63 63.9476 1245.48 68.8492 Q1239.32 73.7508 1227.98 73.7508 Q1224.17 73.7508 1220.12 72.9811 Q1216.11 72.2519 1211.81 70.7531 L1211.81 62.8538 Q1215.22 64.8388 1219.27 65.8515 Q1223.32 66.8642 1227.73 66.8642 Q1235.43 66.8642 1239.44 63.826 Q1243.49 60.7879 1243.49 54.9951 Q1243.49 49.6479 1239.72 46.6502 Q1236 43.612 1229.31 43.612 L1222.26 43.612 L1222.26 36.8875 L1229.64 36.8875 Q1235.67 36.8875 1238.87 34.4975 Q1242.07 32.067 1242.07 27.5299 Q1242.07 22.8714 1238.75 20.4004 Q1235.47 17.8888 1229.31 17.8888 Q1225.95 17.8888 1222.1 18.618 Q1218.25 19.3471 1213.64 20.8865 L1213.64 13.5948 Q1218.29 12.2985 1222.35 11.6504 Q1226.44 11.0023 1230.04 11.0023 Q1239.36 11.0023 1244.79 15.2557 Q1250.22 19.4686 1250.22 26.6793 Q1250.22 31.7024 1247.34 35.1862 Q1244.46 38.6294 1239.16 39.9662 Z" fill="#000000" fill-rule="evenodd" fill-opacity="1" /><path clip-path="url(#clip380)" d="M1268.57 65.6895 L1281.93 65.6895 L1281.93 19.5497 L1267.39 22.4663 L1267.39 15.0127 L1281.85 12.096 L1290.04 12.096 L1290.04 65.6895 L1303.4 65.6895 L1303.4 72.576 L1268.57 72.576 L1268.57 65.6895 Z" fill="#000000" fill-rule="evenodd" fill-opacity="1" /><path clip-path="url(#clip380)" d="M1337.43 17.4837 Q1331.11 17.4837 1327.91 23.7221 Q1324.75 29.92 1324.75 42.3968 Q1324.75 54.833 1327.91 61.0714 Q1331.11 67.2693 1337.43 67.2693 Q1343.79 67.2693 1346.95 61.0714 Q1350.15 54.833 1350.15 42.3968 Q1350.15 29.92 1346.95 23.7221 Q1343.79 17.4837 1337.43 17.4837 M1337.43 11.0023 Q1347.6 11.0023 1352.95 19.0636 Q1358.33 27.0843 1358.33 42.3968 Q1358.33 57.6687 1352.95 65.73 Q1347.6 73.7508 1337.43 73.7508 Q1327.26 73.7508 1321.88 65.73 Q1316.53 57.6687 1316.53 42.3968 Q1316.53 27.0843 1321.88 19.0636 Q1327.26 11.0023 1337.43 11.0023 Z" fill="#000000" fill-rule="evenodd" fill-opacity="1" /><path clip-path="url(#clip380)" d="M1374.13 65.6895 L1387.5 65.6895 L1387.5 19.5497 L1372.96 22.4663 L1372.96 15.0127 L1387.42 12.096 L1395.6 12.096 L1395.6 65.6895 L1408.97 65.6895 L1408.97 72.576 L1374.13 72.576 L1374.13 65.6895 Z" fill="#000000" fill-rule="evenodd" fill-opacity="1" /><path clip-path="url(#clip380)" d="M1443 17.4837 Q1436.68 17.4837 1433.48 23.7221 Q1430.32 29.92 1430.32 42.3968 Q1430.32 54.833 1433.48 61.0714 Q1436.68 67.2693 1443 67.2693 Q1449.36 67.2693 1452.52 61.0714 Q1455.72 54.833 1455.72 42.3968 Q1455.72 29.92 1452.52 23.7221 Q1449.36 17.4837 1443 17.4837 M1443 11.0023 Q1453.17 11.0023 1458.51 19.0636 Q1463.9 27.0843 1463.9 42.3968 Q1463.9 57.6687 1458.51 65.73 Q1453.17 73.7508 1443 73.7508 Q1432.83 73.7508 1427.44 65.73 Q1422.1 57.6687 1422.1 42.3968 Q1422.1 27.0843 1427.44 19.0636 Q1432.83 11.0023 1443 11.0023 Z" fill="#000000" fill-rule="evenodd" fill-opacity="1" /><path clip-path="url(#clip380)" d="M1476.22 12.096 L1515.1 12.096 L1515.1 15.5798 L1493.15 72.576 L1484.6 72.576 L1505.26 18.9825 L1476.22 18.9825 L1476.22 12.096 Z" fill="#000000" fill-rule="evenodd" fill-opacity="1" /><path clip-path="url(#clip380)" d="M1549.58 39.075 Q1544.07 39.075 1540.83 42.8424 Q1537.63 46.6097 1537.63 53.1722 Q1537.63 59.6941 1540.83 63.502 Q1544.07 67.2693 1549.58 67.2693 Q1555.09 67.2693 1558.29 63.502 Q1561.53 59.6941 1561.53 53.1722 Q1561.53 46.6097 1558.29 42.8424 Q1555.09 39.075 1549.58 39.075 M1565.82 13.4328 L1565.82 20.8865 Q1562.74 19.4281 1559.58 18.6585 Q1556.46 17.8888 1553.38 17.8888 Q1545.28 17.8888 1540.99 23.3575 Q1536.74 28.8262 1536.13 39.8852 Q1538.52 36.3609 1542.12 34.4975 Q1545.73 32.5936 1550.06 32.5936 Q1559.18 32.5936 1564.44 38.1433 Q1569.75 43.6525 1569.75 53.1722 Q1569.75 62.4892 1564.24 68.12 Q1558.73 73.7508 1549.58 73.7508 Q1539.09 73.7508 1533.54 65.73 Q1527.99 57.6687 1527.99 42.3968 Q1527.99 28.0566 1534.79 19.5497 Q1541.6 11.0023 1553.06 11.0023 Q1556.14 11.0023 1559.26 11.6099 Q1562.42 12.2175 1565.82 13.4328 Z" fill="#000000" fill-rule="evenodd" fill-opacity="1" /><path clip-path="url(#clip380)" d="M1585.27 65.6895 L1598.63 65.6895 L1598.63 19.5497 L1584.09 22.4663 L1584.09 15.0127 L1598.55 12.096 L1606.74 12.096 L1606.74 65.6895 L1620.1 65.6895 L1620.1 72.576 L1585.27 72.576 L1585.27 65.6895 Z" fill="#000000" fill-rule="evenodd" fill-opacity="1" /><path clip-path="url(#clip380)" d="M1655.14 39.075 Q1649.63 39.075 1646.39 42.8424 Q1643.19 46.6097 1643.19 53.1722 Q1643.19 59.6941 1646.39 63.502 Q1649.63 67.2693 1655.14 67.2693 Q1660.65 67.2693 1663.85 63.502 Q1667.09 59.6941 1667.09 53.1722 Q1667.09 46.6097 1663.85 42.8424 Q1660.65 39.075 1655.14 39.075 M1671.39 13.4328 L1671.39 20.8865 Q1668.31 19.4281 1665.15 18.6585 Q1662.03 17.8888 1658.95 17.8888 Q1650.85 17.8888 1646.56 23.3575 Q1642.3 28.8262 1641.69 39.8852 Q1644.08 36.3609 1647.69 34.4975 Q1651.3 32.5936 1655.63 32.5936 Q1664.74 32.5936 1670.01 38.1433 Q1675.32 43.6525 1675.32 53.1722 Q1675.32 62.4892 1669.81 68.12 Q1664.3 73.7508 1655.14 73.7508 Q1644.65 73.7508 1639.1 65.73 Q1633.55 57.6687 1633.55 42.3968 Q1633.55 28.0566 1640.36 19.5497 Q1647.16 11.0023 1658.63 11.0023 Q1661.71 11.0023 1664.83 11.6099 Q1667.99 12.2175 1671.39 13.4328 Z" fill="#000000" fill-rule="evenodd" fill-opacity="1" /><path clip-path="url(#clip380)" d="M1696.46 65.6895 L1725.02 65.6895 L1725.02 72.576 L1686.62 72.576 L1686.62 65.6895 Q1691.28 60.8689 1699.3 52.7671 Q1707.36 44.6248 1709.43 42.2752 Q1713.36 37.8598 1714.89 34.8216 Q1716.47 31.7429 1716.47 28.7857 Q1716.47 23.9651 1713.07 20.927 Q1709.71 17.8888 1704.28 17.8888 Q1700.43 17.8888 1696.14 19.2256 Q1691.89 20.5624 1687.02 23.2765 L1687.02 15.0127 Q1691.97 13.0277 1696.26 12.015 Q1700.55 11.0023 1704.12 11.0023 Q1713.52 11.0023 1719.11 15.7013 Q1724.7 20.4004 1724.7 28.2591 Q1724.7 31.9859 1723.28 35.3482 Q1721.9 38.6699 1718.22 43.2069 Q1717.2 44.3817 1711.78 50.0125 Q1706.35 55.6027 1696.46 65.6895 Z" fill="#000000" fill-rule="evenodd" fill-opacity="1" /><path clip-path="url(#clip380)" d="M1742.28 12.096 L1774.4 12.096 L1774.4 18.9825 L1749.77 18.9825 L1749.77 33.8088 Q1751.56 33.2012 1753.34 32.9176 Q1755.12 32.5936 1756.9 32.5936 Q1767.03 32.5936 1772.94 38.1433 Q1778.86 43.6931 1778.86 53.1722 Q1778.86 62.9348 1772.78 68.3631 Q1766.71 73.7508 1755.65 73.7508 Q1751.84 73.7508 1747.87 73.1026 Q1743.94 72.4545 1739.73 71.1582 L1739.73 62.9348 Q1743.37 64.9198 1747.26 65.892 Q1751.15 66.8642 1755.48 66.8642 Q1762.49 66.8642 1766.58 63.1779 Q1770.68 59.4916 1770.68 53.1722 Q1770.68 46.8528 1766.58 43.1664 Q1762.49 39.4801 1755.48 39.4801 Q1752.2 39.4801 1748.92 40.2093 Q1745.68 40.9384 1742.28 42.4778 L1742.28 12.096 Z" fill="#000000" fill-rule="evenodd" fill-opacity="1" /><path clip-path="url(#clip380)" d="M1795.22 71.3202 L1795.22 63.8666 Q1798.3 65.3249 1801.46 66.0946 Q1804.62 66.8642 1807.66 66.8642 Q1815.76 66.8642 1820.02 61.436 Q1824.31 55.9673 1824.92 44.8678 Q1822.57 48.3516 1818.96 50.215 Q1815.36 52.0784 1810.98 52.0784 Q1801.91 52.0784 1796.6 46.6097 Q1791.34 41.1005 1791.34 31.5808 Q1791.34 22.2638 1796.84 16.633 Q1802.35 11.0023 1811.51 11.0023 Q1822 11.0023 1827.51 19.0636 Q1833.06 27.0843 1833.06 42.3968 Q1833.06 56.6965 1826.25 65.2439 Q1819.49 73.7508 1808.02 73.7508 Q1804.95 73.7508 1801.79 73.1431 Q1798.63 72.5355 1795.22 71.3202 M1811.51 45.678 Q1817.02 45.678 1820.22 41.9107 Q1823.46 38.1433 1823.46 31.5808 Q1823.46 25.0589 1820.22 21.2916 Q1817.02 17.4837 1811.51 17.4837 Q1806 17.4837 1802.76 21.2916 Q1799.56 25.0589 1799.56 31.5808 Q1799.56 38.1433 1802.76 41.9107 Q1806 45.678 1811.51 45.678 Z" fill="#000000" fill-rule="evenodd" fill-opacity="1" /><path clip-path="url(#clip380)" d="M1847.85 12.096 L1879.97 12.096 L1879.97 18.9825 L1855.34 18.9825 L1855.34 33.8088 Q1857.12 33.2012 1858.9 32.9176 Q1860.69 32.5936 1862.47 32.5936 Q1872.6 32.5936 1878.51 38.1433 Q1884.42 43.6931 1884.42 53.1722 Q1884.42 62.9348 1878.35 68.3631 Q1872.27 73.7508 1861.21 73.7508 Q1857.41 73.7508 1853.44 73.1026 Q1849.51 72.4545 1845.29 71.1582 L1845.29 62.9348 Q1848.94 64.9198 1852.83 65.892 Q1856.72 66.8642 1861.05 66.8642 Q1868.06 66.8642 1872.15 63.1779 Q1876.24 59.4916 1876.24 53.1722 Q1876.24 46.8528 1872.15 43.1664 Q1868.06 39.4801 1861.05 39.4801 Q1857.77 39.4801 1854.49 40.2093 Q1851.25 40.9384 1847.85 42.4778 L1847.85 12.096 Z" fill="#000000" fill-rule="evenodd" fill-opacity="1" /><path clip-path="url(#clip380)" d="M1901.97 65.6895 L1915.33 65.6895 L1915.33 19.5497 L1900.79 22.4663 L1900.79 15.0127 L1915.25 12.096 L1923.44 12.096 L1923.44 65.6895 L1936.8 65.6895 L1936.8 72.576 L1901.97 72.576 L1901.97 65.6895 Z" fill="#000000" fill-rule="evenodd" fill-opacity="1" /><path clip-path="url(#clip380)" d="M1953.41 12.096 L1985.54 12.096 L1985.54 18.9825 L1960.91 18.9825 L1960.91 33.8088 Q1962.69 33.2012 1964.47 32.9176 Q1966.25 32.5936 1968.04 32.5936 Q1978.16 32.5936 1984.08 38.1433 Q1989.99 43.6931 1989.99 53.1722 Q1989.99 62.9348 1983.92 68.3631 Q1977.84 73.7508 1966.78 73.7508 Q1962.97 73.7508 1959 73.1026 Q1955.07 72.4545 1950.86 71.1582 L1950.86 62.9348 Q1954.51 64.9198 1958.39 65.892 Q1962.28 66.8642 1966.62 66.8642 Q1973.63 66.8642 1977.72 63.1779 Q1981.81 59.4916 1981.81 53.1722 Q1981.81 46.8528 1977.72 43.1664 Q1973.63 39.4801 1966.62 39.4801 Q1963.34 39.4801 1960.06 40.2093 Q1956.81 40.9384 1953.41 42.4778 L1953.41 12.096 Z" fill="#000000" fill-rule="evenodd" fill-opacity="1" /><path clip-path="url(#clip380)" d="M2006.2 12.096 L2038.32 12.096 L2038.32 18.9825 L2013.69 18.9825 L2013.69 33.8088 Q2015.47 33.2012 2017.25 32.9176 Q2019.04 32.5936 2020.82 32.5936 Q2030.95 32.5936 2036.86 38.1433 Q2042.77 43.6931 2042.77 53.1722 Q2042.77 62.9348 2036.7 68.3631 Q2030.62 73.7508 2019.56 73.7508 Q2015.76 73.7508 2011.79 73.1026 Q2007.86 72.4545 2003.64 71.1582 L2003.64 62.9348 Q2007.29 64.9198 2011.18 65.892 Q2015.07 66.8642 2019.4 66.8642 Q2026.41 66.8642 2030.5 63.1779 Q2034.59 59.4916 2034.59 53.1722 Q2034.59 46.8528 2030.5 43.1664 Q2026.41 39.4801 2019.4 39.4801 Q2016.12 39.4801 2012.84 40.2093 Q2009.6 40.9384 2006.2 42.4778 L2006.2 12.096 Z" fill="#000000" fill-rule="evenodd" fill-opacity="1" /><polyline clip-path="url(#clip382)" style="stroke:#009af9; stroke-linecap:butt; stroke-linejoin:round; stroke-width:16; stroke-opacity:1; fill:none" points="
  255.035,1284.04 385.643,1447.87 670.811,1365.63 1060.21,1281.88 1486.48,328.04 1875.88,244.294 2161.05,162.047 2291.66,325.875 
  "/>
<line clip-path="url(#clip382)" x1="255.035" y1="1284.04" x2="255.035" y2="1268.04" style="stroke:#009af9; stroke-width:3.2; stroke-opacity:1"/>
<line clip-path="url(#clip382)" x1="255.035" y1="1284.04" x2="239.035" y2="1284.04" style="stroke:#009af9; stroke-width:3.2; stroke-opacity:1"/>
<line clip-path="url(#clip382)" x1="255.035" y1="1284.04" x2="255.035" y2="1300.04" style="stroke:#009af9; stroke-width:3.2; stroke-opacity:1"/>
<line clip-path="url(#clip382)" x1="255.035" y1="1284.04" x2="271.035" y2="1284.04" style="stroke:#009af9; stroke-width:3.2; stroke-opacity:1"/>
<line clip-path="url(#clip382)" x1="385.643" y1="1447.87" x2="385.643" y2="1431.87" style="stroke:#009af9; stroke-width:3.2; stroke-opacity:1"/>
<line clip-path="url(#clip382)" x1="385.643" y1="1447.87" x2="369.643" y2="1447.87" style="stroke:#009af9; stroke-width:3.2; stroke-opacity:1"/>
<line clip-path="url(#clip382)" x1="385.643" y1="1447.87" x2="385.643" y2="1463.87" style="stroke:#009af9; stroke-width:3.2; stroke-opacity:1"/>
<line clip-path="url(#clip382)" x1="385.643" y1="1447.87" x2="401.643" y2="1447.87" style="stroke:#009af9; stroke-width:3.2; stroke-opacity:1"/>
<line clip-path="url(#clip382)" x1="670.811" y1="1365.63" x2="670.811" y2="1349.63" style="stroke:#009af9; stroke-width:3.2; stroke-opacity:1"/>
<line clip-path="url(#clip382)" x1="670.811" y1="1365.63" x2="654.811" y2="1365.63" style="stroke:#009af9; stroke-width:3.2; stroke-opacity:1"/>
<line clip-path="url(#clip382)" x1="670.811" y1="1365.63" x2="670.811" y2="1381.63" style="stroke:#009af9; stroke-width:3.2; stroke-opacity:1"/>
<line clip-path="url(#clip382)" x1="670.811" y1="1365.63" x2="686.811" y2="1365.63" style="stroke:#009af9; stroke-width:3.2; stroke-opacity:1"/>
<line clip-path="url(#clip382)" x1="1060.21" y1="1281.88" x2="1060.21" y2="1265.88" style="stroke:#009af9; stroke-width:3.2; stroke-opacity:1"/>
<line clip-path="url(#clip382)" x1="1060.21" y1="1281.88" x2="1044.21" y2="1281.88" style="stroke:#009af9; stroke-width:3.2; stroke-opacity:1"/>
<line clip-path="url(#clip382)" x1="1060.21" y1="1281.88" x2="1060.21" y2="1297.88" style="stroke:#009af9; stroke-width:3.2; stroke-opacity:1"/>
<line clip-path="url(#clip382)" x1="1060.21" y1="1281.88" x2="1076.21" y2="1281.88" style="stroke:#009af9; stroke-width:3.2; stroke-opacity:1"/>
<line clip-path="url(#clip382)" x1="1486.48" y1="328.04" x2="1486.48" y2="312.04" style="stroke:#009af9; stroke-width:3.2; stroke-opacity:1"/>
<line clip-path="url(#clip382)" x1="1486.48" y1="328.04" x2="1470.48" y2="328.04" style="stroke:#009af9; stroke-width:3.2; stroke-opacity:1"/>
<line clip-path="url(#clip382)" x1="1486.48" y1="328.04" x2="1486.48" y2="344.04" style="stroke:#009af9; stroke-width:3.2; stroke-opacity:1"/>
<line clip-path="url(#clip382)" x1="1486.48" y1="328.04" x2="1502.48" y2="328.04" style="stroke:#009af9; stroke-width:3.2; stroke-opacity:1"/>
<line clip-path="url(#clip382)" x1="1875.88" y1="244.294" x2="1875.88" y2="228.294" style="stroke:#009af9; stroke-width:3.2; stroke-opacity:1"/>
<line clip-path="url(#clip382)" x1="1875.88" y1="244.294" x2="1859.88" y2="244.294" style="stroke:#009af9; stroke-width:3.2; stroke-opacity:1"/>
<line clip-path="url(#clip382)" x1="1875.88" y1="244.294" x2="1875.88" y2="260.294" style="stroke:#009af9; stroke-width:3.2; stroke-opacity:1"/>
<line clip-path="url(#clip382)" x1="1875.88" y1="244.294" x2="1891.88" y2="244.294" style="stroke:#009af9; stroke-width:3.2; stroke-opacity:1"/>
<line clip-path="url(#clip382)" x1="2161.05" y1="162.047" x2="2161.05" y2="146.047" style="stroke:#009af9; stroke-width:3.2; stroke-opacity:1"/>
<line clip-path="url(#clip382)" x1="2161.05" y1="162.047" x2="2145.05" y2="162.047" style="stroke:#009af9; stroke-width:3.2; stroke-opacity:1"/>
<line clip-path="url(#clip382)" x1="2161.05" y1="162.047" x2="2161.05" y2="178.047" style="stroke:#009af9; stroke-width:3.2; stroke-opacity:1"/>
<line clip-path="url(#clip382)" x1="2161.05" y1="162.047" x2="2177.05" y2="162.047" style="stroke:#009af9; stroke-width:3.2; stroke-opacity:1"/>
<line clip-path="url(#clip382)" x1="2291.66" y1="325.875" x2="2291.66" y2="309.875" style="stroke:#009af9; stroke-width:3.2; stroke-opacity:1"/>
<line clip-path="url(#clip382)" x1="2291.66" y1="325.875" x2="2275.66" y2="325.875" style="stroke:#009af9; stroke-width:3.2; stroke-opacity:1"/>
<line clip-path="url(#clip382)" x1="2291.66" y1="325.875" x2="2291.66" y2="341.875" style="stroke:#009af9; stroke-width:3.2; stroke-opacity:1"/>
<line clip-path="url(#clip382)" x1="2291.66" y1="325.875" x2="2307.66" y2="325.875" style="stroke:#009af9; stroke-width:3.2; stroke-opacity:1"/>
<polyline clip-path="url(#clip382)" style="stroke:#e26f46; stroke-linecap:butt; stroke-linejoin:round; stroke-width:16; stroke-opacity:1; fill:none" points="
  255.035,1401.16 268.294,1401.16 390.898,1401.01 464.577,1400.79 526.872,1400.44 594.542,1399.7 656.928,1398.42 723.812,1395.84 801.304,1389.76 835.737,1385.21 
  870.17,1378.89 900.364,1371.38 930.558,1361.43 947.018,1354.72 963.478,1346.93 979.938,1337.91 996.398,1327.49 1012.96,1315.41 1029.51,1301.53 1046.07,1285.63 
  1062.63,1267.51 1071.78,1256.46 1080.94,1244.64 1090.09,1232 1099.24,1218.52 1108.4,1204.18 1117.55,1188.95 1126.7,1172.81 1135.86,1155.75 1144.57,1138.65 
  1153.28,1120.72 1161.98,1101.96 1170.69,1082.39 1188.11,1040.88 1205.53,996.474 1223.64,947.655 1241.75,896.718 1259.86,844.371 1277.98,791.408 1293.22,746.955 
  1308.47,703.143 1323.71,660.436 1338.96,619.248 1348.27,595.006 1357.57,571.531 1366.88,548.881 1376.19,527.103 1385.49,506.232 1394.8,486.294 1404.11,467.307 
  1413.41,449.276 1421.94,433.599 1430.46,418.718 1438.99,404.622 1447.51,391.296 1464.57,366.879 1481.62,345.285 1497.36,327.667 1513.11,312.1 1528.86,298.399 
  1544.61,286.384 1560.56,275.754 1576.51,266.503 1592.46,258.471 1608.42,251.514 1626.29,244.829 1644.17,239.161 1662.05,234.362 1679.93,230.305 1712.33,224.496 
  1744.73,220.233 1818.92,214.295 1887.62,211.558 1955.34,210.172 2021.1,209.473 2088.51,209.1 2162.36,208.895 2269.65,208.77 2291.66,208.756 
  "/>
<path clip-path="url(#clip380)" d="
M1988.5 1441.02 L2280.8 1441.02 L2280.8 1285.5 L1988.5 1285.5  Z
  " fill="#ffffff" fill-rule="evenodd" fill-opacity="1"/>
<polyline clip-path="url(#clip380)" style="stroke:#000000; stroke-linecap:butt; stroke-linejoin:round; stroke-width:4; stroke-opacity:1; fill:none" points="
  1988.5,1441.02 2280.8,1441.02 2280.8,1285.5 1988.5,1285.5 1988.5,1441.02 
  "/>
<polyline clip-path="url(#clip380)" style="stroke:#009af9; stroke-linecap:butt; stroke-linejoin:round; stroke-width:4; stroke-opacity:1; fill:none" points="
  2012.48,1337.34 2156.4,1337.34 
  "/>
<line clip-path="url(#clip380)" x1="2084.44" y1="1337.34" x2="2084.44" y2="1311.74" style="stroke:#009af9; stroke-width:5.12; stroke-opacity:1"/>
<line clip-path="url(#clip380)" x1="2084.44" y1="1337.34" x2="2058.84" y2="1337.34" style="stroke:#009af9; stroke-width:5.12; stroke-opacity:1"/>
<line clip-path="url(#clip380)" x1="2084.44" y1="1337.34" x2="2084.44" y2="1362.94" style="stroke:#009af9; stroke-width:5.12; stroke-opacity:1"/>
<line clip-path="url(#clip380)" x1="2084.44" y1="1337.34" x2="2110.04" y2="1337.34" style="stroke:#009af9; stroke-width:5.12; stroke-opacity:1"/>
<path clip-path="url(#clip380)" d="M2194.23 1357.02 Q2192.43 1361.65 2190.72 1363.06 Q2189 1364.48 2186.13 1364.48 L2182.73 1364.48 L2182.73 1360.91 L2185.23 1360.91 Q2186.99 1360.91 2187.96 1360.08 Q2188.93 1359.24 2190.11 1356.14 L2190.88 1354.2 L2180.39 1328.69 L2184.91 1328.69 L2193.01 1348.97 L2201.11 1328.69 L2205.62 1328.69 L2194.23 1357.02 Z" fill="#000000" fill-rule="evenodd" fill-opacity="1" /><path clip-path="url(#clip380)" d="M2212.91 1350.68 L2220.55 1350.68 L2220.55 1324.31 L2212.24 1325.98 L2212.24 1321.72 L2220.51 1320.06 L2225.18 1320.06 L2225.18 1350.68 L2232.82 1350.68 L2232.82 1354.62 L2212.91 1354.62 L2212.91 1350.68 Z" fill="#000000" fill-rule="evenodd" fill-opacity="1" /><polyline clip-path="url(#clip380)" style="stroke:#e26f46; stroke-linecap:butt; stroke-linejoin:round; stroke-width:4; stroke-opacity:1; fill:none" points="
  2012.48,1389.18 2156.4,1389.18 
  "/>
<path clip-path="url(#clip380)" d="M2194.23 1408.86 Q2192.43 1413.49 2190.72 1414.9 Q2189 1416.32 2186.13 1416.32 L2182.73 1416.32 L2182.73 1412.75 L2185.23 1412.75 Q2186.99 1412.75 2187.96 1411.92 Q2188.93 1411.08 2190.11 1407.98 L2190.88 1406.04 L2180.39 1380.53 L2184.91 1380.53 L2193.01 1400.81 L2201.11 1380.53 L2205.62 1380.53 L2194.23 1408.86 Z" fill="#000000" fill-rule="evenodd" fill-opacity="1" /><path clip-path="url(#clip380)" d="M2216.13 1402.52 L2232.45 1402.52 L2232.45 1406.46 L2210.51 1406.46 L2210.51 1402.52 Q2213.17 1399.77 2217.75 1395.14 Q2222.36 1390.48 2223.54 1389.14 Q2225.78 1386.62 2226.66 1384.88 Q2227.57 1383.12 2227.57 1381.43 Q2227.57 1378.68 2225.62 1376.94 Q2223.7 1375.21 2220.6 1375.21 Q2218.4 1375.21 2215.95 1375.97 Q2213.52 1376.73 2210.74 1378.28 L2210.74 1373.56 Q2213.56 1372.43 2216.02 1371.85 Q2218.47 1371.27 2220.51 1371.27 Q2225.88 1371.27 2229.07 1373.96 Q2232.27 1376.64 2232.27 1381.13 Q2232.27 1383.26 2231.46 1385.18 Q2230.67 1387.08 2228.56 1389.67 Q2227.98 1390.34 2224.88 1393.56 Q2221.78 1396.76 2216.13 1402.52 Z" fill="#000000" fill-rule="evenodd" fill-opacity="1" /></svg>
