<?xml version="1.0" encoding="utf-8"?>
<svg xmlns="http://www.w3.org/2000/svg" xmlns:xlink="http://www.w3.org/1999/xlink" width="600" height="400" viewBox="0 0 2400 1600">
<defs>
  <clipPath id="clip060">
    <rect x="0" y="0" width="2400" height="1600"/>
  </clipPath>
</defs>
<path clip-path="url(#clip060)" d="
M0 1600 L2400 1600 L2400 0 L0 0  Z
  " fill="#ffffff" fill-rule="evenodd" fill-opacity="1"/>
<defs>
  <clipPath id="clip061">
    <rect x="480" y="0" width="1681" height="1600"/>
  </clipPath>
</defs>
<defs>
  <clipPath id="clip062">
    <rect x="213" y="47" width="2140" height="1440"/>
  </clipPath>
</defs>
<path clip-path="url(#clip060)" d="
M189.496 1486.45 L2352.76 1486.45 L2352.76 47.2441 L189.496 47.2441  Z
  " fill="#ffffff" fill-rule="evenodd" fill-opacity="1"/>
<defs>
  <clipPath id="clip063">
    <rect x="189" y="47" width="2164" height="1440"/>
  </clipPath>
</defs>
<polyline clip-path="url(#clip063)" style="stroke:#000000; stroke-linecap:butt; stroke-linejoin:round; stroke-width:2; stroke-opacity:0.1; fill:none" points="
  542.265,1486.45 542.265,47.2441 
  "/>
<polyline clip-path="url(#clip063)" style="stroke:#000000; stroke-linecap:butt; stroke-linejoin:round; stroke-width:2; stroke-opacity:0.1; fill:none" points="
  1125.35,1486.45 1125.35,47.2441 
  "/>
<polyline clip-path="url(#clip063)" style="stroke:#000000; stroke-linecap:butt; stroke-linejoin:round; stroke-width:2; stroke-opacity:0.1; fill:none" points="
  1708.44,1486.45 1708.44,47.2441 
  "/>
<polyline clip-path="url(#clip063)" style="stroke:#000000; stroke-linecap:butt; stroke-linejoin:round; stroke-width:2; stroke-opacity:0.1; fill:none" points="
  2291.53,1486.45 2291.53,47.2441 
  "/>
<polyline clip-path="url(#clip060)" style="stroke:#000000; stroke-linecap:butt; stroke-linejoin:round; stroke-width:4; stroke-opacity:1; fill:none" points="
  189.496,1486.45 2352.76,1486.45 
  "/>
<polyline clip-path="url(#clip060)" style="stroke:#000000; stroke-linecap:butt; stroke-linejoin:round; stroke-width:4; stroke-opacity:1; fill:none" points="
  542.265,1486.45 542.265,1467.55 
  "/>
<polyline clip-path="url(#clip060)" style="stroke:#000000; stroke-linecap:butt; stroke-linejoin:round; stroke-width:4; stroke-opacity:1; fill:none" points="
  1125.35,1486.45 1125.35,1467.55 
  "/>
<polyline clip-path="url(#clip060)" style="stroke:#000000; stroke-linecap:butt; stroke-linejoin:round; stroke-width:4; stroke-opacity:1; fill:none" points="
  1708.44,1486.45 1708.44,1467.55 
  "/>
<polyline clip-path="url(#clip060)" style="stroke:#000000; stroke-linecap:butt; stroke-linejoin:round; stroke-width:4; stroke-opacity:1; fill:none" points="
  2291.53,1486.45 2291.53,1467.55 
  "/>
<path clip-path="url(#clip060)" d="M516.952 1544.91 L524.591 1544.91 L524.591 1518.55 L516.281 1520.21 L516.281 1515.95 L524.545 1514.29 L529.221 1514.29 L529.221 1544.91 L536.86 1544.91 L536.86 1548.85 L516.952 1548.85 L516.952 1544.91 Z" fill="#000000" fill-rule="evenodd" fill-opacity="1" /><path clip-path="url(#clip060)" d="M556.304 1517.37 Q552.693 1517.37 550.864 1520.93 Q549.059 1524.47 549.059 1531.6 Q549.059 1538.71 550.864 1542.27 Q552.693 1545.82 556.304 1545.82 Q559.938 1545.82 561.744 1542.27 Q563.572 1538.71 563.572 1531.6 Q563.572 1524.47 561.744 1520.93 Q559.938 1517.37 556.304 1517.37 M556.304 1513.66 Q562.114 1513.66 565.17 1518.27 Q568.248 1522.85 568.248 1531.6 Q568.248 1540.33 565.17 1544.94 Q562.114 1549.52 556.304 1549.52 Q550.494 1549.52 547.415 1544.94 Q544.36 1540.33 544.36 1531.6 Q544.36 1522.85 547.415 1518.27 Q550.494 1513.66 556.304 1513.66 Z" fill="#000000" fill-rule="evenodd" fill-opacity="1" /><path clip-path="url(#clip060)" d="M1104.13 1544.91 L1120.45 1544.91 L1120.45 1548.85 L1098.5 1548.85 L1098.5 1544.91 Q1101.16 1542.16 1105.75 1537.53 Q1110.35 1532.88 1111.53 1531.53 Q1113.78 1529.01 1114.66 1527.27 Q1115.56 1525.51 1115.56 1523.82 Q1115.56 1521.07 1113.62 1519.33 Q1111.7 1517.6 1108.59 1517.6 Q1106.4 1517.6 1103.94 1518.36 Q1101.51 1519.13 1098.73 1520.68 L1098.73 1515.95 Q1101.56 1514.82 1104.01 1514.24 Q1106.46 1513.66 1108.5 1513.66 Q1113.87 1513.66 1117.07 1516.35 Q1120.26 1519.03 1120.26 1523.52 Q1120.26 1525.65 1119.45 1527.57 Q1118.66 1529.47 1116.56 1532.07 Q1115.98 1532.74 1112.88 1535.95 Q1109.78 1539.15 1104.13 1544.91 Z" fill="#000000" fill-rule="evenodd" fill-opacity="1" /><path clip-path="url(#clip060)" d="M1140.26 1517.37 Q1136.65 1517.37 1134.82 1520.93 Q1133.02 1524.47 1133.02 1531.6 Q1133.02 1538.71 1134.82 1542.27 Q1136.65 1545.82 1140.26 1545.82 Q1143.9 1545.82 1145.7 1542.27 Q1147.53 1538.71 1147.53 1531.6 Q1147.53 1524.47 1145.7 1520.93 Q1143.9 1517.37 1140.26 1517.37 M1140.26 1513.66 Q1146.07 1513.66 1149.13 1518.27 Q1152.21 1522.85 1152.21 1531.6 Q1152.21 1540.33 1149.13 1544.94 Q1146.07 1549.52 1140.26 1549.52 Q1134.45 1549.52 1131.37 1544.94 Q1128.32 1540.33 1128.32 1531.6 Q1128.32 1522.85 1131.37 1518.27 Q1134.45 1513.66 1140.26 1513.66 Z" fill="#000000" fill-rule="evenodd" fill-opacity="1" /><path clip-path="url(#clip060)" d="M1697.29 1530.21 Q1700.64 1530.93 1702.52 1533.2 Q1704.41 1535.47 1704.41 1538.8 Q1704.41 1543.92 1700.9 1546.72 Q1697.38 1549.52 1690.9 1549.52 Q1688.72 1549.52 1686.41 1549.08 Q1684.11 1548.66 1681.66 1547.81 L1681.66 1543.29 Q1683.6 1544.43 1685.92 1545.01 Q1688.23 1545.58 1690.76 1545.58 Q1695.16 1545.58 1697.45 1543.85 Q1699.76 1542.11 1699.76 1538.8 Q1699.76 1535.75 1697.61 1534.03 Q1695.48 1532.3 1691.66 1532.3 L1687.63 1532.3 L1687.63 1528.45 L1691.85 1528.45 Q1695.29 1528.45 1697.12 1527.09 Q1698.95 1525.7 1698.95 1523.11 Q1698.95 1520.45 1697.05 1519.03 Q1695.18 1517.6 1691.66 1517.6 Q1689.74 1517.6 1687.54 1518.01 Q1685.34 1518.43 1682.7 1519.31 L1682.7 1515.14 Q1685.36 1514.4 1687.68 1514.03 Q1690.02 1513.66 1692.08 1513.66 Q1697.4 1513.66 1700.5 1516.09 Q1703.6 1518.5 1703.6 1522.62 Q1703.6 1525.49 1701.96 1527.48 Q1700.32 1529.45 1697.29 1530.21 Z" fill="#000000" fill-rule="evenodd" fill-opacity="1" /><path clip-path="url(#clip060)" d="M1723.28 1517.37 Q1719.67 1517.37 1717.84 1520.93 Q1716.04 1524.47 1716.04 1531.6 Q1716.04 1538.71 1717.84 1542.27 Q1719.67 1545.82 1723.28 1545.82 Q1726.91 1545.82 1728.72 1542.27 Q1730.55 1538.71 1730.55 1531.6 Q1730.55 1524.47 1728.72 1520.93 Q1726.91 1517.37 1723.28 1517.37 M1723.28 1513.66 Q1729.09 1513.66 1732.15 1518.27 Q1735.22 1522.85 1735.22 1531.6 Q1735.22 1540.33 1732.15 1544.94 Q1729.09 1549.52 1723.28 1549.52 Q1717.47 1549.52 1714.39 1544.94 Q1711.34 1540.33 1711.34 1531.6 Q1711.34 1522.85 1714.39 1518.27 Q1717.47 1513.66 1723.28 1513.66 Z" fill="#000000" fill-rule="evenodd" fill-opacity="1" /><path clip-path="url(#clip060)" d="M2279.7 1518.36 L2267.9 1536.81 L2279.7 1536.81 L2279.7 1518.36 M2278.48 1514.29 L2284.36 1514.29 L2284.36 1536.81 L2289.29 1536.81 L2289.29 1540.7 L2284.36 1540.7 L2284.36 1548.85 L2279.7 1548.85 L2279.7 1540.7 L2264.1 1540.7 L2264.1 1536.19 L2278.48 1514.29 Z" fill="#000000" fill-rule="evenodd" fill-opacity="1" /><path clip-path="url(#clip060)" d="M2307.02 1517.37 Q2303.41 1517.37 2301.58 1520.93 Q2299.77 1524.47 2299.77 1531.6 Q2299.77 1538.71 2301.58 1542.27 Q2303.41 1545.82 2307.02 1545.82 Q2310.65 1545.82 2312.46 1542.27 Q2314.29 1538.71 2314.29 1531.6 Q2314.29 1524.47 2312.46 1520.93 Q2310.65 1517.37 2307.02 1517.37 M2307.02 1513.66 Q2312.83 1513.66 2315.88 1518.27 Q2318.96 1522.85 2318.96 1531.6 Q2318.96 1540.33 2315.88 1544.94 Q2312.83 1549.52 2307.02 1549.52 Q2301.21 1549.52 2298.13 1544.94 Q2295.07 1540.33 2295.07 1531.6 Q2295.07 1522.85 2298.13 1518.27 Q2301.21 1513.66 2307.02 1513.66 Z" fill="#000000" fill-rule="evenodd" fill-opacity="1" /><polyline clip-path="url(#clip063)" style="stroke:#000000; stroke-linecap:butt; stroke-linejoin:round; stroke-width:2; stroke-opacity:0.1; fill:none" points="
  189.496,1229.11 2352.76,1229.11 
  "/>
<polyline clip-path="url(#clip063)" style="stroke:#000000; stroke-linecap:butt; stroke-linejoin:round; stroke-width:2; stroke-opacity:0.1; fill:none" points="
  189.496,960.419 2352.76,960.419 
  "/>
<polyline clip-path="url(#clip063)" style="stroke:#000000; stroke-linecap:butt; stroke-linejoin:round; stroke-width:2; stroke-opacity:0.1; fill:none" points="
  189.496,691.732 2352.76,691.732 
  "/>
<polyline clip-path="url(#clip063)" style="stroke:#000000; stroke-linecap:butt; stroke-linejoin:round; stroke-width:2; stroke-opacity:0.1; fill:none" points="
  189.496,423.045 2352.76,423.045 
  "/>
<polyline clip-path="url(#clip063)" style="stroke:#000000; stroke-linecap:butt; stroke-linejoin:round; stroke-width:2; stroke-opacity:0.1; fill:none" points="
  189.496,154.358 2352.76,154.358 
  "/>
<polyline clip-path="url(#clip060)" style="stroke:#000000; stroke-linecap:butt; stroke-linejoin:round; stroke-width:4; stroke-opacity:1; fill:none" points="
  189.496,1486.45 189.496,47.2441 
  "/>
<polyline clip-path="url(#clip060)" style="stroke:#000000; stroke-linecap:butt; stroke-linejoin:round; stroke-width:4; stroke-opacity:1; fill:none" points="
  189.496,1229.11 208.394,1229.11 
  "/>
<polyline clip-path="url(#clip060)" style="stroke:#000000; stroke-linecap:butt; stroke-linejoin:round; stroke-width:4; stroke-opacity:1; fill:none" points="
  189.496,960.419 208.394,960.419 
  "/>
<polyline clip-path="url(#clip060)" style="stroke:#000000; stroke-linecap:butt; stroke-linejoin:round; stroke-width:4; stroke-opacity:1; fill:none" points="
  189.496,691.732 208.394,691.732 
  "/>
<polyline clip-path="url(#clip060)" style="stroke:#000000; stroke-linecap:butt; stroke-linejoin:round; stroke-width:4; stroke-opacity:1; fill:none" points="
  189.496,423.045 208.394,423.045 
  "/>
<polyline clip-path="url(#clip060)" style="stroke:#000000; stroke-linecap:butt; stroke-linejoin:round; stroke-width:4; stroke-opacity:1; fill:none" points="
  189.496,154.358 208.394,154.358 
  "/>
<path clip-path="url(#clip060)" d="M51.6634 1248.9 L59.3023 1248.9 L59.3023 1222.53 L50.9921 1224.2 L50.9921 1219.94 L59.256 1218.27 L63.9319 1218.27 L63.9319 1248.9 L71.5707 1248.9 L71.5707 1252.83 L51.6634 1252.83 L51.6634 1248.9 Z" fill="#000000" fill-rule="evenodd" fill-opacity="1" /><path clip-path="url(#clip060)" d="M91.0151 1221.35 Q87.404 1221.35 85.5753 1224.92 Q83.7697 1228.46 83.7697 1235.59 Q83.7697 1242.69 85.5753 1246.26 Q87.404 1249.8 91.0151 1249.8 Q94.6493 1249.8 96.4548 1246.26 Q98.2835 1242.69 98.2835 1235.59 Q98.2835 1228.46 96.4548 1224.92 Q94.6493 1221.35 91.0151 1221.35 M91.0151 1217.65 Q96.8252 1217.65 99.8808 1222.25 Q102.959 1226.84 102.959 1235.59 Q102.959 1244.31 99.8808 1248.92 Q96.8252 1253.5 91.0151 1253.5 Q85.2049 1253.5 82.1262 1248.92 Q79.0707 1244.31 79.0707 1235.59 Q79.0707 1226.84 82.1262 1222.25 Q85.2049 1217.65 91.0151 1217.65 Z" fill="#000000" fill-rule="evenodd" fill-opacity="1" /><path clip-path="url(#clip060)" d="M102.959 1211.75 L127.071 1211.75 L127.071 1214.95 L102.959 1214.95 L102.959 1211.75 Z" fill="#000000" fill-rule="evenodd" fill-opacity="1" /><path clip-path="url(#clip060)" d="M145.71 1200.65 L136.118 1215.64 L145.71 1215.64 L145.71 1200.65 M144.713 1197.34 L149.49 1197.34 L149.49 1215.64 L153.496 1215.64 L153.496 1218.8 L149.49 1218.8 L149.49 1225.42 L145.71 1225.42 L145.71 1218.8 L133.033 1218.8 L133.033 1215.14 L144.713 1197.34 Z" fill="#000000" fill-rule="evenodd" fill-opacity="1" /><path clip-path="url(#clip060)" d="M52.585 980.211 L60.2238 980.211 L60.2238 953.846 L51.9137 955.512 L51.9137 951.253 L60.1776 949.586 L64.8535 949.586 L64.8535 980.211 L72.4923 980.211 L72.4923 984.146 L52.585 984.146 L52.585 980.211 Z" fill="#000000" fill-rule="evenodd" fill-opacity="1" /><path clip-path="url(#clip060)" d="M91.9366 952.665 Q88.3255 952.665 86.4969 956.23 Q84.6913 959.772 84.6913 966.901 Q84.6913 974.008 86.4969 977.572 Q88.3255 981.114 91.9366 981.114 Q95.5709 981.114 97.3764 977.572 Q99.2051 974.008 99.2051 966.901 Q99.2051 959.772 97.3764 956.23 Q95.5709 952.665 91.9366 952.665 M91.9366 948.961 Q97.7468 948.961 100.802 953.568 Q103.881 958.151 103.881 966.901 Q103.881 975.628 100.802 980.234 Q97.7468 984.818 91.9366 984.818 Q86.1265 984.818 83.0478 980.234 Q79.9923 975.628 79.9923 966.901 Q79.9923 958.151 83.0478 953.568 Q86.1265 948.961 91.9366 948.961 Z" fill="#000000" fill-rule="evenodd" fill-opacity="1" /><path clip-path="url(#clip060)" d="M103.881 943.063 L127.993 943.063 L127.993 946.26 L103.881 946.26 L103.881 943.063 Z" fill="#000000" fill-rule="evenodd" fill-opacity="1" /><path clip-path="url(#clip060)" d="M147.703 941.596 Q150.43 942.179 151.954 944.022 Q153.496 945.865 153.496 948.573 Q153.496 952.73 150.637 955.006 Q147.778 957.281 142.512 957.281 Q140.744 957.281 138.863 956.924 Q137.002 956.586 135.008 955.89 L135.008 952.222 Q136.588 953.144 138.469 953.614 Q140.349 954.084 142.399 954.084 Q145.973 954.084 147.835 952.673 Q149.716 951.263 149.716 948.573 Q149.716 946.091 147.966 944.699 Q146.236 943.288 143.133 943.288 L139.86 943.288 L139.86 940.166 L143.283 940.166 Q146.086 940.166 147.571 939.057 Q149.057 937.928 149.057 935.822 Q149.057 933.659 147.515 932.512 Q145.992 931.345 143.133 931.345 Q141.572 931.345 139.785 931.684 Q137.998 932.023 135.854 932.737 L135.854 929.352 Q138.017 928.75 139.898 928.449 Q141.797 928.148 143.471 928.148 Q147.797 928.148 150.317 930.123 Q152.838 932.079 152.838 935.427 Q152.838 937.759 151.502 939.376 Q150.167 940.975 147.703 941.596 Z" fill="#000000" fill-rule="evenodd" fill-opacity="1" /><path clip-path="url(#clip060)" d="M53.3561 711.524 L60.995 711.524 L60.995 685.159 L52.6848 686.825 L52.6848 682.566 L60.9487 680.899 L65.6246 680.899 L65.6246 711.524 L73.2634 711.524 L73.2634 715.459 L53.3561 715.459 L53.3561 711.524 Z" fill="#000000" fill-rule="evenodd" fill-opacity="1" /><path clip-path="url(#clip060)" d="M92.7078 683.978 Q89.0967 683.978 87.268 687.543 Q85.4624 691.085 85.4624 698.214 Q85.4624 705.321 87.268 708.885 Q89.0967 712.427 92.7078 712.427 Q96.342 712.427 98.1475 708.885 Q99.9762 705.321 99.9762 698.214 Q99.9762 691.085 98.1475 687.543 Q96.342 683.978 92.7078 683.978 M92.7078 680.274 Q98.5179 680.274 101.573 684.881 Q104.652 689.464 104.652 698.214 Q104.652 706.941 101.573 711.547 Q98.5179 716.131 92.7078 716.131 Q86.8976 716.131 83.8189 711.547 Q80.7634 706.941 80.7634 698.214 Q80.7634 689.464 83.8189 684.881 Q86.8976 680.274 92.7078 680.274 Z" fill="#000000" fill-rule="evenodd" fill-opacity="1" /><path clip-path="url(#clip060)" d="M104.652 674.376 L128.764 674.376 L128.764 677.573 L104.652 677.573 L104.652 674.376 Z" fill="#000000" fill-rule="evenodd" fill-opacity="1" /><path clip-path="url(#clip060)" d="M140.236 684.852 L153.496 684.852 L153.496 688.049 L135.666 688.049 L135.666 684.852 Q137.829 682.614 141.553 678.852 Q145.296 675.072 146.255 673.981 Q148.079 671.931 148.794 670.52 Q149.527 669.091 149.527 667.718 Q149.527 665.48 147.948 664.069 Q146.387 662.659 143.866 662.659 Q142.08 662.659 140.086 663.279 Q138.111 663.9 135.854 665.16 L135.854 661.323 Q138.149 660.402 140.142 659.931 Q142.136 659.461 143.791 659.461 Q148.155 659.461 150.75 661.643 Q153.345 663.825 153.345 667.473 Q153.345 669.204 152.687 670.765 Q152.048 672.307 150.336 674.413 Q149.866 674.959 147.346 677.573 Q144.826 680.169 140.236 684.852 Z" fill="#000000" fill-rule="evenodd" fill-opacity="1" /><path clip-path="url(#clip060)" d="M53.0552 442.837 L60.694 442.837 L60.694 416.472 L52.3839 418.138 L52.3839 413.879 L60.6477 412.213 L65.3236 412.213 L65.3236 442.837 L72.9625 442.837 L72.9625 446.773 L53.0552 446.773 L53.0552 442.837 Z" fill="#000000" fill-rule="evenodd" fill-opacity="1" /><path clip-path="url(#clip060)" d="M92.4068 415.291 Q88.7957 415.291 86.967 418.856 Q85.1615 422.398 85.1615 429.527 Q85.1615 436.634 86.967 440.199 Q88.7957 443.74 92.4068 443.74 Q96.0411 443.74 97.8466 440.199 Q99.6753 436.634 99.6753 429.527 Q99.6753 422.398 97.8466 418.856 Q96.0411 415.291 92.4068 415.291 M92.4068 411.588 Q98.217 411.588 101.273 416.194 Q104.351 420.777 104.351 429.527 Q104.351 438.254 101.273 442.861 Q98.217 447.444 92.4068 447.444 Q86.5967 447.444 83.518 442.861 Q80.4625 438.254 80.4625 429.527 Q80.4625 420.777 83.518 416.194 Q86.5967 411.588 92.4068 411.588 Z" fill="#000000" fill-rule="evenodd" fill-opacity="1" /><path clip-path="url(#clip060)" d="M104.351 405.689 L128.463 405.689 L128.463 408.886 L104.351 408.886 L104.351 405.689 Z" fill="#000000" fill-rule="evenodd" fill-opacity="1" /><path clip-path="url(#clip060)" d="M137.321 416.165 L143.528 416.165 L143.528 394.743 L136.776 396.097 L136.776 392.636 L143.49 391.282 L147.289 391.282 L147.289 416.165 L153.496 416.165 L153.496 419.362 L137.321 419.362 L137.321 416.165 Z" fill="#000000" fill-rule="evenodd" fill-opacity="1" /><path clip-path="url(#clip060)" d="M82.7903 174.15 L90.4291 174.15 L90.4291 147.785 L82.119 149.452 L82.119 145.192 L90.3828 143.526 L95.0587 143.526 L95.0587 174.15 L102.698 174.15 L102.698 178.086 L82.7903 178.086 L82.7903 174.15 Z" fill="#000000" fill-rule="evenodd" fill-opacity="1" /><path clip-path="url(#clip060)" d="M122.142 146.604 Q118.531 146.604 116.702 150.169 Q114.897 153.711 114.897 160.84 Q114.897 167.947 116.702 171.512 Q118.531 175.053 122.142 175.053 Q125.776 175.053 127.582 171.512 Q129.41 167.947 129.41 160.84 Q129.41 153.711 127.582 150.169 Q125.776 146.604 122.142 146.604 M122.142 142.901 Q127.952 142.901 131.008 147.507 Q134.086 152.09 134.086 160.84 Q134.086 169.567 131.008 174.174 Q127.952 178.757 122.142 178.757 Q116.332 178.757 113.253 174.174 Q110.198 169.567 110.198 160.84 Q110.198 152.09 113.253 147.507 Q116.332 142.901 122.142 142.901 Z" fill="#000000" fill-rule="evenodd" fill-opacity="1" /><path clip-path="url(#clip060)" d="M143.791 125.097 Q140.857 125.097 139.371 127.993 Q137.904 130.871 137.904 136.663 Q137.904 142.437 139.371 145.334 Q140.857 148.211 143.791 148.211 Q146.744 148.211 148.211 145.334 Q149.697 142.437 149.697 136.663 Q149.697 130.871 148.211 127.993 Q146.744 125.097 143.791 125.097 M143.791 122.087 Q148.512 122.087 150.994 125.83 Q153.496 129.554 153.496 136.663 Q153.496 143.754 150.994 147.497 Q148.512 151.221 143.791 151.221 Q139.07 151.221 136.569 147.497 Q134.086 143.754 134.086 136.663 Q134.086 129.554 136.569 125.83 Q139.07 122.087 143.791 122.087 Z" fill="#000000" fill-rule="evenodd" fill-opacity="1" /><polyline clip-path="url(#clip063)" style="stroke:#009af9; stroke-linecap:butt; stroke-linejoin:round; stroke-width:12; stroke-opacity:1; fill:none" points="
  250.72,87.9763 309.029,153.478 367.338,156.149 425.647,224.674 483.956,306.678 542.265,390.899 600.574,474.062 658.883,555.606 717.191,636.23 775.5,717.642 
  833.809,803.08 892.118,899.609 950.427,1029.99 1008.74,1180.43 1067.04,1091.65 1125.35,1052.06 1183.66,1041.05 1241.97,1041.18 1300.28,1046.86 1358.59,1055.62 
  1416.9,1066.2 1475.21,1077.86 1533.52,1090.15 1591.82,1102.8 1650.13,1115.61 1708.44,1128.46 1766.75,1141.26 1825.06,1153.95 1883.37,1166.5 1941.68,1178.88 
  1999.99,1191.06 2058.3,1203.04 2116.6,1214.8 2174.91,1226.35 2233.22,1237.69 2291.53,1248.82 
  "/>
<circle clip-path="url(#clip063)" cx="250.72" cy="87.9763" r="14.4" fill="#009af9" fill-rule="evenodd" fill-opacity="1" stroke="#000000" stroke-opacity="1" stroke-width="3.2"/>
<circle clip-path="url(#clip063)" cx="309.029" cy="153.478" r="14.4" fill="#009af9" fill-rule="evenodd" fill-opacity="1" stroke="#000000" stroke-opacity="1" stroke-width="3.2"/>
<circle clip-path="url(#clip063)" cx="367.338" cy="156.149" r="14.4" fill="#009af9" fill-rule="evenodd" fill-opacity="1" stroke="#000000" stroke-opacity="1" stroke-width="3.2"/>
<circle clip-path="url(#clip063)" cx="425.647" cy="224.674" r="14.4" fill="#009af9" fill-rule="evenodd" fill-opacity="1" stroke="#000000" stroke-opacity="1" stroke-width="3.2"/>
<circle clip-path="url(#clip063)" cx="483.956" cy="306.678" r="14.4" fill="#009af9" fill-rule="evenodd" fill-opacity="1" stroke="#000000" stroke-opacity="1" stroke-width="3.2"/>
<circle clip-path="url(#clip063)" cx="542.265" cy="390.899" r="14.4" fill="#009af9" fill-rule="evenodd" fill-opacity="1" stroke="#000000" stroke-opacity="1" stroke-width="3.2"/>
<circle clip-path="url(#clip063)" cx="600.574" cy="474.062" r="14.4" fill="#009af9" fill-rule="evenodd" fill-opacity="1" stroke="#000000" stroke-opacity="1" stroke-width="3.2"/>
<circle clip-path="url(#clip063)" cx="658.883" cy="555.606" r="14.4" fill="#009af9" fill-rule="evenodd" fill-opacity="1" stroke="#000000" stroke-opacity="1" stroke-width="3.2"/>
<circle clip-path="url(#clip063)" cx="717.191" cy="636.23" r="14.4" fill="#009af9" fill-rule="evenodd" fill-opacity="1" stroke="#000000" stroke-opacity="1" stroke-width="3.2"/>
<circle clip-path="url(#clip063)" cx="775.5" cy="717.642" r="14.4" fill="#009af9" fill-rule="evenodd" fill-opacity="1" stroke="#000000" stroke-opacity="1" stroke-width="3.2"/>
<circle clip-path="url(#clip063)" cx="833.809" cy="803.08" r="14.4" fill="#009af9" fill-rule="evenodd" fill-opacity="1" stroke="#000000" stroke-opacity="1" stroke-width="3.2"/>
<circle clip-path="url(#clip063)" cx="892.118" cy="899.609" r="14.4" fill="#009af9" fill-rule="evenodd" fill-opacity="1" stroke="#000000" stroke-opacity="1" stroke-width="3.2"/>
<circle clip-path="url(#clip063)" cx="950.427" cy="1029.99" r="14.4" fill="#009af9" fill-rule="evenodd" fill-opacity="1" stroke="#000000" stroke-opacity="1" stroke-width="3.2"/>
<circle clip-path="url(#clip063)" cx="1008.74" cy="1180.43" r="14.4" fill="#009af9" fill-rule="evenodd" fill-opacity="1" stroke="#000000" stroke-opacity="1" stroke-width="3.2"/>
<circle clip-path="url(#clip063)" cx="1067.04" cy="1091.65" r="14.4" fill="#009af9" fill-rule="evenodd" fill-opacity="1" stroke="#000000" stroke-opacity="1" stroke-width="3.2"/>
<circle clip-path="url(#clip063)" cx="1125.35" cy="1052.06" r="14.4" fill="#009af9" fill-rule="evenodd" fill-opacity="1" stroke="#000000" stroke-opacity="1" stroke-width="3.2"/>
<circle clip-path="url(#clip063)" cx="1183.66" cy="1041.05" r="14.4" fill="#009af9" fill-rule="evenodd" fill-opacity="1" stroke="#000000" stroke-opacity="1" stroke-width="3.2"/>
<circle clip-path="url(#clip063)" cx="1241.97" cy="1041.18" r="14.4" fill="#009af9" fill-rule="evenodd" fill-opacity="1" stroke="#000000" stroke-opacity="1" stroke-width="3.2"/>
<circle clip-path="url(#clip063)" cx="1300.28" cy="1046.86" r="14.4" fill="#009af9" fill-rule="evenodd" fill-opacity="1" stroke="#000000" stroke-opacity="1" stroke-width="3.2"/>
<circle clip-path="url(#clip063)" cx="1358.59" cy="1055.62" r="14.4" fill="#009af9" fill-rule="evenodd" fill-opacity="1" stroke="#000000" stroke-opacity="1" stroke-width="3.2"/>
<circle clip-path="url(#clip063)" cx="1416.9" cy="1066.2" r="14.4" fill="#009af9" fill-rule="evenodd" fill-opacity="1" stroke="#000000" stroke-opacity="1" stroke-width="3.2"/>
<circle clip-path="url(#clip063)" cx="1475.21" cy="1077.86" r="14.4" fill="#009af9" fill-rule="evenodd" fill-opacity="1" stroke="#000000" stroke-opacity="1" stroke-width="3.2"/>
<circle clip-path="url(#clip063)" cx="1533.52" cy="1090.15" r="14.4" fill="#009af9" fill-rule="evenodd" fill-opacity="1" stroke="#000000" stroke-opacity="1" stroke-width="3.2"/>
<circle clip-path="url(#clip063)" cx="1591.82" cy="1102.8" r="14.4" fill="#009af9" fill-rule="evenodd" fill-opacity="1" stroke="#000000" stroke-opacity="1" stroke-width="3.2"/>
<circle clip-path="url(#clip063)" cx="1650.13" cy="1115.61" r="14.4" fill="#009af9" fill-rule="evenodd" fill-opacity="1" stroke="#000000" stroke-opacity="1" stroke-width="3.2"/>
<circle clip-path="url(#clip063)" cx="1708.44" cy="1128.46" r="14.4" fill="#009af9" fill-rule="evenodd" fill-opacity="1" stroke="#000000" stroke-opacity="1" stroke-width="3.2"/>
<circle clip-path="url(#clip063)" cx="1766.75" cy="1141.26" r="14.4" fill="#009af9" fill-rule="evenodd" fill-opacity="1" stroke="#000000" stroke-opacity="1" stroke-width="3.2"/>
<circle clip-path="url(#clip063)" cx="1825.06" cy="1153.95" r="14.4" fill="#009af9" fill-rule="evenodd" fill-opacity="1" stroke="#000000" stroke-opacity="1" stroke-width="3.2"/>
<circle clip-path="url(#clip063)" cx="1883.37" cy="1166.5" r="14.4" fill="#009af9" fill-rule="evenodd" fill-opacity="1" stroke="#000000" stroke-opacity="1" stroke-width="3.2"/>
<circle clip-path="url(#clip063)" cx="1941.68" cy="1178.88" r="14.4" fill="#009af9" fill-rule="evenodd" fill-opacity="1" stroke="#000000" stroke-opacity="1" stroke-width="3.2"/>
<circle clip-path="url(#clip063)" cx="1999.99" cy="1191.06" r="14.4" fill="#009af9" fill-rule="evenodd" fill-opacity="1" stroke="#000000" stroke-opacity="1" stroke-width="3.2"/>
<circle clip-path="url(#clip063)" cx="2058.3" cy="1203.04" r="14.4" fill="#009af9" fill-rule="evenodd" fill-opacity="1" stroke="#000000" stroke-opacity="1" stroke-width="3.2"/>
<circle clip-path="url(#clip063)" cx="2116.6" cy="1214.8" r="14.4" fill="#009af9" fill-rule="evenodd" fill-opacity="1" stroke="#000000" stroke-opacity="1" stroke-width="3.2"/>
<circle clip-path="url(#clip063)" cx="2174.91" cy="1226.35" r="14.4" fill="#009af9" fill-rule="evenodd" fill-opacity="1" stroke="#000000" stroke-opacity="1" stroke-width="3.2"/>
<circle clip-path="url(#clip063)" cx="2233.22" cy="1237.69" r="14.4" fill="#009af9" fill-rule="evenodd" fill-opacity="1" stroke="#000000" stroke-opacity="1" stroke-width="3.2"/>
<circle clip-path="url(#clip063)" cx="2291.53" cy="1248.82" r="14.4" fill="#009af9" fill-rule="evenodd" fill-opacity="1" stroke="#000000" stroke-opacity="1" stroke-width="3.2"/>
<polyline clip-path="url(#clip063)" style="stroke:#e26f46; stroke-linecap:butt; stroke-linejoin:round; stroke-width:12; stroke-opacity:1; fill:none" points="
  250.72,342.162 254.042,343.484 257.364,344.791 260.685,346.084 264.007,347.362 271.686,350.265 279.364,353.098 287.042,355.863 294.721,358.564 302.399,361.205 
  310.078,363.786 317.756,366.312 325.435,368.785 333.113,371.206 340.792,373.577 348.47,375.902 356.149,378.181 371.506,382.61 386.863,386.877 396.092,389.369 
  405.32,391.808 414.549,394.197 423.778,396.538 442.236,401.084 460.694,405.46 476.3,409.036 491.905,412.505 507.511,415.874 523.117,419.149 540.069,422.605 
  557.022,425.961 573.974,429.224 590.926,432.398 622.183,438.033 653.44,443.409 686.951,448.909 720.462,454.162 759.287,459.967 798.113,465.496 832.617,470.199 
  867.12,474.72 897.377,478.545 927.633,482.249 960.621,486.157 993.609,489.939 1026.79,493.624 1059.98,497.196 1133.35,504.726 1203.17,511.466 1275.77,518.084 
  1336.87,523.378 1411.48,529.532 1479.82,534.898 1542.95,539.644 1606.89,544.262 1678.54,549.229 1743.48,553.555 1817.82,558.319 1886.66,562.562 1954.53,566.6 
  2020.42,570.391 2087.96,574.154 2161.97,578.142 2269.48,583.702 2291.53,584.811 
  "/>
<polyline clip-path="url(#clip063)" style="stroke:#3da44d; stroke-linecap:butt; stroke-linejoin:round; stroke-width:12; stroke-opacity:1; fill:none" points="
  250.72,529.966 252.381,531.292 254.042,532.61 255.703,533.921 257.364,535.225 259.025,536.521 260.685,537.81 262.346,539.092 264.007,540.367 267.846,543.288 
  271.686,546.173 275.525,549.022 279.364,551.838 283.203,554.619 287.042,557.368 290.882,560.085 294.721,562.771 302.399,568.051 310.078,573.215 317.756,578.266 
  325.435,583.211 333.113,588.053 340.792,592.797 348.47,597.446 356.149,602.004 363.827,606.476 371.506,610.863 379.184,615.169 386.863,619.397 396.092,624.379 
  405.32,629.257 414.549,634.036 423.778,638.718 433.007,643.309 442.236,647.81 451.465,652.227 460.694,656.562 476.3,663.713 491.905,670.652 507.511,677.39 
  523.117,683.939 540.069,690.852 557.022,697.565 573.974,704.09 590.926,710.438 606.555,716.141 622.183,721.709 637.812,727.146 653.44,732.459 686.951,743.461 
  720.462,753.967 759.287,765.576 798.113,776.634 832.617,786.04 867.12,795.082 897.377,802.732 927.633,810.14 993.609,825.521 1059.98,840.033 1133.35,855.093 
  1203.17,868.573 1275.77,881.809 1336.87,892.398 1411.48,904.705 1479.82,915.437 1542.95,924.929 1606.89,934.166 1678.54,944.101 1743.48,952.752 1817.82,962.279 
  1886.66,970.767 1954.53,978.842 2020.42,986.425 2087.96,993.95 2161.97,1001.93 2269.48,1013.05 2291.53,1015.26 
  "/>
<polyline clip-path="url(#clip063)" style="stroke:#c271d2; stroke-linecap:butt; stroke-linejoin:round; stroke-width:12; stroke-opacity:1; fill:none" points="
  250.72,717.77 252.381,719.759 254.042,721.736 255.703,723.702 257.364,725.658 259.025,727.602 260.685,729.536 262.346,731.459 264.007,733.371 267.846,737.753 
  271.686,742.08 275.525,746.355 279.364,750.577 283.203,754.75 287.042,758.873 290.882,762.949 294.721,766.977 298.56,770.96 302.399,774.898 306.239,778.792 
  310.078,782.643 313.917,786.452 317.756,790.221 321.596,793.949 325.435,797.638 333.113,804.901 340.792,812.016 348.47,818.99 356.149,825.828 363.827,832.534 
  371.506,839.115 379.184,845.574 386.863,851.916 396.092,859.389 405.32,866.707 414.549,873.874 423.778,880.898 433.007,887.784 442.236,894.537 451.465,901.162 
  460.694,907.663 476.3,918.391 491.905,928.799 507.511,938.906 523.117,948.73 540.069,959.098 557.022,969.168 573.974,978.956 590.926,988.478 622.183,1005.38 
  653.44,1021.51 686.951,1038.01 720.462,1053.77 759.287,1071.18 798.113,1087.77 867.12,1115.44 927.633,1138.03 993.609,1161.1 1059.98,1182.87 1133.35,1205.46 
  1203.17,1225.68 1275.77,1245.54 1336.87,1261.42 1411.48,1279.88 1479.82,1295.98 1542.95,1310.21 1606.89,1324.07 1678.54,1338.97 1743.48,1351.95 1817.82,1366.24 
  1886.66,1378.97 1954.53,1391.08 2020.42,1402.46 2087.96,1413.75 2161.97,1425.71 2269.48,1442.39 2291.53,1445.72 
  "/>
<path clip-path="url(#clip060)" d="
M1961.82 354.418 L2280.65 354.418 L2280.65 95.2176 L1961.82 95.2176  Z
  " fill="#ffffff" fill-rule="evenodd" fill-opacity="1"/>
<polyline clip-path="url(#clip060)" style="stroke:#000000; stroke-linecap:butt; stroke-linejoin:round; stroke-width:4; stroke-opacity:1; fill:none" points="
  1961.82,354.418 2280.65,354.418 2280.65,95.2176 1961.82,95.2176 1961.82,354.418 
  "/>
<polyline clip-path="url(#clip060)" style="stroke:#009af9; stroke-linecap:butt; stroke-linejoin:round; stroke-width:4; stroke-opacity:1; fill:none" points="
  1985.86,147.058 2130.08,147.058 
  "/>
<circle clip-path="url(#clip060)" cx="2057.97" cy="147.058" r="23.04" fill="#009af9" fill-rule="evenodd" fill-opacity="1" stroke="#000000" stroke-opacity="1" stroke-width="5.12"/>
<path clip-path="url(#clip060)" d="M2167.96 166.745 Q2166.15 171.375 2164.44 172.787 Q2162.72 174.199 2159.85 174.199 L2156.45 174.199 L2156.45 170.634 L2158.95 170.634 Q2160.71 170.634 2161.68 169.8 Q2162.65 168.967 2163.83 165.865 L2164.6 163.921 L2154.11 138.412 L2158.63 138.412 L2166.73 158.689 L2174.83 138.412 L2179.34 138.412 L2167.96 166.745 Z" fill="#000000" fill-rule="evenodd" fill-opacity="1" /><path clip-path="url(#clip060)" d="M2186.64 160.402 L2194.27 160.402 L2194.27 134.037 L2185.96 135.703 L2185.96 131.444 L2194.23 129.778 L2198.9 129.778 L2198.9 160.402 L2206.54 160.402 L2206.54 164.338 L2186.64 164.338 L2186.64 160.402 Z" fill="#000000" fill-rule="evenodd" fill-opacity="1" /><polyline clip-path="url(#clip060)" style="stroke:#e26f46; stroke-linecap:butt; stroke-linejoin:round; stroke-width:4; stroke-opacity:1; fill:none" points="
  1985.86,198.898 2130.08,198.898 
  "/>
<path clip-path="url(#clip060)" d="M2180.11 210.013 Q2180.11 210.201 2179.9 210.927 Q2179.69 211.653 2179.17 212.777 Q2178.68 213.901 2178 214.932 Q2177.32 215.939 2176.2 216.689 Q2175.1 217.415 2173.83 217.415 Q2172.15 217.415 2171.02 216.291 Q2169.9 215.166 2169.9 213.48 Q2169.9 212.543 2170.39 211.255 Q2173.51 202.94 2173.51 200.082 Q2173.51 196.733 2170.91 196.733 Q2169.62 196.733 2168.4 197.225 Q2167.21 197.693 2166.39 198.349 Q2165.57 199.005 2164.82 199.918 Q2164.09 200.808 2163.72 201.417 Q2163.36 202.003 2163.08 202.588 L2162.47 204.977 Q2162.33 205.633 2161.65 208.186 L2160.6 212.519 Q2159.85 215.752 2159.69 216.056 Q2159.45 216.712 2158.94 217.063 Q2158.42 217.415 2157.91 217.415 Q2157.32 217.415 2156.92 217.063 Q2156.53 216.712 2156.53 216.103 Q2156.53 216.009 2156.6 215.658 Q2156.67 215.307 2156.78 214.815 Q2156.9 214.323 2156.95 214.042 L2159.73 202.963 Q2160.25 200.949 2160.37 200.316 Q2160.51 199.661 2160.51 198.934 Q2160.51 196.733 2159.01 196.733 Q2157.79 196.733 2156.99 198.185 Q2156.2 199.637 2155.52 202.448 Q2155.31 203.221 2155.17 203.385 Q2155.05 203.549 2154.7 203.549 Q2154.11 203.525 2154.11 203.057 Q2154.11 202.94 2154.3 202.167 Q2154.49 201.394 2154.84 200.293 Q2155.21 199.169 2155.56 198.419 Q2155.87 197.857 2156.03 197.599 Q2156.22 197.318 2156.67 196.78 Q2157.13 196.217 2157.74 195.96 Q2158.38 195.679 2159.15 195.679 Q2160.88 195.679 2162.15 196.803 Q2163.41 197.904 2163.58 199.848 Q2166.69 195.679 2171.05 195.679 Q2173.62 195.679 2175.1 197.037 Q2176.57 198.396 2176.57 200.808 Q2176.57 201.37 2176.46 202.097 Q2176.36 202.799 2176.13 203.689 Q2175.92 204.579 2175.73 205.259 Q2175.54 205.938 2175.17 207.039 Q2174.79 208.116 2174.63 208.585 Q2174.47 209.053 2174.07 210.154 Q2173.69 211.231 2173.65 211.348 Q2172.78 213.527 2172.78 214.768 Q2172.78 215.588 2173.04 215.963 Q2173.32 216.337 2173.93 216.337 Q2175.57 216.337 2176.79 214.721 Q2178.03 213.082 2178.82 210.411 Q2179.01 209.826 2179.1 209.685 Q2179.22 209.545 2179.55 209.545 Q2180.11 209.545 2180.11 210.013 Z" fill="#000000" fill-rule="evenodd" fill-opacity="1" /><path clip-path="url(#clip060)" d="M2207.13 193.666 Q2207.33 193.863 2207.33 194.142 Q2207.33 194.42 2207.13 194.617 Q2206.94 194.814 2206.66 194.814 L2185.64 194.814 Q2185.36 194.814 2185.16 194.617 Q2184.97 194.42 2184.97 194.142 Q2184.97 193.863 2185.16 193.666 Q2185.36 193.469 2185.64 193.469 L2206.66 193.469 Q2206.94 193.469 2207.13 193.666 Z" fill="#000000" fill-rule="evenodd" fill-opacity="1" /><path clip-path="url(#clip060)" d="M2210.83 183.37 L2210.83 182.32 Q2214.86 182.32 2216.95 180.172 Q2217.52 180.172 2217.62 180.304 Q2217.72 180.435 2217.72 181.041 L2217.72 199.88 Q2217.72 200.88 2218.21 201.192 Q2218.7 201.503 2220.85 201.503 L2221.91 201.503 L2221.91 202.536 Q2220.73 202.438 2216.47 202.438 Q2212.21 202.438 2211.04 202.536 L2211.04 201.503 L2212.11 201.503 Q2214.22 201.503 2214.73 201.208 Q2215.24 200.897 2215.24 199.88 L2215.24 182.484 Q2213.49 183.37 2210.83 183.37 Z" fill="#000000" fill-rule="evenodd" fill-opacity="1" /><polyline clip-path="url(#clip060)" style="stroke:#3da44d; stroke-linecap:butt; stroke-linejoin:round; stroke-width:4; stroke-opacity:1; fill:none" points="
  1985.86,250.738 2130.08,250.738 
  "/>
<path clip-path="url(#clip060)" d="M2180.11 261.853 Q2180.11 262.041 2179.9 262.767 Q2179.69 263.493 2179.17 264.617 Q2178.68 265.741 2178 266.772 Q2177.32 267.779 2176.2 268.529 Q2175.1 269.255 2173.83 269.255 Q2172.15 269.255 2171.02 268.131 Q2169.9 267.006 2169.9 265.32 Q2169.9 264.383 2170.39 263.095 Q2173.51 254.78 2173.51 251.922 Q2173.51 248.573 2170.91 248.573 Q2169.62 248.573 2168.4 249.065 Q2167.21 249.533 2166.39 250.189 Q2165.57 250.845 2164.82 251.758 Q2164.09 252.648 2163.72 253.257 Q2163.36 253.843 2163.08 254.428 L2162.47 256.817 Q2162.33 257.473 2161.65 260.026 L2160.6 264.359 Q2159.85 267.592 2159.69 267.896 Q2159.45 268.552 2158.94 268.903 Q2158.42 269.255 2157.91 269.255 Q2157.32 269.255 2156.92 268.903 Q2156.53 268.552 2156.53 267.943 Q2156.53 267.849 2156.6 267.498 Q2156.67 267.147 2156.78 266.655 Q2156.9 266.163 2156.95 265.882 L2159.73 254.803 Q2160.25 252.789 2160.37 252.156 Q2160.51 251.501 2160.51 250.774 Q2160.51 248.573 2159.01 248.573 Q2157.79 248.573 2156.99 250.025 Q2156.2 251.477 2155.52 254.288 Q2155.31 255.061 2155.17 255.225 Q2155.05 255.389 2154.7 255.389 Q2154.11 255.365 2154.11 254.897 Q2154.11 254.78 2154.3 254.007 Q2154.49 253.234 2154.84 252.133 Q2155.21 251.009 2155.56 250.259 Q2155.87 249.697 2156.03 249.439 Q2156.22 249.158 2156.67 248.62 Q2157.13 248.057 2157.74 247.8 Q2158.38 247.519 2159.15 247.519 Q2160.88 247.519 2162.15 248.643 Q2163.41 249.744 2163.58 251.688 Q2166.69 247.519 2171.05 247.519 Q2173.62 247.519 2175.1 248.877 Q2176.57 250.236 2176.57 252.648 Q2176.57 253.21 2176.46 253.937 Q2176.36 254.639 2176.13 255.529 Q2175.92 256.419 2175.73 257.099 Q2175.54 257.778 2175.17 258.879 Q2174.79 259.956 2174.63 260.425 Q2174.47 260.893 2174.07 261.994 Q2173.69 263.071 2173.65 263.188 Q2172.78 265.367 2172.78 266.608 Q2172.78 267.428 2173.04 267.803 Q2173.32 268.177 2173.93 268.177 Q2175.57 268.177 2176.79 266.561 Q2178.03 264.922 2178.82 262.251 Q2179.01 261.666 2179.1 261.525 Q2179.22 261.385 2179.55 261.385 Q2180.11 261.385 2180.11 261.853 Z" fill="#000000" fill-rule="evenodd" fill-opacity="1" /><path clip-path="url(#clip060)" d="M2207.13 245.506 Q2207.33 245.703 2207.33 245.982 Q2207.33 246.26 2207.13 246.457 Q2206.94 246.654 2206.66 246.654 L2185.64 246.654 Q2185.36 246.654 2185.16 246.457 Q2184.97 246.26 2184.97 245.982 Q2184.97 245.703 2185.16 245.506 Q2185.36 245.309 2185.64 245.309 L2206.66 245.309 Q2206.94 245.309 2207.13 245.506 Z" fill="#000000" fill-rule="evenodd" fill-opacity="1" /><path clip-path="url(#clip060)" d="M2210.83 254.376 Q2210.83 253.77 2210.88 253.589 Q2210.94 253.409 2211.21 253.13 L2217.65 245.949 Q2221.18 241.981 2221.18 238.522 Q2221.18 236.275 2219.99 234.669 Q2218.83 233.062 2216.68 233.062 Q2215.21 233.062 2213.96 233.964 Q2212.72 234.865 2212.14 236.472 Q2212.24 236.439 2212.58 236.439 Q2213.42 236.439 2213.88 236.964 Q2214.35 237.489 2214.35 238.194 Q2214.35 239.095 2213.76 239.538 Q2213.19 239.964 2212.62 239.964 Q2212.39 239.964 2212.08 239.915 Q2211.78 239.866 2211.31 239.407 Q2210.83 238.931 2210.83 238.095 Q2210.83 235.751 2212.6 233.882 Q2214.39 232.012 2217.11 232.012 Q2220.19 232.012 2222.21 233.849 Q2224.24 235.669 2224.24 238.522 Q2224.24 239.522 2223.93 240.44 Q2223.63 241.342 2223.22 242.047 Q2222.83 242.752 2221.75 243.883 Q2220.67 245.014 2219.8 245.818 Q2218.93 246.621 2216.98 248.326 L2213.42 251.786 L2219.47 251.786 Q2222.42 251.786 2222.65 251.523 Q2222.98 251.048 2223.39 248.539 L2224.24 248.539 L2223.29 254.376 L2210.83 254.376 Z" fill="#000000" fill-rule="evenodd" fill-opacity="1" /><polyline clip-path="url(#clip060)" style="stroke:#c271d2; stroke-linecap:butt; stroke-linejoin:round; stroke-width:4; stroke-opacity:1; fill:none" points="
  1985.86,302.578 2130.08,302.578 
  "/>
<path clip-path="url(#clip060)" d="M2180.11 314.06 Q2180.11 314.247 2179.9 314.973 Q2179.69 315.699 2179.17 316.824 Q2178.68 317.948 2178 318.978 Q2177.32 319.986 2176.2 320.735 Q2175.1 321.461 2173.83 321.461 Q2172.15 321.461 2171.02 320.337 Q2169.9 319.213 2169.9 317.526 Q2169.9 316.589 2170.39 315.301 Q2173.51 306.986 2173.51 304.129 Q2173.51 300.779 2170.91 300.779 Q2169.62 300.779 2168.4 301.271 Q2167.21 301.739 2166.39 302.395 Q2165.57 303.051 2164.82 303.965 Q2164.09 304.855 2163.72 305.464 Q2163.36 306.049 2163.08 306.635 L2162.47 309.024 Q2162.33 309.68 2161.65 312.233 L2160.6 316.566 Q2159.85 319.798 2159.69 320.103 Q2159.45 320.759 2158.94 321.11 Q2158.42 321.461 2157.91 321.461 Q2157.32 321.461 2156.92 321.11 Q2156.53 320.759 2156.53 320.15 Q2156.53 320.056 2156.6 319.705 Q2156.67 319.353 2156.78 318.861 Q2156.9 318.369 2156.95 318.088 L2159.73 307.01 Q2160.25 304.995 2160.37 304.363 Q2160.51 303.707 2160.51 302.981 Q2160.51 300.779 2159.01 300.779 Q2157.79 300.779 2156.99 302.231 Q2156.2 303.684 2155.52 306.494 Q2155.31 307.267 2155.17 307.431 Q2155.05 307.595 2154.7 307.595 Q2154.11 307.572 2154.11 307.103 Q2154.11 306.986 2154.3 306.213 Q2154.49 305.44 2154.84 304.339 Q2155.21 303.215 2155.56 302.466 Q2155.87 301.903 2156.03 301.646 Q2156.22 301.365 2156.67 300.826 Q2157.13 300.264 2157.74 300.006 Q2158.38 299.725 2159.15 299.725 Q2160.88 299.725 2162.15 300.849 Q2163.41 301.95 2163.58 303.894 Q2166.69 299.725 2171.05 299.725 Q2173.62 299.725 2175.1 301.084 Q2176.57 302.442 2176.57 304.855 Q2176.57 305.417 2176.46 306.143 Q2176.36 306.846 2176.13 307.736 Q2175.92 308.626 2175.73 309.305 Q2175.54 309.984 2175.17 311.085 Q2174.79 312.162 2174.63 312.631 Q2174.47 313.099 2174.07 314.2 Q2173.69 315.278 2173.65 315.395 Q2172.78 317.573 2172.78 318.814 Q2172.78 319.634 2173.04 320.009 Q2173.32 320.384 2173.93 320.384 Q2175.57 320.384 2176.79 318.768 Q2178.03 317.128 2178.82 314.458 Q2179.01 313.872 2179.1 313.732 Q2179.22 313.591 2179.55 313.591 Q2180.11 313.591 2180.11 314.06 Z" fill="#000000" fill-rule="evenodd" fill-opacity="1" /><path clip-path="url(#clip060)" d="M2207.13 296.98 Q2207.33 297.176 2207.33 297.455 Q2207.33 297.734 2207.13 297.931 Q2206.94 298.127 2206.66 298.127 L2185.64 298.127 Q2185.36 298.127 2185.16 297.931 Q2184.97 297.734 2184.97 297.455 Q2184.97 297.176 2185.16 296.98 Q2185.36 296.783 2185.64 296.783 L2206.66 296.783 Q2206.94 296.783 2207.13 296.98 Z" fill="#000000" fill-rule="evenodd" fill-opacity="1" /><path clip-path="url(#clip060)" d="M2210.83 301.325 Q2210.83 300.324 2211.4 299.849 Q2211.98 299.374 2212.72 299.374 Q2213.49 299.374 2214.03 299.882 Q2214.58 300.374 2214.58 301.243 Q2214.58 302.177 2213.93 302.702 Q2213.29 303.227 2212.37 303.095 Q2213.17 304.44 2214.65 305.046 Q2216.14 305.653 2217.52 305.653 Q2218.96 305.653 2220.13 304.407 Q2221.31 303.161 2221.31 300.111 Q2221.31 297.521 2220.29 296.029 Q2219.29 294.537 2217.31 294.537 L2215.83 294.537 Q2215.32 294.537 2215.17 294.488 Q2215.03 294.438 2215.03 294.16 Q2215.03 293.832 2215.54 293.766 Q2216.04 293.766 2216.85 293.668 Q2218.8 293.602 2219.83 291.913 Q2220.77 290.339 2220.77 288.093 Q2220.77 286.044 2219.78 285.191 Q2218.81 284.322 2217.55 284.322 Q2216.37 284.322 2215.08 284.814 Q2213.78 285.306 2213.08 286.405 Q2215.16 286.405 2215.16 288.093 Q2215.16 288.831 2214.68 289.323 Q2214.22 289.798 2213.45 289.798 Q2212.72 289.798 2212.22 289.339 Q2211.73 288.864 2211.73 288.06 Q2211.73 286.142 2213.44 284.814 Q2215.16 283.486 2217.68 283.486 Q2220.18 283.486 2222.01 284.798 Q2223.86 286.109 2223.86 288.126 Q2223.86 290.11 2222.55 291.733 Q2221.24 293.356 2219.16 294.029 Q2221.72 294.537 2223.24 296.275 Q2224.77 297.996 2224.77 300.111 Q2224.77 302.735 2222.7 304.669 Q2220.63 306.588 2217.62 306.588 Q2214.83 306.588 2212.83 305.079 Q2210.83 303.571 2210.83 301.325 Z" fill="#000000" fill-rule="evenodd" fill-opacity="1" /></svg>
