<?xml version="1.0" encoding="utf-8"?>
<svg xmlns="http://www.w3.org/2000/svg" xmlns:xlink="http://www.w3.org/1999/xlink" width="600" height="400" viewBox="0 0 2400 1600">
<defs>
  <clipPath id="clip600">
    <rect x="0" y="0" width="2400" height="1600"/>
  </clipPath>
</defs>
<path clip-path="url(#clip600)" d="
M0 1600 L2400 1600 L2400 0 L0 0  Z
  " fill="#ffffff" fill-rule="evenodd" fill-opacity="1"/>
<defs>
  <clipPath id="clip601">
    <rect x="480" y="0" width="1681" height="1600"/>
  </clipPath>
</defs>
<path clip-path="url(#clip600)" d="
M223.103 1486.45 L2352.76 1486.45 L2352.76 123.472 L223.103 123.472  Z
  " fill="#ffffff" fill-rule="evenodd" fill-opacity="1"/>
<defs>
  <clipPath id="clip602">
    <rect x="223" y="123" width="2131" height="1364"/>
  </clipPath>
</defs>
<polyline clip-path="url(#clip602)" style="stroke:#000000; stroke-linecap:butt; stroke-linejoin:round; stroke-width:2; stroke-opacity:0.1; fill:none" points="
  223.103,1486.45 223.103,123.472 
  "/>
<polyline clip-path="url(#clip602)" style="stroke:#000000; stroke-linecap:butt; stroke-linejoin:round; stroke-width:2; stroke-opacity:0.1; fill:none" points="
  755.516,1486.45 755.516,123.472 
  "/>
<polyline clip-path="url(#clip602)" style="stroke:#000000; stroke-linecap:butt; stroke-linejoin:round; stroke-width:2; stroke-opacity:0.1; fill:none" points="
  1287.93,1486.45 1287.93,123.472 
  "/>
<polyline clip-path="url(#clip602)" style="stroke:#000000; stroke-linecap:butt; stroke-linejoin:round; stroke-width:2; stroke-opacity:0.1; fill:none" points="
  1820.34,1486.45 1820.34,123.472 
  "/>
<polyline clip-path="url(#clip602)" style="stroke:#000000; stroke-linecap:butt; stroke-linejoin:round; stroke-width:2; stroke-opacity:0.1; fill:none" points="
  2352.76,1486.45 2352.76,123.472 
  "/>
<polyline clip-path="url(#clip600)" style="stroke:#000000; stroke-linecap:butt; stroke-linejoin:round; stroke-width:4; stroke-opacity:1; fill:none" points="
  223.103,1486.45 2352.76,1486.45 
  "/>
<polyline clip-path="url(#clip600)" style="stroke:#000000; stroke-linecap:butt; stroke-linejoin:round; stroke-width:4; stroke-opacity:1; fill:none" points="
  223.103,1486.45 223.103,1467.55 
  "/>
<polyline clip-path="url(#clip600)" style="stroke:#000000; stroke-linecap:butt; stroke-linejoin:round; stroke-width:4; stroke-opacity:1; fill:none" points="
  755.516,1486.45 755.516,1467.55 
  "/>
<polyline clip-path="url(#clip600)" style="stroke:#000000; stroke-linecap:butt; stroke-linejoin:round; stroke-width:4; stroke-opacity:1; fill:none" points="
  1287.93,1486.45 1287.93,1467.55 
  "/>
<polyline clip-path="url(#clip600)" style="stroke:#000000; stroke-linecap:butt; stroke-linejoin:round; stroke-width:4; stroke-opacity:1; fill:none" points="
  1820.34,1486.45 1820.34,1467.55 
  "/>
<polyline clip-path="url(#clip600)" style="stroke:#000000; stroke-linecap:butt; stroke-linejoin:round; stroke-width:4; stroke-opacity:1; fill:none" points="
  2352.76,1486.45 2352.76,1467.55 
  "/>
<path clip-path="url(#clip600)" d="M169.631 1532.02 L199.306 1532.02 L199.306 1535.95 L169.631 1535.95 L169.631 1532.02 Z" fill="#000000" fill-rule="evenodd" fill-opacity="1" /><path clip-path="url(#clip600)" d="M210.209 1544.91 L217.848 1544.91 L217.848 1518.55 L209.538 1520.21 L209.538 1515.95 L217.802 1514.29 L222.478 1514.29 L222.478 1544.91 L230.116 1544.91 L230.116 1548.85 L210.209 1548.85 L210.209 1544.91 Z" fill="#000000" fill-rule="evenodd" fill-opacity="1" /><path clip-path="url(#clip600)" d="M239.561 1542.97 L244.445 1542.97 L244.445 1548.85 L239.561 1548.85 L239.561 1542.97 Z" fill="#000000" fill-rule="evenodd" fill-opacity="1" /><path clip-path="url(#clip600)" d="M264.63 1517.37 Q261.019 1517.37 259.19 1520.93 Q257.385 1524.47 257.385 1531.6 Q257.385 1538.71 259.19 1542.27 Q261.019 1545.82 264.63 1545.82 Q268.264 1545.82 270.07 1542.27 Q271.899 1538.71 271.899 1531.6 Q271.899 1524.47 270.07 1520.93 Q268.264 1517.37 264.63 1517.37 M264.63 1513.66 Q270.44 1513.66 273.496 1518.27 Q276.574 1522.85 276.574 1531.6 Q276.574 1540.33 273.496 1544.94 Q270.44 1549.52 264.63 1549.52 Q258.82 1549.52 255.741 1544.94 Q252.686 1540.33 252.686 1531.6 Q252.686 1522.85 255.741 1518.27 Q258.82 1513.66 264.63 1513.66 Z" fill="#000000" fill-rule="evenodd" fill-opacity="1" /><path clip-path="url(#clip600)" d="M702.542 1532.02 L732.217 1532.02 L732.217 1535.95 L702.542 1535.95 L702.542 1532.02 Z" fill="#000000" fill-rule="evenodd" fill-opacity="1" /><path clip-path="url(#clip600)" d="M752.31 1517.37 Q748.699 1517.37 746.87 1520.93 Q745.065 1524.47 745.065 1531.6 Q745.065 1538.71 746.87 1542.27 Q748.699 1545.82 752.31 1545.82 Q755.944 1545.82 757.75 1542.27 Q759.578 1538.71 759.578 1531.6 Q759.578 1524.47 757.75 1520.93 Q755.944 1517.37 752.31 1517.37 M752.31 1513.66 Q758.12 1513.66 761.176 1518.27 Q764.254 1522.85 764.254 1531.6 Q764.254 1540.33 761.176 1544.94 Q758.12 1549.52 752.31 1549.52 Q746.5 1549.52 743.421 1544.94 Q740.365 1540.33 740.365 1531.6 Q740.365 1522.85 743.421 1518.27 Q746.5 1513.66 752.31 1513.66 Z" fill="#000000" fill-rule="evenodd" fill-opacity="1" /><path clip-path="url(#clip600)" d="M772.472 1542.97 L777.356 1542.97 L777.356 1548.85 L772.472 1548.85 L772.472 1542.97 Z" fill="#000000" fill-rule="evenodd" fill-opacity="1" /><path clip-path="url(#clip600)" d="M787.587 1514.29 L805.944 1514.29 L805.944 1518.22 L791.87 1518.22 L791.87 1526.7 Q792.888 1526.35 793.907 1526.19 Q794.925 1526 795.944 1526 Q801.731 1526 805.11 1529.17 Q808.49 1532.34 808.49 1537.76 Q808.49 1543.34 805.018 1546.44 Q801.546 1549.52 795.226 1549.52 Q793.05 1549.52 790.782 1549.15 Q788.537 1548.78 786.129 1548.04 L786.129 1543.34 Q788.212 1544.47 790.435 1545.03 Q792.657 1545.58 795.134 1545.58 Q799.138 1545.58 801.476 1543.48 Q803.814 1541.37 803.814 1537.76 Q803.814 1534.15 801.476 1532.04 Q799.138 1529.94 795.134 1529.94 Q793.259 1529.94 791.384 1530.35 Q789.532 1530.77 787.587 1531.65 L787.587 1514.29 Z" fill="#000000" fill-rule="evenodd" fill-opacity="1" /><path clip-path="url(#clip600)" d="M1265.31 1517.37 Q1261.7 1517.37 1259.87 1520.93 Q1258.07 1524.47 1258.07 1531.6 Q1258.07 1538.71 1259.87 1542.27 Q1261.7 1545.82 1265.31 1545.82 Q1268.95 1545.82 1270.75 1542.27 Q1272.58 1538.71 1272.58 1531.6 Q1272.58 1524.47 1270.75 1520.93 Q1268.95 1517.37 1265.31 1517.37 M1265.31 1513.66 Q1271.12 1513.66 1274.18 1518.27 Q1277.26 1522.85 1277.26 1531.6 Q1277.26 1540.33 1274.18 1544.94 Q1271.12 1549.52 1265.31 1549.52 Q1259.5 1549.52 1256.42 1544.94 Q1253.37 1540.33 1253.37 1531.6 Q1253.37 1522.85 1256.42 1518.27 Q1259.5 1513.66 1265.31 1513.66 Z" fill="#000000" fill-rule="evenodd" fill-opacity="1" /><path clip-path="url(#clip600)" d="M1285.48 1542.97 L1290.36 1542.97 L1290.36 1548.85 L1285.48 1548.85 L1285.48 1542.97 Z" fill="#000000" fill-rule="evenodd" fill-opacity="1" /><path clip-path="url(#clip600)" d="M1310.54 1517.37 Q1306.93 1517.37 1305.11 1520.93 Q1303.3 1524.47 1303.3 1531.6 Q1303.3 1538.71 1305.11 1542.27 Q1306.93 1545.82 1310.54 1545.82 Q1314.18 1545.82 1315.98 1542.27 Q1317.81 1538.71 1317.81 1531.6 Q1317.81 1524.47 1315.98 1520.93 Q1314.18 1517.37 1310.54 1517.37 M1310.54 1513.66 Q1316.35 1513.66 1319.41 1518.27 Q1322.49 1522.85 1322.49 1531.6 Q1322.49 1540.33 1319.41 1544.94 Q1316.35 1549.52 1310.54 1549.52 Q1304.73 1549.52 1301.66 1544.94 Q1298.6 1540.33 1298.6 1531.6 Q1298.6 1522.85 1301.66 1518.27 Q1304.73 1513.66 1310.54 1513.66 Z" fill="#000000" fill-rule="evenodd" fill-opacity="1" /><path clip-path="url(#clip600)" d="M1798.22 1517.37 Q1794.61 1517.37 1792.78 1520.93 Q1790.98 1524.47 1790.98 1531.6 Q1790.98 1538.71 1792.78 1542.27 Q1794.61 1545.82 1798.22 1545.82 Q1801.86 1545.82 1803.66 1542.27 Q1805.49 1538.71 1805.49 1531.6 Q1805.49 1524.47 1803.66 1520.93 Q1801.86 1517.37 1798.22 1517.37 M1798.22 1513.66 Q1804.03 1513.66 1807.09 1518.27 Q1810.17 1522.85 1810.17 1531.6 Q1810.17 1540.33 1807.09 1544.94 Q1804.03 1549.52 1798.22 1549.52 Q1792.41 1549.52 1789.34 1544.94 Q1786.28 1540.33 1786.28 1531.6 Q1786.28 1522.85 1789.34 1518.27 Q1792.41 1513.66 1798.22 1513.66 Z" fill="#000000" fill-rule="evenodd" fill-opacity="1" /><path clip-path="url(#clip600)" d="M1818.39 1542.97 L1823.27 1542.97 L1823.27 1548.85 L1818.39 1548.85 L1818.39 1542.97 Z" fill="#000000" fill-rule="evenodd" fill-opacity="1" /><path clip-path="url(#clip600)" d="M1833.5 1514.29 L1851.86 1514.29 L1851.86 1518.22 L1837.78 1518.22 L1837.78 1526.7 Q1838.8 1526.35 1839.82 1526.19 Q1840.84 1526 1841.86 1526 Q1847.65 1526 1851.03 1529.17 Q1854.4 1532.34 1854.4 1537.76 Q1854.4 1543.34 1850.93 1546.44 Q1847.46 1549.52 1841.14 1549.52 Q1838.97 1549.52 1836.7 1549.15 Q1834.45 1548.78 1832.04 1548.04 L1832.04 1543.34 Q1834.13 1544.47 1836.35 1545.03 Q1838.57 1545.58 1841.05 1545.58 Q1845.05 1545.58 1847.39 1543.48 Q1849.73 1541.37 1849.73 1537.76 Q1849.73 1534.15 1847.39 1532.04 Q1845.05 1529.94 1841.05 1529.94 Q1839.17 1529.94 1837.3 1530.35 Q1835.45 1530.77 1833.5 1531.65 L1833.5 1514.29 Z" fill="#000000" fill-rule="evenodd" fill-opacity="1" /><path clip-path="url(#clip600)" d="M2319.91 1544.91 L2327.55 1544.91 L2327.55 1518.55 L2319.24 1520.21 L2319.24 1515.95 L2327.5 1514.29 L2332.18 1514.29 L2332.18 1544.91 L2339.82 1544.91 L2339.82 1548.85 L2319.91 1548.85 L2319.91 1544.91 Z" fill="#000000" fill-rule="evenodd" fill-opacity="1" /><path clip-path="url(#clip600)" d="M2349.26 1542.97 L2354.14 1542.97 L2354.14 1548.85 L2349.26 1548.85 L2349.26 1542.97 Z" fill="#000000" fill-rule="evenodd" fill-opacity="1" /><path clip-path="url(#clip600)" d="M2374.33 1517.37 Q2370.72 1517.37 2368.89 1520.93 Q2367.08 1524.47 2367.08 1531.6 Q2367.08 1538.71 2368.89 1542.27 Q2370.72 1545.82 2374.33 1545.82 Q2377.96 1545.82 2379.77 1542.27 Q2381.6 1538.71 2381.6 1531.6 Q2381.6 1524.47 2379.77 1520.93 Q2377.96 1517.37 2374.33 1517.37 M2374.33 1513.66 Q2380.14 1513.66 2383.2 1518.27 Q2386.27 1522.85 2386.27 1531.6 Q2386.27 1540.33 2383.2 1544.94 Q2380.14 1549.52 2374.33 1549.52 Q2368.52 1549.52 2365.44 1544.94 Q2362.39 1540.33 2362.39 1531.6 Q2362.39 1522.85 2365.44 1518.27 Q2368.52 1513.66 2374.33 1513.66 Z" fill="#000000" fill-rule="evenodd" fill-opacity="1" /><polyline clip-path="url(#clip602)" style="stroke:#000000; stroke-linecap:butt; stroke-linejoin:round; stroke-width:2; stroke-opacity:0.1; fill:none" points="
  223.103,1328.92 2352.76,1328.92 
  "/>
<polyline clip-path="url(#clip602)" style="stroke:#000000; stroke-linecap:butt; stroke-linejoin:round; stroke-width:2; stroke-opacity:0.1; fill:none" points="
  223.103,1137.41 2352.76,1137.41 
  "/>
<polyline clip-path="url(#clip602)" style="stroke:#000000; stroke-linecap:butt; stroke-linejoin:round; stroke-width:2; stroke-opacity:0.1; fill:none" points="
  223.103,945.898 2352.76,945.898 
  "/>
<polyline clip-path="url(#clip602)" style="stroke:#000000; stroke-linecap:butt; stroke-linejoin:round; stroke-width:2; stroke-opacity:0.1; fill:none" points="
  223.103,754.386 2352.76,754.386 
  "/>
<polyline clip-path="url(#clip602)" style="stroke:#000000; stroke-linecap:butt; stroke-linejoin:round; stroke-width:2; stroke-opacity:0.1; fill:none" points="
  223.103,562.874 2352.76,562.874 
  "/>
<polyline clip-path="url(#clip602)" style="stroke:#000000; stroke-linecap:butt; stroke-linejoin:round; stroke-width:2; stroke-opacity:0.1; fill:none" points="
  223.103,371.362 2352.76,371.362 
  "/>
<polyline clip-path="url(#clip602)" style="stroke:#000000; stroke-linecap:butt; stroke-linejoin:round; stroke-width:2; stroke-opacity:0.1; fill:none" points="
  223.103,179.85 2352.76,179.85 
  "/>
<polyline clip-path="url(#clip600)" style="stroke:#000000; stroke-linecap:butt; stroke-linejoin:round; stroke-width:4; stroke-opacity:1; fill:none" points="
  223.103,1486.45 223.103,123.472 
  "/>
<polyline clip-path="url(#clip600)" style="stroke:#000000; stroke-linecap:butt; stroke-linejoin:round; stroke-width:4; stroke-opacity:1; fill:none" points="
  223.103,1328.92 242,1328.92 
  "/>
<polyline clip-path="url(#clip600)" style="stroke:#000000; stroke-linecap:butt; stroke-linejoin:round; stroke-width:4; stroke-opacity:1; fill:none" points="
  223.103,1137.41 242,1137.41 
  "/>
<polyline clip-path="url(#clip600)" style="stroke:#000000; stroke-linecap:butt; stroke-linejoin:round; stroke-width:4; stroke-opacity:1; fill:none" points="
  223.103,945.898 242,945.898 
  "/>
<polyline clip-path="url(#clip600)" style="stroke:#000000; stroke-linecap:butt; stroke-linejoin:round; stroke-width:4; stroke-opacity:1; fill:none" points="
  223.103,754.386 242,754.386 
  "/>
<polyline clip-path="url(#clip600)" style="stroke:#000000; stroke-linecap:butt; stroke-linejoin:round; stroke-width:4; stroke-opacity:1; fill:none" points="
  223.103,562.874 242,562.874 
  "/>
<polyline clip-path="url(#clip600)" style="stroke:#000000; stroke-linecap:butt; stroke-linejoin:round; stroke-width:4; stroke-opacity:1; fill:none" points="
  223.103,371.362 242,371.362 
  "/>
<polyline clip-path="url(#clip600)" style="stroke:#000000; stroke-linecap:butt; stroke-linejoin:round; stroke-width:4; stroke-opacity:1; fill:none" points="
  223.103,179.85 242,179.85 
  "/>
<path clip-path="url(#clip600)" d="M50.9921 1329.37 L80.6679 1329.37 L80.6679 1333.31 L50.9921 1333.31 L50.9921 1329.37 Z" fill="#000000" fill-rule="evenodd" fill-opacity="1" /><path clip-path="url(#clip600)" d="M100.76 1314.72 Q97.1493 1314.72 95.3206 1318.29 Q93.515 1321.83 93.515 1328.96 Q93.515 1336.06 95.3206 1339.63 Q97.1493 1343.17 100.76 1343.17 Q104.395 1343.17 106.2 1339.63 Q108.029 1336.06 108.029 1328.96 Q108.029 1321.83 106.2 1318.29 Q104.395 1314.72 100.76 1314.72 M100.76 1311.02 Q106.571 1311.02 109.626 1315.62 Q112.705 1320.21 112.705 1328.96 Q112.705 1337.68 109.626 1342.29 Q106.571 1346.87 100.76 1346.87 Q94.9502 1346.87 91.8715 1342.29 Q88.816 1337.68 88.816 1328.96 Q88.816 1320.21 91.8715 1315.62 Q94.9502 1311.02 100.76 1311.02 Z" fill="#000000" fill-rule="evenodd" fill-opacity="1" /><path clip-path="url(#clip600)" d="M120.922 1340.32 L125.807 1340.32 L125.807 1346.2 L120.922 1346.2 L120.922 1340.32 Z" fill="#000000" fill-rule="evenodd" fill-opacity="1" /><path clip-path="url(#clip600)" d="M140.019 1342.27 L156.339 1342.27 L156.339 1346.2 L134.394 1346.2 L134.394 1342.27 Q137.056 1339.51 141.64 1334.88 Q146.246 1330.23 147.427 1328.89 Q149.672 1326.36 150.552 1324.63 Q151.455 1322.87 151.455 1321.18 Q151.455 1318.42 149.51 1316.69 Q147.589 1314.95 144.487 1314.95 Q142.288 1314.95 139.834 1315.72 Q137.404 1316.48 134.626 1318.03 L134.626 1313.31 Q137.45 1312.17 139.904 1311.6 Q142.357 1311.02 144.394 1311.02 Q149.765 1311.02 152.959 1313.7 Q156.154 1316.39 156.154 1320.88 Q156.154 1323.01 155.343 1324.93 Q154.556 1326.83 152.45 1329.42 Q151.871 1330.09 148.769 1333.31 Q145.668 1336.5 140.019 1342.27 Z" fill="#000000" fill-rule="evenodd" fill-opacity="1" /><path clip-path="url(#clip600)" d="M166.2 1311.64 L184.556 1311.64 L184.556 1315.58 L170.482 1315.58 L170.482 1324.05 Q171.501 1323.7 172.519 1323.54 Q173.538 1323.36 174.556 1323.36 Q180.343 1323.36 183.723 1326.53 Q187.103 1329.7 187.103 1335.11 Q187.103 1340.69 183.63 1343.8 Q180.158 1346.87 173.839 1346.87 Q171.663 1346.87 169.394 1346.5 Q167.149 1346.13 164.742 1345.39 L164.742 1340.69 Q166.825 1341.83 169.047 1342.38 Q171.269 1342.94 173.746 1342.94 Q177.751 1342.94 180.089 1340.83 Q182.427 1338.73 182.427 1335.11 Q182.427 1331.5 180.089 1329.4 Q177.751 1327.29 173.746 1327.29 Q171.871 1327.29 169.996 1327.71 Q168.144 1328.12 166.2 1329 L166.2 1311.64 Z" fill="#000000" fill-rule="evenodd" fill-opacity="1" /><path clip-path="url(#clip600)" d="M99.765 1123.21 Q96.1539 1123.21 94.3252 1126.77 Q92.5197 1130.32 92.5197 1137.45 Q92.5197 1144.55 94.3252 1148.12 Q96.1539 1151.66 99.765 1151.66 Q103.399 1151.66 105.205 1148.12 Q107.033 1144.55 107.033 1137.45 Q107.033 1130.32 105.205 1126.77 Q103.399 1123.21 99.765 1123.21 M99.765 1119.51 Q105.575 1119.51 108.631 1124.11 Q111.709 1128.7 111.709 1137.45 Q111.709 1146.17 108.631 1150.78 Q105.575 1155.36 99.765 1155.36 Q93.9549 1155.36 90.8762 1150.78 Q87.8206 1146.17 87.8206 1137.45 Q87.8206 1128.7 90.8762 1124.11 Q93.9549 1119.51 99.765 1119.51 Z" fill="#000000" fill-rule="evenodd" fill-opacity="1" /><path clip-path="url(#clip600)" d="M119.927 1148.81 L124.811 1148.81 L124.811 1154.69 L119.927 1154.69 L119.927 1148.81 Z" fill="#000000" fill-rule="evenodd" fill-opacity="1" /><path clip-path="url(#clip600)" d="M144.996 1123.21 Q141.385 1123.21 139.556 1126.77 Q137.751 1130.32 137.751 1137.45 Q137.751 1144.55 139.556 1148.12 Q141.385 1151.66 144.996 1151.66 Q148.63 1151.66 150.436 1148.12 Q152.265 1144.55 152.265 1137.45 Q152.265 1130.32 150.436 1126.77 Q148.63 1123.21 144.996 1123.21 M144.996 1119.51 Q150.806 1119.51 153.862 1124.11 Q156.941 1128.7 156.941 1137.45 Q156.941 1146.17 153.862 1150.78 Q150.806 1155.36 144.996 1155.36 Q139.186 1155.36 136.107 1150.78 Q133.052 1146.17 133.052 1137.45 Q133.052 1128.7 136.107 1124.11 Q139.186 1119.51 144.996 1119.51 Z" fill="#000000" fill-rule="evenodd" fill-opacity="1" /><path clip-path="url(#clip600)" d="M175.158 1123.21 Q171.547 1123.21 169.718 1126.77 Q167.913 1130.32 167.913 1137.45 Q167.913 1144.55 169.718 1148.12 Q171.547 1151.66 175.158 1151.66 Q178.792 1151.66 180.598 1148.12 Q182.427 1144.55 182.427 1137.45 Q182.427 1130.32 180.598 1126.77 Q178.792 1123.21 175.158 1123.21 M175.158 1119.51 Q180.968 1119.51 184.024 1124.11 Q187.103 1128.7 187.103 1137.45 Q187.103 1146.17 184.024 1150.78 Q180.968 1155.36 175.158 1155.36 Q169.348 1155.36 166.269 1150.78 Q163.214 1146.17 163.214 1137.45 Q163.214 1128.7 166.269 1124.11 Q169.348 1119.51 175.158 1119.51 Z" fill="#000000" fill-rule="evenodd" fill-opacity="1" /><path clip-path="url(#clip600)" d="M100.76 931.697 Q97.1493 931.697 95.3206 935.262 Q93.515 938.803 93.515 945.933 Q93.515 953.039 95.3206 956.604 Q97.1493 960.146 100.76 960.146 Q104.395 960.146 106.2 956.604 Q108.029 953.039 108.029 945.933 Q108.029 938.803 106.2 935.262 Q104.395 931.697 100.76 931.697 M100.76 927.993 Q106.571 927.993 109.626 932.6 Q112.705 937.183 112.705 945.933 Q112.705 954.66 109.626 959.266 Q106.571 963.849 100.76 963.849 Q94.9502 963.849 91.8715 959.266 Q88.816 954.66 88.816 945.933 Q88.816 937.183 91.8715 932.6 Q94.9502 927.993 100.76 927.993 Z" fill="#000000" fill-rule="evenodd" fill-opacity="1" /><path clip-path="url(#clip600)" d="M120.922 957.299 L125.807 957.299 L125.807 963.178 L120.922 963.178 L120.922 957.299 Z" fill="#000000" fill-rule="evenodd" fill-opacity="1" /><path clip-path="url(#clip600)" d="M140.019 959.243 L156.339 959.243 L156.339 963.178 L134.394 963.178 L134.394 959.243 Q137.056 956.488 141.64 951.859 Q146.246 947.206 147.427 945.863 Q149.672 943.34 150.552 941.604 Q151.455 939.845 151.455 938.155 Q151.455 935.401 149.51 933.664 Q147.589 931.928 144.487 931.928 Q142.288 931.928 139.834 932.692 Q137.404 933.456 134.626 935.007 L134.626 930.285 Q137.45 929.151 139.904 928.572 Q142.357 927.993 144.394 927.993 Q149.765 927.993 152.959 930.678 Q156.154 933.364 156.154 937.854 Q156.154 939.984 155.343 941.905 Q154.556 943.803 152.45 946.396 Q151.871 947.067 148.769 950.285 Q145.668 953.479 140.019 959.243 Z" fill="#000000" fill-rule="evenodd" fill-opacity="1" /><path clip-path="url(#clip600)" d="M166.2 928.618 L184.556 928.618 L184.556 932.553 L170.482 932.553 L170.482 941.026 Q171.501 940.678 172.519 940.516 Q173.538 940.331 174.556 940.331 Q180.343 940.331 183.723 943.502 Q187.103 946.674 187.103 952.09 Q187.103 957.669 183.63 960.771 Q180.158 963.849 173.839 963.849 Q171.663 963.849 169.394 963.479 Q167.149 963.109 164.742 962.368 L164.742 957.669 Q166.825 958.803 169.047 959.359 Q171.269 959.914 173.746 959.914 Q177.751 959.914 180.089 957.808 Q182.427 955.701 182.427 952.09 Q182.427 948.479 180.089 946.373 Q177.751 944.266 173.746 944.266 Q171.871 944.266 169.996 944.683 Q168.144 945.1 166.2 945.979 L166.2 928.618 Z" fill="#000000" fill-rule="evenodd" fill-opacity="1" /><path clip-path="url(#clip600)" d="M99.765 740.185 Q96.1539 740.185 94.3252 743.75 Q92.5197 747.291 92.5197 754.421 Q92.5197 761.527 94.3252 765.092 Q96.1539 768.634 99.765 768.634 Q103.399 768.634 105.205 765.092 Q107.033 761.527 107.033 754.421 Q107.033 747.291 105.205 743.75 Q103.399 740.185 99.765 740.185 M99.765 736.481 Q105.575 736.481 108.631 741.087 Q111.709 745.671 111.709 754.421 Q111.709 763.148 108.631 767.754 Q105.575 772.337 99.765 772.337 Q93.9549 772.337 90.8762 767.754 Q87.8206 763.148 87.8206 754.421 Q87.8206 745.671 90.8762 741.087 Q93.9549 736.481 99.765 736.481 Z" fill="#000000" fill-rule="evenodd" fill-opacity="1" /><path clip-path="url(#clip600)" d="M119.927 765.786 L124.811 765.786 L124.811 771.666 L119.927 771.666 L119.927 765.786 Z" fill="#000000" fill-rule="evenodd" fill-opacity="1" /><path clip-path="url(#clip600)" d="M135.043 737.106 L153.399 737.106 L153.399 741.041 L139.325 741.041 L139.325 749.513 Q140.343 749.166 141.362 749.004 Q142.381 748.819 143.399 748.819 Q149.186 748.819 152.566 751.99 Q155.945 755.161 155.945 760.578 Q155.945 766.157 152.473 769.259 Q149.001 772.337 142.681 772.337 Q140.506 772.337 138.237 771.967 Q135.992 771.597 133.584 770.856 L133.584 766.157 Q135.668 767.291 137.89 767.847 Q140.112 768.402 142.589 768.402 Q146.593 768.402 148.931 766.296 Q151.269 764.189 151.269 760.578 Q151.269 756.967 148.931 754.861 Q146.593 752.754 142.589 752.754 Q140.714 752.754 138.839 753.171 Q136.987 753.587 135.043 754.467 L135.043 737.106 Z" fill="#000000" fill-rule="evenodd" fill-opacity="1" /><path clip-path="url(#clip600)" d="M175.158 740.185 Q171.547 740.185 169.718 743.75 Q167.913 747.291 167.913 754.421 Q167.913 761.527 169.718 765.092 Q171.547 768.634 175.158 768.634 Q178.792 768.634 180.598 765.092 Q182.427 761.527 182.427 754.421 Q182.427 747.291 180.598 743.75 Q178.792 740.185 175.158 740.185 M175.158 736.481 Q180.968 736.481 184.024 741.087 Q187.103 745.671 187.103 754.421 Q187.103 763.148 184.024 767.754 Q180.968 772.337 175.158 772.337 Q169.348 772.337 166.269 767.754 Q163.214 763.148 163.214 754.421 Q163.214 745.671 166.269 741.087 Q169.348 736.481 175.158 736.481 Z" fill="#000000" fill-rule="evenodd" fill-opacity="1" /><path clip-path="url(#clip600)" d="M100.76 548.673 Q97.1493 548.673 95.3206 552.237 Q93.515 555.779 93.515 562.909 Q93.515 570.015 95.3206 573.58 Q97.1493 577.121 100.76 577.121 Q104.395 577.121 106.2 573.58 Q108.029 570.015 108.029 562.909 Q108.029 555.779 106.2 552.237 Q104.395 548.673 100.76 548.673 M100.76 544.969 Q106.571 544.969 109.626 549.575 Q112.705 554.159 112.705 562.909 Q112.705 571.635 109.626 576.242 Q106.571 580.825 100.76 580.825 Q94.9502 580.825 91.8715 576.242 Q88.816 571.635 88.816 562.909 Q88.816 554.159 91.8715 549.575 Q94.9502 544.969 100.76 544.969 Z" fill="#000000" fill-rule="evenodd" fill-opacity="1" /><path clip-path="url(#clip600)" d="M120.922 574.274 L125.807 574.274 L125.807 580.154 L120.922 580.154 L120.922 574.274 Z" fill="#000000" fill-rule="evenodd" fill-opacity="1" /><path clip-path="url(#clip600)" d="M134.811 545.594 L157.033 545.594 L157.033 547.585 L144.487 580.154 L139.603 580.154 L151.408 549.529 L134.811 549.529 L134.811 545.594 Z" fill="#000000" fill-rule="evenodd" fill-opacity="1" /><path clip-path="url(#clip600)" d="M166.2 545.594 L184.556 545.594 L184.556 549.529 L170.482 549.529 L170.482 558.001 Q171.501 557.654 172.519 557.492 Q173.538 557.307 174.556 557.307 Q180.343 557.307 183.723 560.478 Q187.103 563.649 187.103 569.066 Q187.103 574.645 183.63 577.746 Q180.158 580.825 173.839 580.825 Q171.663 580.825 169.394 580.455 Q167.149 580.084 164.742 579.344 L164.742 574.645 Q166.825 575.779 169.047 576.334 Q171.269 576.89 173.746 576.89 Q177.751 576.89 180.089 574.784 Q182.427 572.677 182.427 569.066 Q182.427 565.455 180.089 563.348 Q177.751 561.242 173.746 561.242 Q171.871 561.242 169.996 561.659 Q168.144 562.075 166.2 562.955 L166.2 545.594 Z" fill="#000000" fill-rule="evenodd" fill-opacity="1" /><path clip-path="url(#clip600)" d="M90.5752 384.707 L98.2141 384.707 L98.2141 358.341 L89.904 360.008 L89.904 355.748 L98.1678 354.082 L102.844 354.082 L102.844 384.707 L110.483 384.707 L110.483 388.642 L90.5752 388.642 L90.5752 384.707 Z" fill="#000000" fill-rule="evenodd" fill-opacity="1" /><path clip-path="url(#clip600)" d="M119.927 382.762 L124.811 382.762 L124.811 388.642 L119.927 388.642 L119.927 382.762 Z" fill="#000000" fill-rule="evenodd" fill-opacity="1" /><path clip-path="url(#clip600)" d="M144.996 357.16 Q141.385 357.16 139.556 360.725 Q137.751 364.267 137.751 371.396 Q137.751 378.503 139.556 382.068 Q141.385 385.609 144.996 385.609 Q148.63 385.609 150.436 382.068 Q152.265 378.503 152.265 371.396 Q152.265 364.267 150.436 360.725 Q148.63 357.16 144.996 357.16 M144.996 353.457 Q150.806 353.457 153.862 358.063 Q156.941 362.646 156.941 371.396 Q156.941 380.123 153.862 384.73 Q150.806 389.313 144.996 389.313 Q139.186 389.313 136.107 384.73 Q133.052 380.123 133.052 371.396 Q133.052 362.646 136.107 358.063 Q139.186 353.457 144.996 353.457 Z" fill="#000000" fill-rule="evenodd" fill-opacity="1" /><path clip-path="url(#clip600)" d="M175.158 357.16 Q171.547 357.16 169.718 360.725 Q167.913 364.267 167.913 371.396 Q167.913 378.503 169.718 382.068 Q171.547 385.609 175.158 385.609 Q178.792 385.609 180.598 382.068 Q182.427 378.503 182.427 371.396 Q182.427 364.267 180.598 360.725 Q178.792 357.16 175.158 357.16 M175.158 353.457 Q180.968 353.457 184.024 358.063 Q187.103 362.646 187.103 371.396 Q187.103 380.123 184.024 384.73 Q180.968 389.313 175.158 389.313 Q169.348 389.313 166.269 384.73 Q163.214 380.123 163.214 371.396 Q163.214 362.646 166.269 358.063 Q169.348 353.457 175.158 353.457 Z" fill="#000000" fill-rule="evenodd" fill-opacity="1" /><path clip-path="url(#clip600)" d="M91.5706 193.194 L99.2095 193.194 L99.2095 166.829 L90.8993 168.495 L90.8993 164.236 L99.1632 162.57 L103.839 162.57 L103.839 193.194 L111.478 193.194 L111.478 197.13 L91.5706 197.13 L91.5706 193.194 Z" fill="#000000" fill-rule="evenodd" fill-opacity="1" /><path clip-path="url(#clip600)" d="M120.922 191.25 L125.807 191.25 L125.807 197.13 L120.922 197.13 L120.922 191.25 Z" fill="#000000" fill-rule="evenodd" fill-opacity="1" /><path clip-path="url(#clip600)" d="M140.019 193.194 L156.339 193.194 L156.339 197.13 L134.394 197.13 L134.394 193.194 Q137.056 190.44 141.64 185.81 Q146.246 181.157 147.427 179.815 Q149.672 177.292 150.552 175.556 Q151.455 173.796 151.455 172.107 Q151.455 169.352 149.51 167.616 Q147.589 165.88 144.487 165.88 Q142.288 165.88 139.834 166.644 Q137.404 167.407 134.626 168.958 L134.626 164.236 Q137.45 163.102 139.904 162.523 Q142.357 161.945 144.394 161.945 Q149.765 161.945 152.959 164.63 Q156.154 167.315 156.154 171.806 Q156.154 173.935 155.343 175.856 Q154.556 177.755 152.45 180.347 Q151.871 181.019 148.769 184.236 Q145.668 187.431 140.019 193.194 Z" fill="#000000" fill-rule="evenodd" fill-opacity="1" /><path clip-path="url(#clip600)" d="M166.2 162.57 L184.556 162.57 L184.556 166.505 L170.482 166.505 L170.482 174.977 Q171.501 174.63 172.519 174.468 Q173.538 174.282 174.556 174.282 Q180.343 174.282 183.723 177.454 Q187.103 180.625 187.103 186.042 Q187.103 191.62 183.63 194.722 Q180.158 197.801 173.839 197.801 Q171.663 197.801 169.394 197.43 Q167.149 197.06 164.742 196.319 L164.742 191.62 Q166.825 192.755 169.047 193.31 Q171.269 193.866 173.746 193.866 Q177.751 193.866 180.089 191.759 Q182.427 189.653 182.427 186.042 Q182.427 182.431 180.089 180.324 Q177.751 178.218 173.746 178.218 Q171.871 178.218 169.996 178.634 Q168.144 179.051 166.2 179.931 L166.2 162.57 Z" fill="#000000" fill-rule="evenodd" fill-opacity="1" /><path clip-path="url(#clip600)" d="M731.922 12.096 L770.163 12.096 L770.163 18.9825 L740.105 18.9825 L740.105 36.8875 L768.907 36.8875 L768.907 43.7741 L740.105 43.7741 L740.105 65.6895 L770.892 65.6895 L770.892 72.576 L731.922 72.576 L731.922 12.096 Z" fill="#000000" fill-rule="evenodd" fill-opacity="1" /><path clip-path="url(#clip600)" d="M810.307 34.1734 Q809.052 33.4443 807.553 33.1202 Q806.094 32.7556 804.312 32.7556 Q797.993 32.7556 794.59 36.8875 Q791.228 40.9789 791.228 48.6757 L791.228 72.576 L783.733 72.576 L783.733 27.2059 L791.228 27.2059 L791.228 34.2544 Q793.577 30.1225 797.344 28.1376 Q801.112 26.1121 806.499 26.1121 Q807.269 26.1121 808.201 26.2337 Q809.133 26.3147 810.267 26.5172 L810.307 34.1734 Z" fill="#000000" fill-rule="evenodd" fill-opacity="1" /><path clip-path="url(#clip600)" d="M842.958 34.1734 Q841.702 33.4443 840.203 33.1202 Q838.745 32.7556 836.962 32.7556 Q830.643 32.7556 827.24 36.8875 Q823.878 40.9789 823.878 48.6757 L823.878 72.576 L816.384 72.576 L816.384 27.2059 L823.878 27.2059 L823.878 34.2544 Q826.227 30.1225 829.995 28.1376 Q833.762 26.1121 839.15 26.1121 Q839.919 26.1121 840.851 26.2337 Q841.783 26.3147 842.917 26.5172 L842.958 34.1734 Z" fill="#000000" fill-rule="evenodd" fill-opacity="1" /><path clip-path="url(#clip600)" d="M866.534 32.4315 Q860.539 32.4315 857.055 37.1306 Q853.571 41.7891 853.571 49.9314 Q853.571 58.0738 857.014 62.7728 Q860.498 67.4314 866.534 67.4314 Q872.489 67.4314 875.973 62.7323 Q879.456 58.0333 879.456 49.9314 Q879.456 41.8701 875.973 37.1711 Q872.489 32.4315 866.534 32.4315 M866.534 26.1121 Q876.256 26.1121 881.806 32.4315 Q887.356 38.7509 887.356 49.9314 Q887.356 61.0714 881.806 67.4314 Q876.256 73.7508 866.534 73.7508 Q856.771 73.7508 851.221 67.4314 Q845.712 61.0714 845.712 49.9314 Q845.712 38.7509 851.221 32.4315 Q856.771 26.1121 866.534 26.1121 Z" fill="#000000" fill-rule="evenodd" fill-opacity="1" /><path clip-path="url(#clip600)" d="M926.001 34.1734 Q924.745 33.4443 923.247 33.1202 Q921.788 32.7556 920.006 32.7556 Q913.686 32.7556 910.284 36.8875 Q906.921 40.9789 906.921 48.6757 L906.921 72.576 L899.427 72.576 L899.427 27.2059 L906.921 27.2059 L906.921 34.2544 Q909.271 30.1225 913.038 28.1376 Q916.806 26.1121 922.193 26.1121 Q922.963 26.1121 923.895 26.2337 Q924.826 26.3147 925.961 26.5172 L926.001 34.1734 Z" fill="#000000" fill-rule="evenodd" fill-opacity="1" /><path clip-path="url(#clip600)" d="M934.265 62.2867 L942.812 62.2867 L942.812 72.576 L934.265 72.576 L934.265 62.2867 M934.265 29.6769 L942.812 29.6769 L942.812 39.9662 L934.265 39.9662 L934.265 29.6769 Z" fill="#000000" fill-rule="evenodd" fill-opacity="1" /><path clip-path="url(#clip600)" d="M1010.22 19.2256 L989.56 51.5113 L1010.22 51.5113 L1010.22 19.2256 M1008.07 12.096 L1018.36 12.096 L1018.36 51.5113 L1026.99 51.5113 L1026.99 58.3168 L1018.36 58.3168 L1018.36 72.576 L1010.22 72.576 L1010.22 58.3168 L982.916 58.3168 L982.916 50.4176 L1008.07 12.096 Z" fill="#000000" fill-rule="evenodd" fill-opacity="1" /><path clip-path="url(#clip600)" d="M1040.52 62.2867 L1049.07 62.2867 L1049.07 72.576 L1040.52 72.576 L1040.52 62.2867 Z" fill="#000000" fill-rule="evenodd" fill-opacity="1" /><path clip-path="url(#clip600)" d="M1067.13 71.3202 L1067.13 63.8666 Q1070.21 65.3249 1073.37 66.0946 Q1076.53 66.8642 1079.57 66.8642 Q1087.67 66.8642 1091.93 61.436 Q1096.22 55.9673 1096.83 44.8678 Q1094.48 48.3516 1090.87 50.215 Q1087.27 52.0784 1082.89 52.0784 Q1073.82 52.0784 1068.51 46.6097 Q1063.25 41.1005 1063.25 31.5808 Q1063.25 22.2638 1068.76 16.633 Q1074.26 11.0023 1083.42 11.0023 Q1093.91 11.0023 1099.42 19.0636 Q1104.97 27.0843 1104.97 42.3968 Q1104.97 56.6965 1098.16 65.2439 Q1091.4 73.7508 1079.94 73.7508 Q1076.86 73.7508 1073.7 73.1431 Q1070.54 72.5355 1067.13 71.3202 M1083.42 45.678 Q1088.93 45.678 1092.13 41.9107 Q1095.37 38.1433 1095.37 31.5808 Q1095.37 25.0589 1092.13 21.2916 Q1088.93 17.4837 1083.42 17.4837 Q1077.91 17.4837 1074.67 21.2916 Q1071.47 25.0589 1071.47 31.5808 Q1071.47 38.1433 1074.67 41.9107 Q1077.91 45.678 1083.42 45.678 Z" fill="#000000" fill-rule="evenodd" fill-opacity="1" /><path clip-path="url(#clip600)" d="M1142.16 19.2256 L1121.5 51.5113 L1142.16 51.5113 L1142.16 19.2256 M1140.01 12.096 L1150.3 12.096 L1150.3 51.5113 L1158.93 51.5113 L1158.93 58.3168 L1150.3 58.3168 L1150.3 72.576 L1142.16 72.576 L1142.16 58.3168 L1114.85 58.3168 L1114.85 50.4176 L1140.01 12.096 Z" fill="#000000" fill-rule="evenodd" fill-opacity="1" /><path clip-path="url(#clip600)" d="M1173.88 65.6895 L1187.24 65.6895 L1187.24 19.5497 L1172.7 22.4663 L1172.7 15.0127 L1187.16 12.096 L1195.35 12.096 L1195.35 65.6895 L1208.71 65.6895 L1208.71 72.576 L1173.88 72.576 L1173.88 65.6895 Z" fill="#000000" fill-rule="evenodd" fill-opacity="1" /><path clip-path="url(#clip600)" d="M1242.74 43.8551 Q1236.91 43.8551 1233.55 46.9743 Q1230.22 50.0935 1230.22 55.5622 Q1230.22 61.0309 1233.55 64.1501 Q1236.91 67.2693 1242.74 67.2693 Q1248.57 67.2693 1251.94 64.1501 Q1255.3 60.9904 1255.3 55.5622 Q1255.3 50.0935 1251.94 46.9743 Q1248.62 43.8551 1242.74 43.8551 M1234.56 40.3713 Q1229.29 39.075 1226.34 35.4697 Q1223.42 31.8644 1223.42 26.6793 Q1223.42 19.4281 1228.56 15.2152 Q1233.75 11.0023 1242.74 11.0023 Q1251.77 11.0023 1256.92 15.2152 Q1262.06 19.4281 1262.06 26.6793 Q1262.06 31.8644 1259.11 35.4697 Q1256.19 39.075 1250.96 40.3713 Q1256.88 41.7486 1260.16 45.759 Q1263.48 49.7694 1263.48 55.5622 Q1263.48 64.3527 1258.09 69.0517 Q1252.75 73.7508 1242.74 73.7508 Q1232.74 73.7508 1227.35 69.0517 Q1222 64.3527 1222 55.5622 Q1222 49.7694 1225.32 45.759 Q1228.64 41.7486 1234.56 40.3713 M1231.56 27.4489 Q1231.56 32.148 1234.48 34.7811 Q1237.43 37.4142 1242.74 37.4142 Q1248.01 37.4142 1250.96 34.7811 Q1253.96 32.148 1253.96 27.4489 Q1253.96 22.7499 1250.96 20.1168 Q1248.01 17.4837 1242.74 17.4837 Q1237.43 17.4837 1234.48 20.1168 Q1231.56 22.7499 1231.56 27.4489 Z" fill="#000000" fill-rule="evenodd" fill-opacity="1" /><path clip-path="url(#clip600)" d="M1278.27 71.3202 L1278.27 63.8666 Q1281.35 65.3249 1284.51 66.0946 Q1287.67 66.8642 1290.7 66.8642 Q1298.81 66.8642 1303.06 61.436 Q1307.35 55.9673 1307.96 44.8678 Q1305.61 48.3516 1302.01 50.215 Q1298.4 52.0784 1294.03 52.0784 Q1284.95 52.0784 1279.65 46.6097 Q1274.38 41.1005 1274.38 31.5808 Q1274.38 22.2638 1279.89 16.633 Q1285.4 11.0023 1294.55 11.0023 Q1305.04 11.0023 1310.55 19.0636 Q1316.1 27.0843 1316.1 42.3968 Q1316.1 56.6965 1309.3 65.2439 Q1302.53 73.7508 1291.07 73.7508 Q1287.99 73.7508 1284.83 73.1431 Q1281.67 72.5355 1278.27 71.3202 M1294.55 45.678 Q1300.06 45.678 1303.26 41.9107 Q1306.5 38.1433 1306.5 31.5808 Q1306.5 25.0589 1303.26 21.2916 Q1300.06 17.4837 1294.55 17.4837 Q1289.04 17.4837 1285.8 21.2916 Q1282.6 25.0589 1282.6 31.5808 Q1282.6 38.1433 1285.8 41.9107 Q1289.04 45.678 1294.55 45.678 Z" fill="#000000" fill-rule="evenodd" fill-opacity="1" /><path clip-path="url(#clip600)" d="M1328.74 12.096 L1367.63 12.096 L1367.63 15.5798 L1345.67 72.576 L1337.13 72.576 L1357.79 18.9825 L1328.74 18.9825 L1328.74 12.096 Z" fill="#000000" fill-rule="evenodd" fill-opacity="1" /><path clip-path="url(#clip600)" d="M1402.1 39.075 Q1396.59 39.075 1393.35 42.8424 Q1390.15 46.6097 1390.15 53.1722 Q1390.15 59.6941 1393.35 63.502 Q1396.59 67.2693 1402.1 67.2693 Q1407.61 67.2693 1410.81 63.502 Q1414.05 59.6941 1414.05 53.1722 Q1414.05 46.6097 1410.81 42.8424 Q1407.61 39.075 1402.1 39.075 M1418.35 13.4328 L1418.35 20.8865 Q1415.27 19.4281 1412.11 18.6585 Q1408.99 17.8888 1405.91 17.8888 Q1397.81 17.8888 1393.52 23.3575 Q1389.26 28.8262 1388.65 39.8852 Q1391.04 36.3609 1394.65 34.4975 Q1398.26 32.5936 1402.59 32.5936 Q1411.7 32.5936 1416.97 38.1433 Q1422.28 43.6525 1422.28 53.1722 Q1422.28 62.4892 1416.77 68.12 Q1411.26 73.7508 1402.1 73.7508 Q1391.61 73.7508 1386.06 65.73 Q1380.51 57.6687 1380.51 42.3968 Q1380.51 28.0566 1387.32 19.5497 Q1394.12 11.0023 1405.59 11.0023 Q1408.67 11.0023 1411.79 11.6099 Q1414.95 12.2175 1418.35 13.4328 Z" fill="#000000" fill-rule="evenodd" fill-opacity="1" /><path clip-path="url(#clip600)" d="M1436.62 71.3202 L1436.62 63.8666 Q1439.7 65.3249 1442.86 66.0946 Q1446.02 66.8642 1449.05 66.8642 Q1457.16 66.8642 1461.41 61.436 Q1465.7 55.9673 1466.31 44.8678 Q1463.96 48.3516 1460.36 50.215 Q1456.75 52.0784 1452.38 52.0784 Q1443.3 52.0784 1437.99 46.6097 Q1432.73 41.1005 1432.73 31.5808 Q1432.73 22.2638 1438.24 16.633 Q1443.75 11.0023 1452.9 11.0023 Q1463.39 11.0023 1468.9 19.0636 Q1474.45 27.0843 1474.45 42.3968 Q1474.45 56.6965 1467.65 65.2439 Q1460.88 73.7508 1449.42 73.7508 Q1446.34 73.7508 1443.18 73.1431 Q1440.02 72.5355 1436.62 71.3202 M1452.9 45.678 Q1458.41 45.678 1461.61 41.9107 Q1464.85 38.1433 1464.85 31.5808 Q1464.85 25.0589 1461.61 21.2916 Q1458.41 17.4837 1452.9 17.4837 Q1447.39 17.4837 1444.15 21.2916 Q1440.95 25.0589 1440.95 31.5808 Q1440.95 38.1433 1444.15 41.9107 Q1447.39 45.678 1452.9 45.678 Z" fill="#000000" fill-rule="evenodd" fill-opacity="1" /><path clip-path="url(#clip600)" d="M1489.24 12.096 L1521.36 12.096 L1521.36 18.9825 L1496.73 18.9825 L1496.73 33.8088 Q1498.52 33.2012 1500.3 32.9176 Q1502.08 32.5936 1503.86 32.5936 Q1513.99 32.5936 1519.9 38.1433 Q1525.82 43.6931 1525.82 53.1722 Q1525.82 62.9348 1519.74 68.3631 Q1513.67 73.7508 1502.61 73.7508 Q1498.8 73.7508 1494.83 73.1026 Q1490.9 72.4545 1486.69 71.1582 L1486.69 62.9348 Q1490.33 64.9198 1494.22 65.892 Q1498.11 66.8642 1502.44 66.8642 Q1509.45 66.8642 1513.54 63.1779 Q1517.64 59.4916 1517.64 53.1722 Q1517.64 46.8528 1513.54 43.1664 Q1509.45 39.4801 1502.44 39.4801 Q1499.16 39.4801 1495.88 40.2093 Q1492.64 40.9384 1489.24 42.4778 L1489.24 12.096 Z" fill="#000000" fill-rule="evenodd" fill-opacity="1" /><path clip-path="url(#clip600)" d="M1559.44 43.8551 Q1553.61 43.8551 1550.25 46.9743 Q1546.92 50.0935 1546.92 55.5622 Q1546.92 61.0309 1550.25 64.1501 Q1553.61 67.2693 1559.44 67.2693 Q1565.27 67.2693 1568.64 64.1501 Q1572 60.9904 1572 55.5622 Q1572 50.0935 1568.64 46.9743 Q1565.31 43.8551 1559.44 43.8551 M1551.26 40.3713 Q1545.99 39.075 1543.03 35.4697 Q1540.12 31.8644 1540.12 26.6793 Q1540.12 19.4281 1545.26 15.2152 Q1550.45 11.0023 1559.44 11.0023 Q1568.47 11.0023 1573.62 15.2152 Q1578.76 19.4281 1578.76 26.6793 Q1578.76 31.8644 1575.81 35.4697 Q1572.89 39.075 1567.66 40.3713 Q1573.58 41.7486 1576.86 45.759 Q1580.18 49.7694 1580.18 55.5622 Q1580.18 64.3527 1574.79 69.0517 Q1569.45 73.7508 1559.44 73.7508 Q1549.44 73.7508 1544.05 69.0517 Q1538.7 64.3527 1538.7 55.5622 Q1538.7 49.7694 1542.02 45.759 Q1545.34 41.7486 1551.26 40.3713 M1548.26 27.4489 Q1548.26 32.148 1551.18 34.7811 Q1554.13 37.4142 1559.44 37.4142 Q1564.71 37.4142 1567.66 34.7811 Q1570.66 32.148 1570.66 27.4489 Q1570.66 22.7499 1567.66 20.1168 Q1564.71 17.4837 1559.44 17.4837 Q1554.13 17.4837 1551.18 20.1168 Q1548.26 22.7499 1548.26 27.4489 Z" fill="#000000" fill-rule="evenodd" fill-opacity="1" /><path clip-path="url(#clip600)" d="M1613.24 39.075 Q1607.73 39.075 1604.49 42.8424 Q1601.29 46.6097 1601.29 53.1722 Q1601.29 59.6941 1604.49 63.502 Q1607.73 67.2693 1613.24 67.2693 Q1618.75 67.2693 1621.95 63.502 Q1625.19 59.6941 1625.19 53.1722 Q1625.19 46.6097 1621.95 42.8424 Q1618.75 39.075 1613.24 39.075 M1629.48 13.4328 L1629.48 20.8865 Q1626.4 19.4281 1623.24 18.6585 Q1620.12 17.8888 1617.04 17.8888 Q1608.94 17.8888 1604.65 23.3575 Q1600.4 28.8262 1599.79 39.8852 Q1602.18 36.3609 1605.78 34.4975 Q1609.39 32.5936 1613.72 32.5936 Q1622.84 32.5936 1628.1 38.1433 Q1633.41 43.6525 1633.41 53.1722 Q1633.41 62.4892 1627.9 68.12 Q1622.39 73.7508 1613.24 73.7508 Q1602.75 73.7508 1597.2 65.73 Q1591.65 57.6687 1591.65 42.3968 Q1591.65 28.0566 1598.45 19.5497 Q1605.26 11.0023 1616.72 11.0023 Q1619.8 11.0023 1622.92 11.6099 Q1626.08 12.2175 1629.48 13.4328 Z" fill="#000000" fill-rule="evenodd" fill-opacity="1" /><path clip-path="url(#clip600)" d="M1647.59 12.096 L1679.71 12.096 L1679.71 18.9825 L1655.08 18.9825 L1655.08 33.8088 Q1656.87 33.2012 1658.65 32.9176 Q1660.43 32.5936 1662.21 32.5936 Q1672.34 32.5936 1678.25 38.1433 Q1684.17 43.6931 1684.17 53.1722 Q1684.17 62.9348 1678.09 68.3631 Q1672.02 73.7508 1660.96 73.7508 Q1657.15 73.7508 1653.18 73.1026 Q1649.25 72.4545 1645.04 71.1582 L1645.04 62.9348 Q1648.68 64.9198 1652.57 65.892 Q1656.46 66.8642 1660.79 66.8642 Q1667.8 66.8642 1671.89 63.1779 Q1675.99 59.4916 1675.99 53.1722 Q1675.99 46.8528 1671.89 43.1664 Q1667.8 39.4801 1660.79 39.4801 Q1657.51 39.4801 1654.23 40.2093 Q1650.99 40.9384 1647.59 42.4778 L1647.59 12.096 Z" fill="#000000" fill-rule="evenodd" fill-opacity="1" /><path clip-path="url(#clip600)" d="M1701.71 65.6895 L1715.08 65.6895 L1715.08 19.5497 L1700.53 22.4663 L1700.53 15.0127 L1715 12.096 L1723.18 12.096 L1723.18 65.6895 L1736.55 65.6895 L1736.55 72.576 L1701.71 72.576 L1701.71 65.6895 Z" fill="#000000" fill-rule="evenodd" fill-opacity="1" /><path clip-path="url(#clip600)" d="M1754.49 65.6895 L1767.86 65.6895 L1767.86 19.5497 L1753.32 22.4663 L1753.32 15.0127 L1767.78 12.096 L1775.96 12.096 L1775.96 65.6895 L1789.33 65.6895 L1789.33 72.576 L1754.49 72.576 L1754.49 65.6895 Z" fill="#000000" fill-rule="evenodd" fill-opacity="1" /><path clip-path="url(#clip600)" d="M1806.1 71.3202 L1806.1 63.8666 Q1809.18 65.3249 1812.34 66.0946 Q1815.5 66.8642 1818.54 66.8642 Q1826.64 66.8642 1830.89 61.436 Q1835.19 55.9673 1835.79 44.8678 Q1833.44 48.3516 1829.84 50.215 Q1826.23 52.0784 1821.86 52.0784 Q1812.78 52.0784 1807.48 46.6097 Q1802.21 41.1005 1802.21 31.5808 Q1802.21 22.2638 1807.72 16.633 Q1813.23 11.0023 1822.39 11.0023 Q1832.88 11.0023 1838.39 19.0636 Q1843.94 27.0843 1843.94 42.3968 Q1843.94 56.6965 1837.13 65.2439 Q1830.37 73.7508 1818.9 73.7508 Q1815.82 73.7508 1812.66 73.1431 Q1809.5 72.5355 1806.1 71.3202 M1822.39 45.678 Q1827.89 45.678 1831.09 41.9107 Q1834.34 38.1433 1834.34 31.5808 Q1834.34 25.0589 1831.09 21.2916 Q1827.89 17.4837 1822.39 17.4837 Q1816.88 17.4837 1813.64 21.2916 Q1810.44 25.0589 1810.44 31.5808 Q1810.44 38.1433 1813.64 41.9107 Q1816.88 45.678 1822.39 45.678 Z" fill="#000000" fill-rule="evenodd" fill-opacity="1" /><polyline clip-path="url(#clip602)" style="stroke:#009af9; stroke-linecap:butt; stroke-linejoin:round; stroke-width:12; stroke-opacity:1; fill:none" points="
  -4036.2,1137.41 -4018.87,1129.47 -4001.54,1121.54 -3984.21,1113.62 -3966.88,1105.71 -3886.75,1069.52 -3806.62,1034.26 -3766.56,1017.15 -3726.5,1000.45 -3686.43,984.232 
  -3646.37,968.548 -3606.3,953.455 -3566.24,939.003 -3526.18,925.245 -3486.11,912.227 -3446.05,899.996 -3405.99,888.593 -3365.92,878.06 -3325.86,868.432 -3277.71,858.106 
  -3229.55,849.188 -3181.4,841.724 -3133.25,835.752 -3085.09,831.301 -3036.94,828.393 -3012.86,827.524 -2988.79,827.045 -2964.71,826.958 -2940.63,827.262 -2899.92,828.666 
  -2859.21,831.183 -2818.49,834.805 -2777.78,839.518 -2737.07,845.304 -2696.36,852.145 -2655.64,860.014 -2614.93,868.883 -2570.7,879.613 -2526.48,891.441 -2482.25,904.315 
  -2438.03,918.18 -2393.8,932.979 -2349.58,948.647 -2305.35,965.118 -2261.12,982.323 -2179.58,1015.72 -2098.04,1050.87 -2016.49,1087.28 -1934.95,1124.41 -1847.52,1164.41 
  -1760.1,1203.96 -1672.67,1242.41 -1585.25,1279.12 -1534.61,1299.34 -1483.96,1318.66 -1433.32,1336.97 -1382.67,1354.16 -1332.03,1370.15 -1281.38,1384.84 -1230.74,1398.14 
  -1180.09,1410 -1135.09,1419.26 -1090.08,1427.27 -1045.07,1434.01 -1000.06,1439.45 -955.058,1443.55 -910.051,1446.3 -865.044,1447.69 -820.036,1447.72 -780.569,1446.62 
  -741.102,1444.46 -701.635,1441.27 -662.168,1437.05 -622.701,1431.81 -583.234,1425.58 -543.767,1418.37 -504.3,1410.2 -461.27,1400.25 -418.24,1389.24 -375.21,1377.22 
  -332.181,1364.22 -289.151,1350.32 -246.121,1335.56 -203.091,1320 -160.061,1303.7 -116.776,1286.63 -73.4905,1268.95 -30.205,1250.74 13.0805,1232.07 99.6515,1193.64 
  186.222,1154.29 281.938,1110.5 377.653,1067.24 425.511,1046.08 473.368,1025.38 521.226,1005.23 569.084,985.744 614.619,967.903 660.154,950.826 705.69,934.591 
  751.225,919.27 796.76,904.934 842.296,891.646 887.831,879.467 933.366,868.45 980.713,858.283 1028.06,849.478 1075.4,842.076 1122.75,836.114 1170.1,831.621 
  1217.44,828.619 1241.12,827.683 1264.79,827.123 1288.46,826.943 1312.14,827.14 1351.99,828.328 1391.85,830.583 1431.7,833.899 1471.56,838.264 1511.41,843.662 
  1551.27,850.075 1591.12,857.482 1630.98,865.856 1679.64,877.348 1728.3,890.18 1776.96,904.285 1825.61,919.591 1874.27,936.018 1922.93,953.483 1971.59,971.895 
  2020.25,991.159 2064.83,1009.47 2109.4,1028.33 2153.97,1047.67 2198.55,1067.39 2287.7,1107.66 2376.85,1148.44 2459.18,1185.95 2541.52,1222.75 2623.86,1258.29 
  2706.19,1292.05 2747.9,1308.31 2789.6,1323.92 2831.3,1338.82 2873,1352.97 2914.7,1366.3 2956.41,1378.76 2998.11,1390.31 3039.81,1400.9 3086.55,1411.59 
  3133.28,1420.97 3180.02,1429.01 3226.75,1435.66 3273.49,1440.89 3320.23,1444.68 3366.96,1447.01 3413.7,1447.87 3456.05,1447.38 3498.4,1445.67 3540.75,1442.77 
  3583.1,1438.67 3625.45,1433.4 3667.8,1426.97 3710.15,1419.41 3752.51,1410.75 3800.99,1399.53 3849.48,1386.97 3897.97,1373.13 3946.46,1358.09 3994.95,1341.91 
  4043.44,1324.7 4091.92,1306.52 4140.41,1287.48 4185.31,1269.17 4230.21,1250.27 4275.1,1230.88 4320,1211.08 4409.79,1170.61 4499.58,1129.55 4588.11,1089.2 
  4676.63,1049.67 4720.89,1030.43 4765.16,1011.64 4809.42,993.384 4853.68,975.745 4896.66,959.278 4939.63,943.527 4982.61,928.554 5025.58,914.42 5068.56,901.183 
  5111.53,888.894 5154.51,877.604 5197.48,867.357 5241.54,857.98 5285.59,849.783 5329.65,842.799 5373.7,837.06 5417.76,832.589 5461.81,829.404 5505.87,827.521 
  5549.92,826.945 5598.19,827.819 5646.45,830.262 5694.72,834.262 5742.99,839.797 5791.26,846.841 5839.52,855.358 5887.79,865.303 5936.06,876.628 5971.12,885.686 
  6006.17,895.416 6041.23,905.794 6076.29,916.791 6111.35,928.378 6146.41,940.524 6181.46,953.197 6216.52,966.362 6286.64,994.028 6356.75,1023.23 6426.87,1053.64 
  6496.99,1084.96 6525.76,1097.99 6554.52,1111.09 6583.29,1124.24 6612.06,1137.41 
  "/>
<polyline clip-path="url(#clip602)" style="stroke:#e26f46; stroke-linecap:butt; stroke-linejoin:round; stroke-width:12; stroke-opacity:1; fill:none" points="
  223.407,1137.13 224.708,1135.94 227.048,1133.8 230.423,1130.7 234.832,1126.67 240.27,1121.69 246.732,1115.77 254.211,1108.92 262.7,1101.15 272.19,1092.47 
  282.673,1082.88 294.139,1072.4 306.575,1061.05 319.97,1048.83 334.311,1035.77 349.584,1021.89 365.774,1007.21 382.864,991.747 400.839,975.536 419.681,958.604 
  439.371,940.984 459.89,922.709 481.219,903.816 503.335,884.346 526.218,864.342 549.845,843.847 574.194,822.909 599.24,801.579 624.959,779.909 651.325,757.951 
  678.314,735.763 705.898,713.402 734.051,690.927 762.745,668.396 791.952,645.871 821.644,623.411 851.792,601.078 882.365,578.931 913.335,557.029 944.671,535.429 
  976.343,514.188 1008.32,493.358 1040.57,472.992 1073.06,453.136 1105.76,433.837 1138.64,415.134 1171.66,397.066 1204.8,379.665 1238.02,362.96 1271.29,346.976 
  1304.57,331.732 1337.84,317.243 1371.06,303.52 1404.2,290.567 1437.22,278.385 1470.1,266.971 1502.8,256.318 1535.29,246.412 1567.54,237.24 1599.52,228.78 
  1631.19,221.011 1662.52,213.907 1693.49,207.441 1724.07,201.584 1754.21,196.302 1783.91,191.564 1813.11,187.336 1841.81,183.583 1869.96,180.271 1897.54,177.366 
  1924.53,174.833 1950.9,172.639 1976.62,170.751 2001.66,169.14 2026.01,167.774 2049.64,166.627 2072.52,165.671 2094.64,164.883 2115.97,164.239 2136.49,163.719 
  2156.18,163.303 2175.02,162.976 2192.99,162.722 2210.08,162.528 2226.27,162.382 2241.55,162.275 2255.89,162.198 2269.28,162.143 2281.72,162.106 2293.19,162.082 
  2303.67,162.067 2313.16,162.057 2321.65,162.052 2329.13,162.049 2335.59,162.048 2341.03,162.047 2345.44,162.047 2348.81,162.047 2351.15,162.047 2352.45,162.047 
  
  "/>
<circle clip-path="url(#clip602)" cx="223.103" cy="1137.41" r="14.4" fill="#000000" fill-rule="evenodd" fill-opacity="1" stroke="none"/>
<circle clip-path="url(#clip602)" cx="228.109" cy="1132.82" r="14.4" fill="#000000" fill-rule="evenodd" fill-opacity="1" stroke="none"/>
<circle clip-path="url(#clip602)" cx="239.856" cy="1122.07" r="14.4" fill="#000000" fill-rule="evenodd" fill-opacity="1" stroke="none"/>
<circle clip-path="url(#clip602)" cx="258.231" cy="1105.24" r="14.4" fill="#000000" fill-rule="evenodd" fill-opacity="1" stroke="none"/>
<circle clip-path="url(#clip602)" cx="283.116" cy="1082.47" r="14.4" fill="#000000" fill-rule="evenodd" fill-opacity="1" stroke="none"/>
<circle clip-path="url(#clip602)" cx="314.355" cy="1053.95" r="14.4" fill="#000000" fill-rule="evenodd" fill-opacity="1" stroke="none"/>
<circle clip-path="url(#clip602)" cx="351.748" cy="1019.93" r="14.4" fill="#000000" fill-rule="evenodd" fill-opacity="1" stroke="none"/>
<circle clip-path="url(#clip602)" cx="395.06" cy="980.742" r="14.4" fill="#000000" fill-rule="evenodd" fill-opacity="1" stroke="none"/>
<circle clip-path="url(#clip602)" cx="444.018" cy="936.837" r="14.4" fill="#000000" fill-rule="evenodd" fill-opacity="1" stroke="none"/>
<circle clip-path="url(#clip602)" cx="498.311" cy="888.758" r="14.4" fill="#000000" fill-rule="evenodd" fill-opacity="1" stroke="none"/>
<circle clip-path="url(#clip602)" cx="557.596" cy="837.161" r="14.4" fill="#000000" fill-rule="evenodd" fill-opacity="1" stroke="none"/>
<circle clip-path="url(#clip602)" cx="621.498" cy="782.81" r="14.4" fill="#000000" fill-rule="evenodd" fill-opacity="1" stroke="none"/>
<circle clip-path="url(#clip602)" cx="689.614" cy="726.563" r="14.4" fill="#000000" fill-rule="evenodd" fill-opacity="1" stroke="none"/>
<circle clip-path="url(#clip602)" cx="761.513" cy="669.355" r="14.4" fill="#000000" fill-rule="evenodd" fill-opacity="1" stroke="none"/>
<circle clip-path="url(#clip602)" cx="836.74" cy="612.168" r="14.4" fill="#000000" fill-rule="evenodd" fill-opacity="1" stroke="none"/>
<circle clip-path="url(#clip602)" cx="914.819" cy="555.993" r="14.4" fill="#000000" fill-rule="evenodd" fill-opacity="1" stroke="none"/>
<circle clip-path="url(#clip602)" cx="995.258" cy="501.791" r="14.4" fill="#000000" fill-rule="evenodd" fill-opacity="1" stroke="none"/>
<circle clip-path="url(#clip602)" cx="1077.55" cy="450.447" r="14.4" fill="#000000" fill-rule="evenodd" fill-opacity="1" stroke="none"/>
<circle clip-path="url(#clip602)" cx="1161.16" cy="402.73" r="14.4" fill="#000000" fill-rule="evenodd" fill-opacity="1" stroke="none"/>
<circle clip-path="url(#clip602)" cx="1245.59" cy="359.259" r="14.4" fill="#000000" fill-rule="evenodd" fill-opacity="1" stroke="none"/>
<circle clip-path="url(#clip602)" cx="1330.27" cy="320.473" r="14.4" fill="#000000" fill-rule="evenodd" fill-opacity="1" stroke="none"/>
<circle clip-path="url(#clip602)" cx="1414.69" cy="286.616" r="14.4" fill="#000000" fill-rule="evenodd" fill-opacity="1" stroke="none"/>
<circle clip-path="url(#clip602)" cx="1498.31" cy="257.739" r="14.4" fill="#000000" fill-rule="evenodd" fill-opacity="1" stroke="none"/>
<circle clip-path="url(#clip602)" cx="1580.6" cy="233.708" r="14.4" fill="#000000" fill-rule="evenodd" fill-opacity="1" stroke="none"/>
<circle clip-path="url(#clip602)" cx="1661.04" cy="214.231" r="14.4" fill="#000000" fill-rule="evenodd" fill-opacity="1" stroke="none"/>
<circle clip-path="url(#clip602)" cx="1739.12" cy="198.886" r="14.4" fill="#000000" fill-rule="evenodd" fill-opacity="1" stroke="none"/>
<circle clip-path="url(#clip602)" cx="1814.35" cy="187.167" r="14.4" fill="#000000" fill-rule="evenodd" fill-opacity="1" stroke="none"/>
<circle clip-path="url(#clip602)" cx="1886.24" cy="178.517" r="14.4" fill="#000000" fill-rule="evenodd" fill-opacity="1" stroke="none"/>
<circle clip-path="url(#clip602)" cx="1954.36" cy="172.37" r="14.4" fill="#000000" fill-rule="evenodd" fill-opacity="1" stroke="none"/>
<circle clip-path="url(#clip602)" cx="2018.26" cy="168.188" r="14.4" fill="#000000" fill-rule="evenodd" fill-opacity="1" stroke="none"/>
<circle clip-path="url(#clip602)" cx="2077.55" cy="165.481" r="14.4" fill="#000000" fill-rule="evenodd" fill-opacity="1" stroke="none"/>
<circle clip-path="url(#clip602)" cx="2131.84" cy="163.828" r="14.4" fill="#000000" fill-rule="evenodd" fill-opacity="1" stroke="none"/>
<circle clip-path="url(#clip602)" cx="2180.8" cy="162.889" r="14.4" fill="#000000" fill-rule="evenodd" fill-opacity="1" stroke="none"/>
<circle clip-path="url(#clip602)" cx="2224.11" cy="162.4" r="14.4" fill="#000000" fill-rule="evenodd" fill-opacity="1" stroke="none"/>
<circle clip-path="url(#clip602)" cx="2261.5" cy="162.173" r="14.4" fill="#000000" fill-rule="evenodd" fill-opacity="1" stroke="none"/>
<circle clip-path="url(#clip602)" cx="2292.74" cy="162.083" r="14.4" fill="#000000" fill-rule="evenodd" fill-opacity="1" stroke="none"/>
<circle clip-path="url(#clip602)" cx="2317.63" cy="162.054" r="14.4" fill="#000000" fill-rule="evenodd" fill-opacity="1" stroke="none"/>
<circle clip-path="url(#clip602)" cx="2336" cy="162.048" r="14.4" fill="#000000" fill-rule="evenodd" fill-opacity="1" stroke="none"/>
<circle clip-path="url(#clip602)" cx="2347.75" cy="162.047" r="14.4" fill="#000000" fill-rule="evenodd" fill-opacity="1" stroke="none"/>
<circle clip-path="url(#clip602)" cx="2352.76" cy="162.047" r="14.4" fill="#000000" fill-rule="evenodd" fill-opacity="1" stroke="none"/>
<path clip-path="url(#clip600)" d="
M1714.24 1441.02 L2281.77 1441.02 L2281.77 1233.66 L1714.24 1233.66  Z
  " fill="#ffffff" fill-rule="evenodd" fill-opacity="1"/>
<polyline clip-path="url(#clip600)" style="stroke:#000000; stroke-linecap:butt; stroke-linejoin:round; stroke-width:4; stroke-opacity:1; fill:none" points="
  1714.24,1441.02 2281.77,1441.02 2281.77,1233.66 1714.24,1233.66 1714.24,1441.02 
  "/>
<polyline clip-path="url(#clip600)" style="stroke:#009af9; stroke-linecap:butt; stroke-linejoin:round; stroke-width:4; stroke-opacity:1; fill:none" points="
  1737.9,1285.5 1879.88,1285.5 
  "/>
<path clip-path="url(#clip600)" d="M1917.38 1305.18 Q1915.58 1309.81 1913.86 1311.22 Q1912.15 1312.64 1909.28 1312.64 L1905.88 1312.64 L1905.88 1309.07 L1908.38 1309.07 Q1910.14 1309.07 1911.11 1308.24 Q1912.08 1307.4 1913.26 1304.3 L1914.03 1302.36 L1903.54 1276.85 L1908.05 1276.85 L1916.16 1297.13 L1924.26 1276.85 L1928.77 1276.85 L1917.38 1305.18 Z" fill="#000000" fill-rule="evenodd" fill-opacity="1" /><path clip-path="url(#clip600)" d="M1936.06 1298.84 L1943.7 1298.84 L1943.7 1272.47 L1935.39 1274.14 L1935.39 1269.88 L1943.66 1268.22 L1948.33 1268.22 L1948.33 1298.84 L1955.97 1298.84 L1955.97 1302.78 L1936.06 1302.78 L1936.06 1298.84 Z" fill="#000000" fill-rule="evenodd" fill-opacity="1" /><polyline clip-path="url(#clip600)" style="stroke:#e26f46; stroke-linecap:butt; stroke-linejoin:round; stroke-width:4; stroke-opacity:1; fill:none" points="
  1737.9,1337.34 1879.88,1337.34 
  "/>
<path clip-path="url(#clip600)" d="M1903.54 1320.06 L1923.4 1320.06 L1923.4 1323.99 L1908.22 1323.99 L1908.22 1334.18 L1921.92 1334.18 L1921.92 1338.11 L1908.22 1338.11 L1908.22 1354.62 L1903.54 1354.62 L1903.54 1320.06 Z" fill="#000000" fill-rule="evenodd" fill-opacity="1" /><path clip-path="url(#clip600)" d="M1930.81 1320.06 L1952.66 1320.06 L1952.66 1323.99 L1935.49 1323.99 L1935.49 1334.22 L1951.94 1334.22 L1951.94 1338.16 L1935.49 1338.16 L1935.49 1350.68 L1953.08 1350.68 L1953.08 1354.62 L1930.81 1354.62 L1930.81 1320.06 Z" fill="#000000" fill-rule="evenodd" fill-opacity="1" /><path clip-path="url(#clip600)" d="M1992.17 1329.45 L1992.17 1333.48 Q1990.37 1332.56 1988.42 1332.09 Q1986.48 1331.63 1984.4 1331.63 Q1981.23 1331.63 1979.63 1332.6 Q1978.05 1333.57 1978.05 1335.52 Q1978.05 1337 1979.19 1337.86 Q1980.32 1338.69 1983.75 1339.45 L1985.21 1339.78 Q1989.74 1340.75 1991.64 1342.53 Q1993.56 1344.29 1993.56 1347.46 Q1993.56 1351.07 1990.69 1353.18 Q1987.85 1355.29 1982.85 1355.29 Q1980.76 1355.29 1978.49 1354.87 Q1976.25 1354.48 1973.75 1353.67 L1973.75 1349.27 Q1976.11 1350.5 1978.4 1351.12 Q1980.69 1351.72 1982.94 1351.72 Q1985.95 1351.72 1987.57 1350.7 Q1989.19 1349.66 1989.19 1347.79 Q1989.19 1346.05 1988.01 1345.12 Q1986.85 1344.2 1982.89 1343.34 L1981.41 1343 Q1977.45 1342.16 1975.69 1340.45 Q1973.93 1338.71 1973.93 1335.7 Q1973.93 1332.05 1976.53 1330.06 Q1979.12 1328.06 1983.89 1328.06 Q1986.25 1328.06 1988.33 1328.41 Q1990.42 1328.76 1992.17 1329.45 Z" fill="#000000" fill-rule="evenodd" fill-opacity="1" /><path clip-path="url(#clip600)" d="M2010.39 1331.68 Q2006.97 1331.68 2004.98 1334.36 Q2002.98 1337.02 2002.98 1341.68 Q2002.98 1346.33 2004.95 1349.01 Q2006.94 1351.68 2010.39 1351.68 Q2013.79 1351.68 2015.79 1348.99 Q2017.78 1346.31 2017.78 1341.68 Q2017.78 1337.07 2015.79 1334.38 Q2013.79 1331.68 2010.39 1331.68 M2010.39 1328.06 Q2015.95 1328.06 2019.12 1331.68 Q2022.29 1335.29 2022.29 1341.68 Q2022.29 1348.04 2019.12 1351.68 Q2015.95 1355.29 2010.39 1355.29 Q2004.81 1355.29 2001.64 1351.68 Q1998.49 1348.04 1998.49 1341.68 Q1998.49 1335.29 2001.64 1331.68 Q2004.81 1328.06 2010.39 1328.06 Z" fill="#000000" fill-rule="evenodd" fill-opacity="1" /><path clip-path="url(#clip600)" d="M2029.35 1318.6 L2033.61 1318.6 L2033.61 1354.62 L2029.35 1354.62 L2029.35 1318.6 Z" fill="#000000" fill-rule="evenodd" fill-opacity="1" /><path clip-path="url(#clip600)" d="M2042.08 1344.38 L2042.08 1328.69 L2046.34 1328.69 L2046.34 1344.22 Q2046.34 1347.9 2047.78 1349.75 Q2049.21 1351.58 2052.08 1351.58 Q2055.53 1351.58 2057.52 1349.38 Q2059.54 1347.18 2059.54 1343.39 L2059.54 1328.69 L2063.79 1328.69 L2063.79 1354.62 L2059.54 1354.62 L2059.54 1350.63 Q2057.98 1352.99 2055.92 1354.15 Q2053.89 1355.29 2051.18 1355.29 Q2046.71 1355.29 2044.4 1352.51 Q2042.08 1349.73 2042.08 1344.38 M2052.8 1328.06 L2052.8 1328.06 Z" fill="#000000" fill-rule="evenodd" fill-opacity="1" /><path clip-path="url(#clip600)" d="M2076.78 1321.33 L2076.78 1328.69 L2085.55 1328.69 L2085.55 1332 L2076.78 1332 L2076.78 1346.07 Q2076.78 1349.25 2077.64 1350.15 Q2078.52 1351.05 2081.18 1351.05 L2085.55 1351.05 L2085.55 1354.62 L2081.18 1354.62 Q2076.25 1354.62 2074.37 1352.79 Q2072.5 1350.93 2072.5 1346.07 L2072.5 1332 L2069.37 1332 L2069.37 1328.69 L2072.5 1328.69 L2072.5 1321.33 L2076.78 1321.33 Z" fill="#000000" fill-rule="evenodd" fill-opacity="1" /><path clip-path="url(#clip600)" d="M2091.16 1328.69 L2095.41 1328.69 L2095.41 1354.62 L2091.16 1354.62 L2091.16 1328.69 M2091.16 1318.6 L2095.41 1318.6 L2095.41 1323.99 L2091.16 1323.99 L2091.16 1318.6 Z" fill="#000000" fill-rule="evenodd" fill-opacity="1" /><path clip-path="url(#clip600)" d="M2114.37 1331.68 Q2110.95 1331.68 2108.96 1334.36 Q2106.97 1337.02 2106.97 1341.68 Q2106.97 1346.33 2108.93 1349.01 Q2110.92 1351.68 2114.37 1351.68 Q2117.78 1351.68 2119.77 1348.99 Q2121.76 1346.31 2121.76 1341.68 Q2121.76 1337.07 2119.77 1334.38 Q2117.78 1331.68 2114.37 1331.68 M2114.37 1328.06 Q2119.93 1328.06 2123.1 1331.68 Q2126.27 1335.29 2126.27 1341.68 Q2126.27 1348.04 2123.1 1351.68 Q2119.93 1355.29 2114.37 1355.29 Q2108.79 1355.29 2105.62 1351.68 Q2102.47 1348.04 2102.47 1341.68 Q2102.47 1335.29 2105.62 1331.68 Q2108.79 1328.06 2114.37 1328.06 Z" fill="#000000" fill-rule="evenodd" fill-opacity="1" /><path clip-path="url(#clip600)" d="M2154.88 1338.97 L2154.88 1354.62 L2150.62 1354.62 L2150.62 1339.11 Q2150.62 1335.43 2149.19 1333.6 Q2147.75 1331.77 2144.88 1331.77 Q2141.43 1331.77 2139.44 1333.97 Q2137.45 1336.17 2137.45 1339.96 L2137.45 1354.62 L2133.17 1354.62 L2133.17 1328.69 L2137.45 1328.69 L2137.45 1332.72 Q2138.98 1330.38 2141.04 1329.22 Q2143.12 1328.06 2145.83 1328.06 Q2150.3 1328.06 2152.59 1330.84 Q2154.88 1333.6 2154.88 1338.97 Z" fill="#000000" fill-rule="evenodd" fill-opacity="1" /><circle clip-path="url(#clip600)" cx="1808.89" cy="1389.18" r="23.04" fill="#000000" fill-rule="evenodd" fill-opacity="1" stroke="none"/>
<path clip-path="url(#clip600)" d="M1903.54 1371.9 L1909.84 1371.9 L1925.16 1400.81 L1925.16 1371.9 L1929.7 1371.9 L1929.7 1406.46 L1923.4 1406.46 L1908.08 1377.54 L1908.08 1406.46 L1903.54 1406.46 L1903.54 1371.9 Z" fill="#000000" fill-rule="evenodd" fill-opacity="1" /><path clip-path="url(#clip600)" d="M1948.86 1383.52 Q1945.44 1383.52 1943.45 1386.2 Q1941.46 1388.86 1941.46 1393.52 Q1941.46 1398.17 1943.42 1400.85 Q1945.42 1403.52 1948.86 1403.52 Q1952.27 1403.52 1954.26 1400.83 Q1956.25 1398.15 1956.25 1393.52 Q1956.25 1388.91 1954.26 1386.22 Q1952.27 1383.52 1948.86 1383.52 M1948.86 1379.9 Q1954.42 1379.9 1957.59 1383.52 Q1960.76 1387.13 1960.76 1393.52 Q1960.76 1399.88 1957.59 1403.52 Q1954.42 1407.13 1948.86 1407.13 Q1943.29 1407.13 1940.11 1403.52 Q1936.97 1399.88 1936.97 1393.52 Q1936.97 1387.13 1940.11 1383.52 Q1943.29 1379.9 1948.86 1379.9 Z" fill="#000000" fill-rule="evenodd" fill-opacity="1" /><path clip-path="url(#clip600)" d="M1984.88 1384.46 L1984.88 1370.44 L1989.14 1370.44 L1989.14 1406.46 L1984.88 1406.46 L1984.88 1402.57 Q1983.54 1404.88 1981.48 1406.02 Q1979.44 1407.13 1976.57 1407.13 Q1971.87 1407.13 1968.91 1403.38 Q1965.97 1399.63 1965.97 1393.52 Q1965.97 1387.4 1968.91 1383.65 Q1971.87 1379.9 1976.57 1379.9 Q1979.44 1379.9 1981.48 1381.04 Q1983.54 1382.15 1984.88 1384.46 M1970.37 1393.52 Q1970.37 1398.21 1972.29 1400.9 Q1974.23 1403.56 1977.61 1403.56 Q1980.99 1403.56 1982.94 1400.9 Q1984.88 1398.21 1984.88 1393.52 Q1984.88 1388.82 1982.94 1386.15 Q1980.99 1383.47 1977.61 1383.47 Q1974.23 1383.47 1972.29 1386.15 Q1970.37 1388.82 1970.37 1393.52 Z" fill="#000000" fill-rule="evenodd" fill-opacity="1" /><path clip-path="url(#clip600)" d="M2009.7 1393.42 Q2004.54 1393.42 2002.54 1394.6 Q2000.55 1395.78 2000.55 1398.63 Q2000.55 1400.9 2002.04 1402.24 Q2003.54 1403.56 2006.11 1403.56 Q2009.65 1403.56 2011.78 1401.06 Q2013.93 1398.54 2013.93 1394.37 L2013.93 1393.42 L2009.7 1393.42 M2018.19 1391.66 L2018.19 1406.46 L2013.93 1406.46 L2013.93 1402.52 Q2012.48 1404.88 2010.3 1406.02 Q2008.12 1407.13 2004.98 1407.13 Q2000.99 1407.13 1998.63 1404.9 Q1996.29 1402.66 1996.29 1398.91 Q1996.29 1394.53 1999.21 1392.31 Q2002.15 1390.09 2007.96 1390.09 L2013.93 1390.09 L2013.93 1389.67 Q2013.93 1386.73 2011.99 1385.14 Q2010.07 1383.52 2006.57 1383.52 Q2004.35 1383.52 2002.24 1384.05 Q2000.14 1384.58 1998.19 1385.65 L1998.19 1381.71 Q2000.53 1380.81 2002.73 1380.37 Q2004.93 1379.9 2007.01 1379.9 Q2012.64 1379.9 2015.42 1382.82 Q2018.19 1385.74 2018.19 1391.66 Z" fill="#000000" fill-rule="evenodd" fill-opacity="1" /><path clip-path="url(#clip600)" d="M2026.97 1370.44 L2031.23 1370.44 L2031.23 1406.46 L2026.97 1406.46 L2026.97 1370.44 Z" fill="#000000" fill-rule="evenodd" fill-opacity="1" /><path clip-path="url(#clip600)" d="M2071.73 1381.29 L2071.73 1385.32 Q2069.93 1384.4 2067.98 1383.93 Q2066.04 1383.47 2063.96 1383.47 Q2060.79 1383.47 2059.19 1384.44 Q2057.61 1385.41 2057.61 1387.36 Q2057.61 1388.84 2058.75 1389.7 Q2059.88 1390.53 2063.31 1391.29 L2064.77 1391.62 Q2069.3 1392.59 2071.2 1394.37 Q2073.12 1396.13 2073.12 1399.3 Q2073.12 1402.91 2070.25 1405.02 Q2067.41 1407.13 2062.41 1407.13 Q2060.32 1407.13 2058.05 1406.71 Q2055.81 1406.32 2053.31 1405.51 L2053.31 1401.11 Q2055.67 1402.34 2057.96 1402.96 Q2060.25 1403.56 2062.5 1403.56 Q2065.51 1403.56 2067.13 1402.54 Q2068.75 1401.5 2068.75 1399.63 Q2068.75 1397.89 2067.57 1396.96 Q2066.41 1396.04 2062.45 1395.18 L2060.97 1394.84 Q2057.01 1394 2055.25 1392.29 Q2053.49 1390.55 2053.49 1387.54 Q2053.49 1383.89 2056.09 1381.9 Q2058.68 1379.9 2063.45 1379.9 Q2065.81 1379.9 2067.89 1380.25 Q2069.98 1380.6 2071.73 1381.29 Z" fill="#000000" fill-rule="evenodd" fill-opacity="1" /><path clip-path="url(#clip600)" d="M2089.95 1383.52 Q2086.53 1383.52 2084.54 1386.2 Q2082.54 1388.86 2082.54 1393.52 Q2082.54 1398.17 2084.51 1400.85 Q2086.5 1403.52 2089.95 1403.52 Q2093.35 1403.52 2095.35 1400.83 Q2097.34 1398.15 2097.34 1393.52 Q2097.34 1388.91 2095.35 1386.22 Q2093.35 1383.52 2089.95 1383.52 M2089.95 1379.9 Q2095.51 1379.9 2098.68 1383.52 Q2101.85 1387.13 2101.85 1393.52 Q2101.85 1399.88 2098.68 1403.52 Q2095.51 1407.13 2089.95 1407.13 Q2084.37 1407.13 2081.2 1403.52 Q2078.05 1399.88 2078.05 1393.52 Q2078.05 1387.13 2081.2 1383.52 Q2084.37 1379.9 2089.95 1379.9 Z" fill="#000000" fill-rule="evenodd" fill-opacity="1" /><path clip-path="url(#clip600)" d="M2108.91 1370.44 L2113.17 1370.44 L2113.17 1406.46 L2108.91 1406.46 L2108.91 1370.44 Z" fill="#000000" fill-rule="evenodd" fill-opacity="1" /><path clip-path="url(#clip600)" d="M2121.64 1396.22 L2121.64 1380.53 L2125.9 1380.53 L2125.9 1396.06 Q2125.9 1399.74 2127.34 1401.59 Q2128.77 1403.42 2131.64 1403.42 Q2135.09 1403.42 2137.08 1401.22 Q2139.1 1399.02 2139.1 1395.23 L2139.1 1380.53 L2143.35 1380.53 L2143.35 1406.46 L2139.1 1406.46 L2139.1 1402.47 Q2137.54 1404.83 2135.48 1405.99 Q2133.45 1407.13 2130.74 1407.13 Q2126.27 1407.13 2123.96 1404.35 Q2121.64 1401.57 2121.64 1396.22 M2132.36 1379.9 L2132.36 1379.9 Z" fill="#000000" fill-rule="evenodd" fill-opacity="1" /><path clip-path="url(#clip600)" d="M2156.34 1373.17 L2156.34 1380.53 L2165.11 1380.53 L2165.11 1383.84 L2156.34 1383.84 L2156.34 1397.91 Q2156.34 1401.09 2157.2 1401.99 Q2158.08 1402.89 2160.74 1402.89 L2165.11 1402.89 L2165.11 1406.46 L2160.74 1406.46 Q2155.81 1406.46 2153.93 1404.63 Q2152.06 1402.77 2152.06 1397.91 L2152.06 1383.84 L2148.93 1383.84 L2148.93 1380.53 L2152.06 1380.53 L2152.06 1373.17 L2156.34 1373.17 Z" fill="#000000" fill-rule="evenodd" fill-opacity="1" /><path clip-path="url(#clip600)" d="M2170.72 1380.53 L2174.97 1380.53 L2174.97 1406.46 L2170.72 1406.46 L2170.72 1380.53 M2170.72 1370.44 L2174.97 1370.44 L2174.97 1375.83 L2170.72 1375.83 L2170.72 1370.44 Z" fill="#000000" fill-rule="evenodd" fill-opacity="1" /><path clip-path="url(#clip600)" d="M2193.93 1383.52 Q2190.51 1383.52 2188.52 1386.2 Q2186.53 1388.86 2186.53 1393.52 Q2186.53 1398.17 2188.49 1400.85 Q2190.48 1403.52 2193.93 1403.52 Q2197.34 1403.52 2199.33 1400.83 Q2201.32 1398.15 2201.32 1393.52 Q2201.32 1388.91 2199.33 1386.22 Q2197.34 1383.52 2193.93 1383.52 M2193.93 1379.9 Q2199.49 1379.9 2202.66 1383.52 Q2205.83 1387.13 2205.83 1393.52 Q2205.83 1399.88 2202.66 1403.52 Q2199.49 1407.13 2193.93 1407.13 Q2188.35 1407.13 2185.18 1403.52 Q2182.03 1399.88 2182.03 1393.52 Q2182.03 1387.13 2185.18 1383.52 Q2188.35 1379.9 2193.93 1379.9 Z" fill="#000000" fill-rule="evenodd" fill-opacity="1" /><path clip-path="url(#clip600)" d="M2234.44 1390.81 L2234.44 1406.46 L2230.18 1406.46 L2230.18 1390.95 Q2230.18 1387.27 2228.75 1385.44 Q2227.31 1383.61 2224.44 1383.61 Q2220.99 1383.61 2219 1385.81 Q2217.01 1388.01 2217.01 1391.8 L2217.01 1406.46 L2212.73 1406.46 L2212.73 1380.53 L2217.01 1380.53 L2217.01 1384.56 Q2218.54 1382.22 2220.6 1381.06 Q2222.68 1379.9 2225.39 1379.9 Q2229.86 1379.9 2232.15 1382.68 Q2234.44 1385.44 2234.44 1390.81 Z" fill="#000000" fill-rule="evenodd" fill-opacity="1" /></svg>
