<?xml version="1.0" encoding="utf-8"?>
<svg xmlns="http://www.w3.org/2000/svg" xmlns:xlink="http://www.w3.org/1999/xlink" width="600" height="400" viewBox="0 0 2400 1600">
<defs>
  <clipPath id="clip450">
    <rect x="0" y="0" width="2400" height="1600"/>
  </clipPath>
</defs>
<path clip-path="url(#clip450)" d="
M0 1600 L2400 1600 L2400 0 L0 0  Z
  " fill="#ffffff" fill-rule="evenodd" fill-opacity="1"/>
<defs>
  <clipPath id="clip451">
    <rect x="480" y="0" width="1681" height="1600"/>
  </clipPath>
</defs>
<path clip-path="url(#clip450)" d="
M193.936 1486.45 L2352.76 1486.45 L2352.76 47.2441 L193.936 47.2441  Z
  " fill="#ffffff" fill-rule="evenodd" fill-opacity="1"/>
<defs>
  <clipPath id="clip452">
    <rect x="193" y="47" width="2160" height="1440"/>
  </clipPath>
</defs>
<polyline clip-path="url(#clip452)" style="stroke:#000000; stroke-linecap:butt; stroke-linejoin:round; stroke-width:2; stroke-opacity:0.1; fill:none" points="
  255.035,1486.45 255.035,47.2441 
  "/>
<polyline clip-path="url(#clip452)" style="stroke:#000000; stroke-linecap:butt; stroke-linejoin:round; stroke-width:2; stroke-opacity:0.1; fill:none" points="
  764.19,1486.45 764.19,47.2441 
  "/>
<polyline clip-path="url(#clip452)" style="stroke:#000000; stroke-linecap:butt; stroke-linejoin:round; stroke-width:2; stroke-opacity:0.1; fill:none" points="
  1273.35,1486.45 1273.35,47.2441 
  "/>
<polyline clip-path="url(#clip452)" style="stroke:#000000; stroke-linecap:butt; stroke-linejoin:round; stroke-width:2; stroke-opacity:0.1; fill:none" points="
  1782.5,1486.45 1782.5,47.2441 
  "/>
<polyline clip-path="url(#clip452)" style="stroke:#000000; stroke-linecap:butt; stroke-linejoin:round; stroke-width:2; stroke-opacity:0.1; fill:none" points="
  2291.66,1486.45 2291.66,47.2441 
  "/>
<polyline clip-path="url(#clip450)" style="stroke:#000000; stroke-linecap:butt; stroke-linejoin:round; stroke-width:4; stroke-opacity:1; fill:none" points="
  193.936,1486.45 2352.76,1486.45 
  "/>
<polyline clip-path="url(#clip450)" style="stroke:#000000; stroke-linecap:butt; stroke-linejoin:round; stroke-width:4; stroke-opacity:1; fill:none" points="
  255.035,1486.45 255.035,1467.55 
  "/>
<polyline clip-path="url(#clip450)" style="stroke:#000000; stroke-linecap:butt; stroke-linejoin:round; stroke-width:4; stroke-opacity:1; fill:none" points="
  764.19,1486.45 764.19,1467.55 
  "/>
<polyline clip-path="url(#clip450)" style="stroke:#000000; stroke-linecap:butt; stroke-linejoin:round; stroke-width:4; stroke-opacity:1; fill:none" points="
  1273.35,1486.45 1273.35,1467.55 
  "/>
<polyline clip-path="url(#clip450)" style="stroke:#000000; stroke-linecap:butt; stroke-linejoin:round; stroke-width:4; stroke-opacity:1; fill:none" points="
  1782.5,1486.45 1782.5,1467.55 
  "/>
<polyline clip-path="url(#clip450)" style="stroke:#000000; stroke-linecap:butt; stroke-linejoin:round; stroke-width:4; stroke-opacity:1; fill:none" points="
  2291.66,1486.45 2291.66,1467.55 
  "/>
<path clip-path="url(#clip450)" d="M201.563 1532.02 L231.239 1532.02 L231.239 1535.95 L201.563 1535.95 L201.563 1532.02 Z" fill="#000000" fill-rule="evenodd" fill-opacity="1" /><path clip-path="url(#clip450)" d="M242.141 1544.91 L249.78 1544.91 L249.78 1518.55 L241.47 1520.21 L241.47 1515.95 L249.734 1514.29 L254.41 1514.29 L254.41 1544.91 L262.049 1544.91 L262.049 1548.85 L242.141 1548.85 L242.141 1544.91 Z" fill="#000000" fill-rule="evenodd" fill-opacity="1" /><path clip-path="url(#clip450)" d="M271.493 1542.97 L276.377 1542.97 L276.377 1548.85 L271.493 1548.85 L271.493 1542.97 Z" fill="#000000" fill-rule="evenodd" fill-opacity="1" /><path clip-path="url(#clip450)" d="M296.562 1517.37 Q292.951 1517.37 291.122 1520.93 Q289.317 1524.47 289.317 1531.6 Q289.317 1538.71 291.122 1542.27 Q292.951 1545.82 296.562 1545.82 Q300.196 1545.82 302.002 1542.27 Q303.831 1538.71 303.831 1531.6 Q303.831 1524.47 302.002 1520.93 Q300.196 1517.37 296.562 1517.37 M296.562 1513.66 Q302.372 1513.66 305.428 1518.27 Q308.507 1522.85 308.507 1531.6 Q308.507 1540.33 305.428 1544.94 Q302.372 1549.52 296.562 1549.52 Q290.752 1549.52 287.673 1544.94 Q284.618 1540.33 284.618 1531.6 Q284.618 1522.85 287.673 1518.27 Q290.752 1513.66 296.562 1513.66 Z" fill="#000000" fill-rule="evenodd" fill-opacity="1" /><path clip-path="url(#clip450)" d="M711.216 1532.02 L740.892 1532.02 L740.892 1535.95 L711.216 1535.95 L711.216 1532.02 Z" fill="#000000" fill-rule="evenodd" fill-opacity="1" /><path clip-path="url(#clip450)" d="M760.984 1517.37 Q757.373 1517.37 755.545 1520.93 Q753.739 1524.47 753.739 1531.6 Q753.739 1538.71 755.545 1542.27 Q757.373 1545.82 760.984 1545.82 Q764.619 1545.82 766.424 1542.27 Q768.253 1538.71 768.253 1531.6 Q768.253 1524.47 766.424 1520.93 Q764.619 1517.37 760.984 1517.37 M760.984 1513.66 Q766.794 1513.66 769.85 1518.27 Q772.929 1522.85 772.929 1531.6 Q772.929 1540.33 769.85 1544.94 Q766.794 1549.52 760.984 1549.52 Q755.174 1549.52 752.095 1544.94 Q749.04 1540.33 749.04 1531.6 Q749.04 1522.85 752.095 1518.27 Q755.174 1513.66 760.984 1513.66 Z" fill="#000000" fill-rule="evenodd" fill-opacity="1" /><path clip-path="url(#clip450)" d="M781.146 1542.97 L786.03 1542.97 L786.03 1548.85 L781.146 1548.85 L781.146 1542.97 Z" fill="#000000" fill-rule="evenodd" fill-opacity="1" /><path clip-path="url(#clip450)" d="M796.262 1514.29 L814.618 1514.29 L814.618 1518.22 L800.544 1518.22 L800.544 1526.7 Q801.563 1526.35 802.581 1526.19 Q803.6 1526 804.618 1526 Q810.405 1526 813.785 1529.17 Q817.165 1532.34 817.165 1537.76 Q817.165 1543.34 813.692 1546.44 Q810.22 1549.52 803.901 1549.52 Q801.725 1549.52 799.456 1549.15 Q797.211 1548.78 794.804 1548.04 L794.804 1543.34 Q796.887 1544.47 799.109 1545.03 Q801.331 1545.58 803.808 1545.58 Q807.813 1545.58 810.151 1543.48 Q812.489 1541.37 812.489 1537.76 Q812.489 1534.15 810.151 1532.04 Q807.813 1529.94 803.808 1529.94 Q801.933 1529.94 800.058 1530.35 Q798.206 1530.77 796.262 1531.65 L796.262 1514.29 Z" fill="#000000" fill-rule="evenodd" fill-opacity="1" /><path clip-path="url(#clip450)" d="M1250.73 1517.37 Q1247.12 1517.37 1245.29 1520.93 Q1243.49 1524.47 1243.49 1531.6 Q1243.49 1538.71 1245.29 1542.27 Q1247.12 1545.82 1250.73 1545.82 Q1254.36 1545.82 1256.17 1542.27 Q1258 1538.71 1258 1531.6 Q1258 1524.47 1256.17 1520.93 Q1254.36 1517.37 1250.73 1517.37 M1250.73 1513.66 Q1256.54 1513.66 1259.6 1518.27 Q1262.67 1522.85 1262.67 1531.6 Q1262.67 1540.33 1259.6 1544.94 Q1256.54 1549.52 1250.73 1549.52 Q1244.92 1549.52 1241.84 1544.94 Q1238.79 1540.33 1238.79 1531.6 Q1238.79 1522.85 1241.84 1518.27 Q1244.92 1513.66 1250.73 1513.66 Z" fill="#000000" fill-rule="evenodd" fill-opacity="1" /><path clip-path="url(#clip450)" d="M1270.89 1542.97 L1275.78 1542.97 L1275.78 1548.85 L1270.89 1548.85 L1270.89 1542.97 Z" fill="#000000" fill-rule="evenodd" fill-opacity="1" /><path clip-path="url(#clip450)" d="M1295.96 1517.37 Q1292.35 1517.37 1290.52 1520.93 Q1288.72 1524.47 1288.72 1531.6 Q1288.72 1538.71 1290.52 1542.27 Q1292.35 1545.82 1295.96 1545.82 Q1299.6 1545.82 1301.4 1542.27 Q1303.23 1538.71 1303.23 1531.6 Q1303.23 1524.47 1301.4 1520.93 Q1299.6 1517.37 1295.96 1517.37 M1295.96 1513.66 Q1301.77 1513.66 1304.83 1518.27 Q1307.91 1522.85 1307.91 1531.6 Q1307.91 1540.33 1304.83 1544.94 Q1301.77 1549.52 1295.96 1549.52 Q1290.15 1549.52 1287.07 1544.94 Q1284.02 1540.33 1284.02 1531.6 Q1284.02 1522.85 1287.07 1518.27 Q1290.15 1513.66 1295.96 1513.66 Z" fill="#000000" fill-rule="evenodd" fill-opacity="1" /><path clip-path="url(#clip450)" d="M1760.38 1517.37 Q1756.77 1517.37 1754.94 1520.93 Q1753.14 1524.47 1753.14 1531.6 Q1753.14 1538.71 1754.94 1542.27 Q1756.77 1545.82 1760.38 1545.82 Q1764.02 1545.82 1765.82 1542.27 Q1767.65 1538.71 1767.65 1531.6 Q1767.65 1524.47 1765.82 1520.93 Q1764.02 1517.37 1760.38 1517.37 M1760.38 1513.66 Q1766.19 1513.66 1769.25 1518.27 Q1772.33 1522.85 1772.33 1531.6 Q1772.33 1540.33 1769.25 1544.94 Q1766.19 1549.52 1760.38 1549.52 Q1754.57 1549.52 1751.49 1544.94 Q1748.44 1540.33 1748.44 1531.6 Q1748.44 1522.85 1751.49 1518.27 Q1754.57 1513.66 1760.38 1513.66 Z" fill="#000000" fill-rule="evenodd" fill-opacity="1" /><path clip-path="url(#clip450)" d="M1780.55 1542.97 L1785.43 1542.97 L1785.43 1548.85 L1780.55 1548.85 L1780.55 1542.97 Z" fill="#000000" fill-rule="evenodd" fill-opacity="1" /><path clip-path="url(#clip450)" d="M1795.66 1514.29 L1814.02 1514.29 L1814.02 1518.22 L1799.94 1518.22 L1799.94 1526.7 Q1800.96 1526.35 1801.98 1526.19 Q1803 1526 1804.02 1526 Q1809.8 1526 1813.18 1529.17 Q1816.56 1532.34 1816.56 1537.76 Q1816.56 1543.34 1813.09 1546.44 Q1809.62 1549.52 1803.3 1549.52 Q1801.12 1549.52 1798.86 1549.15 Q1796.61 1548.78 1794.2 1548.04 L1794.2 1543.34 Q1796.29 1544.47 1798.51 1545.03 Q1800.73 1545.58 1803.21 1545.58 Q1807.21 1545.58 1809.55 1543.48 Q1811.89 1541.37 1811.89 1537.76 Q1811.89 1534.15 1809.55 1532.04 Q1807.21 1529.94 1803.21 1529.94 Q1801.33 1529.94 1799.46 1530.35 Q1797.61 1530.77 1795.66 1531.65 L1795.66 1514.29 Z" fill="#000000" fill-rule="evenodd" fill-opacity="1" /><path clip-path="url(#clip450)" d="M2258.81 1544.91 L2266.45 1544.91 L2266.45 1518.55 L2258.14 1520.21 L2258.14 1515.95 L2266.4 1514.29 L2271.08 1514.29 L2271.08 1544.91 L2278.72 1544.91 L2278.72 1548.85 L2258.81 1548.85 L2258.81 1544.91 Z" fill="#000000" fill-rule="evenodd" fill-opacity="1" /><path clip-path="url(#clip450)" d="M2288.16 1542.97 L2293.05 1542.97 L2293.05 1548.85 L2288.16 1548.85 L2288.16 1542.97 Z" fill="#000000" fill-rule="evenodd" fill-opacity="1" /><path clip-path="url(#clip450)" d="M2313.23 1517.37 Q2309.62 1517.37 2307.79 1520.93 Q2305.99 1524.47 2305.99 1531.6 Q2305.99 1538.71 2307.79 1542.27 Q2309.62 1545.82 2313.23 1545.82 Q2316.87 1545.82 2318.67 1542.27 Q2320.5 1538.71 2320.5 1531.6 Q2320.5 1524.47 2318.67 1520.93 Q2316.87 1517.37 2313.23 1517.37 M2313.23 1513.66 Q2319.04 1513.66 2322.1 1518.27 Q2325.18 1522.85 2325.18 1531.6 Q2325.18 1540.33 2322.1 1544.94 Q2319.04 1549.52 2313.23 1549.52 Q2307.42 1549.52 2304.34 1544.94 Q2301.29 1540.33 2301.29 1531.6 Q2301.29 1522.85 2304.34 1518.27 Q2307.42 1513.66 2313.23 1513.66 Z" fill="#000000" fill-rule="evenodd" fill-opacity="1" /><polyline clip-path="url(#clip452)" style="stroke:#000000; stroke-linecap:butt; stroke-linejoin:round; stroke-width:2; stroke-opacity:0.1; fill:none" points="
  193.936,1470.93 2352.76,1470.93 
  "/>
<polyline clip-path="url(#clip452)" style="stroke:#000000; stroke-linecap:butt; stroke-linejoin:round; stroke-width:2; stroke-opacity:0.1; fill:none" points="
  193.936,1120.49 2352.76,1120.49 
  "/>
<polyline clip-path="url(#clip452)" style="stroke:#000000; stroke-linecap:butt; stroke-linejoin:round; stroke-width:2; stroke-opacity:0.1; fill:none" points="
  193.936,770.062 2352.76,770.062 
  "/>
<polyline clip-path="url(#clip452)" style="stroke:#000000; stroke-linecap:butt; stroke-linejoin:round; stroke-width:2; stroke-opacity:0.1; fill:none" points="
  193.936,419.63 2352.76,419.63 
  "/>
<polyline clip-path="url(#clip452)" style="stroke:#000000; stroke-linecap:butt; stroke-linejoin:round; stroke-width:2; stroke-opacity:0.1; fill:none" points="
  193.936,69.1971 2352.76,69.1971 
  "/>
<polyline clip-path="url(#clip450)" style="stroke:#000000; stroke-linecap:butt; stroke-linejoin:round; stroke-width:4; stroke-opacity:1; fill:none" points="
  193.936,1486.45 193.936,47.2441 
  "/>
<polyline clip-path="url(#clip450)" style="stroke:#000000; stroke-linecap:butt; stroke-linejoin:round; stroke-width:4; stroke-opacity:1; fill:none" points="
  193.936,1470.93 212.834,1470.93 
  "/>
<polyline clip-path="url(#clip450)" style="stroke:#000000; stroke-linecap:butt; stroke-linejoin:round; stroke-width:4; stroke-opacity:1; fill:none" points="
  193.936,1120.49 212.834,1120.49 
  "/>
<polyline clip-path="url(#clip450)" style="stroke:#000000; stroke-linecap:butt; stroke-linejoin:round; stroke-width:4; stroke-opacity:1; fill:none" points="
  193.936,770.062 212.834,770.062 
  "/>
<polyline clip-path="url(#clip450)" style="stroke:#000000; stroke-linecap:butt; stroke-linejoin:round; stroke-width:4; stroke-opacity:1; fill:none" points="
  193.936,419.63 212.834,419.63 
  "/>
<polyline clip-path="url(#clip450)" style="stroke:#000000; stroke-linecap:butt; stroke-linejoin:round; stroke-width:4; stroke-opacity:1; fill:none" points="
  193.936,69.1971 212.834,69.1971 
  "/>
<path clip-path="url(#clip450)" d="M50.9921 1471.38 L80.6679 1471.38 L80.6679 1475.31 L50.9921 1475.31 L50.9921 1471.38 Z" fill="#000000" fill-rule="evenodd" fill-opacity="1" /><path clip-path="url(#clip450)" d="M91.5706 1484.27 L99.2095 1484.27 L99.2095 1457.91 L90.8993 1459.57 L90.8993 1455.31 L99.1632 1453.65 L103.839 1453.65 L103.839 1484.27 L111.478 1484.27 L111.478 1488.21 L91.5706 1488.21 L91.5706 1484.27 Z" fill="#000000" fill-rule="evenodd" fill-opacity="1" /><path clip-path="url(#clip450)" d="M120.922 1482.33 L125.807 1482.33 L125.807 1488.21 L120.922 1488.21 L120.922 1482.33 Z" fill="#000000" fill-rule="evenodd" fill-opacity="1" /><path clip-path="url(#clip450)" d="M145.992 1456.73 Q142.381 1456.73 140.552 1460.29 Q138.746 1463.83 138.746 1470.96 Q138.746 1478.07 140.552 1481.63 Q142.381 1485.18 145.992 1485.18 Q149.626 1485.18 151.431 1481.63 Q153.26 1478.07 153.26 1470.96 Q153.26 1463.83 151.431 1460.29 Q149.626 1456.73 145.992 1456.73 M145.992 1453.02 Q151.802 1453.02 154.857 1457.63 Q157.936 1462.21 157.936 1470.96 Q157.936 1479.69 154.857 1484.3 Q151.802 1488.88 145.992 1488.88 Q140.181 1488.88 137.103 1484.3 Q134.047 1479.69 134.047 1470.96 Q134.047 1462.21 137.103 1457.63 Q140.181 1453.02 145.992 1453.02 Z" fill="#000000" fill-rule="evenodd" fill-opacity="1" /><path clip-path="url(#clip450)" d="M51.9875 1120.95 L81.6633 1120.95 L81.6633 1124.88 L51.9875 1124.88 L51.9875 1120.95 Z" fill="#000000" fill-rule="evenodd" fill-opacity="1" /><path clip-path="url(#clip450)" d="M101.756 1106.29 Q98.1447 1106.29 96.316 1109.86 Q94.5104 1113.4 94.5104 1120.53 Q94.5104 1127.64 96.316 1131.2 Q98.1447 1134.74 101.756 1134.74 Q105.39 1134.74 107.196 1131.2 Q109.024 1127.64 109.024 1120.53 Q109.024 1113.4 107.196 1109.86 Q105.39 1106.29 101.756 1106.29 M101.756 1102.59 Q107.566 1102.59 110.621 1107.2 Q113.7 1111.78 113.7 1120.53 Q113.7 1129.26 110.621 1133.86 Q107.566 1138.45 101.756 1138.45 Q95.9456 1138.45 92.8669 1133.86 Q89.8114 1129.26 89.8114 1120.53 Q89.8114 1111.78 92.8669 1107.2 Q95.9456 1102.59 101.756 1102.59 Z" fill="#000000" fill-rule="evenodd" fill-opacity="1" /><path clip-path="url(#clip450)" d="M121.918 1131.9 L126.802 1131.9 L126.802 1137.77 L121.918 1137.77 L121.918 1131.9 Z" fill="#000000" fill-rule="evenodd" fill-opacity="1" /><path clip-path="url(#clip450)" d="M137.033 1103.21 L155.39 1103.21 L155.39 1107.15 L141.316 1107.15 L141.316 1115.62 Q142.334 1115.28 143.353 1115.11 Q144.371 1114.93 145.39 1114.93 Q151.177 1114.93 154.556 1118.1 Q157.936 1121.27 157.936 1126.69 Q157.936 1132.27 154.464 1135.37 Q150.992 1138.45 144.672 1138.45 Q142.496 1138.45 140.228 1138.08 Q137.982 1137.71 135.575 1136.96 L135.575 1132.27 Q137.658 1133.4 139.881 1133.96 Q142.103 1134.51 144.58 1134.51 Q148.584 1134.51 150.922 1132.4 Q153.26 1130.3 153.26 1126.69 Q153.26 1123.08 150.922 1120.97 Q148.584 1118.86 144.58 1118.86 Q142.705 1118.86 140.83 1119.28 Q138.978 1119.7 137.033 1120.58 L137.033 1103.21 Z" fill="#000000" fill-rule="evenodd" fill-opacity="1" /><path clip-path="url(#clip450)" d="M100.76 755.861 Q97.1493 755.861 95.3206 759.426 Q93.515 762.967 93.515 770.097 Q93.515 777.203 95.3206 780.768 Q97.1493 784.31 100.76 784.31 Q104.395 784.31 106.2 780.768 Q108.029 777.203 108.029 770.097 Q108.029 762.967 106.2 759.426 Q104.395 755.861 100.76 755.861 M100.76 752.157 Q106.571 752.157 109.626 756.764 Q112.705 761.347 112.705 770.097 Q112.705 778.824 109.626 783.43 Q106.571 788.014 100.76 788.014 Q94.9502 788.014 91.8715 783.43 Q88.816 778.824 88.816 770.097 Q88.816 761.347 91.8715 756.764 Q94.9502 752.157 100.76 752.157 Z" fill="#000000" fill-rule="evenodd" fill-opacity="1" /><path clip-path="url(#clip450)" d="M120.922 781.463 L125.807 781.463 L125.807 787.342 L120.922 787.342 L120.922 781.463 Z" fill="#000000" fill-rule="evenodd" fill-opacity="1" /><path clip-path="url(#clip450)" d="M145.992 755.861 Q142.381 755.861 140.552 759.426 Q138.746 762.967 138.746 770.097 Q138.746 777.203 140.552 780.768 Q142.381 784.31 145.992 784.31 Q149.626 784.31 151.431 780.768 Q153.26 777.203 153.26 770.097 Q153.26 762.967 151.431 759.426 Q149.626 755.861 145.992 755.861 M145.992 752.157 Q151.802 752.157 154.857 756.764 Q157.936 761.347 157.936 770.097 Q157.936 778.824 154.857 783.43 Q151.802 788.014 145.992 788.014 Q140.181 788.014 137.103 783.43 Q134.047 778.824 134.047 770.097 Q134.047 761.347 137.103 756.764 Q140.181 752.157 145.992 752.157 Z" fill="#000000" fill-rule="evenodd" fill-opacity="1" /><path clip-path="url(#clip450)" d="M101.756 405.428 Q98.1447 405.428 96.316 408.993 Q94.5104 412.535 94.5104 419.664 Q94.5104 426.771 96.316 430.336 Q98.1447 433.877 101.756 433.877 Q105.39 433.877 107.196 430.336 Q109.024 426.771 109.024 419.664 Q109.024 412.535 107.196 408.993 Q105.39 405.428 101.756 405.428 M101.756 401.725 Q107.566 401.725 110.621 406.331 Q113.7 410.914 113.7 419.664 Q113.7 428.391 110.621 432.998 Q107.566 437.581 101.756 437.581 Q95.9456 437.581 92.8669 432.998 Q89.8114 428.391 89.8114 419.664 Q89.8114 410.914 92.8669 406.331 Q95.9456 401.725 101.756 401.725 Z" fill="#000000" fill-rule="evenodd" fill-opacity="1" /><path clip-path="url(#clip450)" d="M121.918 431.03 L126.802 431.03 L126.802 436.91 L121.918 436.91 L121.918 431.03 Z" fill="#000000" fill-rule="evenodd" fill-opacity="1" /><path clip-path="url(#clip450)" d="M137.033 402.35 L155.39 402.35 L155.39 406.285 L141.316 406.285 L141.316 414.757 Q142.334 414.41 143.353 414.248 Q144.371 414.063 145.39 414.063 Q151.177 414.063 154.556 417.234 Q157.936 420.405 157.936 425.822 Q157.936 431.4 154.464 434.502 Q150.992 437.581 144.672 437.581 Q142.496 437.581 140.228 437.211 Q137.982 436.84 135.575 436.1 L135.575 431.4 Q137.658 432.535 139.881 433.09 Q142.103 433.646 144.58 433.646 Q148.584 433.646 150.922 431.539 Q153.26 429.433 153.26 425.822 Q153.26 422.211 150.922 420.104 Q148.584 417.998 144.58 417.998 Q142.705 417.998 140.83 418.414 Q138.978 418.831 137.033 419.711 L137.033 402.35 Z" fill="#000000" fill-rule="evenodd" fill-opacity="1" /><path clip-path="url(#clip450)" d="M91.5706 82.5419 L99.2095 82.5419 L99.2095 56.1763 L90.8993 57.843 L90.8993 53.5838 L99.1632 51.9171 L103.839 51.9171 L103.839 82.5419 L111.478 82.5419 L111.478 86.4771 L91.5706 86.4771 L91.5706 82.5419 Z" fill="#000000" fill-rule="evenodd" fill-opacity="1" /><path clip-path="url(#clip450)" d="M120.922 80.5975 L125.807 80.5975 L125.807 86.4771 L120.922 86.4771 L120.922 80.5975 Z" fill="#000000" fill-rule="evenodd" fill-opacity="1" /><path clip-path="url(#clip450)" d="M145.992 54.9958 Q142.381 54.9958 140.552 58.5606 Q138.746 62.1022 138.746 69.2318 Q138.746 76.3383 140.552 79.9031 Q142.381 83.4447 145.992 83.4447 Q149.626 83.4447 151.431 79.9031 Q153.26 76.3383 153.26 69.2318 Q153.26 62.1022 151.431 58.5606 Q149.626 54.9958 145.992 54.9958 M145.992 51.2921 Q151.802 51.2921 154.857 55.8986 Q157.936 60.4819 157.936 69.2318 Q157.936 77.9586 154.857 82.5651 Q151.802 87.1484 145.992 87.1484 Q140.181 87.1484 137.103 82.5651 Q134.047 77.9586 134.047 69.2318 Q134.047 60.4819 137.103 55.8986 Q140.181 51.2921 145.992 51.2921 Z" fill="#000000" fill-rule="evenodd" fill-opacity="1" /><polyline clip-path="url(#clip452)" style="stroke:#009af9; stroke-linecap:butt; stroke-linejoin:round; stroke-width:12; stroke-opacity:1; fill:none" points="
  255.035,1445.72 296.283,1441.2 416.688,1423.61 606.494,1374.62 850.324,1245.43 1128.43,961.778 1418.27,571.914 1696.37,288.26 1940.2,159.075 2130,110.084 
  2250.41,92.4969 2291.66,87.9763 
  "/>
<line clip-path="url(#clip452)" x1="255.035" y1="1445.72" x2="255.035" y2="1429.72" style="stroke:#009af9; stroke-width:3.2; stroke-opacity:1"/>
<line clip-path="url(#clip452)" x1="255.035" y1="1445.72" x2="239.035" y2="1445.72" style="stroke:#009af9; stroke-width:3.2; stroke-opacity:1"/>
<line clip-path="url(#clip452)" x1="255.035" y1="1445.72" x2="255.035" y2="1461.72" style="stroke:#009af9; stroke-width:3.2; stroke-opacity:1"/>
<line clip-path="url(#clip452)" x1="255.035" y1="1445.72" x2="271.035" y2="1445.72" style="stroke:#009af9; stroke-width:3.2; stroke-opacity:1"/>
<line clip-path="url(#clip452)" x1="296.283" y1="1441.2" x2="296.283" y2="1425.2" style="stroke:#009af9; stroke-width:3.2; stroke-opacity:1"/>
<line clip-path="url(#clip452)" x1="296.283" y1="1441.2" x2="280.283" y2="1441.2" style="stroke:#009af9; stroke-width:3.2; stroke-opacity:1"/>
<line clip-path="url(#clip452)" x1="296.283" y1="1441.2" x2="296.283" y2="1457.2" style="stroke:#009af9; stroke-width:3.2; stroke-opacity:1"/>
<line clip-path="url(#clip452)" x1="296.283" y1="1441.2" x2="312.283" y2="1441.2" style="stroke:#009af9; stroke-width:3.2; stroke-opacity:1"/>
<line clip-path="url(#clip452)" x1="416.688" y1="1423.61" x2="416.688" y2="1407.61" style="stroke:#009af9; stroke-width:3.2; stroke-opacity:1"/>
<line clip-path="url(#clip452)" x1="416.688" y1="1423.61" x2="400.688" y2="1423.61" style="stroke:#009af9; stroke-width:3.2; stroke-opacity:1"/>
<line clip-path="url(#clip452)" x1="416.688" y1="1423.61" x2="416.688" y2="1439.61" style="stroke:#009af9; stroke-width:3.2; stroke-opacity:1"/>
<line clip-path="url(#clip452)" x1="416.688" y1="1423.61" x2="432.688" y2="1423.61" style="stroke:#009af9; stroke-width:3.2; stroke-opacity:1"/>
<line clip-path="url(#clip452)" x1="606.494" y1="1374.62" x2="606.494" y2="1358.62" style="stroke:#009af9; stroke-width:3.2; stroke-opacity:1"/>
<line clip-path="url(#clip452)" x1="606.494" y1="1374.62" x2="590.494" y2="1374.62" style="stroke:#009af9; stroke-width:3.2; stroke-opacity:1"/>
<line clip-path="url(#clip452)" x1="606.494" y1="1374.62" x2="606.494" y2="1390.62" style="stroke:#009af9; stroke-width:3.2; stroke-opacity:1"/>
<line clip-path="url(#clip452)" x1="606.494" y1="1374.62" x2="622.494" y2="1374.62" style="stroke:#009af9; stroke-width:3.2; stroke-opacity:1"/>
<line clip-path="url(#clip452)" x1="850.324" y1="1245.43" x2="850.324" y2="1229.43" style="stroke:#009af9; stroke-width:3.2; stroke-opacity:1"/>
<line clip-path="url(#clip452)" x1="850.324" y1="1245.43" x2="834.324" y2="1245.43" style="stroke:#009af9; stroke-width:3.2; stroke-opacity:1"/>
<line clip-path="url(#clip452)" x1="850.324" y1="1245.43" x2="850.324" y2="1261.43" style="stroke:#009af9; stroke-width:3.2; stroke-opacity:1"/>
<line clip-path="url(#clip452)" x1="850.324" y1="1245.43" x2="866.324" y2="1245.43" style="stroke:#009af9; stroke-width:3.2; stroke-opacity:1"/>
<line clip-path="url(#clip452)" x1="1128.43" y1="961.778" x2="1128.43" y2="945.778" style="stroke:#009af9; stroke-width:3.2; stroke-opacity:1"/>
<line clip-path="url(#clip452)" x1="1128.43" y1="961.778" x2="1112.43" y2="961.778" style="stroke:#009af9; stroke-width:3.2; stroke-opacity:1"/>
<line clip-path="url(#clip452)" x1="1128.43" y1="961.778" x2="1128.43" y2="977.778" style="stroke:#009af9; stroke-width:3.2; stroke-opacity:1"/>
<line clip-path="url(#clip452)" x1="1128.43" y1="961.778" x2="1144.43" y2="961.778" style="stroke:#009af9; stroke-width:3.2; stroke-opacity:1"/>
<line clip-path="url(#clip452)" x1="1418.27" y1="571.914" x2="1418.27" y2="555.914" style="stroke:#009af9; stroke-width:3.2; stroke-opacity:1"/>
<line clip-path="url(#clip452)" x1="1418.27" y1="571.914" x2="1402.27" y2="571.914" style="stroke:#009af9; stroke-width:3.2; stroke-opacity:1"/>
<line clip-path="url(#clip452)" x1="1418.27" y1="571.914" x2="1418.27" y2="587.914" style="stroke:#009af9; stroke-width:3.2; stroke-opacity:1"/>
<line clip-path="url(#clip452)" x1="1418.27" y1="571.914" x2="1434.27" y2="571.914" style="stroke:#009af9; stroke-width:3.2; stroke-opacity:1"/>
<line clip-path="url(#clip452)" x1="1696.37" y1="288.26" x2="1696.37" y2="272.26" style="stroke:#009af9; stroke-width:3.2; stroke-opacity:1"/>
<line clip-path="url(#clip452)" x1="1696.37" y1="288.26" x2="1680.37" y2="288.26" style="stroke:#009af9; stroke-width:3.2; stroke-opacity:1"/>
<line clip-path="url(#clip452)" x1="1696.37" y1="288.26" x2="1696.37" y2="304.26" style="stroke:#009af9; stroke-width:3.2; stroke-opacity:1"/>
<line clip-path="url(#clip452)" x1="1696.37" y1="288.26" x2="1712.37" y2="288.26" style="stroke:#009af9; stroke-width:3.2; stroke-opacity:1"/>
<line clip-path="url(#clip452)" x1="1940.2" y1="159.075" x2="1940.2" y2="143.075" style="stroke:#009af9; stroke-width:3.2; stroke-opacity:1"/>
<line clip-path="url(#clip452)" x1="1940.2" y1="159.075" x2="1924.2" y2="159.075" style="stroke:#009af9; stroke-width:3.2; stroke-opacity:1"/>
<line clip-path="url(#clip452)" x1="1940.2" y1="159.075" x2="1940.2" y2="175.075" style="stroke:#009af9; stroke-width:3.2; stroke-opacity:1"/>
<line clip-path="url(#clip452)" x1="1940.2" y1="159.075" x2="1956.2" y2="159.075" style="stroke:#009af9; stroke-width:3.2; stroke-opacity:1"/>
<line clip-path="url(#clip452)" x1="2130" y1="110.084" x2="2130" y2="94.0839" style="stroke:#009af9; stroke-width:3.2; stroke-opacity:1"/>
<line clip-path="url(#clip452)" x1="2130" y1="110.084" x2="2114" y2="110.084" style="stroke:#009af9; stroke-width:3.2; stroke-opacity:1"/>
<line clip-path="url(#clip452)" x1="2130" y1="110.084" x2="2130" y2="126.084" style="stroke:#009af9; stroke-width:3.2; stroke-opacity:1"/>
<line clip-path="url(#clip452)" x1="2130" y1="110.084" x2="2146" y2="110.084" style="stroke:#009af9; stroke-width:3.2; stroke-opacity:1"/>
<line clip-path="url(#clip452)" x1="2250.41" y1="92.4969" x2="2250.41" y2="76.4969" style="stroke:#009af9; stroke-width:3.2; stroke-opacity:1"/>
<line clip-path="url(#clip452)" x1="2250.41" y1="92.4969" x2="2234.41" y2="92.4969" style="stroke:#009af9; stroke-width:3.2; stroke-opacity:1"/>
<line clip-path="url(#clip452)" x1="2250.41" y1="92.4969" x2="2250.41" y2="108.497" style="stroke:#009af9; stroke-width:3.2; stroke-opacity:1"/>
<line clip-path="url(#clip452)" x1="2250.41" y1="92.4969" x2="2266.41" y2="92.4969" style="stroke:#009af9; stroke-width:3.2; stroke-opacity:1"/>
<line clip-path="url(#clip452)" x1="2291.66" y1="87.9763" x2="2291.66" y2="71.9763" style="stroke:#009af9; stroke-width:3.2; stroke-opacity:1"/>
<line clip-path="url(#clip452)" x1="2291.66" y1="87.9763" x2="2275.66" y2="87.9763" style="stroke:#009af9; stroke-width:3.2; stroke-opacity:1"/>
<line clip-path="url(#clip452)" x1="2291.66" y1="87.9763" x2="2291.66" y2="103.976" style="stroke:#009af9; stroke-width:3.2; stroke-opacity:1"/>
<line clip-path="url(#clip452)" x1="2291.66" y1="87.9763" x2="2307.66" y2="87.9763" style="stroke:#009af9; stroke-width:3.2; stroke-opacity:1"/>
<polyline clip-path="url(#clip452)" style="stroke:#e26f46; stroke-linecap:butt; stroke-linejoin:round; stroke-width:12; stroke-opacity:1; fill:none" points="
  255.035,1445.72 261.664,1445.06 268.294,1444.39 329.596,1437.34 390.898,1428.47 427.737,1422.1 464.577,1414.8 495.725,1407.82 526.872,1400.02 560.707,1390.52 
  594.542,1379.83 625.735,1368.83 656.928,1356.6 690.37,1342.03 723.812,1325.81 762.558,1304.78 801.304,1281.16 835.737,1257.86 870.17,1232.25 900.364,1207.84 
  930.558,1181.55 963.478,1150.73 996.398,1117.66 1029.51,1082.2 1062.63,1044.62 1099.24,1000.8 1135.86,954.849 1170.69,909.481 1205.53,862.863 1277.98,763.689 
  1338.96,680.241 1376.19,630.395 1413.41,581.979 1447.51,539.249 1481.62,498.361 1513.11,462.429 1544.61,428.395 1576.51,395.948 1608.42,365.599 1644.17,334.1 
  1679.93,305.234 1712.33,281.295 1744.73,259.387 1781.83,236.679 1818.92,216.353 1853.27,199.506 1887.62,184.411 1921.48,171.105 1955.34,159.227 1988.22,148.94 
  2021.1,139.765 2054.8,131.403 2088.51,123.991 2125.44,116.844 2162.36,110.6 2216,102.923 2269.65,96.6411 2280.65,95.5018 2291.66,94.4089 
  "/>
<path clip-path="url(#clip450)" d="
M1988.5 1438.47 L2280.8 1438.47 L2280.8 1282.95 L1988.5 1282.95  Z
  " fill="#ffffff" fill-rule="evenodd" fill-opacity="1"/>
<polyline clip-path="url(#clip450)" style="stroke:#000000; stroke-linecap:butt; stroke-linejoin:round; stroke-width:4; stroke-opacity:1; fill:none" points="
  1988.5,1438.47 2280.8,1438.47 2280.8,1282.95 1988.5,1282.95 1988.5,1438.47 
  "/>
<polyline clip-path="url(#clip450)" style="stroke:#009af9; stroke-linecap:butt; stroke-linejoin:round; stroke-width:4; stroke-opacity:1; fill:none" points="
  2012.48,1334.79 2156.4,1334.79 
  "/>
<line clip-path="url(#clip450)" x1="2084.44" y1="1334.79" x2="2084.44" y2="1309.19" style="stroke:#009af9; stroke-width:5.12; stroke-opacity:1"/>
<line clip-path="url(#clip450)" x1="2084.44" y1="1334.79" x2="2058.84" y2="1334.79" style="stroke:#009af9; stroke-width:5.12; stroke-opacity:1"/>
<line clip-path="url(#clip450)" x1="2084.44" y1="1334.79" x2="2084.44" y2="1360.39" style="stroke:#009af9; stroke-width:5.12; stroke-opacity:1"/>
<line clip-path="url(#clip450)" x1="2084.44" y1="1334.79" x2="2110.04" y2="1334.79" style="stroke:#009af9; stroke-width:5.12; stroke-opacity:1"/>
<path clip-path="url(#clip450)" d="M2194.23 1354.48 Q2192.43 1359.11 2190.72 1360.52 Q2189 1361.94 2186.13 1361.94 L2182.73 1361.94 L2182.73 1358.37 L2185.23 1358.37 Q2186.99 1358.37 2187.96 1357.54 Q2188.93 1356.7 2190.11 1353.6 L2190.88 1351.66 L2180.39 1326.15 L2184.91 1326.15 L2193.01 1346.43 L2201.11 1326.15 L2205.62 1326.15 L2194.23 1354.48 Z" fill="#000000" fill-rule="evenodd" fill-opacity="1" /><path clip-path="url(#clip450)" d="M2212.91 1348.14 L2220.55 1348.14 L2220.55 1321.77 L2212.24 1323.44 L2212.24 1319.18 L2220.51 1317.51 L2225.18 1317.51 L2225.18 1348.14 L2232.82 1348.14 L2232.82 1352.07 L2212.91 1352.07 L2212.91 1348.14 Z" fill="#000000" fill-rule="evenodd" fill-opacity="1" /><polyline clip-path="url(#clip450)" style="stroke:#e26f46; stroke-linecap:butt; stroke-linejoin:round; stroke-width:4; stroke-opacity:1; fill:none" points="
  2012.48,1386.63 2156.4,1386.63 
  "/>
<path clip-path="url(#clip450)" d="M2194.23 1406.32 Q2192.43 1410.95 2190.72 1412.36 Q2189 1413.78 2186.13 1413.78 L2182.73 1413.78 L2182.73 1410.21 L2185.23 1410.21 Q2186.99 1410.21 2187.96 1409.38 Q2188.93 1408.54 2190.11 1405.44 L2190.88 1403.5 L2180.39 1377.99 L2184.91 1377.99 L2193.01 1398.27 L2201.11 1377.99 L2205.62 1377.99 L2194.23 1406.32 Z" fill="#000000" fill-rule="evenodd" fill-opacity="1" /><path clip-path="url(#clip450)" d="M2216.13 1399.98 L2232.45 1399.98 L2232.45 1403.91 L2210.51 1403.91 L2210.51 1399.98 Q2213.17 1397.22 2217.75 1392.6 Q2222.36 1387.94 2223.54 1386.6 Q2225.78 1384.08 2226.66 1382.34 Q2227.57 1380.58 2227.57 1378.89 Q2227.57 1376.14 2225.62 1374.4 Q2223.7 1372.66 2220.6 1372.66 Q2218.4 1372.66 2215.95 1373.43 Q2213.52 1374.19 2210.74 1375.74 L2210.74 1371.02 Q2213.56 1369.89 2216.02 1369.31 Q2218.47 1368.73 2220.51 1368.73 Q2225.88 1368.73 2229.07 1371.41 Q2232.27 1374.1 2232.27 1378.59 Q2232.27 1380.72 2231.46 1382.64 Q2230.67 1384.54 2228.56 1387.13 Q2227.98 1387.8 2224.88 1391.02 Q2221.78 1394.22 2216.13 1399.98 Z" fill="#000000" fill-rule="evenodd" fill-opacity="1" /></svg>
