<?xml version="1.0" encoding="utf-8"?>
<svg xmlns="http://www.w3.org/2000/svg" xmlns:xlink="http://www.w3.org/1999/xlink" width="600" height="400" viewBox="0 0 2400 1600">
<defs>
  <clipPath id="clip610">
    <rect x="0" y="0" width="2400" height="1600"/>
  </clipPath>
</defs>
<path clip-path="url(#clip610)" d="
M0 1600 L2400 1600 L2400 0 L0 0  Z
  " fill="#ffffff" fill-rule="evenodd" fill-opacity="1"/>
<defs>
  <clipPath id="clip611">
    <rect x="480" y="0" width="1681" height="1600"/>
  </clipPath>
</defs>
<defs>
  <clipPath id="clip612">
    <rect x="193" y="47" width="2160" height="1440"/>
  </clipPath>
</defs>
<path clip-path="url(#clip610)" d="
M213.607 1486.45 L2352.76 1486.45 L2352.76 47.2441 L213.607 47.2441  Z
  " fill="#ffffff" fill-rule="evenodd" fill-opacity="1"/>
<defs>
  <clipPath id="clip613">
    <rect x="213" y="47" width="2140" height="1440"/>
  </clipPath>
</defs>
<polyline clip-path="url(#clip613)" style="stroke:#000000; stroke-linecap:butt; stroke-linejoin:round; stroke-width:2; stroke-opacity:0.1; fill:none" points="
  562.444,1486.45 562.444,47.2441 
  "/>
<polyline clip-path="url(#clip613)" style="stroke:#000000; stroke-linecap:butt; stroke-linejoin:round; stroke-width:2; stroke-opacity:0.1; fill:none" points="
  1139.03,1486.45 1139.03,47.2441 
  "/>
<polyline clip-path="url(#clip613)" style="stroke:#000000; stroke-linecap:butt; stroke-linejoin:round; stroke-width:2; stroke-opacity:0.1; fill:none" points="
  1715.62,1486.45 1715.62,47.2441 
  "/>
<polyline clip-path="url(#clip613)" style="stroke:#000000; stroke-linecap:butt; stroke-linejoin:round; stroke-width:2; stroke-opacity:0.1; fill:none" points="
  2292.21,1486.45 2292.21,47.2441 
  "/>
<polyline clip-path="url(#clip610)" style="stroke:#000000; stroke-linecap:butt; stroke-linejoin:round; stroke-width:4; stroke-opacity:1; fill:none" points="
  213.607,1486.45 2352.76,1486.45 
  "/>
<polyline clip-path="url(#clip610)" style="stroke:#000000; stroke-linecap:butt; stroke-linejoin:round; stroke-width:4; stroke-opacity:1; fill:none" points="
  562.444,1486.45 562.444,1467.55 
  "/>
<polyline clip-path="url(#clip610)" style="stroke:#000000; stroke-linecap:butt; stroke-linejoin:round; stroke-width:4; stroke-opacity:1; fill:none" points="
  1139.03,1486.45 1139.03,1467.55 
  "/>
<polyline clip-path="url(#clip610)" style="stroke:#000000; stroke-linecap:butt; stroke-linejoin:round; stroke-width:4; stroke-opacity:1; fill:none" points="
  1715.62,1486.45 1715.62,1467.55 
  "/>
<polyline clip-path="url(#clip610)" style="stroke:#000000; stroke-linecap:butt; stroke-linejoin:round; stroke-width:4; stroke-opacity:1; fill:none" points="
  2292.21,1486.45 2292.21,1467.55 
  "/>
<path clip-path="url(#clip610)" d="M537.132 1544.91 L544.771 1544.91 L544.771 1518.55 L536.461 1520.21 L536.461 1515.95 L544.725 1514.29 L549.4 1514.29 L549.4 1544.91 L557.039 1544.91 L557.039 1548.85 L537.132 1548.85 L537.132 1544.91 Z" fill="#000000" fill-rule="evenodd" fill-opacity="1" /><path clip-path="url(#clip610)" d="M576.484 1517.37 Q572.873 1517.37 571.044 1520.93 Q569.238 1524.47 569.238 1531.6 Q569.238 1538.71 571.044 1542.27 Q572.873 1545.82 576.484 1545.82 Q580.118 1545.82 581.923 1542.27 Q583.752 1538.71 583.752 1531.6 Q583.752 1524.47 581.923 1520.93 Q580.118 1517.37 576.484 1517.37 M576.484 1513.66 Q582.294 1513.66 585.349 1518.27 Q588.428 1522.85 588.428 1531.6 Q588.428 1540.33 585.349 1544.94 Q582.294 1549.52 576.484 1549.52 Q570.673 1549.52 567.595 1544.94 Q564.539 1540.33 564.539 1531.6 Q564.539 1522.85 567.595 1518.27 Q570.673 1513.66 576.484 1513.66 Z" fill="#000000" fill-rule="evenodd" fill-opacity="1" /><path clip-path="url(#clip610)" d="M1117.81 1544.91 L1134.13 1544.91 L1134.13 1548.85 L1112.18 1548.85 L1112.18 1544.91 Q1114.84 1542.16 1119.43 1537.53 Q1124.03 1532.88 1125.21 1531.53 Q1127.46 1529.01 1128.34 1527.27 Q1129.24 1525.51 1129.24 1523.82 Q1129.24 1521.07 1127.3 1519.33 Q1125.38 1517.6 1122.28 1517.6 Q1120.08 1517.6 1117.62 1518.36 Q1115.19 1519.13 1112.41 1520.68 L1112.41 1515.95 Q1115.24 1514.82 1117.69 1514.24 Q1120.15 1513.66 1122.18 1513.66 Q1127.55 1513.66 1130.75 1516.35 Q1133.94 1519.03 1133.94 1523.52 Q1133.94 1525.65 1133.13 1527.57 Q1132.34 1529.47 1130.24 1532.07 Q1129.66 1532.74 1126.56 1535.95 Q1123.46 1539.15 1117.81 1544.91 Z" fill="#000000" fill-rule="evenodd" fill-opacity="1" /><path clip-path="url(#clip610)" d="M1153.94 1517.37 Q1150.33 1517.37 1148.5 1520.93 Q1146.7 1524.47 1146.7 1531.6 Q1146.7 1538.71 1148.5 1542.27 Q1150.33 1545.82 1153.94 1545.82 Q1157.58 1545.82 1159.38 1542.27 Q1161.21 1538.71 1161.21 1531.6 Q1161.21 1524.47 1159.38 1520.93 Q1157.58 1517.37 1153.94 1517.37 M1153.94 1513.66 Q1159.75 1513.66 1162.81 1518.27 Q1165.89 1522.85 1165.89 1531.6 Q1165.89 1540.33 1162.81 1544.94 Q1159.75 1549.52 1153.94 1549.52 Q1148.13 1549.52 1145.05 1544.94 Q1142 1540.33 1142 1531.6 Q1142 1522.85 1145.05 1518.27 Q1148.13 1513.66 1153.94 1513.66 Z" fill="#000000" fill-rule="evenodd" fill-opacity="1" /><path clip-path="url(#clip610)" d="M1704.47 1530.21 Q1707.82 1530.93 1709.7 1533.2 Q1711.6 1535.47 1711.6 1538.8 Q1711.6 1543.92 1708.08 1546.72 Q1704.56 1549.52 1698.08 1549.52 Q1695.9 1549.52 1693.59 1549.08 Q1691.3 1548.66 1688.84 1547.81 L1688.84 1543.29 Q1690.79 1544.43 1693.1 1545.01 Q1695.42 1545.58 1697.94 1545.58 Q1702.34 1545.58 1704.63 1543.85 Q1706.94 1542.11 1706.94 1538.8 Q1706.94 1535.75 1704.79 1534.03 Q1702.66 1532.3 1698.84 1532.3 L1694.81 1532.3 L1694.81 1528.45 L1699.03 1528.45 Q1702.48 1528.45 1704.3 1527.09 Q1706.13 1525.7 1706.13 1523.11 Q1706.13 1520.45 1704.24 1519.03 Q1702.36 1517.6 1698.84 1517.6 Q1696.92 1517.6 1694.72 1518.01 Q1692.52 1518.43 1689.88 1519.31 L1689.88 1515.14 Q1692.55 1514.4 1694.86 1514.03 Q1697.2 1513.66 1699.26 1513.66 Q1704.58 1513.66 1707.68 1516.09 Q1710.79 1518.5 1710.79 1522.62 Q1710.79 1525.49 1709.14 1527.48 Q1707.5 1529.45 1704.47 1530.21 Z" fill="#000000" fill-rule="evenodd" fill-opacity="1" /><path clip-path="url(#clip610)" d="M1730.46 1517.37 Q1726.85 1517.37 1725.02 1520.93 Q1723.22 1524.47 1723.22 1531.6 Q1723.22 1538.71 1725.02 1542.27 Q1726.85 1545.82 1730.46 1545.82 Q1734.1 1545.82 1735.9 1542.27 Q1737.73 1538.71 1737.73 1531.6 Q1737.73 1524.47 1735.9 1520.93 Q1734.1 1517.37 1730.46 1517.37 M1730.46 1513.66 Q1736.27 1513.66 1739.33 1518.27 Q1742.41 1522.85 1742.41 1531.6 Q1742.41 1540.33 1739.33 1544.94 Q1736.27 1549.52 1730.46 1549.52 Q1724.65 1549.52 1721.57 1544.94 Q1718.52 1540.33 1718.52 1531.6 Q1718.52 1522.85 1721.57 1518.27 Q1724.65 1513.66 1730.46 1513.66 Z" fill="#000000" fill-rule="evenodd" fill-opacity="1" /><path clip-path="url(#clip610)" d="M2280.39 1518.36 L2268.58 1536.81 L2280.39 1536.81 L2280.39 1518.36 M2279.16 1514.29 L2285.04 1514.29 L2285.04 1536.81 L2289.97 1536.81 L2289.97 1540.7 L2285.04 1540.7 L2285.04 1548.85 L2280.39 1548.85 L2280.39 1540.7 L2264.78 1540.7 L2264.78 1536.19 L2279.16 1514.29 Z" fill="#000000" fill-rule="evenodd" fill-opacity="1" /><path clip-path="url(#clip610)" d="M2307.7 1517.37 Q2304.09 1517.37 2302.26 1520.93 Q2300.45 1524.47 2300.45 1531.6 Q2300.45 1538.71 2302.26 1542.27 Q2304.09 1545.82 2307.7 1545.82 Q2311.33 1545.82 2313.14 1542.27 Q2314.97 1538.71 2314.97 1531.6 Q2314.97 1524.47 2313.14 1520.93 Q2311.33 1517.37 2307.7 1517.37 M2307.7 1513.66 Q2313.51 1513.66 2316.57 1518.27 Q2319.64 1522.85 2319.64 1531.6 Q2319.64 1540.33 2316.57 1544.94 Q2313.51 1549.52 2307.7 1549.52 Q2301.89 1549.52 2298.81 1544.94 Q2295.76 1540.33 2295.76 1531.6 Q2295.76 1522.85 2298.81 1518.27 Q2301.89 1513.66 2307.7 1513.66 Z" fill="#000000" fill-rule="evenodd" fill-opacity="1" /><polyline clip-path="url(#clip613)" style="stroke:#000000; stroke-linecap:butt; stroke-linejoin:round; stroke-width:2; stroke-opacity:0.1; fill:none" points="
  213.607,1399.76 2352.76,1399.76 
  "/>
<polyline clip-path="url(#clip613)" style="stroke:#000000; stroke-linecap:butt; stroke-linejoin:round; stroke-width:2; stroke-opacity:0.1; fill:none" points="
  213.607,705.588 2352.76,705.588 
  "/>
<polyline clip-path="url(#clip610)" style="stroke:#000000; stroke-linecap:butt; stroke-linejoin:round; stroke-width:4; stroke-opacity:1; fill:none" points="
  213.607,1486.45 213.607,47.2441 
  "/>
<polyline clip-path="url(#clip610)" style="stroke:#000000; stroke-linecap:butt; stroke-linejoin:round; stroke-width:4; stroke-opacity:1; fill:none" points="
  213.607,1399.76 232.505,1399.76 
  "/>
<polyline clip-path="url(#clip610)" style="stroke:#000000; stroke-linecap:butt; stroke-linejoin:round; stroke-width:4; stroke-opacity:1; fill:none" points="
  213.607,705.588 232.505,705.588 
  "/>
<path clip-path="url(#clip610)" d="M51.6634 1419.55 L59.3023 1419.55 L59.3023 1393.19 L50.9921 1394.85 L50.9921 1390.6 L59.256 1388.93 L63.9319 1388.93 L63.9319 1419.55 L71.5707 1419.55 L71.5707 1423.49 L51.6634 1423.49 L51.6634 1419.55 Z" fill="#000000" fill-rule="evenodd" fill-opacity="1" /><path clip-path="url(#clip610)" d="M91.0151 1392.01 Q87.404 1392.01 85.5753 1395.57 Q83.7697 1399.11 83.7697 1406.24 Q83.7697 1413.35 85.5753 1416.92 Q87.404 1420.46 91.0151 1420.46 Q94.6493 1420.46 96.4548 1416.92 Q98.2835 1413.35 98.2835 1406.24 Q98.2835 1399.11 96.4548 1395.57 Q94.6493 1392.01 91.0151 1392.01 M91.0151 1388.3 Q96.8252 1388.3 99.8808 1392.91 Q102.959 1397.49 102.959 1406.24 Q102.959 1414.97 99.8808 1419.58 Q96.8252 1424.16 91.0151 1424.16 Q85.2049 1424.16 82.1262 1419.58 Q79.0707 1414.97 79.0707 1406.24 Q79.0707 1397.49 82.1262 1392.91 Q85.2049 1388.3 91.0151 1388.3 Z" fill="#000000" fill-rule="evenodd" fill-opacity="1" /><path clip-path="url(#clip610)" d="M102.959 1382.41 L127.071 1382.41 L127.071 1385.6 L102.959 1385.6 L102.959 1382.41 Z" fill="#000000" fill-rule="evenodd" fill-opacity="1" /><path clip-path="url(#clip610)" d="M135.929 1392.88 L142.136 1392.88 L142.136 1371.46 L135.384 1372.81 L135.384 1369.35 L142.098 1368 L145.898 1368 L145.898 1392.88 L152.104 1392.88 L152.104 1396.08 L135.929 1396.08 L135.929 1392.88 Z" fill="#000000" fill-rule="evenodd" fill-opacity="1" /><path clip-path="url(#clip610)" d="M167.903 1370.5 Q164.969 1370.5 163.483 1373.4 Q162.016 1376.27 162.016 1382.07 Q162.016 1387.84 163.483 1390.74 Q164.969 1393.61 167.903 1393.61 Q170.855 1393.61 172.322 1390.74 Q173.808 1387.84 173.808 1382.07 Q173.808 1376.27 172.322 1373.4 Q170.855 1370.5 167.903 1370.5 M167.903 1367.49 Q172.623 1367.49 175.106 1371.23 Q177.607 1374.96 177.607 1382.07 Q177.607 1389.16 175.106 1392.9 Q172.623 1396.62 167.903 1396.62 Q163.182 1396.62 160.68 1392.9 Q158.198 1389.16 158.198 1382.07 Q158.198 1374.96 160.68 1371.23 Q163.182 1367.49 167.903 1367.49 Z" fill="#000000" fill-rule="evenodd" fill-opacity="1" /><path clip-path="url(#clip610)" d="M76.9787 725.381 L84.6175 725.381 L84.6175 699.015 L76.3074 700.682 L76.3074 696.422 L84.5712 694.756 L89.2471 694.756 L89.2471 725.381 L96.886 725.381 L96.886 729.316 L76.9787 729.316 L76.9787 725.381 Z" fill="#000000" fill-rule="evenodd" fill-opacity="1" /><path clip-path="url(#clip610)" d="M116.33 697.834 Q112.719 697.834 110.891 701.399 Q109.085 704.941 109.085 712.07 Q109.085 719.177 110.891 722.742 Q112.719 726.283 116.33 726.283 Q119.965 726.283 121.77 722.742 Q123.599 719.177 123.599 712.07 Q123.599 704.941 121.77 701.399 Q119.965 697.834 116.33 697.834 M116.33 694.131 Q122.14 694.131 125.196 698.737 Q128.275 703.321 128.275 712.07 Q128.275 720.797 125.196 725.404 Q122.14 729.987 116.33 729.987 Q110.52 729.987 107.441 725.404 Q104.386 720.797 104.386 712.07 Q104.386 703.321 107.441 698.737 Q110.52 694.131 116.33 694.131 Z" fill="#000000" fill-rule="evenodd" fill-opacity="1" /><path clip-path="url(#clip610)" d="M128.275 688.232 L152.386 688.232 L152.386 691.429 L128.275 691.429 L128.275 688.232 Z" fill="#000000" fill-rule="evenodd" fill-opacity="1" /><path clip-path="url(#clip610)" d="M160.624 673.825 L175.539 673.825 L175.539 677.023 L164.103 677.023 L164.103 683.906 Q164.931 683.624 165.759 683.493 Q166.586 683.342 167.414 683.342 Q172.116 683.342 174.862 685.919 Q177.607 688.495 177.607 692.896 Q177.607 697.429 174.786 699.949 Q171.965 702.451 166.831 702.451 Q165.063 702.451 163.22 702.15 Q161.395 701.849 159.439 701.247 L159.439 697.429 Q161.132 698.351 162.937 698.802 Q164.743 699.253 166.755 699.253 Q170.009 699.253 171.909 697.542 Q173.808 695.83 173.808 692.896 Q173.808 689.962 171.909 688.251 Q170.009 686.539 166.755 686.539 Q165.232 686.539 163.709 686.878 Q162.204 687.217 160.624 687.931 L160.624 673.825 Z" fill="#000000" fill-rule="evenodd" fill-opacity="1" /><polyline clip-path="url(#clip613)" style="stroke:#009af9; stroke-linecap:butt; stroke-linejoin:round; stroke-width:12; stroke-opacity:1; fill:none" points="
  274.149,87.9763 331.808,108.702 389.467,127.737 447.126,133.705 504.785,236.87 562.444,222.238 620.103,288.949 677.762,294.255 735.421,367.396 793.08,374.014 
  850.739,442.318 908.398,452.999 966.057,520.578 1023.72,533.362 1081.38,599.589 1139.03,614.25 1196.69,679.643 1254.35,695.729 1312.01,760.389 1369.67,777.656 
  1427.33,841.731 1484.99,859.975 1542.65,923.555 1600.31,942.626 1657.97,1005.79 1715.62,1025.56 1773.28,1088.37 1830.94,1108.76 1888.6,1171.25 1946.26,1192.17 
  2003.92,1254.52 2061.58,1275.51 2119.24,1337.48 2176.9,1358.9 2234.55,1421.86 2292.21,1445.72 
  "/>
<circle clip-path="url(#clip613)" cx="274.149" cy="87.9763" r="14.4" fill="#009af9" fill-rule="evenodd" fill-opacity="1" stroke="#000000" stroke-opacity="1" stroke-width="3.2"/>
<circle clip-path="url(#clip613)" cx="331.808" cy="108.702" r="14.4" fill="#009af9" fill-rule="evenodd" fill-opacity="1" stroke="#000000" stroke-opacity="1" stroke-width="3.2"/>
<circle clip-path="url(#clip613)" cx="389.467" cy="127.737" r="14.4" fill="#009af9" fill-rule="evenodd" fill-opacity="1" stroke="#000000" stroke-opacity="1" stroke-width="3.2"/>
<circle clip-path="url(#clip613)" cx="447.126" cy="133.705" r="14.4" fill="#009af9" fill-rule="evenodd" fill-opacity="1" stroke="#000000" stroke-opacity="1" stroke-width="3.2"/>
<circle clip-path="url(#clip613)" cx="504.785" cy="236.87" r="14.4" fill="#009af9" fill-rule="evenodd" fill-opacity="1" stroke="#000000" stroke-opacity="1" stroke-width="3.2"/>
<circle clip-path="url(#clip613)" cx="562.444" cy="222.238" r="14.4" fill="#009af9" fill-rule="evenodd" fill-opacity="1" stroke="#000000" stroke-opacity="1" stroke-width="3.2"/>
<circle clip-path="url(#clip613)" cx="620.103" cy="288.949" r="14.4" fill="#009af9" fill-rule="evenodd" fill-opacity="1" stroke="#000000" stroke-opacity="1" stroke-width="3.2"/>
<circle clip-path="url(#clip613)" cx="677.762" cy="294.255" r="14.4" fill="#009af9" fill-rule="evenodd" fill-opacity="1" stroke="#000000" stroke-opacity="1" stroke-width="3.2"/>
<circle clip-path="url(#clip613)" cx="735.421" cy="367.396" r="14.4" fill="#009af9" fill-rule="evenodd" fill-opacity="1" stroke="#000000" stroke-opacity="1" stroke-width="3.2"/>
<circle clip-path="url(#clip613)" cx="793.08" cy="374.014" r="14.4" fill="#009af9" fill-rule="evenodd" fill-opacity="1" stroke="#000000" stroke-opacity="1" stroke-width="3.2"/>
<circle clip-path="url(#clip613)" cx="850.739" cy="442.318" r="14.4" fill="#009af9" fill-rule="evenodd" fill-opacity="1" stroke="#000000" stroke-opacity="1" stroke-width="3.2"/>
<circle clip-path="url(#clip613)" cx="908.398" cy="452.999" r="14.4" fill="#009af9" fill-rule="evenodd" fill-opacity="1" stroke="#000000" stroke-opacity="1" stroke-width="3.2"/>
<circle clip-path="url(#clip613)" cx="966.057" cy="520.578" r="14.4" fill="#009af9" fill-rule="evenodd" fill-opacity="1" stroke="#000000" stroke-opacity="1" stroke-width="3.2"/>
<circle clip-path="url(#clip613)" cx="1023.72" cy="533.362" r="14.4" fill="#009af9" fill-rule="evenodd" fill-opacity="1" stroke="#000000" stroke-opacity="1" stroke-width="3.2"/>
<circle clip-path="url(#clip613)" cx="1081.38" cy="599.589" r="14.4" fill="#009af9" fill-rule="evenodd" fill-opacity="1" stroke="#000000" stroke-opacity="1" stroke-width="3.2"/>
<circle clip-path="url(#clip613)" cx="1139.03" cy="614.25" r="14.4" fill="#009af9" fill-rule="evenodd" fill-opacity="1" stroke="#000000" stroke-opacity="1" stroke-width="3.2"/>
<circle clip-path="url(#clip613)" cx="1196.69" cy="679.643" r="14.4" fill="#009af9" fill-rule="evenodd" fill-opacity="1" stroke="#000000" stroke-opacity="1" stroke-width="3.2"/>
<circle clip-path="url(#clip613)" cx="1254.35" cy="695.729" r="14.4" fill="#009af9" fill-rule="evenodd" fill-opacity="1" stroke="#000000" stroke-opacity="1" stroke-width="3.2"/>
<circle clip-path="url(#clip613)" cx="1312.01" cy="760.389" r="14.4" fill="#009af9" fill-rule="evenodd" fill-opacity="1" stroke="#000000" stroke-opacity="1" stroke-width="3.2"/>
<circle clip-path="url(#clip613)" cx="1369.67" cy="777.656" r="14.4" fill="#009af9" fill-rule="evenodd" fill-opacity="1" stroke="#000000" stroke-opacity="1" stroke-width="3.2"/>
<circle clip-path="url(#clip613)" cx="1427.33" cy="841.731" r="14.4" fill="#009af9" fill-rule="evenodd" fill-opacity="1" stroke="#000000" stroke-opacity="1" stroke-width="3.2"/>
<circle clip-path="url(#clip613)" cx="1484.99" cy="859.975" r="14.4" fill="#009af9" fill-rule="evenodd" fill-opacity="1" stroke="#000000" stroke-opacity="1" stroke-width="3.2"/>
<circle clip-path="url(#clip613)" cx="1542.65" cy="923.555" r="14.4" fill="#009af9" fill-rule="evenodd" fill-opacity="1" stroke="#000000" stroke-opacity="1" stroke-width="3.2"/>
<circle clip-path="url(#clip613)" cx="1600.31" cy="942.626" r="14.4" fill="#009af9" fill-rule="evenodd" fill-opacity="1" stroke="#000000" stroke-opacity="1" stroke-width="3.2"/>
<circle clip-path="url(#clip613)" cx="1657.97" cy="1005.79" r="14.4" fill="#009af9" fill-rule="evenodd" fill-opacity="1" stroke="#000000" stroke-opacity="1" stroke-width="3.2"/>
<circle clip-path="url(#clip613)" cx="1715.62" cy="1025.56" r="14.4" fill="#009af9" fill-rule="evenodd" fill-opacity="1" stroke="#000000" stroke-opacity="1" stroke-width="3.2"/>
<circle clip-path="url(#clip613)" cx="1773.28" cy="1088.37" r="14.4" fill="#009af9" fill-rule="evenodd" fill-opacity="1" stroke="#000000" stroke-opacity="1" stroke-width="3.2"/>
<circle clip-path="url(#clip613)" cx="1830.94" cy="1108.76" r="14.4" fill="#009af9" fill-rule="evenodd" fill-opacity="1" stroke="#000000" stroke-opacity="1" stroke-width="3.2"/>
<circle clip-path="url(#clip613)" cx="1888.6" cy="1171.25" r="14.4" fill="#009af9" fill-rule="evenodd" fill-opacity="1" stroke="#000000" stroke-opacity="1" stroke-width="3.2"/>
<circle clip-path="url(#clip613)" cx="1946.26" cy="1192.17" r="14.4" fill="#009af9" fill-rule="evenodd" fill-opacity="1" stroke="#000000" stroke-opacity="1" stroke-width="3.2"/>
<circle clip-path="url(#clip613)" cx="2003.92" cy="1254.52" r="14.4" fill="#009af9" fill-rule="evenodd" fill-opacity="1" stroke="#000000" stroke-opacity="1" stroke-width="3.2"/>
<circle clip-path="url(#clip613)" cx="2061.58" cy="1275.51" r="14.4" fill="#009af9" fill-rule="evenodd" fill-opacity="1" stroke="#000000" stroke-opacity="1" stroke-width="3.2"/>
<circle clip-path="url(#clip613)" cx="2119.24" cy="1337.48" r="14.4" fill="#009af9" fill-rule="evenodd" fill-opacity="1" stroke="#000000" stroke-opacity="1" stroke-width="3.2"/>
<circle clip-path="url(#clip613)" cx="2176.9" cy="1358.9" r="14.4" fill="#009af9" fill-rule="evenodd" fill-opacity="1" stroke="#000000" stroke-opacity="1" stroke-width="3.2"/>
<circle clip-path="url(#clip613)" cx="2234.55" cy="1421.86" r="14.4" fill="#009af9" fill-rule="evenodd" fill-opacity="1" stroke="#000000" stroke-opacity="1" stroke-width="3.2"/>
<circle clip-path="url(#clip613)" cx="2292.21" cy="1445.72" r="14.4" fill="#009af9" fill-rule="evenodd" fill-opacity="1" stroke="#000000" stroke-opacity="1" stroke-width="3.2"/>
<polyline clip-path="url(#clip613)" style="stroke:#e26f46; stroke-linecap:butt; stroke-linejoin:round; stroke-width:12; stroke-opacity:1; fill:none" points="
  274.149,108.456 277.434,109.139 280.719,109.815 284.003,110.483 287.288,111.143 294.881,112.643 302.474,114.107 310.067,115.536 317.66,116.931 325.253,118.296 
  332.845,119.63 340.438,120.935 348.031,122.212 355.624,123.463 363.217,124.689 370.81,125.89 378.403,127.068 393.589,129.356 408.774,131.561 417.9,132.848 
  427.026,134.109 436.152,135.343 445.278,136.553 463.531,138.902 481.783,141.163 497.214,143.011 512.646,144.803 528.078,146.544 543.51,148.236 560.273,150.022 
  577.037,151.756 593.8,153.442 610.563,155.082 641.472,157.994 672.381,160.772 705.518,163.614 738.655,166.328 777.048,169.328 815.441,172.185 849.56,174.615 
  883.679,176.951 913.598,178.927 943.518,180.841 976.138,182.861 1008.76,184.815 1041.57,186.719 1074.39,188.564 1146.95,192.455 1215.98,195.938 1287.77,199.357 
  1348.2,202.093 1421.97,205.273 1489.55,208.046 1551.97,210.498 1615.2,212.884 1686.06,215.451 1750.27,217.686 1823.79,220.148 1891.86,222.34 1958.96,224.427 
  2024.12,226.386 2090.92,228.33 2164.1,230.39 2270.4,233.263 2292.21,233.836 
  "/>
<polyline clip-path="url(#clip613)" style="stroke:#3da44d; stroke-linecap:butt; stroke-linejoin:round; stroke-width:12; stroke-opacity:1; fill:none" points="
  274.149,205.497 275.792,206.182 277.434,206.864 279.076,207.541 280.719,208.214 282.361,208.884 284.003,209.55 285.646,210.213 287.288,210.872 291.085,212.381 
  294.881,213.872 298.677,215.344 302.474,216.799 306.27,218.236 310.067,219.656 313.863,221.06 317.66,222.448 325.253,225.176 332.845,227.845 340.438,230.455 
  348.031,233.01 355.624,235.512 363.217,237.963 370.81,240.365 378.403,242.721 385.996,245.031 393.589,247.298 401.181,249.523 408.774,251.707 417.9,254.282 
  427.026,256.803 436.152,259.272 445.278,261.691 454.405,264.063 463.531,266.389 472.657,268.671 481.783,270.911 497.214,274.606 512.646,278.192 528.078,281.674 
  543.51,285.058 560.273,288.629 577.037,292.098 593.8,295.47 610.563,298.75 626.018,301.697 641.472,304.574 656.926,307.383 672.381,310.129 705.518,315.813 
  738.655,321.242 777.048,327.24 815.441,332.954 849.56,337.815 883.679,342.487 913.598,346.44 943.518,350.267 1008.76,358.215 1074.39,365.714 1146.95,373.495 
  1215.98,380.461 1287.77,387.3 1348.2,392.771 1421.97,399.131 1489.55,404.676 1551.97,409.581 1615.2,414.354 1686.06,419.487 1750.27,423.958 1823.79,428.88 
  1891.86,433.266 1958.96,437.439 2024.12,441.356 2090.92,445.245 2164.1,449.366 2270.4,455.112 2292.21,456.258 
  "/>
<polyline clip-path="url(#clip613)" style="stroke:#c271d2; stroke-linecap:butt; stroke-linejoin:round; stroke-width:12; stroke-opacity:1; fill:none" points="
  274.149,302.539 275.792,303.566 277.434,304.588 279.076,305.604 280.719,306.614 282.361,307.619 284.003,308.618 285.646,309.612 287.288,310.6 291.085,312.864 
  294.881,315.1 298.677,317.309 302.474,319.491 306.27,321.647 310.067,323.777 313.863,325.883 317.66,327.965 321.456,330.023 325.253,332.057 329.049,334.069 
  332.845,336.059 336.642,338.028 340.438,339.975 344.235,341.901 348.031,343.807 355.624,347.56 363.217,351.237 370.81,354.84 378.403,358.374 385.996,361.839 
  393.589,365.239 401.181,368.577 408.774,371.854 417.9,375.715 427.026,379.496 436.152,383.2 445.278,386.829 454.405,390.387 463.531,393.876 472.657,397.3 
  481.783,400.659 497.214,406.202 512.646,411.58 528.078,416.803 543.51,421.879 560.273,427.236 577.037,432.44 593.8,437.497 610.563,442.418 641.472,451.153 
  672.381,459.486 705.518,468.013 738.655,476.155 777.048,485.153 815.441,493.724 883.679,508.023 943.518,519.694 1008.76,531.615 1074.39,542.863 1146.95,554.536 
  1215.98,564.984 1287.77,575.243 1348.2,583.449 1421.97,592.989 1489.55,601.307 1551.97,608.664 1615.2,615.823 1686.06,623.523 1750.27,630.229 1823.79,637.613 
  1891.86,644.191 1958.96,650.45 2024.12,656.327 2090.92,662.16 2164.1,668.341 2270.4,676.961 2292.21,678.679 
  "/>
<path clip-path="url(#clip610)" d="
M1965.31 354.418 L2281.45 354.418 L2281.45 95.2176 L1965.31 95.2176  Z
  " fill="#ffffff" fill-rule="evenodd" fill-opacity="1"/>
<polyline clip-path="url(#clip610)" style="stroke:#000000; stroke-linecap:butt; stroke-linejoin:round; stroke-width:4; stroke-opacity:1; fill:none" points="
  1965.31,354.418 2281.45,354.418 2281.45,95.2176 1965.31,95.2176 1965.31,354.418 
  "/>
<polyline clip-path="url(#clip610)" style="stroke:#009af9; stroke-linecap:butt; stroke-linejoin:round; stroke-width:4; stroke-opacity:1; fill:none" points="
  1989.07,147.058 2131.68,147.058 
  "/>
<circle clip-path="url(#clip610)" cx="2060.38" cy="147.058" r="23.04" fill="#009af9" fill-rule="evenodd" fill-opacity="1" stroke="#000000" stroke-opacity="1" stroke-width="5.12"/>
<path clip-path="url(#clip610)" d="M2169.29 166.745 Q2167.49 171.375 2165.78 172.787 Q2164.06 174.199 2161.19 174.199 L2157.79 174.199 L2157.79 170.634 L2160.29 170.634 Q2162.05 170.634 2163.02 169.8 Q2163.99 168.967 2165.17 165.865 L2165.94 163.921 L2155.45 138.412 L2159.97 138.412 L2168.07 158.689 L2176.17 138.412 L2180.68 138.412 L2169.29 166.745 Z" fill="#000000" fill-rule="evenodd" fill-opacity="1" /><path clip-path="url(#clip610)" d="M2187.98 160.402 L2195.61 160.402 L2195.61 134.037 L2187.3 135.703 L2187.3 131.444 L2195.57 129.778 L2200.24 129.778 L2200.24 160.402 L2207.88 160.402 L2207.88 164.338 L2187.98 164.338 L2187.98 160.402 Z" fill="#000000" fill-rule="evenodd" fill-opacity="1" /><polyline clip-path="url(#clip610)" style="stroke:#e26f46; stroke-linecap:butt; stroke-linejoin:round; stroke-width:4; stroke-opacity:1; fill:none" points="
  1989.07,198.898 2131.68,198.898 
  "/>
<path clip-path="url(#clip610)" d="M2181.45 210.013 Q2181.45 210.201 2181.24 210.927 Q2181.03 211.653 2180.51 212.777 Q2180.02 213.901 2179.34 214.932 Q2178.66 215.939 2177.54 216.689 Q2176.44 217.415 2175.17 217.415 Q2173.49 217.415 2172.36 216.291 Q2171.24 215.166 2171.24 213.48 Q2171.24 212.543 2171.73 211.255 Q2174.85 202.94 2174.85 200.082 Q2174.85 196.733 2172.25 196.733 Q2170.96 196.733 2169.74 197.225 Q2168.55 197.693 2167.73 198.349 Q2166.91 199.005 2166.16 199.918 Q2165.43 200.808 2165.06 201.417 Q2164.7 202.003 2164.42 202.588 L2163.81 204.977 Q2163.67 205.633 2162.99 208.186 L2161.94 212.519 Q2161.19 215.752 2161.03 216.056 Q2160.79 216.712 2160.28 217.063 Q2159.76 217.415 2159.25 217.415 Q2158.66 217.415 2158.26 217.063 Q2157.86 216.712 2157.86 216.103 Q2157.86 216.009 2157.93 215.658 Q2158.01 215.307 2158.12 214.815 Q2158.24 214.323 2158.29 214.042 L2161.07 202.963 Q2161.59 200.949 2161.71 200.316 Q2161.85 199.661 2161.85 198.934 Q2161.85 196.733 2160.35 196.733 Q2159.13 196.733 2158.33 198.185 Q2157.54 199.637 2156.86 202.448 Q2156.65 203.221 2156.51 203.385 Q2156.39 203.549 2156.04 203.549 Q2155.45 203.525 2155.45 203.057 Q2155.45 202.94 2155.64 202.167 Q2155.83 201.394 2156.18 200.293 Q2156.55 199.169 2156.9 198.419 Q2157.21 197.857 2157.37 197.599 Q2157.56 197.318 2158.01 196.78 Q2158.47 196.217 2159.08 195.96 Q2159.71 195.679 2160.49 195.679 Q2162.22 195.679 2163.49 196.803 Q2164.75 197.904 2164.91 199.848 Q2168.03 195.679 2172.39 195.679 Q2174.96 195.679 2176.44 197.037 Q2177.91 198.396 2177.91 200.808 Q2177.91 201.37 2177.8 202.097 Q2177.7 202.799 2177.47 203.689 Q2177.26 204.579 2177.07 205.259 Q2176.88 205.938 2176.51 207.039 Q2176.13 208.116 2175.97 208.585 Q2175.81 209.053 2175.41 210.154 Q2175.03 211.231 2174.99 211.348 Q2174.12 213.527 2174.12 214.768 Q2174.12 215.588 2174.38 215.963 Q2174.66 216.337 2175.27 216.337 Q2176.91 216.337 2178.12 214.721 Q2179.37 213.082 2180.16 210.411 Q2180.35 209.826 2180.44 209.685 Q2180.56 209.545 2180.89 209.545 Q2181.45 209.545 2181.45 210.013 Z" fill="#000000" fill-rule="evenodd" fill-opacity="1" /><path clip-path="url(#clip610)" d="M2208.47 193.666 Q2208.67 193.863 2208.67 194.142 Q2208.67 194.42 2208.47 194.617 Q2208.28 194.814 2208 194.814 L2186.98 194.814 Q2186.7 194.814 2186.5 194.617 Q2186.31 194.42 2186.31 194.142 Q2186.31 193.863 2186.5 193.666 Q2186.7 193.469 2186.98 193.469 L2208 193.469 Q2208.28 193.469 2208.47 193.666 Z" fill="#000000" fill-rule="evenodd" fill-opacity="1" /><path clip-path="url(#clip610)" d="M2212.17 183.37 L2212.17 182.32 Q2216.2 182.32 2218.28 180.172 Q2218.86 180.172 2218.96 180.304 Q2219.06 180.435 2219.06 181.041 L2219.06 199.88 Q2219.06 200.88 2219.55 201.192 Q2220.04 201.503 2222.19 201.503 L2223.25 201.503 L2223.25 202.536 Q2222.07 202.438 2217.81 202.438 Q2213.55 202.438 2212.38 202.536 L2212.38 201.503 L2213.45 201.503 Q2215.56 201.503 2216.07 201.208 Q2216.58 200.897 2216.58 199.88 L2216.58 182.484 Q2214.83 183.37 2212.17 183.37 Z" fill="#000000" fill-rule="evenodd" fill-opacity="1" /><polyline clip-path="url(#clip610)" style="stroke:#3da44d; stroke-linecap:butt; stroke-linejoin:round; stroke-width:4; stroke-opacity:1; fill:none" points="
  1989.07,250.738 2131.68,250.738 
  "/>
<path clip-path="url(#clip610)" d="M2181.45 261.853 Q2181.45 262.041 2181.24 262.767 Q2181.03 263.493 2180.51 264.617 Q2180.02 265.741 2179.34 266.772 Q2178.66 267.779 2177.54 268.529 Q2176.44 269.255 2175.17 269.255 Q2173.49 269.255 2172.36 268.131 Q2171.24 267.006 2171.24 265.32 Q2171.24 264.383 2171.73 263.095 Q2174.85 254.78 2174.85 251.922 Q2174.85 248.573 2172.25 248.573 Q2170.96 248.573 2169.74 249.065 Q2168.55 249.533 2167.73 250.189 Q2166.91 250.845 2166.16 251.758 Q2165.43 252.648 2165.06 253.257 Q2164.7 253.843 2164.42 254.428 L2163.81 256.817 Q2163.67 257.473 2162.99 260.026 L2161.94 264.359 Q2161.19 267.592 2161.03 267.896 Q2160.79 268.552 2160.28 268.903 Q2159.76 269.255 2159.25 269.255 Q2158.66 269.255 2158.26 268.903 Q2157.86 268.552 2157.86 267.943 Q2157.86 267.849 2157.93 267.498 Q2158.01 267.147 2158.12 266.655 Q2158.24 266.163 2158.29 265.882 L2161.07 254.803 Q2161.59 252.789 2161.71 252.156 Q2161.85 251.501 2161.85 250.774 Q2161.85 248.573 2160.35 248.573 Q2159.13 248.573 2158.33 250.025 Q2157.54 251.477 2156.86 254.288 Q2156.65 255.061 2156.51 255.225 Q2156.39 255.389 2156.04 255.389 Q2155.45 255.365 2155.45 254.897 Q2155.45 254.78 2155.64 254.007 Q2155.83 253.234 2156.18 252.133 Q2156.55 251.009 2156.9 250.259 Q2157.21 249.697 2157.37 249.439 Q2157.56 249.158 2158.01 248.62 Q2158.47 248.057 2159.08 247.8 Q2159.71 247.519 2160.49 247.519 Q2162.22 247.519 2163.49 248.643 Q2164.75 249.744 2164.91 251.688 Q2168.03 247.519 2172.39 247.519 Q2174.96 247.519 2176.44 248.877 Q2177.91 250.236 2177.91 252.648 Q2177.91 253.21 2177.8 253.937 Q2177.7 254.639 2177.47 255.529 Q2177.26 256.419 2177.07 257.099 Q2176.88 257.778 2176.51 258.879 Q2176.13 259.956 2175.97 260.425 Q2175.81 260.893 2175.41 261.994 Q2175.03 263.071 2174.99 263.188 Q2174.12 265.367 2174.12 266.608 Q2174.12 267.428 2174.38 267.803 Q2174.66 268.177 2175.27 268.177 Q2176.91 268.177 2178.12 266.561 Q2179.37 264.922 2180.16 262.251 Q2180.35 261.666 2180.44 261.525 Q2180.56 261.385 2180.89 261.385 Q2181.45 261.385 2181.45 261.853 Z" fill="#000000" fill-rule="evenodd" fill-opacity="1" /><path clip-path="url(#clip610)" d="M2208.47 245.506 Q2208.67 245.703 2208.67 245.982 Q2208.67 246.26 2208.47 246.457 Q2208.28 246.654 2208 246.654 L2186.98 246.654 Q2186.7 246.654 2186.5 246.457 Q2186.31 246.26 2186.31 245.982 Q2186.31 245.703 2186.5 245.506 Q2186.7 245.309 2186.98 245.309 L2208 245.309 Q2208.28 245.309 2208.47 245.506 Z" fill="#000000" fill-rule="evenodd" fill-opacity="1" /><path clip-path="url(#clip610)" d="M2212.17 254.376 Q2212.17 253.77 2212.22 253.589 Q2212.28 253.409 2212.55 253.13 L2218.99 245.949 Q2222.52 241.981 2222.52 238.522 Q2222.52 236.275 2221.33 234.669 Q2220.17 233.062 2218.02 233.062 Q2216.55 233.062 2215.3 233.964 Q2214.05 234.865 2213.48 236.472 Q2213.58 236.439 2213.92 236.439 Q2214.76 236.439 2215.22 236.964 Q2215.69 237.489 2215.69 238.194 Q2215.69 239.095 2215.1 239.538 Q2214.53 239.964 2213.96 239.964 Q2213.73 239.964 2213.42 239.915 Q2213.12 239.866 2212.64 239.407 Q2212.17 238.931 2212.17 238.095 Q2212.17 235.751 2213.94 233.882 Q2215.73 232.012 2218.45 232.012 Q2221.53 232.012 2223.55 233.849 Q2225.58 235.669 2225.58 238.522 Q2225.58 239.522 2225.27 240.44 Q2224.97 241.342 2224.56 242.047 Q2224.17 242.752 2223.09 243.883 Q2222.01 245.014 2221.14 245.818 Q2220.27 246.621 2218.32 248.326 L2214.76 251.786 L2220.81 251.786 Q2223.76 251.786 2223.99 251.523 Q2224.32 251.048 2224.73 248.539 L2225.58 248.539 L2224.63 254.376 L2212.17 254.376 Z" fill="#000000" fill-rule="evenodd" fill-opacity="1" /><polyline clip-path="url(#clip610)" style="stroke:#c271d2; stroke-linecap:butt; stroke-linejoin:round; stroke-width:4; stroke-opacity:1; fill:none" points="
  1989.07,302.578 2131.68,302.578 
  "/>
<path clip-path="url(#clip610)" d="M2181.45 314.06 Q2181.45 314.247 2181.24 314.973 Q2181.03 315.699 2180.51 316.824 Q2180.02 317.948 2179.34 318.978 Q2178.66 319.986 2177.54 320.735 Q2176.44 321.461 2175.17 321.461 Q2173.49 321.461 2172.36 320.337 Q2171.24 319.213 2171.24 317.526 Q2171.24 316.589 2171.73 315.301 Q2174.85 306.986 2174.85 304.129 Q2174.85 300.779 2172.25 300.779 Q2170.96 300.779 2169.74 301.271 Q2168.55 301.739 2167.73 302.395 Q2166.91 303.051 2166.16 303.965 Q2165.43 304.855 2165.06 305.464 Q2164.7 306.049 2164.42 306.635 L2163.81 309.024 Q2163.67 309.68 2162.99 312.233 L2161.94 316.566 Q2161.19 319.798 2161.03 320.103 Q2160.79 320.759 2160.28 321.11 Q2159.76 321.461 2159.25 321.461 Q2158.66 321.461 2158.26 321.11 Q2157.86 320.759 2157.86 320.15 Q2157.86 320.056 2157.93 319.705 Q2158.01 319.353 2158.12 318.861 Q2158.24 318.369 2158.29 318.088 L2161.07 307.01 Q2161.59 304.995 2161.71 304.363 Q2161.85 303.707 2161.85 302.981 Q2161.85 300.779 2160.35 300.779 Q2159.13 300.779 2158.33 302.231 Q2157.54 303.684 2156.86 306.494 Q2156.65 307.267 2156.51 307.431 Q2156.39 307.595 2156.04 307.595 Q2155.45 307.572 2155.45 307.103 Q2155.45 306.986 2155.64 306.213 Q2155.83 305.44 2156.18 304.339 Q2156.55 303.215 2156.9 302.466 Q2157.21 301.903 2157.37 301.646 Q2157.56 301.365 2158.01 300.826 Q2158.47 300.264 2159.08 300.006 Q2159.71 299.725 2160.49 299.725 Q2162.22 299.725 2163.49 300.849 Q2164.75 301.95 2164.91 303.894 Q2168.03 299.725 2172.39 299.725 Q2174.96 299.725 2176.44 301.084 Q2177.91 302.442 2177.91 304.855 Q2177.91 305.417 2177.8 306.143 Q2177.7 306.846 2177.47 307.736 Q2177.26 308.626 2177.07 309.305 Q2176.88 309.984 2176.51 311.085 Q2176.13 312.162 2175.97 312.631 Q2175.81 313.099 2175.41 314.2 Q2175.03 315.278 2174.99 315.395 Q2174.12 317.573 2174.12 318.814 Q2174.12 319.634 2174.38 320.009 Q2174.66 320.384 2175.27 320.384 Q2176.91 320.384 2178.12 318.768 Q2179.37 317.128 2180.16 314.458 Q2180.35 313.872 2180.44 313.732 Q2180.56 313.591 2180.89 313.591 Q2181.45 313.591 2181.45 314.06 Z" fill="#000000" fill-rule="evenodd" fill-opacity="1" /><path clip-path="url(#clip610)" d="M2208.47 296.98 Q2208.67 297.176 2208.67 297.455 Q2208.67 297.734 2208.47 297.931 Q2208.28 298.127 2208 298.127 L2186.98 298.127 Q2186.7 298.127 2186.5 297.931 Q2186.31 297.734 2186.31 297.455 Q2186.31 297.176 2186.5 296.98 Q2186.7 296.783 2186.98 296.783 L2208 296.783 Q2208.28 296.783 2208.47 296.98 Z" fill="#000000" fill-rule="evenodd" fill-opacity="1" /><path clip-path="url(#clip610)" d="M2212.17 301.325 Q2212.17 300.324 2212.74 299.849 Q2213.32 299.374 2214.05 299.374 Q2214.83 299.374 2215.37 299.882 Q2215.92 300.374 2215.92 301.243 Q2215.92 302.177 2215.27 302.702 Q2214.63 303.227 2213.71 303.095 Q2214.51 304.44 2215.99 305.046 Q2217.48 305.653 2218.86 305.653 Q2220.3 305.653 2221.47 304.407 Q2222.65 303.161 2222.65 300.111 Q2222.65 297.521 2221.63 296.029 Q2220.63 294.537 2218.65 294.537 L2217.17 294.537 Q2216.66 294.537 2216.51 294.488 Q2216.37 294.438 2216.37 294.16 Q2216.37 293.832 2216.87 293.766 Q2217.38 293.766 2218.19 293.668 Q2220.14 293.602 2221.17 291.913 Q2222.11 290.339 2222.11 288.093 Q2222.11 286.044 2221.12 285.191 Q2220.15 284.322 2218.89 284.322 Q2217.71 284.322 2216.42 284.814 Q2215.12 285.306 2214.42 286.405 Q2216.5 286.405 2216.5 288.093 Q2216.5 288.831 2216.02 289.323 Q2215.56 289.798 2214.79 289.798 Q2214.05 289.798 2213.56 289.339 Q2213.07 288.864 2213.07 288.06 Q2213.07 286.142 2214.78 284.814 Q2216.5 283.486 2219.02 283.486 Q2221.51 283.486 2223.35 284.798 Q2225.2 286.109 2225.2 288.126 Q2225.2 290.11 2223.89 291.733 Q2222.58 293.356 2220.5 294.029 Q2223.06 294.537 2224.58 296.275 Q2226.11 297.996 2226.11 300.111 Q2226.11 302.735 2224.04 304.669 Q2221.97 306.588 2218.96 306.588 Q2216.17 306.588 2214.17 305.079 Q2212.17 303.571 2212.17 301.325 Z" fill="#000000" fill-rule="evenodd" fill-opacity="1" /></svg>
