<?xml version="1.0" encoding="utf-8"?>
<svg xmlns="http://www.w3.org/2000/svg" xmlns:xlink="http://www.w3.org/1999/xlink" width="600" height="400" viewBox="0 0 2400 1600">
<defs>
  <clipPath id="clip860">
    <rect x="0" y="0" width="2400" height="1600"/>
  </clipPath>
</defs>
<path clip-path="url(#clip860)" d="
M0 1600 L2400 1600 L2400 0 L0 0  Z
  " fill="#ffffff" fill-rule="evenodd" fill-opacity="1"/>
<defs>
  <clipPath id="clip861">
    <rect x="480" y="0" width="1681" height="1600"/>
  </clipPath>
</defs>
<path clip-path="url(#clip860)" d="
M193.936 1486.45 L2352.76 1486.45 L2352.76 47.2441 L193.936 47.2441  Z
  " fill="#ffffff" fill-rule="evenodd" fill-opacity="1"/>
<defs>
  <clipPath id="clip862">
    <rect x="193" y="47" width="2160" height="1440"/>
  </clipPath>
</defs>
<polyline clip-path="url(#clip862)" style="stroke:#000000; stroke-linecap:butt; stroke-linejoin:round; stroke-width:2; stroke-opacity:0.1; fill:none" points="
  193.936,1486.45 193.936,47.2441 
  "/>
<polyline clip-path="url(#clip862)" style="stroke:#000000; stroke-linecap:butt; stroke-linejoin:round; stroke-width:2; stroke-opacity:0.1; fill:none" points="
  553.739,1486.45 553.739,47.2441 
  "/>
<polyline clip-path="url(#clip862)" style="stroke:#000000; stroke-linecap:butt; stroke-linejoin:round; stroke-width:2; stroke-opacity:0.1; fill:none" points="
  913.543,1486.45 913.543,47.2441 
  "/>
<polyline clip-path="url(#clip862)" style="stroke:#000000; stroke-linecap:butt; stroke-linejoin:round; stroke-width:2; stroke-opacity:0.1; fill:none" points="
  1273.35,1486.45 1273.35,47.2441 
  "/>
<polyline clip-path="url(#clip862)" style="stroke:#000000; stroke-linecap:butt; stroke-linejoin:round; stroke-width:2; stroke-opacity:0.1; fill:none" points="
  1633.15,1486.45 1633.15,47.2441 
  "/>
<polyline clip-path="url(#clip862)" style="stroke:#000000; stroke-linecap:butt; stroke-linejoin:round; stroke-width:2; stroke-opacity:0.1; fill:none" points="
  1992.95,1486.45 1992.95,47.2441 
  "/>
<polyline clip-path="url(#clip862)" style="stroke:#000000; stroke-linecap:butt; stroke-linejoin:round; stroke-width:2; stroke-opacity:0.1; fill:none" points="
  2352.76,1486.45 2352.76,47.2441 
  "/>
<polyline clip-path="url(#clip860)" style="stroke:#000000; stroke-linecap:butt; stroke-linejoin:round; stroke-width:4; stroke-opacity:1; fill:none" points="
  193.936,1486.45 2352.76,1486.45 
  "/>
<polyline clip-path="url(#clip860)" style="stroke:#000000; stroke-linecap:butt; stroke-linejoin:round; stroke-width:4; stroke-opacity:1; fill:none" points="
  193.936,1486.45 193.936,1467.55 
  "/>
<polyline clip-path="url(#clip860)" style="stroke:#000000; stroke-linecap:butt; stroke-linejoin:round; stroke-width:4; stroke-opacity:1; fill:none" points="
  553.739,1486.45 553.739,1467.55 
  "/>
<polyline clip-path="url(#clip860)" style="stroke:#000000; stroke-linecap:butt; stroke-linejoin:round; stroke-width:4; stroke-opacity:1; fill:none" points="
  913.543,1486.45 913.543,1467.55 
  "/>
<polyline clip-path="url(#clip860)" style="stroke:#000000; stroke-linecap:butt; stroke-linejoin:round; stroke-width:4; stroke-opacity:1; fill:none" points="
  1273.35,1486.45 1273.35,1467.55 
  "/>
<polyline clip-path="url(#clip860)" style="stroke:#000000; stroke-linecap:butt; stroke-linejoin:round; stroke-width:4; stroke-opacity:1; fill:none" points="
  1633.15,1486.45 1633.15,1467.55 
  "/>
<polyline clip-path="url(#clip860)" style="stroke:#000000; stroke-linecap:butt; stroke-linejoin:round; stroke-width:4; stroke-opacity:1; fill:none" points="
  1992.95,1486.45 1992.95,1467.55 
  "/>
<polyline clip-path="url(#clip860)" style="stroke:#000000; stroke-linecap:butt; stroke-linejoin:round; stroke-width:4; stroke-opacity:1; fill:none" points="
  2352.76,1486.45 2352.76,1467.55 
  "/>
<path clip-path="url(#clip860)" d="M163.404 1532.02 L193.08 1532.02 L193.08 1535.95 L163.404 1535.95 L163.404 1532.02 Z" fill="#000000" fill-rule="evenodd" fill-opacity="1" /><path clip-path="url(#clip860)" d="M217.339 1530.21 Q220.695 1530.93 222.57 1533.2 Q224.468 1535.47 224.468 1538.8 Q224.468 1543.92 220.95 1546.72 Q217.431 1549.52 210.95 1549.52 Q208.774 1549.52 206.459 1549.08 Q204.167 1548.66 201.714 1547.81 L201.714 1543.29 Q203.658 1544.43 205.973 1545.01 Q208.288 1545.58 210.811 1545.58 Q215.209 1545.58 217.501 1543.85 Q219.815 1542.11 219.815 1538.8 Q219.815 1535.75 217.663 1534.03 Q215.533 1532.3 211.714 1532.3 L207.686 1532.3 L207.686 1528.45 L211.899 1528.45 Q215.348 1528.45 217.177 1527.09 Q219.005 1525.7 219.005 1523.11 Q219.005 1520.45 217.107 1519.03 Q215.232 1517.6 211.714 1517.6 Q209.792 1517.6 207.593 1518.01 Q205.394 1518.43 202.755 1519.31 L202.755 1515.14 Q205.417 1514.4 207.732 1514.03 Q210.07 1513.66 212.13 1513.66 Q217.454 1513.66 220.556 1516.09 Q223.658 1518.5 223.658 1522.62 Q223.658 1525.49 222.015 1527.48 Q220.371 1529.45 217.339 1530.21 Z" fill="#000000" fill-rule="evenodd" fill-opacity="1" /><path clip-path="url(#clip860)" d="M523.682 1532.02 L553.357 1532.02 L553.357 1535.95 L523.682 1535.95 L523.682 1532.02 Z" fill="#000000" fill-rule="evenodd" fill-opacity="1" /><path clip-path="url(#clip860)" d="M567.478 1544.91 L583.797 1544.91 L583.797 1548.85 L561.853 1548.85 L561.853 1544.91 Q564.515 1542.16 569.098 1537.53 Q573.704 1532.88 574.885 1531.53 Q577.13 1529.01 578.01 1527.27 Q578.913 1525.51 578.913 1523.82 Q578.913 1521.07 576.968 1519.33 Q575.047 1517.6 571.945 1517.6 Q569.746 1517.6 567.292 1518.36 Q564.862 1519.13 562.084 1520.68 L562.084 1515.95 Q564.908 1514.82 567.362 1514.24 Q569.816 1513.66 571.853 1513.66 Q577.223 1513.66 580.417 1516.35 Q583.612 1519.03 583.612 1523.52 Q583.612 1525.65 582.802 1527.57 Q582.015 1529.47 579.908 1532.07 Q579.329 1532.74 576.228 1535.95 Q573.126 1539.15 567.478 1544.91 Z" fill="#000000" fill-rule="evenodd" fill-opacity="1" /><path clip-path="url(#clip860)" d="M883.3 1532.02 L912.976 1532.02 L912.976 1535.95 L883.3 1535.95 L883.3 1532.02 Z" fill="#000000" fill-rule="evenodd" fill-opacity="1" /><path clip-path="url(#clip860)" d="M923.878 1544.91 L931.517 1544.91 L931.517 1518.55 L923.207 1520.21 L923.207 1515.95 L931.471 1514.29 L936.147 1514.29 L936.147 1544.91 L943.786 1544.91 L943.786 1548.85 L923.878 1548.85 L923.878 1544.91 Z" fill="#000000" fill-rule="evenodd" fill-opacity="1" /><path clip-path="url(#clip860)" d="M1273.35 1517.37 Q1269.73 1517.37 1267.91 1520.93 Q1266.1 1524.47 1266.1 1531.6 Q1266.1 1538.71 1267.91 1542.27 Q1269.73 1545.82 1273.35 1545.82 Q1276.98 1545.82 1278.79 1542.27 Q1280.61 1538.71 1280.61 1531.6 Q1280.61 1524.47 1278.79 1520.93 Q1276.98 1517.37 1273.35 1517.37 M1273.35 1513.66 Q1279.16 1513.66 1282.21 1518.27 Q1285.29 1522.85 1285.29 1531.6 Q1285.29 1540.33 1282.21 1544.94 Q1279.16 1549.52 1273.35 1549.52 Q1267.54 1549.52 1264.46 1544.94 Q1261.4 1540.33 1261.4 1531.6 Q1261.4 1522.85 1264.46 1518.27 Q1267.54 1513.66 1273.35 1513.66 Z" fill="#000000" fill-rule="evenodd" fill-opacity="1" /><path clip-path="url(#clip860)" d="M1623.53 1544.91 L1631.17 1544.91 L1631.17 1518.55 L1622.86 1520.21 L1622.86 1515.95 L1631.12 1514.29 L1635.8 1514.29 L1635.8 1544.91 L1643.44 1544.91 L1643.44 1548.85 L1623.53 1548.85 L1623.53 1544.91 Z" fill="#000000" fill-rule="evenodd" fill-opacity="1" /><path clip-path="url(#clip860)" d="M1987.61 1544.91 L2003.92 1544.91 L2003.92 1548.85 L1981.98 1548.85 L1981.98 1544.91 Q1984.64 1542.16 1989.23 1537.53 Q1993.83 1532.88 1995.01 1531.53 Q1997.26 1529.01 1998.14 1527.27 Q1999.04 1525.51 1999.04 1523.82 Q1999.04 1521.07 1997.1 1519.33 Q1995.17 1517.6 1992.07 1517.6 Q1989.87 1517.6 1987.42 1518.36 Q1984.99 1519.13 1982.21 1520.68 L1982.21 1515.95 Q1985.04 1514.82 1987.49 1514.24 Q1989.94 1513.66 1991.98 1513.66 Q1997.35 1513.66 2000.55 1516.35 Q2003.74 1519.03 2003.74 1523.52 Q2003.74 1525.65 2002.93 1527.57 Q2002.14 1529.47 2000.04 1532.07 Q1999.46 1532.74 1996.36 1535.95 Q1993.25 1539.15 1987.61 1544.91 Z" fill="#000000" fill-rule="evenodd" fill-opacity="1" /><path clip-path="url(#clip860)" d="M2357 1530.21 Q2360.36 1530.93 2362.24 1533.2 Q2364.13 1535.47 2364.13 1538.8 Q2364.13 1543.92 2360.61 1546.72 Q2357.1 1549.52 2350.61 1549.52 Q2348.44 1549.52 2346.12 1549.08 Q2343.83 1548.66 2341.38 1547.81 L2341.38 1543.29 Q2343.32 1544.43 2345.64 1545.01 Q2347.95 1545.58 2350.48 1545.58 Q2354.87 1545.58 2357.17 1543.85 Q2359.48 1542.11 2359.48 1538.8 Q2359.48 1535.75 2357.33 1534.03 Q2355.2 1532.3 2351.38 1532.3 L2347.35 1532.3 L2347.35 1528.45 L2351.56 1528.45 Q2355.01 1528.45 2356.84 1527.09 Q2358.67 1525.7 2358.67 1523.11 Q2358.67 1520.45 2356.77 1519.03 Q2354.9 1517.6 2351.38 1517.6 Q2349.46 1517.6 2347.26 1518.01 Q2345.06 1518.43 2342.42 1519.31 L2342.42 1515.14 Q2345.08 1514.4 2347.4 1514.03 Q2349.74 1513.66 2351.8 1513.66 Q2357.12 1513.66 2360.22 1516.09 Q2363.32 1518.5 2363.32 1522.62 Q2363.32 1525.49 2361.68 1527.48 Q2360.04 1529.45 2357 1530.21 Z" fill="#000000" fill-rule="evenodd" fill-opacity="1" /><polyline clip-path="url(#clip862)" style="stroke:#000000; stroke-linecap:butt; stroke-linejoin:round; stroke-width:2; stroke-opacity:0.1; fill:none" points="
  193.936,1452.54 2352.76,1452.54 
  "/>
<polyline clip-path="url(#clip862)" style="stroke:#000000; stroke-linecap:butt; stroke-linejoin:round; stroke-width:2; stroke-opacity:0.1; fill:none" points="
  193.936,1111.39 2352.76,1111.39 
  "/>
<polyline clip-path="url(#clip862)" style="stroke:#000000; stroke-linecap:butt; stroke-linejoin:round; stroke-width:2; stroke-opacity:0.1; fill:none" points="
  193.936,770.228 2352.76,770.228 
  "/>
<polyline clip-path="url(#clip862)" style="stroke:#000000; stroke-linecap:butt; stroke-linejoin:round; stroke-width:2; stroke-opacity:0.1; fill:none" points="
  193.936,429.071 2352.76,429.071 
  "/>
<polyline clip-path="url(#clip862)" style="stroke:#000000; stroke-linecap:butt; stroke-linejoin:round; stroke-width:2; stroke-opacity:0.1; fill:none" points="
  193.936,87.9128 2352.76,87.9128 
  "/>
<polyline clip-path="url(#clip860)" style="stroke:#000000; stroke-linecap:butt; stroke-linejoin:round; stroke-width:4; stroke-opacity:1; fill:none" points="
  193.936,1486.45 193.936,47.2441 
  "/>
<polyline clip-path="url(#clip860)" style="stroke:#000000; stroke-linecap:butt; stroke-linejoin:round; stroke-width:4; stroke-opacity:1; fill:none" points="
  193.936,1452.54 212.834,1452.54 
  "/>
<polyline clip-path="url(#clip860)" style="stroke:#000000; stroke-linecap:butt; stroke-linejoin:round; stroke-width:4; stroke-opacity:1; fill:none" points="
  193.936,1111.39 212.834,1111.39 
  "/>
<polyline clip-path="url(#clip860)" style="stroke:#000000; stroke-linecap:butt; stroke-linejoin:round; stroke-width:4; stroke-opacity:1; fill:none" points="
  193.936,770.228 212.834,770.228 
  "/>
<polyline clip-path="url(#clip860)" style="stroke:#000000; stroke-linecap:butt; stroke-linejoin:round; stroke-width:4; stroke-opacity:1; fill:none" points="
  193.936,429.071 212.834,429.071 
  "/>
<polyline clip-path="url(#clip860)" style="stroke:#000000; stroke-linecap:butt; stroke-linejoin:round; stroke-width:4; stroke-opacity:1; fill:none" points="
  193.936,87.9128 212.834,87.9128 
  "/>
<path clip-path="url(#clip860)" d="M50.9921 1453 L80.6679 1453 L80.6679 1456.93 L50.9921 1456.93 L50.9921 1453 Z" fill="#000000" fill-rule="evenodd" fill-opacity="1" /><path clip-path="url(#clip860)" d="M91.5706 1465.89 L99.2095 1465.89 L99.2095 1439.52 L90.8993 1441.19 L90.8993 1436.93 L99.1632 1435.26 L103.839 1435.26 L103.839 1465.89 L111.478 1465.89 L111.478 1469.82 L91.5706 1469.82 L91.5706 1465.89 Z" fill="#000000" fill-rule="evenodd" fill-opacity="1" /><path clip-path="url(#clip860)" d="M120.922 1463.94 L125.807 1463.94 L125.807 1469.82 L120.922 1469.82 L120.922 1463.94 Z" fill="#000000" fill-rule="evenodd" fill-opacity="1" /><path clip-path="url(#clip860)" d="M145.992 1438.34 Q142.381 1438.34 140.552 1441.91 Q138.746 1445.45 138.746 1452.58 Q138.746 1459.69 140.552 1463.25 Q142.381 1466.79 145.992 1466.79 Q149.626 1466.79 151.431 1463.25 Q153.26 1459.69 153.26 1452.58 Q153.26 1445.45 151.431 1441.91 Q149.626 1438.34 145.992 1438.34 M145.992 1434.64 Q151.802 1434.64 154.857 1439.25 Q157.936 1443.83 157.936 1452.58 Q157.936 1461.31 154.857 1465.91 Q151.802 1470.5 145.992 1470.5 Q140.181 1470.5 137.103 1465.91 Q134.047 1461.31 134.047 1452.58 Q134.047 1443.83 137.103 1439.25 Q140.181 1434.64 145.992 1434.64 Z" fill="#000000" fill-rule="evenodd" fill-opacity="1" /><path clip-path="url(#clip860)" d="M51.9875 1111.84 L81.6633 1111.84 L81.6633 1115.77 L51.9875 1115.77 L51.9875 1111.84 Z" fill="#000000" fill-rule="evenodd" fill-opacity="1" /><path clip-path="url(#clip860)" d="M101.756 1097.18 Q98.1447 1097.18 96.316 1100.75 Q94.5104 1104.29 94.5104 1111.42 Q94.5104 1118.53 96.316 1122.09 Q98.1447 1125.63 101.756 1125.63 Q105.39 1125.63 107.196 1122.09 Q109.024 1118.53 109.024 1111.42 Q109.024 1104.29 107.196 1100.75 Q105.39 1097.18 101.756 1097.18 M101.756 1093.48 Q107.566 1093.48 110.621 1098.09 Q113.7 1102.67 113.7 1111.42 Q113.7 1120.15 110.621 1124.75 Q107.566 1129.34 101.756 1129.34 Q95.9456 1129.34 92.8669 1124.75 Q89.8114 1120.15 89.8114 1111.42 Q89.8114 1102.67 92.8669 1098.09 Q95.9456 1093.48 101.756 1093.48 Z" fill="#000000" fill-rule="evenodd" fill-opacity="1" /><path clip-path="url(#clip860)" d="M121.918 1122.79 L126.802 1122.79 L126.802 1128.67 L121.918 1128.67 L121.918 1122.79 Z" fill="#000000" fill-rule="evenodd" fill-opacity="1" /><path clip-path="url(#clip860)" d="M137.033 1094.11 L155.39 1094.11 L155.39 1098.04 L141.316 1098.04 L141.316 1106.51 Q142.334 1106.17 143.353 1106 Q144.371 1105.82 145.39 1105.82 Q151.177 1105.82 154.556 1108.99 Q157.936 1112.16 157.936 1117.58 Q157.936 1123.16 154.464 1126.26 Q150.992 1129.34 144.672 1129.34 Q142.496 1129.34 140.228 1128.97 Q137.982 1128.6 135.575 1127.86 L135.575 1123.16 Q137.658 1124.29 139.881 1124.85 Q142.103 1125.4 144.58 1125.4 Q148.584 1125.4 150.922 1123.3 Q153.26 1121.19 153.26 1117.58 Q153.26 1113.97 150.922 1111.86 Q148.584 1109.75 144.58 1109.75 Q142.705 1109.75 140.83 1110.17 Q138.978 1110.59 137.033 1111.47 L137.033 1094.11 Z" fill="#000000" fill-rule="evenodd" fill-opacity="1" /><path clip-path="url(#clip860)" d="M100.76 756.027 Q97.1493 756.027 95.3206 759.592 Q93.515 763.134 93.515 770.263 Q93.515 777.37 95.3206 780.934 Q97.1493 784.476 100.76 784.476 Q104.395 784.476 106.2 780.934 Q108.029 777.37 108.029 770.263 Q108.029 763.134 106.2 759.592 Q104.395 756.027 100.76 756.027 M100.76 752.323 Q106.571 752.323 109.626 756.93 Q112.705 761.513 112.705 770.263 Q112.705 778.99 109.626 783.596 Q106.571 788.18 100.76 788.18 Q94.9502 788.18 91.8715 783.596 Q88.816 778.99 88.816 770.263 Q88.816 761.513 91.8715 756.93 Q94.9502 752.323 100.76 752.323 Z" fill="#000000" fill-rule="evenodd" fill-opacity="1" /><path clip-path="url(#clip860)" d="M120.922 781.629 L125.807 781.629 L125.807 787.508 L120.922 787.508 L120.922 781.629 Z" fill="#000000" fill-rule="evenodd" fill-opacity="1" /><path clip-path="url(#clip860)" d="M145.992 756.027 Q142.381 756.027 140.552 759.592 Q138.746 763.134 138.746 770.263 Q138.746 777.37 140.552 780.934 Q142.381 784.476 145.992 784.476 Q149.626 784.476 151.431 780.934 Q153.26 777.37 153.26 770.263 Q153.26 763.134 151.431 759.592 Q149.626 756.027 145.992 756.027 M145.992 752.323 Q151.802 752.323 154.857 756.93 Q157.936 761.513 157.936 770.263 Q157.936 778.99 154.857 783.596 Q151.802 788.18 145.992 788.18 Q140.181 788.18 137.103 783.596 Q134.047 778.99 134.047 770.263 Q134.047 761.513 137.103 756.93 Q140.181 752.323 145.992 752.323 Z" fill="#000000" fill-rule="evenodd" fill-opacity="1" /><path clip-path="url(#clip860)" d="M101.756 414.869 Q98.1447 414.869 96.316 418.434 Q94.5104 421.976 94.5104 429.105 Q94.5104 436.212 96.316 439.777 Q98.1447 443.318 101.756 443.318 Q105.39 443.318 107.196 439.777 Q109.024 436.212 109.024 429.105 Q109.024 421.976 107.196 418.434 Q105.39 414.869 101.756 414.869 M101.756 411.166 Q107.566 411.166 110.621 415.772 Q113.7 420.355 113.7 429.105 Q113.7 437.832 110.621 442.439 Q107.566 447.022 101.756 447.022 Q95.9456 447.022 92.8669 442.439 Q89.8114 437.832 89.8114 429.105 Q89.8114 420.355 92.8669 415.772 Q95.9456 411.166 101.756 411.166 Z" fill="#000000" fill-rule="evenodd" fill-opacity="1" /><path clip-path="url(#clip860)" d="M121.918 440.471 L126.802 440.471 L126.802 446.351 L121.918 446.351 L121.918 440.471 Z" fill="#000000" fill-rule="evenodd" fill-opacity="1" /><path clip-path="url(#clip860)" d="M137.033 411.791 L155.39 411.791 L155.39 415.726 L141.316 415.726 L141.316 424.198 Q142.334 423.851 143.353 423.689 Q144.371 423.503 145.39 423.503 Q151.177 423.503 154.556 426.675 Q157.936 429.846 157.936 435.263 Q157.936 440.841 154.464 443.943 Q150.992 447.022 144.672 447.022 Q142.496 447.022 140.228 446.652 Q137.982 446.281 135.575 445.54 L135.575 440.841 Q137.658 441.976 139.881 442.531 Q142.103 443.087 144.58 443.087 Q148.584 443.087 150.922 440.98 Q153.26 438.874 153.26 435.263 Q153.26 431.652 150.922 429.545 Q148.584 427.439 144.58 427.439 Q142.705 427.439 140.83 427.855 Q138.978 428.272 137.033 429.152 L137.033 411.791 Z" fill="#000000" fill-rule="evenodd" fill-opacity="1" /><path clip-path="url(#clip860)" d="M91.5706 101.258 L99.2095 101.258 L99.2095 74.892 L90.8993 76.5587 L90.8993 72.2995 L99.1632 70.6328 L103.839 70.6328 L103.839 101.258 L111.478 101.258 L111.478 105.193 L91.5706 105.193 L91.5706 101.258 Z" fill="#000000" fill-rule="evenodd" fill-opacity="1" /><path clip-path="url(#clip860)" d="M120.922 99.3132 L125.807 99.3132 L125.807 105.193 L120.922 105.193 L120.922 99.3132 Z" fill="#000000" fill-rule="evenodd" fill-opacity="1" /><path clip-path="url(#clip860)" d="M145.992 73.7115 Q142.381 73.7115 140.552 77.2763 Q138.746 80.8179 138.746 87.9475 Q138.746 95.054 140.552 98.6188 Q142.381 102.16 145.992 102.16 Q149.626 102.16 151.431 98.6188 Q153.26 95.054 153.26 87.9475 Q153.26 80.8179 151.431 77.2763 Q149.626 73.7115 145.992 73.7115 M145.992 70.0078 Q151.802 70.0078 154.857 74.6143 Q157.936 79.1976 157.936 87.9475 Q157.936 96.6743 154.857 101.281 Q151.802 105.864 145.992 105.864 Q140.181 105.864 137.103 101.281 Q134.047 96.6743 134.047 87.9475 Q134.047 79.1976 137.103 74.6143 Q140.181 70.0078 145.992 70.0078 Z" fill="#000000" fill-rule="evenodd" fill-opacity="1" /><polyline clip-path="url(#clip862)" style="stroke:#009af9; stroke-linecap:butt; stroke-linejoin:round; stroke-width:12; stroke-opacity:1; fill:none" points="
  193.936,1445.72 197.45,1444.74 200.964,1443.71 204.477,1442.61 207.991,1441.44 224.236,1435.22 240.481,1427.65 256.726,1418.74 272.971,1408.5 289.216,1396.97 
  305.461,1384.16 321.706,1370.09 337.951,1354.81 357.476,1334.86 377.001,1313.25 396.526,1290.04 416.051,1265.3 432.559,1243.25 449.068,1220.2 465.576,1196.2 
  482.084,1171.3 517.949,1114.38 553.814,1054.04 586.879,995.905 619.943,935.863 690.84,803.076 772.981,647.983 809.48,580.633 845.979,515.233 877.985,460.018 
  909.991,407.257 927.439,379.678 944.886,353.017 962.334,327.337 979.782,302.698 997.333,279.022 1014.88,256.514 1032.44,235.229 1049.99,215.216 1069.39,194.629 
  1088.8,175.715 1108.2,158.53 1127.61,143.124 1146.07,130.158 1164.54,118.877 1183,109.311 1201.46,101.485 1220.66,95.2147 1239.86,90.866 1259.06,88.4509 
  1278.25,87.9763 1294.41,89.0822 1310.57,91.562 1326.74,95.4106 1342.9,100.62 1362.63,108.811 1382.36,118.989 1402.09,131.126 1421.82,145.183 1439.89,159.711 
  1457.96,175.78 1476.04,193.348 1494.11,212.371 1510.81,231.192 1527.5,251.172 1544.19,272.27 1560.88,294.44 1577.79,317.94 1594.7,342.44 1611.61,367.884 
  1628.52,394.216 1666.42,456.165 1704.32,521.595 1738.67,583.287 1773.01,646.68 1851.66,795.126 1924.47,931.674 1960.37,996.898 1996.26,1059.87 2031.11,1118.26 
  2065.96,1173.38 2083.83,1200.2 2101.69,1225.97 2119.55,1250.6 2137.42,1274.06 2156.99,1298.33 2176.56,1321.04 2196.13,1342.12 2215.7,1361.5 2229.92,1374.49 
  2244.13,1386.54 2258.35,1397.62 2272.56,1407.72 2300.99,1424.93 2329.43,1438.06 2335.26,1440.24 2341.09,1442.24 2346.92,1444.07 2352.76,1445.72 
  "/>
<polyline clip-path="url(#clip862)" style="stroke:#e26f46; stroke-linecap:butt; stroke-linejoin:round; stroke-width:12; stroke-opacity:1; fill:none" points="
  307.558,1419.47 421.18,1325.1 534.802,1175.87 648.424,986.511 762.046,775.767 875.669,564.475 989.291,373.531 1102.91,221.819 1216.53,124.344 1330.16,90.7444 
  1443.78,124.344 1557.4,221.819 1671.02,373.531 1784.65,564.475 1898.27,775.767 2011.89,986.511 2125.51,1175.87 2239.13,1325.1 2352.76,1419.47 
  "/>
<circle clip-path="url(#clip862)" cx="307.558" cy="1419.47" r="14.4" fill="#e26f46" fill-rule="evenodd" fill-opacity="1" stroke="#000000" stroke-opacity="1" stroke-width="3.2"/>
<circle clip-path="url(#clip862)" cx="421.18" cy="1325.1" r="14.4" fill="#e26f46" fill-rule="evenodd" fill-opacity="1" stroke="#000000" stroke-opacity="1" stroke-width="3.2"/>
<circle clip-path="url(#clip862)" cx="534.802" cy="1175.87" r="14.4" fill="#e26f46" fill-rule="evenodd" fill-opacity="1" stroke="#000000" stroke-opacity="1" stroke-width="3.2"/>
<circle clip-path="url(#clip862)" cx="648.424" cy="986.511" r="14.4" fill="#e26f46" fill-rule="evenodd" fill-opacity="1" stroke="#000000" stroke-opacity="1" stroke-width="3.2"/>
<circle clip-path="url(#clip862)" cx="762.046" cy="775.767" r="14.4" fill="#e26f46" fill-rule="evenodd" fill-opacity="1" stroke="#000000" stroke-opacity="1" stroke-width="3.2"/>
<circle clip-path="url(#clip862)" cx="875.669" cy="564.475" r="14.4" fill="#e26f46" fill-rule="evenodd" fill-opacity="1" stroke="#000000" stroke-opacity="1" stroke-width="3.2"/>
<circle clip-path="url(#clip862)" cx="989.291" cy="373.531" r="14.4" fill="#e26f46" fill-rule="evenodd" fill-opacity="1" stroke="#000000" stroke-opacity="1" stroke-width="3.2"/>
<circle clip-path="url(#clip862)" cx="1102.91" cy="221.819" r="14.4" fill="#e26f46" fill-rule="evenodd" fill-opacity="1" stroke="#000000" stroke-opacity="1" stroke-width="3.2"/>
<circle clip-path="url(#clip862)" cx="1216.53" cy="124.344" r="14.4" fill="#e26f46" fill-rule="evenodd" fill-opacity="1" stroke="#000000" stroke-opacity="1" stroke-width="3.2"/>
<circle clip-path="url(#clip862)" cx="1330.16" cy="90.7444" r="14.4" fill="#e26f46" fill-rule="evenodd" fill-opacity="1" stroke="#000000" stroke-opacity="1" stroke-width="3.2"/>
<circle clip-path="url(#clip862)" cx="1443.78" cy="124.344" r="14.4" fill="#e26f46" fill-rule="evenodd" fill-opacity="1" stroke="#000000" stroke-opacity="1" stroke-width="3.2"/>
<circle clip-path="url(#clip862)" cx="1557.4" cy="221.819" r="14.4" fill="#e26f46" fill-rule="evenodd" fill-opacity="1" stroke="#000000" stroke-opacity="1" stroke-width="3.2"/>
<circle clip-path="url(#clip862)" cx="1671.02" cy="373.531" r="14.4" fill="#e26f46" fill-rule="evenodd" fill-opacity="1" stroke="#000000" stroke-opacity="1" stroke-width="3.2"/>
<circle clip-path="url(#clip862)" cx="1784.65" cy="564.475" r="14.4" fill="#e26f46" fill-rule="evenodd" fill-opacity="1" stroke="#000000" stroke-opacity="1" stroke-width="3.2"/>
<circle clip-path="url(#clip862)" cx="1898.27" cy="775.767" r="14.4" fill="#e26f46" fill-rule="evenodd" fill-opacity="1" stroke="#000000" stroke-opacity="1" stroke-width="3.2"/>
<circle clip-path="url(#clip862)" cx="2011.89" cy="986.511" r="14.4" fill="#e26f46" fill-rule="evenodd" fill-opacity="1" stroke="#000000" stroke-opacity="1" stroke-width="3.2"/>
<circle clip-path="url(#clip862)" cx="2125.51" cy="1175.87" r="14.4" fill="#e26f46" fill-rule="evenodd" fill-opacity="1" stroke="#000000" stroke-opacity="1" stroke-width="3.2"/>
<circle clip-path="url(#clip862)" cx="2239.13" cy="1325.1" r="14.4" fill="#e26f46" fill-rule="evenodd" fill-opacity="1" stroke="#000000" stroke-opacity="1" stroke-width="3.2"/>
<circle clip-path="url(#clip862)" cx="2352.76" cy="1419.47" r="14.4" fill="#e26f46" fill-rule="evenodd" fill-opacity="1" stroke="#000000" stroke-opacity="1" stroke-width="3.2"/>
<polyline clip-path="url(#clip862)" style="stroke:#3da44d; stroke-linecap:butt; stroke-linejoin:round; stroke-width:12; stroke-opacity:1; fill:none" points="
  193.936,1419.47 307.558,1325.1 421.18,1175.87 534.802,986.511 648.424,775.767 762.046,564.475 875.669,373.531 989.291,221.819 1102.91,124.344 1216.53,90.7444 
  1330.16,124.344 1443.78,221.819 1557.4,373.531 1671.02,564.475 1784.65,775.767 1898.27,986.511 2011.89,1175.87 2125.51,1325.1 2239.13,1419.47 
  "/>
<circle clip-path="url(#clip862)" cx="193.936" cy="1419.47" r="14.4" fill="#3da44d" fill-rule="evenodd" fill-opacity="1" stroke="#000000" stroke-opacity="1" stroke-width="3.2"/>
<circle clip-path="url(#clip862)" cx="307.558" cy="1325.1" r="14.4" fill="#3da44d" fill-rule="evenodd" fill-opacity="1" stroke="#000000" stroke-opacity="1" stroke-width="3.2"/>
<circle clip-path="url(#clip862)" cx="421.18" cy="1175.87" r="14.4" fill="#3da44d" fill-rule="evenodd" fill-opacity="1" stroke="#000000" stroke-opacity="1" stroke-width="3.2"/>
<circle clip-path="url(#clip862)" cx="534.802" cy="986.511" r="14.4" fill="#3da44d" fill-rule="evenodd" fill-opacity="1" stroke="#000000" stroke-opacity="1" stroke-width="3.2"/>
<circle clip-path="url(#clip862)" cx="648.424" cy="775.767" r="14.4" fill="#3da44d" fill-rule="evenodd" fill-opacity="1" stroke="#000000" stroke-opacity="1" stroke-width="3.2"/>
<circle clip-path="url(#clip862)" cx="762.046" cy="564.475" r="14.4" fill="#3da44d" fill-rule="evenodd" fill-opacity="1" stroke="#000000" stroke-opacity="1" stroke-width="3.2"/>
<circle clip-path="url(#clip862)" cx="875.669" cy="373.531" r="14.4" fill="#3da44d" fill-rule="evenodd" fill-opacity="1" stroke="#000000" stroke-opacity="1" stroke-width="3.2"/>
<circle clip-path="url(#clip862)" cx="989.291" cy="221.819" r="14.4" fill="#3da44d" fill-rule="evenodd" fill-opacity="1" stroke="#000000" stroke-opacity="1" stroke-width="3.2"/>
<circle clip-path="url(#clip862)" cx="1102.91" cy="124.344" r="14.4" fill="#3da44d" fill-rule="evenodd" fill-opacity="1" stroke="#000000" stroke-opacity="1" stroke-width="3.2"/>
<circle clip-path="url(#clip862)" cx="1216.53" cy="90.7444" r="14.4" fill="#3da44d" fill-rule="evenodd" fill-opacity="1" stroke="#000000" stroke-opacity="1" stroke-width="3.2"/>
<circle clip-path="url(#clip862)" cx="1330.16" cy="124.344" r="14.4" fill="#3da44d" fill-rule="evenodd" fill-opacity="1" stroke="#000000" stroke-opacity="1" stroke-width="3.2"/>
<circle clip-path="url(#clip862)" cx="1443.78" cy="221.819" r="14.4" fill="#3da44d" fill-rule="evenodd" fill-opacity="1" stroke="#000000" stroke-opacity="1" stroke-width="3.2"/>
<circle clip-path="url(#clip862)" cx="1557.4" cy="373.531" r="14.4" fill="#3da44d" fill-rule="evenodd" fill-opacity="1" stroke="#000000" stroke-opacity="1" stroke-width="3.2"/>
<circle clip-path="url(#clip862)" cx="1671.02" cy="564.475" r="14.4" fill="#3da44d" fill-rule="evenodd" fill-opacity="1" stroke="#000000" stroke-opacity="1" stroke-width="3.2"/>
<circle clip-path="url(#clip862)" cx="1784.65" cy="775.767" r="14.4" fill="#3da44d" fill-rule="evenodd" fill-opacity="1" stroke="#000000" stroke-opacity="1" stroke-width="3.2"/>
<circle clip-path="url(#clip862)" cx="1898.27" cy="986.511" r="14.4" fill="#3da44d" fill-rule="evenodd" fill-opacity="1" stroke="#000000" stroke-opacity="1" stroke-width="3.2"/>
<circle clip-path="url(#clip862)" cx="2011.89" cy="1175.87" r="14.4" fill="#3da44d" fill-rule="evenodd" fill-opacity="1" stroke="#000000" stroke-opacity="1" stroke-width="3.2"/>
<circle clip-path="url(#clip862)" cx="2125.51" cy="1325.1" r="14.4" fill="#3da44d" fill-rule="evenodd" fill-opacity="1" stroke="#000000" stroke-opacity="1" stroke-width="3.2"/>
<circle clip-path="url(#clip862)" cx="2239.13" cy="1419.47" r="14.4" fill="#3da44d" fill-rule="evenodd" fill-opacity="1" stroke="#000000" stroke-opacity="1" stroke-width="3.2"/>
<polyline clip-path="url(#clip862)" style="stroke:#c271d2; stroke-linecap:butt; stroke-linejoin:round; stroke-width:12; stroke-opacity:1; fill:none" points="
  307.558,1372.29 421.18,1250.49 534.802,1081.19 648.424,881.139 762.046,670.121 875.669,469.003 989.291,297.675 1102.91,173.082 1216.53,107.544 1330.16,107.544 
  1443.78,173.082 1557.4,297.675 1671.02,469.003 1784.65,670.121 1898.27,881.139 2011.89,1081.19 2125.51,1250.49 2239.13,1372.29 
  "/>
<circle clip-path="url(#clip862)" cx="307.558" cy="1372.29" r="14.4" fill="#c271d2" fill-rule="evenodd" fill-opacity="1" stroke="#000000" stroke-opacity="1" stroke-width="3.2"/>
<circle clip-path="url(#clip862)" cx="421.18" cy="1250.49" r="14.4" fill="#c271d2" fill-rule="evenodd" fill-opacity="1" stroke="#000000" stroke-opacity="1" stroke-width="3.2"/>
<circle clip-path="url(#clip862)" cx="534.802" cy="1081.19" r="14.4" fill="#c271d2" fill-rule="evenodd" fill-opacity="1" stroke="#000000" stroke-opacity="1" stroke-width="3.2"/>
<circle clip-path="url(#clip862)" cx="648.424" cy="881.139" r="14.4" fill="#c271d2" fill-rule="evenodd" fill-opacity="1" stroke="#000000" stroke-opacity="1" stroke-width="3.2"/>
<circle clip-path="url(#clip862)" cx="762.046" cy="670.121" r="14.4" fill="#c271d2" fill-rule="evenodd" fill-opacity="1" stroke="#000000" stroke-opacity="1" stroke-width="3.2"/>
<circle clip-path="url(#clip862)" cx="875.669" cy="469.003" r="14.4" fill="#c271d2" fill-rule="evenodd" fill-opacity="1" stroke="#000000" stroke-opacity="1" stroke-width="3.2"/>
<circle clip-path="url(#clip862)" cx="989.291" cy="297.675" r="14.4" fill="#c271d2" fill-rule="evenodd" fill-opacity="1" stroke="#000000" stroke-opacity="1" stroke-width="3.2"/>
<circle clip-path="url(#clip862)" cx="1102.91" cy="173.082" r="14.4" fill="#c271d2" fill-rule="evenodd" fill-opacity="1" stroke="#000000" stroke-opacity="1" stroke-width="3.2"/>
<circle clip-path="url(#clip862)" cx="1216.53" cy="107.544" r="14.4" fill="#c271d2" fill-rule="evenodd" fill-opacity="1" stroke="#000000" stroke-opacity="1" stroke-width="3.2"/>
<circle clip-path="url(#clip862)" cx="1330.16" cy="107.544" r="14.4" fill="#c271d2" fill-rule="evenodd" fill-opacity="1" stroke="#000000" stroke-opacity="1" stroke-width="3.2"/>
<circle clip-path="url(#clip862)" cx="1443.78" cy="173.082" r="14.4" fill="#c271d2" fill-rule="evenodd" fill-opacity="1" stroke="#000000" stroke-opacity="1" stroke-width="3.2"/>
<circle clip-path="url(#clip862)" cx="1557.4" cy="297.675" r="14.4" fill="#c271d2" fill-rule="evenodd" fill-opacity="1" stroke="#000000" stroke-opacity="1" stroke-width="3.2"/>
<circle clip-path="url(#clip862)" cx="1671.02" cy="469.003" r="14.4" fill="#c271d2" fill-rule="evenodd" fill-opacity="1" stroke="#000000" stroke-opacity="1" stroke-width="3.2"/>
<circle clip-path="url(#clip862)" cx="1784.65" cy="670.121" r="14.4" fill="#c271d2" fill-rule="evenodd" fill-opacity="1" stroke="#000000" stroke-opacity="1" stroke-width="3.2"/>
<circle clip-path="url(#clip862)" cx="1898.27" cy="881.139" r="14.4" fill="#c271d2" fill-rule="evenodd" fill-opacity="1" stroke="#000000" stroke-opacity="1" stroke-width="3.2"/>
<circle clip-path="url(#clip862)" cx="2011.89" cy="1081.19" r="14.4" fill="#c271d2" fill-rule="evenodd" fill-opacity="1" stroke="#000000" stroke-opacity="1" stroke-width="3.2"/>
<circle clip-path="url(#clip862)" cx="2125.51" cy="1250.49" r="14.4" fill="#c271d2" fill-rule="evenodd" fill-opacity="1" stroke="#000000" stroke-opacity="1" stroke-width="3.2"/>
<circle clip-path="url(#clip862)" cx="2239.13" cy="1372.29" r="14.4" fill="#c271d2" fill-rule="evenodd" fill-opacity="1" stroke="#000000" stroke-opacity="1" stroke-width="3.2"/>
<path clip-path="url(#clip860)" d="
M1913.61 354.418 L2280.8 354.418 L2280.8 95.2176 L1913.61 95.2176  Z
  " fill="#ffffff" fill-rule="evenodd" fill-opacity="1"/>
<polyline clip-path="url(#clip860)" style="stroke:#000000; stroke-linecap:butt; stroke-linejoin:round; stroke-width:4; stroke-opacity:1; fill:none" points="
  1913.61,354.418 2280.8,354.418 2280.8,95.2176 1913.61,95.2176 1913.61,354.418 
  "/>
<polyline clip-path="url(#clip860)" style="stroke:#009af9; stroke-linecap:butt; stroke-linejoin:round; stroke-width:4; stroke-opacity:1; fill:none" points="
  1937.6,147.058 2081.52,147.058 
  "/>
<path clip-path="url(#clip860)" d="M2119.35 166.745 Q2117.54 171.375 2115.83 172.787 Q2114.12 174.199 2111.25 174.199 L2107.85 174.199 L2107.85 170.634 L2110.35 170.634 Q2112.1 170.634 2113.08 169.8 Q2114.05 168.967 2115.23 165.865 L2115.99 163.921 L2105.51 138.412 L2110.02 138.412 L2118.12 158.689 L2126.22 138.412 L2130.74 138.412 L2119.35 166.745 Z" fill="#000000" fill-rule="evenodd" fill-opacity="1" /><path clip-path="url(#clip860)" d="M2138.03 160.402 L2145.67 160.402 L2145.67 134.037 L2137.36 135.703 L2137.36 131.444 L2145.62 129.778 L2150.3 129.778 L2150.3 160.402 L2157.94 160.402 L2157.94 164.338 L2138.03 164.338 L2138.03 160.402 Z" fill="#000000" fill-rule="evenodd" fill-opacity="1" /><polyline clip-path="url(#clip860)" style="stroke:#e26f46; stroke-linecap:butt; stroke-linejoin:round; stroke-width:4; stroke-opacity:1; fill:none" points="
  1937.6,198.898 2081.52,198.898 
  "/>
<circle clip-path="url(#clip860)" cx="2009.56" cy="198.898" r="23.04" fill="#e26f46" fill-rule="evenodd" fill-opacity="1" stroke="#000000" stroke-opacity="1" stroke-width="5.12"/>
<path clip-path="url(#clip860)" d="M2124.42 194.187 L2124.42 180.159 L2128.68 180.159 L2128.68 216.178 L2124.42 216.178 L2124.42 212.289 Q2123.08 214.603 2121.02 215.738 Q2118.98 216.849 2116.11 216.849 Q2111.41 216.849 2108.45 213.099 Q2105.51 209.349 2105.51 203.238 Q2105.51 197.127 2108.45 193.377 Q2111.41 189.627 2116.11 189.627 Q2118.98 189.627 2121.02 190.761 Q2123.08 191.872 2124.42 194.187 M2109.91 203.238 Q2109.91 207.937 2111.83 210.622 Q2113.77 213.284 2117.15 213.284 Q2120.53 213.284 2122.47 210.622 Q2124.42 207.937 2124.42 203.238 Q2124.42 198.539 2122.47 195.877 Q2120.53 193.192 2117.15 193.192 Q2113.77 193.192 2111.83 195.877 Q2109.91 198.539 2109.91 203.238 Z" fill="#000000" fill-rule="evenodd" fill-opacity="1" /><path clip-path="url(#clip860)" d="M2137.45 190.252 L2141.71 190.252 L2141.71 216.178 L2137.45 216.178 L2137.45 190.252 M2137.45 180.159 L2141.71 180.159 L2141.71 185.553 L2137.45 185.553 L2137.45 180.159 Z" fill="#000000" fill-rule="evenodd" fill-opacity="1" /><path clip-path="url(#clip860)" d="M2163.75 180.159 L2163.75 183.701 L2159.67 183.701 Q2157.38 183.701 2156.48 184.627 Q2155.6 185.553 2155.6 187.96 L2155.6 190.252 L2162.61 190.252 L2162.61 193.562 L2155.6 193.562 L2155.6 216.178 L2151.32 216.178 L2151.32 193.562 L2147.24 193.562 L2147.24 190.252 L2151.32 190.252 L2151.32 188.446 Q2151.32 184.118 2153.33 182.15 Q2155.35 180.159 2159.72 180.159 L2163.75 180.159 Z" fill="#000000" fill-rule="evenodd" fill-opacity="1" /><path clip-path="url(#clip860)" d="M2180.44 180.159 L2180.44 183.701 L2176.36 183.701 Q2174.07 183.701 2173.17 184.627 Q2172.29 185.553 2172.29 187.96 L2172.29 190.252 L2179.3 190.252 L2179.3 193.562 L2172.29 193.562 L2172.29 216.178 L2168.01 216.178 L2168.01 193.562 L2163.93 193.562 L2163.93 190.252 L2168.01 190.252 L2168.01 188.446 Q2168.01 184.118 2170.02 182.15 Q2172.03 180.159 2176.41 180.159 L2180.44 180.159 Z" fill="#000000" fill-rule="evenodd" fill-opacity="1" /><path clip-path="url(#clip860)" d="M2185.41 212.242 L2193.05 212.242 L2193.05 185.877 L2184.74 187.543 L2184.74 183.284 L2193.01 181.618 L2197.68 181.618 L2197.68 212.242 L2205.32 212.242 L2205.32 216.178 L2185.41 216.178 L2185.41 212.242 Z" fill="#000000" fill-rule="evenodd" fill-opacity="1" /><path clip-path="url(#clip860)" d="M2214.16 180.159 L2218.42 180.159 L2218.42 216.178 L2214.16 216.178 L2214.16 180.159 Z" fill="#000000" fill-rule="evenodd" fill-opacity="1" /><polyline clip-path="url(#clip860)" style="stroke:#3da44d; stroke-linecap:butt; stroke-linejoin:round; stroke-width:4; stroke-opacity:1; fill:none" points="
  1937.6,250.738 2081.52,250.738 
  "/>
<circle clip-path="url(#clip860)" cx="2009.56" cy="250.738" r="23.04" fill="#3da44d" fill-rule="evenodd" fill-opacity="1" stroke="#000000" stroke-opacity="1" stroke-width="5.12"/>
<path clip-path="url(#clip860)" d="M2124.42 246.027 L2124.42 231.999 L2128.68 231.999 L2128.68 268.018 L2124.42 268.018 L2124.42 264.129 Q2123.08 266.443 2121.02 267.578 Q2118.98 268.689 2116.11 268.689 Q2111.41 268.689 2108.45 264.939 Q2105.51 261.189 2105.51 255.078 Q2105.51 248.967 2108.45 245.217 Q2111.41 241.467 2116.11 241.467 Q2118.98 241.467 2121.02 242.601 Q2123.08 243.712 2124.42 246.027 M2109.91 255.078 Q2109.91 259.777 2111.83 262.462 Q2113.77 265.124 2117.15 265.124 Q2120.53 265.124 2122.47 262.462 Q2124.42 259.777 2124.42 255.078 Q2124.42 250.379 2122.47 247.717 Q2120.53 245.032 2117.15 245.032 Q2113.77 245.032 2111.83 247.717 Q2109.91 250.379 2109.91 255.078 Z" fill="#000000" fill-rule="evenodd" fill-opacity="1" /><path clip-path="url(#clip860)" d="M2137.45 242.092 L2141.71 242.092 L2141.71 268.018 L2137.45 268.018 L2137.45 242.092 M2137.45 231.999 L2141.71 231.999 L2141.71 237.393 L2137.45 237.393 L2137.45 231.999 Z" fill="#000000" fill-rule="evenodd" fill-opacity="1" /><path clip-path="url(#clip860)" d="M2163.75 231.999 L2163.75 235.541 L2159.67 235.541 Q2157.38 235.541 2156.48 236.467 Q2155.6 237.393 2155.6 239.8 L2155.6 242.092 L2162.61 242.092 L2162.61 245.402 L2155.6 245.402 L2155.6 268.018 L2151.32 268.018 L2151.32 245.402 L2147.24 245.402 L2147.24 242.092 L2151.32 242.092 L2151.32 240.286 Q2151.32 235.958 2153.33 233.99 Q2155.35 231.999 2159.72 231.999 L2163.75 231.999 Z" fill="#000000" fill-rule="evenodd" fill-opacity="1" /><path clip-path="url(#clip860)" d="M2180.44 231.999 L2180.44 235.541 L2176.36 235.541 Q2174.07 235.541 2173.17 236.467 Q2172.29 237.393 2172.29 239.8 L2172.29 242.092 L2179.3 242.092 L2179.3 245.402 L2172.29 245.402 L2172.29 268.018 L2168.01 268.018 L2168.01 245.402 L2163.93 245.402 L2163.93 242.092 L2168.01 242.092 L2168.01 240.286 Q2168.01 235.958 2170.02 233.99 Q2172.03 231.999 2176.41 231.999 L2180.44 231.999 Z" fill="#000000" fill-rule="evenodd" fill-opacity="1" /><path clip-path="url(#clip860)" d="M2185.41 264.082 L2193.05 264.082 L2193.05 237.717 L2184.74 239.383 L2184.74 235.124 L2193.01 233.458 L2197.68 233.458 L2197.68 264.082 L2205.32 264.082 L2205.32 268.018 L2185.41 268.018 L2185.41 264.082 Z" fill="#000000" fill-rule="evenodd" fill-opacity="1" /><path clip-path="url(#clip860)" d="M2229.19 246.073 Q2228.47 245.657 2227.61 245.471 Q2226.78 245.263 2225.76 245.263 Q2222.15 245.263 2220.21 247.624 Q2218.28 249.962 2218.28 254.36 L2218.28 268.018 L2214 268.018 L2214 242.092 L2218.28 242.092 L2218.28 246.12 Q2219.63 243.758 2221.78 242.624 Q2223.93 241.467 2227.01 241.467 Q2227.45 241.467 2227.98 241.536 Q2228.52 241.583 2229.16 241.698 L2229.19 246.073 Z" fill="#000000" fill-rule="evenodd" fill-opacity="1" /><polyline clip-path="url(#clip860)" style="stroke:#c271d2; stroke-linecap:butt; stroke-linejoin:round; stroke-width:4; stroke-opacity:1; fill:none" points="
  1937.6,302.578 2081.52,302.578 
  "/>
<circle clip-path="url(#clip860)" cx="2009.56" cy="302.578" r="23.04" fill="#c271d2" fill-rule="evenodd" fill-opacity="1" stroke="#000000" stroke-opacity="1" stroke-width="5.12"/>
<path clip-path="url(#clip860)" d="M2124.42 297.867 L2124.42 283.839 L2128.68 283.839 L2128.68 319.858 L2124.42 319.858 L2124.42 315.969 Q2123.08 318.283 2121.02 319.418 Q2118.98 320.529 2116.11 320.529 Q2111.41 320.529 2108.45 316.779 Q2105.51 313.029 2105.51 306.918 Q2105.51 300.807 2108.45 297.057 Q2111.41 293.307 2116.11 293.307 Q2118.98 293.307 2121.02 294.441 Q2123.08 295.552 2124.42 297.867 M2109.91 306.918 Q2109.91 311.617 2111.83 314.302 Q2113.77 316.964 2117.15 316.964 Q2120.53 316.964 2122.47 314.302 Q2124.42 311.617 2124.42 306.918 Q2124.42 302.219 2122.47 299.557 Q2120.53 296.872 2117.15 296.872 Q2113.77 296.872 2111.83 299.557 Q2109.91 302.219 2109.91 306.918 Z" fill="#000000" fill-rule="evenodd" fill-opacity="1" /><path clip-path="url(#clip860)" d="M2137.45 293.932 L2141.71 293.932 L2141.71 319.858 L2137.45 319.858 L2137.45 293.932 M2137.45 283.839 L2141.71 283.839 L2141.71 289.233 L2137.45 289.233 L2137.45 283.839 Z" fill="#000000" fill-rule="evenodd" fill-opacity="1" /><path clip-path="url(#clip860)" d="M2163.75 283.839 L2163.75 287.381 L2159.67 287.381 Q2157.38 287.381 2156.48 288.307 Q2155.6 289.233 2155.6 291.64 L2155.6 293.932 L2162.61 293.932 L2162.61 297.242 L2155.6 297.242 L2155.6 319.858 L2151.32 319.858 L2151.32 297.242 L2147.24 297.242 L2147.24 293.932 L2151.32 293.932 L2151.32 292.126 Q2151.32 287.798 2153.33 285.83 Q2155.35 283.839 2159.72 283.839 L2163.75 283.839 Z" fill="#000000" fill-rule="evenodd" fill-opacity="1" /><path clip-path="url(#clip860)" d="M2180.44 283.839 L2180.44 287.381 L2176.36 287.381 Q2174.07 287.381 2173.17 288.307 Q2172.29 289.233 2172.29 291.64 L2172.29 293.932 L2179.3 293.932 L2179.3 297.242 L2172.29 297.242 L2172.29 319.858 L2168.01 319.858 L2168.01 297.242 L2163.93 297.242 L2163.93 293.932 L2168.01 293.932 L2168.01 292.126 Q2168.01 287.798 2170.02 285.83 Q2172.03 283.839 2176.41 283.839 L2180.44 283.839 Z" fill="#000000" fill-rule="evenodd" fill-opacity="1" /><path clip-path="url(#clip860)" d="M2185.41 315.922 L2193.05 315.922 L2193.05 289.557 L2184.74 291.223 L2184.74 286.964 L2193.01 285.298 L2197.68 285.298 L2197.68 315.922 L2205.32 315.922 L2205.32 319.858 L2185.41 319.858 L2185.41 315.922 Z" fill="#000000" fill-rule="evenodd" fill-opacity="1" /><path clip-path="url(#clip860)" d="M2232.82 294.927 L2232.82 298.909 Q2231.02 297.913 2229.19 297.427 Q2227.38 296.918 2225.53 296.918 Q2221.39 296.918 2219.09 299.557 Q2216.8 302.172 2216.8 306.918 Q2216.8 311.663 2219.09 314.302 Q2221.39 316.918 2225.53 316.918 Q2227.38 316.918 2229.19 316.432 Q2231.02 315.922 2232.82 314.927 L2232.82 318.862 Q2231.04 319.696 2229.12 320.112 Q2227.22 320.529 2225.07 320.529 Q2219.21 320.529 2215.76 316.848 Q2212.31 313.168 2212.31 306.918 Q2212.31 300.575 2215.78 296.941 Q2219.28 293.307 2225.34 293.307 Q2227.31 293.307 2229.19 293.723 Q2231.06 294.117 2232.82 294.927 Z" fill="#000000" fill-rule="evenodd" fill-opacity="1" /></svg>
