<?xml version="1.0" encoding="utf-8"?>
<svg xmlns="http://www.w3.org/2000/svg" xmlns:xlink="http://www.w3.org/1999/xlink" width="600" height="400" viewBox="0 0 2400 1600">
<defs>
  <clipPath id="clip650">
    <rect x="0" y="0" width="2400" height="1600"/>
  </clipPath>
</defs>
<path clip-path="url(#clip650)" d="
M0 1600 L2400 1600 L2400 0 L0 0  Z
  " fill="#ffffff" fill-rule="evenodd" fill-opacity="1"/>
<defs>
  <clipPath id="clip651">
    <rect x="480" y="0" width="1681" height="1600"/>
  </clipPath>
</defs>
<path clip-path="url(#clip650)" d="
M193.936 1486.45 L2352.76 1486.45 L2352.76 47.2441 L193.936 47.2441  Z
  " fill="#ffffff" fill-rule="evenodd" fill-opacity="1"/>
<defs>
  <clipPath id="clip652">
    <rect x="193" y="47" width="2160" height="1440"/>
  </clipPath>
</defs>
<polyline clip-path="url(#clip652)" style="stroke:#000000; stroke-linecap:butt; stroke-linejoin:round; stroke-width:2; stroke-opacity:0.1; fill:none" points="
  193.936,1486.45 193.936,47.2441 
  "/>
<polyline clip-path="url(#clip652)" style="stroke:#000000; stroke-linecap:butt; stroke-linejoin:round; stroke-width:2; stroke-opacity:0.1; fill:none" points="
  553.739,1486.45 553.739,47.2441 
  "/>
<polyline clip-path="url(#clip652)" style="stroke:#000000; stroke-linecap:butt; stroke-linejoin:round; stroke-width:2; stroke-opacity:0.1; fill:none" points="
  913.543,1486.45 913.543,47.2441 
  "/>
<polyline clip-path="url(#clip652)" style="stroke:#000000; stroke-linecap:butt; stroke-linejoin:round; stroke-width:2; stroke-opacity:0.1; fill:none" points="
  1273.35,1486.45 1273.35,47.2441 
  "/>
<polyline clip-path="url(#clip652)" style="stroke:#000000; stroke-linecap:butt; stroke-linejoin:round; stroke-width:2; stroke-opacity:0.1; fill:none" points="
  1633.15,1486.45 1633.15,47.2441 
  "/>
<polyline clip-path="url(#clip652)" style="stroke:#000000; stroke-linecap:butt; stroke-linejoin:round; stroke-width:2; stroke-opacity:0.1; fill:none" points="
  1992.95,1486.45 1992.95,47.2441 
  "/>
<polyline clip-path="url(#clip652)" style="stroke:#000000; stroke-linecap:butt; stroke-linejoin:round; stroke-width:2; stroke-opacity:0.1; fill:none" points="
  2352.76,1486.45 2352.76,47.2441 
  "/>
<polyline clip-path="url(#clip650)" style="stroke:#000000; stroke-linecap:butt; stroke-linejoin:round; stroke-width:4; stroke-opacity:1; fill:none" points="
  193.936,1486.45 2352.76,1486.45 
  "/>
<polyline clip-path="url(#clip650)" style="stroke:#000000; stroke-linecap:butt; stroke-linejoin:round; stroke-width:4; stroke-opacity:1; fill:none" points="
  193.936,1486.45 193.936,1467.55 
  "/>
<polyline clip-path="url(#clip650)" style="stroke:#000000; stroke-linecap:butt; stroke-linejoin:round; stroke-width:4; stroke-opacity:1; fill:none" points="
  553.739,1486.45 553.739,1467.55 
  "/>
<polyline clip-path="url(#clip650)" style="stroke:#000000; stroke-linecap:butt; stroke-linejoin:round; stroke-width:4; stroke-opacity:1; fill:none" points="
  913.543,1486.45 913.543,1467.55 
  "/>
<polyline clip-path="url(#clip650)" style="stroke:#000000; stroke-linecap:butt; stroke-linejoin:round; stroke-width:4; stroke-opacity:1; fill:none" points="
  1273.35,1486.45 1273.35,1467.55 
  "/>
<polyline clip-path="url(#clip650)" style="stroke:#000000; stroke-linecap:butt; stroke-linejoin:round; stroke-width:4; stroke-opacity:1; fill:none" points="
  1633.15,1486.45 1633.15,1467.55 
  "/>
<polyline clip-path="url(#clip650)" style="stroke:#000000; stroke-linecap:butt; stroke-linejoin:round; stroke-width:4; stroke-opacity:1; fill:none" points="
  1992.95,1486.45 1992.95,1467.55 
  "/>
<polyline clip-path="url(#clip650)" style="stroke:#000000; stroke-linecap:butt; stroke-linejoin:round; stroke-width:4; stroke-opacity:1; fill:none" points="
  2352.76,1486.45 2352.76,1467.55 
  "/>
<path clip-path="url(#clip650)" d="M163.404 1532.02 L193.08 1532.02 L193.08 1535.95 L163.404 1535.95 L163.404 1532.02 Z" fill="#000000" fill-rule="evenodd" fill-opacity="1" /><path clip-path="url(#clip650)" d="M217.339 1530.21 Q220.695 1530.93 222.57 1533.2 Q224.468 1535.47 224.468 1538.8 Q224.468 1543.92 220.95 1546.72 Q217.431 1549.52 210.95 1549.52 Q208.774 1549.52 206.459 1549.08 Q204.167 1548.66 201.714 1547.81 L201.714 1543.29 Q203.658 1544.43 205.973 1545.01 Q208.288 1545.58 210.811 1545.58 Q215.209 1545.58 217.501 1543.85 Q219.815 1542.11 219.815 1538.8 Q219.815 1535.75 217.663 1534.03 Q215.533 1532.3 211.714 1532.3 L207.686 1532.3 L207.686 1528.45 L211.899 1528.45 Q215.348 1528.45 217.177 1527.09 Q219.005 1525.7 219.005 1523.11 Q219.005 1520.45 217.107 1519.03 Q215.232 1517.6 211.714 1517.6 Q209.792 1517.6 207.593 1518.01 Q205.394 1518.43 202.755 1519.31 L202.755 1515.14 Q205.417 1514.4 207.732 1514.03 Q210.07 1513.66 212.13 1513.66 Q217.454 1513.66 220.556 1516.09 Q223.658 1518.5 223.658 1522.62 Q223.658 1525.49 222.015 1527.48 Q220.371 1529.45 217.339 1530.21 Z" fill="#000000" fill-rule="evenodd" fill-opacity="1" /><path clip-path="url(#clip650)" d="M523.682 1532.02 L553.357 1532.02 L553.357 1535.95 L523.682 1535.95 L523.682 1532.02 Z" fill="#000000" fill-rule="evenodd" fill-opacity="1" /><path clip-path="url(#clip650)" d="M567.478 1544.91 L583.797 1544.91 L583.797 1548.85 L561.853 1548.85 L561.853 1544.91 Q564.515 1542.16 569.098 1537.53 Q573.704 1532.88 574.885 1531.53 Q577.13 1529.01 578.01 1527.27 Q578.913 1525.51 578.913 1523.82 Q578.913 1521.07 576.968 1519.33 Q575.047 1517.6 571.945 1517.6 Q569.746 1517.6 567.292 1518.36 Q564.862 1519.13 562.084 1520.68 L562.084 1515.95 Q564.908 1514.82 567.362 1514.24 Q569.816 1513.66 571.853 1513.66 Q577.223 1513.66 580.417 1516.35 Q583.612 1519.03 583.612 1523.52 Q583.612 1525.65 582.802 1527.57 Q582.015 1529.47 579.908 1532.07 Q579.329 1532.74 576.228 1535.95 Q573.126 1539.15 567.478 1544.91 Z" fill="#000000" fill-rule="evenodd" fill-opacity="1" /><path clip-path="url(#clip650)" d="M883.3 1532.02 L912.976 1532.02 L912.976 1535.95 L883.3 1535.95 L883.3 1532.02 Z" fill="#000000" fill-rule="evenodd" fill-opacity="1" /><path clip-path="url(#clip650)" d="M923.878 1544.91 L931.517 1544.91 L931.517 1518.55 L923.207 1520.21 L923.207 1515.95 L931.471 1514.29 L936.147 1514.29 L936.147 1544.91 L943.786 1544.91 L943.786 1548.85 L923.878 1548.85 L923.878 1544.91 Z" fill="#000000" fill-rule="evenodd" fill-opacity="1" /><path clip-path="url(#clip650)" d="M1273.35 1517.37 Q1269.73 1517.37 1267.91 1520.93 Q1266.1 1524.47 1266.1 1531.6 Q1266.1 1538.71 1267.91 1542.27 Q1269.73 1545.82 1273.35 1545.82 Q1276.98 1545.82 1278.79 1542.27 Q1280.61 1538.71 1280.61 1531.6 Q1280.61 1524.47 1278.79 1520.93 Q1276.98 1517.37 1273.35 1517.37 M1273.35 1513.66 Q1279.16 1513.66 1282.21 1518.27 Q1285.29 1522.85 1285.29 1531.6 Q1285.29 1540.33 1282.21 1544.94 Q1279.16 1549.52 1273.35 1549.52 Q1267.54 1549.52 1264.46 1544.94 Q1261.4 1540.33 1261.4 1531.6 Q1261.4 1522.85 1264.46 1518.27 Q1267.54 1513.66 1273.35 1513.66 Z" fill="#000000" fill-rule="evenodd" fill-opacity="1" /><path clip-path="url(#clip650)" d="M1623.53 1544.91 L1631.17 1544.91 L1631.17 1518.55 L1622.86 1520.21 L1622.86 1515.95 L1631.12 1514.29 L1635.8 1514.29 L1635.8 1544.91 L1643.44 1544.91 L1643.44 1548.85 L1623.53 1548.85 L1623.53 1544.91 Z" fill="#000000" fill-rule="evenodd" fill-opacity="1" /><path clip-path="url(#clip650)" d="M1987.61 1544.91 L2003.92 1544.91 L2003.92 1548.85 L1981.98 1548.85 L1981.98 1544.91 Q1984.64 1542.16 1989.23 1537.53 Q1993.83 1532.88 1995.01 1531.53 Q1997.26 1529.01 1998.14 1527.27 Q1999.04 1525.51 1999.04 1523.82 Q1999.04 1521.07 1997.1 1519.33 Q1995.17 1517.6 1992.07 1517.6 Q1989.87 1517.6 1987.42 1518.36 Q1984.99 1519.13 1982.21 1520.68 L1982.21 1515.95 Q1985.04 1514.82 1987.49 1514.24 Q1989.94 1513.66 1991.98 1513.66 Q1997.35 1513.66 2000.55 1516.35 Q2003.74 1519.03 2003.74 1523.52 Q2003.74 1525.65 2002.93 1527.57 Q2002.14 1529.47 2000.04 1532.07 Q1999.46 1532.74 1996.36 1535.95 Q1993.25 1539.15 1987.61 1544.91 Z" fill="#000000" fill-rule="evenodd" fill-opacity="1" /><path clip-path="url(#clip650)" d="M2357 1530.21 Q2360.36 1530.93 2362.24 1533.2 Q2364.13 1535.47 2364.13 1538.8 Q2364.13 1543.92 2360.61 1546.72 Q2357.1 1549.52 2350.61 1549.52 Q2348.44 1549.52 2346.12 1549.08 Q2343.83 1548.66 2341.38 1547.81 L2341.38 1543.29 Q2343.32 1544.43 2345.64 1545.01 Q2347.95 1545.58 2350.48 1545.58 Q2354.87 1545.58 2357.17 1543.85 Q2359.48 1542.11 2359.48 1538.8 Q2359.48 1535.75 2357.33 1534.03 Q2355.2 1532.3 2351.38 1532.3 L2347.35 1532.3 L2347.35 1528.45 L2351.56 1528.45 Q2355.01 1528.45 2356.84 1527.09 Q2358.67 1525.7 2358.67 1523.11 Q2358.67 1520.45 2356.77 1519.03 Q2354.9 1517.6 2351.38 1517.6 Q2349.46 1517.6 2347.26 1518.01 Q2345.06 1518.43 2342.42 1519.31 L2342.42 1515.14 Q2345.08 1514.4 2347.4 1514.03 Q2349.74 1513.66 2351.8 1513.66 Q2357.12 1513.66 2360.22 1516.09 Q2363.32 1518.5 2363.32 1522.62 Q2363.32 1525.49 2361.68 1527.48 Q2360.04 1529.45 2357 1530.21 Z" fill="#000000" fill-rule="evenodd" fill-opacity="1" /><polyline clip-path="url(#clip652)" style="stroke:#000000; stroke-linecap:butt; stroke-linejoin:round; stroke-width:2; stroke-opacity:0.1; fill:none" points="
  193.936,1421.36 2352.76,1421.36 
  "/>
<polyline clip-path="url(#clip652)" style="stroke:#000000; stroke-linecap:butt; stroke-linejoin:round; stroke-width:2; stroke-opacity:0.1; fill:none" points="
  193.936,1094.12 2352.76,1094.12 
  "/>
<polyline clip-path="url(#clip652)" style="stroke:#000000; stroke-linecap:butt; stroke-linejoin:round; stroke-width:2; stroke-opacity:0.1; fill:none" points="
  193.936,766.888 2352.76,766.888 
  "/>
<polyline clip-path="url(#clip652)" style="stroke:#000000; stroke-linecap:butt; stroke-linejoin:round; stroke-width:2; stroke-opacity:0.1; fill:none" points="
  193.936,439.653 2352.76,439.653 
  "/>
<polyline clip-path="url(#clip652)" style="stroke:#000000; stroke-linecap:butt; stroke-linejoin:round; stroke-width:2; stroke-opacity:0.1; fill:none" points="
  193.936,112.419 2352.76,112.419 
  "/>
<polyline clip-path="url(#clip650)" style="stroke:#000000; stroke-linecap:butt; stroke-linejoin:round; stroke-width:4; stroke-opacity:1; fill:none" points="
  193.936,1486.45 193.936,47.2441 
  "/>
<polyline clip-path="url(#clip650)" style="stroke:#000000; stroke-linecap:butt; stroke-linejoin:round; stroke-width:4; stroke-opacity:1; fill:none" points="
  193.936,1421.36 212.834,1421.36 
  "/>
<polyline clip-path="url(#clip650)" style="stroke:#000000; stroke-linecap:butt; stroke-linejoin:round; stroke-width:4; stroke-opacity:1; fill:none" points="
  193.936,1094.12 212.834,1094.12 
  "/>
<polyline clip-path="url(#clip650)" style="stroke:#000000; stroke-linecap:butt; stroke-linejoin:round; stroke-width:4; stroke-opacity:1; fill:none" points="
  193.936,766.888 212.834,766.888 
  "/>
<polyline clip-path="url(#clip650)" style="stroke:#000000; stroke-linecap:butt; stroke-linejoin:round; stroke-width:4; stroke-opacity:1; fill:none" points="
  193.936,439.653 212.834,439.653 
  "/>
<polyline clip-path="url(#clip650)" style="stroke:#000000; stroke-linecap:butt; stroke-linejoin:round; stroke-width:4; stroke-opacity:1; fill:none" points="
  193.936,112.419 212.834,112.419 
  "/>
<path clip-path="url(#clip650)" d="M50.9921 1421.81 L80.6679 1421.81 L80.6679 1425.74 L50.9921 1425.74 L50.9921 1421.81 Z" fill="#000000" fill-rule="evenodd" fill-opacity="1" /><path clip-path="url(#clip650)" d="M91.5706 1434.7 L99.2095 1434.7 L99.2095 1408.34 L90.8993 1410 L90.8993 1405.74 L99.1632 1404.08 L103.839 1404.08 L103.839 1434.7 L111.478 1434.7 L111.478 1438.64 L91.5706 1438.64 L91.5706 1434.7 Z" fill="#000000" fill-rule="evenodd" fill-opacity="1" /><path clip-path="url(#clip650)" d="M120.922 1432.76 L125.807 1432.76 L125.807 1438.64 L120.922 1438.64 L120.922 1432.76 Z" fill="#000000" fill-rule="evenodd" fill-opacity="1" /><path clip-path="url(#clip650)" d="M145.992 1407.16 Q142.381 1407.16 140.552 1410.72 Q138.746 1414.26 138.746 1421.39 Q138.746 1428.5 140.552 1432.06 Q142.381 1435.6 145.992 1435.6 Q149.626 1435.6 151.431 1432.06 Q153.26 1428.5 153.26 1421.39 Q153.26 1414.26 151.431 1410.72 Q149.626 1407.16 145.992 1407.16 M145.992 1403.45 Q151.802 1403.45 154.857 1408.06 Q157.936 1412.64 157.936 1421.39 Q157.936 1430.12 154.857 1434.72 Q151.802 1439.31 145.992 1439.31 Q140.181 1439.31 137.103 1434.72 Q134.047 1430.12 134.047 1421.39 Q134.047 1412.64 137.103 1408.06 Q140.181 1403.45 145.992 1403.45 Z" fill="#000000" fill-rule="evenodd" fill-opacity="1" /><path clip-path="url(#clip650)" d="M51.9875 1094.57 L81.6633 1094.57 L81.6633 1098.51 L51.9875 1098.51 L51.9875 1094.57 Z" fill="#000000" fill-rule="evenodd" fill-opacity="1" /><path clip-path="url(#clip650)" d="M101.756 1079.92 Q98.1447 1079.92 96.316 1083.49 Q94.5104 1087.03 94.5104 1094.16 Q94.5104 1101.26 96.316 1104.83 Q98.1447 1108.37 101.756 1108.37 Q105.39 1108.37 107.196 1104.83 Q109.024 1101.26 109.024 1094.16 Q109.024 1087.03 107.196 1083.49 Q105.39 1079.92 101.756 1079.92 M101.756 1076.22 Q107.566 1076.22 110.621 1080.82 Q113.7 1085.41 113.7 1094.16 Q113.7 1102.88 110.621 1107.49 Q107.566 1112.07 101.756 1112.07 Q95.9456 1112.07 92.8669 1107.49 Q89.8114 1102.88 89.8114 1094.16 Q89.8114 1085.41 92.8669 1080.82 Q95.9456 1076.22 101.756 1076.22 Z" fill="#000000" fill-rule="evenodd" fill-opacity="1" /><path clip-path="url(#clip650)" d="M121.918 1105.52 L126.802 1105.52 L126.802 1111.4 L121.918 1111.4 L121.918 1105.52 Z" fill="#000000" fill-rule="evenodd" fill-opacity="1" /><path clip-path="url(#clip650)" d="M137.033 1076.84 L155.39 1076.84 L155.39 1080.78 L141.316 1080.78 L141.316 1089.25 Q142.334 1088.9 143.353 1088.74 Q144.371 1088.56 145.39 1088.56 Q151.177 1088.56 154.556 1091.73 Q157.936 1094.9 157.936 1100.31 Q157.936 1105.89 154.464 1108.99 Q150.992 1112.07 144.672 1112.07 Q142.496 1112.07 140.228 1111.7 Q137.982 1111.33 135.575 1110.59 L135.575 1105.89 Q137.658 1107.03 139.881 1107.58 Q142.103 1108.14 144.58 1108.14 Q148.584 1108.14 150.922 1106.03 Q153.26 1103.93 153.26 1100.31 Q153.26 1096.7 150.922 1094.6 Q148.584 1092.49 144.58 1092.49 Q142.705 1092.49 140.83 1092.91 Q138.978 1093.32 137.033 1094.2 L137.033 1076.84 Z" fill="#000000" fill-rule="evenodd" fill-opacity="1" /><path clip-path="url(#clip650)" d="M100.76 752.686 Q97.1493 752.686 95.3206 756.251 Q93.515 759.793 93.515 766.922 Q93.515 774.029 95.3206 777.594 Q97.1493 781.135 100.76 781.135 Q104.395 781.135 106.2 777.594 Q108.029 774.029 108.029 766.922 Q108.029 759.793 106.2 756.251 Q104.395 752.686 100.76 752.686 M100.76 748.983 Q106.571 748.983 109.626 753.589 Q112.705 758.173 112.705 766.922 Q112.705 775.649 109.626 780.256 Q106.571 784.839 100.76 784.839 Q94.9502 784.839 91.8715 780.256 Q88.816 775.649 88.816 766.922 Q88.816 758.173 91.8715 753.589 Q94.9502 748.983 100.76 748.983 Z" fill="#000000" fill-rule="evenodd" fill-opacity="1" /><path clip-path="url(#clip650)" d="M120.922 778.288 L125.807 778.288 L125.807 784.168 L120.922 784.168 L120.922 778.288 Z" fill="#000000" fill-rule="evenodd" fill-opacity="1" /><path clip-path="url(#clip650)" d="M145.992 752.686 Q142.381 752.686 140.552 756.251 Q138.746 759.793 138.746 766.922 Q138.746 774.029 140.552 777.594 Q142.381 781.135 145.992 781.135 Q149.626 781.135 151.431 777.594 Q153.26 774.029 153.26 766.922 Q153.26 759.793 151.431 756.251 Q149.626 752.686 145.992 752.686 M145.992 748.983 Q151.802 748.983 154.857 753.589 Q157.936 758.173 157.936 766.922 Q157.936 775.649 154.857 780.256 Q151.802 784.839 145.992 784.839 Q140.181 784.839 137.103 780.256 Q134.047 775.649 134.047 766.922 Q134.047 758.173 137.103 753.589 Q140.181 748.983 145.992 748.983 Z" fill="#000000" fill-rule="evenodd" fill-opacity="1" /><path clip-path="url(#clip650)" d="M101.756 425.452 Q98.1447 425.452 96.316 429.017 Q94.5104 432.558 94.5104 439.688 Q94.5104 446.794 96.316 450.359 Q98.1447 453.901 101.756 453.901 Q105.39 453.901 107.196 450.359 Q109.024 446.794 109.024 439.688 Q109.024 432.558 107.196 429.017 Q105.39 425.452 101.756 425.452 M101.756 421.748 Q107.566 421.748 110.621 426.355 Q113.7 430.938 113.7 439.688 Q113.7 448.415 110.621 453.021 Q107.566 457.605 101.756 457.605 Q95.9456 457.605 92.8669 453.021 Q89.8114 448.415 89.8114 439.688 Q89.8114 430.938 92.8669 426.355 Q95.9456 421.748 101.756 421.748 Z" fill="#000000" fill-rule="evenodd" fill-opacity="1" /><path clip-path="url(#clip650)" d="M121.918 451.054 L126.802 451.054 L126.802 456.933 L121.918 456.933 L121.918 451.054 Z" fill="#000000" fill-rule="evenodd" fill-opacity="1" /><path clip-path="url(#clip650)" d="M137.033 422.373 L155.39 422.373 L155.39 426.308 L141.316 426.308 L141.316 434.781 Q142.334 434.433 143.353 434.271 Q144.371 434.086 145.39 434.086 Q151.177 434.086 154.556 437.257 Q157.936 440.429 157.936 445.845 Q157.936 451.424 154.464 454.526 Q150.992 457.605 144.672 457.605 Q142.496 457.605 140.228 457.234 Q137.982 456.864 135.575 456.123 L135.575 451.424 Q137.658 452.558 139.881 453.114 Q142.103 453.669 144.58 453.669 Q148.584 453.669 150.922 451.563 Q153.26 449.456 153.26 445.845 Q153.26 442.234 150.922 440.128 Q148.584 438.021 144.58 438.021 Q142.705 438.021 140.83 438.438 Q138.978 438.855 137.033 439.734 L137.033 422.373 Z" fill="#000000" fill-rule="evenodd" fill-opacity="1" /><path clip-path="url(#clip650)" d="M91.5706 125.764 L99.2095 125.764 L99.2095 99.3979 L90.8993 101.065 L90.8993 96.8054 L99.1632 95.1387 L103.839 95.1387 L103.839 125.764 L111.478 125.764 L111.478 129.699 L91.5706 129.699 L91.5706 125.764 Z" fill="#000000" fill-rule="evenodd" fill-opacity="1" /><path clip-path="url(#clip650)" d="M120.922 123.819 L125.807 123.819 L125.807 129.699 L120.922 129.699 L120.922 123.819 Z" fill="#000000" fill-rule="evenodd" fill-opacity="1" /><path clip-path="url(#clip650)" d="M145.992 98.2174 Q142.381 98.2174 140.552 101.782 Q138.746 105.324 138.746 112.453 Q138.746 119.56 140.552 123.125 Q142.381 126.666 145.992 126.666 Q149.626 126.666 151.431 123.125 Q153.26 119.56 153.26 112.453 Q153.26 105.324 151.431 101.782 Q149.626 98.2174 145.992 98.2174 M145.992 94.5137 Q151.802 94.5137 154.857 99.1202 Q157.936 103.703 157.936 112.453 Q157.936 121.18 154.857 125.787 Q151.802 130.37 145.992 130.37 Q140.181 130.37 137.103 125.787 Q134.047 121.18 134.047 112.453 Q134.047 103.703 137.103 99.1202 Q140.181 94.5137 145.992 94.5137 Z" fill="#000000" fill-rule="evenodd" fill-opacity="1" /><polyline clip-path="url(#clip652)" style="stroke:#009af9; stroke-linecap:butt; stroke-linejoin:round; stroke-width:12; stroke-opacity:1; fill:none" points="
  193.936,993.587 197.45,979.277 200.964,965.1 204.477,951.055 207.991,937.142 224.236,874.522 240.481,814.668 256.726,757.539 272.971,703.091 289.216,651.281 
  305.461,602.067 321.706,555.406 337.951,511.254 357.476,461.448 377.001,415.132 396.526,372.23 416.051,332.67 432.559,301.773 449.068,273.166 465.576,246.804 
  482.084,222.642 500.016,198.836 517.949,177.515 535.882,158.622 553.814,142.099 570.346,128.917 586.879,117.654 603.411,108.267 619.943,100.709 637.667,94.5879 
  655.392,90.4624 673.116,88.2771 690.84,87.9763 711.375,89.911 731.911,94.2141 752.446,100.799 772.981,109.579 791.231,119.154 809.48,130.334 827.73,143.058 
  845.979,157.265 861.982,170.896 877.985,185.58 893.988,201.276 909.991,217.942 927.439,237.172 944.886,257.453 962.334,278.734 979.782,300.962 1014.88,348.332 
  1049.99,398.885 1088.8,457.962 1127.61,519.817 1164.54,580.717 1201.46,643.099 1278.25,775.381 1342.9,886.696 1382.36,953.391 1421.82,1018.39 1457.96,1075.92 
  1494.11,1131.04 1527.5,1179.4 1560.88,1224.93 1577.79,1246.79 1594.7,1267.78 1611.61,1287.85 1628.52,1306.95 1647.47,1327.16 1666.42,1346.02 1685.37,1363.46 
  1704.32,1379.44 1721.5,1392.57 1738.67,1404.39 1755.84,1414.84 1773.01,1423.86 1792.67,1432.38 1812.33,1438.89 1831.99,1443.33 1851.66,1445.6 1869.86,1445.72 
  1888.06,1443.86 1906.27,1439.96 1924.47,1433.97 1942.42,1425.95 1960.37,1415.77 1978.32,1403.39 1996.26,1388.74 2013.69,1372.28 2031.11,1353.58 2048.54,1332.58 
  2065.96,1309.23 2083.83,1282.79 2101.69,1253.77 2119.55,1222.11 2137.42,1187.75 2156.99,1146.94 2176.56,1102.74 2196.13,1055.09 2215.7,1003.9 2229.92,964.469 
  2244.13,923.103 2258.35,879.776 2272.56,834.46 2286.78,787.126 2300.99,737.745 2315.21,686.289 2329.43,632.729 2335.26,610.137 2341.09,587.185 2346.92,563.869 
  2352.76,540.189 
  "/>
<polyline clip-path="url(#clip652)" style="stroke:#e26f46; stroke-linecap:butt; stroke-linejoin:round; stroke-width:12; stroke-opacity:1; fill:none" points="
  193.936,674.529 197.45,668.206 200.964,661.893 204.477,655.589 207.991,649.296 240.481,591.718 272.971,535.567 305.461,481.301 337.951,429.362 357.476,399.446 
  377.001,370.612 396.526,342.944 416.051,316.524 432.559,295.218 449.068,274.905 465.576,255.627 482.084,237.425 500.016,218.917 517.949,201.77 535.882,186.026 
  553.814,171.724 570.346,159.848 586.879,149.254 603.411,139.963 619.943,131.995 637.667,124.942 655.392,119.447 673.116,115.522 690.84,113.178 711.375,112.445 
  731.911,113.843 752.446,117.368 772.981,123.008 791.231,129.781 809.48,138.193 827.73,148.221 845.979,159.841 861.982,171.316 877.985,183.969 893.988,197.776 
  909.991,212.708 927.439,230.235 944.886,249.025 962.334,269.032 979.782,290.209 997.333,312.643 1014.88,336.158 1032.44,360.697 1049.99,386.202 1069.39,415.454 
  1088.8,445.727 1108.2,476.934 1127.61,508.985 1164.54,571.968 1201.46,637.002 1278.25,775.814 1342.9,892.61 1382.36,962.153 1421.82,1029.35 1457.96,1088.16 
  1494.11,1143.73 1510.81,1168.14 1527.5,1191.69 1544.19,1214.32 1560.88,1235.99 1577.79,1256.91 1594.7,1276.75 1611.61,1295.46 1628.52,1313.01 1647.47,1331.24 
  1666.42,1347.9 1685.37,1362.96 1704.32,1376.36 1721.5,1387.04 1738.67,1396.31 1755.84,1404.15 1773.01,1410.54 1792.67,1416.05 1812.33,1419.62 1831.99,1421.25 
  1851.66,1420.92 1869.86,1418.88 1888.06,1415.16 1906.27,1409.79 1924.47,1402.77 1942.42,1394.26 1960.37,1384.19 1978.32,1372.58 1996.26,1359.46 2013.69,1345.32 
  2031.11,1329.82 2048.54,1313 2065.96,1294.9 2083.83,1275.05 2101.69,1253.96 2119.55,1231.67 2137.42,1208.23 2156.99,1181.3 2176.56,1153.15 2196.13,1123.85 
  2215.7,1093.5 2244.13,1047.71 2272.56,1000.18 2300.99,951.18 2329.43,901.035 2335.26,890.634 2341.09,880.2 2346.92,869.737 2352.76,859.246 
  "/>
<circle clip-path="url(#clip652)" cx="193.936" cy="766.888" r="14.4" fill="#3da44d" fill-rule="evenodd" fill-opacity="1" stroke="#000000" stroke-opacity="1" stroke-width="3.2"/>
<circle clip-path="url(#clip652)" cx="553.739" cy="766.888" r="14.4" fill="#3da44d" fill-rule="evenodd" fill-opacity="1" stroke="#000000" stroke-opacity="1" stroke-width="3.2"/>
<circle clip-path="url(#clip652)" cx="913.543" cy="766.888" r="14.4" fill="#3da44d" fill-rule="evenodd" fill-opacity="1" stroke="#000000" stroke-opacity="1" stroke-width="3.2"/>
<circle clip-path="url(#clip652)" cx="1273.35" cy="766.888" r="14.4" fill="#3da44d" fill-rule="evenodd" fill-opacity="1" stroke="#000000" stroke-opacity="1" stroke-width="3.2"/>
<circle clip-path="url(#clip652)" cx="1633.15" cy="766.888" r="14.4" fill="#3da44d" fill-rule="evenodd" fill-opacity="1" stroke="#000000" stroke-opacity="1" stroke-width="3.2"/>
<circle clip-path="url(#clip652)" cx="1992.95" cy="766.888" r="14.4" fill="#3da44d" fill-rule="evenodd" fill-opacity="1" stroke="#000000" stroke-opacity="1" stroke-width="3.2"/>
<circle clip-path="url(#clip652)" cx="2352.76" cy="766.888" r="14.4" fill="#3da44d" fill-rule="evenodd" fill-opacity="1" stroke="#000000" stroke-opacity="1" stroke-width="3.2"/>
<path clip-path="url(#clip650)" d="
M1792.34 302.578 L2280.8 302.578 L2280.8 95.2176 L1792.34 95.2176  Z
  " fill="#ffffff" fill-rule="evenodd" fill-opacity="1"/>
<polyline clip-path="url(#clip650)" style="stroke:#000000; stroke-linecap:butt; stroke-linejoin:round; stroke-width:4; stroke-opacity:1; fill:none" points="
  1792.34,302.578 2280.8,302.578 2280.8,95.2176 1792.34,95.2176 1792.34,302.578 
  "/>
<polyline clip-path="url(#clip650)" style="stroke:#009af9; stroke-linecap:butt; stroke-linejoin:round; stroke-width:4; stroke-opacity:1; fill:none" points="
  1816.33,147.058 1960.25,147.058 
  "/>
<path clip-path="url(#clip650)" d="M1998.08 166.745 Q1996.27 171.375 1994.56 172.787 Q1992.85 174.199 1989.98 174.199 L1986.57 174.199 L1986.57 170.634 L1989.07 170.634 Q1990.83 170.634 1991.8 169.8 Q1992.78 168.967 1993.96 165.865 L1994.72 163.921 L1984.23 138.412 L1988.75 138.412 L1996.85 158.689 L2004.95 138.412 L2009.47 138.412 L1998.08 166.745 Z" fill="#000000" fill-rule="evenodd" fill-opacity="1" /><path clip-path="url(#clip650)" d="M2016.76 160.402 L2024.4 160.402 L2024.4 134.037 L2016.09 135.703 L2016.09 131.444 L2024.35 129.778 L2029.03 129.778 L2029.03 160.402 L2036.67 160.402 L2036.67 164.338 L2016.76 164.338 L2016.76 160.402 Z" fill="#000000" fill-rule="evenodd" fill-opacity="1" /><polyline clip-path="url(#clip650)" style="stroke:#e26f46; stroke-linecap:butt; stroke-linejoin:round; stroke-width:4; stroke-opacity:1; fill:none" points="
  1816.33,198.898 1960.25,198.898 
  "/>
<path clip-path="url(#clip650)" d="M1998.08 218.585 Q1996.27 223.215 1994.56 224.627 Q1992.85 226.039 1989.98 226.039 L1986.57 226.039 L1986.57 222.474 L1989.07 222.474 Q1990.83 222.474 1991.8 221.64 Q1992.78 220.807 1993.96 217.705 L1994.72 215.761 L1984.23 190.252 L1988.75 190.252 L1996.85 210.529 L2004.95 190.252 L2009.47 190.252 L1998.08 218.585 Z" fill="#000000" fill-rule="evenodd" fill-opacity="1" /><path clip-path="url(#clip650)" d="M2019.98 212.242 L2036.29 212.242 L2036.29 216.178 L2014.35 216.178 L2014.35 212.242 Q2017.01 209.488 2021.6 204.858 Q2026.2 200.205 2027.38 198.863 Q2029.63 196.34 2030.51 194.604 Q2031.41 192.844 2031.41 191.155 Q2031.41 188.4 2029.47 186.664 Q2027.54 184.928 2024.44 184.928 Q2022.24 184.928 2019.79 185.692 Q2017.36 186.455 2014.58 188.006 L2014.58 183.284 Q2017.41 182.15 2019.86 181.571 Q2022.31 180.993 2024.35 180.993 Q2029.72 180.993 2032.92 183.678 Q2036.11 186.363 2036.11 190.854 Q2036.11 192.983 2035.3 194.905 Q2034.51 196.803 2032.41 199.395 Q2031.83 200.067 2028.73 203.284 Q2025.62 206.479 2019.98 212.242 Z" fill="#000000" fill-rule="evenodd" fill-opacity="1" /><circle clip-path="url(#clip650)" cx="1888.29" cy="250.738" r="23.04" fill="#3da44d" fill-rule="evenodd" fill-opacity="1" stroke="#000000" stroke-opacity="1" stroke-width="5.12"/>
<path clip-path="url(#clip650)" d="M2003.15 254.754 Q2003.15 250.124 2001.23 247.578 Q1999.33 245.032 1995.88 245.032 Q1992.45 245.032 1990.53 247.578 Q1988.63 250.124 1988.63 254.754 Q1988.63 259.36 1990.53 261.906 Q1992.45 264.453 1995.88 264.453 Q1999.33 264.453 2001.23 261.906 Q2003.15 259.36 2003.15 254.754 M2007.41 264.8 Q2007.41 271.42 2004.47 274.638 Q2001.53 277.879 1995.46 277.879 Q1993.22 277.879 1991.23 277.531 Q1989.23 277.207 1987.36 276.513 L1987.36 272.369 Q1989.23 273.388 1991.06 273.874 Q1992.89 274.36 1994.79 274.36 Q1998.98 274.36 2001.06 272.161 Q2003.15 269.985 2003.15 265.564 L2003.15 263.457 Q2001.83 265.749 1999.77 266.883 Q1997.71 268.018 1994.84 268.018 Q1990.07 268.018 1987.15 264.383 Q1984.23 260.749 1984.23 254.754 Q1984.23 248.735 1987.15 245.101 Q1990.07 241.467 1994.84 241.467 Q1997.71 241.467 1999.77 242.601 Q2001.83 243.735 2003.15 246.027 L2003.15 242.092 L2007.41 242.092 L2007.41 264.8 Z" fill="#000000" fill-rule="evenodd" fill-opacity="1" /><path clip-path="url(#clip650)" d="M2031.2 246.073 Q2030.48 245.657 2029.63 245.471 Q2028.79 245.263 2027.78 245.263 Q2024.17 245.263 2022.22 247.624 Q2020.3 249.962 2020.3 254.36 L2020.3 268.018 L2016.02 268.018 L2016.02 242.092 L2020.3 242.092 L2020.3 246.12 Q2021.64 243.758 2023.79 242.624 Q2025.95 241.467 2029.03 241.467 Q2029.47 241.467 2030 241.536 Q2030.53 241.583 2031.18 241.698 L2031.2 246.073 Z" fill="#000000" fill-rule="evenodd" fill-opacity="1" /><path clip-path="url(#clip650)" d="M2035.67 242.092 L2039.93 242.092 L2039.93 268.018 L2035.67 268.018 L2035.67 242.092 M2035.67 231.999 L2039.93 231.999 L2039.93 237.393 L2035.67 237.393 L2035.67 231.999 Z" fill="#000000" fill-rule="evenodd" fill-opacity="1" /><path clip-path="url(#clip650)" d="M2065.9 246.027 L2065.9 231.999 L2070.16 231.999 L2070.16 268.018 L2065.9 268.018 L2065.9 264.129 Q2064.56 266.443 2062.5 267.578 Q2060.46 268.689 2057.59 268.689 Q2052.89 268.689 2049.93 264.939 Q2046.99 261.189 2046.99 255.078 Q2046.99 248.967 2049.93 245.217 Q2052.89 241.467 2057.59 241.467 Q2060.46 241.467 2062.5 242.601 Q2064.56 243.712 2065.9 246.027 M2051.39 255.078 Q2051.39 259.777 2053.31 262.462 Q2055.25 265.124 2058.63 265.124 Q2062.01 265.124 2063.96 262.462 Q2065.9 259.777 2065.9 255.078 Q2065.9 250.379 2063.96 247.717 Q2062.01 245.032 2058.63 245.032 Q2055.25 245.032 2053.31 247.717 Q2051.39 250.379 2051.39 255.078 Z" fill="#000000" fill-rule="evenodd" fill-opacity="1" /><path clip-path="url(#clip650)" d="M2098.12 264.129 L2098.12 277.879 L2093.84 277.879 L2093.84 242.092 L2098.12 242.092 L2098.12 246.027 Q2099.47 243.712 2101.5 242.601 Q2103.56 241.467 2106.41 241.467 Q2111.13 241.467 2114.07 245.217 Q2117.04 248.967 2117.04 255.078 Q2117.04 261.189 2114.07 264.939 Q2111.13 268.689 2106.41 268.689 Q2103.56 268.689 2101.5 267.578 Q2099.47 266.443 2098.12 264.129 M2112.61 255.078 Q2112.61 250.379 2110.67 247.717 Q2108.75 245.032 2105.37 245.032 Q2101.99 245.032 2100.04 247.717 Q2098.12 250.379 2098.12 255.078 Q2098.12 259.777 2100.04 262.462 Q2101.99 265.124 2105.37 265.124 Q2108.75 265.124 2110.67 262.462 Q2112.61 259.777 2112.61 255.078 Z" fill="#000000" fill-rule="evenodd" fill-opacity="1" /><path clip-path="url(#clip650)" d="M2134.14 245.078 Q2130.72 245.078 2128.72 247.763 Q2126.73 250.425 2126.73 255.078 Q2126.73 259.731 2128.7 262.416 Q2130.69 265.078 2134.14 265.078 Q2137.54 265.078 2139.53 262.393 Q2141.53 259.707 2141.53 255.078 Q2141.53 250.471 2139.53 247.786 Q2137.54 245.078 2134.14 245.078 M2134.14 241.467 Q2139.7 241.467 2142.87 245.078 Q2146.04 248.689 2146.04 255.078 Q2146.04 261.444 2142.87 265.078 Q2139.7 268.689 2134.14 268.689 Q2128.56 268.689 2125.39 265.078 Q2122.24 261.444 2122.24 255.078 Q2122.24 248.689 2125.39 245.078 Q2128.56 241.467 2134.14 241.467 Z" fill="#000000" fill-rule="evenodd" fill-opacity="1" /><path clip-path="url(#clip650)" d="M2153.1 242.092 L2157.36 242.092 L2157.36 268.018 L2153.1 268.018 L2153.1 242.092 M2153.1 231.999 L2157.36 231.999 L2157.36 237.393 L2153.1 237.393 L2153.1 231.999 Z" fill="#000000" fill-rule="evenodd" fill-opacity="1" /><path clip-path="url(#clip650)" d="M2187.82 252.369 L2187.82 268.018 L2183.56 268.018 L2183.56 252.508 Q2183.56 248.828 2182.13 246.999 Q2180.69 245.17 2177.82 245.17 Q2174.37 245.17 2172.38 247.37 Q2170.39 249.569 2170.39 253.365 L2170.39 268.018 L2166.11 268.018 L2166.11 242.092 L2170.39 242.092 L2170.39 246.12 Q2171.92 243.782 2173.98 242.624 Q2176.06 241.467 2178.77 241.467 Q2183.24 241.467 2185.53 244.245 Q2187.82 246.999 2187.82 252.369 Z" fill="#000000" fill-rule="evenodd" fill-opacity="1" /><path clip-path="url(#clip650)" d="M2200.53 234.731 L2200.53 242.092 L2209.3 242.092 L2209.3 245.402 L2200.53 245.402 L2200.53 259.476 Q2200.53 262.647 2201.39 263.55 Q2202.27 264.453 2204.93 264.453 L2209.3 264.453 L2209.3 268.018 L2204.93 268.018 Q2200 268.018 2198.12 266.189 Q2196.25 264.337 2196.25 259.476 L2196.25 245.402 L2193.12 245.402 L2193.12 242.092 L2196.25 242.092 L2196.25 234.731 L2200.53 234.731 Z" fill="#000000" fill-rule="evenodd" fill-opacity="1" /><path clip-path="url(#clip650)" d="M2231.43 242.856 L2231.43 246.883 Q2229.63 245.957 2227.68 245.495 Q2225.74 245.032 2223.65 245.032 Q2220.48 245.032 2218.89 246.004 Q2217.31 246.976 2217.31 248.92 Q2217.31 250.402 2218.45 251.258 Q2219.58 252.092 2223.01 252.856 L2224.47 253.18 Q2229 254.152 2230.9 255.934 Q2232.82 257.694 2232.82 260.865 Q2232.82 264.476 2229.95 266.582 Q2227.1 268.689 2222.1 268.689 Q2220.02 268.689 2217.75 268.272 Q2215.51 267.879 2213.01 267.068 L2213.01 262.67 Q2215.37 263.897 2217.66 264.522 Q2219.95 265.124 2222.2 265.124 Q2225.21 265.124 2226.83 264.106 Q2228.45 263.064 2228.45 261.189 Q2228.45 259.453 2227.27 258.527 Q2226.11 257.601 2222.15 256.744 L2220.67 256.397 Q2216.71 255.564 2214.95 253.851 Q2213.19 252.115 2213.19 249.106 Q2213.19 245.448 2215.78 243.458 Q2218.38 241.467 2223.15 241.467 Q2225.51 241.467 2227.59 241.814 Q2229.67 242.161 2231.43 242.856 Z" fill="#000000" fill-rule="evenodd" fill-opacity="1" /></svg>
