<?xml version="1.0" encoding="utf-8"?>
<svg xmlns="http://www.w3.org/2000/svg" xmlns:xlink="http://www.w3.org/1999/xlink" width="600" height="400" viewBox="0 0 2400 1600">
<defs>
  <clipPath id="clip740">
    <rect x="0" y="0" width="2400" height="1600"/>
  </clipPath>
</defs>
<path clip-path="url(#clip740)" d="
M0 1600 L2400 1600 L2400 0 L0 0  Z
  " fill="#ffffff" fill-rule="evenodd" fill-opacity="1"/>
<defs>
  <clipPath id="clip741">
    <rect x="480" y="0" width="1681" height="1600"/>
  </clipPath>
</defs>
<path clip-path="url(#clip740)" d="
M213.607 1486.45 L2352.76 1486.45 L2352.76 47.2441 L213.607 47.2441  Z
  " fill="#ffffff" fill-rule="evenodd" fill-opacity="1"/>
<defs>
  <clipPath id="clip742">
    <rect x="213" y="47" width="2140" height="1440"/>
  </clipPath>
</defs>
<polyline clip-path="url(#clip742)" style="stroke:#000000; stroke-linecap:butt; stroke-linejoin:round; stroke-width:2; stroke-opacity:0.1; fill:none" points="
  242.117,1486.45 242.117,47.2441 
  "/>
<polyline clip-path="url(#clip742)" style="stroke:#000000; stroke-linecap:butt; stroke-linejoin:round; stroke-width:2; stroke-opacity:0.1; fill:none" points="
  642.526,1486.45 642.526,47.2441 
  "/>
<polyline clip-path="url(#clip742)" style="stroke:#000000; stroke-linecap:butt; stroke-linejoin:round; stroke-width:2; stroke-opacity:0.1; fill:none" points="
  1042.94,1486.45 1042.94,47.2441 
  "/>
<polyline clip-path="url(#clip742)" style="stroke:#000000; stroke-linecap:butt; stroke-linejoin:round; stroke-width:2; stroke-opacity:0.1; fill:none" points="
  1443.35,1486.45 1443.35,47.2441 
  "/>
<polyline clip-path="url(#clip742)" style="stroke:#000000; stroke-linecap:butt; stroke-linejoin:round; stroke-width:2; stroke-opacity:0.1; fill:none" points="
  1843.76,1486.45 1843.76,47.2441 
  "/>
<polyline clip-path="url(#clip742)" style="stroke:#000000; stroke-linecap:butt; stroke-linejoin:round; stroke-width:2; stroke-opacity:0.1; fill:none" points="
  2244.16,1486.45 2244.16,47.2441 
  "/>
<polyline clip-path="url(#clip740)" style="stroke:#000000; stroke-linecap:butt; stroke-linejoin:round; stroke-width:4; stroke-opacity:1; fill:none" points="
  213.607,1486.45 2352.76,1486.45 
  "/>
<polyline clip-path="url(#clip740)" style="stroke:#000000; stroke-linecap:butt; stroke-linejoin:round; stroke-width:4; stroke-opacity:1; fill:none" points="
  242.117,1486.45 242.117,1467.55 
  "/>
<polyline clip-path="url(#clip740)" style="stroke:#000000; stroke-linecap:butt; stroke-linejoin:round; stroke-width:4; stroke-opacity:1; fill:none" points="
  642.526,1486.45 642.526,1467.55 
  "/>
<polyline clip-path="url(#clip740)" style="stroke:#000000; stroke-linecap:butt; stroke-linejoin:round; stroke-width:4; stroke-opacity:1; fill:none" points="
  1042.94,1486.45 1042.94,1467.55 
  "/>
<polyline clip-path="url(#clip740)" style="stroke:#000000; stroke-linecap:butt; stroke-linejoin:round; stroke-width:4; stroke-opacity:1; fill:none" points="
  1443.35,1486.45 1443.35,1467.55 
  "/>
<polyline clip-path="url(#clip740)" style="stroke:#000000; stroke-linecap:butt; stroke-linejoin:round; stroke-width:4; stroke-opacity:1; fill:none" points="
  1843.76,1486.45 1843.76,1467.55 
  "/>
<polyline clip-path="url(#clip740)" style="stroke:#000000; stroke-linecap:butt; stroke-linejoin:round; stroke-width:4; stroke-opacity:1; fill:none" points="
  2244.16,1486.45 2244.16,1467.55 
  "/>
<path clip-path="url(#clip740)" d="M242.117 1517.37 Q238.506 1517.37 236.677 1520.93 Q234.871 1524.47 234.871 1531.6 Q234.871 1538.71 236.677 1542.27 Q238.506 1545.82 242.117 1545.82 Q245.751 1545.82 247.556 1542.27 Q249.385 1538.71 249.385 1531.6 Q249.385 1524.47 247.556 1520.93 Q245.751 1517.37 242.117 1517.37 M242.117 1513.66 Q247.927 1513.66 250.982 1518.27 Q254.061 1522.85 254.061 1531.6 Q254.061 1540.33 250.982 1544.94 Q247.927 1549.52 242.117 1549.52 Q236.306 1549.52 233.228 1544.94 Q230.172 1540.33 230.172 1531.6 Q230.172 1522.85 233.228 1518.27 Q236.306 1513.66 242.117 1513.66 Z" fill="#000000" fill-rule="evenodd" fill-opacity="1" /><path clip-path="url(#clip740)" d="M617.225 1514.29 L635.582 1514.29 L635.582 1518.22 L621.508 1518.22 L621.508 1526.7 Q622.526 1526.35 623.545 1526.19 Q624.563 1526 625.582 1526 Q631.369 1526 634.749 1529.17 Q638.128 1532.34 638.128 1537.76 Q638.128 1543.34 634.656 1546.44 Q631.184 1549.52 624.864 1549.52 Q622.688 1549.52 620.42 1549.15 Q618.175 1548.78 615.767 1548.04 L615.767 1543.34 Q617.85 1544.47 620.073 1545.03 Q622.295 1545.58 624.772 1545.58 Q628.776 1545.58 631.114 1543.48 Q633.452 1541.37 633.452 1537.76 Q633.452 1534.15 631.114 1532.04 Q628.776 1529.94 624.772 1529.94 Q622.897 1529.94 621.022 1530.35 Q619.17 1530.77 617.225 1531.65 L617.225 1514.29 Z" fill="#000000" fill-rule="evenodd" fill-opacity="1" /><path clip-path="url(#clip740)" d="M657.341 1517.37 Q653.73 1517.37 651.901 1520.93 Q650.096 1524.47 650.096 1531.6 Q650.096 1538.71 651.901 1542.27 Q653.73 1545.82 657.341 1545.82 Q660.975 1545.82 662.781 1542.27 Q664.609 1538.71 664.609 1531.6 Q664.609 1524.47 662.781 1520.93 Q660.975 1517.37 657.341 1517.37 M657.341 1513.66 Q663.151 1513.66 666.207 1518.27 Q669.285 1522.85 669.285 1531.6 Q669.285 1540.33 666.207 1544.94 Q663.151 1549.52 657.341 1549.52 Q651.531 1549.52 648.452 1544.94 Q645.397 1540.33 645.397 1531.6 Q645.397 1522.85 648.452 1518.27 Q651.531 1513.66 657.341 1513.66 Z" fill="#000000" fill-rule="evenodd" fill-opacity="1" /><path clip-path="url(#clip740)" d="M1002.54 1544.91 L1010.18 1544.91 L1010.18 1518.55 L1001.87 1520.21 L1001.87 1515.95 L1010.14 1514.29 L1014.81 1514.29 L1014.81 1544.91 L1022.45 1544.91 L1022.45 1548.85 L1002.54 1548.85 L1002.54 1544.91 Z" fill="#000000" fill-rule="evenodd" fill-opacity="1" /><path clip-path="url(#clip740)" d="M1041.89 1517.37 Q1038.28 1517.37 1036.45 1520.93 Q1034.65 1524.47 1034.65 1531.6 Q1034.65 1538.71 1036.45 1542.27 Q1038.28 1545.82 1041.89 1545.82 Q1045.53 1545.82 1047.33 1542.27 Q1049.16 1538.71 1049.16 1531.6 Q1049.16 1524.47 1047.33 1520.93 Q1045.53 1517.37 1041.89 1517.37 M1041.89 1513.66 Q1047.7 1513.66 1050.76 1518.27 Q1053.84 1522.85 1053.84 1531.6 Q1053.84 1540.33 1050.76 1544.94 Q1047.7 1549.52 1041.89 1549.52 Q1036.08 1549.52 1033.01 1544.94 Q1029.95 1540.33 1029.95 1531.6 Q1029.95 1522.85 1033.01 1518.27 Q1036.08 1513.66 1041.89 1513.66 Z" fill="#000000" fill-rule="evenodd" fill-opacity="1" /><path clip-path="url(#clip740)" d="M1072.06 1517.37 Q1068.45 1517.37 1066.62 1520.93 Q1064.81 1524.47 1064.81 1531.6 Q1064.81 1538.71 1066.62 1542.27 Q1068.45 1545.82 1072.06 1545.82 Q1075.69 1545.82 1077.5 1542.27 Q1079.32 1538.71 1079.32 1531.6 Q1079.32 1524.47 1077.5 1520.93 Q1075.69 1517.37 1072.06 1517.37 M1072.06 1513.66 Q1077.87 1513.66 1080.92 1518.27 Q1084 1522.85 1084 1531.6 Q1084 1540.33 1080.92 1544.94 Q1077.87 1549.52 1072.06 1549.52 Q1066.25 1549.52 1063.17 1544.94 Q1060.11 1540.33 1060.11 1531.6 Q1060.11 1522.85 1063.17 1518.27 Q1066.25 1513.66 1072.06 1513.66 Z" fill="#000000" fill-rule="evenodd" fill-opacity="1" /><path clip-path="url(#clip740)" d="M1402.95 1544.91 L1410.59 1544.91 L1410.59 1518.55 L1402.28 1520.21 L1402.28 1515.95 L1410.54 1514.29 L1415.22 1514.29 L1415.22 1544.91 L1422.86 1544.91 L1422.86 1548.85 L1402.95 1548.85 L1402.95 1544.91 Z" fill="#000000" fill-rule="evenodd" fill-opacity="1" /><path clip-path="url(#clip740)" d="M1432.35 1514.29 L1450.71 1514.29 L1450.71 1518.22 L1436.63 1518.22 L1436.63 1526.7 Q1437.65 1526.35 1438.67 1526.19 Q1439.69 1526 1440.71 1526 Q1446.49 1526 1449.87 1529.17 Q1453.25 1532.34 1453.25 1537.76 Q1453.25 1543.34 1449.78 1546.44 Q1446.31 1549.52 1439.99 1549.52 Q1437.81 1549.52 1435.54 1549.15 Q1433.3 1548.78 1430.89 1548.04 L1430.89 1543.34 Q1432.98 1544.47 1435.2 1545.03 Q1437.42 1545.58 1439.9 1545.58 Q1443.9 1545.58 1446.24 1543.48 Q1448.58 1541.37 1448.58 1537.76 Q1448.58 1534.15 1446.24 1532.04 Q1443.9 1529.94 1439.9 1529.94 Q1438.02 1529.94 1436.15 1530.35 Q1434.29 1530.77 1432.35 1531.65 L1432.35 1514.29 Z" fill="#000000" fill-rule="evenodd" fill-opacity="1" /><path clip-path="url(#clip740)" d="M1472.47 1517.37 Q1468.85 1517.37 1467.03 1520.93 Q1465.22 1524.47 1465.22 1531.6 Q1465.22 1538.71 1467.03 1542.27 Q1468.85 1545.82 1472.47 1545.82 Q1476.1 1545.82 1477.91 1542.27 Q1479.73 1538.71 1479.73 1531.6 Q1479.73 1524.47 1477.91 1520.93 Q1476.1 1517.37 1472.47 1517.37 M1472.47 1513.66 Q1478.28 1513.66 1481.33 1518.27 Q1484.41 1522.85 1484.41 1531.6 Q1484.41 1540.33 1481.33 1544.94 Q1478.28 1549.52 1472.47 1549.52 Q1466.66 1549.52 1463.58 1544.94 Q1460.52 1540.33 1460.52 1531.6 Q1460.52 1522.85 1463.58 1518.27 Q1466.66 1513.66 1472.47 1513.66 Z" fill="#000000" fill-rule="evenodd" fill-opacity="1" /><path clip-path="url(#clip740)" d="M1807.45 1544.91 L1823.77 1544.91 L1823.77 1548.85 L1801.82 1548.85 L1801.82 1544.91 Q1804.48 1542.16 1809.07 1537.53 Q1813.67 1532.88 1814.85 1531.53 Q1817.1 1529.01 1817.98 1527.27 Q1818.88 1525.51 1818.88 1523.82 Q1818.88 1521.07 1816.94 1519.33 Q1815.02 1517.6 1811.92 1517.6 Q1809.72 1517.6 1807.26 1518.36 Q1804.83 1519.13 1802.05 1520.68 L1802.05 1515.95 Q1804.88 1514.82 1807.33 1514.24 Q1809.79 1513.66 1811.82 1513.66 Q1817.19 1513.66 1820.39 1516.35 Q1823.58 1519.03 1823.58 1523.52 Q1823.58 1525.65 1822.77 1527.57 Q1821.98 1529.47 1819.88 1532.07 Q1819.3 1532.74 1816.2 1535.95 Q1813.1 1539.15 1807.45 1544.91 Z" fill="#000000" fill-rule="evenodd" fill-opacity="1" /><path clip-path="url(#clip740)" d="M1843.58 1517.37 Q1839.97 1517.37 1838.14 1520.93 Q1836.34 1524.47 1836.34 1531.6 Q1836.34 1538.71 1838.14 1542.27 Q1839.97 1545.82 1843.58 1545.82 Q1847.22 1545.82 1849.02 1542.27 Q1850.85 1538.71 1850.85 1531.6 Q1850.85 1524.47 1849.02 1520.93 Q1847.22 1517.37 1843.58 1517.37 M1843.58 1513.66 Q1849.39 1513.66 1852.45 1518.27 Q1855.53 1522.85 1855.53 1531.6 Q1855.53 1540.33 1852.45 1544.94 Q1849.39 1549.52 1843.58 1549.52 Q1837.77 1549.52 1834.69 1544.94 Q1831.64 1540.33 1831.64 1531.6 Q1831.64 1522.85 1834.69 1518.27 Q1837.77 1513.66 1843.58 1513.66 Z" fill="#000000" fill-rule="evenodd" fill-opacity="1" /><path clip-path="url(#clip740)" d="M1873.74 1517.37 Q1870.13 1517.37 1868.3 1520.93 Q1866.5 1524.47 1866.5 1531.6 Q1866.5 1538.71 1868.3 1542.27 Q1870.13 1545.82 1873.74 1545.82 Q1877.38 1545.82 1879.18 1542.27 Q1881.01 1538.71 1881.01 1531.6 Q1881.01 1524.47 1879.18 1520.93 Q1877.38 1517.37 1873.74 1517.37 M1873.74 1513.66 Q1879.55 1513.66 1882.61 1518.27 Q1885.69 1522.85 1885.69 1531.6 Q1885.69 1540.33 1882.61 1544.94 Q1879.55 1549.52 1873.74 1549.52 Q1867.93 1549.52 1864.85 1544.94 Q1861.8 1540.33 1861.8 1531.6 Q1861.8 1522.85 1864.85 1518.27 Q1867.93 1513.66 1873.74 1513.66 Z" fill="#000000" fill-rule="evenodd" fill-opacity="1" /><path clip-path="url(#clip740)" d="M2207.86 1544.91 L2224.18 1544.91 L2224.18 1548.85 L2202.23 1548.85 L2202.23 1544.91 Q2204.89 1542.16 2209.48 1537.53 Q2214.08 1532.88 2215.26 1531.53 Q2217.51 1529.01 2218.39 1527.27 Q2219.29 1525.51 2219.29 1523.82 Q2219.29 1521.07 2217.35 1519.33 Q2215.43 1517.6 2212.32 1517.6 Q2210.13 1517.6 2207.67 1518.36 Q2205.24 1519.13 2202.46 1520.68 L2202.46 1515.95 Q2205.29 1514.82 2207.74 1514.24 Q2210.2 1513.66 2212.23 1513.66 Q2217.6 1513.66 2220.8 1516.35 Q2223.99 1519.03 2223.99 1523.52 Q2223.99 1525.65 2223.18 1527.57 Q2222.39 1529.47 2220.29 1532.07 Q2219.71 1532.74 2216.61 1535.95 Q2213.51 1539.15 2207.86 1544.91 Z" fill="#000000" fill-rule="evenodd" fill-opacity="1" /><path clip-path="url(#clip740)" d="M2234.04 1514.29 L2252.39 1514.29 L2252.39 1518.22 L2238.32 1518.22 L2238.32 1526.7 Q2239.34 1526.35 2240.36 1526.19 Q2241.38 1526 2242.39 1526 Q2248.18 1526 2251.56 1529.17 Q2254.94 1532.34 2254.94 1537.76 Q2254.94 1543.34 2251.47 1546.44 Q2248 1549.52 2241.68 1549.52 Q2239.5 1549.52 2237.23 1549.15 Q2234.99 1548.78 2232.58 1548.04 L2232.58 1543.34 Q2234.66 1544.47 2236.88 1545.03 Q2239.11 1545.58 2241.58 1545.58 Q2245.59 1545.58 2247.93 1543.48 Q2250.26 1541.37 2250.26 1537.76 Q2250.26 1534.15 2247.93 1532.04 Q2245.59 1529.94 2241.58 1529.94 Q2239.71 1529.94 2237.83 1530.35 Q2235.98 1530.77 2234.04 1531.65 L2234.04 1514.29 Z" fill="#000000" fill-rule="evenodd" fill-opacity="1" /><path clip-path="url(#clip740)" d="M2274.15 1517.37 Q2270.54 1517.37 2268.71 1520.93 Q2266.91 1524.47 2266.91 1531.6 Q2266.91 1538.71 2268.71 1542.27 Q2270.54 1545.82 2274.15 1545.82 Q2277.79 1545.82 2279.59 1542.27 Q2281.42 1538.71 2281.42 1531.6 Q2281.42 1524.47 2279.59 1520.93 Q2277.79 1517.37 2274.15 1517.37 M2274.15 1513.66 Q2279.96 1513.66 2283.02 1518.27 Q2286.1 1522.85 2286.1 1531.6 Q2286.1 1540.33 2283.02 1544.94 Q2279.96 1549.52 2274.15 1549.52 Q2268.34 1549.52 2265.26 1544.94 Q2262.21 1540.33 2262.21 1531.6 Q2262.21 1522.85 2265.26 1518.27 Q2268.34 1513.66 2274.15 1513.66 Z" fill="#000000" fill-rule="evenodd" fill-opacity="1" /><polyline clip-path="url(#clip742)" style="stroke:#000000; stroke-linecap:butt; stroke-linejoin:round; stroke-width:2; stroke-opacity:0.1; fill:none" points="
  213.607,1067.04 2352.76,1067.04 
  "/>
<polyline clip-path="url(#clip742)" style="stroke:#000000; stroke-linecap:butt; stroke-linejoin:round; stroke-width:2; stroke-opacity:0.1; fill:none" points="
  213.607,570.889 2352.76,570.889 
  "/>
<polyline clip-path="url(#clip742)" style="stroke:#000000; stroke-linecap:butt; stroke-linejoin:round; stroke-width:2; stroke-opacity:0.1; fill:none" points="
  213.607,74.7339 2352.76,74.7339 
  "/>
<polyline clip-path="url(#clip740)" style="stroke:#000000; stroke-linecap:butt; stroke-linejoin:round; stroke-width:4; stroke-opacity:1; fill:none" points="
  213.607,1486.45 213.607,47.2441 
  "/>
<polyline clip-path="url(#clip740)" style="stroke:#000000; stroke-linecap:butt; stroke-linejoin:round; stroke-width:4; stroke-opacity:1; fill:none" points="
  213.607,1067.04 232.505,1067.04 
  "/>
<polyline clip-path="url(#clip740)" style="stroke:#000000; stroke-linecap:butt; stroke-linejoin:round; stroke-width:4; stroke-opacity:1; fill:none" points="
  213.607,570.889 232.505,570.889 
  "/>
<polyline clip-path="url(#clip740)" style="stroke:#000000; stroke-linecap:butt; stroke-linejoin:round; stroke-width:4; stroke-opacity:1; fill:none" points="
  213.607,74.7339 232.505,74.7339 
  "/>
<path clip-path="url(#clip740)" d="M51.6634 1086.84 L59.3023 1086.84 L59.3023 1060.47 L50.9921 1062.14 L50.9921 1057.88 L59.256 1056.21 L63.9319 1056.21 L63.9319 1086.84 L71.5707 1086.84 L71.5707 1090.77 L51.6634 1090.77 L51.6634 1086.84 Z" fill="#000000" fill-rule="evenodd" fill-opacity="1" /><path clip-path="url(#clip740)" d="M91.0151 1059.29 Q87.404 1059.29 85.5753 1062.86 Q83.7697 1066.4 83.7697 1073.53 Q83.7697 1080.63 85.5753 1084.2 Q87.404 1087.74 91.0151 1087.74 Q94.6493 1087.74 96.4548 1084.2 Q98.2835 1080.63 98.2835 1073.53 Q98.2835 1066.4 96.4548 1062.86 Q94.6493 1059.29 91.0151 1059.29 M91.0151 1055.59 Q96.8252 1055.59 99.8808 1060.19 Q102.959 1064.78 102.959 1073.53 Q102.959 1082.25 99.8808 1086.86 Q96.8252 1091.44 91.0151 1091.44 Q85.2049 1091.44 82.1262 1086.86 Q79.0707 1082.25 79.0707 1073.53 Q79.0707 1064.78 82.1262 1060.19 Q85.2049 1055.59 91.0151 1055.59 Z" fill="#000000" fill-rule="evenodd" fill-opacity="1" /><path clip-path="url(#clip740)" d="M102.959 1049.69 L127.071 1049.69 L127.071 1052.89 L102.959 1052.89 L102.959 1049.69 Z" fill="#000000" fill-rule="evenodd" fill-opacity="1" /><path clip-path="url(#clip740)" d="M135.929 1060.16 L142.136 1060.16 L142.136 1038.74 L135.384 1040.1 L135.384 1036.64 L142.098 1035.28 L145.898 1035.28 L145.898 1060.16 L152.104 1060.16 L152.104 1063.36 L135.929 1063.36 L135.929 1060.16 Z" fill="#000000" fill-rule="evenodd" fill-opacity="1" /><path clip-path="url(#clip740)" d="M167.903 1037.78 Q164.969 1037.78 163.483 1040.68 Q162.016 1043.56 162.016 1049.35 Q162.016 1055.12 163.483 1058.02 Q164.969 1060.9 167.903 1060.9 Q170.855 1060.9 172.322 1058.02 Q173.808 1055.12 173.808 1049.35 Q173.808 1043.56 172.322 1040.68 Q170.855 1037.78 167.903 1037.78 M167.903 1034.77 Q172.623 1034.77 175.106 1038.52 Q177.607 1042.24 177.607 1049.35 Q177.607 1056.44 175.106 1060.18 Q172.623 1063.91 167.903 1063.91 Q163.182 1063.91 160.68 1060.18 Q158.198 1056.44 158.198 1049.35 Q158.198 1042.24 160.68 1038.52 Q163.182 1034.77 167.903 1034.77 Z" fill="#000000" fill-rule="evenodd" fill-opacity="1" /><path clip-path="url(#clip740)" d="M76.9787 590.681 L84.6175 590.681 L84.6175 564.316 L76.3074 565.982 L76.3074 561.723 L84.5712 560.057 L89.2471 560.057 L89.2471 590.681 L96.886 590.681 L96.886 594.617 L76.9787 594.617 L76.9787 590.681 Z" fill="#000000" fill-rule="evenodd" fill-opacity="1" /><path clip-path="url(#clip740)" d="M116.33 563.135 Q112.719 563.135 110.891 566.7 Q109.085 570.242 109.085 577.371 Q109.085 584.478 110.891 588.043 Q112.719 591.584 116.33 591.584 Q119.965 591.584 121.77 588.043 Q123.599 584.478 123.599 577.371 Q123.599 570.242 121.77 566.7 Q119.965 563.135 116.33 563.135 M116.33 559.432 Q122.14 559.432 125.196 564.038 Q128.275 568.621 128.275 577.371 Q128.275 586.098 125.196 590.705 Q122.14 595.288 116.33 595.288 Q110.52 595.288 107.441 590.705 Q104.386 586.098 104.386 577.371 Q104.386 568.621 107.441 564.038 Q110.52 559.432 116.33 559.432 Z" fill="#000000" fill-rule="evenodd" fill-opacity="1" /><path clip-path="url(#clip740)" d="M128.275 553.533 L152.386 553.533 L152.386 556.73 L128.275 556.73 L128.275 553.533 Z" fill="#000000" fill-rule="evenodd" fill-opacity="1" /><path clip-path="url(#clip740)" d="M160.624 539.126 L175.539 539.126 L175.539 542.323 L164.103 542.323 L164.103 549.207 Q164.931 548.925 165.759 548.793 Q166.586 548.643 167.414 548.643 Q172.116 548.643 174.862 551.22 Q177.607 553.796 177.607 558.197 Q177.607 562.73 174.786 565.25 Q171.965 567.752 166.831 567.752 Q165.063 567.752 163.22 567.451 Q161.395 567.15 159.439 566.548 L159.439 562.73 Q161.132 563.651 162.937 564.103 Q164.743 564.554 166.755 564.554 Q170.009 564.554 171.909 562.843 Q173.808 561.131 173.808 558.197 Q173.808 555.263 171.909 553.552 Q170.009 551.84 166.755 551.84 Q165.232 551.84 163.709 552.179 Q162.204 552.517 160.624 553.232 L160.624 539.126 Z" fill="#000000" fill-rule="evenodd" fill-opacity="1" /><path clip-path="url(#clip740)" d="M106.902 94.5264 L114.541 94.5264 L114.541 68.1608 L106.231 69.8274 L106.231 65.5682 L114.494 63.9015 L119.17 63.9015 L119.17 94.5264 L126.809 94.5264 L126.809 98.4615 L106.902 98.4615 L106.902 94.5264 Z" fill="#000000" fill-rule="evenodd" fill-opacity="1" /><path clip-path="url(#clip740)" d="M146.253 66.9802 Q142.642 66.9802 140.814 70.545 Q139.008 74.0867 139.008 81.2162 Q139.008 88.3227 140.814 91.8875 Q142.642 95.4291 146.253 95.4291 Q149.888 95.4291 151.693 91.8875 Q153.522 88.3227 153.522 81.2162 Q153.522 74.0867 151.693 70.545 Q149.888 66.9802 146.253 66.9802 M146.253 63.2765 Q152.064 63.2765 155.119 67.883 Q158.198 72.4663 158.198 81.2162 Q158.198 89.943 155.119 94.5495 Q152.064 99.1328 146.253 99.1328 Q140.443 99.1328 137.365 94.5495 Q134.309 89.943 134.309 81.2162 Q134.309 72.4663 137.365 67.883 Q140.443 63.2765 146.253 63.2765 Z" fill="#000000" fill-rule="evenodd" fill-opacity="1" /><path clip-path="url(#clip740)" d="M167.903 45.4726 Q164.969 45.4726 163.483 48.369 Q162.016 51.2465 162.016 57.0393 Q162.016 62.8133 163.483 65.7097 Q164.969 68.5873 167.903 68.5873 Q170.855 68.5873 172.322 65.7097 Q173.808 62.8133 173.808 57.0393 Q173.808 51.2465 172.322 48.369 Q170.855 45.4726 167.903 45.4726 M167.903 42.4633 Q172.623 42.4633 175.106 46.2061 Q177.607 49.93 177.607 57.0393 Q177.607 64.1299 175.106 67.8726 Q172.623 71.5965 167.903 71.5965 Q163.182 71.5965 160.68 67.8726 Q158.198 64.1299 158.198 57.0393 Q158.198 49.93 160.68 46.2061 Q163.182 42.4633 167.903 42.4633 Z" fill="#000000" fill-rule="evenodd" fill-opacity="1" /><polyline clip-path="url(#clip742)" style="stroke:#009af9; stroke-linecap:butt; stroke-linejoin:round; stroke-width:16; stroke-opacity:1; fill:none" points="
  274.149,87.9763 306.182,125.192 370.248,215.099 498.379,411.55 754.641,821.271 1267.17,1445.72 2292.21,1422.56 
  "/>
<line clip-path="url(#clip742)" x1="274.149" y1="87.9763" x2="274.149" y2="71.9763" style="stroke:#009af9; stroke-width:3.2; stroke-opacity:1"/>
<line clip-path="url(#clip742)" x1="274.149" y1="87.9763" x2="258.149" y2="87.9763" style="stroke:#009af9; stroke-width:3.2; stroke-opacity:1"/>
<line clip-path="url(#clip742)" x1="274.149" y1="87.9763" x2="274.149" y2="103.976" style="stroke:#009af9; stroke-width:3.2; stroke-opacity:1"/>
<line clip-path="url(#clip742)" x1="274.149" y1="87.9763" x2="290.149" y2="87.9763" style="stroke:#009af9; stroke-width:3.2; stroke-opacity:1"/>
<line clip-path="url(#clip742)" x1="306.182" y1="125.192" x2="306.182" y2="109.192" style="stroke:#009af9; stroke-width:3.2; stroke-opacity:1"/>
<line clip-path="url(#clip742)" x1="306.182" y1="125.192" x2="290.182" y2="125.192" style="stroke:#009af9; stroke-width:3.2; stroke-opacity:1"/>
<line clip-path="url(#clip742)" x1="306.182" y1="125.192" x2="306.182" y2="141.192" style="stroke:#009af9; stroke-width:3.2; stroke-opacity:1"/>
<line clip-path="url(#clip742)" x1="306.182" y1="125.192" x2="322.182" y2="125.192" style="stroke:#009af9; stroke-width:3.2; stroke-opacity:1"/>
<line clip-path="url(#clip742)" x1="370.248" y1="215.099" x2="370.248" y2="199.099" style="stroke:#009af9; stroke-width:3.2; stroke-opacity:1"/>
<line clip-path="url(#clip742)" x1="370.248" y1="215.099" x2="354.248" y2="215.099" style="stroke:#009af9; stroke-width:3.2; stroke-opacity:1"/>
<line clip-path="url(#clip742)" x1="370.248" y1="215.099" x2="370.248" y2="231.099" style="stroke:#009af9; stroke-width:3.2; stroke-opacity:1"/>
<line clip-path="url(#clip742)" x1="370.248" y1="215.099" x2="386.248" y2="215.099" style="stroke:#009af9; stroke-width:3.2; stroke-opacity:1"/>
<line clip-path="url(#clip742)" x1="498.379" y1="411.55" x2="498.379" y2="395.55" style="stroke:#009af9; stroke-width:3.2; stroke-opacity:1"/>
<line clip-path="url(#clip742)" x1="498.379" y1="411.55" x2="482.379" y2="411.55" style="stroke:#009af9; stroke-width:3.2; stroke-opacity:1"/>
<line clip-path="url(#clip742)" x1="498.379" y1="411.55" x2="498.379" y2="427.55" style="stroke:#009af9; stroke-width:3.2; stroke-opacity:1"/>
<line clip-path="url(#clip742)" x1="498.379" y1="411.55" x2="514.379" y2="411.55" style="stroke:#009af9; stroke-width:3.2; stroke-opacity:1"/>
<line clip-path="url(#clip742)" x1="754.641" y1="821.271" x2="754.641" y2="805.271" style="stroke:#009af9; stroke-width:3.2; stroke-opacity:1"/>
<line clip-path="url(#clip742)" x1="754.641" y1="821.271" x2="738.641" y2="821.271" style="stroke:#009af9; stroke-width:3.2; stroke-opacity:1"/>
<line clip-path="url(#clip742)" x1="754.641" y1="821.271" x2="754.641" y2="837.271" style="stroke:#009af9; stroke-width:3.2; stroke-opacity:1"/>
<line clip-path="url(#clip742)" x1="754.641" y1="821.271" x2="770.641" y2="821.271" style="stroke:#009af9; stroke-width:3.2; stroke-opacity:1"/>
<line clip-path="url(#clip742)" x1="1267.17" y1="1445.72" x2="1267.17" y2="1429.72" style="stroke:#009af9; stroke-width:3.2; stroke-opacity:1"/>
<line clip-path="url(#clip742)" x1="1267.17" y1="1445.72" x2="1251.17" y2="1445.72" style="stroke:#009af9; stroke-width:3.2; stroke-opacity:1"/>
<line clip-path="url(#clip742)" x1="1267.17" y1="1445.72" x2="1267.17" y2="1461.72" style="stroke:#009af9; stroke-width:3.2; stroke-opacity:1"/>
<line clip-path="url(#clip742)" x1="1267.17" y1="1445.72" x2="1283.17" y2="1445.72" style="stroke:#009af9; stroke-width:3.2; stroke-opacity:1"/>
<line clip-path="url(#clip742)" x1="2292.21" y1="1422.56" x2="2292.21" y2="1406.56" style="stroke:#009af9; stroke-width:3.2; stroke-opacity:1"/>
<line clip-path="url(#clip742)" x1="2292.21" y1="1422.56" x2="2276.21" y2="1422.56" style="stroke:#009af9; stroke-width:3.2; stroke-opacity:1"/>
<line clip-path="url(#clip742)" x1="2292.21" y1="1422.56" x2="2292.21" y2="1438.56" style="stroke:#009af9; stroke-width:3.2; stroke-opacity:1"/>
<line clip-path="url(#clip742)" x1="2292.21" y1="1422.56" x2="2308.21" y2="1422.56" style="stroke:#009af9; stroke-width:3.2; stroke-opacity:1"/>
<path clip-path="url(#clip740)" d="
M1991.34 198.898 L2281.45 198.898 L2281.45 95.2176 L1991.34 95.2176  Z
  " fill="#ffffff" fill-rule="evenodd" fill-opacity="1"/>
<polyline clip-path="url(#clip740)" style="stroke:#000000; stroke-linecap:butt; stroke-linejoin:round; stroke-width:4; stroke-opacity:1; fill:none" points="
  1991.34,198.898 2281.45,198.898 2281.45,95.2176 1991.34,95.2176 1991.34,198.898 
  "/>
<polyline clip-path="url(#clip740)" style="stroke:#009af9; stroke-linecap:butt; stroke-linejoin:round; stroke-width:4; stroke-opacity:1; fill:none" points="
  2015.11,147.058 2157.72,147.058 
  "/>
<line clip-path="url(#clip740)" x1="2086.41" y1="147.058" x2="2086.41" y2="121.458" style="stroke:#009af9; stroke-width:5.12; stroke-opacity:1"/>
<line clip-path="url(#clip740)" x1="2086.41" y1="147.058" x2="2060.81" y2="147.058" style="stroke:#009af9; stroke-width:5.12; stroke-opacity:1"/>
<line clip-path="url(#clip740)" x1="2086.41" y1="147.058" x2="2086.41" y2="172.658" style="stroke:#009af9; stroke-width:5.12; stroke-opacity:1"/>
<line clip-path="url(#clip740)" x1="2086.41" y1="147.058" x2="2112.01" y2="147.058" style="stroke:#009af9; stroke-width:5.12; stroke-opacity:1"/>
<path clip-path="url(#clip740)" d="M2195.33 166.745 Q2193.52 171.375 2191.81 172.787 Q2190.1 174.199 2187.22 174.199 L2183.82 174.199 L2183.82 170.634 L2186.32 170.634 Q2188.08 170.634 2189.05 169.8 Q2190.03 168.967 2191.21 165.865 L2191.97 163.921 L2181.48 138.412 L2186 138.412 L2194.1 158.689 L2202.2 138.412 L2206.72 138.412 L2195.33 166.745 Z" fill="#000000" fill-rule="evenodd" fill-opacity="1" /><path clip-path="url(#clip740)" d="M2214.01 160.402 L2221.65 160.402 L2221.65 134.037 L2213.34 135.703 L2213.34 131.444 L2221.6 129.778 L2226.28 129.778 L2226.28 160.402 L2233.91 160.402 L2233.91 164.338 L2214.01 164.338 L2214.01 160.402 Z" fill="#000000" fill-rule="evenodd" fill-opacity="1" /></svg>
