<?xml version="1.0" encoding="utf-8"?>
<svg xmlns="http://www.w3.org/2000/svg" xmlns:xlink="http://www.w3.org/1999/xlink" width="600" height="400" viewBox="0 0 2400 1600">
<defs>
  <clipPath id="clip020">
    <rect x="0" y="0" width="2400" height="1600"/>
  </clipPath>
</defs>
<path clip-path="url(#clip020)" d="
M0 1600 L2400 1600 L2400 0 L0 0  Z
  " fill="#ffffff" fill-rule="evenodd" fill-opacity="1"/>
<defs>
  <clipPath id="clip021">
    <rect x="480" y="0" width="1681" height="1600"/>
  </clipPath>
</defs>
<path clip-path="url(#clip020)" d="
M193.936 1486.45 L2352.76 1486.45 L2352.76 47.2441 L193.936 47.2441  Z
  " fill="#ffffff" fill-rule="evenodd" fill-opacity="1"/>
<defs>
  <clipPath id="clip022">
    <rect x="193" y="47" width="2160" height="1440"/>
  </clipPath>
</defs>
<polyline clip-path="url(#clip022)" style="stroke:#000000; stroke-linecap:butt; stroke-linejoin:round; stroke-width:2; stroke-opacity:0.1; fill:none" points="
  193.936,1486.45 193.936,47.2441 
  "/>
<polyline clip-path="url(#clip022)" style="stroke:#000000; stroke-linecap:butt; stroke-linejoin:round; stroke-width:2; stroke-opacity:0.1; fill:none" points="
  553.739,1486.45 553.739,47.2441 
  "/>
<polyline clip-path="url(#clip022)" style="stroke:#000000; stroke-linecap:butt; stroke-linejoin:round; stroke-width:2; stroke-opacity:0.1; fill:none" points="
  913.543,1486.45 913.543,47.2441 
  "/>
<polyline clip-path="url(#clip022)" style="stroke:#000000; stroke-linecap:butt; stroke-linejoin:round; stroke-width:2; stroke-opacity:0.1; fill:none" points="
  1273.35,1486.45 1273.35,47.2441 
  "/>
<polyline clip-path="url(#clip022)" style="stroke:#000000; stroke-linecap:butt; stroke-linejoin:round; stroke-width:2; stroke-opacity:0.1; fill:none" points="
  1633.15,1486.45 1633.15,47.2441 
  "/>
<polyline clip-path="url(#clip022)" style="stroke:#000000; stroke-linecap:butt; stroke-linejoin:round; stroke-width:2; stroke-opacity:0.1; fill:none" points="
  1992.95,1486.45 1992.95,47.2441 
  "/>
<polyline clip-path="url(#clip022)" style="stroke:#000000; stroke-linecap:butt; stroke-linejoin:round; stroke-width:2; stroke-opacity:0.1; fill:none" points="
  2352.76,1486.45 2352.76,47.2441 
  "/>
<polyline clip-path="url(#clip020)" style="stroke:#000000; stroke-linecap:butt; stroke-linejoin:round; stroke-width:4; stroke-opacity:1; fill:none" points="
  193.936,1486.45 2352.76,1486.45 
  "/>
<polyline clip-path="url(#clip020)" style="stroke:#000000; stroke-linecap:butt; stroke-linejoin:round; stroke-width:4; stroke-opacity:1; fill:none" points="
  193.936,1486.45 193.936,1467.55 
  "/>
<polyline clip-path="url(#clip020)" style="stroke:#000000; stroke-linecap:butt; stroke-linejoin:round; stroke-width:4; stroke-opacity:1; fill:none" points="
  553.739,1486.45 553.739,1467.55 
  "/>
<polyline clip-path="url(#clip020)" style="stroke:#000000; stroke-linecap:butt; stroke-linejoin:round; stroke-width:4; stroke-opacity:1; fill:none" points="
  913.543,1486.45 913.543,1467.55 
  "/>
<polyline clip-path="url(#clip020)" style="stroke:#000000; stroke-linecap:butt; stroke-linejoin:round; stroke-width:4; stroke-opacity:1; fill:none" points="
  1273.35,1486.45 1273.35,1467.55 
  "/>
<polyline clip-path="url(#clip020)" style="stroke:#000000; stroke-linecap:butt; stroke-linejoin:round; stroke-width:4; stroke-opacity:1; fill:none" points="
  1633.15,1486.45 1633.15,1467.55 
  "/>
<polyline clip-path="url(#clip020)" style="stroke:#000000; stroke-linecap:butt; stroke-linejoin:round; stroke-width:4; stroke-opacity:1; fill:none" points="
  1992.95,1486.45 1992.95,1467.55 
  "/>
<polyline clip-path="url(#clip020)" style="stroke:#000000; stroke-linecap:butt; stroke-linejoin:round; stroke-width:4; stroke-opacity:1; fill:none" points="
  2352.76,1486.45 2352.76,1467.55 
  "/>
<path clip-path="url(#clip020)" d="M163.404 1532.02 L193.08 1532.02 L193.08 1535.95 L163.404 1535.95 L163.404 1532.02 Z" fill="#000000" fill-rule="evenodd" fill-opacity="1" /><path clip-path="url(#clip020)" d="M217.339 1530.21 Q220.695 1530.93 222.57 1533.2 Q224.468 1535.47 224.468 1538.8 Q224.468 1543.92 220.95 1546.72 Q217.431 1549.52 210.95 1549.52 Q208.774 1549.52 206.459 1549.08 Q204.167 1548.66 201.714 1547.81 L201.714 1543.29 Q203.658 1544.43 205.973 1545.01 Q208.288 1545.58 210.811 1545.58 Q215.209 1545.58 217.501 1543.85 Q219.815 1542.11 219.815 1538.8 Q219.815 1535.75 217.663 1534.03 Q215.533 1532.3 211.714 1532.3 L207.686 1532.3 L207.686 1528.45 L211.899 1528.45 Q215.348 1528.45 217.177 1527.09 Q219.005 1525.7 219.005 1523.11 Q219.005 1520.45 217.107 1519.03 Q215.232 1517.6 211.714 1517.6 Q209.792 1517.6 207.593 1518.01 Q205.394 1518.43 202.755 1519.31 L202.755 1515.14 Q205.417 1514.4 207.732 1514.03 Q210.07 1513.66 212.13 1513.66 Q217.454 1513.66 220.556 1516.09 Q223.658 1518.5 223.658 1522.62 Q223.658 1525.49 222.015 1527.48 Q220.371 1529.45 217.339 1530.21 Z" fill="#000000" fill-rule="evenodd" fill-opacity="1" /><path clip-path="url(#clip020)" d="M523.682 1532.02 L553.357 1532.02 L553.357 1535.95 L523.682 1535.95 L523.682 1532.02 Z" fill="#000000" fill-rule="evenodd" fill-opacity="1" /><path clip-path="url(#clip020)" d="M567.478 1544.91 L583.797 1544.91 L583.797 1548.85 L561.853 1548.85 L561.853 1544.91 Q564.515 1542.16 569.098 1537.53 Q573.704 1532.88 574.885 1531.53 Q577.13 1529.01 578.01 1527.27 Q578.913 1525.51 578.913 1523.82 Q578.913 1521.07 576.968 1519.33 Q575.047 1517.6 571.945 1517.6 Q569.746 1517.6 567.292 1518.36 Q564.862 1519.13 562.084 1520.68 L562.084 1515.95 Q564.908 1514.82 567.362 1514.24 Q569.816 1513.66 571.853 1513.66 Q577.223 1513.66 580.417 1516.35 Q583.612 1519.03 583.612 1523.52 Q583.612 1525.65 582.802 1527.57 Q582.015 1529.47 579.908 1532.07 Q579.329 1532.74 576.228 1535.95 Q573.126 1539.15 567.478 1544.91 Z" fill="#000000" fill-rule="evenodd" fill-opacity="1" /><path clip-path="url(#clip020)" d="M883.3 1532.02 L912.976 1532.02 L912.976 1535.95 L883.3 1535.95 L883.3 1532.02 Z" fill="#000000" fill-rule="evenodd" fill-opacity="1" /><path clip-path="url(#clip020)" d="M923.878 1544.91 L931.517 1544.91 L931.517 1518.55 L923.207 1520.21 L923.207 1515.95 L931.471 1514.29 L936.147 1514.29 L936.147 1544.91 L943.786 1544.91 L943.786 1548.85 L923.878 1548.85 L923.878 1544.91 Z" fill="#000000" fill-rule="evenodd" fill-opacity="1" /><path clip-path="url(#clip020)" d="M1273.35 1517.37 Q1269.73 1517.37 1267.91 1520.93 Q1266.1 1524.47 1266.1 1531.6 Q1266.1 1538.71 1267.91 1542.27 Q1269.73 1545.82 1273.35 1545.82 Q1276.98 1545.82 1278.79 1542.27 Q1280.61 1538.71 1280.61 1531.6 Q1280.61 1524.47 1278.79 1520.93 Q1276.98 1517.37 1273.35 1517.37 M1273.35 1513.66 Q1279.16 1513.66 1282.21 1518.27 Q1285.29 1522.85 1285.29 1531.6 Q1285.29 1540.33 1282.21 1544.94 Q1279.16 1549.52 1273.35 1549.52 Q1267.54 1549.52 1264.46 1544.94 Q1261.4 1540.33 1261.4 1531.6 Q1261.4 1522.85 1264.46 1518.27 Q1267.54 1513.66 1273.35 1513.66 Z" fill="#000000" fill-rule="evenodd" fill-opacity="1" /><path clip-path="url(#clip020)" d="M1623.53 1544.91 L1631.17 1544.91 L1631.17 1518.55 L1622.86 1520.21 L1622.86 1515.95 L1631.12 1514.29 L1635.8 1514.29 L1635.8 1544.91 L1643.44 1544.91 L1643.44 1548.85 L1623.53 1548.85 L1623.53 1544.91 Z" fill="#000000" fill-rule="evenodd" fill-opacity="1" /><path clip-path="url(#clip020)" d="M1987.61 1544.91 L2003.92 1544.91 L2003.92 1548.85 L1981.98 1548.85 L1981.98 1544.91 Q1984.64 1542.16 1989.23 1537.53 Q1993.83 1532.88 1995.01 1531.53 Q1997.26 1529.01 1998.14 1527.27 Q1999.04 1525.51 1999.04 1523.82 Q1999.04 1521.07 1997.1 1519.33 Q1995.17 1517.6 1992.07 1517.6 Q1989.87 1517.6 1987.42 1518.36 Q1984.99 1519.13 1982.21 1520.68 L1982.21 1515.95 Q1985.04 1514.82 1987.49 1514.24 Q1989.94 1513.66 1991.98 1513.66 Q1997.35 1513.66 2000.55 1516.35 Q2003.74 1519.03 2003.74 1523.52 Q2003.74 1525.65 2002.93 1527.57 Q2002.14 1529.47 2000.04 1532.07 Q1999.46 1532.74 1996.36 1535.95 Q1993.25 1539.15 1987.61 1544.91 Z" fill="#000000" fill-rule="evenodd" fill-opacity="1" /><path clip-path="url(#clip020)" d="M2357 1530.21 Q2360.36 1530.93 2362.24 1533.2 Q2364.13 1535.47 2364.13 1538.8 Q2364.13 1543.92 2360.61 1546.72 Q2357.1 1549.52 2350.61 1549.52 Q2348.44 1549.52 2346.12 1549.08 Q2343.83 1548.66 2341.38 1547.81 L2341.38 1543.29 Q2343.32 1544.43 2345.64 1545.01 Q2347.95 1545.58 2350.48 1545.58 Q2354.87 1545.58 2357.17 1543.85 Q2359.48 1542.11 2359.48 1538.8 Q2359.48 1535.75 2357.33 1534.03 Q2355.2 1532.3 2351.38 1532.3 L2347.35 1532.3 L2347.35 1528.45 L2351.56 1528.45 Q2355.01 1528.45 2356.84 1527.09 Q2358.67 1525.7 2358.67 1523.11 Q2358.67 1520.45 2356.77 1519.03 Q2354.9 1517.6 2351.38 1517.6 Q2349.46 1517.6 2347.26 1518.01 Q2345.06 1518.43 2342.42 1519.31 L2342.42 1515.14 Q2345.08 1514.4 2347.4 1514.03 Q2349.74 1513.66 2351.8 1513.66 Q2357.12 1513.66 2360.22 1516.09 Q2363.32 1518.5 2363.32 1522.62 Q2363.32 1525.49 2361.68 1527.48 Q2360.04 1529.45 2357 1530.21 Z" fill="#000000" fill-rule="evenodd" fill-opacity="1" /><polyline clip-path="url(#clip022)" style="stroke:#000000; stroke-linecap:butt; stroke-linejoin:round; stroke-width:2; stroke-opacity:0.1; fill:none" points="
  193.936,1452.54 2352.76,1452.54 
  "/>
<polyline clip-path="url(#clip022)" style="stroke:#000000; stroke-linecap:butt; stroke-linejoin:round; stroke-width:2; stroke-opacity:0.1; fill:none" points="
  193.936,1111.39 2352.76,1111.39 
  "/>
<polyline clip-path="url(#clip022)" style="stroke:#000000; stroke-linecap:butt; stroke-linejoin:round; stroke-width:2; stroke-opacity:0.1; fill:none" points="
  193.936,770.228 2352.76,770.228 
  "/>
<polyline clip-path="url(#clip022)" style="stroke:#000000; stroke-linecap:butt; stroke-linejoin:round; stroke-width:2; stroke-opacity:0.1; fill:none" points="
  193.936,429.071 2352.76,429.071 
  "/>
<polyline clip-path="url(#clip022)" style="stroke:#000000; stroke-linecap:butt; stroke-linejoin:round; stroke-width:2; stroke-opacity:0.1; fill:none" points="
  193.936,87.9128 2352.76,87.9128 
  "/>
<polyline clip-path="url(#clip020)" style="stroke:#000000; stroke-linecap:butt; stroke-linejoin:round; stroke-width:4; stroke-opacity:1; fill:none" points="
  193.936,1486.45 193.936,47.2441 
  "/>
<polyline clip-path="url(#clip020)" style="stroke:#000000; stroke-linecap:butt; stroke-linejoin:round; stroke-width:4; stroke-opacity:1; fill:none" points="
  193.936,1452.54 212.834,1452.54 
  "/>
<polyline clip-path="url(#clip020)" style="stroke:#000000; stroke-linecap:butt; stroke-linejoin:round; stroke-width:4; stroke-opacity:1; fill:none" points="
  193.936,1111.39 212.834,1111.39 
  "/>
<polyline clip-path="url(#clip020)" style="stroke:#000000; stroke-linecap:butt; stroke-linejoin:round; stroke-width:4; stroke-opacity:1; fill:none" points="
  193.936,770.228 212.834,770.228 
  "/>
<polyline clip-path="url(#clip020)" style="stroke:#000000; stroke-linecap:butt; stroke-linejoin:round; stroke-width:4; stroke-opacity:1; fill:none" points="
  193.936,429.071 212.834,429.071 
  "/>
<polyline clip-path="url(#clip020)" style="stroke:#000000; stroke-linecap:butt; stroke-linejoin:round; stroke-width:4; stroke-opacity:1; fill:none" points="
  193.936,87.9128 212.834,87.9128 
  "/>
<path clip-path="url(#clip020)" d="M50.9921 1453 L80.6679 1453 L80.6679 1456.93 L50.9921 1456.93 L50.9921 1453 Z" fill="#000000" fill-rule="evenodd" fill-opacity="1" /><path clip-path="url(#clip020)" d="M91.5706 1465.89 L99.2095 1465.89 L99.2095 1439.52 L90.8993 1441.19 L90.8993 1436.93 L99.1632 1435.26 L103.839 1435.26 L103.839 1465.89 L111.478 1465.89 L111.478 1469.82 L91.5706 1469.82 L91.5706 1465.89 Z" fill="#000000" fill-rule="evenodd" fill-opacity="1" /><path clip-path="url(#clip020)" d="M120.922 1463.94 L125.807 1463.94 L125.807 1469.82 L120.922 1469.82 L120.922 1463.94 Z" fill="#000000" fill-rule="evenodd" fill-opacity="1" /><path clip-path="url(#clip020)" d="M145.992 1438.34 Q142.381 1438.34 140.552 1441.91 Q138.746 1445.45 138.746 1452.58 Q138.746 1459.69 140.552 1463.25 Q142.381 1466.79 145.992 1466.79 Q149.626 1466.79 151.431 1463.25 Q153.26 1459.69 153.26 1452.58 Q153.26 1445.45 151.431 1441.91 Q149.626 1438.34 145.992 1438.34 M145.992 1434.64 Q151.802 1434.64 154.857 1439.25 Q157.936 1443.83 157.936 1452.58 Q157.936 1461.31 154.857 1465.91 Q151.802 1470.5 145.992 1470.5 Q140.181 1470.5 137.103 1465.91 Q134.047 1461.31 134.047 1452.58 Q134.047 1443.83 137.103 1439.25 Q140.181 1434.64 145.992 1434.64 Z" fill="#000000" fill-rule="evenodd" fill-opacity="1" /><path clip-path="url(#clip020)" d="M51.9875 1111.84 L81.6633 1111.84 L81.6633 1115.77 L51.9875 1115.77 L51.9875 1111.84 Z" fill="#000000" fill-rule="evenodd" fill-opacity="1" /><path clip-path="url(#clip020)" d="M101.756 1097.18 Q98.1447 1097.18 96.316 1100.75 Q94.5104 1104.29 94.5104 1111.42 Q94.5104 1118.53 96.316 1122.09 Q98.1447 1125.63 101.756 1125.63 Q105.39 1125.63 107.196 1122.09 Q109.024 1118.53 109.024 1111.42 Q109.024 1104.29 107.196 1100.75 Q105.39 1097.18 101.756 1097.18 M101.756 1093.48 Q107.566 1093.48 110.621 1098.09 Q113.7 1102.67 113.7 1111.42 Q113.7 1120.15 110.621 1124.75 Q107.566 1129.34 101.756 1129.34 Q95.9456 1129.34 92.8669 1124.75 Q89.8114 1120.15 89.8114 1111.42 Q89.8114 1102.67 92.8669 1098.09 Q95.9456 1093.48 101.756 1093.48 Z" fill="#000000" fill-rule="evenodd" fill-opacity="1" /><path clip-path="url(#clip020)" d="M121.918 1122.79 L126.802 1122.79 L126.802 1128.67 L121.918 1128.67 L121.918 1122.79 Z" fill="#000000" fill-rule="evenodd" fill-opacity="1" /><path clip-path="url(#clip020)" d="M137.033 1094.11 L155.39 1094.11 L155.39 1098.04 L141.316 1098.04 L141.316 1106.51 Q142.334 1106.17 143.353 1106 Q144.371 1105.82 145.39 1105.82 Q151.177 1105.82 154.556 1108.99 Q157.936 1112.16 157.936 1117.58 Q157.936 1123.16 154.464 1126.26 Q150.992 1129.34 144.672 1129.34 Q142.496 1129.34 140.228 1128.97 Q137.982 1128.6 135.575 1127.86 L135.575 1123.16 Q137.658 1124.29 139.881 1124.85 Q142.103 1125.4 144.58 1125.4 Q148.584 1125.4 150.922 1123.3 Q153.26 1121.19 153.26 1117.58 Q153.26 1113.97 150.922 1111.86 Q148.584 1109.75 144.58 1109.75 Q142.705 1109.75 140.83 1110.17 Q138.978 1110.59 137.033 1111.47 L137.033 1094.11 Z" fill="#000000" fill-rule="evenodd" fill-opacity="1" /><path clip-path="url(#clip020)" d="M100.76 756.027 Q97.1493 756.027 95.3206 759.592 Q93.515 763.134 93.515 770.263 Q93.515 777.37 95.3206 780.934 Q97.1493 784.476 100.76 784.476 Q104.395 784.476 106.2 780.934 Q108.029 777.37 108.029 770.263 Q108.029 763.134 106.2 759.592 Q104.395 756.027 100.76 756.027 M100.76 752.323 Q106.571 752.323 109.626 756.93 Q112.705 761.513 112.705 770.263 Q112.705 778.99 109.626 783.596 Q106.571 788.18 100.76 788.18 Q94.9502 788.18 91.8715 783.596 Q88.816 778.99 88.816 770.263 Q88.816 761.513 91.8715 756.93 Q94.9502 752.323 100.76 752.323 Z" fill="#000000" fill-rule="evenodd" fill-opacity="1" /><path clip-path="url(#clip020)" d="M120.922 781.629 L125.807 781.629 L125.807 787.508 L120.922 787.508 L120.922 781.629 Z" fill="#000000" fill-rule="evenodd" fill-opacity="1" /><path clip-path="url(#clip020)" d="M145.992 756.027 Q142.381 756.027 140.552 759.592 Q138.746 763.134 138.746 770.263 Q138.746 777.37 140.552 780.934 Q142.381 784.476 145.992 784.476 Q149.626 784.476 151.431 780.934 Q153.26 777.37 153.26 770.263 Q153.26 763.134 151.431 759.592 Q149.626 756.027 145.992 756.027 M145.992 752.323 Q151.802 752.323 154.857 756.93 Q157.936 761.513 157.936 770.263 Q157.936 778.99 154.857 783.596 Q151.802 788.18 145.992 788.18 Q140.181 788.18 137.103 783.596 Q134.047 778.99 134.047 770.263 Q134.047 761.513 137.103 756.93 Q140.181 752.323 145.992 752.323 Z" fill="#000000" fill-rule="evenodd" fill-opacity="1" /><path clip-path="url(#clip020)" d="M101.756 414.869 Q98.1447 414.869 96.316 418.434 Q94.5104 421.976 94.5104 429.105 Q94.5104 436.212 96.316 439.777 Q98.1447 443.318 101.756 443.318 Q105.39 443.318 107.196 439.777 Q109.024 436.212 109.024 429.105 Q109.024 421.976 107.196 418.434 Q105.39 414.869 101.756 414.869 M101.756 411.166 Q107.566 411.166 110.621 415.772 Q113.7 420.355 113.7 429.105 Q113.7 437.832 110.621 442.439 Q107.566 447.022 101.756 447.022 Q95.9456 447.022 92.8669 442.439 Q89.8114 437.832 89.8114 429.105 Q89.8114 420.355 92.8669 415.772 Q95.9456 411.166 101.756 411.166 Z" fill="#000000" fill-rule="evenodd" fill-opacity="1" /><path clip-path="url(#clip020)" d="M121.918 440.471 L126.802 440.471 L126.802 446.351 L121.918 446.351 L121.918 440.471 Z" fill="#000000" fill-rule="evenodd" fill-opacity="1" /><path clip-path="url(#clip020)" d="M137.033 411.791 L155.39 411.791 L155.39 415.726 L141.316 415.726 L141.316 424.198 Q142.334 423.851 143.353 423.689 Q144.371 423.503 145.39 423.503 Q151.177 423.503 154.556 426.675 Q157.936 429.846 157.936 435.263 Q157.936 440.841 154.464 443.943 Q150.992 447.022 144.672 447.022 Q142.496 447.022 140.228 446.652 Q137.982 446.281 135.575 445.54 L135.575 440.841 Q137.658 441.976 139.881 442.531 Q142.103 443.087 144.58 443.087 Q148.584 443.087 150.922 440.98 Q153.26 438.874 153.26 435.263 Q153.26 431.652 150.922 429.545 Q148.584 427.439 144.58 427.439 Q142.705 427.439 140.83 427.855 Q138.978 428.272 137.033 429.152 L137.033 411.791 Z" fill="#000000" fill-rule="evenodd" fill-opacity="1" /><path clip-path="url(#clip020)" d="M91.5706 101.258 L99.2095 101.258 L99.2095 74.892 L90.8993 76.5587 L90.8993 72.2995 L99.1632 70.6328 L103.839 70.6328 L103.839 101.258 L111.478 101.258 L111.478 105.193 L91.5706 105.193 L91.5706 101.258 Z" fill="#000000" fill-rule="evenodd" fill-opacity="1" /><path clip-path="url(#clip020)" d="M120.922 99.3132 L125.807 99.3132 L125.807 105.193 L120.922 105.193 L120.922 99.3132 Z" fill="#000000" fill-rule="evenodd" fill-opacity="1" /><path clip-path="url(#clip020)" d="M145.992 73.7115 Q142.381 73.7115 140.552 77.2763 Q138.746 80.8179 138.746 87.9475 Q138.746 95.054 140.552 98.6188 Q142.381 102.16 145.992 102.16 Q149.626 102.16 151.431 98.6188 Q153.26 95.054 153.26 87.9475 Q153.26 80.8179 151.431 77.2763 Q149.626 73.7115 145.992 73.7115 M145.992 70.0078 Q151.802 70.0078 154.857 74.6143 Q157.936 79.1976 157.936 87.9475 Q157.936 96.6743 154.857 101.281 Q151.802 105.864 145.992 105.864 Q140.181 105.864 137.103 101.281 Q134.047 96.6743 134.047 87.9475 Q134.047 79.1976 137.103 74.6143 Q140.181 70.0078 145.992 70.0078 Z" fill="#000000" fill-rule="evenodd" fill-opacity="1" /><polyline clip-path="url(#clip022)" style="stroke:#009af9; stroke-linecap:butt; stroke-linejoin:round; stroke-width:12; stroke-opacity:1; fill:none" points="
  193.936,1445.72 197.45,1444.74 200.964,1443.71 204.477,1442.61 207.991,1441.44 224.236,1435.22 240.481,1427.65 256.726,1418.74 272.971,1408.5 289.216,1396.97 
  305.461,1384.16 321.706,1370.09 337.951,1354.81 357.476,1334.86 377.001,1313.25 396.526,1290.04 416.051,1265.3 432.559,1243.25 449.068,1220.2 465.576,1196.2 
  482.084,1171.3 517.949,1114.38 553.814,1054.04 586.879,995.905 619.943,935.863 690.84,803.076 772.981,647.983 809.48,580.633 845.979,515.233 877.985,460.018 
  909.991,407.257 927.439,379.678 944.886,353.017 962.334,327.337 979.782,302.698 997.333,279.022 1014.88,256.514 1032.44,235.229 1049.99,215.216 1069.39,194.629 
  1088.8,175.715 1108.2,158.53 1127.61,143.124 1146.07,130.158 1164.54,118.877 1183,109.311 1201.46,101.485 1220.66,95.2147 1239.86,90.866 1259.06,88.4509 
  1278.25,87.9763 1294.41,89.0822 1310.57,91.562 1326.74,95.4106 1342.9,100.62 1362.63,108.811 1382.36,118.989 1402.09,131.126 1421.82,145.183 1439.89,159.711 
  1457.96,175.78 1476.04,193.348 1494.11,212.371 1510.81,231.192 1527.5,251.172 1544.19,272.27 1560.88,294.44 1577.79,317.94 1594.7,342.44 1611.61,367.884 
  1628.52,394.216 1666.42,456.165 1704.32,521.595 1738.67,583.287 1773.01,646.68 1851.66,795.126 1924.47,931.674 1960.37,996.898 1996.26,1059.87 2031.11,1118.26 
  2065.96,1173.38 2083.83,1200.2 2101.69,1225.97 2119.55,1250.6 2137.42,1274.06 2156.99,1298.33 2176.56,1321.04 2196.13,1342.12 2215.7,1361.5 2229.92,1374.49 
  2244.13,1386.54 2258.35,1397.62 2272.56,1407.72 2300.99,1424.93 2329.43,1438.06 2335.26,1440.24 2341.09,1442.24 2346.92,1444.07 2352.76,1445.72 
  "/>
<polyline clip-path="url(#clip022)" style="stroke:#e26f46; stroke-linecap:butt; stroke-linejoin:round; stroke-width:12; stroke-opacity:1; fill:none" points="
  673.674,826.422 913.543,453.052 1153.41,215.505 1393.28,215.505 1633.15,453.052 1873.02,826.422 
  "/>
<circle clip-path="url(#clip022)" cx="673.674" cy="826.422" r="14.4" fill="#e26f46" fill-rule="evenodd" fill-opacity="1" stroke="#000000" stroke-opacity="1" stroke-width="3.2"/>
<circle clip-path="url(#clip022)" cx="913.543" cy="453.052" r="14.4" fill="#e26f46" fill-rule="evenodd" fill-opacity="1" stroke="#000000" stroke-opacity="1" stroke-width="3.2"/>
<circle clip-path="url(#clip022)" cx="1153.41" cy="215.505" r="14.4" fill="#e26f46" fill-rule="evenodd" fill-opacity="1" stroke="#000000" stroke-opacity="1" stroke-width="3.2"/>
<circle clip-path="url(#clip022)" cx="1393.28" cy="215.505" r="14.4" fill="#e26f46" fill-rule="evenodd" fill-opacity="1" stroke="#000000" stroke-opacity="1" stroke-width="3.2"/>
<circle clip-path="url(#clip022)" cx="1633.15" cy="453.052" r="14.4" fill="#e26f46" fill-rule="evenodd" fill-opacity="1" stroke="#000000" stroke-opacity="1" stroke-width="3.2"/>
<circle clip-path="url(#clip022)" cx="1873.02" cy="826.422" r="14.4" fill="#e26f46" fill-rule="evenodd" fill-opacity="1" stroke="#000000" stroke-opacity="1" stroke-width="3.2"/>
<polyline clip-path="url(#clip022)" style="stroke:#3da44d; stroke-linecap:butt; stroke-linejoin:round; stroke-width:12; stroke-opacity:1; fill:none" points="
  433.805,1224.34 673.674,833.159 913.543,415.025 1153.41,148.999 1393.28,148.999 1633.15,415.025 1873.02,833.159 2112.89,1224.34 
  "/>
<circle clip-path="url(#clip022)" cx="433.805" cy="1224.34" r="14.4" fill="#3da44d" fill-rule="evenodd" fill-opacity="1" stroke="#000000" stroke-opacity="1" stroke-width="3.2"/>
<circle clip-path="url(#clip022)" cx="673.674" cy="833.159" r="14.4" fill="#3da44d" fill-rule="evenodd" fill-opacity="1" stroke="#000000" stroke-opacity="1" stroke-width="3.2"/>
<circle clip-path="url(#clip022)" cx="913.543" cy="415.025" r="14.4" fill="#3da44d" fill-rule="evenodd" fill-opacity="1" stroke="#000000" stroke-opacity="1" stroke-width="3.2"/>
<circle clip-path="url(#clip022)" cx="1153.41" cy="148.999" r="14.4" fill="#3da44d" fill-rule="evenodd" fill-opacity="1" stroke="#000000" stroke-opacity="1" stroke-width="3.2"/>
<circle clip-path="url(#clip022)" cx="1393.28" cy="148.999" r="14.4" fill="#3da44d" fill-rule="evenodd" fill-opacity="1" stroke="#000000" stroke-opacity="1" stroke-width="3.2"/>
<circle clip-path="url(#clip022)" cx="1633.15" cy="415.025" r="14.4" fill="#3da44d" fill-rule="evenodd" fill-opacity="1" stroke="#000000" stroke-opacity="1" stroke-width="3.2"/>
<circle clip-path="url(#clip022)" cx="1873.02" cy="833.159" r="14.4" fill="#3da44d" fill-rule="evenodd" fill-opacity="1" stroke="#000000" stroke-opacity="1" stroke-width="3.2"/>
<circle clip-path="url(#clip022)" cx="2112.89" cy="1224.34" r="14.4" fill="#3da44d" fill-rule="evenodd" fill-opacity="1" stroke="#000000" stroke-opacity="1" stroke-width="3.2"/>
<path clip-path="url(#clip020)" d="
M1909.24 302.578 L2280.8 302.578 L2280.8 95.2176 L1909.24 95.2176  Z
  " fill="#ffffff" fill-rule="evenodd" fill-opacity="1"/>
<polyline clip-path="url(#clip020)" style="stroke:#000000; stroke-linecap:butt; stroke-linejoin:round; stroke-width:4; stroke-opacity:1; fill:none" points="
  1909.24,302.578 2280.8,302.578 2280.8,95.2176 1909.24,95.2176 1909.24,302.578 
  "/>
<polyline clip-path="url(#clip020)" style="stroke:#009af9; stroke-linecap:butt; stroke-linejoin:round; stroke-width:4; stroke-opacity:1; fill:none" points="
  1933.22,147.058 2077.15,147.058 
  "/>
<path clip-path="url(#clip020)" d="M2114.97 166.745 Q2113.17 171.375 2111.46 172.787 Q2109.74 174.199 2106.87 174.199 L2103.47 174.199 L2103.47 170.634 L2105.97 170.634 Q2107.73 170.634 2108.7 169.8 Q2109.67 168.967 2110.85 165.865 L2111.62 163.921 L2101.13 138.412 L2105.65 138.412 L2113.75 158.689 L2121.85 138.412 L2126.36 138.412 L2114.97 166.745 Z" fill="#000000" fill-rule="evenodd" fill-opacity="1" /><path clip-path="url(#clip020)" d="M2133.66 160.402 L2141.29 160.402 L2141.29 134.037 L2132.98 135.703 L2132.98 131.444 L2141.25 129.778 L2145.92 129.778 L2145.92 160.402 L2153.56 160.402 L2153.56 164.338 L2133.66 164.338 L2133.66 160.402 Z" fill="#000000" fill-rule="evenodd" fill-opacity="1" /><polyline clip-path="url(#clip020)" style="stroke:#e26f46; stroke-linecap:butt; stroke-linejoin:round; stroke-width:4; stroke-opacity:1; fill:none" points="
  1933.22,198.898 2077.15,198.898 
  "/>
<circle clip-path="url(#clip020)" cx="2005.18" cy="198.898" r="23.04" fill="#e26f46" fill-rule="evenodd" fill-opacity="1" stroke="#000000" stroke-opacity="1" stroke-width="5.12"/>
<path clip-path="url(#clip020)" d="M2120.04 194.187 L2120.04 180.159 L2124.3 180.159 L2124.3 216.178 L2120.04 216.178 L2120.04 212.289 Q2118.7 214.603 2116.64 215.738 Q2114.6 216.849 2111.73 216.849 Q2107.04 216.849 2104.07 213.099 Q2101.13 209.349 2101.13 203.238 Q2101.13 197.127 2104.07 193.377 Q2107.04 189.627 2111.73 189.627 Q2114.6 189.627 2116.64 190.761 Q2118.7 191.872 2120.04 194.187 M2105.53 203.238 Q2105.53 207.937 2107.45 210.622 Q2109.4 213.284 2112.78 213.284 Q2116.16 213.284 2118.1 210.622 Q2120.04 207.937 2120.04 203.238 Q2120.04 198.539 2118.1 195.877 Q2116.16 193.192 2112.78 193.192 Q2109.4 193.192 2107.45 195.877 Q2105.53 198.539 2105.53 203.238 Z" fill="#000000" fill-rule="evenodd" fill-opacity="1" /><path clip-path="url(#clip020)" d="M2133.08 190.252 L2137.34 190.252 L2137.34 216.178 L2133.08 216.178 L2133.08 190.252 M2133.08 180.159 L2137.34 180.159 L2137.34 185.553 L2133.08 185.553 L2133.08 180.159 Z" fill="#000000" fill-rule="evenodd" fill-opacity="1" /><path clip-path="url(#clip020)" d="M2159.37 180.159 L2159.37 183.701 L2155.3 183.701 Q2153.01 183.701 2152.1 184.627 Q2151.22 185.553 2151.22 187.96 L2151.22 190.252 L2158.24 190.252 L2158.24 193.562 L2151.22 193.562 L2151.22 216.178 L2146.94 216.178 L2146.94 193.562 L2142.87 193.562 L2142.87 190.252 L2146.94 190.252 L2146.94 188.446 Q2146.94 184.118 2148.96 182.15 Q2150.97 180.159 2155.35 180.159 L2159.37 180.159 Z" fill="#000000" fill-rule="evenodd" fill-opacity="1" /><path clip-path="url(#clip020)" d="M2176.06 180.159 L2176.06 183.701 L2171.99 183.701 Q2169.7 183.701 2168.79 184.627 Q2167.91 185.553 2167.91 187.96 L2167.91 190.252 L2174.93 190.252 L2174.93 193.562 L2167.91 193.562 L2167.91 216.178 L2163.63 216.178 L2163.63 193.562 L2159.56 193.562 L2159.56 190.252 L2163.63 190.252 L2163.63 188.446 Q2163.63 184.118 2165.65 182.15 Q2167.66 180.159 2172.03 180.159 L2176.06 180.159 Z" fill="#000000" fill-rule="evenodd" fill-opacity="1" /><path clip-path="url(#clip020)" d="M2184.26 212.242 L2200.58 212.242 L2200.58 216.178 L2178.63 216.178 L2178.63 212.242 Q2181.29 209.488 2185.88 204.858 Q2190.48 200.205 2191.66 198.863 Q2193.91 196.34 2194.79 194.604 Q2195.69 192.844 2195.69 191.155 Q2195.69 188.4 2193.75 186.664 Q2191.83 184.928 2188.72 184.928 Q2186.53 184.928 2184.07 185.692 Q2181.64 186.455 2178.86 188.006 L2178.86 183.284 Q2181.69 182.15 2184.14 181.571 Q2186.59 180.993 2188.63 180.993 Q2194 180.993 2197.2 183.678 Q2200.39 186.363 2200.39 190.854 Q2200.39 192.983 2199.58 194.905 Q2198.79 196.803 2196.69 199.395 Q2196.11 200.067 2193.01 203.284 Q2189.91 206.479 2184.26 212.242 Z" fill="#000000" fill-rule="evenodd" fill-opacity="1" /><path clip-path="url(#clip020)" d="M2221.57 203.145 Q2216.41 203.145 2214.42 204.326 Q2212.43 205.506 2212.43 208.354 Q2212.43 210.622 2213.91 211.965 Q2215.41 213.284 2217.98 213.284 Q2221.53 213.284 2223.65 210.784 Q2225.81 208.261 2225.81 204.094 L2225.81 203.145 L2221.57 203.145 M2230.07 201.386 L2230.07 216.178 L2225.81 216.178 L2225.81 212.242 Q2224.35 214.603 2222.17 215.738 Q2220 216.849 2216.85 216.849 Q2212.87 216.849 2210.51 214.627 Q2208.17 212.381 2208.17 208.631 Q2208.17 204.256 2211.09 202.034 Q2214.03 199.812 2219.84 199.812 L2225.81 199.812 L2225.81 199.395 Q2225.81 196.455 2223.86 194.858 Q2221.94 193.238 2218.45 193.238 Q2216.22 193.238 2214.12 193.77 Q2212.01 194.303 2210.07 195.367 L2210.07 191.432 Q2212.4 190.53 2214.6 190.09 Q2216.8 189.627 2218.89 189.627 Q2224.51 189.627 2227.29 192.543 Q2230.07 195.46 2230.07 201.386 Z" fill="#000000" fill-rule="evenodd" fill-opacity="1" /><polyline clip-path="url(#clip020)" style="stroke:#3da44d; stroke-linecap:butt; stroke-linejoin:round; stroke-width:4; stroke-opacity:1; fill:none" points="
  1933.22,250.738 2077.15,250.738 
  "/>
<circle clip-path="url(#clip020)" cx="2005.18" cy="250.738" r="23.04" fill="#3da44d" fill-rule="evenodd" fill-opacity="1" stroke="#000000" stroke-opacity="1" stroke-width="5.12"/>
<path clip-path="url(#clip020)" d="M2120.04 246.027 L2120.04 231.999 L2124.3 231.999 L2124.3 268.018 L2120.04 268.018 L2120.04 264.129 Q2118.7 266.443 2116.64 267.578 Q2114.6 268.689 2111.73 268.689 Q2107.04 268.689 2104.07 264.939 Q2101.13 261.189 2101.13 255.078 Q2101.13 248.967 2104.07 245.217 Q2107.04 241.467 2111.73 241.467 Q2114.6 241.467 2116.64 242.601 Q2118.7 243.712 2120.04 246.027 M2105.53 255.078 Q2105.53 259.777 2107.45 262.462 Q2109.4 265.124 2112.78 265.124 Q2116.16 265.124 2118.1 262.462 Q2120.04 259.777 2120.04 255.078 Q2120.04 250.379 2118.1 247.717 Q2116.16 245.032 2112.78 245.032 Q2109.4 245.032 2107.45 247.717 Q2105.53 250.379 2105.53 255.078 Z" fill="#000000" fill-rule="evenodd" fill-opacity="1" /><path clip-path="url(#clip020)" d="M2133.08 242.092 L2137.34 242.092 L2137.34 268.018 L2133.08 268.018 L2133.08 242.092 M2133.08 231.999 L2137.34 231.999 L2137.34 237.393 L2133.08 237.393 L2133.08 231.999 Z" fill="#000000" fill-rule="evenodd" fill-opacity="1" /><path clip-path="url(#clip020)" d="M2159.37 231.999 L2159.37 235.541 L2155.3 235.541 Q2153.01 235.541 2152.1 236.467 Q2151.22 237.393 2151.22 239.8 L2151.22 242.092 L2158.24 242.092 L2158.24 245.402 L2151.22 245.402 L2151.22 268.018 L2146.94 268.018 L2146.94 245.402 L2142.87 245.402 L2142.87 242.092 L2146.94 242.092 L2146.94 240.286 Q2146.94 235.958 2148.96 233.99 Q2150.97 231.999 2155.35 231.999 L2159.37 231.999 Z" fill="#000000" fill-rule="evenodd" fill-opacity="1" /><path clip-path="url(#clip020)" d="M2176.06 231.999 L2176.06 235.541 L2171.99 235.541 Q2169.7 235.541 2168.79 236.467 Q2167.91 237.393 2167.91 239.8 L2167.91 242.092 L2174.93 242.092 L2174.93 245.402 L2167.91 245.402 L2167.91 268.018 L2163.63 268.018 L2163.63 245.402 L2159.56 245.402 L2159.56 242.092 L2163.63 242.092 L2163.63 240.286 Q2163.63 235.958 2165.65 233.99 Q2167.66 231.999 2172.03 231.999 L2176.06 231.999 Z" fill="#000000" fill-rule="evenodd" fill-opacity="1" /><path clip-path="url(#clip020)" d="M2184.26 264.082 L2200.58 264.082 L2200.58 268.018 L2178.63 268.018 L2178.63 264.082 Q2181.29 261.328 2185.88 256.698 Q2190.48 252.045 2191.66 250.703 Q2193.91 248.18 2194.79 246.444 Q2195.69 244.684 2195.69 242.995 Q2195.69 240.24 2193.75 238.504 Q2191.83 236.768 2188.72 236.768 Q2186.53 236.768 2184.07 237.532 Q2181.64 238.295 2178.86 239.846 L2178.86 235.124 Q2181.69 233.99 2184.14 233.411 Q2186.59 232.833 2188.63 232.833 Q2194 232.833 2197.2 235.518 Q2200.39 238.203 2200.39 242.694 Q2200.39 244.823 2199.58 246.745 Q2198.79 248.643 2196.69 251.235 Q2196.11 251.907 2193.01 255.124 Q2189.91 258.319 2184.26 264.082 Z" fill="#000000" fill-rule="evenodd" fill-opacity="1" /><path clip-path="url(#clip020)" d="M2228.4 255.078 Q2228.4 250.379 2226.46 247.717 Q2224.53 245.032 2221.15 245.032 Q2217.78 245.032 2215.83 247.717 Q2213.91 250.379 2213.91 255.078 Q2213.91 259.777 2215.83 262.462 Q2217.78 265.124 2221.15 265.124 Q2224.53 265.124 2226.46 262.462 Q2228.4 259.777 2228.4 255.078 M2213.91 246.027 Q2215.25 243.712 2217.29 242.601 Q2219.35 241.467 2222.2 241.467 Q2226.92 241.467 2229.86 245.217 Q2232.82 248.967 2232.82 255.078 Q2232.82 261.189 2229.86 264.939 Q2226.92 268.689 2222.2 268.689 Q2219.35 268.689 2217.29 267.578 Q2215.25 266.443 2213.91 264.129 L2213.91 268.018 L2209.63 268.018 L2209.63 231.999 L2213.91 231.999 L2213.91 246.027 Z" fill="#000000" fill-rule="evenodd" fill-opacity="1" /></svg>
