<?xml version="1.0" encoding="utf-8"?>
<svg xmlns="http://www.w3.org/2000/svg" xmlns:xlink="http://www.w3.org/1999/xlink" width="600" height="400" viewBox="0 0 2400 1600">
<defs>
  <clipPath id="clip180">
    <rect x="0" y="0" width="2400" height="1600"/>
  </clipPath>
</defs>
<path clip-path="url(#clip180)" d="
M0 1600 L2400 1600 L2400 0 L0 0  Z
  " fill="#ffffff" fill-rule="evenodd" fill-opacity="1"/>
<defs>
  <clipPath id="clip181">
    <rect x="480" y="0" width="1681" height="1600"/>
  </clipPath>
</defs>
<path clip-path="url(#clip180)" d="
M193.936 1486.45 L2352.76 1486.45 L2352.76 123.472 L193.936 123.472  Z
  " fill="#ffffff" fill-rule="evenodd" fill-opacity="1"/>
<defs>
  <clipPath id="clip182">
    <rect x="193" y="123" width="2160" height="1364"/>
  </clipPath>
</defs>
<polyline clip-path="url(#clip182)" style="stroke:#000000; stroke-linecap:butt; stroke-linejoin:round; stroke-width:2; stroke-opacity:0.1; fill:none" points="
  255.035,1486.45 255.035,123.472 
  "/>
<polyline clip-path="url(#clip182)" style="stroke:#000000; stroke-linecap:butt; stroke-linejoin:round; stroke-width:2; stroke-opacity:0.1; fill:none" points="
  764.19,1486.45 764.19,123.472 
  "/>
<polyline clip-path="url(#clip182)" style="stroke:#000000; stroke-linecap:butt; stroke-linejoin:round; stroke-width:2; stroke-opacity:0.1; fill:none" points="
  1273.35,1486.45 1273.35,123.472 
  "/>
<polyline clip-path="url(#clip182)" style="stroke:#000000; stroke-linecap:butt; stroke-linejoin:round; stroke-width:2; stroke-opacity:0.1; fill:none" points="
  1782.5,1486.45 1782.5,123.472 
  "/>
<polyline clip-path="url(#clip182)" style="stroke:#000000; stroke-linecap:butt; stroke-linejoin:round; stroke-width:2; stroke-opacity:0.1; fill:none" points="
  2291.66,1486.45 2291.66,123.472 
  "/>
<polyline clip-path="url(#clip180)" style="stroke:#000000; stroke-linecap:butt; stroke-linejoin:round; stroke-width:4; stroke-opacity:1; fill:none" points="
  193.936,1486.45 2352.76,1486.45 
  "/>
<polyline clip-path="url(#clip180)" style="stroke:#000000; stroke-linecap:butt; stroke-linejoin:round; stroke-width:4; stroke-opacity:1; fill:none" points="
  255.035,1486.45 255.035,1467.55 
  "/>
<polyline clip-path="url(#clip180)" style="stroke:#000000; stroke-linecap:butt; stroke-linejoin:round; stroke-width:4; stroke-opacity:1; fill:none" points="
  764.19,1486.45 764.19,1467.55 
  "/>
<polyline clip-path="url(#clip180)" style="stroke:#000000; stroke-linecap:butt; stroke-linejoin:round; stroke-width:4; stroke-opacity:1; fill:none" points="
  1273.35,1486.45 1273.35,1467.55 
  "/>
<polyline clip-path="url(#clip180)" style="stroke:#000000; stroke-linecap:butt; stroke-linejoin:round; stroke-width:4; stroke-opacity:1; fill:none" points="
  1782.5,1486.45 1782.5,1467.55 
  "/>
<polyline clip-path="url(#clip180)" style="stroke:#000000; stroke-linecap:butt; stroke-linejoin:round; stroke-width:4; stroke-opacity:1; fill:none" points="
  2291.66,1486.45 2291.66,1467.55 
  "/>
<path clip-path="url(#clip180)" d="M201.563 1532.02 L231.239 1532.02 L231.239 1535.95 L201.563 1535.95 L201.563 1532.02 Z" fill="#000000" fill-rule="evenodd" fill-opacity="1" /><path clip-path="url(#clip180)" d="M242.141 1544.91 L249.78 1544.91 L249.78 1518.55 L241.47 1520.21 L241.47 1515.95 L249.734 1514.29 L254.41 1514.29 L254.41 1544.91 L262.049 1544.91 L262.049 1548.85 L242.141 1548.85 L242.141 1544.91 Z" fill="#000000" fill-rule="evenodd" fill-opacity="1" /><path clip-path="url(#clip180)" d="M271.493 1542.97 L276.377 1542.97 L276.377 1548.85 L271.493 1548.85 L271.493 1542.97 Z" fill="#000000" fill-rule="evenodd" fill-opacity="1" /><path clip-path="url(#clip180)" d="M296.562 1517.37 Q292.951 1517.37 291.122 1520.93 Q289.317 1524.47 289.317 1531.6 Q289.317 1538.71 291.122 1542.27 Q292.951 1545.82 296.562 1545.82 Q300.196 1545.82 302.002 1542.27 Q303.831 1538.71 303.831 1531.6 Q303.831 1524.47 302.002 1520.93 Q300.196 1517.37 296.562 1517.37 M296.562 1513.66 Q302.372 1513.66 305.428 1518.27 Q308.507 1522.85 308.507 1531.6 Q308.507 1540.33 305.428 1544.94 Q302.372 1549.52 296.562 1549.52 Q290.752 1549.52 287.673 1544.94 Q284.618 1540.33 284.618 1531.6 Q284.618 1522.85 287.673 1518.27 Q290.752 1513.66 296.562 1513.66 Z" fill="#000000" fill-rule="evenodd" fill-opacity="1" /><path clip-path="url(#clip180)" d="M711.216 1532.02 L740.892 1532.02 L740.892 1535.95 L711.216 1535.95 L711.216 1532.02 Z" fill="#000000" fill-rule="evenodd" fill-opacity="1" /><path clip-path="url(#clip180)" d="M760.984 1517.37 Q757.373 1517.37 755.545 1520.93 Q753.739 1524.47 753.739 1531.6 Q753.739 1538.71 755.545 1542.27 Q757.373 1545.82 760.984 1545.82 Q764.619 1545.82 766.424 1542.27 Q768.253 1538.71 768.253 1531.6 Q768.253 1524.47 766.424 1520.93 Q764.619 1517.37 760.984 1517.37 M760.984 1513.66 Q766.794 1513.66 769.85 1518.27 Q772.929 1522.85 772.929 1531.6 Q772.929 1540.33 769.85 1544.94 Q766.794 1549.52 760.984 1549.52 Q755.174 1549.52 752.095 1544.94 Q749.04 1540.33 749.04 1531.6 Q749.04 1522.85 752.095 1518.27 Q755.174 1513.66 760.984 1513.66 Z" fill="#000000" fill-rule="evenodd" fill-opacity="1" /><path clip-path="url(#clip180)" d="M781.146 1542.97 L786.03 1542.97 L786.03 1548.85 L781.146 1548.85 L781.146 1542.97 Z" fill="#000000" fill-rule="evenodd" fill-opacity="1" /><path clip-path="url(#clip180)" d="M796.262 1514.29 L814.618 1514.29 L814.618 1518.22 L800.544 1518.22 L800.544 1526.7 Q801.563 1526.35 802.581 1526.19 Q803.6 1526 804.618 1526 Q810.405 1526 813.785 1529.17 Q817.165 1532.34 817.165 1537.76 Q817.165 1543.34 813.692 1546.44 Q810.22 1549.52 803.901 1549.52 Q801.725 1549.52 799.456 1549.15 Q797.211 1548.78 794.804 1548.04 L794.804 1543.34 Q796.887 1544.47 799.109 1545.03 Q801.331 1545.58 803.808 1545.58 Q807.813 1545.58 810.151 1543.48 Q812.489 1541.37 812.489 1537.76 Q812.489 1534.15 810.151 1532.04 Q807.813 1529.94 803.808 1529.94 Q801.933 1529.94 800.058 1530.35 Q798.206 1530.77 796.262 1531.65 L796.262 1514.29 Z" fill="#000000" fill-rule="evenodd" fill-opacity="1" /><path clip-path="url(#clip180)" d="M1250.73 1517.37 Q1247.12 1517.37 1245.29 1520.93 Q1243.49 1524.47 1243.49 1531.6 Q1243.49 1538.71 1245.29 1542.27 Q1247.12 1545.82 1250.73 1545.82 Q1254.36 1545.82 1256.17 1542.27 Q1258 1538.71 1258 1531.6 Q1258 1524.47 1256.17 1520.93 Q1254.36 1517.37 1250.73 1517.37 M1250.73 1513.66 Q1256.54 1513.66 1259.6 1518.27 Q1262.67 1522.85 1262.67 1531.6 Q1262.67 1540.33 1259.6 1544.94 Q1256.54 1549.52 1250.73 1549.52 Q1244.92 1549.52 1241.84 1544.94 Q1238.79 1540.33 1238.79 1531.6 Q1238.79 1522.85 1241.84 1518.27 Q1244.92 1513.66 1250.73 1513.66 Z" fill="#000000" fill-rule="evenodd" fill-opacity="1" /><path clip-path="url(#clip180)" d="M1270.89 1542.97 L1275.78 1542.97 L1275.78 1548.85 L1270.89 1548.85 L1270.89 1542.97 Z" fill="#000000" fill-rule="evenodd" fill-opacity="1" /><path clip-path="url(#clip180)" d="M1295.96 1517.37 Q1292.35 1517.37 1290.52 1520.93 Q1288.72 1524.47 1288.72 1531.6 Q1288.72 1538.71 1290.52 1542.27 Q1292.35 1545.82 1295.96 1545.82 Q1299.6 1545.82 1301.4 1542.27 Q1303.23 1538.71 1303.23 1531.6 Q1303.23 1524.47 1301.4 1520.93 Q1299.6 1517.37 1295.96 1517.37 M1295.96 1513.66 Q1301.77 1513.66 1304.83 1518.27 Q1307.91 1522.85 1307.91 1531.6 Q1307.91 1540.33 1304.83 1544.94 Q1301.77 1549.52 1295.96 1549.52 Q1290.15 1549.52 1287.07 1544.94 Q1284.02 1540.33 1284.02 1531.6 Q1284.02 1522.85 1287.07 1518.27 Q1290.15 1513.66 1295.96 1513.66 Z" fill="#000000" fill-rule="evenodd" fill-opacity="1" /><path clip-path="url(#clip180)" d="M1760.38 1517.37 Q1756.77 1517.37 1754.94 1520.93 Q1753.14 1524.47 1753.14 1531.6 Q1753.14 1538.71 1754.94 1542.27 Q1756.77 1545.82 1760.38 1545.82 Q1764.02 1545.82 1765.82 1542.27 Q1767.65 1538.71 1767.65 1531.6 Q1767.65 1524.47 1765.82 1520.93 Q1764.02 1517.37 1760.38 1517.37 M1760.38 1513.66 Q1766.19 1513.66 1769.25 1518.27 Q1772.33 1522.85 1772.33 1531.6 Q1772.33 1540.33 1769.25 1544.94 Q1766.19 1549.52 1760.38 1549.52 Q1754.57 1549.52 1751.49 1544.94 Q1748.44 1540.33 1748.44 1531.6 Q1748.44 1522.85 1751.49 1518.27 Q1754.57 1513.66 1760.38 1513.66 Z" fill="#000000" fill-rule="evenodd" fill-opacity="1" /><path clip-path="url(#clip180)" d="M1780.55 1542.97 L1785.43 1542.97 L1785.43 1548.85 L1780.55 1548.85 L1780.55 1542.97 Z" fill="#000000" fill-rule="evenodd" fill-opacity="1" /><path clip-path="url(#clip180)" d="M1795.66 1514.29 L1814.02 1514.29 L1814.02 1518.22 L1799.94 1518.22 L1799.94 1526.7 Q1800.96 1526.35 1801.98 1526.19 Q1803 1526 1804.02 1526 Q1809.8 1526 1813.18 1529.17 Q1816.56 1532.34 1816.56 1537.76 Q1816.56 1543.34 1813.09 1546.44 Q1809.62 1549.52 1803.3 1549.52 Q1801.12 1549.52 1798.86 1549.15 Q1796.61 1548.78 1794.2 1548.04 L1794.2 1543.34 Q1796.29 1544.47 1798.51 1545.03 Q1800.73 1545.58 1803.21 1545.58 Q1807.21 1545.58 1809.55 1543.48 Q1811.89 1541.37 1811.89 1537.76 Q1811.89 1534.15 1809.55 1532.04 Q1807.21 1529.94 1803.21 1529.94 Q1801.33 1529.94 1799.46 1530.35 Q1797.61 1530.77 1795.66 1531.65 L1795.66 1514.29 Z" fill="#000000" fill-rule="evenodd" fill-opacity="1" /><path clip-path="url(#clip180)" d="M2258.81 1544.91 L2266.45 1544.91 L2266.45 1518.55 L2258.14 1520.21 L2258.14 1515.95 L2266.4 1514.29 L2271.08 1514.29 L2271.08 1544.91 L2278.72 1544.91 L2278.72 1548.85 L2258.81 1548.85 L2258.81 1544.91 Z" fill="#000000" fill-rule="evenodd" fill-opacity="1" /><path clip-path="url(#clip180)" d="M2288.16 1542.97 L2293.05 1542.97 L2293.05 1548.85 L2288.16 1548.85 L2288.16 1542.97 Z" fill="#000000" fill-rule="evenodd" fill-opacity="1" /><path clip-path="url(#clip180)" d="M2313.23 1517.37 Q2309.62 1517.37 2307.79 1520.93 Q2305.99 1524.47 2305.99 1531.6 Q2305.99 1538.71 2307.79 1542.27 Q2309.62 1545.82 2313.23 1545.82 Q2316.87 1545.82 2318.67 1542.27 Q2320.5 1538.71 2320.5 1531.6 Q2320.5 1524.47 2318.67 1520.93 Q2316.87 1517.37 2313.23 1517.37 M2313.23 1513.66 Q2319.04 1513.66 2322.1 1518.27 Q2325.18 1522.85 2325.18 1531.6 Q2325.18 1540.33 2322.1 1544.94 Q2319.04 1549.52 2313.23 1549.52 Q2307.42 1549.52 2304.34 1544.94 Q2301.29 1540.33 2301.29 1531.6 Q2301.29 1522.85 2304.34 1518.27 Q2307.42 1513.66 2313.23 1513.66 Z" fill="#000000" fill-rule="evenodd" fill-opacity="1" /><polyline clip-path="url(#clip182)" style="stroke:#000000; stroke-linecap:butt; stroke-linejoin:round; stroke-width:2; stroke-opacity:0.1; fill:none" points="
  193.936,1486.45 2352.76,1486.45 
  "/>
<polyline clip-path="url(#clip182)" style="stroke:#000000; stroke-linecap:butt; stroke-linejoin:round; stroke-width:2; stroke-opacity:0.1; fill:none" points="
  193.936,1145.7 2352.76,1145.7 
  "/>
<polyline clip-path="url(#clip182)" style="stroke:#000000; stroke-linecap:butt; stroke-linejoin:round; stroke-width:2; stroke-opacity:0.1; fill:none" points="
  193.936,804.96 2352.76,804.96 
  "/>
<polyline clip-path="url(#clip182)" style="stroke:#000000; stroke-linecap:butt; stroke-linejoin:round; stroke-width:2; stroke-opacity:0.1; fill:none" points="
  193.936,464.216 2352.76,464.216 
  "/>
<polyline clip-path="url(#clip182)" style="stroke:#000000; stroke-linecap:butt; stroke-linejoin:round; stroke-width:2; stroke-opacity:0.1; fill:none" points="
  193.936,123.472 2352.76,123.472 
  "/>
<polyline clip-path="url(#clip180)" style="stroke:#000000; stroke-linecap:butt; stroke-linejoin:round; stroke-width:4; stroke-opacity:1; fill:none" points="
  193.936,1486.45 193.936,123.472 
  "/>
<polyline clip-path="url(#clip180)" style="stroke:#000000; stroke-linecap:butt; stroke-linejoin:round; stroke-width:4; stroke-opacity:1; fill:none" points="
  193.936,1486.45 212.834,1486.45 
  "/>
<polyline clip-path="url(#clip180)" style="stroke:#000000; stroke-linecap:butt; stroke-linejoin:round; stroke-width:4; stroke-opacity:1; fill:none" points="
  193.936,1145.7 212.834,1145.7 
  "/>
<polyline clip-path="url(#clip180)" style="stroke:#000000; stroke-linecap:butt; stroke-linejoin:round; stroke-width:4; stroke-opacity:1; fill:none" points="
  193.936,804.96 212.834,804.96 
  "/>
<polyline clip-path="url(#clip180)" style="stroke:#000000; stroke-linecap:butt; stroke-linejoin:round; stroke-width:4; stroke-opacity:1; fill:none" points="
  193.936,464.216 212.834,464.216 
  "/>
<polyline clip-path="url(#clip180)" style="stroke:#000000; stroke-linecap:butt; stroke-linejoin:round; stroke-width:4; stroke-opacity:1; fill:none" points="
  193.936,123.472 212.834,123.472 
  "/>
<path clip-path="url(#clip180)" d="M50.9921 1486.9 L80.6679 1486.9 L80.6679 1490.83 L50.9921 1490.83 L50.9921 1486.9 Z" fill="#000000" fill-rule="evenodd" fill-opacity="1" /><path clip-path="url(#clip180)" d="M90.8067 1469.17 L109.163 1469.17 L109.163 1473.1 L95.0891 1473.1 L95.0891 1481.58 Q96.1076 1481.23 97.1261 1481.07 Q98.1447 1480.88 99.1632 1480.88 Q104.95 1480.88 108.33 1484.05 Q111.709 1487.22 111.709 1492.64 Q111.709 1498.22 108.237 1501.32 Q104.765 1504.4 98.4456 1504.4 Q96.2697 1504.4 94.0012 1504.03 Q91.7558 1503.66 89.3484 1502.92 L89.3484 1498.22 Q91.4317 1499.35 93.6539 1499.91 Q95.8761 1500.46 98.353 1500.46 Q102.358 1500.46 104.696 1498.36 Q107.033 1496.25 107.033 1492.64 Q107.033 1489.03 104.696 1486.92 Q102.358 1484.82 98.353 1484.82 Q96.478 1484.82 94.603 1485.23 Q92.7512 1485.65 90.8067 1486.53 L90.8067 1469.17 Z" fill="#000000" fill-rule="evenodd" fill-opacity="1" /><path clip-path="url(#clip180)" d="M120.922 1497.85 L125.807 1497.85 L125.807 1503.73 L120.922 1503.73 L120.922 1497.85 Z" fill="#000000" fill-rule="evenodd" fill-opacity="1" /><path clip-path="url(#clip180)" d="M145.992 1472.25 Q142.381 1472.25 140.552 1475.81 Q138.746 1479.35 138.746 1486.48 Q138.746 1493.59 140.552 1497.15 Q142.381 1500.7 145.992 1500.7 Q149.626 1500.7 151.431 1497.15 Q153.26 1493.59 153.26 1486.48 Q153.26 1479.35 151.431 1475.81 Q149.626 1472.25 145.992 1472.25 M145.992 1468.54 Q151.802 1468.54 154.857 1473.15 Q157.936 1477.73 157.936 1486.48 Q157.936 1495.21 154.857 1499.82 Q151.802 1504.4 145.992 1504.4 Q140.181 1504.4 137.103 1499.82 Q134.047 1495.21 134.047 1486.48 Q134.047 1477.73 137.103 1473.15 Q140.181 1468.54 145.992 1468.54 Z" fill="#000000" fill-rule="evenodd" fill-opacity="1" /><path clip-path="url(#clip180)" d="M51.9875 1146.16 L81.6633 1146.16 L81.6633 1150.09 L51.9875 1150.09 L51.9875 1146.16 Z" fill="#000000" fill-rule="evenodd" fill-opacity="1" /><path clip-path="url(#clip180)" d="M95.7836 1159.05 L112.103 1159.05 L112.103 1162.98 L90.1586 1162.98 L90.1586 1159.05 Q92.8206 1156.29 97.4039 1151.66 Q102.01 1147.01 103.191 1145.67 Q105.436 1143.15 106.316 1141.41 Q107.219 1139.65 107.219 1137.96 Q107.219 1135.21 105.274 1133.47 Q103.353 1131.73 100.251 1131.73 Q98.0521 1131.73 95.5984 1132.5 Q93.1678 1133.26 90.3901 1134.81 L90.3901 1130.09 Q93.2141 1128.96 95.6678 1128.38 Q98.1215 1127.8 100.159 1127.8 Q105.529 1127.8 108.723 1130.48 Q111.918 1133.17 111.918 1137.66 Q111.918 1139.79 111.108 1141.71 Q110.321 1143.61 108.214 1146.2 Q107.635 1146.87 104.534 1150.09 Q101.432 1153.28 95.7836 1159.05 Z" fill="#000000" fill-rule="evenodd" fill-opacity="1" /><path clip-path="url(#clip180)" d="M121.918 1157.1 L126.802 1157.1 L126.802 1162.98 L121.918 1162.98 L121.918 1157.1 Z" fill="#000000" fill-rule="evenodd" fill-opacity="1" /><path clip-path="url(#clip180)" d="M137.033 1128.42 L155.39 1128.42 L155.39 1132.36 L141.316 1132.36 L141.316 1140.83 Q142.334 1140.48 143.353 1140.32 Q144.371 1140.14 145.39 1140.14 Q151.177 1140.14 154.556 1143.31 Q157.936 1146.48 157.936 1151.9 Q157.936 1157.47 154.464 1160.58 Q150.992 1163.66 144.672 1163.66 Q142.496 1163.66 140.228 1163.28 Q137.982 1162.91 135.575 1162.17 L135.575 1157.47 Q137.658 1158.61 139.881 1159.16 Q142.103 1159.72 144.58 1159.72 Q148.584 1159.72 150.922 1157.61 Q153.26 1155.51 153.26 1151.9 Q153.26 1148.28 150.922 1146.18 Q148.584 1144.07 144.58 1144.07 Q142.705 1144.07 140.83 1144.49 Q138.978 1144.91 137.033 1145.78 L137.033 1128.42 Z" fill="#000000" fill-rule="evenodd" fill-opacity="1" /><path clip-path="url(#clip180)" d="M100.76 790.759 Q97.1493 790.759 95.3206 794.323 Q93.515 797.865 93.515 804.995 Q93.515 812.101 95.3206 815.666 Q97.1493 819.208 100.76 819.208 Q104.395 819.208 106.2 815.666 Q108.029 812.101 108.029 804.995 Q108.029 797.865 106.2 794.323 Q104.395 790.759 100.76 790.759 M100.76 787.055 Q106.571 787.055 109.626 791.661 Q112.705 796.245 112.705 804.995 Q112.705 813.722 109.626 818.328 Q106.571 822.911 100.76 822.911 Q94.9502 822.911 91.8715 818.328 Q88.816 813.722 88.816 804.995 Q88.816 796.245 91.8715 791.661 Q94.9502 787.055 100.76 787.055 Z" fill="#000000" fill-rule="evenodd" fill-opacity="1" /><path clip-path="url(#clip180)" d="M120.922 816.36 L125.807 816.36 L125.807 822.24 L120.922 822.24 L120.922 816.36 Z" fill="#000000" fill-rule="evenodd" fill-opacity="1" /><path clip-path="url(#clip180)" d="M145.992 790.759 Q142.381 790.759 140.552 794.323 Q138.746 797.865 138.746 804.995 Q138.746 812.101 140.552 815.666 Q142.381 819.208 145.992 819.208 Q149.626 819.208 151.431 815.666 Q153.26 812.101 153.26 804.995 Q153.26 797.865 151.431 794.323 Q149.626 790.759 145.992 790.759 M145.992 787.055 Q151.802 787.055 154.857 791.661 Q157.936 796.245 157.936 804.995 Q157.936 813.722 154.857 818.328 Q151.802 822.911 145.992 822.911 Q140.181 822.911 137.103 818.328 Q134.047 813.722 134.047 804.995 Q134.047 796.245 137.103 791.661 Q140.181 787.055 145.992 787.055 Z" fill="#000000" fill-rule="evenodd" fill-opacity="1" /><path clip-path="url(#clip180)" d="M95.7836 477.561 L112.103 477.561 L112.103 481.496 L90.1586 481.496 L90.1586 477.561 Q92.8206 474.806 97.4039 470.177 Q102.01 465.524 103.191 464.181 Q105.436 461.658 106.316 459.922 Q107.219 458.163 107.219 456.473 Q107.219 453.718 105.274 451.982 Q103.353 450.246 100.251 450.246 Q98.0521 450.246 95.5984 451.01 Q93.1678 451.774 90.3901 453.325 L90.3901 448.603 Q93.2141 447.468 95.6678 446.89 Q98.1215 446.311 100.159 446.311 Q105.529 446.311 108.723 448.996 Q111.918 451.681 111.918 456.172 Q111.918 458.302 111.108 460.223 Q110.321 462.121 108.214 464.714 Q107.635 465.385 104.534 468.603 Q101.432 471.797 95.7836 477.561 Z" fill="#000000" fill-rule="evenodd" fill-opacity="1" /><path clip-path="url(#clip180)" d="M121.918 475.616 L126.802 475.616 L126.802 481.496 L121.918 481.496 L121.918 475.616 Z" fill="#000000" fill-rule="evenodd" fill-opacity="1" /><path clip-path="url(#clip180)" d="M137.033 446.936 L155.39 446.936 L155.39 450.871 L141.316 450.871 L141.316 459.343 Q142.334 458.996 143.353 458.834 Q144.371 458.649 145.39 458.649 Q151.177 458.649 154.556 461.82 Q157.936 464.992 157.936 470.408 Q157.936 475.987 154.464 479.089 Q150.992 482.167 144.672 482.167 Q142.496 482.167 140.228 481.797 Q137.982 481.427 135.575 480.686 L135.575 475.987 Q137.658 477.121 139.881 477.677 Q142.103 478.232 144.58 478.232 Q148.584 478.232 150.922 476.126 Q153.26 474.019 153.26 470.408 Q153.26 466.797 150.922 464.691 Q148.584 462.584 144.58 462.584 Q142.705 462.584 140.83 463.001 Q138.978 463.417 137.033 464.297 L137.033 446.936 Z" fill="#000000" fill-rule="evenodd" fill-opacity="1" /><path clip-path="url(#clip180)" d="M90.8067 106.192 L109.163 106.192 L109.163 110.127 L95.0891 110.127 L95.0891 118.599 Q96.1076 118.252 97.1261 118.09 Q98.1447 117.905 99.1632 117.905 Q104.95 117.905 108.33 121.076 Q111.709 124.248 111.709 129.664 Q111.709 135.243 108.237 138.345 Q104.765 141.423 98.4456 141.423 Q96.2697 141.423 94.0012 141.053 Q91.7558 140.683 89.3484 139.942 L89.3484 135.243 Q91.4317 136.377 93.6539 136.933 Q95.8761 137.488 98.353 137.488 Q102.358 137.488 104.696 135.382 Q107.033 133.275 107.033 129.664 Q107.033 126.053 104.696 123.947 Q102.358 121.84 98.353 121.84 Q96.478 121.84 94.603 122.257 Q92.7512 122.674 90.8067 123.553 L90.8067 106.192 Z" fill="#000000" fill-rule="evenodd" fill-opacity="1" /><path clip-path="url(#clip180)" d="M120.922 134.873 L125.807 134.873 L125.807 140.752 L120.922 140.752 L120.922 134.873 Z" fill="#000000" fill-rule="evenodd" fill-opacity="1" /><path clip-path="url(#clip180)" d="M145.992 109.271 Q142.381 109.271 140.552 112.836 Q138.746 116.377 138.746 123.507 Q138.746 130.613 140.552 134.178 Q142.381 137.72 145.992 137.72 Q149.626 137.72 151.431 134.178 Q153.26 130.613 153.26 123.507 Q153.26 116.377 151.431 112.836 Q149.626 109.271 145.992 109.271 M145.992 105.567 Q151.802 105.567 154.857 110.174 Q157.936 114.757 157.936 123.507 Q157.936 132.234 154.857 136.84 Q151.802 141.423 145.992 141.423 Q140.181 141.423 137.103 136.84 Q134.047 132.234 134.047 123.507 Q134.047 114.757 137.103 110.174 Q140.181 105.567 145.992 105.567 Z" fill="#000000" fill-rule="evenodd" fill-opacity="1" /><path clip-path="url(#clip180)" d="M704.194 12.096 L742.434 12.096 L742.434 18.9825 L712.377 18.9825 L712.377 36.8875 L741.179 36.8875 L741.179 43.7741 L712.377 43.7741 L712.377 65.6895 L743.164 65.6895 L743.164 72.576 L704.194 72.576 L704.194 12.096 Z" fill="#000000" fill-rule="evenodd" fill-opacity="1" /><path clip-path="url(#clip180)" d="M782.579 34.1734 Q781.323 33.4443 779.824 33.1202 Q778.366 32.7556 776.584 32.7556 Q770.264 32.7556 766.861 36.8875 Q763.499 40.9789 763.499 48.6757 L763.499 72.576 L756.005 72.576 L756.005 27.2059 L763.499 27.2059 L763.499 34.2544 Q765.849 30.1225 769.616 28.1376 Q773.383 26.1121 778.771 26.1121 Q779.541 26.1121 780.472 26.2337 Q781.404 26.3147 782.538 26.5172 L782.579 34.1734 Z" fill="#000000" fill-rule="evenodd" fill-opacity="1" /><path clip-path="url(#clip180)" d="M815.229 34.1734 Q813.973 33.4443 812.475 33.1202 Q811.016 32.7556 809.234 32.7556 Q802.914 32.7556 799.512 36.8875 Q796.149 40.9789 796.149 48.6757 L796.149 72.576 L788.655 72.576 L788.655 27.2059 L796.149 27.2059 L796.149 34.2544 Q798.499 30.1225 802.266 28.1376 Q806.034 26.1121 811.421 26.1121 Q812.191 26.1121 813.123 26.2337 Q814.054 26.3147 815.189 26.5172 L815.229 34.1734 Z" fill="#000000" fill-rule="evenodd" fill-opacity="1" /><path clip-path="url(#clip180)" d="M838.805 32.4315 Q832.81 32.4315 829.326 37.1306 Q825.843 41.7891 825.843 49.9314 Q825.843 58.0738 829.286 62.7728 Q832.77 67.4314 838.805 67.4314 Q844.76 67.4314 848.244 62.7323 Q851.728 58.0333 851.728 49.9314 Q851.728 41.8701 848.244 37.1711 Q844.76 32.4315 838.805 32.4315 M838.805 26.1121 Q848.528 26.1121 854.077 32.4315 Q859.627 38.7509 859.627 49.9314 Q859.627 61.0714 854.077 67.4314 Q848.528 73.7508 838.805 73.7508 Q829.043 73.7508 823.493 67.4314 Q817.984 61.0714 817.984 49.9314 Q817.984 38.7509 823.493 32.4315 Q829.043 26.1121 838.805 26.1121 Z" fill="#000000" fill-rule="evenodd" fill-opacity="1" /><path clip-path="url(#clip180)" d="M898.273 34.1734 Q897.017 33.4443 895.518 33.1202 Q894.06 32.7556 892.277 32.7556 Q885.958 32.7556 882.555 36.8875 Q879.193 40.9789 879.193 48.6757 L879.193 72.576 L871.699 72.576 L871.699 27.2059 L879.193 27.2059 L879.193 34.2544 Q881.542 30.1225 885.31 28.1376 Q889.077 26.1121 894.465 26.1121 Q895.235 26.1121 896.166 26.2337 Q897.098 26.3147 898.232 26.5172 L898.273 34.1734 Z" fill="#000000" fill-rule="evenodd" fill-opacity="1" /><path clip-path="url(#clip180)" d="M951.016 17.4837 Q944.696 17.4837 941.496 23.7221 Q938.336 29.92 938.336 42.3968 Q938.336 54.833 941.496 61.0714 Q944.696 67.2693 951.016 67.2693 Q957.375 67.2693 960.535 61.0714 Q963.735 54.833 963.735 42.3968 Q963.735 29.92 960.535 23.7221 Q957.375 17.4837 951.016 17.4837 M951.016 11.0023 Q961.183 11.0023 966.53 19.0636 Q971.918 27.0843 971.918 42.3968 Q971.918 57.6687 966.53 65.73 Q961.183 73.7508 951.016 73.7508 Q940.848 73.7508 935.46 65.73 Q930.113 57.6687 930.113 42.3968 Q930.113 27.0843 935.46 19.0636 Q940.848 11.0023 951.016 11.0023 Z" fill="#000000" fill-rule="evenodd" fill-opacity="1" /><path clip-path="url(#clip180)" d="M986.299 62.2867 L994.846 62.2867 L994.846 72.576 L986.299 72.576 L986.299 62.2867 Z" fill="#000000" fill-rule="evenodd" fill-opacity="1" /><path clip-path="url(#clip180)" d="M1012.75 12.096 L1044.87 12.096 L1044.87 18.9825 L1020.25 18.9825 L1020.25 33.8088 Q1022.03 33.2012 1023.81 32.9176 Q1025.59 32.5936 1027.38 32.5936 Q1037.5 32.5936 1043.42 38.1433 Q1049.33 43.6931 1049.33 53.1722 Q1049.33 62.9348 1043.25 68.3631 Q1037.18 73.7508 1026.12 73.7508 Q1022.31 73.7508 1018.34 73.1026 Q1014.41 72.4545 1010.2 71.1582 L1010.2 62.9348 Q1013.85 64.9198 1017.73 65.892 Q1021.62 66.8642 1025.96 66.8642 Q1032.97 66.8642 1037.06 63.1779 Q1041.15 59.4916 1041.15 53.1722 Q1041.15 46.8528 1037.06 43.1664 Q1032.97 39.4801 1025.96 39.4801 Q1022.68 39.4801 1019.39 40.2093 Q1016.15 40.9384 1012.75 42.4778 L1012.75 12.096 Z" fill="#000000" fill-rule="evenodd" fill-opacity="1" /><path clip-path="url(#clip180)" d="M1072.5 65.6895 L1101.06 65.6895 L1101.06 72.576 L1062.66 72.576 L1062.66 65.6895 Q1067.32 60.8689 1075.34 52.7671 Q1083.4 44.6248 1085.47 42.2752 Q1089.39 37.8598 1090.93 34.8216 Q1092.51 31.7429 1092.51 28.7857 Q1092.51 23.9651 1089.11 20.927 Q1085.75 17.8888 1080.32 17.8888 Q1076.47 17.8888 1072.18 19.2256 Q1067.92 20.5624 1063.06 23.2765 L1063.06 15.0127 Q1068.01 13.0277 1072.3 12.015 Q1076.59 11.0023 1080.16 11.0023 Q1089.56 11.0023 1095.15 15.7013 Q1100.74 20.4004 1100.74 28.2591 Q1100.74 31.9859 1099.32 35.3482 Q1097.94 38.6699 1094.26 43.2069 Q1093.24 44.3817 1087.81 50.0125 Q1082.39 55.6027 1072.5 65.6895 Z" fill="#000000" fill-rule="evenodd" fill-opacity="1" /><path clip-path="url(#clip180)" d="M1125.29 65.6895 L1153.84 65.6895 L1153.84 72.576 L1115.44 72.576 L1115.44 65.6895 Q1120.1 60.8689 1128.12 52.7671 Q1136.18 44.6248 1138.25 42.2752 Q1142.18 37.8598 1143.72 34.8216 Q1145.3 31.7429 1145.3 28.7857 Q1145.3 23.9651 1141.89 20.927 Q1138.53 17.8888 1133.1 17.8888 Q1129.26 17.8888 1124.96 19.2256 Q1120.71 20.5624 1115.85 23.2765 L1115.85 15.0127 Q1120.79 13.0277 1125.08 12.015 Q1129.38 11.0023 1132.94 11.0023 Q1142.34 11.0023 1147.93 15.7013 Q1153.52 20.4004 1153.52 28.2591 Q1153.52 31.9859 1152.1 35.3482 Q1150.73 38.6699 1147.04 43.2069 Q1146.03 44.3817 1140.6 50.0125 Q1135.17 55.6027 1125.29 65.6895 Z" fill="#000000" fill-rule="evenodd" fill-opacity="1" /><path clip-path="url(#clip180)" d="M1178.07 65.6895 L1206.63 65.6895 L1206.63 72.576 L1168.22 72.576 L1168.22 65.6895 Q1172.88 60.8689 1180.9 52.7671 Q1188.97 44.6248 1191.03 42.2752 Q1194.96 37.8598 1196.5 34.8216 Q1198.08 31.7429 1198.08 28.7857 Q1198.08 23.9651 1194.68 20.927 Q1191.32 17.8888 1185.89 17.8888 Q1182.04 17.8888 1177.74 19.2256 Q1173.49 20.5624 1168.63 23.2765 L1168.63 15.0127 Q1173.57 13.0277 1177.87 12.015 Q1182.16 11.0023 1185.72 11.0023 Q1195.12 11.0023 1200.71 15.7013 Q1206.3 20.4004 1206.3 28.2591 Q1206.3 31.9859 1204.89 35.3482 Q1203.51 38.6699 1199.82 43.2069 Q1198.81 44.3817 1193.38 50.0125 Q1187.95 55.6027 1178.07 65.6895 Z" fill="#000000" fill-rule="evenodd" fill-opacity="1" /><path clip-path="url(#clip180)" d="M1230.85 65.6895 L1259.41 65.6895 L1259.41 72.576 L1221.01 72.576 L1221.01 65.6895 Q1225.67 60.8689 1233.69 52.7671 Q1241.75 44.6248 1243.81 42.2752 Q1247.74 37.8598 1249.28 34.8216 Q1250.86 31.7429 1250.86 28.7857 Q1250.86 23.9651 1247.46 20.927 Q1244.1 17.8888 1238.67 17.8888 Q1234.82 17.8888 1230.53 19.2256 Q1226.27 20.5624 1221.41 23.2765 L1221.41 15.0127 Q1226.36 13.0277 1230.65 12.015 Q1234.94 11.0023 1238.51 11.0023 Q1247.91 11.0023 1253.5 15.7013 Q1259.09 20.4004 1259.09 28.2591 Q1259.09 31.9859 1257.67 35.3482 Q1256.29 38.6699 1252.61 43.2069 Q1251.59 44.3817 1246.16 50.0125 Q1240.74 55.6027 1230.85 65.6895 Z" fill="#000000" fill-rule="evenodd" fill-opacity="1" /><path clip-path="url(#clip180)" d="M1294.09 17.4837 Q1287.77 17.4837 1284.57 23.7221 Q1281.41 29.92 1281.41 42.3968 Q1281.41 54.833 1284.57 61.0714 Q1287.77 67.2693 1294.09 67.2693 Q1300.45 67.2693 1303.61 61.0714 Q1306.81 54.833 1306.81 42.3968 Q1306.81 29.92 1303.61 23.7221 Q1300.45 17.4837 1294.09 17.4837 M1294.09 11.0023 Q1304.25 11.0023 1309.6 19.0636 Q1314.99 27.0843 1314.99 42.3968 Q1314.99 57.6687 1309.6 65.73 Q1304.25 73.7508 1294.09 73.7508 Q1283.92 73.7508 1278.53 65.73 Q1273.18 57.6687 1273.18 42.3968 Q1273.18 27.0843 1278.53 19.0636 Q1283.92 11.0023 1294.09 11.0023 Z" fill="#000000" fill-rule="evenodd" fill-opacity="1" /><path clip-path="url(#clip180)" d="M1346.87 43.8551 Q1341.04 43.8551 1337.67 46.9743 Q1334.35 50.0935 1334.35 55.5622 Q1334.35 61.0309 1337.67 64.1501 Q1341.04 67.2693 1346.87 67.2693 Q1352.7 67.2693 1356.07 64.1501 Q1359.43 60.9904 1359.43 55.5622 Q1359.43 50.0935 1356.07 46.9743 Q1352.74 43.8551 1346.87 43.8551 M1338.69 40.3713 Q1333.42 39.075 1330.46 35.4697 Q1327.55 31.8644 1327.55 26.6793 Q1327.55 19.4281 1332.69 15.2152 Q1337.88 11.0023 1346.87 11.0023 Q1355.9 11.0023 1361.05 15.2152 Q1366.19 19.4281 1366.19 26.6793 Q1366.19 31.8644 1363.24 35.4697 Q1360.32 39.075 1355.09 40.3713 Q1361.01 41.7486 1364.29 45.759 Q1367.61 49.7694 1367.61 55.5622 Q1367.61 64.3527 1362.22 69.0517 Q1356.88 73.7508 1346.87 73.7508 Q1336.86 73.7508 1331.48 69.0517 Q1326.13 64.3527 1326.13 55.5622 Q1326.13 49.7694 1329.45 45.759 Q1332.77 41.7486 1338.69 40.3713 M1335.69 27.4489 Q1335.69 32.148 1338.61 34.7811 Q1341.56 37.4142 1346.87 37.4142 Q1352.14 37.4142 1355.09 34.7811 Q1358.09 32.148 1358.09 27.4489 Q1358.09 22.7499 1355.09 20.1168 Q1352.14 17.4837 1346.87 17.4837 Q1341.56 17.4837 1338.61 20.1168 Q1335.69 22.7499 1335.69 27.4489 Z" fill="#000000" fill-rule="evenodd" fill-opacity="1" /><path clip-path="url(#clip180)" d="M1380.09 12.096 L1418.98 12.096 L1418.98 15.5798 L1397.02 72.576 L1388.47 72.576 L1409.13 18.9825 L1380.09 18.9825 L1380.09 12.096 Z" fill="#000000" fill-rule="evenodd" fill-opacity="1" /><path clip-path="url(#clip180)" d="M1453.45 39.075 Q1447.94 39.075 1444.7 42.8424 Q1441.5 46.6097 1441.5 53.1722 Q1441.5 59.6941 1444.7 63.502 Q1447.94 67.2693 1453.45 67.2693 Q1458.96 67.2693 1462.16 63.502 Q1465.4 59.6941 1465.4 53.1722 Q1465.4 46.6097 1462.16 42.8424 Q1458.96 39.075 1453.45 39.075 M1469.69 13.4328 L1469.69 20.8865 Q1466.61 19.4281 1463.45 18.6585 Q1460.34 17.8888 1457.26 17.8888 Q1449.16 17.8888 1444.86 23.3575 Q1440.61 28.8262 1440 39.8852 Q1442.39 36.3609 1446 34.4975 Q1449.6 32.5936 1453.94 32.5936 Q1463.05 32.5936 1468.32 38.1433 Q1473.62 43.6525 1473.62 53.1722 Q1473.62 62.4892 1468.11 68.12 Q1462.6 73.7508 1453.45 73.7508 Q1442.96 73.7508 1437.41 65.73 Q1431.86 57.6687 1431.86 42.3968 Q1431.86 28.0566 1438.66 19.5497 Q1445.47 11.0023 1456.93 11.0023 Q1460.01 11.0023 1463.13 11.6099 Q1466.29 12.2175 1469.69 13.4328 Z" fill="#000000" fill-rule="evenodd" fill-opacity="1" /><path clip-path="url(#clip180)" d="M1505.22 17.4837 Q1498.9 17.4837 1495.7 23.7221 Q1492.54 29.92 1492.54 42.3968 Q1492.54 54.833 1495.7 61.0714 Q1498.9 67.2693 1505.22 67.2693 Q1511.58 67.2693 1514.74 61.0714 Q1517.94 54.833 1517.94 42.3968 Q1517.94 29.92 1514.74 23.7221 Q1511.58 17.4837 1505.22 17.4837 M1505.22 11.0023 Q1515.39 11.0023 1520.73 19.0636 Q1526.12 27.0843 1526.12 42.3968 Q1526.12 57.6687 1520.73 65.73 Q1515.39 73.7508 1505.22 73.7508 Q1495.05 73.7508 1489.66 65.73 Q1484.32 57.6687 1484.32 42.3968 Q1484.32 27.0843 1489.66 19.0636 Q1495.05 11.0023 1505.22 11.0023 Z" fill="#000000" fill-rule="evenodd" fill-opacity="1" /><path clip-path="url(#clip180)" d="M1562.99 19.2256 L1542.33 51.5113 L1562.99 51.5113 L1562.99 19.2256 M1560.84 12.096 L1571.13 12.096 L1571.13 51.5113 L1579.76 51.5113 L1579.76 58.3168 L1571.13 58.3168 L1571.13 72.576 L1562.99 72.576 L1562.99 58.3168 L1535.68 58.3168 L1535.68 50.4176 L1560.84 12.096 Z" fill="#000000" fill-rule="evenodd" fill-opacity="1" /><path clip-path="url(#clip180)" d="M1593.37 12.096 L1625.49 12.096 L1625.49 18.9825 L1600.86 18.9825 L1600.86 33.8088 Q1602.64 33.2012 1604.43 32.9176 Q1606.21 32.5936 1607.99 32.5936 Q1618.12 32.5936 1624.03 38.1433 Q1629.95 43.6931 1629.95 53.1722 Q1629.95 62.9348 1623.87 68.3631 Q1617.79 73.7508 1606.74 73.7508 Q1602.93 73.7508 1598.96 73.1026 Q1595.03 72.4545 1590.82 71.1582 L1590.82 62.9348 Q1594.46 64.9198 1598.35 65.892 Q1602.24 66.8642 1606.57 66.8642 Q1613.58 66.8642 1617.67 63.1779 Q1621.76 59.4916 1621.76 53.1722 Q1621.76 46.8528 1617.67 43.1664 Q1613.58 39.4801 1606.57 39.4801 Q1603.29 39.4801 1600.01 40.2093 Q1596.77 40.9384 1593.37 42.4778 L1593.37 12.096 Z" fill="#000000" fill-rule="evenodd" fill-opacity="1" /><path clip-path="url(#clip180)" d="M1663.57 43.8551 Q1657.74 43.8551 1654.37 46.9743 Q1651.05 50.0935 1651.05 55.5622 Q1651.05 61.0309 1654.37 64.1501 Q1657.74 67.2693 1663.57 67.2693 Q1669.4 67.2693 1672.77 64.1501 Q1676.13 60.9904 1676.13 55.5622 Q1676.13 50.0935 1672.77 46.9743 Q1669.44 43.8551 1663.57 43.8551 M1655.39 40.3713 Q1650.12 39.075 1647.16 35.4697 Q1644.25 31.8644 1644.25 26.6793 Q1644.25 19.4281 1649.39 15.2152 Q1654.58 11.0023 1663.57 11.0023 Q1672.6 11.0023 1677.75 15.2152 Q1682.89 19.4281 1682.89 26.6793 Q1682.89 31.8644 1679.94 35.4697 Q1677.02 39.075 1671.79 40.3713 Q1677.71 41.7486 1680.99 45.759 Q1684.31 49.7694 1684.31 55.5622 Q1684.31 64.3527 1678.92 69.0517 Q1673.58 73.7508 1663.57 73.7508 Q1653.56 73.7508 1648.18 69.0517 Q1642.83 64.3527 1642.83 55.5622 Q1642.83 49.7694 1646.15 45.759 Q1649.47 41.7486 1655.39 40.3713 M1652.39 27.4489 Q1652.39 32.148 1655.31 34.7811 Q1658.26 37.4142 1663.57 37.4142 Q1668.84 37.4142 1671.79 34.7811 Q1674.79 32.148 1674.79 27.4489 Q1674.79 22.7499 1671.79 20.1168 Q1668.84 17.4837 1663.57 17.4837 Q1658.26 17.4837 1655.31 20.1168 Q1652.39 22.7499 1652.39 27.4489 Z" fill="#000000" fill-rule="evenodd" fill-opacity="1" /><path clip-path="url(#clip180)" d="M1698.93 12.096 L1731.06 12.096 L1731.06 18.9825 L1706.43 18.9825 L1706.43 33.8088 Q1708.21 33.2012 1709.99 32.9176 Q1711.78 32.5936 1713.56 32.5936 Q1723.68 32.5936 1729.6 38.1433 Q1735.51 43.6931 1735.51 53.1722 Q1735.51 62.9348 1729.44 68.3631 Q1723.36 73.7508 1712.3 73.7508 Q1708.49 73.7508 1704.52 73.1026 Q1700.59 72.4545 1696.38 71.1582 L1696.38 62.9348 Q1700.03 64.9198 1703.92 65.892 Q1707.81 66.8642 1712.14 66.8642 Q1719.15 66.8642 1723.24 63.1779 Q1727.33 59.4916 1727.33 53.1722 Q1727.33 46.8528 1723.24 43.1664 Q1719.15 39.4801 1712.14 39.4801 Q1708.86 39.4801 1705.58 40.2093 Q1702.34 40.9384 1698.93 42.4778 L1698.93 12.096 Z" fill="#000000" fill-rule="evenodd" fill-opacity="1" /><path clip-path="url(#clip180)" d="M1776.43 39.9662 Q1782.3 41.222 1785.58 45.1919 Q1788.9 49.1618 1788.9 54.9951 Q1788.9 63.9476 1782.75 68.8492 Q1776.59 73.7508 1765.25 73.7508 Q1761.44 73.7508 1757.39 72.9811 Q1753.38 72.2519 1749.08 70.7531 L1749.08 62.8538 Q1752.49 64.8388 1756.54 65.8515 Q1760.59 66.8642 1765 66.8642 Q1772.7 66.8642 1776.71 63.826 Q1780.76 60.7879 1780.76 54.9951 Q1780.76 49.6479 1776.99 46.6502 Q1773.27 43.612 1766.58 43.612 L1759.54 43.612 L1759.54 36.8875 L1766.91 36.8875 Q1772.94 36.8875 1776.14 34.4975 Q1779.34 32.067 1779.34 27.5299 Q1779.34 22.8714 1776.02 20.4004 Q1772.74 17.8888 1766.58 17.8888 Q1763.22 17.8888 1759.37 18.618 Q1755.53 19.3471 1750.91 20.8865 L1750.91 13.5948 Q1755.57 12.2985 1759.62 11.6504 Q1763.71 11.0023 1767.31 11.0023 Q1776.63 11.0023 1782.06 15.2557 Q1787.49 19.4686 1787.49 26.6793 Q1787.49 31.7024 1784.61 35.1862 Q1781.73 38.6294 1776.43 39.9662 Z" fill="#000000" fill-rule="evenodd" fill-opacity="1" /><path clip-path="url(#clip180)" d="M1804.66 71.3202 L1804.66 63.8666 Q1807.74 65.3249 1810.9 66.0946 Q1814.06 66.8642 1817.1 66.8642 Q1825.2 66.8642 1829.45 61.436 Q1833.75 55.9673 1834.36 44.8678 Q1832.01 48.3516 1828.4 50.215 Q1824.8 52.0784 1820.42 52.0784 Q1811.35 52.0784 1806.04 46.6097 Q1800.77 41.1005 1800.77 31.5808 Q1800.77 22.2638 1806.28 16.633 Q1811.79 11.0023 1820.95 11.0023 Q1831.44 11.0023 1836.95 19.0636 Q1842.5 27.0843 1842.5 42.3968 Q1842.5 56.6965 1835.69 65.2439 Q1828.93 73.7508 1817.46 73.7508 Q1814.38 73.7508 1811.23 73.1431 Q1808.07 72.5355 1804.66 71.3202 M1820.95 45.678 Q1826.46 45.678 1829.66 41.9107 Q1832.9 38.1433 1832.9 31.5808 Q1832.9 25.0589 1829.66 21.2916 Q1826.46 17.4837 1820.95 17.4837 Q1815.44 17.4837 1812.2 21.2916 Q1809 25.0589 1809 31.5808 Q1809 38.1433 1812.2 41.9107 Q1815.44 45.678 1820.95 45.678 Z" fill="#000000" fill-rule="evenodd" fill-opacity="1" /><polyline clip-path="url(#clip182)" style="stroke:#009af9; stroke-linecap:butt; stroke-linejoin:round; stroke-width:12; stroke-opacity:1; fill:none" points="
  255.035,936.355 307.256,931.488 359.477,926.385 411.698,920.999 463.919,915.273 516.14,909.142 568.361,902.532 620.582,895.361 672.803,887.537 725.024,878.964 
  777.246,869.545 829.467,859.187 881.688,847.808 933.909,835.349 986.13,821.787 1038.35,807.143 1090.57,791.492 1142.79,774.97 1195.01,757.778 1247.24,740.766 
  1299.46,729.699 1351.68,719.424 1403.9,709.601 1456.12,700.453 1508.34,692.176 1560.56,684.904 1612.78,678.716 1665,673.631 1717.23,669.625 1769.45,666.64 
  1821.67,664.595 1873.89,663.396 1926.11,662.945 1978.33,663.147 2030.55,663.911 2082.77,665.153 2134.99,666.801 2187.22,668.788 2239.44,671.059 2291.66,673.565 
  
  "/>
<circle clip-path="url(#clip182)" cx="255.035" cy="936.355" r="14.4" fill="#009af9" fill-rule="evenodd" fill-opacity="1" stroke="#000000" stroke-opacity="1" stroke-width="3.2"/>
<circle clip-path="url(#clip182)" cx="307.256" cy="931.488" r="14.4" fill="#009af9" fill-rule="evenodd" fill-opacity="1" stroke="#000000" stroke-opacity="1" stroke-width="3.2"/>
<circle clip-path="url(#clip182)" cx="359.477" cy="926.385" r="14.4" fill="#009af9" fill-rule="evenodd" fill-opacity="1" stroke="#000000" stroke-opacity="1" stroke-width="3.2"/>
<circle clip-path="url(#clip182)" cx="411.698" cy="920.999" r="14.4" fill="#009af9" fill-rule="evenodd" fill-opacity="1" stroke="#000000" stroke-opacity="1" stroke-width="3.2"/>
<circle clip-path="url(#clip182)" cx="463.919" cy="915.273" r="14.4" fill="#009af9" fill-rule="evenodd" fill-opacity="1" stroke="#000000" stroke-opacity="1" stroke-width="3.2"/>
<circle clip-path="url(#clip182)" cx="516.14" cy="909.142" r="14.4" fill="#009af9" fill-rule="evenodd" fill-opacity="1" stroke="#000000" stroke-opacity="1" stroke-width="3.2"/>
<circle clip-path="url(#clip182)" cx="568.361" cy="902.532" r="14.4" fill="#009af9" fill-rule="evenodd" fill-opacity="1" stroke="#000000" stroke-opacity="1" stroke-width="3.2"/>
<circle clip-path="url(#clip182)" cx="620.582" cy="895.361" r="14.4" fill="#009af9" fill-rule="evenodd" fill-opacity="1" stroke="#000000" stroke-opacity="1" stroke-width="3.2"/>
<circle clip-path="url(#clip182)" cx="672.803" cy="887.537" r="14.4" fill="#009af9" fill-rule="evenodd" fill-opacity="1" stroke="#000000" stroke-opacity="1" stroke-width="3.2"/>
<circle clip-path="url(#clip182)" cx="725.024" cy="878.964" r="14.4" fill="#009af9" fill-rule="evenodd" fill-opacity="1" stroke="#000000" stroke-opacity="1" stroke-width="3.2"/>
<circle clip-path="url(#clip182)" cx="777.246" cy="869.545" r="14.4" fill="#009af9" fill-rule="evenodd" fill-opacity="1" stroke="#000000" stroke-opacity="1" stroke-width="3.2"/>
<circle clip-path="url(#clip182)" cx="829.467" cy="859.187" r="14.4" fill="#009af9" fill-rule="evenodd" fill-opacity="1" stroke="#000000" stroke-opacity="1" stroke-width="3.2"/>
<circle clip-path="url(#clip182)" cx="881.688" cy="847.808" r="14.4" fill="#009af9" fill-rule="evenodd" fill-opacity="1" stroke="#000000" stroke-opacity="1" stroke-width="3.2"/>
<circle clip-path="url(#clip182)" cx="933.909" cy="835.349" r="14.4" fill="#009af9" fill-rule="evenodd" fill-opacity="1" stroke="#000000" stroke-opacity="1" stroke-width="3.2"/>
<circle clip-path="url(#clip182)" cx="986.13" cy="821.787" r="14.4" fill="#009af9" fill-rule="evenodd" fill-opacity="1" stroke="#000000" stroke-opacity="1" stroke-width="3.2"/>
<circle clip-path="url(#clip182)" cx="1038.35" cy="807.143" r="14.4" fill="#009af9" fill-rule="evenodd" fill-opacity="1" stroke="#000000" stroke-opacity="1" stroke-width="3.2"/>
<circle clip-path="url(#clip182)" cx="1090.57" cy="791.492" r="14.4" fill="#009af9" fill-rule="evenodd" fill-opacity="1" stroke="#000000" stroke-opacity="1" stroke-width="3.2"/>
<circle clip-path="url(#clip182)" cx="1142.79" cy="774.97" r="14.4" fill="#009af9" fill-rule="evenodd" fill-opacity="1" stroke="#000000" stroke-opacity="1" stroke-width="3.2"/>
<circle clip-path="url(#clip182)" cx="1195.01" cy="757.778" r="14.4" fill="#009af9" fill-rule="evenodd" fill-opacity="1" stroke="#000000" stroke-opacity="1" stroke-width="3.2"/>
<circle clip-path="url(#clip182)" cx="1247.24" cy="740.766" r="14.4" fill="#009af9" fill-rule="evenodd" fill-opacity="1" stroke="#000000" stroke-opacity="1" stroke-width="3.2"/>
<circle clip-path="url(#clip182)" cx="1299.46" cy="729.699" r="14.4" fill="#009af9" fill-rule="evenodd" fill-opacity="1" stroke="#000000" stroke-opacity="1" stroke-width="3.2"/>
<circle clip-path="url(#clip182)" cx="1351.68" cy="719.424" r="14.4" fill="#009af9" fill-rule="evenodd" fill-opacity="1" stroke="#000000" stroke-opacity="1" stroke-width="3.2"/>
<circle clip-path="url(#clip182)" cx="1403.9" cy="709.601" r="14.4" fill="#009af9" fill-rule="evenodd" fill-opacity="1" stroke="#000000" stroke-opacity="1" stroke-width="3.2"/>
<circle clip-path="url(#clip182)" cx="1456.12" cy="700.453" r="14.4" fill="#009af9" fill-rule="evenodd" fill-opacity="1" stroke="#000000" stroke-opacity="1" stroke-width="3.2"/>
<circle clip-path="url(#clip182)" cx="1508.34" cy="692.176" r="14.4" fill="#009af9" fill-rule="evenodd" fill-opacity="1" stroke="#000000" stroke-opacity="1" stroke-width="3.2"/>
<circle clip-path="url(#clip182)" cx="1560.56" cy="684.904" r="14.4" fill="#009af9" fill-rule="evenodd" fill-opacity="1" stroke="#000000" stroke-opacity="1" stroke-width="3.2"/>
<circle clip-path="url(#clip182)" cx="1612.78" cy="678.716" r="14.4" fill="#009af9" fill-rule="evenodd" fill-opacity="1" stroke="#000000" stroke-opacity="1" stroke-width="3.2"/>
<circle clip-path="url(#clip182)" cx="1665" cy="673.631" r="14.4" fill="#009af9" fill-rule="evenodd" fill-opacity="1" stroke="#000000" stroke-opacity="1" stroke-width="3.2"/>
<circle clip-path="url(#clip182)" cx="1717.23" cy="669.625" r="14.4" fill="#009af9" fill-rule="evenodd" fill-opacity="1" stroke="#000000" stroke-opacity="1" stroke-width="3.2"/>
<circle clip-path="url(#clip182)" cx="1769.45" cy="666.64" r="14.4" fill="#009af9" fill-rule="evenodd" fill-opacity="1" stroke="#000000" stroke-opacity="1" stroke-width="3.2"/>
<circle clip-path="url(#clip182)" cx="1821.67" cy="664.595" r="14.4" fill="#009af9" fill-rule="evenodd" fill-opacity="1" stroke="#000000" stroke-opacity="1" stroke-width="3.2"/>
<circle clip-path="url(#clip182)" cx="1873.89" cy="663.396" r="14.4" fill="#009af9" fill-rule="evenodd" fill-opacity="1" stroke="#000000" stroke-opacity="1" stroke-width="3.2"/>
<circle clip-path="url(#clip182)" cx="1926.11" cy="662.945" r="14.4" fill="#009af9" fill-rule="evenodd" fill-opacity="1" stroke="#000000" stroke-opacity="1" stroke-width="3.2"/>
<circle clip-path="url(#clip182)" cx="1978.33" cy="663.147" r="14.4" fill="#009af9" fill-rule="evenodd" fill-opacity="1" stroke="#000000" stroke-opacity="1" stroke-width="3.2"/>
<circle clip-path="url(#clip182)" cx="2030.55" cy="663.911" r="14.4" fill="#009af9" fill-rule="evenodd" fill-opacity="1" stroke="#000000" stroke-opacity="1" stroke-width="3.2"/>
<circle clip-path="url(#clip182)" cx="2082.77" cy="665.153" r="14.4" fill="#009af9" fill-rule="evenodd" fill-opacity="1" stroke="#000000" stroke-opacity="1" stroke-width="3.2"/>
<circle clip-path="url(#clip182)" cx="2134.99" cy="666.801" r="14.4" fill="#009af9" fill-rule="evenodd" fill-opacity="1" stroke="#000000" stroke-opacity="1" stroke-width="3.2"/>
<circle clip-path="url(#clip182)" cx="2187.22" cy="668.788" r="14.4" fill="#009af9" fill-rule="evenodd" fill-opacity="1" stroke="#000000" stroke-opacity="1" stroke-width="3.2"/>
<circle clip-path="url(#clip182)" cx="2239.44" cy="671.059" r="14.4" fill="#009af9" fill-rule="evenodd" fill-opacity="1" stroke="#000000" stroke-opacity="1" stroke-width="3.2"/>
<circle clip-path="url(#clip182)" cx="2291.66" cy="673.565" r="14.4" fill="#009af9" fill-rule="evenodd" fill-opacity="1" stroke="#000000" stroke-opacity="1" stroke-width="3.2"/>
<polyline clip-path="url(#clip182)" style="stroke:#e26f46; stroke-linecap:butt; stroke-linejoin:round; stroke-width:12; stroke-opacity:1; fill:none" points="
  255.035,936.355 261.664,936.228 268.294,936.097 329.596,934.726 390.898,933.002 427.737,931.761 464.577,930.342 495.725,928.985 526.872,927.468 560.707,925.621 
  594.542,923.543 625.735,921.402 656.928,919.025 690.37,916.191 723.812,913.036 762.558,908.946 801.304,904.354 835.737,899.822 870.17,894.842 900.364,890.095 
  930.558,884.982 963.478,878.988 996.398,872.558 1029.51,865.661 1062.63,858.353 1099.24,849.831 1135.86,840.896 1170.69,832.073 1205.53,823.007 1277.98,803.721 
  1338.96,787.492 1376.19,777.799 1413.41,768.383 1447.51,760.074 1481.62,752.122 1513.11,745.134 1544.61,738.516 1576.51,732.206 1608.42,726.304 1644.17,720.178 
  1679.93,714.565 1712.33,709.909 1744.73,705.649 1781.83,701.233 1818.92,697.28 1853.27,694.004 1887.62,691.068 1921.48,688.48 1955.34,686.171 1988.22,684.17 
  2021.1,682.386 2054.8,680.76 2088.51,679.318 2125.44,677.928 2162.36,676.714 2216,675.221 2269.65,673.999 2280.65,673.778 2291.66,673.565 
  "/>
<polyline clip-path="url(#clip182)" style="stroke:#3da44d; stroke-linecap:butt; stroke-linejoin:round; stroke-width:12; stroke-opacity:1; fill:none" points="
  255.035,803.034 268.294,802.935 390.898,801.758 464.577,800.768 526.872,799.723 594.542,798.335 656.928,796.792 723.812,794.84 801.304,792.197 870.17,789.555 
  930.558,787.097 996.398,784.406 1062.63,781.884 1099.24,780.655 1135.86,779.595 1153.28,779.16 1170.69,778.769 1188.11,778.395 1205.53,777.87 1210.06,777.635 
  1214.59,777.308 1219.11,776.833 1223.64,776.128 1228.17,775.066 1232.7,773.453 1234.96,772.355 1237.23,771.002 1239.49,769.337 1241.75,767.295 1244.02,764.796 
  1246.28,761.751 1247.41,759.993 1248.55,758.061 1249.68,755.94 1250.81,753.617 1251.94,751.078 1253.07,748.309 1254.2,745.296 1255.34,742.028 1256.47,738.492 
  1257.6,734.678 1258.73,730.581 1259.86,726.193 1261,721.514 1262.13,716.546 1263.26,711.293 1264.39,705.766 1265.52,699.98 1266.66,693.955 1267.79,687.714 
  1268.92,681.287 1271.18,668.007 1273.45,654.418 1275.71,640.85 1277.98,627.632 1279.88,616.997 1281.79,606.969 1282.74,602.218 1283.69,597.658 1284.65,593.296 
  1285.6,589.138 1286.55,585.187 1287.5,581.445 1288.46,577.91 1289.41,574.582 1290.36,571.457 1291.32,568.529 1292.27,565.793 1293.22,563.242 1295.13,558.666 
  1297.03,554.738 1298.94,551.39 1300.84,548.557 1302.75,546.176 1304.66,544.187 1306.56,542.537 1308.47,541.178 1310.37,540.068 1312.28,539.169 1314.18,538.451 
  1316.09,537.885 1319.9,537.121 1323.71,536.73 1327.52,536.609 1331.34,536.682 1335.15,536.9 1338.96,537.225 1348.27,538.336 1357.57,539.751 1366.88,541.385 
  1376.19,543.2 1394.8,547.307 1413.41,551.997 1430.46,556.759 1447.51,561.929 1464.57,567.467 1481.62,573.332 1513.11,584.884 1544.61,597.147 1576.51,610.036 
  1608.42,623.148 1644.17,637.839 1679.93,652.269 1712.33,664.938 1744.73,677.088 1763.28,683.774 1781.83,690.245 1800.37,696.492 1818.92,702.507 1836.1,707.866 
  1853.27,713.018 1870.44,717.964 1887.62,722.704 1904.55,727.176 1921.48,731.451 1938.41,735.533 1955.34,739.425 1971.78,743.027 1988.22,746.458 2004.66,749.724 
  2021.1,752.83 2054.8,758.719 2088.51,764.003 2125.44,769.156 2162.36,773.704 2189.18,776.663 2216,779.356 2242.83,781.805 2269.65,784.03 2275.15,784.46 
  2280.65,784.882 2286.15,785.296 2291.66,785.701 
  "/>
<polyline clip-path="url(#clip182)" style="stroke:#c271d2; stroke-linecap:butt; stroke-linejoin:round; stroke-width:12; stroke-opacity:1; fill:none" points="
  255.035,812.387 268.294,812.753 390.898,816.993 464.577,820.383 526.872,823.787 594.542,828.017 656.928,832.302 723.812,837.058 801.304,842.189 870.17,845.595 
  930.558,846.911 996.398,845.737 1062.63,841.12 1099.24,836.967 1135.86,831.742 1153.28,829.031 1170.69,826.787 1179.4,826.544 1188.11,828.109 1196.82,834 
  1205.53,850.123 1210.06,866.586 1214.59,892.708 1216.85,910.949 1219.11,933.777 1221.38,962.294 1223.64,997.849 1225.91,1042.09 1228.17,1097.02 1230.43,1165.04 
  1232.7,1249.03 1233.83,1298.05 1234.96,1352.37 1236.09,1412.5 1237.23,1478.98 1238.36,1552.38 1239.49,1633.29 1240.62,1722.33 1241.75,1820.15 1242.89,1927.38 
  1244.02,2044.66 1245.15,2172.61 1246.28,2311.8 1247.41,2462.75 1248.55,2625.89 1249.68,2801.51 1250.81,2989.77 1251.94,3190.61 1253.07,3403.73 1254.2,3628.57 
  1255.34,3864.21 1256.47,4109.38 1257.6,4362.4 1258.73,4621.13 1259.86,4883.01 1261,5145.03 1262.13,5403.75 1263.26,5655.4 1264.39,5895.89 1264.96,6010.63 
  1265.52,6120.97 1266.09,6226.38 1266.66,6326.34 1267.22,6420.31 1267.79,6507.81 1268.35,6588.34 1268.92,6661.45 1269.49,6726.74 1270.05,6783.8 1270.62,6832.31 
  1271.18,6871.98 1271.75,6902.54 1272.32,6923.83 1272.88,6935.7 1273.45,6938.08 1274.01,6930.94 1274.58,6914.33 1275.15,6888.34 1275.71,6853.14 1276.28,6808.92 
  1276.84,6755.95 1277.41,6694.55 1277.98,6625.06 1278.45,6560.59 1278.93,6490.93 1279.41,6416.35 1279.88,6337.14 1280.83,6166.02 1281.79,5980.04 1282.74,5781.76 
  1283.69,5573.74 1284.65,5358.5 1285.6,5138.46 1287.5,4692.82 1289.41,4252.64 1290.36,4038.61 1291.32,3830.3 1292.27,3628.72 1293.22,3434.65 1294.17,3248.69 
  1295.13,3071.26 1296.08,2902.64 1297.03,2742.96 1297.99,2592.23 1298.94,2450.37 1299.89,2317.23 1300.84,2192.57 1301.8,2076.12 1302.75,1967.54 1303.7,1866.5 
  1304.66,1772.63 1305.61,1685.54 1306.56,1604.85 1307.51,1530.19 1308.47,1461.16 1309.42,1397.42 1310.37,1338.59 1311.33,1284.35 1312.28,1234.35 1314.18,1145.89 
  1316.09,1070.93 1318,1007.44 1319.9,953.688 1321.81,908.139 1323.71,869.495 1325.62,836.647 1327.52,808.654 1329.43,784.722 1331.34,764.181 1335.15,731.118 
  1338.96,705.985 1348.27,664.452 1357.57,637.16 1366.88,615.865 1376.19,597.276 1394.8,563.833 1413.41,533.444 1447.51,484.815 1481.62,445.783 1513.11,418.565 
  1544.61,399.73 1576.51,388.766 1608.42,385.272 1644.17,389.14 1679.93,399.889 1712.33,414.366 1744.73,432.273 1818.92,481.195 1887.62,530.022 1955.34,576.494 
  2021.1,617.435 2088.51,653.941 2162.36,687.323 2269.65,724.518 2291.66,730.695 
  "/>
<polyline clip-path="url(#clip182)" style="stroke:#ac8d18; stroke-linecap:butt; stroke-linejoin:round; stroke-width:12; stroke-opacity:1; fill:none" points="
  255.035,791.33 268.294,791.33 390.898,791.33 464.577,791.33 526.872,791.33 594.542,791.33 656.928,791.33 723.812,791.33 801.304,791.33 870.17,791.33 
  930.558,791.33 996.398,791.33 1062.63,791.33 1099.24,791.33 1135.86,791.33 1153.28,791.329 1170.69,791.325 1188.11,791.302 1205.53,791.173 1210.06,791.085 
  1214.59,790.949 1219.11,790.736 1223.64,790.406 1228.17,789.895 1232.7,789.106 1234.96,788.565 1237.23,787.895 1239.49,787.07 1241.75,786.055 1244.02,784.811 
  1246.28,783.294 1247.41,782.418 1248.55,781.455 1249.68,780.397 1250.81,779.238 1251.94,777.971 1253.07,776.59 1254.2,775.086 1255.34,773.454 1256.47,771.689 
  1257.6,769.786 1258.73,767.74 1259.86,765.549 1261,763.213 1262.13,760.731 1263.26,758.108 1264.39,755.348 1265.52,752.458 1266.66,749.448 1267.79,746.33 
  1268.92,743.119 1271.18,736.482 1273.45,729.689 1275.71,722.903 1277.98,716.289 1279.88,710.963 1281.79,705.937 1282.74,703.555 1283.69,701.266 1284.65,699.076 
  1285.6,696.986 1286.55,694.999 1287.5,693.116 1288.46,691.335 1289.41,689.656 1290.36,688.078 1291.32,686.597 1292.27,685.211 1293.22,683.917 1294.17,682.71 
  1295.13,681.588 1296.08,680.545 1297.03,679.578 1298.94,677.854 1300.84,676.384 1302.75,675.136 1304.66,674.08 1306.56,673.189 1308.47,672.441 1310.37,671.812 
  1312.28,671.286 1314.18,670.846 1316.09,670.479 1319.9,669.918 1323.71,669.529 1327.52,669.259 1331.34,669.074 1335.15,668.946 1338.96,668.857 1357.57,668.694 
  1376.19,668.667 1394.8,668.663 1413.41,668.663 1447.51,668.662 1481.62,668.662 1544.61,668.662 1608.42,668.662 1679.93,668.662 1744.73,668.662 1818.92,668.662 
  1887.62,668.662 1955.34,668.662 2021.1,668.662 2088.51,668.662 2162.36,668.662 2269.65,668.662 2291.66,668.662 
  "/>
<path clip-path="url(#clip180)" d="
M1662.04 1441.02 L2280.8 1441.02 L2280.8 1129.98 L1662.04 1129.98  Z
  " fill="#ffffff" fill-rule="evenodd" fill-opacity="1"/>
<polyline clip-path="url(#clip180)" style="stroke:#000000; stroke-linecap:butt; stroke-linejoin:round; stroke-width:4; stroke-opacity:1; fill:none" points="
  1662.04,1441.02 2280.8,1441.02 2280.8,1129.98 1662.04,1129.98 1662.04,1441.02 
  "/>
<polyline clip-path="url(#clip180)" style="stroke:#009af9; stroke-linecap:butt; stroke-linejoin:round; stroke-width:4; stroke-opacity:1; fill:none" points="
  1686.03,1181.82 1829.95,1181.82 
  "/>
<circle clip-path="url(#clip180)" cx="1757.99" cy="1181.82" r="23.04" fill="#009af9" fill-rule="evenodd" fill-opacity="1" stroke="#000000" stroke-opacity="1" stroke-width="5.12"/>
<path clip-path="url(#clip180)" d="M1867.78 1201.5 Q1865.97 1206.13 1864.26 1207.54 Q1862.55 1208.96 1859.68 1208.96 L1856.27 1208.96 L1856.27 1205.39 L1858.77 1205.39 Q1860.53 1205.39 1861.5 1204.56 Q1862.48 1203.72 1863.66 1200.62 L1864.42 1198.68 L1853.93 1173.17 L1858.45 1173.17 L1866.55 1193.45 L1874.65 1173.17 L1879.17 1173.17 L1867.78 1201.5 Z" fill="#000000" fill-rule="evenodd" fill-opacity="1" /><path clip-path="url(#clip180)" d="M1886.46 1195.16 L1894.1 1195.16 L1894.1 1168.79 L1885.79 1170.46 L1885.79 1166.2 L1894.05 1164.54 L1898.73 1164.54 L1898.73 1195.16 L1906.36 1195.16 L1906.36 1199.1 L1886.46 1199.1 L1886.46 1195.16 Z" fill="#000000" fill-rule="evenodd" fill-opacity="1" /><polyline clip-path="url(#clip180)" style="stroke:#e26f46; stroke-linecap:butt; stroke-linejoin:round; stroke-width:4; stroke-opacity:1; fill:none" points="
  1686.03,1233.66 1829.95,1233.66 
  "/>
<path clip-path="url(#clip180)" d="M1853.93 1240.7 L1853.93 1225.01 L1858.19 1225.01 L1858.19 1240.54 Q1858.19 1244.22 1859.63 1246.07 Q1861.06 1247.9 1863.93 1247.9 Q1867.38 1247.9 1869.37 1245.7 Q1871.39 1243.5 1871.39 1239.71 L1871.39 1225.01 L1875.65 1225.01 L1875.65 1250.94 L1871.39 1250.94 L1871.39 1246.95 Q1869.84 1249.31 1867.78 1250.47 Q1865.74 1251.61 1863.03 1251.61 Q1858.56 1251.61 1856.25 1248.83 Q1853.93 1246.05 1853.93 1240.7 M1864.65 1224.38 L1864.65 1224.38 Z" fill="#000000" fill-rule="evenodd" fill-opacity="1" /><path clip-path="url(#clip180)" d="M1904.12 1258.81 L1904.12 1262.12 L1879.49 1262.12 L1879.49 1258.81 L1904.12 1258.81 Z" fill="#000000" fill-rule="evenodd" fill-opacity="1" /><path clip-path="url(#clip180)" d="M1928.31 1229.99 Q1929.91 1227.12 1932.13 1225.75 Q1934.35 1224.38 1937.36 1224.38 Q1941.41 1224.38 1943.61 1227.23 Q1945.81 1230.06 1945.81 1235.29 L1945.81 1250.94 L1941.53 1250.94 L1941.53 1235.43 Q1941.53 1231.7 1940.21 1229.89 Q1938.89 1228.09 1936.18 1228.09 Q1932.87 1228.09 1930.95 1230.29 Q1929.03 1232.49 1929.03 1236.28 L1929.03 1250.94 L1924.74 1250.94 L1924.74 1235.43 Q1924.74 1231.68 1923.42 1229.89 Q1922.11 1228.09 1919.35 1228.09 Q1916.09 1228.09 1914.17 1230.31 Q1912.24 1232.51 1912.24 1236.28 L1912.24 1250.94 L1907.96 1250.94 L1907.96 1225.01 L1912.24 1225.01 L1912.24 1229.04 Q1913.7 1226.65 1915.74 1225.52 Q1917.78 1224.38 1920.58 1224.38 Q1923.4 1224.38 1925.37 1225.82 Q1927.36 1227.25 1928.31 1229.99 Z" fill="#000000" fill-rule="evenodd" fill-opacity="1" /><path clip-path="url(#clip180)" d="M1966.09 1237.9 Q1960.92 1237.9 1958.93 1239.08 Q1956.94 1240.26 1956.94 1243.11 Q1956.94 1245.38 1958.42 1246.72 Q1959.93 1248.04 1962.5 1248.04 Q1966.04 1248.04 1968.17 1245.54 Q1970.32 1243.02 1970.32 1238.85 L1970.32 1237.9 L1966.09 1237.9 M1974.58 1236.14 L1974.58 1250.94 L1970.32 1250.94 L1970.32 1247 Q1968.86 1249.36 1966.69 1250.5 Q1964.51 1251.61 1961.36 1251.61 Q1957.38 1251.61 1955.02 1249.38 Q1952.68 1247.14 1952.68 1243.39 Q1952.68 1239.01 1955.6 1236.79 Q1958.54 1234.57 1964.35 1234.57 L1970.32 1234.57 L1970.32 1234.15 Q1970.32 1231.21 1968.38 1229.62 Q1966.46 1228 1962.96 1228 Q1960.74 1228 1958.63 1228.53 Q1956.53 1229.06 1954.58 1230.13 L1954.58 1226.19 Q1956.92 1225.29 1959.12 1224.85 Q1961.32 1224.38 1963.4 1224.38 Q1969.03 1224.38 1971.8 1227.3 Q1974.58 1230.22 1974.58 1236.14 Z" fill="#000000" fill-rule="evenodd" fill-opacity="1" /><path clip-path="url(#clip180)" d="M2004.91 1235.29 L2004.91 1250.94 L2000.65 1250.94 L2000.65 1235.43 Q2000.65 1231.75 1999.21 1229.92 Q1997.78 1228.09 1994.91 1228.09 Q1991.46 1228.09 1989.47 1230.29 Q1987.48 1232.49 1987.48 1236.28 L1987.48 1250.94 L1983.19 1250.94 L1983.19 1225.01 L1987.48 1225.01 L1987.48 1229.04 Q1989 1226.7 1991.06 1225.54 Q1993.15 1224.38 1995.86 1224.38 Q2000.32 1224.38 2002.61 1227.16 Q2004.91 1229.92 2004.91 1235.29 Z" fill="#000000" fill-rule="evenodd" fill-opacity="1" /><path clip-path="url(#clip180)" d="M2012.96 1240.7 L2012.96 1225.01 L2017.22 1225.01 L2017.22 1240.54 Q2017.22 1244.22 2018.66 1246.07 Q2020.09 1247.9 2022.96 1247.9 Q2026.41 1247.9 2028.4 1245.7 Q2030.42 1243.5 2030.42 1239.71 L2030.42 1225.01 L2034.67 1225.01 L2034.67 1250.94 L2030.42 1250.94 L2030.42 1246.95 Q2028.86 1249.31 2026.8 1250.47 Q2024.77 1251.61 2022.06 1251.61 Q2017.59 1251.61 2015.28 1248.83 Q2012.96 1246.05 2012.96 1240.7 M2023.68 1224.38 L2023.68 1224.38 Z" fill="#000000" fill-rule="evenodd" fill-opacity="1" /><path clip-path="url(#clip180)" d="M2056.57 1214.92 L2056.57 1218.46 L2052.5 1218.46 Q2050.21 1218.46 2049.3 1219.38 Q2048.42 1220.31 2048.42 1222.72 L2048.42 1225.01 L2055.44 1225.01 L2055.44 1228.32 L2048.42 1228.32 L2048.42 1250.94 L2044.14 1250.94 L2044.14 1228.32 L2040.07 1228.32 L2040.07 1225.01 L2044.14 1225.01 L2044.14 1223.2 Q2044.14 1218.88 2046.16 1216.91 Q2048.17 1214.92 2052.54 1214.92 L2056.57 1214.92 Z" fill="#000000" fill-rule="evenodd" fill-opacity="1" /><path clip-path="url(#clip180)" d="M2071.92 1237.9 Q2066.76 1237.9 2064.77 1239.08 Q2062.78 1240.26 2062.78 1243.11 Q2062.78 1245.38 2064.26 1246.72 Q2065.76 1248.04 2068.33 1248.04 Q2071.87 1248.04 2074 1245.54 Q2076.16 1243.02 2076.16 1238.85 L2076.16 1237.9 L2071.92 1237.9 M2080.41 1236.14 L2080.41 1250.94 L2076.16 1250.94 L2076.16 1247 Q2074.7 1249.36 2072.52 1250.5 Q2070.35 1251.61 2067.2 1251.61 Q2063.22 1251.61 2060.85 1249.38 Q2058.52 1247.14 2058.52 1243.39 Q2058.52 1239.01 2061.43 1236.79 Q2064.37 1234.57 2070.18 1234.57 L2076.16 1234.57 L2076.16 1234.15 Q2076.16 1231.21 2074.21 1229.62 Q2072.29 1228 2068.79 1228 Q2066.57 1228 2064.47 1228.53 Q2062.36 1229.06 2060.41 1230.13 L2060.41 1226.19 Q2062.75 1225.29 2064.95 1224.85 Q2067.15 1224.38 2069.23 1224.38 Q2074.86 1224.38 2077.64 1227.3 Q2080.41 1230.22 2080.41 1236.14 Z" fill="#000000" fill-rule="evenodd" fill-opacity="1" /><path clip-path="url(#clip180)" d="M2107.85 1226 L2107.85 1229.99 Q2106.04 1228.99 2104.21 1228.5 Q2102.41 1228 2100.55 1228 Q2096.41 1228 2094.12 1230.63 Q2091.83 1233.25 2091.83 1238 Q2091.83 1242.74 2094.12 1245.38 Q2096.41 1248 2100.55 1248 Q2102.41 1248 2104.21 1247.51 Q2106.04 1247 2107.85 1246 L2107.85 1249.94 Q2106.06 1250.77 2104.14 1251.19 Q2102.24 1251.61 2100.09 1251.61 Q2094.23 1251.61 2090.79 1247.93 Q2087.34 1244.25 2087.34 1238 Q2087.34 1231.65 2090.81 1228.02 Q2094.3 1224.38 2100.37 1224.38 Q2102.34 1224.38 2104.21 1224.8 Q2106.09 1225.19 2107.85 1226 Z" fill="#000000" fill-rule="evenodd" fill-opacity="1" /><path clip-path="url(#clip180)" d="M2119.47 1217.65 L2119.47 1225.01 L2128.24 1225.01 L2128.24 1228.32 L2119.47 1228.32 L2119.47 1242.39 Q2119.47 1245.57 2120.32 1246.47 Q2121.2 1247.37 2123.86 1247.37 L2128.24 1247.37 L2128.24 1250.94 L2123.86 1250.94 Q2118.93 1250.94 2117.06 1249.11 Q2115.18 1247.25 2115.18 1242.39 L2115.18 1228.32 L2112.06 1228.32 L2112.06 1225.01 L2115.18 1225.01 L2115.18 1217.65 L2119.47 1217.65 Z" fill="#000000" fill-rule="evenodd" fill-opacity="1" /><path clip-path="url(#clip180)" d="M2133.4 1240.7 L2133.4 1225.01 L2137.66 1225.01 L2137.66 1240.54 Q2137.66 1244.22 2139.1 1246.07 Q2140.53 1247.9 2143.4 1247.9 Q2146.85 1247.9 2148.84 1245.7 Q2150.85 1243.5 2150.85 1239.71 L2150.85 1225.01 L2155.11 1225.01 L2155.11 1250.94 L2150.85 1250.94 L2150.85 1246.95 Q2149.3 1249.31 2147.24 1250.47 Q2145.21 1251.61 2142.5 1251.61 Q2138.03 1251.61 2135.72 1248.83 Q2133.4 1246.05 2133.4 1240.7 M2144.12 1224.38 L2144.12 1224.38 Z" fill="#000000" fill-rule="evenodd" fill-opacity="1" /><path clip-path="url(#clip180)" d="M2178.91 1228.99 Q2178.19 1228.57 2177.34 1228.39 Q2176.5 1228.18 2175.48 1228.18 Q2171.87 1228.18 2169.93 1230.54 Q2168.01 1232.88 2168.01 1237.28 L2168.01 1250.94 L2163.72 1250.94 L2163.72 1225.01 L2168.01 1225.01 L2168.01 1229.04 Q2169.35 1226.68 2171.5 1225.54 Q2173.66 1224.38 2176.73 1224.38 Q2177.17 1224.38 2177.71 1224.45 Q2178.24 1224.5 2178.89 1224.62 L2178.91 1228.99 Z" fill="#000000" fill-rule="evenodd" fill-opacity="1" /><path clip-path="url(#clip180)" d="M2204.51 1236.91 L2204.51 1238.99 L2184.93 1238.99 Q2185.21 1243.39 2187.57 1245.7 Q2189.95 1248 2194.19 1248 Q2196.64 1248 2198.93 1247.39 Q2201.25 1246.79 2203.52 1245.59 L2203.52 1249.62 Q2201.22 1250.59 2198.82 1251.1 Q2196.41 1251.61 2193.93 1251.61 Q2187.73 1251.61 2184.09 1248 Q2180.48 1244.38 2180.48 1238.23 Q2180.48 1231.86 2183.91 1228.13 Q2187.36 1224.38 2193.19 1224.38 Q2198.42 1224.38 2201.46 1227.76 Q2204.51 1231.12 2204.51 1236.91 M2200.25 1235.66 Q2200.21 1232.16 2198.28 1230.08 Q2196.39 1228 2193.24 1228 Q2189.67 1228 2187.52 1230.01 Q2185.39 1232.02 2185.07 1235.68 L2200.25 1235.66 Z" fill="#000000" fill-rule="evenodd" fill-opacity="1" /><path clip-path="url(#clip180)" d="M2228.56 1228.94 L2228.56 1214.92 L2232.82 1214.92 L2232.82 1250.94 L2228.56 1250.94 L2228.56 1247.05 Q2227.22 1249.36 2225.16 1250.5 Q2223.12 1251.61 2220.25 1251.61 Q2215.55 1251.61 2212.59 1247.86 Q2209.65 1244.11 2209.65 1238 Q2209.65 1231.88 2212.59 1228.13 Q2215.55 1224.38 2220.25 1224.38 Q2223.12 1224.38 2225.16 1225.52 Q2227.22 1226.63 2228.56 1228.94 M2214.05 1238 Q2214.05 1242.69 2215.97 1245.38 Q2217.91 1248.04 2221.29 1248.04 Q2224.67 1248.04 2226.62 1245.38 Q2228.56 1242.69 2228.56 1238 Q2228.56 1233.3 2226.62 1230.63 Q2224.67 1227.95 2221.29 1227.95 Q2217.91 1227.95 2215.97 1230.63 Q2214.05 1233.3 2214.05 1238 Z" fill="#000000" fill-rule="evenodd" fill-opacity="1" /><polyline clip-path="url(#clip180)" style="stroke:#3da44d; stroke-linecap:butt; stroke-linejoin:round; stroke-width:4; stroke-opacity:1; fill:none" points="
  1686.03,1285.5 1829.95,1285.5 
  "/>
<path clip-path="url(#clip180)" d="M1870.44 1266.76 L1870.44 1270.3 L1866.37 1270.3 Q1864.07 1270.3 1863.17 1271.22 Q1862.29 1272.15 1862.29 1274.56 L1862.29 1276.85 L1869.3 1276.85 L1869.3 1280.16 L1862.29 1280.16 L1862.29 1302.78 L1858.01 1302.78 L1858.01 1280.16 L1853.93 1280.16 L1853.93 1276.85 L1858.01 1276.85 L1858.01 1275.04 Q1858.01 1270.72 1860.02 1268.75 Q1862.04 1266.76 1866.41 1266.76 L1870.44 1266.76 Z" fill="#000000" fill-rule="evenodd" fill-opacity="1" /><path clip-path="url(#clip180)" d="M1874 1266.76 L1878.26 1266.76 L1878.26 1302.78 L1874 1302.78 L1874 1266.76 Z" fill="#000000" fill-rule="evenodd" fill-opacity="1" /><path clip-path="url(#clip180)" d="M1886.74 1292.54 L1886.74 1276.85 L1890.99 1276.85 L1890.99 1292.38 Q1890.99 1296.06 1892.43 1297.91 Q1893.86 1299.74 1896.74 1299.74 Q1900.18 1299.74 1902.18 1297.54 Q1904.19 1295.34 1904.19 1291.55 L1904.19 1276.85 L1908.45 1276.85 L1908.45 1302.78 L1904.19 1302.78 L1904.19 1298.79 Q1902.64 1301.15 1900.58 1302.31 Q1898.54 1303.45 1895.83 1303.45 Q1891.36 1303.45 1889.05 1300.67 Q1886.74 1297.89 1886.74 1292.54 M1897.45 1276.22 L1897.45 1276.22 Z" fill="#000000" fill-rule="evenodd" fill-opacity="1" /><path clip-path="url(#clip180)" d="M1938.77 1276.85 L1929.4 1289.47 L1939.26 1302.78 L1934.24 1302.78 L1926.69 1292.59 L1919.14 1302.78 L1914.12 1302.78 L1924.19 1289.21 L1914.98 1276.85 L1920 1276.85 L1926.87 1286.09 L1933.75 1276.85 L1938.77 1276.85 Z" fill="#000000" fill-rule="evenodd" fill-opacity="1" /><polyline clip-path="url(#clip180)" style="stroke:#c271d2; stroke-linecap:butt; stroke-linejoin:round; stroke-width:4; stroke-opacity:1; fill:none" points="
  1686.03,1337.34 1829.95,1337.34 
  "/>
<path clip-path="url(#clip180)" d="M1870.44 1318.6 L1870.44 1322.14 L1866.37 1322.14 Q1864.07 1322.14 1863.17 1323.06 Q1862.29 1323.99 1862.29 1326.4 L1862.29 1328.69 L1869.3 1328.69 L1869.3 1332 L1862.29 1332 L1862.29 1354.62 L1858.01 1354.62 L1858.01 1332 L1853.93 1332 L1853.93 1328.69 L1858.01 1328.69 L1858.01 1326.88 Q1858.01 1322.56 1860.02 1320.59 Q1862.04 1318.6 1866.41 1318.6 L1870.44 1318.6 Z" fill="#000000" fill-rule="evenodd" fill-opacity="1" /><path clip-path="url(#clip180)" d="M1884.05 1331.68 Q1880.62 1331.68 1878.63 1334.36 Q1876.64 1337.02 1876.64 1341.68 Q1876.64 1346.33 1878.61 1349.01 Q1880.6 1351.68 1884.05 1351.68 Q1887.45 1351.68 1889.44 1348.99 Q1891.43 1346.31 1891.43 1341.68 Q1891.43 1337.07 1889.44 1334.38 Q1887.45 1331.68 1884.05 1331.68 M1884.05 1328.06 Q1889.61 1328.06 1892.78 1331.68 Q1895.95 1335.29 1895.95 1341.68 Q1895.95 1348.04 1892.78 1351.68 Q1889.61 1355.29 1884.05 1355.29 Q1878.47 1355.29 1875.3 1351.68 Q1872.15 1348.04 1872.15 1341.68 Q1872.15 1335.29 1875.3 1331.68 Q1878.47 1328.06 1884.05 1328.06 Z" fill="#000000" fill-rule="evenodd" fill-opacity="1" /><path clip-path="url(#clip180)" d="M1918.03 1332.67 Q1917.31 1332.25 1916.46 1332.07 Q1915.62 1331.86 1914.61 1331.86 Q1910.99 1331.86 1909.05 1334.22 Q1907.13 1336.56 1907.13 1340.96 L1907.13 1354.62 L1902.85 1354.62 L1902.85 1328.69 L1907.13 1328.69 L1907.13 1332.72 Q1908.47 1330.36 1910.62 1329.22 Q1912.78 1328.06 1915.86 1328.06 Q1916.3 1328.06 1916.83 1328.13 Q1917.36 1328.18 1918.01 1328.3 L1918.03 1332.67 Z" fill="#000000" fill-rule="evenodd" fill-opacity="1" /><path clip-path="url(#clip180)" d="M1940.11 1329.68 L1940.11 1333.67 Q1938.31 1332.67 1936.48 1332.18 Q1934.67 1331.68 1932.82 1331.68 Q1928.68 1331.68 1926.39 1334.31 Q1924.1 1336.93 1924.1 1341.68 Q1924.1 1346.42 1926.39 1349.06 Q1928.68 1351.68 1932.82 1351.68 Q1934.67 1351.68 1936.48 1351.19 Q1938.31 1350.68 1940.11 1349.68 L1940.11 1353.62 Q1938.33 1354.45 1936.41 1354.87 Q1934.51 1355.29 1932.36 1355.29 Q1926.5 1355.29 1923.05 1351.61 Q1919.61 1347.93 1919.61 1341.68 Q1919.61 1335.33 1923.08 1331.7 Q1926.57 1328.06 1932.64 1328.06 Q1934.61 1328.06 1936.48 1328.48 Q1938.36 1328.87 1940.11 1329.68 Z" fill="#000000" fill-rule="evenodd" fill-opacity="1" /><path clip-path="url(#clip180)" d="M1947.52 1328.69 L1951.78 1328.69 L1951.78 1354.62 L1947.52 1354.62 L1947.52 1328.69 M1947.52 1318.6 L1951.78 1318.6 L1951.78 1323.99 L1947.52 1323.99 L1947.52 1318.6 Z" fill="#000000" fill-rule="evenodd" fill-opacity="1" /><path clip-path="url(#clip180)" d="M1982.24 1338.97 L1982.24 1354.62 L1977.98 1354.62 L1977.98 1339.11 Q1977.98 1335.43 1976.55 1333.6 Q1975.11 1331.77 1972.24 1331.77 Q1968.8 1331.77 1966.8 1333.97 Q1964.81 1336.17 1964.81 1339.96 L1964.81 1354.62 L1960.53 1354.62 L1960.53 1328.69 L1964.81 1328.69 L1964.81 1332.72 Q1966.34 1330.38 1968.4 1329.22 Q1970.48 1328.06 1973.19 1328.06 Q1977.66 1328.06 1979.95 1330.84 Q1982.24 1333.6 1982.24 1338.97 Z" fill="#000000" fill-rule="evenodd" fill-opacity="1" /><path clip-path="url(#clip180)" d="M2007.8 1341.35 Q2007.8 1336.72 2005.88 1334.18 Q2003.98 1331.63 2000.53 1331.63 Q1997.11 1331.63 1995.18 1334.18 Q1993.29 1336.72 1993.29 1341.35 Q1993.29 1345.96 1995.18 1348.5 Q1997.11 1351.05 2000.53 1351.05 Q2003.98 1351.05 2005.88 1348.5 Q2007.8 1345.96 2007.8 1341.35 M2012.06 1351.4 Q2012.06 1358.02 2009.12 1361.24 Q2006.18 1364.48 2000.11 1364.48 Q1997.87 1364.48 1995.88 1364.13 Q1993.89 1363.81 1992.01 1363.11 L1992.01 1358.97 Q1993.89 1359.99 1995.72 1360.47 Q1997.54 1360.96 1999.44 1360.96 Q2003.63 1360.96 2005.72 1358.76 Q2007.8 1356.58 2007.8 1352.16 L2007.8 1350.06 Q2006.48 1352.35 2004.42 1353.48 Q2002.36 1354.62 1999.49 1354.62 Q1994.72 1354.62 1991.8 1350.98 Q1988.89 1347.35 1988.89 1341.35 Q1988.89 1335.33 1991.8 1331.7 Q1994.72 1328.06 1999.49 1328.06 Q2002.36 1328.06 2004.42 1329.2 Q2006.48 1330.33 2007.8 1332.62 L2007.8 1328.69 L2012.06 1328.69 L2012.06 1351.4 Z" fill="#000000" fill-rule="evenodd" fill-opacity="1" /><polyline clip-path="url(#clip180)" style="stroke:#ac8d18; stroke-linecap:butt; stroke-linejoin:round; stroke-width:4; stroke-opacity:1; fill:none" points="
  1686.03,1389.18 1829.95,1389.18 
  "/>
<path clip-path="url(#clip180)" d="M1853.93 1370.44 L1858.22 1370.44 L1858.22 1391.71 L1870.93 1380.53 L1876.37 1380.53 L1862.62 1392.66 L1876.94 1406.46 L1871.39 1406.46 L1858.22 1393.79 L1858.22 1406.46 L1853.93 1406.46 L1853.93 1370.44 Z" fill="#000000" fill-rule="evenodd" fill-opacity="1" /><path clip-path="url(#clip180)" d="M1892.5 1393.42 Q1887.34 1393.42 1885.35 1394.6 Q1883.36 1395.78 1883.36 1398.63 Q1883.36 1400.9 1884.84 1402.24 Q1886.34 1403.56 1888.91 1403.56 Q1892.45 1403.56 1894.58 1401.06 Q1896.74 1398.54 1896.74 1394.37 L1896.74 1393.42 L1892.5 1393.42 M1900.99 1391.66 L1900.99 1406.46 L1896.74 1406.46 L1896.74 1402.52 Q1895.28 1404.88 1893.1 1406.02 Q1890.93 1407.13 1887.78 1407.13 Q1883.8 1407.13 1881.43 1404.9 Q1879.1 1402.66 1879.1 1398.91 Q1879.1 1394.53 1882.01 1392.31 Q1884.95 1390.09 1890.76 1390.09 L1896.74 1390.09 L1896.74 1389.67 Q1896.74 1386.73 1894.79 1385.14 Q1892.87 1383.52 1889.37 1383.52 Q1887.15 1383.52 1885.05 1384.05 Q1882.94 1384.58 1880.99 1385.65 L1880.99 1381.71 Q1883.33 1380.81 1885.53 1380.37 Q1887.73 1379.9 1889.81 1379.9 Q1895.44 1379.9 1898.22 1382.82 Q1900.99 1385.74 1900.99 1391.66 Z" fill="#000000" fill-rule="evenodd" fill-opacity="1" /><path clip-path="url(#clip180)" d="M1913.89 1402.57 L1913.89 1416.32 L1909.61 1416.32 L1909.61 1380.53 L1913.89 1380.53 L1913.89 1384.46 Q1915.23 1382.15 1917.27 1381.04 Q1919.33 1379.9 1922.17 1379.9 Q1926.9 1379.9 1929.84 1383.65 Q1932.8 1387.4 1932.8 1393.52 Q1932.8 1399.63 1929.84 1403.38 Q1926.9 1407.13 1922.17 1407.13 Q1919.33 1407.13 1917.27 1406.02 Q1915.23 1404.88 1913.89 1402.57 M1928.38 1393.52 Q1928.38 1388.82 1926.43 1386.15 Q1924.51 1383.47 1921.13 1383.47 Q1917.75 1383.47 1915.81 1386.15 Q1913.89 1388.82 1913.89 1393.52 Q1913.89 1398.21 1915.81 1400.9 Q1917.75 1403.56 1921.13 1403.56 Q1924.51 1403.56 1926.43 1400.9 Q1928.38 1398.21 1928.38 1393.52 Z" fill="#000000" fill-rule="evenodd" fill-opacity="1" /><path clip-path="url(#clip180)" d="M1943.98 1402.57 L1943.98 1416.32 L1939.7 1416.32 L1939.7 1380.53 L1943.98 1380.53 L1943.98 1384.46 Q1945.32 1382.15 1947.36 1381.04 Q1949.42 1379.9 1952.27 1379.9 Q1956.99 1379.9 1959.93 1383.65 Q1962.89 1387.4 1962.89 1393.52 Q1962.89 1399.63 1959.93 1403.38 Q1956.99 1407.13 1952.27 1407.13 Q1949.42 1407.13 1947.36 1406.02 Q1945.32 1404.88 1943.98 1402.57 M1958.47 1393.52 Q1958.47 1388.82 1956.53 1386.15 Q1954.61 1383.47 1951.23 1383.47 Q1947.85 1383.47 1945.9 1386.15 Q1943.98 1388.82 1943.98 1393.52 Q1943.98 1398.21 1945.9 1400.9 Q1947.85 1403.56 1951.23 1403.56 Q1954.61 1403.56 1956.53 1400.9 Q1958.47 1398.21 1958.47 1393.52 Z" fill="#000000" fill-rule="evenodd" fill-opacity="1" /><path clip-path="url(#clip180)" d="M1981.73 1393.42 Q1976.57 1393.42 1974.58 1394.6 Q1972.59 1395.78 1972.59 1398.63 Q1972.59 1400.9 1974.07 1402.24 Q1975.58 1403.56 1978.15 1403.56 Q1981.69 1403.56 1983.82 1401.06 Q1985.97 1398.54 1985.97 1394.37 L1985.97 1393.42 L1981.73 1393.42 M1990.23 1391.66 L1990.23 1406.46 L1985.97 1406.46 L1985.97 1402.52 Q1984.51 1404.88 1982.34 1406.02 Q1980.16 1407.13 1977.01 1407.13 Q1973.03 1407.13 1970.67 1404.9 Q1968.33 1402.66 1968.33 1398.91 Q1968.33 1394.53 1971.25 1392.31 Q1974.19 1390.09 1980 1390.09 L1985.97 1390.09 L1985.97 1389.67 Q1985.97 1386.73 1984.03 1385.14 Q1982.11 1383.52 1978.61 1383.52 Q1976.39 1383.52 1974.28 1384.05 Q1972.17 1384.58 1970.23 1385.65 L1970.23 1381.71 Q1972.57 1380.81 1974.77 1380.37 Q1976.97 1379.9 1979.05 1379.9 Q1984.67 1379.9 1987.45 1382.82 Q1990.23 1385.74 1990.23 1391.66 Z" fill="#000000" fill-rule="evenodd" fill-opacity="1" /></svg>
