<?xml version="1.0" encoding="utf-8"?>
<svg xmlns="http://www.w3.org/2000/svg" xmlns:xlink="http://www.w3.org/1999/xlink" width="600" height="400" viewBox="0 0 2400 1600">
<defs>
  <clipPath id="clip700">
    <rect x="0" y="0" width="2400" height="1600"/>
  </clipPath>
</defs>
<path clip-path="url(#clip700)" d="
M0 1600 L2400 1600 L2400 0 L0 0  Z
  " fill="#ffffff" fill-rule="evenodd" fill-opacity="1"/>
<defs>
  <clipPath id="clip701">
    <rect x="480" y="0" width="1681" height="1600"/>
  </clipPath>
</defs>
<defs>
  <clipPath id="clip702">
    <rect x="2160" y="197" width="73" height="1216"/>
  </clipPath>
</defs>
<path clip-path="url(#clip700)" d="
M252.501 1410.9 L2352.76 1410.9 L2352.76 47.2441 L252.501 47.2441  Z
  " fill="#ffffff" fill-rule="evenodd" fill-opacity="1"/>
<defs>
  <clipPath id="clip703">
    <rect x="252" y="47" width="2101" height="1365"/>
  </clipPath>
</defs>
<polyline clip-path="url(#clip703)" style="stroke:#000000; stroke-linecap:butt; stroke-linejoin:round; stroke-width:2; stroke-opacity:0.1; fill:none" points="
  319.475,1410.9 319.475,47.2441 
  "/>
<polyline clip-path="url(#clip703)" style="stroke:#000000; stroke-linecap:butt; stroke-linejoin:round; stroke-width:2; stroke-opacity:0.1; fill:none" points="
  1050.81,1410.9 1050.81,47.2441 
  "/>
<polyline clip-path="url(#clip703)" style="stroke:#000000; stroke-linecap:butt; stroke-linejoin:round; stroke-width:2; stroke-opacity:0.1; fill:none" points="
  1782.14,1410.9 1782.14,47.2441 
  "/>
<polyline clip-path="url(#clip700)" style="stroke:#000000; stroke-linecap:butt; stroke-linejoin:round; stroke-width:4; stroke-opacity:1; fill:none" points="
  252.501,1410.9 2352.76,1410.9 
  "/>
<polyline clip-path="url(#clip700)" style="stroke:#000000; stroke-linecap:butt; stroke-linejoin:round; stroke-width:4; stroke-opacity:1; fill:none" points="
  319.475,1410.9 319.475,1392 
  "/>
<polyline clip-path="url(#clip700)" style="stroke:#000000; stroke-linecap:butt; stroke-linejoin:round; stroke-width:4; stroke-opacity:1; fill:none" points="
  1050.81,1410.9 1050.81,1392 
  "/>
<polyline clip-path="url(#clip700)" style="stroke:#000000; stroke-linecap:butt; stroke-linejoin:round; stroke-width:4; stroke-opacity:1; fill:none" points="
  1782.14,1410.9 1782.14,1392 
  "/>
<path clip-path="url(#clip700)" d="M269.355 1485.02 L276.994 1485.02 L276.994 1458.66 L268.683 1460.32 L268.683 1456.06 L276.947 1454.4 L281.623 1454.4 L281.623 1485.02 L289.262 1485.02 L289.262 1488.96 L269.355 1488.96 L269.355 1485.02 Z" fill="#000000" fill-rule="evenodd" fill-opacity="1" /><path clip-path="url(#clip700)" d="M308.706 1457.48 Q305.095 1457.48 303.267 1461.04 Q301.461 1464.58 301.461 1471.71 Q301.461 1478.82 303.267 1482.38 Q305.095 1485.92 308.706 1485.92 Q312.341 1485.92 314.146 1482.38 Q315.975 1478.82 315.975 1471.71 Q315.975 1464.58 314.146 1461.04 Q312.341 1457.48 308.706 1457.48 M308.706 1453.77 Q314.516 1453.77 317.572 1458.38 Q320.651 1462.96 320.651 1471.71 Q320.651 1480.44 317.572 1485.04 Q314.516 1489.63 308.706 1489.63 Q302.896 1489.63 299.817 1485.04 Q296.762 1480.44 296.762 1471.71 Q296.762 1462.96 299.817 1458.38 Q302.896 1453.77 308.706 1453.77 Z" fill="#000000" fill-rule="evenodd" fill-opacity="1" /><path clip-path="url(#clip700)" d="M320.651 1447.87 L344.762 1447.87 L344.762 1451.07 L320.651 1451.07 L320.651 1447.87 Z" fill="#000000" fill-rule="evenodd" fill-opacity="1" /><path clip-path="url(#clip700)" d="M364.473 1446.41 Q367.2 1446.99 368.723 1448.83 Q370.266 1450.68 370.266 1453.38 Q370.266 1457.54 367.407 1459.82 Q364.548 1462.09 359.282 1462.09 Q357.514 1462.09 355.633 1461.73 Q353.771 1461.4 351.778 1460.7 L351.778 1457.03 Q353.357 1457.95 355.238 1458.42 Q357.119 1458.89 359.169 1458.89 Q362.743 1458.89 364.604 1457.48 Q366.485 1456.07 366.485 1453.38 Q366.485 1450.9 364.736 1449.51 Q363.006 1448.1 359.903 1448.1 L356.63 1448.1 L356.63 1444.98 L360.053 1444.98 Q362.855 1444.98 364.341 1443.87 Q365.827 1442.74 365.827 1440.63 Q365.827 1438.47 364.285 1437.32 Q362.761 1436.16 359.903 1436.16 Q358.341 1436.16 356.555 1436.49 Q354.768 1436.83 352.624 1437.55 L352.624 1434.16 Q354.787 1433.56 356.668 1433.26 Q358.567 1432.96 360.241 1432.96 Q364.567 1432.96 367.087 1434.93 Q369.607 1436.89 369.607 1440.24 Q369.607 1442.57 368.272 1444.19 Q366.937 1445.79 364.473 1446.41 Z" fill="#000000" fill-rule="evenodd" fill-opacity="1" /><path clip-path="url(#clip700)" d="M1001.07 1485.02 L1008.71 1485.02 L1008.71 1458.66 L1000.4 1460.32 L1000.4 1456.06 L1008.66 1454.4 L1013.34 1454.4 L1013.34 1485.02 L1020.98 1485.02 L1020.98 1488.96 L1001.07 1488.96 L1001.07 1485.02 Z" fill="#000000" fill-rule="evenodd" fill-opacity="1" /><path clip-path="url(#clip700)" d="M1040.42 1457.48 Q1036.81 1457.48 1034.98 1461.04 Q1033.18 1464.58 1033.18 1471.71 Q1033.18 1478.82 1034.98 1482.38 Q1036.81 1485.92 1040.42 1485.92 Q1044.06 1485.92 1045.86 1482.38 Q1047.69 1478.82 1047.69 1471.71 Q1047.69 1464.58 1045.86 1461.04 Q1044.06 1457.48 1040.42 1457.48 M1040.42 1453.77 Q1046.23 1453.77 1049.29 1458.38 Q1052.37 1462.96 1052.37 1471.71 Q1052.37 1480.44 1049.29 1485.04 Q1046.23 1489.63 1040.42 1489.63 Q1034.61 1489.63 1031.53 1485.04 Q1028.48 1480.44 1028.48 1471.71 Q1028.48 1462.96 1031.53 1458.38 Q1034.61 1453.77 1040.42 1453.77 Z" fill="#000000" fill-rule="evenodd" fill-opacity="1" /><path clip-path="url(#clip700)" d="M1052.37 1447.87 L1076.48 1447.87 L1076.48 1451.07 L1052.37 1451.07 L1052.37 1447.87 Z" fill="#000000" fill-rule="evenodd" fill-opacity="1" /><path clip-path="url(#clip700)" d="M1087.95 1458.35 L1101.21 1458.35 L1101.21 1461.55 L1083.38 1461.55 L1083.38 1458.35 Q1085.54 1456.11 1089.27 1452.35 Q1093.01 1448.57 1093.97 1447.48 Q1095.79 1445.43 1096.51 1444.02 Q1097.24 1442.59 1097.24 1441.22 Q1097.24 1438.98 1095.66 1437.57 Q1094.1 1436.16 1091.58 1436.16 Q1089.79 1436.16 1087.8 1436.78 Q1085.83 1437.4 1083.57 1438.66 L1083.57 1434.82 Q1085.86 1433.9 1087.86 1433.43 Q1089.85 1432.96 1091.51 1432.96 Q1095.87 1432.96 1098.47 1435.14 Q1101.06 1437.32 1101.06 1440.97 Q1101.06 1442.7 1100.4 1444.26 Q1099.76 1445.8 1098.05 1447.91 Q1097.58 1448.46 1095.06 1451.07 Q1092.54 1453.67 1087.95 1458.35 Z" fill="#000000" fill-rule="evenodd" fill-opacity="1" /><path clip-path="url(#clip700)" d="M1732.25 1485.02 L1739.89 1485.02 L1739.89 1458.66 L1731.58 1460.32 L1731.58 1456.06 L1739.84 1454.4 L1744.52 1454.4 L1744.52 1485.02 L1752.16 1485.02 L1752.16 1488.96 L1732.25 1488.96 L1732.25 1485.02 Z" fill="#000000" fill-rule="evenodd" fill-opacity="1" /><path clip-path="url(#clip700)" d="M1771.6 1457.48 Q1767.99 1457.48 1766.16 1461.04 Q1764.36 1464.58 1764.36 1471.71 Q1764.36 1478.82 1766.16 1482.38 Q1767.99 1485.92 1771.6 1485.92 Q1775.24 1485.92 1777.04 1482.38 Q1778.87 1478.82 1778.87 1471.71 Q1778.87 1464.58 1777.04 1461.04 Q1775.24 1457.48 1771.6 1457.48 M1771.6 1453.77 Q1777.41 1453.77 1780.47 1458.38 Q1783.55 1462.96 1783.55 1471.71 Q1783.55 1480.44 1780.47 1485.04 Q1777.41 1489.63 1771.6 1489.63 Q1765.79 1489.63 1762.71 1485.04 Q1759.66 1480.44 1759.66 1471.71 Q1759.66 1462.96 1762.71 1458.38 Q1765.79 1453.77 1771.6 1453.77 Z" fill="#000000" fill-rule="evenodd" fill-opacity="1" /><path clip-path="url(#clip700)" d="M1783.55 1447.87 L1807.66 1447.87 L1807.66 1451.07 L1783.55 1451.07 L1783.55 1447.87 Z" fill="#000000" fill-rule="evenodd" fill-opacity="1" /><path clip-path="url(#clip700)" d="M1816.52 1458.35 L1822.72 1458.35 L1822.72 1436.93 L1815.97 1438.28 L1815.97 1434.82 L1822.69 1433.47 L1826.49 1433.47 L1826.49 1458.35 L1832.69 1458.35 L1832.69 1461.55 L1816.52 1461.55 L1816.52 1458.35 Z" fill="#000000" fill-rule="evenodd" fill-opacity="1" /><path clip-path="url(#clip700)" d="M1257.29 1568.04 Q1257.29 1567.79 1258.16 1566.11 Q1259.03 1564.41 1262.08 1558.32 Q1265.14 1552.2 1268.3 1545.79 L1279.67 1522.92 Q1280.47 1521.48 1281.51 1521.48 Q1282.44 1521.48 1282.86 1522.05 Q1283.28 1522.63 1285.21 1526.53 Q1286.21 1528.43 1286.79 1529.66 L1305.43 1566.98 Q1305.76 1567.79 1305.79 1568.04 Q1305.79 1568.69 1304.66 1568.69 L1259.03 1568.69 Q1257.29 1568.69 1257.29 1568.04 M1261.63 1563.66 L1297.12 1563.66 L1279.38 1528.05 L1261.63 1563.66 Z" fill="#000000" fill-rule="evenodd" fill-opacity="1" /><path clip-path="url(#clip700)" d="M1343.47 1543.89 Q1343.47 1545.69 1342.34 1546.72 Q1341.21 1547.72 1339.92 1547.72 Q1338.7 1547.72 1338.06 1547.01 Q1337.41 1546.31 1337.41 1545.4 Q1337.41 1544.18 1338.31 1543.12 Q1339.22 1542.05 1340.57 1541.83 Q1339.25 1540.99 1337.28 1540.99 Q1336 1540.99 1334.87 1541.67 Q1333.77 1542.34 1333.1 1543.21 Q1332.45 1544.08 1331.87 1545.34 Q1331.33 1546.56 1331.1 1547.3 Q1330.91 1548.01 1330.75 1548.79 L1328.49 1557.8 Q1327.4 1562.09 1327.4 1563.6 Q1327.4 1565.47 1328.3 1566.72 Q1329.2 1567.95 1331 1567.95 Q1331.71 1567.95 1332.52 1567.76 Q1333.32 1567.53 1334.35 1566.95 Q1335.42 1566.34 1336.35 1565.44 Q1337.32 1564.5 1338.25 1562.92 Q1339.18 1561.35 1339.8 1559.32 Q1339.99 1558.61 1340.63 1558.61 Q1341.44 1558.61 1341.44 1559.25 Q1341.44 1559.8 1340.99 1560.96 Q1340.57 1562.09 1339.63 1563.57 Q1338.73 1565.02 1337.54 1566.34 Q1336.35 1567.63 1334.58 1568.53 Q1332.81 1569.43 1330.87 1569.43 Q1328.1 1569.43 1326.27 1567.95 Q1324.43 1566.47 1323.76 1564.41 Q1323.6 1564.7 1323.37 1565.08 Q1323.15 1565.47 1322.47 1566.34 Q1321.82 1567.18 1321.08 1567.82 Q1320.34 1568.43 1319.18 1568.91 Q1318.06 1569.43 1316.83 1569.43 Q1315.29 1569.43 1313.9 1568.98 Q1312.55 1568.53 1311.58 1567.5 Q1310.62 1566.47 1310.62 1565.05 Q1310.62 1563.47 1311.68 1562.38 Q1312.77 1561.25 1314.26 1561.25 Q1315.19 1561.25 1315.93 1561.8 Q1316.7 1562.34 1316.7 1563.54 Q1316.7 1564.86 1315.8 1565.85 Q1314.9 1566.85 1313.61 1567.11 Q1314.93 1567.95 1316.9 1567.95 Q1319.02 1567.95 1320.7 1566.08 Q1322.37 1564.21 1323.18 1561.09 Q1325.17 1553.58 1325.95 1550.24 Q1326.72 1546.85 1326.72 1545.4 Q1326.72 1544.05 1326.37 1543.12 Q1326.01 1542.18 1325.4 1541.76 Q1324.82 1541.31 1324.27 1541.15 Q1323.76 1540.99 1323.18 1540.99 Q1322.21 1540.99 1321.12 1541.38 Q1320.05 1541.76 1318.77 1542.67 Q1317.51 1543.54 1316.32 1545.34 Q1315.13 1547.14 1314.32 1549.62 Q1314.16 1550.36 1313.45 1550.36 Q1312.68 1550.33 1312.68 1549.69 Q1312.68 1549.14 1313.1 1548.01 Q1313.55 1546.85 1314.45 1545.4 Q1315.38 1543.95 1316.58 1542.67 Q1317.8 1541.35 1319.57 1540.44 Q1321.37 1539.54 1323.31 1539.54 Q1324.18 1539.54 1325.01 1539.74 Q1325.88 1539.9 1326.91 1540.38 Q1327.98 1540.86 1328.91 1541.93 Q1329.84 1542.99 1330.42 1544.53 Q1330.81 1543.79 1331.33 1543.09 Q1331.87 1542.38 1332.71 1541.51 Q1333.58 1540.61 1334.77 1540.09 Q1336 1539.54 1337.35 1539.54 Q1338.67 1539.54 1339.96 1539.9 Q1341.24 1540.22 1342.34 1541.28 Q1343.47 1542.31 1343.47 1543.89 Z" fill="#000000" fill-rule="evenodd" fill-opacity="1" /><polyline clip-path="url(#clip703)" style="stroke:#000000; stroke-linecap:butt; stroke-linejoin:round; stroke-width:2; stroke-opacity:0.1; fill:none" points="
  252.501,1367.67 2352.76,1367.67 
  "/>
<polyline clip-path="url(#clip703)" style="stroke:#000000; stroke-linecap:butt; stroke-linejoin:round; stroke-width:2; stroke-opacity:0.1; fill:none" points="
  252.501,692.899 2352.76,692.899 
  "/>
<polyline clip-path="url(#clip700)" style="stroke:#000000; stroke-linecap:butt; stroke-linejoin:round; stroke-width:4; stroke-opacity:1; fill:none" points="
  252.501,1410.9 252.501,47.2441 
  "/>
<polyline clip-path="url(#clip700)" style="stroke:#000000; stroke-linecap:butt; stroke-linejoin:round; stroke-width:4; stroke-opacity:1; fill:none" points="
  252.501,1367.67 271.398,1367.67 
  "/>
<polyline clip-path="url(#clip700)" style="stroke:#000000; stroke-linecap:butt; stroke-linejoin:round; stroke-width:4; stroke-opacity:1; fill:none" points="
  252.501,692.899 271.398,692.899 
  "/>
<path clip-path="url(#clip700)" d="M114.931 1387.46 L122.57 1387.46 L122.57 1361.1 L114.26 1362.76 L114.26 1358.5 L122.524 1356.84 L127.2 1356.84 L127.2 1387.46 L134.839 1387.46 L134.839 1391.4 L114.931 1391.4 L114.931 1387.46 Z" fill="#000000" fill-rule="evenodd" fill-opacity="1" /><path clip-path="url(#clip700)" d="M154.283 1359.92 Q150.672 1359.92 148.843 1363.48 Q147.038 1367.02 147.038 1374.15 Q147.038 1381.26 148.843 1384.82 Q150.672 1388.36 154.283 1388.36 Q157.917 1388.36 159.723 1384.82 Q161.552 1381.26 161.552 1374.15 Q161.552 1367.02 159.723 1363.48 Q157.917 1359.92 154.283 1359.92 M154.283 1356.21 Q160.093 1356.21 163.149 1360.82 Q166.227 1365.4 166.227 1374.15 Q166.227 1382.88 163.149 1387.48 Q160.093 1392.07 154.283 1392.07 Q148.473 1392.07 145.394 1387.48 Q142.339 1382.88 142.339 1374.15 Q142.339 1365.4 145.394 1360.82 Q148.473 1356.21 154.283 1356.21 Z" fill="#000000" fill-rule="evenodd" fill-opacity="1" /><path clip-path="url(#clip700)" d="M166.227 1350.31 L190.339 1350.31 L190.339 1353.51 L166.227 1353.51 L166.227 1350.31 Z" fill="#000000" fill-rule="evenodd" fill-opacity="1" /><path clip-path="url(#clip700)" d="M207.134 1348.43 Q204.577 1348.43 203.072 1350.18 Q201.586 1351.93 201.586 1354.98 Q201.586 1358.01 203.072 1359.77 Q204.577 1361.52 207.134 1361.52 Q209.692 1361.52 211.178 1359.77 Q212.683 1358.01 212.683 1354.98 Q212.683 1351.93 211.178 1350.18 Q209.692 1348.43 207.134 1348.43 M214.676 1336.53 L214.676 1339.99 Q213.247 1339.31 211.78 1338.95 Q210.332 1338.6 208.902 1338.6 Q205.141 1338.6 203.147 1341.14 Q201.172 1343.67 200.89 1348.81 Q202 1347.17 203.674 1346.31 Q205.348 1345.42 207.36 1345.42 Q211.592 1345.42 214.037 1348 Q216.501 1350.56 216.501 1354.98 Q216.501 1359.3 213.943 1361.92 Q211.385 1364.53 207.134 1364.53 Q202.263 1364.53 199.686 1360.81 Q197.11 1357.07 197.11 1349.97 Q197.11 1343.32 200.27 1339.37 Q203.429 1335.4 208.752 1335.4 Q210.181 1335.4 211.629 1335.68 Q213.096 1335.96 214.676 1336.53 Z" fill="#000000" fill-rule="evenodd" fill-opacity="1" /><path clip-path="url(#clip700)" d="M115.59 712.692 L123.229 712.692 L123.229 686.326 L114.918 687.993 L114.918 683.734 L123.182 682.067 L127.858 682.067 L127.858 712.692 L135.497 712.692 L135.497 716.627 L115.59 716.627 L115.59 712.692 Z" fill="#000000" fill-rule="evenodd" fill-opacity="1" /><path clip-path="url(#clip700)" d="M154.941 685.146 Q151.33 685.146 149.502 688.71 Q147.696 692.252 147.696 699.382 Q147.696 706.488 149.502 710.053 Q151.33 713.595 154.941 713.595 Q158.576 713.595 160.381 710.053 Q162.21 706.488 162.21 699.382 Q162.21 692.252 160.381 688.71 Q158.576 685.146 154.941 685.146 M154.941 681.442 Q160.752 681.442 163.807 686.048 Q166.886 690.632 166.886 699.382 Q166.886 708.108 163.807 712.715 Q160.752 717.298 154.941 717.298 Q149.131 717.298 146.053 712.715 Q142.997 708.108 142.997 699.382 Q142.997 690.632 146.053 686.048 Q149.131 681.442 154.941 681.442 Z" fill="#000000" fill-rule="evenodd" fill-opacity="1" /><path clip-path="url(#clip700)" d="M166.886 675.543 L190.997 675.543 L190.997 678.741 L166.886 678.741 L166.886 675.543 Z" fill="#000000" fill-rule="evenodd" fill-opacity="1" /><path clip-path="url(#clip700)" d="M210.708 674.076 Q213.435 674.659 214.958 676.502 Q216.501 678.346 216.501 681.054 Q216.501 685.21 213.642 687.486 Q210.783 689.762 205.517 689.762 Q203.749 689.762 201.868 689.405 Q200.006 689.066 198.013 688.37 L198.013 684.703 Q199.592 685.624 201.473 686.094 Q203.354 686.565 205.404 686.565 Q208.978 686.565 210.84 685.154 Q212.72 683.743 212.72 681.054 Q212.72 678.571 210.971 677.18 Q209.241 675.769 206.138 675.769 L202.865 675.769 L202.865 672.647 L206.288 672.647 Q209.09 672.647 210.576 671.537 Q212.062 670.409 212.062 668.302 Q212.062 666.139 210.52 664.992 Q208.996 663.826 206.138 663.826 Q204.577 663.826 202.79 664.165 Q201.003 664.503 198.859 665.218 L198.859 661.832 Q201.022 661.231 202.903 660.93 Q204.802 660.629 206.476 660.629 Q210.802 660.629 213.322 662.604 Q215.842 664.56 215.842 667.907 Q215.842 670.239 214.507 671.857 Q213.172 673.456 210.708 674.076 Z" fill="#000000" fill-rule="evenodd" fill-opacity="1" /><path clip-path="url(#clip700)" d="M72.1197 767.522 Q71.862 767.522 70.1873 766.653 Q68.4804 765.783 62.3935 762.724 Q56.2744 759.664 49.8654 756.508 L26.9993 745.139 Q25.55 744.334 25.55 743.304 Q25.55 742.37 26.1297 741.951 Q26.7094 741.532 30.6063 739.6 Q32.5065 738.601 33.7303 738.022 L71.0569 719.375 Q71.862 719.053 72.1197 719.02 Q72.7638 719.02 72.7638 720.148 L72.7638 765.783 Q72.7638 767.522 72.1197 767.522 M67.7397 763.175 L67.7397 727.684 L32.12 745.429 L67.7397 763.175 Z" fill="#000000" fill-rule="evenodd" fill-opacity="1" /><path clip-path="url(#clip700)" d="M45.0667 693.934 Q45.9685 693.934 46.1939 694.353 Q46.3872 694.771 46.3872 695.931 L46.3872 702.114 L65.8395 707.009 Q67.5464 707.396 68.9957 707.396 Q70.606 707.396 71.3145 706.913 Q72.023 706.398 72.023 705.335 Q72.023 703.241 70.1229 700.987 Q68.2228 698.7 63.5851 696.768 Q62.9732 696.51 62.8444 696.382 Q62.6833 696.221 62.6833 695.802 Q62.6833 694.997 63.3275 694.997 Q63.5529 694.997 64.5835 695.448 Q65.6141 695.866 67.1278 696.8 Q68.6414 697.702 70.0585 698.894 Q71.4755 700.053 72.5061 701.824 Q73.5045 703.596 73.5045 705.496 Q73.5045 708.169 71.7976 709.876 Q70.0907 711.551 67.4176 711.551 Q66.5481 711.551 63.7783 710.874 Q60.9764 710.198 46.3872 706.526 L46.3872 712.356 Q46.3872 713.161 46.355 713.483 Q46.3228 713.773 46.1617 713.998 Q45.9685 714.191 45.582 714.191 Q44.9701 714.191 44.7125 713.934 Q44.4226 713.676 44.3904 713.354 Q44.326 713 44.326 712.195 L44.326 706.011 L33.8591 703.435 Q32.8285 703.177 32.2488 702.533 Q31.6369 701.857 31.5725 701.47 Q31.4759 701.084 31.4759 700.794 Q31.4759 699.924 31.959 699.409 Q32.4098 698.894 33.2472 698.894 Q33.6981 698.894 44.326 701.599 L44.326 695.802 Q44.326 695.061 44.3582 694.771 Q44.3904 694.449 44.5514 694.192 Q44.7125 693.934 45.0667 693.934 Z" fill="#000000" fill-rule="evenodd" fill-opacity="1" /><polyline clip-path="url(#clip703)" style="stroke:#009af9; stroke-linecap:butt; stroke-linejoin:round; stroke-width:12; stroke-opacity:1; fill:none" points="
  2293.31,153.547 2073.16,288.964 1853.01,424.381 1632.86,559.799 1412.7,695.216 1192.55,830.633 972.399,966.051 752.247,1101.47 532.094,1236.89 311.942,1372.3 
  
  "/>
<polyline clip-path="url(#clip703)" style="stroke:#e26f46; stroke-linecap:butt; stroke-linejoin:round; stroke-width:12; stroke-opacity:1; fill:none" points="
  2293.31,85.838 2073.16,153.547 1853.01,221.255 1632.86,334.875 1412.7,470.293 1192.55,605.71 972.399,741.127 752.247,876.545 532.094,1011.96 311.942,1147.38 
  
  "/>
<path clip-path="url(#clip700)" d="
M1839.76 1365.44 L2282.75 1365.44 L2282.75 1209.92 L1839.76 1209.92  Z
  " fill="#ffffff" fill-rule="evenodd" fill-opacity="1"/>
<polyline clip-path="url(#clip700)" style="stroke:#000000; stroke-linecap:butt; stroke-linejoin:round; stroke-width:4; stroke-opacity:1; fill:none" points="
  1839.76,1365.44 2282.75,1365.44 2282.75,1209.92 1839.76,1209.92 1839.76,1365.44 
  "/>
<polyline clip-path="url(#clip700)" style="stroke:#009af9; stroke-linecap:butt; stroke-linejoin:round; stroke-width:4; stroke-opacity:1; fill:none" points="
  1863.09,1261.76 2003.11,1261.76 
  "/>
<path clip-path="url(#clip700)" d="M2039.85 1266.01 Q2034.69 1266.01 2032.7 1267.19 Q2030.71 1268.37 2030.71 1271.22 Q2030.71 1273.49 2032.19 1274.83 Q2033.69 1276.15 2036.26 1276.15 Q2039.8 1276.15 2041.93 1273.65 Q2044.09 1271.12 2044.09 1266.96 L2044.09 1266.01 L2039.85 1266.01 M2048.34 1264.25 L2048.34 1279.04 L2044.09 1279.04 L2044.09 1275.11 Q2042.63 1277.47 2040.45 1278.6 Q2038.28 1279.71 2035.13 1279.71 Q2031.15 1279.71 2028.78 1277.49 Q2026.45 1275.25 2026.45 1271.5 Q2026.45 1267.12 2029.36 1264.9 Q2032.3 1262.68 2038.11 1262.68 L2044.09 1262.68 L2044.09 1262.26 Q2044.09 1259.32 2042.14 1257.72 Q2040.22 1256.1 2036.72 1256.1 Q2034.5 1256.1 2032.4 1256.63 Q2030.29 1257.17 2028.34 1258.23 L2028.34 1254.3 Q2030.68 1253.39 2032.88 1252.95 Q2035.08 1252.49 2037.16 1252.49 Q2042.79 1252.49 2045.57 1255.41 Q2048.34 1258.32 2048.34 1264.25 Z" fill="#000000" fill-rule="evenodd" fill-opacity="1" /><path clip-path="url(#clip700)" d="M2075.77 1254.11 L2075.77 1258.09 Q2073.97 1257.1 2072.14 1256.61 Q2070.34 1256.1 2068.48 1256.1 Q2064.34 1256.1 2062.05 1258.74 Q2059.76 1261.36 2059.76 1266.1 Q2059.76 1270.85 2062.05 1273.49 Q2064.34 1276.1 2068.48 1276.1 Q2070.34 1276.1 2072.14 1275.62 Q2073.97 1275.11 2075.77 1274.11 L2075.77 1278.05 Q2073.99 1278.88 2072.07 1279.3 Q2070.17 1279.71 2068.02 1279.71 Q2062.16 1279.71 2058.71 1276.03 Q2055.27 1272.35 2055.27 1266.1 Q2055.27 1259.76 2058.74 1256.13 Q2062.23 1252.49 2068.3 1252.49 Q2070.27 1252.49 2072.14 1252.91 Q2074.02 1253.3 2075.77 1254.11 Z" fill="#000000" fill-rule="evenodd" fill-opacity="1" /><path clip-path="url(#clip700)" d="M2101.84 1254.11 L2101.84 1258.09 Q2100.03 1257.1 2098.21 1256.61 Q2096.4 1256.1 2094.55 1256.1 Q2090.4 1256.1 2088.11 1258.74 Q2085.82 1261.36 2085.82 1266.1 Q2085.82 1270.85 2088.11 1273.49 Q2090.4 1276.1 2094.55 1276.1 Q2096.4 1276.1 2098.21 1275.62 Q2100.03 1275.11 2101.84 1274.11 L2101.84 1278.05 Q2100.06 1278.88 2098.14 1279.3 Q2096.24 1279.71 2094.09 1279.71 Q2088.23 1279.71 2084.78 1276.03 Q2081.33 1272.35 2081.33 1266.1 Q2081.33 1259.76 2084.8 1256.13 Q2088.3 1252.49 2094.36 1252.49 Q2096.33 1252.49 2098.21 1252.91 Q2100.08 1253.3 2101.84 1254.11 Z" fill="#000000" fill-rule="evenodd" fill-opacity="1" /><path clip-path="url(#clip700)" d="M2108.81 1268.81 L2108.81 1253.12 L2113.07 1253.12 L2113.07 1268.65 Q2113.07 1272.33 2114.5 1274.18 Q2115.94 1276.01 2118.81 1276.01 Q2122.26 1276.01 2124.25 1273.81 Q2126.26 1271.61 2126.26 1267.81 L2126.26 1253.12 L2130.52 1253.12 L2130.52 1279.04 L2126.26 1279.04 L2126.26 1275.06 Q2124.71 1277.42 2122.65 1278.58 Q2120.61 1279.71 2117.9 1279.71 Q2113.44 1279.71 2111.12 1276.94 Q2108.81 1274.16 2108.81 1268.81 M2119.52 1252.49 L2119.52 1252.49 Z" fill="#000000" fill-rule="evenodd" fill-opacity="1" /><path clip-path="url(#clip700)" d="M2154.32 1257.1 Q2153.6 1256.68 2152.74 1256.5 Q2151.91 1256.29 2150.89 1256.29 Q2147.28 1256.29 2145.33 1258.65 Q2143.41 1260.99 2143.41 1265.38 L2143.41 1279.04 L2139.13 1279.04 L2139.13 1253.12 L2143.41 1253.12 L2143.41 1257.14 Q2144.76 1254.78 2146.91 1253.65 Q2149.06 1252.49 2152.14 1252.49 Q2152.58 1252.49 2153.11 1252.56 Q2153.64 1252.61 2154.29 1252.72 L2154.32 1257.1 Z" fill="#000000" fill-rule="evenodd" fill-opacity="1" /><path clip-path="url(#clip700)" d="M2170.57 1266.01 Q2165.4 1266.01 2163.41 1267.19 Q2161.42 1268.37 2161.42 1271.22 Q2161.42 1273.49 2162.9 1274.83 Q2164.41 1276.15 2166.98 1276.15 Q2170.52 1276.15 2172.65 1273.65 Q2174.8 1271.12 2174.8 1266.96 L2174.8 1266.01 L2170.57 1266.01 M2179.06 1264.25 L2179.06 1279.04 L2174.8 1279.04 L2174.8 1275.11 Q2173.34 1277.47 2171.17 1278.6 Q2168.99 1279.71 2165.84 1279.71 Q2161.86 1279.71 2159.5 1277.49 Q2157.16 1275.25 2157.16 1271.5 Q2157.16 1267.12 2160.08 1264.9 Q2163.02 1262.68 2168.83 1262.68 L2174.8 1262.68 L2174.8 1262.26 Q2174.8 1259.32 2172.86 1257.72 Q2170.94 1256.1 2167.44 1256.1 Q2165.22 1256.1 2163.11 1256.63 Q2161.01 1257.17 2159.06 1258.23 L2159.06 1254.3 Q2161.4 1253.39 2163.6 1252.95 Q2165.8 1252.49 2167.88 1252.49 Q2173.51 1252.49 2176.28 1255.41 Q2179.06 1258.32 2179.06 1264.25 Z" fill="#000000" fill-rule="evenodd" fill-opacity="1" /><path clip-path="url(#clip700)" d="M2206.49 1254.11 L2206.49 1258.09 Q2204.69 1257.1 2202.86 1256.61 Q2201.05 1256.1 2199.2 1256.1 Q2195.06 1256.1 2192.77 1258.74 Q2190.47 1261.36 2190.47 1266.1 Q2190.47 1270.85 2192.77 1273.49 Q2195.06 1276.1 2199.2 1276.1 Q2201.05 1276.1 2202.86 1275.62 Q2204.69 1275.11 2206.49 1274.11 L2206.49 1278.05 Q2204.71 1278.88 2202.79 1279.3 Q2200.89 1279.71 2198.74 1279.71 Q2192.88 1279.71 2189.43 1276.03 Q2185.98 1272.35 2185.98 1266.1 Q2185.98 1259.76 2189.45 1256.13 Q2192.95 1252.49 2199.02 1252.49 Q2200.98 1252.49 2202.86 1252.91 Q2204.73 1253.3 2206.49 1254.11 Z" fill="#000000" fill-rule="evenodd" fill-opacity="1" /><path clip-path="url(#clip700)" d="M2224.69 1281.45 Q2222.88 1286.08 2221.17 1287.49 Q2219.45 1288.9 2216.58 1288.9 L2213.18 1288.9 L2213.18 1285.34 L2215.68 1285.34 Q2217.44 1285.34 2218.41 1284.5 Q2219.39 1283.67 2220.57 1280.57 L2221.33 1278.62 L2210.84 1253.12 L2215.36 1253.12 L2223.46 1273.39 L2231.56 1253.12 L2236.08 1253.12 L2224.69 1281.45 Z" fill="#000000" fill-rule="evenodd" fill-opacity="1" /><polyline clip-path="url(#clip700)" style="stroke:#e26f46; stroke-linecap:butt; stroke-linejoin:round; stroke-width:4; stroke-opacity:1; fill:none" points="
  1863.09,1313.6 2003.11,1313.6 
  "/>
<path clip-path="url(#clip700)" d="M2044.87 1305.72 L2044.87 1309.75 Q2043.07 1308.82 2041.12 1308.36 Q2039.18 1307.9 2037.09 1307.9 Q2033.92 1307.9 2032.33 1308.87 Q2030.75 1309.84 2030.75 1311.78 Q2030.75 1313.27 2031.89 1314.12 Q2033.02 1314.96 2036.45 1315.72 L2037.9 1316.04 Q2042.44 1317.02 2044.34 1318.8 Q2046.26 1320.56 2046.26 1323.73 Q2046.26 1327.34 2043.39 1329.45 Q2040.54 1331.55 2035.54 1331.55 Q2033.46 1331.55 2031.19 1331.14 Q2028.95 1330.74 2026.45 1329.93 L2026.45 1325.53 Q2028.81 1326.76 2031.1 1327.39 Q2033.39 1327.99 2035.64 1327.99 Q2038.65 1327.99 2040.27 1326.97 Q2041.89 1325.93 2041.89 1324.05 Q2041.89 1322.32 2040.71 1321.39 Q2039.55 1320.46 2035.59 1319.61 L2034.11 1319.26 Q2030.15 1318.43 2028.39 1316.71 Q2026.63 1314.98 2026.63 1311.97 Q2026.63 1308.31 2029.22 1306.32 Q2031.82 1304.33 2036.59 1304.33 Q2038.95 1304.33 2041.03 1304.68 Q2043.11 1305.03 2044.87 1305.72 Z" fill="#000000" fill-rule="evenodd" fill-opacity="1" /><path clip-path="url(#clip700)" d="M2057.26 1297.59 L2057.26 1304.96 L2066.03 1304.96 L2066.03 1308.27 L2057.26 1308.27 L2057.26 1322.34 Q2057.26 1325.51 2058.11 1326.41 Q2058.99 1327.32 2061.65 1327.32 L2066.03 1327.32 L2066.03 1330.88 L2061.65 1330.88 Q2056.72 1330.88 2054.85 1329.05 Q2052.97 1327.2 2052.97 1322.34 L2052.97 1308.27 L2049.85 1308.27 L2049.85 1304.96 L2052.97 1304.96 L2052.97 1297.59 L2057.26 1297.59 Z" fill="#000000" fill-rule="evenodd" fill-opacity="1" /><path clip-path="url(#clip700)" d="M2083.41 1317.85 Q2078.25 1317.85 2076.26 1319.03 Q2074.27 1320.21 2074.27 1323.06 Q2074.27 1325.33 2075.75 1326.67 Q2077.26 1327.99 2079.83 1327.99 Q2083.37 1327.99 2085.5 1325.49 Q2087.65 1322.96 2087.65 1318.8 L2087.65 1317.85 L2083.41 1317.85 M2091.91 1316.09 L2091.91 1330.88 L2087.65 1330.88 L2087.65 1326.95 Q2086.19 1329.31 2084.02 1330.44 Q2081.84 1331.55 2078.69 1331.55 Q2074.71 1331.55 2072.35 1329.33 Q2070.01 1327.09 2070.01 1323.34 Q2070.01 1318.96 2072.93 1316.74 Q2075.87 1314.52 2081.68 1314.52 L2087.65 1314.52 L2087.65 1314.1 Q2087.65 1311.16 2085.71 1309.56 Q2083.78 1307.94 2080.29 1307.94 Q2078.07 1307.94 2075.96 1308.47 Q2073.85 1309.01 2071.91 1310.07 L2071.91 1306.14 Q2074.25 1305.23 2076.45 1304.79 Q2078.65 1304.33 2080.73 1304.33 Q2086.35 1304.33 2089.13 1307.25 Q2091.91 1310.16 2091.91 1316.09 Z" fill="#000000" fill-rule="evenodd" fill-opacity="1" /><path clip-path="url(#clip700)" d="M2119.29 1317.94 Q2119.29 1313.24 2117.35 1310.58 Q2115.43 1307.9 2112.05 1307.9 Q2108.67 1307.9 2106.72 1310.58 Q2104.8 1313.24 2104.8 1317.94 Q2104.8 1322.64 2106.72 1325.33 Q2108.67 1327.99 2112.05 1327.99 Q2115.43 1327.99 2117.35 1325.33 Q2119.29 1322.64 2119.29 1317.94 M2104.8 1308.89 Q2106.15 1306.58 2108.18 1305.47 Q2110.24 1304.33 2113.09 1304.33 Q2117.81 1304.33 2120.75 1308.08 Q2123.71 1311.83 2123.71 1317.94 Q2123.71 1324.05 2120.75 1327.8 Q2117.81 1331.55 2113.09 1331.55 Q2110.24 1331.55 2108.18 1330.44 Q2106.15 1329.31 2104.8 1326.99 L2104.8 1330.88 L2100.52 1330.88 L2100.52 1294.86 L2104.8 1294.86 L2104.8 1308.89 Z" fill="#000000" fill-rule="evenodd" fill-opacity="1" /><path clip-path="url(#clip700)" d="M2130.77 1304.96 L2135.03 1304.96 L2135.03 1330.88 L2130.77 1330.88 L2130.77 1304.96 M2130.77 1294.86 L2135.03 1294.86 L2135.03 1300.26 L2130.77 1300.26 L2130.77 1294.86 Z" fill="#000000" fill-rule="evenodd" fill-opacity="1" /><path clip-path="url(#clip700)" d="M2143.95 1294.86 L2148.21 1294.86 L2148.21 1330.88 L2143.95 1330.88 L2143.95 1294.86 Z" fill="#000000" fill-rule="evenodd" fill-opacity="1" /><path clip-path="url(#clip700)" d="M2157.12 1304.96 L2161.38 1304.96 L2161.38 1330.88 L2157.12 1330.88 L2157.12 1304.96 M2157.12 1294.86 L2161.38 1294.86 L2161.38 1300.26 L2157.12 1300.26 L2157.12 1294.86 Z" fill="#000000" fill-rule="evenodd" fill-opacity="1" /><path clip-path="url(#clip700)" d="M2174.5 1297.59 L2174.5 1304.96 L2183.27 1304.96 L2183.27 1308.27 L2174.5 1308.27 L2174.5 1322.34 Q2174.5 1325.51 2175.36 1326.41 Q2176.24 1327.32 2178.9 1327.32 L2183.27 1327.32 L2183.27 1330.88 L2178.9 1330.88 Q2173.97 1330.88 2172.09 1329.05 Q2170.22 1327.2 2170.22 1322.34 L2170.22 1308.27 L2167.09 1308.27 L2167.09 1304.96 L2170.22 1304.96 L2170.22 1297.59 L2174.5 1297.59 Z" fill="#000000" fill-rule="evenodd" fill-opacity="1" /><path clip-path="url(#clip700)" d="M2199.66 1333.29 Q2197.86 1337.92 2196.14 1339.33 Q2194.43 1340.74 2191.56 1340.74 L2188.16 1340.74 L2188.16 1337.18 L2190.66 1337.18 Q2192.42 1337.18 2193.39 1336.34 Q2194.36 1335.51 2195.54 1332.41 L2196.31 1330.46 L2185.82 1304.96 L2190.33 1304.96 L2198.44 1325.23 L2206.54 1304.96 L2211.05 1304.96 L2199.66 1333.29 Z" fill="#000000" fill-rule="evenodd" fill-opacity="1" /></svg>
