<?xml version="1.0" encoding="utf-8"?>
<svg xmlns="http://www.w3.org/2000/svg" xmlns:xlink="http://www.w3.org/1999/xlink" width="600" height="400" viewBox="0 0 2400 1600">
<defs>
  <clipPath id="clip080">
    <rect x="0" y="0" width="2400" height="1600"/>
  </clipPath>
</defs>
<path clip-path="url(#clip080)" d="
M0 1600 L2400 1600 L2400 0 L0 0  Z
  " fill="#ffffff" fill-rule="evenodd" fill-opacity="1"/>
<defs>
  <clipPath id="clip081">
    <rect x="480" y="0" width="1681" height="1600"/>
  </clipPath>
</defs>
<defs>
  <clipPath id="clip082">
    <rect x="216" y="123" width="2137" height="1364"/>
  </clipPath>
</defs>
<path clip-path="url(#clip080)" d="
M186.274 1486.45 L2352.76 1486.45 L2352.76 123.472 L186.274 123.472  Z
  " fill="#ffffff" fill-rule="evenodd" fill-opacity="1"/>
<defs>
  <clipPath id="clip083">
    <rect x="186" y="123" width="2167" height="1364"/>
  </clipPath>
</defs>
<polyline clip-path="url(#clip083)" style="stroke:#000000; stroke-linecap:butt; stroke-linejoin:round; stroke-width:2; stroke-opacity:0.1; fill:none" points="
  247.59,1486.45 247.59,123.472 
  "/>
<polyline clip-path="url(#clip083)" style="stroke:#000000; stroke-linecap:butt; stroke-linejoin:round; stroke-width:2; stroke-opacity:0.1; fill:none" points="
  758.552,1486.45 758.552,123.472 
  "/>
<polyline clip-path="url(#clip083)" style="stroke:#000000; stroke-linecap:butt; stroke-linejoin:round; stroke-width:2; stroke-opacity:0.1; fill:none" points="
  1269.51,1486.45 1269.51,123.472 
  "/>
<polyline clip-path="url(#clip083)" style="stroke:#000000; stroke-linecap:butt; stroke-linejoin:round; stroke-width:2; stroke-opacity:0.1; fill:none" points="
  1780.48,1486.45 1780.48,123.472 
  "/>
<polyline clip-path="url(#clip083)" style="stroke:#000000; stroke-linecap:butt; stroke-linejoin:round; stroke-width:2; stroke-opacity:0.1; fill:none" points="
  2291.44,1486.45 2291.44,123.472 
  "/>
<polyline clip-path="url(#clip080)" style="stroke:#000000; stroke-linecap:butt; stroke-linejoin:round; stroke-width:4; stroke-opacity:1; fill:none" points="
  186.274,1486.45 2352.76,1486.45 
  "/>
<polyline clip-path="url(#clip080)" style="stroke:#000000; stroke-linecap:butt; stroke-linejoin:round; stroke-width:4; stroke-opacity:1; fill:none" points="
  247.59,1486.45 247.59,1467.55 
  "/>
<polyline clip-path="url(#clip080)" style="stroke:#000000; stroke-linecap:butt; stroke-linejoin:round; stroke-width:4; stroke-opacity:1; fill:none" points="
  758.552,1486.45 758.552,1467.55 
  "/>
<polyline clip-path="url(#clip080)" style="stroke:#000000; stroke-linecap:butt; stroke-linejoin:round; stroke-width:4; stroke-opacity:1; fill:none" points="
  1269.51,1486.45 1269.51,1467.55 
  "/>
<polyline clip-path="url(#clip080)" style="stroke:#000000; stroke-linecap:butt; stroke-linejoin:round; stroke-width:4; stroke-opacity:1; fill:none" points="
  1780.48,1486.45 1780.48,1467.55 
  "/>
<polyline clip-path="url(#clip080)" style="stroke:#000000; stroke-linecap:butt; stroke-linejoin:round; stroke-width:4; stroke-opacity:1; fill:none" points="
  2291.44,1486.45 2291.44,1467.55 
  "/>
<path clip-path="url(#clip080)" d="M194.118 1532.02 L223.793 1532.02 L223.793 1535.95 L194.118 1535.95 L194.118 1532.02 Z" fill="#000000" fill-rule="evenodd" fill-opacity="1" /><path clip-path="url(#clip080)" d="M234.696 1544.91 L242.335 1544.91 L242.335 1518.55 L234.025 1520.21 L234.025 1515.95 L242.289 1514.29 L246.965 1514.29 L246.965 1544.91 L254.603 1544.91 L254.603 1548.85 L234.696 1548.85 L234.696 1544.91 Z" fill="#000000" fill-rule="evenodd" fill-opacity="1" /><path clip-path="url(#clip080)" d="M264.048 1542.97 L268.932 1542.97 L268.932 1548.85 L264.048 1548.85 L264.048 1542.97 Z" fill="#000000" fill-rule="evenodd" fill-opacity="1" /><path clip-path="url(#clip080)" d="M289.117 1517.37 Q285.506 1517.37 283.677 1520.93 Q281.872 1524.47 281.872 1531.6 Q281.872 1538.71 283.677 1542.27 Q285.506 1545.82 289.117 1545.82 Q292.751 1545.82 294.557 1542.27 Q296.386 1538.71 296.386 1531.6 Q296.386 1524.47 294.557 1520.93 Q292.751 1517.37 289.117 1517.37 M289.117 1513.66 Q294.927 1513.66 297.983 1518.27 Q301.061 1522.85 301.061 1531.6 Q301.061 1540.33 297.983 1544.94 Q294.927 1549.52 289.117 1549.52 Q283.307 1549.52 280.228 1544.94 Q277.173 1540.33 277.173 1531.6 Q277.173 1522.85 280.228 1518.27 Q283.307 1513.66 289.117 1513.66 Z" fill="#000000" fill-rule="evenodd" fill-opacity="1" /><path clip-path="url(#clip080)" d="M705.578 1532.02 L735.254 1532.02 L735.254 1535.95 L705.578 1535.95 L705.578 1532.02 Z" fill="#000000" fill-rule="evenodd" fill-opacity="1" /><path clip-path="url(#clip080)" d="M755.346 1517.37 Q751.735 1517.37 749.906 1520.93 Q748.101 1524.47 748.101 1531.6 Q748.101 1538.71 749.906 1542.27 Q751.735 1545.82 755.346 1545.82 Q758.98 1545.82 760.786 1542.27 Q762.615 1538.71 762.615 1531.6 Q762.615 1524.47 760.786 1520.93 Q758.98 1517.37 755.346 1517.37 M755.346 1513.66 Q761.156 1513.66 764.212 1518.27 Q767.291 1522.85 767.291 1531.6 Q767.291 1540.33 764.212 1544.94 Q761.156 1549.52 755.346 1549.52 Q749.536 1549.52 746.457 1544.94 Q743.402 1540.33 743.402 1531.6 Q743.402 1522.85 746.457 1518.27 Q749.536 1513.66 755.346 1513.66 Z" fill="#000000" fill-rule="evenodd" fill-opacity="1" /><path clip-path="url(#clip080)" d="M775.508 1542.97 L780.392 1542.97 L780.392 1548.85 L775.508 1548.85 L775.508 1542.97 Z" fill="#000000" fill-rule="evenodd" fill-opacity="1" /><path clip-path="url(#clip080)" d="M790.624 1514.29 L808.98 1514.29 L808.98 1518.22 L794.906 1518.22 L794.906 1526.7 Q795.925 1526.35 796.943 1526.19 Q797.962 1526 798.98 1526 Q804.767 1526 808.147 1529.17 Q811.526 1532.34 811.526 1537.76 Q811.526 1543.34 808.054 1546.44 Q804.582 1549.52 798.263 1549.52 Q796.087 1549.52 793.818 1549.15 Q791.573 1548.78 789.166 1548.04 L789.166 1543.34 Q791.249 1544.47 793.471 1545.03 Q795.693 1545.58 798.17 1545.58 Q802.175 1545.58 804.513 1543.48 Q806.851 1541.37 806.851 1537.76 Q806.851 1534.15 804.513 1532.04 Q802.175 1529.94 798.17 1529.94 Q796.295 1529.94 794.42 1530.35 Q792.568 1530.77 790.624 1531.65 L790.624 1514.29 Z" fill="#000000" fill-rule="evenodd" fill-opacity="1" /><path clip-path="url(#clip080)" d="M1246.9 1517.37 Q1243.29 1517.37 1241.46 1520.93 Q1239.65 1524.47 1239.65 1531.6 Q1239.65 1538.71 1241.46 1542.27 Q1243.29 1545.82 1246.9 1545.82 Q1250.53 1545.82 1252.34 1542.27 Q1254.17 1538.71 1254.17 1531.6 Q1254.17 1524.47 1252.34 1520.93 Q1250.53 1517.37 1246.9 1517.37 M1246.9 1513.66 Q1252.71 1513.66 1255.77 1518.27 Q1258.84 1522.85 1258.84 1531.6 Q1258.84 1540.33 1255.77 1544.94 Q1252.71 1549.52 1246.9 1549.52 Q1241.09 1549.52 1238.01 1544.94 Q1234.95 1540.33 1234.95 1531.6 Q1234.95 1522.85 1238.01 1518.27 Q1241.09 1513.66 1246.9 1513.66 Z" fill="#000000" fill-rule="evenodd" fill-opacity="1" /><path clip-path="url(#clip080)" d="M1267.06 1542.97 L1271.95 1542.97 L1271.95 1548.85 L1267.06 1548.85 L1267.06 1542.97 Z" fill="#000000" fill-rule="evenodd" fill-opacity="1" /><path clip-path="url(#clip080)" d="M1292.13 1517.37 Q1288.52 1517.37 1286.69 1520.93 Q1284.89 1524.47 1284.89 1531.6 Q1284.89 1538.71 1286.69 1542.27 Q1288.52 1545.82 1292.13 1545.82 Q1295.76 1545.82 1297.57 1542.27 Q1299.4 1538.71 1299.4 1531.6 Q1299.4 1524.47 1297.57 1520.93 Q1295.76 1517.37 1292.13 1517.37 M1292.13 1513.66 Q1297.94 1513.66 1301 1518.27 Q1304.07 1522.85 1304.07 1531.6 Q1304.07 1540.33 1301 1544.94 Q1297.94 1549.52 1292.13 1549.52 Q1286.32 1549.52 1283.24 1544.94 Q1280.19 1540.33 1280.19 1531.6 Q1280.19 1522.85 1283.24 1518.27 Q1286.32 1513.66 1292.13 1513.66 Z" fill="#000000" fill-rule="evenodd" fill-opacity="1" /><path clip-path="url(#clip080)" d="M1758.36 1517.37 Q1754.75 1517.37 1752.92 1520.93 Q1751.11 1524.47 1751.11 1531.6 Q1751.11 1538.71 1752.92 1542.27 Q1754.75 1545.82 1758.36 1545.82 Q1761.99 1545.82 1763.8 1542.27 Q1765.63 1538.71 1765.63 1531.6 Q1765.63 1524.47 1763.8 1520.93 Q1761.99 1517.37 1758.36 1517.37 M1758.36 1513.66 Q1764.17 1513.66 1767.23 1518.27 Q1770.3 1522.85 1770.3 1531.6 Q1770.3 1540.33 1767.23 1544.94 Q1764.17 1549.52 1758.36 1549.52 Q1752.55 1549.52 1749.47 1544.94 Q1746.42 1540.33 1746.42 1531.6 Q1746.42 1522.85 1749.47 1518.27 Q1752.55 1513.66 1758.36 1513.66 Z" fill="#000000" fill-rule="evenodd" fill-opacity="1" /><path clip-path="url(#clip080)" d="M1778.52 1542.97 L1783.41 1542.97 L1783.41 1548.85 L1778.52 1548.85 L1778.52 1542.97 Z" fill="#000000" fill-rule="evenodd" fill-opacity="1" /><path clip-path="url(#clip080)" d="M1793.64 1514.29 L1811.99 1514.29 L1811.99 1518.22 L1797.92 1518.22 L1797.92 1526.7 Q1798.94 1526.35 1799.96 1526.19 Q1800.98 1526 1801.99 1526 Q1807.78 1526 1811.16 1529.17 Q1814.54 1532.34 1814.54 1537.76 Q1814.54 1543.34 1811.07 1546.44 Q1807.6 1549.52 1801.28 1549.52 Q1799.1 1549.52 1796.83 1549.15 Q1794.59 1548.78 1792.18 1548.04 L1792.18 1543.34 Q1794.26 1544.47 1796.48 1545.03 Q1798.71 1545.58 1801.18 1545.58 Q1805.19 1545.58 1807.53 1543.48 Q1809.86 1541.37 1809.86 1537.76 Q1809.86 1534.15 1807.53 1532.04 Q1805.19 1529.94 1801.18 1529.94 Q1799.31 1529.94 1797.43 1530.35 Q1795.58 1530.77 1793.64 1531.65 L1793.64 1514.29 Z" fill="#000000" fill-rule="evenodd" fill-opacity="1" /><path clip-path="url(#clip080)" d="M2258.59 1544.91 L2266.23 1544.91 L2266.23 1518.55 L2257.92 1520.21 L2257.92 1515.95 L2266.19 1514.29 L2270.86 1514.29 L2270.86 1544.91 L2278.5 1544.91 L2278.5 1548.85 L2258.59 1548.85 L2258.59 1544.91 Z" fill="#000000" fill-rule="evenodd" fill-opacity="1" /><path clip-path="url(#clip080)" d="M2287.95 1542.97 L2292.83 1542.97 L2292.83 1548.85 L2287.95 1548.85 L2287.95 1542.97 Z" fill="#000000" fill-rule="evenodd" fill-opacity="1" /><path clip-path="url(#clip080)" d="M2313.01 1517.37 Q2309.4 1517.37 2307.57 1520.93 Q2305.77 1524.47 2305.77 1531.6 Q2305.77 1538.71 2307.57 1542.27 Q2309.4 1545.82 2313.01 1545.82 Q2316.65 1545.82 2318.45 1542.27 Q2320.28 1538.71 2320.28 1531.6 Q2320.28 1524.47 2318.45 1520.93 Q2316.65 1517.37 2313.01 1517.37 M2313.01 1513.66 Q2318.82 1513.66 2321.88 1518.27 Q2324.96 1522.85 2324.96 1531.6 Q2324.96 1540.33 2321.88 1544.94 Q2318.82 1549.52 2313.01 1549.52 Q2307.2 1549.52 2304.13 1544.94 Q2301.07 1540.33 2301.07 1531.6 Q2301.07 1522.85 2304.13 1518.27 Q2307.2 1513.66 2313.01 1513.66 Z" fill="#000000" fill-rule="evenodd" fill-opacity="1" /><polyline clip-path="url(#clip083)" style="stroke:#000000; stroke-linecap:butt; stroke-linejoin:round; stroke-width:2; stroke-opacity:0.1; fill:none" points="
  186.274,1447.87 2352.76,1447.87 
  "/>
<polyline clip-path="url(#clip083)" style="stroke:#000000; stroke-linecap:butt; stroke-linejoin:round; stroke-width:2; stroke-opacity:0.1; fill:none" points="
  186.274,1022.09 2352.76,1022.09 
  "/>
<polyline clip-path="url(#clip083)" style="stroke:#000000; stroke-linecap:butt; stroke-linejoin:round; stroke-width:2; stroke-opacity:0.1; fill:none" points="
  186.274,596.304 2352.76,596.304 
  "/>
<polyline clip-path="url(#clip083)" style="stroke:#000000; stroke-linecap:butt; stroke-linejoin:round; stroke-width:2; stroke-opacity:0.1; fill:none" points="
  186.274,170.519 2352.76,170.519 
  "/>
<polyline clip-path="url(#clip080)" style="stroke:#000000; stroke-linecap:butt; stroke-linejoin:round; stroke-width:4; stroke-opacity:1; fill:none" points="
  186.274,1486.45 186.274,123.472 
  "/>
<polyline clip-path="url(#clip080)" style="stroke:#000000; stroke-linecap:butt; stroke-linejoin:round; stroke-width:4; stroke-opacity:1; fill:none" points="
  186.274,1447.87 205.172,1447.87 
  "/>
<polyline clip-path="url(#clip080)" style="stroke:#000000; stroke-linecap:butt; stroke-linejoin:round; stroke-width:4; stroke-opacity:1; fill:none" points="
  186.274,1022.09 205.172,1022.09 
  "/>
<polyline clip-path="url(#clip080)" style="stroke:#000000; stroke-linecap:butt; stroke-linejoin:round; stroke-width:4; stroke-opacity:1; fill:none" points="
  186.274,596.304 205.172,596.304 
  "/>
<polyline clip-path="url(#clip080)" style="stroke:#000000; stroke-linecap:butt; stroke-linejoin:round; stroke-width:4; stroke-opacity:1; fill:none" points="
  186.274,170.519 205.172,170.519 
  "/>
<path clip-path="url(#clip080)" d="M62.9365 1433.67 Q59.3254 1433.67 57.4967 1437.24 Q55.6912 1440.78 55.6912 1447.91 Q55.6912 1455.01 57.4967 1458.58 Q59.3254 1462.12 62.9365 1462.12 Q66.5707 1462.12 68.3763 1458.58 Q70.205 1455.01 70.205 1447.91 Q70.205 1440.78 68.3763 1437.24 Q66.5707 1433.67 62.9365 1433.67 M62.9365 1429.97 Q68.7467 1429.97 71.8022 1434.57 Q74.8809 1439.16 74.8809 1447.91 Q74.8809 1456.63 71.8022 1461.24 Q68.7467 1465.82 62.9365 1465.82 Q57.1264 1465.82 54.0477 1461.24 Q50.9921 1456.63 50.9921 1447.91 Q50.9921 1439.16 54.0477 1434.57 Q57.1264 1429.97 62.9365 1429.97 Z" fill="#000000" fill-rule="evenodd" fill-opacity="1" /><path clip-path="url(#clip080)" d="M83.0984 1459.27 L87.9827 1459.27 L87.9827 1465.15 L83.0984 1465.15 L83.0984 1459.27 Z" fill="#000000" fill-rule="evenodd" fill-opacity="1" /><path clip-path="url(#clip080)" d="M108.168 1433.67 Q104.557 1433.67 102.728 1437.24 Q100.922 1440.78 100.922 1447.91 Q100.922 1455.01 102.728 1458.58 Q104.557 1462.12 108.168 1462.12 Q111.802 1462.12 113.608 1458.58 Q115.436 1455.01 115.436 1447.91 Q115.436 1440.78 113.608 1437.24 Q111.802 1433.67 108.168 1433.67 M108.168 1429.97 Q113.978 1429.97 117.033 1434.57 Q120.112 1439.16 120.112 1447.91 Q120.112 1456.63 117.033 1461.24 Q113.978 1465.82 108.168 1465.82 Q102.358 1465.82 99.2789 1461.24 Q96.2234 1456.63 96.2234 1447.91 Q96.2234 1439.16 99.2789 1434.57 Q102.358 1429.97 108.168 1429.97 Z" fill="#000000" fill-rule="evenodd" fill-opacity="1" /><path clip-path="url(#clip080)" d="M138.33 1433.67 Q134.719 1433.67 132.89 1437.24 Q131.084 1440.78 131.084 1447.91 Q131.084 1455.01 132.89 1458.58 Q134.719 1462.12 138.33 1462.12 Q141.964 1462.12 143.769 1458.58 Q145.598 1455.01 145.598 1447.91 Q145.598 1440.78 143.769 1437.24 Q141.964 1433.67 138.33 1433.67 M138.33 1429.97 Q144.14 1429.97 147.195 1434.57 Q150.274 1439.16 150.274 1447.91 Q150.274 1456.63 147.195 1461.24 Q144.14 1465.82 138.33 1465.82 Q132.519 1465.82 129.441 1461.24 Q126.385 1456.63 126.385 1447.91 Q126.385 1439.16 129.441 1434.57 Q132.519 1429.97 138.33 1429.97 Z" fill="#000000" fill-rule="evenodd" fill-opacity="1" /><path clip-path="url(#clip080)" d="M63.9319 1007.89 Q60.3208 1007.89 58.4921 1011.45 Q56.6865 1014.99 56.6865 1022.12 Q56.6865 1029.23 58.4921 1032.79 Q60.3208 1036.34 63.9319 1036.34 Q67.5661 1036.34 69.3717 1032.79 Q71.2004 1029.23 71.2004 1022.12 Q71.2004 1014.99 69.3717 1011.45 Q67.5661 1007.89 63.9319 1007.89 M63.9319 1004.18 Q69.742 1004.18 72.7976 1008.79 Q75.8763 1013.37 75.8763 1022.12 Q75.8763 1030.85 72.7976 1035.46 Q69.742 1040.04 63.9319 1040.04 Q58.1217 1040.04 55.043 1035.46 Q51.9875 1030.85 51.9875 1022.12 Q51.9875 1013.37 55.043 1008.79 Q58.1217 1004.18 63.9319 1004.18 Z" fill="#000000" fill-rule="evenodd" fill-opacity="1" /><path clip-path="url(#clip080)" d="M84.0938 1033.49 L88.978 1033.49 L88.978 1039.37 L84.0938 1039.37 L84.0938 1033.49 Z" fill="#000000" fill-rule="evenodd" fill-opacity="1" /><path clip-path="url(#clip080)" d="M109.163 1007.89 Q105.552 1007.89 103.723 1011.45 Q101.918 1014.99 101.918 1022.12 Q101.918 1029.23 103.723 1032.79 Q105.552 1036.34 109.163 1036.34 Q112.797 1036.34 114.603 1032.79 Q116.432 1029.23 116.432 1022.12 Q116.432 1014.99 114.603 1011.45 Q112.797 1007.89 109.163 1007.89 M109.163 1004.18 Q114.973 1004.18 118.029 1008.79 Q121.107 1013.37 121.107 1022.12 Q121.107 1030.85 118.029 1035.46 Q114.973 1040.04 109.163 1040.04 Q103.353 1040.04 100.274 1035.46 Q97.2187 1030.85 97.2187 1022.12 Q97.2187 1013.37 100.274 1008.79 Q103.353 1004.18 109.163 1004.18 Z" fill="#000000" fill-rule="evenodd" fill-opacity="1" /><path clip-path="url(#clip080)" d="M129.371 1004.81 L147.728 1004.81 L147.728 1008.74 L133.654 1008.74 L133.654 1017.22 Q134.672 1016.87 135.691 1016.71 Q136.709 1016.52 137.728 1016.52 Q143.515 1016.52 146.894 1019.69 Q150.274 1022.86 150.274 1028.28 Q150.274 1033.86 146.802 1036.96 Q143.33 1040.04 137.01 1040.04 Q134.834 1040.04 132.566 1039.67 Q130.32 1039.3 127.913 1038.56 L127.913 1033.86 Q129.996 1034.99 132.219 1035.55 Q134.441 1036.1 136.918 1036.1 Q140.922 1036.1 143.26 1034 Q145.598 1031.89 145.598 1028.28 Q145.598 1024.67 143.26 1022.56 Q140.922 1020.46 136.918 1020.46 Q135.043 1020.46 133.168 1020.87 Q131.316 1021.29 129.371 1022.17 L129.371 1004.81 Z" fill="#000000" fill-rule="evenodd" fill-opacity="1" /><path clip-path="url(#clip080)" d="M62.9365 582.102 Q59.3254 582.102 57.4967 585.667 Q55.6912 589.209 55.6912 596.338 Q55.6912 603.445 57.4967 607.009 Q59.3254 610.551 62.9365 610.551 Q66.5707 610.551 68.3763 607.009 Q70.205 603.445 70.205 596.338 Q70.205 589.209 68.3763 585.667 Q66.5707 582.102 62.9365 582.102 M62.9365 578.399 Q68.7467 578.399 71.8022 583.005 Q74.8809 587.588 74.8809 596.338 Q74.8809 605.065 71.8022 609.672 Q68.7467 614.255 62.9365 614.255 Q57.1264 614.255 54.0477 609.672 Q50.9921 605.065 50.9921 596.338 Q50.9921 587.588 54.0477 583.005 Q57.1264 578.399 62.9365 578.399 Z" fill="#000000" fill-rule="evenodd" fill-opacity="1" /><path clip-path="url(#clip080)" d="M83.0984 607.704 L87.9827 607.704 L87.9827 613.584 L83.0984 613.584 L83.0984 607.704 Z" fill="#000000" fill-rule="evenodd" fill-opacity="1" /><path clip-path="url(#clip080)" d="M98.978 609.648 L106.617 609.648 L106.617 583.283 L98.3067 584.949 L98.3067 580.69 L106.571 579.024 L111.246 579.024 L111.246 609.648 L118.885 609.648 L118.885 613.584 L98.978 613.584 L98.978 609.648 Z" fill="#000000" fill-rule="evenodd" fill-opacity="1" /><path clip-path="url(#clip080)" d="M138.33 582.102 Q134.719 582.102 132.89 585.667 Q131.084 589.209 131.084 596.338 Q131.084 603.445 132.89 607.009 Q134.719 610.551 138.33 610.551 Q141.964 610.551 143.769 607.009 Q145.598 603.445 145.598 596.338 Q145.598 589.209 143.769 585.667 Q141.964 582.102 138.33 582.102 M138.33 578.399 Q144.14 578.399 147.195 583.005 Q150.274 587.588 150.274 596.338 Q150.274 605.065 147.195 609.672 Q144.14 614.255 138.33 614.255 Q132.519 614.255 129.441 609.672 Q126.385 605.065 126.385 596.338 Q126.385 587.588 129.441 583.005 Q132.519 578.399 138.33 578.399 Z" fill="#000000" fill-rule="evenodd" fill-opacity="1" /><path clip-path="url(#clip080)" d="M63.9319 156.317 Q60.3208 156.317 58.4921 159.882 Q56.6865 163.424 56.6865 170.553 Q56.6865 177.66 58.4921 181.225 Q60.3208 184.766 63.9319 184.766 Q67.5661 184.766 69.3717 181.225 Q71.2004 177.66 71.2004 170.553 Q71.2004 163.424 69.3717 159.882 Q67.5661 156.317 63.9319 156.317 M63.9319 152.614 Q69.742 152.614 72.7976 157.22 Q75.8763 161.803 75.8763 170.553 Q75.8763 179.28 72.7976 183.887 Q69.742 188.47 63.9319 188.47 Q58.1217 188.47 55.043 183.887 Q51.9875 179.28 51.9875 170.553 Q51.9875 161.803 55.043 157.22 Q58.1217 152.614 63.9319 152.614 Z" fill="#000000" fill-rule="evenodd" fill-opacity="1" /><path clip-path="url(#clip080)" d="M84.0938 181.919 L88.978 181.919 L88.978 187.799 L84.0938 187.799 L84.0938 181.919 Z" fill="#000000" fill-rule="evenodd" fill-opacity="1" /><path clip-path="url(#clip080)" d="M99.9733 183.864 L107.612 183.864 L107.612 157.498 L99.3021 159.165 L99.3021 154.905 L107.566 153.239 L112.242 153.239 L112.242 183.864 L119.881 183.864 L119.881 187.799 L99.9733 187.799 L99.9733 183.864 Z" fill="#000000" fill-rule="evenodd" fill-opacity="1" /><path clip-path="url(#clip080)" d="M129.371 153.239 L147.728 153.239 L147.728 157.174 L133.654 157.174 L133.654 165.646 Q134.672 165.299 135.691 165.137 Q136.709 164.952 137.728 164.952 Q143.515 164.952 146.894 168.123 Q150.274 171.294 150.274 176.711 Q150.274 182.29 146.802 185.391 Q143.33 188.47 137.01 188.47 Q134.834 188.47 132.566 188.1 Q130.32 187.729 127.913 186.989 L127.913 182.29 Q129.996 183.424 132.219 183.979 Q134.441 184.535 136.918 184.535 Q140.922 184.535 143.26 182.428 Q145.598 180.322 145.598 176.711 Q145.598 173.1 143.26 170.993 Q140.922 168.887 136.918 168.887 Q135.043 168.887 133.168 169.303 Q131.316 169.72 129.371 170.6 L129.371 153.239 Z" fill="#000000" fill-rule="evenodd" fill-opacity="1" /><path clip-path="url(#clip080)" d="M840.52 25.2409 Q840.52 29.8317 837.117 34.0536 Q833.756 38.2755 828.264 40.8578 Q822.812 43.3991 816.951 43.3991 L802.686 43.3991 L797.481 64.3856 Q797.44 64.5086 797.317 65.0415 Q797.194 65.5333 797.194 65.8203 Q797.194 66.845 798.465 67.0909 Q799.776 67.3369 802.686 67.3369 Q804.572 67.3369 804.859 67.6648 Q805.023 67.8697 805.023 68.2386 Q805.023 68.8125 804.859 69.2224 Q804.695 69.5913 804.367 69.7142 Q804.08 69.8372 803.875 69.8782 Q803.67 69.9192 803.342 69.9192 Q802.482 69.9192 800.637 69.8372 Q798.834 69.7552 797.891 69.7552 L792.521 69.6733 L781.864 69.9192 Q780.593 69.9192 780.593 68.8945 Q780.593 68.1157 780.921 67.7877 Q781.249 67.4188 781.618 67.3779 Q781.987 67.3369 782.93 67.3369 Q784.979 67.3369 786.209 67.2139 Q787.438 67.0909 788.217 66.927 Q789.037 66.722 789.447 66.1482 Q789.898 65.5743 790.103 65.0825 Q790.308 64.5496 790.595 63.3609 L801.826 18.2727 Q802.154 16.9201 802.154 16.7151 Q802.154 16.0183 801.744 15.7724 Q801.375 15.4854 800.309 15.3625 Q798.26 15.1985 796.702 15.1985 Q795.677 15.1985 795.267 15.1575 Q794.899 15.1165 794.571 14.9116 Q794.284 14.6656 794.284 14.1738 Q794.284 13.395 794.612 13.0671 Q794.981 12.6982 795.39 12.6572 Q795.8 12.5752 796.784 12.5752 L824.001 12.5752 Q831.83 12.5752 836.175 16.3052 Q840.52 20.0352 840.52 25.2409 M832.732 23.2324 Q832.732 15.1985 821.296 15.1985 L813.262 15.1985 Q810.597 15.1985 809.942 15.6904 Q809.286 16.1413 808.712 18.3957 L803.014 41.2267 L814.86 41.2267 Q822.812 41.2267 827.772 36.7589 Q830.026 34.7094 831.379 30.4465 Q832.732 26.1836 832.732 23.2324 Z" fill="#000000" fill-rule="evenodd" fill-opacity="1" /><path clip-path="url(#clip080)" d="M865.867 60.2047 Q866.195 60.5736 866.195 60.9425 Q866.195 61.3114 865.375 62.3772 Q864.596 63.4429 862.916 64.8775 Q861.235 66.3121 859.063 67.6648 Q856.89 69.0174 853.693 69.9192 Q850.496 70.8619 847.135 70.8619 Q841.11 70.8619 837.502 66.5581 Q833.936 62.2542 833.936 55.6549 Q833.936 51.433 835.33 47.703 Q836.724 43.932 838.978 41.2677 Q841.274 38.6034 844.143 36.6769 Q847.053 34.7094 850.086 33.7666 Q853.119 32.8239 855.948 32.8239 Q860.088 32.8239 862.506 34.9143 Q864.924 37.0048 864.924 39.956 Q864.924 40.6528 864.719 41.5136 Q864.555 42.3744 863.982 43.727 Q863.449 45.0797 862.055 46.4323 Q860.661 47.744 858.612 48.6048 Q854.062 50.5313 845.782 50.5313 L841.315 50.5313 Q840.003 55.8189 840.003 59.262 Q840.003 60.6146 840.249 62.0083 Q840.495 63.3609 841.151 65.0825 Q841.847 66.804 843.405 67.9107 Q845.004 68.9764 847.299 68.9764 Q848.037 68.9764 848.816 68.9354 Q849.635 68.8945 851.685 68.4436 Q853.775 67.9927 855.62 67.2139 Q857.464 66.4351 859.801 64.7545 Q862.178 63.033 864.064 60.6966 Q864.719 59.8358 865.17 59.8358 Q865.539 59.8358 865.867 60.2047 M862.137 39.956 Q862.137 37.7016 860.456 36.185 Q858.817 34.6684 855.948 34.6684 Q855.046 34.6684 853.939 34.8734 Q852.832 35.0783 850.988 35.9391 Q849.184 36.7999 847.586 38.2345 Q845.987 39.6281 844.389 42.3744 Q842.79 45.0797 841.847 48.6867 L845.29 48.6867 Q846.479 48.6867 847.34 48.6867 Q848.201 48.6458 850.086 48.4818 Q852.013 48.3178 853.406 48.0309 Q854.8 47.703 856.563 47.0472 Q858.325 46.3913 859.432 45.5306 Q860.579 44.6288 861.358 43.1942 Q862.137 41.7596 862.137 39.956 Z" fill="#000000" fill-rule="evenodd" fill-opacity="1" /><path clip-path="url(#clip080)" d="M903.67 86.6785 Q903.67 86.9081 903.412 87.7975 Q903.153 88.687 902.522 90.0643 Q901.92 91.4415 901.088 92.704 Q900.255 93.9377 898.878 94.8559 Q897.53 95.7454 895.98 95.7454 Q893.914 95.7454 892.537 94.3681 Q891.16 92.9909 891.16 90.925 Q891.16 90.6381 891.189 90.3512 Q891.217 90.0643 891.246 89.8921 Q891.275 89.6912 891.361 89.3756 Q891.476 89.0313 891.504 88.8879 Q891.562 88.7444 891.705 88.314 Q891.877 87.8549 891.935 87.6828 Q895.579 78.3864 895.579 74.5129 Q895.579 70.4099 892.394 70.4099 Q889.553 70.4099 886.741 72.4758 Q885.45 73.5087 884.216 75.345 Q882.983 77.1813 882.753 77.8699 Q882.495 79.362 882.122 80.5097 Q881.95 81.313 881.118 84.4405 L879.826 89.7486 L878.707 94.196 Q878.478 94.8272 877.847 95.2863 Q877.215 95.7454 876.527 95.7454 Q875.953 95.7454 875.379 95.3437 Q874.834 94.9707 874.834 94.0812 Q874.834 93.6221 875.063 92.79 L883.585 58.9329 L883.757 57.7852 Q883.757 57.4409 883.614 57.2687 Q883.499 57.0679 882.81 56.9244 Q882.151 56.781 880.831 56.781 Q880.286 56.781 880.027 56.7523 Q879.798 56.7236 879.597 56.5801 Q879.396 56.408 879.396 56.0636 Q879.396 55.5759 879.597 55.3176 Q879.826 55.0307 879.999 54.9733 Q880.171 54.9159 880.515 54.8873 Q881.003 54.8586 882.638 54.7151 Q884.274 54.5429 885.68 54.4282 Q887.086 54.3134 887.688 54.3134 Q888.032 54.3134 888.205 54.4856 Q888.405 54.629 888.434 54.8012 L888.463 54.9446 L883.872 73.6235 Q887.516 69.1187 892.566 69.1187 Q895.837 69.1187 897.587 70.8116 Q899.337 72.4758 899.337 75.4024 Q899.337 78.7594 895.751 88.314 Q894.689 90.9824 894.689 92.5031 Q894.689 93.5074 895.005 93.9664 Q895.349 94.4255 896.095 94.4255 Q897.243 94.4255 898.247 93.7656 Q899.28 93.077 899.997 91.958 Q900.715 90.8103 901.202 89.6626 Q901.719 88.4862 902.092 87.1663 Q902.321 86.449 902.436 86.2768 Q902.58 86.1047 902.981 86.1047 Q903.67 86.1047 903.67 86.6785 Z" fill="#000000" fill-rule="evenodd" fill-opacity="1" /><path clip-path="url(#clip080)" d="M935.642 57.1715 Q935.724 56.1468 937.323 56.1468 L988.764 56.1468 Q991.183 56.1468 991.224 57.0895 Q991.224 58.1143 988.928 58.0733 L937.897 58.0733 Q935.642 58.1143 935.642 57.1715 M935.642 40.7758 Q935.642 39.7511 937.405 39.7921 L988.682 39.7921 Q991.183 39.7921 991.224 40.7758 Q991.224 41.7186 989.092 41.7186 L937.323 41.7186 Q935.642 41.7186 935.642 40.7758 Z" fill="#000000" fill-rule="evenodd" fill-opacity="1" /><path clip-path="url(#clip080)" d="M1023.6 43.0712 Q1023.6 30.7334 1026.72 24.0112 Q1031.06 14.0098 1041.31 14.0098 Q1043.48 14.0098 1045.74 14.6247 Q1048.03 15.1985 1050.9 17.4529 Q1053.81 19.7073 1055.57 23.3964 Q1058.93 30.5285 1058.93 43.0712 Q1058.93 55.327 1055.82 62.0083 Q1051.27 71.7637 1041.23 71.7637 Q1037.46 71.7637 1033.6 69.8372 Q1029.79 67.9107 1027.37 63.2789 Q1023.6 56.3517 1023.6 43.0712 M1030.57 42.0465 Q1030.57 54.7122 1031.47 59.7538 Q1032.5 65.2054 1035.28 67.5828 Q1038.11 69.9192 1041.23 69.9192 Q1044.59 69.9192 1047.38 67.4188 Q1050.2 64.8775 1051.07 59.4259 Q1052.01 54.0563 1051.97 42.0465 Q1051.97 30.3645 1051.15 25.6918 Q1050.04 20.2402 1047.09 18.0678 Q1044.18 15.8543 1041.23 15.8543 Q1040.12 15.8543 1038.93 16.1822 Q1037.78 16.5102 1036.1 17.4529 Q1034.42 18.3957 1033.11 20.7321 Q1031.84 23.0684 1031.23 26.5935 Q1030.57 31.1433 1030.57 42.0465 Z" fill="#000000" fill-rule="evenodd" fill-opacity="1" /><path clip-path="url(#clip080)" d="M1066.44 68.5665 Q1065.17 67.2139 1065.17 65.4514 Q1065.17 63.6888 1066.44 62.4181 Q1067.71 61.1065 1069.64 61.1065 Q1071.48 61.1065 1072.71 62.3362 Q1073.99 63.5249 1073.99 65.4923 Q1073.99 67.4188 1072.63 68.6895 Q1071.32 69.9192 1069.64 69.9192 Q1067.71 69.9192 1066.44 68.5665 Z" fill="#000000" fill-rule="evenodd" fill-opacity="1" /><path clip-path="url(#clip080)" d="M1088.27 43.3991 Q1088.27 30.2006 1094.99 22.1257 Q1101.72 14.0098 1110.36 14.0098 Q1115.41 14.0098 1118.19 16.5921 Q1121.02 19.1335 1121.02 23.0684 Q1121.02 25.2409 1119.75 26.1836 Q1118.48 27.1264 1117.17 27.1264 Q1115.65 27.1264 1114.46 26.1016 Q1113.28 25.0769 1113.28 23.2324 Q1113.28 19.4614 1117.91 19.4614 Q1115.73 16.1003 1110.53 16.1003 Q1108.93 16.1003 1107.29 16.5921 Q1105.65 17.043 1103.52 18.6006 Q1101.39 20.1582 1099.75 22.6176 Q1098.11 25.0769 1096.96 29.7087 Q1095.81 34.3405 1095.81 40.3659 L1095.81 42.3744 Q1099.26 34.0536 1106.31 34.0946 Q1113.36 34.0946 1118.23 39.4642 Q1123.11 44.8337 1123.11 52.7857 Q1123.11 60.9425 1118.03 66.3531 Q1112.95 71.7637 1105.82 71.7637 Q1102.62 71.7637 1099.71 70.4111 Q1096.84 69.0994 1094.13 66.0662 Q1091.47 63.033 1089.87 57.2125 Q1088.27 51.392 1088.27 43.3991 M1095.98 50.9412 Q1095.98 59.18 1097.49 63.115 Q1097.74 63.7708 1098.27 64.6726 Q1098.85 65.5743 1099.79 66.763 Q1100.77 67.9107 1102.37 68.6895 Q1103.97 69.4273 1105.82 69.4273 Q1111.43 69.4273 1114.14 63.9757 Q1115.57 60.9425 1115.57 52.7037 Q1115.57 44.3009 1114.05 41.2267 Q1111.47 36.0211 1106.22 36.0211 Q1102.7 36.0211 1100.24 38.4394 Q1097.82 40.8578 1096.88 44.0959 Q1095.98 47.3341 1095.98 50.9412 Z" fill="#000000" fill-rule="evenodd" fill-opacity="1" /><path clip-path="url(#clip080)" d="M1130.18 43.3991 Q1130.18 30.2006 1136.9 22.1257 Q1143.62 14.0098 1152.27 14.0098 Q1157.31 14.0098 1160.1 16.5921 Q1162.93 19.1335 1162.93 23.0684 Q1162.93 25.2409 1161.66 26.1836 Q1160.39 27.1264 1159.08 27.1264 Q1157.56 27.1264 1156.37 26.1016 Q1155.18 25.0769 1155.18 23.2324 Q1155.18 19.4614 1159.81 19.4614 Q1157.64 16.1003 1152.44 16.1003 Q1150.84 16.1003 1149.2 16.5921 Q1147.56 17.043 1145.43 18.6006 Q1143.29 20.1582 1141.65 22.6176 Q1140.02 25.0769 1138.87 29.7087 Q1137.72 34.3405 1137.72 40.3659 L1137.72 42.3744 Q1141.16 34.0536 1148.21 34.0946 Q1155.26 34.0946 1160.14 39.4642 Q1165.02 44.8337 1165.02 52.7857 Q1165.02 60.9425 1159.94 66.3531 Q1154.85 71.7637 1147.72 71.7637 Q1144.52 71.7637 1141.61 70.4111 Q1138.74 69.0994 1136.04 66.0662 Q1133.38 63.033 1131.78 57.2125 Q1130.18 51.392 1130.18 43.3991 M1137.88 50.9412 Q1137.88 59.18 1139.4 63.115 Q1139.65 63.7708 1140.18 64.6726 Q1140.75 65.5743 1141.7 66.763 Q1142.68 67.9107 1144.28 68.6895 Q1145.88 69.4273 1147.72 69.4273 Q1153.34 69.4273 1156.04 63.9757 Q1157.48 60.9425 1157.48 52.7037 Q1157.48 44.3009 1155.96 41.2267 Q1153.38 36.0211 1148.13 36.0211 Q1144.61 36.0211 1142.15 38.4394 Q1139.73 40.8578 1138.79 44.0959 Q1137.88 47.3341 1137.88 50.9412 Z" fill="#000000" fill-rule="evenodd" fill-opacity="1" /><path clip-path="url(#clip080)" d="M1172.08 43.3991 Q1172.08 30.2006 1178.81 22.1257 Q1185.53 14.0098 1194.18 14.0098 Q1199.22 14.0098 1202.01 16.5921 Q1204.83 19.1335 1204.83 23.0684 Q1204.83 25.2409 1203.56 26.1836 Q1202.29 27.1264 1200.98 27.1264 Q1199.47 27.1264 1198.28 26.1016 Q1197.09 25.0769 1197.09 23.2324 Q1197.09 19.4614 1201.72 19.4614 Q1199.55 16.1003 1194.34 16.1003 Q1192.74 16.1003 1191.1 16.5921 Q1189.46 17.043 1187.33 18.6006 Q1185.2 20.1582 1183.56 22.6176 Q1181.92 25.0769 1180.77 29.7087 Q1179.63 34.3405 1179.63 40.3659 L1179.63 42.3744 Q1183.07 34.0536 1190.12 34.0946 Q1197.17 34.0946 1202.05 39.4642 Q1206.93 44.8337 1206.93 52.7857 Q1206.93 60.9425 1201.84 66.3531 Q1196.76 71.7637 1189.63 71.7637 Q1186.43 71.7637 1183.52 70.4111 Q1180.65 69.0994 1177.95 66.0662 Q1175.28 63.033 1173.68 57.2125 Q1172.08 51.392 1172.08 43.3991 M1179.79 50.9412 Q1179.79 59.18 1181.31 63.115 Q1181.55 63.7708 1182.09 64.6726 Q1182.66 65.5743 1183.6 66.763 Q1184.59 67.9107 1186.18 68.6895 Q1187.78 69.4273 1189.63 69.4273 Q1195.24 69.4273 1197.95 63.9757 Q1199.38 60.9425 1199.38 52.7037 Q1199.38 44.3009 1197.87 41.2267 Q1195.28 36.0211 1190.04 36.0211 Q1186.51 36.0211 1184.05 38.4394 Q1181.63 40.8578 1180.69 44.0959 Q1179.79 47.3341 1179.79 50.9412 Z" fill="#000000" fill-rule="evenodd" fill-opacity="1" /><path clip-path="url(#clip080)" d="M1213.99 43.3991 Q1213.99 30.2006 1220.71 22.1257 Q1227.44 14.0098 1236.08 14.0098 Q1241.13 14.0098 1243.91 16.5921 Q1246.74 19.1335 1246.74 23.0684 Q1246.74 25.2409 1245.47 26.1836 Q1244.2 27.1264 1242.89 27.1264 Q1241.37 27.1264 1240.18 26.1016 Q1238.99 25.0769 1238.99 23.2324 Q1238.99 19.4614 1243.63 19.4614 Q1241.45 16.1003 1236.25 16.1003 Q1234.65 16.1003 1233.01 16.5921 Q1231.37 17.043 1229.24 18.6006 Q1227.11 20.1582 1225.47 22.6176 Q1223.83 25.0769 1222.68 29.7087 Q1221.53 34.3405 1221.53 40.3659 L1221.53 42.3744 Q1224.98 34.0536 1232.03 34.0946 Q1239.08 34.0946 1243.95 39.4642 Q1248.83 44.8337 1248.83 52.7857 Q1248.83 60.9425 1243.75 66.3531 Q1238.67 71.7637 1231.53 71.7637 Q1228.34 71.7637 1225.43 70.4111 Q1222.56 69.0994 1219.85 66.0662 Q1217.19 63.033 1215.59 57.2125 Q1213.99 51.392 1213.99 43.3991 M1221.7 50.9412 Q1221.7 59.18 1223.21 63.115 Q1223.46 63.7708 1223.99 64.6726 Q1224.57 65.5743 1225.51 66.763 Q1226.49 67.9107 1228.09 68.6895 Q1229.69 69.4273 1231.53 69.4273 Q1237.15 69.4273 1239.85 63.9757 Q1241.29 60.9425 1241.29 52.7037 Q1241.29 44.3009 1239.77 41.2267 Q1237.19 36.0211 1231.94 36.0211 Q1228.42 36.0211 1225.96 38.4394 Q1223.54 40.8578 1222.6 44.0959 Q1221.7 47.3341 1221.7 50.9412 Z" fill="#000000" fill-rule="evenodd" fill-opacity="1" /><path clip-path="url(#clip080)" d="M1255.9 43.3991 Q1255.9 30.2006 1262.62 22.1257 Q1269.34 14.0098 1277.99 14.0098 Q1283.03 14.0098 1285.82 16.5921 Q1288.65 19.1335 1288.65 23.0684 Q1288.65 25.2409 1287.38 26.1836 Q1286.11 27.1264 1284.79 27.1264 Q1283.28 27.1264 1282.09 26.1016 Q1280.9 25.0769 1280.9 23.2324 Q1280.9 19.4614 1285.53 19.4614 Q1283.36 16.1003 1278.15 16.1003 Q1276.56 16.1003 1274.92 16.5921 Q1273.28 17.043 1271.14 18.6006 Q1269.01 20.1582 1267.37 22.6176 Q1265.73 25.0769 1264.59 29.7087 Q1263.44 34.3405 1263.44 40.3659 L1263.44 42.3744 Q1266.88 34.0536 1273.93 34.0946 Q1280.98 34.0946 1285.86 39.4642 Q1290.74 44.8337 1290.74 52.7857 Q1290.74 60.9425 1285.66 66.3531 Q1280.57 71.7637 1273.44 71.7637 Q1270.24 71.7637 1267.33 70.4111 Q1264.46 69.0994 1261.76 66.0662 Q1259.09 63.033 1257.5 57.2125 Q1255.9 51.392 1255.9 43.3991 M1263.6 50.9412 Q1263.6 59.18 1265.12 63.115 Q1265.37 63.7708 1265.9 64.6726 Q1266.47 65.5743 1267.41 66.763 Q1268.4 67.9107 1270 68.6895 Q1271.6 69.4273 1273.44 69.4273 Q1279.06 69.4273 1281.76 63.9757 Q1283.2 60.9425 1283.2 52.7037 Q1283.2 44.3009 1281.68 41.2267 Q1279.1 36.0211 1273.85 36.0211 Q1270.33 36.0211 1267.87 38.4394 Q1265.45 40.8578 1264.5 44.0959 Q1263.6 47.3341 1263.6 50.9412 Z" fill="#000000" fill-rule="evenodd" fill-opacity="1" /><path clip-path="url(#clip080)" d="M1297.8 43.3991 Q1297.8 30.2006 1304.53 22.1257 Q1311.25 14.0098 1319.9 14.0098 Q1324.94 14.0098 1327.73 16.5921 Q1330.55 19.1335 1330.55 23.0684 Q1330.55 25.2409 1329.28 26.1836 Q1328.01 27.1264 1326.7 27.1264 Q1325.18 27.1264 1324 26.1016 Q1322.81 25.0769 1322.81 23.2324 Q1322.81 19.4614 1327.44 19.4614 Q1325.27 16.1003 1320.06 16.1003 Q1318.46 16.1003 1316.82 16.5921 Q1315.18 17.043 1313.05 18.6006 Q1310.92 20.1582 1309.28 22.6176 Q1307.64 25.0769 1306.49 29.7087 Q1305.35 34.3405 1305.35 40.3659 L1305.35 42.3744 Q1308.79 34.0536 1315.84 34.0946 Q1322.89 34.0946 1327.77 39.4642 Q1332.64 44.8337 1332.64 52.7857 Q1332.64 60.9425 1327.56 66.3531 Q1322.48 71.7637 1315.35 71.7637 Q1312.15 71.7637 1309.24 70.4111 Q1306.37 69.0994 1303.66 66.0662 Q1301 63.033 1299.4 57.2125 Q1297.8 51.392 1297.8 43.3991 M1305.51 50.9412 Q1305.51 59.18 1307.03 63.115 Q1307.27 63.7708 1307.8 64.6726 Q1308.38 65.5743 1309.32 66.763 Q1310.3 67.9107 1311.9 68.6895 Q1313.5 69.4273 1315.35 69.4273 Q1320.96 69.4273 1323.67 63.9757 Q1325.1 60.9425 1325.1 52.7037 Q1325.1 44.3009 1323.59 41.2267 Q1321 36.0211 1315.76 36.0211 Q1312.23 36.0211 1309.77 38.4394 Q1307.35 40.8578 1306.41 44.0959 Q1305.51 47.3341 1305.51 50.9412 Z" fill="#000000" fill-rule="evenodd" fill-opacity="1" /><path clip-path="url(#clip080)" d="M1339.71 43.3991 Q1339.71 30.2006 1346.43 22.1257 Q1353.15 14.0098 1361.8 14.0098 Q1366.84 14.0098 1369.63 16.5921 Q1372.46 19.1335 1372.46 23.0684 Q1372.46 25.2409 1371.19 26.1836 Q1369.92 27.1264 1368.61 27.1264 Q1367.09 27.1264 1365.9 26.1016 Q1364.71 25.0769 1364.71 23.2324 Q1364.71 19.4614 1369.34 19.4614 Q1367.17 16.1003 1361.97 16.1003 Q1360.37 16.1003 1358.73 16.5921 Q1357.09 17.043 1354.96 18.6006 Q1352.83 20.1582 1351.19 22.6176 Q1349.55 25.0769 1348.4 29.7087 Q1347.25 34.3405 1347.25 40.3659 L1347.25 42.3744 Q1350.69 34.0536 1357.74 34.0946 Q1364.79 34.0946 1369.67 39.4642 Q1374.55 44.8337 1374.55 52.7857 Q1374.55 60.9425 1369.47 66.3531 Q1364.39 71.7637 1357.25 71.7637 Q1354.06 71.7637 1351.15 70.4111 Q1348.28 69.0994 1345.57 66.0662 Q1342.91 63.033 1341.31 57.2125 Q1339.71 51.392 1339.71 43.3991 M1347.42 50.9412 Q1347.42 59.18 1348.93 63.115 Q1349.18 63.7708 1349.71 64.6726 Q1350.28 65.5743 1351.23 66.763 Q1352.21 67.9107 1353.81 68.6895 Q1355.41 69.4273 1357.25 69.4273 Q1362.87 69.4273 1365.57 63.9757 Q1367.01 60.9425 1367.01 52.7037 Q1367.01 44.3009 1365.49 41.2267 Q1362.91 36.0211 1357.66 36.0211 Q1354.14 36.0211 1351.68 38.4394 Q1349.26 40.8578 1348.32 44.0959 Q1347.42 47.3341 1347.42 50.9412 Z" fill="#000000" fill-rule="evenodd" fill-opacity="1" /><path clip-path="url(#clip080)" d="M1381.62 43.3991 Q1381.62 30.2006 1388.34 22.1257 Q1395.06 14.0098 1403.71 14.0098 Q1408.75 14.0098 1411.54 16.5921 Q1414.37 19.1335 1414.37 23.0684 Q1414.37 25.2409 1413.1 26.1836 Q1411.82 27.1264 1410.51 27.1264 Q1409 27.1264 1407.81 26.1016 Q1406.62 25.0769 1406.62 23.2324 Q1406.62 19.4614 1411.25 19.4614 Q1409.08 16.1003 1403.87 16.1003 Q1402.27 16.1003 1400.63 16.5921 Q1399 17.043 1396.86 18.6006 Q1394.73 20.1582 1393.09 22.6176 Q1391.45 25.0769 1390.31 29.7087 Q1389.16 34.3405 1389.16 40.3659 L1389.16 42.3744 Q1392.6 34.0536 1399.65 34.0946 Q1406.7 34.0946 1411.58 39.4642 Q1416.46 44.8337 1416.46 52.7857 Q1416.46 60.9425 1411.37 66.3531 Q1406.29 71.7637 1399.16 71.7637 Q1395.96 71.7637 1393.05 70.4111 Q1390.18 69.0994 1387.48 66.0662 Q1384.81 63.033 1383.21 57.2125 Q1381.62 51.392 1381.62 43.3991 M1389.32 50.9412 Q1389.32 59.18 1390.84 63.115 Q1391.08 63.7708 1391.62 64.6726 Q1392.19 65.5743 1393.13 66.763 Q1394.12 67.9107 1395.72 68.6895 Q1397.31 69.4273 1399.16 69.4273 Q1404.77 69.4273 1407.48 63.9757 Q1408.91 60.9425 1408.91 52.7037 Q1408.91 44.3009 1407.4 41.2267 Q1404.82 36.0211 1399.57 36.0211 Q1396.04 36.0211 1393.58 38.4394 Q1391.17 40.8578 1390.22 44.0959 Q1389.32 47.3341 1389.32 50.9412 Z" fill="#000000" fill-rule="evenodd" fill-opacity="1" /><path clip-path="url(#clip080)" d="M1423.52 43.3991 Q1423.52 30.2006 1430.24 22.1257 Q1436.97 14.0098 1445.62 14.0098 Q1450.66 14.0098 1453.44 16.5921 Q1456.27 19.1335 1456.27 23.0684 Q1456.27 25.2409 1455 26.1836 Q1453.73 27.1264 1452.42 27.1264 Q1450.9 27.1264 1449.71 26.1016 Q1448.53 25.0769 1448.53 23.2324 Q1448.53 19.4614 1453.16 19.4614 Q1450.98 16.1003 1445.78 16.1003 Q1444.18 16.1003 1442.54 16.5921 Q1440.9 17.043 1438.77 18.6006 Q1436.64 20.1582 1435 22.6176 Q1433.36 25.0769 1432.21 29.7087 Q1431.06 34.3405 1431.06 40.3659 L1431.06 42.3744 Q1434.51 34.0536 1441.56 34.0946 Q1448.61 34.0946 1453.49 39.4642 Q1458.36 44.8337 1458.36 52.7857 Q1458.36 60.9425 1453.28 66.3531 Q1448.2 71.7637 1441.07 71.7637 Q1437.87 71.7637 1434.96 70.4111 Q1432.09 69.0994 1429.38 66.0662 Q1426.72 63.033 1425.12 57.2125 Q1423.52 51.392 1423.52 43.3991 M1431.23 50.9412 Q1431.23 59.18 1432.74 63.115 Q1432.99 63.7708 1433.52 64.6726 Q1434.1 65.5743 1435.04 66.763 Q1436.02 67.9107 1437.62 68.6895 Q1439.22 69.4273 1441.07 69.4273 Q1446.68 69.4273 1449.39 63.9757 Q1450.82 60.9425 1450.82 52.7037 Q1450.82 44.3009 1449.3 41.2267 Q1446.72 36.0211 1441.48 36.0211 Q1437.95 36.0211 1435.49 38.4394 Q1433.07 40.8578 1432.13 44.0959 Q1431.23 47.3341 1431.23 50.9412 Z" fill="#000000" fill-rule="evenodd" fill-opacity="1" /><path clip-path="url(#clip080)" d="M1465.43 43.3991 Q1465.43 30.2006 1472.15 22.1257 Q1478.87 14.0098 1487.52 14.0098 Q1492.56 14.0098 1495.35 16.5921 Q1498.18 19.1335 1498.18 23.0684 Q1498.18 25.2409 1496.91 26.1836 Q1495.64 27.1264 1494.33 27.1264 Q1492.81 27.1264 1491.62 26.1016 Q1490.43 25.0769 1490.43 23.2324 Q1490.43 19.4614 1495.06 19.4614 Q1492.89 16.1003 1487.69 16.1003 Q1486.09 16.1003 1484.45 16.5921 Q1482.81 17.043 1480.68 18.6006 Q1478.55 20.1582 1476.91 22.6176 Q1475.27 25.0769 1474.12 29.7087 Q1472.97 34.3405 1472.97 40.3659 L1472.97 42.3744 Q1476.41 34.0536 1483.46 34.0946 Q1490.51 34.0946 1495.39 39.4642 Q1500.27 44.8337 1500.27 52.7857 Q1500.27 60.9425 1495.19 66.3531 Q1490.1 71.7637 1482.97 71.7637 Q1479.77 71.7637 1476.86 70.4111 Q1474 69.0994 1471.29 66.0662 Q1468.63 63.033 1467.03 57.2125 Q1465.43 51.392 1465.43 43.3991 M1473.13 50.9412 Q1473.13 59.18 1474.65 63.115 Q1474.9 63.7708 1475.43 64.6726 Q1476 65.5743 1476.95 66.763 Q1477.93 67.9107 1479.53 68.6895 Q1481.13 69.4273 1482.97 69.4273 Q1488.59 69.4273 1491.29 63.9757 Q1492.73 60.9425 1492.73 52.7037 Q1492.73 44.3009 1491.21 41.2267 Q1488.63 36.0211 1483.38 36.0211 Q1479.86 36.0211 1477.4 38.4394 Q1474.98 40.8578 1474.04 44.0959 Q1473.13 47.3341 1473.13 50.9412 Z" fill="#000000" fill-rule="evenodd" fill-opacity="1" /><path clip-path="url(#clip080)" d="M1507.33 43.3991 Q1507.33 30.2006 1514.06 22.1257 Q1520.78 14.0098 1529.43 14.0098 Q1534.47 14.0098 1537.26 16.5921 Q1540.09 19.1335 1540.09 23.0684 Q1540.09 25.2409 1538.81 26.1836 Q1537.54 27.1264 1536.23 27.1264 Q1534.72 27.1264 1533.53 26.1016 Q1532.34 25.0769 1532.34 23.2324 Q1532.34 19.4614 1536.97 19.4614 Q1534.8 16.1003 1529.59 16.1003 Q1527.99 16.1003 1526.35 16.5921 Q1524.71 17.043 1522.58 18.6006 Q1520.45 20.1582 1518.81 22.6176 Q1517.17 25.0769 1516.02 29.7087 Q1514.88 34.3405 1514.88 40.3659 L1514.88 42.3744 Q1518.32 34.0536 1525.37 34.0946 Q1532.42 34.0946 1537.3 39.4642 Q1542.18 44.8337 1542.18 52.7857 Q1542.18 60.9425 1537.09 66.3531 Q1532.01 71.7637 1524.88 71.7637 Q1521.68 71.7637 1518.77 70.4111 Q1515.9 69.0994 1513.2 66.0662 Q1510.53 63.033 1508.93 57.2125 Q1507.33 51.392 1507.33 43.3991 M1515.04 50.9412 Q1515.04 59.18 1516.56 63.115 Q1516.8 63.7708 1517.34 64.6726 Q1517.91 65.5743 1518.85 66.763 Q1519.84 67.9107 1521.44 68.6895 Q1523.03 69.4273 1524.88 69.4273 Q1530.49 69.4273 1533.2 63.9757 Q1534.63 60.9425 1534.63 52.7037 Q1534.63 44.3009 1533.12 41.2267 Q1530.53 36.0211 1525.29 36.0211 Q1521.76 36.0211 1519.3 38.4394 Q1516.89 40.8578 1515.94 44.0959 Q1515.04 47.3341 1515.04 50.9412 Z" fill="#000000" fill-rule="evenodd" fill-opacity="1" /><path clip-path="url(#clip080)" d="M1549.24 43.3991 Q1549.24 30.2006 1555.96 22.1257 Q1562.69 14.0098 1571.33 14.0098 Q1576.38 14.0098 1579.16 16.5921 Q1581.99 19.1335 1581.99 23.0684 Q1581.99 25.2409 1580.72 26.1836 Q1579.45 27.1264 1578.14 27.1264 Q1576.62 27.1264 1575.43 26.1016 Q1574.24 25.0769 1574.24 23.2324 Q1574.24 19.4614 1578.88 19.4614 Q1576.7 16.1003 1571.5 16.1003 Q1569.9 16.1003 1568.26 16.5921 Q1566.62 17.043 1564.49 18.6006 Q1562.36 20.1582 1560.72 22.6176 Q1559.08 25.0769 1557.93 29.7087 Q1556.78 34.3405 1556.78 40.3659 L1556.78 42.3744 Q1560.23 34.0536 1567.28 34.0946 Q1574.33 34.0946 1579.2 39.4642 Q1584.08 44.8337 1584.08 52.7857 Q1584.08 60.9425 1579 66.3531 Q1573.92 71.7637 1566.78 71.7637 Q1563.59 71.7637 1560.68 70.4111 Q1557.81 69.0994 1555.1 66.0662 Q1552.44 63.033 1550.84 57.2125 Q1549.24 51.392 1549.24 43.3991 M1556.95 50.9412 Q1556.95 59.18 1558.46 63.115 Q1558.71 63.7708 1559.24 64.6726 Q1559.82 65.5743 1560.76 66.763 Q1561.74 67.9107 1563.34 68.6895 Q1564.94 69.4273 1566.78 69.4273 Q1572.4 69.4273 1575.11 63.9757 Q1576.54 60.9425 1576.54 52.7037 Q1576.54 44.3009 1575.02 41.2267 Q1572.44 36.0211 1567.19 36.0211 Q1563.67 36.0211 1561.21 38.4394 Q1558.79 40.8578 1557.85 44.0959 Q1556.95 47.3341 1556.95 50.9412 Z" fill="#000000" fill-rule="evenodd" fill-opacity="1" /><path clip-path="url(#clip080)" d="M1591.15 43.3991 Q1591.15 30.2006 1597.87 22.1257 Q1604.59 14.0098 1613.24 14.0098 Q1618.28 14.0098 1621.07 16.5921 Q1623.9 19.1335 1623.9 23.0684 Q1623.9 25.2409 1622.63 26.1836 Q1621.36 27.1264 1620.04 27.1264 Q1618.53 27.1264 1617.34 26.1016 Q1616.15 25.0769 1616.15 23.2324 Q1616.15 19.4614 1620.78 19.4614 Q1618.61 16.1003 1613.4 16.1003 Q1611.81 16.1003 1610.17 16.5921 Q1608.53 17.043 1606.4 18.6006 Q1604.26 20.1582 1602.62 22.6176 Q1600.98 25.0769 1599.84 29.7087 Q1598.69 34.3405 1598.69 40.3659 L1598.69 42.3744 Q1602.13 34.0536 1609.18 34.0946 Q1616.23 34.0946 1621.11 39.4642 Q1625.99 44.8337 1625.99 52.7857 Q1625.99 60.9425 1620.91 66.3531 Q1615.82 71.7637 1608.69 71.7637 Q1605.49 71.7637 1602.58 70.4111 Q1599.71 69.0994 1597.01 66.0662 Q1594.34 63.033 1592.75 57.2125 Q1591.15 51.392 1591.15 43.3991 M1598.85 50.9412 Q1598.85 59.18 1600.37 63.115 Q1600.62 63.7708 1601.15 64.6726 Q1601.72 65.5743 1602.67 66.763 Q1603.65 67.9107 1605.25 68.6895 Q1606.85 69.4273 1608.69 69.4273 Q1614.31 69.4273 1617.01 63.9757 Q1618.45 60.9425 1618.45 52.7037 Q1618.45 44.3009 1616.93 41.2267 Q1614.35 36.0211 1609.1 36.0211 Q1605.58 36.0211 1603.12 38.4394 Q1600.7 40.8578 1599.76 44.0959 Q1598.85 47.3341 1598.85 50.9412 Z" fill="#000000" fill-rule="evenodd" fill-opacity="1" /><path clip-path="url(#clip080)" d="M1633.05 43.3991 Q1633.05 30.2006 1639.78 22.1257 Q1646.5 14.0098 1655.15 14.0098 Q1660.19 14.0098 1662.98 16.5921 Q1665.8 19.1335 1665.8 23.0684 Q1665.8 25.2409 1664.53 26.1836 Q1663.26 27.1264 1661.95 27.1264 Q1660.43 27.1264 1659.25 26.1016 Q1658.06 25.0769 1658.06 23.2324 Q1658.06 19.4614 1662.69 19.4614 Q1660.52 16.1003 1655.31 16.1003 Q1653.71 16.1003 1652.07 16.5921 Q1650.43 17.043 1648.3 18.6006 Q1646.17 20.1582 1644.53 22.6176 Q1642.89 25.0769 1641.74 29.7087 Q1640.6 34.3405 1640.6 40.3659 L1640.6 42.3744 Q1644.04 34.0536 1651.09 34.0946 Q1658.14 34.0946 1663.02 39.4642 Q1667.89 44.8337 1667.89 52.7857 Q1667.89 60.9425 1662.81 66.3531 Q1657.73 71.7637 1650.6 71.7637 Q1647.4 71.7637 1644.49 70.4111 Q1641.62 69.0994 1638.92 66.0662 Q1636.25 63.033 1634.65 57.2125 Q1633.05 51.392 1633.05 43.3991 M1640.76 50.9412 Q1640.76 59.18 1642.28 63.115 Q1642.52 63.7708 1643.06 64.6726 Q1643.63 65.5743 1644.57 66.763 Q1645.56 67.9107 1647.15 68.6895 Q1648.75 69.4273 1650.6 69.4273 Q1656.21 69.4273 1658.92 63.9757 Q1660.35 60.9425 1660.35 52.7037 Q1660.35 44.3009 1658.84 41.2267 Q1656.25 36.0211 1651.01 36.0211 Q1647.48 36.0211 1645.02 38.4394 Q1642.6 40.8578 1641.66 44.0959 Q1640.76 47.3341 1640.76 50.9412 Z" fill="#000000" fill-rule="evenodd" fill-opacity="1" /><path clip-path="url(#clip080)" d="M1674.96 43.3991 Q1674.96 30.2006 1681.68 22.1257 Q1688.4 14.0098 1697.05 14.0098 Q1702.09 14.0098 1704.88 16.5921 Q1707.71 19.1335 1707.71 23.0684 Q1707.71 25.2409 1706.44 26.1836 Q1705.17 27.1264 1703.86 27.1264 Q1702.34 27.1264 1701.15 26.1016 Q1699.96 25.0769 1699.96 23.2324 Q1699.96 19.4614 1704.6 19.4614 Q1702.42 16.1003 1697.22 16.1003 Q1695.62 16.1003 1693.98 16.5921 Q1692.34 17.043 1690.21 18.6006 Q1688.08 20.1582 1686.44 22.6176 Q1684.8 25.0769 1683.65 29.7087 Q1682.5 34.3405 1682.5 40.3659 L1682.5 42.3744 Q1685.95 34.0536 1693 34.0946 Q1700.05 34.0946 1704.92 39.4642 Q1709.8 44.8337 1709.8 52.7857 Q1709.8 60.9425 1704.72 66.3531 Q1699.64 71.7637 1692.5 71.7637 Q1689.31 71.7637 1686.4 70.4111 Q1683.53 69.0994 1680.82 66.0662 Q1678.16 63.033 1676.56 57.2125 Q1674.96 51.392 1674.96 43.3991 M1682.67 50.9412 Q1682.67 59.18 1684.18 63.115 Q1684.43 63.7708 1684.96 64.6726 Q1685.54 65.5743 1686.48 66.763 Q1687.46 67.9107 1689.06 68.6895 Q1690.66 69.4273 1692.5 69.4273 Q1698.12 69.4273 1700.82 63.9757 Q1702.26 60.9425 1702.26 52.7037 Q1702.26 44.3009 1700.74 41.2267 Q1698.16 36.0211 1692.91 36.0211 Q1689.39 36.0211 1686.93 38.4394 Q1684.51 40.8578 1683.57 44.0959 Q1682.67 47.3341 1682.67 50.9412 Z" fill="#000000" fill-rule="evenodd" fill-opacity="1" /><path clip-path="url(#clip080)" d="M1716.87 43.3991 Q1716.87 30.2006 1723.59 22.1257 Q1730.31 14.0098 1738.96 14.0098 Q1744 14.0098 1746.79 16.5921 Q1749.62 19.1335 1749.62 23.0684 Q1749.62 25.2409 1748.35 26.1836 Q1747.08 27.1264 1745.76 27.1264 Q1744.25 27.1264 1743.06 26.1016 Q1741.87 25.0769 1741.87 23.2324 Q1741.87 19.4614 1746.5 19.4614 Q1744.33 16.1003 1739.12 16.1003 Q1737.52 16.1003 1735.89 16.5921 Q1734.25 17.043 1732.11 18.6006 Q1729.98 20.1582 1728.34 22.6176 Q1726.7 25.0769 1725.56 29.7087 Q1724.41 34.3405 1724.41 40.3659 L1724.41 42.3744 Q1727.85 34.0536 1734.9 34.0946 Q1741.95 34.0946 1746.83 39.4642 Q1751.71 44.8337 1751.71 52.7857 Q1751.71 60.9425 1746.62 66.3531 Q1741.54 71.7637 1734.41 71.7637 Q1731.21 71.7637 1728.3 70.4111 Q1725.43 69.0994 1722.73 66.0662 Q1720.06 63.033 1718.46 57.2125 Q1716.87 51.392 1716.87 43.3991 M1724.57 50.9412 Q1724.57 59.18 1726.09 63.115 Q1726.33 63.7708 1726.87 64.6726 Q1727.44 65.5743 1728.38 66.763 Q1729.37 67.9107 1730.97 68.6895 Q1732.57 69.4273 1734.41 69.4273 Q1740.03 69.4273 1742.73 63.9757 Q1744.17 60.9425 1744.17 52.7037 Q1744.17 44.3009 1742.65 41.2267 Q1740.07 36.0211 1734.82 36.0211 Q1731.29 36.0211 1728.84 38.4394 Q1726.42 40.8578 1725.47 44.0959 Q1724.57 47.3341 1724.57 50.9412 Z" fill="#000000" fill-rule="evenodd" fill-opacity="1" /><polyline clip-path="url(#clip083)" style="stroke:#009af9; stroke-linecap:butt; stroke-linejoin:round; stroke-width:12; stroke-opacity:1; fill:none" points="
  247.59,1447.87 318.067,1389.14 388.545,1330.42 459.022,1271.69 529.5,1212.96 599.978,1154.23 670.455,1095.51 740.933,1036.79 811.41,978.069 881.888,919.36 
  952.366,860.663 1022.84,801.99 1093.32,743.354 1163.8,684.782 1234.28,626.32 1304.75,568.04 1375.23,510.071 1445.71,452.626 1516.19,396.066 1586.66,341.003 
  1657.14,288.467 1727.62,240.202 1798.1,199.154 1868.57,170.299 1939.05,162.047 2009.53,188.607 2080.01,273.986 2150.49,458.751 2220.96,811.443 2291.44,1447.87 
  
  "/>
<line clip-path="url(#clip083)" x1="247.59" y1="1447.87" x2="247.59" y2="1431.87" style="stroke:#009af9; stroke-width:3.2; stroke-opacity:1"/>
<line clip-path="url(#clip083)" x1="247.59" y1="1447.87" x2="231.59" y2="1447.87" style="stroke:#009af9; stroke-width:3.2; stroke-opacity:1"/>
<line clip-path="url(#clip083)" x1="247.59" y1="1447.87" x2="247.59" y2="1463.87" style="stroke:#009af9; stroke-width:3.2; stroke-opacity:1"/>
<line clip-path="url(#clip083)" x1="247.59" y1="1447.87" x2="263.59" y2="1447.87" style="stroke:#009af9; stroke-width:3.2; stroke-opacity:1"/>
<line clip-path="url(#clip083)" x1="318.067" y1="1389.14" x2="318.067" y2="1373.14" style="stroke:#009af9; stroke-width:3.2; stroke-opacity:1"/>
<line clip-path="url(#clip083)" x1="318.067" y1="1389.14" x2="302.067" y2="1389.14" style="stroke:#009af9; stroke-width:3.2; stroke-opacity:1"/>
<line clip-path="url(#clip083)" x1="318.067" y1="1389.14" x2="318.067" y2="1405.14" style="stroke:#009af9; stroke-width:3.2; stroke-opacity:1"/>
<line clip-path="url(#clip083)" x1="318.067" y1="1389.14" x2="334.067" y2="1389.14" style="stroke:#009af9; stroke-width:3.2; stroke-opacity:1"/>
<line clip-path="url(#clip083)" x1="388.545" y1="1330.42" x2="388.545" y2="1314.42" style="stroke:#009af9; stroke-width:3.2; stroke-opacity:1"/>
<line clip-path="url(#clip083)" x1="388.545" y1="1330.42" x2="372.545" y2="1330.42" style="stroke:#009af9; stroke-width:3.2; stroke-opacity:1"/>
<line clip-path="url(#clip083)" x1="388.545" y1="1330.42" x2="388.545" y2="1346.42" style="stroke:#009af9; stroke-width:3.2; stroke-opacity:1"/>
<line clip-path="url(#clip083)" x1="388.545" y1="1330.42" x2="404.545" y2="1330.42" style="stroke:#009af9; stroke-width:3.2; stroke-opacity:1"/>
<line clip-path="url(#clip083)" x1="459.022" y1="1271.69" x2="459.022" y2="1255.69" style="stroke:#009af9; stroke-width:3.2; stroke-opacity:1"/>
<line clip-path="url(#clip083)" x1="459.022" y1="1271.69" x2="443.022" y2="1271.69" style="stroke:#009af9; stroke-width:3.2; stroke-opacity:1"/>
<line clip-path="url(#clip083)" x1="459.022" y1="1271.69" x2="459.022" y2="1287.69" style="stroke:#009af9; stroke-width:3.2; stroke-opacity:1"/>
<line clip-path="url(#clip083)" x1="459.022" y1="1271.69" x2="475.022" y2="1271.69" style="stroke:#009af9; stroke-width:3.2; stroke-opacity:1"/>
<line clip-path="url(#clip083)" x1="529.5" y1="1212.96" x2="529.5" y2="1196.96" style="stroke:#009af9; stroke-width:3.2; stroke-opacity:1"/>
<line clip-path="url(#clip083)" x1="529.5" y1="1212.96" x2="513.5" y2="1212.96" style="stroke:#009af9; stroke-width:3.2; stroke-opacity:1"/>
<line clip-path="url(#clip083)" x1="529.5" y1="1212.96" x2="529.5" y2="1228.96" style="stroke:#009af9; stroke-width:3.2; stroke-opacity:1"/>
<line clip-path="url(#clip083)" x1="529.5" y1="1212.96" x2="545.5" y2="1212.96" style="stroke:#009af9; stroke-width:3.2; stroke-opacity:1"/>
<line clip-path="url(#clip083)" x1="599.978" y1="1154.23" x2="599.978" y2="1138.23" style="stroke:#009af9; stroke-width:3.2; stroke-opacity:1"/>
<line clip-path="url(#clip083)" x1="599.978" y1="1154.23" x2="583.978" y2="1154.23" style="stroke:#009af9; stroke-width:3.2; stroke-opacity:1"/>
<line clip-path="url(#clip083)" x1="599.978" y1="1154.23" x2="599.978" y2="1170.23" style="stroke:#009af9; stroke-width:3.2; stroke-opacity:1"/>
<line clip-path="url(#clip083)" x1="599.978" y1="1154.23" x2="615.978" y2="1154.23" style="stroke:#009af9; stroke-width:3.2; stroke-opacity:1"/>
<line clip-path="url(#clip083)" x1="670.455" y1="1095.51" x2="670.455" y2="1079.51" style="stroke:#009af9; stroke-width:3.2; stroke-opacity:1"/>
<line clip-path="url(#clip083)" x1="670.455" y1="1095.51" x2="654.455" y2="1095.51" style="stroke:#009af9; stroke-width:3.2; stroke-opacity:1"/>
<line clip-path="url(#clip083)" x1="670.455" y1="1095.51" x2="670.455" y2="1111.51" style="stroke:#009af9; stroke-width:3.2; stroke-opacity:1"/>
<line clip-path="url(#clip083)" x1="670.455" y1="1095.51" x2="686.455" y2="1095.51" style="stroke:#009af9; stroke-width:3.2; stroke-opacity:1"/>
<line clip-path="url(#clip083)" x1="740.933" y1="1036.79" x2="740.933" y2="1020.79" style="stroke:#009af9; stroke-width:3.2; stroke-opacity:1"/>
<line clip-path="url(#clip083)" x1="740.933" y1="1036.79" x2="724.933" y2="1036.79" style="stroke:#009af9; stroke-width:3.2; stroke-opacity:1"/>
<line clip-path="url(#clip083)" x1="740.933" y1="1036.79" x2="740.933" y2="1052.79" style="stroke:#009af9; stroke-width:3.2; stroke-opacity:1"/>
<line clip-path="url(#clip083)" x1="740.933" y1="1036.79" x2="756.933" y2="1036.79" style="stroke:#009af9; stroke-width:3.2; stroke-opacity:1"/>
<line clip-path="url(#clip083)" x1="811.41" y1="978.069" x2="811.41" y2="962.069" style="stroke:#009af9; stroke-width:3.2; stroke-opacity:1"/>
<line clip-path="url(#clip083)" x1="811.41" y1="978.069" x2="795.41" y2="978.069" style="stroke:#009af9; stroke-width:3.2; stroke-opacity:1"/>
<line clip-path="url(#clip083)" x1="811.41" y1="978.069" x2="811.41" y2="994.069" style="stroke:#009af9; stroke-width:3.2; stroke-opacity:1"/>
<line clip-path="url(#clip083)" x1="811.41" y1="978.069" x2="827.41" y2="978.069" style="stroke:#009af9; stroke-width:3.2; stroke-opacity:1"/>
<line clip-path="url(#clip083)" x1="881.888" y1="919.36" x2="881.888" y2="903.36" style="stroke:#009af9; stroke-width:3.2; stroke-opacity:1"/>
<line clip-path="url(#clip083)" x1="881.888" y1="919.36" x2="865.888" y2="919.36" style="stroke:#009af9; stroke-width:3.2; stroke-opacity:1"/>
<line clip-path="url(#clip083)" x1="881.888" y1="919.36" x2="881.888" y2="935.36" style="stroke:#009af9; stroke-width:3.2; stroke-opacity:1"/>
<line clip-path="url(#clip083)" x1="881.888" y1="919.36" x2="897.888" y2="919.36" style="stroke:#009af9; stroke-width:3.2; stroke-opacity:1"/>
<line clip-path="url(#clip083)" x1="952.366" y1="860.663" x2="952.366" y2="844.663" style="stroke:#009af9; stroke-width:3.2; stroke-opacity:1"/>
<line clip-path="url(#clip083)" x1="952.366" y1="860.663" x2="936.366" y2="860.663" style="stroke:#009af9; stroke-width:3.2; stroke-opacity:1"/>
<line clip-path="url(#clip083)" x1="952.366" y1="860.663" x2="952.366" y2="876.663" style="stroke:#009af9; stroke-width:3.2; stroke-opacity:1"/>
<line clip-path="url(#clip083)" x1="952.366" y1="860.663" x2="968.366" y2="860.663" style="stroke:#009af9; stroke-width:3.2; stroke-opacity:1"/>
<line clip-path="url(#clip083)" x1="1022.84" y1="801.99" x2="1022.84" y2="785.99" style="stroke:#009af9; stroke-width:3.2; stroke-opacity:1"/>
<line clip-path="url(#clip083)" x1="1022.84" y1="801.99" x2="1006.84" y2="801.99" style="stroke:#009af9; stroke-width:3.2; stroke-opacity:1"/>
<line clip-path="url(#clip083)" x1="1022.84" y1="801.99" x2="1022.84" y2="817.99" style="stroke:#009af9; stroke-width:3.2; stroke-opacity:1"/>
<line clip-path="url(#clip083)" x1="1022.84" y1="801.99" x2="1038.84" y2="801.99" style="stroke:#009af9; stroke-width:3.2; stroke-opacity:1"/>
<line clip-path="url(#clip083)" x1="1093.32" y1="743.354" x2="1093.32" y2="727.354" style="stroke:#009af9; stroke-width:3.2; stroke-opacity:1"/>
<line clip-path="url(#clip083)" x1="1093.32" y1="743.354" x2="1077.32" y2="743.354" style="stroke:#009af9; stroke-width:3.2; stroke-opacity:1"/>
<line clip-path="url(#clip083)" x1="1093.32" y1="743.354" x2="1093.32" y2="759.354" style="stroke:#009af9; stroke-width:3.2; stroke-opacity:1"/>
<line clip-path="url(#clip083)" x1="1093.32" y1="743.354" x2="1109.32" y2="743.354" style="stroke:#009af9; stroke-width:3.2; stroke-opacity:1"/>
<line clip-path="url(#clip083)" x1="1163.8" y1="684.782" x2="1163.8" y2="668.782" style="stroke:#009af9; stroke-width:3.2; stroke-opacity:1"/>
<line clip-path="url(#clip083)" x1="1163.8" y1="684.782" x2="1147.8" y2="684.782" style="stroke:#009af9; stroke-width:3.2; stroke-opacity:1"/>
<line clip-path="url(#clip083)" x1="1163.8" y1="684.782" x2="1163.8" y2="700.782" style="stroke:#009af9; stroke-width:3.2; stroke-opacity:1"/>
<line clip-path="url(#clip083)" x1="1163.8" y1="684.782" x2="1179.8" y2="684.782" style="stroke:#009af9; stroke-width:3.2; stroke-opacity:1"/>
<line clip-path="url(#clip083)" x1="1234.28" y1="626.32" x2="1234.28" y2="610.32" style="stroke:#009af9; stroke-width:3.2; stroke-opacity:1"/>
<line clip-path="url(#clip083)" x1="1234.28" y1="626.32" x2="1218.28" y2="626.32" style="stroke:#009af9; stroke-width:3.2; stroke-opacity:1"/>
<line clip-path="url(#clip083)" x1="1234.28" y1="626.32" x2="1234.28" y2="642.32" style="stroke:#009af9; stroke-width:3.2; stroke-opacity:1"/>
<line clip-path="url(#clip083)" x1="1234.28" y1="626.32" x2="1250.28" y2="626.32" style="stroke:#009af9; stroke-width:3.2; stroke-opacity:1"/>
<line clip-path="url(#clip083)" x1="1304.75" y1="568.04" x2="1304.75" y2="552.04" style="stroke:#009af9; stroke-width:3.2; stroke-opacity:1"/>
<line clip-path="url(#clip083)" x1="1304.75" y1="568.04" x2="1288.75" y2="568.04" style="stroke:#009af9; stroke-width:3.2; stroke-opacity:1"/>
<line clip-path="url(#clip083)" x1="1304.75" y1="568.04" x2="1304.75" y2="584.04" style="stroke:#009af9; stroke-width:3.2; stroke-opacity:1"/>
<line clip-path="url(#clip083)" x1="1304.75" y1="568.04" x2="1320.75" y2="568.04" style="stroke:#009af9; stroke-width:3.2; stroke-opacity:1"/>
<line clip-path="url(#clip083)" x1="1375.23" y1="510.071" x2="1375.23" y2="494.071" style="stroke:#009af9; stroke-width:3.2; stroke-opacity:1"/>
<line clip-path="url(#clip083)" x1="1375.23" y1="510.071" x2="1359.23" y2="510.071" style="stroke:#009af9; stroke-width:3.2; stroke-opacity:1"/>
<line clip-path="url(#clip083)" x1="1375.23" y1="510.071" x2="1375.23" y2="526.071" style="stroke:#009af9; stroke-width:3.2; stroke-opacity:1"/>
<line clip-path="url(#clip083)" x1="1375.23" y1="510.071" x2="1391.23" y2="510.071" style="stroke:#009af9; stroke-width:3.2; stroke-opacity:1"/>
<line clip-path="url(#clip083)" x1="1445.71" y1="452.626" x2="1445.71" y2="436.626" style="stroke:#009af9; stroke-width:3.2; stroke-opacity:1"/>
<line clip-path="url(#clip083)" x1="1445.71" y1="452.626" x2="1429.71" y2="452.626" style="stroke:#009af9; stroke-width:3.2; stroke-opacity:1"/>
<line clip-path="url(#clip083)" x1="1445.71" y1="452.626" x2="1445.71" y2="468.626" style="stroke:#009af9; stroke-width:3.2; stroke-opacity:1"/>
<line clip-path="url(#clip083)" x1="1445.71" y1="452.626" x2="1461.71" y2="452.626" style="stroke:#009af9; stroke-width:3.2; stroke-opacity:1"/>
<line clip-path="url(#clip083)" x1="1516.19" y1="396.066" x2="1516.19" y2="380.066" style="stroke:#009af9; stroke-width:3.2; stroke-opacity:1"/>
<line clip-path="url(#clip083)" x1="1516.19" y1="396.066" x2="1500.19" y2="396.066" style="stroke:#009af9; stroke-width:3.2; stroke-opacity:1"/>
<line clip-path="url(#clip083)" x1="1516.19" y1="396.066" x2="1516.19" y2="412.066" style="stroke:#009af9; stroke-width:3.2; stroke-opacity:1"/>
<line clip-path="url(#clip083)" x1="1516.19" y1="396.066" x2="1532.19" y2="396.066" style="stroke:#009af9; stroke-width:3.2; stroke-opacity:1"/>
<line clip-path="url(#clip083)" x1="1586.66" y1="341.003" x2="1586.66" y2="325.003" style="stroke:#009af9; stroke-width:3.2; stroke-opacity:1"/>
<line clip-path="url(#clip083)" x1="1586.66" y1="341.003" x2="1570.66" y2="341.003" style="stroke:#009af9; stroke-width:3.2; stroke-opacity:1"/>
<line clip-path="url(#clip083)" x1="1586.66" y1="341.003" x2="1586.66" y2="357.003" style="stroke:#009af9; stroke-width:3.2; stroke-opacity:1"/>
<line clip-path="url(#clip083)" x1="1586.66" y1="341.003" x2="1602.66" y2="341.003" style="stroke:#009af9; stroke-width:3.2; stroke-opacity:1"/>
<line clip-path="url(#clip083)" x1="1657.14" y1="288.467" x2="1657.14" y2="272.467" style="stroke:#009af9; stroke-width:3.2; stroke-opacity:1"/>
<line clip-path="url(#clip083)" x1="1657.14" y1="288.467" x2="1641.14" y2="288.467" style="stroke:#009af9; stroke-width:3.2; stroke-opacity:1"/>
<line clip-path="url(#clip083)" x1="1657.14" y1="288.467" x2="1657.14" y2="304.467" style="stroke:#009af9; stroke-width:3.2; stroke-opacity:1"/>
<line clip-path="url(#clip083)" x1="1657.14" y1="288.467" x2="1673.14" y2="288.467" style="stroke:#009af9; stroke-width:3.2; stroke-opacity:1"/>
<line clip-path="url(#clip083)" x1="1727.62" y1="240.202" x2="1727.62" y2="224.202" style="stroke:#009af9; stroke-width:3.2; stroke-opacity:1"/>
<line clip-path="url(#clip083)" x1="1727.62" y1="240.202" x2="1711.62" y2="240.202" style="stroke:#009af9; stroke-width:3.2; stroke-opacity:1"/>
<line clip-path="url(#clip083)" x1="1727.62" y1="240.202" x2="1727.62" y2="256.202" style="stroke:#009af9; stroke-width:3.2; stroke-opacity:1"/>
<line clip-path="url(#clip083)" x1="1727.62" y1="240.202" x2="1743.62" y2="240.202" style="stroke:#009af9; stroke-width:3.2; stroke-opacity:1"/>
<line clip-path="url(#clip083)" x1="1798.1" y1="199.154" x2="1798.1" y2="183.154" style="stroke:#009af9; stroke-width:3.2; stroke-opacity:1"/>
<line clip-path="url(#clip083)" x1="1798.1" y1="199.154" x2="1782.1" y2="199.154" style="stroke:#009af9; stroke-width:3.2; stroke-opacity:1"/>
<line clip-path="url(#clip083)" x1="1798.1" y1="199.154" x2="1798.1" y2="215.154" style="stroke:#009af9; stroke-width:3.2; stroke-opacity:1"/>
<line clip-path="url(#clip083)" x1="1798.1" y1="199.154" x2="1814.1" y2="199.154" style="stroke:#009af9; stroke-width:3.2; stroke-opacity:1"/>
<line clip-path="url(#clip083)" x1="1868.57" y1="170.299" x2="1868.57" y2="154.299" style="stroke:#009af9; stroke-width:3.2; stroke-opacity:1"/>
<line clip-path="url(#clip083)" x1="1868.57" y1="170.299" x2="1852.57" y2="170.299" style="stroke:#009af9; stroke-width:3.2; stroke-opacity:1"/>
<line clip-path="url(#clip083)" x1="1868.57" y1="170.299" x2="1868.57" y2="186.299" style="stroke:#009af9; stroke-width:3.2; stroke-opacity:1"/>
<line clip-path="url(#clip083)" x1="1868.57" y1="170.299" x2="1884.57" y2="170.299" style="stroke:#009af9; stroke-width:3.2; stroke-opacity:1"/>
<line clip-path="url(#clip083)" x1="1939.05" y1="162.047" x2="1939.05" y2="146.047" style="stroke:#009af9; stroke-width:3.2; stroke-opacity:1"/>
<line clip-path="url(#clip083)" x1="1939.05" y1="162.047" x2="1923.05" y2="162.047" style="stroke:#009af9; stroke-width:3.2; stroke-opacity:1"/>
<line clip-path="url(#clip083)" x1="1939.05" y1="162.047" x2="1939.05" y2="178.047" style="stroke:#009af9; stroke-width:3.2; stroke-opacity:1"/>
<line clip-path="url(#clip083)" x1="1939.05" y1="162.047" x2="1955.05" y2="162.047" style="stroke:#009af9; stroke-width:3.2; stroke-opacity:1"/>
<line clip-path="url(#clip083)" x1="2009.53" y1="188.607" x2="2009.53" y2="172.607" style="stroke:#009af9; stroke-width:3.2; stroke-opacity:1"/>
<line clip-path="url(#clip083)" x1="2009.53" y1="188.607" x2="1993.53" y2="188.607" style="stroke:#009af9; stroke-width:3.2; stroke-opacity:1"/>
<line clip-path="url(#clip083)" x1="2009.53" y1="188.607" x2="2009.53" y2="204.607" style="stroke:#009af9; stroke-width:3.2; stroke-opacity:1"/>
<line clip-path="url(#clip083)" x1="2009.53" y1="188.607" x2="2025.53" y2="188.607" style="stroke:#009af9; stroke-width:3.2; stroke-opacity:1"/>
<line clip-path="url(#clip083)" x1="2080.01" y1="273.986" x2="2080.01" y2="257.986" style="stroke:#009af9; stroke-width:3.2; stroke-opacity:1"/>
<line clip-path="url(#clip083)" x1="2080.01" y1="273.986" x2="2064.01" y2="273.986" style="stroke:#009af9; stroke-width:3.2; stroke-opacity:1"/>
<line clip-path="url(#clip083)" x1="2080.01" y1="273.986" x2="2080.01" y2="289.986" style="stroke:#009af9; stroke-width:3.2; stroke-opacity:1"/>
<line clip-path="url(#clip083)" x1="2080.01" y1="273.986" x2="2096.01" y2="273.986" style="stroke:#009af9; stroke-width:3.2; stroke-opacity:1"/>
<line clip-path="url(#clip083)" x1="2150.49" y1="458.751" x2="2150.49" y2="442.751" style="stroke:#009af9; stroke-width:3.2; stroke-opacity:1"/>
<line clip-path="url(#clip083)" x1="2150.49" y1="458.751" x2="2134.49" y2="458.751" style="stroke:#009af9; stroke-width:3.2; stroke-opacity:1"/>
<line clip-path="url(#clip083)" x1="2150.49" y1="458.751" x2="2150.49" y2="474.751" style="stroke:#009af9; stroke-width:3.2; stroke-opacity:1"/>
<line clip-path="url(#clip083)" x1="2150.49" y1="458.751" x2="2166.49" y2="458.751" style="stroke:#009af9; stroke-width:3.2; stroke-opacity:1"/>
<line clip-path="url(#clip083)" x1="2220.96" y1="811.443" x2="2220.96" y2="795.443" style="stroke:#009af9; stroke-width:3.2; stroke-opacity:1"/>
<line clip-path="url(#clip083)" x1="2220.96" y1="811.443" x2="2204.96" y2="811.443" style="stroke:#009af9; stroke-width:3.2; stroke-opacity:1"/>
<line clip-path="url(#clip083)" x1="2220.96" y1="811.443" x2="2220.96" y2="827.443" style="stroke:#009af9; stroke-width:3.2; stroke-opacity:1"/>
<line clip-path="url(#clip083)" x1="2220.96" y1="811.443" x2="2236.96" y2="811.443" style="stroke:#009af9; stroke-width:3.2; stroke-opacity:1"/>
<line clip-path="url(#clip083)" x1="2291.44" y1="1447.87" x2="2291.44" y2="1431.87" style="stroke:#009af9; stroke-width:3.2; stroke-opacity:1"/>
<line clip-path="url(#clip083)" x1="2291.44" y1="1447.87" x2="2275.44" y2="1447.87" style="stroke:#009af9; stroke-width:3.2; stroke-opacity:1"/>
<line clip-path="url(#clip083)" x1="2291.44" y1="1447.87" x2="2291.44" y2="1463.87" style="stroke:#009af9; stroke-width:3.2; stroke-opacity:1"/>
<line clip-path="url(#clip083)" x1="2291.44" y1="1447.87" x2="2307.44" y2="1447.87" style="stroke:#009af9; stroke-width:3.2; stroke-opacity:1"/>
</svg>
