<?xml version="1.0" encoding="utf-8"?>
<svg xmlns="http://www.w3.org/2000/svg" xmlns:xlink="http://www.w3.org/1999/xlink" width="600" height="400" viewBox="0 0 2400 1600">
<defs>
  <clipPath id="clip540">
    <rect x="0" y="0" width="2400" height="1600"/>
  </clipPath>
</defs>
<path clip-path="url(#clip540)" d="
M0 1600 L2400 1600 L2400 0 L0 0  Z
  " fill="#ffffff" fill-rule="evenodd" fill-opacity="1"/>
<defs>
  <clipPath id="clip541">
    <rect x="480" y="0" width="1681" height="1600"/>
  </clipPath>
</defs>
<path clip-path="url(#clip540)" d="
M193.936 1486.45 L2112.76 1486.45 L2112.76 47.2441 L193.936 47.2441  Z
  " fill="#ffffff" fill-rule="evenodd" fill-opacity="1"/>
<defs>
  <clipPath id="clip542">
    <rect x="193" y="47" width="1920" height="1440"/>
  </clipPath>
</defs>
<polyline clip-path="url(#clip542)" style="stroke:#000000; stroke-linecap:butt; stroke-linejoin:round; stroke-width:2; stroke-opacity:0.1; fill:none" points="
  248.242,1486.45 248.242,47.2441 
  "/>
<polyline clip-path="url(#clip542)" style="stroke:#000000; stroke-linecap:butt; stroke-linejoin:round; stroke-width:2; stroke-opacity:0.1; fill:none" points="
  700.794,1486.45 700.794,47.2441 
  "/>
<polyline clip-path="url(#clip542)" style="stroke:#000000; stroke-linecap:butt; stroke-linejoin:round; stroke-width:2; stroke-opacity:0.1; fill:none" points="
  1153.35,1486.45 1153.35,47.2441 
  "/>
<polyline clip-path="url(#clip542)" style="stroke:#000000; stroke-linecap:butt; stroke-linejoin:round; stroke-width:2; stroke-opacity:0.1; fill:none" points="
  1605.9,1486.45 1605.9,47.2441 
  "/>
<polyline clip-path="url(#clip542)" style="stroke:#000000; stroke-linecap:butt; stroke-linejoin:round; stroke-width:2; stroke-opacity:0.1; fill:none" points="
  2058.45,1486.45 2058.45,47.2441 
  "/>
<polyline clip-path="url(#clip540)" style="stroke:#000000; stroke-linecap:butt; stroke-linejoin:round; stroke-width:4; stroke-opacity:1; fill:none" points="
  193.936,1486.45 2112.76,1486.45 
  "/>
<polyline clip-path="url(#clip540)" style="stroke:#000000; stroke-linecap:butt; stroke-linejoin:round; stroke-width:4; stroke-opacity:1; fill:none" points="
  248.242,1486.45 248.242,1467.55 
  "/>
<polyline clip-path="url(#clip540)" style="stroke:#000000; stroke-linecap:butt; stroke-linejoin:round; stroke-width:4; stroke-opacity:1; fill:none" points="
  700.794,1486.45 700.794,1467.55 
  "/>
<polyline clip-path="url(#clip540)" style="stroke:#000000; stroke-linecap:butt; stroke-linejoin:round; stroke-width:4; stroke-opacity:1; fill:none" points="
  1153.35,1486.45 1153.35,1467.55 
  "/>
<polyline clip-path="url(#clip540)" style="stroke:#000000; stroke-linecap:butt; stroke-linejoin:round; stroke-width:4; stroke-opacity:1; fill:none" points="
  1605.9,1486.45 1605.9,1467.55 
  "/>
<polyline clip-path="url(#clip540)" style="stroke:#000000; stroke-linecap:butt; stroke-linejoin:round; stroke-width:4; stroke-opacity:1; fill:none" points="
  2058.45,1486.45 2058.45,1467.55 
  "/>
<path clip-path="url(#clip540)" d="M194.77 1532.02 L224.446 1532.02 L224.446 1535.95 L194.77 1535.95 L194.77 1532.02 Z" fill="#000000" fill-rule="evenodd" fill-opacity="1" /><path clip-path="url(#clip540)" d="M235.349 1544.91 L242.988 1544.91 L242.988 1518.55 L234.677 1520.21 L234.677 1515.95 L242.941 1514.29 L247.617 1514.29 L247.617 1544.91 L255.256 1544.91 L255.256 1548.85 L235.349 1548.85 L235.349 1544.91 Z" fill="#000000" fill-rule="evenodd" fill-opacity="1" /><path clip-path="url(#clip540)" d="M264.7 1542.97 L269.585 1542.97 L269.585 1548.85 L264.7 1548.85 L264.7 1542.97 Z" fill="#000000" fill-rule="evenodd" fill-opacity="1" /><path clip-path="url(#clip540)" d="M289.77 1517.37 Q286.159 1517.37 284.33 1520.93 Q282.524 1524.47 282.524 1531.6 Q282.524 1538.71 284.33 1542.27 Q286.159 1545.82 289.77 1545.82 Q293.404 1545.82 295.21 1542.27 Q297.038 1538.71 297.038 1531.6 Q297.038 1524.47 295.21 1520.93 Q293.404 1517.37 289.77 1517.37 M289.77 1513.66 Q295.58 1513.66 298.635 1518.27 Q301.714 1522.85 301.714 1531.6 Q301.714 1540.33 298.635 1544.94 Q295.58 1549.52 289.77 1549.52 Q283.96 1549.52 280.881 1544.94 Q277.825 1540.33 277.825 1531.6 Q277.825 1522.85 280.881 1518.27 Q283.96 1513.66 289.77 1513.66 Z" fill="#000000" fill-rule="evenodd" fill-opacity="1" /><path clip-path="url(#clip540)" d="M647.82 1532.02 L677.496 1532.02 L677.496 1535.95 L647.82 1535.95 L647.82 1532.02 Z" fill="#000000" fill-rule="evenodd" fill-opacity="1" /><path clip-path="url(#clip540)" d="M697.588 1517.37 Q693.977 1517.37 692.148 1520.93 Q690.343 1524.47 690.343 1531.6 Q690.343 1538.71 692.148 1542.27 Q693.977 1545.82 697.588 1545.82 Q701.222 1545.82 703.028 1542.27 Q704.857 1538.71 704.857 1531.6 Q704.857 1524.47 703.028 1520.93 Q701.222 1517.37 697.588 1517.37 M697.588 1513.66 Q703.398 1513.66 706.454 1518.27 Q709.532 1522.85 709.532 1531.6 Q709.532 1540.33 706.454 1544.94 Q703.398 1549.52 697.588 1549.52 Q691.778 1549.52 688.699 1544.94 Q685.644 1540.33 685.644 1531.6 Q685.644 1522.85 688.699 1518.27 Q691.778 1513.66 697.588 1513.66 Z" fill="#000000" fill-rule="evenodd" fill-opacity="1" /><path clip-path="url(#clip540)" d="M717.75 1542.97 L722.634 1542.97 L722.634 1548.85 L717.75 1548.85 L717.75 1542.97 Z" fill="#000000" fill-rule="evenodd" fill-opacity="1" /><path clip-path="url(#clip540)" d="M732.866 1514.29 L751.222 1514.29 L751.222 1518.22 L737.148 1518.22 L737.148 1526.7 Q738.167 1526.35 739.185 1526.19 Q740.204 1526 741.222 1526 Q747.009 1526 750.389 1529.17 Q753.768 1532.34 753.768 1537.76 Q753.768 1543.34 750.296 1546.44 Q746.824 1549.52 740.505 1549.52 Q738.329 1549.52 736.06 1549.15 Q733.815 1548.78 731.407 1548.04 L731.407 1543.34 Q733.491 1544.47 735.713 1545.03 Q737.935 1545.58 740.412 1545.58 Q744.417 1545.58 746.754 1543.48 Q749.092 1541.37 749.092 1537.76 Q749.092 1534.15 746.754 1532.04 Q744.417 1529.94 740.412 1529.94 Q738.537 1529.94 736.662 1530.35 Q734.81 1530.77 732.866 1531.65 L732.866 1514.29 Z" fill="#000000" fill-rule="evenodd" fill-opacity="1" /><path clip-path="url(#clip540)" d="M1130.73 1517.37 Q1127.12 1517.37 1125.29 1520.93 Q1123.49 1524.47 1123.49 1531.6 Q1123.49 1538.71 1125.29 1542.27 Q1127.12 1545.82 1130.73 1545.82 Q1134.36 1545.82 1136.17 1542.27 Q1138 1538.71 1138 1531.6 Q1138 1524.47 1136.17 1520.93 Q1134.36 1517.37 1130.73 1517.37 M1130.73 1513.66 Q1136.54 1513.66 1139.6 1518.27 Q1142.67 1522.85 1142.67 1531.6 Q1142.67 1540.33 1139.6 1544.94 Q1136.54 1549.52 1130.73 1549.52 Q1124.92 1549.52 1121.84 1544.94 Q1118.79 1540.33 1118.79 1531.6 Q1118.79 1522.85 1121.84 1518.27 Q1124.92 1513.66 1130.73 1513.66 Z" fill="#000000" fill-rule="evenodd" fill-opacity="1" /><path clip-path="url(#clip540)" d="M1150.89 1542.97 L1155.78 1542.97 L1155.78 1548.85 L1150.89 1548.85 L1150.89 1542.97 Z" fill="#000000" fill-rule="evenodd" fill-opacity="1" /><path clip-path="url(#clip540)" d="M1175.96 1517.37 Q1172.35 1517.37 1170.52 1520.93 Q1168.72 1524.47 1168.72 1531.6 Q1168.72 1538.71 1170.52 1542.27 Q1172.35 1545.82 1175.96 1545.82 Q1179.6 1545.82 1181.4 1542.27 Q1183.23 1538.71 1183.23 1531.6 Q1183.23 1524.47 1181.4 1520.93 Q1179.6 1517.37 1175.96 1517.37 M1175.96 1513.66 Q1181.77 1513.66 1184.83 1518.27 Q1187.91 1522.85 1187.91 1531.6 Q1187.91 1540.33 1184.83 1544.94 Q1181.77 1549.52 1175.96 1549.52 Q1170.15 1549.52 1167.07 1544.94 Q1164.02 1540.33 1164.02 1531.6 Q1164.02 1522.85 1167.07 1518.27 Q1170.15 1513.66 1175.96 1513.66 Z" fill="#000000" fill-rule="evenodd" fill-opacity="1" /><path clip-path="url(#clip540)" d="M1583.78 1517.37 Q1580.17 1517.37 1578.34 1520.93 Q1576.53 1524.47 1576.53 1531.6 Q1576.53 1538.71 1578.34 1542.27 Q1580.17 1545.82 1583.78 1545.82 Q1587.41 1545.82 1589.22 1542.27 Q1591.05 1538.71 1591.05 1531.6 Q1591.05 1524.47 1589.22 1520.93 Q1587.41 1517.37 1583.78 1517.37 M1583.78 1513.66 Q1589.59 1513.66 1592.65 1518.27 Q1595.72 1522.85 1595.72 1531.6 Q1595.72 1540.33 1592.65 1544.94 Q1589.59 1549.52 1583.78 1549.52 Q1577.97 1549.52 1574.89 1544.94 Q1571.84 1540.33 1571.84 1531.6 Q1571.84 1522.85 1574.89 1518.27 Q1577.97 1513.66 1583.78 1513.66 Z" fill="#000000" fill-rule="evenodd" fill-opacity="1" /><path clip-path="url(#clip540)" d="M1603.94 1542.97 L1608.83 1542.97 L1608.83 1548.85 L1603.94 1548.85 L1603.94 1542.97 Z" fill="#000000" fill-rule="evenodd" fill-opacity="1" /><path clip-path="url(#clip540)" d="M1619.06 1514.29 L1637.41 1514.29 L1637.41 1518.22 L1623.34 1518.22 L1623.34 1526.7 Q1624.36 1526.35 1625.38 1526.19 Q1626.4 1526 1627.41 1526 Q1633.2 1526 1636.58 1529.17 Q1639.96 1532.34 1639.96 1537.76 Q1639.96 1543.34 1636.49 1546.44 Q1633.02 1549.52 1626.7 1549.52 Q1624.52 1549.52 1622.25 1549.15 Q1620.01 1548.78 1617.6 1548.04 L1617.6 1543.34 Q1619.68 1544.47 1621.9 1545.03 Q1624.13 1545.58 1626.6 1545.58 Q1630.61 1545.58 1632.95 1543.48 Q1635.28 1541.37 1635.28 1537.76 Q1635.28 1534.15 1632.95 1532.04 Q1630.61 1529.94 1626.6 1529.94 Q1624.73 1529.94 1622.85 1530.35 Q1621 1530.77 1619.06 1531.65 L1619.06 1514.29 Z" fill="#000000" fill-rule="evenodd" fill-opacity="1" /><path clip-path="url(#clip540)" d="M2025.6 1544.91 L2033.24 1544.91 L2033.24 1518.55 L2024.93 1520.21 L2024.93 1515.95 L2033.2 1514.29 L2037.87 1514.29 L2037.87 1544.91 L2045.51 1544.91 L2045.51 1548.85 L2025.6 1548.85 L2025.6 1544.91 Z" fill="#000000" fill-rule="evenodd" fill-opacity="1" /><path clip-path="url(#clip540)" d="M2054.95 1542.97 L2059.84 1542.97 L2059.84 1548.85 L2054.95 1548.85 L2054.95 1542.97 Z" fill="#000000" fill-rule="evenodd" fill-opacity="1" /><path clip-path="url(#clip540)" d="M2080.02 1517.37 Q2076.41 1517.37 2074.58 1520.93 Q2072.78 1524.47 2072.78 1531.6 Q2072.78 1538.71 2074.58 1542.27 Q2076.41 1545.82 2080.02 1545.82 Q2083.66 1545.82 2085.46 1542.27 Q2087.29 1538.71 2087.29 1531.6 Q2087.29 1524.47 2085.46 1520.93 Q2083.66 1517.37 2080.02 1517.37 M2080.02 1513.66 Q2085.83 1513.66 2088.89 1518.27 Q2091.97 1522.85 2091.97 1531.6 Q2091.97 1540.33 2088.89 1544.94 Q2085.83 1549.52 2080.02 1549.52 Q2074.21 1549.52 2071.13 1544.94 Q2068.08 1540.33 2068.08 1531.6 Q2068.08 1522.85 2071.13 1518.27 Q2074.21 1513.66 2080.02 1513.66 Z" fill="#000000" fill-rule="evenodd" fill-opacity="1" /><polyline clip-path="url(#clip542)" style="stroke:#000000; stroke-linecap:butt; stroke-linejoin:round; stroke-width:2; stroke-opacity:0.1; fill:none" points="
  193.936,1445.72 2112.76,1445.72 
  "/>
<polyline clip-path="url(#clip542)" style="stroke:#000000; stroke-linecap:butt; stroke-linejoin:round; stroke-width:2; stroke-opacity:0.1; fill:none" points="
  193.936,1106.28 2112.76,1106.28 
  "/>
<polyline clip-path="url(#clip542)" style="stroke:#000000; stroke-linecap:butt; stroke-linejoin:round; stroke-width:2; stroke-opacity:0.1; fill:none" points="
  193.936,766.846 2112.76,766.846 
  "/>
<polyline clip-path="url(#clip542)" style="stroke:#000000; stroke-linecap:butt; stroke-linejoin:round; stroke-width:2; stroke-opacity:0.1; fill:none" points="
  193.936,427.411 2112.76,427.411 
  "/>
<polyline clip-path="url(#clip542)" style="stroke:#000000; stroke-linecap:butt; stroke-linejoin:round; stroke-width:2; stroke-opacity:0.1; fill:none" points="
  193.936,87.9763 2112.76,87.9763 
  "/>
<polyline clip-path="url(#clip540)" style="stroke:#000000; stroke-linecap:butt; stroke-linejoin:round; stroke-width:4; stroke-opacity:1; fill:none" points="
  193.936,1486.45 193.936,47.2441 
  "/>
<polyline clip-path="url(#clip540)" style="stroke:#000000; stroke-linecap:butt; stroke-linejoin:round; stroke-width:4; stroke-opacity:1; fill:none" points="
  193.936,1445.72 210.733,1445.72 
  "/>
<polyline clip-path="url(#clip540)" style="stroke:#000000; stroke-linecap:butt; stroke-linejoin:round; stroke-width:4; stroke-opacity:1; fill:none" points="
  193.936,1106.28 210.733,1106.28 
  "/>
<polyline clip-path="url(#clip540)" style="stroke:#000000; stroke-linecap:butt; stroke-linejoin:round; stroke-width:4; stroke-opacity:1; fill:none" points="
  193.936,766.846 210.733,766.846 
  "/>
<polyline clip-path="url(#clip540)" style="stroke:#000000; stroke-linecap:butt; stroke-linejoin:round; stroke-width:4; stroke-opacity:1; fill:none" points="
  193.936,427.411 210.733,427.411 
  "/>
<polyline clip-path="url(#clip540)" style="stroke:#000000; stroke-linecap:butt; stroke-linejoin:round; stroke-width:4; stroke-opacity:1; fill:none" points="
  193.936,87.9763 210.733,87.9763 
  "/>
<path clip-path="url(#clip540)" d="M50.9921 1446.17 L80.6679 1446.17 L80.6679 1450.1 L50.9921 1450.1 L50.9921 1446.17 Z" fill="#000000" fill-rule="evenodd" fill-opacity="1" /><path clip-path="url(#clip540)" d="M91.5706 1459.06 L99.2095 1459.06 L99.2095 1432.69 L90.8993 1434.36 L90.8993 1430.1 L99.1632 1428.44 L103.839 1428.44 L103.839 1459.06 L111.478 1459.06 L111.478 1463 L91.5706 1463 L91.5706 1459.06 Z" fill="#000000" fill-rule="evenodd" fill-opacity="1" /><path clip-path="url(#clip540)" d="M120.922 1457.12 L125.807 1457.12 L125.807 1463 L120.922 1463 L120.922 1457.12 Z" fill="#000000" fill-rule="evenodd" fill-opacity="1" /><path clip-path="url(#clip540)" d="M145.992 1431.51 Q142.381 1431.51 140.552 1435.08 Q138.746 1438.62 138.746 1445.75 Q138.746 1452.86 140.552 1456.42 Q142.381 1459.96 145.992 1459.96 Q149.626 1459.96 151.431 1456.42 Q153.26 1452.86 153.26 1445.75 Q153.26 1438.62 151.431 1435.08 Q149.626 1431.51 145.992 1431.51 M145.992 1427.81 Q151.802 1427.81 154.857 1432.42 Q157.936 1437 157.936 1445.75 Q157.936 1454.48 154.857 1459.08 Q151.802 1463.67 145.992 1463.67 Q140.181 1463.67 137.103 1459.08 Q134.047 1454.48 134.047 1445.75 Q134.047 1437 137.103 1432.42 Q140.181 1427.81 145.992 1427.81 Z" fill="#000000" fill-rule="evenodd" fill-opacity="1" /><path clip-path="url(#clip540)" d="M51.9875 1106.73 L81.6633 1106.73 L81.6633 1110.67 L51.9875 1110.67 L51.9875 1106.73 Z" fill="#000000" fill-rule="evenodd" fill-opacity="1" /><path clip-path="url(#clip540)" d="M101.756 1092.08 Q98.1447 1092.08 96.316 1095.64 Q94.5104 1099.19 94.5104 1106.32 Q94.5104 1113.42 96.316 1116.99 Q98.1447 1120.53 101.756 1120.53 Q105.39 1120.53 107.196 1116.99 Q109.024 1113.42 109.024 1106.32 Q109.024 1099.19 107.196 1095.64 Q105.39 1092.08 101.756 1092.08 M101.756 1088.38 Q107.566 1088.38 110.621 1092.98 Q113.7 1097.57 113.7 1106.32 Q113.7 1115.04 110.621 1119.65 Q107.566 1124.23 101.756 1124.23 Q95.9456 1124.23 92.8669 1119.65 Q89.8114 1115.04 89.8114 1106.32 Q89.8114 1097.57 92.8669 1092.98 Q95.9456 1088.38 101.756 1088.38 Z" fill="#000000" fill-rule="evenodd" fill-opacity="1" /><path clip-path="url(#clip540)" d="M121.918 1117.68 L126.802 1117.68 L126.802 1123.56 L121.918 1123.56 L121.918 1117.68 Z" fill="#000000" fill-rule="evenodd" fill-opacity="1" /><path clip-path="url(#clip540)" d="M137.033 1089 L155.39 1089 L155.39 1092.94 L141.316 1092.94 L141.316 1101.41 Q142.334 1101.06 143.353 1100.9 Q144.371 1100.71 145.39 1100.71 Q151.177 1100.71 154.556 1103.89 Q157.936 1107.06 157.936 1112.47 Q157.936 1118.05 154.464 1121.15 Q150.992 1124.23 144.672 1124.23 Q142.496 1124.23 140.228 1123.86 Q137.982 1123.49 135.575 1122.75 L135.575 1118.05 Q137.658 1119.19 139.881 1119.74 Q142.103 1120.3 144.58 1120.3 Q148.584 1120.3 150.922 1118.19 Q153.26 1116.08 153.26 1112.47 Q153.26 1108.86 150.922 1106.76 Q148.584 1104.65 144.58 1104.65 Q142.705 1104.65 140.83 1105.07 Q138.978 1105.48 137.033 1106.36 L137.033 1089 Z" fill="#000000" fill-rule="evenodd" fill-opacity="1" /><path clip-path="url(#clip540)" d="M100.76 752.645 Q97.1493 752.645 95.3206 756.209 Q93.515 759.751 93.515 766.881 Q93.515 773.987 95.3206 777.552 Q97.1493 781.094 100.76 781.094 Q104.395 781.094 106.2 777.552 Q108.029 773.987 108.029 766.881 Q108.029 759.751 106.2 756.209 Q104.395 752.645 100.76 752.645 M100.76 748.941 Q106.571 748.941 109.626 753.547 Q112.705 758.131 112.705 766.881 Q112.705 775.608 109.626 780.214 Q106.571 784.797 100.76 784.797 Q94.9502 784.797 91.8715 780.214 Q88.816 775.608 88.816 766.881 Q88.816 758.131 91.8715 753.547 Q94.9502 748.941 100.76 748.941 Z" fill="#000000" fill-rule="evenodd" fill-opacity="1" /><path clip-path="url(#clip540)" d="M120.922 778.246 L125.807 778.246 L125.807 784.126 L120.922 784.126 L120.922 778.246 Z" fill="#000000" fill-rule="evenodd" fill-opacity="1" /><path clip-path="url(#clip540)" d="M145.992 752.645 Q142.381 752.645 140.552 756.209 Q138.746 759.751 138.746 766.881 Q138.746 773.987 140.552 777.552 Q142.381 781.094 145.992 781.094 Q149.626 781.094 151.431 777.552 Q153.26 773.987 153.26 766.881 Q153.26 759.751 151.431 756.209 Q149.626 752.645 145.992 752.645 M145.992 748.941 Q151.802 748.941 154.857 753.547 Q157.936 758.131 157.936 766.881 Q157.936 775.608 154.857 780.214 Q151.802 784.797 145.992 784.797 Q140.181 784.797 137.103 780.214 Q134.047 775.608 134.047 766.881 Q134.047 758.131 137.103 753.547 Q140.181 748.941 145.992 748.941 Z" fill="#000000" fill-rule="evenodd" fill-opacity="1" /><path clip-path="url(#clip540)" d="M101.756 413.21 Q98.1447 413.21 96.316 416.775 Q94.5104 420.316 94.5104 427.446 Q94.5104 434.552 96.316 438.117 Q98.1447 441.659 101.756 441.659 Q105.39 441.659 107.196 438.117 Q109.024 434.552 109.024 427.446 Q109.024 420.316 107.196 416.775 Q105.39 413.21 101.756 413.21 M101.756 409.506 Q107.566 409.506 110.621 414.113 Q113.7 418.696 113.7 427.446 Q113.7 436.173 110.621 440.779 Q107.566 445.362 101.756 445.362 Q95.9456 445.362 92.8669 440.779 Q89.8114 436.173 89.8114 427.446 Q89.8114 418.696 92.8669 414.113 Q95.9456 409.506 101.756 409.506 Z" fill="#000000" fill-rule="evenodd" fill-opacity="1" /><path clip-path="url(#clip540)" d="M121.918 438.812 L126.802 438.812 L126.802 444.691 L121.918 444.691 L121.918 438.812 Z" fill="#000000" fill-rule="evenodd" fill-opacity="1" /><path clip-path="url(#clip540)" d="M137.033 410.131 L155.39 410.131 L155.39 414.066 L141.316 414.066 L141.316 422.538 Q142.334 422.191 143.353 422.029 Q144.371 421.844 145.39 421.844 Q151.177 421.844 154.556 425.015 Q157.936 428.187 157.936 433.603 Q157.936 439.182 154.464 442.284 Q150.992 445.362 144.672 445.362 Q142.496 445.362 140.228 444.992 Q137.982 444.622 135.575 443.881 L135.575 439.182 Q137.658 440.316 139.881 440.872 Q142.103 441.427 144.58 441.427 Q148.584 441.427 150.922 439.321 Q153.26 437.214 153.26 433.603 Q153.26 429.992 150.922 427.886 Q148.584 425.779 144.58 425.779 Q142.705 425.779 140.83 426.196 Q138.978 426.613 137.033 427.492 L137.033 410.131 Z" fill="#000000" fill-rule="evenodd" fill-opacity="1" /><path clip-path="url(#clip540)" d="M91.5706 101.321 L99.2095 101.321 L99.2095 74.9555 L90.8993 76.6222 L90.8993 72.3629 L99.1632 70.6963 L103.839 70.6963 L103.839 101.321 L111.478 101.321 L111.478 105.256 L91.5706 105.256 L91.5706 101.321 Z" fill="#000000" fill-rule="evenodd" fill-opacity="1" /><path clip-path="url(#clip540)" d="M120.922 99.3767 L125.807 99.3767 L125.807 105.256 L120.922 105.256 L120.922 99.3767 Z" fill="#000000" fill-rule="evenodd" fill-opacity="1" /><path clip-path="url(#clip540)" d="M145.992 73.775 Q142.381 73.775 140.552 77.3398 Q138.746 80.8814 138.746 88.011 Q138.746 95.1174 140.552 98.6822 Q142.381 102.224 145.992 102.224 Q149.626 102.224 151.431 98.6822 Q153.26 95.1174 153.26 88.011 Q153.26 80.8814 151.431 77.3398 Q149.626 73.775 145.992 73.775 M145.992 70.0713 Q151.802 70.0713 154.857 74.6777 Q157.936 79.261 157.936 88.011 Q157.936 96.7378 154.857 101.344 Q151.802 105.928 145.992 105.928 Q140.181 105.928 137.103 101.344 Q134.047 96.7378 134.047 88.011 Q134.047 79.261 137.103 74.6777 Q140.181 70.0713 145.992 70.0713 Z" fill="#000000" fill-rule="evenodd" fill-opacity="1" /><polyline clip-path="url(#clip542)" style="stroke:#009af9; stroke-linecap:butt; stroke-linejoin:round; stroke-width:12; stroke-opacity:1; fill:none" points="
  1967.94,155.863 1316.26,1377.83 1576.93,449.135 1238.06,1084.56 1373.61,601.636 1197.4,932.056 1267.88,680.937 1176.25,852.755 1212.91,722.173 1165.26,811.519 
  1184.32,743.616 1159.54,790.076 1169.45,754.766 1156.57,778.925 1161.72,760.565 1155.02,773.127 1157.7,763.58 1154.22,770.112 1155.61,765.148 1153.8,768.544 
  1154.52,765.963 1153.58,767.729 1153.96,766.387 1153.47,767.305 1153.66,766.607 1153.41,767.085 1153.51,766.722 1153.38,766.97 1153.43,766.781 1153.36,766.911 
  1153.39,766.812 1153.35,766.88 1153.37,766.829 1153.35,766.863 1153.36,766.837 1153.35,766.855 1153.35,766.841 1153.35,766.851 1153.35,766.844 1153.35,766.848 
  1153.35,766.845 1153.35,766.847 1153.35,766.845 
  "/>
<circle clip-path="url(#clip542)" cx="1967.94" cy="155.863" r="14.4" fill="#009af9" fill-rule="evenodd" fill-opacity="1" stroke="#000000" stroke-opacity="1" stroke-width="3.2"/>
<circle clip-path="url(#clip542)" cx="1316.26" cy="1377.83" r="14.4" fill="#009af9" fill-rule="evenodd" fill-opacity="1" stroke="#000000" stroke-opacity="1" stroke-width="3.2"/>
<circle clip-path="url(#clip542)" cx="1576.93" cy="449.135" r="14.4" fill="#009af9" fill-rule="evenodd" fill-opacity="1" stroke="#000000" stroke-opacity="1" stroke-width="3.2"/>
<circle clip-path="url(#clip542)" cx="1238.06" cy="1084.56" r="14.4" fill="#009af9" fill-rule="evenodd" fill-opacity="1" stroke="#000000" stroke-opacity="1" stroke-width="3.2"/>
<circle clip-path="url(#clip542)" cx="1373.61" cy="601.636" r="14.4" fill="#009af9" fill-rule="evenodd" fill-opacity="1" stroke="#000000" stroke-opacity="1" stroke-width="3.2"/>
<circle clip-path="url(#clip542)" cx="1197.4" cy="932.056" r="14.4" fill="#009af9" fill-rule="evenodd" fill-opacity="1" stroke="#000000" stroke-opacity="1" stroke-width="3.2"/>
<circle clip-path="url(#clip542)" cx="1267.88" cy="680.937" r="14.4" fill="#009af9" fill-rule="evenodd" fill-opacity="1" stroke="#000000" stroke-opacity="1" stroke-width="3.2"/>
<circle clip-path="url(#clip542)" cx="1176.25" cy="852.755" r="14.4" fill="#009af9" fill-rule="evenodd" fill-opacity="1" stroke="#000000" stroke-opacity="1" stroke-width="3.2"/>
<circle clip-path="url(#clip542)" cx="1212.91" cy="722.173" r="14.4" fill="#009af9" fill-rule="evenodd" fill-opacity="1" stroke="#000000" stroke-opacity="1" stroke-width="3.2"/>
<circle clip-path="url(#clip542)" cx="1165.26" cy="811.519" r="14.4" fill="#009af9" fill-rule="evenodd" fill-opacity="1" stroke="#000000" stroke-opacity="1" stroke-width="3.2"/>
<circle clip-path="url(#clip542)" cx="1184.32" cy="743.616" r="14.4" fill="#009af9" fill-rule="evenodd" fill-opacity="1" stroke="#000000" stroke-opacity="1" stroke-width="3.2"/>
<circle clip-path="url(#clip542)" cx="1159.54" cy="790.076" r="14.4" fill="#009af9" fill-rule="evenodd" fill-opacity="1" stroke="#000000" stroke-opacity="1" stroke-width="3.2"/>
<circle clip-path="url(#clip542)" cx="1169.45" cy="754.766" r="14.4" fill="#009af9" fill-rule="evenodd" fill-opacity="1" stroke="#000000" stroke-opacity="1" stroke-width="3.2"/>
<circle clip-path="url(#clip542)" cx="1156.57" cy="778.925" r="14.4" fill="#009af9" fill-rule="evenodd" fill-opacity="1" stroke="#000000" stroke-opacity="1" stroke-width="3.2"/>
<circle clip-path="url(#clip542)" cx="1161.72" cy="760.565" r="14.4" fill="#009af9" fill-rule="evenodd" fill-opacity="1" stroke="#000000" stroke-opacity="1" stroke-width="3.2"/>
<circle clip-path="url(#clip542)" cx="1155.02" cy="773.127" r="14.4" fill="#009af9" fill-rule="evenodd" fill-opacity="1" stroke="#000000" stroke-opacity="1" stroke-width="3.2"/>
<circle clip-path="url(#clip542)" cx="1157.7" cy="763.58" r="14.4" fill="#009af9" fill-rule="evenodd" fill-opacity="1" stroke="#000000" stroke-opacity="1" stroke-width="3.2"/>
<circle clip-path="url(#clip542)" cx="1154.22" cy="770.112" r="14.4" fill="#009af9" fill-rule="evenodd" fill-opacity="1" stroke="#000000" stroke-opacity="1" stroke-width="3.2"/>
<circle clip-path="url(#clip542)" cx="1155.61" cy="765.148" r="14.4" fill="#009af9" fill-rule="evenodd" fill-opacity="1" stroke="#000000" stroke-opacity="1" stroke-width="3.2"/>
<circle clip-path="url(#clip542)" cx="1153.8" cy="768.544" r="14.4" fill="#009af9" fill-rule="evenodd" fill-opacity="1" stroke="#000000" stroke-opacity="1" stroke-width="3.2"/>
<circle clip-path="url(#clip542)" cx="1154.52" cy="765.963" r="14.4" fill="#009af9" fill-rule="evenodd" fill-opacity="1" stroke="#000000" stroke-opacity="1" stroke-width="3.2"/>
<circle clip-path="url(#clip542)" cx="1153.58" cy="767.729" r="14.4" fill="#009af9" fill-rule="evenodd" fill-opacity="1" stroke="#000000" stroke-opacity="1" stroke-width="3.2"/>
<circle clip-path="url(#clip542)" cx="1153.96" cy="766.387" r="14.4" fill="#009af9" fill-rule="evenodd" fill-opacity="1" stroke="#000000" stroke-opacity="1" stroke-width="3.2"/>
<circle clip-path="url(#clip542)" cx="1153.47" cy="767.305" r="14.4" fill="#009af9" fill-rule="evenodd" fill-opacity="1" stroke="#000000" stroke-opacity="1" stroke-width="3.2"/>
<circle clip-path="url(#clip542)" cx="1153.66" cy="766.607" r="14.4" fill="#009af9" fill-rule="evenodd" fill-opacity="1" stroke="#000000" stroke-opacity="1" stroke-width="3.2"/>
<circle clip-path="url(#clip542)" cx="1153.41" cy="767.085" r="14.4" fill="#009af9" fill-rule="evenodd" fill-opacity="1" stroke="#000000" stroke-opacity="1" stroke-width="3.2"/>
<circle clip-path="url(#clip542)" cx="1153.51" cy="766.722" r="14.4" fill="#009af9" fill-rule="evenodd" fill-opacity="1" stroke="#000000" stroke-opacity="1" stroke-width="3.2"/>
<circle clip-path="url(#clip542)" cx="1153.38" cy="766.97" r="14.4" fill="#009af9" fill-rule="evenodd" fill-opacity="1" stroke="#000000" stroke-opacity="1" stroke-width="3.2"/>
<circle clip-path="url(#clip542)" cx="1153.43" cy="766.781" r="14.4" fill="#009af9" fill-rule="evenodd" fill-opacity="1" stroke="#000000" stroke-opacity="1" stroke-width="3.2"/>
<circle clip-path="url(#clip542)" cx="1153.36" cy="766.911" r="14.4" fill="#009af9" fill-rule="evenodd" fill-opacity="1" stroke="#000000" stroke-opacity="1" stroke-width="3.2"/>
<circle clip-path="url(#clip542)" cx="1153.39" cy="766.812" r="14.4" fill="#009af9" fill-rule="evenodd" fill-opacity="1" stroke="#000000" stroke-opacity="1" stroke-width="3.2"/>
<circle clip-path="url(#clip542)" cx="1153.35" cy="766.88" r="14.4" fill="#009af9" fill-rule="evenodd" fill-opacity="1" stroke="#000000" stroke-opacity="1" stroke-width="3.2"/>
<circle clip-path="url(#clip542)" cx="1153.37" cy="766.829" r="14.4" fill="#009af9" fill-rule="evenodd" fill-opacity="1" stroke="#000000" stroke-opacity="1" stroke-width="3.2"/>
<circle clip-path="url(#clip542)" cx="1153.35" cy="766.863" r="14.4" fill="#009af9" fill-rule="evenodd" fill-opacity="1" stroke="#000000" stroke-opacity="1" stroke-width="3.2"/>
<circle clip-path="url(#clip542)" cx="1153.36" cy="766.837" r="14.4" fill="#009af9" fill-rule="evenodd" fill-opacity="1" stroke="#000000" stroke-opacity="1" stroke-width="3.2"/>
<circle clip-path="url(#clip542)" cx="1153.35" cy="766.855" r="14.4" fill="#009af9" fill-rule="evenodd" fill-opacity="1" stroke="#000000" stroke-opacity="1" stroke-width="3.2"/>
<circle clip-path="url(#clip542)" cx="1153.35" cy="766.841" r="14.4" fill="#009af9" fill-rule="evenodd" fill-opacity="1" stroke="#000000" stroke-opacity="1" stroke-width="3.2"/>
<circle clip-path="url(#clip542)" cx="1153.35" cy="766.851" r="14.4" fill="#009af9" fill-rule="evenodd" fill-opacity="1" stroke="#000000" stroke-opacity="1" stroke-width="3.2"/>
<circle clip-path="url(#clip542)" cx="1153.35" cy="766.844" r="14.4" fill="#009af9" fill-rule="evenodd" fill-opacity="1" stroke="#000000" stroke-opacity="1" stroke-width="3.2"/>
<circle clip-path="url(#clip542)" cx="1153.35" cy="766.848" r="14.4" fill="#009af9" fill-rule="evenodd" fill-opacity="1" stroke="#000000" stroke-opacity="1" stroke-width="3.2"/>
<circle clip-path="url(#clip542)" cx="1153.35" cy="766.845" r="14.4" fill="#009af9" fill-rule="evenodd" fill-opacity="1" stroke="#000000" stroke-opacity="1" stroke-width="3.2"/>
<circle clip-path="url(#clip542)" cx="1153.35" cy="766.847" r="14.4" fill="#009af9" fill-rule="evenodd" fill-opacity="1" stroke="#000000" stroke-opacity="1" stroke-width="3.2"/>
<circle clip-path="url(#clip542)" cx="1153.35" cy="766.845" r="14.4" fill="#009af9" fill-rule="evenodd" fill-opacity="1" stroke="#000000" stroke-opacity="1" stroke-width="3.2"/>
<polyline clip-path="url(#clip542)" style="stroke:#f1e864; stroke-linecap:butt; stroke-linejoin:round; stroke-width:12; stroke-opacity:1; fill:none" points="
  248.242,1415.19 310.663,1433.95 350.315,1445.72 
  "/>
<polyline clip-path="url(#clip542)" style="stroke:#f8c931; stroke-linecap:butt; stroke-linejoin:round; stroke-width:12; stroke-opacity:1; fill:none" points="
  248.242,1383.8 296.902,1398.9 310.663,1402.98 373.084,1421.15 435.505,1439.17 458.607,1445.72 
  "/>
<polyline clip-path="url(#clip542)" style="stroke:#fbaa0e; stroke-linecap:butt; stroke-linejoin:round; stroke-width:12; stroke-opacity:1; fill:none" points="
  574.707,1445.72 560.347,1441.85 497.926,1424.66 435.505,1407.29 405.901,1398.9 373.084,1389.17 310.663,1370.37 250.377,1352.08 248.242,1351.4 
  "/>
<polyline clip-path="url(#clip542)" style="stroke:#f98c09; stroke-linecap:butt; stroke-linejoin:round; stroke-width:12; stroke-opacity:1; fill:none" points="
  248.242,1316.96 310.663,1336.57 360.539,1352.08 373.084,1355.8 435.505,1373.92 497.926,1391.87 522.828,1398.9 560.347,1408.99 622.768,1425.48 685.189,1441.75 
  700.794,1445.72 
  "/>
<polyline clip-path="url(#clip542)" style="stroke:#f0701e; stroke-linecap:butt; stroke-linejoin:round; stroke-width:12; stroke-opacity:1; fill:none" points="
  839.941,1445.72 810.031,1438.6 747.61,1423.36 685.189,1407.86 649.896,1398.9 622.768,1391.67 560.347,1374.66 497.926,1357.44 478.918,1352.08 435.505,1339.22 
  373.084,1320.47 323.004,1305.26 310.663,1301.32 248.242,1280.98 
  "/>
<polyline clip-path="url(#clip542)" style="stroke:#e35832; stroke-linecap:butt; stroke-linejoin:round; stroke-width:12; stroke-opacity:1; fill:none" points="
  248.242,1243.14 293.625,1258.44 310.663,1263.89 373.084,1283.46 435.505,1302.89 443.308,1305.26 497.926,1321.02 560.347,1338.8 607.707,1352.08 622.768,1356.09 
  685.189,1372.29 747.61,1388.24 790.224,1398.9 810.031,1403.61 872.452,1418 934.873,1432.09 996.625,1445.72 
  "/>
<polyline clip-path="url(#clip542)" style="stroke:#d04544; stroke-linecap:butt; stroke-linejoin:round; stroke-width:12; stroke-opacity:1; fill:none" points="
  1181.46,1445.72 1122.14,1434.3 1059.71,1421.87 997.294,1409.08 949.177,1398.9 934.873,1395.71 872.452,1381.26 810.031,1366.51 750.246,1352.08 747.61,1351.41 
  685.189,1334.97 622.768,1318.29 574.905,1305.26 560.347,1301.08 497.926,1282.68 435.505,1264.11 416.865,1258.44 373.084,1244.37 310.663,1224.07 272.895,1211.62 
  248.242,1203.02 
  "/>
<polyline clip-path="url(#clip542)" style="stroke:#ba3655; stroke-linecap:butt; stroke-linejoin:round; stroke-width:12; stroke-opacity:1; fill:none" points="
  248.242,1160.02 261.42,1164.8 310.663,1181.59 373.084,1202.69 399.94,1211.62 435.505,1222.76 497.926,1241.99 551.973,1258.44 560.347,1260.85 622.768,1278.28 
  685.189,1295.49 721.46,1305.26 747.61,1311.92 810.031,1327.36 872.452,1342.49 913.12,1352.08 934.873,1356.93 997.294,1370.33 1059.71,1383.36 1122.14,1396 
  1137.16,1398.9 1184.56,1407.54 1246.98,1418.44 1309.4,1428.87 1371.82,1438.8 1417.89,1445.72 
  "/>
<polyline clip-path="url(#clip542)" style="stroke:#a12b61; stroke-linecap:butt; stroke-linejoin:round; stroke-width:12; stroke-opacity:1; fill:none" points="
  1830.5,1445.72 1808.77,1444.46 1746.34,1439.96 1683.92,1434.66 1621.5,1428.61 1559.08,1421.86 1496.66,1414.46 1434.24,1406.43 1379.83,1398.9 1371.82,1397.72 
  1309.4,1387.81 1246.98,1377.37 1184.56,1366.43 1122.14,1355 1106.96,1352.08 1059.71,1342.41 997.294,1329.16 934.873,1315.52 889.441,1305.26 872.452,1301.19 
  810.031,1285.66 747.61,1269.83 703.804,1258.44 685.189,1253.3 622.768,1235.54 560.347,1217.56 540.24,1211.62 497.926,1198.31 435.505,1178.39 393.542,1164.8 
  373.084,1157.74 310.663,1135.77 260.491,1117.99 248.242,1113.34 
  "/>
<polyline clip-path="url(#clip542)" style="stroke:#88216a; stroke-linecap:butt; stroke-linejoin:round; stroke-width:12; stroke-opacity:1; fill:none" points="
  248.242,1061.82 271.65,1071.17 310.663,1085.62 373.084,1108.52 399.293,1117.99 435.505,1130.16 497.926,1150.83 540.735,1164.8 560.347,1170.79 622.768,1189.33 
  685.189,1207.65 699.139,1211.62 747.61,1224.52 810.031,1240.76 872.452,1256.67 879.716,1258.44 934.873,1271.07 997.294,1284.93 1059.71,1298.38 1093.11,1305.26 
  1122.14,1310.87 1184.56,1322.32 1246.98,1333.26 1309.4,1343.65 1363.2,1352.08 1371.82,1353.35 1434.24,1361.75 1496.66,1369.51 1559.08,1376.58 1621.5,1382.92 
  1683.92,1388.47 1746.34,1393.18 1808.77,1396.99 1850.9,1398.9 1871.19,1399.75 1933.61,1401.39 1996.03,1402 2058.45,1401.51 
  "/>
<polyline clip-path="url(#clip542)" style="stroke:#6e186e; stroke-linecap:butt; stroke-linejoin:round; stroke-width:12; stroke-opacity:1; fill:none" points="
  2058.45,1343.47 1996.03,1345.76 1933.61,1346.6 1871.19,1346.11 1808.77,1344.39 1746.34,1341.55 1683.92,1337.67 1621.5,1332.82 1559.08,1327.08 1496.66,1320.51 
  1434.24,1313.16 1373.12,1305.26 1371.82,1305.08 1309.4,1295.49 1246.98,1285.26 1184.56,1274.42 1122.14,1263.01 1098.56,1258.44 1059.71,1250.37 997.294,1236.79 
  934.873,1222.76 887.045,1211.62 872.452,1207.97 810.031,1191.7 747.61,1175.1 709.981,1164.8 685.189,1157.51 622.768,1138.61 560.347,1119.5 555.554,1117.99 
  497.926,1098.34 435.505,1076.91 419.162,1071.17 373.084,1053.65 310.663,1029.77 296.759,1024.35 248.242,1003.78 
  "/>
<polyline clip-path="url(#clip542)" style="stroke:#550f6d; stroke-linecap:butt; stroke-linejoin:round; stroke-width:12; stroke-opacity:1; fill:none" points="
  248.242,936.659 310.663,964.635 339.644,977.53 373.084,991.035 435.505,1015.99 456.785,1024.35 497.926,1039.11 560.347,1061.21 589.04,1071.17 622.768,1081.91 
  685.189,1101.34 739.538,1117.99 747.61,1120.27 810.031,1137.18 872.452,1153.74 915.522,1164.8 934.873,1169.4 997.294,1183.5 1059.71,1197.11 1122.14,1210.18 
  1129.53,1211.62 1184.56,1221.55 1246.98,1232.14 1309.4,1242.05 1371.82,1251.23 1425.84,1258.44 1434.24,1259.48 1496.66,1266.19 1559.08,1272.02 1621.5,1276.88 
  1683.92,1280.7 1746.34,1283.38 1808.77,1284.82 1871.19,1284.91 1933.61,1283.52 1996.03,1280.51 2058.45,1275.7 
  "/>
<polyline clip-path="url(#clip542)" style="stroke:#3b0964; stroke-linecap:butt; stroke-linejoin:round; stroke-width:12; stroke-opacity:1; fill:none" points="
  2058.45,1190.73 1996.03,1201.02 1933.61,1208.45 1893.81,1211.62 1871.19,1213.11 1808.77,1215.44 1746.34,1216.08 1683.92,1215.2 1621.5,1212.93 1598.88,1211.62 
  1559.08,1209.09 1496.66,1203.8 1434.24,1197.36 1371.82,1189.88 1309.4,1181.44 1246.98,1172.14 1201.98,1164.8 1184.56,1161.69 1122.14,1149.54 1059.71,1136.72 
  997.294,1123.29 974.072,1117.99 934.873,1108.19 872.452,1091.92 810.031,1075.23 795.518,1071.17 747.61,1056.44 685.189,1036.84 646.32,1024.35 622.768,1015.98 
  560.347,993.252 517.702,977.53 497.926,969.414 435.505,943.32 405.679,930.711 373.084,915.244 310.663,885.556 307.235,883.892 248.242,851.445 
  "/>
<polyline clip-path="url(#clip542)" style="stroke:#1f0c47; stroke-linecap:butt; stroke-linejoin:round; stroke-width:12; stroke-opacity:1; fill:none" points="
  248.242,716.405 276.274,743.437 310.663,769.23 338.695,790.255 373.084,811.359 414.987,837.074 435.505,847.728 497.926,879.938 505.729,883.892 560.347,907.71 
  613.093,930.711 622.768,934.414 685.189,957.482 739.807,977.53 747.61,980.069 810.031,999.447 872.452,1018.5 892.574,1024.35 934.873,1035.31 997.294,1050.74 
  1059.71,1065.54 1085.2,1071.17 1122.14,1078.46 1184.56,1089.79 1246.98,1100.21 1309.4,1109.61 1371.82,1117.87 1372.93,1117.99 1434.24,1123.84 1496.66,1128.48 
  1559.08,1131.64 1621.5,1133.15 1683.92,1132.8 1746.34,1130.34 1808.77,1125.47 1870.07,1117.99 1871.19,1117.81 1933.61,1104.2 1996.03,1085.49 2032.96,1071.17 
  2058.45,1056.07 
  "/>
<polyline clip-path="url(#clip542)" style="stroke:#1f0c47; stroke-linecap:butt; stroke-linejoin:round; stroke-width:12; stroke-opacity:1; fill:none" points="
  2058.45,817.287 2030.42,790.255 1996.03,764.462 1968,743.437 1933.61,722.333 1891.7,696.618 1871.19,685.964 1808.77,653.754 1800.96,649.799 1746.34,625.982 
  1693.6,602.981 1683.92,599.278 1621.5,576.21 1566.88,556.162 1559.08,553.623 1496.66,534.245 1434.24,515.196 1414.12,509.344 1371.82,498.384 1309.4,482.953 
  1246.98,468.148 1221.49,462.525 1184.56,455.235 1122.14,443.904 1059.71,433.484 997.294,424.083 934.873,415.826 933.758,415.706 872.452,409.854 810.031,405.216 
  747.61,402.051 685.189,400.538 622.768,400.889 560.347,403.352 497.926,408.221 436.62,415.706 435.505,415.884 373.084,429.488 310.663,448.197 273.731,462.525 
  248.242,477.618 
  "/>
<polyline clip-path="url(#clip542)" style="stroke:#3b0964; stroke-linecap:butt; stroke-linejoin:round; stroke-width:12; stroke-opacity:1; fill:none" points="
  248.242,342.961 310.663,332.668 373.084,325.244 412.877,322.069 435.505,320.581 497.926,318.25 560.347,317.608 622.768,318.493 685.189,320.764 707.816,322.069 
  747.61,324.599 810.031,329.888 872.452,336.329 934.873,343.813 997.294,352.248 1059.71,361.551 1104.71,368.888 1122.14,372 1184.56,384.149 1246.98,396.97 
  1309.4,410.405 1332.62,415.706 1371.82,425.507 1434.24,441.772 1496.66,458.463 1511.17,462.525 1559.08,477.252 1621.5,496.849 1660.37,509.344 1683.92,517.711 
  1746.34,540.44 1788.99,556.162 1808.77,564.278 1871.19,590.372 1901.01,602.981 1933.61,618.448 1996.03,648.136 1999.46,649.799 2058.45,682.247 
  "/>
<polyline clip-path="url(#clip542)" style="stroke:#550f6d; stroke-linecap:butt; stroke-linejoin:round; stroke-width:12; stroke-opacity:1; fill:none" points="
  2058.45,597.033 1996.03,569.057 1967.05,556.162 1933.61,542.657 1871.19,517.704 1849.91,509.344 1808.77,494.586 1746.34,472.483 1717.65,462.525 1683.92,451.782 
  1621.5,432.357 1567.15,415.706 1559.08,413.426 1496.66,396.511 1434.24,379.951 1391.17,368.888 1371.82,364.295 1309.4,350.191 1246.98,336.583 1184.56,323.512 
  1177.16,322.069 1122.14,312.143 1059.71,301.548 997.294,291.637 934.873,282.466 880.855,275.251 872.452,274.214 810.031,267.498 747.61,261.673 685.189,256.812 
  622.768,252.995 560.347,250.315 497.926,248.872 435.505,248.78 373.084,250.169 310.663,253.185 248.242,257.991 
  "/>
<polyline clip-path="url(#clip542)" style="stroke:#6e186e; stroke-linecap:butt; stroke-linejoin:round; stroke-width:12; stroke-opacity:1; fill:none" points="
  248.242,190.217 310.663,187.932 373.084,187.095 435.505,187.586 497.926,189.3 560.347,192.14 622.768,196.022 685.189,200.868 747.61,206.609 810.031,213.182 
  872.452,220.528 933.572,228.432 934.873,228.613 997.294,238.198 1059.71,248.433 1122.14,259.275 1184.56,270.681 1208.13,275.251 1246.98,283.324 1309.4,296.904 
  1371.82,310.936 1419.65,322.069 1434.24,325.718 1496.66,341.988 1559.08,358.595 1596.71,368.888 1621.5,376.185 1683.92,395.079 1746.34,414.191 1751.14,415.706 
  1808.77,435.354 1871.19,456.784 1887.53,462.525 1933.61,480.042 1996.03,503.921 2009.93,509.344 2058.45,529.912 
  "/>
<polyline clip-path="url(#clip542)" style="stroke:#88216a; stroke-linecap:butt; stroke-linejoin:round; stroke-width:12; stroke-opacity:1; fill:none" points="
  2058.45,471.874 2035.04,462.525 1996.03,448.071 1933.61,425.171 1907.4,415.706 1871.19,403.531 1808.77,382.865 1765.96,368.888 1746.34,362.907 1683.92,344.361 
  1621.5,326.038 1607.55,322.069 1559.08,309.169 1496.66,292.936 1434.24,277.026 1426.98,275.251 1371.82,262.622 1309.4,248.758 1246.98,235.313 1213.58,228.432 
  1184.56,222.821 1122.14,211.368 1059.71,200.429 997.294,190.038 943.497,181.613 934.873,180.346 872.452,171.942 810.031,164.182 747.61,157.111 685.189,150.774 
  622.768,145.221 560.347,140.51 497.926,136.699 455.792,134.795 435.505,133.94 373.084,132.306 310.663,131.697 248.242,132.186 
  "/>
<polyline clip-path="url(#clip542)" style="stroke:#a12b61; stroke-linecap:butt; stroke-linejoin:round; stroke-width:12; stroke-opacity:1; fill:none" points="
  476.19,87.9763 497.926,89.2303 560.347,93.7342 622.768,99.0341 685.189,105.081 747.61,111.829 810.031,119.237 872.452,127.266 926.865,134.795 934.873,135.971 
  997.294,145.879 1059.71,156.321 1122.14,167.267 1184.56,178.687 1199.73,181.613 1246.98,191.279 1309.4,204.53 1371.82,218.176 1417.25,228.432 1434.24,232.505 
  1496.66,248.029 1559.08,263.865 1602.89,275.251 1621.5,280.395 1683.92,298.147 1746.34,316.128 1766.45,322.069 1808.77,335.379 1871.19,355.304 1913.15,368.888 
  1933.61,375.957 1996.03,397.924 2046.2,415.706 2058.45,420.354 
  "/>
<polyline clip-path="url(#clip542)" style="stroke:#ba3655; stroke-linecap:butt; stroke-linejoin:round; stroke-width:12; stroke-opacity:1; fill:none" points="
  2058.45,373.67 2045.27,368.888 1996.03,352.099 1933.61,330.999 1906.75,322.069 1871.19,310.933 1808.77,291.707 1754.72,275.251 1746.34,272.844 1683.92,255.409 
  1621.5,238.205 1585.23,228.432 1559.08,221.774 1496.66,206.335 1434.24,191.2 1393.57,181.613 1371.82,176.763 1309.4,163.359 1246.98,150.328 1184.56,137.693 
  1169.53,134.795 1122.14,126.148 1059.71,115.251 997.294,104.822 934.873,94.8876 888.8,87.9763 
  "/>
<polyline clip-path="url(#clip542)" style="stroke:#d04544; stroke-linecap:butt; stroke-linejoin:round; stroke-width:12; stroke-opacity:1; fill:none" points="
  1125.23,87.9763 1184.56,99.3961 1246.98,111.818 1309.4,124.616 1357.51,134.795 1371.82,137.985 1434.24,152.43 1496.66,167.186 1556.45,181.613 1559.08,182.285 
  1621.5,198.722 1683.92,215.407 1731.79,228.432 1746.34,232.616 1808.77,251.009 1871.19,269.583 1889.83,275.251 1933.61,289.324 1996.03,309.626 2033.8,322.069 
  2058.45,330.674 
  "/>
<polyline clip-path="url(#clip542)" style="stroke:#e35832; stroke-linecap:butt; stroke-linejoin:round; stroke-width:12; stroke-opacity:1; fill:none" points="
  2058.45,290.553 2013.07,275.251 1996.03,269.805 1933.61,250.236 1871.19,230.805 1863.38,228.432 1808.77,212.676 1746.34,194.896 1698.98,181.613 1683.92,177.599 
  1621.5,161.401 1559.08,145.449 1516.47,134.795 1496.66,130.084 1434.24,115.69 1371.82,101.599 1310.07,87.9763 
  "/>
<polyline clip-path="url(#clip542)" style="stroke:#f0701e; stroke-linecap:butt; stroke-linejoin:round; stroke-width:12; stroke-opacity:1; fill:none" points="
  1466.75,87.9763 1496.66,95.0895 1559.08,110.332 1621.5,125.832 1656.8,134.795 1683.92,142.026 1746.34,159.037 1808.77,176.253 1827.77,181.613 1871.19,194.474 
  1933.61,213.221 1983.69,228.432 1996.03,232.376 2058.45,252.717 
  "/>
<polyline clip-path="url(#clip542)" style="stroke:#f98c09; stroke-linecap:butt; stroke-linejoin:round; stroke-width:12; stroke-opacity:1; fill:none" points="
  2058.45,216.727 1996.03,197.125 1946.15,181.613 1933.61,177.893 1871.19,159.771 1808.77,141.818 1783.86,134.795 1746.34,124.698 1683.92,108.21 1621.5,91.9393 
  1605.9,87.9763 
  "/>
<polyline clip-path="url(#clip542)" style="stroke:#fbaa0e; stroke-linecap:butt; stroke-linejoin:round; stroke-width:12; stroke-opacity:1; fill:none" points="
  1731.98,87.9763 1746.34,91.8406 1808.77,109.031 1871.19,126.407 1900.79,134.795 1933.61,144.526 1996.03,163.319 2056.32,181.613 2058.45,182.292 
  "/>
<polyline clip-path="url(#clip542)" style="stroke:#f8c931; stroke-linecap:butt; stroke-linejoin:round; stroke-width:12; stroke-opacity:1; fill:none" points="
  2058.45,149.888 2009.79,134.795 
  "/>
<polyline clip-path="url(#clip542)" style="stroke:#f8c931; stroke-linecap:butt; stroke-linejoin:round; stroke-width:12; stroke-opacity:1; fill:none" points="
  1996.03,130.711 1933.61,112.539 1871.19,94.5222 1848.08,87.9763 
  "/>
<polyline clip-path="url(#clip542)" style="stroke:#f1e864; stroke-linecap:butt; stroke-linejoin:round; stroke-width:12; stroke-opacity:1; fill:none" points="
  1956.38,87.9763 1996.03,99.7441 
  "/>
<polyline clip-path="url(#clip542)" style="stroke:#f1e864; stroke-linecap:butt; stroke-linejoin:round; stroke-width:12; stroke-opacity:1; fill:none" points="
  2058.45,118.504 1996.03,99.7441 
  "/>
<polyline clip-path="url(#clip542)" style="stroke:#090621; stroke-linecap:butt; stroke-linejoin:round; stroke-width:12; stroke-opacity:1; fill:none" points="
  1400.69,602.981 1434.24,614.42 1496.66,636.506 1533.15,649.799 1559.08,661.201 1621.5,689.161 1637.72,696.618 1683.92,722.954 1719.86,743.437 1746.34,763.304 
  1782.28,790.255 1808.77,819.292 1824.99,837.074 1845.25,883.892 1837.64,930.711 1808.77,960.239 1785.71,977.53 1746.34,992.997 1683.92,1009.97 1621.5,1020.49 
  1578.59,1024.35 1559.08,1025.6 1496.66,1026.8 1434.24,1025.47 1414.73,1024.35 1371.82,1021.42 1309.4,1014.9 1246.98,1006.55 1184.56,996.662 1122.14,985.452 
  1082.77,977.53 1059.71,972.095 997.294,955.939 934.873,939.039 906.003,930.711 872.452,919.272 810.031,897.186 773.542,883.892 747.61,872.491 685.189,844.531 
  668.968,837.074 622.768,810.738 586.835,790.255 560.347,770.388 524.414,743.437 497.926,714.4 481.705,696.618 461.437,649.799 469.056,602.981 497.926,573.453 
  520.979,556.162 560.347,540.695 622.768,523.72 685.189,513.206 728.103,509.344 747.61,508.09 810.031,506.892 872.452,508.218 891.958,509.344 934.873,512.27 
  997.294,518.791 1059.71,527.138 1122.14,537.03 1184.56,548.24 1223.92,556.162 1246.98,561.597 1309.4,577.753 1371.82,594.653 1400.69,602.981 
  "/>
<defs>
  <clipPath id="clip543">
    <rect x="2160" y="47" width="73" height="1440"/>
  </clipPath>
</defs>
<polyline clip-path="url(#clip543)" style="stroke:#0a0723; stroke-linecap:butt; stroke-linejoin:round; stroke-width:12; stroke-opacity:1; fill:none" points="
  2160.76,1396.5 2232.76,1396.5 
  "/>
<polyline clip-path="url(#clip543)" style="stroke:#200c4a; stroke-linecap:butt; stroke-linejoin:round; stroke-width:12; stroke-opacity:1; fill:none" points="
  2160.76,1306.55 2232.76,1306.55 
  "/>
<polyline clip-path="url(#clip543)" style="stroke:#3c0965; stroke-linecap:butt; stroke-linejoin:round; stroke-width:12; stroke-opacity:1; fill:none" points="
  2160.76,1216.6 2232.76,1216.6 
  "/>
<polyline clip-path="url(#clip543)" style="stroke:#570f6d; stroke-linecap:butt; stroke-linejoin:round; stroke-width:12; stroke-opacity:1; fill:none" points="
  2160.76,1126.65 2232.76,1126.65 
  "/>
<polyline clip-path="url(#clip543)" style="stroke:#70196e; stroke-linecap:butt; stroke-linejoin:round; stroke-width:12; stroke-opacity:1; fill:none" points="
  2160.76,1036.7 2232.76,1036.7 
  "/>
<polyline clip-path="url(#clip543)" style="stroke:#892269; stroke-linecap:butt; stroke-linejoin:round; stroke-width:12; stroke-opacity:1; fill:none" points="
  2160.76,946.746 2232.76,946.746 
  "/>
<polyline clip-path="url(#clip543)" style="stroke:#a32b61; stroke-linecap:butt; stroke-linejoin:round; stroke-width:12; stroke-opacity:1; fill:none" points="
  2160.76,856.796 2232.76,856.796 
  "/>
<polyline clip-path="url(#clip543)" style="stroke:#bb3754; stroke-linecap:butt; stroke-linejoin:round; stroke-width:12; stroke-opacity:1; fill:none" points="
  2160.76,766.846 2232.76,766.846 
  "/>
<polyline clip-path="url(#clip543)" style="stroke:#d04544; stroke-linecap:butt; stroke-linejoin:round; stroke-width:12; stroke-opacity:1; fill:none" points="
  2160.76,676.896 2232.76,676.896 
  "/>
<polyline clip-path="url(#clip543)" style="stroke:#e35832; stroke-linecap:butt; stroke-linejoin:round; stroke-width:12; stroke-opacity:1; fill:none" points="
  2160.76,586.946 2232.76,586.946 
  "/>
<polyline clip-path="url(#clip543)" style="stroke:#f0701e; stroke-linecap:butt; stroke-linejoin:round; stroke-width:12; stroke-opacity:1; fill:none" points="
  2160.76,496.995 2232.76,496.995 
  "/>
<polyline clip-path="url(#clip543)" style="stroke:#f98c09; stroke-linecap:butt; stroke-linejoin:round; stroke-width:12; stroke-opacity:1; fill:none" points="
  2160.76,407.045 2232.76,407.045 
  "/>
<polyline clip-path="url(#clip543)" style="stroke:#fbaa0e; stroke-linecap:butt; stroke-linejoin:round; stroke-width:12; stroke-opacity:1; fill:none" points="
  2160.76,317.095 2232.76,317.095 
  "/>
<polyline clip-path="url(#clip543)" style="stroke:#f8c931; stroke-linecap:butt; stroke-linejoin:round; stroke-width:12; stroke-opacity:1; fill:none" points="
  2160.76,227.145 2232.76,227.145 
  "/>
<polyline clip-path="url(#clip543)" style="stroke:#f1e864; stroke-linecap:butt; stroke-linejoin:round; stroke-width:12; stroke-opacity:1; fill:none" points="
  2160.76,137.194 2232.76,137.194 
  "/>
<path clip-path="url(#clip540)" d="M2280.7 1263.65 Q2277.09 1263.65 2275.26 1267.21 Q2273.45 1270.75 2273.45 1277.88 Q2273.45 1284.99 2275.26 1288.55 Q2277.09 1292.1 2280.7 1292.1 Q2284.33 1292.1 2286.14 1288.55 Q2287.97 1284.99 2287.97 1277.88 Q2287.97 1270.75 2286.14 1267.21 Q2284.33 1263.65 2280.7 1263.65 M2280.7 1259.94 Q2286.51 1259.94 2289.57 1264.55 Q2292.64 1269.13 2292.64 1277.88 Q2292.64 1286.61 2289.57 1291.22 Q2286.51 1295.8 2280.7 1295.8 Q2274.89 1295.8 2271.81 1291.22 Q2268.76 1286.61 2268.76 1277.88 Q2268.76 1269.13 2271.81 1264.55 Q2274.89 1259.94 2280.7 1259.94 Z" fill="#000000" fill-rule="evenodd" fill-opacity="1" /><path clip-path="url(#clip540)" d="M2300.86 1289.25 L2305.75 1289.25 L2305.75 1295.13 L2300.86 1295.13 L2300.86 1289.25 Z" fill="#000000" fill-rule="evenodd" fill-opacity="1" /><path clip-path="url(#clip540)" d="M2315.98 1260.57 L2334.33 1260.57 L2334.33 1264.5 L2320.26 1264.5 L2320.26 1272.97 Q2321.28 1272.63 2322.3 1272.47 Q2323.32 1272.28 2324.33 1272.28 Q2330.12 1272.28 2333.5 1275.45 Q2336.88 1278.62 2336.88 1284.04 Q2336.88 1289.62 2333.41 1292.72 Q2329.94 1295.8 2323.62 1295.8 Q2321.44 1295.8 2319.17 1295.43 Q2316.93 1295.06 2314.52 1294.32 L2314.52 1289.62 Q2316.6 1290.75 2318.83 1291.31 Q2321.05 1291.86 2323.52 1291.86 Q2327.53 1291.86 2329.87 1289.76 Q2332.2 1287.65 2332.2 1284.04 Q2332.2 1280.43 2329.87 1278.32 Q2327.53 1276.22 2323.52 1276.22 Q2321.65 1276.22 2319.77 1276.63 Q2317.92 1277.05 2315.98 1277.93 L2315.98 1260.57 Z" fill="#000000" fill-rule="evenodd" fill-opacity="1" /><path clip-path="url(#clip540)" d="M2269.43 1085.49 L2277.07 1085.49 L2277.07 1059.12 L2268.76 1060.79 L2268.76 1056.53 L2277.02 1054.86 L2281.7 1054.86 L2281.7 1085.49 L2289.33 1085.49 L2289.33 1089.42 L2269.43 1089.42 L2269.43 1085.49 Z" fill="#000000" fill-rule="evenodd" fill-opacity="1" /><path clip-path="url(#clip540)" d="M2298.78 1083.54 L2303.66 1083.54 L2303.66 1089.42 L2298.78 1089.42 L2298.78 1083.54 Z" fill="#000000" fill-rule="evenodd" fill-opacity="1" /><path clip-path="url(#clip540)" d="M2323.85 1057.94 Q2320.24 1057.94 2318.41 1061.51 Q2316.6 1065.05 2316.6 1072.18 Q2316.6 1079.28 2318.41 1082.85 Q2320.24 1086.39 2323.85 1086.39 Q2327.48 1086.39 2329.29 1082.85 Q2331.12 1079.28 2331.12 1072.18 Q2331.12 1065.05 2329.29 1061.51 Q2327.48 1057.94 2323.85 1057.94 M2323.85 1054.24 Q2329.66 1054.24 2332.71 1058.84 Q2335.79 1063.43 2335.79 1072.18 Q2335.79 1080.9 2332.71 1085.51 Q2329.66 1090.09 2323.85 1090.09 Q2318.04 1090.09 2314.96 1085.51 Q2311.9 1080.9 2311.9 1072.18 Q2311.9 1063.43 2314.96 1058.84 Q2318.04 1054.24 2323.85 1054.24 Z" fill="#000000" fill-rule="evenodd" fill-opacity="1" /><path clip-path="url(#clip540)" d="M2269.43 879.782 L2277.07 879.782 L2277.07 853.416 L2268.76 855.083 L2268.76 850.823 L2277.02 849.157 L2281.7 849.157 L2281.7 879.782 L2289.33 879.782 L2289.33 883.717 L2269.43 883.717 L2269.43 879.782 Z" fill="#000000" fill-rule="evenodd" fill-opacity="1" /><path clip-path="url(#clip540)" d="M2298.78 877.837 L2303.66 877.837 L2303.66 883.717 L2298.78 883.717 L2298.78 877.837 Z" fill="#000000" fill-rule="evenodd" fill-opacity="1" /><path clip-path="url(#clip540)" d="M2313.89 849.157 L2332.25 849.157 L2332.25 853.092 L2318.18 853.092 L2318.18 861.564 Q2319.2 861.217 2320.21 861.055 Q2321.23 860.87 2322.25 860.87 Q2328.04 860.87 2331.42 864.041 Q2334.8 867.212 2334.8 872.629 Q2334.8 878.208 2331.33 881.309 Q2327.85 884.388 2321.53 884.388 Q2319.36 884.388 2317.09 884.018 Q2314.84 883.647 2312.44 882.907 L2312.44 878.208 Q2314.52 879.342 2316.74 879.897 Q2318.96 880.453 2321.44 880.453 Q2325.45 880.453 2327.78 878.346 Q2330.12 876.24 2330.12 872.629 Q2330.12 869.018 2327.78 866.911 Q2325.45 864.805 2321.44 864.805 Q2319.57 864.805 2317.69 865.221 Q2315.84 865.638 2313.89 866.518 L2313.89 849.157 Z" fill="#000000" fill-rule="evenodd" fill-opacity="1" /><path clip-path="url(#clip540)" d="M2274.38 674.076 L2290.7 674.076 L2290.7 678.011 L2268.76 678.011 L2268.76 674.076 Q2271.42 671.322 2276 666.692 Q2280.61 662.039 2281.79 660.697 Q2284.03 658.174 2284.91 656.437 Q2285.82 654.678 2285.82 652.988 Q2285.82 650.234 2283.87 648.498 Q2281.95 646.762 2278.85 646.762 Q2276.65 646.762 2274.2 647.525 Q2271.77 648.289 2268.99 649.84 L2268.99 645.118 Q2271.81 643.984 2274.27 643.405 Q2276.72 642.826 2278.76 642.826 Q2284.13 642.826 2287.32 645.512 Q2290.52 648.197 2290.52 652.687 Q2290.52 654.817 2289.7 656.738 Q2288.92 658.636 2286.81 661.229 Q2286.23 661.9 2283.13 665.118 Q2280.03 668.312 2274.38 674.076 Z" fill="#000000" fill-rule="evenodd" fill-opacity="1" /><path clip-path="url(#clip540)" d="M2300.51 672.132 L2305.4 672.132 L2305.4 678.011 L2300.51 678.011 L2300.51 672.132 Z" fill="#000000" fill-rule="evenodd" fill-opacity="1" /><path clip-path="url(#clip540)" d="M2325.58 646.53 Q2321.97 646.53 2320.14 650.095 Q2318.34 653.637 2318.34 660.766 Q2318.34 667.873 2320.14 671.437 Q2321.97 674.979 2325.58 674.979 Q2329.22 674.979 2331.02 671.437 Q2332.85 667.873 2332.85 660.766 Q2332.85 653.637 2331.02 650.095 Q2329.22 646.53 2325.58 646.53 M2325.58 642.826 Q2331.39 642.826 2334.45 647.433 Q2337.53 652.016 2337.53 660.766 Q2337.53 669.493 2334.45 674.099 Q2331.39 678.683 2325.58 678.683 Q2319.77 678.683 2316.7 674.099 Q2313.64 669.493 2313.64 660.766 Q2313.64 652.016 2316.7 647.433 Q2319.77 642.826 2325.58 642.826 Z" fill="#000000" fill-rule="evenodd" fill-opacity="1" /><path clip-path="url(#clip540)" d="M2274.38 468.371 L2290.7 468.371 L2290.7 472.306 L2268.76 472.306 L2268.76 468.371 Q2271.42 465.616 2276 460.987 Q2280.61 456.334 2281.79 454.991 Q2284.03 452.468 2284.91 450.732 Q2285.82 448.973 2285.82 447.283 Q2285.82 444.528 2283.87 442.792 Q2281.95 441.056 2278.85 441.056 Q2276.65 441.056 2274.2 441.82 Q2271.77 442.584 2268.99 444.135 L2268.99 439.413 Q2271.81 438.278 2274.27 437.7 Q2276.72 437.121 2278.76 437.121 Q2284.13 437.121 2287.32 439.806 Q2290.52 442.491 2290.52 446.982 Q2290.52 449.112 2289.7 451.033 Q2288.92 452.931 2286.81 455.524 Q2286.23 456.195 2283.13 459.413 Q2280.03 462.607 2274.38 468.371 Z" fill="#000000" fill-rule="evenodd" fill-opacity="1" /><path clip-path="url(#clip540)" d="M2300.51 466.426 L2305.4 466.426 L2305.4 472.306 L2300.51 472.306 L2300.51 466.426 Z" fill="#000000" fill-rule="evenodd" fill-opacity="1" /><path clip-path="url(#clip540)" d="M2315.63 437.746 L2333.99 437.746 L2333.99 441.681 L2319.91 441.681 L2319.91 450.153 Q2320.93 449.806 2321.95 449.644 Q2322.97 449.459 2323.99 449.459 Q2329.77 449.459 2333.15 452.63 Q2336.53 455.801 2336.53 461.218 Q2336.53 466.797 2333.06 469.899 Q2329.59 472.977 2323.27 472.977 Q2321.09 472.977 2318.83 472.607 Q2316.58 472.237 2314.17 471.496 L2314.17 466.797 Q2316.26 467.931 2318.48 468.487 Q2320.7 469.042 2323.18 469.042 Q2327.18 469.042 2329.52 466.936 Q2331.86 464.829 2331.86 461.218 Q2331.86 457.607 2329.52 455.501 Q2327.18 453.394 2323.18 453.394 Q2321.3 453.394 2319.43 453.811 Q2317.58 454.227 2315.63 455.107 L2315.63 437.746 Z" fill="#000000" fill-rule="evenodd" fill-opacity="1" /><path clip-path="url(#clip540)" d="M2284.38 247.967 Q2287.74 248.684 2289.61 250.953 Q2291.51 253.221 2291.51 256.554 Q2291.51 261.67 2287.99 264.471 Q2284.47 267.272 2277.99 267.272 Q2275.82 267.272 2273.5 266.832 Q2271.21 266.415 2268.76 265.559 L2268.76 261.045 Q2270.7 262.179 2273.02 262.758 Q2275.33 263.337 2277.85 263.337 Q2282.25 263.337 2284.54 261.601 Q2286.86 259.865 2286.86 256.554 Q2286.86 253.499 2284.7 251.786 Q2282.58 250.05 2278.76 250.05 L2274.73 250.05 L2274.73 246.207 L2278.94 246.207 Q2282.39 246.207 2284.22 244.842 Q2286.05 243.453 2286.05 240.86 Q2286.05 238.198 2284.15 236.786 Q2282.27 235.351 2278.76 235.351 Q2276.83 235.351 2274.64 235.767 Q2272.44 236.184 2269.8 237.064 L2269.8 232.897 Q2272.46 232.156 2274.77 231.786 Q2277.11 231.416 2279.17 231.416 Q2284.5 231.416 2287.6 233.846 Q2290.7 236.254 2290.7 240.374 Q2290.7 243.244 2289.06 245.235 Q2287.41 247.203 2284.38 247.967 Z" fill="#000000" fill-rule="evenodd" fill-opacity="1" /><path clip-path="url(#clip540)" d="M2300.38 260.721 L2305.26 260.721 L2305.26 266.601 L2300.38 266.601 L2300.38 260.721 Z" fill="#000000" fill-rule="evenodd" fill-opacity="1" /><path clip-path="url(#clip540)" d="M2325.45 235.119 Q2321.83 235.119 2320.01 238.684 Q2318.2 242.226 2318.2 249.355 Q2318.2 256.462 2320.01 260.027 Q2321.83 263.568 2325.45 263.568 Q2329.08 263.568 2330.89 260.027 Q2332.71 256.462 2332.71 249.355 Q2332.71 242.226 2330.89 238.684 Q2329.08 235.119 2325.45 235.119 M2325.45 231.416 Q2331.26 231.416 2334.31 236.022 Q2337.39 240.605 2337.39 249.355 Q2337.39 258.082 2334.31 262.689 Q2331.26 267.272 2325.45 267.272 Q2319.64 267.272 2316.56 262.689 Q2313.5 258.082 2313.5 249.355 Q2313.5 240.605 2316.56 236.022 Q2319.64 231.416 2325.45 231.416 Z" fill="#000000" fill-rule="evenodd" fill-opacity="1" /><path clip-path="url(#clip540)" d="M2284.38 42.2611 Q2287.74 42.9787 2289.61 45.2472 Q2291.51 47.5157 2291.51 50.8491 Q2291.51 55.9648 2287.99 58.7657 Q2284.47 61.5666 2277.99 61.5666 Q2275.82 61.5666 2273.5 61.1268 Q2271.21 60.7101 2268.76 59.8536 L2268.76 55.3398 Q2270.7 56.474 2273.02 57.0527 Q2275.33 57.6314 2277.85 57.6314 Q2282.25 57.6314 2284.54 55.8953 Q2286.86 54.1592 2286.86 50.8491 Q2286.86 47.7935 2284.7 46.0806 Q2282.58 44.3445 2278.76 44.3445 L2274.73 44.3445 L2274.73 40.5019 L2278.94 40.5019 Q2282.39 40.5019 2284.22 39.1362 Q2286.05 37.7473 2286.05 35.1547 Q2286.05 32.4927 2284.15 31.0806 Q2282.27 29.6455 2278.76 29.6455 Q2276.83 29.6455 2274.64 30.0621 Q2272.44 30.4788 2269.8 31.3584 L2269.8 27.1918 Q2272.46 26.451 2274.77 26.0807 Q2277.11 25.7103 2279.17 25.7103 Q2284.5 25.7103 2287.6 28.1408 Q2290.7 30.5482 2290.7 34.6686 Q2290.7 37.5389 2289.06 39.5297 Q2287.41 41.4973 2284.38 42.2611 Z" fill="#000000" fill-rule="evenodd" fill-opacity="1" /><path clip-path="url(#clip540)" d="M2300.38 55.0157 L2305.26 55.0157 L2305.26 60.8953 L2300.38 60.8953 L2300.38 55.0157 Z" fill="#000000" fill-rule="evenodd" fill-opacity="1" /><path clip-path="url(#clip540)" d="M2315.49 26.3353 L2333.85 26.3353 L2333.85 30.2705 L2319.77 30.2705 L2319.77 38.7426 Q2320.79 38.3954 2321.81 38.2334 Q2322.83 38.0482 2323.85 38.0482 Q2329.64 38.0482 2333.01 41.2195 Q2336.39 44.3908 2336.39 49.8074 Q2336.39 55.3861 2332.92 58.4879 Q2329.45 61.5666 2323.13 61.5666 Q2320.95 61.5666 2318.69 61.1962 Q2316.44 60.8259 2314.03 60.0851 L2314.03 55.3861 Q2316.12 56.5203 2318.34 57.0759 Q2320.56 57.6314 2323.04 57.6314 Q2327.04 57.6314 2329.38 55.525 Q2331.72 53.4185 2331.72 49.8074 Q2331.72 46.1963 2329.38 44.0898 Q2327.04 41.9834 2323.04 41.9834 Q2321.16 41.9834 2319.29 42.4 Q2317.44 42.8167 2315.49 43.6963 L2315.49 26.3353 Z" fill="#000000" fill-rule="evenodd" fill-opacity="1" /><polyline clip-path="url(#clip540)" style="stroke:#000000; stroke-linecap:butt; stroke-linejoin:round; stroke-width:4; stroke-opacity:1; fill:none" points="
  2232.76,1486.45 2232.76,1281.48 2256.76,1281.48 2232.76,1281.48 2232.76,1075.77 2256.76,1075.77 2232.76,1075.77 2232.76,870.066 2256.76,870.066 2232.76,870.066 
  2232.76,664.36 2256.76,664.36 2232.76,664.36 2232.76,458.655 2256.76,458.655 2232.76,458.655 2232.76,252.949 2256.76,252.949 2232.76,252.949 2232.76,47.2441 
  2256.76,47.2441 2232.76,47.2441 
  "/>
<path clip-path="url(#clip540)" d="
M1783.16 198.898 L2048.8 198.898 L2048.8 95.2176 L1783.16 95.2176  Z
  " fill="#ffffff" fill-rule="evenodd" fill-opacity="1"/>
<polyline clip-path="url(#clip540)" style="stroke:#000000; stroke-linecap:butt; stroke-linejoin:round; stroke-width:4; stroke-opacity:1; fill:none" points="
  1783.16,198.898 2048.8,198.898 2048.8,95.2176 1783.16,95.2176 1783.16,198.898 
  "/>
<polyline clip-path="url(#clip540)" style="stroke:#009af9; stroke-linecap:butt; stroke-linejoin:round; stroke-width:4; stroke-opacity:1; fill:none" points="
  1804.48,147.058 1932.4,147.058 
  "/>
<circle clip-path="url(#clip540)" cx="1868.44" cy="147.058" r="23.04" fill="#009af9" fill-rule="evenodd" fill-opacity="1" stroke="#000000" stroke-opacity="1" stroke-width="5.12"/>
<path clip-path="url(#clip540)" d="M1967.57 166.745 Q1965.76 171.375 1964.05 172.787 Q1962.34 174.199 1959.47 174.199 L1956.06 174.199 L1956.06 170.634 L1958.56 170.634 Q1960.32 170.634 1961.29 169.8 Q1962.27 168.967 1963.45 165.865 L1964.21 163.921 L1953.72 138.412 L1958.24 138.412 L1966.34 158.689 L1974.44 138.412 L1978.96 138.412 L1967.57 166.745 Z" fill="#000000" fill-rule="evenodd" fill-opacity="1" /><path clip-path="url(#clip540)" d="M1986.25 160.402 L1993.89 160.402 L1993.89 134.037 L1985.58 135.703 L1985.58 131.444 L1993.84 129.778 L1998.52 129.778 L1998.52 160.402 L2006.15 160.402 L2006.15 164.338 L1986.25 164.338 L1986.25 160.402 Z" fill="#000000" fill-rule="evenodd" fill-opacity="1" /></svg>
