<?xml version="1.0" encoding="utf-8"?>
<svg xmlns="http://www.w3.org/2000/svg" xmlns:xlink="http://www.w3.org/1999/xlink" width="600" height="400" viewBox="0 0 2400 1600">
<defs>
  <clipPath id="clip260">
    <rect x="0" y="0" width="2400" height="1600"/>
  </clipPath>
</defs>
<path clip-path="url(#clip260)" d="
M0 1600 L2400 1600 L2400 0 L0 0  Z
  " fill="#ffffff" fill-rule="evenodd" fill-opacity="1"/>
<defs>
  <clipPath id="clip261">
    <rect x="480" y="0" width="1681" height="1600"/>
  </clipPath>
</defs>
<path clip-path="url(#clip260)" d="
M149.191 1486.45 L2352.76 1486.45 L2352.76 47.2441 L149.191 47.2441  Z
  " fill="#ffffff" fill-rule="evenodd" fill-opacity="1"/>
<defs>
  <clipPath id="clip262">
    <rect x="149" y="47" width="2205" height="1440"/>
  </clipPath>
</defs>
<polyline clip-path="url(#clip262)" style="stroke:#000000; stroke-linecap:butt; stroke-linejoin:round; stroke-width:2; stroke-opacity:0.1; fill:none" points="
  149.191,1486.45 149.191,47.2441 
  "/>
<polyline clip-path="url(#clip262)" style="stroke:#000000; stroke-linecap:butt; stroke-linejoin:round; stroke-width:2; stroke-opacity:0.1; fill:none" points="
  700.082,1486.45 700.082,47.2441 
  "/>
<polyline clip-path="url(#clip262)" style="stroke:#000000; stroke-linecap:butt; stroke-linejoin:round; stroke-width:2; stroke-opacity:0.1; fill:none" points="
  1250.97,1486.45 1250.97,47.2441 
  "/>
<polyline clip-path="url(#clip262)" style="stroke:#000000; stroke-linecap:butt; stroke-linejoin:round; stroke-width:2; stroke-opacity:0.1; fill:none" points="
  1801.86,1486.45 1801.86,47.2441 
  "/>
<polyline clip-path="url(#clip262)" style="stroke:#000000; stroke-linecap:butt; stroke-linejoin:round; stroke-width:2; stroke-opacity:0.1; fill:none" points="
  2352.76,1486.45 2352.76,47.2441 
  "/>
<polyline clip-path="url(#clip260)" style="stroke:#000000; stroke-linecap:butt; stroke-linejoin:round; stroke-width:4; stroke-opacity:1; fill:none" points="
  149.191,1486.45 2352.76,1486.45 
  "/>
<polyline clip-path="url(#clip260)" style="stroke:#000000; stroke-linecap:butt; stroke-linejoin:round; stroke-width:4; stroke-opacity:1; fill:none" points="
  149.191,1486.45 149.191,1467.55 
  "/>
<polyline clip-path="url(#clip260)" style="stroke:#000000; stroke-linecap:butt; stroke-linejoin:round; stroke-width:4; stroke-opacity:1; fill:none" points="
  700.082,1486.45 700.082,1467.55 
  "/>
<polyline clip-path="url(#clip260)" style="stroke:#000000; stroke-linecap:butt; stroke-linejoin:round; stroke-width:4; stroke-opacity:1; fill:none" points="
  1250.97,1486.45 1250.97,1467.55 
  "/>
<polyline clip-path="url(#clip260)" style="stroke:#000000; stroke-linecap:butt; stroke-linejoin:round; stroke-width:4; stroke-opacity:1; fill:none" points="
  1801.86,1486.45 1801.86,1467.55 
  "/>
<polyline clip-path="url(#clip260)" style="stroke:#000000; stroke-linecap:butt; stroke-linejoin:round; stroke-width:4; stroke-opacity:1; fill:none" points="
  2352.76,1486.45 2352.76,1467.55 
  "/>
<path clip-path="url(#clip260)" d="M118.091 1532.02 L147.767 1532.02 L147.767 1535.95 L118.091 1535.95 L118.091 1532.02 Z" fill="#000000" fill-rule="evenodd" fill-opacity="1" /><path clip-path="url(#clip260)" d="M170.707 1518.36 L158.901 1536.81 L170.707 1536.81 L170.707 1518.36 M169.48 1514.29 L175.36 1514.29 L175.36 1536.81 L180.29 1536.81 L180.29 1540.7 L175.36 1540.7 L175.36 1548.85 L170.707 1548.85 L170.707 1540.7 L155.105 1540.7 L155.105 1536.19 L169.48 1514.29 Z" fill="#000000" fill-rule="evenodd" fill-opacity="1" /><path clip-path="url(#clip260)" d="M670.024 1532.02 L699.7 1532.02 L699.7 1535.95 L670.024 1535.95 L670.024 1532.02 Z" fill="#000000" fill-rule="evenodd" fill-opacity="1" /><path clip-path="url(#clip260)" d="M713.82 1544.91 L730.14 1544.91 L730.14 1548.85 L708.196 1548.85 L708.196 1544.91 Q710.858 1542.16 715.441 1537.53 Q720.047 1532.88 721.228 1531.53 Q723.473 1529.01 724.353 1527.27 Q725.256 1525.51 725.256 1523.82 Q725.256 1521.07 723.311 1519.33 Q721.39 1517.6 718.288 1517.6 Q716.089 1517.6 713.635 1518.36 Q711.205 1519.13 708.427 1520.68 L708.427 1515.95 Q711.251 1514.82 713.705 1514.24 Q716.158 1513.66 718.195 1513.66 Q723.566 1513.66 726.76 1516.35 Q729.955 1519.03 729.955 1523.52 Q729.955 1525.65 729.144 1527.57 Q728.357 1529.47 726.251 1532.07 Q725.672 1532.74 722.57 1535.95 Q719.469 1539.15 713.82 1544.91 Z" fill="#000000" fill-rule="evenodd" fill-opacity="1" /><path clip-path="url(#clip260)" d="M1250.97 1517.37 Q1247.36 1517.37 1245.53 1520.93 Q1243.73 1524.47 1243.73 1531.6 Q1243.73 1538.71 1245.53 1542.27 Q1247.36 1545.82 1250.97 1545.82 Q1254.61 1545.82 1256.41 1542.27 Q1258.24 1538.71 1258.24 1531.6 Q1258.24 1524.47 1256.41 1520.93 Q1254.61 1517.37 1250.97 1517.37 M1250.97 1513.66 Q1256.78 1513.66 1259.84 1518.27 Q1262.92 1522.85 1262.92 1531.6 Q1262.92 1540.33 1259.84 1544.94 Q1256.78 1549.52 1250.97 1549.52 Q1245.16 1549.52 1242.08 1544.94 Q1239.03 1540.33 1239.03 1531.6 Q1239.03 1522.85 1242.08 1518.27 Q1245.16 1513.66 1250.97 1513.66 Z" fill="#000000" fill-rule="evenodd" fill-opacity="1" /><path clip-path="url(#clip260)" d="M1796.52 1544.91 L1812.84 1544.91 L1812.84 1548.85 L1790.89 1548.85 L1790.89 1544.91 Q1793.55 1542.16 1798.14 1537.53 Q1802.74 1532.88 1803.92 1531.53 Q1806.17 1529.01 1807.05 1527.27 Q1807.95 1525.51 1807.95 1523.82 Q1807.95 1521.07 1806.01 1519.33 Q1804.09 1517.6 1800.99 1517.6 Q1798.79 1517.6 1796.33 1518.36 Q1793.9 1519.13 1791.12 1520.68 L1791.12 1515.95 Q1793.95 1514.82 1796.4 1514.24 Q1798.86 1513.66 1800.89 1513.66 Q1806.26 1513.66 1809.46 1516.35 Q1812.65 1519.03 1812.65 1523.52 Q1812.65 1525.65 1811.84 1527.57 Q1811.05 1529.47 1808.95 1532.07 Q1808.37 1532.74 1805.27 1535.95 Q1802.17 1539.15 1796.52 1544.91 Z" fill="#000000" fill-rule="evenodd" fill-opacity="1" /><path clip-path="url(#clip260)" d="M2355.77 1518.36 L2343.96 1536.81 L2355.77 1536.81 L2355.77 1518.36 M2354.54 1514.29 L2360.42 1514.29 L2360.42 1536.81 L2365.35 1536.81 L2365.35 1540.7 L2360.42 1540.7 L2360.42 1548.85 L2355.77 1548.85 L2355.77 1540.7 L2340.16 1540.7 L2340.16 1536.19 L2354.54 1514.29 Z" fill="#000000" fill-rule="evenodd" fill-opacity="1" /><polyline clip-path="url(#clip262)" style="stroke:#000000; stroke-linecap:butt; stroke-linejoin:round; stroke-width:2; stroke-opacity:0.1; fill:none" points="
  149.191,1334.78 2352.76,1334.78 
  "/>
<polyline clip-path="url(#clip262)" style="stroke:#000000; stroke-linecap:butt; stroke-linejoin:round; stroke-width:2; stroke-opacity:0.1; fill:none" points="
  149.191,995.346 2352.76,995.346 
  "/>
<polyline clip-path="url(#clip262)" style="stroke:#000000; stroke-linecap:butt; stroke-linejoin:round; stroke-width:2; stroke-opacity:0.1; fill:none" points="
  149.191,655.911 2352.76,655.911 
  "/>
<polyline clip-path="url(#clip262)" style="stroke:#000000; stroke-linecap:butt; stroke-linejoin:round; stroke-width:2; stroke-opacity:0.1; fill:none" points="
  149.191,316.476 2352.76,316.476 
  "/>
<polyline clip-path="url(#clip260)" style="stroke:#000000; stroke-linecap:butt; stroke-linejoin:round; stroke-width:4; stroke-opacity:1; fill:none" points="
  149.191,1486.45 149.191,47.2441 
  "/>
<polyline clip-path="url(#clip260)" style="stroke:#000000; stroke-linecap:butt; stroke-linejoin:round; stroke-width:4; stroke-opacity:1; fill:none" points="
  149.191,1334.78 168.089,1334.78 
  "/>
<polyline clip-path="url(#clip260)" style="stroke:#000000; stroke-linecap:butt; stroke-linejoin:round; stroke-width:4; stroke-opacity:1; fill:none" points="
  149.191,995.346 168.089,995.346 
  "/>
<polyline clip-path="url(#clip260)" style="stroke:#000000; stroke-linecap:butt; stroke-linejoin:round; stroke-width:4; stroke-opacity:1; fill:none" points="
  149.191,655.911 168.089,655.911 
  "/>
<polyline clip-path="url(#clip260)" style="stroke:#000000; stroke-linecap:butt; stroke-linejoin:round; stroke-width:4; stroke-opacity:1; fill:none" points="
  149.191,316.476 168.089,316.476 
  "/>
<path clip-path="url(#clip260)" d="M50.9921 1335.23 L80.6679 1335.23 L80.6679 1339.17 L50.9921 1339.17 L50.9921 1335.23 Z" fill="#000000" fill-rule="evenodd" fill-opacity="1" /><path clip-path="url(#clip260)" d="M103.608 1321.58 L91.8021 1340.02 L103.608 1340.02 L103.608 1321.58 M102.381 1317.5 L108.26 1317.5 L108.26 1340.02 L113.191 1340.02 L113.191 1343.91 L108.26 1343.91 L108.26 1352.06 L103.608 1352.06 L103.608 1343.91 L88.0058 1343.91 L88.0058 1339.4 L102.381 1317.5 Z" fill="#000000" fill-rule="evenodd" fill-opacity="1" /><path clip-path="url(#clip260)" d="M53.0754 995.798 L82.7512 995.798 L82.7512 999.733 L53.0754 999.733 L53.0754 995.798 Z" fill="#000000" fill-rule="evenodd" fill-opacity="1" /><path clip-path="url(#clip260)" d="M96.8715 1008.69 L113.191 1008.69 L113.191 1012.63 L91.2465 1012.63 L91.2465 1008.69 Q93.9086 1005.94 98.4919 1001.31 Q103.098 996.654 104.279 995.311 Q106.524 992.788 107.404 991.052 Q108.307 989.293 108.307 987.603 Q108.307 984.848 106.362 983.112 Q104.441 981.376 101.339 981.376 Q99.14 981.376 96.6863 982.14 Q94.2558 982.904 91.478 984.455 L91.478 979.733 Q94.3021 978.599 96.7558 978.02 Q99.2095 977.441 101.246 977.441 Q106.617 977.441 109.811 980.126 Q113.006 982.811 113.006 987.302 Q113.006 989.432 112.196 991.353 Q111.408 993.251 109.302 995.844 Q108.723 996.515 105.621 999.733 Q102.52 1002.93 96.8715 1008.69 Z" fill="#000000" fill-rule="evenodd" fill-opacity="1" /><path clip-path="url(#clip260)" d="M101.246 641.71 Q97.6354 641.71 95.8067 645.275 Q94.0012 648.816 94.0012 655.946 Q94.0012 663.052 95.8067 666.617 Q97.6354 670.159 101.246 670.159 Q104.881 670.159 106.686 666.617 Q108.515 663.052 108.515 655.946 Q108.515 648.816 106.686 645.275 Q104.881 641.71 101.246 641.71 M101.246 638.006 Q107.057 638.006 110.112 642.613 Q113.191 647.196 113.191 655.946 Q113.191 664.673 110.112 669.279 Q107.057 673.863 101.246 673.863 Q95.4363 673.863 92.3576 669.279 Q89.3021 664.673 89.3021 655.946 Q89.3021 647.196 92.3576 642.613 Q95.4363 638.006 101.246 638.006 Z" fill="#000000" fill-rule="evenodd" fill-opacity="1" /><path clip-path="url(#clip260)" d="M96.8715 329.821 L113.191 329.821 L113.191 333.756 L91.2465 333.756 L91.2465 329.821 Q93.9086 327.067 98.4919 322.437 Q103.098 317.784 104.279 316.442 Q106.524 313.919 107.404 312.182 Q108.307 310.423 108.307 308.733 Q108.307 305.979 106.362 304.243 Q104.441 302.507 101.339 302.507 Q99.14 302.507 96.6863 303.27 Q94.2558 304.034 91.478 305.585 L91.478 300.863 Q94.3021 299.729 96.7558 299.15 Q99.2095 298.571 101.246 298.571 Q106.617 298.571 109.811 301.257 Q113.006 303.942 113.006 308.432 Q113.006 310.562 112.196 312.483 Q111.408 314.382 109.302 316.974 Q108.723 317.645 105.621 320.863 Q102.52 324.057 96.8715 329.821 Z" fill="#000000" fill-rule="evenodd" fill-opacity="1" /><polyline clip-path="url(#clip262)" style="stroke:#009af9; stroke-linecap:butt; stroke-linejoin:round; stroke-width:12; stroke-opacity:1; fill:none" points="
  149.191,87.9763 152.777,91.8492 156.364,95.703 159.951,99.5375 163.537,103.352 196.701,137.648 229.864,170.042 263.027,200.362 296.191,228.464 316.12,244.237 
  336.05,259.151 355.98,273.191 375.91,286.347 409.61,306.576 443.311,324.276 479.92,340.693 516.528,354.291 550.278,364.465 584.028,372.534 620.211,379.067 
  656.394,383.673 698.316,387.004 740.238,388.678 814.748,389.32 880.087,389.638 915.706,390.563 951.324,392.469 987.155,395.714 1022.98,400.61 1062.6,408.292 
  1102.21,418.69 1139.91,431.371 1177.6,446.97 1216.79,466.437 1255.98,489.308 1288.97,511.22 1321.96,535.541 1362.24,568.413 1402.52,604.617 1439.42,640.498 
  1476.32,678.737 1510.39,715.906 1544.47,754.602 1578.99,795.079 1613.51,836.543 1690.88,931.425 1761,1017.2 1801.13,1065.11 1841.27,1111.53 1878.43,1152.79 
  1915.6,1192.04 1952.24,1228.49 1988.87,1262.45 2024.45,1292.86 2060.02,1320.6 2096.49,1346.16 2132.95,1368.76 2172.91,1390.11 2212.86,1407.98 2241.88,1418.85 
  2270.9,1428.03 2299.92,1435.61 2328.94,1441.72 2334.9,1442.8 2340.85,1443.83 2346.8,1444.8 2352.76,1445.72 
  "/>
<polyline clip-path="url(#clip262)" style="stroke:#e26f46; stroke-linecap:butt; stroke-linejoin:round; stroke-width:12; stroke-opacity:1; fill:none" points="
  149.191,655.911 163.537,655.911 296.191,655.911 375.91,655.911 443.311,655.911 516.528,655.911 584.028,655.911 656.394,655.911 740.238,655.911 814.748,655.911 
  880.087,655.911 951.324,655.911 1022.98,655.911 1102.21,655.911 1177.6,655.911 1255.98,655.911 1321.96,655.911 1402.52,655.911 1476.32,655.911 1544.47,655.911 
  1613.51,655.911 1690.88,655.911 1761,655.911 1841.27,655.911 1915.6,655.911 1988.87,655.911 2060.02,655.911 2132.95,655.911 2212.86,655.911 2328.94,655.911 
  2352.76,655.911 
  "/>
<path clip-path="url(#clip260)" d="
M1982.03 250.738 L2279.3 250.738 L2279.3 95.2176 L1982.03 95.2176  Z
  " fill="#ffffff" fill-rule="evenodd" fill-opacity="1"/>
<polyline clip-path="url(#clip260)" style="stroke:#000000; stroke-linecap:butt; stroke-linejoin:round; stroke-width:4; stroke-opacity:1; fill:none" points="
  1982.03,250.738 2279.3,250.738 2279.3,95.2176 1982.03,95.2176 1982.03,250.738 
  "/>
<polyline clip-path="url(#clip260)" style="stroke:#009af9; stroke-linecap:butt; stroke-linejoin:round; stroke-width:4; stroke-opacity:1; fill:none" points="
  2006.52,147.058 2153.42,147.058 
  "/>
<path clip-path="url(#clip260)" d="M2191.75 166.745 Q2189.94 171.375 2188.23 172.787 Q2186.52 174.199 2183.65 174.199 L2180.24 174.199 L2180.24 170.634 L2182.74 170.634 Q2184.5 170.634 2185.47 169.8 Q2186.45 168.967 2187.63 165.865 L2188.39 163.921 L2177.91 138.412 L2182.42 138.412 L2190.52 158.689 L2198.62 138.412 L2203.14 138.412 L2191.75 166.745 Z" fill="#000000" fill-rule="evenodd" fill-opacity="1" /><path clip-path="url(#clip260)" d="M2210.43 160.402 L2218.07 160.402 L2218.07 134.037 L2209.76 135.703 L2209.76 131.444 L2218.02 129.778 L2222.7 129.778 L2222.7 160.402 L2230.34 160.402 L2230.34 164.338 L2210.43 164.338 L2210.43 160.402 Z" fill="#000000" fill-rule="evenodd" fill-opacity="1" /><polyline clip-path="url(#clip260)" style="stroke:#e26f46; stroke-linecap:butt; stroke-linejoin:round; stroke-width:4; stroke-opacity:1; fill:none" points="
  2006.52,198.898 2153.42,198.898 
  "/>
<path clip-path="url(#clip260)" d="M2191.75 218.585 Q2189.94 223.215 2188.23 224.627 Q2186.52 226.039 2183.65 226.039 L2180.24 226.039 L2180.24 222.474 L2182.74 222.474 Q2184.5 222.474 2185.47 221.64 Q2186.45 220.807 2187.63 217.705 L2188.39 215.761 L2177.91 190.252 L2182.42 190.252 L2190.52 210.529 L2198.62 190.252 L2203.14 190.252 L2191.75 218.585 Z" fill="#000000" fill-rule="evenodd" fill-opacity="1" /><path clip-path="url(#clip260)" d="M2213.65 212.242 L2229.97 212.242 L2229.97 216.178 L2208.02 216.178 L2208.02 212.242 Q2210.68 209.488 2215.27 204.858 Q2219.87 200.205 2221.05 198.863 Q2223.3 196.34 2224.18 194.604 Q2225.08 192.844 2225.08 191.155 Q2225.08 188.4 2223.14 186.664 Q2221.22 184.928 2218.11 184.928 Q2215.91 184.928 2213.46 185.692 Q2211.03 186.455 2208.25 188.006 L2208.25 183.284 Q2211.08 182.15 2213.53 181.571 Q2215.98 180.993 2218.02 180.993 Q2223.39 180.993 2226.59 183.678 Q2229.78 186.363 2229.78 190.854 Q2229.78 192.983 2228.97 194.905 Q2228.18 196.803 2226.08 199.395 Q2225.5 200.067 2222.4 203.284 Q2219.29 206.479 2213.65 212.242 Z" fill="#000000" fill-rule="evenodd" fill-opacity="1" /></svg>
