<?xml version="1.0" encoding="utf-8"?>
<svg xmlns="http://www.w3.org/2000/svg" xmlns:xlink="http://www.w3.org/1999/xlink" width="600" height="400" viewBox="0 0 2400 1600">
<defs>
  <clipPath id="clip080">
    <rect x="0" y="0" width="2400" height="1600"/>
  </clipPath>
</defs>
<path clip-path="url(#clip080)" d="
M0 1600 L2400 1600 L2400 0 L0 0  Z
  " fill="#ffffff" fill-rule="evenodd" fill-opacity="1"/>
<defs>
  <clipPath id="clip081">
    <rect x="480" y="0" width="1681" height="1600"/>
  </clipPath>
</defs>
<path clip-path="url(#clip080)" d="
M193.936 1486.45 L2112.76 1486.45 L2112.76 47.2441 L193.936 47.2441  Z
  " fill="#ffffff" fill-rule="evenodd" fill-opacity="1"/>
<defs>
  <clipPath id="clip082">
    <rect x="193" y="47" width="1920" height="1440"/>
  </clipPath>
</defs>
<polyline clip-path="url(#clip082)" style="stroke:#000000; stroke-linecap:butt; stroke-linejoin:round; stroke-width:2; stroke-opacity:0.1; fill:none" points="
  248.242,1486.45 248.242,47.2441 
  "/>
<polyline clip-path="url(#clip082)" style="stroke:#000000; stroke-linecap:butt; stroke-linejoin:round; stroke-width:2; stroke-opacity:0.1; fill:none" points="
  700.794,1486.45 700.794,47.2441 
  "/>
<polyline clip-path="url(#clip082)" style="stroke:#000000; stroke-linecap:butt; stroke-linejoin:round; stroke-width:2; stroke-opacity:0.1; fill:none" points="
  1153.35,1486.45 1153.35,47.2441 
  "/>
<polyline clip-path="url(#clip082)" style="stroke:#000000; stroke-linecap:butt; stroke-linejoin:round; stroke-width:2; stroke-opacity:0.1; fill:none" points="
  1605.9,1486.45 1605.9,47.2441 
  "/>
<polyline clip-path="url(#clip082)" style="stroke:#000000; stroke-linecap:butt; stroke-linejoin:round; stroke-width:2; stroke-opacity:0.1; fill:none" points="
  2058.45,1486.45 2058.45,47.2441 
  "/>
<polyline clip-path="url(#clip080)" style="stroke:#000000; stroke-linecap:butt; stroke-linejoin:round; stroke-width:4; stroke-opacity:1; fill:none" points="
  193.936,1486.45 2112.76,1486.45 
  "/>
<polyline clip-path="url(#clip080)" style="stroke:#000000; stroke-linecap:butt; stroke-linejoin:round; stroke-width:4; stroke-opacity:1; fill:none" points="
  248.242,1486.45 248.242,1467.55 
  "/>
<polyline clip-path="url(#clip080)" style="stroke:#000000; stroke-linecap:butt; stroke-linejoin:round; stroke-width:4; stroke-opacity:1; fill:none" points="
  700.794,1486.45 700.794,1467.55 
  "/>
<polyline clip-path="url(#clip080)" style="stroke:#000000; stroke-linecap:butt; stroke-linejoin:round; stroke-width:4; stroke-opacity:1; fill:none" points="
  1153.35,1486.45 1153.35,1467.55 
  "/>
<polyline clip-path="url(#clip080)" style="stroke:#000000; stroke-linecap:butt; stroke-linejoin:round; stroke-width:4; stroke-opacity:1; fill:none" points="
  1605.9,1486.45 1605.9,1467.55 
  "/>
<polyline clip-path="url(#clip080)" style="stroke:#000000; stroke-linecap:butt; stroke-linejoin:round; stroke-width:4; stroke-opacity:1; fill:none" points="
  2058.45,1486.45 2058.45,1467.55 
  "/>
<path clip-path="url(#clip080)" d="M194.77 1532.02 L224.446 1532.02 L224.446 1535.95 L194.77 1535.95 L194.77 1532.02 Z" fill="#000000" fill-rule="evenodd" fill-opacity="1" /><path clip-path="url(#clip080)" d="M235.349 1544.91 L242.988 1544.91 L242.988 1518.55 L234.677 1520.21 L234.677 1515.95 L242.941 1514.29 L247.617 1514.29 L247.617 1544.91 L255.256 1544.91 L255.256 1548.85 L235.349 1548.85 L235.349 1544.91 Z" fill="#000000" fill-rule="evenodd" fill-opacity="1" /><path clip-path="url(#clip080)" d="M264.7 1542.97 L269.585 1542.97 L269.585 1548.85 L264.7 1548.85 L264.7 1542.97 Z" fill="#000000" fill-rule="evenodd" fill-opacity="1" /><path clip-path="url(#clip080)" d="M289.77 1517.37 Q286.159 1517.37 284.33 1520.93 Q282.524 1524.47 282.524 1531.6 Q282.524 1538.71 284.33 1542.27 Q286.159 1545.82 289.77 1545.82 Q293.404 1545.82 295.21 1542.27 Q297.038 1538.71 297.038 1531.6 Q297.038 1524.47 295.21 1520.93 Q293.404 1517.37 289.77 1517.37 M289.77 1513.66 Q295.58 1513.66 298.635 1518.27 Q301.714 1522.85 301.714 1531.6 Q301.714 1540.33 298.635 1544.94 Q295.58 1549.52 289.77 1549.52 Q283.96 1549.52 280.881 1544.94 Q277.825 1540.33 277.825 1531.6 Q277.825 1522.85 280.881 1518.27 Q283.96 1513.66 289.77 1513.66 Z" fill="#000000" fill-rule="evenodd" fill-opacity="1" /><path clip-path="url(#clip080)" d="M647.82 1532.02 L677.496 1532.02 L677.496 1535.95 L647.82 1535.95 L647.82 1532.02 Z" fill="#000000" fill-rule="evenodd" fill-opacity="1" /><path clip-path="url(#clip080)" d="M697.588 1517.37 Q693.977 1517.37 692.148 1520.93 Q690.343 1524.47 690.343 1531.6 Q690.343 1538.71 692.148 1542.27 Q693.977 1545.82 697.588 1545.82 Q701.222 1545.82 703.028 1542.27 Q704.857 1538.71 704.857 1531.6 Q704.857 1524.47 703.028 1520.93 Q701.222 1517.37 697.588 1517.37 M697.588 1513.66 Q703.398 1513.66 706.454 1518.27 Q709.532 1522.85 709.532 1531.6 Q709.532 1540.33 706.454 1544.94 Q703.398 1549.52 697.588 1549.52 Q691.778 1549.52 688.699 1544.94 Q685.644 1540.33 685.644 1531.6 Q685.644 1522.85 688.699 1518.27 Q691.778 1513.66 697.588 1513.66 Z" fill="#000000" fill-rule="evenodd" fill-opacity="1" /><path clip-path="url(#clip080)" d="M717.75 1542.97 L722.634 1542.97 L722.634 1548.85 L717.75 1548.85 L717.75 1542.97 Z" fill="#000000" fill-rule="evenodd" fill-opacity="1" /><path clip-path="url(#clip080)" d="M732.866 1514.29 L751.222 1514.29 L751.222 1518.22 L737.148 1518.22 L737.148 1526.7 Q738.167 1526.35 739.185 1526.19 Q740.204 1526 741.222 1526 Q747.009 1526 750.389 1529.17 Q753.768 1532.34 753.768 1537.76 Q753.768 1543.34 750.296 1546.44 Q746.824 1549.52 740.505 1549.52 Q738.329 1549.52 736.06 1549.15 Q733.815 1548.78 731.407 1548.04 L731.407 1543.34 Q733.491 1544.47 735.713 1545.03 Q737.935 1545.58 740.412 1545.58 Q744.417 1545.58 746.754 1543.48 Q749.092 1541.37 749.092 1537.76 Q749.092 1534.15 746.754 1532.04 Q744.417 1529.94 740.412 1529.94 Q738.537 1529.94 736.662 1530.35 Q734.81 1530.77 732.866 1531.65 L732.866 1514.29 Z" fill="#000000" fill-rule="evenodd" fill-opacity="1" /><path clip-path="url(#clip080)" d="M1130.73 1517.37 Q1127.12 1517.37 1125.29 1520.93 Q1123.49 1524.47 1123.49 1531.6 Q1123.49 1538.71 1125.29 1542.27 Q1127.12 1545.82 1130.73 1545.82 Q1134.36 1545.82 1136.17 1542.27 Q1138 1538.71 1138 1531.6 Q1138 1524.47 1136.17 1520.93 Q1134.36 1517.37 1130.73 1517.37 M1130.73 1513.66 Q1136.54 1513.66 1139.6 1518.27 Q1142.67 1522.85 1142.67 1531.6 Q1142.67 1540.33 1139.6 1544.94 Q1136.54 1549.52 1130.73 1549.52 Q1124.92 1549.52 1121.84 1544.94 Q1118.79 1540.33 1118.79 1531.6 Q1118.79 1522.85 1121.84 1518.27 Q1124.92 1513.66 1130.73 1513.66 Z" fill="#000000" fill-rule="evenodd" fill-opacity="1" /><path clip-path="url(#clip080)" d="M1150.89 1542.97 L1155.78 1542.97 L1155.78 1548.85 L1150.89 1548.85 L1150.89 1542.97 Z" fill="#000000" fill-rule="evenodd" fill-opacity="1" /><path clip-path="url(#clip080)" d="M1175.96 1517.37 Q1172.35 1517.37 1170.52 1520.93 Q1168.72 1524.47 1168.72 1531.6 Q1168.72 1538.71 1170.52 1542.27 Q1172.35 1545.82 1175.96 1545.82 Q1179.6 1545.82 1181.4 1542.27 Q1183.23 1538.71 1183.23 1531.6 Q1183.23 1524.47 1181.4 1520.93 Q1179.6 1517.37 1175.96 1517.37 M1175.96 1513.66 Q1181.77 1513.66 1184.83 1518.27 Q1187.91 1522.85 1187.91 1531.6 Q1187.91 1540.33 1184.83 1544.94 Q1181.77 1549.52 1175.96 1549.52 Q1170.15 1549.52 1167.07 1544.94 Q1164.02 1540.33 1164.02 1531.6 Q1164.02 1522.85 1167.07 1518.27 Q1170.15 1513.66 1175.96 1513.66 Z" fill="#000000" fill-rule="evenodd" fill-opacity="1" /><path clip-path="url(#clip080)" d="M1583.78 1517.37 Q1580.17 1517.37 1578.34 1520.93 Q1576.53 1524.47 1576.53 1531.6 Q1576.53 1538.71 1578.34 1542.27 Q1580.17 1545.82 1583.78 1545.82 Q1587.41 1545.82 1589.22 1542.27 Q1591.05 1538.71 1591.05 1531.6 Q1591.05 1524.47 1589.22 1520.93 Q1587.41 1517.37 1583.78 1517.37 M1583.78 1513.66 Q1589.59 1513.66 1592.65 1518.27 Q1595.72 1522.85 1595.72 1531.6 Q1595.72 1540.33 1592.65 1544.94 Q1589.59 1549.52 1583.78 1549.52 Q1577.97 1549.52 1574.89 1544.94 Q1571.84 1540.33 1571.84 1531.6 Q1571.84 1522.85 1574.89 1518.27 Q1577.97 1513.66 1583.78 1513.66 Z" fill="#000000" fill-rule="evenodd" fill-opacity="1" /><path clip-path="url(#clip080)" d="M1603.94 1542.97 L1608.83 1542.97 L1608.83 1548.85 L1603.94 1548.85 L1603.94 1542.97 Z" fill="#000000" fill-rule="evenodd" fill-opacity="1" /><path clip-path="url(#clip080)" d="M1619.06 1514.29 L1637.41 1514.29 L1637.41 1518.22 L1623.34 1518.22 L1623.34 1526.7 Q1624.36 1526.35 1625.38 1526.19 Q1626.4 1526 1627.41 1526 Q1633.2 1526 1636.58 1529.17 Q1639.96 1532.34 1639.96 1537.76 Q1639.96 1543.34 1636.49 1546.44 Q1633.02 1549.52 1626.7 1549.52 Q1624.52 1549.52 1622.25 1549.15 Q1620.01 1548.78 1617.6 1548.04 L1617.6 1543.34 Q1619.68 1544.47 1621.9 1545.03 Q1624.13 1545.58 1626.6 1545.58 Q1630.61 1545.58 1632.95 1543.48 Q1635.28 1541.37 1635.28 1537.76 Q1635.28 1534.15 1632.95 1532.04 Q1630.61 1529.94 1626.6 1529.94 Q1624.73 1529.94 1622.85 1530.35 Q1621 1530.77 1619.06 1531.65 L1619.06 1514.29 Z" fill="#000000" fill-rule="evenodd" fill-opacity="1" /><path clip-path="url(#clip080)" d="M2025.6 1544.91 L2033.24 1544.91 L2033.24 1518.55 L2024.93 1520.21 L2024.93 1515.95 L2033.2 1514.29 L2037.87 1514.29 L2037.87 1544.91 L2045.51 1544.91 L2045.51 1548.85 L2025.6 1548.85 L2025.6 1544.91 Z" fill="#000000" fill-rule="evenodd" fill-opacity="1" /><path clip-path="url(#clip080)" d="M2054.95 1542.97 L2059.84 1542.97 L2059.84 1548.85 L2054.95 1548.85 L2054.95 1542.97 Z" fill="#000000" fill-rule="evenodd" fill-opacity="1" /><path clip-path="url(#clip080)" d="M2080.02 1517.37 Q2076.41 1517.37 2074.58 1520.93 Q2072.78 1524.47 2072.78 1531.6 Q2072.78 1538.71 2074.58 1542.27 Q2076.41 1545.82 2080.02 1545.82 Q2083.66 1545.82 2085.46 1542.27 Q2087.29 1538.71 2087.29 1531.6 Q2087.29 1524.47 2085.46 1520.93 Q2083.66 1517.37 2080.02 1517.37 M2080.02 1513.66 Q2085.83 1513.66 2088.89 1518.27 Q2091.97 1522.85 2091.97 1531.6 Q2091.97 1540.33 2088.89 1544.94 Q2085.83 1549.52 2080.02 1549.52 Q2074.21 1549.52 2071.13 1544.94 Q2068.08 1540.33 2068.08 1531.6 Q2068.08 1522.85 2071.13 1518.27 Q2074.21 1513.66 2080.02 1513.66 Z" fill="#000000" fill-rule="evenodd" fill-opacity="1" /><polyline clip-path="url(#clip082)" style="stroke:#000000; stroke-linecap:butt; stroke-linejoin:round; stroke-width:2; stroke-opacity:0.1; fill:none" points="
  193.936,1445.72 2112.76,1445.72 
  "/>
<polyline clip-path="url(#clip082)" style="stroke:#000000; stroke-linecap:butt; stroke-linejoin:round; stroke-width:2; stroke-opacity:0.1; fill:none" points="
  193.936,1106.28 2112.76,1106.28 
  "/>
<polyline clip-path="url(#clip082)" style="stroke:#000000; stroke-linecap:butt; stroke-linejoin:round; stroke-width:2; stroke-opacity:0.1; fill:none" points="
  193.936,766.846 2112.76,766.846 
  "/>
<polyline clip-path="url(#clip082)" style="stroke:#000000; stroke-linecap:butt; stroke-linejoin:round; stroke-width:2; stroke-opacity:0.1; fill:none" points="
  193.936,427.411 2112.76,427.411 
  "/>
<polyline clip-path="url(#clip082)" style="stroke:#000000; stroke-linecap:butt; stroke-linejoin:round; stroke-width:2; stroke-opacity:0.1; fill:none" points="
  193.936,87.9763 2112.76,87.9763 
  "/>
<polyline clip-path="url(#clip080)" style="stroke:#000000; stroke-linecap:butt; stroke-linejoin:round; stroke-width:4; stroke-opacity:1; fill:none" points="
  193.936,1486.45 193.936,47.2441 
  "/>
<polyline clip-path="url(#clip080)" style="stroke:#000000; stroke-linecap:butt; stroke-linejoin:round; stroke-width:4; stroke-opacity:1; fill:none" points="
  193.936,1445.72 210.733,1445.72 
  "/>
<polyline clip-path="url(#clip080)" style="stroke:#000000; stroke-linecap:butt; stroke-linejoin:round; stroke-width:4; stroke-opacity:1; fill:none" points="
  193.936,1106.28 210.733,1106.28 
  "/>
<polyline clip-path="url(#clip080)" style="stroke:#000000; stroke-linecap:butt; stroke-linejoin:round; stroke-width:4; stroke-opacity:1; fill:none" points="
  193.936,766.846 210.733,766.846 
  "/>
<polyline clip-path="url(#clip080)" style="stroke:#000000; stroke-linecap:butt; stroke-linejoin:round; stroke-width:4; stroke-opacity:1; fill:none" points="
  193.936,427.411 210.733,427.411 
  "/>
<polyline clip-path="url(#clip080)" style="stroke:#000000; stroke-linecap:butt; stroke-linejoin:round; stroke-width:4; stroke-opacity:1; fill:none" points="
  193.936,87.9763 210.733,87.9763 
  "/>
<path clip-path="url(#clip080)" d="M50.9921 1446.17 L80.6679 1446.17 L80.6679 1450.1 L50.9921 1450.1 L50.9921 1446.17 Z" fill="#000000" fill-rule="evenodd" fill-opacity="1" /><path clip-path="url(#clip080)" d="M91.5706 1459.06 L99.2095 1459.06 L99.2095 1432.69 L90.8993 1434.36 L90.8993 1430.1 L99.1632 1428.44 L103.839 1428.44 L103.839 1459.06 L111.478 1459.06 L111.478 1463 L91.5706 1463 L91.5706 1459.06 Z" fill="#000000" fill-rule="evenodd" fill-opacity="1" /><path clip-path="url(#clip080)" d="M120.922 1457.12 L125.807 1457.12 L125.807 1463 L120.922 1463 L120.922 1457.12 Z" fill="#000000" fill-rule="evenodd" fill-opacity="1" /><path clip-path="url(#clip080)" d="M145.992 1431.51 Q142.381 1431.51 140.552 1435.08 Q138.746 1438.62 138.746 1445.75 Q138.746 1452.86 140.552 1456.42 Q142.381 1459.96 145.992 1459.96 Q149.626 1459.96 151.431 1456.42 Q153.26 1452.86 153.26 1445.75 Q153.26 1438.62 151.431 1435.08 Q149.626 1431.51 145.992 1431.51 M145.992 1427.81 Q151.802 1427.81 154.857 1432.42 Q157.936 1437 157.936 1445.75 Q157.936 1454.48 154.857 1459.08 Q151.802 1463.67 145.992 1463.67 Q140.181 1463.67 137.103 1459.08 Q134.047 1454.48 134.047 1445.75 Q134.047 1437 137.103 1432.42 Q140.181 1427.81 145.992 1427.81 Z" fill="#000000" fill-rule="evenodd" fill-opacity="1" /><path clip-path="url(#clip080)" d="M51.9875 1106.73 L81.6633 1106.73 L81.6633 1110.67 L51.9875 1110.67 L51.9875 1106.73 Z" fill="#000000" fill-rule="evenodd" fill-opacity="1" /><path clip-path="url(#clip080)" d="M101.756 1092.08 Q98.1447 1092.08 96.316 1095.64 Q94.5104 1099.19 94.5104 1106.32 Q94.5104 1113.42 96.316 1116.99 Q98.1447 1120.53 101.756 1120.53 Q105.39 1120.53 107.196 1116.99 Q109.024 1113.42 109.024 1106.32 Q109.024 1099.19 107.196 1095.64 Q105.39 1092.08 101.756 1092.08 M101.756 1088.38 Q107.566 1088.38 110.621 1092.98 Q113.7 1097.57 113.7 1106.32 Q113.7 1115.04 110.621 1119.65 Q107.566 1124.23 101.756 1124.23 Q95.9456 1124.23 92.8669 1119.65 Q89.8114 1115.04 89.8114 1106.32 Q89.8114 1097.57 92.8669 1092.98 Q95.9456 1088.38 101.756 1088.38 Z" fill="#000000" fill-rule="evenodd" fill-opacity="1" /><path clip-path="url(#clip080)" d="M121.918 1117.68 L126.802 1117.68 L126.802 1123.56 L121.918 1123.56 L121.918 1117.68 Z" fill="#000000" fill-rule="evenodd" fill-opacity="1" /><path clip-path="url(#clip080)" d="M137.033 1089 L155.39 1089 L155.39 1092.94 L141.316 1092.94 L141.316 1101.41 Q142.334 1101.06 143.353 1100.9 Q144.371 1100.71 145.39 1100.71 Q151.177 1100.71 154.556 1103.89 Q157.936 1107.06 157.936 1112.47 Q157.936 1118.05 154.464 1121.15 Q150.992 1124.23 144.672 1124.23 Q142.496 1124.23 140.228 1123.86 Q137.982 1123.49 135.575 1122.75 L135.575 1118.05 Q137.658 1119.19 139.881 1119.74 Q142.103 1120.3 144.58 1120.3 Q148.584 1120.3 150.922 1118.19 Q153.26 1116.08 153.26 1112.47 Q153.26 1108.86 150.922 1106.76 Q148.584 1104.65 144.58 1104.65 Q142.705 1104.65 140.83 1105.07 Q138.978 1105.48 137.033 1106.36 L137.033 1089 Z" fill="#000000" fill-rule="evenodd" fill-opacity="1" /><path clip-path="url(#clip080)" d="M100.76 752.645 Q97.1493 752.645 95.3206 756.209 Q93.515 759.751 93.515 766.881 Q93.515 773.987 95.3206 777.552 Q97.1493 781.094 100.76 781.094 Q104.395 781.094 106.2 777.552 Q108.029 773.987 108.029 766.881 Q108.029 759.751 106.2 756.209 Q104.395 752.645 100.76 752.645 M100.76 748.941 Q106.571 748.941 109.626 753.547 Q112.705 758.131 112.705 766.881 Q112.705 775.608 109.626 780.214 Q106.571 784.797 100.76 784.797 Q94.9502 784.797 91.8715 780.214 Q88.816 775.608 88.816 766.881 Q88.816 758.131 91.8715 753.547 Q94.9502 748.941 100.76 748.941 Z" fill="#000000" fill-rule="evenodd" fill-opacity="1" /><path clip-path="url(#clip080)" d="M120.922 778.246 L125.807 778.246 L125.807 784.126 L120.922 784.126 L120.922 778.246 Z" fill="#000000" fill-rule="evenodd" fill-opacity="1" /><path clip-path="url(#clip080)" d="M145.992 752.645 Q142.381 752.645 140.552 756.209 Q138.746 759.751 138.746 766.881 Q138.746 773.987 140.552 777.552 Q142.381 781.094 145.992 781.094 Q149.626 781.094 151.431 777.552 Q153.26 773.987 153.26 766.881 Q153.26 759.751 151.431 756.209 Q149.626 752.645 145.992 752.645 M145.992 748.941 Q151.802 748.941 154.857 753.547 Q157.936 758.131 157.936 766.881 Q157.936 775.608 154.857 780.214 Q151.802 784.797 145.992 784.797 Q140.181 784.797 137.103 780.214 Q134.047 775.608 134.047 766.881 Q134.047 758.131 137.103 753.547 Q140.181 748.941 145.992 748.941 Z" fill="#000000" fill-rule="evenodd" fill-opacity="1" /><path clip-path="url(#clip080)" d="M101.756 413.21 Q98.1447 413.21 96.316 416.775 Q94.5104 420.316 94.5104 427.446 Q94.5104 434.552 96.316 438.117 Q98.1447 441.659 101.756 441.659 Q105.39 441.659 107.196 438.117 Q109.024 434.552 109.024 427.446 Q109.024 420.316 107.196 416.775 Q105.39 413.21 101.756 413.21 M101.756 409.506 Q107.566 409.506 110.621 414.113 Q113.7 418.696 113.7 427.446 Q113.7 436.173 110.621 440.779 Q107.566 445.362 101.756 445.362 Q95.9456 445.362 92.8669 440.779 Q89.8114 436.173 89.8114 427.446 Q89.8114 418.696 92.8669 414.113 Q95.9456 409.506 101.756 409.506 Z" fill="#000000" fill-rule="evenodd" fill-opacity="1" /><path clip-path="url(#clip080)" d="M121.918 438.812 L126.802 438.812 L126.802 444.691 L121.918 444.691 L121.918 438.812 Z" fill="#000000" fill-rule="evenodd" fill-opacity="1" /><path clip-path="url(#clip080)" d="M137.033 410.131 L155.39 410.131 L155.39 414.066 L141.316 414.066 L141.316 422.538 Q142.334 422.191 143.353 422.029 Q144.371 421.844 145.39 421.844 Q151.177 421.844 154.556 425.015 Q157.936 428.187 157.936 433.603 Q157.936 439.182 154.464 442.284 Q150.992 445.362 144.672 445.362 Q142.496 445.362 140.228 444.992 Q137.982 444.622 135.575 443.881 L135.575 439.182 Q137.658 440.316 139.881 440.872 Q142.103 441.427 144.58 441.427 Q148.584 441.427 150.922 439.321 Q153.26 437.214 153.26 433.603 Q153.26 429.992 150.922 427.886 Q148.584 425.779 144.58 425.779 Q142.705 425.779 140.83 426.196 Q138.978 426.613 137.033 427.492 L137.033 410.131 Z" fill="#000000" fill-rule="evenodd" fill-opacity="1" /><path clip-path="url(#clip080)" d="M91.5706 101.321 L99.2095 101.321 L99.2095 74.9555 L90.8993 76.6222 L90.8993 72.3629 L99.1632 70.6963 L103.839 70.6963 L103.839 101.321 L111.478 101.321 L111.478 105.256 L91.5706 105.256 L91.5706 101.321 Z" fill="#000000" fill-rule="evenodd" fill-opacity="1" /><path clip-path="url(#clip080)" d="M120.922 99.3767 L125.807 99.3767 L125.807 105.256 L120.922 105.256 L120.922 99.3767 Z" fill="#000000" fill-rule="evenodd" fill-opacity="1" /><path clip-path="url(#clip080)" d="M145.992 73.775 Q142.381 73.775 140.552 77.3398 Q138.746 80.8814 138.746 88.011 Q138.746 95.1174 140.552 98.6822 Q142.381 102.224 145.992 102.224 Q149.626 102.224 151.431 98.6822 Q153.26 95.1174 153.26 88.011 Q153.26 80.8814 151.431 77.3398 Q149.626 73.775 145.992 73.775 M145.992 70.0713 Q151.802 70.0713 154.857 74.6777 Q157.936 79.261 157.936 88.011 Q157.936 96.7378 154.857 101.344 Q151.802 105.928 145.992 105.928 Q140.181 105.928 137.103 101.344 Q134.047 96.7378 134.047 88.011 Q134.047 79.261 137.103 74.6777 Q140.181 70.0713 145.992 70.0713 Z" fill="#000000" fill-rule="evenodd" fill-opacity="1" /><polyline clip-path="url(#clip082)" style="stroke:#009af9; stroke-linecap:butt; stroke-linejoin:round; stroke-width:12; stroke-opacity:1; fill:none" points="
  1967.94,155.863 1870.19,1292.29 1869.21,378.75 1795.21,1109.54 1784.11,521.577 1726.65,991.447 1710.22,612.965 1664.5,915.011 1645.68,671.317 1608.5,865.426 
  1589.07,708.465 1558.26,833.159 1539.27,732.017 1513.33,812.076 1495.35,746.862 1473.23,798.224 1456.55,756.139 1437.5,789.056 1422.23,761.865 1405.69,782.931 
  1391.84,765.334 1377.41,778.788 1364.92,767.376 1352.27,775.944 1341.06,768.52 1329.93,773.955 1319.91,769.106 1310.09,772.534 1301.14,769.35 1292.48,771.494 
  1284.5,769.389 1276.83,770.714 1269.73,769.309 1262.95,770.114 1256.63,769.164 1250.62,769.639 1245.01,768.989 1239.68,769.257 1234.69,768.803 1229.97,768.941 
  1225.54,768.618 1221.35,768.677 1217.42,768.441 1213.7,768.453 1210.21,768.276 1206.91,768.261 1203.81,768.125 1200.88,768.094 1198.13,767.987 1195.53,767.949 
  1193.09,767.862 1190.79,767.821 1188.62,767.751 1186.58,767.71 1184.65,767.65 1182.84,767.611 1181.13,767.561 1179.52,767.524 1178,767.481 1176.57,767.447 
  1175.23,767.41 1173.96,767.379 1172.77,767.347 1171.64,767.319 1170.58,767.291 1169.58,767.266 1168.64,767.241 1167.76,767.218 1166.92,767.196 1166.13,767.177 
  1165.39,767.157 1164.7,767.139 1164.04,767.122 1163.42,767.106 1162.84,767.091 1162.29,767.077 1161.77,767.064 1161.28,767.051 1160.82,767.039 1160.39,767.028 
  1159.98,767.017 1159.59,767.007 1159.23,766.998 1158.89,766.989 1158.57,766.981 1158.27,766.973 1157.98,766.966 1157.71,766.959 1157.46,766.952 1157.22,766.946 
  1157,766.94 1156.79,766.935 1156.59,766.93 1156.4,766.925 1156.22,766.92 1156.06,766.916 1155.9,766.912 1155.75,766.908 1155.61,766.905 1155.48,766.901 
  1155.36,766.898 1155.24,766.895 1155.13,766.892 1155.03,766.889 1154.93,766.887 1154.84,766.885 1154.75,766.882 1154.67,766.88 1154.59,766.878 1154.52,766.876 
  1154.45,766.875 1154.39,766.873 1154.33,766.871 1154.27,766.87 1154.22,766.869 1154.17,766.867 1154.12,766.866 1154.07,766.865 1154.03,766.864 1153.99,766.863 
  1153.96,766.862 1153.92,766.861 1153.89,766.86 1153.86,766.859 1153.83,766.858 1153.8,766.858 1153.77,766.857 1153.75,766.856 1153.72,766.856 1153.7,766.855 
  1153.68,766.855 1153.66,766.854 1153.64,766.854 1153.63,766.853 1153.61,766.853 1153.59,766.852 1153.58,766.852 1153.57,766.852 1153.55,766.851 1153.54,766.851 
  1153.53,766.851 1153.52,766.85 1153.51,766.85 1153.5,766.85 1153.49,766.85 1153.48,766.85 1153.48,766.849 1153.47,766.849 1153.46,766.849 1153.45,766.849 
  1153.45,766.849 1153.44,766.848 1153.44,766.848 1153.43,766.848 1153.43,766.848 1153.42,766.848 1153.42,766.848 1153.41,766.848 1153.41,766.848 1153.41,766.848 
  1153.4,766.847 1153.4,766.847 1153.4,766.847 1153.39,766.847 1153.39,766.847 1153.39,766.847 1153.39,766.847 1153.38,766.847 1153.38,766.847 1153.38,766.847 
  1153.38,766.847 1153.38,766.847 1153.37,766.847 1153.37,766.847 1153.37,766.847 1153.37,766.847 1153.37,766.847 1153.37,766.847 1153.37,766.846 1153.36,766.846 
  1153.36,766.846 1153.36,766.846 1153.36,766.846 1153.36,766.846 1153.36,766.846 1153.36,766.846 1153.36,766.846 1153.36,766.846 1153.36,766.846 1153.36,766.846 
  1153.36,766.846 1153.35,766.846 
  "/>
<circle clip-path="url(#clip082)" cx="1967.94" cy="155.863" r="14.4" fill="#009af9" fill-rule="evenodd" fill-opacity="1" stroke="#000000" stroke-opacity="1" stroke-width="3.2"/>
<circle clip-path="url(#clip082)" cx="1870.19" cy="1292.29" r="14.4" fill="#009af9" fill-rule="evenodd" fill-opacity="1" stroke="#000000" stroke-opacity="1" stroke-width="3.2"/>
<circle clip-path="url(#clip082)" cx="1869.21" cy="378.75" r="14.4" fill="#009af9" fill-rule="evenodd" fill-opacity="1" stroke="#000000" stroke-opacity="1" stroke-width="3.2"/>
<circle clip-path="url(#clip082)" cx="1795.21" cy="1109.54" r="14.4" fill="#009af9" fill-rule="evenodd" fill-opacity="1" stroke="#000000" stroke-opacity="1" stroke-width="3.2"/>
<circle clip-path="url(#clip082)" cx="1784.11" cy="521.577" r="14.4" fill="#009af9" fill-rule="evenodd" fill-opacity="1" stroke="#000000" stroke-opacity="1" stroke-width="3.2"/>
<circle clip-path="url(#clip082)" cx="1726.65" cy="991.447" r="14.4" fill="#009af9" fill-rule="evenodd" fill-opacity="1" stroke="#000000" stroke-opacity="1" stroke-width="3.2"/>
<circle clip-path="url(#clip082)" cx="1710.22" cy="612.965" r="14.4" fill="#009af9" fill-rule="evenodd" fill-opacity="1" stroke="#000000" stroke-opacity="1" stroke-width="3.2"/>
<circle clip-path="url(#clip082)" cx="1664.5" cy="915.011" r="14.4" fill="#009af9" fill-rule="evenodd" fill-opacity="1" stroke="#000000" stroke-opacity="1" stroke-width="3.2"/>
<circle clip-path="url(#clip082)" cx="1645.68" cy="671.317" r="14.4" fill="#009af9" fill-rule="evenodd" fill-opacity="1" stroke="#000000" stroke-opacity="1" stroke-width="3.2"/>
<circle clip-path="url(#clip082)" cx="1608.5" cy="865.426" r="14.4" fill="#009af9" fill-rule="evenodd" fill-opacity="1" stroke="#000000" stroke-opacity="1" stroke-width="3.2"/>
<circle clip-path="url(#clip082)" cx="1589.07" cy="708.465" r="14.4" fill="#009af9" fill-rule="evenodd" fill-opacity="1" stroke="#000000" stroke-opacity="1" stroke-width="3.2"/>
<circle clip-path="url(#clip082)" cx="1558.26" cy="833.159" r="14.4" fill="#009af9" fill-rule="evenodd" fill-opacity="1" stroke="#000000" stroke-opacity="1" stroke-width="3.2"/>
<circle clip-path="url(#clip082)" cx="1539.27" cy="732.017" r="14.4" fill="#009af9" fill-rule="evenodd" fill-opacity="1" stroke="#000000" stroke-opacity="1" stroke-width="3.2"/>
<circle clip-path="url(#clip082)" cx="1513.33" cy="812.076" r="14.4" fill="#009af9" fill-rule="evenodd" fill-opacity="1" stroke="#000000" stroke-opacity="1" stroke-width="3.2"/>
<circle clip-path="url(#clip082)" cx="1495.35" cy="746.862" r="14.4" fill="#009af9" fill-rule="evenodd" fill-opacity="1" stroke="#000000" stroke-opacity="1" stroke-width="3.2"/>
<circle clip-path="url(#clip082)" cx="1473.23" cy="798.224" r="14.4" fill="#009af9" fill-rule="evenodd" fill-opacity="1" stroke="#000000" stroke-opacity="1" stroke-width="3.2"/>
<circle clip-path="url(#clip082)" cx="1456.55" cy="756.139" r="14.4" fill="#009af9" fill-rule="evenodd" fill-opacity="1" stroke="#000000" stroke-opacity="1" stroke-width="3.2"/>
<circle clip-path="url(#clip082)" cx="1437.5" cy="789.056" r="14.4" fill="#009af9" fill-rule="evenodd" fill-opacity="1" stroke="#000000" stroke-opacity="1" stroke-width="3.2"/>
<circle clip-path="url(#clip082)" cx="1422.23" cy="761.865" r="14.4" fill="#009af9" fill-rule="evenodd" fill-opacity="1" stroke="#000000" stroke-opacity="1" stroke-width="3.2"/>
<circle clip-path="url(#clip082)" cx="1405.69" cy="782.931" r="14.4" fill="#009af9" fill-rule="evenodd" fill-opacity="1" stroke="#000000" stroke-opacity="1" stroke-width="3.2"/>
<circle clip-path="url(#clip082)" cx="1391.84" cy="765.334" r="14.4" fill="#009af9" fill-rule="evenodd" fill-opacity="1" stroke="#000000" stroke-opacity="1" stroke-width="3.2"/>
<circle clip-path="url(#clip082)" cx="1377.41" cy="778.788" r="14.4" fill="#009af9" fill-rule="evenodd" fill-opacity="1" stroke="#000000" stroke-opacity="1" stroke-width="3.2"/>
<circle clip-path="url(#clip082)" cx="1364.92" cy="767.376" r="14.4" fill="#009af9" fill-rule="evenodd" fill-opacity="1" stroke="#000000" stroke-opacity="1" stroke-width="3.2"/>
<circle clip-path="url(#clip082)" cx="1352.27" cy="775.944" r="14.4" fill="#009af9" fill-rule="evenodd" fill-opacity="1" stroke="#000000" stroke-opacity="1" stroke-width="3.2"/>
<circle clip-path="url(#clip082)" cx="1341.06" cy="768.52" r="14.4" fill="#009af9" fill-rule="evenodd" fill-opacity="1" stroke="#000000" stroke-opacity="1" stroke-width="3.2"/>
<circle clip-path="url(#clip082)" cx="1329.93" cy="773.955" r="14.4" fill="#009af9" fill-rule="evenodd" fill-opacity="1" stroke="#000000" stroke-opacity="1" stroke-width="3.2"/>
<circle clip-path="url(#clip082)" cx="1319.91" cy="769.106" r="14.4" fill="#009af9" fill-rule="evenodd" fill-opacity="1" stroke="#000000" stroke-opacity="1" stroke-width="3.2"/>
<circle clip-path="url(#clip082)" cx="1310.09" cy="772.534" r="14.4" fill="#009af9" fill-rule="evenodd" fill-opacity="1" stroke="#000000" stroke-opacity="1" stroke-width="3.2"/>
<circle clip-path="url(#clip082)" cx="1301.14" cy="769.35" r="14.4" fill="#009af9" fill-rule="evenodd" fill-opacity="1" stroke="#000000" stroke-opacity="1" stroke-width="3.2"/>
<circle clip-path="url(#clip082)" cx="1292.48" cy="771.494" r="14.4" fill="#009af9" fill-rule="evenodd" fill-opacity="1" stroke="#000000" stroke-opacity="1" stroke-width="3.2"/>
<circle clip-path="url(#clip082)" cx="1284.5" cy="769.389" r="14.4" fill="#009af9" fill-rule="evenodd" fill-opacity="1" stroke="#000000" stroke-opacity="1" stroke-width="3.2"/>
<circle clip-path="url(#clip082)" cx="1276.83" cy="770.714" r="14.4" fill="#009af9" fill-rule="evenodd" fill-opacity="1" stroke="#000000" stroke-opacity="1" stroke-width="3.2"/>
<circle clip-path="url(#clip082)" cx="1269.73" cy="769.309" r="14.4" fill="#009af9" fill-rule="evenodd" fill-opacity="1" stroke="#000000" stroke-opacity="1" stroke-width="3.2"/>
<circle clip-path="url(#clip082)" cx="1262.95" cy="770.114" r="14.4" fill="#009af9" fill-rule="evenodd" fill-opacity="1" stroke="#000000" stroke-opacity="1" stroke-width="3.2"/>
<circle clip-path="url(#clip082)" cx="1256.63" cy="769.164" r="14.4" fill="#009af9" fill-rule="evenodd" fill-opacity="1" stroke="#000000" stroke-opacity="1" stroke-width="3.2"/>
<circle clip-path="url(#clip082)" cx="1250.62" cy="769.639" r="14.4" fill="#009af9" fill-rule="evenodd" fill-opacity="1" stroke="#000000" stroke-opacity="1" stroke-width="3.2"/>
<circle clip-path="url(#clip082)" cx="1245.01" cy="768.989" r="14.4" fill="#009af9" fill-rule="evenodd" fill-opacity="1" stroke="#000000" stroke-opacity="1" stroke-width="3.2"/>
<circle clip-path="url(#clip082)" cx="1239.68" cy="769.257" r="14.4" fill="#009af9" fill-rule="evenodd" fill-opacity="1" stroke="#000000" stroke-opacity="1" stroke-width="3.2"/>
<circle clip-path="url(#clip082)" cx="1234.69" cy="768.803" r="14.4" fill="#009af9" fill-rule="evenodd" fill-opacity="1" stroke="#000000" stroke-opacity="1" stroke-width="3.2"/>
<circle clip-path="url(#clip082)" cx="1229.97" cy="768.941" r="14.4" fill="#009af9" fill-rule="evenodd" fill-opacity="1" stroke="#000000" stroke-opacity="1" stroke-width="3.2"/>
<circle clip-path="url(#clip082)" cx="1225.54" cy="768.618" r="14.4" fill="#009af9" fill-rule="evenodd" fill-opacity="1" stroke="#000000" stroke-opacity="1" stroke-width="3.2"/>
<circle clip-path="url(#clip082)" cx="1221.35" cy="768.677" r="14.4" fill="#009af9" fill-rule="evenodd" fill-opacity="1" stroke="#000000" stroke-opacity="1" stroke-width="3.2"/>
<circle clip-path="url(#clip082)" cx="1217.42" cy="768.441" r="14.4" fill="#009af9" fill-rule="evenodd" fill-opacity="1" stroke="#000000" stroke-opacity="1" stroke-width="3.2"/>
<circle clip-path="url(#clip082)" cx="1213.7" cy="768.453" r="14.4" fill="#009af9" fill-rule="evenodd" fill-opacity="1" stroke="#000000" stroke-opacity="1" stroke-width="3.2"/>
<circle clip-path="url(#clip082)" cx="1210.21" cy="768.276" r="14.4" fill="#009af9" fill-rule="evenodd" fill-opacity="1" stroke="#000000" stroke-opacity="1" stroke-width="3.2"/>
<circle clip-path="url(#clip082)" cx="1206.91" cy="768.261" r="14.4" fill="#009af9" fill-rule="evenodd" fill-opacity="1" stroke="#000000" stroke-opacity="1" stroke-width="3.2"/>
<circle clip-path="url(#clip082)" cx="1203.81" cy="768.125" r="14.4" fill="#009af9" fill-rule="evenodd" fill-opacity="1" stroke="#000000" stroke-opacity="1" stroke-width="3.2"/>
<circle clip-path="url(#clip082)" cx="1200.88" cy="768.094" r="14.4" fill="#009af9" fill-rule="evenodd" fill-opacity="1" stroke="#000000" stroke-opacity="1" stroke-width="3.2"/>
<circle clip-path="url(#clip082)" cx="1198.13" cy="767.987" r="14.4" fill="#009af9" fill-rule="evenodd" fill-opacity="1" stroke="#000000" stroke-opacity="1" stroke-width="3.2"/>
<circle clip-path="url(#clip082)" cx="1195.53" cy="767.949" r="14.4" fill="#009af9" fill-rule="evenodd" fill-opacity="1" stroke="#000000" stroke-opacity="1" stroke-width="3.2"/>
<circle clip-path="url(#clip082)" cx="1193.09" cy="767.862" r="14.4" fill="#009af9" fill-rule="evenodd" fill-opacity="1" stroke="#000000" stroke-opacity="1" stroke-width="3.2"/>
<circle clip-path="url(#clip082)" cx="1190.79" cy="767.821" r="14.4" fill="#009af9" fill-rule="evenodd" fill-opacity="1" stroke="#000000" stroke-opacity="1" stroke-width="3.2"/>
<circle clip-path="url(#clip082)" cx="1188.62" cy="767.751" r="14.4" fill="#009af9" fill-rule="evenodd" fill-opacity="1" stroke="#000000" stroke-opacity="1" stroke-width="3.2"/>
<circle clip-path="url(#clip082)" cx="1186.58" cy="767.71" r="14.4" fill="#009af9" fill-rule="evenodd" fill-opacity="1" stroke="#000000" stroke-opacity="1" stroke-width="3.2"/>
<circle clip-path="url(#clip082)" cx="1184.65" cy="767.65" r="14.4" fill="#009af9" fill-rule="evenodd" fill-opacity="1" stroke="#000000" stroke-opacity="1" stroke-width="3.2"/>
<circle clip-path="url(#clip082)" cx="1182.84" cy="767.611" r="14.4" fill="#009af9" fill-rule="evenodd" fill-opacity="1" stroke="#000000" stroke-opacity="1" stroke-width="3.2"/>
<circle clip-path="url(#clip082)" cx="1181.13" cy="767.561" r="14.4" fill="#009af9" fill-rule="evenodd" fill-opacity="1" stroke="#000000" stroke-opacity="1" stroke-width="3.2"/>
<circle clip-path="url(#clip082)" cx="1179.52" cy="767.524" r="14.4" fill="#009af9" fill-rule="evenodd" fill-opacity="1" stroke="#000000" stroke-opacity="1" stroke-width="3.2"/>
<circle clip-path="url(#clip082)" cx="1178" cy="767.481" r="14.4" fill="#009af9" fill-rule="evenodd" fill-opacity="1" stroke="#000000" stroke-opacity="1" stroke-width="3.2"/>
<circle clip-path="url(#clip082)" cx="1176.57" cy="767.447" r="14.4" fill="#009af9" fill-rule="evenodd" fill-opacity="1" stroke="#000000" stroke-opacity="1" stroke-width="3.2"/>
<circle clip-path="url(#clip082)" cx="1175.23" cy="767.41" r="14.4" fill="#009af9" fill-rule="evenodd" fill-opacity="1" stroke="#000000" stroke-opacity="1" stroke-width="3.2"/>
<circle clip-path="url(#clip082)" cx="1173.96" cy="767.379" r="14.4" fill="#009af9" fill-rule="evenodd" fill-opacity="1" stroke="#000000" stroke-opacity="1" stroke-width="3.2"/>
<circle clip-path="url(#clip082)" cx="1172.77" cy="767.347" r="14.4" fill="#009af9" fill-rule="evenodd" fill-opacity="1" stroke="#000000" stroke-opacity="1" stroke-width="3.2"/>
<circle clip-path="url(#clip082)" cx="1171.64" cy="767.319" r="14.4" fill="#009af9" fill-rule="evenodd" fill-opacity="1" stroke="#000000" stroke-opacity="1" stroke-width="3.2"/>
<circle clip-path="url(#clip082)" cx="1170.58" cy="767.291" r="14.4" fill="#009af9" fill-rule="evenodd" fill-opacity="1" stroke="#000000" stroke-opacity="1" stroke-width="3.2"/>
<circle clip-path="url(#clip082)" cx="1169.58" cy="767.266" r="14.4" fill="#009af9" fill-rule="evenodd" fill-opacity="1" stroke="#000000" stroke-opacity="1" stroke-width="3.2"/>
<circle clip-path="url(#clip082)" cx="1168.64" cy="767.241" r="14.4" fill="#009af9" fill-rule="evenodd" fill-opacity="1" stroke="#000000" stroke-opacity="1" stroke-width="3.2"/>
<circle clip-path="url(#clip082)" cx="1167.76" cy="767.218" r="14.4" fill="#009af9" fill-rule="evenodd" fill-opacity="1" stroke="#000000" stroke-opacity="1" stroke-width="3.2"/>
<circle clip-path="url(#clip082)" cx="1166.92" cy="767.196" r="14.4" fill="#009af9" fill-rule="evenodd" fill-opacity="1" stroke="#000000" stroke-opacity="1" stroke-width="3.2"/>
<circle clip-path="url(#clip082)" cx="1166.13" cy="767.177" r="14.4" fill="#009af9" fill-rule="evenodd" fill-opacity="1" stroke="#000000" stroke-opacity="1" stroke-width="3.2"/>
<circle clip-path="url(#clip082)" cx="1165.39" cy="767.157" r="14.4" fill="#009af9" fill-rule="evenodd" fill-opacity="1" stroke="#000000" stroke-opacity="1" stroke-width="3.2"/>
<circle clip-path="url(#clip082)" cx="1164.7" cy="767.139" r="14.4" fill="#009af9" fill-rule="evenodd" fill-opacity="1" stroke="#000000" stroke-opacity="1" stroke-width="3.2"/>
<circle clip-path="url(#clip082)" cx="1164.04" cy="767.122" r="14.4" fill="#009af9" fill-rule="evenodd" fill-opacity="1" stroke="#000000" stroke-opacity="1" stroke-width="3.2"/>
<circle clip-path="url(#clip082)" cx="1163.42" cy="767.106" r="14.4" fill="#009af9" fill-rule="evenodd" fill-opacity="1" stroke="#000000" stroke-opacity="1" stroke-width="3.2"/>
<circle clip-path="url(#clip082)" cx="1162.84" cy="767.091" r="14.4" fill="#009af9" fill-rule="evenodd" fill-opacity="1" stroke="#000000" stroke-opacity="1" stroke-width="3.2"/>
<circle clip-path="url(#clip082)" cx="1162.29" cy="767.077" r="14.4" fill="#009af9" fill-rule="evenodd" fill-opacity="1" stroke="#000000" stroke-opacity="1" stroke-width="3.2"/>
<circle clip-path="url(#clip082)" cx="1161.77" cy="767.064" r="14.4" fill="#009af9" fill-rule="evenodd" fill-opacity="1" stroke="#000000" stroke-opacity="1" stroke-width="3.2"/>
<circle clip-path="url(#clip082)" cx="1161.28" cy="767.051" r="14.4" fill="#009af9" fill-rule="evenodd" fill-opacity="1" stroke="#000000" stroke-opacity="1" stroke-width="3.2"/>
<circle clip-path="url(#clip082)" cx="1160.82" cy="767.039" r="14.4" fill="#009af9" fill-rule="evenodd" fill-opacity="1" stroke="#000000" stroke-opacity="1" stroke-width="3.2"/>
<circle clip-path="url(#clip082)" cx="1160.39" cy="767.028" r="14.4" fill="#009af9" fill-rule="evenodd" fill-opacity="1" stroke="#000000" stroke-opacity="1" stroke-width="3.2"/>
<circle clip-path="url(#clip082)" cx="1159.98" cy="767.017" r="14.4" fill="#009af9" fill-rule="evenodd" fill-opacity="1" stroke="#000000" stroke-opacity="1" stroke-width="3.2"/>
<circle clip-path="url(#clip082)" cx="1159.59" cy="767.007" r="14.4" fill="#009af9" fill-rule="evenodd" fill-opacity="1" stroke="#000000" stroke-opacity="1" stroke-width="3.2"/>
<circle clip-path="url(#clip082)" cx="1159.23" cy="766.998" r="14.4" fill="#009af9" fill-rule="evenodd" fill-opacity="1" stroke="#000000" stroke-opacity="1" stroke-width="3.2"/>
<circle clip-path="url(#clip082)" cx="1158.89" cy="766.989" r="14.4" fill="#009af9" fill-rule="evenodd" fill-opacity="1" stroke="#000000" stroke-opacity="1" stroke-width="3.2"/>
<circle clip-path="url(#clip082)" cx="1158.57" cy="766.981" r="14.4" fill="#009af9" fill-rule="evenodd" fill-opacity="1" stroke="#000000" stroke-opacity="1" stroke-width="3.2"/>
<circle clip-path="url(#clip082)" cx="1158.27" cy="766.973" r="14.4" fill="#009af9" fill-rule="evenodd" fill-opacity="1" stroke="#000000" stroke-opacity="1" stroke-width="3.2"/>
<circle clip-path="url(#clip082)" cx="1157.98" cy="766.966" r="14.4" fill="#009af9" fill-rule="evenodd" fill-opacity="1" stroke="#000000" stroke-opacity="1" stroke-width="3.2"/>
<circle clip-path="url(#clip082)" cx="1157.71" cy="766.959" r="14.4" fill="#009af9" fill-rule="evenodd" fill-opacity="1" stroke="#000000" stroke-opacity="1" stroke-width="3.2"/>
<circle clip-path="url(#clip082)" cx="1157.46" cy="766.952" r="14.4" fill="#009af9" fill-rule="evenodd" fill-opacity="1" stroke="#000000" stroke-opacity="1" stroke-width="3.2"/>
<circle clip-path="url(#clip082)" cx="1157.22" cy="766.946" r="14.4" fill="#009af9" fill-rule="evenodd" fill-opacity="1" stroke="#000000" stroke-opacity="1" stroke-width="3.2"/>
<circle clip-path="url(#clip082)" cx="1157" cy="766.94" r="14.4" fill="#009af9" fill-rule="evenodd" fill-opacity="1" stroke="#000000" stroke-opacity="1" stroke-width="3.2"/>
<circle clip-path="url(#clip082)" cx="1156.79" cy="766.935" r="14.4" fill="#009af9" fill-rule="evenodd" fill-opacity="1" stroke="#000000" stroke-opacity="1" stroke-width="3.2"/>
<circle clip-path="url(#clip082)" cx="1156.59" cy="766.93" r="14.4" fill="#009af9" fill-rule="evenodd" fill-opacity="1" stroke="#000000" stroke-opacity="1" stroke-width="3.2"/>
<circle clip-path="url(#clip082)" cx="1156.4" cy="766.925" r="14.4" fill="#009af9" fill-rule="evenodd" fill-opacity="1" stroke="#000000" stroke-opacity="1" stroke-width="3.2"/>
<circle clip-path="url(#clip082)" cx="1156.22" cy="766.92" r="14.4" fill="#009af9" fill-rule="evenodd" fill-opacity="1" stroke="#000000" stroke-opacity="1" stroke-width="3.2"/>
<circle clip-path="url(#clip082)" cx="1156.06" cy="766.916" r="14.4" fill="#009af9" fill-rule="evenodd" fill-opacity="1" stroke="#000000" stroke-opacity="1" stroke-width="3.2"/>
<circle clip-path="url(#clip082)" cx="1155.9" cy="766.912" r="14.4" fill="#009af9" fill-rule="evenodd" fill-opacity="1" stroke="#000000" stroke-opacity="1" stroke-width="3.2"/>
<circle clip-path="url(#clip082)" cx="1155.75" cy="766.908" r="14.4" fill="#009af9" fill-rule="evenodd" fill-opacity="1" stroke="#000000" stroke-opacity="1" stroke-width="3.2"/>
<circle clip-path="url(#clip082)" cx="1155.61" cy="766.905" r="14.4" fill="#009af9" fill-rule="evenodd" fill-opacity="1" stroke="#000000" stroke-opacity="1" stroke-width="3.2"/>
<circle clip-path="url(#clip082)" cx="1155.48" cy="766.901" r="14.4" fill="#009af9" fill-rule="evenodd" fill-opacity="1" stroke="#000000" stroke-opacity="1" stroke-width="3.2"/>
<circle clip-path="url(#clip082)" cx="1155.36" cy="766.898" r="14.4" fill="#009af9" fill-rule="evenodd" fill-opacity="1" stroke="#000000" stroke-opacity="1" stroke-width="3.2"/>
<circle clip-path="url(#clip082)" cx="1155.24" cy="766.895" r="14.4" fill="#009af9" fill-rule="evenodd" fill-opacity="1" stroke="#000000" stroke-opacity="1" stroke-width="3.2"/>
<circle clip-path="url(#clip082)" cx="1155.13" cy="766.892" r="14.4" fill="#009af9" fill-rule="evenodd" fill-opacity="1" stroke="#000000" stroke-opacity="1" stroke-width="3.2"/>
<circle clip-path="url(#clip082)" cx="1155.03" cy="766.889" r="14.4" fill="#009af9" fill-rule="evenodd" fill-opacity="1" stroke="#000000" stroke-opacity="1" stroke-width="3.2"/>
<circle clip-path="url(#clip082)" cx="1154.93" cy="766.887" r="14.4" fill="#009af9" fill-rule="evenodd" fill-opacity="1" stroke="#000000" stroke-opacity="1" stroke-width="3.2"/>
<circle clip-path="url(#clip082)" cx="1154.84" cy="766.885" r="14.4" fill="#009af9" fill-rule="evenodd" fill-opacity="1" stroke="#000000" stroke-opacity="1" stroke-width="3.2"/>
<circle clip-path="url(#clip082)" cx="1154.75" cy="766.882" r="14.4" fill="#009af9" fill-rule="evenodd" fill-opacity="1" stroke="#000000" stroke-opacity="1" stroke-width="3.2"/>
<circle clip-path="url(#clip082)" cx="1154.67" cy="766.88" r="14.4" fill="#009af9" fill-rule="evenodd" fill-opacity="1" stroke="#000000" stroke-opacity="1" stroke-width="3.2"/>
<circle clip-path="url(#clip082)" cx="1154.59" cy="766.878" r="14.4" fill="#009af9" fill-rule="evenodd" fill-opacity="1" stroke="#000000" stroke-opacity="1" stroke-width="3.2"/>
<circle clip-path="url(#clip082)" cx="1154.52" cy="766.876" r="14.4" fill="#009af9" fill-rule="evenodd" fill-opacity="1" stroke="#000000" stroke-opacity="1" stroke-width="3.2"/>
<circle clip-path="url(#clip082)" cx="1154.45" cy="766.875" r="14.4" fill="#009af9" fill-rule="evenodd" fill-opacity="1" stroke="#000000" stroke-opacity="1" stroke-width="3.2"/>
<circle clip-path="url(#clip082)" cx="1154.39" cy="766.873" r="14.4" fill="#009af9" fill-rule="evenodd" fill-opacity="1" stroke="#000000" stroke-opacity="1" stroke-width="3.2"/>
<circle clip-path="url(#clip082)" cx="1154.33" cy="766.871" r="14.4" fill="#009af9" fill-rule="evenodd" fill-opacity="1" stroke="#000000" stroke-opacity="1" stroke-width="3.2"/>
<circle clip-path="url(#clip082)" cx="1154.27" cy="766.87" r="14.4" fill="#009af9" fill-rule="evenodd" fill-opacity="1" stroke="#000000" stroke-opacity="1" stroke-width="3.2"/>
<circle clip-path="url(#clip082)" cx="1154.22" cy="766.869" r="14.4" fill="#009af9" fill-rule="evenodd" fill-opacity="1" stroke="#000000" stroke-opacity="1" stroke-width="3.2"/>
<circle clip-path="url(#clip082)" cx="1154.17" cy="766.867" r="14.4" fill="#009af9" fill-rule="evenodd" fill-opacity="1" stroke="#000000" stroke-opacity="1" stroke-width="3.2"/>
<circle clip-path="url(#clip082)" cx="1154.12" cy="766.866" r="14.4" fill="#009af9" fill-rule="evenodd" fill-opacity="1" stroke="#000000" stroke-opacity="1" stroke-width="3.2"/>
<circle clip-path="url(#clip082)" cx="1154.07" cy="766.865" r="14.4" fill="#009af9" fill-rule="evenodd" fill-opacity="1" stroke="#000000" stroke-opacity="1" stroke-width="3.2"/>
<circle clip-path="url(#clip082)" cx="1154.03" cy="766.864" r="14.4" fill="#009af9" fill-rule="evenodd" fill-opacity="1" stroke="#000000" stroke-opacity="1" stroke-width="3.2"/>
<circle clip-path="url(#clip082)" cx="1153.99" cy="766.863" r="14.4" fill="#009af9" fill-rule="evenodd" fill-opacity="1" stroke="#000000" stroke-opacity="1" stroke-width="3.2"/>
<circle clip-path="url(#clip082)" cx="1153.96" cy="766.862" r="14.4" fill="#009af9" fill-rule="evenodd" fill-opacity="1" stroke="#000000" stroke-opacity="1" stroke-width="3.2"/>
<circle clip-path="url(#clip082)" cx="1153.92" cy="766.861" r="14.4" fill="#009af9" fill-rule="evenodd" fill-opacity="1" stroke="#000000" stroke-opacity="1" stroke-width="3.2"/>
<circle clip-path="url(#clip082)" cx="1153.89" cy="766.86" r="14.4" fill="#009af9" fill-rule="evenodd" fill-opacity="1" stroke="#000000" stroke-opacity="1" stroke-width="3.2"/>
<circle clip-path="url(#clip082)" cx="1153.86" cy="766.859" r="14.4" fill="#009af9" fill-rule="evenodd" fill-opacity="1" stroke="#000000" stroke-opacity="1" stroke-width="3.2"/>
<circle clip-path="url(#clip082)" cx="1153.83" cy="766.858" r="14.4" fill="#009af9" fill-rule="evenodd" fill-opacity="1" stroke="#000000" stroke-opacity="1" stroke-width="3.2"/>
<circle clip-path="url(#clip082)" cx="1153.8" cy="766.858" r="14.4" fill="#009af9" fill-rule="evenodd" fill-opacity="1" stroke="#000000" stroke-opacity="1" stroke-width="3.2"/>
<circle clip-path="url(#clip082)" cx="1153.77" cy="766.857" r="14.4" fill="#009af9" fill-rule="evenodd" fill-opacity="1" stroke="#000000" stroke-opacity="1" stroke-width="3.2"/>
<circle clip-path="url(#clip082)" cx="1153.75" cy="766.856" r="14.4" fill="#009af9" fill-rule="evenodd" fill-opacity="1" stroke="#000000" stroke-opacity="1" stroke-width="3.2"/>
<circle clip-path="url(#clip082)" cx="1153.72" cy="766.856" r="14.4" fill="#009af9" fill-rule="evenodd" fill-opacity="1" stroke="#000000" stroke-opacity="1" stroke-width="3.2"/>
<circle clip-path="url(#clip082)" cx="1153.7" cy="766.855" r="14.4" fill="#009af9" fill-rule="evenodd" fill-opacity="1" stroke="#000000" stroke-opacity="1" stroke-width="3.2"/>
<circle clip-path="url(#clip082)" cx="1153.68" cy="766.855" r="14.4" fill="#009af9" fill-rule="evenodd" fill-opacity="1" stroke="#000000" stroke-opacity="1" stroke-width="3.2"/>
<circle clip-path="url(#clip082)" cx="1153.66" cy="766.854" r="14.4" fill="#009af9" fill-rule="evenodd" fill-opacity="1" stroke="#000000" stroke-opacity="1" stroke-width="3.2"/>
<circle clip-path="url(#clip082)" cx="1153.64" cy="766.854" r="14.4" fill="#009af9" fill-rule="evenodd" fill-opacity="1" stroke="#000000" stroke-opacity="1" stroke-width="3.2"/>
<circle clip-path="url(#clip082)" cx="1153.63" cy="766.853" r="14.4" fill="#009af9" fill-rule="evenodd" fill-opacity="1" stroke="#000000" stroke-opacity="1" stroke-width="3.2"/>
<circle clip-path="url(#clip082)" cx="1153.61" cy="766.853" r="14.4" fill="#009af9" fill-rule="evenodd" fill-opacity="1" stroke="#000000" stroke-opacity="1" stroke-width="3.2"/>
<circle clip-path="url(#clip082)" cx="1153.59" cy="766.852" r="14.4" fill="#009af9" fill-rule="evenodd" fill-opacity="1" stroke="#000000" stroke-opacity="1" stroke-width="3.2"/>
<circle clip-path="url(#clip082)" cx="1153.58" cy="766.852" r="14.4" fill="#009af9" fill-rule="evenodd" fill-opacity="1" stroke="#000000" stroke-opacity="1" stroke-width="3.2"/>
<circle clip-path="url(#clip082)" cx="1153.57" cy="766.852" r="14.4" fill="#009af9" fill-rule="evenodd" fill-opacity="1" stroke="#000000" stroke-opacity="1" stroke-width="3.2"/>
<circle clip-path="url(#clip082)" cx="1153.55" cy="766.851" r="14.4" fill="#009af9" fill-rule="evenodd" fill-opacity="1" stroke="#000000" stroke-opacity="1" stroke-width="3.2"/>
<circle clip-path="url(#clip082)" cx="1153.54" cy="766.851" r="14.4" fill="#009af9" fill-rule="evenodd" fill-opacity="1" stroke="#000000" stroke-opacity="1" stroke-width="3.2"/>
<circle clip-path="url(#clip082)" cx="1153.53" cy="766.851" r="14.4" fill="#009af9" fill-rule="evenodd" fill-opacity="1" stroke="#000000" stroke-opacity="1" stroke-width="3.2"/>
<circle clip-path="url(#clip082)" cx="1153.52" cy="766.85" r="14.4" fill="#009af9" fill-rule="evenodd" fill-opacity="1" stroke="#000000" stroke-opacity="1" stroke-width="3.2"/>
<circle clip-path="url(#clip082)" cx="1153.51" cy="766.85" r="14.4" fill="#009af9" fill-rule="evenodd" fill-opacity="1" stroke="#000000" stroke-opacity="1" stroke-width="3.2"/>
<circle clip-path="url(#clip082)" cx="1153.5" cy="766.85" r="14.4" fill="#009af9" fill-rule="evenodd" fill-opacity="1" stroke="#000000" stroke-opacity="1" stroke-width="3.2"/>
<circle clip-path="url(#clip082)" cx="1153.49" cy="766.85" r="14.4" fill="#009af9" fill-rule="evenodd" fill-opacity="1" stroke="#000000" stroke-opacity="1" stroke-width="3.2"/>
<circle clip-path="url(#clip082)" cx="1153.48" cy="766.85" r="14.4" fill="#009af9" fill-rule="evenodd" fill-opacity="1" stroke="#000000" stroke-opacity="1" stroke-width="3.2"/>
<circle clip-path="url(#clip082)" cx="1153.48" cy="766.849" r="14.4" fill="#009af9" fill-rule="evenodd" fill-opacity="1" stroke="#000000" stroke-opacity="1" stroke-width="3.2"/>
<circle clip-path="url(#clip082)" cx="1153.47" cy="766.849" r="14.4" fill="#009af9" fill-rule="evenodd" fill-opacity="1" stroke="#000000" stroke-opacity="1" stroke-width="3.2"/>
<circle clip-path="url(#clip082)" cx="1153.46" cy="766.849" r="14.4" fill="#009af9" fill-rule="evenodd" fill-opacity="1" stroke="#000000" stroke-opacity="1" stroke-width="3.2"/>
<circle clip-path="url(#clip082)" cx="1153.45" cy="766.849" r="14.4" fill="#009af9" fill-rule="evenodd" fill-opacity="1" stroke="#000000" stroke-opacity="1" stroke-width="3.2"/>
<circle clip-path="url(#clip082)" cx="1153.45" cy="766.849" r="14.4" fill="#009af9" fill-rule="evenodd" fill-opacity="1" stroke="#000000" stroke-opacity="1" stroke-width="3.2"/>
<circle clip-path="url(#clip082)" cx="1153.44" cy="766.848" r="14.4" fill="#009af9" fill-rule="evenodd" fill-opacity="1" stroke="#000000" stroke-opacity="1" stroke-width="3.2"/>
<circle clip-path="url(#clip082)" cx="1153.44" cy="766.848" r="14.4" fill="#009af9" fill-rule="evenodd" fill-opacity="1" stroke="#000000" stroke-opacity="1" stroke-width="3.2"/>
<circle clip-path="url(#clip082)" cx="1153.43" cy="766.848" r="14.4" fill="#009af9" fill-rule="evenodd" fill-opacity="1" stroke="#000000" stroke-opacity="1" stroke-width="3.2"/>
<circle clip-path="url(#clip082)" cx="1153.43" cy="766.848" r="14.4" fill="#009af9" fill-rule="evenodd" fill-opacity="1" stroke="#000000" stroke-opacity="1" stroke-width="3.2"/>
<circle clip-path="url(#clip082)" cx="1153.42" cy="766.848" r="14.4" fill="#009af9" fill-rule="evenodd" fill-opacity="1" stroke="#000000" stroke-opacity="1" stroke-width="3.2"/>
<circle clip-path="url(#clip082)" cx="1153.42" cy="766.848" r="14.4" fill="#009af9" fill-rule="evenodd" fill-opacity="1" stroke="#000000" stroke-opacity="1" stroke-width="3.2"/>
<circle clip-path="url(#clip082)" cx="1153.41" cy="766.848" r="14.4" fill="#009af9" fill-rule="evenodd" fill-opacity="1" stroke="#000000" stroke-opacity="1" stroke-width="3.2"/>
<circle clip-path="url(#clip082)" cx="1153.41" cy="766.848" r="14.4" fill="#009af9" fill-rule="evenodd" fill-opacity="1" stroke="#000000" stroke-opacity="1" stroke-width="3.2"/>
<circle clip-path="url(#clip082)" cx="1153.41" cy="766.848" r="14.4" fill="#009af9" fill-rule="evenodd" fill-opacity="1" stroke="#000000" stroke-opacity="1" stroke-width="3.2"/>
<circle clip-path="url(#clip082)" cx="1153.4" cy="766.847" r="14.4" fill="#009af9" fill-rule="evenodd" fill-opacity="1" stroke="#000000" stroke-opacity="1" stroke-width="3.2"/>
<circle clip-path="url(#clip082)" cx="1153.4" cy="766.847" r="14.4" fill="#009af9" fill-rule="evenodd" fill-opacity="1" stroke="#000000" stroke-opacity="1" stroke-width="3.2"/>
<circle clip-path="url(#clip082)" cx="1153.4" cy="766.847" r="14.4" fill="#009af9" fill-rule="evenodd" fill-opacity="1" stroke="#000000" stroke-opacity="1" stroke-width="3.2"/>
<circle clip-path="url(#clip082)" cx="1153.39" cy="766.847" r="14.4" fill="#009af9" fill-rule="evenodd" fill-opacity="1" stroke="#000000" stroke-opacity="1" stroke-width="3.2"/>
<circle clip-path="url(#clip082)" cx="1153.39" cy="766.847" r="14.4" fill="#009af9" fill-rule="evenodd" fill-opacity="1" stroke="#000000" stroke-opacity="1" stroke-width="3.2"/>
<circle clip-path="url(#clip082)" cx="1153.39" cy="766.847" r="14.4" fill="#009af9" fill-rule="evenodd" fill-opacity="1" stroke="#000000" stroke-opacity="1" stroke-width="3.2"/>
<circle clip-path="url(#clip082)" cx="1153.39" cy="766.847" r="14.4" fill="#009af9" fill-rule="evenodd" fill-opacity="1" stroke="#000000" stroke-opacity="1" stroke-width="3.2"/>
<circle clip-path="url(#clip082)" cx="1153.38" cy="766.847" r="14.4" fill="#009af9" fill-rule="evenodd" fill-opacity="1" stroke="#000000" stroke-opacity="1" stroke-width="3.2"/>
<circle clip-path="url(#clip082)" cx="1153.38" cy="766.847" r="14.4" fill="#009af9" fill-rule="evenodd" fill-opacity="1" stroke="#000000" stroke-opacity="1" stroke-width="3.2"/>
<circle clip-path="url(#clip082)" cx="1153.38" cy="766.847" r="14.4" fill="#009af9" fill-rule="evenodd" fill-opacity="1" stroke="#000000" stroke-opacity="1" stroke-width="3.2"/>
<circle clip-path="url(#clip082)" cx="1153.38" cy="766.847" r="14.4" fill="#009af9" fill-rule="evenodd" fill-opacity="1" stroke="#000000" stroke-opacity="1" stroke-width="3.2"/>
<circle clip-path="url(#clip082)" cx="1153.38" cy="766.847" r="14.4" fill="#009af9" fill-rule="evenodd" fill-opacity="1" stroke="#000000" stroke-opacity="1" stroke-width="3.2"/>
<circle clip-path="url(#clip082)" cx="1153.37" cy="766.847" r="14.4" fill="#009af9" fill-rule="evenodd" fill-opacity="1" stroke="#000000" stroke-opacity="1" stroke-width="3.2"/>
<circle clip-path="url(#clip082)" cx="1153.37" cy="766.847" r="14.4" fill="#009af9" fill-rule="evenodd" fill-opacity="1" stroke="#000000" stroke-opacity="1" stroke-width="3.2"/>
<circle clip-path="url(#clip082)" cx="1153.37" cy="766.847" r="14.4" fill="#009af9" fill-rule="evenodd" fill-opacity="1" stroke="#000000" stroke-opacity="1" stroke-width="3.2"/>
<circle clip-path="url(#clip082)" cx="1153.37" cy="766.847" r="14.4" fill="#009af9" fill-rule="evenodd" fill-opacity="1" stroke="#000000" stroke-opacity="1" stroke-width="3.2"/>
<circle clip-path="url(#clip082)" cx="1153.37" cy="766.847" r="14.4" fill="#009af9" fill-rule="evenodd" fill-opacity="1" stroke="#000000" stroke-opacity="1" stroke-width="3.2"/>
<circle clip-path="url(#clip082)" cx="1153.37" cy="766.847" r="14.4" fill="#009af9" fill-rule="evenodd" fill-opacity="1" stroke="#000000" stroke-opacity="1" stroke-width="3.2"/>
<circle clip-path="url(#clip082)" cx="1153.37" cy="766.846" r="14.4" fill="#009af9" fill-rule="evenodd" fill-opacity="1" stroke="#000000" stroke-opacity="1" stroke-width="3.2"/>
<circle clip-path="url(#clip082)" cx="1153.36" cy="766.846" r="14.4" fill="#009af9" fill-rule="evenodd" fill-opacity="1" stroke="#000000" stroke-opacity="1" stroke-width="3.2"/>
<circle clip-path="url(#clip082)" cx="1153.36" cy="766.846" r="14.4" fill="#009af9" fill-rule="evenodd" fill-opacity="1" stroke="#000000" stroke-opacity="1" stroke-width="3.2"/>
<circle clip-path="url(#clip082)" cx="1153.36" cy="766.846" r="14.4" fill="#009af9" fill-rule="evenodd" fill-opacity="1" stroke="#000000" stroke-opacity="1" stroke-width="3.2"/>
<circle clip-path="url(#clip082)" cx="1153.36" cy="766.846" r="14.4" fill="#009af9" fill-rule="evenodd" fill-opacity="1" stroke="#000000" stroke-opacity="1" stroke-width="3.2"/>
<circle clip-path="url(#clip082)" cx="1153.36" cy="766.846" r="14.4" fill="#009af9" fill-rule="evenodd" fill-opacity="1" stroke="#000000" stroke-opacity="1" stroke-width="3.2"/>
<circle clip-path="url(#clip082)" cx="1153.36" cy="766.846" r="14.4" fill="#009af9" fill-rule="evenodd" fill-opacity="1" stroke="#000000" stroke-opacity="1" stroke-width="3.2"/>
<circle clip-path="url(#clip082)" cx="1153.36" cy="766.846" r="14.4" fill="#009af9" fill-rule="evenodd" fill-opacity="1" stroke="#000000" stroke-opacity="1" stroke-width="3.2"/>
<circle clip-path="url(#clip082)" cx="1153.36" cy="766.846" r="14.4" fill="#009af9" fill-rule="evenodd" fill-opacity="1" stroke="#000000" stroke-opacity="1" stroke-width="3.2"/>
<circle clip-path="url(#clip082)" cx="1153.36" cy="766.846" r="14.4" fill="#009af9" fill-rule="evenodd" fill-opacity="1" stroke="#000000" stroke-opacity="1" stroke-width="3.2"/>
<circle clip-path="url(#clip082)" cx="1153.36" cy="766.846" r="14.4" fill="#009af9" fill-rule="evenodd" fill-opacity="1" stroke="#000000" stroke-opacity="1" stroke-width="3.2"/>
<circle clip-path="url(#clip082)" cx="1153.36" cy="766.846" r="14.4" fill="#009af9" fill-rule="evenodd" fill-opacity="1" stroke="#000000" stroke-opacity="1" stroke-width="3.2"/>
<circle clip-path="url(#clip082)" cx="1153.36" cy="766.846" r="14.4" fill="#009af9" fill-rule="evenodd" fill-opacity="1" stroke="#000000" stroke-opacity="1" stroke-width="3.2"/>
<circle clip-path="url(#clip082)" cx="1153.35" cy="766.846" r="14.4" fill="#009af9" fill-rule="evenodd" fill-opacity="1" stroke="#000000" stroke-opacity="1" stroke-width="3.2"/>
<polyline clip-path="url(#clip082)" style="stroke:#f8c931; stroke-linecap:butt; stroke-linejoin:round; stroke-width:12; stroke-opacity:1; fill:none" points="
  248.242,1399.04 310.663,1402.01 373.084,1404.88 435.505,1407.67 497.926,1410.35 560.347,1412.94 622.768,1415.43 685.189,1417.82 747.61,1420.12 810.031,1422.31 
  872.452,1424.41 934.873,1426.4 997.294,1428.3 1059.71,1430.09 1122.14,1431.78 1184.56,1433.36 1246.98,1434.84 1309.4,1436.22 1371.82,1437.49 1434.24,1438.65 
  1496.66,1439.71 1559.08,1440.66 1621.5,1441.49 1683.92,1442.22 1746.34,1442.84 1808.77,1443.35 1871.19,1443.75 1933.61,1444.03 1996.03,1444.2 2058.45,1444.25 
  
  "/>
<polyline clip-path="url(#clip082)" style="stroke:#fbaa0e; stroke-linecap:butt; stroke-linejoin:round; stroke-width:12; stroke-opacity:1; fill:none" points="
  2058.45,1419.24 1996.03,1419.25 1933.61,1419.14 1871.19,1418.92 1808.77,1418.59 1746.34,1418.14 1683.92,1417.58 1621.5,1416.91 1559.08,1416.13 1496.66,1415.24 
  1434.24,1414.25 1371.82,1413.14 1309.4,1411.93 1246.98,1410.61 1184.56,1409.19 1122.14,1407.66 1059.71,1406.03 997.294,1404.3 934.873,1402.46 872.452,1400.52 
  822.789,1398.9 810.031,1398.45 747.61,1396.15 685.189,1393.74 622.768,1391.23 560.347,1388.61 497.926,1385.89 435.505,1383.06 373.084,1380.14 310.663,1377.11 
  248.242,1373.98 
  "/>
<polyline clip-path="url(#clip082)" style="stroke:#f0701e; stroke-linecap:butt; stroke-linejoin:round; stroke-width:12; stroke-opacity:1; fill:none" points="
  248.242,1321.58 310.663,1324.82 373.084,1327.95 435.505,1330.97 497.926,1333.89 560.347,1336.69 622.768,1339.38 685.189,1341.95 747.61,1344.42 810.031,1346.77 
  872.452,1349 934.873,1351.12 964.95,1352.08 997.294,1353.04 1059.71,1354.77 1122.14,1356.4 1184.56,1357.91 1246.98,1359.31 1309.4,1360.6 1371.82,1361.77 
  1434.24,1362.83 1496.66,1363.77 1559.08,1364.6 1621.5,1365.3 1683.92,1365.89 1746.34,1366.36 1808.77,1366.7 1871.19,1366.93 1933.61,1367.03 1996.03,1367 
  2058.45,1366.86 
  "/>
<polyline clip-path="url(#clip082)" style="stroke:#f98c09; stroke-linecap:butt; stroke-linejoin:round; stroke-width:12; stroke-opacity:1; fill:none" points="
  2058.45,1393.86 1996.03,1393.94 1933.61,1393.89 1871.19,1393.72 1808.77,1393.42 1746.34,1393.01 1683.92,1392.47 1621.5,1391.81 1559.08,1391.04 1496.66,1390.15 
  1434.24,1389.14 1371.82,1388.01 1309.4,1386.77 1246.98,1385.41 1184.56,1383.95 1122.14,1382.37 1059.71,1380.67 997.294,1378.87 934.873,1376.96 872.452,1374.94 
  810.031,1372.81 747.61,1370.57 685.189,1368.23 622.768,1365.78 560.347,1363.23 497.926,1360.57 435.505,1357.81 373.084,1354.94 312.805,1352.08 310.663,1351.97 
  248.242,1348.66 
  "/>
<polyline clip-path="url(#clip082)" style="stroke:#d04544; stroke-linecap:butt; stroke-linejoin:round; stroke-width:12; stroke-opacity:1; fill:none" points="
  248.242,1264.13 310.663,1267.48 373.084,1270.72 435.505,1273.84 497.926,1276.84 560.347,1279.73 622.768,1282.49 685.189,1285.12 747.61,1287.64 810.031,1290.03 
  872.452,1292.29 934.873,1294.43 997.294,1296.44 1059.71,1298.32 1122.14,1300.07 1184.56,1301.69 1246.98,1303.17 1309.4,1304.52 1347.26,1305.26 1371.82,1305.7 
  1434.24,1306.69 1496.66,1307.55 1559.08,1308.29 1621.5,1308.89 1683.92,1309.37 1746.34,1309.71 1808.77,1309.93 1871.19,1310.01 1933.61,1309.95 1996.03,1309.77 
  2058.45,1309.44 
  "/>
<polyline clip-path="url(#clip082)" style="stroke:#e35832; stroke-linecap:butt; stroke-linejoin:round; stroke-width:12; stroke-opacity:1; fill:none" points="
  2058.45,1338.79 1996.03,1339.03 1933.61,1339.14 1871.19,1339.11 1808.77,1338.94 1746.34,1338.65 1683.92,1338.22 1621.5,1337.66 1559.08,1336.97 1496.66,1336.16 
  1434.24,1335.21 1371.82,1334.14 1309.4,1332.95 1246.98,1331.63 1184.56,1330.19 1122.14,1328.63 1059.71,1326.95 997.294,1325.14 934.873,1323.22 872.452,1321.18 
  810.031,1319.02 747.61,1316.75 685.189,1314.36 622.768,1311.86 560.347,1309.24 497.926,1306.52 470.357,1305.26 435.505,1303.54 373.084,1300.33 310.663,1297.01 
  248.242,1293.56 
  "/>
<polyline clip-path="url(#clip082)" style="stroke:#ba3655; stroke-linecap:butt; stroke-linejoin:round; stroke-width:12; stroke-opacity:1; fill:none" points="
  248.242,1232.43 310.663,1236 373.084,1239.45 435.505,1242.77 497.926,1245.96 560.347,1249.02 622.768,1251.95 685.189,1254.75 747.61,1257.41 773.146,1258.44 
  810.031,1259.8 872.452,1261.98 934.873,1264.02 997.294,1265.94 1059.71,1267.73 1122.14,1269.38 1184.56,1270.91 1246.98,1272.3 1309.4,1273.56 1371.82,1274.68 
  1434.24,1275.67 1496.66,1276.51 1559.08,1277.22 1621.5,1277.79 1683.92,1278.21 1746.34,1278.49 1808.77,1278.63 1871.19,1278.62 1933.61,1278.46 1996.03,1278.15 
  2058.45,1277.7 
  "/>
<polyline clip-path="url(#clip082)" style="stroke:#a12b61; stroke-linecap:butt; stroke-linejoin:round; stroke-width:12; stroke-opacity:1; fill:none" points="
  2058.45,1244.2 1996.03,1244.82 1933.61,1245.28 1871.19,1245.57 1808.77,1245.69 1746.34,1245.65 1683.92,1245.46 1621.5,1245.1 1559.08,1244.59 1496.66,1243.92 
  1434.24,1243.1 1371.82,1242.12 1309.4,1241 1246.98,1239.72 1184.56,1238.3 1122.14,1236.73 1059.71,1235.02 997.294,1233.16 934.873,1231.16 872.452,1229.02 
  810.031,1226.74 747.61,1224.33 685.189,1221.77 622.768,1219.08 560.347,1216.26 497.926,1213.3 463.956,1211.62 435.505,1210.07 373.084,1206.51 310.663,1202.81 
  248.242,1198.98 
  "/>
<polyline clip-path="url(#clip082)" style="stroke:#6e186e; stroke-linecap:butt; stroke-linejoin:round; stroke-width:12; stroke-opacity:1; fill:none" points="
  248.242,1123.31 310.663,1127.31 373.084,1131.14 435.505,1134.83 497.926,1138.35 560.347,1141.72 622.768,1144.92 685.189,1147.96 747.61,1150.84 810.031,1153.55 
  872.452,1156.09 934.873,1158.45 997.294,1160.65 1059.71,1162.67 1122.14,1164.51 1133.38,1164.8 1184.56,1166.01 1246.98,1167.33 1309.4,1168.47 1371.82,1169.45 
  1434.24,1170.27 1496.66,1170.91 1559.08,1171.37 1621.5,1171.67 1683.92,1171.78 1746.34,1171.72 1808.77,1171.47 1871.19,1171.05 1933.61,1170.43 1996.03,1169.64 
  2058.45,1168.65 
  "/>
<polyline clip-path="url(#clip082)" style="stroke:#88216a; stroke-linecap:butt; stroke-linejoin:round; stroke-width:12; stroke-opacity:1; fill:none" points="
  2058.45,1208.34 1996.03,1209.17 1933.61,1209.82 1871.19,1210.28 1808.77,1210.55 1746.34,1210.65 1683.92,1210.56 1621.5,1210.3 1559.08,1209.86 1496.66,1209.24 
  1434.24,1208.46 1371.82,1207.51 1309.4,1206.38 1246.98,1205.09 1184.56,1203.64 1122.14,1202.03 1059.71,1200.25 997.294,1198.32 934.873,1196.23 872.452,1193.98 
  810.031,1191.58 747.61,1189.03 685.189,1186.33 622.768,1183.47 560.347,1180.48 497.926,1177.33 435.505,1174.05 373.084,1170.61 310.663,1167.04 273.037,1164.8 
  248.242,1163.16 
  "/>
<polyline clip-path="url(#clip082)" style="stroke:#550f6d; stroke-linecap:butt; stroke-linejoin:round; stroke-width:12; stroke-opacity:1; fill:none" points="
  248.242,1078.86 310.663,1083.19 373.084,1087.34 435.505,1091.33 497.926,1095.13 560.347,1098.76 622.768,1102.21 685.189,1105.47 747.61,1108.55 810.031,1111.44 
  872.452,1114.14 934.873,1116.64 971.285,1117.99 997.294,1118.83 1059.71,1120.68 1122.14,1122.34 1184.56,1123.83 1246.98,1125.13 1309.4,1126.24 1371.82,1127.17 
  1434.24,1127.9 1496.66,1128.44 1559.08,1128.79 1621.5,1128.93 1683.92,1128.88 1746.34,1128.62 1808.77,1128.16 1871.19,1127.49 1933.61,1126.6 1996.03,1125.5 
  2058.45,1124.19 
  "/>
<polyline clip-path="url(#clip082)" style="stroke:#3b0964; stroke-linecap:butt; stroke-linejoin:round; stroke-width:12; stroke-opacity:1; fill:none" points="
  2058.45,1073.27 1996.03,1075.05 1933.61,1076.57 1871.19,1077.84 1808.77,1078.86 1746.34,1079.64 1683.92,1080.18 1621.5,1080.48 1559.08,1080.55 1496.66,1080.39 
  1434.24,1080 1371.82,1079.39 1309.4,1078.56 1246.98,1077.52 1184.56,1076.26 1122.14,1074.79 1059.71,1073.11 997.294,1071.23 995.446,1071.17 934.873,1068.81 
  872.452,1066.16 810.031,1063.29 747.61,1060.19 685.189,1056.88 622.768,1053.35 560.347,1049.62 497.926,1045.68 435.505,1041.53 373.084,1037.19 310.663,1032.64 
  248.242,1027.91 
  "/>
<polyline clip-path="url(#clip082)" style="stroke:#1f0c47; stroke-linecap:butt; stroke-linejoin:round; stroke-width:12; stroke-opacity:1; fill:none" points="
  248.242,964.541 310.663,970.932 373.084,977.066 378.049,977.53 435.505,981.933 497.926,986.481 560.347,990.794 622.768,994.865 685.189,998.691 747.61,1002.27 
  810.031,1005.59 872.452,1008.65 934.873,1011.44 997.294,1013.97 1059.71,1016.22 1122.14,1018.18 1184.56,1019.87 1246.98,1021.25 1309.4,1022.34 1371.82,1023.13 
  1434.24,1023.6 1496.66,1023.76 1559.08,1023.59 1621.5,1023.1 1683.92,1022.26 1746.34,1021.08 1808.77,1019.54 1871.19,1017.65 1933.61,1015.39 1996.03,1012.75 
  2058.45,1009.73 
  "/>
<polyline clip-path="url(#clip082)" style="stroke:#090621; stroke-linecap:butt; stroke-linejoin:round; stroke-width:12; stroke-opacity:1; fill:none" points="
  2058.45,919.607 1996.03,926.178 1947.37,930.711 1933.61,931.623 1871.19,935.282 1808.77,938.447 1746.34,941.131 1683.92,943.347 1621.5,945.108 1559.08,946.425 
  1496.66,947.31 1434.24,947.774 1371.82,947.829 1309.4,947.484 1246.98,946.749 1184.56,945.636 1122.14,944.152 1059.71,942.307 997.294,940.111 934.873,937.57 
  872.452,934.695 810.031,931.492 796.273,930.711 747.61,927.118 685.189,922.113 622.768,916.734 560.347,910.993 497.926,904.9 435.505,898.466 373.084,891.7 
  310.663,884.613 304.634,883.892 248.242,874.525 
  "/>
<polyline clip-path="url(#clip082)" style="stroke:#090621; stroke-linecap:butt; stroke-linejoin:round; stroke-width:12; stroke-opacity:1; fill:none" points="
  248.242,614.085 310.663,607.514 359.327,602.981 373.084,602.069 435.505,598.41 497.926,595.245 560.347,592.561 622.768,590.345 685.189,588.584 747.61,587.267 
  810.031,586.382 872.452,585.918 934.873,585.863 997.294,586.208 1059.71,586.943 1122.14,588.056 1184.56,589.54 1246.98,591.385 1309.4,593.581 1371.82,596.122 
  1434.24,598.997 1496.66,602.2 1510.42,602.981 1559.08,606.574 1621.5,611.579 1683.92,616.958 1746.34,622.699 1808.77,628.792 1871.19,635.226 1933.61,641.992 
  1996.03,649.079 2002.06,649.799 2058.45,659.167 
  "/>
<polyline clip-path="url(#clip082)" style="stroke:#1f0c47; stroke-linecap:butt; stroke-linejoin:round; stroke-width:12; stroke-opacity:1; fill:none" points="
  2058.45,569.151 1996.03,562.76 1933.61,556.626 1928.64,556.162 1871.19,551.759 1808.77,547.211 1746.34,542.898 1683.92,538.827 1621.5,535.001 1559.08,531.425 
  1496.66,528.105 1434.24,525.045 1371.82,522.249 1309.4,519.724 1246.98,517.475 1184.56,515.507 1122.14,513.826 1059.71,512.437 997.294,511.347 934.873,510.562 
  872.452,510.088 810.031,509.931 747.61,510.098 685.189,510.596 622.768,511.432 560.347,512.613 497.926,514.147 435.505,516.041 373.084,518.303 310.663,520.941 
  248.242,523.964 
  "/>
<polyline clip-path="url(#clip082)" style="stroke:#3b0964; stroke-linecap:butt; stroke-linejoin:round; stroke-width:12; stroke-opacity:1; fill:none" points="
  248.242,460.422 310.663,458.646 373.084,457.125 435.505,455.855 497.926,454.832 560.347,454.053 622.768,453.514 685.189,453.212 747.61,453.143 810.031,453.303 
  872.452,453.69 934.873,454.299 997.294,455.129 1059.71,456.175 1122.14,457.434 1184.56,458.904 1246.98,460.581 1309.4,462.463 1311.25,462.525 1371.82,464.877 
  1434.24,467.529 1496.66,470.404 1559.08,473.5 1621.5,476.813 1683.92,480.338 1746.34,484.074 1808.77,488.016 1871.19,492.161 1933.61,496.507 1996.03,501.049 
  2058.45,505.786 
  "/>
<polyline clip-path="url(#clip082)" style="stroke:#550f6d; stroke-linecap:butt; stroke-linejoin:round; stroke-width:12; stroke-opacity:1; fill:none" points="
  2058.45,454.835 1996.03,450.506 1933.61,446.349 1871.19,442.366 1808.77,438.558 1746.34,434.93 1683.92,431.482 1621.5,428.218 1559.08,425.14 1496.66,422.251 
  1434.24,419.553 1371.82,417.05 1335.41,415.706 1309.4,414.862 1246.98,413.017 1184.56,411.351 1122.14,409.866 1059.71,408.566 997.294,407.452 934.873,406.526 
  872.452,405.791 810.031,405.25 747.61,404.904 685.189,404.757 622.768,404.811 560.347,405.068 497.926,405.532 435.505,406.204 373.084,407.089 310.663,408.188 
  248.242,409.504 
  "/>
<polyline clip-path="url(#clip082)" style="stroke:#6e186e; stroke-linecap:butt; stroke-linejoin:round; stroke-width:12; stroke-opacity:1; fill:none" points="
  248.242,365.046 310.663,364.057 373.084,363.257 435.505,362.645 497.926,362.218 560.347,361.974 622.768,361.911 685.189,362.027 747.61,362.319 810.031,362.787 
  872.452,363.427 934.873,364.238 997.294,365.218 1059.71,366.365 1122.14,367.677 1173.31,368.888 1184.56,369.186 1246.98,371.026 1309.4,373.045 1371.82,375.239 
  1434.24,377.607 1496.66,380.146 1559.08,382.854 1621.5,385.73 1683.92,388.77 1746.34,391.975 1808.77,395.34 1871.19,398.865 1933.61,402.547 1996.03,406.385 
  2058.45,410.377 
  "/>
<polyline clip-path="url(#clip082)" style="stroke:#88216a; stroke-linecap:butt; stroke-linejoin:round; stroke-width:12; stroke-opacity:1; fill:none" points="
  2058.45,370.532 2033.65,368.888 1996.03,366.648 1933.61,363.077 1871.19,359.647 1808.77,356.359 1746.34,353.215 1683.92,350.217 1621.5,347.366 1559.08,344.664 
  1496.66,342.112 1434.24,339.712 1371.82,337.465 1309.4,335.374 1246.98,333.44 1184.56,331.664 1122.14,330.05 1059.71,328.597 997.294,327.309 934.873,326.187 
  872.452,325.232 810.031,324.448 747.61,323.835 685.189,323.396 622.768,323.132 560.347,323.047 497.926,323.141 435.505,323.416 373.084,323.876 310.663,324.522 
  248.242,325.356 
  "/>
<polyline clip-path="url(#clip082)" style="stroke:#a12b61; stroke-linecap:butt; stroke-linejoin:round; stroke-width:12; stroke-opacity:1; fill:none" points="
  248.242,289.492 310.663,288.87 373.084,288.416 435.505,288.127 497.926,288.001 560.347,288.038 622.768,288.235 685.189,288.591 747.61,289.104 810.031,289.772 
  872.452,290.594 934.873,291.569 997.294,292.695 1059.71,293.969 1122.14,295.392 1184.56,296.961 1246.98,298.675 1309.4,300.532 1371.82,302.531 1434.24,304.671 
  1496.66,306.95 1559.08,309.367 1621.5,311.92 1683.92,314.609 1746.34,317.432 1808.77,320.387 1842.74,322.069 1871.19,323.623 1933.61,327.181 1996.03,330.879 
  2058.45,334.715 
  "/>
<polyline clip-path="url(#clip082)" style="stroke:#ba3655; stroke-linecap:butt; stroke-linejoin:round; stroke-width:12; stroke-opacity:1; fill:none" points="
  2058.45,301.265 1996.03,297.689 1933.61,294.24 1871.19,290.92 1808.77,287.728 1746.34,284.667 1683.92,281.739 1621.5,278.943 1559.08,276.282 1533.55,275.251 
  1496.66,273.89 1434.24,271.717 1371.82,269.67 1309.4,267.753 1246.98,265.965 1184.56,264.307 1122.14,262.782 1059.71,261.39 997.294,260.133 934.873,259.011 
  872.452,258.026 810.031,257.18 747.61,256.473 685.189,255.906 622.768,255.482 560.347,255.201 497.926,255.065 435.505,255.075 373.084,255.233 310.663,255.54 
  248.242,255.996 
  "/>
<polyline clip-path="url(#clip082)" style="stroke:#d04544; stroke-linecap:butt; stroke-linejoin:round; stroke-width:12; stroke-opacity:1; fill:none" points="
  248.242,224.252 310.663,223.927 373.084,223.738 435.505,223.684 497.926,223.764 560.347,223.978 622.768,224.324 685.189,224.8 747.61,225.407 810.031,226.141 
  872.452,227.004 934.873,227.993 959.428,228.432 997.294,229.169 1059.71,230.521 1122.14,232.007 1184.56,233.625 1246.98,235.375 1309.4,237.255 1371.82,239.264 
  1434.24,241.401 1496.66,243.665 1559.08,246.054 1621.5,248.568 1683.92,251.206 1746.34,253.966 1808.77,256.847 1871.19,259.849 1933.61,262.969 1996.03,266.208 
  2058.45,269.564 
  "/>
<polyline clip-path="url(#clip082)" style="stroke:#e35832; stroke-linecap:butt; stroke-linejoin:round; stroke-width:12; stroke-opacity:1; fill:none" points="
  2058.45,240.128 1996.03,236.687 1933.61,233.362 1871.19,230.154 1836.34,228.432 1808.77,227.176 1746.34,224.449 1683.92,221.833 1621.5,219.331 1559.08,216.943 
  1496.66,214.67 1434.24,212.513 1371.82,210.473 1309.4,208.55 1246.98,206.747 1184.56,205.063 1122.14,203.501 1059.71,202.06 997.294,200.742 934.873,199.548 
  872.452,198.479 810.031,197.536 747.61,196.72 685.189,196.033 622.768,195.474 560.347,195.046 497.926,194.75 435.505,194.586 373.084,194.556 310.663,194.661 
  248.242,194.902 
  "/>
<polyline clip-path="url(#clip082)" style="stroke:#f0701e; stroke-linecap:butt; stroke-linejoin:round; stroke-width:12; stroke-opacity:1; fill:none" points="
  248.242,166.835 310.663,166.687 373.084,166.665 435.505,166.766 497.926,166.99 560.347,167.336 622.768,167.803 685.189,168.39 747.61,169.096 810.031,169.92 
  872.452,170.861 934.873,171.919 997.294,173.092 1059.71,174.379 1122.14,175.78 1184.56,177.294 1246.98,178.919 1309.4,180.655 1341.74,181.613 1371.82,182.575 
  1434.24,184.692 1496.66,186.925 1559.08,189.274 1621.5,191.738 1683.92,194.315 1746.34,197.005 1808.77,199.806 1871.19,202.719 1933.61,205.742 1996.03,208.873 
  2058.45,212.114 
  "/>
<polyline clip-path="url(#clip082)" style="stroke:#f98c09; stroke-linecap:butt; stroke-linejoin:round; stroke-width:12; stroke-opacity:1; fill:none" points="
  2058.45,185.036 1996.03,181.723 1993.89,181.613 1933.61,178.749 1871.19,175.885 1808.77,173.124 1746.34,170.465 1683.92,167.912 1621.5,165.463 1559.08,163.119 
  1496.66,160.882 1434.24,158.753 1371.82,156.732 1309.4,154.82 1246.98,153.017 1184.56,151.325 1122.14,149.745 1059.71,148.277 997.294,146.922 934.873,145.682 
  872.452,144.556 810.031,143.547 747.61,142.654 685.189,141.879 622.768,141.222 560.347,140.686 497.926,140.269 435.505,139.975 373.084,139.802 310.663,139.753 
  248.242,139.829 
  "/>
<polyline clip-path="url(#clip082)" style="stroke:#fbaa0e; stroke-linecap:butt; stroke-linejoin:round; stroke-width:12; stroke-opacity:1; fill:none" points="
  248.242,114.449 310.663,114.441 373.084,114.549 435.505,114.77 497.926,115.105 560.347,115.552 622.768,116.111 685.189,116.78 747.61,117.56 810.031,118.449 
  872.452,119.446 934.873,120.55 997.294,121.762 1059.71,123.08 1122.14,124.503 1184.56,126.03 1246.98,127.662 1309.4,129.396 1371.82,131.233 1434.24,133.172 
  1483.9,134.795 1496.66,135.242 1559.08,137.544 1621.5,139.952 1683.92,142.465 1746.34,145.082 1808.77,147.804 1871.19,150.628 1933.61,153.555 1996.03,156.583 
  2058.45,159.712 
  "/>
<polyline clip-path="url(#clip082)" style="stroke:#f8c931; stroke-linecap:butt; stroke-linejoin:round; stroke-width:12; stroke-opacity:1; fill:none" points="
  2058.45,134.653 1996.03,131.683 
  "/>
<polyline clip-path="url(#clip082)" style="stroke:#f1e864; stroke-linecap:butt; stroke-linejoin:round; stroke-width:12; stroke-opacity:1; fill:none" points="
  1996.03,108.291 1933.61,105.361 1871.19,102.526 1808.77,99.7863 1746.34,97.1431 1683.92,94.5968 1621.5,92.1482 1559.08,89.7978 1508.56,87.9763 
  "/>
<polyline clip-path="url(#clip082)" style="stroke:#f1e864; stroke-linecap:butt; stroke-linejoin:round; stroke-width:12; stroke-opacity:1; fill:none" points="
  2058.45,111.315 1996.03,108.291 
  "/>
<polyline clip-path="url(#clip082)" style="stroke:#f8c931; stroke-linecap:butt; stroke-linejoin:round; stroke-width:12; stroke-opacity:1; fill:none" points="
  248.242,89.4412 310.663,89.4951 373.084,89.6638 435.505,89.9462 497.926,90.3415 560.347,90.849 622.768,91.4678 685.189,92.197 747.61,93.036 810.031,93.9839 
  872.452,95.0399 934.873,96.2033 997.294,97.4732 1059.71,98.8489 1122.14,100.33 1184.56,101.915 1246.98,103.603 1309.4,105.395 1371.82,107.288 1434.24,109.283 
  1496.66,111.379 1559.08,113.574 1621.5,115.869 1683.92,118.262 1746.34,120.753 1808.77,123.342 1871.19,126.027 1933.61,128.807 1996.03,131.683 
  "/>
<polyline clip-path="url(#clip082)" style="stroke:#f1e864; stroke-linecap:butt; stroke-linejoin:round; stroke-width:12; stroke-opacity:1; fill:none" points="
  248.242,1422.38 310.663,1425.4 373.084,1428.33 435.505,1431.17 497.926,1433.91 560.347,1436.55 622.768,1439.1 685.189,1441.54 747.61,1443.89 798.137,1445.72 
  
  "/>
<defs>
  <clipPath id="clip083">
    <rect x="2160" y="47" width="73" height="1440"/>
  </clipPath>
</defs>
<polyline clip-path="url(#clip083)" style="stroke:#0a0723; stroke-linecap:butt; stroke-linejoin:round; stroke-width:12; stroke-opacity:1; fill:none" points="
  2160.76,1396.5 2232.76,1396.5 
  "/>
<polyline clip-path="url(#clip083)" style="stroke:#200c4a; stroke-linecap:butt; stroke-linejoin:round; stroke-width:12; stroke-opacity:1; fill:none" points="
  2160.76,1306.55 2232.76,1306.55 
  "/>
<polyline clip-path="url(#clip083)" style="stroke:#3c0965; stroke-linecap:butt; stroke-linejoin:round; stroke-width:12; stroke-opacity:1; fill:none" points="
  2160.76,1216.6 2232.76,1216.6 
  "/>
<polyline clip-path="url(#clip083)" style="stroke:#570f6d; stroke-linecap:butt; stroke-linejoin:round; stroke-width:12; stroke-opacity:1; fill:none" points="
  2160.76,1126.65 2232.76,1126.65 
  "/>
<polyline clip-path="url(#clip083)" style="stroke:#70196e; stroke-linecap:butt; stroke-linejoin:round; stroke-width:12; stroke-opacity:1; fill:none" points="
  2160.76,1036.7 2232.76,1036.7 
  "/>
<polyline clip-path="url(#clip083)" style="stroke:#892269; stroke-linecap:butt; stroke-linejoin:round; stroke-width:12; stroke-opacity:1; fill:none" points="
  2160.76,946.746 2232.76,946.746 
  "/>
<polyline clip-path="url(#clip083)" style="stroke:#a32b61; stroke-linecap:butt; stroke-linejoin:round; stroke-width:12; stroke-opacity:1; fill:none" points="
  2160.76,856.796 2232.76,856.796 
  "/>
<polyline clip-path="url(#clip083)" style="stroke:#bb3754; stroke-linecap:butt; stroke-linejoin:round; stroke-width:12; stroke-opacity:1; fill:none" points="
  2160.76,766.846 2232.76,766.846 
  "/>
<polyline clip-path="url(#clip083)" style="stroke:#d04544; stroke-linecap:butt; stroke-linejoin:round; stroke-width:12; stroke-opacity:1; fill:none" points="
  2160.76,676.896 2232.76,676.896 
  "/>
<polyline clip-path="url(#clip083)" style="stroke:#e35832; stroke-linecap:butt; stroke-linejoin:round; stroke-width:12; stroke-opacity:1; fill:none" points="
  2160.76,586.946 2232.76,586.946 
  "/>
<polyline clip-path="url(#clip083)" style="stroke:#f0701e; stroke-linecap:butt; stroke-linejoin:round; stroke-width:12; stroke-opacity:1; fill:none" points="
  2160.76,496.995 2232.76,496.995 
  "/>
<polyline clip-path="url(#clip083)" style="stroke:#f98c09; stroke-linecap:butt; stroke-linejoin:round; stroke-width:12; stroke-opacity:1; fill:none" points="
  2160.76,407.045 2232.76,407.045 
  "/>
<polyline clip-path="url(#clip083)" style="stroke:#fbaa0e; stroke-linecap:butt; stroke-linejoin:round; stroke-width:12; stroke-opacity:1; fill:none" points="
  2160.76,317.095 2232.76,317.095 
  "/>
<polyline clip-path="url(#clip083)" style="stroke:#f8c931; stroke-linecap:butt; stroke-linejoin:round; stroke-width:12; stroke-opacity:1; fill:none" points="
  2160.76,227.145 2232.76,227.145 
  "/>
<polyline clip-path="url(#clip083)" style="stroke:#f1e864; stroke-linecap:butt; stroke-linejoin:round; stroke-width:12; stroke-opacity:1; fill:none" points="
  2160.76,137.194 2232.76,137.194 
  "/>
<path clip-path="url(#clip080)" d="M2274.38 1279.38 L2290.7 1279.38 L2290.7 1283.32 L2268.76 1283.32 L2268.76 1279.38 Q2271.42 1276.63 2276 1272 Q2280.61 1267.34 2281.79 1266 Q2284.03 1263.48 2284.91 1261.74 Q2285.82 1259.98 2285.82 1258.29 Q2285.82 1255.54 2283.87 1253.8 Q2281.95 1252.07 2278.85 1252.07 Q2276.65 1252.07 2274.2 1252.83 Q2271.77 1253.59 2268.99 1255.14 L2268.99 1250.42 Q2271.81 1249.29 2274.27 1248.71 Q2276.72 1248.13 2278.76 1248.13 Q2284.13 1248.13 2287.32 1250.82 Q2290.52 1253.5 2290.52 1257.99 Q2290.52 1260.12 2289.7 1262.04 Q2288.92 1263.94 2286.81 1266.53 Q2286.23 1267.2 2283.13 1270.42 Q2280.03 1273.62 2274.38 1279.38 Z" fill="#000000" fill-rule="evenodd" fill-opacity="1" /><path clip-path="url(#clip080)" d="M2300.51 1277.44 L2305.4 1277.44 L2305.4 1283.32 L2300.51 1283.32 L2300.51 1277.44 Z" fill="#000000" fill-rule="evenodd" fill-opacity="1" /><path clip-path="url(#clip080)" d="M2315.63 1248.76 L2333.99 1248.76 L2333.99 1252.69 L2319.91 1252.69 L2319.91 1261.16 Q2320.93 1260.82 2321.95 1260.65 Q2322.97 1260.47 2323.99 1260.47 Q2329.77 1260.47 2333.15 1263.64 Q2336.53 1266.81 2336.53 1272.23 Q2336.53 1277.81 2333.06 1280.91 Q2329.59 1283.99 2323.27 1283.99 Q2321.09 1283.99 2318.83 1283.62 Q2316.58 1283.25 2314.17 1282.51 L2314.17 1277.81 Q2316.26 1278.94 2318.48 1279.5 Q2320.7 1280.05 2323.18 1280.05 Q2327.18 1280.05 2329.52 1277.94 Q2331.86 1275.84 2331.86 1272.23 Q2331.86 1268.62 2329.52 1266.51 Q2327.18 1264.4 2323.18 1264.4 Q2321.3 1264.4 2319.43 1264.82 Q2317.58 1265.24 2315.63 1266.12 L2315.63 1248.76 Z" fill="#000000" fill-rule="evenodd" fill-opacity="1" /><path clip-path="url(#clip080)" d="M2270.21 1030.47 L2288.57 1030.47 L2288.57 1034.4 L2274.5 1034.4 L2274.5 1042.87 Q2275.52 1042.53 2276.53 1042.36 Q2277.55 1042.18 2278.57 1042.18 Q2284.36 1042.18 2287.74 1045.35 Q2291.12 1048.52 2291.12 1053.94 Q2291.12 1059.52 2287.64 1062.62 Q2284.17 1065.7 2277.85 1065.7 Q2275.68 1065.7 2273.41 1065.33 Q2271.16 1064.96 2268.76 1064.22 L2268.76 1059.52 Q2270.84 1060.65 2273.06 1061.21 Q2275.28 1061.76 2277.76 1061.76 Q2281.77 1061.76 2284.1 1059.66 Q2286.44 1057.55 2286.44 1053.94 Q2286.44 1050.33 2284.1 1048.22 Q2281.77 1046.11 2277.76 1046.11 Q2275.89 1046.11 2274.01 1046.53 Q2272.16 1046.95 2270.21 1047.83 L2270.21 1030.47 Z" fill="#000000" fill-rule="evenodd" fill-opacity="1" /><path clip-path="url(#clip080)" d="M2300.33 1059.15 L2305.21 1059.15 L2305.21 1065.03 L2300.33 1065.03 L2300.33 1059.15 Z" fill="#000000" fill-rule="evenodd" fill-opacity="1" /><path clip-path="url(#clip080)" d="M2325.4 1033.54 Q2321.79 1033.54 2319.96 1037.11 Q2318.15 1040.65 2318.15 1047.78 Q2318.15 1054.89 2319.96 1058.45 Q2321.79 1061.99 2325.4 1061.99 Q2329.03 1061.99 2330.84 1058.45 Q2332.67 1054.89 2332.67 1047.78 Q2332.67 1040.65 2330.84 1037.11 Q2329.03 1033.54 2325.4 1033.54 M2325.4 1029.84 Q2331.21 1029.84 2334.26 1034.45 Q2337.34 1039.03 2337.34 1047.78 Q2337.34 1056.51 2334.26 1061.11 Q2331.21 1065.7 2325.4 1065.7 Q2319.59 1065.7 2316.51 1061.11 Q2313.45 1056.51 2313.45 1047.78 Q2313.45 1039.03 2316.51 1034.45 Q2319.59 1029.84 2325.4 1029.84 Z" fill="#000000" fill-rule="evenodd" fill-opacity="1" /><path clip-path="url(#clip080)" d="M2268.76 812.177 L2290.98 812.177 L2290.98 814.167 L2278.43 846.737 L2273.55 846.737 L2285.35 816.112 L2268.76 816.112 L2268.76 812.177 Z" fill="#000000" fill-rule="evenodd" fill-opacity="1" /><path clip-path="url(#clip080)" d="M2300.1 840.857 L2304.98 840.857 L2304.98 846.737 L2300.1 846.737 L2300.1 840.857 Z" fill="#000000" fill-rule="evenodd" fill-opacity="1" /><path clip-path="url(#clip080)" d="M2315.21 812.177 L2333.57 812.177 L2333.57 816.112 L2319.5 816.112 L2319.5 824.584 Q2320.51 824.237 2321.53 824.075 Q2322.55 823.89 2323.57 823.89 Q2329.36 823.89 2332.74 827.061 Q2336.12 830.232 2336.12 835.649 Q2336.12 841.227 2332.64 844.329 Q2329.17 847.408 2322.85 847.408 Q2320.68 847.408 2318.41 847.038 Q2316.16 846.667 2313.76 845.927 L2313.76 841.227 Q2315.84 842.362 2318.06 842.917 Q2320.28 843.473 2322.76 843.473 Q2326.76 843.473 2329.1 841.366 Q2331.44 839.26 2331.44 835.649 Q2331.44 832.038 2329.1 829.931 Q2326.76 827.825 2322.76 827.825 Q2320.89 827.825 2319.01 828.241 Q2317.16 828.658 2315.21 829.538 L2315.21 812.177 Z" fill="#000000" fill-rule="evenodd" fill-opacity="1" /><path clip-path="url(#clip080)" d="M2269.43 624.512 L2277.07 624.512 L2277.07 598.147 L2268.76 599.813 L2268.76 595.554 L2277.02 593.887 L2281.7 593.887 L2281.7 624.512 L2289.33 624.512 L2289.33 628.447 L2269.43 628.447 L2269.43 624.512 Z" fill="#000000" fill-rule="evenodd" fill-opacity="1" /><path clip-path="url(#clip080)" d="M2308.78 596.966 Q2305.17 596.966 2303.34 600.531 Q2301.53 604.073 2301.53 611.202 Q2301.53 618.309 2303.34 621.873 Q2305.17 625.415 2308.78 625.415 Q2312.41 625.415 2314.22 621.873 Q2316.05 618.309 2316.05 611.202 Q2316.05 604.073 2314.22 600.531 Q2312.41 596.966 2308.78 596.966 M2308.78 593.262 Q2314.59 593.262 2317.64 597.869 Q2320.72 602.452 2320.72 611.202 Q2320.72 619.929 2317.64 624.535 Q2314.59 629.119 2308.78 629.119 Q2302.97 629.119 2299.89 624.535 Q2296.83 619.929 2296.83 611.202 Q2296.83 602.452 2299.89 597.869 Q2302.97 593.262 2308.78 593.262 Z" fill="#000000" fill-rule="evenodd" fill-opacity="1" /><path clip-path="url(#clip080)" d="M2328.94 622.568 L2333.83 622.568 L2333.83 628.447 L2328.94 628.447 L2328.94 622.568 Z" fill="#000000" fill-rule="evenodd" fill-opacity="1" /><path clip-path="url(#clip080)" d="M2354.01 596.966 Q2350.4 596.966 2348.57 600.531 Q2346.76 604.073 2346.76 611.202 Q2346.76 618.309 2348.57 621.873 Q2350.4 625.415 2354.01 625.415 Q2357.64 625.415 2359.45 621.873 Q2361.28 618.309 2361.28 611.202 Q2361.28 604.073 2359.45 600.531 Q2357.64 596.966 2354.01 596.966 M2354.01 593.262 Q2359.82 593.262 2362.88 597.869 Q2365.95 602.452 2365.95 611.202 Q2365.95 619.929 2362.88 624.535 Q2359.82 629.119 2354.01 629.119 Q2348.2 629.119 2345.12 624.535 Q2342.07 619.929 2342.07 611.202 Q2342.07 602.452 2345.12 597.869 Q2348.2 593.262 2354.01 593.262 Z" fill="#000000" fill-rule="evenodd" fill-opacity="1" /><path clip-path="url(#clip080)" d="M2269.43 406.223 L2277.07 406.223 L2277.07 379.857 L2268.76 381.524 L2268.76 377.265 L2277.02 375.598 L2281.7 375.598 L2281.7 406.223 L2289.33 406.223 L2289.33 410.158 L2269.43 410.158 L2269.43 406.223 Z" fill="#000000" fill-rule="evenodd" fill-opacity="1" /><path clip-path="url(#clip080)" d="M2302.81 406.223 L2319.13 406.223 L2319.13 410.158 L2297.18 410.158 L2297.18 406.223 Q2299.84 403.468 2304.43 398.839 Q2309.03 394.186 2310.21 392.843 Q2312.46 390.32 2313.34 388.584 Q2314.24 386.825 2314.24 385.135 Q2314.24 382.381 2312.3 380.644 Q2310.38 378.908 2307.27 378.908 Q2305.08 378.908 2302.62 379.672 Q2300.19 380.436 2297.41 381.987 L2297.41 377.265 Q2300.24 376.131 2302.69 375.552 Q2305.14 374.973 2307.18 374.973 Q2312.55 374.973 2315.75 377.658 Q2318.94 380.343 2318.94 384.834 Q2318.94 386.964 2318.13 388.885 Q2317.34 390.783 2315.24 393.376 Q2314.66 394.047 2311.56 397.265 Q2308.45 400.459 2302.81 406.223 Z" fill="#000000" fill-rule="evenodd" fill-opacity="1" /><path clip-path="url(#clip080)" d="M2328.94 404.279 L2333.83 404.279 L2333.83 410.158 L2328.94 410.158 L2328.94 404.279 Z" fill="#000000" fill-rule="evenodd" fill-opacity="1" /><path clip-path="url(#clip080)" d="M2344.06 375.598 L2362.41 375.598 L2362.41 379.533 L2348.34 379.533 L2348.34 388.005 Q2349.36 387.658 2350.38 387.496 Q2351.39 387.311 2352.41 387.311 Q2358.2 387.311 2361.58 390.482 Q2364.96 393.654 2364.96 399.07 Q2364.96 404.649 2361.49 407.751 Q2358.01 410.829 2351.7 410.829 Q2349.52 410.829 2347.25 410.459 Q2345.01 410.089 2342.6 409.348 L2342.6 404.649 Q2344.68 405.783 2346.9 406.339 Q2349.13 406.894 2351.6 406.894 Q2355.61 406.894 2357.95 404.788 Q2360.28 402.681 2360.28 399.07 Q2360.28 395.459 2357.95 393.353 Q2355.61 391.246 2351.6 391.246 Q2349.73 391.246 2347.85 391.663 Q2346 392.08 2344.06 392.959 L2344.06 375.598 Z" fill="#000000" fill-rule="evenodd" fill-opacity="1" /><path clip-path="url(#clip080)" d="M2269.43 187.934 L2277.07 187.934 L2277.07 161.568 L2268.76 163.235 L2268.76 158.976 L2277.02 157.309 L2281.7 157.309 L2281.7 187.934 L2289.33 187.934 L2289.33 191.869 L2269.43 191.869 L2269.43 187.934 Z" fill="#000000" fill-rule="evenodd" fill-opacity="1" /><path clip-path="url(#clip080)" d="M2298.83 157.309 L2317.18 157.309 L2317.18 161.244 L2303.11 161.244 L2303.11 169.716 Q2304.13 169.369 2305.14 169.207 Q2306.16 169.022 2307.18 169.022 Q2312.97 169.022 2316.35 172.193 Q2319.73 175.364 2319.73 180.781 Q2319.73 186.36 2316.26 189.461 Q2312.78 192.54 2306.46 192.54 Q2304.29 192.54 2302.02 192.17 Q2299.77 191.799 2297.37 191.059 L2297.37 186.36 Q2299.45 187.494 2301.67 188.049 Q2303.89 188.605 2306.37 188.605 Q2310.38 188.605 2312.71 186.499 Q2315.05 184.392 2315.05 180.781 Q2315.05 177.17 2312.71 175.063 Q2310.38 172.957 2306.37 172.957 Q2304.5 172.957 2302.62 173.374 Q2300.77 173.79 2298.83 174.67 L2298.83 157.309 Z" fill="#000000" fill-rule="evenodd" fill-opacity="1" /><path clip-path="url(#clip080)" d="M2328.94 185.989 L2333.83 185.989 L2333.83 191.869 L2328.94 191.869 L2328.94 185.989 Z" fill="#000000" fill-rule="evenodd" fill-opacity="1" /><path clip-path="url(#clip080)" d="M2354.01 160.388 Q2350.4 160.388 2348.57 163.952 Q2346.76 167.494 2346.76 174.624 Q2346.76 181.73 2348.57 185.295 Q2350.4 188.836 2354.01 188.836 Q2357.64 188.836 2359.45 185.295 Q2361.28 181.73 2361.28 174.624 Q2361.28 167.494 2359.45 163.952 Q2357.64 160.388 2354.01 160.388 M2354.01 156.684 Q2359.82 156.684 2362.88 161.29 Q2365.95 165.874 2365.95 174.624 Q2365.95 183.35 2362.88 187.957 Q2359.82 192.54 2354.01 192.54 Q2348.2 192.54 2345.12 187.957 Q2342.07 183.35 2342.07 174.624 Q2342.07 165.874 2345.12 161.29 Q2348.2 156.684 2354.01 156.684 Z" fill="#000000" fill-rule="evenodd" fill-opacity="1" /><polyline clip-path="url(#clip080)" style="stroke:#000000; stroke-linecap:butt; stroke-linejoin:round; stroke-width:4; stroke-opacity:1; fill:none" points="
  2232.76,1486.45 2232.76,1269.66 2256.76,1269.66 2232.76,1269.66 2232.76,1051.37 2256.76,1051.37 2232.76,1051.37 2232.76,833.085 2256.76,833.085 2232.76,833.085 
  2232.76,614.796 2256.76,614.796 2232.76,614.796 2232.76,396.507 2256.76,396.507 2232.76,396.507 2232.76,178.218 2256.76,178.218 2232.76,178.218 2232.76,47.2441 
  
  "/>
<path clip-path="url(#clip080)" d="
M1783.16 198.898 L2048.8 198.898 L2048.8 95.2176 L1783.16 95.2176  Z
  " fill="#ffffff" fill-rule="evenodd" fill-opacity="1"/>
<polyline clip-path="url(#clip080)" style="stroke:#000000; stroke-linecap:butt; stroke-linejoin:round; stroke-width:4; stroke-opacity:1; fill:none" points="
  1783.16,198.898 2048.8,198.898 2048.8,95.2176 1783.16,95.2176 1783.16,198.898 
  "/>
<polyline clip-path="url(#clip080)" style="stroke:#009af9; stroke-linecap:butt; stroke-linejoin:round; stroke-width:4; stroke-opacity:1; fill:none" points="
  1804.48,147.058 1932.4,147.058 
  "/>
<circle clip-path="url(#clip080)" cx="1868.44" cy="147.058" r="23.04" fill="#009af9" fill-rule="evenodd" fill-opacity="1" stroke="#000000" stroke-opacity="1" stroke-width="5.12"/>
<path clip-path="url(#clip080)" d="M1967.57 166.745 Q1965.76 171.375 1964.05 172.787 Q1962.34 174.199 1959.47 174.199 L1956.06 174.199 L1956.06 170.634 L1958.56 170.634 Q1960.32 170.634 1961.29 169.8 Q1962.27 168.967 1963.45 165.865 L1964.21 163.921 L1953.72 138.412 L1958.24 138.412 L1966.34 158.689 L1974.44 138.412 L1978.96 138.412 L1967.57 166.745 Z" fill="#000000" fill-rule="evenodd" fill-opacity="1" /><path clip-path="url(#clip080)" d="M1986.25 160.402 L1993.89 160.402 L1993.89 134.037 L1985.58 135.703 L1985.58 131.444 L1993.84 129.778 L1998.52 129.778 L1998.52 160.402 L2006.15 160.402 L2006.15 164.338 L1986.25 164.338 L1986.25 160.402 Z" fill="#000000" fill-rule="evenodd" fill-opacity="1" /></svg>
