<?xml version="1.0" encoding="utf-8"?>
<svg xmlns="http://www.w3.org/2000/svg" xmlns:xlink="http://www.w3.org/1999/xlink" width="600" height="400" viewBox="0 0 2400 1600">
<defs>
  <clipPath id="clip890">
    <rect x="0" y="0" width="2400" height="1600"/>
  </clipPath>
</defs>
<path clip-path="url(#clip890)" d="
M0 1600 L2400 1600 L2400 0 L0 0  Z
  " fill="#ffffff" fill-rule="evenodd" fill-opacity="1"/>
<defs>
  <clipPath id="clip891">
    <rect x="480" y="0" width="1681" height="1600"/>
  </clipPath>
</defs>
<path clip-path="url(#clip890)" d="
M112.177 1486.45 L2352.76 1486.45 L2352.76 47.2441 L112.177 47.2441  Z
  " fill="#ffffff" fill-rule="evenodd" fill-opacity="1"/>
<defs>
  <clipPath id="clip892">
    <rect x="112" y="47" width="2242" height="1440"/>
  </clipPath>
</defs>
<polyline clip-path="url(#clip892)" style="stroke:#000000; stroke-linecap:butt; stroke-linejoin:round; stroke-width:2; stroke-opacity:0.1; fill:none" points="
  162.669,1486.45 162.669,47.2441 
  "/>
<polyline clip-path="url(#clip892)" style="stroke:#000000; stroke-linecap:butt; stroke-linejoin:round; stroke-width:2; stroke-opacity:0.1; fill:none" points="
  519.268,1486.45 519.268,47.2441 
  "/>
<polyline clip-path="url(#clip892)" style="stroke:#000000; stroke-linecap:butt; stroke-linejoin:round; stroke-width:2; stroke-opacity:0.1; fill:none" points="
  875.867,1486.45 875.867,47.2441 
  "/>
<polyline clip-path="url(#clip892)" style="stroke:#000000; stroke-linecap:butt; stroke-linejoin:round; stroke-width:2; stroke-opacity:0.1; fill:none" points="
  1232.47,1486.45 1232.47,47.2441 
  "/>
<polyline clip-path="url(#clip892)" style="stroke:#000000; stroke-linecap:butt; stroke-linejoin:round; stroke-width:2; stroke-opacity:0.1; fill:none" points="
  1589.07,1486.45 1589.07,47.2441 
  "/>
<polyline clip-path="url(#clip892)" style="stroke:#000000; stroke-linecap:butt; stroke-linejoin:round; stroke-width:2; stroke-opacity:0.1; fill:none" points="
  1945.66,1486.45 1945.66,47.2441 
  "/>
<polyline clip-path="url(#clip892)" style="stroke:#000000; stroke-linecap:butt; stroke-linejoin:round; stroke-width:2; stroke-opacity:0.1; fill:none" points="
  2302.26,1486.45 2302.26,47.2441 
  "/>
<polyline clip-path="url(#clip890)" style="stroke:#000000; stroke-linecap:butt; stroke-linejoin:round; stroke-width:4; stroke-opacity:1; fill:none" points="
  112.177,1486.45 2352.76,1486.45 
  "/>
<polyline clip-path="url(#clip890)" style="stroke:#000000; stroke-linecap:butt; stroke-linejoin:round; stroke-width:4; stroke-opacity:1; fill:none" points="
  162.669,1486.45 162.669,1467.55 
  "/>
<polyline clip-path="url(#clip890)" style="stroke:#000000; stroke-linecap:butt; stroke-linejoin:round; stroke-width:4; stroke-opacity:1; fill:none" points="
  519.268,1486.45 519.268,1467.55 
  "/>
<polyline clip-path="url(#clip890)" style="stroke:#000000; stroke-linecap:butt; stroke-linejoin:round; stroke-width:4; stroke-opacity:1; fill:none" points="
  875.867,1486.45 875.867,1467.55 
  "/>
<polyline clip-path="url(#clip890)" style="stroke:#000000; stroke-linecap:butt; stroke-linejoin:round; stroke-width:4; stroke-opacity:1; fill:none" points="
  1232.47,1486.45 1232.47,1467.55 
  "/>
<polyline clip-path="url(#clip890)" style="stroke:#000000; stroke-linecap:butt; stroke-linejoin:round; stroke-width:4; stroke-opacity:1; fill:none" points="
  1589.07,1486.45 1589.07,1467.55 
  "/>
<polyline clip-path="url(#clip890)" style="stroke:#000000; stroke-linecap:butt; stroke-linejoin:round; stroke-width:4; stroke-opacity:1; fill:none" points="
  1945.66,1486.45 1945.66,1467.55 
  "/>
<polyline clip-path="url(#clip890)" style="stroke:#000000; stroke-linecap:butt; stroke-linejoin:round; stroke-width:4; stroke-opacity:1; fill:none" points="
  2302.26,1486.45 2302.26,1467.55 
  "/>
<path clip-path="url(#clip890)" d="M132.137 1532.02 L161.813 1532.02 L161.813 1535.95 L132.137 1535.95 L132.137 1532.02 Z" fill="#000000" fill-rule="evenodd" fill-opacity="1" /><path clip-path="url(#clip890)" d="M186.072 1530.21 Q189.428 1530.93 191.303 1533.2 Q193.201 1535.47 193.201 1538.8 Q193.201 1543.92 189.683 1546.72 Q186.164 1549.52 179.683 1549.52 Q177.507 1549.52 175.192 1549.08 Q172.9 1548.66 170.447 1547.81 L170.447 1543.29 Q172.391 1544.43 174.706 1545.01 Q177.021 1545.58 179.544 1545.58 Q183.942 1545.58 186.234 1543.85 Q188.548 1542.11 188.548 1538.8 Q188.548 1535.75 186.396 1534.03 Q184.266 1532.3 180.447 1532.3 L176.419 1532.3 L176.419 1528.45 L180.632 1528.45 Q184.081 1528.45 185.91 1527.09 Q187.738 1525.7 187.738 1523.11 Q187.738 1520.45 185.84 1519.03 Q183.965 1517.6 180.447 1517.6 Q178.525 1517.6 176.326 1518.01 Q174.127 1518.43 171.488 1519.31 L171.488 1515.14 Q174.15 1514.4 176.465 1514.03 Q178.803 1513.66 180.863 1513.66 Q186.187 1513.66 189.289 1516.09 Q192.391 1518.5 192.391 1522.62 Q192.391 1525.49 190.748 1527.48 Q189.104 1529.45 186.072 1530.21 Z" fill="#000000" fill-rule="evenodd" fill-opacity="1" /><path clip-path="url(#clip890)" d="M489.21 1532.02 L518.886 1532.02 L518.886 1535.95 L489.21 1535.95 L489.21 1532.02 Z" fill="#000000" fill-rule="evenodd" fill-opacity="1" /><path clip-path="url(#clip890)" d="M533.007 1544.91 L549.326 1544.91 L549.326 1548.85 L527.382 1548.85 L527.382 1544.91 Q530.044 1542.16 534.627 1537.53 Q539.233 1532.88 540.414 1531.53 Q542.659 1529.01 543.539 1527.27 Q544.442 1525.51 544.442 1523.82 Q544.442 1521.07 542.497 1519.33 Q540.576 1517.6 537.474 1517.6 Q535.275 1517.6 532.821 1518.36 Q530.391 1519.13 527.613 1520.68 L527.613 1515.95 Q530.437 1514.82 532.891 1514.24 Q535.344 1513.66 537.382 1513.66 Q542.752 1513.66 545.946 1516.35 Q549.141 1519.03 549.141 1523.52 Q549.141 1525.65 548.331 1527.57 Q547.543 1529.47 545.437 1532.07 Q544.858 1532.74 541.756 1535.95 Q538.655 1539.15 533.007 1544.91 Z" fill="#000000" fill-rule="evenodd" fill-opacity="1" /><path clip-path="url(#clip890)" d="M845.624 1532.02 L875.3 1532.02 L875.3 1535.95 L845.624 1535.95 L845.624 1532.02 Z" fill="#000000" fill-rule="evenodd" fill-opacity="1" /><path clip-path="url(#clip890)" d="M886.203 1544.91 L893.842 1544.91 L893.842 1518.55 L885.532 1520.21 L885.532 1515.95 L893.796 1514.29 L898.471 1514.29 L898.471 1544.91 L906.11 1544.91 L906.11 1548.85 L886.203 1548.85 L886.203 1544.91 Z" fill="#000000" fill-rule="evenodd" fill-opacity="1" /><path clip-path="url(#clip890)" d="M1232.47 1517.37 Q1228.86 1517.37 1227.03 1520.93 Q1225.22 1524.47 1225.22 1531.6 Q1225.22 1538.71 1227.03 1542.27 Q1228.86 1545.82 1232.47 1545.82 Q1236.1 1545.82 1237.91 1542.27 Q1239.74 1538.71 1239.74 1531.6 Q1239.74 1524.47 1237.91 1520.93 Q1236.1 1517.37 1232.47 1517.37 M1232.47 1513.66 Q1238.28 1513.66 1241.33 1518.27 Q1244.41 1522.85 1244.41 1531.6 Q1244.41 1540.33 1241.33 1544.94 Q1238.28 1549.52 1232.47 1549.52 Q1226.66 1549.52 1223.58 1544.94 Q1220.52 1540.33 1220.52 1531.6 Q1220.52 1522.85 1223.58 1518.27 Q1226.66 1513.66 1232.47 1513.66 Z" fill="#000000" fill-rule="evenodd" fill-opacity="1" /><path clip-path="url(#clip890)" d="M1579.45 1544.91 L1587.09 1544.91 L1587.09 1518.55 L1578.78 1520.21 L1578.78 1515.95 L1587.04 1514.29 L1591.72 1514.29 L1591.72 1544.91 L1599.36 1544.91 L1599.36 1548.85 L1579.45 1548.85 L1579.45 1544.91 Z" fill="#000000" fill-rule="evenodd" fill-opacity="1" /><path clip-path="url(#clip890)" d="M1940.32 1544.91 L1956.64 1544.91 L1956.64 1548.85 L1934.69 1548.85 L1934.69 1544.91 Q1937.35 1542.16 1941.94 1537.53 Q1946.54 1532.88 1947.73 1531.53 Q1949.97 1529.01 1950.85 1527.27 Q1951.75 1525.51 1951.75 1523.82 Q1951.75 1521.07 1949.81 1519.33 Q1947.89 1517.6 1944.79 1517.6 Q1942.59 1517.6 1940.13 1518.36 Q1937.7 1519.13 1934.92 1520.68 L1934.92 1515.95 Q1937.75 1514.82 1940.2 1514.24 Q1942.66 1513.66 1944.69 1513.66 Q1950.06 1513.66 1953.26 1516.35 Q1956.45 1519.03 1956.45 1523.52 Q1956.45 1525.65 1955.64 1527.57 Q1954.85 1529.47 1952.75 1532.07 Q1952.17 1532.74 1949.07 1535.95 Q1945.97 1539.15 1940.32 1544.91 Z" fill="#000000" fill-rule="evenodd" fill-opacity="1" /><path clip-path="url(#clip890)" d="M2306.51 1530.21 Q2309.87 1530.93 2311.74 1533.2 Q2313.64 1535.47 2313.64 1538.8 Q2313.64 1543.92 2310.12 1546.72 Q2306.6 1549.52 2300.12 1549.52 Q2297.95 1549.52 2295.63 1549.08 Q2293.34 1548.66 2290.89 1547.81 L2290.89 1543.29 Q2292.83 1544.43 2295.15 1545.01 Q2297.46 1545.58 2299.98 1545.58 Q2304.38 1545.58 2306.67 1543.85 Q2308.99 1542.11 2308.99 1538.8 Q2308.99 1535.75 2306.84 1534.03 Q2304.71 1532.3 2300.89 1532.3 L2296.86 1532.3 L2296.86 1528.45 L2301.07 1528.45 Q2304.52 1528.45 2306.35 1527.09 Q2308.18 1525.7 2308.18 1523.11 Q2308.18 1520.45 2306.28 1519.03 Q2304.41 1517.6 2300.89 1517.6 Q2298.97 1517.6 2296.77 1518.01 Q2294.57 1518.43 2291.93 1519.31 L2291.93 1515.14 Q2294.59 1514.4 2296.91 1514.03 Q2299.24 1513.66 2301.3 1513.66 Q2306.63 1513.66 2309.73 1516.09 Q2312.83 1518.5 2312.83 1522.62 Q2312.83 1525.49 2311.19 1527.48 Q2309.54 1529.45 2306.51 1530.21 Z" fill="#000000" fill-rule="evenodd" fill-opacity="1" /><polyline clip-path="url(#clip892)" style="stroke:#000000; stroke-linecap:butt; stroke-linejoin:round; stroke-width:2; stroke-opacity:0.1; fill:none" points="
  112.177,1486.45 2352.76,1486.45 
  "/>
<polyline clip-path="url(#clip892)" style="stroke:#000000; stroke-linecap:butt; stroke-linejoin:round; stroke-width:2; stroke-opacity:0.1; fill:none" points="
  112.177,1198.61 2352.76,1198.61 
  "/>
<polyline clip-path="url(#clip892)" style="stroke:#000000; stroke-linecap:butt; stroke-linejoin:round; stroke-width:2; stroke-opacity:0.1; fill:none" points="
  112.177,910.766 2352.76,910.766 
  "/>
<polyline clip-path="url(#clip892)" style="stroke:#000000; stroke-linecap:butt; stroke-linejoin:round; stroke-width:2; stroke-opacity:0.1; fill:none" points="
  112.177,622.926 2352.76,622.926 
  "/>
<polyline clip-path="url(#clip892)" style="stroke:#000000; stroke-linecap:butt; stroke-linejoin:round; stroke-width:2; stroke-opacity:0.1; fill:none" points="
  112.177,335.085 2352.76,335.085 
  "/>
<polyline clip-path="url(#clip892)" style="stroke:#000000; stroke-linecap:butt; stroke-linejoin:round; stroke-width:2; stroke-opacity:0.1; fill:none" points="
  112.177,47.2441 2352.76,47.2441 
  "/>
<polyline clip-path="url(#clip890)" style="stroke:#000000; stroke-linecap:butt; stroke-linejoin:round; stroke-width:4; stroke-opacity:1; fill:none" points="
  112.177,1486.45 112.177,47.2441 
  "/>
<polyline clip-path="url(#clip890)" style="stroke:#000000; stroke-linecap:butt; stroke-linejoin:round; stroke-width:4; stroke-opacity:1; fill:none" points="
  112.177,1486.45 131.075,1486.45 
  "/>
<polyline clip-path="url(#clip890)" style="stroke:#000000; stroke-linecap:butt; stroke-linejoin:round; stroke-width:4; stroke-opacity:1; fill:none" points="
  112.177,1198.61 131.075,1198.61 
  "/>
<polyline clip-path="url(#clip890)" style="stroke:#000000; stroke-linecap:butt; stroke-linejoin:round; stroke-width:4; stroke-opacity:1; fill:none" points="
  112.177,910.766 131.075,910.766 
  "/>
<polyline clip-path="url(#clip890)" style="stroke:#000000; stroke-linecap:butt; stroke-linejoin:round; stroke-width:4; stroke-opacity:1; fill:none" points="
  112.177,622.926 131.075,622.926 
  "/>
<polyline clip-path="url(#clip890)" style="stroke:#000000; stroke-linecap:butt; stroke-linejoin:round; stroke-width:4; stroke-opacity:1; fill:none" points="
  112.177,335.085 131.075,335.085 
  "/>
<polyline clip-path="url(#clip890)" style="stroke:#000000; stroke-linecap:butt; stroke-linejoin:round; stroke-width:4; stroke-opacity:1; fill:none" points="
  112.177,47.2441 131.075,47.2441 
  "/>
<path clip-path="url(#clip890)" d="M64.2328 1472.25 Q60.6217 1472.25 58.793 1475.81 Q56.9875 1479.35 56.9875 1486.48 Q56.9875 1493.59 58.793 1497.15 Q60.6217 1500.7 64.2328 1500.7 Q67.867 1500.7 69.6726 1497.15 Q71.5013 1493.59 71.5013 1486.48 Q71.5013 1479.35 69.6726 1475.81 Q67.867 1472.25 64.2328 1472.25 M64.2328 1468.54 Q70.0429 1468.54 73.0985 1473.15 Q76.1772 1477.73 76.1772 1486.48 Q76.1772 1495.21 73.0985 1499.82 Q70.0429 1504.4 64.2328 1504.4 Q58.4226 1504.4 55.344 1499.82 Q52.2884 1495.21 52.2884 1486.48 Q52.2884 1477.73 55.344 1473.15 Q58.4226 1468.54 64.2328 1468.54 Z" fill="#000000" fill-rule="evenodd" fill-opacity="1" /><path clip-path="url(#clip890)" d="M56.2699 1211.95 L63.9087 1211.95 L63.9087 1185.59 L55.5986 1187.25 L55.5986 1182.99 L63.8624 1181.33 L68.5383 1181.33 L68.5383 1211.95 L76.1772 1211.95 L76.1772 1215.89 L56.2699 1215.89 L56.2699 1211.95 Z" fill="#000000" fill-rule="evenodd" fill-opacity="1" /><path clip-path="url(#clip890)" d="M59.8578 924.111 L76.1772 924.111 L76.1772 928.046 L54.2328 928.046 L54.2328 924.111 Q56.8949 921.357 61.4782 916.727 Q66.0846 912.074 67.2652 910.732 Q69.5105 908.209 70.3902 906.472 Q71.2929 904.713 71.2929 903.023 Q71.2929 900.269 69.3485 898.533 Q67.4272 896.797 64.3254 896.797 Q62.1263 896.797 59.6726 897.56 Q57.2421 898.324 54.4643 899.875 L54.4643 895.153 Q57.2884 894.019 59.7421 893.44 Q62.1958 892.861 64.2328 892.861 Q69.6031 892.861 72.7976 895.547 Q75.992 898.232 75.992 902.722 Q75.992 904.852 75.1818 906.773 Q74.3948 908.671 72.2883 911.264 Q71.7096 911.935 68.6078 915.153 Q65.5059 918.347 59.8578 924.111 Z" fill="#000000" fill-rule="evenodd" fill-opacity="1" /><path clip-path="url(#clip890)" d="M69.0476 621.571 Q72.404 622.289 74.279 624.558 Q76.1772 626.826 76.1772 630.159 Q76.1772 635.275 72.6587 638.076 Q69.1402 640.877 62.6587 640.877 Q60.4828 640.877 58.168 640.437 Q55.8764 640.02 53.4227 639.164 L53.4227 634.65 Q55.3671 635.784 57.6819 636.363 Q59.9967 636.942 62.5198 636.942 Q66.918 636.942 69.2096 635.206 Q71.5244 633.47 71.5244 630.159 Q71.5244 627.104 69.3717 625.391 Q67.242 623.655 63.4226 623.655 L59.3949 623.655 L59.3949 619.812 L63.6078 619.812 Q67.0569 619.812 68.8855 618.446 Q70.7142 617.058 70.7142 614.465 Q70.7142 611.803 68.8161 610.391 Q66.9411 608.956 63.4226 608.956 Q61.5013 608.956 59.3023 609.372 Q57.1032 609.789 54.4643 610.669 L54.4643 606.502 Q57.1264 605.761 59.4412 605.391 Q61.7791 605.021 63.8393 605.021 Q69.1633 605.021 72.2652 607.451 Q75.367 609.859 75.367 613.979 Q75.367 616.849 73.7235 618.84 Q72.08 620.808 69.0476 621.571 Z" fill="#000000" fill-rule="evenodd" fill-opacity="1" /><path clip-path="url(#clip890)" d="M66.5939 321.879 L54.7884 340.328 L66.5939 340.328 L66.5939 321.879 M65.367 317.805 L71.2466 317.805 L71.2466 340.328 L76.1772 340.328 L76.1772 344.217 L71.2466 344.217 L71.2466 352.365 L66.5939 352.365 L66.5939 344.217 L50.9921 344.217 L50.9921 339.703 L65.367 317.805 Z" fill="#000000" fill-rule="evenodd" fill-opacity="1" /><path clip-path="url(#clip890)" d="M55.2745 29.9641 L73.6309 29.9641 L73.6309 33.8993 L59.5569 33.8993 L59.5569 42.3714 Q60.5754 42.0242 61.5939 41.8622 Q62.6124 41.677 63.6309 41.677 Q69.418 41.677 72.7976 44.8483 Q76.1772 48.0196 76.1772 53.4362 Q76.1772 59.0149 72.705 62.1167 Q69.2328 65.1954 62.9134 65.1954 Q60.7374 65.1954 58.4689 64.825 Q56.2236 64.4547 53.8162 63.7139 L53.8162 59.0149 Q55.8995 60.1491 58.1217 60.7047 Q60.3439 61.2602 62.8208 61.2602 Q66.8254 61.2602 69.1633 59.1538 Q71.5013 57.0473 71.5013 53.4362 Q71.5013 49.8251 69.1633 47.7186 Q66.8254 45.6122 62.8208 45.6122 Q60.9458 45.6122 59.0708 46.0288 Q57.2189 46.4455 55.2745 47.3251 L55.2745 29.9641 Z" fill="#000000" fill-rule="evenodd" fill-opacity="1" /><polyline clip-path="url(#clip892)" style="stroke:#009af9; stroke-linecap:butt; stroke-linejoin:round; stroke-width:12; stroke-opacity:1; fill:none" points="
  112.177,335.085 115.824,335.115 119.471,335.205 123.118,335.356 126.765,335.566 143.625,337.322 160.485,340.359 177.345,344.671 194.205,350.248 211.065,357.078 
  227.926,365.146 244.786,374.433 261.646,384.919 281.911,399.075 302.175,414.883 322.44,432.292 342.704,451.245 359.838,468.43 376.971,486.636 394.104,505.821 
  411.238,525.941 429.85,548.801 448.461,572.647 467.073,597.414 485.685,623.034 520.001,672.275 554.318,723.723 627.9,839.239 713.152,976.538 751.033,1036.81 
  788.914,1095.65 822.133,1145.56 855.351,1193.44 873.459,1218.53 891.568,1242.83 909.676,1266.27 927.784,1288.8 946,1310.47 964.216,1331.1 982.432,1350.64 
  1000.65,1369.03 1020.79,1387.97 1040.93,1405.38 1061.07,1421.22 1081.21,1435.43 1100.37,1447.4 1119.53,1457.82 1138.7,1466.66 1157.86,1473.89 1177.79,1479.69 
  1197.71,1483.72 1217.64,1485.95 1237.56,1486.39 1254.33,1485.37 1271.11,1483.07 1287.88,1479.51 1304.65,1474.69 1325.13,1467.12 1345.6,1457.72 1366.08,1446.51 
  1386.56,1433.53 1405.32,1420.13 1424.08,1405.32 1442.84,1389.15 1461.59,1371.65 1478.92,1354.35 1496.24,1336 1513.57,1316.66 1530.89,1296.35 1548.44,1274.86 
  1565.99,1252.48 1583.54,1229.27 1601.09,1205.3 1640.43,1149.05 1679.77,1089.92 1715.41,1034.43 1751.06,977.7 1832.68,846.219 1908.25,727.332 1945.51,671.429 
  1982.76,618.135 2000.85,593.379 2018.93,569.44 2037.02,546.378 2055.1,524.253 2073.64,502.604 2092.18,482.058 2110.72,462.671 2129.26,444.495 2149.58,426.029 
  2169.89,409.136 2190.2,393.869 2210.51,380.28 2225.27,371.485 2240.02,363.614 2254.77,356.68 2269.53,350.693 2299.03,341.605 2328.54,336.412 2334.6,335.831 
  2340.65,335.417 2346.7,335.168 2352.76,335.085 
  "/>
<polyline clip-path="url(#clip892)" style="stroke:#e26f46; stroke-linecap:butt; stroke-linejoin:round; stroke-width:12; stroke-opacity:1; fill:none" points="
  112.177,-1354.43 115.824,-1335.96 119.471,-1317.56 123.118,-1299.21 126.765,-1280.93 160.485,-1114.71 194.205,-953.637 227.926,-797.714 261.646,-646.938 302.175,-472.53 
  342.704,-305.559 376.971,-170.188 411.238,-40.133 448.461,95.1196 485.685,224.099 520.001,337.451 554.318,445.47 591.109,555.357 627.9,659.116 649.213,716.42 
  670.526,771.668 691.839,824.86 713.152,875.995 751.033,961.805 788.914,1041.12 822.133,1105.32 855.351,1164.53 891.568,1223.4 927.784,1276.32 964.216,1323.57 
  1000.65,1364.81 1040.93,1403.41 1081.21,1434.66 1119.53,1457.58 1157.86,1473.85 1197.71,1483.71 1237.56,1486.39 1271.11,1483.07 1304.65,1474.65 1325.13,1467.01 
  1345.6,1457.47 1366.08,1446.04 1386.56,1432.7 1424.08,1403.34 1461.59,1367.61 1496.24,1328.95 1530.89,1284.86 1565.99,1234.65 1601.09,1178.86 1640.43,1109.72 
  1679.77,1033.56 1715.41,958.507 1751.06,877.698 1771.46,828.849 1791.87,778.115 1812.27,725.496 1832.68,670.992 1870.47,565.082 1908.25,452.708 1945.51,335.592 
  1982.76,212.193 2018.93,86.3713 2055.1,-45.3733 2092.18,-186.576 2129.26,-334.004 2149.58,-417.405 2169.89,-502.673 2190.2,-589.81 2210.51,-678.814 2240.02,-811.435 
  2269.53,-947.998 2299.03,-1088.5 2328.54,-1232.95 2334.6,-1263.07 2340.65,-1293.36 2346.7,-1323.81 2352.76,-1354.43 
  "/>
<path clip-path="url(#clip890)" d="
M1976.69 250.738 L2278.07 250.738 L2278.07 95.2176 L1976.69 95.2176  Z
  " fill="#ffffff" fill-rule="evenodd" fill-opacity="1"/>
<polyline clip-path="url(#clip890)" style="stroke:#000000; stroke-linecap:butt; stroke-linejoin:round; stroke-width:4; stroke-opacity:1; fill:none" points="
  1976.69,250.738 2278.07,250.738 2278.07,95.2176 1976.69,95.2176 1976.69,250.738 
  "/>
<polyline clip-path="url(#clip890)" style="stroke:#009af9; stroke-linecap:butt; stroke-linejoin:round; stroke-width:4; stroke-opacity:1; fill:none" points="
  2001.58,147.058 2150.95,147.058 
  "/>
<path clip-path="url(#clip890)" d="M2189.69 166.745 Q2187.89 171.375 2186.17 172.787 Q2184.46 174.199 2181.59 174.199 L2178.19 174.199 L2178.19 170.634 L2180.69 170.634 Q2182.45 170.634 2183.42 169.8 Q2184.39 168.967 2185.57 165.865 L2186.34 163.921 L2175.85 138.412 L2180.36 138.412 L2188.46 158.689 L2196.57 138.412 L2201.08 138.412 L2189.69 166.745 Z" fill="#000000" fill-rule="evenodd" fill-opacity="1" /><path clip-path="url(#clip890)" d="M2208.37 160.402 L2216.01 160.402 L2216.01 134.037 L2207.7 135.703 L2207.7 131.444 L2215.96 129.778 L2220.64 129.778 L2220.64 160.402 L2228.28 160.402 L2228.28 164.338 L2208.37 164.338 L2208.37 160.402 Z" fill="#000000" fill-rule="evenodd" fill-opacity="1" /><polyline clip-path="url(#clip890)" style="stroke:#e26f46; stroke-linecap:butt; stroke-linejoin:round; stroke-width:4; stroke-opacity:1; fill:none" points="
  2001.58,198.898 2150.95,198.898 
  "/>
<path clip-path="url(#clip890)" d="M2189.69 218.585 Q2187.89 223.215 2186.17 224.627 Q2184.46 226.039 2181.59 226.039 L2178.19 226.039 L2178.19 222.474 L2180.69 222.474 Q2182.45 222.474 2183.42 221.64 Q2184.39 220.807 2185.57 217.705 L2186.34 215.761 L2175.85 190.252 L2180.36 190.252 L2188.46 210.529 L2196.57 190.252 L2201.08 190.252 L2189.69 218.585 Z" fill="#000000" fill-rule="evenodd" fill-opacity="1" /><path clip-path="url(#clip890)" d="M2211.59 212.242 L2227.91 212.242 L2227.91 216.178 L2205.96 216.178 L2205.96 212.242 Q2208.63 209.488 2213.21 204.858 Q2217.82 200.205 2219 198.863 Q2221.24 196.34 2222.12 194.604 Q2223.02 192.844 2223.02 191.155 Q2223.02 188.4 2221.08 186.664 Q2219.16 184.928 2216.06 184.928 Q2213.86 184.928 2211.4 185.692 Q2208.97 186.455 2206.2 188.006 L2206.2 183.284 Q2209.02 182.15 2211.47 181.571 Q2213.93 180.993 2215.96 180.993 Q2221.33 180.993 2224.53 183.678 Q2227.72 186.363 2227.72 190.854 Q2227.72 192.983 2226.91 194.905 Q2226.13 196.803 2224.02 199.395 Q2223.44 200.067 2220.34 203.284 Q2217.24 206.479 2211.59 212.242 Z" fill="#000000" fill-rule="evenodd" fill-opacity="1" /></svg>
