<?xml version="1.0" encoding="utf-8"?>
<svg xmlns="http://www.w3.org/2000/svg" xmlns:xlink="http://www.w3.org/1999/xlink" width="600" height="400" viewBox="0 0 2400 1600">
<defs>
  <clipPath id="clip790">
    <rect x="0" y="0" width="2400" height="1600"/>
  </clipPath>
</defs>
<path clip-path="url(#clip790)" d="
M0 1600 L2400 1600 L2400 0 L0 0  Z
  " fill="#ffffff" fill-rule="evenodd" fill-opacity="1"/>
<defs>
  <clipPath id="clip791">
    <rect x="480" y="0" width="1681" height="1600"/>
  </clipPath>
</defs>
<path clip-path="url(#clip790)" d="
M251.071 1410.9 L2352.76 1410.9 L2352.76 47.2441 L251.071 47.2441  Z
  " fill="#ffffff" fill-rule="evenodd" fill-opacity="1"/>
<defs>
  <clipPath id="clip792">
    <rect x="251" y="47" width="2103" height="1365"/>
  </clipPath>
</defs>
<polyline clip-path="url(#clip792)" style="stroke:#000000; stroke-linecap:butt; stroke-linejoin:round; stroke-width:2; stroke-opacity:0.1; fill:none" points="
  977.216,1410.9 977.216,47.2441 
  "/>
<polyline clip-path="url(#clip792)" style="stroke:#000000; stroke-linecap:butt; stroke-linejoin:round; stroke-width:2; stroke-opacity:0.1; fill:none" points="
  1762,1410.9 1762,47.2441 
  "/>
<polyline clip-path="url(#clip790)" style="stroke:#000000; stroke-linecap:butt; stroke-linejoin:round; stroke-width:4; stroke-opacity:1; fill:none" points="
  251.071,1410.9 2352.76,1410.9 
  "/>
<polyline clip-path="url(#clip790)" style="stroke:#000000; stroke-linecap:butt; stroke-linejoin:round; stroke-width:4; stroke-opacity:1; fill:none" points="
  977.216,1410.9 977.216,1392 
  "/>
<polyline clip-path="url(#clip790)" style="stroke:#000000; stroke-linecap:butt; stroke-linejoin:round; stroke-width:4; stroke-opacity:1; fill:none" points="
  1762,1410.9 1762,1392 
  "/>
<path clip-path="url(#clip790)" d="M942.66 1485.02 L950.298 1485.02 L950.298 1458.66 L941.988 1460.32 L941.988 1456.06 L950.252 1454.4 L954.928 1454.4 L954.928 1485.02 L962.567 1485.02 L962.567 1488.96 L942.66 1488.96 L942.66 1485.02 Z" fill="#000000" fill-rule="evenodd" fill-opacity="1" /><path clip-path="url(#clip790)" d="M982.011 1457.48 Q978.4 1457.48 976.571 1461.04 Q974.766 1464.58 974.766 1471.71 Q974.766 1478.82 976.571 1482.38 Q978.4 1485.92 982.011 1485.92 Q985.645 1485.92 987.451 1482.38 Q989.28 1478.82 989.28 1471.71 Q989.28 1464.58 987.451 1461.04 Q985.645 1457.48 982.011 1457.48 M982.011 1453.77 Q987.821 1453.77 990.877 1458.38 Q993.956 1462.96 993.956 1471.71 Q993.956 1480.44 990.877 1485.04 Q987.821 1489.63 982.011 1489.63 Q976.201 1489.63 973.122 1485.04 Q970.067 1480.44 970.067 1471.71 Q970.067 1462.96 973.122 1458.38 Q976.201 1453.77 982.011 1453.77 Z" fill="#000000" fill-rule="evenodd" fill-opacity="1" /><path clip-path="url(#clip790)" d="M1006.65 1446.41 Q1009.38 1446.99 1010.9 1448.83 Q1012.44 1450.68 1012.44 1453.38 Q1012.44 1457.54 1009.58 1459.82 Q1006.73 1462.09 1001.46 1462.09 Q999.692 1462.09 997.811 1461.73 Q995.949 1461.4 993.956 1460.7 L993.956 1457.03 Q995.535 1457.95 997.416 1458.42 Q999.297 1458.89 1001.35 1458.89 Q1004.92 1458.89 1006.78 1457.48 Q1008.66 1456.07 1008.66 1453.38 Q1008.66 1450.9 1006.91 1449.51 Q1005.18 1448.1 1002.08 1448.1 L998.808 1448.1 L998.808 1444.98 L1002.23 1444.98 Q1005.03 1444.98 1006.52 1443.87 Q1008.01 1442.74 1008.01 1440.63 Q1008.01 1438.47 1006.46 1437.32 Q1004.94 1436.16 1002.08 1436.16 Q1000.52 1436.16 998.733 1436.49 Q996.946 1436.83 994.802 1437.55 L994.802 1434.16 Q996.965 1433.56 998.846 1433.26 Q1000.75 1432.96 1002.42 1432.96 Q1006.74 1432.96 1009.27 1434.93 Q1011.79 1436.89 1011.79 1440.24 Q1011.79 1442.57 1010.45 1444.19 Q1009.11 1445.79 1006.65 1446.41 Z" fill="#000000" fill-rule="evenodd" fill-opacity="1" /><path clip-path="url(#clip790)" d="M1726.99 1485.02 L1734.63 1485.02 L1734.63 1458.66 L1726.32 1460.32 L1726.32 1456.06 L1734.59 1454.4 L1739.26 1454.4 L1739.26 1485.02 L1746.9 1485.02 L1746.9 1488.96 L1726.99 1488.96 L1726.99 1485.02 Z" fill="#000000" fill-rule="evenodd" fill-opacity="1" /><path clip-path="url(#clip790)" d="M1766.34 1457.48 Q1762.73 1457.48 1760.91 1461.04 Q1759.1 1464.58 1759.1 1471.71 Q1759.1 1478.82 1760.91 1482.38 Q1762.73 1485.92 1766.34 1485.92 Q1769.98 1485.92 1771.78 1482.38 Q1773.61 1478.82 1773.61 1471.71 Q1773.61 1464.58 1771.78 1461.04 Q1769.98 1457.48 1766.34 1457.48 M1766.34 1453.77 Q1772.16 1453.77 1775.21 1458.38 Q1778.29 1462.96 1778.29 1471.71 Q1778.29 1480.44 1775.21 1485.04 Q1772.16 1489.63 1766.34 1489.63 Q1760.53 1489.63 1757.46 1485.04 Q1754.4 1480.44 1754.4 1471.71 Q1754.4 1462.96 1757.46 1458.38 Q1760.53 1453.77 1766.34 1453.77 Z" fill="#000000" fill-rule="evenodd" fill-opacity="1" /><path clip-path="url(#clip790)" d="M1788.31 1445.99 Q1785.76 1445.99 1784.25 1447.74 Q1782.77 1449.49 1782.77 1452.54 Q1782.77 1455.57 1784.25 1457.33 Q1785.76 1459.08 1788.31 1459.08 Q1790.87 1459.08 1792.36 1457.33 Q1793.86 1455.57 1793.86 1452.54 Q1793.86 1449.49 1792.36 1447.74 Q1790.87 1445.99 1788.31 1445.99 M1795.86 1434.09 L1795.86 1437.55 Q1794.43 1436.87 1792.96 1436.51 Q1791.51 1436.16 1790.08 1436.16 Q1786.32 1436.16 1784.33 1438.69 Q1782.35 1441.23 1782.07 1446.37 Q1783.18 1444.73 1784.85 1443.87 Q1786.53 1442.98 1788.54 1442.98 Q1792.77 1442.98 1795.22 1445.56 Q1797.68 1448.12 1797.68 1452.54 Q1797.68 1456.86 1795.12 1459.48 Q1792.56 1462.09 1788.31 1462.09 Q1783.44 1462.09 1780.87 1458.37 Q1778.29 1454.62 1778.29 1447.53 Q1778.29 1440.88 1781.45 1436.93 Q1784.61 1432.96 1789.93 1432.96 Q1791.36 1432.96 1792.81 1433.24 Q1794.28 1433.52 1795.86 1434.09 Z" fill="#000000" fill-rule="evenodd" fill-opacity="1" /><path clip-path="url(#clip790)" d="M1265.07 1539.91 L1265.07 1545.38 Q1262.59 1544.01 1260.07 1543.34 Q1257.59 1542.64 1255.05 1542.64 Q1249.35 1542.64 1246.2 1546.27 Q1243.05 1549.87 1243.05 1556.39 Q1243.05 1562.92 1246.2 1566.55 Q1249.35 1570.14 1255.05 1570.14 Q1257.59 1570.14 1260.07 1569.47 Q1262.59 1568.77 1265.07 1567.41 L1265.07 1572.82 Q1262.62 1573.96 1259.98 1574.54 Q1257.37 1575.11 1254.41 1575.11 Q1246.36 1575.11 1241.61 1570.05 Q1236.87 1564.99 1236.87 1556.39 Q1236.87 1547.67 1241.65 1542.68 Q1246.45 1537.68 1254.79 1537.68 Q1257.5 1537.68 1260.07 1538.25 Q1262.65 1538.79 1265.07 1539.91 Z" fill="#000000" fill-rule="evenodd" fill-opacity="1" /><path clip-path="url(#clip790)" d="M1289.07 1542.64 Q1284.36 1542.64 1281.62 1546.34 Q1278.89 1550 1278.89 1556.39 Q1278.89 1562.79 1281.59 1566.48 Q1284.33 1570.14 1289.07 1570.14 Q1293.75 1570.14 1296.49 1566.45 Q1299.22 1562.76 1299.22 1556.39 Q1299.22 1550.06 1296.49 1546.37 Q1293.75 1542.64 1289.07 1542.64 M1289.07 1537.68 Q1296.71 1537.68 1301.07 1542.64 Q1305.43 1547.61 1305.43 1556.39 Q1305.43 1565.15 1301.07 1570.14 Q1296.71 1575.11 1289.07 1575.11 Q1281.4 1575.11 1277.04 1570.14 Q1272.71 1565.15 1272.71 1556.39 Q1272.71 1547.61 1277.04 1542.64 Q1281.4 1537.68 1289.07 1537.68 Z" fill="#000000" fill-rule="evenodd" fill-opacity="1" /><path clip-path="url(#clip790)" d="M1337.86 1539.59 L1337.86 1545.13 Q1335.38 1543.85 1332.71 1543.22 Q1330.03 1542.58 1327.17 1542.58 Q1322.81 1542.58 1320.61 1543.92 Q1318.45 1545.25 1318.45 1547.93 Q1318.45 1549.96 1320.01 1551.14 Q1321.57 1552.29 1326.28 1553.34 L1328.28 1553.78 Q1334.52 1555.12 1337.13 1557.57 Q1339.77 1559.99 1339.77 1564.35 Q1339.77 1569.32 1335.83 1572.21 Q1331.91 1575.11 1325.04 1575.11 Q1322.17 1575.11 1319.05 1574.54 Q1315.97 1573.99 1312.53 1572.88 L1312.53 1566.83 Q1315.77 1568.52 1318.93 1569.38 Q1322.08 1570.21 1325.16 1570.21 Q1329.3 1570.21 1331.53 1568.81 Q1333.76 1567.37 1333.76 1564.8 Q1333.76 1562.41 1332.13 1561.14 Q1330.54 1559.86 1325.1 1558.68 L1323.06 1558.21 Q1317.62 1557.06 1315.2 1554.71 Q1312.78 1552.32 1312.78 1548.18 Q1312.78 1543.15 1316.35 1540.42 Q1319.91 1537.68 1326.47 1537.68 Q1329.72 1537.68 1332.58 1538.16 Q1335.44 1538.63 1337.86 1539.59 Z" fill="#000000" fill-rule="evenodd" fill-opacity="1" /><path clip-path="url(#clip790)" d="M1354.89 1528.42 L1354.89 1538.54 L1366.96 1538.54 L1366.96 1543.09 L1354.89 1543.09 L1354.89 1562.44 Q1354.89 1566.8 1356.07 1568.04 Q1357.28 1569.28 1360.94 1569.28 L1366.96 1569.28 L1366.96 1574.19 L1360.94 1574.19 Q1354.16 1574.19 1351.58 1571.67 Q1349 1569.12 1349 1562.44 L1349 1543.09 L1344.71 1543.09 L1344.71 1538.54 L1349 1538.54 L1349 1528.42 L1354.89 1528.42 Z" fill="#000000" fill-rule="evenodd" fill-opacity="1" /><polyline clip-path="url(#clip792)" style="stroke:#000000; stroke-linecap:butt; stroke-linejoin:round; stroke-width:2; stroke-opacity:0.1; fill:none" points="
  251.071,1048.21 2352.76,1048.21 
  "/>
<polyline clip-path="url(#clip792)" style="stroke:#000000; stroke-linecap:butt; stroke-linejoin:round; stroke-width:2; stroke-opacity:0.1; fill:none" points="
  251.071,406.628 2352.76,406.628 
  "/>
<polyline clip-path="url(#clip790)" style="stroke:#000000; stroke-linecap:butt; stroke-linejoin:round; stroke-width:4; stroke-opacity:1; fill:none" points="
  251.071,1410.9 251.071,47.2441 
  "/>
<polyline clip-path="url(#clip790)" style="stroke:#000000; stroke-linecap:butt; stroke-linejoin:round; stroke-width:4; stroke-opacity:1; fill:none" points="
  251.071,1048.21 269.969,1048.21 
  "/>
<polyline clip-path="url(#clip790)" style="stroke:#000000; stroke-linecap:butt; stroke-linejoin:round; stroke-width:4; stroke-opacity:1; fill:none" points="
  251.071,406.628 269.969,406.628 
  "/>
<path clip-path="url(#clip790)" d="M114.931 1068 L122.57 1068 L122.57 1041.64 L114.26 1043.3 L114.26 1039.04 L122.524 1037.38 L127.2 1037.38 L127.2 1068 L134.839 1068 L134.839 1071.94 L114.931 1071.94 L114.931 1068 Z" fill="#000000" fill-rule="evenodd" fill-opacity="1" /><path clip-path="url(#clip790)" d="M154.283 1040.45 Q150.672 1040.45 148.843 1044.02 Q147.038 1047.56 147.038 1054.69 Q147.038 1061.8 148.843 1065.36 Q150.672 1068.9 154.283 1068.9 Q157.917 1068.9 159.723 1065.36 Q161.552 1061.8 161.552 1054.69 Q161.552 1047.56 159.723 1044.02 Q157.917 1040.45 154.283 1040.45 M154.283 1036.75 Q160.093 1036.75 163.149 1041.36 Q166.227 1045.94 166.227 1054.69 Q166.227 1063.42 163.149 1068.02 Q160.093 1072.61 154.283 1072.61 Q148.473 1072.61 145.394 1068.02 Q142.339 1063.42 142.339 1054.69 Q142.339 1045.94 145.394 1041.36 Q148.473 1036.75 154.283 1036.75 Z" fill="#000000" fill-rule="evenodd" fill-opacity="1" /><path clip-path="url(#clip790)" d="M166.227 1030.85 L190.339 1030.85 L190.339 1034.05 L166.227 1034.05 L166.227 1030.85 Z" fill="#000000" fill-rule="evenodd" fill-opacity="1" /><path clip-path="url(#clip790)" d="M201.812 1041.33 L215.071 1041.33 L215.071 1044.53 L197.241 1044.53 L197.241 1041.33 Q199.404 1039.09 203.128 1035.33 Q206.871 1031.55 207.83 1030.46 Q209.655 1028.41 210.369 1027 Q211.103 1025.57 211.103 1024.19 Q211.103 1021.96 209.523 1020.55 Q207.962 1019.14 205.442 1019.14 Q203.655 1019.14 201.661 1019.76 Q199.686 1020.38 197.43 1021.64 L197.43 1017.8 Q199.724 1016.88 201.718 1016.41 Q203.711 1015.94 205.366 1015.94 Q209.73 1015.94 212.325 1018.12 Q214.921 1020.3 214.921 1023.95 Q214.921 1025.68 214.263 1027.24 Q213.623 1028.78 211.912 1030.89 Q211.441 1031.44 208.921 1034.05 Q206.401 1036.65 201.812 1041.33 Z" fill="#000000" fill-rule="evenodd" fill-opacity="1" /><path clip-path="url(#clip790)" d="M144.366 426.421 L152.004 426.421 L152.004 400.055 L143.694 401.722 L143.694 397.462 L151.958 395.796 L156.634 395.796 L156.634 426.421 L164.273 426.421 L164.273 430.356 L144.366 430.356 L144.366 426.421 Z" fill="#000000" fill-rule="evenodd" fill-opacity="1" /><path clip-path="url(#clip790)" d="M183.717 398.874 Q180.106 398.874 178.277 402.439 Q176.472 405.981 176.472 413.11 Q176.472 420.217 178.277 423.782 Q180.106 427.323 183.717 427.323 Q187.351 427.323 189.157 423.782 Q190.986 420.217 190.986 413.11 Q190.986 405.981 189.157 402.439 Q187.351 398.874 183.717 398.874 M183.717 395.171 Q189.527 395.171 192.583 399.777 Q195.662 404.361 195.662 413.11 Q195.662 421.837 192.583 426.444 Q189.527 431.027 183.717 431.027 Q177.907 431.027 174.828 426.444 Q171.773 421.837 171.773 413.11 Q171.773 404.361 174.828 399.777 Q177.907 395.171 183.717 395.171 Z" fill="#000000" fill-rule="evenodd" fill-opacity="1" /><path clip-path="url(#clip790)" d="M205.366 377.367 Q202.432 377.367 200.947 380.263 Q199.48 383.141 199.48 388.934 Q199.48 394.708 200.947 397.604 Q202.432 400.482 205.366 400.482 Q208.319 400.482 209.786 397.604 Q211.272 394.708 211.272 388.934 Q211.272 383.141 209.786 380.263 Q208.319 377.367 205.366 377.367 M205.366 374.358 Q210.087 374.358 212.57 378.1 Q215.071 381.824 215.071 388.934 Q215.071 396.024 212.57 399.767 Q210.087 403.491 205.366 403.491 Q200.646 403.491 198.144 399.767 Q195.662 396.024 195.662 388.934 Q195.662 381.824 198.144 378.1 Q200.646 374.358 205.366 374.358 Z" fill="#000000" fill-rule="evenodd" fill-opacity="1" /><path clip-path="url(#clip790)" d="M44.7161 773.137 L47.5806 773.137 L47.5806 800.064 Q53.6281 799.682 56.8109 796.435 Q59.9619 793.157 59.9619 787.332 Q59.9619 783.959 59.1344 780.808 Q58.3069 777.625 56.6518 774.506 L62.1899 774.506 Q63.5267 777.657 64.227 780.967 Q64.9272 784.277 64.9272 787.683 Q64.9272 796.213 59.9619 801.21 Q54.9967 806.175 46.5303 806.175 Q37.7774 806.175 32.6531 801.464 Q27.4968 796.722 27.4968 788.701 Q27.4968 781.508 32.1438 777.338 Q36.7589 773.137 44.7161 773.137 M42.9973 778.993 Q38.1912 779.057 35.3266 781.699 Q32.4621 784.309 32.4621 788.637 Q32.4621 793.539 35.2312 796.499 Q38.0002 799.427 43.0292 799.873 L42.9973 778.993 Z" fill="#000000" fill-rule="evenodd" fill-opacity="1" /><path clip-path="url(#clip790)" d="M33.8307 742.868 Q33.2578 743.855 33.0032 745.032 Q32.7167 746.178 32.7167 747.579 Q32.7167 752.544 35.9632 755.218 Q39.1779 757.859 45.2253 757.859 L64.0042 757.859 L64.0042 763.748 L28.3562 763.748 L28.3562 757.859 L33.8944 757.859 Q30.6479 756.013 29.0883 753.053 Q27.4968 750.093 27.4968 745.86 Q27.4968 745.255 27.5923 744.523 Q27.656 743.791 27.8151 742.9 L33.8307 742.868 Z" fill="#000000" fill-rule="evenodd" fill-opacity="1" /><path clip-path="url(#clip790)" d="M33.8307 717.214 Q33.2578 718.201 33.0032 719.379 Q32.7167 720.524 32.7167 721.925 Q32.7167 726.89 35.9632 729.564 Q39.1779 732.205 45.2253 732.205 L64.0042 732.205 L64.0042 738.094 L28.3562 738.094 L28.3562 732.205 L33.8944 732.205 Q30.6479 730.359 29.0883 727.399 Q27.4968 724.439 27.4968 720.206 Q27.4968 719.601 27.5923 718.869 Q27.656 718.137 27.8151 717.246 L33.8307 717.214 Z" fill="#000000" fill-rule="evenodd" fill-opacity="1" /><path clip-path="url(#clip790)" d="M32.4621 698.69 Q32.4621 703.401 36.1542 706.138 Q39.8145 708.875 46.212 708.875 Q52.6095 708.875 56.3017 706.17 Q59.9619 703.432 59.9619 698.69 Q59.9619 694.011 56.2698 691.274 Q52.5777 688.537 46.212 688.537 Q39.8781 688.537 36.186 691.274 Q32.4621 694.011 32.4621 698.69 M27.4968 698.69 Q27.4968 691.051 32.4621 686.691 Q37.4273 682.33 46.212 682.33 Q54.9649 682.33 59.9619 686.691 Q64.9272 691.051 64.9272 698.69 Q64.9272 706.361 59.9619 710.721 Q54.9649 715.05 46.212 715.05 Q37.4273 715.05 32.4621 710.721 Q27.4968 706.361 27.4968 698.69 Z" fill="#000000" fill-rule="evenodd" fill-opacity="1" /><path clip-path="url(#clip790)" d="M33.8307 651.966 Q33.2578 652.952 33.0032 654.13 Q32.7167 655.276 32.7167 656.676 Q32.7167 661.642 35.9632 664.315 Q39.1779 666.957 45.2253 666.957 L64.0042 666.957 L64.0042 672.845 L28.3562 672.845 L28.3562 666.957 L33.8944 666.957 Q30.6479 665.111 29.0883 662.151 Q27.4968 659.191 27.4968 654.958 Q27.4968 654.353 27.5923 653.621 Q27.656 652.889 27.8151 651.998 L33.8307 651.966 Z" fill="#000000" fill-rule="evenodd" fill-opacity="1" /><polyline clip-path="url(#clip792)" style="stroke:#009af9; stroke-linecap:butt; stroke-linejoin:round; stroke-width:12; stroke-opacity:1; fill:none" points="
  310.553,85.838 428.675,85.838 546.797,85.838 664.919,85.838 783.041,85.838 901.162,85.838 1019.28,85.838 1137.41,85.838 1255.53,85.838 1373.65,85.838 
  
  "/>
<polyline clip-path="url(#clip792)" style="stroke:#e26f46; stroke-linecap:butt; stroke-linejoin:round; stroke-width:12; stroke-opacity:1; fill:none" points="
  349.927,446.707 507.423,568.675 664.919,679.921 875.811,789.538 1112.06,889.041 1348.3,985.98 1584.54,1082.59 1820.79,1179.17 2057.03,1275.74 2293.27,1372.3 
  
  "/>
<polyline clip-path="url(#clip792)" style="stroke:#3da44d; stroke-linecap:butt; stroke-linejoin:round; stroke-width:12; stroke-opacity:1; fill:none" points="
  349.927,406.628 507.423,503.196 664.919,599.763 822.415,696.331 979.91,792.898 1137.41,889.465 1294.9,986.033 1452.4,1082.6 1609.89,1179.17 1767.39,1275.74 
  
  "/>
<path clip-path="url(#clip790)" d="
M1644.97 300.059 L2282.7 300.059 L2282.7 92.6992 L1644.97 92.6992  Z
  " fill="#ffffff" fill-rule="evenodd" fill-opacity="1"/>
<polyline clip-path="url(#clip790)" style="stroke:#000000; stroke-linecap:butt; stroke-linejoin:round; stroke-width:4; stroke-opacity:1; fill:none" points="
  1644.97,300.059 2282.7,300.059 2282.7,92.6992 1644.97,92.6992 1644.97,300.059 
  "/>
<polyline clip-path="url(#clip790)" style="stroke:#009af9; stroke-linecap:butt; stroke-linejoin:round; stroke-width:4; stroke-opacity:1; fill:none" points="
  1668.32,144.539 1808.43,144.539 
  "/>
<path clip-path="url(#clip790)" d="M1855.81 147.791 L1855.81 149.875 L1836.23 149.875 Q1836.51 154.273 1838.87 156.588 Q1841.25 158.879 1845.49 158.879 Q1847.94 158.879 1850.23 158.278 Q1852.55 157.676 1854.82 156.472 L1854.82 160.5 Q1852.53 161.472 1850.12 161.981 Q1847.71 162.49 1845.23 162.49 Q1839.03 162.49 1835.4 158.879 Q1831.78 155.268 1831.78 149.111 Q1831.78 142.745 1835.21 139.018 Q1838.66 135.268 1844.49 135.268 Q1849.72 135.268 1852.76 138.648 Q1855.81 142.004 1855.81 147.791 M1851.55 146.541 Q1851.51 143.046 1849.59 140.963 Q1847.69 138.879 1844.54 138.879 Q1840.97 138.879 1838.82 140.893 Q1836.69 142.907 1836.37 146.565 L1851.55 146.541 Z" fill="#000000" fill-rule="evenodd" fill-opacity="1" /><path clip-path="url(#clip790)" d="M1883.52 135.893 L1874.15 148.509 L1884.01 161.819 L1878.98 161.819 L1871.44 151.634 L1863.89 161.819 L1858.87 161.819 L1868.94 148.254 L1859.72 135.893 L1864.75 135.893 L1871.62 145.129 L1878.5 135.893 L1883.52 135.893 Z" fill="#000000" fill-rule="evenodd" fill-opacity="1" /><path clip-path="url(#clip790)" d="M1894.15 157.93 L1894.15 171.68 L1889.86 171.68 L1889.86 135.893 L1894.15 135.893 L1894.15 139.829 Q1895.49 137.514 1897.53 136.403 Q1899.59 135.268 1902.43 135.268 Q1907.15 135.268 1910.09 139.018 Q1913.06 142.768 1913.06 148.879 Q1913.06 154.991 1910.09 158.74 Q1907.15 162.49 1902.43 162.49 Q1899.59 162.49 1897.53 161.379 Q1895.49 160.245 1894.15 157.93 M1908.64 148.879 Q1908.64 144.18 1906.69 141.518 Q1904.77 138.833 1901.39 138.833 Q1898.01 138.833 1896.07 141.518 Q1894.15 144.18 1894.15 148.879 Q1894.15 153.578 1896.07 156.264 Q1898.01 158.926 1901.39 158.926 Q1904.77 158.926 1906.69 156.264 Q1908.64 153.578 1908.64 148.879 Z" fill="#000000" fill-rule="evenodd" fill-opacity="1" /><path clip-path="url(#clip790)" d="M1920.12 125.801 L1924.38 125.801 L1924.38 161.819 L1920.12 161.819 L1920.12 125.801 Z" fill="#000000" fill-rule="evenodd" fill-opacity="1" /><path clip-path="url(#clip790)" d="M1933.29 135.893 L1937.55 135.893 L1937.55 161.819 L1933.29 161.819 L1933.29 135.893 M1933.29 125.801 L1937.55 125.801 L1937.55 131.194 L1933.29 131.194 L1933.29 125.801 Z" fill="#000000" fill-rule="evenodd" fill-opacity="1" /><path clip-path="url(#clip790)" d="M1965.12 136.889 L1965.12 140.87 Q1963.31 139.875 1961.48 139.389 Q1959.68 138.879 1957.83 138.879 Q1953.68 138.879 1951.39 141.518 Q1949.1 144.134 1949.1 148.879 Q1949.1 153.625 1951.39 156.264 Q1953.68 158.879 1957.83 158.879 Q1959.68 158.879 1961.48 158.393 Q1963.31 157.884 1965.12 156.889 L1965.12 160.824 Q1963.34 161.657 1961.41 162.074 Q1959.52 162.49 1957.36 162.49 Q1951.51 162.49 1948.06 158.81 Q1944.61 155.129 1944.61 148.879 Q1944.61 142.537 1948.08 138.903 Q1951.58 135.268 1957.64 135.268 Q1959.61 135.268 1961.48 135.685 Q1963.36 136.079 1965.12 136.889 Z" fill="#000000" fill-rule="evenodd" fill-opacity="1" /><path clip-path="url(#clip790)" d="M1972.52 135.893 L1976.78 135.893 L1976.78 161.819 L1972.52 161.819 L1972.52 135.893 M1972.52 125.801 L1976.78 125.801 L1976.78 131.194 L1972.52 131.194 L1972.52 125.801 Z" fill="#000000" fill-rule="evenodd" fill-opacity="1" /><path clip-path="url(#clip790)" d="M1989.91 128.532 L1989.91 135.893 L1998.68 135.893 L1998.68 139.204 L1989.91 139.204 L1989.91 153.278 Q1989.91 156.449 1990.77 157.352 Q1991.65 158.254 1994.31 158.254 L1998.68 158.254 L1998.68 161.819 L1994.31 161.819 Q1989.38 161.819 1987.5 159.99 Q1985.63 158.139 1985.63 153.278 L1985.63 139.204 L1982.5 139.204 L1982.5 135.893 L1985.63 135.893 L1985.63 128.532 L1989.91 128.532 Z" fill="#000000" fill-rule="evenodd" fill-opacity="1" /><path clip-path="url(#clip790)" d="M2023.98 169.69 L2023.98 173 L1999.35 173 L1999.35 169.69 L2023.98 169.69 Z" fill="#000000" fill-rule="evenodd" fill-opacity="1" /><path clip-path="url(#clip790)" d="M2039.77 148.787 Q2034.61 148.787 2032.62 149.967 Q2030.63 151.148 2030.63 153.995 Q2030.63 156.264 2032.11 157.606 Q2033.61 158.926 2036.18 158.926 Q2039.72 158.926 2041.85 156.426 Q2044.01 153.903 2044.01 149.736 L2044.01 148.787 L2039.77 148.787 M2048.27 147.028 L2048.27 161.819 L2044.01 161.819 L2044.01 157.884 Q2042.55 160.245 2040.37 161.379 Q2038.2 162.49 2035.05 162.49 Q2031.07 162.49 2028.71 160.268 Q2026.37 158.023 2026.37 154.273 Q2026.37 149.898 2029.28 147.676 Q2032.22 145.454 2038.03 145.454 L2044.01 145.454 L2044.01 145.037 Q2044.01 142.097 2042.06 140.5 Q2040.14 138.879 2036.64 138.879 Q2034.42 138.879 2032.32 139.412 Q2030.21 139.944 2028.27 141.009 L2028.27 137.074 Q2030.6 136.171 2032.8 135.731 Q2035 135.268 2037.08 135.268 Q2042.71 135.268 2045.49 138.185 Q2048.27 141.102 2048.27 147.028 Z" fill="#000000" fill-rule="evenodd" fill-opacity="1" /><path clip-path="url(#clip790)" d="M2075.7 136.889 L2075.7 140.87 Q2073.89 139.875 2072.06 139.389 Q2070.26 138.879 2068.4 138.879 Q2064.26 138.879 2061.97 141.518 Q2059.68 144.134 2059.68 148.879 Q2059.68 153.625 2061.97 156.264 Q2064.26 158.879 2068.4 158.879 Q2070.26 158.879 2072.06 158.393 Q2073.89 157.884 2075.7 156.889 L2075.7 160.824 Q2073.91 161.657 2071.99 162.074 Q2070.09 162.49 2067.94 162.49 Q2062.08 162.49 2058.64 158.81 Q2055.19 155.129 2055.19 148.879 Q2055.19 142.537 2058.66 138.903 Q2062.15 135.268 2068.22 135.268 Q2070.19 135.268 2072.06 135.685 Q2073.94 136.079 2075.7 136.889 Z" fill="#000000" fill-rule="evenodd" fill-opacity="1" /><path clip-path="url(#clip790)" d="M2101.76 136.889 L2101.76 140.87 Q2099.95 139.875 2098.13 139.389 Q2096.32 138.879 2094.47 138.879 Q2090.33 138.879 2088.03 141.518 Q2085.74 144.134 2085.74 148.879 Q2085.74 153.625 2088.03 156.264 Q2090.33 158.879 2094.47 158.879 Q2096.32 158.879 2098.13 158.393 Q2099.95 157.884 2101.76 156.889 L2101.76 160.824 Q2099.98 161.657 2098.06 162.074 Q2096.16 162.49 2094.01 162.49 Q2088.15 162.49 2084.7 158.81 Q2081.25 155.129 2081.25 148.879 Q2081.25 142.537 2084.72 138.903 Q2088.22 135.268 2094.28 135.268 Q2096.25 135.268 2098.13 135.685 Q2100 136.079 2101.76 136.889 Z" fill="#000000" fill-rule="evenodd" fill-opacity="1" /><path clip-path="url(#clip790)" d="M2108.73 151.588 L2108.73 135.893 L2112.99 135.893 L2112.99 151.426 Q2112.99 155.106 2114.42 156.958 Q2115.86 158.787 2118.73 158.787 Q2122.18 158.787 2124.17 156.588 Q2126.18 154.389 2126.18 150.592 L2126.18 135.893 L2130.44 135.893 L2130.44 161.819 L2126.18 161.819 L2126.18 157.838 Q2124.63 160.199 2122.57 161.356 Q2120.53 162.49 2117.82 162.49 Q2113.36 162.49 2111.04 159.713 Q2108.73 156.935 2108.73 151.588 M2119.45 135.268 L2119.45 135.268 Z" fill="#000000" fill-rule="evenodd" fill-opacity="1" /><path clip-path="url(#clip790)" d="M2154.24 139.875 Q2153.52 139.458 2152.66 139.273 Q2151.83 139.065 2150.81 139.065 Q2147.2 139.065 2145.26 141.426 Q2143.33 143.764 2143.33 148.162 L2143.33 161.819 L2139.05 161.819 L2139.05 135.893 L2143.33 135.893 L2143.33 139.921 Q2144.68 137.56 2146.83 136.426 Q2148.98 135.268 2152.06 135.268 Q2152.5 135.268 2153.03 135.338 Q2153.57 135.384 2154.21 135.5 L2154.24 139.875 Z" fill="#000000" fill-rule="evenodd" fill-opacity="1" /><path clip-path="url(#clip790)" d="M2170.49 148.787 Q2165.32 148.787 2163.33 149.967 Q2161.34 151.148 2161.34 153.995 Q2161.34 156.264 2162.82 157.606 Q2164.33 158.926 2166.9 158.926 Q2170.44 158.926 2172.57 156.426 Q2174.72 153.903 2174.72 149.736 L2174.72 148.787 L2170.49 148.787 M2178.98 147.028 L2178.98 161.819 L2174.72 161.819 L2174.72 157.884 Q2173.26 160.245 2171.09 161.379 Q2168.91 162.49 2165.76 162.49 Q2161.78 162.49 2159.42 160.268 Q2157.08 158.023 2157.08 154.273 Q2157.08 149.898 2160 147.676 Q2162.94 145.454 2168.75 145.454 L2174.72 145.454 L2174.72 145.037 Q2174.72 142.097 2172.78 140.5 Q2170.86 138.879 2167.36 138.879 Q2165.14 138.879 2163.03 139.412 Q2160.93 139.944 2158.98 141.009 L2158.98 137.074 Q2161.32 136.171 2163.52 135.731 Q2165.72 135.268 2167.8 135.268 Q2173.43 135.268 2176.2 138.185 Q2178.98 141.102 2178.98 147.028 Z" fill="#000000" fill-rule="evenodd" fill-opacity="1" /><path clip-path="url(#clip790)" d="M2206.41 136.889 L2206.41 140.87 Q2204.61 139.875 2202.78 139.389 Q2200.97 138.879 2199.12 138.879 Q2194.98 138.879 2192.69 141.518 Q2190.39 144.134 2190.39 148.879 Q2190.39 153.625 2192.69 156.264 Q2194.98 158.879 2199.12 158.879 Q2200.97 158.879 2202.78 158.393 Q2204.61 157.884 2206.41 156.889 L2206.41 160.824 Q2204.63 161.657 2202.71 162.074 Q2200.81 162.49 2198.66 162.49 Q2192.8 162.49 2189.35 158.81 Q2185.9 155.129 2185.9 148.879 Q2185.9 142.537 2189.38 138.903 Q2192.87 135.268 2198.94 135.268 Q2200.9 135.268 2202.78 135.685 Q2204.65 136.079 2206.41 136.889 Z" fill="#000000" fill-rule="evenodd" fill-opacity="1" /><path clip-path="url(#clip790)" d="M2224.61 164.227 Q2222.8 168.856 2221.09 170.268 Q2219.38 171.68 2216.51 171.68 L2213.1 171.68 L2213.1 168.115 L2215.6 168.115 Q2217.36 168.115 2218.33 167.282 Q2219.31 166.449 2220.49 163.347 L2221.25 161.403 L2210.76 135.893 L2215.28 135.893 L2223.38 156.171 L2231.48 135.893 L2236 135.893 L2224.61 164.227 Z" fill="#000000" fill-rule="evenodd" fill-opacity="1" /><polyline clip-path="url(#clip790)" style="stroke:#e26f46; stroke-linecap:butt; stroke-linejoin:round; stroke-width:4; stroke-opacity:1; fill:none" points="
  1668.32,196.379 1808.43,196.379 
  "/>
<path clip-path="url(#clip790)" d="M1855.81 199.631 L1855.81 201.715 L1836.23 201.715 Q1836.51 206.113 1838.87 208.428 Q1841.25 210.719 1845.49 210.719 Q1847.94 210.719 1850.23 210.118 Q1852.55 209.516 1854.82 208.312 L1854.82 212.34 Q1852.53 213.312 1850.12 213.821 Q1847.71 214.33 1845.23 214.33 Q1839.03 214.33 1835.4 210.719 Q1831.78 207.108 1831.78 200.951 Q1831.78 194.585 1835.21 190.858 Q1838.66 187.108 1844.49 187.108 Q1849.72 187.108 1852.76 190.488 Q1855.81 193.844 1855.81 199.631 M1851.55 198.381 Q1851.51 194.886 1849.59 192.803 Q1847.69 190.719 1844.54 190.719 Q1840.97 190.719 1838.82 192.733 Q1836.69 194.747 1836.37 198.405 L1851.55 198.381 Z" fill="#000000" fill-rule="evenodd" fill-opacity="1" /><path clip-path="url(#clip790)" d="M1883.52 187.733 L1874.15 200.349 L1884.01 213.659 L1878.98 213.659 L1871.44 203.474 L1863.89 213.659 L1858.87 213.659 L1868.94 200.094 L1859.72 187.733 L1864.75 187.733 L1871.62 196.969 L1878.5 187.733 L1883.52 187.733 Z" fill="#000000" fill-rule="evenodd" fill-opacity="1" /><path clip-path="url(#clip790)" d="M1894.15 209.77 L1894.15 223.52 L1889.86 223.52 L1889.86 187.733 L1894.15 187.733 L1894.15 191.669 Q1895.49 189.354 1897.53 188.243 Q1899.59 187.108 1902.43 187.108 Q1907.15 187.108 1910.09 190.858 Q1913.06 194.608 1913.06 200.719 Q1913.06 206.831 1910.09 210.58 Q1907.15 214.33 1902.43 214.33 Q1899.59 214.33 1897.53 213.219 Q1895.49 212.085 1894.15 209.77 M1908.64 200.719 Q1908.64 196.02 1906.69 193.358 Q1904.77 190.673 1901.39 190.673 Q1898.01 190.673 1896.07 193.358 Q1894.15 196.02 1894.15 200.719 Q1894.15 205.418 1896.07 208.104 Q1898.01 210.766 1901.39 210.766 Q1904.77 210.766 1906.69 208.104 Q1908.64 205.418 1908.64 200.719 Z" fill="#000000" fill-rule="evenodd" fill-opacity="1" /><path clip-path="url(#clip790)" d="M1920.12 177.641 L1924.38 177.641 L1924.38 213.659 L1920.12 213.659 L1920.12 177.641 Z" fill="#000000" fill-rule="evenodd" fill-opacity="1" /><path clip-path="url(#clip790)" d="M1933.29 187.733 L1937.55 187.733 L1937.55 213.659 L1933.29 213.659 L1933.29 187.733 M1933.29 177.641 L1937.55 177.641 L1937.55 183.034 L1933.29 183.034 L1933.29 177.641 Z" fill="#000000" fill-rule="evenodd" fill-opacity="1" /><path clip-path="url(#clip790)" d="M1965.12 188.729 L1965.12 192.71 Q1963.31 191.715 1961.48 191.229 Q1959.68 190.719 1957.83 190.719 Q1953.68 190.719 1951.39 193.358 Q1949.1 195.974 1949.1 200.719 Q1949.1 205.465 1951.39 208.104 Q1953.68 210.719 1957.83 210.719 Q1959.68 210.719 1961.48 210.233 Q1963.31 209.724 1965.12 208.729 L1965.12 212.664 Q1963.34 213.497 1961.41 213.914 Q1959.52 214.33 1957.36 214.33 Q1951.51 214.33 1948.06 210.65 Q1944.61 206.969 1944.61 200.719 Q1944.61 194.377 1948.08 190.743 Q1951.58 187.108 1957.64 187.108 Q1959.61 187.108 1961.48 187.525 Q1963.36 187.919 1965.12 188.729 Z" fill="#000000" fill-rule="evenodd" fill-opacity="1" /><path clip-path="url(#clip790)" d="M1972.52 187.733 L1976.78 187.733 L1976.78 213.659 L1972.52 213.659 L1972.52 187.733 M1972.52 177.641 L1976.78 177.641 L1976.78 183.034 L1972.52 183.034 L1972.52 177.641 Z" fill="#000000" fill-rule="evenodd" fill-opacity="1" /><path clip-path="url(#clip790)" d="M1989.91 180.372 L1989.91 187.733 L1998.68 187.733 L1998.68 191.044 L1989.91 191.044 L1989.91 205.118 Q1989.91 208.289 1990.77 209.192 Q1991.65 210.094 1994.31 210.094 L1998.68 210.094 L1998.68 213.659 L1994.31 213.659 Q1989.38 213.659 1987.5 211.83 Q1985.63 209.979 1985.63 205.118 L1985.63 191.044 L1982.5 191.044 L1982.5 187.733 L1985.63 187.733 L1985.63 180.372 L1989.91 180.372 Z" fill="#000000" fill-rule="evenodd" fill-opacity="1" /><path clip-path="url(#clip790)" d="M2023.98 221.53 L2023.98 224.84 L1999.35 224.84 L1999.35 221.53 L2023.98 221.53 Z" fill="#000000" fill-rule="evenodd" fill-opacity="1" /><path clip-path="url(#clip790)" d="M2044.52 188.497 L2044.52 192.525 Q2042.71 191.599 2040.77 191.136 Q2038.82 190.673 2036.74 190.673 Q2033.57 190.673 2031.97 191.645 Q2030.39 192.618 2030.39 194.562 Q2030.39 196.044 2031.53 196.9 Q2032.66 197.733 2036.09 198.497 L2037.55 198.821 Q2042.08 199.794 2043.98 201.576 Q2045.9 203.335 2045.9 206.506 Q2045.9 210.118 2043.03 212.224 Q2040.19 214.33 2035.19 214.33 Q2033.1 214.33 2030.83 213.914 Q2028.59 213.52 2026.09 212.71 L2026.09 208.312 Q2028.45 209.539 2030.74 210.164 Q2033.03 210.766 2035.28 210.766 Q2038.29 210.766 2039.91 209.747 Q2041.53 208.706 2041.53 206.831 Q2041.53 205.094 2040.35 204.168 Q2039.19 203.243 2035.23 202.386 L2033.75 202.039 Q2029.79 201.206 2028.03 199.493 Q2026.27 197.756 2026.27 194.747 Q2026.27 191.09 2028.87 189.099 Q2031.46 187.108 2036.23 187.108 Q2038.59 187.108 2040.67 187.456 Q2042.76 187.803 2044.52 188.497 Z" fill="#000000" fill-rule="evenodd" fill-opacity="1" /><path clip-path="url(#clip790)" d="M2056.9 180.372 L2056.9 187.733 L2065.67 187.733 L2065.67 191.044 L2056.9 191.044 L2056.9 205.118 Q2056.9 208.289 2057.76 209.192 Q2058.64 210.094 2061.3 210.094 L2065.67 210.094 L2065.67 213.659 L2061.3 213.659 Q2056.37 213.659 2054.49 211.83 Q2052.62 209.979 2052.62 205.118 L2052.62 191.044 L2049.49 191.044 L2049.49 187.733 L2052.62 187.733 L2052.62 180.372 L2056.9 180.372 Z" fill="#000000" fill-rule="evenodd" fill-opacity="1" /><path clip-path="url(#clip790)" d="M2083.06 200.627 Q2077.89 200.627 2075.9 201.807 Q2073.91 202.988 2073.91 205.835 Q2073.91 208.104 2075.39 209.446 Q2076.9 210.766 2079.47 210.766 Q2083.01 210.766 2085.14 208.266 Q2087.29 205.743 2087.29 201.576 L2087.29 200.627 L2083.06 200.627 M2091.55 198.868 L2091.55 213.659 L2087.29 213.659 L2087.29 209.724 Q2085.83 212.085 2083.66 213.219 Q2081.48 214.33 2078.33 214.33 Q2074.35 214.33 2071.99 212.108 Q2069.65 209.863 2069.65 206.113 Q2069.65 201.738 2072.57 199.516 Q2075.51 197.294 2081.32 197.294 L2087.29 197.294 L2087.29 196.877 Q2087.29 193.937 2085.35 192.34 Q2083.43 190.719 2079.93 190.719 Q2077.71 190.719 2075.6 191.252 Q2073.5 191.784 2071.55 192.849 L2071.55 188.914 Q2073.89 188.011 2076.09 187.571 Q2078.29 187.108 2080.37 187.108 Q2086 187.108 2088.77 190.025 Q2091.55 192.942 2091.55 198.868 Z" fill="#000000" fill-rule="evenodd" fill-opacity="1" /><path clip-path="url(#clip790)" d="M2118.94 200.719 Q2118.94 196.02 2116.99 193.358 Q2115.07 190.673 2111.69 190.673 Q2108.31 190.673 2106.37 193.358 Q2104.45 196.02 2104.45 200.719 Q2104.45 205.418 2106.37 208.104 Q2108.31 210.766 2111.69 210.766 Q2115.07 210.766 2116.99 208.104 Q2118.94 205.418 2118.94 200.719 M2104.45 191.669 Q2105.79 189.354 2107.83 188.243 Q2109.89 187.108 2112.73 187.108 Q2117.45 187.108 2120.39 190.858 Q2123.36 194.608 2123.36 200.719 Q2123.36 206.831 2120.39 210.58 Q2117.45 214.33 2112.73 214.33 Q2109.89 214.33 2107.83 213.219 Q2105.79 212.085 2104.45 209.77 L2104.45 213.659 L2100.16 213.659 L2100.16 177.641 L2104.45 177.641 L2104.45 191.669 Z" fill="#000000" fill-rule="evenodd" fill-opacity="1" /><path clip-path="url(#clip790)" d="M2130.42 177.641 L2134.68 177.641 L2134.68 213.659 L2130.42 213.659 L2130.42 177.641 Z" fill="#000000" fill-rule="evenodd" fill-opacity="1" /><path clip-path="url(#clip790)" d="M2165.76 199.631 L2165.76 201.715 L2146.18 201.715 Q2146.46 206.113 2148.82 208.428 Q2151.2 210.719 2155.44 210.719 Q2157.89 210.719 2160.19 210.118 Q2162.5 209.516 2164.77 208.312 L2164.77 212.34 Q2162.48 213.312 2160.07 213.821 Q2157.66 214.33 2155.19 214.33 Q2148.98 214.33 2145.35 210.719 Q2141.74 207.108 2141.74 200.951 Q2141.74 194.585 2145.16 190.858 Q2148.61 187.108 2154.45 187.108 Q2159.68 187.108 2162.71 190.488 Q2165.76 193.844 2165.76 199.631 M2161.51 198.381 Q2161.46 194.886 2159.54 192.803 Q2157.64 190.719 2154.49 190.719 Q2150.93 190.719 2148.77 192.733 Q2146.64 194.747 2146.32 198.405 L2161.51 198.381 Z" fill="#000000" fill-rule="evenodd" fill-opacity="1" /><polyline clip-path="url(#clip790)" style="stroke:#3da44d; stroke-linecap:butt; stroke-linejoin:round; stroke-width:4; stroke-opacity:1; fill:none" points="
  1668.32,248.219 1808.43,248.219 
  "/>
<path clip-path="url(#clip790)" d="M1831.78 239.573 L1836.04 239.573 L1836.04 265.499 L1831.78 265.499 L1831.78 239.573 M1831.78 229.481 L1836.04 229.481 L1836.04 234.874 L1831.78 234.874 L1831.78 229.481 Z" fill="#000000" fill-rule="evenodd" fill-opacity="1" /><path clip-path="url(#clip790)" d="M1865.14 244.55 Q1866.74 241.68 1868.96 240.314 Q1871.18 238.948 1874.19 238.948 Q1878.24 238.948 1880.44 241.796 Q1882.64 244.62 1882.64 249.851 L1882.64 265.499 L1878.36 265.499 L1878.36 249.99 Q1878.36 246.263 1877.04 244.458 Q1875.72 242.652 1873.01 242.652 Q1869.7 242.652 1867.78 244.851 Q1865.86 247.05 1865.86 250.846 L1865.86 265.499 L1861.58 265.499 L1861.58 249.99 Q1861.58 246.24 1860.26 244.458 Q1858.94 242.652 1856.18 242.652 Q1852.92 242.652 1851 244.874 Q1849.08 247.073 1849.08 250.846 L1849.08 265.499 L1844.79 265.499 L1844.79 239.573 L1849.08 239.573 L1849.08 243.601 Q1850.53 241.217 1852.57 240.083 Q1854.61 238.948 1857.41 238.948 Q1860.23 238.948 1862.2 240.384 Q1864.19 241.819 1865.14 244.55 Z" fill="#000000" fill-rule="evenodd" fill-opacity="1" /><path clip-path="url(#clip790)" d="M1895.26 261.61 L1895.26 275.36 L1890.97 275.36 L1890.97 239.573 L1895.26 239.573 L1895.26 243.509 Q1896.6 241.194 1898.64 240.083 Q1900.7 238.948 1903.54 238.948 Q1908.27 238.948 1911.21 242.698 Q1914.17 246.448 1914.17 252.559 Q1914.17 258.671 1911.21 262.42 Q1908.27 266.17 1903.54 266.17 Q1900.7 266.17 1898.64 265.059 Q1896.6 263.925 1895.26 261.61 M1909.75 252.559 Q1909.75 247.86 1907.8 245.198 Q1905.88 242.513 1902.5 242.513 Q1899.12 242.513 1897.18 245.198 Q1895.26 247.86 1895.26 252.559 Q1895.26 257.258 1897.18 259.944 Q1899.12 262.606 1902.5 262.606 Q1905.88 262.606 1907.8 259.944 Q1909.75 257.258 1909.75 252.559 Z" fill="#000000" fill-rule="evenodd" fill-opacity="1" /><path clip-path="url(#clip790)" d="M1921.23 229.481 L1925.49 229.481 L1925.49 265.499 L1921.23 265.499 L1921.23 229.481 Z" fill="#000000" fill-rule="evenodd" fill-opacity="1" /><path clip-path="url(#clip790)" d="M1934.4 239.573 L1938.66 239.573 L1938.66 265.499 L1934.4 265.499 L1934.4 239.573 M1934.4 229.481 L1938.66 229.481 L1938.66 234.874 L1934.4 234.874 L1934.4 229.481 Z" fill="#000000" fill-rule="evenodd" fill-opacity="1" /><path clip-path="url(#clip790)" d="M1966.23 240.569 L1966.23 244.55 Q1964.42 243.555 1962.59 243.069 Q1960.79 242.559 1958.94 242.559 Q1954.79 242.559 1952.5 245.198 Q1950.21 247.814 1950.21 252.559 Q1950.21 257.305 1952.5 259.944 Q1954.79 262.559 1958.94 262.559 Q1960.79 262.559 1962.59 262.073 Q1964.42 261.564 1966.23 260.569 L1966.23 264.504 Q1964.45 265.337 1962.52 265.754 Q1960.63 266.17 1958.47 266.17 Q1952.62 266.17 1949.17 262.49 Q1945.72 258.809 1945.72 252.559 Q1945.72 246.217 1949.19 242.583 Q1952.69 238.948 1958.75 238.948 Q1960.72 238.948 1962.59 239.365 Q1964.47 239.759 1966.23 240.569 Z" fill="#000000" fill-rule="evenodd" fill-opacity="1" /><path clip-path="url(#clip790)" d="M1973.64 239.573 L1977.9 239.573 L1977.9 265.499 L1973.64 265.499 L1973.64 239.573 M1973.64 229.481 L1977.9 229.481 L1977.9 234.874 L1973.64 234.874 L1973.64 229.481 Z" fill="#000000" fill-rule="evenodd" fill-opacity="1" /><path clip-path="url(#clip790)" d="M1991.02 232.212 L1991.02 239.573 L1999.79 239.573 L1999.79 242.884 L1991.02 242.884 L1991.02 256.958 Q1991.02 260.129 1991.88 261.032 Q1992.76 261.934 1995.42 261.934 L1999.79 261.934 L1999.79 265.499 L1995.42 265.499 Q1990.49 265.499 1988.61 263.67 Q1986.74 261.819 1986.74 256.958 L1986.74 242.884 L1983.61 242.884 L1983.61 239.573 L1986.74 239.573 L1986.74 232.212 L1991.02 232.212 Z" fill="#000000" fill-rule="evenodd" fill-opacity="1" /></svg>
