<?xml version="1.0" encoding="utf-8"?>
<svg xmlns="http://www.w3.org/2000/svg" xmlns:xlink="http://www.w3.org/1999/xlink" width="600" height="400" viewBox="0 0 2400 1600">
<defs>
  <clipPath id="clip660">
    <rect x="0" y="0" width="2400" height="1600"/>
  </clipPath>
</defs>
<path clip-path="url(#clip660)" d="
M0 1600 L2400 1600 L2400 0 L0 0  Z
  " fill="#ffffff" fill-rule="evenodd" fill-opacity="1"/>
<defs>
  <clipPath id="clip661">
    <rect x="480" y="0" width="1681" height="1600"/>
  </clipPath>
</defs>
<path clip-path="url(#clip660)" d="
M186.274 1486.45 L2352.76 1486.45 L2352.76 47.2441 L186.274 47.2441  Z
  " fill="#ffffff" fill-rule="evenodd" fill-opacity="1"/>
<defs>
  <clipPath id="clip662">
    <rect x="186" y="47" width="2167" height="1440"/>
  </clipPath>
</defs>
<polyline clip-path="url(#clip662)" style="stroke:#000000; stroke-linecap:butt; stroke-linejoin:round; stroke-width:2; stroke-opacity:0.1; fill:none" points="
  247.59,1486.45 247.59,47.2441 
  "/>
<polyline clip-path="url(#clip662)" style="stroke:#000000; stroke-linecap:butt; stroke-linejoin:round; stroke-width:2; stroke-opacity:0.1; fill:none" points="
  758.552,1486.45 758.552,47.2441 
  "/>
<polyline clip-path="url(#clip662)" style="stroke:#000000; stroke-linecap:butt; stroke-linejoin:round; stroke-width:2; stroke-opacity:0.1; fill:none" points="
  1269.51,1486.45 1269.51,47.2441 
  "/>
<polyline clip-path="url(#clip662)" style="stroke:#000000; stroke-linecap:butt; stroke-linejoin:round; stroke-width:2; stroke-opacity:0.1; fill:none" points="
  1780.48,1486.45 1780.48,47.2441 
  "/>
<polyline clip-path="url(#clip662)" style="stroke:#000000; stroke-linecap:butt; stroke-linejoin:round; stroke-width:2; stroke-opacity:0.1; fill:none" points="
  2291.44,1486.45 2291.44,47.2441 
  "/>
<polyline clip-path="url(#clip660)" style="stroke:#000000; stroke-linecap:butt; stroke-linejoin:round; stroke-width:4; stroke-opacity:1; fill:none" points="
  186.274,1486.45 2352.76,1486.45 
  "/>
<polyline clip-path="url(#clip660)" style="stroke:#000000; stroke-linecap:butt; stroke-linejoin:round; stroke-width:4; stroke-opacity:1; fill:none" points="
  247.59,1486.45 247.59,1467.55 
  "/>
<polyline clip-path="url(#clip660)" style="stroke:#000000; stroke-linecap:butt; stroke-linejoin:round; stroke-width:4; stroke-opacity:1; fill:none" points="
  758.552,1486.45 758.552,1467.55 
  "/>
<polyline clip-path="url(#clip660)" style="stroke:#000000; stroke-linecap:butt; stroke-linejoin:round; stroke-width:4; stroke-opacity:1; fill:none" points="
  1269.51,1486.45 1269.51,1467.55 
  "/>
<polyline clip-path="url(#clip660)" style="stroke:#000000; stroke-linecap:butt; stroke-linejoin:round; stroke-width:4; stroke-opacity:1; fill:none" points="
  1780.48,1486.45 1780.48,1467.55 
  "/>
<polyline clip-path="url(#clip660)" style="stroke:#000000; stroke-linecap:butt; stroke-linejoin:round; stroke-width:4; stroke-opacity:1; fill:none" points="
  2291.44,1486.45 2291.44,1467.55 
  "/>
<path clip-path="url(#clip660)" d="M194.118 1532.02 L223.793 1532.02 L223.793 1535.95 L194.118 1535.95 L194.118 1532.02 Z" fill="#000000" fill-rule="evenodd" fill-opacity="1" /><path clip-path="url(#clip660)" d="M234.696 1544.91 L242.335 1544.91 L242.335 1518.55 L234.025 1520.21 L234.025 1515.95 L242.289 1514.29 L246.965 1514.29 L246.965 1544.91 L254.603 1544.91 L254.603 1548.85 L234.696 1548.85 L234.696 1544.91 Z" fill="#000000" fill-rule="evenodd" fill-opacity="1" /><path clip-path="url(#clip660)" d="M264.048 1542.97 L268.932 1542.97 L268.932 1548.85 L264.048 1548.85 L264.048 1542.97 Z" fill="#000000" fill-rule="evenodd" fill-opacity="1" /><path clip-path="url(#clip660)" d="M289.117 1517.37 Q285.506 1517.37 283.677 1520.93 Q281.872 1524.47 281.872 1531.6 Q281.872 1538.71 283.677 1542.27 Q285.506 1545.82 289.117 1545.82 Q292.751 1545.82 294.557 1542.27 Q296.386 1538.71 296.386 1531.6 Q296.386 1524.47 294.557 1520.93 Q292.751 1517.37 289.117 1517.37 M289.117 1513.66 Q294.927 1513.66 297.983 1518.27 Q301.061 1522.85 301.061 1531.6 Q301.061 1540.33 297.983 1544.94 Q294.927 1549.52 289.117 1549.52 Q283.307 1549.52 280.228 1544.94 Q277.173 1540.33 277.173 1531.6 Q277.173 1522.85 280.228 1518.27 Q283.307 1513.66 289.117 1513.66 Z" fill="#000000" fill-rule="evenodd" fill-opacity="1" /><path clip-path="url(#clip660)" d="M705.578 1532.02 L735.254 1532.02 L735.254 1535.95 L705.578 1535.95 L705.578 1532.02 Z" fill="#000000" fill-rule="evenodd" fill-opacity="1" /><path clip-path="url(#clip660)" d="M755.346 1517.37 Q751.735 1517.37 749.906 1520.93 Q748.101 1524.47 748.101 1531.6 Q748.101 1538.71 749.906 1542.27 Q751.735 1545.82 755.346 1545.82 Q758.98 1545.82 760.786 1542.27 Q762.615 1538.71 762.615 1531.6 Q762.615 1524.47 760.786 1520.93 Q758.98 1517.37 755.346 1517.37 M755.346 1513.66 Q761.156 1513.66 764.212 1518.27 Q767.291 1522.85 767.291 1531.6 Q767.291 1540.33 764.212 1544.94 Q761.156 1549.52 755.346 1549.52 Q749.536 1549.52 746.457 1544.94 Q743.402 1540.33 743.402 1531.6 Q743.402 1522.85 746.457 1518.27 Q749.536 1513.66 755.346 1513.66 Z" fill="#000000" fill-rule="evenodd" fill-opacity="1" /><path clip-path="url(#clip660)" d="M775.508 1542.97 L780.392 1542.97 L780.392 1548.85 L775.508 1548.85 L775.508 1542.97 Z" fill="#000000" fill-rule="evenodd" fill-opacity="1" /><path clip-path="url(#clip660)" d="M790.624 1514.29 L808.98 1514.29 L808.98 1518.22 L794.906 1518.22 L794.906 1526.7 Q795.925 1526.35 796.943 1526.19 Q797.962 1526 798.98 1526 Q804.767 1526 808.147 1529.17 Q811.526 1532.34 811.526 1537.76 Q811.526 1543.34 808.054 1546.44 Q804.582 1549.52 798.263 1549.52 Q796.087 1549.52 793.818 1549.15 Q791.573 1548.78 789.166 1548.04 L789.166 1543.34 Q791.249 1544.47 793.471 1545.03 Q795.693 1545.58 798.17 1545.58 Q802.175 1545.58 804.513 1543.48 Q806.851 1541.37 806.851 1537.76 Q806.851 1534.15 804.513 1532.04 Q802.175 1529.94 798.17 1529.94 Q796.295 1529.94 794.42 1530.35 Q792.568 1530.77 790.624 1531.65 L790.624 1514.29 Z" fill="#000000" fill-rule="evenodd" fill-opacity="1" /><path clip-path="url(#clip660)" d="M1246.9 1517.37 Q1243.29 1517.37 1241.46 1520.93 Q1239.65 1524.47 1239.65 1531.6 Q1239.65 1538.71 1241.46 1542.27 Q1243.29 1545.82 1246.9 1545.82 Q1250.53 1545.82 1252.34 1542.27 Q1254.17 1538.71 1254.17 1531.6 Q1254.17 1524.47 1252.34 1520.93 Q1250.53 1517.37 1246.9 1517.37 M1246.9 1513.66 Q1252.71 1513.66 1255.77 1518.27 Q1258.84 1522.85 1258.84 1531.6 Q1258.84 1540.33 1255.77 1544.94 Q1252.71 1549.52 1246.9 1549.52 Q1241.09 1549.52 1238.01 1544.94 Q1234.95 1540.33 1234.95 1531.6 Q1234.95 1522.85 1238.01 1518.27 Q1241.09 1513.66 1246.9 1513.66 Z" fill="#000000" fill-rule="evenodd" fill-opacity="1" /><path clip-path="url(#clip660)" d="M1267.06 1542.97 L1271.95 1542.97 L1271.95 1548.85 L1267.06 1548.85 L1267.06 1542.97 Z" fill="#000000" fill-rule="evenodd" fill-opacity="1" /><path clip-path="url(#clip660)" d="M1292.13 1517.37 Q1288.52 1517.37 1286.69 1520.93 Q1284.89 1524.47 1284.89 1531.6 Q1284.89 1538.71 1286.69 1542.27 Q1288.52 1545.82 1292.13 1545.82 Q1295.76 1545.82 1297.57 1542.27 Q1299.4 1538.71 1299.4 1531.6 Q1299.4 1524.47 1297.57 1520.93 Q1295.76 1517.37 1292.13 1517.37 M1292.13 1513.66 Q1297.94 1513.66 1301 1518.27 Q1304.07 1522.85 1304.07 1531.6 Q1304.07 1540.33 1301 1544.94 Q1297.94 1549.52 1292.13 1549.52 Q1286.32 1549.52 1283.24 1544.94 Q1280.19 1540.33 1280.19 1531.6 Q1280.19 1522.85 1283.24 1518.27 Q1286.32 1513.66 1292.13 1513.66 Z" fill="#000000" fill-rule="evenodd" fill-opacity="1" /><path clip-path="url(#clip660)" d="M1758.36 1517.37 Q1754.75 1517.37 1752.92 1520.93 Q1751.11 1524.47 1751.11 1531.6 Q1751.11 1538.71 1752.92 1542.27 Q1754.75 1545.82 1758.36 1545.82 Q1761.99 1545.82 1763.8 1542.27 Q1765.63 1538.71 1765.63 1531.6 Q1765.63 1524.47 1763.8 1520.93 Q1761.99 1517.37 1758.36 1517.37 M1758.36 1513.66 Q1764.17 1513.66 1767.23 1518.27 Q1770.3 1522.85 1770.3 1531.6 Q1770.3 1540.33 1767.23 1544.94 Q1764.17 1549.52 1758.36 1549.52 Q1752.55 1549.52 1749.47 1544.94 Q1746.42 1540.33 1746.42 1531.6 Q1746.42 1522.85 1749.47 1518.27 Q1752.55 1513.66 1758.36 1513.66 Z" fill="#000000" fill-rule="evenodd" fill-opacity="1" /><path clip-path="url(#clip660)" d="M1778.52 1542.97 L1783.41 1542.97 L1783.41 1548.85 L1778.52 1548.85 L1778.52 1542.97 Z" fill="#000000" fill-rule="evenodd" fill-opacity="1" /><path clip-path="url(#clip660)" d="M1793.64 1514.29 L1811.99 1514.29 L1811.99 1518.22 L1797.92 1518.22 L1797.92 1526.7 Q1798.94 1526.35 1799.96 1526.19 Q1800.98 1526 1801.99 1526 Q1807.78 1526 1811.16 1529.17 Q1814.54 1532.34 1814.54 1537.76 Q1814.54 1543.34 1811.07 1546.44 Q1807.6 1549.52 1801.28 1549.52 Q1799.1 1549.52 1796.83 1549.15 Q1794.59 1548.78 1792.18 1548.04 L1792.18 1543.34 Q1794.26 1544.47 1796.48 1545.03 Q1798.71 1545.58 1801.18 1545.58 Q1805.19 1545.58 1807.53 1543.48 Q1809.86 1541.37 1809.86 1537.76 Q1809.86 1534.15 1807.53 1532.04 Q1805.19 1529.94 1801.18 1529.94 Q1799.31 1529.94 1797.43 1530.35 Q1795.58 1530.77 1793.64 1531.65 L1793.64 1514.29 Z" fill="#000000" fill-rule="evenodd" fill-opacity="1" /><path clip-path="url(#clip660)" d="M2258.59 1544.91 L2266.23 1544.91 L2266.23 1518.55 L2257.92 1520.21 L2257.92 1515.95 L2266.19 1514.29 L2270.86 1514.29 L2270.86 1544.91 L2278.5 1544.91 L2278.5 1548.85 L2258.59 1548.85 L2258.59 1544.91 Z" fill="#000000" fill-rule="evenodd" fill-opacity="1" /><path clip-path="url(#clip660)" d="M2287.95 1542.97 L2292.83 1542.97 L2292.83 1548.85 L2287.95 1548.85 L2287.95 1542.97 Z" fill="#000000" fill-rule="evenodd" fill-opacity="1" /><path clip-path="url(#clip660)" d="M2313.01 1517.37 Q2309.4 1517.37 2307.57 1520.93 Q2305.77 1524.47 2305.77 1531.6 Q2305.77 1538.71 2307.57 1542.27 Q2309.4 1545.82 2313.01 1545.82 Q2316.65 1545.82 2318.45 1542.27 Q2320.28 1538.71 2320.28 1531.6 Q2320.28 1524.47 2318.45 1520.93 Q2316.65 1517.37 2313.01 1517.37 M2313.01 1513.66 Q2318.82 1513.66 2321.88 1518.27 Q2324.96 1522.85 2324.96 1531.6 Q2324.96 1540.33 2321.88 1544.94 Q2318.82 1549.52 2313.01 1549.52 Q2307.2 1549.52 2304.13 1544.94 Q2301.07 1540.33 2301.07 1531.6 Q2301.07 1522.85 2304.13 1518.27 Q2307.2 1513.66 2313.01 1513.66 Z" fill="#000000" fill-rule="evenodd" fill-opacity="1" /><polyline clip-path="url(#clip662)" style="stroke:#000000; stroke-linecap:butt; stroke-linejoin:round; stroke-width:2; stroke-opacity:0.1; fill:none" points="
  186.274,1207.25 2352.76,1207.25 
  "/>
<polyline clip-path="url(#clip662)" style="stroke:#000000; stroke-linecap:butt; stroke-linejoin:round; stroke-width:2; stroke-opacity:0.1; fill:none" points="
  186.274,927.431 2352.76,927.431 
  "/>
<polyline clip-path="url(#clip662)" style="stroke:#000000; stroke-linecap:butt; stroke-linejoin:round; stroke-width:2; stroke-opacity:0.1; fill:none" points="
  186.274,647.613 2352.76,647.613 
  "/>
<polyline clip-path="url(#clip662)" style="stroke:#000000; stroke-linecap:butt; stroke-linejoin:round; stroke-width:2; stroke-opacity:0.1; fill:none" points="
  186.274,367.795 2352.76,367.795 
  "/>
<polyline clip-path="url(#clip662)" style="stroke:#000000; stroke-linecap:butt; stroke-linejoin:round; stroke-width:2; stroke-opacity:0.1; fill:none" points="
  186.274,87.9763 2352.76,87.9763 
  "/>
<polyline clip-path="url(#clip660)" style="stroke:#000000; stroke-linecap:butt; stroke-linejoin:round; stroke-width:4; stroke-opacity:1; fill:none" points="
  186.274,1486.45 186.274,47.2441 
  "/>
<polyline clip-path="url(#clip660)" style="stroke:#000000; stroke-linecap:butt; stroke-linejoin:round; stroke-width:4; stroke-opacity:1; fill:none" points="
  186.274,1207.25 205.172,1207.25 
  "/>
<polyline clip-path="url(#clip660)" style="stroke:#000000; stroke-linecap:butt; stroke-linejoin:round; stroke-width:4; stroke-opacity:1; fill:none" points="
  186.274,927.431 205.172,927.431 
  "/>
<polyline clip-path="url(#clip660)" style="stroke:#000000; stroke-linecap:butt; stroke-linejoin:round; stroke-width:4; stroke-opacity:1; fill:none" points="
  186.274,647.613 205.172,647.613 
  "/>
<polyline clip-path="url(#clip660)" style="stroke:#000000; stroke-linecap:butt; stroke-linejoin:round; stroke-width:4; stroke-opacity:1; fill:none" points="
  186.274,367.795 205.172,367.795 
  "/>
<polyline clip-path="url(#clip660)" style="stroke:#000000; stroke-linecap:butt; stroke-linejoin:round; stroke-width:4; stroke-opacity:1; fill:none" points="
  186.274,87.9763 205.172,87.9763 
  "/>
<path clip-path="url(#clip660)" d="M62.9365 1193.05 Q59.3254 1193.05 57.4967 1196.61 Q55.6912 1200.15 55.6912 1207.28 Q55.6912 1214.39 57.4967 1217.96 Q59.3254 1221.5 62.9365 1221.5 Q66.5707 1221.5 68.3763 1217.96 Q70.205 1214.39 70.205 1207.28 Q70.205 1200.15 68.3763 1196.61 Q66.5707 1193.05 62.9365 1193.05 M62.9365 1189.34 Q68.7467 1189.34 71.8022 1193.95 Q74.8809 1198.53 74.8809 1207.28 Q74.8809 1216.01 71.8022 1220.62 Q68.7467 1225.2 62.9365 1225.2 Q57.1264 1225.2 54.0477 1220.62 Q50.9921 1216.01 50.9921 1207.28 Q50.9921 1198.53 54.0477 1193.95 Q57.1264 1189.34 62.9365 1189.34 Z" fill="#000000" fill-rule="evenodd" fill-opacity="1" /><path clip-path="url(#clip660)" d="M83.0984 1218.65 L87.9827 1218.65 L87.9827 1224.53 L83.0984 1224.53 L83.0984 1218.65 Z" fill="#000000" fill-rule="evenodd" fill-opacity="1" /><path clip-path="url(#clip660)" d="M108.168 1193.05 Q104.557 1193.05 102.728 1196.61 Q100.922 1200.15 100.922 1207.28 Q100.922 1214.39 102.728 1217.96 Q104.557 1221.5 108.168 1221.5 Q111.802 1221.5 113.608 1217.96 Q115.436 1214.39 115.436 1207.28 Q115.436 1200.15 113.608 1196.61 Q111.802 1193.05 108.168 1193.05 M108.168 1189.34 Q113.978 1189.34 117.033 1193.95 Q120.112 1198.53 120.112 1207.28 Q120.112 1216.01 117.033 1220.62 Q113.978 1225.2 108.168 1225.2 Q102.358 1225.2 99.2789 1220.62 Q96.2234 1216.01 96.2234 1207.28 Q96.2234 1198.53 99.2789 1193.95 Q102.358 1189.34 108.168 1189.34 Z" fill="#000000" fill-rule="evenodd" fill-opacity="1" /><path clip-path="url(#clip660)" d="M138.33 1193.05 Q134.719 1193.05 132.89 1196.61 Q131.084 1200.15 131.084 1207.28 Q131.084 1214.39 132.89 1217.96 Q134.719 1221.5 138.33 1221.5 Q141.964 1221.5 143.769 1217.96 Q145.598 1214.39 145.598 1207.28 Q145.598 1200.15 143.769 1196.61 Q141.964 1193.05 138.33 1193.05 M138.33 1189.34 Q144.14 1189.34 147.195 1193.95 Q150.274 1198.53 150.274 1207.28 Q150.274 1216.01 147.195 1220.62 Q144.14 1225.2 138.33 1225.2 Q132.519 1225.2 129.441 1220.62 Q126.385 1216.01 126.385 1207.28 Q126.385 1198.53 129.441 1193.95 Q132.519 1189.34 138.33 1189.34 Z" fill="#000000" fill-rule="evenodd" fill-opacity="1" /><path clip-path="url(#clip660)" d="M63.9319 913.23 Q60.3208 913.23 58.4921 916.795 Q56.6865 920.336 56.6865 927.466 Q56.6865 934.572 58.4921 938.137 Q60.3208 941.679 63.9319 941.679 Q67.5661 941.679 69.3717 938.137 Q71.2004 934.572 71.2004 927.466 Q71.2004 920.336 69.3717 916.795 Q67.5661 913.23 63.9319 913.23 M63.9319 909.526 Q69.742 909.526 72.7976 914.133 Q75.8763 918.716 75.8763 927.466 Q75.8763 936.193 72.7976 940.799 Q69.742 945.383 63.9319 945.383 Q58.1217 945.383 55.043 940.799 Q51.9875 936.193 51.9875 927.466 Q51.9875 918.716 55.043 914.133 Q58.1217 909.526 63.9319 909.526 Z" fill="#000000" fill-rule="evenodd" fill-opacity="1" /><path clip-path="url(#clip660)" d="M84.0938 938.832 L88.978 938.832 L88.978 944.711 L84.0938 944.711 L84.0938 938.832 Z" fill="#000000" fill-rule="evenodd" fill-opacity="1" /><path clip-path="url(#clip660)" d="M103.191 940.776 L119.51 940.776 L119.51 944.711 L97.566 944.711 L97.566 940.776 Q100.228 938.021 104.811 933.392 Q109.418 928.739 110.598 927.397 Q112.844 924.873 113.723 923.137 Q114.626 921.378 114.626 919.688 Q114.626 916.934 112.682 915.198 Q110.76 913.461 107.658 913.461 Q105.459 913.461 103.006 914.225 Q100.575 914.989 97.7974 916.54 L97.7974 911.818 Q100.621 910.684 103.075 910.105 Q105.529 909.526 107.566 909.526 Q112.936 909.526 116.131 912.211 Q119.325 914.897 119.325 919.387 Q119.325 921.517 118.515 923.438 Q117.728 925.336 115.621 927.929 Q115.043 928.6 111.941 931.818 Q108.839 935.012 103.191 940.776 Z" fill="#000000" fill-rule="evenodd" fill-opacity="1" /><path clip-path="url(#clip660)" d="M129.371 910.151 L147.728 910.151 L147.728 914.086 L133.654 914.086 L133.654 922.559 Q134.672 922.211 135.691 922.049 Q136.709 921.864 137.728 921.864 Q143.515 921.864 146.894 925.035 Q150.274 928.207 150.274 933.623 Q150.274 939.202 146.802 942.304 Q143.33 945.383 137.01 945.383 Q134.834 945.383 132.566 945.012 Q130.32 944.642 127.913 943.901 L127.913 939.202 Q129.996 940.336 132.219 940.892 Q134.441 941.447 136.918 941.447 Q140.922 941.447 143.26 939.341 Q145.598 937.234 145.598 933.623 Q145.598 930.012 143.26 927.906 Q140.922 925.799 136.918 925.799 Q135.043 925.799 133.168 926.216 Q131.316 926.633 129.371 927.512 L129.371 910.151 Z" fill="#000000" fill-rule="evenodd" fill-opacity="1" /><path clip-path="url(#clip660)" d="M62.9365 633.412 Q59.3254 633.412 57.4967 636.976 Q55.6912 640.518 55.6912 647.648 Q55.6912 654.754 57.4967 658.319 Q59.3254 661.861 62.9365 661.861 Q66.5707 661.861 68.3763 658.319 Q70.205 654.754 70.205 647.648 Q70.205 640.518 68.3763 636.976 Q66.5707 633.412 62.9365 633.412 M62.9365 629.708 Q68.7467 629.708 71.8022 634.314 Q74.8809 638.898 74.8809 647.648 Q74.8809 656.374 71.8022 660.981 Q68.7467 665.564 62.9365 665.564 Q57.1264 665.564 54.0477 660.981 Q50.9921 656.374 50.9921 647.648 Q50.9921 638.898 54.0477 634.314 Q57.1264 629.708 62.9365 629.708 Z" fill="#000000" fill-rule="evenodd" fill-opacity="1" /><path clip-path="url(#clip660)" d="M83.0984 659.013 L87.9827 659.013 L87.9827 664.893 L83.0984 664.893 L83.0984 659.013 Z" fill="#000000" fill-rule="evenodd" fill-opacity="1" /><path clip-path="url(#clip660)" d="M98.2141 630.333 L116.57 630.333 L116.57 634.268 L102.496 634.268 L102.496 642.74 Q103.515 642.393 104.534 642.231 Q105.552 642.046 106.571 642.046 Q112.358 642.046 115.737 645.217 Q119.117 648.388 119.117 653.805 Q119.117 659.384 115.645 662.486 Q112.172 665.564 105.853 665.564 Q103.677 665.564 101.409 665.194 Q99.1632 664.823 96.7558 664.083 L96.7558 659.384 Q98.8391 660.518 101.061 661.074 Q103.284 661.629 105.76 661.629 Q109.765 661.629 112.103 659.523 Q114.441 657.416 114.441 653.805 Q114.441 650.194 112.103 648.087 Q109.765 645.981 105.76 645.981 Q103.885 645.981 102.01 646.398 Q100.159 646.814 98.2141 647.694 L98.2141 630.333 Z" fill="#000000" fill-rule="evenodd" fill-opacity="1" /><path clip-path="url(#clip660)" d="M138.33 633.412 Q134.719 633.412 132.89 636.976 Q131.084 640.518 131.084 647.648 Q131.084 654.754 132.89 658.319 Q134.719 661.861 138.33 661.861 Q141.964 661.861 143.769 658.319 Q145.598 654.754 145.598 647.648 Q145.598 640.518 143.769 636.976 Q141.964 633.412 138.33 633.412 M138.33 629.708 Q144.14 629.708 147.195 634.314 Q150.274 638.898 150.274 647.648 Q150.274 656.374 147.195 660.981 Q144.14 665.564 138.33 665.564 Q132.519 665.564 129.441 660.981 Q126.385 656.374 126.385 647.648 Q126.385 638.898 129.441 634.314 Q132.519 629.708 138.33 629.708 Z" fill="#000000" fill-rule="evenodd" fill-opacity="1" /><path clip-path="url(#clip660)" d="M63.9319 353.593 Q60.3208 353.593 58.4921 357.158 Q56.6865 360.7 56.6865 367.829 Q56.6865 374.936 58.4921 378.501 Q60.3208 382.042 63.9319 382.042 Q67.5661 382.042 69.3717 378.501 Q71.2004 374.936 71.2004 367.829 Q71.2004 360.7 69.3717 357.158 Q67.5661 353.593 63.9319 353.593 M63.9319 349.89 Q69.742 349.89 72.7976 354.496 Q75.8763 359.079 75.8763 367.829 Q75.8763 376.556 72.7976 381.163 Q69.742 385.746 63.9319 385.746 Q58.1217 385.746 55.043 381.163 Q51.9875 376.556 51.9875 367.829 Q51.9875 359.079 55.043 354.496 Q58.1217 349.89 63.9319 349.89 Z" fill="#000000" fill-rule="evenodd" fill-opacity="1" /><path clip-path="url(#clip660)" d="M84.0938 379.195 L88.978 379.195 L88.978 385.075 L84.0938 385.075 L84.0938 379.195 Z" fill="#000000" fill-rule="evenodd" fill-opacity="1" /><path clip-path="url(#clip660)" d="M97.9826 350.515 L120.205 350.515 L120.205 352.505 L107.658 385.075 L102.774 385.075 L114.58 354.45 L97.9826 354.45 L97.9826 350.515 Z" fill="#000000" fill-rule="evenodd" fill-opacity="1" /><path clip-path="url(#clip660)" d="M129.371 350.515 L147.728 350.515 L147.728 354.45 L133.654 354.45 L133.654 362.922 Q134.672 362.575 135.691 362.413 Q136.709 362.228 137.728 362.228 Q143.515 362.228 146.894 365.399 Q150.274 368.57 150.274 373.987 Q150.274 379.565 146.802 382.667 Q143.33 385.746 137.01 385.746 Q134.834 385.746 132.566 385.376 Q130.32 385.005 127.913 384.264 L127.913 379.565 Q129.996 380.7 132.219 381.255 Q134.441 381.811 136.918 381.811 Q140.922 381.811 143.26 379.704 Q145.598 377.598 145.598 373.987 Q145.598 370.376 143.26 368.269 Q140.922 366.163 136.918 366.163 Q135.043 366.163 133.168 366.579 Q131.316 366.996 129.371 367.876 L129.371 350.515 Z" fill="#000000" fill-rule="evenodd" fill-opacity="1" /><path clip-path="url(#clip660)" d="M53.7467 101.321 L61.3856 101.321 L61.3856 74.9555 L53.0754 76.6222 L53.0754 72.3629 L61.3393 70.6963 L66.0152 70.6963 L66.0152 101.321 L73.654 101.321 L73.654 105.256 L53.7467 105.256 L53.7467 101.321 Z" fill="#000000" fill-rule="evenodd" fill-opacity="1" /><path clip-path="url(#clip660)" d="M83.0984 99.3767 L87.9827 99.3767 L87.9827 105.256 L83.0984 105.256 L83.0984 99.3767 Z" fill="#000000" fill-rule="evenodd" fill-opacity="1" /><path clip-path="url(#clip660)" d="M108.168 73.775 Q104.557 73.775 102.728 77.3398 Q100.922 80.8814 100.922 88.011 Q100.922 95.1174 102.728 98.6822 Q104.557 102.224 108.168 102.224 Q111.802 102.224 113.608 98.6822 Q115.436 95.1174 115.436 88.011 Q115.436 80.8814 113.608 77.3398 Q111.802 73.775 108.168 73.775 M108.168 70.0713 Q113.978 70.0713 117.033 74.6777 Q120.112 79.261 120.112 88.011 Q120.112 96.7378 117.033 101.344 Q113.978 105.928 108.168 105.928 Q102.358 105.928 99.2789 101.344 Q96.2234 96.7378 96.2234 88.011 Q96.2234 79.261 99.2789 74.6777 Q102.358 70.0713 108.168 70.0713 Z" fill="#000000" fill-rule="evenodd" fill-opacity="1" /><path clip-path="url(#clip660)" d="M138.33 73.775 Q134.719 73.775 132.89 77.3398 Q131.084 80.8814 131.084 88.011 Q131.084 95.1174 132.89 98.6822 Q134.719 102.224 138.33 102.224 Q141.964 102.224 143.769 98.6822 Q145.598 95.1174 145.598 88.011 Q145.598 80.8814 143.769 77.3398 Q141.964 73.775 138.33 73.775 M138.33 70.0713 Q144.14 70.0713 147.195 74.6777 Q150.274 79.261 150.274 88.011 Q150.274 96.7378 147.195 101.344 Q144.14 105.928 138.33 105.928 Q132.519 105.928 129.441 101.344 Q126.385 96.7378 126.385 88.011 Q126.385 79.261 129.441 74.6777 Q132.519 70.0713 138.33 70.0713 Z" fill="#000000" fill-rule="evenodd" fill-opacity="1" /><polyline clip-path="url(#clip662)" style="stroke:#009af9; stroke-linecap:butt; stroke-linejoin:round; stroke-width:16; stroke-opacity:1; fill:none" points="
  247.59,87.9763 289.301,848.825 331.012,1213.78 372.723,1343.13 414.434,1346.3 456.146,1294.41 497.857,1230.5 539.568,1177.67 581.279,1145.54 622.991,1135.18 
  664.702,1142.77 706.413,1162.29 748.124,1187.32 789.836,1212.21 831.547,1232.71 873.258,1246.19 914.969,1251.65 956.681,1249.45 998.392,1240.98 1040.1,1228.31 
  1081.81,1213.78 1123.53,1199.68 1165.24,1187.95 1206.95,1180 1248.66,1176.59 1290.37,1177.82 1332.08,1183.14 1373.79,1191.52 1415.5,1201.57 1457.22,1211.76 
  1498.93,1220.59 1540.64,1226.84 1582.35,1229.67 1624.06,1228.78 1665.77,1224.43 1707.48,1217.43 1749.19,1209.04 1790.91,1200.79 1832.62,1194.24 1874.33,1190.72 
  1916.04,1191.03 1957.75,1195.21 1999.46,1202.32 2041.17,1210.49 2082.88,1217.15 2124.6,1219.61 2166.31,1216.11 2208.02,1207.53 2249.73,1199.78 2291.44,1207.25 
  
  "/>
<polyline clip-path="url(#clip662)" style="stroke:#e26f46; stroke-linecap:butt; stroke-linejoin:round; stroke-width:16; stroke-opacity:1; fill:none" points="
  247.59,1207.25 289.301,303.554 331.012,88.1232 372.723,236.562 414.434,535.689 456.146,854.794 497.857,1122.45 539.568,1308.12 581.279,1407.81 622.991,1433.27 
  664.702,1403.94 706.413,1341.41 748.124,1265.66 789.836,1192.93 831.547,1134.68 873.258,1097.44 914.969,1083.21 956.681,1090.34 998.392,1114.47 1040.1,1149.69 
  1081.81,1189.49 1123.53,1227.7 1165.24,1259.17 1206.95,1280.25 1248.66,1289.06 1290.37,1285.51 1332.08,1271.14 1373.79,1248.8 1415.5,1222.2 1457.22,1195.41 
  1498.93,1172.28 1540.64,1156.02 1582.35,1148.74 1624.06,1151.17 1665.77,1162.58 1707.48,1180.82 1749.19,1202.61 1790.91,1223.97 1832.62,1240.87 1874.33,1249.9 
  1916.04,1249.02 1957.75,1238.23 1999.46,1219.92 2041.17,1198.92 2082.88,1181.85 2124.6,1175.59 2166.31,1184.57 2208.02,1206.54 2249.73,1226.32 2291.44,1207.25 
  
  "/>
<polyline clip-path="url(#clip662)" style="stroke:#3da44d; stroke-linecap:butt; stroke-linejoin:round; stroke-width:16; stroke-opacity:1; fill:none" points="
  247.59,1207.25 289.301,1418.4 331.012,1197.81 372.723,825.838 414.434,469.993 456.146,216.958 497.857,98.0757 539.568,109.185 581.279,225.691 622.991,413.636 
  664.702,637.486 706.413,865.235 748.124,1071.39 789.836,1238.33 831.547,1356.43 873.258,1423.33 914.969,1442.67 956.681,1422.54 998.392,1373.76 1040.1,1308.29 
  1081.81,1237.82 1123.53,1172.62 1165.24,1120.66 1206.95,1087.13 1248.66,1074.25 1290.37,1081.4 1332.08,1105.52 1373.79,1141.68 1415.5,1183.84 1457.22,1225.65 
  1498.93,1261.19 1540.64,1285.77 1582.35,1296.39 1624.06,1292.21 1665.77,1274.58 1707.48,1246.89 1749.19,1214.18 1790.91,1182.39 1832.62,1157.46 1874.33,1144.33 
  1916.04,1145.84 1957.75,1161.86 1999.46,1188.74 2041.17,1219.37 2082.88,1244.12 2124.6,1253.09 2166.31,1240 2208.02,1208.27 2249.73,1179.84 2291.44,1207.25 
  
  "/>
<polyline clip-path="url(#clip662)" style="stroke:#c271d2; stroke-linecap:butt; stroke-linejoin:round; stroke-width:16; stroke-opacity:1; fill:none" points="
  247.59,1207.25 289.301,1097.05 331.012,1211.64 372.723,1358.19 414.434,1436.62 456.146,1410.05 497.857,1281.71 539.568,1077.61 581.279,833.696 622.991,586.982 
  664.702,369.727 706.413,206.142 748.124,110.979 789.836,89.5532 831.547,138.754 873.258,248.695 914.969,404.704 956.681,589.405 998.392,784.716 1040.1,973.608 
  1081.81,1141.53 1123.53,1277.43 1165.24,1374.39 1206.95,1429.82 1248.66,1445.22 1290.37,1425.73 1332.08,1379.27 1373.79,1315.58 1415.5,1245.13 1457.22,1178.02 
  1498.93,1122.95 1540.64,1086.37 1582.35,1071.87 1624.06,1079.81 1665.77,1107.41 1707.48,1149.08 1749.19,1197.18 1790.91,1243.06 1832.62,1278.37 1874.33,1296.43 
  1916.04,1293.67 1957.75,1270.69 1999.46,1232.95 2041.17,1190.51 2082.88,1156.63 2124.6,1144.65 2166.31,1162.75 2208.02,1205.87 2249.73,1244.15 2291.44,1207.25 
  
  "/>
<polyline clip-path="url(#clip662)" style="stroke:#ac8d18; stroke-linecap:butt; stroke-linejoin:round; stroke-width:16; stroke-opacity:1; fill:none" points="
  247.59,1207.25 289.301,1278 331.012,1204.53 372.723,1117.57 414.434,1077.44 456.146,1098.96 497.857,1170.19 539.568,1266.36 581.279,1359.47 622.991,1424.72 
  664.702,1444.11 706.413,1408.15 748.124,1315.9 789.836,1174.02 831.547,995.14 873.258,795.813 914.969,594.412 956.681,409.107 998.392,256.09 1040.1,148.178 
  1081.81,93.8263 1123.53,96.6022 1165.24,155.111 1206.95,263.336 1248.66,411.347 1290.37,586.296 1332.08,773.621 1373.79,958.352 1415.5,1126.43 1457.22,1265.94 
  1498.93,1368.14 1540.64,1428.21 1582.35,1445.72 1624.06,1424.59 1665.77,1372.76 1707.48,1301.29 1749.19,1223.17 1790.91,1151.77 1832.62,1099.06 1874.33,1073.8 
  1916.04,1079.87 1957.75,1115.02 1999.46,1170.35 2041.17,1231 2082.88,1278.3 2124.6,1294.23 2166.31,1268.51 2208.02,1209.14 2249.73,1157.3 2291.44,1207.25 
  
  "/>
<polyline clip-path="url(#clip662)" style="stroke:#00a9ad; stroke-linecap:butt; stroke-linejoin:round; stroke-width:16; stroke-opacity:1; fill:none" points="
  247.59,1207.25 289.301,1157.3 331.012,1209.14 372.723,1268.51 414.434,1294.23 456.146,1278.3 497.857,1231 539.568,1170.35 581.279,1115.02 622.991,1079.87 
  664.702,1073.8 706.413,1099.06 748.124,1151.77 789.836,1223.17 831.547,1301.29 873.258,1372.76 914.969,1424.59 956.681,1445.72 998.392,1428.21 1040.1,1368.14 
  1081.81,1265.94 1123.53,1126.43 1165.24,958.352 1206.95,773.621 1248.66,586.296 1290.37,411.347 1332.08,263.336 1373.79,155.111 1415.5,96.6022 1457.22,93.8263 
  1498.93,148.178 1540.64,256.09 1582.35,409.107 1624.06,594.412 1665.77,795.813 1707.48,995.14 1749.19,1174.02 1790.91,1315.9 1832.62,1408.15 1874.33,1444.11 
  1916.04,1424.72 1957.75,1359.47 1999.46,1266.36 2041.17,1170.19 2082.88,1098.96 2124.6,1077.44 2166.31,1117.57 2208.02,1204.53 2249.73,1278 2291.44,1207.25 
  
  "/>
<polyline clip-path="url(#clip662)" style="stroke:#ed5d92; stroke-linecap:butt; stroke-linejoin:round; stroke-width:16; stroke-opacity:1; fill:none" points="
  247.59,1207.25 289.301,1244.15 331.012,1205.87 372.723,1162.75 414.434,1144.65 456.146,1156.63 497.857,1190.51 539.568,1232.95 581.279,1270.69 622.991,1293.67 
  664.702,1296.43 706.413,1278.37 748.124,1243.06 789.836,1197.18 831.547,1149.08 873.258,1107.41 914.969,1079.81 956.681,1071.87 998.392,1086.37 1040.1,1122.95 
  1081.81,1178.02 1123.53,1245.13 1165.24,1315.58 1206.95,1379.27 1248.66,1425.73 1290.37,1445.22 1332.08,1429.82 1373.79,1374.39 1415.5,1277.43 1457.22,1141.53 
  1498.93,973.608 1540.64,784.716 1582.35,589.405 1624.06,404.704 1665.77,248.695 1707.48,138.754 1749.19,89.5532 1790.91,110.979 1832.62,206.142 1874.33,369.727 
  1916.04,586.982 1957.75,833.696 1999.46,1077.61 2041.17,1281.71 2082.88,1410.05 2124.6,1436.62 2166.31,1358.19 2208.02,1211.64 2249.73,1097.05 2291.44,1207.25 
  
  "/>
<polyline clip-path="url(#clip662)" style="stroke:#c68125; stroke-linecap:butt; stroke-linejoin:round; stroke-width:16; stroke-opacity:1; fill:none" points="
  247.59,1207.25 289.301,1179.84 331.012,1208.27 372.723,1240 414.434,1253.09 456.146,1244.12 497.857,1219.37 539.568,1188.74 581.279,1161.86 622.991,1145.84 
  664.702,1144.33 706.413,1157.46 748.124,1182.39 789.836,1214.18 831.547,1246.89 873.258,1274.58 914.969,1292.21 956.681,1296.39 998.392,1285.77 1040.1,1261.19 
  1081.81,1225.65 1123.53,1183.84 1165.24,1141.68 1206.95,1105.52 1248.66,1081.4 1290.37,1074.25 1332.08,1087.13 1373.79,1120.66 1415.5,1172.62 1457.22,1237.82 
  1498.93,1308.29 1540.64,1373.76 1582.35,1422.54 1624.06,1442.67 1665.77,1423.33 1707.48,1356.43 1749.19,1238.33 1790.91,1071.39 1832.62,865.235 1874.33,637.486 
  1916.04,413.636 1957.75,225.691 1999.46,109.185 2041.17,98.0757 2082.88,216.958 2124.6,469.993 2166.31,825.838 2208.02,1197.81 2249.73,1418.4 2291.44,1207.25 
  
  "/>
<polyline clip-path="url(#clip662)" style="stroke:#00a98d; stroke-linecap:butt; stroke-linejoin:round; stroke-width:16; stroke-opacity:1; fill:none" points="
  247.59,1207.25 289.301,1226.32 331.012,1206.54 372.723,1184.57 414.434,1175.59 456.146,1181.85 497.857,1198.92 539.568,1219.92 581.279,1238.23 622.991,1249.02 
  664.702,1249.9 706.413,1240.87 748.124,1223.97 789.836,1202.61 831.547,1180.82 873.258,1162.58 914.969,1151.17 956.681,1148.74 998.392,1156.02 1040.1,1172.28 
  1081.81,1195.41 1123.53,1222.2 1165.24,1248.8 1206.95,1271.14 1248.66,1285.51 1290.37,1289.06 1332.08,1280.25 1373.79,1259.17 1415.5,1227.7 1457.22,1189.49 
  1498.93,1149.69 1540.64,1114.47 1582.35,1090.34 1624.06,1083.21 1665.77,1097.44 1707.48,1134.68 1749.19,1192.93 1790.91,1265.66 1832.62,1341.41 1874.33,1403.94 
  1916.04,1433.27 1957.75,1407.81 1999.46,1308.12 2041.17,1122.45 2082.88,854.794 2124.6,535.689 2166.31,236.562 2208.02,88.1232 2249.73,303.554 2291.44,1207.25 
  
  "/>
<polyline clip-path="url(#clip662)" style="stroke:#8e971d; stroke-linecap:butt; stroke-linejoin:round; stroke-width:16; stroke-opacity:1; fill:none" points="
  247.59,1207.25 289.301,1199.78 331.012,1207.53 372.723,1216.11 414.434,1219.61 456.146,1217.15 497.857,1210.49 539.568,1202.32 581.279,1195.21 622.991,1191.03 
  664.702,1190.72 706.413,1194.24 748.124,1200.79 789.836,1209.04 831.547,1217.43 873.258,1224.43 914.969,1228.78 956.681,1229.67 998.392,1226.84 1040.1,1220.59 
  1081.81,1211.76 1123.53,1201.57 1165.24,1191.52 1206.95,1183.14 1248.66,1177.82 1290.37,1176.59 1332.08,1180 1373.79,1187.95 1415.5,1199.68 1457.22,1213.78 
  1498.93,1228.31 1540.64,1240.98 1582.35,1249.45 1624.06,1251.65 1665.77,1246.19 1707.48,1232.71 1749.19,1212.21 1790.91,1187.32 1832.62,1162.29 1874.33,1142.77 
  1916.04,1135.18 1957.75,1145.54 1999.46,1177.67 2041.17,1230.5 2082.88,1294.41 2124.6,1346.3 2166.31,1343.13 2208.02,1213.78 2249.73,848.825 2291.44,87.9763 
  
  "/>
<circle clip-path="url(#clip662)" cx="247.59" cy="87.9763" r="14.4" fill="#00a8cb" fill-rule="evenodd" fill-opacity="1" stroke="#000000" stroke-opacity="1" stroke-width="3.2"/>
<circle clip-path="url(#clip662)" cx="329.82" cy="87.9763" r="14.4" fill="#00a8cb" fill-rule="evenodd" fill-opacity="1" stroke="#000000" stroke-opacity="1" stroke-width="3.2"/>
<circle clip-path="url(#clip662)" cx="514.543" cy="87.9763" r="14.4" fill="#00a8cb" fill-rule="evenodd" fill-opacity="1" stroke="#000000" stroke-opacity="1" stroke-width="3.2"/>
<circle clip-path="url(#clip662)" cx="781.111" cy="87.9763" r="14.4" fill="#00a8cb" fill-rule="evenodd" fill-opacity="1" stroke="#000000" stroke-opacity="1" stroke-width="3.2"/>
<circle clip-path="url(#clip662)" cx="1100.61" cy="87.9763" r="14.4" fill="#00a8cb" fill-rule="evenodd" fill-opacity="1" stroke="#000000" stroke-opacity="1" stroke-width="3.2"/>
<circle clip-path="url(#clip662)" cx="1438.42" cy="87.9763" r="14.4" fill="#00a8cb" fill-rule="evenodd" fill-opacity="1" stroke="#000000" stroke-opacity="1" stroke-width="3.2"/>
<circle clip-path="url(#clip662)" cx="1757.92" cy="87.9763" r="14.4" fill="#00a8cb" fill-rule="evenodd" fill-opacity="1" stroke="#000000" stroke-opacity="1" stroke-width="3.2"/>
<circle clip-path="url(#clip662)" cx="2024.49" cy="87.9763" r="14.4" fill="#00a8cb" fill-rule="evenodd" fill-opacity="1" stroke="#000000" stroke-opacity="1" stroke-width="3.2"/>
<circle clip-path="url(#clip662)" cx="2209.21" cy="87.9763" r="14.4" fill="#00a8cb" fill-rule="evenodd" fill-opacity="1" stroke="#000000" stroke-opacity="1" stroke-width="3.2"/>
<circle clip-path="url(#clip662)" cx="2291.44" cy="87.9763" r="14.4" fill="#00a8cb" fill-rule="evenodd" fill-opacity="1" stroke="#000000" stroke-opacity="1" stroke-width="3.2"/>
<path clip-path="url(#clip660)" d="
M1956 717.298 L2280.54 717.298 L2280.54 95.2176 L1956 95.2176  Z
  " fill="#ffffff" fill-rule="evenodd" fill-opacity="1"/>
<polyline clip-path="url(#clip660)" style="stroke:#000000; stroke-linecap:butt; stroke-linejoin:round; stroke-width:4; stroke-opacity:1; fill:none" points="
  1956,717.298 2280.54,717.298 2280.54,95.2176 1956,95.2176 1956,717.298 
  "/>
<polyline clip-path="url(#clip660)" style="stroke:#009af9; stroke-linecap:butt; stroke-linejoin:round; stroke-width:4; stroke-opacity:1; fill:none" points="
  1980.07,147.058 2124.5,147.058 
  "/>
<path clip-path="url(#clip660)" d="M2162.42 166.745 Q2160.61 171.375 2158.9 172.787 Q2157.19 174.199 2154.32 174.199 L2150.91 174.199 L2150.91 170.634 L2153.41 170.634 Q2155.17 170.634 2156.15 169.8 Q2157.12 168.967 2158.3 165.865 L2159.06 163.921 L2148.58 138.412 L2153.09 138.412 L2161.19 158.689 L2169.29 138.412 L2173.81 138.412 L2162.42 166.745 Z" fill="#000000" fill-rule="evenodd" fill-opacity="1" /><path clip-path="url(#clip660)" d="M2181.1 160.402 L2188.74 160.402 L2188.74 134.037 L2180.43 135.703 L2180.43 131.444 L2188.69 129.778 L2193.37 129.778 L2193.37 160.402 L2201.01 160.402 L2201.01 164.338 L2181.1 164.338 L2181.1 160.402 Z" fill="#000000" fill-rule="evenodd" fill-opacity="1" /><polyline clip-path="url(#clip660)" style="stroke:#e26f46; stroke-linecap:butt; stroke-linejoin:round; stroke-width:4; stroke-opacity:1; fill:none" points="
  1980.07,198.898 2124.5,198.898 
  "/>
<path clip-path="url(#clip660)" d="M2162.42 218.585 Q2160.61 223.215 2158.9 224.627 Q2157.19 226.039 2154.32 226.039 L2150.91 226.039 L2150.91 222.474 L2153.41 222.474 Q2155.17 222.474 2156.15 221.64 Q2157.12 220.807 2158.3 217.705 L2159.06 215.761 L2148.58 190.252 L2153.09 190.252 L2161.19 210.529 L2169.29 190.252 L2173.81 190.252 L2162.42 218.585 Z" fill="#000000" fill-rule="evenodd" fill-opacity="1" /><path clip-path="url(#clip660)" d="M2184.32 212.242 L2200.64 212.242 L2200.64 216.178 L2178.69 216.178 L2178.69 212.242 Q2181.35 209.488 2185.94 204.858 Q2190.54 200.205 2191.72 198.863 Q2193.97 196.34 2194.85 194.604 Q2195.75 192.844 2195.75 191.155 Q2195.75 188.4 2193.81 186.664 Q2191.89 184.928 2188.78 184.928 Q2186.59 184.928 2184.13 185.692 Q2181.7 186.455 2178.92 188.006 L2178.92 183.284 Q2181.75 182.15 2184.2 181.571 Q2186.66 180.993 2188.69 180.993 Q2194.06 180.993 2197.26 183.678 Q2200.45 186.363 2200.45 190.854 Q2200.45 192.983 2199.64 194.905 Q2198.85 196.803 2196.75 199.395 Q2196.17 200.067 2193.07 203.284 Q2189.97 206.479 2184.32 212.242 Z" fill="#000000" fill-rule="evenodd" fill-opacity="1" /><polyline clip-path="url(#clip660)" style="stroke:#3da44d; stroke-linecap:butt; stroke-linejoin:round; stroke-width:4; stroke-opacity:1; fill:none" points="
  1980.07,250.738 2124.5,250.738 
  "/>
<path clip-path="url(#clip660)" d="M2162.42 270.425 Q2160.61 275.055 2158.9 276.467 Q2157.19 277.879 2154.32 277.879 L2150.91 277.879 L2150.91 274.314 L2153.41 274.314 Q2155.17 274.314 2156.15 273.48 Q2157.12 272.647 2158.3 269.545 L2159.06 267.601 L2148.58 242.092 L2153.09 242.092 L2161.19 262.369 L2169.29 242.092 L2173.81 242.092 L2162.42 270.425 Z" fill="#000000" fill-rule="evenodd" fill-opacity="1" /><path clip-path="url(#clip660)" d="M2194.46 249.383 Q2197.81 250.101 2199.69 252.369 Q2201.59 254.638 2201.59 257.971 Q2201.59 263.087 2198.07 265.888 Q2194.55 268.689 2188.07 268.689 Q2185.89 268.689 2183.58 268.249 Q2181.28 267.832 2178.83 266.976 L2178.83 262.462 Q2180.78 263.596 2183.09 264.175 Q2185.41 264.754 2187.93 264.754 Q2192.33 264.754 2194.62 263.018 Q2196.93 261.281 2196.93 257.971 Q2196.93 254.916 2194.78 253.203 Q2192.65 251.467 2188.83 251.467 L2184.8 251.467 L2184.8 247.624 L2189.02 247.624 Q2192.47 247.624 2194.29 246.258 Q2196.12 244.87 2196.12 242.277 Q2196.12 239.615 2194.22 238.203 Q2192.35 236.768 2188.83 236.768 Q2186.91 236.768 2184.71 237.184 Q2182.51 237.601 2179.87 238.481 L2179.87 234.314 Q2182.53 233.573 2184.85 233.203 Q2187.19 232.833 2189.25 232.833 Q2194.57 232.833 2197.67 235.263 Q2200.78 237.67 2200.78 241.791 Q2200.78 244.661 2199.13 246.652 Q2197.49 248.62 2194.46 249.383 Z" fill="#000000" fill-rule="evenodd" fill-opacity="1" /><polyline clip-path="url(#clip660)" style="stroke:#c271d2; stroke-linecap:butt; stroke-linejoin:round; stroke-width:4; stroke-opacity:1; fill:none" points="
  1980.07,302.578 2124.5,302.578 
  "/>
<path clip-path="url(#clip660)" d="M2162.42 322.265 Q2160.61 326.895 2158.9 328.307 Q2157.19 329.719 2154.32 329.719 L2150.91 329.719 L2150.91 326.154 L2153.41 326.154 Q2155.17 326.154 2156.15 325.32 Q2157.12 324.487 2158.3 321.385 L2159.06 319.441 L2148.58 293.932 L2153.09 293.932 L2161.19 314.209 L2169.29 293.932 L2173.81 293.932 L2162.42 322.265 Z" fill="#000000" fill-rule="evenodd" fill-opacity="1" /><path clip-path="url(#clip660)" d="M2193.14 289.372 L2181.33 307.821 L2193.14 307.821 L2193.14 289.372 M2191.91 285.298 L2197.79 285.298 L2197.79 307.821 L2202.72 307.821 L2202.72 311.709 L2197.79 311.709 L2197.79 319.858 L2193.14 319.858 L2193.14 311.709 L2177.53 311.709 L2177.53 307.196 L2191.91 285.298 Z" fill="#000000" fill-rule="evenodd" fill-opacity="1" /><polyline clip-path="url(#clip660)" style="stroke:#ac8d18; stroke-linecap:butt; stroke-linejoin:round; stroke-width:4; stroke-opacity:1; fill:none" points="
  1980.07,354.418 2124.5,354.418 
  "/>
<path clip-path="url(#clip660)" d="M2162.42 374.105 Q2160.61 378.735 2158.9 380.147 Q2157.19 381.559 2154.32 381.559 L2150.91 381.559 L2150.91 377.994 L2153.41 377.994 Q2155.17 377.994 2156.15 377.16 Q2157.12 376.327 2158.3 373.225 L2159.06 371.281 L2148.58 345.772 L2153.09 345.772 L2161.19 366.049 L2169.29 345.772 L2173.81 345.772 L2162.42 374.105 Z" fill="#000000" fill-rule="evenodd" fill-opacity="1" /><path clip-path="url(#clip660)" d="M2180.34 337.138 L2198.69 337.138 L2198.69 341.073 L2184.62 341.073 L2184.62 349.545 Q2185.64 349.198 2186.66 349.036 Q2187.67 348.85 2188.69 348.85 Q2194.48 348.85 2197.86 352.022 Q2201.24 355.193 2201.24 360.61 Q2201.24 366.188 2197.77 369.29 Q2194.29 372.369 2187.97 372.369 Q2185.8 372.369 2183.53 371.998 Q2181.28 371.628 2178.88 370.887 L2178.88 366.188 Q2180.96 367.323 2183.18 367.878 Q2185.41 368.434 2187.88 368.434 Q2191.89 368.434 2194.22 366.327 Q2196.56 364.221 2196.56 360.61 Q2196.56 356.999 2194.22 354.892 Q2191.89 352.786 2187.88 352.786 Q2186.01 352.786 2184.13 353.202 Q2182.28 353.619 2180.34 354.499 L2180.34 337.138 Z" fill="#000000" fill-rule="evenodd" fill-opacity="1" /><polyline clip-path="url(#clip660)" style="stroke:#00a9ad; stroke-linecap:butt; stroke-linejoin:round; stroke-width:4; stroke-opacity:1; fill:none" points="
  1980.07,406.258 2124.5,406.258 
  "/>
<path clip-path="url(#clip660)" d="M2162.42 425.945 Q2160.61 430.575 2158.9 431.987 Q2157.19 433.399 2154.32 433.399 L2150.91 433.399 L2150.91 429.834 L2153.41 429.834 Q2155.17 429.834 2156.15 429 Q2157.12 428.167 2158.3 425.065 L2159.06 423.121 L2148.58 397.612 L2153.09 397.612 L2161.19 417.889 L2169.29 397.612 L2173.81 397.612 L2162.42 425.945 Z" fill="#000000" fill-rule="evenodd" fill-opacity="1" /><path clip-path="url(#clip660)" d="M2190.87 404.394 Q2187.72 404.394 2185.87 406.547 Q2184.04 408.7 2184.04 412.45 Q2184.04 416.176 2185.87 418.352 Q2187.72 420.505 2190.87 420.505 Q2194.02 420.505 2195.85 418.352 Q2197.7 416.176 2197.7 412.45 Q2197.7 408.7 2195.85 406.547 Q2194.02 404.394 2190.87 404.394 M2200.15 389.741 L2200.15 394.001 Q2198.39 393.167 2196.59 392.728 Q2194.8 392.288 2193.04 392.288 Q2188.41 392.288 2185.96 395.413 Q2183.53 398.538 2183.18 404.857 Q2184.55 402.843 2186.61 401.778 Q2188.67 400.69 2191.15 400.69 Q2196.35 400.69 2199.36 403.862 Q2202.4 407.01 2202.4 412.45 Q2202.4 417.774 2199.25 420.991 Q2196.1 424.209 2190.87 424.209 Q2184.87 424.209 2181.7 419.626 Q2178.53 415.019 2178.53 406.292 Q2178.53 398.098 2182.42 393.237 Q2186.31 388.353 2192.86 388.353 Q2194.62 388.353 2196.4 388.7 Q2198.21 389.047 2200.15 389.741 Z" fill="#000000" fill-rule="evenodd" fill-opacity="1" /><polyline clip-path="url(#clip660)" style="stroke:#ed5d92; stroke-linecap:butt; stroke-linejoin:round; stroke-width:4; stroke-opacity:1; fill:none" points="
  1980.07,458.098 2124.5,458.098 
  "/>
<path clip-path="url(#clip660)" d="M2162.42 477.785 Q2160.61 482.415 2158.9 483.827 Q2157.19 485.239 2154.32 485.239 L2150.91 485.239 L2150.91 481.674 L2153.41 481.674 Q2155.17 481.674 2156.15 480.84 Q2157.12 480.007 2158.3 476.905 L2159.06 474.961 L2148.58 449.452 L2153.09 449.452 L2161.19 469.729 L2169.29 449.452 L2173.81 449.452 L2162.42 477.785 Z" fill="#000000" fill-rule="evenodd" fill-opacity="1" /><path clip-path="url(#clip660)" d="M2179.11 440.818 L2201.33 440.818 L2201.33 442.808 L2188.78 475.378 L2183.9 475.378 L2195.71 444.753 L2179.11 444.753 L2179.11 440.818 Z" fill="#000000" fill-rule="evenodd" fill-opacity="1" /><polyline clip-path="url(#clip660)" style="stroke:#c68125; stroke-linecap:butt; stroke-linejoin:round; stroke-width:4; stroke-opacity:1; fill:none" points="
  1980.07,509.938 2124.5,509.938 
  "/>
<path clip-path="url(#clip660)" d="M2162.42 529.625 Q2160.61 534.255 2158.9 535.667 Q2157.19 537.079 2154.32 537.079 L2150.91 537.079 L2150.91 533.514 L2153.41 533.514 Q2155.17 533.514 2156.15 532.68 Q2157.12 531.847 2158.3 528.745 L2159.06 526.801 L2148.58 501.292 L2153.09 501.292 L2161.19 521.569 L2169.29 501.292 L2173.81 501.292 L2162.42 529.625 Z" fill="#000000" fill-rule="evenodd" fill-opacity="1" /><path clip-path="url(#clip660)" d="M2190.29 510.806 Q2186.96 510.806 2185.03 512.588 Q2183.14 514.37 2183.14 517.495 Q2183.14 520.62 2185.03 522.403 Q2186.96 524.185 2190.29 524.185 Q2193.62 524.185 2195.54 522.403 Q2197.47 520.597 2197.47 517.495 Q2197.47 514.37 2195.54 512.588 Q2193.65 510.806 2190.29 510.806 M2185.61 508.815 Q2182.6 508.074 2180.91 506.014 Q2179.25 503.954 2179.25 500.991 Q2179.25 496.847 2182.19 494.44 Q2185.15 492.033 2190.29 492.033 Q2195.45 492.033 2198.39 494.44 Q2201.33 496.847 2201.33 500.991 Q2201.33 503.954 2199.64 506.014 Q2197.97 508.074 2194.99 508.815 Q2198.37 509.602 2200.24 511.894 Q2202.14 514.185 2202.14 517.495 Q2202.14 522.519 2199.06 525.204 Q2196.01 527.889 2190.29 527.889 Q2184.57 527.889 2181.49 525.204 Q2178.44 522.519 2178.44 517.495 Q2178.44 514.185 2180.34 511.894 Q2182.23 509.602 2185.61 508.815 M2183.9 501.431 Q2183.9 504.116 2185.57 505.62 Q2187.26 507.125 2190.29 507.125 Q2193.3 507.125 2194.99 505.62 Q2196.7 504.116 2196.7 501.431 Q2196.7 498.745 2194.99 497.241 Q2193.3 495.736 2190.29 495.736 Q2187.26 495.736 2185.57 497.241 Q2183.9 498.745 2183.9 501.431 Z" fill="#000000" fill-rule="evenodd" fill-opacity="1" /><polyline clip-path="url(#clip660)" style="stroke:#00a98d; stroke-linecap:butt; stroke-linejoin:round; stroke-width:4; stroke-opacity:1; fill:none" points="
  1980.07,561.778 2124.5,561.778 
  "/>
<path clip-path="url(#clip660)" d="M2162.42 581.465 Q2160.61 586.095 2158.9 587.507 Q2157.19 588.919 2154.32 588.919 L2150.91 588.919 L2150.91 585.354 L2153.41 585.354 Q2155.17 585.354 2156.15 584.52 Q2157.12 583.687 2158.3 580.585 L2159.06 578.641 L2148.58 553.132 L2153.09 553.132 L2161.19 573.409 L2169.29 553.132 L2173.81 553.132 L2162.42 581.465 Z" fill="#000000" fill-rule="evenodd" fill-opacity="1" /><path clip-path="url(#clip660)" d="M2180.43 578.34 L2180.43 574.081 Q2182.19 574.914 2183.99 575.354 Q2185.8 575.794 2187.53 575.794 Q2192.16 575.794 2194.6 572.692 Q2197.05 569.567 2197.4 563.224 Q2196.05 565.215 2193.99 566.28 Q2191.93 567.345 2189.43 567.345 Q2184.25 567.345 2181.22 564.22 Q2178.21 561.072 2178.21 555.632 Q2178.21 550.308 2181.35 547.09 Q2184.5 543.873 2189.73 543.873 Q2195.73 543.873 2198.88 548.479 Q2202.05 553.062 2202.05 561.812 Q2202.05 569.984 2198.16 574.868 Q2194.29 579.729 2187.74 579.729 Q2185.98 579.729 2184.18 579.382 Q2182.37 579.034 2180.43 578.34 M2189.73 563.687 Q2192.88 563.687 2194.71 561.534 Q2196.56 559.382 2196.56 555.632 Q2196.56 551.905 2194.71 549.752 Q2192.88 547.576 2189.73 547.576 Q2186.59 547.576 2184.73 549.752 Q2182.91 551.905 2182.91 555.632 Q2182.91 559.382 2184.73 561.534 Q2186.59 563.687 2189.73 563.687 Z" fill="#000000" fill-rule="evenodd" fill-opacity="1" /><polyline clip-path="url(#clip660)" style="stroke:#8e971d; stroke-linecap:butt; stroke-linejoin:round; stroke-width:4; stroke-opacity:1; fill:none" points="
  1980.07,613.618 2124.5,613.618 
  "/>
<path clip-path="url(#clip660)" d="M2162.42 633.305 Q2160.61 637.935 2158.9 639.347 Q2157.19 640.759 2154.32 640.759 L2150.91 640.759 L2150.91 637.194 L2153.41 637.194 Q2155.17 637.194 2156.15 636.36 Q2157.12 635.527 2158.3 632.425 L2159.06 630.481 L2148.58 604.972 L2153.09 604.972 L2161.19 625.249 L2169.29 604.972 L2173.81 604.972 L2162.42 633.305 Z" fill="#000000" fill-rule="evenodd" fill-opacity="1" /><path clip-path="url(#clip660)" d="M2181.1 626.962 L2188.74 626.962 L2188.74 600.597 L2180.43 602.263 L2180.43 598.004 L2188.69 596.338 L2193.37 596.338 L2193.37 626.962 L2201.01 626.962 L2201.01 630.898 L2181.1 630.898 L2181.1 626.962 Z" fill="#000000" fill-rule="evenodd" fill-opacity="1" /><path clip-path="url(#clip660)" d="M2220.45 599.416 Q2216.84 599.416 2215.01 602.981 Q2213.21 606.523 2213.21 613.652 Q2213.21 620.759 2215.01 624.324 Q2216.84 627.865 2220.45 627.865 Q2224.09 627.865 2225.89 624.324 Q2227.72 620.759 2227.72 613.652 Q2227.72 606.523 2225.89 602.981 Q2224.09 599.416 2220.45 599.416 M2220.45 595.713 Q2226.26 595.713 2229.32 600.319 Q2232.4 604.902 2232.4 613.652 Q2232.4 622.379 2229.32 626.986 Q2226.26 631.569 2220.45 631.569 Q2214.64 631.569 2211.56 626.986 Q2208.51 622.379 2208.51 613.652 Q2208.51 604.902 2211.56 600.319 Q2214.64 595.713 2220.45 595.713 Z" fill="#000000" fill-rule="evenodd" fill-opacity="1" /><circle clip-path="url(#clip660)" cx="2052.29" cy="665.458" r="23.04" fill="#00a8cb" fill-rule="evenodd" fill-opacity="1" stroke="#000000" stroke-opacity="1" stroke-width="5.12"/>
<path clip-path="url(#clip660)" d="M2162.42 685.145 Q2160.61 689.775 2158.9 691.187 Q2157.19 692.599 2154.32 692.599 L2150.91 692.599 L2150.91 689.034 L2153.41 689.034 Q2155.17 689.034 2156.15 688.2 Q2157.12 687.367 2158.3 684.265 L2159.06 682.321 L2148.58 656.812 L2153.09 656.812 L2161.19 677.089 L2169.29 656.812 L2173.81 656.812 L2162.42 685.145 Z" fill="#000000" fill-rule="evenodd" fill-opacity="1" /><path clip-path="url(#clip660)" d="M2181.1 678.802 L2188.74 678.802 L2188.74 652.437 L2180.43 654.103 L2180.43 649.844 L2188.69 648.178 L2193.37 648.178 L2193.37 678.802 L2201.01 678.802 L2201.01 682.738 L2181.1 682.738 L2181.1 678.802 Z" fill="#000000" fill-rule="evenodd" fill-opacity="1" /><path clip-path="url(#clip660)" d="M2211.26 678.802 L2218.9 678.802 L2218.9 652.437 L2210.59 654.103 L2210.59 649.844 L2218.85 648.178 L2223.53 648.178 L2223.53 678.802 L2231.17 678.802 L2231.17 682.738 L2211.26 682.738 L2211.26 678.802 Z" fill="#000000" fill-rule="evenodd" fill-opacity="1" /></svg>
