<?xml version="1.0" encoding="utf-8"?>
<svg xmlns="http://www.w3.org/2000/svg" xmlns:xlink="http://www.w3.org/1999/xlink" width="600" height="400" viewBox="0 0 2400 1600">
<defs>
  <clipPath id="clip180">
    <rect x="0" y="0" width="2400" height="1600"/>
  </clipPath>
</defs>
<path clip-path="url(#clip180)" d="
M0 1600 L2400 1600 L2400 0 L0 0  Z
  " fill="#ffffff" fill-rule="evenodd" fill-opacity="1"/>
<defs>
  <clipPath id="clip181">
    <rect x="480" y="0" width="1681" height="1600"/>
  </clipPath>
</defs>
<path clip-path="url(#clip180)" d="
M193.936 1486.45 L2352.76 1486.45 L2352.76 47.2441 L193.936 47.2441  Z
  " fill="#ffffff" fill-rule="evenodd" fill-opacity="1"/>
<defs>
  <clipPath id="clip182">
    <rect x="193" y="47" width="2160" height="1440"/>
  </clipPath>
</defs>
<polyline clip-path="url(#clip182)" style="stroke:#000000; stroke-linecap:butt; stroke-linejoin:round; stroke-width:2; stroke-opacity:0.1; fill:none" points="
  193.936,1486.45 193.936,47.2441 
  "/>
<polyline clip-path="url(#clip182)" style="stroke:#000000; stroke-linecap:butt; stroke-linejoin:round; stroke-width:2; stroke-opacity:0.1; fill:none" points="
  733.641,1486.45 733.641,47.2441 
  "/>
<polyline clip-path="url(#clip182)" style="stroke:#000000; stroke-linecap:butt; stroke-linejoin:round; stroke-width:2; stroke-opacity:0.1; fill:none" points="
  1273.35,1486.45 1273.35,47.2441 
  "/>
<polyline clip-path="url(#clip182)" style="stroke:#000000; stroke-linecap:butt; stroke-linejoin:round; stroke-width:2; stroke-opacity:0.1; fill:none" points="
  1813.05,1486.45 1813.05,47.2441 
  "/>
<polyline clip-path="url(#clip182)" style="stroke:#000000; stroke-linecap:butt; stroke-linejoin:round; stroke-width:2; stroke-opacity:0.1; fill:none" points="
  2352.76,1486.45 2352.76,47.2441 
  "/>
<polyline clip-path="url(#clip180)" style="stroke:#000000; stroke-linecap:butt; stroke-linejoin:round; stroke-width:4; stroke-opacity:1; fill:none" points="
  193.936,1486.45 2352.76,1486.45 
  "/>
<polyline clip-path="url(#clip180)" style="stroke:#000000; stroke-linecap:butt; stroke-linejoin:round; stroke-width:4; stroke-opacity:1; fill:none" points="
  193.936,1486.45 193.936,1467.55 
  "/>
<polyline clip-path="url(#clip180)" style="stroke:#000000; stroke-linecap:butt; stroke-linejoin:round; stroke-width:4; stroke-opacity:1; fill:none" points="
  733.641,1486.45 733.641,1467.55 
  "/>
<polyline clip-path="url(#clip180)" style="stroke:#000000; stroke-linecap:butt; stroke-linejoin:round; stroke-width:4; stroke-opacity:1; fill:none" points="
  1273.35,1486.45 1273.35,1467.55 
  "/>
<polyline clip-path="url(#clip180)" style="stroke:#000000; stroke-linecap:butt; stroke-linejoin:round; stroke-width:4; stroke-opacity:1; fill:none" points="
  1813.05,1486.45 1813.05,1467.55 
  "/>
<polyline clip-path="url(#clip180)" style="stroke:#000000; stroke-linecap:butt; stroke-linejoin:round; stroke-width:4; stroke-opacity:1; fill:none" points="
  2352.76,1486.45 2352.76,1467.55 
  "/>
<path clip-path="url(#clip180)" d="M163.878 1532.02 L193.554 1532.02 L193.554 1535.95 L163.878 1535.95 L163.878 1532.02 Z" fill="#000000" fill-rule="evenodd" fill-opacity="1" /><path clip-path="url(#clip180)" d="M207.674 1544.91 L223.994 1544.91 L223.994 1548.85 L202.049 1548.85 L202.049 1544.91 Q204.711 1542.16 209.295 1537.53 Q213.901 1532.88 215.082 1531.53 Q217.327 1529.01 218.207 1527.27 Q219.109 1525.51 219.109 1523.82 Q219.109 1521.07 217.165 1519.33 Q215.244 1517.6 212.142 1517.6 Q209.943 1517.6 207.489 1518.36 Q205.059 1519.13 202.281 1520.68 L202.281 1515.95 Q205.105 1514.82 207.559 1514.24 Q210.012 1513.66 212.049 1513.66 Q217.42 1513.66 220.614 1516.35 Q223.809 1519.03 223.809 1523.52 Q223.809 1525.65 222.998 1527.57 Q222.211 1529.47 220.105 1532.07 Q219.526 1532.74 216.424 1535.95 Q213.322 1539.15 207.674 1544.91 Z" fill="#000000" fill-rule="evenodd" fill-opacity="1" /><path clip-path="url(#clip180)" d="M703.398 1532.02 L733.074 1532.02 L733.074 1535.95 L703.398 1535.95 L703.398 1532.02 Z" fill="#000000" fill-rule="evenodd" fill-opacity="1" /><path clip-path="url(#clip180)" d="M743.977 1544.91 L751.615 1544.91 L751.615 1518.55 L743.305 1520.21 L743.305 1515.95 L751.569 1514.29 L756.245 1514.29 L756.245 1544.91 L763.884 1544.91 L763.884 1548.85 L743.977 1548.85 L743.977 1544.91 Z" fill="#000000" fill-rule="evenodd" fill-opacity="1" /><path clip-path="url(#clip180)" d="M1273.35 1517.37 Q1269.73 1517.37 1267.91 1520.93 Q1266.1 1524.47 1266.1 1531.6 Q1266.1 1538.71 1267.91 1542.27 Q1269.73 1545.82 1273.35 1545.82 Q1276.98 1545.82 1278.79 1542.27 Q1280.61 1538.71 1280.61 1531.6 Q1280.61 1524.47 1278.79 1520.93 Q1276.98 1517.37 1273.35 1517.37 M1273.35 1513.66 Q1279.16 1513.66 1282.21 1518.27 Q1285.29 1522.85 1285.29 1531.6 Q1285.29 1540.33 1282.21 1544.94 Q1279.16 1549.52 1273.35 1549.52 Q1267.54 1549.52 1264.46 1544.94 Q1261.4 1540.33 1261.4 1531.6 Q1261.4 1522.85 1264.46 1518.27 Q1267.54 1513.66 1273.35 1513.66 Z" fill="#000000" fill-rule="evenodd" fill-opacity="1" /><path clip-path="url(#clip180)" d="M1803.43 1544.91 L1811.07 1544.91 L1811.07 1518.55 L1802.76 1520.21 L1802.76 1515.95 L1811.03 1514.29 L1815.7 1514.29 L1815.7 1544.91 L1823.34 1544.91 L1823.34 1548.85 L1803.43 1548.85 L1803.43 1544.91 Z" fill="#000000" fill-rule="evenodd" fill-opacity="1" /><path clip-path="url(#clip180)" d="M2347.41 1544.91 L2363.73 1544.91 L2363.73 1548.85 L2341.78 1548.85 L2341.78 1544.91 Q2344.45 1542.16 2349.03 1537.53 Q2353.64 1532.88 2354.82 1531.53 Q2357.06 1529.01 2357.94 1527.27 Q2358.84 1525.51 2358.84 1523.82 Q2358.84 1521.07 2356.9 1519.33 Q2354.98 1517.6 2351.88 1517.6 Q2349.68 1517.6 2347.22 1518.36 Q2344.79 1519.13 2342.02 1520.68 L2342.02 1515.95 Q2344.84 1514.82 2347.29 1514.24 Q2349.75 1513.66 2351.78 1513.66 Q2357.15 1513.66 2360.35 1516.35 Q2363.54 1519.03 2363.54 1523.52 Q2363.54 1525.65 2362.73 1527.57 Q2361.95 1529.47 2359.84 1532.07 Q2359.26 1532.74 2356.16 1535.95 Q2353.06 1539.15 2347.41 1544.91 Z" fill="#000000" fill-rule="evenodd" fill-opacity="1" /><polyline clip-path="url(#clip182)" style="stroke:#000000; stroke-linecap:butt; stroke-linejoin:round; stroke-width:2; stroke-opacity:0.1; fill:none" points="
  193.936,1471.05 2352.76,1471.05 
  "/>
<polyline clip-path="url(#clip182)" style="stroke:#000000; stroke-linecap:butt; stroke-linejoin:round; stroke-width:2; stroke-opacity:0.1; fill:none" points="
  193.936,1118.95 2352.76,1118.95 
  "/>
<polyline clip-path="url(#clip182)" style="stroke:#000000; stroke-linecap:butt; stroke-linejoin:round; stroke-width:2; stroke-opacity:0.1; fill:none" points="
  193.936,766.846 2352.76,766.846 
  "/>
<polyline clip-path="url(#clip182)" style="stroke:#000000; stroke-linecap:butt; stroke-linejoin:round; stroke-width:2; stroke-opacity:0.1; fill:none" points="
  193.936,414.745 2352.76,414.745 
  "/>
<polyline clip-path="url(#clip182)" style="stroke:#000000; stroke-linecap:butt; stroke-linejoin:round; stroke-width:2; stroke-opacity:0.1; fill:none" points="
  193.936,62.6444 2352.76,62.6444 
  "/>
<polyline clip-path="url(#clip180)" style="stroke:#000000; stroke-linecap:butt; stroke-linejoin:round; stroke-width:4; stroke-opacity:1; fill:none" points="
  193.936,1486.45 193.936,47.2441 
  "/>
<polyline clip-path="url(#clip180)" style="stroke:#000000; stroke-linecap:butt; stroke-linejoin:round; stroke-width:4; stroke-opacity:1; fill:none" points="
  193.936,1471.05 212.834,1471.05 
  "/>
<polyline clip-path="url(#clip180)" style="stroke:#000000; stroke-linecap:butt; stroke-linejoin:round; stroke-width:4; stroke-opacity:1; fill:none" points="
  193.936,1118.95 212.834,1118.95 
  "/>
<polyline clip-path="url(#clip180)" style="stroke:#000000; stroke-linecap:butt; stroke-linejoin:round; stroke-width:4; stroke-opacity:1; fill:none" points="
  193.936,766.846 212.834,766.846 
  "/>
<polyline clip-path="url(#clip180)" style="stroke:#000000; stroke-linecap:butt; stroke-linejoin:round; stroke-width:4; stroke-opacity:1; fill:none" points="
  193.936,414.745 212.834,414.745 
  "/>
<polyline clip-path="url(#clip180)" style="stroke:#000000; stroke-linecap:butt; stroke-linejoin:round; stroke-width:4; stroke-opacity:1; fill:none" points="
  193.936,62.6444 212.834,62.6444 
  "/>
<path clip-path="url(#clip180)" d="M50.9921 1471.5 L80.6679 1471.5 L80.6679 1475.43 L50.9921 1475.43 L50.9921 1471.5 Z" fill="#000000" fill-rule="evenodd" fill-opacity="1" /><path clip-path="url(#clip180)" d="M91.5706 1484.39 L99.2095 1484.39 L99.2095 1458.03 L90.8993 1459.69 L90.8993 1455.43 L99.1632 1453.77 L103.839 1453.77 L103.839 1484.39 L111.478 1484.39 L111.478 1488.33 L91.5706 1488.33 L91.5706 1484.39 Z" fill="#000000" fill-rule="evenodd" fill-opacity="1" /><path clip-path="url(#clip180)" d="M120.922 1482.45 L125.807 1482.45 L125.807 1488.33 L120.922 1488.33 L120.922 1482.45 Z" fill="#000000" fill-rule="evenodd" fill-opacity="1" /><path clip-path="url(#clip180)" d="M145.992 1456.85 Q142.381 1456.85 140.552 1460.41 Q138.746 1463.95 138.746 1471.08 Q138.746 1478.19 140.552 1481.75 Q142.381 1485.3 145.992 1485.3 Q149.626 1485.3 151.431 1481.75 Q153.26 1478.19 153.26 1471.08 Q153.26 1463.95 151.431 1460.41 Q149.626 1456.85 145.992 1456.85 M145.992 1453.14 Q151.802 1453.14 154.857 1457.75 Q157.936 1462.33 157.936 1471.08 Q157.936 1479.81 154.857 1484.42 Q151.802 1489 145.992 1489 Q140.181 1489 137.103 1484.42 Q134.047 1479.81 134.047 1471.08 Q134.047 1462.33 137.103 1457.75 Q140.181 1453.14 145.992 1453.14 Z" fill="#000000" fill-rule="evenodd" fill-opacity="1" /><path clip-path="url(#clip180)" d="M51.9875 1119.4 L81.6633 1119.4 L81.6633 1123.33 L51.9875 1123.33 L51.9875 1119.4 Z" fill="#000000" fill-rule="evenodd" fill-opacity="1" /><path clip-path="url(#clip180)" d="M101.756 1104.75 Q98.1447 1104.75 96.316 1108.31 Q94.5104 1111.85 94.5104 1118.98 Q94.5104 1126.09 96.316 1129.65 Q98.1447 1133.19 101.756 1133.19 Q105.39 1133.19 107.196 1129.65 Q109.024 1126.09 109.024 1118.98 Q109.024 1111.85 107.196 1108.31 Q105.39 1104.75 101.756 1104.75 M101.756 1101.04 Q107.566 1101.04 110.621 1105.65 Q113.7 1110.23 113.7 1118.98 Q113.7 1127.71 110.621 1132.31 Q107.566 1136.9 101.756 1136.9 Q95.9456 1136.9 92.8669 1132.31 Q89.8114 1127.71 89.8114 1118.98 Q89.8114 1110.23 92.8669 1105.65 Q95.9456 1101.04 101.756 1101.04 Z" fill="#000000" fill-rule="evenodd" fill-opacity="1" /><path clip-path="url(#clip180)" d="M121.918 1130.35 L126.802 1130.35 L126.802 1136.23 L121.918 1136.23 L121.918 1130.35 Z" fill="#000000" fill-rule="evenodd" fill-opacity="1" /><path clip-path="url(#clip180)" d="M137.033 1101.67 L155.39 1101.67 L155.39 1105.6 L141.316 1105.6 L141.316 1114.07 Q142.334 1113.73 143.353 1113.56 Q144.371 1113.38 145.39 1113.38 Q151.177 1113.38 154.556 1116.55 Q157.936 1119.72 157.936 1125.14 Q157.936 1130.72 154.464 1133.82 Q150.992 1136.9 144.672 1136.9 Q142.496 1136.9 140.228 1136.53 Q137.982 1136.16 135.575 1135.42 L135.575 1130.72 Q137.658 1131.85 139.881 1132.41 Q142.103 1132.96 144.58 1132.96 Q148.584 1132.96 150.922 1130.86 Q153.26 1128.75 153.26 1125.14 Q153.26 1121.53 150.922 1119.42 Q148.584 1117.31 144.58 1117.31 Q142.705 1117.31 140.83 1117.73 Q138.978 1118.15 137.033 1119.03 L137.033 1101.67 Z" fill="#000000" fill-rule="evenodd" fill-opacity="1" /><path clip-path="url(#clip180)" d="M100.76 752.645 Q97.1493 752.645 95.3206 756.209 Q93.515 759.751 93.515 766.881 Q93.515 773.987 95.3206 777.552 Q97.1493 781.094 100.76 781.094 Q104.395 781.094 106.2 777.552 Q108.029 773.987 108.029 766.881 Q108.029 759.751 106.2 756.209 Q104.395 752.645 100.76 752.645 M100.76 748.941 Q106.571 748.941 109.626 753.547 Q112.705 758.131 112.705 766.881 Q112.705 775.608 109.626 780.214 Q106.571 784.797 100.76 784.797 Q94.9502 784.797 91.8715 780.214 Q88.816 775.608 88.816 766.881 Q88.816 758.131 91.8715 753.547 Q94.9502 748.941 100.76 748.941 Z" fill="#000000" fill-rule="evenodd" fill-opacity="1" /><path clip-path="url(#clip180)" d="M120.922 778.246 L125.807 778.246 L125.807 784.126 L120.922 784.126 L120.922 778.246 Z" fill="#000000" fill-rule="evenodd" fill-opacity="1" /><path clip-path="url(#clip180)" d="M145.992 752.645 Q142.381 752.645 140.552 756.209 Q138.746 759.751 138.746 766.881 Q138.746 773.987 140.552 777.552 Q142.381 781.094 145.992 781.094 Q149.626 781.094 151.431 777.552 Q153.26 773.987 153.26 766.881 Q153.26 759.751 151.431 756.209 Q149.626 752.645 145.992 752.645 M145.992 748.941 Q151.802 748.941 154.857 753.547 Q157.936 758.131 157.936 766.881 Q157.936 775.608 154.857 780.214 Q151.802 784.797 145.992 784.797 Q140.181 784.797 137.103 780.214 Q134.047 775.608 134.047 766.881 Q134.047 758.131 137.103 753.547 Q140.181 748.941 145.992 748.941 Z" fill="#000000" fill-rule="evenodd" fill-opacity="1" /><path clip-path="url(#clip180)" d="M101.756 400.544 Q98.1447 400.544 96.316 404.109 Q94.5104 407.65 94.5104 414.78 Q94.5104 421.886 96.316 425.451 Q98.1447 428.993 101.756 428.993 Q105.39 428.993 107.196 425.451 Q109.024 421.886 109.024 414.78 Q109.024 407.65 107.196 404.109 Q105.39 400.544 101.756 400.544 M101.756 396.84 Q107.566 396.84 110.621 401.447 Q113.7 406.03 113.7 414.78 Q113.7 423.507 110.621 428.113 Q107.566 432.697 101.756 432.697 Q95.9456 432.697 92.8669 428.113 Q89.8114 423.507 89.8114 414.78 Q89.8114 406.03 92.8669 401.447 Q95.9456 396.84 101.756 396.84 Z" fill="#000000" fill-rule="evenodd" fill-opacity="1" /><path clip-path="url(#clip180)" d="M121.918 426.146 L126.802 426.146 L126.802 432.025 L121.918 432.025 L121.918 426.146 Z" fill="#000000" fill-rule="evenodd" fill-opacity="1" /><path clip-path="url(#clip180)" d="M137.033 397.465 L155.39 397.465 L155.39 401.4 L141.316 401.4 L141.316 409.873 Q142.334 409.525 143.353 409.363 Q144.371 409.178 145.39 409.178 Q151.177 409.178 154.556 412.349 Q157.936 415.521 157.936 420.937 Q157.936 426.516 154.464 429.618 Q150.992 432.697 144.672 432.697 Q142.496 432.697 140.228 432.326 Q137.982 431.956 135.575 431.215 L135.575 426.516 Q137.658 427.65 139.881 428.206 Q142.103 428.761 144.58 428.761 Q148.584 428.761 150.922 426.655 Q153.26 424.548 153.26 420.937 Q153.26 417.326 150.922 415.22 Q148.584 413.113 144.58 413.113 Q142.705 413.113 140.83 413.53 Q138.978 413.947 137.033 414.826 L137.033 397.465 Z" fill="#000000" fill-rule="evenodd" fill-opacity="1" /><path clip-path="url(#clip180)" d="M91.5706 75.9893 L99.2095 75.9893 L99.2095 49.6237 L90.8993 51.2903 L90.8993 47.0311 L99.1632 45.3644 L103.839 45.3644 L103.839 75.9893 L111.478 75.9893 L111.478 79.9244 L91.5706 79.9244 L91.5706 75.9893 Z" fill="#000000" fill-rule="evenodd" fill-opacity="1" /><path clip-path="url(#clip180)" d="M120.922 74.0448 L125.807 74.0448 L125.807 79.9244 L120.922 79.9244 L120.922 74.0448 Z" fill="#000000" fill-rule="evenodd" fill-opacity="1" /><path clip-path="url(#clip180)" d="M145.992 48.4431 Q142.381 48.4431 140.552 52.0079 Q138.746 55.5496 138.746 62.6792 Q138.746 69.7856 140.552 73.3504 Q142.381 76.8921 145.992 76.8921 Q149.626 76.8921 151.431 73.3504 Q153.26 69.7856 153.26 62.6792 Q153.26 55.5496 151.431 52.0079 Q149.626 48.4431 145.992 48.4431 M145.992 44.7394 Q151.802 44.7394 154.857 49.3459 Q157.936 53.9292 157.936 62.6792 Q157.936 71.406 154.857 76.0124 Q151.802 80.5957 145.992 80.5957 Q140.181 80.5957 137.103 76.0124 Q134.047 71.406 134.047 62.6792 Q134.047 53.9292 137.103 49.3459 Q140.181 44.7394 145.992 44.7394 Z" fill="#000000" fill-rule="evenodd" fill-opacity="1" /><circle clip-path="url(#clip182)" cx="1813.05" cy="230.53" r="14.4" fill="#009af9" fill-rule="evenodd" fill-opacity="1" stroke="#000000" stroke-opacity="1" stroke-width="3.2"/>
<circle clip-path="url(#clip182)" cx="834.334" cy="1239.7" r="14.4" fill="#e26f46" fill-rule="evenodd" fill-opacity="1" stroke="#000000" stroke-opacity="1" stroke-width="3.2"/>
<circle clip-path="url(#clip182)" cx="1494.3" cy="493.64" r="14.4" fill="#3da44d" fill-rule="evenodd" fill-opacity="1" stroke="#000000" stroke-opacity="1" stroke-width="3.2"/>
<circle clip-path="url(#clip182)" cx="1247.82" cy="800.133" r="14.4" fill="#c271d2" fill-rule="evenodd" fill-opacity="1" stroke="#000000" stroke-opacity="1" stroke-width="3.2"/>
<circle clip-path="url(#clip182)" cx="1273.38" cy="766.796" r="14.4" fill="#ac8d18" fill-rule="evenodd" fill-opacity="1" stroke="#000000" stroke-opacity="1" stroke-width="3.2"/>
<circle clip-path="url(#clip182)" cx="1273.35" cy="766.846" r="14.4" fill="#00a9ad" fill-rule="evenodd" fill-opacity="1" stroke="#000000" stroke-opacity="1" stroke-width="3.2"/>
<circle clip-path="url(#clip182)" cx="1273.35" cy="766.846" r="14.4" fill="#ed5d92" fill-rule="evenodd" fill-opacity="1" stroke="#000000" stroke-opacity="1" stroke-width="3.2"/>
<circle clip-path="url(#clip182)" cx="1273.35" cy="766.846" r="14.4" fill="#c68125" fill-rule="evenodd" fill-opacity="1" stroke="#000000" stroke-opacity="1" stroke-width="3.2"/>
<circle clip-path="url(#clip182)" cx="1273.35" cy="766.846" r="14.4" fill="#00a98d" fill-rule="evenodd" fill-opacity="1" stroke="#000000" stroke-opacity="1" stroke-width="3.2"/>
<circle clip-path="url(#clip182)" cx="1273.35" cy="766.846" r="14.4" fill="#8e971d" fill-rule="evenodd" fill-opacity="1" stroke="#000000" stroke-opacity="1" stroke-width="3.2"/>
<circle clip-path="url(#clip182)" cx="1273.35" cy="766.846" r="14.4" fill="#00a8cb" fill-rule="evenodd" fill-opacity="1" stroke="#000000" stroke-opacity="1" stroke-width="3.2"/>
<polyline clip-path="url(#clip182)" style="stroke:#9b7fe8; stroke-linecap:butt; stroke-linejoin:round; stroke-width:4; stroke-opacity:1; fill:none" points="
  193.936,1445.72 200.964,1445.06 207.991,1444.39 272.971,1437.3 337.951,1428.39 377.001,1421.98 416.051,1414.65 449.068,1407.64 482.084,1399.8 517.949,1390.26 
  553.814,1379.52 586.879,1368.46 619.943,1356.18 655.392,1341.54 690.84,1325.24 731.911,1304.11 772.981,1280.38 809.48,1256.96 845.979,1231.24 877.985,1206.71 
  909.991,1180.29 944.886,1149.32 979.782,1116.1 1014.88,1080.47 1049.99,1042.71 1088.8,998.677 1127.61,952.513 1164.54,906.928 1201.46,860.088 1278.25,760.443 
  1342.9,676.597 1382.36,626.514 1421.82,577.867 1457.96,534.934 1494.11,493.851 1527.5,457.748 1560.88,423.552 1594.7,390.951 1628.52,360.458 1666.42,328.809 
  1704.32,299.805 1738.67,275.752 1773.01,253.74 1812.33,230.924 1851.66,210.501 1888.06,193.574 1924.47,178.407 1960.37,165.037 1996.26,153.103 2031.11,142.767 
  2065.96,133.548 2101.69,125.146 2137.42,117.699 2176.56,110.518 2215.7,104.245 2272.56,96.5312 2329.43,90.219 2341.09,89.0743 2352.76,87.9763 
  "/>
<path clip-path="url(#clip180)" d="
M1957.11 1438.47 L2280.8 1438.47 L2280.8 764.554 L1957.11 764.554  Z
  " fill="#ffffff" fill-rule="evenodd" fill-opacity="1"/>
<polyline clip-path="url(#clip180)" style="stroke:#000000; stroke-linecap:butt; stroke-linejoin:round; stroke-width:4; stroke-opacity:1; fill:none" points="
  1957.11,1438.47 2280.8,1438.47 2280.8,764.554 1957.11,764.554 1957.11,1438.47 
  "/>
<polyline clip-path="url(#clip180)" style="stroke:#009af9; stroke-linecap:butt; stroke-linejoin:round; stroke-width:4; stroke-opacity:1; fill:none" points="
  1981.09,816.394 2125.02,816.394 
  "/>
<circle clip-path="url(#clip180)" cx="2053.05" cy="816.394" r="23.04" fill="#009af9" fill-rule="evenodd" fill-opacity="1" stroke="#000000" stroke-opacity="1" stroke-width="5.12"/>
<path clip-path="url(#clip180)" d="M2162.84 836.082 Q2161.04 840.711 2159.33 842.123 Q2157.61 843.535 2154.74 843.535 L2151.34 843.535 L2151.34 839.971 L2153.84 839.971 Q2155.6 839.971 2156.57 839.137 Q2157.54 838.304 2158.72 835.202 L2159.49 833.258 L2149 807.749 L2153.52 807.749 L2161.62 828.026 L2169.72 807.749 L2174.23 807.749 L2162.84 836.082 Z" fill="#000000" fill-rule="evenodd" fill-opacity="1" /><path clip-path="url(#clip180)" d="M2181.53 829.739 L2189.16 829.739 L2189.16 803.374 L2180.85 805.04 L2180.85 800.781 L2189.12 799.114 L2193.79 799.114 L2193.79 829.739 L2201.43 829.739 L2201.43 833.674 L2181.53 833.674 L2181.53 829.739 Z" fill="#000000" fill-rule="evenodd" fill-opacity="1" /><polyline clip-path="url(#clip180)" style="stroke:#e26f46; stroke-linecap:butt; stroke-linejoin:round; stroke-width:4; stroke-opacity:1; fill:none" points="
  1981.09,868.234 2125.02,868.234 
  "/>
<circle clip-path="url(#clip180)" cx="2053.05" cy="868.234" r="23.04" fill="#e26f46" fill-rule="evenodd" fill-opacity="1" stroke="#000000" stroke-opacity="1" stroke-width="5.12"/>
<path clip-path="url(#clip180)" d="M2162.84 887.922 Q2161.04 892.551 2159.33 893.963 Q2157.61 895.375 2154.74 895.375 L2151.34 895.375 L2151.34 891.811 L2153.84 891.811 Q2155.6 891.811 2156.57 890.977 Q2157.54 890.144 2158.72 887.042 L2159.49 885.098 L2149 859.589 L2153.52 859.589 L2161.62 879.866 L2169.72 859.589 L2174.23 859.589 L2162.84 887.922 Z" fill="#000000" fill-rule="evenodd" fill-opacity="1" /><path clip-path="url(#clip180)" d="M2184.74 881.579 L2201.06 881.579 L2201.06 885.514 L2179.12 885.514 L2179.12 881.579 Q2181.78 878.825 2186.36 874.195 Q2190.97 869.542 2192.15 868.2 Q2194.4 865.677 2195.28 863.94 Q2196.18 862.181 2196.18 860.491 Q2196.18 857.737 2194.23 856.001 Q2192.31 854.265 2189.21 854.265 Q2187.01 854.265 2184.56 855.028 Q2182.13 855.792 2179.35 857.343 L2179.35 852.621 Q2182.17 851.487 2184.63 850.908 Q2187.08 850.329 2189.12 850.329 Q2194.49 850.329 2197.68 853.015 Q2200.88 855.7 2200.88 860.19 Q2200.88 862.32 2200.07 864.241 Q2199.28 866.14 2197.17 868.732 Q2196.59 869.403 2193.49 872.621 Q2190.39 875.815 2184.74 881.579 Z" fill="#000000" fill-rule="evenodd" fill-opacity="1" /><polyline clip-path="url(#clip180)" style="stroke:#3da44d; stroke-linecap:butt; stroke-linejoin:round; stroke-width:4; stroke-opacity:1; fill:none" points="
  1981.09,920.074 2125.02,920.074 
  "/>
<circle clip-path="url(#clip180)" cx="2053.05" cy="920.074" r="23.04" fill="#3da44d" fill-rule="evenodd" fill-opacity="1" stroke="#000000" stroke-opacity="1" stroke-width="5.12"/>
<path clip-path="url(#clip180)" d="M2162.84 939.762 Q2161.04 944.391 2159.33 945.803 Q2157.61 947.215 2154.74 947.215 L2151.34 947.215 L2151.34 943.651 L2153.84 943.651 Q2155.6 943.651 2156.57 942.817 Q2157.54 941.984 2158.72 938.882 L2159.49 936.938 L2149 911.429 L2153.52 911.429 L2161.62 931.706 L2169.72 911.429 L2174.23 911.429 L2162.84 939.762 Z" fill="#000000" fill-rule="evenodd" fill-opacity="1" /><path clip-path="url(#clip180)" d="M2194.88 918.72 Q2198.24 919.438 2200.11 921.706 Q2202.01 923.975 2202.01 927.308 Q2202.01 932.424 2198.49 935.225 Q2194.97 938.026 2188.49 938.026 Q2186.32 938.026 2184 937.586 Q2181.71 937.169 2179.26 936.313 L2179.26 931.799 Q2181.2 932.933 2183.52 933.512 Q2185.83 934.091 2188.35 934.091 Q2192.75 934.091 2195.04 932.354 Q2197.36 930.618 2197.36 927.308 Q2197.36 924.253 2195.21 922.54 Q2193.08 920.804 2189.26 920.804 L2185.23 920.804 L2185.23 916.961 L2189.44 916.961 Q2192.89 916.961 2194.72 915.595 Q2196.55 914.206 2196.55 911.614 Q2196.55 908.952 2194.65 907.54 Q2192.78 906.105 2189.26 906.105 Q2187.34 906.105 2185.14 906.521 Q2182.94 906.938 2180.3 907.818 L2180.3 903.651 Q2182.96 902.91 2185.28 902.54 Q2187.61 902.169 2189.67 902.169 Q2195 902.169 2198.1 904.6 Q2201.2 907.007 2201.2 911.128 Q2201.2 913.998 2199.56 915.989 Q2197.91 917.956 2194.88 918.72 Z" fill="#000000" fill-rule="evenodd" fill-opacity="1" /><polyline clip-path="url(#clip180)" style="stroke:#c271d2; stroke-linecap:butt; stroke-linejoin:round; stroke-width:4; stroke-opacity:1; fill:none" points="
  1981.09,971.914 2125.02,971.914 
  "/>
<circle clip-path="url(#clip180)" cx="2053.05" cy="971.914" r="23.04" fill="#c271d2" fill-rule="evenodd" fill-opacity="1" stroke="#000000" stroke-opacity="1" stroke-width="5.12"/>
<path clip-path="url(#clip180)" d="M2162.84 991.602 Q2161.04 996.231 2159.33 997.643 Q2157.61 999.055 2154.74 999.055 L2151.34 999.055 L2151.34 995.491 L2153.84 995.491 Q2155.6 995.491 2156.57 994.657 Q2157.54 993.824 2158.72 990.722 L2159.49 988.778 L2149 963.269 L2153.52 963.269 L2161.62 983.546 L2169.72 963.269 L2174.23 963.269 L2162.84 991.602 Z" fill="#000000" fill-rule="evenodd" fill-opacity="1" /><path clip-path="url(#clip180)" d="M2193.56 958.708 L2181.76 977.157 L2193.56 977.157 L2193.56 958.708 M2192.34 954.634 L2198.22 954.634 L2198.22 977.157 L2203.15 977.157 L2203.15 981.046 L2198.22 981.046 L2198.22 989.194 L2193.56 989.194 L2193.56 981.046 L2177.96 981.046 L2177.96 976.532 L2192.34 954.634 Z" fill="#000000" fill-rule="evenodd" fill-opacity="1" /><polyline clip-path="url(#clip180)" style="stroke:#ac8d18; stroke-linecap:butt; stroke-linejoin:round; stroke-width:4; stroke-opacity:1; fill:none" points="
  1981.09,1023.75 2125.02,1023.75 
  "/>
<circle clip-path="url(#clip180)" cx="2053.05" cy="1023.75" r="23.04" fill="#ac8d18" fill-rule="evenodd" fill-opacity="1" stroke="#000000" stroke-opacity="1" stroke-width="5.12"/>
<path clip-path="url(#clip180)" d="M2162.84 1043.44 Q2161.04 1048.07 2159.33 1049.48 Q2157.61 1050.9 2154.74 1050.9 L2151.34 1050.9 L2151.34 1047.33 L2153.84 1047.33 Q2155.6 1047.33 2156.57 1046.5 Q2157.54 1045.66 2158.72 1042.56 L2159.49 1040.62 L2149 1015.11 L2153.52 1015.11 L2161.62 1035.39 L2169.72 1015.11 L2174.23 1015.11 L2162.84 1043.44 Z" fill="#000000" fill-rule="evenodd" fill-opacity="1" /><path clip-path="url(#clip180)" d="M2180.76 1006.47 L2199.12 1006.47 L2199.12 1010.41 L2185.04 1010.41 L2185.04 1018.88 Q2186.06 1018.53 2187.08 1018.37 Q2188.1 1018.19 2189.12 1018.19 Q2194.91 1018.19 2198.28 1021.36 Q2201.66 1024.53 2201.66 1029.95 Q2201.66 1035.53 2198.19 1038.63 Q2194.72 1041.71 2188.4 1041.71 Q2186.22 1041.71 2183.96 1041.34 Q2181.71 1040.96 2179.3 1040.22 L2179.3 1035.53 Q2181.39 1036.66 2183.61 1037.21 Q2185.83 1037.77 2188.31 1037.77 Q2192.31 1037.77 2194.65 1035.66 Q2196.99 1033.56 2196.99 1029.95 Q2196.99 1026.34 2194.65 1024.23 Q2192.31 1022.12 2188.31 1022.12 Q2186.43 1022.12 2184.56 1022.54 Q2182.71 1022.96 2180.76 1023.84 L2180.76 1006.47 Z" fill="#000000" fill-rule="evenodd" fill-opacity="1" /><polyline clip-path="url(#clip180)" style="stroke:#00a9ad; stroke-linecap:butt; stroke-linejoin:round; stroke-width:4; stroke-opacity:1; fill:none" points="
  1981.09,1075.59 2125.02,1075.59 
  "/>
<circle clip-path="url(#clip180)" cx="2053.05" cy="1075.59" r="23.04" fill="#00a9ad" fill-rule="evenodd" fill-opacity="1" stroke="#000000" stroke-opacity="1" stroke-width="5.12"/>
<path clip-path="url(#clip180)" d="M2162.84 1095.28 Q2161.04 1099.91 2159.33 1101.32 Q2157.61 1102.74 2154.74 1102.74 L2151.34 1102.74 L2151.34 1099.17 L2153.84 1099.17 Q2155.6 1099.17 2156.57 1098.34 Q2157.54 1097.5 2158.72 1094.4 L2159.49 1092.46 L2149 1066.95 L2153.52 1066.95 L2161.62 1087.23 L2169.72 1066.95 L2174.23 1066.95 L2162.84 1095.28 Z" fill="#000000" fill-rule="evenodd" fill-opacity="1" /><path clip-path="url(#clip180)" d="M2191.29 1073.73 Q2188.15 1073.73 2186.29 1075.88 Q2184.47 1078.04 2184.47 1081.79 Q2184.47 1085.51 2186.29 1087.69 Q2188.15 1089.84 2191.29 1089.84 Q2194.44 1089.84 2196.27 1087.69 Q2198.12 1085.51 2198.12 1081.79 Q2198.12 1078.04 2196.27 1075.88 Q2194.44 1073.73 2191.29 1073.73 M2200.58 1059.08 L2200.58 1063.34 Q2198.82 1062.5 2197.01 1062.06 Q2195.23 1061.62 2193.47 1061.62 Q2188.84 1061.62 2186.39 1064.75 Q2183.96 1067.87 2183.61 1074.19 Q2184.97 1072.18 2187.03 1071.12 Q2189.09 1070.03 2191.57 1070.03 Q2196.78 1070.03 2199.79 1073.2 Q2202.82 1076.35 2202.82 1081.79 Q2202.82 1087.11 2199.67 1090.33 Q2196.53 1093.55 2191.29 1093.55 Q2185.3 1093.55 2182.13 1088.96 Q2178.96 1084.36 2178.96 1075.63 Q2178.96 1067.43 2182.84 1062.57 Q2186.73 1057.69 2193.28 1057.69 Q2195.04 1057.69 2196.83 1058.04 Q2198.63 1058.38 2200.58 1059.08 Z" fill="#000000" fill-rule="evenodd" fill-opacity="1" /><polyline clip-path="url(#clip180)" style="stroke:#ed5d92; stroke-linecap:butt; stroke-linejoin:round; stroke-width:4; stroke-opacity:1; fill:none" points="
  1981.09,1127.43 2125.02,1127.43 
  "/>
<circle clip-path="url(#clip180)" cx="2053.05" cy="1127.43" r="23.04" fill="#ed5d92" fill-rule="evenodd" fill-opacity="1" stroke="#000000" stroke-opacity="1" stroke-width="5.12"/>
<path clip-path="url(#clip180)" d="M2162.84 1147.12 Q2161.04 1151.75 2159.33 1153.16 Q2157.61 1154.58 2154.74 1154.58 L2151.34 1154.58 L2151.34 1151.01 L2153.84 1151.01 Q2155.6 1151.01 2156.57 1150.18 Q2157.54 1149.34 2158.72 1146.24 L2159.49 1144.3 L2149 1118.79 L2153.52 1118.79 L2161.62 1139.07 L2169.72 1118.79 L2174.23 1118.79 L2162.84 1147.12 Z" fill="#000000" fill-rule="evenodd" fill-opacity="1" /><path clip-path="url(#clip180)" d="M2179.53 1110.15 L2201.76 1110.15 L2201.76 1112.15 L2189.21 1144.71 L2184.33 1144.71 L2196.13 1114.09 L2179.53 1114.09 L2179.53 1110.15 Z" fill="#000000" fill-rule="evenodd" fill-opacity="1" /><polyline clip-path="url(#clip180)" style="stroke:#c68125; stroke-linecap:butt; stroke-linejoin:round; stroke-width:4; stroke-opacity:1; fill:none" points="
  1981.09,1179.27 2125.02,1179.27 
  "/>
<circle clip-path="url(#clip180)" cx="2053.05" cy="1179.27" r="23.04" fill="#c68125" fill-rule="evenodd" fill-opacity="1" stroke="#000000" stroke-opacity="1" stroke-width="5.12"/>
<path clip-path="url(#clip180)" d="M2162.84 1198.96 Q2161.04 1203.59 2159.33 1205 Q2157.61 1206.42 2154.74 1206.42 L2151.34 1206.42 L2151.34 1202.85 L2153.84 1202.85 Q2155.6 1202.85 2156.57 1202.02 Q2157.54 1201.18 2158.72 1198.08 L2159.49 1196.14 L2149 1170.63 L2153.52 1170.63 L2161.62 1190.91 L2169.72 1170.63 L2174.23 1170.63 L2162.84 1198.96 Z" fill="#000000" fill-rule="evenodd" fill-opacity="1" /><path clip-path="url(#clip180)" d="M2190.72 1180.14 Q2187.38 1180.14 2185.46 1181.92 Q2183.56 1183.71 2183.56 1186.83 Q2183.56 1189.96 2185.46 1191.74 Q2187.38 1193.52 2190.72 1193.52 Q2194.05 1193.52 2195.97 1191.74 Q2197.89 1189.93 2197.89 1186.83 Q2197.89 1183.71 2195.97 1181.92 Q2194.07 1180.14 2190.72 1180.14 M2186.04 1178.15 Q2183.03 1177.41 2181.34 1175.35 Q2179.67 1173.29 2179.67 1170.33 Q2179.67 1166.18 2182.61 1163.78 Q2185.58 1161.37 2190.72 1161.37 Q2195.88 1161.37 2198.82 1163.78 Q2201.76 1166.18 2201.76 1170.33 Q2201.76 1173.29 2200.07 1175.35 Q2198.4 1177.41 2195.41 1178.15 Q2198.79 1178.94 2200.67 1181.23 Q2202.57 1183.52 2202.57 1186.83 Q2202.57 1191.86 2199.49 1194.54 Q2196.43 1197.23 2190.72 1197.23 Q2185 1197.23 2181.92 1194.54 Q2178.86 1191.86 2178.86 1186.83 Q2178.86 1183.52 2180.76 1181.23 Q2182.66 1178.94 2186.04 1178.15 M2184.33 1170.77 Q2184.33 1173.45 2185.99 1174.96 Q2187.68 1176.46 2190.72 1176.46 Q2193.72 1176.46 2195.41 1174.96 Q2197.13 1173.45 2197.13 1170.77 Q2197.13 1168.08 2195.41 1166.58 Q2193.72 1165.07 2190.72 1165.07 Q2187.68 1165.07 2185.99 1166.58 Q2184.33 1168.08 2184.33 1170.77 Z" fill="#000000" fill-rule="evenodd" fill-opacity="1" /><polyline clip-path="url(#clip180)" style="stroke:#00a98d; stroke-linecap:butt; stroke-linejoin:round; stroke-width:4; stroke-opacity:1; fill:none" points="
  1981.09,1231.11 2125.02,1231.11 
  "/>
<circle clip-path="url(#clip180)" cx="2053.05" cy="1231.11" r="23.04" fill="#00a98d" fill-rule="evenodd" fill-opacity="1" stroke="#000000" stroke-opacity="1" stroke-width="5.12"/>
<path clip-path="url(#clip180)" d="M2162.84 1250.8 Q2161.04 1255.43 2159.33 1256.84 Q2157.61 1258.26 2154.74 1258.26 L2151.34 1258.26 L2151.34 1254.69 L2153.84 1254.69 Q2155.6 1254.69 2156.57 1253.86 Q2157.54 1253.02 2158.72 1249.92 L2159.49 1247.98 L2149 1222.47 L2153.52 1222.47 L2161.62 1242.75 L2169.72 1222.47 L2174.23 1222.47 L2162.84 1250.8 Z" fill="#000000" fill-rule="evenodd" fill-opacity="1" /><path clip-path="url(#clip180)" d="M2180.85 1247.68 L2180.85 1243.42 Q2182.61 1244.25 2184.42 1244.69 Q2186.22 1245.13 2187.96 1245.13 Q2192.59 1245.13 2195.02 1242.03 Q2197.47 1238.9 2197.82 1232.56 Q2196.48 1234.55 2194.42 1235.62 Q2192.36 1236.68 2189.86 1236.68 Q2184.67 1236.68 2181.64 1233.56 Q2178.63 1230.41 2178.63 1224.97 Q2178.63 1219.64 2181.78 1216.43 Q2184.93 1213.21 2190.16 1213.21 Q2196.15 1213.21 2199.3 1217.82 Q2202.47 1222.4 2202.47 1231.15 Q2202.47 1239.32 2198.59 1244.2 Q2194.72 1249.07 2188.17 1249.07 Q2186.41 1249.07 2184.6 1248.72 Q2182.8 1248.37 2180.85 1247.68 M2190.16 1233.02 Q2193.31 1233.02 2195.14 1230.87 Q2196.99 1228.72 2196.99 1224.97 Q2196.99 1221.24 2195.14 1219.09 Q2193.31 1216.91 2190.16 1216.91 Q2187.01 1216.91 2185.16 1219.09 Q2183.33 1221.24 2183.33 1224.97 Q2183.33 1228.72 2185.16 1230.87 Q2187.01 1233.02 2190.16 1233.02 Z" fill="#000000" fill-rule="evenodd" fill-opacity="1" /><polyline clip-path="url(#clip180)" style="stroke:#8e971d; stroke-linecap:butt; stroke-linejoin:round; stroke-width:4; stroke-opacity:1; fill:none" points="
  1981.09,1282.95 2125.02,1282.95 
  "/>
<circle clip-path="url(#clip180)" cx="2053.05" cy="1282.95" r="23.04" fill="#8e971d" fill-rule="evenodd" fill-opacity="1" stroke="#000000" stroke-opacity="1" stroke-width="5.12"/>
<path clip-path="url(#clip180)" d="M2162.84 1302.64 Q2161.04 1307.27 2159.33 1308.68 Q2157.61 1310.1 2154.74 1310.1 L2151.34 1310.1 L2151.34 1306.53 L2153.84 1306.53 Q2155.6 1306.53 2156.57 1305.7 Q2157.54 1304.86 2158.72 1301.76 L2159.49 1299.82 L2149 1274.31 L2153.52 1274.31 L2161.62 1294.59 L2169.72 1274.31 L2174.23 1274.31 L2162.84 1302.64 Z" fill="#000000" fill-rule="evenodd" fill-opacity="1" /><path clip-path="url(#clip180)" d="M2181.53 1296.3 L2189.16 1296.3 L2189.16 1269.93 L2180.85 1271.6 L2180.85 1267.34 L2189.12 1265.67 L2193.79 1265.67 L2193.79 1296.3 L2201.43 1296.3 L2201.43 1300.23 L2181.53 1300.23 L2181.53 1296.3 Z" fill="#000000" fill-rule="evenodd" fill-opacity="1" /><path clip-path="url(#clip180)" d="M2220.88 1268.75 Q2217.27 1268.75 2215.44 1272.32 Q2213.63 1275.86 2213.63 1282.99 Q2213.63 1290.1 2215.44 1293.66 Q2217.27 1297.2 2220.88 1297.2 Q2224.51 1297.2 2226.32 1293.66 Q2228.15 1290.1 2228.15 1282.99 Q2228.15 1275.86 2226.32 1272.32 Q2224.51 1268.75 2220.88 1268.75 M2220.88 1265.05 Q2226.69 1265.05 2229.74 1269.66 Q2232.82 1274.24 2232.82 1282.99 Q2232.82 1291.72 2229.74 1296.32 Q2226.69 1300.91 2220.88 1300.91 Q2215.07 1300.91 2211.99 1296.32 Q2208.93 1291.72 2208.93 1282.99 Q2208.93 1274.24 2211.99 1269.66 Q2215.07 1265.05 2220.88 1265.05 Z" fill="#000000" fill-rule="evenodd" fill-opacity="1" /><polyline clip-path="url(#clip180)" style="stroke:#00a8cb; stroke-linecap:butt; stroke-linejoin:round; stroke-width:4; stroke-opacity:1; fill:none" points="
  1981.09,1334.79 2125.02,1334.79 
  "/>
<circle clip-path="url(#clip180)" cx="2053.05" cy="1334.79" r="23.04" fill="#00a8cb" fill-rule="evenodd" fill-opacity="1" stroke="#000000" stroke-opacity="1" stroke-width="5.12"/>
<path clip-path="url(#clip180)" d="M2162.84 1354.48 Q2161.04 1359.11 2159.33 1360.52 Q2157.61 1361.94 2154.74 1361.94 L2151.34 1361.94 L2151.34 1358.37 L2153.84 1358.37 Q2155.6 1358.37 2156.57 1357.54 Q2157.54 1356.7 2158.72 1353.6 L2159.49 1351.66 L2149 1326.15 L2153.52 1326.15 L2161.62 1346.43 L2169.72 1326.15 L2174.23 1326.15 L2162.84 1354.48 Z" fill="#000000" fill-rule="evenodd" fill-opacity="1" /><path clip-path="url(#clip180)" d="M2181.53 1348.14 L2189.16 1348.14 L2189.16 1321.77 L2180.85 1323.44 L2180.85 1319.18 L2189.12 1317.51 L2193.79 1317.51 L2193.79 1348.14 L2201.43 1348.14 L2201.43 1352.07 L2181.53 1352.07 L2181.53 1348.14 Z" fill="#000000" fill-rule="evenodd" fill-opacity="1" /><path clip-path="url(#clip180)" d="M2211.69 1348.14 L2219.33 1348.14 L2219.33 1321.77 L2211.02 1323.44 L2211.02 1319.18 L2219.28 1317.51 L2223.96 1317.51 L2223.96 1348.14 L2231.59 1348.14 L2231.59 1352.07 L2211.69 1352.07 L2211.69 1348.14 Z" fill="#000000" fill-rule="evenodd" fill-opacity="1" /><polyline clip-path="url(#clip180)" style="stroke:#9b7fe8; stroke-linecap:butt; stroke-linejoin:round; stroke-width:4; stroke-opacity:1; fill:none" points="
  1981.09,1386.63 2125.02,1386.63 
  "/>
<path clip-path="url(#clip180)" d="M2162.84 1406.32 Q2161.04 1410.95 2159.33 1412.36 Q2157.61 1413.78 2154.74 1413.78 L2151.34 1413.78 L2151.34 1410.21 L2153.84 1410.21 Q2155.6 1410.21 2156.57 1409.38 Q2157.54 1408.54 2158.72 1405.44 L2159.49 1403.5 L2149 1377.99 L2153.52 1377.99 L2161.62 1398.27 L2169.72 1377.99 L2174.23 1377.99 L2162.84 1406.32 Z" fill="#000000" fill-rule="evenodd" fill-opacity="1" /><path clip-path="url(#clip180)" d="M2181.53 1399.98 L2189.16 1399.98 L2189.16 1373.61 L2180.85 1375.28 L2180.85 1371.02 L2189.12 1369.35 L2193.79 1369.35 L2193.79 1399.98 L2201.43 1399.98 L2201.43 1403.91 L2181.53 1403.91 L2181.53 1399.98 Z" fill="#000000" fill-rule="evenodd" fill-opacity="1" /><path clip-path="url(#clip180)" d="M2214.9 1399.98 L2231.22 1399.98 L2231.22 1403.91 L2209.28 1403.91 L2209.28 1399.98 Q2211.94 1397.22 2216.53 1392.6 Q2221.13 1387.94 2222.31 1386.6 Q2224.56 1384.08 2225.44 1382.34 Q2226.34 1380.58 2226.34 1378.89 Q2226.34 1376.14 2224.4 1374.4 Q2222.47 1372.66 2219.37 1372.66 Q2217.17 1372.66 2214.72 1373.43 Q2212.29 1374.19 2209.51 1375.74 L2209.51 1371.02 Q2212.34 1369.89 2214.79 1369.31 Q2217.24 1368.73 2219.28 1368.73 Q2224.65 1368.73 2227.84 1371.41 Q2231.04 1374.1 2231.04 1378.59 Q2231.04 1380.72 2230.23 1382.64 Q2229.44 1384.54 2227.34 1387.13 Q2226.76 1387.8 2223.65 1391.02 Q2220.55 1394.22 2214.9 1399.98 Z" fill="#000000" fill-rule="evenodd" fill-opacity="1" /></svg>
