<?xml version="1.0" encoding="utf-8"?>
<svg xmlns="http://www.w3.org/2000/svg" xmlns:xlink="http://www.w3.org/1999/xlink" width="600" height="400" viewBox="0 0 2400 1600">
<defs>
  <clipPath id="clip210">
    <rect x="0" y="0" width="2400" height="1600"/>
  </clipPath>
</defs>
<path clip-path="url(#clip210)" d="
M0 1600 L2400 1600 L2400 0 L0 0  Z
  " fill="#ffffff" fill-rule="evenodd" fill-opacity="1"/>
<defs>
  <clipPath id="clip211">
    <rect x="480" y="0" width="1681" height="1600"/>
  </clipPath>
</defs>
<path clip-path="url(#clip210)" d="
M193.936 1486.45 L2352.76 1486.45 L2352.76 47.2441 L193.936 47.2441  Z
  " fill="#ffffff" fill-rule="evenodd" fill-opacity="1"/>
<defs>
  <clipPath id="clip212">
    <rect x="193" y="47" width="2160" height="1440"/>
  </clipPath>
</defs>
<polyline clip-path="url(#clip212)" style="stroke:#000000; stroke-linecap:butt; stroke-linejoin:round; stroke-width:2; stroke-opacity:0.1; fill:none" points="
  255.035,1486.45 255.035,47.2441 
  "/>
<polyline clip-path="url(#clip212)" style="stroke:#000000; stroke-linecap:butt; stroke-linejoin:round; stroke-width:2; stroke-opacity:0.1; fill:none" points="
  764.19,1486.45 764.19,47.2441 
  "/>
<polyline clip-path="url(#clip212)" style="stroke:#000000; stroke-linecap:butt; stroke-linejoin:round; stroke-width:2; stroke-opacity:0.1; fill:none" points="
  1273.35,1486.45 1273.35,47.2441 
  "/>
<polyline clip-path="url(#clip212)" style="stroke:#000000; stroke-linecap:butt; stroke-linejoin:round; stroke-width:2; stroke-opacity:0.1; fill:none" points="
  1782.5,1486.45 1782.5,47.2441 
  "/>
<polyline clip-path="url(#clip212)" style="stroke:#000000; stroke-linecap:butt; stroke-linejoin:round; stroke-width:2; stroke-opacity:0.1; fill:none" points="
  2291.66,1486.45 2291.66,47.2441 
  "/>
<polyline clip-path="url(#clip210)" style="stroke:#000000; stroke-linecap:butt; stroke-linejoin:round; stroke-width:4; stroke-opacity:1; fill:none" points="
  193.936,1486.45 2352.76,1486.45 
  "/>
<polyline clip-path="url(#clip210)" style="stroke:#000000; stroke-linecap:butt; stroke-linejoin:round; stroke-width:4; stroke-opacity:1; fill:none" points="
  255.035,1486.45 255.035,1467.55 
  "/>
<polyline clip-path="url(#clip210)" style="stroke:#000000; stroke-linecap:butt; stroke-linejoin:round; stroke-width:4; stroke-opacity:1; fill:none" points="
  764.19,1486.45 764.19,1467.55 
  "/>
<polyline clip-path="url(#clip210)" style="stroke:#000000; stroke-linecap:butt; stroke-linejoin:round; stroke-width:4; stroke-opacity:1; fill:none" points="
  1273.35,1486.45 1273.35,1467.55 
  "/>
<polyline clip-path="url(#clip210)" style="stroke:#000000; stroke-linecap:butt; stroke-linejoin:round; stroke-width:4; stroke-opacity:1; fill:none" points="
  1782.5,1486.45 1782.5,1467.55 
  "/>
<polyline clip-path="url(#clip210)" style="stroke:#000000; stroke-linecap:butt; stroke-linejoin:round; stroke-width:4; stroke-opacity:1; fill:none" points="
  2291.66,1486.45 2291.66,1467.55 
  "/>
<path clip-path="url(#clip210)" d="M201.563 1532.02 L231.239 1532.02 L231.239 1535.95 L201.563 1535.95 L201.563 1532.02 Z" fill="#000000" fill-rule="evenodd" fill-opacity="1" /><path clip-path="url(#clip210)" d="M242.141 1544.91 L249.78 1544.91 L249.78 1518.55 L241.47 1520.21 L241.47 1515.95 L249.734 1514.29 L254.41 1514.29 L254.41 1544.91 L262.049 1544.91 L262.049 1548.85 L242.141 1548.85 L242.141 1544.91 Z" fill="#000000" fill-rule="evenodd" fill-opacity="1" /><path clip-path="url(#clip210)" d="M271.493 1542.97 L276.377 1542.97 L276.377 1548.85 L271.493 1548.85 L271.493 1542.97 Z" fill="#000000" fill-rule="evenodd" fill-opacity="1" /><path clip-path="url(#clip210)" d="M296.562 1517.37 Q292.951 1517.37 291.122 1520.93 Q289.317 1524.47 289.317 1531.6 Q289.317 1538.71 291.122 1542.27 Q292.951 1545.82 296.562 1545.82 Q300.196 1545.82 302.002 1542.27 Q303.831 1538.71 303.831 1531.6 Q303.831 1524.47 302.002 1520.93 Q300.196 1517.37 296.562 1517.37 M296.562 1513.66 Q302.372 1513.66 305.428 1518.27 Q308.507 1522.85 308.507 1531.6 Q308.507 1540.33 305.428 1544.94 Q302.372 1549.52 296.562 1549.52 Q290.752 1549.52 287.673 1544.94 Q284.618 1540.33 284.618 1531.6 Q284.618 1522.85 287.673 1518.27 Q290.752 1513.66 296.562 1513.66 Z" fill="#000000" fill-rule="evenodd" fill-opacity="1" /><path clip-path="url(#clip210)" d="M711.216 1532.02 L740.892 1532.02 L740.892 1535.95 L711.216 1535.95 L711.216 1532.02 Z" fill="#000000" fill-rule="evenodd" fill-opacity="1" /><path clip-path="url(#clip210)" d="M760.984 1517.37 Q757.373 1517.37 755.545 1520.93 Q753.739 1524.47 753.739 1531.6 Q753.739 1538.71 755.545 1542.27 Q757.373 1545.82 760.984 1545.82 Q764.619 1545.82 766.424 1542.27 Q768.253 1538.71 768.253 1531.6 Q768.253 1524.47 766.424 1520.93 Q764.619 1517.37 760.984 1517.37 M760.984 1513.66 Q766.794 1513.66 769.85 1518.27 Q772.929 1522.85 772.929 1531.6 Q772.929 1540.33 769.85 1544.94 Q766.794 1549.52 760.984 1549.52 Q755.174 1549.52 752.095 1544.94 Q749.04 1540.33 749.04 1531.6 Q749.04 1522.85 752.095 1518.27 Q755.174 1513.66 760.984 1513.66 Z" fill="#000000" fill-rule="evenodd" fill-opacity="1" /><path clip-path="url(#clip210)" d="M781.146 1542.97 L786.03 1542.97 L786.03 1548.85 L781.146 1548.85 L781.146 1542.97 Z" fill="#000000" fill-rule="evenodd" fill-opacity="1" /><path clip-path="url(#clip210)" d="M796.262 1514.29 L814.618 1514.29 L814.618 1518.22 L800.544 1518.22 L800.544 1526.7 Q801.563 1526.35 802.581 1526.19 Q803.6 1526 804.618 1526 Q810.405 1526 813.785 1529.17 Q817.165 1532.34 817.165 1537.76 Q817.165 1543.34 813.692 1546.44 Q810.22 1549.52 803.901 1549.52 Q801.725 1549.52 799.456 1549.15 Q797.211 1548.78 794.804 1548.04 L794.804 1543.34 Q796.887 1544.47 799.109 1545.03 Q801.331 1545.58 803.808 1545.58 Q807.813 1545.58 810.151 1543.48 Q812.489 1541.37 812.489 1537.76 Q812.489 1534.15 810.151 1532.04 Q807.813 1529.94 803.808 1529.94 Q801.933 1529.94 800.058 1530.35 Q798.206 1530.77 796.262 1531.65 L796.262 1514.29 Z" fill="#000000" fill-rule="evenodd" fill-opacity="1" /><path clip-path="url(#clip210)" d="M1250.73 1517.37 Q1247.12 1517.37 1245.29 1520.93 Q1243.49 1524.47 1243.49 1531.6 Q1243.49 1538.71 1245.29 1542.27 Q1247.12 1545.82 1250.73 1545.82 Q1254.36 1545.82 1256.17 1542.27 Q1258 1538.71 1258 1531.6 Q1258 1524.47 1256.17 1520.93 Q1254.36 1517.37 1250.73 1517.37 M1250.73 1513.66 Q1256.54 1513.66 1259.6 1518.27 Q1262.67 1522.85 1262.67 1531.6 Q1262.67 1540.33 1259.6 1544.94 Q1256.54 1549.52 1250.73 1549.52 Q1244.92 1549.52 1241.84 1544.94 Q1238.79 1540.33 1238.79 1531.6 Q1238.79 1522.85 1241.84 1518.27 Q1244.92 1513.66 1250.73 1513.66 Z" fill="#000000" fill-rule="evenodd" fill-opacity="1" /><path clip-path="url(#clip210)" d="M1270.89 1542.97 L1275.78 1542.97 L1275.78 1548.85 L1270.89 1548.85 L1270.89 1542.97 Z" fill="#000000" fill-rule="evenodd" fill-opacity="1" /><path clip-path="url(#clip210)" d="M1295.96 1517.37 Q1292.35 1517.37 1290.52 1520.93 Q1288.72 1524.47 1288.72 1531.6 Q1288.72 1538.71 1290.52 1542.27 Q1292.35 1545.82 1295.96 1545.82 Q1299.6 1545.82 1301.4 1542.27 Q1303.23 1538.71 1303.23 1531.6 Q1303.23 1524.47 1301.4 1520.93 Q1299.6 1517.37 1295.96 1517.37 M1295.96 1513.66 Q1301.77 1513.66 1304.83 1518.27 Q1307.91 1522.85 1307.91 1531.6 Q1307.91 1540.33 1304.83 1544.94 Q1301.77 1549.52 1295.96 1549.52 Q1290.15 1549.52 1287.07 1544.94 Q1284.02 1540.33 1284.02 1531.6 Q1284.02 1522.85 1287.07 1518.27 Q1290.15 1513.66 1295.96 1513.66 Z" fill="#000000" fill-rule="evenodd" fill-opacity="1" /><path clip-path="url(#clip210)" d="M1760.38 1517.37 Q1756.77 1517.37 1754.94 1520.93 Q1753.14 1524.47 1753.14 1531.6 Q1753.14 1538.71 1754.94 1542.27 Q1756.77 1545.82 1760.38 1545.82 Q1764.02 1545.82 1765.82 1542.27 Q1767.65 1538.71 1767.65 1531.6 Q1767.65 1524.47 1765.82 1520.93 Q1764.02 1517.37 1760.38 1517.37 M1760.38 1513.66 Q1766.19 1513.66 1769.25 1518.27 Q1772.33 1522.85 1772.33 1531.6 Q1772.33 1540.33 1769.25 1544.94 Q1766.19 1549.52 1760.38 1549.52 Q1754.57 1549.52 1751.49 1544.94 Q1748.44 1540.33 1748.44 1531.6 Q1748.44 1522.85 1751.49 1518.27 Q1754.57 1513.66 1760.38 1513.66 Z" fill="#000000" fill-rule="evenodd" fill-opacity="1" /><path clip-path="url(#clip210)" d="M1780.55 1542.97 L1785.43 1542.97 L1785.43 1548.85 L1780.55 1548.85 L1780.55 1542.97 Z" fill="#000000" fill-rule="evenodd" fill-opacity="1" /><path clip-path="url(#clip210)" d="M1795.66 1514.29 L1814.02 1514.29 L1814.02 1518.22 L1799.94 1518.22 L1799.94 1526.7 Q1800.96 1526.35 1801.98 1526.19 Q1803 1526 1804.02 1526 Q1809.8 1526 1813.18 1529.17 Q1816.56 1532.34 1816.56 1537.76 Q1816.56 1543.34 1813.09 1546.44 Q1809.62 1549.52 1803.3 1549.52 Q1801.12 1549.52 1798.86 1549.15 Q1796.61 1548.78 1794.2 1548.04 L1794.2 1543.34 Q1796.29 1544.47 1798.51 1545.03 Q1800.73 1545.58 1803.21 1545.58 Q1807.21 1545.58 1809.55 1543.48 Q1811.89 1541.37 1811.89 1537.76 Q1811.89 1534.15 1809.55 1532.04 Q1807.21 1529.94 1803.21 1529.94 Q1801.33 1529.94 1799.46 1530.35 Q1797.61 1530.77 1795.66 1531.65 L1795.66 1514.29 Z" fill="#000000" fill-rule="evenodd" fill-opacity="1" /><path clip-path="url(#clip210)" d="M2258.81 1544.91 L2266.45 1544.91 L2266.45 1518.55 L2258.14 1520.21 L2258.14 1515.95 L2266.4 1514.29 L2271.08 1514.29 L2271.08 1544.91 L2278.72 1544.91 L2278.72 1548.85 L2258.81 1548.85 L2258.81 1544.91 Z" fill="#000000" fill-rule="evenodd" fill-opacity="1" /><path clip-path="url(#clip210)" d="M2288.16 1542.97 L2293.05 1542.97 L2293.05 1548.85 L2288.16 1548.85 L2288.16 1542.97 Z" fill="#000000" fill-rule="evenodd" fill-opacity="1" /><path clip-path="url(#clip210)" d="M2313.23 1517.37 Q2309.62 1517.37 2307.79 1520.93 Q2305.99 1524.47 2305.99 1531.6 Q2305.99 1538.71 2307.79 1542.27 Q2309.62 1545.82 2313.23 1545.82 Q2316.87 1545.82 2318.67 1542.27 Q2320.5 1538.71 2320.5 1531.6 Q2320.5 1524.47 2318.67 1520.93 Q2316.87 1517.37 2313.23 1517.37 M2313.23 1513.66 Q2319.04 1513.66 2322.1 1518.27 Q2325.18 1522.85 2325.18 1531.6 Q2325.18 1540.33 2322.1 1544.94 Q2319.04 1549.52 2313.23 1549.52 Q2307.42 1549.52 2304.34 1544.94 Q2301.29 1540.33 2301.29 1531.6 Q2301.29 1522.85 2304.34 1518.27 Q2307.42 1513.66 2313.23 1513.66 Z" fill="#000000" fill-rule="evenodd" fill-opacity="1" /><polyline clip-path="url(#clip212)" style="stroke:#000000; stroke-linecap:butt; stroke-linejoin:round; stroke-width:2; stroke-opacity:0.1; fill:none" points="
  193.936,1471.05 2352.76,1471.05 
  "/>
<polyline clip-path="url(#clip212)" style="stroke:#000000; stroke-linecap:butt; stroke-linejoin:round; stroke-width:2; stroke-opacity:0.1; fill:none" points="
  193.936,1118.95 2352.76,1118.95 
  "/>
<polyline clip-path="url(#clip212)" style="stroke:#000000; stroke-linecap:butt; stroke-linejoin:round; stroke-width:2; stroke-opacity:0.1; fill:none" points="
  193.936,766.846 2352.76,766.846 
  "/>
<polyline clip-path="url(#clip212)" style="stroke:#000000; stroke-linecap:butt; stroke-linejoin:round; stroke-width:2; stroke-opacity:0.1; fill:none" points="
  193.936,414.745 2352.76,414.745 
  "/>
<polyline clip-path="url(#clip212)" style="stroke:#000000; stroke-linecap:butt; stroke-linejoin:round; stroke-width:2; stroke-opacity:0.1; fill:none" points="
  193.936,62.6444 2352.76,62.6444 
  "/>
<polyline clip-path="url(#clip210)" style="stroke:#000000; stroke-linecap:butt; stroke-linejoin:round; stroke-width:4; stroke-opacity:1; fill:none" points="
  193.936,1486.45 193.936,47.2441 
  "/>
<polyline clip-path="url(#clip210)" style="stroke:#000000; stroke-linecap:butt; stroke-linejoin:round; stroke-width:4; stroke-opacity:1; fill:none" points="
  193.936,1471.05 212.834,1471.05 
  "/>
<polyline clip-path="url(#clip210)" style="stroke:#000000; stroke-linecap:butt; stroke-linejoin:round; stroke-width:4; stroke-opacity:1; fill:none" points="
  193.936,1118.95 212.834,1118.95 
  "/>
<polyline clip-path="url(#clip210)" style="stroke:#000000; stroke-linecap:butt; stroke-linejoin:round; stroke-width:4; stroke-opacity:1; fill:none" points="
  193.936,766.846 212.834,766.846 
  "/>
<polyline clip-path="url(#clip210)" style="stroke:#000000; stroke-linecap:butt; stroke-linejoin:round; stroke-width:4; stroke-opacity:1; fill:none" points="
  193.936,414.745 212.834,414.745 
  "/>
<polyline clip-path="url(#clip210)" style="stroke:#000000; stroke-linecap:butt; stroke-linejoin:round; stroke-width:4; stroke-opacity:1; fill:none" points="
  193.936,62.6444 212.834,62.6444 
  "/>
<path clip-path="url(#clip210)" d="M50.9921 1471.5 L80.6679 1471.5 L80.6679 1475.43 L50.9921 1475.43 L50.9921 1471.5 Z" fill="#000000" fill-rule="evenodd" fill-opacity="1" /><path clip-path="url(#clip210)" d="M91.5706 1484.39 L99.2095 1484.39 L99.2095 1458.03 L90.8993 1459.69 L90.8993 1455.43 L99.1632 1453.77 L103.839 1453.77 L103.839 1484.39 L111.478 1484.39 L111.478 1488.33 L91.5706 1488.33 L91.5706 1484.39 Z" fill="#000000" fill-rule="evenodd" fill-opacity="1" /><path clip-path="url(#clip210)" d="M120.922 1482.45 L125.807 1482.45 L125.807 1488.33 L120.922 1488.33 L120.922 1482.45 Z" fill="#000000" fill-rule="evenodd" fill-opacity="1" /><path clip-path="url(#clip210)" d="M145.992 1456.85 Q142.381 1456.85 140.552 1460.41 Q138.746 1463.95 138.746 1471.08 Q138.746 1478.19 140.552 1481.75 Q142.381 1485.3 145.992 1485.3 Q149.626 1485.3 151.431 1481.75 Q153.26 1478.19 153.26 1471.08 Q153.26 1463.95 151.431 1460.41 Q149.626 1456.85 145.992 1456.85 M145.992 1453.14 Q151.802 1453.14 154.857 1457.75 Q157.936 1462.33 157.936 1471.08 Q157.936 1479.81 154.857 1484.42 Q151.802 1489 145.992 1489 Q140.181 1489 137.103 1484.42 Q134.047 1479.81 134.047 1471.08 Q134.047 1462.33 137.103 1457.75 Q140.181 1453.14 145.992 1453.14 Z" fill="#000000" fill-rule="evenodd" fill-opacity="1" /><path clip-path="url(#clip210)" d="M51.9875 1119.4 L81.6633 1119.4 L81.6633 1123.33 L51.9875 1123.33 L51.9875 1119.4 Z" fill="#000000" fill-rule="evenodd" fill-opacity="1" /><path clip-path="url(#clip210)" d="M101.756 1104.75 Q98.1447 1104.75 96.316 1108.31 Q94.5104 1111.85 94.5104 1118.98 Q94.5104 1126.09 96.316 1129.65 Q98.1447 1133.19 101.756 1133.19 Q105.39 1133.19 107.196 1129.65 Q109.024 1126.09 109.024 1118.98 Q109.024 1111.85 107.196 1108.31 Q105.39 1104.75 101.756 1104.75 M101.756 1101.04 Q107.566 1101.04 110.621 1105.65 Q113.7 1110.23 113.7 1118.98 Q113.7 1127.71 110.621 1132.31 Q107.566 1136.9 101.756 1136.9 Q95.9456 1136.9 92.8669 1132.31 Q89.8114 1127.71 89.8114 1118.98 Q89.8114 1110.23 92.8669 1105.65 Q95.9456 1101.04 101.756 1101.04 Z" fill="#000000" fill-rule="evenodd" fill-opacity="1" /><path clip-path="url(#clip210)" d="M121.918 1130.35 L126.802 1130.35 L126.802 1136.23 L121.918 1136.23 L121.918 1130.35 Z" fill="#000000" fill-rule="evenodd" fill-opacity="1" /><path clip-path="url(#clip210)" d="M137.033 1101.67 L155.39 1101.67 L155.39 1105.6 L141.316 1105.6 L141.316 1114.07 Q142.334 1113.73 143.353 1113.56 Q144.371 1113.38 145.39 1113.38 Q151.177 1113.38 154.556 1116.55 Q157.936 1119.72 157.936 1125.14 Q157.936 1130.72 154.464 1133.82 Q150.992 1136.9 144.672 1136.9 Q142.496 1136.9 140.228 1136.53 Q137.982 1136.16 135.575 1135.42 L135.575 1130.72 Q137.658 1131.85 139.881 1132.41 Q142.103 1132.96 144.58 1132.96 Q148.584 1132.96 150.922 1130.86 Q153.26 1128.75 153.26 1125.14 Q153.26 1121.53 150.922 1119.42 Q148.584 1117.31 144.58 1117.31 Q142.705 1117.31 140.83 1117.73 Q138.978 1118.15 137.033 1119.03 L137.033 1101.67 Z" fill="#000000" fill-rule="evenodd" fill-opacity="1" /><path clip-path="url(#clip210)" d="M100.76 752.645 Q97.1493 752.645 95.3206 756.209 Q93.515 759.751 93.515 766.881 Q93.515 773.987 95.3206 777.552 Q97.1493 781.094 100.76 781.094 Q104.395 781.094 106.2 777.552 Q108.029 773.987 108.029 766.881 Q108.029 759.751 106.2 756.209 Q104.395 752.645 100.76 752.645 M100.76 748.941 Q106.571 748.941 109.626 753.547 Q112.705 758.131 112.705 766.881 Q112.705 775.608 109.626 780.214 Q106.571 784.797 100.76 784.797 Q94.9502 784.797 91.8715 780.214 Q88.816 775.608 88.816 766.881 Q88.816 758.131 91.8715 753.547 Q94.9502 748.941 100.76 748.941 Z" fill="#000000" fill-rule="evenodd" fill-opacity="1" /><path clip-path="url(#clip210)" d="M120.922 778.246 L125.807 778.246 L125.807 784.126 L120.922 784.126 L120.922 778.246 Z" fill="#000000" fill-rule="evenodd" fill-opacity="1" /><path clip-path="url(#clip210)" d="M145.992 752.645 Q142.381 752.645 140.552 756.209 Q138.746 759.751 138.746 766.881 Q138.746 773.987 140.552 777.552 Q142.381 781.094 145.992 781.094 Q149.626 781.094 151.431 777.552 Q153.26 773.987 153.26 766.881 Q153.26 759.751 151.431 756.209 Q149.626 752.645 145.992 752.645 M145.992 748.941 Q151.802 748.941 154.857 753.547 Q157.936 758.131 157.936 766.881 Q157.936 775.608 154.857 780.214 Q151.802 784.797 145.992 784.797 Q140.181 784.797 137.103 780.214 Q134.047 775.608 134.047 766.881 Q134.047 758.131 137.103 753.547 Q140.181 748.941 145.992 748.941 Z" fill="#000000" fill-rule="evenodd" fill-opacity="1" /><path clip-path="url(#clip210)" d="M101.756 400.544 Q98.1447 400.544 96.316 404.109 Q94.5104 407.65 94.5104 414.78 Q94.5104 421.886 96.316 425.451 Q98.1447 428.993 101.756 428.993 Q105.39 428.993 107.196 425.451 Q109.024 421.886 109.024 414.78 Q109.024 407.65 107.196 404.109 Q105.39 400.544 101.756 400.544 M101.756 396.84 Q107.566 396.84 110.621 401.447 Q113.7 406.03 113.7 414.78 Q113.7 423.507 110.621 428.113 Q107.566 432.697 101.756 432.697 Q95.9456 432.697 92.8669 428.113 Q89.8114 423.507 89.8114 414.78 Q89.8114 406.03 92.8669 401.447 Q95.9456 396.84 101.756 396.84 Z" fill="#000000" fill-rule="evenodd" fill-opacity="1" /><path clip-path="url(#clip210)" d="M121.918 426.146 L126.802 426.146 L126.802 432.025 L121.918 432.025 L121.918 426.146 Z" fill="#000000" fill-rule="evenodd" fill-opacity="1" /><path clip-path="url(#clip210)" d="M137.033 397.465 L155.39 397.465 L155.39 401.4 L141.316 401.4 L141.316 409.873 Q142.334 409.525 143.353 409.363 Q144.371 409.178 145.39 409.178 Q151.177 409.178 154.556 412.349 Q157.936 415.521 157.936 420.937 Q157.936 426.516 154.464 429.618 Q150.992 432.697 144.672 432.697 Q142.496 432.697 140.228 432.326 Q137.982 431.956 135.575 431.215 L135.575 426.516 Q137.658 427.65 139.881 428.206 Q142.103 428.761 144.58 428.761 Q148.584 428.761 150.922 426.655 Q153.26 424.548 153.26 420.937 Q153.26 417.326 150.922 415.22 Q148.584 413.113 144.58 413.113 Q142.705 413.113 140.83 413.53 Q138.978 413.947 137.033 414.826 L137.033 397.465 Z" fill="#000000" fill-rule="evenodd" fill-opacity="1" /><path clip-path="url(#clip210)" d="M91.5706 75.9893 L99.2095 75.9893 L99.2095 49.6237 L90.8993 51.2903 L90.8993 47.0311 L99.1632 45.3644 L103.839 45.3644 L103.839 75.9893 L111.478 75.9893 L111.478 79.9244 L91.5706 79.9244 L91.5706 75.9893 Z" fill="#000000" fill-rule="evenodd" fill-opacity="1" /><path clip-path="url(#clip210)" d="M120.922 74.0448 L125.807 74.0448 L125.807 79.9244 L120.922 79.9244 L120.922 74.0448 Z" fill="#000000" fill-rule="evenodd" fill-opacity="1" /><path clip-path="url(#clip210)" d="M145.992 48.4431 Q142.381 48.4431 140.552 52.0079 Q138.746 55.5496 138.746 62.6792 Q138.746 69.7856 140.552 73.3504 Q142.381 76.8921 145.992 76.8921 Q149.626 76.8921 151.431 73.3504 Q153.26 69.7856 153.26 62.6792 Q153.26 55.5496 151.431 52.0079 Q149.626 48.4431 145.992 48.4431 M145.992 44.7394 Q151.802 44.7394 154.857 49.3459 Q157.936 53.9292 157.936 62.6792 Q157.936 71.406 154.857 76.0124 Q151.802 80.5957 145.992 80.5957 Q140.181 80.5957 137.103 76.0124 Q134.047 71.406 134.047 62.6792 Q134.047 53.9292 137.103 49.3459 Q140.181 44.7394 145.992 44.7394 Z" fill="#000000" fill-rule="evenodd" fill-opacity="1" /><polyline clip-path="url(#clip212)" style="stroke:#009af9; stroke-linecap:butt; stroke-linejoin:round; stroke-width:12; stroke-opacity:1; fill:none" points="
  255.035,1445.72 304.874,1440.59 449.515,1418.34 674.798,1350.12 958.67,1155.94 1273.35,770.375 1588.02,384.811 1871.89,190.628 2097.18,122.405 2241.82,100.159 
  2291.66,95.0341 
  "/>
<circle clip-path="url(#clip212)" cx="255.035" cy="1445.72" r="14.4" fill="#009af9" fill-rule="evenodd" fill-opacity="1" stroke="#000000" stroke-opacity="1" stroke-width="3.2"/>
<circle clip-path="url(#clip212)" cx="304.874" cy="1440.59" r="14.4" fill="#009af9" fill-rule="evenodd" fill-opacity="1" stroke="#000000" stroke-opacity="1" stroke-width="3.2"/>
<circle clip-path="url(#clip212)" cx="449.515" cy="1418.34" r="14.4" fill="#009af9" fill-rule="evenodd" fill-opacity="1" stroke="#000000" stroke-opacity="1" stroke-width="3.2"/>
<circle clip-path="url(#clip212)" cx="674.798" cy="1350.12" r="14.4" fill="#009af9" fill-rule="evenodd" fill-opacity="1" stroke="#000000" stroke-opacity="1" stroke-width="3.2"/>
<circle clip-path="url(#clip212)" cx="958.67" cy="1155.94" r="14.4" fill="#009af9" fill-rule="evenodd" fill-opacity="1" stroke="#000000" stroke-opacity="1" stroke-width="3.2"/>
<circle clip-path="url(#clip212)" cx="1273.35" cy="770.375" r="14.4" fill="#009af9" fill-rule="evenodd" fill-opacity="1" stroke="#000000" stroke-opacity="1" stroke-width="3.2"/>
<circle clip-path="url(#clip212)" cx="1588.02" cy="384.811" r="14.4" fill="#009af9" fill-rule="evenodd" fill-opacity="1" stroke="#000000" stroke-opacity="1" stroke-width="3.2"/>
<circle clip-path="url(#clip212)" cx="1871.89" cy="190.628" r="14.4" fill="#009af9" fill-rule="evenodd" fill-opacity="1" stroke="#000000" stroke-opacity="1" stroke-width="3.2"/>
<circle clip-path="url(#clip212)" cx="2097.18" cy="122.405" r="14.4" fill="#009af9" fill-rule="evenodd" fill-opacity="1" stroke="#000000" stroke-opacity="1" stroke-width="3.2"/>
<circle clip-path="url(#clip212)" cx="2241.82" cy="100.159" r="14.4" fill="#009af9" fill-rule="evenodd" fill-opacity="1" stroke="#000000" stroke-opacity="1" stroke-width="3.2"/>
<circle clip-path="url(#clip212)" cx="2291.66" cy="95.0341" r="14.4" fill="#009af9" fill-rule="evenodd" fill-opacity="1" stroke="#000000" stroke-opacity="1" stroke-width="3.2"/>
<polyline clip-path="url(#clip212)" style="stroke:#e26f46; stroke-linecap:butt; stroke-linejoin:round; stroke-width:12; stroke-opacity:1; fill:none" points="
  255.035,1445.72 261.664,1445.06 268.294,1444.39 329.596,1437.3 390.898,1428.39 427.737,1421.98 464.577,1414.65 495.725,1407.64 526.872,1399.8 560.707,1390.26 
  594.542,1379.52 625.735,1368.46 656.928,1356.18 690.37,1341.54 723.812,1325.24 762.558,1304.11 801.304,1280.38 835.737,1256.96 870.17,1231.24 900.364,1206.71 
  930.558,1180.29 963.478,1149.32 996.398,1116.1 1029.51,1080.47 1062.63,1042.71 1099.24,998.677 1135.86,952.513 1170.69,906.928 1205.53,860.088 1277.98,760.443 
  1338.96,676.597 1376.19,626.514 1413.41,577.867 1447.51,534.934 1481.62,493.851 1513.11,457.748 1544.61,423.552 1576.51,390.951 1608.42,360.458 1644.17,328.809 
  1679.93,299.805 1712.33,275.752 1744.73,253.74 1781.83,230.924 1818.92,210.501 1853.27,193.574 1887.62,178.407 1921.48,165.037 1955.34,153.103 1988.22,142.767 
  2021.1,133.548 2054.8,125.146 2088.51,117.699 2125.44,110.518 2162.36,104.245 2216,96.5312 2269.65,90.219 2280.65,89.0743 2291.66,87.9763 
  "/>
<path clip-path="url(#clip210)" d="
M1988.5 1438.47 L2280.8 1438.47 L2280.8 1282.95 L1988.5 1282.95  Z
  " fill="#ffffff" fill-rule="evenodd" fill-opacity="1"/>
<polyline clip-path="url(#clip210)" style="stroke:#000000; stroke-linecap:butt; stroke-linejoin:round; stroke-width:4; stroke-opacity:1; fill:none" points="
  1988.5,1438.47 2280.8,1438.47 2280.8,1282.95 1988.5,1282.95 1988.5,1438.47 
  "/>
<polyline clip-path="url(#clip210)" style="stroke:#009af9; stroke-linecap:butt; stroke-linejoin:round; stroke-width:4; stroke-opacity:1; fill:none" points="
  2012.48,1334.79 2156.4,1334.79 
  "/>
<circle clip-path="url(#clip210)" cx="2084.44" cy="1334.79" r="23.04" fill="#009af9" fill-rule="evenodd" fill-opacity="1" stroke="#000000" stroke-opacity="1" stroke-width="5.12"/>
<path clip-path="url(#clip210)" d="M2194.23 1354.48 Q2192.43 1359.11 2190.72 1360.52 Q2189 1361.94 2186.13 1361.94 L2182.73 1361.94 L2182.73 1358.37 L2185.23 1358.37 Q2186.99 1358.37 2187.96 1357.54 Q2188.93 1356.7 2190.11 1353.6 L2190.88 1351.66 L2180.39 1326.15 L2184.91 1326.15 L2193.01 1346.43 L2201.11 1326.15 L2205.62 1326.15 L2194.23 1354.48 Z" fill="#000000" fill-rule="evenodd" fill-opacity="1" /><path clip-path="url(#clip210)" d="M2212.91 1348.14 L2220.55 1348.14 L2220.55 1321.77 L2212.24 1323.44 L2212.24 1319.18 L2220.51 1317.51 L2225.18 1317.51 L2225.18 1348.14 L2232.82 1348.14 L2232.82 1352.07 L2212.91 1352.07 L2212.91 1348.14 Z" fill="#000000" fill-rule="evenodd" fill-opacity="1" /><polyline clip-path="url(#clip210)" style="stroke:#e26f46; stroke-linecap:butt; stroke-linejoin:round; stroke-width:4; stroke-opacity:1; fill:none" points="
  2012.48,1386.63 2156.4,1386.63 
  "/>
<path clip-path="url(#clip210)" d="M2194.23 1406.32 Q2192.43 1410.95 2190.72 1412.36 Q2189 1413.78 2186.13 1413.78 L2182.73 1413.78 L2182.73 1410.21 L2185.23 1410.21 Q2186.99 1410.21 2187.96 1409.38 Q2188.93 1408.54 2190.11 1405.44 L2190.88 1403.5 L2180.39 1377.99 L2184.91 1377.99 L2193.01 1398.27 L2201.11 1377.99 L2205.62 1377.99 L2194.23 1406.32 Z" fill="#000000" fill-rule="evenodd" fill-opacity="1" /><path clip-path="url(#clip210)" d="M2216.13 1399.98 L2232.45 1399.98 L2232.45 1403.91 L2210.51 1403.91 L2210.51 1399.98 Q2213.17 1397.22 2217.75 1392.6 Q2222.36 1387.94 2223.54 1386.6 Q2225.78 1384.08 2226.66 1382.34 Q2227.57 1380.58 2227.57 1378.89 Q2227.57 1376.14 2225.62 1374.4 Q2223.7 1372.66 2220.6 1372.66 Q2218.4 1372.66 2215.95 1373.43 Q2213.52 1374.19 2210.74 1375.74 L2210.74 1371.02 Q2213.56 1369.89 2216.02 1369.31 Q2218.47 1368.73 2220.51 1368.73 Q2225.88 1368.73 2229.07 1371.41 Q2232.27 1374.1 2232.27 1378.59 Q2232.27 1380.72 2231.46 1382.64 Q2230.67 1384.54 2228.56 1387.13 Q2227.98 1387.8 2224.88 1391.02 Q2221.78 1394.22 2216.13 1399.98 Z" fill="#000000" fill-rule="evenodd" fill-opacity="1" /></svg>
