<?xml version="1.0" encoding="utf-8"?>
<svg xmlns="http://www.w3.org/2000/svg" xmlns:xlink="http://www.w3.org/1999/xlink" width="600" height="400" viewBox="0 0 2400 1600">
<defs>
  <clipPath id="clip940">
    <rect x="0" y="0" width="2400" height="1600"/>
  </clipPath>
</defs>
<path clip-path="url(#clip940)" d="
M0 1600 L2400 1600 L2400 0 L0 0  Z
  " fill="#ffffff" fill-rule="evenodd" fill-opacity="1"/>
<defs>
  <clipPath id="clip941">
    <rect x="480" y="0" width="1681" height="1600"/>
  </clipPath>
</defs>
<path clip-path="url(#clip940)" d="
M193.936 1486.45 L2352.76 1486.45 L2352.76 47.2441 L193.936 47.2441  Z
  " fill="#ffffff" fill-rule="evenodd" fill-opacity="1"/>
<defs>
  <clipPath id="clip942">
    <rect x="193" y="47" width="2160" height="1440"/>
  </clipPath>
</defs>
<polyline clip-path="url(#clip942)" style="stroke:#000000; stroke-linecap:butt; stroke-linejoin:round; stroke-width:2; stroke-opacity:0.1; fill:none" points="
  255.035,1486.45 255.035,47.2441 
  "/>
<polyline clip-path="url(#clip942)" style="stroke:#000000; stroke-linecap:butt; stroke-linejoin:round; stroke-width:2; stroke-opacity:0.1; fill:none" points="
  594.472,1486.45 594.472,47.2441 
  "/>
<polyline clip-path="url(#clip942)" style="stroke:#000000; stroke-linecap:butt; stroke-linejoin:round; stroke-width:2; stroke-opacity:0.1; fill:none" points="
  933.909,1486.45 933.909,47.2441 
  "/>
<polyline clip-path="url(#clip942)" style="stroke:#000000; stroke-linecap:butt; stroke-linejoin:round; stroke-width:2; stroke-opacity:0.1; fill:none" points="
  1273.35,1486.45 1273.35,47.2441 
  "/>
<polyline clip-path="url(#clip942)" style="stroke:#000000; stroke-linecap:butt; stroke-linejoin:round; stroke-width:2; stroke-opacity:0.1; fill:none" points="
  1612.78,1486.45 1612.78,47.2441 
  "/>
<polyline clip-path="url(#clip942)" style="stroke:#000000; stroke-linecap:butt; stroke-linejoin:round; stroke-width:2; stroke-opacity:0.1; fill:none" points="
  1952.22,1486.45 1952.22,47.2441 
  "/>
<polyline clip-path="url(#clip942)" style="stroke:#000000; stroke-linecap:butt; stroke-linejoin:round; stroke-width:2; stroke-opacity:0.1; fill:none" points="
  2291.66,1486.45 2291.66,47.2441 
  "/>
<polyline clip-path="url(#clip940)" style="stroke:#000000; stroke-linecap:butt; stroke-linejoin:round; stroke-width:4; stroke-opacity:1; fill:none" points="
  193.936,1486.45 2352.76,1486.45 
  "/>
<polyline clip-path="url(#clip940)" style="stroke:#000000; stroke-linecap:butt; stroke-linejoin:round; stroke-width:4; stroke-opacity:1; fill:none" points="
  255.035,1486.45 255.035,1467.55 
  "/>
<polyline clip-path="url(#clip940)" style="stroke:#000000; stroke-linecap:butt; stroke-linejoin:round; stroke-width:4; stroke-opacity:1; fill:none" points="
  594.472,1486.45 594.472,1467.55 
  "/>
<polyline clip-path="url(#clip940)" style="stroke:#000000; stroke-linecap:butt; stroke-linejoin:round; stroke-width:4; stroke-opacity:1; fill:none" points="
  933.909,1486.45 933.909,1467.55 
  "/>
<polyline clip-path="url(#clip940)" style="stroke:#000000; stroke-linecap:butt; stroke-linejoin:round; stroke-width:4; stroke-opacity:1; fill:none" points="
  1273.35,1486.45 1273.35,1467.55 
  "/>
<polyline clip-path="url(#clip940)" style="stroke:#000000; stroke-linecap:butt; stroke-linejoin:round; stroke-width:4; stroke-opacity:1; fill:none" points="
  1612.78,1486.45 1612.78,1467.55 
  "/>
<polyline clip-path="url(#clip940)" style="stroke:#000000; stroke-linecap:butt; stroke-linejoin:round; stroke-width:4; stroke-opacity:1; fill:none" points="
  1952.22,1486.45 1952.22,1467.55 
  "/>
<polyline clip-path="url(#clip940)" style="stroke:#000000; stroke-linecap:butt; stroke-linejoin:round; stroke-width:4; stroke-opacity:1; fill:none" points="
  2291.66,1486.45 2291.66,1467.55 
  "/>
<path clip-path="url(#clip940)" d="M255.035 1517.37 Q251.424 1517.37 249.595 1520.93 Q247.789 1524.47 247.789 1531.6 Q247.789 1538.71 249.595 1542.27 Q251.424 1545.82 255.035 1545.82 Q258.669 1545.82 260.474 1542.27 Q262.303 1538.71 262.303 1531.6 Q262.303 1524.47 260.474 1520.93 Q258.669 1517.37 255.035 1517.37 M255.035 1513.66 Q260.845 1513.66 263.9 1518.27 Q266.979 1522.85 266.979 1531.6 Q266.979 1540.33 263.9 1544.94 Q260.845 1549.52 255.035 1549.52 Q249.225 1549.52 246.146 1544.94 Q243.09 1540.33 243.09 1531.6 Q243.09 1522.85 246.146 1518.27 Q249.225 1513.66 255.035 1513.66 Z" fill="#000000" fill-rule="evenodd" fill-opacity="1" /><path clip-path="url(#clip940)" d="M584.854 1544.91 L592.493 1544.91 L592.493 1518.55 L584.182 1520.21 L584.182 1515.95 L592.446 1514.29 L597.122 1514.29 L597.122 1544.91 L604.761 1544.91 L604.761 1548.85 L584.854 1548.85 L584.854 1544.91 Z" fill="#000000" fill-rule="evenodd" fill-opacity="1" /><path clip-path="url(#clip940)" d="M928.562 1544.91 L944.881 1544.91 L944.881 1548.85 L922.937 1548.85 L922.937 1544.91 Q925.599 1542.16 930.182 1537.53 Q934.788 1532.88 935.969 1531.53 Q938.214 1529.01 939.094 1527.27 Q939.997 1525.51 939.997 1523.82 Q939.997 1521.07 938.052 1519.33 Q936.131 1517.6 933.029 1517.6 Q930.83 1517.6 928.376 1518.36 Q925.946 1519.13 923.168 1520.68 L923.168 1515.95 Q925.992 1514.82 928.446 1514.24 Q930.9 1513.66 932.937 1513.66 Q938.307 1513.66 941.501 1516.35 Q944.696 1519.03 944.696 1523.52 Q944.696 1525.65 943.886 1527.57 Q943.099 1529.47 940.992 1532.07 Q940.413 1532.74 937.312 1535.95 Q934.21 1539.15 928.562 1544.91 Z" fill="#000000" fill-rule="evenodd" fill-opacity="1" /><path clip-path="url(#clip940)" d="M1277.59 1530.21 Q1280.95 1530.93 1282.83 1533.2 Q1284.72 1535.47 1284.72 1538.8 Q1284.72 1543.92 1281.2 1546.72 Q1277.69 1549.52 1271.2 1549.52 Q1269.03 1549.52 1266.71 1549.08 Q1264.42 1548.66 1261.97 1547.81 L1261.97 1543.29 Q1263.91 1544.43 1266.23 1545.01 Q1268.54 1545.58 1271.07 1545.58 Q1275.46 1545.58 1277.76 1543.85 Q1280.07 1542.11 1280.07 1538.8 Q1280.07 1535.75 1277.92 1534.03 Q1275.79 1532.3 1271.97 1532.3 L1267.94 1532.3 L1267.94 1528.45 L1272.15 1528.45 Q1275.6 1528.45 1277.43 1527.09 Q1279.26 1525.7 1279.26 1523.11 Q1279.26 1520.45 1277.36 1519.03 Q1275.49 1517.6 1271.97 1517.6 Q1270.05 1517.6 1267.85 1518.01 Q1265.65 1518.43 1263.01 1519.31 L1263.01 1515.14 Q1265.67 1514.4 1267.99 1514.03 Q1270.33 1513.66 1272.39 1513.66 Q1277.71 1513.66 1280.81 1516.09 Q1283.91 1518.5 1283.91 1522.62 Q1283.91 1525.49 1282.27 1527.48 Q1280.63 1529.45 1277.59 1530.21 Z" fill="#000000" fill-rule="evenodd" fill-opacity="1" /><path clip-path="url(#clip940)" d="M1615.79 1518.36 L1603.99 1536.81 L1615.79 1536.81 L1615.79 1518.36 M1614.57 1514.29 L1620.45 1514.29 L1620.45 1536.81 L1625.38 1536.81 L1625.38 1540.7 L1620.45 1540.7 L1620.45 1548.85 L1615.79 1548.85 L1615.79 1540.7 L1600.19 1540.7 L1600.19 1536.19 L1614.57 1514.29 Z" fill="#000000" fill-rule="evenodd" fill-opacity="1" /><path clip-path="url(#clip940)" d="M1942.5 1514.29 L1960.85 1514.29 L1960.85 1518.22 L1946.78 1518.22 L1946.78 1526.7 Q1947.8 1526.35 1948.82 1526.19 Q1949.84 1526 1950.85 1526 Q1956.64 1526 1960.02 1529.17 Q1963.4 1532.34 1963.4 1537.76 Q1963.4 1543.34 1959.93 1546.44 Q1956.46 1549.52 1950.14 1549.52 Q1947.96 1549.52 1945.69 1549.15 Q1943.45 1548.78 1941.04 1548.04 L1941.04 1543.34 Q1943.12 1544.47 1945.35 1545.03 Q1947.57 1545.58 1950.04 1545.58 Q1954.05 1545.58 1956.39 1543.48 Q1958.72 1541.37 1958.72 1537.76 Q1958.72 1534.15 1956.39 1532.04 Q1954.05 1529.94 1950.04 1529.94 Q1948.17 1529.94 1946.29 1530.35 Q1944.44 1530.77 1942.5 1531.65 L1942.5 1514.29 Z" fill="#000000" fill-rule="evenodd" fill-opacity="1" /><path clip-path="url(#clip940)" d="M2292.06 1529.7 Q2288.91 1529.7 2287.06 1531.86 Q2285.23 1534.01 2285.23 1537.76 Q2285.23 1541.49 2287.06 1543.66 Q2288.91 1545.82 2292.06 1545.82 Q2295.21 1545.82 2297.04 1543.66 Q2298.89 1541.49 2298.89 1537.76 Q2298.89 1534.01 2297.04 1531.86 Q2295.21 1529.7 2292.06 1529.7 M2301.34 1515.05 L2301.34 1519.31 Q2299.59 1518.48 2297.78 1518.04 Q2296 1517.6 2294.24 1517.6 Q2289.61 1517.6 2287.15 1520.72 Q2284.72 1523.85 2284.38 1530.17 Q2285.74 1528.15 2287.8 1527.09 Q2289.86 1526 2292.34 1526 Q2297.55 1526 2300.56 1529.17 Q2303.59 1532.32 2303.59 1537.76 Q2303.59 1543.08 2300.44 1546.3 Q2297.29 1549.52 2292.06 1549.52 Q2286.07 1549.52 2282.9 1544.94 Q2279.72 1540.33 2279.72 1531.6 Q2279.72 1523.41 2283.61 1518.55 Q2287.5 1513.66 2294.05 1513.66 Q2295.81 1513.66 2297.59 1514.01 Q2299.4 1514.36 2301.34 1515.05 Z" fill="#000000" fill-rule="evenodd" fill-opacity="1" /><polyline clip-path="url(#clip942)" style="stroke:#000000; stroke-linecap:butt; stroke-linejoin:round; stroke-width:2; stroke-opacity:0.1; fill:none" points="
  193.936,1445.72 2352.76,1445.72 
  "/>
<polyline clip-path="url(#clip942)" style="stroke:#000000; stroke-linecap:butt; stroke-linejoin:round; stroke-width:2; stroke-opacity:0.1; fill:none" points="
  193.936,1106.28 2352.76,1106.28 
  "/>
<polyline clip-path="url(#clip942)" style="stroke:#000000; stroke-linecap:butt; stroke-linejoin:round; stroke-width:2; stroke-opacity:0.1; fill:none" points="
  193.936,766.849 2352.76,766.849 
  "/>
<polyline clip-path="url(#clip942)" style="stroke:#000000; stroke-linecap:butt; stroke-linejoin:round; stroke-width:2; stroke-opacity:0.1; fill:none" points="
  193.936,427.412 2352.76,427.412 
  "/>
<polyline clip-path="url(#clip942)" style="stroke:#000000; stroke-linecap:butt; stroke-linejoin:round; stroke-width:2; stroke-opacity:0.1; fill:none" points="
  193.936,87.9763 2352.76,87.9763 
  "/>
<polyline clip-path="url(#clip940)" style="stroke:#000000; stroke-linecap:butt; stroke-linejoin:round; stroke-width:4; stroke-opacity:1; fill:none" points="
  193.936,1486.45 193.936,47.2441 
  "/>
<polyline clip-path="url(#clip940)" style="stroke:#000000; stroke-linecap:butt; stroke-linejoin:round; stroke-width:4; stroke-opacity:1; fill:none" points="
  193.936,1445.72 212.834,1445.72 
  "/>
<polyline clip-path="url(#clip940)" style="stroke:#000000; stroke-linecap:butt; stroke-linejoin:round; stroke-width:4; stroke-opacity:1; fill:none" points="
  193.936,1106.28 212.834,1106.28 
  "/>
<polyline clip-path="url(#clip940)" style="stroke:#000000; stroke-linecap:butt; stroke-linejoin:round; stroke-width:4; stroke-opacity:1; fill:none" points="
  193.936,766.849 212.834,766.849 
  "/>
<polyline clip-path="url(#clip940)" style="stroke:#000000; stroke-linecap:butt; stroke-linejoin:round; stroke-width:4; stroke-opacity:1; fill:none" points="
  193.936,427.412 212.834,427.412 
  "/>
<polyline clip-path="url(#clip940)" style="stroke:#000000; stroke-linecap:butt; stroke-linejoin:round; stroke-width:4; stroke-opacity:1; fill:none" points="
  193.936,87.9763 212.834,87.9763 
  "/>
<path clip-path="url(#clip940)" d="M50.9921 1446.17 L80.6679 1446.17 L80.6679 1450.11 L50.9921 1450.11 L50.9921 1446.17 Z" fill="#000000" fill-rule="evenodd" fill-opacity="1" /><path clip-path="url(#clip940)" d="M91.5706 1459.07 L99.2095 1459.07 L99.2095 1432.7 L90.8993 1434.37 L90.8993 1430.11 L99.1632 1428.44 L103.839 1428.44 L103.839 1459.07 L111.478 1459.07 L111.478 1463 L91.5706 1463 L91.5706 1459.07 Z" fill="#000000" fill-rule="evenodd" fill-opacity="1" /><path clip-path="url(#clip940)" d="M120.922 1457.12 L125.807 1457.12 L125.807 1463 L120.922 1463 L120.922 1457.12 Z" fill="#000000" fill-rule="evenodd" fill-opacity="1" /><path clip-path="url(#clip940)" d="M145.992 1431.52 Q142.381 1431.52 140.552 1435.08 Q138.746 1438.63 138.746 1445.76 Q138.746 1452.86 140.552 1456.43 Q142.381 1459.97 145.992 1459.97 Q149.626 1459.97 151.431 1456.43 Q153.26 1452.86 153.26 1445.76 Q153.26 1438.63 151.431 1435.08 Q149.626 1431.52 145.992 1431.52 M145.992 1427.82 Q151.802 1427.82 154.857 1432.42 Q157.936 1437.01 157.936 1445.76 Q157.936 1454.48 154.857 1459.09 Q151.802 1463.67 145.992 1463.67 Q140.181 1463.67 137.103 1459.09 Q134.047 1454.48 134.047 1445.76 Q134.047 1437.01 137.103 1432.42 Q140.181 1427.82 145.992 1427.82 Z" fill="#000000" fill-rule="evenodd" fill-opacity="1" /><path clip-path="url(#clip940)" d="M51.9875 1106.74 L81.6633 1106.74 L81.6633 1110.67 L51.9875 1110.67 L51.9875 1106.74 Z" fill="#000000" fill-rule="evenodd" fill-opacity="1" /><path clip-path="url(#clip940)" d="M101.756 1092.08 Q98.1447 1092.08 96.316 1095.65 Q94.5104 1099.19 94.5104 1106.32 Q94.5104 1113.43 96.316 1116.99 Q98.1447 1120.53 101.756 1120.53 Q105.39 1120.53 107.196 1116.99 Q109.024 1113.43 109.024 1106.32 Q109.024 1099.19 107.196 1095.65 Q105.39 1092.08 101.756 1092.08 M101.756 1088.38 Q107.566 1088.38 110.621 1092.99 Q113.7 1097.57 113.7 1106.32 Q113.7 1115.05 110.621 1119.65 Q107.566 1124.24 101.756 1124.24 Q95.9456 1124.24 92.8669 1119.65 Q89.8114 1115.05 89.8114 1106.32 Q89.8114 1097.57 92.8669 1092.99 Q95.9456 1088.38 101.756 1088.38 Z" fill="#000000" fill-rule="evenodd" fill-opacity="1" /><path clip-path="url(#clip940)" d="M121.918 1117.69 L126.802 1117.69 L126.802 1123.56 L121.918 1123.56 L121.918 1117.69 Z" fill="#000000" fill-rule="evenodd" fill-opacity="1" /><path clip-path="url(#clip940)" d="M137.033 1089 L155.39 1089 L155.39 1092.94 L141.316 1092.94 L141.316 1101.41 Q142.334 1101.06 143.353 1100.9 Q144.371 1100.72 145.39 1100.72 Q151.177 1100.72 154.556 1103.89 Q157.936 1107.06 157.936 1112.48 Q157.936 1118.06 154.464 1121.16 Q150.992 1124.24 144.672 1124.24 Q142.496 1124.24 140.228 1123.87 Q137.982 1123.5 135.575 1122.75 L135.575 1118.06 Q137.658 1119.19 139.881 1119.75 Q142.103 1120.3 144.58 1120.3 Q148.584 1120.3 150.922 1118.19 Q153.26 1116.09 153.26 1112.48 Q153.26 1108.87 150.922 1106.76 Q148.584 1104.65 144.58 1104.65 Q142.705 1104.65 140.83 1105.07 Q138.978 1105.49 137.033 1106.37 L137.033 1089 Z" fill="#000000" fill-rule="evenodd" fill-opacity="1" /><path clip-path="url(#clip940)" d="M100.76 752.647 Q97.1493 752.647 95.3206 756.212 Q93.515 759.754 93.515 766.883 Q93.515 773.99 95.3206 777.555 Q97.1493 781.096 100.76 781.096 Q104.395 781.096 106.2 777.555 Q108.029 773.99 108.029 766.883 Q108.029 759.754 106.2 756.212 Q104.395 752.647 100.76 752.647 M100.76 748.944 Q106.571 748.944 109.626 753.55 Q112.705 758.133 112.705 766.883 Q112.705 775.61 109.626 780.217 Q106.571 784.8 100.76 784.8 Q94.9502 784.8 91.8715 780.217 Q88.816 775.61 88.816 766.883 Q88.816 758.133 91.8715 753.55 Q94.9502 748.944 100.76 748.944 Z" fill="#000000" fill-rule="evenodd" fill-opacity="1" /><path clip-path="url(#clip940)" d="M120.922 778.249 L125.807 778.249 L125.807 784.129 L120.922 784.129 L120.922 778.249 Z" fill="#000000" fill-rule="evenodd" fill-opacity="1" /><path clip-path="url(#clip940)" d="M145.992 752.647 Q142.381 752.647 140.552 756.212 Q138.746 759.754 138.746 766.883 Q138.746 773.99 140.552 777.555 Q142.381 781.096 145.992 781.096 Q149.626 781.096 151.431 777.555 Q153.26 773.99 153.26 766.883 Q153.26 759.754 151.431 756.212 Q149.626 752.647 145.992 752.647 M145.992 748.944 Q151.802 748.944 154.857 753.55 Q157.936 758.133 157.936 766.883 Q157.936 775.61 154.857 780.217 Q151.802 784.8 145.992 784.8 Q140.181 784.8 137.103 780.217 Q134.047 775.61 134.047 766.883 Q134.047 758.133 137.103 753.55 Q140.181 748.944 145.992 748.944 Z" fill="#000000" fill-rule="evenodd" fill-opacity="1" /><path clip-path="url(#clip940)" d="M101.756 413.211 Q98.1447 413.211 96.316 416.776 Q94.5104 420.318 94.5104 427.447 Q94.5104 434.554 96.316 438.118 Q98.1447 441.66 101.756 441.66 Q105.39 441.66 107.196 438.118 Q109.024 434.554 109.024 427.447 Q109.024 420.318 107.196 416.776 Q105.39 413.211 101.756 413.211 M101.756 409.507 Q107.566 409.507 110.621 414.114 Q113.7 418.697 113.7 427.447 Q113.7 436.174 110.621 440.78 Q107.566 445.364 101.756 445.364 Q95.9456 445.364 92.8669 440.78 Q89.8114 436.174 89.8114 427.447 Q89.8114 418.697 92.8669 414.114 Q95.9456 409.507 101.756 409.507 Z" fill="#000000" fill-rule="evenodd" fill-opacity="1" /><path clip-path="url(#clip940)" d="M121.918 438.813 L126.802 438.813 L126.802 444.692 L121.918 444.692 L121.918 438.813 Z" fill="#000000" fill-rule="evenodd" fill-opacity="1" /><path clip-path="url(#clip940)" d="M137.033 410.132 L155.39 410.132 L155.39 414.068 L141.316 414.068 L141.316 422.54 Q142.334 422.193 143.353 422.031 Q144.371 421.845 145.39 421.845 Q151.177 421.845 154.556 425.017 Q157.936 428.188 157.936 433.605 Q157.936 439.183 154.464 442.285 Q150.992 445.364 144.672 445.364 Q142.496 445.364 140.228 444.993 Q137.982 444.623 135.575 443.882 L135.575 439.183 Q137.658 440.317 139.881 440.873 Q142.103 441.429 144.58 441.429 Q148.584 441.429 150.922 439.322 Q153.26 437.216 153.26 433.605 Q153.26 429.993 150.922 427.887 Q148.584 425.78 144.58 425.78 Q142.705 425.78 140.83 426.197 Q138.978 426.614 137.033 427.493 L137.033 410.132 Z" fill="#000000" fill-rule="evenodd" fill-opacity="1" /><path clip-path="url(#clip940)" d="M91.5706 101.321 L99.2095 101.321 L99.2095 74.9555 L90.8993 76.6222 L90.8993 72.3629 L99.1632 70.6963 L103.839 70.6963 L103.839 101.321 L111.478 101.321 L111.478 105.256 L91.5706 105.256 L91.5706 101.321 Z" fill="#000000" fill-rule="evenodd" fill-opacity="1" /><path clip-path="url(#clip940)" d="M120.922 99.3767 L125.807 99.3767 L125.807 105.256 L120.922 105.256 L120.922 99.3767 Z" fill="#000000" fill-rule="evenodd" fill-opacity="1" /><path clip-path="url(#clip940)" d="M145.992 73.775 Q142.381 73.775 140.552 77.3398 Q138.746 80.8814 138.746 88.011 Q138.746 95.1174 140.552 98.6822 Q142.381 102.224 145.992 102.224 Q149.626 102.224 151.431 98.6822 Q153.26 95.1174 153.26 88.011 Q153.26 80.8814 151.431 77.3398 Q149.626 73.775 145.992 73.775 M145.992 70.0713 Q151.802 70.0713 154.857 74.6777 Q157.936 79.261 157.936 88.011 Q157.936 96.7378 154.857 101.344 Q151.802 105.928 145.992 105.928 Q140.181 105.928 137.103 101.344 Q134.047 96.7378 134.047 88.011 Q134.047 79.261 137.103 74.6777 Q140.181 70.0713 145.992 70.0713 Z" fill="#000000" fill-rule="evenodd" fill-opacity="1" /><polyline clip-path="url(#clip942)" style="stroke:#009af9; stroke-linecap:butt; stroke-linejoin:round; stroke-width:12; stroke-opacity:1; fill:none" points="
  255.035,87.9763 662.359,518.11 1069.68,1240.36 1477.01,1354.12 1884.33,739.791 2291.66,179.724 2291.66,179.724 
  "/>
<line clip-path="url(#clip942)" x1="255.035" y1="87.9763" x2="255.035" y2="71.9763" style="stroke:#009af9; stroke-width:3.2; stroke-opacity:1"/>
<line clip-path="url(#clip942)" x1="255.035" y1="87.9763" x2="239.035" y2="87.9763" style="stroke:#009af9; stroke-width:3.2; stroke-opacity:1"/>
<line clip-path="url(#clip942)" x1="255.035" y1="87.9763" x2="255.035" y2="103.976" style="stroke:#009af9; stroke-width:3.2; stroke-opacity:1"/>
<line clip-path="url(#clip942)" x1="255.035" y1="87.9763" x2="271.035" y2="87.9763" style="stroke:#009af9; stroke-width:3.2; stroke-opacity:1"/>
<line clip-path="url(#clip942)" x1="662.359" y1="518.11" x2="662.359" y2="502.11" style="stroke:#009af9; stroke-width:3.2; stroke-opacity:1"/>
<line clip-path="url(#clip942)" x1="662.359" y1="518.11" x2="646.359" y2="518.11" style="stroke:#009af9; stroke-width:3.2; stroke-opacity:1"/>
<line clip-path="url(#clip942)" x1="662.359" y1="518.11" x2="662.359" y2="534.11" style="stroke:#009af9; stroke-width:3.2; stroke-opacity:1"/>
<line clip-path="url(#clip942)" x1="662.359" y1="518.11" x2="678.359" y2="518.11" style="stroke:#009af9; stroke-width:3.2; stroke-opacity:1"/>
<line clip-path="url(#clip942)" x1="1069.68" y1="1240.36" x2="1069.68" y2="1224.36" style="stroke:#009af9; stroke-width:3.2; stroke-opacity:1"/>
<line clip-path="url(#clip942)" x1="1069.68" y1="1240.36" x2="1053.68" y2="1240.36" style="stroke:#009af9; stroke-width:3.2; stroke-opacity:1"/>
<line clip-path="url(#clip942)" x1="1069.68" y1="1240.36" x2="1069.68" y2="1256.36" style="stroke:#009af9; stroke-width:3.2; stroke-opacity:1"/>
<line clip-path="url(#clip942)" x1="1069.68" y1="1240.36" x2="1085.68" y2="1240.36" style="stroke:#009af9; stroke-width:3.2; stroke-opacity:1"/>
<line clip-path="url(#clip942)" x1="1477.01" y1="1354.12" x2="1477.01" y2="1338.12" style="stroke:#009af9; stroke-width:3.2; stroke-opacity:1"/>
<line clip-path="url(#clip942)" x1="1477.01" y1="1354.12" x2="1461.01" y2="1354.12" style="stroke:#009af9; stroke-width:3.2; stroke-opacity:1"/>
<line clip-path="url(#clip942)" x1="1477.01" y1="1354.12" x2="1477.01" y2="1370.12" style="stroke:#009af9; stroke-width:3.2; stroke-opacity:1"/>
<line clip-path="url(#clip942)" x1="1477.01" y1="1354.12" x2="1493.01" y2="1354.12" style="stroke:#009af9; stroke-width:3.2; stroke-opacity:1"/>
<line clip-path="url(#clip942)" x1="1884.33" y1="739.791" x2="1884.33" y2="723.791" style="stroke:#009af9; stroke-width:3.2; stroke-opacity:1"/>
<line clip-path="url(#clip942)" x1="1884.33" y1="739.791" x2="1868.33" y2="739.791" style="stroke:#009af9; stroke-width:3.2; stroke-opacity:1"/>
<line clip-path="url(#clip942)" x1="1884.33" y1="739.791" x2="1884.33" y2="755.791" style="stroke:#009af9; stroke-width:3.2; stroke-opacity:1"/>
<line clip-path="url(#clip942)" x1="1884.33" y1="739.791" x2="1900.33" y2="739.791" style="stroke:#009af9; stroke-width:3.2; stroke-opacity:1"/>
<line clip-path="url(#clip942)" x1="2291.66" y1="179.724" x2="2291.66" y2="163.724" style="stroke:#009af9; stroke-width:3.2; stroke-opacity:1"/>
<line clip-path="url(#clip942)" x1="2291.66" y1="179.724" x2="2275.66" y2="179.724" style="stroke:#009af9; stroke-width:3.2; stroke-opacity:1"/>
<line clip-path="url(#clip942)" x1="2291.66" y1="179.724" x2="2291.66" y2="195.724" style="stroke:#009af9; stroke-width:3.2; stroke-opacity:1"/>
<line clip-path="url(#clip942)" x1="2291.66" y1="179.724" x2="2307.66" y2="179.724" style="stroke:#009af9; stroke-width:3.2; stroke-opacity:1"/>
<line clip-path="url(#clip942)" x1="2291.66" y1="179.724" x2="2291.66" y2="163.724" style="stroke:#009af9; stroke-width:3.2; stroke-opacity:1"/>
<line clip-path="url(#clip942)" x1="2291.66" y1="179.724" x2="2275.66" y2="179.724" style="stroke:#009af9; stroke-width:3.2; stroke-opacity:1"/>
<line clip-path="url(#clip942)" x1="2291.66" y1="179.724" x2="2291.66" y2="195.724" style="stroke:#009af9; stroke-width:3.2; stroke-opacity:1"/>
<line clip-path="url(#clip942)" x1="2291.66" y1="179.724" x2="2307.66" y2="179.724" style="stroke:#009af9; stroke-width:3.2; stroke-opacity:1"/>
<polyline clip-path="url(#clip942)" style="stroke:#e26f46; stroke-linecap:butt; stroke-linejoin:round; stroke-width:12; stroke-opacity:1; fill:none" points="
  255.035,766.849 662.359,147.717 1069.68,313.149 1477.01,1032.45 1884.33,1399.75 2291.66,974.069 2291.66,974.069 
  "/>
<circle clip-path="url(#clip942)" cx="255.035" cy="766.849" r="14.4" fill="#e26f46" fill-rule="evenodd" fill-opacity="1" stroke="#000000" stroke-opacity="1" stroke-width="3.2"/>
<circle clip-path="url(#clip942)" cx="662.359" cy="147.717" r="14.4" fill="#e26f46" fill-rule="evenodd" fill-opacity="1" stroke="#000000" stroke-opacity="1" stroke-width="3.2"/>
<circle clip-path="url(#clip942)" cx="1069.68" cy="313.149" r="14.4" fill="#e26f46" fill-rule="evenodd" fill-opacity="1" stroke="#000000" stroke-opacity="1" stroke-width="3.2"/>
<circle clip-path="url(#clip942)" cx="1477.01" cy="1032.45" r="14.4" fill="#e26f46" fill-rule="evenodd" fill-opacity="1" stroke="#000000" stroke-opacity="1" stroke-width="3.2"/>
<circle clip-path="url(#clip942)" cx="1884.33" cy="1399.75" r="14.4" fill="#e26f46" fill-rule="evenodd" fill-opacity="1" stroke="#000000" stroke-opacity="1" stroke-width="3.2"/>
<circle clip-path="url(#clip942)" cx="2291.66" cy="974.069" r="14.4" fill="#e26f46" fill-rule="evenodd" fill-opacity="1" stroke="#000000" stroke-opacity="1" stroke-width="3.2"/>
<circle clip-path="url(#clip942)" cx="2291.66" cy="974.069" r="14.4" fill="#e26f46" fill-rule="evenodd" fill-opacity="1" stroke="#000000" stroke-opacity="1" stroke-width="3.2"/>
<polyline clip-path="url(#clip942)" style="stroke:#3da44d; stroke-linecap:butt; stroke-linejoin:round; stroke-width:12; stroke-opacity:1; fill:none" points="
  255.035,766.849 261.664,753.59 268.294,740.336 329.596,618.923 390.898,502.321 409.318,468.799 427.737,436.155 446.157,404.484 464.577,373.88 495.725,324.807 
  526.872,279.454 543.79,256.517 560.707,234.847 577.625,214.498 594.542,195.521 610.139,179.282 625.735,164.283 641.332,150.556 656.928,138.13 673.649,126.283 
  690.37,115.989 707.091,107.275 723.812,100.161 743.185,93.9428 762.558,89.9156 781.931,88.0928 801.304,88.4805 818.52,90.6791 835.737,94.6168 852.953,100.283 
  870.17,107.665 885.267,115.533 900.364,124.69 915.461,135.117 930.558,146.793 947.018,160.92 963.478,176.472 979.938,193.411 996.398,211.699 1012.96,231.412 
  1029.51,252.399 1046.07,274.61 1062.63,297.992 1080.94,325.14 1099.24,353.572 1117.55,383.206 1135.86,413.956 1170.69,475.229 1205.53,539.571 1277.98,680.222 
  1338.96,801.935 1376.19,875.929 1413.41,948.612 1447.51,1013.3 1481.62,1075.5 1513.11,1130.2 1544.61,1181.77 1560.56,1206.55 1576.51,1230.36 1592.46,1253.15 
  1608.42,1274.87 1626.29,1297.87 1644.17,1319.4 1662.05,1339.4 1679.93,1357.81 1696.13,1373.08 1712.33,1386.96 1728.53,1399.44 1744.73,1410.47 1763.28,1421.3 
  1781.83,1430.18 1800.37,1437.08 1818.92,1441.98 1836.1,1444.71 1853.27,1445.72 1870.44,1444.98 1887.62,1442.51 1904.55,1438.38 1921.48,1432.58 1938.41,1425.13 
  1955.34,1416.04 1971.78,1405.66 1988.22,1393.79 2004.66,1380.45 2021.1,1365.67 2037.95,1349.06 2054.8,1331.02 2071.66,1311.58 2088.51,1290.8 2106.97,1266.56 
  2125.44,1240.84 2143.9,1213.72 2162.36,1185.27 2189.18,1141.77 2216,1095.92 2242.83,1048.03 2269.65,998.374 2275.15,987.999 2280.65,977.566 2286.15,967.077 
  2291.66,956.536 
  "/>
<polyline clip-path="url(#clip942)" style="stroke:#c271d2; stroke-linecap:butt; stroke-linejoin:round; stroke-width:12; stroke-opacity:1; fill:none" points="
  255.035,87.9763 258.35,88.0086 261.664,88.1058 264.979,88.2676 268.294,88.4942 283.62,90.3821 298.945,93.6487 314.27,98.2874 329.596,104.289 344.921,111.64 
  360.247,120.328 375.572,130.332 390.898,141.634 409.318,156.903 427.737,173.966 446.157,192.776 464.577,213.275 480.151,231.881 495.725,251.613 511.299,272.43 
  526.872,294.287 543.79,319.155 560.707,345.136 577.625,372.163 594.542,400.171 625.735,454.147 656.928,510.762 690.37,573.846 723.812,638.802 762.558,715.571 
  801.304,793.007 835.737,861.569 870.17,929.157 900.364,987.076 930.558,1043.25 963.478,1101.99 996.398,1157.59 1012.96,1184.19 1029.51,1209.8 1046.07,1234.36 
  1062.63,1257.81 1080.94,1282.37 1099.24,1305.43 1117.55,1326.93 1135.86,1346.79 1153.28,1364.13 1170.69,1379.89 1188.11,1394.05 1205.53,1406.55 1223.64,1417.76 
  1241.75,1427.11 1259.86,1434.59 1277.98,1440.17 1293.22,1443.38 1308.47,1445.23 1323.71,1445.71 1338.96,1444.81 1357.57,1441.87 1376.19,1436.9 1394.8,1429.91 
  1413.41,1420.94 1430.46,1410.98 1447.51,1399.41 1464.57,1386.23 1481.62,1371.5 1497.36,1356.53 1513.11,1340.3 1528.86,1322.83 1544.61,1304.17 1560.56,1284.08 
  1576.51,1262.85 1592.46,1240.53 1608.42,1217.16 1626.29,1189.79 1644.17,1161.25 1662.05,1131.61 1679.93,1100.97 1712.33,1043.12 1744.73,982.762 1818.92,838.063 
  1887.62,700.907 1921.48,633.941 1955.34,568.297 1988.22,506.445 2021.1,447.034 2037.95,417.71 2054.8,389.247 2071.66,361.715 2088.51,335.18 2106.97,307.332 
  2125.44,280.844 2143.9,255.793 2162.36,232.254 2189.18,200.894 2216,173.066 2242.83,148.943 2269.65,128.677 2275.15,125.007 2280.65,121.507 2286.15,118.176 
  2291.66,115.016 
  "/>
<path clip-path="url(#clip940)" d="
M1986.78 354.418 L2280.8 354.418 L2280.8 95.2176 L1986.78 95.2176  Z
  " fill="#ffffff" fill-rule="evenodd" fill-opacity="1"/>
<polyline clip-path="url(#clip940)" style="stroke:#000000; stroke-linecap:butt; stroke-linejoin:round; stroke-width:4; stroke-opacity:1; fill:none" points="
  1986.78,354.418 2280.8,354.418 2280.8,95.2176 1986.78,95.2176 1986.78,354.418 
  "/>
<polyline clip-path="url(#clip940)" style="stroke:#009af9; stroke-linecap:butt; stroke-linejoin:round; stroke-width:4; stroke-opacity:1; fill:none" points="
  2010.77,147.058 2154.69,147.058 
  "/>
<line clip-path="url(#clip940)" x1="2082.73" y1="147.058" x2="2082.73" y2="121.458" style="stroke:#009af9; stroke-width:5.12; stroke-opacity:1"/>
<line clip-path="url(#clip940)" x1="2082.73" y1="147.058" x2="2057.13" y2="147.058" style="stroke:#009af9; stroke-width:5.12; stroke-opacity:1"/>
<line clip-path="url(#clip940)" x1="2082.73" y1="147.058" x2="2082.73" y2="172.658" style="stroke:#009af9; stroke-width:5.12; stroke-opacity:1"/>
<line clip-path="url(#clip940)" x1="2082.73" y1="147.058" x2="2108.33" y2="147.058" style="stroke:#009af9; stroke-width:5.12; stroke-opacity:1"/>
<path clip-path="url(#clip940)" d="M2192.52 166.745 Q2190.72 171.375 2189 172.787 Q2187.29 174.199 2184.42 174.199 L2181.02 174.199 L2181.02 170.634 L2183.52 170.634 Q2185.28 170.634 2186.25 169.8 Q2187.22 168.967 2188.4 165.865 L2189.16 163.921 L2178.68 138.412 L2183.19 138.412 L2191.29 158.689 L2199.4 138.412 L2203.91 138.412 L2192.52 166.745 Z" fill="#000000" fill-rule="evenodd" fill-opacity="1" /><path clip-path="url(#clip940)" d="M2211.2 160.402 L2218.84 160.402 L2218.84 134.037 L2210.53 135.703 L2210.53 131.444 L2218.79 129.778 L2223.47 129.778 L2223.47 160.402 L2231.11 160.402 L2231.11 164.338 L2211.2 164.338 L2211.2 160.402 Z" fill="#000000" fill-rule="evenodd" fill-opacity="1" /><polyline clip-path="url(#clip940)" style="stroke:#e26f46; stroke-linecap:butt; stroke-linejoin:round; stroke-width:4; stroke-opacity:1; fill:none" points="
  2010.77,198.898 2154.69,198.898 
  "/>
<circle clip-path="url(#clip940)" cx="2082.73" cy="198.898" r="23.04" fill="#e26f46" fill-rule="evenodd" fill-opacity="1" stroke="#000000" stroke-opacity="1" stroke-width="5.12"/>
<path clip-path="url(#clip940)" d="M2192.52 218.585 Q2190.72 223.215 2189 224.627 Q2187.29 226.039 2184.42 226.039 L2181.02 226.039 L2181.02 222.474 L2183.52 222.474 Q2185.28 222.474 2186.25 221.64 Q2187.22 220.807 2188.4 217.705 L2189.16 215.761 L2178.68 190.252 L2183.19 190.252 L2191.29 210.529 L2199.4 190.252 L2203.91 190.252 L2192.52 218.585 Z" fill="#000000" fill-rule="evenodd" fill-opacity="1" /><path clip-path="url(#clip940)" d="M2214.42 212.242 L2230.74 212.242 L2230.74 216.178 L2208.79 216.178 L2208.79 212.242 Q2211.46 209.488 2216.04 204.858 Q2220.65 200.205 2221.83 198.863 Q2224.07 196.34 2224.95 194.604 Q2225.85 192.844 2225.85 191.155 Q2225.85 188.4 2223.91 186.664 Q2221.99 184.928 2218.89 184.928 Q2216.69 184.928 2214.23 185.692 Q2211.8 186.455 2209.03 188.006 L2209.03 183.284 Q2211.85 182.15 2214.3 181.571 Q2216.76 180.993 2218.79 180.993 Q2224.16 180.993 2227.36 183.678 Q2230.55 186.363 2230.55 190.854 Q2230.55 192.983 2229.74 194.905 Q2228.96 196.803 2226.85 199.395 Q2226.27 200.067 2223.17 203.284 Q2220.07 206.479 2214.42 212.242 Z" fill="#000000" fill-rule="evenodd" fill-opacity="1" /><polyline clip-path="url(#clip940)" style="stroke:#3da44d; stroke-linecap:butt; stroke-linejoin:round; stroke-width:4; stroke-opacity:1; fill:none" points="
  2010.77,250.738 2154.69,250.738 
  "/>
<path clip-path="url(#clip940)" d="M2192.52 270.425 Q2190.72 275.055 2189 276.467 Q2187.29 277.879 2184.42 277.879 L2181.02 277.879 L2181.02 274.314 L2183.52 274.314 Q2185.28 274.314 2186.25 273.48 Q2187.22 272.647 2188.4 269.545 L2189.16 267.601 L2178.68 242.092 L2183.19 242.092 L2191.29 262.369 L2199.4 242.092 L2203.91 242.092 L2192.52 270.425 Z" fill="#000000" fill-rule="evenodd" fill-opacity="1" /><path clip-path="url(#clip940)" d="M2224.56 249.383 Q2227.91 250.101 2229.79 252.369 Q2231.69 254.638 2231.69 257.971 Q2231.69 263.087 2228.17 265.888 Q2224.65 268.689 2218.17 268.689 Q2215.99 268.689 2213.68 268.249 Q2211.39 267.832 2208.93 266.976 L2208.93 262.462 Q2210.88 263.596 2213.19 264.175 Q2215.51 264.754 2218.03 264.754 Q2222.43 264.754 2224.72 263.018 Q2227.03 261.281 2227.03 257.971 Q2227.03 254.916 2224.88 253.203 Q2222.75 251.467 2218.93 251.467 L2214.9 251.467 L2214.9 247.624 L2219.12 247.624 Q2222.57 247.624 2224.4 246.258 Q2226.22 244.87 2226.22 242.277 Q2226.22 239.615 2224.33 238.203 Q2222.45 236.768 2218.93 236.768 Q2217.01 236.768 2214.81 237.184 Q2212.61 237.601 2209.97 238.481 L2209.97 234.314 Q2212.64 233.573 2214.95 233.203 Q2217.29 232.833 2219.35 232.833 Q2224.67 232.833 2227.78 235.263 Q2230.88 237.67 2230.88 241.791 Q2230.88 244.661 2229.23 246.652 Q2227.59 248.62 2224.56 249.383 Z" fill="#000000" fill-rule="evenodd" fill-opacity="1" /><polyline clip-path="url(#clip940)" style="stroke:#c271d2; stroke-linecap:butt; stroke-linejoin:round; stroke-width:4; stroke-opacity:1; fill:none" points="
  2010.77,302.578 2154.69,302.578 
  "/>
<path clip-path="url(#clip940)" d="M2192.52 322.265 Q2190.72 326.895 2189 328.307 Q2187.29 329.719 2184.42 329.719 L2181.02 329.719 L2181.02 326.154 L2183.52 326.154 Q2185.28 326.154 2186.25 325.32 Q2187.22 324.487 2188.4 321.385 L2189.16 319.441 L2178.68 293.932 L2183.19 293.932 L2191.29 314.209 L2199.4 293.932 L2203.91 293.932 L2192.52 322.265 Z" fill="#000000" fill-rule="evenodd" fill-opacity="1" /><path clip-path="url(#clip940)" d="M2223.24 289.372 L2211.43 307.821 L2223.24 307.821 L2223.24 289.372 M2222.01 285.298 L2227.89 285.298 L2227.89 307.821 L2232.82 307.821 L2232.82 311.709 L2227.89 311.709 L2227.89 319.858 L2223.24 319.858 L2223.24 311.709 L2207.64 311.709 L2207.64 307.196 L2222.01 285.298 Z" fill="#000000" fill-rule="evenodd" fill-opacity="1" /></svg>
