<?xml version="1.0" encoding="utf-8"?>
<svg xmlns="http://www.w3.org/2000/svg" xmlns:xlink="http://www.w3.org/1999/xlink" width="600" height="400" viewBox="0 0 2400 1600">
<defs>
  <clipPath id="clip480">
    <rect x="0" y="0" width="2400" height="1600"/>
  </clipPath>
</defs>
<path clip-path="url(#clip480)" d="
M0 1600 L2400 1600 L2400 0 L0 0  Z
  " fill="#ffffff" fill-rule="evenodd" fill-opacity="1"/>
<defs>
  <clipPath id="clip481">
    <rect x="480" y="0" width="1681" height="1600"/>
  </clipPath>
</defs>
<defs>
  <clipPath id="clip482">
    <rect x="193" y="47" width="2160" height="1440"/>
  </clipPath>
</defs>
<path clip-path="url(#clip480)" d="
M189.496 1474.16 L2352.76 1474.16 L2352.76 47.2441 L189.496 47.2441  Z
  " fill="#ffffff" fill-rule="evenodd" fill-opacity="1"/>
<defs>
  <clipPath id="clip483">
    <rect x="189" y="47" width="2164" height="1428"/>
  </clipPath>
</defs>
<polyline clip-path="url(#clip483)" style="stroke:#000000; stroke-linecap:butt; stroke-linejoin:round; stroke-width:2; stroke-opacity:0.1; fill:none" points="
  259.449,1474.16 259.449,47.2441 
  "/>
<polyline clip-path="url(#clip483)" style="stroke:#000000; stroke-linecap:butt; stroke-linejoin:round; stroke-width:2; stroke-opacity:0.1; fill:none" points="
  1106.88,1474.16 1106.88,47.2441 
  "/>
<polyline clip-path="url(#clip483)" style="stroke:#000000; stroke-linecap:butt; stroke-linejoin:round; stroke-width:2; stroke-opacity:0.1; fill:none" points="
  1954.31,1474.16 1954.31,47.2441 
  "/>
<polyline clip-path="url(#clip480)" style="stroke:#000000; stroke-linecap:butt; stroke-linejoin:round; stroke-width:4; stroke-opacity:1; fill:none" points="
  189.496,1474.16 2352.76,1474.16 
  "/>
<polyline clip-path="url(#clip480)" style="stroke:#000000; stroke-linecap:butt; stroke-linejoin:round; stroke-width:4; stroke-opacity:1; fill:none" points="
  259.449,1474.16 259.449,1455.27 
  "/>
<polyline clip-path="url(#clip480)" style="stroke:#000000; stroke-linecap:butt; stroke-linejoin:round; stroke-width:4; stroke-opacity:1; fill:none" points="
  1106.88,1474.16 1106.88,1455.27 
  "/>
<polyline clip-path="url(#clip480)" style="stroke:#000000; stroke-linecap:butt; stroke-linejoin:round; stroke-width:4; stroke-opacity:1; fill:none" points="
  1954.31,1474.16 1954.31,1455.27 
  "/>
<path clip-path="url(#clip480)" d="M209.329 1548.29 L216.968 1548.29 L216.968 1521.92 L208.658 1523.59 L208.658 1519.33 L216.921 1517.66 L221.597 1517.66 L221.597 1548.29 L229.236 1548.29 L229.236 1552.22 L209.329 1552.22 L209.329 1548.29 Z" fill="#000000" fill-rule="evenodd" fill-opacity="1" /><path clip-path="url(#clip480)" d="M248.681 1520.74 Q245.069 1520.74 243.241 1524.31 Q241.435 1527.85 241.435 1534.98 Q241.435 1542.09 243.241 1545.65 Q245.069 1549.19 248.681 1549.19 Q252.315 1549.19 254.12 1545.65 Q255.949 1542.09 255.949 1534.98 Q255.949 1527.85 254.12 1524.31 Q252.315 1520.74 248.681 1520.74 M248.681 1517.04 Q254.491 1517.04 257.546 1521.65 Q260.625 1526.23 260.625 1534.98 Q260.625 1543.71 257.546 1548.31 Q254.491 1552.9 248.681 1552.9 Q242.87 1552.9 239.792 1548.31 Q236.736 1543.71 236.736 1534.98 Q236.736 1526.23 239.792 1521.65 Q242.87 1517.04 248.681 1517.04 Z" fill="#000000" fill-rule="evenodd" fill-opacity="1" /><path clip-path="url(#clip480)" d="M260.625 1511.14 L284.737 1511.14 L284.737 1514.34 L260.625 1514.34 L260.625 1511.14 Z" fill="#000000" fill-rule="evenodd" fill-opacity="1" /><path clip-path="url(#clip480)" d="M304.447 1509.67 Q307.174 1510.26 308.698 1512.1 Q310.24 1513.94 310.24 1516.65 Q310.24 1520.81 307.381 1523.08 Q304.522 1525.36 299.256 1525.36 Q297.488 1525.36 295.607 1525 Q293.745 1524.66 291.752 1523.97 L291.752 1520.3 Q293.332 1521.22 295.212 1521.69 Q297.093 1522.16 299.143 1522.16 Q302.717 1522.16 304.579 1520.75 Q306.459 1519.34 306.459 1516.65 Q306.459 1514.17 304.71 1512.78 Q302.98 1511.37 299.877 1511.37 L296.604 1511.37 L296.604 1508.24 L300.027 1508.24 Q302.83 1508.24 304.315 1507.13 Q305.801 1506.01 305.801 1503.9 Q305.801 1501.74 304.259 1500.59 Q302.736 1499.42 299.877 1499.42 Q298.316 1499.42 296.529 1499.76 Q294.742 1500.1 292.598 1500.82 L292.598 1497.43 Q294.761 1496.83 296.642 1496.53 Q298.541 1496.23 300.215 1496.23 Q304.541 1496.23 307.061 1498.2 Q309.582 1500.16 309.582 1503.51 Q309.582 1505.84 308.246 1507.45 Q306.911 1509.05 304.447 1509.67 Z" fill="#000000" fill-rule="evenodd" fill-opacity="1" /><path clip-path="url(#clip480)" d="M1057.14 1548.29 L1064.78 1548.29 L1064.78 1521.92 L1056.47 1523.59 L1056.47 1519.33 L1064.74 1517.66 L1069.41 1517.66 L1069.41 1548.29 L1077.05 1548.29 L1077.05 1552.22 L1057.14 1552.22 L1057.14 1548.29 Z" fill="#000000" fill-rule="evenodd" fill-opacity="1" /><path clip-path="url(#clip480)" d="M1096.49 1520.74 Q1092.88 1520.74 1091.05 1524.31 Q1089.25 1527.85 1089.25 1534.98 Q1089.25 1542.09 1091.05 1545.65 Q1092.88 1549.19 1096.49 1549.19 Q1100.13 1549.19 1101.93 1545.65 Q1103.76 1542.09 1103.76 1534.98 Q1103.76 1527.85 1101.93 1524.31 Q1100.13 1520.74 1096.49 1520.74 M1096.49 1517.04 Q1102.3 1517.04 1105.36 1521.65 Q1108.44 1526.23 1108.44 1534.98 Q1108.44 1543.71 1105.36 1548.31 Q1102.3 1552.9 1096.49 1552.9 Q1090.68 1552.9 1087.61 1548.31 Q1084.55 1543.71 1084.55 1534.98 Q1084.55 1526.23 1087.61 1521.65 Q1090.68 1517.04 1096.49 1517.04 Z" fill="#000000" fill-rule="evenodd" fill-opacity="1" /><path clip-path="url(#clip480)" d="M1108.44 1511.14 L1132.55 1511.14 L1132.55 1514.34 L1108.44 1514.34 L1108.44 1511.14 Z" fill="#000000" fill-rule="evenodd" fill-opacity="1" /><path clip-path="url(#clip480)" d="M1144.02 1521.62 L1157.28 1521.62 L1157.28 1524.81 L1139.45 1524.81 L1139.45 1521.62 Q1141.62 1519.38 1145.34 1515.62 Q1149.08 1511.84 1150.04 1510.75 Q1151.87 1508.7 1152.58 1507.29 Q1153.31 1505.86 1153.31 1504.48 Q1153.31 1502.24 1151.73 1500.83 Q1150.17 1499.42 1147.65 1499.42 Q1145.87 1499.42 1143.87 1500.04 Q1141.9 1500.67 1139.64 1501.93 L1139.64 1498.09 Q1141.94 1497.17 1143.93 1496.7 Q1145.92 1496.23 1147.58 1496.23 Q1151.94 1496.23 1154.54 1498.41 Q1157.13 1500.59 1157.13 1504.24 Q1157.13 1505.97 1156.47 1507.53 Q1155.83 1509.07 1154.12 1511.18 Q1153.65 1511.72 1151.13 1514.34 Q1148.61 1516.93 1144.02 1521.62 Z" fill="#000000" fill-rule="evenodd" fill-opacity="1" /><path clip-path="url(#clip480)" d="M1904.42 1548.29 L1912.06 1548.29 L1912.06 1521.92 L1903.75 1523.59 L1903.75 1519.33 L1912.01 1517.66 L1916.69 1517.66 L1916.69 1548.29 L1924.33 1548.29 L1924.33 1552.22 L1904.42 1552.22 L1904.42 1548.29 Z" fill="#000000" fill-rule="evenodd" fill-opacity="1" /><path clip-path="url(#clip480)" d="M1943.77 1520.74 Q1940.16 1520.74 1938.33 1524.31 Q1936.53 1527.85 1936.53 1534.98 Q1936.53 1542.09 1938.33 1545.65 Q1940.16 1549.19 1943.77 1549.19 Q1947.41 1549.19 1949.21 1545.65 Q1951.04 1542.09 1951.04 1534.98 Q1951.04 1527.85 1949.21 1524.31 Q1947.41 1520.74 1943.77 1520.74 M1943.77 1517.04 Q1949.58 1517.04 1952.64 1521.65 Q1955.72 1526.23 1955.72 1534.98 Q1955.72 1543.71 1952.64 1548.31 Q1949.58 1552.9 1943.77 1552.9 Q1937.96 1552.9 1934.88 1548.31 Q1931.83 1543.71 1931.83 1534.98 Q1931.83 1526.23 1934.88 1521.65 Q1937.96 1517.04 1943.77 1517.04 Z" fill="#000000" fill-rule="evenodd" fill-opacity="1" /><path clip-path="url(#clip480)" d="M1955.72 1511.14 L1979.83 1511.14 L1979.83 1514.34 L1955.72 1514.34 L1955.72 1511.14 Z" fill="#000000" fill-rule="evenodd" fill-opacity="1" /><path clip-path="url(#clip480)" d="M1988.69 1521.62 L1994.89 1521.62 L1994.89 1500.19 L1988.14 1501.55 L1988.14 1498.09 L1994.86 1496.73 L1998.66 1496.73 L1998.66 1521.62 L2004.86 1521.62 L2004.86 1524.81 L1988.69 1524.81 L1988.69 1521.62 Z" fill="#000000" fill-rule="evenodd" fill-opacity="1" /><polyline clip-path="url(#clip483)" style="stroke:#000000; stroke-linecap:butt; stroke-linejoin:round; stroke-width:2; stroke-opacity:0.1; fill:none" points="
  189.496,1429.36 2352.76,1429.36 
  "/>
<polyline clip-path="url(#clip483)" style="stroke:#000000; stroke-linecap:butt; stroke-linejoin:round; stroke-width:2; stroke-opacity:0.1; fill:none" points="
  189.496,1214.66 2352.76,1214.66 
  "/>
<polyline clip-path="url(#clip483)" style="stroke:#000000; stroke-linecap:butt; stroke-linejoin:round; stroke-width:2; stroke-opacity:0.1; fill:none" points="
  189.496,999.956 2352.76,999.956 
  "/>
<polyline clip-path="url(#clip483)" style="stroke:#000000; stroke-linecap:butt; stroke-linejoin:round; stroke-width:2; stroke-opacity:0.1; fill:none" points="
  189.496,785.256 2352.76,785.256 
  "/>
<polyline clip-path="url(#clip483)" style="stroke:#000000; stroke-linecap:butt; stroke-linejoin:round; stroke-width:2; stroke-opacity:0.1; fill:none" points="
  189.496,570.555 2352.76,570.555 
  "/>
<polyline clip-path="url(#clip483)" style="stroke:#000000; stroke-linecap:butt; stroke-linejoin:round; stroke-width:2; stroke-opacity:0.1; fill:none" points="
  189.496,355.855 2352.76,355.855 
  "/>
<polyline clip-path="url(#clip483)" style="stroke:#000000; stroke-linecap:butt; stroke-linejoin:round; stroke-width:2; stroke-opacity:0.1; fill:none" points="
  189.496,141.154 2352.76,141.154 
  "/>
<polyline clip-path="url(#clip480)" style="stroke:#000000; stroke-linecap:butt; stroke-linejoin:round; stroke-width:4; stroke-opacity:1; fill:none" points="
  189.496,1474.16 189.496,47.2441 
  "/>
<polyline clip-path="url(#clip480)" style="stroke:#000000; stroke-linecap:butt; stroke-linejoin:round; stroke-width:4; stroke-opacity:1; fill:none" points="
  189.496,1429.36 208.394,1429.36 
  "/>
<polyline clip-path="url(#clip480)" style="stroke:#000000; stroke-linecap:butt; stroke-linejoin:round; stroke-width:4; stroke-opacity:1; fill:none" points="
  189.496,1214.66 208.394,1214.66 
  "/>
<polyline clip-path="url(#clip480)" style="stroke:#000000; stroke-linecap:butt; stroke-linejoin:round; stroke-width:4; stroke-opacity:1; fill:none" points="
  189.496,999.956 208.394,999.956 
  "/>
<polyline clip-path="url(#clip480)" style="stroke:#000000; stroke-linecap:butt; stroke-linejoin:round; stroke-width:4; stroke-opacity:1; fill:none" points="
  189.496,785.256 208.394,785.256 
  "/>
<polyline clip-path="url(#clip480)" style="stroke:#000000; stroke-linecap:butt; stroke-linejoin:round; stroke-width:4; stroke-opacity:1; fill:none" points="
  189.496,570.555 208.394,570.555 
  "/>
<polyline clip-path="url(#clip480)" style="stroke:#000000; stroke-linecap:butt; stroke-linejoin:round; stroke-width:4; stroke-opacity:1; fill:none" points="
  189.496,355.855 208.394,355.855 
  "/>
<polyline clip-path="url(#clip480)" style="stroke:#000000; stroke-linecap:butt; stroke-linejoin:round; stroke-width:4; stroke-opacity:1; fill:none" points="
  189.496,141.154 208.394,141.154 
  "/>
<path clip-path="url(#clip480)" d="M51.9267 1449.15 L59.5656 1449.15 L59.5656 1422.78 L51.2554 1424.45 L51.2554 1420.19 L59.5193 1418.52 L64.1952 1418.52 L64.1952 1449.15 L71.834 1449.15 L71.834 1453.08 L51.9267 1453.08 L51.9267 1449.15 Z" fill="#000000" fill-rule="evenodd" fill-opacity="1" /><path clip-path="url(#clip480)" d="M91.2784 1421.6 Q87.6673 1421.6 85.8386 1425.17 Q84.033 1428.71 84.033 1435.84 Q84.033 1442.95 85.8386 1446.51 Q87.6673 1450.05 91.2784 1450.05 Q94.9126 1450.05 96.7182 1446.51 Q98.5468 1442.95 98.5468 1435.84 Q98.5468 1428.71 96.7182 1425.17 Q94.9126 1421.6 91.2784 1421.6 M91.2784 1417.9 Q97.0885 1417.9 100.144 1422.51 Q103.223 1427.09 103.223 1435.84 Q103.223 1444.57 100.144 1449.17 Q97.0885 1453.76 91.2784 1453.76 Q85.4682 1453.76 82.3895 1449.17 Q79.334 1444.57 79.334 1435.84 Q79.334 1427.09 82.3895 1422.51 Q85.4682 1417.9 91.2784 1417.9 Z" fill="#000000" fill-rule="evenodd" fill-opacity="1" /><path clip-path="url(#clip480)" d="M103.223 1412 L127.334 1412 L127.334 1415.2 L103.223 1415.2 L103.223 1412 Z" fill="#000000" fill-rule="evenodd" fill-opacity="1" /><path clip-path="url(#clip480)" d="M144.13 1410.12 Q141.572 1410.12 140.067 1411.87 Q138.581 1413.62 138.581 1416.67 Q138.581 1419.69 140.067 1421.46 Q141.572 1423.21 144.13 1423.21 Q146.688 1423.21 148.173 1421.46 Q149.678 1419.69 149.678 1416.67 Q149.678 1413.62 148.173 1411.87 Q146.688 1410.12 144.13 1410.12 M151.672 1398.22 L151.672 1401.68 Q150.242 1401 148.775 1400.64 Q147.327 1400.28 145.898 1400.28 Q142.136 1400.28 140.142 1402.82 Q138.168 1405.36 137.885 1410.5 Q138.995 1408.86 140.669 1408 Q142.343 1407.11 144.355 1407.11 Q148.587 1407.11 151.032 1409.69 Q153.496 1412.25 153.496 1416.67 Q153.496 1420.99 150.938 1423.61 Q148.38 1426.22 144.13 1426.22 Q139.258 1426.22 136.682 1422.5 Q134.105 1418.75 134.105 1411.66 Q134.105 1405 137.265 1401.06 Q140.425 1397.09 145.747 1397.09 Q147.177 1397.09 148.625 1397.37 Q150.092 1397.65 151.672 1398.22 Z" fill="#000000" fill-rule="evenodd" fill-opacity="1" /><path clip-path="url(#clip480)" d="M52.8671 1234.45 L60.506 1234.45 L60.506 1208.08 L52.1958 1209.75 L52.1958 1205.49 L60.4597 1203.82 L65.1356 1203.82 L65.1356 1234.45 L72.7744 1234.45 L72.7744 1238.38 L52.8671 1238.38 L52.8671 1234.45 Z" fill="#000000" fill-rule="evenodd" fill-opacity="1" /><path clip-path="url(#clip480)" d="M92.2188 1206.9 Q88.6077 1206.9 86.779 1210.47 Q84.9734 1214.01 84.9734 1221.14 Q84.9734 1228.25 86.779 1231.81 Q88.6077 1235.35 92.2188 1235.35 Q95.853 1235.35 97.6585 1231.81 Q99.4872 1228.25 99.4872 1221.14 Q99.4872 1214.01 97.6585 1210.47 Q95.853 1206.9 92.2188 1206.9 M92.2188 1203.2 Q98.0289 1203.2 101.084 1207.81 Q104.163 1212.39 104.163 1221.14 Q104.163 1229.87 101.084 1234.47 Q98.0289 1239.06 92.2188 1239.06 Q86.4086 1239.06 83.3299 1234.47 Q80.2744 1229.87 80.2744 1221.14 Q80.2744 1212.39 83.3299 1207.81 Q86.4086 1203.2 92.2188 1203.2 Z" fill="#000000" fill-rule="evenodd" fill-opacity="1" /><path clip-path="url(#clip480)" d="M104.163 1197.3 L128.275 1197.3 L128.275 1200.5 L104.163 1200.5 L104.163 1197.3 Z" fill="#000000" fill-rule="evenodd" fill-opacity="1" /><path clip-path="url(#clip480)" d="M136.513 1182.89 L151.427 1182.89 L151.427 1186.09 L139.992 1186.09 L139.992 1192.97 Q140.819 1192.69 141.647 1192.56 Q142.475 1192.41 143.302 1192.41 Q148.004 1192.41 150.75 1194.99 Q153.496 1197.56 153.496 1201.97 Q153.496 1206.5 150.675 1209.02 Q147.854 1211.52 142.719 1211.52 Q140.951 1211.52 139.108 1211.22 Q137.284 1210.92 135.328 1210.32 L135.328 1206.5 Q137.02 1207.42 138.826 1207.87 Q140.631 1208.32 142.644 1208.32 Q145.898 1208.32 147.797 1206.61 Q149.697 1204.9 149.697 1201.97 Q149.697 1199.03 147.797 1197.32 Q145.898 1195.61 142.644 1195.61 Q141.12 1195.61 139.597 1195.95 Q138.092 1196.29 136.513 1197 L136.513 1182.89 Z" fill="#000000" fill-rule="evenodd" fill-opacity="1" /><path clip-path="url(#clip480)" d="M51.6634 1019.75 L59.3023 1019.75 L59.3023 993.383 L50.9921 995.05 L50.9921 990.791 L59.256 989.124 L63.9319 989.124 L63.9319 1019.75 L71.5707 1019.75 L71.5707 1023.68 L51.6634 1023.68 L51.6634 1019.75 Z" fill="#000000" fill-rule="evenodd" fill-opacity="1" /><path clip-path="url(#clip480)" d="M91.0151 992.203 Q87.404 992.203 85.5753 995.767 Q83.7697 999.309 83.7697 1006.44 Q83.7697 1013.55 85.5753 1017.11 Q87.404 1020.65 91.0151 1020.65 Q94.6493 1020.65 96.4548 1017.11 Q98.2835 1013.55 98.2835 1006.44 Q98.2835 999.309 96.4548 995.767 Q94.6493 992.203 91.0151 992.203 M91.0151 988.499 Q96.8252 988.499 99.8808 993.105 Q102.959 997.689 102.959 1006.44 Q102.959 1015.17 99.8808 1019.77 Q96.8252 1024.36 91.0151 1024.36 Q85.2049 1024.36 82.1262 1019.77 Q79.0707 1015.17 79.0707 1006.44 Q79.0707 997.689 82.1262 993.105 Q85.2049 988.499 91.0151 988.499 Z" fill="#000000" fill-rule="evenodd" fill-opacity="1" /><path clip-path="url(#clip480)" d="M102.959 982.6 L127.071 982.6 L127.071 985.798 L102.959 985.798 L102.959 982.6 Z" fill="#000000" fill-rule="evenodd" fill-opacity="1" /><path clip-path="url(#clip480)" d="M145.71 971.504 L136.118 986.493 L145.71 986.493 L145.71 971.504 M144.713 968.193 L149.49 968.193 L149.49 986.493 L153.496 986.493 L153.496 989.653 L149.49 989.653 L149.49 996.273 L145.71 996.273 L145.71 989.653 L133.033 989.653 L133.033 985.986 L144.713 968.193 Z" fill="#000000" fill-rule="evenodd" fill-opacity="1" /><path clip-path="url(#clip480)" d="M52.585 805.048 L60.2238 805.048 L60.2238 778.683 L51.9137 780.349 L51.9137 776.09 L60.1776 774.423 L64.8535 774.423 L64.8535 805.048 L72.4923 805.048 L72.4923 808.983 L52.585 808.983 L52.585 805.048 Z" fill="#000000" fill-rule="evenodd" fill-opacity="1" /><path clip-path="url(#clip480)" d="M91.9366 777.502 Q88.3255 777.502 86.4969 781.067 Q84.6913 784.608 84.6913 791.738 Q84.6913 798.844 86.4969 802.409 Q88.3255 805.951 91.9366 805.951 Q95.5709 805.951 97.3764 802.409 Q99.2051 798.844 99.2051 791.738 Q99.2051 784.608 97.3764 781.067 Q95.5709 777.502 91.9366 777.502 M91.9366 773.798 Q97.7468 773.798 100.802 778.405 Q103.881 782.988 103.881 791.738 Q103.881 800.465 100.802 805.071 Q97.7468 809.655 91.9366 809.655 Q86.1265 809.655 83.0478 805.071 Q79.9923 800.465 79.9923 791.738 Q79.9923 782.988 83.0478 778.405 Q86.1265 773.798 91.9366 773.798 Z" fill="#000000" fill-rule="evenodd" fill-opacity="1" /><path clip-path="url(#clip480)" d="M103.881 767.9 L127.993 767.9 L127.993 771.097 L103.881 771.097 L103.881 767.9 Z" fill="#000000" fill-rule="evenodd" fill-opacity="1" /><path clip-path="url(#clip480)" d="M147.703 766.433 Q150.43 767.016 151.954 768.859 Q153.496 770.702 153.496 773.41 Q153.496 777.567 150.637 779.843 Q147.778 782.118 142.512 782.118 Q140.744 782.118 138.863 781.761 Q137.002 781.422 135.008 780.727 L135.008 777.059 Q136.588 777.981 138.469 778.451 Q140.349 778.921 142.399 778.921 Q145.973 778.921 147.835 777.51 Q149.716 776.1 149.716 773.41 Q149.716 770.928 147.966 769.536 Q146.236 768.125 143.133 768.125 L139.86 768.125 L139.86 765.003 L143.283 765.003 Q146.086 765.003 147.571 763.894 Q149.057 762.765 149.057 760.659 Q149.057 758.496 147.515 757.349 Q145.992 756.182 143.133 756.182 Q141.572 756.182 139.785 756.521 Q137.998 756.859 135.854 757.574 L135.854 754.189 Q138.017 753.587 139.898 753.286 Q141.797 752.985 143.471 752.985 Q147.797 752.985 150.317 754.96 Q152.838 756.916 152.838 760.264 Q152.838 762.596 151.502 764.213 Q150.167 765.812 147.703 766.433 Z" fill="#000000" fill-rule="evenodd" fill-opacity="1" /><path clip-path="url(#clip480)" d="M53.3561 590.348 L60.995 590.348 L60.995 563.982 L52.6848 565.649 L52.6848 561.389 L60.9487 559.723 L65.6246 559.723 L65.6246 590.348 L73.2634 590.348 L73.2634 594.283 L53.3561 594.283 L53.3561 590.348 Z" fill="#000000" fill-rule="evenodd" fill-opacity="1" /><path clip-path="url(#clip480)" d="M92.7078 562.801 Q89.0967 562.801 87.268 566.366 Q85.4624 569.908 85.4624 577.037 Q85.4624 584.144 87.268 587.709 Q89.0967 591.25 92.7078 591.25 Q96.342 591.25 98.1475 587.709 Q99.9762 584.144 99.9762 577.037 Q99.9762 569.908 98.1475 566.366 Q96.342 562.801 92.7078 562.801 M92.7078 559.098 Q98.5179 559.098 101.573 563.704 Q104.652 568.288 104.652 577.037 Q104.652 585.764 101.573 590.371 Q98.5179 594.954 92.7078 594.954 Q86.8976 594.954 83.8189 590.371 Q80.7634 585.764 80.7634 577.037 Q80.7634 568.288 83.8189 563.704 Q86.8976 559.098 92.7078 559.098 Z" fill="#000000" fill-rule="evenodd" fill-opacity="1" /><path clip-path="url(#clip480)" d="M104.652 553.199 L128.764 553.199 L128.764 556.396 L104.652 556.396 L104.652 553.199 Z" fill="#000000" fill-rule="evenodd" fill-opacity="1" /><path clip-path="url(#clip480)" d="M140.236 563.675 L153.496 563.675 L153.496 566.872 L135.666 566.872 L135.666 563.675 Q137.829 561.437 141.553 557.675 Q145.296 553.895 146.255 552.804 Q148.079 550.754 148.794 549.344 Q149.527 547.914 149.527 546.541 Q149.527 544.303 147.948 542.892 Q146.387 541.482 143.866 541.482 Q142.08 541.482 140.086 542.103 Q138.111 542.723 135.854 543.983 L135.854 540.147 Q138.149 539.225 140.142 538.755 Q142.136 538.285 143.791 538.285 Q148.155 538.285 150.75 540.466 Q153.345 542.648 153.345 546.297 Q153.345 548.027 152.687 549.588 Q152.048 551.13 150.336 553.237 Q149.866 553.782 147.346 556.396 Q144.826 558.992 140.236 563.675 Z" fill="#000000" fill-rule="evenodd" fill-opacity="1" /><path clip-path="url(#clip480)" d="M53.0552 375.647 L60.694 375.647 L60.694 349.281 L52.3839 350.948 L52.3839 346.689 L60.6477 345.022 L65.3236 345.022 L65.3236 375.647 L72.9625 375.647 L72.9625 379.582 L53.0552 379.582 L53.0552 375.647 Z" fill="#000000" fill-rule="evenodd" fill-opacity="1" /><path clip-path="url(#clip480)" d="M92.4068 348.101 Q88.7957 348.101 86.967 351.666 Q85.1615 355.207 85.1615 362.337 Q85.1615 369.443 86.967 373.008 Q88.7957 376.55 92.4068 376.55 Q96.0411 376.55 97.8466 373.008 Q99.6753 369.443 99.6753 362.337 Q99.6753 355.207 97.8466 351.666 Q96.0411 348.101 92.4068 348.101 M92.4068 344.397 Q98.217 344.397 101.273 349.004 Q104.351 353.587 104.351 362.337 Q104.351 371.064 101.273 375.67 Q98.217 380.254 92.4068 380.254 Q86.5967 380.254 83.518 375.67 Q80.4625 371.064 80.4625 362.337 Q80.4625 353.587 83.518 349.004 Q86.5967 344.397 92.4068 344.397 Z" fill="#000000" fill-rule="evenodd" fill-opacity="1" /><path clip-path="url(#clip480)" d="M104.351 338.499 L128.463 338.499 L128.463 341.696 L104.351 341.696 L104.351 338.499 Z" fill="#000000" fill-rule="evenodd" fill-opacity="1" /><path clip-path="url(#clip480)" d="M137.321 348.975 L143.528 348.975 L143.528 327.552 L136.776 328.907 L136.776 325.446 L143.49 324.092 L147.289 324.092 L147.289 348.975 L153.496 348.975 L153.496 352.172 L137.321 352.172 L137.321 348.975 Z" fill="#000000" fill-rule="evenodd" fill-opacity="1" /><path clip-path="url(#clip480)" d="M82.7903 160.947 L90.4291 160.947 L90.4291 134.581 L82.119 136.248 L82.119 131.988 L90.3828 130.322 L95.0587 130.322 L95.0587 160.947 L102.698 160.947 L102.698 164.882 L82.7903 164.882 L82.7903 160.947 Z" fill="#000000" fill-rule="evenodd" fill-opacity="1" /><path clip-path="url(#clip480)" d="M122.142 133.4 Q118.531 133.4 116.702 136.965 Q114.897 140.507 114.897 147.636 Q114.897 154.743 116.702 158.308 Q118.531 161.849 122.142 161.849 Q125.776 161.849 127.582 158.308 Q129.41 154.743 129.41 147.636 Q129.41 140.507 127.582 136.965 Q125.776 133.4 122.142 133.4 M122.142 129.697 Q127.952 129.697 131.008 134.303 Q134.086 138.886 134.086 147.636 Q134.086 156.363 131.008 160.97 Q127.952 165.553 122.142 165.553 Q116.332 165.553 113.253 160.97 Q110.198 156.363 110.198 147.636 Q110.198 138.886 113.253 134.303 Q116.332 129.697 122.142 129.697 Z" fill="#000000" fill-rule="evenodd" fill-opacity="1" /><path clip-path="url(#clip480)" d="M143.791 111.893 Q140.857 111.893 139.371 114.789 Q137.904 117.667 137.904 123.46 Q137.904 129.233 139.371 132.13 Q140.857 135.007 143.791 135.007 Q146.744 135.007 148.211 132.13 Q149.697 129.233 149.697 123.46 Q149.697 117.667 148.211 114.789 Q146.744 111.893 143.791 111.893 M143.791 108.883 Q148.512 108.883 150.994 112.626 Q153.496 116.35 153.496 123.46 Q153.496 130.55 150.994 134.293 Q148.512 138.017 143.791 138.017 Q139.07 138.017 136.569 134.293 Q134.086 130.55 134.086 123.46 Q134.086 116.35 136.569 112.626 Q139.07 108.883 143.791 108.883 Z" fill="#000000" fill-rule="evenodd" fill-opacity="1" /><polyline clip-path="url(#clip483)" style="stroke:#009af9; stroke-linecap:butt; stroke-linejoin:round; stroke-width:12; stroke-opacity:1; fill:none" points="
  2291.53,87.6286 2036.43,273.114 1781.33,439.78 1526.23,587.21 1271.13,725.307 1016.02,858.917 760.923,990.336 505.822,1120.67 250.72,1250.47 
  "/>
<circle clip-path="url(#clip483)" cx="2291.53" cy="87.6286" r="14.4" fill="#009af9" fill-rule="evenodd" fill-opacity="1" stroke="#000000" stroke-opacity="1" stroke-width="3.2"/>
<circle clip-path="url(#clip483)" cx="2036.43" cy="273.114" r="14.4" fill="#009af9" fill-rule="evenodd" fill-opacity="1" stroke="#000000" stroke-opacity="1" stroke-width="3.2"/>
<circle clip-path="url(#clip483)" cx="1781.33" cy="439.78" r="14.4" fill="#009af9" fill-rule="evenodd" fill-opacity="1" stroke="#000000" stroke-opacity="1" stroke-width="3.2"/>
<circle clip-path="url(#clip483)" cx="1526.23" cy="587.21" r="14.4" fill="#009af9" fill-rule="evenodd" fill-opacity="1" stroke="#000000" stroke-opacity="1" stroke-width="3.2"/>
<circle clip-path="url(#clip483)" cx="1271.13" cy="725.307" r="14.4" fill="#009af9" fill-rule="evenodd" fill-opacity="1" stroke="#000000" stroke-opacity="1" stroke-width="3.2"/>
<circle clip-path="url(#clip483)" cx="1016.02" cy="858.917" r="14.4" fill="#009af9" fill-rule="evenodd" fill-opacity="1" stroke="#000000" stroke-opacity="1" stroke-width="3.2"/>
<circle clip-path="url(#clip483)" cx="760.923" cy="990.336" r="14.4" fill="#009af9" fill-rule="evenodd" fill-opacity="1" stroke="#000000" stroke-opacity="1" stroke-width="3.2"/>
<circle clip-path="url(#clip483)" cx="505.822" cy="1120.67" r="14.4" fill="#009af9" fill-rule="evenodd" fill-opacity="1" stroke="#000000" stroke-opacity="1" stroke-width="3.2"/>
<circle clip-path="url(#clip483)" cx="250.72" cy="1250.47" r="14.4" fill="#009af9" fill-rule="evenodd" fill-opacity="1" stroke="#000000" stroke-opacity="1" stroke-width="3.2"/>
<polyline clip-path="url(#clip483)" style="stroke:#e26f46; stroke-linecap:butt; stroke-linejoin:round; stroke-width:12; stroke-opacity:1; fill:none" points="
  250.72,1433.78 264.007,1427.05 386.863,1364.8 460.694,1327.38 523.117,1295.75 590.926,1261.39 653.44,1229.72 720.462,1195.76 798.113,1156.41 867.12,1121.44 
  927.633,1090.78 993.609,1057.35 1059.98,1023.72 1133.35,986.54 1203.17,951.163 1275.77,914.379 1336.87,883.415 1411.48,845.611 1479.82,810.98 1542.95,778.996 
  1606.89,746.597 1678.54,710.287 1743.48,677.384 1817.82,639.712 1886.66,604.832 1954.53,570.444 2020.42,537.056 2087.96,502.829 2161.97,465.329 2269.48,410.855 
  2291.53,399.679 
  "/>
<path clip-path="url(#clip480)" d="
M1987.85 250.328 L2280.65 250.328 L2280.65 94.8081 L1987.85 94.8081  Z
  " fill="#ffffff" fill-rule="evenodd" fill-opacity="1"/>
<polyline clip-path="url(#clip480)" style="stroke:#000000; stroke-linecap:butt; stroke-linejoin:round; stroke-width:4; stroke-opacity:1; fill:none" points="
  1987.85,250.328 2280.65,250.328 2280.65,94.8081 1987.85,94.8081 1987.85,250.328 
  "/>
<polyline clip-path="url(#clip480)" style="stroke:#009af9; stroke-linecap:butt; stroke-linejoin:round; stroke-width:4; stroke-opacity:1; fill:none" points="
  2011.89,146.648 2156.11,146.648 
  "/>
<circle clip-path="url(#clip480)" cx="2084" cy="146.648" r="23.04" fill="#009af9" fill-rule="evenodd" fill-opacity="1" stroke="#000000" stroke-opacity="1" stroke-width="5.12"/>
<path clip-path="url(#clip480)" d="M2193.99 166.336 Q2192.18 170.965 2190.47 172.377 Q2188.76 173.789 2185.89 173.789 L2182.48 173.789 L2182.48 170.224 L2184.98 170.224 Q2186.74 170.224 2187.71 169.391 Q2188.69 168.558 2189.87 165.456 L2190.63 163.511 L2180.14 138.002 L2184.66 138.002 L2192.76 158.28 L2200.86 138.002 L2205.38 138.002 L2193.99 166.336 Z" fill="#000000" fill-rule="evenodd" fill-opacity="1" /><path clip-path="url(#clip480)" d="M2212.67 159.993 L2220.31 159.993 L2220.31 133.627 L2212 135.294 L2212 131.035 L2220.26 129.368 L2224.94 129.368 L2224.94 159.993 L2232.57 159.993 L2232.57 163.928 L2212.67 163.928 L2212.67 159.993 Z" fill="#000000" fill-rule="evenodd" fill-opacity="1" /><polyline clip-path="url(#clip480)" style="stroke:#e26f46; stroke-linecap:butt; stroke-linejoin:round; stroke-width:4; stroke-opacity:1; fill:none" points="
  2011.89,198.488 2156.11,198.488 
  "/>
<path clip-path="url(#clip480)" d="M2203.68 215.588 Q2203.68 215.776 2203.47 216.502 Q2203.26 217.228 2202.75 218.352 Q2202.26 219.476 2201.58 220.507 Q2200.9 221.514 2199.77 222.264 Q2198.67 222.99 2197.41 222.99 Q2195.72 222.99 2194.6 221.865 Q2193.47 220.741 2193.47 219.055 Q2193.47 218.821 2193.5 218.586 Q2193.52 218.352 2193.54 218.212 Q2193.57 218.048 2193.64 217.79 Q2193.73 217.509 2193.75 217.392 Q2193.8 217.275 2193.92 216.923 Q2194.06 216.549 2194.1 216.408 Q2197.08 208.819 2197.08 205.657 Q2197.08 202.308 2194.48 202.308 Q2192.16 202.308 2189.86 203.994 Q2188.81 204.837 2187.8 206.336 Q2186.8 207.835 2186.61 208.398 Q2186.4 209.616 2186.09 210.552 Q2185.95 211.208 2185.27 213.761 L2184.22 218.094 L2183.31 221.725 Q2183.12 222.24 2182.6 222.615 Q2182.09 222.99 2181.53 222.99 Q2181.06 222.99 2180.59 222.662 Q2180.14 222.357 2180.14 221.631 Q2180.14 221.256 2180.33 220.577 L2187.29 192.939 L2187.43 192.002 Q2187.43 191.721 2187.31 191.58 Q2187.22 191.416 2186.66 191.299 Q2186.12 191.182 2185.04 191.182 Q2184.59 191.182 2184.38 191.159 Q2184.2 191.135 2184.03 191.018 Q2183.87 190.878 2183.87 190.596 Q2183.87 190.198 2184.03 189.987 Q2184.22 189.753 2184.36 189.706 Q2184.5 189.66 2184.78 189.636 Q2185.18 189.613 2186.52 189.496 Q2187.85 189.355 2189 189.261 Q2190.15 189.168 2190.64 189.168 Q2190.92 189.168 2191.06 189.308 Q2191.22 189.425 2191.25 189.566 L2191.27 189.683 L2187.52 204.931 Q2190.5 201.254 2194.62 201.254 Q2197.29 201.254 2198.72 202.636 Q2200.15 203.994 2200.15 206.383 Q2200.15 209.124 2197.22 216.923 Q2196.35 219.102 2196.35 220.343 Q2196.35 221.163 2196.61 221.538 Q2196.89 221.912 2197.5 221.912 Q2198.44 221.912 2199.26 221.374 Q2200.1 220.811 2200.69 219.898 Q2201.27 218.961 2201.67 218.024 Q2202.09 217.064 2202.4 215.986 Q2202.58 215.401 2202.68 215.26 Q2202.79 215.12 2203.12 215.12 Q2203.68 215.12 2203.68 215.588 Z" fill="#000000" fill-rule="evenodd" fill-opacity="1" /><path clip-path="url(#clip480)" d="M2208.56 196.142 Q2208.56 195.536 2208.61 195.355 Q2208.68 195.175 2208.94 194.896 L2215.38 187.715 Q2218.91 183.747 2218.91 180.288 Q2218.91 178.042 2217.73 176.435 Q2216.56 174.828 2214.41 174.828 Q2212.94 174.828 2211.69 175.73 Q2210.45 176.632 2209.87 178.238 Q2209.97 178.206 2210.32 178.206 Q2211.15 178.206 2211.61 178.73 Q2212.09 179.255 2212.09 179.96 Q2212.09 180.862 2211.5 181.304 Q2210.92 181.731 2210.35 181.731 Q2210.12 181.731 2209.81 181.681 Q2209.51 181.632 2209.04 181.173 Q2208.56 180.698 2208.56 179.861 Q2208.56 177.517 2210.33 175.648 Q2212.12 173.779 2214.84 173.779 Q2217.92 173.779 2219.94 175.615 Q2221.97 177.435 2221.97 180.288 Q2221.97 181.288 2221.66 182.206 Q2221.37 183.108 2220.96 183.813 Q2220.56 184.518 2219.48 185.649 Q2218.4 186.78 2217.53 187.584 Q2216.66 188.387 2214.71 190.092 L2211.15 193.552 L2217.2 193.552 Q2220.15 193.552 2220.38 193.29 Q2220.71 192.814 2221.12 190.306 L2221.97 190.306 L2221.02 196.142 L2208.56 196.142 Z" fill="#000000" fill-rule="evenodd" fill-opacity="1" /></svg>
