<?xml version="1.0" encoding="utf-8"?>
<svg xmlns="http://www.w3.org/2000/svg" xmlns:xlink="http://www.w3.org/1999/xlink" width="600" height="400" viewBox="0 0 2400 1600">
<defs>
  <clipPath id="clip500">
    <rect x="0" y="0" width="2400" height="1600"/>
  </clipPath>
</defs>
<path clip-path="url(#clip500)" d="
M0 1600 L2400 1600 L2400 0 L0 0  Z
  " fill="#ffffff" fill-rule="evenodd" fill-opacity="1"/>
<defs>
  <clipPath id="clip501">
    <rect x="480" y="0" width="1681" height="1600"/>
  </clipPath>
</defs>
<path clip-path="url(#clip500)" d="
M213.607 1486.45 L2352.76 1486.45 L2352.76 47.2441 L213.607 47.2441  Z
  " fill="#ffffff" fill-rule="evenodd" fill-opacity="1"/>
<defs>
  <clipPath id="clip502">
    <rect x="213" y="47" width="2140" height="1440"/>
  </clipPath>
</defs>
<polyline clip-path="url(#clip502)" style="stroke:#000000; stroke-linecap:butt; stroke-linejoin:round; stroke-width:2; stroke-opacity:0.1; fill:none" points="
  226.1,1486.45 226.1,47.2441 
  "/>
<polyline clip-path="url(#clip502)" style="stroke:#000000; stroke-linecap:butt; stroke-linejoin:round; stroke-width:2; stroke-opacity:0.1; fill:none" points="
  706.592,1486.45 706.592,47.2441 
  "/>
<polyline clip-path="url(#clip502)" style="stroke:#000000; stroke-linecap:butt; stroke-linejoin:round; stroke-width:2; stroke-opacity:0.1; fill:none" points="
  1187.08,1486.45 1187.08,47.2441 
  "/>
<polyline clip-path="url(#clip502)" style="stroke:#000000; stroke-linecap:butt; stroke-linejoin:round; stroke-width:2; stroke-opacity:0.1; fill:none" points="
  1667.57,1486.45 1667.57,47.2441 
  "/>
<polyline clip-path="url(#clip502)" style="stroke:#000000; stroke-linecap:butt; stroke-linejoin:round; stroke-width:2; stroke-opacity:0.1; fill:none" points="
  2148.07,1486.45 2148.07,47.2441 
  "/>
<polyline clip-path="url(#clip500)" style="stroke:#000000; stroke-linecap:butt; stroke-linejoin:round; stroke-width:4; stroke-opacity:1; fill:none" points="
  213.607,1486.45 2352.76,1486.45 
  "/>
<polyline clip-path="url(#clip500)" style="stroke:#000000; stroke-linecap:butt; stroke-linejoin:round; stroke-width:4; stroke-opacity:1; fill:none" points="
  226.1,1486.45 226.1,1467.55 
  "/>
<polyline clip-path="url(#clip500)" style="stroke:#000000; stroke-linecap:butt; stroke-linejoin:round; stroke-width:4; stroke-opacity:1; fill:none" points="
  706.592,1486.45 706.592,1467.55 
  "/>
<polyline clip-path="url(#clip500)" style="stroke:#000000; stroke-linecap:butt; stroke-linejoin:round; stroke-width:4; stroke-opacity:1; fill:none" points="
  1187.08,1486.45 1187.08,1467.55 
  "/>
<polyline clip-path="url(#clip500)" style="stroke:#000000; stroke-linecap:butt; stroke-linejoin:round; stroke-width:4; stroke-opacity:1; fill:none" points="
  1667.57,1486.45 1667.57,1467.55 
  "/>
<polyline clip-path="url(#clip500)" style="stroke:#000000; stroke-linecap:butt; stroke-linejoin:round; stroke-width:4; stroke-opacity:1; fill:none" points="
  2148.07,1486.45 2148.07,1467.55 
  "/>
<path clip-path="url(#clip500)" d="M226.1 1517.37 Q222.489 1517.37 220.66 1520.93 Q218.855 1524.47 218.855 1531.6 Q218.855 1538.71 220.66 1542.27 Q222.489 1545.82 226.1 1545.82 Q229.734 1545.82 231.54 1542.27 Q233.369 1538.71 233.369 1531.6 Q233.369 1524.47 231.54 1520.93 Q229.734 1517.37 226.1 1517.37 M226.1 1513.66 Q231.91 1513.66 234.966 1518.27 Q238.045 1522.85 238.045 1531.6 Q238.045 1540.33 234.966 1544.94 Q231.91 1549.52 226.1 1549.52 Q220.29 1549.52 217.211 1544.94 Q214.156 1540.33 214.156 1531.6 Q214.156 1522.85 217.211 1518.27 Q220.29 1513.66 226.1 1513.66 Z" fill="#000000" fill-rule="evenodd" fill-opacity="1" /><path clip-path="url(#clip500)" d="M681.279 1544.91 L688.918 1544.91 L688.918 1518.55 L680.608 1520.21 L680.608 1515.95 L688.872 1514.29 L693.548 1514.29 L693.548 1544.91 L701.187 1544.91 L701.187 1548.85 L681.279 1548.85 L681.279 1544.91 Z" fill="#000000" fill-rule="evenodd" fill-opacity="1" /><path clip-path="url(#clip500)" d="M720.631 1517.37 Q717.02 1517.37 715.191 1520.93 Q713.386 1524.47 713.386 1531.6 Q713.386 1538.71 715.191 1542.27 Q717.02 1545.82 720.631 1545.82 Q724.265 1545.82 726.071 1542.27 Q727.9 1538.71 727.9 1531.6 Q727.9 1524.47 726.071 1520.93 Q724.265 1517.37 720.631 1517.37 M720.631 1513.66 Q726.441 1513.66 729.497 1518.27 Q732.575 1522.85 732.575 1531.6 Q732.575 1540.33 729.497 1544.94 Q726.441 1549.52 720.631 1549.52 Q714.821 1549.52 711.742 1544.94 Q708.687 1540.33 708.687 1531.6 Q708.687 1522.85 711.742 1518.27 Q714.821 1513.66 720.631 1513.66 Z" fill="#000000" fill-rule="evenodd" fill-opacity="1" /><path clip-path="url(#clip500)" d="M1165.86 1544.91 L1182.18 1544.91 L1182.18 1548.85 L1160.23 1548.85 L1160.23 1544.91 Q1162.89 1542.16 1167.48 1537.53 Q1172.08 1532.88 1173.26 1531.53 Q1175.51 1529.01 1176.39 1527.27 Q1177.29 1525.51 1177.29 1523.82 Q1177.29 1521.07 1175.35 1519.33 Q1173.43 1517.6 1170.32 1517.6 Q1168.13 1517.6 1165.67 1518.36 Q1163.24 1519.13 1160.46 1520.68 L1160.46 1515.95 Q1163.29 1514.82 1165.74 1514.24 Q1168.19 1513.66 1170.23 1513.66 Q1175.6 1513.66 1178.8 1516.35 Q1181.99 1519.03 1181.99 1523.52 Q1181.99 1525.65 1181.18 1527.57 Q1180.39 1529.47 1178.29 1532.07 Q1177.71 1532.74 1174.61 1535.95 Q1171.5 1539.15 1165.86 1544.91 Z" fill="#000000" fill-rule="evenodd" fill-opacity="1" /><path clip-path="url(#clip500)" d="M1201.99 1517.37 Q1198.38 1517.37 1196.55 1520.93 Q1194.75 1524.47 1194.75 1531.6 Q1194.75 1538.71 1196.55 1542.27 Q1198.38 1545.82 1201.99 1545.82 Q1205.62 1545.82 1207.43 1542.27 Q1209.26 1538.71 1209.26 1531.6 Q1209.26 1524.47 1207.43 1520.93 Q1205.62 1517.37 1201.99 1517.37 M1201.99 1513.66 Q1207.8 1513.66 1210.86 1518.27 Q1213.94 1522.85 1213.94 1531.6 Q1213.94 1540.33 1210.86 1544.94 Q1207.8 1549.52 1201.99 1549.52 Q1196.18 1549.52 1193.1 1544.94 Q1190.05 1540.33 1190.05 1531.6 Q1190.05 1522.85 1193.1 1518.27 Q1196.18 1513.66 1201.99 1513.66 Z" fill="#000000" fill-rule="evenodd" fill-opacity="1" /><path clip-path="url(#clip500)" d="M1656.42 1530.21 Q1659.77 1530.93 1661.65 1533.2 Q1663.55 1535.47 1663.55 1538.8 Q1663.55 1543.92 1660.03 1546.72 Q1656.51 1549.52 1650.03 1549.52 Q1647.85 1549.52 1645.54 1549.08 Q1643.25 1548.66 1640.79 1547.81 L1640.79 1543.29 Q1642.74 1544.43 1645.05 1545.01 Q1647.37 1545.58 1649.89 1545.58 Q1654.29 1545.58 1656.58 1543.85 Q1658.89 1542.11 1658.89 1538.8 Q1658.89 1535.75 1656.74 1534.03 Q1654.61 1532.3 1650.79 1532.3 L1646.76 1532.3 L1646.76 1528.45 L1650.98 1528.45 Q1654.43 1528.45 1656.26 1527.09 Q1658.08 1525.7 1658.08 1523.11 Q1658.08 1520.45 1656.19 1519.03 Q1654.31 1517.6 1650.79 1517.6 Q1648.87 1517.6 1646.67 1518.01 Q1644.47 1518.43 1641.83 1519.31 L1641.83 1515.14 Q1644.5 1514.4 1646.81 1514.03 Q1649.15 1513.66 1651.21 1513.66 Q1656.53 1513.66 1659.64 1516.09 Q1662.74 1518.5 1662.74 1522.62 Q1662.74 1525.49 1661.09 1527.48 Q1659.45 1529.45 1656.42 1530.21 Z" fill="#000000" fill-rule="evenodd" fill-opacity="1" /><path clip-path="url(#clip500)" d="M1682.41 1517.37 Q1678.8 1517.37 1676.97 1520.93 Q1675.17 1524.47 1675.17 1531.6 Q1675.17 1538.71 1676.97 1542.27 Q1678.8 1545.82 1682.41 1545.82 Q1686.05 1545.82 1687.85 1542.27 Q1689.68 1538.71 1689.68 1531.6 Q1689.68 1524.47 1687.85 1520.93 Q1686.05 1517.37 1682.41 1517.37 M1682.41 1513.66 Q1688.22 1513.66 1691.28 1518.27 Q1694.36 1522.85 1694.36 1531.6 Q1694.36 1540.33 1691.28 1544.94 Q1688.22 1549.52 1682.41 1549.52 Q1676.6 1549.52 1673.52 1544.94 Q1670.47 1540.33 1670.47 1531.6 Q1670.47 1522.85 1673.52 1518.27 Q1676.6 1513.66 1682.41 1513.66 Z" fill="#000000" fill-rule="evenodd" fill-opacity="1" /><path clip-path="url(#clip500)" d="M2136.24 1518.36 L2124.43 1536.81 L2136.24 1536.81 L2136.24 1518.36 M2135.01 1514.29 L2140.89 1514.29 L2140.89 1536.81 L2145.82 1536.81 L2145.82 1540.7 L2140.89 1540.7 L2140.89 1548.85 L2136.24 1548.85 L2136.24 1540.7 L2120.64 1540.7 L2120.64 1536.19 L2135.01 1514.29 Z" fill="#000000" fill-rule="evenodd" fill-opacity="1" /><path clip-path="url(#clip500)" d="M2163.55 1517.37 Q2159.94 1517.37 2158.11 1520.93 Q2156.31 1524.47 2156.31 1531.6 Q2156.31 1538.71 2158.11 1542.27 Q2159.94 1545.82 2163.55 1545.82 Q2167.19 1545.82 2168.99 1542.27 Q2170.82 1538.71 2170.82 1531.6 Q2170.82 1524.47 2168.99 1520.93 Q2167.19 1517.37 2163.55 1517.37 M2163.55 1513.66 Q2169.36 1513.66 2172.42 1518.27 Q2175.5 1522.85 2175.5 1531.6 Q2175.5 1540.33 2172.42 1544.94 Q2169.36 1549.52 2163.55 1549.52 Q2157.74 1549.52 2154.66 1544.94 Q2151.61 1540.33 2151.61 1531.6 Q2151.61 1522.85 2154.66 1518.27 Q2157.74 1513.66 2163.55 1513.66 Z" fill="#000000" fill-rule="evenodd" fill-opacity="1" /><polyline clip-path="url(#clip502)" style="stroke:#000000; stroke-linecap:butt; stroke-linejoin:round; stroke-width:2; stroke-opacity:0.1; fill:none" points="
  213.607,1277.78 2352.76,1277.78 
  "/>
<polyline clip-path="url(#clip502)" style="stroke:#000000; stroke-linecap:butt; stroke-linejoin:round; stroke-width:2; stroke-opacity:0.1; fill:none" points="
  213.607,708.636 2352.76,708.636 
  "/>
<polyline clip-path="url(#clip502)" style="stroke:#000000; stroke-linecap:butt; stroke-linejoin:round; stroke-width:2; stroke-opacity:0.1; fill:none" points="
  213.607,139.49 2352.76,139.49 
  "/>
<polyline clip-path="url(#clip500)" style="stroke:#000000; stroke-linecap:butt; stroke-linejoin:round; stroke-width:4; stroke-opacity:1; fill:none" points="
  213.607,1486.45 213.607,47.2441 
  "/>
<polyline clip-path="url(#clip500)" style="stroke:#000000; stroke-linecap:butt; stroke-linejoin:round; stroke-width:4; stroke-opacity:1; fill:none" points="
  213.607,1277.78 232.505,1277.78 
  "/>
<polyline clip-path="url(#clip500)" style="stroke:#000000; stroke-linecap:butt; stroke-linejoin:round; stroke-width:4; stroke-opacity:1; fill:none" points="
  213.607,708.636 232.505,708.636 
  "/>
<polyline clip-path="url(#clip500)" style="stroke:#000000; stroke-linecap:butt; stroke-linejoin:round; stroke-width:4; stroke-opacity:1; fill:none" points="
  213.607,139.49 232.505,139.49 
  "/>
<path clip-path="url(#clip500)" d="M51.6634 1297.58 L59.3023 1297.58 L59.3023 1271.21 L50.9921 1272.88 L50.9921 1268.62 L59.256 1266.95 L63.9319 1266.95 L63.9319 1297.58 L71.5707 1297.58 L71.5707 1301.51 L51.6634 1301.51 L51.6634 1297.58 Z" fill="#000000" fill-rule="evenodd" fill-opacity="1" /><path clip-path="url(#clip500)" d="M91.0151 1270.03 Q87.404 1270.03 85.5753 1273.59 Q83.7697 1277.14 83.7697 1284.26 Q83.7697 1291.37 85.5753 1294.94 Q87.404 1298.48 91.0151 1298.48 Q94.6493 1298.48 96.4548 1294.94 Q98.2835 1291.37 98.2835 1284.26 Q98.2835 1277.14 96.4548 1273.59 Q94.6493 1270.03 91.0151 1270.03 M91.0151 1266.33 Q96.8252 1266.33 99.8808 1270.93 Q102.959 1275.52 102.959 1284.26 Q102.959 1292.99 99.8808 1297.6 Q96.8252 1302.18 91.0151 1302.18 Q85.2049 1302.18 82.1262 1297.6 Q79.0707 1292.99 79.0707 1284.26 Q79.0707 1275.52 82.1262 1270.93 Q85.2049 1266.33 91.0151 1266.33 Z" fill="#000000" fill-rule="evenodd" fill-opacity="1" /><path clip-path="url(#clip500)" d="M102.959 1260.43 L127.071 1260.43 L127.071 1263.62 L102.959 1263.62 L102.959 1260.43 Z" fill="#000000" fill-rule="evenodd" fill-opacity="1" /><path clip-path="url(#clip500)" d="M135.929 1270.9 L142.136 1270.9 L142.136 1249.48 L135.384 1250.83 L135.384 1247.37 L142.098 1246.02 L145.898 1246.02 L145.898 1270.9 L152.104 1270.9 L152.104 1274.1 L135.929 1274.1 L135.929 1270.9 Z" fill="#000000" fill-rule="evenodd" fill-opacity="1" /><path clip-path="url(#clip500)" d="M167.903 1248.52 Q164.969 1248.52 163.483 1251.42 Q162.016 1254.3 162.016 1260.09 Q162.016 1265.86 163.483 1268.76 Q164.969 1271.64 167.903 1271.64 Q170.855 1271.64 172.322 1268.76 Q173.808 1265.86 173.808 1260.09 Q173.808 1254.3 172.322 1251.42 Q170.855 1248.52 167.903 1248.52 M167.903 1245.51 Q172.623 1245.51 175.106 1249.25 Q177.607 1252.98 177.607 1260.09 Q177.607 1267.18 175.106 1270.92 Q172.623 1274.65 167.903 1274.65 Q163.182 1274.65 160.68 1270.92 Q158.198 1267.18 158.198 1260.09 Q158.198 1252.98 160.68 1249.25 Q163.182 1245.51 167.903 1245.51 Z" fill="#000000" fill-rule="evenodd" fill-opacity="1" /><path clip-path="url(#clip500)" d="M76.9787 728.429 L84.6175 728.429 L84.6175 702.063 L76.3074 703.73 L76.3074 699.471 L84.5712 697.804 L89.2471 697.804 L89.2471 728.429 L96.886 728.429 L96.886 732.364 L76.9787 732.364 L76.9787 728.429 Z" fill="#000000" fill-rule="evenodd" fill-opacity="1" /><path clip-path="url(#clip500)" d="M116.33 700.883 Q112.719 700.883 110.891 704.447 Q109.085 707.989 109.085 715.119 Q109.085 722.225 110.891 725.79 Q112.719 729.332 116.33 729.332 Q119.965 729.332 121.77 725.79 Q123.599 722.225 123.599 715.119 Q123.599 707.989 121.77 704.447 Q119.965 700.883 116.33 700.883 M116.33 697.179 Q122.14 697.179 125.196 701.785 Q128.275 706.369 128.275 715.119 Q128.275 723.845 125.196 728.452 Q122.14 733.035 116.33 733.035 Q110.52 733.035 107.441 728.452 Q104.386 723.845 104.386 715.119 Q104.386 706.369 107.441 701.785 Q110.52 697.179 116.33 697.179 Z" fill="#000000" fill-rule="evenodd" fill-opacity="1" /><path clip-path="url(#clip500)" d="M128.275 691.28 L152.386 691.28 L152.386 694.478 L128.275 694.478 L128.275 691.28 Z" fill="#000000" fill-rule="evenodd" fill-opacity="1" /><path clip-path="url(#clip500)" d="M160.624 676.874 L175.539 676.874 L175.539 680.071 L164.103 680.071 L164.103 686.955 Q164.931 686.672 165.759 686.541 Q166.586 686.39 167.414 686.39 Q172.116 686.39 174.862 688.967 Q177.607 691.544 177.607 695.945 Q177.607 700.477 174.786 702.998 Q171.965 705.499 166.831 705.499 Q165.063 705.499 163.22 705.198 Q161.395 704.897 159.439 704.295 L159.439 700.477 Q161.132 701.399 162.937 701.85 Q164.743 702.302 166.755 702.302 Q170.009 702.302 171.909 700.59 Q173.808 698.879 173.808 695.945 Q173.808 693.011 171.909 691.299 Q170.009 689.588 166.755 689.588 Q165.232 689.588 163.709 689.926 Q162.204 690.265 160.624 690.979 L160.624 676.874 Z" fill="#000000" fill-rule="evenodd" fill-opacity="1" /><path clip-path="url(#clip500)" d="M106.902 159.282 L114.541 159.282 L114.541 132.917 L106.231 134.584 L106.231 130.324 L114.494 128.658 L119.17 128.658 L119.17 159.282 L126.809 159.282 L126.809 163.218 L106.902 163.218 L106.902 159.282 Z" fill="#000000" fill-rule="evenodd" fill-opacity="1" /><path clip-path="url(#clip500)" d="M146.253 131.736 Q142.642 131.736 140.814 135.301 Q139.008 138.843 139.008 145.972 Q139.008 153.079 140.814 156.644 Q142.642 160.185 146.253 160.185 Q149.888 160.185 151.693 156.644 Q153.522 153.079 153.522 145.972 Q153.522 138.843 151.693 135.301 Q149.888 131.736 146.253 131.736 M146.253 128.033 Q152.064 128.033 155.119 132.639 Q158.198 137.222 158.198 145.972 Q158.198 154.699 155.119 159.306 Q152.064 163.889 146.253 163.889 Q140.443 163.889 137.365 159.306 Q134.309 154.699 134.309 145.972 Q134.309 137.222 137.365 132.639 Q140.443 128.033 146.253 128.033 Z" fill="#000000" fill-rule="evenodd" fill-opacity="1" /><path clip-path="url(#clip500)" d="M167.903 110.229 Q164.969 110.229 163.483 113.125 Q162.016 116.003 162.016 121.795 Q162.016 127.569 163.483 130.466 Q164.969 133.343 167.903 133.343 Q170.855 133.343 172.322 130.466 Q173.808 127.569 173.808 121.795 Q173.808 116.003 172.322 113.125 Q170.855 110.229 167.903 110.229 M167.903 107.219 Q172.623 107.219 175.106 110.962 Q177.607 114.686 177.607 121.795 Q177.607 128.886 175.106 132.629 Q172.623 136.353 167.903 136.353 Q163.182 136.353 160.68 132.629 Q158.198 128.886 158.198 121.795 Q158.198 114.686 160.68 110.962 Q163.182 107.219 167.903 107.219 Z" fill="#000000" fill-rule="evenodd" fill-opacity="1" /><polyline clip-path="url(#clip502)" style="stroke:#009af9; stroke-linecap:butt; stroke-linejoin:round; stroke-width:12; stroke-opacity:1; fill:none" points="
  274.149,87.9763 322.199,120.303 370.248,152.631 418.297,184.958 466.346,217.285 514.395,249.612 562.444,281.939 610.494,314.266 658.543,346.593 706.592,378.92 
  754.641,411.248 802.69,443.575 850.739,475.902 898.788,508.229 946.838,540.556 994.887,572.883 1042.94,605.21 1090.99,637.537 1139.03,669.865 1187.08,702.192 
  1235.13,734.519 1283.18,766.846 1331.23,799.173 1379.28,831.5 1427.33,863.827 1475.38,896.154 1523.43,928.482 1571.48,960.809 1619.53,993.136 1667.57,1025.46 
  1715.62,1057.79 1763.67,1090.12 1811.72,1122.44 1859.77,1154.77 1907.82,1187.1 1955.87,1219.43 2003.92,1251.75 2051.97,1284.08 2100.02,1316.41 2148.07,1348.73 
  2196.12,1381.06 2244.16,1413.39 2292.21,1445.72 
  "/>
<path clip-path="url(#clip500)" d="
M1991.34 198.898 L2281.45 198.898 L2281.45 95.2176 L1991.34 95.2176  Z
  " fill="#ffffff" fill-rule="evenodd" fill-opacity="1"/>
<polyline clip-path="url(#clip500)" style="stroke:#000000; stroke-linecap:butt; stroke-linejoin:round; stroke-width:4; stroke-opacity:1; fill:none" points="
  1991.34,198.898 2281.45,198.898 2281.45,95.2176 1991.34,95.2176 1991.34,198.898 
  "/>
<polyline clip-path="url(#clip500)" style="stroke:#009af9; stroke-linecap:butt; stroke-linejoin:round; stroke-width:4; stroke-opacity:1; fill:none" points="
  2015.11,147.058 2157.72,147.058 
  "/>
<path clip-path="url(#clip500)" d="M2195.33 166.745 Q2193.52 171.375 2191.81 172.787 Q2190.1 174.199 2187.22 174.199 L2183.82 174.199 L2183.82 170.634 L2186.32 170.634 Q2188.08 170.634 2189.05 169.8 Q2190.03 168.967 2191.21 165.865 L2191.97 163.921 L2181.48 138.412 L2186 138.412 L2194.1 158.689 L2202.2 138.412 L2206.72 138.412 L2195.33 166.745 Z" fill="#000000" fill-rule="evenodd" fill-opacity="1" /><path clip-path="url(#clip500)" d="M2214.01 160.402 L2221.65 160.402 L2221.65 134.037 L2213.34 135.703 L2213.34 131.444 L2221.6 129.778 L2226.28 129.778 L2226.28 160.402 L2233.91 160.402 L2233.91 164.338 L2214.01 164.338 L2214.01 160.402 Z" fill="#000000" fill-rule="evenodd" fill-opacity="1" /></svg>
