<?xml version="1.0" encoding="utf-8"?>
<svg xmlns="http://www.w3.org/2000/svg" xmlns:xlink="http://www.w3.org/1999/xlink" width="600" height="400" viewBox="0 0 2400 1600">
<defs>
  <clipPath id="clip130">
    <rect x="0" y="0" width="2400" height="1600"/>
  </clipPath>
</defs>
<path clip-path="url(#clip130)" d="
M0 1600 L2400 1600 L2400 0 L0 0  Z
  " fill="#ffffff" fill-rule="evenodd" fill-opacity="1"/>
<defs>
  <clipPath id="clip131">
    <rect x="480" y="0" width="1681" height="1600"/>
  </clipPath>
</defs>
<path clip-path="url(#clip130)" d="
M194.422 1486.45 L2352.76 1486.45 L2352.76 47.2441 L194.422 47.2441  Z
  " fill="#ffffff" fill-rule="evenodd" fill-opacity="1"/>
<defs>
  <clipPath id="clip132">
    <rect x="194" y="47" width="2159" height="1440"/>
  </clipPath>
</defs>
<polyline clip-path="url(#clip132)" style="stroke:#000000; stroke-linecap:butt; stroke-linejoin:round; stroke-width:2; stroke-opacity:0.1; fill:none" points="
  255.507,1486.45 255.507,47.2441 
  "/>
<polyline clip-path="url(#clip132)" style="stroke:#000000; stroke-linecap:butt; stroke-linejoin:round; stroke-width:2; stroke-opacity:0.1; fill:none" points="
  764.548,1486.45 764.548,47.2441 
  "/>
<polyline clip-path="url(#clip132)" style="stroke:#000000; stroke-linecap:butt; stroke-linejoin:round; stroke-width:2; stroke-opacity:0.1; fill:none" points="
  1273.59,1486.45 1273.59,47.2441 
  "/>
<polyline clip-path="url(#clip132)" style="stroke:#000000; stroke-linecap:butt; stroke-linejoin:round; stroke-width:2; stroke-opacity:0.1; fill:none" points="
  1782.63,1486.45 1782.63,47.2441 
  "/>
<polyline clip-path="url(#clip132)" style="stroke:#000000; stroke-linecap:butt; stroke-linejoin:round; stroke-width:2; stroke-opacity:0.1; fill:none" points="
  2291.67,1486.45 2291.67,47.2441 
  "/>
<polyline clip-path="url(#clip130)" style="stroke:#000000; stroke-linecap:butt; stroke-linejoin:round; stroke-width:4; stroke-opacity:1; fill:none" points="
  194.422,1486.45 2352.76,1486.45 
  "/>
<polyline clip-path="url(#clip130)" style="stroke:#000000; stroke-linecap:butt; stroke-linejoin:round; stroke-width:4; stroke-opacity:1; fill:none" points="
  255.507,1486.45 255.507,1467.55 
  "/>
<polyline clip-path="url(#clip130)" style="stroke:#000000; stroke-linecap:butt; stroke-linejoin:round; stroke-width:4; stroke-opacity:1; fill:none" points="
  764.548,1486.45 764.548,1467.55 
  "/>
<polyline clip-path="url(#clip130)" style="stroke:#000000; stroke-linecap:butt; stroke-linejoin:round; stroke-width:4; stroke-opacity:1; fill:none" points="
  1273.59,1486.45 1273.59,1467.55 
  "/>
<polyline clip-path="url(#clip130)" style="stroke:#000000; stroke-linecap:butt; stroke-linejoin:round; stroke-width:4; stroke-opacity:1; fill:none" points="
  1782.63,1486.45 1782.63,1467.55 
  "/>
<polyline clip-path="url(#clip130)" style="stroke:#000000; stroke-linecap:butt; stroke-linejoin:round; stroke-width:4; stroke-opacity:1; fill:none" points="
  2291.67,1486.45 2291.67,1467.55 
  "/>
<path clip-path="url(#clip130)" d="M202.035 1532.02 L231.711 1532.02 L231.711 1535.95 L202.035 1535.95 L202.035 1532.02 Z" fill="#000000" fill-rule="evenodd" fill-opacity="1" /><path clip-path="url(#clip130)" d="M242.614 1544.91 L250.252 1544.91 L250.252 1518.55 L241.942 1520.21 L241.942 1515.95 L250.206 1514.29 L254.882 1514.29 L254.882 1544.91 L262.521 1544.91 L262.521 1548.85 L242.614 1548.85 L242.614 1544.91 Z" fill="#000000" fill-rule="evenodd" fill-opacity="1" /><path clip-path="url(#clip130)" d="M271.965 1542.97 L276.85 1542.97 L276.85 1548.85 L271.965 1548.85 L271.965 1542.97 Z" fill="#000000" fill-rule="evenodd" fill-opacity="1" /><path clip-path="url(#clip130)" d="M297.035 1517.37 Q293.423 1517.37 291.595 1520.93 Q289.789 1524.47 289.789 1531.6 Q289.789 1538.71 291.595 1542.27 Q293.423 1545.82 297.035 1545.82 Q300.669 1545.82 302.474 1542.27 Q304.303 1538.71 304.303 1531.6 Q304.303 1524.47 302.474 1520.93 Q300.669 1517.37 297.035 1517.37 M297.035 1513.66 Q302.845 1513.66 305.9 1518.27 Q308.979 1522.85 308.979 1531.6 Q308.979 1540.33 305.9 1544.94 Q302.845 1549.52 297.035 1549.52 Q291.224 1549.52 288.146 1544.94 Q285.09 1540.33 285.09 1531.6 Q285.09 1522.85 288.146 1518.27 Q291.224 1513.66 297.035 1513.66 Z" fill="#000000" fill-rule="evenodd" fill-opacity="1" /><path clip-path="url(#clip130)" d="M711.574 1532.02 L741.25 1532.02 L741.25 1535.95 L711.574 1535.95 L711.574 1532.02 Z" fill="#000000" fill-rule="evenodd" fill-opacity="1" /><path clip-path="url(#clip130)" d="M761.342 1517.37 Q757.731 1517.37 755.902 1520.93 Q754.097 1524.47 754.097 1531.6 Q754.097 1538.71 755.902 1542.27 Q757.731 1545.82 761.342 1545.82 Q764.976 1545.82 766.782 1542.27 Q768.61 1538.71 768.61 1531.6 Q768.61 1524.47 766.782 1520.93 Q764.976 1517.37 761.342 1517.37 M761.342 1513.66 Q767.152 1513.66 770.208 1518.27 Q773.286 1522.85 773.286 1531.6 Q773.286 1540.33 770.208 1544.94 Q767.152 1549.52 761.342 1549.52 Q755.532 1549.52 752.453 1544.94 Q749.398 1540.33 749.398 1531.6 Q749.398 1522.85 752.453 1518.27 Q755.532 1513.66 761.342 1513.66 Z" fill="#000000" fill-rule="evenodd" fill-opacity="1" /><path clip-path="url(#clip130)" d="M781.504 1542.97 L786.388 1542.97 L786.388 1548.85 L781.504 1548.85 L781.504 1542.97 Z" fill="#000000" fill-rule="evenodd" fill-opacity="1" /><path clip-path="url(#clip130)" d="M796.62 1514.29 L814.976 1514.29 L814.976 1518.22 L800.902 1518.22 L800.902 1526.7 Q801.921 1526.35 802.939 1526.19 Q803.958 1526 804.976 1526 Q810.763 1526 814.143 1529.17 Q817.522 1532.34 817.522 1537.76 Q817.522 1543.34 814.05 1546.44 Q810.578 1549.52 804.258 1549.52 Q802.083 1549.52 799.814 1549.15 Q797.569 1548.78 795.161 1548.04 L795.161 1543.34 Q797.245 1544.47 799.467 1545.03 Q801.689 1545.58 804.166 1545.58 Q808.17 1545.58 810.508 1543.48 Q812.846 1541.37 812.846 1537.76 Q812.846 1534.15 810.508 1532.04 Q808.17 1529.94 804.166 1529.94 Q802.291 1529.94 800.416 1530.35 Q798.564 1530.77 796.62 1531.65 L796.62 1514.29 Z" fill="#000000" fill-rule="evenodd" fill-opacity="1" /><path clip-path="url(#clip130)" d="M1250.97 1517.37 Q1247.36 1517.37 1245.53 1520.93 Q1243.73 1524.47 1243.73 1531.6 Q1243.73 1538.71 1245.53 1542.27 Q1247.36 1545.82 1250.97 1545.82 Q1254.61 1545.82 1256.41 1542.27 Q1258.24 1538.71 1258.24 1531.6 Q1258.24 1524.47 1256.41 1520.93 Q1254.61 1517.37 1250.97 1517.37 M1250.97 1513.66 Q1256.78 1513.66 1259.84 1518.27 Q1262.92 1522.85 1262.92 1531.6 Q1262.92 1540.33 1259.84 1544.94 Q1256.78 1549.52 1250.97 1549.52 Q1245.16 1549.52 1242.08 1544.94 Q1239.03 1540.33 1239.03 1531.6 Q1239.03 1522.85 1242.08 1518.27 Q1245.16 1513.66 1250.97 1513.66 Z" fill="#000000" fill-rule="evenodd" fill-opacity="1" /><path clip-path="url(#clip130)" d="M1271.14 1542.97 L1276.02 1542.97 L1276.02 1548.85 L1271.14 1548.85 L1271.14 1542.97 Z" fill="#000000" fill-rule="evenodd" fill-opacity="1" /><path clip-path="url(#clip130)" d="M1296.2 1517.37 Q1292.59 1517.37 1290.76 1520.93 Q1288.96 1524.47 1288.96 1531.6 Q1288.96 1538.71 1290.76 1542.27 Q1292.59 1545.82 1296.2 1545.82 Q1299.84 1545.82 1301.64 1542.27 Q1303.47 1538.71 1303.47 1531.6 Q1303.47 1524.47 1301.64 1520.93 Q1299.84 1517.37 1296.2 1517.37 M1296.2 1513.66 Q1302.01 1513.66 1305.07 1518.27 Q1308.15 1522.85 1308.15 1531.6 Q1308.15 1540.33 1305.07 1544.94 Q1302.01 1549.52 1296.2 1549.52 Q1290.39 1549.52 1287.32 1544.94 Q1284.26 1540.33 1284.26 1531.6 Q1284.26 1522.85 1287.32 1518.27 Q1290.39 1513.66 1296.2 1513.66 Z" fill="#000000" fill-rule="evenodd" fill-opacity="1" /><path clip-path="url(#clip130)" d="M1760.51 1517.37 Q1756.9 1517.37 1755.07 1520.93 Q1753.27 1524.47 1753.27 1531.6 Q1753.27 1538.71 1755.07 1542.27 Q1756.9 1545.82 1760.51 1545.82 Q1764.15 1545.82 1765.95 1542.27 Q1767.78 1538.71 1767.78 1531.6 Q1767.78 1524.47 1765.95 1520.93 Q1764.15 1517.37 1760.51 1517.37 M1760.51 1513.66 Q1766.32 1513.66 1769.38 1518.27 Q1772.46 1522.85 1772.46 1531.6 Q1772.46 1540.33 1769.38 1544.94 Q1766.32 1549.52 1760.51 1549.52 Q1754.7 1549.52 1751.62 1544.94 Q1748.57 1540.33 1748.57 1531.6 Q1748.57 1522.85 1751.62 1518.27 Q1754.7 1513.66 1760.51 1513.66 Z" fill="#000000" fill-rule="evenodd" fill-opacity="1" /><path clip-path="url(#clip130)" d="M1780.67 1542.97 L1785.56 1542.97 L1785.56 1548.85 L1780.67 1548.85 L1780.67 1542.97 Z" fill="#000000" fill-rule="evenodd" fill-opacity="1" /><path clip-path="url(#clip130)" d="M1795.79 1514.29 L1814.15 1514.29 L1814.15 1518.22 L1800.07 1518.22 L1800.07 1526.7 Q1801.09 1526.35 1802.11 1526.19 Q1803.13 1526 1804.15 1526 Q1809.93 1526 1813.31 1529.17 Q1816.69 1532.34 1816.69 1537.76 Q1816.69 1543.34 1813.22 1546.44 Q1809.75 1549.52 1803.43 1549.52 Q1801.25 1549.52 1798.98 1549.15 Q1796.74 1548.78 1794.33 1548.04 L1794.33 1543.34 Q1796.41 1544.47 1798.64 1545.03 Q1800.86 1545.58 1803.34 1545.58 Q1807.34 1545.58 1809.68 1543.48 Q1812.02 1541.37 1812.02 1537.76 Q1812.02 1534.15 1809.68 1532.04 Q1807.34 1529.94 1803.34 1529.94 Q1801.46 1529.94 1799.59 1530.35 Q1797.73 1530.77 1795.79 1531.65 L1795.79 1514.29 Z" fill="#000000" fill-rule="evenodd" fill-opacity="1" /><path clip-path="url(#clip130)" d="M2258.82 1544.91 L2266.46 1544.91 L2266.46 1518.55 L2258.15 1520.21 L2258.15 1515.95 L2266.42 1514.29 L2271.09 1514.29 L2271.09 1544.91 L2278.73 1544.91 L2278.73 1548.85 L2258.82 1548.85 L2258.82 1544.91 Z" fill="#000000" fill-rule="evenodd" fill-opacity="1" /><path clip-path="url(#clip130)" d="M2288.18 1542.97 L2293.06 1542.97 L2293.06 1548.85 L2288.18 1548.85 L2288.18 1542.97 Z" fill="#000000" fill-rule="evenodd" fill-opacity="1" /><path clip-path="url(#clip130)" d="M2313.24 1517.37 Q2309.63 1517.37 2307.81 1520.93 Q2306 1524.47 2306 1531.6 Q2306 1538.71 2307.81 1542.27 Q2309.63 1545.82 2313.24 1545.82 Q2316.88 1545.82 2318.68 1542.27 Q2320.51 1538.71 2320.51 1531.6 Q2320.51 1524.47 2318.68 1520.93 Q2316.88 1517.37 2313.24 1517.37 M2313.24 1513.66 Q2319.06 1513.66 2322.11 1518.27 Q2325.19 1522.85 2325.19 1531.6 Q2325.19 1540.33 2322.11 1544.94 Q2319.06 1549.52 2313.24 1549.52 Q2307.43 1549.52 2304.36 1544.94 Q2301.3 1540.33 2301.3 1531.6 Q2301.3 1522.85 2304.36 1518.27 Q2307.43 1513.66 2313.24 1513.66 Z" fill="#000000" fill-rule="evenodd" fill-opacity="1" /><polyline clip-path="url(#clip132)" style="stroke:#000000; stroke-linecap:butt; stroke-linejoin:round; stroke-width:2; stroke-opacity:0.1; fill:none" points="
  194.422,1352.02 2352.76,1352.02 
  "/>
<polyline clip-path="url(#clip132)" style="stroke:#000000; stroke-linecap:butt; stroke-linejoin:round; stroke-width:2; stroke-opacity:0.1; fill:none" points="
  194.422,1081.96 2352.76,1081.96 
  "/>
<polyline clip-path="url(#clip132)" style="stroke:#000000; stroke-linecap:butt; stroke-linejoin:round; stroke-width:2; stroke-opacity:0.1; fill:none" points="
  194.422,811.895 2352.76,811.895 
  "/>
<polyline clip-path="url(#clip132)" style="stroke:#000000; stroke-linecap:butt; stroke-linejoin:round; stroke-width:2; stroke-opacity:0.1; fill:none" points="
  194.422,541.83 2352.76,541.83 
  "/>
<polyline clip-path="url(#clip132)" style="stroke:#000000; stroke-linecap:butt; stroke-linejoin:round; stroke-width:2; stroke-opacity:0.1; fill:none" points="
  194.422,271.766 2352.76,271.766 
  "/>
<polyline clip-path="url(#clip130)" style="stroke:#000000; stroke-linecap:butt; stroke-linejoin:round; stroke-width:4; stroke-opacity:1; fill:none" points="
  194.422,1486.45 194.422,47.2441 
  "/>
<polyline clip-path="url(#clip130)" style="stroke:#000000; stroke-linecap:butt; stroke-linejoin:round; stroke-width:4; stroke-opacity:1; fill:none" points="
  194.422,1352.02 213.32,1352.02 
  "/>
<polyline clip-path="url(#clip130)" style="stroke:#000000; stroke-linecap:butt; stroke-linejoin:round; stroke-width:4; stroke-opacity:1; fill:none" points="
  194.422,1081.96 213.32,1081.96 
  "/>
<polyline clip-path="url(#clip130)" style="stroke:#000000; stroke-linecap:butt; stroke-linejoin:round; stroke-width:4; stroke-opacity:1; fill:none" points="
  194.422,811.895 213.32,811.895 
  "/>
<polyline clip-path="url(#clip130)" style="stroke:#000000; stroke-linecap:butt; stroke-linejoin:round; stroke-width:4; stroke-opacity:1; fill:none" points="
  194.422,541.83 213.32,541.83 
  "/>
<polyline clip-path="url(#clip130)" style="stroke:#000000; stroke-linecap:butt; stroke-linejoin:round; stroke-width:4; stroke-opacity:1; fill:none" points="
  194.422,271.766 213.32,271.766 
  "/>
<path clip-path="url(#clip130)" d="M50.9921 1352.48 L80.6679 1352.48 L80.6679 1356.41 L50.9921 1356.41 L50.9921 1352.48 Z" fill="#000000" fill-rule="evenodd" fill-opacity="1" /><path clip-path="url(#clip130)" d="M100.76 1337.82 Q97.1493 1337.82 95.3206 1341.39 Q93.515 1344.93 93.515 1352.06 Q93.515 1359.16 95.3206 1362.73 Q97.1493 1366.27 100.76 1366.27 Q104.395 1366.27 106.2 1362.73 Q108.029 1359.16 108.029 1352.06 Q108.029 1344.93 106.2 1341.39 Q104.395 1337.82 100.76 1337.82 M100.76 1334.12 Q106.571 1334.12 109.626 1338.73 Q112.705 1343.31 112.705 1352.06 Q112.705 1360.79 109.626 1365.39 Q106.571 1369.98 100.76 1369.98 Q94.9502 1369.98 91.8715 1365.39 Q88.816 1360.79 88.816 1352.06 Q88.816 1343.31 91.8715 1338.73 Q94.9502 1334.12 100.76 1334.12 Z" fill="#000000" fill-rule="evenodd" fill-opacity="1" /><path clip-path="url(#clip130)" d="M120.922 1363.42 L125.807 1363.42 L125.807 1369.3 L120.922 1369.3 L120.922 1363.42 Z" fill="#000000" fill-rule="evenodd" fill-opacity="1" /><path clip-path="url(#clip130)" d="M148.839 1338.82 L137.033 1357.27 L148.839 1357.27 L148.839 1338.82 M147.612 1334.74 L153.492 1334.74 L153.492 1357.27 L158.422 1357.27 L158.422 1361.16 L153.492 1361.16 L153.492 1369.3 L148.839 1369.3 L148.839 1361.16 L133.237 1361.16 L133.237 1356.64 L147.612 1334.74 Z" fill="#000000" fill-rule="evenodd" fill-opacity="1" /><path clip-path="url(#clip130)" d="M53.0754 1082.41 L82.7512 1082.41 L82.7512 1086.35 L53.0754 1086.35 L53.0754 1082.41 Z" fill="#000000" fill-rule="evenodd" fill-opacity="1" /><path clip-path="url(#clip130)" d="M102.844 1067.76 Q99.2326 1067.76 97.4039 1071.32 Q95.5984 1074.86 95.5984 1081.99 Q95.5984 1089.1 97.4039 1092.67 Q99.2326 1096.21 102.844 1096.21 Q106.478 1096.21 108.283 1092.67 Q110.112 1089.1 110.112 1081.99 Q110.112 1074.86 108.283 1071.32 Q106.478 1067.76 102.844 1067.76 M102.844 1064.05 Q108.654 1064.05 111.709 1068.66 Q114.788 1073.24 114.788 1081.99 Q114.788 1090.72 111.709 1095.33 Q108.654 1099.91 102.844 1099.91 Q97.0335 1099.91 93.9549 1095.33 Q90.8993 1090.72 90.8993 1081.99 Q90.8993 1073.24 93.9549 1068.66 Q97.0335 1064.05 102.844 1064.05 Z" fill="#000000" fill-rule="evenodd" fill-opacity="1" /><path clip-path="url(#clip130)" d="M123.006 1093.36 L127.89 1093.36 L127.89 1099.24 L123.006 1099.24 L123.006 1093.36 Z" fill="#000000" fill-rule="evenodd" fill-opacity="1" /><path clip-path="url(#clip130)" d="M142.103 1095.3 L158.422 1095.3 L158.422 1099.24 L136.478 1099.24 L136.478 1095.3 Q139.14 1092.55 143.723 1087.92 Q148.33 1083.27 149.51 1081.92 Q151.755 1079.4 152.635 1077.67 Q153.538 1075.91 153.538 1074.22 Q153.538 1071.46 151.593 1069.73 Q149.672 1067.99 146.57 1067.99 Q144.371 1067.99 141.918 1068.75 Q139.487 1069.52 136.709 1071.07 L136.709 1066.35 Q139.533 1065.21 141.987 1064.63 Q144.441 1064.05 146.478 1064.05 Q151.848 1064.05 155.042 1066.74 Q158.237 1069.42 158.237 1073.92 Q158.237 1076.04 157.427 1077.97 Q156.64 1079.86 154.533 1082.46 Q153.955 1083.13 150.853 1086.35 Q147.751 1089.54 142.103 1095.3 Z" fill="#000000" fill-rule="evenodd" fill-opacity="1" /><path clip-path="url(#clip130)" d="M101.246 797.694 Q97.6354 797.694 95.8067 801.258 Q94.0012 804.8 94.0012 811.93 Q94.0012 819.036 95.8067 822.601 Q97.6354 826.142 101.246 826.142 Q104.881 826.142 106.686 822.601 Q108.515 819.036 108.515 811.93 Q108.515 804.8 106.686 801.258 Q104.881 797.694 101.246 797.694 M101.246 793.99 Q107.057 793.99 110.112 798.596 Q113.191 803.18 113.191 811.93 Q113.191 820.656 110.112 825.263 Q107.057 829.846 101.246 829.846 Q95.4363 829.846 92.3576 825.263 Q89.3021 820.656 89.3021 811.93 Q89.3021 803.18 92.3576 798.596 Q95.4363 793.99 101.246 793.99 Z" fill="#000000" fill-rule="evenodd" fill-opacity="1" /><path clip-path="url(#clip130)" d="M121.408 823.295 L126.293 823.295 L126.293 829.175 L121.408 829.175 L121.408 823.295 Z" fill="#000000" fill-rule="evenodd" fill-opacity="1" /><path clip-path="url(#clip130)" d="M146.478 797.694 Q142.867 797.694 141.038 801.258 Q139.232 804.8 139.232 811.93 Q139.232 819.036 141.038 822.601 Q142.867 826.142 146.478 826.142 Q150.112 826.142 151.918 822.601 Q153.746 819.036 153.746 811.93 Q153.746 804.8 151.918 801.258 Q150.112 797.694 146.478 797.694 M146.478 793.99 Q152.288 793.99 155.343 798.596 Q158.422 803.18 158.422 811.93 Q158.422 820.656 155.343 825.263 Q152.288 829.846 146.478 829.846 Q140.668 829.846 137.589 825.263 Q134.533 820.656 134.533 811.93 Q134.533 803.18 137.589 798.596 Q140.668 793.99 146.478 793.99 Z" fill="#000000" fill-rule="evenodd" fill-opacity="1" /><path clip-path="url(#clip130)" d="M102.844 527.629 Q99.2326 527.629 97.4039 531.194 Q95.5984 534.735 95.5984 541.865 Q95.5984 548.972 97.4039 552.536 Q99.2326 556.078 102.844 556.078 Q106.478 556.078 108.283 552.536 Q110.112 548.972 110.112 541.865 Q110.112 534.735 108.283 531.194 Q106.478 527.629 102.844 527.629 M102.844 523.925 Q108.654 523.925 111.709 528.532 Q114.788 533.115 114.788 541.865 Q114.788 550.592 111.709 555.198 Q108.654 559.782 102.844 559.782 Q97.0335 559.782 93.9549 555.198 Q90.8993 550.592 90.8993 541.865 Q90.8993 533.115 93.9549 528.532 Q97.0335 523.925 102.844 523.925 Z" fill="#000000" fill-rule="evenodd" fill-opacity="1" /><path clip-path="url(#clip130)" d="M123.006 553.231 L127.89 553.231 L127.89 559.11 L123.006 559.11 L123.006 553.231 Z" fill="#000000" fill-rule="evenodd" fill-opacity="1" /><path clip-path="url(#clip130)" d="M142.103 555.175 L158.422 555.175 L158.422 559.11 L136.478 559.11 L136.478 555.175 Q139.14 552.421 143.723 547.791 Q148.33 543.138 149.51 541.796 Q151.755 539.273 152.635 537.536 Q153.538 535.777 153.538 534.087 Q153.538 531.333 151.593 529.597 Q149.672 527.861 146.57 527.861 Q144.371 527.861 141.918 528.624 Q139.487 529.388 136.709 530.939 L136.709 526.217 Q139.533 525.083 141.987 524.504 Q144.441 523.925 146.478 523.925 Q151.848 523.925 155.042 526.611 Q158.237 529.296 158.237 533.786 Q158.237 535.916 157.427 537.837 Q156.64 539.735 154.533 542.328 Q153.955 542.999 150.853 546.217 Q147.751 549.411 142.103 555.175 Z" fill="#000000" fill-rule="evenodd" fill-opacity="1" /><path clip-path="url(#clip130)" d="M100.76 257.565 Q97.1493 257.565 95.3206 261.129 Q93.515 264.671 93.515 271.801 Q93.515 278.907 95.3206 282.472 Q97.1493 286.014 100.76 286.014 Q104.395 286.014 106.2 282.472 Q108.029 278.907 108.029 271.801 Q108.029 264.671 106.2 261.129 Q104.395 257.565 100.76 257.565 M100.76 253.861 Q106.571 253.861 109.626 258.467 Q112.705 263.051 112.705 271.801 Q112.705 280.527 109.626 285.134 Q106.571 289.717 100.76 289.717 Q94.9502 289.717 91.8715 285.134 Q88.816 280.527 88.816 271.801 Q88.816 263.051 91.8715 258.467 Q94.9502 253.861 100.76 253.861 Z" fill="#000000" fill-rule="evenodd" fill-opacity="1" /><path clip-path="url(#clip130)" d="M120.922 283.166 L125.807 283.166 L125.807 289.046 L120.922 289.046 L120.922 283.166 Z" fill="#000000" fill-rule="evenodd" fill-opacity="1" /><path clip-path="url(#clip130)" d="M148.839 258.56 L137.033 277.009 L148.839 277.009 L148.839 258.56 M147.612 254.486 L153.492 254.486 L153.492 277.009 L158.422 277.009 L158.422 280.898 L153.492 280.898 L153.492 289.046 L148.839 289.046 L148.839 280.898 L133.237 280.898 L133.237 276.384 L147.612 254.486 Z" fill="#000000" fill-rule="evenodd" fill-opacity="1" /><circle clip-path="url(#clip132)" cx="255.507" cy="789.379" r="14.4" fill="#009af9" fill-rule="evenodd" fill-opacity="1" stroke="#000000" stroke-opacity="1" stroke-width="3.2"/>
<circle clip-path="url(#clip132)" cx="459.123" cy="699.305" r="14.4" fill="#009af9" fill-rule="evenodd" fill-opacity="1" stroke="#000000" stroke-opacity="1" stroke-width="3.2"/>
<circle clip-path="url(#clip132)" cx="662.74" cy="1040.39" r="14.4" fill="#009af9" fill-rule="evenodd" fill-opacity="1" stroke="#000000" stroke-opacity="1" stroke-width="3.2"/>
<circle clip-path="url(#clip132)" cx="866.356" cy="384.656" r="14.4" fill="#009af9" fill-rule="evenodd" fill-opacity="1" stroke="#000000" stroke-opacity="1" stroke-width="3.2"/>
<circle clip-path="url(#clip132)" cx="1069.97" cy="1445.72" r="14.4" fill="#009af9" fill-rule="evenodd" fill-opacity="1" stroke="#000000" stroke-opacity="1" stroke-width="3.2"/>
<circle clip-path="url(#clip132)" cx="1273.59" cy="87.9763" r="14.4" fill="#009af9" fill-rule="evenodd" fill-opacity="1" stroke="#000000" stroke-opacity="1" stroke-width="3.2"/>
<circle clip-path="url(#clip132)" cx="1477.21" cy="1445.72" r="14.4" fill="#009af9" fill-rule="evenodd" fill-opacity="1" stroke="#000000" stroke-opacity="1" stroke-width="3.2"/>
<circle clip-path="url(#clip132)" cx="1680.82" cy="384.656" r="14.4" fill="#009af9" fill-rule="evenodd" fill-opacity="1" stroke="#000000" stroke-opacity="1" stroke-width="3.2"/>
<circle clip-path="url(#clip132)" cx="1884.44" cy="1040.39" r="14.4" fill="#009af9" fill-rule="evenodd" fill-opacity="1" stroke="#000000" stroke-opacity="1" stroke-width="3.2"/>
<circle clip-path="url(#clip132)" cx="2088.05" cy="699.305" r="14.4" fill="#009af9" fill-rule="evenodd" fill-opacity="1" stroke="#000000" stroke-opacity="1" stroke-width="3.2"/>
<circle clip-path="url(#clip132)" cx="2291.67" cy="789.379" r="14.4" fill="#009af9" fill-rule="evenodd" fill-opacity="1" stroke="#000000" stroke-opacity="1" stroke-width="3.2"/>
<polyline clip-path="url(#clip132)" style="stroke:#e26f46; stroke-linecap:butt; stroke-linejoin:round; stroke-width:12; stroke-opacity:1; fill:none" points="
  255.507,811.247 276.074,538.979 296.642,406.771 317.209,370.244 337.776,395.283 358.344,456.225 378.911,534.293 399.478,616.255 420.046,693.27 440.613,759.916 
  461.18,813.371 481.747,852.738 502.315,878.478 522.882,891.962 543.449,895.111 564.017,890.11 584.584,879.196 605.151,864.501 625.719,847.943 646.286,831.159 
  666.853,815.466 687.421,801.848 707.988,790.972 728.555,783.202 749.123,778.641 769.69,777.169 790.257,778.484 810.824,782.155 831.392,787.66 851.959,794.429 
  872.526,801.885 893.094,809.471 913.661,816.685 934.228,823.091 954.796,828.345 975.363,832.197 995.93,834.499 1016.5,835.203 1037.06,834.354 1057.63,832.083 
  1078.2,828.594 1098.77,824.149 1119.33,819.049 1139.9,813.622 1160.47,808.201 1181.04,803.108 1201.6,798.638 1222.17,795.046 1242.74,792.534 1263.31,791.242 
  1283.87,791.242 1304.44,792.534 1325.01,795.046 1345.57,798.638 1366.14,803.108 1386.71,808.201 1407.28,813.622 1427.84,819.049 1448.41,824.149 1468.98,828.594 
  1489.55,832.083 1510.11,834.354 1530.68,835.203 1551.25,834.499 1571.82,832.197 1592.38,828.345 1612.95,823.091 1633.52,816.685 1654.08,809.471 1674.65,801.885 
  1695.22,794.429 1715.79,787.66 1736.35,782.155 1756.92,778.484 1777.49,777.169 1798.06,778.641 1818.62,783.202 1839.19,790.972 1859.76,801.848 1880.32,815.466 
  1900.89,831.159 1921.46,847.943 1942.03,864.501 1962.59,879.196 1983.16,890.11 2003.73,895.111 2024.3,891.962 2044.86,878.478 2065.43,852.738 2086,813.371 
  2106.57,759.916 2127.13,693.27 2147.7,616.255 2168.27,534.293 2188.83,456.225 2209.4,395.283 2229.97,370.244 2250.54,406.771 2271.1,538.979 2291.67,811.247 
  
  "/>
<path clip-path="url(#clip130)" d="
M1988.57 250.738 L2280.81 250.738 L2280.81 95.2176 L1988.57 95.2176  Z
  " fill="#ffffff" fill-rule="evenodd" fill-opacity="1"/>
<polyline clip-path="url(#clip130)" style="stroke:#000000; stroke-linecap:butt; stroke-linejoin:round; stroke-width:4; stroke-opacity:1; fill:none" points="
  1988.57,250.738 2280.81,250.738 2280.81,95.2176 1988.57,95.2176 1988.57,250.738 
  "/>
<circle clip-path="url(#clip130)" cx="2084.49" cy="147.058" r="23.04" fill="#009af9" fill-rule="evenodd" fill-opacity="1" stroke="#000000" stroke-opacity="1" stroke-width="5.12"/>
<path clip-path="url(#clip130)" d="M2194.26 166.745 Q2192.46 171.375 2190.74 172.787 Q2189.03 174.199 2186.16 174.199 L2182.76 174.199 L2182.76 170.634 L2185.26 170.634 Q2187.02 170.634 2187.99 169.8 Q2188.96 168.967 2190.14 165.865 L2190.9 163.921 L2180.42 138.412 L2184.93 138.412 L2193.03 158.689 L2201.14 138.412 L2205.65 138.412 L2194.26 166.745 Z" fill="#000000" fill-rule="evenodd" fill-opacity="1" /><path clip-path="url(#clip130)" d="M2212.94 160.402 L2220.58 160.402 L2220.58 134.037 L2212.27 135.703 L2212.27 131.444 L2220.53 129.778 L2225.21 129.778 L2225.21 160.402 L2232.85 160.402 L2232.85 164.338 L2212.94 164.338 L2212.94 160.402 Z" fill="#000000" fill-rule="evenodd" fill-opacity="1" /><polyline clip-path="url(#clip130)" style="stroke:#e26f46; stroke-linecap:butt; stroke-linejoin:round; stroke-width:4; stroke-opacity:1; fill:none" points="
  2012.55,198.898 2156.44,198.898 
  "/>
<path clip-path="url(#clip130)" d="M2194.26 218.585 Q2192.46 223.215 2190.74 224.627 Q2189.03 226.039 2186.16 226.039 L2182.76 226.039 L2182.76 222.474 L2185.26 222.474 Q2187.02 222.474 2187.99 221.64 Q2188.96 220.807 2190.14 217.705 L2190.9 215.761 L2180.42 190.252 L2184.93 190.252 L2193.03 210.529 L2201.14 190.252 L2205.65 190.252 L2194.26 218.585 Z" fill="#000000" fill-rule="evenodd" fill-opacity="1" /><path clip-path="url(#clip130)" d="M2216.16 212.242 L2232.48 212.242 L2232.48 216.178 L2210.53 216.178 L2210.53 212.242 Q2213.2 209.488 2217.78 204.858 Q2222.39 200.205 2223.57 198.863 Q2225.81 196.34 2226.69 194.604 Q2227.59 192.844 2227.59 191.155 Q2227.59 188.4 2225.65 186.664 Q2223.73 184.928 2220.63 184.928 Q2218.43 184.928 2215.97 185.692 Q2213.54 186.455 2210.77 188.006 L2210.77 183.284 Q2213.59 182.15 2216.04 181.571 Q2218.5 180.993 2220.53 180.993 Q2225.9 180.993 2229.1 183.678 Q2232.29 186.363 2232.29 190.854 Q2232.29 192.983 2231.48 194.905 Q2230.7 196.803 2228.59 199.395 Q2228.01 200.067 2224.91 203.284 Q2221.81 206.479 2216.16 212.242 Z" fill="#000000" fill-rule="evenodd" fill-opacity="1" /></svg>
