<?xml version="1.0" encoding="utf-8"?>
<svg xmlns="http://www.w3.org/2000/svg" xmlns:xlink="http://www.w3.org/1999/xlink" width="600" height="400" viewBox="0 0 2400 1600">
<defs>
  <clipPath id="clip980">
    <rect x="0" y="0" width="2400" height="1600"/>
  </clipPath>
</defs>
<path clip-path="url(#clip980)" d="
M0 1600 L2400 1600 L2400 0 L0 0  Z
  " fill="#ffffff" fill-rule="evenodd" fill-opacity="1"/>
<defs>
  <clipPath id="clip981">
    <rect x="480" y="0" width="1681" height="1600"/>
  </clipPath>
</defs>
<path clip-path="url(#clip980)" d="
M178.867 1486.45 L2352.76 1486.45 L2352.76 47.2441 L178.867 47.2441  Z
  " fill="#ffffff" fill-rule="evenodd" fill-opacity="1"/>
<defs>
  <clipPath id="clip982">
    <rect x="178" y="47" width="2175" height="1440"/>
  </clipPath>
</defs>
<polyline clip-path="url(#clip982)" style="stroke:#000000; stroke-linecap:butt; stroke-linejoin:round; stroke-width:2; stroke-opacity:0.1; fill:none" points="
  178.867,1486.45 178.867,47.2441 
  "/>
<polyline clip-path="url(#clip982)" style="stroke:#000000; stroke-linecap:butt; stroke-linejoin:round; stroke-width:2; stroke-opacity:0.1; fill:none" points="
  722.339,1486.45 722.339,47.2441 
  "/>
<polyline clip-path="url(#clip982)" style="stroke:#000000; stroke-linecap:butt; stroke-linejoin:round; stroke-width:2; stroke-opacity:0.1; fill:none" points="
  1265.81,1486.45 1265.81,47.2441 
  "/>
<polyline clip-path="url(#clip982)" style="stroke:#000000; stroke-linecap:butt; stroke-linejoin:round; stroke-width:2; stroke-opacity:0.1; fill:none" points="
  1809.28,1486.45 1809.28,47.2441 
  "/>
<polyline clip-path="url(#clip982)" style="stroke:#000000; stroke-linecap:butt; stroke-linejoin:round; stroke-width:2; stroke-opacity:0.1; fill:none" points="
  2352.76,1486.45 2352.76,47.2441 
  "/>
<polyline clip-path="url(#clip980)" style="stroke:#000000; stroke-linecap:butt; stroke-linejoin:round; stroke-width:4; stroke-opacity:1; fill:none" points="
  178.867,1486.45 2352.76,1486.45 
  "/>
<polyline clip-path="url(#clip980)" style="stroke:#000000; stroke-linecap:butt; stroke-linejoin:round; stroke-width:4; stroke-opacity:1; fill:none" points="
  178.867,1486.45 178.867,1467.55 
  "/>
<polyline clip-path="url(#clip980)" style="stroke:#000000; stroke-linecap:butt; stroke-linejoin:round; stroke-width:4; stroke-opacity:1; fill:none" points="
  722.339,1486.45 722.339,1467.55 
  "/>
<polyline clip-path="url(#clip980)" style="stroke:#000000; stroke-linecap:butt; stroke-linejoin:round; stroke-width:4; stroke-opacity:1; fill:none" points="
  1265.81,1486.45 1265.81,1467.55 
  "/>
<polyline clip-path="url(#clip980)" style="stroke:#000000; stroke-linecap:butt; stroke-linejoin:round; stroke-width:4; stroke-opacity:1; fill:none" points="
  1809.28,1486.45 1809.28,1467.55 
  "/>
<polyline clip-path="url(#clip980)" style="stroke:#000000; stroke-linecap:butt; stroke-linejoin:round; stroke-width:4; stroke-opacity:1; fill:none" points="
  2352.76,1486.45 2352.76,1467.55 
  "/>
<path clip-path="url(#clip980)" d="M125.395 1532.02 L155.07 1532.02 L155.07 1535.95 L125.395 1535.95 L125.395 1532.02 Z" fill="#000000" fill-rule="evenodd" fill-opacity="1" /><path clip-path="url(#clip980)" d="M165.973 1544.91 L173.612 1544.91 L173.612 1518.55 L165.302 1520.21 L165.302 1515.95 L173.566 1514.29 L178.242 1514.29 L178.242 1544.91 L185.88 1544.91 L185.88 1548.85 L165.973 1548.85 L165.973 1544.91 Z" fill="#000000" fill-rule="evenodd" fill-opacity="1" /><path clip-path="url(#clip980)" d="M195.325 1542.97 L200.209 1542.97 L200.209 1548.85 L195.325 1548.85 L195.325 1542.97 Z" fill="#000000" fill-rule="evenodd" fill-opacity="1" /><path clip-path="url(#clip980)" d="M220.394 1517.37 Q216.783 1517.37 214.954 1520.93 Q213.149 1524.47 213.149 1531.6 Q213.149 1538.71 214.954 1542.27 Q216.783 1545.82 220.394 1545.82 Q224.028 1545.82 225.834 1542.27 Q227.663 1538.71 227.663 1531.6 Q227.663 1524.47 225.834 1520.93 Q224.028 1517.37 220.394 1517.37 M220.394 1513.66 Q226.204 1513.66 229.26 1518.27 Q232.339 1522.85 232.339 1531.6 Q232.339 1540.33 229.26 1544.94 Q226.204 1549.52 220.394 1549.52 Q214.584 1549.52 211.505 1544.94 Q208.45 1540.33 208.45 1531.6 Q208.45 1522.85 211.505 1518.27 Q214.584 1513.66 220.394 1513.66 Z" fill="#000000" fill-rule="evenodd" fill-opacity="1" /><path clip-path="url(#clip980)" d="M669.365 1532.02 L699.04 1532.02 L699.04 1535.95 L669.365 1535.95 L669.365 1532.02 Z" fill="#000000" fill-rule="evenodd" fill-opacity="1" /><path clip-path="url(#clip980)" d="M719.133 1517.37 Q715.522 1517.37 713.693 1520.93 Q711.888 1524.47 711.888 1531.6 Q711.888 1538.71 713.693 1542.27 Q715.522 1545.82 719.133 1545.82 Q722.767 1545.82 724.573 1542.27 Q726.401 1538.71 726.401 1531.6 Q726.401 1524.47 724.573 1520.93 Q722.767 1517.37 719.133 1517.37 M719.133 1513.66 Q724.943 1513.66 727.999 1518.27 Q731.077 1522.85 731.077 1531.6 Q731.077 1540.33 727.999 1544.94 Q724.943 1549.52 719.133 1549.52 Q713.323 1549.52 710.244 1544.94 Q707.189 1540.33 707.189 1531.6 Q707.189 1522.85 710.244 1518.27 Q713.323 1513.66 719.133 1513.66 Z" fill="#000000" fill-rule="evenodd" fill-opacity="1" /><path clip-path="url(#clip980)" d="M739.295 1542.97 L744.179 1542.97 L744.179 1548.85 L739.295 1548.85 L739.295 1542.97 Z" fill="#000000" fill-rule="evenodd" fill-opacity="1" /><path clip-path="url(#clip980)" d="M754.411 1514.29 L772.767 1514.29 L772.767 1518.22 L758.693 1518.22 L758.693 1526.7 Q759.711 1526.35 760.73 1526.19 Q761.748 1526 762.767 1526 Q768.554 1526 771.934 1529.17 Q775.313 1532.34 775.313 1537.76 Q775.313 1543.34 771.841 1546.44 Q768.369 1549.52 762.049 1549.52 Q759.873 1549.52 757.605 1549.15 Q755.36 1548.78 752.952 1548.04 L752.952 1543.34 Q755.036 1544.47 757.258 1545.03 Q759.48 1545.58 761.957 1545.58 Q765.961 1545.58 768.299 1543.48 Q770.637 1541.37 770.637 1537.76 Q770.637 1534.15 768.299 1532.04 Q765.961 1529.94 761.957 1529.94 Q760.082 1529.94 758.207 1530.35 Q756.355 1530.77 754.411 1531.65 L754.411 1514.29 Z" fill="#000000" fill-rule="evenodd" fill-opacity="1" /><path clip-path="url(#clip980)" d="M1243.2 1517.37 Q1239.58 1517.37 1237.76 1520.93 Q1235.95 1524.47 1235.95 1531.6 Q1235.95 1538.71 1237.76 1542.27 Q1239.58 1545.82 1243.2 1545.82 Q1246.83 1545.82 1248.64 1542.27 Q1250.46 1538.71 1250.46 1531.6 Q1250.46 1524.47 1248.64 1520.93 Q1246.83 1517.37 1243.2 1517.37 M1243.2 1513.66 Q1249.01 1513.66 1252.06 1518.27 Q1255.14 1522.85 1255.14 1531.6 Q1255.14 1540.33 1252.06 1544.94 Q1249.01 1549.52 1243.2 1549.52 Q1237.39 1549.52 1234.31 1544.94 Q1231.25 1540.33 1231.25 1531.6 Q1231.25 1522.85 1234.31 1518.27 Q1237.39 1513.66 1243.2 1513.66 Z" fill="#000000" fill-rule="evenodd" fill-opacity="1" /><path clip-path="url(#clip980)" d="M1263.36 1542.97 L1268.24 1542.97 L1268.24 1548.85 L1263.36 1548.85 L1263.36 1542.97 Z" fill="#000000" fill-rule="evenodd" fill-opacity="1" /><path clip-path="url(#clip980)" d="M1288.43 1517.37 Q1284.82 1517.37 1282.99 1520.93 Q1281.18 1524.47 1281.18 1531.6 Q1281.18 1538.71 1282.99 1542.27 Q1284.82 1545.82 1288.43 1545.82 Q1292.06 1545.82 1293.87 1542.27 Q1295.7 1538.71 1295.7 1531.6 Q1295.7 1524.47 1293.87 1520.93 Q1292.06 1517.37 1288.43 1517.37 M1288.43 1513.66 Q1294.24 1513.66 1297.29 1518.27 Q1300.37 1522.85 1300.37 1531.6 Q1300.37 1540.33 1297.29 1544.94 Q1294.24 1549.52 1288.43 1549.52 Q1282.62 1549.52 1279.54 1544.94 Q1276.48 1540.33 1276.48 1531.6 Q1276.48 1522.85 1279.54 1518.27 Q1282.62 1513.66 1288.43 1513.66 Z" fill="#000000" fill-rule="evenodd" fill-opacity="1" /><path clip-path="url(#clip980)" d="M1787.17 1517.37 Q1783.55 1517.37 1781.73 1520.93 Q1779.92 1524.47 1779.92 1531.6 Q1779.92 1538.71 1781.73 1542.27 Q1783.55 1545.82 1787.17 1545.82 Q1790.8 1545.82 1792.61 1542.27 Q1794.43 1538.71 1794.43 1531.6 Q1794.43 1524.47 1792.61 1520.93 Q1790.8 1517.37 1787.17 1517.37 M1787.17 1513.66 Q1792.98 1513.66 1796.03 1518.27 Q1799.11 1522.85 1799.11 1531.6 Q1799.11 1540.33 1796.03 1544.94 Q1792.98 1549.52 1787.17 1549.52 Q1781.36 1549.52 1778.28 1544.94 Q1775.22 1540.33 1775.22 1531.6 Q1775.22 1522.85 1778.28 1518.27 Q1781.36 1513.66 1787.17 1513.66 Z" fill="#000000" fill-rule="evenodd" fill-opacity="1" /><path clip-path="url(#clip980)" d="M1807.33 1542.97 L1812.21 1542.97 L1812.21 1548.85 L1807.33 1548.85 L1807.33 1542.97 Z" fill="#000000" fill-rule="evenodd" fill-opacity="1" /><path clip-path="url(#clip980)" d="M1822.44 1514.29 L1840.8 1514.29 L1840.8 1518.22 L1826.73 1518.22 L1826.73 1526.7 Q1827.74 1526.35 1828.76 1526.19 Q1829.78 1526 1830.8 1526 Q1836.59 1526 1839.97 1529.17 Q1843.35 1532.34 1843.35 1537.76 Q1843.35 1543.34 1839.87 1546.44 Q1836.4 1549.52 1830.08 1549.52 Q1827.91 1549.52 1825.64 1549.15 Q1823.39 1548.78 1820.98 1548.04 L1820.98 1543.34 Q1823.07 1544.47 1825.29 1545.03 Q1827.51 1545.58 1829.99 1545.58 Q1833.99 1545.58 1836.33 1543.48 Q1838.67 1541.37 1838.67 1537.76 Q1838.67 1534.15 1836.33 1532.04 Q1833.99 1529.94 1829.99 1529.94 Q1828.11 1529.94 1826.24 1530.35 Q1824.39 1530.77 1822.44 1531.65 L1822.44 1514.29 Z" fill="#000000" fill-rule="evenodd" fill-opacity="1" /><path clip-path="url(#clip980)" d="M2319.91 1544.91 L2327.55 1544.91 L2327.55 1518.55 L2319.24 1520.21 L2319.24 1515.95 L2327.5 1514.29 L2332.18 1514.29 L2332.18 1544.91 L2339.82 1544.91 L2339.82 1548.85 L2319.91 1548.85 L2319.91 1544.91 Z" fill="#000000" fill-rule="evenodd" fill-opacity="1" /><path clip-path="url(#clip980)" d="M2349.26 1542.97 L2354.14 1542.97 L2354.14 1548.85 L2349.26 1548.85 L2349.26 1542.97 Z" fill="#000000" fill-rule="evenodd" fill-opacity="1" /><path clip-path="url(#clip980)" d="M2374.33 1517.37 Q2370.72 1517.37 2368.89 1520.93 Q2367.08 1524.47 2367.08 1531.6 Q2367.08 1538.71 2368.89 1542.27 Q2370.72 1545.82 2374.33 1545.82 Q2377.96 1545.82 2379.77 1542.27 Q2381.6 1538.71 2381.6 1531.6 Q2381.6 1524.47 2379.77 1520.93 Q2377.96 1517.37 2374.33 1517.37 M2374.33 1513.66 Q2380.14 1513.66 2383.2 1518.27 Q2386.27 1522.85 2386.27 1531.6 Q2386.27 1540.33 2383.2 1544.94 Q2380.14 1549.52 2374.33 1549.52 Q2368.52 1549.52 2365.44 1544.94 Q2362.39 1540.33 2362.39 1531.6 Q2362.39 1522.85 2365.44 1518.27 Q2368.52 1513.66 2374.33 1513.66 Z" fill="#000000" fill-rule="evenodd" fill-opacity="1" /><polyline clip-path="url(#clip982)" style="stroke:#000000; stroke-linecap:butt; stroke-linejoin:round; stroke-width:2; stroke-opacity:0.1; fill:none" points="
  178.867,1307.15 2352.76,1307.15 
  "/>
<polyline clip-path="url(#clip982)" style="stroke:#000000; stroke-linecap:butt; stroke-linejoin:round; stroke-width:2; stroke-opacity:0.1; fill:none" points="
  178.867,1037.01 2352.76,1037.01 
  "/>
<polyline clip-path="url(#clip982)" style="stroke:#000000; stroke-linecap:butt; stroke-linejoin:round; stroke-width:2; stroke-opacity:0.1; fill:none" points="
  178.867,766.875 2352.76,766.875 
  "/>
<polyline clip-path="url(#clip982)" style="stroke:#000000; stroke-linecap:butt; stroke-linejoin:round; stroke-width:2; stroke-opacity:0.1; fill:none" points="
  178.867,496.735 2352.76,496.735 
  "/>
<polyline clip-path="url(#clip982)" style="stroke:#000000; stroke-linecap:butt; stroke-linejoin:round; stroke-width:2; stroke-opacity:0.1; fill:none" points="
  178.867,226.596 2352.76,226.596 
  "/>
<polyline clip-path="url(#clip980)" style="stroke:#000000; stroke-linecap:butt; stroke-linejoin:round; stroke-width:4; stroke-opacity:1; fill:none" points="
  178.867,1486.45 178.867,47.2441 
  "/>
<polyline clip-path="url(#clip980)" style="stroke:#000000; stroke-linecap:butt; stroke-linejoin:round; stroke-width:4; stroke-opacity:1; fill:none" points="
  178.867,1307.15 197.764,1307.15 
  "/>
<polyline clip-path="url(#clip980)" style="stroke:#000000; stroke-linecap:butt; stroke-linejoin:round; stroke-width:4; stroke-opacity:1; fill:none" points="
  178.867,1037.01 197.764,1037.01 
  "/>
<polyline clip-path="url(#clip980)" style="stroke:#000000; stroke-linecap:butt; stroke-linejoin:round; stroke-width:4; stroke-opacity:1; fill:none" points="
  178.867,766.875 197.764,766.875 
  "/>
<polyline clip-path="url(#clip980)" style="stroke:#000000; stroke-linecap:butt; stroke-linejoin:round; stroke-width:4; stroke-opacity:1; fill:none" points="
  178.867,496.735 197.764,496.735 
  "/>
<polyline clip-path="url(#clip980)" style="stroke:#000000; stroke-linecap:butt; stroke-linejoin:round; stroke-width:4; stroke-opacity:1; fill:none" points="
  178.867,226.596 197.764,226.596 
  "/>
<path clip-path="url(#clip980)" d="M50.9921 1307.61 L80.6679 1307.61 L80.6679 1311.54 L50.9921 1311.54 L50.9921 1307.61 Z" fill="#000000" fill-rule="evenodd" fill-opacity="1" /><path clip-path="url(#clip980)" d="M91.5706 1320.5 L99.2095 1320.5 L99.2095 1294.13 L90.8993 1295.8 L90.8993 1291.54 L99.1632 1289.87 L103.839 1289.87 L103.839 1320.5 L111.478 1320.5 L111.478 1324.43 L91.5706 1324.43 L91.5706 1320.5 Z" fill="#000000" fill-rule="evenodd" fill-opacity="1" /><path clip-path="url(#clip980)" d="M130.922 1292.95 Q127.311 1292.95 125.482 1296.52 Q123.677 1300.06 123.677 1307.19 Q123.677 1314.3 125.482 1317.86 Q127.311 1321.4 130.922 1321.4 Q134.556 1321.4 136.362 1317.86 Q138.191 1314.3 138.191 1307.19 Q138.191 1300.06 136.362 1296.52 Q134.556 1292.95 130.922 1292.95 M130.922 1289.25 Q136.732 1289.25 139.788 1293.86 Q142.867 1298.44 142.867 1307.19 Q142.867 1315.92 139.788 1320.52 Q136.732 1325.11 130.922 1325.11 Q125.112 1325.11 122.033 1320.52 Q118.978 1315.92 118.978 1307.19 Q118.978 1298.44 122.033 1293.86 Q125.112 1289.25 130.922 1289.25 Z" fill="#000000" fill-rule="evenodd" fill-opacity="1" /><path clip-path="url(#clip980)" d="M82.1494 1037.47 L111.825 1037.47 L111.825 1041.4 L82.1494 1041.4 L82.1494 1037.47 Z" fill="#000000" fill-rule="evenodd" fill-opacity="1" /><path clip-path="url(#clip980)" d="M121.964 1019.73 L140.32 1019.73 L140.32 1023.67 L126.246 1023.67 L126.246 1032.14 Q127.265 1031.79 128.283 1031.63 Q129.302 1031.45 130.32 1031.45 Q136.107 1031.45 139.487 1034.62 Q142.867 1037.79 142.867 1043.21 Q142.867 1048.79 139.394 1051.89 Q135.922 1054.97 129.603 1054.97 Q127.427 1054.97 125.158 1054.6 Q122.913 1054.23 120.506 1053.48 L120.506 1048.79 Q122.589 1049.92 124.811 1050.48 Q127.033 1051.03 129.51 1051.03 Q133.515 1051.03 135.853 1048.92 Q138.191 1046.82 138.191 1043.21 Q138.191 1039.6 135.853 1037.49 Q133.515 1035.38 129.51 1035.38 Q127.635 1035.38 125.76 1035.8 Q123.908 1036.22 121.964 1037.1 L121.964 1019.73 Z" fill="#000000" fill-rule="evenodd" fill-opacity="1" /><path clip-path="url(#clip980)" d="M130.922 752.674 Q127.311 752.674 125.482 756.239 Q123.677 759.78 123.677 766.91 Q123.677 774.016 125.482 777.581 Q127.311 781.123 130.922 781.123 Q134.556 781.123 136.362 777.581 Q138.191 774.016 138.191 766.91 Q138.191 759.78 136.362 756.239 Q134.556 752.674 130.922 752.674 M130.922 748.97 Q136.732 748.97 139.788 753.577 Q142.867 758.16 142.867 766.91 Q142.867 775.637 139.788 780.243 Q136.732 784.826 130.922 784.826 Q125.112 784.826 122.033 780.243 Q118.978 775.637 118.978 766.91 Q118.978 758.16 122.033 753.577 Q125.112 748.97 130.922 748.97 Z" fill="#000000" fill-rule="evenodd" fill-opacity="1" /><path clip-path="url(#clip980)" d="M121.964 479.455 L140.32 479.455 L140.32 483.391 L126.246 483.391 L126.246 491.863 Q127.265 491.516 128.283 491.354 Q129.302 491.168 130.32 491.168 Q136.107 491.168 139.487 494.34 Q142.867 497.511 142.867 502.928 Q142.867 508.506 139.394 511.608 Q135.922 514.687 129.603 514.687 Q127.427 514.687 125.158 514.316 Q122.913 513.946 120.506 513.205 L120.506 508.506 Q122.589 509.641 124.811 510.196 Q127.033 510.752 129.51 510.752 Q133.515 510.752 135.853 508.645 Q138.191 506.539 138.191 502.928 Q138.191 499.316 135.853 497.21 Q133.515 495.104 129.51 495.104 Q127.635 495.104 125.76 495.52 Q123.908 495.937 121.964 496.817 L121.964 479.455 Z" fill="#000000" fill-rule="evenodd" fill-opacity="1" /><path clip-path="url(#clip980)" d="M91.5706 239.941 L99.2095 239.941 L99.2095 213.575 L90.8993 215.242 L90.8993 210.982 L99.1632 209.316 L103.839 209.316 L103.839 239.941 L111.478 239.941 L111.478 243.876 L91.5706 243.876 L91.5706 239.941 Z" fill="#000000" fill-rule="evenodd" fill-opacity="1" /><path clip-path="url(#clip980)" d="M130.922 212.395 Q127.311 212.395 125.482 215.959 Q123.677 219.501 123.677 226.631 Q123.677 233.737 125.482 237.302 Q127.311 240.843 130.922 240.843 Q134.556 240.843 136.362 237.302 Q138.191 233.737 138.191 226.631 Q138.191 219.501 136.362 215.959 Q134.556 212.395 130.922 212.395 M130.922 208.691 Q136.732 208.691 139.788 213.297 Q142.867 217.881 142.867 226.631 Q142.867 235.357 139.788 239.964 Q136.732 244.547 130.922 244.547 Q125.112 244.547 122.033 239.964 Q118.978 235.357 118.978 226.631 Q118.978 217.881 122.033 213.297 Q125.112 208.691 130.922 208.691 Z" fill="#000000" fill-rule="evenodd" fill-opacity="1" /><polyline clip-path="url(#clip982)" style="stroke:#009af9; stroke-linecap:butt; stroke-linejoin:round; stroke-width:12; stroke-opacity:1; fill:none" points="
  178.867,834.656 182.405,862.226 185.943,889.636 189.482,916.841 193.02,943.795 201.199,1004.9 209.378,1063.87 217.557,1120.19 225.737,1173.35 229.826,1198.6 
  233.916,1222.88 238.005,1246.15 242.095,1268.34 246.184,1289.41 250.274,1309.31 254.364,1328 258.453,1345.44 262.543,1361.59 266.632,1376.4 270.722,1389.85 
  274.812,1401.91 278.901,1412.56 282.991,1421.75 287.08,1429.49 291.17,1435.74 295.26,1440.5 299.349,1443.75 303.439,1445.49 307.528,1445.72 311.618,1444.42 
  315.707,1441.61 319.797,1437.3 323.887,1431.48 328.802,1422.53 333.717,1411.46 338.633,1398.31 343.548,1383.12 348.463,1365.94 353.379,1346.83 358.294,1325.84 
  363.209,1303.05 368.125,1278.53 373.04,1252.36 377.955,1224.62 382.871,1195.4 387.786,1164.8 392.701,1132.91 397.617,1099.84 402.532,1065.7 410.844,1005.83 
  419.156,943.755 427.467,880.048 435.779,815.296 452.403,685.055 469.026,557.826 473.54,524.412 478.055,491.659 482.569,459.655 487.084,428.488 491.598,398.243 
  496.113,369.001 500.627,340.843 505.141,313.845 509.656,288.082 514.17,263.622 518.685,240.532 523.199,218.876 527.714,198.713 532.228,180.097 536.742,163.078 
  541.257,147.705 545.419,135.024 549.581,123.807 553.743,114.078 557.904,105.859 562.066,99.1715 566.228,94.0291 570.39,90.4441 574.552,88.425 578.714,87.9763 
  582.876,89.0991 587.038,91.7907 591.2,96.045 595.362,101.852 599.524,109.199 603.685,118.068 607.847,128.438 612.309,141.197 616.771,155.621 621.233,171.672 
  625.695,189.305 630.157,208.476 634.619,229.132 639.081,251.218 643.543,274.677 648.005,299.445 652.467,325.457 656.929,352.643 661.391,380.931 665.853,410.246 
  670.315,440.51 674.777,471.642 679.239,503.56 689.579,580.065 699.918,659.236 710.257,739.944 720.597,821.035 730.936,901.354 741.275,979.754 746.445,1017.88 
  751.615,1055.12 756.784,1091.32 761.954,1126.36 766.548,1156.43 771.142,1185.4 775.737,1213.2 780.331,1239.73 784.925,1264.93 789.519,1288.72 794.113,1311.04 
  798.708,1331.83 803.302,1351.02 807.896,1368.57 812.49,1384.42 817.084,1398.52 821.678,1410.85 826.273,1421.36 830.867,1430.02 835.461,1436.81 839.49,1441.22 
  843.518,1444.16 847.547,1445.63 851.576,1445.63 855.605,1444.15 859.633,1441.21 863.662,1436.8 867.691,1430.95 871.719,1423.65 875.748,1414.92 879.777,1404.79 
  883.805,1393.28 887.834,1380.41 891.863,1366.21 895.891,1350.71 899.92,1333.94 904.312,1314.26 908.705,1293.16 913.097,1270.71 917.49,1246.97 921.882,1221.98 
  926.274,1195.82 930.667,1168.55 935.059,1140.25 943.844,1080.84 952.628,1018.18 961.413,952.944 970.198,885.785 987.872,747.677 1005.55,610.368 1014.38,543.806 
  1023.22,479.57 1032.06,418.331 1040.89,360.726 1045.78,330.663 1050.66,301.99 1055.55,274.8 1060.43,249.18 1065.32,225.21 1070.2,202.968 1075.09,182.524 
  1079.97,163.943 1084.86,147.285 1089.74,132.603 1094.63,119.944 1099.52,109.347 1104.4,100.848 1109.29,94.4722 1114.17,90.2409 1119.06,88.1673 1123.7,88.2037 
  1128.35,90.1995 1133,94.1489 1137.65,100.04 1142.3,107.857 1146.94,117.577 1151.59,129.171 1156.24,142.606 1160.89,157.843 1165.54,174.839 1170.19,193.543 
  1174.83,213.904 1179.48,235.86 1184.13,259.35 1188.78,284.305 1193.43,310.653 1198.26,339.444 1203.09,369.57 1207.92,400.936 1212.76,433.443 1217.59,466.992 
  1222.42,501.477 1227.26,536.789 1232.09,572.82 1251.42,721.851 1270.75,873.121 1278.89,935.638 1287.03,996.663 1295.16,1055.66 1303.3,1112.1 1307.37,1139.2 
  1311.44,1165.48 1315.5,1190.88 1319.57,1215.35 1323.64,1238.82 1327.71,1261.24 1331.78,1282.57 1335.85,1302.77 1340.81,1325.81 1345.78,1347.01 1350.75,1366.29 
  1355.71,1383.6 1360.68,1398.88 1365.65,1412.07 1370.62,1423.14 1375.58,1432.04 1380.55,1438.75 1385.52,1443.25 1390.48,1445.52 1395.45,1445.54 1400.42,1443.34 
  1405.38,1438.9 1410.35,1432.24 1415.32,1423.39 1419.87,1413.39 1424.42,1401.6 1428.97,1388.05 1433.52,1372.78 1438.07,1355.83 1442.62,1337.26 1447.17,1317.11 
  1451.72,1295.43 1456.27,1272.3 1460.82,1247.76 1465.37,1221.9 1469.92,1194.77 1474.47,1166.46 1479.02,1137.05 1483.57,1106.61 1488.12,1075.24 1496.52,1015.1 
  1504.93,952.622 1513.33,888.392 1521.74,823.016 1538.55,691.296 1555.36,562.421 1563.87,499.79 1572.38,439.743 1576.64,410.872 1580.9,382.864 1585.15,355.785 
  1589.41,329.702 1593.67,304.677 1597.92,280.771 1602.18,258.043 1606.44,236.547 1610.69,216.335 1614.95,197.456 1619.21,179.956 1623.47,163.877 1628.24,147.594 
  1633.01,133.195 1637.78,120.722 1642.55,110.215 1647.32,101.705 1652.09,95.2183 1656.86,90.7741 1661.63,88.386 1666.4,88.0615 1671.17,89.8014 1675.94,93.6006 
  1680.71,99.4474 1685.48,107.324 1690.26,117.207 1695.03,129.065 1699.8,142.863 1704.12,157.007 1708.44,172.673 1712.77,189.824 1717.09,208.416 1721.41,228.402 
  1725.73,249.734 1730.06,272.357 1734.38,296.215 1738.7,321.248 1743.03,347.394 1747.35,374.588 1751.67,402.762 1756,431.844 1760.32,461.764 1764.64,492.446 
  1768.96,523.813 1778.86,597.796 1788.76,673.991 1798.66,751.401 1808.56,829.014 1818.46,905.814 1828.36,980.796 1838.26,1052.98 1848.16,1121.42 1852.74,1151.59 
  1857.32,1180.67 1861.91,1208.6 1866.49,1235.28 1871.07,1260.65 1875.66,1284.64 1880.24,1307.17 1884.82,1328.18 1889.4,1347.62 1893.99,1365.43 1898.57,1381.56 
  1903.15,1395.97 1907.74,1408.61 1912.32,1419.45 1916.9,1428.45 1921.48,1435.6 1926,1440.81 1930.52,1444.19 1935.04,1445.71 1939.56,1445.39 1944.07,1443.21 
  1948.59,1439.19 1953.11,1433.33 1957.63,1425.66 1962.15,1416.19 1966.67,1404.94 1971.18,1391.96 1975.7,1377.27 1980.22,1360.92 1984.74,1342.95 1989.26,1323.4 
  1993.77,1302.34 1998.16,1280.49 2002.55,1257.32 2006.93,1232.89 2011.32,1207.26 2015.71,1180.5 2020.1,1152.67 2024.48,1123.85 2028.87,1094.12 2037.64,1032.2 
  2046.42,967.554 2055.19,900.846 2063.96,832.762 2081.95,691.826 2099.94,554.125 2104.44,520.907 2108.93,488.354 2113.43,456.553 2117.93,425.591 2122.42,395.552 
  2126.92,366.516 2131.42,338.561 2135.91,311.765 2140.84,283.82 2145.77,257.443 2150.7,232.718 2155.62,209.725 2160.55,188.54 2165.48,169.231 2170.4,151.861 
  2175.33,136.485 2180.26,123.155 2185.18,111.912 2190.11,102.794 2195.04,95.8301 2199.97,91.0429 2204.89,88.4479 2209.82,88.0536 2214.75,89.8612 2218.33,92.5516 
  2221.9,96.3961 2225.48,101.388 2229.06,107.519 2232.64,114.779 2236.22,123.154 2239.8,132.631 2243.38,143.194 2246.95,154.824 2250.53,167.502 2254.11,181.205 
  2257.69,195.911 2261.27,211.594 2264.85,228.228 2268.43,245.783 2272,264.23 2279.16,303.672 2286.32,346.284 2293.48,391.774 2300.63,439.831 2307.79,490.126 
  2314.95,542.315 2322.11,596.04 2329.26,650.934 2335.14,696.591 2341.01,742.571 2346.88,788.664 2352.76,834.656 
  "/>
<polyline clip-path="url(#clip982)" style="stroke:#e26f46; stroke-linecap:butt; stroke-linejoin:round; stroke-width:12; stroke-opacity:1; fill:none" points="
  450.603,1196.94 722.339,336.811 994.075,1196.94 1265.81,336.811 1537.55,1196.94 1809.28,336.811 2081.02,1196.94 2352.76,336.811 
  "/>
<circle clip-path="url(#clip982)" cx="450.603" cy="1196.94" r="14.4" fill="#e26f46" fill-rule="evenodd" fill-opacity="1" stroke="#000000" stroke-opacity="1" stroke-width="3.2"/>
<circle clip-path="url(#clip982)" cx="722.339" cy="336.811" r="14.4" fill="#e26f46" fill-rule="evenodd" fill-opacity="1" stroke="#000000" stroke-opacity="1" stroke-width="3.2"/>
<circle clip-path="url(#clip982)" cx="994.075" cy="1196.94" r="14.4" fill="#e26f46" fill-rule="evenodd" fill-opacity="1" stroke="#000000" stroke-opacity="1" stroke-width="3.2"/>
<circle clip-path="url(#clip982)" cx="1265.81" cy="336.811" r="14.4" fill="#e26f46" fill-rule="evenodd" fill-opacity="1" stroke="#000000" stroke-opacity="1" stroke-width="3.2"/>
<circle clip-path="url(#clip982)" cx="1537.55" cy="1196.94" r="14.4" fill="#e26f46" fill-rule="evenodd" fill-opacity="1" stroke="#000000" stroke-opacity="1" stroke-width="3.2"/>
<circle clip-path="url(#clip982)" cx="1809.28" cy="336.811" r="14.4" fill="#e26f46" fill-rule="evenodd" fill-opacity="1" stroke="#000000" stroke-opacity="1" stroke-width="3.2"/>
<circle clip-path="url(#clip982)" cx="2081.02" cy="1196.94" r="14.4" fill="#e26f46" fill-rule="evenodd" fill-opacity="1" stroke="#000000" stroke-opacity="1" stroke-width="3.2"/>
<circle clip-path="url(#clip982)" cx="2352.76" cy="336.811" r="14.4" fill="#e26f46" fill-rule="evenodd" fill-opacity="1" stroke="#000000" stroke-opacity="1" stroke-width="3.2"/>
<polyline clip-path="url(#clip982)" style="stroke:#3da44d; stroke-linecap:butt; stroke-linejoin:round; stroke-width:12; stroke-opacity:1; fill:none" points="
  178.867,1196.94 450.603,336.811 722.339,1196.94 994.075,336.811 1265.81,1196.94 1537.55,336.811 1809.28,1196.94 2081.02,336.811 
  "/>
<circle clip-path="url(#clip982)" cx="178.867" cy="1196.94" r="14.4" fill="#3da44d" fill-rule="evenodd" fill-opacity="1" stroke="#000000" stroke-opacity="1" stroke-width="3.2"/>
<circle clip-path="url(#clip982)" cx="450.603" cy="336.811" r="14.4" fill="#3da44d" fill-rule="evenodd" fill-opacity="1" stroke="#000000" stroke-opacity="1" stroke-width="3.2"/>
<circle clip-path="url(#clip982)" cx="722.339" cy="1196.94" r="14.4" fill="#3da44d" fill-rule="evenodd" fill-opacity="1" stroke="#000000" stroke-opacity="1" stroke-width="3.2"/>
<circle clip-path="url(#clip982)" cx="994.075" cy="336.811" r="14.4" fill="#3da44d" fill-rule="evenodd" fill-opacity="1" stroke="#000000" stroke-opacity="1" stroke-width="3.2"/>
<circle clip-path="url(#clip982)" cx="1265.81" cy="1196.94" r="14.4" fill="#3da44d" fill-rule="evenodd" fill-opacity="1" stroke="#000000" stroke-opacity="1" stroke-width="3.2"/>
<circle clip-path="url(#clip982)" cx="1537.55" cy="336.811" r="14.4" fill="#3da44d" fill-rule="evenodd" fill-opacity="1" stroke="#000000" stroke-opacity="1" stroke-width="3.2"/>
<circle clip-path="url(#clip982)" cx="1809.28" cy="1196.94" r="14.4" fill="#3da44d" fill-rule="evenodd" fill-opacity="1" stroke="#000000" stroke-opacity="1" stroke-width="3.2"/>
<circle clip-path="url(#clip982)" cx="2081.02" cy="336.811" r="14.4" fill="#3da44d" fill-rule="evenodd" fill-opacity="1" stroke="#000000" stroke-opacity="1" stroke-width="3.2"/>
<polyline clip-path="url(#clip982)" style="stroke:#c271d2; stroke-linecap:butt; stroke-linejoin:round; stroke-width:12; stroke-opacity:1; fill:none" points="
  450.603,766.875 722.339,766.875 994.075,766.875 1265.81,766.875 1537.55,766.875 1809.28,766.875 2081.02,766.875 
  "/>
<circle clip-path="url(#clip982)" cx="450.603" cy="766.875" r="14.4" fill="#c271d2" fill-rule="evenodd" fill-opacity="1" stroke="#000000" stroke-opacity="1" stroke-width="3.2"/>
<circle clip-path="url(#clip982)" cx="722.339" cy="766.875" r="14.4" fill="#c271d2" fill-rule="evenodd" fill-opacity="1" stroke="#000000" stroke-opacity="1" stroke-width="3.2"/>
<circle clip-path="url(#clip982)" cx="994.075" cy="766.875" r="14.4" fill="#c271d2" fill-rule="evenodd" fill-opacity="1" stroke="#000000" stroke-opacity="1" stroke-width="3.2"/>
<circle clip-path="url(#clip982)" cx="1265.81" cy="766.875" r="14.4" fill="#c271d2" fill-rule="evenodd" fill-opacity="1" stroke="#000000" stroke-opacity="1" stroke-width="3.2"/>
<circle clip-path="url(#clip982)" cx="1537.55" cy="766.875" r="14.4" fill="#c271d2" fill-rule="evenodd" fill-opacity="1" stroke="#000000" stroke-opacity="1" stroke-width="3.2"/>
<circle clip-path="url(#clip982)" cx="1809.28" cy="766.875" r="14.4" fill="#c271d2" fill-rule="evenodd" fill-opacity="1" stroke="#000000" stroke-opacity="1" stroke-width="3.2"/>
<circle clip-path="url(#clip982)" cx="2081.02" cy="766.875" r="14.4" fill="#c271d2" fill-rule="evenodd" fill-opacity="1" stroke="#000000" stroke-opacity="1" stroke-width="3.2"/>
<path clip-path="url(#clip980)" d="
M1911.44 354.418 L2280.29 354.418 L2280.29 95.2176 L1911.44 95.2176  Z
  " fill="#ffffff" fill-rule="evenodd" fill-opacity="1"/>
<polyline clip-path="url(#clip980)" style="stroke:#000000; stroke-linecap:butt; stroke-linejoin:round; stroke-width:4; stroke-opacity:1; fill:none" points="
  1911.44,354.418 2280.29,354.418 2280.29,95.2176 1911.44,95.2176 1911.44,354.418 
  "/>
<polyline clip-path="url(#clip980)" style="stroke:#009af9; stroke-linecap:butt; stroke-linejoin:round; stroke-width:4; stroke-opacity:1; fill:none" points="
  1935.59,147.058 2080.52,147.058 
  "/>
<path clip-path="url(#clip980)" d="M2118.51 166.745 Q2116.71 171.375 2114.99 172.787 Q2113.28 174.199 2110.41 174.199 L2107.01 174.199 L2107.01 170.634 L2109.51 170.634 Q2111.27 170.634 2112.24 169.8 Q2113.21 168.967 2114.39 165.865 L2115.16 163.921 L2104.67 138.412 L2109.18 138.412 L2117.29 158.689 L2125.39 138.412 L2129.9 138.412 L2118.51 166.745 Z" fill="#000000" fill-rule="evenodd" fill-opacity="1" /><path clip-path="url(#clip980)" d="M2137.19 160.402 L2144.83 160.402 L2144.83 134.037 L2136.52 135.703 L2136.52 131.444 L2144.79 129.778 L2149.46 129.778 L2149.46 160.402 L2157.1 160.402 L2157.1 164.338 L2137.19 164.338 L2137.19 160.402 Z" fill="#000000" fill-rule="evenodd" fill-opacity="1" /><polyline clip-path="url(#clip980)" style="stroke:#e26f46; stroke-linecap:butt; stroke-linejoin:round; stroke-width:4; stroke-opacity:1; fill:none" points="
  1935.59,198.898 2080.52,198.898 
  "/>
<circle clip-path="url(#clip980)" cx="2008.05" cy="198.898" r="23.04" fill="#e26f46" fill-rule="evenodd" fill-opacity="1" stroke="#000000" stroke-opacity="1" stroke-width="5.12"/>
<path clip-path="url(#clip980)" d="M2123.58 194.187 L2123.58 180.159 L2127.84 180.159 L2127.84 216.178 L2123.58 216.178 L2123.58 212.289 Q2122.24 214.603 2120.18 215.738 Q2118.14 216.849 2115.27 216.849 Q2110.57 216.849 2107.61 213.099 Q2104.67 209.349 2104.67 203.238 Q2104.67 197.127 2107.61 193.377 Q2110.57 189.627 2115.27 189.627 Q2118.14 189.627 2120.18 190.761 Q2122.24 191.872 2123.58 194.187 M2109.07 203.238 Q2109.07 207.937 2110.99 210.622 Q2112.93 213.284 2116.31 213.284 Q2119.69 213.284 2121.64 210.622 Q2123.58 207.937 2123.58 203.238 Q2123.58 198.539 2121.64 195.877 Q2119.69 193.192 2116.31 193.192 Q2112.93 193.192 2110.99 195.877 Q2109.07 198.539 2109.07 203.238 Z" fill="#000000" fill-rule="evenodd" fill-opacity="1" /><path clip-path="url(#clip980)" d="M2136.61 190.252 L2140.87 190.252 L2140.87 216.178 L2136.61 216.178 L2136.61 190.252 M2136.61 180.159 L2140.87 180.159 L2140.87 185.553 L2136.61 185.553 L2136.61 180.159 Z" fill="#000000" fill-rule="evenodd" fill-opacity="1" /><path clip-path="url(#clip980)" d="M2162.91 180.159 L2162.91 183.701 L2158.84 183.701 Q2156.54 183.701 2155.64 184.627 Q2154.76 185.553 2154.76 187.96 L2154.76 190.252 L2161.78 190.252 L2161.78 193.562 L2154.76 193.562 L2154.76 216.178 L2150.48 216.178 L2150.48 193.562 L2146.41 193.562 L2146.41 190.252 L2150.48 190.252 L2150.48 188.446 Q2150.48 184.118 2152.49 182.15 Q2154.51 180.159 2158.88 180.159 L2162.91 180.159 Z" fill="#000000" fill-rule="evenodd" fill-opacity="1" /><path clip-path="url(#clip980)" d="M2179.6 180.159 L2179.6 183.701 L2175.53 183.701 Q2173.23 183.701 2172.33 184.627 Q2171.45 185.553 2171.45 187.96 L2171.45 190.252 L2178.47 190.252 L2178.47 193.562 L2171.45 193.562 L2171.45 216.178 L2167.17 216.178 L2167.17 193.562 L2163.1 193.562 L2163.1 190.252 L2167.17 190.252 L2167.17 188.446 Q2167.17 184.118 2169.18 182.15 Q2171.2 180.159 2175.57 180.159 L2179.6 180.159 Z" fill="#000000" fill-rule="evenodd" fill-opacity="1" /><path clip-path="url(#clip980)" d="M2184.58 212.242 L2192.22 212.242 L2192.22 185.877 L2183.91 187.543 L2183.91 183.284 L2192.17 181.618 L2196.85 181.618 L2196.85 212.242 L2204.48 212.242 L2204.48 216.178 L2184.58 216.178 L2184.58 212.242 Z" fill="#000000" fill-rule="evenodd" fill-opacity="1" /><path clip-path="url(#clip980)" d="M2213.33 180.159 L2217.59 180.159 L2217.59 216.178 L2213.33 216.178 L2213.33 180.159 Z" fill="#000000" fill-rule="evenodd" fill-opacity="1" /><polyline clip-path="url(#clip980)" style="stroke:#3da44d; stroke-linecap:butt; stroke-linejoin:round; stroke-width:4; stroke-opacity:1; fill:none" points="
  1935.59,250.738 2080.52,250.738 
  "/>
<circle clip-path="url(#clip980)" cx="2008.05" cy="250.738" r="23.04" fill="#3da44d" fill-rule="evenodd" fill-opacity="1" stroke="#000000" stroke-opacity="1" stroke-width="5.12"/>
<path clip-path="url(#clip980)" d="M2123.58 246.027 L2123.58 231.999 L2127.84 231.999 L2127.84 268.018 L2123.58 268.018 L2123.58 264.129 Q2122.24 266.443 2120.18 267.578 Q2118.14 268.689 2115.27 268.689 Q2110.57 268.689 2107.61 264.939 Q2104.67 261.189 2104.67 255.078 Q2104.67 248.967 2107.61 245.217 Q2110.57 241.467 2115.27 241.467 Q2118.14 241.467 2120.18 242.601 Q2122.24 243.712 2123.58 246.027 M2109.07 255.078 Q2109.07 259.777 2110.99 262.462 Q2112.93 265.124 2116.31 265.124 Q2119.69 265.124 2121.64 262.462 Q2123.58 259.777 2123.58 255.078 Q2123.58 250.379 2121.64 247.717 Q2119.69 245.032 2116.31 245.032 Q2112.93 245.032 2110.99 247.717 Q2109.07 250.379 2109.07 255.078 Z" fill="#000000" fill-rule="evenodd" fill-opacity="1" /><path clip-path="url(#clip980)" d="M2136.61 242.092 L2140.87 242.092 L2140.87 268.018 L2136.61 268.018 L2136.61 242.092 M2136.61 231.999 L2140.87 231.999 L2140.87 237.393 L2136.61 237.393 L2136.61 231.999 Z" fill="#000000" fill-rule="evenodd" fill-opacity="1" /><path clip-path="url(#clip980)" d="M2162.91 231.999 L2162.91 235.541 L2158.84 235.541 Q2156.54 235.541 2155.64 236.467 Q2154.76 237.393 2154.76 239.8 L2154.76 242.092 L2161.78 242.092 L2161.78 245.402 L2154.76 245.402 L2154.76 268.018 L2150.48 268.018 L2150.48 245.402 L2146.41 245.402 L2146.41 242.092 L2150.48 242.092 L2150.48 240.286 Q2150.48 235.958 2152.49 233.99 Q2154.51 231.999 2158.88 231.999 L2162.91 231.999 Z" fill="#000000" fill-rule="evenodd" fill-opacity="1" /><path clip-path="url(#clip980)" d="M2179.6 231.999 L2179.6 235.541 L2175.53 235.541 Q2173.23 235.541 2172.33 236.467 Q2171.45 237.393 2171.45 239.8 L2171.45 242.092 L2178.47 242.092 L2178.47 245.402 L2171.45 245.402 L2171.45 268.018 L2167.17 268.018 L2167.17 245.402 L2163.1 245.402 L2163.1 242.092 L2167.17 242.092 L2167.17 240.286 Q2167.17 235.958 2169.18 233.99 Q2171.2 231.999 2175.57 231.999 L2179.6 231.999 Z" fill="#000000" fill-rule="evenodd" fill-opacity="1" /><path clip-path="url(#clip980)" d="M2184.58 264.082 L2192.22 264.082 L2192.22 237.717 L2183.91 239.383 L2183.91 235.124 L2192.17 233.458 L2196.85 233.458 L2196.85 264.082 L2204.48 264.082 L2204.48 268.018 L2184.58 268.018 L2184.58 264.082 Z" fill="#000000" fill-rule="evenodd" fill-opacity="1" /><path clip-path="url(#clip980)" d="M2228.35 246.073 Q2227.63 245.657 2226.78 245.471 Q2225.94 245.263 2224.92 245.263 Q2221.31 245.263 2219.37 247.624 Q2217.45 249.962 2217.45 254.36 L2217.45 268.018 L2213.16 268.018 L2213.16 242.092 L2217.45 242.092 L2217.45 246.12 Q2218.79 243.758 2220.94 242.624 Q2223.1 241.467 2226.17 241.467 Q2226.61 241.467 2227.15 241.536 Q2227.68 241.583 2228.33 241.698 L2228.35 246.073 Z" fill="#000000" fill-rule="evenodd" fill-opacity="1" /><polyline clip-path="url(#clip980)" style="stroke:#c271d2; stroke-linecap:butt; stroke-linejoin:round; stroke-width:4; stroke-opacity:1; fill:none" points="
  1935.59,302.578 2080.52,302.578 
  "/>
<circle clip-path="url(#clip980)" cx="2008.05" cy="302.578" r="23.04" fill="#c271d2" fill-rule="evenodd" fill-opacity="1" stroke="#000000" stroke-opacity="1" stroke-width="5.12"/>
<path clip-path="url(#clip980)" d="M2123.58 297.867 L2123.58 283.839 L2127.84 283.839 L2127.84 319.858 L2123.58 319.858 L2123.58 315.969 Q2122.24 318.283 2120.18 319.418 Q2118.14 320.529 2115.27 320.529 Q2110.57 320.529 2107.61 316.779 Q2104.67 313.029 2104.67 306.918 Q2104.67 300.807 2107.61 297.057 Q2110.57 293.307 2115.27 293.307 Q2118.14 293.307 2120.18 294.441 Q2122.24 295.552 2123.58 297.867 M2109.07 306.918 Q2109.07 311.617 2110.99 314.302 Q2112.93 316.964 2116.31 316.964 Q2119.69 316.964 2121.64 314.302 Q2123.58 311.617 2123.58 306.918 Q2123.58 302.219 2121.64 299.557 Q2119.69 296.872 2116.31 296.872 Q2112.93 296.872 2110.99 299.557 Q2109.07 302.219 2109.07 306.918 Z" fill="#000000" fill-rule="evenodd" fill-opacity="1" /><path clip-path="url(#clip980)" d="M2136.61 293.932 L2140.87 293.932 L2140.87 319.858 L2136.61 319.858 L2136.61 293.932 M2136.61 283.839 L2140.87 283.839 L2140.87 289.233 L2136.61 289.233 L2136.61 283.839 Z" fill="#000000" fill-rule="evenodd" fill-opacity="1" /><path clip-path="url(#clip980)" d="M2162.91 283.839 L2162.91 287.381 L2158.84 287.381 Q2156.54 287.381 2155.64 288.307 Q2154.76 289.233 2154.76 291.64 L2154.76 293.932 L2161.78 293.932 L2161.78 297.242 L2154.76 297.242 L2154.76 319.858 L2150.48 319.858 L2150.48 297.242 L2146.41 297.242 L2146.41 293.932 L2150.48 293.932 L2150.48 292.126 Q2150.48 287.798 2152.49 285.83 Q2154.51 283.839 2158.88 283.839 L2162.91 283.839 Z" fill="#000000" fill-rule="evenodd" fill-opacity="1" /><path clip-path="url(#clip980)" d="M2179.6 283.839 L2179.6 287.381 L2175.53 287.381 Q2173.23 287.381 2172.33 288.307 Q2171.45 289.233 2171.45 291.64 L2171.45 293.932 L2178.47 293.932 L2178.47 297.242 L2171.45 297.242 L2171.45 319.858 L2167.17 319.858 L2167.17 297.242 L2163.1 297.242 L2163.1 293.932 L2167.17 293.932 L2167.17 292.126 Q2167.17 287.798 2169.18 285.83 Q2171.2 283.839 2175.57 283.839 L2179.6 283.839 Z" fill="#000000" fill-rule="evenodd" fill-opacity="1" /><path clip-path="url(#clip980)" d="M2184.58 315.922 L2192.22 315.922 L2192.22 289.557 L2183.91 291.223 L2183.91 286.964 L2192.17 285.298 L2196.85 285.298 L2196.85 315.922 L2204.48 315.922 L2204.48 319.858 L2184.58 319.858 L2184.58 315.922 Z" fill="#000000" fill-rule="evenodd" fill-opacity="1" /><path clip-path="url(#clip980)" d="M2231.98 294.927 L2231.98 298.909 Q2230.18 297.913 2228.35 297.427 Q2226.54 296.918 2224.69 296.918 Q2220.55 296.918 2218.26 299.557 Q2215.97 302.172 2215.97 306.918 Q2215.97 311.663 2218.26 314.302 Q2220.55 316.918 2224.69 316.918 Q2226.54 316.918 2228.35 316.432 Q2230.18 315.922 2231.98 314.927 L2231.98 318.862 Q2230.2 319.696 2228.28 320.112 Q2226.38 320.529 2224.23 320.529 Q2218.37 320.529 2214.92 316.848 Q2211.48 313.168 2211.48 306.918 Q2211.48 300.575 2214.95 296.941 Q2218.44 293.307 2224.51 293.307 Q2226.48 293.307 2228.35 293.723 Q2230.23 294.117 2231.98 294.927 Z" fill="#000000" fill-rule="evenodd" fill-opacity="1" /></svg>
