<?xml version="1.0" encoding="utf-8"?>
<svg xmlns="http://www.w3.org/2000/svg" xmlns:xlink="http://www.w3.org/1999/xlink" width="600" height="400" viewBox="0 0 2400 1600">
<defs>
  <clipPath id="clip500">
    <rect x="0" y="0" width="2400" height="1600"/>
  </clipPath>
</defs>
<path clip-path="url(#clip500)" d="
M0 1600 L2400 1600 L2400 0 L0 0  Z
  " fill="#ffffff" fill-rule="evenodd" fill-opacity="1"/>
<defs>
  <clipPath id="clip501">
    <rect x="480" y="0" width="1681" height="1600"/>
  </clipPath>
</defs>
<path clip-path="url(#clip500)" d="
M193.936 1486.45 L2352.76 1486.45 L2352.76 123.472 L193.936 123.472  Z
  " fill="#ffffff" fill-rule="evenodd" fill-opacity="1"/>
<defs>
  <clipPath id="clip502">
    <rect x="193" y="123" width="2160" height="1364"/>
  </clipPath>
</defs>
<polyline clip-path="url(#clip502)" style="stroke:#000000; stroke-linecap:butt; stroke-linejoin:round; stroke-width:2; stroke-opacity:0.1; fill:none" points="
  255.035,1486.45 255.035,123.472 
  "/>
<polyline clip-path="url(#clip502)" style="stroke:#000000; stroke-linecap:butt; stroke-linejoin:round; stroke-width:2; stroke-opacity:0.1; fill:none" points="
  764.19,1486.45 764.19,123.472 
  "/>
<polyline clip-path="url(#clip502)" style="stroke:#000000; stroke-linecap:butt; stroke-linejoin:round; stroke-width:2; stroke-opacity:0.1; fill:none" points="
  1273.35,1486.45 1273.35,123.472 
  "/>
<polyline clip-path="url(#clip502)" style="stroke:#000000; stroke-linecap:butt; stroke-linejoin:round; stroke-width:2; stroke-opacity:0.1; fill:none" points="
  1782.5,1486.45 1782.5,123.472 
  "/>
<polyline clip-path="url(#clip502)" style="stroke:#000000; stroke-linecap:butt; stroke-linejoin:round; stroke-width:2; stroke-opacity:0.1; fill:none" points="
  2291.66,1486.45 2291.66,123.472 
  "/>
<polyline clip-path="url(#clip500)" style="stroke:#000000; stroke-linecap:butt; stroke-linejoin:round; stroke-width:4; stroke-opacity:1; fill:none" points="
  193.936,1486.45 2352.76,1486.45 
  "/>
<polyline clip-path="url(#clip500)" style="stroke:#000000; stroke-linecap:butt; stroke-linejoin:round; stroke-width:4; stroke-opacity:1; fill:none" points="
  255.035,1486.45 255.035,1467.55 
  "/>
<polyline clip-path="url(#clip500)" style="stroke:#000000; stroke-linecap:butt; stroke-linejoin:round; stroke-width:4; stroke-opacity:1; fill:none" points="
  764.19,1486.45 764.19,1467.55 
  "/>
<polyline clip-path="url(#clip500)" style="stroke:#000000; stroke-linecap:butt; stroke-linejoin:round; stroke-width:4; stroke-opacity:1; fill:none" points="
  1273.35,1486.45 1273.35,1467.55 
  "/>
<polyline clip-path="url(#clip500)" style="stroke:#000000; stroke-linecap:butt; stroke-linejoin:round; stroke-width:4; stroke-opacity:1; fill:none" points="
  1782.5,1486.45 1782.5,1467.55 
  "/>
<polyline clip-path="url(#clip500)" style="stroke:#000000; stroke-linecap:butt; stroke-linejoin:round; stroke-width:4; stroke-opacity:1; fill:none" points="
  2291.66,1486.45 2291.66,1467.55 
  "/>
<path clip-path="url(#clip500)" d="M201.563 1532.02 L231.239 1532.02 L231.239 1535.95 L201.563 1535.95 L201.563 1532.02 Z" fill="#000000" fill-rule="evenodd" fill-opacity="1" /><path clip-path="url(#clip500)" d="M242.141 1544.91 L249.78 1544.91 L249.78 1518.55 L241.47 1520.21 L241.47 1515.95 L249.734 1514.29 L254.41 1514.29 L254.41 1544.91 L262.049 1544.91 L262.049 1548.85 L242.141 1548.85 L242.141 1544.91 Z" fill="#000000" fill-rule="evenodd" fill-opacity="1" /><path clip-path="url(#clip500)" d="M271.493 1542.97 L276.377 1542.97 L276.377 1548.85 L271.493 1548.85 L271.493 1542.97 Z" fill="#000000" fill-rule="evenodd" fill-opacity="1" /><path clip-path="url(#clip500)" d="M296.562 1517.37 Q292.951 1517.37 291.122 1520.93 Q289.317 1524.47 289.317 1531.6 Q289.317 1538.71 291.122 1542.27 Q292.951 1545.82 296.562 1545.82 Q300.196 1545.82 302.002 1542.27 Q303.831 1538.71 303.831 1531.6 Q303.831 1524.47 302.002 1520.93 Q300.196 1517.37 296.562 1517.37 M296.562 1513.66 Q302.372 1513.66 305.428 1518.27 Q308.507 1522.85 308.507 1531.6 Q308.507 1540.33 305.428 1544.94 Q302.372 1549.52 296.562 1549.52 Q290.752 1549.52 287.673 1544.94 Q284.618 1540.33 284.618 1531.6 Q284.618 1522.85 287.673 1518.27 Q290.752 1513.66 296.562 1513.66 Z" fill="#000000" fill-rule="evenodd" fill-opacity="1" /><path clip-path="url(#clip500)" d="M711.216 1532.02 L740.892 1532.02 L740.892 1535.95 L711.216 1535.95 L711.216 1532.02 Z" fill="#000000" fill-rule="evenodd" fill-opacity="1" /><path clip-path="url(#clip500)" d="M760.984 1517.37 Q757.373 1517.37 755.545 1520.93 Q753.739 1524.47 753.739 1531.6 Q753.739 1538.71 755.545 1542.27 Q757.373 1545.82 760.984 1545.82 Q764.619 1545.82 766.424 1542.27 Q768.253 1538.71 768.253 1531.6 Q768.253 1524.47 766.424 1520.93 Q764.619 1517.37 760.984 1517.37 M760.984 1513.66 Q766.794 1513.66 769.85 1518.27 Q772.929 1522.85 772.929 1531.6 Q772.929 1540.33 769.85 1544.94 Q766.794 1549.52 760.984 1549.52 Q755.174 1549.52 752.095 1544.94 Q749.04 1540.33 749.04 1531.6 Q749.04 1522.85 752.095 1518.27 Q755.174 1513.66 760.984 1513.66 Z" fill="#000000" fill-rule="evenodd" fill-opacity="1" /><path clip-path="url(#clip500)" d="M781.146 1542.97 L786.03 1542.97 L786.03 1548.85 L781.146 1548.85 L781.146 1542.97 Z" fill="#000000" fill-rule="evenodd" fill-opacity="1" /><path clip-path="url(#clip500)" d="M796.262 1514.29 L814.618 1514.29 L814.618 1518.22 L800.544 1518.22 L800.544 1526.7 Q801.563 1526.35 802.581 1526.19 Q803.6 1526 804.618 1526 Q810.405 1526 813.785 1529.17 Q817.165 1532.34 817.165 1537.76 Q817.165 1543.34 813.692 1546.44 Q810.22 1549.52 803.901 1549.52 Q801.725 1549.52 799.456 1549.15 Q797.211 1548.78 794.804 1548.04 L794.804 1543.34 Q796.887 1544.47 799.109 1545.03 Q801.331 1545.58 803.808 1545.58 Q807.813 1545.58 810.151 1543.48 Q812.489 1541.37 812.489 1537.76 Q812.489 1534.15 810.151 1532.04 Q807.813 1529.94 803.808 1529.94 Q801.933 1529.94 800.058 1530.35 Q798.206 1530.77 796.262 1531.65 L796.262 1514.29 Z" fill="#000000" fill-rule="evenodd" fill-opacity="1" /><path clip-path="url(#clip500)" d="M1250.73 1517.37 Q1247.12 1517.37 1245.29 1520.93 Q1243.49 1524.47 1243.49 1531.6 Q1243.49 1538.71 1245.29 1542.27 Q1247.12 1545.82 1250.73 1545.82 Q1254.36 1545.82 1256.17 1542.27 Q1258 1538.71 1258 1531.6 Q1258 1524.47 1256.17 1520.93 Q1254.36 1517.37 1250.73 1517.37 M1250.73 1513.66 Q1256.54 1513.66 1259.6 1518.27 Q1262.67 1522.85 1262.67 1531.6 Q1262.67 1540.33 1259.6 1544.94 Q1256.54 1549.52 1250.73 1549.52 Q1244.92 1549.52 1241.84 1544.94 Q1238.79 1540.33 1238.79 1531.6 Q1238.79 1522.85 1241.84 1518.27 Q1244.92 1513.66 1250.73 1513.66 Z" fill="#000000" fill-rule="evenodd" fill-opacity="1" /><path clip-path="url(#clip500)" d="M1270.89 1542.97 L1275.78 1542.97 L1275.78 1548.85 L1270.89 1548.85 L1270.89 1542.97 Z" fill="#000000" fill-rule="evenodd" fill-opacity="1" /><path clip-path="url(#clip500)" d="M1295.96 1517.37 Q1292.35 1517.37 1290.52 1520.93 Q1288.72 1524.47 1288.72 1531.6 Q1288.72 1538.71 1290.52 1542.27 Q1292.35 1545.82 1295.96 1545.82 Q1299.6 1545.82 1301.4 1542.27 Q1303.23 1538.71 1303.23 1531.6 Q1303.23 1524.47 1301.4 1520.93 Q1299.6 1517.37 1295.96 1517.37 M1295.96 1513.66 Q1301.77 1513.66 1304.83 1518.27 Q1307.91 1522.85 1307.91 1531.6 Q1307.91 1540.33 1304.83 1544.94 Q1301.77 1549.52 1295.96 1549.52 Q1290.15 1549.52 1287.07 1544.94 Q1284.02 1540.33 1284.02 1531.6 Q1284.02 1522.85 1287.07 1518.27 Q1290.15 1513.66 1295.96 1513.66 Z" fill="#000000" fill-rule="evenodd" fill-opacity="1" /><path clip-path="url(#clip500)" d="M1760.38 1517.37 Q1756.77 1517.37 1754.94 1520.93 Q1753.14 1524.47 1753.14 1531.6 Q1753.14 1538.71 1754.94 1542.27 Q1756.77 1545.82 1760.38 1545.82 Q1764.02 1545.82 1765.82 1542.27 Q1767.65 1538.71 1767.65 1531.6 Q1767.65 1524.47 1765.82 1520.93 Q1764.02 1517.37 1760.38 1517.37 M1760.38 1513.66 Q1766.19 1513.66 1769.25 1518.27 Q1772.33 1522.85 1772.33 1531.6 Q1772.33 1540.33 1769.25 1544.94 Q1766.19 1549.52 1760.38 1549.52 Q1754.57 1549.52 1751.49 1544.94 Q1748.44 1540.33 1748.44 1531.6 Q1748.44 1522.85 1751.49 1518.27 Q1754.57 1513.66 1760.38 1513.66 Z" fill="#000000" fill-rule="evenodd" fill-opacity="1" /><path clip-path="url(#clip500)" d="M1780.55 1542.97 L1785.43 1542.97 L1785.43 1548.85 L1780.55 1548.85 L1780.55 1542.97 Z" fill="#000000" fill-rule="evenodd" fill-opacity="1" /><path clip-path="url(#clip500)" d="M1795.66 1514.29 L1814.02 1514.29 L1814.02 1518.22 L1799.94 1518.22 L1799.94 1526.7 Q1800.96 1526.35 1801.98 1526.19 Q1803 1526 1804.02 1526 Q1809.8 1526 1813.18 1529.17 Q1816.56 1532.34 1816.56 1537.76 Q1816.56 1543.34 1813.09 1546.44 Q1809.62 1549.52 1803.3 1549.52 Q1801.12 1549.52 1798.86 1549.15 Q1796.61 1548.78 1794.2 1548.04 L1794.2 1543.34 Q1796.29 1544.47 1798.51 1545.03 Q1800.73 1545.58 1803.21 1545.58 Q1807.21 1545.58 1809.55 1543.48 Q1811.89 1541.37 1811.89 1537.76 Q1811.89 1534.15 1809.55 1532.04 Q1807.21 1529.94 1803.21 1529.94 Q1801.33 1529.94 1799.46 1530.35 Q1797.61 1530.77 1795.66 1531.65 L1795.66 1514.29 Z" fill="#000000" fill-rule="evenodd" fill-opacity="1" /><path clip-path="url(#clip500)" d="M2258.81 1544.91 L2266.45 1544.91 L2266.45 1518.55 L2258.14 1520.21 L2258.14 1515.95 L2266.4 1514.29 L2271.08 1514.29 L2271.08 1544.91 L2278.72 1544.91 L2278.72 1548.85 L2258.81 1548.85 L2258.81 1544.91 Z" fill="#000000" fill-rule="evenodd" fill-opacity="1" /><path clip-path="url(#clip500)" d="M2288.16 1542.97 L2293.05 1542.97 L2293.05 1548.85 L2288.16 1548.85 L2288.16 1542.97 Z" fill="#000000" fill-rule="evenodd" fill-opacity="1" /><path clip-path="url(#clip500)" d="M2313.23 1517.37 Q2309.62 1517.37 2307.79 1520.93 Q2305.99 1524.47 2305.99 1531.6 Q2305.99 1538.71 2307.79 1542.27 Q2309.62 1545.82 2313.23 1545.82 Q2316.87 1545.82 2318.67 1542.27 Q2320.5 1538.71 2320.5 1531.6 Q2320.5 1524.47 2318.67 1520.93 Q2316.87 1517.37 2313.23 1517.37 M2313.23 1513.66 Q2319.04 1513.66 2322.1 1518.27 Q2325.18 1522.85 2325.18 1531.6 Q2325.18 1540.33 2322.1 1544.94 Q2319.04 1549.52 2313.23 1549.52 Q2307.42 1549.52 2304.34 1544.94 Q2301.29 1540.33 2301.29 1531.6 Q2301.29 1522.85 2304.34 1518.27 Q2307.42 1513.66 2313.23 1513.66 Z" fill="#000000" fill-rule="evenodd" fill-opacity="1" /><polyline clip-path="url(#clip502)" style="stroke:#000000; stroke-linecap:butt; stroke-linejoin:round; stroke-width:2; stroke-opacity:0.1; fill:none" points="
  193.936,1486.45 2352.76,1486.45 
  "/>
<polyline clip-path="url(#clip502)" style="stroke:#000000; stroke-linecap:butt; stroke-linejoin:round; stroke-width:2; stroke-opacity:0.1; fill:none" points="
  193.936,1145.7 2352.76,1145.7 
  "/>
<polyline clip-path="url(#clip502)" style="stroke:#000000; stroke-linecap:butt; stroke-linejoin:round; stroke-width:2; stroke-opacity:0.1; fill:none" points="
  193.936,804.96 2352.76,804.96 
  "/>
<polyline clip-path="url(#clip502)" style="stroke:#000000; stroke-linecap:butt; stroke-linejoin:round; stroke-width:2; stroke-opacity:0.1; fill:none" points="
  193.936,464.216 2352.76,464.216 
  "/>
<polyline clip-path="url(#clip502)" style="stroke:#000000; stroke-linecap:butt; stroke-linejoin:round; stroke-width:2; stroke-opacity:0.1; fill:none" points="
  193.936,123.472 2352.76,123.472 
  "/>
<polyline clip-path="url(#clip500)" style="stroke:#000000; stroke-linecap:butt; stroke-linejoin:round; stroke-width:4; stroke-opacity:1; fill:none" points="
  193.936,1486.45 193.936,123.472 
  "/>
<polyline clip-path="url(#clip500)" style="stroke:#000000; stroke-linecap:butt; stroke-linejoin:round; stroke-width:4; stroke-opacity:1; fill:none" points="
  193.936,1486.45 212.834,1486.45 
  "/>
<polyline clip-path="url(#clip500)" style="stroke:#000000; stroke-linecap:butt; stroke-linejoin:round; stroke-width:4; stroke-opacity:1; fill:none" points="
  193.936,1145.7 212.834,1145.7 
  "/>
<polyline clip-path="url(#clip500)" style="stroke:#000000; stroke-linecap:butt; stroke-linejoin:round; stroke-width:4; stroke-opacity:1; fill:none" points="
  193.936,804.96 212.834,804.96 
  "/>
<polyline clip-path="url(#clip500)" style="stroke:#000000; stroke-linecap:butt; stroke-linejoin:round; stroke-width:4; stroke-opacity:1; fill:none" points="
  193.936,464.216 212.834,464.216 
  "/>
<polyline clip-path="url(#clip500)" style="stroke:#000000; stroke-linecap:butt; stroke-linejoin:round; stroke-width:4; stroke-opacity:1; fill:none" points="
  193.936,123.472 212.834,123.472 
  "/>
<path clip-path="url(#clip500)" d="M50.9921 1486.9 L80.6679 1486.9 L80.6679 1490.83 L50.9921 1490.83 L50.9921 1486.9 Z" fill="#000000" fill-rule="evenodd" fill-opacity="1" /><path clip-path="url(#clip500)" d="M90.8067 1469.17 L109.163 1469.17 L109.163 1473.1 L95.0891 1473.1 L95.0891 1481.58 Q96.1076 1481.23 97.1261 1481.07 Q98.1447 1480.88 99.1632 1480.88 Q104.95 1480.88 108.33 1484.05 Q111.709 1487.22 111.709 1492.64 Q111.709 1498.22 108.237 1501.32 Q104.765 1504.4 98.4456 1504.4 Q96.2697 1504.4 94.0012 1504.03 Q91.7558 1503.66 89.3484 1502.92 L89.3484 1498.22 Q91.4317 1499.35 93.6539 1499.91 Q95.8761 1500.46 98.353 1500.46 Q102.358 1500.46 104.696 1498.36 Q107.033 1496.25 107.033 1492.64 Q107.033 1489.03 104.696 1486.92 Q102.358 1484.82 98.353 1484.82 Q96.478 1484.82 94.603 1485.23 Q92.7512 1485.65 90.8067 1486.53 L90.8067 1469.17 Z" fill="#000000" fill-rule="evenodd" fill-opacity="1" /><path clip-path="url(#clip500)" d="M120.922 1497.85 L125.807 1497.85 L125.807 1503.73 L120.922 1503.73 L120.922 1497.85 Z" fill="#000000" fill-rule="evenodd" fill-opacity="1" /><path clip-path="url(#clip500)" d="M145.992 1472.25 Q142.381 1472.25 140.552 1475.81 Q138.746 1479.35 138.746 1486.48 Q138.746 1493.59 140.552 1497.15 Q142.381 1500.7 145.992 1500.7 Q149.626 1500.7 151.431 1497.15 Q153.26 1493.59 153.26 1486.48 Q153.26 1479.35 151.431 1475.81 Q149.626 1472.25 145.992 1472.25 M145.992 1468.54 Q151.802 1468.54 154.857 1473.15 Q157.936 1477.73 157.936 1486.48 Q157.936 1495.21 154.857 1499.82 Q151.802 1504.4 145.992 1504.4 Q140.181 1504.4 137.103 1499.82 Q134.047 1495.21 134.047 1486.48 Q134.047 1477.73 137.103 1473.15 Q140.181 1468.54 145.992 1468.54 Z" fill="#000000" fill-rule="evenodd" fill-opacity="1" /><path clip-path="url(#clip500)" d="M51.9875 1146.16 L81.6633 1146.16 L81.6633 1150.09 L51.9875 1150.09 L51.9875 1146.16 Z" fill="#000000" fill-rule="evenodd" fill-opacity="1" /><path clip-path="url(#clip500)" d="M95.7836 1159.05 L112.103 1159.05 L112.103 1162.98 L90.1586 1162.98 L90.1586 1159.05 Q92.8206 1156.29 97.4039 1151.66 Q102.01 1147.01 103.191 1145.67 Q105.436 1143.15 106.316 1141.41 Q107.219 1139.65 107.219 1137.96 Q107.219 1135.21 105.274 1133.47 Q103.353 1131.73 100.251 1131.73 Q98.0521 1131.73 95.5984 1132.5 Q93.1678 1133.26 90.3901 1134.81 L90.3901 1130.09 Q93.2141 1128.96 95.6678 1128.38 Q98.1215 1127.8 100.159 1127.8 Q105.529 1127.8 108.723 1130.48 Q111.918 1133.17 111.918 1137.66 Q111.918 1139.79 111.108 1141.71 Q110.321 1143.61 108.214 1146.2 Q107.635 1146.87 104.534 1150.09 Q101.432 1153.28 95.7836 1159.05 Z" fill="#000000" fill-rule="evenodd" fill-opacity="1" /><path clip-path="url(#clip500)" d="M121.918 1157.1 L126.802 1157.1 L126.802 1162.98 L121.918 1162.98 L121.918 1157.1 Z" fill="#000000" fill-rule="evenodd" fill-opacity="1" /><path clip-path="url(#clip500)" d="M137.033 1128.42 L155.39 1128.42 L155.39 1132.36 L141.316 1132.36 L141.316 1140.83 Q142.334 1140.48 143.353 1140.32 Q144.371 1140.14 145.39 1140.14 Q151.177 1140.14 154.556 1143.31 Q157.936 1146.48 157.936 1151.9 Q157.936 1157.47 154.464 1160.58 Q150.992 1163.66 144.672 1163.66 Q142.496 1163.66 140.228 1163.28 Q137.982 1162.91 135.575 1162.17 L135.575 1157.47 Q137.658 1158.61 139.881 1159.16 Q142.103 1159.72 144.58 1159.72 Q148.584 1159.72 150.922 1157.61 Q153.26 1155.51 153.26 1151.9 Q153.26 1148.28 150.922 1146.18 Q148.584 1144.07 144.58 1144.07 Q142.705 1144.07 140.83 1144.49 Q138.978 1144.91 137.033 1145.78 L137.033 1128.42 Z" fill="#000000" fill-rule="evenodd" fill-opacity="1" /><path clip-path="url(#clip500)" d="M100.76 790.759 Q97.1493 790.759 95.3206 794.323 Q93.515 797.865 93.515 804.995 Q93.515 812.101 95.3206 815.666 Q97.1493 819.208 100.76 819.208 Q104.395 819.208 106.2 815.666 Q108.029 812.101 108.029 804.995 Q108.029 797.865 106.2 794.323 Q104.395 790.759 100.76 790.759 M100.76 787.055 Q106.571 787.055 109.626 791.661 Q112.705 796.245 112.705 804.995 Q112.705 813.722 109.626 818.328 Q106.571 822.911 100.76 822.911 Q94.9502 822.911 91.8715 818.328 Q88.816 813.722 88.816 804.995 Q88.816 796.245 91.8715 791.661 Q94.9502 787.055 100.76 787.055 Z" fill="#000000" fill-rule="evenodd" fill-opacity="1" /><path clip-path="url(#clip500)" d="M120.922 816.36 L125.807 816.36 L125.807 822.24 L120.922 822.24 L120.922 816.36 Z" fill="#000000" fill-rule="evenodd" fill-opacity="1" /><path clip-path="url(#clip500)" d="M145.992 790.759 Q142.381 790.759 140.552 794.323 Q138.746 797.865 138.746 804.995 Q138.746 812.101 140.552 815.666 Q142.381 819.208 145.992 819.208 Q149.626 819.208 151.431 815.666 Q153.26 812.101 153.26 804.995 Q153.26 797.865 151.431 794.323 Q149.626 790.759 145.992 790.759 M145.992 787.055 Q151.802 787.055 154.857 791.661 Q157.936 796.245 157.936 804.995 Q157.936 813.722 154.857 818.328 Q151.802 822.911 145.992 822.911 Q140.181 822.911 137.103 818.328 Q134.047 813.722 134.047 804.995 Q134.047 796.245 137.103 791.661 Q140.181 787.055 145.992 787.055 Z" fill="#000000" fill-rule="evenodd" fill-opacity="1" /><path clip-path="url(#clip500)" d="M95.7836 477.561 L112.103 477.561 L112.103 481.496 L90.1586 481.496 L90.1586 477.561 Q92.8206 474.806 97.4039 470.177 Q102.01 465.524 103.191 464.181 Q105.436 461.658 106.316 459.922 Q107.219 458.163 107.219 456.473 Q107.219 453.718 105.274 451.982 Q103.353 450.246 100.251 450.246 Q98.0521 450.246 95.5984 451.01 Q93.1678 451.774 90.3901 453.325 L90.3901 448.603 Q93.2141 447.468 95.6678 446.89 Q98.1215 446.311 100.159 446.311 Q105.529 446.311 108.723 448.996 Q111.918 451.681 111.918 456.172 Q111.918 458.302 111.108 460.223 Q110.321 462.121 108.214 464.714 Q107.635 465.385 104.534 468.603 Q101.432 471.797 95.7836 477.561 Z" fill="#000000" fill-rule="evenodd" fill-opacity="1" /><path clip-path="url(#clip500)" d="M121.918 475.616 L126.802 475.616 L126.802 481.496 L121.918 481.496 L121.918 475.616 Z" fill="#000000" fill-rule="evenodd" fill-opacity="1" /><path clip-path="url(#clip500)" d="M137.033 446.936 L155.39 446.936 L155.39 450.871 L141.316 450.871 L141.316 459.343 Q142.334 458.996 143.353 458.834 Q144.371 458.649 145.39 458.649 Q151.177 458.649 154.556 461.82 Q157.936 464.992 157.936 470.408 Q157.936 475.987 154.464 479.089 Q150.992 482.167 144.672 482.167 Q142.496 482.167 140.228 481.797 Q137.982 481.427 135.575 480.686 L135.575 475.987 Q137.658 477.121 139.881 477.677 Q142.103 478.232 144.58 478.232 Q148.584 478.232 150.922 476.126 Q153.26 474.019 153.26 470.408 Q153.26 466.797 150.922 464.691 Q148.584 462.584 144.58 462.584 Q142.705 462.584 140.83 463.001 Q138.978 463.417 137.033 464.297 L137.033 446.936 Z" fill="#000000" fill-rule="evenodd" fill-opacity="1" /><path clip-path="url(#clip500)" d="M90.8067 106.192 L109.163 106.192 L109.163 110.127 L95.0891 110.127 L95.0891 118.599 Q96.1076 118.252 97.1261 118.09 Q98.1447 117.905 99.1632 117.905 Q104.95 117.905 108.33 121.076 Q111.709 124.248 111.709 129.664 Q111.709 135.243 108.237 138.345 Q104.765 141.423 98.4456 141.423 Q96.2697 141.423 94.0012 141.053 Q91.7558 140.683 89.3484 139.942 L89.3484 135.243 Q91.4317 136.377 93.6539 136.933 Q95.8761 137.488 98.353 137.488 Q102.358 137.488 104.696 135.382 Q107.033 133.275 107.033 129.664 Q107.033 126.053 104.696 123.947 Q102.358 121.84 98.353 121.84 Q96.478 121.84 94.603 122.257 Q92.7512 122.674 90.8067 123.553 L90.8067 106.192 Z" fill="#000000" fill-rule="evenodd" fill-opacity="1" /><path clip-path="url(#clip500)" d="M120.922 134.873 L125.807 134.873 L125.807 140.752 L120.922 140.752 L120.922 134.873 Z" fill="#000000" fill-rule="evenodd" fill-opacity="1" /><path clip-path="url(#clip500)" d="M145.992 109.271 Q142.381 109.271 140.552 112.836 Q138.746 116.377 138.746 123.507 Q138.746 130.613 140.552 134.178 Q142.381 137.72 145.992 137.72 Q149.626 137.72 151.431 134.178 Q153.26 130.613 153.26 123.507 Q153.26 116.377 151.431 112.836 Q149.626 109.271 145.992 109.271 M145.992 105.567 Q151.802 105.567 154.857 110.174 Q157.936 114.757 157.936 123.507 Q157.936 132.234 154.857 136.84 Q151.802 141.423 145.992 141.423 Q140.181 141.423 137.103 136.84 Q134.047 132.234 134.047 123.507 Q134.047 114.757 137.103 110.174 Q140.181 105.567 145.992 105.567 Z" fill="#000000" fill-rule="evenodd" fill-opacity="1" /><path clip-path="url(#clip500)" d="M678.207 12.096 L716.448 12.096 L716.448 18.9825 L686.39 18.9825 L686.39 36.8875 L715.192 36.8875 L715.192 43.7741 L686.39 43.7741 L686.39 65.6895 L717.177 65.6895 L717.177 72.576 L678.207 72.576 L678.207 12.096 Z" fill="#000000" fill-rule="evenodd" fill-opacity="1" /><path clip-path="url(#clip500)" d="M756.592 34.1734 Q755.337 33.4443 753.838 33.1202 Q752.379 32.7556 750.597 32.7556 Q744.278 32.7556 740.875 36.8875 Q737.513 40.9789 737.513 48.6757 L737.513 72.576 L730.018 72.576 L730.018 27.2059 L737.513 27.2059 L737.513 34.2544 Q739.862 30.1225 743.629 28.1376 Q747.397 26.1121 752.785 26.1121 Q753.554 26.1121 754.486 26.2337 Q755.418 26.3147 756.552 26.5172 L756.592 34.1734 Z" fill="#000000" fill-rule="evenodd" fill-opacity="1" /><path clip-path="url(#clip500)" d="M789.243 34.1734 Q787.987 33.4443 786.488 33.1202 Q785.03 32.7556 783.247 32.7556 Q776.928 32.7556 773.525 36.8875 Q770.163 40.9789 770.163 48.6757 L770.163 72.576 L762.669 72.576 L762.669 27.2059 L770.163 27.2059 L770.163 34.2544 Q772.512 30.1225 776.28 28.1376 Q780.047 26.1121 785.435 26.1121 Q786.204 26.1121 787.136 26.2337 Q788.068 26.3147 789.202 26.5172 L789.243 34.1734 Z" fill="#000000" fill-rule="evenodd" fill-opacity="1" /><path clip-path="url(#clip500)" d="M812.819 32.4315 Q806.824 32.4315 803.34 37.1306 Q799.856 41.7891 799.856 49.9314 Q799.856 58.0738 803.299 62.7728 Q806.783 67.4314 812.819 67.4314 Q818.774 67.4314 822.258 62.7323 Q825.741 58.0333 825.741 49.9314 Q825.741 41.8701 822.258 37.1711 Q818.774 32.4315 812.819 32.4315 M812.819 26.1121 Q822.541 26.1121 828.091 32.4315 Q833.641 38.7509 833.641 49.9314 Q833.641 61.0714 828.091 67.4314 Q822.541 73.7508 812.819 73.7508 Q803.056 73.7508 797.506 67.4314 Q791.997 61.0714 791.997 49.9314 Q791.997 38.7509 797.506 32.4315 Q803.056 26.1121 812.819 26.1121 Z" fill="#000000" fill-rule="evenodd" fill-opacity="1" /><path clip-path="url(#clip500)" d="M872.286 34.1734 Q871.03 33.4443 869.532 33.1202 Q868.073 32.7556 866.291 32.7556 Q859.971 32.7556 856.569 36.8875 Q853.206 40.9789 853.206 48.6757 L853.206 72.576 L845.712 72.576 L845.712 27.2059 L853.206 27.2059 L853.206 34.2544 Q855.556 30.1225 859.323 28.1376 Q863.091 26.1121 868.478 26.1121 Q869.248 26.1121 870.18 26.2337 Q871.111 26.3147 872.246 26.5172 L872.286 34.1734 Z" fill="#000000" fill-rule="evenodd" fill-opacity="1" /><path clip-path="url(#clip500)" d="M925.029 17.4837 Q918.71 17.4837 915.509 23.7221 Q912.35 29.92 912.35 42.3968 Q912.35 54.833 915.509 61.0714 Q918.71 67.2693 925.029 67.2693 Q931.389 67.2693 934.549 61.0714 Q937.749 54.833 937.749 42.3968 Q937.749 29.92 934.549 23.7221 Q931.389 17.4837 925.029 17.4837 M925.029 11.0023 Q935.197 11.0023 940.544 19.0636 Q945.932 27.0843 945.932 42.3968 Q945.932 57.6687 940.544 65.73 Q935.197 73.7508 925.029 73.7508 Q914.861 73.7508 909.473 65.73 Q904.126 57.6687 904.126 42.3968 Q904.126 27.0843 909.473 19.0636 Q914.861 11.0023 925.029 11.0023 Z" fill="#000000" fill-rule="evenodd" fill-opacity="1" /><path clip-path="url(#clip500)" d="M960.312 62.2867 L968.86 62.2867 L968.86 72.576 L960.312 72.576 L960.312 62.2867 Z" fill="#000000" fill-rule="evenodd" fill-opacity="1" /><path clip-path="url(#clip500)" d="M1004.18 17.4837 Q997.864 17.4837 994.664 23.7221 Q991.504 29.92 991.504 42.3968 Q991.504 54.833 994.664 61.0714 Q997.864 67.2693 1004.18 67.2693 Q1010.54 67.2693 1013.7 61.0714 Q1016.9 54.833 1016.9 42.3968 Q1016.9 29.92 1013.7 23.7221 Q1010.54 17.4837 1004.18 17.4837 M1004.18 11.0023 Q1014.35 11.0023 1019.7 19.0636 Q1025.09 27.0843 1025.09 42.3968 Q1025.09 57.6687 1019.7 65.73 Q1014.35 73.7508 1004.18 73.7508 Q994.016 73.7508 988.628 65.73 Q983.281 57.6687 983.281 42.3968 Q983.281 27.0843 988.628 19.0636 Q994.016 11.0023 1004.18 11.0023 Z" fill="#000000" fill-rule="evenodd" fill-opacity="1" /><path clip-path="url(#clip500)" d="M1056.97 17.4837 Q1050.65 17.4837 1047.45 23.7221 Q1044.29 29.92 1044.29 42.3968 Q1044.29 54.833 1047.45 61.0714 Q1050.65 67.2693 1056.97 67.2693 Q1063.33 67.2693 1066.49 61.0714 Q1069.69 54.833 1069.69 42.3968 Q1069.69 29.92 1066.49 23.7221 Q1063.33 17.4837 1056.97 17.4837 M1056.97 11.0023 Q1067.13 11.0023 1072.48 19.0636 Q1077.87 27.0843 1077.87 42.3968 Q1077.87 57.6687 1072.48 65.73 Q1067.13 73.7508 1056.97 73.7508 Q1046.8 73.7508 1041.41 65.73 Q1036.06 57.6687 1036.06 42.3968 Q1036.06 27.0843 1041.41 19.0636 Q1046.8 11.0023 1056.97 11.0023 Z" fill="#000000" fill-rule="evenodd" fill-opacity="1" /><path clip-path="url(#clip500)" d="M1114.73 19.2256 L1094.07 51.5113 L1114.73 51.5113 L1114.73 19.2256 M1112.59 12.096 L1122.88 12.096 L1122.88 51.5113 L1131.5 51.5113 L1131.5 58.3168 L1122.88 58.3168 L1122.88 72.576 L1114.73 72.576 L1114.73 58.3168 L1087.43 58.3168 L1087.43 50.4176 L1112.59 12.096 Z" fill="#000000" fill-rule="evenodd" fill-opacity="1" /><path clip-path="url(#clip500)" d="M1145.28 71.3202 L1145.28 63.8666 Q1148.36 65.3249 1151.52 66.0946 Q1154.67 66.8642 1157.71 66.8642 Q1165.81 66.8642 1170.07 61.436 Q1174.36 55.9673 1174.97 44.8678 Q1172.62 48.3516 1169.01 50.215 Q1165.41 52.0784 1161.03 52.0784 Q1151.96 52.0784 1146.65 46.6097 Q1141.39 41.1005 1141.39 31.5808 Q1141.39 22.2638 1146.9 16.633 Q1152.41 11.0023 1161.56 11.0023 Q1172.05 11.0023 1177.56 19.0636 Q1183.11 27.0843 1183.11 42.3968 Q1183.11 56.6965 1176.31 65.2439 Q1169.54 73.7508 1158.08 73.7508 Q1155 73.7508 1151.84 73.1431 Q1148.68 72.5355 1145.28 71.3202 M1161.56 45.678 Q1167.07 45.678 1170.27 41.9107 Q1173.51 38.1433 1173.51 31.5808 Q1173.51 25.0589 1170.27 21.2916 Q1167.07 17.4837 1161.56 17.4837 Q1156.05 17.4837 1152.81 21.2916 Q1149.61 25.0589 1149.61 31.5808 Q1149.61 38.1433 1152.81 41.9107 Q1156.05 45.678 1161.56 45.678 Z" fill="#000000" fill-rule="evenodd" fill-opacity="1" /><path clip-path="url(#clip500)" d="M1195.75 12.096 L1234.64 12.096 L1234.64 15.5798 L1212.68 72.576 L1204.14 72.576 L1224.8 18.9825 L1195.75 18.9825 L1195.75 12.096 Z" fill="#000000" fill-rule="evenodd" fill-opacity="1" /><path clip-path="url(#clip500)" d="M1257.65 65.6895 L1286.21 65.6895 L1286.21 72.576 L1247.81 72.576 L1247.81 65.6895 Q1252.46 60.8689 1260.48 52.7671 Q1268.55 44.6248 1270.61 42.2752 Q1274.54 37.8598 1276.08 34.8216 Q1277.66 31.7429 1277.66 28.7857 Q1277.66 23.9651 1274.26 20.927 Q1270.9 17.8888 1265.47 17.8888 Q1261.62 17.8888 1257.32 19.2256 Q1253.07 20.5624 1248.21 23.2765 L1248.21 15.0127 Q1253.15 13.0277 1257.45 12.015 Q1261.74 11.0023 1265.3 11.0023 Q1274.7 11.0023 1280.29 15.7013 Q1285.88 20.4004 1285.88 28.2591 Q1285.88 31.9859 1284.47 35.3482 Q1283.09 38.6699 1279.4 43.2069 Q1278.39 44.3817 1272.96 50.0125 Q1267.53 55.6027 1257.65 65.6895 Z" fill="#000000" fill-rule="evenodd" fill-opacity="1" /><path clip-path="url(#clip500)" d="M1310.43 65.6895 L1338.99 65.6895 L1338.99 72.576 L1300.59 72.576 L1300.59 65.6895 Q1305.25 60.8689 1313.27 52.7671 Q1321.33 44.6248 1323.39 42.2752 Q1327.32 37.8598 1328.86 34.8216 Q1330.44 31.7429 1330.44 28.7857 Q1330.44 23.9651 1327.04 20.927 Q1323.68 17.8888 1318.25 17.8888 Q1314.4 17.8888 1310.11 19.2256 Q1305.85 20.5624 1300.99 23.2765 L1300.99 15.0127 Q1305.94 13.0277 1310.23 12.015 Q1314.52 11.0023 1318.09 11.0023 Q1327.49 11.0023 1333.08 15.7013 Q1338.67 20.4004 1338.67 28.2591 Q1338.67 31.9859 1337.25 35.3482 Q1335.87 38.6699 1332.19 43.2069 Q1331.17 44.3817 1325.74 50.0125 Q1320.32 55.6027 1310.43 65.6895 Z" fill="#000000" fill-rule="evenodd" fill-opacity="1" /><path clip-path="url(#clip500)" d="M1356.25 12.096 L1388.37 12.096 L1388.37 18.9825 L1363.74 18.9825 L1363.74 33.8088 Q1365.52 33.2012 1367.31 32.9176 Q1369.09 32.5936 1370.87 32.5936 Q1381 32.5936 1386.91 38.1433 Q1392.83 43.6931 1392.83 53.1722 Q1392.83 62.9348 1386.75 68.3631 Q1380.67 73.7508 1369.62 73.7508 Q1365.81 73.7508 1361.84 73.1026 Q1357.91 72.4545 1353.7 71.1582 L1353.7 62.9348 Q1357.34 64.9198 1361.23 65.892 Q1365.12 66.8642 1369.45 66.8642 Q1376.46 66.8642 1380.55 63.1779 Q1384.64 59.4916 1384.64 53.1722 Q1384.64 46.8528 1380.55 43.1664 Q1376.46 39.4801 1369.45 39.4801 Q1366.17 39.4801 1362.89 40.2093 Q1359.65 40.9384 1356.25 42.4778 L1356.25 12.096 Z" fill="#000000" fill-rule="evenodd" fill-opacity="1" /><path clip-path="url(#clip500)" d="M1409.03 12.096 L1441.15 12.096 L1441.15 18.9825 L1416.53 18.9825 L1416.53 33.8088 Q1418.31 33.2012 1420.09 32.9176 Q1421.87 32.5936 1423.65 32.5936 Q1433.78 32.5936 1439.7 38.1433 Q1445.61 43.6931 1445.61 53.1722 Q1445.61 62.9348 1439.53 68.3631 Q1433.46 73.7508 1422.4 73.7508 Q1418.59 73.7508 1414.62 73.1026 Q1410.69 72.4545 1406.48 71.1582 L1406.48 62.9348 Q1410.12 64.9198 1414.01 65.892 Q1417.9 66.8642 1422.24 66.8642 Q1429.25 66.8642 1433.34 63.1779 Q1437.43 59.4916 1437.43 53.1722 Q1437.43 46.8528 1433.34 43.1664 Q1429.25 39.4801 1422.24 39.4801 Q1418.96 39.4801 1415.67 40.2093 Q1412.43 40.9384 1409.03 42.4778 L1409.03 12.096 Z" fill="#000000" fill-rule="evenodd" fill-opacity="1" /><path clip-path="url(#clip500)" d="M1459.67 12.096 L1498.56 12.096 L1498.56 15.5798 L1476.6 72.576 L1468.05 72.576 L1488.71 18.9825 L1459.67 18.9825 L1459.67 12.096 Z" fill="#000000" fill-rule="evenodd" fill-opacity="1" /><path clip-path="url(#clip500)" d="M1515.93 65.6895 L1529.3 65.6895 L1529.3 19.5497 L1514.76 22.4663 L1514.76 15.0127 L1529.22 12.096 L1537.4 12.096 L1537.4 65.6895 L1550.77 65.6895 L1550.77 72.576 L1515.93 72.576 L1515.93 65.6895 Z" fill="#000000" fill-rule="evenodd" fill-opacity="1" /><path clip-path="url(#clip500)" d="M1567.54 71.3202 L1567.54 63.8666 Q1570.62 65.3249 1573.78 66.0946 Q1576.94 66.8642 1579.98 66.8642 Q1588.08 66.8642 1592.33 61.436 Q1596.63 55.9673 1597.24 44.8678 Q1594.89 48.3516 1591.28 50.215 Q1587.68 52.0784 1583.3 52.0784 Q1574.23 52.0784 1568.92 46.6097 Q1563.65 41.1005 1563.65 31.5808 Q1563.65 22.2638 1569.16 16.633 Q1574.67 11.0023 1583.83 11.0023 Q1594.32 11.0023 1599.83 19.0636 Q1605.38 27.0843 1605.38 42.3968 Q1605.38 56.6965 1598.57 65.2439 Q1591.81 73.7508 1580.34 73.7508 Q1577.27 73.7508 1574.11 73.1431 Q1570.95 72.5355 1567.54 71.3202 M1583.83 45.678 Q1589.34 45.678 1592.54 41.9107 Q1595.78 38.1433 1595.78 31.5808 Q1595.78 25.0589 1592.54 21.2916 Q1589.34 17.4837 1583.83 17.4837 Q1578.32 17.4837 1575.08 21.2916 Q1571.88 25.0589 1571.88 31.5808 Q1571.88 38.1433 1575.08 41.9107 Q1578.32 45.678 1583.83 45.678 Z" fill="#000000" fill-rule="evenodd" fill-opacity="1" /><path clip-path="url(#clip500)" d="M1627.13 65.6895 L1655.69 65.6895 L1655.69 72.576 L1617.29 72.576 L1617.29 65.6895 Q1621.95 60.8689 1629.97 52.7671 Q1638.03 44.6248 1640.09 42.2752 Q1644.02 37.8598 1645.56 34.8216 Q1647.14 31.7429 1647.14 28.7857 Q1647.14 23.9651 1643.74 20.927 Q1640.38 17.8888 1634.95 17.8888 Q1631.1 17.8888 1626.81 19.2256 Q1622.55 20.5624 1617.69 23.2765 L1617.69 15.0127 Q1622.64 13.0277 1626.93 12.015 Q1631.22 11.0023 1634.79 11.0023 Q1644.19 11.0023 1649.78 15.7013 Q1655.37 20.4004 1655.37 28.2591 Q1655.37 31.9859 1653.95 35.3482 Q1652.57 38.6699 1648.89 43.2069 Q1647.87 44.3817 1642.44 50.0125 Q1637.02 55.6027 1627.13 65.6895 Z" fill="#000000" fill-rule="evenodd" fill-opacity="1" /><path clip-path="url(#clip500)" d="M1691.38 39.075 Q1685.87 39.075 1682.63 42.8424 Q1679.43 46.6097 1679.43 53.1722 Q1679.43 59.6941 1682.63 63.502 Q1685.87 67.2693 1691.38 67.2693 Q1696.89 67.2693 1700.09 63.502 Q1703.33 59.6941 1703.33 53.1722 Q1703.33 46.6097 1700.09 42.8424 Q1696.89 39.075 1691.38 39.075 M1707.62 13.4328 L1707.62 20.8865 Q1704.54 19.4281 1701.38 18.6585 Q1698.27 17.8888 1695.19 17.8888 Q1687.09 17.8888 1682.79 23.3575 Q1678.54 28.8262 1677.93 39.8852 Q1680.32 36.3609 1683.93 34.4975 Q1687.53 32.5936 1691.87 32.5936 Q1700.98 32.5936 1706.25 38.1433 Q1711.55 43.6525 1711.55 53.1722 Q1711.55 62.4892 1706.04 68.12 Q1700.53 73.7508 1691.38 73.7508 Q1680.89 73.7508 1675.34 65.73 Q1669.79 57.6687 1669.79 42.3968 Q1669.79 28.0566 1676.59 19.5497 Q1683.4 11.0023 1694.86 11.0023 Q1697.94 11.0023 1701.06 11.6099 Q1704.22 12.2175 1707.62 13.4328 Z" fill="#000000" fill-rule="evenodd" fill-opacity="1" /><path clip-path="url(#clip500)" d="M1743.15 17.4837 Q1736.83 17.4837 1733.63 23.7221 Q1730.47 29.92 1730.47 42.3968 Q1730.47 54.833 1733.63 61.0714 Q1736.83 67.2693 1743.15 67.2693 Q1749.51 67.2693 1752.67 61.0714 Q1755.87 54.833 1755.87 42.3968 Q1755.87 29.92 1752.67 23.7221 Q1749.51 17.4837 1743.15 17.4837 M1743.15 11.0023 Q1753.32 11.0023 1758.66 19.0636 Q1764.05 27.0843 1764.05 42.3968 Q1764.05 57.6687 1758.66 65.73 Q1753.32 73.7508 1743.15 73.7508 Q1732.98 73.7508 1727.59 65.73 Q1722.25 57.6687 1722.25 42.3968 Q1722.25 27.0843 1727.59 19.0636 Q1732.98 11.0023 1743.15 11.0023 Z" fill="#000000" fill-rule="evenodd" fill-opacity="1" /><path clip-path="url(#clip500)" d="M1785.48 65.6895 L1814.04 65.6895 L1814.04 72.576 L1775.64 72.576 L1775.64 65.6895 Q1780.3 60.8689 1788.32 52.7671 Q1796.38 44.6248 1798.44 42.2752 Q1802.37 37.8598 1803.91 34.8216 Q1805.49 31.7429 1805.49 28.7857 Q1805.49 23.9651 1802.09 20.927 Q1798.73 17.8888 1793.3 17.8888 Q1789.45 17.8888 1785.16 19.2256 Q1780.9 20.5624 1776.04 23.2765 L1776.04 15.0127 Q1780.99 13.0277 1785.28 12.015 Q1789.57 11.0023 1793.14 11.0023 Q1802.54 11.0023 1808.13 15.7013 Q1813.72 20.4004 1813.72 28.2591 Q1813.72 31.9859 1812.3 35.3482 Q1810.92 38.6699 1807.23 43.2069 Q1806.22 44.3817 1800.79 50.0125 Q1795.37 55.6027 1785.48 65.6895 Z" fill="#000000" fill-rule="evenodd" fill-opacity="1" /><path clip-path="url(#clip500)" d="M1856.01 39.9662 Q1861.88 41.222 1865.16 45.1919 Q1868.48 49.1618 1868.48 54.9951 Q1868.48 63.9476 1862.33 68.8492 Q1856.17 73.7508 1844.83 73.7508 Q1841.02 73.7508 1836.97 72.9811 Q1832.96 72.2519 1828.66 70.7531 L1828.66 62.8538 Q1832.07 64.8388 1836.12 65.8515 Q1840.17 66.8642 1844.58 66.8642 Q1852.28 66.8642 1856.29 63.826 Q1860.34 60.7879 1860.34 54.9951 Q1860.34 49.6479 1856.57 46.6502 Q1852.85 43.612 1846.16 43.612 L1839.12 43.612 L1839.12 36.8875 L1846.49 36.8875 Q1852.52 36.8875 1855.72 34.4975 Q1858.92 32.067 1858.92 27.5299 Q1858.92 22.8714 1855.6 20.4004 Q1852.32 17.8888 1846.16 17.8888 Q1842.8 17.8888 1838.95 18.618 Q1835.11 19.3471 1830.49 20.8865 L1830.49 13.5948 Q1835.15 12.2985 1839.2 11.6504 Q1843.29 11.0023 1846.89 11.0023 Q1856.21 11.0023 1861.64 15.2557 Q1867.07 19.4686 1867.07 26.6793 Q1867.07 31.7024 1864.19 35.1862 Q1861.31 38.6294 1856.01 39.9662 Z" fill="#000000" fill-rule="evenodd" fill-opacity="1" /><polyline clip-path="url(#clip502)" style="stroke:#009af9; stroke-linecap:butt; stroke-linejoin:round; stroke-width:12; stroke-opacity:1; fill:none" points="
  255.035,936.355 362.225,933.777 469.416,929.992 576.607,924.474 683.797,916.538 790.988,905.39 898.179,890.277 1005.37,870.779 1112.56,847.066 1219.75,819.932 
  1326.94,791.11 1434.13,763.353 1541.32,739.021 1648.51,719.238 1755.7,704.082 1862.89,692.992 1970.09,685.146 2077.28,679.726 2184.47,676.042 2291.66,673.565 
  
  "/>
<circle clip-path="url(#clip502)" cx="255.035" cy="936.355" r="14.4" fill="#009af9" fill-rule="evenodd" fill-opacity="1" stroke="#000000" stroke-opacity="1" stroke-width="3.2"/>
<circle clip-path="url(#clip502)" cx="362.225" cy="933.777" r="14.4" fill="#009af9" fill-rule="evenodd" fill-opacity="1" stroke="#000000" stroke-opacity="1" stroke-width="3.2"/>
<circle clip-path="url(#clip502)" cx="469.416" cy="929.992" r="14.4" fill="#009af9" fill-rule="evenodd" fill-opacity="1" stroke="#000000" stroke-opacity="1" stroke-width="3.2"/>
<circle clip-path="url(#clip502)" cx="576.607" cy="924.474" r="14.4" fill="#009af9" fill-rule="evenodd" fill-opacity="1" stroke="#000000" stroke-opacity="1" stroke-width="3.2"/>
<circle clip-path="url(#clip502)" cx="683.797" cy="916.538" r="14.4" fill="#009af9" fill-rule="evenodd" fill-opacity="1" stroke="#000000" stroke-opacity="1" stroke-width="3.2"/>
<circle clip-path="url(#clip502)" cx="790.988" cy="905.39" r="14.4" fill="#009af9" fill-rule="evenodd" fill-opacity="1" stroke="#000000" stroke-opacity="1" stroke-width="3.2"/>
<circle clip-path="url(#clip502)" cx="898.179" cy="890.277" r="14.4" fill="#009af9" fill-rule="evenodd" fill-opacity="1" stroke="#000000" stroke-opacity="1" stroke-width="3.2"/>
<circle clip-path="url(#clip502)" cx="1005.37" cy="870.779" r="14.4" fill="#009af9" fill-rule="evenodd" fill-opacity="1" stroke="#000000" stroke-opacity="1" stroke-width="3.2"/>
<circle clip-path="url(#clip502)" cx="1112.56" cy="847.066" r="14.4" fill="#009af9" fill-rule="evenodd" fill-opacity="1" stroke="#000000" stroke-opacity="1" stroke-width="3.2"/>
<circle clip-path="url(#clip502)" cx="1219.75" cy="819.932" r="14.4" fill="#009af9" fill-rule="evenodd" fill-opacity="1" stroke="#000000" stroke-opacity="1" stroke-width="3.2"/>
<circle clip-path="url(#clip502)" cx="1326.94" cy="791.11" r="14.4" fill="#009af9" fill-rule="evenodd" fill-opacity="1" stroke="#000000" stroke-opacity="1" stroke-width="3.2"/>
<circle clip-path="url(#clip502)" cx="1434.13" cy="763.353" r="14.4" fill="#009af9" fill-rule="evenodd" fill-opacity="1" stroke="#000000" stroke-opacity="1" stroke-width="3.2"/>
<circle clip-path="url(#clip502)" cx="1541.32" cy="739.021" r="14.4" fill="#009af9" fill-rule="evenodd" fill-opacity="1" stroke="#000000" stroke-opacity="1" stroke-width="3.2"/>
<circle clip-path="url(#clip502)" cx="1648.51" cy="719.238" r="14.4" fill="#009af9" fill-rule="evenodd" fill-opacity="1" stroke="#000000" stroke-opacity="1" stroke-width="3.2"/>
<circle clip-path="url(#clip502)" cx="1755.7" cy="704.082" r="14.4" fill="#009af9" fill-rule="evenodd" fill-opacity="1" stroke="#000000" stroke-opacity="1" stroke-width="3.2"/>
<circle clip-path="url(#clip502)" cx="1862.89" cy="692.992" r="14.4" fill="#009af9" fill-rule="evenodd" fill-opacity="1" stroke="#000000" stroke-opacity="1" stroke-width="3.2"/>
<circle clip-path="url(#clip502)" cx="1970.09" cy="685.146" r="14.4" fill="#009af9" fill-rule="evenodd" fill-opacity="1" stroke="#000000" stroke-opacity="1" stroke-width="3.2"/>
<circle clip-path="url(#clip502)" cx="2077.28" cy="679.726" r="14.4" fill="#009af9" fill-rule="evenodd" fill-opacity="1" stroke="#000000" stroke-opacity="1" stroke-width="3.2"/>
<circle clip-path="url(#clip502)" cx="2184.47" cy="676.042" r="14.4" fill="#009af9" fill-rule="evenodd" fill-opacity="1" stroke="#000000" stroke-opacity="1" stroke-width="3.2"/>
<circle clip-path="url(#clip502)" cx="2291.66" cy="673.565" r="14.4" fill="#009af9" fill-rule="evenodd" fill-opacity="1" stroke="#000000" stroke-opacity="1" stroke-width="3.2"/>
<polyline clip-path="url(#clip502)" style="stroke:#e26f46; stroke-linecap:butt; stroke-linejoin:round; stroke-width:12; stroke-opacity:1; fill:none" points="
  255.035,936.355 261.664,936.228 268.294,936.097 329.596,934.726 390.898,933.002 427.737,931.761 464.577,930.342 495.725,928.985 526.872,927.468 560.707,925.621 
  594.542,923.543 625.735,921.402 656.928,919.025 690.37,916.191 723.812,913.036 762.558,908.946 801.304,904.354 835.737,899.822 870.17,894.842 900.364,890.095 
  930.558,884.982 963.478,878.988 996.398,872.558 1029.51,865.661 1062.63,858.353 1099.24,849.831 1135.86,840.896 1170.69,832.073 1205.53,823.007 1277.98,803.721 
  1338.96,787.492 1376.19,777.799 1413.41,768.383 1447.51,760.074 1481.62,752.122 1513.11,745.134 1544.61,738.516 1576.51,732.206 1608.42,726.304 1644.17,720.178 
  1679.93,714.565 1712.33,709.909 1744.73,705.649 1781.83,701.233 1818.92,697.28 1853.27,694.004 1887.62,691.068 1921.48,688.48 1955.34,686.171 1988.22,684.17 
  2021.1,682.386 2054.8,680.76 2088.51,679.318 2125.44,677.928 2162.36,676.714 2216,675.221 2269.65,673.999 2280.65,673.778 2291.66,673.565 
  "/>
<polyline clip-path="url(#clip502)" style="stroke:#3da44d; stroke-linecap:butt; stroke-linejoin:round; stroke-width:12; stroke-opacity:1; fill:none" points="
  255.035,803.033 268.294,802.934 390.898,801.753 464.577,800.755 526.872,799.693 594.542,798.259 656.928,796.62 690.37,795.589 723.812,794.429 762.558,792.892 
  801.304,791.093 835.737,789.207 870.17,786.96 900.364,784.593 930.558,781.732 947.018,779.912 963.478,777.868 979.938,775.567 996.398,772.969 1012.96,770.013 
  1029.51,766.666 1046.07,762.878 1062.63,758.598 1071.78,756.002 1080.94,753.233 1090.09,750.282 1099.24,747.143 1108.4,743.81 1117.55,740.278 1126.7,736.543 
  1135.86,732.605 1144.57,728.669 1153.28,724.55 1161.98,720.252 1170.69,715.782 1179.4,711.147 1188.11,706.358 1196.82,701.427 1205.53,696.371 1241.75,674.413 
  1277.98,652.257 1293.22,643.346 1308.47,634.896 1316.09,630.889 1323.71,627.046 1331.34,623.385 1338.96,619.916 1348.27,615.961 1357.57,612.329 1366.88,609.036 
  1376.19,606.093 1385.49,603.508 1394.8,601.284 1404.11,599.424 1413.41,597.925 1421.94,596.865 1430.46,596.099 1438.99,595.62 1447.51,595.42 1456.04,595.49 
  1464.57,595.818 1473.09,596.395 1481.62,597.208 1489.49,598.158 1497.36,599.29 1505.24,600.593 1513.11,602.057 1528.86,605.431 1544.61,609.331 1560.56,613.741 
  1576.51,618.539 1592.46,623.654 1608.42,629.023 1679.93,654.758 1744.73,678.201 1763.28,684.654 1781.83,690.941 1800.37,697.041 1818.92,702.94 1836.1,708.212 
  1853.27,713.295 1870.44,718.186 1887.62,722.881 1904.55,727.318 1921.48,731.565 1938.41,735.624 1955.34,739.498 1971.78,743.085 1988.22,746.505 2004.66,749.762 
  2021.1,752.86 2037.95,755.877 2054.8,758.738 2071.66,761.449 2088.51,764.016 2106.97,766.669 2125.44,769.164 2143.9,771.508 2162.36,773.709 2189.18,776.666 
  2216,779.358 2242.83,781.807 2269.65,784.031 2275.15,784.461 2280.65,784.883 2286.15,785.296 2291.66,785.702 
  "/>
<polyline clip-path="url(#clip502)" style="stroke:#c271d2; stroke-linecap:butt; stroke-linejoin:round; stroke-width:12; stroke-opacity:1; fill:none" points="
  255.035,812.397 268.294,812.766 390.898,817.062 464.577,820.567 526.872,824.207 594.542,829.039 656.928,834.598 690.37,838.208 723.812,842.452 762.558,848.498 
  801.304,856.339 818.52,860.63 835.737,865.564 852.953,871.273 870.17,877.91 885.267,884.633 900.364,892.345 915.461,901.199 930.558,911.363 947.018,924.154 
  963.478,938.971 971.708,947.221 979.938,956.074 988.168,965.564 996.398,975.719 1004.68,986.635 1012.96,998.28 1021.24,1010.68 1029.51,1023.84 1037.79,1037.79 
  1046.07,1052.53 1054.35,1068.06 1062.63,1084.36 1071.78,1103.25 1080.94,1123.02 1090.09,1143.59 1099.24,1164.88 1117.55,1209.1 1135.86,1254.44 1153.28,1297.1 
  1170.69,1337.46 1179.4,1356.14 1188.11,1373.46 1196.82,1389.14 1205.53,1402.89 1210.06,1409.19 1214.59,1414.87 1219.11,1419.87 1223.64,1424.18 1228.17,1427.76 
  1232.7,1430.58 1237.23,1432.61 1241.75,1433.83 1246.28,1434.22 1250.81,1433.75 1255.34,1432.42 1259.86,1430.2 1264.39,1427.09 1268.92,1423.08 1273.45,1418.18 
  1277.98,1412.38 1281.79,1406.8 1285.6,1400.6 1289.41,1393.78 1293.22,1386.35 1300.84,1369.69 1308.47,1350.74 1316.09,1329.62 1323.71,1306.48 1331.34,1281.49 
  1338.96,1254.84 1348.27,1220.34 1357.57,1184.03 1366.88,1146.29 1376.19,1107.52 1394.8,1028.36 1413.41,949.354 1421.94,913.887 1430.46,879.155 1438.99,845.33 
  1447.51,812.56 1456.04,780.972 1464.57,750.667 1473.09,721.73 1481.62,694.222 1489.49,670.126 1497.36,647.311 1505.24,625.789 1513.11,605.562 1520.99,586.625 
  1528.86,568.964 1536.73,552.559 1544.61,537.385 1552.58,523.239 1560.56,510.29 1568.54,498.501 1576.51,487.83 1584.49,478.236 1592.46,469.673 1600.44,462.099 
  1608.42,455.467 1617.36,449.1 1626.29,443.796 1635.23,439.495 1644.17,436.134 1653.11,433.655 1662.05,432 1670.99,431.111 1679.93,430.937 1696.13,432.272 
  1712.33,435.491 1728.53,440.327 1744.73,446.536 1763.28,455.05 1781.83,464.778 1800.37,475.46 1818.92,486.865 1853.27,509.237 1887.62,532.383 1921.48,555.202 
  1955.34,577.474 1988.22,598.214 2021.1,617.847 2054.8,636.675 2088.51,654.109 2125.44,671.584 2162.36,687.386 2216,707.503 2269.65,724.532 2280.65,727.675 
  2291.66,730.706 
  "/>
<polyline clip-path="url(#clip502)" style="stroke:#ac8d18; stroke-linecap:butt; stroke-linejoin:round; stroke-width:12; stroke-opacity:1; fill:none" points="
  255.035,791.325 268.294,791.324 390.898,791.309 464.577,791.287 526.872,791.25 594.542,791.174 656.928,791.043 723.812,790.777 801.304,790.152 835.737,789.684 
  870.17,789.034 900.364,788.261 930.558,787.237 947.018,786.547 963.478,785.746 979.938,784.818 996.398,783.747 1012.96,782.504 1029.51,781.076 1046.07,779.441 
  1062.63,777.577 1071.78,776.44 1080.94,775.224 1090.09,773.924 1099.24,772.537 1108.4,771.062 1117.55,769.495 1126.7,767.835 1135.86,766.08 1144.57,764.322 
  1153.28,762.477 1161.98,760.548 1170.69,758.534 1188.11,754.264 1205.53,749.696 1223.64,744.675 1241.75,739.435 1259.86,734.05 1277.98,728.602 1293.22,724.03 
  1308.47,719.523 1323.71,715.13 1338.96,710.893 1348.27,708.399 1357.57,705.985 1366.88,703.655 1376.19,701.415 1385.49,699.268 1394.8,697.217 1404.11,695.264 
  1413.41,693.409 1421.94,691.796 1430.46,690.266 1438.99,688.816 1447.51,687.445 1464.57,684.933 1481.62,682.712 1497.36,680.9 1513.11,679.298 1528.86,677.889 
  1544.61,676.653 1560.56,675.56 1576.51,674.608 1592.46,673.782 1608.42,673.066 1626.29,672.379 1644.17,671.796 1662.05,671.302 1679.93,670.885 1712.33,670.287 
  1744.73,669.849 1818.92,669.238 1887.62,668.956 1955.34,668.814 2021.1,668.742 2088.51,668.703 2162.36,668.682 2269.65,668.669 2291.66,668.668 
  "/>
<path clip-path="url(#clip500)" d="
M1662.04 1441.02 L2280.8 1441.02 L2280.8 1129.98 L1662.04 1129.98  Z
  " fill="#ffffff" fill-rule="evenodd" fill-opacity="1"/>
<polyline clip-path="url(#clip500)" style="stroke:#000000; stroke-linecap:butt; stroke-linejoin:round; stroke-width:4; stroke-opacity:1; fill:none" points="
  1662.04,1441.02 2280.8,1441.02 2280.8,1129.98 1662.04,1129.98 1662.04,1441.02 
  "/>
<polyline clip-path="url(#clip500)" style="stroke:#009af9; stroke-linecap:butt; stroke-linejoin:round; stroke-width:4; stroke-opacity:1; fill:none" points="
  1686.03,1181.82 1829.95,1181.82 
  "/>
<circle clip-path="url(#clip500)" cx="1757.99" cy="1181.82" r="23.04" fill="#009af9" fill-rule="evenodd" fill-opacity="1" stroke="#000000" stroke-opacity="1" stroke-width="5.12"/>
<path clip-path="url(#clip500)" d="M1867.78 1201.5 Q1865.97 1206.13 1864.26 1207.54 Q1862.55 1208.96 1859.68 1208.96 L1856.27 1208.96 L1856.27 1205.39 L1858.77 1205.39 Q1860.53 1205.39 1861.5 1204.56 Q1862.48 1203.72 1863.66 1200.62 L1864.42 1198.68 L1853.93 1173.17 L1858.45 1173.17 L1866.55 1193.45 L1874.65 1173.17 L1879.17 1173.17 L1867.78 1201.5 Z" fill="#000000" fill-rule="evenodd" fill-opacity="1" /><path clip-path="url(#clip500)" d="M1886.46 1195.16 L1894.1 1195.16 L1894.1 1168.79 L1885.79 1170.46 L1885.79 1166.2 L1894.05 1164.54 L1898.73 1164.54 L1898.73 1195.16 L1906.36 1195.16 L1906.36 1199.1 L1886.46 1199.1 L1886.46 1195.16 Z" fill="#000000" fill-rule="evenodd" fill-opacity="1" /><polyline clip-path="url(#clip500)" style="stroke:#e26f46; stroke-linecap:butt; stroke-linejoin:round; stroke-width:4; stroke-opacity:1; fill:none" points="
  1686.03,1233.66 1829.95,1233.66 
  "/>
<path clip-path="url(#clip500)" d="M1853.93 1240.7 L1853.93 1225.01 L1858.19 1225.01 L1858.19 1240.54 Q1858.19 1244.22 1859.63 1246.07 Q1861.06 1247.9 1863.93 1247.9 Q1867.38 1247.9 1869.37 1245.7 Q1871.39 1243.5 1871.39 1239.71 L1871.39 1225.01 L1875.65 1225.01 L1875.65 1250.94 L1871.39 1250.94 L1871.39 1246.95 Q1869.84 1249.31 1867.78 1250.47 Q1865.74 1251.61 1863.03 1251.61 Q1858.56 1251.61 1856.25 1248.83 Q1853.93 1246.05 1853.93 1240.7 M1864.65 1224.38 L1864.65 1224.38 Z" fill="#000000" fill-rule="evenodd" fill-opacity="1" /><path clip-path="url(#clip500)" d="M1904.12 1258.81 L1904.12 1262.12 L1879.49 1262.12 L1879.49 1258.81 L1904.12 1258.81 Z" fill="#000000" fill-rule="evenodd" fill-opacity="1" /><path clip-path="url(#clip500)" d="M1928.31 1229.99 Q1929.91 1227.12 1932.13 1225.75 Q1934.35 1224.38 1937.36 1224.38 Q1941.41 1224.38 1943.61 1227.23 Q1945.81 1230.06 1945.81 1235.29 L1945.81 1250.94 L1941.53 1250.94 L1941.53 1235.43 Q1941.53 1231.7 1940.21 1229.89 Q1938.89 1228.09 1936.18 1228.09 Q1932.87 1228.09 1930.95 1230.29 Q1929.03 1232.49 1929.03 1236.28 L1929.03 1250.94 L1924.74 1250.94 L1924.74 1235.43 Q1924.74 1231.68 1923.42 1229.89 Q1922.11 1228.09 1919.35 1228.09 Q1916.09 1228.09 1914.17 1230.31 Q1912.24 1232.51 1912.24 1236.28 L1912.24 1250.94 L1907.96 1250.94 L1907.96 1225.01 L1912.24 1225.01 L1912.24 1229.04 Q1913.7 1226.65 1915.74 1225.52 Q1917.78 1224.38 1920.58 1224.38 Q1923.4 1224.38 1925.37 1225.82 Q1927.36 1227.25 1928.31 1229.99 Z" fill="#000000" fill-rule="evenodd" fill-opacity="1" /><path clip-path="url(#clip500)" d="M1966.09 1237.9 Q1960.92 1237.9 1958.93 1239.08 Q1956.94 1240.26 1956.94 1243.11 Q1956.94 1245.38 1958.42 1246.72 Q1959.93 1248.04 1962.5 1248.04 Q1966.04 1248.04 1968.17 1245.54 Q1970.32 1243.02 1970.32 1238.85 L1970.32 1237.9 L1966.09 1237.9 M1974.58 1236.14 L1974.58 1250.94 L1970.32 1250.94 L1970.32 1247 Q1968.86 1249.36 1966.69 1250.5 Q1964.51 1251.61 1961.36 1251.61 Q1957.38 1251.61 1955.02 1249.38 Q1952.68 1247.14 1952.68 1243.39 Q1952.68 1239.01 1955.6 1236.79 Q1958.54 1234.57 1964.35 1234.57 L1970.32 1234.57 L1970.32 1234.15 Q1970.32 1231.21 1968.38 1229.62 Q1966.46 1228 1962.96 1228 Q1960.74 1228 1958.63 1228.53 Q1956.53 1229.06 1954.58 1230.13 L1954.58 1226.19 Q1956.92 1225.29 1959.12 1224.85 Q1961.32 1224.38 1963.4 1224.38 Q1969.03 1224.38 1971.8 1227.3 Q1974.58 1230.22 1974.58 1236.14 Z" fill="#000000" fill-rule="evenodd" fill-opacity="1" /><path clip-path="url(#clip500)" d="M2004.91 1235.29 L2004.91 1250.94 L2000.65 1250.94 L2000.65 1235.43 Q2000.65 1231.75 1999.21 1229.92 Q1997.78 1228.09 1994.91 1228.09 Q1991.46 1228.09 1989.47 1230.29 Q1987.48 1232.49 1987.48 1236.28 L1987.48 1250.94 L1983.19 1250.94 L1983.19 1225.01 L1987.48 1225.01 L1987.48 1229.04 Q1989 1226.7 1991.06 1225.54 Q1993.15 1224.38 1995.86 1224.38 Q2000.32 1224.38 2002.61 1227.16 Q2004.91 1229.92 2004.91 1235.29 Z" fill="#000000" fill-rule="evenodd" fill-opacity="1" /><path clip-path="url(#clip500)" d="M2012.96 1240.7 L2012.96 1225.01 L2017.22 1225.01 L2017.22 1240.54 Q2017.22 1244.22 2018.66 1246.07 Q2020.09 1247.9 2022.96 1247.9 Q2026.41 1247.9 2028.4 1245.7 Q2030.42 1243.5 2030.42 1239.71 L2030.42 1225.01 L2034.67 1225.01 L2034.67 1250.94 L2030.42 1250.94 L2030.42 1246.95 Q2028.86 1249.31 2026.8 1250.47 Q2024.77 1251.61 2022.06 1251.61 Q2017.59 1251.61 2015.28 1248.83 Q2012.96 1246.05 2012.96 1240.7 M2023.68 1224.38 L2023.68 1224.38 Z" fill="#000000" fill-rule="evenodd" fill-opacity="1" /><path clip-path="url(#clip500)" d="M2056.57 1214.92 L2056.57 1218.46 L2052.5 1218.46 Q2050.21 1218.46 2049.3 1219.38 Q2048.42 1220.31 2048.42 1222.72 L2048.42 1225.01 L2055.44 1225.01 L2055.44 1228.32 L2048.42 1228.32 L2048.42 1250.94 L2044.14 1250.94 L2044.14 1228.32 L2040.07 1228.32 L2040.07 1225.01 L2044.14 1225.01 L2044.14 1223.2 Q2044.14 1218.88 2046.16 1216.91 Q2048.17 1214.92 2052.54 1214.92 L2056.57 1214.92 Z" fill="#000000" fill-rule="evenodd" fill-opacity="1" /><path clip-path="url(#clip500)" d="M2071.92 1237.9 Q2066.76 1237.9 2064.77 1239.08 Q2062.78 1240.26 2062.78 1243.11 Q2062.78 1245.38 2064.26 1246.72 Q2065.76 1248.04 2068.33 1248.04 Q2071.87 1248.04 2074 1245.54 Q2076.16 1243.02 2076.16 1238.85 L2076.16 1237.9 L2071.92 1237.9 M2080.41 1236.14 L2080.41 1250.94 L2076.16 1250.94 L2076.16 1247 Q2074.7 1249.36 2072.52 1250.5 Q2070.35 1251.61 2067.2 1251.61 Q2063.22 1251.61 2060.85 1249.38 Q2058.52 1247.14 2058.52 1243.39 Q2058.52 1239.01 2061.43 1236.79 Q2064.37 1234.57 2070.18 1234.57 L2076.16 1234.57 L2076.16 1234.15 Q2076.16 1231.21 2074.21 1229.62 Q2072.29 1228 2068.79 1228 Q2066.57 1228 2064.47 1228.53 Q2062.36 1229.06 2060.41 1230.13 L2060.41 1226.19 Q2062.75 1225.29 2064.95 1224.85 Q2067.15 1224.38 2069.23 1224.38 Q2074.86 1224.38 2077.64 1227.3 Q2080.41 1230.22 2080.41 1236.14 Z" fill="#000000" fill-rule="evenodd" fill-opacity="1" /><path clip-path="url(#clip500)" d="M2107.85 1226 L2107.85 1229.99 Q2106.04 1228.99 2104.21 1228.5 Q2102.41 1228 2100.55 1228 Q2096.41 1228 2094.12 1230.63 Q2091.83 1233.25 2091.83 1238 Q2091.83 1242.74 2094.12 1245.38 Q2096.41 1248 2100.55 1248 Q2102.41 1248 2104.21 1247.51 Q2106.04 1247 2107.85 1246 L2107.85 1249.94 Q2106.06 1250.77 2104.14 1251.19 Q2102.24 1251.61 2100.09 1251.61 Q2094.23 1251.61 2090.79 1247.93 Q2087.34 1244.25 2087.34 1238 Q2087.34 1231.65 2090.81 1228.02 Q2094.3 1224.38 2100.37 1224.38 Q2102.34 1224.38 2104.21 1224.8 Q2106.09 1225.19 2107.85 1226 Z" fill="#000000" fill-rule="evenodd" fill-opacity="1" /><path clip-path="url(#clip500)" d="M2119.47 1217.65 L2119.47 1225.01 L2128.24 1225.01 L2128.24 1228.32 L2119.47 1228.32 L2119.47 1242.39 Q2119.47 1245.57 2120.32 1246.47 Q2121.2 1247.37 2123.86 1247.37 L2128.24 1247.37 L2128.24 1250.94 L2123.86 1250.94 Q2118.93 1250.94 2117.06 1249.11 Q2115.18 1247.25 2115.18 1242.39 L2115.18 1228.32 L2112.06 1228.32 L2112.06 1225.01 L2115.18 1225.01 L2115.18 1217.65 L2119.47 1217.65 Z" fill="#000000" fill-rule="evenodd" fill-opacity="1" /><path clip-path="url(#clip500)" d="M2133.4 1240.7 L2133.4 1225.01 L2137.66 1225.01 L2137.66 1240.54 Q2137.66 1244.22 2139.1 1246.07 Q2140.53 1247.9 2143.4 1247.9 Q2146.85 1247.9 2148.84 1245.7 Q2150.85 1243.5 2150.85 1239.71 L2150.85 1225.01 L2155.11 1225.01 L2155.11 1250.94 L2150.85 1250.94 L2150.85 1246.95 Q2149.3 1249.31 2147.24 1250.47 Q2145.21 1251.61 2142.5 1251.61 Q2138.03 1251.61 2135.72 1248.83 Q2133.4 1246.05 2133.4 1240.7 M2144.12 1224.38 L2144.12 1224.38 Z" fill="#000000" fill-rule="evenodd" fill-opacity="1" /><path clip-path="url(#clip500)" d="M2178.91 1228.99 Q2178.19 1228.57 2177.34 1228.39 Q2176.5 1228.18 2175.48 1228.18 Q2171.87 1228.18 2169.93 1230.54 Q2168.01 1232.88 2168.01 1237.28 L2168.01 1250.94 L2163.72 1250.94 L2163.72 1225.01 L2168.01 1225.01 L2168.01 1229.04 Q2169.35 1226.68 2171.5 1225.54 Q2173.66 1224.38 2176.73 1224.38 Q2177.17 1224.38 2177.71 1224.45 Q2178.24 1224.5 2178.89 1224.62 L2178.91 1228.99 Z" fill="#000000" fill-rule="evenodd" fill-opacity="1" /><path clip-path="url(#clip500)" d="M2204.51 1236.91 L2204.51 1238.99 L2184.93 1238.99 Q2185.21 1243.39 2187.57 1245.7 Q2189.95 1248 2194.19 1248 Q2196.64 1248 2198.93 1247.39 Q2201.25 1246.79 2203.52 1245.59 L2203.52 1249.62 Q2201.22 1250.59 2198.82 1251.1 Q2196.41 1251.61 2193.93 1251.61 Q2187.73 1251.61 2184.09 1248 Q2180.48 1244.38 2180.48 1238.23 Q2180.48 1231.86 2183.91 1228.13 Q2187.36 1224.38 2193.19 1224.38 Q2198.42 1224.38 2201.46 1227.76 Q2204.51 1231.12 2204.51 1236.91 M2200.25 1235.66 Q2200.21 1232.16 2198.28 1230.08 Q2196.39 1228 2193.24 1228 Q2189.67 1228 2187.52 1230.01 Q2185.39 1232.02 2185.07 1235.68 L2200.25 1235.66 Z" fill="#000000" fill-rule="evenodd" fill-opacity="1" /><path clip-path="url(#clip500)" d="M2228.56 1228.94 L2228.56 1214.92 L2232.82 1214.92 L2232.82 1250.94 L2228.56 1250.94 L2228.56 1247.05 Q2227.22 1249.36 2225.16 1250.5 Q2223.12 1251.61 2220.25 1251.61 Q2215.55 1251.61 2212.59 1247.86 Q2209.65 1244.11 2209.65 1238 Q2209.65 1231.88 2212.59 1228.13 Q2215.55 1224.38 2220.25 1224.38 Q2223.12 1224.38 2225.16 1225.52 Q2227.22 1226.63 2228.56 1228.94 M2214.05 1238 Q2214.05 1242.69 2215.97 1245.38 Q2217.91 1248.04 2221.29 1248.04 Q2224.67 1248.04 2226.62 1245.38 Q2228.56 1242.69 2228.56 1238 Q2228.56 1233.3 2226.62 1230.63 Q2224.67 1227.95 2221.29 1227.95 Q2217.91 1227.95 2215.97 1230.63 Q2214.05 1233.3 2214.05 1238 Z" fill="#000000" fill-rule="evenodd" fill-opacity="1" /><polyline clip-path="url(#clip500)" style="stroke:#3da44d; stroke-linecap:butt; stroke-linejoin:round; stroke-width:4; stroke-opacity:1; fill:none" points="
  1686.03,1285.5 1829.95,1285.5 
  "/>
<path clip-path="url(#clip500)" d="M1870.44 1266.76 L1870.44 1270.3 L1866.37 1270.3 Q1864.07 1270.3 1863.17 1271.22 Q1862.29 1272.15 1862.29 1274.56 L1862.29 1276.85 L1869.3 1276.85 L1869.3 1280.16 L1862.29 1280.16 L1862.29 1302.78 L1858.01 1302.78 L1858.01 1280.16 L1853.93 1280.16 L1853.93 1276.85 L1858.01 1276.85 L1858.01 1275.04 Q1858.01 1270.72 1860.02 1268.75 Q1862.04 1266.76 1866.41 1266.76 L1870.44 1266.76 Z" fill="#000000" fill-rule="evenodd" fill-opacity="1" /><path clip-path="url(#clip500)" d="M1874 1266.76 L1878.26 1266.76 L1878.26 1302.78 L1874 1302.78 L1874 1266.76 Z" fill="#000000" fill-rule="evenodd" fill-opacity="1" /><path clip-path="url(#clip500)" d="M1886.74 1292.54 L1886.74 1276.85 L1890.99 1276.85 L1890.99 1292.38 Q1890.99 1296.06 1892.43 1297.91 Q1893.86 1299.74 1896.74 1299.74 Q1900.18 1299.74 1902.18 1297.54 Q1904.19 1295.34 1904.19 1291.55 L1904.19 1276.85 L1908.45 1276.85 L1908.45 1302.78 L1904.19 1302.78 L1904.19 1298.79 Q1902.64 1301.15 1900.58 1302.31 Q1898.54 1303.45 1895.83 1303.45 Q1891.36 1303.45 1889.05 1300.67 Q1886.74 1297.89 1886.74 1292.54 M1897.45 1276.22 L1897.45 1276.22 Z" fill="#000000" fill-rule="evenodd" fill-opacity="1" /><path clip-path="url(#clip500)" d="M1938.77 1276.85 L1929.4 1289.47 L1939.26 1302.78 L1934.24 1302.78 L1926.69 1292.59 L1919.14 1302.78 L1914.12 1302.78 L1924.19 1289.21 L1914.98 1276.85 L1920 1276.85 L1926.87 1286.09 L1933.75 1276.85 L1938.77 1276.85 Z" fill="#000000" fill-rule="evenodd" fill-opacity="1" /><polyline clip-path="url(#clip500)" style="stroke:#c271d2; stroke-linecap:butt; stroke-linejoin:round; stroke-width:4; stroke-opacity:1; fill:none" points="
  1686.03,1337.34 1829.95,1337.34 
  "/>
<path clip-path="url(#clip500)" d="M1870.44 1318.6 L1870.44 1322.14 L1866.37 1322.14 Q1864.07 1322.14 1863.17 1323.06 Q1862.29 1323.99 1862.29 1326.4 L1862.29 1328.69 L1869.3 1328.69 L1869.3 1332 L1862.29 1332 L1862.29 1354.62 L1858.01 1354.62 L1858.01 1332 L1853.93 1332 L1853.93 1328.69 L1858.01 1328.69 L1858.01 1326.88 Q1858.01 1322.56 1860.02 1320.59 Q1862.04 1318.6 1866.41 1318.6 L1870.44 1318.6 Z" fill="#000000" fill-rule="evenodd" fill-opacity="1" /><path clip-path="url(#clip500)" d="M1884.05 1331.68 Q1880.62 1331.68 1878.63 1334.36 Q1876.64 1337.02 1876.64 1341.68 Q1876.64 1346.33 1878.61 1349.01 Q1880.6 1351.68 1884.05 1351.68 Q1887.45 1351.68 1889.44 1348.99 Q1891.43 1346.31 1891.43 1341.68 Q1891.43 1337.07 1889.44 1334.38 Q1887.45 1331.68 1884.05 1331.68 M1884.05 1328.06 Q1889.61 1328.06 1892.78 1331.68 Q1895.95 1335.29 1895.95 1341.68 Q1895.95 1348.04 1892.78 1351.68 Q1889.61 1355.29 1884.05 1355.29 Q1878.47 1355.29 1875.3 1351.68 Q1872.15 1348.04 1872.15 1341.68 Q1872.15 1335.29 1875.3 1331.68 Q1878.47 1328.06 1884.05 1328.06 Z" fill="#000000" fill-rule="evenodd" fill-opacity="1" /><path clip-path="url(#clip500)" d="M1918.03 1332.67 Q1917.31 1332.25 1916.46 1332.07 Q1915.62 1331.86 1914.61 1331.86 Q1910.99 1331.86 1909.05 1334.22 Q1907.13 1336.56 1907.13 1340.96 L1907.13 1354.62 L1902.85 1354.62 L1902.85 1328.69 L1907.13 1328.69 L1907.13 1332.72 Q1908.47 1330.36 1910.62 1329.22 Q1912.78 1328.06 1915.86 1328.06 Q1916.3 1328.06 1916.83 1328.13 Q1917.36 1328.18 1918.01 1328.3 L1918.03 1332.67 Z" fill="#000000" fill-rule="evenodd" fill-opacity="1" /><path clip-path="url(#clip500)" d="M1940.11 1329.68 L1940.11 1333.67 Q1938.31 1332.67 1936.48 1332.18 Q1934.67 1331.68 1932.82 1331.68 Q1928.68 1331.68 1926.39 1334.31 Q1924.1 1336.93 1924.1 1341.68 Q1924.1 1346.42 1926.39 1349.06 Q1928.68 1351.68 1932.82 1351.68 Q1934.67 1351.68 1936.48 1351.19 Q1938.31 1350.68 1940.11 1349.68 L1940.11 1353.62 Q1938.33 1354.45 1936.41 1354.87 Q1934.51 1355.29 1932.36 1355.29 Q1926.5 1355.29 1923.05 1351.61 Q1919.61 1347.93 1919.61 1341.68 Q1919.61 1335.33 1923.08 1331.7 Q1926.57 1328.06 1932.64 1328.06 Q1934.61 1328.06 1936.48 1328.48 Q1938.36 1328.87 1940.11 1329.68 Z" fill="#000000" fill-rule="evenodd" fill-opacity="1" /><path clip-path="url(#clip500)" d="M1947.52 1328.69 L1951.78 1328.69 L1951.78 1354.62 L1947.52 1354.62 L1947.52 1328.69 M1947.52 1318.6 L1951.78 1318.6 L1951.78 1323.99 L1947.52 1323.99 L1947.52 1318.6 Z" fill="#000000" fill-rule="evenodd" fill-opacity="1" /><path clip-path="url(#clip500)" d="M1982.24 1338.97 L1982.24 1354.62 L1977.98 1354.62 L1977.98 1339.11 Q1977.98 1335.43 1976.55 1333.6 Q1975.11 1331.77 1972.24 1331.77 Q1968.8 1331.77 1966.8 1333.97 Q1964.81 1336.17 1964.81 1339.96 L1964.81 1354.62 L1960.53 1354.62 L1960.53 1328.69 L1964.81 1328.69 L1964.81 1332.72 Q1966.34 1330.38 1968.4 1329.22 Q1970.48 1328.06 1973.19 1328.06 Q1977.66 1328.06 1979.95 1330.84 Q1982.24 1333.6 1982.24 1338.97 Z" fill="#000000" fill-rule="evenodd" fill-opacity="1" /><path clip-path="url(#clip500)" d="M2007.8 1341.35 Q2007.8 1336.72 2005.88 1334.18 Q2003.98 1331.63 2000.53 1331.63 Q1997.11 1331.63 1995.18 1334.18 Q1993.29 1336.72 1993.29 1341.35 Q1993.29 1345.96 1995.18 1348.5 Q1997.11 1351.05 2000.53 1351.05 Q2003.98 1351.05 2005.88 1348.5 Q2007.8 1345.96 2007.8 1341.35 M2012.06 1351.4 Q2012.06 1358.02 2009.12 1361.24 Q2006.18 1364.48 2000.11 1364.48 Q1997.87 1364.48 1995.88 1364.13 Q1993.89 1363.81 1992.01 1363.11 L1992.01 1358.97 Q1993.89 1359.99 1995.72 1360.47 Q1997.54 1360.96 1999.44 1360.96 Q2003.63 1360.96 2005.72 1358.76 Q2007.8 1356.58 2007.8 1352.16 L2007.8 1350.06 Q2006.48 1352.35 2004.42 1353.48 Q2002.36 1354.62 1999.49 1354.62 Q1994.72 1354.62 1991.8 1350.98 Q1988.89 1347.35 1988.89 1341.35 Q1988.89 1335.33 1991.8 1331.7 Q1994.72 1328.06 1999.49 1328.06 Q2002.36 1328.06 2004.42 1329.2 Q2006.48 1330.33 2007.8 1332.62 L2007.8 1328.69 L2012.06 1328.69 L2012.06 1351.4 Z" fill="#000000" fill-rule="evenodd" fill-opacity="1" /><polyline clip-path="url(#clip500)" style="stroke:#ac8d18; stroke-linecap:butt; stroke-linejoin:round; stroke-width:4; stroke-opacity:1; fill:none" points="
  1686.03,1389.18 1829.95,1389.18 
  "/>
<path clip-path="url(#clip500)" d="M1853.93 1370.44 L1858.22 1370.44 L1858.22 1391.71 L1870.93 1380.53 L1876.37 1380.53 L1862.62 1392.66 L1876.94 1406.46 L1871.39 1406.46 L1858.22 1393.79 L1858.22 1406.46 L1853.93 1406.46 L1853.93 1370.44 Z" fill="#000000" fill-rule="evenodd" fill-opacity="1" /><path clip-path="url(#clip500)" d="M1892.5 1393.42 Q1887.34 1393.42 1885.35 1394.6 Q1883.36 1395.78 1883.36 1398.63 Q1883.36 1400.9 1884.84 1402.24 Q1886.34 1403.56 1888.91 1403.56 Q1892.45 1403.56 1894.58 1401.06 Q1896.74 1398.54 1896.74 1394.37 L1896.74 1393.42 L1892.5 1393.42 M1900.99 1391.66 L1900.99 1406.46 L1896.74 1406.46 L1896.74 1402.52 Q1895.28 1404.88 1893.1 1406.02 Q1890.93 1407.13 1887.78 1407.13 Q1883.8 1407.13 1881.43 1404.9 Q1879.1 1402.66 1879.1 1398.91 Q1879.1 1394.53 1882.01 1392.31 Q1884.95 1390.09 1890.76 1390.09 L1896.74 1390.09 L1896.74 1389.67 Q1896.74 1386.73 1894.79 1385.14 Q1892.87 1383.52 1889.37 1383.52 Q1887.15 1383.52 1885.05 1384.05 Q1882.94 1384.58 1880.99 1385.65 L1880.99 1381.71 Q1883.33 1380.81 1885.53 1380.37 Q1887.73 1379.9 1889.81 1379.9 Q1895.44 1379.9 1898.22 1382.82 Q1900.99 1385.74 1900.99 1391.66 Z" fill="#000000" fill-rule="evenodd" fill-opacity="1" /><path clip-path="url(#clip500)" d="M1913.89 1402.57 L1913.89 1416.32 L1909.61 1416.32 L1909.61 1380.53 L1913.89 1380.53 L1913.89 1384.46 Q1915.23 1382.15 1917.27 1381.04 Q1919.33 1379.9 1922.17 1379.9 Q1926.9 1379.9 1929.84 1383.65 Q1932.8 1387.4 1932.8 1393.52 Q1932.8 1399.63 1929.84 1403.38 Q1926.9 1407.13 1922.17 1407.13 Q1919.33 1407.13 1917.27 1406.02 Q1915.23 1404.88 1913.89 1402.57 M1928.38 1393.52 Q1928.38 1388.82 1926.43 1386.15 Q1924.51 1383.47 1921.13 1383.47 Q1917.75 1383.47 1915.81 1386.15 Q1913.89 1388.82 1913.89 1393.52 Q1913.89 1398.21 1915.81 1400.9 Q1917.75 1403.56 1921.13 1403.56 Q1924.51 1403.56 1926.43 1400.9 Q1928.38 1398.21 1928.38 1393.52 Z" fill="#000000" fill-rule="evenodd" fill-opacity="1" /><path clip-path="url(#clip500)" d="M1943.98 1402.57 L1943.98 1416.32 L1939.7 1416.32 L1939.7 1380.53 L1943.98 1380.53 L1943.98 1384.46 Q1945.32 1382.15 1947.36 1381.04 Q1949.42 1379.9 1952.27 1379.9 Q1956.99 1379.9 1959.93 1383.65 Q1962.89 1387.4 1962.89 1393.52 Q1962.89 1399.63 1959.93 1403.38 Q1956.99 1407.13 1952.27 1407.13 Q1949.42 1407.13 1947.36 1406.02 Q1945.32 1404.88 1943.98 1402.57 M1958.47 1393.52 Q1958.47 1388.82 1956.53 1386.15 Q1954.61 1383.47 1951.23 1383.47 Q1947.85 1383.47 1945.9 1386.15 Q1943.98 1388.82 1943.98 1393.52 Q1943.98 1398.21 1945.9 1400.9 Q1947.85 1403.56 1951.23 1403.56 Q1954.61 1403.56 1956.53 1400.9 Q1958.47 1398.21 1958.47 1393.52 Z" fill="#000000" fill-rule="evenodd" fill-opacity="1" /><path clip-path="url(#clip500)" d="M1981.73 1393.42 Q1976.57 1393.42 1974.58 1394.6 Q1972.59 1395.78 1972.59 1398.63 Q1972.59 1400.9 1974.07 1402.24 Q1975.58 1403.56 1978.15 1403.56 Q1981.69 1403.56 1983.82 1401.06 Q1985.97 1398.54 1985.97 1394.37 L1985.97 1393.42 L1981.73 1393.42 M1990.23 1391.66 L1990.23 1406.46 L1985.97 1406.46 L1985.97 1402.52 Q1984.51 1404.88 1982.34 1406.02 Q1980.16 1407.13 1977.01 1407.13 Q1973.03 1407.13 1970.67 1404.9 Q1968.33 1402.66 1968.33 1398.91 Q1968.33 1394.53 1971.25 1392.31 Q1974.19 1390.09 1980 1390.09 L1985.97 1390.09 L1985.97 1389.67 Q1985.97 1386.73 1984.03 1385.14 Q1982.11 1383.52 1978.61 1383.52 Q1976.39 1383.52 1974.28 1384.05 Q1972.17 1384.58 1970.23 1385.65 L1970.23 1381.71 Q1972.57 1380.81 1974.77 1380.37 Q1976.97 1379.9 1979.05 1379.9 Q1984.67 1379.9 1987.45 1382.82 Q1990.23 1385.74 1990.23 1391.66 Z" fill="#000000" fill-rule="evenodd" fill-opacity="1" /></svg>
