<?xml version="1.0" encoding="utf-8"?>
<svg xmlns="http://www.w3.org/2000/svg" xmlns:xlink="http://www.w3.org/1999/xlink" width="600" height="400" viewBox="0 0 2400 1600">
<defs>
  <clipPath id="clip900">
    <rect x="0" y="0" width="2400" height="1600"/>
  </clipPath>
</defs>
<path clip-path="url(#clip900)" d="
M0 1600 L2400 1600 L2400 0 L0 0  Z
  " fill="#ffffff" fill-rule="evenodd" fill-opacity="1"/>
<defs>
  <clipPath id="clip901">
    <rect x="480" y="0" width="1681" height="1600"/>
  </clipPath>
</defs>
<path clip-path="url(#clip900)" d="
M213.607 1474.16 L2352.76 1474.16 L2352.76 47.2441 L213.607 47.2441  Z
  " fill="#ffffff" fill-rule="evenodd" fill-opacity="1"/>
<defs>
  <clipPath id="clip902">
    <rect x="213" y="47" width="2140" height="1428"/>
  </clipPath>
</defs>
<polyline clip-path="url(#clip902)" style="stroke:#000000; stroke-linecap:butt; stroke-linejoin:round; stroke-width:2; stroke-opacity:0.1; fill:none" points="
  807.697,1474.16 807.697,47.2441 
  "/>
<polyline clip-path="url(#clip902)" style="stroke:#000000; stroke-linecap:butt; stroke-linejoin:round; stroke-width:2; stroke-opacity:0.1; fill:none" points="
  2148.47,1474.16 2148.47,47.2441 
  "/>
<polyline clip-path="url(#clip900)" style="stroke:#000000; stroke-linecap:butt; stroke-linejoin:round; stroke-width:4; stroke-opacity:1; fill:none" points="
  213.607,1474.16 2352.76,1474.16 
  "/>
<polyline clip-path="url(#clip900)" style="stroke:#000000; stroke-linecap:butt; stroke-linejoin:round; stroke-width:4; stroke-opacity:1; fill:none" points="
  807.697,1474.16 807.697,1455.27 
  "/>
<polyline clip-path="url(#clip900)" style="stroke:#000000; stroke-linecap:butt; stroke-linejoin:round; stroke-width:4; stroke-opacity:1; fill:none" points="
  2148.47,1474.16 2148.47,1455.27 
  "/>
<path clip-path="url(#clip900)" d="M774.024 1548.29 L781.663 1548.29 L781.663 1521.92 L773.353 1523.59 L773.353 1519.33 L781.617 1517.66 L786.293 1517.66 L786.293 1548.29 L793.932 1548.29 L793.932 1552.22 L774.024 1552.22 L774.024 1548.29 Z" fill="#000000" fill-rule="evenodd" fill-opacity="1" /><path clip-path="url(#clip900)" d="M813.376 1520.74 Q809.765 1520.74 807.936 1524.31 Q806.131 1527.85 806.131 1534.98 Q806.131 1542.09 807.936 1545.65 Q809.765 1549.19 813.376 1549.19 Q817.01 1549.19 818.816 1545.65 Q820.644 1542.09 820.644 1534.98 Q820.644 1527.85 818.816 1524.31 Q817.01 1520.74 813.376 1520.74 M813.376 1517.04 Q819.186 1517.04 822.242 1521.65 Q825.32 1526.23 825.32 1534.98 Q825.32 1543.71 822.242 1548.31 Q819.186 1552.9 813.376 1552.9 Q807.566 1552.9 804.487 1548.31 Q801.432 1543.71 801.432 1534.98 Q801.432 1526.23 804.487 1521.65 Q807.566 1517.04 813.376 1517.04 Z" fill="#000000" fill-rule="evenodd" fill-opacity="1" /><path clip-path="url(#clip900)" d="M825.866 1521.62 L832.072 1521.62 L832.072 1500.19 L825.32 1501.55 L825.32 1498.09 L832.035 1496.73 L835.834 1496.73 L835.834 1521.62 L842.04 1521.62 L842.04 1524.81 L825.866 1524.81 L825.866 1521.62 Z" fill="#000000" fill-rule="evenodd" fill-opacity="1" /><path clip-path="url(#clip900)" d="M2114.24 1548.29 L2121.88 1548.29 L2121.88 1521.92 L2113.57 1523.59 L2113.57 1519.33 L2121.84 1517.66 L2126.51 1517.66 L2126.51 1548.29 L2134.15 1548.29 L2134.15 1552.22 L2114.24 1552.22 L2114.24 1548.29 Z" fill="#000000" fill-rule="evenodd" fill-opacity="1" /><path clip-path="url(#clip900)" d="M2153.59 1520.74 Q2149.98 1520.74 2148.15 1524.31 Q2146.35 1527.85 2146.35 1534.98 Q2146.35 1542.09 2148.15 1545.65 Q2149.98 1549.19 2153.59 1549.19 Q2157.23 1549.19 2159.03 1545.65 Q2160.86 1542.09 2160.86 1534.98 Q2160.86 1527.85 2159.03 1524.31 Q2157.23 1520.74 2153.59 1520.74 M2153.59 1517.04 Q2159.4 1517.04 2162.46 1521.65 Q2165.54 1526.23 2165.54 1534.98 Q2165.54 1543.71 2162.46 1548.31 Q2159.4 1552.9 2153.59 1552.9 Q2147.78 1552.9 2144.71 1548.31 Q2141.65 1543.71 2141.65 1534.98 Q2141.65 1526.23 2144.71 1521.65 Q2147.78 1517.04 2153.59 1517.04 Z" fill="#000000" fill-rule="evenodd" fill-opacity="1" /><path clip-path="url(#clip900)" d="M2170.11 1521.62 L2183.37 1521.62 L2183.37 1524.81 L2165.54 1524.81 L2165.54 1521.62 Q2167.7 1519.38 2171.43 1515.62 Q2175.17 1511.84 2176.13 1510.75 Q2177.95 1508.7 2178.67 1507.29 Q2179.4 1505.86 2179.4 1504.48 Q2179.4 1502.24 2177.82 1500.83 Q2176.26 1499.42 2173.74 1499.42 Q2171.95 1499.42 2169.96 1500.04 Q2167.98 1500.67 2165.73 1501.93 L2165.73 1498.09 Q2168.02 1497.17 2170.01 1496.7 Q2172.01 1496.23 2173.66 1496.23 Q2178.03 1496.23 2180.62 1498.41 Q2183.22 1500.59 2183.22 1504.24 Q2183.22 1505.97 2182.56 1507.53 Q2181.92 1509.07 2180.21 1511.18 Q2179.74 1511.72 2177.22 1514.34 Q2174.7 1516.93 2170.11 1521.62 Z" fill="#000000" fill-rule="evenodd" fill-opacity="1" /><polyline clip-path="url(#clip902)" style="stroke:#000000; stroke-linecap:butt; stroke-linejoin:round; stroke-width:2; stroke-opacity:0.1; fill:none" points="
  213.607,1012.14 2352.76,1012.14 
  "/>
<polyline clip-path="url(#clip902)" style="stroke:#000000; stroke-linecap:butt; stroke-linejoin:round; stroke-width:2; stroke-opacity:0.1; fill:none" points="
  213.607,523.12 2352.76,523.12 
  "/>
<polyline clip-path="url(#clip900)" style="stroke:#000000; stroke-linecap:butt; stroke-linejoin:round; stroke-width:4; stroke-opacity:1; fill:none" points="
  213.607,1474.16 213.607,47.2441 
  "/>
<polyline clip-path="url(#clip900)" style="stroke:#000000; stroke-linecap:butt; stroke-linejoin:round; stroke-width:4; stroke-opacity:1; fill:none" points="
  213.607,1012.14 232.505,1012.14 
  "/>
<polyline clip-path="url(#clip900)" style="stroke:#000000; stroke-linecap:butt; stroke-linejoin:round; stroke-width:4; stroke-opacity:1; fill:none" points="
  213.607,523.12 232.505,523.12 
  "/>
<path clip-path="url(#clip900)" d="M51.6634 1031.93 L59.3023 1031.93 L59.3023 1005.56 L50.9921 1007.23 L50.9921 1002.97 L59.256 1001.3 L63.9319 1001.3 L63.9319 1031.93 L71.5707 1031.93 L71.5707 1035.86 L51.6634 1035.86 L51.6634 1031.93 Z" fill="#000000" fill-rule="evenodd" fill-opacity="1" /><path clip-path="url(#clip900)" d="M91.0151 1004.38 Q87.404 1004.38 85.5753 1007.95 Q83.7697 1011.49 83.7697 1018.62 Q83.7697 1025.73 85.5753 1029.29 Q87.404 1032.83 91.0151 1032.83 Q94.6493 1032.83 96.4548 1029.29 Q98.2835 1025.73 98.2835 1018.62 Q98.2835 1011.49 96.4548 1007.95 Q94.6493 1004.38 91.0151 1004.38 M91.0151 1000.68 Q96.8252 1000.68 99.8808 1005.29 Q102.959 1009.87 102.959 1018.62 Q102.959 1027.35 99.8808 1031.95 Q96.8252 1036.54 91.0151 1036.54 Q85.2049 1036.54 82.1262 1031.95 Q79.0707 1027.35 79.0707 1018.62 Q79.0707 1009.87 82.1262 1005.29 Q85.2049 1000.68 91.0151 1000.68 Z" fill="#000000" fill-rule="evenodd" fill-opacity="1" /><path clip-path="url(#clip900)" d="M102.959 994.781 L127.071 994.781 L127.071 997.978 L102.959 997.978 L102.959 994.781 Z" fill="#000000" fill-rule="evenodd" fill-opacity="1" /><path clip-path="url(#clip900)" d="M135.929 1005.26 L142.136 1005.26 L142.136 983.835 L135.384 985.189 L135.384 981.728 L142.098 980.374 L145.898 980.374 L145.898 1005.26 L152.104 1005.26 L152.104 1008.45 L135.929 1008.45 L135.929 1005.26 Z" fill="#000000" fill-rule="evenodd" fill-opacity="1" /><path clip-path="url(#clip900)" d="M167.903 982.875 Q164.969 982.875 163.483 985.772 Q162.016 988.649 162.016 994.442 Q162.016 1000.22 163.483 1003.11 Q164.969 1005.99 167.903 1005.99 Q170.855 1005.99 172.322 1003.11 Q173.808 1000.22 173.808 994.442 Q173.808 988.649 172.322 985.772 Q170.855 982.875 167.903 982.875 M167.903 979.866 Q172.623 979.866 175.106 983.609 Q177.607 987.333 177.607 994.442 Q177.607 1001.53 175.106 1005.28 Q172.623 1009 167.903 1009 Q163.182 1009 160.68 1005.28 Q158.198 1001.53 158.198 994.442 Q158.198 987.333 160.68 983.609 Q163.182 979.866 167.903 979.866 Z" fill="#000000" fill-rule="evenodd" fill-opacity="1" /><path clip-path="url(#clip900)" d="M76.9787 542.913 L84.6175 542.913 L84.6175 516.547 L76.3074 518.214 L76.3074 513.955 L84.5712 512.288 L89.2471 512.288 L89.2471 542.913 L96.886 542.913 L96.886 546.848 L76.9787 546.848 L76.9787 542.913 Z" fill="#000000" fill-rule="evenodd" fill-opacity="1" /><path clip-path="url(#clip900)" d="M116.33 515.367 Q112.719 515.367 110.891 518.931 Q109.085 522.473 109.085 529.603 Q109.085 536.709 110.891 540.274 Q112.719 543.815 116.33 543.815 Q119.965 543.815 121.77 540.274 Q123.599 536.709 123.599 529.603 Q123.599 522.473 121.77 518.931 Q119.965 515.367 116.33 515.367 M116.33 511.663 Q122.14 511.663 125.196 516.269 Q128.275 520.853 128.275 529.603 Q128.275 538.329 125.196 542.936 Q122.14 547.519 116.33 547.519 Q110.52 547.519 107.441 542.936 Q104.386 538.329 104.386 529.603 Q104.386 520.853 107.441 516.269 Q110.52 511.663 116.33 511.663 Z" fill="#000000" fill-rule="evenodd" fill-opacity="1" /><path clip-path="url(#clip900)" d="M128.275 505.764 L152.386 505.764 L152.386 508.962 L128.275 508.962 L128.275 505.764 Z" fill="#000000" fill-rule="evenodd" fill-opacity="1" /><path clip-path="url(#clip900)" d="M160.624 491.357 L175.539 491.357 L175.539 494.555 L164.103 494.555 L164.103 501.438 Q164.931 501.156 165.759 501.025 Q166.586 500.874 167.414 500.874 Q172.116 500.874 174.862 503.451 Q177.607 506.028 177.607 510.429 Q177.607 514.961 174.786 517.481 Q171.965 519.983 166.831 519.983 Q165.063 519.983 163.22 519.682 Q161.395 519.381 159.439 518.779 L159.439 514.961 Q161.132 515.883 162.937 516.334 Q164.743 516.786 166.755 516.786 Q170.009 516.786 171.909 515.074 Q173.808 513.363 173.808 510.429 Q173.808 507.495 171.909 505.783 Q170.009 504.071 166.755 504.071 Q165.232 504.071 163.709 504.41 Q162.204 504.749 160.624 505.463 L160.624 491.357 Z" fill="#000000" fill-rule="evenodd" fill-opacity="1" /><polyline clip-path="url(#clip902)" style="stroke:#009af9; stroke-linecap:butt; stroke-linejoin:round; stroke-width:16; stroke-opacity:1; fill:none" points="
  274.149,87.6286 677.762,1381.12 1081.38,1433.78 1484.99,1370.76 1888.6,1430.08 2292.21,1393.34 
  "/>
<line clip-path="url(#clip902)" x1="274.149" y1="87.6286" x2="274.149" y2="71.6286" style="stroke:#009af9; stroke-width:3.2; stroke-opacity:1"/>
<line clip-path="url(#clip902)" x1="274.149" y1="87.6286" x2="258.149" y2="87.6286" style="stroke:#009af9; stroke-width:3.2; stroke-opacity:1"/>
<line clip-path="url(#clip902)" x1="274.149" y1="87.6286" x2="274.149" y2="103.629" style="stroke:#009af9; stroke-width:3.2; stroke-opacity:1"/>
<line clip-path="url(#clip902)" x1="274.149" y1="87.6286" x2="290.149" y2="87.6286" style="stroke:#009af9; stroke-width:3.2; stroke-opacity:1"/>
<line clip-path="url(#clip902)" x1="677.762" y1="1381.12" x2="677.762" y2="1365.12" style="stroke:#009af9; stroke-width:3.2; stroke-opacity:1"/>
<line clip-path="url(#clip902)" x1="677.762" y1="1381.12" x2="661.762" y2="1381.12" style="stroke:#009af9; stroke-width:3.2; stroke-opacity:1"/>
<line clip-path="url(#clip902)" x1="677.762" y1="1381.12" x2="677.762" y2="1397.12" style="stroke:#009af9; stroke-width:3.2; stroke-opacity:1"/>
<line clip-path="url(#clip902)" x1="677.762" y1="1381.12" x2="693.762" y2="1381.12" style="stroke:#009af9; stroke-width:3.2; stroke-opacity:1"/>
<line clip-path="url(#clip902)" x1="1081.38" y1="1433.78" x2="1081.38" y2="1417.78" style="stroke:#009af9; stroke-width:3.2; stroke-opacity:1"/>
<line clip-path="url(#clip902)" x1="1081.38" y1="1433.78" x2="1065.38" y2="1433.78" style="stroke:#009af9; stroke-width:3.2; stroke-opacity:1"/>
<line clip-path="url(#clip902)" x1="1081.38" y1="1433.78" x2="1081.38" y2="1449.78" style="stroke:#009af9; stroke-width:3.2; stroke-opacity:1"/>
<line clip-path="url(#clip902)" x1="1081.38" y1="1433.78" x2="1097.38" y2="1433.78" style="stroke:#009af9; stroke-width:3.2; stroke-opacity:1"/>
<line clip-path="url(#clip902)" x1="1484.99" y1="1370.76" x2="1484.99" y2="1354.76" style="stroke:#009af9; stroke-width:3.2; stroke-opacity:1"/>
<line clip-path="url(#clip902)" x1="1484.99" y1="1370.76" x2="1468.99" y2="1370.76" style="stroke:#009af9; stroke-width:3.2; stroke-opacity:1"/>
<line clip-path="url(#clip902)" x1="1484.99" y1="1370.76" x2="1484.99" y2="1386.76" style="stroke:#009af9; stroke-width:3.2; stroke-opacity:1"/>
<line clip-path="url(#clip902)" x1="1484.99" y1="1370.76" x2="1500.99" y2="1370.76" style="stroke:#009af9; stroke-width:3.2; stroke-opacity:1"/>
<line clip-path="url(#clip902)" x1="1888.6" y1="1430.08" x2="1888.6" y2="1414.08" style="stroke:#009af9; stroke-width:3.2; stroke-opacity:1"/>
<line clip-path="url(#clip902)" x1="1888.6" y1="1430.08" x2="1872.6" y2="1430.08" style="stroke:#009af9; stroke-width:3.2; stroke-opacity:1"/>
<line clip-path="url(#clip902)" x1="1888.6" y1="1430.08" x2="1888.6" y2="1446.08" style="stroke:#009af9; stroke-width:3.2; stroke-opacity:1"/>
<line clip-path="url(#clip902)" x1="1888.6" y1="1430.08" x2="1904.6" y2="1430.08" style="stroke:#009af9; stroke-width:3.2; stroke-opacity:1"/>
<line clip-path="url(#clip902)" x1="2292.21" y1="1393.34" x2="2292.21" y2="1377.34" style="stroke:#009af9; stroke-width:3.2; stroke-opacity:1"/>
<line clip-path="url(#clip902)" x1="2292.21" y1="1393.34" x2="2276.21" y2="1393.34" style="stroke:#009af9; stroke-width:3.2; stroke-opacity:1"/>
<line clip-path="url(#clip902)" x1="2292.21" y1="1393.34" x2="2292.21" y2="1409.34" style="stroke:#009af9; stroke-width:3.2; stroke-opacity:1"/>
<line clip-path="url(#clip902)" x1="2292.21" y1="1393.34" x2="2308.21" y2="1393.34" style="stroke:#009af9; stroke-width:3.2; stroke-opacity:1"/>
<polyline clip-path="url(#clip902)" style="stroke:#e26f46; stroke-linecap:butt; stroke-linejoin:round; stroke-width:16; stroke-opacity:1; fill:none" points="
  274.149,151.871 677.762,210.754 1081.38,269.638 1484.99,328.521 1888.6,387.404 2292.21,446.288 
  "/>
<path clip-path="url(#clip900)" d="
M1677.27 250.328 L2281.45 250.328 L2281.45 94.8081 L1677.27 94.8081  Z
  " fill="#ffffff" fill-rule="evenodd" fill-opacity="1"/>
<polyline clip-path="url(#clip900)" style="stroke:#000000; stroke-linecap:butt; stroke-linejoin:round; stroke-width:4; stroke-opacity:1; fill:none" points="
  1677.27,250.328 2281.45,250.328 2281.45,94.8081 1677.27,94.8081 1677.27,250.328 
  "/>
<polyline clip-path="url(#clip900)" style="stroke:#009af9; stroke-linecap:butt; stroke-linejoin:round; stroke-width:4; stroke-opacity:1; fill:none" points="
  1701.03,146.648 1843.64,146.648 
  "/>
<line clip-path="url(#clip900)" x1="1772.34" y1="146.648" x2="1772.34" y2="121.048" style="stroke:#009af9; stroke-width:5.12; stroke-opacity:1"/>
<line clip-path="url(#clip900)" x1="1772.34" y1="146.648" x2="1746.74" y2="146.648" style="stroke:#009af9; stroke-width:5.12; stroke-opacity:1"/>
<line clip-path="url(#clip900)" x1="1772.34" y1="146.648" x2="1772.34" y2="172.248" style="stroke:#009af9; stroke-width:5.12; stroke-opacity:1"/>
<line clip-path="url(#clip900)" x1="1772.34" y1="146.648" x2="1797.94" y2="146.648" style="stroke:#009af9; stroke-width:5.12; stroke-opacity:1"/>
<path clip-path="url(#clip900)" d="M1886.32 150.664 Q1886.32 146.035 1884.4 143.488 Q1882.5 140.942 1879.06 140.942 Q1875.63 140.942 1873.71 143.488 Q1871.81 146.035 1871.81 150.664 Q1871.81 155.271 1873.71 157.817 Q1875.63 160.363 1879.06 160.363 Q1882.5 160.363 1884.4 157.817 Q1886.32 155.271 1886.32 150.664 M1890.58 160.711 Q1890.58 167.331 1887.64 170.548 Q1884.7 173.789 1878.64 173.789 Q1876.39 173.789 1874.4 173.442 Q1872.41 173.118 1870.54 172.423 L1870.54 168.28 Q1872.41 169.298 1874.24 169.785 Q1876.07 170.271 1877.97 170.271 Q1882.16 170.271 1884.24 168.072 Q1886.32 165.896 1886.32 161.474 L1886.32 159.368 Q1885 161.66 1882.94 162.794 Q1880.88 163.928 1878.01 163.928 Q1873.24 163.928 1870.33 160.294 Q1867.41 156.66 1867.41 150.664 Q1867.41 144.646 1870.33 141.012 Q1873.24 137.377 1878.01 137.377 Q1880.88 137.377 1882.94 138.512 Q1885 139.646 1886.32 141.937 L1886.32 138.002 L1890.58 138.002 L1890.58 160.711 Z" fill="#000000" fill-rule="evenodd" fill-opacity="1" /><path clip-path="url(#clip900)" d="M1911.14 150.896 Q1905.98 150.896 1903.99 152.076 Q1901.99 153.257 1901.99 156.104 Q1901.99 158.373 1903.48 159.715 Q1904.98 161.035 1907.55 161.035 Q1911.09 161.035 1913.22 158.535 Q1915.37 156.011 1915.37 151.845 L1915.37 150.896 L1911.14 150.896 M1919.63 149.137 L1919.63 163.928 L1915.37 163.928 L1915.37 159.993 Q1913.92 162.354 1911.74 163.488 Q1909.56 164.599 1906.42 164.599 Q1902.43 164.599 1900.07 162.377 Q1897.74 160.132 1897.74 156.382 Q1897.74 152.007 1900.65 149.785 Q1903.59 147.562 1909.4 147.562 L1915.37 147.562 L1915.37 147.146 Q1915.37 144.206 1913.43 142.609 Q1911.51 140.988 1908.01 140.988 Q1905.79 140.988 1903.68 141.521 Q1901.58 142.053 1899.63 143.118 L1899.63 139.183 Q1901.97 138.28 1904.17 137.84 Q1906.37 137.377 1908.45 137.377 Q1914.08 137.377 1916.86 140.294 Q1919.63 143.211 1919.63 149.137 Z" fill="#000000" fill-rule="evenodd" fill-opacity="1" /><path clip-path="url(#clip900)" d="M1927.97 153.697 L1927.97 138.002 L1932.23 138.002 L1932.23 153.535 Q1932.23 157.215 1933.66 159.067 Q1935.1 160.896 1937.97 160.896 Q1941.42 160.896 1943.41 158.697 Q1945.42 156.498 1945.42 152.701 L1945.42 138.002 L1949.68 138.002 L1949.68 163.928 L1945.42 163.928 L1945.42 159.947 Q1943.87 162.308 1941.81 163.465 Q1939.77 164.599 1937.06 164.599 Q1932.6 164.599 1930.28 161.822 Q1927.97 159.044 1927.97 153.697 M1938.68 137.377 L1938.68 137.377 Z" fill="#000000" fill-rule="evenodd" fill-opacity="1" /><path clip-path="url(#clip900)" d="M1974.98 138.766 L1974.98 142.794 Q1973.17 141.868 1971.23 141.405 Q1969.29 140.942 1967.2 140.942 Q1964.03 140.942 1962.43 141.914 Q1960.86 142.887 1960.86 144.831 Q1960.86 146.312 1961.99 147.169 Q1963.13 148.002 1966.55 148.766 L1968.01 149.09 Q1972.55 150.062 1974.45 151.845 Q1976.37 153.604 1976.37 156.775 Q1976.37 160.386 1973.5 162.493 Q1970.65 164.599 1965.65 164.599 Q1963.57 164.599 1961.3 164.183 Q1959.05 163.789 1956.55 162.979 L1956.55 158.581 Q1958.92 159.808 1961.21 160.433 Q1963.5 161.035 1965.74 161.035 Q1968.75 161.035 1970.37 160.016 Q1971.99 158.974 1971.99 157.099 Q1971.99 155.363 1970.81 154.437 Q1969.66 153.512 1965.7 152.655 L1964.22 152.308 Q1960.26 151.474 1958.5 149.762 Q1956.74 148.025 1956.74 145.016 Q1956.74 141.359 1959.33 139.368 Q1961.93 137.377 1966.69 137.377 Q1969.05 137.377 1971.14 137.725 Q1973.22 138.072 1974.98 138.766 Z" fill="#000000" fill-rule="evenodd" fill-opacity="1" /><path clip-path="url(#clip900)" d="M1999.68 138.766 L1999.68 142.794 Q1997.87 141.868 1995.93 141.405 Q1993.99 140.942 1991.9 140.942 Q1988.73 140.942 1987.13 141.914 Q1985.56 142.887 1985.56 144.831 Q1985.56 146.312 1986.69 147.169 Q1987.83 148.002 1991.25 148.766 L1992.71 149.09 Q1997.25 150.062 1999.15 151.845 Q2001.07 153.604 2001.07 156.775 Q2001.07 160.386 1998.2 162.493 Q1995.35 164.599 1990.35 164.599 Q1988.27 164.599 1986 164.183 Q1983.75 163.789 1981.25 162.979 L1981.25 158.581 Q1983.61 159.808 1985.91 160.433 Q1988.2 161.035 1990.44 161.035 Q1993.45 161.035 1995.07 160.016 Q1996.69 158.974 1996.69 157.099 Q1996.69 155.363 1995.51 154.437 Q1994.36 153.512 1990.4 152.655 L1988.92 152.308 Q1984.96 151.474 1983.2 149.762 Q1981.44 148.025 1981.44 145.016 Q1981.44 141.359 1984.03 139.368 Q1986.62 137.377 1991.39 137.377 Q1993.75 137.377 1995.84 137.725 Q1997.92 138.072 1999.68 138.766 Z" fill="#000000" fill-rule="evenodd" fill-opacity="1" /><path clip-path="url(#clip900)" d="M2027.55 171.798 L2027.55 175.109 L2002.92 175.109 L2002.92 171.798 L2027.55 171.798 Z" fill="#000000" fill-rule="evenodd" fill-opacity="1" /><path clip-path="url(#clip900)" d="M2031.55 127.91 L2035.81 127.91 L2035.81 163.928 L2031.55 163.928 L2031.55 127.91 Z" fill="#000000" fill-rule="evenodd" fill-opacity="1" /><path clip-path="url(#clip900)" d="M2066.9 149.9 L2066.9 151.984 L2047.32 151.984 Q2047.6 156.382 2049.96 158.697 Q2052.34 160.988 2056.58 160.988 Q2059.03 160.988 2061.32 160.386 Q2063.64 159.785 2065.91 158.581 L2065.91 162.609 Q2063.61 163.581 2061.21 164.09 Q2058.8 164.599 2056.32 164.599 Q2050.12 164.599 2046.48 160.988 Q2042.87 157.377 2042.87 151.22 Q2042.87 144.854 2046.3 141.127 Q2049.75 137.377 2055.58 137.377 Q2060.81 137.377 2063.85 140.757 Q2066.9 144.113 2066.9 149.9 M2062.64 148.65 Q2062.6 145.155 2060.67 143.072 Q2058.78 140.988 2055.63 140.988 Q2052.06 140.988 2049.91 143.002 Q2047.78 145.016 2047.46 148.674 L2062.64 148.65 Z" fill="#000000" fill-rule="evenodd" fill-opacity="1" /><path clip-path="url(#clip900)" d="M2090.95 150.664 Q2090.95 146.035 2089.03 143.488 Q2087.13 140.942 2083.68 140.942 Q2080.26 140.942 2078.34 143.488 Q2076.44 146.035 2076.44 150.664 Q2076.44 155.271 2078.34 157.817 Q2080.26 160.363 2083.68 160.363 Q2087.13 160.363 2089.03 157.817 Q2090.95 155.271 2090.95 150.664 M2095.21 160.711 Q2095.21 167.331 2092.27 170.548 Q2089.33 173.789 2083.27 173.789 Q2081.02 173.789 2079.03 173.442 Q2077.04 173.118 2075.17 172.423 L2075.17 168.28 Q2077.04 169.298 2078.87 169.785 Q2080.7 170.271 2082.6 170.271 Q2086.79 170.271 2088.87 168.072 Q2090.95 165.896 2090.95 161.474 L2090.95 159.368 Q2089.63 161.66 2087.57 162.794 Q2085.51 163.928 2082.64 163.928 Q2077.87 163.928 2074.96 160.294 Q2072.04 156.66 2072.04 150.664 Q2072.04 144.646 2074.96 141.012 Q2077.87 137.377 2082.64 137.377 Q2085.51 137.377 2087.57 138.512 Q2089.63 139.646 2090.95 141.937 L2090.95 138.002 L2095.21 138.002 L2095.21 160.711 Z" fill="#000000" fill-rule="evenodd" fill-opacity="1" /><path clip-path="url(#clip900)" d="M2126.16 149.9 L2126.16 151.984 L2106.58 151.984 Q2106.85 156.382 2109.22 158.697 Q2111.6 160.988 2115.84 160.988 Q2118.29 160.988 2120.58 160.386 Q2122.9 159.785 2125.16 158.581 L2125.16 162.609 Q2122.87 163.581 2120.47 164.09 Q2118.06 164.599 2115.58 164.599 Q2109.38 164.599 2105.74 160.988 Q2102.13 157.377 2102.13 151.22 Q2102.13 144.854 2105.56 141.127 Q2109.01 137.377 2114.84 137.377 Q2120.07 137.377 2123.1 140.757 Q2126.16 144.113 2126.16 149.9 M2121.9 148.65 Q2121.85 145.155 2119.93 143.072 Q2118.04 140.988 2114.89 140.988 Q2111.32 140.988 2109.17 143.002 Q2107.04 145.016 2106.72 148.674 L2121.9 148.65 Z" fill="#000000" fill-rule="evenodd" fill-opacity="1" /><path clip-path="url(#clip900)" d="M2154.7 148.28 L2154.7 163.928 L2150.44 163.928 L2150.44 148.419 Q2150.44 144.738 2149.01 142.91 Q2147.57 141.081 2144.7 141.081 Q2141.25 141.081 2139.26 143.28 Q2137.27 145.479 2137.27 149.275 L2137.27 163.928 L2132.99 163.928 L2132.99 138.002 L2137.27 138.002 L2137.27 142.03 Q2138.8 139.692 2140.86 138.535 Q2142.94 137.377 2145.65 137.377 Q2150.12 137.377 2152.41 140.155 Q2154.7 142.91 2154.7 148.28 Z" fill="#000000" fill-rule="evenodd" fill-opacity="1" /><path clip-path="url(#clip900)" d="M2180.26 141.937 L2180.26 127.91 L2184.52 127.91 L2184.52 163.928 L2180.26 163.928 L2180.26 160.039 Q2178.91 162.354 2176.85 163.488 Q2174.82 164.599 2171.95 164.599 Q2167.25 164.599 2164.29 160.849 Q2161.35 157.099 2161.35 150.988 Q2161.35 144.877 2164.29 141.127 Q2167.25 137.377 2171.95 137.377 Q2174.82 137.377 2176.85 138.512 Q2178.91 139.623 2180.26 141.937 M2165.74 150.988 Q2165.74 155.687 2167.66 158.373 Q2169.61 161.035 2172.99 161.035 Q2176.37 161.035 2178.31 158.373 Q2180.26 155.687 2180.26 150.988 Q2180.26 146.289 2178.31 143.627 Q2176.37 140.942 2172.99 140.942 Q2169.61 140.942 2167.66 143.627 Q2165.74 146.289 2165.74 150.988 Z" fill="#000000" fill-rule="evenodd" fill-opacity="1" /><path clip-path="url(#clip900)" d="M2208.31 141.984 Q2207.6 141.567 2206.74 141.382 Q2205.91 141.174 2204.89 141.174 Q2201.28 141.174 2199.33 143.535 Q2197.41 145.873 2197.41 150.271 L2197.41 163.928 L2193.13 163.928 L2193.13 138.002 L2197.41 138.002 L2197.41 142.03 Q2198.75 139.669 2200.91 138.535 Q2203.06 137.377 2206.14 137.377 Q2206.58 137.377 2207.11 137.447 Q2207.64 137.493 2208.29 137.609 L2208.31 141.984 Z" fill="#000000" fill-rule="evenodd" fill-opacity="1" /><path clip-path="url(#clip900)" d="M2233.91 149.9 L2233.91 151.984 L2214.33 151.984 Q2214.61 156.382 2216.97 158.697 Q2219.35 160.988 2223.59 160.988 Q2226.04 160.988 2228.34 160.386 Q2230.65 159.785 2232.92 158.581 L2232.92 162.609 Q2230.63 163.581 2228.22 164.09 Q2225.81 164.599 2223.34 164.599 Q2217.13 164.599 2213.5 160.988 Q2209.89 157.377 2209.89 151.22 Q2209.89 144.854 2213.31 141.127 Q2216.76 137.377 2222.59 137.377 Q2227.83 137.377 2230.86 140.757 Q2233.91 144.113 2233.91 149.9 M2229.66 148.65 Q2229.61 145.155 2227.69 143.072 Q2225.79 140.988 2222.64 140.988 Q2219.08 140.988 2216.92 143.002 Q2214.79 145.016 2214.47 148.674 L2229.66 148.65 Z" fill="#000000" fill-rule="evenodd" fill-opacity="1" /><polyline clip-path="url(#clip900)" style="stroke:#e26f46; stroke-linecap:butt; stroke-linejoin:round; stroke-width:4; stroke-opacity:1; fill:none" points="
  1701.03,198.488 1843.64,198.488 
  "/>
<path clip-path="url(#clip900)" d="M1881.25 218.176 Q1879.45 222.805 1877.74 224.217 Q1876.02 225.629 1873.15 225.629 L1869.75 225.629 L1869.75 222.064 L1872.25 222.064 Q1874.01 222.064 1874.98 221.231 Q1875.95 220.398 1877.13 217.296 L1877.9 215.351 L1867.41 189.842 L1871.93 189.842 L1880.03 210.12 L1888.13 189.842 L1892.64 189.842 L1881.25 218.176 Z" fill="#000000" fill-rule="evenodd" fill-opacity="1" /><path clip-path="url(#clip900)" d="M1903.15 211.833 L1919.47 211.833 L1919.47 215.768 L1897.53 215.768 L1897.53 211.833 Q1900.19 209.078 1904.77 204.449 Q1909.38 199.796 1910.56 198.453 Q1912.8 195.93 1913.68 194.194 Q1914.59 192.435 1914.59 190.745 Q1914.59 187.99 1912.64 186.254 Q1910.72 184.518 1907.62 184.518 Q1905.42 184.518 1902.97 185.282 Q1900.54 186.046 1897.76 187.597 L1897.76 182.875 Q1900.58 181.741 1903.04 181.162 Q1905.49 180.583 1907.53 180.583 Q1912.9 180.583 1916.09 183.268 Q1919.29 185.953 1919.29 190.444 Q1919.29 192.574 1918.48 194.495 Q1917.69 196.393 1915.58 198.986 Q1915 199.657 1911.9 202.875 Q1908.8 206.069 1903.15 211.833 Z" fill="#000000" fill-rule="evenodd" fill-opacity="1" /></svg>
