<?xml version="1.0" encoding="UTF-8" standalone="no"?>
<svg
   id="Layer_1"
   data-name="Layer 1"
   viewBox="0 0 87.101158 70.156726"
   version="1.1"
   sodipodi:docname="cu-numpde-square.svg"
   width="87.101158"
   height="70.156723"
   inkscape:version="1.1 (c4e8f9ed74, 2021-05-24)"
   xmlns:inkscape="http://www.inkscape.org/namespaces/inkscape"
   xmlns:sodipodi="http://sodipodi.sourceforge.net/DTD/sodipodi-0.dtd"
   xmlns="http://www.w3.org/2000/svg"
   xmlns:svg="http://www.w3.org/2000/svg"
   xmlns:rdf="http://www.w3.org/1999/02/22-rdf-syntax-ns#"
   xmlns:cc="http://creativecommons.org/ns#"
   xmlns:dc="http://purl.org/dc/elements/1.1/">
  <metadata
     id="metadata73">
    <rdf:RDF>
      <cc:Work
         rdf:about="">
        <dc:format>image/svg+xml</dc:format>
        <dc:type
           rdf:resource="http://purl.org/dc/dcmitype/StillImage" />
        <dc:title>cu-boulder-logo-text-black</dc:title>
      </cc:Work>
    </rdf:RDF>
  </metadata>
  <sodipodi:namedview
     pagecolor="#ffffff"
     bordercolor="#666666"
     borderopacity="1"
     objecttolerance="10"
     gridtolerance="10"
     guidetolerance="10"
     inkscape:pageopacity="0"
     inkscape:pageshadow="2"
     inkscape:window-width="1914"
     inkscape:window-height="2115"
     id="namedview71"
     showgrid="false"
     inkscape:snap-text-baseline="true"
     inkscape:zoom="1.5917625"
     inkscape:cx="117.16572"
     inkscape:cy="25.129377"
     inkscape:window-x="1922"
     inkscape:window-y="4"
     inkscape:window-maximized="0"
     inkscape:current-layer="text938"
     inkscape:document-rotation="0"
     inkscape:pagecheckerboard="0" />
  <defs
     id="defs4">
    <rect
       x="103.96053"
       y="15.951265"
       width="173.51295"
       height="49.365482"
       id="rect932" />
    <style
       id="style2">.cls-1{fill:#cfb87c;}.cls-2{fill:#231f20;}.cls-3{fill:#fff;}</style>
  </defs>
  <title
     id="title6">cu-boulder-logo-text-black</title>
  <path
     id="polygon8"
     style="fill:#cfb87c;stroke-width:0.64"
     d="M 53.220405,12.8448 C 52.802975,10.42186 54.331569,7.193895 51.85633,5.622222 49.816223,3.846378 48.088469,1.317424 45.858232,0 37.929356,0 30.00048,0 22.071605,0 c -2.235592,2.498174 -5.216908,4.687258 -6.9952,7.374973 0,7.913942 0,15.827885 0,23.741827 2.500255,2.231262 4.692173,5.207881 7.381373,6.9824 2.431275,0 4.862551,0 7.293827,0 0.419229,2.427363 -1.115854,5.668926 1.370913,7.234917 2.061518,1.784201 3.819245,4.306092 6.06806,5.635483 6.670209,0 13.340417,0 20.010627,0 2.260793,-2.497731 5.263566,-4.685746 7.0656,-7.374973 0,-6.102742 0,-12.205485 0,-18.308227 3.013149,0.653563 4.344406,-0.374764 3.6032,-3.475554 0,-2.988682 0,-5.977364 0,-8.966046 -4.8832,0 -9.7664,0 -14.6496,0 z"
     inkscape:export-xdpi="96"
     inkscape:export-ydpi="96" />
  <path
     id="polygon10"
     style="fill:#231f20;stroke-width:0.64"
     d="m 45.943605,0.7232 c 2.1824,2.1888 4.3648,4.3776 6.5472,6.5664 0.496759,1.85349 -1.009097,5.709594 0.772346,6.2784 4.627884,0 9.255769,0 13.883654,0 0,3.6672 0,7.3344 0,11.0016 -3.013149,-0.653563 -4.344406,0.374764 -3.6032,3.475554 0,5.209482 0,10.418964 0,15.628446 -2.385228,2.08631 -4.456415,4.937062 -7.029373,6.5664 -6.471809,0 -12.943618,0 -19.415427,0 -2.103959,-2.360886 -4.981874,-4.399207 -6.624,-6.952573 -0.595767,-1.760881 1.303666,-6.016963 -1.158518,-5.911427 -2.369452,-0.178658 -5.035398,0.359476 -7.217213,-0.272799 -1.993904,-2.268392 -4.766675,-4.213721 -6.299469,-6.673374 0,-7.713409 0,-15.426817 0,-23.140227 2.190933,-2.1888 4.381866,-4.3776 6.5728,-6.5664 7.857066,0 15.714133,0 23.5712,0 z"
     inkscape:export-xdpi="96"
     inkscape:export-ydpi="96" />
  <path
     id="polyline12"
     style="fill:#ffffff;stroke-width:0.64"
     d="m 23.121205,35.5648 c 3.054933,0 6.109866,0 9.1648,0 0.201828,2.495778 -0.392012,5.323288 0.274325,7.6254 1.934248,1.641466 3.5505,4.055691 5.673448,5.2386 5.974742,0 11.949485,0 17.924227,0 1.753551,-2.009198 4.283669,-3.694101 5.5744,-5.896573 0,-6.593409 0,-13.186817 0,-19.780227 3.013149,0.653563 4.344406,-0.374764 3.6032,-3.475554 0.368002,-2.694744 0.210686,-4.864172 -3.089382,-3.890846 -2.654473,0 -5.308945,0 -7.963418,0 0,8.561067 0,17.122133 0,25.6832 -4.8768,0 -9.7536,0 -14.6304,0 0.584362,-1.765202 -1.429388,-6.128516 1.54469,-5.504 2.458937,0.237907 4.795382,0.180578 6.173288,-2.187064 1.472076,-1.725397 4.10623,-2.970237 3.309222,-5.633972 -0.290559,-2.145708 1.192923,-6.065457 -2.317036,-4.991764 -1.863238,0.463504 -6.028986,-1.375502 -5.049364,1.930863 0.682952,3.017583 -0.421951,4.247311 -3.475554,3.528337 -0.432828,-3.748097 -0.06131,-8.300541 -0.185246,-12.357526 -1.226966,-1.117371 -4.550511,-0.138163 -6.564937,-0.468074 -2.387013,-6.4e-4 -5.571008,-0.798294 -4.455863,2.703209 0.247419,2.079323 -1.14294,5.796425 2.317036,4.663191 2.666938,-0.401416 0.767118,3.763924 1.337364,5.4592 -2.440534,0 -4.881067,0 -7.3216,0 0,-6.1248 0,-12.2496 0,-18.3744 6.116266,0 12.232533,0 18.3488,0 0.581687,1.78281 -1.4242,6.153194 1.54469,5.5488 1.717481,-0.609262 5.977989,1.324503 5.82171,-1.158518 C 50.316963,12.058714 51.409052,9.289262 50.134428,7.497717 48.311721,5.952394 46.817167,3.616786 44.802232,2.5344 c -7.227009,0 -14.454018,0 -21.681027,0 -1.730226,2.007572 -4.24153,3.691344 -5.5104,5.890173 0,7.212075 0,14.424152 0,21.636227 1.8368,1.834667 3.6736,3.669333 5.5104,5.504 z"
     inkscape:export-xdpi="96"
     inkscape:export-ydpi="96" />
  <path
     id="polygon14"
     style="fill:#cfb87c;stroke-width:0.64"
     d="m 38.743605,34.656 c 2.64611,-0.363658 6.053885,1.109834 7.710935,-1.639448 1.475411,-1.729098 4.117619,-2.975332 3.322665,-5.643988 0.610836,-3.00661 -0.305881,-4.485665 -3.475554,-3.711764 -3.390998,-1.024367 -1.679823,3.053438 -2.079646,5.020245 -0.702569,0.562864 -5.317418,1.140309 -5.4784,-0.333391 0,-4.017751 0,-8.035502 0,-12.053254 -3.067734,0 -6.135467,0 -9.2032,0 0.581334,1.785296 -1.423498,6.156758 1.54469,5.5552 3.407404,-1.030751 1.722944,3.03036 2.10971,5.020245 1.05801,3.481478 -2.921586,1.925348 -5.020246,2.250155 -2.697586,0.296941 -5.11158,0.31029 -4.112554,-3.089382 0,-5.700872 0,-11.401745 0,-17.102618 6.72,0 13.44,0 20.16,0 0.581687,1.78281 -1.4242,6.153194 1.54469,5.5488 2.696527,0.329896 4.996976,0.263714 4.01051,-3.089382 C 50.52026,8.673756 48.610949,7.056738 46.777359,5.408413 45.449539,2.966383 42.935376,3.383229 40.569305,3.4432 c -5.690166,0 -11.380333,0 -17.0705,0 -1.552471,1.830794 -3.888526,3.336722 -4.9792,5.358973 0,6.962475 0,13.924952 0,20.887427 1.83283,1.548147 3.341937,3.879256 5.365373,4.9664 3.103275,0 6.206551,0 9.309827,0 0.193234,2.676517 -0.38013,5.672291 0.27411,8.156816 1.755304,1.466133 3.191588,3.70664 5.136063,4.713584 5.725142,0 11.450285,0 17.175427,0 1.576928,-1.836171 3.92879,-3.349036 5.0432,-5.378173 0,-6.766209 0,-13.532417 0,-20.298627 3.013149,0.653563 4.344406,-0.374764 3.6032,-3.475554 1.024367,-3.390998 -3.053438,-1.679823 -5.020246,-2.079646 -2.698594,-0.261682 -5.234792,-0.360969 -4.221354,3.089382 0,7.529139 0,15.058279 0,22.587418 -5.480534,0 -10.961067,0 -16.4416,0 0,-2.4384 0,-4.8768 0,-7.3152 z"
     inkscape:export-xdpi="96"
     inkscape:export-ydpi="96" />
  <text
     xml:space="preserve"
     id="text930"
     style="font-style:normal;font-variant:normal;font-weight:normal;font-stretch:normal;font-size:18.6667px;line-height:1.25;font-family:'Source Sans Pro';-inkscape-font-specification:'Source Sans Pro';font-variant-ligatures:normal;font-variant-caps:normal;font-variant-numeric:normal;font-feature-settings:normal;text-align:start;letter-spacing:0px;word-spacing:0px;writing-mode:lr-tb;white-space:pre;shape-inside:url(#rect932);fill:#000000;fill-opacity:1;stroke:none"
     transform="translate(-35.694745,-14.3352)" />
  <g
     aria-label="PhyPID"
     id="text938"
     style="font-style:normal;font-variant:normal;font-weight:normal;font-stretch:normal;font-size:58.6667px;line-height:1.25;font-family:'Source Sans Pro';-inkscape-font-specification:'Source Sans Pro';font-variant-ligatures:normal;font-variant-caps:normal;font-variant-numeric:normal;font-feature-settings:normal;text-align:start;letter-spacing:0px;word-spacing:0px;writing-mode:lr-tb;text-anchor:start;fill:#000000;fill-opacity:1;stroke:none"
     transform="translate(-35.694745,-14.3352)">
    <text
       xml:space="preserve"
       style="font-style:normal;font-variant:normal;font-weight:normal;font-stretch:normal;font-size:21.6186px;line-height:1.25;font-family:'Source Sans Pro';-inkscape-font-specification:'Source Sans Pro';font-variant-ligatures:normal;font-variant-caps:normal;font-variant-numeric:normal;font-feature-settings:normal;text-align:start;letter-spacing:0px;word-spacing:0px;writing-mode:lr-tb;text-anchor:start;fill:#277ad1;fill-opacity:1;stroke:none;stroke-width:0.368499"
       x="34.051731"
       y="83.994698"
       id="text997"
       inkscape:export-xdpi="96"
       inkscape:export-ydpi="96"><tspan
         sodipodi:role="line"
         id="tspan995"
         x="34.051731"
         y="83.994698"
         style="font-style:normal;font-variant:normal;font-weight:normal;font-stretch:normal;font-size:21.6186px;font-family:'Nimbus Sans';-inkscape-font-specification:'Nimbus Sans';fill:#277ad1;fill-opacity:1;stroke-width:0.368499">Num<tspan
   style="font-weight:bold;fill:#277ad1;fill-opacity:1;stroke-width:0.368499"
   id="tspan1035">PDE</tspan></tspan></text>
  </g>
</svg>
